<?xml version="1.0" encoding="utf-8" standalone="no"?>
<!DOCTYPE svg PUBLIC "-//W3C//DTD SVG 1.1//EN"
  "http://www.w3.org/Graphics/SVG/1.1/DTD/svg11.dtd">
<!-- Created with matplotlib (http://matplotlib.org/) -->
<svg height="345.6pt" version="1.1" viewBox="0 0 460.8 345.6" width="460.8pt" xmlns="http://www.w3.org/2000/svg" xmlns:xlink="http://www.w3.org/1999/xlink">
 <defs>
  <style type="text/css">
*{stroke-linecap:butt;stroke-linejoin:round;}
  </style>
 </defs>
 <g id="figure_1">
  <g id="patch_1">
   <path d="M 0 345.6 
L 460.8 345.6 
L 460.8 0 
L 0 0 
z
" style="fill:#ffffff;"/>
  </g>
  <g id="axes_1">
   <g id="patch_2">
    <path d="M 57.6 307.584 
L 414.72 307.584 
L 414.72 41.472 
L 57.6 41.472 
z
" style="fill:#ffffff;"/>
   </g>
   <g id="matplotlib.axis_1">
    <g id="xtick_1">
     <g id="line2d_1">
      <path clip-path="url(#pd7d208dbaa)" d="M 73.832727 307.584 
L 73.832727 41.472 
" style="fill:none;stroke:#b0b0b0;stroke-linecap:square;stroke-width:0.8;"/>
     </g>
     <g id="line2d_2">
      <defs>
       <path d="M 0 0 
L 0 3.5 
" id="m9d8cc7e495" style="stroke:#000000;stroke-width:0.8;"/>
      </defs>
      <g>
       <use style="stroke:#000000;stroke-width:0.8;" x="73.832727" xlink:href="#m9d8cc7e495" y="307.584"/>
      </g>
     </g>
     <g id="text_1">
      <!-- 0 -->
      <defs>
       <path d="M 31.78125 66.40625 
Q 24.171875 66.40625 20.328125 58.90625 
Q 16.5 51.421875 16.5 36.375 
Q 16.5 21.390625 20.328125 13.890625 
Q 24.171875 6.390625 31.78125 6.390625 
Q 39.453125 6.390625 43.28125 13.890625 
Q 47.125 21.390625 47.125 36.375 
Q 47.125 51.421875 43.28125 58.90625 
Q 39.453125 66.40625 31.78125 66.40625 
z
M 31.78125 74.21875 
Q 44.046875 74.21875 50.515625 64.515625 
Q 56.984375 54.828125 56.984375 36.375 
Q 56.984375 17.96875 50.515625 8.265625 
Q 44.046875 -1.421875 31.78125 -1.421875 
Q 19.53125 -1.421875 13.0625 8.265625 
Q 6.59375 17.96875 6.59375 36.375 
Q 6.59375 54.828125 13.0625 64.515625 
Q 19.53125 74.21875 31.78125 74.21875 
z
" id="DejaVuSans-30"/>
      </defs>
      <g transform="translate(70.651477 322.182437)scale(0.1 -0.1)">
       <use xlink:href="#DejaVuSans-30"/>
      </g>
     </g>
    </g>
    <g id="xtick_2">
     <g id="line2d_3">
      <path clip-path="url(#pd7d208dbaa)" d="M 142.908162 307.584 
L 142.908162 41.472 
" style="fill:none;stroke:#b0b0b0;stroke-linecap:square;stroke-width:0.8;"/>
     </g>
     <g id="line2d_4">
      <g>
       <use style="stroke:#000000;stroke-width:0.8;" x="142.908162" xlink:href="#m9d8cc7e495" y="307.584"/>
      </g>
     </g>
     <g id="text_2">
      <!-- 200 -->
      <defs>
       <path d="M 19.1875 8.296875 
L 53.609375 8.296875 
L 53.609375 0 
L 7.328125 0 
L 7.328125 8.296875 
Q 12.9375 14.109375 22.625 23.890625 
Q 32.328125 33.6875 34.8125 36.53125 
Q 39.546875 41.84375 41.421875 45.53125 
Q 43.3125 49.21875 43.3125 52.78125 
Q 43.3125 58.59375 39.234375 62.25 
Q 35.15625 65.921875 28.609375 65.921875 
Q 23.96875 65.921875 18.8125 64.3125 
Q 13.671875 62.703125 7.8125 59.421875 
L 7.8125 69.390625 
Q 13.765625 71.78125 18.9375 73 
Q 24.125 74.21875 28.421875 74.21875 
Q 39.75 74.21875 46.484375 68.546875 
Q 53.21875 62.890625 53.21875 53.421875 
Q 53.21875 48.921875 51.53125 44.890625 
Q 49.859375 40.875 45.40625 35.40625 
Q 44.1875 33.984375 37.640625 27.21875 
Q 31.109375 20.453125 19.1875 8.296875 
z
" id="DejaVuSans-32"/>
      </defs>
      <g transform="translate(133.364412 322.182437)scale(0.1 -0.1)">
       <use xlink:href="#DejaVuSans-32"/>
       <use x="63.623047" xlink:href="#DejaVuSans-30"/>
       <use x="127.246094" xlink:href="#DejaVuSans-30"/>
      </g>
     </g>
    </g>
    <g id="xtick_3">
     <g id="line2d_5">
      <path clip-path="url(#pd7d208dbaa)" d="M 211.983598 307.584 
L 211.983598 41.472 
" style="fill:none;stroke:#b0b0b0;stroke-linecap:square;stroke-width:0.8;"/>
     </g>
     <g id="line2d_6">
      <g>
       <use style="stroke:#000000;stroke-width:0.8;" x="211.983598" xlink:href="#m9d8cc7e495" y="307.584"/>
      </g>
     </g>
     <g id="text_3">
      <!-- 400 -->
      <defs>
       <path d="M 37.796875 64.3125 
L 12.890625 25.390625 
L 37.796875 25.390625 
z
M 35.203125 72.90625 
L 47.609375 72.90625 
L 47.609375 25.390625 
L 58.015625 25.390625 
L 58.015625 17.1875 
L 47.609375 17.1875 
L 47.609375 0 
L 37.796875 0 
L 37.796875 17.1875 
L 4.890625 17.1875 
L 4.890625 26.703125 
z
" id="DejaVuSans-34"/>
      </defs>
      <g transform="translate(202.439848 322.182437)scale(0.1 -0.1)">
       <use xlink:href="#DejaVuSans-34"/>
       <use x="63.623047" xlink:href="#DejaVuSans-30"/>
       <use x="127.246094" xlink:href="#DejaVuSans-30"/>
      </g>
     </g>
    </g>
    <g id="xtick_4">
     <g id="line2d_7">
      <path clip-path="url(#pd7d208dbaa)" d="M 281.059033 307.584 
L 281.059033 41.472 
" style="fill:none;stroke:#b0b0b0;stroke-linecap:square;stroke-width:0.8;"/>
     </g>
     <g id="line2d_8">
      <g>
       <use style="stroke:#000000;stroke-width:0.8;" x="281.059033" xlink:href="#m9d8cc7e495" y="307.584"/>
      </g>
     </g>
     <g id="text_4">
      <!-- 600 -->
      <defs>
       <path d="M 33.015625 40.375 
Q 26.375 40.375 22.484375 35.828125 
Q 18.609375 31.296875 18.609375 23.390625 
Q 18.609375 15.53125 22.484375 10.953125 
Q 26.375 6.390625 33.015625 6.390625 
Q 39.65625 6.390625 43.53125 10.953125 
Q 47.40625 15.53125 47.40625 23.390625 
Q 47.40625 31.296875 43.53125 35.828125 
Q 39.65625 40.375 33.015625 40.375 
z
M 52.59375 71.296875 
L 52.59375 62.3125 
Q 48.875 64.0625 45.09375 64.984375 
Q 41.3125 65.921875 37.59375 65.921875 
Q 27.828125 65.921875 22.671875 59.328125 
Q 17.53125 52.734375 16.796875 39.40625 
Q 19.671875 43.65625 24.015625 45.921875 
Q 28.375 48.1875 33.59375 48.1875 
Q 44.578125 48.1875 50.953125 41.515625 
Q 57.328125 34.859375 57.328125 23.390625 
Q 57.328125 12.15625 50.6875 5.359375 
Q 44.046875 -1.421875 33.015625 -1.421875 
Q 20.359375 -1.421875 13.671875 8.265625 
Q 6.984375 17.96875 6.984375 36.375 
Q 6.984375 53.65625 15.1875 63.9375 
Q 23.390625 74.21875 37.203125 74.21875 
Q 40.921875 74.21875 44.703125 73.484375 
Q 48.484375 72.75 52.59375 71.296875 
z
" id="DejaVuSans-36"/>
      </defs>
      <g transform="translate(271.515283 322.182437)scale(0.1 -0.1)">
       <use xlink:href="#DejaVuSans-36"/>
       <use x="63.623047" xlink:href="#DejaVuSans-30"/>
       <use x="127.246094" xlink:href="#DejaVuSans-30"/>
      </g>
     </g>
    </g>
    <g id="xtick_5">
     <g id="line2d_9">
      <path clip-path="url(#pd7d208dbaa)" d="M 350.134468 307.584 
L 350.134468 41.472 
" style="fill:none;stroke:#b0b0b0;stroke-linecap:square;stroke-width:0.8;"/>
     </g>
     <g id="line2d_10">
      <g>
       <use style="stroke:#000000;stroke-width:0.8;" x="350.134468" xlink:href="#m9d8cc7e495" y="307.584"/>
      </g>
     </g>
     <g id="text_5">
      <!-- 800 -->
      <defs>
       <path d="M 31.78125 34.625 
Q 24.75 34.625 20.71875 30.859375 
Q 16.703125 27.09375 16.703125 20.515625 
Q 16.703125 13.921875 20.71875 10.15625 
Q 24.75 6.390625 31.78125 6.390625 
Q 38.8125 6.390625 42.859375 10.171875 
Q 46.921875 13.96875 46.921875 20.515625 
Q 46.921875 27.09375 42.890625 30.859375 
Q 38.875 34.625 31.78125 34.625 
z
M 21.921875 38.8125 
Q 15.578125 40.375 12.03125 44.71875 
Q 8.5 49.078125 8.5 55.328125 
Q 8.5 64.0625 14.71875 69.140625 
Q 20.953125 74.21875 31.78125 74.21875 
Q 42.671875 74.21875 48.875 69.140625 
Q 55.078125 64.0625 55.078125 55.328125 
Q 55.078125 49.078125 51.53125 44.71875 
Q 48 40.375 41.703125 38.8125 
Q 48.828125 37.15625 52.796875 32.3125 
Q 56.78125 27.484375 56.78125 20.515625 
Q 56.78125 9.90625 50.3125 4.234375 
Q 43.84375 -1.421875 31.78125 -1.421875 
Q 19.734375 -1.421875 13.25 4.234375 
Q 6.78125 9.90625 6.78125 20.515625 
Q 6.78125 27.484375 10.78125 32.3125 
Q 14.796875 37.15625 21.921875 38.8125 
z
M 18.3125 54.390625 
Q 18.3125 48.734375 21.84375 45.5625 
Q 25.390625 42.390625 31.78125 42.390625 
Q 38.140625 42.390625 41.71875 45.5625 
Q 45.3125 48.734375 45.3125 54.390625 
Q 45.3125 60.0625 41.71875 63.234375 
Q 38.140625 66.40625 31.78125 66.40625 
Q 25.390625 66.40625 21.84375 63.234375 
Q 18.3125 60.0625 18.3125 54.390625 
z
" id="DejaVuSans-38"/>
      </defs>
      <g transform="translate(340.590718 322.182437)scale(0.1 -0.1)">
       <use xlink:href="#DejaVuSans-38"/>
       <use x="63.623047" xlink:href="#DejaVuSans-30"/>
       <use x="127.246094" xlink:href="#DejaVuSans-30"/>
      </g>
     </g>
    </g>
    <g id="text_6">
     <!-- Generations -->
     <defs>
      <path d="M 59.515625 10.40625 
L 59.515625 29.984375 
L 43.40625 29.984375 
L 43.40625 38.09375 
L 69.28125 38.09375 
L 69.28125 6.78125 
Q 63.578125 2.734375 56.6875 0.65625 
Q 49.8125 -1.421875 42 -1.421875 
Q 24.90625 -1.421875 15.25 8.5625 
Q 5.609375 18.5625 5.609375 36.375 
Q 5.609375 54.25 15.25 64.234375 
Q 24.90625 74.21875 42 74.21875 
Q 49.125 74.21875 55.546875 72.453125 
Q 61.96875 70.703125 67.390625 67.28125 
L 67.390625 56.78125 
Q 61.921875 61.421875 55.765625 63.765625 
Q 49.609375 66.109375 42.828125 66.109375 
Q 29.4375 66.109375 22.71875 58.640625 
Q 16.015625 51.171875 16.015625 36.375 
Q 16.015625 21.625 22.71875 14.15625 
Q 29.4375 6.6875 42.828125 6.6875 
Q 48.046875 6.6875 52.140625 7.59375 
Q 56.25 8.5 59.515625 10.40625 
z
" id="DejaVuSans-47"/>
      <path d="M 56.203125 29.59375 
L 56.203125 25.203125 
L 14.890625 25.203125 
Q 15.484375 15.921875 20.484375 11.0625 
Q 25.484375 6.203125 34.421875 6.203125 
Q 39.59375 6.203125 44.453125 7.46875 
Q 49.3125 8.734375 54.109375 11.28125 
L 54.109375 2.78125 
Q 49.265625 0.734375 44.1875 -0.34375 
Q 39.109375 -1.421875 33.890625 -1.421875 
Q 20.796875 -1.421875 13.15625 6.1875 
Q 5.515625 13.8125 5.515625 26.8125 
Q 5.515625 40.234375 12.765625 48.109375 
Q 20.015625 56 32.328125 56 
Q 43.359375 56 49.78125 48.890625 
Q 56.203125 41.796875 56.203125 29.59375 
z
M 47.21875 32.234375 
Q 47.125 39.59375 43.09375 43.984375 
Q 39.0625 48.390625 32.421875 48.390625 
Q 24.90625 48.390625 20.390625 44.140625 
Q 15.875 39.890625 15.1875 32.171875 
z
" id="DejaVuSans-65"/>
      <path d="M 54.890625 33.015625 
L 54.890625 0 
L 45.90625 0 
L 45.90625 32.71875 
Q 45.90625 40.484375 42.875 44.328125 
Q 39.84375 48.1875 33.796875 48.1875 
Q 26.515625 48.1875 22.3125 43.546875 
Q 18.109375 38.921875 18.109375 30.90625 
L 18.109375 0 
L 9.078125 0 
L 9.078125 54.6875 
L 18.109375 54.6875 
L 18.109375 46.1875 
Q 21.34375 51.125 25.703125 53.5625 
Q 30.078125 56 35.796875 56 
Q 45.21875 56 50.046875 50.171875 
Q 54.890625 44.34375 54.890625 33.015625 
z
" id="DejaVuSans-6e"/>
      <path d="M 41.109375 46.296875 
Q 39.59375 47.171875 37.8125 47.578125 
Q 36.03125 48 33.890625 48 
Q 26.265625 48 22.1875 43.046875 
Q 18.109375 38.09375 18.109375 28.8125 
L 18.109375 0 
L 9.078125 0 
L 9.078125 54.6875 
L 18.109375 54.6875 
L 18.109375 46.1875 
Q 20.953125 51.171875 25.484375 53.578125 
Q 30.03125 56 36.53125 56 
Q 37.453125 56 38.578125 55.875 
Q 39.703125 55.765625 41.0625 55.515625 
z
" id="DejaVuSans-72"/>
      <path d="M 34.28125 27.484375 
Q 23.390625 27.484375 19.1875 25 
Q 14.984375 22.515625 14.984375 16.5 
Q 14.984375 11.71875 18.140625 8.90625 
Q 21.296875 6.109375 26.703125 6.109375 
Q 34.1875 6.109375 38.703125 11.40625 
Q 43.21875 16.703125 43.21875 25.484375 
L 43.21875 27.484375 
z
M 52.203125 31.203125 
L 52.203125 0 
L 43.21875 0 
L 43.21875 8.296875 
Q 40.140625 3.328125 35.546875 0.953125 
Q 30.953125 -1.421875 24.3125 -1.421875 
Q 15.921875 -1.421875 10.953125 3.296875 
Q 6 8.015625 6 15.921875 
Q 6 25.140625 12.171875 29.828125 
Q 18.359375 34.515625 30.609375 34.515625 
L 43.21875 34.515625 
L 43.21875 35.40625 
Q 43.21875 41.609375 39.140625 45 
Q 35.0625 48.390625 27.6875 48.390625 
Q 23 48.390625 18.546875 47.265625 
Q 14.109375 46.140625 10.015625 43.890625 
L 10.015625 52.203125 
Q 14.9375 54.109375 19.578125 55.046875 
Q 24.21875 56 28.609375 56 
Q 40.484375 56 46.34375 49.84375 
Q 52.203125 43.703125 52.203125 31.203125 
z
" id="DejaVuSans-61"/>
      <path d="M 18.3125 70.21875 
L 18.3125 54.6875 
L 36.8125 54.6875 
L 36.8125 47.703125 
L 18.3125 47.703125 
L 18.3125 18.015625 
Q 18.3125 11.328125 20.140625 9.421875 
Q 21.96875 7.515625 27.59375 7.515625 
L 36.8125 7.515625 
L 36.8125 0 
L 27.59375 0 
Q 17.1875 0 13.234375 3.875 
Q 9.28125 7.765625 9.28125 18.015625 
L 9.28125 47.703125 
L 2.6875 47.703125 
L 2.6875 54.6875 
L 9.28125 54.6875 
L 9.28125 70.21875 
z
" id="DejaVuSans-74"/>
      <path d="M 9.421875 54.6875 
L 18.40625 54.6875 
L 18.40625 0 
L 9.421875 0 
z
M 9.421875 75.984375 
L 18.40625 75.984375 
L 18.40625 64.59375 
L 9.421875 64.59375 
z
" id="DejaVuSans-69"/>
      <path d="M 30.609375 48.390625 
Q 23.390625 48.390625 19.1875 42.75 
Q 14.984375 37.109375 14.984375 27.296875 
Q 14.984375 17.484375 19.15625 11.84375 
Q 23.34375 6.203125 30.609375 6.203125 
Q 37.796875 6.203125 41.984375 11.859375 
Q 46.1875 17.53125 46.1875 27.296875 
Q 46.1875 37.015625 41.984375 42.703125 
Q 37.796875 48.390625 30.609375 48.390625 
z
M 30.609375 56 
Q 42.328125 56 49.015625 48.375 
Q 55.71875 40.765625 55.71875 27.296875 
Q 55.71875 13.875 49.015625 6.21875 
Q 42.328125 -1.421875 30.609375 -1.421875 
Q 18.84375 -1.421875 12.171875 6.21875 
Q 5.515625 13.875 5.515625 27.296875 
Q 5.515625 40.765625 12.171875 48.375 
Q 18.84375 56 30.609375 56 
z
" id="DejaVuSans-6f"/>
      <path d="M 44.28125 53.078125 
L 44.28125 44.578125 
Q 40.484375 46.53125 36.375 47.5 
Q 32.28125 48.484375 27.875 48.484375 
Q 21.1875 48.484375 17.84375 46.4375 
Q 14.5 44.390625 14.5 40.28125 
Q 14.5 37.15625 16.890625 35.375 
Q 19.28125 33.59375 26.515625 31.984375 
L 29.59375 31.296875 
Q 39.15625 29.25 43.1875 25.515625 
Q 47.21875 21.78125 47.21875 15.09375 
Q 47.21875 7.46875 41.1875 3.015625 
Q 35.15625 -1.421875 24.609375 -1.421875 
Q 20.21875 -1.421875 15.453125 -0.5625 
Q 10.6875 0.296875 5.421875 2 
L 5.421875 11.28125 
Q 10.40625 8.6875 15.234375 7.390625 
Q 20.0625 6.109375 24.8125 6.109375 
Q 31.15625 6.109375 34.5625 8.28125 
Q 37.984375 10.453125 37.984375 14.40625 
Q 37.984375 18.0625 35.515625 20.015625 
Q 33.0625 21.96875 24.703125 23.78125 
L 21.578125 24.515625 
Q 13.234375 26.265625 9.515625 29.90625 
Q 5.8125 33.546875 5.8125 39.890625 
Q 5.8125 47.609375 11.28125 51.796875 
Q 16.75 56 26.8125 56 
Q 31.78125 56 36.171875 55.265625 
Q 40.578125 54.546875 44.28125 53.078125 
z
" id="DejaVuSans-73"/>
     </defs>
     <g transform="translate(205.662344 335.860562)scale(0.1 -0.1)">
      <use xlink:href="#DejaVuSans-47"/>
      <use x="77.490234" xlink:href="#DejaVuSans-65"/>
      <use x="139.013672" xlink:href="#DejaVuSans-6e"/>
      <use x="202.392578" xlink:href="#DejaVuSans-65"/>
      <use x="263.916016" xlink:href="#DejaVuSans-72"/>
      <use x="305.029297" xlink:href="#DejaVuSans-61"/>
      <use x="366.308594" xlink:href="#DejaVuSans-74"/>
      <use x="405.517578" xlink:href="#DejaVuSans-69"/>
      <use x="433.300781" xlink:href="#DejaVuSans-6f"/>
      <use x="494.482422" xlink:href="#DejaVuSans-6e"/>
      <use x="557.861328" xlink:href="#DejaVuSans-73"/>
     </g>
    </g>
   </g>
   <g id="matplotlib.axis_2">
    <g id="ytick_1">
     <g id="line2d_11">
      <path clip-path="url(#pd7d208dbaa)" d="M 57.6 137.77261 
L 414.72 137.77261 
" style="fill:none;stroke:#b0b0b0;stroke-linecap:square;stroke-width:0.8;"/>
     </g>
     <g id="line2d_12">
      <defs>
       <path d="M 0 0 
L -3.5 0 
" id="m988a16f757" style="stroke:#000000;stroke-width:0.8;"/>
      </defs>
      <g>
       <use style="stroke:#000000;stroke-width:0.8;" x="57.6" xlink:href="#m988a16f757" y="137.77261"/>
      </g>
     </g>
     <g id="text_7">
      <!-- $\mathdefault{10^{1}}$ -->
      <defs>
       <path d="M 12.40625 8.296875 
L 28.515625 8.296875 
L 28.515625 63.921875 
L 10.984375 60.40625 
L 10.984375 69.390625 
L 28.421875 72.90625 
L 38.28125 72.90625 
L 38.28125 8.296875 
L 54.390625 8.296875 
L 54.390625 0 
L 12.40625 0 
z
" id="DejaVuSans-31"/>
      </defs>
      <g transform="translate(33 141.571829)scale(0.1 -0.1)">
       <use transform="translate(0 0.684375)" xlink:href="#DejaVuSans-31"/>
       <use transform="translate(63.623047 0.684375)" xlink:href="#DejaVuSans-30"/>
       <use transform="translate(128.203125 38.965625)scale(0.7)" xlink:href="#DejaVuSans-31"/>
      </g>
     </g>
    </g>
    <g id="ytick_2">
     <g id="line2d_13">
      <defs>
       <path d="M 0 0 
L -2 0 
" id="m88b8faaf26" style="stroke:#000000;stroke-width:0.6;"/>
      </defs>
      <g>
       <use style="stroke:#000000;stroke-width:0.6;" x="57.6" xlink:href="#m88b8faaf26" y="137.77261"/>
      </g>
     </g>
    </g>
    <g id="text_8">
     <!-- Fitness -->
     <defs>
      <path d="M 9.8125 72.90625 
L 51.703125 72.90625 
L 51.703125 64.59375 
L 19.671875 64.59375 
L 19.671875 43.109375 
L 48.578125 43.109375 
L 48.578125 34.8125 
L 19.671875 34.8125 
L 19.671875 0 
L 9.8125 0 
z
" id="DejaVuSans-46"/>
     </defs>
     <g transform="translate(26.920312 192.202219)rotate(-90)scale(0.1 -0.1)">
      <use xlink:href="#DejaVuSans-46"/>
      <use x="57.410156" xlink:href="#DejaVuSans-69"/>
      <use x="85.193359" xlink:href="#DejaVuSans-74"/>
      <use x="124.402344" xlink:href="#DejaVuSans-6e"/>
      <use x="187.78125" xlink:href="#DejaVuSans-65"/>
      <use x="249.304688" xlink:href="#DejaVuSans-73"/>
      <use x="301.404297" xlink:href="#DejaVuSans-73"/>
     </g>
    </g>
   </g>
   <g id="line2d_14">
    <path clip-path="url(#pd7d208dbaa)" d="M 73.832727 295.488 
L 74.523482 256.940626 
L 74.868859 240.24603 
L 75.559613 222.090713 
L 76.250368 213.369855 
L 76.595745 223.900452 
L 76.941122 217.074617 
L 77.286499 216.48162 
L 77.631876 216.950205 
L 77.977253 210.80967 
L 78.322631 209.655945 
L 78.668008 202.690672 
L 79.358762 194.866139 
L 80.049516 192.277323 
L 80.394894 193.216856 
L 80.740271 190.758622 
L 81.085648 190.219301 
L 81.431025 189.453532 
L 81.776402 184.617173 
L 82.121779 199.7002 
L 82.467157 194.155337 
L 82.812534 190.673952 
L 83.157911 190.932105 
L 83.503288 189.24154 
L 83.848665 196.138584 
L 84.194043 190.137353 
L 84.53942 191.460145 
L 84.884797 184.962173 
L 85.230174 197.595805 
L 85.575551 203.547082 
L 85.920928 205.076077 
L 86.266306 203.41126 
L 86.611683 199.68806 
L 86.95706 198.907383 
L 87.302437 196.716089 
L 87.647814 191.593374 
L 87.993191 191.193056 
L 88.338569 185.442822 
L 88.683946 190.297217 
L 89.029323 189.817225 
L 89.3747 184.11345 
L 89.720077 186.675744 
L 90.065455 186.25225 
L 90.410832 190.823475 
L 90.756209 185.760044 
L 91.101586 187.572805 
L 91.446963 188.42627 
L 91.79234 177.074823 
L 92.137718 177.93547 
L 92.483095 187.609582 
L 92.828472 185.158919 
L 93.173849 179.11809 
L 93.519226 184.758804 
L 93.864603 185.453483 
L 94.209981 184.071283 
L 94.555358 186.960233 
L 94.900735 186.932678 
L 95.246112 179.877387 
L 95.936867 188.145552 
L 96.282244 181.008673 
L 96.627621 185.534586 
L 96.972998 183.553264 
L 97.318375 182.60875 
L 97.663752 191.783003 
L 98.00913 185.767761 
L 98.354507 188.904772 
L 98.699884 181.700744 
L 99.045261 189.004958 
L 99.390638 192.040291 
L 99.736015 182.487421 
L 100.081393 186.834439 
L 100.42677 184.534435 
L 100.772147 186.166114 
L 101.117524 180.515024 
L 101.462901 185.017475 
L 101.808279 191.181852 
L 102.153656 195.224 
L 102.499033 192.95831 
L 102.84441 196.027719 
L 103.189787 193.218041 
L 103.535164 194.382866 
L 104.225919 180.67108 
L 104.571296 184.746052 
L 104.916673 179.766102 
L 105.26205 185.816601 
L 105.607427 178.071413 
L 105.952805 181.254481 
L 106.298182 179.013925 
L 106.643559 183.62741 
L 106.988936 180.424926 
L 107.334313 180.110481 
L 107.679691 182.828158 
L 108.025068 182.144898 
L 108.370445 178.623773 
L 108.715822 184.09633 
L 109.061199 184.287582 
L 109.406576 186.398662 
L 109.751954 189.82833 
L 110.097331 185.306297 
L 110.442708 186.090683 
L 110.788085 189.576725 
L 111.133462 184.350542 
L 111.478839 184.368583 
L 111.824217 193.352246 
L 112.514971 181.92886 
L 112.860348 179.965478 
L 113.205725 192.311748 
L 113.551103 186.399301 
L 113.89648 188.020749 
L 114.241857 193.094172 
L 114.587234 185.11561 
L 114.932611 186.931429 
L 115.277988 191.60216 
L 115.623366 179.730858 
L 115.968743 188.322046 
L 116.31412 184.639164 
L 116.659497 188.521694 
L 117.004874 185.322692 
L 117.350251 189.051207 
L 117.695629 189.949917 
L 118.041006 191.309435 
L 118.386383 185.322571 
L 118.73176 186.675091 
L 119.767892 200.513471 
L 120.113269 197.203957 
L 120.458646 196.365794 
L 120.804023 197.197889 
L 121.1494 190.619807 
L 121.494778 195.328496 
L 122.185532 199.327042 
L 122.530909 195.479615 
L 122.876286 196.104506 
L 123.221663 193.861589 
L 123.912418 185.279911 
L 124.257795 192.33199 
L 124.603172 187.51223 
L 124.948549 187.080031 
L 125.293926 183.19484 
L 125.639304 182.14777 
L 125.984681 186.209394 
L 126.330058 181.371454 
L 126.675435 179.294305 
L 127.020812 183.964926 
L 127.36619 185.417596 
L 127.711567 185.090639 
L 128.056944 183.809065 
L 128.402321 178.602085 
L 128.747698 176.085664 
L 129.093075 183.464567 
L 129.438453 185.067622 
L 129.78383 187.921944 
L 130.129207 183.964186 
L 130.474584 184.717296 
L 130.819961 189.288012 
L 131.165338 186.470566 
L 131.510716 182.144996 
L 131.856093 186.558478 
L 132.20147 181.636541 
L 132.546847 184.698097 
L 132.892224 194.739433 
L 133.237602 189.223014 
L 133.582979 187.744624 
L 133.928356 180.716213 
L 134.273733 187.414584 
L 134.61911 187.253926 
L 134.964487 188.676519 
L 135.309865 189.279349 
L 135.655242 197.745975 
L 136.000619 193.54097 
L 136.345996 193.757322 
L 136.691373 196.936876 
L 137.03675 192.190519 
L 137.382128 183.002856 
L 137.727505 189.867367 
L 138.072882 189.679963 
L 138.418259 187.028467 
L 138.763636 190.794788 
L 139.109014 183.001373 
L 139.454391 181.084109 
L 139.799768 183.874665 
L 140.145145 182.972627 
L 140.490522 185.61952 
L 140.835899 190.81086 
L 141.181277 187.518213 
L 141.526654 188.488379 
L 141.872031 182.181023 
L 142.217408 188.18124 
L 142.562785 191.469924 
L 142.908162 188.70361 
L 143.25354 190.353416 
L 143.598917 189.421643 
L 143.944294 192.488224 
L 144.635048 184.700857 
L 144.980426 192.002629 
L 145.325803 188.887589 
L 145.67118 182.877803 
L 146.016557 172.197464 
L 146.361934 169.744624 
L 146.707311 163.967449 
L 147.052689 165.658199 
L 147.398066 164.957279 
L 147.743443 166.791827 
L 148.08882 171.366138 
L 148.434197 170.011162 
L 148.779574 166.776478 
L 149.124952 160.600919 
L 149.470329 166.216003 
L 149.815706 162.537315 
L 150.161083 171.248766 
L 150.50646 168.862115 
L 150.851838 167.953352 
L 151.197215 171.025951 
L 151.542592 162.56242 
L 151.887969 161.097493 
L 152.233346 163.053542 
L 152.578723 167.666199 
L 152.924101 160.029082 
L 153.269478 165.281062 
L 153.614855 166.268708 
L 153.960232 167.743314 
L 154.305609 161.191079 
L 154.650986 162.483867 
L 154.996364 171.323356 
L 155.341741 144.108127 
L 155.687118 141.969853 
L 156.377872 183.784654 
L 156.72325 168.784577 
L 157.068627 168.392186 
L 157.414004 173.784676 
L 157.759381 188.953621 
L 158.104758 185.986262 
L 158.795513 171.087394 
L 159.14089 171.074692 
L 159.486267 169.646635 
L 159.831644 177.074784 
L 160.177021 170.019982 
L 160.522398 159.283891 
L 161.213153 178.773351 
L 161.55853 171.854485 
L 161.903907 175.719877 
L 162.249284 165.35018 
L 162.594662 172.702669 
L 162.940039 175.905537 
L 163.630793 158.953392 
L 163.97617 172.572196 
L 164.321547 158.164673 
L 164.666925 169.123531 
L 165.012302 153.151404 
L 165.357679 158.748084 
L 165.703056 166.758593 
L 166.048433 168.270518 
L 166.39381 158.559625 
L 166.739188 167.336944 
L 167.084565 171.513002 
L 167.429942 171.203063 
L 167.775319 173.328272 
L 168.120696 166.844711 
L 168.466074 169.015951 
L 168.811451 172.703348 
L 169.156828 166.400798 
L 169.847582 183.469981 
L 170.538337 186.73252 
L 170.883714 183.635923 
L 171.229091 185.813364 
L 171.574468 186.115883 
L 171.919845 190.855492 
L 172.265222 190.846646 
L 172.6106 196.072355 
L 172.955977 193.693283 
L 173.646731 192.010226 
L 173.992108 191.879899 
L 174.337485 191.361373 
L 174.682863 184.661389 
L 175.02824 194.783815 
L 175.718994 190.65745 
L 176.064371 196.403487 
L 176.755126 175.983601 
L 177.100503 179.81144 
L 177.44588 185.121294 
L 177.791257 185.176707 
L 178.136634 189.152254 
L 178.482012 184.749128 
L 178.827389 183.20976 
L 179.172766 182.64305 
L 179.518143 178.093361 
L 179.86352 178.839612 
L 180.208897 184.50252 
L 180.554275 179.938164 
L 180.899652 185.186587 
L 181.245029 185.582403 
L 181.590406 183.632928 
L 182.281161 193.071449 
L 182.626538 186.859878 
L 182.971915 186.318198 
L 183.317292 187.158046 
L 183.662669 190.614486 
L 184.008046 182.303899 
L 184.353424 180.059413 
L 184.698801 179.151756 
L 185.044178 176.9298 
L 185.389555 184.000814 
L 185.734932 183.480825 
L 186.080309 181.499934 
L 186.425687 186.380975 
L 186.771064 188.442703 
L 187.116441 192.326277 
L 187.461818 190.687379 
L 187.807195 183.287724 
L 188.152573 184.484168 
L 188.49795 183.09302 
L 188.843327 182.639755 
L 189.188704 175.94222 
L 189.534081 177.08723 
L 189.879458 174.666943 
L 190.224836 177.268712 
L 190.570213 181.353716 
L 190.91559 183.346108 
L 191.260967 184.409372 
L 191.606344 186.102171 
L 191.951721 185.721795 
L 192.297099 194.846599 
L 192.642476 188.097725 
L 192.987853 190.294094 
L 193.33323 183.006178 
L 193.678607 186.33641 
L 194.023985 185.079341 
L 194.369362 187.529423 
L 194.714739 176.19096 
L 195.060116 178.163026 
L 195.405493 182.394744 
L 195.75087 189.878376 
L 196.096248 187.59924 
L 196.441625 174.148454 
L 196.787002 180.573839 
L 197.132379 180.147657 
L 197.477756 185.291855 
L 198.168511 177.288636 
L 198.513888 179.075755 
L 198.859265 178.803873 
L 199.204642 183.905047 
L 199.550019 184.733487 
L 199.895397 175.511866 
L 200.586151 182.708574 
L 200.931528 178.842762 
L 201.276905 180.698832 
L 201.622282 185.33168 
L 201.96766 183.405751 
L 202.658414 191.4656 
L 203.003791 187.877063 
L 203.349168 192.072462 
L 203.694545 186.694544 
L 204.039923 187.730833 
L 204.3853 194.720888 
L 204.730677 189.49101 
L 205.076054 187.681077 
L 205.421431 184.761263 
L 205.766809 188.296808 
L 206.112186 186.824656 
L 206.457563 192.352008 
L 207.148317 182.451267 
L 207.493694 185.968274 
L 207.839072 181.906095 
L 208.184449 185.327871 
L 208.529826 194.113119 
L 208.875203 187.948576 
L 209.22058 184.892238 
L 209.565957 183.419465 
L 209.911335 184.712236 
L 210.256712 186.603889 
L 210.602089 185.612426 
L 210.947466 187.820377 
L 211.292843 191.658261 
L 211.983598 182.711948 
L 212.674352 184.086196 
L 213.019729 181.539937 
L 213.365106 175.490776 
L 213.710484 182.701652 
L 214.401238 185.013044 
L 214.746615 179.194245 
L 215.091992 181.299972 
L 215.437369 171.844699 
L 215.782747 184.20401 
L 216.128124 181.276556 
L 216.473501 183.413871 
L 216.818878 188.389254 
L 217.509632 177.549251 
L 217.85501 186.184468 
L 218.200387 178.73728 
L 218.545764 181.451165 
L 218.891141 175.144783 
L 219.236518 179.047534 
L 219.581896 177.29598 
L 219.927273 180.724292 
L 220.27265 182.523645 
L 220.618027 174.860917 
L 221.308781 177.837852 
L 221.654159 177.398667 
L 221.999536 185.520393 
L 222.344913 180.004487 
L 222.69029 182.640706 
L 223.035667 180.664751 
L 223.381044 179.707212 
L 223.726422 181.258503 
L 224.071799 181.365957 
L 224.417176 184.197177 
L 224.762553 185.157579 
L 225.10793 183.489262 
L 225.453308 175.337937 
L 225.798685 179.798587 
L 226.144062 180.676214 
L 226.489439 180.322141 
L 226.834816 182.844152 
L 227.180193 193.38629 
L 227.870948 184.544697 
L 228.216325 182.622116 
L 228.561702 177.855039 
L 228.907079 175.865739 
L 229.252456 172.919058 
L 229.597834 179.252874 
L 229.943211 173.448615 
L 230.633965 183.989324 
L 230.979342 191.039249 
L 231.32472 183.174451 
L 231.670097 183.860421 
L 232.015474 181.393211 
L 232.706228 183.009783 
L 233.051605 183.954124 
L 233.396983 180.059634 
L 233.74236 172.622495 
L 234.087737 173.612912 
L 234.778491 182.269054 
L 235.123868 175.223673 
L 235.469246 178.279991 
L 236.16 173.141657 
L 236.850754 168.186882 
L 237.196132 172.248163 
L 237.541509 167.002893 
L 237.886886 168.326361 
L 238.232263 168.478923 
L 238.57764 168.330526 
L 238.923017 167.101047 
L 239.268395 171.601852 
L 239.613772 165.776004 
L 239.959149 163.361218 
L 240.304526 167.899722 
L 240.649903 160.82722 
L 240.99528 163.740585 
L 241.340658 164.919833 
L 241.686035 163.411731 
L 242.031412 160.344317 
L 242.376789 168.080895 
L 242.722166 164.884626 
L 243.067544 165.81861 
L 243.412921 170.680235 
L 243.758298 170.583337 
L 244.103675 175.522015 
L 244.449052 168.287531 
L 244.794429 171.409148 
L 245.139807 168.591458 
L 245.485184 171.534475 
L 245.830561 170.265877 
L 246.175938 176.46153 
L 246.521315 174.10521 
L 246.866692 169.813552 
L 247.21207 168.458339 
L 247.557447 181.986101 
L 247.902824 180.41194 
L 248.593578 185.505346 
L 249.284333 170.740525 
L 249.62971 170.683402 
L 249.975087 167.090328 
L 250.320464 168.756214 
L 250.665841 169.23893 
L 251.011219 167.749232 
L 251.356596 165.683644 
L 252.04735 173.340465 
L 252.392727 178.250351 
L 253.083482 170.456129 
L 253.428859 177.09211 
L 253.774236 171.834368 
L 254.119613 171.462823 
L 254.46499 177.736851 
L 254.810368 177.812591 
L 255.155745 177.302456 
L 255.501122 180.721516 
L 255.846499 181.319531 
L 256.191876 186.669154 
L 256.537253 178.294732 
L 256.882631 184.670476 
L 257.228008 169.006505 
L 257.573385 175.750648 
L 257.918762 169.83052 
L 258.609516 181.663864 
L 258.954894 177.298023 
L 259.300271 182.817047 
L 259.645648 179.342392 
L 259.991025 183.829557 
L 260.336402 170.95884 
L 261.027157 181.247332 
L 261.372534 175.002971 
L 261.717911 172.588041 
L 262.408665 171.535412 
L 262.754043 169.158457 
L 263.09942 173.798196 
L 263.444797 174.026155 
L 263.790174 167.210695 
L 264.135551 174.197715 
L 264.480928 169.488893 
L 264.826306 170.2017 
L 265.171683 178.533199 
L 265.51706 179.434741 
L 265.862437 177.63008 
L 266.207814 184.447569 
L 266.553191 188.085238 
L 266.898569 182.053336 
L 267.243946 182.750475 
L 267.589323 185.867616 
L 267.9347 183.764053 
L 268.280077 187.75085 
L 268.625455 188.268619 
L 268.970832 182.305955 
L 269.316209 190.483932 
L 269.661586 185.011799 
L 270.006963 201.976766 
L 270.35234 192.575189 
L 270.697718 191.04171 
L 271.043095 192.124151 
L 272.079226 185.989824 
L 272.424603 186.011128 
L 272.769981 180.356512 
L 273.115358 181.456176 
L 273.460735 187.296338 
L 273.806112 181.040891 
L 274.151489 178.529165 
L 274.496867 180.990982 
L 274.842244 187.984861 
L 275.187621 189.666455 
L 275.532998 184.840029 
L 275.878375 182.857206 
L 276.223752 189.31024 
L 276.56913 184.004085 
L 276.914507 184.054498 
L 277.259884 184.6875 
L 277.605261 189.184035 
L 277.950638 190.525298 
L 278.296015 187.122533 
L 278.641393 186.137634 
L 278.98677 184.727316 
L 279.332147 186.87188 
L 279.677524 189.804189 
L 280.022901 188.454164 
L 280.368279 183.935762 
L 280.713656 193.047387 
L 281.059033 186.929739 
L 281.40441 192.546843 
L 281.749787 189.347952 
L 282.095164 182.613154 
L 282.440542 181.279467 
L 282.785919 186.085225 
L 283.131296 180.33423 
L 283.476673 178.31773 
L 283.82205 184.12773 
L 284.167427 184.840713 
L 284.512805 187.619132 
L 284.858182 177.012868 
L 285.203559 185.015516 
L 285.548936 182.747573 
L 285.894313 181.362947 
L 286.585068 193.649833 
L 286.930445 189.031704 
L 287.275822 190.3104 
L 287.621199 188.483058 
L 288.311954 177.290593 
L 288.657331 180.124108 
L 289.002708 172.267055 
L 289.348085 172.678634 
L 289.693462 181.341522 
L 290.038839 180.77526 
L 290.384217 180.998841 
L 290.729594 183.261186 
L 291.420348 185.607111 
L 291.765725 185.541173 
L 292.111103 184.823337 
L 292.45648 182.967745 
L 292.801857 187.737009 
L 293.147234 186.879883 
L 293.492611 188.510422 
L 293.837988 178.793603 
L 294.183366 179.571481 
L 294.528743 172.941622 
L 294.87412 172.740931 
L 295.219497 173.822959 
L 295.910251 167.008505 
L 296.255629 173.439145 
L 296.601006 172.238607 
L 296.946383 171.877627 
L 297.29176 174.319208 
L 297.637137 181.650703 
L 297.982515 179.745387 
L 298.327892 178.51811 
L 298.673269 176.104567 
L 299.018646 182.868446 
L 299.7094 173.646196 
L 300.054778 174.342542 
L 300.400155 176.716991 
L 300.745532 184.513089 
L 301.090909 186.904906 
L 301.436286 183.052952 
L 301.781663 189.383296 
L 302.127041 188.181556 
L 302.472418 180.712739 
L 302.817795 178.767329 
L 303.163172 182.32321 
L 303.508549 183.09058 
L 303.853926 185.342429 
L 304.544681 195.61337 
L 304.890058 182.158703 
L 305.235435 186.734424 
L 305.580812 178.91338 
L 305.92619 181.164803 
L 306.271567 180.396269 
L 306.616944 188.79655 
L 306.962321 190.546673 
L 307.307698 188.809435 
L 307.653075 179.190827 
L 307.998453 174.043481 
L 308.34383 176.515544 
L 308.689207 180.704521 
L 309.034584 176.345194 
L 309.379961 179.015104 
L 309.725338 183.948856 
L 310.070716 183.994549 
L 310.416093 182.357534 
L 310.76147 176.976928 
L 311.106847 176.445333 
L 311.452224 173.381447 
L 311.797602 165.06279 
L 312.142979 167.632857 
L 312.488356 172.496139 
L 312.833733 173.410407 
L 313.17911 172.891785 
L 313.524487 164.68754 
L 314.215242 160.861801 
L 314.560619 167.789996 
L 314.905996 171.01012 
L 315.251373 162.749458 
L 315.59675 166.016588 
L 315.942128 158.944885 
L 316.287505 167.372877 
L 316.632882 166.832658 
L 316.978259 162.312292 
L 317.323636 164.845386 
L 317.669014 173.38279 
L 318.014391 167.352507 
L 318.359768 165.937259 
L 318.705145 168.406838 
L 319.050522 168.05231 
L 319.395899 168.404989 
L 320.086654 180.046353 
L 320.777408 165.567018 
L 321.122785 168.249271 
L 321.468162 169.255766 
L 321.81354 172.230094 
L 322.158917 173.031988 
L 322.504294 161.389284 
L 322.849671 169.490554 
L 323.195048 174.098219 
L 323.885803 164.538748 
L 324.23118 173.601183 
L 324.576557 170.688393 
L 324.921934 168.847856 
L 325.267311 176.652606 
L 325.612689 175.888532 
L 325.958066 179.804783 
L 326.64882 175.53067 
L 326.994197 174.927274 
L 327.339574 172.133972 
L 327.684952 175.315041 
L 328.030329 174.034769 
L 328.375706 170.748751 
L 328.721083 176.948056 
L 329.06646 173.493482 
L 329.411838 174.833086 
L 329.757215 174.530565 
L 330.102592 173.499665 
L 330.447969 179.088714 
L 330.793346 175.607576 
L 331.138723 174.916504 
L 331.484101 176.426469 
L 331.829478 178.675356 
L 332.174855 179.850438 
L 332.520232 172.47566 
L 332.865609 182.654375 
L 333.210986 189.393134 
L 333.556364 183.042374 
L 333.901741 185.871048 
L 334.592495 175.000772 
L 334.937872 177.150631 
L 335.28325 173.747528 
L 335.628627 172.497708 
L 335.974004 185.056946 
L 336.319381 178.174644 
L 337.010135 179.401258 
L 337.355513 186.626893 
L 337.70089 181.674358 
L 338.046267 182.06214 
L 338.391644 178.122377 
L 338.737021 171.439619 
L 339.773153 184.131381 
L 340.11853 175.918846 
L 340.463907 185.255889 
L 340.809284 181.849752 
L 341.154662 179.600067 
L 341.500039 186.033336 
L 341.845416 174.705959 
L 342.881547 166.570169 
L 343.226925 166.114252 
L 343.572302 170.089389 
L 343.917679 170.887451 
L 344.263056 179.210951 
L 344.608433 177.868429 
L 344.95381 173.227791 
L 345.299188 177.44404 
L 345.644565 176.721177 
L 345.989942 182.783307 
L 346.335319 184.457528 
L 346.680696 182.816632 
L 347.026074 168.047471 
L 347.716828 181.928391 
L 348.062205 179.308806 
L 348.407582 171.595343 
L 348.752959 172.2716 
L 349.098337 185.644766 
L 349.443714 176.283704 
L 350.134468 172.720011 
L 350.479845 176.152944 
L 350.825222 180.735684 
L 351.1706 172.501954 
L 351.515977 180.717171 
L 351.861354 183.634287 
L 352.206731 179.016278 
L 352.552108 178.600889 
L 352.897485 181.07465 
L 353.242863 176.576104 
L 353.58824 177.056469 
L 353.933617 172.931292 
L 354.624371 169.329446 
L 354.969749 172.368926 
L 355.315126 166.49805 
L 355.660503 169.145566 
L 356.00588 173.201919 
L 356.696634 175.024761 
L 357.042012 174.987682 
L 357.732766 168.939164 
L 358.078143 180.330316 
L 358.42352 171.785206 
L 358.768897 170.358984 
L 359.114275 171.673219 
L 359.459652 167.410242 
L 359.805029 169.58754 
L 360.150406 167.209381 
L 360.495783 174.569263 
L 360.841161 169.533326 
L 361.186538 168.096839 
L 361.531915 173.695353 
L 361.877292 171.296736 
L 362.222669 173.319642 
L 362.913424 166.539452 
L 363.258801 158.883838 
L 363.604178 163.516307 
L 363.949555 181.571698 
L 364.294932 183.084408 
L 364.640309 179.619623 
L 364.985687 167.099601 
L 365.331064 168.583062 
L 365.676441 166.594133 
L 366.021818 167.156349 
L 366.367195 171.615997 
L 366.712573 165.039888 
L 367.403327 173.347087 
L 367.748704 169.445641 
L 368.094081 168.340204 
L 368.439458 171.188018 
L 368.784836 170.145937 
L 369.130213 177.084631 
L 369.47559 171.963652 
L 369.820967 172.235023 
L 370.166344 175.836532 
L 370.511721 173.62423 
L 370.857099 175.798975 
L 371.202476 176.756672 
L 371.547853 167.065352 
L 371.89323 170.11871 
L 372.238607 171.27849 
L 372.583985 173.663343 
L 372.929362 163.540798 
L 373.274739 167.663091 
L 373.620116 167.661616 
L 373.965493 163.788163 
L 374.31087 163.353705 
L 374.656248 163.466127 
L 375.001625 169.294849 
L 375.347002 166.981744 
L 375.692379 168.112883 
L 376.037756 167.744595 
L 376.383133 168.864195 
L 376.728511 169.443406 
L 377.073888 166.429255 
L 377.419265 168.851713 
L 377.764642 168.412227 
L 378.110019 166.705768 
L 378.455397 162.803457 
L 378.800774 163.695972 
L 379.146151 170.067254 
L 379.491528 164.500574 
L 379.836905 167.49367 
L 380.52766 163.255397 
L 380.873037 163.692152 
L 381.218414 169.335184 
L 381.563791 161.748245 
L 381.909168 168.083256 
L 382.254545 161.603324 
L 382.599923 158.315715 
L 382.9453 161.125437 
L 383.636054 163.031896 
L 383.981431 166.760345 
L 384.326809 162.683426 
L 384.672186 166.865214 
L 385.017563 164.925471 
L 385.36294 166.034074 
L 385.708317 161.35705 
L 386.053694 165.094493 
L 386.399072 162.287058 
L 386.744449 160.43414 
L 387.089826 163.378396 
L 387.435203 168.227915 
L 387.78058 158.999803 
L 388.125957 161.755643 
L 388.471335 156.648453 
L 388.816712 158.222757 
L 389.162089 162.313232 
L 389.507466 160.161687 
L 389.852843 167.728637 
L 390.198221 169.39561 
L 390.543598 167.038787 
L 390.888975 159.553639 
L 391.234352 160.226203 
L 391.579729 173.770933 
L 391.925106 170.563796 
L 392.270484 163.87796 
L 392.615861 164.716109 
L 392.961238 163.216762 
L 393.306615 169.422451 
L 393.651992 162.77758 
L 393.997369 165.962582 
L 394.342747 159.376204 
L 394.688124 163.23602 
L 395.033501 153.752422 
L 395.378878 168.43768 
L 395.724255 163.269778 
L 396.069632 162.624189 
L 396.41501 159.021382 
L 397.105764 163.776606 
L 397.451141 156.466364 
L 397.796518 155.063277 
L 398.141896 157.449159 
L 398.487273 154.056357 
L 398.487273 154.056357 
" style="fill:none;stroke:#0000ff;stroke-linecap:square;stroke-width:1.5;"/>
   </g>
   <g id="line2d_15">
    <path clip-path="url(#pd7d208dbaa)" d="M 73.832727 243.88689 
L 74.523482 216.86204 
L 74.868859 199.30969 
L 75.559613 181.095992 
L 75.90499 179.968901 
L 76.250368 177.920967 
L 76.595745 188.121634 
L 76.941122 180.272564 
L 77.286499 177.307419 
L 77.631876 178.170382 
L 77.977253 173.792429 
L 78.322631 174.808793 
L 79.013385 164.17175 
L 79.358762 161.269927 
L 79.704139 159.486069 
L 80.049516 159.487056 
L 80.394894 157.588348 
L 80.740271 159.569185 
L 81.085648 158.872472 
L 81.431025 159.444783 
L 81.776402 154.685923 
L 82.121779 168.762751 
L 82.467157 161.249053 
L 82.812534 158.235766 
L 83.157911 158.912641 
L 83.503288 153.350779 
L 83.848665 160.289376 
L 84.194043 154.628031 
L 84.53942 157.940711 
L 84.884797 150.920297 
L 85.230174 164.42376 
L 85.575551 164.311547 
L 85.920928 170.014375 
L 86.266306 169.669654 
L 87.302437 160.500364 
L 87.647814 158.951897 
L 87.993191 160.444158 
L 88.338569 153.95433 
L 88.683946 155.328611 
L 89.029323 157.592883 
L 89.3747 150.298932 
L 89.720077 154.852534 
L 90.065455 153.113885 
L 90.410832 157.924227 
L 90.756209 155.687172 
L 91.101586 157.324739 
L 91.446963 156.937038 
L 91.79234 148.575503 
L 92.137718 146.35876 
L 92.483095 154.956425 
L 92.828472 153.339803 
L 93.173849 149.051425 
L 93.519226 150.456219 
L 93.864603 152.580284 
L 94.209981 151.326374 
L 94.555358 154.845016 
L 94.900735 154.095884 
L 95.246112 147.553323 
L 95.936867 155.666372 
L 96.282244 147.473794 
L 96.627621 149.789028 
L 97.318375 148.020472 
L 97.663752 157.254461 
L 98.00913 151.169123 
L 98.354507 155.852609 
L 98.699884 150.997655 
L 99.045261 157.753353 
L 99.390638 159.782144 
L 99.736015 150.190523 
L 100.081393 153.380239 
L 100.42677 149.227646 
L 100.772147 150.138859 
L 101.117524 147.465684 
L 101.462901 151.182307 
L 101.808279 160.410155 
L 102.153656 160.167032 
L 102.499033 157.175794 
L 102.84441 159.758019 
L 103.189787 156.768523 
L 103.535164 161.570478 
L 104.225919 148.85752 
L 104.571296 150.076017 
L 104.916673 145.830883 
L 105.26205 152.950798 
L 105.607427 146.029537 
L 105.952805 150.181484 
L 106.298182 146.464817 
L 106.643559 150.2577 
L 106.988936 148.252144 
L 107.334313 147.377457 
L 107.679691 147.846486 
L 108.025068 150.539049 
L 108.370445 144.909837 
L 108.715822 150.168518 
L 109.061199 150.628333 
L 109.406576 153.407762 
L 109.751954 153.771718 
L 110.097331 152.615273 
L 110.442708 153.366249 
L 110.788085 157.390669 
L 111.133462 146.499623 
L 111.478839 149.538361 
L 111.824217 158.657456 
L 112.169594 153.907663 
L 112.514971 147.324437 
L 112.860348 142.984919 
L 113.205725 154.510062 
L 113.551103 152.757493 
L 114.241857 158.169317 
L 114.587234 150.219399 
L 114.932611 151.171303 
L 115.277988 157.680242 
L 115.623366 146.633158 
L 115.968743 150.642246 
L 116.31412 146.404413 
L 116.659497 151.85589 
L 117.004874 150.701228 
L 117.350251 151.957643 
L 117.695629 151.434112 
L 118.041006 153.671921 
L 118.386383 149.504177 
L 118.73176 150.308708 
L 119.077137 157.084595 
L 119.422515 157.839965 
L 119.767892 165.05341 
L 120.113269 162.86843 
L 120.458646 165.01595 
L 120.804023 162.09508 
L 121.1494 156.986845 
L 121.494778 162.598872 
L 121.840155 164.898767 
L 122.185532 164.276269 
L 122.530909 159.321463 
L 122.876286 163.477826 
L 123.221663 159.181487 
L 123.567041 156.314804 
L 123.912418 152.477637 
L 124.257795 158.471482 
L 124.603172 156.256759 
L 124.948549 152.94316 
L 125.293926 150.775817 
L 125.639304 147.479881 
L 125.984681 152.863699 
L 126.330058 147.831394 
L 126.675435 147.429289 
L 127.020812 153.280446 
L 127.711567 150.676582 
L 128.056944 149.794337 
L 128.747698 143.074608 
L 129.093075 149.985761 
L 129.78383 152.440521 
L 130.129207 149.650542 
L 130.474584 149.732244 
L 130.819961 158.095985 
L 131.165338 151.423317 
L 131.510716 149.15856 
L 131.856093 150.903459 
L 132.20147 146.351017 
L 132.546847 150.314669 
L 132.892224 157.775773 
L 133.237602 154.142069 
L 133.582979 153.01157 
L 133.928356 145.477794 
L 134.273733 153.430144 
L 134.61911 151.167047 
L 134.964487 155.55789 
L 135.309865 154.200635 
L 135.655242 163.391506 
L 136.000619 157.612188 
L 136.345996 161.82336 
L 137.03675 154.823715 
L 137.382128 147.925457 
L 137.727505 157.775049 
L 138.072882 154.132377 
L 138.418259 152.774011 
L 138.763636 155.261159 
L 139.109014 153.087481 
L 139.454391 148.955684 
L 139.799768 153.127193 
L 140.490522 149.677508 
L 140.835899 157.814871 
L 141.181277 155.975506 
L 141.526654 154.909099 
L 141.872031 150.137791 
L 142.562785 156.692934 
L 142.908162 155.926446 
L 143.25354 157.458508 
L 143.598917 154.814513 
L 143.944294 159.269641 
L 144.635048 149.272572 
L 144.980426 156.377324 
L 145.325803 156.974509 
L 145.67118 150.542184 
L 146.016557 138.815105 
L 146.361934 136.843281 
L 146.707311 130.893175 
L 147.052689 133.287488 
L 147.398066 133.236991 
L 147.743443 133.344451 
L 148.08882 137.701303 
L 148.434197 138.489058 
L 149.124952 127.691796 
L 149.470329 133.874301 
L 149.815706 134.011919 
L 150.161083 139.97481 
L 150.50646 137.490786 
L 150.851838 137.558458 
L 151.197215 141.056059 
L 151.542592 130.5439 
L 151.887969 132.578877 
L 152.233346 132.855763 
L 152.578723 137.550163 
L 152.924101 129.062586 
L 153.269478 135.703548 
L 153.614855 135.042602 
L 153.960232 137.907036 
L 154.305609 133.909944 
L 154.650986 138.123308 
L 154.996364 139.7061 
L 155.341741 115.21243 
L 155.687118 115.198166 
L 156.377872 151.934085 
L 156.72325 138.068007 
L 157.068627 141.214473 
L 157.414004 141.302715 
L 157.759381 156.881922 
L 158.104758 153.290974 
L 158.795513 138.768731 
L 159.14089 140.957363 
L 159.486267 140.11365 
L 159.831644 144.955254 
L 160.177021 140.560905 
L 160.522398 129.408335 
L 161.213153 145.754838 
L 161.903907 142.323248 
L 162.249284 134.301133 
L 162.594662 143.221982 
L 162.940039 145.158038 
L 163.630793 129.207758 
L 163.97617 139.870513 
L 164.321547 125.147236 
L 164.666925 138.390104 
L 165.012302 122.360343 
L 165.357679 126.149346 
L 165.703056 133.310888 
L 166.048433 135.261965 
L 166.39381 127.230202 
L 166.739188 136.752198 
L 167.084565 138.117714 
L 167.429942 137.579999 
L 167.775319 140.152516 
L 168.120696 137.916558 
L 168.466074 137.27273 
L 168.811451 139.549419 
L 169.156828 134.135246 
L 169.847582 153.063236 
L 170.192959 153.597543 
L 170.538337 152.573806 
L 170.883714 150.424521 
L 171.229091 152.05145 
L 171.574468 152.031913 
L 171.919845 156.424581 
L 172.265222 158.206695 
L 172.6106 162.226683 
L 172.955977 163.707509 
L 173.301354 159.927649 
L 173.646731 161.426879 
L 173.992108 159.785968 
L 174.337485 157.422541 
L 174.682863 148.706147 
L 175.02824 161.823059 
L 175.373617 158.639836 
L 175.718994 156.870098 
L 176.064371 162.230855 
L 176.755126 140.476737 
L 177.44588 151.160393 
L 177.791257 150.047953 
L 178.136634 156.140901 
L 178.482012 152.528522 
L 178.827389 151.209019 
L 179.172766 149.072655 
L 179.518143 145.05929 
L 179.86352 145.004784 
L 180.208897 149.800602 
L 180.554275 146.41978 
L 180.899652 152.136788 
L 181.245029 148.946153 
L 181.590406 148.624532 
L 181.935783 153.331027 
L 182.281161 161.165969 
L 182.626538 154.276552 
L 182.971915 153.227108 
L 183.317292 152.670254 
L 183.662669 154.953538 
L 184.008046 148.718125 
L 184.353424 145.529802 
L 184.698801 145.236239 
L 185.044178 146.79778 
L 185.389555 154.139993 
L 186.080309 148.91104 
L 186.425687 154.13585 
L 187.116441 157.406963 
L 187.807195 149.757145 
L 188.152573 153.675336 
L 188.843327 149.42754 
L 189.188704 141.915857 
L 189.534081 144.414527 
L 189.879458 145.037585 
L 190.224836 144.691412 
L 190.570213 149.33277 
L 190.91559 150.034609 
L 191.260967 151.19932 
L 191.606344 151.625239 
L 191.951721 154.449546 
L 192.297099 158.616401 
L 192.642476 153.376252 
L 192.987853 155.561285 
L 193.33323 148.655409 
L 193.678607 150.625745 
L 194.023985 148.346795 
L 194.369362 153.462225 
L 194.714739 141.988986 
L 195.060116 144.426768 
L 195.75087 158.685833 
L 196.096248 152.878117 
L 196.441625 140.633799 
L 196.787002 147.251456 
L 197.132379 148.340775 
L 197.477756 151.02271 
L 197.823133 147.885139 
L 198.168511 143.159941 
L 198.859265 144.929595 
L 199.204642 150.140624 
L 199.550019 152.661277 
L 199.895397 142.771788 
L 200.240774 149.372867 
L 200.586151 150.092256 
L 200.931528 143.622593 
L 201.622282 152.117317 
L 201.96766 149.101565 
L 202.313037 152.471019 
L 202.658414 154.108777 
L 203.003791 154.676178 
L 203.349168 162.13415 
L 203.694545 152.992908 
L 204.039923 151.661392 
L 204.3853 159.958849 
L 204.730677 156.576755 
L 205.076054 151.367987 
L 205.421431 155.536907 
L 205.766809 154.286388 
L 206.112186 153.533216 
L 206.457563 157.947492 
L 206.80294 155.589423 
L 207.148317 150.932992 
L 207.493694 148.878593 
L 207.839072 148.499534 
L 208.529826 160.275253 
L 208.875203 156.064853 
L 209.565957 144.392677 
L 209.911335 145.81178 
L 210.256712 150.847216 
L 210.602089 151.311869 
L 210.947466 148.651444 
L 211.292843 152.158493 
L 211.638221 150.510776 
L 211.983598 150.198902 
L 212.328975 148.114795 
L 212.674352 150.178688 
L 213.019729 150.352311 
L 213.365106 141.076746 
L 213.710484 149.145516 
L 214.055861 147.161165 
L 214.401238 149.23706 
L 214.746615 147.988102 
L 215.091992 144.302324 
L 215.437369 139.184514 
L 215.782747 150.50293 
L 216.473501 148.21964 
L 216.818878 152.453032 
L 217.509632 143.806061 
L 217.85501 152.897557 
L 218.200387 146.571135 
L 218.545764 146.552521 
L 218.891141 141.22266 
L 219.236518 144.997962 
L 219.581896 142.677968 
L 220.27265 147.440061 
L 220.618027 141.784006 
L 220.963404 141.5616 
L 221.308781 144.70671 
L 221.654159 143.757119 
L 221.999536 149.860241 
L 222.344913 146.411157 
L 222.69029 149.025463 
L 223.035667 147.671108 
L 223.381044 145.304363 
L 223.726422 151.680839 
L 224.071799 148.310149 
L 224.417176 152.610561 
L 224.762553 149.979684 
L 225.10793 149.591823 
L 225.453308 142.774274 
L 225.798685 143.250518 
L 226.144062 141.943937 
L 226.489439 148.574479 
L 226.834816 147.344678 
L 227.180193 155.08897 
L 227.525571 151.878318 
L 228.216325 148.716389 
L 228.561702 144.482779 
L 228.907079 143.075363 
L 229.252456 138.100165 
L 229.597834 142.498674 
L 229.943211 140.591527 
L 230.633965 151.354579 
L 230.979342 151.451135 
L 231.32472 147.53671 
L 231.670097 148.853503 
L 232.015474 147.625281 
L 232.360851 146.981306 
L 232.706228 145.347137 
L 233.051605 146.992269 
L 233.396983 144.178682 
L 233.74236 134.925692 
L 234.087737 135.613025 
L 234.433114 141.861008 
L 234.778491 144.953875 
L 235.123868 141.133359 
L 235.469246 139.411131 
L 235.814623 142.751226 
L 236.505377 132.048314 
L 236.850754 132.279748 
L 237.196132 134.492754 
L 237.541509 133.410026 
L 237.886886 134.422313 
L 238.232263 135.821356 
L 238.57764 132.622282 
L 238.923017 133.476204 
L 239.268395 135.752117 
L 239.613772 126.423574 
L 239.959149 129.282896 
L 240.304526 133.916729 
L 240.649903 128.503627 
L 240.99528 130.939413 
L 241.340658 132.067301 
L 241.686035 127.895014 
L 242.031412 125.479944 
L 242.376789 133.212094 
L 242.722166 131.597805 
L 243.067544 129.201641 
L 243.412921 134.130699 
L 243.758298 136.975305 
L 244.103675 138.201756 
L 244.449052 133.969598 
L 244.794429 137.612481 
L 245.139807 137.014915 
L 245.485184 137.811708 
L 245.830561 134.097212 
L 246.175938 139.704842 
L 246.521315 140.244397 
L 247.21207 132.713619 
L 247.557447 149.267781 
L 247.902824 145.568508 
L 248.248201 150.518668 
L 248.593578 148.993288 
L 248.938956 142.066672 
L 249.62971 134.131825 
L 249.975087 133.798839 
L 250.320464 139.012535 
L 250.665841 138.956618 
L 251.011219 135.486928 
L 251.356596 133.399948 
L 251.701973 135.333257 
L 252.04735 138.350736 
L 252.392727 144.068102 
L 253.083482 136.023973 
L 253.428859 137.422535 
L 253.774236 136.71705 
L 254.119613 138.133927 
L 254.46499 142.888616 
L 254.810368 143.80215 
L 255.155745 141.736785 
L 255.501122 147.595526 
L 255.846499 144.270508 
L 256.191876 148.623781 
L 256.537253 139.509038 
L 256.882631 147.84562 
L 257.228008 132.537395 
L 257.573385 141.638944 
L 257.918762 133.855088 
L 258.264139 142.08435 
L 258.609516 146.442577 
L 258.954894 140.445411 
L 259.300271 147.773718 
L 259.645648 144.799147 
L 259.991025 147.78052 
L 260.336402 135.606559 
L 260.681779 141.333479 
L 261.027157 144.763628 
L 261.372534 137.707392 
L 261.717911 136.834108 
L 262.063288 136.85288 
L 262.754043 135.218554 
L 263.09942 138.983336 
L 263.444797 139.213393 
L 263.790174 131.51085 
L 264.135551 137.645515 
L 264.480928 136.597438 
L 264.826306 138.348628 
L 265.171683 146.115407 
L 265.51706 146.261555 
L 265.862437 143.563544 
L 266.207814 150.301597 
L 266.553191 153.453224 
L 266.898569 150.107182 
L 267.243946 145.29199 
L 267.589323 151.65333 
L 267.9347 147.810227 
L 268.280077 149.822221 
L 268.625455 150.005741 
L 268.970832 144.786439 
L 269.316209 153.039374 
L 269.661586 149.537556 
L 270.006963 165.252964 
L 270.35234 155.121408 
L 270.697718 157.648841 
L 271.043095 158.194272 
L 271.388472 153.933705 
L 271.733849 151.152555 
L 272.079226 151.075089 
L 272.424603 151.758355 
L 272.769981 147.267065 
L 273.115358 146.291507 
L 273.460735 153.327026 
L 273.806112 146.054553 
L 274.151489 145.242516 
L 274.496867 145.157008 
L 274.842244 152.511724 
L 275.187621 153.712298 
L 275.532998 144.55741 
L 275.878375 146.023671 
L 276.223752 152.518701 
L 276.56913 147.69119 
L 276.914507 148.982706 
L 277.259884 145.849545 
L 277.605261 153.453975 
L 277.950638 152.495395 
L 278.296015 152.501605 
L 278.641393 150.053655 
L 278.98677 152.2543 
L 279.332147 149.854227 
L 280.022901 154.435362 
L 280.368279 152.045304 
L 280.713656 156.282227 
L 281.059033 152.575831 
L 281.40441 158.553592 
L 282.095164 143.921981 
L 282.785919 148.654647 
L 283.131296 143.746661 
L 283.476673 143.948043 
L 283.82205 149.976183 
L 284.167427 148.745188 
L 284.512805 153.676673 
L 284.858182 141.79437 
L 285.203559 149.431739 
L 285.548936 144.981985 
L 285.894313 146.011999 
L 286.585068 156.344051 
L 286.930445 153.030146 
L 287.621199 151.971691 
L 287.966576 146.950504 
L 288.311954 143.749369 
L 288.657331 144.266441 
L 289.002708 140.236733 
L 289.348085 137.959731 
L 289.693462 149.389107 
L 290.038839 148.391274 
L 290.384217 147.841028 
L 290.729594 147.748045 
L 291.074971 152.743047 
L 291.765725 148.347461 
L 292.111103 148.372422 
L 292.45648 149.770009 
L 292.801857 150.631586 
L 293.147234 147.962078 
L 293.492611 151.099523 
L 293.837988 144.502637 
L 294.528743 139.034896 
L 294.87412 138.99205 
L 295.219497 138.661246 
L 295.564874 134.925916 
L 295.910251 129.217311 
L 296.255629 137.537729 
L 296.601006 137.28086 
L 296.946383 138.388944 
L 297.29176 141.610216 
L 297.637137 149.439654 
L 297.982515 143.704956 
L 298.327892 141.251961 
L 298.673269 142.76236 
L 299.018646 146.482224 
L 299.364023 142.089384 
L 299.7094 133.39406 
L 300.054778 138.191398 
L 300.400155 137.993099 
L 300.745532 148.072752 
L 301.090909 150.428809 
L 301.436286 147.501403 
L 302.127041 153.150478 
L 302.817795 139.218299 
L 303.163172 144.006944 
L 303.508549 145.860733 
L 303.853926 148.69821 
L 304.199304 157.332069 
L 304.544681 158.296285 
L 304.890058 144.623491 
L 305.235435 150.584459 
L 305.580812 142.602683 
L 305.92619 142.783628 
L 306.271567 144.519004 
L 306.616944 153.834027 
L 306.962321 155.076291 
L 307.307698 152.265844 
L 307.653075 141.978145 
L 307.998453 139.42276 
L 308.34383 141.281413 
L 308.689207 140.997421 
L 309.034584 138.843569 
L 309.379961 139.923677 
L 309.725338 143.41142 
L 310.070716 145.61957 
L 310.416093 145.053668 
L 310.76147 139.473047 
L 311.106847 140.488704 
L 311.797602 131.84035 
L 312.488356 137.505052 
L 312.833733 137.142218 
L 313.524487 133.612166 
L 313.869865 126.503448 
L 314.215242 127.46464 
L 314.905996 135.292568 
L 315.251373 129.161055 
L 315.59675 134.836424 
L 315.942128 125.887495 
L 316.287505 131.861831 
L 316.632882 131.431984 
L 316.978259 128.667467 
L 317.323636 130.465688 
L 317.669014 142.9183 
L 318.014391 135.791954 
L 318.359768 132.993643 
L 318.705145 136.466108 
L 319.050522 137.436364 
L 319.395899 135.497462 
L 319.741277 140.391196 
L 320.086654 143.153119 
L 320.432031 140.398778 
L 320.777408 127.8953 
L 321.122785 133.266515 
L 321.468162 133.490171 
L 322.158917 136.962598 
L 322.504294 126.512918 
L 322.849671 136.773023 
L 323.195048 138.152745 
L 323.885803 130.222186 
L 324.23118 138.465442 
L 324.576557 133.766619 
L 324.921934 131.922515 
L 325.267311 144.254738 
L 325.612689 140.055221 
L 325.958066 143.700187 
L 326.303443 140.398103 
L 326.64882 140.184369 
L 326.994197 141.548556 
L 327.339574 137.004348 
L 327.684952 136.228932 
L 328.030329 141.357376 
L 328.375706 134.277174 
L 328.721083 139.699198 
L 329.411838 140.762801 
L 329.757215 139.358602 
L 330.102592 140.366153 
L 330.447969 145.327326 
L 330.793346 141.474981 
L 331.138723 139.496081 
L 331.484101 141.011409 
L 331.829478 145.18969 
L 332.174855 143.87365 
L 332.520232 137.20131 
L 333.210986 156.509675 
L 333.556364 151.814386 
L 333.901741 151.009382 
L 334.247118 143.304859 
L 334.592495 139.922541 
L 334.937872 143.496373 
L 335.28325 142.005411 
L 335.628627 141.275208 
L 335.974004 149.781496 
L 336.319381 141.801525 
L 336.664758 145.532017 
L 337.010135 146.658431 
L 337.355513 153.992845 
L 337.70089 146.386785 
L 338.046267 145.967336 
L 338.391644 140.143358 
L 338.737021 130.827679 
L 339.773153 148.586514 
L 340.11853 139.938531 
L 340.463907 147.860063 
L 340.809284 144.152479 
L 341.154662 144.329065 
L 341.500039 149.412744 
L 341.845416 136.639538 
L 342.190793 137.940281 
L 342.53617 132.28687 
L 342.881547 130.483018 
L 343.226925 130.865955 
L 343.572302 139.340345 
L 343.917679 138.115194 
L 344.263056 144.689985 
L 344.608433 147.241507 
L 344.95381 138.588341 
L 345.299188 141.623269 
L 345.644565 138.991781 
L 345.989942 147.21352 
L 346.335319 147.219456 
L 346.680696 144.20754 
L 347.026074 133.629902 
L 347.371451 139.126169 
L 347.716828 147.257527 
L 348.407582 136.364368 
L 348.752959 135.340073 
L 349.098337 150.870835 
L 349.443714 142.784812 
L 349.789091 137.964932 
L 350.134468 137.594415 
L 350.479845 138.743205 
L 350.825222 143.35795 
L 351.1706 138.114172 
L 351.515977 146.90786 
L 351.861354 147.751006 
L 352.206731 142.339208 
L 352.552108 140.296071 
L 352.897485 143.704503 
L 353.242863 140.285347 
L 353.58824 144.596292 
L 353.933617 138.73383 
L 354.278994 136.386121 
L 354.624371 134.934445 
L 354.969749 136.661643 
L 355.315126 133.466339 
L 355.660503 134.096153 
L 356.00588 135.544292 
L 356.351257 138.512991 
L 356.696634 138.646783 
L 357.042012 135.061126 
L 357.387389 133.960865 
L 357.732766 133.493234 
L 358.078143 141.755067 
L 358.42352 137.232622 
L 358.768897 134.529832 
L 359.114275 139.302929 
L 359.459652 130.94595 
L 359.805029 134.328189 
L 360.150406 131.810403 
L 360.495783 138.752933 
L 360.841161 134.976666 
L 361.186538 134.321655 
L 361.531915 136.206941 
L 361.877292 132.764883 
L 362.222669 138.846852 
L 362.568046 135.537914 
L 363.258801 125.61216 
L 363.604178 133.218641 
L 363.949555 146.209114 
L 364.294932 145.127533 
L 364.640309 142.973061 
L 364.985687 128.536385 
L 365.331064 134.780975 
L 365.676441 132.280176 
L 366.021818 132.041981 
L 366.367195 138.942579 
L 366.712573 129.723827 
L 367.05795 134.412531 
L 367.403327 135.057279 
L 367.748704 129.711653 
L 368.094081 134.158192 
L 368.439458 135.720679 
L 368.784836 134.68873 
L 369.130213 142.06363 
L 369.47559 135.960982 
L 369.820967 133.258017 
L 370.166344 139.360822 
L 370.857099 136.068615 
L 371.202476 139.566675 
L 371.547853 130.614091 
L 372.583985 138.917501 
L 372.929362 127.802459 
L 373.274739 132.960964 
L 373.965493 126.965601 
L 374.31087 129.114434 
L 374.656248 124.566964 
L 375.001625 134.811255 
L 375.692379 131.779877 
L 376.037756 131.641702 
L 376.383133 132.250857 
L 376.728511 133.72271 
L 377.073888 128.685887 
L 377.419265 132.33793 
L 377.764642 132.289841 
L 378.110019 130.35195 
L 378.455397 126.935679 
L 378.800774 128.478947 
L 379.146151 133.617524 
L 379.491528 129.782979 
L 379.836905 128.237711 
L 380.182282 132.048943 
L 380.52766 125.75451 
L 381.218414 135.170067 
L 381.563791 126.176897 
L 381.909168 132.754508 
L 382.254545 126.148221 
L 382.599923 125.346754 
L 382.9453 131.249955 
L 383.290677 129.128731 
L 383.636054 130.509351 
L 383.981431 132.874124 
L 384.326809 128.510218 
L 384.672186 135.108785 
L 385.017563 130.352829 
L 385.36294 130.870721 
L 385.708317 127.98144 
L 386.053694 131.761114 
L 386.399072 128.000719 
L 386.744449 126.237699 
L 387.089826 129.952165 
L 387.435203 132.449762 
L 387.78058 127.053761 
L 388.471335 122.92998 
L 389.162089 127.30481 
L 389.507466 127.352442 
L 389.852843 129.754196 
L 390.198221 134.574469 
L 390.888975 125.127761 
L 391.234352 126.017471 
L 391.579729 138.667546 
L 391.925106 135.225069 
L 392.270484 127.680236 
L 392.615861 129.965191 
L 392.961238 127.126935 
L 393.306615 133.641176 
L 393.651992 124.326838 
L 393.997369 128.140409 
L 394.342747 124.204729 
L 394.688124 123.474154 
L 395.033501 118.188225 
L 395.378878 135.011554 
L 395.724255 123.863791 
L 396.069632 128.04936 
L 396.41501 124.150887 
L 396.760387 124.553852 
L 397.105764 127.584529 
L 397.451141 121.659513 
L 397.796518 122.851563 
L 398.141896 122.561415 
L 398.487273 120.598099 
L 398.487273 120.598099 
" style="fill:none;stroke:#008000;stroke-dasharray:9.6,2.4,1.5,2.4;stroke-dashoffset:0;stroke-width:1.5;"/>
   </g>
   <g id="line2d_16">
    <path clip-path="url(#pd7d208dbaa)" d="M 73.832727 166.938051 
L 74.178104 134.981632 
L 74.523482 148.325729 
L 74.868859 121.229537 
L 75.214236 122.569563 
L 75.559613 107.386052 
L 75.90499 134.733774 
L 76.250368 131.565349 
L 76.595745 141.691897 
L 77.286499 111.412209 
L 77.631876 116.623562 
L 77.977253 113.65084 
L 78.322631 136.913076 
L 78.668008 123.57259 
L 79.013385 122.966329 
L 79.358762 111.016643 
L 79.704139 103.098886 
L 80.049516 118.99355 
L 80.394894 86.078696 
L 80.740271 110.292168 
L 81.085648 109.439316 
L 81.431025 102.326092 
L 81.776402 107.446513 
L 82.121779 128.587535 
L 82.467157 120.560578 
L 82.812534 103.756917 
L 83.157911 108.739612 
L 83.848665 88.535741 
L 84.194043 111.646869 
L 84.53942 110.956771 
L 84.884797 65.597014 
L 85.230174 111.622739 
L 85.575551 93.491755 
L 85.920928 128.148659 
L 86.266306 134.462614 
L 86.95706 97.741 
L 87.302437 106.828795 
L 87.647814 105.35054 
L 87.993191 114.757149 
L 88.338569 111.312198 
L 88.683946 97.1632 
L 89.029323 114.86916 
L 89.3747 102.25204 
L 89.720077 112.430944 
L 90.065455 103.593672 
L 90.410832 111.199666 
L 90.756209 123.013427 
L 91.101586 118.946528 
L 91.446963 121.580945 
L 91.79234 100.686885 
L 92.137718 87.150703 
L 92.483095 86.522874 
L 92.828472 117.799714 
L 93.173849 114.685407 
L 93.519226 112.706327 
L 93.864603 113.190542 
L 94.209981 98.167816 
L 94.555358 107.091612 
L 94.900735 119.419995 
L 95.246112 83.699052 
L 95.591489 99.401054 
L 95.936867 122.068457 
L 96.282244 97.637324 
L 96.627621 101.86686 
L 96.972998 109.646308 
L 97.318375 88.864554 
L 97.663752 110.623514 
L 98.00913 92.854884 
L 98.354507 109.618391 
L 98.699884 105.242589 
L 99.045261 97.773965 
L 99.390638 119.998893 
L 99.736015 97.129931 
L 100.081393 104.354062 
L 100.42677 94.071742 
L 100.772147 89.373867 
L 101.117524 95.481662 
L 101.808279 120.44443 
L 102.153656 116.752856 
L 102.499033 104.536882 
L 103.189787 96.690605 
L 103.535164 129.482219 
L 103.880542 126.2239 
L 104.571296 90.57694 
L 104.916673 106.810181 
L 105.26205 95.540628 
L 105.607427 92.234855 
L 105.952805 103.761553 
L 106.298182 98.326515 
L 106.643559 89.107592 
L 106.988936 110.743464 
L 107.334313 107.166333 
L 107.679691 94.824201 
L 108.025068 121.081295 
L 108.715822 89.294486 
L 109.061199 105.797348 
L 109.406576 105.045324 
L 109.751954 106.700984 
L 110.097331 99.933144 
L 110.788085 120.308771 
L 111.133462 83.228091 
L 111.478839 98.602762 
L 111.824217 93.71369 
L 112.169594 105.717285 
L 112.514971 95.345458 
L 112.860348 91.015037 
L 113.205725 89.876844 
L 113.551103 89.318489 
L 113.89648 109.026203 
L 114.241857 102.026858 
L 114.587234 98.304758 
L 114.932611 101.500891 
L 115.277988 108.313951 
L 115.623366 99.342135 
L 115.968743 98.184107 
L 116.31412 74.531229 
L 116.659497 109.996351 
L 117.004874 107.02839 
L 117.350251 102.221299 
L 117.695629 104.903691 
L 118.041006 90.419492 
L 118.386383 109.88926 
L 118.73176 100.922037 
L 119.077137 111.198403 
L 119.422515 109.031747 
L 119.767892 120.832201 
L 120.113269 96.801162 
L 120.458646 129.523641 
L 120.804023 105.414903 
L 121.1494 114.565751 
L 121.840155 124.735206 
L 122.185532 118.157225 
L 122.530909 105.991589 
L 122.876286 119.799675 
L 123.221663 113.828486 
L 123.567041 112.865282 
L 123.912418 106.826993 
L 124.257795 117.724709 
L 124.603172 115.622086 
L 124.948549 115.056609 
L 125.293926 120.160002 
L 125.639304 89.321428 
L 125.984681 108.537849 
L 126.330058 93.18016 
L 126.675435 108.303565 
L 127.020812 110.106072 
L 127.36619 99.321771 
L 127.711567 105.090037 
L 128.056944 114.75254 
L 128.747698 103.461335 
L 129.093075 113.6034 
L 129.438453 97.710208 
L 129.78383 99.893801 
L 130.129207 98.568387 
L 130.474584 103.531234 
L 130.819961 119.989796 
L 131.165338 105.221369 
L 131.510716 113.548844 
L 131.856093 104.779879 
L 132.20147 77.180615 
L 132.546847 107.297252 
L 132.892224 93.317595 
L 133.237602 96.493345 
L 133.582979 102.813576 
L 133.928356 74.350718 
L 134.273733 100.8363 
L 134.61911 111.123254 
L 134.964487 102.852556 
L 135.309865 84.505513 
L 135.655242 119.064824 
L 136.000619 101.217447 
L 136.345996 90.288091 
L 136.691373 107.353421 
L 137.03675 87.255389 
L 137.382128 102.230406 
L 137.727505 105.002986 
L 138.072882 108.751278 
L 138.418259 109.209975 
L 138.763636 93.756495 
L 139.109014 112.547024 
L 139.454391 102.903028 
L 139.799768 110.114805 
L 140.145145 103.097161 
L 140.490522 102.108674 
L 140.835899 102.967308 
L 141.181277 119.405398 
L 141.872031 97.506828 
L 142.217408 103.245065 
L 142.562785 127.18394 
L 142.908162 118.232608 
L 143.25354 115.658675 
L 143.598917 83.824435 
L 143.944294 107.042837 
L 144.289671 121.662957 
L 144.635048 97.835064 
L 144.980426 96.166995 
L 145.325803 115.566235 
L 145.67118 107.004318 
L 146.016557 101.216322 
L 146.361934 82.353903 
L 146.707311 97.624374 
L 147.052689 83.432361 
L 147.398066 101.764322 
L 147.743443 72.57824 
L 148.08882 90.169261 
L 148.434197 101.687923 
L 148.779574 98.096171 
L 149.124952 91.6253 
L 149.470329 88.548364 
L 149.815706 88.326268 
L 150.161083 100.028527 
L 150.50646 97.255559 
L 150.851838 96.324169 
L 151.197215 112.510451 
L 151.542592 86.800286 
L 151.887969 100.060715 
L 152.233346 87.037555 
L 152.578723 107.427161 
L 152.924101 87.194187 
L 153.269478 87.719645 
L 153.614855 83.478125 
L 153.960232 106.270946 
L 154.305609 94.783993 
L 154.650986 96.268382 
L 154.996364 100.885042 
L 155.687118 65.03658 
L 156.032495 105.052383 
L 156.377872 113.180197 
L 156.72325 100.383258 
L 157.068627 111.71612 
L 157.414004 94.942843 
L 157.759381 115.986005 
L 158.104758 98.280832 
L 158.450135 100.523776 
L 158.795513 77.571647 
L 159.14089 111.406509 
L 159.486267 85.586589 
L 159.831644 92.280987 
L 160.177021 103.91757 
L 160.522398 93.340693 
L 160.867776 96.365103 
L 161.213153 107.699701 
L 161.55853 111.312831 
L 162.249284 87.73744 
L 162.594662 87.161214 
L 162.940039 96.525836 
L 163.285416 79.830335 
L 163.630793 81.519377 
L 163.97617 88.434335 
L 164.321547 83.187021 
L 164.666925 102.537206 
L 165.012302 72.909986 
L 165.357679 87.636489 
L 165.703056 83.77573 
L 166.048433 90.020458 
L 166.39381 74.716253 
L 166.739188 91.858108 
L 167.084565 93.862827 
L 167.429942 86.678571 
L 167.775319 104.025032 
L 168.120696 97.269529 
L 168.466074 87.393253 
L 168.811451 93.212448 
L 169.156828 95.092031 
L 169.502205 87.973452 
L 170.192959 107.566957 
L 170.538337 109.802191 
L 170.883714 113.074236 
L 171.229091 117.777888 
L 171.574468 102.712767 
L 171.919845 108.630393 
L 172.265222 109.873705 
L 172.6106 113.549493 
L 172.955977 127.394169 
L 173.301354 89.298894 
L 173.646731 115.492487 
L 173.992108 111.593538 
L 174.337485 100.906901 
L 174.682863 95.615973 
L 175.02824 103.512165 
L 175.373617 116.002705 
L 175.718994 106.614685 
L 176.064371 120.157899 
L 176.409749 107.978583 
L 176.755126 85.957525 
L 177.44588 103.408227 
L 177.791257 87.667243 
L 178.136634 122.110045 
L 178.482012 109.586142 
L 178.827389 119.039214 
L 179.172766 74.772914 
L 179.518143 92.768147 
L 179.86352 86.566517 
L 180.208897 107.364901 
L 180.554275 105.467492 
L 180.899652 99.746013 
L 181.590406 94.164987 
L 181.935783 99.802995 
L 182.281161 135.217677 
L 182.626538 103.177124 
L 182.971915 104.884902 
L 183.317292 101.345811 
L 183.662669 94.879582 
L 184.008046 106.032631 
L 184.353424 94.901012 
L 184.698801 89.452341 
L 185.044178 111.039342 
L 185.389555 119.885597 
L 186.080309 99.798568 
L 186.771064 102.951233 
L 187.116441 112.36944 
L 187.461818 107.44228 
L 187.807195 96.65752 
L 188.152573 98.469704 
L 188.49795 106.433976 
L 188.843327 116.979588 
L 189.188704 81.391945 
L 189.534081 96.654852 
L 189.879458 105.071208 
L 190.224836 90.094086 
L 190.570213 111.190822 
L 190.91559 94.905194 
L 191.260967 98.034886 
L 191.606344 107.753705 
L 191.951721 112.010903 
L 192.297099 106.455498 
L 192.642476 106.748366 
L 192.987853 103.048874 
L 193.33323 107.660887 
L 193.678607 95.618082 
L 194.023985 89.260698 
L 194.369362 106.425608 
L 194.714739 89.531377 
L 195.060116 87.515025 
L 195.405493 99.05089 
L 195.75087 122.219847 
L 196.096248 99.58302 
L 196.441625 109.070568 
L 196.787002 92.418008 
L 197.132379 97.547789 
L 197.477756 112.527131 
L 197.823133 102.588636 
L 198.168511 103.020719 
L 198.513888 93.70441 
L 198.859265 89.849727 
L 199.204642 70.514115 
L 199.550019 98.806565 
L 199.895397 91.659527 
L 200.240774 114.863885 
L 200.586151 112.074066 
L 200.931528 100.495319 
L 201.276905 106.15409 
L 201.622282 103.845036 
L 202.313037 78.824447 
L 202.658414 105.958888 
L 203.003791 120.055597 
L 203.349168 124.735946 
L 203.694545 108.354894 
L 204.039923 84.378209 
L 204.3853 121.486194 
L 204.730677 78.032329 
L 205.076054 77.855478 
L 205.421431 102.396216 
L 205.766809 103.064392 
L 206.112186 106.578153 
L 206.457563 108.490084 
L 206.80294 103.802704 
L 207.148317 121.650115 
L 207.493694 99.827348 
L 207.839072 89.740361 
L 208.184449 118.858776 
L 208.529826 107.744601 
L 208.875203 107.46829 
L 209.22058 81.44513 
L 209.565957 87.956573 
L 209.911335 101.174701 
L 210.256712 79.906714 
L 210.602089 104.155911 
L 210.947466 82.25501 
L 211.292843 96.025466 
L 211.638221 103.441127 
L 211.983598 116.758247 
L 212.328975 91.547335 
L 212.674352 109.496282 
L 213.019729 111.121992 
L 213.365106 77.513541 
L 213.710484 104.55267 
L 214.055861 93.53445 
L 214.401238 102.056394 
L 214.746615 96.283255 
L 215.091992 100.403875 
L 215.437369 85.866171 
L 215.782747 115.675311 
L 216.473501 93.895888 
L 217.164255 103.056345 
L 217.509632 89.693603 
L 218.545764 101.066246 
L 218.891141 89.687699 
L 219.236518 108.568482 
L 219.581896 99.52177 
L 219.927273 105.062383 
L 220.27265 99.924831 
L 220.618027 102.047305 
L 220.963404 102.629802 
L 221.308781 102.970753 
L 221.654159 76.375596 
L 221.999536 94.208017 
L 222.344913 92.069287 
L 222.69029 106.211306 
L 223.035667 106.395132 
L 223.381044 85.674829 
L 223.726422 103.272141 
L 224.417176 111.505996 
L 224.762553 79.384828 
L 225.10793 112.555367 
L 225.453308 78.290962 
L 225.798685 78.733425 
L 226.144062 64.301929 
L 226.489439 119.37135 
L 226.834816 106.804178 
L 227.180193 87.41146 
L 227.525571 110.219055 
L 227.870948 101.570345 
L 228.216325 99.662544 
L 228.561702 104.047704 
L 228.907079 105.262635 
L 229.252456 95.841878 
L 229.597834 82.227034 
L 229.943211 106.282283 
L 230.288588 89.490622 
L 230.633965 108.671487 
L 230.979342 92.928935 
L 231.32472 102.033673 
L 231.670097 102.500081 
L 232.015474 108.538462 
L 232.360851 104.753497 
L 232.706228 93.893822 
L 233.051605 88.880638 
L 233.396983 87.786515 
L 233.74236 84.833666 
L 234.087737 76.326717 
L 234.433114 89.244543 
L 234.778491 85.545316 
L 235.123868 99.415928 
L 235.469246 95.2609 
L 235.814623 102.206501 
L 236.16 95.481136 
L 236.505377 92.546091 
L 237.196132 62.022075 
L 237.541509 92.224212 
L 237.886886 88.192221 
L 238.232263 97.852375 
L 238.57764 84.733742 
L 238.923017 90.240044 
L 239.268395 86.770317 
L 239.613772 69.363855 
L 239.959149 99.399401 
L 240.304526 82.590079 
L 240.649903 86.491105 
L 240.99528 95.474294 
L 241.340658 85.302769 
L 241.686035 82.931916 
L 242.031412 96.212631 
L 242.376789 94.213721 
L 242.722166 77.024188 
L 243.067544 79.34817 
L 243.412921 80.020091 
L 243.758298 93.364311 
L 244.103675 87.230521 
L 244.449052 70.799259 
L 244.794429 96.624446 
L 245.139807 86.881208 
L 245.485184 96.49441 
L 245.830561 76.495807 
L 246.175938 71.89415 
L 246.521315 105.717285 
L 246.866692 106.680001 
L 247.21207 76.796857 
L 247.557447 102.310707 
L 247.902824 96.145247 
L 248.248201 103.295191 
L 248.593578 93.602394 
L 248.938956 93.211935 
L 249.284333 90.619207 
L 249.62971 97.879429 
L 249.975087 92.045011 
L 250.320464 109.122357 
L 251.011219 87.166947 
L 251.356596 91.416712 
L 252.04735 83.137763 
L 252.392727 98.088576 
L 252.738104 93.894338 
L 253.083482 100.203486 
L 253.428859 73.232044 
L 254.119613 97.999653 
L 254.810368 106.971831 
L 255.155745 89.618351 
L 255.501122 101.908249 
L 256.191876 114.038489 
L 256.537253 79.681285 
L 256.882631 99.485923 
L 257.228008 86.330541 
L 257.573385 93.993598 
L 257.918762 77.052222 
L 258.609516 106.609294 
L 258.954894 80.40307 
L 259.300271 97.911905 
L 259.645648 98.630054 
L 259.991025 98.235716 
L 260.336402 74.970069 
L 260.681779 89.24748 
L 261.027157 63.811737 
L 261.372534 88.682481 
L 261.717911 89.791579 
L 262.063288 76.864231 
L 262.408665 105.579276 
L 262.754043 104.314979 
L 263.09942 82.053513 
L 263.790174 90.562524 
L 264.135551 78.945959 
L 264.480928 92.059677 
L 264.826306 91.25722 
L 265.171683 109.728872 
L 265.51706 103.052322 
L 265.862437 76.803635 
L 266.207814 109.654995 
L 266.553191 101.152774 
L 266.898569 115.263674 
L 267.243946 96.164873 
L 267.9347 106.865433 
L 268.280077 93.195021 
L 268.625455 106.425608 
L 268.970832 105.516564 
L 269.316209 96.828957 
L 269.661586 111.529459 
L 270.006963 98.908922 
L 270.697718 105.50592 
L 271.043095 118.216155 
L 271.388472 106.331225 
L 271.733849 71.836154 
L 272.079226 86.233118 
L 272.424603 115.839186 
L 272.769981 94.061905 
L 273.115358 96.643115 
L 273.806112 109.271114 
L 274.151489 102.413898 
L 274.496867 86.550385 
L 274.842244 109.527877 
L 275.187621 116.714451 
L 275.532998 74.057271 
L 275.878375 99.993578 
L 276.223752 99.723341 
L 276.56913 103.96809 
L 276.914507 102.685866 
L 277.259884 94.495263 
L 277.605261 113.780297 
L 277.950638 97.737218 
L 278.296015 95.783762 
L 278.641393 97.683207 
L 278.98677 110.642971 
L 279.332147 94.939182 
L 279.677524 94.888467 
L 280.022901 113.064551 
L 280.368279 104.252016 
L 280.713656 101.373423 
L 281.059033 114.379367 
L 281.40441 102.453269 
L 281.749787 100.941101 
L 282.095164 68.787687 
L 282.440542 111.024839 
L 282.785919 100.19737 
L 283.131296 85.616149 
L 283.476673 105.22962 
L 283.82205 113.198301 
L 284.167427 96.302912 
L 284.512805 113.741244 
L 285.203559 104.17163 
L 285.548936 83.9744 
L 285.894313 100.134015 
L 286.239691 110.925277 
L 286.585068 92.267803 
L 286.930445 110.177215 
L 287.275822 81.760001 
L 287.621199 102.883524 
L 287.966576 92.041471 
L 288.311954 91.907572 
L 288.657331 103.457293 
L 289.002708 87.782665 
L 289.348085 83.932972 
L 289.693462 115.61078 
L 290.038839 118.44197 
L 290.384217 102.071166 
L 290.729594 101.757528 
L 291.074971 114.144991 
L 291.420348 115.922575 
L 291.765725 94.45937 
L 292.111103 98.208006 
L 292.45648 86.550385 
L 292.801857 101.238265 
L 293.147234 107.766453 
L 293.492611 78.392303 
L 293.837988 99.867768 
L 294.183366 70.38192 
L 294.528743 98.595668 
L 294.87412 89.098307 
L 295.219497 94.283242 
L 295.564874 87.710989 
L 295.910251 96.48589 
L 296.255629 91.949993 
L 296.601006 92.033886 
L 297.29176 105.841266 
L 297.637137 95.718824 
L 297.982515 98.462076 
L 298.327892 97.585533 
L 298.673269 100.522101 
L 299.018646 106.238139 
L 299.364023 66.574231 
L 299.7094 81.115818 
L 300.054778 83.660968 
L 300.400155 89.891639 
L 300.745532 110.878686 
L 301.090909 80.322278 
L 301.436286 97.587151 
L 301.781663 96.511453 
L 302.127041 107.928694 
L 302.472418 103.856057 
L 302.817795 74.735687 
L 303.163172 87.770154 
L 303.508549 94.256257 
L 303.853926 95.537995 
L 304.199304 125.774431 
L 304.544681 116.93703 
L 304.890058 79.107227 
L 305.235435 100.71932 
L 305.580812 89.275876 
L 305.92619 83.351417 
L 306.271567 95.516931 
L 306.616944 100.943905 
L 306.962321 114.423957 
L 307.653075 83.257764 
L 307.998453 96.680465 
L 308.34383 94.544185 
L 308.689207 80.265372 
L 309.034584 80.790868 
L 309.379961 92.211038 
L 309.725338 98.812036 
L 310.070716 69.755195 
L 310.416093 100.467987 
L 310.76147 88.491573 
L 311.106847 92.421055 
L 311.452224 82.758785 
L 311.797602 87.799029 
L 312.142979 103.104062 
L 312.488356 82.941924 
L 312.833733 82.188694 
L 313.17911 82.812368 
L 313.524487 102.885245 
L 313.869865 93.951192 
L 314.215242 81.708414 
L 314.560619 82.297895 
L 314.905996 93.787452 
L 315.251373 76.662269 
L 315.59675 102.457264 
L 315.942128 82.890988 
L 316.632882 90.941117 
L 316.978259 76.276181 
L 317.323636 82.400453 
L 317.669014 100.754005 
L 318.014391 104.590107 
L 318.359768 83.731184 
L 319.050522 95.440094 
L 319.395899 90.508362 
L 319.741277 99.073934 
L 320.086654 96.937551 
L 320.777408 76.543093 
L 321.122785 85.998997 
L 321.468162 91.315867 
L 322.158917 73.692885 
L 322.504294 87.275959 
L 322.849671 95.866193 
L 323.195048 90.316338 
L 323.540426 95.351239 
L 324.23118 89.197075 
L 324.576557 73.70596 
L 324.921934 78.057685 
L 325.267311 104.259009 
L 325.612689 102.012094 
L 326.64882 88.681022 
L 326.994197 99.950327 
L 327.684952 72.333785 
L 328.030329 101.436006 
L 328.375706 74.940633 
L 328.721083 66.860177 
L 329.06646 85.635861 
L 329.411838 93.906739 
L 329.757215 67.52806 
L 330.102592 99.101924 
L 330.447969 106.746566 
L 330.793346 80.274192 
L 331.138723 87.390858 
L 331.484101 98.576025 
L 331.829478 97.095067 
L 332.174855 80.982756 
L 332.520232 84.253864 
L 332.865609 92.763557 
L 333.210986 104.646878 
L 333.556364 106.815585 
L 333.901741 115.846521 
L 334.247118 95.644443 
L 334.592495 95.702992 
L 335.28325 100.455719 
L 335.628627 83.663721 
L 335.974004 102.892702 
L 336.319381 98.064709 
L 336.664758 104.725365 
L 337.355513 102.152455 
L 337.70089 108.054688 
L 338.737021 67.3886 
L 339.082398 76.660155 
L 339.427776 97.889171 
L 339.773153 105.575133 
L 340.11853 93.037317 
L 340.463907 99.75099 
L 340.809284 101.167954 
L 341.154662 101.342431 
L 341.500039 99.991914 
L 341.845416 86.094268 
L 342.190793 96.830026 
L 342.53617 68.413007 
L 342.881547 53.861453 
L 343.226925 79.200823 
L 343.917679 91.379571 
L 344.263056 110.122916 
L 344.608433 108.794273 
L 344.95381 83.525746 
L 345.299188 94.28947 
L 345.644565 94.911468 
L 345.989942 112.265752 
L 346.335319 101.920159 
L 346.680696 78.026314 
L 347.026074 81.591001 
L 347.371451 77.227853 
L 347.716828 102.470963 
L 348.062205 95.083125 
L 348.407582 81.939225 
L 348.752959 78.365986 
L 349.098337 86.101346 
L 349.443714 87.78459 
L 349.789091 70.531835 
L 350.134468 91.573986 
L 350.479845 66.799065 
L 350.825222 94.419333 
L 351.1706 91.029029 
L 351.515977 108.5158 
L 351.861354 77.220617 
L 352.206731 89.705905 
L 352.552108 76.322925 
L 352.897485 98.60822 
L 353.242863 76.488209 
L 353.58824 98.78578 
L 353.933617 94.565012 
L 354.278994 97.258246 
L 354.624371 89.63851 
L 354.969749 97.148174 
L 355.315126 96.706619 
L 355.660503 74.258138 
L 356.00588 79.071557 
L 356.351257 86.701379 
L 356.696634 88.847499 
L 357.042012 77.426882 
L 357.387389 95.098843 
L 357.732766 71.303627 
L 358.078143 90.487998 
L 358.42352 96.476839 
L 358.768897 89.146699 
L 359.114275 108.20527 
L 359.805029 68.17894 
L 360.150406 85.751409 
L 360.495783 96.29388 
L 360.841161 91.112028 
L 361.186538 67.097112 
L 361.531915 63.958648 
L 361.877292 90.086176 
L 362.222669 102.070029 
L 362.568046 80.347876 
L 362.913424 80.959191 
L 363.258801 87.613912 
L 363.604178 83.313944 
L 363.949555 102.631518 
L 364.294932 90.442321 
L 364.640309 101.966682 
L 364.985687 74.790706 
L 365.331064 79.049379 
L 365.676441 88.953296 
L 366.021818 89.856629 
L 366.367195 86.675245 
L 366.712573 72.70618 
L 367.05795 87.969594 
L 367.403327 68.226469 
L 367.748704 56.890016 
L 368.094081 95.155449 
L 368.439458 102.716774 
L 368.784836 87.73263 
L 369.130213 87.72253 
L 369.47559 91.109027 
L 369.820967 71.882148 
L 370.166344 96.397544 
L 370.857099 85.209771 
L 371.202476 99.838974 
L 371.547853 79.454697 
L 371.89323 75.202181 
L 372.238607 72.610913 
L 372.583985 104.958318 
L 372.929362 71.252779 
L 373.274739 87.111061 
L 373.620116 76.70457 
L 373.965493 74.45123 
L 374.31087 81.058385 
L 374.656248 65.42761 
L 375.001625 86.6914 
L 375.347002 88.173848 
L 375.692379 74.918251 
L 376.037756 90.978568 
L 376.383133 72.32896 
L 376.728511 81.238382 
L 377.073888 72.369182 
L 377.419265 72.005451 
L 377.764642 62.344451 
L 378.110019 74.607586 
L 378.455397 69.945863 
L 378.800774 93.347367 
L 379.146151 91.101524 
L 379.491528 89.781727 
L 379.836905 60.471502 
L 380.182282 82.069273 
L 380.52766 62.512192 
L 380.873037 77.213807 
L 381.218414 79.285364 
L 381.563791 77.124898 
L 381.909168 84.895538 
L 382.599923 68.686636 
L 382.9453 81.276301 
L 383.290677 70.899264 
L 383.636054 91.912621 
L 383.981431 96.115551 
L 384.326809 78.797997 
L 384.672186 105.333424 
L 385.017563 77.369726 
L 385.36294 77.525073 
L 385.708317 79.054162 
L 386.053694 73.033151 
L 386.399072 78.191892 
L 386.744449 78.842663 
L 387.089826 88.02025 
L 387.435203 87.160258 
L 387.78058 70.585805 
L 388.125957 76.289233 
L 388.471335 77.83104 
L 388.816712 88.685885 
L 389.162089 75.366573 
L 389.507466 87.937286 
L 389.852843 84.700304 
L 390.198221 91.720463 
L 390.543598 76.385291 
L 390.888975 87.185584 
L 391.234352 91.962622 
L 391.579729 93.958947 
L 391.925106 91.515665 
L 392.270484 80.419856 
L 392.615861 91.713914 
L 392.961238 77.284063 
L 393.306615 95.550635 
L 393.651992 70.379562 
L 394.688124 82.655799 
L 395.033501 76.7033 
L 395.378878 91.964643 
L 395.724255 72.591953 
L 396.069632 85.536876 
L 396.760387 73.247487 
L 397.105764 88.015907 
L 397.451141 53.568 
L 397.796518 77.329228 
L 398.141896 66.923976 
L 398.487273 65.2841 
L 398.487273 65.2841 
" style="fill:none;stroke:#ff0000;stroke-linecap:square;stroke-width:1.5;"/>
   </g>
   <g id="patch_3">
    <path d="M 57.6 307.584 
L 57.6 41.472 
" style="fill:none;stroke:#000000;stroke-linecap:square;stroke-linejoin:miter;stroke-width:0.8;"/>
   </g>
   <g id="patch_4">
    <path d="M 414.72 307.584 
L 414.72 41.472 
" style="fill:none;stroke:#000000;stroke-linecap:square;stroke-linejoin:miter;stroke-width:0.8;"/>
   </g>
   <g id="patch_5">
    <path d="M 57.6 307.584 
L 414.72 307.584 
" style="fill:none;stroke:#000000;stroke-linecap:square;stroke-linejoin:miter;stroke-width:0.8;"/>
   </g>
   <g id="patch_6">
    <path d="M 57.6 41.472 
L 414.72 41.472 
" style="fill:none;stroke:#000000;stroke-linecap:square;stroke-linejoin:miter;stroke-width:0.8;"/>
   </g>
   <g id="text_9">
    <!-- Population's average and best fitness -->
    <defs>
     <path d="M 19.671875 64.796875 
L 19.671875 37.40625 
L 32.078125 37.40625 
Q 38.96875 37.40625 42.71875 40.96875 
Q 46.484375 44.53125 46.484375 51.125 
Q 46.484375 57.671875 42.71875 61.234375 
Q 38.96875 64.796875 32.078125 64.796875 
z
M 9.8125 72.90625 
L 32.078125 72.90625 
Q 44.34375 72.90625 50.609375 67.359375 
Q 56.890625 61.8125 56.890625 51.125 
Q 56.890625 40.328125 50.609375 34.8125 
Q 44.34375 29.296875 32.078125 29.296875 
L 19.671875 29.296875 
L 19.671875 0 
L 9.8125 0 
z
" id="DejaVuSans-50"/>
     <path d="M 18.109375 8.203125 
L 18.109375 -20.796875 
L 9.078125 -20.796875 
L 9.078125 54.6875 
L 18.109375 54.6875 
L 18.109375 46.390625 
Q 20.953125 51.265625 25.265625 53.625 
Q 29.59375 56 35.59375 56 
Q 45.5625 56 51.78125 48.09375 
Q 58.015625 40.1875 58.015625 27.296875 
Q 58.015625 14.40625 51.78125 6.484375 
Q 45.5625 -1.421875 35.59375 -1.421875 
Q 29.59375 -1.421875 25.265625 0.953125 
Q 20.953125 3.328125 18.109375 8.203125 
z
M 48.6875 27.296875 
Q 48.6875 37.203125 44.609375 42.84375 
Q 40.53125 48.484375 33.40625 48.484375 
Q 26.265625 48.484375 22.1875 42.84375 
Q 18.109375 37.203125 18.109375 27.296875 
Q 18.109375 17.390625 22.1875 11.75 
Q 26.265625 6.109375 33.40625 6.109375 
Q 40.53125 6.109375 44.609375 11.75 
Q 48.6875 17.390625 48.6875 27.296875 
z
" id="DejaVuSans-70"/>
     <path d="M 8.5 21.578125 
L 8.5 54.6875 
L 17.484375 54.6875 
L 17.484375 21.921875 
Q 17.484375 14.15625 20.5 10.265625 
Q 23.53125 6.390625 29.59375 6.390625 
Q 36.859375 6.390625 41.078125 11.03125 
Q 45.3125 15.671875 45.3125 23.6875 
L 45.3125 54.6875 
L 54.296875 54.6875 
L 54.296875 0 
L 45.3125 0 
L 45.3125 8.40625 
Q 42.046875 3.421875 37.71875 1 
Q 33.40625 -1.421875 27.6875 -1.421875 
Q 18.265625 -1.421875 13.375 4.4375 
Q 8.5 10.296875 8.5 21.578125 
z
M 31.109375 56 
z
" id="DejaVuSans-75"/>
     <path d="M 9.421875 75.984375 
L 18.40625 75.984375 
L 18.40625 0 
L 9.421875 0 
z
" id="DejaVuSans-6c"/>
     <path d="M 17.921875 72.90625 
L 17.921875 45.796875 
L 9.625 45.796875 
L 9.625 72.90625 
z
" id="DejaVuSans-27"/>
     <path id="DejaVuSans-20"/>
     <path d="M 2.984375 54.6875 
L 12.5 54.6875 
L 29.59375 8.796875 
L 46.6875 54.6875 
L 56.203125 54.6875 
L 35.6875 0 
L 23.484375 0 
z
" id="DejaVuSans-76"/>
     <path d="M 45.40625 27.984375 
Q 45.40625 37.75 41.375 43.109375 
Q 37.359375 48.484375 30.078125 48.484375 
Q 22.859375 48.484375 18.828125 43.109375 
Q 14.796875 37.75 14.796875 27.984375 
Q 14.796875 18.265625 18.828125 12.890625 
Q 22.859375 7.515625 30.078125 7.515625 
Q 37.359375 7.515625 41.375 12.890625 
Q 45.40625 18.265625 45.40625 27.984375 
z
M 54.390625 6.78125 
Q 54.390625 -7.171875 48.1875 -13.984375 
Q 42 -20.796875 29.203125 -20.796875 
Q 24.46875 -20.796875 20.265625 -20.09375 
Q 16.0625 -19.390625 12.109375 -17.921875 
L 12.109375 -9.1875 
Q 16.0625 -11.328125 19.921875 -12.34375 
Q 23.78125 -13.375 27.78125 -13.375 
Q 36.625 -13.375 41.015625 -8.765625 
Q 45.40625 -4.15625 45.40625 5.171875 
L 45.40625 9.625 
Q 42.625 4.78125 38.28125 2.390625 
Q 33.9375 0 27.875 0 
Q 17.828125 0 11.671875 7.65625 
Q 5.515625 15.328125 5.515625 27.984375 
Q 5.515625 40.671875 11.671875 48.328125 
Q 17.828125 56 27.875 56 
Q 33.9375 56 38.28125 53.609375 
Q 42.625 51.21875 45.40625 46.390625 
L 45.40625 54.6875 
L 54.390625 54.6875 
z
" id="DejaVuSans-67"/>
     <path d="M 45.40625 46.390625 
L 45.40625 75.984375 
L 54.390625 75.984375 
L 54.390625 0 
L 45.40625 0 
L 45.40625 8.203125 
Q 42.578125 3.328125 38.25 0.953125 
Q 33.9375 -1.421875 27.875 -1.421875 
Q 17.96875 -1.421875 11.734375 6.484375 
Q 5.515625 14.40625 5.515625 27.296875 
Q 5.515625 40.1875 11.734375 48.09375 
Q 17.96875 56 27.875 56 
Q 33.9375 56 38.25 53.625 
Q 42.578125 51.265625 45.40625 46.390625 
z
M 14.796875 27.296875 
Q 14.796875 17.390625 18.875 11.75 
Q 22.953125 6.109375 30.078125 6.109375 
Q 37.203125 6.109375 41.296875 11.75 
Q 45.40625 17.390625 45.40625 27.296875 
Q 45.40625 37.203125 41.296875 42.84375 
Q 37.203125 48.484375 30.078125 48.484375 
Q 22.953125 48.484375 18.875 42.84375 
Q 14.796875 37.203125 14.796875 27.296875 
z
" id="DejaVuSans-64"/>
     <path d="M 48.6875 27.296875 
Q 48.6875 37.203125 44.609375 42.84375 
Q 40.53125 48.484375 33.40625 48.484375 
Q 26.265625 48.484375 22.1875 42.84375 
Q 18.109375 37.203125 18.109375 27.296875 
Q 18.109375 17.390625 22.1875 11.75 
Q 26.265625 6.109375 33.40625 6.109375 
Q 40.53125 6.109375 44.609375 11.75 
Q 48.6875 17.390625 48.6875 27.296875 
z
M 18.109375 46.390625 
Q 20.953125 51.265625 25.265625 53.625 
Q 29.59375 56 35.59375 56 
Q 45.5625 56 51.78125 48.09375 
Q 58.015625 40.1875 58.015625 27.296875 
Q 58.015625 14.40625 51.78125 6.484375 
Q 45.5625 -1.421875 35.59375 -1.421875 
Q 29.59375 -1.421875 25.265625 0.953125 
Q 20.953125 3.328125 18.109375 8.203125 
L 18.109375 0 
L 9.078125 0 
L 9.078125 75.984375 
L 18.109375 75.984375 
z
" id="DejaVuSans-62"/>
     <path d="M 37.109375 75.984375 
L 37.109375 68.5 
L 28.515625 68.5 
Q 23.6875 68.5 21.796875 66.546875 
Q 19.921875 64.59375 19.921875 59.515625 
L 19.921875 54.6875 
L 34.71875 54.6875 
L 34.71875 47.703125 
L 19.921875 47.703125 
L 19.921875 0 
L 10.890625 0 
L 10.890625 47.703125 
L 2.296875 47.703125 
L 2.296875 54.6875 
L 10.890625 54.6875 
L 10.890625 58.5 
Q 10.890625 67.625 15.140625 71.796875 
Q 19.390625 75.984375 28.609375 75.984375 
z
" id="DejaVuSans-66"/>
    </defs>
    <g transform="translate(123.315 35.472)scale(0.12 -0.12)">
     <use xlink:href="#DejaVuSans-50"/>
     <use x="60.255859" xlink:href="#DejaVuSans-6f"/>
     <use x="121.4375" xlink:href="#DejaVuSans-70"/>
     <use x="184.914062" xlink:href="#DejaVuSans-75"/>
     <use x="248.292969" xlink:href="#DejaVuSans-6c"/>
     <use x="276.076172" xlink:href="#DejaVuSans-61"/>
     <use x="337.355469" xlink:href="#DejaVuSans-74"/>
     <use x="376.564453" xlink:href="#DejaVuSans-69"/>
     <use x="404.347656" xlink:href="#DejaVuSans-6f"/>
     <use x="465.529297" xlink:href="#DejaVuSans-6e"/>
     <use x="528.908203" xlink:href="#DejaVuSans-27"/>
     <use x="556.398438" xlink:href="#DejaVuSans-73"/>
     <use x="608.498047" xlink:href="#DejaVuSans-20"/>
     <use x="640.285156" xlink:href="#DejaVuSans-61"/>
     <use x="701.564453" xlink:href="#DejaVuSans-76"/>
     <use x="760.744141" xlink:href="#DejaVuSans-65"/>
     <use x="822.267578" xlink:href="#DejaVuSans-72"/>
     <use x="863.380859" xlink:href="#DejaVuSans-61"/>
     <use x="924.660156" xlink:href="#DejaVuSans-67"/>
     <use x="988.136719" xlink:href="#DejaVuSans-65"/>
     <use x="1049.660156" xlink:href="#DejaVuSans-20"/>
     <use x="1081.447266" xlink:href="#DejaVuSans-61"/>
     <use x="1142.726562" xlink:href="#DejaVuSans-6e"/>
     <use x="1206.105469" xlink:href="#DejaVuSans-64"/>
     <use x="1269.582031" xlink:href="#DejaVuSans-20"/>
     <use x="1301.369141" xlink:href="#DejaVuSans-62"/>
     <use x="1364.845703" xlink:href="#DejaVuSans-65"/>
     <use x="1426.369141" xlink:href="#DejaVuSans-73"/>
     <use x="1478.46875" xlink:href="#DejaVuSans-74"/>
     <use x="1517.677734" xlink:href="#DejaVuSans-20"/>
     <use x="1549.464844" xlink:href="#DejaVuSans-66"/>
     <use x="1584.669922" xlink:href="#DejaVuSans-69"/>
     <use x="1612.453125" xlink:href="#DejaVuSans-74"/>
     <use x="1651.662109" xlink:href="#DejaVuSans-6e"/>
     <use x="1715.041016" xlink:href="#DejaVuSans-65"/>
     <use x="1776.564453" xlink:href="#DejaVuSans-73"/>
     <use x="1828.664062" xlink:href="#DejaVuSans-73"/>
    </g>
   </g>
   <g id="legend_1">
    <g id="patch_7">
     <path d="M 334.779375 302.584 
L 407.72 302.584 
Q 409.72 302.584 409.72 300.584 
L 409.72 257.549625 
Q 409.72 255.549625 407.72 255.549625 
L 334.779375 255.549625 
Q 332.779375 255.549625 332.779375 257.549625 
L 332.779375 300.584 
Q 332.779375 302.584 334.779375 302.584 
z
" style="fill:#ffffff;opacity:0.8;stroke:#cccccc;stroke-linejoin:miter;"/>
    </g>
    <g id="line2d_17">
     <path d="M 336.779375 263.648062 
L 356.779375 263.648062 
" style="fill:none;stroke:#0000ff;stroke-linecap:square;stroke-width:1.5;"/>
    </g>
    <g id="line2d_18"/>
    <g id="text_10">
     <!-- average -->
     <g transform="translate(364.779375 267.148062)scale(0.1 -0.1)">
      <use xlink:href="#DejaVuSans-61"/>
      <use x="61.279297" xlink:href="#DejaVuSans-76"/>
      <use x="120.458984" xlink:href="#DejaVuSans-65"/>
      <use x="181.982422" xlink:href="#DejaVuSans-72"/>
      <use x="223.095703" xlink:href="#DejaVuSans-61"/>
      <use x="284.375" xlink:href="#DejaVuSans-67"/>
      <use x="347.851562" xlink:href="#DejaVuSans-65"/>
     </g>
    </g>
    <g id="line2d_19">
     <path d="M 336.779375 278.326188 
L 356.779375 278.326188 
" style="fill:none;stroke:#008000;stroke-dasharray:9.6,2.4,1.5,2.4;stroke-dashoffset:0;stroke-width:1.5;"/>
    </g>
    <g id="line2d_20"/>
    <g id="text_11">
     <!-- +1 sd -->
     <defs>
      <path d="M 46 62.703125 
L 46 35.5 
L 73.1875 35.5 
L 73.1875 27.203125 
L 46 27.203125 
L 46 0 
L 37.796875 0 
L 37.796875 27.203125 
L 10.59375 27.203125 
L 10.59375 35.5 
L 37.796875 35.5 
L 37.796875 62.703125 
z
" id="DejaVuSans-2b"/>
     </defs>
     <g transform="translate(364.779375 281.826188)scale(0.1 -0.1)">
      <use xlink:href="#DejaVuSans-2b"/>
      <use x="83.789062" xlink:href="#DejaVuSans-31"/>
      <use x="147.412109" xlink:href="#DejaVuSans-20"/>
      <use x="179.199219" xlink:href="#DejaVuSans-73"/>
      <use x="231.298828" xlink:href="#DejaVuSans-64"/>
     </g>
    </g>
    <g id="line2d_21">
     <path d="M 336.779375 293.004312 
L 356.779375 293.004312 
" style="fill:none;stroke:#ff0000;stroke-linecap:square;stroke-width:1.5;"/>
    </g>
    <g id="line2d_22"/>
    <g id="text_12">
     <!-- best -->
     <g transform="translate(364.779375 296.504312)scale(0.1 -0.1)">
      <use xlink:href="#DejaVuSans-62"/>
      <use x="63.476562" xlink:href="#DejaVuSans-65"/>
      <use x="125" xlink:href="#DejaVuSans-73"/>
      <use x="177.099609" xlink:href="#DejaVuSans-74"/>
     </g>
    </g>
   </g>
  </g>
 </g>
 <defs>
  <clipPath id="pd7d208dbaa">
   <rect height="266.112" width="357.12" x="57.6" y="41.472"/>
  </clipPath>
 </defs>
</svg>
