<?xml version="1.0" encoding="UTF-8" standalone="no"?>
<!DOCTYPE svg PUBLIC "-//W3C//DTD SVG 1.1//EN"
 "http://www.w3.org/Graphics/SVG/1.1/DTD/svg11.dtd">
<!-- Generated by graphviz version 2.38.0 (20140413.2041)
 -->
<!-- Title: %3 Pages: 1 -->
<svg width="2392pt" height="520pt"
 viewBox="0.00 0.00 2392.00 519.70" xmlns="http://www.w3.org/2000/svg" xmlns:xlink="http://www.w3.org/1999/xlink">
<g id="graph0" class="graph" transform="scale(1 1) rotate(0) translate(4 515.696)">
<title>%3</title>
<polygon fill="white" stroke="none" points="-4,4 -4,-515.696 2388,-515.696 2388,4 -4,4"/>
<!-- wallRadar[1,0] -->
<g id="node1" class="node"><title>wallRadar[1,0]</title>
<polygon fill="lightgray" stroke="black" points="70,-407.621 0,-407.621 0,-389.621 70,-389.621 70,-407.621"/>
<text text-anchor="middle" x="35" y="-396.421" font-family="Times,serif" font-size="9.00">wallRadar[1,0]</text>
</g>
<!-- Shoot -->
<g id="node24" class="node"><title>Shoot</title>
<ellipse fill="lightblue" stroke="black" cx="1316" cy="-26.8701" rx="26.7407" ry="26.7407"/>
<text text-anchor="middle" x="1316" y="-24.6701" font-family="Times,serif" font-size="9.00">Shoot</text>
</g>
<!-- wallRadar[1,0]&#45;&gt;Shoot -->
<g id="edge12" class="edge"><title>wallRadar[1,0]&#45;&gt;Shoot</title>
<path fill="none" stroke="red" stroke-width="0.534339" stroke-dasharray="1,5" d="M38.2744,-389.536C51.512,-357.862 104.256,-241.019 185,-180.894 289.968,-102.732 336.573,-114.926 465,-89.7401 775.079,-28.9304 1159.27,-26.5034 1278.77,-27.3848"/>
<polygon fill="red" stroke="red" stroke-width="0.534339" points="1278.83,-30.8853 1288.86,-27.4721 1278.89,-23.8856 1278.83,-30.8853"/>
</g>
<!-- Turn left/right -->
<g id="node27" class="node"><title>Turn left/right</title>
<ellipse fill="lightblue" stroke="black" cx="441" cy="-257.969" rx="46.8387" ry="46.8387"/>
<text text-anchor="middle" x="441" y="-255.769" font-family="Times,serif" font-size="9.00">Turn left/right</text>
</g>
<!-- wallRadar[1,0]&#45;&gt;Turn left/right -->
<g id="edge25" class="edge"><title>wallRadar[1,0]&#45;&gt;Turn left/right</title>
<path fill="none" stroke="red" stroke-width="0.517242" d="M46.5268,-389.59C55.165,-383.842 67.4383,-376.232 79,-371.044 183.623,-324.095 313.593,-289.123 385.893,-271.582"/>
<polygon fill="red" stroke="red" stroke-width="0.517242" points="386.799,-274.964 395.704,-269.223 385.162,-268.158 386.799,-274.964"/>
</g>
<!-- wallRadar[0,1] -->
<g id="node2" class="node"><title>wallRadar[0,1]</title>
<polygon fill="lightgray" stroke="black" points="1699,-407.621 1629,-407.621 1629,-389.621 1699,-389.621 1699,-407.621"/>
<text text-anchor="middle" x="1664" y="-396.421" font-family="Times,serif" font-size="9.00">wallRadar[0,1]</text>
</g>
<!-- Move Forward/Backward -->
<g id="node25" class="node"><title>Move Forward/Backward</title>
<ellipse fill="lightblue" stroke="black" cx="1580" cy="-257.969" rx="77.1494" ry="77.1494"/>
<text text-anchor="middle" x="1580" y="-255.769" font-family="Times,serif" font-size="9.00">Move Forward/Backward</text>
</g>
<!-- wallRadar[0,1]&#45;&gt;Move Forward/Backward -->
<g id="edge19" class="edge"><title>wallRadar[0,1]&#45;&gt;Move Forward/Backward</title>
<path fill="none" stroke="red" stroke-width="0.522981" stroke-dasharray="1,5" d="M1659,-389.363C1652.01,-377.835 1638.64,-355.762 1624.86,-333.009"/>
<polygon fill="red" stroke="red" stroke-width="0.522981" points="1627.74,-331.015 1619.57,-324.276 1621.75,-334.643 1627.74,-331.015"/>
</g>
<!--  Move Left/Right -->
<g id="node26" class="node"><title> Move Left/Right</title>
<ellipse fill="lightblue" stroke="black" cx="1196" cy="-257.969" rx="55.3091" ry="55.3091"/>
<text text-anchor="middle" x="1196" y="-255.769" font-family="Times,serif" font-size="9.00"> Move Left/Right</text>
</g>
<!-- wallRadar[0,1]&#45;&gt; Move Left/Right -->
<g id="edge36" class="edge"><title>wallRadar[0,1]&#45;&gt; Move Left/Right</title>
<path fill="none" stroke="green" stroke-width="0.324271" stroke-dasharray="1,5" d="M1652.54,-389.446C1643.93,-383.625 1631.67,-375.989 1620,-371.044 1603.2,-363.923 1373.77,-304.613 1259.61,-275.275"/>
<polygon fill="green" stroke="green" stroke-width="0.324271" points="1260.15,-271.801 1249.59,-272.703 1258.41,-278.581 1260.15,-271.801"/>
</g>
<!-- wallRadar[&#45;1,0] -->
<g id="node3" class="node"><title>wallRadar[&#45;1,0]</title>
<polygon fill="lightgray" stroke="black" points="505.5,-495.947 432.5,-495.947 432.5,-477.947 505.5,-477.947 505.5,-495.947"/>
<text text-anchor="middle" x="469" y="-484.747" font-family="Times,serif" font-size="9.00">wallRadar[&#45;1,0]</text>
</g>
<!-- wallRadar[&#45;1,0]&#45;&gt; Move Left/Right -->
<g id="edge1" class="edge"><title>wallRadar[&#45;1,0]&#45;&gt; Move Left/Right</title>
<path fill="none" stroke="red" stroke-width="0.24402" stroke-dasharray="1,5" d="M505.547,-484.283C593.511,-479.7 814.303,-464.59 876,-426.198 901.274,-410.471 890.392,-389.176 914,-371.044 951.794,-342.016 970.572,-352.283 1015,-335.044 1055.67,-319.264 1100.9,-300.251 1135.98,-285.18"/>
<polygon fill="red" stroke="red" stroke-width="0.24402" points="1137.79,-288.21 1145.59,-281.04 1135.02,-281.781 1137.79,-288.21"/>
</g>
<!-- wallRadar[&#45;1,0]&#45;&gt;Turn left/right -->
<g id="edge13" class="edge"><title>wallRadar[&#45;1,0]&#45;&gt;Turn left/right</title>
<path fill="none" stroke="green" stroke-width="0.316013" stroke-dasharray="1,5" d="M468.003,-477.869C464.83,-452.145 454.765,-370.556 447.862,-314.594"/>
<polygon fill="green" stroke="green" stroke-width="0.316013" points="451.31,-313.958 446.612,-304.462 444.363,-314.816 451.31,-313.958"/>
</g>
<!-- 12298 -->
<g id="node29" class="node"><title>12298</title>
<ellipse fill="white" stroke="black" cx="413" cy="-398.621" rx="27.6545" ry="27.6545"/>
<text text-anchor="middle" x="413" y="-396.421" font-family="Times,serif" font-size="9.00">12298</text>
</g>
<!-- wallRadar[&#45;1,0]&#45;&gt;12298 -->
<g id="edge46" class="edge"><title>wallRadar[&#45;1,0]&#45;&gt;12298</title>
<path fill="none" stroke="green" stroke-width="0.304022" d="M463.63,-477.669C456.637,-466.889 444.017,-447.435 433.127,-430.647"/>
<polygon fill="green" stroke="green" stroke-width="0.304022" points="436.007,-428.656 427.629,-422.172 430.135,-432.466 436.007,-428.656"/>
</g>
<!-- wallRadar[0,&#45;1] -->
<g id="node4" class="node"><title>wallRadar[0,&#45;1]</title>
<polygon fill="lightgray" stroke="black" points="726.5,-407.621 653.5,-407.621 653.5,-389.621 726.5,-389.621 726.5,-407.621"/>
<text text-anchor="middle" x="690" y="-396.421" font-family="Times,serif" font-size="9.00">wallRadar[0,&#45;1]</text>
</g>
<!-- wallRadar[0,&#45;1]&#45;&gt;Shoot -->
<g id="edge6" class="edge"><title>wallRadar[0,&#45;1]&#45;&gt;Shoot</title>
<path fill="none" stroke="green" stroke-width="0.112908" stroke-dasharray="1,5" d="M693.262,-389.369C705.568,-358.967 751.717,-251.333 815,-180.894 860.952,-129.746 876.578,-116.299 940,-89.7401 1056.95,-40.7634 1209.54,-30.4429 1278.85,-28.3489"/>
<polygon fill="green" stroke="green" stroke-width="0.112908" points="1278.95,-31.8477 1288.85,-28.0873 1278.76,-24.8501 1278.95,-31.8477"/>
</g>
<!-- wallRadar[0,&#45;1]&#45;&gt;Move Forward/Backward -->
<g id="edge33" class="edge"><title>wallRadar[0,&#45;1]&#45;&gt;Move Forward/Backward</title>
<path fill="none" stroke="green" stroke-width="0.47042" stroke-dasharray="1,5" d="M700.682,-389.549C709.61,-383.289 722.944,-375.029 736,-371.044 959.269,-302.894 1029.22,-370.158 1260,-335.044 1341.22,-322.686 1432.21,-300.192 1496.34,-282.858"/>
<polygon fill="green" stroke="green" stroke-width="0.47042" points="1497.27,-286.232 1506,-280.231 1495.43,-279.478 1497.27,-286.232"/>
</g>
<!-- wallRadar[0,&#45;1]&#45;&gt;Turn left/right -->
<g id="edge3" class="edge"><title>wallRadar[0,&#45;1]&#45;&gt;Turn left/right</title>
<path fill="none" stroke="red" stroke-width="0.35174" stroke-dasharray="1,5" d="M675.948,-389.407C666.86,-384.119 654.761,-377.122 644,-371.044 591.86,-341.592 531.775,-308.527 490.581,-285.992"/>
<polygon fill="red" stroke="red" stroke-width="0.35174" points="492.024,-282.792 481.57,-281.066 488.666,-288.934 492.024,-282.792"/>
</g>
<!-- wallRadar[0.7,0.7] -->
<g id="node5" class="node"><title>wallRadar[0.7,0.7]</title>
<polygon fill="lightgray" stroke="black" points="171.5,-407.621 88.5,-407.621 88.5,-389.621 171.5,-389.621 171.5,-407.621"/>
<text text-anchor="middle" x="130" y="-396.421" font-family="Times,serif" font-size="9.00">wallRadar[0.7,0.7]</text>
</g>
<!-- wallRadar[0.7,0.7]&#45;&gt;Shoot -->
<g id="edge37" class="edge"><title>wallRadar[0.7,0.7]&#45;&gt;Shoot</title>
<path fill="none" stroke="red" stroke-width="0.267597" d="M136.968,-389.441C164.716,-357.411 271.363,-239.415 385,-180.894 532.501,-104.934 583.695,-119.034 747,-89.7401 945.981,-54.0465 1188.06,-36.0102 1279.06,-30.1091"/>
<polygon fill="red" stroke="red" stroke-width="0.267597" points="1279.39,-33.5952 1289.15,-29.4649 1278.95,-26.6094 1279.39,-33.5952"/>
</g>
<!-- wallRadar[0.7,0.7]&#45;&gt;Turn left/right -->
<g id="edge2" class="edge"><title>wallRadar[0.7,0.7]&#45;&gt;Turn left/right</title>
<path fill="none" stroke="red" stroke-width="0.226575" stroke-dasharray="1,5" d="M143.654,-389.419C153.51,-383.734 167.271,-376.276 180,-371.044 231.5,-349.874 248.566,-356.374 300,-335.044 331.855,-321.833 365.928,-303.575 392.598,-288.256"/>
<polygon fill="red" stroke="red" stroke-width="0.226575" points="394.448,-291.229 401.345,-283.186 390.938,-285.173 394.448,-291.229"/>
</g>
<!-- wallRadar[&#45;0.7,0.7] -->
<g id="node6" class="node"><title>wallRadar[&#45;0.7,0.7]</title>
<polygon fill="lightgray" stroke="black" points="1083,-407.621 997,-407.621 997,-389.621 1083,-389.621 1083,-407.621"/>
<text text-anchor="middle" x="1040" y="-396.421" font-family="Times,serif" font-size="9.00">wallRadar[&#45;0.7,0.7]</text>
</g>
<!-- wallRadar[&#45;0.7,0.7]&#45;&gt; Move Left/Right -->
<g id="edge22" class="edge"><title>wallRadar[&#45;0.7,0.7]&#45;&gt; Move Left/Right</title>
<path fill="none" stroke="green" stroke-width="0.35212" d="M1049.29,-389.363C1068.2,-372.561 1112.3,-333.359 1147.25,-302.298"/>
<polygon fill="green" stroke="green" stroke-width="0.35212" points="1149.86,-304.663 1155.01,-295.404 1145.21,-299.431 1149.86,-304.663"/>
</g>
<!-- wallRadar[&#45;0.7,&#45;0.7] -->
<g id="node7" class="node"><title>wallRadar[&#45;0.7,&#45;0.7]</title>
<polygon fill="lightgray" stroke="black" points="1230.5,-495.947 1141.5,-495.947 1141.5,-477.947 1230.5,-477.947 1230.5,-495.947"/>
<text text-anchor="middle" x="1186" y="-484.747" font-family="Times,serif" font-size="9.00">wallRadar[&#45;0.7,&#45;0.7]</text>
</g>
<!-- wallRadar[0.7,&#45;0.7] -->
<g id="node8" class="node"><title>wallRadar[0.7,&#45;0.7]</title>
<polygon fill="lightgray" stroke="black" points="1359,-407.621 1273,-407.621 1273,-389.621 1359,-389.621 1359,-407.621"/>
<text text-anchor="middle" x="1316" y="-396.421" font-family="Times,serif" font-size="9.00">wallRadar[0.7,&#45;0.7]</text>
</g>
<!-- wallRadar[0.7,&#45;0.7]&#45;&gt;Shoot -->
<g id="edge11" class="edge"><title>wallRadar[0.7,&#45;0.7]&#45;&gt;Shoot</title>
<path fill="none" stroke="green" stroke-width="0.130488" stroke-dasharray="1,5" d="M1316,-389.554C1316,-346.959 1316,-147.036 1316,-64.0823"/>
<polygon fill="green" stroke="green" stroke-width="0.130488" points="1319.5,-63.8713 1316,-53.8714 1312.5,-63.8714 1319.5,-63.8713"/>
</g>
<!-- wallRadar[0.7,&#45;0.7]&#45;&gt;Move Forward/Backward -->
<g id="edge27" class="edge"><title>wallRadar[0.7,&#45;0.7]&#45;&gt;Move Forward/Backward</title>
<path fill="none" stroke="red" stroke-width="0.208142" d="M1331.33,-389.567C1364.1,-372.36 1442.84,-331.007 1503.01,-299.406"/>
<polygon fill="red" stroke="red" stroke-width="0.208142" points="1504.89,-302.37 1512.12,-294.621 1501.64,-296.172 1504.89,-302.37"/>
</g>
<!-- wallRadar[0.7,&#45;0.7]&#45;&gt;Turn left/right -->
<g id="edge18" class="edge"><title>wallRadar[0.7,&#45;0.7]&#45;&gt;Turn left/right</title>
<path fill="none" stroke="green" stroke-width="0.609306" d="M1292.18,-389.556C1274.18,-383.714 1248.76,-376.002 1226,-371.044 956.211,-312.276 627.312,-276.8 497.529,-264.191"/>
<polygon fill="green" stroke="green" stroke-width="0.609306" points="497.717,-260.694 487.428,-263.217 497.045,-267.661 497.717,-260.694"/>
</g>
<!-- enemyRadar[RightBack] -->
<g id="node9" class="node"><title>enemyRadar[RightBack]</title>
<polygon fill="lightgray" stroke="black" points="367,-407.621 263,-407.621 263,-389.621 367,-389.621 367,-407.621"/>
<text text-anchor="middle" x="315" y="-396.421" font-family="Times,serif" font-size="9.00">enemyRadar[RightBack]</text>
</g>
<!-- enemyRadar[RightBack]&#45;&gt;Turn left/right -->
<g id="edge23" class="edge"><title>enemyRadar[RightBack]&#45;&gt;Turn left/right</title>
<path fill="none" stroke="green" stroke-width="0.62518" d="M322.505,-389.363C338.036,-372.272 374.629,-332.005 403.073,-300.704"/>
<polygon fill="green" stroke="green" stroke-width="0.62518" points="405.976,-302.714 410.111,-292.959 400.796,-298.006 405.976,-302.714"/>
</g>
<!-- enemyRadar[LeftBack] -->
<g id="node10" class="node"><title>enemyRadar[LeftBack]</title>
<polygon fill="lightgray" stroke="black" points="1476.5,-407.621 1377.5,-407.621 1377.5,-389.621 1476.5,-389.621 1476.5,-407.621"/>
<text text-anchor="middle" x="1427" y="-396.421" font-family="Times,serif" font-size="9.00">enemyRadar[LeftBack]</text>
</g>
<!-- enemyRadar[LeftBack]&#45;&gt;Move Forward/Backward -->
<g id="edge16" class="edge"><title>enemyRadar[LeftBack]&#45;&gt;Move Forward/Backward</title>
<path fill="none" stroke="green" stroke-width="0.185969" stroke-dasharray="1,5" d="M1436.11,-389.363C1451.77,-375.174 1485.05,-345.012 1515.67,-317.268"/>
<polygon fill="green" stroke="green" stroke-width="0.185969" points="1518.32,-319.586 1523.38,-310.278 1513.62,-314.399 1518.32,-319.586"/>
</g>
<!-- enemyRadar[LeftBack]&#45;&gt; Move Left/Right -->
<g id="edge17" class="edge"><title>enemyRadar[LeftBack]&#45;&gt; Move Left/Right</title>
<path fill="none" stroke="red" stroke-width="0.126212" stroke-dasharray="1,5" d="M1413.58,-389.567C1382.75,-371.062 1305.39,-324.63 1251.76,-292.436"/>
<polygon fill="red" stroke="red" stroke-width="0.126212" points="1253.41,-289.344 1243.03,-287.198 1249.8,-295.346 1253.41,-289.344"/>
</g>
<!-- enemyRadar[Right45ø] -->
<g id="node11" class="node"><title>enemyRadar[Right45ø]</title>
<polygon fill="lightgray" stroke="black" points="635,-407.621 535,-407.621 535,-389.621 635,-389.621 635,-407.621"/>
<text text-anchor="middle" x="585" y="-396.421" font-family="Times,serif" font-size="9.00">enemyRadar[Right45ø]</text>
</g>
<!-- enemyRadar[Right45ø]&#45;&gt;Shoot -->
<g id="edge8" class="edge"><title>enemyRadar[Right45ø]&#45;&gt;Shoot</title>
<path fill="none" stroke="red" stroke-width="0.153386" d="M588.366,-389.315C601.067,-358.724 648.695,-250.515 714,-180.894 763.027,-128.628 780.085,-115.387 847,-89.7401 999.293,-31.371 1197.53,-26.3282 1278.79,-27.0024"/>
<polygon fill="red" stroke="red" stroke-width="0.153386" points="1278.97,-30.5047 1289.01,-27.1234 1279.05,-23.5052 1278.97,-30.5047"/>
</g>
<!-- enemyRadar[Right45ø]&#45;&gt; Move Left/Right -->
<g id="edge29" class="edge"><title>enemyRadar[Right45ø]&#45;&gt; Move Left/Right</title>
<path fill="none" stroke="red" stroke-width="1.79237" d="M600.647,-389.415C612.324,-383.579 628.816,-375.937 644,-371.044 815.818,-315.67 1026.87,-281.879 1131.23,-267.337"/>
<polygon fill="red" stroke="red" stroke-width="1.79237" points="1131.87,-270.783 1141.3,-265.949 1130.92,-263.848 1131.87,-270.783"/>
</g>
<!-- enemyRadar[Right45ø]&#45;&gt;Turn left/right -->
<g id="edge35" class="edge"><title>enemyRadar[Right45ø]&#45;&gt;Turn left/right</title>
<path fill="none" stroke="red" stroke-width="0.560018" d="M576.423,-389.363C558.129,-371.748 514.265,-329.513 481.381,-297.85"/>
<polygon fill="red" stroke="red" stroke-width="0.560018" points="483.755,-295.278 474.124,-290.863 478.9,-300.32 483.755,-295.278"/>
</g>
<!-- enemyRadar[Left45ø] -->
<g id="node12" class="node"><title>enemyRadar[Left45ø]</title>
<polygon fill="lightgray" stroke="black" points="2157.5,-407.621 2062.5,-407.621 2062.5,-389.621 2157.5,-389.621 2157.5,-407.621"/>
<text text-anchor="middle" x="2110" y="-396.421" font-family="Times,serif" font-size="9.00">enemyRadar[Left45ø]</text>
</g>
<!-- enemyRadar[Left45ø]&#45;&gt;Shoot -->
<g id="edge15" class="edge"><title>enemyRadar[Left45ø]&#45;&gt;Shoot</title>
<path fill="none" stroke="green" stroke-width="0.500499" stroke-dasharray="1,5" d="M2099.54,-389.445C2060.08,-358.86 1915.73,-249.444 1784,-180.894 1685.36,-129.564 1656.72,-124.21 1551,-89.7401 1481.45,-67.0649 1398.31,-46.7239 1351.9,-35.9568"/>
<polygon fill="green" stroke="green" stroke-width="0.500499" points="1352.55,-32.5151 1342.02,-33.6813 1350.98,-39.3366 1352.55,-32.5151"/>
</g>
<!-- enemyRadar[Left45ø]&#45;&gt;Move Forward/Backward -->
<g id="edge20" class="edge"><title>enemyRadar[Left45ø]&#45;&gt;Move Forward/Backward</title>
<path fill="none" stroke="red" stroke-width="0.370858" stroke-dasharray="1,5" d="M2094.92,-389.382C2083.66,-383.53 2067.73,-375.882 2053,-371.044 1975.9,-345.719 1953.09,-353.215 1874,-335.044 1802.96,-318.722 1722.91,-297.842 1664.29,-282.087"/>
<polygon fill="red" stroke="red" stroke-width="0.370858" points="1664.91,-278.628 1654.34,-279.407 1663.08,-285.387 1664.91,-278.628"/>
</g>
<!-- enemyRadar[Left45ø]&#45;&gt; Move Left/Right -->
<g id="edge31" class="edge"><title>enemyRadar[Left45ø]&#45;&gt; Move Left/Right</title>
<path fill="none" stroke="red" stroke-width="1.10079" stroke-dasharray="1,5" d="M2096.48,-389.559C2085.26,-383.304 2068.66,-375.046 2053,-371.044 1811.8,-309.377 1739.89,-374.002 1494,-335.044 1411.2,-321.925 1317.87,-296.282 1258.07,-278.412"/>
<polygon fill="red" stroke="red" stroke-width="1.10079" points="1258.99,-275.033 1248.4,-275.504 1256.97,-281.736 1258.99,-275.033"/>
</g>
<!-- enemyRadar[RightFront20ø] -->
<g id="node13" class="node"><title>enemyRadar[RightFront20ø]</title>
<polygon fill="lightgray" stroke="black" points="2311.5,-266.969 2192.5,-266.969 2192.5,-248.969 2311.5,-248.969 2311.5,-266.969"/>
<text text-anchor="middle" x="2252" y="-255.769" font-family="Times,serif" font-size="9.00">enemyRadar[RightFront20ø]</text>
</g>
<!-- enemyRadar[RightFront20ø]&#45;&gt;Shoot -->
<g id="edge5" class="edge"><title>enemyRadar[RightFront20ø]&#45;&gt;Shoot</title>
<path fill="none" stroke="green" stroke-width="0.279351" d="M2254.53,-248.863C2262.43,-221.798 2283.51,-133.775 2239,-89.7401 2175.11,-26.5307 1517.31,-26.5568 1353.02,-27.5612"/>
<polygon fill="green" stroke="green" stroke-width="0.279351" points="1352.91,-24.0618 1342.93,-27.6281 1352.95,-31.0617 1352.91,-24.0618"/>
</g>
<!-- 11101 -->
<g id="node33" class="node"><title>11101</title>
<ellipse fill="white" stroke="black" cx="2202" cy="-117.317" rx="27.6545" ry="27.6545"/>
<text text-anchor="middle" x="2202" y="-115.117" font-family="Times,serif" font-size="9.00">11101</text>
</g>
<!-- enemyRadar[RightFront20ø]&#45;&gt;11101 -->
<g id="edge38" class="edge"><title>enemyRadar[RightFront20ø]&#45;&gt;11101</title>
<path fill="none" stroke="red" stroke-width="0.122322" d="M2249.02,-248.711C2242.39,-230.325 2226.09,-185.116 2214.54,-153.104"/>
<polygon fill="red" stroke="red" stroke-width="0.122322" points="2217.82,-151.857 2211.13,-143.637 2211.23,-154.232 2217.82,-151.857"/>
</g>
<!-- enemyRadar[LeftFront20ø] -->
<g id="node14" class="node"><title>enemyRadar[LeftFront20ø]</title>
<polygon fill="lightgray" stroke="black" points="1363,-495.947 1249,-495.947 1249,-477.947 1363,-477.947 1363,-495.947"/>
<text text-anchor="middle" x="1306" y="-484.747" font-family="Times,serif" font-size="9.00">enemyRadar[LeftFront20ø]</text>
</g>
<!-- enemyRadar[RightFront15ø] -->
<g id="node15" class="node"><title>enemyRadar[RightFront15ø]</title>
<polygon fill="lightgray" stroke="black" points="1836.5,-407.621 1717.5,-407.621 1717.5,-389.621 1836.5,-389.621 1836.5,-407.621"/>
<text text-anchor="middle" x="1777" y="-396.421" font-family="Times,serif" font-size="9.00">enemyRadar[RightFront15ø]</text>
</g>
<!-- enemyRadar[RightFront15ø]&#45;&gt;Move Forward/Backward -->
<g id="edge24" class="edge"><title>enemyRadar[RightFront15ø]&#45;&gt;Move Forward/Backward</title>
<path fill="none" stroke="green" stroke-width="0.524849" stroke-dasharray="1,5" d="M1765.56,-389.567C1743.54,-374.07 1693.69,-338.989 1651.21,-309.085"/>
<polygon fill="green" stroke="green" stroke-width="0.524849" points="1653.01,-306.074 1642.82,-303.18 1648.98,-311.798 1653.01,-306.074"/>
</g>
<!-- enemyRadar[LeftFront15ø] -->
<g id="node16" class="node"><title>enemyRadar[LeftFront15ø]</title>
<polygon fill="lightgray" stroke="black" points="1495,-495.947 1381,-495.947 1381,-477.947 1495,-477.947 1495,-495.947"/>
<text text-anchor="middle" x="1438" y="-484.747" font-family="Times,serif" font-size="9.00">enemyRadar[LeftFront15ø]</text>
</g>
<!-- enemyRadar[RightFront7.5ø] -->
<g id="node17" class="node"><title>enemyRadar[RightFront7.5ø]</title>
<polygon fill="lightgray" stroke="black" points="2044,-407.621 1922,-407.621 1922,-389.621 2044,-389.621 2044,-407.621"/>
<text text-anchor="middle" x="1983" y="-396.421" font-family="Times,serif" font-size="9.00">enemyRadar[RightFront7.5ø]</text>
</g>
<!-- enemyRadar[RightFront7.5ø]&#45;&gt;Shoot -->
<g id="edge4" class="edge"><title>enemyRadar[RightFront7.5ø]&#45;&gt;Shoot</title>
<path fill="none" stroke="green" stroke-width="1.41804" stroke-dasharray="1,5" d="M1967.5,-389.463C1946.05,-378.011 1906.32,-356.193 1874,-335.044 1777.72,-272.037 1765.57,-238.564 1666,-180.894 1556.24,-117.321 1415.11,-63.3232 1350.76,-40.0801"/>
<polygon fill="green" stroke="green" stroke-width="1.41804" points="1351.71,-36.6998 1341.11,-36.6171 1349.34,-43.2886 1351.71,-36.6998"/>
</g>
<!-- enemyRadar[RightFront7.5ø]&#45;&gt; Move Left/Right -->
<g id="edge9" class="edge"><title>enemyRadar[RightFront7.5ø]&#45;&gt; Move Left/Right</title>
<path fill="none" stroke="green" stroke-width="0.142923" stroke-dasharray="1,5" d="M1965.87,-389.581C1951.95,-383.426 1931.63,-375.294 1913,-371.044 1730.77,-329.474 1678.28,-366.265 1494,-335.044 1411.34,-321.04 1317.98,-295.597 1258.14,-278.015"/>
<polygon fill="green" stroke="green" stroke-width="0.142923" points="1259.04,-274.634 1248.46,-275.155 1257.06,-281.346 1259.04,-274.634"/>
</g>
<!-- enemyRadar[LeftFront7.5ø] -->
<g id="node18" class="node"><title>enemyRadar[LeftFront7.5ø]</title>
<polygon fill="lightgray" stroke="black" points="1217,-407.621 1101,-407.621 1101,-389.621 1217,-389.621 1217,-407.621"/>
<text text-anchor="middle" x="1159" y="-396.421" font-family="Times,serif" font-size="9.00">enemyRadar[LeftFront7.5ø]</text>
</g>
<!-- enemyRadar[LeftFront7.5ø]&#45;&gt; Move Left/Right -->
<g id="edge14" class="edge"><title>enemyRadar[LeftFront7.5ø]&#45;&gt; Move Left/Right</title>
<path fill="none" stroke="red" stroke-width="0.426548" stroke-dasharray="1,5" d="M1161.2,-389.363C1164.81,-375.863 1172.27,-347.902 1179.36,-321.323"/>
<polygon fill="red" stroke="red" stroke-width="0.426548" points="1182.75,-322.187 1181.95,-311.622 1175.99,-320.382 1182.75,-322.187"/>
</g>
<!-- enemyRadar[RightFront2.5ø] -->
<g id="node19" class="node"><title>enemyRadar[RightFront2.5ø]</title>
<polygon fill="lightgray" stroke="black" points="867,-407.621 745,-407.621 745,-389.621 867,-389.621 867,-407.621"/>
<text text-anchor="middle" x="806" y="-396.421" font-family="Times,serif" font-size="9.00">enemyRadar[RightFront2.5ø]</text>
</g>
<!-- enemyRadar[RightFront2.5ø]&#45;&gt;Shoot -->
<g id="edge34" class="edge"><title>enemyRadar[RightFront2.5ø]&#45;&gt;Shoot</title>
<path fill="none" stroke="red" stroke-width="0.149711" stroke-dasharray="1,5" d="M807.1,-389.213C811.709,-357.33 832.327,-242.575 897,-180.894 1008.29,-74.7553 1199.05,-41.2036 1279.02,-31.4925"/>
<polygon fill="red" stroke="red" stroke-width="0.149711" points="1279.57,-34.9519 1289.1,-30.3243 1278.77,-27.9984 1279.57,-34.9519"/>
</g>
<!-- enemyRadar[RightFront2.5ø]&#45;&gt; Move Left/Right -->
<g id="edge21" class="edge"><title>enemyRadar[RightFront2.5ø]&#45;&gt; Move Left/Right</title>
<path fill="none" stroke="red" stroke-width="0.14974" stroke-dasharray="1,5" d="M828.654,-389.567C887.415,-368.677 1046.29,-312.195 1134.64,-280.785"/>
<polygon fill="red" stroke="red" stroke-width="0.14974" points="1136.02,-284.009 1144.27,-277.361 1133.67,-277.413 1136.02,-284.009"/>
</g>
<!-- 12244 -->
<g id="node31" class="node"><title>12244</title>
<ellipse fill="white" stroke="black" cx="1196" cy="-117.317" rx="27.6545" ry="27.6545"/>
<text text-anchor="middle" x="1196" y="-115.117" font-family="Times,serif" font-size="9.00">12244</text>
</g>
<!-- enemyRadar[RightFront2.5ø]&#45;&gt;12244 -->
<g id="edge44" class="edge"><title>enemyRadar[RightFront2.5ø]&#45;&gt;12244</title>
<path fill="none" stroke="green" stroke-width="0.280441" d="M817.251,-389.563C869.007,-352.498 1085.1,-197.742 1165.6,-140.088"/>
<polygon fill="green" stroke="green" stroke-width="0.280441" points="1167.75,-142.851 1173.85,-134.183 1163.68,-137.16 1167.75,-142.851"/>
</g>
<!-- enemyRadar[LeftFront2.5ø] -->
<g id="node20" class="node"><title>enemyRadar[LeftFront2.5ø]</title>
<polygon fill="lightgray" stroke="black" points="1611,-407.621 1495,-407.621 1495,-389.621 1611,-389.621 1611,-407.621"/>
<text text-anchor="middle" x="1553" y="-396.421" font-family="Times,serif" font-size="9.00">enemyRadar[LeftFront2.5ø]</text>
</g>
<!-- enemyRadar[LeftFront2.5ø]&#45;&gt;Move Forward/Backward -->
<g id="edge28" class="edge"><title>enemyRadar[LeftFront2.5ø]&#45;&gt;Move Forward/Backward</title>
<path fill="none" stroke="green" stroke-width="0.267545" stroke-dasharray="1,5" d="M1554.61,-389.363C1556.49,-379.682 1559.83,-362.565 1563.47,-343.853"/>
<polygon fill="green" stroke="green" stroke-width="0.267545" points="1566.92,-344.439 1565.4,-333.954 1560.05,-343.101 1566.92,-344.439"/>
</g>
<!-- enemyRadar[LeftFront2.5ø]&#45;&gt; Move Left/Right -->
<g id="edge10" class="edge"><title>enemyRadar[LeftFront2.5ø]&#45;&gt; Move Left/Right</title>
<path fill="none" stroke="green" stroke-width="0.248131" stroke-dasharray="1,5" d="M1532.47,-389.582C1518.98,-384.303 1500.95,-377.252 1485,-371.044 1406.14,-340.344 1315.12,-305.073 1256.63,-282.43"/>
<polygon fill="green" stroke="green" stroke-width="0.248131" points="1257.77,-279.115 1247.18,-278.768 1255.24,-285.642 1257.77,-279.115"/>
</g>
<!-- enemyRadar[Front7Ø] -->
<g id="node21" class="node"><title>enemyRadar[Front7Ø]</title>
<polygon fill="lightgray" stroke="black" points="2384,-126.317 2286,-126.317 2286,-108.317 2384,-108.317 2384,-126.317"/>
<text text-anchor="middle" x="2335" y="-115.117" font-family="Times,serif" font-size="9.00">enemyRadar[Front7Ø]</text>
</g>
<!-- enemyRadar[Front7Ø]&#45;&gt;Shoot -->
<g id="edge32" class="edge"><title>enemyRadar[Front7Ø]&#45;&gt;Shoot</title>
<path fill="none" stroke="green" stroke-width="0.350155" stroke-dasharray="1,5" d="M2319.95,-108.274C2307.48,-102.03 2289.1,-93.7782 2272,-89.7401 2092.59,-47.3687 1507.04,-31.9862 1353.27,-28.6233"/>
<polygon fill="green" stroke="green" stroke-width="0.350155" points="1353.02,-25.1174 1342.95,-28.4017 1352.87,-32.1157 1353.02,-25.1174"/>
</g>
<!-- OnTarget -->
<g id="node22" class="node"><title>OnTarget</title>
<polygon fill="lightgray" stroke="black" points="1123,-495.947 1073,-495.947 1073,-477.947 1123,-477.947 1123,-495.947"/>
<text text-anchor="middle" x="1098" y="-484.747" font-family="Times,serif" font-size="9.00">OnTarget</text>
</g>
<!-- OnTarget&#45;&gt;Shoot -->
<g id="edge26" class="edge"><title>OnTarget&#45;&gt;Shoot</title>
<path fill="none" stroke="green" stroke-width="2.25429" d="M1106.45,-477.939C1112.9,-472.389 1122.3,-465.436 1132,-462.198 1186.57,-443.977 2127.03,-467.582 2167,-426.198 2230.19,-360.775 2101.96,-277.803 1919,-180.894 1805.21,-120.626 1768.65,-122.002 1644,-89.7401 1539.53,-62.7011 1413.48,-42.2606 1352.53,-33.127"/>
<polygon fill="green" stroke="green" stroke-width="2.25429" points="1353.03,-29.6627 1342.62,-31.6563 1352,-36.5868 1353.03,-29.6627"/>
</g>
<!-- OnTarget&#45;&gt; Move Left/Right -->
<g id="edge30" class="edge"><title>OnTarget&#45;&gt; Move Left/Right</title>
<path fill="none" stroke="red" stroke-width="0.497422" d="M1108.29,-477.764C1114.83,-472.827 1123.6,-466.652 1132,-462.198 1171.52,-441.233 1200.65,-463.057 1226,-426.198 1248,-394.21 1239.45,-350.907 1225.94,-316.381"/>
<polygon fill="red" stroke="red" stroke-width="0.497422" points="1229.08,-314.799 1222.02,-306.893 1222.61,-317.471 1229.08,-314.799"/>
</g>
<!-- OnTarget&#45;&gt;Turn left/right -->
<g id="edge7" class="edge"><title>OnTarget&#45;&gt;Turn left/right</title>
<path fill="none" stroke="red" stroke-width="3.67484" d="M1072.95,-486.421C974.703,-487.823 616.606,-488.493 526,-426.198 488.061,-400.114 466.103,-351.843 454.045,-313.843"/>
<polygon fill="red" stroke="red" stroke-width="3.67484" points="457.291,-312.483 451.046,-303.925 450.591,-314.51 457.291,-312.483"/>
</g>
<!-- 11775 -->
<g id="node34" class="node"><title>11775</title>
<ellipse fill="white" stroke="black" cx="951" cy="-398.621" rx="27.6545" ry="27.6545"/>
<text text-anchor="middle" x="951" y="-396.421" font-family="Times,serif" font-size="9.00">11775</text>
</g>
<!-- OnTarget&#45;&gt;11775 -->
<g id="edge41" class="edge"><title>OnTarget&#45;&gt;11775</title>
<path fill="none" stroke="red" stroke-width="0.299873" d="M1081.61,-477.857C1059.79,-466.908 1020.22,-446.408 988,-426.198 985.772,-424.801 983.499,-423.318 981.23,-421.795"/>
<polygon fill="red" stroke="red" stroke-width="0.299873" points="982.816,-418.637 972.601,-415.824 978.832,-424.393 982.816,-418.637"/>
</g>
<!-- bias -->
<g id="node23" class="node"><title>bias</title>
<polygon fill="lightgray" stroke="black" points="1544.5,-495.947 1513.5,-495.947 1513.5,-477.947 1544.5,-477.947 1544.5,-495.947"/>
<text text-anchor="middle" x="1529" y="-484.747" font-family="Times,serif" font-size="9.00">bias</text>
</g>
<!--  Move Left/Right&#45;&gt;12244 -->
<g id="edge48" class="edge"><title> Move Left/Right&#45;&gt;12244</title>
<path fill="none" stroke="green" stroke-width="0.247766" d="M1196,-202.568C1196,-186.695 1196,-169.727 1196,-155.208"/>
<polygon fill="green" stroke="green" stroke-width="0.247766" points="1199.5,-155.12 1196,-145.12 1192.5,-155.12 1199.5,-155.12"/>
</g>
<!-- 9444 -->
<g id="node28" class="node"><title>9444</title>
<ellipse fill="white" stroke="black" cx="1879" cy="-398.621" rx="25" ry="25"/>
<text text-anchor="middle" x="1879" y="-396.421" font-family="Times,serif" font-size="9.00">9444</text>
</g>
<!-- 9444&#45;&gt;Move Forward/Backward -->
<g id="edge40" class="edge"><title>9444&#45;&gt;Move Forward/Backward</title>
<path fill="none" stroke="green" stroke-width="1.04595" d="M1860.57,-381.795C1855.69,-378.005 1850.3,-374.159 1845,-371.044 1786.72,-336.754 1715.97,-307.39 1662.24,-287.331"/>
<polygon fill="green" stroke="green" stroke-width="1.04595" points="1663.35,-284.008 1652.76,-283.819 1660.92,-290.573 1663.35,-284.008"/>
</g>
<!-- 12298&#45;&gt;Turn left/right -->
<g id="edge47" class="edge"><title>12298&#45;&gt;Turn left/right</title>
<path fill="none" stroke="green" stroke-width="0.318185" d="M418.267,-371.542C421.56,-355.234 425.926,-333.612 429.952,-313.678"/>
<polygon fill="green" stroke="green" stroke-width="0.318185" points="433.407,-314.248 431.956,-303.754 426.546,-312.863 433.407,-314.248"/>
</g>
<!-- 9195 -->
<g id="node30" class="node"><title>9195</title>
<ellipse fill="white" stroke="black" cx="1587" cy="-486.947" rx="25" ry="25"/>
<text text-anchor="middle" x="1587" y="-484.747" font-family="Times,serif" font-size="9.00">9195</text>
</g>
<!-- 12244&#45;&gt;Shoot -->
<g id="edge45" class="edge"><title>12244&#45;&gt;Shoot</title>
<path fill="none" stroke="green" stroke-width="0.107776" d="M1217.73,-100.3C1237.05,-86.0611 1265.45,-65.1264 1286.76,-49.4211"/>
<polygon fill="green" stroke="green" stroke-width="0.107776" points="1288.86,-52.2217 1294.83,-43.4711 1284.71,-46.5869 1288.86,-52.2217"/>
</g>
<!-- 12119 -->
<g id="node32" class="node"><title>12119</title>
<ellipse fill="white" stroke="black" cx="217" cy="-398.621" rx="27.6545" ry="27.6545"/>
<text text-anchor="middle" x="217" y="-396.421" font-family="Times,serif" font-size="9.00">12119</text>
</g>
<!-- 12119&#45;&gt;Turn left/right -->
<g id="edge43" class="edge"><title>12119&#45;&gt;Turn left/right</title>
<path fill="none" stroke="red" stroke-width="0.162147" d="M238.703,-381.576C243.675,-378.028 248.977,-374.345 254,-371.044 299.828,-340.926 353.68,-309.001 391.794,-286.961"/>
<polygon fill="red" stroke="red" stroke-width="0.162147" points="393.731,-289.884 400.645,-281.857 390.234,-283.82 393.731,-289.884"/>
</g>
<!-- 11101&#45;&gt;Shoot -->
<g id="edge39" class="edge"><title>11101&#45;&gt;Shoot</title>
<path fill="none" stroke="green" stroke-width="0.285632" d="M2180.36,-99.7988C2174.1,-95.8274 2167.05,-92.0652 2160,-89.7401 2006.87,-39.2184 1495.82,-29.8482 1353.23,-28.2034"/>
<polygon fill="green" stroke="green" stroke-width="0.285632" points="1353.26,-24.7037 1343.23,-28.0939 1353.19,-31.7033 1353.26,-24.7037"/>
</g>
<!-- 11775&#45;&gt; Move Left/Right -->
<g id="edge42" class="edge"><title>11775&#45;&gt; Move Left/Right</title>
<path fill="none" stroke="red" stroke-width="0.769815" d="M972.593,-381.405C977.571,-377.866 982.903,-374.229 988,-371.044 1037.1,-340.361 1095.28,-309.443 1137.61,-287.877"/>
<polygon fill="red" stroke="red" stroke-width="0.769815" points="1139.33,-290.93 1146.66,-283.284 1136.16,-284.687 1139.33,-290.93"/>
</g>
</g>
</svg>
