<?xml version="1.0" encoding="UTF-8" standalone="no"?>
<!DOCTYPE svg PUBLIC "-//W3C//DTD SVG 1.1//EN"
 "http://www.w3.org/Graphics/SVG/1.1/DTD/svg11.dtd">
<!-- Generated by graphviz version 2.38.0 (20140413.2041)
 -->
<!-- Title: %3 Pages: 1 -->
<svg width="2078pt" height="520pt"
 viewBox="0.00 0.00 2078.48 519.70" xmlns="http://www.w3.org/2000/svg" xmlns:xlink="http://www.w3.org/1999/xlink">
<g id="graph0" class="graph" transform="scale(1 1) rotate(0) translate(4 515.696)">
<title>%3</title>
<polygon fill="white" stroke="none" points="-4,4 -4,-515.696 2074.48,-515.696 2074.48,4 -4,4"/>
<!-- wallRadar[1,0] -->
<g id="node1" class="node"><title>wallRadar[1,0]</title>
<polygon fill="lightgray" stroke="black" points="657.481,-407.621 587.481,-407.621 587.481,-389.621 657.481,-389.621 657.481,-407.621"/>
<text text-anchor="middle" x="622.481" y="-396.421" font-family="Times,serif" font-size="9.00">wallRadar[1,0]</text>
</g>
<!--  Move Left/Right -->
<g id="node26" class="node"><title> Move Left/Right</title>
<ellipse fill="lightblue" stroke="black" cx="1564.48" cy="-166.815" rx="55.3091" ry="55.3091"/>
<text text-anchor="middle" x="1564.48" y="-164.615" font-family="Times,serif" font-size="9.00"> Move Left/Right</text>
</g>
<!-- wallRadar[1,0]&#45;&gt; Move Left/Right -->
<g id="edge15" class="edge"><title>wallRadar[1,0]&#45;&gt; Move Left/Right</title>
<path fill="none" stroke="green" stroke-width="0.858974" stroke-dasharray="1,5" d="M657.689,-396.778C832.303,-392.429 1598.38,-371.327 1632.48,-335.044 1663.81,-301.711 1637.31,-252.025 1608.74,-215.47"/>
<polygon fill="green" stroke="green" stroke-width="0.858974" points="1611.25,-213.003 1602.24,-207.414 1605.8,-217.396 1611.25,-213.003"/>
</g>
<!-- 3674 -->
<g id="node34" class="node"><title>3674</title>
<ellipse fill="white" stroke="black" cx="413.481" cy="-307.467" rx="25" ry="25"/>
<text text-anchor="middle" x="413.481" y="-305.267" font-family="Times,serif" font-size="9.00">3674</text>
</g>
<!-- wallRadar[1,0]&#45;&gt;3674 -->
<g id="edge46" class="edge"><title>wallRadar[1,0]&#45;&gt;3674</title>
<path fill="none" stroke="red" stroke-width="0.455122" d="M594.214,-389.556C559.735,-379.197 500.156,-359.588 452.481,-335.044 448.896,-333.198 445.248,-331.079 441.693,-328.861"/>
<polygon fill="red" stroke="red" stroke-width="0.455122" points="443.419,-325.807 433.14,-323.241 439.575,-331.658 443.419,-325.807"/>
</g>
<!-- wallRadar[0,1] -->
<g id="node2" class="node"><title>wallRadar[0,1]</title>
<polygon fill="lightgray" stroke="black" points="294.481,-407.621 224.481,-407.621 224.481,-389.621 294.481,-389.621 294.481,-407.621"/>
<text text-anchor="middle" x="259.481" y="-396.421" font-family="Times,serif" font-size="9.00">wallRadar[0,1]</text>
</g>
<!-- Turn left/right -->
<g id="node27" class="node"><title>Turn left/right</title>
<ellipse fill="lightblue" stroke="black" cx="386.481" cy="-166.815" rx="46.8387" ry="46.8387"/>
<text text-anchor="middle" x="386.481" y="-164.615" font-family="Times,serif" font-size="9.00">Turn left/right</text>
</g>
<!-- wallRadar[0,1]&#45;&gt;Turn left/right -->
<g id="edge17" class="edge"><title>wallRadar[0,1]&#45;&gt;Turn left/right</title>
<path fill="none" stroke="green" stroke-width="0.16844" stroke-dasharray="1,5" d="M262.234,-389.351C268.908,-369.738 286.994,-319.11 308.481,-279.889 321.189,-256.695 337.634,-232.432 352.146,-212.437"/>
<polygon fill="green" stroke="green" stroke-width="0.16844" points="355.136,-214.277 358.23,-204.144 349.492,-210.136 355.136,-214.277"/>
</g>
<!-- 10417 -->
<g id="node31" class="node"><title>10417</title>
<ellipse fill="white" stroke="black" cx="228.481" cy="-307.467" rx="27.6545" ry="27.6545"/>
<text text-anchor="middle" x="228.481" y="-305.267" font-family="Times,serif" font-size="9.00">10417</text>
</g>
<!-- wallRadar[0,1]&#45;&gt;10417 -->
<g id="edge49" class="edge"><title>wallRadar[0,1]&#45;&gt;10417</title>
<path fill="none" stroke="red" stroke-width="0.218957" d="M256.621,-389.393C252.987,-378.943 246.486,-360.246 240.647,-343.455"/>
<polygon fill="red" stroke="red" stroke-width="0.218957" points="243.903,-342.161 237.313,-333.865 237.291,-344.46 243.903,-342.161"/>
</g>
<!-- 6429 -->
<g id="node36" class="node"><title>6429</title>
<ellipse fill="white" stroke="black" cx="1041.48" cy="-166.815" rx="25" ry="25"/>
<text text-anchor="middle" x="1041.48" y="-164.615" font-family="Times,serif" font-size="9.00">6429</text>
</g>
<!-- wallRadar[0,1]&#45;&gt;6429 -->
<g id="edge53" class="edge"><title>wallRadar[0,1]&#45;&gt;6429</title>
<path fill="none" stroke="red" stroke-width="0.121177" d="M282.068,-389.515C300.692,-383.235 327.94,-374.965 352.481,-371.044 403.758,-362.851 1250.48,-372.462 1286.48,-335.044 1359.75,-258.898 1158.16,-197.382 1075.26,-175.963"/>
<polygon fill="red" stroke="red" stroke-width="0.121177" points="1076.09,-172.563 1065.54,-173.494 1074.37,-179.348 1076.09,-172.563"/>
</g>
<!-- wallRadar[&#45;1,0] -->
<g id="node3" class="node"><title>wallRadar[&#45;1,0]</title>
<polygon fill="lightgray" stroke="black" points="567.981,-316.467 494.981,-316.467 494.981,-298.467 567.981,-298.467 567.981,-316.467"/>
<text text-anchor="middle" x="531.481" y="-305.267" font-family="Times,serif" font-size="9.00">wallRadar[&#45;1,0]</text>
</g>
<!-- Shoot -->
<g id="node24" class="node"><title>Shoot</title>
<ellipse fill="lightblue" stroke="black" cx="781.481" cy="-26.8701" rx="26.7407" ry="26.7407"/>
<text text-anchor="middle" x="781.481" y="-24.6701" font-family="Times,serif" font-size="9.00">Shoot</text>
</g>
<!-- wallRadar[&#45;1,0]&#45;&gt;Shoot -->
<g id="edge27" class="edge"><title>wallRadar[&#45;1,0]&#45;&gt;Shoot</title>
<path fill="none" stroke="red" stroke-width="0.239714" d="M529.225,-298.164C521.205,-266.661 497.303,-153.098 550.481,-89.7401 575.346,-60.1157 686.373,-40.8409 744.977,-32.5423"/>
<polygon fill="red" stroke="red" stroke-width="0.239714" points="745.509,-36.0021 754.936,-31.1664 744.551,-29.068 745.509,-36.0021"/>
</g>
<!-- wallRadar[&#45;1,0]&#45;&gt;Turn left/right -->
<g id="edge28" class="edge"><title>wallRadar[&#45;1,0]&#45;&gt;Turn left/right</title>
<path fill="none" stroke="red" stroke-width="0.784671" stroke-dasharray="1,5" d="M522.845,-298.208C504.424,-280.593 460.255,-238.358 427.143,-206.696"/>
<polygon fill="red" stroke="red" stroke-width="0.784671" points="429.482,-204.09 419.836,-199.709 424.644,-209.149 429.482,-204.09"/>
</g>
<!-- wallRadar[0,&#45;1] -->
<g id="node4" class="node"><title>wallRadar[0,&#45;1]</title>
<polygon fill="lightgray" stroke="black" points="658.981,-316.467 585.981,-316.467 585.981,-298.467 658.981,-298.467 658.981,-316.467"/>
<text text-anchor="middle" x="622.481" y="-305.267" font-family="Times,serif" font-size="9.00">wallRadar[0,&#45;1]</text>
</g>
<!-- Move Forward/Backward -->
<g id="node25" class="node"><title>Move Forward/Backward</title>
<ellipse fill="lightblue" stroke="black" cx="636.481" cy="-166.815" rx="77.1494" ry="77.1494"/>
<text text-anchor="middle" x="636.481" y="-164.615" font-family="Times,serif" font-size="9.00">Move Forward/Backward</text>
</g>
<!-- wallRadar[0,&#45;1]&#45;&gt;Move Forward/Backward -->
<g id="edge8" class="edge"><title>wallRadar[0,&#45;1]&#45;&gt;Move Forward/Backward</title>
<path fill="none" stroke="green" stroke-width="1.16669" stroke-dasharray="1,5" d="M623.315,-298.208C624.273,-288.72 625.953,-272.089 627.798,-253.814"/>
<polygon fill="green" stroke="green" stroke-width="1.16669" points="631.283,-254.135 628.806,-243.834 624.319,-253.432 631.283,-254.135"/>
</g>
<!-- wallRadar[0.7,0.7] -->
<g id="node5" class="node"><title>wallRadar[0.7,0.7]</title>
<polygon fill="lightgray" stroke="black" points="759.981,-316.467 676.981,-316.467 676.981,-298.467 759.981,-298.467 759.981,-316.467"/>
<text text-anchor="middle" x="718.481" y="-305.267" font-family="Times,serif" font-size="9.00">wallRadar[0.7,0.7]</text>
</g>
<!-- wallRadar[0.7,0.7]&#45;&gt;Move Forward/Backward -->
<g id="edge10" class="edge"><title>wallRadar[0.7,0.7]&#45;&gt;Move Forward/Backward</title>
<path fill="none" stroke="red" stroke-width="0.832597" stroke-dasharray="1,5" d="M713.598,-298.208C706.81,-286.732 693.843,-264.806 680.451,-242.161"/>
<polygon fill="red" stroke="red" stroke-width="0.832597" points="683.412,-240.293 675.309,-233.467 677.387,-243.856 683.412,-240.293"/>
</g>
<!-- wallRadar[&#45;0.7,0.7] -->
<g id="node6" class="node"><title>wallRadar[&#45;0.7,0.7]</title>
<polygon fill="lightgray" stroke="black" points="1140.48,-316.467 1054.48,-316.467 1054.48,-298.467 1140.48,-298.467 1140.48,-316.467"/>
<text text-anchor="middle" x="1097.48" y="-305.267" font-family="Times,serif" font-size="9.00">wallRadar[&#45;0.7,0.7]</text>
</g>
<!-- wallRadar[&#45;0.7,0.7]&#45;&gt;Move Forward/Backward -->
<g id="edge5" class="edge"><title>wallRadar[&#45;0.7,0.7]&#45;&gt;Move Forward/Backward</title>
<path fill="none" stroke="green" stroke-width="0.985756" d="M1084.78,-298.321C1074.58,-292.193 1059.66,-284.147 1045.48,-279.889 907.141,-238.344 854.512,-302.474 722.481,-243.889 713.827,-240.049 705.423,-235.015 697.475,-229.362"/>
<polygon fill="green" stroke="green" stroke-width="0.985756" points="699.463,-226.478 689.366,-223.271 695.259,-232.075 699.463,-226.478"/>
</g>
<!-- wallRadar[&#45;0.7,0.7]&#45;&gt; Move Left/Right -->
<g id="edge12" class="edge"><title>wallRadar[&#45;0.7,0.7]&#45;&gt; Move Left/Right</title>
<path fill="none" stroke="red" stroke-width="0.44976" d="M1111.24,-298.432C1121.52,-292.681 1136.05,-285.07 1149.48,-279.889 1270.13,-233.354 1417.58,-198.469 1500.28,-180.783"/>
<polygon fill="red" stroke="red" stroke-width="0.44976" points="1501.22,-184.16 1510.28,-178.66 1499.77,-177.312 1501.22,-184.16"/>
</g>
<!-- wallRadar[&#45;0.7,0.7]&#45;&gt;6429 -->
<g id="edge38" class="edge"><title>wallRadar[&#45;0.7,0.7]&#45;&gt;6429</title>
<path fill="none" stroke="green" stroke-width="0.114704" stroke-dasharray="1,5" d="M1094.15,-298.208C1086.46,-279.188 1067.19,-231.464 1054.21,-199.339"/>
<polygon fill="green" stroke="green" stroke-width="0.114704" points="1057.4,-197.88 1050.41,-189.919 1050.91,-200.502 1057.4,-197.88"/>
</g>
<!-- wallRadar[&#45;0.7,&#45;0.7] -->
<g id="node7" class="node"><title>wallRadar[&#45;0.7,&#45;0.7]</title>
<polygon fill="lightgray" stroke="black" points="1807.98,-316.467 1718.98,-316.467 1718.98,-298.467 1807.98,-298.467 1807.98,-316.467"/>
<text text-anchor="middle" x="1763.48" y="-305.267" font-family="Times,serif" font-size="9.00">wallRadar[&#45;0.7,&#45;0.7]</text>
</g>
<!-- wallRadar[&#45;0.7,&#45;0.7]&#45;&gt; Move Left/Right -->
<g id="edge6" class="edge"><title>wallRadar[&#45;0.7,&#45;0.7]&#45;&gt; Move Left/Right</title>
<path fill="none" stroke="red" stroke-width="0.157849" d="M1751.92,-298.413C1726.39,-280.621 1663.8,-237.012 1617.94,-205.063"/>
<polygon fill="red" stroke="red" stroke-width="0.157849" points="1619.79,-202.087 1609.59,-199.242 1615.79,-207.831 1619.79,-202.087"/>
</g>
<!-- wallRadar[0.7,&#45;0.7] -->
<g id="node8" class="node"><title>wallRadar[0.7,&#45;0.7]</title>
<polygon fill="lightgray" stroke="black" points="902.481,-316.467 816.481,-316.467 816.481,-298.467 902.481,-298.467 902.481,-316.467"/>
<text text-anchor="middle" x="859.481" y="-305.267" font-family="Times,serif" font-size="9.00">wallRadar[0.7,&#45;0.7]</text>
</g>
<!-- wallRadar[0.7,&#45;0.7]&#45;&gt;Shoot -->
<g id="edge18" class="edge"><title>wallRadar[0.7,&#45;0.7]&#45;&gt;Shoot</title>
<path fill="none" stroke="green" stroke-width="0.170138" stroke-dasharray="1,5" d="M860.572,-298.116C864.098,-268.248 873.109,-164.523 839.481,-89.7401 832.809,-74.9022 821.091,-61.3463 809.926,-50.7302"/>
<polygon fill="green" stroke="green" stroke-width="0.170138" points="812.114,-47.9903 802.353,-43.8707 807.415,-53.1782 812.114,-47.9903"/>
</g>
<!-- wallRadar[0.7,&#45;0.7]&#45;&gt;Move Forward/Backward -->
<g id="edge25" class="edge"><title>wallRadar[0.7,&#45;0.7]&#45;&gt;Move Forward/Backward</title>
<path fill="none" stroke="green" stroke-width="0.635629" stroke-dasharray="1,5" d="M842.298,-298.381C831.001,-293.084 815.882,-286.028 802.481,-279.889 767.034,-263.651 755.232,-265.046 722.481,-243.889 714.858,-238.965 707.225,-233.385 699.829,-227.54"/>
<polygon fill="green" stroke="green" stroke-width="0.635629" points="701.877,-224.694 691.907,-221.111 697.466,-230.13 701.877,-224.694"/>
</g>
<!-- wallRadar[0.7,&#45;0.7]&#45;&gt;Turn left/right -->
<g id="edge4" class="edge"><title>wallRadar[0.7,&#45;0.7]&#45;&gt;Turn left/right</title>
<path fill="none" stroke="green" stroke-width="0.690091" stroke-dasharray="1,5" d="M834.973,-298.437C816.776,-292.688 791.269,-285.079 768.481,-279.889 672.732,-258.085 644.326,-272.815 550.481,-243.889 510.625,-231.604 467.957,-211.575 436.136,-195.152"/>
<polygon fill="green" stroke="green" stroke-width="0.690091" points="437.527,-191.93 427.043,-190.405 434.288,-198.136 437.527,-191.93"/>
</g>
<!-- wallRadar[0.7,&#45;0.7]&#45;&gt;6429 -->
<g id="edge44" class="edge"><title>wallRadar[0.7,&#45;0.7]&#45;&gt;6429</title>
<path fill="none" stroke="red" stroke-width="0.308872" d="M872.44,-298.415C890.713,-286.914 924.9,-264.847 952.481,-243.889 974.657,-227.039 998.59,-206.434 1016.05,-190.92"/>
<polygon fill="red" stroke="red" stroke-width="0.308872" points="1018.46,-193.457 1023.58,-184.182 1013.79,-188.239 1018.46,-193.457"/>
</g>
<!-- 10297 -->
<g id="node37" class="node"><title>10297</title>
<ellipse fill="white" stroke="black" cx="915.481" cy="-166.815" rx="27.6545" ry="27.6545"/>
<text text-anchor="middle" x="915.481" y="-164.615" font-family="Times,serif" font-size="9.00">10297</text>
</g>
<!-- wallRadar[0.7,&#45;0.7]&#45;&gt;10297 -->
<g id="edge47" class="edge"><title>wallRadar[0.7,&#45;0.7]&#45;&gt;10297</title>
<path fill="none" stroke="red" stroke-width="0.257256" d="M862.817,-298.208C870.285,-279.717 888.712,-234.093 901.654,-202.051"/>
<polygon fill="red" stroke="red" stroke-width="0.257256" points="904.976,-203.171 905.476,-192.588 898.485,-200.549 904.976,-203.171"/>
</g>
<!-- enemyRadar[RightBack] -->
<g id="node9" class="node"><title>enemyRadar[RightBack]</title>
<polygon fill="lightgray" stroke="black" points="465.481,-407.621 361.481,-407.621 361.481,-389.621 465.481,-389.621 465.481,-407.621"/>
<text text-anchor="middle" x="413.481" y="-396.421" font-family="Times,serif" font-size="9.00">enemyRadar[RightBack]</text>
</g>
<!-- enemyRadar[RightBack]&#45;&gt; Move Left/Right -->
<g id="edge22" class="edge"><title>enemyRadar[RightBack]&#45;&gt; Move Left/Right</title>
<path fill="none" stroke="red" stroke-width="0.326961" d="M455.358,-389.564C488.608,-383.485 536.351,-375.462 578.481,-371.044 659.248,-362.574 1234.26,-368.012 1308.48,-335.044 1340.12,-320.99 1335.87,-300.777 1363.48,-279.889 1408.06,-246.159 1463.95,-215.821 1505.48,-195.242"/>
<polygon fill="red" stroke="red" stroke-width="0.326961" points="1507.21,-198.292 1514.64,-190.743 1504.12,-192.009 1507.21,-198.292"/>
</g>
<!-- enemyRadar[RightBack]&#45;&gt;Turn left/right -->
<g id="edge14" class="edge"><title>enemyRadar[RightBack]&#45;&gt;Turn left/right</title>
<path fill="none" stroke="green" stroke-width="0.454045" d="M407.166,-389.286C398.901,-377.803 384.841,-356.134 379.481,-335.044 370.174,-298.418 372.129,-255.849 376.306,-222.826"/>
<polygon fill="green" stroke="green" stroke-width="0.454045" points="379.776,-223.284 377.664,-212.902 372.841,-222.335 379.776,-223.284"/>
</g>
<!-- enemyRadar[RightBack]&#45;&gt;3674 -->
<g id="edge34" class="edge"><title>enemyRadar[RightBack]&#45;&gt;3674</title>
<path fill="none" stroke="red" stroke-width="0.811036" d="M413.481,-389.393C413.481,-378.755 413.481,-359.571 413.481,-342.551"/>
<polygon fill="red" stroke="red" stroke-width="0.811036" points="416.982,-342.329 413.481,-332.329 409.982,-342.329 416.982,-342.329"/>
</g>
<!-- enemyRadar[LeftBack] -->
<g id="node10" class="node"><title>enemyRadar[LeftBack]</title>
<polygon fill="lightgray" stroke="black" points="830.981,-175.815 731.981,-175.815 731.981,-157.815 830.981,-157.815 830.981,-175.815"/>
<text text-anchor="middle" x="781.481" y="-164.615" font-family="Times,serif" font-size="9.00">enemyRadar[LeftBack]</text>
</g>
<!-- enemyRadar[LeftBack]&#45;&gt;Shoot -->
<g id="edge30" class="edge"><title>enemyRadar[LeftBack]&#45;&gt;Shoot</title>
<path fill="none" stroke="red" stroke-width="0.31084" stroke-dasharray="1,5" d="M781.481,-157.599C781.481,-139.62 781.481,-95.8645 781.481,-64.131"/>
<polygon fill="red" stroke="red" stroke-width="0.31084" points="784.982,-63.8847 781.481,-53.8848 777.982,-63.8848 784.982,-63.8847"/>
</g>
<!-- enemyRadar[Right45ø] -->
<g id="node11" class="node"><title>enemyRadar[Right45ø]</title>
<polygon fill="lightgray" stroke="black" points="415.481,-495.947 315.481,-495.947 315.481,-477.947 415.481,-477.947 415.481,-495.947"/>
<text text-anchor="middle" x="365.481" y="-484.747" font-family="Times,serif" font-size="9.00">enemyRadar[Right45ø]</text>
</g>
<!-- enemyRadar[Left45ø] -->
<g id="node12" class="node"><title>enemyRadar[Left45ø]</title>
<polygon fill="lightgray" stroke="black" points="1920.98,-316.467 1825.98,-316.467 1825.98,-298.467 1920.98,-298.467 1920.98,-316.467"/>
<text text-anchor="middle" x="1873.48" y="-305.267" font-family="Times,serif" font-size="9.00">enemyRadar[Left45ø]</text>
</g>
<!-- enemyRadar[Left45ø]&#45;&gt;Shoot -->
<g id="edge13" class="edge"><title>enemyRadar[Left45ø]&#45;&gt;Shoot</title>
<path fill="none" stroke="red" stroke-width="0.477743" d="M1867.48,-298.152C1842.7,-264.575 1744.15,-138.449 1628.48,-89.7401 1479.18,-26.8663 962.085,-26.3453 818.639,-27.4584"/>
<polygon fill="red" stroke="red" stroke-width="0.477743" points="818.553,-23.9589 808.583,-27.5441 818.613,-30.9586 818.553,-23.9589"/>
</g>
<!-- enemyRadar[Left45ø]&#45;&gt; Move Left/Right -->
<g id="edge1" class="edge"><title>enemyRadar[Left45ø]&#45;&gt; Move Left/Right</title>
<path fill="none" stroke="red" stroke-width="0.805708" d="M1857.17,-298.45C1845.85,-292.99 1830.37,-285.723 1816.48,-279.889 1774.47,-262.248 1762.34,-261.896 1720.48,-243.889 1687.51,-229.707 1651.45,-212.253 1622.31,-197.643"/>
<polygon fill="red" stroke="red" stroke-width="0.805708" points="1623.62,-194.379 1613.11,-193.007 1620.47,-200.631 1623.62,-194.379"/>
</g>
<!-- 8377 -->
<g id="node33" class="node"><title>8377</title>
<ellipse fill="white" stroke="black" cx="1873.48" cy="-166.815" rx="25" ry="25"/>
<text text-anchor="middle" x="1873.48" y="-164.615" font-family="Times,serif" font-size="9.00">8377</text>
</g>
<!-- enemyRadar[Left45ø]&#45;&gt;8377 -->
<g id="edge41" class="edge"><title>enemyRadar[Left45ø]&#45;&gt;8377</title>
<path fill="none" stroke="green" stroke-width="0.485962" stroke-dasharray="1,5" d="M1873.48,-298.208C1873.48,-279.719 1873.48,-234.104 1873.48,-202.063"/>
<polygon fill="green" stroke="green" stroke-width="0.485962" points="1876.98,-201.776 1873.48,-191.776 1869.98,-201.776 1876.98,-201.776"/>
</g>
<!-- enemyRadar[RightFront20ø] -->
<g id="node13" class="node"><title>enemyRadar[RightFront20ø]</title>
<polygon fill="lightgray" stroke="black" points="1277.98,-316.467 1158.98,-316.467 1158.98,-298.467 1277.98,-298.467 1277.98,-316.467"/>
<text text-anchor="middle" x="1218.48" y="-305.267" font-family="Times,serif" font-size="9.00">enemyRadar[RightFront20ø]</text>
</g>
<!-- enemyRadar[RightFront20ø]&#45;&gt;Move Forward/Backward -->
<g id="edge16" class="edge"><title>enemyRadar[RightFront20ø]&#45;&gt;Move Forward/Backward</title>
<path fill="none" stroke="green" stroke-width="0.192215" d="M1201.61,-298.414C1187.89,-292.252 1167.87,-284.116 1149.48,-279.889 963.869,-237.234 897.588,-318.786 722.481,-243.889 713.776,-240.166 705.34,-235.205 697.374,-229.594"/>
<polygon fill="green" stroke="green" stroke-width="0.192215" points="699.359,-226.709 689.25,-223.536 695.174,-232.32 699.359,-226.709"/>
</g>
<!-- enemyRadar[RightFront20ø]&#45;&gt; Move Left/Right -->
<g id="edge40" class="edge"><title>enemyRadar[RightFront20ø]&#45;&gt; Move Left/Right</title>
<path fill="none" stroke="red" stroke-width="0.928726" d="M1238.58,-298.413C1289.44,-278.03 1424.86,-223.765 1504.22,-191.965"/>
<polygon fill="red" stroke="red" stroke-width="0.928726" points="1505.63,-195.17 1513.61,-188.202 1503.02,-188.673 1505.63,-195.17"/>
</g>
<!-- enemyRadar[LeftFront20ø] -->
<g id="node14" class="node"><title>enemyRadar[LeftFront20ø]</title>
<polygon fill="lightgray" stroke="black" points="1486.48,-316.467 1372.48,-316.467 1372.48,-298.467 1486.48,-298.467 1486.48,-316.467"/>
<text text-anchor="middle" x="1429.48" y="-305.267" font-family="Times,serif" font-size="9.00">enemyRadar[LeftFront20ø]</text>
</g>
<!-- enemyRadar[LeftFront20ø]&#45;&gt; Move Left/Right -->
<g id="edge9" class="edge"><title>enemyRadar[LeftFront20ø]&#45;&gt; Move Left/Right</title>
<path fill="none" stroke="red" stroke-width="0.455208" stroke-dasharray="1,5" d="M1437.52,-298.208C1453.34,-281.963 1489.55,-244.776 1519.26,-214.255"/>
<polygon fill="red" stroke="red" stroke-width="0.455208" points="1521.8,-216.664 1526.27,-207.057 1516.79,-211.781 1521.8,-216.664"/>
</g>
<!-- enemyRadar[RightFront15ø] -->
<g id="node15" class="node"><title>enemyRadar[RightFront15ø]</title>
<polygon fill="lightgray" stroke="black" points="1623.98,-316.467 1504.98,-316.467 1504.98,-298.467 1623.98,-298.467 1623.98,-316.467"/>
<text text-anchor="middle" x="1564.48" y="-305.267" font-family="Times,serif" font-size="9.00">enemyRadar[RightFront15ø]</text>
</g>
<!-- enemyRadar[RightFront15ø]&#45;&gt; Move Left/Right -->
<g id="edge19" class="edge"><title>enemyRadar[RightFront15ø]&#45;&gt; Move Left/Right</title>
<path fill="none" stroke="red" stroke-width="0.149502" stroke-dasharray="1,5" d="M1564.48,-298.208C1564.48,-285.084 1564.48,-258.293 1564.48,-232.391"/>
<polygon fill="red" stroke="red" stroke-width="0.149502" points="1567.98,-232.157 1564.48,-222.157 1560.98,-232.157 1567.98,-232.157"/>
</g>
<!-- enemyRadar[LeftFront15ø] -->
<g id="node16" class="node"><title>enemyRadar[LeftFront15ø]</title>
<polygon fill="lightgray" stroke="black" points="1847.48,-407.621 1733.48,-407.621 1733.48,-389.621 1847.48,-389.621 1847.48,-407.621"/>
<text text-anchor="middle" x="1790.48" y="-396.421" font-family="Times,serif" font-size="9.00">enemyRadar[LeftFront15ø]</text>
</g>
<!-- enemyRadar[LeftFront15ø]&#45;&gt;Turn left/right -->
<g id="edge23" class="edge"><title>enemyRadar[LeftFront15ø]&#45;&gt;Turn left/right</title>
<path fill="none" stroke="red" stroke-width="3.0097" d="M1733.25,-398.04C1495.5,-399.355 593.32,-399.993 485.481,-335.044 473.898,-328.067 437.999,-264.249 412.781,-217.516"/>
<polygon fill="red" stroke="red" stroke-width="3.0097" points="415.708,-215.57 407.89,-208.419 409.543,-218.884 415.708,-215.57"/>
</g>
<!-- 641 -->
<g id="node28" class="node"><title>641</title>
<ellipse fill="white" stroke="black" cx="1960.48" cy="-307.467" rx="21.4286" ry="21.4286"/>
<text text-anchor="middle" x="1960.48" y="-305.267" font-family="Times,serif" font-size="9.00">641</text>
</g>
<!-- enemyRadar[LeftFront15ø]&#45;&gt;641 -->
<g id="edge31" class="edge"><title>enemyRadar[LeftFront15ø]&#45;&gt;641</title>
<path fill="none" stroke="red" stroke-width="0.440042" stroke-dasharray="1,5" d="M1814.13,-389.574C1842.9,-379.231 1892.33,-359.64 1930.48,-335.044 1933,-333.418 1935.53,-331.585 1937.98,-329.662"/>
<polygon fill="red" stroke="red" stroke-width="0.440042" points="1940.56,-332.066 1945.94,-322.943 1936.04,-326.716 1940.56,-332.066"/>
</g>
<!-- enemyRadar[RightFront7.5ø] -->
<g id="node17" class="node"><title>enemyRadar[RightFront7.5ø]</title>
<polygon fill="lightgray" stroke="black" points="2070.48,-407.621 1948.48,-407.621 1948.48,-389.621 2070.48,-389.621 2070.48,-407.621"/>
<text text-anchor="middle" x="2009.48" y="-396.421" font-family="Times,serif" font-size="9.00">enemyRadar[RightFront7.5ø]</text>
</g>
<!-- enemyRadar[RightFront7.5ø]&#45;&gt;Shoot -->
<g id="edge20" class="edge"><title>enemyRadar[RightFront7.5ø]&#45;&gt;Shoot</title>
<path fill="none" stroke="red" stroke-width="0.415648" d="M2011.02,-389.485C2018.09,-349.189 2043.37,-169.735 1949.48,-89.7401 1905.42,-52.1965 1012.88,-32.4426 818.6,-28.5783"/>
<polygon fill="red" stroke="red" stroke-width="0.415648" points="818.407,-25.074 808.34,-28.3762 818.269,-32.0726 818.407,-25.074"/>
</g>
<!-- enemyRadar[RightFront7.5ø]&#45;&gt;641 -->
<g id="edge37" class="edge"><title>enemyRadar[RightFront7.5ø]&#45;&gt;641</title>
<path fill="none" stroke="green" stroke-width="0.577184" stroke-dasharray="1,5" d="M2004.96,-389.393C1998.27,-377.224 1985.44,-353.871 1975.27,-335.368"/>
<polygon fill="green" stroke="green" stroke-width="0.577184" points="1978.27,-333.559 1970.38,-326.481 1972.13,-336.931 1978.27,-333.559"/>
</g>
<!-- enemyRadar[LeftFront7.5ø] -->
<g id="node18" class="node"><title>enemyRadar[LeftFront7.5ø]</title>
<polygon fill="lightgray" stroke="black" points="1036.48,-316.467 920.481,-316.467 920.481,-298.467 1036.48,-298.467 1036.48,-316.467"/>
<text text-anchor="middle" x="978.481" y="-305.267" font-family="Times,serif" font-size="9.00">enemyRadar[LeftFront7.5ø]</text>
</g>
<!-- enemyRadar[LeftFront7.5ø]&#45;&gt; Move Left/Right -->
<g id="edge45" class="edge"><title>enemyRadar[LeftFront7.5ø]&#45;&gt; Move Left/Right</title>
<path fill="none" stroke="red" stroke-width="0.158827" d="M996.393,-298.424C1009.73,-292.67 1028.48,-285.058 1045.48,-279.889 1206.05,-231.072 1400.72,-195.007 1499.78,-178.246"/>
<polygon fill="red" stroke="red" stroke-width="0.158827" points="1500.65,-181.648 1509.94,-176.539 1499.49,-174.745 1500.65,-181.648"/>
</g>
<!-- enemyRadar[LeftFront7.5ø]&#45;&gt;Turn left/right -->
<g id="edge26" class="edge"><title>enemyRadar[LeftFront7.5ø]&#45;&gt;Turn left/right</title>
<path fill="none" stroke="red" stroke-width="4.41485" d="M961.834,-298.353C948.53,-292.243 929.234,-284.206 911.481,-279.889 754.806,-241.795 706.014,-286.409 550.481,-243.889 510.113,-232.853 467.305,-212.676 435.551,-195.873"/>
<polygon fill="red" stroke="red" stroke-width="4.41485" points="437.122,-192.332 426.484,-191.008 433.469,-199.14 437.122,-192.332"/>
</g>
<!-- enemyRadar[LeftFront7.5ø]&#45;&gt;6429 -->
<g id="edge39" class="edge"><title>enemyRadar[LeftFront7.5ø]&#45;&gt;6429</title>
<path fill="none" stroke="green" stroke-width="0.407354" stroke-dasharray="1,5" d="M982.234,-298.208C990.9,-279.136 1012.68,-231.198 1027.28,-199.071"/>
<polygon fill="green" stroke="green" stroke-width="0.407354" points="1030.61,-200.21 1031.56,-189.658 1024.23,-197.314 1030.61,-200.21"/>
</g>
<!-- enemyRadar[RightFront2.5ø] -->
<g id="node19" class="node"><title>enemyRadar[RightFront2.5ø]</title>
<polygon fill="lightgray" stroke="black" points="555.481,-495.947 433.481,-495.947 433.481,-477.947 555.481,-477.947 555.481,-495.947"/>
<text text-anchor="middle" x="494.481" y="-484.747" font-family="Times,serif" font-size="9.00">enemyRadar[RightFront2.5ø]</text>
</g>
<!-- enemyRadar[LeftFront2.5ø] -->
<g id="node20" class="node"><title>enemyRadar[LeftFront2.5ø]</title>
<polygon fill="lightgray" stroke="black" points="297.481,-495.947 181.481,-495.947 181.481,-477.947 297.481,-477.947 297.481,-495.947"/>
<text text-anchor="middle" x="239.481" y="-484.747" font-family="Times,serif" font-size="9.00">enemyRadar[LeftFront2.5ø]</text>
</g>
<!-- enemyRadar[LeftFront2.5ø]&#45;&gt;Shoot -->
<g id="edge21" class="edge"><title>enemyRadar[LeftFront2.5ø]&#45;&gt;Shoot</title>
<path fill="none" stroke="red" stroke-width="0.915371" stroke-dasharray="1,5" d="M195.886,-477.945C159.986,-469.678 109.2,-453.965 72.4815,-426.198 32.7936,-396.186 22.6475,-382.434 7.48146,-335.044 -16.6918,-259.508 25.4205,-110.795 49.4815,-89.7401 102.098,-43.6971 601.676,-31.1371 743.882,-28.4816"/>
<polygon fill="red" stroke="red" stroke-width="0.915371" points="744.32,-31.9744 754.255,-28.2938 744.193,-24.9755 744.32,-31.9744"/>
</g>
<!-- enemyRadar[LeftFront2.5ø]&#45;&gt;Move Forward/Backward -->
<g id="edge29" class="edge"><title>enemyRadar[LeftFront2.5ø]&#45;&gt;Move Forward/Backward</title>
<path fill="none" stroke="green" stroke-width="0.158283" d="M258.184,-477.947C271.427,-472.624 289.741,-465.944 306.481,-462.198 463.398,-427.083 519.299,-490.955 666.481,-426.198 739.038,-394.275 803.201,-351.15 768.481,-279.889 757.11,-256.551 742.435,-260.497 722.481,-243.889 715.506,-238.083 708.291,-231.936 701.142,-225.752"/>
<polygon fill="green" stroke="green" stroke-width="0.158283" points="703.269,-222.964 693.426,-219.043 698.676,-228.246 703.269,-222.964"/>
</g>
<!-- enemyRadar[LeftFront2.5ø]&#45;&gt; Move Left/Right -->
<g id="edge2" class="edge"><title>enemyRadar[LeftFront2.5ø]&#45;&gt; Move Left/Right</title>
<path fill="none" stroke="green" stroke-width="0.319894" d="M258.168,-477.875C271.404,-472.518 289.716,-465.829 306.481,-462.198 488.722,-422.73 538.801,-443.293 724.481,-426.198 931.264,-407.16 1514.99,-488.875 1654.48,-335.044 1670.95,-316.885 1662.83,-302.938 1654.48,-279.889 1647.39,-260.306 1637.6,-260.067 1624.48,-243.889 1617.98,-235.869 1611.15,-227.321 1604.51,-218.96"/>
<polygon fill="green" stroke="green" stroke-width="0.319894" points="1607.18,-216.694 1598.23,-211.024 1601.69,-221.038 1607.18,-216.694"/>
</g>
<!-- enemyRadar[LeftFront2.5ø]&#45;&gt;Turn left/right -->
<g id="edge7" class="edge"><title>enemyRadar[LeftFront2.5ø]&#45;&gt;Turn left/right</title>
<path fill="none" stroke="red" stroke-width="0.423186" d="M251.358,-477.819C265.68,-467.433 289.558,-448.148 303.481,-426.198 343.753,-362.711 366.068,-277.982 377.165,-223.157"/>
<polygon fill="red" stroke="red" stroke-width="0.423186" points="380.612,-223.768 379.109,-213.28 373.744,-222.416 380.612,-223.768"/>
</g>
<!-- 10666 -->
<g id="node29" class="node"><title>10666</title>
<ellipse fill="white" stroke="black" cx="157.481" cy="-398.621" rx="27.6545" ry="27.6545"/>
<text text-anchor="middle" x="157.481" y="-396.421" font-family="Times,serif" font-size="9.00">10666</text>
</g>
<!-- enemyRadar[LeftFront2.5ø]&#45;&gt;10666 -->
<g id="edge54" class="edge"><title>enemyRadar[LeftFront2.5ø]&#45;&gt;10666</title>
<path fill="none" stroke="green" stroke-width="0.208249" d="M231.619,-477.669C220.634,-466.105 200.171,-444.562 183.521,-427.035"/>
<polygon fill="green" stroke="green" stroke-width="0.208249" points="185.613,-424.154 176.188,-419.314 180.537,-428.975 185.613,-424.154"/>
</g>
<!-- 9594 -->
<g id="node30" class="node"><title>9594</title>
<ellipse fill="white" stroke="black" cx="41.4815" cy="-307.467" rx="25" ry="25"/>
<text text-anchor="middle" x="41.4815" y="-305.267" font-family="Times,serif" font-size="9.00">9594</text>
</g>
<!-- enemyRadar[LeftFront2.5ø]&#45;&gt;9594 -->
<g id="edge42" class="edge"><title>enemyRadar[LeftFront2.5ø]&#45;&gt;9594</title>
<path fill="none" stroke="red" stroke-width="0.659995" stroke-dasharray="1,5" d="M214.969,-477.886C189.262,-468.526 148.747,-451.117 120.481,-426.198 92.6903,-401.698 70.2696,-365.309 56.5112,-339.481"/>
<polygon fill="red" stroke="red" stroke-width="0.659995" points="59.5547,-337.747 51.8404,-330.485 53.3421,-340.973 59.5547,-337.747"/>
</g>
<!-- enemyRadar[Front7Ø] -->
<g id="node21" class="node"><title>enemyRadar[Front7Ø]</title>
<polygon fill="lightgray" stroke="black" points="182.481,-316.467 84.4815,-316.467 84.4815,-298.467 182.481,-298.467 182.481,-316.467"/>
<text text-anchor="middle" x="133.481" y="-305.267" font-family="Times,serif" font-size="9.00">enemyRadar[Front7Ø]</text>
</g>
<!-- enemyRadar[Front7Ø]&#45;&gt;Shoot -->
<g id="edge3" class="edge"><title>enemyRadar[Front7Ø]&#45;&gt;Shoot</title>
<path fill="none" stroke="red" stroke-width="0.503836" stroke-dasharray="1,5" d="M146.475,-298.374C163.63,-287.328 194.254,-266.324 216.481,-243.889 276.455,-183.359 257.185,-133.197 330.481,-89.7401 400.441,-48.2619 649.425,-33.4872 744.351,-29.2887"/>
<polygon fill="red" stroke="red" stroke-width="0.503836" points="744.779,-32.7737 754.62,-28.8495 744.48,-25.7801 744.779,-32.7737"/>
</g>
<!-- enemyRadar[Front7Ø]&#45;&gt;Move Forward/Backward -->
<g id="edge11" class="edge"><title>enemyRadar[Front7Ø]&#45;&gt;Move Forward/Backward</title>
<path fill="none" stroke="green" stroke-width="0.513771" stroke-dasharray="1,5" d="M148.286,-298.241C159.741,-292.237 176.18,-284.39 191.481,-279.889 299.599,-248.089 333.517,-272.653 442.481,-243.889 481.009,-233.719 522.296,-218.218 556.836,-203.855"/>
<polygon fill="green" stroke="green" stroke-width="0.513771" points="558.528,-206.941 566.392,-199.84 555.817,-200.488 558.528,-206.941"/>
</g>
<!-- enemyRadar[Front7Ø]&#45;&gt;Turn left/right -->
<g id="edge24" class="edge"><title>enemyRadar[Front7Ø]&#45;&gt;Turn left/right</title>
<path fill="none" stroke="red" stroke-width="0.646643" stroke-dasharray="1,5" d="M150.633,-298.318C162.123,-292.931 177.626,-285.8 191.481,-279.889 231.488,-262.824 244.398,-264.899 282.481,-243.889 303.374,-232.363 324.912,-217.235 342.929,-203.508"/>
<polygon fill="red" stroke="red" stroke-width="0.646643" points="345.17,-206.2 350.945,-197.317 340.891,-200.66 345.17,-206.2"/>
</g>
<!-- OnTarget -->
<g id="node22" class="node"><title>OnTarget</title>
<polygon fill="lightgray" stroke="black" points="1930.48,-407.621 1880.48,-407.621 1880.48,-389.621 1930.48,-389.621 1930.48,-407.621"/>
<text text-anchor="middle" x="1905.48" y="-396.421" font-family="Times,serif" font-size="9.00">OnTarget</text>
</g>
<!-- OnTarget&#45;&gt;641 -->
<g id="edge33" class="edge"><title>OnTarget&#45;&gt;641</title>
<path fill="none" stroke="green" stroke-width="3.13091" d="M1910.56,-389.393C1918.14,-377.094 1932.78,-353.372 1944.25,-334.778"/>
<polygon fill="green" stroke="green" stroke-width="3.13091" points="1947.31,-336.482 1949.58,-326.134 1941.35,-332.807 1947.31,-336.482"/>
</g>
<!-- bias -->
<g id="node23" class="node"><title>bias</title>
<polygon fill="lightgray" stroke="black" points="604.981,-495.947 573.981,-495.947 573.981,-477.947 604.981,-477.947 604.981,-495.947"/>
<text text-anchor="middle" x="589.481" y="-484.747" font-family="Times,serif" font-size="9.00">bias</text>
</g>
<!-- 641&#45;&gt;Shoot -->
<g id="edge32" class="edge"><title>641&#45;&gt;Shoot</title>
<path fill="none" stroke="green" stroke-width="0.746616" d="M1962.59,-286.341C1965.92,-242.627 1966.79,-138.98 1907.48,-89.7401 1864.63,-54.164 1008.15,-32.9467 818.466,-28.6733"/>
<polygon fill="green" stroke="green" stroke-width="0.746616" points="818.509,-25.1735 808.433,-28.4491 818.352,-32.1717 818.509,-25.1735"/>
</g>
<!-- 641&#45;&gt; Move Left/Right -->
<g id="edge36" class="edge"><title>641&#45;&gt; Move Left/Right</title>
<path fill="none" stroke="red" stroke-width="1.04565" stroke-dasharray="1,5" d="M1946.19,-291.575C1941.51,-287.333 1936.07,-283.02 1930.48,-279.889 1878.17,-250.558 1717.7,-206.878 1627.58,-183.661"/>
<polygon fill="red" stroke="red" stroke-width="1.04565" points="1628.31,-180.234 1617.75,-181.138 1626.57,-187.015 1628.31,-180.234"/>
</g>
<!-- 10666&#45;&gt;9594 -->
<g id="edge55" class="edge"><title>10666&#45;&gt;9594</title>
<path fill="none" stroke="green" stroke-width="0.379127" d="M135.848,-381.22C119.284,-368.636 95.8903,-350.807 75.4815,-335.044 73.2023,-333.283 70.8411,-331.453 68.4738,-329.612"/>
<polygon fill="green" stroke="green" stroke-width="0.379127" points="70.551,-326.793 60.5124,-323.405 66.2472,-332.314 70.551,-326.793"/>
</g>
<!-- 9594&#45;&gt;Shoot -->
<g id="edge43" class="edge"><title>9594&#45;&gt;Shoot</title>
<path fill="none" stroke="red" stroke-width="0.638098" stroke-dasharray="1,5" d="M44.815,-282.671C52.6325,-236.727 76.7334,-136.244 142.481,-89.7401 191.769,-54.8791 615.324,-34.7102 744.34,-29.3345"/>
<polygon fill="red" stroke="red" stroke-width="0.638098" points="744.66,-32.8244 754.507,-28.9162 744.372,-25.8303 744.66,-32.8244"/>
</g>
<!-- 10557 -->
<g id="node35" class="node"><title>10557</title>
<ellipse fill="white" stroke="black" cx="179.481" cy="-166.815" rx="27.6545" ry="27.6545"/>
<text text-anchor="middle" x="179.481" y="-164.615" font-family="Times,serif" font-size="9.00">10557</text>
</g>
<!-- 9594&#45;&gt;10557 -->
<g id="edge51" class="edge"><title>9594&#45;&gt;10557</title>
<path fill="none" stroke="green" stroke-width="0.360523" d="M60.7435,-291.423C84.3076,-273.017 121.145,-244.23 121.481,-243.889 135.14,-230.061 148.432,-212.977 158.837,-198.504"/>
<polygon fill="green" stroke="green" stroke-width="0.360523" points="161.701,-200.516 164.612,-190.329 155.984,-196.478 161.701,-200.516"/>
</g>
<!-- 10417&#45;&gt;Turn left/right -->
<g id="edge50" class="edge"><title>10417&#45;&gt;Turn left/right</title>
<path fill="none" stroke="green" stroke-width="0.297804" d="M248.814,-288.624C272.786,-267.587 313.27,-232.061 344.149,-204.963"/>
<polygon fill="green" stroke="green" stroke-width="0.297804" points="346.569,-207.496 351.777,-198.269 341.952,-202.234 346.569,-207.496"/>
</g>
<!-- 6807 -->
<g id="node32" class="node"><title>6807</title>
<ellipse fill="white" stroke="black" cx="647.481" cy="-486.947" rx="25" ry="25"/>
<text text-anchor="middle" x="647.481" y="-484.747" font-family="Times,serif" font-size="9.00">6807</text>
</g>
<!-- 3674&#45;&gt;Turn left/right -->
<g id="edge35" class="edge"><title>3674&#45;&gt;Turn left/right</title>
<path fill="none" stroke="red" stroke-width="0.611206" d="M408.901,-282.946C405.695,-266.48 401.273,-243.773 397.203,-222.874"/>
<polygon fill="red" stroke="red" stroke-width="0.611206" points="400.588,-221.942 395.241,-212.795 393.717,-223.28 400.588,-221.942"/>
</g>
<!-- 10557&#45;&gt;Shoot -->
<g id="edge52" class="edge"><title>10557&#45;&gt;Shoot</title>
<path fill="none" stroke="red" stroke-width="0.429925" d="M194.824,-143.415C208.321,-125.657 229.655,-101.877 254.481,-89.7401 341.196,-47.3495 639.065,-32.9018 744.297,-29.0547"/>
<polygon fill="red" stroke="red" stroke-width="0.429925" points="744.571,-32.5473 754.441,-28.6951 744.323,-25.5517 744.571,-32.5473"/>
</g>
<!-- 10297&#45;&gt;Shoot -->
<g id="edge48" class="edge"><title>10297&#45;&gt;Shoot</title>
<path fill="none" stroke="red" stroke-width="0.117375" d="M905.423,-140.96C898.166,-125.093 887.239,-104.758 873.481,-89.7401 856.61,-71.3222 833.204,-55.6791 814.223,-44.7301"/>
<polygon fill="red" stroke="red" stroke-width="0.117375" points="815.744,-41.5706 805.308,-39.7406 812.325,-47.6789 815.744,-41.5706"/>
</g>
</g>
</svg>
