<?xml version="1.0" encoding="utf-8" standalone="no"?>
<!DOCTYPE svg PUBLIC "-//W3C//DTD SVG 1.1//EN"
  "http://www.w3.org/Graphics/SVG/1.1/DTD/svg11.dtd">
<!-- Created with matplotlib (http://matplotlib.org/) -->
<svg height="345.6pt" version="1.1" viewBox="0 0 460.8 345.6" width="460.8pt" xmlns="http://www.w3.org/2000/svg" xmlns:xlink="http://www.w3.org/1999/xlink">
 <defs>
  <style type="text/css">
*{stroke-linecap:butt;stroke-linejoin:round;}
  </style>
 </defs>
 <g id="figure_1">
  <g id="patch_1">
   <path d="M 0 345.6 
L 460.8 345.6 
L 460.8 0 
L 0 0 
z
" style="fill:#ffffff;"/>
  </g>
  <g id="axes_1">
   <g id="patch_2">
    <path d="M 57.6 307.584 
L 414.72 307.584 
L 414.72 41.472 
L 57.6 41.472 
z
" style="fill:#ffffff;"/>
   </g>
   <g id="matplotlib.axis_1">
    <g id="xtick_1">
     <g id="line2d_1">
      <path clip-path="url(#pce69c9f6e8)" d="M 73.832727 307.584 
L 73.832727 41.472 
" style="fill:none;stroke:#b0b0b0;stroke-linecap:square;stroke-width:0.8;"/>
     </g>
     <g id="line2d_2">
      <defs>
       <path d="M 0 0 
L 0 3.5 
" id="md9c6313426" style="stroke:#000000;stroke-width:0.8;"/>
      </defs>
      <g>
       <use style="stroke:#000000;stroke-width:0.8;" x="73.832727" xlink:href="#md9c6313426" y="307.584"/>
      </g>
     </g>
     <g id="text_1">
      <!-- 0 -->
      <defs>
       <path d="M 31.78125 66.40625 
Q 24.171875 66.40625 20.328125 58.90625 
Q 16.5 51.421875 16.5 36.375 
Q 16.5 21.390625 20.328125 13.890625 
Q 24.171875 6.390625 31.78125 6.390625 
Q 39.453125 6.390625 43.28125 13.890625 
Q 47.125 21.390625 47.125 36.375 
Q 47.125 51.421875 43.28125 58.90625 
Q 39.453125 66.40625 31.78125 66.40625 
z
M 31.78125 74.21875 
Q 44.046875 74.21875 50.515625 64.515625 
Q 56.984375 54.828125 56.984375 36.375 
Q 56.984375 17.96875 50.515625 8.265625 
Q 44.046875 -1.421875 31.78125 -1.421875 
Q 19.53125 -1.421875 13.0625 8.265625 
Q 6.59375 17.96875 6.59375 36.375 
Q 6.59375 54.828125 13.0625 64.515625 
Q 19.53125 74.21875 31.78125 74.21875 
z
" id="DejaVuSans-30"/>
      </defs>
      <g transform="translate(70.651477 322.182437)scale(0.1 -0.1)">
       <use xlink:href="#DejaVuSans-30"/>
      </g>
     </g>
    </g>
    <g id="xtick_2">
     <g id="line2d_3">
      <path clip-path="url(#pce69c9f6e8)" d="M 115.886425 307.584 
L 115.886425 41.472 
" style="fill:none;stroke:#b0b0b0;stroke-linecap:square;stroke-width:0.8;"/>
     </g>
     <g id="line2d_4">
      <g>
       <use style="stroke:#000000;stroke-width:0.8;" x="115.886425" xlink:href="#md9c6313426" y="307.584"/>
      </g>
     </g>
     <g id="text_2">
      <!-- 50 -->
      <defs>
       <path d="M 10.796875 72.90625 
L 49.515625 72.90625 
L 49.515625 64.59375 
L 19.828125 64.59375 
L 19.828125 46.734375 
Q 21.96875 47.46875 24.109375 47.828125 
Q 26.265625 48.1875 28.421875 48.1875 
Q 40.625 48.1875 47.75 41.5 
Q 54.890625 34.8125 54.890625 23.390625 
Q 54.890625 11.625 47.5625 5.09375 
Q 40.234375 -1.421875 26.90625 -1.421875 
Q 22.3125 -1.421875 17.546875 -0.640625 
Q 12.796875 0.140625 7.71875 1.703125 
L 7.71875 11.625 
Q 12.109375 9.234375 16.796875 8.0625 
Q 21.484375 6.890625 26.703125 6.890625 
Q 35.15625 6.890625 40.078125 11.328125 
Q 45.015625 15.765625 45.015625 23.390625 
Q 45.015625 31 40.078125 35.4375 
Q 35.15625 39.890625 26.703125 39.890625 
Q 22.75 39.890625 18.8125 39.015625 
Q 14.890625 38.140625 10.796875 36.28125 
z
" id="DejaVuSans-35"/>
      </defs>
      <g transform="translate(109.523925 322.182437)scale(0.1 -0.1)">
       <use xlink:href="#DejaVuSans-35"/>
       <use x="63.623047" xlink:href="#DejaVuSans-30"/>
      </g>
     </g>
    </g>
    <g id="xtick_3">
     <g id="line2d_5">
      <path clip-path="url(#pce69c9f6e8)" d="M 157.940122 307.584 
L 157.940122 41.472 
" style="fill:none;stroke:#b0b0b0;stroke-linecap:square;stroke-width:0.8;"/>
     </g>
     <g id="line2d_6">
      <g>
       <use style="stroke:#000000;stroke-width:0.8;" x="157.940122" xlink:href="#md9c6313426" y="307.584"/>
      </g>
     </g>
     <g id="text_3">
      <!-- 100 -->
      <defs>
       <path d="M 12.40625 8.296875 
L 28.515625 8.296875 
L 28.515625 63.921875 
L 10.984375 60.40625 
L 10.984375 69.390625 
L 28.421875 72.90625 
L 38.28125 72.90625 
L 38.28125 8.296875 
L 54.390625 8.296875 
L 54.390625 0 
L 12.40625 0 
z
" id="DejaVuSans-31"/>
      </defs>
      <g transform="translate(148.396372 322.182437)scale(0.1 -0.1)">
       <use xlink:href="#DejaVuSans-31"/>
       <use x="63.623047" xlink:href="#DejaVuSans-30"/>
       <use x="127.246094" xlink:href="#DejaVuSans-30"/>
      </g>
     </g>
    </g>
    <g id="xtick_4">
     <g id="line2d_7">
      <path clip-path="url(#pce69c9f6e8)" d="M 199.99382 307.584 
L 199.99382 41.472 
" style="fill:none;stroke:#b0b0b0;stroke-linecap:square;stroke-width:0.8;"/>
     </g>
     <g id="line2d_8">
      <g>
       <use style="stroke:#000000;stroke-width:0.8;" x="199.99382" xlink:href="#md9c6313426" y="307.584"/>
      </g>
     </g>
     <g id="text_4">
      <!-- 150 -->
      <g transform="translate(190.45007 322.182437)scale(0.1 -0.1)">
       <use xlink:href="#DejaVuSans-31"/>
       <use x="63.623047" xlink:href="#DejaVuSans-35"/>
       <use x="127.246094" xlink:href="#DejaVuSans-30"/>
      </g>
     </g>
    </g>
    <g id="xtick_5">
     <g id="line2d_9">
      <path clip-path="url(#pce69c9f6e8)" d="M 242.047518 307.584 
L 242.047518 41.472 
" style="fill:none;stroke:#b0b0b0;stroke-linecap:square;stroke-width:0.8;"/>
     </g>
     <g id="line2d_10">
      <g>
       <use style="stroke:#000000;stroke-width:0.8;" x="242.047518" xlink:href="#md9c6313426" y="307.584"/>
      </g>
     </g>
     <g id="text_5">
      <!-- 200 -->
      <defs>
       <path d="M 19.1875 8.296875 
L 53.609375 8.296875 
L 53.609375 0 
L 7.328125 0 
L 7.328125 8.296875 
Q 12.9375 14.109375 22.625 23.890625 
Q 32.328125 33.6875 34.8125 36.53125 
Q 39.546875 41.84375 41.421875 45.53125 
Q 43.3125 49.21875 43.3125 52.78125 
Q 43.3125 58.59375 39.234375 62.25 
Q 35.15625 65.921875 28.609375 65.921875 
Q 23.96875 65.921875 18.8125 64.3125 
Q 13.671875 62.703125 7.8125 59.421875 
L 7.8125 69.390625 
Q 13.765625 71.78125 18.9375 73 
Q 24.125 74.21875 28.421875 74.21875 
Q 39.75 74.21875 46.484375 68.546875 
Q 53.21875 62.890625 53.21875 53.421875 
Q 53.21875 48.921875 51.53125 44.890625 
Q 49.859375 40.875 45.40625 35.40625 
Q 44.1875 33.984375 37.640625 27.21875 
Q 31.109375 20.453125 19.1875 8.296875 
z
" id="DejaVuSans-32"/>
      </defs>
      <g transform="translate(232.503768 322.182437)scale(0.1 -0.1)">
       <use xlink:href="#DejaVuSans-32"/>
       <use x="63.623047" xlink:href="#DejaVuSans-30"/>
       <use x="127.246094" xlink:href="#DejaVuSans-30"/>
      </g>
     </g>
    </g>
    <g id="xtick_6">
     <g id="line2d_11">
      <path clip-path="url(#pce69c9f6e8)" d="M 284.101215 307.584 
L 284.101215 41.472 
" style="fill:none;stroke:#b0b0b0;stroke-linecap:square;stroke-width:0.8;"/>
     </g>
     <g id="line2d_12">
      <g>
       <use style="stroke:#000000;stroke-width:0.8;" x="284.101215" xlink:href="#md9c6313426" y="307.584"/>
      </g>
     </g>
     <g id="text_6">
      <!-- 250 -->
      <g transform="translate(274.557465 322.182437)scale(0.1 -0.1)">
       <use xlink:href="#DejaVuSans-32"/>
       <use x="63.623047" xlink:href="#DejaVuSans-35"/>
       <use x="127.246094" xlink:href="#DejaVuSans-30"/>
      </g>
     </g>
    </g>
    <g id="xtick_7">
     <g id="line2d_13">
      <path clip-path="url(#pce69c9f6e8)" d="M 326.154913 307.584 
L 326.154913 41.472 
" style="fill:none;stroke:#b0b0b0;stroke-linecap:square;stroke-width:0.8;"/>
     </g>
     <g id="line2d_14">
      <g>
       <use style="stroke:#000000;stroke-width:0.8;" x="326.154913" xlink:href="#md9c6313426" y="307.584"/>
      </g>
     </g>
     <g id="text_7">
      <!-- 300 -->
      <defs>
       <path d="M 40.578125 39.3125 
Q 47.65625 37.796875 51.625 33 
Q 55.609375 28.21875 55.609375 21.1875 
Q 55.609375 10.40625 48.1875 4.484375 
Q 40.765625 -1.421875 27.09375 -1.421875 
Q 22.515625 -1.421875 17.65625 -0.515625 
Q 12.796875 0.390625 7.625 2.203125 
L 7.625 11.71875 
Q 11.71875 9.328125 16.59375 8.109375 
Q 21.484375 6.890625 26.8125 6.890625 
Q 36.078125 6.890625 40.9375 10.546875 
Q 45.796875 14.203125 45.796875 21.1875 
Q 45.796875 27.640625 41.28125 31.265625 
Q 36.765625 34.90625 28.71875 34.90625 
L 20.21875 34.90625 
L 20.21875 43.015625 
L 29.109375 43.015625 
Q 36.375 43.015625 40.234375 45.921875 
Q 44.09375 48.828125 44.09375 54.296875 
Q 44.09375 59.90625 40.109375 62.90625 
Q 36.140625 65.921875 28.71875 65.921875 
Q 24.65625 65.921875 20.015625 65.03125 
Q 15.375 64.15625 9.8125 62.3125 
L 9.8125 71.09375 
Q 15.4375 72.65625 20.34375 73.4375 
Q 25.25 74.21875 29.59375 74.21875 
Q 40.828125 74.21875 47.359375 69.109375 
Q 53.90625 64.015625 53.90625 55.328125 
Q 53.90625 49.265625 50.4375 45.09375 
Q 46.96875 40.921875 40.578125 39.3125 
z
" id="DejaVuSans-33"/>
      </defs>
      <g transform="translate(316.611163 322.182437)scale(0.1 -0.1)">
       <use xlink:href="#DejaVuSans-33"/>
       <use x="63.623047" xlink:href="#DejaVuSans-30"/>
       <use x="127.246094" xlink:href="#DejaVuSans-30"/>
      </g>
     </g>
    </g>
    <g id="xtick_8">
     <g id="line2d_15">
      <path clip-path="url(#pce69c9f6e8)" d="M 368.20861 307.584 
L 368.20861 41.472 
" style="fill:none;stroke:#b0b0b0;stroke-linecap:square;stroke-width:0.8;"/>
     </g>
     <g id="line2d_16">
      <g>
       <use style="stroke:#000000;stroke-width:0.8;" x="368.20861" xlink:href="#md9c6313426" y="307.584"/>
      </g>
     </g>
     <g id="text_8">
      <!-- 350 -->
      <g transform="translate(358.66486 322.182437)scale(0.1 -0.1)">
       <use xlink:href="#DejaVuSans-33"/>
       <use x="63.623047" xlink:href="#DejaVuSans-35"/>
       <use x="127.246094" xlink:href="#DejaVuSans-30"/>
      </g>
     </g>
    </g>
    <g id="xtick_9">
     <g id="line2d_17">
      <path clip-path="url(#pce69c9f6e8)" d="M 410.262308 307.584 
L 410.262308 41.472 
" style="fill:none;stroke:#b0b0b0;stroke-linecap:square;stroke-width:0.8;"/>
     </g>
     <g id="line2d_18">
      <g>
       <use style="stroke:#000000;stroke-width:0.8;" x="410.262308" xlink:href="#md9c6313426" y="307.584"/>
      </g>
     </g>
     <g id="text_9">
      <!-- 400 -->
      <defs>
       <path d="M 37.796875 64.3125 
L 12.890625 25.390625 
L 37.796875 25.390625 
z
M 35.203125 72.90625 
L 47.609375 72.90625 
L 47.609375 25.390625 
L 58.015625 25.390625 
L 58.015625 17.1875 
L 47.609375 17.1875 
L 47.609375 0 
L 37.796875 0 
L 37.796875 17.1875 
L 4.890625 17.1875 
L 4.890625 26.703125 
z
" id="DejaVuSans-34"/>
      </defs>
      <g transform="translate(400.718558 322.182437)scale(0.1 -0.1)">
       <use xlink:href="#DejaVuSans-34"/>
       <use x="63.623047" xlink:href="#DejaVuSans-30"/>
       <use x="127.246094" xlink:href="#DejaVuSans-30"/>
      </g>
     </g>
    </g>
    <g id="text_10">
     <!-- Generations -->
     <defs>
      <path d="M 59.515625 10.40625 
L 59.515625 29.984375 
L 43.40625 29.984375 
L 43.40625 38.09375 
L 69.28125 38.09375 
L 69.28125 6.78125 
Q 63.578125 2.734375 56.6875 0.65625 
Q 49.8125 -1.421875 42 -1.421875 
Q 24.90625 -1.421875 15.25 8.5625 
Q 5.609375 18.5625 5.609375 36.375 
Q 5.609375 54.25 15.25 64.234375 
Q 24.90625 74.21875 42 74.21875 
Q 49.125 74.21875 55.546875 72.453125 
Q 61.96875 70.703125 67.390625 67.28125 
L 67.390625 56.78125 
Q 61.921875 61.421875 55.765625 63.765625 
Q 49.609375 66.109375 42.828125 66.109375 
Q 29.4375 66.109375 22.71875 58.640625 
Q 16.015625 51.171875 16.015625 36.375 
Q 16.015625 21.625 22.71875 14.15625 
Q 29.4375 6.6875 42.828125 6.6875 
Q 48.046875 6.6875 52.140625 7.59375 
Q 56.25 8.5 59.515625 10.40625 
z
" id="DejaVuSans-47"/>
      <path d="M 56.203125 29.59375 
L 56.203125 25.203125 
L 14.890625 25.203125 
Q 15.484375 15.921875 20.484375 11.0625 
Q 25.484375 6.203125 34.421875 6.203125 
Q 39.59375 6.203125 44.453125 7.46875 
Q 49.3125 8.734375 54.109375 11.28125 
L 54.109375 2.78125 
Q 49.265625 0.734375 44.1875 -0.34375 
Q 39.109375 -1.421875 33.890625 -1.421875 
Q 20.796875 -1.421875 13.15625 6.1875 
Q 5.515625 13.8125 5.515625 26.8125 
Q 5.515625 40.234375 12.765625 48.109375 
Q 20.015625 56 32.328125 56 
Q 43.359375 56 49.78125 48.890625 
Q 56.203125 41.796875 56.203125 29.59375 
z
M 47.21875 32.234375 
Q 47.125 39.59375 43.09375 43.984375 
Q 39.0625 48.390625 32.421875 48.390625 
Q 24.90625 48.390625 20.390625 44.140625 
Q 15.875 39.890625 15.1875 32.171875 
z
" id="DejaVuSans-65"/>
      <path d="M 54.890625 33.015625 
L 54.890625 0 
L 45.90625 0 
L 45.90625 32.71875 
Q 45.90625 40.484375 42.875 44.328125 
Q 39.84375 48.1875 33.796875 48.1875 
Q 26.515625 48.1875 22.3125 43.546875 
Q 18.109375 38.921875 18.109375 30.90625 
L 18.109375 0 
L 9.078125 0 
L 9.078125 54.6875 
L 18.109375 54.6875 
L 18.109375 46.1875 
Q 21.34375 51.125 25.703125 53.5625 
Q 30.078125 56 35.796875 56 
Q 45.21875 56 50.046875 50.171875 
Q 54.890625 44.34375 54.890625 33.015625 
z
" id="DejaVuSans-6e"/>
      <path d="M 41.109375 46.296875 
Q 39.59375 47.171875 37.8125 47.578125 
Q 36.03125 48 33.890625 48 
Q 26.265625 48 22.1875 43.046875 
Q 18.109375 38.09375 18.109375 28.8125 
L 18.109375 0 
L 9.078125 0 
L 9.078125 54.6875 
L 18.109375 54.6875 
L 18.109375 46.1875 
Q 20.953125 51.171875 25.484375 53.578125 
Q 30.03125 56 36.53125 56 
Q 37.453125 56 38.578125 55.875 
Q 39.703125 55.765625 41.0625 55.515625 
z
" id="DejaVuSans-72"/>
      <path d="M 34.28125 27.484375 
Q 23.390625 27.484375 19.1875 25 
Q 14.984375 22.515625 14.984375 16.5 
Q 14.984375 11.71875 18.140625 8.90625 
Q 21.296875 6.109375 26.703125 6.109375 
Q 34.1875 6.109375 38.703125 11.40625 
Q 43.21875 16.703125 43.21875 25.484375 
L 43.21875 27.484375 
z
M 52.203125 31.203125 
L 52.203125 0 
L 43.21875 0 
L 43.21875 8.296875 
Q 40.140625 3.328125 35.546875 0.953125 
Q 30.953125 -1.421875 24.3125 -1.421875 
Q 15.921875 -1.421875 10.953125 3.296875 
Q 6 8.015625 6 15.921875 
Q 6 25.140625 12.171875 29.828125 
Q 18.359375 34.515625 30.609375 34.515625 
L 43.21875 34.515625 
L 43.21875 35.40625 
Q 43.21875 41.609375 39.140625 45 
Q 35.0625 48.390625 27.6875 48.390625 
Q 23 48.390625 18.546875 47.265625 
Q 14.109375 46.140625 10.015625 43.890625 
L 10.015625 52.203125 
Q 14.9375 54.109375 19.578125 55.046875 
Q 24.21875 56 28.609375 56 
Q 40.484375 56 46.34375 49.84375 
Q 52.203125 43.703125 52.203125 31.203125 
z
" id="DejaVuSans-61"/>
      <path d="M 18.3125 70.21875 
L 18.3125 54.6875 
L 36.8125 54.6875 
L 36.8125 47.703125 
L 18.3125 47.703125 
L 18.3125 18.015625 
Q 18.3125 11.328125 20.140625 9.421875 
Q 21.96875 7.515625 27.59375 7.515625 
L 36.8125 7.515625 
L 36.8125 0 
L 27.59375 0 
Q 17.1875 0 13.234375 3.875 
Q 9.28125 7.765625 9.28125 18.015625 
L 9.28125 47.703125 
L 2.6875 47.703125 
L 2.6875 54.6875 
L 9.28125 54.6875 
L 9.28125 70.21875 
z
" id="DejaVuSans-74"/>
      <path d="M 9.421875 54.6875 
L 18.40625 54.6875 
L 18.40625 0 
L 9.421875 0 
z
M 9.421875 75.984375 
L 18.40625 75.984375 
L 18.40625 64.59375 
L 9.421875 64.59375 
z
" id="DejaVuSans-69"/>
      <path d="M 30.609375 48.390625 
Q 23.390625 48.390625 19.1875 42.75 
Q 14.984375 37.109375 14.984375 27.296875 
Q 14.984375 17.484375 19.15625 11.84375 
Q 23.34375 6.203125 30.609375 6.203125 
Q 37.796875 6.203125 41.984375 11.859375 
Q 46.1875 17.53125 46.1875 27.296875 
Q 46.1875 37.015625 41.984375 42.703125 
Q 37.796875 48.390625 30.609375 48.390625 
z
M 30.609375 56 
Q 42.328125 56 49.015625 48.375 
Q 55.71875 40.765625 55.71875 27.296875 
Q 55.71875 13.875 49.015625 6.21875 
Q 42.328125 -1.421875 30.609375 -1.421875 
Q 18.84375 -1.421875 12.171875 6.21875 
Q 5.515625 13.875 5.515625 27.296875 
Q 5.515625 40.765625 12.171875 48.375 
Q 18.84375 56 30.609375 56 
z
" id="DejaVuSans-6f"/>
      <path d="M 44.28125 53.078125 
L 44.28125 44.578125 
Q 40.484375 46.53125 36.375 47.5 
Q 32.28125 48.484375 27.875 48.484375 
Q 21.1875 48.484375 17.84375 46.4375 
Q 14.5 44.390625 14.5 40.28125 
Q 14.5 37.15625 16.890625 35.375 
Q 19.28125 33.59375 26.515625 31.984375 
L 29.59375 31.296875 
Q 39.15625 29.25 43.1875 25.515625 
Q 47.21875 21.78125 47.21875 15.09375 
Q 47.21875 7.46875 41.1875 3.015625 
Q 35.15625 -1.421875 24.609375 -1.421875 
Q 20.21875 -1.421875 15.453125 -0.5625 
Q 10.6875 0.296875 5.421875 2 
L 5.421875 11.28125 
Q 10.40625 8.6875 15.234375 7.390625 
Q 20.0625 6.109375 24.8125 6.109375 
Q 31.15625 6.109375 34.5625 8.28125 
Q 37.984375 10.453125 37.984375 14.40625 
Q 37.984375 18.0625 35.515625 20.015625 
Q 33.0625 21.96875 24.703125 23.78125 
L 21.578125 24.515625 
Q 13.234375 26.265625 9.515625 29.90625 
Q 5.8125 33.546875 5.8125 39.890625 
Q 5.8125 47.609375 11.28125 51.796875 
Q 16.75 56 26.8125 56 
Q 31.78125 56 36.171875 55.265625 
Q 40.578125 54.546875 44.28125 53.078125 
z
" id="DejaVuSans-73"/>
     </defs>
     <g transform="translate(205.662344 335.860562)scale(0.1 -0.1)">
      <use xlink:href="#DejaVuSans-47"/>
      <use x="77.490234" xlink:href="#DejaVuSans-65"/>
      <use x="139.013672" xlink:href="#DejaVuSans-6e"/>
      <use x="202.392578" xlink:href="#DejaVuSans-65"/>
      <use x="263.916016" xlink:href="#DejaVuSans-72"/>
      <use x="305.029297" xlink:href="#DejaVuSans-61"/>
      <use x="366.308594" xlink:href="#DejaVuSans-74"/>
      <use x="405.517578" xlink:href="#DejaVuSans-69"/>
      <use x="433.300781" xlink:href="#DejaVuSans-6f"/>
      <use x="494.482422" xlink:href="#DejaVuSans-6e"/>
      <use x="557.861328" xlink:href="#DejaVuSans-73"/>
     </g>
    </g>
   </g>
   <g id="matplotlib.axis_2">
    <g id="ytick_1">
     <g id="line2d_19">
      <path clip-path="url(#pce69c9f6e8)" d="M 57.6 263.386555 
L 414.72 263.386555 
" style="fill:none;stroke:#b0b0b0;stroke-linecap:square;stroke-width:0.8;"/>
     </g>
     <g id="line2d_20">
      <defs>
       <path d="M 0 0 
L -3.5 0 
" id="m2e4ca3c826" style="stroke:#000000;stroke-width:0.8;"/>
      </defs>
      <g>
       <use style="stroke:#000000;stroke-width:0.8;" x="57.6" xlink:href="#m2e4ca3c826" y="263.386555"/>
      </g>
     </g>
     <g id="text_11">
      <!-- $\mathdefault{0}$ -->
      <g transform="translate(44.2 267.185774)scale(0.1 -0.1)">
       <use transform="translate(0 0.78125)" xlink:href="#DejaVuSans-30"/>
      </g>
     </g>
    </g>
    <g id="ytick_2">
     <g id="line2d_21">
      <path clip-path="url(#pce69c9f6e8)" d="M 57.6 223.15959 
L 414.72 223.15959 
" style="fill:none;stroke:#b0b0b0;stroke-linecap:square;stroke-width:0.8;"/>
     </g>
     <g id="line2d_22">
      <g>
       <use style="stroke:#000000;stroke-width:0.8;" x="57.6" xlink:href="#m2e4ca3c826" y="223.15959"/>
      </g>
     </g>
     <g id="text_12">
      <!-- $\mathdefault{10^{0}}$ -->
      <g transform="translate(33 226.958808)scale(0.1 -0.1)">
       <use transform="translate(0 0.765625)" xlink:href="#DejaVuSans-31"/>
       <use transform="translate(63.623047 0.765625)" xlink:href="#DejaVuSans-30"/>
       <use transform="translate(128.203125 39.046875)scale(0.7)" xlink:href="#DejaVuSans-30"/>
      </g>
     </g>
    </g>
    <g id="ytick_3">
     <g id="line2d_23">
      <path clip-path="url(#pce69c9f6e8)" d="M 57.6 132.321228 
L 414.72 132.321228 
" style="fill:none;stroke:#b0b0b0;stroke-linecap:square;stroke-width:0.8;"/>
     </g>
     <g id="line2d_24">
      <g>
       <use style="stroke:#000000;stroke-width:0.8;" x="57.6" xlink:href="#m2e4ca3c826" y="132.321228"/>
      </g>
     </g>
     <g id="text_13">
      <!-- $\mathdefault{10^{1}}$ -->
      <g transform="translate(33 136.120446)scale(0.1 -0.1)">
       <use transform="translate(0 0.684375)" xlink:href="#DejaVuSans-31"/>
       <use transform="translate(63.623047 0.684375)" xlink:href="#DejaVuSans-30"/>
       <use transform="translate(128.203125 38.965625)scale(0.7)" xlink:href="#DejaVuSans-31"/>
      </g>
     </g>
    </g>
    <g id="ytick_4">
     <g id="line2d_25">
      <path clip-path="url(#pce69c9f6e8)" d="M 57.6 59.912689 
L 414.72 59.912689 
" style="fill:none;stroke:#b0b0b0;stroke-linecap:square;stroke-width:0.8;"/>
     </g>
     <g id="line2d_26">
      <g>
       <use style="stroke:#000000;stroke-width:0.8;" x="57.6" xlink:href="#m2e4ca3c826" y="59.912689"/>
      </g>
     </g>
     <g id="text_14">
      <!-- $\mathdefault{10^{2}}$ -->
      <g transform="translate(33 63.711908)scale(0.1 -0.1)">
       <use transform="translate(0 0.765625)" xlink:href="#DejaVuSans-31"/>
       <use transform="translate(63.623047 0.765625)" xlink:href="#DejaVuSans-30"/>
       <use transform="translate(128.203125 39.046875)scale(0.7)" xlink:href="#DejaVuSans-32"/>
      </g>
     </g>
    </g>
    <g id="ytick_5">
     <g id="line2d_27">
      <defs>
       <path d="M 0 0 
L -2 0 
" id="mb8d7d9d99b" style="stroke:#000000;stroke-width:0.6;"/>
      </defs>
      <g>
       <use style="stroke:#000000;stroke-width:0.6;" x="57.6" xlink:href="#mb8d7d9d99b" y="263.386555"/>
      </g>
     </g>
    </g>
    <g id="ytick_6">
     <g id="line2d_28">
      <g>
       <use style="stroke:#000000;stroke-width:0.6;" x="57.6" xlink:href="#mb8d7d9d99b" y="223.15959"/>
      </g>
     </g>
    </g>
    <g id="ytick_7">
     <g id="line2d_29">
      <g>
       <use style="stroke:#000000;stroke-width:0.6;" x="57.6" xlink:href="#mb8d7d9d99b" y="132.321228"/>
      </g>
     </g>
    </g>
    <g id="ytick_8">
     <g id="line2d_30">
      <g>
       <use style="stroke:#000000;stroke-width:0.6;" x="57.6" xlink:href="#mb8d7d9d99b" y="59.912689"/>
      </g>
     </g>
    </g>
    <g id="text_15">
     <!-- Fitness -->
     <defs>
      <path d="M 9.8125 72.90625 
L 51.703125 72.90625 
L 51.703125 64.59375 
L 19.671875 64.59375 
L 19.671875 43.109375 
L 48.578125 43.109375 
L 48.578125 34.8125 
L 19.671875 34.8125 
L 19.671875 0 
L 9.8125 0 
z
" id="DejaVuSans-46"/>
     </defs>
     <g transform="translate(26.920312 192.202219)rotate(-90)scale(0.1 -0.1)">
      <use xlink:href="#DejaVuSans-46"/>
      <use x="57.410156" xlink:href="#DejaVuSans-69"/>
      <use x="85.193359" xlink:href="#DejaVuSans-74"/>
      <use x="124.402344" xlink:href="#DejaVuSans-6e"/>
      <use x="187.78125" xlink:href="#DejaVuSans-65"/>
      <use x="249.304688" xlink:href="#DejaVuSans-73"/>
      <use x="301.404297" xlink:href="#DejaVuSans-73"/>
     </g>
    </g>
   </g>
   <g id="line2d_31">
    <path clip-path="url(#pce69c9f6e8)" d="M 73.832727 295.488 
L 74.673801 249.73585 
L 75.514875 246.015986 
L 76.355949 221.087335 
L 77.197023 177.909422 
L 78.038097 175.000185 
L 78.879171 174.050037 
L 79.720245 168.776889 
L 80.561319 169.03822 
L 81.402393 157.580602 
L 82.243467 164.302188 
L 83.925615 151.9405 
L 84.766689 150.39564 
L 85.607763 159.172675 
L 86.448837 153.362538 
L 87.289911 148.925244 
L 88.130984 151.383081 
L 88.972058 145.879001 
L 89.813132 145.78811 
L 90.654206 145.890087 
L 91.49528 151.211413 
L 92.336354 150.619711 
L 93.177428 143.531972 
L 94.018502 141.126459 
L 94.859576 145.00377 
L 95.70065 147.552142 
L 96.541724 149.113455 
L 98.223872 158.904602 
L 99.064946 150.673281 
L 99.90602 158.140231 
L 100.747094 149.36148 
L 101.588168 143.417223 
L 102.429242 146.825405 
L 103.270316 155.056753 
L 104.11139 160.327714 
L 104.952463 153.959414 
L 105.793537 151.131221 
L 106.634611 155.559747 
L 107.475685 143.627443 
L 108.316759 144.646643 
L 109.157833 148.885329 
L 109.998907 160.549102 
L 110.839981 155.020476 
L 112.522129 150.292385 
L 113.363203 153.680057 
L 114.204277 149.664029 
L 115.045351 161.151017 
L 115.886425 143.523628 
L 116.727499 157.001052 
L 117.568573 156.194281 
L 118.409647 156.37451 
L 120.091795 150.046217 
L 120.932869 150.377799 
L 121.773943 148.270178 
L 122.615016 143.737595 
L 123.45609 152.81806 
L 124.297164 155.525295 
L 125.138238 148.674801 
L 125.979312 149.709165 
L 126.820386 151.801998 
L 127.66146 149.840399 
L 128.502534 148.195495 
L 129.343608 143.695753 
L 130.184682 146.530094 
L 131.025756 145.03692 
L 131.86683 146.137871 
L 132.707904 146.861877 
L 133.548978 142.542383 
L 134.390052 145.628257 
L 135.231126 147.62478 
L 136.0722 153.852864 
L 136.913274 144.978603 
L 137.754348 147.105236 
L 138.595422 150.91062 
L 139.436496 153.996819 
L 140.277569 156.155098 
L 141.118643 154.034683 
L 141.959717 146.693806 
L 142.800791 149.230528 
L 143.641865 150.882101 
L 144.482939 138.023782 
L 145.324013 144.186106 
L 146.165087 148.395478 
L 147.006161 145.817085 
L 147.847235 142.292653 
L 148.688309 141.746613 
L 149.529383 143.460806 
L 151.211531 144.015834 
L 152.052605 153.14859 
L 152.893679 151.011301 
L 153.734753 149.799072 
L 154.575827 144.509098 
L 155.416901 144.0616 
L 156.257975 151.12414 
L 157.099049 136.94679 
L 157.940122 136.539487 
L 158.781196 152.49315 
L 159.62227 156.03551 
L 160.463344 157.833129 
L 161.304418 149.751196 
L 162.145492 149.060231 
L 162.986566 150.273878 
L 163.82764 145.130929 
L 164.668714 151.60586 
L 165.509788 149.919223 
L 166.350862 150.556043 
L 167.191936 155.16878 
L 168.03301 147.292973 
L 168.874084 148.7304 
L 169.715158 148.889405 
L 170.556232 149.439286 
L 171.397306 149.279604 
L 172.23838 149.462307 
L 173.079454 146.172513 
L 173.920528 151.067854 
L 174.761602 159.272086 
L 175.602675 162.268279 
L 176.443749 152.7771 
L 177.284823 159.470642 
L 178.125897 151.483536 
L 178.966971 146.936973 
L 179.808045 173.506983 
L 180.649119 161.433703 
L 181.490193 151.278217 
L 182.331267 155.449744 
L 183.172341 158.580192 
L 184.013415 153.434302 
L 184.854489 158.022764 
L 185.695563 168.091826 
L 186.536637 157.216486 
L 187.377711 156.09076 
L 188.218785 151.483446 
L 189.059859 152.583624 
L 189.900933 152.478418 
L 190.742007 150.838527 
L 191.583081 151.331067 
L 192.424154 151.669065 
L 193.265228 149.003525 
L 194.106302 152.925435 
L 194.947376 142.186306 
L 195.78845 155.377918 
L 196.629524 160.975881 
L 197.470598 144.382487 
L 198.311672 152.73567 
L 199.152746 157.313502 
L 199.99382 150.733117 
L 200.834894 145.652821 
L 201.675968 142.974162 
L 202.517042 149.653924 
L 203.358116 152.300454 
L 204.19919 145.789426 
L 205.040264 154.169765 
L 205.881338 148.427241 
L 206.722412 145.937856 
L 207.563486 146.69445 
L 208.40456 146.366654 
L 209.245634 147.393723 
L 210.086707 154.070291 
L 210.927781 152.553268 
L 211.768855 153.645155 
L 212.609929 152.405548 
L 213.451003 150.73233 
L 214.292077 150.271083 
L 215.133151 151.541555 
L 215.974225 156.375051 
L 216.815299 154.965966 
L 217.656373 154.912019 
L 218.497447 156.061378 
L 219.338521 150.204093 
L 220.179595 149.200665 
L 221.020669 154.41575 
L 221.861743 150.772176 
L 222.702817 158.926019 
L 223.543891 158.460821 
L 224.384965 155.419416 
L 225.226039 160.721675 
L 226.067113 163.632311 
L 226.908187 160.154651 
L 227.74926 162.481145 
L 228.590334 163.4274 
L 229.431408 161.46808 
L 230.272482 159.193852 
L 231.113556 161.218312 
L 232.795704 147.172453 
L 233.636778 155.477296 
L 234.477852 157.469945 
L 235.318926 157.067022 
L 236.16 151.177517 
L 237.001074 150.628363 
L 237.842148 152.514935 
L 238.683222 149.712593 
L 239.524296 148.123918 
L 240.36537 148.566749 
L 241.206444 151.86033 
L 242.047518 147.241161 
L 242.888592 157.488743 
L 243.729666 149.196687 
L 244.57074 157.922862 
L 245.411813 153.129437 
L 247.093961 154.427159 
L 247.935035 158.234934 
L 248.776109 150.186704 
L 249.617183 151.878975 
L 250.458257 157.151867 
L 251.299331 152.406606 
L 252.140405 150.924178 
L 252.981479 166.205608 
L 253.822553 156.105161 
L 254.663627 156.210337 
L 255.504701 153.23595 
L 256.345775 153.727939 
L 257.186849 149.659566 
L 258.027923 154.526009 
L 258.868997 150.218867 
L 259.710071 150.500936 
L 260.551145 153.521578 
L 261.392219 157.781305 
L 262.233293 153.658585 
L 263.074366 144.649137 
L 263.91544 145.04297 
L 264.756514 153.46387 
L 265.597588 146.451734 
L 266.438662 151.367397 
L 267.279736 148.027331 
L 268.12081 140.977055 
L 268.961884 143.349263 
L 269.802958 137.079509 
L 270.644032 141.199162 
L 271.485106 150.418419 
L 272.32618 135.342356 
L 273.167254 135.647192 
L 274.008328 143.827161 
L 274.849402 139.528182 
L 275.690476 141.64363 
L 276.53155 149.042502 
L 277.372624 141.318777 
L 278.213698 144.374306 
L 279.054772 140.388518 
L 279.895846 138.571259 
L 280.736919 130.84745 
L 282.419067 154.596224 
L 283.260141 131.114458 
L 284.942289 142.950445 
L 285.783363 135.818599 
L 286.624437 141.993549 
L 287.465511 132.667303 
L 289.147659 139.421776 
L 289.988733 140.508555 
L 290.829807 138.338263 
L 291.670881 130.976017 
L 293.353029 146.049745 
L 294.194103 142.853652 
L 295.035177 153.421447 
L 295.876251 137.55968 
L 297.558398 130.866417 
L 298.399472 140.807631 
L 299.240546 131.00865 
L 300.08162 131.354894 
L 300.922694 145.180145 
L 301.763768 137.789081 
L 302.604842 150.30113 
L 303.445916 138.394207 
L 305.128064 144.560164 
L 305.969138 142.103681 
L 306.810212 137.357907 
L 307.651286 135.358036 
L 308.49236 127.186887 
L 309.333434 144.999942 
L 310.174508 134.625067 
L 311.015582 137.638808 
L 311.856656 138.39438 
L 312.69773 135.862573 
L 313.538804 136.761298 
L 314.379878 134.083354 
L 315.220951 140.920748 
L 316.062025 143.122985 
L 316.903099 152.722139 
L 317.744173 143.384035 
L 318.585247 145.002315 
L 319.426321 139.257549 
L 320.267395 136.24655 
L 321.108469 130.763214 
L 321.949543 143.309666 
L 322.790617 137.268809 
L 323.631691 126.752546 
L 324.472765 123.947427 
L 325.313839 123.794548 
L 326.154913 127.357841 
L 326.995987 128.805059 
L 327.837061 119.166033 
L 328.678135 122.873847 
L 329.519209 135.64399 
L 330.360283 132.308722 
L 331.201357 124.454612 
L 332.883504 138.432156 
L 333.724578 122.571906 
L 334.565652 128.472563 
L 335.406726 137.371757 
L 336.2478 132.21857 
L 337.088874 144.992031 
L 338.771022 124.123625 
L 339.612096 124.936348 
L 340.45317 130.832432 
L 341.294244 121.22978 
L 342.135318 122.090825 
L 342.976392 133.621933 
L 343.817466 134.95682 
L 344.65854 131.800713 
L 345.499614 129.797856 
L 346.340688 132.156956 
L 347.181762 135.359574 
L 348.022836 140.331496 
L 348.86391 136.09839 
L 349.704984 139.28174 
L 350.546057 122.382837 
L 351.387131 132.505452 
L 352.228205 137.265317 
L 353.069279 133.693706 
L 353.910353 132.189508 
L 354.751427 134.789122 
L 355.592501 124.568994 
L 356.433575 134.698024 
L 357.274649 134.372128 
L 358.115723 122.359388 
L 358.956797 127.870831 
L 359.797871 122.484654 
L 360.638945 120.938526 
L 361.480019 127.344994 
L 362.321093 128.328725 
L 363.162167 122.031393 
L 364.003241 120.987234 
L 364.844315 115.425803 
L 365.685389 109.118191 
L 366.526463 121.084472 
L 367.367537 119.02751 
L 368.20861 119.141423 
L 369.049684 124.116847 
L 369.890758 123.576705 
L 370.731832 110.172079 
L 371.572906 123.544395 
L 372.41398 116.805511 
L 373.255054 126.564014 
L 374.096128 116.855337 
L 374.937202 113.517204 
L 375.778276 117.9747 
L 376.61935 119.754249 
L 377.460424 128.941599 
L 378.301498 118.626971 
L 379.142572 122.761541 
L 379.983646 119.14186 
L 380.82472 122.31146 
L 381.665794 121.941588 
L 382.506868 123.590805 
L 383.347942 117.789164 
L 384.189016 121.052632 
L 385.030089 122.456356 
L 385.871163 120.46845 
L 386.712237 114.072482 
L 387.553311 124.788945 
L 388.394385 129.994836 
L 389.235459 117.430688 
L 390.076533 126.407144 
L 390.917607 114.314429 
L 391.758681 110.570361 
L 392.599755 113.208669 
L 393.440829 110.810224 
L 394.281903 115.694203 
L 395.122977 113.530474 
L 395.964051 118.79788 
L 396.805125 125.181215 
L 397.646199 113.930198 
L 398.487273 123.635181 
L 398.487273 123.635181 
" style="fill:none;stroke:#0000ff;stroke-linecap:square;stroke-width:1.5;"/>
   </g>
   <g id="line2d_32">
    <path clip-path="url(#pce69c9f6e8)" d="M 73.832727 224.665322 
L 74.673801 179.026725 
L 75.514875 179.189024 
L 76.355949 168.043214 
L 77.197023 154.386282 
L 78.038097 153.797033 
L 79.720245 143.54942 
L 80.561319 147.104711 
L 81.402393 136.790457 
L 82.243467 138.196446 
L 83.084541 134.656753 
L 83.925615 121.632914 
L 84.766689 131.296387 
L 85.607763 136.958726 
L 86.448837 131.195023 
L 87.289911 122.450653 
L 88.130984 127.185085 
L 88.972058 124.856926 
L 89.813132 125.878246 
L 90.654206 114.912659 
L 91.49528 130.508873 
L 92.336354 128.569477 
L 93.177428 121.767416 
L 94.018502 120.708941 
L 94.859576 120.034388 
L 95.70065 128.843954 
L 96.541724 123.808022 
L 97.382798 133.61476 
L 98.223872 134.947778 
L 99.064946 123.21421 
L 99.90602 135.74068 
L 101.588168 112.108552 
L 102.429242 120.180734 
L 103.270316 132.364555 
L 104.11139 136.758852 
L 104.952463 134.231802 
L 105.793537 120.484348 
L 106.634611 135.177847 
L 107.475685 121.79449 
L 108.316759 122.494171 
L 109.157833 124.669526 
L 109.998907 139.077196 
L 110.839981 135.1376 
L 112.522129 130.461532 
L 113.363203 134.631177 
L 114.204277 129.749145 
L 115.045351 142.264767 
L 115.886425 122.822912 
L 116.727499 140.18484 
L 117.568573 132.511027 
L 118.409647 133.202892 
L 119.250721 132.745905 
L 120.091795 131.219503 
L 120.932869 127.040945 
L 121.773943 124.932962 
L 122.615016 117.054438 
L 123.45609 133.142453 
L 124.297164 127.192105 
L 125.138238 126.741933 
L 125.979312 128.427041 
L 126.820386 127.659545 
L 127.66146 125.82477 
L 129.343608 119.271812 
L 130.184682 123.649711 
L 131.025756 123.258573 
L 131.86683 122.445902 
L 132.707904 123.122013 
L 133.548978 115.868389 
L 134.390052 118.176842 
L 135.231126 118.980779 
L 136.0722 132.34311 
L 136.913274 121.638289 
L 137.754348 123.658244 
L 138.595422 122.579265 
L 139.436496 132.524693 
L 140.277569 130.896985 
L 141.118643 128.956533 
L 141.959717 118.310452 
L 142.800791 118.766459 
L 143.641865 125.7947 
L 144.482939 111.528131 
L 145.324013 116.485531 
L 146.165087 114.042982 
L 147.006161 117.512767 
L 147.847235 106.02807 
L 148.688309 109.443436 
L 149.529383 120.129124 
L 150.370457 114.870092 
L 151.211531 111.134697 
L 152.052605 123.754931 
L 152.893679 118.977203 
L 153.734753 120.718662 
L 154.575827 117.370655 
L 155.416901 112.338701 
L 156.257975 127.173902 
L 157.099049 108.899147 
L 157.940122 107.327436 
L 158.781196 123.267446 
L 159.62227 124.081147 
L 160.463344 135.50591 
L 161.304418 128.234511 
L 162.145492 117.640225 
L 162.986566 128.324879 
L 163.82764 124.667857 
L 164.668714 129.985739 
L 165.509788 130.693854 
L 166.350862 123.182152 
L 167.191936 133.834681 
L 168.03301 122.275226 
L 168.874084 128.980379 
L 169.715158 127.056395 
L 170.556232 122.113101 
L 171.397306 127.896057 
L 172.23838 121.294963 
L 173.079454 122.598765 
L 173.920528 120.635212 
L 174.761602 128.89457 
L 175.602675 127.197183 
L 176.443749 120.746813 
L 177.284823 139.918777 
L 178.966971 120.469197 
L 179.808045 144.832376 
L 180.649119 134.149501 
L 182.331267 116.449545 
L 183.172341 127.149612 
L 184.013415 131.215318 
L 185.695563 146.32562 
L 186.536637 137.985297 
L 187.377711 137.86204 
L 188.218785 133.427035 
L 189.059859 128.297779 
L 189.900933 132.00314 
L 190.742007 124.81316 
L 191.583081 127.141201 
L 192.424154 124.38556 
L 193.265228 116.554029 
L 194.106302 119.392095 
L 194.947376 115.516808 
L 195.78845 131.698507 
L 196.629524 134.224703 
L 197.470598 114.231672 
L 199.152746 137.991571 
L 200.834894 120.82722 
L 201.675968 116.860597 
L 202.517042 129.125212 
L 203.358116 131.806776 
L 204.19919 119.860704 
L 205.040264 136.302599 
L 205.881338 133.445404 
L 206.722412 125.791909 
L 207.563486 125.353692 
L 208.40456 126.092995 
L 209.245634 128.297593 
L 210.086707 137.731296 
L 210.927781 131.588723 
L 211.768855 135.642587 
L 212.609929 134.690387 
L 213.451003 131.94439 
L 215.133151 133.95463 
L 215.974225 137.905037 
L 216.815299 137.357882 
L 217.656373 140.086821 
L 218.497447 139.847138 
L 219.338521 136.264892 
L 220.179595 133.309391 
L 221.020669 137.722108 
L 221.861743 132.370001 
L 222.702817 140.343648 
L 223.543891 141.12826 
L 224.384965 135.938377 
L 225.226039 141.795772 
L 226.067113 145.63009 
L 226.908187 137.526104 
L 227.74926 142.161727 
L 228.590334 142.037619 
L 229.431408 133.520683 
L 230.272482 129.747693 
L 231.113556 142.079057 
L 231.95463 135.021433 
L 232.795704 122.291978 
L 233.636778 130.986959 
L 234.477852 131.9882 
L 235.318926 129.692475 
L 236.16 126.303267 
L 237.001074 128.074738 
L 237.842148 129.376318 
L 238.683222 127.549254 
L 239.524296 120.182573 
L 240.36537 119.331701 
L 241.206444 129.655739 
L 242.047518 126.209972 
L 242.888592 138.375573 
L 243.729666 126.332515 
L 244.57074 138.850315 
L 245.411813 132.817643 
L 246.252887 135.560873 
L 247.093961 127.808291 
L 247.935035 132.914442 
L 249.617183 124.693138 
L 250.458257 131.113498 
L 251.299331 130.252041 
L 252.140405 119.677917 
L 252.981479 136.544224 
L 253.822553 125.720854 
L 254.663627 125.409474 
L 255.504701 124.178914 
L 256.345775 132.953684 
L 257.186849 127.283558 
L 258.027923 134.018158 
L 258.868997 127.415252 
L 259.710071 128.773302 
L 260.551145 131.451042 
L 261.392219 135.635374 
L 262.233293 129.923478 
L 263.074366 117.510494 
L 263.91544 114.546792 
L 264.756514 131.070693 
L 265.597588 118.970312 
L 266.438662 124.581734 
L 267.279736 114.647939 
L 268.12081 108.31117 
L 268.961884 114.311014 
L 269.802958 103.695328 
L 270.644032 108.626851 
L 271.485106 116.938738 
L 272.32618 105.827073 
L 273.167254 104.039999 
L 274.008328 115.461503 
L 274.849402 106.480284 
L 275.690476 110.703489 
L 276.53155 118.748297 
L 277.372624 105.21817 
L 278.213698 112.282986 
L 279.054772 109.508334 
L 279.895846 110.844929 
L 280.736919 103.564846 
L 281.577993 113.452752 
L 282.419067 119.434112 
L 283.260141 99.633085 
L 284.101215 106.386303 
L 284.942289 110.46965 
L 285.783363 104.556911 
L 286.624437 110.855927 
L 287.465511 101.293985 
L 288.306585 102.908978 
L 289.147659 106.404603 
L 289.988733 111.846199 
L 290.829807 106.305948 
L 291.670881 95.802343 
L 292.511955 103.680891 
L 293.353029 106.37575 
L 294.194103 105.726377 
L 295.035177 115.553751 
L 295.876251 104.052802 
L 296.717325 101.595053 
L 297.558398 98.729702 
L 298.399472 107.904331 
L 299.240546 100.766548 
L 300.08162 102.132 
L 300.922694 110.068622 
L 302.604842 120.879343 
L 303.445916 108.339168 
L 304.28699 117.062326 
L 305.128064 115.695982 
L 305.969138 113.965616 
L 306.810212 111.226761 
L 307.651286 101.984313 
L 308.49236 94.563094 
L 309.333434 108.539391 
L 310.174508 103.166401 
L 311.015582 104.959952 
L 311.856656 104.916921 
L 312.69773 101.397406 
L 313.538804 102.70086 
L 314.379878 101.587228 
L 315.220951 104.412382 
L 316.062025 108.996142 
L 316.903099 121.979506 
L 317.744173 115.009177 
L 318.585247 114.215249 
L 319.426321 105.092765 
L 320.267395 105.810053 
L 321.108469 98.665172 
L 321.949543 108.878936 
L 322.790617 105.201475 
L 323.631691 97.329905 
L 324.472765 93.909164 
L 325.313839 92.785868 
L 326.154913 98.895276 
L 326.995987 99.664771 
L 327.837061 89.354642 
L 328.678135 92.657564 
L 329.519209 104.598368 
L 330.360283 101.57839 
L 331.201357 96.901968 
L 332.042431 100.64704 
L 332.883504 103.05346 
L 333.724578 91.824965 
L 335.406726 104.170869 
L 336.2478 99.970607 
L 337.088874 115.212964 
L 337.929948 107.462636 
L 338.771022 96.938293 
L 339.612096 95.296685 
L 340.45317 101.729975 
L 341.294244 88.428258 
L 342.135318 89.790143 
L 342.976392 102.993501 
L 343.817466 106.073432 
L 345.499614 98.850319 
L 347.181762 106.402051 
L 348.022836 107.627756 
L 348.86391 106.494191 
L 349.704984 107.086767 
L 350.546057 95.818352 
L 351.387131 106.996231 
L 352.228205 111.575358 
L 353.069279 104.060917 
L 353.910353 103.956854 
L 354.751427 107.649117 
L 355.592501 96.369263 
L 356.433575 104.719608 
L 357.274649 108.123591 
L 358.115723 92.423097 
L 358.956797 100.184951 
L 359.797871 93.830116 
L 360.638945 96.247392 
L 361.480019 96.680025 
L 362.321093 98.5564 
L 363.162167 95.452013 
L 364.003241 93.978315 
L 364.844315 86.284379 
L 365.685389 82.254103 
L 366.526463 92.055783 
L 367.367537 90.53863 
L 368.20861 91.28489 
L 369.049684 94.395327 
L 369.890758 96.433968 
L 370.731832 84.162473 
L 371.572906 95.316497 
L 372.41398 89.88838 
L 373.255054 99.655298 
L 374.096128 88.9673 
L 374.937202 88.622123 
L 375.778276 89.012923 
L 376.61935 90.866463 
L 377.460424 99.299436 
L 378.301498 88.395309 
L 379.142572 93.449812 
L 379.983646 90.332529 
L 380.82472 92.014362 
L 381.665794 95.154651 
L 382.506868 94.925662 
L 383.347942 88.118534 
L 384.189016 91.937347 
L 385.030089 94.997261 
L 385.871163 93.002247 
L 386.712237 87.35907 
L 387.553311 94.760522 
L 388.394385 99.326654 
L 389.235459 90.235842 
L 390.076533 96.456542 
L 390.917607 86.998489 
L 391.758681 86.517539 
L 392.599755 88.422589 
L 393.440829 84.573375 
L 394.281903 90.758269 
L 395.122977 86.448762 
L 395.964051 89.832172 
L 396.805125 96.657515 
L 397.646199 86.865569 
L 398.487273 92.776823 
L 398.487273 92.776823 
" style="fill:none;stroke:#008000;stroke-dasharray:9.6,2.4,1.5,2.4;stroke-dashoffset:0;stroke-width:1.5;"/>
   </g>
   <g id="line2d_33">
    <path clip-path="url(#pce69c9f6e8)" d="M 73.832727 151.489256 
L 74.673801 137.579862 
L 75.514875 145.859674 
L 76.355949 136.39194 
L 77.197023 129.578069 
L 78.038097 131.814946 
L 78.879171 115.926713 
L 79.720245 110.951985 
L 80.561319 116.396028 
L 81.402393 107.536194 
L 82.243467 87.957425 
L 83.084541 102.360696 
L 83.925615 62.49394 
L 84.766689 106.353387 
L 85.607763 106.086415 
L 86.448837 99.009391 
L 87.289911 65.942589 
L 88.130984 99.397833 
L 88.972058 92.354902 
L 89.813132 102.156994 
L 90.654206 60.604265 
L 91.49528 104.776932 
L 92.336354 82.487999 
L 93.177428 97.237086 
L 94.018502 100.666498 
L 94.859576 74.662142 
L 95.70065 109.63611 
L 96.541724 72.348396 
L 97.382798 104.585774 
L 98.223872 103.902279 
L 99.064946 74.827751 
L 99.90602 107.39254 
L 100.747094 78.481423 
L 101.588168 60.788097 
L 102.429242 63.420197 
L 103.270316 103.612686 
L 104.11139 104.782434 
L 104.952463 106.774118 
L 105.793537 61.480473 
L 106.634611 110.628189 
L 107.475685 93.041271 
L 108.316759 101.247713 
L 109.157833 70.104886 
L 109.998907 102.669909 
L 110.839981 105.13282 
L 111.681055 106.126309 
L 112.522129 98.260024 
L 113.363203 112.824792 
L 114.204277 90.532107 
L 115.045351 123.394005 
L 115.886425 87.881108 
L 116.727499 117.888034 
L 117.568573 84.398626 
L 118.409647 79.630018 
L 119.250721 112.64918 
L 120.091795 110.816638 
L 120.932869 93.344188 
L 121.773943 83.708908 
L 122.615016 62.382102 
L 123.45609 106.571159 
L 124.297164 67.079055 
L 125.979312 104.481286 
L 126.820386 102.589541 
L 127.66146 86.616652 
L 128.502534 77.338753 
L 129.343608 76.253489 
L 130.184682 87.455811 
L 131.025756 92.396575 
L 131.86683 83.343097 
L 132.707904 82.849288 
L 133.548978 66.380885 
L 134.390052 67.612997 
L 135.231126 74.272693 
L 136.0722 95.836566 
L 136.913274 90.815722 
L 137.754348 88.803137 
L 138.595422 79.994813 
L 139.436496 103.923048 
L 140.277569 91.832964 
L 141.118643 98.655106 
L 141.959717 73.498862 
L 142.800791 70.757219 
L 143.641865 81.540351 
L 144.482939 66.003674 
L 145.324013 80.798264 
L 146.165087 64.86987 
L 147.006161 87.062349 
L 147.847235 62.664162 
L 148.688309 62.491823 
L 149.529383 87.325463 
L 150.370457 58.307593 
L 151.211531 69.467047 
L 152.052605 76.867452 
L 152.893679 64.062819 
L 153.734753 69.73029 
L 154.575827 69.985141 
L 155.416901 61.845083 
L 156.257975 91.196339 
L 157.099049 61.348336 
L 157.940122 60.322997 
L 158.781196 68.525016 
L 159.62227 74.604239 
L 160.463344 108.910235 
L 161.304418 93.203648 
L 162.145492 59.463521 
L 162.986566 104.408324 
L 163.82764 94.959217 
L 164.668714 105.646033 
L 165.509788 97.741516 
L 166.350862 62.954213 
L 167.191936 109.114936 
L 168.03301 64.556842 
L 168.874084 109.255822 
L 169.715158 89.996903 
L 170.556232 73.650993 
L 171.397306 95.88016 
L 172.23838 75.473349 
L 173.079454 89.627858 
L 173.920528 70.734363 
L 174.761602 76.227221 
L 175.602675 60.752001 
L 176.443749 61.844348 
L 177.284823 104.60687 
L 178.125897 94.132558 
L 178.966971 73.609792 
L 179.808045 99.576712 
L 180.649119 100.17391 
L 181.490193 76.856455 
L 182.331267 62.40633 
L 183.172341 72.867669 
L 184.013415 90.449952 
L 184.854489 113.242866 
L 185.695563 125.533124 
L 186.536637 115.159637 
L 187.377711 117.501325 
L 188.218785 106.22764 
L 189.059859 79.28099 
L 189.900933 99.21755 
L 190.742007 77.435832 
L 191.583081 99.391652 
L 192.424154 66.322957 
L 193.265228 75.09712 
L 194.106302 71.343481 
L 194.947376 62.056563 
L 195.78845 88.132286 
L 196.629524 102.71109 
L 197.470598 64.141789 
L 198.311672 73.978917 
L 199.152746 110.006357 
L 200.834894 75.628832 
L 201.675968 70.379029 
L 202.517042 86.161311 
L 203.358116 107.841651 
L 204.19919 63.60705 
L 205.040264 104.505428 
L 205.881338 116.322583 
L 206.722412 91.507586 
L 207.563486 77.198406 
L 208.40456 99.712881 
L 209.245634 108.67645 
L 210.086707 120.62358 
L 210.927781 102.56707 
L 211.768855 114.673103 
L 212.609929 112.16242 
L 213.451003 107.824908 
L 214.292077 112.152814 
L 215.133151 115.195005 
L 215.974225 120.422401 
L 216.815299 115.481414 
L 217.656373 122.797184 
L 218.497447 116.142913 
L 219.338521 121.304883 
L 221.020669 107.695593 
L 221.861743 109.539806 
L 222.702817 116.528968 
L 223.543891 121.819475 
L 224.384965 111.499923 
L 225.226039 121.064997 
L 226.067113 122.814843 
L 226.908187 87.155318 
L 227.74926 114.600526 
L 228.590334 100.327698 
L 229.431408 75.777118 
L 230.272482 74.854291 
L 231.113556 109.918321 
L 231.95463 109.055156 
L 232.795704 71.760783 
L 233.636778 87.836752 
L 234.477852 83.186023 
L 235.318926 77.060908 
L 236.16 88.401665 
L 237.001074 82.927184 
L 237.842148 81.179608 
L 238.683222 90.901619 
L 239.524296 70.842797 
L 240.36537 64.645689 
L 241.206444 97.38531 
L 242.047518 83.189319 
L 242.888592 115.083203 
L 243.729666 80.826381 
L 244.57074 100.466823 
L 245.411813 99.457272 
L 246.252887 111.640856 
L 247.093961 71.629007 
L 247.935035 94.150115 
L 248.776109 91.729089 
L 249.617183 69.304183 
L 251.299331 84.54055 
L 252.140405 60.884018 
L 252.981479 85.528148 
L 253.822553 65.44782 
L 254.663627 77.480608 
L 255.504701 68.867379 
L 256.345775 105.998061 
L 257.186849 99.850985 
L 258.027923 96.917001 
L 258.868997 102.849244 
L 259.710071 98.93382 
L 260.551145 85.840948 
L 261.392219 97.648875 
L 262.233293 90.220262 
L 263.074366 70.19276 
L 263.91544 66.932357 
L 264.756514 90.509718 
L 265.597588 68.933922 
L 266.438662 85.555571 
L 267.279736 66.947299 
L 268.12081 66.942068 
L 268.961884 68.42279 
L 269.802958 60.772419 
L 270.644032 63.34919 
L 271.485106 61.690438 
L 272.32618 62.775631 
L 273.167254 62.721188 
L 274.008328 76.760178 
L 274.849402 68.626911 
L 275.690476 67.25141 
L 276.53155 62.022848 
L 277.372624 61.129095 
L 278.213698 65.025767 
L 279.054772 64.180412 
L 279.895846 65.337655 
L 280.736919 70.667135 
L 281.577993 67.376953 
L 282.419067 61.918268 
L 283.260141 62.510671 
L 284.101215 63.875351 
L 284.942289 74.257107 
L 285.783363 62.780454 
L 286.624437 63.218655 
L 287.465511 63.94931 
L 288.306585 61.623991 
L 289.147659 62.146342 
L 290.829807 70.157241 
L 291.670881 60.242495 
L 292.511955 61.896288 
L 293.353029 61.398243 
L 294.194103 63.953172 
L 295.035177 62.917204 
L 295.876251 63.573398 
L 296.717325 65.101817 
L 297.558398 61.647542 
L 298.399472 61.932885 
L 299.240546 60.557432 
L 300.08162 67.73943 
L 300.922694 63.945092 
L 301.763768 90.376212 
L 302.604842 75.759832 
L 303.445916 63.867755 
L 304.28699 78.303202 
L 305.128064 67.175017 
L 305.969138 76.569946 
L 306.810212 80.092695 
L 307.651286 61.436476 
L 308.49236 61.258539 
L 309.333434 64.709615 
L 310.174508 61.524267 
L 311.015582 65.374483 
L 311.856656 65.899839 
L 312.69773 61.626713 
L 313.538804 61.330073 
L 314.379878 62.729201 
L 315.220951 60.783409 
L 316.062025 60.280207 
L 316.903099 64.818334 
L 317.744173 72.998933 
L 318.585247 62.954559 
L 319.426321 60.357265 
L 321.108469 57.978973 
L 321.949543 62.928832 
L 322.790617 57.880389 
L 323.631691 58.868335 
L 324.472765 62.369247 
L 325.313839 56.916535 
L 326.154913 68.980586 
L 326.995987 60.205686 
L 327.837061 58.54461 
L 328.678135 57.214868 
L 329.519209 63.818011 
L 330.360283 64.08608 
L 331.201357 61.575449 
L 332.042431 64.422152 
L 332.883504 55.41985 
L 333.724578 53.568 
L 334.565652 58.689794 
L 335.406726 57.887052 
L 336.2478 58.139837 
L 337.088874 66.319834 
L 337.929948 62.776768 
L 338.771022 56.391956 
L 339.612096 59.101265 
L 340.45317 57.597287 
L 341.294244 55.466909 
L 342.135318 55.221208 
L 342.976392 60.41166 
L 343.817466 68.288085 
L 344.65854 62.767779 
L 345.499614 61.854214 
L 346.340688 67.026767 
L 347.181762 73.427929 
L 348.022836 64.182321 
L 348.86391 67.204822 
L 349.704984 64.951265 
L 350.546057 67.365631 
L 351.387131 65.746865 
L 352.228205 80.259455 
L 353.069279 65.559314 
L 353.910353 64.00553 
L 354.751427 63.665211 
L 355.592501 64.802569 
L 356.433575 63.980575 
L 357.274649 73.562577 
L 358.115723 62.005232 
L 358.956797 69.705893 
L 359.797871 63.473506 
L 360.638945 65.750841 
L 361.480019 63.691123 
L 362.321093 64.23416 
L 364.003241 63.141967 
L 364.844315 62.735014 
L 365.685389 61.932348 
L 366.526463 62.027422 
L 367.367537 62.453855 
L 368.20861 62.28022 
L 369.049684 64.364966 
L 369.890758 65.447858 
L 370.731832 63.006806 
L 371.572906 61.289538 
L 372.41398 64.075416 
L 373.255054 63.917148 
L 374.096128 62.982422 
L 374.937202 65.106453 
L 375.778276 63.089809 
L 376.61935 62.984225 
L 377.460424 65.581487 
L 378.301498 61.569614 
L 379.142572 63.587604 
L 379.983646 60.781567 
L 380.82472 62.873501 
L 381.665794 65.932876 
L 382.506868 61.829872 
L 383.347942 61.990816 
L 384.189016 62.658156 
L 385.030089 68.905907 
L 385.871163 63.025722 
L 386.712237 59.763671 
L 387.553311 62.835517 
L 388.394385 62.768984 
L 389.235459 65.860034 
L 390.076533 61.575747 
L 391.758681 61.341951 
L 392.599755 61.383312 
L 393.440829 60.073351 
L 394.281903 61.397913 
L 395.122977 57.978115 
L 395.964051 61.330106 
L 396.805125 61.537742 
L 397.646199 60.806889 
L 398.487273 63.948703 
L 398.487273 63.948703 
" style="fill:none;stroke:#ff0000;stroke-linecap:square;stroke-width:1.5;"/>
   </g>
   <g id="patch_3">
    <path d="M 57.6 307.584 
L 57.6 41.472 
" style="fill:none;stroke:#000000;stroke-linecap:square;stroke-linejoin:miter;stroke-width:0.8;"/>
   </g>
   <g id="patch_4">
    <path d="M 414.72 307.584 
L 414.72 41.472 
" style="fill:none;stroke:#000000;stroke-linecap:square;stroke-linejoin:miter;stroke-width:0.8;"/>
   </g>
   <g id="patch_5">
    <path d="M 57.6 307.584 
L 414.72 307.584 
" style="fill:none;stroke:#000000;stroke-linecap:square;stroke-linejoin:miter;stroke-width:0.8;"/>
   </g>
   <g id="patch_6">
    <path d="M 57.6 41.472 
L 414.72 41.472 
" style="fill:none;stroke:#000000;stroke-linecap:square;stroke-linejoin:miter;stroke-width:0.8;"/>
   </g>
   <g id="text_16">
    <!-- Population's average and best fitness -->
    <defs>
     <path d="M 19.671875 64.796875 
L 19.671875 37.40625 
L 32.078125 37.40625 
Q 38.96875 37.40625 42.71875 40.96875 
Q 46.484375 44.53125 46.484375 51.125 
Q 46.484375 57.671875 42.71875 61.234375 
Q 38.96875 64.796875 32.078125 64.796875 
z
M 9.8125 72.90625 
L 32.078125 72.90625 
Q 44.34375 72.90625 50.609375 67.359375 
Q 56.890625 61.8125 56.890625 51.125 
Q 56.890625 40.328125 50.609375 34.8125 
Q 44.34375 29.296875 32.078125 29.296875 
L 19.671875 29.296875 
L 19.671875 0 
L 9.8125 0 
z
" id="DejaVuSans-50"/>
     <path d="M 18.109375 8.203125 
L 18.109375 -20.796875 
L 9.078125 -20.796875 
L 9.078125 54.6875 
L 18.109375 54.6875 
L 18.109375 46.390625 
Q 20.953125 51.265625 25.265625 53.625 
Q 29.59375 56 35.59375 56 
Q 45.5625 56 51.78125 48.09375 
Q 58.015625 40.1875 58.015625 27.296875 
Q 58.015625 14.40625 51.78125 6.484375 
Q 45.5625 -1.421875 35.59375 -1.421875 
Q 29.59375 -1.421875 25.265625 0.953125 
Q 20.953125 3.328125 18.109375 8.203125 
z
M 48.6875 27.296875 
Q 48.6875 37.203125 44.609375 42.84375 
Q 40.53125 48.484375 33.40625 48.484375 
Q 26.265625 48.484375 22.1875 42.84375 
Q 18.109375 37.203125 18.109375 27.296875 
Q 18.109375 17.390625 22.1875 11.75 
Q 26.265625 6.109375 33.40625 6.109375 
Q 40.53125 6.109375 44.609375 11.75 
Q 48.6875 17.390625 48.6875 27.296875 
z
" id="DejaVuSans-70"/>
     <path d="M 8.5 21.578125 
L 8.5 54.6875 
L 17.484375 54.6875 
L 17.484375 21.921875 
Q 17.484375 14.15625 20.5 10.265625 
Q 23.53125 6.390625 29.59375 6.390625 
Q 36.859375 6.390625 41.078125 11.03125 
Q 45.3125 15.671875 45.3125 23.6875 
L 45.3125 54.6875 
L 54.296875 54.6875 
L 54.296875 0 
L 45.3125 0 
L 45.3125 8.40625 
Q 42.046875 3.421875 37.71875 1 
Q 33.40625 -1.421875 27.6875 -1.421875 
Q 18.265625 -1.421875 13.375 4.4375 
Q 8.5 10.296875 8.5 21.578125 
z
M 31.109375 56 
z
" id="DejaVuSans-75"/>
     <path d="M 9.421875 75.984375 
L 18.40625 75.984375 
L 18.40625 0 
L 9.421875 0 
z
" id="DejaVuSans-6c"/>
     <path d="M 17.921875 72.90625 
L 17.921875 45.796875 
L 9.625 45.796875 
L 9.625 72.90625 
z
" id="DejaVuSans-27"/>
     <path id="DejaVuSans-20"/>
     <path d="M 2.984375 54.6875 
L 12.5 54.6875 
L 29.59375 8.796875 
L 46.6875 54.6875 
L 56.203125 54.6875 
L 35.6875 0 
L 23.484375 0 
z
" id="DejaVuSans-76"/>
     <path d="M 45.40625 27.984375 
Q 45.40625 37.75 41.375 43.109375 
Q 37.359375 48.484375 30.078125 48.484375 
Q 22.859375 48.484375 18.828125 43.109375 
Q 14.796875 37.75 14.796875 27.984375 
Q 14.796875 18.265625 18.828125 12.890625 
Q 22.859375 7.515625 30.078125 7.515625 
Q 37.359375 7.515625 41.375 12.890625 
Q 45.40625 18.265625 45.40625 27.984375 
z
M 54.390625 6.78125 
Q 54.390625 -7.171875 48.1875 -13.984375 
Q 42 -20.796875 29.203125 -20.796875 
Q 24.46875 -20.796875 20.265625 -20.09375 
Q 16.0625 -19.390625 12.109375 -17.921875 
L 12.109375 -9.1875 
Q 16.0625 -11.328125 19.921875 -12.34375 
Q 23.78125 -13.375 27.78125 -13.375 
Q 36.625 -13.375 41.015625 -8.765625 
Q 45.40625 -4.15625 45.40625 5.171875 
L 45.40625 9.625 
Q 42.625 4.78125 38.28125 2.390625 
Q 33.9375 0 27.875 0 
Q 17.828125 0 11.671875 7.65625 
Q 5.515625 15.328125 5.515625 27.984375 
Q 5.515625 40.671875 11.671875 48.328125 
Q 17.828125 56 27.875 56 
Q 33.9375 56 38.28125 53.609375 
Q 42.625 51.21875 45.40625 46.390625 
L 45.40625 54.6875 
L 54.390625 54.6875 
z
" id="DejaVuSans-67"/>
     <path d="M 45.40625 46.390625 
L 45.40625 75.984375 
L 54.390625 75.984375 
L 54.390625 0 
L 45.40625 0 
L 45.40625 8.203125 
Q 42.578125 3.328125 38.25 0.953125 
Q 33.9375 -1.421875 27.875 -1.421875 
Q 17.96875 -1.421875 11.734375 6.484375 
Q 5.515625 14.40625 5.515625 27.296875 
Q 5.515625 40.1875 11.734375 48.09375 
Q 17.96875 56 27.875 56 
Q 33.9375 56 38.25 53.625 
Q 42.578125 51.265625 45.40625 46.390625 
z
M 14.796875 27.296875 
Q 14.796875 17.390625 18.875 11.75 
Q 22.953125 6.109375 30.078125 6.109375 
Q 37.203125 6.109375 41.296875 11.75 
Q 45.40625 17.390625 45.40625 27.296875 
Q 45.40625 37.203125 41.296875 42.84375 
Q 37.203125 48.484375 30.078125 48.484375 
Q 22.953125 48.484375 18.875 42.84375 
Q 14.796875 37.203125 14.796875 27.296875 
z
" id="DejaVuSans-64"/>
     <path d="M 48.6875 27.296875 
Q 48.6875 37.203125 44.609375 42.84375 
Q 40.53125 48.484375 33.40625 48.484375 
Q 26.265625 48.484375 22.1875 42.84375 
Q 18.109375 37.203125 18.109375 27.296875 
Q 18.109375 17.390625 22.1875 11.75 
Q 26.265625 6.109375 33.40625 6.109375 
Q 40.53125 6.109375 44.609375 11.75 
Q 48.6875 17.390625 48.6875 27.296875 
z
M 18.109375 46.390625 
Q 20.953125 51.265625 25.265625 53.625 
Q 29.59375 56 35.59375 56 
Q 45.5625 56 51.78125 48.09375 
Q 58.015625 40.1875 58.015625 27.296875 
Q 58.015625 14.40625 51.78125 6.484375 
Q 45.5625 -1.421875 35.59375 -1.421875 
Q 29.59375 -1.421875 25.265625 0.953125 
Q 20.953125 3.328125 18.109375 8.203125 
L 18.109375 0 
L 9.078125 0 
L 9.078125 75.984375 
L 18.109375 75.984375 
z
" id="DejaVuSans-62"/>
     <path d="M 37.109375 75.984375 
L 37.109375 68.5 
L 28.515625 68.5 
Q 23.6875 68.5 21.796875 66.546875 
Q 19.921875 64.59375 19.921875 59.515625 
L 19.921875 54.6875 
L 34.71875 54.6875 
L 34.71875 47.703125 
L 19.921875 47.703125 
L 19.921875 0 
L 10.890625 0 
L 10.890625 47.703125 
L 2.296875 47.703125 
L 2.296875 54.6875 
L 10.890625 54.6875 
L 10.890625 58.5 
Q 10.890625 67.625 15.140625 71.796875 
Q 19.390625 75.984375 28.609375 75.984375 
z
" id="DejaVuSans-66"/>
    </defs>
    <g transform="translate(123.315 35.472)scale(0.12 -0.12)">
     <use xlink:href="#DejaVuSans-50"/>
     <use x="60.255859" xlink:href="#DejaVuSans-6f"/>
     <use x="121.4375" xlink:href="#DejaVuSans-70"/>
     <use x="184.914062" xlink:href="#DejaVuSans-75"/>
     <use x="248.292969" xlink:href="#DejaVuSans-6c"/>
     <use x="276.076172" xlink:href="#DejaVuSans-61"/>
     <use x="337.355469" xlink:href="#DejaVuSans-74"/>
     <use x="376.564453" xlink:href="#DejaVuSans-69"/>
     <use x="404.347656" xlink:href="#DejaVuSans-6f"/>
     <use x="465.529297" xlink:href="#DejaVuSans-6e"/>
     <use x="528.908203" xlink:href="#DejaVuSans-27"/>
     <use x="556.398438" xlink:href="#DejaVuSans-73"/>
     <use x="608.498047" xlink:href="#DejaVuSans-20"/>
     <use x="640.285156" xlink:href="#DejaVuSans-61"/>
     <use x="701.564453" xlink:href="#DejaVuSans-76"/>
     <use x="760.744141" xlink:href="#DejaVuSans-65"/>
     <use x="822.267578" xlink:href="#DejaVuSans-72"/>
     <use x="863.380859" xlink:href="#DejaVuSans-61"/>
     <use x="924.660156" xlink:href="#DejaVuSans-67"/>
     <use x="988.136719" xlink:href="#DejaVuSans-65"/>
     <use x="1049.660156" xlink:href="#DejaVuSans-20"/>
     <use x="1081.447266" xlink:href="#DejaVuSans-61"/>
     <use x="1142.726562" xlink:href="#DejaVuSans-6e"/>
     <use x="1206.105469" xlink:href="#DejaVuSans-64"/>
     <use x="1269.582031" xlink:href="#DejaVuSans-20"/>
     <use x="1301.369141" xlink:href="#DejaVuSans-62"/>
     <use x="1364.845703" xlink:href="#DejaVuSans-65"/>
     <use x="1426.369141" xlink:href="#DejaVuSans-73"/>
     <use x="1478.46875" xlink:href="#DejaVuSans-74"/>
     <use x="1517.677734" xlink:href="#DejaVuSans-20"/>
     <use x="1549.464844" xlink:href="#DejaVuSans-66"/>
     <use x="1584.669922" xlink:href="#DejaVuSans-69"/>
     <use x="1612.453125" xlink:href="#DejaVuSans-74"/>
     <use x="1651.662109" xlink:href="#DejaVuSans-6e"/>
     <use x="1715.041016" xlink:href="#DejaVuSans-65"/>
     <use x="1776.564453" xlink:href="#DejaVuSans-73"/>
     <use x="1828.664062" xlink:href="#DejaVuSans-73"/>
    </g>
   </g>
   <g id="legend_1">
    <g id="patch_7">
     <path d="M 334.779375 302.584 
L 407.72 302.584 
Q 409.72 302.584 409.72 300.584 
L 409.72 257.549625 
Q 409.72 255.549625 407.72 255.549625 
L 334.779375 255.549625 
Q 332.779375 255.549625 332.779375 257.549625 
L 332.779375 300.584 
Q 332.779375 302.584 334.779375 302.584 
z
" style="fill:#ffffff;opacity:0.8;stroke:#cccccc;stroke-linejoin:miter;"/>
    </g>
    <g id="line2d_34">
     <path d="M 336.779375 263.648062 
L 356.779375 263.648062 
" style="fill:none;stroke:#0000ff;stroke-linecap:square;stroke-width:1.5;"/>
    </g>
    <g id="line2d_35"/>
    <g id="text_17">
     <!-- average -->
     <g transform="translate(364.779375 267.148062)scale(0.1 -0.1)">
      <use xlink:href="#DejaVuSans-61"/>
      <use x="61.279297" xlink:href="#DejaVuSans-76"/>
      <use x="120.458984" xlink:href="#DejaVuSans-65"/>
      <use x="181.982422" xlink:href="#DejaVuSans-72"/>
      <use x="223.095703" xlink:href="#DejaVuSans-61"/>
      <use x="284.375" xlink:href="#DejaVuSans-67"/>
      <use x="347.851562" xlink:href="#DejaVuSans-65"/>
     </g>
    </g>
    <g id="line2d_36">
     <path d="M 336.779375 278.326188 
L 356.779375 278.326188 
" style="fill:none;stroke:#008000;stroke-dasharray:9.6,2.4,1.5,2.4;stroke-dashoffset:0;stroke-width:1.5;"/>
    </g>
    <g id="line2d_37"/>
    <g id="text_18">
     <!-- +1 sd -->
     <defs>
      <path d="M 46 62.703125 
L 46 35.5 
L 73.1875 35.5 
L 73.1875 27.203125 
L 46 27.203125 
L 46 0 
L 37.796875 0 
L 37.796875 27.203125 
L 10.59375 27.203125 
L 10.59375 35.5 
L 37.796875 35.5 
L 37.796875 62.703125 
z
" id="DejaVuSans-2b"/>
     </defs>
     <g transform="translate(364.779375 281.826188)scale(0.1 -0.1)">
      <use xlink:href="#DejaVuSans-2b"/>
      <use x="83.789062" xlink:href="#DejaVuSans-31"/>
      <use x="147.412109" xlink:href="#DejaVuSans-20"/>
      <use x="179.199219" xlink:href="#DejaVuSans-73"/>
      <use x="231.298828" xlink:href="#DejaVuSans-64"/>
     </g>
    </g>
    <g id="line2d_38">
     <path d="M 336.779375 293.004312 
L 356.779375 293.004312 
" style="fill:none;stroke:#ff0000;stroke-linecap:square;stroke-width:1.5;"/>
    </g>
    <g id="line2d_39"/>
    <g id="text_19">
     <!-- best -->
     <g transform="translate(364.779375 296.504312)scale(0.1 -0.1)">
      <use xlink:href="#DejaVuSans-62"/>
      <use x="63.476562" xlink:href="#DejaVuSans-65"/>
      <use x="125" xlink:href="#DejaVuSans-73"/>
      <use x="177.099609" xlink:href="#DejaVuSans-74"/>
     </g>
    </g>
   </g>
  </g>
 </g>
 <defs>
  <clipPath id="pce69c9f6e8">
   <rect height="266.112" width="357.12" x="57.6" y="41.472"/>
  </clipPath>
 </defs>
</svg>
