<?xml version="1.0" encoding="UTF-8" standalone="no"?>
<!DOCTYPE svg PUBLIC "-//W3C//DTD SVG 1.1//EN"
 "http://www.w3.org/Graphics/SVG/1.1/DTD/svg11.dtd">
<!-- Generated by graphviz version 2.38.0 (20140413.2041)
 -->
<!-- Title: %3 Pages: 1 -->
<svg width="2383pt" height="362pt"
 viewBox="0.00 0.00 2382.50 362.46" xmlns="http://www.w3.org/2000/svg" xmlns:xlink="http://www.w3.org/1999/xlink">
<g id="graph0" class="graph" transform="scale(1 1) rotate(0) translate(4 358.458)">
<title>%3</title>
<polygon fill="white" stroke="none" points="-4,4 -4,-358.458 2378.5,-358.458 2378.5,4 -4,4"/>
<!-- wallRadar[1,0] -->
<g id="node1" class="node"><title>wallRadar[1,0]</title>
<polygon fill="lightgray" stroke="black" points="70,-354.458 0,-354.458 0,-336.458 70,-336.458 70,-354.458"/>
<text text-anchor="middle" x="35" y="-343.258" font-family="Times,serif" font-size="9.00">wallRadar[1,0]</text>
</g>
<!-- wallRadar[0,1] -->
<g id="node2" class="node"><title>wallRadar[0,1]</title>
<polygon fill="lightgray" stroke="black" points="158,-354.458 88,-354.458 88,-336.458 158,-336.458 158,-354.458"/>
<text text-anchor="middle" x="123" y="-343.258" font-family="Times,serif" font-size="9.00">wallRadar[0,1]</text>
</g>
<!-- wallRadar[&#45;1,0] -->
<g id="node3" class="node"><title>wallRadar[&#45;1,0]</title>
<polygon fill="lightgray" stroke="black" points="249.5,-354.458 176.5,-354.458 176.5,-336.458 249.5,-336.458 249.5,-354.458"/>
<text text-anchor="middle" x="213" y="-343.258" font-family="Times,serif" font-size="9.00">wallRadar[&#45;1,0]</text>
</g>
<!-- Shoot -->
<g id="node24" class="node"><title>Shoot</title>
<ellipse fill="lightblue" stroke="black" cx="108" cy="-77.0746" rx="26.7407" ry="26.7407"/>
<text text-anchor="middle" x="108" y="-74.8746" font-family="Times,serif" font-size="9.00">Shoot</text>
</g>
<!-- wallRadar[&#45;1,0]&#45;&gt;Shoot -->
<g id="edge4" class="edge"><title>wallRadar[&#45;1,0]&#45;&gt;Shoot</title>
<path fill="none" stroke="green" stroke-width="0.9083" stroke-dasharray="1,5" d="M176.347,-337.661C127.86,-328.302 47.4945,-311.368 39,-300.458 -7.05696,-241.305 49.8295,-151.147 84.6778,-105.952"/>
<polygon fill="green" stroke="green" stroke-width="0.9083" points="87.4606,-108.075 90.8985,-98.0536 81.9614,-103.744 87.4606,-108.075"/>
</g>
<!-- Move Forward/Backward -->
<g id="node25" class="node"><title>Move Forward/Backward</title>
<ellipse fill="lightblue" stroke="black" cx="269" cy="-77.0746" rx="77.1494" ry="77.1494"/>
<text text-anchor="middle" x="269" y="-74.8746" font-family="Times,serif" font-size="9.00">Move Forward/Backward</text>
</g>
<!-- wallRadar[&#45;1,0]&#45;&gt;Move Forward/Backward -->
<g id="edge2" class="edge"><title>wallRadar[&#45;1,0]&#45;&gt;Move Forward/Backward</title>
<path fill="none" stroke="red" stroke-width="0.166013" stroke-dasharray="1,5" d="M222.465,-336.457C231.291,-328.375 243.972,-315.03 250,-300.458 267.654,-257.779 272.987,-206.633 273.646,-164.157"/>
<polygon fill="red" stroke="red" stroke-width="0.166013" points="277.146,-164.142 273.718,-154.117 270.146,-164.092 277.146,-164.142"/>
</g>
<!-- 66953 -->
<g id="node29" class="node"><title>66953</title>
<ellipse fill="white" stroke="black" cx="213" cy="-245.304" rx="27.6545" ry="27.6545"/>
<text text-anchor="middle" x="213" y="-243.104" font-family="Times,serif" font-size="9.00">66953</text>
</g>
<!-- wallRadar[&#45;1,0]&#45;&gt;66953 -->
<g id="edge8" class="edge"><title>wallRadar[&#45;1,0]&#45;&gt;66953</title>
<path fill="none" stroke="red" stroke-width="0.451" d="M213,-336.426C213,-324.86 213,-302.77 213,-283.356"/>
<polygon fill="red" stroke="red" stroke-width="0.451" points="216.5,-283.224 213,-273.224 209.5,-283.224 216.5,-283.224"/>
</g>
<!-- wallRadar[0,&#45;1] -->
<g id="node4" class="node"><title>wallRadar[0,&#45;1]</title>
<polygon fill="lightgray" stroke="black" points="340.5,-354.458 267.5,-354.458 267.5,-336.458 340.5,-336.458 340.5,-354.458"/>
<text text-anchor="middle" x="304" y="-343.258" font-family="Times,serif" font-size="9.00">wallRadar[0,&#45;1]</text>
</g>
<!-- wallRadar[0.7,0.7] -->
<g id="node5" class="node"><title>wallRadar[0.7,0.7]</title>
<polygon fill="lightgray" stroke="black" points="441.5,-354.458 358.5,-354.458 358.5,-336.458 441.5,-336.458 441.5,-354.458"/>
<text text-anchor="middle" x="400" y="-343.258" font-family="Times,serif" font-size="9.00">wallRadar[0.7,0.7]</text>
</g>
<!-- wallRadar[&#45;0.7,0.7] -->
<g id="node6" class="node"><title>wallRadar[&#45;0.7,0.7]</title>
<polygon fill="lightgray" stroke="black" points="546,-354.458 460,-354.458 460,-336.458 546,-336.458 546,-354.458"/>
<text text-anchor="middle" x="503" y="-343.258" font-family="Times,serif" font-size="9.00">wallRadar[&#45;0.7,0.7]</text>
</g>
<!-- wallRadar[&#45;0.7,&#45;0.7] -->
<g id="node7" class="node"><title>wallRadar[&#45;0.7,&#45;0.7]</title>
<polygon fill="lightgray" stroke="black" points="653.5,-354.458 564.5,-354.458 564.5,-336.458 653.5,-336.458 653.5,-354.458"/>
<text text-anchor="middle" x="609" y="-343.258" font-family="Times,serif" font-size="9.00">wallRadar[&#45;0.7,&#45;0.7]</text>
</g>
<!-- wallRadar[0.7,&#45;0.7] -->
<g id="node8" class="node"><title>wallRadar[0.7,&#45;0.7]</title>
<polygon fill="lightgray" stroke="black" points="758,-354.458 672,-354.458 672,-336.458 758,-336.458 758,-354.458"/>
<text text-anchor="middle" x="715" y="-343.258" font-family="Times,serif" font-size="9.00">wallRadar[0.7,&#45;0.7]</text>
</g>
<!-- enemyRadar[RightBack] -->
<g id="node9" class="node"><title>enemyRadar[RightBack]</title>
<polygon fill="lightgray" stroke="black" points="880,-354.458 776,-354.458 776,-336.458 880,-336.458 880,-354.458"/>
<text text-anchor="middle" x="828" y="-343.258" font-family="Times,serif" font-size="9.00">enemyRadar[RightBack]</text>
</g>
<!-- enemyRadar[LeftBack] -->
<g id="node10" class="node"><title>enemyRadar[LeftBack]</title>
<polygon fill="lightgray" stroke="black" points="997.5,-354.458 898.5,-354.458 898.5,-336.458 997.5,-336.458 997.5,-354.458"/>
<text text-anchor="middle" x="948" y="-343.258" font-family="Times,serif" font-size="9.00">enemyRadar[LeftBack]</text>
</g>
<!-- enemyRadar[Right45ø] -->
<g id="node11" class="node"><title>enemyRadar[Right45ø]</title>
<polygon fill="lightgray" stroke="black" points="1116,-354.458 1016,-354.458 1016,-336.458 1116,-336.458 1116,-354.458"/>
<text text-anchor="middle" x="1066" y="-343.258" font-family="Times,serif" font-size="9.00">enemyRadar[Right45ø]</text>
</g>
<!-- enemyRadar[Left45ø] -->
<g id="node12" class="node"><title>enemyRadar[Left45ø]</title>
<polygon fill="lightgray" stroke="black" points="1229.5,-354.458 1134.5,-354.458 1134.5,-336.458 1229.5,-336.458 1229.5,-354.458"/>
<text text-anchor="middle" x="1182" y="-343.258" font-family="Times,serif" font-size="9.00">enemyRadar[Left45ø]</text>
</g>
<!-- enemyRadar[RightFront20ø] -->
<g id="node13" class="node"><title>enemyRadar[RightFront20ø]</title>
<polygon fill="lightgray" stroke="black" points="1366.5,-354.458 1247.5,-354.458 1247.5,-336.458 1366.5,-336.458 1366.5,-354.458"/>
<text text-anchor="middle" x="1307" y="-343.258" font-family="Times,serif" font-size="9.00">enemyRadar[RightFront20ø]</text>
</g>
<!-- enemyRadar[LeftFront20ø] -->
<g id="node14" class="node"><title>enemyRadar[LeftFront20ø]</title>
<polygon fill="lightgray" stroke="black" points="1499,-354.458 1385,-354.458 1385,-336.458 1499,-336.458 1499,-354.458"/>
<text text-anchor="middle" x="1442" y="-343.258" font-family="Times,serif" font-size="9.00">enemyRadar[LeftFront20ø]</text>
</g>
<!--  Move Left/Right -->
<g id="node26" class="node"><title> Move Left/Right</title>
<ellipse fill="lightblue" stroke="black" cx="1487" cy="-245.304" rx="55.3091" ry="55.3091"/>
<text text-anchor="middle" x="1487" y="-243.104" font-family="Times,serif" font-size="9.00"> Move Left/Right</text>
</g>
<!-- enemyRadar[LeftFront20ø]&#45;&gt; Move Left/Right -->
<g id="edge6" class="edge"><title>enemyRadar[LeftFront20ø]&#45;&gt; Move Left/Right</title>
<path fill="none" stroke="green" stroke-width="0.367394" d="M1445.68,-336.426C1449.06,-329.057 1454.4,-317.416 1460.13,-304.917"/>
<polygon fill="green" stroke="green" stroke-width="0.367394" points="1463.36,-306.262 1464.35,-295.713 1457,-303.345 1463.36,-306.262"/>
</g>
<!-- enemyRadar[RightFront15ø] -->
<g id="node15" class="node"><title>enemyRadar[RightFront15ø]</title>
<polygon fill="lightgray" stroke="black" points="167.5,-254.304 48.5,-254.304 48.5,-236.304 167.5,-236.304 167.5,-254.304"/>
<text text-anchor="middle" x="108" y="-243.104" font-family="Times,serif" font-size="9.00">enemyRadar[RightFront15ø]</text>
</g>
<!-- enemyRadar[RightFront15ø]&#45;&gt;Shoot -->
<g id="edge3" class="edge"><title>enemyRadar[RightFront15ø]&#45;&gt;Shoot</title>
<path fill="none" stroke="green" stroke-width="0.226105" stroke-dasharray="1,5" d="M108,-236.286C108,-214.616 108,-153.847 108,-114.241"/>
<polygon fill="green" stroke="green" stroke-width="0.226105" points="111.5,-114.174 108,-104.174 104.5,-114.174 111.5,-114.174"/>
</g>
<!-- enemyRadar[LeftFront15ø] -->
<g id="node16" class="node"><title>enemyRadar[LeftFront15ø]</title>
<polygon fill="lightgray" stroke="black" points="1681,-354.458 1567,-354.458 1567,-336.458 1681,-336.458 1681,-354.458"/>
<text text-anchor="middle" x="1624" y="-343.258" font-family="Times,serif" font-size="9.00">enemyRadar[LeftFront15ø]</text>
</g>
<!-- enemyRadar[RightFront7.5ø] -->
<g id="node17" class="node"><title>enemyRadar[RightFront7.5ø]</title>
<polygon fill="lightgray" stroke="black" points="1821,-354.458 1699,-354.458 1699,-336.458 1821,-336.458 1821,-354.458"/>
<text text-anchor="middle" x="1760" y="-343.258" font-family="Times,serif" font-size="9.00">enemyRadar[RightFront7.5ø]</text>
</g>
<!-- enemyRadar[LeftFront7.5ø] -->
<g id="node18" class="node"><title>enemyRadar[LeftFront7.5ø]</title>
<polygon fill="lightgray" stroke="black" points="1955,-354.458 1839,-354.458 1839,-336.458 1955,-336.458 1955,-354.458"/>
<text text-anchor="middle" x="1897" y="-343.258" font-family="Times,serif" font-size="9.00">enemyRadar[LeftFront7.5ø]</text>
</g>
<!-- enemyRadar[RightFront2.5ø] -->
<g id="node19" class="node"><title>enemyRadar[RightFront2.5ø]</title>
<polygon fill="lightgray" stroke="black" points="2095,-354.458 1973,-354.458 1973,-336.458 2095,-336.458 2095,-354.458"/>
<text text-anchor="middle" x="2034" y="-343.258" font-family="Times,serif" font-size="9.00">enemyRadar[RightFront2.5ø]</text>
</g>
<!-- enemyRadar[LeftFront2.5ø] -->
<g id="node20" class="node"><title>enemyRadar[LeftFront2.5ø]</title>
<polygon fill="lightgray" stroke="black" points="2229,-354.458 2113,-354.458 2113,-336.458 2229,-336.458 2229,-354.458"/>
<text text-anchor="middle" x="2171" y="-343.258" font-family="Times,serif" font-size="9.00">enemyRadar[LeftFront2.5ø]</text>
</g>
<!-- Turn left/right -->
<g id="node27" class="node"><title>Turn left/right</title>
<ellipse fill="lightblue" stroke="black" cx="2171" cy="-77.0746" rx="46.8387" ry="46.8387"/>
<text text-anchor="middle" x="2171" y="-74.8746" font-family="Times,serif" font-size="9.00">Turn left/right</text>
</g>
<!-- enemyRadar[LeftFront2.5ø]&#45;&gt;Turn left/right -->
<g id="edge1" class="edge"><title>enemyRadar[LeftFront2.5ø]&#45;&gt;Turn left/right</title>
<path fill="none" stroke="red" stroke-width="0.720491" d="M2168.85,-336.424C2166.62,-327.66 2163.29,-313.18 2162,-300.458 2156.28,-243.929 2160.1,-178.968 2164.39,-133.913"/>
<polygon fill="red" stroke="red" stroke-width="0.720491" points="2167.89,-134.057 2165.39,-123.761 2160.92,-133.366 2167.89,-134.057"/>
</g>
<!-- 67111 -->
<g id="node28" class="node"><title>67111</title>
<ellipse fill="white" stroke="black" cx="2199" cy="-245.304" rx="27.6545" ry="27.6545"/>
<text text-anchor="middle" x="2199" y="-243.104" font-family="Times,serif" font-size="9.00">67111</text>
</g>
<!-- enemyRadar[LeftFront2.5ø]&#45;&gt;67111 -->
<g id="edge10" class="edge"><title>enemyRadar[LeftFront2.5ø]&#45;&gt;67111</title>
<path fill="none" stroke="green" stroke-width="0.236653" d="M2173.29,-336.426C2176.69,-324.518 2183.27,-301.456 2188.92,-281.643"/>
<polygon fill="green" stroke="green" stroke-width="0.236653" points="2192.31,-282.525 2191.68,-271.948 2185.58,-280.605 2192.31,-282.525"/>
</g>
<!-- OnTarget -->
<g id="node21" class="node"><title>OnTarget</title>
<polygon fill="lightgray" stroke="black" points="2297,-354.458 2247,-354.458 2247,-336.458 2297,-336.458 2297,-354.458"/>
<text text-anchor="middle" x="2272" y="-343.258" font-family="Times,serif" font-size="9.00">OnTarget</text>
</g>
<!-- TakingDmg -->
<g id="node22" class="node"><title>TakingDmg</title>
<polygon fill="lightgray" stroke="black" points="2374.5,-354.458 2315.5,-354.458 2315.5,-336.458 2374.5,-336.458 2374.5,-354.458"/>
<text text-anchor="middle" x="2345" y="-343.258" font-family="Times,serif" font-size="9.00">TakingDmg</text>
</g>
<!-- bias -->
<g id="node23" class="node"><title>bias</title>
<polygon fill="lightgray" stroke="black" points="1548.5,-354.458 1517.5,-354.458 1517.5,-336.458 1548.5,-336.458 1548.5,-354.458"/>
<text text-anchor="middle" x="1533" y="-343.258" font-family="Times,serif" font-size="9.00">bias</text>
</g>
<!-- bias&#45;&gt; Move Left/Right -->
<g id="edge5" class="edge"><title>bias&#45;&gt; Move Left/Right</title>
<path fill="none" stroke="red" stroke-width="1.15778" stroke-dasharray="1,5" d="M1529.24,-336.426C1525.78,-329.057 1520.33,-317.416 1514.47,-304.917"/>
<polygon fill="red" stroke="red" stroke-width="1.15778" points="1517.57,-303.283 1510.16,-295.713 1511.23,-306.253 1517.57,-303.283"/>
</g>
<!-- 67111&#45;&gt;Turn left/right -->
<g id="edge11" class="edge"><title>67111&#45;&gt;Turn left/right</title>
<path fill="none" stroke="red" stroke-width="0.451238" d="M2194.56,-217.964C2190.76,-195.379 2185.15,-162.081 2180.36,-133.637"/>
<polygon fill="red" stroke="red" stroke-width="0.451238" points="2183.75,-132.685 2178.64,-123.406 2176.85,-133.848 2183.75,-132.685"/>
</g>
<!-- 66953&#45;&gt;Shoot -->
<g id="edge9" class="edge"><title>66953&#45;&gt;Shoot</title>
<path fill="none" stroke="green" stroke-width="0.989946" d="M198.62,-221.539C180.19,-192.36 148.16,-141.653 127.533,-108.998"/>
<polygon fill="green" stroke="green" stroke-width="0.989946" points="130.338,-106.885 122.039,-100.3 124.42,-110.623 130.338,-106.885"/>
</g>
<!-- 66953&#45;&gt;Move Forward/Backward -->
<g id="edge12" class="edge"><title>66953&#45;&gt;Move Forward/Backward</title>
<path fill="none" stroke="red" stroke-width="0.137642" d="M221.505,-219.057C226.889,-203.075 234.182,-181.427 241.436,-159.895"/>
<polygon fill="red" stroke="red" stroke-width="0.137642" points="244.772,-160.956 244.648,-150.362 238.138,-158.721 244.772,-160.956"/>
</g>
<!-- 66908 -->
<g id="node30" class="node"><title>66908</title>
<ellipse fill="white" stroke="black" cx="325" cy="-245.304" rx="27.6545" ry="27.6545"/>
<text text-anchor="middle" x="325" y="-243.104" font-family="Times,serif" font-size="9.00">66908</text>
</g>
<!-- 66908&#45;&gt;Move Forward/Backward -->
<g id="edge7" class="edge"><title>66908&#45;&gt;Move Forward/Backward</title>
<path fill="none" stroke="red" stroke-width="0.33297" d="M316.495,-219.057C311.111,-203.075 303.818,-181.427 296.564,-159.895"/>
<polygon fill="red" stroke="red" stroke-width="0.33297" points="299.862,-158.721 293.352,-150.362 293.228,-160.956 299.862,-158.721"/>
</g>
</g>
</svg>
