<?xml version="1.0" encoding="UTF-8" standalone="no"?>
<!DOCTYPE svg PUBLIC "-//W3C//DTD SVG 1.1//EN"
 "http://www.w3.org/Graphics/SVG/1.1/DTD/svg11.dtd">
<!-- Generated by graphviz version 2.38.0 (20140413.2041)
 -->
<!-- Title: %3 Pages: 1 -->
<svg width="2507pt" height="251pt"
 viewBox="0.00 0.00 2506.74 250.74" xmlns="http://www.w3.org/2000/svg" xmlns:xlink="http://www.w3.org/1999/xlink">
<g id="graph0" class="graph" transform="scale(1 1) rotate(0) translate(4 246.735)">
<title>%3</title>
<polygon fill="white" stroke="none" points="-4,4 -4,-246.735 2502.74,-246.735 2502.74,4 -4,4"/>
<!-- wallRadar[1,0] -->
<g id="node1" class="node"><title>wallRadar[1,0]</title>
<polygon fill="lightgray" stroke="black" points="1175.21,-176.522 1105.21,-176.522 1105.21,-158.522 1175.21,-158.522 1175.21,-176.522"/>
<text text-anchor="middle" x="1140.21" y="-165.322" font-family="Times,serif" font-size="9.00">wallRadar[1,0]</text>
</g>
<!-- Shoot -->
<g id="node23" class="node"><title>Shoot</title>
<ellipse fill="lightblue" stroke="black" cx="1371.21" cy="-55.1543" rx="26.7407" ry="26.7407"/>
<text text-anchor="middle" x="1371.21" y="-52.9543" font-family="Times,serif" font-size="9.00">Shoot</text>
</g>
<!-- wallRadar[1,0]&#45;&gt;Shoot -->
<g id="edge29" class="edge"><title>wallRadar[1,0]&#45;&gt;Shoot</title>
<path fill="none" stroke="green" stroke-width="0.402292" d="M1157.2,-158.406C1195.28,-140.214 1288.03,-95.8984 1338.01,-72.0196"/>
<polygon fill="green" stroke="green" stroke-width="0.402292" points="1339.6,-75.139 1347.11,-67.6698 1336.58,-68.8229 1339.6,-75.139"/>
</g>
<!-- Turn Left -->
<g id="node28" class="node"><title>Turn Left</title>
<ellipse fill="lightblue" stroke="black" cx="887.213" cy="-55.1543" rx="35.2113" ry="35.2113"/>
<text text-anchor="middle" x="887.213" y="-52.9543" font-family="Times,serif" font-size="9.00">Turn Left</text>
</g>
<!-- wallRadar[1,0]&#45;&gt;Turn Left -->
<g id="edge30" class="edge"><title>wallRadar[1,0]&#45;&gt;Turn Left</title>
<path fill="none" stroke="red" stroke-width="0.501531" d="M1121.61,-158.406C1081.16,-140.759 984.357,-98.5318 928.628,-74.2209"/>
<polygon fill="red" stroke="red" stroke-width="0.501531" points="929.953,-70.9802 919.387,-70.1898 927.154,-77.3963 929.953,-70.9802"/>
</g>
<!-- wallRadar[0,1] -->
<g id="node2" class="node"><title>wallRadar[0,1]</title>
<polygon fill="lightgray" stroke="black" points="1893.21,-176.522 1823.21,-176.522 1823.21,-158.522 1893.21,-158.522 1893.21,-176.522"/>
<text text-anchor="middle" x="1858.21" y="-165.322" font-family="Times,serif" font-size="9.00">wallRadar[0,1]</text>
</g>
<!-- Move Forward -->
<g id="node24" class="node"><title>Move Forward</title>
<ellipse fill="lightblue" stroke="black" cx="1858.21" cy="-55.1543" rx="50.41" ry="50.41"/>
<text text-anchor="middle" x="1858.21" y="-52.9543" font-family="Times,serif" font-size="9.00">Move Forward</text>
</g>
<!-- wallRadar[0,1]&#45;&gt;Move Forward -->
<g id="edge15" class="edge"><title>wallRadar[0,1]&#45;&gt;Move Forward</title>
<path fill="none" stroke="red" stroke-width="0.181458" d="M1858.21,-158.226C1858.21,-148.844 1858.21,-132.682 1858.21,-115.951"/>
<polygon fill="red" stroke="red" stroke-width="0.181458" points="1861.71,-115.515 1858.21,-105.515 1854.71,-115.515 1861.71,-115.515"/>
</g>
<!--  Move Backward -->
<g id="node25" class="node"><title> Move Backward</title>
<ellipse fill="lightblue" stroke="black" cx="1655.21" cy="-55.1543" rx="55.3091" ry="55.3091"/>
<text text-anchor="middle" x="1655.21" y="-52.9543" font-family="Times,serif" font-size="9.00"> Move Backward</text>
</g>
<!-- wallRadar[0,1]&#45;&gt; Move Backward -->
<g id="edge55" class="edge"><title>wallRadar[0,1]&#45;&gt; Move Backward</title>
<path fill="none" stroke="red" stroke-width="0.202908" d="M1843.29,-158.406C1816.13,-143.643 1757.33,-111.675 1712.66,-87.3878"/>
<polygon fill="red" stroke="red" stroke-width="0.202908" points="1714.1,-84.1871 1703.64,-82.4855 1710.76,-90.337 1714.1,-84.1871"/>
</g>
<!-- Turn Right -->
<g id="node29" class="node"><title>Turn Right</title>
<ellipse fill="lightblue" stroke="black" cx="536.213" cy="-55.1543" rx="39.6962" ry="39.6962"/>
<text text-anchor="middle" x="536.213" y="-52.9543" font-family="Times,serif" font-size="9.00">Turn Right</text>
</g>
<!-- wallRadar[0,1]&#45;&gt;Turn Right -->
<g id="edge32" class="edge"><title>wallRadar[0,1]&#45;&gt;Turn Right</title>
<path fill="none" stroke="red" stroke-width="0.382107" d="M1844.46,-158.465C1836.03,-153.976 1824.85,-148.803 1814.21,-146.309 1553.39,-85.1686 862.301,-198.148 609.213,-110.309 596.146,-105.773 583.468,-97.9946 572.446,-89.7254"/>
<polygon fill="red" stroke="red" stroke-width="0.382107" points="574.381,-86.7939 564.36,-83.3519 570.047,-92.2913 574.381,-86.7939"/>
</g>
<!-- wallRadar[&#45;1,0] -->
<g id="node3" class="node"><title>wallRadar[&#45;1,0]</title>
<polygon fill="lightgray" stroke="black" points="827.713,-176.522 754.713,-176.522 754.713,-158.522 827.713,-158.522 827.713,-176.522"/>
<text text-anchor="middle" x="791.213" y="-165.322" font-family="Times,serif" font-size="9.00">wallRadar[&#45;1,0]</text>
</g>
<!-- wallRadar[&#45;1,0]&#45;&gt;Shoot -->
<g id="edge21" class="edge"><title>wallRadar[&#45;1,0]&#45;&gt;Shoot</title>
<path fill="none" stroke="green" stroke-width="0.187329" d="M806.172,-158.323C814.72,-154.021 825.784,-149.081 836.213,-146.309 995.033,-104.086 1043.34,-143.85 1204.21,-110.309 1251.13,-100.527 1303.41,-82.3322 1336.77,-69.7487"/>
<polygon fill="green" stroke="green" stroke-width="0.187329" points="1338.4,-72.8752 1346.49,-66.0392 1335.9,-66.3354 1338.4,-72.8752"/>
</g>
<!-- wallRadar[&#45;1,0]&#45;&gt; Move Backward -->
<g id="edge14" class="edge"><title>wallRadar[&#45;1,0]&#45;&gt; Move Backward</title>
<path fill="none" stroke="green" stroke-width="0.261324" d="M805.732,-158.39C814.322,-153.995 825.572,-148.942 836.213,-146.309 1083.05,-85.231 1155.38,-145.534 1407.21,-110.309 1470.71,-101.427 1542.12,-85.1517 1591.96,-72.7539"/>
<polygon fill="green" stroke="green" stroke-width="0.261324" points="1593.09,-76.078 1601.94,-70.2505 1591.39,-69.2883 1593.09,-76.078"/>
</g>
<!-- Move Left -->
<g id="node26" class="node"><title>Move Left</title>
<ellipse fill="lightblue" stroke="black" cx="656.213" cy="-55.1543" rx="38.3684" ry="38.3684"/>
<text text-anchor="middle" x="656.213" y="-52.9543" font-family="Times,serif" font-size="9.00">Move Left</text>
</g>
<!-- wallRadar[&#45;1,0]&#45;&gt;Move Left -->
<g id="edge22" class="edge"><title>wallRadar[&#45;1,0]&#45;&gt;Move Left</title>
<path fill="none" stroke="red" stroke-width="0.560792" d="M781.066,-158.226C762.738,-143.242 723.258,-110.966 693.57,-86.6948"/>
<polygon fill="red" stroke="red" stroke-width="0.560792" points="695.439,-83.702 685.482,-80.0823 691.008,-89.1214 695.439,-83.702"/>
</g>
<!-- Move right -->
<g id="node27" class="node"><title>Move right</title>
<ellipse fill="lightblue" stroke="black" cx="1155.21" cy="-55.1543" rx="39.6962" ry="39.6962"/>
<text text-anchor="middle" x="1155.21" y="-52.9543" font-family="Times,serif" font-size="9.00">Move right</text>
</g>
<!-- wallRadar[&#45;1,0]&#45;&gt;Move right -->
<g id="edge16" class="edge"><title>wallRadar[&#45;1,0]&#45;&gt;Move right</title>
<path fill="none" stroke="red" stroke-width="0.476736" d="M807.642,-158.443C816.063,-154.482 826.555,-149.821 836.213,-146.309 930.227,-112.119 1043.64,-82.7939 1106.77,-67.4904"/>
<polygon fill="red" stroke="red" stroke-width="0.476736" points="1107.93,-70.811 1116.83,-65.0665 1106.29,-64.0056 1107.93,-70.811"/>
</g>
<!-- wallRadar[&#45;1,0]&#45;&gt;Turn Left -->
<g id="edge49" class="edge"><title>wallRadar[&#45;1,0]&#45;&gt;Turn Left</title>
<path fill="none" stroke="green" stroke-width="0.404769" d="M798.429,-158.226C810.809,-143.994 836.758,-114.161 857.422,-90.4043"/>
<polygon fill="green" stroke="green" stroke-width="0.404769" points="860.278,-92.4542 864.2,-82.612 854.996,-87.8601 860.278,-92.4542"/>
</g>
<!-- wallRadar[&#45;1,0]&#45;&gt;Turn Right -->
<g id="edge46" class="edge"><title>wallRadar[&#45;1,0]&#45;&gt;Turn Right</title>
<path fill="none" stroke="red" stroke-width="0.31773" d="M760.745,-158.456C716.279,-146.459 635.985,-123.871 609.213,-110.309 597.098,-104.171 584.879,-96.04 573.994,-87.9491"/>
<polygon fill="red" stroke="red" stroke-width="0.31773" points="576.025,-85.096 565.954,-81.8035 571.774,-90.6573 576.025,-85.096"/>
</g>
<!-- wallRadar[0,&#45;1] -->
<g id="node4" class="node"><title>wallRadar[0,&#45;1]</title>
<polygon fill="lightgray" stroke="black" points="2311.71,-176.522 2238.71,-176.522 2238.71,-158.522 2311.71,-158.522 2311.71,-176.522"/>
<text text-anchor="middle" x="2275.21" y="-165.322" font-family="Times,serif" font-size="9.00">wallRadar[0,&#45;1]</text>
</g>
<!-- wallRadar[0,&#45;1]&#45;&gt;Shoot -->
<g id="edge9" class="edge"><title>wallRadar[0,&#45;1]&#45;&gt;Shoot</title>
<path fill="none" stroke="red" stroke-width="0.119097" d="M2260.36,-158.367C2251.57,-153.964 2240.07,-148.911 2229.21,-146.309 1953.03,-80.1265 1872.08,-152.43 1591.21,-110.309 1524.95,-100.371 1449.46,-79.681 1406.37,-66.9479"/>
<polygon fill="red" stroke="red" stroke-width="0.119097" points="1407.23,-63.5533 1396.65,-64.0485 1405.23,-70.2612 1407.23,-63.5533"/>
</g>
<!-- wallRadar[0,&#45;1]&#45;&gt;Move Forward -->
<g id="edge7" class="edge"><title>wallRadar[0,&#45;1]&#45;&gt;Move Forward</title>
<path fill="none" stroke="red" stroke-width="0.735633" d="M2258.88,-158.508C2250.21,-154.469 2239.29,-149.719 2229.21,-146.309 2121.57,-109.895 1991.72,-81.8208 1917.68,-67.247"/>
<polygon fill="red" stroke="red" stroke-width="0.735633" points="1918.09,-63.7623 1907.61,-65.2807 1916.75,-70.6325 1918.09,-63.7623"/>
</g>
<!-- wallRadar[0.7,0.7] -->
<g id="node5" class="node"><title>wallRadar[0.7,0.7]</title>
<polygon fill="lightgray" stroke="black" points="697.713,-176.522 614.713,-176.522 614.713,-158.522 697.713,-158.522 697.713,-176.522"/>
<text text-anchor="middle" x="656.213" y="-165.322" font-family="Times,serif" font-size="9.00">wallRadar[0.7,0.7]</text>
</g>
<!-- wallRadar[0.7,0.7]&#45;&gt; Move Backward -->
<g id="edge51" class="edge"><title>wallRadar[0.7,0.7]&#45;&gt; Move Backward</title>
<path fill="none" stroke="red" stroke-width="0.54541" d="M685.648,-158.52C702.877,-154.169 725.127,-149.115 745.213,-146.309 1037.04,-105.534 1115.22,-149.867 1407.21,-110.309 1470.74,-101.701 1542.16,-85.3885 1591.98,-72.9073"/>
<polygon fill="red" stroke="red" stroke-width="0.54541" points="1593.12,-76.2289 1601.96,-70.386 1591.4,-69.4422 1593.12,-76.2289"/>
</g>
<!-- wallRadar[0.7,0.7]&#45;&gt;Move Left -->
<g id="edge74" class="edge"><title>wallRadar[0.7,0.7]&#45;&gt;Move Left</title>
<path fill="none" stroke="red" stroke-width="0.22562" stroke-dasharray="1,5" d="M656.213,-158.226C656.213,-146.508 656.213,-124.215 656.213,-103.444"/>
<polygon fill="red" stroke="red" stroke-width="0.22562" points="659.713,-103.424 656.213,-93.4236 652.713,-103.424 659.713,-103.424"/>
</g>
<!-- wallRadar[0.7,0.7]&#45;&gt;Move right -->
<g id="edge39" class="edge"><title>wallRadar[0.7,0.7]&#45;&gt;Move right</title>
<path fill="none" stroke="green" stroke-width="0.251087" d="M690.39,-158.49C706.922,-154.673 727.071,-150.123 745.213,-146.309 827.612,-128.982 848.937,-128.207 931.213,-110.309 992.093,-97.0653 1061.79,-79.8955 1107.05,-68.4763"/>
<polygon fill="green" stroke="green" stroke-width="0.251087" points="1108.05,-71.8338 1116.89,-65.9883 1106.34,-65.0476 1108.05,-71.8338"/>
</g>
<!-- wallRadar[0.7,0.7]&#45;&gt;Turn Right -->
<g id="edge25" class="edge"><title>wallRadar[0.7,0.7]&#45;&gt;Turn Right</title>
<path fill="none" stroke="green" stroke-width="0.273006" d="M647.194,-158.226C631.517,-143.808 598.433,-113.38 572.445,-89.4778"/>
<polygon fill="green" stroke="green" stroke-width="0.273006" points="574.71,-86.8054 564.98,-82.612 569.971,-91.9577 574.71,-86.8054"/>
</g>
<!-- wallRadar[&#45;0.7,0.7] -->
<g id="node6" class="node"><title>wallRadar[&#45;0.7,0.7]</title>
<polygon fill="lightgray" stroke="black" points="1379.21,-176.522 1293.21,-176.522 1293.21,-158.522 1379.21,-158.522 1379.21,-176.522"/>
<text text-anchor="middle" x="1336.21" y="-165.322" font-family="Times,serif" font-size="9.00">wallRadar[&#45;0.7,0.7]</text>
</g>
<!-- wallRadar[&#45;0.7,0.7]&#45;&gt;Shoot -->
<g id="edge5" class="edge"><title>wallRadar[&#45;0.7,0.7]&#45;&gt;Shoot</title>
<path fill="none" stroke="red" stroke-width="0.144903" d="M1338.84,-158.226C1343.32,-144.102 1352.67,-114.613 1360.18,-90.9466"/>
<polygon fill="red" stroke="red" stroke-width="0.144903" points="1363.58,-91.8124 1363.26,-81.2221 1356.9,-89.6963 1363.58,-91.8124"/>
</g>
<!-- wallRadar[&#45;0.7,0.7]&#45;&gt;Move Forward -->
<g id="edge82" class="edge"><title>wallRadar[&#45;0.7,0.7]&#45;&gt;Move Forward</title>
<path fill="none" stroke="red" stroke-width="0.505386" stroke-dasharray="1,5" d="M1368.55,-158.447C1385.62,-154.392 1406.96,-149.645 1426.21,-146.309 1555.49,-123.906 1591.99,-142.372 1719.21,-110.309 1747.72,-103.125 1778.27,-91.6663 1803.45,-81.1353"/>
<polygon fill="red" stroke="red" stroke-width="0.505386" points="1804.99,-84.2857 1812.82,-77.1555 1802.25,-77.8425 1804.99,-84.2857"/>
</g>
<!-- wallRadar[&#45;0.7,0.7]&#45;&gt; Move Backward -->
<g id="edge70" class="edge"><title>wallRadar[&#45;0.7,0.7]&#45;&gt; Move Backward</title>
<path fill="none" stroke="green" stroke-width="0.209358" d="M1359.41,-158.496C1408.02,-141.677 1521.97,-102.254 1593.4,-77.5401"/>
<polygon fill="green" stroke="green" stroke-width="0.209358" points="1594.88,-80.7316 1603.19,-74.1543 1592.59,-74.1164 1594.88,-80.7316"/>
</g>
<!-- wallRadar[&#45;0.7,0.7]&#45;&gt;Move right -->
<g id="edge23" class="edge"><title>wallRadar[&#45;0.7,0.7]&#45;&gt;Move right</title>
<path fill="none" stroke="green" stroke-width="0.432316" d="M1322.9,-158.406C1296.82,-142.499 1237.97,-106.617 1197.42,-81.8908"/>
<polygon fill="green" stroke="green" stroke-width="0.432316" points="1199.17,-78.8582 1188.81,-76.6403 1195.53,-84.8348 1199.17,-78.8582"/>
</g>
<!-- wallRadar[&#45;0.7,0.7]&#45;&gt;Turn Left -->
<g id="edge60" class="edge"><title>wallRadar[&#45;0.7,0.7]&#45;&gt;Turn Left</title>
<path fill="none" stroke="green" stroke-width="0.267149" d="M1317.34,-158.458C1307.33,-154.405 1294.75,-149.658 1283.21,-146.309 1206.12,-123.931 1184.53,-127.948 1106.21,-110.309 1045.24,-96.5763 975.193,-78.9227 931.071,-67.5717"/>
<polygon fill="green" stroke="green" stroke-width="0.267149" points="931.806,-64.1468 921.249,-65.0387 930.058,-70.9251 931.806,-64.1468"/>
</g>
<!-- wallRadar[&#45;0.7,0.7]&#45;&gt;Turn Right -->
<g id="edge52" class="edge"><title>wallRadar[&#45;0.7,0.7]&#45;&gt;Turn Right</title>
<path fill="none" stroke="green" stroke-width="0.116195" d="M1318.96,-158.375C1308.79,-153.976 1295.54,-148.922 1283.21,-146.309 1136.48,-115.209 750.325,-161.15 609.213,-110.309 596.2,-105.62 583.539,-97.7931 572.516,-89.5267"/>
<polygon fill="green" stroke="green" stroke-width="0.116195" points="574.451,-86.5954 564.427,-83.1643 570.123,-92.0975 574.451,-86.5954"/>
</g>
<!-- wallRadar[&#45;0.7,&#45;0.7] -->
<g id="node7" class="node"><title>wallRadar[&#45;0.7,&#45;0.7]</title>
<polygon fill="lightgray" stroke="black" points="557.713,-176.522 468.713,-176.522 468.713,-158.522 557.713,-158.522 557.713,-176.522"/>
<text text-anchor="middle" x="513.213" y="-165.322" font-family="Times,serif" font-size="9.00">wallRadar[&#45;0.7,&#45;0.7]</text>
</g>
<!-- wallRadar[&#45;0.7,&#45;0.7]&#45;&gt; Move Backward -->
<g id="edge43" class="edge"><title>wallRadar[&#45;0.7,&#45;0.7]&#45;&gt; Move Backward</title>
<path fill="none" stroke="green" stroke-width="0.167139" stroke-dasharray="1,5" d="M543.648,-158.459C561.459,-154.087 584.459,-149.034 605.213,-146.309 958.98,-99.8548 1053.42,-156.536 1407.21,-110.309 1470.78,-102.002 1542.19,-85.6484 1592,-73.0756"/>
<polygon fill="green" stroke="green" stroke-width="0.167139" points="1593.15,-76.3944 1601.98,-70.5347 1591.42,-69.6109 1593.15,-76.3944"/>
</g>
<!-- wallRadar[&#45;0.7,&#45;0.7]&#45;&gt;Move Left -->
<g id="edge48" class="edge"><title>wallRadar[&#45;0.7,&#45;0.7]&#45;&gt;Move Left</title>
<path fill="none" stroke="red" stroke-width="0.399384" d="M523.961,-158.226C543.697,-142.994 586.586,-109.893 618.196,-85.4958"/>
<polygon fill="red" stroke="red" stroke-width="0.399384" points="620.598,-88.0635 626.376,-79.1829 616.321,-82.522 620.598,-88.0635"/>
</g>
<!-- wallRadar[&#45;0.7,&#45;0.7]&#45;&gt;Turn Left -->
<g id="edge38" class="edge"><title>wallRadar[&#45;0.7,&#45;0.7]&#45;&gt;Turn Left</title>
<path fill="none" stroke="green" stroke-width="0.118902" d="M535.52,-158.516C546.515,-154.662 560.004,-150.074 572.213,-146.309 629.913,-128.515 645.138,-126.833 703.213,-110.309 751.225,-96.6474 806.101,-80.4163 843.339,-69.3093"/>
<polygon fill="green" stroke="green" stroke-width="0.118902" points="844.773,-72.5337 853.354,-66.3188 842.77,-65.8264 844.773,-72.5337"/>
</g>
<!-- wallRadar[&#45;0.7,&#45;0.7]&#45;&gt;Turn Right -->
<g id="edge24" class="edge"><title>wallRadar[&#45;0.7,&#45;0.7]&#45;&gt;Turn Right</title>
<path fill="none" stroke="red" stroke-width="0.263184" d="M514.942,-158.226C517.357,-146.637 521.928,-124.705 526.215,-104.132"/>
<polygon fill="red" stroke="red" stroke-width="0.263184" points="529.672,-104.697 528.286,-94.1933 522.819,-103.269 529.672,-104.697"/>
</g>
<!-- wallRadar[0.7,&#45;0.7] -->
<g id="node8" class="node"><title>wallRadar[0.7,&#45;0.7]</title>
<polygon fill="lightgray" stroke="black" points="1049.21,-176.522 963.213,-176.522 963.213,-158.522 1049.21,-158.522 1049.21,-176.522"/>
<text text-anchor="middle" x="1006.21" y="-165.322" font-family="Times,serif" font-size="9.00">wallRadar[0.7,&#45;0.7]</text>
</g>
<!-- wallRadar[0.7,&#45;0.7]&#45;&gt;Move Forward -->
<g id="edge75" class="edge"><title>wallRadar[0.7,&#45;0.7]&#45;&gt;Move Forward</title>
<path fill="none" stroke="red" stroke-width="0.419105" d="M1036.4,-158.448C1053.77,-154.13 1076.07,-149.133 1096.21,-146.309 1370.88,-107.792 1448.23,-169.376 1719.21,-110.309 1748.05,-104.024 1778.75,-92.6054 1803.95,-81.8682"/>
<polygon fill="red" stroke="red" stroke-width="0.419105" points="1805.54,-84.9921 1813.32,-77.7986 1802.75,-78.5713 1805.54,-84.9921"/>
</g>
<!-- wallRadar[0.7,&#45;0.7]&#45;&gt;Move Left -->
<g id="edge8" class="edge"><title>wallRadar[0.7,&#45;0.7]&#45;&gt;Move Left</title>
<path fill="none" stroke="red" stroke-width="0.270761" stroke-dasharray="1,5" d="M986.199,-158.511C976.328,-154.657 964.208,-150.069 953.213,-146.309 865.493,-116.308 761.535,-85.9125 702.785,-69.2029"/>
<polygon fill="red" stroke="red" stroke-width="0.270761" points="703.63,-65.8046 693.055,-66.4431 701.72,-72.539 703.63,-65.8046"/>
</g>
<!-- wallRadar[0.7,&#45;0.7]&#45;&gt;Move right -->
<g id="edge12" class="edge"><title>wallRadar[0.7,&#45;0.7]&#45;&gt;Move right</title>
<path fill="none" stroke="red" stroke-width="0.391516" d="M1017.41,-158.226C1038,-142.975 1082.77,-109.812 1115.72,-85.4065"/>
<polygon fill="red" stroke="red" stroke-width="0.391516" points="1117.87,-88.1713 1123.82,-79.4066 1113.7,-82.5464 1117.87,-88.1713"/>
</g>
<!-- wallRadar[0.7,&#45;0.7]&#45;&gt;Turn Left -->
<g id="edge11" class="edge"><title>wallRadar[0.7,&#45;0.7]&#45;&gt;Turn Left</title>
<path fill="none" stroke="red" stroke-width="0.240273" d="M997.269,-158.226C981.133,-143.261 946.398,-111.046 920.239,-86.7843"/>
<polygon fill="red" stroke="red" stroke-width="0.240273" points="922.481,-84.0903 912.769,-79.8563 917.721,-89.2227 922.481,-84.0903"/>
</g>
<!-- enemyRadar[RightBack] -->
<g id="node9" class="node"><title>enemyRadar[RightBack]</title>
<polygon fill="lightgray" stroke="black" points="1539.21,-176.522 1435.21,-176.522 1435.21,-158.522 1539.21,-158.522 1539.21,-176.522"/>
<text text-anchor="middle" x="1487.21" y="-165.322" font-family="Times,serif" font-size="9.00">enemyRadar[RightBack]</text>
</g>
<!-- enemyRadar[RightBack]&#45;&gt;Shoot -->
<g id="edge68" class="edge"><title>enemyRadar[RightBack]&#45;&gt;Shoot</title>
<path fill="none" stroke="red" stroke-width="0.138268" d="M1478.49,-158.226C1461.52,-142.074 1423.42,-105.83 1397.51,-81.1773"/>
<polygon fill="red" stroke="red" stroke-width="0.138268" points="1399.89,-78.6034 1390.23,-74.2461 1395.06,-83.6748 1399.89,-78.6034"/>
</g>
<!-- enemyRadar[RightBack]&#45;&gt;Move Forward -->
<g id="edge3" class="edge"><title>enemyRadar[RightBack]&#45;&gt;Move Forward</title>
<path fill="none" stroke="red" stroke-width="0.257957" d="M1509.63,-158.424C1521.08,-154.458 1535.29,-149.799 1548.21,-146.309 1623.19,-126.062 1644.78,-132.48 1719.21,-110.309 1747.39,-101.917 1777.9,-90.3215 1803.14,-80.0125"/>
<polygon fill="red" stroke="red" stroke-width="0.257957" points="1804.63,-83.1835 1812.54,-76.1338 1801.96,-76.7127 1804.63,-83.1835"/>
</g>
<!-- enemyRadar[RightBack]&#45;&gt; Move Backward -->
<g id="edge47" class="edge"><title>enemyRadar[RightBack]&#45;&gt; Move Backward</title>
<path fill="none" stroke="red" stroke-width="0.210647" d="M1499.57,-158.406C1520.68,-144.534 1564.92,-115.473 1600.85,-91.8661"/>
<polygon fill="red" stroke="red" stroke-width="0.210647" points="1602.88,-94.7201 1609.32,-86.3042 1599.04,-88.8697 1602.88,-94.7201"/>
</g>
<!-- enemyRadar[RightBack]&#45;&gt;Move Left -->
<g id="edge37" class="edge"><title>enemyRadar[RightBack]&#45;&gt;Move Left</title>
<path fill="none" stroke="green" stroke-width="0.345599" d="M1453.5,-158.457C1434.44,-154.197 1410.12,-149.255 1388.21,-146.309 1147.63,-113.954 1082.3,-152.316 843.213,-110.309 793.861,-101.638 738.956,-84.848 701.48,-72.2508"/>
<polygon fill="green" stroke="green" stroke-width="0.345599" points="702.462,-68.8879 691.868,-68.9829 700.209,-75.5154 702.462,-68.8879"/>
</g>
<!-- enemyRadar[RightBack]&#45;&gt;Move right -->
<g id="edge1" class="edge"><title>enemyRadar[RightBack]&#45;&gt;Move right</title>
<path fill="none" stroke="red" stroke-width="0.422366" d="M1463.07,-158.496C1408.34,-140.303 1274.06,-95.6624 1202.27,-71.7982"/>
<polygon fill="red" stroke="red" stroke-width="0.422366" points="1203.17,-68.407 1192.57,-68.5736 1200.96,-75.0496 1203.17,-68.407"/>
</g>
<!-- enemyRadar[LeftBack] -->
<g id="node10" class="node"><title>enemyRadar[LeftBack]</title>
<polygon fill="lightgray" stroke="black" points="944.713,-176.522 845.713,-176.522 845.713,-158.522 944.713,-158.522 944.713,-176.522"/>
<text text-anchor="middle" x="895.213" y="-165.322" font-family="Times,serif" font-size="9.00">enemyRadar[LeftBack]</text>
</g>
<!-- enemyRadar[LeftBack]&#45;&gt;Shoot -->
<g id="edge61" class="edge"><title>enemyRadar[LeftBack]&#45;&gt;Shoot</title>
<path fill="none" stroke="red" stroke-width="0.163889" d="M915.685,-158.451C926.911,-154.296 941.161,-149.455 954.213,-146.309 1063.34,-120.002 1094.87,-135.715 1204.21,-110.309 1250.89,-99.4625 1303.23,-81.5106 1336.67,-69.2733"/>
<polygon fill="red" stroke="red" stroke-width="0.163889" points="1338.24,-72.4224 1346.41,-65.6731 1335.82,-65.8564 1338.24,-72.4224"/>
</g>
<!-- enemyRadar[LeftBack]&#45;&gt;Move Forward -->
<g id="edge69" class="edge"><title>enemyRadar[LeftBack]&#45;&gt;Move Forward</title>
<path fill="none" stroke="green" stroke-width="0.492049" d="M914.238,-158.467C925.619,-154.039 940.493,-148.927 954.213,-146.309 1288.56,-82.5122 1386.26,-181.019 1719.21,-110.309 1748.08,-104.178 1778.79,-92.7767 1803.98,-82.0108"/>
<polygon fill="green" stroke="green" stroke-width="0.492049" points="1805.58,-85.1315 1813.35,-77.928 1802.78,-78.7144 1805.58,-85.1315"/>
</g>
<!-- enemyRadar[LeftBack]&#45;&gt;Move Left -->
<g id="edge2" class="edge"><title>enemyRadar[LeftBack]&#45;&gt;Move Left</title>
<path fill="none" stroke="red" stroke-width="0.259392" d="M877.639,-158.406C840.52,-141.265 753.182,-100.934 699.959,-76.3557"/>
<polygon fill="red" stroke="red" stroke-width="0.259392" points="701.306,-73.1223 690.759,-72.1074 698.371,-79.4775 701.306,-73.1223"/>
</g>
<!-- enemyRadar[LeftBack]&#45;&gt;Move right -->
<g id="edge56" class="edge"><title>enemyRadar[LeftBack]&#45;&gt;Move right</title>
<path fill="none" stroke="green" stroke-width="0.226273" d="M914.332,-158.406C955.212,-141.053 1052.09,-99.9303 1109.76,-75.4491"/>
<polygon fill="green" stroke="green" stroke-width="0.226273" points="1111.17,-78.6515 1119.01,-71.5222 1108.44,-72.208 1111.17,-78.6515"/>
</g>
<!-- enemyRadar[LeftBack]&#45;&gt;Turn Right -->
<g id="edge73" class="edge"><title>enemyRadar[LeftBack]&#45;&gt;Turn Right</title>
<path fill="none" stroke="green" stroke-width="0.644493" d="M874.451,-158.425C863.263,-154.314 849.138,-149.522 836.213,-146.309 737.081,-121.663 703.388,-149.878 609.213,-110.309 596.577,-104.999 584.111,-97.0585 573.156,-88.8831"/>
<polygon fill="green" stroke="green" stroke-width="0.644493" points="575.14,-85.9926 565.095,-82.6254 570.848,-91.5222 575.14,-85.9926"/>
</g>
<!-- enemyRadar[Right] -->
<g id="node11" class="node"><title>enemyRadar[Right]</title>
<polygon fill="lightgray" stroke="black" points="2220.21,-176.522 2134.21,-176.522 2134.21,-158.522 2220.21,-158.522 2220.21,-176.522"/>
<text text-anchor="middle" x="2177.21" y="-165.322" font-family="Times,serif" font-size="9.00">enemyRadar[Right]</text>
</g>
<!-- enemyRadar[Right]&#45;&gt;Shoot -->
<g id="edge35" class="edge"><title>enemyRadar[Right]&#45;&gt;Shoot</title>
<path fill="none" stroke="red" stroke-width="1.06338" d="M2146.6,-158.46C2129.29,-154.201 2107.17,-149.258 2087.21,-146.309 1868.56,-114.003 1809.52,-144.846 1591.21,-110.309 1525.03,-99.8384 1449.52,-79.3245 1406.39,-66.769"/>
<polygon fill="red" stroke="red" stroke-width="1.06338" points="1407.25,-63.3724 1396.67,-63.912 1405.28,-70.0886 1407.25,-63.3724"/>
</g>
<!-- enemyRadar[Right]&#45;&gt;Move Forward -->
<g id="edge45" class="edge"><title>enemyRadar[Right]&#45;&gt;Move Forward</title>
<path fill="none" stroke="red" stroke-width="0.134374" d="M2154.76,-158.505C2144.27,-154.774 2131.61,-150.291 2120.21,-146.309 2049.67,-121.666 1968.28,-93.736 1915.17,-75.5809"/>
<polygon fill="red" stroke="red" stroke-width="0.134374" points="1916.18,-72.2295 1905.59,-72.3077 1913.92,-78.8535 1916.18,-72.2295"/>
</g>
<!-- enemyRadar[Left] -->
<g id="node12" class="node"><title>enemyRadar[Left]</title>
<polygon fill="lightgray" stroke="black" points="1274.71,-176.522 1193.71,-176.522 1193.71,-158.522 1274.71,-158.522 1274.71,-176.522"/>
<text text-anchor="middle" x="1234.21" y="-165.322" font-family="Times,serif" font-size="9.00">enemyRadar[Left]</text>
</g>
<!-- enemyRadar[Left]&#45;&gt;Shoot -->
<g id="edge66" class="edge"><title>enemyRadar[Left]&#45;&gt;Shoot</title>
<path fill="none" stroke="green" stroke-width="0.666493" d="M1244.51,-158.226C1265.1,-141.638 1312,-103.859 1342.6,-79.2073"/>
<polygon fill="green" stroke="green" stroke-width="0.666493" points="1345.17,-81.63 1350.76,-72.6309 1340.78,-76.1788 1345.17,-81.63"/>
</g>
<!-- enemyRadar[Left]&#45;&gt;Move Forward -->
<g id="edge31" class="edge"><title>enemyRadar[Left]&#45;&gt;Move Forward</title>
<path fill="none" stroke="green" stroke-width="0.203141" d="M1250.47,-158.494C1260.05,-154.134 1272.55,-149.08 1284.21,-146.309 1472.95,-101.445 1530.2,-153.976 1719.21,-110.309 1747.97,-103.666 1778.66,-92.2084 1803.87,-81.5377"/>
<polygon fill="green" stroke="green" stroke-width="0.203141" points="1805.45,-84.6686 1813.25,-77.4983 1802.68,-78.2396 1805.45,-84.6686"/>
</g>
<!-- enemyRadar[Left]&#45;&gt;Move Left -->
<g id="edge41" class="edge"><title>enemyRadar[Left]&#45;&gt;Move Left</title>
<path fill="none" stroke="green" stroke-width="0.407228" d="M1217.48,-158.389C1207.95,-154.108 1195.66,-149.167 1184.21,-146.309 1036.35,-109.391 992.766,-139.619 843.213,-110.309 794.193,-100.701 739.447,-84.1376 701.925,-71.8517"/>
<polygon fill="green" stroke="green" stroke-width="0.407228" points="702.888,-68.4838 692.295,-68.6685 700.691,-75.1301 702.888,-68.4838"/>
</g>
<!-- enemyRadar[Left]&#45;&gt;Move right -->
<g id="edge18" class="edge"><title>enemyRadar[Left]&#45;&gt;Move right</title>
<path fill="none" stroke="red" stroke-width="0.353252" d="M1228.28,-158.226C1218.88,-145.1 1199.99,-118.703 1183.76,-96.0425"/>
<polygon fill="red" stroke="red" stroke-width="0.353252" points="1186.6,-93.9888 1177.93,-87.8944 1180.91,-98.0632 1186.6,-93.9888"/>
</g>
<!-- enemyRadar[Left]&#45;&gt;Turn Left -->
<g id="edge13" class="edge"><title>enemyRadar[Left]&#45;&gt;Turn Left</title>
<path fill="none" stroke="red" stroke-width="0.498198" d="M1215.37,-158.44C1206.07,-154.569 1194.63,-149.987 1184.21,-146.309 1095.54,-114.996 989.736,-84.4776 931.371,-68.2229"/>
<polygon fill="red" stroke="red" stroke-width="0.498198" points="931.957,-64.7533 921.385,-65.4522 930.085,-71.4984 931.957,-64.7533"/>
</g>
<!-- enemyRadar[RightFront30] -->
<g id="node13" class="node"><title>enemyRadar[RightFront30]</title>
<polygon fill="lightgray" stroke="black" points="251.713,-176.522 136.713,-176.522 136.713,-158.522 251.713,-158.522 251.713,-176.522"/>
<text text-anchor="middle" x="194.213" y="-165.322" font-family="Times,serif" font-size="9.00">enemyRadar[RightFront30]</text>
</g>
<!-- enemyRadar[RightFront30]&#45;&gt;Shoot -->
<g id="edge42" class="edge"><title>enemyRadar[RightFront30]&#45;&gt;Shoot</title>
<path fill="none" stroke="green" stroke-width="0.536861" d="M215.907,-158.441C228.862,-154.004 245.754,-148.892 261.213,-146.309 674.893,-77.1778 791.266,-183.691 1204.21,-110.309 1251.4,-101.924 1303.62,-83.4098 1336.89,-70.3723"/>
<polygon fill="green" stroke="green" stroke-width="0.536861" points="1338.58,-73.4663 1346.58,-66.5193 1336,-66.9616 1338.58,-73.4663"/>
</g>
<!-- enemyRadar[RightFront30]&#45;&gt;Move Left -->
<g id="edge72" class="edge"><title>enemyRadar[RightFront30]&#45;&gt;Move Left</title>
<path fill="none" stroke="red" stroke-width="0.104237" d="M217.202,-158.452C230.012,-154.244 246.334,-149.353 261.213,-146.309 403.158,-117.264 450.723,-164.202 585.213,-110.309 597.942,-105.208 610.351,-97.1669 621.141,-88.8263"/>
<polygon fill="red" stroke="red" stroke-width="0.104237" points="623.476,-91.4399 629.056,-82.4336 619.077,-85.9943 623.476,-91.4399"/>
</g>
<!-- enemyRadar[RightFront30]&#45;&gt;Turn Right -->
<g id="edge54" class="edge"><title>enemyRadar[RightFront30]&#45;&gt;Turn Right</title>
<path fill="none" stroke="green" stroke-width="0.103867" d="M219.084,-158.496C275.752,-140.208 415.231,-95.1967 488.887,-71.427"/>
<polygon fill="green" stroke="green" stroke-width="0.103867" points="490.386,-74.621 498.828,-68.219 488.236,-67.9593 490.386,-74.621"/>
</g>
<!-- enemyRadar[LeftFront30] -->
<g id="node14" class="node"><title>enemyRadar[LeftFront30]</title>
<polygon fill="lightgray" stroke="black" points="1970.21,-242.735 1860.21,-242.735 1860.21,-224.735 1970.21,-224.735 1970.21,-242.735"/>
<text text-anchor="middle" x="1915.21" y="-231.535" font-family="Times,serif" font-size="9.00">enemyRadar[LeftFront30]</text>
</g>
<!-- enemyRadar[RightFront10] -->
<g id="node15" class="node"><title>enemyRadar[RightFront10]</title>
<polygon fill="lightgray" stroke="black" points="1841.71,-242.735 1726.71,-242.735 1726.71,-224.735 1841.71,-224.735 1841.71,-242.735"/>
<text text-anchor="middle" x="1784.21" y="-231.535" font-family="Times,serif" font-size="9.00">enemyRadar[RightFront10]</text>
</g>
<!-- enemyRadar[RightFront10]&#45;&gt;Shoot -->
<g id="edge67" class="edge"><title>enemyRadar[RightFront10]&#45;&gt;Shoot</title>
<path fill="none" stroke="green" stroke-width="0.166202" stroke-dasharray="1,5" d="M1776.51,-224.553C1760.06,-207.537 1719.6,-168.109 1678.21,-146.309 1630.32,-121.078 1477.39,-82.0048 1407.13,-64.7944"/>
<polygon fill="green" stroke="green" stroke-width="0.166202" points="1407.93,-61.3873 1397.39,-62.4181 1406.27,-68.188 1407.93,-61.3873"/>
</g>
<!-- enemyRadar[RightFront10]&#45;&gt;Move Forward -->
<g id="edge4" class="edge"><title>enemyRadar[RightFront10]&#45;&gt;Move Forward</title>
<path fill="none" stroke="red" stroke-width="0.284989" d="M1841.93,-225.611C1845.07,-225.296 1848.18,-225.002 1851.21,-224.735 1921.94,-218.523 2440.44,-240.336 2489.21,-188.735 2502.17,-175.031 2501.57,-160.554 2489.21,-146.309 2415.65,-61.4873 2062.24,-54.4902 1918.85,-55.235"/>
<polygon fill="red" stroke="red" stroke-width="0.284989" points="1918.47,-51.7374 1908.49,-55.3044 1918.52,-58.7372 1918.47,-51.7374"/>
</g>
<!-- enemyRadar[RightFront10]&#45;&gt; Move Backward -->
<g id="edge71" class="edge"><title>enemyRadar[RightFront10]&#45;&gt; Move Backward</title>
<path fill="none" stroke="green" stroke-width="0.559776" d="M1842.04,-225.302C1928.85,-214.01 2083.22,-193.351 2087.21,-188.735 2099.55,-174.476 2099.69,-160.445 2087.21,-146.309 2044.53,-97.9559 1861.83,-125.767 1799.21,-110.309 1770.93,-103.327 1740.61,-92.4643 1715.12,-82.2953"/>
<polygon fill="green" stroke="green" stroke-width="0.559776" points="1716.19,-78.9503 1705.6,-78.4414 1713.56,-85.4386 1716.19,-78.9503"/>
</g>
<!-- enemyRadar[RightFront10]&#45;&gt;Turn Left -->
<g id="edge44" class="edge"><title>enemyRadar[RightFront10]&#45;&gt;Turn Left</title>
<path fill="none" stroke="green" stroke-width="0.188147" d="M1726.42,-232.473C1512.95,-231.226 779.355,-224.354 745.213,-188.735 703.404,-145.118 789.638,-97.6246 845.19,-73.0371"/>
<polygon fill="green" stroke="green" stroke-width="0.188147" points="846.709,-76.1933 854.492,-69.005 843.925,-69.7706 846.709,-76.1933"/>
</g>
<!-- 208 -->
<g id="node31" class="node"><title>208</title>
<ellipse fill="white" stroke="black" cx="1784.21" cy="-167.522" rx="21.4286" ry="21.4286"/>
<text text-anchor="middle" x="1784.21" y="-165.322" font-family="Times,serif" font-size="9.00">208</text>
</g>
<!-- enemyRadar[RightFront10]&#45;&gt;208 -->
<g id="edge80" class="edge"><title>enemyRadar[RightFront10]&#45;&gt;208</title>
<path fill="none" stroke="green" stroke-width="0.284124" d="M1784.21,-224.602C1784.21,-218.06 1784.21,-208.431 1784.21,-198.991"/>
<polygon fill="green" stroke="green" stroke-width="0.284124" points="1787.71,-198.977 1784.21,-188.977 1780.71,-198.977 1787.71,-198.977"/>
</g>
<!-- enemyRadar[LeftFront10] -->
<g id="node16" class="node"><title>enemyRadar[LeftFront10]</title>
<polygon fill="lightgray" stroke="black" points="886.213,-242.735 776.213,-242.735 776.213,-224.735 886.213,-224.735 886.213,-242.735"/>
<text text-anchor="middle" x="831.213" y="-231.535" font-family="Times,serif" font-size="9.00">enemyRadar[LeftFront10]</text>
</g>
<!-- enemyRadar[LeftFront10]&#45;&gt;Shoot -->
<g id="edge10" class="edge"><title>enemyRadar[LeftFront10]&#45;&gt;Shoot</title>
<path fill="none" stroke="green" stroke-width="0.101775" d="M886.666,-232.524C1020.87,-231.436 1354.64,-225.068 1388.21,-188.735 1412.94,-161.976 1400.94,-118.17 1387.97,-88.2925"/>
<polygon fill="green" stroke="green" stroke-width="0.101775" points="1391.11,-86.754 1383.76,-79.1207 1384.75,-89.6698 1391.11,-86.754"/>
</g>
<!-- enemyRadar[LeftFront10]&#45;&gt;Move Forward -->
<g id="edge6" class="edge"><title>enemyRadar[LeftFront10]&#45;&gt;Move Forward</title>
<path fill="none" stroke="green" stroke-width="0.196889" d="M886.572,-232.286C1168.04,-229.873 2428.24,-217.476 2456.21,-188.735 2469.36,-175.222 2468.51,-160.601 2456.21,-146.309 2387.3,-66.226 2057.15,-56.3392 1919.1,-55.7728"/>
<polygon fill="green" stroke="green" stroke-width="0.196889" points="1918.72,-52.272 1908.71,-55.7465 1918.7,-59.2719 1918.72,-52.272"/>
</g>
<!-- enemyRadar[LeftFront10]&#45;&gt; Move Backward -->
<g id="edge64" class="edge"><title>enemyRadar[LeftFront10]&#45;&gt; Move Backward</title>
<path fill="none" stroke="red" stroke-width="0.539926" d="M886.371,-231.935C1070.04,-229.003 1650.92,-217.484 1678.21,-188.735 1697.05,-168.893 1693.84,-139.457 1684.81,-113.359"/>
<polygon fill="red" stroke="red" stroke-width="0.539926" points="1688.05,-112.041 1681.25,-103.919 1681.5,-114.51 1688.05,-112.041"/>
</g>
<!-- enemyRadar[LeftFront10]&#45;&gt;Move Left -->
<g id="edge62" class="edge"><title>enemyRadar[LeftFront10]&#45;&gt;Move Left</title>
<path fill="none" stroke="red" stroke-width="0.513379" d="M775.94,-231.324C613.791,-226.919 149.341,-212.289 127.213,-188.735 114.302,-174.992 114.413,-160.155 127.213,-146.309 196.517,-71.3438 489.848,-146.752 585.213,-110.309 598.022,-105.414 610.456,-97.4361 621.245,-89.0906"/>
<polygon fill="red" stroke="red" stroke-width="0.513379" points="623.587,-91.6972 629.153,-82.682 619.18,-86.2587 623.587,-91.6972"/>
</g>
<!-- enemyRadar[LeftFront10]&#45;&gt;Move right -->
<g id="edge27" class="edge"><title>enemyRadar[LeftFront10]&#45;&gt;Move right</title>
<path fill="none" stroke="green" stroke-width="0.388872" d="M886.22,-233.097C934.932,-230.987 1006.18,-221.743 1058.21,-188.735 1067.72,-182.706 1102.38,-133.708 1127.56,-97.0207"/>
<polygon fill="green" stroke="green" stroke-width="0.388872" points="1130.66,-98.6924 1133.42,-88.4631 1124.88,-94.7393 1130.66,-98.6924"/>
</g>
<!-- enemyRadar[LeftFront10]&#45;&gt;Turn Left -->
<g id="edge53" class="edge"><title>enemyRadar[LeftFront10]&#45;&gt;Turn Left</title>
<path fill="none" stroke="red" stroke-width="0.184122" d="M776.164,-230.845C695.585,-225.976 559.757,-208.563 605.213,-146.309 612.456,-136.389 766.133,-91.0116 843.508,-68.6638"/>
<polygon fill="red" stroke="red" stroke-width="0.184122" points="844.809,-71.9313 853.448,-65.7982 842.87,-65.2052 844.809,-71.9313"/>
</g>
<!-- enemyRadar[LeftFront10]&#45;&gt;Turn Right -->
<g id="edge50" class="edge"><title>enemyRadar[LeftFront10]&#45;&gt;Turn Right</title>
<path fill="none" stroke="red" stroke-width="0.54169" stroke-dasharray="1,5" d="M776.089,-231.393C612.023,-227.135 136.815,-212.767 114.213,-188.735 4.71895,-72.3155 352.142,-57.5615 485.947,-56.1153"/>
<polygon fill="red" stroke="red" stroke-width="0.54169" points="486.365,-59.6119 496.335,-56.0253 486.305,-52.6121 486.365,-59.6119"/>
</g>
<!-- 202 -->
<g id="node30" class="node"><title>202</title>
<ellipse fill="white" stroke="black" cx="21.2132" cy="-167.522" rx="21.4286" ry="21.4286"/>
<text text-anchor="middle" x="21.2132" y="-165.322" font-family="Times,serif" font-size="9.00">202</text>
</g>
<!-- enemyRadar[LeftFront10]&#45;&gt;202 -->
<g id="edge78" class="edge"><title>enemyRadar[LeftFront10]&#45;&gt;202</title>
<path fill="none" stroke="green" stroke-width="0.526904" d="M776.082,-232.906C622.314,-232.86 191.154,-229.035 56.2132,-188.735 53.2171,-187.84 50.2035,-186.644 47.2693,-185.28"/>
<polygon fill="green" stroke="green" stroke-width="0.526904" points="48.7586,-182.108 38.2856,-180.505 45.4735,-188.289 48.7586,-182.108"/>
</g>
<!-- enemyRadar[RightFront3.5] -->
<g id="node17" class="node"><title>enemyRadar[RightFront3.5]</title>
<polygon fill="lightgray" stroke="black" points="2446.71,-176.522 2329.71,-176.522 2329.71,-158.522 2446.71,-158.522 2446.71,-176.522"/>
<text text-anchor="middle" x="2388.21" y="-165.322" font-family="Times,serif" font-size="9.00">enemyRadar[RightFront3.5]</text>
</g>
<!-- enemyRadar[RightFront3.5]&#45;&gt;Move Forward -->
<g id="edge17" class="edge"><title>enemyRadar[RightFront3.5]&#45;&gt;Move Forward</title>
<path fill="none" stroke="green" stroke-width="0.240323" d="M2363.56,-158.435C2350.97,-154.472 2335.37,-149.812 2321.21,-146.309 2177.84,-110.819 2006.67,-80.5873 1918.04,-65.8204"/>
<polygon fill="green" stroke="green" stroke-width="0.240323" points="1918.35,-62.3233 1907.91,-64.1398 1917.2,-69.2289 1918.35,-62.3233"/>
</g>
<!-- enemyRadar[RightFront3.5]&#45;&gt; Move Backward -->
<g id="edge63" class="edge"><title>enemyRadar[RightFront3.5]&#45;&gt; Move Backward</title>
<path fill="none" stroke="green" stroke-width="0.233615" stroke-dasharray="1,5" d="M2366.19,-158.514C2353.26,-154.16 2336.51,-149.107 2321.21,-146.309 2092.46,-104.462 2026.45,-159.76 1799.21,-110.309 1770.63,-104.089 1740.15,-93.2807 1714.63,-82.9479"/>
<polygon fill="green" stroke="green" stroke-width="0.233615" points="1715.68,-79.5968 1705.11,-79.0216 1713.02,-86.0685 1715.68,-79.5968"/>
</g>
<!-- enemyRadar[LeftFront3.5] -->
<g id="node18" class="node"><title>enemyRadar[LeftFront3.5]</title>
<polygon fill="lightgray" stroke="black" points="450.213,-176.522 338.213,-176.522 338.213,-158.522 450.213,-158.522 450.213,-176.522"/>
<text text-anchor="middle" x="394.213" y="-165.322" font-family="Times,serif" font-size="9.00">enemyRadar[LeftFront3.5]</text>
</g>
<!-- enemyRadar[LeftFront3.5]&#45;&gt;Shoot -->
<g id="edge34" class="edge"><title>enemyRadar[LeftFront3.5]&#45;&gt;Shoot</title>
<path fill="none" stroke="green" stroke-width="0.17148" stroke-dasharray="1,5" d="M415.248,-158.492C427.813,-154.073 444.201,-148.961 459.213,-146.309 785.654,-88.6286 878.127,-169.96 1204.21,-110.309 1251.35,-101.685 1303.59,-83.2255 1336.87,-70.2656"/>
<polygon fill="green" stroke="green" stroke-width="0.17148" points="1338.55,-73.3655 1346.57,-66.4372 1335.98,-66.8547 1338.55,-73.3655"/>
</g>
<!-- enemyRadar[LeftFront3.5]&#45;&gt;Move Left -->
<g id="edge40" class="edge"><title>enemyRadar[LeftFront3.5]&#45;&gt;Move Left</title>
<path fill="none" stroke="red" stroke-width="0.283355" d="M419.484,-158.514C431.499,-154.745 446.077,-150.227 459.213,-146.309 515.024,-129.66 533.155,-136.423 585.213,-110.309 597.36,-104.216 609.512,-95.9459 620.243,-87.7046"/>
<polygon fill="red" stroke="red" stroke-width="0.283355" points="622.481,-90.3967 628.148,-81.4445 618.135,-84.9091 622.481,-90.3967"/>
</g>
<!-- enemyRadar[LeftFront3.5]&#45;&gt;Turn Left -->
<g id="edge33" class="edge"><title>enemyRadar[LeftFront3.5]&#45;&gt;Turn Left</title>
<path fill="none" stroke="red" stroke-width="0.508525" d="M417.14,-158.438C429.482,-154.33 445.04,-149.537 459.213,-146.309 566.093,-121.96 596.15,-133.841 703.213,-110.309 752.116,-99.5599 807.05,-82.7553 844.059,-70.7169"/>
<polygon fill="red" stroke="red" stroke-width="0.508525" points="845.59,-73.8981 854.002,-67.4568 843.409,-67.2465 845.59,-73.8981"/>
</g>
<!-- enemyRadar[LeftFront3.5]&#45;&gt;Turn Right -->
<g id="edge19" class="edge"><title>enemyRadar[LeftFront3.5]&#45;&gt;Turn Right</title>
<path fill="none" stroke="green" stroke-width="0.393399" d="M404.886,-158.226C424.247,-143.178 466.047,-110.69 497.319,-86.3841"/>
<polygon fill="green" stroke="green" stroke-width="0.393399" points="499.68,-88.9825 505.427,-80.0823 495.384,-83.4556 499.68,-88.9825"/>
</g>
<!-- enemyRadar[RightFront1.5] -->
<g id="node19" class="node"><title>enemyRadar[RightFront1.5]</title>
<polygon fill="lightgray" stroke="black" points="2028.71,-176.522 1911.71,-176.522 1911.71,-158.522 2028.71,-158.522 2028.71,-176.522"/>
<text text-anchor="middle" x="1970.21" y="-165.322" font-family="Times,serif" font-size="9.00">enemyRadar[RightFront1.5]</text>
</g>
<!-- enemyRadar[RightFront1.5]&#45;&gt; Move Backward -->
<g id="edge26" class="edge"><title>enemyRadar[RightFront1.5]&#45;&gt; Move Backward</title>
<path fill="none" stroke="green" stroke-width="0.181838" stroke-dasharray="1,5" d="M1944.61,-158.475C1911.07,-147.85 1850.5,-128.373 1799.21,-110.309 1771.74,-100.631 1741.53,-89.3696 1715.92,-79.6309"/>
<polygon fill="green" stroke="green" stroke-width="0.181838" points="1716.93,-76.2712 1706.34,-75.9795 1714.44,-82.812 1716.93,-76.2712"/>
</g>
<!-- enemyRadar[LeftFront1.5] -->
<g id="node20" class="node"><title>enemyRadar[LeftFront1.5]</title>
<polygon fill="lightgray" stroke="black" points="1669.21,-176.522 1557.21,-176.522 1557.21,-158.522 1669.21,-158.522 1669.21,-176.522"/>
<text text-anchor="middle" x="1613.21" y="-165.322" font-family="Times,serif" font-size="9.00">enemyRadar[LeftFront1.5]</text>
</g>
<!-- enemyRadar[LeftFront1.5]&#45;&gt;Shoot -->
<g id="edge58" class="edge"><title>enemyRadar[LeftFront1.5]&#45;&gt;Shoot</title>
<path fill="none" stroke="red" stroke-width="0.336965" d="M1595.42,-158.406C1555.14,-140.035 1456.45,-95.0267 1404.47,-71.323"/>
<polygon fill="red" stroke="red" stroke-width="0.336965" points="1405.89,-68.1212 1395.34,-67.1562 1402.98,-74.4902 1405.89,-68.1212"/>
</g>
<!-- enemyRadar[LeftFront1.5]&#45;&gt;Move Forward -->
<g id="edge76" class="edge"><title>enemyRadar[LeftFront1.5]&#45;&gt;Move Forward</title>
<path fill="none" stroke="red" stroke-width="0.918178" d="M1631.23,-158.406C1667.06,-142.265 1748.54,-105.56 1803.48,-80.8095"/>
<polygon fill="red" stroke="red" stroke-width="0.918178" points="1805.06,-83.9388 1812.74,-76.6403 1802.18,-77.5565 1805.06,-83.9388"/>
</g>
<!-- enemyRadar[LeftFront1.5]&#45;&gt; Move Backward -->
<g id="edge57" class="edge"><title>enemyRadar[LeftFront1.5]&#45;&gt; Move Backward</title>
<path fill="none" stroke="green" stroke-width="0.170053" d="M1616.37,-158.226C1619.89,-148.965 1625.93,-133.098 1632.21,-116.598"/>
<polygon fill="green" stroke="green" stroke-width="0.170053" points="1635.63,-117.446 1635.92,-106.855 1629.09,-114.956 1635.63,-117.446"/>
</g>
<!-- enemyRadar[LeftFront1.5]&#45;&gt;Move right -->
<g id="edge20" class="edge"><title>enemyRadar[LeftFront1.5]&#45;&gt;Move right</title>
<path fill="none" stroke="green" stroke-width="0.377066" d="M1589.96,-158.458C1577.66,-154.406 1562.24,-149.658 1548.21,-146.309 1454.83,-124.004 1428.7,-132.181 1335.21,-110.309 1289.47,-99.6055 1238.25,-83.814 1202.18,-72.0421"/>
<polygon fill="green" stroke="green" stroke-width="0.377066" points="1203.02,-68.6335 1192.42,-68.836 1200.83,-75.2835 1203.02,-68.6335"/>
</g>
<!-- enemyRadar[LeftFront1.5]&#45;&gt;Turn Left -->
<g id="edge77" class="edge"><title>enemyRadar[LeftFront1.5]&#45;&gt;Turn Left</title>
<path fill="none" stroke="green" stroke-width="0.101686" d="M1591.56,-158.472C1579.06,-154.16 1562.95,-149.164 1548.21,-146.309 1354.72,-108.818 1300.73,-142.068 1106.21,-110.309 1044.53,-100.238 974.658,-81.6813 930.769,-69.1304"/>
<polygon fill="green" stroke="green" stroke-width="0.101686" points="931.58,-65.7217 921.002,-66.3136 929.64,-72.4476 931.58,-65.7217"/>
</g>
<!-- OnTarget -->
<g id="node21" class="node"><title>OnTarget</title>
<polygon fill="lightgray" stroke="black" points="320.213,-176.522 270.213,-176.522 270.213,-158.522 320.213,-158.522 320.213,-176.522"/>
<text text-anchor="middle" x="295.213" y="-165.322" font-family="Times,serif" font-size="9.00">OnTarget</text>
</g>
<!-- OnTarget&#45;&gt;Move Left -->
<g id="edge65" class="edge"><title>OnTarget&#45;&gt;Move Left</title>
<path fill="none" stroke="green" stroke-width="0.213342" d="M306.297,-158.398C312.686,-154.12 321.05,-149.178 329.213,-146.309 437.608,-108.204 479.192,-154.592 585.213,-110.309 597.866,-105.024 610.252,-96.9256 621.044,-88.5894"/>
<polygon fill="green" stroke="green" stroke-width="0.213342" points="623.372,-91.2091 628.965,-82.2109 618.981,-85.7572 623.372,-91.2091"/>
</g>
<!-- bias -->
<g id="node22" class="node"><title>bias</title>
<polygon fill="lightgray" stroke="black" points="2077.71,-176.522 2046.71,-176.522 2046.71,-158.522 2077.71,-158.522 2077.71,-176.522"/>
<text text-anchor="middle" x="2062.21" y="-165.322" font-family="Times,serif" font-size="9.00">bias</text>
</g>
<!-- bias&#45;&gt;Move Forward -->
<g id="edge28" class="edge"><title>bias&#45;&gt;Move Forward</title>
<path fill="none" stroke="green" stroke-width="0.660886" d="M2053.71,-158.512C2049.29,-154.569 2043.67,-149.903 2038.21,-146.309 1998.55,-120.201 1950.29,-96.413 1913.73,-79.8352"/>
<polygon fill="green" stroke="green" stroke-width="0.660886" points="1914.78,-76.4699 1904.22,-75.5672 1911.91,-82.8559 1914.78,-76.4699"/>
</g>
<!-- bias&#45;&gt; Move Backward -->
<g id="edge59" class="edge"><title>bias&#45;&gt; Move Backward</title>
<path fill="none" stroke="green" stroke-width="0.119132" d="M2054.56,-158.162C2050.19,-153.922 2044.37,-149.092 2038.21,-146.309 1940.34,-102.043 1903.17,-137.364 1799.21,-110.309 1771.02,-102.972 1740.71,-92.0567 1715.21,-81.9444"/>
<polygon fill="green" stroke="green" stroke-width="0.119132" points="1716.27,-78.598 1705.69,-78.1171 1713.66,-85.0933 1716.27,-78.598"/>
</g>
<!-- bias&#45;&gt;Move right -->
<g id="edge36" class="edge"><title>bias&#45;&gt;Move right</title>
<path fill="none" stroke="red" stroke-width="0.263955" d="M2055.08,-158.333C2050.7,-153.92 2044.7,-148.866 2038.21,-146.309 1892.69,-88.9321 1489.34,-137.036 1335.21,-110.309 1288.92,-102.281 1237.77,-86.1562 1201.87,-73.5797"/>
<polygon fill="red" stroke="red" stroke-width="0.263955" points="1202.75,-70.1812 1192.16,-70.1362 1200.41,-76.7783 1202.75,-70.1812"/>
</g>
<!-- 202&#45;&gt;Turn Right -->
<g id="edge79" class="edge"><title>202&#45;&gt;Turn Right</title>
<path fill="none" stroke="red" stroke-width="0.223328" d="M38.448,-155.024C43.9366,-151.792 50.1595,-148.551 56.2132,-146.309 207.078,-90.435 397.987,-67.8605 486.708,-59.9176"/>
<polygon fill="red" stroke="red" stroke-width="0.223328" points="487.098,-63.3969 496.757,-59.0418 486.491,-56.4234 487.098,-63.3969"/>
</g>
<!-- 208&#45;&gt;Shoot -->
<g id="edge81" class="edge"><title>208&#45;&gt;Shoot</title>
<path fill="none" stroke="green" stroke-width="0.104576" d="M1766.92,-155.167C1761.43,-151.94 1755.22,-148.666 1749.21,-146.309 1682.17,-120.004 1661.29,-126.917 1591.21,-110.309 1526.19,-94.8998 1450.59,-76.094 1407.08,-65.1852"/>
<polygon fill="green" stroke="green" stroke-width="0.104576" points="1407.81,-61.7593 1397.25,-62.7196 1406.1,-68.5488 1407.81,-61.7593"/>
</g>
</g>
</svg>
