<?xml version="1.0" encoding="UTF-8" standalone="no"?>
<!DOCTYPE svg PUBLIC "-//W3C//DTD SVG 1.1//EN"
 "http://www.w3.org/Graphics/SVG/1.1/DTD/svg11.dtd">
<!-- Generated by graphviz version 2.38.0 (20140413.2041)
 -->
<!-- Title: %3 Pages: 1 -->
<svg width="2510pt" height="216pt"
 viewBox="0.00 0.00 2510.00 216.15" xmlns="http://www.w3.org/2000/svg" xmlns:xlink="http://www.w3.org/1999/xlink">
<g id="graph0" class="graph" transform="scale(1 1) rotate(0) translate(4 212.149)">
<title>%3</title>
<polygon fill="white" stroke="none" points="-4,4 -4,-212.149 2506,-212.149 2506,4 -4,4"/>
<!-- wallRadar[1,0] -->
<g id="node1" class="node"><title>wallRadar[1,0]</title>
<polygon fill="lightgray" stroke="black" points="70,-208.149 0,-208.149 0,-190.149 70,-190.149 70,-208.149"/>
<text text-anchor="middle" x="35" y="-196.949" font-family="Times,serif" font-size="9.00">wallRadar[1,0]</text>
</g>
<!-- Move Forward/Backward -->
<g id="node24" class="node"><title>Move Forward/Backward</title>
<ellipse fill="lightblue" stroke="black" cx="1015" cy="-77.0746" rx="77.1494" ry="77.1494"/>
<text text-anchor="middle" x="1015" y="-74.8746" font-family="Times,serif" font-size="9.00">Move Forward/Backward</text>
</g>
<!-- wallRadar[1,0]&#45;&gt;Move Forward/Backward -->
<g id="edge44" class="edge"><title>wallRadar[1,0]&#45;&gt;Move Forward/Backward</title>
<path fill="none" stroke="green" stroke-width="0.121259" d="M70.0078,-191.4C73.0424,-190.932 76.0712,-190.505 79,-190.149 335.388,-158.994 403.12,-189.232 659,-154.149 752.89,-141.276 858.928,-117.384 930.672,-99.7971"/>
<polygon fill="green" stroke="green" stroke-width="0.121259" points="931.691,-103.151 940.562,-97.3592 930.015,-96.3542 931.691,-103.151"/>
</g>
<!-- Turn left/right -->
<g id="node26" class="node"><title>Turn left/right</title>
<ellipse fill="lightblue" stroke="black" cx="603" cy="-77.0746" rx="46.8387" ry="46.8387"/>
<text text-anchor="middle" x="603" y="-74.8746" font-family="Times,serif" font-size="9.00">Turn left/right</text>
</g>
<!-- wallRadar[1,0]&#45;&gt;Turn left/right -->
<g id="edge38" class="edge"><title>wallRadar[1,0]&#45;&gt;Turn left/right</title>
<path fill="none" stroke="green" stroke-width="0.171836" d="M70.1023,-190.729C165.659,-170.528 431.043,-114.426 547.269,-89.856"/>
<polygon fill="green" stroke="green" stroke-width="0.171836" points="548.317,-93.2121 557.377,-87.7194 546.869,-86.3634 548.317,-93.2121"/>
</g>
<!-- wallRadar[0,1] -->
<g id="node2" class="node"><title>wallRadar[0,1]</title>
<polygon fill="lightgray" stroke="black" points="1962,-208.149 1892,-208.149 1892,-190.149 1962,-190.149 1962,-208.149"/>
<text text-anchor="middle" x="1927" y="-196.949" font-family="Times,serif" font-size="9.00">wallRadar[0,1]</text>
</g>
<!-- wallRadar[0,1]&#45;&gt;Move Forward/Backward -->
<g id="edge39" class="edge"><title>wallRadar[0,1]&#45;&gt;Move Forward/Backward</title>
<path fill="none" stroke="red" stroke-width="0.143704" d="M1892,-191.365C1888.96,-190.904 1885.93,-190.489 1883,-190.149 1570.9,-153.973 1481.8,-230.354 1177,-154.149 1147.61,-146.801 1117.11,-134.015 1090.6,-120.998"/>
<polygon fill="red" stroke="red" stroke-width="0.143704" points="1091.91,-117.74 1081.4,-116.393 1088.78,-123.999 1091.91,-117.74"/>
</g>
<!--  Move Left/Right -->
<g id="node25" class="node"><title> Move Left/Right</title>
<ellipse fill="lightblue" stroke="black" cx="1453" cy="-77.0746" rx="55.3091" ry="55.3091"/>
<text text-anchor="middle" x="1453" y="-74.8746" font-family="Times,serif" font-size="9.00"> Move Left/Right</text>
</g>
<!-- wallRadar[0,1]&#45;&gt; Move Left/Right -->
<g id="edge8" class="edge"><title>wallRadar[0,1]&#45;&gt; Move Left/Right</title>
<path fill="none" stroke="green" stroke-width="0.448235" d="M1895.16,-190.084C1817.82,-170.493 1618.89,-120.098 1516.29,-94.1072"/>
<polygon fill="green" stroke="green" stroke-width="0.448235" points="1516.92,-90.6569 1506.37,-91.594 1515.2,-97.4425 1516.92,-90.6569"/>
</g>
<!-- wallRadar[&#45;1,0] -->
<g id="node3" class="node"><title>wallRadar[&#45;1,0]</title>
<polygon fill="lightgray" stroke="black" points="2053.5,-208.149 1980.5,-208.149 1980.5,-190.149 2053.5,-190.149 2053.5,-208.149"/>
<text text-anchor="middle" x="2017" y="-196.949" font-family="Times,serif" font-size="9.00">wallRadar[&#45;1,0]</text>
</g>
<!-- Shoot -->
<g id="node23" class="node"><title>Shoot</title>
<ellipse fill="lightblue" stroke="black" cx="1213" cy="-77.0746" rx="26.7407" ry="26.7407"/>
<text text-anchor="middle" x="1213" y="-74.8746" font-family="Times,serif" font-size="9.00">Shoot</text>
</g>
<!-- wallRadar[&#45;1,0]&#45;&gt;Shoot -->
<g id="edge33" class="edge"><title>wallRadar[&#45;1,0]&#45;&gt;Shoot</title>
<path fill="none" stroke="green" stroke-width="0.141523" d="M1980.4,-191.408C1977.22,-190.938 1974.06,-190.509 1971,-190.149 1713.61,-159.901 1641.04,-214.464 1389,-154.149 1336.33,-141.545 1279.51,-114.233 1245.1,-95.9997"/>
<polygon fill="green" stroke="green" stroke-width="0.141523" points="1246.48,-92.7657 1236.01,-91.1176 1243.17,-98.9326 1246.48,-92.7657"/>
</g>
<!-- wallRadar[&#45;1,0]&#45;&gt; Move Left/Right -->
<g id="edge40" class="edge"><title>wallRadar[&#45;1,0]&#45;&gt; Move Left/Right</title>
<path fill="none" stroke="green" stroke-width="0.318176" d="M1980.43,-190.363C1886.5,-170.367 1635.86,-117.005 1517.11,-91.7229"/>
<polygon fill="green" stroke="green" stroke-width="0.318176" points="1517.58,-88.2445 1507.07,-89.5853 1516.12,-95.091 1517.58,-88.2445"/>
</g>
<!-- wallRadar[0,&#45;1] -->
<g id="node4" class="node"><title>wallRadar[0,&#45;1]</title>
<polygon fill="lightgray" stroke="black" points="417.5,-208.149 344.5,-208.149 344.5,-190.149 417.5,-190.149 417.5,-208.149"/>
<text text-anchor="middle" x="381" y="-196.949" font-family="Times,serif" font-size="9.00">wallRadar[0,&#45;1]</text>
</g>
<!-- wallRadar[0,&#45;1]&#45;&gt;Shoot -->
<g id="edge51" class="edge"><title>wallRadar[0,&#45;1]&#45;&gt;Shoot</title>
<path fill="none" stroke="red" stroke-width="0.104417" d="M417.602,-191.38C420.774,-190.916 423.939,-190.496 427,-190.149 576.038,-173.27 958.861,-202.044 1101,-154.149 1133.2,-143.301 1164.74,-120.452 1186.1,-102.612"/>
<polygon fill="red" stroke="red" stroke-width="0.104417" points="1188.44,-105.214 1193.77,-96.0557 1183.9,-99.8933 1188.44,-105.214"/>
</g>
<!-- wallRadar[0,&#45;1]&#45;&gt;Turn left/right -->
<g id="edge42" class="edge"><title>wallRadar[0,&#45;1]&#45;&gt;Turn left/right</title>
<path fill="none" stroke="green" stroke-width="0.34028" d="M395.911,-190.084C427.551,-172.971 502.644,-132.355 553.162,-105.031"/>
<polygon fill="green" stroke="green" stroke-width="0.34028" points="554.851,-108.097 561.982,-100.261 551.521,-101.94 554.851,-108.097"/>
</g>
<!-- wallRadar[0.7,0.7] -->
<g id="node5" class="node"><title>wallRadar[0.7,0.7]</title>
<polygon fill="lightgray" stroke="black" points="1373.5,-208.149 1290.5,-208.149 1290.5,-190.149 1373.5,-190.149 1373.5,-208.149"/>
<text text-anchor="middle" x="1332" y="-196.949" font-family="Times,serif" font-size="9.00">wallRadar[0.7,0.7]</text>
</g>
<!-- wallRadar[0.7,0.7]&#45;&gt;Shoot -->
<g id="edge24" class="edge"><title>wallRadar[0.7,0.7]&#45;&gt;Shoot</title>
<path fill="none" stroke="green" stroke-width="0.260629" d="M1323.82,-189.896C1306.54,-172.461 1265.7,-131.247 1238.72,-104.022"/>
<polygon fill="green" stroke="green" stroke-width="0.260629" points="1241.03,-101.385 1231.5,-96.7457 1236.06,-106.312 1241.03,-101.385"/>
</g>
<!-- wallRadar[0.7,0.7]&#45;&gt;Move Forward/Backward -->
<g id="edge22" class="edge"><title>wallRadar[0.7,0.7]&#45;&gt;Move Forward/Backward</title>
<path fill="none" stroke="red" stroke-width="0.145017" d="M1297.62,-190.098C1265.87,-182.261 1217.61,-169.334 1177,-154.149 1148.88,-143.636 1118.92,-130.224 1092.5,-117.597"/>
<polygon fill="red" stroke="red" stroke-width="0.145017" points="1093.84,-114.359 1083.31,-113.17 1090.8,-120.665 1093.84,-114.359"/>
</g>
<!-- wallRadar[0.7,0.7]&#45;&gt; Move Left/Right -->
<g id="edge48" class="edge"><title>wallRadar[0.7,0.7]&#45;&gt; Move Left/Right</title>
<path fill="none" stroke="red" stroke-width="0.143217" d="M1340.32,-189.896C1354.02,-176.297 1382.3,-148.231 1407.1,-123.621"/>
<polygon fill="red" stroke="red" stroke-width="0.143217" points="1409.69,-125.98 1414.33,-116.451 1404.76,-121.011 1409.69,-125.98"/>
</g>
<!-- wallRadar[0.7,0.7]&#45;&gt;Turn left/right -->
<g id="edge11" class="edge"><title>wallRadar[0.7,0.7]&#45;&gt;Turn left/right</title>
<path fill="none" stroke="red" stroke-width="0.237946" d="M1290.28,-191.418C1287.14,-190.969 1284.02,-190.541 1281,-190.149 1125.04,-169.957 1084.11,-180.071 929,-154.149 832.555,-138.032 722.069,-110.24 657.656,-93.081"/>
<polygon fill="red" stroke="red" stroke-width="0.237946" points="658.288,-89.627 647.723,-90.4218 656.478,-96.3889 658.288,-89.627"/>
</g>
<!-- wallRadar[&#45;0.7,0.7] -->
<g id="node6" class="node"><title>wallRadar[&#45;0.7,0.7]</title>
<polygon fill="lightgray" stroke="black" points="885,-208.149 799,-208.149 799,-190.149 885,-190.149 885,-208.149"/>
<text text-anchor="middle" x="842" y="-196.949" font-family="Times,serif" font-size="9.00">wallRadar[&#45;0.7,0.7]</text>
</g>
<!-- wallRadar[&#45;0.7,0.7]&#45;&gt;Shoot -->
<g id="edge28" class="edge"><title>wallRadar[&#45;0.7,0.7]&#45;&gt;Shoot</title>
<path fill="none" stroke="green" stroke-width="0.115123" d="M885.01,-191.332C956.037,-180.004 1091.06,-158.149 1101,-154.149 1132.33,-141.548 1163.76,-119.135 1185.32,-101.89"/>
<polygon fill="green" stroke="green" stroke-width="0.115123" points="1187.54,-104.596 1193.08,-95.5646 1183.12,-99.171 1187.54,-104.596"/>
</g>
<!-- wallRadar[&#45;0.7,0.7]&#45;&gt;Move Forward/Backward -->
<g id="edge46" class="edge"><title>wallRadar[&#45;0.7,0.7]&#45;&gt;Move Forward/Backward</title>
<path fill="none" stroke="red" stroke-width="0.315195" d="M853.62,-190.084C871.988,-177.336 909.148,-151.544 943.184,-127.921"/>
<polygon fill="red" stroke="red" stroke-width="0.315195" points="945.537,-130.548 951.756,-121.971 941.545,-124.797 945.537,-130.548"/>
</g>
<!-- wallRadar[&#45;0.7,0.7]&#45;&gt; Move Left/Right -->
<g id="edge34" class="edge"><title>wallRadar[&#45;0.7,0.7]&#45;&gt; Move Left/Right</title>
<path fill="none" stroke="green" stroke-width="0.630552" d="M885.106,-191.342C888.114,-190.921 891.101,-190.519 894,-190.149 1051.31,-170.085 1094.55,-190.149 1249,-154.149 1299.1,-142.472 1353.58,-121.711 1393.63,-104.825"/>
<polygon fill="green" stroke="green" stroke-width="0.630552" points="1395.15,-107.984 1402.98,-100.845 1392.4,-101.543 1395.15,-107.984"/>
</g>
<!-- wallRadar[&#45;0.7,0.7]&#45;&gt;Turn left/right -->
<g id="edge4" class="edge"><title>wallRadar[&#45;0.7,0.7]&#45;&gt;Turn left/right</title>
<path fill="none" stroke="green" stroke-width="0.259686" d="M825.947,-190.084C791.22,-172.637 707.871,-130.762 653.503,-103.448"/>
<polygon fill="green" stroke="green" stroke-width="0.259686" points="654.881,-100.223 644.374,-98.861 651.738,-106.478 654.881,-100.223"/>
</g>
<!-- wallRadar[&#45;0.7,&#45;0.7] -->
<g id="node7" class="node"><title>wallRadar[&#45;0.7,&#45;0.7]</title>
<polygon fill="lightgray" stroke="black" points="647.5,-208.149 558.5,-208.149 558.5,-190.149 647.5,-190.149 647.5,-208.149"/>
<text text-anchor="middle" x="603" y="-196.949" font-family="Times,serif" font-size="9.00">wallRadar[&#45;0.7,&#45;0.7]</text>
</g>
<!-- wallRadar[&#45;0.7,&#45;0.7]&#45;&gt; Move Left/Right -->
<g id="edge15" class="edge"><title>wallRadar[&#45;0.7,&#45;0.7]&#45;&gt; Move Left/Right</title>
<path fill="none" stroke="green" stroke-width="0.252258" d="M647.783,-191.103C650.56,-190.755 653.316,-190.433 656,-190.149 918.58,-162.417 990.693,-208.878 1249,-154.149 1299.32,-143.487 1353.79,-122.662 1393.78,-105.493"/>
<polygon fill="green" stroke="green" stroke-width="0.252258" points="1395.33,-108.635 1403.11,-101.441 1392.54,-102.215 1395.33,-108.635"/>
</g>
<!-- wallRadar[&#45;0.7,&#45;0.7]&#45;&gt;Turn left/right -->
<g id="edge29" class="edge"><title>wallRadar[&#45;0.7,&#45;0.7]&#45;&gt;Turn left/right</title>
<path fill="none" stroke="green" stroke-width="0.244928" d="M603,-189.896C603,-178.186 603,-155.752 603,-134.032"/>
<polygon fill="green" stroke="green" stroke-width="0.244928" points="606.5,-133.812 603,-123.812 599.5,-133.812 606.5,-133.812"/>
</g>
<!-- wallRadar[0.7,&#45;0.7] -->
<g id="node8" class="node"><title>wallRadar[0.7,&#45;0.7]</title>
<polygon fill="lightgray" stroke="black" points="1734,-208.149 1648,-208.149 1648,-190.149 1734,-190.149 1734,-208.149"/>
<text text-anchor="middle" x="1691" y="-196.949" font-family="Times,serif" font-size="9.00">wallRadar[0.7,&#45;0.7]</text>
</g>
<!-- wallRadar[0.7,&#45;0.7]&#45;&gt;Move Forward/Backward -->
<g id="edge49" class="edge"><title>wallRadar[0.7,&#45;0.7]&#45;&gt;Move Forward/Backward</title>
<path fill="none" stroke="green" stroke-width="0.267084" d="M1647.9,-191.265C1644.89,-190.862 1641.9,-190.485 1639,-190.149 1434.41,-166.474 1376.12,-206.778 1177,-154.149 1147.84,-146.443 1117.51,-133.645 1091.08,-120.725"/>
<polygon fill="green" stroke="green" stroke-width="0.267084" points="1092.42,-117.48 1081.91,-116.157 1089.3,-123.746 1092.42,-117.48"/>
</g>
<!-- wallRadar[0.7,&#45;0.7]&#45;&gt; Move Left/Right -->
<g id="edge19" class="edge"><title>wallRadar[0.7,&#45;0.7]&#45;&gt; Move Left/Right</title>
<path fill="none" stroke="green" stroke-width="0.323279" d="M1675.01,-190.084C1642.11,-173.482 1565.36,-134.761 1511.35,-107.515"/>
<polygon fill="green" stroke="green" stroke-width="0.323279" points="1512.73,-104.287 1502.22,-102.908 1509.57,-110.537 1512.73,-104.287"/>
</g>
<!-- enemyRadar[RightBack] -->
<g id="node9" class="node"><title>enemyRadar[RightBack]</title>
<polygon fill="lightgray" stroke="black" points="540,-208.149 436,-208.149 436,-190.149 540,-190.149 540,-208.149"/>
<text text-anchor="middle" x="488" y="-196.949" font-family="Times,serif" font-size="9.00">enemyRadar[RightBack]</text>
</g>
<!-- enemyRadar[RightBack]&#45;&gt;Shoot -->
<g id="edge37" class="edge"><title>enemyRadar[RightBack]&#45;&gt;Shoot</title>
<path fill="none" stroke="green" stroke-width="0.177568" d="M540.218,-191.073C543.187,-190.742 546.13,-190.431 549,-190.149 671.34,-178.151 984.741,-194.087 1101,-154.149 1133.13,-143.112 1164.68,-120.288 1186.07,-102.505"/>
<polygon fill="green" stroke="green" stroke-width="0.177568" points="1188.4,-105.118 1193.74,-95.9712 1183.86,-99.7866 1188.4,-105.118"/>
</g>
<!-- enemyRadar[RightBack]&#45;&gt;Move Forward/Backward -->
<g id="edge5" class="edge"><title>enemyRadar[RightBack]&#45;&gt;Move Forward/Backward</title>
<path fill="none" stroke="red" stroke-width="0.303708" d="M523.396,-190.084C605.806,-171.308 812.395,-124.237 929.859,-97.4737"/>
<polygon fill="red" stroke="red" stroke-width="0.303708" points="930.925,-100.821 939.897,-95.1865 929.37,-93.9955 930.925,-100.821"/>
</g>
<!-- enemyRadar[RightBack]&#45;&gt;Turn left/right -->
<g id="edge17" class="edge"><title>enemyRadar[RightBack]&#45;&gt;Turn left/right</title>
<path fill="none" stroke="red" stroke-width="0.207715" d="M495.904,-189.896C509.807,-175.38 539.493,-144.384 564.092,-118.699"/>
<polygon fill="red" stroke="red" stroke-width="0.207715" points="566.819,-120.912 571.208,-111.269 561.764,-116.07 566.819,-120.912"/>
</g>
<!-- enemyRadar[LeftBack] -->
<g id="node10" class="node"><title>enemyRadar[LeftBack]</title>
<polygon fill="lightgray" stroke="black" points="1002.5,-208.149 903.5,-208.149 903.5,-190.149 1002.5,-190.149 1002.5,-208.149"/>
<text text-anchor="middle" x="953" y="-196.949" font-family="Times,serif" font-size="9.00">enemyRadar[LeftBack]</text>
</g>
<!-- enemyRadar[LeftBack]&#45;&gt;Shoot -->
<g id="edge50" class="edge"><title>enemyRadar[LeftBack]&#45;&gt;Shoot</title>
<path fill="none" stroke="green" stroke-width="0.306519" d="M991.593,-190.121C1022.18,-182.954 1065.52,-170.976 1101,-154.149 1131.37,-139.745 1162.77,-117.692 1184.56,-101.032"/>
<polygon fill="green" stroke="green" stroke-width="0.306519" points="1186.95,-103.608 1192.7,-94.7132 1182.66,-98.0769 1186.95,-103.608"/>
</g>
<!-- enemyRadar[LeftBack]&#45;&gt;Move Forward/Backward -->
<g id="edge2" class="edge"><title>enemyRadar[LeftBack]&#45;&gt;Move Forward/Backward</title>
<path fill="none" stroke="red" stroke-width="0.419942" d="M957.262,-189.896C961.362,-181.954 968.011,-169.079 975.363,-154.839"/>
<polygon fill="red" stroke="red" stroke-width="0.419942" points="978.538,-156.319 980.016,-145.828 972.318,-153.108 978.538,-156.319"/>
</g>
<!-- enemyRadar[LeftBack]&#45;&gt; Move Left/Right -->
<g id="edge21" class="edge"><title>enemyRadar[LeftBack]&#45;&gt; Move Left/Right</title>
<path fill="none" stroke="red" stroke-width="0.40114" d="M1002.67,-191.345C1080.73,-180.564 1225.67,-160.163 1249,-154.149 1298.81,-141.31 1353.31,-120.623 1393.44,-104.06"/>
<polygon fill="red" stroke="red" stroke-width="0.40114" points="1394.92,-107.237 1402.81,-100.162 1392.23,-100.774 1394.92,-107.237"/>
</g>
<!-- enemyRadar[LeftBack]&#45;&gt;Turn left/right -->
<g id="edge36" class="edge"><title>enemyRadar[LeftBack]&#45;&gt;Turn left/right</title>
<path fill="none" stroke="green" stroke-width="0.253916" d="M929.492,-190.084C874.079,-171.074 734.129,-123.061 656.66,-96.4838"/>
<polygon fill="green" stroke="green" stroke-width="0.253916" points="657.669,-93.1297 647.074,-93.1952 655.397,-99.7509 657.669,-93.1297"/>
</g>
<!-- enemyRadar[Right45ø] -->
<g id="node11" class="node"><title>enemyRadar[Right45ø]</title>
<polygon fill="lightgray" stroke="black" points="326,-208.149 226,-208.149 226,-190.149 326,-190.149 326,-208.149"/>
<text text-anchor="middle" x="276" y="-196.949" font-family="Times,serif" font-size="9.00">enemyRadar[Right45ø]</text>
</g>
<!-- enemyRadar[Right45ø]&#45;&gt;Shoot -->
<g id="edge12" class="edge"><title>enemyRadar[Right45ø]&#45;&gt;Shoot</title>
<path fill="none" stroke="green" stroke-width="0.264334" d="M326.178,-191.04C329.16,-190.713 332.118,-190.412 335,-190.149 504.707,-174.686 939.338,-208.047 1101,-154.149 1133.23,-143.404 1164.77,-120.542 1186.12,-102.671"/>
<polygon fill="green" stroke="green" stroke-width="0.264334" points="1188.47,-105.267 1193.79,-96.1017 1183.92,-99.9514 1188.47,-105.267"/>
</g>
<!-- enemyRadar[Right45ø]&#45;&gt;Move Forward/Backward -->
<g id="edge30" class="edge"><title>enemyRadar[Right45ø]&#45;&gt;Move Forward/Backward</title>
<path fill="none" stroke="red" stroke-width="0.260813" d="M326.201,-191.259C329.177,-190.876 332.127,-190.504 335,-190.149 478.797,-172.414 515.978,-177.317 659,-154.149 752.4,-139.02 858.308,-115.569 930.153,-98.7035"/>
<polygon fill="red" stroke="red" stroke-width="0.260813" points="931.129,-102.069 940.059,-96.369 929.523,-95.2561 931.129,-102.069"/>
</g>
<!-- enemyRadar[Right45ø]&#45;&gt;Turn left/right -->
<g id="edge1" class="edge"><title>enemyRadar[Right45ø]&#45;&gt;Turn left/right</title>
<path fill="none" stroke="green" stroke-width="0.201629" d="M297.963,-190.084C349.012,-171.339 476.855,-124.395 549.804,-97.6083"/>
<polygon fill="green" stroke="green" stroke-width="0.201629" points="551.105,-100.859 559.286,-94.1266 548.692,-94.2881 551.105,-100.859"/>
</g>
<!-- enemyRadar[Left45ø] -->
<g id="node12" class="node"><title>enemyRadar[Left45ø]</title>
<polygon fill="lightgray" stroke="black" points="2299.5,-208.149 2204.5,-208.149 2204.5,-190.149 2299.5,-190.149 2299.5,-208.149"/>
<text text-anchor="middle" x="2252" y="-196.949" font-family="Times,serif" font-size="9.00">enemyRadar[Left45ø]</text>
</g>
<!-- enemyRadar[Left45ø]&#45;&gt; Move Left/Right -->
<g id="edge43" class="edge"><title>enemyRadar[Left45ø]&#45;&gt; Move Left/Right</title>
<path fill="none" stroke="red" stroke-width="0.346665" d="M2204.41,-190.998C2067.66,-170.446 1673.39,-111.195 1517.52,-87.7709"/>
<polygon fill="red" stroke="red" stroke-width="0.346665" points="1518.01,-84.3057 1507.6,-86.2806 1516.97,-91.2279 1518.01,-84.3057"/>
</g>
<!-- enemyRadar[RightFront20ø] -->
<g id="node13" class="node"><title>enemyRadar[RightFront20ø]</title>
<polygon fill="lightgray" stroke="black" points="207.5,-208.149 88.5,-208.149 88.5,-190.149 207.5,-190.149 207.5,-208.149"/>
<text text-anchor="middle" x="148" y="-196.949" font-family="Times,serif" font-size="9.00">enemyRadar[RightFront20ø]</text>
</g>
<!-- enemyRadar[RightFront20ø]&#45;&gt;Move Forward/Backward -->
<g id="edge13" class="edge"><title>enemyRadar[RightFront20ø]&#45;&gt;Move Forward/Backward</title>
<path fill="none" stroke="green" stroke-width="0.288344" d="M207.826,-191.086C210.927,-190.76 214,-190.445 217,-190.149 413.143,-170.797 463.999,-182.803 659,-154.149 752.761,-140.372 858.822,-116.634 930.605,-99.3315"/>
<polygon fill="green" stroke="green" stroke-width="0.288344" points="931.607,-102.69 940.502,-96.9344 929.959,-95.8869 931.607,-102.69"/>
</g>
<!-- enemyRadar[RightFront20ø]&#45;&gt;Turn left/right -->
<g id="edge9" class="edge"><title>enemyRadar[RightFront20ø]&#45;&gt;Turn left/right</title>
<path fill="none" stroke="red" stroke-width="0.18088" d="M178.56,-190.084C254.286,-170.1 451.453,-118.068 548.049,-92.5763"/>
<polygon fill="red" stroke="red" stroke-width="0.18088" points="549.14,-95.9081 557.916,-89.9723 547.354,-89.1398 549.14,-95.9081"/>
</g>
<!-- enemyRadar[LeftFront20ø] -->
<g id="node14" class="node"><title>enemyRadar[LeftFront20ø]</title>
<polygon fill="lightgray" stroke="black" points="2186,-208.149 2072,-208.149 2072,-190.149 2186,-190.149 2186,-208.149"/>
<text text-anchor="middle" x="2129" y="-196.949" font-family="Times,serif" font-size="9.00">enemyRadar[LeftFront20ø]</text>
</g>
<!-- enemyRadar[LeftFront20ø]&#45;&gt;Shoot -->
<g id="edge10" class="edge"><title>enemyRadar[LeftFront20ø]&#45;&gt;Shoot</title>
<path fill="none" stroke="red" stroke-width="0.137962" d="M2071.79,-190.976C2068.82,-190.678 2065.87,-190.4 2063,-190.149 1764.15,-164.086 1681.04,-222.736 1389,-154.149 1336.27,-141.766 1279.48,-114.394 1245.08,-96.0881"/>
<polygon fill="red" stroke="red" stroke-width="0.137962" points="1246.46,-92.8542 1236,-91.1851 1243.13,-99.0144 1246.46,-92.8542"/>
</g>
<!-- enemyRadar[LeftFront20ø]&#45;&gt; Move Left/Right -->
<g id="edge45" class="edge"><title>enemyRadar[LeftFront20ø]&#45;&gt; Move Left/Right</title>
<path fill="none" stroke="green" stroke-width="0.681909" d="M2083.86,-190.131C1966.83,-169.344 1653.32,-113.657 1517.37,-89.5077"/>
<polygon fill="green" stroke="green" stroke-width="0.681909" points="1517.96,-86.0579 1507.5,-87.755 1516.73,-92.95 1517.96,-86.0579"/>
</g>
<!-- enemyRadar[RightFront15ø] -->
<g id="node15" class="node"><title>enemyRadar[RightFront15ø]</title>
<polygon fill="lightgray" stroke="black" points="1272.5,-208.149 1153.5,-208.149 1153.5,-190.149 1272.5,-190.149 1272.5,-208.149"/>
<text text-anchor="middle" x="1213" y="-196.949" font-family="Times,serif" font-size="9.00">enemyRadar[RightFront15ø]</text>
</g>
<!-- enemyRadar[RightFront15ø]&#45;&gt;Shoot -->
<g id="edge7" class="edge"><title>enemyRadar[RightFront15ø]&#45;&gt;Shoot</title>
<path fill="none" stroke="green" stroke-width="0.239765" d="M1213,-189.896C1213,-174.554 1213,-140.799 1213,-114.366"/>
<polygon fill="green" stroke="green" stroke-width="0.239765" points="1216.5,-114.286 1213,-104.286 1209.5,-114.286 1216.5,-114.286"/>
</g>
<!-- enemyRadar[RightFront15ø]&#45;&gt;Move Forward/Backward -->
<g id="edge27" class="edge"><title>enemyRadar[RightFront15ø]&#45;&gt;Move Forward/Backward</title>
<path fill="none" stroke="red" stroke-width="0.231989" stroke-dasharray="1,5" d="M1199.7,-190.084C1177.28,-176.486 1130.39,-148.049 1089.46,-123.233"/>
<polygon fill="red" stroke="red" stroke-width="0.231989" points="1091.2,-120.191 1080.83,-117.998 1087.57,-126.177 1091.2,-120.191"/>
</g>
<!-- enemyRadar[LeftFront15ø] -->
<g id="node16" class="node"><title>enemyRadar[LeftFront15ø]</title>
<polygon fill="lightgray" stroke="black" points="1135,-208.149 1021,-208.149 1021,-190.149 1135,-190.149 1135,-208.149"/>
<text text-anchor="middle" x="1078" y="-196.949" font-family="Times,serif" font-size="9.00">enemyRadar[LeftFront15ø]</text>
</g>
<!-- enemyRadar[LeftFront15ø]&#45;&gt;Shoot -->
<g id="edge18" class="edge"><title>enemyRadar[LeftFront15ø]&#45;&gt;Shoot</title>
<path fill="none" stroke="green" stroke-width="0.316503" d="M1087.28,-189.896C1107.18,-172.192 1154.65,-129.97 1185.23,-102.772"/>
<polygon fill="green" stroke="green" stroke-width="0.316503" points="1187.85,-105.13 1192.99,-95.8688 1183.2,-99.8996 1187.85,-105.13"/>
</g>
<!-- enemyRadar[LeftFront15ø]&#45;&gt;Move Forward/Backward -->
<g id="edge6" class="edge"><title>enemyRadar[LeftFront15ø]&#45;&gt;Move Forward/Backward</title>
<path fill="none" stroke="red" stroke-width="0.152025" d="M1073.67,-189.896C1069.5,-181.954 1062.75,-169.079 1055.28,-154.839"/>
<polygon fill="red" stroke="red" stroke-width="0.152025" points="1058.29,-153.057 1050.55,-145.828 1052.1,-156.309 1058.29,-153.057"/>
</g>
<!-- enemyRadar[LeftFront15ø]&#45;&gt; Move Left/Right -->
<g id="edge35" class="edge"><title>enemyRadar[LeftFront15ø]&#45;&gt; Move Left/Right</title>
<path fill="none" stroke="green" stroke-width="0.333001" d="M1113.68,-190.124C1148.48,-182.024 1202.79,-168.666 1249,-154.149 1297.91,-138.784 1352.25,-118.347 1392.55,-102.525"/>
<polygon fill="green" stroke="green" stroke-width="0.333001" points="1393.94,-105.739 1401.96,-98.8134 1391.37,-99.2267 1393.94,-105.739"/>
</g>
<!-- enemyRadar[LeftFront15ø]&#45;&gt;Turn left/right -->
<g id="edge32" class="edge"><title>enemyRadar[LeftFront15ø]&#45;&gt;Turn left/right</title>
<path fill="none" stroke="green" stroke-width="0.410569" d="M1046.1,-190.084C966.46,-169.953 758.168,-117.299 658.154,-92.017"/>
<polygon fill="green" stroke="green" stroke-width="0.410569" points="658.795,-88.569 648.243,-89.5114 657.08,-95.3556 658.795,-88.569"/>
</g>
<!-- enemyRadar[RightFront7.5ø] -->
<g id="node17" class="node"><title>enemyRadar[RightFront7.5ø]</title>
<polygon fill="lightgray" stroke="black" points="1514,-208.149 1392,-208.149 1392,-190.149 1514,-190.149 1514,-208.149"/>
<text text-anchor="middle" x="1453" y="-196.949" font-family="Times,serif" font-size="9.00">enemyRadar[RightFront7.5ø]</text>
</g>
<!-- enemyRadar[RightFront7.5ø]&#45;&gt;Shoot -->
<g id="edge26" class="edge"><title>enemyRadar[RightFront7.5ø]&#45;&gt;Shoot</title>
<path fill="none" stroke="red" stroke-width="0.361238" d="M1436.88,-190.084C1398,-170.63 1298.41,-120.805 1246.15,-94.6591"/>
<polygon fill="red" stroke="red" stroke-width="0.361238" points="1247.48,-91.4096 1236.97,-90.0653 1244.34,-97.6698 1247.48,-91.4096"/>
</g>
<!-- enemyRadar[RightFront7.5ø]&#45;&gt;Move Forward/Backward -->
<g id="edge31" class="edge"><title>enemyRadar[RightFront7.5ø]&#45;&gt;Move Forward/Backward</title>
<path fill="none" stroke="red" stroke-width="0.384085" d="M1391.7,-190.416C1322.96,-181.386 1216.01,-166.156 1177,-154.149 1148.18,-145.279 1117.92,-132.2 1091.47,-119.378"/>
<polygon fill="red" stroke="red" stroke-width="0.384085" points="1092.8,-116.131 1082.28,-114.861 1089.71,-122.413 1092.8,-116.131"/>
</g>
<!-- enemyRadar[RightFront7.5ø]&#45;&gt; Move Left/Right -->
<g id="edge47" class="edge"><title>enemyRadar[RightFront7.5ø]&#45;&gt; Move Left/Right</title>
<path fill="none" stroke="green" stroke-width="0.497515" d="M1453,-189.896C1453,-179.701 1453,-161.375 1453,-142.47"/>
<polygon fill="green" stroke="green" stroke-width="0.497515" points="1456.5,-142.265 1453,-132.265 1449.5,-142.265 1456.5,-142.265"/>
</g>
<!-- enemyRadar[LeftFront7.5ø] -->
<g id="node18" class="node"><title>enemyRadar[LeftFront7.5ø]</title>
<polygon fill="lightgray" stroke="black" points="781,-208.149 665,-208.149 665,-190.149 781,-190.149 781,-208.149"/>
<text text-anchor="middle" x="723" y="-196.949" font-family="Times,serif" font-size="9.00">enemyRadar[LeftFront7.5ø]</text>
</g>
<!-- enemyRadar[LeftFront7.5ø]&#45;&gt;Move Forward/Backward -->
<g id="edge3" class="edge"><title>enemyRadar[LeftFront7.5ø]&#45;&gt;Move Forward/Backward</title>
<path fill="none" stroke="green" stroke-width="0.363079" d="M742.612,-190.084C781.186,-174.222 868.863,-138.168 934.39,-111.223"/>
<polygon fill="green" stroke="green" stroke-width="0.363079" points="935.971,-114.357 943.889,-107.317 933.309,-107.883 935.971,-114.357"/>
</g>
<!-- enemyRadar[LeftFront7.5ø]&#45;&gt; Move Left/Right -->
<g id="edge20" class="edge"><title>enemyRadar[LeftFront7.5ø]&#45;&gt; Move Left/Right</title>
<path fill="none" stroke="green" stroke-width="0.127239" d="M781.089,-191.067C784.101,-190.746 787.086,-190.437 790,-190.149 993.634,-170.015 1049.2,-198.327 1249,-154.149 1299.23,-143.044 1353.7,-122.247 1393.72,-105.201"/>
<polygon fill="green" stroke="green" stroke-width="0.127239" points="1395.25,-108.351 1403.05,-101.181 1392.48,-101.922 1395.25,-108.351"/>
</g>
<!-- enemyRadar[LeftFront7.5ø]&#45;&gt;Turn left/right -->
<g id="edge23" class="edge"><title>enemyRadar[LeftFront7.5ø]&#45;&gt;Turn left/right</title>
<path fill="none" stroke="red" stroke-width="0.299841" d="M714.752,-189.896C700.086,-175.221 668.587,-143.702 642.757,-117.856"/>
<polygon fill="red" stroke="red" stroke-width="0.299841" points="645.185,-115.335 635.641,-110.736 640.234,-120.283 645.185,-115.335"/>
</g>
<!-- enemyRadar[RightFront2.5ø] -->
<g id="node19" class="node"><title>enemyRadar[RightFront2.5ø]</title>
<polygon fill="lightgray" stroke="black" points="1874,-208.149 1752,-208.149 1752,-190.149 1874,-190.149 1874,-208.149"/>
<text text-anchor="middle" x="1813" y="-196.949" font-family="Times,serif" font-size="9.00">enemyRadar[RightFront2.5ø]</text>
</g>
<!-- enemyRadar[RightFront2.5ø]&#45;&gt;Shoot -->
<g id="edge41" class="edge"><title>enemyRadar[RightFront2.5ø]&#45;&gt;Shoot</title>
<path fill="none" stroke="green" stroke-width="0.277903" d="M1751.92,-191.124C1748.91,-190.791 1745.92,-190.464 1743,-190.149 1585.77,-173.171 1542.04,-193.99 1389,-154.149 1336.73,-140.543 1280.02,-113.627 1245.5,-95.7365"/>
<polygon fill="green" stroke="green" stroke-width="0.277903" points="1246.85,-92.4941 1236.37,-90.9484 1243.6,-98.6931 1246.85,-92.4941"/>
</g>
<!-- enemyRadar[LeftFront2.5ø] -->
<g id="node20" class="node"><title>enemyRadar[LeftFront2.5ø]</title>
<polygon fill="lightgray" stroke="black" points="2434,-208.149 2318,-208.149 2318,-190.149 2434,-190.149 2434,-208.149"/>
<text text-anchor="middle" x="2376" y="-196.949" font-family="Times,serif" font-size="9.00">enemyRadar[LeftFront2.5ø]</text>
</g>
<!-- enemyRadar[Front7Ø] -->
<g id="node21" class="node"><title>enemyRadar[Front7Ø]</title>
<polygon fill="lightgray" stroke="black" points="1630,-208.149 1532,-208.149 1532,-190.149 1630,-190.149 1630,-208.149"/>
<text text-anchor="middle" x="1581" y="-196.949" font-family="Times,serif" font-size="9.00">enemyRadar[Front7Ø]</text>
</g>
<!-- enemyRadar[Front7Ø]&#45;&gt;Shoot -->
<g id="edge16" class="edge"><title>enemyRadar[Front7Ø]&#45;&gt;Shoot</title>
<path fill="none" stroke="red" stroke-width="0.146967" d="M1535.36,-190.13C1496.05,-182.647 1438.07,-170.228 1389,-154.149 1337.68,-137.333 1280.71,-111.275 1245.88,-94.4447"/>
<polygon fill="red" stroke="red" stroke-width="0.146967" points="1247.18,-91.1881 1236.66,-89.9576 1244.12,-97.4818 1247.18,-91.1881"/>
</g>
<!-- enemyRadar[Front7Ø]&#45;&gt;Move Forward/Backward -->
<g id="edge14" class="edge"><title>enemyRadar[Front7Ø]&#45;&gt;Move Forward/Backward</title>
<path fill="none" stroke="green" stroke-width="0.251986" d="M1531.97,-191.269C1528.93,-190.88 1525.93,-190.503 1523,-190.149 1369.51,-171.584 1325.95,-195.589 1177,-154.149 1147.95,-146.066 1117.64,-133.177 1091.2,-120.289"/>
<polygon fill="green" stroke="green" stroke-width="0.251986" points="1092.53,-117.043 1082.02,-115.738 1089.42,-123.315 1092.53,-117.043"/>
</g>
<!-- enemyRadar[Front7Ø]&#45;&gt; Move Left/Right -->
<g id="edge25" class="edge"><title>enemyRadar[Front7Ø]&#45;&gt; Move Left/Right</title>
<path fill="none" stroke="red" stroke-width="0.357783" d="M1572.2,-189.896C1557.44,-176.045 1526.67,-147.186 1500.1,-122.256"/>
<polygon fill="red" stroke="red" stroke-width="0.357783" points="1502.42,-119.634 1492.73,-115.345 1497.63,-124.739 1502.42,-119.634"/>
</g>
<!-- OnTarget -->
<g id="node22" class="node"><title>OnTarget</title>
<polygon fill="lightgray" stroke="black" points="2502,-208.149 2452,-208.149 2452,-190.149 2502,-190.149 2502,-208.149"/>
<text text-anchor="middle" x="2477" y="-196.949" font-family="Times,serif" font-size="9.00">OnTarget</text>
</g>
</g>
</svg>
