<?xml version="1.0" encoding="UTF-8" standalone="no"?>
<!DOCTYPE svg PUBLIC "-//W3C//DTD SVG 1.1//EN"
 "http://www.w3.org/Graphics/SVG/1.1/DTD/svg11.dtd">
<!-- Generated by graphviz version 2.38.0 (20140413.2041)
 -->
<!-- Title: %3 Pages: 1 -->
<svg width="2253pt" height="398pt"
 viewBox="0.00 0.00 2253.25 398.46" xmlns="http://www.w3.org/2000/svg" xmlns:xlink="http://www.w3.org/1999/xlink">
<g id="graph0" class="graph" transform="scale(1 1) rotate(0) translate(4 394.458)">
<title>%3</title>
<polygon fill="white" stroke="none" points="-4,4 -4,-394.458 2249.25,-394.458 2249.25,4 -4,4"/>
<!-- wallRadar[1,0] -->
<g id="node1" class="node"><title>wallRadar[1,0]</title>
<polygon fill="lightgray" stroke="black" points="475.247,-226.726 405.247,-226.726 405.247,-208.726 475.247,-208.726 475.247,-226.726"/>
<text text-anchor="middle" x="440.247" y="-215.526" font-family="Times,serif" font-size="9.00">wallRadar[1,0]</text>
</g>
<!-- Shoot -->
<g id="node24" class="node"><title>Shoot</title>
<ellipse fill="lightblue" stroke="black" cx="358.247" cy="-77.0746" rx="26.7407" ry="26.7407"/>
<text text-anchor="middle" x="358.247" y="-74.8746" font-family="Times,serif" font-size="9.00">Shoot</text>
</g>
<!-- wallRadar[1,0]&#45;&gt;Shoot -->
<g id="edge12" class="edge"><title>wallRadar[1,0]&#45;&gt;Shoot</title>
<path fill="none" stroke="green" stroke-width="0.341889" stroke-dasharray="1,5" d="M435.363,-208.468C424.129,-189.472 395.961,-141.845 376.963,-109.721"/>
<polygon fill="green" stroke="green" stroke-width="0.341889" points="379.733,-107.529 371.63,-100.704 373.708,-111.093 379.733,-107.529"/>
</g>
<!-- Turn left/right -->
<g id="node27" class="node"><title>Turn left/right</title>
<ellipse fill="lightblue" stroke="black" cx="757.247" cy="-77.0746" rx="46.8387" ry="46.8387"/>
<text text-anchor="middle" x="757.247" y="-74.8746" font-family="Times,serif" font-size="9.00">Turn left/right</text>
</g>
<!-- wallRadar[1,0]&#45;&gt;Turn left/right -->
<g id="edge25" class="edge"><title>wallRadar[1,0]&#45;&gt;Turn left/right</title>
<path fill="none" stroke="red" stroke-width="0.702344" d="M452.663,-208.522C461.321,-202.978 473.247,-195.688 484.247,-190.149 558.281,-152.871 647.775,-117.949 703.618,-97.2934"/>
<polygon fill="red" stroke="red" stroke-width="0.702344" points="705.127,-100.468 713.303,-93.7297 702.709,-93.8985 705.127,-100.468"/>
</g>
<!-- wallRadar[0,1] -->
<g id="node2" class="node"><title>wallRadar[0,1]</title>
<polygon fill="lightgray" stroke="black" points="1899.25,-317.881 1829.25,-317.881 1829.25,-299.881 1899.25,-299.881 1899.25,-317.881"/>
<text text-anchor="middle" x="1864.25" y="-306.681" font-family="Times,serif" font-size="9.00">wallRadar[0,1]</text>
</g>
<!-- Move Forward/Backward -->
<g id="node25" class="node"><title>Move Forward/Backward</title>
<ellipse fill="lightblue" stroke="black" cx="1425.25" cy="-77.0746" rx="77.1494" ry="77.1494"/>
<text text-anchor="middle" x="1425.25" y="-74.8746" font-family="Times,serif" font-size="9.00">Move Forward/Backward</text>
</g>
<!-- wallRadar[0,1]&#45;&gt;Move Forward/Backward -->
<g id="edge19" class="edge"><title>wallRadar[0,1]&#45;&gt;Move Forward/Backward</title>
<path fill="none" stroke="green" stroke-width="0.20979" d="M1858.85,-299.864C1841.1,-273.502 1785.59,-191.124 1784.25,-190.149 1737.44,-156.22 1714.52,-171.089 1659.25,-154.149 1608.73,-138.669 1552.41,-120.391 1507.69,-105.631"/>
<polygon fill="green" stroke="green" stroke-width="0.20979" points="1508.63,-102.256 1498.03,-102.441 1506.43,-108.903 1508.63,-102.256"/>
</g>
<!--  Move Left/Right -->
<g id="node26" class="node"><title> Move Left/Right</title>
<ellipse fill="lightblue" stroke="black" cx="1723.25" cy="-77.0746" rx="55.3091" ry="55.3091"/>
<text text-anchor="middle" x="1723.25" y="-74.8746" font-family="Times,serif" font-size="9.00"> Move Left/Right</text>
</g>
<!-- wallRadar[0,1]&#45;&gt; Move Left/Right -->
<g id="edge40" class="edge"><title>wallRadar[0,1]&#45;&gt; Move Left/Right</title>
<path fill="none" stroke="green" stroke-width="0.170312" d="M1895.4,-299.835C1921.86,-291.173 1958.17,-274.529 1975.25,-245.304 1987.61,-224.138 1988.6,-210.705 1975.25,-190.149 1934.13,-126.858 1848.1,-99.017 1788.06,-86.9661"/>
<polygon fill="green" stroke="green" stroke-width="0.170312" points="1788.4,-83.4667 1777.92,-85.0294 1787.08,-90.3425 1788.4,-83.4667"/>
</g>
<!-- 6695 -->
<g id="node30" class="node"><title>6695</title>
<ellipse fill="white" stroke="black" cx="1750.25" cy="-217.726" rx="25" ry="25"/>
<text text-anchor="middle" x="1750.25" y="-215.526" font-family="Times,serif" font-size="9.00">6695</text>
</g>
<!-- wallRadar[0,1]&#45;&gt;6695 -->
<g id="edge39" class="edge"><title>wallRadar[0,1]&#45;&gt;6695</title>
<path fill="none" stroke="green" stroke-width="0.112051" stroke-dasharray="1,5" d="M1853.73,-299.653C1836.57,-286.234 1802.02,-259.217 1777.57,-240.097"/>
<polygon fill="green" stroke="green" stroke-width="0.112051" points="1779.43,-237.103 1769.39,-233.699 1775.11,-242.617 1779.43,-237.103"/>
</g>
<!-- wallRadar[&#45;1,0] -->
<g id="node3" class="node"><title>wallRadar[&#45;1,0]</title>
<polygon fill="lightgray" stroke="black" points="1105.75,-226.726 1032.75,-226.726 1032.75,-208.726 1105.75,-208.726 1105.75,-226.726"/>
<text text-anchor="middle" x="1069.25" y="-215.526" font-family="Times,serif" font-size="9.00">wallRadar[&#45;1,0]</text>
</g>
<!-- wallRadar[&#45;1,0]&#45;&gt; Move Left/Right -->
<g id="edge1" class="edge"><title>wallRadar[&#45;1,0]&#45;&gt; Move Left/Right</title>
<path fill="none" stroke="green" stroke-width="0.285232" d="M1090.94,-208.604C1107.93,-202.572 1132.28,-194.642 1154.25,-190.149 1310.48,-158.19 1355.71,-189.342 1511.25,-154.149 1563.97,-142.22 1621.57,-120.993 1663.4,-103.987"/>
<polygon fill="green" stroke="green" stroke-width="0.285232" points="1664.96,-107.131 1672.88,-100.096 1662.3,-100.656 1664.96,-107.131"/>
</g>
<!-- wallRadar[&#45;1,0]&#45;&gt;Turn left/right -->
<g id="edge13" class="edge"><title>wallRadar[&#45;1,0]&#45;&gt;Turn left/right</title>
<path fill="none" stroke="green" stroke-width="0.224359" stroke-dasharray="1,5" d="M1056.2,-208.603C1047.12,-203.095 1034.64,-195.815 1023.25,-190.149 951.071,-154.27 864.587,-119.234 810.265,-98.1458"/>
<polygon fill="green" stroke="green" stroke-width="0.224359" points="811.428,-94.8428 800.838,-94.5009 808.903,-101.372 811.428,-94.8428"/>
</g>
<!-- wallRadar[0,&#45;1] -->
<g id="node4" class="node"><title>wallRadar[0,&#45;1]</title>
<polygon fill="lightgray" stroke="black" points="667.747,-226.726 594.747,-226.726 594.747,-208.726 667.747,-208.726 667.747,-226.726"/>
<text text-anchor="middle" x="631.247" y="-215.526" font-family="Times,serif" font-size="9.00">wallRadar[0,&#45;1]</text>
</g>
<!-- wallRadar[0,&#45;1]&#45;&gt;Shoot -->
<g id="edge6" class="edge"><title>wallRadar[0,&#45;1]&#45;&gt;Shoot</title>
<path fill="none" stroke="red" stroke-width="0.37653" stroke-dasharray="1,5" d="M617.691,-208.583C608.598,-203.198 596.307,-196.067 585.247,-190.149 517.371,-153.835 436.116,-114.75 391.561,-93.6838"/>
<polygon fill="red" stroke="red" stroke-width="0.37653" points="392.903,-90.4472 382.366,-89.3459 389.917,-96.7781 392.903,-90.4472"/>
</g>
<!-- wallRadar[0,&#45;1]&#45;&gt;Move Forward/Backward -->
<g id="edge33" class="edge"><title>wallRadar[0,&#45;1]&#45;&gt;Move Forward/Backward</title>
<path fill="none" stroke="green" stroke-width="0.197951" stroke-dasharray="1,5" d="M642.387,-208.684C651.361,-202.613 664.536,-194.593 677.247,-190.149 798.036,-147.921 1168.44,-105.033 1338.38,-86.965"/>
<polygon fill="green" stroke="green" stroke-width="0.197951" points="1338.97,-90.4228 1348.54,-85.889 1338.23,-83.4617 1338.97,-90.4228"/>
</g>
<!-- wallRadar[0,&#45;1]&#45;&gt;Turn left/right -->
<g id="edge3" class="edge"><title>wallRadar[0,&#45;1]&#45;&gt;Turn left/right</title>
<path fill="none" stroke="red" stroke-width="0.677962" stroke-dasharray="1,5" d="M638.752,-208.468C654.283,-191.378 690.876,-151.11 719.32,-119.81"/>
<polygon fill="red" stroke="red" stroke-width="0.677962" points="722.223,-121.819 726.358,-112.065 717.043,-117.112 722.223,-121.819"/>
</g>
<!-- wallRadar[0.7,0.7] -->
<g id="node5" class="node"><title>wallRadar[0.7,0.7]</title>
<polygon fill="lightgray" stroke="black" points="576.747,-226.726 493.747,-226.726 493.747,-208.726 576.747,-208.726 576.747,-226.726"/>
<text text-anchor="middle" x="535.247" y="-215.526" font-family="Times,serif" font-size="9.00">wallRadar[0.7,0.7]</text>
</g>
<!-- wallRadar[0.7,0.7]&#45;&gt;Shoot -->
<g id="edge42" class="edge"><title>wallRadar[0.7,0.7]&#45;&gt;Shoot</title>
<path fill="none" stroke="red" stroke-width="0.448837" stroke-dasharray="1,5" d="M524.966,-208.673C498.515,-187.953 427.368,-132.22 387.085,-100.665"/>
<polygon fill="red" stroke="red" stroke-width="0.448837" points="389.015,-97.7307 378.985,-94.3192 384.698,-103.241 389.015,-97.7307"/>
</g>
<!-- wallRadar[0.7,0.7]&#45;&gt;Turn left/right -->
<g id="edge2" class="edge"><title>wallRadar[0.7,0.7]&#45;&gt;Turn left/right</title>
<path fill="none" stroke="green" stroke-width="0.283193" d="M548.142,-208.673C578.847,-189.496 657.574,-140.326 709.186,-108.092"/>
<polygon fill="green" stroke="green" stroke-width="0.283193" points="711.229,-110.942 717.857,-102.676 707.521,-105.005 711.229,-110.942"/>
</g>
<!-- wallRadar[&#45;0.7,0.7] -->
<g id="node6" class="node"><title>wallRadar[&#45;0.7,0.7]</title>
<polygon fill="lightgray" stroke="black" points="2245.25,-226.726 2159.25,-226.726 2159.25,-208.726 2245.25,-208.726 2245.25,-226.726"/>
<text text-anchor="middle" x="2202.25" y="-215.526" font-family="Times,serif" font-size="9.00">wallRadar[&#45;0.7,0.7]</text>
</g>
<!-- wallRadar[&#45;0.7,0.7]&#45;&gt; Move Left/Right -->
<g id="edge22" class="edge"><title>wallRadar[&#45;0.7,0.7]&#45;&gt; Move Left/Right</title>
<path fill="none" stroke="green" stroke-width="0.260885" stroke-dasharray="1,5" d="M2188.5,-208.663C2178.23,-202.898 2163.7,-195.283 2150.25,-190.149 2025.19,-142.421 1872.03,-107.652 1787.31,-90.375"/>
<polygon fill="green" stroke="green" stroke-width="0.260885" points="1787.82,-86.9074 1777.33,-88.355 1786.44,-93.7684 1787.82,-86.9074"/>
</g>
<!-- wallRadar[&#45;0.7,&#45;0.7] -->
<g id="node7" class="node"><title>wallRadar[&#45;0.7,&#45;0.7]</title>
<polygon fill="lightgray" stroke="black" points="294.747,-390.458 205.747,-390.458 205.747,-372.458 294.747,-372.458 294.747,-390.458"/>
<text text-anchor="middle" x="250.247" y="-379.258" font-family="Times,serif" font-size="9.00">wallRadar[&#45;0.7,&#45;0.7]</text>
</g>
<!-- wallRadar[0.7,&#45;0.7] -->
<g id="node8" class="node"><title>wallRadar[0.7,&#45;0.7]</title>
<polygon fill="lightgray" stroke="black" points="925.247,-317.881 839.247,-317.881 839.247,-299.881 925.247,-299.881 925.247,-317.881"/>
<text text-anchor="middle" x="882.247" y="-306.681" font-family="Times,serif" font-size="9.00">wallRadar[0.7,&#45;0.7]</text>
</g>
<!-- wallRadar[0.7,&#45;0.7]&#45;&gt;Shoot -->
<g id="edge11" class="edge"><title>wallRadar[0.7,&#45;0.7]&#45;&gt;Shoot</title>
<path fill="none" stroke="red" stroke-width="0.73858" stroke-dasharray="1,5" d="M838.844,-303.779C709.299,-291.436 333.83,-254.905 325.247,-245.304 291.52,-207.575 317.578,-145.63 338.597,-108.658"/>
<polygon fill="red" stroke="red" stroke-width="0.73858" points="341.739,-110.22 343.793,-99.8258 335.706,-106.67 341.739,-110.22"/>
</g>
<!-- wallRadar[0.7,&#45;0.7]&#45;&gt;Turn left/right -->
<g id="edge18" class="edge"><title>wallRadar[0.7,&#45;0.7]&#45;&gt;Turn left/right</title>
<path fill="none" stroke="red" stroke-width="0.48767" stroke-dasharray="1,5" d="M882.534,-299.677C882.901,-279.782 881.86,-227.832 863.247,-190.149 848.606,-160.507 823.437,-133.392 801.299,-113.26"/>
<polygon fill="red" stroke="red" stroke-width="0.48767" points="803.418,-110.461 793.616,-106.437 798.769,-115.695 803.418,-110.461"/>
</g>
<!-- 11977 -->
<g id="node31" class="node"><title>11977</title>
<ellipse fill="white" stroke="black" cx="1327.25" cy="-217.726" rx="27.6545" ry="27.6545"/>
<text text-anchor="middle" x="1327.25" y="-215.526" font-family="Times,serif" font-size="9.00">11977</text>
</g>
<!-- wallRadar[0.7,&#45;0.7]&#45;&gt;11977 -->
<g id="edge51" class="edge"><title>wallRadar[0.7,&#45;0.7]&#45;&gt;11977</title>
<path fill="none" stroke="green" stroke-width="0.137626" d="M925.258,-307.982C1001.83,-306.733 1165.55,-297.545 1291.25,-245.304 1293.4,-244.407 1295.55,-243.355 1297.66,-242.196"/>
<polygon fill="green" stroke="green" stroke-width="0.137626" points="1299.98,-244.869 1306.58,-236.58 1296.25,-238.945 1299.98,-244.869"/>
</g>
<!-- enemyRadar[RightBack] -->
<g id="node9" class="node"><title>enemyRadar[RightBack]</title>
<polygon fill="lightgray" stroke="black" points="1014.25,-226.726 910.247,-226.726 910.247,-208.726 1014.25,-208.726 1014.25,-226.726"/>
<text text-anchor="middle" x="962.247" y="-215.526" font-family="Times,serif" font-size="9.00">enemyRadar[RightBack]</text>
</g>
<!-- enemyRadar[RightBack]&#45;&gt;Turn left/right -->
<g id="edge23" class="edge"><title>enemyRadar[RightBack]&#45;&gt;Turn left/right</title>
<path fill="none" stroke="green" stroke-width="1.35545" d="M950.339,-208.673C922.447,-189.808 851.643,-141.919 803.975,-109.679"/>
<polygon fill="green" stroke="green" stroke-width="1.35545" points="805.898,-106.754 795.654,-104.051 801.976,-112.553 805.898,-106.754"/>
</g>
<!-- enemyRadar[LeftBack] -->
<g id="node10" class="node"><title>enemyRadar[LeftBack]</title>
<polygon fill="lightgray" stroke="black" points="2140.75,-226.726 2041.75,-226.726 2041.75,-208.726 2140.75,-208.726 2140.75,-226.726"/>
<text text-anchor="middle" x="2091.25" y="-215.526" font-family="Times,serif" font-size="9.00">enemyRadar[LeftBack]</text>
</g>
<!-- enemyRadar[LeftBack]&#45;&gt;Move Forward/Backward -->
<g id="edge16" class="edge"><title>enemyRadar[LeftBack]&#45;&gt;Move Forward/Backward</title>
<path fill="none" stroke="green" stroke-width="1.39852" stroke-dasharray="1,5" d="M2054.42,-208.714C2027.35,-203.012 1989.63,-195.451 1956.25,-190.149 1824.93,-169.293 1789.08,-182.839 1659.25,-154.149 1607.56,-142.729 1551.09,-124.541 1506.57,-108.813"/>
<polygon fill="green" stroke="green" stroke-width="1.39852" points="1507.57,-105.452 1496.97,-105.395 1505.22,-112.047 1507.57,-105.452"/>
</g>
<!-- enemyRadar[LeftBack]&#45;&gt; Move Left/Right -->
<g id="edge17" class="edge"><title>enemyRadar[LeftBack]&#45;&gt; Move Left/Right</title>
<path fill="none" stroke="green" stroke-width="0.352057" stroke-dasharray="1,5" d="M2072.29,-208.617C2059.59,-203.246 2042.48,-196.118 2027.25,-190.149 1943.73,-157.427 1846.3,-121.983 1784.7,-99.9054"/>
<polygon fill="green" stroke="green" stroke-width="0.352057" points="1785.72,-96.5543 1775.13,-96.4793 1783.36,-103.145 1785.72,-96.5543"/>
</g>
<!-- 11477 -->
<g id="node32" class="node"><title>11477</title>
<ellipse fill="white" stroke="black" cx="2091.25" cy="-77.0746" rx="27.6545" ry="27.6545"/>
<text text-anchor="middle" x="2091.25" y="-74.8746" font-family="Times,serif" font-size="9.00">11477</text>
</g>
<!-- enemyRadar[LeftBack]&#45;&gt;11477 -->
<g id="edge46" class="edge"><title>enemyRadar[LeftBack]&#45;&gt;11477</title>
<path fill="none" stroke="red" stroke-width="0.400426" stroke-dasharray="1,5" d="M2091.25,-208.468C2091.25,-190.503 2091.25,-146.927 2091.25,-115.077"/>
<polygon fill="red" stroke="red" stroke-width="0.400426" points="2094.75,-114.78 2091.25,-104.78 2087.75,-114.78 2094.75,-114.78"/>
</g>
<!-- enemyRadar[Right45ø] -->
<g id="node11" class="node"><title>enemyRadar[Right45ø]</title>
<polygon fill="lightgray" stroke="black" points="854.247,-226.726 754.247,-226.726 754.247,-208.726 854.247,-208.726 854.247,-226.726"/>
<text text-anchor="middle" x="804.247" y="-215.526" font-family="Times,serif" font-size="9.00">enemyRadar[Right45ø]</text>
</g>
<!-- enemyRadar[Right45ø]&#45;&gt;Shoot -->
<g id="edge8" class="edge"><title>enemyRadar[Right45ø]&#45;&gt;Shoot</title>
<path fill="none" stroke="red" stroke-width="0.686864" stroke-dasharray="1,5" d="M787.975,-208.646C776.269,-203.02 760.008,-195.58 745.247,-190.149 618.805,-143.627 463.553,-103.666 394.421,-86.7289"/>
<polygon fill="red" stroke="red" stroke-width="0.686864" points="395.016,-83.2713 384.471,-84.3047 393.359,-90.0724 395.016,-83.2713"/>
</g>
<!-- enemyRadar[Right45ø]&#45;&gt; Move Left/Right -->
<g id="edge29" class="edge"><title>enemyRadar[Right45ø]&#45;&gt; Move Left/Right</title>
<path fill="none" stroke="green" stroke-width="0.488065" d="M828.253,-208.643C847.696,-202.464 875.92,-194.319 901.247,-190.149 1169.22,-146.027 1245.17,-208.567 1511.25,-154.149 1564.2,-143.318 1621.78,-122.003 1663.55,-104.684"/>
<polygon fill="green" stroke="green" stroke-width="0.488065" points="1665.15,-107.811 1673.02,-100.717 1662.44,-101.355 1665.15,-107.811"/>
</g>
<!-- enemyRadar[Right45ø]&#45;&gt;Turn left/right -->
<g id="edge37" class="edge"><title>enemyRadar[Right45ø]&#45;&gt;Turn left/right</title>
<path fill="none" stroke="red" stroke-width="0.40836" d="M801.448,-208.468C796.334,-193.383 785.1,-160.243 775.238,-131.149"/>
<polygon fill="red" stroke="red" stroke-width="0.40836" points="778.482,-129.817 771.957,-121.47 771.853,-132.064 778.482,-129.817"/>
</g>
<!-- enemyRadar[Left45ø] -->
<g id="node12" class="node"><title>enemyRadar[Left45ø]</title>
<polygon fill="lightgray" stroke="black" points="564.747,-317.881 469.747,-317.881 469.747,-299.881 564.747,-299.881 564.747,-317.881"/>
<text text-anchor="middle" x="517.247" y="-306.681" font-family="Times,serif" font-size="9.00">enemyRadar[Left45ø]</text>
</g>
<!-- enemyRadar[Left45ø]&#45;&gt;Shoot -->
<g id="edge15" class="edge"><title>enemyRadar[Left45ø]&#45;&gt;Shoot</title>
<path fill="none" stroke="green" stroke-width="0.301609" stroke-dasharray="1,5" d="M469.557,-306.645C382.761,-303.281 204.4,-290.86 166.247,-245.304 110.386,-178.603 253.911,-115.616 323.254,-90.0594"/>
<polygon fill="green" stroke="green" stroke-width="0.301609" points="324.701,-93.2579 332.914,-86.5644 322.32,-86.6754 324.701,-93.2579"/>
</g>
<!-- enemyRadar[Left45ø]&#45;&gt;Move Forward/Backward -->
<g id="edge20" class="edge"><title>enemyRadar[Left45ø]&#45;&gt;Move Forward/Backward</title>
<path fill="none" stroke="green" stroke-width="0.451679" d="M564.957,-303.969C702.502,-292.547 1091.55,-259.184 1115.25,-245.304 1141.15,-230.132 1130.78,-208.88 1154.25,-190.149 1209.26,-146.234 1283.89,-117.064 1340.9,-99.522"/>
<polygon fill="green" stroke="green" stroke-width="0.451679" points="1342.05,-102.832 1350.62,-96.5936 1340.03,-96.1297 1342.05,-102.832"/>
</g>
<!-- enemyRadar[Left45ø]&#45;&gt; Move Left/Right -->
<g id="edge31" class="edge"><title>enemyRadar[Left45ø]&#45;&gt; Move Left/Right</title>
<path fill="none" stroke="red" stroke-width="1.36277" stroke-dasharray="1,5" d="M564.929,-303.263C626.26,-297.455 736.103,-287.493 830.247,-281.304 915.933,-275.67 1528.56,-289.387 1602.25,-245.304 1626.76,-230.639 1619.06,-213.687 1635.25,-190.149 1649.66,-169.192 1666.69,-146.991 1681.91,-127.926"/>
<polygon fill="red" stroke="red" stroke-width="1.36277" points="1684.77,-129.948 1688.31,-119.96 1679.32,-125.565 1684.77,-129.948"/>
</g>
<!-- 11101 -->
<g id="node34" class="node"><title>11101</title>
<ellipse fill="white" stroke="black" cx="91.247" cy="-217.726" rx="27.6545" ry="27.6545"/>
<text text-anchor="middle" x="91.247" y="-215.526" font-family="Times,serif" font-size="9.00">11101</text>
</g>
<!-- enemyRadar[Left45ø]&#45;&gt;11101 -->
<g id="edge47" class="edge"><title>enemyRadar[Left45ø]&#45;&gt;11101</title>
<path fill="none" stroke="red" stroke-width="0.322833" d="M469.571,-306.221C395.377,-302.303 248.808,-289.179 133.247,-245.304 129.453,-243.863 125.635,-242.055 121.931,-240.063"/>
<polygon fill="red" stroke="red" stroke-width="0.322833" points="123.429,-236.883 113.034,-234.836 119.883,-242.919 123.429,-236.883"/>
</g>
<!-- enemyRadar[RightFront20ø] -->
<g id="node13" class="node"><title>enemyRadar[RightFront20ø]</title>
<polygon fill="lightgray" stroke="black" points="187.747,-390.458 68.747,-390.458 68.747,-372.458 187.747,-372.458 187.747,-390.458"/>
<text text-anchor="middle" x="128.247" y="-379.258" font-family="Times,serif" font-size="9.00">enemyRadar[RightFront20ø]</text>
</g>
<!-- enemyRadar[RightFront20ø]&#45;&gt;Shoot -->
<g id="edge5" class="edge"><title>enemyRadar[RightFront20ø]&#45;&gt;Shoot</title>
<path fill="none" stroke="green" stroke-width="0.322033" d="M74.9605,-372.379C53.6288,-366.243 31.1043,-355.449 18.247,-336.458 -19.2958,-281.006 6.35555,-236.955 54.247,-190.149 129.733,-116.374 257.888,-90.5372 320.945,-81.9994"/>
<polygon fill="green" stroke="green" stroke-width="0.322033" points="321.738,-85.4266 331.212,-80.6853 320.849,-78.4832 321.738,-85.4266"/>
</g>
<!-- 12218 -->
<g id="node33" class="node"><title>12218</title>
<ellipse fill="white" stroke="black" cx="128.247" cy="-308.881" rx="27.6545" ry="27.6545"/>
<text text-anchor="middle" x="128.247" y="-306.681" font-family="Times,serif" font-size="9.00">12218</text>
</g>
<!-- enemyRadar[RightFront20ø]&#45;&gt;12218 -->
<g id="edge52" class="edge"><title>enemyRadar[RightFront20ø]&#45;&gt;12218</title>
<path fill="none" stroke="green" stroke-width="0.212702" d="M128.247,-372.362C128.247,-365.912 128.247,-356.388 128.247,-346.709"/>
<polygon fill="green" stroke="green" stroke-width="0.212702" points="131.747,-346.689 128.247,-336.689 124.747,-346.689 131.747,-346.689"/>
</g>
<!-- enemyRadar[RightFront20ø]&#45;&gt;11101 -->
<g id="edge43" class="edge"><title>enemyRadar[RightFront20ø]&#45;&gt;11101</title>
<path fill="none" stroke="green" stroke-width="0.202991" stroke-dasharray="1,5" d="M138.332,-372.258C147.341,-364.225 159.914,-351.086 165.247,-336.458 173.643,-313.428 175.564,-303.54 165.247,-281.304 160.426,-270.914 139.803,-253.876 121.549,-240.2"/>
<polygon fill="green" stroke="green" stroke-width="0.202991" points="123.52,-237.305 113.394,-234.188 119.367,-242.939 123.52,-237.305"/>
</g>
<!-- enemyRadar[LeftFront20ø] -->
<g id="node14" class="node"><title>enemyRadar[LeftFront20ø]</title>
<polygon fill="lightgray" stroke="black" points="427.247,-390.458 313.247,-390.458 313.247,-372.458 427.247,-372.458 427.247,-390.458"/>
<text text-anchor="middle" x="370.247" y="-379.258" font-family="Times,serif" font-size="9.00">enemyRadar[LeftFront20ø]</text>
</g>
<!-- enemyRadar[RightFront15ø] -->
<g id="node15" class="node"><title>enemyRadar[RightFront15ø]</title>
<polygon fill="lightgray" stroke="black" points="1281.75,-226.726 1162.75,-226.726 1162.75,-208.726 1281.75,-208.726 1281.75,-226.726"/>
<text text-anchor="middle" x="1222.25" y="-215.526" font-family="Times,serif" font-size="9.00">enemyRadar[RightFront15ø]</text>
</g>
<!-- enemyRadar[RightFront15ø]&#45;&gt;Move Forward/Backward -->
<g id="edge24" class="edge"><title>enemyRadar[RightFront15ø]&#45;&gt;Move Forward/Backward</title>
<path fill="none" stroke="green" stroke-width="0.117366" stroke-dasharray="1,5" d="M1234.04,-208.673C1257.01,-192.981 1309.39,-157.208 1353.52,-127.063"/>
<polygon fill="green" stroke="green" stroke-width="0.117366" points="1355.66,-129.842 1361.94,-121.312 1351.71,-124.062 1355.66,-129.842"/>
</g>
<!-- enemyRadar[LeftFront15ø] -->
<g id="node16" class="node"><title>enemyRadar[LeftFront15ø]</title>
<polygon fill="lightgray" stroke="black" points="1525.25,-226.726 1411.25,-226.726 1411.25,-208.726 1525.25,-208.726 1525.25,-226.726"/>
<text text-anchor="middle" x="1468.25" y="-215.526" font-family="Times,serif" font-size="9.00">enemyRadar[LeftFront15ø]</text>
</g>
<!-- enemyRadar[LeftFront15ø]&#45;&gt;Move Forward/Backward -->
<g id="edge26" class="edge"><title>enemyRadar[LeftFront15ø]&#45;&gt;Move Forward/Backward</title>
<path fill="none" stroke="green" stroke-width="0.282696" d="M1465.69,-208.468C1462.56,-198.398 1456.94,-180.281 1450.87,-160.694"/>
<polygon fill="green" stroke="green" stroke-width="0.282696" points="1454.16,-159.503 1447.86,-150.988 1447.48,-161.576 1454.16,-159.503"/>
</g>
<!-- enemyRadar[RightFront7.5ø] -->
<g id="node17" class="node"><title>enemyRadar[RightFront7.5ø]</title>
<polygon fill="lightgray" stroke="black" points="1671.25,-317.881 1549.25,-317.881 1549.25,-299.881 1671.25,-299.881 1671.25,-317.881"/>
<text text-anchor="middle" x="1610.25" y="-306.681" font-family="Times,serif" font-size="9.00">enemyRadar[RightFront7.5ø]</text>
</g>
<!-- enemyRadar[RightFront7.5ø]&#45;&gt;Shoot -->
<g id="edge4" class="edge"><title>enemyRadar[RightFront7.5ø]&#45;&gt;Shoot</title>
<path fill="none" stroke="green" stroke-width="0.550371" stroke-dasharray="1,5" d="M1570.99,-299.877C1538.71,-293.657 1491.72,-285.417 1450.25,-281.304 1390.12,-275.34 405.903,-288.097 363.247,-245.304 329.228,-211.175 337.202,-151.049 347.028,-112.954"/>
<polygon fill="green" stroke="green" stroke-width="0.550371" points="350.534,-113.404 349.815,-102.833 343.785,-111.545 350.534,-113.404"/>
</g>
<!-- enemyRadar[RightFront7.5ø]&#45;&gt; Move Left/Right -->
<g id="edge9" class="edge"><title>enemyRadar[RightFront7.5ø]&#45;&gt; Move Left/Right</title>
<path fill="none" stroke="red" stroke-width="0.52384" d="M1621.26,-299.816C1635.31,-288.955 1659.46,-268.316 1673.25,-245.304 1692.23,-213.616 1704.47,-174.192 1712.08,-141.583"/>
<polygon fill="red" stroke="red" stroke-width="0.52384" points="1715.53,-142.221 1714.3,-131.697 1708.7,-140.689 1715.53,-142.221"/>
</g>
<!-- enemyRadar[RightFront7.5ø]&#45;&gt;6695 -->
<g id="edge38" class="edge"><title>enemyRadar[RightFront7.5ø]&#45;&gt;6695</title>
<path fill="none" stroke="green" stroke-width="0.172855" stroke-dasharray="1,5" d="M1623.76,-299.764C1643.24,-288.004 1680.29,-265.428 1711.25,-245.304 1714.63,-243.106 1718.15,-240.77 1721.64,-238.432"/>
<polygon fill="green" stroke="green" stroke-width="0.172855" points="1723.8,-241.194 1730.12,-232.689 1719.87,-235.397 1723.8,-241.194"/>
</g>
<!-- enemyRadar[LeftFront7.5ø] -->
<g id="node18" class="node"><title>enemyRadar[LeftFront7.5ø]</title>
<polygon fill="lightgray" stroke="black" points="1947.25,-226.726 1831.25,-226.726 1831.25,-208.726 1947.25,-208.726 1947.25,-226.726"/>
<text text-anchor="middle" x="1889.25" y="-215.526" font-family="Times,serif" font-size="9.00">enemyRadar[LeftFront7.5ø]</text>
</g>
<!-- enemyRadar[LeftFront7.5ø]&#45;&gt; Move Left/Right -->
<g id="edge14" class="edge"><title>enemyRadar[LeftFront7.5ø]&#45;&gt; Move Left/Right</title>
<path fill="none" stroke="red" stroke-width="0.403058" stroke-dasharray="1,5" d="M1879.36,-208.468C1858.9,-191.378 1810.69,-151.112 1773.22,-119.812"/>
<polygon fill="red" stroke="red" stroke-width="0.403058" points="1775.32,-117.005 1765.4,-113.281 1770.83,-122.378 1775.32,-117.005"/>
</g>
<!-- enemyRadar[RightFront2.5ø] -->
<g id="node19" class="node"><title>enemyRadar[RightFront2.5ø]</title>
<polygon fill="lightgray" stroke="black" points="1811.25,-317.881 1689.25,-317.881 1689.25,-299.881 1811.25,-299.881 1811.25,-317.881"/>
<text text-anchor="middle" x="1750.25" y="-306.681" font-family="Times,serif" font-size="9.00">enemyRadar[RightFront2.5ø]</text>
</g>
<!-- enemyRadar[RightFront2.5ø]&#45;&gt;Shoot -->
<g id="edge34" class="edge"><title>enemyRadar[RightFront2.5ø]&#45;&gt;Shoot</title>
<path fill="none" stroke="green" stroke-width="0.246197" stroke-dasharray="1,5" d="M1733.74,-299.804C1719.84,-293.451 1699.25,-285.065 1680.25,-281.304 1610.24,-267.445 451.389,-290.601 396.247,-245.304 376.333,-228.945 365.975,-158.234 361.355,-114.164"/>
<polygon fill="green" stroke="green" stroke-width="0.246197" points="364.829,-113.724 360.353,-104.121 357.863,-114.419 364.829,-113.724"/>
</g>
<!-- enemyRadar[RightFront2.5ø]&#45;&gt; Move Left/Right -->
<g id="edge21" class="edge"><title>enemyRadar[RightFront2.5ø]&#45;&gt; Move Left/Right</title>
<path fill="none" stroke="green" stroke-width="0.152039" stroke-dasharray="1,5" d="M1769.97,-299.764C1783.89,-294.19 1803.04,-286.83 1820.25,-281.304 1879.78,-262.181 1918.11,-294.851 1956.25,-245.304 1971.2,-225.879 1969.29,-210.902 1956.25,-190.149 1919.53,-131.746 1842.93,-103.074 1787.56,-89.4844"/>
<polygon fill="green" stroke="green" stroke-width="0.152039" points="1788.02,-85.9969 1777.48,-87.1186 1786.42,-92.8116 1788.02,-85.9969"/>
</g>
<!-- enemyRadar[RightFront2.5ø]&#45;&gt;6695 -->
<g id="edge35" class="edge"><title>enemyRadar[RightFront2.5ø]&#45;&gt;6695</title>
<path fill="none" stroke="green" stroke-width="0.380165" stroke-dasharray="1,5" d="M1750.25,-299.653C1750.25,-289.015 1750.25,-269.831 1750.25,-252.811"/>
<polygon fill="green" stroke="green" stroke-width="0.380165" points="1753.75,-252.589 1750.25,-242.589 1746.75,-252.589 1753.75,-252.589"/>
</g>
<!-- enemyRadar[LeftFront2.5ø] -->
<g id="node20" class="node"><title>enemyRadar[LeftFront2.5ø]</title>
<polygon fill="lightgray" stroke="black" points="1441.25,-317.881 1325.25,-317.881 1325.25,-299.881 1441.25,-299.881 1441.25,-317.881"/>
<text text-anchor="middle" x="1383.25" y="-306.681" font-family="Times,serif" font-size="9.00">enemyRadar[LeftFront2.5ø]</text>
</g>
<!-- enemyRadar[LeftFront2.5ø]&#45;&gt;Move Forward/Backward -->
<g id="edge28" class="edge"><title>enemyRadar[LeftFront2.5ø]&#45;&gt;Move Forward/Backward</title>
<path fill="none" stroke="red" stroke-width="0.471516" stroke-dasharray="1,5" d="M1384.42,-299.867C1387.24,-280.806 1394.71,-231.287 1402.25,-190.149 1403.88,-181.254 1405.65,-171.977 1407.48,-162.736"/>
<polygon fill="red" stroke="red" stroke-width="0.471516" points="1410.95,-163.234 1409.46,-152.743 1404.08,-161.868 1410.95,-163.234"/>
</g>
<!-- enemyRadar[LeftFront2.5ø]&#45;&gt; Move Left/Right -->
<g id="edge10" class="edge"><title>enemyRadar[LeftFront2.5ø]&#45;&gt; Move Left/Right</title>
<path fill="none" stroke="red" stroke-width="0.27109" d="M1436.7,-299.862C1501.17,-289.307 1604.69,-269.257 1635.25,-245.304 1653.85,-230.72 1679.39,-179.567 1698.17,-137.636"/>
<polygon fill="red" stroke="red" stroke-width="0.27109" points="1701.45,-138.861 1702.31,-128.3 1695.05,-136.024 1701.45,-138.861"/>
</g>
<!-- enemyRadar[LeftFront2.5ø]&#45;&gt;11977 -->
<g id="edge49" class="edge"><title>enemyRadar[LeftFront2.5ø]&#45;&gt;11977</title>
<path fill="none" stroke="green" stroke-width="0.554357" d="M1378.08,-299.653C1371.07,-288.494 1358.15,-267.93 1347.1,-250.326"/>
<polygon fill="green" stroke="green" stroke-width="0.554357" points="1349.81,-248.061 1341.52,-241.455 1343.88,-251.784 1349.81,-248.061"/>
</g>
<!-- enemyRadar[Front7Ø] -->
<g id="node21" class="node"><title>enemyRadar[Front7Ø]</title>
<polygon fill="lightgray" stroke="black" points="273.247,-226.726 175.247,-226.726 175.247,-208.726 273.247,-208.726 273.247,-226.726"/>
<text text-anchor="middle" x="224.247" y="-215.526" font-family="Times,serif" font-size="9.00">enemyRadar[Front7Ø]</text>
</g>
<!-- enemyRadar[Front7Ø]&#45;&gt;Shoot -->
<g id="edge32" class="edge"><title>enemyRadar[Front7Ø]&#45;&gt;Shoot</title>
<path fill="none" stroke="red" stroke-width="0.10929" stroke-dasharray="1,5" d="M232.228,-208.468C251.632,-188.391 301.949,-136.327 332.813,-104.392"/>
<polygon fill="red" stroke="red" stroke-width="0.10929" points="335.402,-106.749 339.835,-97.1263 330.368,-101.885 335.402,-106.749"/>
</g>
<!-- OnTarget -->
<g id="node22" class="node"><title>OnTarget</title>
<polygon fill="lightgray" stroke="black" points="736.247,-226.726 686.247,-226.726 686.247,-208.726 736.247,-208.726 736.247,-226.726"/>
<text text-anchor="middle" x="711.247" y="-215.526" font-family="Times,serif" font-size="9.00">OnTarget</text>
</g>
<!-- OnTarget&#45;&gt;Shoot -->
<g id="edge27" class="edge"><title>OnTarget&#45;&gt;Shoot</title>
<path fill="none" stroke="green" stroke-width="2.52488" d="M702.281,-208.666C695.511,-202.903 685.785,-195.288 676.247,-190.149 580.033,-138.316 455.021,-102.477 394.389,-86.8718"/>
<polygon fill="green" stroke="green" stroke-width="2.52488" points="395.084,-83.4373 384.53,-84.3674 393.361,-90.2219 395.084,-83.4373"/>
</g>
<!-- OnTarget&#45;&gt; Move Left/Right -->
<g id="edge30" class="edge"><title>OnTarget&#45;&gt; Move Left/Right</title>
<path fill="none" stroke="green" stroke-width="1.13044" d="M718.744,-208.586C725.111,-202.286 734.851,-194.006 745.247,-190.149 905.019,-130.882 1344.09,-187.294 1511.25,-154.149 1564.27,-143.636 1621.84,-122.295 1663.59,-104.886"/>
<polygon fill="green" stroke="green" stroke-width="1.13044" points="1665.2,-108.007 1673.05,-100.896 1662.48,-101.558 1665.2,-108.007"/>
</g>
<!-- OnTarget&#45;&gt;Turn left/right -->
<g id="edge7" class="edge"><title>OnTarget&#45;&gt;Turn left/right</title>
<path fill="none" stroke="red" stroke-width="4.11818" d="M713.987,-208.468C718.991,-193.383 729.986,-160.243 739.639,-131.149"/>
<polygon fill="red" stroke="red" stroke-width="4.11818" points="743.121,-132.096 742.85,-121.47 736.281,-129.826 743.121,-132.096"/>
</g>
<!-- bias -->
<g id="node23" class="node"><title>bias</title>
<polygon fill="lightgray" stroke="black" points="476.747,-390.458 445.747,-390.458 445.747,-372.458 476.747,-372.458 476.747,-390.458"/>
<text text-anchor="middle" x="461.247" y="-379.258" font-family="Times,serif" font-size="9.00">bias</text>
</g>
<!-- 9444 -->
<g id="node28" class="node"><title>9444</title>
<ellipse fill="white" stroke="black" cx="1568.25" cy="-217.726" rx="25" ry="25"/>
<text text-anchor="middle" x="1568.25" y="-215.526" font-family="Times,serif" font-size="9.00">9444</text>
</g>
<!-- 9444&#45;&gt;Move Forward/Backward -->
<g id="edge45" class="edge"><title>9444&#45;&gt;Move Forward/Backward</title>
<path fill="none" stroke="green" stroke-width="0.309204" d="M1550.71,-199.725C1534.9,-184.391 1510.66,-160.892 1487.69,-138.621"/>
<polygon fill="green" stroke="green" stroke-width="0.309204" points="1489.91,-135.894 1480.29,-131.446 1485.03,-140.919 1489.91,-135.894"/>
</g>
<!-- 11908 -->
<g id="node29" class="node"><title>11908</title>
<ellipse fill="white" stroke="black" cx="55.247" cy="-308.881" rx="27.6545" ry="27.6545"/>
<text text-anchor="middle" x="55.247" y="-306.681" font-family="Times,serif" font-size="9.00">11908</text>
</g>
<!-- 11908&#45;&gt;11101 -->
<g id="edge48" class="edge"><title>11908&#45;&gt;11101</title>
<path fill="none" stroke="green" stroke-width="0.521153" d="M65.275,-283.046C69.0274,-273.754 73.359,-263.026 77.3961,-253.028"/>
<polygon fill="green" stroke="green" stroke-width="0.521153" points="80.6491,-254.32 81.1479,-243.737 74.1583,-251.699 80.6491,-254.32"/>
</g>
<!-- 6695&#45;&gt;Move Forward/Backward -->
<g id="edge36" class="edge"><title>6695&#45;&gt;Move Forward/Backward</title>
<path fill="none" stroke="green" stroke-width="0.921525" d="M1727.65,-207.087C1682.37,-187.77 1578.59,-143.495 1505.28,-112.219"/>
<polygon fill="green" stroke="green" stroke-width="0.921525" points="1506.62,-108.985 1496.05,-108.28 1503.87,-115.424 1506.62,-108.985"/>
</g>
<!-- 6695&#45;&gt; Move Left/Right -->
<g id="edge41" class="edge"><title>6695&#45;&gt; Move Left/Right</title>
<path fill="none" stroke="red" stroke-width="0.127983" d="M1745.67,-193.206C1742.87,-178.863 1739.16,-159.786 1735.56,-141.293"/>
<polygon fill="red" stroke="red" stroke-width="0.127983" points="1738.98,-140.557 1733.63,-131.41 1732.11,-141.895 1738.98,-140.557"/>
</g>
<!-- 11977&#45;&gt;Move Forward/Backward -->
<g id="edge50" class="edge"><title>11977&#45;&gt;Move Forward/Backward</title>
<path fill="none" stroke="red" stroke-width="0.263752" d="M1342.78,-194.757C1351.73,-182.092 1363.53,-165.388 1375.41,-148.59"/>
<polygon fill="red" stroke="red" stroke-width="0.263752" points="1378.31,-150.541 1381.23,-140.354 1372.6,-146.5 1378.31,-150.541"/>
</g>
<!-- 12218&#45;&gt;11101 -->
<g id="edge53" class="edge"><title>12218&#45;&gt;11101</title>
<path fill="none" stroke="green" stroke-width="0.215455" d="M117.94,-283.046C114.051,-273.675 109.557,-262.846 105.378,-252.777"/>
<polygon fill="green" stroke="green" stroke-width="0.215455" points="108.564,-251.322 101.498,-243.428 102.099,-254.006 108.564,-251.322"/>
</g>
<!-- 11101&#45;&gt;Shoot -->
<g id="edge44" class="edge"><title>11101&#45;&gt;Shoot</title>
<path fill="none" stroke="red" stroke-width="0.578689" stroke-dasharray="1,5" d="M114.097,-201.675C120.24,-197.792 126.932,-193.708 133.247,-190.149 199.837,-152.625 280.63,-113.985 325.021,-93.3217"/>
<polygon fill="red" stroke="red" stroke-width="0.578689" points="326.586,-96.4541 334.184,-89.071 323.64,-90.104 326.586,-96.4541"/>
</g>
</g>
</svg>
