<?xml version="1.0" encoding="UTF-8" standalone="no"?>
<!DOCTYPE svg PUBLIC "-//W3C//DTD SVG 1.1//EN"
 "http://www.w3.org/Graphics/SVG/1.1/DTD/svg11.dtd">
<!-- Generated by graphviz version 2.38.0 (20140413.2041)
 -->
<!-- Title: %3 Pages: 1 -->
<svg width="2478pt" height="387pt"
 viewBox="0.00 0.00 2478.00 387.14" xmlns="http://www.w3.org/2000/svg" xmlns:xlink="http://www.w3.org/1999/xlink">
<g id="graph0" class="graph" transform="scale(1 1) rotate(0) translate(4 383.144)">
<title>%3</title>
<polygon fill="white" stroke="none" points="-4,4 -4,-383.144 2474,-383.144 2474,4 -4,4"/>
<!-- wallRadar[1,0] -->
<g id="node1" class="node"><title>wallRadar[1,0]</title>
<polygon fill="lightgray" stroke="black" points="1568.5,-223.898 1498.5,-223.898 1498.5,-205.898 1568.5,-205.898 1568.5,-223.898"/>
<text text-anchor="middle" x="1533.5" y="-212.698" font-family="Times,serif" font-size="9.00">wallRadar[1,0]</text>
</g>
<!-- Shoot -->
<g id="node25" class="node"><title>Shoot</title>
<ellipse fill="lightblue" stroke="black" cx="1730.5" cy="-77.0746" rx="26.7407" ry="26.7407"/>
<text text-anchor="middle" x="1730.5" y="-74.8746" font-family="Times,serif" font-size="9.00">Shoot</text>
</g>
<!-- wallRadar[1,0]&#45;&gt;Shoot -->
<g id="edge13" class="edge"><title>wallRadar[1,0]&#45;&gt;Shoot</title>
<path fill="none" stroke="red" stroke-width="0.639433" stroke-dasharray="1,5" d="M1545.23,-205.808C1575.36,-185.035 1656.19,-129.306 1700.48,-98.7754"/>
<polygon fill="red" stroke="red" stroke-width="0.639433" points="1702.57,-101.581 1708.82,-93.0231 1698.6,-95.8178 1702.57,-101.581"/>
</g>
<!-- Jump/Crouch -->
<g id="node26" class="node"><title>Jump/Crouch</title>
<ellipse fill="lightblue" stroke="black" cx="565.5" cy="-77.0746" rx="45.9239" ry="45.9239"/>
<text text-anchor="middle" x="565.5" y="-74.8746" font-family="Times,serif" font-size="9.00">Jump/Crouch</text>
</g>
<!-- wallRadar[1,0]&#45;&gt;Jump/Crouch -->
<g id="edge43" class="edge"><title>wallRadar[1,0]&#45;&gt;Jump/Crouch</title>
<path fill="none" stroke="red" stroke-width="0.158367" d="M1521.79,-205.734C1513.25,-200.262 1501.19,-193.47 1489.5,-190.149 1226.97,-115.568 1146.38,-194.739 876.5,-154.149 784.86,-140.367 680.679,-112.271 619.158,-94.3503"/>
<polygon fill="red" stroke="red" stroke-width="0.158367" points="619.87,-90.9119 609.289,-91.4562 617.9,-97.629 619.87,-90.9119"/>
</g>
<!-- Move Left/Right -->
<g id="node28" class="node"><title>Move Left/Right</title>
<ellipse fill="lightblue" stroke="black" cx="2078.5" cy="-77.0746" rx="53.9813" ry="53.9813"/>
<text text-anchor="middle" x="2078.5" y="-74.8746" font-family="Times,serif" font-size="9.00">Move Left/Right</text>
</g>
<!-- wallRadar[1,0]&#45;&gt;Move Left/Right -->
<g id="edge8" class="edge"><title>wallRadar[1,0]&#45;&gt;Move Left/Right</title>
<path fill="none" stroke="red" stroke-width="0.799984" stroke-dasharray="1,5" d="M1546.42,-205.757C1555.17,-200.58 1567.16,-194.126 1578.5,-190.149 1658.78,-161.987 1683.37,-172.231 1766.5,-154.149 1853.77,-135.167 1953.98,-110.156 2016.77,-94.0918"/>
<polygon fill="red" stroke="red" stroke-width="0.799984" points="2017.7,-97.4664 2026.52,-91.5928 2015.96,-90.6857 2017.7,-97.4664"/>
</g>
<!-- Turn Left/Right -->
<g id="node29" class="node"><title>Turn Left/Right</title>
<ellipse fill="lightblue" stroke="black" cx="1234.5" cy="-77.0746" rx="50.8235" ry="50.8235"/>
<text text-anchor="middle" x="1234.5" y="-74.8746" font-family="Times,serif" font-size="9.00">Turn Left/Right</text>
</g>
<!-- wallRadar[1,0]&#45;&gt;Turn Left/Right -->
<g id="edge2" class="edge"><title>wallRadar[1,0]&#45;&gt;Turn Left/Right</title>
<path fill="none" stroke="red" stroke-width="0.48486" d="M1518.99,-205.682C1510.48,-200.965 1499.48,-195.027 1489.5,-190.149 1422.22,-157.272 1343.02,-123.159 1290.95,-101.336"/>
<polygon fill="red" stroke="red" stroke-width="0.48486" points="1292.13,-98.0353 1281.55,-97.4078 1289.43,-104.494 1292.13,-98.0353"/>
</g>
<!-- wallRadar[0,1] -->
<g id="node2" class="node"><title>wallRadar[0,1]</title>
<polygon fill="lightgray" stroke="black" points="549.5,-223.898 479.5,-223.898 479.5,-205.898 549.5,-205.898 549.5,-223.898"/>
<text text-anchor="middle" x="514.5" y="-212.698" font-family="Times,serif" font-size="9.00">wallRadar[0,1]</text>
</g>
<!-- wallRadar[0,1]&#45;&gt;Jump/Crouch -->
<g id="edge53" class="edge"><title>wallRadar[0,1]&#45;&gt;Jump/Crouch</title>
<path fill="none" stroke="red" stroke-width="0.667393" stroke-dasharray="1,5" d="M517.538,-205.808C523.105,-190.98 535.361,-158.341 546.089,-129.77"/>
<polygon fill="red" stroke="red" stroke-width="0.667393" points="549.418,-130.86 549.657,-120.268 542.865,-128.399 549.418,-130.86"/>
</g>
<!-- Move Forward/Backward -->
<g id="node27" class="node"><title>Move Forward/Backward</title>
<ellipse fill="lightblue" stroke="black" cx="962.5" cy="-77.0746" rx="77.1494" ry="77.1494"/>
<text text-anchor="middle" x="962.5" y="-74.8746" font-family="Times,serif" font-size="9.00">Move Forward/Backward</text>
</g>
<!-- wallRadar[0,1]&#45;&gt;Move Forward/Backward -->
<g id="edge27" class="edge"><title>wallRadar[0,1]&#45;&gt;Move Forward/Backward</title>
<path fill="none" stroke="green" stroke-width="0.146138" d="M527.603,-205.818C536.16,-200.797 547.71,-194.494 558.5,-190.149 665.232,-147.176 794.191,-114.541 877.234,-95.8619"/>
<polygon fill="green" stroke="green" stroke-width="0.146138" points="878.131,-99.2478 887.128,-93.6534 876.606,-92.4159 878.131,-99.2478"/>
</g>
<!-- wallRadar[&#45;1,0] -->
<g id="node3" class="node"><title>wallRadar[&#45;1,0]</title>
<polygon fill="lightgray" stroke="black" points="2470,-309.395 2397,-309.395 2397,-291.395 2470,-291.395 2470,-309.395"/>
<text text-anchor="middle" x="2433.5" y="-298.195" font-family="Times,serif" font-size="9.00">wallRadar[&#45;1,0]</text>
</g>
<!-- 1616 -->
<g id="node33" class="node"><title>1616</title>
<ellipse fill="white" stroke="black" cx="2359.5" cy="-214.898" rx="25" ry="25"/>
<text text-anchor="middle" x="2359.5" y="-212.698" font-family="Times,serif" font-size="9.00">1616</text>
</g>
<!-- wallRadar[&#45;1,0]&#45;&gt;1616 -->
<g id="edge61" class="edge"><title>wallRadar[&#45;1,0]&#45;&gt;1616</title>
<path fill="none" stroke="green" stroke-width="0.2131" d="M2426.4,-291.389C2416.3,-279.992 2397.32,-258.572 2382.15,-241.452"/>
<polygon fill="green" stroke="green" stroke-width="0.2131" points="2384.74,-239.103 2375.49,-233.94 2379.5,-243.746 2384.74,-239.103"/>
</g>
<!-- wallRadar[0,&#45;1] -->
<g id="node4" class="node"><title>wallRadar[0,&#45;1]</title>
<polygon fill="lightgray" stroke="black" points="73,-223.898 0,-223.898 0,-205.898 73,-205.898 73,-223.898"/>
<text text-anchor="middle" x="36.5" y="-212.698" font-family="Times,serif" font-size="9.00">wallRadar[0,&#45;1]</text>
</g>
<!-- wallRadar[0,&#45;1]&#45;&gt;Jump/Crouch -->
<g id="edge31" class="edge"><title>wallRadar[0,&#45;1]&#45;&gt;Jump/Crouch</title>
<path fill="none" stroke="green" stroke-width="0.248925" d="M51.7811,-205.773C61.7378,-200.734 75.1313,-194.428 87.5,-190.149 236.616,-138.564 420.017,-102.98 510.149,-87.2292"/>
<polygon fill="green" stroke="green" stroke-width="0.248925" points="510.892,-90.6528 520.147,-85.4967 509.697,-83.7555 510.892,-90.6528"/>
</g>
<!-- wallRadar[0.7,0.7] -->
<g id="node5" class="node"><title>wallRadar[0.7,0.7]</title>
<polygon fill="lightgray" stroke="black" points="231,-309.395 148,-309.395 148,-291.395 231,-291.395 231,-309.395"/>
<text text-anchor="middle" x="189.5" y="-298.195" font-family="Times,serif" font-size="9.00">wallRadar[0.7,0.7]</text>
</g>
<!-- wallRadar[0.7,0.7]&#45;&gt;Jump/Crouch -->
<g id="edge45" class="edge"><title>wallRadar[0.7,0.7]&#45;&gt;Jump/Crouch</title>
<path fill="none" stroke="green" stroke-width="0.296054" stroke-dasharray="1,5" d="M189.871,-291.267C191.227,-271.214 197.51,-218.93 226.5,-190.149 303.911,-113.298 435.08,-89.1447 509.523,-81.5536"/>
<polygon fill="green" stroke="green" stroke-width="0.296054" points="510.017,-85.0225 519.639,-80.5887 509.352,-78.0541 510.017,-85.0225"/>
</g>
<!-- 1163 -->
<g id="node31" class="node"><title>1163</title>
<ellipse fill="white" stroke="black" cx="154.5" cy="-214.898" rx="25" ry="25"/>
<text text-anchor="middle" x="154.5" y="-212.698" font-family="Times,serif" font-size="9.00">1163</text>
</g>
<!-- wallRadar[0.7,0.7]&#45;&gt;1163 -->
<g id="edge51" class="edge"><title>wallRadar[0.7,0.7]&#45;&gt;1163</title>
<path fill="none" stroke="green" stroke-width="0.125611" d="M186.144,-291.389C181.922,-281.316 174.418,-263.416 167.777,-247.573"/>
<polygon fill="green" stroke="green" stroke-width="0.125611" points="170.885,-245.933 163.791,-238.063 164.429,-248.639 170.885,-245.933"/>
</g>
<!-- wallRadar[&#45;0.7,0.7] -->
<g id="node6" class="node"><title>wallRadar[&#45;0.7,0.7]</title>
<polygon fill="lightgray" stroke="black" points="1882.5,-223.898 1796.5,-223.898 1796.5,-205.898 1882.5,-205.898 1882.5,-223.898"/>
<text text-anchor="middle" x="1839.5" y="-212.698" font-family="Times,serif" font-size="9.00">wallRadar[&#45;0.7,0.7]</text>
</g>
<!-- wallRadar[&#45;0.7,0.7]&#45;&gt;Shoot -->
<g id="edge25" class="edge"><title>wallRadar[&#45;0.7,0.7]&#45;&gt;Shoot</title>
<path fill="none" stroke="green" stroke-width="0.225894" d="M1833.01,-205.808C1817.65,-186.673 1778.49,-137.88 1753.26,-106.441"/>
<polygon fill="green" stroke="green" stroke-width="0.225894" points="1755.85,-104.07 1746.86,-98.4616 1750.39,-108.451 1755.85,-104.07"/>
</g>
<!-- wallRadar[&#45;0.7,0.7]&#45;&gt;Move Forward/Backward -->
<g id="edge4" class="edge"><title>wallRadar[&#45;0.7,0.7]&#45;&gt;Move Forward/Backward</title>
<path fill="none" stroke="green" stroke-width="0.584874" d="M1802.71,-205.895C1777.22,-200.641 1742.45,-194.044 1711.5,-190.149 1474.17,-160.281 1408.66,-203.015 1174.5,-154.149 1129.86,-144.834 1081.9,-128.219 1042.9,-112.888"/>
<polygon fill="green" stroke="green" stroke-width="0.584874" points="1043.78,-109.468 1033.19,-109.023 1041.19,-115.972 1043.78,-109.468"/>
</g>
<!-- wallRadar[&#45;0.7,0.7]&#45;&gt;Move Left/Right -->
<g id="edge49" class="edge"><title>wallRadar[&#45;0.7,0.7]&#45;&gt;Move Left/Right</title>
<path fill="none" stroke="red" stroke-width="0.318155" d="M1853.73,-205.808C1886.29,-187.307 1967.64,-141.079 2022.99,-109.619"/>
<polygon fill="red" stroke="red" stroke-width="0.318155" points="2025.02,-112.493 2031.98,-104.509 2021.56,-106.407 2025.02,-112.493"/>
</g>
<!-- wallRadar[&#45;0.7,&#45;0.7] -->
<g id="node7" class="node"><title>wallRadar[&#45;0.7,&#45;0.7]</title>
<polygon fill="lightgray" stroke="black" points="1480,-223.898 1391,-223.898 1391,-205.898 1480,-205.898 1480,-223.898"/>
<text text-anchor="middle" x="1435.5" y="-212.698" font-family="Times,serif" font-size="9.00">wallRadar[&#45;0.7,&#45;0.7]</text>
</g>
<!-- wallRadar[&#45;0.7,&#45;0.7]&#45;&gt;Turn Left/Right -->
<g id="edge33" class="edge"><title>wallRadar[&#45;0.7,&#45;0.7]&#45;&gt;Turn Left/Right</title>
<path fill="none" stroke="green" stroke-width="0.426375" stroke-dasharray="1,5" d="M1423.53,-205.808C1396.87,-187.798 1331.34,-143.512 1284.93,-112.153"/>
<polygon fill="green" stroke="green" stroke-width="0.426375" points="1286.75,-109.156 1276.5,-106.457 1282.83,-114.956 1286.75,-109.156"/>
</g>
<!-- wallRadar[0.7,&#45;0.7] -->
<g id="node8" class="node"><title>wallRadar[0.7,&#45;0.7]</title>
<polygon fill="lightgray" stroke="black" points="870.5,-223.898 784.5,-223.898 784.5,-205.898 870.5,-205.898 870.5,-223.898"/>
<text text-anchor="middle" x="827.5" y="-212.698" font-family="Times,serif" font-size="9.00">wallRadar[0.7,&#45;0.7]</text>
</g>
<!-- wallRadar[0.7,&#45;0.7]&#45;&gt;Jump/Crouch -->
<g id="edge42" class="edge"><title>wallRadar[0.7,&#45;0.7]&#45;&gt;Jump/Crouch</title>
<path fill="none" stroke="green" stroke-width="0.568782" stroke-dasharray="1,5" d="M811.895,-205.808C773.963,-186.144 675.614,-135.159 615.265,-103.873"/>
<polygon fill="green" stroke="green" stroke-width="0.568782" points="616.774,-100.713 606.285,-99.2178 613.552,-106.928 616.774,-100.713"/>
</g>
<!-- wallRadar[0.7,&#45;0.7]&#45;&gt;Turn Left/Right -->
<g id="edge24" class="edge"><title>wallRadar[0.7,&#45;0.7]&#45;&gt;Turn Left/Right</title>
<path fill="none" stroke="green" stroke-width="0.130553" stroke-dasharray="1,5" d="M843.07,-205.701C853.217,-200.633 866.872,-194.322 879.5,-190.149 952.418,-166.054 975.112,-176.775 1048.5,-154.149 1093.49,-140.279 1142.73,-119.894 1179.24,-103.716"/>
<polygon fill="green" stroke="green" stroke-width="0.130553" points="1181.01,-106.76 1188.71,-99.4871 1178.15,-100.368 1181.01,-106.76"/>
</g>
<!-- enemyRadar[RightBack] -->
<g id="node9" class="node"><title>enemyRadar[RightBack]</title>
<polygon fill="lightgray" stroke="black" points="2004.5,-223.898 1900.5,-223.898 1900.5,-205.898 2004.5,-205.898 2004.5,-223.898"/>
<text text-anchor="middle" x="1952.5" y="-212.698" font-family="Times,serif" font-size="9.00">enemyRadar[RightBack]</text>
</g>
<!-- enemyRadar[RightBack]&#45;&gt;Move Left/Right -->
<g id="edge14" class="edge"><title>enemyRadar[RightBack]&#45;&gt;Move Left/Right</title>
<path fill="none" stroke="green" stroke-width="0.197663" d="M1960,-205.808C1974.61,-190.067 2007.83,-154.253 2035.39,-124.542"/>
<polygon fill="green" stroke="green" stroke-width="0.197663" points="2038.03,-126.847 2042.26,-117.135 2032.9,-122.086 2038.03,-126.847"/>
</g>
<!-- enemyRadar[RightBack]&#45;&gt;Turn Left/Right -->
<g id="edge11" class="edge"><title>enemyRadar[RightBack]&#45;&gt;Turn Left/Right</title>
<path fill="none" stroke="green" stroke-width="0.174933" d="M1934.67,-205.854C1922.68,-200.718 1906.4,-194.274 1891.5,-190.149 1862.67,-182.166 1451.55,-113.924 1294.7,-88.0052"/>
<polygon fill="green" stroke="green" stroke-width="0.174933" points="1295.18,-84.5371 1284.75,-86.3603 1294.04,-91.4434 1295.18,-84.5371"/>
</g>
<!-- enemyRadar[LeftBack] -->
<g id="node10" class="node"><title>enemyRadar[LeftBack]</title>
<polygon fill="lightgray" stroke="black" points="667,-223.898 568,-223.898 568,-205.898 667,-205.898 667,-223.898"/>
<text text-anchor="middle" x="617.5" y="-212.698" font-family="Times,serif" font-size="9.00">enemyRadar[LeftBack]</text>
</g>
<!-- enemyRadar[LeftBack]&#45;&gt;Jump/Crouch -->
<g id="edge9" class="edge"><title>enemyRadar[LeftBack]&#45;&gt;Jump/Crouch</title>
<path fill="none" stroke="green" stroke-width="0.324005" d="M614.403,-205.808C608.726,-190.98 596.23,-158.341 585.291,-129.77"/>
<polygon fill="green" stroke="green" stroke-width="0.324005" points="588.498,-128.355 581.654,-120.268 581.96,-130.858 588.498,-128.355"/>
</g>
<!-- enemyRadar[LeftBack]&#45;&gt;Move Forward/Backward -->
<g id="edge28" class="edge"><title>enemyRadar[LeftBack]&#45;&gt;Move Forward/Backward</title>
<path fill="none" stroke="red" stroke-width="0.777055" d="M637.066,-205.794C648.295,-201.166 662.669,-195.281 675.5,-190.149 744.776,-162.442 823.764,-131.656 881.313,-109.372"/>
<polygon fill="red" stroke="red" stroke-width="0.777055" points="882.657,-112.605 890.72,-105.731 880.131,-106.076 882.657,-112.605"/>
</g>
<!-- enemyRadar[Right] -->
<g id="node11" class="node"><title>enemyRadar[Right]</title>
<polygon fill="lightgray" stroke="black" points="2243.5,-309.395 2157.5,-309.395 2157.5,-291.395 2243.5,-291.395 2243.5,-309.395"/>
<text text-anchor="middle" x="2200.5" y="-298.195" font-family="Times,serif" font-size="9.00">enemyRadar[Right]</text>
</g>
<!-- enemyRadar[Right]&#45;&gt;Move Left/Right -->
<g id="edge18" class="edge"><title>enemyRadar[Right]&#45;&gt;Move Left/Right</title>
<path fill="none" stroke="green" stroke-width="0.288261" stroke-dasharray="1,5" d="M2210.36,-291.336C2222.28,-280.876 2241.73,-261.373 2249.5,-239.647 2256.91,-218.933 2259.96,-209.504 2249.5,-190.149 2226.07,-146.781 2177.74,-117.485 2138.42,-99.7553"/>
<polygon fill="green" stroke="green" stroke-width="0.288261" points="2139.72,-96.5038 2129.16,-95.7129 2136.92,-102.92 2139.72,-96.5038"/>
</g>
<!-- 1511 -->
<g id="node30" class="node"><title>1511</title>
<ellipse fill="white" stroke="black" cx="2215.5" cy="-214.898" rx="25" ry="25"/>
<text text-anchor="middle" x="2215.5" y="-212.698" font-family="Times,serif" font-size="9.00">1511</text>
</g>
<!-- enemyRadar[Right]&#45;&gt;1511 -->
<g id="edge55" class="edge"><title>enemyRadar[Right]&#45;&gt;1511</title>
<path fill="none" stroke="red" stroke-width="0.324224" d="M2201.94,-291.389C2203.67,-281.772 2206.68,-265.018 2209.42,-249.733"/>
<polygon fill="red" stroke="red" stroke-width="0.324224" points="2212.94,-249.953 2211.26,-239.492 2206.05,-248.716 2212.94,-249.953"/>
</g>
<!-- enemyRadar[Left] -->
<g id="node12" class="node"><title>enemyRadar[Left]</title>
<polygon fill="lightgray" stroke="black" points="766,-223.898 685,-223.898 685,-205.898 766,-205.898 766,-223.898"/>
<text text-anchor="middle" x="725.5" y="-212.698" font-family="Times,serif" font-size="9.00">enemyRadar[Left]</text>
</g>
<!-- enemyRadar[Left]&#45;&gt;Jump/Crouch -->
<g id="edge35" class="edge"><title>enemyRadar[Left]&#45;&gt;Jump/Crouch</title>
<path fill="none" stroke="red" stroke-width="0.737082" d="M715.97,-205.808C695.181,-188.16 644.674,-145.285 607.894,-114.063"/>
<polygon fill="red" stroke="red" stroke-width="0.737082" points="610.159,-111.394 600.27,-107.591 605.628,-116.731 610.159,-111.394"/>
</g>
<!-- enemyRadar[Left]&#45;&gt;Move Forward/Backward -->
<g id="edge39" class="edge"><title>enemyRadar[Left]&#45;&gt;Move Forward/Backward</title>
<path fill="none" stroke="green" stroke-width="0.674668" stroke-dasharray="1,5" d="M739.616,-205.808C768.123,-189.471 834.356,-151.513 887.258,-121.196"/>
<polygon fill="green" stroke="green" stroke-width="0.674668" points="889.024,-124.217 895.96,-116.208 885.544,-118.144 889.024,-124.217"/>
</g>
<!-- enemyRadar[RightFront30] -->
<g id="node13" class="node"><title>enemyRadar[RightFront30]</title>
<polygon fill="lightgray" stroke="black" points="2014,-309.395 1899,-309.395 1899,-291.395 2014,-291.395 2014,-309.395"/>
<text text-anchor="middle" x="1956.5" y="-298.195" font-family="Times,serif" font-size="9.00">enemyRadar[RightFront30]</text>
</g>
<!-- enemyRadar[RightFront30]&#45;&gt;Shoot -->
<g id="edge7" class="edge"><title>enemyRadar[RightFront30]&#45;&gt;Shoot</title>
<path fill="none" stroke="green" stroke-width="0.456811" d="M1898.83,-291.886C1862.57,-284.354 1817.2,-269.364 1787.5,-239.647 1753.63,-205.752 1739.81,-150.533 1734.23,-114.251"/>
<polygon fill="green" stroke="green" stroke-width="0.456811" points="1737.66,-113.515 1732.8,-104.098 1730.73,-114.488 1737.66,-113.515"/>
</g>
<!-- enemyRadar[RightFront30]&#45;&gt;Jump/Crouch -->
<g id="edge37" class="edge"><title>enemyRadar[RightFront30]&#45;&gt;Jump/Crouch</title>
<path fill="none" stroke="red" stroke-width="0.311596" stroke-dasharray="1,5" d="M1898.58,-297.723C1617.21,-289.533 405.823,-253.488 392.5,-239.647 341.6,-186.765 445.924,-129.029 513.661,-98.9505"/>
<polygon fill="red" stroke="red" stroke-width="0.311596" points="515.191,-102.102 522.956,-94.8933 512.391,-95.686 515.191,-102.102"/>
</g>
<!-- enemyRadar[RightFront30]&#45;&gt;Move Left/Right -->
<g id="edge40" class="edge"><title>enemyRadar[RightFront30]&#45;&gt;Move Left/Right</title>
<path fill="none" stroke="red" stroke-width="0.498115" d="M2014.15,-298.039C2057.46,-293.614 2114.15,-279.832 2143.5,-239.647 2168.84,-204.948 2146.02,-158.985 2120.7,-124.955"/>
<polygon fill="red" stroke="red" stroke-width="0.498115" points="2123.45,-122.801 2114.58,-117.013 2117.91,-127.072 2123.45,-122.801"/>
</g>
<!-- enemyRadar[RightFront30]&#45;&gt;1511 -->
<g id="edge60" class="edge"><title>enemyRadar[RightFront30]&#45;&gt;1511</title>
<path fill="none" stroke="green" stroke-width="0.746621" d="M1999.88,-291.388C2045.14,-282.172 2117.6,-264.973 2176.5,-239.647 2179.9,-238.183 2183.37,-236.462 2186.75,-234.626"/>
<polygon fill="green" stroke="green" stroke-width="0.746621" points="2188.54,-237.636 2195.44,-229.597 2185.03,-231.578 2188.54,-237.636"/>
</g>
<!-- enemyRadar[LeftFront30] -->
<g id="node14" class="node"><title>enemyRadar[LeftFront30]</title>
<polygon fill="lightgray" stroke="black" points="345.5,-223.898 235.5,-223.898 235.5,-205.898 345.5,-205.898 345.5,-223.898"/>
<text text-anchor="middle" x="290.5" y="-212.698" font-family="Times,serif" font-size="9.00">enemyRadar[LeftFront30]</text>
</g>
<!-- enemyRadar[LeftFront30]&#45;&gt;Jump/Crouch -->
<g id="edge3" class="edge"><title>enemyRadar[LeftFront30]&#45;&gt;Jump/Crouch</title>
<path fill="none" stroke="red" stroke-width="0.436762" d="M306.879,-205.808C347.161,-185.913 452.355,-133.957 515.48,-102.779"/>
<polygon fill="red" stroke="red" stroke-width="0.436762" points="517.06,-105.903 524.476,-98.3365 513.96,-99.6268 517.06,-105.903"/>
</g>
<!-- enemyRadar[RightFront10] -->
<g id="node15" class="node"><title>enemyRadar[RightFront10]</title>
<polygon fill="lightgray" stroke="black" points="1702,-223.898 1587,-223.898 1587,-205.898 1702,-205.898 1702,-223.898"/>
<text text-anchor="middle" x="1644.5" y="-212.698" font-family="Times,serif" font-size="9.00">enemyRadar[RightFront10]</text>
</g>
<!-- enemyRadar[RightFront10]&#45;&gt;Shoot -->
<g id="edge32" class="edge"><title>enemyRadar[RightFront10]&#45;&gt;Shoot</title>
<path fill="none" stroke="green" stroke-width="0.612415" stroke-dasharray="1,5" d="M1649.62,-205.808C1661.4,-187.2 1690.95,-140.544 1710.87,-109.075"/>
<polygon fill="green" stroke="green" stroke-width="0.612415" points="1714.07,-110.563 1716.46,-100.242 1708.16,-106.818 1714.07,-110.563"/>
</g>
<!-- enemyRadar[RightFront10]&#45;&gt;Jump/Crouch -->
<g id="edge17" class="edge"><title>enemyRadar[RightFront10]&#45;&gt;Jump/Crouch</title>
<path fill="none" stroke="green" stroke-width="0.346624" stroke-dasharray="1,5" d="M1626.42,-205.878C1613.16,-200.398 1594.57,-193.538 1577.5,-190.149 1271.51,-129.402 1185.16,-199.413 876.5,-154.149 784.81,-140.704 680.644,-112.506 619.139,-94.4733"/>
<polygon fill="green" stroke="green" stroke-width="0.346624" points="619.855,-91.0354 609.274,-91.5604 617.873,-97.7489 619.855,-91.0354"/>
</g>
<!-- enemyRadar[RightFront10]&#45;&gt;Move Left/Right -->
<g id="edge19" class="edge"><title>enemyRadar[RightFront10]&#45;&gt;Move Left/Right</title>
<path fill="none" stroke="green" stroke-width="0.50574" stroke-dasharray="1,5" d="M1670.35,-205.808C1738.01,-184.634 1921.71,-127.143 2017.91,-97.0372"/>
<polygon fill="green" stroke="green" stroke-width="0.50574" points="2019,-100.362 2027.5,-94.0349 2016.91,-93.6814 2019,-100.362"/>
</g>
<!-- enemyRadar[LeftFront10] -->
<g id="node16" class="node"><title>enemyRadar[LeftFront10]</title>
<polygon fill="lightgray" stroke="black" points="1372.5,-223.898 1262.5,-223.898 1262.5,-205.898 1372.5,-205.898 1372.5,-223.898"/>
<text text-anchor="middle" x="1317.5" y="-212.698" font-family="Times,serif" font-size="9.00">enemyRadar[LeftFront10]</text>
</g>
<!-- enemyRadar[LeftFront10]&#45;&gt;Shoot -->
<g id="edge36" class="edge"><title>enemyRadar[LeftFront10]&#45;&gt;Shoot</title>
<path fill="none" stroke="green" stroke-width="0.256755" d="M1338.8,-205.881C1351.45,-201.176 1367.84,-195.185 1382.5,-190.149 1496.23,-151.077 1632.22,-108.455 1695.23,-88.9364"/>
<polygon fill="green" stroke="green" stroke-width="0.256755" points="1696.54,-92.1947 1705.06,-85.8959 1694.48,-85.5073 1696.54,-92.1947"/>
</g>
<!-- enemyRadar[LeftFront10]&#45;&gt;Move Forward/Backward -->
<g id="edge34" class="edge"><title>enemyRadar[LeftFront10]&#45;&gt;Move Forward/Backward</title>
<path fill="none" stroke="green" stroke-width="0.184635" d="M1296.36,-205.808C1247.87,-187.259 1126.55,-140.841 1044.31,-109.377"/>
<polygon fill="green" stroke="green" stroke-width="0.184635" points="1045.08,-105.921 1034.49,-105.617 1042.58,-112.459 1045.08,-105.921"/>
</g>
<!-- enemyRadar[LeftFront10]&#45;&gt;Turn Left/Right -->
<g id="edge23" class="edge"><title>enemyRadar[LeftFront10]&#45;&gt;Turn Left/Right</title>
<path fill="none" stroke="red" stroke-width="1.11065" stroke-dasharray="1,5" d="M1312.56,-205.808C1303.48,-190.954 1283.48,-158.229 1266,-129.623"/>
<polygon fill="red" stroke="red" stroke-width="1.11065" points="1268.87,-127.609 1260.67,-120.901 1262.9,-131.259 1268.87,-127.609"/>
</g>
<!-- enemyRadar[RightFront3.5] -->
<g id="node17" class="node"><title>enemyRadar[RightFront3.5]</title>
<polygon fill="lightgray" stroke="black" points="2379,-309.395 2262,-309.395 2262,-291.395 2379,-291.395 2379,-309.395"/>
<text text-anchor="middle" x="2320.5" y="-298.195" font-family="Times,serif" font-size="9.00">enemyRadar[RightFront3.5]</text>
</g>
<!-- enemyRadar[RightFront3.5]&#45;&gt;Move Forward/Backward -->
<g id="edge21" class="edge"><title>enemyRadar[RightFront3.5]&#45;&gt;Move Forward/Backward</title>
<path fill="none" stroke="red" stroke-width="0.182711" d="M2302.44,-291.38C2288.97,-285.827 2269.96,-278.872 2252.5,-275.647 2185.44,-263.259 1081.23,-278.947 1025.5,-239.647 1011.27,-229.616 997.047,-195.684 985.721,-161.488"/>
<polygon fill="red" stroke="red" stroke-width="0.182711" points="989.014,-160.294 982.606,-151.856 982.353,-162.448 989.014,-160.294"/>
</g>
<!-- enemyRadar[RightFront3.5]&#45;&gt;Move Left/Right -->
<g id="edge54" class="edge"><title>enemyRadar[RightFront3.5]&#45;&gt;Move Left/Right</title>
<path fill="none" stroke="red" stroke-width="0.120695" stroke-dasharray="1,5" d="M2318.26,-291.342C2312.53,-271.902 2295.65,-221.687 2266.5,-190.149 2230.49,-151.19 2177.83,-121.39 2137.4,-102.346"/>
<polygon fill="red" stroke="red" stroke-width="0.120695" points="2138.74,-99.1076 2128.19,-98.0929 2135.8,-105.463 2138.74,-99.1076"/>
</g>
<!-- enemyRadar[RightFront3.5]&#45;&gt;1616 -->
<g id="edge57" class="edge"><title>enemyRadar[RightFront3.5]&#45;&gt;1616</title>
<path fill="none" stroke="red" stroke-width="0.154264" d="M2324.24,-291.389C2329.02,-281.153 2337.58,-262.833 2345.06,-246.804"/>
<polygon fill="red" stroke="red" stroke-width="0.154264" points="2348.25,-248.252 2349.31,-237.71 2341.91,-245.289 2348.25,-248.252"/>
</g>
<!-- enemyRadar[LeftFront3.5] -->
<g id="node18" class="node"><title>enemyRadar[LeftFront3.5]</title>
<polygon fill="lightgray" stroke="black" points="2134.5,-223.898 2022.5,-223.898 2022.5,-205.898 2134.5,-205.898 2134.5,-223.898"/>
<text text-anchor="middle" x="2078.5" y="-212.698" font-family="Times,serif" font-size="9.00">enemyRadar[LeftFront3.5]</text>
</g>
<!-- enemyRadar[LeftFront3.5]&#45;&gt;Shoot -->
<g id="edge26" class="edge"><title>enemyRadar[LeftFront3.5]&#45;&gt;Shoot</title>
<path fill="none" stroke="green" stroke-width="0.313672" d="M2057.77,-205.808C1999.92,-183.227 1836.24,-119.343 1764.69,-91.4174"/>
<polygon fill="green" stroke="green" stroke-width="0.313672" points="1765.81,-88.0991 1755.22,-87.7237 1763.27,-94.62 1765.81,-88.0991"/>
</g>
<!-- enemyRadar[LeftFront3.5]&#45;&gt;Move Left/Right -->
<g id="edge16" class="edge"><title>enemyRadar[LeftFront3.5]&#45;&gt;Move Left/Right</title>
<path fill="none" stroke="green" stroke-width="0.451819" stroke-dasharray="1,5" d="M2078.5,-205.808C2078.5,-192.902 2078.5,-166.501 2078.5,-141.035"/>
<polygon fill="green" stroke="green" stroke-width="0.451819" points="2082,-140.976 2078.5,-130.976 2075,-140.976 2082,-140.976"/>
</g>
<!-- enemyRadar[RightFront1.5] -->
<g id="node19" class="node"><title>enemyRadar[RightFront1.5]</title>
<polygon fill="lightgray" stroke="black" points="1255,-379.144 1138,-379.144 1138,-361.144 1255,-361.144 1255,-379.144"/>
<text text-anchor="middle" x="1196.5" y="-367.944" font-family="Times,serif" font-size="9.00">enemyRadar[RightFront1.5]</text>
</g>
<!-- enemyRadar[RightFront1.5]&#45;&gt;Shoot -->
<g id="edge1" class="edge"><title>enemyRadar[RightFront1.5]&#45;&gt;Shoot</title>
<path fill="none" stroke="green" stroke-width="0.357192" d="M1255.01,-362.719C1376.82,-348.084 1651.34,-308.133 1711.5,-239.647 1741.61,-205.365 1741.29,-150.007 1736.95,-113.825"/>
<polygon fill="green" stroke="green" stroke-width="0.357192" points="1740.39,-113.146 1735.57,-103.71 1733.45,-114.09 1740.39,-113.146"/>
</g>
<!-- enemyRadar[RightFront1.5]&#45;&gt;Jump/Crouch -->
<g id="edge30" class="edge"><title>enemyRadar[RightFront1.5]&#45;&gt;Jump/Crouch</title>
<path fill="none" stroke="green" stroke-width="0.345927" d="M1137.88,-368.68C921.32,-366.712 176.847,-357.603 138.5,-325.144 92.2999,-286.038 83.2915,-237.891 120.5,-190.149 168.182,-128.97 400.78,-96.0191 509.406,-83.7493"/>
<polygon fill="green" stroke="green" stroke-width="0.345927" points="509.968,-87.2085 519.521,-82.6262 509.196,-80.2512 509.968,-87.2085"/>
</g>
<!-- enemyRadar[RightFront1.5]&#45;&gt;Turn Left/Right -->
<g id="edge5" class="edge"><title>enemyRadar[RightFront1.5]&#45;&gt;Turn Left/Right</title>
<path fill="none" stroke="green" stroke-width="0.745653" d="M1198.37,-361.072C1200.35,-352.276 1203.47,-337.769 1205.5,-325.144 1215.72,-261.514 1223.88,-188.119 1228.91,-137.96"/>
<polygon fill="green" stroke="green" stroke-width="0.745653" points="1232.4,-138.232 1229.9,-127.935 1225.43,-137.541 1232.4,-138.232"/>
</g>
<!-- 1932 -->
<g id="node32" class="node"><title>1932</title>
<ellipse fill="white" stroke="black" cx="1143.5" cy="-300.395" rx="25" ry="25"/>
<text text-anchor="middle" x="1143.5" y="-298.195" font-family="Times,serif" font-size="9.00">1932</text>
</g>
<!-- enemyRadar[RightFront1.5]&#45;&gt;1932 -->
<g id="edge62" class="edge"><title>enemyRadar[RightFront1.5]&#45;&gt;1932</title>
<path fill="none" stroke="green" stroke-width="0.280864" d="M1190.21,-361.107C1183.88,-353.019 1173.77,-340.093 1164.57,-328.332"/>
<polygon fill="green" stroke="green" stroke-width="0.280864" points="1167.33,-326.17 1158.41,-320.45 1161.81,-330.483 1167.33,-326.17"/>
</g>
<!-- 952 -->
<g id="node34" class="node"><title>952</title>
<ellipse fill="white" stroke="black" cx="1185.5" cy="-214.898" rx="21.4286" ry="21.4286"/>
<text text-anchor="middle" x="1185.5" y="-212.698" font-family="Times,serif" font-size="9.00">952</text>
</g>
<!-- enemyRadar[RightFront1.5]&#45;&gt;952 -->
<g id="edge46" class="edge"><title>enemyRadar[RightFront1.5]&#45;&gt;952</title>
<path fill="none" stroke="green" stroke-width="1.30673" stroke-dasharray="1,5" d="M1195.91,-360.905C1194.39,-339.721 1190.28,-282.506 1187.7,-246.603"/>
<polygon fill="green" stroke="green" stroke-width="1.30673" points="1191.16,-245.932 1186.96,-236.208 1184.18,-246.433 1191.16,-245.932"/>
</g>
<!-- enemyRadar[LeftFront1.5] -->
<g id="node20" class="node"><title>enemyRadar[LeftFront1.5]</title>
<polygon fill="lightgray" stroke="black" points="1146.5,-223.898 1034.5,-223.898 1034.5,-205.898 1146.5,-205.898 1146.5,-223.898"/>
<text text-anchor="middle" x="1090.5" y="-212.698" font-family="Times,serif" font-size="9.00">enemyRadar[LeftFront1.5]</text>
</g>
<!-- enemyRadar[LeftFront1.5]&#45;&gt;Jump/Crouch -->
<g id="edge59" class="edge"><title>enemyRadar[LeftFront1.5]&#45;&gt;Jump/Crouch</title>
<path fill="none" stroke="green" stroke-width="0.238828" stroke-dasharray="1,5" d="M1059.23,-205.808C972.642,-183.407 728.937,-120.358 619.678,-92.0912"/>
<polygon fill="green" stroke="green" stroke-width="0.238828" points="620.405,-88.6641 609.848,-89.5478 618.652,-95.441 620.405,-88.6641"/>
</g>
<!-- enemyRadar[LeftFront1.5]&#45;&gt;Move Forward/Backward -->
<g id="edge41" class="edge"><title>enemyRadar[LeftFront1.5]&#45;&gt;Move Forward/Backward</title>
<path fill="none" stroke="green" stroke-width="0.588273" d="M1082.88,-205.808C1070.73,-192.918 1045.9,-166.567 1021.92,-141.13"/>
<polygon fill="green" stroke="green" stroke-width="0.588273" points="1024.27,-138.515 1014.86,-133.638 1019.17,-143.316 1024.27,-138.515"/>
</g>
<!-- enemyRadar[LeftFront1.5]&#45;&gt;Move Left/Right -->
<g id="edge6" class="edge"><title>enemyRadar[LeftFront1.5]&#45;&gt;Move Left/Right</title>
<path fill="none" stroke="green" stroke-width="0.360617" d="M1108.3,-205.793C1121.13,-200.349 1139.03,-193.566 1155.5,-190.149 1421.85,-134.887 1497.49,-194.533 1766.5,-154.149 1854.95,-140.872 1955.06,-114.362 2017.49,-96.4177"/>
<polygon fill="green" stroke="green" stroke-width="0.360617" points="2018.54,-99.7562 2027.17,-93.6146 2016.6,-93.032 2018.54,-99.7562"/>
</g>
<!-- OnTarget -->
<g id="node21" class="node"><title>OnTarget</title>
<polygon fill="lightgray" stroke="black" points="1100.5,-309.395 1050.5,-309.395 1050.5,-291.395 1100.5,-291.395 1100.5,-309.395"/>
<text text-anchor="middle" x="1075.5" y="-298.195" font-family="Times,serif" font-size="9.00">OnTarget</text>
</g>
<!-- OnTarget&#45;&gt;952 -->
<g id="edge48" class="edge"><title>OnTarget&#45;&gt;952</title>
<path fill="none" stroke="green" stroke-width="0.110963" d="M1086.44,-291.374C1101.92,-279.995 1131.04,-258.457 1155.5,-239.647 1157.34,-238.232 1159.24,-236.761 1161.14,-235.276"/>
<polygon fill="green" stroke="green" stroke-width="0.110963" points="1163.68,-237.733 1169.37,-228.8 1159.35,-232.231 1163.68,-237.733"/>
</g>
<!-- Health -->
<g id="node22" class="node"><title>Health</title>
<polygon fill="lightgray" stroke="black" points="928.5,-223.898 888.5,-223.898 888.5,-205.898 928.5,-205.898 928.5,-223.898"/>
<text text-anchor="middle" x="908.5" y="-212.698" font-family="Times,serif" font-size="9.00">Health</text>
</g>
<!-- Health&#45;&gt;Jump/Crouch -->
<g id="edge10" class="edge"><title>Health&#45;&gt;Jump/Crouch</title>
<path fill="none" stroke="red" stroke-width="1.0539" d="M899.943,-205.555C894.454,-200.558 886.978,-194.376 879.5,-190.149 794.363,-142.023 684.827,-108.603 620.186,-91.4416"/>
<polygon fill="red" stroke="red" stroke-width="1.0539" points="620.768,-87.9761 610.207,-88.8271 618.994,-94.7475 620.768,-87.9761"/>
</g>
<!-- Health&#45;&gt;Move Forward/Backward -->
<g id="edge20" class="edge"><title>Health&#45;&gt;Move Forward/Backward</title>
<path fill="none" stroke="green" stroke-width="0.721844" stroke-dasharray="1,5" d="M911.716,-205.808C915.676,-195.849 922.829,-177.857 930.541,-158.458"/>
<polygon fill="green" stroke="green" stroke-width="0.721844" points="933.795,-159.748 934.237,-149.162 927.29,-157.162 933.795,-159.748"/>
</g>
<!-- Health&#45;&gt;Turn Left/Right -->
<g id="edge15" class="edge"><title>Health&#45;&gt;Turn Left/Right</title>
<path fill="none" stroke="red" stroke-width="0.370275" stroke-dasharray="1,5" d="M917.014,-205.478C922.487,-200.452 929.961,-194.267 937.5,-190.149 983.017,-165.29 999.798,-171.978 1048.5,-154.149 1092.56,-138.02 1141.66,-117.843 1178.34,-102.322"/>
<polygon fill="red" stroke="red" stroke-width="0.370275" points="1180.03,-105.408 1187.87,-98.279 1177.29,-98.9648 1180.03,-105.408"/>
</g>
<!-- TakingDmg -->
<g id="node23" class="node"><title>TakingDmg</title>
<polygon fill="lightgray" stroke="black" points="461,-223.898 402,-223.898 402,-205.898 461,-205.898 461,-223.898"/>
<text text-anchor="middle" x="431.5" y="-212.698" font-family="Times,serif" font-size="9.00">TakingDmg</text>
</g>
<!-- TakingDmg&#45;&gt;Jump/Crouch -->
<g id="edge22" class="edge"><title>TakingDmg&#45;&gt;Jump/Crouch</title>
<path fill="none" stroke="red" stroke-width="0.261571" stroke-dasharray="1,5" d="M439.481,-205.808C456.225,-188.837 495.986,-148.534 526.404,-117.702"/>
<polygon fill="red" stroke="red" stroke-width="0.261571" points="528.992,-120.063 533.523,-110.486 524.009,-115.147 528.992,-120.063"/>
</g>
<!-- TakingDmg&#45;&gt;Move Forward/Backward -->
<g id="edge44" class="edge"><title>TakingDmg&#45;&gt;Move Forward/Backward</title>
<path fill="none" stroke="green" stroke-width="0.444424" d="M442.589,-205.808C450.127,-200.652 460.51,-194.203 470.5,-190.149 480.003,-186.293 739.001,-128.079 877.301,-97.1171"/>
<polygon fill="green" stroke="green" stroke-width="0.444424" points="878.457,-100.445 887.451,-94.8452 876.928,-93.614 878.457,-100.445"/>
</g>
<!-- bias -->
<g id="node24" class="node"><title>bias</title>
<polygon fill="lightgray" stroke="black" points="978,-223.898 947,-223.898 947,-205.898 978,-205.898 978,-223.898"/>
<text text-anchor="middle" x="962.5" y="-212.698" font-family="Times,serif" font-size="9.00">bias</text>
</g>
<!-- bias&#45;&gt;Jump/Crouch -->
<g id="edge12" class="edge"><title>bias&#45;&gt;Jump/Crouch</title>
<path fill="none" stroke="green" stroke-width="0.170338" d="M955.811,-205.831C951.156,-200.685 944.54,-194.238 937.5,-190.149 834.582,-130.375 696.809,-99.7562 621.123,-86.4992"/>
<polygon fill="green" stroke="green" stroke-width="0.170338" points="621.313,-82.9809 610.866,-84.7426 620.132,-89.8804 621.313,-82.9809"/>
</g>
<!-- bias&#45;&gt;Move Forward/Backward -->
<g id="edge29" class="edge"><title>bias&#45;&gt;Move Forward/Backward</title>
<path fill="none" stroke="green" stroke-width="0.426334" stroke-dasharray="1,5" d="M962.5,-205.808C962.5,-196.881 962.5,-181.498 962.5,-164.434"/>
<polygon fill="green" stroke="green" stroke-width="0.426334" points="966,-164.228 962.5,-154.228 959,-164.228 966,-164.228"/>
</g>
<!-- bias&#45;&gt;Turn Left/Right -->
<g id="edge38" class="edge"><title>bias&#45;&gt;Turn Left/Right</title>
<path fill="none" stroke="green" stroke-width="0.206214" stroke-dasharray="1,5" d="M978.3,-206.008C1016.83,-186.771 1117.05,-136.721 1180.12,-105.229"/>
<polygon fill="green" stroke="green" stroke-width="0.206214" points="1181.76,-108.322 1189.14,-100.723 1178.63,-102.06 1181.76,-108.322"/>
</g>
<!-- 1511&#45;&gt;Move Left/Right -->
<g id="edge56" class="edge"><title>1511&#45;&gt;Move Left/Right</title>
<path fill="none" stroke="red" stroke-width="0.343897" d="M2198.43,-196.971C2179.82,-178.524 2149.28,-148.251 2123.68,-122.87"/>
<polygon fill="red" stroke="red" stroke-width="0.343897" points="2125.83,-120.068 2116.26,-115.513 2120.9,-125.039 2125.83,-120.068"/>
</g>
<!-- 1163&#45;&gt;Jump/Crouch -->
<g id="edge52" class="edge"><title>1163&#45;&gt;Jump/Crouch</title>
<path fill="none" stroke="red" stroke-width="0.199515" d="M174.613,-200.312C180.53,-196.687 187.13,-192.993 193.5,-190.149 301.742,-141.838 436.674,-107.041 510.645,-89.9706"/>
<polygon fill="red" stroke="red" stroke-width="0.199515" points="511.7,-93.3198 520.669,-87.68 510.141,-86.4957 511.7,-93.3198"/>
</g>
<!-- 1932&#45;&gt;952 -->
<g id="edge63" class="edge"><title>1932&#45;&gt;952</title>
<path fill="none" stroke="green" stroke-width="1.29604" d="M1154.32,-277.893C1159.63,-267.323 1166.1,-254.468 1171.76,-243.211"/>
<polygon fill="green" stroke="green" stroke-width="1.29604" points="1174.92,-244.722 1176.29,-234.215 1168.67,-241.576 1174.92,-244.722"/>
</g>
<!-- 1616&#45;&gt;Move Left/Right -->
<g id="edge58" class="edge"><title>1616&#45;&gt;Move Left/Right</title>
<path fill="none" stroke="green" stroke-width="0.29919" d="M2338.7,-200.636C2332.89,-197.093 2326.51,-193.36 2320.5,-190.149 2259.3,-157.477 2186.83,-124.656 2137.26,-103.053"/>
<polygon fill="green" stroke="green" stroke-width="0.29919" points="2138.53,-99.7911 2127.96,-99.0188 2135.74,-106.212 2138.53,-99.7911"/>
</g>
<!-- 952&#45;&gt;Move Forward/Backward -->
<g id="edge47" class="edge"><title>952&#45;&gt;Move Forward/Backward</title>
<path fill="none" stroke="red" stroke-width="0.11923" stroke-dasharray="1,5" d="M1169.63,-200.643C1165.16,-197.1 1160.22,-193.365 1155.5,-190.149 1118.45,-164.917 1075.47,-139.6 1039.48,-119.43"/>
<polygon fill="red" stroke="red" stroke-width="0.11923" points="1040.93,-116.23 1030.49,-114.416 1037.52,-122.343 1040.93,-116.23"/>
</g>
<!-- 952&#45;&gt;Turn Left/Right -->
<g id="edge50" class="edge"><title>952&#45;&gt;Turn Left/Right</title>
<path fill="none" stroke="green" stroke-width="0.133474" stroke-dasharray="1,5" d="M1192.42,-194.726C1198.04,-179.126 1206.29,-156.275 1213.99,-134.923"/>
<polygon fill="green" stroke="green" stroke-width="0.133474" points="1217.38,-135.844 1217.48,-125.25 1210.79,-133.469 1217.38,-135.844"/>
</g>
</g>
</svg>
