<?xml version="1.0" encoding="UTF-8" standalone="no"?>
<!DOCTYPE svg PUBLIC "-//W3C//DTD SVG 1.1//EN"
 "http://www.w3.org/Graphics/SVG/1.1/DTD/svg11.dtd">
<!-- Generated by graphviz version 2.38.0 (20140413.2041)
 -->
<!-- Title: %3 Pages: 1 -->
<svg width="2746pt" height="295pt"
 viewBox="0.00 0.00 2746.41 294.58" xmlns="http://www.w3.org/2000/svg" xmlns:xlink="http://www.w3.org/1999/xlink">
<g id="graph0" class="graph" transform="scale(1 1) rotate(0) translate(4 290.576)">
<title>%3</title>
<polygon fill="white" stroke="none" points="-4,4 -4,-290.576 2742.41,-290.576 2742.41,4 -4,4"/>
<!-- wallRadar[1,0] -->
<g id="node1" class="node"><title>wallRadar[1,0]</title>
<polygon fill="lightgray" stroke="black" points="822.406,-220.362 752.406,-220.362 752.406,-202.362 822.406,-202.362 822.406,-220.362"/>
<text text-anchor="middle" x="787.406" y="-209.162" font-family="Times,serif" font-size="9.00">wallRadar[1,0]</text>
</g>
<!-- Shoot -->
<g id="node24" class="node"><title>Shoot</title>
<ellipse fill="lightblue" stroke="black" cx="639.406" cy="-77.0746" rx="26.7407" ry="26.7407"/>
<text text-anchor="middle" x="639.406" y="-74.8746" font-family="Times,serif" font-size="9.00">Shoot</text>
</g>
<!-- wallRadar[1,0]&#45;&gt;Shoot -->
<g id="edge33" class="edge"><title>wallRadar[1,0]&#45;&gt;Shoot</title>
<path fill="none" stroke="red" stroke-width="0.309076" d="M778.148,-202.087C756.237,-182.502 700.511,-132.693 666.726,-102.494"/>
<polygon fill="red" stroke="red" stroke-width="0.309076" points="668.84,-99.6898 659.052,-95.635 664.175,-104.909 668.84,-99.6898"/>
</g>
<!-- Move Forward/Backward -->
<g id="node25" class="node"><title>Move Forward/Backward</title>
<ellipse fill="lightblue" stroke="black" cx="1138.41" cy="-77.0746" rx="77.1494" ry="77.1494"/>
<text text-anchor="middle" x="1138.41" y="-74.8746" font-family="Times,serif" font-size="9.00">Move Forward/Backward</text>
</g>
<!-- wallRadar[1,0]&#45;&gt;Move Forward/Backward -->
<g id="edge54" class="edge"><title>wallRadar[1,0]&#45;&gt;Move Forward/Backward</title>
<path fill="none" stroke="green" stroke-width="0.622916" d="M804.805,-202.2C813.102,-198.397 823.204,-193.895 832.406,-190.149 907.388,-159.623 994.152,-128.206 1056.1,-106.432"/>
<polygon fill="green" stroke="green" stroke-width="0.622916" points="1057.54,-109.634 1065.82,-103.022 1055.23,-103.029 1057.54,-109.634"/>
</g>
<!--  Move Left/Right -->
<g id="node26" class="node"><title> Move Left/Right</title>
<ellipse fill="lightblue" stroke="black" cx="1817.41" cy="-77.0746" rx="55.3091" ry="55.3091"/>
<text text-anchor="middle" x="1817.41" y="-74.8746" font-family="Times,serif" font-size="9.00"> Move Left/Right</text>
</g>
<!-- wallRadar[1,0]&#45;&gt; Move Left/Right -->
<g id="edge9" class="edge"><title>wallRadar[1,0]&#45;&gt; Move Left/Right</title>
<path fill="none" stroke="green" stroke-width="0.107478" d="M801.954,-202.345C810.553,-197.988 821.803,-192.934 832.406,-190.149 1001.62,-145.7 1050.5,-173.283 1224.41,-154.149 1416.81,-132.98 1643.57,-102.284 1752.54,-87.1739"/>
<polygon fill="green" stroke="green" stroke-width="0.107478" points="1753.29,-90.6035 1762.71,-85.7611 1752.32,-83.6701 1753.29,-90.6035"/>
</g>
<!-- wallRadar[0,1] -->
<g id="node2" class="node"><title>wallRadar[0,1]</title>
<polygon fill="lightgray" stroke="black" points="1573.41,-220.362 1503.41,-220.362 1503.41,-202.362 1573.41,-202.362 1573.41,-220.362"/>
<text text-anchor="middle" x="1538.41" y="-209.162" font-family="Times,serif" font-size="9.00">wallRadar[0,1]</text>
</g>
<!-- wallRadar[0,1]&#45;&gt;Shoot -->
<g id="edge36" class="edge"><title>wallRadar[0,1]&#45;&gt;Shoot</title>
<path fill="none" stroke="green" stroke-width="0.420838" d="M1524.21,-202.299C1515.82,-197.927 1504.82,-192.873 1494.41,-190.149 1303.73,-140.251 1247.79,-180.034 1052.41,-154.149 912.218,-135.577 747.378,-101.477 675.716,-86.0404"/>
<polygon fill="green" stroke="green" stroke-width="0.420838" points="676.347,-82.596 665.833,-83.9023 674.867,-89.4377 676.347,-82.596"/>
</g>
<!-- wallRadar[0,1]&#45;&gt;Move Forward/Backward -->
<g id="edge48" class="edge"><title>wallRadar[0,1]&#45;&gt;Move Forward/Backward</title>
<path fill="none" stroke="red" stroke-width="0.191511" d="M1521.9,-202.183C1513.73,-198.289 1503.66,-193.716 1494.41,-190.149 1403.02,-154.935 1295.45,-122.236 1222.67,-101.357"/>
<polygon fill="red" stroke="red" stroke-width="0.191511" points="1223.21,-97.8714 1212.63,-98.4898 1221.28,-104.602 1223.21,-97.8714"/>
</g>
<!-- wallRadar[0,1]&#45;&gt; Move Left/Right -->
<g id="edge38" class="edge"><title>wallRadar[0,1]&#45;&gt; Move Left/Right</title>
<path fill="none" stroke="red" stroke-width="0.455957" d="M1555.44,-202.286C1594.91,-183.573 1694.15,-136.515 1758.53,-105.992"/>
<polygon fill="red" stroke="red" stroke-width="0.455957" points="1760.22,-109.061 1767.76,-101.614 1757.22,-102.736 1760.22,-109.061"/>
</g>
<!-- Turn left/right -->
<g id="node27" class="node"><title>Turn left/right</title>
<ellipse fill="lightblue" stroke="black" cx="1937.41" cy="-77.0746" rx="46.8387" ry="46.8387"/>
<text text-anchor="middle" x="1937.41" y="-74.8746" font-family="Times,serif" font-size="9.00">Turn left/right</text>
</g>
<!-- wallRadar[0,1]&#45;&gt;Turn left/right -->
<g id="edge13" class="edge"><title>wallRadar[0,1]&#45;&gt;Turn left/right</title>
<path fill="none" stroke="green" stroke-width="0.234376" d="M1553.39,-202.255C1561.95,-197.982 1573.01,-193.04 1583.41,-190.149 1711.94,-154.411 1766.18,-221.387 1881.41,-154.149 1892.81,-147.497 1902.57,-137.508 1910.61,-126.938"/>
<polygon fill="green" stroke="green" stroke-width="0.234376" points="1913.46,-128.963 1916.41,-118.787 1907.76,-124.903 1913.46,-128.963"/>
</g>
<!-- wallRadar[&#45;1,0] -->
<g id="node3" class="node"><title>wallRadar[&#45;1,0]</title>
<polygon fill="lightgray" stroke="black" points="2276.91,-220.362 2203.91,-220.362 2203.91,-202.362 2276.91,-202.362 2276.91,-220.362"/>
<text text-anchor="middle" x="2240.41" y="-209.162" font-family="Times,serif" font-size="9.00">wallRadar[&#45;1,0]</text>
</g>
<!-- wallRadar[&#45;1,0]&#45;&gt; Move Left/Right -->
<g id="edge29" class="edge"><title>wallRadar[&#45;1,0]&#45;&gt; Move Left/Right</title>
<path fill="none" stroke="green" stroke-width="0.798766" d="M2223.31,-202.288C2213.58,-198.024 2201.04,-193.082 2189.41,-190.149 2055.76,-156.473 2002.76,-219.482 1881.41,-154.149 1870.96,-148.524 1861.51,-140.434 1853.27,-131.608"/>
<polygon fill="green" stroke="green" stroke-width="0.798766" points="1855.87,-129.264 1846.64,-124.059 1850.61,-133.883 1855.87,-129.264"/>
</g>
<!-- wallRadar[&#45;1,0]&#45;&gt;Turn left/right -->
<g id="edge34" class="edge"><title>wallRadar[&#45;1,0]&#45;&gt;Turn left/right</title>
<path fill="none" stroke="red" stroke-width="0.214818" d="M2221.91,-202.286C2176.5,-182.463 2058.25,-130.833 1989.33,-100.745"/>
<polygon fill="red" stroke="red" stroke-width="0.214818" points="1990.51,-97.442 1979.95,-96.6483 1987.71,-103.857 1990.51,-97.442"/>
</g>
<!-- wallRadar[0,&#45;1] -->
<g id="node4" class="node"><title>wallRadar[0,&#45;1]</title>
<polygon fill="lightgray" stroke="black" points="1174.91,-220.362 1101.91,-220.362 1101.91,-202.362 1174.91,-202.362 1174.91,-220.362"/>
<text text-anchor="middle" x="1138.41" y="-209.162" font-family="Times,serif" font-size="9.00">wallRadar[0,&#45;1]</text>
</g>
<!-- wallRadar[0,&#45;1]&#45;&gt;Move Forward/Backward -->
<g id="edge47" class="edge"><title>wallRadar[0,&#45;1]&#45;&gt;Move Forward/Backward</title>
<path fill="none" stroke="green" stroke-width="0.349268" d="M1138.41,-202.087C1138.41,-193.782 1138.41,-180.04 1138.41,-164.664"/>
<polygon fill="green" stroke="green" stroke-width="0.349268" points="1141.91,-164.364 1138.41,-154.364 1134.91,-164.364 1141.91,-164.364"/>
</g>
<!-- wallRadar[0.7,0.7] -->
<g id="node5" class="node"><title>wallRadar[0.7,0.7]</title>
<polygon fill="lightgray" stroke="black" points="2631.91,-220.362 2548.91,-220.362 2548.91,-202.362 2631.91,-202.362 2631.91,-220.362"/>
<text text-anchor="middle" x="2590.41" y="-209.162" font-family="Times,serif" font-size="9.00">wallRadar[0.7,0.7]</text>
</g>
<!-- wallRadar[0.7,0.7]&#45;&gt;Turn left/right -->
<g id="edge8" class="edge"><title>wallRadar[0.7,0.7]&#45;&gt;Turn left/right</title>
<path fill="none" stroke="green" stroke-width="0.29701" d="M2572.29,-202.192C2562.68,-198.11 2550.57,-193.368 2539.41,-190.149 2342.73,-133.444 2101.37,-98.6391 1993.79,-84.8677"/>
<polygon fill="green" stroke="green" stroke-width="0.29701" points="1994.16,-81.3872 1983.8,-83.6006 1993.28,-88.3315 1994.16,-81.3872"/>
</g>
<!-- wallRadar[&#45;0.7,0.7] -->
<g id="node6" class="node"><title>wallRadar[&#45;0.7,0.7]</title>
<polygon fill="lightgray" stroke="black" points="630.406,-220.362 544.406,-220.362 544.406,-202.362 630.406,-202.362 630.406,-220.362"/>
<text text-anchor="middle" x="587.406" y="-209.162" font-family="Times,serif" font-size="9.00">wallRadar[&#45;0.7,0.7]</text>
</g>
<!-- wallRadar[&#45;0.7,0.7]&#45;&gt;Shoot -->
<g id="edge44" class="edge"><title>wallRadar[&#45;0.7,0.7]&#45;&gt;Shoot</title>
<path fill="none" stroke="green" stroke-width="0.457974" d="M590.659,-202.087C597.621,-184.376 614.299,-141.948 626.205,-111.657"/>
<polygon fill="green" stroke="green" stroke-width="0.457974" points="629.484,-112.883 629.885,-102.296 622.969,-110.323 629.484,-112.883"/>
</g>
<!-- wallRadar[&#45;0.7,0.7]&#45;&gt;Move Forward/Backward -->
<g id="edge40" class="edge"><title>wallRadar[&#45;0.7,0.7]&#45;&gt;Move Forward/Backward</title>
<path fill="none" stroke="green" stroke-width="0.796487" d="M606.427,-202.179C616.167,-198.191 628.288,-193.538 639.406,-190.149 782.077,-146.666 952.366,-111.992 1052.6,-93.2896"/>
<polygon fill="green" stroke="green" stroke-width="0.796487" points="1053.48,-96.6858 1062.67,-91.4195 1052.2,-89.8034 1053.48,-96.6858"/>
</g>
<!-- wallRadar[&#45;0.7,0.7]&#45;&gt; Move Left/Right -->
<g id="edge51" class="edge"><title>wallRadar[&#45;0.7,0.7]&#45;&gt; Move Left/Right</title>
<path fill="none" stroke="green" stroke-width="0.401587" d="M604.324,-202.25C614.296,-197.861 627.296,-192.808 639.406,-190.149 893.839,-134.294 965.077,-178.736 1224.41,-154.149 1417.1,-135.88 1643.73,-103.859 1752.6,-87.8153"/>
<polygon fill="green" stroke="green" stroke-width="0.401587" points="1753.38,-91.2378 1762.77,-86.3136 1752.36,-84.313 1753.38,-91.2378"/>
</g>
<!-- wallRadar[&#45;0.7,&#45;0.7] -->
<g id="node7" class="node"><title>wallRadar[&#45;0.7,&#45;0.7]</title>
<polygon fill="lightgray" stroke="black" points="929.906,-220.362 840.906,-220.362 840.906,-202.362 929.906,-202.362 929.906,-220.362"/>
<text text-anchor="middle" x="885.406" y="-209.162" font-family="Times,serif" font-size="9.00">wallRadar[&#45;0.7,&#45;0.7]</text>
</g>
<!-- wallRadar[&#45;0.7,&#45;0.7]&#45;&gt;Shoot -->
<g id="edge2" class="edge"><title>wallRadar[&#45;0.7,&#45;0.7]&#45;&gt;Shoot</title>
<path fill="none" stroke="red" stroke-width="0.270093" d="M870.388,-202.286C831.32,-181.277 725.819,-124.544 671.976,-95.5895"/>
<polygon fill="red" stroke="red" stroke-width="0.270093" points="673.327,-92.3419 662.862,-90.6883 670.012,-98.5071 673.327,-92.3419"/>
</g>
<!-- wallRadar[&#45;0.7,&#45;0.7]&#45;&gt;Move Forward/Backward -->
<g id="edge39" class="edge"><title>wallRadar[&#45;0.7,&#45;0.7]&#45;&gt;Move Forward/Backward</title>
<path fill="none" stroke="green" stroke-width="0.437345" d="M900.851,-202.286C932.115,-185.939 1004.75,-147.963 1061.53,-118.274"/>
<polygon fill="green" stroke="green" stroke-width="0.437345" points="1063.25,-121.32 1070.49,-113.584 1060.01,-115.116 1063.25,-121.32"/>
</g>
<!-- wallRadar[&#45;0.7,&#45;0.7]&#45;&gt;Turn left/right -->
<g id="edge22" class="edge"><title>wallRadar[&#45;0.7,&#45;0.7]&#45;&gt;Turn left/right</title>
<path fill="none" stroke="green" stroke-width="0.391963" stroke-dasharray="1,5" d="M902.169,-202.353C912.391,-197.881 925.862,-192.708 938.406,-190.149 1041.14,-169.189 1788.75,-203.237 1881.41,-154.149 1893.07,-147.97 1902.93,-138.157 1910.98,-127.605"/>
<polygon fill="green" stroke="green" stroke-width="0.391963" points="1913.84,-129.621 1916.78,-119.441 1908.13,-125.569 1913.84,-129.621"/>
</g>
<!-- wallRadar[0.7,&#45;0.7] -->
<g id="node8" class="node"><title>wallRadar[0.7,&#45;0.7]</title>
<polygon fill="lightgray" stroke="black" points="734.406,-220.362 648.406,-220.362 648.406,-202.362 734.406,-202.362 734.406,-220.362"/>
<text text-anchor="middle" x="691.406" y="-209.162" font-family="Times,serif" font-size="9.00">wallRadar[0.7,&#45;0.7]</text>
</g>
<!-- wallRadar[0.7,&#45;0.7]&#45;&gt;Shoot -->
<g id="edge55" class="edge"><title>wallRadar[0.7,&#45;0.7]&#45;&gt;Shoot</title>
<path fill="none" stroke="green" stroke-width="0.676269" d="M688.153,-202.087C681.191,-184.376 664.513,-141.948 652.607,-111.657"/>
<polygon fill="green" stroke="green" stroke-width="0.676269" points="655.843,-110.323 648.927,-102.296 649.328,-112.883 655.843,-110.323"/>
</g>
<!-- wallRadar[0.7,&#45;0.7]&#45;&gt; Move Left/Right -->
<g id="edge20" class="edge"><title>wallRadar[0.7,&#45;0.7]&#45;&gt; Move Left/Right</title>
<path fill="none" stroke="red" stroke-width="0.567954" d="M708.337,-202.31C718.314,-197.941 731.314,-192.888 743.406,-190.149 952.486,-142.797 1011.13,-175.796 1224.41,-154.149 1416.98,-134.604 1643.66,-103.166 1752.57,-87.5331"/>
<polygon fill="red" stroke="red" stroke-width="0.567954" points="1753.34,-90.9589 1762.74,-86.0706 1752.34,-84.0302 1753.34,-90.9589"/>
</g>
<!-- enemyRadar[RightBack] -->
<g id="node9" class="node"><title>enemyRadar[RightBack]</title>
<polygon fill="lightgray" stroke="black" points="1989.41,-220.362 1885.41,-220.362 1885.41,-202.362 1989.41,-202.362 1989.41,-220.362"/>
<text text-anchor="middle" x="1937.41" y="-209.162" font-family="Times,serif" font-size="9.00">enemyRadar[RightBack]</text>
</g>
<!-- enemyRadar[RightBack]&#45;&gt;Move Forward/Backward -->
<g id="edge25" class="edge"><title>enemyRadar[RightBack]&#45;&gt;Move Forward/Backward</title>
<path fill="none" stroke="red" stroke-width="0.719834" d="M1916.21,-202.355C1904.59,-198.218 1889.86,-193.375 1876.41,-190.149 1644.35,-134.505 1364.29,-100.924 1225.35,-86.4557"/>
<polygon fill="red" stroke="red" stroke-width="0.719834" points="1225.5,-82.952 1215.19,-85.4054 1224.78,-89.915 1225.5,-82.952"/>
</g>
<!-- enemyRadar[RightBack]&#45;&gt; Move Left/Right -->
<g id="edge30" class="edge"><title>enemyRadar[RightBack]&#45;&gt; Move Left/Right</title>
<path fill="none" stroke="red" stroke-width="0.203931" d="M1928.83,-202.196C1917.65,-191.443 1897.59,-171.826 1881.41,-154.149 1873.83,-145.88 1865.98,-136.908 1858.48,-128.123"/>
<polygon fill="red" stroke="red" stroke-width="0.203931" points="1861.13,-125.837 1852,-120.473 1855.79,-130.364 1861.13,-125.837"/>
</g>
<!-- enemyRadar[RightBack]&#45;&gt;Turn left/right -->
<g id="edge6" class="edge"><title>enemyRadar[RightBack]&#45;&gt;Turn left/right</title>
<path fill="none" stroke="green" stroke-width="0.130504" d="M1937.41,-202.087C1937.41,-188.455 1937.41,-160.178 1937.41,-134.065"/>
<polygon fill="green" stroke="green" stroke-width="0.130504" points="1940.91,-133.819 1937.41,-123.819 1933.91,-133.819 1940.91,-133.819"/>
</g>
<!-- enemyRadar[LeftBack] -->
<g id="node10" class="node"><title>enemyRadar[LeftBack]</title>
<polygon fill="lightgray" stroke="black" points="1866.91,-220.362 1767.91,-220.362 1767.91,-202.362 1866.91,-202.362 1866.91,-220.362"/>
<text text-anchor="middle" x="1817.41" y="-209.162" font-family="Times,serif" font-size="9.00">enemyRadar[LeftBack]</text>
</g>
<!-- enemyRadar[LeftBack]&#45;&gt;Move Forward/Backward -->
<g id="edge18" class="edge"><title>enemyRadar[LeftBack]&#45;&gt;Move Forward/Backward</title>
<path fill="none" stroke="green" stroke-width="0.240568" stroke-dasharray="1,5" d="M1779.66,-202.358C1761.72,-198.589 1739.97,-194.071 1720.41,-190.149 1544.37,-154.86 1337.93,-115.611 1224.31,-94.1943"/>
<polygon fill="green" stroke="green" stroke-width="0.240568" points="1224.75,-90.7165 1214.28,-92.3044 1223.46,-97.5955 1224.75,-90.7165"/>
</g>
<!-- enemyRadar[LeftBack]&#45;&gt;Turn left/right -->
<g id="edge50" class="edge"><title>enemyRadar[LeftBack]&#45;&gt;Turn left/right</title>
<path fill="none" stroke="red" stroke-width="0.444448" stroke-dasharray="1,5" d="M1828,-202.232C1841.23,-191.826 1864.21,-172.893 1881.41,-154.149 1889.72,-145.085 1897.97,-134.803 1905.48,-124.794"/>
<polygon fill="red" stroke="red" stroke-width="0.444448" points="1908.49,-126.611 1911.6,-116.483 1902.85,-122.461 1908.49,-126.611"/>
</g>
<!-- enemyRadar[Right45ø] -->
<g id="node11" class="node"><title>enemyRadar[Right45ø]</title>
<polygon fill="lightgray" stroke="black" points="316.406,-220.362 216.406,-220.362 216.406,-202.362 316.406,-202.362 316.406,-220.362"/>
<text text-anchor="middle" x="266.406" y="-209.162" font-family="Times,serif" font-size="9.00">enemyRadar[Right45ø]</text>
</g>
<!-- enemyRadar[Right45ø]&#45;&gt;Shoot -->
<g id="edge31" class="edge"><title>enemyRadar[Right45ø]&#45;&gt;Shoot</title>
<path fill="none" stroke="red" stroke-width="0.615843" d="M289.177,-202.286C352.149,-179.953 528.952,-117.248 604.483,-90.4603"/>
<polygon fill="red" stroke="red" stroke-width="0.615843" points="605.77,-93.7176 614.025,-87.0763 603.43,-87.1203 605.77,-93.7176"/>
</g>
<!-- enemyRadar[Left45ø] -->
<g id="node12" class="node"><title>enemyRadar[Left45ø]</title>
<polygon fill="lightgray" stroke="black" points="2389.91,-220.362 2294.91,-220.362 2294.91,-202.362 2389.91,-202.362 2389.91,-220.362"/>
<text text-anchor="middle" x="2342.41" y="-209.162" font-family="Times,serif" font-size="9.00">enemyRadar[Left45ø]</text>
</g>
<!-- enemyRadar[Left45ø]&#45;&gt; Move Left/Right -->
<g id="edge42" class="edge"><title>enemyRadar[Left45ø]&#45;&gt; Move Left/Right</title>
<path fill="none" stroke="red" stroke-width="0.220799" d="M2323.84,-202.296C2313.11,-197.979 2299.22,-192.982 2286.41,-190.149 2198.18,-170.649 1961.55,-195.875 1881.41,-154.149 1870.88,-148.67 1861.39,-140.646 1853.14,-131.841"/>
<polygon fill="red" stroke="red" stroke-width="0.220799" points="1855.74,-129.497 1846.51,-124.3 1850.49,-134.12 1855.74,-129.497"/>
</g>
<!-- enemyRadar[Left45ø]&#45;&gt;Turn left/right -->
<g id="edge43" class="edge"><title>enemyRadar[Left45ø]&#45;&gt;Turn left/right</title>
<path fill="none" stroke="red" stroke-width="0.280873" d="M2320.66,-202.31C2310.32,-198.531 2297.75,-194.018 2286.41,-190.149 2182.64,-154.772 2060.48,-116.254 1991.68,-94.844"/>
<polygon fill="red" stroke="red" stroke-width="0.280873" points="1992.51,-91.4377 1981.92,-91.8117 1990.43,-98.1223 1992.51,-91.4377"/>
</g>
<!-- enemyRadar[RightFront20ø] -->
<g id="node13" class="node"><title>enemyRadar[RightFront20ø]</title>
<polygon fill="lightgray" stroke="black" points="1710.91,-220.362 1591.91,-220.362 1591.91,-202.362 1710.91,-202.362 1710.91,-220.362"/>
<text text-anchor="middle" x="1651.41" y="-209.162" font-family="Times,serif" font-size="9.00">enemyRadar[RightFront20ø]</text>
</g>
<!-- enemyRadar[RightFront20ø]&#45;&gt;Shoot -->
<g id="edge1" class="edge"><title>enemyRadar[RightFront20ø]&#45;&gt;Shoot</title>
<path fill="none" stroke="red" stroke-width="0.144286" d="M1628.7,-202.359C1615.39,-198.006 1598.14,-192.953 1582.41,-190.149 1349.97,-148.718 1286.66,-183.582 1052.41,-154.149 912.097,-136.52 747.319,-101.934 675.694,-86.2065"/>
<polygon fill="red" stroke="red" stroke-width="0.144286" points="676.336,-82.764 665.817,-84.0271 674.828,-89.5996 676.336,-82.764"/>
</g>
<!-- enemyRadar[RightFront20ø]&#45;&gt;Move Forward/Backward -->
<g id="edge49" class="edge"><title>enemyRadar[RightFront20ø]&#45;&gt;Move Forward/Backward</title>
<path fill="none" stroke="green" stroke-width="0.229366" d="M1624.93,-202.353C1612.12,-198.542 1596.5,-193.99 1582.41,-190.149 1457.83,-156.193 1312.62,-120.213 1223.09,-98.4441"/>
<polygon fill="green" stroke="green" stroke-width="0.229366" points="1223.81,-95.0159 1213.26,-96.0567 1222.15,-101.818 1223.81,-95.0159"/>
</g>
<!-- enemyRadar[RightFront20ø]&#45;&gt; Move Left/Right -->
<g id="edge11" class="edge"><title>enemyRadar[RightFront20ø]&#45;&gt; Move Left/Right</title>
<path fill="none" stroke="red" stroke-width="0.549879" d="M1661.79,-202.087C1682.31,-185.733 1729.28,-148.302 1766.28,-118.814"/>
<polygon fill="red" stroke="red" stroke-width="0.549879" points="1768.85,-121.242 1774.49,-112.272 1764.49,-115.767 1768.85,-121.242"/>
</g>
<!-- enemyRadar[RightFront20ø]&#45;&gt;Turn left/right -->
<g id="edge3" class="edge"><title>enemyRadar[RightFront20ø]&#45;&gt;Turn left/right</title>
<path fill="none" stroke="red" stroke-width="0.190143" d="M1690.52,-202.327C1751.91,-189.488 1865.54,-164.723 1881.41,-154.149 1892.07,-147.043 1901.43,-137.19 1909.31,-126.929"/>
<polygon fill="red" stroke="red" stroke-width="0.190143" points="1912.27,-128.809 1915.3,-118.656 1906.6,-124.704 1912.27,-128.809"/>
</g>
<!-- enemyRadar[LeftFront20ø] -->
<g id="node14" class="node"><title>enemyRadar[LeftFront20ø]</title>
<polygon fill="lightgray" stroke="black" points="2183.41,-286.576 2069.41,-286.576 2069.41,-268.576 2183.41,-268.576 2183.41,-286.576"/>
<text text-anchor="middle" x="2126.41" y="-275.376" font-family="Times,serif" font-size="9.00">enemyRadar[LeftFront20ø]</text>
</g>
<!-- enemyRadar[LeftFront20ø]&#45;&gt;Shoot -->
<g id="edge24" class="edge"><title>enemyRadar[LeftFront20ø]&#45;&gt;Shoot</title>
<path fill="none" stroke="green" stroke-width="0.587683" d="M2069.06,-269.813C2063.78,-269.334 2058.49,-268.909 2053.41,-268.576 2007.6,-265.573 433.506,-265.383 401.406,-232.576 331.693,-161.327 520.875,-106.185 603.238,-86.2009"/>
<polygon fill="green" stroke="green" stroke-width="0.587683" points="604.273,-89.5522 613.191,-83.8311 602.652,-82.7426 604.273,-89.5522"/>
</g>
<!-- enemyRadar[LeftFront20ø]&#45;&gt;Move Forward/Backward -->
<g id="edge26" class="edge"><title>enemyRadar[LeftFront20ø]&#45;&gt;Move Forward/Backward</title>
<path fill="none" stroke="green" stroke-width="0.614553" stroke-dasharray="1,5" d="M2069.05,-269.978C2063.77,-269.464 2058.49,-268.986 2053.41,-268.576 1976.77,-262.386 1431.76,-265.754 1362.41,-232.576 1339.57,-221.651 1343.91,-206.289 1324.41,-190.149 1291.35,-162.789 1250.91,-137.602 1216.2,-118.064"/>
<polygon fill="green" stroke="green" stroke-width="0.614553" points="1217.48,-114.771 1207.04,-112.965 1214.07,-120.887 1217.48,-114.771"/>
</g>
<!-- enemyRadar[LeftFront20ø]&#45;&gt; Move Left/Right -->
<g id="edge10" class="edge"><title>enemyRadar[LeftFront20ø]&#45;&gt; Move Left/Right</title>
<path fill="none" stroke="red" stroke-width="0.407422" d="M2133.96,-268.414C2148.45,-251.778 2176.94,-213.547 2156.41,-190.149 2115.75,-143.826 1935.47,-183.74 1881.41,-154.149 1871,-148.452 1861.56,-140.329 1853.33,-131.493"/>
<polygon fill="red" stroke="red" stroke-width="0.407422" points="1855.93,-129.148 1846.7,-123.94 1850.67,-133.765 1855.93,-129.148"/>
</g>
<!-- enemyRadar[LeftFront20ø]&#45;&gt;Turn left/right -->
<g id="edge19" class="edge"><title>enemyRadar[LeftFront20ø]&#45;&gt;Turn left/right</title>
<path fill="none" stroke="green" stroke-width="0.157698" d="M2183.76,-275.947C2311.57,-273.952 2610.95,-265.749 2641.41,-232.576 2654.16,-218.686 2653.65,-204.492 2641.41,-190.149 2557.96,-92.3714 2146.41,-79.4814 1994.16,-78.0968"/>
<polygon fill="green" stroke="green" stroke-width="0.157698" points="1994.11,-74.5964 1984.08,-78.0187 1994.06,-81.5962 1994.11,-74.5964"/>
</g>
<!-- 417 -->
<g id="node29" class="node"><title>417</title>
<ellipse fill="white" stroke="black" cx="2126.41" cy="-211.362" rx="21.4286" ry="21.4286"/>
<text text-anchor="middle" x="2126.41" y="-209.162" font-family="Times,serif" font-size="9.00">417</text>
</g>
<!-- enemyRadar[LeftFront20ø]&#45;&gt;417 -->
<g id="edge60" class="edge"><title>enemyRadar[LeftFront20ø]&#45;&gt;417</title>
<path fill="none" stroke="green" stroke-width="0.5103" d="M2126.41,-268.443C2126.41,-261.9 2126.41,-252.271 2126.41,-242.832"/>
<polygon fill="green" stroke="green" stroke-width="0.5103" points="2129.91,-242.818 2126.41,-232.818 2122.91,-242.818 2129.91,-242.818"/>
</g>
<!-- enemyRadar[RightFront15ø] -->
<g id="node15" class="node"><title>enemyRadar[RightFront15ø]</title>
<polygon fill="lightgray" stroke="black" points="137.906,-220.362 18.9059,-220.362 18.9059,-202.362 137.906,-202.362 137.906,-220.362"/>
<text text-anchor="middle" x="78.4059" y="-209.162" font-family="Times,serif" font-size="9.00">enemyRadar[RightFront15ø]</text>
</g>
<!-- enemyRadar[RightFront15ø]&#45;&gt;Shoot -->
<g id="edge23" class="edge"><title>enemyRadar[RightFront15ø]&#45;&gt;Shoot</title>
<path fill="none" stroke="green" stroke-width="0.180502" d="M104.514,-202.306C117.377,-198.441 133.151,-193.857 147.406,-190.149 316.584,-146.144 520.944,-102.648 602.856,-85.6027"/>
<polygon fill="green" stroke="green" stroke-width="0.180502" points="604.054,-88.9287 613.134,-83.4692 602.631,-82.0748 604.054,-88.9287"/>
</g>
<!-- enemyRadar[LeftFront15ø] -->
<g id="node16" class="node"><title>enemyRadar[LeftFront15ø]</title>
<polygon fill="lightgray" stroke="black" points="1485.41,-220.362 1371.41,-220.362 1371.41,-202.362 1485.41,-202.362 1485.41,-220.362"/>
<text text-anchor="middle" x="1428.41" y="-209.162" font-family="Times,serif" font-size="9.00">enemyRadar[LeftFront15ø]</text>
</g>
<!-- enemyRadar[LeftFront15ø]&#45;&gt;Shoot -->
<g id="edge37" class="edge"><title>enemyRadar[LeftFront15ø]&#45;&gt;Shoot</title>
<path fill="none" stroke="red" stroke-width="0.399092" d="M1389.98,-202.32C1370.4,-198.368 1346.19,-193.704 1324.41,-190.149 1204.06,-170.508 1172.85,-173.201 1052.41,-154.149 912.73,-132.056 747.626,-99.7707 675.806,-85.42"/>
<polygon fill="red" stroke="red" stroke-width="0.399092" points="676.393,-81.9682 665.901,-83.4362 675.019,-88.8319 676.393,-81.9682"/>
</g>
<!-- enemyRadar[LeftFront15ø]&#45;&gt;Move Forward/Backward -->
<g id="edge5" class="edge"><title>enemyRadar[LeftFront15ø]&#45;&gt;Move Forward/Backward</title>
<path fill="none" stroke="red" stroke-width="0.335032" stroke-dasharray="1,5" d="M1410.7,-202.286C1373.18,-185.169 1283.66,-144.334 1217.45,-114.133"/>
<polygon fill="red" stroke="red" stroke-width="0.335032" points="1218.82,-110.912 1208.27,-109.946 1215.92,-117.281 1218.82,-110.912"/>
</g>
<!-- enemyRadar[LeftFront15ø]&#45;&gt; Move Left/Right -->
<g id="edge16" class="edge"><title>enemyRadar[LeftFront15ø]&#45;&gt; Move Left/Right</title>
<path fill="none" stroke="red" stroke-width="0.152942" d="M1452.15,-202.286C1511.54,-182.091 1667.99,-128.886 1755.65,-99.0761"/>
<polygon fill="red" stroke="red" stroke-width="0.152942" points="1756.87,-102.359 1765.21,-95.8252 1754.62,-95.7312 1756.87,-102.359"/>
</g>
<!-- enemyRadar[LeftFront15ø]&#45;&gt;Turn left/right -->
<g id="edge17" class="edge"><title>enemyRadar[LeftFront15ø]&#45;&gt;Turn left/right</title>
<path fill="none" stroke="red" stroke-width="0.558633" d="M1450.72,-202.282C1463.37,-198.017 1479.59,-193.075 1494.41,-190.149 1579.14,-173.416 1806.22,-196.652 1881.41,-154.149 1892.9,-147.654 1902.7,-137.723 1910.73,-127.16"/>
<polygon fill="red" stroke="red" stroke-width="0.558633" points="1913.59,-129.182 1916.54,-119.004 1907.89,-125.124 1913.59,-129.182"/>
</g>
<!-- enemyRadar[RightFront7.5ø] -->
<g id="node17" class="node"><title>enemyRadar[RightFront7.5ø]</title>
<polygon fill="lightgray" stroke="black" points="1315.41,-220.362 1193.41,-220.362 1193.41,-202.362 1315.41,-202.362 1315.41,-220.362"/>
<text text-anchor="middle" x="1254.41" y="-209.162" font-family="Times,serif" font-size="9.00">enemyRadar[RightFront7.5ø]</text>
</g>
<!-- enemyRadar[RightFront7.5ø]&#45;&gt;Shoot -->
<g id="edge41" class="edge"><title>enemyRadar[RightFront7.5ø]&#45;&gt;Shoot</title>
<path fill="none" stroke="red" stroke-width="0.591575" d="M1228.28,-202.291C1215.17,-198.377 1199.02,-193.756 1184.41,-190.149 994.477,-143.275 763.979,-100.426 675.959,-84.5679"/>
<polygon fill="red" stroke="red" stroke-width="0.591575" points="676.405,-81.0921 665.944,-82.7694 675.167,-87.9819 676.405,-81.0921"/>
</g>
<!-- enemyRadar[RightFront7.5ø]&#45;&gt;Turn left/right -->
<g id="edge35" class="edge"><title>enemyRadar[RightFront7.5ø]&#45;&gt;Turn left/right</title>
<path fill="none" stroke="red" stroke-width="0.327067" d="M1291.72,-202.276C1312.45,-198.063 1338.75,-193.173 1362.41,-190.149 1477.08,-175.491 1780.1,-209.854 1881.41,-154.149 1892.97,-147.789 1902.8,-137.909 1910.84,-127.351"/>
<polygon fill="red" stroke="red" stroke-width="0.327067" points="1913.7,-129.37 1916.64,-119.191 1907.99,-125.315 1913.7,-129.37"/>
</g>
<!-- enemyRadar[LeftFront7.5ø] -->
<g id="node18" class="node"><title>enemyRadar[LeftFront7.5ø]</title>
<polygon fill="lightgray" stroke="black" points="683.406,-286.576 567.406,-286.576 567.406,-268.576 683.406,-268.576 683.406,-286.576"/>
<text text-anchor="middle" x="625.406" y="-275.376" font-family="Times,serif" font-size="9.00">enemyRadar[LeftFront7.5ø]</text>
</g>
<!-- enemyRadar[LeftFront7.5ø]&#45;&gt;Shoot -->
<g id="edge53" class="edge"><title>enemyRadar[LeftFront7.5ø]&#45;&gt;Shoot</title>
<path fill="none" stroke="red" stroke-width="0.715999" stroke-dasharray="1,5" d="M567.333,-276.821C421.155,-276.833 46.9421,-272.889 9.40592,-232.576 -3.44366,-218.776 -2.70361,-204.603 9.40592,-190.149 86.1816,-98.51 479.164,-81.7411 602.396,-78.7242"/>
<polygon fill="red" stroke="red" stroke-width="0.715999" points="602.552,-82.2216 612.469,-78.4939 602.392,-75.2235 602.552,-82.2216"/>
</g>
<!-- enemyRadar[LeftFront7.5ø]&#45;&gt;Move Forward/Backward -->
<g id="edge27" class="edge"><title>enemyRadar[LeftFront7.5ø]&#45;&gt;Move Forward/Backward</title>
<path fill="none" stroke="green" stroke-width="0.501791" d="M683.63,-277.171C786.476,-277.168 995.05,-272.104 1054.41,-232.576 1069.16,-222.753 1087.8,-190.069 1103.78,-157.277"/>
<polygon fill="green" stroke="green" stroke-width="0.501791" points="1107.04,-158.574 1108.21,-148.044 1100.72,-155.547 1107.04,-158.574"/>
</g>
<!-- enemyRadar[LeftFront7.5ø]&#45;&gt; Move Left/Right -->
<g id="edge7" class="edge"><title>enemyRadar[LeftFront7.5ø]&#45;&gt; Move Left/Right</title>
<path fill="none" stroke="green" stroke-width="0.266951" d="M683.458,-275.738C903.392,-272.371 1675.26,-258.732 1720.41,-232.576 1739.81,-221.33 1767.44,-175.23 1788.25,-136.288"/>
<polygon fill="green" stroke="green" stroke-width="0.266951" points="1791.54,-137.558 1793.12,-127.082 1785.35,-134.288 1791.54,-137.558"/>
</g>
<!-- 176 -->
<g id="node30" class="node"><title>176</title>
<ellipse fill="white" stroke="black" cx="177.406" cy="-211.362" rx="21.4286" ry="21.4286"/>
<text text-anchor="middle" x="177.406" y="-209.162" font-family="Times,serif" font-size="9.00">176</text>
</g>
<!-- enemyRadar[LeftFront7.5ø]&#45;&gt;176 -->
<g id="edge58" class="edge"><title>enemyRadar[LeftFront7.5ø]&#45;&gt;176</title>
<path fill="none" stroke="green" stroke-width="0.154861" d="M567.029,-273.915C468.12,-268.83 272.037,-256.087 207.406,-232.576 205.783,-231.985 204.162,-231.288 202.563,-230.515"/>
<polygon fill="green" stroke="green" stroke-width="0.154861" points="204.167,-227.4 193.753,-225.452 200.679,-233.469 204.167,-227.4"/>
</g>
<!-- enemyRadar[RightFront2.5ø] -->
<g id="node19" class="node"><title>enemyRadar[RightFront2.5ø]</title>
<polygon fill="lightgray" stroke="black" points="2530.41,-220.362 2408.41,-220.362 2408.41,-202.362 2530.41,-202.362 2530.41,-220.362"/>
<text text-anchor="middle" x="2469.41" y="-209.162" font-family="Times,serif" font-size="9.00">enemyRadar[RightFront2.5ø]</text>
</g>
<!-- enemyRadar[RightFront2.5ø]&#45;&gt; Move Left/Right -->
<g id="edge15" class="edge"><title>enemyRadar[RightFront2.5ø]&#45;&gt; Move Left/Right</title>
<path fill="none" stroke="green" stroke-width="0.674523" d="M2446.05,-202.271C2432.58,-197.947 2415.22,-192.95 2399.41,-190.149 2285.78,-170.031 1984.26,-206.447 1881.41,-154.149 1870.83,-148.771 1861.32,-140.795 1853.06,-132.004"/>
<polygon fill="green" stroke="green" stroke-width="0.674523" points="1855.66,-129.661 1846.43,-124.468 1850.41,-134.286 1855.66,-129.661"/>
</g>
<!-- enemyRadar[RightFront2.5ø]&#45;&gt;Turn left/right -->
<g id="edge32" class="edge"><title>enemyRadar[RightFront2.5ø]&#45;&gt;Turn left/right</title>
<path fill="none" stroke="green" stroke-width="0.38594" d="M2442.56,-202.316C2429.56,-198.496 2413.71,-193.948 2399.41,-190.149 2253.23,-151.334 2079.61,-110.663 1992.72,-90.6808"/>
<polygon fill="green" stroke="green" stroke-width="0.38594" points="1993.35,-87.2332 1982.82,-88.406 1991.78,-94.0556 1993.35,-87.2332"/>
</g>
<!-- enemyRadar[LeftFront2.5ø] -->
<g id="node20" class="node"><title>enemyRadar[LeftFront2.5ø]</title>
<polygon fill="lightgray" stroke="black" points="526.406,-220.362 410.406,-220.362 410.406,-202.362 526.406,-202.362 526.406,-220.362"/>
<text text-anchor="middle" x="468.406" y="-209.162" font-family="Times,serif" font-size="9.00">enemyRadar[LeftFront2.5ø]</text>
</g>
<!-- enemyRadar[LeftFront2.5ø]&#45;&gt;Shoot -->
<g id="edge12" class="edge"><title>enemyRadar[LeftFront2.5ø]&#45;&gt;Shoot</title>
<path fill="none" stroke="green" stroke-width="0.293317" d="M478.845,-202.286C504.463,-182.468 571.171,-130.862 610.069,-100.77"/>
<polygon fill="green" stroke="green" stroke-width="0.293317" points="612.619,-103.222 618.387,-94.3351 608.336,-97.6857 612.619,-103.222"/>
</g>
<!-- enemyRadar[LeftFront2.5ø]&#45;&gt;Move Forward/Backward -->
<g id="edge28" class="edge"><title>enemyRadar[LeftFront2.5ø]&#45;&gt;Move Forward/Backward</title>
<path fill="none" stroke="red" stroke-width="0.109039" stroke-dasharray="1,5" d="M492.733,-202.324C505.371,-198.326 521.12,-193.621 535.406,-190.149 717.633,-145.867 934.522,-109.47 1052.14,-91.0671"/>
<polygon fill="red" stroke="red" stroke-width="0.109039" points="1052.82,-94.5026 1062.16,-89.5041 1051.74,-87.5861 1052.82,-94.5026"/>
</g>
<!-- enemyRadar[Front7Ø] -->
<g id="node21" class="node"><title>enemyRadar[Front7Ø]</title>
<polygon fill="lightgray" stroke="black" points="1045.41,-220.362 947.406,-220.362 947.406,-202.362 1045.41,-202.362 1045.41,-220.362"/>
<text text-anchor="middle" x="996.406" y="-209.162" font-family="Times,serif" font-size="9.00">enemyRadar[Front7Ø]</text>
</g>
<!-- enemyRadar[Front7Ø]&#45;&gt;Shoot -->
<g id="edge14" class="edge"><title>enemyRadar[Front7Ø]&#45;&gt;Shoot</title>
<path fill="none" stroke="green" stroke-width="0.203597" d="M974.611,-202.286C914.753,-180.106 747.431,-118.104 674.327,-91.0149"/>
<polygon fill="green" stroke="green" stroke-width="0.203597" points="675.251,-87.6248 664.658,-87.432 672.819,-94.1887 675.251,-87.6248"/>
</g>
<!-- enemyRadar[Front7Ø]&#45;&gt;Move Forward/Backward -->
<g id="edge46" class="edge"><title>enemyRadar[Front7Ø]&#45;&gt;Move Forward/Backward</title>
<path fill="none" stroke="red" stroke-width="0.264248" d="M1005.29,-202.087C1019.33,-189.006 1047.84,-162.442 1074.89,-137.243"/>
<polygon fill="red" stroke="red" stroke-width="0.264248" points="1077.54,-139.562 1082.47,-130.185 1072.77,-134.44 1077.54,-139.562"/>
</g>
<!-- enemyRadar[Front7Ø]&#45;&gt;Turn left/right -->
<g id="edge21" class="edge"><title>enemyRadar[Front7Ø]&#45;&gt;Turn left/right</title>
<path fill="none" stroke="green" stroke-width="0.132782" d="M1028.52,-202.324C1047.31,-197.96 1071.56,-192.906 1093.41,-190.149 1180.36,-179.174 1804.11,-195.471 1881.41,-154.149 1893.05,-147.926 1902.9,-138.097 1910.95,-127.544"/>
<polygon fill="green" stroke="green" stroke-width="0.132782" points="1913.81,-129.56 1916.74,-119.38 1908.1,-125.507 1913.81,-129.56"/>
</g>
<!-- OnTarget -->
<g id="node22" class="node"><title>OnTarget</title>
<polygon fill="lightgray" stroke="black" points="2738.41,-220.362 2688.41,-220.362 2688.41,-202.362 2738.41,-202.362 2738.41,-220.362"/>
<text text-anchor="middle" x="2713.41" y="-209.162" font-family="Times,serif" font-size="9.00">OnTarget</text>
</g>
<!-- OnTarget&#45;&gt;Turn left/right -->
<g id="edge4" class="edge"><title>OnTarget&#45;&gt;Turn left/right</title>
<path fill="none" stroke="red" stroke-width="0.5886" d="M2700.52,-202.319C2693.13,-198.065 2683.54,-193.122 2674.41,-190.149 2429.6,-110.505 2120.29,-86.9654 1994.5,-80.4273"/>
<polygon fill="red" stroke="red" stroke-width="0.5886" points="1994.49,-76.9227 1984.33,-79.9153 1994.14,-83.9138 1994.49,-76.9227"/>
</g>
<!-- bias -->
<g id="node23" class="node"><title>bias</title>
<polygon fill="lightgray" stroke="black" points="2043.91,-286.576 2012.91,-286.576 2012.91,-268.576 2043.91,-268.576 2043.91,-286.576"/>
<text text-anchor="middle" x="2028.41" y="-275.376" font-family="Times,serif" font-size="9.00">bias</text>
</g>
<!-- bias&#45;&gt;Shoot -->
<g id="edge45" class="edge"><title>bias&#45;&gt;Shoot</title>
<path fill="none" stroke="red" stroke-width="0.704287" d="M2012.81,-276.464C1846.12,-275.24 398.734,-263.718 368.406,-232.576 290.73,-152.813 512.566,-101.522 602.967,-84.4119"/>
<polygon fill="red" stroke="red" stroke-width="0.704287" points="603.615,-87.8515 612.809,-82.5863 602.338,-80.969 603.615,-87.8515"/>
</g>
<!-- bias&#45;&gt; Move Left/Right -->
<g id="edge52" class="edge"><title>bias&#45;&gt; Move Left/Right</title>
<path fill="none" stroke="red" stroke-width="0.309404" d="M2035.82,-268.531C2050.05,-252.111 2078.1,-214.256 2058.41,-190.149 2007.61,-127.985 1950.42,-195.148 1881.41,-154.149 1871.42,-148.218 1862.26,-140.149 1854.19,-131.475"/>
<polygon fill="red" stroke="red" stroke-width="0.309404" points="1856.61,-128.93 1847.38,-123.736 1851.36,-133.555 1856.61,-128.93"/>
</g>
<!-- 129 -->
<g id="node28" class="node"><title>129</title>
<ellipse fill="white" stroke="black" cx="2028.41" cy="-211.362" rx="21.4286" ry="21.4286"/>
<text text-anchor="middle" x="2028.41" y="-209.162" font-family="Times,serif" font-size="9.00">129</text>
</g>
<!-- bias&#45;&gt;129 -->
<g id="edge56" class="edge"><title>bias&#45;&gt;129</title>
<path fill="none" stroke="green" stroke-width="0.361916" d="M2028.41,-268.443C2028.41,-261.9 2028.41,-252.271 2028.41,-242.832"/>
<polygon fill="green" stroke="green" stroke-width="0.361916" points="2031.91,-242.818 2028.41,-232.818 2024.91,-242.818 2031.91,-242.818"/>
</g>
<!-- 129&#45;&gt; Move Left/Right -->
<g id="edge57" class="edge"><title>129&#45;&gt; Move Left/Right</title>
<path fill="none" stroke="green" stroke-width="0.318309" d="M2011.79,-197.909C2007.57,-195.101 2002.94,-192.315 1998.41,-190.149 1949.32,-166.695 1926.77,-184.19 1881.41,-154.149 1871.83,-147.81 1862.92,-139.63 1854.96,-130.992"/>
<polygon fill="green" stroke="green" stroke-width="0.318309" points="1857.45,-128.523 1848.22,-123.319 1852.19,-133.142 1857.45,-128.523"/>
</g>
<!-- 417&#45;&gt; Move Left/Right -->
<g id="edge61" class="edge"><title>417&#45;&gt; Move Left/Right</title>
<path fill="none" stroke="green" stroke-width="0.182734" d="M2109.19,-198.806C2103.71,-195.571 2097.48,-192.343 2091.41,-190.149 2002.35,-157.968 1963.56,-201.249 1881.41,-154.149 1871.33,-148.373 1862.13,-140.377 1854.04,-131.728"/>
<polygon fill="green" stroke="green" stroke-width="0.182734" points="1856.46,-129.183 1847.22,-123.998 1851.21,-133.813 1856.46,-129.183"/>
</g>
<!-- 176&#45;&gt;Shoot -->
<g id="edge59" class="edge"><title>176&#45;&gt;Shoot</title>
<path fill="none" stroke="red" stroke-width="0.295743" d="M193.953,-197.764C198.178,-194.961 202.825,-192.213 207.406,-190.149 346.222,-127.596 526.469,-95.0385 602.748,-83.2848"/>
<polygon fill="red" stroke="red" stroke-width="0.295743" points="603.442,-86.7197 612.806,-81.7634 602.395,-79.7984 603.442,-86.7197"/>
</g>
</g>
</svg>
