<?xml version="1.0" encoding="UTF-8" standalone="no"?>
<!DOCTYPE svg PUBLIC "-//W3C//DTD SVG 1.1//EN"
 "http://www.w3.org/Graphics/SVG/1.1/DTD/svg11.dtd">
<!-- Generated by graphviz version 2.38.0 (20140413.2041)
 -->
<!-- Title: %3 Pages: 1 -->
<svg width="2560pt" height="216pt"
 viewBox="0.00 0.00 2560.00 216.15" xmlns="http://www.w3.org/2000/svg" xmlns:xlink="http://www.w3.org/1999/xlink">
<g id="graph0" class="graph" transform="scale(1 1) rotate(0) translate(4 212.149)">
<title>%3</title>
<polygon fill="white" stroke="none" points="-4,4 -4,-212.149 2556,-212.149 2556,4 -4,4"/>
<!-- wallRadar[1,0] -->
<g id="node1" class="node"><title>wallRadar[1,0]</title>
<polygon fill="lightgray" stroke="black" points="384,-208.149 314,-208.149 314,-190.149 384,-190.149 384,-208.149"/>
<text text-anchor="middle" x="349" y="-196.949" font-family="Times,serif" font-size="9.00">wallRadar[1,0]</text>
</g>
<!-- Move Forward/Backward -->
<g id="node25" class="node"><title>Move Forward/Backward</title>
<ellipse fill="lightblue" stroke="black" cx="1083" cy="-77.0746" rx="77.1494" ry="77.1494"/>
<text text-anchor="middle" x="1083" y="-74.8746" font-family="Times,serif" font-size="9.00">Move Forward/Backward</text>
</g>
<!-- wallRadar[1,0]&#45;&gt;Move Forward/Backward -->
<g id="edge55" class="edge"><title>wallRadar[1,0]&#45;&gt;Move Forward/Backward</title>
<path fill="none" stroke="green" stroke-width="0.238512" d="M384.054,-191.714C387.078,-191.178 390.092,-190.65 393,-190.149 610.105,-152.784 866.241,-112.059 996.902,-91.5256"/>
<polygon fill="green" stroke="green" stroke-width="0.238512" points="997.52,-94.9716 1006.86,-89.9623 996.434,-88.0564 997.52,-94.9716"/>
</g>
<!-- wallRadar[0,1] -->
<g id="node2" class="node"><title>wallRadar[0,1]</title>
<polygon fill="lightgray" stroke="black" points="70,-208.149 0,-208.149 0,-190.149 70,-190.149 70,-208.149"/>
<text text-anchor="middle" x="35" y="-196.949" font-family="Times,serif" font-size="9.00">wallRadar[0,1]</text>
</g>
<!-- wallRadar[0,1]&#45;&gt;Move Forward/Backward -->
<g id="edge3" class="edge"><title>wallRadar[0,1]&#45;&gt;Move Forward/Backward</title>
<path fill="none" stroke="green" stroke-width="0.404041" d="M70.0287,-191.556C73.0588,-191.054 76.0808,-190.577 79,-190.149 416.951,-140.624 821.744,-101.591 996.109,-85.7473"/>
<polygon fill="green" stroke="green" stroke-width="0.404041" points="996.609,-89.2164 1006.25,-84.8281 995.977,-82.2449 996.609,-89.2164"/>
</g>
<!-- wallRadar[&#45;1,0] -->
<g id="node3" class="node"><title>wallRadar[&#45;1,0]</title>
<polygon fill="lightgray" stroke="black" points="2483.5,-208.149 2410.5,-208.149 2410.5,-190.149 2483.5,-190.149 2483.5,-208.149"/>
<text text-anchor="middle" x="2447" y="-196.949" font-family="Times,serif" font-size="9.00">wallRadar[&#45;1,0]</text>
</g>
<!--  Move Left/Right -->
<g id="node26" class="node"><title> Move Left/Right</title>
<ellipse fill="lightblue" stroke="black" cx="2025" cy="-77.0746" rx="55.3091" ry="55.3091"/>
<text text-anchor="middle" x="2025" y="-74.8746" font-family="Times,serif" font-size="9.00"> Move Left/Right</text>
</g>
<!-- wallRadar[&#45;1,0]&#45;&gt; Move Left/Right -->
<g id="edge13" class="edge"><title>wallRadar[&#45;1,0]&#45;&gt; Move Left/Right</title>
<path fill="none" stroke="red" stroke-width="0.235937" d="M2418.66,-190.084C2351.35,-170.932 2180.59,-122.345 2087.63,-95.8938"/>
<polygon fill="red" stroke="red" stroke-width="0.235937" points="2088.36,-92.4635 2077.78,-93.0931 2086.44,-99.1963 2088.36,-92.4635"/>
</g>
<!-- Turn left/right -->
<g id="node27" class="node"><title>Turn left/right</title>
<ellipse fill="lightblue" stroke="black" cx="1674" cy="-77.0746" rx="46.8387" ry="46.8387"/>
<text text-anchor="middle" x="1674" y="-74.8746" font-family="Times,serif" font-size="9.00">Turn left/right</text>
</g>
<!-- wallRadar[&#45;1,0]&#45;&gt;Turn left/right -->
<g id="edge6" class="edge"><title>wallRadar[&#45;1,0]&#45;&gt;Turn left/right</title>
<path fill="none" stroke="red" stroke-width="0.486975" d="M2410.39,-191.474C2407.22,-190.99 2404.06,-190.539 2401,-190.149 2206.37,-165.314 2154.37,-187.417 1961,-154.149 1878.4,-139.939 1784.95,-113.092 1727.75,-95.3918"/>
<polygon fill="red" stroke="red" stroke-width="0.486975" points="1728.79,-92.0483 1718.2,-92.416 1726.71,-98.7316 1728.79,-92.0483"/>
</g>
<!-- wallRadar[0,&#45;1] -->
<g id="node4" class="node"><title>wallRadar[0,&#45;1]</title>
<polygon fill="lightgray" stroke="black" points="161.5,-208.149 88.5,-208.149 88.5,-190.149 161.5,-190.149 161.5,-208.149"/>
<text text-anchor="middle" x="125" y="-196.949" font-family="Times,serif" font-size="9.00">wallRadar[0,&#45;1]</text>
</g>
<!-- wallRadar[0,&#45;1]&#45;&gt;Move Forward/Backward -->
<g id="edge11" class="edge"><title>wallRadar[0,&#45;1]&#45;&gt;Move Forward/Backward</title>
<path fill="none" stroke="green" stroke-width="0.37611" d="M161.632,-191.609C164.797,-191.095 167.953,-190.601 171,-190.149 473.061,-145.352 833.311,-104.885 995.841,-87.3198"/>
<polygon fill="green" stroke="green" stroke-width="0.37611" points="996.691,-90.7485 1006.26,-86.1962 995.94,-83.7889 996.691,-90.7485"/>
</g>
<!-- wallRadar[0.7,0.7] -->
<g id="node5" class="node"><title>wallRadar[0.7,0.7]</title>
<polygon fill="lightgray" stroke="black" points="2251.5,-208.149 2168.5,-208.149 2168.5,-190.149 2251.5,-190.149 2251.5,-208.149"/>
<text text-anchor="middle" x="2210" y="-196.949" font-family="Times,serif" font-size="9.00">wallRadar[0.7,0.7]</text>
</g>
<!-- Shoot -->
<g id="node24" class="node"><title>Shoot</title>
<ellipse fill="lightblue" stroke="black" cx="1446" cy="-77.0746" rx="26.7407" ry="26.7407"/>
<text text-anchor="middle" x="1446" y="-74.8746" font-family="Times,serif" font-size="9.00">Shoot</text>
</g>
<!-- wallRadar[0.7,0.7]&#45;&gt;Shoot -->
<g id="edge1" class="edge"><title>wallRadar[0.7,0.7]&#45;&gt;Shoot</title>
<path fill="none" stroke="green" stroke-width="0.33518" d="M2168.29,-191.297C2165.15,-190.876 2162.03,-190.487 2159,-190.149 1919.51,-163.451 1851.99,-211.766 1618,-154.149 1566.71,-141.519 1511.55,-114.468 1477.9,-96.2685"/>
<polygon fill="green" stroke="green" stroke-width="0.33518" points="1479.45,-93.1277 1469,-91.3894 1476.08,-99.2658 1479.45,-93.1277"/>
</g>
<!-- wallRadar[0.7,0.7]&#45;&gt; Move Left/Right -->
<g id="edge28" class="edge"><title>wallRadar[0.7,0.7]&#45;&gt; Move Left/Right</title>
<path fill="none" stroke="red" stroke-width="0.142488" d="M2197.57,-190.084C2173.83,-174.67 2120.7,-140.188 2079.62,-113.526"/>
<polygon fill="red" stroke="red" stroke-width="0.142488" points="2081.35,-110.473 2071.05,-107.965 2077.53,-116.345 2081.35,-110.473"/>
</g>
<!-- wallRadar[0.7,0.7]&#45;&gt;Turn left/right -->
<g id="edge12" class="edge"><title>wallRadar[0.7,0.7]&#45;&gt;Turn left/right</title>
<path fill="none" stroke="red" stroke-width="0.169517" d="M2168.4,-191.235C2108.21,-181.157 1999.8,-162.703 1961,-154.149 1879.56,-136.194 1786.43,-110.549 1728.91,-94.1057"/>
<polygon fill="red" stroke="red" stroke-width="0.169517" points="1729.52,-90.6404 1718.95,-91.247 1727.59,-97.3689 1729.52,-90.6404"/>
</g>
<!-- wallRadar[&#45;0.7,0.7] -->
<g id="node6" class="node"><title>wallRadar[&#45;0.7,0.7]</title>
<polygon fill="lightgray" stroke="black" points="760,-208.149 674,-208.149 674,-190.149 760,-190.149 760,-208.149"/>
<text text-anchor="middle" x="717" y="-196.949" font-family="Times,serif" font-size="9.00">wallRadar[&#45;0.7,0.7]</text>
</g>
<!-- wallRadar[&#45;0.7,0.7]&#45;&gt;Shoot -->
<g id="edge18" class="edge"><title>wallRadar[&#45;0.7,0.7]&#45;&gt;Shoot</title>
<path fill="none" stroke="green" stroke-width="0.208628" d="M760.069,-191.428C763.426,-190.971 766.766,-190.539 770,-190.149 946.775,-168.852 993.791,-185.852 1169,-154.149 1257.56,-138.124 1358.92,-106.887 1411.02,-89.849"/>
<polygon fill="green" stroke="green" stroke-width="0.208628" points="1412.36,-93.0922 1420.76,-86.6395 1410.17,-86.4435 1412.36,-93.0922"/>
</g>
<!-- wallRadar[&#45;0.7,0.7]&#45;&gt;Move Forward/Backward -->
<g id="edge29" class="edge"><title>wallRadar[&#45;0.7,0.7]&#45;&gt;Move Forward/Backward</title>
<path fill="none" stroke="red" stroke-width="0.249733" d="M741.583,-190.084C793.616,-173.014 916.93,-132.558 1000.21,-105.236"/>
<polygon fill="red" stroke="red" stroke-width="0.249733" points="1001.5,-108.497 1009.91,-102.054 999.315,-101.846 1001.5,-108.497"/>
</g>
<!-- wallRadar[&#45;0.7,&#45;0.7] -->
<g id="node7" class="node"><title>wallRadar[&#45;0.7,&#45;0.7]</title>
<polygon fill="lightgray" stroke="black" points="1665.5,-208.149 1576.5,-208.149 1576.5,-190.149 1665.5,-190.149 1665.5,-208.149"/>
<text text-anchor="middle" x="1621" y="-196.949" font-family="Times,serif" font-size="9.00">wallRadar[&#45;0.7,&#45;0.7]</text>
</g>
<!-- wallRadar[&#45;0.7,&#45;0.7]&#45;&gt;Shoot -->
<g id="edge26" class="edge"><title>wallRadar[&#45;0.7,&#45;0.7]&#45;&gt;Shoot</title>
<path fill="none" stroke="red" stroke-width="0.181098" d="M1609.25,-190.084C1582.31,-171.606 1515.45,-125.725 1476.15,-98.7638"/>
<polygon fill="red" stroke="red" stroke-width="0.181098" points="1477.97,-95.7629 1467.74,-92.9912 1474.01,-101.535 1477.97,-95.7629"/>
</g>
<!-- wallRadar[&#45;0.7,&#45;0.7]&#45;&gt;Move Forward/Backward -->
<g id="edge4" class="edge"><title>wallRadar[&#45;0.7,&#45;0.7]&#45;&gt;Move Forward/Backward</title>
<path fill="none" stroke="red" stroke-width="0.250428" d="M1581.28,-190.149C1538.82,-181.532 1469.56,-167.286 1410,-154.149 1327.57,-135.969 1233.76,-114.014 1167.82,-98.3716"/>
<polygon fill="red" stroke="red" stroke-width="0.250428" points="1168.43,-94.919 1157.89,-96.014 1166.81,-101.73 1168.43,-94.919"/>
</g>
<!-- wallRadar[&#45;0.7,&#45;0.7]&#45;&gt; Move Left/Right -->
<g id="edge9" class="edge"><title>wallRadar[&#45;0.7,&#45;0.7]&#45;&gt; Move Left/Right</title>
<path fill="none" stroke="red" stroke-width="0.124862" d="M1648.13,-190.084C1712,-171.104 1873.13,-123.212 1962.64,-96.6094"/>
<polygon fill="red" stroke="red" stroke-width="0.124862" points="1963.81,-99.914 1972.39,-93.71 1961.81,-93.2041 1963.81,-99.914"/>
</g>
<!-- wallRadar[&#45;0.7,&#45;0.7]&#45;&gt;Turn left/right -->
<g id="edge47" class="edge"><title>wallRadar[&#45;0.7,&#45;0.7]&#45;&gt;Turn left/right</title>
<path fill="none" stroke="green" stroke-width="0.496671" d="M1624.64,-189.896C1630.17,-177.369 1641.12,-152.567 1651.3,-129.498"/>
<polygon fill="green" stroke="green" stroke-width="0.496671" points="1654.61,-130.66 1655.45,-120.099 1648.21,-127.834 1654.61,-130.66"/>
</g>
<!-- wallRadar[0.7,&#45;0.7] -->
<g id="node8" class="node"><title>wallRadar[0.7,&#45;0.7]</title>
<polygon fill="lightgray" stroke="black" points="1770,-208.149 1684,-208.149 1684,-190.149 1770,-190.149 1770,-208.149"/>
<text text-anchor="middle" x="1727" y="-196.949" font-family="Times,serif" font-size="9.00">wallRadar[0.7,&#45;0.7]</text>
</g>
<!-- wallRadar[0.7,&#45;0.7]&#45;&gt;Shoot -->
<g id="edge43" class="edge"><title>wallRadar[0.7,&#45;0.7]&#45;&gt;Shoot</title>
<path fill="none" stroke="red" stroke-width="0.380223" d="M1706.43,-190.077C1684.45,-181.4 1648.64,-167.104 1618,-154.149 1569.48,-133.633 1513.81,-108.762 1479.26,-93.1735"/>
<polygon fill="red" stroke="red" stroke-width="0.380223" points="1480.66,-89.9631 1470.1,-89.0341 1477.77,-96.3419 1480.66,-89.9631"/>
</g>
<!-- wallRadar[0.7,&#45;0.7]&#45;&gt;Move Forward/Backward -->
<g id="edge24" class="edge"><title>wallRadar[0.7,&#45;0.7]&#45;&gt;Move Forward/Backward</title>
<path fill="none" stroke="red" stroke-width="0.184155" d="M1683.88,-191.455C1680.87,-191.007 1677.89,-190.568 1675,-190.149 1557.37,-173.112 1526.9,-175.639 1410,-154.149 1326.98,-138.888 1233.25,-116.549 1167.49,-100.023"/>
<polygon fill="red" stroke="red" stroke-width="0.184155" points="1168.14,-96.5781 1157.59,-97.5261 1166.43,-103.366 1168.14,-96.5781"/>
</g>
<!-- wallRadar[0.7,&#45;0.7]&#45;&gt; Move Left/Right -->
<g id="edge50" class="edge"><title>wallRadar[0.7,&#45;0.7]&#45;&gt; Move Left/Right</title>
<path fill="none" stroke="green" stroke-width="0.292694" d="M1747.02,-190.084C1790.89,-172.407 1897,-129.652 1964.7,-102.373"/>
<polygon fill="green" stroke="green" stroke-width="0.292694" points="1966.02,-105.615 1973.98,-98.6309 1963.4,-99.1219 1966.02,-105.615"/>
</g>
<!-- wallRadar[0.7,&#45;0.7]&#45;&gt;Turn left/right -->
<g id="edge21" class="edge"><title>wallRadar[0.7,&#45;0.7]&#45;&gt;Turn left/right</title>
<path fill="none" stroke="green" stroke-width="0.110507" d="M1723.36,-189.896C1717.83,-177.369 1706.88,-152.567 1696.7,-129.498"/>
<polygon fill="green" stroke="green" stroke-width="0.110507" points="1699.79,-127.834 1692.55,-120.099 1693.39,-130.66 1699.79,-127.834"/>
</g>
<!-- enemyRadar[RightBack] -->
<g id="node9" class="node"><title>enemyRadar[RightBack]</title>
<polygon fill="lightgray" stroke="black" points="1558,-208.149 1454,-208.149 1454,-190.149 1558,-190.149 1558,-208.149"/>
<text text-anchor="middle" x="1506" y="-196.949" font-family="Times,serif" font-size="9.00">enemyRadar[RightBack]</text>
</g>
<!-- enemyRadar[RightBack]&#45;&gt;Shoot -->
<g id="edge15" class="edge"><title>enemyRadar[RightBack]&#45;&gt;Shoot</title>
<path fill="none" stroke="red" stroke-width="0.307914" d="M1501.88,-189.896C1493.82,-173.781 1475.62,-137.354 1462.17,-110.432"/>
<polygon fill="red" stroke="red" stroke-width="0.307914" points="1465.23,-108.736 1457.63,-101.355 1458.97,-111.865 1465.23,-108.736"/>
</g>
<!-- enemyRadar[RightBack]&#45;&gt;Move Forward/Backward -->
<g id="edge2" class="edge"><title>enemyRadar[RightBack]&#45;&gt;Move Forward/Backward</title>
<path fill="none" stroke="green" stroke-width="0.209885" d="M1477.59,-190.084C1414.91,-172.292 1262.73,-129.093 1166.73,-101.842"/>
<polygon fill="green" stroke="green" stroke-width="0.209885" points="1167.62,-98.4558 1157.04,-99.092 1165.7,-105.19 1167.62,-98.4558"/>
</g>
<!-- enemyRadar[RightBack]&#45;&gt; Move Left/Right -->
<g id="edge5" class="edge"><title>enemyRadar[RightBack]&#45;&gt; Move Left/Right</title>
<path fill="none" stroke="red" stroke-width="0.400187" d="M1550.79,-190.148C1596.12,-181.863 1668.16,-168.184 1730,-154.149 1810.45,-135.891 1902.38,-111.641 1961.93,-95.478"/>
<polygon fill="red" stroke="red" stroke-width="0.400187" points="1963.2,-98.7593 1971.94,-92.7568 1961.37,-92.0048 1963.2,-98.7593"/>
</g>
<!-- enemyRadar[LeftBack] -->
<g id="node10" class="node"><title>enemyRadar[LeftBack]</title>
<polygon fill="lightgray" stroke="black" points="1435.5,-208.149 1336.5,-208.149 1336.5,-190.149 1435.5,-190.149 1435.5,-208.149"/>
<text text-anchor="middle" x="1386" y="-196.949" font-family="Times,serif" font-size="9.00">enemyRadar[LeftBack]</text>
</g>
<!-- enemyRadar[LeftBack]&#45;&gt;Shoot -->
<g id="edge34" class="edge"><title>enemyRadar[LeftBack]&#45;&gt;Shoot</title>
<path fill="none" stroke="red" stroke-width="0.247005" d="M1390.12,-189.896C1398.18,-173.781 1416.38,-137.354 1429.83,-110.432"/>
<polygon fill="red" stroke="red" stroke-width="0.247005" points="1433.03,-111.865 1434.37,-101.355 1426.77,-108.736 1433.03,-111.865"/>
</g>
<!-- enemyRadar[LeftBack]&#45;&gt;Move Forward/Backward -->
<g id="edge7" class="edge"><title>enemyRadar[LeftBack]&#45;&gt;Move Forward/Backward</title>
<path fill="none" stroke="green" stroke-width="0.208271" d="M1365.65,-190.084C1325.1,-174.014 1232.24,-137.218 1163.98,-110.166"/>
<polygon fill="green" stroke="green" stroke-width="0.208271" points="1165.11,-106.847 1154.52,-106.417 1162.53,-113.355 1165.11,-106.847"/>
</g>
<!-- enemyRadar[LeftBack]&#45;&gt;Turn left/right -->
<g id="edge41" class="edge"><title>enemyRadar[LeftBack]&#45;&gt;Turn left/right</title>
<path fill="none" stroke="green" stroke-width="0.374449" d="M1405.34,-190.084C1449.1,-171.842 1556.91,-126.892 1621.88,-99.8051"/>
<polygon fill="green" stroke="green" stroke-width="0.374449" points="1623.26,-103.022 1631.14,-95.9436 1620.56,-96.5614 1623.26,-103.022"/>
</g>
<!-- enemyRadar[Right45ø] -->
<g id="node11" class="node"><title>enemyRadar[Right45ø]</title>
<polygon fill="lightgray" stroke="black" points="1016,-208.149 916,-208.149 916,-190.149 1016,-190.149 1016,-208.149"/>
<text text-anchor="middle" x="966" y="-196.949" font-family="Times,serif" font-size="9.00">enemyRadar[Right45ø]</text>
</g>
<!-- enemyRadar[Right45ø]&#45;&gt;Shoot -->
<g id="edge33" class="edge"><title>enemyRadar[Right45ø]&#45;&gt;Shoot</title>
<path fill="none" stroke="red" stroke-width="0.206714" d="M1006.21,-190.109C1047.27,-181.74 1112.79,-167.949 1169,-154.149 1256.18,-132.747 1357.71,-103.831 1410.31,-88.5492"/>
<polygon fill="red" stroke="red" stroke-width="0.206714" points="1411.53,-91.8376 1420.15,-85.6808 1409.57,-85.1168 1411.53,-91.8376"/>
</g>
<!-- enemyRadar[Right45ø]&#45;&gt;Move Forward/Backward -->
<g id="edge8" class="edge"><title>enemyRadar[Right45ø]&#45;&gt;Move Forward/Backward</title>
<path fill="none" stroke="red" stroke-width="0.279576" d="M974.042,-189.896C984.388,-179.278 1003.33,-159.843 1022.55,-140.118"/>
<polygon fill="red" stroke="red" stroke-width="0.279576" points="1025.15,-142.458 1029.62,-132.854 1020.14,-137.573 1025.15,-142.458"/>
</g>
<!-- enemyRadar[Right45ø]&#45;&gt;Turn left/right -->
<g id="edge52" class="edge"><title>enemyRadar[Right45ø]&#45;&gt;Turn left/right</title>
<path fill="none" stroke="green" stroke-width="0.344454" d="M1016.19,-191.149C1019.17,-190.794 1022.12,-190.457 1025,-190.149 1227.58,-168.453 1283.53,-200.187 1482,-154.149 1531.59,-142.647 1585.22,-120.506 1623.17,-103.064"/>
<polygon fill="green" stroke="green" stroke-width="0.344454" points="1624.87,-106.131 1632.46,-98.7398 1621.92,-99.7835 1624.87,-106.131"/>
</g>
<!-- enemyRadar[Left45ø] -->
<g id="node12" class="node"><title>enemyRadar[Left45ø]</title>
<polygon fill="lightgray" stroke="black" points="1883.5,-208.149 1788.5,-208.149 1788.5,-190.149 1883.5,-190.149 1883.5,-208.149"/>
<text text-anchor="middle" x="1836" y="-196.949" font-family="Times,serif" font-size="9.00">enemyRadar[Left45ø]</text>
</g>
<!-- enemyRadar[Left45ø]&#45;&gt;Shoot -->
<g id="edge49" class="edge"><title>enemyRadar[Left45ø]&#45;&gt;Shoot</title>
<path fill="none" stroke="green" stroke-width="0.16919" d="M1788.47,-191.606C1743.8,-184.744 1675.4,-172.397 1618,-154.149 1567.8,-138.19 1512.56,-112.133 1478.57,-95.0429"/>
<polygon fill="green" stroke="green" stroke-width="0.16919" points="1480.07,-91.8795 1469.57,-90.4764 1476.9,-98.1221 1480.07,-91.8795"/>
</g>
<!-- enemyRadar[Left45ø]&#45;&gt;Move Forward/Backward -->
<g id="edge45" class="edge"><title>enemyRadar[Left45ø]&#45;&gt;Move Forward/Backward</title>
<path fill="none" stroke="red" stroke-width="0.129672" d="M1788.43,-191.32C1785.24,-190.91 1782.08,-190.515 1779,-190.149 1615.37,-170.694 1572.6,-180.876 1410,-154.149 1326.57,-140.436 1232.7,-117.839 1167.01,-100.828"/>
<polygon fill="red" stroke="red" stroke-width="0.129672" points="1167.68,-97.3862 1157.12,-98.2547 1165.92,-104.161 1167.68,-97.3862"/>
</g>
<!-- enemyRadar[Left45ø]&#45;&gt; Move Left/Right -->
<g id="edge25" class="edge"><title>enemyRadar[Left45ø]&#45;&gt; Move Left/Right</title>
<path fill="none" stroke="green" stroke-width="0.259605" d="M1848.69,-190.084C1873.16,-174.539 1928.15,-139.602 1970.26,-112.849"/>
<polygon fill="green" stroke="green" stroke-width="0.259605" points="1972.21,-115.763 1978.77,-107.446 1968.45,-109.854 1972.21,-115.763"/>
</g>
<!-- enemyRadar[Left45ø]&#45;&gt;Turn left/right -->
<g id="edge40" class="edge"><title>enemyRadar[Left45ø]&#45;&gt;Turn left/right</title>
<path fill="none" stroke="red" stroke-width="0.288436" d="M1825.12,-190.084C1803.91,-174.361 1755.92,-138.797 1719.68,-111.931"/>
<polygon fill="red" stroke="red" stroke-width="0.288436" points="1721.32,-108.795 1711.21,-105.652 1717.16,-114.419 1721.32,-108.795"/>
</g>
<!-- enemyRadar[RightFront20ø] -->
<g id="node13" class="node"><title>enemyRadar[RightFront20ø]</title>
<polygon fill="lightgray" stroke="black" points="1318.5,-208.149 1199.5,-208.149 1199.5,-190.149 1318.5,-190.149 1318.5,-208.149"/>
<text text-anchor="middle" x="1259" y="-196.949" font-family="Times,serif" font-size="9.00">enemyRadar[RightFront20ø]</text>
</g>
<!-- enemyRadar[RightFront20ø]&#45;&gt;Shoot -->
<g id="edge17" class="edge"><title>enemyRadar[RightFront20ø]&#45;&gt;Shoot</title>
<path fill="none" stroke="red" stroke-width="0.360481" d="M1271.56,-190.084C1300.63,-171.42 1373.23,-124.8 1415.04,-97.9564"/>
<polygon fill="red" stroke="red" stroke-width="0.360481" points="1417.19,-100.734 1423.71,-92.3857 1413.41,-94.8438 1417.19,-100.734"/>
</g>
<!-- enemyRadar[RightFront20ø]&#45;&gt;Move Forward/Backward -->
<g id="edge10" class="edge"><title>enemyRadar[RightFront20ø]&#45;&gt;Move Forward/Backward</title>
<path fill="none" stroke="green" stroke-width="0.123526" d="M1247.18,-190.084C1228.27,-177.184 1189.79,-150.929 1154.83,-127.08"/>
<polygon fill="green" stroke="green" stroke-width="0.123526" points="1156.74,-124.143 1146.5,-121.398 1152.79,-129.926 1156.74,-124.143"/>
</g>
<!-- enemyRadar[RightFront20ø]&#45;&gt;Turn left/right -->
<g id="edge36" class="edge"><title>enemyRadar[RightFront20ø]&#45;&gt;Turn left/right</title>
<path fill="none" stroke="green" stroke-width="0.113333" d="M1314.2,-190.136C1359.75,-182.841 1425.78,-170.683 1482,-154.149 1530.68,-139.834 1584.2,-118.1 1622.35,-101.523"/>
<polygon fill="green" stroke="green" stroke-width="0.113333" points="1623.95,-104.645 1631.7,-97.4276 1621.14,-98.2326 1623.95,-104.645"/>
</g>
<!-- enemyRadar[LeftFront20ø] -->
<g id="node14" class="node"><title>enemyRadar[LeftFront20ø]</title>
<polygon fill="lightgray" stroke="black" points="516,-208.149 402,-208.149 402,-190.149 516,-190.149 516,-208.149"/>
<text text-anchor="middle" x="459" y="-196.949" font-family="Times,serif" font-size="9.00">enemyRadar[LeftFront20ø]</text>
</g>
<!-- enemyRadar[LeftFront20ø]&#45;&gt;Shoot -->
<g id="edge54" class="edge"><title>enemyRadar[LeftFront20ø]&#45;&gt;Shoot</title>
<path fill="none" stroke="red" stroke-width="0.133631" d="M516.214,-190.984C519.183,-190.684 522.126,-190.404 525,-190.149 810.554,-164.888 886.081,-200.369 1169,-154.149 1257.82,-139.638 1359.07,-107.78 1411.09,-90.2444"/>
<polygon fill="red" stroke="red" stroke-width="0.133631" points="1412.47,-93.4699 1420.81,-86.9376 1410.22,-86.8423 1412.47,-93.4699"/>
</g>
<!-- enemyRadar[LeftFront20ø]&#45;&gt;Move Forward/Backward -->
<g id="edge38" class="edge"><title>enemyRadar[LeftFront20ø]&#45;&gt;Move Forward/Backward</title>
<path fill="none" stroke="green" stroke-width="0.196818" d="M500.911,-190.084C602.148,-170.604 861.649,-120.669 997.371,-94.5519"/>
<polygon fill="green" stroke="green" stroke-width="0.196818" points="998.165,-97.9634 1007.32,-92.6368 996.843,-91.0895 998.165,-97.9634"/>
</g>
<!-- enemyRadar[RightFront15ø] -->
<g id="node15" class="node"><title>enemyRadar[RightFront15ø]</title>
<polygon fill="lightgray" stroke="black" points="897.5,-208.149 778.5,-208.149 778.5,-190.149 897.5,-190.149 897.5,-208.149"/>
<text text-anchor="middle" x="838" y="-196.949" font-family="Times,serif" font-size="9.00">enemyRadar[RightFront15ø]</text>
</g>
<!-- enemyRadar[RightFront15ø]&#45;&gt;Shoot -->
<g id="edge44" class="edge"><title>enemyRadar[RightFront15ø]&#45;&gt;Shoot</title>
<path fill="none" stroke="red" stroke-width="0.169793" d="M897.718,-191.2C978.556,-181.622 1118.51,-164.39 1169,-154.149 1257.21,-136.261 1358.71,-105.787 1410.92,-89.3623"/>
<polygon fill="red" stroke="red" stroke-width="0.169793" points="1412.21,-92.6256 1420.69,-86.2725 1410.1,-85.9515 1412.21,-92.6256"/>
</g>
<!-- enemyRadar[LeftFront15ø] -->
<g id="node16" class="node"><title>enemyRadar[LeftFront15ø]</title>
<polygon fill="lightgray" stroke="black" points="2016,-208.149 1902,-208.149 1902,-190.149 2016,-190.149 2016,-208.149"/>
<text text-anchor="middle" x="1959" y="-196.949" font-family="Times,serif" font-size="9.00">enemyRadar[LeftFront15ø]</text>
</g>
<!-- enemyRadar[LeftFront15ø]&#45;&gt;Shoot -->
<g id="edge23" class="edge"><title>enemyRadar[LeftFront15ø]&#45;&gt;Shoot</title>
<path fill="none" stroke="green" stroke-width="0.273926" d="M1901.72,-191.193C1808.14,-179.767 1631.47,-157.913 1618,-154.149 1567.12,-139.938 1511.85,-113.304 1478.07,-95.6263"/>
<polygon fill="green" stroke="green" stroke-width="0.273926" points="1479.6,-92.4798 1469.13,-90.8954 1476.33,-98.6667 1479.6,-92.4798"/>
</g>
<!-- enemyRadar[LeftFront15ø]&#45;&gt;Move Forward/Backward -->
<g id="edge30" class="edge"><title>enemyRadar[LeftFront15ø]&#45;&gt;Move Forward/Backward</title>
<path fill="none" stroke="red" stroke-width="0.415193" d="M1901.78,-191.049C1898.81,-190.733 1895.87,-190.43 1893,-190.149 1678.76,-169.192 1622.8,-186.634 1410,-154.149 1326.42,-141.39 1232.57,-118.666 1166.92,-101.366"/>
<polygon fill="red" stroke="red" stroke-width="0.415193" points="1167.61,-97.9258 1157.04,-98.7467 1165.81,-104.692 1167.61,-97.9258"/>
</g>
<!-- enemyRadar[LeftFront15ø]&#45;&gt; Move Left/Right -->
<g id="edge27" class="edge"><title>enemyRadar[LeftFront15ø]&#45;&gt; Move Left/Right</title>
<path fill="none" stroke="red" stroke-width="0.355689" d="M1963.54,-189.896C1969.91,-178.3 1982.06,-156.188 1993.89,-134.667"/>
<polygon fill="red" stroke="red" stroke-width="0.355689" points="1997,-136.284 1998.75,-125.835 1990.86,-132.912 1997,-136.284"/>
</g>
<!-- enemyRadar[LeftFront15ø]&#45;&gt;Turn left/right -->
<g id="edge51" class="edge"><title>enemyRadar[LeftFront15ø]&#45;&gt;Turn left/right</title>
<path fill="none" stroke="green" stroke-width="0.251132" d="M1939.86,-190.084C1896.71,-171.904 1790.6,-127.199 1726.24,-100.084"/>
<polygon fill="green" stroke="green" stroke-width="0.251132" points="1727.25,-96.7101 1716.67,-96.0528 1724.53,-103.161 1727.25,-96.7101"/>
</g>
<!-- enemyRadar[RightFront7.5ø] -->
<g id="node17" class="node"><title>enemyRadar[RightFront7.5ø]</title>
<polygon fill="lightgray" stroke="black" points="656,-208.149 534,-208.149 534,-190.149 656,-190.149 656,-208.149"/>
<text text-anchor="middle" x="595" y="-196.949" font-family="Times,serif" font-size="9.00">enemyRadar[RightFront7.5ø]</text>
</g>
<!-- enemyRadar[RightFront7.5ø]&#45;&gt;Shoot -->
<g id="edge19" class="edge"><title>enemyRadar[RightFront7.5ø]&#45;&gt;Shoot</title>
<path fill="none" stroke="green" stroke-width="0.110148" d="M656.068,-191.015C659.087,-190.711 662.077,-190.421 665,-190.149 888.61,-169.395 947.654,-192.069 1169,-154.149 1257.71,-138.952 1359,-107.375 1411.06,-90.0652"/>
<polygon fill="green" stroke="green" stroke-width="0.110148" points="1412.42,-93.2988 1420.79,-86.8024 1410.2,-86.6616 1412.42,-93.2988"/>
</g>
<!-- enemyRadar[RightFront7.5ø]&#45;&gt;Move Forward/Backward -->
<g id="edge20" class="edge"><title>enemyRadar[RightFront7.5ø]&#45;&gt;Move Forward/Backward</title>
<path fill="none" stroke="green" stroke-width="0.131821" d="M627.777,-190.084C702.767,-171.633 888.798,-125.859 998.436,-98.8819"/>
<polygon fill="green" stroke="green" stroke-width="0.131821" points="999.275,-102.28 1008.15,-96.492 997.603,-95.4827 999.275,-102.28"/>
</g>
<!-- enemyRadar[LeftFront7.5ø] -->
<g id="node18" class="node"><title>enemyRadar[LeftFront7.5ø]</title>
<polygon fill="lightgray" stroke="black" points="296,-208.149 180,-208.149 180,-190.149 296,-190.149 296,-208.149"/>
<text text-anchor="middle" x="238" y="-196.949" font-family="Times,serif" font-size="9.00">enemyRadar[LeftFront7.5ø]</text>
</g>
<!-- enemyRadar[LeftFront7.5ø]&#45;&gt;Move Forward/Backward -->
<g id="edge35" class="edge"><title>enemyRadar[LeftFront7.5ø]&#45;&gt;Move Forward/Backward</title>
<path fill="none" stroke="red" stroke-width="0.159921" d="M294.426,-190.131C438.998,-169.587 823.46,-114.955 996.485,-90.3684"/>
<polygon fill="red" stroke="red" stroke-width="0.159921" points="997.162,-93.8075 1006.57,-88.9354 996.177,-86.8771 997.162,-93.8075"/>
</g>
<!-- enemyRadar[RightFront2.5ø] -->
<g id="node19" class="node"><title>enemyRadar[RightFront2.5ø]</title>
<polygon fill="lightgray" stroke="black" points="2392,-208.149 2270,-208.149 2270,-190.149 2392,-190.149 2392,-208.149"/>
<text text-anchor="middle" x="2331" y="-196.949" font-family="Times,serif" font-size="9.00">enemyRadar[RightFront2.5ø]</text>
</g>
<!-- enemyRadar[RightFront2.5ø]&#45;&gt;Shoot -->
<g id="edge22" class="edge"><title>enemyRadar[RightFront2.5ø]&#45;&gt;Shoot</title>
<path fill="none" stroke="green" stroke-width="0.218671" d="M2269.94,-190.96C2266.92,-190.671 2263.93,-190.398 2261,-190.149 1975.8,-165.889 1896.28,-221.123 1618,-154.149 1566.64,-141.788 1511.5,-114.666 1477.87,-96.3782"/>
<polygon fill="green" stroke="green" stroke-width="0.218671" points="1479.42,-93.2379 1468.98,-91.4738 1476.04,-99.3676 1479.42,-93.2379"/>
</g>
<!-- enemyRadar[RightFront2.5ø]&#45;&gt; Move Left/Right -->
<g id="edge37" class="edge"><title>enemyRadar[RightFront2.5ø]&#45;&gt; Move Left/Right</title>
<path fill="none" stroke="green" stroke-width="0.12548" d="M2310.45,-190.084C2265.14,-172.306 2155.2,-129.165 2085.74,-101.91"/>
<polygon fill="green" stroke="green" stroke-width="0.12548" points="2086.81,-98.5683 2076.22,-98.1735 2084.25,-105.085 2086.81,-98.5683"/>
</g>
<!-- enemyRadar[LeftFront2.5ø] -->
<g id="node20" class="node"><title>enemyRadar[LeftFront2.5ø]</title>
<polygon fill="lightgray" stroke="black" points="2150,-208.149 2034,-208.149 2034,-190.149 2150,-190.149 2150,-208.149"/>
<text text-anchor="middle" x="2092" y="-196.949" font-family="Times,serif" font-size="9.00">enemyRadar[LeftFront2.5ø]</text>
</g>
<!-- enemyRadar[LeftFront2.5ø]&#45;&gt;Shoot -->
<g id="edge53" class="edge"><title>enemyRadar[LeftFront2.5ø]&#45;&gt;Shoot</title>
<path fill="none" stroke="red" stroke-width="0.38232" d="M2033.91,-191.103C2030.9,-190.772 2027.91,-190.452 2025,-190.149 1844.38,-171.382 1793.84,-199.486 1618,-154.149 1566.85,-140.961 1511.65,-114.057 1477.95,-96.0419"/>
<polygon fill="red" stroke="red" stroke-width="0.38232" points="1479.5,-92.8995 1469.04,-91.2151 1476.17,-99.0549 1479.5,-92.8995"/>
</g>
<!-- enemyRadar[LeftFront2.5ø]&#45;&gt; Move Left/Right -->
<g id="edge39" class="edge"><title>enemyRadar[LeftFront2.5ø]&#45;&gt; Move Left/Right</title>
<path fill="none" stroke="green" stroke-width="0.198423" d="M2087.39,-189.896C2080.9,-178.254 2068.49,-156.01 2056.43,-134.408"/>
<polygon fill="green" stroke="green" stroke-width="0.198423" points="2059.42,-132.572 2051.49,-125.545 2053.3,-135.983 2059.42,-132.572"/>
</g>
<!-- enemyRadar[Front7Ø] -->
<g id="node21" class="node"><title>enemyRadar[Front7Ø]</title>
<polygon fill="lightgray" stroke="black" points="1132,-208.149 1034,-208.149 1034,-190.149 1132,-190.149 1132,-208.149"/>
<text text-anchor="middle" x="1083" y="-196.949" font-family="Times,serif" font-size="9.00">enemyRadar[Front7Ø]</text>
</g>
<!-- enemyRadar[Front7Ø]&#45;&gt;Move Forward/Backward -->
<g id="edge32" class="edge"><title>enemyRadar[Front7Ø]&#45;&gt;Move Forward/Backward</title>
<path fill="none" stroke="red" stroke-width="0.328278" d="M1083,-189.896C1083,-183.793 1083,-174.776 1083,-164.466"/>
<polygon fill="red" stroke="red" stroke-width="0.328278" points="1086.5,-164.237 1083,-154.237 1079.5,-164.237 1086.5,-164.237"/>
</g>
<!-- enemyRadar[Front7Ø]&#45;&gt;Turn left/right -->
<g id="edge16" class="edge"><title>enemyRadar[Front7Ø]&#45;&gt;Turn left/right</title>
<path fill="none" stroke="red" stroke-width="0.144053" d="M1132.24,-191.363C1135.54,-190.942 1138.82,-190.533 1142,-190.149 1292.86,-171.939 1334.45,-190.471 1482,-154.149 1531.43,-141.982 1585.08,-119.914 1623.07,-102.668"/>
<polygon fill="red" stroke="red" stroke-width="0.144053" points="1624.75,-105.748 1632.38,-98.3961 1621.83,-99.3855 1624.75,-105.748"/>
</g>
<!-- OnTarget -->
<g id="node22" class="node"><title>OnTarget</title>
<polygon fill="lightgray" stroke="black" points="2552,-208.149 2502,-208.149 2502,-190.149 2552,-190.149 2552,-208.149"/>
<text text-anchor="middle" x="2527" y="-196.949" font-family="Times,serif" font-size="9.00">OnTarget</text>
</g>
<!-- OnTarget&#45;&gt; Move Left/Right -->
<g id="edge14" class="edge"><title>OnTarget&#45;&gt; Move Left/Right</title>
<path fill="none" stroke="red" stroke-width="0.373203" d="M2501.76,-192.112C2426.11,-174.016 2199.57,-119.831 2088.21,-93.1937"/>
<polygon fill="red" stroke="red" stroke-width="0.373203" points="2088.99,-89.7814 2078.45,-90.859 2087.36,-96.5893 2088.99,-89.7814"/>
</g>
<!-- OnTarget&#45;&gt;Turn left/right -->
<g id="edge46" class="edge"><title>OnTarget&#45;&gt;Turn left/right</title>
<path fill="none" stroke="red" stroke-width="0.338316" d="M2501.84,-191.745C2498.87,-191.134 2495.88,-190.582 2493,-190.149 2258.65,-154.892 2194.83,-192.686 1961,-154.149 1878.3,-140.52 1784.88,-113.516 1727.71,-95.624"/>
<polygon fill="red" stroke="red" stroke-width="0.338316" points="1728.76,-92.2826 1718.17,-92.6147 1726.65,-98.9589 1728.76,-92.2826"/>
</g>
<!-- bias -->
<g id="node23" class="node"><title>bias</title>
<polygon fill="lightgray" stroke="black" points="1181.5,-208.149 1150.5,-208.149 1150.5,-190.149 1181.5,-190.149 1181.5,-208.149"/>
<text text-anchor="middle" x="1166" y="-196.949" font-family="Times,serif" font-size="9.00">bias</text>
</g>
<!-- bias&#45;&gt;Shoot -->
<g id="edge48" class="edge"><title>bias&#45;&gt;Shoot</title>
<path fill="none" stroke="green" stroke-width="0.278742" d="M1181.86,-191.35C1226.02,-172.41 1351.17,-118.741 1411.99,-92.6605"/>
<polygon fill="green" stroke="green" stroke-width="0.278742" points="1413.71,-95.73 1421.52,-88.572 1410.95,-89.2966 1413.71,-95.73"/>
</g>
<!-- bias&#45;&gt;Move Forward/Backward -->
<g id="edge42" class="edge"><title>bias&#45;&gt;Move Forward/Backward</title>
<path fill="none" stroke="red" stroke-width="0.162516" d="M1160.3,-189.896C1154.12,-180.962 1143.63,-165.786 1132.34,-149.447"/>
<polygon fill="red" stroke="red" stroke-width="0.162516" points="1134.94,-147.06 1126.37,-140.824 1129.18,-151.04 1134.94,-147.06"/>
</g>
<!-- bias&#45;&gt;Turn left/right -->
<g id="edge31" class="edge"><title>bias&#45;&gt;Turn left/right</title>
<path fill="none" stroke="red" stroke-width="0.197579" d="M1181.75,-192.619C1184.79,-191.691 1187.97,-190.815 1191,-190.149 1318.28,-162.168 1355.74,-186.412 1482,-154.149 1531.32,-141.548 1584.98,-119.527 1623.01,-102.409"/>
<polygon fill="red" stroke="red" stroke-width="0.197579" points="1624.67,-105.497 1632.33,-98.1717 1621.77,-99.1254 1624.67,-105.497"/>
</g>
</g>
</svg>
