<?xml version="1.0" encoding="UTF-8" standalone="no"?>
<!DOCTYPE svg PUBLIC "-//W3C//DTD SVG 1.1//EN"
 "http://www.w3.org/Graphics/SVG/1.1/DTD/svg11.dtd">
<!-- Generated by graphviz version 2.38.0 (20140413.2041)
 -->
<!-- Title: %3 Pages: 1 -->
<svg width="2521pt" height="172pt"
 viewBox="0.00 0.00 2520.50 172.31" xmlns="http://www.w3.org/2000/svg" xmlns:xlink="http://www.w3.org/1999/xlink">
<g id="graph0" class="graph" transform="scale(1 1) rotate(0) translate(4 168.309)">
<title>%3</title>
<polygon fill="white" stroke="none" points="-4,4 -4,-168.309 2516.5,-168.309 2516.5,4 -4,4"/>
<!-- wallRadar[1,0] -->
<g id="node1" class="node"><title>wallRadar[1,0]</title>
<polygon fill="lightgray" stroke="black" points="1225.5,-164.309 1155.5,-164.309 1155.5,-146.309 1225.5,-146.309 1225.5,-164.309"/>
<text text-anchor="middle" x="1190.5" y="-153.109" font-family="Times,serif" font-size="9.00">wallRadar[1,0]</text>
</g>
<!-- Shoot -->
<g id="node24" class="node"><title>Shoot</title>
<ellipse fill="lightblue" stroke="black" cx="1189.5" cy="-55.1543" rx="26.7407" ry="26.7407"/>
<text text-anchor="middle" x="1189.5" y="-52.9543" font-family="Times,serif" font-size="9.00">Shoot</text>
</g>
<!-- wallRadar[1,0]&#45;&gt;Shoot -->
<g id="edge14" class="edge"><title>wallRadar[1,0]&#45;&gt;Shoot</title>
<path fill="none" stroke="green" stroke-width="0.60037" d="M1190.42,-146.276C1190.3,-134.556 1190.07,-112.026 1189.87,-92.4263"/>
<polygon fill="green" stroke="green" stroke-width="0.60037" points="1193.37,-92.1861 1189.77,-82.2223 1186.37,-92.2575 1193.37,-92.1861"/>
</g>
<!-- Move Forward -->
<g id="node25" class="node"><title>Move Forward</title>
<ellipse fill="lightblue" stroke="black" cx="1094.5" cy="-55.1543" rx="50.41" ry="50.41"/>
<text text-anchor="middle" x="1094.5" y="-52.9543" font-family="Times,serif" font-size="9.00">Move Forward</text>
</g>
<!-- wallRadar[1,0]&#45;&gt;Move Forward -->
<g id="edge46" class="edge"><title>wallRadar[1,0]&#45;&gt;Move Forward</title>
<path fill="none" stroke="red" stroke-width="0.118953" d="M1182.64,-146.276C1172.53,-135.94 1154.2,-117.198 1136.87,-99.4727"/>
<polygon fill="red" stroke="red" stroke-width="0.118953" points="1139.02,-96.6675 1129.53,-91.9657 1134.02,-101.562 1139.02,-96.6675"/>
</g>
<!--  Move Backward -->
<g id="node26" class="node"><title> Move Backward</title>
<ellipse fill="lightblue" stroke="black" cx="1492.5" cy="-55.1543" rx="55.3091" ry="55.3091"/>
<text text-anchor="middle" x="1492.5" y="-52.9543" font-family="Times,serif" font-size="9.00"> Move Backward</text>
</g>
<!-- wallRadar[1,0]&#45;&gt; Move Backward -->
<g id="edge30" class="edge"><title>wallRadar[1,0]&#45;&gt; Move Backward</title>
<path fill="none" stroke="green" stroke-width="0.44123" d="M1215.21,-146.276C1261.87,-131.112 1364.2,-97.8531 1430.65,-76.2565"/>
<polygon fill="green" stroke="green" stroke-width="0.44123" points="1431.75,-79.5779 1440.18,-73.1583 1429.59,-72.9207 1431.75,-79.5779"/>
</g>
<!-- Move Left -->
<g id="node27" class="node"><title>Move Left</title>
<ellipse fill="lightblue" stroke="black" cx="692.5" cy="-55.1543" rx="38.3684" ry="38.3684"/>
<text text-anchor="middle" x="692.5" y="-52.9543" font-family="Times,serif" font-size="9.00">Move Left</text>
</g>
<!-- wallRadar[1,0]&#45;&gt;Move Left -->
<g id="edge33" class="edge"><title>wallRadar[1,0]&#45;&gt;Move Left</title>
<path fill="none" stroke="red" stroke-width="0.637915" d="M1155.48,-147.407C1067.92,-130.148 839.371,-85.1021 739.9,-65.4967"/>
<polygon fill="red" stroke="red" stroke-width="0.637915" points="740.324,-62.0131 729.836,-63.5132 738.971,-68.881 740.324,-62.0131"/>
</g>
<!-- wallRadar[0,1] -->
<g id="node2" class="node"><title>wallRadar[0,1]</title>
<polygon fill="lightgray" stroke="black" points="863.5,-164.309 793.5,-164.309 793.5,-146.309 863.5,-146.309 863.5,-164.309"/>
<text text-anchor="middle" x="828.5" y="-153.109" font-family="Times,serif" font-size="9.00">wallRadar[0,1]</text>
</g>
<!-- wallRadar[0,1]&#45;&gt;Move Forward -->
<g id="edge44" class="edge"><title>wallRadar[0,1]&#45;&gt;Move Forward</title>
<path fill="none" stroke="red" stroke-width="0.279086" d="M850.268,-146.276C890.935,-131.27 979.619,-98.5454 1038.18,-76.9365"/>
<polygon fill="red" stroke="red" stroke-width="0.279086" points="1039.5,-80.1814 1047.67,-73.4359 1037.07,-73.6142 1039.5,-80.1814"/>
</g>
<!-- wallRadar[0,1]&#45;&gt; Move Backward -->
<g id="edge40" class="edge"><title>wallRadar[0,1]&#45;&gt; Move Backward</title>
<path fill="none" stroke="red" stroke-width="0.334701" d="M863.524,-147.686C866.555,-147.19 869.579,-146.723 872.5,-146.309 1028.64,-124.186 1069.59,-134.011 1225.5,-110.309 1295.6,-99.6511 1375.17,-82.9038 1429.07,-70.8543"/>
<polygon fill="red" stroke="red" stroke-width="0.334701" points="1429.84,-74.269 1438.83,-68.6616 1428.3,-67.4393 1429.84,-74.269"/>
</g>
<!-- wallRadar[0,1]&#45;&gt;Move Left -->
<g id="edge17" class="edge"><title>wallRadar[0,1]&#45;&gt;Move Left</title>
<path fill="none" stroke="green" stroke-width="0.292397" d="M817.371,-146.276C798.836,-132.9 760.795,-105.444 731.544,-84.333"/>
<polygon fill="green" stroke="green" stroke-width="0.292397" points="733.322,-81.3005 723.165,-78.2863 729.226,-86.9766 733.322,-81.3005"/>
</g>
<!-- wallRadar[&#45;1,0] -->
<g id="node3" class="node"><title>wallRadar[&#45;1,0]</title>
<polygon fill="lightgray" stroke="black" points="1586,-164.309 1513,-164.309 1513,-146.309 1586,-146.309 1586,-164.309"/>
<text text-anchor="middle" x="1549.5" y="-153.109" font-family="Times,serif" font-size="9.00">wallRadar[&#45;1,0]</text>
</g>
<!-- wallRadar[&#45;1,0]&#45;&gt;Move Forward -->
<g id="edge1" class="edge"><title>wallRadar[&#45;1,0]&#45;&gt;Move Forward</title>
<path fill="none" stroke="red" stroke-width="0.167621" d="M1512.7,-147.538C1509.93,-147.098 1507.17,-146.683 1504.5,-146.309 1349.2,-124.57 1296.53,-174.597 1153.5,-110.309 1147.28,-107.513 1141.28,-103.801 1135.64,-99.6259"/>
<polygon fill="red" stroke="red" stroke-width="0.167621" points="1137.65,-96.7492 1127.65,-93.2308 1133.27,-102.213 1137.65,-96.7492"/>
</g>
<!-- wallRadar[&#45;1,0]&#45;&gt; Move Backward -->
<g id="edge37" class="edge"><title>wallRadar[&#45;1,0]&#45;&gt; Move Backward</title>
<path fill="none" stroke="green" stroke-width="0.25203" d="M1544.84,-146.276C1540.26,-138.389 1532.83,-125.607 1525,-112.117"/>
<polygon fill="green" stroke="green" stroke-width="0.25203" points="1527.87,-110.084 1519.82,-103.194 1521.81,-113.6 1527.87,-110.084"/>
</g>
<!-- wallRadar[0,&#45;1] -->
<g id="node4" class="node"><title>wallRadar[0,&#45;1]</title>
<polygon fill="lightgray" stroke="black" points="73,-164.309 0,-164.309 0,-146.309 73,-146.309 73,-164.309"/>
<text text-anchor="middle" x="36.5" y="-153.109" font-family="Times,serif" font-size="9.00">wallRadar[0,&#45;1]</text>
</g>
<!-- wallRadar[0,&#45;1]&#45;&gt;Move Left -->
<g id="edge25" class="edge"><title>wallRadar[0,&#45;1]&#45;&gt;Move Left</title>
<path fill="none" stroke="green" stroke-width="0.245552" d="M73.1442,-147.849C76.3069,-147.318 79.4588,-146.798 82.5,-146.309 291.469,-112.701 541.5,-77.231 644.527,-62.8208"/>
<polygon fill="green" stroke="green" stroke-width="0.245552" points="645.195,-66.2616 654.615,-61.4115 644.227,-59.3289 645.195,-66.2616"/>
</g>
<!-- wallRadar[0.7,0.7] -->
<g id="node5" class="node"><title>wallRadar[0.7,0.7]</title>
<polygon fill="lightgray" stroke="black" points="965,-164.309 882,-164.309 882,-146.309 965,-146.309 965,-164.309"/>
<text text-anchor="middle" x="923.5" y="-153.109" font-family="Times,serif" font-size="9.00">wallRadar[0.7,0.7]</text>
</g>
<!-- wallRadar[0.7,0.7]&#45;&gt;Shoot -->
<g id="edge20" class="edge"><title>wallRadar[0.7,0.7]&#45;&gt;Shoot</title>
<path fill="none" stroke="red" stroke-width="0.274962" d="M965.215,-147.189C1029.36,-136.117 1145.68,-115.505 1153.5,-110.309 1161.65,-104.894 1168.4,-96.9394 1173.78,-88.7855"/>
<polygon fill="red" stroke="red" stroke-width="0.274962" points="1176.92,-90.3458 1179.07,-79.97 1170.92,-86.7446 1176.92,-90.3458"/>
</g>
<!-- wallRadar[0.7,0.7]&#45;&gt;Move Forward -->
<g id="edge3" class="edge"><title>wallRadar[0.7,0.7]&#45;&gt;Move Forward</title>
<path fill="none" stroke="green" stroke-width="0.228176" d="M937.494,-146.276C960.142,-133.276 1005.96,-106.978 1042.28,-86.1301"/>
<polygon fill="green" stroke="green" stroke-width="0.228176" points="1044.36,-88.9722 1051.29,-80.9585 1040.87,-82.9012 1044.36,-88.9722"/>
</g>
<!-- wallRadar[0.7,0.7]&#45;&gt; Move Backward -->
<g id="edge5" class="edge"><title>wallRadar[0.7,0.7]&#45;&gt; Move Backward</title>
<path fill="none" stroke="red" stroke-width="0.203249" d="M965.242,-147.715C968.374,-147.234 971.487,-146.761 974.5,-146.309 1085.95,-129.576 1114.45,-129.517 1225.5,-110.309 1295.23,-98.2476 1374.64,-81.7883 1428.61,-70.1907"/>
<polygon fill="red" stroke="red" stroke-width="0.203249" points="1429.68,-73.5404 1438.72,-68.0114 1428.21,-66.6977 1429.68,-73.5404"/>
</g>
<!-- wallRadar[0.7,0.7]&#45;&gt;Move Left -->
<g id="edge26" class="edge"><title>wallRadar[0.7,0.7]&#45;&gt;Move Left</title>
<path fill="none" stroke="green" stroke-width="0.40333" d="M904.596,-146.276C868.255,-130.835 787.761,-96.6315 737.051,-75.0843"/>
<polygon fill="green" stroke="green" stroke-width="0.40333" points="738.209,-71.7739 727.637,-71.0844 735.472,-78.2164 738.209,-71.7739"/>
</g>
<!-- wallRadar[&#45;0.7,0.7] -->
<g id="node6" class="node"><title>wallRadar[&#45;0.7,0.7]</title>
<polygon fill="lightgray" stroke="black" points="565.5,-164.309 479.5,-164.309 479.5,-146.309 565.5,-146.309 565.5,-164.309"/>
<text text-anchor="middle" x="522.5" y="-153.109" font-family="Times,serif" font-size="9.00">wallRadar[&#45;0.7,0.7]</text>
</g>
<!-- wallRadar[&#45;0.7,0.7]&#45;&gt;Shoot -->
<g id="edge6" class="edge"><title>wallRadar[&#45;0.7,0.7]&#45;&gt;Shoot</title>
<path fill="none" stroke="red" stroke-width="0.409856" d="M565.591,-147.372C568.602,-146.982 571.594,-146.622 574.5,-146.309 638.586,-139.401 1097.66,-142.51 1153.5,-110.309 1162.14,-105.327 1169.1,-97.3375 1174.52,-89.0077"/>
<polygon fill="red" stroke="red" stroke-width="0.409856" points="1177.57,-90.7143 1179.6,-80.3162 1171.53,-87.1777 1177.57,-90.7143"/>
</g>
<!-- wallRadar[&#45;0.7,0.7]&#45;&gt;Move Left -->
<g id="edge48" class="edge"><title>wallRadar[&#45;0.7,0.7]&#45;&gt;Move Left</title>
<path fill="none" stroke="red" stroke-width="0.312195" d="M536.412,-146.276C561.048,-132.052 613.255,-101.908 650.504,-80.4017"/>
<polygon fill="red" stroke="red" stroke-width="0.312195" points="652.716,-83.1662 659.626,-75.1349 649.216,-77.1041 652.716,-83.1662"/>
</g>
<!-- wallRadar[&#45;0.7,&#45;0.7] -->
<g id="node7" class="node"><title>wallRadar[&#45;0.7,&#45;0.7]</title>
<polygon fill="lightgray" stroke="black" points="2390,-164.309 2301,-164.309 2301,-146.309 2390,-146.309 2390,-164.309"/>
<text text-anchor="middle" x="2345.5" y="-153.109" font-family="Times,serif" font-size="9.00">wallRadar[&#45;0.7,&#45;0.7]</text>
</g>
<!-- wallRadar[0.7,&#45;0.7] -->
<g id="node8" class="node"><title>wallRadar[0.7,&#45;0.7]</title>
<polygon fill="lightgray" stroke="black" points="1137.5,-164.309 1051.5,-164.309 1051.5,-146.309 1137.5,-146.309 1137.5,-164.309"/>
<text text-anchor="middle" x="1094.5" y="-153.109" font-family="Times,serif" font-size="9.00">wallRadar[0.7,&#45;0.7]</text>
</g>
<!-- wallRadar[0.7,&#45;0.7]&#45;&gt;Shoot -->
<g id="edge28" class="edge"><title>wallRadar[0.7,&#45;0.7]&#45;&gt;Shoot</title>
<path fill="none" stroke="green" stroke-width="0.423665" d="M1108.2,-146.037C1120.88,-137.953 1139.79,-124.78 1153.5,-110.309 1159.93,-103.52 1165.97,-95.4553 1171.2,-87.6509"/>
<polygon fill="green" stroke="green" stroke-width="0.423665" points="1174.27,-89.3378 1176.73,-79.0318 1168.38,-85.5561 1174.27,-89.3378"/>
</g>
<!-- wallRadar[0.7,&#45;0.7]&#45;&gt;Move Forward -->
<g id="edge31" class="edge"><title>wallRadar[0.7,&#45;0.7]&#45;&gt;Move Forward</title>
<path fill="none" stroke="green" stroke-width="0.172995" d="M1094.5,-146.276C1094.5,-139.122 1094.5,-127.942 1094.5,-115.858"/>
<polygon fill="green" stroke="green" stroke-width="0.172995" points="1098,-115.564 1094.5,-105.564 1091,-115.564 1098,-115.564"/>
</g>
<!-- wallRadar[0.7,&#45;0.7]&#45;&gt; Move Backward -->
<g id="edge2" class="edge"><title>wallRadar[0.7,&#45;0.7]&#45;&gt; Move Backward</title>
<path fill="none" stroke="red" stroke-width="0.162271" d="M1127.07,-146.276C1192.97,-130.025 1343.12,-92.9934 1429.04,-71.8041"/>
<polygon fill="red" stroke="red" stroke-width="0.162271" points="1430.07,-75.1567 1438.94,-69.364 1428.39,-68.3603 1430.07,-75.1567"/>
</g>
<!-- wallRadar[0.7,&#45;0.7]&#45;&gt;Move Left -->
<g id="edge8" class="edge"><title>wallRadar[0.7,&#45;0.7]&#45;&gt;Move Left</title>
<path fill="none" stroke="red" stroke-width="0.298952" d="M1061.6,-146.276C990.409,-128.893 821.841,-87.735 739.459,-67.6201"/>
<polygon fill="red" stroke="red" stroke-width="0.298952" points="740.159,-64.1882 729.614,-65.2163 738.498,-70.9884 740.159,-64.1882"/>
</g>
<!-- enemyRadar[RightBack] -->
<g id="node9" class="node"><title>enemyRadar[RightBack]</title>
<polygon fill="lightgray" stroke="black" points="2512.5,-164.309 2408.5,-164.309 2408.5,-146.309 2512.5,-146.309 2512.5,-164.309"/>
<text text-anchor="middle" x="2460.5" y="-153.109" font-family="Times,serif" font-size="9.00">enemyRadar[RightBack]</text>
</g>
<!-- enemyRadar[LeftBack] -->
<g id="node10" class="node"><title>enemyRadar[LeftBack]</title>
<polygon fill="lightgray" stroke="black" points="1703,-164.309 1604,-164.309 1604,-146.309 1703,-146.309 1703,-164.309"/>
<text text-anchor="middle" x="1653.5" y="-153.109" font-family="Times,serif" font-size="9.00">enemyRadar[LeftBack]</text>
</g>
<!-- enemyRadar[LeftBack]&#45;&gt;Move Forward -->
<g id="edge43" class="edge"><title>enemyRadar[LeftBack]&#45;&gt;Move Forward</title>
<path fill="none" stroke="green" stroke-width="0.299318" d="M1603.85,-147.275C1601.03,-146.933 1598.23,-146.608 1595.5,-146.309 1497.54,-135.572 1243.8,-149.765 1153.5,-110.309 1147.25,-107.578 1141.23,-103.906 1135.58,-99.7538"/>
<polygon fill="green" stroke="green" stroke-width="0.299318" points="1137.59,-96.8764 1127.59,-93.3797 1133.22,-102.35 1137.59,-96.8764"/>
</g>
<!-- enemyRadar[LeftBack]&#45;&gt; Move Backward -->
<g id="edge24" class="edge"><title>enemyRadar[LeftBack]&#45;&gt; Move Backward</title>
<path fill="none" stroke="red" stroke-width="0.147861" d="M1640.32,-146.276C1620.33,-134.088 1581.17,-110.21 1548.17,-90.094"/>
<polygon fill="red" stroke="red" stroke-width="0.147861" points="1549.85,-87.0194 1539.49,-84.8023 1546.21,-92.9962 1549.85,-87.0194"/>
</g>
<!-- enemyRadar[Right45ø] -->
<g id="node11" class="node"><title>enemyRadar[Right45ø]</title>
<polygon fill="lightgray" stroke="black" points="2010.5,-164.309 1910.5,-164.309 1910.5,-146.309 2010.5,-146.309 2010.5,-164.309"/>
<text text-anchor="middle" x="1960.5" y="-153.109" font-family="Times,serif" font-size="9.00">enemyRadar[Right45ø]</text>
</g>
<!-- enemyRadar[Right45ø]&#45;&gt; Move Backward -->
<g id="edge22" class="edge"><title>enemyRadar[Right45ø]&#45;&gt; Move Backward</title>
<path fill="none" stroke="red" stroke-width="0.125616" d="M1922.2,-146.276C1841.89,-129.433 1655.16,-90.27 1556.39,-69.555"/>
<polygon fill="red" stroke="red" stroke-width="0.125616" points="1557.04,-66.1149 1546.54,-67.4876 1555.61,-72.9658 1557.04,-66.1149"/>
</g>
<!-- enemyRadar[Left45ø] -->
<g id="node12" class="node"><title>enemyRadar[Left45ø]</title>
<polygon fill="lightgray" stroke="black" points="327,-164.309 232,-164.309 232,-146.309 327,-146.309 327,-164.309"/>
<text text-anchor="middle" x="279.5" y="-153.109" font-family="Times,serif" font-size="9.00">enemyRadar[Left45ø]</text>
</g>
<!-- enemyRadar[Left45ø]&#45;&gt;Move Forward -->
<g id="edge15" class="edge"><title>enemyRadar[Left45ø]&#45;&gt;Move Forward</title>
<path fill="none" stroke="red" stroke-width="0.33785" d="M327.061,-147.437C330.253,-147.037 333.422,-146.656 336.5,-146.309 523.11,-125.25 571.109,-133.222 757.5,-110.309 855.26,-98.2908 968.142,-79.049 1035.3,-67.0305"/>
<polygon fill="red" stroke="red" stroke-width="0.33785" points="1036.04,-70.4521 1045.27,-65.2387 1034.81,-63.5624 1036.04,-70.4521"/>
</g>
<!-- enemyRadar[Left45ø]&#45;&gt;Move Left -->
<g id="edge35" class="edge"><title>enemyRadar[Left45ø]&#45;&gt;Move Left</title>
<path fill="none" stroke="red" stroke-width="0.201701" d="M313.298,-146.276C386.884,-128.788 561.729,-87.2337 645.79,-67.2556"/>
<polygon fill="red" stroke="red" stroke-width="0.201701" points="646.658,-70.6467 655.578,-64.9293 645.04,-63.8364 646.658,-70.6467"/>
</g>
<!-- enemyRadar[RightFront20ø] -->
<g id="node13" class="node"><title>enemyRadar[RightFront20ø]</title>
<polygon fill="lightgray" stroke="black" points="1495,-164.309 1376,-164.309 1376,-146.309 1495,-146.309 1495,-164.309"/>
<text text-anchor="middle" x="1435.5" y="-153.109" font-family="Times,serif" font-size="9.00">enemyRadar[RightFront20ø]</text>
</g>
<!-- enemyRadar[RightFront20ø]&#45;&gt;Shoot -->
<g id="edge38" class="edge"><title>enemyRadar[RightFront20ø]&#45;&gt;Shoot</title>
<path fill="none" stroke="green" stroke-width="0.314277" d="M1415.37,-146.276C1373.33,-129.501 1275.79,-90.5847 1223.71,-69.8058"/>
<polygon fill="green" stroke="green" stroke-width="0.314277" points="1224.82,-66.4803 1214.24,-66.0251 1222.23,-72.9818 1224.82,-66.4803"/>
</g>
<!-- enemyRadar[RightFront20ø]&#45;&gt;Move Forward -->
<g id="edge10" class="edge"><title>enemyRadar[RightFront20ø]&#45;&gt;Move Forward</title>
<path fill="none" stroke="red" stroke-width="0.370836" d="M1375.85,-146.874C1299.07,-137.016 1173.14,-119.766 1153.5,-110.309 1147.36,-107.351 1141.4,-103.538 1135.79,-99.3072"/>
<polygon fill="red" stroke="red" stroke-width="0.370836" points="1137.8,-96.4329 1127.82,-92.86 1133.39,-101.873 1137.8,-96.4329"/>
</g>
<!-- enemyRadar[RightFront20ø]&#45;&gt; Move Backward -->
<g id="edge39" class="edge"><title>enemyRadar[RightFront20ø]&#45;&gt; Move Backward</title>
<path fill="none" stroke="red" stroke-width="0.265037" d="M1440.16,-146.276C1444.74,-138.389 1452.17,-125.607 1460,-112.117"/>
<polygon fill="red" stroke="red" stroke-width="0.265037" points="1463.19,-113.6 1465.18,-103.194 1457.13,-110.084 1463.19,-113.6"/>
</g>
<!-- enemyRadar[LeftFront20ø] -->
<g id="node14" class="node"><title>enemyRadar[LeftFront20ø]</title>
<polygon fill="lightgray" stroke="black" points="697.5,-164.309 583.5,-164.309 583.5,-146.309 697.5,-146.309 697.5,-164.309"/>
<text text-anchor="middle" x="640.5" y="-153.109" font-family="Times,serif" font-size="9.00">enemyRadar[LeftFront20ø]</text>
</g>
<!-- enemyRadar[LeftFront20ø]&#45;&gt;Shoot -->
<g id="edge13" class="edge"><title>enemyRadar[LeftFront20ø]&#45;&gt;Shoot</title>
<path fill="none" stroke="green" stroke-width="0.15139" d="M697.722,-147.23C700.689,-146.907 703.629,-146.598 706.5,-146.309 805.652,-136.311 1067.63,-160.88 1153.5,-110.309 1162.09,-105.249 1169.04,-97.2344 1174.46,-88.9065"/>
<polygon fill="green" stroke="green" stroke-width="0.15139" points="1177.51,-90.6212 1179.55,-80.2251 1171.47,-87.0784 1177.51,-90.6212"/>
</g>
<!-- enemyRadar[LeftFront20ø]&#45;&gt;Move Left -->
<g id="edge7" class="edge"><title>enemyRadar[LeftFront20ø]&#45;&gt;Move Left</title>
<path fill="none" stroke="green" stroke-width="0.529478" d="M644.755,-146.276C650.332,-135.749 660.529,-116.503 670.071,-98.4911"/>
<polygon fill="green" stroke="green" stroke-width="0.529478" points="673.385,-99.7124 674.973,-89.2374 667.199,-96.4354 673.385,-99.7124"/>
</g>
<!-- enemyRadar[RightFront15ø] -->
<g id="node15" class="node"><title>enemyRadar[RightFront15ø]</title>
<polygon fill="lightgray" stroke="black" points="2148,-164.309 2029,-164.309 2029,-146.309 2148,-146.309 2148,-164.309"/>
<text text-anchor="middle" x="2088.5" y="-153.109" font-family="Times,serif" font-size="9.00">enemyRadar[RightFront15ø]</text>
</g>
<!-- enemyRadar[RightFront15ø]&#45;&gt; Move Backward -->
<g id="edge41" class="edge"><title>enemyRadar[RightFront15ø]&#45;&gt; Move Backward</title>
<path fill="none" stroke="red" stroke-width="0.469066" d="M2039.73,-146.276C1932.75,-128.659 1677.49,-86.6204 1557.25,-66.8178"/>
<polygon fill="red" stroke="red" stroke-width="0.469066" points="1557.52,-63.3158 1547.09,-65.1442 1556.39,-70.2227 1557.52,-63.3158"/>
</g>
<!-- enemyRadar[LeftFront15ø] -->
<g id="node16" class="node"><title>enemyRadar[LeftFront15ø]</title>
<polygon fill="lightgray" stroke="black" points="1357.5,-164.309 1243.5,-164.309 1243.5,-146.309 1357.5,-146.309 1357.5,-164.309"/>
<text text-anchor="middle" x="1300.5" y="-153.109" font-family="Times,serif" font-size="9.00">enemyRadar[LeftFront15ø]</text>
</g>
<!-- enemyRadar[LeftFront15ø]&#45;&gt;Shoot -->
<g id="edge42" class="edge"><title>enemyRadar[LeftFront15ø]&#45;&gt;Shoot</title>
<path fill="none" stroke="green" stroke-width="0.182667" d="M1291.42,-146.276C1275.34,-132.064 1241.3,-101.96 1216.98,-80.4569"/>
<polygon fill="green" stroke="green" stroke-width="0.182667" points="1219.27,-77.811 1209.46,-73.8086 1214.64,-83.0549 1219.27,-77.811"/>
</g>
<!-- enemyRadar[RightFront7.5ø] -->
<g id="node17" class="node"><title>enemyRadar[RightFront7.5ø]</title>
<polygon fill="lightgray" stroke="black" points="213.5,-164.309 91.5,-164.309 91.5,-146.309 213.5,-146.309 213.5,-164.309"/>
<text text-anchor="middle" x="152.5" y="-153.109" font-family="Times,serif" font-size="9.00">enemyRadar[RightFront7.5ø]</text>
</g>
<!-- enemyRadar[RightFront7.5ø]&#45;&gt;Move Forward -->
<g id="edge16" class="edge"><title>enemyRadar[RightFront7.5ø]&#45;&gt;Move Forward</title>
<path fill="none" stroke="green" stroke-width="0.277275" d="M213.566,-147.16C216.586,-146.86 219.576,-146.574 222.5,-146.309 459.84,-124.773 520.711,-137.243 757.5,-110.309 855.365,-99.1767 968.215,-79.6704 1035.33,-67.3574"/>
<polygon fill="green" stroke="green" stroke-width="0.277275" points="1036.1,-70.7751 1045.3,-65.5201 1034.83,-63.8911 1036.1,-70.7751"/>
</g>
<!-- enemyRadar[RightFront7.5ø]&#45;&gt;Move Left -->
<g id="edge4" class="edge"><title>enemyRadar[RightFront7.5ø]&#45;&gt;Move Left</title>
<path fill="none" stroke="red" stroke-width="0.129102" d="M196.69,-146.276C297.125,-128.021 541.82,-83.543 645.179,-64.7557"/>
<polygon fill="red" stroke="red" stroke-width="0.129102" points="645.811,-68.1983 655.024,-62.9663 644.559,-61.3112 645.811,-68.1983"/>
</g>
<!-- enemyRadar[LeftFront7.5ø] -->
<g id="node18" class="node"><title>enemyRadar[LeftFront7.5ø]</title>
<polygon fill="lightgray" stroke="black" points="461.5,-164.309 345.5,-164.309 345.5,-146.309 461.5,-146.309 461.5,-164.309"/>
<text text-anchor="middle" x="403.5" y="-153.109" font-family="Times,serif" font-size="9.00">enemyRadar[LeftFront7.5ø]</text>
</g>
<!-- enemyRadar[LeftFront7.5ø]&#45;&gt;Shoot -->
<g id="edge45" class="edge"><title>enemyRadar[LeftFront7.5ø]&#45;&gt;Shoot</title>
<path fill="none" stroke="red" stroke-width="0.223336" d="M461.58,-147.135C464.595,-146.838 467.582,-146.559 470.5,-146.309 546.215,-139.8 1087.49,-147.962 1153.5,-110.309 1162.16,-105.368 1169.13,-97.3909 1174.55,-89.0603"/>
<polygon fill="red" stroke="red" stroke-width="0.223336" points="1177.6,-90.7626 1179.63,-80.3634 1171.56,-87.2292 1177.6,-90.7626"/>
</g>
<!-- enemyRadar[LeftFront7.5ø]&#45;&gt;Move Forward -->
<g id="edge36" class="edge"><title>enemyRadar[LeftFront7.5ø]&#45;&gt;Move Forward</title>
<path fill="none" stroke="red" stroke-width="0.324133" d="M461.503,-147.355C546.748,-137.091 701.782,-118.246 757.5,-110.309 855.012,-96.4183 967.968,-77.7356 1035.2,-66.3395"/>
<polygon fill="red" stroke="red" stroke-width="0.324133" points="1035.92,-69.7688 1045.19,-64.6437 1034.74,-62.8676 1035.92,-69.7688"/>
</g>
<!-- enemyRadar[LeftFront7.5ø]&#45;&gt;Move Left -->
<g id="edge18" class="edge"><title>enemyRadar[LeftFront7.5ø]&#45;&gt;Move Left</title>
<path fill="none" stroke="red" stroke-width="0.404948" d="M427.15,-146.276C475.136,-129.979 584.654,-92.7824 646.954,-71.6235"/>
<polygon fill="red" stroke="red" stroke-width="0.404948" points="648.187,-74.901 656.53,-68.371 645.936,-68.2729 648.187,-74.901"/>
</g>
<!-- enemyRadar[RightFront2.5ø] -->
<g id="node19" class="node"><title>enemyRadar[RightFront2.5ø]</title>
<polygon fill="lightgray" stroke="black" points="1892.5,-164.309 1770.5,-164.309 1770.5,-146.309 1892.5,-146.309 1892.5,-164.309"/>
<text text-anchor="middle" x="1831.5" y="-153.109" font-family="Times,serif" font-size="9.00">enemyRadar[RightFront2.5ø]</text>
</g>
<!-- enemyRadar[RightFront2.5ø]&#45;&gt;Shoot -->
<g id="edge47" class="edge"><title>enemyRadar[RightFront2.5ø]&#45;&gt;Shoot</title>
<path fill="none" stroke="green" stroke-width="0.229747" d="M1770.42,-147.306C1767.4,-146.967 1764.42,-146.633 1761.5,-146.309 1613.55,-129.857 1575.33,-134.797 1428.5,-110.309 1355.74,-98.1735 1271.9,-77.6345 1225.37,-65.6421"/>
<polygon fill="green" stroke="green" stroke-width="0.229747" points="1226.03,-62.1981 1215.48,-63.0751 1224.28,-68.9739 1226.03,-62.1981"/>
</g>
<!-- enemyRadar[RightFront2.5ø]&#45;&gt; Move Backward -->
<g id="edge21" class="edge"><title>enemyRadar[RightFront2.5ø]&#45;&gt; Move Backward</title>
<path fill="none" stroke="green" stroke-width="0.213803" d="M1803.76,-146.276C1749.73,-130.633 1629.21,-95.7366 1554.99,-74.2482"/>
<polygon fill="green" stroke="green" stroke-width="0.213803" points="1555.86,-70.8572 1545.29,-71.4379 1553.92,-77.5811 1555.86,-70.8572"/>
</g>
<!-- enemyRadar[LeftFront2.5ø] -->
<g id="node20" class="node"><title>enemyRadar[LeftFront2.5ø]</title>
<polygon fill="lightgray" stroke="black" points="2282.5,-164.309 2166.5,-164.309 2166.5,-146.309 2282.5,-146.309 2282.5,-164.309"/>
<text text-anchor="middle" x="2224.5" y="-153.109" font-family="Times,serif" font-size="9.00">enemyRadar[LeftFront2.5ø]</text>
</g>
<!-- enemyRadar[LeftFront2.5ø]&#45;&gt; Move Backward -->
<g id="edge32" class="edge"><title>enemyRadar[LeftFront2.5ø]&#45;&gt; Move Backward</title>
<path fill="none" stroke="red" stroke-width="0.18267" d="M2166.45,-146.525C2031.69,-128.454 1698.39,-83.7627 1557.28,-64.8406"/>
<polygon fill="red" stroke="red" stroke-width="0.18267" points="1557.43,-61.3294 1547.05,-63.4693 1556.5,-68.2673 1557.43,-61.3294"/>
</g>
<!-- OnTarget -->
<g id="node21" class="node"><title>OnTarget</title>
<polygon fill="lightgray" stroke="black" points="1033.5,-164.309 983.5,-164.309 983.5,-146.309 1033.5,-146.309 1033.5,-164.309"/>
<text text-anchor="middle" x="1008.5" y="-153.109" font-family="Times,serif" font-size="9.00">OnTarget</text>
</g>
<!-- OnTarget&#45;&gt; Move Backward -->
<g id="edge19" class="edge"><title>OnTarget&#45;&gt; Move Backward</title>
<path fill="none" stroke="red" stroke-width="0.410916" d="M1033.73,-148.264C1036.68,-147.588 1039.65,-146.923 1042.5,-146.309 1123.52,-128.813 1144.21,-126.547 1225.5,-110.309 1294.89,-96.4464 1374.37,-80.2912 1428.44,-69.2574"/>
<polygon fill="red" stroke="red" stroke-width="0.410916" points="1429.47,-72.6192 1438.57,-67.1899 1428.07,-65.7606 1429.47,-72.6192"/>
</g>
<!-- OnTarget&#45;&gt;Move Left -->
<g id="edge27" class="edge"><title>OnTarget&#45;&gt;Move Left</title>
<path fill="none" stroke="red" stroke-width="0.275682" d="M983.44,-146.525C930.36,-130.037 805.932,-91.3881 738.27,-70.3711"/>
<polygon fill="red" stroke="red" stroke-width="0.275682" points="739.302,-67.0269 728.714,-67.4029 737.226,-73.7118 739.302,-67.0269"/>
</g>
<!-- TakingDmg -->
<g id="node22" class="node"><title>TakingDmg</title>
<polygon fill="lightgray" stroke="black" points="775,-164.309 716,-164.309 716,-146.309 775,-146.309 775,-164.309"/>
<text text-anchor="middle" x="745.5" y="-153.109" font-family="Times,serif" font-size="9.00">TakingDmg</text>
</g>
<!-- TakingDmg&#45;&gt; Move Backward -->
<g id="edge29" class="edge"><title>TakingDmg&#45;&gt; Move Backward</title>
<path fill="none" stroke="green" stroke-width="0.259638" d="M775.246,-147.821C778.362,-147.257 781.489,-146.739 784.5,-146.309 979.176,-118.5 1030.79,-137.902 1225.5,-110.309 1295.71,-100.359 1375.25,-83.4905 1429.12,-71.219"/>
<polygon fill="green" stroke="green" stroke-width="0.259638" points="1429.91,-74.6296 1438.87,-68.9838 1428.34,-67.8065 1429.91,-74.6296"/>
</g>
<!-- TakingDmg&#45;&gt;Move Left -->
<g id="edge11" class="edge"><title>TakingDmg&#45;&gt;Move Left</title>
<path fill="none" stroke="green" stroke-width="0.386237" d="M741.163,-146.276C735.479,-135.749 725.086,-116.503 715.36,-98.4911"/>
<polygon fill="green" stroke="green" stroke-width="0.386237" points="718.195,-96.3736 710.364,-89.2374 712.035,-99.6995 718.195,-96.3736"/>
</g>
<!-- bias -->
<g id="node23" class="node"><title>bias</title>
<polygon fill="lightgray" stroke="black" points="1752,-164.309 1721,-164.309 1721,-146.309 1752,-146.309 1752,-164.309"/>
<text text-anchor="middle" x="1736.5" y="-153.109" font-family="Times,serif" font-size="9.00">bias</text>
</g>
<!-- bias&#45;&gt;Shoot -->
<g id="edge34" class="edge"><title>bias&#45;&gt;Shoot</title>
<path fill="none" stroke="red" stroke-width="0.147235" d="M1720.87,-148.612C1718.11,-147.745 1715.24,-146.933 1712.5,-146.309 1588.44,-118.056 1553.8,-132.393 1428.5,-110.309 1355.85,-97.5047 1271.98,-77.2029 1225.41,-65.4331"/>
<polygon fill="red" stroke="red" stroke-width="0.147235" points="1226.06,-61.9869 1215.5,-62.916 1224.33,-68.7713 1226.06,-61.9869"/>
</g>
<!-- bias&#45;&gt;Move Forward -->
<g id="edge9" class="edge"><title>bias&#45;&gt;Move Forward</title>
<path fill="none" stroke="green" stroke-width="0.408237" d="M1720.91,-148.469C1718.14,-147.618 1715.26,-146.848 1712.5,-146.309 1590.33,-122.429 1267.99,-159.179 1153.5,-110.309 1147.23,-107.631 1141.19,-103.992 1135.54,-99.8579"/>
<polygon fill="green" stroke="green" stroke-width="0.408237" points="1137.54,-96.98 1127.53,-93.5008 1133.19,-102.461 1137.54,-96.98"/>
</g>
<!-- bias&#45;&gt; Move Backward -->
<g id="edge12" class="edge"><title>bias&#45;&gt; Move Backward</title>
<path fill="none" stroke="red" stroke-width="0.139108" d="M1720.87,-148.019C1687.66,-134.66 1608.56,-102.843 1552.8,-80.4128"/>
<polygon fill="red" stroke="red" stroke-width="0.139108" points="1553.96,-77.1046 1543.37,-76.6196 1551.35,-83.5989 1553.96,-77.1046"/>
</g>
<!-- Move Left&#45;&gt;Move Left -->
<g id="edge23" class="edge"><title>Move Left&#45;&gt;Move Left</title>
<path fill="none" stroke="green" stroke-width="0.331846" d="M725.954,-73.8631C738.421,-74.4765 748.684,-68.2403 748.684,-55.1543 748.684,-45.9533 743.61,-40.1386 736.264,-37.7103"/>
<polygon fill="green" stroke="green" stroke-width="0.331846" points="736.306,-34.1893 725.954,-36.4455 735.454,-41.1372 736.306,-34.1893"/>
</g>
</g>
</svg>
