<?xml version="1.0" encoding="UTF-8" standalone="no"?>
<!DOCTYPE svg PUBLIC "-//W3C//DTD SVG 1.1//EN"
 "http://www.w3.org/Graphics/SVG/1.1/DTD/svg11.dtd">
<!-- Generated by graphviz version 2.38.0 (20140413.2041)
 -->
<!-- Title: %3 Pages: 1 -->
<svg width="2505pt" height="583pt"
 viewBox="0.00 0.00 2504.74 582.95" xmlns="http://www.w3.org/2000/svg" xmlns:xlink="http://www.w3.org/1999/xlink">
<g id="graph0" class="graph" transform="scale(1 1) rotate(0) translate(4 578.95)">
<title>%3</title>
<polygon fill="white" stroke="none" points="-4,4 -4,-578.95 2500.74,-578.95 2500.74,4 -4,4"/>
<!-- wallRadar[1,0] -->
<g id="node1" class="node"><title>wallRadar[1,0]</title>
<polygon fill="lightgray" stroke="black" points="96.2557,-383.642 26.2557,-383.642 26.2557,-365.642 96.2557,-365.642 96.2557,-383.642"/>
<text text-anchor="middle" x="61.2557" y="-372.442" font-family="Times,serif" font-size="9.00">wallRadar[1,0]</text>
</g>
<!-- Shoot -->
<g id="node24" class="node"><title>Shoot</title>
<ellipse fill="lightblue" stroke="black" cx="666.256" cy="-236.818" rx="26.7407" ry="26.7407"/>
<text text-anchor="middle" x="666.256" y="-234.618" font-family="Times,serif" font-size="9.00">Shoot</text>
</g>
<!-- wallRadar[1,0]&#45;&gt;Shoot -->
<g id="edge1" class="edge"><title>wallRadar[1,0]&#45;&gt;Shoot</title>
<path fill="none" stroke="red" stroke-width="0.44314" d="M66.0693,-365.408C73.7221,-353.144 89.9012,-330.359 110.256,-319.487 201.035,-270.999 519.808,-246.964 629.132,-240.009"/>
<polygon fill="red" stroke="red" stroke-width="0.44314" points="629.579,-243.488 639.341,-239.371 629.142,-236.502 629.579,-243.488"/>
</g>
<!-- Move Forward/Backward -->
<g id="node25" class="node"><title>Move Forward/Backward</title>
<ellipse fill="lightblue" stroke="black" cx="1331.26" cy="-77.0746" rx="77.1494" ry="77.1494"/>
<text text-anchor="middle" x="1331.26" y="-74.8746" font-family="Times,serif" font-size="9.00">Move Forward/Backward</text>
</g>
<!-- wallRadar[1,0]&#45;&gt;Move Forward/Backward -->
<g id="edge2" class="edge"><title>wallRadar[1,0]&#45;&gt;Move Forward/Backward</title>
<path fill="none" stroke="red" stroke-width="0.58535" stroke-dasharray="1,5" d="M68.3724,-365.28C78.1958,-354.04 96.7973,-333.817 115.256,-319.487 204.547,-250.167 227.05,-225.998 334.256,-190.149 502.37,-133.933 1033.42,-96.261 1244,-83.1825"/>
<polygon fill="red" stroke="red" stroke-width="0.58535" points="1244.32,-86.6695 1254.08,-82.5597 1243.89,-79.6828 1244.32,-86.6695"/>
</g>
<!-- wallRadar[0,1] -->
<g id="node2" class="node"><title>wallRadar[0,1]</title>
<polygon fill="lightgray" stroke="black" points="1272.26,-502.373 1202.26,-502.373 1202.26,-484.373 1272.26,-484.373 1272.26,-502.373"/>
<text text-anchor="middle" x="1237.26" y="-491.173" font-family="Times,serif" font-size="9.00">wallRadar[0,1]</text>
</g>
<!-- wallRadar[0,1]&#45;&gt;Shoot -->
<g id="edge3" class="edge"><title>wallRadar[0,1]&#45;&gt;Shoot</title>
<path fill="none" stroke="green" stroke-width="0.157834" stroke-dasharray="1,5" d="M1209.38,-484.339C1189.4,-478.734 1161.79,-471.302 1137.26,-465.796 1050.84,-446.407 1017.73,-474.467 941.256,-429.796 886.131,-397.598 900.166,-358.005 849.256,-319.487 803.412,-284.802 740.509,-260.869 701.668,-248.257"/>
<polygon fill="green" stroke="green" stroke-width="0.157834" points="702.451,-244.834 691.861,-245.148 700.335,-251.506 702.451,-244.834"/>
</g>
<!-- wallRadar[0,1]&#45;&gt;Move Forward/Backward -->
<g id="edge4" class="edge"><title>wallRadar[0,1]&#45;&gt;Move Forward/Backward</title>
<path fill="none" stroke="red" stroke-width="0.524266" d="M1243.16,-484.337C1251.28,-472.854 1265.76,-450.808 1273.26,-429.796 1304.44,-342.395 1318.99,-236.712 1325.7,-164.149"/>
<polygon fill="red" stroke="red" stroke-width="0.524266" points="1329.19,-164.407 1326.59,-154.136 1322.22,-163.784 1329.19,-164.407"/>
</g>
<!--  Move Left/Right -->
<g id="node26" class="node"><title> Move Left/Right</title>
<ellipse fill="lightblue" stroke="black" cx="1490.26" cy="-374.642" rx="55.3091" ry="55.3091"/>
<text text-anchor="middle" x="1490.26" y="-372.442" font-family="Times,serif" font-size="9.00"> Move Left/Right</text>
</g>
<!-- wallRadar[0,1]&#45;&gt; Move Left/Right -->
<g id="edge5" class="edge"><title>wallRadar[0,1]&#45;&gt; Move Left/Right</title>
<path fill="none" stroke="red" stroke-width="0.923968" stroke-dasharray="1,5" d="M1249.21,-484.235C1257.86,-478.581 1269.96,-471.133 1281.26,-465.796 1324.72,-445.261 1339.05,-448.69 1383.26,-429.796 1399.66,-422.785 1417.07,-414.4 1432.97,-406.347"/>
<polygon fill="red" stroke="red" stroke-width="0.923968" points="1434.84,-409.326 1442.15,-401.657 1431.65,-403.094 1434.84,-409.326"/>
</g>
<!-- wallRadar[&#45;1,0] -->
<g id="node3" class="node"><title>wallRadar[&#45;1,0]</title>
<polygon fill="lightgray" stroke="black" points="1264.76,-383.642 1191.76,-383.642 1191.76,-365.642 1264.76,-365.642 1264.76,-383.642"/>
<text text-anchor="middle" x="1228.26" y="-372.442" font-family="Times,serif" font-size="9.00">wallRadar[&#45;1,0]</text>
</g>
<!-- wallRadar[&#45;1,0]&#45;&gt;Shoot -->
<g id="edge6" class="edge"><title>wallRadar[&#45;1,0]&#45;&gt;Shoot</title>
<path fill="none" stroke="red" stroke-width="0.169578" stroke-dasharray="1,5" d="M1223.85,-365.439C1216.82,-353.215 1201.83,-330.483 1182.26,-319.487 1099.5,-273 807.119,-247.934 703.226,-240.338"/>
<polygon fill="red" stroke="red" stroke-width="0.169578" points="703.43,-236.844 693.205,-239.617 702.928,-243.826 703.43,-236.844"/>
</g>
<!-- Turn left/right -->
<g id="node27" class="node"><title>Turn left/right</title>
<ellipse fill="lightblue" stroke="black" cx="1840.26" cy="-236.818" rx="46.8387" ry="46.8387"/>
<text text-anchor="middle" x="1840.26" y="-234.618" font-family="Times,serif" font-size="9.00">Turn left/right</text>
</g>
<!-- wallRadar[&#45;1,0]&#45;&gt;Turn left/right -->
<g id="edge7" class="edge"><title>wallRadar[&#45;1,0]&#45;&gt;Turn left/right</title>
<path fill="none" stroke="green" stroke-width="0.403072" stroke-dasharray="1,5" d="M1233,-365.635C1240.85,-353.235 1257.82,-329.748 1279.26,-319.487 1372.34,-274.925 1642.44,-309.703 1742.26,-283.487 1758.64,-279.183 1775.66,-272.237 1790.82,-265.046"/>
<polygon fill="green" stroke="green" stroke-width="0.403072" points="1792.55,-268.095 1800,-260.559 1789.48,-261.806 1792.55,-268.095"/>
</g>
<!-- wallRadar[0,&#45;1] -->
<g id="node4" class="node"><title>wallRadar[0,&#45;1]</title>
<polygon fill="lightgray" stroke="black" points="534.756,-502.373 461.756,-502.373 461.756,-484.373 534.756,-484.373 534.756,-502.373"/>
<text text-anchor="middle" x="498.256" y="-491.173" font-family="Times,serif" font-size="9.00">wallRadar[0,&#45;1]</text>
</g>
<!-- wallRadar[0,&#45;1]&#45;&gt;Shoot -->
<g id="edge51" class="edge"><title>wallRadar[0,&#45;1]&#45;&gt;Shoot</title>
<path fill="none" stroke="green" stroke-width="0.270889" stroke-dasharray="1,5" d="M490.844,-484.241C481.141,-472.987 464.623,-451.578 458.256,-429.796 444.501,-382.739 430.641,-359.997 458.256,-319.487 496.732,-263.044 580.681,-245.609 629.347,-240.224"/>
<polygon fill="green" stroke="green" stroke-width="0.270889" points="629.852,-243.691 639.458,-239.223 629.162,-236.725 629.852,-243.691"/>
</g>
<!-- 16621 -->
<g id="node31" class="node"><title>16621</title>
<ellipse fill="white" stroke="black" cx="518.256" cy="-374.642" rx="27.6545" ry="27.6545"/>
<text text-anchor="middle" x="518.256" y="-372.442" font-family="Times,serif" font-size="9.00">16621</text>
</g>
<!-- wallRadar[0,&#45;1]&#45;&gt;16621 -->
<g id="edge65" class="edge"><title>wallRadar[0,&#45;1]&#45;&gt;16621</title>
<path fill="none" stroke="green" stroke-width="0.27035" d="M499.63,-484.35C502.144,-469.682 507.623,-437.702 511.991,-412.205"/>
<polygon fill="green" stroke="green" stroke-width="0.27035" points="515.484,-412.545 513.723,-402.098 508.584,-411.363 515.484,-412.545"/>
</g>
<!-- 13586 -->
<g id="node33" class="node"><title>13586</title>
<ellipse fill="white" stroke="black" cx="591.256" cy="-374.642" rx="27.6545" ry="27.6545"/>
<text text-anchor="middle" x="591.256" y="-372.442" font-family="Times,serif" font-size="9.00">13586</text>
</g>
<!-- wallRadar[0,&#45;1]&#45;&gt;13586 -->
<g id="edge61" class="edge"><title>wallRadar[0,&#45;1]&#45;&gt;13586</title>
<path fill="none" stroke="green" stroke-width="0.106263" d="M506.423,-484.228C517.891,-472.615 539.161,-450.417 555.256,-429.796 560.798,-422.696 566.382,-414.761 571.443,-407.202"/>
<polygon fill="green" stroke="green" stroke-width="0.106263" points="574.546,-408.853 577.112,-398.574 568.696,-405.01 574.546,-408.853"/>
</g>
<!-- wallRadar[0.7,0.7] -->
<g id="node5" class="node"><title>wallRadar[0.7,0.7]</title>
<polygon fill="lightgray" stroke="black" points="882.756,-502.373 799.756,-502.373 799.756,-484.373 882.756,-484.373 882.756,-502.373"/>
<text text-anchor="middle" x="841.256" y="-491.173" font-family="Times,serif" font-size="9.00">wallRadar[0.7,0.7]</text>
</g>
<!-- wallRadar[0.7,0.7]&#45;&gt;Shoot -->
<g id="edge8" class="edge"><title>wallRadar[0.7,0.7]&#45;&gt;Shoot</title>
<path fill="none" stroke="green" stroke-width="0.298581" stroke-dasharray="1,5" d="M842.831,-484.249C847.487,-457.81 858.688,-372.856 822.256,-319.487 794.213,-278.408 738.802,-256.556 702.138,-246.085"/>
<polygon fill="green" stroke="green" stroke-width="0.298581" points="702.9,-242.665 692.333,-243.427 701.069,-249.421 702.9,-242.665"/>
</g>
<!-- wallRadar[0.7,0.7]&#45;&gt; Move Left/Right -->
<g id="edge9" class="edge"><title>wallRadar[0.7,0.7]&#45;&gt; Move Left/Right</title>
<path fill="none" stroke="red" stroke-width="0.331662" stroke-dasharray="1,5" d="M852.98,-484.327C862.749,-478.081 877.276,-469.828 891.256,-465.796 1101.92,-405.036 1171.99,-488.443 1383.26,-429.796 1400.61,-424.978 1418.46,-417.231 1434.48,-409.085"/>
<polygon fill="red" stroke="red" stroke-width="0.331662" points="1436.45,-412.003 1443.69,-404.262 1433.21,-405.802 1436.45,-412.003"/>
</g>
<!-- wallRadar[0.7,0.7]&#45;&gt;Turn left/right -->
<g id="edge10" class="edge"><title>wallRadar[0.7,0.7]&#45;&gt;Turn left/right</title>
<path fill="none" stroke="red" stroke-width="0.101528" stroke-dasharray="1,5" d="M853.393,-484.123C863.165,-477.937 877.492,-469.865 891.256,-465.796 1069.22,-413.184 1137.57,-504.946 1307.26,-429.796 1373.19,-400.593 1360.72,-349.582 1426.26,-319.487 1554.71,-260.501 1606.2,-321.839 1742.26,-283.487 1758.41,-278.933 1775.24,-271.986 1790.3,-264.875"/>
<polygon fill="red" stroke="red" stroke-width="0.101528" points="1791.96,-267.961 1799.43,-260.446 1788.9,-261.663 1791.96,-267.961"/>
</g>
<!-- wallRadar[0.7,0.7]&#45;&gt;16621 -->
<g id="edge71" class="edge"><title>wallRadar[0.7,0.7]&#45;&gt;16621</title>
<path fill="none" stroke="red" stroke-width="0.121292" d="M799.619,-485.081C725.012,-471.753 574.414,-443.569 554.256,-429.796 546.383,-424.417 539.787,-416.694 534.482,-408.758"/>
<polygon fill="red" stroke="red" stroke-width="0.121292" points="537.432,-406.873 529.233,-400.164 531.459,-410.522 537.432,-406.873"/>
</g>
<!-- wallRadar[&#45;0.7,0.7] -->
<g id="node6" class="node"><title>wallRadar[&#45;0.7,0.7]</title>
<polygon fill="lightgray" stroke="black" points="1622.26,-502.373 1536.26,-502.373 1536.26,-484.373 1622.26,-484.373 1622.26,-502.373"/>
<text text-anchor="middle" x="1579.26" y="-491.173" font-family="Times,serif" font-size="9.00">wallRadar[&#45;0.7,0.7]</text>
</g>
<!-- wallRadar[&#45;0.7,0.7]&#45;&gt;Shoot -->
<g id="edge11" class="edge"><title>wallRadar[&#45;0.7,0.7]&#45;&gt;Shoot</title>
<path fill="none" stroke="green" stroke-width="0.623577" d="M1581.09,-484.333C1586.9,-456.662 1601.76,-364.59 1554.26,-319.487 1491.7,-260.093 864.981,-242.215 703.861,-238.583"/>
<polygon fill="green" stroke="green" stroke-width="0.623577" points="703.579,-235.076 693.504,-238.355 703.425,-242.074 703.579,-235.076"/>
</g>
<!-- wallRadar[&#45;0.7,0.7]&#45;&gt;Move Forward/Backward -->
<g id="edge12" class="edge"><title>wallRadar[&#45;0.7,0.7]&#45;&gt;Move Forward/Backward</title>
<path fill="none" stroke="green" stroke-width="0.327008" stroke-dasharray="1,5" d="M1581.84,-484.354C1589.58,-458.92 1610.48,-378.272 1585.26,-319.487 1548.88,-234.723 1466.49,-165.683 1405.36,-123.474"/>
<polygon fill="green" stroke="green" stroke-width="0.327008" points="1407.12,-120.436 1396.88,-117.698 1403.17,-126.221 1407.12,-120.436"/>
</g>
<!-- wallRadar[&#45;0.7,0.7]&#45;&gt; Move Left/Right -->
<g id="edge13" class="edge"><title>wallRadar[&#45;0.7,0.7]&#45;&gt; Move Left/Right</title>
<path fill="none" stroke="red" stroke-width="0.134323" d="M1573.14,-484.35C1564.04,-472.422 1546.22,-449.047 1529.43,-427.02"/>
<polygon fill="red" stroke="red" stroke-width="0.134323" points="1532.15,-424.819 1523.31,-418.989 1526.58,-429.063 1532.15,-424.819"/>
</g>
<!-- wallRadar[&#45;0.7,&#45;0.7] -->
<g id="node7" class="node"><title>wallRadar[&#45;0.7,&#45;0.7]</title>
<polygon fill="lightgray" stroke="black" points="180.756,-502.373 91.7557,-502.373 91.7557,-484.373 180.756,-484.373 180.756,-502.373"/>
<text text-anchor="middle" x="136.256" y="-491.173" font-family="Times,serif" font-size="9.00">wallRadar[&#45;0.7,&#45;0.7]</text>
</g>
<!-- wallRadar[&#45;0.7,&#45;0.7]&#45;&gt;Shoot -->
<g id="edge50" class="edge"><title>wallRadar[&#45;0.7,&#45;0.7]&#45;&gt;Shoot</title>
<path fill="none" stroke="red" stroke-width="0.247887" stroke-dasharray="1,5" d="M133.429,-484.199C124.551,-456.871 100.274,-367.693 143.256,-319.487 207.698,-247.214 520.439,-238.588 629.025,-237.797"/>
<polygon fill="red" stroke="red" stroke-width="0.247887" points="629.196,-241.296 639.177,-237.742 629.158,-234.296 629.196,-241.296"/>
</g>
<!-- wallRadar[&#45;0.7,&#45;0.7]&#45;&gt;Move Forward/Backward -->
<g id="edge14" class="edge"><title>wallRadar[&#45;0.7,&#45;0.7]&#45;&gt;Move Forward/Backward</title>
<path fill="none" stroke="red" stroke-width="0.25542" stroke-dasharray="1,5" d="M100.691,-484.318C72.5991,-475.881 35.2367,-459.567 17.2557,-429.796 -8.09061,-387.83 -2.47769,-364.367 17.2557,-319.487 51.4842,-241.642 80.5658,-224.729 158.256,-190.149 352.658,-103.621 1005.71,-83.7133 1243.62,-79.2908"/>
<polygon fill="red" stroke="red" stroke-width="0.25542" points="1244.01,-82.7843 1253.95,-79.1037 1243.89,-75.7854 1244.01,-82.7843"/>
</g>
<!-- wallRadar[&#45;0.7,&#45;0.7]&#45;&gt;Turn left/right -->
<g id="edge15" class="edge"><title>wallRadar[&#45;0.7,&#45;0.7]&#45;&gt;Turn left/right</title>
<path fill="none" stroke="red" stroke-width="0.261197" stroke-dasharray="1,5" d="M154.257,-484.366C167.188,-478.774 185.115,-471.345 201.256,-465.796 257.141,-446.582 276.068,-455.552 329.256,-429.796 404.381,-393.416 402.239,-346.39 481.256,-319.487 746.633,-229.135 1469.45,-348.029 1742.26,-283.487 1758.74,-279.586 1775.79,-272.759 1790.95,-265.553"/>
<polygon fill="red" stroke="red" stroke-width="0.261197" points="1792.69,-268.595 1800.12,-261.04 1789.6,-262.314 1792.69,-268.595"/>
</g>
<!-- 15458 -->
<g id="node28" class="node"><title>15458</title>
<ellipse fill="white" stroke="black" cx="180.256" cy="-374.642" rx="27.6545" ry="27.6545"/>
<text text-anchor="middle" x="180.256" y="-372.442" font-family="Times,serif" font-size="9.00">15458</text>
</g>
<!-- wallRadar[&#45;0.7,&#45;0.7]&#45;&gt;15458 -->
<g id="edge67" class="edge"><title>wallRadar[&#45;0.7,&#45;0.7]&#45;&gt;15458</title>
<path fill="none" stroke="red" stroke-width="0.287572" stroke-dasharray="1,5" d="M139.28,-484.35C144.961,-469.277 157.533,-435.925 167.263,-410.112"/>
<polygon fill="red" stroke="red" stroke-width="0.287572" points="170.581,-411.233 170.833,-400.641 164.03,-408.764 170.581,-411.233"/>
</g>
<!-- wallRadar[0.7,&#45;0.7] -->
<g id="node8" class="node"><title>wallRadar[0.7,&#45;0.7]</title>
<polygon fill="lightgray" stroke="black" points="2103.26,-502.373 2017.26,-502.373 2017.26,-484.373 2103.26,-484.373 2103.26,-502.373"/>
<text text-anchor="middle" x="2060.26" y="-491.173" font-family="Times,serif" font-size="9.00">wallRadar[0.7,&#45;0.7]</text>
</g>
<!-- wallRadar[0.7,&#45;0.7]&#45;&gt;Move Forward/Backward -->
<g id="edge16" class="edge"><title>wallRadar[0.7,&#45;0.7]&#45;&gt;Move Forward/Backward</title>
<path fill="none" stroke="green" stroke-width="1.10916" d="M2060.02,-484.244C2058.43,-444.743 2045.95,-271.444 1949.26,-190.149 1870.12,-123.611 1569.09,-94.1514 1418.35,-83.3495"/>
<polygon fill="green" stroke="green" stroke-width="1.10916" points="1418.42,-79.8461 1408.2,-82.6343 1417.93,-86.8288 1418.42,-79.8461"/>
</g>
<!-- wallRadar[0.7,&#45;0.7]&#45;&gt;Turn left/right -->
<g id="edge17" class="edge"><title>wallRadar[0.7,&#45;0.7]&#45;&gt;Turn left/right</title>
<path fill="none" stroke="green" stroke-width="1.39561" d="M2054.67,-484.059C2037.28,-458.422 1982.08,-378.748 1928.26,-319.487 1914.29,-304.115 1897.87,-288.338 1883.02,-274.8"/>
<polygon fill="green" stroke="green" stroke-width="1.39561" points="1885.18,-272.039 1875.41,-267.938 1880.49,-277.236 1885.18,-272.039"/>
</g>
<!-- 18062 -->
<g id="node32" class="node"><title>18062</title>
<ellipse fill="white" stroke="black" cx="2125.26" cy="-374.642" rx="27.6545" ry="27.6545"/>
<text text-anchor="middle" x="2125.26" y="-372.442" font-family="Times,serif" font-size="9.00">18062</text>
</g>
<!-- wallRadar[0.7,&#45;0.7]&#45;&gt;18062 -->
<g id="edge72" class="edge"><title>wallRadar[0.7,&#45;0.7]&#45;&gt;18062</title>
<path fill="none" stroke="green" stroke-width="0.390658" d="M2064.72,-484.35C2073.34,-468.868 2092.7,-434.101 2107.22,-408.026"/>
<polygon fill="green" stroke="green" stroke-width="0.390658" points="2110.32,-409.651 2112.13,-399.211 2104.21,-406.245 2110.32,-409.651"/>
</g>
<!-- 15708 -->
<g id="node35" class="node"><title>15708</title>
<ellipse fill="white" stroke="black" cx="1705.26" cy="-236.818" rx="27.6545" ry="27.6545"/>
<text text-anchor="middle" x="1705.26" y="-234.618" font-family="Times,serif" font-size="9.00">15708</text>
</g>
<!-- wallRadar[0.7,&#45;0.7]&#45;&gt;15708 -->
<g id="edge62" class="edge"><title>wallRadar[0.7,&#45;0.7]&#45;&gt;15708</title>
<path fill="none" stroke="red" stroke-width="0.120286" stroke-dasharray="1,5" d="M2046.8,-484.174C2036.37,-478.183 2021.36,-470.342 2007.26,-465.796 1910.86,-434.735 1861.38,-493.002 1782.26,-429.796 1734.2,-391.41 1715.98,-318.459 1709.18,-274.374"/>
<polygon fill="red" stroke="red" stroke-width="0.120286" points="1712.63,-273.768 1707.76,-264.36 1705.7,-274.753 1712.63,-273.768"/>
</g>
<!-- enemyRadar[RightBack] -->
<g id="node9" class="node"><title>enemyRadar[RightBack]</title>
<polygon fill="lightgray" stroke="black" points="1744.26,-502.373 1640.26,-502.373 1640.26,-484.373 1744.26,-484.373 1744.26,-502.373"/>
<text text-anchor="middle" x="1692.26" y="-491.173" font-family="Times,serif" font-size="9.00">enemyRadar[RightBack]</text>
</g>
<!-- enemyRadar[RightBack]&#45;&gt;Shoot -->
<g id="edge18" class="edge"><title>enemyRadar[RightBack]&#45;&gt;Shoot</title>
<path fill="none" stroke="red" stroke-width="0.478739" d="M1690.1,-484.358C1682,-455.96 1650.45,-359.694 1585.26,-319.487 1509.12,-272.536 866.204,-245.342 703.535,-239.172"/>
<polygon fill="red" stroke="red" stroke-width="0.478739" points="703.22,-235.658 693.095,-238.78 702.957,-242.653 703.22,-235.658"/>
</g>
<!-- enemyRadar[RightBack]&#45;&gt; Move Left/Right -->
<g id="edge19" class="edge"><title>enemyRadar[RightBack]&#45;&gt; Move Left/Right</title>
<path fill="none" stroke="red" stroke-width="0.157833" stroke-dasharray="1,5" d="M1678.37,-484.35C1651.63,-468.897 1591.64,-434.231 1546.55,-408.172"/>
<polygon fill="red" stroke="red" stroke-width="0.157833" points="1548.15,-405.057 1537.74,-403.084 1544.65,-411.118 1548.15,-405.057"/>
</g>
<!-- enemyRadar[RightBack]&#45;&gt;Turn left/right -->
<g id="edge20" class="edge"><title>enemyRadar[RightBack]&#45;&gt;Turn left/right</title>
<path fill="none" stroke="red" stroke-width="0.283252" stroke-dasharray="1,5" d="M1696,-484.231C1707.67,-459.09 1744.84,-380.692 1782.26,-319.487 1789.7,-307.309 1798.33,-294.545 1806.63,-282.822"/>
<polygon fill="red" stroke="red" stroke-width="0.283252" points="1809.61,-284.663 1812.59,-274.494 1803.92,-280.591 1809.61,-284.663"/>
</g>
<!-- enemyRadar[LeftBack] -->
<g id="node10" class="node"><title>enemyRadar[LeftBack]</title>
<polygon fill="lightgray" stroke="black" points="1861.76,-502.373 1762.76,-502.373 1762.76,-484.373 1861.76,-484.373 1861.76,-502.373"/>
<text text-anchor="middle" x="1812.26" y="-491.173" font-family="Times,serif" font-size="9.00">enemyRadar[LeftBack]</text>
</g>
<!-- enemyRadar[LeftBack]&#45;&gt;Move Forward/Backward -->
<g id="edge21" class="edge"><title>enemyRadar[LeftBack]&#45;&gt;Move Forward/Backward</title>
<path fill="none" stroke="green" stroke-width="0.549445" d="M1832.65,-484.217C1853.47,-474.653 1884.6,-456.618 1898.26,-429.796 1904.33,-417.869 1899.95,-194.579 1896.26,-190.149 1836.24,-118.203 1561.39,-91.535 1418.35,-82.4075"/>
<polygon fill="green" stroke="green" stroke-width="0.549445" points="1418.48,-78.909 1408.28,-81.7802 1418.04,-85.8955 1418.48,-78.909"/>
</g>
<!-- enemyRadar[LeftBack]&#45;&gt; Move Left/Right -->
<g id="edge22" class="edge"><title>enemyRadar[LeftBack]&#45;&gt; Move Left/Right</title>
<path fill="none" stroke="red" stroke-width="0.134686" stroke-dasharray="1,5" d="M1795.39,-484.274C1783.69,-478.777 1767.67,-471.5 1753.26,-465.796 1685.44,-438.966 1606.06,-412.401 1552.39,-395.135"/>
<polygon fill="red" stroke="red" stroke-width="0.134686" points="1553.27,-391.741 1542.67,-392.021 1551.13,-398.407 1553.27,-391.741"/>
</g>
<!-- enemyRadar[Right45ø] -->
<g id="node11" class="node"><title>enemyRadar[Right45ø]</title>
<polygon fill="lightgray" stroke="black" points="813.256,-383.642 713.256,-383.642 713.256,-365.642 813.256,-365.642 813.256,-383.642"/>
<text text-anchor="middle" x="763.256" y="-372.442" font-family="Times,serif" font-size="9.00">enemyRadar[Right45ø]</text>
</g>
<!-- enemyRadar[Right45ø]&#45;&gt;Shoot -->
<g id="edge23" class="edge"><title>enemyRadar[Right45ø]&#45;&gt;Shoot</title>
<path fill="none" stroke="green" stroke-width="1.76098" d="M757.478,-365.552C744.02,-346.707 710.019,-299.097 687.544,-267.627"/>
<polygon fill="green" stroke="green" stroke-width="1.76098" points="690.197,-265.32 681.537,-259.216 684.501,-269.388 690.197,-265.32"/>
</g>
<!-- enemyRadar[Left45ø] -->
<g id="node12" class="node"><title>enemyRadar[Left45ø]</title>
<polygon fill="lightgray" stroke="black" points="995.756,-502.373 900.756,-502.373 900.756,-484.373 995.756,-484.373 995.756,-502.373"/>
<text text-anchor="middle" x="948.256" y="-491.173" font-family="Times,serif" font-size="9.00">enemyRadar[Left45ø]</text>
</g>
<!-- enemyRadar[Left45ø]&#45;&gt;Shoot -->
<g id="edge24" class="edge"><title>enemyRadar[Left45ø]&#45;&gt;Shoot</title>
<path fill="none" stroke="green" stroke-width="0.335471" d="M933.699,-484.225C922.437,-478.261 906.28,-470.431 891.256,-465.796 843.918,-451.192 703.821,-467.127 671.256,-429.796 633.595,-386.624 644.239,-314.915 655.309,-272.429"/>
<polygon fill="green" stroke="green" stroke-width="0.335471" points="658.749,-273.118 658.029,-262.548 652,-271.26 658.749,-273.118"/>
</g>
<!-- enemyRadar[Left45ø]&#45;&gt; Move Left/Right -->
<g id="edge25" class="edge"><title>enemyRadar[Left45ø]&#45;&gt; Move Left/Right</title>
<path fill="none" stroke="red" stroke-width="0.248753" stroke-dasharray="1,5" d="M962.264,-484.187C973.497,-478.037 989.874,-469.981 1005.26,-465.796 1168.1,-421.494 1221.15,-476.716 1383.26,-429.796 1400.48,-424.812 1418.22,-417.055 1434.18,-408.953"/>
<polygon fill="red" stroke="red" stroke-width="0.248753" points="1436.11,-411.893 1443.35,-404.162 1432.87,-405.688 1436.11,-411.893"/>
</g>
<!-- enemyRadar[RightFront20ø] -->
<g id="node13" class="node"><title>enemyRadar[RightFront20ø]</title>
<polygon fill="lightgray" stroke="black" points="2454.76,-502.373 2335.76,-502.373 2335.76,-484.373 2454.76,-484.373 2454.76,-502.373"/>
<text text-anchor="middle" x="2395.26" y="-491.173" font-family="Times,serif" font-size="9.00">enemyRadar[RightFront20ø]</text>
</g>
<!-- 13790 -->
<g id="node36" class="node"><title>13790</title>
<ellipse fill="white" stroke="black" cx="2275.26" cy="-374.642" rx="27.6545" ry="27.6545"/>
<text text-anchor="middle" x="2275.26" y="-372.442" font-family="Times,serif" font-size="9.00">13790</text>
</g>
<!-- enemyRadar[RightFront20ø]&#45;&gt;13790 -->
<g id="edge68" class="edge"><title>enemyRadar[RightFront20ø]&#45;&gt;13790</title>
<path fill="none" stroke="green" stroke-width="0.302905" d="M2387.01,-484.35C2369.78,-467.588 2329.31,-428.222 2302.1,-401.754"/>
<polygon fill="green" stroke="green" stroke-width="0.302905" points="2304.42,-399.124 2294.81,-394.661 2299.53,-404.142 2304.42,-399.124"/>
</g>
<!-- enemyRadar[LeftFront20ø] -->
<g id="node14" class="node"><title>enemyRadar[LeftFront20ø]</title>
<polygon fill="lightgray" stroke="black" points="667.256,-502.373 553.256,-502.373 553.256,-484.373 667.256,-484.373 667.256,-502.373"/>
<text text-anchor="middle" x="610.256" y="-491.173" font-family="Times,serif" font-size="9.00">enemyRadar[LeftFront20ø]</text>
</g>
<!-- enemyRadar[LeftFront20ø]&#45;&gt;Shoot -->
<g id="edge26" class="edge"><title>enemyRadar[LeftFront20ø]&#45;&gt;Shoot</title>
<path fill="none" stroke="green" stroke-width="1.00735" stroke-dasharray="1,5" d="M590.75,-484.267C556.268,-469.745 487.565,-439.869 481.256,-429.796 455.231,-388.247 454.489,-360.562 481.256,-319.487 514.084,-269.11 585.791,-249.585 629.661,-242.18"/>
<polygon fill="green" stroke="green" stroke-width="1.00735" points="630.301,-245.622 639.641,-240.623 629.221,-238.706 630.301,-245.622"/>
</g>
<!-- enemyRadar[LeftFront20ø]&#45;&gt;Move Forward/Backward -->
<g id="edge27" class="edge"><title>enemyRadar[LeftFront20ø]&#45;&gt;Move Forward/Backward</title>
<path fill="none" stroke="red" stroke-width="0.135347" stroke-dasharray="1,5" d="M589.756,-484.275C548.717,-468.019 460.206,-432.708 458.256,-429.796 430.974,-389.062 436.358,-363.351 458.256,-319.487 500.976,-233.912 542.222,-227.541 630.256,-190.149 837.967,-101.927 1107.17,-82.5711 1243.64,-78.7014"/>
<polygon fill="red" stroke="red" stroke-width="0.135347" points="1244.12,-82.1899 1254.03,-78.4295 1243.94,-75.1923 1244.12,-82.1899"/>
</g>
<!-- enemyRadar[LeftFront20ø]&#45;&gt; Move Left/Right -->
<g id="edge28" class="edge"><title>enemyRadar[LeftFront20ø]&#45;&gt; Move Left/Right</title>
<path fill="none" stroke="green" stroke-width="0.331611" d="M657.879,-484.319C694.089,-478.444 745.19,-470.685 790.256,-465.796 1019.25,-440.955 1080.59,-470.719 1307.26,-429.796 1348.53,-422.344 1393.74,-409.018 1428.89,-397.451"/>
<polygon fill="green" stroke="green" stroke-width="0.331611" points="1430.15,-400.722 1438.53,-394.242 1427.94,-394.081 1430.15,-400.722"/>
</g>
<!-- enemyRadar[LeftFront20ø]&#45;&gt;Turn left/right -->
<g id="edge29" class="edge"><title>enemyRadar[LeftFront20ø]&#45;&gt;Turn left/right</title>
<path fill="none" stroke="red" stroke-width="1.41467" d="M658.265,-484.321C694.456,-478.486 745.359,-470.777 790.256,-465.796 843.743,-459.862 1231.18,-463.345 1273.26,-429.796 1313.37,-397.814 1267.27,-351.634 1307.26,-319.487 1382.85,-258.708 1648.5,-308.361 1742.26,-283.487 1758.63,-279.143 1775.64,-272.184 1790.81,-264.995"/>
<polygon fill="red" stroke="red" stroke-width="1.41467" points="1792.54,-268.044 1799.99,-260.51 1789.47,-261.755 1792.54,-268.044"/>
</g>
<!-- enemyRadar[LeftFront20ø]&#45;&gt;13586 -->
<g id="edge56" class="edge"><title>enemyRadar[LeftFront20ø]&#45;&gt;13586</title>
<path fill="none" stroke="red" stroke-width="0.505017" d="M608.95,-484.35C606.562,-469.682 601.357,-437.702 597.207,-412.205"/>
<polygon fill="red" stroke="red" stroke-width="0.505017" points="600.623,-411.406 595.562,-402.098 593.714,-412.53 600.623,-411.406"/>
</g>
<!-- enemyRadar[RightFront15ø] -->
<g id="node15" class="node"><title>enemyRadar[RightFront15ø]</title>
<polygon fill="lightgray" stroke="black" points="1998.76,-502.373 1879.76,-502.373 1879.76,-484.373 1998.76,-484.373 1998.76,-502.373"/>
<text text-anchor="middle" x="1939.26" y="-491.173" font-family="Times,serif" font-size="9.00">enemyRadar[RightFront15ø]</text>
</g>
<!-- enemyRadar[RightFront15ø]&#45;&gt;Move Forward/Backward -->
<g id="edge30" class="edge"><title>enemyRadar[RightFront15ø]&#45;&gt;Move Forward/Backward</title>
<path fill="none" stroke="green" stroke-width="0.389984" d="M1941.62,-484.283C1952.37,-445.675 1992.73,-278.39 1913.26,-190.149 1848.49,-118.237 1564.66,-91.4941 1418.67,-82.3677"/>
<polygon fill="green" stroke="green" stroke-width="0.389984" points="1418.6,-78.8568 1408.41,-81.7406 1418.17,-85.8438 1418.6,-78.8568"/>
</g>
<!-- enemyRadar[RightFront15ø]&#45;&gt; Move Left/Right -->
<g id="edge31" class="edge"><title>enemyRadar[RightFront15ø]&#45;&gt; Move Left/Right</title>
<path fill="none" stroke="red" stroke-width="0.188025" d="M1920.46,-484.343C1906.72,-478.669 1887.55,-471.15 1870.26,-465.796 1760.85,-431.917 1630.38,-403.496 1554.28,-388.08"/>
<polygon fill="red" stroke="red" stroke-width="0.188025" points="1554.86,-384.626 1544.36,-386.083 1553.47,-391.489 1554.86,-384.626"/>
</g>
<!-- enemyRadar[RightFront15ø]&#45;&gt;Turn left/right -->
<g id="edge32" class="edge"><title>enemyRadar[RightFront15ø]&#45;&gt;Turn left/right</title>
<path fill="none" stroke="red" stroke-width="0.28337" d="M1938.43,-484.087C1935.65,-458.529 1925.23,-379.061 1898.26,-319.487 1892.37,-306.485 1884.29,-293.424 1876.04,-281.68"/>
<polygon fill="red" stroke="red" stroke-width="0.28337" points="1878.73,-279.425 1870.03,-273.381 1873.06,-283.532 1878.73,-279.425"/>
</g>
<!-- enemyRadar[LeftFront15ø] -->
<g id="node16" class="node"><title>enemyRadar[LeftFront15ø]</title>
<polygon fill="lightgray" stroke="black" points="1128.26,-502.373 1014.26,-502.373 1014.26,-484.373 1128.26,-484.373 1128.26,-502.373"/>
<text text-anchor="middle" x="1071.26" y="-491.173" font-family="Times,serif" font-size="9.00">enemyRadar[LeftFront15ø]</text>
</g>
<!-- enemyRadar[LeftFront15ø]&#45;&gt;Shoot -->
<g id="edge33" class="edge"><title>enemyRadar[LeftFront15ø]&#45;&gt;Shoot</title>
<path fill="none" stroke="red" stroke-width="0.648214" d="M1054.58,-484.358C1041.27,-478.303 1021.96,-470.29 1004.26,-465.796 939.174,-449.28 753.503,-475.437 704.256,-429.796 681.921,-409.097 672.233,-323.263 668.432,-273.657"/>
<polygon fill="red" stroke="red" stroke-width="0.648214" points="671.921,-273.379 667.708,-263.658 664.939,-273.885 671.921,-273.379"/>
</g>
<!-- enemyRadar[LeftFront15ø]&#45;&gt;Move Forward/Backward -->
<g id="edge34" class="edge"><title>enemyRadar[LeftFront15ø]&#45;&gt;Move Forward/Backward</title>
<path fill="none" stroke="red" stroke-width="0.308517" d="M1046.6,-484.28C1023.23,-475.139 989.502,-457.776 974.256,-429.796 950.797,-386.746 954.522,-364.367 974.256,-319.487 1024.23,-205.824 1159.44,-138.076 1248.37,-104.479"/>
<polygon fill="red" stroke="red" stroke-width="0.308517" points="1249.74,-107.703 1257.9,-100.942 1247.31,-101.141 1249.74,-107.703"/>
</g>
<!-- enemyRadar[LeftFront15ø]&#45;&gt; Move Left/Right -->
<g id="edge35" class="edge"><title>enemyRadar[LeftFront15ø]&#45;&gt; Move Left/Right</title>
<path fill="none" stroke="red" stroke-width="0.138719" stroke-dasharray="1,5" d="M1106.97,-484.325C1131.26,-478.916 1164.15,-471.722 1193.26,-465.796 1277.47,-448.647 1301.89,-457.475 1383.26,-429.796 1400.23,-424.023 1417.89,-416.007 1433.85,-407.91"/>
<polygon fill="red" stroke="red" stroke-width="0.138719" points="1435.77,-410.859 1443.04,-403.15 1432.55,-404.644 1435.77,-410.859"/>
</g>
<!-- enemyRadar[RightFront7.5ø] -->
<g id="node17" class="node"><title>enemyRadar[RightFront7.5ø]</title>
<polygon fill="lightgray" stroke="black" points="1105.26,-383.642 983.256,-383.642 983.256,-365.642 1105.26,-365.642 1105.26,-383.642"/>
<text text-anchor="middle" x="1044.26" y="-372.442" font-family="Times,serif" font-size="9.00">enemyRadar[RightFront7.5ø]</text>
</g>
<!-- enemyRadar[RightFront7.5ø]&#45;&gt;Shoot -->
<g id="edge36" class="edge"><title>enemyRadar[RightFront7.5ø]&#45;&gt;Shoot</title>
<path fill="none" stroke="red" stroke-width="0.290148" stroke-dasharray="1,5" d="M1035.25,-365.443C1021.83,-353.639 995.357,-331.914 969.256,-319.487 878.534,-276.297 761.27,-252.95 702.791,-243.272"/>
<polygon fill="red" stroke="red" stroke-width="0.290148" points="703.343,-239.816 692.912,-241.675 702.225,-246.726 703.343,-239.816"/>
</g>
<!-- enemyRadar[RightFront7.5ø]&#45;&gt;Move Forward/Backward -->
<g id="edge37" class="edge"><title>enemyRadar[RightFront7.5ø]&#45;&gt;Move Forward/Backward</title>
<path fill="none" stroke="red" stroke-width="0.223289" d="M1050.61,-365.625C1071.53,-339.421 1140.49,-254.296 1204.26,-190.149 1223.19,-171.102 1244.78,-151.38 1264.72,-133.89"/>
<polygon fill="red" stroke="red" stroke-width="0.223289" points="1267.04,-136.513 1272.27,-127.302 1262.43,-131.238 1267.04,-136.513"/>
</g>
<!-- enemyRadar[LeftFront7.5ø] -->
<g id="node18" class="node"><title>enemyRadar[LeftFront7.5ø]</title>
<polygon fill="lightgray" stroke="black" points="326.256,-502.373 210.256,-502.373 210.256,-484.373 326.256,-484.373 326.256,-502.373"/>
<text text-anchor="middle" x="268.256" y="-491.173" font-family="Times,serif" font-size="9.00">enemyRadar[LeftFront7.5ø]</text>
</g>
<!-- enemyRadar[LeftFront7.5ø]&#45;&gt;Shoot -->
<g id="edge38" class="edge"><title>enemyRadar[LeftFront7.5ø]&#45;&gt;Shoot</title>
<path fill="none" stroke="red" stroke-width="0.155551" stroke-dasharray="1,5" d="M264.203,-484.339C251.273,-457.452 214.197,-369.508 255.256,-319.487 302.485,-261.949 536.852,-244.213 628.977,-239.413"/>
<polygon fill="red" stroke="red" stroke-width="0.155551" points="629.417,-242.895 639.231,-238.902 629.069,-235.904 629.417,-242.895"/>
</g>
<!-- enemyRadar[LeftFront7.5ø]&#45;&gt; Move Left/Right -->
<g id="edge74" class="edge"><title>enemyRadar[LeftFront7.5ø]&#45;&gt; Move Left/Right</title>
<path fill="none" stroke="green" stroke-width="0.465001" d="M314.61,-484.372C351.725,-478.282 405.179,-470.217 452.256,-465.796 815.895,-431.647 911.807,-482.278 1273.26,-429.796 1326.19,-422.109 1385,-407.012 1428.03,-394.707"/>
<polygon fill="green" stroke="green" stroke-width="0.465001" points="1429.15,-398.026 1437.78,-391.887 1427.21,-391.301 1429.15,-398.026"/>
</g>
<!-- enemyRadar[LeftFront7.5ø]&#45;&gt;15458 -->
<g id="edge57" class="edge"><title>enemyRadar[LeftFront7.5ø]&#45;&gt;15458</title>
<path fill="none" stroke="green" stroke-width="0.528453" d="M262.207,-484.35C250.154,-468.361 222.594,-431.803 202.76,-405.493"/>
<polygon fill="green" stroke="green" stroke-width="0.528453" points="205.435,-403.228 196.621,-397.35 199.846,-407.442 205.435,-403.228"/>
</g>
<!-- 18183 -->
<g id="node30" class="node"><title>18183</title>
<ellipse fill="white" stroke="black" cx="292.256" cy="-374.642" rx="27.6545" ry="27.6545"/>
<text text-anchor="middle" x="292.256" y="-372.442" font-family="Times,serif" font-size="9.00">18183</text>
</g>
<!-- enemyRadar[LeftFront7.5ø]&#45;&gt;18183 -->
<g id="edge76" class="edge"><title>enemyRadar[LeftFront7.5ø]&#45;&gt;18183</title>
<path fill="none" stroke="green" stroke-width="0.323467" d="M269.905,-484.35C272.921,-469.682 279.496,-437.702 284.738,-412.205"/>
<polygon fill="green" stroke="green" stroke-width="0.323467" points="288.231,-412.598 286.816,-402.098 281.374,-411.188 288.231,-412.598"/>
</g>
<!-- enemyRadar[RightFront2.5ø] -->
<g id="node19" class="node"><title>enemyRadar[RightFront2.5ø]</title>
<polygon fill="lightgray" stroke="black" points="2317.26,-502.373 2195.26,-502.373 2195.26,-484.373 2317.26,-484.373 2317.26,-502.373"/>
<text text-anchor="middle" x="2256.26" y="-491.173" font-family="Times,serif" font-size="9.00">enemyRadar[RightFront2.5ø]</text>
</g>
<!-- enemyRadar[RightFront2.5ø]&#45;&gt;Turn left/right -->
<g id="edge39" class="edge"><title>enemyRadar[RightFront2.5ø]&#45;&gt;Turn left/right</title>
<path fill="none" stroke="green" stroke-width="0.421123" d="M2253.98,-484.029C2245.26,-452.683 2213.17,-342.572 2186.26,-319.487 2143.15,-282.516 1983.23,-256.498 1896.71,-244.789"/>
<polygon fill="green" stroke="green" stroke-width="0.421123" points="1896.91,-241.285 1886.54,-243.432 1895.99,-248.223 1896.91,-241.285"/>
</g>
<!-- enemyRadar[RightFront2.5ø]&#45;&gt;13790 -->
<g id="edge54" class="edge"><title>enemyRadar[RightFront2.5ø]&#45;&gt;13790</title>
<path fill="none" stroke="green" stroke-width="1.60139" stroke-dasharray="1,5" d="M2257.56,-484.35C2259.95,-469.682 2265.15,-437.702 2269.3,-412.205"/>
<polygon fill="green" stroke="green" stroke-width="1.60139" points="2272.8,-412.53 2270.95,-402.098 2265.89,-411.406 2272.8,-412.53"/>
</g>
<!-- enemyRadar[LeftFront2.5ø] -->
<g id="node20" class="node"><title>enemyRadar[LeftFront2.5ø]</title>
<polygon fill="lightgray" stroke="black" points="1406.26,-502.373 1290.26,-502.373 1290.26,-484.373 1406.26,-484.373 1406.26,-502.373"/>
<text text-anchor="middle" x="1348.26" y="-491.173" font-family="Times,serif" font-size="9.00">enemyRadar[LeftFront2.5ø]</text>
</g>
<!-- enemyRadar[LeftFront2.5ø]&#45;&gt;Shoot -->
<g id="edge40" class="edge"><title>enemyRadar[LeftFront2.5ø]&#45;&gt;Shoot</title>
<path fill="none" stroke="green" stroke-width="0.140381" stroke-dasharray="1,5" d="M1331.59,-484.345C1318.27,-478.282 1298.97,-470.266 1281.26,-465.796 1148.05,-432.183 1089.35,-504.798 974.256,-429.796 926.58,-398.729 953.458,-355.325 909.256,-319.487 847.642,-269.533 754.043,-249.551 702.856,-242.02"/>
<polygon fill="green" stroke="green" stroke-width="0.140381" points="703.292,-238.547 692.905,-240.635 702.327,-245.48 703.292,-238.547"/>
</g>
<!-- enemyRadar[LeftFront2.5ø]&#45;&gt;Move Forward/Backward -->
<g id="edge41" class="edge"><title>enemyRadar[LeftFront2.5ø]&#45;&gt;Move Forward/Backward</title>
<path fill="none" stroke="green" stroke-width="0.364682" d="M1348.52,-483.947C1349.59,-448.298 1353.07,-306.375 1345.26,-190.149 1344.68,-181.549 1343.89,-172.598 1342.97,-163.671"/>
<polygon fill="green" stroke="green" stroke-width="0.364682" points="1346.44,-163.188 1341.89,-153.62 1339.48,-163.938 1346.44,-163.188"/>
</g>
<!-- enemyRadar[LeftFront2.5ø]&#45;&gt; Move Left/Right -->
<g id="edge42" class="edge"><title>enemyRadar[LeftFront2.5ø]&#45;&gt; Move Left/Right</title>
<path fill="none" stroke="red" stroke-width="0.144523" d="M1358.02,-484.35C1374.81,-470.543 1410.27,-441.397 1440.24,-416.758"/>
<polygon fill="red" stroke="red" stroke-width="0.144523" points="1442.62,-419.329 1448.13,-410.275 1438.18,-413.922 1442.62,-419.329"/>
</g>
<!-- enemyRadar[LeftFront2.5ø]&#45;&gt;Turn left/right -->
<g id="edge43" class="edge"><title>enemyRadar[LeftFront2.5ø]&#45;&gt;Turn left/right</title>
<path fill="none" stroke="green" stroke-width="0.238917" d="M1378.6,-484.345C1427.83,-471.121 1522.77,-444.738 1554.26,-429.796 1557.46,-428.275 1713.18,-323.446 1793.46,-269.359"/>
<polygon fill="green" stroke="green" stroke-width="0.238917" points="1795.58,-272.146 1801.92,-263.656 1791.67,-266.341 1795.58,-272.146"/>
</g>
<!-- enemyRadar[LeftFront2.5ø]&#45;&gt;13586 -->
<g id="edge52" class="edge"><title>enemyRadar[LeftFront2.5ø]&#45;&gt;13586</title>
<path fill="none" stroke="green" stroke-width="0.456448" stroke-dasharray="1,5" d="M1332.19,-484.332C1318.9,-478.089 1299.33,-469.837 1281.26,-465.796 1030.5,-409.73 952.916,-494.511 704.256,-429.796 675.518,-422.317 645.3,-407.417 623.35,-395.137"/>
<polygon fill="green" stroke="green" stroke-width="0.456448" points="624.896,-391.989 614.478,-390.063 621.421,-398.066 624.896,-391.989"/>
</g>
<!-- enemyRadar[Front7Ø] -->
<g id="node21" class="node"><title>enemyRadar[Front7Ø]</title>
<polygon fill="lightgray" stroke="black" points="1889.26,-383.642 1791.26,-383.642 1791.26,-365.642 1889.26,-365.642 1889.26,-383.642"/>
<text text-anchor="middle" x="1840.26" y="-372.442" font-family="Times,serif" font-size="9.00">enemyRadar[Front7Ø]</text>
</g>
<!-- enemyRadar[Front7Ø]&#45;&gt;Turn left/right -->
<g id="edge44" class="edge"><title>enemyRadar[Front7Ø]&#45;&gt;Turn left/right</title>
<path fill="none" stroke="green" stroke-width="0.655795" stroke-dasharray="1,5" d="M1840.26,-365.552C1840.26,-351.474 1840.26,-321.343 1840.26,-293.88"/>
<polygon fill="green" stroke="green" stroke-width="0.655795" points="1843.76,-293.524 1840.26,-283.524 1836.76,-293.524 1843.76,-293.524"/>
</g>
<!-- OnTarget -->
<g id="node22" class="node"><title>OnTarget</title>
<polygon fill="lightgray" stroke="black" points="1173.26,-383.642 1123.26,-383.642 1123.26,-365.642 1173.26,-365.642 1173.26,-383.642"/>
<text text-anchor="middle" x="1148.26" y="-372.442" font-family="Times,serif" font-size="9.00">OnTarget</text>
</g>
<!-- OnTarget&#45;&gt;Shoot -->
<g id="edge45" class="edge"><title>OnTarget&#45;&gt;Shoot</title>
<path fill="none" stroke="red" stroke-width="0.260762" stroke-dasharray="1,5" d="M1145.57,-365.523C1141.11,-353.408 1130.99,-330.816 1114.26,-319.487 1046.82,-273.822 797.763,-248.763 703.096,-240.719"/>
<polygon fill="red" stroke="red" stroke-width="0.260762" points="703.375,-237.23 693.119,-239.886 702.793,-244.206 703.375,-237.23"/>
</g>
<!-- OnTarget&#45;&gt;Move Forward/Backward -->
<g id="edge46" class="edge"><title>OnTarget&#45;&gt;Move Forward/Backward</title>
<path fill="none" stroke="red" stroke-width="0.575197" d="M1153.34,-365.428C1172.17,-335.011 1239.24,-226.69 1285.43,-152.093"/>
<polygon fill="red" stroke="red" stroke-width="0.575197" points="1288.66,-153.515 1290.95,-143.17 1282.71,-149.83 1288.66,-153.515"/>
</g>
<!-- OnTarget&#45;&gt;Turn left/right -->
<g id="edge47" class="edge"><title>OnTarget&#45;&gt;Turn left/right</title>
<path fill="none" stroke="red" stroke-width="0.511591" stroke-dasharray="1,5" d="M1150.78,-365.274C1155.04,-352.836 1164.9,-329.826 1182.26,-319.487 1289.39,-255.676 1621.44,-314.356 1742.26,-283.487 1758.67,-279.293 1775.7,-272.379 1790.86,-265.184"/>
<polygon fill="red" stroke="red" stroke-width="0.511591" points="1792.59,-268.231 1800.03,-260.69 1789.51,-261.944 1792.59,-268.231"/>
</g>
<!-- bias -->
<g id="node23" class="node"><title>bias</title>
<polygon fill="lightgray" stroke="black" points="1834.76,-574.95 1803.76,-574.95 1803.76,-556.95 1834.76,-556.95 1834.76,-574.95"/>
<text text-anchor="middle" x="1819.26" y="-563.75" font-family="Times,serif" font-size="9.00">bias</text>
</g>
<!-- bias&#45;&gt; Move Left/Right -->
<g id="edge48" class="edge"><title>bias&#45;&gt; Move Left/Right</title>
<path fill="none" stroke="red" stroke-width="0.58442" stroke-dasharray="1,5" d="M1803.31,-564.255C1735.92,-561.158 1476.88,-547.583 1453.26,-520.95 1431.18,-496.065 1440.36,-459.819 1455.1,-429.754"/>
<polygon fill="red" stroke="red" stroke-width="0.58442" points="1458.33,-431.131 1459.82,-420.642 1452.11,-427.91 1458.33,-431.131"/>
</g>
<!-- bias&#45;&gt;Turn left/right -->
<g id="edge49" class="edge"><title>bias&#45;&gt;Turn left/right</title>
<path fill="none" stroke="red" stroke-width="0.476682" stroke-dasharray="1,5" d="M1834.91,-565.124C1929.21,-566.009 2419.03,-568.298 2463.26,-520.95 2637.56,-334.334 2080.01,-261.496 1896.66,-242.931"/>
<polygon fill="red" stroke="red" stroke-width="0.476682" points="1896.96,-239.445 1886.67,-241.936 1896.27,-246.41 1896.96,-239.445"/>
</g>
<!-- 17604 -->
<g id="node29" class="node"><title>17604</title>
<ellipse fill="white" stroke="black" cx="2149.26" cy="-493.373" rx="27.6545" ry="27.6545"/>
<text text-anchor="middle" x="2149.26" y="-491.173" font-family="Times,serif" font-size="9.00">17604</text>
</g>
<!-- bias&#45;&gt;17604 -->
<g id="edge69" class="edge"><title>bias&#45;&gt;17604</title>
<path fill="none" stroke="red" stroke-width="0.309974" d="M1834.86,-565.138C1879.76,-565.156 2012.42,-561.52 2112.26,-520.95 2114.78,-519.925 2117.29,-518.695 2119.75,-517.333"/>
<polygon fill="red" stroke="red" stroke-width="0.309974" points="2121.73,-520.223 2128.36,-511.958 2118.03,-514.286 2121.73,-520.223"/>
</g>
<!-- 15576 -->
<g id="node34" class="node"><title>15576</title>
<ellipse fill="white" stroke="black" cx="1490.26" cy="-493.373" rx="27.6545" ry="27.6545"/>
<text text-anchor="middle" x="1490.26" y="-491.173" font-family="Times,serif" font-size="9.00">15576</text>
</g>
<!-- bias&#45;&gt;15576 -->
<g id="edge59" class="edge"><title>bias&#45;&gt;15576</title>
<path fill="none" stroke="red" stroke-width="0.417618" d="M1803.7,-565.127C1758.96,-565.116 1626.75,-561.409 1527.26,-520.95 1524.73,-519.924 1522.22,-518.693 1519.76,-517.331"/>
<polygon fill="red" stroke="red" stroke-width="0.417618" points="1521.49,-514.285 1511.15,-511.956 1517.78,-520.222 1521.49,-514.285"/>
</g>
<!--  Move Left/Right&#45;&gt;15708 -->
<g id="edge64" class="edge"><title> Move Left/Right&#45;&gt;15708</title>
<path fill="none" stroke="green" stroke-width="0.759624" d="M1532.55,-338.78C1541.21,-332.125 1550.38,-325.398 1559.26,-319.487 1596.33,-294.785 1641.4,-270.363 1671.56,-254.754"/>
<polygon fill="green" stroke="green" stroke-width="0.759624" points="1673.51,-257.69 1680.81,-250.007 1670.31,-251.463 1673.51,-257.69"/>
</g>
<!-- 15458&#45;&gt;Shoot -->
<g id="edge58" class="edge"><title>15458&#45;&gt;Shoot</title>
<path fill="none" stroke="green" stroke-width="0.721593" stroke-dasharray="1,5" d="M193.074,-350.036C200.234,-339.065 210.159,-326.846 222.256,-319.487 291.083,-277.618 535.689,-250.328 629.377,-241.202"/>
<polygon fill="green" stroke="green" stroke-width="0.721593" points="629.898,-244.668 639.518,-240.228 629.229,-237.7 629.898,-244.668"/>
</g>
<!-- 17604&#45;&gt;Turn left/right -->
<g id="edge70" class="edge"><title>17604&#45;&gt;Turn left/right</title>
<path fill="none" stroke="green" stroke-width="0.216291" d="M2160.44,-467.925C2175.25,-431.486 2195.8,-362.605 2162.26,-319.487 2129.96,-277.976 1980.23,-254.16 1896.8,-243.896"/>
<polygon fill="green" stroke="green" stroke-width="0.216291" points="1897.07,-240.402 1886.72,-242.682 1896.23,-247.352 1897.07,-240.402"/>
</g>
<!-- 17604&#45;&gt;18062 -->
<g id="edge75" class="edge"><title>17604&#45;&gt;18062</title>
<path fill="none" stroke="green" stroke-width="0.566867" d="M2143.87,-466.176C2140.57,-450.106 2136.29,-429.303 2132.67,-411.692"/>
<polygon fill="green" stroke="green" stroke-width="0.566867" points="2136.07,-410.841 2130.62,-401.751 2129.21,-412.251 2136.07,-410.841"/>
</g>
<!-- 18183&#45;&gt;Shoot -->
<g id="edge77" class="edge"><title>18183&#45;&gt;Shoot</title>
<path fill="none" stroke="red" stroke-width="0.199329" d="M313.188,-356.683C328.701,-344.831 350.79,-329.41 372.256,-319.487 460.301,-278.786 572.802,-254.528 629.733,-244.013"/>
<polygon fill="red" stroke="red" stroke-width="0.199329" points="630.482,-247.434 639.698,-242.208 629.235,-240.546 630.482,-247.434"/>
</g>
<!-- 16621&#45;&gt;Shoot -->
<g id="edge66" class="edge"><title>16621&#45;&gt;Shoot</title>
<path fill="none" stroke="green" stroke-width="0.32567" d="M531.312,-350.183C537.527,-340.127 545.511,-328.62 554.256,-319.487 578.311,-294.365 610.905,-271.577 634.728,-256.496"/>
<polygon fill="green" stroke="green" stroke-width="0.32567" points="636.751,-259.359 643.393,-251.105 633.053,-253.416 636.751,-259.359"/>
</g>
<!-- 18062&#45;&gt;Turn left/right -->
<g id="edge73" class="edge"><title>18062&#45;&gt;Turn left/right</title>
<path fill="none" stroke="green" stroke-width="1.23759" d="M2100.46,-361.826C2053.96,-339.664 1952.8,-291.453 1891.21,-262.1"/>
<polygon fill="green" stroke="green" stroke-width="1.23759" points="1892.58,-258.877 1882.05,-257.735 1889.57,-265.196 1892.58,-258.877"/>
</g>
<!-- 13586&#45;&gt;Shoot -->
<g id="edge53" class="edge"><title>13586&#45;&gt;Shoot</title>
<path fill="none" stroke="red" stroke-width="0.415399" d="M604.32,-349.983C616.6,-327.743 635.074,-294.287 648.651,-269.7"/>
<polygon fill="red" stroke="red" stroke-width="0.415399" points="651.821,-271.199 653.591,-260.753 645.693,-267.815 651.821,-271.199"/>
</g>
<!-- 15576&#45;&gt; Move Left/Right -->
<g id="edge60" class="edge"><title>15576&#45;&gt; Move Left/Right</title>
<path fill="none" stroke="red" stroke-width="0.213189" d="M1490.26,-465.593C1490.26,-457.866 1490.26,-449.082 1490.26,-440.103"/>
<polygon fill="red" stroke="red" stroke-width="0.213189" points="1493.76,-439.929 1490.26,-429.929 1486.76,-439.929 1493.76,-439.929"/>
</g>
<!-- 15708&#45;&gt;Move Forward/Backward -->
<g id="edge63" class="edge"><title>15708&#45;&gt;Move Forward/Backward</title>
<path fill="none" stroke="red" stroke-width="0.513082" d="M1689.15,-214.033C1682.01,-205.608 1673.01,-196.49 1663.26,-190.149 1587.3,-140.773 1487.36,-110.916 1417.05,-94.5789"/>
<polygon fill="red" stroke="red" stroke-width="0.513082" points="1417.42,-91.0748 1406.89,-92.2659 1415.87,-97.8999 1417.42,-91.0748"/>
</g>
<!-- 13790&#45;&gt;Turn left/right -->
<g id="edge55" class="edge"><title>13790&#45;&gt;Turn left/right</title>
<path fill="none" stroke="green" stroke-width="0.397801" stroke-dasharray="1,5" d="M2262.36,-350.155C2255.19,-339.213 2245.27,-326.984 2233.26,-319.487 2127.74,-253.627 1978.32,-239.904 1897.51,-237.632"/>
<polygon fill="green" stroke="green" stroke-width="0.397801" points="1897.13,-234.123 1887.05,-237.392 1896.96,-241.121 1897.13,-234.123"/>
</g>
</g>
</svg>
