<?xml version="1.0" encoding="UTF-8" standalone="no"?>
<!DOCTYPE svg PUBLIC "-//W3C//DTD SVG 1.1//EN"
 "http://www.w3.org/Graphics/SVG/1.1/DTD/svg11.dtd">
<!-- Generated by graphviz version 2.38.0 (20140413.2041)
 -->
<!-- Title: %3 Pages: 1 -->
<svg width="2519pt" height="172pt"
 viewBox="0.00 0.00 2519.00 172.31" xmlns="http://www.w3.org/2000/svg" xmlns:xlink="http://www.w3.org/1999/xlink">
<g id="graph0" class="graph" transform="scale(1 1) rotate(0) translate(4 168.309)">
<title>%3</title>
<polygon fill="white" stroke="none" points="-4,4 -4,-168.309 2515,-168.309 2515,4 -4,4"/>
<!-- wallRadar[1,0] -->
<g id="node1" class="node"><title>wallRadar[1,0]</title>
<polygon fill="lightgray" stroke="black" points="634,-164.309 564,-164.309 564,-146.309 634,-146.309 634,-164.309"/>
<text text-anchor="middle" x="599" y="-153.109" font-family="Times,serif" font-size="9.00">wallRadar[1,0]</text>
</g>
<!-- Move right -->
<g id="node28" class="node"><title>Move right</title>
<ellipse fill="lightblue" stroke="black" cx="1380" cy="-55.1543" rx="39.6962" ry="39.6962"/>
<text text-anchor="middle" x="1380" y="-52.9543" font-family="Times,serif" font-size="9.00">Move right</text>
</g>
<!-- wallRadar[1,0]&#45;&gt;Move right -->
<g id="edge6" class="edge"><title>wallRadar[1,0]&#45;&gt;Move right</title>
<path fill="none" stroke="green" stroke-width="0.342202" d="M634.006,-147.548C637.041,-147.082 640.071,-146.659 643,-146.309 915.302,-113.719 992.589,-175.39 1259,-110.309 1285.92,-103.732 1314.29,-91.3616 1336.78,-80.1024"/>
<polygon fill="green" stroke="green" stroke-width="0.342202" points="1338.41,-83.1981 1345.73,-75.5299 1335.23,-76.9653 1338.41,-83.1981"/>
</g>
<!-- Turn Left -->
<g id="node29" class="node"><title>Turn Left</title>
<ellipse fill="lightblue" stroke="black" cx="1215" cy="-55.1543" rx="35.2113" ry="35.2113"/>
<text text-anchor="middle" x="1215" y="-52.9543" font-family="Times,serif" font-size="9.00">Turn Left</text>
</g>
<!-- wallRadar[1,0]&#45;&gt;Turn Left -->
<g id="edge45" class="edge"><title>wallRadar[1,0]&#45;&gt;Turn Left</title>
<path fill="none" stroke="green" stroke-width="0.315521" d="M634.013,-147.605C637.047,-147.127 640.074,-146.685 643,-146.309 851.225,-119.495 912.479,-169.18 1114,-110.309 1136.16,-103.836 1158.97,-92.1077 1177.3,-81.2169"/>
<polygon fill="green" stroke="green" stroke-width="0.315521" points="1179.2,-84.1587 1185.92,-75.9645 1175.56,-78.1819 1179.2,-84.1587"/>
</g>
<!-- Turn Right -->
<g id="node30" class="node"><title>Turn Right</title>
<ellipse fill="lightblue" stroke="black" cx="587" cy="-55.1543" rx="39.6962" ry="39.6962"/>
<text text-anchor="middle" x="587" y="-52.9543" font-family="Times,serif" font-size="9.00">Turn Right</text>
</g>
<!-- wallRadar[1,0]&#45;&gt;Turn Right -->
<g id="edge60" class="edge"><title>wallRadar[1,0]&#45;&gt;Turn Right</title>
<path fill="none" stroke="red" stroke-width="0.128647" d="M598.018,-146.276C596.878,-136.949 594.9,-120.776 592.933,-104.683"/>
<polygon fill="red" stroke="red" stroke-width="0.128647" points="596.404,-104.235 591.717,-94.734 589.456,-105.085 596.404,-104.235"/>
</g>
<!-- wallRadar[0,1] -->
<g id="node2" class="node"><title>wallRadar[0,1]</title>
<polygon fill="lightgray" stroke="black" points="936,-164.309 866,-164.309 866,-146.309 936,-146.309 936,-164.309"/>
<text text-anchor="middle" x="901" y="-153.109" font-family="Times,serif" font-size="9.00">wallRadar[0,1]</text>
</g>
<!-- Shoot -->
<g id="node24" class="node"><title>Shoot</title>
<ellipse fill="lightblue" stroke="black" cx="1060" cy="-55.1543" rx="26.7407" ry="26.7407"/>
<text text-anchor="middle" x="1060" y="-52.9543" font-family="Times,serif" font-size="9.00">Shoot</text>
</g>
<!-- wallRadar[0,1]&#45;&gt;Shoot -->
<g id="edge69" class="edge"><title>wallRadar[0,1]&#45;&gt;Shoot</title>
<path fill="none" stroke="red" stroke-width="0.18464" d="M914.012,-146.276C938.862,-130.935 993.708,-97.078 1028.65,-75.5086"/>
<polygon fill="red" stroke="red" stroke-width="0.18464" points="1030.83,-78.2737 1037.5,-70.0425 1027.15,-72.3173 1030.83,-78.2737"/>
</g>
<!-- Move Forward -->
<g id="node25" class="node"><title>Move Forward</title>
<ellipse fill="lightblue" stroke="black" cx="1551" cy="-55.1543" rx="50.41" ry="50.41"/>
<text text-anchor="middle" x="1551" y="-52.9543" font-family="Times,serif" font-size="9.00">Move Forward</text>
</g>
<!-- wallRadar[0,1]&#45;&gt;Move Forward -->
<g id="edge73" class="edge"><title>wallRadar[0,1]&#45;&gt;Move Forward</title>
<path fill="none" stroke="red" stroke-width="0.181119" d="M936.013,-147.598C939.046,-147.122 942.073,-146.682 945,-146.309 1158.97,-118.977 1219.79,-162.839 1429,-110.309 1452.49,-104.41 1477.14,-94.2988 1498.09,-84.3995"/>
<polygon fill="red" stroke="red" stroke-width="0.181119" points="1499.64,-87.5345 1507.12,-80.0329 1496.6,-81.2315 1499.64,-87.5345"/>
</g>
<!-- Move Left -->
<g id="node27" class="node"><title>Move Left</title>
<ellipse fill="lightblue" stroke="black" cx="701" cy="-55.1543" rx="38.3684" ry="38.3684"/>
<text text-anchor="middle" x="701" y="-52.9543" font-family="Times,serif" font-size="9.00">Move Left</text>
</g>
<!-- wallRadar[0,1]&#45;&gt;Move Left -->
<g id="edge30" class="edge"><title>wallRadar[0,1]&#45;&gt;Move Left</title>
<path fill="none" stroke="red" stroke-width="0.202305" d="M884.633,-146.276C854.236,-131.358 788.16,-98.9302 744.126,-77.3193"/>
<polygon fill="red" stroke="red" stroke-width="0.202305" points="745.604,-74.146 735.085,-72.8822 742.52,-80.43 745.604,-74.146"/>
</g>
<!-- wallRadar[0,1]&#45;&gt;Turn Left -->
<g id="edge50" class="edge"><title>wallRadar[0,1]&#45;&gt;Turn Left</title>
<path fill="none" stroke="red" stroke-width="0.141489" d="M936.365,-147.581C992.532,-136.81 1097.49,-116.295 1114,-110.309 1135.7,-102.438 1158.47,-90.5794 1176.89,-79.9633"/>
<polygon fill="red" stroke="red" stroke-width="0.141489" points="1178.71,-82.9556 1185.56,-74.8746 1175.17,-76.9189 1178.71,-82.9556"/>
</g>
<!-- wallRadar[&#45;1,0] -->
<g id="node3" class="node"><title>wallRadar[&#45;1,0]</title>
<polygon fill="lightgray" stroke="black" points="725.5,-164.309 652.5,-164.309 652.5,-146.309 725.5,-146.309 725.5,-164.309"/>
<text text-anchor="middle" x="689" y="-153.109" font-family="Times,serif" font-size="9.00">wallRadar[&#45;1,0]</text>
</g>
<!-- wallRadar[&#45;1,0]&#45;&gt;Shoot -->
<g id="edge51" class="edge"><title>wallRadar[&#45;1,0]&#45;&gt;Shoot</title>
<path fill="none" stroke="green" stroke-width="0.174738" d="M719.36,-146.276C787.318,-128.297 951.411,-84.8834 1024.2,-65.6263"/>
<polygon fill="green" stroke="green" stroke-width="0.174738" points="1025.48,-68.9076 1034.25,-62.9663 1023.69,-62.1404 1025.48,-68.9076"/>
</g>
<!-- wallRadar[&#45;1,0]&#45;&gt;Move Forward -->
<g id="edge41" class="edge"><title>wallRadar[&#45;1,0]&#45;&gt;Move Forward</title>
<path fill="none" stroke="red" stroke-width="0.379142" d="M725.601,-147.534C728.773,-147.071 731.939,-146.653 735,-146.309 1041.92,-111.786 1128.62,-182.162 1429,-110.309 1452.56,-104.673 1477.22,-94.6109 1498.15,-84.6764"/>
<polygon fill="red" stroke="red" stroke-width="0.379142" points="1499.72,-87.8063 1507.19,-80.2892 1496.66,-81.5096 1499.72,-87.8063"/>
</g>
<!-- wallRadar[&#45;1,0]&#45;&gt;Move Left -->
<g id="edge1" class="edge"><title>wallRadar[&#45;1,0]&#45;&gt;Move Left</title>
<path fill="none" stroke="red" stroke-width="0.245508" d="M689.982,-146.276C691.15,-136.721 693.196,-119.983 695.211,-103.505"/>
<polygon fill="red" stroke="red" stroke-width="0.245508" points="698.714,-103.696 696.453,-93.3454 691.765,-102.847 698.714,-103.696"/>
</g>
<!-- wallRadar[&#45;1,0]&#45;&gt;Move right -->
<g id="edge84" class="edge"><title>wallRadar[&#45;1,0]&#45;&gt;Move right</title>
<path fill="none" stroke="red" stroke-width="0.245411" d="M725.608,-147.59C728.778,-147.115 731.942,-146.679 735,-146.309 966.748,-118.272 1032.52,-166.864 1259,-110.309 1285.89,-103.595 1314.25,-91.216 1336.75,-79.9867"/>
<polygon fill="red" stroke="red" stroke-width="0.245411" points="1338.38,-83.0863 1345.7,-75.4285 1335.2,-76.8489 1338.38,-83.0863"/>
</g>
<!-- wallRadar[&#45;1,0]&#45;&gt;Turn Right -->
<g id="edge64" class="edge"><title>wallRadar[&#45;1,0]&#45;&gt;Turn Right</title>
<path fill="none" stroke="red" stroke-width="0.161554" d="M680.653,-146.276C668.11,-134.206 643.655,-110.673 622.88,-90.6813"/>
<polygon fill="red" stroke="red" stroke-width="0.161554" points="625.054,-87.9159 615.421,-83.5039 620.2,-92.9599 625.054,-87.9159"/>
</g>
<!-- wallRadar[0,&#45;1] -->
<g id="node4" class="node"><title>wallRadar[0,&#45;1]</title>
<polygon fill="lightgray" stroke="black" points="1241.5,-164.309 1168.5,-164.309 1168.5,-146.309 1241.5,-146.309 1241.5,-164.309"/>
<text text-anchor="middle" x="1205" y="-153.109" font-family="Times,serif" font-size="9.00">wallRadar[0,&#45;1]</text>
</g>
<!-- wallRadar[0,&#45;1]&#45;&gt;Shoot -->
<g id="edge22" class="edge"><title>wallRadar[0,&#45;1]&#45;&gt;Shoot</title>
<path fill="none" stroke="green" stroke-width="0.314775" d="M1193.13,-146.276C1170.88,-131.21 1122.24,-98.2838 1090.32,-76.6782"/>
<polygon fill="green" stroke="green" stroke-width="0.314775" points="1092.04,-73.6161 1081.8,-70.9088 1088.12,-79.4129 1092.04,-73.6161"/>
</g>
<!-- wallRadar[0,&#45;1]&#45;&gt;Move Forward -->
<g id="edge59" class="edge"><title>wallRadar[0,&#45;1]&#45;&gt;Move Forward</title>
<path fill="none" stroke="red" stroke-width="0.369908" d="M1241.67,-147.571C1300.55,-136.682 1411.38,-115.873 1429,-110.309 1451.9,-103.078 1476.25,-92.8269 1497.13,-83.1862"/>
<polygon fill="red" stroke="red" stroke-width="0.369908" points="1498.89,-86.2265 1506.46,-78.8126 1495.92,-79.8884 1498.89,-86.2265"/>
</g>
<!-- wallRadar[0,&#45;1]&#45;&gt;Move right -->
<g id="edge5" class="edge"><title>wallRadar[0,&#45;1]&#45;&gt;Move right</title>
<path fill="none" stroke="red" stroke-width="0.428247" d="M1219.32,-146.276C1244.71,-132.034 1298.56,-101.833 1336.91,-80.3206"/>
<polygon fill="red" stroke="red" stroke-width="0.428247" points="1338.81,-83.2716 1345.82,-75.3271 1335.38,-77.1664 1338.81,-83.2716"/>
</g>
<!-- wallRadar[0,&#45;1]&#45;&gt;Turn Left -->
<g id="edge74" class="edge"><title>wallRadar[0,&#45;1]&#45;&gt;Turn Left</title>
<path fill="none" stroke="red" stroke-width="0.360478" d="M1205.82,-146.276C1206.85,-136.172 1208.7,-118.035 1210.47,-100.667"/>
<polygon fill="red" stroke="red" stroke-width="0.360478" points="1213.96,-100.899 1211.49,-90.596 1207,-100.19 1213.96,-100.899"/>
</g>
<!-- wallRadar[0.7,0.7] -->
<g id="node5" class="node"><title>wallRadar[0.7,0.7]</title>
<polygon fill="lightgray" stroke="black" points="1477.5,-164.309 1394.5,-164.309 1394.5,-146.309 1477.5,-146.309 1477.5,-164.309"/>
<text text-anchor="middle" x="1436" y="-153.109" font-family="Times,serif" font-size="9.00">wallRadar[0.7,0.7]</text>
</g>
<!-- wallRadar[0.7,0.7]&#45;&gt;Move Forward -->
<g id="edge17" class="edge"><title>wallRadar[0.7,0.7]&#45;&gt;Move Forward</title>
<path fill="none" stroke="green" stroke-width="0.240741" d="M1445.41,-146.276C1458.56,-135.054 1483.32,-113.923 1505.55,-94.9426"/>
<polygon fill="green" stroke="green" stroke-width="0.240741" points="1507.96,-97.4925 1513.29,-88.3383 1503.41,-92.1682 1507.96,-97.4925"/>
</g>
<!--  Move Backward -->
<g id="node26" class="node"><title> Move Backward</title>
<ellipse fill="lightblue" stroke="black" cx="1674" cy="-55.1543" rx="55.3091" ry="55.3091"/>
<text text-anchor="middle" x="1674" y="-52.9543" font-family="Times,serif" font-size="9.00"> Move Backward</text>
</g>
<!-- wallRadar[0.7,0.7]&#45;&gt; Move Backward -->
<g id="edge62" class="edge"><title>wallRadar[0.7,0.7]&#45;&gt; Move Backward</title>
<path fill="none" stroke="green" stroke-width="0.258365" d="M1476.47,-146.285C1520.27,-137.216 1586.93,-122.171 1610,-110.309 1615.61,-107.426 1621.15,-103.968 1626.49,-100.213"/>
<polygon fill="green" stroke="green" stroke-width="0.258365" points="1628.76,-102.886 1634.69,-94.1064 1624.57,-97.2717 1628.76,-102.886"/>
</g>
<!-- wallRadar[0.7,0.7]&#45;&gt;Turn Left -->
<g id="edge8" class="edge"><title>wallRadar[0.7,0.7]&#45;&gt;Turn Left</title>
<path fill="none" stroke="green" stroke-width="0.233398" d="M1416.16,-146.271C1394.97,-137.623 1360.46,-123.351 1331,-110.309 1305.93,-99.2079 1278.08,-86.2289 1255.95,-75.7603"/>
<polygon fill="green" stroke="green" stroke-width="0.233398" points="1257.38,-72.564 1246.85,-71.4403 1254.38,-78.8885 1257.38,-72.564"/>
</g>
<!-- wallRadar[0.7,0.7]&#45;&gt;Turn Right -->
<g id="edge40" class="edge"><title>wallRadar[0.7,0.7]&#45;&gt;Turn Right</title>
<path fill="none" stroke="green" stroke-width="0.378449" d="M1394.3,-147.397C1391.16,-146.99 1388.03,-146.62 1385,-146.309 1223.21,-129.683 805.957,-168.285 654,-110.309 642.428,-105.893 631.331,-98.6679 621.614,-90.9122"/>
<polygon fill="green" stroke="green" stroke-width="0.378449" points="623.698,-88.091 613.795,-84.3228 619.186,-93.4436 623.698,-88.091"/>
</g>
<!-- wallRadar[&#45;0.7,0.7] -->
<g id="node6" class="node"><title>wallRadar[&#45;0.7,0.7]</title>
<polygon fill="lightgray" stroke="black" points="2511,-164.309 2425,-164.309 2425,-146.309 2511,-146.309 2511,-164.309"/>
<text text-anchor="middle" x="2468" y="-153.109" font-family="Times,serif" font-size="9.00">wallRadar[&#45;0.7,0.7]</text>
</g>
<!-- wallRadar[&#45;0.7,0.7]&#45;&gt; Move Backward -->
<g id="edge44" class="edge"><title>wallRadar[&#45;0.7,0.7]&#45;&gt; Move Backward</title>
<path fill="none" stroke="green" stroke-width="0.171208" d="M2424.89,-147.568C2421.88,-147.131 2418.9,-146.707 2416,-146.309 2166.3,-111.94 1868.35,-77.8237 1739.12,-63.363"/>
<polygon fill="green" stroke="green" stroke-width="0.171208" points="1739.32,-59.8641 1729,-62.2318 1738.55,-66.8208 1739.32,-59.8641"/>
</g>
<!-- wallRadar[&#45;0.7,0.7]&#45;&gt;Move right -->
<g id="edge54" class="edge"><title>wallRadar[&#45;0.7,0.7]&#45;&gt;Move right</title>
<path fill="none" stroke="green" stroke-width="0.551121" d="M2424.92,-147.295C2421.9,-146.923 2418.91,-146.588 2416,-146.309 2211.45,-126.654 1691.37,-160.083 1492,-110.309 1467.83,-104.275 1442.71,-92.6856 1422.39,-81.7716"/>
<polygon fill="green" stroke="green" stroke-width="0.551121" points="1423.87,-78.5874 1413.42,-76.8269 1420.49,-84.7183 1423.87,-78.5874"/>
</g>
<!-- wallRadar[&#45;0.7,&#45;0.7] -->
<g id="node7" class="node"><title>wallRadar[&#45;0.7,&#45;0.7]</title>
<polygon fill="lightgray" stroke="black" points="1717.5,-164.309 1628.5,-164.309 1628.5,-146.309 1717.5,-146.309 1717.5,-164.309"/>
<text text-anchor="middle" x="1673" y="-153.109" font-family="Times,serif" font-size="9.00">wallRadar[&#45;0.7,&#45;0.7]</text>
</g>
<!-- wallRadar[&#45;0.7,&#45;0.7]&#45;&gt;Shoot -->
<g id="edge31" class="edge"><title>wallRadar[&#45;0.7,&#45;0.7]&#45;&gt;Shoot</title>
<path fill="none" stroke="red" stroke-width="0.123278" d="M1628.24,-147.442C1625.12,-147.035 1622.01,-146.653 1619,-146.309 1420.54,-123.659 1363.67,-163.02 1171,-110.309 1142.59,-102.536 1112.71,-87.5107 1091.11,-75.2551"/>
<polygon fill="red" stroke="red" stroke-width="0.123278" points="1092.8,-72.1883 1082.39,-70.2014 1089.29,-78.2445 1092.8,-72.1883"/>
</g>
<!-- wallRadar[&#45;0.7,&#45;0.7]&#45;&gt;Move Forward -->
<g id="edge23" class="edge"><title>wallRadar[&#45;0.7,&#45;0.7]&#45;&gt;Move Forward</title>
<path fill="none" stroke="red" stroke-width="0.23617" d="M1660.09,-146.022C1647.1,-137.514 1626.65,-123.666 1610,-110.309 1604.83,-106.158 1599.53,-101.674 1594.34,-97.1249"/>
<polygon fill="red" stroke="red" stroke-width="0.23617" points="1596.64,-94.48 1586.84,-90.4444 1591.98,-99.7081 1596.64,-94.48"/>
</g>
<!-- wallRadar[&#45;0.7,&#45;0.7]&#45;&gt; Move Backward -->
<g id="edge16" class="edge"><title>wallRadar[&#45;0.7,&#45;0.7]&#45;&gt; Move Backward</title>
<path fill="none" stroke="green" stroke-width="0.313004" d="M1673.08,-146.276C1673.14,-140.164 1673.24,-131.112 1673.34,-121.069"/>
<polygon fill="green" stroke="green" stroke-width="0.313004" points="1676.84,-120.803 1673.44,-110.768 1669.84,-120.732 1676.84,-120.803"/>
</g>
<!-- wallRadar[&#45;0.7,&#45;0.7]&#45;&gt;Move right -->
<g id="edge21" class="edge"><title>wallRadar[&#45;0.7,&#45;0.7]&#45;&gt;Move right</title>
<path fill="none" stroke="red" stroke-width="0.293194" d="M1628.71,-146.275C1591.59,-138.897 1537.51,-126.633 1492,-110.309 1468.73,-101.961 1443.88,-90.2509 1423.51,-79.8545"/>
<polygon fill="red" stroke="red" stroke-width="0.293194" points="1424.98,-76.6741 1414.49,-75.1871 1421.76,-82.8912 1424.98,-76.6741"/>
</g>
<!-- wallRadar[&#45;0.7,&#45;0.7]&#45;&gt;Turn Left -->
<g id="edge57" class="edge"><title>wallRadar[&#45;0.7,&#45;0.7]&#45;&gt;Turn Left</title>
<path fill="none" stroke="red" stroke-width="0.337938" d="M1628.22,-147.595C1625.1,-147.152 1622,-146.719 1619,-146.309 1491.19,-128.855 1454.95,-146.028 1331,-110.309 1304.46,-102.662 1276.36,-89.6811 1254.46,-78.3452"/>
<polygon fill="red" stroke="red" stroke-width="0.337938" points="1255.96,-75.1771 1245.48,-73.608 1252.69,-81.3688 1255.96,-75.1771"/>
</g>
<!-- wallRadar[0.7,&#45;0.7] -->
<g id="node8" class="node"><title>wallRadar[0.7,&#45;0.7]</title>
<polygon fill="lightgray" stroke="black" points="406,-164.309 320,-164.309 320,-146.309 406,-146.309 406,-164.309"/>
<text text-anchor="middle" x="363" y="-153.109" font-family="Times,serif" font-size="9.00">wallRadar[0.7,&#45;0.7]</text>
</g>
<!-- wallRadar[0.7,&#45;0.7]&#45;&gt;Shoot -->
<g id="edge36" class="edge"><title>wallRadar[0.7,&#45;0.7]&#45;&gt;Shoot</title>
<path fill="none" stroke="green" stroke-width="0.229201" d="M406.109,-147.524C409.116,-147.098 412.102,-146.688 415,-146.309 562.603,-126.986 600.589,-131.048 748,-110.309 848.195,-96.2121 965.583,-74.3944 1023.66,-63.2433"/>
<polygon fill="green" stroke="green" stroke-width="0.229201" points="1024.64,-66.6191 1033.79,-61.2895 1023.31,-59.7456 1024.64,-66.6191"/>
</g>
<!-- wallRadar[0.7,&#45;0.7]&#45;&gt;Move Left -->
<g id="edge34" class="edge"><title>wallRadar[0.7,&#45;0.7]&#45;&gt;Move Left</title>
<path fill="none" stroke="red" stroke-width="0.334274" d="M406.129,-147.663C409.131,-147.203 412.11,-146.749 415,-146.309 521.197,-130.142 559.872,-162.068 654,-110.309 661.056,-106.428 667.548,-101.051 673.309,-95.1818"/>
<polygon fill="red" stroke="red" stroke-width="0.334274" points="676.091,-97.3233 680.203,-87.5591 670.9,-92.6277 676.091,-97.3233"/>
</g>
<!-- wallRadar[0.7,&#45;0.7]&#45;&gt;Turn Left -->
<g id="edge2" class="edge"><title>wallRadar[0.7,&#45;0.7]&#45;&gt;Turn Left</title>
<path fill="none" stroke="green" stroke-width="0.152048" d="M406.087,-147.336C409.099,-146.955 412.092,-146.606 415,-146.309 569.73,-130.463 964.171,-152.068 1114,-110.309 1136.24,-104.111 1159.06,-92.4091 1177.37,-81.4641"/>
<polygon fill="green" stroke="green" stroke-width="0.152048" points="1179.29,-84.395 1185.98,-76.1794 1175.63,-78.43 1179.29,-84.395"/>
</g>
<!-- wallRadar[0.7,&#45;0.7]&#45;&gt;Turn Right -->
<g id="edge13" class="edge"><title>wallRadar[0.7,&#45;0.7]&#45;&gt;Turn Right</title>
<path fill="none" stroke="green" stroke-width="0.20274" d="M381.331,-146.276C416.08,-131.05 492.46,-97.5806 541.728,-75.9919"/>
<polygon fill="green" stroke="green" stroke-width="0.20274" points="543.143,-79.1932 550.898,-71.9739 540.334,-72.7817 543.143,-79.1932"/>
</g>
<!-- enemyRadar[RightBack] -->
<g id="node9" class="node"><title>enemyRadar[RightBack]</title>
<polygon fill="lightgray" stroke="black" points="848,-164.309 744,-164.309 744,-146.309 848,-146.309 848,-164.309"/>
<text text-anchor="middle" x="796" y="-153.109" font-family="Times,serif" font-size="9.00">enemyRadar[RightBack]</text>
</g>
<!-- enemyRadar[RightBack]&#45;&gt;Shoot -->
<g id="edge33" class="edge"><title>enemyRadar[RightBack]&#45;&gt;Shoot</title>
<path fill="none" stroke="green" stroke-width="0.296772" d="M817.604,-146.276C863.281,-129.294 969.991,-89.6196 1025.33,-69.0439"/>
<polygon fill="green" stroke="green" stroke-width="0.296772" points="1026.89,-72.1996 1035.04,-65.434 1024.45,-65.6384 1026.89,-72.1996"/>
</g>
<!-- enemyRadar[RightBack]&#45;&gt; Move Backward -->
<g id="edge14" class="edge"><title>enemyRadar[RightBack]&#45;&gt; Move Backward</title>
<path fill="none" stroke="green" stroke-width="0.282843" d="M848.212,-147.173C851.183,-146.857 854.128,-146.565 857,-146.309 1023.86,-131.404 1454.12,-171.671 1610,-110.309 1615.95,-107.965 1621.75,-104.828 1627.27,-101.241"/>
<polygon fill="green" stroke="green" stroke-width="0.282843" points="1629.55,-103.914 1635.69,-95.2812 1625.51,-98.1992 1629.55,-103.914"/>
</g>
<!-- enemyRadar[RightBack]&#45;&gt;Turn Right -->
<g id="edge81" class="edge"><title>enemyRadar[RightBack]&#45;&gt;Turn Right</title>
<path fill="none" stroke="red" stroke-width="0.112912" d="M756.148,-146.24C726.771,-139.293 686.448,-127.621 654,-110.309 643.278,-104.588 632.614,-97.0439 623.049,-89.4096"/>
<polygon fill="red" stroke="red" stroke-width="0.112912" points="625.238,-86.678 615.297,-83.0137 620.783,-92.0775 625.238,-86.678"/>
</g>
<!-- enemyRadar[LeftBack] -->
<g id="node10" class="node"><title>enemyRadar[LeftBack]</title>
<polygon fill="lightgray" stroke="black" points="1834.5,-164.309 1735.5,-164.309 1735.5,-146.309 1834.5,-146.309 1834.5,-164.309"/>
<text text-anchor="middle" x="1785" y="-153.109" font-family="Times,serif" font-size="9.00">enemyRadar[LeftBack]</text>
</g>
<!-- enemyRadar[LeftBack]&#45;&gt;Move Forward -->
<g id="edge28" class="edge"><title>enemyRadar[LeftBack]&#45;&gt;Move Forward</title>
<path fill="none" stroke="red" stroke-width="0.413822" d="M1743.01,-146.231C1698.87,-137.307 1632.75,-122.574 1610,-110.309 1604.08,-107.117 1598.29,-103.198 1592.79,-98.9397"/>
<polygon fill="red" stroke="red" stroke-width="0.413822" points="1594.91,-96.1529 1584.97,-92.5046 1590.47,-101.56 1594.91,-96.1529"/>
</g>
<!-- enemyRadar[LeftBack]&#45;&gt;Move right -->
<g id="edge80" class="edge"><title>enemyRadar[LeftBack]&#45;&gt;Move right</title>
<path fill="none" stroke="green" stroke-width="0.179898" d="M1735.44,-147.262C1654.94,-135.758 1503.5,-113.863 1492,-110.309 1468.38,-103.009 1443.49,-91.41 1423.19,-80.8158"/>
<polygon fill="green" stroke="green" stroke-width="0.179898" points="1424.68,-77.6434 1414.2,-76.038 1421.39,-83.8237 1424.68,-77.6434"/>
</g>
<!-- enemyRadar[LeftBack]&#45;&gt;Turn Left -->
<g id="edge52" class="edge"><title>enemyRadar[LeftBack]&#45;&gt;Turn Left</title>
<path fill="none" stroke="red" stroke-width="0.323291" d="M1735.35,-147.305C1732.52,-146.956 1729.73,-146.62 1727,-146.309 1551.42,-126.23 1501.62,-156.376 1331,-110.309 1304.34,-103.11 1276.23,-90.1424 1254.36,-78.7012"/>
<polygon fill="red" stroke="red" stroke-width="0.323291" points="1255.87,-75.5355 1245.4,-73.9126 1252.57,-81.7103 1255.87,-75.5355"/>
</g>
<!-- enemyRadar[Right45ø] -->
<g id="node11" class="node"><title>enemyRadar[Right45ø]</title>
<polygon fill="lightgray" stroke="black" points="100,-164.309 0,-164.309 0,-146.309 100,-146.309 100,-164.309"/>
<text text-anchor="middle" x="50" y="-153.109" font-family="Times,serif" font-size="9.00">enemyRadar[Right45ø]</text>
</g>
<!-- enemyRadar[Right45ø]&#45;&gt;Turn Right -->
<g id="edge56" class="edge"><title>enemyRadar[Right45ø]&#45;&gt;Turn Right</title>
<path fill="none" stroke="red" stroke-width="0.316188" d="M93.945,-146.276C193.215,-128.131 434.209,-84.0818 538.055,-65.1006"/>
<polygon fill="red" stroke="red" stroke-width="0.316188" points="538.755,-68.5307 547.963,-63.2896 537.497,-61.6448 538.755,-68.5307"/>
</g>
<!-- enemyRadar[Left45ø] -->
<g id="node12" class="node"><title>enemyRadar[Left45ø]</title>
<polygon fill="lightgray" stroke="black" points="2357.5,-164.309 2262.5,-164.309 2262.5,-146.309 2357.5,-146.309 2357.5,-164.309"/>
<text text-anchor="middle" x="2310" y="-153.109" font-family="Times,serif" font-size="9.00">enemyRadar[Left45ø]</text>
</g>
<!-- enemyRadar[Left45ø]&#45;&gt;Move Forward -->
<g id="edge53" class="edge"><title>enemyRadar[Left45ø]&#45;&gt;Move Forward</title>
<path fill="none" stroke="green" stroke-width="0.136386" d="M2262.45,-147.332C2259.26,-146.957 2256.08,-146.611 2253,-146.309 2110.57,-132.351 1741.86,-165.942 1610,-110.309 1603.63,-107.621 1597.51,-103.935 1591.78,-99.7397"/>
<polygon fill="green" stroke="green" stroke-width="0.136386" points="1593.69,-96.7827 1583.69,-93.285 1589.32,-102.256 1593.69,-96.7827"/>
</g>
<!-- enemyRadar[Left45ø]&#45;&gt; Move Backward -->
<g id="edge72" class="edge"><title>enemyRadar[Left45ø]&#45;&gt; Move Backward</title>
<path fill="none" stroke="red" stroke-width="0.121915" d="M2262.46,-146.971C2149.86,-129.595 1866.81,-85.9105 1738.73,-66.1447"/>
<polygon fill="red" stroke="red" stroke-width="0.121915" points="1739.09,-62.6588 1728.68,-64.5925 1738.02,-69.5769 1739.09,-62.6588"/>
</g>
<!-- enemyRadar[Left45ø]&#45;&gt;Move Left -->
<g id="edge19" class="edge"><title>enemyRadar[Left45ø]&#45;&gt;Move Left</title>
<path fill="none" stroke="green" stroke-width="0.137288" d="M2262.46,-147.237C2259.26,-146.885 2256.09,-146.57 2253,-146.309 1708.49,-100.263 1567.85,-163.612 1024,-110.309 925.369,-100.642 811.316,-79.0348 748.561,-66.2276"/>
<polygon fill="green" stroke="green" stroke-width="0.137288" points="749.069,-62.7589 738.569,-64.1741 747.66,-69.6156 749.069,-62.7589"/>
</g>
<!-- enemyRadar[RightFront20ø] -->
<g id="node13" class="node"><title>enemyRadar[RightFront20ø]</title>
<polygon fill="lightgray" stroke="black" points="1971.5,-164.309 1852.5,-164.309 1852.5,-146.309 1971.5,-146.309 1971.5,-164.309"/>
<text text-anchor="middle" x="1912" y="-153.109" font-family="Times,serif" font-size="9.00">enemyRadar[RightFront20ø]</text>
</g>
<!-- enemyRadar[RightFront20ø]&#45;&gt;Move Forward -->
<g id="edge76" class="edge"><title>enemyRadar[RightFront20ø]&#45;&gt;Move Forward</title>
<path fill="none" stroke="green" stroke-width="0.117551" d="M1852.21,-146.517C1767.31,-135.319 1620.83,-115.454 1610,-110.309 1603.84,-107.382 1597.88,-103.588 1592.26,-99.3682"/>
<polygon fill="green" stroke="green" stroke-width="0.117551" points="1594.27,-96.4933 1584.29,-92.9309 1589.87,-101.938 1594.27,-96.4933"/>
</g>
<!-- enemyRadar[RightFront20ø]&#45;&gt;Move right -->
<g id="edge11" class="edge"><title>enemyRadar[RightFront20ø]&#45;&gt;Move right</title>
<path fill="none" stroke="red" stroke-width="0.128131" d="M1852.3,-147.233C1849.5,-146.917 1846.72,-146.607 1844,-146.309 1687.68,-129.121 1643.3,-153.186 1492,-110.309 1468.03,-103.517 1442.93,-91.8527 1422.58,-81.0851"/>
<polygon fill="red" stroke="red" stroke-width="0.128131" points="1424.04,-77.8987 1413.58,-76.2216 1420.71,-84.0564 1424.04,-77.8987"/>
</g>
<!-- enemyRadar[RightFront20ø]&#45;&gt;Turn Left -->
<g id="edge68" class="edge"><title>enemyRadar[RightFront20ø]&#45;&gt;Turn Left</title>
<path fill="none" stroke="red" stroke-width="0.11361" d="M1852.31,-147.126C1849.5,-146.838 1846.72,-146.564 1844,-146.309 1616.44,-124.95 1552.26,-167.612 1331,-110.309 1304.27,-103.385 1276.16,-90.4254 1254.31,-78.9197"/>
<polygon fill="red" stroke="red" stroke-width="0.11361" points="1255.81,-75.7551 1245.35,-74.0996 1252.49,-81.9196 1255.81,-75.7551"/>
</g>
<!-- enemyRadar[LeftFront20ø] -->
<g id="node14" class="node"><title>enemyRadar[LeftFront20ø]</title>
<polygon fill="lightgray" stroke="black" points="1610,-164.309 1496,-164.309 1496,-146.309 1610,-146.309 1610,-164.309"/>
<text text-anchor="middle" x="1553" y="-153.109" font-family="Times,serif" font-size="9.00">enemyRadar[LeftFront20ø]</text>
</g>
<!-- enemyRadar[LeftFront20ø]&#45;&gt;Move Forward -->
<g id="edge55" class="edge"><title>enemyRadar[LeftFront20ø]&#45;&gt;Move Forward</title>
<path fill="none" stroke="red" stroke-width="0.147333" d="M1552.84,-146.276C1552.69,-139.122 1552.46,-127.942 1552.22,-115.858"/>
<polygon fill="red" stroke="red" stroke-width="0.147333" points="1555.71,-115.491 1552.01,-105.564 1548.71,-115.633 1555.71,-115.491"/>
</g>
<!-- enemyRadar[LeftFront20ø]&#45;&gt; Move Backward -->
<g id="edge77" class="edge"><title>enemyRadar[LeftFront20ø]&#45;&gt; Move Backward</title>
<path fill="none" stroke="red" stroke-width="0.177609" d="M1564.04,-146.018C1575.61,-137.278 1594.25,-123.04 1610,-110.309 1614.83,-106.406 1619.82,-102.3 1624.8,-98.1668"/>
<polygon fill="red" stroke="red" stroke-width="0.177609" points="1627.14,-100.773 1632.57,-91.6755 1622.65,-95.4003 1627.14,-100.773"/>
</g>
<!-- enemyRadar[LeftFront20ø]&#45;&gt;Move Left -->
<g id="edge9" class="edge"><title>enemyRadar[LeftFront20ø]&#45;&gt;Move Left</title>
<path fill="none" stroke="red" stroke-width="0.198455" d="M1496,-147.341C1492.62,-146.978 1489.26,-146.631 1486,-146.309 1281.04,-126.095 1228.43,-135.361 1024,-110.309 925.632,-98.2539 811.484,-77.5106 748.642,-65.498"/>
<polygon fill="red" stroke="red" stroke-width="0.198455" points="749.116,-62.0251 738.635,-63.5759 747.795,-68.8995 749.116,-62.0251"/>
</g>
<!-- enemyRadar[LeftFront20ø]&#45;&gt;Move right -->
<g id="edge66" class="edge"><title>enemyRadar[LeftFront20ø]&#45;&gt;Move right</title>
<path fill="none" stroke="green" stroke-width="0.11591" d="M1538.84,-146.276C1513.82,-132.077 1460.83,-102.012 1422.93,-80.5129"/>
<polygon fill="green" stroke="green" stroke-width="0.11591" points="1424.56,-77.4105 1414.13,-75.5199 1421.1,-83.4989 1424.56,-77.4105"/>
</g>
<!-- enemyRadar[LeftFront20ø]&#45;&gt;Turn Left -->
<g id="edge65" class="edge"><title>enemyRadar[LeftFront20ø]&#45;&gt;Turn Left</title>
<path fill="none" stroke="green" stroke-width="0.485259" d="M1495.92,-146.87C1450.5,-140.031 1385.71,-128.209 1331,-110.309 1304.75,-101.721 1276.66,-88.7125 1254.69,-77.5975"/>
<polygon fill="green" stroke="green" stroke-width="0.485259" points="1256.17,-74.4225 1245.68,-72.9682 1252.97,-80.6495 1256.17,-74.4225"/>
</g>
<!-- enemyRadar[RightFront15ø] -->
<g id="node15" class="node"><title>enemyRadar[RightFront15ø]</title>
<polygon fill="lightgray" stroke="black" points="1073.5,-164.309 954.5,-164.309 954.5,-146.309 1073.5,-146.309 1073.5,-164.309"/>
<text text-anchor="middle" x="1014" y="-153.109" font-family="Times,serif" font-size="9.00">enemyRadar[RightFront15ø]</text>
</g>
<!-- enemyRadar[RightFront15ø]&#45;&gt;Shoot -->
<g id="edge24" class="edge"><title>enemyRadar[RightFront15ø]&#45;&gt;Shoot</title>
<path fill="none" stroke="green" stroke-width="0.141402" d="M1017.76,-146.276C1023.58,-133.865 1035.08,-109.335 1044.61,-88.9963"/>
<polygon fill="green" stroke="green" stroke-width="0.141402" points="1047.88,-90.2537 1048.96,-79.7135 1041.55,-87.2832 1047.88,-90.2537"/>
</g>
<!-- enemyRadar[RightFront15ø]&#45;&gt;Move Forward -->
<g id="edge79" class="edge"><title>enemyRadar[RightFront15ø]&#45;&gt;Move Forward</title>
<path fill="none" stroke="red" stroke-width="0.248342" d="M1073.7,-147.238C1076.5,-146.921 1079.28,-146.609 1082,-146.309 1236.11,-129.25 1279.18,-150.254 1429,-110.309 1452.41,-104.068 1477.04,-93.8946 1497.99,-84.0407"/>
<polygon fill="red" stroke="red" stroke-width="0.248342" points="1499.54,-87.1823 1507.04,-79.7009 1496.51,-80.8711 1499.54,-87.1823"/>
</g>
<!-- enemyRadar[RightFront15ø]&#45;&gt;Move right -->
<g id="edge67" class="edge"><title>enemyRadar[RightFront15ø]&#45;&gt;Move right</title>
<path fill="none" stroke="green" stroke-width="0.444156" d="M1067.3,-146.289C1128.23,-136.848 1224.05,-121.09 1259,-110.309 1285.27,-102.205 1313.36,-89.8748 1335.86,-79.0261"/>
<polygon fill="green" stroke="green" stroke-width="0.444156" points="1337.7,-82.0243 1345.14,-74.484 1334.62,-75.7372 1337.7,-82.0243"/>
</g>
<!-- enemyRadar[RightFront15ø]&#45;&gt;Turn Left -->
<g id="edge48" class="edge"><title>enemyRadar[RightFront15ø]&#45;&gt;Turn Left</title>
<path fill="none" stroke="green" stroke-width="0.193283" d="M1033.75,-146.153C1054.07,-137.638 1086.55,-123.683 1114,-110.309 1134.5,-100.32 1156.9,-88.4179 1175.38,-78.3194"/>
<polygon fill="green" stroke="green" stroke-width="0.193283" points="1177.3,-81.256 1184.38,-73.3733 1173.93,-75.1209 1177.3,-81.256"/>
</g>
<!-- enemyRadar[RightFront15ø]&#45;&gt;Turn Right -->
<g id="edge61" class="edge"><title>enemyRadar[RightFront15ø]&#45;&gt;Turn Right</title>
<path fill="none" stroke="red" stroke-width="0.46785" d="M954.439,-147.238C853.045,-135.174 657.433,-111.763 654,-110.309 642.703,-105.523 631.766,-98.2439 622.119,-90.5607"/>
<polygon fill="red" stroke="red" stroke-width="0.46785" points="624.256,-87.7856 614.339,-84.0576 619.767,-93.1564 624.256,-87.7856"/>
</g>
<!-- enemyRadar[LeftFront15ø] -->
<g id="node16" class="node"><title>enemyRadar[LeftFront15ø]</title>
<polygon fill="lightgray" stroke="black" points="2104,-164.309 1990,-164.309 1990,-146.309 2104,-146.309 2104,-164.309"/>
<text text-anchor="middle" x="2047" y="-153.109" font-family="Times,serif" font-size="9.00">enemyRadar[LeftFront15ø]</text>
</g>
<!-- enemyRadar[LeftFront15ø]&#45;&gt;Shoot -->
<g id="edge35" class="edge"><title>enemyRadar[LeftFront15ø]&#45;&gt;Shoot</title>
<path fill="none" stroke="red" stroke-width="0.297468" d="M1989.79,-147.104C1986.82,-146.814 1983.88,-146.547 1981,-146.309 1801.44,-131.457 1345.61,-154.738 1171,-110.309 1142.45,-103.045 1112.58,-87.9828 1091.03,-75.5832"/>
<polygon fill="red" stroke="red" stroke-width="0.297468" points="1092.72,-72.5183 1082.32,-70.4626 1089.17,-78.5511 1092.72,-72.5183"/>
</g>
<!-- enemyRadar[LeftFront15ø]&#45;&gt;Move Forward -->
<g id="edge18" class="edge"><title>enemyRadar[LeftFront15ø]&#45;&gt;Move Forward</title>
<path fill="none" stroke="green" stroke-width="0.382673" d="M1989.77,-147.287C1986.81,-146.95 1983.87,-146.622 1981,-146.309 1898.66,-137.324 1685.64,-144.059 1610,-110.309 1603.77,-107.53 1597.77,-103.828 1592.12,-99.6593"/>
<polygon fill="green" stroke="green" stroke-width="0.382673" points="1594.13,-96.7824 1584.13,-93.2697 1589.76,-102.249 1594.13,-96.7824"/>
</g>
<!-- enemyRadar[LeftFront15ø]&#45;&gt; Move Backward -->
<g id="edge70" class="edge"><title>enemyRadar[LeftFront15ø]&#45;&gt; Move Backward</title>
<path fill="none" stroke="red" stroke-width="0.23783" d="M2016.48,-146.276C1955.66,-130.272 1818.25,-94.1147 1737.19,-72.7814"/>
<polygon fill="red" stroke="red" stroke-width="0.23783" points="1737.66,-69.2884 1727.1,-70.1283 1735.88,-76.0579 1737.66,-69.2884"/>
</g>
<!-- enemyRadar[LeftFront15ø]&#45;&gt;Move right -->
<g id="edge49" class="edge"><title>enemyRadar[LeftFront15ø]&#45;&gt;Move right</title>
<path fill="none" stroke="red" stroke-width="0.222034" d="M1989.78,-147.206C1986.81,-146.89 1983.87,-146.588 1981,-146.309 1764.1,-125.191 1702.49,-166.739 1492,-110.309 1467.94,-103.858 1442.83,-92.2278 1422.49,-81.3943"/>
<polygon fill="red" stroke="red" stroke-width="0.222034" points="1423.96,-78.2091 1413.51,-76.4943 1420.61,-84.3548 1423.96,-78.2091"/>
</g>
<!-- enemyRadar[RightFront7.5ø] -->
<g id="node17" class="node"><title>enemyRadar[RightFront7.5ø]</title>
<polygon fill="lightgray" stroke="black" points="2244,-164.309 2122,-164.309 2122,-146.309 2244,-146.309 2244,-164.309"/>
<text text-anchor="middle" x="2183" y="-153.109" font-family="Times,serif" font-size="9.00">enemyRadar[RightFront7.5ø]</text>
</g>
<!-- enemyRadar[RightFront7.5ø]&#45;&gt;Move Forward -->
<g id="edge83" class="edge"><title>enemyRadar[RightFront7.5ø]&#45;&gt;Move Forward</title>
<path fill="none" stroke="green" stroke-width="0.264547" d="M2121.93,-147.175C2118.91,-146.871 2115.92,-146.58 2113,-146.309 2001.42,-135.944 1712.91,-154.672 1610,-110.309 1603.74,-107.609 1597.71,-103.956 1592.06,-99.814"/>
<polygon fill="green" stroke="green" stroke-width="0.264547" points="1594.06,-96.9364 1584.06,-93.4498 1589.7,-102.414 1594.06,-96.9364"/>
</g>
<!-- enemyRadar[RightFront7.5ø]&#45;&gt;Move right -->
<g id="edge39" class="edge"><title>enemyRadar[RightFront7.5ø]&#45;&gt;Move right</title>
<path fill="none" stroke="green" stroke-width="0.35301" d="M2121.94,-147.127C2118.92,-146.835 2115.92,-146.56 2113,-146.309 1837.55,-122.604 1759.58,-179.816 1492,-110.309 1467.89,-104.046 1442.77,-92.434 1422.45,-81.5643"/>
<polygon fill="green" stroke="green" stroke-width="0.35301" points="1423.92,-78.3796 1413.47,-76.6441 1420.55,-84.5186 1423.92,-78.3796"/>
</g>
<!-- enemyRadar[LeftFront7.5ø] -->
<g id="node18" class="node"><title>enemyRadar[LeftFront7.5ø]</title>
<polygon fill="lightgray" stroke="black" points="1376,-164.309 1260,-164.309 1260,-146.309 1376,-146.309 1376,-164.309"/>
<text text-anchor="middle" x="1318" y="-153.109" font-family="Times,serif" font-size="9.00">enemyRadar[LeftFront7.5ø]</text>
</g>
<!-- enemyRadar[LeftFront7.5ø]&#45;&gt;Shoot -->
<g id="edge75" class="edge"><title>enemyRadar[LeftFront7.5ø]&#45;&gt;Shoot</title>
<path fill="none" stroke="red" stroke-width="0.163543" d="M1285.66,-146.258C1255.53,-138.376 1209.59,-125.38 1171,-110.309 1143.86,-99.7078 1114.26,-85.102 1092.45,-73.7302"/>
<polygon fill="red" stroke="red" stroke-width="0.163543" points="1093.8,-70.4825 1083.32,-68.9177 1090.53,-76.6755 1093.8,-70.4825"/>
</g>
<!-- enemyRadar[LeftFront7.5ø]&#45;&gt;Move Forward -->
<g id="edge26" class="edge"><title>enemyRadar[LeftFront7.5ø]&#45;&gt;Move Forward</title>
<path fill="none" stroke="green" stroke-width="0.104321" d="M1338.97,-146.287C1361.36,-137.652 1397.85,-123.391 1429,-110.309 1451.05,-101.05 1475.15,-90.4554 1496.06,-81.1072"/>
<polygon fill="green" stroke="green" stroke-width="0.104321" points="1497.73,-84.1935 1505.42,-76.909 1494.87,-77.8059 1497.73,-84.1935"/>
</g>
<!-- enemyRadar[LeftFront7.5ø]&#45;&gt; Move Backward -->
<g id="edge15" class="edge"><title>enemyRadar[LeftFront7.5ø]&#45;&gt; Move Backward</title>
<path fill="none" stroke="red" stroke-width="0.384576" d="M1376.02,-147.293C1455.05,-137.473 1589.14,-119.774 1610,-110.309 1615.83,-107.665 1621.54,-104.331 1627.01,-100.624"/>
<polygon fill="red" stroke="red" stroke-width="0.384576" points="1629.35,-103.248 1635.38,-94.534 1625.23,-97.5875 1629.35,-103.248"/>
</g>
<!-- enemyRadar[LeftFront7.5ø]&#45;&gt;Move Left -->
<g id="edge46" class="edge"><title>enemyRadar[LeftFront7.5ø]&#45;&gt;Move Left</title>
<path fill="none" stroke="red" stroke-width="0.213879" d="M1262.41,-146.286C1203.26,-137.68 1106.96,-123.47 1024,-110.309 926.121,-94.7803 811.795,-75.2934 748.791,-64.4365"/>
<polygon fill="red" stroke="red" stroke-width="0.213879" points="749.207,-60.9567 738.757,-62.7057 748.017,-67.8548 749.207,-60.9567"/>
</g>
<!-- enemyRadar[LeftFront7.5ø]&#45;&gt;Move right -->
<g id="edge82" class="edge"><title>enemyRadar[LeftFront7.5ø]&#45;&gt;Move right</title>
<path fill="none" stroke="red" stroke-width="0.315258" d="M1323.07,-146.276C1329.78,-135.653 1342.1,-116.149 1353.57,-97.9957"/>
<polygon fill="red" stroke="red" stroke-width="0.315258" points="1356.72,-99.5611 1359.1,-89.2374 1350.8,-95.8228 1356.72,-99.5611"/>
</g>
<!-- enemyRadar[LeftFront7.5ø]&#45;&gt;Turn Left -->
<g id="edge37" class="edge"><title>enemyRadar[LeftFront7.5ø]&#45;&gt;Turn Left</title>
<path fill="none" stroke="green" stroke-width="0.162642" d="M1309.57,-146.276C1296.16,-133.498 1269.27,-107.872 1247.58,-87.2017"/>
<polygon fill="green" stroke="green" stroke-width="0.162642" points="1249.81,-84.4913 1240.16,-80.1263 1244.98,-89.5589 1249.81,-84.4913"/>
</g>
<!-- enemyRadar[RightFront2.5ø] -->
<g id="node19" class="node"><title>enemyRadar[RightFront2.5ø]</title>
<polygon fill="lightgray" stroke="black" points="546,-164.309 424,-164.309 424,-146.309 546,-146.309 546,-164.309"/>
<text text-anchor="middle" x="485" y="-153.109" font-family="Times,serif" font-size="9.00">enemyRadar[RightFront2.5ø]</text>
</g>
<!-- enemyRadar[RightFront2.5ø]&#45;&gt;Shoot -->
<g id="edge20" class="edge"><title>enemyRadar[RightFront2.5ø]&#45;&gt;Shoot</title>
<path fill="none" stroke="green" stroke-width="0.240243" d="M533.488,-146.287C586.271,-137.535 673.157,-123.065 748,-110.309 847.743,-93.309 965.329,-72.7624 1023.55,-62.5552"/>
<polygon fill="green" stroke="green" stroke-width="0.240243" points="1024.47,-65.9478 1033.71,-60.7728 1023.26,-59.0531 1024.47,-65.9478"/>
</g>
<!-- enemyRadar[RightFront2.5ø]&#45;&gt;Move Left -->
<g id="edge43" class="edge"><title>enemyRadar[RightFront2.5ø]&#45;&gt;Move Left</title>
<path fill="none" stroke="red" stroke-width="0.306733" d="M546.369,-147.375C580.093,-141.424 621.54,-130.45 654,-110.309 660.768,-106.109 667.089,-100.626 672.764,-94.7626"/>
<polygon fill="red" stroke="red" stroke-width="0.306733" points="675.487,-96.9691 679.591,-87.2012 670.292,-92.2781 675.487,-96.9691"/>
</g>
<!-- enemyRadar[RightFront2.5ø]&#45;&gt;Move right -->
<g id="edge78" class="edge"><title>enemyRadar[RightFront2.5ø]&#45;&gt;Move right</title>
<path fill="none" stroke="red" stroke-width="0.105086" d="M546.061,-147.102C549.082,-146.817 552.074,-146.55 555,-146.309 711.117,-133.409 1106.69,-146.929 1259,-110.309 1286.04,-103.807 1314.52,-91.3752 1337.05,-80.0615"/>
<polygon fill="red" stroke="red" stroke-width="0.105086" points="1338.7,-83.1464 1346,-75.4672 1335.51,-76.9183 1338.7,-83.1464"/>
</g>
<!-- enemyRadar[RightFront2.5ø]&#45;&gt;Turn Right -->
<g id="edge7" class="edge"><title>enemyRadar[RightFront2.5ø]&#45;&gt;Turn Right</title>
<path fill="none" stroke="green" stroke-width="0.235756" d="M493.347,-146.276C505.89,-134.206 530.345,-110.673 551.12,-90.6813"/>
<polygon fill="green" stroke="green" stroke-width="0.235756" points="553.8,-92.9599 558.579,-83.5039 548.946,-87.9159 553.8,-92.9599"/>
</g>
<!-- enemyRadar[LeftFront2.5ø] -->
<g id="node20" class="node"><title>enemyRadar[LeftFront2.5ø]</title>
<polygon fill="lightgray" stroke="black" points="234,-164.309 118,-164.309 118,-146.309 234,-146.309 234,-164.309"/>
<text text-anchor="middle" x="176" y="-153.109" font-family="Times,serif" font-size="9.00">enemyRadar[LeftFront2.5ø]</text>
</g>
<!-- enemyRadar[LeftFront2.5ø]&#45;&gt;Move Left -->
<g id="edge42" class="edge"><title>enemyRadar[LeftFront2.5ø]&#45;&gt;Move Left</title>
<path fill="none" stroke="green" stroke-width="0.121112" d="M234.092,-147.259C237.104,-146.929 240.087,-146.61 243,-146.309 334.196,-136.872 572.329,-151.969 654,-110.309 661.251,-106.61 667.865,-101.267 673.693,-95.3619"/>
<polygon fill="green" stroke="green" stroke-width="0.121112" points="676.541,-97.4303 680.645,-87.6624 671.346,-92.7393 676.541,-97.4303"/>
</g>
<!-- enemyRadar[LeftFront2.5ø]&#45;&gt;Turn Right -->
<g id="edge10" class="edge"><title>enemyRadar[LeftFront2.5ø]&#45;&gt;Turn Right</title>
<path fill="none" stroke="green" stroke-width="0.265597" d="M209.634,-146.276C282.312,-128.919 454.241,-87.8595 538.606,-67.7116"/>
<polygon fill="green" stroke="green" stroke-width="0.265597" points="539.535,-71.0884 548.448,-65.3612 537.909,-64.2799 539.535,-71.0884"/>
</g>
<!-- OnTarget -->
<g id="node21" class="node"><title>OnTarget</title>
<polygon fill="lightgray" stroke="black" points="302,-164.309 252,-164.309 252,-146.309 302,-146.309 302,-164.309"/>
<text text-anchor="middle" x="277" y="-153.109" font-family="Times,serif" font-size="9.00">OnTarget</text>
</g>
<!-- OnTarget&#45;&gt;Move Left -->
<g id="edge71" class="edge"><title>OnTarget&#45;&gt;Move Left</title>
<path fill="none" stroke="red" stroke-width="0.314477" d="M302.179,-148.01C305.141,-147.38 308.13,-146.795 311,-146.309 462.128,-120.704 518.06,-181.13 654,-110.309 661.219,-106.547 667.817,-101.174 673.64,-95.2584"/>
<polygon fill="red" stroke="red" stroke-width="0.314477" points="676.49,-97.3243 680.589,-87.5547 671.292,-92.6356 676.49,-97.3243"/>
</g>
<!-- OnTarget&#45;&gt;Turn Right -->
<g id="edge47" class="edge"><title>OnTarget&#45;&gt;Turn Right</title>
<path fill="none" stroke="green" stroke-width="0.272366" d="M302.106,-146.359C353.794,-129.994 472.828,-92.3044 539.518,-71.1883"/>
<polygon fill="green" stroke="green" stroke-width="0.272366" points="540.882,-74.4279 549.359,-68.0725 538.769,-67.7544 540.882,-74.4279"/>
</g>
<!-- TakingDmg -->
<g id="node22" class="node"><title>TakingDmg</title>
<polygon fill="lightgray" stroke="black" points="1150.5,-164.309 1091.5,-164.309 1091.5,-146.309 1150.5,-146.309 1150.5,-164.309"/>
<text text-anchor="middle" x="1121" y="-153.109" font-family="Times,serif" font-size="9.00">TakingDmg</text>
</g>
<!-- TakingDmg&#45;&gt;Shoot -->
<g id="edge27" class="edge"><title>TakingDmg&#45;&gt;Shoot</title>
<path fill="none" stroke="green" stroke-width="0.12979" d="M1116.01,-146.276C1108.04,-133.456 1092.04,-107.705 1079.17,-87.0005"/>
<polygon fill="green" stroke="green" stroke-width="0.12979" points="1082.13,-85.1344 1073.88,-78.4884 1076.19,-88.8294 1082.13,-85.1344"/>
</g>
<!-- TakingDmg&#45;&gt;Move Forward -->
<g id="edge4" class="edge"><title>TakingDmg&#45;&gt;Move Forward</title>
<path fill="none" stroke="green" stroke-width="0.559267" d="M1150.83,-147.808C1153.59,-147.274 1156.34,-146.765 1159,-146.309 1278.32,-125.824 1312.49,-143.201 1429,-110.309 1452.31,-103.727 1476.93,-93.4914 1497.89,-83.6828"/>
<polygon fill="green" stroke="green" stroke-width="0.559267" points="1499.43,-86.8307 1506.95,-79.3697 1496.41,-80.5113 1499.43,-86.8307"/>
</g>
<!-- TakingDmg&#45;&gt;Move right -->
<g id="edge32" class="edge"><title>TakingDmg&#45;&gt;Move right</title>
<path fill="none" stroke="green" stroke-width="0.144998" d="M1149.34,-146.287C1177.46,-138.09 1221.65,-124.571 1259,-110.309 1284.68,-100.503 1312.74,-88.0597 1335.36,-77.5738"/>
<polygon fill="green" stroke="green" stroke-width="0.144998" points="1337.12,-80.6146 1344.7,-73.213 1334.16,-74.2717 1337.12,-80.6146"/>
</g>
<!-- TakingDmg&#45;&gt;Turn Left -->
<g id="edge58" class="edge"><title>TakingDmg&#45;&gt;Turn Left</title>
<path fill="none" stroke="red" stroke-width="0.331534" d="M1128.69,-146.276C1140.64,-133.798 1164.32,-109.07 1183.86,-88.6678"/>
<polygon fill="red" stroke="red" stroke-width="0.331534" points="1186.46,-91.0208 1190.84,-81.3777 1181.4,-86.1792 1186.46,-91.0208"/>
</g>
<!-- TakingDmg&#45;&gt;Turn Right -->
<g id="edge3" class="edge"><title>TakingDmg&#45;&gt;Turn Right</title>
<path fill="none" stroke="red" stroke-width="0.195286" d="M1091.25,-147.829C1088.14,-147.263 1085.01,-146.742 1082,-146.309 893.058,-119.081 831.146,-181.441 654,-110.309 642.615,-105.737 631.646,-98.5345 621.997,-90.8569"/>
<polygon fill="red" stroke="red" stroke-width="0.195286" points="624.135,-88.0819 614.221,-84.3432 619.639,-93.4479 624.135,-88.0819"/>
</g>
<!-- bias -->
<g id="node23" class="node"><title>bias</title>
<polygon fill="lightgray" stroke="black" points="2406.5,-164.309 2375.5,-164.309 2375.5,-146.309 2406.5,-146.309 2406.5,-164.309"/>
<text text-anchor="middle" x="2391" y="-153.109" font-family="Times,serif" font-size="9.00">bias</text>
</g>
<!-- bias&#45;&gt;Shoot -->
<g id="edge25" class="edge"><title>bias&#45;&gt;Shoot</title>
<path fill="none" stroke="red" stroke-width="0.136682" d="M2375.42,-148.389C2372.65,-147.547 2369.77,-146.801 2367,-146.309 2105.21,-99.7725 1429.15,-174.029 1171,-110.309 1142.4,-103.25 1112.53,-88.1724 1090.99,-75.715"/>
<polygon fill="red" stroke="red" stroke-width="0.136682" points="1092.69,-72.6505 1082.3,-70.5675 1089.12,-78.674 1092.69,-72.6505"/>
</g>
<!-- bias&#45;&gt;Move Forward -->
<g id="edge29" class="edge"><title>bias&#45;&gt;Move Forward</title>
<path fill="none" stroke="green" stroke-width="0.208196" d="M2375.41,-148.429C2372.64,-147.583 2369.76,-146.825 2367,-146.309 2201.45,-115.39 1765.44,-175.125 1610,-110.309 1603.62,-107.648 1597.49,-103.978 1591.76,-99.7919"/>
<polygon fill="green" stroke="green" stroke-width="0.208196" points="1593.67,-96.8348 1583.66,-93.3455 1589.31,-102.312 1593.67,-96.8348"/>
</g>
<!-- bias&#45;&gt; Move Backward -->
<g id="edge38" class="edge"><title>bias&#45;&gt; Move Backward</title>
<path fill="none" stroke="red" stroke-width="0.337312" d="M2375.37,-148.62C2372.61,-147.752 2369.74,-146.937 2367,-146.309 2139.55,-94.117 1862.68,-69.4596 1739.05,-60.424"/>
<polygon fill="red" stroke="red" stroke-width="0.337312" points="1739.21,-56.927 1728.99,-59.6987 1738.71,-63.9089 1739.21,-56.927"/>
</g>
<!-- Shoot&#45;&gt;Shoot -->
<g id="edge63" class="edge"><title>Shoot&#45;&gt;Shoot</title>
<path fill="none" stroke="green" stroke-width="0.101279" d="M1080.77,-72.7325C1093.19,-76.6387 1104.87,-70.7793 1104.87,-55.1543 1104.87,-43.9239 1098.83,-37.7383 1090.83,-36.5977"/>
<polygon fill="green" stroke="green" stroke-width="0.101279" points="1090.38,-33.1243 1080.77,-37.5762 1091.06,-40.0914 1090.38,-33.1243"/>
</g>
<!-- Turn Right&#45;&gt;Turn Right -->
<g id="edge12" class="edge"><title>Turn Right&#45;&gt;Turn Right</title>
<path fill="none" stroke="red" stroke-width="0.37962" d="M622.151,-73.894C634.543,-74.1939 644.598,-67.9473 644.598,-55.1543 644.598,-46.1593 639.627,-40.4007 632.368,-37.8785"/>
<polygon fill="red" stroke="red" stroke-width="0.37962" points="632.547,-34.3684 622.151,-36.4146 631.554,-41.2977 632.547,-34.3684"/>
</g>
</g>
</svg>
