<?xml version="1.0" encoding="UTF-8" standalone="no"?>
<!DOCTYPE svg PUBLIC "-//W3C//DTD SVG 1.1//EN"
 "http://www.w3.org/Graphics/SVG/1.1/DTD/svg11.dtd">
<!-- Generated by graphviz version 2.38.0 (20140413.2041)
 -->
<!-- Title: %3 Pages: 1 -->
<svg width="2521pt" height="172pt"
 viewBox="0.00 0.00 2521.00 172.31" xmlns="http://www.w3.org/2000/svg" xmlns:xlink="http://www.w3.org/1999/xlink">
<g id="graph0" class="graph" transform="scale(1 1) rotate(0) translate(4 168.309)">
<title>%3</title>
<polygon fill="white" stroke="none" points="-4,4 -4,-168.309 2517,-168.309 2517,4 -4,4"/>
<!-- wallRadar[1,0] -->
<g id="node1" class="node"><title>wallRadar[1,0]</title>
<polygon fill="lightgray" stroke="black" points="1157,-164.309 1087,-164.309 1087,-146.309 1157,-146.309 1157,-164.309"/>
<text text-anchor="middle" x="1122" y="-153.109" font-family="Times,serif" font-size="9.00">wallRadar[1,0]</text>
</g>
<!--  Move Backward -->
<g id="node26" class="node"><title> Move Backward</title>
<ellipse fill="lightblue" stroke="black" cx="1466" cy="-55.1543" rx="55.3091" ry="55.3091"/>
<text text-anchor="middle" x="1466" y="-52.9543" font-family="Times,serif" font-size="9.00"> Move Backward</text>
</g>
<!-- wallRadar[1,0]&#45;&gt; Move Backward -->
<g id="edge20" class="edge"><title>wallRadar[1,0]&#45;&gt; Move Backward</title>
<path fill="none" stroke="green" stroke-width="0.255865" stroke-dasharray="1,5" d="M1157.05,-147.843C1160.07,-147.313 1163.09,-146.795 1166,-146.309 1270.65,-128.817 1305.42,-154.233 1402,-110.309 1407.74,-107.699 1413.37,-104.422 1418.76,-100.779"/>
<polygon fill="green" stroke="green" stroke-width="0.255865" points="1420.97,-103.496 1427.02,-94.7944 1416.87,-97.8272 1420.97,-103.496"/>
</g>
<!-- Move Left -->
<g id="node27" class="node"><title>Move Left</title>
<ellipse fill="lightblue" stroke="black" cx="1337" cy="-55.1543" rx="38.3684" ry="38.3684"/>
<text text-anchor="middle" x="1337" y="-52.9543" font-family="Times,serif" font-size="9.00">Move Left</text>
</g>
<!-- wallRadar[1,0]&#45;&gt;Move Left -->
<g id="edge50" class="edge"><title>wallRadar[1,0]&#45;&gt;Move Left</title>
<path fill="none" stroke="red" stroke-width="0.786621" d="M1139.59,-146.276C1172.81,-131.113 1245.65,-97.8586 1292.96,-76.2618"/>
<polygon fill="red" stroke="red" stroke-width="0.786621" points="1294.71,-79.3109 1302.35,-71.9739 1291.8,-72.9431 1294.71,-79.3109"/>
</g>
<!-- Turn Left -->
<g id="node29" class="node"><title>Turn Left</title>
<ellipse fill="lightblue" stroke="black" cx="1122" cy="-55.1543" rx="35.2113" ry="35.2113"/>
<text text-anchor="middle" x="1122" y="-52.9543" font-family="Times,serif" font-size="9.00">Turn Left</text>
</g>
<!-- wallRadar[1,0]&#45;&gt;Turn Left -->
<g id="edge38" class="edge"><title>wallRadar[1,0]&#45;&gt;Turn Left</title>
<path fill="none" stroke="green" stroke-width="0.717709" d="M1122,-146.276C1122,-136.172 1122,-118.035 1122,-100.667"/>
<polygon fill="green" stroke="green" stroke-width="0.717709" points="1125.5,-100.596 1122,-90.596 1118.5,-100.596 1125.5,-100.596"/>
</g>
<!-- wallRadar[0,1] -->
<g id="node2" class="node"><title>wallRadar[0,1]</title>
<polygon fill="lightgray" stroke="black" points="1576,-164.309 1506,-164.309 1506,-146.309 1576,-146.309 1576,-164.309"/>
<text text-anchor="middle" x="1541" y="-153.109" font-family="Times,serif" font-size="9.00">wallRadar[0,1]</text>
</g>
<!-- Shoot -->
<g id="node24" class="node"><title>Shoot</title>
<ellipse fill="lightblue" stroke="black" cx="1826" cy="-55.1543" rx="26.7407" ry="26.7407"/>
<text text-anchor="middle" x="1826" y="-52.9543" font-family="Times,serif" font-size="9.00">Shoot</text>
</g>
<!-- wallRadar[0,1]&#45;&gt;Shoot -->
<g id="edge6" class="edge"><title>wallRadar[0,1]&#45;&gt;Shoot</title>
<path fill="none" stroke="green" stroke-width="0.340216" d="M1576.15,-147.867C1636.82,-136.675 1755.59,-114.439 1764,-110.309 1777.73,-103.568 1790.82,-92.9984 1801.4,-82.9796"/>
<polygon fill="green" stroke="green" stroke-width="0.340216" points="1803.97,-85.3581 1808.63,-75.8443 1799.05,-80.3741 1803.97,-85.3581"/>
</g>
<!-- wallRadar[0,1]&#45;&gt;Move Left -->
<g id="edge37" class="edge"><title>wallRadar[0,1]&#45;&gt;Move Left</title>
<path fill="none" stroke="green" stroke-width="0.408699" d="M1505.79,-147.161C1476.75,-140.346 1435.09,-128.41 1402,-110.309 1391.33,-104.471 1380.76,-96.743 1371.34,-88.9588"/>
<polygon fill="green" stroke="green" stroke-width="0.408699" points="1373.6,-86.2858 1363.73,-82.4472 1369.05,-91.6061 1373.6,-86.2858"/>
</g>
<!-- wallRadar[0,1]&#45;&gt;Turn Left -->
<g id="edge72" class="edge"><title>wallRadar[0,1]&#45;&gt;Turn Left</title>
<path fill="none" stroke="red" stroke-width="0.409055" stroke-dasharray="1,5" d="M1505.94,-147.909C1502.92,-147.365 1499.9,-146.825 1497,-146.309 1405.06,-129.956 1380.66,-132.688 1290,-110.309 1246.67,-99.6138 1198.28,-83.5627 1164.6,-71.7099"/>
<polygon fill="red" stroke="red" stroke-width="0.409055" points="1165.67,-68.376 1155.07,-68.3318 1163.33,-74.9733 1165.67,-68.376"/>
</g>
<!-- wallRadar[&#45;1,0] -->
<g id="node3" class="node"><title>wallRadar[&#45;1,0]</title>
<polygon fill="lightgray" stroke="black" points="579.5,-164.309 506.5,-164.309 506.5,-146.309 579.5,-146.309 579.5,-164.309"/>
<text text-anchor="middle" x="543" y="-153.109" font-family="Times,serif" font-size="9.00">wallRadar[&#45;1,0]</text>
</g>
<!-- Move Forward -->
<g id="node25" class="node"><title>Move Forward</title>
<ellipse fill="lightblue" stroke="black" cx="1589" cy="-55.1543" rx="50.41" ry="50.41"/>
<text text-anchor="middle" x="1589" y="-52.9543" font-family="Times,serif" font-size="9.00">Move Forward</text>
</g>
<!-- wallRadar[&#45;1,0]&#45;&gt;Move Forward -->
<g id="edge40" class="edge"><title>wallRadar[&#45;1,0]&#45;&gt;Move Forward</title>
<path fill="none" stroke="red" stroke-width="0.434674" d="M579.596,-147.489C582.769,-147.036 585.937,-146.632 589,-146.309 693.053,-135.32 1433.24,-150.129 1530,-110.309 1536.39,-107.678 1542.53,-104.026 1548.26,-99.8496"/>
<polygon fill="red" stroke="red" stroke-width="0.434674" points="1550.71,-102.373 1556.37,-93.4124 1546.36,-96.8925 1550.71,-102.373"/>
</g>
<!-- wallRadar[&#45;1,0]&#45;&gt;Turn Left -->
<g id="edge45" class="edge"><title>wallRadar[&#45;1,0]&#45;&gt;Turn Left</title>
<path fill="none" stroke="red" stroke-width="0.143236" d="M579.635,-147.791C582.8,-147.273 585.955,-146.771 589,-146.309 711.739,-127.669 743.619,-131.172 866,-110.309 940.784,-97.5598 1026.94,-78.3996 1077.8,-66.6176"/>
<polygon fill="red" stroke="red" stroke-width="0.143236" points="1078.85,-69.9671 1087.8,-64.292 1077.26,-63.1492 1078.85,-69.9671"/>
</g>
<!-- Turn Right -->
<g id="node30" class="node"><title>Turn Right</title>
<ellipse fill="lightblue" stroke="black" cx="799" cy="-55.1543" rx="39.6962" ry="39.6962"/>
<text text-anchor="middle" x="799" y="-52.9543" font-family="Times,serif" font-size="9.00">Turn Right</text>
</g>
<!-- wallRadar[&#45;1,0]&#45;&gt;Turn Right -->
<g id="edge39" class="edge"><title>wallRadar[&#45;1,0]&#45;&gt;Turn Right</title>
<path fill="none" stroke="green" stroke-width="0.477188" stroke-dasharray="1,5" d="M563.95,-146.276C604.954,-130.554 696.683,-95.3842 752.654,-73.9242"/>
<polygon fill="green" stroke="green" stroke-width="0.477188" points="754.246,-77.0623 762.33,-70.2142 751.74,-70.5263 754.246,-77.0623"/>
</g>
<!-- wallRadar[0,&#45;1] -->
<g id="node4" class="node"><title>wallRadar[0,&#45;1]</title>
<polygon fill="lightgray" stroke="black" points="1297.5,-164.309 1224.5,-164.309 1224.5,-146.309 1297.5,-146.309 1297.5,-164.309"/>
<text text-anchor="middle" x="1261" y="-153.109" font-family="Times,serif" font-size="9.00">wallRadar[0,&#45;1]</text>
</g>
<!-- wallRadar[0,&#45;1]&#45;&gt; Move Backward -->
<g id="edge7" class="edge"><title>wallRadar[0,&#45;1]&#45;&gt; Move Backward</title>
<path fill="none" stroke="green" stroke-width="0.480317" d="M1297.65,-147.112C1327.09,-140.353 1368.85,-128.521 1402,-110.309 1407.53,-107.273 1413.01,-103.715 1418.32,-99.897"/>
<polygon fill="green" stroke="green" stroke-width="0.480317" points="1420.62,-102.546 1426.48,-93.7224 1416.39,-96.963 1420.62,-102.546"/>
</g>
<!-- wallRadar[0,&#45;1]&#45;&gt;Move Left -->
<g id="edge80" class="edge"><title>wallRadar[0,&#45;1]&#45;&gt;Move Left</title>
<path fill="none" stroke="red" stroke-width="0.169229" d="M1267.22,-146.276C1276.03,-134.899 1292.73,-113.336 1307.58,-94.1544"/>
<polygon fill="red" stroke="red" stroke-width="0.169229" points="1310.45,-96.166 1313.8,-86.1163 1304.91,-91.8804 1310.45,-96.166"/>
</g>
<!-- Move right -->
<g id="node28" class="node"><title>Move right</title>
<ellipse fill="lightblue" stroke="black" cx="1715" cy="-55.1543" rx="39.6962" ry="39.6962"/>
<text text-anchor="middle" x="1715" y="-52.9543" font-family="Times,serif" font-size="9.00">Move right</text>
</g>
<!-- wallRadar[0,&#45;1]&#45;&gt;Move right -->
<g id="edge13" class="edge"><title>wallRadar[0,&#45;1]&#45;&gt;Move right</title>
<path fill="none" stroke="green" stroke-width="0.331835" d="M1297.62,-147.694C1300.79,-147.197 1303.95,-146.726 1307,-146.309 1386.44,-135.433 1594.43,-146.451 1666,-110.309 1673.24,-106.652 1679.92,-101.44 1685.88,-95.6786"/>
<polygon fill="green" stroke="green" stroke-width="0.331835" points="1688.66,-97.8257 1693.01,-88.1631 1683.59,-93.0067 1688.66,-97.8257"/>
</g>
<!-- wallRadar[0,&#45;1]&#45;&gt;Turn Right -->
<g id="edge67" class="edge"><title>wallRadar[0,&#45;1]&#45;&gt;Turn Right</title>
<path fill="none" stroke="red" stroke-width="1.09813" d="M1224.36,-146.525C1141.67,-128.955 940.52,-86.2211 847.57,-66.4732"/>
<polygon fill="red" stroke="red" stroke-width="1.09813" points="848.093,-63.0064 837.584,-64.3518 846.639,-69.8536 848.093,-63.0064"/>
</g>
<!-- wallRadar[0.7,0.7] -->
<g id="node5" class="node"><title>wallRadar[0.7,0.7]</title>
<polygon fill="lightgray" stroke="black" points="1068.5,-164.309 985.5,-164.309 985.5,-146.309 1068.5,-146.309 1068.5,-164.309"/>
<text text-anchor="middle" x="1027" y="-153.109" font-family="Times,serif" font-size="9.00">wallRadar[0.7,0.7]</text>
</g>
<!-- wallRadar[0.7,0.7]&#45;&gt; Move Backward -->
<g id="edge65" class="edge"><title>wallRadar[0.7,0.7]&#45;&gt; Move Backward</title>
<path fill="none" stroke="green" stroke-width="0.713438" d="M1068.73,-147.607C1071.86,-147.151 1074.98,-146.713 1078,-146.309 1221.6,-127.077 1268.92,-167.591 1402,-110.309 1407.88,-107.778 1413.63,-104.52 1419.11,-100.858"/>
<polygon fill="green" stroke="green" stroke-width="0.713438" points="1421.43,-103.501 1427.5,-94.8177 1417.34,-97.8193 1421.43,-103.501"/>
</g>
<!-- wallRadar[0.7,0.7]&#45;&gt;Turn Left -->
<g id="edge64" class="edge"><title>wallRadar[0.7,0.7]&#45;&gt;Turn Left</title>
<path fill="none" stroke="red" stroke-width="0.307048" stroke-dasharray="1,5" d="M1034.77,-146.276C1046.85,-133.798 1070.79,-109.07 1090.53,-88.6678"/>
<polygon fill="red" stroke="red" stroke-width="0.307048" points="1093.15,-90.9975 1097.59,-81.3777 1088.12,-86.1292 1093.15,-90.9975"/>
</g>
<!-- wallRadar[&#45;0.7,0.7] -->
<g id="node6" class="node"><title>wallRadar[&#45;0.7,0.7]</title>
<polygon fill="lightgray" stroke="black" points="356,-164.309 270,-164.309 270,-146.309 356,-146.309 356,-164.309"/>
<text text-anchor="middle" x="313" y="-153.109" font-family="Times,serif" font-size="9.00">wallRadar[&#45;0.7,0.7]</text>
</g>
<!-- wallRadar[&#45;0.7,0.7]&#45;&gt;Turn Left -->
<g id="edge60" class="edge"><title>wallRadar[&#45;0.7,0.7]&#45;&gt;Turn Left</title>
<path fill="none" stroke="green" stroke-width="0.706564" d="M356.094,-147.404C359.105,-147.006 362.095,-146.636 365,-146.309 586.837,-121.316 644.947,-141.482 866,-110.309 941.119,-99.7151 1027.17,-79.8982 1077.92,-67.3991"/>
<polygon fill="green" stroke="green" stroke-width="0.706564" points="1079.03,-70.7301 1087.9,-64.9254 1077.35,-63.9361 1079.03,-70.7301"/>
</g>
<!-- wallRadar[&#45;0.7,0.7]&#45;&gt;Turn Right -->
<g id="edge33" class="edge"><title>wallRadar[&#45;0.7,0.7]&#45;&gt;Turn Right</title>
<path fill="none" stroke="green" stroke-width="0.845138" d="M352.771,-146.276C441.248,-128.407 654.119,-85.415 750.333,-65.9833"/>
<polygon fill="green" stroke="green" stroke-width="0.845138" points="751.265,-69.3659 760.374,-63.9554 749.879,-62.5044 751.265,-69.3659"/>
</g>
<!-- wallRadar[&#45;0.7,&#45;0.7] -->
<g id="node7" class="node"><title>wallRadar[&#45;0.7,&#45;0.7]</title>
<polygon fill="lightgray" stroke="black" points="967.5,-164.309 878.5,-164.309 878.5,-146.309 967.5,-146.309 967.5,-164.309"/>
<text text-anchor="middle" x="923" y="-153.109" font-family="Times,serif" font-size="9.00">wallRadar[&#45;0.7,&#45;0.7]</text>
</g>
<!-- wallRadar[&#45;0.7,&#45;0.7]&#45;&gt;Shoot -->
<g id="edge74" class="edge"><title>wallRadar[&#45;0.7,&#45;0.7]&#45;&gt;Shoot</title>
<path fill="none" stroke="red" stroke-width="0.267905" stroke-dasharray="1,5" d="M967.779,-147.215C970.557,-146.878 973.314,-146.572 976,-146.309 1063.23,-137.756 1682.66,-142.965 1764,-110.309 1778.3,-104.567 1791.55,-94.0542 1802.11,-83.8085"/>
<polygon fill="red" stroke="red" stroke-width="0.267905" points="1804.8,-86.0632 1809.29,-76.4673 1799.79,-81.1682 1804.8,-86.0632"/>
</g>
<!-- wallRadar[&#45;0.7,&#45;0.7]&#45;&gt;Turn Left -->
<g id="edge17" class="edge"><title>wallRadar[&#45;0.7,&#45;0.7]&#45;&gt;Turn Left</title>
<path fill="none" stroke="red" stroke-width="0.480603" d="M939.285,-146.276C970.072,-131.091 1037.64,-97.7621 1081.42,-76.1679"/>
<polygon fill="red" stroke="red" stroke-width="0.480603" points="1083.23,-79.1784 1090.65,-71.6158 1080.14,-72.9005 1083.23,-79.1784"/>
</g>
<!-- wallRadar[&#45;0.7,&#45;0.7]&#45;&gt;Turn Right -->
<g id="edge25" class="edge"><title>wallRadar[&#45;0.7,&#45;0.7]&#45;&gt;Turn Right</title>
<path fill="none" stroke="red" stroke-width="0.713555" stroke-dasharray="1,5" d="M912.853,-146.276C896.603,-133.413 863.907,-107.533 837.706,-86.7927"/>
<polygon fill="red" stroke="red" stroke-width="0.713555" points="839.822,-84.0036 829.809,-80.5413 835.477,-89.4922 839.822,-84.0036"/>
</g>
<!-- wallRadar[0.7,&#45;0.7] -->
<g id="node8" class="node"><title>wallRadar[0.7,&#45;0.7]</title>
<polygon fill="lightgray" stroke="black" points="1758,-164.309 1672,-164.309 1672,-146.309 1758,-146.309 1758,-164.309"/>
<text text-anchor="middle" x="1715" y="-153.109" font-family="Times,serif" font-size="9.00">wallRadar[0.7,&#45;0.7]</text>
</g>
<!-- wallRadar[0.7,&#45;0.7]&#45;&gt;Shoot -->
<g id="edge81" class="edge"><title>wallRadar[0.7,&#45;0.7]&#45;&gt;Shoot</title>
<path fill="none" stroke="red" stroke-width="0.137573" stroke-dasharray="1,5" d="M1724.08,-146.276C1740.16,-132.064 1774.2,-101.96 1798.52,-80.4569"/>
<polygon fill="red" stroke="red" stroke-width="0.137573" points="1800.86,-83.0549 1806.04,-73.8086 1796.23,-77.811 1800.86,-83.0549"/>
</g>
<!-- wallRadar[0.7,&#45;0.7]&#45;&gt;Move Forward -->
<g id="edge1" class="edge"><title>wallRadar[0.7,&#45;0.7]&#45;&gt;Move Forward</title>
<path fill="none" stroke="red" stroke-width="0.537241" d="M1704.69,-146.276C1689.79,-134.667 1661.27,-112.453 1636.28,-92.9861"/>
<polygon fill="red" stroke="red" stroke-width="0.537241" points="1638.35,-90.1632 1628.31,-86.7789 1634.05,-95.6854 1638.35,-90.1632"/>
</g>
<!-- wallRadar[0.7,&#45;0.7]&#45;&gt; Move Backward -->
<g id="edge42" class="edge"><title>wallRadar[0.7,&#45;0.7]&#45;&gt; Move Backward</title>
<path fill="none" stroke="red" stroke-width="0.134847" d="M1671.97,-146.48C1625.41,-137.588 1554.53,-122.704 1530,-110.309 1524.37,-107.466 1518.82,-104.034 1513.47,-100.295"/>
<polygon fill="red" stroke="red" stroke-width="0.134847" points="1515.38,-97.3525 1505.26,-94.2067 1511.21,-102.975 1515.38,-97.3525"/>
</g>
<!-- wallRadar[0.7,&#45;0.7]&#45;&gt;Move Left -->
<g id="edge66" class="edge"><title>wallRadar[0.7,&#45;0.7]&#45;&gt;Move Left</title>
<path fill="none" stroke="red" stroke-width="0.458517" d="M1671.91,-147.759C1668.56,-147.263 1665.22,-146.775 1662,-146.309 1546.54,-129.603 1508.7,-157.462 1402,-110.309 1390.77,-105.346 1379.94,-97.8497 1370.45,-90.004"/>
<polygon fill="red" stroke="red" stroke-width="0.458517" points="1372.66,-87.2887 1362.82,-83.3793 1368.08,-92.5762 1372.66,-87.2887"/>
</g>
<!-- wallRadar[0.7,&#45;0.7]&#45;&gt;Move right -->
<g id="edge68" class="edge"><title>wallRadar[0.7,&#45;0.7]&#45;&gt;Move right</title>
<path fill="none" stroke="red" stroke-width="0.312197" d="M1715,-146.276C1715,-137.112 1715,-121.34 1715,-105.527"/>
<polygon fill="red" stroke="red" stroke-width="0.312197" points="1718.5,-105.199 1715,-95.1987 1711.5,-105.199 1718.5,-105.199"/>
</g>
<!-- wallRadar[0.7,&#45;0.7]&#45;&gt;Turn Left -->
<g id="edge47" class="edge"><title>wallRadar[0.7,&#45;0.7]&#45;&gt;Turn Left</title>
<path fill="none" stroke="green" stroke-width="0.357918" d="M1671.93,-147.611C1668.57,-147.149 1665.23,-146.709 1662,-146.309 1497.15,-125.906 1452.66,-143.984 1290,-110.309 1246.16,-101.233 1197.65,-84.8816 1164.08,-72.513"/>
<polygon fill="green" stroke="green" stroke-width="0.357918" points="1165.18,-69.1896 1154.59,-68.9775 1162.74,-75.749 1165.18,-69.1896"/>
</g>
<!-- enemyRadar[RightBack] -->
<g id="node9" class="node"><title>enemyRadar[RightBack]</title>
<polygon fill="lightgray" stroke="black" points="1420,-164.309 1316,-164.309 1316,-146.309 1420,-146.309 1420,-164.309"/>
<text text-anchor="middle" x="1368" y="-153.109" font-family="Times,serif" font-size="9.00">enemyRadar[RightBack]</text>
</g>
<!-- enemyRadar[RightBack]&#45;&gt;Shoot -->
<g id="edge61" class="edge"><title>enemyRadar[RightBack]&#45;&gt;Shoot</title>
<path fill="none" stroke="green" stroke-width="0.885075" d="M1420.23,-147.377C1423.2,-147.009 1426.14,-146.65 1429,-146.309 1577.69,-128.571 1626.81,-170.343 1764,-110.309 1778.12,-104.13 1791.34,-93.5492 1801.92,-83.3701"/>
<polygon fill="green" stroke="green" stroke-width="0.885075" points="1804.58,-85.6634 1809.13,-76.0979 1799.61,-80.7347 1804.58,-85.6634"/>
</g>
<!-- enemyRadar[RightBack]&#45;&gt;Move Forward -->
<g id="edge12" class="edge"><title>enemyRadar[RightBack]&#45;&gt;Move Forward</title>
<path fill="none" stroke="red" stroke-width="0.728353" d="M1420.01,-146.702C1453.02,-140.337 1495.8,-129.165 1530,-110.309 1535.89,-107.061 1541.66,-103.107 1547.15,-98.8297"/>
<polygon fill="red" stroke="red" stroke-width="0.728353" points="1549.48,-101.442 1554.96,-92.376 1545.02,-96.0447 1549.48,-101.442"/>
</g>
<!-- enemyRadar[RightBack]&#45;&gt; Move Backward -->
<g id="edge48" class="edge"><title>enemyRadar[RightBack]&#45;&gt; Move Backward</title>
<path fill="none" stroke="red" stroke-width="0.115424" d="M1376.02,-146.276C1385.86,-136.421 1403.33,-118.924 1420.27,-101.952"/>
<polygon fill="red" stroke="red" stroke-width="0.115424" points="1422.89,-104.284 1427.48,-94.734 1417.94,-99.3377 1422.89,-104.284"/>
</g>
<!-- enemyRadar[RightBack]&#45;&gt;Move Left -->
<g id="edge59" class="edge"><title>enemyRadar[RightBack]&#45;&gt;Move Left</title>
<path fill="none" stroke="red" stroke-width="0.180901" d="M1365.46,-146.276C1362.34,-136.402 1356.8,-118.855 1351.43,-101.852"/>
<polygon fill="red" stroke="red" stroke-width="0.180901" points="1354.66,-100.447 1348.31,-91.9657 1347.98,-102.555 1354.66,-100.447"/>
</g>
<!-- enemyRadar[RightBack]&#45;&gt;Turn Left -->
<g id="edge71" class="edge"><title>enemyRadar[RightBack]&#45;&gt;Turn Left</title>
<path fill="none" stroke="red" stroke-width="0.379677" d="M1347.87,-146.276C1307.9,-130.328 1217.78,-94.3688 1164.24,-73.0071"/>
<polygon fill="red" stroke="red" stroke-width="0.379677" points="1165.27,-69.6516 1154.69,-69.1964 1162.68,-76.1531 1165.27,-69.6516"/>
</g>
<!-- enemyRadar[RightBack]&#45;&gt;Turn Right -->
<g id="edge41" class="edge"><title>enemyRadar[RightBack]&#45;&gt;Turn Right</title>
<path fill="none" stroke="red" stroke-width="0.214399" d="M1315.77,-147.044C1257.63,-138.804 1160.92,-124.641 1078,-110.309 996.984,-96.306 903.232,-77.5887 847.646,-66.2266"/>
<polygon fill="red" stroke="red" stroke-width="0.214399" points="848.222,-62.7719 837.723,-64.1934 846.817,-69.6295 848.222,-62.7719"/>
</g>
<!-- enemyRadar[LeftBack] -->
<g id="node10" class="node"><title>enemyRadar[LeftBack]</title>
<polygon fill="lightgray" stroke="black" points="1875.5,-164.309 1776.5,-164.309 1776.5,-146.309 1875.5,-146.309 1875.5,-164.309"/>
<text text-anchor="middle" x="1826" y="-153.109" font-family="Times,serif" font-size="9.00">enemyRadar[LeftBack]</text>
</g>
<!-- enemyRadar[LeftBack]&#45;&gt;Shoot -->
<g id="edge2" class="edge"><title>enemyRadar[LeftBack]&#45;&gt;Shoot</title>
<path fill="none" stroke="green" stroke-width="0.238921" d="M1826,-146.276C1826,-134.556 1826,-112.026 1826,-92.4263"/>
<polygon fill="green" stroke="green" stroke-width="0.238921" points="1829.5,-92.2223 1826,-82.2223 1822.5,-92.2223 1829.5,-92.2223"/>
</g>
<!-- enemyRadar[LeftBack]&#45;&gt;Move Forward -->
<g id="edge44" class="edge"><title>enemyRadar[LeftBack]&#45;&gt;Move Forward</title>
<path fill="none" stroke="green" stroke-width="0.391982" d="M1781.08,-146.284C1748.18,-139.387 1703,-127.757 1666,-110.309 1655.93,-105.559 1645.76,-99.5006 1636.27,-93.1673"/>
<polygon fill="green" stroke="green" stroke-width="0.391982" points="1637.98,-90.0951 1627.76,-87.3032 1634,-95.8593 1637.98,-90.0951"/>
</g>
<!-- enemyRadar[LeftBack]&#45;&gt; Move Backward -->
<g id="edge11" class="edge"><title>enemyRadar[LeftBack]&#45;&gt; Move Backward</title>
<path fill="none" stroke="red" stroke-width="0.173502" d="M1776.28,-147.271C1693.43,-135.495 1535.58,-112.832 1530,-110.309 1524.17,-107.67 1518.45,-104.341 1512.99,-100.635"/>
<polygon fill="red" stroke="red" stroke-width="0.173502" points="1514.76,-97.5993 1504.62,-94.5484 1510.64,-103.261 1514.76,-97.5993"/>
</g>
<!-- enemyRadar[LeftBack]&#45;&gt;Move Left -->
<g id="edge56" class="edge"><title>enemyRadar[LeftBack]&#45;&gt;Move Left</title>
<path fill="none" stroke="green" stroke-width="0.27668" d="M1776.44,-147.456C1773.25,-147.055 1770.08,-146.669 1767,-146.309 1605.1,-127.354 1552.36,-173.257 1402,-110.309 1390.67,-105.567 1379.81,-98.148 1370.32,-90.3053"/>
<polygon fill="green" stroke="green" stroke-width="0.27668" points="1372.54,-87.5902 1362.69,-83.6674 1367.94,-92.8715 1372.54,-87.5902"/>
</g>
<!-- enemyRadar[Right45ø] -->
<g id="node11" class="node"><title>enemyRadar[Right45ø]</title>
<polygon fill="lightgray" stroke="black" points="2131,-164.309 2031,-164.309 2031,-146.309 2131,-146.309 2131,-164.309"/>
<text text-anchor="middle" x="2081" y="-153.109" font-family="Times,serif" font-size="9.00">enemyRadar[Right45ø]</text>
</g>
<!-- enemyRadar[Right45ø]&#45;&gt;Shoot -->
<g id="edge32" class="edge"><title>enemyRadar[Right45ø]&#45;&gt;Shoot</title>
<path fill="none" stroke="green" stroke-width="1.08843" stroke-dasharray="1,5" d="M2060.13,-146.276C2016.24,-129.38 1913.99,-90.0218 1860.3,-69.3587"/>
<polygon fill="green" stroke="green" stroke-width="1.08843" points="1861.46,-66.0536 1850.87,-65.7277 1858.95,-72.5864 1861.46,-66.0536"/>
</g>
<!-- enemyRadar[Right45ø]&#45;&gt;Move Forward -->
<g id="edge69" class="edge"><title>enemyRadar[Right45ø]&#45;&gt;Move Forward</title>
<path fill="none" stroke="red" stroke-width="0.194586" stroke-dasharray="1,5" d="M2030.8,-147.384C2027.83,-147.01 2024.87,-146.649 2022,-146.309 1864.07,-127.622 1815.01,-165.863 1666,-110.309 1655.34,-106.335 1644.78,-100.518 1635.06,-94.154"/>
<polygon fill="red" stroke="red" stroke-width="0.194586" points="1636.98,-91.225 1626.76,-88.4535 1633.02,-96.9971 1636.98,-91.225"/>
</g>
<!-- enemyRadar[Right45ø]&#45;&gt;Move right -->
<g id="edge62" class="edge"><title>enemyRadar[Right45ø]&#45;&gt;Move right</title>
<path fill="none" stroke="red" stroke-width="0.992989" d="M2030.74,-147.336C1950.43,-136.106 1801.03,-114.812 1790,-110.309 1776.72,-104.885 1763.58,-96.6535 1752.09,-88.2338"/>
<polygon fill="red" stroke="red" stroke-width="0.992989" points="1754.12,-85.3794 1744.04,-82.1071 1749.88,-90.9492 1754.12,-85.3794"/>
</g>
<!-- enemyRadar[Right45ø]&#45;&gt;Turn Left -->
<g id="edge28" class="edge"><title>enemyRadar[Right45ø]&#45;&gt;Turn Left</title>
<path fill="none" stroke="red" stroke-width="0.35586" stroke-dasharray="1,5" d="M2030.82,-147.207C2027.84,-146.878 2024.88,-146.574 2022,-146.309 1697.65,-116.398 1610.44,-168.779 1290,-110.309 1245.96,-102.273 1197.48,-85.7746 1163.96,-73.0882"/>
<polygon fill="red" stroke="red" stroke-width="0.35586" points="1165.08,-69.7696 1154.49,-69.4545 1162.58,-76.3049 1165.08,-69.7696"/>
</g>
<!-- enemyRadar[Left45ø] -->
<g id="node12" class="node"><title>enemyRadar[Left45ø]</title>
<polygon fill="lightgray" stroke="black" points="2244.5,-164.309 2149.5,-164.309 2149.5,-146.309 2244.5,-146.309 2244.5,-164.309"/>
<text text-anchor="middle" x="2197" y="-153.109" font-family="Times,serif" font-size="9.00">enemyRadar[Left45ø]</text>
</g>
<!-- enemyRadar[Left45ø]&#45;&gt;Shoot -->
<g id="edge49" class="edge"><title>enemyRadar[Left45ø]&#45;&gt;Shoot</title>
<path fill="none" stroke="green" stroke-width="0.236787" d="M2166.64,-146.276C2098.68,-128.297 1934.59,-84.8834 1861.8,-65.6263"/>
<polygon fill="green" stroke="green" stroke-width="0.236787" points="1862.31,-62.1404 1851.75,-62.9663 1860.52,-68.9076 1862.31,-62.1404"/>
</g>
<!-- enemyRadar[Left45ø]&#45;&gt; Move Backward -->
<g id="edge77" class="edge"><title>enemyRadar[Left45ø]&#45;&gt; Move Backward</title>
<path fill="none" stroke="green" stroke-width="0.250415" d="M2149.45,-147.343C2146.25,-146.965 2143.08,-146.615 2140,-146.309 2004.88,-132.861 1656.07,-160.753 1530,-110.309 1524.06,-107.931 1518.27,-104.773 1512.76,-101.172"/>
<polygon fill="green" stroke="green" stroke-width="0.250415" points="1514.52,-98.1313 1504.34,-95.1984 1510.47,-103.84 1514.52,-98.1313"/>
</g>
<!-- enemyRadar[RightFront20ø] -->
<g id="node13" class="node"><title>enemyRadar[RightFront20ø]</title>
<polygon fill="lightgray" stroke="black" points="251.5,-164.309 132.5,-164.309 132.5,-146.309 251.5,-146.309 251.5,-164.309"/>
<text text-anchor="middle" x="192" y="-153.109" font-family="Times,serif" font-size="9.00">enemyRadar[RightFront20ø]</text>
</g>
<!-- enemyRadar[RightFront20ø]&#45;&gt;Turn Right -->
<g id="edge31" class="edge"><title>enemyRadar[RightFront20ø]&#45;&gt;Turn Right</title>
<path fill="none" stroke="green" stroke-width="0.114963" d="M241.673,-146.276C355.895,-127.806 636.109,-82.4945 749.836,-64.1044"/>
<polygon fill="green" stroke="green" stroke-width="0.114963" points="750.677,-67.5139 759.99,-62.4624 749.559,-60.6037 750.677,-67.5139"/>
</g>
<!-- enemyRadar[LeftFront20ø] -->
<g id="node14" class="node"><title>enemyRadar[LeftFront20ø]</title>
<polygon fill="lightgray" stroke="black" points="114,-164.309 0,-164.309 0,-146.309 114,-146.309 114,-164.309"/>
<text text-anchor="middle" x="57" y="-153.109" font-family="Times,serif" font-size="9.00">enemyRadar[LeftFront20ø]</text>
</g>
<!-- enemyRadar[LeftFront20ø]&#45;&gt;Turn Right -->
<g id="edge55" class="edge"><title>enemyRadar[LeftFront20ø]&#45;&gt;Turn Right</title>
<path fill="none" stroke="red" stroke-width="0.284423" d="M114.298,-146.729C255.289,-128.078 617.185,-80.2055 749.553,-62.6954"/>
<polygon fill="red" stroke="red" stroke-width="0.284423" points="750.338,-66.1221 759.793,-61.3408 749.42,-59.1825 750.338,-66.1221"/>
</g>
<!-- enemyRadar[RightFront15ø] -->
<g id="node15" class="node"><title>enemyRadar[RightFront15ø]</title>
<polygon fill="lightgray" stroke="black" points="2012.5,-164.309 1893.5,-164.309 1893.5,-146.309 2012.5,-146.309 2012.5,-164.309"/>
<text text-anchor="middle" x="1953" y="-153.109" font-family="Times,serif" font-size="9.00">enemyRadar[RightFront15ø]</text>
</g>
<!-- enemyRadar[RightFront15ø]&#45;&gt;Shoot -->
<g id="edge3" class="edge"><title>enemyRadar[RightFront15ø]&#45;&gt;Shoot</title>
<path fill="none" stroke="red" stroke-width="0.634047" d="M1942.61,-146.276C1923.71,-131.671 1883.09,-100.281 1855.16,-78.6912"/>
<polygon fill="red" stroke="red" stroke-width="0.634047" points="1856.99,-75.6809 1846.94,-72.335 1852.71,-81.2195 1856.99,-75.6809"/>
</g>
<!-- enemyRadar[RightFront15ø]&#45;&gt;Move right -->
<g id="edge30" class="edge"><title>enemyRadar[RightFront15ø]&#45;&gt;Move right</title>
<path fill="none" stroke="red" stroke-width="0.21482" d="M1905.75,-146.263C1872.32,-139.46 1827.05,-127.955 1790,-110.309 1777.17,-104.196 1764.24,-95.8355 1752.82,-87.5132"/>
<polygon fill="red" stroke="red" stroke-width="0.21482" points="1754.89,-84.6935 1744.79,-81.4926 1750.69,-90.2932 1754.89,-84.6935"/>
</g>
<!-- enemyRadar[RightFront15ø]&#45;&gt;Turn Right -->
<g id="edge70" class="edge"><title>enemyRadar[RightFront15ø]&#45;&gt;Turn Right</title>
<path fill="none" stroke="green" stroke-width="0.326222" d="M1893.32,-147.039C1890.51,-146.775 1887.73,-146.529 1885,-146.309 1527.15,-117.315 1434.52,-152.628 1078,-110.309 996.356,-100.617 902.793,-80.5989 847.417,-67.8029"/>
<polygon fill="green" stroke="green" stroke-width="0.326222" points="848.066,-64.3605 837.533,-65.5018 846.479,-71.1781 848.066,-64.3605"/>
</g>
<!-- enemyRadar[LeftFront15ø] -->
<g id="node16" class="node"><title>enemyRadar[LeftFront15ø]</title>
<polygon fill="lightgray" stroke="black" points="488,-164.309 374,-164.309 374,-146.309 488,-146.309 488,-164.309"/>
<text text-anchor="middle" x="431" y="-153.109" font-family="Times,serif" font-size="9.00">enemyRadar[LeftFront15ø]</text>
</g>
<!-- enemyRadar[LeftFront15ø]&#45;&gt; Move Backward -->
<g id="edge14" class="edge"><title>enemyRadar[LeftFront15ø]&#45;&gt; Move Backward</title>
<path fill="none" stroke="red" stroke-width="0.404791" d="M488.209,-147.087C491.18,-146.802 494.124,-146.54 497,-146.309 597.312,-138.247 1308.21,-146.795 1402,-110.309 1407.96,-107.988 1413.77,-104.868 1419.29,-101.29"/>
<polygon fill="red" stroke="red" stroke-width="0.404791" points="1421.57,-103.967 1427.72,-95.3408 1417.53,-98.248 1421.57,-103.967"/>
</g>
<!-- enemyRadar[LeftFront15ø]&#45;&gt;Turn Right -->
<g id="edge8" class="edge"><title>enemyRadar[LeftFront15ø]&#45;&gt;Turn Right</title>
<path fill="none" stroke="red" stroke-width="0.176644" d="M461.115,-146.276C524.857,-129.275 673.864,-89.531 750.932,-68.9751"/>
<polygon fill="red" stroke="red" stroke-width="0.176644" points="752.104,-72.2852 760.864,-66.3262 750.3,-65.5216 752.104,-72.2852"/>
</g>
<!-- enemyRadar[RightFront7.5ø] -->
<g id="node17" class="node"><title>enemyRadar[RightFront7.5ø]</title>
<polygon fill="lightgray" stroke="black" points="720,-164.309 598,-164.309 598,-146.309 720,-146.309 720,-164.309"/>
<text text-anchor="middle" x="659" y="-153.109" font-family="Times,serif" font-size="9.00">enemyRadar[RightFront7.5ø]</text>
</g>
<!-- enemyRadar[RightFront7.5ø]&#45;&gt;Move Forward -->
<g id="edge5" class="edge"><title>enemyRadar[RightFront7.5ø]&#45;&gt;Move Forward</title>
<path fill="none" stroke="green" stroke-width="0.763729" d="M720.059,-147.08C723.081,-146.801 726.074,-146.541 729,-146.309 817.809,-139.247 1447.73,-144.489 1530,-110.309 1536.38,-107.657 1542.51,-103.992 1548.25,-99.8081"/>
<polygon fill="green" stroke="green" stroke-width="0.763729" points="1550.7,-102.329 1556.35,-93.3643 1546.34,-96.851 1550.7,-102.329"/>
</g>
<!-- enemyRadar[RightFront7.5ø]&#45;&gt;Move Left -->
<g id="edge78" class="edge"><title>enemyRadar[RightFront7.5ø]&#45;&gt;Move Left</title>
<path fill="none" stroke="green" stroke-width="0.672549" d="M720.07,-147.202C723.089,-146.891 726.078,-146.591 729,-146.309 930.913,-126.789 985.584,-152.511 1184,-110.309 1221.68,-102.295 1262.74,-87.3972 1292.84,-75.2529"/>
<polygon fill="green" stroke="green" stroke-width="0.672549" points="1294.27,-78.4464 1302.2,-71.4189 1291.62,-71.9681 1294.27,-78.4464"/>
</g>
<!-- enemyRadar[RightFront7.5ø]&#45;&gt;Turn Left -->
<g id="edge36" class="edge"><title>enemyRadar[RightFront7.5ø]&#45;&gt;Turn Left</title>
<path fill="none" stroke="red" stroke-width="0.541191" d="M696.889,-146.276C781.736,-128.289 986.662,-84.8454 1077.44,-65.601"/>
<polygon fill="red" stroke="red" stroke-width="0.541191" points="1078.36,-68.9846 1087.41,-63.4867 1076.9,-62.1367 1078.36,-68.9846"/>
</g>
<!-- enemyRadar[RightFront7.5ø]&#45;&gt;Turn Right -->
<g id="edge22" class="edge"><title>enemyRadar[RightFront7.5ø]&#45;&gt;Turn Right</title>
<path fill="none" stroke="green" stroke-width="0.893339" d="M670.457,-146.276C689.499,-132.926 728.543,-105.552 758.63,-84.4575"/>
<polygon fill="green" stroke="green" stroke-width="0.893339" points="760.676,-87.2978 766.855,-78.6912 756.658,-81.5661 760.676,-87.2978"/>
</g>
<!-- enemyRadar[LeftFront7.5ø] -->
<g id="node18" class="node"><title>enemyRadar[LeftFront7.5ø]</title>
<polygon fill="lightgray" stroke="black" points="2513,-164.309 2397,-164.309 2397,-146.309 2513,-146.309 2513,-164.309"/>
<text text-anchor="middle" x="2455" y="-153.109" font-family="Times,serif" font-size="9.00">enemyRadar[LeftFront7.5ø]</text>
</g>
<!-- enemyRadar[LeftFront7.5ø]&#45;&gt;Shoot -->
<g id="edge26" class="edge"><title>enemyRadar[LeftFront7.5ø]&#45;&gt;Shoot</title>
<path fill="none" stroke="green" stroke-width="0.35032" d="M2403.53,-146.276C2280.01,-127.001 1969.17,-78.4953 1862.55,-61.8585"/>
<polygon fill="green" stroke="green" stroke-width="0.35032" points="1863.02,-58.3886 1852.6,-60.3048 1861.94,-65.3049 1863.02,-58.3886"/>
</g>
<!-- enemyRadar[LeftFront7.5ø]&#45;&gt;Move right -->
<g id="edge9" class="edge"><title>enemyRadar[LeftFront7.5ø]&#45;&gt;Move right</title>
<path fill="none" stroke="red" stroke-width="0.759432" d="M2396.92,-147.162C2393.9,-146.857 2390.92,-146.57 2388,-146.309 2255.4,-134.412 1915.39,-155.051 1790,-110.309 1776.49,-105.488 1763.28,-97.4381 1751.8,-89"/>
<polygon fill="red" stroke="red" stroke-width="0.759432" points="1753.83,-86.1465 1743.77,-82.8277 1749.56,-91.6967 1753.83,-86.1465"/>
</g>
<!-- enemyRadar[RightFront2.5ø] -->
<g id="node19" class="node"><title>enemyRadar[RightFront2.5ø]</title>
<polygon fill="lightgray" stroke="black" points="860,-164.309 738,-164.309 738,-146.309 860,-146.309 860,-164.309"/>
<text text-anchor="middle" x="799" y="-153.109" font-family="Times,serif" font-size="9.00">enemyRadar[RightFront2.5ø]</text>
</g>
<!-- enemyRadar[RightFront2.5ø]&#45;&gt;Move right -->
<g id="edge52" class="edge"><title>enemyRadar[RightFront2.5ø]&#45;&gt;Move right</title>
<path fill="none" stroke="red" stroke-width="0.804999" d="M860.059,-147.081C863.081,-146.801 866.074,-146.542 869,-146.309 957.366,-139.272 1585.81,-148.085 1666,-110.309 1673.34,-106.851 1680.07,-101.739 1686.04,-96.0158"/>
<polygon fill="red" stroke="red" stroke-width="0.804999" points="1688.82,-98.1724 1693.18,-88.5172 1683.75,-93.3448 1688.82,-98.1724"/>
</g>
<!-- enemyRadar[RightFront2.5ø]&#45;&gt;Turn Left -->
<g id="edge24" class="edge"><title>enemyRadar[RightFront2.5ø]&#45;&gt;Turn Left</title>
<path fill="none" stroke="green" stroke-width="0.58107" d="M825.432,-146.276C880.965,-129.401 1010.23,-90.1182 1078.3,-69.4348"/>
<polygon fill="green" stroke="green" stroke-width="0.58107" points="1079.73,-72.6584 1088.28,-66.402 1077.69,-65.9608 1079.73,-72.6584"/>
</g>
<!-- enemyRadar[RightFront2.5ø]&#45;&gt;Turn Right -->
<g id="edge79" class="edge"><title>enemyRadar[RightFront2.5ø]&#45;&gt;Turn Right</title>
<path fill="none" stroke="red" stroke-width="0.661021" stroke-dasharray="1,5" d="M799,-146.276C799,-137.112 799,-121.34 799,-105.527"/>
<polygon fill="red" stroke="red" stroke-width="0.661021" points="802.5,-105.199 799,-95.1987 795.5,-105.199 802.5,-105.199"/>
</g>
<!-- enemyRadar[LeftFront2.5ø] -->
<g id="node20" class="node"><title>enemyRadar[LeftFront2.5ø]</title>
<polygon fill="lightgray" stroke="black" points="2379,-164.309 2263,-164.309 2263,-146.309 2379,-146.309 2379,-164.309"/>
<text text-anchor="middle" x="2321" y="-153.109" font-family="Times,serif" font-size="9.00">enemyRadar[LeftFront2.5ø]</text>
</g>
<!-- enemyRadar[LeftFront2.5ø]&#45;&gt;Shoot -->
<g id="edge4" class="edge"><title>enemyRadar[LeftFront2.5ø]&#45;&gt;Shoot</title>
<path fill="none" stroke="green" stroke-width="0.14098" d="M2280.49,-146.276C2186.1,-127.559 1952.69,-81.2749 1862.44,-63.3795"/>
<polygon fill="green" stroke="green" stroke-width="0.14098" points="1862.9,-59.9028 1852.41,-61.3909 1861.54,-66.7692 1862.9,-59.9028"/>
</g>
<!-- enemyRadar[LeftFront2.5ø]&#45;&gt;Move Forward -->
<g id="edge23" class="edge"><title>enemyRadar[LeftFront2.5ø]&#45;&gt;Move Forward</title>
<path fill="none" stroke="green" stroke-width="0.992452" d="M2262.92,-147.166C2259.9,-146.86 2256.92,-146.572 2254,-146.309 2123.62,-134.543 1789.55,-153.601 1666,-110.309 1655.26,-106.547 1644.67,-100.826 1634.94,-94.4912"/>
<polygon fill="green" stroke="green" stroke-width="0.992452" points="1636.86,-91.5617 1626.63,-88.7993 1632.9,-97.3373 1636.86,-91.5617"/>
</g>
<!-- enemyRadar[LeftFront2.5ø]&#45;&gt; Move Backward -->
<g id="edge63" class="edge"><title>enemyRadar[LeftFront2.5ø]&#45;&gt; Move Backward</title>
<path fill="none" stroke="green" stroke-width="0.410521" d="M2262.92,-147.125C2259.91,-146.83 2256.92,-146.555 2254,-146.309 2093.48,-132.751 1679.84,-169.456 1530,-110.309 1524.05,-107.959 1518.25,-104.819 1512.73,-101.229"/>
<polygon fill="green" stroke="green" stroke-width="0.410521" points="1514.5,-98.1876 1504.31,-95.2671 1510.45,-103.901 1514.5,-98.1876"/>
</g>
<!-- enemyRadar[LeftFront2.5ø]&#45;&gt;Move right -->
<g id="edge46" class="edge"><title>enemyRadar[LeftFront2.5ø]&#45;&gt;Move right</title>
<path fill="none" stroke="red" stroke-width="0.181132" d="M2262.91,-147.224C2259.9,-146.903 2256.91,-146.596 2254,-146.309 2151.08,-136.176 1887.1,-145.908 1790,-110.309 1776.53,-105.371 1763.33,-97.2861 1751.85,-88.8516"/>
<polygon fill="red" stroke="red" stroke-width="0.181132" points="1753.88,-85.9981 1743.82,-82.6881 1749.62,-91.552 1753.88,-85.9981"/>
</g>
<!-- OnTarget -->
<g id="node21" class="node"><title>OnTarget</title>
<polygon fill="lightgray" stroke="black" points="1488,-164.309 1438,-164.309 1438,-146.309 1488,-146.309 1488,-164.309"/>
<text text-anchor="middle" x="1463" y="-153.109" font-family="Times,serif" font-size="9.00">OnTarget</text>
</g>
<!-- OnTarget&#45;&gt;Move Forward -->
<g id="edge19" class="edge"><title>OnTarget&#45;&gt;Move Forward</title>
<path fill="none" stroke="red" stroke-width="0.765332" stroke-dasharray="1,5" d="M1476.79,-146.16C1490.65,-137.759 1512.44,-123.992 1530,-110.309 1535.23,-106.233 1540.56,-101.795 1545.77,-97.2725"/>
<polygon fill="red" stroke="red" stroke-width="0.765332" points="1548.13,-99.8647 1553.3,-90.6178 1543.49,-94.6214 1548.13,-99.8647"/>
</g>
<!-- OnTarget&#45;&gt;Move Left -->
<g id="edge54" class="edge"><title>OnTarget&#45;&gt;Move Left</title>
<path fill="none" stroke="red" stroke-width="0.376201" d="M1451.13,-146.112C1438.7,-137.45 1418.71,-123.274 1402,-110.309 1392.66,-103.067 1382.78,-95.0298 1373.61,-87.4117"/>
<polygon fill="red" stroke="red" stroke-width="0.376201" points="1375.69,-84.5849 1365.77,-80.8555 1371.19,-89.9551 1375.69,-84.5849"/>
</g>
<!-- OnTarget&#45;&gt;Move right -->
<g id="edge10" class="edge"><title>OnTarget&#45;&gt;Move right</title>
<path fill="none" stroke="green" stroke-width="0.130657" d="M1488.24,-148.308C1491.19,-147.624 1494.16,-146.945 1497,-146.309 1571.94,-129.513 1599.45,-148.641 1666,-110.309 1672.95,-106.304 1679.46,-100.97 1685.32,-95.2086"/>
<polygon fill="green" stroke="green" stroke-width="0.130657" points="1688.05,-97.4185 1692.38,-87.7503 1682.97,-92.606 1688.05,-97.4185"/>
</g>
<!-- OnTarget&#45;&gt;Turn Right -->
<g id="edge16" class="edge"><title>OnTarget&#45;&gt;Turn Right</title>
<path fill="none" stroke="red" stroke-width="0.206237" stroke-dasharray="1,5" d="M1437.82,-148.003C1434.86,-147.374 1431.87,-146.791 1429,-146.309 1274.35,-120.296 1233.13,-133.272 1078,-110.309 996.669,-98.2693 903.012,-78.9594 847.531,-66.9444"/>
<polygon fill="red" stroke="red" stroke-width="0.206237" points="848.143,-63.4957 837.628,-64.7892 846.655,-70.3356 848.143,-63.4957"/>
</g>
<!-- TakingDmg -->
<g id="node22" class="node"><title>TakingDmg</title>
<polygon fill="lightgray" stroke="black" points="1653.5,-164.309 1594.5,-164.309 1594.5,-146.309 1653.5,-146.309 1653.5,-164.309"/>
<text text-anchor="middle" x="1624" y="-153.109" font-family="Times,serif" font-size="9.00">TakingDmg</text>
</g>
<!-- TakingDmg&#45;&gt;Shoot -->
<g id="edge34" class="edge"><title>TakingDmg&#45;&gt;Shoot</title>
<path fill="none" stroke="red" stroke-width="0.157417" stroke-dasharray="1,5" d="M1653.77,-146.502C1688.92,-137.018 1745,-120.966 1764,-110.309 1777.24,-102.882 1790.17,-92.2947 1800.76,-82.4488"/>
<polygon fill="red" stroke="red" stroke-width="0.157417" points="1803.24,-84.9166 1808.03,-75.4662 1798.4,-79.867 1803.24,-84.9166"/>
</g>
<!-- TakingDmg&#45;&gt;Move Forward -->
<g id="edge29" class="edge"><title>TakingDmg&#45;&gt;Move Forward</title>
<path fill="none" stroke="green" stroke-width="0.173431" d="M1621.14,-146.276C1618.35,-138.466 1613.85,-125.855 1609.1,-112.51"/>
<polygon fill="green" stroke="green" stroke-width="0.173431" points="1612.26,-110.964 1605.6,-102.721 1605.67,-113.315 1612.26,-110.964"/>
</g>
<!-- TakingDmg&#45;&gt; Move Backward -->
<g id="edge76" class="edge"><title>TakingDmg&#45;&gt; Move Backward</title>
<path fill="none" stroke="green" stroke-width="0.43505" d="M1602.63,-146.204C1583.01,-138.332 1553.51,-125.381 1530,-110.309 1524.77,-106.958 1519.51,-103.221 1514.37,-99.3181"/>
<polygon fill="green" stroke="green" stroke-width="0.43505" points="1516.45,-96.4971 1506.42,-93.0817 1512.13,-102.006 1516.45,-96.4971"/>
</g>
<!-- TakingDmg&#45;&gt;Move Left -->
<g id="edge75" class="edge"><title>TakingDmg&#45;&gt;Move Left</title>
<path fill="none" stroke="red" stroke-width="0.444371" d="M1594.19,-148.169C1591.09,-147.537 1587.98,-146.908 1585,-146.309 1503.73,-129.98 1476.84,-145.948 1402,-110.309 1391.02,-105.079 1380.34,-97.5659 1370.92,-89.7939"/>
<polygon fill="red" stroke="red" stroke-width="0.444371" points="1373.18,-87.1233 1363.32,-83.249 1368.61,-92.4272 1373.18,-87.1233"/>
</g>
<!-- TakingDmg&#45;&gt;Move right -->
<g id="edge15" class="edge"><title>TakingDmg&#45;&gt;Move right</title>
<path fill="none" stroke="red" stroke-width="0.372423" d="M1631.81,-146.26C1640.29,-137.484 1654.21,-122.995 1666,-110.309 1671.16,-104.754 1676.59,-98.8381 1681.87,-93.0338"/>
<polygon fill="red" stroke="red" stroke-width="0.372423" points="1684.82,-94.9901 1688.95,-85.2322 1679.64,-90.2866 1684.82,-94.9901"/>
</g>
<!-- TakingDmg&#45;&gt;Turn Left -->
<g id="edge27" class="edge"><title>TakingDmg&#45;&gt;Turn Left</title>
<path fill="none" stroke="red" stroke-width="0.444213" stroke-dasharray="1,5" d="M1594.24,-147.945C1591.12,-147.357 1588,-146.799 1585,-146.309 1454.64,-125.021 1419,-138.699 1290,-110.309 1246.42,-100.717 1198.06,-84.5137 1164.45,-72.325"/>
<polygon fill="red" stroke="red" stroke-width="0.444213" points="1165.55,-68.9982 1154.95,-68.843 1163.14,-75.5706 1165.55,-68.9982"/>
</g>
<!-- bias -->
<g id="node23" class="node"><title>bias</title>
<polygon fill="lightgray" stroke="black" points="1206.5,-164.309 1175.5,-164.309 1175.5,-146.309 1206.5,-146.309 1206.5,-164.309"/>
<text text-anchor="middle" x="1191" y="-153.109" font-family="Times,serif" font-size="9.00">bias</text>
</g>
<!-- bias&#45;&gt;Move Forward -->
<g id="edge21" class="edge"><title>bias&#45;&gt;Move Forward</title>
<path fill="none" stroke="red" stroke-width="0.713029" d="M1206.62,-148.583C1209.38,-147.72 1212.26,-146.916 1215,-146.309 1352.58,-115.864 1401.81,-168.819 1530,-110.309 1536.2,-107.477 1542.2,-103.743 1547.83,-99.5553"/>
<polygon fill="red" stroke="red" stroke-width="0.713029" points="1550.2,-102.138 1555.81,-93.1487 1545.82,-96.6791 1550.2,-102.138"/>
</g>
<!-- bias&#45;&gt; Move Backward -->
<g id="edge82" class="edge"><title>bias&#45;&gt; Move Backward</title>
<path fill="none" stroke="red" stroke-width="0.211165" d="M1206.66,-148.76C1209.42,-147.876 1212.28,-147.02 1215,-146.309 1296.88,-124.88 1325.65,-146.835 1402,-110.309 1407.69,-107.588 1413.28,-104.238 1418.65,-100.549"/>
<polygon fill="red" stroke="red" stroke-width="0.211165" points="1420.89,-103.248 1426.89,-94.5152 1416.75,-97.6014 1420.89,-103.248"/>
</g>
<!-- bias&#45;&gt;Move Left -->
<g id="edge35" class="edge"><title>bias&#45;&gt;Move Left</title>
<path fill="none" stroke="green" stroke-width="0.277712" d="M1202.95,-146.276C1223.24,-132.633 1265.32,-104.344 1296.95,-83.0782"/>
<polygon fill="green" stroke="green" stroke-width="0.277712" points="1299.22,-85.7683 1305.57,-77.2844 1295.32,-79.9591 1299.22,-85.7683"/>
</g>
<!-- bias&#45;&gt;Move right -->
<g id="edge58" class="edge"><title>bias&#45;&gt;Move right</title>
<path fill="none" stroke="green" stroke-width="0.310495" stroke-dasharray="1,5" d="M1206.6,-148.504C1209.37,-147.649 1212.25,-146.869 1215,-146.309 1313.52,-126.265 1575.8,-154.717 1666,-110.309 1673.28,-106.725 1679.98,-101.55 1685.94,-95.8029"/>
<polygon fill="green" stroke="green" stroke-width="0.310495" points="1688.72,-97.9535 1693.07,-88.2936 1683.65,-93.1313 1688.72,-97.9535"/>
</g>
<!-- bias&#45;&gt;Turn Left -->
<g id="edge43" class="edge"><title>bias&#45;&gt;Turn Left</title>
<path fill="none" stroke="green" stroke-width="0.5155" d="M1185.35,-146.276C1177.22,-134.71 1161.69,-112.618 1148.04,-93.203"/>
<polygon fill="green" stroke="green" stroke-width="0.5155" points="1150.75,-90.9703 1142.14,-84.8023 1145.03,-94.996 1150.75,-90.9703"/>
</g>
<!-- bias&#45;&gt;Turn Right -->
<g id="edge18" class="edge"><title>bias&#45;&gt;Turn Right</title>
<path fill="none" stroke="red" stroke-width="0.496687" d="M1175.45,-149.149C1172.33,-148.167 1169.07,-147.176 1166,-146.309 1052.71,-114.309 917.944,-82.8782 847.456,-66.9383"/>
<polygon fill="red" stroke="red" stroke-width="0.496687" points="848.058,-63.4862 837.533,-64.7007 846.518,-70.3148 848.058,-63.4862"/>
</g>
<!-- Move Forward&#45;&gt;Move Forward -->
<g id="edge57" class="edge"><title>Move Forward&#45;&gt;Move Forward</title>
<path fill="none" stroke="green" stroke-width="0.535418" stroke-dasharray="1,5" d="M1635.86,-73.7109C1648.03,-72.5703 1657.2,-66.3848 1657.2,-55.1543 1657.2,-47.2579 1652.67,-41.8556 1645.74,-38.9475"/>
<polygon fill="green" stroke="green" stroke-width="0.535418" points="1646.4,-35.5055 1635.86,-36.5977 1644.78,-42.3157 1646.4,-35.5055"/>
</g>
<!-- Move Left&#45;&gt;Move Left -->
<g id="edge73" class="edge"><title>Move Left&#45;&gt;Move Left</title>
<path fill="none" stroke="red" stroke-width="0.711522" d="M1370.45,-73.8631C1382.92,-74.4765 1393.18,-68.2403 1393.18,-55.1543 1393.18,-45.9533 1388.11,-40.1386 1380.76,-37.7103"/>
<polygon fill="red" stroke="red" stroke-width="0.711522" points="1380.81,-34.1893 1370.45,-36.4455 1379.95,-41.1372 1380.81,-34.1893"/>
</g>
<!-- Turn Left&#45;&gt;Turn Left -->
<g id="edge51" class="edge"><title>Turn Left&#45;&gt;Turn Left</title>
<path fill="none" stroke="red" stroke-width="0.538121" d="M1152.17,-73.7395C1164.72,-75.0213 1175.36,-68.8262 1175.36,-55.1543 1175.36,-45.4345 1169.98,-39.4936 1162.36,-37.3318"/>
<polygon fill="red" stroke="red" stroke-width="0.538121" points="1162.4,-33.8252 1152.17,-36.5691 1161.88,-40.8056 1162.4,-33.8252"/>
</g>
<!-- Turn Right&#45;&gt;Turn Right -->
<g id="edge53" class="edge"><title>Turn Right&#45;&gt;Turn Right</title>
<path fill="none" stroke="green" stroke-width="1.09877" d="M834.151,-73.894C846.543,-74.1939 856.598,-67.9473 856.598,-55.1543 856.598,-46.1593 851.627,-40.4007 844.368,-37.8785"/>
<polygon fill="green" stroke="green" stroke-width="1.09877" points="844.547,-34.3684 834.151,-36.4146 843.554,-41.2977 844.547,-34.3684"/>
</g>
</g>
</svg>
