<?xml version="1.0" encoding="UTF-8" standalone="no"?>
<!DOCTYPE svg PUBLIC "-//W3C//DTD SVG 1.1//EN"
 "http://www.w3.org/Graphics/SVG/1.1/DTD/svg11.dtd">
<!-- Generated by graphviz version 2.38.0 (20140413.2041)
 -->
<!-- Title: %3 Pages: 1 -->
<svg width="2519pt" height="172pt"
 viewBox="0.00 0.00 2519.00 172.31" xmlns="http://www.w3.org/2000/svg" xmlns:xlink="http://www.w3.org/1999/xlink">
<g id="graph0" class="graph" transform="scale(1 1) rotate(0) translate(4 168.309)">
<title>%3</title>
<polygon fill="white" stroke="none" points="-4,4 -4,-168.309 2515,-168.309 2515,4 -4,4"/>
<!-- wallRadar[1,0] -->
<g id="node1" class="node"><title>wallRadar[1,0]</title>
<polygon fill="lightgray" stroke="black" points="70,-164.309 0,-164.309 0,-146.309 70,-146.309 70,-164.309"/>
<text text-anchor="middle" x="35" y="-153.109" font-family="Times,serif" font-size="9.00">wallRadar[1,0]</text>
</g>
<!-- Move Forward -->
<g id="node25" class="node"><title>Move Forward</title>
<ellipse fill="lightblue" stroke="black" cx="744" cy="-55.1543" rx="50.41" ry="50.41"/>
<text text-anchor="middle" x="744" y="-52.9543" font-family="Times,serif" font-size="9.00">Move Forward</text>
</g>
<!-- wallRadar[1,0]&#45;&gt;Move Forward -->
<g id="edge32" class="edge"><title>wallRadar[1,0]&#45;&gt;Move Forward</title>
<path fill="none" stroke="green" stroke-width="0.336186" d="M70.0156,-147.621C73.0485,-147.14 76.0748,-146.693 79,-146.309 273.976,-120.689 325.839,-141.509 520,-110.309 577.107,-101.132 641.15,-85.0498 686.083,-72.7879"/>
<polygon fill="green" stroke="green" stroke-width="0.336186" points="687.226,-76.1036 695.939,-70.0759 685.369,-69.3544 687.226,-76.1036"/>
</g>
<!--  Move Backward -->
<g id="node26" class="node"><title> Move Backward</title>
<ellipse fill="lightblue" stroke="black" cx="456" cy="-55.1543" rx="55.3091" ry="55.3091"/>
<text text-anchor="middle" x="456" y="-52.9543" font-family="Times,serif" font-size="9.00"> Move Backward</text>
</g>
<!-- wallRadar[1,0]&#45;&gt; Move Backward -->
<g id="edge25" class="edge"><title>wallRadar[1,0]&#45;&gt; Move Backward</title>
<path fill="none" stroke="green" stroke-width="0.636993" d="M69.4522,-146.276C140.056,-129.815 302.101,-92.0351 392.357,-70.9925"/>
<polygon fill="green" stroke="green" stroke-width="0.636993" points="393.251,-74.3778 402.196,-68.6986 391.662,-67.5607 393.251,-74.3778"/>
</g>
<!-- wallRadar[0,1] -->
<g id="node2" class="node"><title>wallRadar[0,1]</title>
<polygon fill="lightgray" stroke="black" points="991,-164.309 921,-164.309 921,-146.309 991,-146.309 991,-164.309"/>
<text text-anchor="middle" x="956" y="-153.109" font-family="Times,serif" font-size="9.00">wallRadar[0,1]</text>
</g>
<!-- Shoot -->
<g id="node24" class="node"><title>Shoot</title>
<ellipse fill="lightblue" stroke="black" cx="1111" cy="-55.1543" rx="26.7407" ry="26.7407"/>
<text text-anchor="middle" x="1111" y="-52.9543" font-family="Times,serif" font-size="9.00">Shoot</text>
</g>
<!-- wallRadar[0,1]&#45;&gt;Shoot -->
<g id="edge24" class="edge"><title>wallRadar[0,1]&#45;&gt;Shoot</title>
<path fill="none" stroke="green" stroke-width="0.338028" d="M968.684,-146.276C992.777,-131.02 1045.79,-97.4485 1079.88,-75.8643"/>
<polygon fill="green" stroke="green" stroke-width="0.338028" points="1081.95,-78.6937 1088.53,-70.3866 1078.2,-72.7798 1081.95,-78.6937"/>
</g>
<!-- wallRadar[0,1]&#45;&gt;Move Forward -->
<g id="edge33" class="edge"><title>wallRadar[0,1]&#45;&gt;Move Forward</title>
<path fill="none" stroke="red" stroke-width="0.454894" d="M938.651,-146.276C908.398,-132.269 844.805,-102.826 798.514,-81.3937"/>
<polygon fill="red" stroke="red" stroke-width="0.454894" points="799.754,-78.1112 789.209,-77.0858 796.813,-84.4634 799.754,-78.1112"/>
</g>
<!-- wallRadar[&#45;1,0] -->
<g id="node3" class="node"><title>wallRadar[&#45;1,0]</title>
<polygon fill="lightgray" stroke="black" points="492.5,-164.309 419.5,-164.309 419.5,-146.309 492.5,-146.309 492.5,-164.309"/>
<text text-anchor="middle" x="456" y="-153.109" font-family="Times,serif" font-size="9.00">wallRadar[&#45;1,0]</text>
</g>
<!-- wallRadar[&#45;1,0]&#45;&gt;Shoot -->
<g id="edge45" class="edge"><title>wallRadar[&#45;1,0]&#45;&gt;Shoot</title>
<path fill="none" stroke="red" stroke-width="0.285751" d="M492.627,-147.735C495.793,-147.229 498.951,-146.745 502,-146.309 643.236,-126.076 679.892,-131.418 821,-110.309 912.843,-96.5693 1020.06,-75.1265 1074.8,-63.7844"/>
<polygon fill="red" stroke="red" stroke-width="0.285751" points="1075.64,-67.1857 1084.72,-61.7221 1074.21,-60.3325 1075.64,-67.1857"/>
</g>
<!-- wallRadar[&#45;1,0]&#45;&gt;Move Forward -->
<g id="edge16" class="edge"><title>wallRadar[&#45;1,0]&#45;&gt;Move Forward</title>
<path fill="none" stroke="green" stroke-width="0.180959" d="M479.568,-146.276C524.519,-130.956 623.652,-97.1707 686.951,-75.5973"/>
<polygon fill="green" stroke="green" stroke-width="0.180959" points="688.453,-78.7833 696.789,-72.2445 686.195,-72.1576 688.453,-78.7833"/>
</g>
<!-- wallRadar[&#45;1,0]&#45;&gt; Move Backward -->
<g id="edge35" class="edge"><title>wallRadar[&#45;1,0]&#45;&gt; Move Backward</title>
<path fill="none" stroke="red" stroke-width="0.535028" d="M456,-146.276C456,-140.164 456,-131.112 456,-121.069"/>
<polygon fill="red" stroke="red" stroke-width="0.535028" points="459.5,-120.768 456,-110.768 452.5,-120.768 459.5,-120.768"/>
</g>
<!-- wallRadar[0,&#45;1] -->
<g id="node4" class="node"><title>wallRadar[0,&#45;1]</title>
<polygon fill="lightgray" stroke="black" points="161.5,-164.309 88.5,-164.309 88.5,-146.309 161.5,-146.309 161.5,-164.309"/>
<text text-anchor="middle" x="125" y="-153.109" font-family="Times,serif" font-size="9.00">wallRadar[0,&#45;1]</text>
</g>
<!-- wallRadar[0,&#45;1]&#45;&gt;Move Forward -->
<g id="edge44" class="edge"><title>wallRadar[0,&#45;1]&#45;&gt;Move Forward</title>
<path fill="none" stroke="green" stroke-width="0.528917" d="M161.802,-147.539C164.572,-147.099 167.328,-146.683 170,-146.309 324.863,-124.609 365.874,-136.742 520,-110.309 577.008,-100.532 641.063,-84.5271 686.027,-72.4466"/>
<polygon fill="green" stroke="green" stroke-width="0.528917" points="687.151,-75.7683 695.889,-69.7774 685.322,-69.0113 687.151,-75.7683"/>
</g>
<!-- wallRadar[0,&#45;1]&#45;&gt; Move Backward -->
<g id="edge20" class="edge"><title>wallRadar[0,&#45;1]&#45;&gt; Move Backward</title>
<path fill="none" stroke="red" stroke-width="0.469493" d="M152.087,-146.276C204.437,-130.753 320.727,-96.2681 393.316,-74.7425"/>
<polygon fill="red" stroke="red" stroke-width="0.469493" points="394.665,-77.9932 403.258,-71.7945 392.675,-71.282 394.665,-77.9932"/>
</g>
<!-- wallRadar[0.7,0.7] -->
<g id="node5" class="node"><title>wallRadar[0.7,0.7]</title>
<polygon fill="lightgray" stroke="black" points="1092.5,-164.309 1009.5,-164.309 1009.5,-146.309 1092.5,-146.309 1092.5,-164.309"/>
<text text-anchor="middle" x="1051" y="-153.109" font-family="Times,serif" font-size="9.00">wallRadar[0.7,0.7]</text>
</g>
<!-- wallRadar[0.7,0.7]&#45;&gt;Shoot -->
<g id="edge48" class="edge"><title>wallRadar[0.7,0.7]&#45;&gt;Shoot</title>
<path fill="none" stroke="red" stroke-width="0.31954" d="M1055.91,-146.276C1063.71,-133.514 1079.35,-107.935 1091.97,-87.2781"/>
<polygon fill="red" stroke="red" stroke-width="0.31954" points="1095.12,-88.8461 1097.35,-78.4884 1089.15,-85.1952 1095.12,-88.8461"/>
</g>
<!-- wallRadar[0.7,0.7]&#45;&gt;Move Forward -->
<g id="edge21" class="edge"><title>wallRadar[0.7,0.7]&#45;&gt;Move Forward</title>
<path fill="none" stroke="red" stroke-width="0.361488" d="M1025.88,-146.276C977.081,-130.675 868.389,-95.924 801.135,-74.4217"/>
<polygon fill="red" stroke="red" stroke-width="0.361488" points="802.116,-71.0609 791.526,-71.3492 799.985,-77.7284 802.116,-71.0609"/>
</g>
<!-- wallRadar[0.7,0.7]&#45;&gt; Move Backward -->
<g id="edge36" class="edge"><title>wallRadar[0.7,0.7]&#45;&gt; Move Backward</title>
<path fill="none" stroke="green" stroke-width="0.192975" d="M1009.27,-147.618C1006.14,-147.159 1003.02,-146.718 1000,-146.309 860.365,-127.386 823.808,-134.565 685,-110.309 628.386,-100.415 564.841,-85.042 519.079,-73.1989"/>
<polygon fill="green" stroke="green" stroke-width="0.192975" points="519.862,-69.7861 509.302,-70.6525 518.097,-76.5601 519.862,-69.7861"/>
</g>
<!-- Move Left -->
<g id="node27" class="node"><title>Move Left</title>
<ellipse fill="lightblue" stroke="black" cx="1810" cy="-55.1543" rx="38.3684" ry="38.3684"/>
<text text-anchor="middle" x="1810" y="-52.9543" font-family="Times,serif" font-size="9.00">Move Left</text>
</g>
<!-- wallRadar[0.7,0.7]&#45;&gt;Move Left -->
<g id="edge1" class="edge"><title>wallRadar[0.7,0.7]&#45;&gt;Move Left</title>
<path fill="none" stroke="green" stroke-width="0.101011" d="M1092.73,-147.661C1095.87,-147.193 1098.98,-146.737 1102,-146.309 1349.74,-111.112 1647.2,-75.3436 1761.77,-61.8077"/>
<polygon fill="green" stroke="green" stroke-width="0.101011" points="1762.44,-65.2533 1771.96,-60.6057 1761.62,-58.3015 1762.44,-65.2533"/>
</g>
<!-- wallRadar[&#45;0.7,0.7] -->
<g id="node6" class="node"><title>wallRadar[&#45;0.7,0.7]</title>
<polygon fill="lightgray" stroke="black" points="597,-164.309 511,-164.309 511,-146.309 597,-146.309 597,-164.309"/>
<text text-anchor="middle" x="554" y="-153.109" font-family="Times,serif" font-size="9.00">wallRadar[&#45;0.7,0.7]</text>
</g>
<!-- wallRadar[&#45;0.7,0.7]&#45;&gt;Shoot -->
<g id="edge5" class="edge"><title>wallRadar[&#45;0.7,0.7]&#45;&gt;Shoot</title>
<path fill="none" stroke="green" stroke-width="0.258427" d="M597.054,-147.503C649.868,-139.087 742.109,-124.173 821,-110.309 912.463,-94.2344 1019.84,-73.7641 1074.71,-63.1882"/>
<polygon fill="green" stroke="green" stroke-width="0.258427" points="1075.49,-66.6023 1084.64,-61.2705 1074.16,-59.7291 1075.49,-66.6023"/>
</g>
<!-- wallRadar[&#45;0.7,0.7]&#45;&gt;Move Forward -->
<g id="edge12" class="edge"><title>wallRadar[&#45;0.7,0.7]&#45;&gt;Move Forward</title>
<path fill="none" stroke="green" stroke-width="0.12522" stroke-dasharray="1,5" d="M569.548,-146.276C595.668,-132.783 649.518,-104.964 690.521,-83.7815"/>
<polygon fill="green" stroke="green" stroke-width="0.12522" points="692.308,-86.7978 699.587,-79.0984 689.096,-80.5786 692.308,-86.7978"/>
</g>
<!-- wallRadar[&#45;0.7,0.7]&#45;&gt; Move Backward -->
<g id="edge4" class="edge"><title>wallRadar[&#45;0.7,0.7]&#45;&gt; Move Backward</title>
<path fill="none" stroke="green" stroke-width="0.527236" d="M545.98,-146.276C536.14,-136.421 518.671,-118.924 501.725,-101.952"/>
<polygon fill="green" stroke="green" stroke-width="0.527236" points="504.061,-99.3377 494.519,-94.734 499.108,-104.284 504.061,-99.3377"/>
</g>
<!-- wallRadar[&#45;0.7,&#45;0.7] -->
<g id="node7" class="node"><title>wallRadar[&#45;0.7,&#45;0.7]</title>
<polygon fill="lightgray" stroke="black" points="268.5,-164.309 179.5,-164.309 179.5,-146.309 268.5,-146.309 268.5,-164.309"/>
<text text-anchor="middle" x="224" y="-153.109" font-family="Times,serif" font-size="9.00">wallRadar[&#45;0.7,&#45;0.7]</text>
</g>
<!-- wallRadar[&#45;0.7,&#45;0.7]&#45;&gt;Move Forward -->
<g id="edge7" class="edge"><title>wallRadar[&#45;0.7,&#45;0.7]&#45;&gt;Move Forward</title>
<path fill="none" stroke="red" stroke-width="0.221434" d="M268.716,-147.688C350.679,-135.548 516.928,-110.907 520,-110.309 576.773,-99.2494 640.859,-83.411 685.893,-71.7178"/>
<polygon fill="red" stroke="red" stroke-width="0.221434" points="686.98,-75.0513 695.773,-69.1397 685.213,-68.2782 686.98,-75.0513"/>
</g>
<!-- wallRadar[&#45;0.7,&#45;0.7]&#45;&gt; Move Backward -->
<g id="edge14" class="edge"><title>wallRadar[&#45;0.7,&#45;0.7]&#45;&gt; Move Backward</title>
<path fill="none" stroke="green" stroke-width="0.318739" d="M242.986,-146.276C275.994,-132.311 345.273,-103.001 395.892,-81.5848"/>
<polygon fill="green" stroke="green" stroke-width="0.318739" points="397.268,-84.8032 405.114,-77.6833 394.54,-78.3564 397.268,-84.8032"/>
</g>
<!-- wallRadar[0.7,&#45;0.7] -->
<g id="node8" class="node"><title>wallRadar[0.7,&#45;0.7]</title>
<polygon fill="lightgray" stroke="black" points="701,-164.309 615,-164.309 615,-146.309 701,-146.309 701,-164.309"/>
<text text-anchor="middle" x="658" y="-153.109" font-family="Times,serif" font-size="9.00">wallRadar[0.7,&#45;0.7]</text>
</g>
<!-- wallRadar[0.7,&#45;0.7]&#45;&gt;Shoot -->
<g id="edge6" class="edge"><title>wallRadar[0.7,&#45;0.7]&#45;&gt;Shoot</title>
<path fill="none" stroke="red" stroke-width="0.222516" d="M695.071,-146.276C780.571,-127.75 990.699,-82.2208 1075.07,-63.9387"/>
<polygon fill="red" stroke="red" stroke-width="0.222516" points="1075.93,-67.3355 1084.96,-61.7972 1074.44,-60.4943 1075.93,-67.3355"/>
</g>
<!-- wallRadar[0.7,&#45;0.7]&#45;&gt;Move Forward -->
<g id="edge26" class="edge"><title>wallRadar[0.7,&#45;0.7]&#45;&gt;Move Forward</title>
<path fill="none" stroke="red" stroke-width="0.170386" stroke-dasharray="1,5" d="M665.038,-146.276C673.735,-136.35 689.224,-118.672 704.194,-101.586"/>
<polygon fill="red" stroke="red" stroke-width="0.170386" points="707.052,-103.635 711.01,-93.8073 701.787,-99.0222 707.052,-103.635"/>
</g>
<!-- wallRadar[0.7,&#45;0.7]&#45;&gt; Move Backward -->
<g id="edge43" class="edge"><title>wallRadar[0.7,&#45;0.7]&#45;&gt; Move Backward</title>
<path fill="none" stroke="red" stroke-width="0.30021" d="M641.469,-146.276C614.023,-132.94 557.777,-105.609 514.384,-84.5237"/>
<polygon fill="red" stroke="red" stroke-width="0.30021" points="515.858,-81.3488 505.334,-80.1263 512.799,-87.6449 515.858,-81.3488"/>
</g>
<!-- enemyRadar[RightBack] -->
<g id="node9" class="node"><title>enemyRadar[RightBack]</title>
<polygon fill="lightgray" stroke="black" points="1355,-164.309 1251,-164.309 1251,-146.309 1355,-146.309 1355,-164.309"/>
<text text-anchor="middle" x="1303" y="-153.109" font-family="Times,serif" font-size="9.00">enemyRadar[RightBack]</text>
</g>
<!-- enemyRadar[RightBack]&#45;&gt;Move Forward -->
<g id="edge37" class="edge"><title>enemyRadar[RightBack]&#45;&gt;Move Forward</title>
<path fill="none" stroke="green" stroke-width="0.421249" d="M1257.25,-146.276C1156.62,-128.605 916.056,-86.3654 803.708,-66.6384"/>
<polygon fill="green" stroke="green" stroke-width="0.421249" points="804.024,-63.1404 793.569,-64.8581 802.813,-70.0349 804.024,-63.1404"/>
</g>
<!-- enemyRadar[RightBack]&#45;&gt;Move Left -->
<g id="edge34" class="edge"><title>enemyRadar[RightBack]&#45;&gt;Move Left</title>
<path fill="none" stroke="red" stroke-width="0.162786" d="M1344.49,-146.276C1437.8,-128.212 1663.72,-84.4738 1762.47,-65.3557"/>
<polygon fill="red" stroke="red" stroke-width="0.162786" points="1763.31,-68.7577 1772.47,-63.4208 1761.98,-61.8853 1763.31,-68.7577"/>
</g>
<!-- enemyRadar[LeftBack] -->
<g id="node10" class="node"><title>enemyRadar[LeftBack]</title>
<polygon fill="lightgray" stroke="black" points="1472.5,-164.309 1373.5,-164.309 1373.5,-146.309 1472.5,-146.309 1472.5,-164.309"/>
<text text-anchor="middle" x="1423" y="-153.109" font-family="Times,serif" font-size="9.00">enemyRadar[LeftBack]</text>
</g>
<!-- enemyRadar[LeftBack]&#45;&gt;Move Forward -->
<g id="edge22" class="edge"><title>enemyRadar[LeftBack]&#45;&gt;Move Forward</title>
<path fill="none" stroke="red" stroke-width="0.449284" d="M1373.43,-147.548C1370.24,-147.125 1367.08,-146.709 1364,-146.309 1235.64,-129.613 1203.12,-128.762 1075,-110.309 979.945,-96.6175 869.985,-78.0904 803.778,-66.641"/>
<polygon fill="red" stroke="red" stroke-width="0.449284" points="803.988,-63.1252 793.537,-64.866 802.792,-70.0224 803.988,-63.1252"/>
</g>
<!-- enemyRadar[LeftBack]&#45;&gt;Move Left -->
<g id="edge31" class="edge"><title>enemyRadar[LeftBack]&#45;&gt;Move Left</title>
<path fill="none" stroke="red" stroke-width="0.480087" d="M1454.67,-146.276C1522.79,-128.999 1683.52,-88.2337 1763.34,-67.9887"/>
<polygon fill="red" stroke="red" stroke-width="0.480087" points="1764.29,-71.3582 1773.12,-65.5071 1762.57,-64.573 1764.29,-71.3582"/>
</g>
<!-- enemyRadar[Right45ø] -->
<g id="node11" class="node"><title>enemyRadar[Right45ø]</title>
<polygon fill="lightgray" stroke="black" points="1860,-164.309 1760,-164.309 1760,-146.309 1860,-146.309 1860,-164.309"/>
<text text-anchor="middle" x="1810" y="-153.109" font-family="Times,serif" font-size="9.00">enemyRadar[Right45ø]</text>
</g>
<!-- enemyRadar[Right45ø]&#45;&gt;Shoot -->
<g id="edge41" class="edge"><title>enemyRadar[Right45ø]&#45;&gt;Shoot</title>
<path fill="none" stroke="green" stroke-width="0.543412" d="M1759.73,-147.25C1626.16,-128.494 1264.68,-77.7343 1147.91,-61.3377"/>
<polygon fill="green" stroke="green" stroke-width="0.543412" points="1148.1,-57.8292 1137.71,-59.9046 1147.12,-64.7612 1148.1,-57.8292"/>
</g>
<!-- enemyRadar[Right45ø]&#45;&gt;Move Left -->
<g id="edge27" class="edge"><title>enemyRadar[Right45ø]&#45;&gt;Move Left</title>
<path fill="none" stroke="red" stroke-width="0.265155" d="M1810,-146.276C1810,-136.721 1810,-119.983 1810,-103.505"/>
<polygon fill="red" stroke="red" stroke-width="0.265155" points="1813.5,-103.345 1810,-93.3454 1806.5,-103.345 1813.5,-103.345"/>
</g>
<!-- enemyRadar[Left45ø] -->
<g id="node12" class="node"><title>enemyRadar[Left45ø]</title>
<polygon fill="lightgray" stroke="black" points="2099.5,-164.309 2004.5,-164.309 2004.5,-146.309 2099.5,-146.309 2099.5,-164.309"/>
<text text-anchor="middle" x="2052" y="-153.109" font-family="Times,serif" font-size="9.00">enemyRadar[Left45ø]</text>
</g>
<!-- enemyRadar[Left45ø]&#45;&gt;Move Left -->
<g id="edge23" class="edge"><title>enemyRadar[Left45ø]&#45;&gt;Move Left</title>
<path fill="none" stroke="green" stroke-width="0.229337" d="M2032.2,-146.276C1993.62,-130.63 1907.55,-95.7222 1854.58,-74.2349"/>
<polygon fill="green" stroke="green" stroke-width="0.229337" points="1855.67,-70.9019 1845.09,-70.3866 1853.04,-77.3887 1855.67,-70.9019"/>
</g>
<!-- enemyRadar[RightFront20ø] -->
<g id="node13" class="node"><title>enemyRadar[RightFront20ø]</title>
<polygon fill="lightgray" stroke="black" points="2236.5,-164.309 2117.5,-164.309 2117.5,-146.309 2236.5,-146.309 2236.5,-164.309"/>
<text text-anchor="middle" x="2177" y="-153.109" font-family="Times,serif" font-size="9.00">enemyRadar[RightFront20ø]</text>
</g>
<!-- enemyRadar[RightFront20ø]&#45;&gt;Move Left -->
<g id="edge42" class="edge"><title>enemyRadar[RightFront20ø]&#45;&gt;Move Left</title>
<path fill="none" stroke="red" stroke-width="0.395555" d="M2146.97,-146.276C2082.99,-129.165 1932.88,-89.0178 1856.46,-68.5801"/>
<polygon fill="red" stroke="red" stroke-width="0.395555" points="1857.19,-65.153 1846.63,-65.9504 1855.38,-71.9153 1857.19,-65.153"/>
</g>
<!-- enemyRadar[LeftFront20ø] -->
<g id="node14" class="node"><title>enemyRadar[LeftFront20ø]</title>
<polygon fill="lightgray" stroke="black" points="401,-164.309 287,-164.309 287,-146.309 401,-146.309 401,-164.309"/>
<text text-anchor="middle" x="344" y="-153.109" font-family="Times,serif" font-size="9.00">enemyRadar[LeftFront20ø]</text>
</g>
<!-- enemyRadar[LeftFront20ø]&#45;&gt;Shoot -->
<g id="edge38" class="edge"><title>enemyRadar[LeftFront20ø]&#45;&gt;Shoot</title>
<path fill="none" stroke="green" stroke-width="0.149268" d="M401.224,-147.254C404.191,-146.926 407.13,-146.608 410,-146.309 592.375,-127.274 639.327,-135.168 821,-110.309 913.007,-97.7188 1020.16,-75.7972 1074.85,-64.0779"/>
<polygon fill="green" stroke="green" stroke-width="0.149268" points="1075.71,-67.4722 1084.75,-61.9444 1074.24,-60.6292 1075.71,-67.4722"/>
</g>
<!-- enemyRadar[LeftFront20ø]&#45;&gt;Move Forward -->
<g id="edge28" class="edge"><title>enemyRadar[LeftFront20ø]&#45;&gt;Move Forward</title>
<path fill="none" stroke="red" stroke-width="0.299397" d="M376.734,-146.276C444.308,-129.695 600.042,-91.4795 685.408,-70.532"/>
<polygon fill="red" stroke="red" stroke-width="0.299397" points="686.329,-73.9098 695.207,-68.1275 684.661,-67.1115 686.329,-73.9098"/>
</g>
<!-- enemyRadar[LeftFront20ø]&#45;&gt; Move Backward -->
<g id="edge30" class="edge"><title>enemyRadar[LeftFront20ø]&#45;&gt; Move Backward</title>
<path fill="none" stroke="red" stroke-width="0.173399" d="M353.165,-146.276C365.071,-135.842 386.751,-116.843 407.145,-98.9697"/>
<polygon fill="red" stroke="red" stroke-width="0.173399" points="409.662,-101.418 414.875,-92.195 405.048,-96.1537 409.662,-101.418"/>
</g>
<!-- enemyRadar[RightFront15ø] -->
<g id="node15" class="node"><title>enemyRadar[RightFront15ø]</title>
<polygon fill="lightgray" stroke="black" points="1609.5,-164.309 1490.5,-164.309 1490.5,-146.309 1609.5,-146.309 1609.5,-164.309"/>
<text text-anchor="middle" x="1550" y="-153.109" font-family="Times,serif" font-size="9.00">enemyRadar[RightFront15ø]</text>
</g>
<!-- enemyRadar[RightFront15ø]&#45;&gt;Shoot -->
<g id="edge8" class="edge"><title>enemyRadar[RightFront15ø]&#45;&gt;Shoot</title>
<path fill="none" stroke="green" stroke-width="0.113631" d="M1514.07,-146.276C1431.6,-127.835 1229.44,-82.6366 1146.95,-64.1911"/>
<polygon fill="green" stroke="green" stroke-width="0.113631" points="1147.56,-60.7418 1137.04,-61.9754 1146.03,-67.5731 1147.56,-60.7418"/>
</g>
<!-- enemyRadar[RightFront15ø]&#45;&gt;Move Forward -->
<g id="edge18" class="edge"><title>enemyRadar[RightFront15ø]&#45;&gt;Move Forward</title>
<path fill="none" stroke="green" stroke-width="0.226192" d="M1490.31,-147.187C1487.5,-146.883 1484.72,-146.589 1482,-146.309 1301.36,-127.698 1255.17,-132.984 1075,-110.309 979.579,-98.2994 869.506,-79.2446 803.406,-67.2343"/>
<polygon fill="green" stroke="green" stroke-width="0.226192" points="803.65,-63.7211 793.184,-65.3694 802.393,-70.6074 803.65,-63.7211"/>
</g>
<!-- enemyRadar[RightFront15ø]&#45;&gt;Move Left -->
<g id="edge17" class="edge"><title>enemyRadar[RightFront15ø]&#45;&gt;Move Left</title>
<path fill="none" stroke="red" stroke-width="0.161464" d="M1571.28,-146.276C1613.47,-130.349 1708.53,-94.4607 1765.14,-73.0891"/>
<polygon fill="red" stroke="red" stroke-width="0.161464" points="1766.44,-76.3388 1774.56,-69.5324 1763.97,-69.7899 1766.44,-76.3388"/>
</g>
<!-- enemyRadar[LeftFront15ø] -->
<g id="node16" class="node"><title>enemyRadar[LeftFront15ø]</title>
<polygon fill="lightgray" stroke="black" points="1742,-164.309 1628,-164.309 1628,-146.309 1742,-146.309 1742,-164.309"/>
<text text-anchor="middle" x="1685" y="-153.109" font-family="Times,serif" font-size="9.00">enemyRadar[LeftFront15ø]</text>
</g>
<!-- enemyRadar[LeftFront15ø]&#45;&gt;Shoot -->
<g id="edge11" class="edge"><title>enemyRadar[LeftFront15ø]&#45;&gt;Shoot</title>
<path fill="none" stroke="red" stroke-width="0.152544" d="M1638.03,-146.276C1526.44,-127.195 1247.33,-79.4672 1147.35,-62.3696"/>
<polygon fill="red" stroke="red" stroke-width="0.152544" points="1147.87,-58.9078 1137.42,-60.6721 1146.69,-65.8077 1147.87,-58.9078"/>
</g>
<!-- enemyRadar[RightFront7.5ø] -->
<g id="node17" class="node"><title>enemyRadar[RightFront7.5ø]</title>
<polygon fill="lightgray" stroke="black" points="1233,-164.309 1111,-164.309 1111,-146.309 1233,-146.309 1233,-164.309"/>
<text text-anchor="middle" x="1172" y="-153.109" font-family="Times,serif" font-size="9.00">enemyRadar[RightFront7.5ø]</text>
</g>
<!-- enemyRadar[RightFront7.5ø]&#45;&gt;Shoot -->
<g id="edge40" class="edge"><title>enemyRadar[RightFront7.5ø]&#45;&gt;Shoot</title>
<path fill="none" stroke="red" stroke-width="0.229448" d="M1167.01,-146.276C1159.04,-133.456 1143.04,-107.705 1130.17,-87.0005"/>
<polygon fill="red" stroke="red" stroke-width="0.229448" points="1133.13,-85.1344 1124.88,-78.4884 1127.19,-88.8294 1133.13,-85.1344"/>
</g>
<!-- enemyRadar[RightFront7.5ø]&#45;&gt;Move Forward -->
<g id="edge15" class="edge"><title>enemyRadar[RightFront7.5ø]&#45;&gt;Move Forward</title>
<path fill="none" stroke="green" stroke-width="0.747886" stroke-dasharray="1,5" d="M1136.97,-146.276C1063.56,-129.44 892.901,-90.3022 802.544,-69.5805"/>
<polygon fill="green" stroke="green" stroke-width="0.747886" points="803.26,-66.1538 792.731,-67.3299 801.695,-72.9767 803.26,-66.1538"/>
</g>
<!-- enemyRadar[LeftFront7.5ø] -->
<g id="node18" class="node"><title>enemyRadar[LeftFront7.5ø]</title>
<polygon fill="lightgray" stroke="black" points="903,-164.309 787,-164.309 787,-146.309 903,-146.309 903,-164.309"/>
<text text-anchor="middle" x="845" y="-153.109" font-family="Times,serif" font-size="9.00">enemyRadar[LeftFront7.5ø]</text>
</g>
<!-- enemyRadar[LeftFront7.5ø]&#45;&gt;Move Forward -->
<g id="edge46" class="edge"><title>enemyRadar[LeftFront7.5ø]&#45;&gt;Move Forward</title>
<path fill="none" stroke="green" stroke-width="0.15985" d="M836.735,-146.276C825.838,-135.686 805.861,-116.272 787.232,-98.1681"/>
<polygon fill="green" stroke="green" stroke-width="0.15985" points="789.519,-95.5107 779.909,-91.0514 784.641,-100.531 789.519,-95.5107"/>
</g>
<!-- enemyRadar[LeftFront7.5ø]&#45;&gt; Move Backward -->
<g id="edge47" class="edge"><title>enemyRadar[LeftFront7.5ø]&#45;&gt; Move Backward</title>
<path fill="none" stroke="green" stroke-width="0.221847" d="M813.166,-146.276C749.087,-130.107 603.487,-93.3689 519.306,-72.128"/>
<polygon fill="green" stroke="green" stroke-width="0.221847" points="519.907,-68.6699 509.354,-69.6169 518.194,-75.4572 519.907,-68.6699"/>
</g>
<!-- enemyRadar[LeftFront7.5ø]&#45;&gt;Move Left -->
<g id="edge3" class="edge"><title>enemyRadar[LeftFront7.5ø]&#45;&gt;Move Left</title>
<path fill="none" stroke="red" stroke-width="0.166446" d="M903.097,-147.304C906.107,-146.962 909.089,-146.629 912,-146.309 1236.46,-110.654 1627.52,-73.3273 1761.92,-60.6606"/>
<polygon fill="red" stroke="red" stroke-width="0.166446" points="1762.27,-64.1433 1771.9,-59.7213 1761.61,-57.1741 1762.27,-64.1433"/>
</g>
<!-- enemyRadar[RightFront2.5ø] -->
<g id="node19" class="node"><title>enemyRadar[RightFront2.5ø]</title>
<polygon fill="lightgray" stroke="black" points="2511,-164.309 2389,-164.309 2389,-146.309 2511,-146.309 2511,-164.309"/>
<text text-anchor="middle" x="2450" y="-153.109" font-family="Times,serif" font-size="9.00">enemyRadar[RightFront2.5ø]</text>
</g>
<!-- enemyRadar[LeftFront2.5ø] -->
<g id="node20" class="node"><title>enemyRadar[LeftFront2.5ø]</title>
<polygon fill="lightgray" stroke="black" points="2371,-164.309 2255,-164.309 2255,-146.309 2371,-146.309 2371,-164.309"/>
<text text-anchor="middle" x="2313" y="-153.109" font-family="Times,serif" font-size="9.00">enemyRadar[LeftFront2.5ø]</text>
</g>
<!-- enemyRadar[LeftFront2.5ø]&#45;&gt;Move Left -->
<g id="edge19" class="edge"><title>enemyRadar[LeftFront2.5ø]&#45;&gt;Move Left</title>
<path fill="none" stroke="red" stroke-width="0.463934" d="M2271.84,-146.276C2179.38,-128.234 1955.67,-84.5808 1857.51,-65.4261"/>
<polygon fill="red" stroke="red" stroke-width="0.463934" points="1858.06,-61.9668 1847.58,-63.4867 1856.72,-68.8372 1858.06,-61.9668"/>
</g>
<!-- OnTarget -->
<g id="node21" class="node"><title>OnTarget</title>
<polygon fill="lightgray" stroke="black" points="769,-164.309 719,-164.309 719,-146.309 769,-146.309 769,-164.309"/>
<text text-anchor="middle" x="744" y="-153.109" font-family="Times,serif" font-size="9.00">OnTarget</text>
</g>
<!-- OnTarget&#45;&gt;Move Forward -->
<g id="edge39" class="edge"><title>OnTarget&#45;&gt;Move Forward</title>
<path fill="none" stroke="red" stroke-width="0.380753" d="M744,-146.276C744,-139.122 744,-127.942 744,-115.858"/>
<polygon fill="red" stroke="red" stroke-width="0.380753" points="747.5,-115.564 744,-105.564 740.5,-115.564 747.5,-115.564"/>
</g>
<!-- TakingDmg -->
<g id="node22" class="node"><title>TakingDmg</title>
<polygon fill="lightgray" stroke="black" points="1937.5,-164.309 1878.5,-164.309 1878.5,-146.309 1937.5,-146.309 1937.5,-164.309"/>
<text text-anchor="middle" x="1908" y="-153.109" font-family="Times,serif" font-size="9.00">TakingDmg</text>
</g>
<!-- TakingDmg&#45;&gt;Shoot -->
<g id="edge9" class="edge"><title>TakingDmg&#45;&gt;Shoot</title>
<path fill="none" stroke="red" stroke-width="0.329598" d="M1878.24,-147.935C1875.12,-147.349 1872,-146.794 1869,-146.309 1593.63,-101.77 1258.64,-69.5234 1148.24,-59.466"/>
<polygon fill="red" stroke="red" stroke-width="0.329598" points="1148.24,-55.9521 1137.97,-58.5355 1147.61,-62.9236 1148.24,-55.9521"/>
</g>
<!-- TakingDmg&#45;&gt;Move Left -->
<g id="edge2" class="edge"><title>TakingDmg&#45;&gt;Move Left</title>
<path fill="none" stroke="red" stroke-width="0.183117" d="M1899.98,-146.276C1887.85,-134.125 1864.11,-110.354 1844.07,-90.2765"/>
<polygon fill="red" stroke="red" stroke-width="0.183117" points="1846.42,-87.6785 1836.88,-83.0748 1841.47,-92.6244 1846.42,-87.6785"/>
</g>
<!-- bias -->
<g id="node23" class="node"><title>bias</title>
<polygon fill="lightgray" stroke="black" points="1986.5,-164.309 1955.5,-164.309 1955.5,-146.309 1986.5,-146.309 1986.5,-164.309"/>
<text text-anchor="middle" x="1971" y="-153.109" font-family="Times,serif" font-size="9.00">bias</text>
</g>
<!-- bias&#45;&gt;Shoot -->
<g id="edge10" class="edge"><title>bias&#45;&gt;Shoot</title>
<path fill="none" stroke="green" stroke-width="0.208418" d="M1955.38,-148.569C1952.62,-147.707 1949.75,-146.907 1947,-146.309 1643.4,-80.1411 1266.71,-61.6788 1148.36,-57.3351"/>
<polygon fill="green" stroke="green" stroke-width="0.208418" points="1148.16,-53.8259 1138.04,-56.9686 1147.91,-60.8215 1148.16,-53.8259"/>
</g>
<!-- bias&#45;&gt;Move Left -->
<g id="edge29" class="edge"><title>bias&#45;&gt;Move Left</title>
<path fill="none" stroke="green" stroke-width="0.459295" d="M1957.82,-146.276C1934.77,-132.221 1886.22,-102.622 1851.03,-81.1711"/>
<polygon fill="green" stroke="green" stroke-width="0.459295" points="1852.76,-78.1246 1842.4,-75.9075 1849.12,-84.1015 1852.76,-78.1246"/>
</g>
<!-- Move Forward&#45;&gt;Move Forward -->
<g id="edge13" class="edge"><title>Move Forward&#45;&gt;Move Forward</title>
<path fill="none" stroke="green" stroke-width="0.327945" d="M790.86,-73.7109C803.029,-72.5703 812.205,-66.3848 812.205,-55.1543 812.205,-47.2579 807.668,-41.8556 800.745,-38.9475"/>
<polygon fill="green" stroke="green" stroke-width="0.327945" points="801.399,-35.5055 790.86,-36.5977 799.78,-42.3157 801.399,-35.5055"/>
</g>
</g>
</svg>
