<?xml version="1.0" encoding="UTF-8" standalone="no"?>
<!DOCTYPE svg PUBLIC "-//W3C//DTD SVG 1.1//EN"
 "http://www.w3.org/Graphics/SVG/1.1/DTD/svg11.dtd">
<!-- Generated by graphviz version 2.38.0 (20140413.2041)
 -->
<!-- Title: %3 Pages: 1 -->
<svg width="2460pt" height="295pt"
 viewBox="0.00 0.00 2459.71 294.58" xmlns="http://www.w3.org/2000/svg" xmlns:xlink="http://www.w3.org/1999/xlink">
<g id="graph0" class="graph" transform="scale(1 1) rotate(0) translate(4 290.576)">
<title>%3</title>
<polygon fill="white" stroke="none" points="-4,4 -4,-290.576 2455.71,-290.576 2455.71,4 -4,4"/>
<!-- wallRadar[1,0] -->
<g id="node1" class="node"><title>wallRadar[1,0]</title>
<polygon fill="lightgray" stroke="black" points="2180.5,-220.362 2110.5,-220.362 2110.5,-202.362 2180.5,-202.362 2180.5,-220.362"/>
<text text-anchor="middle" x="2145.5" y="-209.162" font-family="Times,serif" font-size="9.00">wallRadar[1,0]</text>
</g>
<!-- Move Forward/Backward -->
<g id="node25" class="node"><title>Move Forward/Backward</title>
<ellipse fill="lightblue" stroke="black" cx="1548.5" cy="-77.0746" rx="77.1494" ry="77.1494"/>
<text text-anchor="middle" x="1548.5" y="-74.8746" font-family="Times,serif" font-size="9.00">Move Forward/Backward</text>
</g>
<!-- wallRadar[1,0]&#45;&gt;Move Forward/Backward -->
<g id="edge6" class="edge"><title>wallRadar[1,0]&#45;&gt;Move Forward/Backward</title>
<path fill="none" stroke="red" stroke-width="0.238793" d="M2131.3,-202.316C2122.9,-197.95 2111.9,-192.896 2101.5,-190.149 1920.79,-142.429 1861,-209.568 1682.5,-154.149 1661.34,-147.58 1639.85,-137.3 1620.45,-126.397"/>
<polygon fill="red" stroke="red" stroke-width="0.238793" points="1622.11,-123.313 1611.7,-121.355 1618.62,-129.379 1622.11,-123.313"/>
</g>
<!--  Move Left/Right -->
<g id="node26" class="node"><title> Move Left/Right</title>
<ellipse fill="lightblue" stroke="black" cx="1746.5" cy="-77.0746" rx="55.3091" ry="55.3091"/>
<text text-anchor="middle" x="1746.5" y="-74.8746" font-family="Times,serif" font-size="9.00"> Move Left/Right</text>
</g>
<!-- wallRadar[1,0]&#45;&gt; Move Left/Right -->
<g id="edge25" class="edge"><title>wallRadar[1,0]&#45;&gt; Move Left/Right</title>
<path fill="none" stroke="red" stroke-width="0.477007" d="M2128.99,-202.187C2120.83,-198.293 2110.75,-193.72 2101.5,-190.149 2001.01,-151.377 1880.9,-115.588 1809.31,-95.33"/>
<polygon fill="red" stroke="red" stroke-width="0.477007" points="1810.11,-91.9197 1799.54,-92.5759 1808.21,-98.6573 1810.11,-91.9197"/>
</g>
<!-- Turn left/right -->
<g id="node27" class="node"><title>Turn left/right</title>
<ellipse fill="lightblue" stroke="black" cx="1104.5" cy="-77.0746" rx="46.8387" ry="46.8387"/>
<text text-anchor="middle" x="1104.5" y="-74.8746" font-family="Times,serif" font-size="9.00">Turn left/right</text>
</g>
<!-- wallRadar[1,0]&#45;&gt;Turn left/right -->
<g id="edge37" class="edge"><title>wallRadar[1,0]&#45;&gt;Turn left/right</title>
<path fill="none" stroke="green" stroke-width="0.231977" d="M2131.33,-202.201C2122.94,-197.796 2111.94,-192.743 2101.5,-190.149 1825.44,-121.58 1744.44,-191.822 1462.5,-154.149 1354,-139.651 1229.4,-110.214 1159.51,-92.5107"/>
<polygon fill="green" stroke="green" stroke-width="0.231977" points="1160.16,-89.064 1149.6,-89.987 1158.43,-95.8474 1160.16,-89.064"/>
</g>
<!-- wallRadar[0,1] -->
<g id="node2" class="node"><title>wallRadar[0,1]</title>
<polygon fill="lightgray" stroke="black" points="329.5,-220.362 259.5,-220.362 259.5,-202.362 329.5,-202.362 329.5,-220.362"/>
<text text-anchor="middle" x="294.5" y="-209.162" font-family="Times,serif" font-size="9.00">wallRadar[0,1]</text>
</g>
<!-- Shoot -->
<g id="node24" class="node"><title>Shoot</title>
<ellipse fill="lightblue" stroke="black" cx="834.5" cy="-77.0746" rx="26.7407" ry="26.7407"/>
<text text-anchor="middle" x="834.5" y="-74.8746" font-family="Times,serif" font-size="9.00">Shoot</text>
</g>
<!-- wallRadar[0,1]&#45;&gt;Shoot -->
<g id="edge28" class="edge"><title>wallRadar[0,1]&#45;&gt;Shoot</title>
<path fill="none" stroke="red" stroke-width="0.348568" d="M310.061,-202.249C318.338,-198.183 328.786,-193.438 338.5,-190.149 505.897,-133.478 714.794,-96.9054 797.923,-83.652"/>
<polygon fill="red" stroke="red" stroke-width="0.348568" points="798.554,-87.0959 807.886,-82.0797 797.463,-80.1815 798.554,-87.0959"/>
</g>
<!-- wallRadar[0,1]&#45;&gt;Turn left/right -->
<g id="edge43" class="edge"><title>wallRadar[0,1]&#45;&gt;Turn left/right</title>
<path fill="none" stroke="green" stroke-width="0.189333" d="M308.679,-202.245C317.072,-197.855 328.072,-192.802 338.5,-190.149 568.17,-131.725 637.822,-199.126 870.5,-154.149 934.325,-141.812 1004.96,-117.261 1051.75,-99.3759"/>
<polygon fill="green" stroke="green" stroke-width="0.189333" points="1053.29,-102.532 1061.36,-95.6674 1050.77,-96.0016 1053.29,-102.532"/>
</g>
<!-- wallRadar[&#45;1,0] -->
<g id="node3" class="node"><title>wallRadar[&#45;1,0]</title>
<polygon fill="lightgray" stroke="black" points="2213,-286.576 2140,-286.576 2140,-268.576 2213,-268.576 2213,-286.576"/>
<text text-anchor="middle" x="2176.5" y="-275.376" font-family="Times,serif" font-size="9.00">wallRadar[&#45;1,0]</text>
</g>
<!-- wallRadar[0,&#45;1] -->
<g id="node4" class="node"><title>wallRadar[0,&#45;1]</title>
<polygon fill="lightgray" stroke="black" points="1515,-220.362 1442,-220.362 1442,-202.362 1515,-202.362 1515,-220.362"/>
<text text-anchor="middle" x="1478.5" y="-209.162" font-family="Times,serif" font-size="9.00">wallRadar[0,&#45;1]</text>
</g>
<!-- wallRadar[0,&#45;1]&#45;&gt;Shoot -->
<g id="edge46" class="edge"><title>wallRadar[0,&#45;1]&#45;&gt;Shoot</title>
<path fill="none" stroke="red" stroke-width="0.257835" d="M1463.61,-202.358C1454.81,-198.006 1443.31,-192.952 1432.5,-190.149 1266.57,-147.118 1215.88,-191.142 1048.5,-154.149 982.915,-139.654 909.86,-110.766 868.314,-93.0574"/>
<polygon fill="red" stroke="red" stroke-width="0.257835" points="869.519,-89.7656 858.95,-89.0271 866.752,-96.1954 869.519,-89.7656"/>
</g>
<!-- wallRadar[0,&#45;1]&#45;&gt;Move Forward/Backward -->
<g id="edge36" class="edge"><title>wallRadar[0,&#45;1]&#45;&gt;Move Forward/Backward</title>
<path fill="none" stroke="green" stroke-width="0.528789" d="M1482.88,-202.087C1488.23,-191.983 1497.83,-173.832 1508.07,-154.481"/>
<polygon fill="green" stroke="green" stroke-width="0.528789" points="1511.22,-156.005 1512.81,-145.53 1505.04,-152.731 1511.22,-156.005"/>
</g>
<!-- wallRadar[0,&#45;1]&#45;&gt; Move Left/Right -->
<g id="edge20" class="edge"><title>wallRadar[0,&#45;1]&#45;&gt; Move Left/Right</title>
<path fill="none" stroke="red" stroke-width="0.714323" d="M1495.81,-202.278C1504.36,-198.407 1514.89,-193.825 1524.5,-190.149 1572.55,-171.78 1588.33,-176.823 1634.5,-154.149 1655.27,-143.951 1676.62,-130.35 1695.04,-117.469"/>
<polygon fill="red" stroke="red" stroke-width="0.714323" points="1697.16,-120.259 1703.29,-111.617 1693.11,-114.551 1697.16,-120.259"/>
</g>
<!-- wallRadar[0.7,0.7] -->
<g id="node5" class="node"><title>wallRadar[0.7,0.7]</title>
<polygon fill="lightgray" stroke="black" points="1788,-220.362 1705,-220.362 1705,-202.362 1788,-202.362 1788,-220.362"/>
<text text-anchor="middle" x="1746.5" y="-209.162" font-family="Times,serif" font-size="9.00">wallRadar[0.7,0.7]</text>
</g>
<!-- wallRadar[0.7,0.7]&#45;&gt;Move Forward/Backward -->
<g id="edge26" class="edge"><title>wallRadar[0.7,0.7]&#45;&gt;Move Forward/Backward</title>
<path fill="none" stroke="red" stroke-width="0.302506" d="M1734.41,-202.286C1712.14,-187.403 1663.03,-154.591 1620.87,-126.428"/>
<polygon fill="red" stroke="red" stroke-width="0.302506" points="1622.8,-123.509 1612.54,-120.864 1618.92,-129.33 1622.8,-123.509"/>
</g>
<!-- wallRadar[0.7,0.7]&#45;&gt; Move Left/Right -->
<g id="edge24" class="edge"><title>wallRadar[0.7,0.7]&#45;&gt; Move Left/Right</title>
<path fill="none" stroke="red" stroke-width="0.255449" d="M1746.5,-202.087C1746.5,-189.912 1746.5,-166.055 1746.5,-142.491"/>
<polygon fill="red" stroke="red" stroke-width="0.255449" points="1750,-142.445 1746.5,-132.445 1743,-142.445 1750,-142.445"/>
</g>
<!-- wallRadar[0.7,0.7]&#45;&gt;Turn left/right -->
<g id="edge29" class="edge"><title>wallRadar[0.7,0.7]&#45;&gt;Turn left/right</title>
<path fill="none" stroke="red" stroke-width="0.430449" d="M1728.9,-202.252C1719.22,-198.085 1706.9,-193.246 1695.5,-190.149 1594.38,-162.673 1565.57,-173.047 1462.5,-154.149 1354.83,-134.407 1229.95,-106.784 1159.78,-90.828"/>
<polygon fill="red" stroke="red" stroke-width="0.430449" points="1160.36,-87.3707 1149.83,-88.5608 1158.8,-94.1956 1160.36,-87.3707"/>
</g>
<!-- wallRadar[&#45;0.7,0.7] -->
<g id="node6" class="node"><title>wallRadar[&#45;0.7,0.7]</title>
<polygon fill="lightgray" stroke="black" points="2317.5,-286.576 2231.5,-286.576 2231.5,-268.576 2317.5,-268.576 2317.5,-286.576"/>
<text text-anchor="middle" x="2274.5" y="-275.376" font-family="Times,serif" font-size="9.00">wallRadar[&#45;0.7,0.7]</text>
</g>
<!-- wallRadar[&#45;0.7,&#45;0.7] -->
<g id="node7" class="node"><title>wallRadar[&#45;0.7,&#45;0.7]</title>
<polygon fill="lightgray" stroke="black" points="89,-220.362 7.10543e-15,-220.362 7.10543e-15,-202.362 89,-202.362 89,-220.362"/>
<text text-anchor="middle" x="44.5" y="-209.162" font-family="Times,serif" font-size="9.00">wallRadar[&#45;0.7,&#45;0.7]</text>
</g>
<!-- wallRadar[&#45;0.7,&#45;0.7]&#45;&gt;Shoot -->
<g id="edge31" class="edge"><title>wallRadar[&#45;0.7,&#45;0.7]&#45;&gt;Shoot</title>
<path fill="none" stroke="red" stroke-width="0.182417" d="M64.9833,-202.339C76.2123,-198.198 90.4622,-193.355 103.5,-190.149 365.335,-125.769 689.514,-91.5948 797.547,-81.3932"/>
<polygon fill="red" stroke="red" stroke-width="0.182417" points="797.979,-84.8682 807.61,-80.4536 797.328,-77.8985 797.979,-84.8682"/>
</g>
<!-- wallRadar[0.7,&#45;0.7] -->
<g id="node8" class="node"><title>wallRadar[0.7,&#45;0.7]</title>
<polygon fill="lightgray" stroke="black" points="2121.5,-286.576 2035.5,-286.576 2035.5,-268.576 2121.5,-268.576 2121.5,-286.576"/>
<text text-anchor="middle" x="2078.5" y="-275.376" font-family="Times,serif" font-size="9.00">wallRadar[0.7,&#45;0.7]</text>
</g>
<!-- wallRadar[0.7,&#45;0.7]&#45;&gt;Shoot -->
<g id="edge17" class="edge"><title>wallRadar[0.7,&#45;0.7]&#45;&gt;Shoot</title>
<path fill="none" stroke="green" stroke-width="0.132101" d="M2035.12,-276.424C1751.39,-275.335 170.831,-267.693 136.5,-232.576 123.319,-219.092 124.269,-204.501 136.5,-190.149 223.021,-88.6281 665.826,-78.7073 797.514,-78.0252"/>
<polygon fill="green" stroke="green" stroke-width="0.132101" points="797.528,-81.5253 807.515,-77.9885 797.503,-74.5254 797.528,-81.5253"/>
</g>
<!-- wallRadar[0.7,&#45;0.7]&#45;&gt;Move Forward/Backward -->
<g id="edge44" class="edge"><title>wallRadar[0.7,&#45;0.7]&#45;&gt;Move Forward/Backward</title>
<path fill="none" stroke="red" stroke-width="0.294048" d="M2047.41,-268.483C2024.05,-261.437 1991.99,-249.649 1967.5,-232.576 1946.74,-218.097 1951.8,-202.12 1929.5,-190.149 1831.75,-137.689 1787.43,-190.154 1682.5,-154.149 1661.65,-146.997 1640.35,-136.569 1621.04,-125.715"/>
<polygon fill="red" stroke="red" stroke-width="0.294048" points="1622.73,-122.651 1612.31,-120.709 1619.24,-128.722 1622.73,-122.651"/>
</g>
<!-- wallRadar[0.7,&#45;0.7]&#45;&gt; Move Left/Right -->
<g id="edge4" class="edge"><title>wallRadar[0.7,&#45;0.7]&#45;&gt; Move Left/Right</title>
<path fill="none" stroke="red" stroke-width="0.139578" stroke-dasharray="1,5" d="M2109.41,-268.52C2138.89,-260.138 2180.15,-246.337 2189.5,-232.576 2200.1,-216.978 2201.08,-205.028 2189.5,-190.149 2143.36,-130.887 1923.14,-97.9794 1811.58,-84.8599"/>
<polygon fill="red" stroke="red" stroke-width="0.139578" points="1811.8,-81.3614 1801.46,-83.6888 1810.99,-88.315 1811.8,-81.3614"/>
</g>
<!-- wallRadar[0.7,&#45;0.7]&#45;&gt;Turn left/right -->
<g id="edge21" class="edge"><title>wallRadar[0.7,&#45;0.7]&#45;&gt;Turn left/right</title>
<path fill="none" stroke="red" stroke-width="0.232379" d="M2035.44,-276.789C1814.17,-277.681 813.508,-279.121 768.5,-232.576 755.392,-219.02 757.476,-205.447 768.5,-190.149 770.643,-187.175 956.139,-126.41 1050.56,-95.6266"/>
<polygon fill="red" stroke="red" stroke-width="0.232379" points="1051.81,-98.9015 1060.23,-92.4749 1049.64,-92.246 1051.81,-98.9015"/>
</g>
<!-- 98 -->
<g id="node28" class="node"><title>98</title>
<ellipse fill="white" stroke="black" cx="2372.5" cy="-211.362" rx="18.2703" ry="18.2703"/>
<text text-anchor="middle" x="2372.5" y="-209.162" font-family="Times,serif" font-size="9.00">98</text>
</g>
<!-- wallRadar[0.7,&#45;0.7]&#45;&gt;98 -->
<g id="edge55" class="edge"><title>wallRadar[0.7,&#45;0.7]&#45;&gt;98</title>
<path fill="none" stroke="green" stroke-width="0.29778" d="M2121.69,-270.006C2194.62,-258.837 2335.29,-236.928 2345.5,-232.576 2347.32,-231.801 2349.13,-230.879 2350.89,-229.862"/>
<polygon fill="green" stroke="green" stroke-width="0.29778" points="2352.93,-232.711 2359.28,-224.231 2349.03,-226.9 2352.93,-232.711"/>
</g>
<!-- 134 -->
<g id="node29" class="node"><title>134</title>
<ellipse fill="white" stroke="black" cx="2430.5" cy="-211.362" rx="21.4286" ry="21.4286"/>
<text text-anchor="middle" x="2430.5" y="-209.162" font-family="Times,serif" font-size="9.00">134</text>
</g>
<!-- wallRadar[0.7,&#45;0.7]&#45;&gt;134 -->
<g id="edge57" class="edge"><title>wallRadar[0.7,&#45;0.7]&#45;&gt;134</title>
<path fill="none" stroke="green" stroke-width="0.375063" d="M2121.59,-270.012C2124.94,-269.519 2128.28,-269.036 2131.5,-268.576 2250.48,-251.606 2286.84,-274.425 2399.5,-232.576 2401.4,-231.871 2403.3,-231.034 2405.17,-230.107"/>
<polygon fill="green" stroke="green" stroke-width="0.375063" points="2407.25,-232.949 2414.17,-224.93 2403.76,-226.88 2407.25,-232.949"/>
</g>
<!-- enemyRadar[RightBack] -->
<g id="node9" class="node"><title>enemyRadar[RightBack]</title>
<polygon fill="lightgray" stroke="black" points="1686.5,-220.362 1582.5,-220.362 1582.5,-202.362 1686.5,-202.362 1686.5,-220.362"/>
<text text-anchor="middle" x="1634.5" y="-209.162" font-family="Times,serif" font-size="9.00">enemyRadar[RightBack]</text>
</g>
<!-- enemyRadar[RightBack]&#45;&gt;Shoot -->
<g id="edge19" class="edge"><title>enemyRadar[RightBack]&#45;&gt;Shoot</title>
<path fill="none" stroke="red" stroke-width="0.227874" d="M1614.51,-202.323C1602.76,-197.959 1587.51,-192.905 1573.5,-190.149 1344.02,-145.01 1277.48,-201.762 1048.5,-154.149 982.56,-140.438 909.345,-111.157 867.918,-93.1869"/>
<polygon fill="red" stroke="red" stroke-width="0.227874" points="869.151,-89.9061 858.587,-89.0969 866.341,-96.3172 869.151,-89.9061"/>
</g>
<!-- enemyRadar[RightBack]&#45;&gt;Move Forward/Backward -->
<g id="edge47" class="edge"><title>enemyRadar[RightBack]&#45;&gt;Move Forward/Backward</title>
<path fill="none" stroke="green" stroke-width="0.322682" stroke-dasharray="1,5" d="M1629.12,-202.087C1622.14,-191.349 1609.25,-171.524 1595.8,-150.827"/>
<polygon fill="green" stroke="green" stroke-width="0.322682" points="1598.6,-148.721 1590.22,-142.245 1592.73,-152.536 1598.6,-148.721"/>
</g>
<!-- enemyRadar[RightBack]&#45;&gt; Move Left/Right -->
<g id="edge34" class="edge"><title>enemyRadar[RightBack]&#45;&gt; Move Left/Right</title>
<path fill="none" stroke="red" stroke-width="0.133972" d="M1641.51,-202.087C1654.03,-187.3 1681.13,-155.283 1704.67,-127.486"/>
<polygon fill="red" stroke="red" stroke-width="0.133972" points="1707.4,-129.669 1711.19,-119.775 1702.06,-125.146 1707.4,-129.669"/>
</g>
<!-- enemyRadar[LeftBack] -->
<g id="node10" class="node"><title>enemyRadar[LeftBack]</title>
<polygon fill="lightgray" stroke="black" points="2336,-220.362 2237,-220.362 2237,-202.362 2336,-202.362 2336,-220.362"/>
<text text-anchor="middle" x="2286.5" y="-209.162" font-family="Times,serif" font-size="9.00">enemyRadar[LeftBack]</text>
</g>
<!-- enemyRadar[LeftBack]&#45;&gt; Move Left/Right -->
<g id="edge53" class="edge"><title>enemyRadar[LeftBack]&#45;&gt; Move Left/Right</title>
<path fill="none" stroke="green" stroke-width="0.285528" d="M2262.62,-202.353C2250.64,-198.455 2235.87,-193.829 2222.5,-190.149 2076.15,-149.868 1902.03,-111.184 1810.33,-91.515"/>
<polygon fill="green" stroke="green" stroke-width="0.285528" points="1810.88,-88.0538 1800.37,-89.3841 1809.42,-94.8989 1810.88,-88.0538"/>
</g>
<!-- enemyRadar[Right45ø] -->
<g id="node11" class="node"><title>enemyRadar[Right45ø]</title>
<polygon fill="lightgray" stroke="black" points="1283.5,-220.362 1183.5,-220.362 1183.5,-202.362 1283.5,-202.362 1283.5,-220.362"/>
<text text-anchor="middle" x="1233.5" y="-209.162" font-family="Times,serif" font-size="9.00">enemyRadar[Right45ø]</text>
</g>
<!-- enemyRadar[Right45ø]&#45;&gt;Shoot -->
<g id="edge11" class="edge"><title>enemyRadar[Right45ø]&#45;&gt;Shoot</title>
<path fill="none" stroke="red" stroke-width="0.549965" d="M1210.9,-202.312C1199.95,-198.492 1186.59,-193.944 1174.5,-190.149 1118.93,-172.705 1103.97,-171.912 1048.5,-154.149 984.533,-133.664 910.942,-106.758 868.858,-91.0455"/>
<polygon fill="red" stroke="red" stroke-width="0.549965" points="869.957,-87.7199 859.365,-87.4916 867.503,-94.2756 869.957,-87.7199"/>
</g>
<!-- enemyRadar[Right45ø]&#45;&gt;Move Forward/Backward -->
<g id="edge15" class="edge"><title>enemyRadar[Right45ø]&#45;&gt;Move Forward/Backward</title>
<path fill="none" stroke="red" stroke-width="0.369773" d="M1252.73,-202.286C1294.53,-184.731 1395.73,-142.231 1468.1,-111.838"/>
<polygon fill="red" stroke="red" stroke-width="0.369773" points="1469.8,-114.92 1477.67,-107.821 1467.09,-108.466 1469.8,-114.92"/>
</g>
<!-- enemyRadar[Right45ø]&#45;&gt; Move Left/Right -->
<g id="edge49" class="edge"><title>enemyRadar[Right45ø]&#45;&gt; Move Left/Right</title>
<path fill="none" stroke="green" stroke-width="0.519082" d="M1253.39,-202.296C1264.68,-198.035 1279.18,-193.093 1292.5,-190.149 1441.74,-157.172 1490.97,-206.668 1634.5,-154.149 1656.42,-146.129 1678.18,-132.886 1696.62,-119.678"/>
<polygon fill="green" stroke="green" stroke-width="0.519082" points="1698.86,-122.375 1704.84,-113.631 1694.71,-116.736 1698.86,-122.375"/>
</g>
<!-- enemyRadar[Right45ø]&#45;&gt;Turn left/right -->
<g id="edge3" class="edge"><title>enemyRadar[Right45ø]&#45;&gt;Turn left/right</title>
<path fill="none" stroke="red" stroke-width="0.165729" d="M1225.43,-202.087C1209.41,-185.661 1172.66,-147.976 1143.85,-118.43"/>
<polygon fill="red" stroke="red" stroke-width="0.165729" points="1146.2,-115.827 1136.72,-111.111 1141.19,-120.714 1146.2,-115.827"/>
</g>
<!-- enemyRadar[Left45ø] -->
<g id="node12" class="node"><title>enemyRadar[Left45ø]</title>
<polygon fill="lightgray" stroke="black" points="241,-220.362 146,-220.362 146,-202.362 241,-202.362 241,-220.362"/>
<text text-anchor="middle" x="193.5" y="-209.162" font-family="Times,serif" font-size="9.00">enemyRadar[Left45ø]</text>
</g>
<!-- enemyRadar[Left45ø]&#45;&gt;Shoot -->
<g id="edge18" class="edge"><title>enemyRadar[Left45ø]&#45;&gt;Shoot</title>
<path fill="none" stroke="red" stroke-width="0.298185" d="M213.842,-202.305C224.613,-198.255 238.138,-193.507 250.5,-190.149 454.357,-134.784 705.421,-96.325 797.997,-83.1164"/>
<polygon fill="red" stroke="red" stroke-width="0.298185" points="798.573,-86.57 807.983,-81.7022 797.591,-79.6391 798.573,-86.57"/>
</g>
<!-- enemyRadar[RightFront20ø] -->
<g id="node13" class="node"><title>enemyRadar[RightFront20ø]</title>
<polygon fill="lightgray" stroke="black" points="721,-220.362 602,-220.362 602,-202.362 721,-202.362 721,-220.362"/>
<text text-anchor="middle" x="661.5" y="-209.162" font-family="Times,serif" font-size="9.00">enemyRadar[RightFront20ø]</text>
</g>
<!-- enemyRadar[RightFront20ø]&#45;&gt;Shoot -->
<g id="edge22" class="edge"><title>enemyRadar[RightFront20ø]&#45;&gt;Shoot</title>
<path fill="none" stroke="green" stroke-width="0.386336" d="M672.062,-202.286C698.047,-182.416 765.823,-130.59 805.13,-100.533"/>
<polygon fill="green" stroke="green" stroke-width="0.386336" points="807.711,-102.965 813.529,-94.1104 803.459,-97.4044 807.711,-102.965"/>
</g>
<!-- enemyRadar[RightFront20ø]&#45;&gt;Move Forward/Backward -->
<g id="edge40" class="edge"><title>enemyRadar[RightFront20ø]&#45;&gt;Move Forward/Backward</title>
<path fill="none" stroke="red" stroke-width="0.35941" d="M699.486,-202.275C719.871,-198.167 745.472,-193.374 768.5,-190.149 941.764,-165.884 987.32,-179.013 1160.5,-154.149 1265.57,-139.064 1385.28,-114.446 1463.6,-97.3152"/>
<polygon fill="red" stroke="red" stroke-width="0.35941" points="1464.4,-100.723 1473.42,-95.1596 1462.9,-93.8856 1464.4,-100.723"/>
</g>
<!-- enemyRadar[RightFront20ø]&#45;&gt;Turn left/right -->
<g id="edge27" class="edge"><title>enemyRadar[RightFront20ø]&#45;&gt;Turn left/right</title>
<path fill="none" stroke="green" stroke-width="0.422331" d="M690.661,-202.354C704.279,-198.625 720.714,-194.14 735.5,-190.149 795.451,-173.968 810.951,-171.755 870.5,-154.149 932.648,-135.775 1003.31,-112.462 1050.58,-96.5162"/>
<polygon fill="green" stroke="green" stroke-width="0.422331" points="1051.95,-99.7487 1060.3,-93.2298 1049.7,-93.1176 1051.95,-99.7487"/>
</g>
<!-- enemyRadar[LeftFront20ø] -->
<g id="node14" class="node"><title>enemyRadar[LeftFront20ø]</title>
<polygon fill="lightgray" stroke="black" points="891.5,-220.362 777.5,-220.362 777.5,-202.362 891.5,-202.362 891.5,-220.362"/>
<text text-anchor="middle" x="834.5" y="-209.162" font-family="Times,serif" font-size="9.00">enemyRadar[LeftFront20ø]</text>
</g>
<!-- enemyRadar[LeftFront20ø]&#45;&gt;Shoot -->
<g id="edge52" class="edge"><title>enemyRadar[LeftFront20ø]&#45;&gt;Shoot</title>
<path fill="none" stroke="red" stroke-width="0.1727" d="M834.5,-202.087C834.5,-184.884 834.5,-144.359 834.5,-114.29"/>
<polygon fill="red" stroke="red" stroke-width="0.1727" points="838,-114.146 834.5,-104.146 831,-114.146 838,-114.146"/>
</g>
<!-- enemyRadar[LeftFront20ø]&#45;&gt;Move Forward/Backward -->
<g id="edge9" class="edge"><title>enemyRadar[LeftFront20ø]&#45;&gt;Move Forward/Backward</title>
<path fill="none" stroke="red" stroke-width="0.171899" d="M857.473,-202.339C870.052,-198.197 885.99,-193.354 900.5,-190.149 1014.41,-164.988 1045.44,-173.38 1160.5,-154.149 1265.2,-136.651 1384.98,-112.535 1463.42,-96.1804"/>
<polygon fill="red" stroke="red" stroke-width="0.171899" points="1464.18,-99.5971 1473.26,-94.1257 1462.75,-92.745 1464.18,-99.5971"/>
</g>
<!-- enemyRadar[LeftFront20ø]&#45;&gt;Turn left/right -->
<g id="edge42" class="edge"><title>enemyRadar[LeftFront20ø]&#45;&gt;Turn left/right</title>
<path fill="none" stroke="green" stroke-width="0.246791" d="M850.983,-202.286C890.461,-182.944 991.741,-133.321 1053.68,-102.974"/>
<polygon fill="green" stroke="green" stroke-width="0.246791" points="1055.45,-106.002 1062.89,-98.4595 1052.37,-99.7164 1055.45,-106.002"/>
</g>
<!-- enemyRadar[RightFront15ø] -->
<g id="node15" class="node"><title>enemyRadar[RightFront15ø]</title>
<polygon fill="lightgray" stroke="black" points="467,-220.362 348,-220.362 348,-202.362 467,-202.362 467,-220.362"/>
<text text-anchor="middle" x="407.5" y="-209.162" font-family="Times,serif" font-size="9.00">enemyRadar[RightFront15ø]</text>
</g>
<!-- enemyRadar[RightFront15ø]&#45;&gt;Shoot -->
<g id="edge5" class="edge"><title>enemyRadar[RightFront15ø]&#45;&gt;Shoot</title>
<path fill="none" stroke="green" stroke-width="0.248166" d="M433.568,-202.286C507.007,-179.534 715.685,-114.885 799.257,-88.9931"/>
<polygon fill="green" stroke="green" stroke-width="0.248166" points="800.526,-92.2641 809.043,-85.9615 798.455,-85.5777 800.526,-92.2641"/>
</g>
<!-- enemyRadar[RightFront15ø]&#45;&gt;Turn left/right -->
<g id="edge38" class="edge"><title>enemyRadar[RightFront15ø]&#45;&gt;Turn left/right</title>
<path fill="none" stroke="green" stroke-width="0.273633" d="M430.855,-202.294C444.093,-198.032 461.049,-193.089 476.5,-190.149 649.241,-157.278 698.26,-189.552 870.5,-154.149 934.175,-141.061 1004.83,-116.652 1051.67,-99.0055"/>
<polygon fill="green" stroke="green" stroke-width="0.273633" points="1053.19,-102.173 1061.3,-95.3491 1050.7,-95.6294 1053.19,-102.173"/>
</g>
<!-- enemyRadar[LeftFront15ø] -->
<g id="node16" class="node"><title>enemyRadar[LeftFront15ø]</title>
<polygon fill="lightgray" stroke="black" points="1920.5,-220.362 1806.5,-220.362 1806.5,-202.362 1920.5,-202.362 1920.5,-220.362"/>
<text text-anchor="middle" x="1863.5" y="-209.162" font-family="Times,serif" font-size="9.00">enemyRadar[LeftFront15ø]</text>
</g>
<!-- enemyRadar[LeftFront15ø]&#45;&gt;Move Forward/Backward -->
<g id="edge45" class="edge"><title>enemyRadar[LeftFront15ø]&#45;&gt;Move Forward/Backward</title>
<path fill="none" stroke="green" stroke-width="0.232047" d="M1837.44,-202.347C1788.22,-187.199 1686.16,-155.735 1682.5,-154.149 1662.38,-145.436 1641.41,-134.506 1622.2,-123.671"/>
<polygon fill="green" stroke="green" stroke-width="0.232047" points="1623.93,-120.625 1613.51,-118.707 1620.45,-126.704 1623.93,-120.625"/>
</g>
<!-- enemyRadar[LeftFront15ø]&#45;&gt; Move Left/Right -->
<g id="edge8" class="edge"><title>enemyRadar[LeftFront15ø]&#45;&gt; Move Left/Right</title>
<path fill="none" stroke="green" stroke-width="0.6798" d="M1856.18,-202.087C1842.97,-187.145 1814.19,-154.609 1789.43,-126.612"/>
<polygon fill="green" stroke="green" stroke-width="0.6798" points="1791.81,-124.027 1782.57,-118.855 1786.57,-128.664 1791.81,-124.027"/>
</g>
<!-- enemyRadar[LeftFront15ø]&#45;&gt;Turn left/right -->
<g id="edge32" class="edge"><title>enemyRadar[LeftFront15ø]&#45;&gt;Turn left/right</title>
<path fill="none" stroke="red" stroke-width="0.314794" d="M1840.87,-202.263C1828.25,-198.046 1812.17,-193.156 1797.5,-190.149 1650.8,-160.088 1610.38,-177.743 1462.5,-154.149 1354.4,-136.902 1229.67,-108.416 1159.64,-91.6284"/>
<polygon fill="red" stroke="red" stroke-width="0.314794" points="1160.26,-88.1766 1149.71,-89.2392 1158.62,-94.9823 1160.26,-88.1766"/>
</g>
<!-- enemyRadar[RightFront7.5ø] -->
<g id="node17" class="node"><title>enemyRadar[RightFront7.5ø]</title>
<polygon fill="lightgray" stroke="black" points="1423.5,-220.362 1301.5,-220.362 1301.5,-202.362 1423.5,-202.362 1423.5,-220.362"/>
<text text-anchor="middle" x="1362.5" y="-209.162" font-family="Times,serif" font-size="9.00">enemyRadar[RightFront7.5ø]</text>
</g>
<!-- enemyRadar[RightFront7.5ø]&#45;&gt;Shoot -->
<g id="edge41" class="edge"><title>enemyRadar[RightFront7.5ø]&#45;&gt;Shoot</title>
<path fill="none" stroke="green" stroke-width="0.145901" d="M1337.76,-202.337C1324.46,-198.246 1307.7,-193.45 1292.5,-190.149 1185.38,-166.891 1154.87,-180.634 1048.5,-154.149 983.322,-137.921 910.132,-109.607 868.451,-92.4754"/>
<polygon fill="green" stroke="green" stroke-width="0.145901" points="869.633,-89.1765 859.054,-88.5829 866.954,-95.6436 869.633,-89.1765"/>
</g>
<!-- enemyRadar[RightFront7.5ø]&#45;&gt;Move Forward/Backward -->
<g id="edge33" class="edge"><title>enemyRadar[RightFront7.5ø]&#45;&gt;Move Forward/Backward</title>
<path fill="none" stroke="green" stroke-width="0.879528" d="M1373.86,-202.286C1394.33,-187.727 1438.92,-156.011 1477.92,-128.273"/>
<polygon fill="green" stroke="green" stroke-width="0.879528" points="1480.03,-131.07 1486.15,-122.422 1475.97,-125.366 1480.03,-131.07"/>
</g>
<!-- enemyRadar[RightFront7.5ø]&#45;&gt; Move Left/Right -->
<g id="edge39" class="edge"><title>enemyRadar[RightFront7.5ø]&#45;&gt; Move Left/Right</title>
<path fill="none" stroke="green" stroke-width="0.511094" stroke-dasharray="1,5" d="M1388.3,-202.343C1401.7,-198.351 1418.39,-193.644 1433.5,-190.149 1521.92,-169.699 1550.45,-188.396 1634.5,-154.149 1656.02,-145.38 1677.62,-132.039 1696.03,-118.965"/>
<polygon fill="green" stroke="green" stroke-width="0.511094" points="1698.22,-121.702 1704.25,-112.994 1694.11,-116.038 1698.22,-121.702"/>
</g>
<!-- enemyRadar[RightFront7.5ø]&#45;&gt;Turn left/right -->
<g id="edge2" class="edge"><title>enemyRadar[RightFront7.5ø]&#45;&gt;Turn left/right</title>
<path fill="none" stroke="green" stroke-width="0.272898" d="M1346.75,-202.286C1309.47,-183.17 1214.5,-134.477 1155.15,-104.046"/>
<polygon fill="green" stroke="green" stroke-width="0.272898" points="1156.44,-100.774 1145.95,-99.3261 1153.25,-107.003 1156.44,-100.774"/>
</g>
<!-- enemyRadar[LeftFront7.5ø] -->
<g id="node18" class="node"><title>enemyRadar[LeftFront7.5ø]</title>
<polygon fill="lightgray" stroke="black" points="1025.5,-220.362 909.5,-220.362 909.5,-202.362 1025.5,-202.362 1025.5,-220.362"/>
<text text-anchor="middle" x="967.5" y="-209.162" font-family="Times,serif" font-size="9.00">enemyRadar[LeftFront7.5ø]</text>
</g>
<!-- enemyRadar[LeftFront7.5ø]&#45;&gt;Shoot -->
<g id="edge48" class="edge"><title>enemyRadar[LeftFront7.5ø]&#45;&gt;Shoot</title>
<path fill="none" stroke="green" stroke-width="0.117862" d="M959.18,-202.087C939.783,-182.793 890.895,-134.167 860.418,-103.854"/>
<polygon fill="green" stroke="green" stroke-width="0.117862" points="862.654,-101.142 853.096,-96.571 857.718,-106.105 862.654,-101.142"/>
</g>
<!-- enemyRadar[LeftFront7.5ø]&#45;&gt; Move Left/Right -->
<g id="edge13" class="edge"><title>enemyRadar[LeftFront7.5ø]&#45;&gt; Move Left/Right</title>
<path fill="none" stroke="red" stroke-width="0.161672" d="M989.517,-202.303C1002.44,-197.933 1019.19,-192.879 1034.5,-190.149 1166,-166.7 1508.06,-197.217 1634.5,-154.149 1656.69,-146.591 1678.59,-133.377 1697.05,-120.06"/>
<polygon fill="red" stroke="red" stroke-width="0.161672" points="1699.34,-122.723 1705.29,-113.955 1695.17,-117.101 1699.34,-122.723"/>
</g>
<!-- enemyRadar[RightFront2.5ø] -->
<g id="node19" class="node"><title>enemyRadar[RightFront2.5ø]</title>
<polygon fill="lightgray" stroke="black" points="1165.5,-220.362 1043.5,-220.362 1043.5,-202.362 1165.5,-202.362 1165.5,-220.362"/>
<text text-anchor="middle" x="1104.5" y="-209.162" font-family="Times,serif" font-size="9.00">enemyRadar[RightFront2.5ø]</text>
</g>
<!-- enemyRadar[RightFront2.5ø]&#45;&gt;Shoot -->
<g id="edge1" class="edge"><title>enemyRadar[RightFront2.5ø]&#45;&gt;Shoot</title>
<path fill="none" stroke="red" stroke-width="0.188813" d="M1088.02,-202.286C1044.53,-180.978 926.027,-122.919 867.755,-94.3681"/>
<polygon fill="red" stroke="red" stroke-width="0.188813" points="869.126,-91.1425 858.606,-89.8856 866.046,-97.4286 869.126,-91.1425"/>
</g>
<!-- enemyRadar[RightFront2.5ø]&#45;&gt; Move Left/Right -->
<g id="edge35" class="edge"><title>enemyRadar[RightFront2.5ø]&#45;&gt; Move Left/Right</title>
<path fill="none" stroke="red" stroke-width="0.444532" d="M1127.87,-202.324C1141.34,-198.016 1158.69,-193.019 1174.5,-190.149 1376.27,-153.515 1440.99,-222.03 1634.5,-154.149 1656.62,-146.39 1678.5,-133.131 1696.98,-119.835"/>
<polygon fill="red" stroke="red" stroke-width="0.444532" points="1699.25,-122.504 1705.21,-113.744 1695.09,-116.876 1699.25,-122.504"/>
</g>
<!-- enemyRadar[RightFront2.5ø]&#45;&gt;Turn left/right -->
<g id="edge50" class="edge"><title>enemyRadar[RightFront2.5ø]&#45;&gt;Turn left/right</title>
<path fill="none" stroke="red" stroke-width="0.330289" d="M1104.5,-202.087C1104.5,-188.455 1104.5,-160.178 1104.5,-134.065"/>
<polygon fill="red" stroke="red" stroke-width="0.330289" points="1108,-133.819 1104.5,-123.819 1101,-133.819 1108,-133.819"/>
</g>
<!-- enemyRadar[LeftFront2.5ø] -->
<g id="node20" class="node"><title>enemyRadar[LeftFront2.5ø]</title>
<polygon fill="lightgray" stroke="black" points="2092.5,-220.362 1976.5,-220.362 1976.5,-202.362 2092.5,-202.362 2092.5,-220.362"/>
<text text-anchor="middle" x="2034.5" y="-209.162" font-family="Times,serif" font-size="9.00">enemyRadar[LeftFront2.5ø]</text>
</g>
<!-- enemyRadar[LeftFront2.5ø]&#45;&gt;Move Forward/Backward -->
<g id="edge7" class="edge"><title>enemyRadar[LeftFront2.5ø]&#45;&gt;Move Forward/Backward</title>
<path fill="none" stroke="green" stroke-width="0.144913" d="M2009.4,-202.343C1995.66,-198.203 1978.28,-193.36 1962.5,-190.149 1839.55,-165.126 1801.52,-193.869 1682.5,-154.149 1661.59,-147.173 1640.27,-136.808 1620.95,-125.958"/>
<polygon fill="green" stroke="green" stroke-width="0.144913" points="1622.65,-122.894 1612.23,-120.95 1619.16,-128.964 1622.65,-122.894"/>
</g>
<!-- enemyRadar[LeftFront2.5ø]&#45;&gt; Move Left/Right -->
<g id="edge10" class="edge"><title>enemyRadar[LeftFront2.5ø]&#45;&gt; Move Left/Right</title>
<path fill="none" stroke="green" stroke-width="0.368197" d="M2016.92,-202.286C1975.8,-183.401 1871.84,-135.646 1805.45,-105.153"/>
<polygon fill="green" stroke="green" stroke-width="0.368197" points="1806.89,-101.964 1796.35,-100.97 1803.97,-108.325 1806.89,-101.964"/>
</g>
<!-- enemyRadar[LeftFront2.5ø]&#45;&gt;Turn left/right -->
<g id="edge30" class="edge"><title>enemyRadar[LeftFront2.5ø]&#45;&gt;Turn left/right</title>
<path fill="none" stroke="green" stroke-width="0.171014" d="M1998.22,-202.328C1978.07,-198.131 1952.5,-193.239 1929.5,-190.149 1723.18,-162.429 1668.54,-183.849 1462.5,-154.149 1354.15,-138.532 1229.5,-109.482 1159.56,-92.1513"/>
<polygon fill="green" stroke="green" stroke-width="0.171014" points="1160.2,-88.7027 1149.65,-89.6824 1158.5,-95.4953 1160.2,-88.7027"/>
</g>
<!-- enemyRadar[Front7Ø] -->
<g id="node21" class="node"><title>enemyRadar[Front7Ø]</title>
<polygon fill="lightgray" stroke="black" points="583.5,-220.362 485.5,-220.362 485.5,-202.362 583.5,-202.362 583.5,-220.362"/>
<text text-anchor="middle" x="534.5" y="-209.162" font-family="Times,serif" font-size="9.00">enemyRadar[Front7Ø]</text>
</g>
<!-- enemyRadar[Front7Ø]&#45;&gt;Shoot -->
<g id="edge16" class="edge"><title>enemyRadar[Front7Ø]&#45;&gt;Shoot</title>
<path fill="none" stroke="green" stroke-width="0.272358" d="M552.815,-202.286C601.942,-180.623 737.21,-120.976 800.727,-92.9673"/>
<polygon fill="green" stroke="green" stroke-width="0.272358" points="802.182,-96.1507 809.92,-88.9135 799.358,-89.7458 802.182,-96.1507"/>
</g>
<!-- enemyRadar[Front7Ø]&#45;&gt;Move Forward/Backward -->
<g id="edge14" class="edge"><title>enemyRadar[Front7Ø]&#45;&gt;Move Forward/Backward</title>
<path fill="none" stroke="green" stroke-width="0.202801" stroke-dasharray="1,5" d="M553.806,-202.288C565.158,-197.912 579.908,-192.858 593.5,-190.149 841.137,-140.792 910.075,-186.51 1160.5,-154.149 1265.77,-140.546 1385.44,-115.619 1463.7,-98.012"/>
<polygon fill="green" stroke="green" stroke-width="0.202801" points="1464.52,-101.413 1473.5,-95.7945 1462.98,-94.5856 1464.52,-101.413"/>
</g>
<!-- enemyRadar[Front7Ø]&#45;&gt;Turn left/right -->
<g id="edge51" class="edge"><title>enemyRadar[Front7Ø]&#45;&gt;Turn left/right</title>
<path fill="none" stroke="green" stroke-width="0.120324" d="M554.684,-202.321C565.945,-198.122 580.321,-193.23 593.5,-190.149 714.387,-161.889 749.394,-181.458 870.5,-154.149 933.914,-139.85 1004.62,-115.669 1051.54,-98.4078"/>
<polygon fill="green" stroke="green" stroke-width="0.120324" points="1053.02,-101.592 1061.19,-94.8354 1050.59,-95.0282 1053.02,-101.592"/>
</g>
<!-- OnTarget -->
<g id="node22" class="node"><title>OnTarget</title>
<polygon fill="lightgray" stroke="black" points="2385.5,-286.576 2335.5,-286.576 2335.5,-268.576 2385.5,-268.576 2385.5,-286.576"/>
<text text-anchor="middle" x="2360.5" y="-275.376" font-family="Times,serif" font-size="9.00">OnTarget</text>
</g>
<!-- bias -->
<g id="node23" class="node"><title>bias</title>
<polygon fill="lightgray" stroke="black" points="1564,-220.362 1533,-220.362 1533,-202.362 1564,-202.362 1564,-220.362"/>
<text text-anchor="middle" x="1548.5" y="-209.162" font-family="Times,serif" font-size="9.00">bias</text>
</g>
<!-- bias&#45;&gt;Shoot -->
<g id="edge23" class="edge"><title>bias&#45;&gt;Shoot</title>
<path fill="none" stroke="red" stroke-width="0.142318" d="M1541.34,-202.233C1536.96,-197.839 1530.96,-192.786 1524.5,-190.149 1328.09,-109.936 1256.06,-198.069 1048.5,-154.149 982.609,-140.207 909.378,-111.003 867.934,-93.11"/>
<polygon fill="red" stroke="red" stroke-width="0.142318" points="869.165,-89.8285 858.599,-89.0384 866.366,-96.2447 869.165,-89.8285"/>
</g>
<!-- bias&#45;&gt;Move Forward/Backward -->
<g id="edge12" class="edge"><title>bias&#45;&gt;Move Forward/Backward</title>
<path fill="none" stroke="green" stroke-width="0.294398" d="M1548.5,-202.087C1548.5,-193.782 1548.5,-180.04 1548.5,-164.664"/>
<polygon fill="green" stroke="green" stroke-width="0.294398" points="1552,-164.364 1548.5,-154.364 1545,-164.364 1552,-164.364"/>
</g>
<!-- bias&#45;&gt; Move Left/Right -->
<g id="edge54" class="edge"><title>bias&#45;&gt; Move Left/Right</title>
<path fill="none" stroke="green" stroke-width="0.192886" d="M1557.98,-202.15C1562.55,-198.336 1568.18,-193.84 1573.5,-190.149 1599.37,-172.205 1607.91,-171.002 1634.5,-154.149 1653.96,-141.818 1674.93,-127.781 1693.4,-115.15"/>
<polygon fill="green" stroke="green" stroke-width="0.192886" points="1695.44,-118 1701.7,-109.457 1691.48,-112.228 1695.44,-118"/>
</g>
<!-- 98&#45;&gt; Move Left/Right -->
<g id="edge56" class="edge"><title>98&#45;&gt; Move Left/Right</title>
<path fill="none" stroke="red" stroke-width="0.229583" d="M2359.25,-198.56C2355.09,-195.396 2350.33,-192.268 2345.5,-190.149 2163.26,-110.12 1925.39,-87.1889 1812.06,-80.655"/>
<polygon fill="red" stroke="red" stroke-width="0.229583" points="1811.99,-77.1461 1801.82,-80.0897 1811.61,-84.1354 1811.99,-77.1461"/>
</g>
<!-- 134&#45;&gt; Move Left/Right -->
<g id="edge58" class="edge"><title>134&#45;&gt; Move Left/Right</title>
<path fill="none" stroke="green" stroke-width="0.119867" d="M2413.8,-197.709C2409.35,-194.839 2404.4,-192.074 2399.5,-190.149 2195.05,-109.934 1932.32,-87.0295 1811.98,-80.5686"/>
<polygon fill="green" stroke="green" stroke-width="0.119867" points="1812,-77.0647 1801.83,-80.0445 1811.63,-84.0553 1812,-77.0647"/>
</g>
</g>
</svg>
