<?xml version="1.0" encoding="UTF-8" standalone="no"?>
<!DOCTYPE svg PUBLIC "-//W3C//DTD SVG 1.1//EN"
 "http://www.w3.org/Graphics/SVG/1.1/DTD/svg11.dtd">
<!-- Generated by graphviz version 2.38.0 (20140413.2041)
 -->
<!-- Title: %3 Pages: 1 -->
<svg width="2530pt" height="295pt"
 viewBox="0.00 0.00 2530.46 294.58" xmlns="http://www.w3.org/2000/svg" xmlns:xlink="http://www.w3.org/1999/xlink">
<g id="graph0" class="graph" transform="scale(1 1) rotate(0) translate(4 290.576)">
<title>%3</title>
<polygon fill="white" stroke="none" points="-4,4 -4,-290.576 2526.46,-290.576 2526.46,4 -4,4"/>
<!-- wallRadar[1,0] -->
<g id="node1" class="node"><title>wallRadar[1,0]</title>
<polygon fill="lightgray" stroke="black" points="1530,-286.576 1460,-286.576 1460,-268.576 1530,-268.576 1530,-286.576"/>
<text text-anchor="middle" x="1495" y="-275.376" font-family="Times,serif" font-size="9.00">wallRadar[1,0]</text>
</g>
<!-- Shoot -->
<g id="node24" class="node"><title>Shoot</title>
<ellipse fill="lightblue" stroke="black" cx="621" cy="-77.0746" rx="26.7407" ry="26.7407"/>
<text text-anchor="middle" x="621" y="-74.8746" font-family="Times,serif" font-size="9.00">Shoot</text>
</g>
<!-- wallRadar[1,0]&#45;&gt;Shoot -->
<g id="edge36" class="edge"><title>wallRadar[1,0]&#45;&gt;Shoot</title>
<path fill="none" stroke="green" stroke-width="0.684642" stroke-dasharray="1,5" d="M1459.8,-275.613C1263,-270.192 307.365,-243.328 297,-232.576 206.357,-138.542 481.289,-94.9229 583.968,-82.1964"/>
<polygon fill="green" stroke="green" stroke-width="0.684642" points="584.69,-85.6347 594.198,-80.9605 583.85,-78.6853 584.69,-85.6347"/>
</g>
<!--  Move Left/Right -->
<g id="node26" class="node"><title> Move Left/Right</title>
<ellipse fill="lightblue" stroke="black" cx="1622" cy="-77.0746" rx="55.3091" ry="55.3091"/>
<text text-anchor="middle" x="1622" y="-74.8746" font-family="Times,serif" font-size="9.00"> Move Left/Right</text>
</g>
<!-- wallRadar[1,0]&#45;&gt; Move Left/Right -->
<g id="edge11" class="edge"><title>wallRadar[1,0]&#45;&gt; Move Left/Right</title>
<path fill="none" stroke="red" stroke-width="0.483794" d="M1530.36,-270.227C1533.62,-269.661 1536.87,-269.103 1540,-268.576 1590.15,-260.125 1732.99,-271.261 1766,-232.576 1804.78,-187.131 1735.87,-136.95 1680.64,-106.469"/>
<polygon fill="red" stroke="red" stroke-width="0.483794" points="1682.02,-103.24 1671.56,-101.566 1678.69,-109.398 1682.02,-103.24"/>
</g>
<!-- Turn left/right -->
<g id="node27" class="node"><title>Turn left/right</title>
<ellipse fill="lightblue" stroke="black" cx="1959" cy="-77.0746" rx="46.8387" ry="46.8387"/>
<text text-anchor="middle" x="1959" y="-74.8746" font-family="Times,serif" font-size="9.00">Turn left/right</text>
</g>
<!-- wallRadar[1,0]&#45;&gt;Turn left/right -->
<g id="edge49" class="edge"><title>wallRadar[1,0]&#45;&gt;Turn left/right</title>
<path fill="none" stroke="green" stroke-width="0.146061" d="M1530.31,-269.821C1533.58,-269.34 1536.84,-268.913 1540,-268.576 1593.79,-262.828 2475.46,-271.526 2513,-232.576 2526.08,-218.998 2524.94,-204.745 2513,-190.149 2450.54,-113.793 2144.48,-88.244 2015.97,-80.7946"/>
<polygon fill="green" stroke="green" stroke-width="0.146061" points="2016.11,-77.297 2005.93,-80.2285 2015.72,-84.2859 2016.11,-77.297"/>
</g>
<!-- 333 -->
<g id="node29" class="node"><title>333</title>
<ellipse fill="white" stroke="black" cx="1089" cy="-211.362" rx="21.4286" ry="21.4286"/>
<text text-anchor="middle" x="1089" y="-209.162" font-family="Times,serif" font-size="9.00">333</text>
</g>
<!-- wallRadar[1,0]&#45;&gt;333 -->
<g id="edge53" class="edge"><title>wallRadar[1,0]&#45;&gt;333</title>
<path fill="none" stroke="green" stroke-width="0.281815" d="M1459.88,-274.587C1378.88,-269.662 1181.17,-255.602 1119,-232.576 1117.38,-231.976 1115.76,-231.272 1114.16,-230.492"/>
<polygon fill="green" stroke="green" stroke-width="0.281815" points="1115.77,-227.379 1105.36,-225.413 1112.27,-233.442 1115.77,-227.379"/>
</g>
<!-- wallRadar[0,1] -->
<g id="node2" class="node"><title>wallRadar[0,1]</title>
<polygon fill="lightgray" stroke="black" points="2337,-220.362 2267,-220.362 2267,-202.362 2337,-202.362 2337,-220.362"/>
<text text-anchor="middle" x="2302" y="-209.162" font-family="Times,serif" font-size="9.00">wallRadar[0,1]</text>
</g>
<!-- Move Forward/Backward -->
<g id="node25" class="node"><title>Move Forward/Backward</title>
<ellipse fill="lightblue" stroke="black" cx="1139" cy="-77.0746" rx="77.1494" ry="77.1494"/>
<text text-anchor="middle" x="1139" y="-74.8746" font-family="Times,serif" font-size="9.00">Move Forward/Backward</text>
</g>
<!-- wallRadar[0,1]&#45;&gt;Move Forward/Backward -->
<g id="edge13" class="edge"><title>wallRadar[0,1]&#45;&gt;Move Forward/Backward</title>
<path fill="none" stroke="red" stroke-width="0.71228" d="M2287.84,-202.182C2279.45,-197.771 2268.45,-192.718 2258,-190.149 1955.48,-115.794 1867.45,-190.048 1558,-154.149 1441.56,-140.641 1308.63,-114.683 1224.3,-96.8791"/>
<polygon fill="red" stroke="red" stroke-width="0.71228" points="1224.77,-93.401 1214.26,-94.7497 1223.31,-100.249 1224.77,-93.401"/>
</g>
<!-- wallRadar[0,1]&#45;&gt; Move Left/Right -->
<g id="edge41" class="edge"><title>wallRadar[0,1]&#45;&gt; Move Left/Right</title>
<path fill="none" stroke="green" stroke-width="0.12123" d="M2287.39,-202.172C2279.04,-197.872 2268.22,-192.932 2258,-190.149 2104.98,-148.484 2058.95,-182.966 1903,-154.149 1826.58,-140.027 1740.58,-115.424 1684.08,-98.0249"/>
<polygon fill="green" stroke="green" stroke-width="0.12123" points="1684.82,-94.5898 1674.24,-94.9727 1682.75,-101.276 1684.82,-94.5898"/>
</g>
<!-- wallRadar[0,1]&#45;&gt;Turn left/right -->
<g id="edge20" class="edge"><title>wallRadar[0,1]&#45;&gt;Turn left/right</title>
<path fill="none" stroke="red" stroke-width="0.359601" d="M2284.99,-202.203C2276.88,-198.4 2267,-193.898 2258,-190.149 2173.17,-154.818 2072.82,-118.249 2012.63,-96.8607"/>
<polygon fill="red" stroke="red" stroke-width="0.359601" points="2013.56,-93.4751 2002.96,-93.4326 2011.22,-100.073 2013.56,-93.4751"/>
</g>
<!-- wallRadar[&#45;1,0] -->
<g id="node3" class="node"><title>wallRadar[&#45;1,0]</title>
<polygon fill="lightgray" stroke="black" points="1995.5,-220.362 1922.5,-220.362 1922.5,-202.362 1995.5,-202.362 1995.5,-220.362"/>
<text text-anchor="middle" x="1959" y="-209.162" font-family="Times,serif" font-size="9.00">wallRadar[&#45;1,0]</text>
</g>
<!-- wallRadar[&#45;1,0]&#45;&gt;Move Forward/Backward -->
<g id="edge19" class="edge"><title>wallRadar[&#45;1,0]&#45;&gt;Move Forward/Backward</title>
<path fill="none" stroke="red" stroke-width="0.363325" d="M1943.68,-202.185C1934.94,-197.889 1923.63,-192.949 1913,-190.149 1759.64,-149.757 1715.03,-176.332 1558,-154.149 1441.93,-137.753 1308.91,-112.485 1224.46,-95.6238"/>
<polygon fill="red" stroke="red" stroke-width="0.363325" points="1224.9,-92.1423 1214.4,-93.6104 1223.52,-99.006 1224.9,-92.1423"/>
</g>
<!-- wallRadar[&#45;1,0]&#45;&gt;Turn left/right -->
<g id="edge5" class="edge"><title>wallRadar[&#45;1,0]&#45;&gt;Turn left/right</title>
<path fill="none" stroke="green" stroke-width="0.234362" d="M1959,-202.087C1959,-188.455 1959,-160.178 1959,-134.065"/>
<polygon fill="green" stroke="green" stroke-width="0.234362" points="1962.5,-133.819 1959,-123.819 1955.5,-133.819 1962.5,-133.819"/>
</g>
<!-- wallRadar[0,&#45;1] -->
<g id="node4" class="node"><title>wallRadar[0,&#45;1]</title>
<polygon fill="lightgray" stroke="black" points="755.5,-220.362 682.5,-220.362 682.5,-202.362 755.5,-202.362 755.5,-220.362"/>
<text text-anchor="middle" x="719" y="-209.162" font-family="Times,serif" font-size="9.00">wallRadar[0,&#45;1]</text>
</g>
<!-- wallRadar[0,&#45;1]&#45;&gt;Shoot -->
<g id="edge23" class="edge"><title>wallRadar[0,&#45;1]&#45;&gt;Shoot</title>
<path fill="none" stroke="green" stroke-width="0.155639" d="M712.87,-202.087C699.119,-183.526 665.257,-137.816 642.711,-107.382"/>
<polygon fill="green" stroke="green" stroke-width="0.155639" points="645.443,-105.19 636.678,-99.2384 639.819,-109.357 645.443,-105.19"/>
</g>
<!-- wallRadar[0,&#45;1]&#45;&gt;Move Forward/Backward -->
<g id="edge24" class="edge"><title>wallRadar[0,&#45;1]&#45;&gt;Move Forward/Backward</title>
<path fill="none" stroke="green" stroke-width="0.405023" d="M736.269,-202.173C744.812,-198.276 755.34,-193.704 765,-190.149 862.713,-154.195 977.813,-121.038 1054.26,-100.266"/>
<polygon fill="green" stroke="green" stroke-width="0.405023" points="1055.58,-103.535 1064.32,-97.5437 1053.75,-96.7778 1055.58,-103.535"/>
</g>
<!-- wallRadar[0,&#45;1]&#45;&gt; Move Left/Right -->
<g id="edge12" class="edge"><title>wallRadar[0,&#45;1]&#45;&gt; Move Left/Right</title>
<path fill="none" stroke="green" stroke-width="0.522893" d="M733.878,-202.296C742.671,-197.922 754.171,-192.869 765,-190.149 963.893,-140.197 1021.76,-181.489 1225,-154.149 1343.48,-138.211 1480.07,-109.799 1558.21,-92.5707"/>
<polygon fill="green" stroke="green" stroke-width="0.522893" points="1559.37,-95.8994 1568.37,-90.32 1557.85,-89.0649 1559.37,-95.8994"/>
</g>
<!-- wallRadar[0.7,0.7] -->
<g id="node5" class="node"><title>wallRadar[0.7,0.7]</title>
<polygon fill="lightgray" stroke="black" points="1631.5,-286.576 1548.5,-286.576 1548.5,-268.576 1631.5,-268.576 1631.5,-286.576"/>
<text text-anchor="middle" x="1590" y="-275.376" font-family="Times,serif" font-size="9.00">wallRadar[0.7,0.7]</text>
</g>
<!-- wallRadar[&#45;0.7,0.7] -->
<g id="node6" class="node"><title>wallRadar[&#45;0.7,0.7]</title>
<polygon fill="lightgray" stroke="black" points="664,-220.362 578,-220.362 578,-202.362 664,-202.362 664,-220.362"/>
<text text-anchor="middle" x="621" y="-209.162" font-family="Times,serif" font-size="9.00">wallRadar[&#45;0.7,0.7]</text>
</g>
<!-- wallRadar[&#45;0.7,0.7]&#45;&gt;Shoot -->
<g id="edge42" class="edge"><title>wallRadar[&#45;0.7,0.7]&#45;&gt;Shoot</title>
<path fill="none" stroke="green" stroke-width="0.791166" d="M621,-202.087C621,-184.884 621,-144.359 621,-114.29"/>
<polygon fill="green" stroke="green" stroke-width="0.791166" points="624.5,-114.146 621,-104.146 617.5,-114.146 624.5,-114.146"/>
</g>
<!-- wallRadar[&#45;0.7,0.7]&#45;&gt; Move Left/Right -->
<g id="edge10" class="edge"><title>wallRadar[&#45;0.7,0.7]&#45;&gt; Move Left/Right</title>
<path fill="none" stroke="red" stroke-width="0.192576" d="M638.263,-202.271C648.434,-197.889 661.684,-192.836 674,-190.149 913.771,-137.84 981.574,-185.302 1225,-154.149 1343.58,-138.973 1480.14,-110.309 1558.24,-92.8266"/>
<polygon fill="red" stroke="red" stroke-width="0.192576" points="1559.41,-96.1508 1568.4,-90.5418 1557.88,-89.3213 1559.41,-96.1508"/>
</g>
<!-- wallRadar[&#45;0.7,&#45;0.7] -->
<g id="node7" class="node"><title>wallRadar[&#45;0.7,&#45;0.7]</title>
<polygon fill="lightgray" stroke="black" points="1723.5,-220.362 1634.5,-220.362 1634.5,-202.362 1723.5,-202.362 1723.5,-220.362"/>
<text text-anchor="middle" x="1679" y="-209.162" font-family="Times,serif" font-size="9.00">wallRadar[&#45;0.7,&#45;0.7]</text>
</g>
<!-- wallRadar[&#45;0.7,&#45;0.7]&#45;&gt;Shoot -->
<g id="edge31" class="edge"><title>wallRadar[&#45;0.7,&#45;0.7]&#45;&gt;Shoot</title>
<path fill="none" stroke="red" stroke-width="0.508709" stroke-dasharray="1,5" d="M1661.4,-202.264C1651.03,-197.88 1637.53,-192.827 1625,-190.149 1375.9,-136.921 1305.94,-184.285 1053,-154.149 905.247,-136.546 731.379,-101.497 657.333,-85.8879"/>
<polygon fill="red" stroke="red" stroke-width="0.508709" points="657.655,-82.3787 647.147,-83.7304 656.205,-89.2268 657.655,-82.3787"/>
</g>
<!-- wallRadar[&#45;0.7,&#45;0.7]&#45;&gt; Move Left/Right -->
<g id="edge35" class="edge"><title>wallRadar[&#45;0.7,&#45;0.7]&#45;&gt; Move Left/Right</title>
<path fill="none" stroke="red" stroke-width="0.376065" d="M1675.43,-202.087C1669.79,-188.989 1658.32,-162.372 1647.45,-137.144"/>
<polygon fill="red" stroke="red" stroke-width="0.376065" points="1650.66,-135.738 1643.49,-127.94 1644.23,-138.508 1650.66,-135.738"/>
</g>
<!-- wallRadar[&#45;0.7,&#45;0.7]&#45;&gt;Turn left/right -->
<g id="edge22" class="edge"><title>wallRadar[&#45;0.7,&#45;0.7]&#45;&gt;Turn left/right</title>
<path fill="none" stroke="green" stroke-width="0.470967" d="M1696.09,-202.286C1737.4,-182.771 1843.95,-132.429 1908.02,-102.163"/>
<polygon fill="green" stroke="green" stroke-width="0.470967" points="1909.6,-105.285 1917.15,-97.8487 1906.61,-98.956 1909.6,-105.285"/>
</g>
<!-- wallRadar[0.7,&#45;0.7] -->
<g id="node8" class="node"><title>wallRadar[0.7,&#45;0.7]</title>
<polygon fill="lightgray" stroke="black" points="1904,-220.362 1818,-220.362 1818,-202.362 1904,-202.362 1904,-220.362"/>
<text text-anchor="middle" x="1861" y="-209.162" font-family="Times,serif" font-size="9.00">wallRadar[0.7,&#45;0.7]</text>
</g>
<!-- wallRadar[0.7,&#45;0.7]&#45;&gt; Move Left/Right -->
<g id="edge2" class="edge"><title>wallRadar[0.7,&#45;0.7]&#45;&gt; Move Left/Right</title>
<path fill="none" stroke="green" stroke-width="0.418771" d="M1846.41,-202.286C1813.96,-184.326 1734.34,-140.255 1679.23,-109.753"/>
<polygon fill="green" stroke="green" stroke-width="0.418771" points="1680.71,-106.572 1670.27,-104.792 1677.32,-112.697 1680.71,-106.572"/>
</g>
<!-- enemyRadar[RightBack] -->
<g id="node9" class="node"><title>enemyRadar[RightBack]</title>
<polygon fill="lightgray" stroke="black" points="1012,-220.362 908,-220.362 908,-202.362 1012,-202.362 1012,-220.362"/>
<text text-anchor="middle" x="960" y="-209.162" font-family="Times,serif" font-size="9.00">enemyRadar[RightBack]</text>
</g>
<!-- enemyRadar[RightBack]&#45;&gt;Shoot -->
<g id="edge30" class="edge"><title>enemyRadar[RightBack]&#45;&gt;Shoot</title>
<path fill="none" stroke="green" stroke-width="0.570896" d="M939.304,-202.286C882.854,-180.258 725.756,-118.953 655.603,-91.5778"/>
<polygon fill="green" stroke="green" stroke-width="0.570896" points="656.494,-88.1685 645.906,-87.7937 653.949,-94.6896 656.494,-88.1685"/>
</g>
<!-- enemyRadar[RightBack]&#45;&gt;Move Forward/Backward -->
<g id="edge44" class="edge"><title>enemyRadar[RightBack]&#45;&gt;Move Forward/Backward</title>
<path fill="none" stroke="green" stroke-width="0.285279" d="M970.928,-202.286C990.264,-187.997 1031.96,-157.179 1068.99,-129.817"/>
<polygon fill="green" stroke="green" stroke-width="0.285279" points="1071.33,-132.436 1077.29,-123.677 1067.17,-126.806 1071.33,-132.436"/>
</g>
<!-- enemyRadar[RightBack]&#45;&gt;Turn left/right -->
<g id="edge38" class="edge"><title>enemyRadar[RightBack]&#45;&gt;Turn left/right</title>
<path fill="none" stroke="green" stroke-width="0.612754" d="M993.251,-202.327C1012.37,-198.021 1036.91,-193.024 1059,-190.149 1335.79,-154.137 1410.65,-199.875 1686,-154.149 1763.68,-141.25 1850.93,-114.748 1905.42,-96.6913"/>
<polygon fill="green" stroke="green" stroke-width="0.612754" points="1906.83,-99.911 1915.21,-93.4233 1904.61,-93.2715 1906.83,-99.911"/>
</g>
<!-- enemyRadar[LeftBack] -->
<g id="node10" class="node"><title>enemyRadar[LeftBack]</title>
<polygon fill="lightgray" stroke="black" points="2454.5,-220.362 2355.5,-220.362 2355.5,-202.362 2454.5,-202.362 2454.5,-220.362"/>
<text text-anchor="middle" x="2405" y="-209.162" font-family="Times,serif" font-size="9.00">enemyRadar[LeftBack]</text>
</g>
<!-- enemyRadar[LeftBack]&#45;&gt;Turn left/right -->
<g id="edge40" class="edge"><title>enemyRadar[LeftBack]&#45;&gt;Turn left/right</title>
<path fill="none" stroke="red" stroke-width="0.173377" d="M2382.39,-202.331C2371.44,-198.515 2358.08,-193.965 2346,-190.149 2228.23,-152.945 2088.81,-113.745 2013.63,-93.002"/>
<polygon fill="red" stroke="red" stroke-width="0.173377" points="2014.47,-89.6034 2003.9,-90.3215 2012.62,-96.3519 2014.47,-89.6034"/>
</g>
<!-- enemyRadar[Right45ø] -->
<g id="node11" class="node"><title>enemyRadar[Right45ø]</title>
<polygon fill="lightgray" stroke="black" points="1616,-220.362 1516,-220.362 1516,-202.362 1616,-202.362 1616,-220.362"/>
<text text-anchor="middle" x="1566" y="-209.162" font-family="Times,serif" font-size="9.00">enemyRadar[Right45ø]</text>
</g>
<!-- enemyRadar[Right45ø]&#45;&gt;Move Forward/Backward -->
<g id="edge3" class="edge"><title>enemyRadar[Right45ø]&#45;&gt;Move Forward/Backward</title>
<path fill="none" stroke="red" stroke-width="0.275637" d="M1543.09,-202.307C1532.18,-198.527 1518.95,-194.015 1507,-190.149 1409.85,-158.724 1297.49,-124.861 1222.73,-102.681"/>
<polygon fill="red" stroke="red" stroke-width="0.275637" points="1223.48,-99.2511 1212.89,-99.7649 1221.49,-105.962 1223.48,-99.2511"/>
</g>
<!-- enemyRadar[Right45ø]&#45;&gt; Move Left/Right -->
<g id="edge1" class="edge"><title>enemyRadar[Right45ø]&#45;&gt; Move Left/Right</title>
<path fill="none" stroke="red" stroke-width="0.690555" d="M1569.5,-202.087C1575,-189.097 1586.13,-162.809 1596.73,-137.766"/>
<polygon fill="red" stroke="red" stroke-width="0.690555" points="1600.08,-138.833 1600.76,-128.259 1593.63,-136.104 1600.08,-138.833"/>
</g>
<!-- enemyRadar[Left45ø] -->
<g id="node12" class="node"><title>enemyRadar[Left45ø]</title>
<polygon fill="lightgray" stroke="black" points="2108.5,-220.362 2013.5,-220.362 2013.5,-202.362 2108.5,-202.362 2108.5,-220.362"/>
<text text-anchor="middle" x="2061" y="-209.162" font-family="Times,serif" font-size="9.00">enemyRadar[Left45ø]</text>
</g>
<!-- enemyRadar[Left45ø]&#45;&gt;Move Forward/Backward -->
<g id="edge43" class="edge"><title>enemyRadar[Left45ø]&#45;&gt;Move Forward/Backward</title>
<path fill="none" stroke="green" stroke-width="0.754072" d="M2042.7,-202.357C2031.93,-198.004 2017.93,-192.951 2005,-190.149 1810.21,-147.943 1755.63,-179.984 1558,-154.149 1441.77,-138.955 1308.78,-113.4 1224.39,-96.1463"/>
<polygon fill="green" stroke="green" stroke-width="0.754072" points="1224.84,-92.6663 1214.34,-94.0847 1223.43,-99.5234 1224.84,-92.6663"/>
</g>
<!-- enemyRadar[Left45ø]&#45;&gt;Turn left/right -->
<g id="edge28" class="edge"><title>enemyRadar[Left45ø]&#45;&gt;Turn left/right</title>
<path fill="none" stroke="green" stroke-width="0.489647" d="M2054.62,-202.087C2042.54,-186.421 2015.55,-151.416 1993.31,-122.578"/>
<polygon fill="green" stroke="green" stroke-width="0.489647" points="1996.06,-120.411 1987.19,-114.629 1990.52,-124.686 1996.06,-120.411"/>
</g>
<!-- enemyRadar[RightFront20ø] -->
<g id="node13" class="node"><title>enemyRadar[RightFront20ø]</title>
<polygon fill="lightgray" stroke="black" points="559.5,-220.362 440.5,-220.362 440.5,-202.362 559.5,-202.362 559.5,-220.362"/>
<text text-anchor="middle" x="500" y="-209.162" font-family="Times,serif" font-size="9.00">enemyRadar[RightFront20ø]</text>
</g>
<!-- enemyRadar[RightFront20ø]&#45;&gt;Shoot -->
<g id="edge14" class="edge"><title>enemyRadar[RightFront20ø]&#45;&gt;Shoot</title>
<path fill="none" stroke="green" stroke-width="0.208666" d="M507.569,-202.087C524.952,-183.083 568.365,-135.62 596.161,-105.231"/>
<polygon fill="green" stroke="green" stroke-width="0.208666" points="599.042,-107.266 603.209,-97.5253 593.877,-102.542 599.042,-107.266"/>
</g>
<!-- enemyRadar[RightFront20ø]&#45;&gt;Move Forward/Backward -->
<g id="edge46" class="edge"><title>enemyRadar[RightFront20ø]&#45;&gt;Move Forward/Backward</title>
<path fill="none" stroke="red" stroke-width="0.135748" stroke-dasharray="1,5" d="M525.41,-202.319C538.378,-198.367 554.449,-193.703 569,-190.149 739.234,-148.57 940.968,-111.803 1053.02,-92.47"/>
<polygon fill="red" stroke="red" stroke-width="0.135748" points="1053.65,-95.9123 1062.92,-90.7676 1052.47,-89.0136 1053.65,-95.9123"/>
</g>
<!-- enemyRadar[LeftFront20ø] -->
<g id="node14" class="node"><title>enemyRadar[LeftFront20ø]</title>
<polygon fill="lightgray" stroke="black" points="114,-220.362 0,-220.362 0,-202.362 114,-202.362 114,-220.362"/>
<text text-anchor="middle" x="57" y="-209.162" font-family="Times,serif" font-size="9.00">enemyRadar[LeftFront20ø]</text>
</g>
<!-- enemyRadar[LeftFront20ø]&#45;&gt;Shoot -->
<g id="edge8" class="edge"><title>enemyRadar[LeftFront20ø]&#45;&gt;Shoot</title>
<path fill="none" stroke="green" stroke-width="0.325392" d="M83.8792,-202.341C97.1192,-198.485 113.349,-193.897 128,-190.149 298.027,-146.654 503.203,-102.733 584.9,-85.5849"/>
<polygon fill="green" stroke="green" stroke-width="0.325392" points="585.622,-89.0096 594.692,-83.5337 584.187,-82.1583 585.622,-89.0096"/>
</g>
<!-- enemyRadar[RightFront15ø] -->
<g id="node15" class="node"><title>enemyRadar[RightFront15ø]</title>
<polygon fill="lightgray" stroke="black" points="1123.5,-286.576 1004.5,-286.576 1004.5,-268.576 1123.5,-268.576 1123.5,-286.576"/>
<text text-anchor="middle" x="1064" y="-275.376" font-family="Times,serif" font-size="9.00">enemyRadar[RightFront15ø]</text>
</g>
<!-- enemyRadar[RightFront15ø]&#45;&gt;Shoot -->
<g id="edge18" class="edge"><title>enemyRadar[RightFront15ø]&#45;&gt;Shoot</title>
<path fill="none" stroke="green" stroke-width="0.120065" d="M1004.43,-275.514C823.227,-271.998 289.384,-259.394 264,-232.576 165.72,-128.741 474.122,-90.9834 583.8,-81.025"/>
<polygon fill="green" stroke="green" stroke-width="0.120065" points="584.419,-84.4842 594.073,-80.1213 583.805,-77.5112 584.419,-84.4842"/>
</g>
<!-- enemyRadar[RightFront15ø]&#45;&gt;Move Forward/Backward -->
<g id="edge45" class="edge"><title>enemyRadar[RightFront15ø]&#45;&gt;Move Forward/Backward</title>
<path fill="none" stroke="red" stroke-width="0.392339" d="M1061.57,-268.224C1057.41,-252.505 1050.2,-217.631 1059,-190.149 1064.21,-173.877 1072.75,-157.955 1082.35,-143.457"/>
<polygon fill="red" stroke="red" stroke-width="0.392339" points="1085.32,-145.314 1088.11,-135.092 1079.55,-141.345 1085.32,-145.314"/>
</g>
<!-- enemyRadar[RightFront15ø]&#45;&gt; Move Left/Right -->
<g id="edge34" class="edge"><title>enemyRadar[RightFront15ø]&#45;&gt; Move Left/Right</title>
<path fill="none" stroke="green" stroke-width="0.204808" d="M1123.56,-274.845C1283.6,-269.906 1712.31,-254.666 1733,-232.576 1767.99,-195.205 1719.91,-146.445 1676.53,-113.789"/>
<polygon fill="green" stroke="green" stroke-width="0.204808" points="1678.36,-110.787 1668.23,-107.684 1674.21,-116.427 1678.36,-110.787"/>
</g>
<!-- enemyRadar[RightFront15ø]&#45;&gt;333 -->
<g id="edge51" class="edge"><title>enemyRadar[RightFront15ø]&#45;&gt;333</title>
<path fill="none" stroke="green" stroke-width="0.463456" d="M1067.17,-268.443C1069.89,-261.436 1074,-250.888 1077.92,-240.825"/>
<polygon fill="green" stroke="green" stroke-width="0.463456" points="1081.2,-242.045 1081.57,-231.456 1074.68,-239.505 1081.2,-242.045"/>
</g>
<!-- enemyRadar[LeftFront15ø] -->
<g id="node16" class="node"><title>enemyRadar[LeftFront15ø]</title>
<polygon fill="lightgray" stroke="black" points="1498,-220.362 1384,-220.362 1384,-202.362 1498,-202.362 1498,-220.362"/>
<text text-anchor="middle" x="1441" y="-209.162" font-family="Times,serif" font-size="9.00">enemyRadar[LeftFront15ø]</text>
</g>
<!-- enemyRadar[LeftFront15ø]&#45;&gt;Shoot -->
<g id="edge33" class="edge"><title>enemyRadar[LeftFront15ø]&#45;&gt;Shoot</title>
<path fill="none" stroke="red" stroke-width="0.235977" d="M1418.36,-202.288C1405.75,-198.078 1389.67,-193.188 1375,-190.149 1233.99,-160.939 1195.54,-174.647 1053,-154.149 905.717,-132.969 731.602,-99.8037 657.412,-85.2865"/>
<polygon fill="red" stroke="red" stroke-width="0.235977" points="657.693,-81.775 647.206,-83.2836 656.345,-88.644 657.693,-81.775"/>
</g>
<!-- enemyRadar[LeftFront15ø]&#45;&gt;Turn left/right -->
<g id="edge15" class="edge"><title>enemyRadar[LeftFront15ø]&#45;&gt;Turn left/right</title>
<path fill="none" stroke="red" stroke-width="0.137126" d="M1465.29,-202.296C1477.69,-198.339 1493.06,-193.677 1507,-190.149 1585.67,-170.243 1607.08,-173.053 1686,-154.149 1762.35,-135.86 1849.59,-110.814 1904.47,-94.5402"/>
<polygon fill="red" stroke="red" stroke-width="0.137126" points="1905.75,-97.8126 1914.34,-91.6072 1903.75,-91.103 1905.75,-97.8126"/>
</g>
<!-- enemyRadar[RightFront7.5ø] -->
<g id="node17" class="node"><title>enemyRadar[RightFront7.5ø]</title>
<polygon fill="lightgray" stroke="black" points="1250,-220.362 1128,-220.362 1128,-202.362 1250,-202.362 1250,-220.362"/>
<text text-anchor="middle" x="1189" y="-209.162" font-family="Times,serif" font-size="9.00">enemyRadar[RightFront7.5ø]</text>
</g>
<!-- enemyRadar[RightFront7.5ø]&#45;&gt;Shoot -->
<g id="edge39" class="edge"><title>enemyRadar[RightFront7.5ø]&#45;&gt;Shoot</title>
<path fill="none" stroke="red" stroke-width="0.358618" stroke-dasharray="1,5" d="M1162.51,-202.309C1149.46,-198.444 1133.46,-193.86 1119,-190.149 947.162,-146.045 739.546,-102.385 657.187,-85.444"/>
<polygon fill="red" stroke="red" stroke-width="0.358618" points="657.819,-82.0008 647.32,-83.419 656.412,-88.8579 657.819,-82.0008"/>
</g>
<!-- enemyRadar[RightFront7.5ø]&#45;&gt;Move Forward/Backward -->
<g id="edge25" class="edge"><title>enemyRadar[RightFront7.5ø]&#45;&gt;Move Forward/Backward</title>
<path fill="none" stroke="green" stroke-width="0.273556" d="M1185.87,-202.087C1182.34,-192.743 1176.21,-176.517 1169.52,-158.824"/>
<polygon fill="green" stroke="green" stroke-width="0.273556" points="1172.79,-157.584 1165.98,-149.467 1166.25,-160.059 1172.79,-157.584"/>
</g>
<!-- enemyRadar[RightFront7.5ø]&#45;&gt; Move Left/Right -->
<g id="edge29" class="edge"><title>enemyRadar[RightFront7.5ø]&#45;&gt; Move Left/Right</title>
<path fill="none" stroke="red" stroke-width="0.459054" stroke-dasharray="1,5" d="M1215.43,-202.286C1283.07,-181.623 1463.82,-126.402 1559.92,-97.0414"/>
<polygon fill="red" stroke="red" stroke-width="0.459054" points="1560.97,-100.38 1569.51,-94.1104 1558.93,-93.685 1560.97,-100.38"/>
</g>
<!-- enemyRadar[RightFront7.5ø]&#45;&gt;Turn left/right -->
<g id="edge21" class="edge"><title>enemyRadar[RightFront7.5ø]&#45;&gt;Turn left/right</title>
<path fill="none" stroke="red" stroke-width="0.234192" d="M1212.38,-202.36C1225.85,-198.064 1243.2,-193.067 1259,-190.149 1446.28,-155.564 1498.56,-187.859 1686,-154.149 1763.5,-140.212 1850.79,-113.969 1905.35,-96.2538"/>
<polygon fill="red" stroke="red" stroke-width="0.234192" points="1906.73,-99.4852 1915.14,-93.05 1904.55,-92.832 1906.73,-99.4852"/>
</g>
<!-- enemyRadar[LeftFront7.5ø] -->
<g id="node18" class="node"><title>enemyRadar[LeftFront7.5ø]</title>
<polygon fill="lightgray" stroke="black" points="422,-220.362 306,-220.362 306,-202.362 422,-202.362 422,-220.362"/>
<text text-anchor="middle" x="364" y="-209.162" font-family="Times,serif" font-size="9.00">enemyRadar[LeftFront7.5ø]</text>
</g>
<!-- enemyRadar[LeftFront7.5ø]&#45;&gt;Shoot -->
<g id="edge17" class="edge"><title>enemyRadar[LeftFront7.5ø]&#45;&gt;Shoot</title>
<path fill="none" stroke="green" stroke-width="0.257593" d="M379.69,-202.286C420.795,-181.128 532.296,-123.734 588.166,-94.9754"/>
<polygon fill="green" stroke="green" stroke-width="0.257593" points="589.991,-97.9729 597.28,-90.2842 586.787,-91.749 589.991,-97.9729"/>
</g>
<!-- enemyRadar[LeftFront7.5ø]&#45;&gt;Move Forward/Backward -->
<g id="edge47" class="edge"><title>enemyRadar[LeftFront7.5ø]&#45;&gt;Move Forward/Backward</title>
<path fill="none" stroke="red" stroke-width="0.43003" stroke-dasharray="1,5" d="M387.977,-202.264C400.657,-198.202 416.551,-193.456 431,-190.149 434.79,-189.282 864.556,-121.401 1052.58,-91.7166"/>
<polygon fill="red" stroke="red" stroke-width="0.43003" points="1053.37,-95.1342 1062.71,-90.1175 1052.28,-88.2199 1053.37,-95.1342"/>
</g>
<!-- enemyRadar[RightFront2.5ø] -->
<g id="node19" class="node"><title>enemyRadar[RightFront2.5ø]</title>
<polygon fill="lightgray" stroke="black" points="2249,-220.362 2127,-220.362 2127,-202.362 2249,-202.362 2249,-220.362"/>
<text text-anchor="middle" x="2188" y="-209.162" font-family="Times,serif" font-size="9.00">enemyRadar[RightFront2.5ø]</text>
</g>
<!-- enemyRadar[RightFront2.5ø]&#45;&gt;Move Forward/Backward -->
<g id="edge37" class="edge"><title>enemyRadar[RightFront2.5ø]&#45;&gt;Move Forward/Backward</title>
<path fill="none" stroke="green" stroke-width="0.355446" d="M2164.96,-202.342C2151.45,-197.984 2133.95,-192.931 2118,-190.149 1872.31,-147.302 1805.55,-184.477 1558,-154.149 1441.65,-139.895 1308.69,-114.115 1224.33,-96.5549"/>
<polygon fill="green" stroke="green" stroke-width="0.355446" points="1224.8,-93.076 1214.29,-94.4555 1223.36,-99.9279 1224.8,-93.076"/>
</g>
<!-- enemyRadar[RightFront2.5ø]&#45;&gt;Turn left/right -->
<g id="edge50" class="edge"><title>enemyRadar[RightFront2.5ø]&#45;&gt;Turn left/right</title>
<path fill="none" stroke="green" stroke-width="0.321046" stroke-dasharray="1,5" d="M2174.02,-202.286C2141.8,-183.673 2061.04,-137.019 2008.18,-106.485"/>
<polygon fill="green" stroke="green" stroke-width="0.321046" points="2009.71,-103.327 1999.3,-101.356 2006.21,-109.389 2009.71,-103.327"/>
</g>
<!-- enemyRadar[LeftFront2.5ø] -->
<g id="node20" class="node"><title>enemyRadar[LeftFront2.5ø]</title>
<polygon fill="lightgray" stroke="black" points="890,-220.362 774,-220.362 774,-202.362 890,-202.362 890,-220.362"/>
<text text-anchor="middle" x="832" y="-209.162" font-family="Times,serif" font-size="9.00">enemyRadar[LeftFront2.5ø]</text>
</g>
<!-- enemyRadar[LeftFront2.5ø]&#45;&gt;Shoot -->
<g id="edge7" class="edge"><title>enemyRadar[LeftFront2.5ø]&#45;&gt;Shoot</title>
<path fill="none" stroke="green" stroke-width="0.540387" d="M819.119,-202.286C786.336,-181.733 699.019,-126.989 652.004,-97.513"/>
<polygon fill="green" stroke="green" stroke-width="0.540387" points="653.773,-94.4912 643.442,-92.1446 650.055,-100.422 653.773,-94.4912"/>
</g>
<!-- enemyRadar[LeftFront2.5ø]&#45;&gt;Move Forward/Backward -->
<g id="edge4" class="edge"><title>enemyRadar[LeftFront2.5ø]&#45;&gt;Move Forward/Backward</title>
<path fill="none" stroke="red" stroke-width="0.61638" d="M850.742,-202.286C891.172,-184.865 988.609,-142.879 1059.02,-112.537"/>
<polygon fill="red" stroke="red" stroke-width="0.61638" points="1060.54,-115.696 1068.34,-108.524 1057.77,-109.267 1060.54,-115.696"/>
</g>
<!-- enemyRadar[LeftFront2.5ø]&#45;&gt;Turn left/right -->
<g id="edge32" class="edge"><title>enemyRadar[LeftFront2.5ø]&#45;&gt;Turn left/right</title>
<path fill="none" stroke="green" stroke-width="0.280944" d="M853.701,-202.325C866.659,-197.903 883.551,-192.791 899,-190.149 1244.13,-131.132 1340.26,-209.498 1686,-154.149 1763.75,-141.702 1850.98,-115.087 1905.45,-96.882"/>
<polygon fill="green" stroke="green" stroke-width="0.280944" points="1906.88,-100.096 1915.23,-93.586 1904.64,-93.463 1906.88,-100.096"/>
</g>
<!-- enemyRadar[Front7Ø] -->
<g id="node21" class="node"><title>enemyRadar[Front7Ø]</title>
<polygon fill="lightgray" stroke="black" points="1366,-220.362 1268,-220.362 1268,-202.362 1366,-202.362 1366,-220.362"/>
<text text-anchor="middle" x="1317" y="-209.162" font-family="Times,serif" font-size="9.00">enemyRadar[Front7Ø]</text>
</g>
<!-- enemyRadar[Front7Ø]&#45;&gt;Shoot -->
<g id="edge48" class="edge"><title>enemyRadar[Front7Ø]&#45;&gt;Shoot</title>
<path fill="none" stroke="green" stroke-width="0.360207" d="M1296.58,-202.335C1285.58,-198.242 1271.69,-193.447 1259,-190.149 1169.04,-166.779 1144.55,-170.209 1053,-154.149 906.44,-128.439 731.944,-97.6583 657.533,-84.5247"/>
<polygon fill="green" stroke="green" stroke-width="0.360207" points="657.752,-81.0093 647.296,-82.7177 656.536,-87.9027 657.752,-81.0093"/>
</g>
<!-- enemyRadar[Front7Ø]&#45;&gt;Move Forward/Backward -->
<g id="edge27" class="edge"><title>enemyRadar[Front7Ø]&#45;&gt;Move Forward/Backward</title>
<path fill="none" stroke="green" stroke-width="0.368736" d="M1306.13,-202.286C1286.98,-188.049 1245.74,-157.404 1209.03,-130.117"/>
<polygon fill="green" stroke="green" stroke-width="0.368736" points="1210.9,-127.148 1200.78,-123.992 1206.72,-132.766 1210.9,-127.148"/>
</g>
<!-- enemyRadar[Front7Ø]&#45;&gt; Move Left/Right -->
<g id="edge16" class="edge"><title>enemyRadar[Front7Ø]&#45;&gt; Move Left/Right</title>
<path fill="none" stroke="green" stroke-width="0.333218" d="M1335.62,-202.286C1379.75,-183.147 1492.23,-134.359 1562.38,-103.936"/>
<polygon fill="green" stroke="green" stroke-width="0.333218" points="1563.78,-107.143 1571.56,-99.9532 1560.99,-100.721 1563.78,-107.143"/>
</g>
<!-- enemyRadar[Front7Ø]&#45;&gt;Turn left/right -->
<g id="edge26" class="edge"><title>enemyRadar[Front7Ø]&#45;&gt;Turn left/right</title>
<path fill="none" stroke="green" stroke-width="0.469813" d="M1336.55,-202.341C1347.65,-198.094 1361.9,-193.151 1375,-190.149 1510.63,-159.066 1549.45,-180.907 1686,-154.149 1763.04,-139.052 1850.11,-113.219 1904.77,-95.899"/>
<polygon fill="green" stroke="green" stroke-width="0.469813" points="1906.12,-99.1407 1914.59,-92.7686 1904,-92.4714 1906.12,-99.1407"/>
</g>
<!-- OnTarget -->
<g id="node22" class="node"><title>OnTarget</title>
<polygon fill="lightgray" stroke="black" points="192,-286.576 142,-286.576 142,-268.576 192,-268.576 192,-286.576"/>
<text text-anchor="middle" x="167" y="-275.376" font-family="Times,serif" font-size="9.00">OnTarget</text>
</g>
<!-- OnTarget&#45;&gt;Shoot -->
<g id="edge9" class="edge"><title>OnTarget&#45;&gt;Shoot</title>
<path fill="none" stroke="green" stroke-width="0.366281" stroke-dasharray="1,5" d="M163.165,-268.379C155.98,-251.677 142.788,-213.331 161,-190.149 213.791,-122.952 484.278,-90.9777 584.009,-81.3382"/>
<polygon fill="green" stroke="green" stroke-width="0.366281" points="584.586,-84.7994 594.212,-80.3729 583.927,-77.8305 584.586,-84.7994"/>
</g>
<!-- 393 -->
<g id="node28" class="node"><title>393</title>
<ellipse fill="white" stroke="black" cx="191" cy="-211.362" rx="21.4286" ry="21.4286"/>
<text text-anchor="middle" x="191" y="-209.162" font-family="Times,serif" font-size="9.00">393</text>
</g>
<!-- OnTarget&#45;&gt;393 -->
<g id="edge54" class="edge"><title>OnTarget&#45;&gt;393</title>
<path fill="none" stroke="green" stroke-width="0.17116" d="M170.04,-268.443C172.659,-261.436 176.601,-250.888 180.362,-240.825"/>
<polygon fill="green" stroke="green" stroke-width="0.17116" points="183.641,-242.049 183.864,-231.456 177.084,-239.598 183.641,-242.049"/>
</g>
<!-- bias -->
<g id="node23" class="node"><title>bias</title>
<polygon fill="lightgray" stroke="black" points="2503.5,-220.362 2472.5,-220.362 2472.5,-202.362 2503.5,-202.362 2503.5,-220.362"/>
<text text-anchor="middle" x="2488" y="-209.162" font-family="Times,serif" font-size="9.00">bias</text>
</g>
<!-- bias&#45;&gt;Turn left/right -->
<g id="edge6" class="edge"><title>bias&#45;&gt;Turn left/right</title>
<path fill="none" stroke="red" stroke-width="0.300417" d="M2480.27,-202.17C2475.88,-197.979 2470.06,-193.143 2464,-190.149 2313.12,-115.55 2112.49,-90.1101 2015.82,-81.8336"/>
<polygon fill="red" stroke="red" stroke-width="0.300417" points="2015.93,-78.3307 2005.68,-80.9957 2015.35,-85.307 2015.93,-78.3307"/>
</g>
<!-- 393&#45;&gt;Shoot -->
<g id="edge55" class="edge"><title>393&#45;&gt;Shoot</title>
<path fill="none" stroke="green" stroke-width="0.347778" d="M208.727,-198.99C214.131,-195.838 220.184,-192.609 226,-190.149 352.769,-136.538 513.02,-100.041 584.127,-85.3402"/>
<polygon fill="green" stroke="green" stroke-width="0.347778" points="585.26,-88.6811 594.356,-83.2492 583.858,-81.8229 585.26,-88.6811"/>
</g>
<!-- 333&#45;&gt;Move Forward/Backward -->
<g id="edge52" class="edge"><title>333&#45;&gt;Move Forward/Backward</title>
<path fill="none" stroke="red" stroke-width="0.37224" d="M1096.27,-191.127C1099.63,-182.249 1103.86,-171.049 1108.35,-159.17"/>
<polygon fill="red" stroke="red" stroke-width="0.37224" points="1111.73,-160.121 1111.99,-149.53 1105.18,-157.646 1111.73,-160.121"/>
</g>
</g>
</svg>
