<?xml version="1.0" encoding="UTF-8" standalone="no"?>
<!DOCTYPE svg PUBLIC "-//W3C//DTD SVG 1.1//EN"
 "http://www.w3.org/Graphics/SVG/1.1/DTD/svg11.dtd">
<!-- Generated by graphviz version 2.38.0 (20140413.2041)
 -->
<!-- Title: %3 Pages: 1 -->
<svg width="2560pt" height="216pt"
 viewBox="0.00 0.00 2559.50 216.15" xmlns="http://www.w3.org/2000/svg" xmlns:xlink="http://www.w3.org/1999/xlink">
<g id="graph0" class="graph" transform="scale(1 1) rotate(0) translate(4 212.149)">
<title>%3</title>
<polygon fill="white" stroke="none" points="-4,4 -4,-212.149 2555.5,-212.149 2555.5,4 -4,4"/>
<!-- wallRadar[1,0] -->
<g id="node1" class="node"><title>wallRadar[1,0]</title>
<polygon fill="lightgray" stroke="black" points="1316.5,-208.149 1246.5,-208.149 1246.5,-190.149 1316.5,-190.149 1316.5,-208.149"/>
<text text-anchor="middle" x="1281.5" y="-196.949" font-family="Times,serif" font-size="9.00">wallRadar[1,0]</text>
</g>
<!--  Move Left/Right -->
<g id="node26" class="node"><title> Move Left/Right</title>
<ellipse fill="lightblue" stroke="black" cx="933.5" cy="-77.0746" rx="55.3091" ry="55.3091"/>
<text text-anchor="middle" x="933.5" y="-74.8746" font-family="Times,serif" font-size="9.00"> Move Left/Right</text>
</g>
<!-- wallRadar[1,0]&#45;&gt; Move Left/Right -->
<g id="edge17" class="edge"><title>wallRadar[1,0]&#45;&gt; Move Left/Right</title>
<path fill="none" stroke="red" stroke-width="0.152519" d="M1250.47,-190.125C1219.38,-181.873 1170.26,-168.267 1128.5,-154.149 1082.8,-138.7 1032.06,-118.817 993.797,-103.253"/>
<polygon fill="red" stroke="red" stroke-width="0.152519" points="994.93,-99.9347 984.349,-99.3942 992.283,-106.415 994.93,-99.9347"/>
</g>
<!-- Turn left/right -->
<g id="node27" class="node"><title>Turn left/right</title>
<ellipse fill="lightblue" stroke="black" cx="1821.5" cy="-77.0746" rx="46.8387" ry="46.8387"/>
<text text-anchor="middle" x="1821.5" y="-74.8746" font-family="Times,serif" font-size="9.00">Turn left/right</text>
</g>
<!-- wallRadar[1,0]&#45;&gt;Turn left/right -->
<g id="edge10" class="edge"><title>wallRadar[1,0]&#45;&gt;Turn left/right</title>
<path fill="none" stroke="red" stroke-width="0.277143" d="M1316.52,-191.463C1319.55,-190.981 1322.57,-190.534 1325.5,-190.149 1422.77,-177.359 1679.83,-201.951 1765.5,-154.149 1777.03,-147.718 1786.84,-137.811 1794.88,-127.25"/>
<polygon fill="red" stroke="red" stroke-width="0.277143" points="1797.74,-129.271 1800.68,-119.093 1792.03,-125.214 1797.74,-129.271"/>
</g>
<!-- wallRadar[0,1] -->
<g id="node2" class="node"><title>wallRadar[0,1]</title>
<polygon fill="lightgray" stroke="black" points="298.5,-208.149 228.5,-208.149 228.5,-190.149 298.5,-190.149 298.5,-208.149"/>
<text text-anchor="middle" x="263.5" y="-196.949" font-family="Times,serif" font-size="9.00">wallRadar[0,1]</text>
</g>
<!-- Shoot -->
<g id="node24" class="node"><title>Shoot</title>
<ellipse fill="lightblue" stroke="black" cx="1164.5" cy="-77.0746" rx="26.7407" ry="26.7407"/>
<text text-anchor="middle" x="1164.5" y="-74.8746" font-family="Times,serif" font-size="9.00">Shoot</text>
</g>
<!-- wallRadar[0,1]&#45;&gt;Shoot -->
<g id="edge41" class="edge"><title>wallRadar[0,1]&#45;&gt;Shoot</title>
<path fill="none" stroke="green" stroke-width="0.462782" d="M298.504,-191.369C301.539,-190.907 304.569,-190.491 307.5,-190.149 612.52,-154.61 699.202,-227.081 997.5,-154.149 1047.07,-142.029 1100,-115.29 1132.66,-96.9734"/>
<polygon fill="green" stroke="green" stroke-width="0.462782" points="1134.76,-99.8055 1141.72,-91.8174 1131.3,-93.7217 1134.76,-99.8055"/>
</g>
<!-- wallRadar[0,1]&#45;&gt; Move Left/Right -->
<g id="edge39" class="edge"><title>wallRadar[0,1]&#45;&gt; Move Left/Right</title>
<path fill="none" stroke="green" stroke-width="0.105877" d="M298.563,-191.765C301.586,-191.218 304.597,-190.673 307.5,-190.149 512.641,-153.137 755.688,-109.759 869.149,-89.5365"/>
<polygon fill="green" stroke="green" stroke-width="0.105877" points="869.833,-92.9699 879.064,-87.7696 868.605,-86.0785 869.833,-92.9699"/>
</g>
<!-- wallRadar[&#45;1,0] -->
<g id="node3" class="node"><title>wallRadar[&#45;1,0]</title>
<polygon fill="lightgray" stroke="black" points="210,-208.149 137,-208.149 137,-190.149 210,-190.149 210,-208.149"/>
<text text-anchor="middle" x="173.5" y="-196.949" font-family="Times,serif" font-size="9.00">wallRadar[&#45;1,0]</text>
</g>
<!-- wallRadar[&#45;1,0]&#45;&gt; Move Left/Right -->
<g id="edge7" class="edge"><title>wallRadar[&#45;1,0]&#45;&gt; Move Left/Right</title>
<path fill="none" stroke="green" stroke-width="0.163728" d="M210.149,-191.719C213.311,-191.182 216.461,-190.652 219.5,-190.149 458.511,-150.61 743.127,-106.963 868.609,-87.8939"/>
<polygon fill="green" stroke="green" stroke-width="0.163728" points="869.448,-91.3065 878.81,-86.3446 868.397,-84.3859 869.448,-91.3065"/>
</g>
<!-- wallRadar[0,&#45;1] -->
<g id="node4" class="node"><title>wallRadar[0,&#45;1]</title>
<polygon fill="lightgray" stroke="black" points="1792,-208.149 1719,-208.149 1719,-190.149 1792,-190.149 1792,-208.149"/>
<text text-anchor="middle" x="1755.5" y="-196.949" font-family="Times,serif" font-size="9.00">wallRadar[0,&#45;1]</text>
</g>
<!-- Move Forward/Backward -->
<g id="node25" class="node"><title>Move Forward/Backward</title>
<ellipse fill="lightblue" stroke="black" cx="1679.5" cy="-77.0746" rx="77.1494" ry="77.1494"/>
<text text-anchor="middle" x="1679.5" y="-74.8746" font-family="Times,serif" font-size="9.00">Move Forward/Backward</text>
</g>
<!-- wallRadar[0,&#45;1]&#45;&gt;Move Forward/Backward -->
<g id="edge14" class="edge"><title>wallRadar[0,&#45;1]&#45;&gt;Move Forward/Backward</title>
<path fill="none" stroke="green" stroke-width="0.341762" d="M1750.28,-189.896C1744.84,-181.313 1735.76,-166.966 1725.89,-151.363"/>
<polygon fill="green" stroke="green" stroke-width="0.341762" points="1728.64,-149.171 1720.34,-142.593 1722.73,-152.915 1728.64,-149.171"/>
</g>
<!-- wallRadar[0,&#45;1]&#45;&gt; Move Left/Right -->
<g id="edge30" class="edge"><title>wallRadar[0,&#45;1]&#45;&gt; Move Left/Right</title>
<path fill="none" stroke="red" stroke-width="0.40808" d="M1718.89,-191.408C1715.72,-190.938 1712.56,-190.509 1709.5,-190.149 1452.55,-159.939 1381.15,-209.832 1128.5,-154.149 1081.06,-143.695 1030,-123.416 992.029,-106.424"/>
<polygon fill="red" stroke="red" stroke-width="0.40808" points="993.221,-103.121 982.668,-102.182 990.332,-109.498 993.221,-103.121"/>
</g>
<!-- wallRadar[0,&#45;1]&#45;&gt;Turn left/right -->
<g id="edge37" class="edge"><title>wallRadar[0,&#45;1]&#45;&gt;Turn left/right</title>
<path fill="none" stroke="green" stroke-width="0.226674" d="M1760.04,-189.896C1767.14,-176.976 1781.42,-150.998 1794.43,-127.331"/>
<polygon fill="green" stroke="green" stroke-width="0.226674" points="1797.58,-128.856 1799.33,-118.406 1791.45,-125.484 1797.58,-128.856"/>
</g>
<!-- wallRadar[0.7,0.7] -->
<g id="node5" class="node"><title>wallRadar[0.7,0.7]</title>
<polygon fill="lightgray" stroke="black" points="920,-208.149 837,-208.149 837,-190.149 920,-190.149 920,-208.149"/>
<text text-anchor="middle" x="878.5" y="-196.949" font-family="Times,serif" font-size="9.00">wallRadar[0.7,0.7]</text>
</g>
<!-- wallRadar[0.7,0.7]&#45;&gt;Shoot -->
<g id="edge8" class="edge"><title>wallRadar[0.7,0.7]&#45;&gt;Shoot</title>
<path fill="none" stroke="green" stroke-width="0.360508" d="M901.954,-190.05C926.097,-181.578 964.711,-167.658 997.5,-154.149 1044.55,-134.764 1097.9,-109.952 1131.38,-94.033"/>
<polygon fill="green" stroke="green" stroke-width="0.360508" points="1133.16,-97.058 1140.68,-89.5925 1130.15,-90.7404 1133.16,-97.058"/>
</g>
<!-- wallRadar[0.7,0.7]&#45;&gt;Move Forward/Backward -->
<g id="edge44" class="edge"><title>wallRadar[0.7,0.7]&#45;&gt;Move Forward/Backward</title>
<path fill="none" stroke="red" stroke-width="0.531763" d="M920.236,-191.521C923.37,-191.048 926.484,-190.586 929.5,-190.149 1049.75,-172.734 1080.27,-171.68 1200.5,-154.149 1338.11,-134.085 1497.53,-108.247 1593.34,-92.4353"/>
<polygon fill="red" stroke="red" stroke-width="0.531763" points="1593.97,-95.8781 1603.27,-90.795 1592.83,-88.9717 1593.97,-95.8781"/>
</g>
<!-- wallRadar[0.7,0.7]&#45;&gt; Move Left/Right -->
<g id="edge22" class="edge"><title>wallRadar[0.7,0.7]&#45;&gt; Move Left/Right</title>
<path fill="none" stroke="green" stroke-width="0.663407" stroke-dasharray="1,5" d="M882.28,-189.896C887.418,-178.68 897.062,-157.626 906.608,-136.784"/>
<polygon fill="green" stroke="green" stroke-width="0.663407" points="909.843,-138.128 910.825,-127.578 903.478,-135.212 909.843,-138.128"/>
</g>
<!-- wallRadar[&#45;0.7,0.7] -->
<g id="node6" class="node"><title>wallRadar[&#45;0.7,0.7]</title>
<polygon fill="lightgray" stroke="black" points="2077.5,-208.149 1991.5,-208.149 1991.5,-190.149 2077.5,-190.149 2077.5,-208.149"/>
<text text-anchor="middle" x="2034.5" y="-196.949" font-family="Times,serif" font-size="9.00">wallRadar[&#45;0.7,0.7]</text>
</g>
<!-- wallRadar[&#45;0.7,0.7]&#45;&gt;Shoot -->
<g id="edge35" class="edge"><title>wallRadar[&#45;0.7,0.7]&#45;&gt;Shoot</title>
<path fill="none" stroke="red" stroke-width="0.12873" d="M1991.4,-191.313C1988.39,-190.899 1985.4,-190.506 1982.5,-190.149 1810.17,-168.939 1765.57,-177.328 1593.5,-154.149 1447.38,-134.468 1275.08,-100.656 1201.16,-85.6402"/>
<polygon fill="red" stroke="red" stroke-width="0.12873" points="1201.48,-82.1338 1190.99,-83.5651 1200.09,-88.9926 1201.48,-82.1338"/>
</g>
<!-- wallRadar[&#45;0.7,0.7]&#45;&gt;Move Forward/Backward -->
<g id="edge38" class="edge"><title>wallRadar[&#45;0.7,0.7]&#45;&gt;Move Forward/Backward</title>
<path fill="none" stroke="red" stroke-width="0.36986" d="M1991.39,-191.41C1916.68,-179.69 1770.58,-156.562 1765.5,-154.149 1756.95,-150.089 1748.61,-144.916 1740.69,-139.184"/>
<polygon fill="red" stroke="red" stroke-width="0.36986" points="1742.69,-136.305 1732.61,-133.031 1738.45,-141.874 1742.69,-136.305"/>
</g>
<!-- wallRadar[&#45;0.7,0.7]&#45;&gt;Turn left/right -->
<g id="edge23" class="edge"><title>wallRadar[&#45;0.7,0.7]&#45;&gt;Turn left/right</title>
<path fill="none" stroke="green" stroke-width="0.181664" d="M2020.19,-190.084C1990.16,-173.155 1919.33,-133.225 1870.89,-105.916"/>
<polygon fill="green" stroke="green" stroke-width="0.181664" points="1872.55,-102.834 1862.12,-100.972 1869.11,-108.932 1872.55,-102.834"/>
</g>
<!-- wallRadar[&#45;0.7,&#45;0.7] -->
<g id="node7" class="node"><title>wallRadar[&#45;0.7,&#45;0.7]</title>
<polygon fill="lightgray" stroke="black" points="406,-208.149 317,-208.149 317,-190.149 406,-190.149 406,-208.149"/>
<text text-anchor="middle" x="361.5" y="-196.949" font-family="Times,serif" font-size="9.00">wallRadar[&#45;0.7,&#45;0.7]</text>
</g>
<!-- wallRadar[&#45;0.7,&#45;0.7]&#45;&gt;Shoot -->
<g id="edge20" class="edge"><title>wallRadar[&#45;0.7,&#45;0.7]&#45;&gt;Shoot</title>
<path fill="none" stroke="green" stroke-width="0.340575" d="M406.252,-191.219C409.378,-190.828 412.484,-190.465 415.5,-190.149 673.249,-163.135 746.054,-216.913 997.5,-154.149 1047.02,-141.79 1099.95,-115.111 1132.64,-96.8729"/>
<polygon fill="green" stroke="green" stroke-width="0.340575" points="1134.73,-99.713 1141.71,-91.7405 1131.28,-93.6214 1134.73,-99.713"/>
</g>
<!-- wallRadar[&#45;0.7,&#45;0.7]&#45;&gt; Move Left/Right -->
<g id="edge31" class="edge"><title>wallRadar[&#45;0.7,&#45;0.7]&#45;&gt; Move Left/Right</title>
<path fill="none" stroke="red" stroke-width="0.291092" d="M399.919,-190.084C496.424,-169.826 749.822,-116.632 869.35,-91.541"/>
<polygon fill="red" stroke="red" stroke-width="0.291092" points="870.386,-94.9 879.453,-89.4202 868.947,-88.0493 870.386,-94.9"/>
</g>
<!-- wallRadar[0.7,&#45;0.7] -->
<g id="node8" class="node"><title>wallRadar[0.7,&#45;0.7]</title>
<polygon fill="lightgray" stroke="black" points="2181.5,-208.149 2095.5,-208.149 2095.5,-190.149 2181.5,-190.149 2181.5,-208.149"/>
<text text-anchor="middle" x="2138.5" y="-196.949" font-family="Times,serif" font-size="9.00">wallRadar[0.7,&#45;0.7]</text>
</g>
<!-- wallRadar[0.7,&#45;0.7]&#45;&gt;Shoot -->
<g id="edge29" class="edge"><title>wallRadar[0.7,&#45;0.7]&#45;&gt;Shoot</title>
<path fill="none" stroke="green" stroke-width="0.28465" d="M2095.41,-191.249C2092.4,-190.85 2089.4,-190.478 2086.5,-190.149 1868.2,-165.427 1811.5,-181.365 1593.5,-154.149 1447.2,-135.885 1274.99,-101.332 1201.13,-85.8823"/>
<polygon fill="green" stroke="green" stroke-width="0.28465" points="1201.47,-82.3769 1190.96,-83.7456 1200.03,-89.2273 1201.47,-82.3769"/>
</g>
<!-- wallRadar[0.7,&#45;0.7]&#45;&gt;Turn left/right -->
<g id="edge43" class="edge"><title>wallRadar[0.7,&#45;0.7]&#45;&gt;Turn left/right</title>
<path fill="none" stroke="red" stroke-width="0.432422" d="M2117.21,-190.084C2068.09,-171.478 1945.62,-125.088 1874.65,-98.2062"/>
<polygon fill="red" stroke="red" stroke-width="0.432422" points="1875.58,-94.8167 1864.99,-94.5474 1873.1,-101.363 1875.58,-94.8167"/>
</g>
<!-- enemyRadar[RightBack] -->
<g id="node9" class="node"><title>enemyRadar[RightBack]</title>
<polygon fill="lightgray" stroke="black" points="2303.5,-208.149 2199.5,-208.149 2199.5,-190.149 2303.5,-190.149 2303.5,-208.149"/>
<text text-anchor="middle" x="2251.5" y="-196.949" font-family="Times,serif" font-size="9.00">enemyRadar[RightBack]</text>
</g>
<!-- enemyRadar[RightBack]&#45;&gt;Shoot -->
<g id="edge52" class="edge"><title>enemyRadar[RightBack]&#45;&gt;Shoot</title>
<path fill="none" stroke="red" stroke-width="0.17465" d="M2199.28,-191.056C2196.31,-190.729 2193.37,-190.424 2190.5,-190.149 1925.89,-164.851 1857.47,-185.408 1593.5,-154.149 1447.09,-136.812 1274.93,-101.774 1201.11,-86.0406"/>
<polygon fill="red" stroke="red" stroke-width="0.17465" points="1201.46,-82.5358 1190.95,-83.8637 1199.99,-89.3806 1201.46,-82.5358"/>
</g>
<!-- enemyRadar[RightBack]&#45;&gt;Move Forward/Backward -->
<g id="edge11" class="edge"><title>enemyRadar[RightBack]&#45;&gt;Move Forward/Backward</title>
<path fill="none" stroke="green" stroke-width="0.325044" d="M2199.28,-191.14C2196.31,-190.792 2193.37,-190.459 2190.5,-190.149 2096.26,-179.984 1852.64,-191.441 1765.5,-154.149 1756.8,-150.424 1748.36,-145.462 1740.39,-139.851"/>
<polygon fill="green" stroke="green" stroke-width="0.325044" points="1742.38,-136.965 1732.27,-133.792 1738.19,-142.576 1742.38,-136.965"/>
</g>
<!-- enemyRadar[RightBack]&#45;&gt;Turn left/right -->
<g id="edge47" class="edge"><title>enemyRadar[RightBack]&#45;&gt;Turn left/right</title>
<path fill="none" stroke="red" stroke-width="0.117883" d="M2222.62,-190.084C2151.76,-170.298 1968.4,-119.095 1876.17,-93.3409"/>
<polygon fill="red" stroke="red" stroke-width="0.117883" points="1877.03,-89.9484 1866.46,-90.6298 1875.15,-96.6905 1877.03,-89.9484"/>
</g>
<!-- enemyRadar[LeftBack] -->
<g id="node10" class="node"><title>enemyRadar[LeftBack]</title>
<polygon fill="lightgray" stroke="black" points="1568,-208.149 1469,-208.149 1469,-190.149 1568,-190.149 1568,-208.149"/>
<text text-anchor="middle" x="1518.5" y="-196.949" font-family="Times,serif" font-size="9.00">enemyRadar[LeftBack]</text>
</g>
<!-- enemyRadar[LeftBack]&#45;&gt;Shoot -->
<g id="edge1" class="edge"><title>enemyRadar[LeftBack]&#45;&gt;Shoot</title>
<path fill="none" stroke="green" stroke-width="0.373965" d="M1494.72,-190.084C1433.72,-169.394 1271.44,-114.347 1199.58,-89.9737"/>
<polygon fill="green" stroke="green" stroke-width="0.373965" points="1200.66,-86.6425 1190.06,-86.7448 1198.41,-93.2716 1200.66,-86.6425"/>
</g>
<!-- enemyRadar[LeftBack]&#45;&gt; Move Left/Right -->
<g id="edge53" class="edge"><title>enemyRadar[LeftBack]&#45;&gt; Move Left/Right</title>
<path fill="none" stroke="red" stroke-width="0.245122" d="M1468.94,-191.332C1465.75,-190.923 1462.58,-190.525 1459.5,-190.149 1312.61,-172.206 1272.23,-189.346 1128.5,-154.149 1081.48,-142.636 1030.6,-122.506 992.598,-105.844"/>
<polygon fill="red" stroke="red" stroke-width="0.245122" points="993.786,-102.542 983.226,-101.69 990.95,-108.942 993.786,-102.542"/>
</g>
<!-- enemyRadar[LeftBack]&#45;&gt;Turn left/right -->
<g id="edge32" class="edge"><title>enemyRadar[LeftBack]&#45;&gt;Turn left/right</title>
<path fill="none" stroke="green" stroke-width="0.257515" d="M1568.17,-191.315C1635.42,-181.755 1748.99,-164.413 1765.5,-154.149 1776.49,-147.316 1786.02,-137.468 1793.96,-127.113"/>
<polygon fill="green" stroke="green" stroke-width="0.257515" points="1796.98,-128.909 1799.97,-118.747 1791.29,-124.822 1796.98,-128.909"/>
</g>
<!-- enemyRadar[Right45ø] -->
<g id="node11" class="node"><title>enemyRadar[Right45ø]</title>
<polygon fill="lightgray" stroke="black" points="1038.5,-208.149 938.5,-208.149 938.5,-190.149 1038.5,-190.149 1038.5,-208.149"/>
<text text-anchor="middle" x="988.5" y="-196.949" font-family="Times,serif" font-size="9.00">enemyRadar[Right45ø]</text>
</g>
<!-- enemyRadar[Right45ø]&#45;&gt;Shoot -->
<g id="edge4" class="edge"><title>enemyRadar[Right45ø]&#45;&gt;Shoot</title>
<path fill="none" stroke="green" stroke-width="0.190643" d="M1000.32,-190.084C1027.41,-171.606 1094.66,-125.725 1134.17,-98.7638"/>
<polygon fill="green" stroke="green" stroke-width="0.190643" points="1136.35,-101.518 1142.64,-92.9912 1132.4,-95.7358 1136.35,-101.518"/>
</g>
<!-- enemyRadar[Right45ø]&#45;&gt;Move Forward/Backward -->
<g id="edge54" class="edge"><title>enemyRadar[Right45ø]&#45;&gt;Move Forward/Backward</title>
<path fill="none" stroke="red" stroke-width="0.361926" d="M1034.64,-190.131C1148.82,-170.29 1445.98,-118.653 1593.64,-92.9942"/>
<polygon fill="red" stroke="red" stroke-width="0.361926" points="1594.33,-96.4278 1603.58,-91.2673 1593.13,-89.5311 1594.33,-96.4278"/>
</g>
<!-- enemyRadar[Right45ø]&#45;&gt; Move Left/Right -->
<g id="edge18" class="edge"><title>enemyRadar[Right45ø]&#45;&gt; Move Left/Right</title>
<path fill="none" stroke="red" stroke-width="0.300036" d="M984.72,-189.896C979.582,-178.68 969.938,-157.626 960.392,-136.784"/>
<polygon fill="red" stroke="red" stroke-width="0.300036" points="963.522,-135.212 956.175,-127.578 957.157,-138.128 963.522,-135.212"/>
</g>
<!-- enemyRadar[Left45ø] -->
<g id="node12" class="node"><title>enemyRadar[Left45ø]</title>
<polygon fill="lightgray" stroke="black" points="1905,-208.149 1810,-208.149 1810,-190.149 1905,-190.149 1905,-208.149"/>
<text text-anchor="middle" x="1857.5" y="-196.949" font-family="Times,serif" font-size="9.00">enemyRadar[Left45ø]</text>
</g>
<!-- enemyRadar[Left45ø]&#45;&gt;Shoot -->
<g id="edge3" class="edge"><title>enemyRadar[Left45ø]&#45;&gt;Shoot</title>
<path fill="none" stroke="red" stroke-width="0.243911" d="M1809.78,-190.349C1756.89,-181.667 1669.06,-167.145 1593.5,-154.149 1448.2,-129.158 1275.46,-98.122 1201.3,-84.7333"/>
<polygon fill="red" stroke="red" stroke-width="0.243911" points="1201.55,-81.2221 1191.09,-82.8888 1200.31,-88.1106 1201.55,-81.2221"/>
</g>
<!-- enemyRadar[Left45ø]&#45;&gt;Move Forward/Backward -->
<g id="edge2" class="edge"><title>enemyRadar[Left45ø]&#45;&gt;Move Forward/Backward</title>
<path fill="none" stroke="red" stroke-width="0.284148" d="M1836.52,-190.085C1817.28,-182.24 1788.38,-169.307 1765.5,-154.149 1757.93,-149.136 1750.34,-143.5 1742.96,-137.621"/>
<polygon fill="red" stroke="red" stroke-width="0.284148" points="1745.02,-134.78 1735.06,-131.163 1740.59,-140.201 1745.02,-134.78"/>
</g>
<!-- enemyRadar[Left45ø]&#45;&gt;Turn left/right -->
<g id="edge12" class="edge"><title>enemyRadar[Left45ø]&#45;&gt;Turn left/right</title>
<path fill="none" stroke="green" stroke-width="0.162377" d="M1855.03,-189.896C1851.4,-177.803 1844.35,-154.273 1837.64,-131.904"/>
<polygon fill="green" stroke="green" stroke-width="0.162377" points="1840.92,-130.664 1834.7,-122.091 1834.22,-132.675 1840.92,-130.664"/>
</g>
<!-- enemyRadar[RightFront20ø] -->
<g id="node13" class="node"><title>enemyRadar[RightFront20ø]</title>
<polygon fill="lightgray" stroke="black" points="119,-208.149 0,-208.149 0,-190.149 119,-190.149 119,-208.149"/>
<text text-anchor="middle" x="59.5" y="-196.949" font-family="Times,serif" font-size="9.00">enemyRadar[RightFront20ø]</text>
</g>
<!-- enemyRadar[RightFront20ø]&#45;&gt; Move Left/Right -->
<g id="edge15" class="edge"><title>enemyRadar[RightFront20ø]&#45;&gt; Move Left/Right</title>
<path fill="none" stroke="green" stroke-width="0.745073" d="M117.862,-190.131C274.824,-168.567 705.171,-109.444 869.009,-86.9347"/>
<polygon fill="green" stroke="green" stroke-width="0.745073" points="869.514,-90.3983 878.945,-85.5697 868.561,-83.4635 869.514,-90.3983"/>
</g>
<!-- enemyRadar[LeftFront20ø] -->
<g id="node14" class="node"><title>enemyRadar[LeftFront20ø]</title>
<polygon fill="lightgray" stroke="black" points="1700.5,-208.149 1586.5,-208.149 1586.5,-190.149 1700.5,-190.149 1700.5,-208.149"/>
<text text-anchor="middle" x="1643.5" y="-196.949" font-family="Times,serif" font-size="9.00">enemyRadar[LeftFront20ø]</text>
</g>
<!-- enemyRadar[LeftFront20ø]&#45;&gt;Shoot -->
<g id="edge28" class="edge"><title>enemyRadar[LeftFront20ø]&#45;&gt;Shoot</title>
<path fill="none" stroke="red" stroke-width="0.311759" d="M1611.33,-190.084C1525.29,-168.516 1290.31,-109.613 1200.27,-87.0413"/>
<polygon fill="red" stroke="red" stroke-width="0.311759" points="1201.07,-83.6343 1190.52,-84.5976 1199.37,-90.4242 1201.07,-83.6343"/>
</g>
<!-- enemyRadar[LeftFront20ø]&#45;&gt;Move Forward/Backward -->
<g id="edge46" class="edge"><title>enemyRadar[LeftFront20ø]&#45;&gt;Move Forward/Backward</title>
<path fill="none" stroke="green" stroke-width="0.173501" d="M1645.97,-189.896C1648.02,-183.081 1651.15,-172.634 1654.7,-160.809"/>
<polygon fill="green" stroke="green" stroke-width="0.173501" points="1658.09,-161.657 1657.61,-151.074 1651.39,-159.647 1658.09,-161.657"/>
</g>
<!-- enemyRadar[LeftFront20ø]&#45;&gt; Move Left/Right -->
<g id="edge48" class="edge"><title>enemyRadar[LeftFront20ø]&#45;&gt; Move Left/Right</title>
<path fill="none" stroke="red" stroke-width="0.237737" d="M1586.28,-191.069C1583.31,-190.747 1580.37,-190.438 1577.5,-190.149 1378.31,-170.1 1323.61,-199.007 1128.5,-154.149 1081.32,-143.303 1030.44,-123.146 992.489,-106.304"/>
<polygon fill="red" stroke="red" stroke-width="0.237737" points="993.684,-103.005 983.128,-102.102 990.817,-109.391 993.684,-103.005"/>
</g>
<!-- enemyRadar[LeftFront20ø]&#45;&gt;Turn left/right -->
<g id="edge6" class="edge"><title>enemyRadar[LeftFront20ø]&#45;&gt;Turn left/right</title>
<path fill="none" stroke="green" stroke-width="0.314209" d="M1683.18,-190.138C1708.55,-183.573 1741.14,-172.331 1765.5,-154.149 1775.66,-146.564 1784.8,-136.62 1792.59,-126.434"/>
<polygon fill="green" stroke="green" stroke-width="0.314209" points="1795.49,-128.397 1798.56,-118.254 1789.84,-124.274 1795.49,-128.397"/>
</g>
<!-- enemyRadar[RightFront15ø] -->
<g id="node15" class="node"><title>enemyRadar[RightFront15ø]</title>
<polygon fill="lightgray" stroke="black" points="684,-208.149 565,-208.149 565,-190.149 684,-190.149 684,-208.149"/>
<text text-anchor="middle" x="624.5" y="-196.949" font-family="Times,serif" font-size="9.00">enemyRadar[RightFront15ø]</text>
</g>
<!-- enemyRadar[RightFront15ø]&#45;&gt;Shoot -->
<g id="edge51" class="edge"><title>enemyRadar[RightFront15ø]&#45;&gt;Shoot</title>
<path fill="none" stroke="green" stroke-width="0.277725" d="M684.114,-191.235C788.502,-179.111 993.756,-155.195 997.5,-154.149 1046.65,-140.417 1099.68,-114.084 1132.49,-96.2961"/>
<polygon fill="green" stroke="green" stroke-width="0.277725" points="1134.51,-99.1797 1141.59,-91.2986 1131.14,-93.0438 1134.51,-99.1797"/>
</g>
<!-- enemyRadar[RightFront15ø]&#45;&gt;Move Forward/Backward -->
<g id="edge36" class="edge"><title>enemyRadar[RightFront15ø]&#45;&gt;Move Forward/Backward</title>
<path fill="none" stroke="green" stroke-width="0.38342" d="M684.322,-191.048C687.425,-190.732 690.498,-190.43 693.5,-190.149 918.421,-169.136 976.071,-179.89 1200.5,-154.149 1338.86,-138.28 1498.38,-111.161 1593.97,-93.9534"/>
<polygon fill="green" stroke="green" stroke-width="0.38342" points="1594.65,-97.3864 1603.87,-92.1647 1593.41,-90.4978 1594.65,-97.3864"/>
</g>
<!-- enemyRadar[RightFront15ø]&#45;&gt; Move Left/Right -->
<g id="edge26" class="edge"><title>enemyRadar[RightFront15ø]&#45;&gt; Move Left/Right</title>
<path fill="none" stroke="green" stroke-width="0.255219" d="M645.254,-190.084C691.133,-172.256 802.652,-128.921 872.757,-101.679"/>
<polygon fill="green" stroke="green" stroke-width="0.255219" points="874.309,-104.831 882.363,-97.9462 871.774,-98.306 874.309,-104.831"/>
</g>
<!-- enemyRadar[LeftFront15ø] -->
<g id="node16" class="node"><title>enemyRadar[LeftFront15ø]</title>
<polygon fill="lightgray" stroke="black" points="2435.5,-208.149 2321.5,-208.149 2321.5,-190.149 2435.5,-190.149 2435.5,-208.149"/>
<text text-anchor="middle" x="2378.5" y="-196.949" font-family="Times,serif" font-size="9.00">enemyRadar[LeftFront15ø]</text>
</g>
<!-- enemyRadar[LeftFront15ø]&#45;&gt;Move Forward/Backward -->
<g id="edge9" class="edge"><title>enemyRadar[LeftFront15ø]&#45;&gt;Move Forward/Backward</title>
<path fill="none" stroke="red" stroke-width="0.18085" d="M2321.28,-191.019C2318.31,-190.71 2315.37,-190.418 2312.5,-190.149 2191.21,-178.816 1877.94,-201.023 1765.5,-154.149 1756.76,-150.506 1748.3,-145.595 1740.32,-140.014"/>
<polygon fill="red" stroke="red" stroke-width="0.18085" points="1742.31,-137.127 1732.19,-133.979 1738.14,-142.748 1742.31,-137.127"/>
</g>
<!-- enemyRadar[LeftFront15ø]&#45;&gt;Turn left/right -->
<g id="edge33" class="edge"><title>enemyRadar[LeftFront15ø]&#45;&gt;Turn left/right</title>
<path fill="none" stroke="red" stroke-width="0.277919" d="M2341.09,-190.084C2245.2,-169.412 1990.22,-114.447 1877.01,-90.0402"/>
<polygon fill="red" stroke="red" stroke-width="0.277919" points="1877.66,-86.6016 1867.15,-87.9156 1876.19,-93.4444 1877.66,-86.6016"/>
</g>
<!-- enemyRadar[RightFront7.5ø] -->
<g id="node17" class="node"><title>enemyRadar[RightFront7.5ø]</title>
<polygon fill="lightgray" stroke="black" points="546.5,-208.149 424.5,-208.149 424.5,-190.149 546.5,-190.149 546.5,-208.149"/>
<text text-anchor="middle" x="485.5" y="-196.949" font-family="Times,serif" font-size="9.00">enemyRadar[RightFront7.5ø]</text>
</g>
<!-- enemyRadar[RightFront7.5ø]&#45;&gt;Shoot -->
<g id="edge13" class="edge"><title>enemyRadar[RightFront7.5ø]&#45;&gt;Shoot</title>
<path fill="none" stroke="green" stroke-width="0.662854" d="M546.678,-191.135C550,-190.792 553.29,-190.461 556.5,-190.149 752.231,-171.138 807.18,-203.649 997.5,-154.149 1046.89,-141.303 1099.86,-114.747 1132.59,-96.6685"/>
<polygon fill="green" stroke="green" stroke-width="0.662854" points="1134.65,-99.5243 1141.67,-91.5839 1131.23,-93.4171 1134.65,-99.5243"/>
</g>
<!-- enemyRadar[RightFront7.5ø]&#45;&gt; Move Left/Right -->
<g id="edge24" class="edge"><title>enemyRadar[RightFront7.5ø]&#45;&gt; Move Left/Right</title>
<path fill="none" stroke="red" stroke-width="0.146723" stroke-dasharray="1,5" d="M515.59,-190.084C587.95,-170.69 772.928,-121.112 870.719,-94.9014"/>
<polygon fill="red" stroke="red" stroke-width="0.146723" points="871.725,-98.2554 880.478,-92.2858 869.913,-91.494 871.725,-98.2554"/>
</g>
<!-- enemyRadar[LeftFront7.5ø] -->
<g id="node18" class="node"><title>enemyRadar[LeftFront7.5ø]</title>
<polygon fill="lightgray" stroke="black" points="1450.5,-208.149 1334.5,-208.149 1334.5,-190.149 1450.5,-190.149 1450.5,-208.149"/>
<text text-anchor="middle" x="1392.5" y="-196.949" font-family="Times,serif" font-size="9.00">enemyRadar[LeftFront7.5ø]</text>
</g>
<!-- enemyRadar[LeftFront7.5ø]&#45;&gt; Move Left/Right -->
<g id="edge21" class="edge"><title>enemyRadar[LeftFront7.5ø]&#45;&gt; Move Left/Right</title>
<path fill="none" stroke="red" stroke-width="0.208452" d="M1336.03,-190.137C1270.5,-180.593 1166.58,-164.629 1128.5,-154.149 1081.83,-141.305 1030.93,-121.229 992.837,-104.925"/>
<polygon fill="red" stroke="red" stroke-width="0.208452" points="994.008,-101.619 983.439,-100.868 991.233,-108.045 994.008,-101.619"/>
</g>
<!-- enemyRadar[LeftFront7.5ø]&#45;&gt;Turn left/right -->
<g id="edge45" class="edge"><title>enemyRadar[LeftFront7.5ø]&#45;&gt;Turn left/right</title>
<path fill="none" stroke="red" stroke-width="0.133548" d="M1450.74,-191.297C1555.58,-178.961 1765.29,-154.272 1765.5,-154.149 1776.91,-147.513 1786.68,-137.53 1794.71,-126.96"/>
<polygon fill="red" stroke="red" stroke-width="0.133548" points="1797.57,-128.986 1800.52,-118.809 1791.87,-124.925 1797.57,-128.986"/>
</g>
<!-- enemyRadar[RightFront2.5ø] -->
<g id="node19" class="node"><title>enemyRadar[RightFront2.5ø]</title>
<polygon fill="lightgray" stroke="black" points="1178.5,-208.149 1056.5,-208.149 1056.5,-190.149 1178.5,-190.149 1178.5,-208.149"/>
<text text-anchor="middle" x="1117.5" y="-196.949" font-family="Times,serif" font-size="9.00">enemyRadar[RightFront2.5ø]</text>
</g>
<!-- enemyRadar[RightFront2.5ø]&#45;&gt;Shoot -->
<g id="edge42" class="edge"><title>enemyRadar[RightFront2.5ø]&#45;&gt;Shoot</title>
<path fill="none" stroke="red" stroke-width="0.295733" d="M1120.73,-189.896C1126.94,-174.04 1140.84,-138.52 1151.32,-111.738"/>
<polygon fill="red" stroke="red" stroke-width="0.295733" points="1154.62,-112.907 1155.01,-102.319 1148.11,-110.356 1154.62,-112.907"/>
</g>
<!-- enemyRadar[RightFront2.5ø]&#45;&gt; Move Left/Right -->
<g id="edge25" class="edge"><title>enemyRadar[RightFront2.5ø]&#45;&gt; Move Left/Right</title>
<path fill="none" stroke="green" stroke-width="0.452396" d="M1105.14,-190.084C1081.52,-174.67 1028.68,-140.188 987.824,-113.526"/>
<polygon fill="green" stroke="green" stroke-width="0.452396" points="989.59,-110.499 979.303,-107.965 985.765,-116.361 989.59,-110.499"/>
</g>
<!-- enemyRadar[RightFront2.5ø]&#45;&gt;Turn left/right -->
<g id="edge50" class="edge"><title>enemyRadar[RightFront2.5ø]&#45;&gt;Turn left/right</title>
<path fill="none" stroke="green" stroke-width="0.201917" d="M1178.67,-191.061C1181.99,-190.737 1185.29,-190.43 1188.5,-190.149 1252.49,-184.551 1709.11,-184.905 1765.5,-154.149 1777.09,-147.83 1786.92,-137.964 1794.97,-127.407"/>
<polygon fill="green" stroke="green" stroke-width="0.201917" points="1797.83,-129.426 1800.76,-119.247 1792.12,-125.371 1797.83,-129.426"/>
</g>
<!-- enemyRadar[LeftFront2.5ø] -->
<g id="node20" class="node"><title>enemyRadar[LeftFront2.5ø]</title>
<polygon fill="lightgray" stroke="black" points="818.5,-208.149 702.5,-208.149 702.5,-190.149 818.5,-190.149 818.5,-208.149"/>
<text text-anchor="middle" x="760.5" y="-196.949" font-family="Times,serif" font-size="9.00">enemyRadar[LeftFront2.5ø]</text>
</g>
<!-- enemyRadar[LeftFront2.5ø]&#45;&gt;Move Forward/Backward -->
<g id="edge34" class="edge"><title>enemyRadar[LeftFront2.5ø]&#45;&gt;Move Forward/Backward</title>
<path fill="none" stroke="red" stroke-width="0.344225" d="M818.73,-191.219C822.034,-190.85 825.309,-190.491 828.5,-190.149 993.659,-172.444 1035.73,-175.186 1200.5,-154.149 1338.65,-136.511 1498.23,-109.909 1593.88,-93.2888"/>
<polygon fill="red" stroke="red" stroke-width="0.344225" points="1594.55,-96.7265 1603.8,-91.5625 1593.34,-89.8303 1594.55,-96.7265"/>
</g>
<!-- enemyRadar[LeftFront2.5ø]&#45;&gt; Move Left/Right -->
<g id="edge27" class="edge"><title>enemyRadar[LeftFront2.5ø]&#45;&gt; Move Left/Right</title>
<path fill="none" stroke="green" stroke-width="0.142823" d="M772.12,-190.084C793.883,-174.979 842.029,-141.562 880.1,-115.138"/>
<polygon fill="green" stroke="green" stroke-width="0.142823" points="882.33,-117.851 888.55,-109.273 878.339,-112.1 882.33,-117.851"/>
</g>
<!-- enemyRadar[Front7Ø] -->
<g id="node21" class="node"><title>enemyRadar[Front7Ø]</title>
<polygon fill="lightgray" stroke="black" points="2551.5,-208.149 2453.5,-208.149 2453.5,-190.149 2551.5,-190.149 2551.5,-208.149"/>
<text text-anchor="middle" x="2502.5" y="-196.949" font-family="Times,serif" font-size="9.00">enemyRadar[Front7Ø]</text>
</g>
<!-- enemyRadar[Front7Ø]&#45;&gt;Turn left/right -->
<g id="edge5" class="edge"><title>enemyRadar[Front7Ø]&#45;&gt;Turn left/right</title>
<path fill="none" stroke="green" stroke-width="0.76132" d="M2457.03,-190.131C2336.49,-168.879 2009.07,-111.147 1877.42,-87.9348"/>
<polygon fill="green" stroke="green" stroke-width="0.76132" points="1877.99,-84.4818 1867.54,-86.1922 1876.78,-91.3755 1877.99,-84.4818"/>
</g>
<!-- OnTarget -->
<g id="node22" class="node"><title>OnTarget</title>
<polygon fill="lightgray" stroke="black" points="1973.5,-208.149 1923.5,-208.149 1923.5,-190.149 1973.5,-190.149 1973.5,-208.149"/>
<text text-anchor="middle" x="1948.5" y="-196.949" font-family="Times,serif" font-size="9.00">OnTarget</text>
</g>
<!-- OnTarget&#45;&gt;Move Forward/Backward -->
<g id="edge49" class="edge"><title>OnTarget&#45;&gt;Move Forward/Backward</title>
<path fill="none" stroke="green" stroke-width="0.279616" d="M1923.35,-192.184C1873.6,-180.375 1767.28,-155.074 1765.5,-154.149 1757.32,-149.89 1749.29,-144.685 1741.62,-139.016"/>
<polygon fill="green" stroke="green" stroke-width="0.279616" points="1743.5,-136.047 1733.45,-132.705 1739.22,-141.588 1743.5,-136.047"/>
</g>
<!-- bias -->
<g id="node23" class="node"><title>bias</title>
<polygon fill="lightgray" stroke="black" points="1228,-208.149 1197,-208.149 1197,-190.149 1228,-190.149 1228,-208.149"/>
<text text-anchor="middle" x="1212.5" y="-196.949" font-family="Times,serif" font-size="9.00">bias</text>
</g>
<!-- bias&#45;&gt;Shoot -->
<g id="edge40" class="edge"><title>bias&#45;&gt;Shoot</title>
<path fill="none" stroke="red" stroke-width="0.161479" d="M1209.2,-189.896C1202.86,-174.04 1188.66,-138.52 1177.96,-111.738"/>
<polygon fill="red" stroke="red" stroke-width="0.161479" points="1181.15,-110.306 1174.19,-102.319 1174.65,-112.904 1181.15,-110.306"/>
</g>
<!-- bias&#45;&gt; Move Left/Right -->
<g id="edge19" class="edge"><title>bias&#45;&gt; Move Left/Right</title>
<path fill="none" stroke="red" stroke-width="0.158858" d="M1196.7,-191.35C1158.3,-174.823 1058.45,-131.852 993.372,-103.842"/>
<polygon fill="red" stroke="red" stroke-width="0.158858" points="994.603,-100.561 984.034,-99.8231 991.835,-106.991 994.603,-100.561"/>
</g>
<!-- bias&#45;&gt;Turn left/right -->
<g id="edge16" class="edge"><title>bias&#45;&gt;Turn left/right</title>
<path fill="none" stroke="green" stroke-width="0.190448" d="M1228.22,-192.484C1231.27,-191.568 1234.46,-190.731 1237.5,-190.149 1353.01,-168.067 1662.41,-210.755 1765.5,-154.149 1777.07,-147.796 1786.9,-137.918 1794.94,-127.36"/>
<polygon fill="green" stroke="green" stroke-width="0.190448" points="1797.8,-129.379 1800.74,-119.201 1792.09,-125.324 1797.8,-129.379"/>
</g>
</g>
</svg>
