<?xml version="1.0" encoding="UTF-8" standalone="no"?>
<!DOCTYPE svg PUBLIC "-//W3C//DTD SVG 1.1//EN"
 "http://www.w3.org/Graphics/SVG/1.1/DTD/svg11.dtd">
<!-- Generated by graphviz version 2.38.0 (20140413.2041)
 -->
<!-- Title: %3 Pages: 1 -->
<svg width="2559pt" height="216pt"
 viewBox="0.00 0.00 2558.50 216.15" xmlns="http://www.w3.org/2000/svg" xmlns:xlink="http://www.w3.org/1999/xlink">
<g id="graph0" class="graph" transform="scale(1 1) rotate(0) translate(4 212.149)">
<title>%3</title>
<polygon fill="white" stroke="none" points="-4,4 -4,-212.149 2554.5,-212.149 2554.5,4 -4,4"/>
<!-- wallRadar[1,0] -->
<g id="node1" class="node"><title>wallRadar[1,0]</title>
<polygon fill="lightgray" stroke="black" points="293.5,-208.149 223.5,-208.149 223.5,-190.149 293.5,-190.149 293.5,-208.149"/>
<text text-anchor="middle" x="258.5" y="-196.949" font-family="Times,serif" font-size="9.00">wallRadar[1,0]</text>
</g>
<!-- Shoot -->
<g id="node24" class="node"><title>Shoot</title>
<ellipse fill="lightblue" stroke="black" cx="915.5" cy="-77.0746" rx="26.7407" ry="26.7407"/>
<text text-anchor="middle" x="915.5" y="-74.8746" font-family="Times,serif" font-size="9.00">Shoot</text>
</g>
<!-- wallRadar[1,0]&#45;&gt;Shoot -->
<g id="edge44" class="edge"><title>wallRadar[1,0]&#45;&gt;Shoot</title>
<path fill="none" stroke="red" stroke-width="0.324195" d="M293.823,-191.694C407.548,-170.909 763.472,-105.86 878.937,-84.7569"/>
<polygon fill="red" stroke="red" stroke-width="0.324195" points="879.826,-88.1526 889.033,-82.9117 878.567,-81.2667 879.826,-88.1526"/>
</g>
<!-- Move Forward/Backward -->
<g id="node25" class="node"><title>Move Forward/Backward</title>
<ellipse fill="lightblue" stroke="black" cx="1122.5" cy="-77.0746" rx="77.1494" ry="77.1494"/>
<text text-anchor="middle" x="1122.5" y="-74.8746" font-family="Times,serif" font-size="9.00">Move Forward/Backward</text>
</g>
<!-- wallRadar[1,0]&#45;&gt;Move Forward/Backward -->
<g id="edge52" class="edge"><title>wallRadar[1,0]&#45;&gt;Move Forward/Backward</title>
<path fill="none" stroke="red" stroke-width="0.197961" d="M293.505,-191.379C296.54,-190.915 299.57,-190.496 302.5,-190.149 589.391,-156.245 670.688,-221.977 951.5,-154.149 983.563,-146.405 1017.09,-132.84 1045.87,-119.289"/>
<polygon fill="red" stroke="red" stroke-width="0.197961" points="1047.53,-122.373 1055.04,-114.897 1044.51,-116.06 1047.53,-122.373"/>
</g>
<!-- Turn left/right -->
<g id="node27" class="node"><title>Turn left/right</title>
<ellipse fill="lightblue" stroke="black" cx="1319.5" cy="-77.0746" rx="46.8387" ry="46.8387"/>
<text text-anchor="middle" x="1319.5" y="-74.8746" font-family="Times,serif" font-size="9.00">Turn left/right</text>
</g>
<!-- wallRadar[1,0]&#45;&gt;Turn left/right -->
<g id="edge49" class="edge"><title>wallRadar[1,0]&#45;&gt;Turn left/right</title>
<path fill="none" stroke="green" stroke-width="0.234945" d="M293.979,-191.258C296.855,-190.834 299.722,-190.456 302.5,-190.149 502.779,-168.073 1017.25,-217.584 1208.5,-154.149 1233.34,-145.912 1257.69,-130.321 1277.22,-115.387"/>
<polygon fill="green" stroke="green" stroke-width="0.234945" points="1279.59,-117.981 1285.29,-109.051 1275.26,-112.477 1279.59,-117.981"/>
</g>
<!-- wallRadar[0,1] -->
<g id="node2" class="node"><title>wallRadar[0,1]</title>
<polygon fill="lightgray" stroke="black" points="2318.5,-208.149 2248.5,-208.149 2248.5,-190.149 2318.5,-190.149 2318.5,-208.149"/>
<text text-anchor="middle" x="2283.5" y="-196.949" font-family="Times,serif" font-size="9.00">wallRadar[0,1]</text>
</g>
<!--  Move Left/Right -->
<g id="node26" class="node"><title> Move Left/Right</title>
<ellipse fill="lightblue" stroke="black" cx="1733.5" cy="-77.0746" rx="55.3091" ry="55.3091"/>
<text text-anchor="middle" x="1733.5" y="-74.8746" font-family="Times,serif" font-size="9.00"> Move Left/Right</text>
</g>
<!-- wallRadar[0,1]&#45;&gt; Move Left/Right -->
<g id="edge46" class="edge"><title>wallRadar[0,1]&#45;&gt; Move Left/Right</title>
<path fill="none" stroke="red" stroke-width="0.340102" d="M2248.26,-190.455C2157.26,-170.589 1913.42,-117.355 1797.03,-91.9444"/>
<polygon fill="red" stroke="red" stroke-width="0.340102" points="1797.7,-88.5085 1787.18,-89.795 1796.21,-95.3474 1797.7,-88.5085"/>
</g>
<!-- wallRadar[&#45;1,0] -->
<g id="node3" class="node"><title>wallRadar[&#45;1,0]</title>
<polygon fill="lightgray" stroke="black" points="73,-208.149 0,-208.149 0,-190.149 73,-190.149 73,-208.149"/>
<text text-anchor="middle" x="36.5" y="-196.949" font-family="Times,serif" font-size="9.00">wallRadar[&#45;1,0]</text>
</g>
<!-- wallRadar[&#45;1,0]&#45;&gt;Shoot -->
<g id="edge27" class="edge"><title>wallRadar[&#45;1,0]&#45;&gt;Shoot</title>
<path fill="none" stroke="green" stroke-width="0.68312" d="M73.1374,-191.647C76.3016,-191.125 79.4557,-190.619 82.5,-190.149 389.474,-142.823 761.853,-96.7161 878.651,-82.519"/>
<polygon fill="green" stroke="green" stroke-width="0.68312" points="879.328,-85.9627 888.833,-81.2836 878.484,-79.0137 879.328,-85.9627"/>
</g>
<!-- wallRadar[0,&#45;1] -->
<g id="node4" class="node"><title>wallRadar[0,&#45;1]</title>
<polygon fill="lightgray" stroke="black" points="2410,-208.149 2337,-208.149 2337,-190.149 2410,-190.149 2410,-208.149"/>
<text text-anchor="middle" x="2373.5" y="-196.949" font-family="Times,serif" font-size="9.00">wallRadar[0,&#45;1]</text>
</g>
<!-- wallRadar[0,&#45;1]&#45;&gt; Move Left/Right -->
<g id="edge23" class="edge"><title>wallRadar[0,&#45;1]&#45;&gt; Move Left/Right</title>
<path fill="none" stroke="green" stroke-width="0.278567" d="M2336.79,-191.262C2232.08,-171.617 1930.95,-115.119 1797.95,-90.1674"/>
<polygon fill="green" stroke="green" stroke-width="0.278567" points="1798.38,-86.6868 1787.91,-88.2827 1797.09,-93.5667 1798.38,-86.6868"/>
</g>
<!-- wallRadar[0.7,0.7] -->
<g id="node5" class="node"><title>wallRadar[0.7,0.7]</title>
<polygon fill="lightgray" stroke="black" points="1076,-208.149 993,-208.149 993,-190.149 1076,-190.149 1076,-208.149"/>
<text text-anchor="middle" x="1034.5" y="-196.949" font-family="Times,serif" font-size="9.00">wallRadar[0.7,0.7]</text>
</g>
<!-- wallRadar[0.7,0.7]&#45;&gt;Shoot -->
<g id="edge26" class="edge"><title>wallRadar[0.7,0.7]&#45;&gt;Shoot</title>
<path fill="none" stroke="green" stroke-width="0.300867" d="M1026.32,-189.896C1009.04,-172.461 968.197,-131.247 941.215,-104.022"/>
<polygon fill="green" stroke="green" stroke-width="0.300867" points="943.529,-101.385 934.004,-96.7457 938.557,-106.312 943.529,-101.385"/>
</g>
<!-- wallRadar[0.7,0.7]&#45;&gt;Move Forward/Backward -->
<g id="edge25" class="edge"><title>wallRadar[0.7,0.7]&#45;&gt;Move Forward/Backward</title>
<path fill="none" stroke="green" stroke-width="0.191716" d="M1040.55,-189.896C1047.29,-180.698 1058.88,-164.883 1071.26,-147.995"/>
<polygon fill="green" stroke="green" stroke-width="0.191716" points="1074.29,-149.777 1077.38,-139.643 1068.64,-145.639 1074.29,-149.777"/>
</g>
<!-- wallRadar[0.7,0.7]&#45;&gt; Move Left/Right -->
<g id="edge31" class="edge"><title>wallRadar[0.7,0.7]&#45;&gt; Move Left/Right</title>
<path fill="none" stroke="red" stroke-width="0.325397" d="M1076.23,-191.491C1079.37,-191.026 1082.48,-190.573 1085.5,-190.149 1214.12,-172.083 1247.42,-175.667 1375.5,-154.149 1479.27,-136.716 1598.6,-110.002 1669.93,-93.3106"/>
<polygon fill="red" stroke="red" stroke-width="0.325397" points="1671.16,-96.6163 1680.1,-90.9229 1669.56,-89.8016 1671.16,-96.6163"/>
</g>
<!-- wallRadar[&#45;0.7,0.7] -->
<g id="node6" class="node"><title>wallRadar[&#45;0.7,0.7]</title>
<polygon fill="lightgray" stroke="black" points="397.5,-208.149 311.5,-208.149 311.5,-190.149 397.5,-190.149 397.5,-208.149"/>
<text text-anchor="middle" x="354.5" y="-196.949" font-family="Times,serif" font-size="9.00">wallRadar[&#45;0.7,0.7]</text>
</g>
<!-- wallRadar[&#45;0.7,0.7]&#45;&gt;Shoot -->
<g id="edge12" class="edge"><title>wallRadar[&#45;0.7,0.7]&#45;&gt;Shoot</title>
<path fill="none" stroke="red" stroke-width="0.125296" d="M392.18,-190.084C494.801,-168.12 778.305,-107.439 879.238,-85.836"/>
<polygon fill="red" stroke="red" stroke-width="0.125296" points="880.206,-89.2082 889.252,-83.6927 878.741,-82.3633 880.206,-89.2082"/>
</g>
<!-- wallRadar[&#45;0.7,0.7]&#45;&gt;Move Forward/Backward -->
<g id="edge50" class="edge"><title>wallRadar[&#45;0.7,0.7]&#45;&gt;Move Forward/Backward</title>
<path fill="none" stroke="red" stroke-width="0.109072" d="M397.592,-191.225C400.603,-190.832 403.595,-190.468 406.5,-190.149 647.801,-163.668 715.839,-212.388 951.5,-154.149 983.521,-146.236 1017.04,-132.636 1045.82,-119.104"/>
<polygon fill="red" stroke="red" stroke-width="0.109072" points="1047.48,-122.19 1055,-114.721 1044.47,-115.875 1047.48,-122.19"/>
</g>
<!-- wallRadar[&#45;0.7,0.7]&#45;&gt;Turn left/right -->
<g id="edge10" class="edge"><title>wallRadar[&#45;0.7,0.7]&#45;&gt;Turn left/right</title>
<path fill="none" stroke="red" stroke-width="0.395377" d="M397.585,-191.155C400.597,-190.779 403.591,-190.437 406.5,-190.149 584.032,-172.56 1039.32,-210.75 1208.5,-154.149 1233.31,-145.848 1257.66,-130.249 1277.2,-115.327"/>
<polygon fill="red" stroke="red" stroke-width="0.395377" points="1279.56,-117.923 1285.27,-108.996 1275.24,-112.416 1279.56,-117.923"/>
</g>
<!-- wallRadar[&#45;0.7,&#45;0.7] -->
<g id="node7" class="node"><title>wallRadar[&#45;0.7,&#45;0.7]</title>
<polygon fill="lightgray" stroke="black" points="2010,-208.149 1921,-208.149 1921,-190.149 2010,-190.149 2010,-208.149"/>
<text text-anchor="middle" x="1965.5" y="-196.949" font-family="Times,serif" font-size="9.00">wallRadar[&#45;0.7,&#45;0.7]</text>
</g>
<!-- wallRadar[&#45;0.7,&#45;0.7]&#45;&gt;Turn left/right -->
<g id="edge4" class="edge"><title>wallRadar[&#45;0.7,&#45;0.7]&#45;&gt;Turn left/right</title>
<path fill="none" stroke="green" stroke-width="0.187912" d="M1920.97,-191.418C1918.1,-190.988 1915.26,-190.562 1912.5,-190.149 1804.52,-174.002 1776.9,-173.755 1669.5,-154.149 1564.7,-135.019 1443.41,-107.422 1374.65,-91.2587"/>
<polygon fill="green" stroke="green" stroke-width="0.187912" points="1375.43,-87.8466 1364.89,-88.9593 1373.82,-94.6599 1375.43,-87.8466"/>
</g>
<!-- wallRadar[0.7,&#45;0.7] -->
<g id="node8" class="node"><title>wallRadar[0.7,&#45;0.7]</title>
<polygon fill="lightgray" stroke="black" points="2114.5,-208.149 2028.5,-208.149 2028.5,-190.149 2114.5,-190.149 2114.5,-208.149"/>
<text text-anchor="middle" x="2071.5" y="-196.949" font-family="Times,serif" font-size="9.00">wallRadar[0.7,&#45;0.7]</text>
</g>
<!-- wallRadar[0.7,&#45;0.7]&#45;&gt;Move Forward/Backward -->
<g id="edge45" class="edge"><title>wallRadar[0.7,&#45;0.7]&#45;&gt;Move Forward/Backward</title>
<path fill="none" stroke="red" stroke-width="0.198895" d="M2028.41,-191.164C2025.4,-190.786 2022.41,-190.441 2019.5,-190.149 1852.15,-173.339 1425.54,-199.202 1263.5,-154.149 1240.29,-147.695 1216.64,-136.898 1195.51,-125.437"/>
<polygon fill="red" stroke="red" stroke-width="0.198895" points="1197.05,-122.293 1186.61,-120.495 1193.65,-128.412 1197.05,-122.293"/>
</g>
<!-- wallRadar[0.7,&#45;0.7]&#45;&gt; Move Left/Right -->
<g id="edge7" class="edge"><title>wallRadar[0.7,&#45;0.7]&#45;&gt; Move Left/Right</title>
<path fill="none" stroke="green" stroke-width="0.29966" d="M2048.8,-190.084C1997.49,-171.855 1871.11,-126.96 1794.84,-99.8671"/>
<polygon fill="green" stroke="green" stroke-width="0.29966" points="1795.94,-96.5415 1785.34,-96.492 1793.59,-103.138 1795.94,-96.5415"/>
</g>
<!-- wallRadar[0.7,&#45;0.7]&#45;&gt;Turn left/right -->
<g id="edge34" class="edge"><title>wallRadar[0.7,&#45;0.7]&#45;&gt;Turn left/right</title>
<path fill="none" stroke="green" stroke-width="0.590696" d="M2028.39,-191.347C2025.39,-190.925 2022.4,-190.521 2019.5,-190.149 1864.39,-170.254 1823.92,-178.794 1669.5,-154.149 1564.15,-137.336 1442.81,-108.891 1374.23,-91.9563"/>
<polygon fill="green" stroke="green" stroke-width="0.590696" points="1375.05,-88.5539 1364.5,-89.544 1373.36,-95.3481 1375.05,-88.5539"/>
</g>
<!-- enemyRadar[RightBack] -->
<g id="node9" class="node"><title>enemyRadar[RightBack]</title>
<polygon fill="lightgray" stroke="black" points="705.5,-208.149 601.5,-208.149 601.5,-190.149 705.5,-190.149 705.5,-208.149"/>
<text text-anchor="middle" x="653.5" y="-196.949" font-family="Times,serif" font-size="9.00">enemyRadar[RightBack]</text>
</g>
<!-- enemyRadar[RightBack]&#45;&gt;Shoot -->
<g id="edge5" class="edge"><title>enemyRadar[RightBack]&#45;&gt;Shoot</title>
<path fill="none" stroke="red" stroke-width="0.381547" d="M671.097,-190.084C714.264,-170.301 825.963,-119.11 882.165,-93.3522"/>
<polygon fill="red" stroke="red" stroke-width="0.381547" points="883.705,-96.4963 891.338,-89.1482 880.789,-90.1328 883.705,-96.4963"/>
</g>
<!-- enemyRadar[RightBack]&#45;&gt;Move Forward/Backward -->
<g id="edge2" class="edge"><title>enemyRadar[RightBack]&#45;&gt;Move Forward/Backward</title>
<path fill="none" stroke="green" stroke-width="0.143545" d="M705.798,-191.214C784.948,-180.599 928.429,-160.848 951.5,-154.149 983.036,-144.993 1016.32,-131.21 1045.06,-117.88"/>
<polygon fill="green" stroke="green" stroke-width="0.143545" points="1046.66,-120.995 1054.23,-113.574 1043.69,-114.659 1046.66,-120.995"/>
</g>
<!-- enemyRadar[RightBack]&#45;&gt;Turn left/right -->
<g id="edge39" class="edge"><title>enemyRadar[RightBack]&#45;&gt;Turn left/right</title>
<path fill="none" stroke="green" stroke-width="0.31194" d="M705.72,-191.099C708.689,-190.761 711.631,-190.442 714.5,-190.149 824.002,-178.988 1104.61,-190.522 1208.5,-154.149 1233.2,-145.503 1257.53,-129.861 1277.09,-114.999"/>
<polygon fill="green" stroke="green" stroke-width="0.31194" points="1279.43,-117.61 1285.17,-108.7 1275.13,-112.089 1279.43,-117.61"/>
</g>
<!-- enemyRadar[LeftBack] -->
<g id="node10" class="node"><title>enemyRadar[LeftBack]</title>
<polygon fill="lightgray" stroke="black" points="515,-208.149 416,-208.149 416,-190.149 515,-190.149 515,-208.149"/>
<text text-anchor="middle" x="465.5" y="-196.949" font-family="Times,serif" font-size="9.00">enemyRadar[LeftBack]</text>
</g>
<!-- enemyRadar[LeftBack]&#45;&gt;Move Forward/Backward -->
<g id="edge20" class="edge"><title>enemyRadar[LeftBack]&#45;&gt;Move Forward/Backward</title>
<path fill="none" stroke="red" stroke-width="0.229523" d="M515.052,-191.245C518.247,-190.857 521.418,-190.488 524.5,-190.149 713.812,-169.348 767.033,-201.517 951.5,-154.149 983.448,-145.946 1016.95,-132.286 1045.74,-118.787"/>
<polygon fill="red" stroke="red" stroke-width="0.229523" points="1047.4,-121.877 1054.92,-114.417 1044.39,-115.557 1047.4,-121.877"/>
</g>
<!-- enemyRadar[Right45ø] -->
<g id="node11" class="node"><title>enemyRadar[Right45ø]</title>
<polygon fill="lightgray" stroke="black" points="1605.5,-208.149 1505.5,-208.149 1505.5,-190.149 1605.5,-190.149 1605.5,-208.149"/>
<text text-anchor="middle" x="1555.5" y="-196.949" font-family="Times,serif" font-size="9.00">enemyRadar[Right45ø]</text>
</g>
<!-- enemyRadar[Right45ø]&#45;&gt;Shoot -->
<g id="edge19" class="edge"><title>enemyRadar[Right45ø]&#45;&gt;Shoot</title>
<path fill="none" stroke="green" stroke-width="0.390453" d="M1505.31,-191.147C1502.33,-190.793 1499.38,-190.457 1496.5,-190.149 1292.59,-168.364 1231.18,-218.596 1036.5,-154.149 1001.88,-142.69 967.137,-119.319 943.817,-101.487"/>
<polygon fill="green" stroke="green" stroke-width="0.390453" points="945.801,-98.5955 935.764,-95.201 941.493,-104.113 945.801,-98.5955"/>
</g>
<!-- enemyRadar[Right45ø]&#45;&gt;Move Forward/Backward -->
<g id="edge51" class="edge"><title>enemyRadar[Right45ø]&#45;&gt;Move Forward/Backward</title>
<path fill="none" stroke="red" stroke-width="0.25073" d="M1505.45,-191.064C1425.03,-179.614 1274.85,-157.938 1263.5,-154.149 1240.76,-146.559 1217.35,-135.457 1196.3,-124.067"/>
<polygon fill="red" stroke="red" stroke-width="0.25073" points="1197.88,-120.941 1187.43,-119.178 1194.5,-127.071 1197.88,-120.941"/>
</g>
<!-- enemyRadar[Right45ø]&#45;&gt; Move Left/Right -->
<g id="edge9" class="edge"><title>enemyRadar[Right45ø]&#45;&gt; Move Left/Right</title>
<path fill="none" stroke="green" stroke-width="0.319448" d="M1567.46,-190.084C1589.99,-174.881 1640.03,-141.129 1679.32,-114.626"/>
<polygon fill="green" stroke="green" stroke-width="0.319448" points="1681.7,-117.242 1688.03,-108.748 1677.78,-111.439 1681.7,-117.242"/>
</g>
<!-- enemyRadar[Right45ø]&#45;&gt;Turn left/right -->
<g id="edge18" class="edge"><title>enemyRadar[Right45ø]&#45;&gt;Turn left/right</title>
<path fill="none" stroke="red" stroke-width="0.297083" d="M1539.65,-190.084C1505.46,-172.687 1423.52,-131.001 1369.83,-103.682"/>
<polygon fill="red" stroke="red" stroke-width="0.297083" points="1371.31,-100.507 1360.81,-99.092 1368.13,-106.746 1371.31,-100.507"/>
</g>
<!-- enemyRadar[Left45ø] -->
<g id="node12" class="node"><title>enemyRadar[Left45ø]</title>
<polygon fill="lightgray" stroke="black" points="1719,-208.149 1624,-208.149 1624,-190.149 1719,-190.149 1719,-208.149"/>
<text text-anchor="middle" x="1671.5" y="-196.949" font-family="Times,serif" font-size="9.00">enemyRadar[Left45ø]</text>
</g>
<!-- enemyRadar[Left45ø]&#45;&gt;Shoot -->
<g id="edge15" class="edge"><title>enemyRadar[Left45ø]&#45;&gt;Shoot</title>
<path fill="none" stroke="red" stroke-width="0.141382" d="M1623.95,-191.195C1620.75,-190.815 1617.58,-190.461 1614.5,-190.149 1486.46,-177.196 1158.99,-193.621 1036.5,-154.149 1001.79,-142.965 967.06,-119.553 943.768,-101.637"/>
<polygon fill="red" stroke="red" stroke-width="0.141382" points="945.751,-98.7445 935.726,-95.3183 941.427,-104.249 945.751,-98.7445"/>
</g>
<!-- enemyRadar[Left45ø]&#45;&gt;Move Forward/Backward -->
<g id="edge35" class="edge"><title>enemyRadar[Left45ø]&#45;&gt;Move Forward/Backward</title>
<path fill="none" stroke="red" stroke-width="0.237266" d="M1623.93,-191.338C1620.74,-190.923 1617.58,-190.523 1614.5,-190.149 1458.82,-171.248 1413.38,-200.266 1263.5,-154.149 1240.47,-147.064 1216.88,-136.063 1195.75,-124.607"/>
<polygon fill="red" stroke="red" stroke-width="0.237266" points="1197.3,-121.463 1186.85,-119.68 1193.9,-127.587 1197.3,-121.463"/>
</g>
<!-- enemyRadar[Left45ø]&#45;&gt; Move Left/Right -->
<g id="edge24" class="edge"><title>enemyRadar[Left45ø]&#45;&gt; Move Left/Right</title>
<path fill="none" stroke="red" stroke-width="0.163512" d="M1675.76,-189.896C1681.67,-178.445 1692.88,-156.736 1703.86,-135.47"/>
<polygon fill="red" stroke="red" stroke-width="0.163512" points="1707.06,-136.906 1708.54,-126.415 1700.84,-133.694 1707.06,-136.906"/>
</g>
<!-- enemyRadar[Left45ø]&#45;&gt;Turn left/right -->
<g id="edge16" class="edge"><title>enemyRadar[Left45ø]&#45;&gt;Turn left/right</title>
<path fill="none" stroke="red" stroke-width="0.124045" d="M1647.86,-190.084C1592.05,-171.049 1451.01,-122.934 1373.16,-96.3782"/>
<polygon fill="red" stroke="red" stroke-width="0.124045" points="1374.12,-93.0091 1363.53,-93.0931 1371.86,-99.6343 1374.12,-93.0091"/>
</g>
<!-- enemyRadar[RightFront20ø] -->
<g id="node13" class="node"><title>enemyRadar[RightFront20ø]</title>
<polygon fill="lightgray" stroke="black" points="975,-208.149 856,-208.149 856,-190.149 975,-190.149 975,-208.149"/>
<text text-anchor="middle" x="915.5" y="-196.949" font-family="Times,serif" font-size="9.00">enemyRadar[RightFront20ø]</text>
</g>
<!-- enemyRadar[RightFront20ø]&#45;&gt;Shoot -->
<g id="edge22" class="edge"><title>enemyRadar[RightFront20ø]&#45;&gt;Shoot</title>
<path fill="none" stroke="red" stroke-width="0.295638" d="M915.5,-189.896C915.5,-174.554 915.5,-140.799 915.5,-114.366"/>
<polygon fill="red" stroke="red" stroke-width="0.295638" points="919,-114.286 915.5,-104.286 912,-114.286 919,-114.286"/>
</g>
<!-- enemyRadar[RightFront20ø]&#45;&gt;Move Forward/Backward -->
<g id="edge14" class="edge"><title>enemyRadar[RightFront20ø]&#45;&gt;Move Forward/Backward</title>
<path fill="none" stroke="red" stroke-width="0.256049" d="M929.403,-190.084C953.319,-176.212 1003.86,-146.896 1047.23,-121.735"/>
<polygon fill="red" stroke="red" stroke-width="0.256049" points="1049.19,-124.645 1056.09,-116.6 1045.68,-118.59 1049.19,-124.645"/>
</g>
<!-- enemyRadar[RightFront20ø]&#45;&gt; Move Left/Right -->
<g id="edge6" class="edge"><title>enemyRadar[RightFront20ø]&#45;&gt; Move Left/Right</title>
<path fill="none" stroke="red" stroke-width="0.358269" d="M975.33,-191.125C978.43,-190.788 981.501,-190.461 984.5,-190.149 1158.08,-172.099 1202.96,-180.331 1375.5,-154.149 1479.75,-138.33 1599.27,-111.053 1670.47,-93.8206"/>
<polygon fill="red" stroke="red" stroke-width="0.358269" points="1671.29,-97.2214 1680.18,-91.4579 1669.64,-90.4195 1671.29,-97.2214"/>
</g>
<!-- enemyRadar[LeftFront20ø] -->
<g id="node14" class="node"><title>enemyRadar[LeftFront20ø]</title>
<polygon fill="lightgray" stroke="black" points="837.5,-208.149 723.5,-208.149 723.5,-190.149 837.5,-190.149 837.5,-208.149"/>
<text text-anchor="middle" x="780.5" y="-196.949" font-family="Times,serif" font-size="9.00">enemyRadar[LeftFront20ø]</text>
</g>
<!-- enemyRadar[LeftFront20ø]&#45;&gt;Shoot -->
<g id="edge47" class="edge"><title>enemyRadar[LeftFront20ø]&#45;&gt;Shoot</title>
<path fill="none" stroke="green" stroke-width="0.203427" d="M789.779,-189.896C809.684,-172.192 857.154,-129.97 887.733,-102.772"/>
<polygon fill="green" stroke="green" stroke-width="0.203427" points="890.348,-105.13 895.494,-95.8688 885.696,-99.8996 890.348,-105.13"/>
</g>
<!-- enemyRadar[LeftFront20ø]&#45;&gt;Move Forward/Backward -->
<g id="edge33" class="edge"><title>enemyRadar[LeftFront20ø]&#45;&gt;Move Forward/Backward</title>
<path fill="none" stroke="green" stroke-width="0.417525" d="M819.417,-190.081C854.437,-182.365 907.064,-169.629 951.5,-154.149 982.51,-143.346 1015.69,-129.217 1044.49,-116.071"/>
<polygon fill="green" stroke="green" stroke-width="0.417525" points="1046.05,-119.203 1053.67,-111.843 1043.13,-112.844 1046.05,-119.203"/>
</g>
<!-- enemyRadar[LeftFront20ø]&#45;&gt;Turn left/right -->
<g id="edge43" class="edge"><title>enemyRadar[LeftFront20ø]&#45;&gt;Turn left/right</title>
<path fill="none" stroke="red" stroke-width="0.310075" d="M837.512,-191.265C840.891,-190.881 844.239,-190.506 847.5,-190.149 1007.78,-172.59 1057.04,-209.455 1208.5,-154.149 1232.89,-145.244 1257.02,-129.736 1276.52,-115.035"/>
<polygon fill="red" stroke="red" stroke-width="0.310075" points="1278.81,-117.689 1284.58,-108.805 1274.53,-112.15 1278.81,-117.689"/>
</g>
<!-- enemyRadar[RightFront15ø] -->
<g id="node15" class="node"><title>enemyRadar[RightFront15ø]</title>
<polygon fill="lightgray" stroke="black" points="1213,-208.149 1094,-208.149 1094,-190.149 1213,-190.149 1213,-208.149"/>
<text text-anchor="middle" x="1153.5" y="-196.949" font-family="Times,serif" font-size="9.00">enemyRadar[RightFront15ø]</text>
</g>
<!-- enemyRadar[RightFront15ø]&#45;&gt;Shoot -->
<g id="edge17" class="edge"><title>enemyRadar[RightFront15ø]&#45;&gt;Shoot</title>
<path fill="none" stroke="green" stroke-width="0.285408" d="M1127.77,-190.14C1103.64,-182.241 1066.83,-169.194 1036.5,-154.149 1004.03,-138.043 969.224,-115.551 945.315,-99.2031"/>
<polygon fill="green" stroke="green" stroke-width="0.285408" points="947.243,-96.2809 937.025,-93.4814 943.267,-102.042 947.243,-96.2809"/>
</g>
<!-- enemyRadar[RightFront15ø]&#45;&gt;Move Forward/Backward -->
<g id="edge53" class="edge"><title>enemyRadar[RightFront15ø]&#45;&gt;Move Forward/Backward</title>
<path fill="none" stroke="red" stroke-width="0.107643" d="M1151.37,-189.896C1149.66,-183.273 1147.06,-173.219 1144.12,-161.803"/>
<polygon fill="red" stroke="red" stroke-width="0.107643" points="1147.46,-160.748 1141.57,-151.94 1140.68,-162.497 1147.46,-160.748"/>
</g>
<!-- enemyRadar[RightFront15ø]&#45;&gt; Move Left/Right -->
<g id="edge54" class="edge"><title>enemyRadar[RightFront15ø]&#45;&gt; Move Left/Right</title>
<path fill="none" stroke="green" stroke-width="0.133861" d="M1194.86,-190.128C1239.47,-181.435 1312.57,-167.071 1375.5,-154.149 1478.43,-133.014 1597.76,-107.44 1669.36,-91.9815"/>
<polygon fill="green" stroke="green" stroke-width="0.133861" points="1670.53,-95.3087 1679.57,-89.7758 1669.06,-88.4665 1670.53,-95.3087"/>
</g>
<!-- enemyRadar[RightFront15ø]&#45;&gt;Turn left/right -->
<g id="edge37" class="edge"><title>enemyRadar[RightFront15ø]&#45;&gt;Turn left/right</title>
<path fill="none" stroke="green" stroke-width="0.265597" d="M1164.65,-190.084C1186.61,-174.197 1236.58,-138.052 1273.85,-111.093"/>
<polygon fill="green" stroke="green" stroke-width="0.265597" points="1276.02,-113.843 1282.07,-105.146 1271.92,-108.171 1276.02,-113.843"/>
</g>
<!-- enemyRadar[LeftFront15ø] -->
<g id="node16" class="node"><title>enemyRadar[LeftFront15ø]</title>
<polygon fill="lightgray" stroke="black" points="205.5,-208.149 91.5,-208.149 91.5,-190.149 205.5,-190.149 205.5,-208.149"/>
<text text-anchor="middle" x="148.5" y="-196.949" font-family="Times,serif" font-size="9.00">enemyRadar[LeftFront15ø]</text>
</g>
<!-- enemyRadar[LeftFront15ø]&#45;&gt;Shoot -->
<g id="edge38" class="edge"><title>enemyRadar[LeftFront15ø]&#45;&gt;Shoot</title>
<path fill="none" stroke="red" stroke-width="0.38635" d="M199.717,-190.131C344.345,-167.49 753.46,-103.442 878.644,-83.8445"/>
<polygon fill="red" stroke="red" stroke-width="0.38635" points="879.514,-87.2509 888.853,-82.2463 878.432,-80.3352 879.514,-87.2509"/>
</g>
<!-- enemyRadar[RightFront7.5ø] -->
<g id="node17" class="node"><title>enemyRadar[RightFront7.5ø]</title>
<polygon fill="lightgray" stroke="black" points="2550.5,-208.149 2428.5,-208.149 2428.5,-190.149 2550.5,-190.149 2550.5,-208.149"/>
<text text-anchor="middle" x="2489.5" y="-196.949" font-family="Times,serif" font-size="9.00">enemyRadar[RightFront7.5ø]</text>
</g>
<!-- enemyRadar[LeftFront7.5ø] -->
<g id="node18" class="node"><title>enemyRadar[LeftFront7.5ø]</title>
<polygon fill="lightgray" stroke="black" points="1347.5,-208.149 1231.5,-208.149 1231.5,-190.149 1347.5,-190.149 1347.5,-208.149"/>
<text text-anchor="middle" x="1289.5" y="-196.949" font-family="Times,serif" font-size="9.00">enemyRadar[LeftFront7.5ø]</text>
</g>
<!-- enemyRadar[LeftFront7.5ø]&#45;&gt;Shoot -->
<g id="edge21" class="edge"><title>enemyRadar[LeftFront7.5ø]&#45;&gt;Shoot</title>
<path fill="none" stroke="red" stroke-width="0.304423" d="M1231.34,-190.694C1168.04,-182.111 1071.2,-167.477 1036.5,-154.149 1002.46,-141.074 967.629,-117.942 944.132,-100.608"/>
<polygon fill="red" stroke="red" stroke-width="0.304423" points="946.109,-97.7163 936.01,-94.5135 941.907,-103.315 946.109,-97.7163"/>
</g>
<!-- enemyRadar[LeftFront7.5ø]&#45;&gt;Move Forward/Backward -->
<g id="edge13" class="edge"><title>enemyRadar[LeftFront7.5ø]&#45;&gt;Move Forward/Backward</title>
<path fill="none" stroke="green" stroke-width="0.267762" d="M1278.28,-190.084C1260.75,-177.481 1225.5,-152.13 1192.95,-128.73"/>
<polygon fill="green" stroke="green" stroke-width="0.267762" points="1194.91,-125.827 1184.75,-122.831 1190.82,-131.511 1194.91,-125.827"/>
</g>
<!-- enemyRadar[LeftFront7.5ø]&#45;&gt; Move Left/Right -->
<g id="edge36" class="edge"><title>enemyRadar[LeftFront7.5ø]&#45;&gt; Move Left/Right</title>
<path fill="none" stroke="red" stroke-width="0.11032" d="M1319.32,-190.084C1390.85,-170.741 1573.4,-121.371 1670.52,-95.108"/>
<polygon fill="red" stroke="red" stroke-width="0.11032" points="1671.47,-98.4753 1680.21,-92.486 1669.64,-91.718 1671.47,-98.4753"/>
</g>
<!-- enemyRadar[LeftFront7.5ø]&#45;&gt;Turn left/right -->
<g id="edge32" class="edge"><title>enemyRadar[LeftFront7.5ø]&#45;&gt;Turn left/right</title>
<path fill="none" stroke="green" stroke-width="0.104381" d="M1291.56,-189.896C1294.56,-177.896 1300.37,-154.632 1305.92,-132.417"/>
<polygon fill="green" stroke="green" stroke-width="0.104381" points="1309.33,-133.214 1308.36,-122.663 1302.54,-131.517 1309.33,-133.214"/>
</g>
<!-- enemyRadar[RightFront2.5ø] -->
<g id="node19" class="node"><title>enemyRadar[RightFront2.5ø]</title>
<polygon fill="lightgray" stroke="black" points="1487.5,-208.149 1365.5,-208.149 1365.5,-190.149 1487.5,-190.149 1487.5,-208.149"/>
<text text-anchor="middle" x="1426.5" y="-196.949" font-family="Times,serif" font-size="9.00">enemyRadar[RightFront2.5ø]</text>
</g>
<!-- enemyRadar[RightFront2.5ø]&#45;&gt;Move Forward/Backward -->
<g id="edge42" class="edge"><title>enemyRadar[RightFront2.5ø]&#45;&gt;Move Forward/Backward</title>
<path fill="none" stroke="green" stroke-width="0.294961" d="M1386.81,-190.137C1353.29,-182.734 1304.34,-170.426 1263.5,-154.149 1241.34,-145.32 1218.21,-133.87 1197.24,-122.546"/>
<polygon fill="green" stroke="green" stroke-width="0.294961" points="1198.85,-119.436 1188.39,-117.708 1195.49,-125.577 1198.85,-119.436"/>
</g>
<!-- enemyRadar[RightFront2.5ø]&#45;&gt;Turn left/right -->
<g id="edge30" class="edge"><title>enemyRadar[RightFront2.5ø]&#45;&gt;Turn left/right</title>
<path fill="none" stroke="red" stroke-width="0.355758" d="M1419.15,-189.896C1406.48,-175.683 1379.73,-145.668 1357.14,-120.311"/>
<polygon fill="red" stroke="red" stroke-width="0.355758" points="1359.54,-117.751 1350.28,-112.614 1354.32,-122.408 1359.54,-117.751"/>
</g>
<!-- enemyRadar[LeftFront2.5ø] -->
<g id="node20" class="node"><title>enemyRadar[LeftFront2.5ø]</title>
<polygon fill="lightgray" stroke="black" points="1853.5,-208.149 1737.5,-208.149 1737.5,-190.149 1853.5,-190.149 1853.5,-208.149"/>
<text text-anchor="middle" x="1795.5" y="-196.949" font-family="Times,serif" font-size="9.00">enemyRadar[LeftFront2.5ø]</text>
</g>
<!-- enemyRadar[LeftFront2.5ø]&#45;&gt;Shoot -->
<g id="edge1" class="edge"><title>enemyRadar[LeftFront2.5ø]&#45;&gt;Shoot</title>
<path fill="none" stroke="red" stroke-width="0.362478" d="M1737.42,-190.974C1734.4,-190.676 1731.42,-190.399 1728.5,-190.149 1575.08,-177.014 1183.3,-200.628 1036.5,-154.149 1001.74,-143.143 967.012,-119.705 943.737,-101.734"/>
<polygon fill="red" stroke="red" stroke-width="0.362478" points="945.72,-98.8404 935.702,-95.3939 941.384,-104.336 945.72,-98.8404"/>
</g>
<!-- enemyRadar[LeftFront2.5ø]&#45;&gt; Move Left/Right -->
<g id="edge55" class="edge"><title>enemyRadar[LeftFront2.5ø]&#45;&gt; Move Left/Right</title>
<path fill="none" stroke="green" stroke-width="0.163701" d="M1791.24,-189.896C1785.33,-178.445 1774.12,-156.736 1763.14,-135.47"/>
<polygon fill="green" stroke="green" stroke-width="0.163701" points="1766.16,-133.694 1758.46,-126.415 1759.94,-136.906 1766.16,-133.694"/>
</g>
<!-- enemyRadar[LeftFront2.5ø]&#45;&gt;Turn left/right -->
<g id="edge29" class="edge"><title>enemyRadar[LeftFront2.5ø]&#45;&gt;Turn left/right</title>
<path fill="none" stroke="green" stroke-width="0.518339" d="M1763.53,-190.084C1683.72,-169.953 1474.99,-117.299 1374.77,-92.017"/>
<polygon fill="green" stroke="green" stroke-width="0.518339" points="1375.39,-88.5638 1364.84,-89.5114 1373.68,-95.3512 1375.39,-88.5638"/>
</g>
<!-- enemyRadar[Front7Ø] -->
<g id="node21" class="node"><title>enemyRadar[Front7Ø]</title>
<polygon fill="lightgray" stroke="black" points="2230.5,-208.149 2132.5,-208.149 2132.5,-190.149 2230.5,-190.149 2230.5,-208.149"/>
<text text-anchor="middle" x="2181.5" y="-196.949" font-family="Times,serif" font-size="9.00">enemyRadar[Front7Ø]</text>
</g>
<!-- enemyRadar[Front7Ø]&#45;&gt;Move Forward/Backward -->
<g id="edge28" class="edge"><title>enemyRadar[Front7Ø]&#45;&gt;Move Forward/Backward</title>
<path fill="none" stroke="green" stroke-width="0.165199" d="M2132.49,-191.055C2129.45,-190.719 2126.44,-190.413 2123.5,-190.149 1932.99,-173.062 1447.93,-204.857 1263.5,-154.149 1240.27,-147.762 1216.61,-136.987 1195.48,-125.524"/>
<polygon fill="green" stroke="green" stroke-width="0.165199" points="1197.03,-122.381 1186.59,-120.581 1193.63,-128.499 1197.03,-122.381"/>
</g>
<!-- enemyRadar[Front7Ø]&#45;&gt; Move Left/Right -->
<g id="edge48" class="edge"><title>enemyRadar[Front7Ø]&#45;&gt; Move Left/Right</title>
<path fill="none" stroke="green" stroke-width="0.184139" d="M2151.41,-190.084C2079.05,-170.69 1894.07,-121.112 1796.28,-94.9014"/>
<polygon fill="green" stroke="green" stroke-width="0.184139" points="1797.09,-91.494 1786.52,-92.2858 1795.27,-98.2554 1797.09,-91.494"/>
</g>
<!-- OnTarget -->
<g id="node22" class="node"><title>OnTarget</title>
<polygon fill="lightgray" stroke="black" points="583.5,-208.149 533.5,-208.149 533.5,-190.149 583.5,-190.149 583.5,-208.149"/>
<text text-anchor="middle" x="558.5" y="-196.949" font-family="Times,serif" font-size="9.00">OnTarget</text>
</g>
<!-- OnTarget&#45;&gt;Shoot -->
<g id="edge11" class="edge"><title>OnTarget&#45;&gt;Shoot</title>
<path fill="none" stroke="red" stroke-width="0.280321" d="M582.478,-190.084C644.144,-169.343 808.451,-114.08 880.648,-89.7968"/>
<polygon fill="red" stroke="red" stroke-width="0.280321" points="881.842,-93.0881 890.204,-86.5827 879.61,-86.4534 881.842,-93.0881"/>
</g>
<!-- OnTarget&#45;&gt;Turn left/right -->
<g id="edge3" class="edge"><title>OnTarget&#45;&gt;Turn left/right</title>
<path fill="none" stroke="green" stroke-width="0.258825" d="M583.658,-191.719C586.624,-191.113 589.62,-190.569 592.5,-190.149 728.189,-170.372 1078.76,-198.531 1208.5,-154.149 1233.26,-145.68 1257.6,-130.06 1277.15,-115.168"/>
<polygon fill="green" stroke="green" stroke-width="0.258825" points="1279.5,-117.771 1285.22,-108.853 1275.19,-112.258 1279.5,-117.771"/>
</g>
<!-- bias -->
<g id="node23" class="node"><title>bias</title>
<polygon fill="lightgray" stroke="black" points="1903,-208.149 1872,-208.149 1872,-190.149 1903,-190.149 1903,-208.149"/>
<text text-anchor="middle" x="1887.5" y="-196.949" font-family="Times,serif" font-size="9.00">bias</text>
</g>
<!-- bias&#45;&gt;Shoot -->
<g id="edge40" class="edge"><title>bias&#45;&gt;Shoot</title>
<path fill="none" stroke="red" stroke-width="0.216348" d="M1871.79,-192.424C1868.74,-191.513 1865.55,-190.694 1862.5,-190.149 1681.63,-157.866 1211.89,-208.868 1036.5,-154.149 1001.69,-143.289 966.973,-119.829 943.712,-101.814"/>
<polygon fill="red" stroke="red" stroke-width="0.216348" points="945.695,-98.9194 935.682,-95.4562 941.35,-104.408 945.695,-98.9194"/>
</g>
<!-- bias&#45;&gt; Move Left/Right -->
<g id="edge41" class="edge"><title>bias&#45;&gt; Move Left/Right</title>
<path fill="none" stroke="green" stroke-width="0.107199" d="M1876.91,-189.896C1858.18,-175.291 1818.05,-144.002 1785,-118.226"/>
<polygon fill="green" stroke="green" stroke-width="0.107199" points="1786.8,-115.194 1776.76,-111.805 1782.49,-120.714 1786.8,-115.194"/>
</g>
<!-- bias&#45;&gt;Turn left/right -->
<g id="edge8" class="edge"><title>bias&#45;&gt;Turn left/right</title>
<path fill="none" stroke="red" stroke-width="0.11852" d="M1871.98,-192.852C1868.86,-191.881 1865.59,-190.929 1862.5,-190.149 1777.89,-168.81 1755.03,-171.418 1669.5,-154.149 1565.07,-133.066 1443.66,-106.13 1374.77,-90.6178"/>
<polygon fill="red" stroke="red" stroke-width="0.11852" points="1375.52,-87.199 1364.99,-88.414 1373.98,-94.0277 1375.52,-87.199"/>
</g>
</g>
</svg>
