<?xml version="1.0" encoding="UTF-8" standalone="no"?>
<!DOCTYPE svg PUBLIC "-//W3C//DTD SVG 1.1//EN"
 "http://www.w3.org/Graphics/SVG/1.1/DTD/svg11.dtd">
<!-- Generated by graphviz version 2.38.0 (20140413.2041)
 -->
<!-- Title: %3 Pages: 1 -->
<svg width="2559pt" height="216pt"
 viewBox="0.00 0.00 2558.50 216.15" xmlns="http://www.w3.org/2000/svg" xmlns:xlink="http://www.w3.org/1999/xlink">
<g id="graph0" class="graph" transform="scale(1 1) rotate(0) translate(4 212.149)">
<title>%3</title>
<polygon fill="white" stroke="none" points="-4,4 -4,-212.149 2554.5,-212.149 2554.5,4 -4,4"/>
<!-- wallRadar[1,0] -->
<g id="node1" class="node"><title>wallRadar[1,0]</title>
<polygon fill="lightgray" stroke="black" points="306,-208.149 236,-208.149 236,-190.149 306,-190.149 306,-208.149"/>
<text text-anchor="middle" x="271" y="-196.949" font-family="Times,serif" font-size="9.00">wallRadar[1,0]</text>
</g>
<!-- Shoot -->
<g id="node24" class="node"><title>Shoot</title>
<ellipse fill="lightblue" stroke="black" cx="437" cy="-77.0746" rx="26.7407" ry="26.7407"/>
<text text-anchor="middle" x="437" y="-74.8746" font-family="Times,serif" font-size="9.00">Shoot</text>
</g>
<!-- wallRadar[1,0]&#45;&gt;Shoot -->
<g id="edge40" class="edge"><title>wallRadar[1,0]&#45;&gt;Shoot</title>
<path fill="none" stroke="green" stroke-width="0.492466" d="M282.149,-190.084C307.386,-171.829 369.594,-126.832 407.033,-99.7511"/>
<polygon fill="green" stroke="green" stroke-width="0.492466" points="409.476,-102.303 415.528,-93.6065 405.374,-96.6315 409.476,-102.303"/>
</g>
<!-- Move Forward/Backward -->
<g id="node25" class="node"><title>Move Forward/Backward</title>
<ellipse fill="lightblue" stroke="black" cx="1021" cy="-77.0746" rx="77.1494" ry="77.1494"/>
<text text-anchor="middle" x="1021" y="-74.8746" font-family="Times,serif" font-size="9.00">Move Forward/Backward</text>
</g>
<!-- wallRadar[1,0]&#45;&gt;Move Forward/Backward -->
<g id="edge23" class="edge"><title>wallRadar[1,0]&#45;&gt;Move Forward/Backward</title>
<path fill="none" stroke="green" stroke-width="0.373184" d="M306.052,-191.703C309.077,-191.169 312.091,-190.644 315,-190.149 538.123,-152.16 801.644,-111.419 934.766,-91.1264"/>
<polygon fill="green" stroke="green" stroke-width="0.373184" points="935.543,-94.5485 944.902,-89.5824 934.489,-87.6283 935.543,-94.5485"/>
</g>
<!-- wallRadar[0,1] -->
<g id="node2" class="node"><title>wallRadar[0,1]</title>
<polygon fill="lightgray" stroke="black" points="394,-208.149 324,-208.149 324,-190.149 394,-190.149 394,-208.149"/>
<text text-anchor="middle" x="359" y="-196.949" font-family="Times,serif" font-size="9.00">wallRadar[0,1]</text>
</g>
<!-- wallRadar[0,1]&#45;&gt;Shoot -->
<g id="edge46" class="edge"><title>wallRadar[0,1]&#45;&gt;Shoot</title>
<path fill="none" stroke="green" stroke-width="0.189501" d="M364.361,-189.896C375.061,-173.425 399.544,-135.734 417.13,-108.662"/>
<polygon fill="green" stroke="green" stroke-width="0.189501" points="420.287,-110.227 422.8,-99.9346 414.417,-106.414 420.287,-110.227"/>
</g>
<!-- wallRadar[0,1]&#45;&gt;Move Forward/Backward -->
<g id="edge5" class="edge"><title>wallRadar[0,1]&#45;&gt;Move Forward/Backward</title>
<path fill="none" stroke="red" stroke-width="0.169187" d="M394.064,-191.772C397.087,-191.223 400.097,-190.676 403,-190.149 592.733,-155.697 815.245,-115.361 934.706,-93.7114"/>
<polygon fill="red" stroke="red" stroke-width="0.169187" points="935.67,-97.0938 944.885,-91.8666 934.421,-90.206 935.67,-97.0938"/>
</g>
<!-- wallRadar[&#45;1,0] -->
<g id="node3" class="node"><title>wallRadar[&#45;1,0]</title>
<polygon fill="lightgray" stroke="black" points="1342.5,-208.149 1269.5,-208.149 1269.5,-190.149 1342.5,-190.149 1342.5,-208.149"/>
<text text-anchor="middle" x="1306" y="-196.949" font-family="Times,serif" font-size="9.00">wallRadar[&#45;1,0]</text>
</g>
<!-- wallRadar[&#45;1,0]&#45;&gt;Move Forward/Backward -->
<g id="edge7" class="edge"><title>wallRadar[&#45;1,0]&#45;&gt;Move Forward/Backward</title>
<path fill="none" stroke="green" stroke-width="0.206926" d="M1269.27,-191.339C1235.76,-184.393 1185.3,-172.079 1144,-154.149 1126.8,-146.683 1109.17,-137.1 1092.82,-127.271"/>
<polygon fill="green" stroke="green" stroke-width="0.206926" points="1094.24,-124.034 1083.89,-121.796 1090.59,-130.004 1094.24,-124.034"/>
</g>
<!--  Move Left/Right -->
<g id="node26" class="node"><title> Move Left/Right</title>
<ellipse fill="lightblue" stroke="black" cx="1576" cy="-77.0746" rx="55.3091" ry="55.3091"/>
<text text-anchor="middle" x="1576" y="-74.8746" font-family="Times,serif" font-size="9.00"> Move Left/Right</text>
</g>
<!-- wallRadar[&#45;1,0]&#45;&gt; Move Left/Right -->
<g id="edge42" class="edge"><title>wallRadar[&#45;1,0]&#45;&gt; Move Left/Right</title>
<path fill="none" stroke="red" stroke-width="0.244759" d="M1324.13,-190.084C1362.88,-172.854 1455.19,-131.8 1516.64,-104.473"/>
<polygon fill="red" stroke="red" stroke-width="0.244759" points="1518.13,-107.64 1525.85,-100.379 1515.29,-101.244 1518.13,-107.64"/>
</g>
<!-- wallRadar[0,&#45;1] -->
<g id="node4" class="node"><title>wallRadar[0,&#45;1]</title>
<polygon fill="lightgray" stroke="black" points="2443.5,-208.149 2370.5,-208.149 2370.5,-190.149 2443.5,-190.149 2443.5,-208.149"/>
<text text-anchor="middle" x="2407" y="-196.949" font-family="Times,serif" font-size="9.00">wallRadar[0,&#45;1]</text>
</g>
<!-- wallRadar[0.7,0.7] -->
<g id="node5" class="node"><title>wallRadar[0.7,0.7]</title>
<polygon fill="lightgray" stroke="black" points="217.5,-208.149 134.5,-208.149 134.5,-190.149 217.5,-190.149 217.5,-208.149"/>
<text text-anchor="middle" x="176" y="-196.949" font-family="Times,serif" font-size="9.00">wallRadar[0.7,0.7]</text>
</g>
<!-- wallRadar[0.7,0.7]&#45;&gt;Shoot -->
<g id="edge3" class="edge"><title>wallRadar[0.7,0.7]&#45;&gt;Shoot</title>
<path fill="none" stroke="green" stroke-width="0.139371" d="M193.53,-190.084C236.532,-170.301 347.804,-119.11 403.792,-93.3522"/>
<polygon fill="green" stroke="green" stroke-width="0.139371" points="405.308,-96.5074 412.93,-89.1482 402.382,-90.1481 405.308,-96.5074"/>
</g>
<!-- wallRadar[&#45;0.7,0.7] -->
<g id="node6" class="node"><title>wallRadar[&#45;0.7,0.7]</title>
<polygon fill="lightgray" stroke="black" points="822,-208.149 736,-208.149 736,-190.149 822,-190.149 822,-208.149"/>
<text text-anchor="middle" x="779" y="-196.949" font-family="Times,serif" font-size="9.00">wallRadar[&#45;0.7,0.7]</text>
</g>
<!-- wallRadar[&#45;0.7,0.7]&#45;&gt;Move Forward/Backward -->
<g id="edge37" class="edge"><title>wallRadar[&#45;0.7,0.7]&#45;&gt;Move Forward/Backward</title>
<path fill="none" stroke="red" stroke-width="0.494562" d="M795.254,-190.084C825.108,-175.272 890.448,-142.851 943.189,-116.683"/>
<polygon fill="red" stroke="red" stroke-width="0.494562" points="944.804,-119.788 952.206,-112.208 941.693,-113.518 944.804,-119.788"/>
</g>
<!-- Turn left/right -->
<g id="node27" class="node"><title>Turn left/right</title>
<ellipse fill="lightblue" stroke="black" cx="1200" cy="-77.0746" rx="46.8387" ry="46.8387"/>
<text text-anchor="middle" x="1200" y="-74.8746" font-family="Times,serif" font-size="9.00">Turn left/right</text>
</g>
<!-- wallRadar[&#45;0.7,0.7]&#45;&gt;Turn left/right -->
<g id="edge41" class="edge"><title>wallRadar[&#45;0.7,0.7]&#45;&gt;Turn left/right</title>
<path fill="none" stroke="red" stroke-width="0.44209" d="M822.119,-191.438C825.123,-190.994 828.106,-190.561 831,-190.149 953.475,-172.743 993.432,-203.194 1107,-154.149 1126.41,-145.769 1145.02,-132.103 1160.43,-118.649"/>
<polygon fill="red" stroke="red" stroke-width="0.44209" points="1163.1,-120.956 1168.18,-111.662 1158.41,-115.756 1163.1,-120.956"/>
</g>
<!-- wallRadar[&#45;0.7,&#45;0.7] -->
<g id="node7" class="node"><title>wallRadar[&#45;0.7,&#45;0.7]</title>
<polygon fill="lightgray" stroke="black" points="2550.5,-208.149 2461.5,-208.149 2461.5,-190.149 2550.5,-190.149 2550.5,-208.149"/>
<text text-anchor="middle" x="2506" y="-196.949" font-family="Times,serif" font-size="9.00">wallRadar[&#45;0.7,&#45;0.7]</text>
</g>
<!-- wallRadar[0.7,&#45;0.7] -->
<g id="node8" class="node"><title>wallRadar[0.7,&#45;0.7]</title>
<polygon fill="lightgray" stroke="black" points="1447,-208.149 1361,-208.149 1361,-190.149 1447,-190.149 1447,-208.149"/>
<text text-anchor="middle" x="1404" y="-196.949" font-family="Times,serif" font-size="9.00">wallRadar[0.7,&#45;0.7]</text>
</g>
<!-- wallRadar[0.7,&#45;0.7]&#45;&gt;Move Forward/Backward -->
<g id="edge8" class="edge"><title>wallRadar[0.7,&#45;0.7]&#45;&gt;Move Forward/Backward</title>
<path fill="none" stroke="red" stroke-width="0.126832" d="M1360.84,-191.289C1289.57,-179.896 1154.07,-157.947 1144,-154.149 1126.36,-147.494 1108.48,-138.197 1092.03,-128.381"/>
<polygon fill="red" stroke="red" stroke-width="0.126832" points="1093.4,-125.118 1083.05,-122.888 1089.75,-131.09 1093.4,-125.118"/>
</g>
<!-- wallRadar[0.7,&#45;0.7]&#45;&gt; Move Left/Right -->
<g id="edge30" class="edge"><title>wallRadar[0.7,&#45;0.7]&#45;&gt; Move Left/Right</title>
<path fill="none" stroke="green" stroke-width="0.437574" d="M1415.55,-190.084C1437.12,-175.028 1484.75,-141.778 1522.54,-115.395"/>
<polygon fill="green" stroke="green" stroke-width="0.437574" points="1524.74,-118.131 1530.93,-109.537 1520.73,-112.391 1524.74,-118.131"/>
</g>
<!-- wallRadar[0.7,&#45;0.7]&#45;&gt;Turn left/right -->
<g id="edge35" class="edge"><title>wallRadar[0.7,&#45;0.7]&#45;&gt;Turn left/right</title>
<path fill="none" stroke="green" stroke-width="0.58521" d="M1390.3,-190.084C1361.85,-173.338 1295.16,-134.087 1248.82,-106.808"/>
<polygon fill="green" stroke="green" stroke-width="0.58521" points="1250.52,-103.748 1240.12,-101.692 1246.97,-109.781 1250.52,-103.748"/>
</g>
<!-- enemyRadar[RightBack] -->
<g id="node9" class="node"><title>enemyRadar[RightBack]</title>
<polygon fill="lightgray" stroke="black" points="1569,-208.149 1465,-208.149 1465,-190.149 1569,-190.149 1569,-208.149"/>
<text text-anchor="middle" x="1517" y="-196.949" font-family="Times,serif" font-size="9.00">enemyRadar[RightBack]</text>
</g>
<!-- enemyRadar[RightBack]&#45;&gt;Move Forward/Backward -->
<g id="edge24" class="edge"><title>enemyRadar[RightBack]&#45;&gt;Move Forward/Backward</title>
<path fill="none" stroke="green" stroke-width="0.279332" d="M1464.76,-191.244C1461.8,-190.869 1458.86,-190.502 1456,-190.149 1317.46,-173.073 1275.86,-199.961 1144,-154.149 1126.19,-147.961 1108.24,-138.858 1091.78,-129.081"/>
<polygon fill="green" stroke="green" stroke-width="0.279332" points="1093.15,-125.818 1082.79,-123.595 1089.5,-131.793 1093.15,-125.818"/>
</g>
<!-- enemyRadar[RightBack]&#45;&gt; Move Left/Right -->
<g id="edge1" class="edge"><title>enemyRadar[RightBack]&#45;&gt; Move Left/Right</title>
<path fill="none" stroke="green" stroke-width="0.268459" d="M1521.06,-189.896C1526.64,-178.537 1537.18,-157.087 1547.54,-135.987"/>
<polygon fill="green" stroke="green" stroke-width="0.268459" points="1550.69,-137.515 1551.96,-126.996 1544.41,-134.428 1550.69,-137.515"/>
</g>
<!-- enemyRadar[RightBack]&#45;&gt;Turn left/right -->
<g id="edge22" class="edge"><title>enemyRadar[RightBack]&#45;&gt;Turn left/right</title>
<path fill="none" stroke="red" stroke-width="0.420226" d="M1495.71,-190.084C1446.59,-171.478 1324.12,-125.088 1253.15,-98.2062"/>
<polygon fill="red" stroke="red" stroke-width="0.420226" points="1254.08,-94.8167 1243.49,-94.5474 1251.6,-101.363 1254.08,-94.8167"/>
</g>
<!-- enemyRadar[LeftBack] -->
<g id="node10" class="node"><title>enemyRadar[LeftBack]</title>
<polygon fill="lightgray" stroke="black" points="2352.5,-208.149 2253.5,-208.149 2253.5,-190.149 2352.5,-190.149 2352.5,-208.149"/>
<text text-anchor="middle" x="2303" y="-196.949" font-family="Times,serif" font-size="9.00">enemyRadar[LeftBack]</text>
</g>
<!-- enemyRadar[LeftBack]&#45;&gt; Move Left/Right -->
<g id="edge27" class="edge"><title>enemyRadar[LeftBack]&#45;&gt; Move Left/Right</title>
<path fill="none" stroke="red" stroke-width="0.299107" d="M2254.45,-190.131C2127.23,-169.118 1784.08,-112.443 1640.53,-88.7319"/>
<polygon fill="red" stroke="red" stroke-width="0.299107" points="1640.98,-85.2591 1630.54,-87.0827 1639.84,-92.1655 1640.98,-85.2591"/>
</g>
<!-- enemyRadar[Right45ø] -->
<g id="node11" class="node"><title>enemyRadar[Right45ø]</title>
<polygon fill="lightgray" stroke="black" points="580,-208.149 480,-208.149 480,-190.149 580,-190.149 580,-208.149"/>
<text text-anchor="middle" x="530" y="-196.949" font-family="Times,serif" font-size="9.00">enemyRadar[Right45ø]</text>
</g>
<!-- enemyRadar[Right45ø]&#45;&gt;Shoot -->
<g id="edge43" class="edge"><title>enemyRadar[Right45ø]&#45;&gt;Shoot</title>
<path fill="none" stroke="red" stroke-width="0.147265" d="M523.608,-189.896C510.591,-173.09 480.463,-134.191 459.421,-107.023"/>
<polygon fill="red" stroke="red" stroke-width="0.147265" points="462.101,-104.768 453.211,-99.0051 456.567,-109.054 462.101,-104.768"/>
</g>
<!-- enemyRadar[Right45ø]&#45;&gt;Move Forward/Backward -->
<g id="edge29" class="edge"><title>enemyRadar[Right45ø]&#45;&gt;Move Forward/Backward</title>
<path fill="none" stroke="green" stroke-width="0.200792" d="M562.978,-190.084C638.534,-171.607 826.122,-125.732 936.374,-98.7701"/>
<polygon fill="green" stroke="green" stroke-width="0.200792" points="937.257,-102.157 946.14,-96.3818 935.595,-95.3576 937.257,-102.157"/>
</g>
<!-- enemyRadar[Right45ø]&#45;&gt;Turn left/right -->
<g id="edge34" class="edge"><title>enemyRadar[Right45ø]&#45;&gt;Turn left/right</title>
<path fill="none" stroke="red" stroke-width="0.213705" d="M580.063,-191.234C583.423,-190.844 586.759,-190.478 590,-190.149 704.58,-178.533 999.945,-196.607 1107,-154.149 1126.81,-146.291 1145.63,-132.585 1161.08,-118.951"/>
<polygon fill="red" stroke="red" stroke-width="0.213705" points="1163.82,-121.188 1168.85,-111.86 1159.1,-116.02 1163.82,-121.188"/>
</g>
<!-- enemyRadar[Left45ø] -->
<g id="node12" class="node"><title>enemyRadar[Left45ø]</title>
<polygon fill="lightgray" stroke="black" points="1682.5,-208.149 1587.5,-208.149 1587.5,-190.149 1682.5,-190.149 1682.5,-208.149"/>
<text text-anchor="middle" x="1635" y="-196.949" font-family="Times,serif" font-size="9.00">enemyRadar[Left45ø]</text>
</g>
<!-- enemyRadar[Left45ø]&#45;&gt;Move Forward/Backward -->
<g id="edge6" class="edge"><title>enemyRadar[Left45ø]&#45;&gt;Move Forward/Backward</title>
<path fill="none" stroke="green" stroke-width="0.143569" d="M1587.44,-191.269C1584.25,-190.87 1581.08,-190.493 1578,-190.149 1385.64,-168.69 1327.83,-214.728 1144,-154.149 1125.83,-148.16 1107.57,-138.994 1090.89,-129.074"/>
<polygon fill="green" stroke="green" stroke-width="0.143569" points="1092.68,-126.065 1082.33,-123.83 1089.03,-132.036 1092.68,-126.065"/>
</g>
<!-- enemyRadar[Left45ø]&#45;&gt; Move Left/Right -->
<g id="edge4" class="edge"><title>enemyRadar[Left45ø]&#45;&gt; Move Left/Right</title>
<path fill="none" stroke="green" stroke-width="0.207811" d="M1630.94,-189.896C1625.36,-178.537 1614.82,-157.087 1604.46,-135.987"/>
<polygon fill="green" stroke="green" stroke-width="0.207811" points="1607.59,-134.428 1600.04,-126.996 1601.31,-137.515 1607.59,-134.428"/>
</g>
<!-- enemyRadar[Left45ø]&#45;&gt;Turn left/right -->
<g id="edge32" class="edge"><title>enemyRadar[Left45ø]&#45;&gt;Turn left/right</title>
<path fill="none" stroke="green" stroke-width="0.16567" d="M1605.78,-190.084C1533.92,-170.247 1347.65,-118.832 1254.59,-93.1433"/>
<polygon fill="green" stroke="green" stroke-width="0.16567" points="1255.37,-89.7276 1244.8,-90.4405 1253.51,-96.4752 1255.37,-89.7276"/>
</g>
<!-- enemyRadar[RightFront20ø] -->
<g id="node13" class="node"><title>enemyRadar[RightFront20ø]</title>
<polygon fill="lightgray" stroke="black" points="2094.5,-208.149 1975.5,-208.149 1975.5,-190.149 2094.5,-190.149 2094.5,-208.149"/>
<text text-anchor="middle" x="2035" y="-196.949" font-family="Times,serif" font-size="9.00">enemyRadar[RightFront20ø]</text>
</g>
<!-- enemyRadar[RightFront20ø]&#45;&gt; Move Left/Right -->
<g id="edge21" class="edge"><title>enemyRadar[RightFront20ø]&#45;&gt; Move Left/Right</title>
<path fill="none" stroke="green" stroke-width="0.290876" d="M2004.17,-190.084C1929.74,-170.614 1739.02,-120.721 1639.14,-94.5933"/>
<polygon fill="green" stroke="green" stroke-width="0.290876" points="1639.74,-91.1325 1629.18,-91.9876 1637.97,-97.9046 1639.74,-91.1325"/>
</g>
<!-- enemyRadar[RightFront20ø]&#45;&gt;Turn left/right -->
<g id="edge33" class="edge"><title>enemyRadar[RightFront20ø]&#45;&gt;Turn left/right</title>
<path fill="none" stroke="red" stroke-width="0.61877" d="M1975.18,-191.079C1972.07,-190.754 1969,-190.442 1966,-190.149 1764.55,-170.49 1711.85,-186.226 1512,-154.149 1420.48,-139.461 1316.25,-111.768 1254.42,-94.1548"/>
<polygon fill="red" stroke="red" stroke-width="0.61877" points="1255.07,-90.7012 1244.49,-91.3109 1253.14,-97.4303 1255.07,-90.7012"/>
</g>
<!-- enemyRadar[LeftFront20ø] -->
<g id="node14" class="node"><title>enemyRadar[LeftFront20ø]</title>
<polygon fill="lightgray" stroke="black" points="954,-208.149 840,-208.149 840,-190.149 954,-190.149 954,-208.149"/>
<text text-anchor="middle" x="897" y="-196.949" font-family="Times,serif" font-size="9.00">enemyRadar[LeftFront20ø]</text>
</g>
<!-- enemyRadar[LeftFront20ø]&#45;&gt;Move Forward/Backward -->
<g id="edge38" class="edge"><title>enemyRadar[LeftFront20ø]&#45;&gt;Move Forward/Backward</title>
<path fill="none" stroke="green" stroke-width="0.422773" d="M905.523,-189.896C916.781,-178.995 937.637,-158.798 958.561,-138.537"/>
<polygon fill="green" stroke="green" stroke-width="0.422773" points="961.2,-140.854 965.949,-131.383 956.33,-135.825 961.2,-140.854"/>
</g>
<!-- enemyRadar[LeftFront20ø]&#45;&gt;Turn left/right -->
<g id="edge9" class="edge"><title>enemyRadar[LeftFront20ø]&#45;&gt;Turn left/right</title>
<path fill="none" stroke="green" stroke-width="0.192847" d="M949.163,-190.133C1001.96,-181.504 1079.61,-167.247 1107,-154.149 1126.07,-145.03 1144.61,-131.209 1160.06,-117.839"/>
<polygon fill="green" stroke="green" stroke-width="0.192847" points="1162.7,-120.178 1167.84,-110.916 1158.05,-114.948 1162.7,-120.178"/>
</g>
<!-- enemyRadar[RightFront15ø] -->
<g id="node15" class="node"><title>enemyRadar[RightFront15ø]</title>
<polygon fill="lightgray" stroke="black" points="717.5,-208.149 598.5,-208.149 598.5,-190.149 717.5,-190.149 717.5,-208.149"/>
<text text-anchor="middle" x="658" y="-196.949" font-family="Times,serif" font-size="9.00">enemyRadar[RightFront15ø]</text>
</g>
<!-- enemyRadar[RightFront15ø]&#45;&gt;Shoot -->
<g id="edge28" class="edge"><title>enemyRadar[RightFront15ø]&#45;&gt;Shoot</title>
<path fill="none" stroke="red" stroke-width="0.271924" d="M643.156,-190.084C607.789,-170.868 517.881,-122.019 469.309,-95.629"/>
<polygon fill="red" stroke="red" stroke-width="0.271924" points="470.917,-92.5191 460.459,-90.8204 467.575,-98.6699 470.917,-92.5191"/>
</g>
<!-- enemyRadar[RightFront15ø]&#45;&gt;Move Forward/Backward -->
<g id="edge26" class="edge"><title>enemyRadar[RightFront15ø]&#45;&gt;Move Forward/Backward</title>
<path fill="none" stroke="green" stroke-width="0.497093" d="M682.381,-190.084C733.835,-173.064 855.567,-132.797 938.154,-105.479"/>
<polygon fill="green" stroke="green" stroke-width="0.497093" points="939.378,-108.761 947.773,-102.297 937.179,-102.115 939.378,-108.761"/>
</g>
<!-- enemyRadar[RightFront15ø]&#45;&gt; Move Left/Right -->
<g id="edge2" class="edge"><title>enemyRadar[RightFront15ø]&#45;&gt; Move Left/Right</title>
<path fill="none" stroke="green" stroke-width="0.210285" d="M717.821,-191.038C720.924,-190.724 723.998,-190.425 727,-190.149 961.665,-168.573 1023.02,-189.522 1256,-154.149 1346.57,-140.399 1449.28,-114.009 1513.36,-96.2201"/>
<polygon fill="green" stroke="green" stroke-width="0.210285" points="1514.61,-99.5036 1523.3,-93.4421 1512.73,-92.7618 1514.61,-99.5036"/>
</g>
<!-- enemyRadar[LeftFront15ø] -->
<g id="node16" class="node"><title>enemyRadar[LeftFront15ø]</title>
<polygon fill="lightgray" stroke="black" points="1202,-208.149 1088,-208.149 1088,-190.149 1202,-190.149 1202,-208.149"/>
<text text-anchor="middle" x="1145" y="-196.949" font-family="Times,serif" font-size="9.00">enemyRadar[LeftFront15ø]</text>
</g>
<!-- enemyRadar[LeftFront15ø]&#45;&gt;Shoot -->
<g id="edge15" class="edge"><title>enemyRadar[LeftFront15ø]&#45;&gt;Shoot</title>
<path fill="none" stroke="green" stroke-width="0.102028" d="M1097.72,-190.131C965.105,-167.64 591.572,-104.29 473.354,-84.2401"/>
<polygon fill="green" stroke="green" stroke-width="0.102028" points="473.806,-80.7668 463.361,-82.5454 472.635,-87.6683 473.806,-80.7668"/>
</g>
<!-- enemyRadar[LeftFront15ø]&#45;&gt;Move Forward/Backward -->
<g id="edge25" class="edge"><title>enemyRadar[LeftFront15ø]&#45;&gt;Move Forward/Backward</title>
<path fill="none" stroke="green" stroke-width="0.133001" d="M1136.48,-189.896C1125.22,-178.995 1104.36,-158.798 1083.44,-138.537"/>
<polygon fill="green" stroke="green" stroke-width="0.133001" points="1085.67,-135.825 1076.05,-131.383 1080.8,-140.854 1085.67,-135.825"/>
</g>
<!-- enemyRadar[LeftFront15ø]&#45;&gt; Move Left/Right -->
<g id="edge20" class="edge"><title>enemyRadar[LeftFront15ø]&#45;&gt; Move Left/Right</title>
<path fill="none" stroke="red" stroke-width="0.433856" d="M1173.95,-190.084C1242.95,-170.862 1418.37,-121.988 1513.08,-95.604"/>
<polygon fill="red" stroke="red" stroke-width="0.433856" points="1514.13,-98.945 1522.82,-92.8896 1512.25,-92.2018 1514.13,-98.945"/>
</g>
<!-- enemyRadar[LeftFront15ø]&#45;&gt;Turn left/right -->
<g id="edge13" class="edge"><title>enemyRadar[LeftFront15ø]&#45;&gt;Turn left/right</title>
<path fill="none" stroke="green" stroke-width="0.452185" d="M1148.78,-189.896C1154.57,-177.267 1166.06,-152.161 1176.7,-128.933"/>
<polygon fill="green" stroke="green" stroke-width="0.452185" points="1179.9,-130.365 1180.88,-119.815 1173.53,-127.45 1179.9,-130.365"/>
</g>
<!-- enemyRadar[RightFront7.5ø] -->
<g id="node17" class="node"><title>enemyRadar[RightFront7.5ø]</title>
<polygon fill="lightgray" stroke="black" points="1823,-208.149 1701,-208.149 1701,-190.149 1823,-190.149 1823,-208.149"/>
<text text-anchor="middle" x="1762" y="-196.949" font-family="Times,serif" font-size="9.00">enemyRadar[RightFront7.5ø]</text>
</g>
<!-- enemyRadar[RightFront7.5ø]&#45;&gt;Move Forward/Backward -->
<g id="edge45" class="edge"><title>enemyRadar[RightFront7.5ø]&#45;&gt;Move Forward/Backward</title>
<path fill="none" stroke="green" stroke-width="0.490575" d="M1700.93,-190.995C1697.91,-190.696 1694.92,-190.412 1692,-190.149 1570.45,-179.217 1260.23,-191.35 1144,-154.149 1125.77,-148.316 1107.5,-139.213 1090.82,-129.305"/>
<polygon fill="green" stroke="green" stroke-width="0.490575" points="1092.61,-126.296 1082.25,-124.063 1088.95,-132.267 1092.61,-126.296"/>
</g>
<!-- enemyRadar[RightFront7.5ø]&#45;&gt; Move Left/Right -->
<g id="edge11" class="edge"><title>enemyRadar[RightFront7.5ø]&#45;&gt; Move Left/Right</title>
<path fill="none" stroke="green" stroke-width="0.175539" d="M1749.51,-190.084C1725.55,-174.621 1671.87,-139.968 1630.52,-113.271"/>
<polygon fill="green" stroke="green" stroke-width="0.175539" points="1632.2,-110.188 1621.9,-107.705 1628.4,-116.069 1632.2,-110.188"/>
</g>
<!-- enemyRadar[LeftFront7.5ø] -->
<g id="node18" class="node"><title>enemyRadar[LeftFront7.5ø]</title>
<polygon fill="lightgray" stroke="black" points="1957,-208.149 1841,-208.149 1841,-190.149 1957,-190.149 1957,-208.149"/>
<text text-anchor="middle" x="1899" y="-196.949" font-family="Times,serif" font-size="9.00">enemyRadar[LeftFront7.5ø]</text>
</g>
<!-- enemyRadar[LeftFront7.5ø]&#45;&gt;Move Forward/Backward -->
<g id="edge39" class="edge"><title>enemyRadar[LeftFront7.5ø]&#45;&gt;Move Forward/Backward</title>
<path fill="none" stroke="red" stroke-width="0.39735" d="M1840.92,-190.975C1837.9,-190.677 1834.92,-190.4 1832,-190.149 1679.46,-177.066 1290.12,-199.845 1144,-154.149 1125.74,-148.438 1107.44,-139.384 1090.76,-129.485"/>
<polygon fill="red" stroke="red" stroke-width="0.39735" points="1092.55,-126.476 1082.19,-124.244 1088.9,-132.447 1092.55,-126.476"/>
</g>
<!-- enemyRadar[LeftFront7.5ø]&#45;&gt; Move Left/Right -->
<g id="edge18" class="edge"><title>enemyRadar[LeftFront7.5ø]&#45;&gt; Move Left/Right</title>
<path fill="none" stroke="red" stroke-width="0.296248" d="M1877.31,-190.084C1828.84,-172.069 1710.32,-128.007 1637.2,-100.825"/>
<polygon fill="red" stroke="red" stroke-width="0.296248" points="1638.23,-97.4739 1627.64,-97.27 1635.79,-104.035 1638.23,-97.4739"/>
</g>
<!-- enemyRadar[RightFront2.5ø] -->
<g id="node19" class="node"><title>enemyRadar[RightFront2.5ø]</title>
<polygon fill="lightgray" stroke="black" points="2235,-208.149 2113,-208.149 2113,-190.149 2235,-190.149 2235,-208.149"/>
<text text-anchor="middle" x="2174" y="-196.949" font-family="Times,serif" font-size="9.00">enemyRadar[RightFront2.5ø]</text>
</g>
<!-- enemyRadar[RightFront2.5ø]&#45;&gt; Move Left/Right -->
<g id="edge14" class="edge"><title>enemyRadar[RightFront2.5ø]&#45;&gt; Move Left/Right</title>
<path fill="none" stroke="green" stroke-width="0.186358" d="M2133.83,-190.084C2032.2,-169.678 1764.14,-115.852 1640.35,-90.9948"/>
<polygon fill="green" stroke="green" stroke-width="0.186358" points="1640.75,-87.5056 1630.25,-88.9684 1639.37,-94.3686 1640.75,-87.5056"/>
</g>
<!-- enemyRadar[LeftFront2.5ø] -->
<g id="node20" class="node"><title>enemyRadar[LeftFront2.5ø]</title>
<polygon fill="lightgray" stroke="black" points="116,-208.149 7.10543e-15,-208.149 7.10543e-15,-190.149 116,-190.149 116,-208.149"/>
<text text-anchor="middle" x="58" y="-196.949" font-family="Times,serif" font-size="9.00">enemyRadar[LeftFront2.5ø]</text>
</g>
<!-- enemyRadar[LeftFront2.5ø]&#45;&gt;Shoot -->
<g id="edge44" class="edge"><title>enemyRadar[LeftFront2.5ø]&#45;&gt;Shoot</title>
<path fill="none" stroke="green" stroke-width="0.633112" d="M83.4558,-190.084C149.532,-169.15 326.616,-113.046 402.119,-89.1257"/>
<polygon fill="green" stroke="green" stroke-width="0.633112" points="403.179,-92.4613 411.655,-86.1044 401.065,-85.7882 403.179,-92.4613"/>
</g>
<!-- enemyRadar[Front7Ø] -->
<g id="node21" class="node"><title>enemyRadar[Front7Ø]</title>
<polygon fill="lightgray" stroke="black" points="1070,-208.149 972,-208.149 972,-190.149 1070,-190.149 1070,-208.149"/>
<text text-anchor="middle" x="1021" y="-196.949" font-family="Times,serif" font-size="9.00">enemyRadar[Front7Ø]</text>
</g>
<!-- enemyRadar[Front7Ø]&#45;&gt;Move Forward/Backward -->
<g id="edge31" class="edge"><title>enemyRadar[Front7Ø]&#45;&gt;Move Forward/Backward</title>
<path fill="none" stroke="red" stroke-width="0.32122" d="M1021,-189.896C1021,-183.793 1021,-174.776 1021,-164.466"/>
<polygon fill="red" stroke="red" stroke-width="0.32122" points="1024.5,-164.237 1021,-154.237 1017.5,-164.237 1024.5,-164.237"/>
</g>
<!-- enemyRadar[Front7Ø]&#45;&gt;Turn left/right -->
<g id="edge16" class="edge"><title>enemyRadar[Front7Ø]&#45;&gt;Turn left/right</title>
<path fill="none" stroke="red" stroke-width="0.113235" d="M1039.41,-190.119C1057.26,-182.016 1084.82,-168.655 1107,-154.149 1124.39,-142.772 1142.33,-128.728 1157.76,-115.816"/>
<polygon fill="red" stroke="red" stroke-width="0.113235" points="1160.22,-118.322 1165.58,-109.187 1155.69,-112.982 1160.22,-118.322"/>
</g>
<!-- OnTarget -->
<g id="node22" class="node"><title>OnTarget</title>
<polygon fill="lightgray" stroke="black" points="462,-208.149 412,-208.149 412,-190.149 462,-190.149 462,-208.149"/>
<text text-anchor="middle" x="437" y="-196.949" font-family="Times,serif" font-size="9.00">OnTarget</text>
</g>
<!-- OnTarget&#45;&gt;Shoot -->
<g id="edge36" class="edge"><title>OnTarget&#45;&gt;Shoot</title>
<path fill="none" stroke="red" stroke-width="0.309839" d="M437,-189.896C437,-174.554 437,-140.799 437,-114.366"/>
<polygon fill="red" stroke="red" stroke-width="0.309839" points="440.5,-114.286 437,-104.286 433.5,-114.286 440.5,-114.286"/>
</g>
<!-- OnTarget&#45;&gt;Move Forward/Backward -->
<g id="edge17" class="edge"><title>OnTarget&#45;&gt;Move Forward/Backward</title>
<path fill="none" stroke="green" stroke-width="0.177478" d="M462.232,-192.123C465.185,-191.445 468.157,-190.773 471,-190.149 634.835,-154.191 826.999,-115.92 935.33,-94.703"/>
<polygon fill="green" stroke="green" stroke-width="0.177478" points="936.086,-98.1216 945.227,-92.7663 934.741,-91.2519 936.086,-98.1216"/>
</g>
<!-- bias -->
<g id="node23" class="node"><title>bias</title>
<polygon fill="lightgray" stroke="black" points="1251.5,-208.149 1220.5,-208.149 1220.5,-190.149 1251.5,-190.149 1251.5,-208.149"/>
<text text-anchor="middle" x="1236" y="-196.949" font-family="Times,serif" font-size="9.00">bias</text>
</g>
<!-- bias&#45;&gt;Shoot -->
<g id="edge10" class="edge"><title>bias&#45;&gt;Shoot</title>
<path fill="none" stroke="red" stroke-width="0.164689" d="M1220.25,-192.635C1217.21,-191.706 1214.02,-190.825 1211,-190.149 1090.27,-163.189 1057.48,-171.491 935,-154.149 762.026,-129.66 555.799,-97.0724 473.517,-83.9331"/>
<polygon fill="red" stroke="red" stroke-width="0.164689" points="473.851,-80.4422 463.424,-82.3197 472.746,-87.3545 473.851,-80.4422"/>
</g>
<!-- bias&#45;&gt; Move Left/Right -->
<g id="edge12" class="edge"><title>bias&#45;&gt; Move Left/Right</title>
<path fill="none" stroke="green" stroke-width="0.418773" d="M1251.94,-192.519C1298.18,-176.19 1434.14,-128.176 1514.51,-99.7922"/>
<polygon fill="green" stroke="green" stroke-width="0.418773" points="1515.76,-103.062 1524.02,-96.4316 1513.43,-96.4615 1515.76,-103.062"/>
</g>
<!-- bias&#45;&gt;Turn left/right -->
<g id="edge19" class="edge"><title>bias&#45;&gt;Turn left/right</title>
<path fill="none" stroke="red" stroke-width="0.115833" d="M1233.53,-189.896C1229.9,-177.803 1222.85,-154.273 1216.14,-131.904"/>
<polygon fill="red" stroke="red" stroke-width="0.115833" points="1219.42,-130.664 1213.2,-122.091 1212.72,-132.675 1219.42,-130.664"/>
</g>
</g>
</svg>
