<?xml version="1.0" encoding="UTF-8" standalone="no"?>
<!DOCTYPE svg PUBLIC "-//W3C//DTD SVG 1.1//EN"
 "http://www.w3.org/Graphics/SVG/1.1/DTD/svg11.dtd">
<!-- Generated by graphviz version 2.38.0 (20140413.2041)
 -->
<!-- Title: %3 Pages: 1 -->
<svg width="2381pt" height="172pt"
 viewBox="0.00 0.00 2381.00 172.31" xmlns="http://www.w3.org/2000/svg" xmlns:xlink="http://www.w3.org/1999/xlink">
<g id="graph0" class="graph" transform="scale(1 1) rotate(0) translate(4 168.309)">
<title>%3</title>
<polygon fill="white" stroke="none" points="-4,4 -4,-168.309 2377,-168.309 2377,4 -4,4"/>
<!-- wallRadar[1,0] -->
<g id="node1" class="node"><title>wallRadar[1,0]</title>
<polygon fill="lightgray" stroke="black" points="169.5,-164.309 99.5,-164.309 99.5,-146.309 169.5,-146.309 169.5,-164.309"/>
<text text-anchor="middle" x="134.5" y="-153.109" font-family="Times,serif" font-size="9.00">wallRadar[1,0]</text>
</g>
<!-- Move Left -->
<g id="node26" class="node"><title>Move Left</title>
<ellipse fill="lightblue" stroke="black" cx="603.5" cy="-55.1543" rx="38.3684" ry="38.3684"/>
<text text-anchor="middle" x="603.5" y="-52.9543" font-family="Times,serif" font-size="9.00">Move Left</text>
</g>
<!-- wallRadar[1,0]&#45;&gt;Move Left -->
<g id="edge27" class="edge"><title>wallRadar[1,0]&#45;&gt;Move Left</title>
<path fill="none" stroke="green" stroke-width="0.133259" stroke-dasharray="1,5" d="M169.751,-146.931C253.098,-129.488 462.342,-85.6965 556.407,-66.0102"/>
<polygon fill="green" stroke="green" stroke-width="0.133259" points="557.148,-69.431 566.219,-63.9567 555.714,-62.5795 557.148,-69.431"/>
</g>
<!-- Turn Left -->
<g id="node28" class="node"><title>Turn Left</title>
<ellipse fill="lightblue" stroke="black" cx="734.5" cy="-55.1543" rx="35.2113" ry="35.2113"/>
<text text-anchor="middle" x="734.5" y="-52.9543" font-family="Times,serif" font-size="9.00">Turn Left</text>
</g>
<!-- wallRadar[1,0]&#45;&gt;Turn Left -->
<g id="edge5" class="edge"><title>wallRadar[1,0]&#45;&gt;Turn Left</title>
<path fill="none" stroke="green" stroke-width="0.371691" d="M169.513,-147.604C172.547,-147.126 175.574,-146.685 178.5,-146.309 387.166,-119.455 451.085,-177.363 650.5,-110.309 667.661,-104.538 684.787,-94.475 699.057,-84.5771"/>
<polygon fill="green" stroke="green" stroke-width="0.371691" points="701.469,-87.1535 707.547,-78.4754 697.384,-81.4692 701.469,-87.1535"/>
</g>
<!-- wallRadar[0,1] -->
<g id="node2" class="node"><title>wallRadar[0,1]</title>
<polygon fill="lightgray" stroke="black" points="257.5,-164.309 187.5,-164.309 187.5,-146.309 257.5,-146.309 257.5,-164.309"/>
<text text-anchor="middle" x="222.5" y="-153.109" font-family="Times,serif" font-size="9.00">wallRadar[0,1]</text>
</g>
<!-- wallRadar[0,1]&#45;&gt;Move Left -->
<g id="edge38" class="edge"><title>wallRadar[0,1]&#45;&gt;Move Left</title>
<path fill="none" stroke="green" stroke-width="0.769393" d="M253.679,-146.276C320.438,-129.078 477.534,-88.606 556.48,-68.2677"/>
<polygon fill="green" stroke="green" stroke-width="0.769393" points="557.815,-71.5381 566.626,-65.6539 556.069,-64.7594 557.815,-71.5381"/>
</g>
<!-- wallRadar[0,1]&#45;&gt;Turn Left -->
<g id="edge50" class="edge"><title>wallRadar[0,1]&#45;&gt;Turn Left</title>
<path fill="none" stroke="green" stroke-width="0.553622" d="M257.521,-147.66C260.553,-147.17 263.577,-146.711 266.5,-146.309 436.317,-122.955 488.505,-166.35 650.5,-110.309 667.61,-104.39 684.727,-94.2988 699.003,-84.4205"/>
<polygon fill="green" stroke="green" stroke-width="0.553622" points="701.407,-87.0043 707.5,-78.3365 697.331,-81.313 701.407,-87.0043"/>
</g>
<!-- wallRadar[&#45;1,0] -->
<g id="node3" class="node"><title>wallRadar[&#45;1,0]</title>
<polygon fill="lightgray" stroke="black" points="1801,-164.309 1728,-164.309 1728,-146.309 1801,-146.309 1801,-164.309"/>
<text text-anchor="middle" x="1764.5" y="-153.109" font-family="Times,serif" font-size="9.00">wallRadar[&#45;1,0]</text>
</g>
<!-- Shoot -->
<g id="node23" class="node"><title>Shoot</title>
<ellipse fill="lightblue" stroke="black" cx="1310.5" cy="-55.1543" rx="26.7407" ry="26.7407"/>
<text text-anchor="middle" x="1310.5" y="-52.9543" font-family="Times,serif" font-size="9.00">Shoot</text>
</g>
<!-- wallRadar[&#45;1,0]&#45;&gt;Shoot -->
<g id="edge72" class="edge"><title>wallRadar[&#45;1,0]&#45;&gt;Shoot</title>
<path fill="none" stroke="green" stroke-width="0.717265" d="M1727.7,-147.534C1724.93,-147.095 1722.17,-146.681 1719.5,-146.309 1640.75,-135.342 1435.15,-144.786 1363.5,-110.309 1351.65,-104.605 1340.97,-95.0936 1332.35,-85.6201"/>
<polygon fill="green" stroke="green" stroke-width="0.717265" points="1334.78,-83.0772 1325.62,-77.7557 1329.46,-87.6289 1334.78,-83.0772"/>
</g>
<!--  Move Backward -->
<g id="node25" class="node"><title> Move Backward</title>
<ellipse fill="lightblue" stroke="black" cx="1940.5" cy="-55.1543" rx="55.3091" ry="55.3091"/>
<text text-anchor="middle" x="1940.5" y="-52.9543" font-family="Times,serif" font-size="9.00"> Move Backward</text>
</g>
<!-- wallRadar[&#45;1,0]&#45;&gt; Move Backward -->
<g id="edge13" class="edge"><title>wallRadar[&#45;1,0]&#45;&gt; Move Backward</title>
<path fill="none" stroke="red" stroke-width="0.476346" stroke-dasharray="1,5" d="M1778.9,-146.276C1801.53,-133.656 1846.63,-108.504 1883.45,-87.9712"/>
<polygon fill="red" stroke="red" stroke-width="0.476346" points="1885.58,-90.7885 1892.61,-82.861 1882.17,-84.6749 1885.58,-90.7885"/>
</g>
<!-- Turn Right -->
<g id="node29" class="node"><title>Turn Right</title>
<ellipse fill="lightblue" stroke="black" cx="1147.5" cy="-55.1543" rx="39.6962" ry="39.6962"/>
<text text-anchor="middle" x="1147.5" y="-52.9543" font-family="Times,serif" font-size="9.00">Turn Right</text>
</g>
<!-- wallRadar[&#45;1,0]&#45;&gt;Turn Right -->
<g id="edge62" class="edge"><title>wallRadar[&#45;1,0]&#45;&gt;Turn Right</title>
<path fill="none" stroke="green" stroke-width="0.664353" d="M1727.71,-147.473C1724.93,-147.049 1722.18,-146.654 1719.5,-146.309 1522.71,-120.914 1467.15,-157.84 1274.5,-110.309 1245.84,-103.238 1215.36,-90.4373 1191.45,-79.0564"/>
<polygon fill="green" stroke="green" stroke-width="0.664353" points="1192.82,-75.8304 1182.3,-74.6159 1189.77,-82.1288 1192.82,-75.8304"/>
</g>
<!-- wallRadar[0,&#45;1] -->
<g id="node4" class="node"><title>wallRadar[0,&#45;1]</title>
<polygon fill="lightgray" stroke="black" points="528,-164.309 455,-164.309 455,-146.309 528,-146.309 528,-164.309"/>
<text text-anchor="middle" x="491.5" y="-153.109" font-family="Times,serif" font-size="9.00">wallRadar[0,&#45;1]</text>
</g>
<!-- wallRadar[0,&#45;1]&#45;&gt;Shoot -->
<g id="edge11" class="edge"><title>wallRadar[0,&#45;1]&#45;&gt;Shoot</title>
<path fill="none" stroke="green" stroke-width="0.235242" d="M528.283,-147.394C531.058,-146.988 533.82,-146.619 536.5,-146.309 828.322,-112.537 911.79,-182.7 1196.5,-110.309 1225.86,-102.844 1256.75,-87.6481 1278.97,-75.2483"/>
<polygon fill="green" stroke="green" stroke-width="0.235242" points="1280.97,-78.1326 1287.92,-70.1359 1277.5,-72.0531 1280.97,-78.1326"/>
</g>
<!-- wallRadar[0,&#45;1]&#45;&gt;Move Left -->
<g id="edge4" class="edge"><title>wallRadar[0,&#45;1]&#45;&gt;Move Left</title>
<path fill="none" stroke="red" stroke-width="0.118241" d="M500.665,-146.276C515.122,-133.607 543.991,-108.307 567.47,-87.7305"/>
<polygon fill="red" stroke="red" stroke-width="0.118241" points="569.983,-90.1817 575.197,-80.9585 565.369,-84.9172 569.983,-90.1817"/>
</g>
<!-- wallRadar[0,&#45;1]&#45;&gt;Turn Left -->
<g id="edge36" class="edge"><title>wallRadar[0,&#45;1]&#45;&gt;Turn Left</title>
<path fill="none" stroke="red" stroke-width="0.547937" d="M528.262,-147.443C561.207,-140.526 610.38,-128.288 650.5,-110.309 666.891,-102.963 683.76,-92.7038 698.042,-83.0878"/>
<polygon fill="red" stroke="red" stroke-width="0.547937" points="700.32,-85.7688 706.572,-77.2154 696.351,-80.0029 700.32,-85.7688"/>
</g>
<!-- wallRadar[0,&#45;1]&#45;&gt;Turn Right -->
<g id="edge68" class="edge"><title>wallRadar[0,&#45;1]&#45;&gt;Turn Right</title>
<path fill="none" stroke="red" stroke-width="0.245509" stroke-dasharray="1,5" d="M528.322,-147.672C531.088,-147.201 533.837,-146.742 536.5,-146.309 564.281,-141.791 957.614,-84.0218 1098.09,-63.4047"/>
<polygon fill="red" stroke="red" stroke-width="0.245509" points="1098.76,-66.8432 1108.15,-61.9281 1097.75,-59.9173 1098.76,-66.8432"/>
</g>
<!-- wallRadar[0.7,0.7] -->
<g id="node5" class="node"><title>wallRadar[0.7,0.7]</title>
<polygon fill="lightgray" stroke="black" points="1021,-164.309 938,-164.309 938,-146.309 1021,-146.309 1021,-164.309"/>
<text text-anchor="middle" x="979.5" y="-153.109" font-family="Times,serif" font-size="9.00">wallRadar[0.7,0.7]</text>
</g>
<!-- Move Forward -->
<g id="node24" class="node"><title>Move Forward</title>
<ellipse fill="lightblue" stroke="black" cx="1660.5" cy="-55.1543" rx="50.41" ry="50.41"/>
<text text-anchor="middle" x="1660.5" y="-52.9543" font-family="Times,serif" font-size="9.00">Move Forward</text>
</g>
<!-- wallRadar[0.7,0.7]&#45;&gt;Move Forward -->
<g id="edge35" class="edge"><title>wallRadar[0.7,0.7]&#45;&gt;Move Forward</title>
<path fill="none" stroke="green" stroke-width="0.563342" d="M1021.21,-147.514C1024.35,-147.08 1027.47,-146.672 1030.5,-146.309 1221.35,-123.4 1272.2,-143.685 1461.5,-110.309 1509.93,-101.769 1563.68,-86.8028 1603.1,-74.7647"/>
<polygon fill="green" stroke="green" stroke-width="0.563342" points="1604.28,-78.0647 1612.8,-71.773 1602.21,-71.3756 1604.28,-78.0647"/>
</g>
<!-- wallRadar[0.7,0.7]&#45;&gt;Move Left -->
<g id="edge16" class="edge"><title>wallRadar[0.7,0.7]&#45;&gt;Move Left</title>
<path fill="none" stroke="green" stroke-width="0.442701" d="M937.754,-147.741C934.623,-147.254 931.512,-146.773 928.5,-146.309 822.766,-130.019 790.868,-147.338 690.5,-110.309 673.775,-104.138 656.813,-94.501 642.363,-85.0567"/>
<polygon fill="green" stroke="green" stroke-width="0.442701" points="643.965,-81.9158 633.715,-79.2339 640.055,-87.7223 643.965,-81.9158"/>
</g>
<!-- Move right -->
<g id="node27" class="node"><title>Move right</title>
<ellipse fill="lightblue" stroke="black" cx="1412.5" cy="-55.1543" rx="39.6962" ry="39.6962"/>
<text text-anchor="middle" x="1412.5" y="-52.9543" font-family="Times,serif" font-size="9.00">Move right</text>
</g>
<!-- wallRadar[0.7,0.7]&#45;&gt;Move right -->
<g id="edge66" class="edge"><title>wallRadar[0.7,0.7]&#45;&gt;Move right</title>
<path fill="none" stroke="green" stroke-width="0.3323" d="M1021.23,-147.616C1024.36,-147.159 1027.48,-146.717 1030.5,-146.309 1170.58,-127.352 1216.32,-165.391 1346.5,-110.309 1357.48,-105.663 1368.08,-98.59 1377.45,-91.074"/>
<polygon fill="green" stroke="green" stroke-width="0.3323" points="1379.96,-93.5311 1385.34,-84.4048 1375.44,-88.1832 1379.96,-93.5311"/>
</g>
<!-- wallRadar[0.7,0.7]&#45;&gt;Turn Left -->
<g id="edge9" class="edge"><title>wallRadar[0.7,0.7]&#45;&gt;Turn Left</title>
<path fill="none" stroke="green" stroke-width="0.410294" stroke-dasharray="1,5" d="M959.451,-146.276C919.643,-130.328 829.886,-94.3688 776.566,-73.0071"/>
<polygon fill="green" stroke="green" stroke-width="0.410294" points="777.638,-69.6664 767.054,-69.1964 775.035,-76.1644 777.638,-69.6664"/>
</g>
<!-- wallRadar[0.7,0.7]&#45;&gt;Turn Right -->
<g id="edge20" class="edge"><title>wallRadar[0.7,0.7]&#45;&gt;Turn Right</title>
<path fill="none" stroke="green" stroke-width="0.408547" d="M993.248,-146.276C1017.31,-132.221 1067.97,-102.622 1104.68,-81.1711"/>
<polygon fill="green" stroke="green" stroke-width="0.408547" points="1106.82,-83.9742 1113.69,-75.9075 1103.29,-77.9302 1106.82,-83.9742"/>
</g>
<!-- wallRadar[&#45;0.7,0.7] -->
<g id="node6" class="node"><title>wallRadar[&#45;0.7,0.7]</title>
<polygon fill="lightgray" stroke="black" points="2237.5,-164.309 2151.5,-164.309 2151.5,-146.309 2237.5,-146.309 2237.5,-164.309"/>
<text text-anchor="middle" x="2194.5" y="-153.109" font-family="Times,serif" font-size="9.00">wallRadar[&#45;0.7,0.7]</text>
</g>
<!-- wallRadar[&#45;0.7,0.7]&#45;&gt;Move Forward -->
<g id="edge69" class="edge"><title>wallRadar[&#45;0.7,0.7]&#45;&gt;Move Forward</title>
<path fill="none" stroke="red" stroke-width="0.465198" stroke-dasharray="1,5" d="M2151.38,-147.613C2148.37,-147.166 2145.39,-146.727 2142.5,-146.309 2024.43,-129.238 1993.65,-132.85 1876.5,-110.309 1822.44,-99.9063 1761.68,-84.3193 1718.41,-72.5349"/>
<polygon fill="red" stroke="red" stroke-width="0.465198" points="1719.2,-69.1216 1708.63,-69.8545 1717.35,-75.8728 1719.2,-69.1216"/>
</g>
<!-- wallRadar[&#45;0.7,0.7]&#45;&gt; Move Backward -->
<g id="edge67" class="edge"><title>wallRadar[&#45;0.7,0.7]&#45;&gt; Move Backward</title>
<path fill="none" stroke="green" stroke-width="0.272617" d="M2173.71,-146.276C2136.42,-131.864 2056.83,-101.107 2001.05,-79.5512"/>
<polygon fill="green" stroke="green" stroke-width="0.272617" points="2002.21,-76.2475 1991.62,-75.9075 1999.68,-82.7769 2002.21,-76.2475"/>
</g>
<!-- wallRadar[&#45;0.7,0.7]&#45;&gt;Move right -->
<g id="edge10" class="edge"><title>wallRadar[&#45;0.7,0.7]&#45;&gt;Move right</title>
<path fill="none" stroke="red" stroke-width="0.132927" d="M2151.41,-147.386C2148.4,-146.993 2145.41,-146.628 2142.5,-146.309 1902.97,-119.963 1838.89,-151.731 1601.5,-110.309 1552.11,-101.691 1497.18,-85.1362 1459.33,-72.5882"/>
<polygon fill="red" stroke="red" stroke-width="0.132927" points="1460.2,-69.1886 1449.6,-69.3288 1457.97,-75.8256 1460.2,-69.1886"/>
</g>
<!-- wallRadar[&#45;0.7,0.7]&#45;&gt;Turn Left -->
<g id="edge32" class="edge"><title>wallRadar[&#45;0.7,0.7]&#45;&gt;Turn Left</title>
<path fill="none" stroke="green" stroke-width="0.182561" d="M2151.42,-147.28C2148.41,-146.912 2145.41,-146.582 2142.5,-146.309 1680.25,-102.935 1560.85,-152.537 1098.5,-110.309 982.758,-99.7376 847.708,-76.8452 779.233,-64.4801"/>
<polygon fill="green" stroke="green" stroke-width="0.182561" points="779.69,-61.006 769.226,-62.6622 778.439,-67.8932 779.69,-61.006"/>
</g>
<!-- wallRadar[&#45;0.7,&#45;0.7] -->
<g id="node7" class="node"><title>wallRadar[&#45;0.7,&#45;0.7]</title>
<polygon fill="lightgray" stroke="black" points="1355,-164.309 1266,-164.309 1266,-146.309 1355,-146.309 1355,-164.309"/>
<text text-anchor="middle" x="1310.5" y="-153.109" font-family="Times,serif" font-size="9.00">wallRadar[&#45;0.7,&#45;0.7]</text>
</g>
<!-- wallRadar[&#45;0.7,&#45;0.7]&#45;&gt;Shoot -->
<g id="edge47" class="edge"><title>wallRadar[&#45;0.7,&#45;0.7]&#45;&gt;Shoot</title>
<path fill="none" stroke="red" stroke-width="0.579576" d="M1310.5,-146.276C1310.5,-134.556 1310.5,-112.026 1310.5,-92.4263"/>
<polygon fill="red" stroke="red" stroke-width="0.579576" points="1314,-92.2223 1310.5,-82.2223 1307,-92.2223 1314,-92.2223"/>
</g>
<!-- wallRadar[&#45;0.7,&#45;0.7]&#45;&gt;Move Forward -->
<g id="edge37" class="edge"><title>wallRadar[&#45;0.7,&#45;0.7]&#45;&gt;Move Forward</title>
<path fill="none" stroke="green" stroke-width="0.20806" d="M1339.14,-146.276C1396.48,-130.195 1526.38,-93.7665 1602.3,-72.4747"/>
<polygon fill="green" stroke="green" stroke-width="0.20806" points="1603.51,-75.7719 1612.19,-69.7016 1601.62,-69.0319 1603.51,-75.7719"/>
</g>
<!-- wallRadar[&#45;0.7,&#45;0.7]&#45;&gt;Move right -->
<g id="edge74" class="edge"><title>wallRadar[&#45;0.7,&#45;0.7]&#45;&gt;Move right</title>
<path fill="none" stroke="green" stroke-width="0.100406" d="M1318.85,-146.276C1331.39,-134.206 1355.85,-110.673 1376.62,-90.6813"/>
<polygon fill="green" stroke="green" stroke-width="0.100406" points="1379.3,-92.9599 1384.08,-83.5039 1374.45,-87.9159 1379.3,-92.9599"/>
</g>
<!-- wallRadar[&#45;0.7,&#45;0.7]&#45;&gt;Turn Left -->
<g id="edge23" class="edge"><title>wallRadar[&#45;0.7,&#45;0.7]&#45;&gt;Turn Left</title>
<path fill="none" stroke="red" stroke-width="0.727079" d="M1265.78,-146.688C1158.36,-128.383 886.755,-82.0996 779.277,-63.7846"/>
<polygon fill="red" stroke="red" stroke-width="0.727079" points="779.845,-60.331 769.399,-62.1014 778.669,-67.2316 779.845,-60.331"/>
</g>
<!-- wallRadar[&#45;0.7,&#45;0.7]&#45;&gt;Turn Right -->
<g id="edge30" class="edge"><title>wallRadar[&#45;0.7,&#45;0.7]&#45;&gt;Turn Right</title>
<path fill="none" stroke="green" stroke-width="1.21595" d="M1297.16,-146.276C1274.03,-132.347 1225.55,-103.154 1190.01,-81.7528"/>
<polygon fill="green" stroke="green" stroke-width="1.21595" points="1191.65,-78.6542 1181.28,-76.4938 1188.04,-84.6509 1191.65,-78.6542"/>
</g>
<!-- wallRadar[0.7,&#45;0.7] -->
<g id="node8" class="node"><title>wallRadar[0.7,&#45;0.7]</title>
<polygon fill="lightgray" stroke="black" points="1592.5,-164.309 1506.5,-164.309 1506.5,-146.309 1592.5,-146.309 1592.5,-164.309"/>
<text text-anchor="middle" x="1549.5" y="-153.109" font-family="Times,serif" font-size="9.00">wallRadar[0.7,&#45;0.7]</text>
</g>
<!-- wallRadar[0.7,&#45;0.7]&#45;&gt; Move Backward -->
<g id="edge25" class="edge"><title>wallRadar[0.7,&#45;0.7]&#45;&gt; Move Backward</title>
<path fill="none" stroke="green" stroke-width="0.67936" d="M1581.5,-146.276C1646.06,-130.069 1792.95,-93.194 1877.47,-71.9767"/>
<polygon fill="green" stroke="green" stroke-width="0.67936" points="1878.36,-75.3619 1887.21,-69.5324 1876.66,-68.5726 1878.36,-75.3619"/>
</g>
<!-- wallRadar[0.7,&#45;0.7]&#45;&gt;Turn Left -->
<g id="edge22" class="edge"><title>wallRadar[0.7,&#45;0.7]&#45;&gt;Turn Left</title>
<path fill="none" stroke="red" stroke-width="0.116112" d="M1506.4,-147.465C1503.39,-147.053 1500.4,-146.662 1497.5,-146.309 1320.75,-124.761 1275.3,-131.418 1098.5,-110.309 983.096,-96.5295 847.904,-74.9883 779.318,-63.674"/>
<polygon fill="red" stroke="red" stroke-width="0.116112" points="779.731,-60.1949 769.294,-62.0149 778.588,-67.1009 779.731,-60.1949"/>
</g>
<!-- enemyRadar[RightBack] -->
<g id="node9" class="node"><title>enemyRadar[RightBack]</title>
<polygon fill="lightgray" stroke="black" points="1143.5,-164.309 1039.5,-164.309 1039.5,-146.309 1143.5,-146.309 1143.5,-164.309"/>
<text text-anchor="middle" x="1091.5" y="-153.109" font-family="Times,serif" font-size="9.00">enemyRadar[RightBack]</text>
</g>
<!-- enemyRadar[RightBack]&#45;&gt; Move Backward -->
<g id="edge8" class="edge"><title>enemyRadar[RightBack]&#45;&gt; Move Backward</title>
<path fill="none" stroke="green" stroke-width="0.186642" d="M1143.72,-147.227C1146.69,-146.897 1149.63,-146.588 1152.5,-146.309 1403.82,-121.878 1469.9,-148.506 1719.5,-110.309 1773.77,-102.003 1834.26,-86.7532 1878.21,-74.5477"/>
<polygon fill="green" stroke="green" stroke-width="0.186642" points="1879.2,-77.9039 1887.89,-71.835 1877.32,-71.1636 1879.2,-77.9039"/>
</g>
<!-- enemyRadar[RightBack]&#45;&gt;Move Left -->
<g id="edge73" class="edge"><title>enemyRadar[RightBack]&#45;&gt;Move Left</title>
<path fill="none" stroke="red" stroke-width="0.134252" d="M1039.27,-147.371C1036.3,-147.005 1033.36,-146.648 1030.5,-146.309 879.6,-128.428 834.201,-159.711 690.5,-110.309 673.341,-104.41 656.047,-94.6163 641.448,-84.9675"/>
<polygon fill="red" stroke="red" stroke-width="0.134252" points="643.419,-82.0753 633.185,-79.3336 639.475,-87.8589 643.419,-82.0753"/>
</g>
<!-- enemyRadar[RightBack]&#45;&gt;Move right -->
<g id="edge70" class="edge"><title>enemyRadar[RightBack]&#45;&gt;Move right</title>
<path fill="none" stroke="red" stroke-width="0.259086" d="M1143.61,-146.773C1212.79,-136.547 1328.37,-118.601 1346.5,-110.309 1357.34,-105.349 1367.89,-98.1602 1377.25,-90.6319"/>
<polygon fill="red" stroke="red" stroke-width="0.259086" points="1379.76,-93.0952 1385.15,-83.9764 1375.25,-87.7411 1379.76,-93.0952"/>
</g>
<!-- enemyRadar[RightBack]&#45;&gt;Turn Left -->
<g id="edge34" class="edge"><title>enemyRadar[RightBack]&#45;&gt;Turn Left</title>
<path fill="none" stroke="red" stroke-width="0.103572" d="M1062.29,-146.276C999.7,-129.069 852.383,-88.5654 778.447,-68.2371"/>
<polygon fill="red" stroke="red" stroke-width="0.103572" points="779.087,-64.7834 768.517,-65.5071 777.232,-71.533 779.087,-64.7834"/>
</g>
<!-- enemyRadar[RightBack]&#45;&gt;Turn Right -->
<g id="edge58" class="edge"><title>enemyRadar[RightBack]&#45;&gt;Turn Right</title>
<path fill="none" stroke="red" stroke-width="0.161664" d="M1096.08,-146.276C1102,-135.905 1112.75,-117.071 1122.89,-99.2924"/>
<polygon fill="red" stroke="red" stroke-width="0.161664" points="1126.19,-100.562 1128.11,-90.1418 1120.11,-97.0932 1126.19,-100.562"/>
</g>
<!-- enemyRadar[LeftBack] -->
<g id="node10" class="node"><title>enemyRadar[LeftBack]</title>
<polygon fill="lightgray" stroke="black" points="1710,-164.309 1611,-164.309 1611,-146.309 1710,-146.309 1710,-164.309"/>
<text text-anchor="middle" x="1660.5" y="-153.109" font-family="Times,serif" font-size="9.00">enemyRadar[LeftBack]</text>
</g>
<!-- enemyRadar[LeftBack]&#45;&gt;Shoot -->
<g id="edge52" class="edge"><title>enemyRadar[LeftBack]&#45;&gt;Shoot</title>
<path fill="none" stroke="red" stroke-width="0.668497" d="M1610.92,-147.373C1527.83,-135.696 1368.98,-113.102 1363.5,-110.309 1351.78,-104.332 1341.13,-94.7611 1332.5,-85.3162"/>
<polygon fill="red" stroke="red" stroke-width="0.668497" points="1334.93,-82.777 1325.75,-77.4937 1329.63,-87.3508 1334.93,-82.777"/>
</g>
<!-- enemyRadar[LeftBack]&#45;&gt;Move Forward -->
<g id="edge21" class="edge"><title>enemyRadar[LeftBack]&#45;&gt;Move Forward</title>
<path fill="none" stroke="red" stroke-width="0.131314" stroke-dasharray="1,5" d="M1660.5,-146.276C1660.5,-139.122 1660.5,-127.942 1660.5,-115.858"/>
<polygon fill="red" stroke="red" stroke-width="0.131314" points="1664,-115.564 1660.5,-105.564 1657,-115.564 1664,-115.564"/>
</g>
<!-- enemyRadar[LeftBack]&#45;&gt;Turn Right -->
<g id="edge59" class="edge"><title>enemyRadar[LeftBack]&#45;&gt;Turn Right</title>
<path fill="none" stroke="green" stroke-width="0.724978" d="M1610.94,-147.496C1607.74,-147.086 1604.58,-146.687 1601.5,-146.309 1456.38,-128.485 1415.93,-147.382 1274.5,-110.309 1245.95,-102.824 1215.47,-90.0079 1191.54,-78.7221"/>
<polygon fill="green" stroke="green" stroke-width="0.724978" points="1192.9,-75.4942 1182.37,-74.3247 1189.87,-81.8056 1192.9,-75.4942"/>
</g>
<!-- enemyRadar[Right] -->
<g id="node11" class="node"><title>enemyRadar[Right]</title>
<polygon fill="lightgray" stroke="black" points="1247.5,-164.309 1161.5,-164.309 1161.5,-146.309 1247.5,-146.309 1247.5,-164.309"/>
<text text-anchor="middle" x="1204.5" y="-153.109" font-family="Times,serif" font-size="9.00">enemyRadar[Right]</text>
</g>
<!-- enemyRadar[Right]&#45;&gt;Shoot -->
<g id="edge49" class="edge"><title>enemyRadar[Right]&#45;&gt;Shoot</title>
<path fill="none" stroke="green" stroke-width="0.47289" d="M1213.17,-146.276C1228.37,-132.208 1260.38,-102.567 1283.55,-81.1122"/>
<polygon fill="green" stroke="green" stroke-width="0.47289" points="1286.07,-83.5466 1291.03,-74.1841 1281.31,-78.4104 1286.07,-83.5466"/>
</g>
<!-- enemyRadar[Right]&#45;&gt;Move right -->
<g id="edge2" class="edge"><title>enemyRadar[Right]&#45;&gt;Move right</title>
<path fill="none" stroke="green" stroke-width="0.76354" d="M1244.7,-146.238C1274.07,-139.317 1314.23,-127.679 1346.5,-110.309 1356.9,-104.712 1367.21,-97.3545 1376.5,-89.8739"/>
<polygon fill="green" stroke="green" stroke-width="0.76354" points="1378.93,-92.4044 1384.36,-83.3095 1374.44,-87.0303 1378.93,-92.4044"/>
</g>
<!-- enemyRadar[Right]&#45;&gt;Turn Left -->
<g id="edge17" class="edge"><title>enemyRadar[Right]&#45;&gt;Turn Left</title>
<path fill="none" stroke="red" stroke-width="0.417514" d="M1166.04,-146.276C1079.61,-128.227 870.44,-84.5438 778.78,-65.4017"/>
<polygon fill="red" stroke="red" stroke-width="0.417514" points="779.484,-61.9733 768.98,-63.3551 778.053,-68.8255 779.484,-61.9733"/>
</g>
<!-- enemyRadar[Right]&#45;&gt;Turn Right -->
<g id="edge12" class="edge"><title>enemyRadar[Right]&#45;&gt;Turn Right</title>
<path fill="none" stroke="red" stroke-width="0.201991" d="M1199.84,-146.276C1193.71,-135.731 1182.51,-116.437 1172.03,-98.3993"/>
<polygon fill="red" stroke="red" stroke-width="0.201991" points="1175.02,-96.5789 1166.97,-89.689 1168.97,-100.094 1175.02,-96.5789"/>
</g>
<!-- enemyRadar[Left] -->
<g id="node12" class="node"><title>enemyRadar[Left]</title>
<polygon fill="lightgray" stroke="black" points="81,-164.309 0,-164.309 0,-146.309 81,-146.309 81,-164.309"/>
<text text-anchor="middle" x="40.5" y="-153.109" font-family="Times,serif" font-size="9.00">enemyRadar[Left]</text>
</g>
<!-- enemyRadar[Left]&#45;&gt;Move Left -->
<g id="edge7" class="edge"><title>enemyRadar[Left]&#45;&gt;Move Left</title>
<path fill="none" stroke="red" stroke-width="0.260915" d="M81.4431,-147.171C183.295,-129.414 447.661,-83.3235 556.066,-64.424"/>
<polygon fill="red" stroke="red" stroke-width="0.260915" points="556.809,-67.8473 566.06,-62.6818 555.607,-60.9514 556.809,-67.8473"/>
</g>
<!-- enemyRadar[Left]&#45;&gt;Turn Left -->
<g id="edge48" class="edge"><title>enemyRadar[Left]&#45;&gt;Turn Left</title>
<path fill="none" stroke="red" stroke-width="0.357953" d="M81.1153,-147.481C84.286,-147.049 87.4422,-146.651 90.5,-146.309 214.428,-132.442 532.067,-149.348 650.5,-110.309 667.695,-104.641 684.828,-94.5964 699.093,-84.6849"/>
<polygon fill="red" stroke="red" stroke-width="0.357953" points="701.511,-87.2563 707.579,-78.5711 697.419,-81.5768 701.511,-87.2563"/>
</g>
<!-- enemyRadar[RightFront30] -->
<g id="node13" class="node"><title>enemyRadar[RightFront30]</title>
<polygon fill="lightgray" stroke="black" points="661,-164.309 546,-164.309 546,-146.309 661,-146.309 661,-164.309"/>
<text text-anchor="middle" x="603.5" y="-153.109" font-family="Times,serif" font-size="9.00">enemyRadar[RightFront30]</text>
</g>
<!-- enemyRadar[RightFront30]&#45;&gt;Shoot -->
<g id="edge64" class="edge"><title>enemyRadar[RightFront30]&#45;&gt;Shoot</title>
<path fill="none" stroke="green" stroke-width="0.25141" d="M661.224,-147.229C664.36,-146.903 667.468,-146.593 670.5,-146.309 903.799,-124.411 969.806,-169.622 1196.5,-110.309 1225.81,-102.641 1256.71,-87.4613 1278.93,-75.1194"/>
<polygon fill="green" stroke="green" stroke-width="0.25141" points="1280.93,-78.0125 1287.9,-70.0339 1277.47,-71.924 1280.93,-78.0125"/>
</g>
<!-- enemyRadar[RightFront30]&#45;&gt;Move Left -->
<g id="edge39" class="edge"><title>enemyRadar[RightFront30]&#45;&gt;Move Left</title>
<path fill="none" stroke="green" stroke-width="0.197895" d="M603.5,-146.276C603.5,-136.721 603.5,-119.983 603.5,-103.505"/>
<polygon fill="green" stroke="green" stroke-width="0.197895" points="607,-103.345 603.5,-93.3454 600,-103.345 607,-103.345"/>
</g>
<!-- enemyRadar[RightFront30]&#45;&gt;Turn Left -->
<g id="edge61" class="edge"><title>enemyRadar[RightFront30]&#45;&gt;Turn Left</title>
<path fill="none" stroke="red" stroke-width="0.15068" d="M614.22,-146.276C632.407,-132.65 670.093,-104.413 698.463,-83.156"/>
<polygon fill="red" stroke="red" stroke-width="0.15068" points="700.66,-85.8831 706.564,-77.0858 696.463,-80.2811 700.66,-85.8831"/>
</g>
<!-- enemyRadar[RightFront30]&#45;&gt;Turn Right -->
<g id="edge41" class="edge"><title>enemyRadar[RightFront30]&#45;&gt;Turn Right</title>
<path fill="none" stroke="green" stroke-width="0.72462" d="M648.018,-146.276C748.828,-128.087 993.911,-83.8665 1098.69,-64.962"/>
<polygon fill="green" stroke="green" stroke-width="0.72462" points="1099.46,-68.3796 1108.68,-63.1595 1098.21,-61.4908 1099.46,-68.3796"/>
</g>
<!-- enemyRadar[LeftFront30] -->
<g id="node14" class="node"><title>enemyRadar[LeftFront30]</title>
<polygon fill="lightgray" stroke="black" points="789.5,-164.309 679.5,-164.309 679.5,-146.309 789.5,-146.309 789.5,-164.309"/>
<text text-anchor="middle" x="734.5" y="-153.109" font-family="Times,serif" font-size="9.00">enemyRadar[LeftFront30]</text>
</g>
<!-- enemyRadar[LeftFront30]&#45;&gt;Shoot -->
<g id="edge55" class="edge"><title>enemyRadar[LeftFront30]&#45;&gt;Shoot</title>
<path fill="none" stroke="green" stroke-width="0.219313" d="M789.644,-147.294C792.639,-146.951 795.605,-146.62 798.5,-146.309 975.09,-127.291 1025.17,-157.142 1196.5,-110.309 1225.72,-102.321 1256.63,-87.1669 1278.88,-74.9163"/>
<polygon fill="green" stroke="green" stroke-width="0.219313" points="1280.85,-77.8229 1287.85,-69.8731 1277.42,-71.7203 1280.85,-77.8229"/>
</g>
<!-- enemyRadar[LeftFront30]&#45;&gt;Move Left -->
<g id="edge53" class="edge"><title>enemyRadar[LeftFront30]&#45;&gt;Move Left</title>
<path fill="none" stroke="green" stroke-width="0.903741" d="M723.78,-146.276C706.038,-132.983 669.74,-105.786 641.636,-84.7283"/>
<polygon fill="green" stroke="green" stroke-width="0.903741" points="643.68,-81.8865 633.578,-78.6912 639.483,-87.4885 643.68,-81.8865"/>
</g>
<!-- enemyRadar[LeftFront30]&#45;&gt;Turn Left -->
<g id="edge65" class="edge"><title>enemyRadar[LeftFront30]&#45;&gt;Turn Left</title>
<path fill="none" stroke="red" stroke-width="0.641845" d="M734.5,-146.276C734.5,-136.172 734.5,-118.035 734.5,-100.667"/>
<polygon fill="red" stroke="red" stroke-width="0.641845" points="738,-100.596 734.5,-90.596 731,-100.596 738,-100.596"/>
</g>
<!-- enemyRadar[LeftFront30]&#45;&gt;Turn Right -->
<g id="edge31" class="edge"><title>enemyRadar[LeftFront30]&#45;&gt;Turn Right</title>
<path fill="none" stroke="green" stroke-width="0.164654" d="M768.298,-146.276C841.422,-128.897 1014.53,-87.7554 1099.19,-67.6351"/>
<polygon fill="green" stroke="green" stroke-width="0.164654" points="1100.15,-71.0061 1109.07,-65.2886 1098.53,-64.1958 1100.15,-71.0061"/>
</g>
<!-- enemyRadar[RightFront10] -->
<g id="node15" class="node"><title>enemyRadar[RightFront10]</title>
<polygon fill="lightgray" stroke="black" points="1488,-164.309 1373,-164.309 1373,-146.309 1488,-146.309 1488,-164.309"/>
<text text-anchor="middle" x="1430.5" y="-153.109" font-family="Times,serif" font-size="9.00">enemyRadar[RightFront10]</text>
</g>
<!-- enemyRadar[RightFront10]&#45;&gt;Move Forward -->
<g id="edge15" class="edge"><title>enemyRadar[RightFront10]&#45;&gt;Move Forward</title>
<path fill="none" stroke="red" stroke-width="0.640608" d="M1449.32,-146.276C1482.99,-131.91 1554.7,-101.304 1605.19,-79.7594"/>
<polygon fill="red" stroke="red" stroke-width="0.640608" points="1606.84,-82.8577 1614.67,-75.7134 1604.1,-76.4194 1606.84,-82.8577"/>
</g>
<!-- enemyRadar[RightFront10]&#45;&gt;Move right -->
<g id="edge29" class="edge"><title>enemyRadar[RightFront10]&#45;&gt;Move right</title>
<path fill="none" stroke="red" stroke-width="0.546989" d="M1429.03,-146.276C1427.3,-136.873 1424.3,-120.513 1421.33,-104.29"/>
<polygon fill="red" stroke="red" stroke-width="0.546989" points="1424.74,-103.475 1419.49,-94.2702 1417.85,-104.738 1424.74,-103.475"/>
</g>
<!-- enemyRadar[RightFront10]&#45;&gt;Turn Left -->
<g id="edge40" class="edge"><title>enemyRadar[RightFront10]&#45;&gt;Turn Left</title>
<path fill="none" stroke="red" stroke-width="0.391545" d="M1372.88,-146.956C1306.64,-138.436 1194.65,-123.832 1098.5,-110.309 983.409,-94.1219 848.085,-73.5947 779.397,-63.0691"/>
<polygon fill="red" stroke="red" stroke-width="0.391545" points="779.772,-59.5858 769.357,-61.5291 778.711,-66.5049 779.772,-59.5858"/>
</g>
<!-- enemyRadar[LeftFront10] -->
<g id="node16" class="node"><title>enemyRadar[LeftFront10]</title>
<polygon fill="lightgray" stroke="black" points="1929.5,-164.309 1819.5,-164.309 1819.5,-146.309 1929.5,-146.309 1929.5,-164.309"/>
<text text-anchor="middle" x="1874.5" y="-153.109" font-family="Times,serif" font-size="9.00">enemyRadar[LeftFront10]</text>
</g>
<!-- enemyRadar[LeftFront10]&#45;&gt;Shoot -->
<g id="edge56" class="edge"><title>enemyRadar[LeftFront10]&#45;&gt;Shoot</title>
<path fill="none" stroke="green" stroke-width="0.787078" stroke-dasharray="1,5" d="M1819.36,-147.26C1816.36,-146.926 1813.4,-146.606 1810.5,-146.309 1711.37,-136.126 1453.74,-152.599 1363.5,-110.309 1351.38,-104.626 1340.51,-94.9009 1331.83,-85.2462"/>
<polygon fill="green" stroke="green" stroke-width="0.787078" points="1334.48,-82.963 1325.34,-77.597 1329.14,-87.4888 1334.48,-82.963"/>
</g>
<!-- enemyRadar[LeftFront10]&#45;&gt;Move Forward -->
<g id="edge63" class="edge"><title>enemyRadar[LeftFront10]&#45;&gt;Move Forward</title>
<path fill="none" stroke="red" stroke-width="0.698961" d="M1856.99,-146.276C1826.39,-132.24 1761.99,-102.703 1715.24,-81.2596"/>
<polygon fill="red" stroke="red" stroke-width="0.698961" points="1716.68,-78.0736 1706.14,-77.0858 1713.77,-84.4362 1716.68,-78.0736"/>
</g>
<!-- enemyRadar[LeftFront10]&#45;&gt; Move Backward -->
<g id="edge44" class="edge"><title>enemyRadar[LeftFront10]&#45;&gt; Move Backward</title>
<path fill="none" stroke="red" stroke-width="0.397563" d="M1879.9,-146.276C1885.51,-137.933 1894.8,-124.111 1904.45,-109.769"/>
<polygon fill="red" stroke="red" stroke-width="0.397563" points="1907.47,-111.553 1910.14,-101.301 1901.66,-107.647 1907.47,-111.553"/>
</g>
<!-- enemyRadar[LeftFront10]&#45;&gt;Move Left -->
<g id="edge42" class="edge"><title>enemyRadar[LeftFront10]&#45;&gt;Move Left</title>
<path fill="none" stroke="red" stroke-width="0.193423" d="M1819.37,-147.091C1816.38,-146.8 1813.4,-146.536 1810.5,-146.309 1686.37,-136.577 809.65,-146.443 690.5,-110.309 673.137,-105.043 655.8,-95.3781 641.225,-85.655"/>
<polygon fill="red" stroke="red" stroke-width="0.193423" points="643.199,-82.7647 632.983,-79.9562 639.218,-88.5224 643.199,-82.7647"/>
</g>
<!-- enemyRadar[LeftFront10]&#45;&gt;Move right -->
<g id="edge6" class="edge"><title>enemyRadar[LeftFront10]&#45;&gt;Move right</title>
<path fill="none" stroke="green" stroke-width="0.27543" d="M1819.49,-147.406C1764.09,-139.995 1676.35,-127.002 1601.5,-110.309 1552.72,-99.4304 1497.92,-83.2809 1459.93,-71.4483"/>
<polygon fill="green" stroke="green" stroke-width="0.27543" points="1460.76,-68.0392 1450.17,-68.3864 1458.66,-74.7185 1460.76,-68.0392"/>
</g>
<!-- enemyRadar[RightFront3.5] -->
<g id="node17" class="node"><title>enemyRadar[RightFront3.5]</title>
<polygon fill="lightgray" stroke="black" points="2373,-164.309 2256,-164.309 2256,-146.309 2373,-146.309 2373,-164.309"/>
<text text-anchor="middle" x="2314.5" y="-153.109" font-family="Times,serif" font-size="9.00">enemyRadar[RightFront3.5]</text>
</g>
<!-- enemyRadar[RightFront3.5]&#45;&gt;Shoot -->
<g id="edge26" class="edge"><title>enemyRadar[RightFront3.5]&#45;&gt;Shoot</title>
<path fill="none" stroke="green" stroke-width="0.395754" d="M2255.92,-147.13C2252.74,-146.829 2249.58,-146.552 2246.5,-146.309 2148.61,-138.567 1453.22,-150.21 1363.5,-110.309 1351.26,-104.867 1340.38,-95.1915 1331.71,-85.5088"/>
<polygon fill="green" stroke="green" stroke-width="0.395754" points="1334.36,-83.2221 1325.24,-77.8228 1329,-87.7283 1334.36,-83.2221"/>
</g>
<!-- enemyRadar[RightFront3.5]&#45;&gt; Move Backward -->
<g id="edge33" class="edge"><title>enemyRadar[RightFront3.5]&#45;&gt; Move Backward</title>
<path fill="none" stroke="green" stroke-width="0.479411" d="M2283.89,-146.276C2222.91,-130.272 2085.14,-94.1147 2003.85,-72.7814"/>
<polygon fill="green" stroke="green" stroke-width="0.479411" points="2004.31,-69.2815 1993.75,-70.1283 2002.53,-76.0522 2004.31,-69.2815"/>
</g>
<!-- enemyRadar[LeftFront3.5] -->
<g id="node18" class="node"><title>enemyRadar[LeftFront3.5]</title>
<polygon fill="lightgray" stroke="black" points="387.5,-164.309 275.5,-164.309 275.5,-146.309 387.5,-146.309 387.5,-164.309"/>
<text text-anchor="middle" x="331.5" y="-153.109" font-family="Times,serif" font-size="9.00">enemyRadar[LeftFront3.5]</text>
</g>
<!-- enemyRadar[LeftFront3.5]&#45;&gt;Turn Left -->
<g id="edge54" class="edge"><title>enemyRadar[LeftFront3.5]&#45;&gt;Turn Left</title>
<path fill="none" stroke="red" stroke-width="0.974935" d="M387.631,-147.206C475.874,-135.949 638.328,-114.819 650.5,-110.309 667.477,-104.018 684.57,-93.8587 698.863,-84.0294"/>
<polygon fill="red" stroke="red" stroke-width="0.974935" points="701.245,-86.6309 707.375,-77.9895 697.194,-80.922 701.245,-86.6309"/>
</g>
<!-- enemyRadar[RightFront1.5] -->
<g id="node19" class="node"><title>enemyRadar[RightFront1.5]</title>
<polygon fill="lightgray" stroke="black" points="2065,-164.309 1948,-164.309 1948,-146.309 2065,-146.309 2065,-164.309"/>
<text text-anchor="middle" x="2006.5" y="-153.109" font-family="Times,serif" font-size="9.00">enemyRadar[RightFront1.5]</text>
</g>
<!-- enemyRadar[RightFront1.5]&#45;&gt; Move Backward -->
<g id="edge60" class="edge"><title>enemyRadar[RightFront1.5]&#45;&gt; Move Backward</title>
<path fill="none" stroke="red" stroke-width="0.252483" d="M2001.1,-146.276C1995.49,-137.933 1986.2,-124.111 1976.55,-109.769"/>
<polygon fill="red" stroke="red" stroke-width="0.252483" points="1979.34,-107.647 1970.86,-101.301 1973.53,-111.553 1979.34,-107.647"/>
</g>
<!-- enemyRadar[RightFront1.5]&#45;&gt;Move right -->
<g id="edge24" class="edge"><title>enemyRadar[RightFront1.5]&#45;&gt;Move right</title>
<path fill="none" stroke="red" stroke-width="0.275467" d="M1947.9,-147.374C1944.72,-147.011 1941.57,-146.653 1938.5,-146.309 1788.81,-129.509 1749.34,-139.161 1601.5,-110.309 1552.3,-100.706 1497.34,-84.2961 1459.43,-72.051"/>
<polygon fill="red" stroke="red" stroke-width="0.275467" points="1460.28,-68.648 1449.69,-68.8759 1458.11,-75.3032 1460.28,-68.648"/>
</g>
<!-- enemyRadar[RightFront1.5]&#45;&gt;Turn Right -->
<g id="edge71" class="edge"><title>enemyRadar[RightFront1.5]&#45;&gt;Turn Right</title>
<path fill="none" stroke="red" stroke-width="0.589556" d="M1947.92,-147.18C1944.73,-146.866 1941.58,-146.573 1938.5,-146.309 1644.04,-121.03 1562.35,-177.288 1274.5,-110.309 1245.65,-103.595 1215.05,-90.7412 1191.12,-79.2411"/>
<polygon fill="red" stroke="red" stroke-width="0.589556" points="1192.48,-76.0109 1181.96,-74.7505 1189.4,-82.2959 1192.48,-76.0109"/>
</g>
<!-- enemyRadar[LeftFront1.5] -->
<g id="node20" class="node"><title>enemyRadar[LeftFront1.5]</title>
<polygon fill="lightgray" stroke="black" points="919.5,-164.309 807.5,-164.309 807.5,-146.309 919.5,-146.309 919.5,-164.309"/>
<text text-anchor="middle" x="863.5" y="-153.109" font-family="Times,serif" font-size="9.00">enemyRadar[LeftFront1.5]</text>
</g>
<!-- enemyRadar[LeftFront1.5]&#45;&gt;Move Left -->
<g id="edge19" class="edge"><title>enemyRadar[LeftFront1.5]&#45;&gt;Move Left</title>
<path fill="none" stroke="green" stroke-width="0.530675" d="M815.592,-146.242C780.127,-139.296 731.126,-127.625 690.5,-110.309 674.1,-103.319 657.21,-93.5036 642.725,-84.1462"/>
<polygon fill="green" stroke="green" stroke-width="0.530675" points="644.316,-81.0022 634.043,-78.4084 640.456,-86.842 644.316,-81.0022"/>
</g>
<!-- enemyRadar[LeftFront1.5]&#45;&gt;Move right -->
<g id="edge3" class="edge"><title>enemyRadar[LeftFront1.5]&#45;&gt;Move right</title>
<path fill="none" stroke="red" stroke-width="0.344528" d="M919.655,-147.368C922.985,-146.998 926.285,-146.642 929.5,-146.309 1022.01,-136.711 1260.35,-145.38 1346.5,-110.309 1357.54,-105.813 1368.16,-98.7962 1377.53,-91.2862"/>
<polygon fill="red" stroke="red" stroke-width="0.344528" points="1380.05,-93.7403 1385.43,-84.6105 1375.53,-88.3953 1380.05,-93.7403"/>
</g>
<!-- OnTarget -->
<g id="node21" class="node"><title>OnTarget</title>
<polygon fill="lightgray" stroke="black" points="2133.5,-164.309 2083.5,-164.309 2083.5,-146.309 2133.5,-146.309 2133.5,-164.309"/>
<text text-anchor="middle" x="2108.5" y="-153.109" font-family="Times,serif" font-size="9.00">OnTarget</text>
</g>
<!-- OnTarget&#45;&gt;Shoot -->
<g id="edge1" class="edge"><title>OnTarget&#45;&gt;Shoot</title>
<path fill="none" stroke="green" stroke-width="0.317695" d="M2083.35,-147.856C2080.38,-147.254 2077.38,-146.717 2074.5,-146.309 1917.86,-124.101 1507.73,-175.305 1363.5,-110.309 1351.29,-104.807 1340.41,-95.1191 1331.74,-85.4433"/>
<polygon fill="green" stroke="green" stroke-width="0.317695" points="1334.39,-83.1576 1325.27,-77.7665 1329.03,-87.6687 1334.39,-83.1576"/>
</g>
<!-- OnTarget&#45;&gt;Move Forward -->
<g id="edge46" class="edge"><title>OnTarget&#45;&gt;Move Forward</title>
<path fill="none" stroke="red" stroke-width="0.232069" d="M2083.28,-148.223C2080.33,-147.555 2077.35,-146.903 2074.5,-146.309 1986.94,-128.06 1963.93,-129.195 1876.5,-110.309 1822.69,-98.6836 1761.9,-83.2343 1718.56,-71.8127"/>
<polygon fill="red" stroke="red" stroke-width="0.232069" points="1719.32,-68.394 1708.76,-69.2207 1717.53,-75.1613 1719.32,-68.394"/>
</g>
<!-- OnTarget&#45;&gt; Move Backward -->
<g id="edge45" class="edge"><title>OnTarget&#45;&gt; Move Backward</title>
<path fill="none" stroke="green" stroke-width="0.104689" stroke-dasharray="1,5" d="M2094.75,-146.276C2073.51,-133.867 2031.53,-109.342 1996.73,-89.0051"/>
<polygon fill="green" stroke="green" stroke-width="0.104689" points="1998.45,-85.9576 1988.05,-83.9349 1994.92,-92.0016 1998.45,-85.9576"/>
</g>
<!-- OnTarget&#45;&gt;Move right -->
<g id="edge28" class="edge"><title>OnTarget&#45;&gt;Move right</title>
<path fill="none" stroke="green" stroke-width="0.736754" d="M2083.33,-147.928C2080.37,-147.313 2077.38,-146.754 2074.5,-146.309 1866.15,-114.068 1809.02,-147.537 1601.5,-110.309 1552.16,-101.456 1497.22,-84.9359 1459.35,-72.4601"/>
<polygon fill="green" stroke="green" stroke-width="0.736754" points="1460.22,-69.0598 1449.62,-69.2208 1458,-75.7012 1460.22,-69.0598"/>
</g>
<!-- OnTarget&#45;&gt;Turn Right -->
<g id="edge43" class="edge"><title>OnTarget&#45;&gt;Turn Right</title>
<path fill="none" stroke="red" stroke-width="0.183867" d="M2083.35,-147.84C2080.38,-147.241 2077.38,-146.709 2074.5,-146.309 1721.97,-97.3374 1621.52,-189.375 1274.5,-110.309 1245.62,-103.728 1215.02,-90.8785 1191.1,-79.3476"/>
<polygon fill="red" stroke="red" stroke-width="0.183867" points="1192.46,-76.1179 1181.94,-74.8431 1189.37,-82.3986 1192.46,-76.1179"/>
</g>
<!-- bias -->
<g id="node22" class="node"><title>bias</title>
<polygon fill="lightgray" stroke="black" points="437,-164.309 406,-164.309 406,-146.309 437,-146.309 437,-164.309"/>
<text text-anchor="middle" x="421.5" y="-153.109" font-family="Times,serif" font-size="9.00">bias</text>
</g>
<!-- bias&#45;&gt;Shoot -->
<g id="edge18" class="edge"><title>bias&#45;&gt;Shoot</title>
<path fill="none" stroke="green" stroke-width="0.358049" stroke-dasharray="1,5" d="M437.087,-148.43C439.855,-147.584 442.737,-146.825 445.5,-146.309 773.97,-84.8984 872.374,-191.585 1196.5,-110.309 1225.88,-102.941 1256.78,-87.7371 1278.98,-75.3097"/>
<polygon fill="green" stroke="green" stroke-width="0.358049" points="1280.99,-78.1898 1287.94,-70.1846 1277.52,-72.1145 1280.99,-78.1898"/>
</g>
<!-- bias&#45;&gt;Move Left -->
<g id="edge14" class="edge"><title>bias&#45;&gt;Move Left</title>
<path fill="none" stroke="green" stroke-width="0.313121" d="M436.394,-146.276C463.33,-131.749 521.055,-100.618 561.064,-79.0402"/>
<polygon fill="green" stroke="green" stroke-width="0.313121" points="562.929,-82.0115 570.069,-74.1841 559.606,-75.8504 562.929,-82.0115"/>
</g>
<!-- bias&#45;&gt;Turn Left -->
<g id="edge51" class="edge"><title>bias&#45;&gt;Turn Left</title>
<path fill="none" stroke="red" stroke-width="0.41516" d="M437.151,-148.722C439.912,-147.843 442.775,-146.998 445.5,-146.309 535.18,-123.62 564.363,-144.039 650.5,-110.309 667.358,-103.707 684.429,-93.4902 698.739,-83.7019"/>
<polygon fill="red" stroke="red" stroke-width="0.41516" points="701.103,-86.3178 707.265,-77.6989 697.073,-80.5941 701.103,-86.3178"/>
</g>
<!-- bias&#45;&gt;Turn Right -->
<g id="edge57" class="edge"><title>bias&#45;&gt;Turn Right</title>
<path fill="none" stroke="green" stroke-width="0.444795" d="M437.116,-148.569C439.88,-147.707 442.754,-146.908 445.5,-146.309 590.944,-114.59 630.831,-129.12 778.5,-110.309 893.439,-95.667 1027.99,-75.0336 1098.58,-63.9395"/>
<polygon fill="green" stroke="green" stroke-width="0.444795" points="1099.18,-67.3872 1108.52,-62.3737 1098.09,-60.4725 1099.18,-67.3872"/>
</g>
</g>
</svg>
