<?xml version="1.0" encoding="UTF-8" standalone="no"?>
<!DOCTYPE svg PUBLIC "-//W3C//DTD SVG 1.1//EN"
 "http://www.w3.org/Graphics/SVG/1.1/DTD/svg11.dtd">
<!-- Generated by graphviz version 2.38.0 (20140413.2041)
 -->
<!-- Title: %3 Pages: 1 -->
<svg width="2559pt" height="216pt"
 viewBox="0.00 0.00 2559.00 216.15" xmlns="http://www.w3.org/2000/svg" xmlns:xlink="http://www.w3.org/1999/xlink">
<g id="graph0" class="graph" transform="scale(1 1) rotate(0) translate(4 212.149)">
<title>%3</title>
<polygon fill="white" stroke="none" points="-4,4 -4,-212.149 2555,-212.149 2555,4 -4,4"/>
<!-- wallRadar[1,0] -->
<g id="node1" class="node"><title>wallRadar[1,0]</title>
<polygon fill="lightgray" stroke="black" points="448,-208.149 378,-208.149 378,-190.149 448,-190.149 448,-208.149"/>
<text text-anchor="middle" x="413" y="-196.949" font-family="Times,serif" font-size="9.00">wallRadar[1,0]</text>
</g>
<!-- Shoot -->
<g id="node24" class="node"><title>Shoot</title>
<ellipse fill="lightblue" stroke="black" cx="503" cy="-77.0746" rx="26.7407" ry="26.7407"/>
<text text-anchor="middle" x="503" y="-74.8746" font-family="Times,serif" font-size="9.00">Shoot</text>
</g>
<!-- wallRadar[1,0]&#45;&gt;Shoot -->
<g id="edge29" class="edge"><title>wallRadar[1,0]&#45;&gt;Shoot</title>
<path fill="none" stroke="green" stroke-width="0.385032" d="M419.186,-189.896C431.783,-173.09 460.939,-134.191 481.303,-107.023"/>
<polygon fill="green" stroke="green" stroke-width="0.385032" points="484.115,-109.106 487.312,-99.0051 478.514,-104.908 484.115,-109.106"/>
</g>
<!--  Move Left/Right -->
<g id="node26" class="node"><title> Move Left/Right</title>
<ellipse fill="lightblue" stroke="black" cx="1327" cy="-77.0746" rx="55.3091" ry="55.3091"/>
<text text-anchor="middle" x="1327" y="-74.8746" font-family="Times,serif" font-size="9.00"> Move Left/Right</text>
</g>
<!-- wallRadar[1,0]&#45;&gt; Move Left/Right -->
<g id="edge6" class="edge"><title>wallRadar[1,0]&#45;&gt; Move Left/Right</title>
<path fill="none" stroke="green" stroke-width="0.101735" d="M448.311,-191.428C451.578,-190.94 454.846,-190.502 458,-190.149 627.353,-171.196 1063.43,-211.229 1224,-154.149 1243.62,-147.174 1262.67,-135.118 1278.95,-122.633"/>
<polygon fill="green" stroke="green" stroke-width="0.101735" points="1281.53,-125.048 1287.19,-116.09 1277.18,-119.565 1281.53,-125.048"/>
</g>
<!-- Turn left/right -->
<g id="node27" class="node"><title>Turn left/right</title>
<ellipse fill="lightblue" stroke="black" cx="772" cy="-77.0746" rx="46.8387" ry="46.8387"/>
<text text-anchor="middle" x="772" y="-74.8746" font-family="Times,serif" font-size="9.00">Turn left/right</text>
</g>
<!-- wallRadar[1,0]&#45;&gt;Turn left/right -->
<g id="edge26" class="edge"><title>wallRadar[1,0]&#45;&gt;Turn left/right</title>
<path fill="none" stroke="green" stroke-width="0.273982" d="M437.112,-190.084C494.252,-170.973 639.024,-122.551 718.219,-96.0626"/>
<polygon fill="green" stroke="green" stroke-width="0.273982" points="719.636,-99.2796 728.009,-92.7883 717.415,-92.6411 719.636,-99.2796"/>
</g>
<!-- wallRadar[0,1] -->
<g id="node2" class="node"><title>wallRadar[0,1]</title>
<polygon fill="lightgray" stroke="black" points="174,-208.149 104,-208.149 104,-190.149 174,-190.149 174,-208.149"/>
<text text-anchor="middle" x="139" y="-196.949" font-family="Times,serif" font-size="9.00">wallRadar[0,1]</text>
</g>
<!-- wallRadar[0,1]&#45;&gt;Shoot -->
<g id="edge20" class="edge"><title>wallRadar[0,1]&#45;&gt;Shoot</title>
<path fill="none" stroke="red" stroke-width="0.360235" d="M163.448,-190.084C226.476,-169.293 394.664,-113.812 467.998,-89.6209"/>
<polygon fill="red" stroke="red" stroke-width="0.360235" points="469.295,-92.8786 477.695,-86.422 467.102,-86.2309 469.295,-92.8786"/>
</g>
<!-- wallRadar[0,1]&#45;&gt;Turn left/right -->
<g id="edge25" class="edge"><title>wallRadar[0,1]&#45;&gt;Turn left/right</title>
<path fill="none" stroke="green" stroke-width="0.128809" d="M174.024,-191.523C177.055,-191.028 180.079,-190.562 183,-190.149 340.466,-167.908 383.405,-187.018 539,-154.149 602.357,-140.765 672.722,-116.412 719.376,-98.8595"/>
<polygon fill="green" stroke="green" stroke-width="0.128809" points="720.852,-102.043 728.961,-95.2237 718.37,-95.4981 720.852,-102.043"/>
</g>
<!-- wallRadar[&#45;1,0] -->
<g id="node3" class="node"><title>wallRadar[&#45;1,0]</title>
<polygon fill="lightgray" stroke="black" points="1286.5,-208.149 1213.5,-208.149 1213.5,-190.149 1286.5,-190.149 1286.5,-208.149"/>
<text text-anchor="middle" x="1250" y="-196.949" font-family="Times,serif" font-size="9.00">wallRadar[&#45;1,0]</text>
</g>
<!-- wallRadar[&#45;1,0]&#45;&gt;Shoot -->
<g id="edge4" class="edge"><title>wallRadar[&#45;1,0]&#45;&gt;Shoot</title>
<path fill="none" stroke="red" stroke-width="0.643404" d="M1213.39,-191.447C1210.22,-190.969 1207.06,-190.527 1204,-190.149 988.162,-163.485 928.776,-199.131 716,-154.149 650.558,-140.314 577.898,-111.208 536.601,-93.2792"/>
<polygon fill="red" stroke="red" stroke-width="0.643404" points="537.857,-90.0083 527.294,-89.1963 535.045,-96.4187 537.857,-90.0083"/>
</g>
<!-- Move Forward/Backward -->
<g id="node25" class="node"><title>Move Forward/Backward</title>
<ellipse fill="lightblue" stroke="black" cx="1138" cy="-77.0746" rx="77.1494" ry="77.1494"/>
<text text-anchor="middle" x="1138" y="-74.8746" font-family="Times,serif" font-size="9.00">Move Forward/Backward</text>
</g>
<!-- wallRadar[&#45;1,0]&#45;&gt;Move Forward/Backward -->
<g id="edge37" class="edge"><title>wallRadar[&#45;1,0]&#45;&gt;Move Forward/Backward</title>
<path fill="none" stroke="green" stroke-width="0.333356" d="M1242.3,-189.896C1232.62,-179.513 1215.07,-160.697 1197.09,-141.424"/>
<polygon fill="green" stroke="green" stroke-width="0.333356" points="1199.57,-138.958 1190.19,-134.032 1194.46,-143.732 1199.57,-138.958"/>
</g>
<!-- wallRadar[&#45;1,0]&#45;&gt; Move Left/Right -->
<g id="edge2" class="edge"><title>wallRadar[&#45;1,0]&#45;&gt; Move Left/Right</title>
<path fill="none" stroke="green" stroke-width="0.351412" d="M1255.29,-189.896C1263.01,-177.868 1277.97,-154.526 1292.25,-132.265"/>
<polygon fill="green" stroke="green" stroke-width="0.351412" points="1295.22,-134.119 1297.67,-123.812 1289.33,-130.341 1295.22,-134.119"/>
</g>
<!-- wallRadar[0,&#45;1] -->
<g id="node4" class="node"><title>wallRadar[0,&#45;1]</title>
<polygon fill="lightgray" stroke="black" points="539.5,-208.149 466.5,-208.149 466.5,-190.149 539.5,-190.149 539.5,-208.149"/>
<text text-anchor="middle" x="503" y="-196.949" font-family="Times,serif" font-size="9.00">wallRadar[0,&#45;1]</text>
</g>
<!-- wallRadar[0,&#45;1]&#45;&gt;Shoot -->
<g id="edge11" class="edge"><title>wallRadar[0,&#45;1]&#45;&gt;Shoot</title>
<path fill="none" stroke="green" stroke-width="0.338816" d="M503,-189.896C503,-174.554 503,-140.799 503,-114.366"/>
<polygon fill="green" stroke="green" stroke-width="0.338816" points="506.5,-114.286 503,-104.286 499.5,-114.286 506.5,-114.286"/>
</g>
<!-- wallRadar[0,&#45;1]&#45;&gt; Move Left/Right -->
<g id="edge27" class="edge"><title>wallRadar[0,&#45;1]&#45;&gt; Move Left/Right</title>
<path fill="none" stroke="red" stroke-width="0.714285" d="M539.602,-191.38C542.774,-190.916 545.939,-190.496 549,-190.149 698.26,-173.251 1082.62,-204.911 1224,-154.149 1243.6,-147.112 1262.65,-135.04 1278.92,-122.559"/>
<polygon fill="red" stroke="red" stroke-width="0.714285" points="1281.51,-124.975 1287.17,-116.019 1277.16,-119.49 1281.51,-124.975"/>
</g>
<!-- wallRadar[0,&#45;1]&#45;&gt;Turn left/right -->
<g id="edge33" class="edge"><title>wallRadar[0,&#45;1]&#45;&gt;Turn left/right</title>
<path fill="none" stroke="red" stroke-width="0.432186" d="M521.068,-190.084C561.266,-172.141 659.348,-128.36 720.299,-101.153"/>
<polygon fill="red" stroke="red" stroke-width="0.432186" points="722.043,-104.207 729.747,-96.9351 719.189,-97.8152 722.043,-104.207"/>
</g>
<!-- wallRadar[0.7,0.7] -->
<g id="node5" class="node"><title>wallRadar[0.7,0.7]</title>
<polygon fill="lightgray" stroke="black" points="1062.5,-208.149 979.5,-208.149 979.5,-190.149 1062.5,-190.149 1062.5,-208.149"/>
<text text-anchor="middle" x="1021" y="-196.949" font-family="Times,serif" font-size="9.00">wallRadar[0.7,0.7]</text>
</g>
<!-- wallRadar[0.7,0.7]&#45;&gt;Shoot -->
<g id="edge24" class="edge"><title>wallRadar[0.7,0.7]&#45;&gt;Shoot</title>
<path fill="none" stroke="green" stroke-width="0.436557" d="M979.267,-191.413C976.47,-190.98 973.695,-190.555 971,-190.149 857.819,-173.107 827.132,-181.539 716,-154.149 651.055,-138.143 578.23,-109.755 536.768,-92.5498"/>
<polygon fill="green" stroke="green" stroke-width="0.436557" points="537.997,-89.2701 527.421,-88.6397 535.296,-95.7278 537.997,-89.2701"/>
</g>
<!-- wallRadar[0.7,0.7]&#45;&gt;Move Forward/Backward -->
<g id="edge36" class="edge"><title>wallRadar[0.7,0.7]&#45;&gt;Move Forward/Backward</title>
<path fill="none" stroke="green" stroke-width="0.15427" d="M1029.04,-189.896C1039.39,-179.278 1058.33,-159.843 1077.55,-140.118"/>
<polygon fill="green" stroke="green" stroke-width="0.15427" points="1080.15,-142.458 1084.62,-132.854 1075.14,-137.573 1080.15,-142.458"/>
</g>
<!-- wallRadar[0.7,0.7]&#45;&gt; Move Left/Right -->
<g id="edge7" class="edge"><title>wallRadar[0.7,0.7]&#45;&gt; Move Left/Right</title>
<path fill="none" stroke="red" stroke-width="0.143415" d="M1062.66,-191.251C1113.34,-182.489 1195.66,-166.968 1224,-154.149 1242.8,-145.645 1261.51,-133.307 1277.72,-121.032"/>
<polygon fill="red" stroke="red" stroke-width="0.143415" points="1280.2,-123.536 1285.96,-114.64 1275.91,-118.006 1280.2,-123.536"/>
</g>
<!-- wallRadar[0.7,0.7]&#45;&gt;Turn left/right -->
<g id="edge8" class="edge"><title>wallRadar[0.7,0.7]&#45;&gt;Turn left/right</title>
<path fill="none" stroke="red" stroke-width="0.132514" d="M1004.28,-190.084C967.711,-172.452 879.407,-129.869 822.82,-102.582"/>
<polygon fill="red" stroke="red" stroke-width="0.132514" points="824.207,-99.3646 813.679,-98.1735 821.166,-105.67 824.207,-99.3646"/>
</g>
<!-- wallRadar[&#45;0.7,0.7] -->
<g id="node6" class="node"><title>wallRadar[&#45;0.7,0.7]</title>
<polygon fill="lightgray" stroke="black" points="2195,-208.149 2109,-208.149 2109,-190.149 2195,-190.149 2195,-208.149"/>
<text text-anchor="middle" x="2152" y="-196.949" font-family="Times,serif" font-size="9.00">wallRadar[&#45;0.7,0.7]</text>
</g>
<!-- wallRadar[&#45;0.7,&#45;0.7] -->
<g id="node7" class="node"><title>wallRadar[&#45;0.7,&#45;0.7]</title>
<polygon fill="lightgray" stroke="black" points="2302.5,-208.149 2213.5,-208.149 2213.5,-190.149 2302.5,-190.149 2302.5,-208.149"/>
<text text-anchor="middle" x="2258" y="-196.949" font-family="Times,serif" font-size="9.00">wallRadar[&#45;0.7,&#45;0.7]</text>
</g>
<!-- wallRadar[0.7,&#45;0.7] -->
<g id="node8" class="node"><title>wallRadar[0.7,&#45;0.7]</title>
<polygon fill="lightgray" stroke="black" points="86,-208.149 0,-208.149 0,-190.149 86,-190.149 86,-208.149"/>
<text text-anchor="middle" x="43" y="-196.949" font-family="Times,serif" font-size="9.00">wallRadar[0.7,&#45;0.7]</text>
</g>
<!-- wallRadar[0.7,&#45;0.7]&#45;&gt;Shoot -->
<g id="edge9" class="edge"><title>wallRadar[0.7,&#45;0.7]&#45;&gt;Shoot</title>
<path fill="none" stroke="red" stroke-width="0.236227" d="M73.8962,-190.084C156.151,-168.613 380.135,-110.146 467.465,-87.3504"/>
<polygon fill="red" stroke="red" stroke-width="0.236227" points="468.387,-90.7272 477.178,-84.8149 466.619,-83.9541 468.387,-90.7272"/>
</g>
<!-- enemyRadar[RightBack] -->
<g id="node9" class="node"><title>enemyRadar[RightBack]</title>
<polygon fill="lightgray" stroke="black" points="824,-208.149 720,-208.149 720,-190.149 824,-190.149 824,-208.149"/>
<text text-anchor="middle" x="772" y="-196.949" font-family="Times,serif" font-size="9.00">enemyRadar[RightBack]</text>
</g>
<!-- enemyRadar[RightBack]&#45;&gt;Turn left/right -->
<g id="edge10" class="edge"><title>enemyRadar[RightBack]&#45;&gt;Turn left/right</title>
<path fill="none" stroke="red" stroke-width="0.187374" d="M772,-189.896C772,-178.186 772,-155.752 772,-134.032"/>
<polygon fill="red" stroke="red" stroke-width="0.187374" points="775.5,-133.812 772,-123.812 768.5,-133.812 775.5,-133.812"/>
</g>
<!-- enemyRadar[LeftBack] -->
<g id="node10" class="node"><title>enemyRadar[LeftBack]</title>
<polygon fill="lightgray" stroke="black" points="291.5,-208.149 192.5,-208.149 192.5,-190.149 291.5,-190.149 291.5,-208.149"/>
<text text-anchor="middle" x="242" y="-196.949" font-family="Times,serif" font-size="9.00">enemyRadar[LeftBack]</text>
</g>
<!-- enemyRadar[LeftBack]&#45;&gt;Shoot -->
<g id="edge14" class="edge"><title>enemyRadar[LeftBack]&#45;&gt;Shoot</title>
<path fill="none" stroke="green" stroke-width="0.427043" d="M259.53,-190.084C302.532,-170.301 413.804,-119.11 469.792,-93.3522"/>
<polygon fill="green" stroke="green" stroke-width="0.427043" points="471.308,-96.5074 478.93,-89.1482 468.382,-90.1481 471.308,-96.5074"/>
</g>
<!-- enemyRadar[LeftBack]&#45;&gt;Move Forward/Backward -->
<g id="edge23" class="edge"><title>enemyRadar[LeftBack]&#45;&gt;Move Forward/Backward</title>
<path fill="none" stroke="green" stroke-width="0.125202" d="M291.546,-191.188C294.743,-190.814 297.915,-190.463 301,-190.149 534.56,-166.364 596.026,-190.26 828,-154.149 905.704,-142.053 992.518,-119.991 1054.47,-102.729"/>
<polygon fill="green" stroke="green" stroke-width="0.125202" points="1055.51,-106.073 1064.19,-100.002 1053.61,-99.3327 1055.51,-106.073"/>
</g>
<!-- enemyRadar[Right45ø] -->
<g id="node11" class="node"><title>enemyRadar[Right45ø]</title>
<polygon fill="lightgray" stroke="black" points="2091,-208.149 1991,-208.149 1991,-190.149 2091,-190.149 2091,-208.149"/>
<text text-anchor="middle" x="2041" y="-196.949" font-family="Times,serif" font-size="9.00">enemyRadar[Right45ø]</text>
</g>
<!-- enemyRadar[Right45ø]&#45;&gt; Move Left/Right -->
<g id="edge13" class="edge"><title>enemyRadar[Right45ø]&#45;&gt; Move Left/Right</title>
<path fill="none" stroke="red" stroke-width="0.509185" d="M1993.32,-190.131C1868.8,-169.19 1533.68,-112.832 1391.83,-88.9775"/>
<polygon fill="red" stroke="red" stroke-width="0.509185" points="1391.99,-85.4558 1381.55,-87.2488 1390.83,-92.3589 1391.99,-85.4558"/>
</g>
<!-- enemyRadar[Left45ø] -->
<g id="node12" class="node"><title>enemyRadar[Left45ø]</title>
<polygon fill="lightgray" stroke="black" points="652.5,-208.149 557.5,-208.149 557.5,-190.149 652.5,-190.149 652.5,-208.149"/>
<text text-anchor="middle" x="605" y="-196.949" font-family="Times,serif" font-size="9.00">enemyRadar[Left45ø]</text>
</g>
<!-- enemyRadar[Left45ø]&#45;&gt;Shoot -->
<g id="edge3" class="edge"><title>enemyRadar[Left45ø]&#45;&gt;Shoot</title>
<path fill="none" stroke="red" stroke-width="0.129605" d="M597.989,-189.896C583.487,-172.825 549.621,-132.957 526.505,-105.745"/>
<polygon fill="red" stroke="red" stroke-width="0.129605" points="529.144,-103.445 520.003,-98.0901 523.809,-107.977 529.144,-103.445"/>
</g>
<!-- enemyRadar[Left45ø]&#45;&gt; Move Left/Right -->
<g id="edge28" class="edge"><title>enemyRadar[Left45ø]&#45;&gt; Move Left/Right</title>
<path fill="none" stroke="green" stroke-width="0.129781" d="M652.553,-191.202C655.747,-190.819 658.918,-190.464 662,-190.149 786.498,-177.443 1106.45,-197.069 1224,-154.149 1243.56,-147.008 1262.6,-134.907 1278.87,-122.432"/>
<polygon fill="green" stroke="green" stroke-width="0.129781" points="1281.46,-124.852 1287.12,-115.899 1277.11,-119.365 1281.46,-124.852"/>
</g>
<!-- enemyRadar[RightFront20ø] -->
<g id="node13" class="node"><title>enemyRadar[RightFront20ø]</title>
<polygon fill="lightgray" stroke="black" points="961.5,-208.149 842.5,-208.149 842.5,-190.149 961.5,-190.149 961.5,-208.149"/>
<text text-anchor="middle" x="902" y="-196.949" font-family="Times,serif" font-size="9.00">enemyRadar[RightFront20ø]</text>
</g>
<!-- enemyRadar[RightFront20ø]&#45;&gt;Move Forward/Backward -->
<g id="edge15" class="edge"><title>enemyRadar[RightFront20ø]&#45;&gt;Move Forward/Backward</title>
<path fill="none" stroke="red" stroke-width="0.464702" d="M917.851,-190.084C946.661,-175.426 1009.36,-143.526 1060.5,-117.504"/>
<polygon fill="red" stroke="red" stroke-width="0.464702" points="1062.26,-120.54 1069.58,-112.886 1059.08,-114.301 1062.26,-120.54"/>
</g>
<!-- enemyRadar[RightFront20ø]&#45;&gt;Turn left/right -->
<g id="edge21" class="edge"><title>enemyRadar[RightFront20ø]&#45;&gt;Turn left/right</title>
<path fill="none" stroke="green" stroke-width="0.29793" d="M893.065,-189.896C876.846,-174.915 841.622,-142.381 813.328,-116.248"/>
<polygon fill="green" stroke="green" stroke-width="0.29793" points="815.649,-113.626 805.928,-109.412 810.899,-118.768 815.649,-113.626"/>
</g>
<!-- enemyRadar[LeftFront20ø] -->
<g id="node14" class="node"><title>enemyRadar[LeftFront20ø]</title>
<polygon fill="lightgray" stroke="black" points="2435,-208.149 2321,-208.149 2321,-190.149 2435,-190.149 2435,-208.149"/>
<text text-anchor="middle" x="2378" y="-196.949" font-family="Times,serif" font-size="9.00">enemyRadar[LeftFront20ø]</text>
</g>
<!-- enemyRadar[RightFront15ø] -->
<g id="node15" class="node"><title>enemyRadar[RightFront15ø]</title>
<polygon fill="lightgray" stroke="black" points="1704.5,-208.149 1585.5,-208.149 1585.5,-190.149 1704.5,-190.149 1704.5,-208.149"/>
<text text-anchor="middle" x="1645" y="-196.949" font-family="Times,serif" font-size="9.00">enemyRadar[RightFront15ø]</text>
</g>
<!-- enemyRadar[RightFront15ø]&#45;&gt; Move Left/Right -->
<g id="edge34" class="edge"><title>enemyRadar[RightFront15ø]&#45;&gt; Move Left/Right</title>
<path fill="none" stroke="red" stroke-width="0.456186" d="M1623.64,-190.084C1576.06,-172.119 1459.89,-128.253 1387.86,-101.053"/>
<polygon fill="red" stroke="red" stroke-width="0.456186" points="1389.02,-97.7526 1378.43,-97.4944 1386.55,-104.301 1389.02,-97.7526"/>
</g>
<!-- enemyRadar[LeftFront15ø] -->
<g id="node16" class="node"><title>enemyRadar[LeftFront15ø]</title>
<polygon fill="lightgray" stroke="black" points="1195,-208.149 1081,-208.149 1081,-190.149 1195,-190.149 1195,-208.149"/>
<text text-anchor="middle" x="1138" y="-196.949" font-family="Times,serif" font-size="9.00">enemyRadar[LeftFront15ø]</text>
</g>
<!-- enemyRadar[LeftFront15ø]&#45;&gt;Move Forward/Backward -->
<g id="edge1" class="edge"><title>enemyRadar[LeftFront15ø]&#45;&gt;Move Forward/Backward</title>
<path fill="none" stroke="green" stroke-width="0.522669" d="M1138,-189.896C1138,-183.793 1138,-174.776 1138,-164.466"/>
<polygon fill="green" stroke="green" stroke-width="0.522669" points="1141.5,-164.237 1138,-154.237 1134.5,-164.237 1141.5,-164.237"/>
</g>
<!-- enemyRadar[RightFront7.5ø] -->
<g id="node17" class="node"><title>enemyRadar[RightFront7.5ø]</title>
<polygon fill="lightgray" stroke="black" points="1567,-208.149 1445,-208.149 1445,-190.149 1567,-190.149 1567,-208.149"/>
<text text-anchor="middle" x="1506" y="-196.949" font-family="Times,serif" font-size="9.00">enemyRadar[RightFront7.5ø]</text>
</g>
<!-- enemyRadar[RightFront7.5ø]&#45;&gt;Move Forward/Backward -->
<g id="edge18" class="edge"><title>enemyRadar[RightFront7.5ø]&#45;&gt;Move Forward/Backward</title>
<path fill="none" stroke="green" stroke-width="0.174962" d="M1447.97,-190.142C1387.18,-181.311 1296.02,-166.687 1263,-154.149 1244.8,-147.237 1226.29,-137.645 1209.29,-127.598"/>
<polygon fill="green" stroke="green" stroke-width="0.174962" points="1210.92,-124.492 1200.55,-122.314 1207.3,-130.482 1210.92,-124.492"/>
</g>
<!-- enemyRadar[RightFront7.5ø]&#45;&gt; Move Left/Right -->
<g id="edge16" class="edge"><title>enemyRadar[RightFront7.5ø]&#45;&gt; Move Left/Right</title>
<path fill="none" stroke="green" stroke-width="0.163684" d="M1493.98,-190.084C1471.31,-174.881 1421,-141.129 1381.49,-114.626"/>
<polygon fill="green" stroke="green" stroke-width="0.163684" points="1382.98,-111.412 1372.73,-108.748 1379.08,-117.225 1382.98,-111.412"/>
</g>
<!-- enemyRadar[RightFront7.5ø]&#45;&gt;Turn left/right -->
<g id="edge30" class="edge"><title>enemyRadar[RightFront7.5ø]&#45;&gt;Turn left/right</title>
<path fill="none" stroke="green" stroke-width="0.270052" d="M1444.92,-191.095C1441.91,-190.77 1438.92,-190.453 1436,-190.149 1265.5,-172.417 1220.66,-184.734 1052,-154.149 972.044,-139.651 881.675,-113.217 825.764,-95.6471"/>
<polygon fill="green" stroke="green" stroke-width="0.270052" points="826.665,-92.2614 816.075,-92.5827 824.554,-98.9355 826.665,-92.2614"/>
</g>
<!-- enemyRadar[LeftFront7.5ø] -->
<g id="node18" class="node"><title>enemyRadar[LeftFront7.5ø]</title>
<polygon fill="lightgray" stroke="black" points="1839,-208.149 1723,-208.149 1723,-190.149 1839,-190.149 1839,-208.149"/>
<text text-anchor="middle" x="1781" y="-196.949" font-family="Times,serif" font-size="9.00">enemyRadar[LeftFront7.5ø]</text>
</g>
<!-- enemyRadar[LeftFront7.5ø]&#45;&gt; Move Left/Right -->
<g id="edge17" class="edge"><title>enemyRadar[LeftFront7.5ø]&#45;&gt; Move Left/Right</title>
<path fill="none" stroke="green" stroke-width="0.403717" d="M1750.51,-190.084C1677.08,-170.665 1489.23,-120.982 1390.23,-94.7984"/>
<polygon fill="green" stroke="green" stroke-width="0.403717" points="1390.92,-91.3594 1380.36,-92.1861 1389.13,-98.1267 1390.92,-91.3594"/>
</g>
<!-- enemyRadar[RightFront2.5ø] -->
<g id="node19" class="node"><title>enemyRadar[RightFront2.5ø]</title>
<polygon fill="lightgray" stroke="black" points="1427,-208.149 1305,-208.149 1305,-190.149 1427,-190.149 1427,-208.149"/>
<text text-anchor="middle" x="1366" y="-196.949" font-family="Times,serif" font-size="9.00">enemyRadar[RightFront2.5ø]</text>
</g>
<!-- enemyRadar[RightFront2.5ø]&#45;&gt;Move Forward/Backward -->
<g id="edge35" class="edge"><title>enemyRadar[RightFront2.5ø]&#45;&gt;Move Forward/Backward</title>
<path fill="none" stroke="green" stroke-width="0.260409" d="M1344.68,-190.078C1323.57,-181.843 1290.49,-168.295 1263,-154.149 1245.88,-145.34 1227.94,-135.079 1211.17,-124.998"/>
<polygon fill="green" stroke="green" stroke-width="0.260409" points="1212.88,-121.943 1202.51,-119.752 1209.25,-127.929 1212.88,-121.943"/>
</g>
<!-- enemyRadar[RightFront2.5ø]&#45;&gt; Move Left/Right -->
<g id="edge5" class="edge"><title>enemyRadar[RightFront2.5ø]&#45;&gt; Move Left/Right</title>
<path fill="none" stroke="red" stroke-width="0.798681" d="M1363.32,-189.896C1359.84,-179.196 1353.46,-159.539 1347,-139.656"/>
<polygon fill="red" stroke="red" stroke-width="0.798681" points="1350.26,-138.346 1343.84,-129.916 1343.6,-140.508 1350.26,-138.346"/>
</g>
<!-- enemyRadar[RightFront2.5ø]&#45;&gt;Turn left/right -->
<g id="edge31" class="edge"><title>enemyRadar[RightFront2.5ø]&#45;&gt;Turn left/right</title>
<path fill="none" stroke="red" stroke-width="0.662704" d="M1304.76,-190.501C1227.48,-180.688 1098.98,-163.783 1052,-154.149 972.63,-137.874 882.465,-112.019 826.401,-95.0473"/>
<polygon fill="red" stroke="red" stroke-width="0.662704" points="827.267,-91.6524 816.681,-92.0903 825.229,-98.3493 827.267,-91.6524"/>
</g>
<!-- enemyRadar[LeftFront2.5ø] -->
<g id="node20" class="node"><title>enemyRadar[LeftFront2.5ø]</title>
<polygon fill="lightgray" stroke="black" points="1973,-208.149 1857,-208.149 1857,-190.149 1973,-190.149 1973,-208.149"/>
<text text-anchor="middle" x="1915" y="-196.949" font-family="Times,serif" font-size="9.00">enemyRadar[LeftFront2.5ø]</text>
</g>
<!-- enemyRadar[LeftFront2.5ø]&#45;&gt; Move Left/Right -->
<g id="edge19" class="edge"><title>enemyRadar[LeftFront2.5ø]&#45;&gt; Move Left/Right</title>
<path fill="none" stroke="red" stroke-width="0.370726" d="M1875.51,-190.084C1775.83,-169.729 1513.32,-116.122 1391.19,-91.1822"/>
<polygon fill="red" stroke="red" stroke-width="0.370726" points="1391.72,-87.7199 1381.23,-89.1482 1390.32,-94.5783 1391.72,-87.7199"/>
</g>
<!-- enemyRadar[Front7Ø] -->
<g id="node21" class="node"><title>enemyRadar[Front7Ø]</title>
<polygon fill="lightgray" stroke="black" points="2551,-208.149 2453,-208.149 2453,-190.149 2551,-190.149 2551,-208.149"/>
<text text-anchor="middle" x="2502" y="-196.949" font-family="Times,serif" font-size="9.00">enemyRadar[Front7Ø]</text>
</g>
<!-- OnTarget -->
<g id="node22" class="node"><title>OnTarget</title>
<polygon fill="lightgray" stroke="black" points="360,-208.149 310,-208.149 310,-190.149 360,-190.149 360,-208.149"/>
<text text-anchor="middle" x="335" y="-196.949" font-family="Times,serif" font-size="9.00">OnTarget</text>
</g>
<!-- OnTarget&#45;&gt;Turn left/right -->
<g id="edge22" class="edge"><title>OnTarget&#45;&gt;Turn left/right</title>
<path fill="none" stroke="green" stroke-width="0.697456" d="M360.237,-192.145C363.189,-191.462 366.159,-190.784 369,-190.149 444.372,-173.304 464.407,-174.163 539,-154.149 601.351,-137.42 671.63,-113.802 718.542,-97.3351"/>
<polygon fill="green" stroke="green" stroke-width="0.697456" points="719.92,-100.561 728.187,-93.9349 717.592,-93.959 719.92,-100.561"/>
</g>
<!-- bias -->
<g id="node23" class="node"><title>bias</title>
<polygon fill="lightgray" stroke="black" points="701.5,-208.149 670.5,-208.149 670.5,-190.149 701.5,-190.149 701.5,-208.149"/>
<text text-anchor="middle" x="686" y="-196.949" font-family="Times,serif" font-size="9.00">bias</text>
</g>
<!-- bias&#45;&gt;Shoot -->
<g id="edge32" class="edge"><title>bias&#45;&gt;Shoot</title>
<path fill="none" stroke="red" stroke-width="0.194317" d="M673.709,-190.084C645.338,-171.469 574.584,-125.044 533.624,-98.1682"/>
<polygon fill="red" stroke="red" stroke-width="0.194317" points="535.398,-95.1461 525.117,-92.5865 531.558,-100.999 535.398,-95.1461"/>
</g>
<!-- bias&#45;&gt; Move Left/Right -->
<g id="edge12" class="edge"><title>bias&#45;&gt; Move Left/Right</title>
<path fill="none" stroke="green" stroke-width="0.194862" d="M701.722,-192.489C704.766,-191.573 707.957,-190.734 711,-190.149 935.453,-147.01 1009.54,-233.189 1224,-154.149 1243.54,-146.948 1262.57,-134.831 1278.85,-122.361"/>
<polygon fill="green" stroke="green" stroke-width="0.194862" points="1281.43,-124.782 1287.1,-115.831 1277.08,-119.293 1281.43,-124.782"/>
</g>
</g>
</svg>
