<?xml version="1.0" encoding="UTF-8" standalone="no"?>
<!DOCTYPE svg PUBLIC "-//W3C//DTD SVG 1.1//EN"
 "http://www.w3.org/Graphics/SVG/1.1/DTD/svg11.dtd">
<!-- Generated by graphviz version 2.38.0 (20140413.2041)
 -->
<!-- Title: %3 Pages: 1 -->
<svg width="2559pt" height="216pt"
 viewBox="0.00 0.00 2558.50 216.15" xmlns="http://www.w3.org/2000/svg" xmlns:xlink="http://www.w3.org/1999/xlink">
<g id="graph0" class="graph" transform="scale(1 1) rotate(0) translate(4 212.149)">
<title>%3</title>
<polygon fill="white" stroke="none" points="-4,4 -4,-212.149 2554.5,-212.149 2554.5,4 -4,4"/>
<!-- wallRadar[1,0] -->
<g id="node1" class="node"><title>wallRadar[1,0]</title>
<polygon fill="lightgray" stroke="black" points="177.5,-208.149 107.5,-208.149 107.5,-190.149 177.5,-190.149 177.5,-208.149"/>
<text text-anchor="middle" x="142.5" y="-196.949" font-family="Times,serif" font-size="9.00">wallRadar[1,0]</text>
</g>
<!-- Move Forward/Backward -->
<g id="node25" class="node"><title>Move Forward/Backward</title>
<ellipse fill="lightblue" stroke="black" cx="1102.5" cy="-77.0746" rx="77.1494" ry="77.1494"/>
<text text-anchor="middle" x="1102.5" y="-74.8746" font-family="Times,serif" font-size="9.00">Move Forward/Backward</text>
</g>
<!-- wallRadar[1,0]&#45;&gt;Move Forward/Backward -->
<g id="edge42" class="edge"><title>wallRadar[1,0]&#45;&gt;Move Forward/Backward</title>
<path fill="none" stroke="red" stroke-width="0.300301" d="M177.507,-191.396C180.542,-190.928 183.571,-190.503 186.5,-190.149 448.634,-158.476 518.267,-192.555 779.5,-154.149 861.771,-142.054 953.951,-119.414 1018.71,-101.965"/>
<polygon fill="red" stroke="red" stroke-width="0.300301" points="1019.73,-105.316 1028.46,-99.3206 1017.9,-98.5595 1019.73,-105.316"/>
</g>
<!-- Turn left/right -->
<g id="node27" class="node"><title>Turn left/right</title>
<ellipse fill="lightblue" stroke="black" cx="723.5" cy="-77.0746" rx="46.8387" ry="46.8387"/>
<text text-anchor="middle" x="723.5" y="-74.8746" font-family="Times,serif" font-size="9.00">Turn left/right</text>
</g>
<!-- wallRadar[1,0]&#45;&gt;Turn left/right -->
<g id="edge15" class="edge"><title>wallRadar[1,0]&#45;&gt;Turn left/right</title>
<path fill="none" stroke="red" stroke-width="0.471527" d="M177.536,-190.908C274.918,-170.783 549.444,-114.047 667.922,-89.5609"/>
<polygon fill="red" stroke="red" stroke-width="0.471527" points="668.791,-92.9554 677.875,-87.5038 667.374,-86.1003 668.791,-92.9554"/>
</g>
<!-- wallRadar[0,1] -->
<g id="node2" class="node"><title>wallRadar[0,1]</title>
<polygon fill="lightgray" stroke="black" points="1448.5,-208.149 1378.5,-208.149 1378.5,-190.149 1448.5,-190.149 1448.5,-208.149"/>
<text text-anchor="middle" x="1413.5" y="-196.949" font-family="Times,serif" font-size="9.00">wallRadar[0,1]</text>
</g>
<!-- Shoot -->
<g id="node24" class="node"><title>Shoot</title>
<ellipse fill="lightblue" stroke="black" cx="1518.5" cy="-77.0746" rx="26.7407" ry="26.7407"/>
<text text-anchor="middle" x="1518.5" y="-74.8746" font-family="Times,serif" font-size="9.00">Shoot</text>
</g>
<!-- wallRadar[0,1]&#45;&gt;Shoot -->
<g id="edge8" class="edge"><title>wallRadar[0,1]&#45;&gt;Shoot</title>
<path fill="none" stroke="green" stroke-width="0.352106" d="M1420.72,-189.896C1435.65,-172.825 1470.51,-132.957 1494.3,-105.745"/>
<polygon fill="green" stroke="green" stroke-width="0.352106" points="1497.05,-107.922 1501,-98.0901 1491.78,-103.314 1497.05,-107.922"/>
</g>
<!-- wallRadar[0,1]&#45;&gt;Move Forward/Backward -->
<g id="edge7" class="edge"><title>wallRadar[0,1]&#45;&gt;Move Forward/Backward</title>
<path fill="none" stroke="green" stroke-width="0.616754" d="M1392.61,-190.084C1350.66,-173.888 1254.19,-136.642 1183.98,-109.534"/>
<polygon fill="green" stroke="green" stroke-width="0.616754" points="1184.85,-106.116 1174.26,-105.779 1182.32,-112.646 1184.85,-106.116"/>
</g>
<!--  Move Left/Right -->
<g id="node26" class="node"><title> Move Left/Right</title>
<ellipse fill="lightblue" stroke="black" cx="1775.5" cy="-77.0746" rx="55.3091" ry="55.3091"/>
<text text-anchor="middle" x="1775.5" y="-74.8746" font-family="Times,serif" font-size="9.00"> Move Left/Right</text>
</g>
<!-- wallRadar[0,1]&#45;&gt; Move Left/Right -->
<g id="edge50" class="edge"><title>wallRadar[0,1]&#45;&gt; Move Left/Right</title>
<path fill="none" stroke="red" stroke-width="0.129808" d="M1440.08,-190.106C1468.48,-181.454 1514.78,-167.179 1554.5,-154.149 1608.56,-136.414 1669.7,-115.285 1713.94,-99.8006"/>
<polygon fill="red" stroke="red" stroke-width="0.129808" points="1715.12,-103.097 1723.4,-96.4867 1712.81,-96.4906 1715.12,-103.097"/>
</g>
<!-- wallRadar[0,1]&#45;&gt;Turn left/right -->
<g id="edge10" class="edge"><title>wallRadar[0,1]&#45;&gt;Turn left/right</title>
<path fill="none" stroke="green" stroke-width="0.30434" d="M1378.48,-191.526C1375.44,-191.03 1372.42,-190.563 1369.5,-190.149 1213.36,-168.027 1171.72,-182.046 1016.5,-154.149 932.152,-138.989 836.378,-112.276 777.957,-94.8787"/>
<polygon fill="green" stroke="green" stroke-width="0.30434" points="778.786,-91.4734 768.202,-91.9569 776.778,-98.1791 778.786,-91.4734"/>
</g>
<!-- wallRadar[&#45;1,0] -->
<g id="node3" class="node"><title>wallRadar[&#45;1,0]</title>
<polygon fill="lightgray" stroke="black" points="1916,-208.149 1843,-208.149 1843,-190.149 1916,-190.149 1916,-208.149"/>
<text text-anchor="middle" x="1879.5" y="-196.949" font-family="Times,serif" font-size="9.00">wallRadar[&#45;1,0]</text>
</g>
<!-- wallRadar[&#45;1,0]&#45;&gt;Shoot -->
<g id="edge52" class="edge"><title>wallRadar[&#45;1,0]&#45;&gt;Shoot</title>
<path fill="none" stroke="green" stroke-width="0.47037" d="M1843.75,-190.094C1809.49,-182.069 1756.5,-168.851 1711.5,-154.149 1654.78,-135.615 1590.63,-109.204 1552.43,-92.8765"/>
<polygon fill="green" stroke="green" stroke-width="0.47037" points="1553.4,-89.4859 1542.83,-88.7538 1550.64,-95.9173 1553.4,-89.4859"/>
</g>
<!-- wallRadar[&#45;1,0]&#45;&gt;Move Forward/Backward -->
<g id="edge53" class="edge"><title>wallRadar[&#45;1,0]&#45;&gt;Move Forward/Backward</title>
<path fill="none" stroke="red" stroke-width="0.173291" d="M1842.88,-191.542C1839.71,-191.043 1836.55,-190.571 1833.5,-190.149 1678.16,-168.701 1637.56,-177.568 1482.5,-154.149 1380.47,-138.74 1264.31,-114.491 1187.56,-97.5233"/>
<polygon fill="red" stroke="red" stroke-width="0.173291" points="1187.99,-94.033 1177.47,-95.2834 1186.48,-100.867 1187.99,-94.033"/>
</g>
<!-- wallRadar[&#45;1,0]&#45;&gt; Move Left/Right -->
<g id="edge32" class="edge"><title>wallRadar[&#45;1,0]&#45;&gt; Move Left/Right</title>
<path fill="none" stroke="green" stroke-width="0.373173" d="M1872.35,-189.896C1861.09,-176.892 1838.37,-150.659 1817.76,-126.869"/>
<polygon fill="green" stroke="green" stroke-width="0.373173" points="1820.36,-124.518 1811.16,-119.251 1815.06,-129.101 1820.36,-124.518"/>
</g>
<!-- wallRadar[0,&#45;1] -->
<g id="node4" class="node"><title>wallRadar[0,&#45;1]</title>
<polygon fill="lightgray" stroke="black" points="894,-208.149 821,-208.149 821,-190.149 894,-190.149 894,-208.149"/>
<text text-anchor="middle" x="857.5" y="-196.949" font-family="Times,serif" font-size="9.00">wallRadar[0,&#45;1]</text>
</g>
<!-- wallRadar[0,&#45;1]&#45;&gt;Move Forward/Backward -->
<g id="edge5" class="edge"><title>wallRadar[0,&#45;1]&#45;&gt;Move Forward/Backward</title>
<path fill="none" stroke="green" stroke-width="0.230596" d="M873.956,-190.084C904.331,-175.197 970.997,-142.524 1024.53,-116.288"/>
<polygon fill="green" stroke="green" stroke-width="0.230596" points="1026.24,-119.348 1033.68,-111.804 1023.16,-113.062 1026.24,-119.348"/>
</g>
<!-- wallRadar[0,&#45;1]&#45;&gt; Move Left/Right -->
<g id="edge39" class="edge"><title>wallRadar[0,&#45;1]&#45;&gt; Move Left/Right</title>
<path fill="none" stroke="green" stroke-width="0.20943" d="M894.102,-191.386C897.274,-190.921 900.44,-190.499 903.5,-190.149 1191.4,-157.268 1270.13,-209.839 1554.5,-154.149 1610.71,-143.143 1672.11,-121.148 1715.9,-103.627"/>
<polygon fill="green" stroke="green" stroke-width="0.20943" points="1717.29,-106.842 1725.25,-99.8487 1714.66,-100.352 1717.29,-106.842"/>
</g>
<!-- wallRadar[0,&#45;1]&#45;&gt;Turn left/right -->
<g id="edge17" class="edge"><title>wallRadar[0,&#45;1]&#45;&gt;Turn left/right</title>
<path fill="none" stroke="green" stroke-width="0.528068" d="M848.29,-189.896C831.463,-174.818 794.792,-141.958 765.533,-115.739"/>
<polygon fill="green" stroke="green" stroke-width="0.528068" points="767.669,-112.954 757.886,-108.887 762.998,-118.167 767.669,-112.954"/>
</g>
<!-- wallRadar[0.7,0.7] -->
<g id="node5" class="node"><title>wallRadar[0.7,0.7]</title>
<polygon fill="lightgray" stroke="black" points="803,-208.149 720,-208.149 720,-190.149 803,-190.149 803,-208.149"/>
<text text-anchor="middle" x="761.5" y="-196.949" font-family="Times,serif" font-size="9.00">wallRadar[0.7,0.7]</text>
</g>
<!-- wallRadar[0.7,0.7]&#45;&gt;Shoot -->
<g id="edge1" class="edge"><title>wallRadar[0.7,0.7]&#45;&gt;Shoot</title>
<path fill="none" stroke="green" stroke-width="0.374988" d="M803.213,-191.272C806.015,-190.873 808.797,-190.494 811.5,-190.149 978.464,-168.842 1022.36,-181.113 1188.5,-154.149 1296.85,-136.565 1422.68,-104.167 1482.86,-87.9152"/>
<polygon fill="green" stroke="green" stroke-width="0.374988" points="1483.9,-91.2606 1492.63,-85.2627 1482.07,-84.5051 1483.9,-91.2606"/>
</g>
<!-- wallRadar[0.7,0.7]&#45;&gt;Turn left/right -->
<g id="edge3" class="edge"><title>wallRadar[0.7,0.7]&#45;&gt;Turn left/right</title>
<path fill="none" stroke="green" stroke-width="0.309665" d="M758.888,-189.896C755.029,-177.703 747.49,-153.881 740.359,-131.346"/>
<polygon fill="green" stroke="green" stroke-width="0.309665" points="743.694,-130.283 737.339,-121.805 737.02,-132.395 743.694,-130.283"/>
</g>
<!-- wallRadar[&#45;0.7,0.7] -->
<g id="node6" class="node"><title>wallRadar[&#45;0.7,0.7]</title>
<polygon fill="lightgray" stroke="black" points="281.5,-208.149 195.5,-208.149 195.5,-190.149 281.5,-190.149 281.5,-208.149"/>
<text text-anchor="middle" x="238.5" y="-196.949" font-family="Times,serif" font-size="9.00">wallRadar[&#45;0.7,0.7]</text>
</g>
<!-- wallRadar[&#45;0.7,0.7]&#45;&gt;Move Forward/Backward -->
<g id="edge44" class="edge"><title>wallRadar[&#45;0.7,0.7]&#45;&gt;Move Forward/Backward</title>
<path fill="none" stroke="green" stroke-width="0.398815" d="M281.595,-191.25C284.605,-190.851 287.596,-190.479 290.5,-190.149 507.03,-165.562 564.104,-187.232 779.5,-154.149 861.692,-141.526 953.882,-118.953 1018.67,-101.663"/>
<polygon fill="green" stroke="green" stroke-width="0.398815" points="1019.67,-105.017 1028.42,-99.0442 1017.86,-98.2566 1019.67,-105.017"/>
</g>
<!-- wallRadar[&#45;0.7,0.7]&#45;&gt;Turn left/right -->
<g id="edge27" class="edge"><title>wallRadar[&#45;0.7,0.7]&#45;&gt;Turn left/right</title>
<path fill="none" stroke="red" stroke-width="0.36837" d="M271.075,-190.084C352.779,-169.856 567.111,-116.793 668.648,-91.6547"/>
<polygon fill="red" stroke="red" stroke-width="0.36837" points="669.541,-95.0393 678.407,-89.2386 667.859,-88.2444 669.541,-95.0393"/>
</g>
<!-- wallRadar[&#45;0.7,&#45;0.7] -->
<g id="node7" class="node"><title>wallRadar[&#45;0.7,&#45;0.7]</title>
<polygon fill="lightgray" stroke="black" points="89,-208.149 7.10543e-15,-208.149 7.10543e-15,-190.149 89,-190.149 89,-208.149"/>
<text text-anchor="middle" x="44.5" y="-196.949" font-family="Times,serif" font-size="9.00">wallRadar[&#45;0.7,&#45;0.7]</text>
</g>
<!-- wallRadar[&#45;0.7,&#45;0.7]&#45;&gt;Turn left/right -->
<g id="edge23" class="edge"><title>wallRadar[&#45;0.7,&#45;0.7]&#45;&gt;Turn left/right</title>
<path fill="none" stroke="red" stroke-width="0.277739" d="M89.0511,-190.271C208.527,-169.143 535.892,-111.251 667.561,-87.9668"/>
<polygon fill="red" stroke="red" stroke-width="0.277739" points="668.209,-91.4067 677.447,-86.2187 666.99,-84.5137 668.209,-91.4067"/>
</g>
<!-- wallRadar[0.7,&#45;0.7] -->
<g id="node8" class="node"><title>wallRadar[0.7,&#45;0.7]</title>
<polygon fill="lightgray" stroke="black" points="2020.5,-208.149 1934.5,-208.149 1934.5,-190.149 2020.5,-190.149 2020.5,-208.149"/>
<text text-anchor="middle" x="1977.5" y="-196.949" font-family="Times,serif" font-size="9.00">wallRadar[0.7,&#45;0.7]</text>
</g>
<!-- wallRadar[0.7,&#45;0.7]&#45;&gt;Shoot -->
<g id="edge45" class="edge"><title>wallRadar[0.7,&#45;0.7]&#45;&gt;Shoot</title>
<path fill="none" stroke="red" stroke-width="0.34277" d="M1934.26,-191.51C1864.45,-180.714 1732.56,-159.972 1711.5,-154.149 1653.98,-138.249 1590.07,-111.062 1552.13,-93.86"/>
<polygon fill="red" stroke="red" stroke-width="0.34277" points="1553.16,-90.4802 1542.61,-89.5027 1550.25,-96.8457 1553.16,-90.4802"/>
</g>
<!-- wallRadar[0.7,&#45;0.7]&#45;&gt;Move Forward/Backward -->
<g id="edge9" class="edge"><title>wallRadar[0.7,&#45;0.7]&#45;&gt;Move Forward/Backward</title>
<path fill="none" stroke="green" stroke-width="0.12238" d="M1934.4,-191.276C1931.39,-190.871 1928.4,-190.49 1925.5,-190.149 1729.31,-167.116 1678.12,-181.584 1482.5,-154.149 1380.31,-139.818 1264.18,-115.355 1187.49,-98.0433"/>
<polygon fill="green" stroke="green" stroke-width="0.12238" points="1187.93,-94.5542 1177.4,-95.7563 1186.38,-101.381 1187.93,-94.5542"/>
</g>
<!-- wallRadar[0.7,&#45;0.7]&#45;&gt; Move Left/Right -->
<g id="edge21" class="edge"><title>wallRadar[0.7,&#45;0.7]&#45;&gt; Move Left/Right</title>
<path fill="none" stroke="red" stroke-width="0.649854" d="M1963.93,-190.084C1937.31,-174.26 1876.89,-138.342 1831.59,-111.417"/>
<polygon fill="red" stroke="red" stroke-width="0.649854" points="1833.13,-108.262 1822.75,-106.161 1829.56,-114.279 1833.13,-108.262"/>
</g>
<!-- enemyRadar[RightBack] -->
<g id="node9" class="node"><title>enemyRadar[RightBack]</title>
<polygon fill="lightgray" stroke="black" points="1570.5,-208.149 1466.5,-208.149 1466.5,-190.149 1570.5,-190.149 1570.5,-208.149"/>
<text text-anchor="middle" x="1518.5" y="-196.949" font-family="Times,serif" font-size="9.00">enemyRadar[RightBack]</text>
</g>
<!-- enemyRadar[RightBack]&#45;&gt;Shoot -->
<g id="edge18" class="edge"><title>enemyRadar[RightBack]&#45;&gt;Shoot</title>
<path fill="none" stroke="red" stroke-width="0.136649" d="M1518.5,-189.896C1518.5,-174.554 1518.5,-140.799 1518.5,-114.366"/>
<polygon fill="red" stroke="red" stroke-width="0.136649" points="1522,-114.286 1518.5,-104.286 1515,-114.286 1522,-114.286"/>
</g>
<!-- enemyRadar[RightBack]&#45;&gt;Move Forward/Backward -->
<g id="edge34" class="edge"><title>enemyRadar[RightBack]&#45;&gt;Move Forward/Backward</title>
<path fill="none" stroke="red" stroke-width="0.437248" d="M1490.56,-190.084C1429.24,-172.386 1280.84,-129.55 1186.34,-102.276"/>
<polygon fill="red" stroke="red" stroke-width="0.437248" points="1187.1,-98.8508 1176.52,-99.4402 1185.16,-105.576 1187.1,-98.8508"/>
</g>
<!-- enemyRadar[RightBack]&#45;&gt; Move Left/Right -->
<g id="edge38" class="edge"><title>enemyRadar[RightBack]&#45;&gt; Move Left/Right</title>
<path fill="none" stroke="red" stroke-width="0.811698" d="M1535.76,-190.084C1572.14,-173.089 1658.12,-132.915 1716.59,-105.599"/>
<polygon fill="red" stroke="red" stroke-width="0.811698" points="1718.15,-108.735 1725.72,-101.331 1715.18,-102.393 1718.15,-108.735"/>
</g>
<!-- enemyRadar[RightBack]&#45;&gt;Turn left/right -->
<g id="edge14" class="edge"><title>enemyRadar[RightBack]&#45;&gt;Turn left/right</title>
<path fill="none" stroke="red" stroke-width="0.318353" d="M1466.28,-191.129C1463.31,-190.784 1460.37,-190.454 1457.5,-190.149 1261.95,-169.357 1210.39,-186.982 1016.5,-154.149 932.004,-139.841 836.27,-112.894 777.898,-95.2154"/>
<polygon fill="red" stroke="red" stroke-width="0.318353" points="778.738,-91.8125 768.152,-92.2445 776.697,-98.5083 778.738,-91.8125"/>
</g>
<!-- enemyRadar[LeftBack] -->
<g id="node10" class="node"><title>enemyRadar[LeftBack]</title>
<polygon fill="lightgray" stroke="black" points="399,-208.149 300,-208.149 300,-190.149 399,-190.149 399,-208.149"/>
<text text-anchor="middle" x="349.5" y="-196.949" font-family="Times,serif" font-size="9.00">enemyRadar[LeftBack]</text>
</g>
<!-- enemyRadar[LeftBack]&#45;&gt;Move Forward/Backward -->
<g id="edge26" class="edge"><title>enemyRadar[LeftBack]&#45;&gt;Move Forward/Backward</title>
<path fill="none" stroke="green" stroke-width="0.575163" d="M399.057,-191.29C402.251,-190.891 405.42,-190.507 408.5,-190.149 573.055,-171.016 616.06,-181.2 779.5,-154.149 861.539,-140.571 953.749,-118.12 1018.58,-101.118"/>
<polygon fill="green" stroke="green" stroke-width="0.575163" points="1019.57,-104.478 1028.34,-98.545 1017.78,-97.7095 1019.57,-104.478"/>
</g>
<!-- enemyRadar[LeftBack]&#45;&gt;Turn left/right -->
<g id="edge55" class="edge"><title>enemyRadar[LeftBack]&#45;&gt;Turn left/right</title>
<path fill="none" stroke="red" stroke-width="0.174567" d="M374.62,-190.084C434.661,-170.808 587.583,-121.711 669.597,-95.3805"/>
<polygon fill="red" stroke="red" stroke-width="0.174567" points="670.785,-98.6752 679.236,-92.2858 668.645,-92.0103 670.785,-98.6752"/>
</g>
<!-- enemyRadar[Right45ø] -->
<g id="node11" class="node"><title>enemyRadar[Right45ø]</title>
<polygon fill="lightgray" stroke="black" points="2138.5,-208.149 2038.5,-208.149 2038.5,-190.149 2138.5,-190.149 2138.5,-208.149"/>
<text text-anchor="middle" x="2088.5" y="-196.949" font-family="Times,serif" font-size="9.00">enemyRadar[Right45ø]</text>
</g>
<!-- enemyRadar[Right45ø]&#45;&gt;Shoot -->
<g id="edge43" class="edge"><title>enemyRadar[Right45ø]&#45;&gt;Shoot</title>
<path fill="none" stroke="green" stroke-width="0.500486" d="M2038.3,-191.266C2035.32,-190.881 2032.37,-190.507 2029.5,-190.149 1888.35,-172.593 1849.52,-188.525 1711.5,-154.149 1653.43,-139.687 1589.44,-111.952 1551.67,-94.2648"/>
<polygon fill="green" stroke="green" stroke-width="0.500486" points="1552.74,-90.8956 1542.2,-89.7806 1549.74,-97.2226 1552.74,-90.8956"/>
</g>
<!-- enemyRadar[Right45ø]&#45;&gt; Move Left/Right -->
<g id="edge48" class="edge"><title>enemyRadar[Right45ø]&#45;&gt; Move Left/Right</title>
<path fill="none" stroke="green" stroke-width="0.163963" stroke-dasharray="1,5" d="M2067.48,-190.084C2020.87,-172.206 1907.4,-128.677 1836.43,-101.449"/>
<polygon fill="green" stroke="green" stroke-width="0.163963" points="1837.3,-98.0338 1826.71,-97.7198 1834.79,-104.569 1837.3,-98.0338"/>
</g>
<!-- enemyRadar[Left45ø] -->
<g id="node12" class="node"><title>enemyRadar[Left45ø]</title>
<polygon fill="lightgray" stroke="black" points="653,-208.149 558,-208.149 558,-190.149 653,-190.149 653,-208.149"/>
<text text-anchor="middle" x="605.5" y="-196.949" font-family="Times,serif" font-size="9.00">enemyRadar[Left45ø]</text>
</g>
<!-- enemyRadar[Left45ø]&#45;&gt;Shoot -->
<g id="edge4" class="edge"><title>enemyRadar[Left45ø]&#45;&gt;Shoot</title>
<path fill="none" stroke="red" stroke-width="0.187447" d="M653.129,-191.102C655.959,-190.759 658.765,-190.438 661.5,-190.149 894.974,-165.532 956.277,-188.626 1188.5,-154.149 1297.08,-138.029 1422.8,-104.96 1482.91,-88.2371"/>
<polygon fill="red" stroke="red" stroke-width="0.187447" points="1483.99,-91.5717 1492.67,-85.5053 1482.1,-84.8309 1483.99,-91.5717"/>
</g>
<!-- enemyRadar[Left45ø]&#45;&gt;Move Forward/Backward -->
<g id="edge54" class="edge"><title>enemyRadar[Left45ø]&#45;&gt;Move Forward/Backward</title>
<path fill="none" stroke="red" stroke-width="0.176787" d="M638.881,-190.084C715.571,-171.556 906.29,-125.479 1017.76,-98.5471"/>
<polygon fill="red" stroke="red" stroke-width="0.176787" points="1018.74,-101.913 1027.63,-96.1622 1017.09,-95.1086 1018.74,-101.913"/>
</g>
<!-- enemyRadar[Left45ø]&#45;&gt;Turn left/right -->
<g id="edge13" class="edge"><title>enemyRadar[Left45ø]&#45;&gt;Turn left/right</title>
<path fill="none" stroke="red" stroke-width="0.199438" d="M613.611,-189.896C627.923,-175.332 658.539,-144.178 683.829,-118.443"/>
<polygon fill="red" stroke="red" stroke-width="0.199438" points="686.629,-120.588 691.141,-111.002 681.636,-115.681 686.629,-120.588"/>
</g>
<!-- enemyRadar[RightFront20ø] -->
<g id="node13" class="node"><title>enemyRadar[RightFront20ø]</title>
<polygon fill="lightgray" stroke="black" points="1708,-208.149 1589,-208.149 1589,-190.149 1708,-190.149 1708,-208.149"/>
<text text-anchor="middle" x="1648.5" y="-196.949" font-family="Times,serif" font-size="9.00">enemyRadar[RightFront20ø]</text>
</g>
<!-- enemyRadar[RightFront20ø]&#45;&gt;Shoot -->
<g id="edge37" class="edge"><title>enemyRadar[RightFront20ø]&#45;&gt;Shoot</title>
<path fill="none" stroke="red" stroke-width="0.187177" d="M1639.56,-189.896C1620.4,-172.192 1574.68,-129.97 1545.24,-102.772"/>
<polygon fill="red" stroke="red" stroke-width="0.187177" points="1547.49,-100.083 1537.77,-95.8688 1542.74,-105.225 1547.49,-100.083"/>
</g>
<!-- enemyRadar[RightFront20ø]&#45;&gt;Move Forward/Backward -->
<g id="edge24" class="edge"><title>enemyRadar[RightFront20ø]&#45;&gt;Move Forward/Backward</title>
<path fill="none" stroke="green" stroke-width="0.324737" d="M1611.83,-190.084C1525.78,-171.161 1309.06,-123.5 1187.87,-96.85"/>
<polygon fill="green" stroke="green" stroke-width="0.324737" points="1188.4,-93.3829 1177.89,-94.6533 1186.9,-100.22 1188.4,-93.3829"/>
</g>
<!-- enemyRadar[LeftFront20ø] -->
<g id="node14" class="node"><title>enemyRadar[LeftFront20ø]</title>
<polygon fill="lightgray" stroke="black" points="1360.5,-208.149 1246.5,-208.149 1246.5,-190.149 1360.5,-190.149 1360.5,-208.149"/>
<text text-anchor="middle" x="1303.5" y="-196.949" font-family="Times,serif" font-size="9.00">enemyRadar[LeftFront20ø]</text>
</g>
<!-- enemyRadar[LeftFront20ø]&#45;&gt;Shoot -->
<g id="edge12" class="edge"><title>enemyRadar[LeftFront20ø]&#45;&gt;Shoot</title>
<path fill="none" stroke="green" stroke-width="0.237164" d="M1317.94,-190.084C1352.19,-170.958 1439,-122.472 1486.41,-95.9982"/>
<polygon fill="green" stroke="green" stroke-width="0.237164" points="1488.31,-98.9438 1495.33,-91.012 1484.9,-92.8323 1488.31,-98.9438"/>
</g>
<!-- enemyRadar[LeftFront20ø]&#45;&gt;Move Forward/Backward -->
<g id="edge30" class="edge"><title>enemyRadar[LeftFront20ø]&#45;&gt;Move Forward/Backward</title>
<path fill="none" stroke="red" stroke-width="0.304608" d="M1290,-190.084C1267.07,-176.388 1218.95,-147.638 1177.19,-122.696"/>
<polygon fill="red" stroke="red" stroke-width="0.304608" points="1178.77,-119.561 1168.39,-117.438 1175.18,-125.571 1178.77,-119.561"/>
</g>
<!-- enemyRadar[RightFront15ø] -->
<g id="node15" class="node"><title>enemyRadar[RightFront15ø]</title>
<polygon fill="lightgray" stroke="black" points="2276,-208.149 2157,-208.149 2157,-190.149 2276,-190.149 2276,-208.149"/>
<text text-anchor="middle" x="2216.5" y="-196.949" font-family="Times,serif" font-size="9.00">enemyRadar[RightFront15ø]</text>
</g>
<!-- enemyRadar[RightFront15ø]&#45;&gt;Shoot -->
<g id="edge28" class="edge"><title>enemyRadar[RightFront15ø]&#45;&gt;Shoot</title>
<path fill="none" stroke="green" stroke-width="0.520162" d="M2156.67,-191.09C2153.57,-190.763 2150.5,-190.447 2147.5,-190.149 1954.01,-170.95 1900.86,-198.273 1711.5,-154.149 1653.22,-140.569 1589.29,-112.571 1551.6,-94.591"/>
<polygon fill="green" stroke="green" stroke-width="0.520162" points="1552.67,-91.2226 1542.14,-90.0282 1549.63,-97.5268 1552.67,-91.2226"/>
</g>
<!-- enemyRadar[RightFront15ø]&#45;&gt; Move Left/Right -->
<g id="edge16" class="edge"><title>enemyRadar[RightFront15ø]&#45;&gt; Move Left/Right</title>
<path fill="none" stroke="green" stroke-width="0.307248" d="M2186.88,-190.084C2116,-170.786 1935.36,-121.601 1838.73,-95.2914"/>
<polygon fill="green" stroke="green" stroke-width="0.307248" points="1839.37,-91.8366 1828.8,-92.5865 1837.53,-98.5907 1839.37,-91.8366"/>
</g>
<!-- enemyRadar[LeftFront15ø] -->
<g id="node16" class="node"><title>enemyRadar[LeftFront15ø]</title>
<polygon fill="lightgray" stroke="black" points="1026.5,-208.149 912.5,-208.149 912.5,-190.149 1026.5,-190.149 1026.5,-208.149"/>
<text text-anchor="middle" x="969.5" y="-196.949" font-family="Times,serif" font-size="9.00">enemyRadar[LeftFront15ø]</text>
</g>
<!-- enemyRadar[LeftFront15ø]&#45;&gt;Move Forward/Backward -->
<g id="edge19" class="edge"><title>enemyRadar[LeftFront15ø]&#45;&gt;Move Forward/Backward</title>
<path fill="none" stroke="red" stroke-width="0.18879" d="M978.642,-189.896C991.192,-178.565 1014.87,-157.191 1038.18,-136.14"/>
<polygon fill="red" stroke="red" stroke-width="0.18879" points="1040.65,-138.63 1045.73,-129.33 1035.96,-133.434 1040.65,-138.63"/>
</g>
<!-- enemyRadar[RightFront7.5ø] -->
<g id="node17" class="node"><title>enemyRadar[RightFront7.5ø]</title>
<polygon fill="lightgray" stroke="black" points="2550.5,-208.149 2428.5,-208.149 2428.5,-190.149 2550.5,-190.149 2550.5,-208.149"/>
<text text-anchor="middle" x="2489.5" y="-196.949" font-family="Times,serif" font-size="9.00">enemyRadar[RightFront7.5ø]</text>
</g>
<!-- enemyRadar[LeftFront7.5ø] -->
<g id="node18" class="node"><title>enemyRadar[LeftFront7.5ø]</title>
<polygon fill="lightgray" stroke="black" points="2410.5,-208.149 2294.5,-208.149 2294.5,-190.149 2410.5,-190.149 2410.5,-208.149"/>
<text text-anchor="middle" x="2352.5" y="-196.949" font-family="Times,serif" font-size="9.00">enemyRadar[LeftFront7.5ø]</text>
</g>
<!-- enemyRadar[LeftFront7.5ø]&#45;&gt; Move Left/Right -->
<g id="edge29" class="edge"><title>enemyRadar[LeftFront7.5ø]&#45;&gt; Move Left/Right</title>
<path fill="none" stroke="green" stroke-width="0.536604" d="M2313.75,-190.084C2216.18,-169.78 1959.62,-116.391 1839.39,-91.3707"/>
<polygon fill="green" stroke="green" stroke-width="0.536604" points="1840.09,-87.9401 1829.58,-89.3292 1838.66,-94.7933 1840.09,-87.9401"/>
</g>
<!-- enemyRadar[RightFront2.5ø] -->
<g id="node19" class="node"><title>enemyRadar[RightFront2.5ø]</title>
<polygon fill="lightgray" stroke="black" points="539.5,-208.149 417.5,-208.149 417.5,-190.149 539.5,-190.149 539.5,-208.149"/>
<text text-anchor="middle" x="478.5" y="-196.949" font-family="Times,serif" font-size="9.00">enemyRadar[RightFront2.5ø]</text>
</g>
<!-- enemyRadar[RightFront2.5ø]&#45;&gt;Move Forward/Backward -->
<g id="edge41" class="edge"><title>enemyRadar[RightFront2.5ø]&#45;&gt;Move Forward/Backward</title>
<path fill="none" stroke="green" stroke-width="0.125563" d="M539.579,-190.789C600.574,-183.071 696.882,-169.887 779.5,-154.149 861.187,-138.589 953.442,-116.391 1018.38,-99.9871"/>
<polygon fill="green" stroke="green" stroke-width="0.125563" points="1019.32,-103.358 1028.16,-97.5083 1017.6,-96.5727 1019.32,-103.358"/>
</g>
<!-- enemyRadar[RightFront2.5ø]&#45;&gt;Turn left/right -->
<g id="edge36" class="edge"><title>enemyRadar[RightFront2.5ø]&#45;&gt;Turn left/right</title>
<path fill="none" stroke="red" stroke-width="0.137164" d="M494.956,-190.084C530.73,-172.551 616.839,-130.349 672.549,-103.046"/>
<polygon fill="red" stroke="red" stroke-width="0.137164" points="674.118,-106.175 681.557,-98.6309 671.037,-99.889 674.118,-106.175"/>
</g>
<!-- enemyRadar[LeftFront2.5ø] -->
<g id="node20" class="node"><title>enemyRadar[LeftFront2.5ø]</title>
<polygon fill="lightgray" stroke="black" points="1160.5,-208.149 1044.5,-208.149 1044.5,-190.149 1160.5,-190.149 1160.5,-208.149"/>
<text text-anchor="middle" x="1102.5" y="-196.949" font-family="Times,serif" font-size="9.00">enemyRadar[LeftFront2.5ø]</text>
</g>
<!-- enemyRadar[LeftFront2.5ø]&#45;&gt;Move Forward/Backward -->
<g id="edge40" class="edge"><title>enemyRadar[LeftFront2.5ø]&#45;&gt;Move Forward/Backward</title>
<path fill="none" stroke="red" stroke-width="0.397406" d="M1102.5,-189.896C1102.5,-183.793 1102.5,-174.776 1102.5,-164.466"/>
<polygon fill="red" stroke="red" stroke-width="0.397406" points="1106,-164.237 1102.5,-154.237 1099,-164.237 1106,-164.237"/>
</g>
<!-- enemyRadar[LeftFront2.5ø]&#45;&gt; Move Left/Right -->
<g id="edge6" class="edge"><title>enemyRadar[LeftFront2.5ø]&#45;&gt; Move Left/Right</title>
<path fill="none" stroke="red" stroke-width="0.100967" d="M1160.59,-191.12C1163.61,-190.785 1166.59,-190.459 1169.5,-190.149 1340.39,-171.96 1386.5,-190.375 1554.5,-154.149 1610.3,-142.117 1671.51,-120.336 1715.33,-103.154"/>
<polygon fill="red" stroke="red" stroke-width="0.100967" points="1716.68,-106.386 1724.69,-99.4519 1714.1,-99.8766 1716.68,-106.386"/>
</g>
<!-- enemyRadar[LeftFront2.5ø]&#45;&gt;Turn left/right -->
<g id="edge49" class="edge"><title>enemyRadar[LeftFront2.5ø]&#45;&gt;Turn left/right</title>
<path fill="none" stroke="red" stroke-width="0.259025" d="M1077.04,-190.084C1016.04,-170.757 860.421,-121.454 777.472,-95.1739"/>
<polygon fill="red" stroke="red" stroke-width="0.259025" points="778.317,-91.7705 767.727,-92.0867 776.203,-98.4436 778.317,-91.7705"/>
</g>
<!-- enemyRadar[Front7Ø] -->
<g id="node21" class="node"><title>enemyRadar[Front7Ø]</title>
<polygon fill="lightgray" stroke="black" points="1824.5,-208.149 1726.5,-208.149 1726.5,-190.149 1824.5,-190.149 1824.5,-208.149"/>
<text text-anchor="middle" x="1775.5" y="-196.949" font-family="Times,serif" font-size="9.00">enemyRadar[Front7Ø]</text>
</g>
<!-- enemyRadar[Front7Ø]&#45;&gt;Shoot -->
<g id="edge51" class="edge"><title>enemyRadar[Front7Ø]&#45;&gt;Shoot</title>
<path fill="none" stroke="red" stroke-width="0.103574" d="M1758.24,-190.084C1716.09,-170.392 1607.33,-119.577 1551.96,-93.7072"/>
<polygon fill="red" stroke="red" stroke-width="0.103574" points="1553.13,-90.3912 1542.59,-89.3292 1550.17,-96.7332 1553.13,-90.3912"/>
</g>
<!-- enemyRadar[Front7Ø]&#45;&gt;Move Forward/Backward -->
<g id="edge11" class="edge"><title>enemyRadar[Front7Ø]&#45;&gt;Move Forward/Backward</title>
<path fill="none" stroke="green" stroke-width="0.187555" d="M1726.3,-191.057C1655.48,-180.797 1528.29,-162.166 1482.5,-154.149 1380.86,-136.355 1264.62,-112.578 1187.75,-96.373"/>
<polygon fill="green" stroke="green" stroke-width="0.187555" points="1188.15,-92.8796 1177.64,-94.2373 1186.7,-99.7285 1188.15,-92.8796"/>
</g>
<!-- enemyRadar[Front7Ø]&#45;&gt; Move Left/Right -->
<g id="edge22" class="edge"><title>enemyRadar[Front7Ø]&#45;&gt; Move Left/Right</title>
<path fill="none" stroke="green" stroke-width="0.390812" d="M1775.5,-189.896C1775.5,-179.701 1775.5,-161.375 1775.5,-142.47"/>
<polygon fill="green" stroke="green" stroke-width="0.390812" points="1779,-142.265 1775.5,-132.265 1772,-142.265 1779,-142.265"/>
</g>
<!-- enemyRadar[Front7Ø]&#45;&gt;Turn left/right -->
<g id="edge2" class="edge"><title>enemyRadar[Front7Ø]&#45;&gt;Turn left/right</title>
<path fill="none" stroke="green" stroke-width="0.317144" d="M1726.49,-191.088C1723.45,-190.744 1720.43,-190.427 1717.5,-190.149 1406.92,-160.809 1324.84,-201.593 1016.5,-154.149 931.552,-141.079 835.566,-113.662 777.311,-95.5624"/>
<polygon fill="green" stroke="green" stroke-width="0.317144" points="778.178,-92.1663 767.589,-92.5193 776.087,-98.8467 778.178,-92.1663"/>
</g>
<!-- OnTarget -->
<g id="node22" class="node"><title>OnTarget</title>
<polygon fill="lightgray" stroke="black" points="1228.5,-208.149 1178.5,-208.149 1178.5,-190.149 1228.5,-190.149 1228.5,-208.149"/>
<text text-anchor="middle" x="1203.5" y="-196.949" font-family="Times,serif" font-size="9.00">OnTarget</text>
</g>
<!-- OnTarget&#45;&gt;Shoot -->
<g id="edge35" class="edge"><title>OnTarget&#45;&gt;Shoot</title>
<path fill="none" stroke="red" stroke-width="0.287104" d="M1224.66,-190.084C1278.06,-169.728 1418.7,-116.119 1484.12,-91.1803"/>
<polygon fill="red" stroke="red" stroke-width="0.287104" points="1485.48,-94.4071 1493.58,-87.5747 1482.99,-87.8662 1485.48,-94.4071"/>
</g>
<!-- OnTarget&#45;&gt;Move Forward/Backward -->
<g id="edge25" class="edge"><title>OnTarget&#45;&gt;Move Forward/Backward</title>
<path fill="none" stroke="green" stroke-width="0.839969" d="M1196.56,-189.896C1188.29,-180.067 1173.67,-162.682 1158.38,-144.507"/>
<polygon fill="green" stroke="green" stroke-width="0.839969" points="1160.92,-142.088 1151.8,-136.688 1155.56,-146.594 1160.92,-142.088"/>
</g>
<!-- OnTarget&#45;&gt; Move Left/Right -->
<g id="edge20" class="edge"><title>OnTarget&#45;&gt; Move Left/Right</title>
<path fill="none" stroke="red" stroke-width="0.110781" d="M1228.68,-191.875C1231.64,-191.24 1234.63,-190.648 1237.5,-190.149 1377.2,-165.869 1416.19,-185.412 1554.5,-154.149 1610.18,-141.564 1671.4,-119.838 1715.26,-102.817"/>
<polygon fill="red" stroke="red" stroke-width="0.110781" points="1716.59,-106.056 1724.62,-99.1522 1714.04,-99.5375 1716.59,-106.056"/>
</g>
<!-- OnTarget&#45;&gt;Turn left/right -->
<g id="edge46" class="edge"><title>OnTarget&#45;&gt;Turn left/right</title>
<path fill="none" stroke="green" stroke-width="0.287587" d="M1178.21,-192.203C1127.6,-180.302 1018.49,-154.641 1016.5,-154.149 933.31,-133.565 837.218,-108.338 778.415,-92.7342"/>
<polygon fill="green" stroke="green" stroke-width="0.287587" points="779.156,-89.31 768.593,-90.1255 777.359,-96.0754 779.156,-89.31"/>
</g>
<!-- bias -->
<g id="node23" class="node"><title>bias</title>
<polygon fill="lightgray" stroke="black" points="702,-208.149 671,-208.149 671,-190.149 702,-190.149 702,-208.149"/>
<text text-anchor="middle" x="686.5" y="-196.949" font-family="Times,serif" font-size="9.00">bias</text>
</g>
<!-- bias&#45;&gt;Shoot -->
<g id="edge33" class="edge"><title>bias&#45;&gt;Shoot</title>
<path fill="none" stroke="green" stroke-width="0.451459" d="M702.1,-192.334C704.866,-191.481 707.744,-190.703 710.5,-190.149 919.364,-148.145 977.874,-186.17 1188.5,-154.149 1297.02,-137.651 1422.77,-104.755 1482.9,-88.1539"/>
<polygon fill="green" stroke="green" stroke-width="0.451459" points="1483.96,-91.4914 1492.66,-85.4427 1482.09,-84.7468 1483.96,-91.4914"/>
</g>
<!-- bias&#45;&gt;Move Forward/Backward -->
<g id="edge31" class="edge"><title>bias&#45;&gt;Move Forward/Backward</title>
<path fill="none" stroke="green" stroke-width="0.219854" d="M702.219,-192.802C704.972,-191.896 707.815,-190.98 710.5,-190.149 816.036,-157.49 938.592,-122.996 1018.19,-101.043"/>
<polygon fill="green" stroke="green" stroke-width="0.219854" points="1019.45,-104.327 1028.16,-98.2967 1017.59,-97.5779 1019.45,-104.327"/>
</g>
<!-- bias&#45;&gt;Turn left/right -->
<g id="edge47" class="edge"><title>bias&#45;&gt;Turn left/right</title>
<path fill="none" stroke="green" stroke-width="0.153071" d="M689.043,-189.896C692.784,-177.757 700.076,-154.093 706.992,-131.648"/>
<polygon fill="green" stroke="green" stroke-width="0.153071" points="710.425,-132.392 710.025,-121.805 703.735,-130.331 710.425,-132.392"/>
</g>
</g>
</svg>
