<?xml version="1.0" encoding="UTF-8" standalone="no"?>
<!DOCTYPE svg PUBLIC "-//W3C//DTD SVG 1.1//EN"
 "http://www.w3.org/Graphics/SVG/1.1/DTD/svg11.dtd">
<!-- Generated by graphviz version 2.38.0 (20140413.2041)
 -->
<!-- Title: %3 Pages: 1 -->
<svg width="2701pt" height="343pt"
 viewBox="0.00 0.00 2700.96 343.30" xmlns="http://www.w3.org/2000/svg" xmlns:xlink="http://www.w3.org/1999/xlink">
<g id="graph0" class="graph" transform="scale(1 1) rotate(0) translate(4 339.304)">
<title>%3</title>
<polygon fill="white" stroke="none" points="-4,4 -4,-339.304 2696.96,-339.304 2696.96,4 -4,4"/>
<!-- wallRadar[1,0] -->
<g id="node1" class="node"><title>wallRadar[1,0]</title>
<polygon fill="lightgray" stroke="black" points="2420.46,-335.304 2350.46,-335.304 2350.46,-317.304 2420.46,-317.304 2420.46,-335.304"/>
<text text-anchor="middle" x="2385.46" y="-324.104" font-family="Times,serif" font-size="9.00">wallRadar[1,0]</text>
</g>
<!-- Move Forward -->
<g id="node25" class="node"><title>Move Forward</title>
<ellipse fill="lightblue" stroke="black" cx="556.461" cy="-140.652" rx="50.41" ry="50.41"/>
<text text-anchor="middle" x="556.461" y="-138.452" font-family="Times,serif" font-size="9.00">Move Forward</text>
</g>
<!-- wallRadar[1,0]&#45;&gt;Move Forward -->
<g id="edge21" class="edge"><title>wallRadar[1,0]&#45;&gt;Move Forward</title>
<path fill="none" stroke="red" stroke-width="0.123118" d="M2350.46,-324.963C2105,-322.51 650.562,-306.907 613.461,-281.304 598.945,-271.286 583.923,-233.145 572.947,-199.251"/>
<polygon fill="red" stroke="red" stroke-width="0.123118" points="576.174,-197.846 569.82,-189.369 569.5,-199.959 576.174,-197.846"/>
</g>
<!-- Move Left -->
<g id="node27" class="node"><title>Move Left</title>
<ellipse fill="lightblue" stroke="black" cx="2309.46" cy="-140.652" rx="38.3684" ry="38.3684"/>
<text text-anchor="middle" x="2309.46" y="-138.452" font-family="Times,serif" font-size="9.00">Move Left</text>
</g>
<!-- wallRadar[1,0]&#45;&gt;Move Left -->
<g id="edge22" class="edge"><title>wallRadar[1,0]&#45;&gt;Move Left</title>
<path fill="none" stroke="red" stroke-width="0.286494" stroke-dasharray="1,5" d="M2384.12,-317.062C2381.27,-300.475 2373.8,-262.066 2361.46,-231.806 2354.5,-214.743 2344.84,-196.967 2335.72,-181.755"/>
<polygon fill="red" stroke="red" stroke-width="0.286494" points="2338.65,-179.827 2330.45,-173.118 2332.67,-183.477 2338.65,-179.827"/>
</g>
<!-- 968 -->
<g id="node30" class="node"><title>968</title>
<ellipse fill="white" stroke="black" cx="2538.46" cy="-256.555" rx="21.4286" ry="21.4286"/>
<text text-anchor="middle" x="2538.46" y="-254.355" font-family="Times,serif" font-size="9.00">968</text>
</g>
<!-- wallRadar[1,0]&#45;&gt;968 -->
<g id="edge48" class="edge"><title>wallRadar[1,0]&#45;&gt;968</title>
<path fill="none" stroke="green" stroke-width="0.378159" stroke-dasharray="1,5" d="M2416.48,-317.262C2442.09,-309.915 2478.91,-297.699 2508.46,-281.304 2510.49,-280.178 2512.52,-278.917 2514.52,-277.578"/>
<polygon fill="green" stroke="green" stroke-width="0.378159" points="2516.96,-280.134 2522.95,-271.397 2512.82,-274.489 2516.96,-280.134"/>
</g>
<!-- wallRadar[0,1] -->
<g id="node2" class="node"><title>wallRadar[0,1]</title>
<polygon fill="lightgray" stroke="black" points="2041.46,-265.555 1971.46,-265.555 1971.46,-247.555 2041.46,-247.555 2041.46,-265.555"/>
<text text-anchor="middle" x="2006.46" y="-254.355" font-family="Times,serif" font-size="9.00">wallRadar[0,1]</text>
</g>
<!-- Shoot -->
<g id="node24" class="node"><title>Shoot</title>
<ellipse fill="lightblue" stroke="black" cx="1072.46" cy="-140.652" rx="26.7407" ry="26.7407"/>
<text text-anchor="middle" x="1072.46" y="-138.452" font-family="Times,serif" font-size="9.00">Shoot</text>
</g>
<!-- wallRadar[0,1]&#45;&gt;Shoot -->
<g id="edge4" class="edge"><title>wallRadar[0,1]&#45;&gt;Shoot</title>
<path fill="none" stroke="green" stroke-width="0.825964" d="M1982.7,-247.443C1966.48,-242.211 1944.39,-235.682 1924.46,-231.806 1770.53,-201.873 1729.42,-212.233 1573.46,-195.806 1399.67,-177.502 1192.08,-154.793 1109.23,-145.696"/>
<polygon fill="green" stroke="green" stroke-width="0.825964" points="1109.39,-142.193 1099.07,-144.58 1108.63,-149.151 1109.39,-142.193"/>
</g>
<!--  Move Backward -->
<g id="node26" class="node"><title> Move Backward</title>
<ellipse fill="lightblue" stroke="black" cx="1637.46" cy="-140.652" rx="55.3091" ry="55.3091"/>
<text text-anchor="middle" x="1637.46" y="-138.452" font-family="Times,serif" font-size="9.00"> Move Backward</text>
</g>
<!-- wallRadar[0,1]&#45;&gt; Move Backward -->
<g id="edge33" class="edge"><title>wallRadar[0,1]&#45;&gt; Move Backward</title>
<path fill="none" stroke="green" stroke-width="0.385251" d="M1991.32,-247.355C1981.79,-242.412 1969.13,-236.237 1957.46,-231.806 1870.6,-198.816 1766.44,-171.666 1701.08,-156.057"/>
<polygon fill="green" stroke="green" stroke-width="0.385251" points="1701.87,-152.646 1691.33,-153.745 1700.26,-159.458 1701.87,-152.646"/>
</g>
<!-- wallRadar[0,1]&#45;&gt;Move Left -->
<g id="edge19" class="edge"><title>wallRadar[0,1]&#45;&gt;Move Left</title>
<path fill="none" stroke="red" stroke-width="0.140802" d="M2020.05,-247.488C2028.6,-242.595 2039.97,-236.426 2050.46,-231.806 2089.34,-214.68 2199.87,-177.622 2263.26,-156.743"/>
<polygon fill="red" stroke="red" stroke-width="0.140802" points="2264.61,-159.985 2273.02,-153.536 2262.42,-153.335 2264.61,-159.985"/>
</g>
<!-- 1621 -->
<g id="node34" class="node"><title>1621</title>
<ellipse fill="white" stroke="black" cx="2006.46" cy="-140.652" rx="25" ry="25"/>
<text text-anchor="middle" x="2006.46" y="-138.452" font-family="Times,serif" font-size="9.00">1621</text>
</g>
<!-- wallRadar[0,1]&#45;&gt;1621 -->
<g id="edge55" class="edge"><title>wallRadar[0,1]&#45;&gt;1621</title>
<path fill="none" stroke="green" stroke-width="0.982395" d="M2006.46,-247.363C2006.46,-232.634 2006.46,-200.896 2006.46,-176.019"/>
<polygon fill="green" stroke="green" stroke-width="0.982395" points="2009.96,-175.847 2006.46,-165.847 2002.96,-175.847 2009.96,-175.847"/>
</g>
<!-- wallRadar[&#45;1,0] -->
<g id="node3" class="node"><title>wallRadar[&#45;1,0]</title>
<polygon fill="lightgray" stroke="black" points="478.961,-335.304 405.961,-335.304 405.961,-317.304 478.961,-317.304 478.961,-335.304"/>
<text text-anchor="middle" x="442.461" y="-324.104" font-family="Times,serif" font-size="9.00">wallRadar[&#45;1,0]</text>
</g>
<!-- wallRadar[&#45;1,0]&#45;&gt;Shoot -->
<g id="edge25" class="edge"><title>wallRadar[&#45;1,0]&#45;&gt;Shoot</title>
<path fill="none" stroke="green" stroke-width="0.410238" stroke-dasharray="1,5" d="M453.275,-317.076C477.939,-298.737 540.835,-254.354 600.461,-231.806 755.422,-173.207 953.992,-151.271 1035.27,-144.379"/>
<polygon fill="green" stroke="green" stroke-width="0.410238" points="1035.81,-147.847 1045.49,-143.54 1035.24,-140.87 1035.81,-147.847"/>
</g>
<!-- wallRadar[&#45;1,0]&#45;&gt;Move Forward -->
<g id="edge39" class="edge"><title>wallRadar[&#45;1,0]&#45;&gt;Move Forward</title>
<path fill="none" stroke="red" stroke-width="0.619886" stroke-dasharray="1,5" d="M443.093,-317.265C444.715,-300.395 450.117,-260.491 466.461,-231.806 477.47,-212.485 493.714,-194.434 509.384,-179.636"/>
<polygon fill="red" stroke="red" stroke-width="0.619886" points="512.004,-181.982 517.004,-172.641 507.27,-176.825 512.004,-181.982"/>
</g>
<!-- wallRadar[&#45;1,0]&#45;&gt;Move Left -->
<g id="edge37" class="edge"><title>wallRadar[&#45;1,0]&#45;&gt;Move Left</title>
<path fill="none" stroke="green" stroke-width="0.25153" stroke-dasharray="1,5" d="M479.256,-323.456C516.203,-321.658 574.765,-318.96 625.461,-317.304 671.697,-315.793 2255.95,-312.105 2290.46,-281.304 2315.72,-258.763 2319.23,-219.794 2317.11,-188.739"/>
<polygon fill="green" stroke="green" stroke-width="0.25153" points="2320.58,-188.196 2316.21,-178.546 2313.61,-188.818 2320.58,-188.196"/>
</g>
<!-- 857 -->
<g id="node36" class="node"><title>857</title>
<ellipse fill="white" stroke="black" cx="221.461" cy="-256.555" rx="21.4286" ry="21.4286"/>
<text text-anchor="middle" x="221.461" y="-254.355" font-family="Times,serif" font-size="9.00">857</text>
</g>
<!-- wallRadar[&#45;1,0]&#45;&gt;857 -->
<g id="edge46" class="edge"><title>wallRadar[&#45;1,0]&#45;&gt;857</title>
<path fill="none" stroke="red" stroke-width="0.187003" stroke-dasharray="1,5" d="M405.676,-321.706C366,-316.736 301.76,-305.478 251.461,-281.304 249.369,-280.298 247.29,-279.125 245.258,-277.848"/>
<polygon fill="red" stroke="red" stroke-width="0.187003" points="246.94,-274.749 236.767,-271.79 242.874,-280.447 246.94,-274.749"/>
</g>
<!-- wallRadar[0,&#45;1] -->
<g id="node4" class="node"><title>wallRadar[0,&#45;1]</title>
<polygon fill="lightgray" stroke="black" points="2692.96,-335.304 2619.96,-335.304 2619.96,-317.304 2692.96,-317.304 2692.96,-335.304"/>
<text text-anchor="middle" x="2656.46" y="-324.104" font-family="Times,serif" font-size="9.00">wallRadar[0,&#45;1]</text>
</g>
<!-- wallRadar[0.7,0.7] -->
<g id="node5" class="node"><title>wallRadar[0.7,0.7]</title>
<polygon fill="lightgray" stroke="black" points="994.961,-265.555 911.961,-265.555 911.961,-247.555 994.961,-247.555 994.961,-265.555"/>
<text text-anchor="middle" x="953.461" y="-254.355" font-family="Times,serif" font-size="9.00">wallRadar[0.7,0.7]</text>
</g>
<!-- wallRadar[0.7,0.7]&#45;&gt;Shoot -->
<g id="edge13" class="edge"><title>wallRadar[0.7,0.7]&#45;&gt;Shoot</title>
<path fill="none" stroke="green" stroke-width="0.51986" stroke-dasharray="1,5" d="M962.019,-247.363C979.287,-230.835 1018.93,-192.89 1045.71,-167.255"/>
<polygon fill="green" stroke="green" stroke-width="0.51986" points="1048.43,-169.498 1053.23,-160.055 1043.59,-164.441 1048.43,-169.498"/>
</g>
<!-- wallRadar[0.7,0.7]&#45;&gt;Move Forward -->
<g id="edge45" class="edge"><title>wallRadar[0.7,0.7]&#45;&gt;Move Forward</title>
<path fill="none" stroke="green" stroke-width="0.287849" d="M938.463,-247.514C928.695,-242.508 915.563,-236.207 903.461,-231.806 804.778,-195.917 685.465,-168.178 615.567,-153.433"/>
<polygon fill="green" stroke="green" stroke-width="0.287849" points="616.126,-149.974 605.621,-151.352 614.693,-156.825 616.126,-149.974"/>
</g>
<!-- wallRadar[0.7,0.7]&#45;&gt; Move Backward -->
<g id="edge12" class="edge"><title>wallRadar[0.7,0.7]&#45;&gt; Move Backward</title>
<path fill="none" stroke="green" stroke-width="0.129163" stroke-dasharray="1,5" d="M967.443,-247.505C977.225,-242.231 990.762,-235.628 1003.46,-231.806 1204.98,-171.158 1455.11,-150.908 1571.79,-144.472"/>
<polygon fill="green" stroke="green" stroke-width="0.129163" points="1572.19,-147.956 1581.98,-143.926 1571.81,-140.966 1572.19,-147.956"/>
</g>
<!-- wallRadar[&#45;0.7,0.7] -->
<g id="node6" class="node"><title>wallRadar[&#45;0.7,0.7]</title>
<polygon fill="lightgray" stroke="black" points="826.461,-265.555 740.461,-265.555 740.461,-247.555 826.461,-247.555 826.461,-265.555"/>
<text text-anchor="middle" x="783.461" y="-254.355" font-family="Times,serif" font-size="9.00">wallRadar[&#45;0.7,0.7]</text>
</g>
<!-- wallRadar[&#45;0.7,0.7]&#45;&gt;Shoot -->
<g id="edge18" class="edge"><title>wallRadar[&#45;0.7,0.7]&#45;&gt;Shoot</title>
<path fill="none" stroke="red" stroke-width="0.270462" d="M800.67,-247.355C810.74,-242.643 823.74,-236.706 835.461,-231.806 906.6,-202.068 991.334,-170.821 1037.76,-154.05"/>
<polygon fill="red" stroke="red" stroke-width="0.270462" points="1039.12,-157.281 1047.34,-150.599 1036.75,-150.696 1039.12,-157.281"/>
</g>
<!-- wallRadar[&#45;0.7,&#45;0.7] -->
<g id="node7" class="node"><title>wallRadar[&#45;0.7,&#45;0.7]</title>
<polygon fill="lightgray" stroke="black" points="1572.96,-335.304 1483.96,-335.304 1483.96,-317.304 1572.96,-317.304 1572.96,-335.304"/>
<text text-anchor="middle" x="1528.46" y="-324.104" font-family="Times,serif" font-size="9.00">wallRadar[&#45;0.7,&#45;0.7]</text>
</g>
<!-- wallRadar[&#45;0.7,&#45;0.7]&#45;&gt;Shoot -->
<g id="edge44" class="edge"><title>wallRadar[&#45;0.7,&#45;0.7]&#45;&gt;Shoot</title>
<path fill="none" stroke="red" stroke-width="0.335338" stroke-dasharray="1,5" d="M1483.68,-318.58C1480.56,-318.139 1477.47,-317.71 1474.46,-317.304 1409.01,-308.464 1236.8,-314.074 1179.46,-281.304 1179.27,-281.196 1125.85,-211.408 1094.57,-170.541"/>
<polygon fill="red" stroke="red" stroke-width="0.335338" points="1097.3,-168.353 1088.44,-162.539 1091.74,-172.607 1097.3,-168.353"/>
</g>
<!-- wallRadar[&#45;0.7,&#45;0.7]&#45;&gt; Move Backward -->
<g id="edge26" class="edge"><title>wallRadar[&#45;0.7,&#45;0.7]&#45;&gt; Move Backward</title>
<path fill="none" stroke="red" stroke-width="1.8486" d="M1572.97,-323.639C1671.53,-319.496 1901.34,-307.139 1924.46,-281.304 1993.84,-203.784 1807.09,-164.855 1702.58,-149.608"/>
<polygon fill="red" stroke="red" stroke-width="1.8486" points="1702.82,-146.107 1692.42,-148.163 1701.83,-153.037 1702.82,-146.107"/>
</g>
<!-- wallRadar[&#45;0.7,&#45;0.7]&#45;&gt;Move Left -->
<g id="edge2" class="edge"><title>wallRadar[&#45;0.7,&#45;0.7]&#45;&gt;Move Left</title>
<path fill="none" stroke="green" stroke-width="1.39346" stroke-dasharray="1,5" d="M1572.97,-324.513C1736.71,-321.392 2297.51,-308.728 2323.46,-281.304 2347.26,-256.149 2340.32,-215.884 2329.44,-185.038"/>
<polygon fill="green" stroke="green" stroke-width="1.39346" points="2332.6,-183.508 2325.8,-175.385 2326.05,-185.977 2332.6,-183.508"/>
</g>
<!-- 2315 -->
<g id="node31" class="node"><title>2315</title>
<ellipse fill="white" stroke="black" cx="1213.46" cy="-256.555" rx="25" ry="25"/>
<text text-anchor="middle" x="1213.46" y="-254.355" font-family="Times,serif" font-size="9.00">2315</text>
</g>
<!-- wallRadar[&#45;0.7,&#45;0.7]&#45;&gt;2315 -->
<g id="edge63" class="edge"><title>wallRadar[&#45;0.7,&#45;0.7]&#45;&gt;2315</title>
<path fill="none" stroke="green" stroke-width="0.215741" d="M1483.9,-318.622C1405.81,-306.875 1251.93,-283.546 1246.46,-281.304 1244.6,-280.54 1242.74,-279.652 1240.92,-278.677"/>
<polygon fill="green" stroke="green" stroke-width="0.215741" points="1242.45,-275.513 1232.1,-273.247 1238.78,-281.472 1242.45,-275.513"/>
</g>
<!-- 1009 -->
<g id="node33" class="node"><title>1009</title>
<ellipse fill="white" stroke="black" cx="1280.46" cy="-256.555" rx="25" ry="25"/>
<text text-anchor="middle" x="1280.46" y="-254.355" font-family="Times,serif" font-size="9.00">1009</text>
</g>
<!-- wallRadar[&#45;0.7,&#45;0.7]&#45;&gt;1009 -->
<g id="edge50" class="edge"><title>wallRadar[&#45;0.7,&#45;0.7]&#45;&gt;1009</title>
<path fill="none" stroke="red" stroke-width="0.960605" d="M1483.67,-318.288C1430.23,-309.535 1344.34,-294.156 1314.46,-281.304 1312.37,-280.402 1310.27,-279.36 1308.2,-278.225"/>
<polygon fill="red" stroke="red" stroke-width="0.960605" points="1309.78,-275.088 1299.43,-272.814 1306.1,-281.045 1309.78,-275.088"/>
</g>
<!-- wallRadar[0.7,&#45;0.7] -->
<g id="node8" class="node"><title>wallRadar[0.7,&#45;0.7]</title>
<polygon fill="lightgray" stroke="black" points="2499.46,-265.555 2413.46,-265.555 2413.46,-247.555 2499.46,-247.555 2499.46,-265.555"/>
<text text-anchor="middle" x="2456.46" y="-254.355" font-family="Times,serif" font-size="9.00">wallRadar[0.7,&#45;0.7]</text>
</g>
<!-- wallRadar[0.7,&#45;0.7]&#45;&gt;Move Left -->
<g id="edge23" class="edge"><title>wallRadar[0.7,&#45;0.7]&#45;&gt;Move Left</title>
<path fill="none" stroke="red" stroke-width="0.193796" stroke-dasharray="1,5" d="M2445.89,-247.363C2425.56,-231.61 2380.12,-196.4 2347.26,-170.937"/>
<polygon fill="red" stroke="red" stroke-width="0.193796" points="2349.24,-168.049 2339.19,-164.691 2344.96,-173.583 2349.24,-168.049"/>
</g>
<!-- enemyRadar[RightBack] -->
<g id="node9" class="node"><title>enemyRadar[RightBack]</title>
<polygon fill="lightgray" stroke="black" points="2163.46,-265.555 2059.46,-265.555 2059.46,-247.555 2163.46,-247.555 2163.46,-265.555"/>
<text text-anchor="middle" x="2111.46" y="-254.355" font-family="Times,serif" font-size="9.00">enemyRadar[RightBack]</text>
</g>
<!-- enemyRadar[RightBack]&#45;&gt;Shoot -->
<g id="edge9" class="edge"><title>enemyRadar[RightBack]&#45;&gt;Shoot</title>
<path fill="none" stroke="red" stroke-width="0.758279" d="M2094.79,-247.516C2082.77,-242.102 2065.98,-235.329 2050.46,-231.806 1843.14,-184.726 1785.17,-215.233 1573.46,-195.806 1399.44,-179.839 1191.98,-155.82 1109.2,-146.035"/>
<polygon fill="red" stroke="red" stroke-width="0.758279" points="1109.39,-142.533 1099.04,-144.832 1108.56,-149.484 1109.39,-142.533"/>
</g>
<!-- enemyRadar[RightBack]&#45;&gt;Move Left -->
<g id="edge41" class="edge"><title>enemyRadar[RightBack]&#45;&gt;Move Left</title>
<path fill="none" stroke="green" stroke-width="0.439413" d="M2125.38,-247.545C2154.54,-230.775 2222.99,-191.394 2267.71,-165.67"/>
<polygon fill="green" stroke="green" stroke-width="0.439413" points="2269.67,-168.58 2276.59,-160.559 2266.18,-162.512 2269.67,-168.58"/>
</g>
<!-- 1157 -->
<g id="node28" class="node"><title>1157</title>
<ellipse fill="white" stroke="black" cx="2111.46" cy="-140.652" rx="25" ry="25"/>
<text text-anchor="middle" x="2111.46" y="-138.452" font-family="Times,serif" font-size="9.00">1157</text>
</g>
<!-- enemyRadar[RightBack]&#45;&gt;1157 -->
<g id="edge52" class="edge"><title>enemyRadar[RightBack]&#45;&gt;1157</title>
<path fill="none" stroke="green" stroke-width="0.641886" d="M2111.46,-247.363C2111.46,-232.634 2111.46,-200.896 2111.46,-176.019"/>
<polygon fill="green" stroke="green" stroke-width="0.641886" points="2114.96,-175.847 2111.46,-165.847 2107.96,-175.847 2114.96,-175.847"/>
</g>
<!-- enemyRadar[LeftBack] -->
<g id="node10" class="node"><title>enemyRadar[LeftBack]</title>
<polygon fill="lightgray" stroke="black" points="721.961,-265.555 622.961,-265.555 622.961,-247.555 721.961,-247.555 721.961,-265.555"/>
<text text-anchor="middle" x="672.461" y="-254.355" font-family="Times,serif" font-size="9.00">enemyRadar[LeftBack]</text>
</g>
<!-- enemyRadar[LeftBack]&#45;&gt;Shoot -->
<g id="edge3" class="edge"><title>enemyRadar[LeftBack]&#45;&gt;Shoot</title>
<path fill="none" stroke="green" stroke-width="0.626297" d="M690.842,-247.47C702.374,-242.569 717.628,-236.399 731.461,-231.806 840.737,-195.524 973.453,-163.903 1036.22,-149.67"/>
<polygon fill="green" stroke="green" stroke-width="0.626297" points="1037.05,-153.07 1046.04,-147.456 1035.51,-146.241 1037.05,-153.07"/>
</g>
<!-- enemyRadar[LeftBack]&#45;&gt;Move Forward -->
<g id="edge35" class="edge"><title>enemyRadar[LeftBack]&#45;&gt;Move Forward</title>
<path fill="none" stroke="red" stroke-width="0.449623" stroke-dasharray="1,5" d="M664.118,-247.363C650.607,-234.096 623.041,-207.028 599.186,-183.605"/>
<polygon fill="red" stroke="red" stroke-width="0.449623" points="601.51,-180.981 591.922,-176.472 596.605,-185.976 601.51,-180.981"/>
</g>
<!-- enemyRadar[LeftBack]&#45;&gt; Move Backward -->
<g id="edge28" class="edge"><title>enemyRadar[LeftBack]&#45;&gt; Move Backward</title>
<path fill="none" stroke="green" stroke-width="0.261774" d="M688.818,-247.463C700.429,-242.098 716.541,-235.406 731.461,-231.806 902.825,-190.454 951.028,-213.096 1126.46,-195.806 1287.02,-179.982 1475.75,-159.489 1572.72,-148.821"/>
<polygon fill="green" stroke="green" stroke-width="0.261774" points="1573.11,-152.3 1582.66,-147.726 1572.34,-145.342 1573.11,-152.3"/>
</g>
<!-- enemyRadar[Right45ø] -->
<g id="node11" class="node"><title>enemyRadar[Right45ø]</title>
<polygon fill="lightgray" stroke="black" points="2281.46,-265.555 2181.46,-265.555 2181.46,-247.555 2281.46,-247.555 2281.46,-265.555"/>
<text text-anchor="middle" x="2231.46" y="-254.355" font-family="Times,serif" font-size="9.00">enemyRadar[Right45ø]</text>
</g>
<!-- enemyRadar[Right45ø]&#45;&gt; Move Backward -->
<g id="edge1" class="edge"><title>enemyRadar[Right45ø]&#45;&gt; Move Backward</title>
<path fill="none" stroke="red" stroke-width="0.426139" d="M2214.25,-247.478C2202.66,-242.329 2186.91,-235.881 2172.46,-231.806 2149.91,-225.447 1839.08,-174.488 1701.82,-152.118"/>
<polygon fill="red" stroke="red" stroke-width="0.426139" points="1702.29,-148.647 1691.85,-150.493 1701.16,-155.556 1702.29,-148.647"/>
</g>
<!-- enemyRadar[Right45ø]&#45;&gt;Move Left -->
<g id="edge8" class="edge"><title>enemyRadar[Right45ø]&#45;&gt;Move Left</title>
<path fill="none" stroke="green" stroke-width="0.573447" d="M2237.07,-247.363C2246.51,-233.583 2266.14,-204.915 2282.58,-180.906"/>
<polygon fill="green" stroke="green" stroke-width="0.573447" points="2285.48,-182.868 2288.24,-172.64 2279.7,-178.913 2285.48,-182.868"/>
</g>
<!-- enemyRadar[Left45ø] -->
<g id="node12" class="node"><title>enemyRadar[Left45ø]</title>
<polygon fill="lightgray" stroke="black" points="181.961,-265.555 86.9609,-265.555 86.9609,-247.555 181.961,-247.555 181.961,-265.555"/>
<text text-anchor="middle" x="134.461" y="-254.355" font-family="Times,serif" font-size="9.00">enemyRadar[Left45ø]</text>
</g>
<!-- enemyRadar[Left45ø]&#45;&gt;Move Forward -->
<g id="edge27" class="edge"><title>enemyRadar[Left45ø]&#45;&gt;Move Forward</title>
<path fill="none" stroke="red" stroke-width="0.202257" d="M151.914,-247.468C163.064,-242.506 177.92,-236.27 191.461,-231.806 297.439,-196.867 424.649,-168.387 497.471,-153.321"/>
<polygon fill="red" stroke="red" stroke-width="0.202257" points="498.287,-156.727 507.378,-151.285 496.878,-149.87 498.287,-156.727"/>
</g>
<!-- enemyRadar[RightFront20ø] -->
<g id="node13" class="node"><title>enemyRadar[RightFront20ø]</title>
<polygon fill="lightgray" stroke="black" points="1131.96,-265.555 1012.96,-265.555 1012.96,-247.555 1131.96,-247.555 1131.96,-265.555"/>
<text text-anchor="middle" x="1072.46" y="-254.355" font-family="Times,serif" font-size="9.00">enemyRadar[RightFront20ø]</text>
</g>
<!-- enemyRadar[RightFront20ø]&#45;&gt;Shoot -->
<g id="edge16" class="edge"><title>enemyRadar[RightFront20ø]&#45;&gt;Shoot</title>
<path fill="none" stroke="red" stroke-width="0.569834" stroke-dasharray="1,5" d="M1072.46,-247.363C1072.46,-232.991 1072.46,-202.425 1072.46,-177.84"/>
<polygon fill="red" stroke="red" stroke-width="0.569834" points="1075.96,-177.734 1072.46,-167.734 1068.96,-177.734 1075.96,-177.734"/>
</g>
<!-- enemyRadar[LeftFront20ø] -->
<g id="node14" class="node"><title>enemyRadar[LeftFront20ø]</title>
<polygon fill="lightgray" stroke="black" points="244.461,-335.304 130.461,-335.304 130.461,-317.304 244.461,-317.304 244.461,-335.304"/>
<text text-anchor="middle" x="187.461" y="-324.104" font-family="Times,serif" font-size="9.00">enemyRadar[LeftFront20ø]</text>
</g>
<!-- enemyRadar[LeftFront20ø]&#45;&gt;Shoot -->
<g id="edge38" class="edge"><title>enemyRadar[LeftFront20ø]&#45;&gt;Shoot</title>
<path fill="none" stroke="red" stroke-width="0.940878" stroke-dasharray="1,5" d="M234.479,-317.264C274.987,-309.769 334.765,-297.343 385.461,-281.304 440.074,-264.025 449.344,-247.404 504.461,-231.806 700.146,-176.426 944.013,-152.1 1035.51,-144.47"/>
<polygon fill="red" stroke="red" stroke-width="0.940878" points="1035.97,-147.944 1045.65,-143.641 1035.4,-140.967 1035.97,-147.944"/>
</g>
<!-- enemyRadar[LeftFront20ø]&#45;&gt;Move Forward -->
<g id="edge7" class="edge"><title>enemyRadar[LeftFront20ø]&#45;&gt;Move Forward</title>
<path fill="none" stroke="green" stroke-width="0.803867" stroke-dasharray="1,5" d="M130.444,-318.74C84.5118,-312.14 25.2346,-300.2 10.4609,-281.304 -3.08898,-263.973 -3.77125,-248.581 10.4609,-231.806 72.1882,-159.051 366.804,-144.922 495.771,-142.244"/>
<polygon fill="green" stroke="green" stroke-width="0.803867" points="495.946,-145.741 505.877,-142.05 495.812,-138.742 495.946,-145.741"/>
</g>
<!-- enemyRadar[LeftFront20ø]&#45;&gt; Move Backward -->
<g id="edge58" class="edge"><title>enemyRadar[LeftFront20ø]&#45;&gt; Move Backward</title>
<path fill="none" stroke="red" stroke-width="0.200337" d="M244.672,-322.985C286.673,-321.314 345.11,-319.055 396.461,-317.304 463.285,-315.025 1546.95,-322.695 1599.46,-281.304 1622.13,-263.433 1632.11,-233.475 1636.22,-205.878"/>
<polygon fill="red" stroke="red" stroke-width="0.200337" points="1639.7,-206.203 1637.48,-195.845 1632.76,-205.33 1639.7,-206.203"/>
</g>
<!-- 2238 -->
<g id="node37" class="node"><title>2238</title>
<ellipse fill="white" stroke="black" cx="44.4609" cy="-256.555" rx="25" ry="25"/>
<text text-anchor="middle" x="44.4609" y="-254.355" font-family="Times,serif" font-size="9.00">2238</text>
</g>
<!-- enemyRadar[LeftFront20ø]&#45;&gt;2238 -->
<g id="edge61" class="edge"><title>enemyRadar[LeftFront20ø]&#45;&gt;2238</title>
<path fill="none" stroke="green" stroke-width="0.578377" d="M162.211,-317.175C139.393,-309.375 105.226,-296.549 77.4609,-281.304 75.6976,-280.335 73.9179,-279.288 72.1473,-278.192"/>
<polygon fill="green" stroke="green" stroke-width="0.578377" points="73.7541,-275.058 63.4883,-272.438 69.8796,-280.888 73.7541,-275.058"/>
</g>
<!-- enemyRadar[RightFront15ø] -->
<g id="node15" class="node"><title>enemyRadar[RightFront15ø]</title>
<polygon fill="lightgray" stroke="black" points="2601.96,-335.304 2482.96,-335.304 2482.96,-317.304 2601.96,-317.304 2601.96,-335.304"/>
<text text-anchor="middle" x="2542.46" y="-324.104" font-family="Times,serif" font-size="9.00">enemyRadar[RightFront15ø]</text>
</g>
<!-- enemyRadar[RightFront15ø]&#45;&gt;Move Left -->
<g id="edge43" class="edge"><title>enemyRadar[RightFront15ø]&#45;&gt;Move Left</title>
<path fill="none" stroke="green" stroke-width="0.698778" d="M2548.84,-317.268C2561.66,-300.058 2587.79,-258.997 2568.46,-231.806 2520.61,-164.489 2418.69,-147.006 2357.95,-142.731"/>
<polygon fill="green" stroke="green" stroke-width="0.698778" points="2358.03,-139.229 2347.84,-142.114 2357.6,-146.216 2358.03,-139.229"/>
</g>
<!-- enemyRadar[RightFront15ø]&#45;&gt;1009 -->
<g id="edge56" class="edge"><title>enemyRadar[RightFront15ø]&#45;&gt;1009</title>
<path fill="none" stroke="green" stroke-width="0.285043" d="M2482.67,-320.64C2465.5,-319.418 2446.75,-318.194 2429.46,-317.304 2305.67,-310.926 1432.08,-320.412 1314.46,-281.304 1312.24,-280.565 1310.04,-279.632 1307.88,-278.564"/>
<polygon fill="green" stroke="green" stroke-width="0.285043" points="1309.22,-275.289 1298.82,-273.218 1305.66,-281.317 1309.22,-275.289"/>
</g>
<!-- enemyRadar[LeftFront15ø] -->
<g id="node16" class="node"><title>enemyRadar[LeftFront15ø]</title>
<polygon fill="lightgray" stroke="black" points="1915.46,-265.555 1801.46,-265.555 1801.46,-247.555 1915.46,-247.555 1915.46,-265.555"/>
<text text-anchor="middle" x="1858.46" y="-254.355" font-family="Times,serif" font-size="9.00">enemyRadar[LeftFront15ø]</text>
</g>
<!-- enemyRadar[LeftFront15ø]&#45;&gt;Move Forward -->
<g id="edge34" class="edge"><title>enemyRadar[LeftFront15ø]&#45;&gt;Move Forward</title>
<path fill="none" stroke="green" stroke-width="0.451473" stroke-dasharray="1,5" d="M1840.67,-247.513C1827.61,-242.022 1809.3,-235.158 1792.46,-231.806 1462.55,-166.134 1371.77,-222.676 1036.46,-195.806 884.734,-183.647 706.867,-161.507 616.199,-149.651"/>
<polygon fill="green" stroke="green" stroke-width="0.451473" points="616.481,-146.159 606.111,-148.328 615.57,-153.099 616.481,-146.159"/>
</g>
<!-- enemyRadar[LeftFront15ø]&#45;&gt;Move Left -->
<g id="edge24" class="edge"><title>enemyRadar[LeftFront15ø]&#45;&gt;Move Left</title>
<path fill="none" stroke="red" stroke-width="0.246945" d="M1892.6,-247.486C1912.87,-242.763 1939.09,-236.772 1962.46,-231.806 2043.54,-214.577 2065.28,-216.843 2145.46,-195.806 2186.07,-185.152 2231.32,-169.952 2263.98,-158.366"/>
<polygon fill="red" stroke="red" stroke-width="0.246945" points="2265.45,-161.556 2273.69,-154.896 2263.1,-154.964 2265.45,-161.556"/>
</g>
<!-- enemyRadar[RightFront7.5ø] -->
<g id="node17" class="node"><title>enemyRadar[RightFront7.5ø]</title>
<polygon fill="lightgray" stroke="black" points="756.461,-335.304 634.461,-335.304 634.461,-317.304 756.461,-317.304 756.461,-335.304"/>
<text text-anchor="middle" x="695.461" y="-324.104" font-family="Times,serif" font-size="9.00">enemyRadar[RightFront7.5ø]</text>
</g>
<!-- enemyRadar[RightFront7.5ø]&#45;&gt;Shoot -->
<g id="edge6" class="edge"><title>enemyRadar[RightFront7.5ø]&#45;&gt;Shoot</title>
<path fill="none" stroke="green" stroke-width="0.435393" d="M664.089,-317.216C645.869,-310.731 624.41,-299.604 613.461,-281.304 602.166,-262.425 599.485,-248.795 613.461,-231.806 667.037,-166.683 935.773,-147.889 1035.31,-143.115"/>
<polygon fill="green" stroke="green" stroke-width="0.435393" points="1035.66,-146.602 1045.49,-142.647 1035.34,-139.609 1035.66,-146.602"/>
</g>
<!-- 2037 -->
<g id="node35" class="node"><title>2037</title>
<ellipse fill="white" stroke="black" cx="869.461" cy="-256.555" rx="25" ry="25"/>
<text text-anchor="middle" x="869.461" y="-254.355" font-family="Times,serif" font-size="9.00">2037</text>
</g>
<!-- enemyRadar[RightFront7.5ø]&#45;&gt;2037 -->
<g id="edge59" class="edge"><title>enemyRadar[RightFront7.5ø]&#45;&gt;2037</title>
<path fill="none" stroke="red" stroke-width="0.695509" d="M731.416,-317.23C760.4,-309.97 801.74,-297.89 835.461,-281.304 837.508,-280.297 839.57,-279.175 841.61,-277.983"/>
<polygon fill="red" stroke="red" stroke-width="0.695509" points="843.762,-280.762 850.316,-272.438 840.001,-274.858 843.762,-280.762"/>
</g>
<!-- enemyRadar[LeftFront7.5ø] -->
<g id="node18" class="node"><title>enemyRadar[LeftFront7.5ø]</title>
<polygon fill="lightgray" stroke="black" points="376.461,-265.555 260.461,-265.555 260.461,-247.555 376.461,-247.555 376.461,-265.555"/>
<text text-anchor="middle" x="318.461" y="-254.355" font-family="Times,serif" font-size="9.00">enemyRadar[LeftFront7.5ø]</text>
</g>
<!-- enemyRadar[LeftFront7.5ø]&#45;&gt;Move Forward -->
<g id="edge32" class="edge"><title>enemyRadar[LeftFront7.5ø]&#45;&gt;Move Forward</title>
<path fill="none" stroke="green" stroke-width="0.783641" stroke-dasharray="1,5" d="M335.197,-247.545C369.404,-231.174 448.633,-193.256 502.388,-167.53"/>
<polygon fill="green" stroke="green" stroke-width="0.783641" points="503.939,-170.668 511.448,-163.194 500.917,-164.354 503.939,-170.668"/>
</g>
<!-- enemyRadar[RightFront2.5ø] -->
<g id="node19" class="node"><title>enemyRadar[RightFront2.5ø]</title>
<polygon fill="lightgray" stroke="black" points="1522.46,-265.555 1400.46,-265.555 1400.46,-247.555 1522.46,-247.555 1522.46,-265.555"/>
<text text-anchor="middle" x="1461.46" y="-254.355" font-family="Times,serif" font-size="9.00">enemyRadar[RightFront2.5ø]</text>
</g>
<!-- enemyRadar[RightFront2.5ø]&#45;&gt;Shoot -->
<g id="edge30" class="edge"><title>enemyRadar[RightFront2.5ø]&#45;&gt;Shoot</title>
<path fill="none" stroke="red" stroke-width="0.413212" d="M1438.54,-247.446C1424.92,-242.71 1407.27,-236.718 1391.46,-231.806 1289.32,-200.071 1167.37,-166.901 1108.19,-151.103"/>
<polygon fill="red" stroke="red" stroke-width="0.413212" points="1108.79,-147.642 1098.23,-148.45 1106.99,-154.406 1108.79,-147.642"/>
</g>
<!-- enemyRadar[RightFront2.5ø]&#45;&gt; Move Backward -->
<g id="edge20" class="edge"><title>enemyRadar[RightFront2.5ø]&#45;&gt; Move Backward</title>
<path fill="none" stroke="red" stroke-width="0.150771" d="M1473.84,-247.545C1496.17,-233.093 1544.45,-201.847 1582.81,-177.022"/>
<polygon fill="red" stroke="red" stroke-width="0.150771" points="1584.83,-179.881 1591.33,-171.509 1581.03,-174.004 1584.83,-179.881"/>
</g>
<!-- enemyRadar[LeftFront2.5ø] -->
<g id="node20" class="node"><title>enemyRadar[LeftFront2.5ø]</title>
<polygon fill="lightgray" stroke="black" points="1465.46,-335.304 1349.46,-335.304 1349.46,-317.304 1465.46,-317.304 1465.46,-335.304"/>
<text text-anchor="middle" x="1407.46" y="-324.104" font-family="Times,serif" font-size="9.00">enemyRadar[LeftFront2.5ø]</text>
</g>
<!-- enemyRadar[LeftFront2.5ø]&#45;&gt;Move Forward -->
<g id="edge36" class="edge"><title>enemyRadar[LeftFront2.5ø]&#45;&gt;Move Forward</title>
<path fill="none" stroke="red" stroke-width="0.398612" stroke-dasharray="1,5" d="M1349.34,-324.183C1165.84,-320.389 609.151,-306.818 580.461,-281.304 558.277,-261.575 551.675,-229.413 550.893,-200.924"/>
<polygon fill="red" stroke="red" stroke-width="0.398612" points="554.392,-200.609 550.851,-190.624 547.392,-200.638 554.392,-200.609"/>
</g>
<!-- enemyRadar[LeftFront2.5ø]&#45;&gt; Move Backward -->
<g id="edge29" class="edge"><title>enemyRadar[LeftFront2.5ø]&#45;&gt; Move Backward</title>
<path fill="none" stroke="red" stroke-width="0.102595" d="M1465.66,-317.708C1528.65,-308.904 1621.64,-293.979 1632.46,-281.304 1650.2,-260.527 1653.3,-231.005 1651.21,-204.453"/>
<polygon fill="red" stroke="red" stroke-width="0.102595" points="1654.68,-204.033 1650.17,-194.447 1647.72,-204.754 1654.68,-204.033"/>
</g>
<!-- 1223 -->
<g id="node29" class="node"><title>1223</title>
<ellipse fill="white" stroke="black" cx="1709.46" cy="-256.555" rx="25" ry="25"/>
<text text-anchor="middle" x="1709.46" y="-254.355" font-family="Times,serif" font-size="9.00">1223</text>
</g>
<!-- enemyRadar[LeftFront2.5ø]&#45;&gt;1223 -->
<g id="edge53" class="edge"><title>enemyRadar[LeftFront2.5ø]&#45;&gt;1223</title>
<path fill="none" stroke="red" stroke-width="0.378335" d="M1465.53,-318.203C1531.23,-309.711 1633.85,-294.931 1670.46,-281.304 1673.93,-280.011 1677.44,-278.398 1680.85,-276.625"/>
<polygon fill="red" stroke="red" stroke-width="0.378335" points="1682.6,-279.655 1689.56,-271.67 1679.14,-273.57 1682.6,-279.655"/>
</g>
<!-- OnTarget -->
<g id="node21" class="node"><title>OnTarget</title>
<polygon fill="lightgray" stroke="black" points="1590.46,-265.555 1540.46,-265.555 1540.46,-247.555 1590.46,-247.555 1590.46,-265.555"/>
<text text-anchor="middle" x="1565.46" y="-254.355" font-family="Times,serif" font-size="9.00">OnTarget</text>
</g>
<!-- OnTarget&#45;&gt;Move Forward -->
<g id="edge11" class="edge"><title>OnTarget&#45;&gt;Move Forward</title>
<path fill="none" stroke="red" stroke-width="0.662054" stroke-dasharray="1,5" d="M1556.7,-247.423C1550.24,-241.965 1540.96,-235.179 1531.46,-231.806 1427.53,-194.905 1146.28,-205.99 1036.46,-195.806 884.898,-181.751 706.963,-160.403 616.24,-149.169"/>
<polygon fill="red" stroke="red" stroke-width="0.662054" points="616.501,-145.675 606.146,-147.917 615.639,-152.622 616.501,-145.675"/>
</g>
<!-- OnTarget&#45;&gt; Move Backward -->
<g id="edge5" class="edge"><title>OnTarget&#45;&gt; Move Backward</title>
<path fill="none" stroke="green" stroke-width="0.345981" d="M1570.64,-247.363C1577.55,-236.428 1590.39,-216.118 1602.98,-196.2"/>
<polygon fill="green" stroke="green" stroke-width="0.345981" points="1605.96,-198.039 1608.34,-187.716 1600.04,-194.299 1605.96,-198.039"/>
</g>
<!-- OnTarget&#45;&gt;Move Left -->
<g id="edge15" class="edge"><title>OnTarget&#45;&gt;Move Left</title>
<path fill="none" stroke="green" stroke-width="0.350066" stroke-dasharray="1,5" d="M1590.62,-249.099C1612.8,-243.654 1646.07,-236.084 1675.46,-231.806 1882.78,-201.63 1940.04,-236.953 2145.46,-195.806 2186.76,-187.534 2232.11,-172.035 2264.64,-159.731"/>
<polygon fill="green" stroke="green" stroke-width="0.350066" points="2266.22,-162.874 2274.3,-156.026 2263.71,-156.338 2266.22,-162.874"/>
</g>
<!-- TakingDmg -->
<g id="node22" class="node"><title>TakingDmg</title>
<polygon fill="lightgray" stroke="black" points="1381.96,-265.555 1322.96,-265.555 1322.96,-247.555 1381.96,-247.555 1381.96,-265.555"/>
<text text-anchor="middle" x="1352.46" y="-254.355" font-family="Times,serif" font-size="9.00">TakingDmg</text>
</g>
<!-- TakingDmg&#45;&gt;Shoot -->
<g id="edge14" class="edge"><title>TakingDmg&#45;&gt;Shoot</title>
<path fill="none" stroke="red" stroke-width="0.336489" stroke-dasharray="1,5" d="M1340.84,-247.43C1333.49,-242.515 1323.67,-236.343 1314.46,-231.806 1243.68,-196.948 1155.85,-167.412 1107.86,-152.353"/>
<polygon fill="red" stroke="red" stroke-width="0.336489" points="1108.84,-148.99 1098.25,-149.363 1106.76,-155.675 1108.84,-148.99"/>
</g>
<!-- TakingDmg&#45;&gt;Move Forward -->
<g id="edge40" class="edge"><title>TakingDmg&#45;&gt;Move Forward</title>
<path fill="none" stroke="red" stroke-width="0.141104" d="M1342.14,-247.341C1334.84,-241.994 1324.59,-235.371 1314.46,-231.806 1297.96,-225.998 792.923,-168.429 616.54,-148.444"/>
<polygon fill="red" stroke="red" stroke-width="0.141104" points="616.728,-144.943 606.397,-147.295 615.94,-151.898 616.728,-144.943"/>
</g>
<!-- TakingDmg&#45;&gt; Move Backward -->
<g id="edge17" class="edge"><title>TakingDmg&#45;&gt; Move Backward</title>
<path fill="none" stroke="red" stroke-width="1.05478" d="M1364.41,-247.435C1371.96,-242.522 1382.03,-236.349 1391.46,-231.806 1451.96,-202.645 1524.51,-177.131 1575.08,-160.758"/>
<polygon fill="red" stroke="red" stroke-width="1.05478" points="1576.44,-163.997 1584.89,-157.607 1574.3,-157.333 1576.44,-163.997"/>
</g>
<!-- bias -->
<g id="node23" class="node"><title>bias</title>
<polygon fill="lightgray" stroke="black" points="1782.96,-265.555 1751.96,-265.555 1751.96,-247.555 1782.96,-247.555 1782.96,-265.555"/>
<text text-anchor="middle" x="1767.46" y="-254.355" font-family="Times,serif" font-size="9.00">bias</text>
</g>
<!-- bias&#45;&gt; Move Backward -->
<g id="edge31" class="edge"><title>bias&#45;&gt; Move Backward</title>
<path fill="none" stroke="green" stroke-width="0.149681" stroke-dasharray="1,5" d="M1759.61,-247.485C1754.99,-242.816 1748.99,-236.879 1743.46,-231.806 1725.63,-215.446 1705.53,-198.087 1687.66,-183.016"/>
<polygon fill="green" stroke="green" stroke-width="0.149681" points="1689.53,-180.016 1679.62,-176.263 1685.03,-185.376 1689.53,-180.016"/>
</g>
<!-- Shoot&#45;&gt;Shoot -->
<g id="edge42" class="edge"><title>Shoot&#45;&gt;Shoot</title>
<path fill="none" stroke="green" stroke-width="0.188261" d="M1091.36,-159.939C1104.45,-165.784 1117.33,-159.355 1117.33,-140.652 1117.33,-126.771 1110.23,-119.65 1101.23,-119.291"/>
<polygon fill="green" stroke="green" stroke-width="0.188261" points="1100.43,-115.882 1091.36,-121.364 1101.87,-122.732 1100.43,-115.882"/>
</g>
<!-- Move Left&#45;&gt;Move Left -->
<g id="edge10" class="edge"><title>Move Left&#45;&gt;Move Left</title>
<path fill="none" stroke="green" stroke-width="0.46615" d="M2341.23,-161.839C2354.44,-163.3 2365.64,-156.238 2365.64,-140.652 2365.64,-129.328 2359.73,-122.503 2351.43,-120.178"/>
<polygon fill="green" stroke="green" stroke-width="0.46615" points="2351.45,-116.671 2341.23,-119.465 2350.96,-123.654 2351.45,-116.671"/>
</g>
<!-- 1999 -->
<g id="node32" class="node"><title>1999</title>
<ellipse fill="white" stroke="black" cx="2111.46" cy="-24.7487" rx="25" ry="25"/>
<text text-anchor="middle" x="2111.46" y="-22.5487" font-family="Times,serif" font-size="9.00">1999</text>
</g>
<!-- 1157&#45;&gt;1999 -->
<g id="edge57" class="edge"><title>1157&#45;&gt;1999</title>
<path fill="none" stroke="green" stroke-width="0.162003" d="M2111.46,-115.774C2111.46,-99.5235 2111.46,-77.775 2111.46,-59.7255"/>
<polygon fill="green" stroke="green" stroke-width="0.162003" points="2114.96,-59.5951 2111.46,-49.5951 2107.96,-59.5952 2114.96,-59.5951"/>
</g>
<!-- 1223&#45;&gt; Move Backward -->
<g id="edge54" class="edge"><title>1223&#45;&gt; Move Backward</title>
<path fill="none" stroke="red" stroke-width="0.379887" d="M1696.59,-235.191C1689.69,-224.275 1680.82,-210.249 1672.07,-196.397"/>
<polygon fill="red" stroke="red" stroke-width="0.379887" points="1674.95,-194.407 1666.65,-187.824 1669.03,-198.147 1674.95,-194.407"/>
</g>
<!-- 968&#45;&gt;Move Left -->
<g id="edge49" class="edge"><title>968&#45;&gt;Move Left</title>
<path fill="none" stroke="red" stroke-width="0.480502" stroke-dasharray="1,5" d="M2522.8,-241.98C2518.32,-238.436 2513.34,-234.78 2508.46,-231.806 2458.39,-201.281 2396.22,-174.744 2354.82,-158.511"/>
<polygon fill="red" stroke="red" stroke-width="0.480502" points="2355.87,-155.165 2345.28,-154.809 2353.34,-161.69 2355.87,-155.165"/>
</g>
<!-- 2315&#45;&gt;Shoot -->
<g id="edge64" class="edge"><title>2315&#45;&gt;Shoot</title>
<path fill="none" stroke="red" stroke-width="0.228775" d="M1194.45,-240.193C1170.36,-220.739 1128.66,-187.048 1100.81,-164.554"/>
<polygon fill="red" stroke="red" stroke-width="0.228775" points="1102.98,-161.806 1093,-158.245 1098.58,-167.251 1102.98,-161.806"/>
</g>
<!-- 1009&#45;&gt;Shoot -->
<g id="edge51" class="edge"><title>1009&#45;&gt;Shoot</title>
<path fill="none" stroke="red" stroke-width="1.01236" d="M1260.89,-240.75C1256.55,-237.671 1251.91,-234.535 1247.46,-231.806 1199.91,-202.671 1141.89,-174.053 1106.06,-157.128"/>
<polygon fill="red" stroke="red" stroke-width="1.01236" points="1107.1,-153.753 1096.56,-152.673 1104.13,-160.09 1107.1,-153.753"/>
</g>
<!-- 2037&#45;&gt;Shoot -->
<g id="edge60" class="edge"><title>2037&#45;&gt;Shoot</title>
<path fill="none" stroke="red" stroke-width="0.360125" d="M889.055,-240.79C893.394,-237.708 898.024,-234.562 902.461,-231.806 948.507,-203.212 1004.47,-174.65 1039.29,-157.565"/>
<polygon fill="red" stroke="red" stroke-width="0.360125" points="1041.07,-160.591 1048.52,-153.06 1038,-154.3 1041.07,-160.591"/>
</g>
<!-- 857&#45;&gt;Move Forward -->
<g id="edge47" class="edge"><title>857&#45;&gt;Move Forward</title>
<path fill="none" stroke="green" stroke-width="0.135806" d="M236.87,-241.526C241.34,-237.98 246.39,-234.437 251.461,-231.806 331.601,-190.236 433.787,-164.991 497.168,-152.175"/>
<polygon fill="green" stroke="green" stroke-width="0.135806" points="497.871,-155.604 506.998,-150.224 496.508,-148.738 497.871,-155.604"/>
</g>
<!-- 2238&#45;&gt;Move Forward -->
<g id="edge62" class="edge"><title>2238&#45;&gt;Move Forward</title>
<path fill="none" stroke="green" stroke-width="0.182797" d="M63.1495,-239.977C67.6187,-236.871 72.5302,-233.919 77.4609,-231.806 219.523,-170.918 402.708,-151.021 496.016,-144.618"/>
<polygon fill="green" stroke="green" stroke-width="0.182797" points="496.375,-148.102 506.123,-143.954 495.915,-141.117 496.375,-148.102"/>
</g>
</g>
</svg>
