<?xml version="1.0" encoding="UTF-8" standalone="no"?>
<!DOCTYPE svg PUBLIC "-//W3C//DTD SVG 1.1//EN"
 "http://www.w3.org/Graphics/SVG/1.1/DTD/svg11.dtd">
<!-- Generated by graphviz version 2.38.0 (20140413.2041)
 -->
<!-- Title: %3 Pages: 1 -->
<svg width="2519pt" height="172pt"
 viewBox="0.00 0.00 2519.00 172.31" xmlns="http://www.w3.org/2000/svg" xmlns:xlink="http://www.w3.org/1999/xlink">
<g id="graph0" class="graph" transform="scale(1 1) rotate(0) translate(4 168.309)">
<title>%3</title>
<polygon fill="white" stroke="none" points="-4,4 -4,-168.309 2515,-168.309 2515,4 -4,4"/>
<!-- wallRadar[1,0] -->
<g id="node1" class="node"><title>wallRadar[1,0]</title>
<polygon fill="lightgray" stroke="black" points="967,-164.309 897,-164.309 897,-146.309 967,-146.309 967,-164.309"/>
<text text-anchor="middle" x="932" y="-153.109" font-family="Times,serif" font-size="9.00">wallRadar[1,0]</text>
</g>
<!-- Shoot -->
<g id="node24" class="node"><title>Shoot</title>
<ellipse fill="lightblue" stroke="black" cx="765" cy="-55.1543" rx="26.7407" ry="26.7407"/>
<text text-anchor="middle" x="765" y="-52.9543" font-family="Times,serif" font-size="9.00">Shoot</text>
</g>
<!-- wallRadar[1,0]&#45;&gt;Shoot -->
<g id="edge77" class="edge"><title>wallRadar[1,0]&#45;&gt;Shoot</title>
<path fill="none" stroke="green" stroke-width="0.448236" d="M913.282,-146.205C894.759,-137.945 865.806,-124.38 842,-110.309 825.688,-100.667 808.359,-88.6517 794.278,-78.3897"/>
<polygon fill="green" stroke="green" stroke-width="0.448236" points="796.095,-75.3808 785.969,-72.2636 791.941,-81.0151 796.095,-75.3808"/>
</g>
<!-- Turn Left -->
<g id="node29" class="node"><title>Turn Left</title>
<ellipse fill="lightblue" stroke="black" cx="1352" cy="-55.1543" rx="35.2113" ry="35.2113"/>
<text text-anchor="middle" x="1352" y="-52.9543" font-family="Times,serif" font-size="9.00">Turn Left</text>
</g>
<!-- wallRadar[1,0]&#45;&gt;Turn Left -->
<g id="edge21" class="edge"><title>wallRadar[1,0]&#45;&gt;Turn Left</title>
<path fill="none" stroke="green" stroke-width="0.793473" d="M967.027,-147.707C970.058,-147.206 973.08,-146.732 976,-146.309 1049.22,-135.684 1241.82,-145.319 1307,-110.309 1314.66,-106.193 1321.54,-100.181 1327.48,-93.6455"/>
<polygon fill="green" stroke="green" stroke-width="0.793473" points="1330.3,-95.7359 1334.01,-85.8147 1324.92,-91.2522 1330.3,-95.7359"/>
</g>
<!-- wallRadar[0,1] -->
<g id="node2" class="node"><title>wallRadar[0,1]</title>
<polygon fill="lightgray" stroke="black" points="443,-164.309 373,-164.309 373,-146.309 443,-146.309 443,-164.309"/>
<text text-anchor="middle" x="408" y="-153.109" font-family="Times,serif" font-size="9.00">wallRadar[0,1]</text>
</g>
<!-- wallRadar[0,1]&#45;&gt;Shoot -->
<g id="edge3" class="edge"><title>wallRadar[0,1]&#45;&gt;Shoot</title>
<path fill="none" stroke="green" stroke-width="0.19424" d="M443.058,-147.899C446.082,-147.357 449.094,-146.821 452,-146.309 545.689,-129.799 572.955,-141.004 663,-110.309 688.065,-101.764 714.418,-87.6208 734.058,-75.9305"/>
<polygon fill="green" stroke="green" stroke-width="0.19424" points="736.119,-78.7736 742.852,-70.5929 732.487,-72.7895 736.119,-78.7736"/>
</g>
<!-- Move right -->
<g id="node28" class="node"><title>Move right</title>
<ellipse fill="lightblue" stroke="black" cx="596" cy="-55.1543" rx="39.6962" ry="39.6962"/>
<text text-anchor="middle" x="596" y="-52.9543" font-family="Times,serif" font-size="9.00">Move right</text>
</g>
<!-- wallRadar[0,1]&#45;&gt;Move right -->
<g id="edge70" class="edge"><title>wallRadar[0,1]&#45;&gt;Move right</title>
<path fill="none" stroke="green" stroke-width="0.200405" d="M423.385,-146.276C451.186,-131.761 510.738,-100.669 552.063,-79.0936"/>
<polygon fill="green" stroke="green" stroke-width="0.200405" points="553.86,-82.1037 561.105,-74.3729 550.621,-75.8985 553.86,-82.1037"/>
</g>
<!-- wallRadar[0,1]&#45;&gt;Turn Left -->
<g id="edge25" class="edge"><title>wallRadar[0,1]&#45;&gt;Turn Left</title>
<path fill="none" stroke="red" stroke-width="0.311444" d="M443,-147.496C446.037,-147.041 449.068,-146.635 452,-146.309 546.499,-135.779 1221.79,-152.502 1307,-110.309 1314.87,-106.41 1321.87,-100.432 1327.87,-93.8487"/>
<polygon fill="red" stroke="red" stroke-width="0.311444" points="1330.75,-95.8623 1334.44,-85.9317 1325.36,-91.3922 1330.75,-95.8623"/>
</g>
<!-- Turn Right -->
<g id="node30" class="node"><title>Turn Right</title>
<ellipse fill="lightblue" stroke="black" cx="891" cy="-55.1543" rx="39.6962" ry="39.6962"/>
<text text-anchor="middle" x="891" y="-52.9543" font-family="Times,serif" font-size="9.00">Turn Right</text>
</g>
<!-- wallRadar[0,1]&#45;&gt;Turn Right -->
<g id="edge52" class="edge"><title>wallRadar[0,1]&#45;&gt;Turn Right</title>
<path fill="none" stroke="green" stroke-width="0.680519" d="M443.025,-147.689C446.056,-147.193 449.079,-146.724 452,-146.309 606.38,-124.345 653.092,-159.691 801,-110.309 818.496,-104.467 836.216,-94.7878 851.252,-85.215"/>
<polygon fill="green" stroke="green" stroke-width="0.680519" points="853.334,-88.0348 859.773,-79.6208 849.493,-82.1832 853.334,-88.0348"/>
</g>
<!-- wallRadar[&#45;1,0] -->
<g id="node3" class="node"><title>wallRadar[&#45;1,0]</title>
<polygon fill="lightgray" stroke="black" points="2370.5,-164.309 2297.5,-164.309 2297.5,-146.309 2370.5,-146.309 2370.5,-164.309"/>
<text text-anchor="middle" x="2334" y="-153.109" font-family="Times,serif" font-size="9.00">wallRadar[&#45;1,0]</text>
</g>
<!--  Move Backward -->
<g id="node26" class="node"><title> Move Backward</title>
<ellipse fill="lightblue" stroke="black" cx="1628" cy="-55.1543" rx="55.3091" ry="55.3091"/>
<text text-anchor="middle" x="1628" y="-52.9543" font-family="Times,serif" font-size="9.00"> Move Backward</text>
</g>
<!-- wallRadar[&#45;1,0]&#45;&gt; Move Backward -->
<g id="edge76" class="edge"><title>wallRadar[&#45;1,0]&#45;&gt; Move Backward</title>
<path fill="none" stroke="green" stroke-width="0.101323" d="M2297.18,-147.639C2294.42,-147.176 2291.67,-146.727 2289,-146.309 2071.09,-112.093 1811.58,-78.8904 1692.96,-64.1302"/>
<polygon fill="green" stroke="green" stroke-width="0.101323" points="1693.31,-60.6465 1682.95,-62.887 1692.44,-67.5931 1693.31,-60.6465"/>
</g>
<!-- wallRadar[0,&#45;1] -->
<g id="node4" class="node"><title>wallRadar[0,&#45;1]</title>
<polygon fill="lightgray" stroke="black" points="1664.5,-164.309 1591.5,-164.309 1591.5,-146.309 1664.5,-146.309 1664.5,-164.309"/>
<text text-anchor="middle" x="1628" y="-153.109" font-family="Times,serif" font-size="9.00">wallRadar[0,&#45;1]</text>
</g>
<!-- wallRadar[0,&#45;1]&#45;&gt;Shoot -->
<g id="edge58" class="edge"><title>wallRadar[0,&#45;1]&#45;&gt;Shoot</title>
<path fill="none" stroke="red" stroke-width="0.749737" stroke-dasharray="1,5" d="M1591.22,-147.376C1588.44,-146.974 1585.68,-146.611 1583,-146.309 1419.18,-127.843 997.926,-163.846 842,-110.309 823.652,-104.009 805.764,-91.9077 791.854,-80.74"/>
<polygon fill="red" stroke="red" stroke-width="0.749737" points="794.075,-78.0343 784.151,-74.3234 789.594,-83.4128 794.075,-78.0343"/>
</g>
<!-- Move Forward -->
<g id="node25" class="node"><title>Move Forward</title>
<ellipse fill="lightblue" stroke="black" cx="1230" cy="-55.1543" rx="50.41" ry="50.41"/>
<text text-anchor="middle" x="1230" y="-52.9543" font-family="Times,serif" font-size="9.00">Move Forward</text>
</g>
<!-- wallRadar[0,&#45;1]&#45;&gt;Move Forward -->
<g id="edge83" class="edge"><title>wallRadar[0,&#45;1]&#45;&gt;Move Forward</title>
<path fill="none" stroke="green" stroke-width="0.374336" d="M1591.19,-147.622C1588.42,-147.163 1585.67,-146.72 1583,-146.309 1461.18,-127.516 1422.99,-154.714 1308,-110.309 1297.3,-106.175 1286.64,-100.285 1276.81,-93.8999"/>
<polygon fill="green" stroke="green" stroke-width="0.374336" points="1278.64,-90.9105 1268.4,-88.193 1274.71,-96.7034 1278.64,-90.9105"/>
</g>
<!-- wallRadar[0,&#45;1]&#45;&gt; Move Backward -->
<g id="edge82" class="edge"><title>wallRadar[0,&#45;1]&#45;&gt; Move Backward</title>
<path fill="none" stroke="red" stroke-width="0.307827" d="M1628,-146.276C1628,-140.164 1628,-131.112 1628,-121.069"/>
<polygon fill="red" stroke="red" stroke-width="0.307827" points="1631.5,-120.768 1628,-110.768 1624.5,-120.768 1631.5,-120.768"/>
</g>
<!-- wallRadar[0,&#45;1]&#45;&gt;Turn Left -->
<g id="edge19" class="edge"><title>wallRadar[0,&#45;1]&#45;&gt;Turn Left</title>
<path fill="none" stroke="green" stroke-width="0.411317" d="M1605.41,-146.276C1559.31,-129.882 1453.75,-92.3408 1394.44,-71.249"/>
<polygon fill="green" stroke="green" stroke-width="0.411317" points="1395.58,-67.939 1384.99,-67.8859 1393.24,-74.5344 1395.58,-67.939"/>
</g>
<!-- wallRadar[0,&#45;1]&#45;&gt;Turn Right -->
<g id="edge9" class="edge"><title>wallRadar[0,&#45;1]&#45;&gt;Turn Right</title>
<path fill="none" stroke="green" stroke-width="0.169143" d="M1591.21,-147.415C1588.44,-147.003 1585.68,-146.628 1583,-146.309 1323.46,-115.383 1248,-179.702 996,-110.309 974.078,-104.272 951.452,-93.3081 932.843,-82.8165"/>
<polygon fill="green" stroke="green" stroke-width="0.169143" points="934.459,-79.7079 924.05,-77.7277 930.952,-85.7663 934.459,-79.7079"/>
</g>
<!-- wallRadar[0.7,0.7] -->
<g id="node5" class="node"><title>wallRadar[0.7,0.7]</title>
<polygon fill="lightgray" stroke="black" points="217.5,-164.309 134.5,-164.309 134.5,-146.309 217.5,-146.309 217.5,-164.309"/>
<text text-anchor="middle" x="176" y="-153.109" font-family="Times,serif" font-size="9.00">wallRadar[0.7,0.7]</text>
</g>
<!-- wallRadar[0.7,0.7]&#45;&gt;Shoot -->
<g id="edge45" class="edge"><title>wallRadar[0.7,0.7]&#45;&gt;Shoot</title>
<path fill="none" stroke="red" stroke-width="0.27348" d="M217.708,-147.391C220.511,-147.001 223.295,-146.636 226,-146.309 419.469,-122.897 475.989,-165.126 663,-110.309 688.527,-102.826 714.993,-88.5529 734.567,-76.5381"/>
<polygon fill="red" stroke="red" stroke-width="0.27348" points="736.442,-79.4932 743.047,-71.2091 732.718,-73.5662 736.442,-79.4932"/>
</g>
<!-- Move Left -->
<g id="node27" class="node"><title>Move Left</title>
<ellipse fill="lightblue" stroke="black" cx="1043" cy="-55.1543" rx="38.3684" ry="38.3684"/>
<text text-anchor="middle" x="1043" y="-52.9543" font-family="Times,serif" font-size="9.00">Move Left</text>
</g>
<!-- wallRadar[0.7,0.7]&#45;&gt;Move Left -->
<g id="edge11" class="edge"><title>wallRadar[0.7,0.7]&#45;&gt;Move Left</title>
<path fill="none" stroke="green" stroke-width="0.360168" stroke-dasharray="1,5" d="M217.697,-147.291C220.503,-146.926 223.29,-146.593 226,-146.309 384.001,-129.735 786.77,-152.257 940,-110.309 961.937,-104.303 984.499,-93.1069 1002.89,-82.4465"/>
<polygon fill="green" stroke="green" stroke-width="0.360168" points="1004.77,-85.4048 1011.57,-77.2814 1001.19,-79.3903 1004.77,-85.4048"/>
</g>
<!-- wallRadar[0.7,0.7]&#45;&gt;Move right -->
<g id="edge15" class="edge"><title>wallRadar[0.7,0.7]&#45;&gt;Move right</title>
<path fill="none" stroke="red" stroke-width="0.359335" d="M210.37,-146.276C284.998,-128.836 462.031,-87.463 547.788,-67.4216"/>
<polygon fill="red" stroke="red" stroke-width="0.359335" points="548.592,-70.8281 557.533,-65.1442 546.999,-64.0118 548.592,-70.8281"/>
</g>
<!-- wallRadar[0.7,0.7]&#45;&gt;Turn Right -->
<g id="edge73" class="edge"><title>wallRadar[0.7,0.7]&#45;&gt;Turn Right</title>
<path fill="none" stroke="red" stroke-width="0.227476" d="M217.701,-147.329C220.506,-146.955 223.291,-146.609 226,-146.309 353.246,-132.179 678.77,-148.401 801,-110.309 818.61,-104.821 836.354,-95.2153 851.377,-85.6029"/>
<polygon fill="red" stroke="red" stroke-width="0.227476" points="853.478,-88.4099 859.887,-79.9735 849.616,-82.5718 853.478,-88.4099"/>
</g>
<!-- wallRadar[&#45;0.7,0.7] -->
<g id="node6" class="node"><title>wallRadar[&#45;0.7,0.7]</title>
<polygon fill="lightgray" stroke="black" points="879,-164.309 793,-164.309 793,-146.309 879,-146.309 879,-164.309"/>
<text text-anchor="middle" x="836" y="-153.109" font-family="Times,serif" font-size="9.00">wallRadar[&#45;0.7,0.7]</text>
</g>
<!-- wallRadar[&#45;0.7,0.7]&#45;&gt;Shoot -->
<g id="edge80" class="edge"><title>wallRadar[&#45;0.7,0.7]&#45;&gt;Shoot</title>
<path fill="none" stroke="green" stroke-width="0.78019" stroke-dasharray="1,5" d="M830.19,-146.276C820.7,-133.158 801.416,-106.498 786.272,-85.5618"/>
<polygon fill="green" stroke="green" stroke-width="0.78019" points="788.981,-83.3355 780.284,-77.2844 783.31,-87.4382 788.981,-83.3355"/>
</g>
<!-- wallRadar[&#45;0.7,0.7]&#45;&gt;Move Forward -->
<g id="edge61" class="edge"><title>wallRadar[&#45;0.7,0.7]&#45;&gt;Move Forward</title>
<path fill="none" stroke="green" stroke-width="0.477719" d="M879.172,-147.308C946.289,-136.353 1070.05,-115.836 1090,-110.309 1118.62,-102.379 1149.49,-90.7804 1174.95,-80.3491"/>
<polygon fill="green" stroke="green" stroke-width="0.477719" points="1176.53,-83.4832 1184.43,-76.4185 1173.85,-77.0174 1176.53,-83.4832"/>
</g>
<!-- wallRadar[&#45;0.7,0.7]&#45;&gt;Move right -->
<g id="edge23" class="edge"><title>wallRadar[&#45;0.7,0.7]&#45;&gt;Move right</title>
<path fill="none" stroke="green" stroke-width="0.816275" d="M816.36,-146.276C778.524,-130.802 694.624,-96.4892 641.958,-74.9501"/>
<polygon fill="green" stroke="green" stroke-width="0.816275" points="643.087,-71.6303 632.506,-71.0844 640.437,-78.1094 643.087,-71.6303"/>
</g>
<!-- wallRadar[&#45;0.7,0.7]&#45;&gt;Turn Left -->
<g id="edge40" class="edge"><title>wallRadar[&#45;0.7,0.7]&#45;&gt;Turn Left</title>
<path fill="none" stroke="green" stroke-width="0.345341" stroke-dasharray="1,5" d="M879.1,-147.451C882.109,-147.042 885.098,-146.656 888,-146.309 980.791,-135.197 1224.18,-153.595 1307,-110.309 1314.71,-106.28 1321.61,-100.307 1327.55,-93.7815"/>
<polygon fill="green" stroke="green" stroke-width="0.345341" points="1330.37,-95.8722 1334.09,-85.9512 1324.99,-91.3882 1330.37,-95.8722"/>
</g>
<!-- wallRadar[&#45;0.7,0.7]&#45;&gt;Turn Right -->
<g id="edge71" class="edge"><title>wallRadar[&#45;0.7,0.7]&#45;&gt;Turn Right</title>
<path fill="none" stroke="red" stroke-width="0.390388" d="M840.501,-146.276C846.312,-135.905 856.866,-117.071 866.828,-99.2924"/>
<polygon fill="red" stroke="red" stroke-width="0.390388" points="870.12,-100.577 871.955,-90.1418 864.014,-97.1547 870.12,-100.577"/>
</g>
<!-- wallRadar[&#45;0.7,&#45;0.7] -->
<g id="node7" class="node"><title>wallRadar[&#45;0.7,&#45;0.7]</title>
<polygon fill="lightgray" stroke="black" points="2142.5,-164.309 2053.5,-164.309 2053.5,-146.309 2142.5,-146.309 2142.5,-164.309"/>
<text text-anchor="middle" x="2098" y="-153.109" font-family="Times,serif" font-size="9.00">wallRadar[&#45;0.7,&#45;0.7]</text>
</g>
<!-- wallRadar[&#45;0.7,&#45;0.7]&#45;&gt; Move Backward -->
<g id="edge24" class="edge"><title>wallRadar[&#45;0.7,&#45;0.7]&#45;&gt; Move Backward</title>
<path fill="none" stroke="red" stroke-width="0.271281" stroke-dasharray="1,5" d="M2059.54,-146.276C1978.78,-129.411 1790.87,-90.1671 1691.78,-69.4734"/>
<polygon fill="red" stroke="red" stroke-width="0.271281" points="1692.39,-66.0269 1681.89,-67.4086 1690.96,-72.8791 1692.39,-66.0269"/>
</g>
<!-- wallRadar[&#45;0.7,&#45;0.7]&#45;&gt;Move Left -->
<g id="edge54" class="edge"><title>wallRadar[&#45;0.7,&#45;0.7]&#45;&gt;Move Left</title>
<path fill="none" stroke="red" stroke-width="0.825115" stroke-dasharray="1,5" d="M2053.26,-147.307C2050.13,-146.933 2047.02,-146.594 2044,-146.309 1850.69,-128.056 1360.45,-152.819 1171,-110.309 1141.38,-103.663 1109.96,-90.4712 1085.67,-78.7721"/>
<polygon fill="red" stroke="red" stroke-width="0.825115" points="1086.91,-75.4815 1076.39,-74.2108 1083.82,-81.7635 1086.91,-75.4815"/>
</g>
<!-- wallRadar[&#45;0.7,&#45;0.7]&#45;&gt;Turn Left -->
<g id="edge66" class="edge"><title>wallRadar[&#45;0.7,&#45;0.7]&#45;&gt;Turn Left</title>
<path fill="none" stroke="red" stroke-width="1.22971" d="M2053.24,-147.424C2050.12,-147.021 2047.01,-146.645 2044,-146.309 1831.38,-122.617 1775.11,-144.915 1564,-110.309 1504.83,-100.609 1438.03,-82.2825 1395.5,-69.655"/>
<polygon fill="red" stroke="red" stroke-width="1.22971" points="1396.34,-66.2532 1385.76,-66.7353 1394.33,-72.9586 1396.34,-66.2532"/>
</g>
<!-- wallRadar[&#45;0.7,&#45;0.7]&#45;&gt;Turn Right -->
<g id="edge16" class="edge"><title>wallRadar[&#45;0.7,&#45;0.7]&#45;&gt;Turn Right</title>
<path fill="none" stroke="green" stroke-width="0.277281" d="M2053.26,-147.283C2050.13,-146.914 2047.02,-146.583 2044,-146.309 1811.93,-125.2 1221.48,-169.146 996,-110.309 973.999,-104.567 951.362,-93.6432 932.766,-83.1015"/>
<polygon fill="green" stroke="green" stroke-width="0.277281" points="934.384,-79.9937 923.982,-77.9816 930.859,-86.0413 934.384,-79.9937"/>
</g>
<!-- wallRadar[0.7,&#45;0.7] -->
<g id="node8" class="node"><title>wallRadar[0.7,&#45;0.7]</title>
<polygon fill="lightgray" stroke="black" points="1903,-164.309 1817,-164.309 1817,-146.309 1903,-146.309 1903,-164.309"/>
<text text-anchor="middle" x="1860" y="-153.109" font-family="Times,serif" font-size="9.00">wallRadar[0.7,&#45;0.7]</text>
</g>
<!-- wallRadar[0.7,&#45;0.7]&#45;&gt; Move Backward -->
<g id="edge29" class="edge"><title>wallRadar[0.7,&#45;0.7]&#45;&gt; Move Backward</title>
<path fill="none" stroke="red" stroke-width="0.897424" d="M1841.01,-146.276C1808.01,-132.311 1738.73,-103.001 1688.11,-81.5848"/>
<polygon fill="red" stroke="red" stroke-width="0.897424" points="1689.46,-78.3564 1678.89,-77.6833 1686.73,-84.8032 1689.46,-78.3564"/>
</g>
<!-- wallRadar[0.7,&#45;0.7]&#45;&gt;Move Left -->
<g id="edge2" class="edge"><title>wallRadar[0.7,&#45;0.7]&#45;&gt;Move Left</title>
<path fill="none" stroke="green" stroke-width="0.53567" d="M1816.91,-147.353C1813.9,-146.967 1810.91,-146.614 1808,-146.309 1525.99,-116.716 1447.2,-174.499 1171,-110.309 1141.43,-103.437 1110.02,-90.2418 1085.71,-78.5971"/>
<polygon fill="green" stroke="green" stroke-width="0.53567" points="1086.94,-75.3061 1076.42,-74.0602 1083.87,-81.5954 1086.94,-75.3061"/>
</g>
<!-- wallRadar[0.7,&#45;0.7]&#45;&gt;Turn Left -->
<g id="edge27" class="edge"><title>wallRadar[0.7,&#45;0.7]&#45;&gt;Turn Left</title>
<path fill="none" stroke="red" stroke-width="0.379957" stroke-dasharray="1,5" d="M1816.87,-147.653C1813.87,-147.196 1810.89,-146.744 1808,-146.309 1699.61,-129.974 1671.47,-131.903 1564,-110.309 1505.21,-98.4966 1438.32,-80.6626 1395.67,-68.7234"/>
<polygon fill="red" stroke="red" stroke-width="0.379957" points="1396.47,-65.3127 1385.9,-65.9717 1394.58,-72.0508 1396.47,-65.3127"/>
</g>
<!-- wallRadar[0.7,&#45;0.7]&#45;&gt;Turn Right -->
<g id="edge36" class="edge"><title>wallRadar[0.7,&#45;0.7]&#45;&gt;Turn Right</title>
<path fill="none" stroke="red" stroke-width="0.444409" d="M1816.92,-147.312C1813.9,-146.937 1810.91,-146.596 1808,-146.309 1628.25,-128.55 1170.54,-156.785 996,-110.309 974.027,-104.458 951.395,-93.5189 932.794,-82.9959"/>
<polygon fill="red" stroke="red" stroke-width="0.444409" points="934.411,-79.8878 924.007,-77.8875 930.893,-85.9394 934.411,-79.8878"/>
</g>
<!-- enemyRadar[RightBack] -->
<g id="node9" class="node"><title>enemyRadar[RightBack]</title>
<polygon fill="lightgray" stroke="black" points="775,-164.309 671,-164.309 671,-146.309 775,-146.309 775,-164.309"/>
<text text-anchor="middle" x="723" y="-153.109" font-family="Times,serif" font-size="9.00">enemyRadar[RightBack]</text>
</g>
<!-- enemyRadar[RightBack]&#45;&gt;Shoot -->
<g id="edge28" class="edge"><title>enemyRadar[RightBack]&#45;&gt;Shoot</title>
<path fill="none" stroke="green" stroke-width="0.2023" d="M726.437,-146.276C731.714,-133.944 742.111,-109.647 750.781,-89.3854"/>
<polygon fill="green" stroke="green" stroke-width="0.2023" points="754.026,-90.6969 754.742,-80.1263 747.591,-87.9431 754.026,-90.6969"/>
</g>
<!-- enemyRadar[RightBack]&#45;&gt;Move Left -->
<g id="edge67" class="edge"><title>enemyRadar[RightBack]&#45;&gt;Move Left</title>
<path fill="none" stroke="red" stroke-width="0.274807" d="M770.55,-146.292C824.631,-136.889 909.4,-121.204 940,-110.309 961.263,-102.738 983.583,-91.4616 1001.99,-81.1556"/>
<polygon fill="red" stroke="red" stroke-width="0.274807" points="1003.74,-84.1889 1010.69,-76.1947 1000.27,-78.1082 1003.74,-84.1889"/>
</g>
<!-- enemyRadar[RightBack]&#45;&gt;Turn Right -->
<g id="edge74" class="edge"><title>enemyRadar[RightBack]&#45;&gt;Turn Right</title>
<path fill="none" stroke="green" stroke-width="0.289341" d="M737.734,-146.159C753.469,-137.418 779.104,-123.069 801,-110.309 816.673,-101.175 833.755,-90.9629 848.785,-81.8892"/>
<polygon fill="green" stroke="green" stroke-width="0.289341" points="850.626,-84.866 857.37,-76.6952 847.003,-78.8767 850.626,-84.866"/>
</g>
<!-- enemyRadar[LeftBack] -->
<g id="node10" class="node"><title>enemyRadar[LeftBack]</title>
<polygon fill="lightgray" stroke="black" points="1573.5,-164.309 1474.5,-164.309 1474.5,-146.309 1573.5,-146.309 1573.5,-164.309"/>
<text text-anchor="middle" x="1524" y="-153.109" font-family="Times,serif" font-size="9.00">enemyRadar[LeftBack]</text>
</g>
<!-- enemyRadar[LeftBack]&#45;&gt;Shoot -->
<g id="edge68" class="edge"><title>enemyRadar[LeftBack]&#45;&gt;Shoot</title>
<path fill="none" stroke="red" stroke-width="0.155422" d="M1474.36,-147.197C1471.53,-146.875 1468.73,-146.575 1466,-146.309 1327.76,-132.809 973.163,-156.011 842,-110.309 823.68,-103.925 805.795,-91.8184 791.879,-80.6682"/>
<polygon fill="red" stroke="red" stroke-width="0.155422" points="794.1,-77.9627 784.171,-74.2641 789.626,-83.3468 794.1,-77.9627"/>
</g>
<!-- enemyRadar[LeftBack]&#45;&gt;Move Forward -->
<g id="edge8" class="edge"><title>enemyRadar[LeftBack]&#45;&gt;Move Forward</title>
<path fill="none" stroke="red" stroke-width="0.159609" d="M1474.49,-146.606C1420.35,-137.766 1337.38,-122.868 1308,-110.309 1297.45,-105.799 1286.87,-99.7372 1277.05,-93.3016"/>
<polygon fill="red" stroke="red" stroke-width="0.159609" points="1278.88,-90.3132 1268.65,-87.5794 1274.94,-96.0998 1278.88,-90.3132"/>
</g>
<!-- enemyRadar[LeftBack]&#45;&gt; Move Backward -->
<g id="edge81" class="edge"><title>enemyRadar[LeftBack]&#45;&gt; Move Backward</title>
<path fill="none" stroke="red" stroke-width="0.585521" d="M1532.51,-146.276C1543.12,-136.261 1562.1,-118.353 1580.35,-101.124"/>
<polygon fill="red" stroke="red" stroke-width="0.585521" points="1583.23,-103.216 1588.1,-93.8073 1578.43,-98.1257 1583.23,-103.216"/>
</g>
<!-- enemyRadar[LeftBack]&#45;&gt;Turn Right -->
<g id="edge1" class="edge"><title>enemyRadar[LeftBack]&#45;&gt;Turn Right</title>
<path fill="none" stroke="green" stroke-width="0.378356" d="M1474.35,-147.259C1471.53,-146.921 1468.73,-146.601 1466,-146.309 1257.69,-123.986 1197.55,-167.462 996,-110.309 974.124,-104.106 951.504,-93.1194 932.887,-82.6561"/>
<polygon fill="green" stroke="green" stroke-width="0.378356" points="934.502,-79.547 924.09,-77.5848 931.006,-85.6114 934.502,-79.547"/>
</g>
<!-- enemyRadar[Right45ø] -->
<g id="node11" class="node"><title>enemyRadar[Right45ø]</title>
<polygon fill="lightgray" stroke="black" points="1135,-164.309 1035,-164.309 1035,-146.309 1135,-146.309 1135,-164.309"/>
<text text-anchor="middle" x="1085" y="-153.109" font-family="Times,serif" font-size="9.00">enemyRadar[Right45ø]</text>
</g>
<!-- enemyRadar[Right45ø]&#45;&gt;Shoot -->
<g id="edge4" class="edge"><title>enemyRadar[Right45ø]&#45;&gt;Shoot</title>
<path fill="none" stroke="red" stroke-width="0.140457" stroke-dasharray="1,5" d="M1034.86,-146.415C968.967,-135.859 859.503,-117.627 842,-110.309 824.394,-102.947 806.829,-91.0346 792.931,-80.2542"/>
<polygon fill="red" stroke="red" stroke-width="0.140457" points="794.78,-77.251 784.784,-73.739 790.408,-82.718 794.78,-77.251"/>
</g>
<!-- enemyRadar[Right45ø]&#45;&gt; Move Backward -->
<g id="edge56" class="edge"><title>enemyRadar[Right45ø]&#45;&gt; Move Backward</title>
<path fill="none" stroke="red" stroke-width="0.232771" d="M1135.14,-147.464C1216.55,-136.313 1370.94,-114.996 1396,-110.309 1453.57,-99.5388 1518.44,-84.1133 1564.92,-72.4783"/>
<polygon fill="red" stroke="red" stroke-width="0.232771" points="1566,-75.8158 1574.84,-69.9817 1564.29,-69.0274 1566,-75.8158"/>
</g>
<!-- enemyRadar[Right45ø]&#45;&gt;Move Left -->
<g id="edge41" class="edge"><title>enemyRadar[Right45ø]&#45;&gt;Move Left</title>
<path fill="none" stroke="green" stroke-width="0.199686" d="M1081.56,-146.276C1077.2,-136.078 1069.33,-117.695 1061.84,-100.18"/>
<polygon fill="green" stroke="green" stroke-width="0.199686" points="1064.89,-98.4128 1057.74,-90.596 1058.45,-101.167 1064.89,-98.4128"/>
</g>
<!-- enemyRadar[Right45ø]&#45;&gt;Turn Right -->
<g id="edge78" class="edge"><title>enemyRadar[Right45ø]&#45;&gt;Turn Right</title>
<path fill="none" stroke="green" stroke-width="0.555527" d="M1068.55,-146.283C1050.66,-137.525 1021.23,-123.052 996,-110.309 975.861,-100.138 953.642,-88.7089 934.85,-78.981"/>
<polygon fill="green" stroke="green" stroke-width="0.555527" points="936.413,-75.849 925.924,-74.3551 933.192,-82.0639 936.413,-75.849"/>
</g>
<!-- enemyRadar[Left45ø] -->
<g id="node12" class="node"><title>enemyRadar[Left45ø]</title>
<polygon fill="lightgray" stroke="black" points="1456.5,-164.309 1361.5,-164.309 1361.5,-146.309 1456.5,-146.309 1456.5,-164.309"/>
<text text-anchor="middle" x="1409" y="-153.109" font-family="Times,serif" font-size="9.00">enemyRadar[Left45ø]</text>
</g>
<!-- enemyRadar[Left45ø]&#45;&gt; Move Backward -->
<g id="edge72" class="edge"><title>enemyRadar[Left45ø]&#45;&gt; Move Backward</title>
<path fill="none" stroke="green" stroke-width="0.465138" d="M1426.92,-146.276C1457.47,-132.584 1520.94,-104.139 1568.44,-82.8476"/>
<polygon fill="green" stroke="green" stroke-width="0.465138" points="1570.02,-85.9751 1577.72,-78.6912 1567.16,-79.5873 1570.02,-85.9751"/>
</g>
<!-- enemyRadar[Left45ø]&#45;&gt;Move Left -->
<g id="edge46" class="edge"><title>enemyRadar[Left45ø]&#45;&gt;Move Left</title>
<path fill="none" stroke="red" stroke-width="0.43536" d="M1361.4,-146.768C1302.54,-137.224 1205.86,-120.77 1171,-110.309 1142.03,-101.615 1110.74,-88.4498 1086.35,-77.2771"/>
<polygon fill="red" stroke="red" stroke-width="0.43536" points="1087.56,-73.9834 1077.02,-72.9483 1084.62,-80.3329 1087.56,-73.9834"/>
</g>
<!-- enemyRadar[Left45ø]&#45;&gt;Move right -->
<g id="edge12" class="edge"><title>enemyRadar[Left45ø]&#45;&gt;Move right</title>
<path fill="none" stroke="green" stroke-width="0.190322" d="M1361.45,-147.339C1358.25,-146.962 1355.08,-146.614 1352,-146.309 1076,-119.012 999.532,-171.43 729,-110.309 698.272,-103.366 665.476,-90.0839 640.139,-78.4115"/>
<polygon fill="green" stroke="green" stroke-width="0.190322" points="641.353,-75.1149 630.813,-74.0333 638.378,-81.4513 641.353,-75.1149"/>
</g>
<!-- enemyRadar[RightFront20ø] -->
<g id="node13" class="node"><title>enemyRadar[RightFront20ø]</title>
<polygon fill="lightgray" stroke="black" points="354.5,-164.309 235.5,-164.309 235.5,-146.309 354.5,-146.309 354.5,-164.309"/>
<text text-anchor="middle" x="295" y="-153.109" font-family="Times,serif" font-size="9.00">enemyRadar[RightFront20ø]</text>
</g>
<!-- enemyRadar[RightFront20ø]&#45;&gt;Move Left -->
<g id="edge43" class="edge"><title>enemyRadar[RightFront20ø]&#45;&gt;Move Left</title>
<path fill="none" stroke="green" stroke-width="0.186801" stroke-dasharray="1,5" d="M354.819,-147.177C357.923,-146.868 360.997,-146.576 364,-146.309 491.743,-134.919 816.508,-144.917 940,-110.309 961.9,-104.171 984.458,-92.959 1002.86,-82.3223"/>
<polygon fill="green" stroke="green" stroke-width="0.186801" points="1004.72,-85.2852 1011.54,-77.1716 1001.15,-79.2656 1004.72,-85.2852"/>
</g>
<!-- enemyRadar[RightFront20ø]&#45;&gt;Move right -->
<g id="edge7" class="edge"><title>enemyRadar[RightFront20ø]&#45;&gt;Move right</title>
<path fill="none" stroke="red" stroke-width="0.223381" d="M319.632,-146.276C369.713,-129.945 484.146,-92.6292 548.962,-71.4931"/>
<polygon fill="red" stroke="red" stroke-width="0.223381" points="550.114,-74.7988 558.536,-68.371 547.944,-68.1437 550.114,-74.7988"/>
</g>
<!-- enemyRadar[RightFront20ø]&#45;&gt;Turn Right -->
<g id="edge69" class="edge"><title>enemyRadar[RightFront20ø]&#45;&gt;Turn Right</title>
<path fill="none" stroke="red" stroke-width="0.170918" stroke-dasharray="1,5" d="M354.826,-147.249C357.928,-146.922 361,-146.606 364,-146.309 557.93,-127.084 615.525,-170.118 801,-110.309 818.555,-104.648 836.288,-95.0062 851.317,-85.4131"/>
<polygon fill="red" stroke="red" stroke-width="0.170918" points="853.409,-88.2265 859.832,-79.8009 849.556,-82.3817 853.409,-88.2265"/>
</g>
<!-- enemyRadar[LeftFront20ø] -->
<g id="node14" class="node"><title>enemyRadar[LeftFront20ø]</title>
<polygon fill="lightgray" stroke="black" points="2035,-164.309 1921,-164.309 1921,-146.309 2035,-146.309 2035,-164.309"/>
<text text-anchor="middle" x="1978" y="-153.109" font-family="Times,serif" font-size="9.00">enemyRadar[LeftFront20ø]</text>
</g>
<!-- enemyRadar[LeftFront20ø]&#45;&gt;Move Left -->
<g id="edge35" class="edge"><title>enemyRadar[LeftFront20ø]&#45;&gt;Move Left</title>
<path fill="none" stroke="green" stroke-width="0.210343" stroke-dasharray="1,5" d="M1920.79,-147.118C1917.82,-146.825 1914.88,-146.552 1912,-146.309 1747.73,-132.381 1331.73,-146.993 1171,-110.309 1141.41,-103.554 1109.99,-90.3608 1085.68,-78.6879"/>
<polygon fill="green" stroke="green" stroke-width="0.210343" points="1086.92,-75.3971 1076.4,-74.1383 1083.84,-81.6826 1086.92,-75.3971"/>
</g>
<!-- enemyRadar[LeftFront20ø]&#45;&gt;Turn Left -->
<g id="edge38" class="edge"><title>enemyRadar[LeftFront20ø]&#45;&gt;Turn Left</title>
<path fill="none" stroke="green" stroke-width="0.114625" d="M1920.77,-147.309C1917.8,-146.966 1914.87,-146.631 1912,-146.309 1757.48,-128.953 1717.07,-137.624 1564,-110.309 1504.97,-99.7751 1438.14,-81.643 1395.56,-69.2872"/>
<polygon fill="green" stroke="green" stroke-width="0.114625" points="1396.39,-65.8822 1385.81,-66.4339 1394.43,-72.6007 1396.39,-65.8822"/>
</g>
<!-- enemyRadar[RightFront15ø] -->
<g id="node15" class="node"><title>enemyRadar[RightFront15ø]</title>
<polygon fill="lightgray" stroke="black" points="2279.5,-164.309 2160.5,-164.309 2160.5,-146.309 2279.5,-146.309 2279.5,-164.309"/>
<text text-anchor="middle" x="2220" y="-153.109" font-family="Times,serif" font-size="9.00">enemyRadar[RightFront15ø]</text>
</g>
<!-- enemyRadar[RightFront15ø]&#45;&gt; Move Backward -->
<g id="edge13" class="edge"><title>enemyRadar[RightFront15ø]&#45;&gt; Move Backward</title>
<path fill="none" stroke="red" stroke-width="0.140537" d="M2171.55,-146.276C2065.43,-128.681 1812.39,-86.7265 1692.77,-66.893"/>
<polygon fill="red" stroke="red" stroke-width="0.140537" points="1693.09,-63.3992 1682.66,-65.2163 1691.95,-70.3049 1693.09,-63.3992"/>
</g>
<!-- enemyRadar[RightFront15ø]&#45;&gt;Turn Left -->
<g id="edge79" class="edge"><title>enemyRadar[RightFront15ø]&#45;&gt;Turn Left</title>
<path fill="none" stroke="red" stroke-width="0.345725" stroke-dasharray="1,5" d="M2160.32,-147.096C2157.51,-146.816 2154.72,-146.552 2152,-146.309 1891.22,-123.004 1822.66,-150.89 1564,-110.309 1504.76,-101.015 1437.98,-82.5937 1395.47,-69.834"/>
<polygon fill="red" stroke="red" stroke-width="0.345725" points="1396.32,-66.4336 1385.74,-66.882 1394.29,-73.1326 1396.32,-66.4336"/>
</g>
<!-- enemyRadar[RightFront15ø]&#45;&gt;Turn Right -->
<g id="edge37" class="edge"><title>enemyRadar[RightFront15ø]&#45;&gt;Turn Right</title>
<path fill="none" stroke="red" stroke-width="0.932142" d="M2160.32,-146.994C2157.51,-146.742 2154.73,-146.511 2152,-146.309 1895.69,-127.276 1244.79,-174.804 996,-110.309 973.989,-104.603 951.351,-93.6832 932.757,-83.1355"/>
<polygon fill="red" stroke="red" stroke-width="0.932142" points="934.376,-80.0277 923.974,-78.012 930.848,-86.0741 934.376,-80.0277"/>
</g>
<!-- enemyRadar[LeftFront15ø] -->
<g id="node16" class="node"><title>enemyRadar[LeftFront15ø]</title>
<polygon fill="lightgray" stroke="black" points="653,-164.309 539,-164.309 539,-146.309 653,-146.309 653,-164.309"/>
<text text-anchor="middle" x="596" y="-153.109" font-family="Times,serif" font-size="9.00">enemyRadar[LeftFront15ø]</text>
</g>
<!-- enemyRadar[LeftFront15ø]&#45;&gt;Shoot -->
<g id="edge26" class="edge"><title>enemyRadar[LeftFront15ø]&#45;&gt;Shoot</title>
<path fill="none" stroke="green" stroke-width="0.369294" stroke-dasharray="1,5" d="M609.83,-146.276C636.574,-130.744 696.002,-96.228 733.06,-74.705"/>
<polygon fill="green" stroke="green" stroke-width="0.369294" points="735.076,-77.5813 741.966,-69.5324 731.561,-71.5282 735.076,-77.5813"/>
</g>
<!-- enemyRadar[LeftFront15ø]&#45;&gt;Move Left -->
<g id="edge10" class="edge"><title>enemyRadar[LeftFront15ø]&#45;&gt;Move Left</title>
<path fill="none" stroke="red" stroke-width="0.212847" d="M653.343,-147.237C749.437,-135.351 933.226,-112.446 940,-110.309 961.69,-103.465 984.222,-92.1677 1002.66,-81.6573"/>
<polygon fill="red" stroke="red" stroke-width="0.212847" points="1004.49,-84.6444 1011.36,-76.5838 1000.96,-78.5972 1004.49,-84.6444"/>
</g>
<!-- enemyRadar[LeftFront15ø]&#45;&gt;Move right -->
<g id="edge5" class="edge"><title>enemyRadar[LeftFront15ø]&#45;&gt;Move right</title>
<path fill="none" stroke="green" stroke-width="0.302534" d="M596,-146.276C596,-137.112 596,-121.34 596,-105.527"/>
<polygon fill="green" stroke="green" stroke-width="0.302534" points="599.5,-105.199 596,-95.1987 592.5,-105.199 599.5,-105.199"/>
</g>
<!-- enemyRadar[LeftFront15ø]&#45;&gt;Turn Left -->
<g id="edge53" class="edge"><title>enemyRadar[LeftFront15ø]&#45;&gt;Turn Left</title>
<path fill="none" stroke="green" stroke-width="0.121199" d="M653.214,-147.143C656.183,-146.844 659.126,-146.563 662,-146.309 733.499,-139.987 1242.89,-142.599 1307,-110.309 1314.85,-106.356 1321.83,-100.354 1327.83,-93.7653"/>
<polygon fill="green" stroke="green" stroke-width="0.121199" points="1330.7,-95.7789 1334.4,-85.8484 1325.32,-91.3088 1330.7,-95.7789"/>
</g>
<!-- enemyRadar[LeftFront15ø]&#45;&gt;Turn Right -->
<g id="edge32" class="edge"><title>enemyRadar[LeftFront15ø]&#45;&gt;Turn Right</title>
<path fill="none" stroke="red" stroke-width="0.174523" d="M653.155,-147.211C695.116,-140.775 752.932,-129.316 801,-110.309 818.011,-103.582 835.509,-93.8122 850.501,-84.4166"/>
<polygon fill="red" stroke="red" stroke-width="0.174523" points="852.489,-87.2996 859.016,-78.9538 848.71,-81.4079 852.489,-87.2996"/>
</g>
<!-- enemyRadar[RightFront7.5ø] -->
<g id="node17" class="node"><title>enemyRadar[RightFront7.5ø]</title>
<polygon fill="lightgray" stroke="black" points="1343,-164.309 1221,-164.309 1221,-146.309 1343,-146.309 1343,-164.309"/>
<text text-anchor="middle" x="1282" y="-153.109" font-family="Times,serif" font-size="9.00">enemyRadar[RightFront7.5ø]</text>
</g>
<!-- enemyRadar[RightFront7.5ø]&#45;&gt;Move Forward -->
<g id="edge39" class="edge"><title>enemyRadar[RightFront7.5ø]&#45;&gt;Move Forward</title>
<path fill="none" stroke="green" stroke-width="0.580498" stroke-dasharray="1,5" d="M1277.74,-146.276C1273.25,-137.783 1265.74,-123.614 1258,-108.997"/>
<polygon fill="green" stroke="green" stroke-width="0.580498" points="1260.94,-107.083 1253.17,-99.8851 1254.76,-110.36 1260.94,-107.083"/>
</g>
<!-- enemyRadar[RightFront7.5ø]&#45;&gt;Move right -->
<g id="edge20" class="edge"><title>enemyRadar[RightFront7.5ø]&#45;&gt;Move right</title>
<path fill="none" stroke="green" stroke-width="0.389566" stroke-dasharray="1,5" d="M1220.93,-147.186C1217.91,-146.879 1214.92,-146.584 1212,-146.309 997.69,-126.084 938.567,-159.496 729,-110.309 698.439,-103.136 665.766,-89.9179 640.451,-78.3368"/>
<polygon fill="green" stroke="green" stroke-width="0.389566" points="641.672,-75.0444 631.13,-73.9944 638.716,-81.3897 641.672,-75.0444"/>
</g>
<!-- enemyRadar[RightFront7.5ø]&#45;&gt;Turn Left -->
<g id="edge60" class="edge"><title>enemyRadar[RightFront7.5ø]&#45;&gt;Turn Left</title>
<path fill="none" stroke="green" stroke-width="0.222193" d="M1287.73,-146.276C1296.07,-134.578 1312.09,-112.113 1326.05,-92.5394"/>
<polygon fill="green" stroke="green" stroke-width="0.222193" points="1328.92,-94.5416 1331.88,-84.3677 1323.22,-90.4772 1328.92,-94.5416"/>
</g>
<!-- enemyRadar[LeftFront7.5ø] -->
<g id="node18" class="node"><title>enemyRadar[LeftFront7.5ø]</title>
<polygon fill="lightgray" stroke="black" points="1799,-164.309 1683,-164.309 1683,-146.309 1799,-146.309 1799,-164.309"/>
<text text-anchor="middle" x="1741" y="-153.109" font-family="Times,serif" font-size="9.00">enemyRadar[LeftFront7.5ø]</text>
</g>
<!-- enemyRadar[LeftFront7.5ø]&#45;&gt;Move Forward -->
<g id="edge55" class="edge"><title>enemyRadar[LeftFront7.5ø]&#45;&gt;Move Forward</title>
<path fill="none" stroke="green" stroke-width="0.237249" d="M1682.9,-147.297C1679.89,-146.957 1676.91,-146.626 1674,-146.309 1511.51,-128.618 1461.4,-166.734 1308,-110.309 1297.11,-106.303 1286.31,-100.407 1276.38,-93.962"/>
<polygon fill="green" stroke="green" stroke-width="0.237249" points="1278.13,-90.9196 1267.89,-88.1909 1274.19,-96.7082 1278.13,-90.9196"/>
</g>
<!-- enemyRadar[LeftFront7.5ø]&#45;&gt;Turn Left -->
<g id="edge64" class="edge"><title>enemyRadar[LeftFront7.5ø]&#45;&gt;Turn Left</title>
<path fill="none" stroke="green" stroke-width="0.165299" d="M1708.36,-146.262C1672.83,-137.487 1614.36,-122.999 1564,-110.309 1505.86,-95.6557 1438.82,-78.4841 1395.96,-67.4705"/>
<polygon fill="green" stroke="green" stroke-width="0.165299" points="1396.69,-64.0448 1386.13,-64.9449 1394.94,-70.8244 1396.69,-64.0448"/>
</g>
<!-- enemyRadar[LeftFront7.5ø]&#45;&gt;Turn Right -->
<g id="edge50" class="edge"><title>enemyRadar[LeftFront7.5ø]&#45;&gt;Turn Right</title>
<path fill="none" stroke="red" stroke-width="0.998193" d="M1682.92,-147.137C1679.9,-146.839 1676.92,-146.56 1674,-146.309 1523.68,-133.357 1141.63,-149.768 996,-110.309 974.053,-104.362 951.424,-93.4101 932.819,-82.9033"/>
<polygon fill="red" stroke="red" stroke-width="0.998193" points="934.436,-79.795 924.029,-77.805 930.923,-85.8501 934.436,-79.795"/>
</g>
<!-- enemyRadar[RightFront2.5ø] -->
<g id="node19" class="node"><title>enemyRadar[RightFront2.5ø]</title>
<polygon fill="lightgray" stroke="black" points="2511,-164.309 2389,-164.309 2389,-146.309 2511,-146.309 2511,-164.309"/>
<text text-anchor="middle" x="2450" y="-153.109" font-family="Times,serif" font-size="9.00">enemyRadar[RightFront2.5ø]</text>
</g>
<!-- enemyRadar[LeftFront2.5ø] -->
<g id="node20" class="node"><title>enemyRadar[LeftFront2.5ø]</title>
<polygon fill="lightgray" stroke="black" points="116,-164.309 7.10543e-15,-164.309 7.10543e-15,-146.309 116,-146.309 116,-164.309"/>
<text text-anchor="middle" x="58" y="-153.109" font-family="Times,serif" font-size="9.00">enemyRadar[LeftFront2.5ø]</text>
</g>
<!-- enemyRadar[LeftFront2.5ø]&#45;&gt;Shoot -->
<g id="edge34" class="edge"><title>enemyRadar[LeftFront2.5ø]&#45;&gt;Shoot</title>
<path fill="none" stroke="green" stroke-width="0.261969" d="M116.085,-147.186C119.099,-146.875 122.084,-146.58 125,-146.309 363.614,-124.095 432.519,-175.948 663,-110.309 688.584,-103.022 715.047,-88.7422 734.606,-76.6749"/>
<polygon fill="green" stroke="green" stroke-width="0.261969" points="736.496,-79.6209 743.079,-71.3192 732.756,-73.7039 736.496,-79.6209"/>
</g>
<!-- enemyRadar[LeftFront2.5ø]&#45;&gt;Move right -->
<g id="edge22" class="edge"><title>enemyRadar[LeftFront2.5ø]&#45;&gt;Move right</title>
<path fill="none" stroke="red" stroke-width="0.325886" d="M102.027,-146.276C201.482,-128.131 442.925,-84.0818 546.964,-65.1006"/>
<polygon fill="red" stroke="red" stroke-width="0.325886" points="547.681,-68.5277 556.89,-63.2896 546.424,-61.6413 547.681,-68.5277"/>
</g>
<!-- enemyRadar[LeftFront2.5ø]&#45;&gt;Turn Right -->
<g id="edge42" class="edge"><title>enemyRadar[LeftFront2.5ø]&#45;&gt;Turn Right</title>
<path fill="none" stroke="green" stroke-width="0.159745" d="M116.081,-147.137C119.095,-146.839 122.082,-146.56 125,-146.309 274.879,-133.384 657.171,-154.397 801,-110.309 818.635,-104.903 836.385,-95.3147 851.405,-85.693"/>
<polygon fill="green" stroke="green" stroke-width="0.159745" points="853.51,-88.4971 859.912,-80.0554 849.643,-82.6621 853.51,-88.4971"/>
</g>
<!-- OnTarget -->
<g id="node21" class="node"><title>OnTarget</title>
<polygon fill="lightgray" stroke="black" points="1203,-164.309 1153,-164.309 1153,-146.309 1203,-146.309 1203,-164.309"/>
<text text-anchor="middle" x="1178" y="-153.109" font-family="Times,serif" font-size="9.00">OnTarget</text>
</g>
<!-- OnTarget&#45;&gt;Move Forward -->
<g id="edge6" class="edge"><title>OnTarget&#45;&gt;Move Forward</title>
<path fill="none" stroke="green" stroke-width="0.737542" d="M1182.26,-146.276C1186.75,-137.783 1194.26,-123.614 1202,-108.997"/>
<polygon fill="green" stroke="green" stroke-width="0.737542" points="1205.24,-110.36 1206.83,-99.8851 1199.06,-107.083 1205.24,-110.36"/>
</g>
<!-- OnTarget&#45;&gt;Move Left -->
<g id="edge33" class="edge"><title>OnTarget&#45;&gt;Move Left</title>
<path fill="none" stroke="red" stroke-width="0.348175" stroke-dasharray="1,5" d="M1166.95,-146.276C1148.55,-132.9 1110.79,-105.444 1081.76,-84.333"/>
<polygon fill="red" stroke="red" stroke-width="0.348175" points="1083.59,-81.3361 1073.44,-78.2863 1079.47,-86.9978 1083.59,-81.3361"/>
</g>
<!-- OnTarget&#45;&gt;Move right -->
<g id="edge57" class="edge"><title>OnTarget&#45;&gt;Move right</title>
<path fill="none" stroke="green" stroke-width="0.30929" d="M1152.83,-147.959C1149.87,-147.338 1146.87,-146.769 1144,-146.309 961.193,-117.03 908.979,-153.705 729,-110.309 698.483,-102.95 665.811,-89.7296 640.486,-78.1933"/>
<polygon fill="green" stroke="green" stroke-width="0.30929" points="641.704,-74.9003 631.159,-73.8701 638.76,-81.2511 641.704,-74.9003"/>
</g>
<!-- OnTarget&#45;&gt;Turn Left -->
<g id="edge47" class="edge"><title>OnTarget&#45;&gt;Turn Left</title>
<path fill="none" stroke="green" stroke-width="0.29185" d="M1203.17,-147.486C1235.62,-138.394 1289.9,-122.086 1307,-110.309 1314.02,-105.475 1320.55,-99.2573 1326.34,-92.7683"/>
<polygon fill="green" stroke="green" stroke-width="0.29185" points="1329.04,-95.0023 1332.79,-85.0927 1323.68,-90.5017 1329.04,-95.0023"/>
</g>
<!-- TakingDmg -->
<g id="node22" class="node"><title>TakingDmg</title>
<polygon fill="lightgray" stroke="black" points="520.5,-164.309 461.5,-164.309 461.5,-146.309 520.5,-146.309 520.5,-164.309"/>
<text text-anchor="middle" x="491" y="-153.109" font-family="Times,serif" font-size="9.00">TakingDmg</text>
</g>
<!-- TakingDmg&#45;&gt;Shoot -->
<g id="edge49" class="edge"><title>TakingDmg&#45;&gt;Shoot</title>
<path fill="none" stroke="green" stroke-width="0.417422" stroke-dasharray="1,5" d="M520.636,-147.625C562.605,-138.006 637.129,-120.321 663,-110.309 687.535,-100.813 713.717,-86.8239 733.411,-75.4424"/>
<polygon fill="green" stroke="green" stroke-width="0.417422" points="735.392,-78.3378 742.247,-70.2593 731.851,-72.2999 735.392,-78.3378"/>
</g>
<!-- TakingDmg&#45;&gt;Move Forward -->
<g id="edge63" class="edge"><title>TakingDmg&#45;&gt;Move Forward</title>
<path fill="none" stroke="green" stroke-width="0.174838" stroke-dasharray="1,5" d="M520.738,-147.768C523.856,-147.214 526.986,-146.713 530,-146.309 777.191,-113.172 846.427,-163.919 1090,-110.309 1119.11,-103.901 1150.16,-92.4075 1175.6,-81.6525"/>
<polygon fill="green" stroke="green" stroke-width="0.174838" points="1177.26,-84.7485 1185.06,-77.5788 1174.49,-78.3193 1177.26,-84.7485"/>
</g>
<!-- TakingDmg&#45;&gt;Move Left -->
<g id="edge75" class="edge"><title>TakingDmg&#45;&gt;Move Left</title>
<path fill="none" stroke="red" stroke-width="0.812398" d="M520.748,-147.84C523.864,-147.273 526.991,-146.748 530,-146.309 711.005,-119.887 764.498,-161.882 940,-110.309 961.821,-103.896 984.369,-92.6508 1002.78,-82.0633"/>
<polygon fill="red" stroke="red" stroke-width="0.812398" points="1004.63,-85.0359 1011.47,-76.9427 1001.08,-79.0055 1004.63,-85.0359"/>
</g>
<!-- TakingDmg&#45;&gt;Move right -->
<g id="edge44" class="edge"><title>TakingDmg&#45;&gt;Move right</title>
<path fill="none" stroke="green" stroke-width="0.128219" d="M499.593,-146.276C512.649,-134.071 538.243,-110.146 559.78,-90.0126"/>
<polygon fill="green" stroke="green" stroke-width="0.128219" points="562.287,-92.4606 567.202,-83.0748 557.507,-87.3469 562.287,-92.4606"/>
</g>
<!-- TakingDmg&#45;&gt;Turn Right -->
<g id="edge62" class="edge"><title>TakingDmg&#45;&gt;Turn Right</title>
<path fill="none" stroke="red" stroke-width="0.156808" d="M520.77,-147.978C523.881,-147.383 527.001,-146.815 530,-146.309 649.808,-126.089 686.327,-150.47 801,-110.309 818.264,-104.262 835.818,-94.6394 850.783,-85.1712"/>
<polygon fill="red" stroke="red" stroke-width="0.156808" points="852.803,-88.0324 859.273,-79.6426 848.983,-82.1664 852.803,-88.0324"/>
</g>
<!-- bias -->
<g id="node23" class="node"><title>bias</title>
<polygon fill="lightgray" stroke="black" points="1016.5,-164.309 985.5,-164.309 985.5,-146.309 1016.5,-146.309 1016.5,-164.309"/>
<text text-anchor="middle" x="1001" y="-153.109" font-family="Times,serif" font-size="9.00">bias</text>
</g>
<!-- bias&#45;&gt;Shoot -->
<g id="edge14" class="edge"><title>bias&#45;&gt;Shoot</title>
<path fill="none" stroke="green" stroke-width="0.308052" stroke-dasharray="1,5" d="M985.432,-149.202C982.316,-148.215 979.06,-147.209 976,-146.309 916.839,-128.906 897.854,-136.447 842,-110.309 824.716,-102.22 807.18,-90.2439 793.217,-79.6091"/>
<polygon fill="green" stroke="green" stroke-width="0.308052" points="795.055,-76.6038 785.019,-73.2076 790.747,-82.1209 795.055,-76.6038"/>
</g>
<!-- bias&#45;&gt; Move Backward -->
<g id="edge30" class="edge"><title>bias&#45;&gt; Move Backward</title>
<path fill="none" stroke="green" stroke-width="0.137883" d="M1016.73,-148.715C1019.78,-147.792 1022.97,-146.934 1026,-146.309 1187.82,-112.942 1232.97,-137.146 1396,-110.309 1453.79,-100.795 1518.64,-85.2359 1565.05,-73.2307"/>
<polygon fill="green" stroke="green" stroke-width="0.137883" points="1566.16,-76.5574 1574.96,-70.6493 1564.4,-69.7836 1566.16,-76.5574"/>
</g>
<!-- bias&#45;&gt;Move Left -->
<g id="edge65" class="edge"><title>bias&#45;&gt;Move Left</title>
<path fill="none" stroke="red" stroke-width="0.545741" d="M1004.44,-146.276C1008.8,-136.078 1016.67,-117.695 1024.16,-100.18"/>
<polygon fill="red" stroke="red" stroke-width="0.545741" points="1027.55,-101.167 1028.26,-90.596 1021.11,-98.4128 1027.55,-101.167"/>
</g>
<!-- bias&#45;&gt;Move right -->
<g id="edge17" class="edge"><title>bias&#45;&gt;Move right</title>
<path fill="none" stroke="red" stroke-width="0.586195" d="M985.239,-148.832C982.198,-147.898 979.019,-147.007 976,-146.309 867.914,-121.318 836.045,-139.44 729,-110.309 698.71,-102.066 666.041,-88.8303 640.661,-77.5079"/>
<polygon fill="red" stroke="red" stroke-width="0.586195" points="641.865,-74.2109 631.311,-73.2765 638.979,-80.5882 641.865,-74.2109"/>
</g>
<!-- bias&#45;&gt;Turn Left -->
<g id="edge51" class="edge"><title>bias&#45;&gt;Turn Left</title>
<path fill="none" stroke="red" stroke-width="0.14501" d="M1016.75,-148.789C1019.79,-147.86 1022.97,-146.981 1026,-146.309 1148.91,-119.008 1196.65,-170.942 1307,-110.309 1314.62,-106.12 1321.49,-100.076 1327.42,-93.5314"/>
<polygon fill="red" stroke="red" stroke-width="0.14501" points="1330.23,-95.6216 1333.95,-85.7002 1324.86,-91.1381 1330.23,-95.6216"/>
</g>
<!-- bias&#45;&gt;Turn Right -->
<g id="edge59" class="edge"><title>bias&#45;&gt;Turn Right</title>
<path fill="none" stroke="green" stroke-width="1.08823" d="M991.998,-146.276C978.076,-133.853 950.546,-109.288 927.74,-88.9383"/>
<polygon fill="green" stroke="green" stroke-width="1.08823" points="930.006,-86.2687 920.214,-82.2223 925.345,-91.4917 930.006,-86.2687"/>
</g>
<!-- Move Forward&#45;&gt;Move Forward -->
<g id="edge18" class="edge"><title>Move Forward&#45;&gt;Move Forward</title>
<path fill="none" stroke="green" stroke-width="0.240023" d="M1276.86,-73.7109C1289.03,-72.5703 1298.2,-66.3848 1298.2,-55.1543 1298.2,-47.2579 1293.67,-41.8556 1286.74,-38.9475"/>
<polygon fill="green" stroke="green" stroke-width="0.240023" points="1287.4,-35.5055 1276.86,-36.5977 1285.78,-42.3157 1287.4,-35.5055"/>
</g>
<!--  Move Backward&#45;&gt; Move Backward -->
<g id="edge31" class="edge"><title> Move Backward&#45;&gt; Move Backward</title>
<path fill="none" stroke="red" stroke-width="0.247785" stroke-dasharray="1,5" d="M1680.28,-73.4912C1692.31,-71.9111 1701.15,-65.7989 1701.15,-55.1543 1701.15,-47.6699 1696.78,-42.4261 1690,-39.423"/>
<polygon fill="red" stroke="red" stroke-width="0.247785" points="1690.84,-36.0242 1680.28,-36.8175 1689.03,-42.7858 1690.84,-36.0242"/>
</g>
<!-- Move right&#45;&gt;Move right -->
<g id="edge48" class="edge"><title>Move right&#45;&gt;Move right</title>
<path fill="none" stroke="red" stroke-width="0.105766" d="M631.151,-73.894C643.543,-74.1939 653.598,-67.9473 653.598,-55.1543 653.598,-46.1593 648.627,-40.4007 641.368,-37.8785"/>
<polygon fill="red" stroke="red" stroke-width="0.105766" points="641.547,-34.3684 631.151,-36.4146 640.554,-41.2977 641.547,-34.3684"/>
</g>
</g>
</svg>
