<?xml version="1.0" encoding="UTF-8" standalone="no"?>
<!DOCTYPE svg PUBLIC "-//W3C//DTD SVG 1.1//EN"
 "http://www.w3.org/Graphics/SVG/1.1/DTD/svg11.dtd">
<!-- Generated by graphviz version 2.38.0 (20140413.2041)
 -->
<!-- Title: %3 Pages: 1 -->
<svg width="2708pt" height="295pt"
 viewBox="0.00 0.00 2707.92 294.58" xmlns="http://www.w3.org/2000/svg" xmlns:xlink="http://www.w3.org/1999/xlink">
<g id="graph0" class="graph" transform="scale(1 1) rotate(0) translate(4 290.576)">
<title>%3</title>
<polygon fill="white" stroke="none" points="-4,4 -4,-290.576 2703.92,-290.576 2703.92,4 -4,4"/>
<!-- wallRadar[1,0] -->
<g id="node1" class="node"><title>wallRadar[1,0]</title>
<polygon fill="lightgray" stroke="black" points="1214.42,-220.362 1144.42,-220.362 1144.42,-202.362 1214.42,-202.362 1214.42,-220.362"/>
<text text-anchor="middle" x="1179.42" y="-209.162" font-family="Times,serif" font-size="9.00">wallRadar[1,0]</text>
</g>
<!-- Move Forward/Backward -->
<g id="node25" class="node"><title>Move Forward/Backward</title>
<ellipse fill="lightblue" stroke="black" cx="972.415" cy="-77.0746" rx="77.1494" ry="77.1494"/>
<text text-anchor="middle" x="972.415" y="-74.8746" font-family="Times,serif" font-size="9.00">Move Forward/Backward</text>
</g>
<!-- wallRadar[1,0]&#45;&gt;Move Forward/Backward -->
<g id="edge52" class="edge"><title>wallRadar[1,0]&#45;&gt;Move Forward/Backward</title>
<path fill="none" stroke="red" stroke-width="0.524133" stroke-dasharray="1,5" d="M1166.78,-202.286C1143.03,-187.109 1090.1,-153.286 1045.47,-124.762"/>
<polygon fill="red" stroke="red" stroke-width="0.524133" points="1047.26,-121.755 1036.95,-119.319 1043.49,-127.654 1047.26,-121.755"/>
</g>
<!-- Turn left/right -->
<g id="node27" class="node"><title>Turn left/right</title>
<ellipse fill="lightblue" stroke="black" cx="1485.42" cy="-77.0746" rx="46.8387" ry="46.8387"/>
<text text-anchor="middle" x="1485.42" y="-74.8746" font-family="Times,serif" font-size="9.00">Turn left/right</text>
</g>
<!-- wallRadar[1,0]&#45;&gt;Turn left/right -->
<g id="edge30" class="edge"><title>wallRadar[1,0]&#45;&gt;Turn left/right</title>
<path fill="none" stroke="green" stroke-width="0.329735" d="M1196.92,-202.19C1204.97,-198.468 1214.65,-194.034 1223.42,-190.149 1295.79,-158.051 1380.07,-122.285 1433.08,-99.9812"/>
<polygon fill="green" stroke="green" stroke-width="0.329735" points="1434.74,-103.079 1442.61,-95.9772 1432.03,-96.626 1434.74,-103.079"/>
</g>
<!-- wallRadar[0,1] -->
<g id="node2" class="node"><title>wallRadar[0,1]</title>
<polygon fill="lightgray" stroke="black" points="296.415,-220.362 226.415,-220.362 226.415,-202.362 296.415,-202.362 296.415,-220.362"/>
<text text-anchor="middle" x="261.415" y="-209.162" font-family="Times,serif" font-size="9.00">wallRadar[0,1]</text>
</g>
<!-- Shoot -->
<g id="node24" class="node"><title>Shoot</title>
<ellipse fill="lightblue" stroke="black" cx="474.415" cy="-77.0746" rx="26.7407" ry="26.7407"/>
<text text-anchor="middle" x="474.415" y="-74.8746" font-family="Times,serif" font-size="9.00">Shoot</text>
</g>
<!-- wallRadar[0,1]&#45;&gt;Shoot -->
<g id="edge28" class="edge"><title>wallRadar[0,1]&#45;&gt;Shoot</title>
<path fill="none" stroke="green" stroke-width="0.180407" stroke-dasharray="1,5" d="M274.418,-202.286C307.512,-181.733 395.657,-126.989 443.117,-97.513"/>
<polygon fill="green" stroke="green" stroke-width="0.180407" points="445.112,-100.394 451.761,-92.1446 441.419,-94.4474 445.112,-100.394"/>
</g>
<!-- wallRadar[0,1]&#45;&gt;Move Forward/Backward -->
<g id="edge40" class="edge"><title>wallRadar[0,1]&#45;&gt;Move Forward/Backward</title>
<path fill="none" stroke="red" stroke-width="0.594309" d="M276.5,-202.228C284.818,-198.054 295.452,-193.215 305.415,-190.149 319.28,-185.882 709.379,-121.389 886.451,-92.2172"/>
<polygon fill="red" stroke="red" stroke-width="0.594309" points="887.22,-95.6378 896.518,-90.559 886.082,-88.7309 887.22,-95.6378"/>
</g>
<!-- wallRadar[0,1]&#45;&gt;Turn left/right -->
<g id="edge19" class="edge"><title>wallRadar[0,1]&#45;&gt;Turn left/right</title>
<path fill="none" stroke="red" stroke-width="0.349093" stroke-dasharray="1,5" d="M275.575,-202.168C283.961,-197.752 294.961,-192.699 305.415,-190.149 468.17,-150.458 891.941,-172.88 1058.42,-154.149 1192.78,-139.031 1348.74,-107.692 1429.89,-90.3258"/>
<polygon fill="red" stroke="red" stroke-width="0.349093" points="1430.84,-93.7009 1439.88,-88.1767 1429.37,-86.8574 1430.84,-93.7009"/>
</g>
<!-- wallRadar[&#45;1,0] -->
<g id="node3" class="node"><title>wallRadar[&#45;1,0]</title>
<polygon fill="lightgray" stroke="black" points="1445.92,-220.362 1372.92,-220.362 1372.92,-202.362 1445.92,-202.362 1445.92,-220.362"/>
<text text-anchor="middle" x="1409.42" y="-209.162" font-family="Times,serif" font-size="9.00">wallRadar[&#45;1,0]</text>
</g>
<!-- wallRadar[&#45;1,0]&#45;&gt;Move Forward/Backward -->
<g id="edge45" class="edge"><title>wallRadar[&#45;1,0]&#45;&gt;Move Forward/Backward</title>
<path fill="none" stroke="red" stroke-width="0.415196" d="M1392.6,-202.32C1383.98,-198.369 1373.26,-193.705 1363.42,-190.149 1259.76,-152.711 1137.16,-119.265 1057.25,-98.8591"/>
<polygon fill="red" stroke="red" stroke-width="0.415196" points="1057.79,-95.385 1047.23,-96.3131 1056.06,-102.169 1057.79,-95.385"/>
</g>
<!--  Move Left/Right -->
<g id="node26" class="node"><title> Move Left/Right</title>
<ellipse fill="lightblue" stroke="black" cx="1844.42" cy="-77.0746" rx="55.3091" ry="55.3091"/>
<text text-anchor="middle" x="1844.42" y="-74.8746" font-family="Times,serif" font-size="9.00"> Move Left/Right</text>
</g>
<!-- wallRadar[&#45;1,0]&#45;&gt; Move Left/Right -->
<g id="edge20" class="edge"><title>wallRadar[&#45;1,0]&#45;&gt; Move Left/Right</title>
<path fill="none" stroke="red" stroke-width="0.473161" stroke-dasharray="1,5" d="M1426.23,-202.326C1434.85,-198.376 1445.57,-193.712 1455.42,-190.149 1567.99,-149.403 1703,-113.258 1780.73,-93.6326"/>
<polygon fill="red" stroke="red" stroke-width="0.473161" points="1782,-96.922 1790.84,-91.0902 1780.29,-90.1331 1782,-96.922"/>
</g>
<!-- wallRadar[&#45;1,0]&#45;&gt;Turn left/right -->
<g id="edge13" class="edge"><title>wallRadar[&#45;1,0]&#45;&gt;Turn left/right</title>
<path fill="none" stroke="red" stroke-width="0.329847" d="M1414.17,-202.087C1422.73,-187.183 1441.35,-154.777 1457.41,-126.829"/>
<polygon fill="red" stroke="red" stroke-width="0.329847" points="1460.57,-128.354 1462.51,-117.939 1454.5,-124.867 1460.57,-128.354"/>
</g>
<!-- wallRadar[0,&#45;1] -->
<g id="node4" class="node"><title>wallRadar[0,&#45;1]</title>
<polygon fill="lightgray" stroke="black" points="903.915,-220.362 830.915,-220.362 830.915,-202.362 903.915,-202.362 903.915,-220.362"/>
<text text-anchor="middle" x="867.415" y="-209.162" font-family="Times,serif" font-size="9.00">wallRadar[0,&#45;1]</text>
</g>
<!-- wallRadar[0,&#45;1]&#45;&gt;Move Forward/Backward -->
<g id="edge50" class="edge"><title>wallRadar[0,&#45;1]&#45;&gt;Move Forward/Backward</title>
<path fill="none" stroke="red" stroke-width="0.259653" stroke-dasharray="1,5" d="M873.983,-202.087C883.18,-190.5 900.774,-168.334 918.574,-145.908"/>
<polygon fill="red" stroke="red" stroke-width="0.259653" points="921.39,-147.99 924.865,-137.982 915.907,-143.639 921.39,-147.99"/>
</g>
<!-- wallRadar[0.7,0.7] -->
<g id="node5" class="node"><title>wallRadar[0.7,0.7]</title>
<polygon fill="lightgray" stroke="black" points="397.915,-220.362 314.915,-220.362 314.915,-202.362 397.915,-202.362 397.915,-220.362"/>
<text text-anchor="middle" x="356.415" y="-209.162" font-family="Times,serif" font-size="9.00">wallRadar[0.7,0.7]</text>
</g>
<!-- wallRadar[0.7,0.7]&#45;&gt;Shoot -->
<g id="edge7" class="edge"><title>wallRadar[0.7,0.7]&#45;&gt;Shoot</title>
<path fill="none" stroke="green" stroke-width="0.245544" d="M363.796,-202.087C380.656,-183.187 422.623,-136.138 449.746,-105.73"/>
<polygon fill="green" stroke="green" stroke-width="0.245544" points="452.589,-107.802 456.633,-98.0093 447.365,-103.142 452.589,-107.802"/>
</g>
<!-- wallRadar[0.7,0.7]&#45;&gt;Move Forward/Backward -->
<g id="edge33" class="edge"><title>wallRadar[0.7,0.7]&#45;&gt;Move Forward/Backward</title>
<path fill="none" stroke="red" stroke-width="0.271109" stroke-dasharray="1,5" d="M374.545,-202.246C384.164,-198.178 396.269,-193.434 407.415,-190.149 573.687,-141.15 773.827,-107.123 885.741,-90.2575"/>
<polygon fill="red" stroke="red" stroke-width="0.271109" points="886.589,-93.6697 895.96,-88.7282 885.553,-86.7468 886.589,-93.6697"/>
</g>
<!-- wallRadar[0.7,0.7]&#45;&gt;Turn left/right -->
<g id="edge39" class="edge"><title>wallRadar[0.7,0.7]&#45;&gt;Turn left/right</title>
<path fill="none" stroke="green" stroke-width="0.520367" d="M372.985,-202.218C382.758,-197.819 395.508,-192.766 407.415,-190.149 690.438,-127.96 770.58,-187.624 1058.42,-154.149 1192.72,-138.529 1348.71,-107.392 1429.87,-90.1916"/>
<polygon fill="green" stroke="green" stroke-width="0.520367" points="1430.82,-93.5691 1439.87,-88.0635 1429.36,-86.7225 1430.82,-93.5691"/>
</g>
<!-- wallRadar[&#45;0.7,0.7] -->
<g id="node6" class="node"><title>wallRadar[&#45;0.7,0.7]</title>
<polygon fill="lightgray" stroke="black" points="1126.42,-220.362 1040.42,-220.362 1040.42,-202.362 1126.42,-202.362 1126.42,-220.362"/>
<text text-anchor="middle" x="1083.42" y="-209.162" font-family="Times,serif" font-size="9.00">wallRadar[&#45;0.7,0.7]</text>
</g>
<!-- wallRadar[&#45;0.7,0.7]&#45;&gt;Shoot -->
<g id="edge26" class="edge"><title>wallRadar[&#45;0.7,0.7]&#45;&gt;Shoot</title>
<path fill="none" stroke="green" stroke-width="0.705698" d="M1064.91,-202.273C1055.1,-198.214 1042.76,-193.468 1031.42,-190.149 931.55,-160.929 617.987,-103.753 510.777,-84.5442"/>
<polygon fill="green" stroke="green" stroke-width="0.705698" points="511.229,-81.0695 500.769,-82.754 509.996,-87.9601 511.229,-81.0695"/>
</g>
<!-- wallRadar[&#45;0.7,0.7]&#45;&gt;Move Forward/Backward -->
<g id="edge47" class="edge"><title>wallRadar[&#45;0.7,0.7]&#45;&gt;Move Forward/Backward</title>
<path fill="none" stroke="red" stroke-width="0.20791" d="M1076.47,-202.087C1066.54,-190.246 1047.33,-167.357 1028.1,-144.434"/>
<polygon fill="red" stroke="red" stroke-width="0.20791" points="1030.69,-142.085 1021.58,-136.674 1025.33,-146.584 1030.69,-142.085"/>
</g>
<!-- wallRadar[&#45;0.7,0.7]&#45;&gt; Move Left/Right -->
<g id="edge3" class="edge"><title>wallRadar[&#45;0.7,0.7]&#45;&gt; Move Left/Right</title>
<path fill="none" stroke="green" stroke-width="1.02658" d="M1100.83,-202.168C1110.75,-197.867 1123.53,-192.927 1135.42,-190.149 1311.81,-148.923 1362.79,-184.299 1541.42,-154.149 1625.76,-139.912 1721.19,-114.342 1782.03,-96.8074"/>
<polygon fill="green" stroke="green" stroke-width="1.02658" points="1783.23,-100.103 1791.86,-93.957 1781.28,-93.3803 1783.23,-100.103"/>
</g>
<!-- wallRadar[&#45;0.7,0.7]&#45;&gt;Turn left/right -->
<g id="edge27" class="edge"><title>wallRadar[&#45;0.7,0.7]&#45;&gt;Turn left/right</title>
<path fill="none" stroke="green" stroke-width="0.310639" d="M1103.56,-202.204C1113.15,-198.401 1124.82,-193.9 1135.42,-190.149 1239.17,-153.409 1362.03,-115.291 1431.13,-94.3359"/>
<polygon fill="green" stroke="green" stroke-width="0.310639" points="1432.37,-97.6179 1440.93,-91.371 1430.34,-90.9181 1432.37,-97.6179"/>
</g>
<!-- wallRadar[&#45;0.7,&#45;0.7] -->
<g id="node7" class="node"><title>wallRadar[&#45;0.7,&#45;0.7]</title>
<polygon fill="lightgray" stroke="black" points="1613.92,-220.362 1524.92,-220.362 1524.92,-202.362 1613.92,-202.362 1613.92,-220.362"/>
<text text-anchor="middle" x="1569.42" y="-209.162" font-family="Times,serif" font-size="9.00">wallRadar[&#45;0.7,&#45;0.7]</text>
</g>
<!-- wallRadar[&#45;0.7,&#45;0.7]&#45;&gt;Move Forward/Backward -->
<g id="edge36" class="edge"><title>wallRadar[&#45;0.7,&#45;0.7]&#45;&gt;Move Forward/Backward</title>
<path fill="none" stroke="green" stroke-width="0.433459" d="M1550.16,-202.328C1539.96,-198.284 1527.15,-193.534 1515.42,-190.149 1356.61,-144.336 1166.54,-109.558 1058.6,-91.6236"/>
<polygon fill="green" stroke="green" stroke-width="0.433459" points="1058.85,-88.1177 1048.41,-89.9408 1057.71,-95.0241 1058.85,-88.1177"/>
</g>
<!-- wallRadar[&#45;0.7,&#45;0.7]&#45;&gt; Move Left/Right -->
<g id="edge35" class="edge"><title>wallRadar[&#45;0.7,&#45;0.7]&#45;&gt; Move Left/Right</title>
<path fill="none" stroke="green" stroke-width="0.139787" d="M1586.2,-202.286C1624.99,-183.626 1722.37,-136.783 1785.84,-106.254"/>
<polygon fill="green" stroke="green" stroke-width="0.139787" points="1787.45,-109.363 1794.94,-101.874 1784.41,-103.055 1787.45,-109.363"/>
</g>
<!-- wallRadar[&#45;0.7,&#45;0.7]&#45;&gt;Turn left/right -->
<g id="edge24" class="edge"><title>wallRadar[&#45;0.7,&#45;0.7]&#45;&gt;Turn left/right</title>
<path fill="none" stroke="green" stroke-width="0.117851" d="M1564.16,-202.087C1554.56,-186.965 1533.51,-153.824 1515.59,-125.603"/>
<polygon fill="green" stroke="green" stroke-width="0.117851" points="1518.47,-123.595 1510.15,-117.029 1512.56,-127.347 1518.47,-123.595"/>
</g>
<!-- wallRadar[0.7,&#45;0.7] -->
<g id="node8" class="node"><title>wallRadar[0.7,&#45;0.7]</title>
<polygon fill="lightgray" stroke="black" points="636.415,-220.362 550.415,-220.362 550.415,-202.362 636.415,-202.362 636.415,-220.362"/>
<text text-anchor="middle" x="593.415" y="-209.162" font-family="Times,serif" font-size="9.00">wallRadar[0.7,&#45;0.7]</text>
</g>
<!-- wallRadar[0.7,&#45;0.7]&#45;&gt;Shoot -->
<g id="edge44" class="edge"><title>wallRadar[0.7,&#45;0.7]&#45;&gt;Shoot</title>
<path fill="none" stroke="red" stroke-width="0.109107" d="M585.971,-202.087C568.876,-183.083 526.18,-135.62 498.843,-105.231"/>
<polygon fill="red" stroke="red" stroke-width="0.109107" points="501.202,-102.619 491.912,-97.5253 495.998,-107.301 501.202,-102.619"/>
</g>
<!-- wallRadar[0.7,&#45;0.7]&#45;&gt; Move Left/Right -->
<g id="edge5" class="edge"><title>wallRadar[0.7,&#45;0.7]&#45;&gt; Move Left/Right</title>
<path fill="none" stroke="red" stroke-width="1.57904" d="M609.847,-202.36C619.871,-197.89 633.088,-192.718 645.415,-190.149 1035.58,-108.844 1146.94,-210.975 1541.42,-154.149 1626.08,-141.952 1721.43,-115.909 1782.17,-97.7095"/>
<polygon fill="red" stroke="red" stroke-width="1.57904" points="1783.42,-100.988 1791.98,-94.7468 1781.4,-94.2864 1783.42,-100.988"/>
</g>
<!-- enemyRadar[RightBack] -->
<g id="node9" class="node"><title>enemyRadar[RightBack]</title>
<polygon fill="lightgray" stroke="black" points="2281.42,-220.362 2177.42,-220.362 2177.42,-202.362 2281.42,-202.362 2281.42,-220.362"/>
<text text-anchor="middle" x="2229.42" y="-209.162" font-family="Times,serif" font-size="9.00">enemyRadar[RightBack]</text>
</g>
<!-- enemyRadar[RightBack]&#45;&gt; Move Left/Right -->
<g id="edge8" class="edge"><title>enemyRadar[RightBack]&#45;&gt; Move Left/Right</title>
<path fill="none" stroke="green" stroke-width="0.180445" d="M2205.91,-202.286C2147.22,-182.118 1992.71,-129.028 1905.88,-99.1959"/>
<polygon fill="green" stroke="green" stroke-width="0.180445" points="1907.01,-95.8815 1896.41,-95.9419 1904.73,-102.502 1907.01,-95.8815"/>
</g>
<!-- enemyRadar[RightBack]&#45;&gt;Turn left/right -->
<g id="edge17" class="edge"><title>enemyRadar[RightBack]&#45;&gt;Turn left/right</title>
<path fill="none" stroke="red" stroke-width="0.479741" d="M2209.12,-202.348C2197.4,-198.048 2182.28,-193.051 2168.42,-190.149 1998.9,-154.683 1951.03,-183.867 1780.42,-154.149 1695.2,-139.307 1598.47,-112.382 1539.72,-94.8689"/>
<polygon fill="red" stroke="red" stroke-width="0.479741" points="1540.49,-91.4481 1529.91,-91.9282 1538.48,-98.1532 1540.49,-91.4481"/>
</g>
<!-- enemyRadar[LeftBack] -->
<g id="node10" class="node"><title>enemyRadar[LeftBack]</title>
<polygon fill="lightgray" stroke="black" points="1730.92,-220.362 1631.92,-220.362 1631.92,-202.362 1730.92,-202.362 1730.92,-220.362"/>
<text text-anchor="middle" x="1681.42" y="-209.162" font-family="Times,serif" font-size="9.00">enemyRadar[LeftBack]</text>
</g>
<!-- enemyRadar[LeftBack]&#45;&gt;Move Forward/Backward -->
<g id="edge49" class="edge"><title>enemyRadar[LeftBack]&#45;&gt;Move Forward/Backward</title>
<path fill="none" stroke="green" stroke-width="0.25928" d="M1661,-202.322C1650,-198.226 1636.11,-193.431 1623.42,-190.149 1596.22,-183.12 1229.17,-121.176 1058.53,-92.5122"/>
<polygon fill="green" stroke="green" stroke-width="0.25928" points="1059.01,-89.0442 1048.57,-90.8395 1057.85,-95.9475 1059.01,-89.0442"/>
</g>
<!-- enemyRadar[LeftBack]&#45;&gt; Move Left/Right -->
<g id="edge37" class="edge"><title>enemyRadar[LeftBack]&#45;&gt; Move Left/Right</title>
<path fill="none" stroke="green" stroke-width="0.158024" stroke-dasharray="1,5" d="M1691.61,-202.087C1711.7,-185.785 1757.59,-148.542 1793.87,-119.099"/>
<polygon fill="green" stroke="green" stroke-width="0.158024" points="1796.36,-121.584 1801.92,-112.565 1791.95,-116.149 1796.36,-121.584"/>
</g>
<!-- enemyRadar[Right45ø] -->
<g id="node11" class="node"><title>enemyRadar[Right45ø]</title>
<polygon fill="lightgray" stroke="black" points="1022.42,-220.362 922.415,-220.362 922.415,-202.362 1022.42,-202.362 1022.42,-220.362"/>
<text text-anchor="middle" x="972.415" y="-209.162" font-family="Times,serif" font-size="9.00">enemyRadar[Right45ø]</text>
</g>
<!-- enemyRadar[Right45ø]&#45;&gt;Shoot -->
<g id="edge11" class="edge"><title>enemyRadar[Right45ø]&#45;&gt;Shoot</title>
<path fill="none" stroke="red" stroke-width="0.190225" d="M949.749,-202.283C938.572,-198.412 924.852,-193.83 912.415,-190.149 764.514,-146.38 585.594,-103.769 510.422,-86.3282"/>
<polygon fill="red" stroke="red" stroke-width="0.190225" points="511.049,-82.8809 500.518,-84.0368 509.472,-89.7008 511.049,-82.8809"/>
</g>
<!-- enemyRadar[Right45ø]&#45;&gt;Move Forward/Backward -->
<g id="edge9" class="edge"><title>enemyRadar[Right45ø]&#45;&gt;Move Forward/Backward</title>
<path fill="none" stroke="red" stroke-width="0.493612" d="M972.415,-202.087C972.415,-193.782 972.415,-180.04 972.415,-164.664"/>
<polygon fill="red" stroke="red" stroke-width="0.493612" points="975.915,-164.364 972.415,-154.364 968.915,-164.364 975.915,-164.364"/>
</g>
<!-- enemyRadar[Right45ø]&#45;&gt; Move Left/Right -->
<g id="edge2" class="edge"><title>enemyRadar[Right45ø]&#45;&gt; Move Left/Right</title>
<path fill="none" stroke="green" stroke-width="0.229886" d="M991.728,-202.324C1003.08,-197.96 1017.83,-192.906 1031.42,-190.149 1254.1,-144.946 1317.02,-189.954 1541.42,-154.149 1625.89,-140.67 1721.28,-114.924 1782.08,-97.1427"/>
<polygon fill="green" stroke="green" stroke-width="0.229886" points="1783.3,-100.432 1791.91,-94.2505 1781.32,-93.7172 1783.3,-100.432"/>
</g>
<!-- enemyRadar[Right45ø]&#45;&gt;Turn left/right -->
<g id="edge1" class="edge"><title>enemyRadar[Right45ø]&#45;&gt;Turn left/right</title>
<path fill="none" stroke="red" stroke-width="0.355217" d="M994.401,-202.315C1005.44,-198.408 1019.05,-193.785 1031.42,-190.149 1173.76,-148.283 1344.26,-109.073 1430.16,-90.0645"/>
<polygon fill="red" stroke="red" stroke-width="0.355217" points="1430.94,-93.4751 1439.95,-87.9028 1429.44,-86.6395 1430.94,-93.4751"/>
</g>
<!-- enemyRadar[Left45ø] -->
<g id="node12" class="node"><title>enemyRadar[Left45ø]</title>
<polygon fill="lightgray" stroke="black" points="2699.92,-286.576 2604.92,-286.576 2604.92,-268.576 2699.92,-268.576 2699.92,-286.576"/>
<text text-anchor="middle" x="2652.42" y="-275.376" font-family="Times,serif" font-size="9.00">enemyRadar[Left45ø]</text>
</g>
<!-- enemyRadar[Left45ø]&#45;&gt; Move Left/Right -->
<g id="edge38" class="edge"><title>enemyRadar[Left45ø]&#45;&gt; Move Left/Right</title>
<path fill="none" stroke="red" stroke-width="0.264982" stroke-dasharray="1,5" d="M2656.33,-268.479C2663.84,-251.624 2677.89,-212.484 2658.42,-190.149 2609.25,-133.754 2094.04,-94.5257 1909.62,-82.1998"/>
<polygon fill="red" stroke="red" stroke-width="0.264982" points="1909.73,-78.6995 1899.52,-81.5297 1909.26,-85.6842 1909.73,-78.6995"/>
</g>
<!-- 535 -->
<g id="node29" class="node"><title>535</title>
<ellipse fill="white" stroke="black" cx="2628.42" cy="-211.362" rx="21.4286" ry="21.4286"/>
<text text-anchor="middle" x="2628.42" y="-209.162" font-family="Times,serif" font-size="9.00">535</text>
</g>
<!-- enemyRadar[Left45ø]&#45;&gt;535 -->
<g id="edge54" class="edge"><title>enemyRadar[Left45ø]&#45;&gt;535</title>
<path fill="none" stroke="green" stroke-width="0.314776" d="M2649.38,-268.443C2646.76,-261.436 2642.81,-250.888 2639.05,-240.825"/>
<polygon fill="green" stroke="green" stroke-width="0.314776" points="2642.33,-239.598 2635.55,-231.456 2635.77,-242.049 2642.33,-239.598"/>
</g>
<!-- enemyRadar[RightFront20ø] -->
<g id="node13" class="node"><title>enemyRadar[RightFront20ø]</title>
<polygon fill="lightgray" stroke="black" points="2550.92,-220.362 2431.92,-220.362 2431.92,-202.362 2550.92,-202.362 2550.92,-220.362"/>
<text text-anchor="middle" x="2491.42" y="-209.162" font-family="Times,serif" font-size="9.00">enemyRadar[RightFront20ø]</text>
</g>
<!-- enemyRadar[RightFront20ø]&#45;&gt; Move Left/Right -->
<g id="edge6" class="edge"><title>enemyRadar[RightFront20ø]&#45;&gt; Move Left/Right</title>
<path fill="none" stroke="red" stroke-width="0.157281" d="M2466.01,-202.303C2453.04,-198.347 2436.97,-193.684 2422.42,-190.149 2237.66,-145.28 2016.26,-106.448 1908.99,-88.5666"/>
<polygon fill="red" stroke="red" stroke-width="0.157281" points="1909.41,-85.0883 1898.97,-86.902 1908.26,-91.9936 1909.41,-85.0883"/>
</g>
<!-- enemyRadar[LeftFront20ø] -->
<g id="node14" class="node"><title>enemyRadar[LeftFront20ø]</title>
<polygon fill="lightgray" stroke="black" points="2413.42,-220.362 2299.42,-220.362 2299.42,-202.362 2413.42,-202.362 2413.42,-220.362"/>
<text text-anchor="middle" x="2356.42" y="-209.162" font-family="Times,serif" font-size="9.00">enemyRadar[LeftFront20ø]</text>
</g>
<!-- enemyRadar[LeftFront20ø]&#45;&gt; Move Left/Right -->
<g id="edge46" class="edge"><title>enemyRadar[LeftFront20ø]&#45;&gt; Move Left/Right</title>
<path fill="none" stroke="red" stroke-width="0.539625" d="M2331.12,-202.284C2318.87,-198.457 2303.92,-193.912 2290.42,-190.149 2155.03,-152.434 1994.96,-113.595 1908.16,-93.0105"/>
<polygon fill="red" stroke="red" stroke-width="0.539625" points="1908.73,-89.5506 1898.2,-90.6524 1907.12,-96.3623 1908.73,-89.5506"/>
</g>
<!-- enemyRadar[LeftFront20ø]&#45;&gt;Turn left/right -->
<g id="edge41" class="edge"><title>enemyRadar[LeftFront20ø]&#45;&gt;Turn left/right</title>
<path fill="none" stroke="green" stroke-width="0.57499" d="M2334.73,-202.359C2322,-198.007 2305.5,-192.953 2290.42,-190.149 2067.01,-148.612 2004.69,-190.671 1780.42,-154.149 1695.04,-140.247 1598.36,-113.061 1539.65,-95.2369"/>
<polygon fill="green" stroke="green" stroke-width="0.57499" points="1540.44,-91.8183 1529.86,-92.2418 1538.4,-98.5125 1540.44,-91.8183"/>
</g>
<!-- enemyRadar[RightFront15ø] -->
<g id="node15" class="node"><title>enemyRadar[RightFront15ø]</title>
<polygon fill="lightgray" stroke="black" points="773.915,-220.362 654.915,-220.362 654.915,-202.362 773.915,-202.362 773.915,-220.362"/>
<text text-anchor="middle" x="714.415" y="-209.162" font-family="Times,serif" font-size="9.00">enemyRadar[RightFront15ø]</text>
</g>
<!-- enemyRadar[RightFront15ø]&#45;&gt;Shoot -->
<g id="edge29" class="edge"><title>enemyRadar[RightFront15ø]&#45;&gt;Shoot</title>
<path fill="none" stroke="green" stroke-width="0.193072" d="M699.763,-202.286C661.744,-181.33 559.238,-124.829 506.589,-95.8088"/>
<polygon fill="green" stroke="green" stroke-width="0.193072" points="508.116,-92.6544 497.669,-90.8923 504.737,-98.7848 508.116,-92.6544"/>
</g>
<!-- enemyRadar[RightFront15ø]&#45;&gt; Move Left/Right -->
<g id="edge10" class="edge"><title>enemyRadar[RightFront15ø]&#45;&gt; Move Left/Right</title>
<path fill="none" stroke="red" stroke-width="0.450293" d="M750.38,-202.297C771.054,-197.981 797.574,-192.984 821.415,-190.149 1139.57,-152.324 1224.52,-201.387 1541.42,-154.149 1626.02,-141.538 1721.39,-115.59 1782.14,-97.5261"/>
<polygon fill="red" stroke="red" stroke-width="0.450293" points="1783.38,-100.808 1791.96,-94.5862 1781.37,-94.1023 1783.38,-100.808"/>
</g>
<!-- enemyRadar[LeftFront15ø] -->
<g id="node16" class="node"><title>enemyRadar[LeftFront15ø]</title>
<polygon fill="lightgray" stroke="black" points="1901.42,-220.362 1787.42,-220.362 1787.42,-202.362 1901.42,-202.362 1901.42,-220.362"/>
<text text-anchor="middle" x="1844.42" y="-209.162" font-family="Times,serif" font-size="9.00">enemyRadar[LeftFront15ø]</text>
</g>
<!-- enemyRadar[LeftFront15ø]&#45;&gt;Move Forward/Backward -->
<g id="edge34" class="edge"><title>enemyRadar[LeftFront15ø]&#45;&gt;Move Forward/Backward</title>
<path fill="none" stroke="red" stroke-width="0.354256" d="M1806.5,-202.269C1786.85,-198.256 1762.41,-193.554 1740.42,-190.149 1602.91,-168.86 1567.2,-173.579 1429.42,-154.149 1299.68,-135.854 1150.02,-110.04 1058.31,-93.6833"/>
<polygon fill="red" stroke="red" stroke-width="0.354256" points="1058.71,-90.1986 1048.25,-91.8846 1057.48,-97.0894 1058.71,-90.1986"/>
</g>
<!-- enemyRadar[LeftFront15ø]&#45;&gt; Move Left/Right -->
<g id="edge25" class="edge"><title>enemyRadar[LeftFront15ø]&#45;&gt; Move Left/Right</title>
<path fill="none" stroke="green" stroke-width="0.23729" d="M1844.42,-202.087C1844.42,-189.912 1844.42,-166.055 1844.42,-142.491"/>
<polygon fill="green" stroke="green" stroke-width="0.23729" points="1847.92,-142.445 1844.42,-132.445 1840.92,-142.445 1847.92,-142.445"/>
</g>
<!-- enemyRadar[LeftFront15ø]&#45;&gt;Turn left/right -->
<g id="edge21" class="edge"><title>enemyRadar[LeftFront15ø]&#45;&gt;Turn left/right</title>
<path fill="none" stroke="green" stroke-width="0.598328" d="M1822.5,-202.286C1766.76,-181.748 1618.38,-127.07 1538.34,-97.5781"/>
<polygon fill="green" stroke="green" stroke-width="0.598328" points="1539.53,-94.2839 1528.93,-94.1104 1537.11,-100.852 1539.53,-94.2839"/>
</g>
<!-- enemyRadar[RightFront7.5ø] -->
<g id="node17" class="node"><title>enemyRadar[RightFront7.5ø]</title>
<polygon fill="lightgray" stroke="black" points="2091.42,-220.362 1969.42,-220.362 1969.42,-202.362 2091.42,-202.362 2091.42,-220.362"/>
<text text-anchor="middle" x="2030.42" y="-209.162" font-family="Times,serif" font-size="9.00">enemyRadar[RightFront7.5ø]</text>
</g>
<!-- enemyRadar[RightFront7.5ø]&#45;&gt; Move Left/Right -->
<g id="edge18" class="edge"><title>enemyRadar[RightFront7.5ø]&#45;&gt; Move Left/Right</title>
<path fill="none" stroke="green" stroke-width="0.249275" d="M2019.06,-202.286C1995.4,-185.457 1939.51,-145.705 1897.28,-115.671"/>
<polygon fill="green" stroke="green" stroke-width="0.249275" points="1899.2,-112.747 1889.03,-109.803 1895.15,-118.451 1899.2,-112.747"/>
</g>
<!-- enemyRadar[RightFront7.5ø]&#45;&gt;Turn left/right -->
<g id="edge12" class="edge"><title>enemyRadar[RightFront7.5ø]&#45;&gt;Turn left/right</title>
<path fill="none" stroke="green" stroke-width="0.161184" d="M2004.62,-202.355C1991.46,-198.413 1975.16,-193.746 1960.42,-190.149 1881.15,-170.816 1859.94,-172.342 1780.42,-154.149 1696.1,-134.861 1599.12,-109.17 1540.07,-93.129"/>
<polygon fill="green" stroke="green" stroke-width="0.161184" points="1540.78,-89.695 1530.21,-90.445 1538.94,-96.4491 1540.78,-89.695"/>
</g>
<!-- enemyRadar[LeftFront7.5ø] -->
<g id="node18" class="node"><title>enemyRadar[LeftFront7.5ø]</title>
<polygon fill="lightgray" stroke="black" points="208.415,-220.362 92.415,-220.362 92.415,-202.362 208.415,-202.362 208.415,-220.362"/>
<text text-anchor="middle" x="150.415" y="-209.162" font-family="Times,serif" font-size="9.00">enemyRadar[LeftFront7.5ø]</text>
</g>
<!-- enemyRadar[LeftFront7.5ø]&#45;&gt;Shoot -->
<g id="edge51" class="edge"><title>enemyRadar[LeftFront7.5ø]&#45;&gt;Shoot</title>
<path fill="none" stroke="green" stroke-width="0.498927" d="M170.195,-202.286C223.886,-180.365 372.839,-119.548 440.361,-91.9789"/>
<polygon fill="green" stroke="green" stroke-width="0.498927" points="441.776,-95.1816 449.711,-88.1612 439.13,-88.701 441.776,-95.1816"/>
</g>
<!-- enemyRadar[LeftFront7.5ø]&#45;&gt;Move Forward/Backward -->
<g id="edge14" class="edge"><title>enemyRadar[LeftFront7.5ø]&#45;&gt;Move Forward/Backward</title>
<path fill="none" stroke="red" stroke-width="0.463418" d="M173.418,-202.36C186.232,-198.173 202.554,-193.28 217.415,-190.149 345.799,-163.103 380.548,-172.812 510.415,-154.149 642.003,-135.24 794.011,-109.444 886.647,-93.2768"/>
<polygon fill="red" stroke="red" stroke-width="0.463418" points="887.285,-96.7185 896.533,-91.5487 886.08,-89.823 887.285,-96.7185"/>
</g>
<!-- enemyRadar[RightFront2.5ø] -->
<g id="node19" class="node"><title>enemyRadar[RightFront2.5ø]</title>
<polygon fill="lightgray" stroke="black" points="1354.42,-220.362 1232.42,-220.362 1232.42,-202.362 1354.42,-202.362 1354.42,-220.362"/>
<text text-anchor="middle" x="1293.42" y="-209.162" font-family="Times,serif" font-size="9.00">enemyRadar[RightFront2.5ø]</text>
</g>
<!-- enemyRadar[RightFront2.5ø]&#45;&gt;Shoot -->
<g id="edge23" class="edge"><title>enemyRadar[RightFront2.5ø]&#45;&gt;Shoot</title>
<path fill="none" stroke="red" stroke-width="0.375395" d="M1269.37,-202.292C1255.98,-198.084 1238.93,-193.194 1223.42,-190.149 1075.6,-161.144 1035.47,-175.841 886.415,-154.149 746.804,-133.833 582.24,-100.632 510.679,-85.7331"/>
<polygon fill="red" stroke="red" stroke-width="0.375395" points="511.314,-82.2902 500.809,-83.6714 509.882,-89.1423 511.314,-82.2902"/>
</g>
<!-- enemyRadar[RightFront2.5ø]&#45;&gt; Move Left/Right -->
<g id="edge43" class="edge"><title>enemyRadar[RightFront2.5ø]&#45;&gt; Move Left/Right</title>
<path fill="none" stroke="green" stroke-width="0.390473" d="M1319.92,-202.294C1333.21,-198.381 1349.6,-193.76 1364.42,-190.149 1442.41,-171.145 1463.13,-171.928 1541.42,-154.149 1624.71,-135.233 1720.19,-110.801 1781.34,-94.798"/>
<polygon fill="green" stroke="green" stroke-width="0.390473" points="1782.44,-98.1279 1791.22,-92.2061 1780.66,-91.3568 1782.44,-98.1279"/>
</g>
<!-- enemyRadar[RightFront2.5ø]&#45;&gt;Turn left/right -->
<g id="edge53" class="edge"><title>enemyRadar[RightFront2.5ø]&#45;&gt;Turn left/right</title>
<path fill="none" stroke="green" stroke-width="1.04411" stroke-dasharray="1,5" d="M1305.14,-202.286C1331.14,-184.368 1394.86,-140.464 1439.12,-109.971"/>
<polygon fill="green" stroke="green" stroke-width="1.04411" points="1441.17,-112.808 1447.42,-104.252 1437.2,-107.044 1441.17,-112.808"/>
</g>
<!-- enemyRadar[LeftFront2.5ø] -->
<g id="node20" class="node"><title>enemyRadar[LeftFront2.5ø]</title>
<polygon fill="lightgray" stroke="black" points="532.415,-220.362 416.415,-220.362 416.415,-202.362 532.415,-202.362 532.415,-220.362"/>
<text text-anchor="middle" x="474.415" y="-209.162" font-family="Times,serif" font-size="9.00">enemyRadar[LeftFront2.5ø]</text>
</g>
<!-- enemyRadar[LeftFront2.5ø]&#45;&gt;Shoot -->
<g id="edge31" class="edge"><title>enemyRadar[LeftFront2.5ø]&#45;&gt;Shoot</title>
<path fill="none" stroke="red" stroke-width="0.85165" d="M474.415,-202.087C474.415,-184.884 474.415,-144.359 474.415,-114.29"/>
<polygon fill="red" stroke="red" stroke-width="0.85165" points="477.915,-114.146 474.415,-104.146 470.915,-114.146 477.915,-114.146"/>
</g>
<!-- enemyRadar[LeftFront2.5ø]&#45;&gt;Move Forward/Backward -->
<g id="edge15" class="edge"><title>enemyRadar[LeftFront2.5ø]&#45;&gt;Move Forward/Backward</title>
<path fill="none" stroke="green" stroke-width="0.114884" d="M500.118,-202.355C512.558,-198.544 527.729,-193.992 541.415,-190.149 661.291,-156.494 800.907,-120.83 887.988,-99.0035"/>
<polygon fill="green" stroke="green" stroke-width="0.114884" points="888.968,-102.366 897.818,-96.5425 887.267,-95.576 888.968,-102.366"/>
</g>
<!-- enemyRadar[LeftFront2.5ø]&#45;&gt;Turn left/right -->
<g id="edge22" class="edge"><title>enemyRadar[LeftFront2.5ø]&#45;&gt;Turn left/right</title>
<path fill="none" stroke="green" stroke-width="0.359009" stroke-dasharray="1,5" d="M496.442,-202.359C509.368,-198.006 526.118,-192.953 541.415,-190.149 767.976,-148.626 829.819,-182.39 1058.42,-154.149 1192.61,-137.571 1348.64,-106.82 1429.84,-89.9354"/>
<polygon fill="green" stroke="green" stroke-width="0.359009" points="1430.77,-93.3173 1439.84,-87.8473 1429.34,-86.465 1430.77,-93.3173"/>
</g>
<!-- enemyRadar[Front7Ø] -->
<g id="node21" class="node"><title>enemyRadar[Front7Ø]</title>
<polygon fill="lightgray" stroke="black" points="1192.42,-286.576 1094.42,-286.576 1094.42,-268.576 1192.42,-268.576 1192.42,-286.576"/>
<text text-anchor="middle" x="1143.42" y="-275.376" font-family="Times,serif" font-size="9.00">enemyRadar[Front7Ø]</text>
</g>
<!-- enemyRadar[Front7Ø]&#45;&gt;Shoot -->
<g id="edge59" class="edge"><title>enemyRadar[Front7Ø]&#45;&gt;Shoot</title>
<path fill="none" stroke="red" stroke-width="0.212559" stroke-dasharray="1,5" d="M1094.25,-276.52C882.968,-276.044 61.0104,-271.677 23.415,-232.576 -101.009,-103.168 309.171,-82.1356 437.363,-78.7298"/>
<polygon fill="red" stroke="red" stroke-width="0.212559" points="437.576,-82.2257 447.488,-78.4823 437.405,-75.2278 437.576,-82.2257"/>
</g>
<!-- enemyRadar[Front7Ø]&#45;&gt;Move Forward/Backward -->
<g id="edge42" class="edge"><title>enemyRadar[Front7Ø]&#45;&gt;Move Forward/Backward</title>
<path fill="none" stroke="green" stroke-width="0.522155" d="M1094.38,-277.371C1013.18,-277.521 856.24,-272.483 821.415,-232.576 785.149,-191.017 840.381,-146.219 893.955,-115.619"/>
<polygon fill="green" stroke="green" stroke-width="0.522155" points="895.844,-118.573 902.871,-110.643 892.433,-112.46 895.844,-118.573"/>
</g>
<!-- enemyRadar[Front7Ø]&#45;&gt; Move Left/Right -->
<g id="edge16" class="edge"><title>enemyRadar[Front7Ø]&#45;&gt; Move Left/Right</title>
<path fill="none" stroke="green" stroke-width="0.300237" d="M1192.5,-275.98C1439.56,-272.869 2536.1,-257.661 2560.42,-232.576 2573.54,-219.037 2572.67,-204.477 2560.42,-190.149 2476.82,-92.4525 2070.31,-79.3166 1909.8,-77.991"/>
<polygon fill="green" stroke="green" stroke-width="0.300237" points="1909.61,-74.4897 1899.59,-77.92 1909.56,-81.4895 1909.61,-74.4897"/>
</g>
<!-- enemyRadar[Front7Ø]&#45;&gt;Turn left/right -->
<g id="edge4" class="edge"><title>enemyRadar[Front7Ø]&#45;&gt;Turn left/right</title>
<path fill="none" stroke="red" stroke-width="0.308388" stroke-dasharray="1,5" d="M1192.66,-276.694C1328.93,-276.51 1703.46,-272.359 1740.42,-232.576 1807.3,-160.585 1634.77,-110.405 1541.12,-89.2754"/>
<polygon fill="red" stroke="red" stroke-width="0.308388" points="1541.73,-85.8263 1531.21,-87.0816 1540.22,-92.6608 1541.73,-85.8263"/>
</g>
<!-- 615 -->
<g id="node28" class="node"><title>615</title>
<ellipse fill="white" stroke="black" cx="1485.42" cy="-211.362" rx="21.4286" ry="21.4286"/>
<text text-anchor="middle" x="1485.42" y="-209.162" font-family="Times,serif" font-size="9.00">615</text>
</g>
<!-- enemyRadar[Front7Ø]&#45;&gt;615 -->
<g id="edge56" class="edge"><title>enemyRadar[Front7Ø]&#45;&gt;615</title>
<path fill="none" stroke="green" stroke-width="0.683218" d="M1192.68,-276.394C1255.64,-274.66 1367.06,-266.489 1455.42,-232.576 1457.03,-231.957 1458.64,-231.238 1460.23,-230.447"/>
<polygon fill="green" stroke="green" stroke-width="0.683218" points="1462.14,-233.387 1469.02,-225.335 1458.62,-227.336 1462.14,-233.387"/>
</g>
<!-- 986 -->
<g id="node30" class="node"><title>986</title>
<ellipse fill="white" stroke="black" cx="53.415" cy="-211.362" rx="21.4286" ry="21.4286"/>
<text text-anchor="middle" x="53.415" y="-209.162" font-family="Times,serif" font-size="9.00">986</text>
</g>
<!-- enemyRadar[Front7Ø]&#45;&gt;986 -->
<g id="edge60" class="edge"><title>enemyRadar[Front7Ø]&#45;&gt;986</title>
<path fill="none" stroke="green" stroke-width="0.24079" d="M1094.15,-276.106C898.195,-274.024 179.992,-264.28 83.415,-232.576 81.7331,-232.024 80.0578,-231.348 78.4082,-230.583"/>
<polygon fill="green" stroke="green" stroke-width="0.24079" points="79.7966,-227.346 69.3717,-225.457 76.3426,-233.435 79.7966,-227.346"/>
</g>
<!-- OnTarget -->
<g id="node22" class="node"><title>OnTarget</title>
<polygon fill="lightgray" stroke="black" points="2159.42,-220.362 2109.42,-220.362 2109.42,-202.362 2159.42,-202.362 2159.42,-220.362"/>
<text text-anchor="middle" x="2134.42" y="-209.162" font-family="Times,serif" font-size="9.00">OnTarget</text>
</g>
<!-- OnTarget&#45;&gt; Move Left/Right -->
<g id="edge32" class="edge"><title>OnTarget&#45;&gt; Move Left/Right</title>
<path fill="none" stroke="red" stroke-width="0.486776" d="M2121.71,-202.302C2115.41,-198.435 2107.62,-193.852 2100.42,-190.149 2035.21,-156.655 1957.79,-123.657 1905.3,-102.237"/>
<polygon fill="red" stroke="red" stroke-width="0.486776" points="1906.38,-98.8969 1895.79,-98.3743 1903.74,-105.382 1906.38,-98.8969"/>
</g>
<!-- OnTarget&#45;&gt;Turn left/right -->
<g id="edge48" class="edge"><title>OnTarget&#45;&gt;Turn left/right</title>
<path fill="none" stroke="green" stroke-width="0.537379" d="M2123.66,-202.356C2117.25,-198.003 2108.75,-192.949 2100.42,-190.149 1964.75,-144.559 1921.17,-180.082 1780.42,-154.149 1695.35,-138.476 1598.58,-111.782 1539.77,-94.5439"/>
<polygon fill="green" stroke="green" stroke-width="0.537379" points="1540.54,-91.121 1529.96,-91.6511 1538.56,-97.8355 1540.54,-91.121"/>
</g>
<!-- bias -->
<g id="node23" class="node"><title>bias</title>
<polygon fill="lightgray" stroke="black" points="1950.92,-220.362 1919.92,-220.362 1919.92,-202.362 1950.92,-202.362 1950.92,-220.362"/>
<text text-anchor="middle" x="1935.42" y="-209.162" font-family="Times,serif" font-size="9.00">bias</text>
</g>
<!-- bias&#45;&gt;Turn left/right -->
<g id="edge58" class="edge"><title>bias&#45;&gt;Turn left/right</title>
<path fill="none" stroke="red" stroke-width="0.694345" d="M1927.25,-202.277C1922.65,-198.117 1916.59,-193.277 1910.42,-190.149 1902.01,-185.892 1653.52,-121.474 1540.47,-92.2736"/>
<polygon fill="red" stroke="red" stroke-width="0.694345" points="1541.17,-88.84 1530.61,-89.7286 1539.42,-95.6177 1541.17,-88.84"/>
</g>
<!-- 615&#45;&gt;Turn left/right -->
<g id="edge57" class="edge"><title>615&#45;&gt;Turn left/right</title>
<path fill="none" stroke="green" stroke-width="0.815999" d="M1485.42,-189.982C1485.42,-175.047 1485.42,-154.005 1485.42,-134.192"/>
<polygon fill="green" stroke="green" stroke-width="0.815999" points="1488.92,-133.981 1485.42,-123.981 1481.92,-133.981 1488.92,-133.981"/>
</g>
<!-- 535&#45;&gt; Move Left/Right -->
<g id="edge55" class="edge"><title>535&#45;&gt; Move Left/Right</title>
<path fill="none" stroke="green" stroke-width="0.12622" d="M2611.23,-198.726C2605.74,-195.488 2599.51,-192.279 2593.42,-190.149 2350.86,-105.405 2042.19,-84.7338 1909.67,-79.6958"/>
<polygon fill="green" stroke="green" stroke-width="0.12622" points="1909.79,-76.1982 1899.67,-79.333 1909.54,-83.1936 1909.79,-76.1982"/>
</g>
<!-- 986&#45;&gt;Shoot -->
<g id="edge61" class="edge"><title>986&#45;&gt;Shoot</title>
<path fill="none" stroke="red" stroke-width="0.324156" d="M69.9994,-197.846C74.2234,-195.041 78.8609,-192.271 83.415,-190.149 207.008,-132.563 366.598,-98.087 437.572,-84.62"/>
<polygon fill="red" stroke="red" stroke-width="0.324156" points="438.598,-87.989 447.785,-82.7119 437.313,-81.1081 438.598,-87.989"/>
</g>
</g>
</svg>
