<?xml version="1.0" encoding="UTF-8" standalone="no"?>
<!DOCTYPE svg PUBLIC "-//W3C//DTD SVG 1.1//EN"
 "http://www.w3.org/Graphics/SVG/1.1/DTD/svg11.dtd">
<!-- Generated by graphviz version 2.38.0 (20140413.2041)
 -->
<!-- Title: %3 Pages: 1 -->
<svg width="2559pt" height="216pt"
 viewBox="0.00 0.00 2559.00 216.15" xmlns="http://www.w3.org/2000/svg" xmlns:xlink="http://www.w3.org/1999/xlink">
<g id="graph0" class="graph" transform="scale(1 1) rotate(0) translate(4 212.149)">
<title>%3</title>
<polygon fill="white" stroke="none" points="-4,4 -4,-212.149 2555,-212.149 2555,4 -4,4"/>
<!-- wallRadar[1,0] -->
<g id="node1" class="node"><title>wallRadar[1,0]</title>
<polygon fill="lightgray" stroke="black" points="779,-208.149 709,-208.149 709,-190.149 779,-190.149 779,-208.149"/>
<text text-anchor="middle" x="744" y="-196.949" font-family="Times,serif" font-size="9.00">wallRadar[1,0]</text>
</g>
<!-- Move Forward/Backward -->
<g id="node25" class="node"><title>Move Forward/Backward</title>
<ellipse fill="lightblue" stroke="black" cx="1625" cy="-77.0746" rx="77.1494" ry="77.1494"/>
<text text-anchor="middle" x="1625" y="-74.8746" font-family="Times,serif" font-size="9.00">Move Forward/Backward</text>
</g>
<!-- wallRadar[1,0]&#45;&gt;Move Forward/Backward -->
<g id="edge18" class="edge"><title>wallRadar[1,0]&#45;&gt;Move Forward/Backward</title>
<path fill="none" stroke="green" stroke-width="0.375428" d="M779.019,-191.488C782.051,-191 785.076,-190.545 788,-190.149 965.318,-166.12 1011.6,-177.548 1189,-154.149 1311.31,-138.017 1451.71,-112.195 1539.39,-95.184"/>
<polygon fill="green" stroke="green" stroke-width="0.375428" points="1540.14,-98.6035 1549.29,-93.2576 1538.8,-91.7324 1540.14,-98.6035"/>
</g>
<!--  Move Left/Right -->
<g id="node26" class="node"><title> Move Left/Right</title>
<ellipse fill="lightblue" stroke="black" cx="936" cy="-77.0746" rx="55.3091" ry="55.3091"/>
<text text-anchor="middle" x="936" y="-74.8746" font-family="Times,serif" font-size="9.00"> Move Left/Right</text>
</g>
<!-- wallRadar[1,0]&#45;&gt; Move Left/Right -->
<g id="edge35" class="edge"><title>wallRadar[1,0]&#45;&gt; Move Left/Right</title>
<path fill="none" stroke="red" stroke-width="0.476922" d="M756.896,-190.084C781.831,-174.49 837.971,-139.381 880.801,-112.596"/>
<polygon fill="red" stroke="red" stroke-width="0.476922" points="882.826,-115.457 889.448,-107.187 879.114,-109.522 882.826,-115.457"/>
</g>
<!-- wallRadar[0,1] -->
<g id="node2" class="node"><title>wallRadar[0,1]</title>
<polygon fill="lightgray" stroke="black" points="971,-208.149 901,-208.149 901,-190.149 971,-190.149 971,-208.149"/>
<text text-anchor="middle" x="936" y="-196.949" font-family="Times,serif" font-size="9.00">wallRadar[0,1]</text>
</g>
<!-- Shoot -->
<g id="node24" class="node"><title>Shoot</title>
<ellipse fill="lightblue" stroke="black" cx="1153" cy="-77.0746" rx="26.7407" ry="26.7407"/>
<text text-anchor="middle" x="1153" y="-74.8746" font-family="Times,serif" font-size="9.00">Shoot</text>
</g>
<!-- wallRadar[0,1]&#45;&gt;Shoot -->
<g id="edge40" class="edge"><title>wallRadar[0,1]&#45;&gt;Shoot</title>
<path fill="none" stroke="green" stroke-width="0.130947" d="M950.575,-190.084C985.141,-170.958 1072.76,-122.472 1120.61,-95.9982"/>
<polygon fill="green" stroke="green" stroke-width="0.130947" points="1122.56,-98.9161 1129.62,-91.012 1119.18,-92.7913 1122.56,-98.9161"/>
</g>
<!-- wallRadar[0,1]&#45;&gt;Move Forward/Backward -->
<g id="edge34" class="edge"><title>wallRadar[0,1]&#45;&gt;Move Forward/Backward</title>
<path fill="none" stroke="red" stroke-width="0.60237" d="M971.059,-191.745C974.083,-191.201 977.095,-190.664 980,-190.149 1072.81,-173.719 1096.13,-170.25 1189,-154.149 1310.56,-133.075 1451.15,-108.51 1539.08,-93.1236"/>
<polygon fill="red" stroke="red" stroke-width="0.60237" points="1539.76,-96.5578 1549,-91.3863 1538.55,-89.6626 1539.76,-96.5578"/>
</g>
<!-- wallRadar[0,1]&#45;&gt; Move Left/Right -->
<g id="edge15" class="edge"><title>wallRadar[0,1]&#45;&gt; Move Left/Right</title>
<path fill="none" stroke="green" stroke-width="0.159451" d="M936,-189.896C936,-179.701 936,-161.375 936,-142.47"/>
<polygon fill="green" stroke="green" stroke-width="0.159451" points="939.5,-142.265 936,-132.265 932.5,-142.265 939.5,-142.265"/>
</g>
<!-- wallRadar[&#45;1,0] -->
<g id="node3" class="node"><title>wallRadar[&#45;1,0]</title>
<polygon fill="lightgray" stroke="black" points="1224.5,-208.149 1151.5,-208.149 1151.5,-190.149 1224.5,-190.149 1224.5,-208.149"/>
<text text-anchor="middle" x="1188" y="-196.949" font-family="Times,serif" font-size="9.00">wallRadar[&#45;1,0]</text>
</g>
<!-- wallRadar[&#45;1,0]&#45;&gt;Shoot -->
<g id="edge19" class="edge"><title>wallRadar[&#45;1,0]&#45;&gt;Shoot</title>
<path fill="none" stroke="green" stroke-width="0.102026" d="M1185.59,-189.896C1181.05,-174.298 1170.95,-139.668 1163.19,-113.05"/>
<polygon fill="green" stroke="green" stroke-width="0.102026" points="1166.51,-111.918 1160.35,-103.297 1159.79,-113.876 1166.51,-111.918"/>
</g>
<!-- wallRadar[&#45;1,0]&#45;&gt; Move Left/Right -->
<g id="edge8" class="edge"><title>wallRadar[&#45;1,0]&#45;&gt; Move Left/Right</title>
<path fill="none" stroke="green" stroke-width="0.428388" d="M1171.07,-190.084C1135.64,-173.199 1052.18,-133.433 994.879,-106.13"/>
<polygon fill="green" stroke="green" stroke-width="0.428388" points="996.098,-102.834 985.565,-101.692 993.087,-109.153 996.098,-102.834"/>
</g>
<!-- Turn left/right -->
<g id="node27" class="node"><title>Turn left/right</title>
<ellipse fill="lightblue" stroke="black" cx="1767" cy="-77.0746" rx="46.8387" ry="46.8387"/>
<text text-anchor="middle" x="1767" y="-74.8746" font-family="Times,serif" font-size="9.00">Turn left/right</text>
</g>
<!-- wallRadar[&#45;1,0]&#45;&gt;Turn left/right -->
<g id="edge37" class="edge"><title>wallRadar[&#45;1,0]&#45;&gt;Turn left/right</title>
<path fill="none" stroke="red" stroke-width="0.334519" d="M1224.61,-191.453C1227.78,-190.973 1230.94,-190.53 1234,-190.149 1339.49,-177.027 1618.01,-205.652 1711,-154.149 1722.55,-147.754 1732.37,-137.861 1740.41,-127.301"/>
<polygon fill="red" stroke="red" stroke-width="0.334519" points="1743.27,-129.321 1746.21,-119.143 1737.56,-125.265 1743.27,-129.321"/>
</g>
<!-- wallRadar[0,&#45;1] -->
<g id="node4" class="node"><title>wallRadar[0,&#45;1]</title>
<polygon fill="lightgray" stroke="black" points="439.5,-208.149 366.5,-208.149 366.5,-190.149 439.5,-190.149 439.5,-208.149"/>
<text text-anchor="middle" x="403" y="-196.949" font-family="Times,serif" font-size="9.00">wallRadar[0,&#45;1]</text>
</g>
<!-- wallRadar[0,&#45;1]&#45;&gt;Shoot -->
<g id="edge48" class="edge"><title>wallRadar[0,&#45;1]&#45;&gt;Shoot</title>
<path fill="none" stroke="red" stroke-width="0.13261" d="M439.787,-191.267C442.561,-190.853 445.322,-190.474 448,-190.149 692.071,-160.588 762.617,-218.131 1000,-154.149 1044.91,-142.046 1092.19,-116.234 1122.1,-98.0446"/>
<polygon fill="red" stroke="red" stroke-width="0.13261" points="1124.14,-100.902 1130.81,-92.6679 1120.46,-94.9465 1124.14,-100.902"/>
</g>
<!-- wallRadar[0,&#45;1]&#45;&gt; Move Left/Right -->
<g id="edge1" class="edge"><title>wallRadar[0,&#45;1]&#45;&gt; Move Left/Right</title>
<path fill="none" stroke="red" stroke-width="0.26122" d="M438.799,-190.084C527.728,-170.05 759.629,-117.808 872.475,-92.3855"/>
<polygon fill="red" stroke="red" stroke-width="0.26122" points="873.374,-95.7709 882.36,-90.1587 871.835,-88.942 873.374,-95.7709"/>
</g>
<!-- wallRadar[0.7,0.7] -->
<g id="node5" class="node"><title>wallRadar[0.7,0.7]</title>
<polygon fill="lightgray" stroke="black" points="1846.5,-208.149 1763.5,-208.149 1763.5,-190.149 1846.5,-190.149 1846.5,-208.149"/>
<text text-anchor="middle" x="1805" y="-196.949" font-family="Times,serif" font-size="9.00">wallRadar[0.7,0.7]</text>
</g>
<!-- wallRadar[0.7,0.7]&#45;&gt;Shoot -->
<g id="edge13" class="edge"><title>wallRadar[0.7,0.7]&#45;&gt;Shoot</title>
<path fill="none" stroke="red" stroke-width="0.25326" d="M1763.25,-191.404C1699.61,-181.094 1581.26,-161.807 1539,-154.149 1409.87,-130.75 1257.14,-99.6216 1188.97,-85.547"/>
<polygon fill="red" stroke="red" stroke-width="0.25326" points="1189.66,-82.115 1179.16,-83.5176 1188.24,-88.97 1189.66,-82.115"/>
</g>
<!-- wallRadar[0.7,0.7]&#45;&gt;Move Forward/Backward -->
<g id="edge49" class="edge"><title>wallRadar[0.7,0.7]&#45;&gt;Move Forward/Backward</title>
<path fill="none" stroke="green" stroke-width="0.254621" d="M1783.17,-190.014C1763.5,-182.209 1734.2,-169.38 1711,-154.149 1703.41,-149.168 1695.8,-143.552 1688.42,-137.684"/>
<polygon fill="green" stroke="green" stroke-width="0.254621" points="1690.47,-134.842 1680.51,-131.237 1686.05,-140.268 1690.47,-134.842"/>
</g>
<!-- wallRadar[&#45;0.7,0.7] -->
<g id="node6" class="node"><title>wallRadar[&#45;0.7,0.7]</title>
<polygon fill="lightgray" stroke="black" points="883,-208.149 797,-208.149 797,-190.149 883,-190.149 883,-208.149"/>
<text text-anchor="middle" x="840" y="-196.949" font-family="Times,serif" font-size="9.00">wallRadar[&#45;0.7,0.7]</text>
</g>
<!-- wallRadar[&#45;0.7,0.7]&#45;&gt;Move Forward/Backward -->
<g id="edge6" class="edge"><title>wallRadar[&#45;0.7,0.7]&#45;&gt;Move Forward/Backward</title>
<path fill="none" stroke="red" stroke-width="0.121668" d="M883.115,-191.407C886.12,-190.971 889.104,-190.547 892,-190.149 1023.73,-172.038 1057.46,-173.583 1189,-154.149 1311.05,-136.117 1451.51,-110.779 1539.28,-94.3921"/>
<polygon fill="red" stroke="red" stroke-width="0.121668" points="1540,-97.8177 1549.19,-92.5383 1538.71,-90.9371 1540,-97.8177"/>
</g>
<!-- wallRadar[&#45;0.7,0.7]&#45;&gt; Move Left/Right -->
<g id="edge11" class="edge"><title>wallRadar[&#45;0.7,0.7]&#45;&gt; Move Left/Right</title>
<path fill="none" stroke="red" stroke-width="0.215615" d="M846.598,-189.896C856.76,-177.186 877.025,-151.84 895.695,-128.488"/>
<polygon fill="red" stroke="red" stroke-width="0.215615" points="898.437,-130.662 901.948,-120.666 892.97,-126.291 898.437,-130.662"/>
</g>
<!-- wallRadar[&#45;0.7,&#45;0.7] -->
<g id="node7" class="node"><title>wallRadar[&#45;0.7,&#45;0.7]</title>
<polygon fill="lightgray" stroke="black" points="2410.5,-208.149 2321.5,-208.149 2321.5,-190.149 2410.5,-190.149 2410.5,-208.149"/>
<text text-anchor="middle" x="2366" y="-196.949" font-family="Times,serif" font-size="9.00">wallRadar[&#45;0.7,&#45;0.7]</text>
</g>
<!-- wallRadar[&#45;0.7,&#45;0.7]&#45;&gt;Move Forward/Backward -->
<g id="edge28" class="edge"><title>wallRadar[&#45;0.7,&#45;0.7]&#45;&gt;Move Forward/Backward</title>
<path fill="none" stroke="red" stroke-width="0.170189" d="M2321.25,-191.212C2318.12,-190.822 2315.02,-190.462 2312,-190.149 2178.92,-176.332 1834.64,-205.268 1711,-154.149 1702.25,-150.532 1693.79,-145.637 1685.8,-140.065"/>
<polygon fill="red" stroke="red" stroke-width="0.170189" points="1687.79,-137.178 1677.67,-134.037 1683.62,-142.802 1687.79,-137.178"/>
</g>
<!-- wallRadar[&#45;0.7,&#45;0.7]&#45;&gt;Turn left/right -->
<g id="edge29" class="edge"><title>wallRadar[&#45;0.7,&#45;0.7]&#45;&gt;Turn left/right</title>
<path fill="none" stroke="green" stroke-width="0.249586" d="M2325.77,-190.084C2221.52,-169.187 1942.45,-113.246 1822.77,-89.2536"/>
<polygon fill="green" stroke="green" stroke-width="0.249586" points="1823.21,-85.7727 1812.72,-87.2389 1821.83,-92.6362 1823.21,-85.7727"/>
</g>
<!-- wallRadar[0.7,&#45;0.7] -->
<g id="node8" class="node"><title>wallRadar[0.7,&#45;0.7]</title>
<polygon fill="lightgray" stroke="black" points="86,-208.149 0,-208.149 0,-190.149 86,-190.149 86,-208.149"/>
<text text-anchor="middle" x="43" y="-196.949" font-family="Times,serif" font-size="9.00">wallRadar[0.7,&#45;0.7]</text>
</g>
<!-- wallRadar[0.7,&#45;0.7]&#45;&gt; Move Left/Right -->
<g id="edge46" class="edge"><title>wallRadar[0.7,&#45;0.7]&#45;&gt; Move Left/Right</title>
<path fill="none" stroke="red" stroke-width="0.225503" d="M86.1203,-191.447C89.1244,-191.001 92.1068,-190.565 95,-190.149 384.11,-148.65 729.908,-104.2 871.126,-86.267"/>
<polygon fill="red" stroke="red" stroke-width="0.225503" points="871.86,-89.702 881.34,-84.971 870.979,-82.7577 871.86,-89.702"/>
</g>
<!-- enemyRadar[RightBack] -->
<g id="node9" class="node"><title>enemyRadar[RightBack]</title>
<polygon fill="lightgray" stroke="black" points="208,-208.149 104,-208.149 104,-190.149 208,-190.149 208,-208.149"/>
<text text-anchor="middle" x="156" y="-196.949" font-family="Times,serif" font-size="9.00">enemyRadar[RightBack]</text>
</g>
<!-- enemyRadar[RightBack]&#45;&gt;Shoot -->
<g id="edge9" class="edge"><title>enemyRadar[RightBack]&#45;&gt;Shoot</title>
<path fill="none" stroke="red" stroke-width="0.203337" d="M208.212,-191.007C211.182,-190.693 214.127,-190.403 217,-190.149 390.507,-174.811 831.391,-197.864 1000,-154.149 1045.02,-142.477 1092.28,-116.568 1122.16,-98.2389"/>
<polygon fill="red" stroke="red" stroke-width="0.203337" points="1124.21,-101.08 1130.85,-92.8179 1120.51,-95.1408 1124.21,-101.08"/>
</g>
<!-- enemyRadar[RightBack]&#45;&gt; Move Left/Right -->
<g id="edge51" class="edge"><title>enemyRadar[RightBack]&#45;&gt; Move Left/Right</title>
<path fill="none" stroke="green" stroke-width="0.116345" d="M208.085,-190.131C345.97,-168.905 720.249,-111.288 871.397,-88.0198"/>
<polygon fill="green" stroke="green" stroke-width="0.116345" points="872.105,-91.452 881.456,-86.4712 871.04,-84.5335 872.105,-91.452"/>
</g>
<!-- enemyRadar[LeftBack] -->
<g id="node10" class="node"><title>enemyRadar[LeftBack]</title>
<polygon fill="lightgray" stroke="black" points="556.5,-208.149 457.5,-208.149 457.5,-190.149 556.5,-190.149 556.5,-208.149"/>
<text text-anchor="middle" x="507" y="-196.949" font-family="Times,serif" font-size="9.00">enemyRadar[LeftBack]</text>
</g>
<!-- enemyRadar[LeftBack]&#45;&gt;Shoot -->
<g id="edge21" class="edge"><title>enemyRadar[LeftBack]&#45;&gt;Shoot</title>
<path fill="none" stroke="green" stroke-width="0.181651" d="M556.552,-191.24C559.747,-190.853 562.917,-190.486 566,-190.149 758.408,-169.139 813.569,-206.165 1000,-154.149 1044.8,-141.65 1092.11,-115.928 1122.05,-97.8664"/>
<polygon fill="green" stroke="green" stroke-width="0.181651" points="1124.07,-100.738 1130.77,-92.5302 1120.41,-94.7679 1124.07,-100.738"/>
</g>
<!-- enemyRadar[LeftBack]&#45;&gt;Move Forward/Backward -->
<g id="edge27" class="edge"><title>enemyRadar[LeftBack]&#45;&gt;Move Forward/Backward</title>
<path fill="none" stroke="green" stroke-width="0.574807" d="M556.542,-191.15C559.74,-190.785 562.913,-190.447 566,-190.149 842.067,-163.497 913.489,-186.038 1189,-154.149 1311.74,-139.943 1452.31,-113.568 1539.88,-95.9167"/>
<polygon fill="green" stroke="green" stroke-width="0.574807" points="1540.66,-99.3303 1549.77,-93.916 1539.27,-92.4694 1540.66,-99.3303"/>
</g>
<!-- enemyRadar[LeftBack]&#45;&gt; Move Left/Right -->
<g id="edge41" class="edge"><title>enemyRadar[LeftBack]&#45;&gt; Move Left/Right</title>
<path fill="none" stroke="green" stroke-width="0.193971" d="M535.814,-190.084C604.491,-170.862 779.106,-121.988 873.372,-95.604"/>
<polygon fill="green" stroke="green" stroke-width="0.193971" points="874.383,-98.9555 883.069,-92.8896 872.496,-92.2146 874.383,-98.9555"/>
</g>
<!-- enemyRadar[Right45ø] -->
<g id="node11" class="node"><title>enemyRadar[Right45ø]</title>
<polygon fill="lightgray" stroke="black" points="2303,-208.149 2203,-208.149 2203,-190.149 2303,-190.149 2303,-208.149"/>
<text text-anchor="middle" x="2253" y="-196.949" font-family="Times,serif" font-size="9.00">enemyRadar[Right45ø]</text>
</g>
<!-- enemyRadar[Right45ø]&#45;&gt;Shoot -->
<g id="edge55" class="edge"><title>enemyRadar[Right45ø]&#45;&gt;Shoot</title>
<path fill="none" stroke="green" stroke-width="0.127565" d="M2202.82,-191.068C2199.84,-190.733 2196.88,-190.423 2194,-190.149 1903.76,-162.54 1828.28,-190.426 1539,-154.149 1408.78,-137.82 1256.6,-103.149 1188.77,-86.867"/>
<polygon fill="green" stroke="green" stroke-width="0.127565" points="1189.55,-83.4543 1179.01,-84.5098 1187.9,-90.2588 1189.55,-83.4543"/>
</g>
<!-- enemyRadar[Right45ø]&#45;&gt;Move Forward/Backward -->
<g id="edge31" class="edge"><title>enemyRadar[Right45ø]&#45;&gt;Move Forward/Backward</title>
<path fill="none" stroke="red" stroke-width="0.217005" d="M2202.81,-191.134C2199.83,-190.783 2196.88,-190.451 2194,-190.149 2086.96,-178.913 1810.16,-195.995 1711,-154.149 1702.28,-150.468 1693.83,-145.534 1685.86,-139.938"/>
<polygon fill="red" stroke="red" stroke-width="0.217005" points="1687.84,-137.052 1677.73,-133.893 1683.66,-142.669 1687.84,-137.052"/>
</g>
<!-- enemyRadar[Right45ø]&#45;&gt;Turn left/right -->
<g id="edge3" class="edge"><title>enemyRadar[Right45ø]&#45;&gt;Turn left/right</title>
<path fill="none" stroke="red" stroke-width="0.111692" d="M2220.36,-190.084C2138.49,-169.856 1923.71,-116.793 1821.97,-91.6547"/>
<polygon fill="red" stroke="red" stroke-width="0.111692" points="1822.73,-88.2394 1812.19,-89.2386 1821.05,-95.035 1822.73,-88.2394"/>
</g>
<!-- enemyRadar[Left45ø] -->
<g id="node12" class="node"><title>enemyRadar[Left45ø]</title>
<polygon fill="lightgray" stroke="black" points="1084.5,-208.149 989.5,-208.149 989.5,-190.149 1084.5,-190.149 1084.5,-208.149"/>
<text text-anchor="middle" x="1037" y="-196.949" font-family="Times,serif" font-size="9.00">enemyRadar[Left45ø]</text>
</g>
<!-- enemyRadar[Left45ø]&#45;&gt;Move Forward/Backward -->
<g id="edge43" class="edge"><title>enemyRadar[Left45ø]&#45;&gt;Move Forward/Backward</title>
<path fill="none" stroke="green" stroke-width="0.13027" d="M1076.49,-190.084C1170.73,-170.841 1410.48,-121.881 1539.59,-95.5168"/>
<polygon fill="green" stroke="green" stroke-width="0.13027" points="1540.35,-98.9334 1549.45,-93.5033 1538.95,-92.0749 1540.35,-98.9334"/>
</g>
<!-- enemyRadar[Left45ø]&#45;&gt; Move Left/Right -->
<g id="edge4" class="edge"><title>enemyRadar[Left45ø]&#45;&gt; Move Left/Right</title>
<path fill="none" stroke="red" stroke-width="0.327198" d="M1030.06,-189.896C1019.25,-177.043 997.566,-151.268 977.743,-127.701"/>
<polygon fill="red" stroke="red" stroke-width="0.327198" points="980.226,-125.215 971.11,-119.815 974.869,-129.721 980.226,-125.215"/>
</g>
<!-- enemyRadar[RightFront20ø] -->
<g id="node13" class="node"><title>enemyRadar[RightFront20ø]</title>
<polygon fill="lightgray" stroke="black" points="1494.5,-208.149 1375.5,-208.149 1375.5,-190.149 1494.5,-190.149 1494.5,-208.149"/>
<text text-anchor="middle" x="1435" y="-196.949" font-family="Times,serif" font-size="9.00">enemyRadar[RightFront20ø]</text>
</g>
<!-- enemyRadar[RightFront20ø]&#45;&gt; Move Left/Right -->
<g id="edge39" class="edge"><title>enemyRadar[RightFront20ø]&#45;&gt; Move Left/Right</title>
<path fill="none" stroke="red" stroke-width="0.231224" d="M1375.37,-190.75C1290.22,-180.053 1141.32,-160.82 1117,-154.149 1074.6,-142.521 1028.98,-123.3 994.151,-107.089"/>
<polygon fill="red" stroke="red" stroke-width="0.231224" points="995.62,-103.912 985.081,-102.822 992.64,-110.246 995.62,-103.912"/>
</g>
<!-- enemyRadar[RightFront20ø]&#45;&gt;Turn left/right -->
<g id="edge38" class="edge"><title>enemyRadar[RightFront20ø]&#45;&gt;Turn left/right</title>
<path fill="none" stroke="red" stroke-width="0.394325" d="M1494.64,-191.079C1570.2,-181.747 1692.85,-165.209 1711,-154.149 1722.05,-147.417 1731.61,-137.607 1739.55,-127.257"/>
<polygon fill="red" stroke="red" stroke-width="0.394325" points="1742.57,-129.052 1745.56,-118.889 1736.88,-124.966 1742.57,-129.052"/>
</g>
<!-- enemyRadar[LeftFront20ø] -->
<g id="node14" class="node"><title>enemyRadar[LeftFront20ø]</title>
<polygon fill="lightgray" stroke="black" points="1357,-208.149 1243,-208.149 1243,-190.149 1357,-190.149 1357,-208.149"/>
<text text-anchor="middle" x="1300" y="-196.949" font-family="Times,serif" font-size="9.00">enemyRadar[LeftFront20ø]</text>
</g>
<!-- enemyRadar[LeftFront20ø]&#45;&gt;Shoot -->
<g id="edge42" class="edge"><title>enemyRadar[LeftFront20ø]&#45;&gt;Shoot</title>
<path fill="none" stroke="red" stroke-width="0.176346" d="M1289.9,-189.896C1267.83,-171.872 1214.66,-128.438 1181.45,-101.314"/>
<polygon fill="red" stroke="red" stroke-width="0.176346" points="1183.43,-98.4107 1173.47,-94.7952 1179,-103.832 1183.43,-98.4107"/>
</g>
<!-- enemyRadar[LeftFront20ø]&#45;&gt; Move Left/Right -->
<g id="edge26" class="edge"><title>enemyRadar[LeftFront20ø]&#45;&gt; Move Left/Right</title>
<path fill="none" stroke="green" stroke-width="0.137746" d="M1258.04,-190.079C1220.59,-182.403 1164.5,-169.73 1117,-154.149 1075.23,-140.449 1029.6,-121.244 994.612,-105.558"/>
<polygon fill="green" stroke="green" stroke-width="0.137746" points="996.051,-102.367 985.496,-101.444 993.171,-108.748 996.051,-102.367"/>
</g>
<!-- enemyRadar[LeftFront20ø]&#45;&gt;Turn left/right -->
<g id="edge5" class="edge"><title>enemyRadar[LeftFront20ø]&#45;&gt;Turn left/right</title>
<path fill="none" stroke="green" stroke-width="0.249518" d="M1357.23,-191.153C1360.2,-190.809 1363.13,-190.473 1366,-190.149 1442.6,-181.511 1644.11,-192.457 1711,-154.149 1722.45,-147.59 1732.24,-137.635 1740.28,-127.069"/>
<polygon fill="green" stroke="green" stroke-width="0.249518" points="1743.13,-129.092 1746.08,-118.916 1737.43,-125.033 1743.13,-129.092"/>
</g>
<!-- enemyRadar[RightFront15ø] -->
<g id="node15" class="node"><title>enemyRadar[RightFront15ø]</title>
<polygon fill="lightgray" stroke="black" points="2184.5,-208.149 2065.5,-208.149 2065.5,-190.149 2184.5,-190.149 2184.5,-208.149"/>
<text text-anchor="middle" x="2125" y="-196.949" font-family="Times,serif" font-size="9.00">enemyRadar[RightFront15ø]</text>
</g>
<!-- enemyRadar[RightFront15ø]&#45;&gt;Shoot -->
<g id="edge44" class="edge"><title>enemyRadar[RightFront15ø]&#45;&gt;Shoot</title>
<path fill="none" stroke="red" stroke-width="0.309514" d="M2065.18,-191.043C2062.08,-190.728 2059,-190.428 2056,-190.149 1826.65,-168.88 1767.33,-184.478 1539,-154.149 1408.91,-136.869 1256.66,-102.675 1188.79,-86.6895"/>
<polygon fill="red" stroke="red" stroke-width="0.309514" points="1189.56,-83.2744 1179.02,-84.3764 1187.95,-90.0861 1189.56,-83.2744"/>
</g>
<!-- enemyRadar[RightFront15ø]&#45;&gt;Turn left/right -->
<g id="edge45" class="edge"><title>enemyRadar[RightFront15ø]&#45;&gt;Turn left/right</title>
<path fill="none" stroke="green" stroke-width="0.131843" d="M2100.95,-190.084C2044.05,-170.998 1899.99,-122.679 1820.94,-96.1676"/>
<polygon fill="green" stroke="green" stroke-width="0.131843" points="1821.76,-92.7513 1811.17,-92.8896 1819.54,-99.3879 1821.76,-92.7513"/>
</g>
<!-- enemyRadar[LeftFront15ø] -->
<g id="node16" class="node"><title>enemyRadar[LeftFront15ø]</title>
<polygon fill="lightgray" stroke="black" points="2047,-208.149 1933,-208.149 1933,-190.149 2047,-190.149 2047,-208.149"/>
<text text-anchor="middle" x="1990" y="-196.949" font-family="Times,serif" font-size="9.00">enemyRadar[LeftFront15ø]</text>
</g>
<!-- enemyRadar[LeftFront15ø]&#45;&gt;Move Forward/Backward -->
<g id="edge10" class="edge"><title>enemyRadar[LeftFront15ø]&#45;&gt;Move Forward/Backward</title>
<path fill="none" stroke="red" stroke-width="0.123585" d="M1932.94,-190.891C1857.2,-180.99 1730.68,-163.424 1711,-154.149 1702.43,-150.113 1694.09,-144.956 1686.17,-139.233"/>
<polygon fill="red" stroke="red" stroke-width="0.123585" points="1688.17,-136.353 1678.09,-133.086 1683.93,-141.925 1688.17,-136.353"/>
</g>
<!-- enemyRadar[RightFront7.5ø] -->
<g id="node17" class="node"><title>enemyRadar[RightFront7.5ø]</title>
<polygon fill="lightgray" stroke="black" points="2551,-208.149 2429,-208.149 2429,-190.149 2551,-190.149 2551,-208.149"/>
<text text-anchor="middle" x="2490" y="-196.949" font-family="Times,serif" font-size="9.00">enemyRadar[RightFront7.5ø]</text>
</g>
<!-- enemyRadar[RightFront7.5ø]&#45;&gt;Move Forward/Backward -->
<g id="edge33" class="edge"><title>enemyRadar[RightFront7.5ø]&#45;&gt;Move Forward/Backward</title>
<path fill="none" stroke="red" stroke-width="0.165326" d="M2428.94,-190.941C2425.92,-190.657 2422.93,-190.39 2420,-190.149 2262.77,-177.186 1857.06,-213.76 1711,-154.149 1702.23,-150.571 1693.76,-145.702 1685.77,-140.144"/>
<polygon fill="red" stroke="red" stroke-width="0.165326" points="1687.75,-137.257 1677.63,-134.128 1683.59,-142.886 1687.75,-137.257"/>
</g>
<!-- enemyRadar[RightFront7.5ø]&#45;&gt;Turn left/right -->
<g id="edge14" class="edge"><title>enemyRadar[RightFront7.5ø]&#45;&gt;Turn left/right</title>
<path fill="none" stroke="red" stroke-width="0.208106" d="M2441.72,-190.131C2312.7,-168.704 1960.4,-110.194 1822.96,-87.3688"/>
<polygon fill="red" stroke="red" stroke-width="0.208106" points="1823.49,-83.9091 1813.05,-85.7233 1822.35,-90.8145 1823.49,-83.9091"/>
</g>
<!-- enemyRadar[LeftFront7.5ø] -->
<g id="node18" class="node"><title>enemyRadar[LeftFront7.5ø]</title>
<polygon fill="lightgray" stroke="black" points="1629,-208.149 1513,-208.149 1513,-190.149 1629,-190.149 1629,-208.149"/>
<text text-anchor="middle" x="1571" y="-196.949" font-family="Times,serif" font-size="9.00">enemyRadar[LeftFront7.5ø]</text>
</g>
<!-- enemyRadar[LeftFront7.5ø]&#45;&gt;Shoot -->
<g id="edge25" class="edge"><title>enemyRadar[LeftFront7.5ø]&#45;&gt;Shoot</title>
<path fill="none" stroke="green" stroke-width="0.312042" d="M1542.92,-190.084C1469.2,-168.906 1270.17,-111.731 1188.6,-88.3011"/>
<polygon fill="green" stroke="green" stroke-width="0.312042" points="1189.38,-84.8824 1178.8,-85.4853 1187.44,-91.6103 1189.38,-84.8824"/>
</g>
<!-- enemyRadar[LeftFront7.5ø]&#45;&gt; Move Left/Right -->
<g id="edge12" class="edge"><title>enemyRadar[LeftFront7.5ø]&#45;&gt; Move Left/Right</title>
<path fill="none" stroke="red" stroke-width="0.115243" d="M1512.77,-191.205C1509.47,-190.84 1506.19,-190.486 1503,-190.149 1331.65,-172.082 1284.14,-196.015 1117,-154.149 1074.35,-143.467 1028.74,-124.239 993.968,-107.787"/>
<polygon fill="red" stroke="red" stroke-width="0.115243" points="995.447,-104.615 984.916,-103.452 992.423,-110.928 995.447,-104.615"/>
</g>
<!-- enemyRadar[LeftFront7.5ø]&#45;&gt;Turn left/right -->
<g id="edge24" class="edge"><title>enemyRadar[LeftFront7.5ø]&#45;&gt;Turn left/right</title>
<path fill="none" stroke="red" stroke-width="0.105837" d="M1622.1,-190.146C1650.28,-183.849 1684.78,-172.885 1711,-154.149 1721.42,-146.702 1730.7,-136.716 1738.56,-126.434"/>
<polygon fill="red" stroke="red" stroke-width="0.105837" points="1741.52,-128.318 1744.55,-118.168 1735.85,-124.209 1741.52,-128.318"/>
</g>
<!-- enemyRadar[RightFront2.5ø] -->
<g id="node19" class="node"><title>enemyRadar[RightFront2.5ø]</title>
<polygon fill="lightgray" stroke="black" points="348,-208.149 226,-208.149 226,-190.149 348,-190.149 348,-208.149"/>
<text text-anchor="middle" x="287" y="-196.949" font-family="Times,serif" font-size="9.00">enemyRadar[RightFront2.5ø]</text>
</g>
<!-- enemyRadar[RightFront2.5ø]&#45;&gt;Shoot -->
<g id="edge30" class="edge"><title>enemyRadar[RightFront2.5ø]&#45;&gt;Shoot</title>
<path fill="none" stroke="green" stroke-width="0.226112" d="M348.063,-190.96C351.083,-190.671 354.075,-190.398 357,-190.149 499.598,-178.019 861.649,-190.757 1000,-154.149 1044.96,-142.252 1092.24,-116.394 1122.13,-98.1377"/>
<polygon fill="green" stroke="green" stroke-width="0.226112" points="1124.17,-100.987 1130.83,-92.7397 1120.48,-95.0396 1124.17,-100.987"/>
</g>
<!-- enemyRadar[RightFront2.5ø]&#45;&gt; Move Left/Right -->
<g id="edge54" class="edge"><title>enemyRadar[RightFront2.5ø]&#45;&gt; Move Left/Right</title>
<path fill="none" stroke="red" stroke-width="0.238998" d="M330.338,-190.131C442.026,-169.467 740.122,-114.315 871.868,-89.94"/>
<polygon fill="red" stroke="red" stroke-width="0.238998" points="872.623,-93.3597 881.82,-88.0988 871.35,-86.4765 872.623,-93.3597"/>
</g>
<!-- enemyRadar[LeftFront2.5ø] -->
<g id="node20" class="node"><title>enemyRadar[LeftFront2.5ø]</title>
<polygon fill="lightgray" stroke="black" points="691,-208.149 575,-208.149 575,-190.149 691,-190.149 691,-208.149"/>
<text text-anchor="middle" x="633" y="-196.949" font-family="Times,serif" font-size="9.00">enemyRadar[LeftFront2.5ø]</text>
</g>
<!-- enemyRadar[LeftFront2.5ø]&#45;&gt;Shoot -->
<g id="edge22" class="edge"><title>enemyRadar[LeftFront2.5ø]&#45;&gt;Shoot</title>
<path fill="none" stroke="red" stroke-width="0.287686" d="M691.382,-191.181C794.707,-178.845 999.081,-154.424 1000,-154.149 1044.56,-140.833 1091.93,-115.294 1121.95,-97.4983"/>
<polygon fill="red" stroke="red" stroke-width="0.287686" points="1123.92,-100.398 1130.69,-92.246 1120.31,-94.3982 1123.92,-100.398"/>
</g>
<!-- enemyRadar[LeftFront2.5ø]&#45;&gt;Move Forward/Backward -->
<g id="edge2" class="edge"><title>enemyRadar[LeftFront2.5ø]&#45;&gt;Move Forward/Backward</title>
<path fill="none" stroke="green" stroke-width="0.103184" d="M691.087,-191.05C694.1,-190.733 697.085,-190.43 700,-190.149 916.915,-169.225 972.728,-180.911 1189,-154.149 1311.44,-138.999 1451.8,-112.927 1539.44,-95.5934"/>
<polygon fill="green" stroke="green" stroke-width="0.103184" points="1540.21,-99.0096 1549.34,-93.6294 1538.85,-92.1436 1540.21,-99.0096"/>
</g>
<!-- enemyRadar[LeftFront2.5ø]&#45;&gt; Move Left/Right -->
<g id="edge23" class="edge"><title>enemyRadar[LeftFront2.5ø]&#45;&gt; Move Left/Right</title>
<path fill="none" stroke="green" stroke-width="0.461483" d="M653.351,-190.084C698.149,-172.331 806.77,-129.287 875.562,-102.025"/>
<polygon fill="green" stroke="green" stroke-width="0.461483" points="876.987,-105.225 884.994,-98.2875 874.408,-98.7179 876.987,-105.225"/>
</g>
<!-- enemyRadar[Front7Ø] -->
<g id="node21" class="node"><title>enemyRadar[Front7Ø]</title>
<polygon fill="lightgray" stroke="black" points="1745,-208.149 1647,-208.149 1647,-190.149 1745,-190.149 1745,-208.149"/>
<text text-anchor="middle" x="1696" y="-196.949" font-family="Times,serif" font-size="9.00">enemyRadar[Front7Ø]</text>
</g>
<!-- enemyRadar[Front7Ø]&#45;&gt;Shoot -->
<g id="edge16" class="edge"><title>enemyRadar[Front7Ø]&#45;&gt;Shoot</title>
<path fill="none" stroke="red" stroke-width="0.112647" d="M1659.53,-190.084C1560.53,-168.193 1287.61,-107.842 1189.08,-86.0525"/>
<polygon fill="red" stroke="red" stroke-width="0.112647" points="1189.54,-82.5698 1179.02,-83.828 1188.03,-89.4047 1189.54,-82.5698"/>
</g>
<!-- enemyRadar[Front7Ø]&#45;&gt;Move Forward/Backward -->
<g id="edge17" class="edge"><title>enemyRadar[Front7Ø]&#45;&gt;Move Forward/Backward</title>
<path fill="none" stroke="green" stroke-width="0.248763" d="M1691.12,-189.896C1686.2,-181.569 1678.07,-167.819 1669.16,-152.759"/>
<polygon fill="green" stroke="green" stroke-width="0.248763" points="1671.95,-150.598 1663.85,-143.771 1665.92,-154.161 1671.95,-150.598"/>
</g>
<!-- enemyRadar[Front7Ø]&#45;&gt; Move Left/Right -->
<g id="edge47" class="edge"><title>enemyRadar[Front7Ø]&#45;&gt; Move Left/Right</title>
<path fill="none" stroke="red" stroke-width="0.113533" d="M1646.98,-191.149C1643.94,-190.79 1640.93,-190.452 1638,-190.149 1407.12,-166.278 1342.81,-207.841 1117,-154.149 1074.08,-143.944 1028.29,-124.611 993.505,-107.989"/>
<polygon fill="red" stroke="red" stroke-width="0.113533" points="994.979,-104.814 984.453,-103.607 991.928,-111.115 994.979,-104.814"/>
</g>
<!-- enemyRadar[Front7Ø]&#45;&gt;Turn left/right -->
<g id="edge52" class="edge"><title>enemyRadar[Front7Ø]&#45;&gt;Turn left/right</title>
<path fill="none" stroke="green" stroke-width="0.172118" d="M1700.88,-189.896C1708.64,-176.777 1724.35,-150.197 1738.52,-126.242"/>
<polygon fill="green" stroke="green" stroke-width="0.172118" points="1741.57,-127.955 1743.65,-117.566 1735.55,-124.392 1741.57,-127.955"/>
</g>
<!-- OnTarget -->
<g id="node22" class="node"><title>OnTarget</title>
<polygon fill="lightgray" stroke="black" points="1915,-208.149 1865,-208.149 1865,-190.149 1915,-190.149 1915,-208.149"/>
<text text-anchor="middle" x="1890" y="-196.949" font-family="Times,serif" font-size="9.00">OnTarget</text>
</g>
<!-- OnTarget&#45;&gt;Move Forward/Backward -->
<g id="edge20" class="edge"><title>OnTarget&#45;&gt;Move Forward/Backward</title>
<path fill="none" stroke="red" stroke-width="0.199981" d="M1864.94,-192.153C1816.5,-180.541 1714.45,-155.959 1711,-154.149 1702.83,-149.869 1694.81,-144.651 1687.14,-138.974"/>
<polygon fill="red" stroke="red" stroke-width="0.199981" points="1689.02,-136.006 1678.97,-132.657 1684.74,-141.543 1689.02,-136.006"/>
</g>
<!-- OnTarget&#45;&gt; Move Left/Right -->
<g id="edge36" class="edge"><title>OnTarget&#45;&gt; Move Left/Right</title>
<path fill="none" stroke="red" stroke-width="0.339438" d="M1864.85,-191.691C1861.88,-191.09 1858.88,-190.555 1856,-190.149 1530.38,-144.301 1437.67,-226.963 1117,-154.149 1073.98,-144.38 1028.19,-125.042 993.43,-108.309"/>
<polygon fill="red" stroke="red" stroke-width="0.339438" points="994.908,-105.136 984.386,-103.894 991.837,-111.426 994.908,-105.136"/>
</g>
<!-- OnTarget&#45;&gt;Turn left/right -->
<g id="edge50" class="edge"><title>OnTarget&#45;&gt;Turn left/right</title>
<path fill="none" stroke="green" stroke-width="0.248621" d="M1881.55,-189.896C1866.41,-175.124 1833.8,-143.285 1807.23,-117.345"/>
<polygon fill="green" stroke="green" stroke-width="0.248621" points="1809.51,-114.685 1799.91,-110.204 1804.62,-119.694 1809.51,-114.685"/>
</g>
<!-- bias -->
<g id="node23" class="node"><title>bias</title>
<polygon fill="lightgray" stroke="black" points="1133.5,-208.149 1102.5,-208.149 1102.5,-190.149 1133.5,-190.149 1133.5,-208.149"/>
<text text-anchor="middle" x="1118" y="-196.949" font-family="Times,serif" font-size="9.00">bias</text>
</g>
<!-- bias&#45;&gt;Shoot -->
<g id="edge53" class="edge"><title>bias&#45;&gt;Shoot</title>
<path fill="none" stroke="green" stroke-width="0.11069" d="M1120.41,-189.896C1124.95,-174.298 1135.05,-139.668 1142.81,-113.05"/>
<polygon fill="green" stroke="green" stroke-width="0.11069" points="1146.21,-113.876 1145.65,-103.297 1139.49,-111.918 1146.21,-113.876"/>
</g>
<!-- bias&#45;&gt; Move Left/Right -->
<g id="edge32" class="edge"><title>bias&#45;&gt; Move Left/Right</title>
<path fill="none" stroke="red" stroke-width="0.155085" d="M1105.78,-190.084C1082.49,-174.719 1030.48,-140.407 990.12,-113.781"/>
<polygon fill="red" stroke="red" stroke-width="0.155085" points="991.974,-110.811 981.7,-108.225 988.119,-116.653 991.974,-110.811"/>
</g>
<!-- bias&#45;&gt;Turn left/right -->
<g id="edge7" class="edge"><title>bias&#45;&gt;Turn left/right</title>
<path fill="none" stroke="green" stroke-width="0.144588" d="M1133.59,-192.307C1136.36,-191.456 1139.24,-190.687 1142,-190.149 1266.36,-165.914 1599.8,-214.859 1711,-154.149 1722.59,-147.825 1732.42,-137.957 1740.46,-127.4"/>
<polygon fill="green" stroke="green" stroke-width="0.144588" points="1743.32,-129.419 1746.26,-119.24 1737.62,-125.364 1743.32,-129.419"/>
</g>
</g>
</svg>
