<?xml version="1.0" encoding="UTF-8" standalone="no"?>
<!DOCTYPE svg PUBLIC "-//W3C//DTD SVG 1.1//EN"
 "http://www.w3.org/Graphics/SVG/1.1/DTD/svg11.dtd">
<!-- Generated by graphviz version 2.38.0 (20140413.2041)
 -->
<!-- Title: %3 Pages: 1 -->
<svg width="2478pt" height="613pt"
 viewBox="0.00 0.00 2478.33 613.29" xmlns="http://www.w3.org/2000/svg" xmlns:xlink="http://www.w3.org/1999/xlink">
<g id="graph0" class="graph" transform="scale(1 1) rotate(0) translate(4 609.294)">
<title>%3</title>
<polygon fill="white" stroke="none" points="-4,4 -4,-609.294 2474.33,-609.294 2474.33,4 -4,4"/>
<!-- wallRadar[1,0] -->
<g id="node1" class="node"><title>wallRadar[1,0]</title>
<polygon fill="lightgray" stroke="black" points="1486.75,-441.562 1416.75,-441.562 1416.75,-423.562 1486.75,-423.562 1486.75,-441.562"/>
<text text-anchor="middle" x="1451.75" y="-430.362" font-family="Times,serif" font-size="9.00">wallRadar[1,0]</text>
</g>
<!--  Move Left/Right -->
<g id="node26" class="node"><title> Move Left/Right</title>
<ellipse fill="lightblue" stroke="black" cx="1300.75" cy="-291.91" rx="55.3091" ry="55.3091"/>
<text text-anchor="middle" x="1300.75" y="-289.71" font-family="Times,serif" font-size="9.00"> Move Left/Right</text>
</g>
<!-- wallRadar[1,0]&#45;&gt; Move Left/Right -->
<g id="edge16" class="edge"><title>wallRadar[1,0]&#45;&gt; Move Left/Right</title>
<path fill="none" stroke="green" stroke-width="0.188291" stroke-dasharray="1,5" d="M1442.76,-423.304C1424.57,-406.61 1382.31,-367.805 1348.59,-336.842"/>
<polygon fill="green" stroke="green" stroke-width="0.188291" points="1350.84,-334.149 1341.1,-329.964 1346.1,-339.305 1350.84,-334.149"/>
</g>
<!-- 3674 -->
<g id="node38" class="node"><title>3674</title>
<ellipse fill="white" stroke="black" cx="1556.75" cy="-291.91" rx="25" ry="25"/>
<text text-anchor="middle" x="1556.75" y="-289.71" font-family="Times,serif" font-size="9.00">3674</text>
</g>
<!-- wallRadar[1,0]&#45;&gt;3674 -->
<g id="edge59" class="edge"><title>wallRadar[1,0]&#45;&gt;3674</title>
<path fill="none" stroke="green" stroke-width="0.125499" d="M1458,-423.304C1473,-403.503 1511.55,-352.591 1535.81,-320.558"/>
<polygon fill="green" stroke="green" stroke-width="0.125499" points="1538.7,-322.544 1541.94,-312.459 1533.12,-318.318 1538.7,-322.544"/>
</g>
<!-- wallRadar[0,1] -->
<g id="node2" class="node"><title>wallRadar[0,1]</title>
<polygon fill="lightgray" stroke="black" points="307.749,-532.716 237.749,-532.716 237.749,-514.716 307.749,-514.716 307.749,-532.716"/>
<text text-anchor="middle" x="272.749" y="-521.516" font-family="Times,serif" font-size="9.00">wallRadar[0,1]</text>
</g>
<!-- Turn left/right -->
<g id="node27" class="node"><title>Turn left/right</title>
<ellipse fill="lightblue" stroke="black" cx="1727.75" cy="-46.669" rx="46.8387" ry="46.8387"/>
<text text-anchor="middle" x="1727.75" y="-44.469" font-family="Times,serif" font-size="9.00">Turn left/right</text>
</g>
<!-- wallRadar[0,1]&#45;&gt;Turn left/right -->
<g id="edge18" class="edge"><title>wallRadar[0,1]&#45;&gt;Turn left/right</title>
<path fill="none" stroke="green" stroke-width="0.380279" stroke-dasharray="1,5" d="M242.645,-514.68C216.611,-505.958 180.586,-489.22 163.749,-460.139 151.466,-438.925 155.106,-427.924 163.749,-404.985 203.407,-299.732 234.196,-272.529 330.749,-214.836 562.813,-76.1684 1437.98,-52.3215 1670.65,-48.4064"/>
<polygon fill="green" stroke="green" stroke-width="0.380279" points="1670.97,-51.9016 1680.91,-48.2396 1670.86,-44.9026 1670.97,-51.9016"/>
</g>
<!-- 9042 -->
<g id="node35" class="node"><title>9042</title>
<ellipse fill="white" stroke="black" cx="389.749" cy="-432.562" rx="25" ry="25"/>
<text text-anchor="middle" x="389.749" y="-430.362" font-family="Times,serif" font-size="9.00">9042</text>
</g>
<!-- wallRadar[0,1]&#45;&gt;9042 -->
<g id="edge48" class="edge"><title>wallRadar[0,1]&#45;&gt;9042</title>
<path fill="none" stroke="green" stroke-width="0.405203" d="M283.538,-514.676C299.416,-502.821 329.983,-479.92 355.749,-460.139 358.033,-458.386 360.398,-456.559 362.767,-454.722"/>
<polygon fill="green" stroke="green" stroke-width="0.405203" points="364.992,-457.425 370.733,-448.521 360.692,-451.902 364.992,-457.425"/>
</g>
<!-- wallRadar[&#45;1,0] -->
<g id="node3" class="node"><title>wallRadar[&#45;1,0]</title>
<polygon fill="lightgray" stroke="black" points="1912.25,-441.562 1839.25,-441.562 1839.25,-423.562 1912.25,-423.562 1912.25,-441.562"/>
<text text-anchor="middle" x="1875.75" y="-430.362" font-family="Times,serif" font-size="9.00">wallRadar[&#45;1,0]</text>
</g>
<!-- Shoot -->
<g id="node24" class="node"><title>Shoot</title>
<ellipse fill="lightblue" stroke="black" cx="2016.75" cy="-291.91" rx="26.7407" ry="26.7407"/>
<text text-anchor="middle" x="2016.75" y="-289.71" font-family="Times,serif" font-size="9.00">Shoot</text>
</g>
<!-- wallRadar[&#45;1,0]&#45;&gt;Shoot -->
<g id="edge27" class="edge"><title>wallRadar[&#45;1,0]&#45;&gt;Shoot</title>
<path fill="none" stroke="green" stroke-width="0.290591" d="M1884.15,-423.304C1904.67,-403.118 1958.08,-350.602 1990.51,-318.714"/>
<polygon fill="green" stroke="green" stroke-width="0.290591" points="1993.2,-320.977 1997.87,-311.47 1988.29,-315.986 1993.2,-320.977"/>
</g>
<!-- wallRadar[&#45;1,0]&#45;&gt;Turn left/right -->
<g id="edge28" class="edge"><title>wallRadar[&#45;1,0]&#45;&gt;Turn left/right</title>
<path fill="none" stroke="green" stroke-width="0.371762" stroke-dasharray="1,5" d="M1876.33,-423.427C1878.58,-386.601 1883.88,-232.83 1824.75,-129.338 1813.01,-108.784 1794.01,-91.0878 1775.93,-77.475"/>
<polygon fill="green" stroke="green" stroke-width="0.371762" points="1777.87,-74.555 1767.72,-71.5123 1773.76,-80.2196 1777.87,-74.555"/>
</g>
<!-- wallRadar[0,&#45;1] -->
<g id="node4" class="node"><title>wallRadar[0,&#45;1]</title>
<polygon fill="lightgray" stroke="black" points="246.249,-441.562 173.249,-441.562 173.249,-423.562 246.249,-423.562 246.249,-441.562"/>
<text text-anchor="middle" x="209.749" y="-430.362" font-family="Times,serif" font-size="9.00">wallRadar[0,&#45;1]</text>
</g>
<!-- Move Forward/Backward -->
<g id="node25" class="node"><title>Move Forward/Backward</title>
<ellipse fill="lightblue" stroke="black" cx="416.749" cy="-291.91" rx="77.1494" ry="77.1494"/>
<text text-anchor="middle" x="416.749" y="-289.71" font-family="Times,serif" font-size="9.00">Move Forward/Backward</text>
</g>
<!-- wallRadar[0,&#45;1]&#45;&gt;Move Forward/Backward -->
<g id="edge8" class="edge"><title>wallRadar[0,&#45;1]&#45;&gt;Move Forward/Backward</title>
<path fill="none" stroke="green" stroke-width="1.03886" stroke-dasharray="1,5" d="M221.773,-423.508C245.411,-407.675 299.572,-371.397 344.827,-341.085"/>
<polygon fill="green" stroke="green" stroke-width="1.03886" points="346.803,-343.974 353.164,-335.501 342.907,-338.158 346.803,-343.974"/>
</g>
<!-- wallRadar[0.7,0.7] -->
<g id="node5" class="node"><title>wallRadar[0.7,0.7]</title>
<polygon fill="lightgray" stroke="black" points="347.249,-441.562 264.249,-441.562 264.249,-423.562 347.249,-423.562 347.249,-441.562"/>
<text text-anchor="middle" x="305.749" y="-430.362" font-family="Times,serif" font-size="9.00">wallRadar[0.7,0.7]</text>
</g>
<!-- wallRadar[0.7,0.7]&#45;&gt;Move Forward/Backward -->
<g id="edge10" class="edge"><title>wallRadar[0.7,0.7]&#45;&gt;Move Forward/Backward</title>
<path fill="none" stroke="green" stroke-width="0.34328" d="M312.36,-423.304C322.425,-410.731 342.532,-385.616 362.435,-360.754"/>
<polygon fill="green" stroke="green" stroke-width="0.34328" points="365.36,-362.702 368.877,-352.708 359.895,-358.327 365.36,-362.702"/>
</g>
<!-- wallRadar[&#45;0.7,0.7] -->
<g id="node6" class="node"><title>wallRadar[&#45;0.7,0.7]</title>
<polygon fill="lightgray" stroke="black" points="556.749,-441.562 470.749,-441.562 470.749,-423.562 556.749,-423.562 556.749,-441.562"/>
<text text-anchor="middle" x="513.749" y="-430.362" font-family="Times,serif" font-size="9.00">wallRadar[&#45;0.7,0.7]</text>
</g>
<!-- wallRadar[&#45;0.7,0.7]&#45;&gt;Move Forward/Backward -->
<g id="edge5" class="edge"><title>wallRadar[&#45;0.7,0.7]&#45;&gt;Move Forward/Backward</title>
<path fill="none" stroke="green" stroke-width="0.353658" stroke-dasharray="1,5" d="M507.971,-423.304C499.544,-411.257 483.06,-387.695 466.396,-363.875"/>
<polygon fill="green" stroke="green" stroke-width="0.353658" points="469.107,-361.645 460.507,-355.458 463.371,-365.658 469.107,-361.645"/>
</g>
<!-- wallRadar[&#45;0.7,0.7]&#45;&gt; Move Left/Right -->
<g id="edge12" class="edge"><title>wallRadar[&#45;0.7,0.7]&#45;&gt; Move Left/Right</title>
<path fill="none" stroke="red" stroke-width="0.138264" d="M526.449,-423.419C536.653,-417.292 551.573,-409.247 565.749,-404.985 703.229,-363.646 744.73,-389.971 886.749,-368.985 1011.19,-350.596 1155.47,-322.541 1236.64,-306.133"/>
<polygon fill="red" stroke="red" stroke-width="0.138264" points="1237.59,-309.51 1246.7,-304.093 1236.2,-302.65 1237.59,-309.51"/>
</g>
<!-- 6429 -->
<g id="node40" class="node"><title>6429</title>
<ellipse fill="white" stroke="black" cx="734.749" cy="-154.087" rx="25" ry="25"/>
<text text-anchor="middle" x="734.749" y="-151.887" font-family="Times,serif" font-size="9.00">6429</text>
</g>
<!-- wallRadar[&#45;0.7,0.7]&#45;&gt;6429 -->
<g id="edge39" class="edge"><title>wallRadar[&#45;0.7,0.7]&#45;&gt;6429</title>
<path fill="none" stroke="red" stroke-width="0.372235" stroke-dasharray="1,5" d="M520.363,-423.288C549.241,-387.161 664.982,-242.367 713.344,-181.865"/>
<polygon fill="red" stroke="red" stroke-width="0.372235" points="716.195,-183.904 719.704,-173.907 710.727,-179.533 716.195,-183.904"/>
</g>
<!-- wallRadar[&#45;0.7,&#45;0.7] -->
<g id="node7" class="node"><title>wallRadar[&#45;0.7,&#45;0.7]</title>
<polygon fill="lightgray" stroke="black" points="1090.25,-441.562 1001.25,-441.562 1001.25,-423.562 1090.25,-423.562 1090.25,-441.562"/>
<text text-anchor="middle" x="1045.75" y="-430.362" font-family="Times,serif" font-size="9.00">wallRadar[&#45;0.7,&#45;0.7]</text>
</g>
<!-- wallRadar[&#45;0.7,&#45;0.7]&#45;&gt; Move Left/Right -->
<g id="edge6" class="edge"><title>wallRadar[&#45;0.7,&#45;0.7]&#45;&gt; Move Left/Right</title>
<path fill="none" stroke="red" stroke-width="0.203986" d="M1060.56,-423.508C1095.49,-404.515 1184.53,-356.1 1243.83,-323.857"/>
<polygon fill="red" stroke="red" stroke-width="0.203986" points="1245.61,-326.877 1252.72,-319.025 1242.26,-320.728 1245.61,-326.877"/>
</g>
<!-- wallRadar[0.7,&#45;0.7] -->
<g id="node8" class="node"><title>wallRadar[0.7,&#45;0.7]</title>
<polygon fill="lightgray" stroke="black" points="2340.75,-532.716 2254.75,-532.716 2254.75,-514.716 2340.75,-514.716 2340.75,-532.716"/>
<text text-anchor="middle" x="2297.75" y="-521.516" font-family="Times,serif" font-size="9.00">wallRadar[0.7,&#45;0.7]</text>
</g>
<!-- wallRadar[0.7,&#45;0.7]&#45;&gt;Shoot -->
<g id="edge19" class="edge"><title>wallRadar[0.7,&#45;0.7]&#45;&gt;Shoot</title>
<path fill="none" stroke="red" stroke-width="0.104118" stroke-dasharray="1,5" d="M2296.81,-514.481C2294.03,-493.601 2284.02,-437.916 2253.75,-404.985 2198.56,-344.954 2104.54,-314.056 2053.07,-300.915"/>
<polygon fill="red" stroke="red" stroke-width="0.104118" points="2053.62,-297.444 2043.07,-298.449 2051.94,-304.241 2053.62,-297.444"/>
</g>
<!-- wallRadar[0.7,&#45;0.7]&#45;&gt;Turn left/right -->
<g id="edge4" class="edge"><title>wallRadar[0.7,&#45;0.7]&#45;&gt;Turn left/right</title>
<path fill="none" stroke="red" stroke-width="0.171333" stroke-dasharray="1,5" d="M2299.71,-514.55C2304.02,-495.16 2313.14,-444.981 2302.75,-404.985 2264.28,-256.961 2233.62,-197.591 2096.75,-129.338 1994.12,-78.1608 1859.63,-58.7964 1784.62,-51.6605"/>
<polygon fill="red" stroke="red" stroke-width="0.171333" points="1784.72,-48.1549 1774.44,-50.7327 1784.08,-55.126 1784.72,-48.1549"/>
</g>
<!-- 8510 -->
<g id="node29" class="node"><title>8510</title>
<ellipse fill="white" stroke="black" cx="2016.75" cy="-154.087" rx="25" ry="25"/>
<text text-anchor="middle" x="2016.75" y="-151.887" font-family="Times,serif" font-size="9.00">8510</text>
</g>
<!-- wallRadar[0.7,&#45;0.7]&#45;&gt;8510 -->
<g id="edge46" class="edge"><title>wallRadar[0.7,&#45;0.7]&#45;&gt;8510</title>
<path fill="none" stroke="green" stroke-width="1.00957" d="M2298.44,-514.456C2299.74,-494.434 2300.9,-442.225 2281.75,-404.985 2225.76,-296.083 2102.85,-208.95 2046.29,-172.962"/>
<polygon fill="green" stroke="green" stroke-width="1.00957" points="2048.14,-169.986 2037.81,-167.629 2044.41,-175.913 2048.14,-169.986"/>
</g>
<!-- wallRadar[0.7,&#45;0.7]&#45;&gt;6429 -->
<g id="edge54" class="edge"><title>wallRadar[0.7,&#45;0.7]&#45;&gt;6429</title>
<path fill="none" stroke="green" stroke-width="0.590159" stroke-dasharray="1,5" d="M2259.81,-514.688C2228.34,-508.408 2182.35,-500.1 2141.75,-496.139 2103.03,-492.363 769.218,-487.685 741.749,-460.139 669.109,-387.298 702.643,-249.437 723.072,-187.111"/>
<polygon fill="green" stroke="green" stroke-width="0.590159" points="726.458,-188.022 726.341,-177.428 719.826,-185.783 726.458,-188.022"/>
</g>
<!-- 10297 -->
<g id="node42" class="node"><title>10297</title>
<ellipse fill="white" stroke="black" cx="2216.75" cy="-432.562" rx="27.6545" ry="27.6545"/>
<text text-anchor="middle" x="2216.75" y="-430.362" font-family="Times,serif" font-size="9.00">10297</text>
</g>
<!-- wallRadar[0.7,&#45;0.7]&#45;&gt;10297 -->
<g id="edge60" class="edge"><title>wallRadar[0.7,&#45;0.7]&#45;&gt;10297</title>
<path fill="none" stroke="red" stroke-width="0.138582" d="M2290.27,-514.489C2279.38,-502.494 2258.61,-479.635 2241.92,-461.263"/>
<polygon fill="red" stroke="red" stroke-width="0.138582" points="2244.37,-458.757 2235.05,-453.709 2239.19,-463.464 2244.37,-458.757"/>
</g>
<!-- enemyRadar[RightBack] -->
<g id="node9" class="node"><title>enemyRadar[RightBack]</title>
<polygon fill="lightgray" stroke="black" points="1608.75,-441.562 1504.75,-441.562 1504.75,-423.562 1608.75,-423.562 1608.75,-441.562"/>
<text text-anchor="middle" x="1556.75" y="-430.362" font-family="Times,serif" font-size="9.00">enemyRadar[RightBack]</text>
</g>
<!-- enemyRadar[RightBack]&#45;&gt; Move Left/Right -->
<g id="edge23" class="edge"><title>enemyRadar[RightBack]&#45;&gt; Move Left/Right</title>
<path fill="none" stroke="red" stroke-width="0.287848" d="M1541.88,-423.508C1506.81,-404.515 1417.42,-356.1 1357.89,-323.857"/>
<polygon fill="red" stroke="red" stroke-width="0.287848" points="1359.43,-320.71 1348.97,-319.025 1356.09,-326.866 1359.43,-320.71"/>
</g>
<!-- enemyRadar[RightBack]&#45;&gt;Turn left/right -->
<g id="edge14" class="edge"><title>enemyRadar[RightBack]&#45;&gt;Turn left/right</title>
<path fill="none" stroke="green" stroke-width="0.719455" d="M1561.63,-423.192C1568.47,-411.312 1581.17,-388.798 1590.75,-368.985 1635.82,-275.77 1681.71,-163.97 1707.28,-99.8367"/>
<polygon fill="green" stroke="green" stroke-width="0.719455" points="1710.61,-100.931 1711.05,-90.3457 1704.11,-98.3446 1710.61,-100.931"/>
</g>
<!-- enemyRadar[RightBack]&#45;&gt;3674 -->
<g id="edge34" class="edge"><title>enemyRadar[RightBack]&#45;&gt;3674</title>
<path fill="none" stroke="green" stroke-width="0.428537" d="M1556.75,-423.304C1556.75,-404.814 1556.75,-359.2 1556.75,-327.158"/>
<polygon fill="green" stroke="green" stroke-width="0.428537" points="1560.25,-326.871 1556.75,-316.871 1553.25,-326.871 1560.25,-326.871"/>
</g>
<!-- enemyRadar[LeftBack] -->
<g id="node10" class="node"><title>enemyRadar[LeftBack]</title>
<polygon fill="lightgray" stroke="black" points="1837.25,-605.294 1738.25,-605.294 1738.25,-587.294 1837.25,-587.294 1837.25,-605.294"/>
<text text-anchor="middle" x="1787.75" y="-594.094" font-family="Times,serif" font-size="9.00">enemyRadar[LeftBack]</text>
</g>
<!-- enemyRadar[LeftBack]&#45;&gt;Shoot -->
<g id="edge30" class="edge"><title>enemyRadar[LeftBack]&#45;&gt;Shoot</title>
<path fill="none" stroke="red" stroke-width="0.699337" stroke-dasharray="1,5" d="M1810.66,-587.192C1853.35,-570.747 1944.43,-529.051 1984.75,-460.139 2008.49,-419.562 2015.08,-364.856 2016.67,-329.24"/>
<polygon fill="red" stroke="red" stroke-width="0.699337" points="2020.18,-328.947 2017.02,-318.836 2013.19,-328.714 2020.18,-328.947"/>
</g>
<!-- 7847 -->
<g id="node30" class="node"><title>7847</title>
<ellipse fill="white" stroke="black" cx="1586.75" cy="-523.716" rx="25" ry="25"/>
<text text-anchor="middle" x="1586.75" y="-521.516" font-family="Times,serif" font-size="9.00">7847</text>
</g>
<!-- enemyRadar[LeftBack]&#45;&gt;7847 -->
<g id="edge41" class="edge"><title>enemyRadar[LeftBack]&#45;&gt;7847</title>
<path fill="none" stroke="red" stroke-width="0.492106" d="M1738.01,-587.658C1703.78,-581.114 1657.95,-569.749 1620.75,-551.294 1618.17,-550.014 1615.6,-548.519 1613.09,-546.903"/>
<polygon fill="red" stroke="red" stroke-width="0.492106" points="1615.07,-544.016 1604.89,-541.076 1611.01,-549.722 1615.07,-544.016"/>
</g>
<!-- enemyRadar[Right45ø] -->
<g id="node11" class="node"><title>enemyRadar[Right45ø]</title>
<polygon fill="lightgray" stroke="black" points="2339.75,-605.294 2239.75,-605.294 2239.75,-587.294 2339.75,-587.294 2339.75,-605.294"/>
<text text-anchor="middle" x="2289.75" y="-594.094" font-family="Times,serif" font-size="9.00">enemyRadar[Right45ø]</text>
</g>
<!-- enemyRadar[Left45ø] -->
<g id="node12" class="node"><title>enemyRadar[Left45ø]</title>
<polygon fill="lightgray" stroke="black" points="1782.25,-441.562 1687.25,-441.562 1687.25,-423.562 1782.25,-423.562 1782.25,-441.562"/>
<text text-anchor="middle" x="1734.75" y="-430.362" font-family="Times,serif" font-size="9.00">enemyRadar[Left45ø]</text>
</g>
<!-- enemyRadar[Left45ø]&#45;&gt;Shoot -->
<g id="edge13" class="edge"><title>enemyRadar[Left45ø]&#45;&gt;Shoot</title>
<path fill="none" stroke="red" stroke-width="0.156894" d="M1751.13,-423.508C1796.32,-401.289 1923.4,-338.809 1983.91,-309.054"/>
<polygon fill="red" stroke="red" stroke-width="0.156894" points="1985.6,-312.124 1993.03,-304.571 1982.51,-305.842 1985.6,-312.124"/>
</g>
<!-- enemyRadar[Left45ø]&#45;&gt; Move Left/Right -->
<g id="edge1" class="edge"><title>enemyRadar[Left45ø]&#45;&gt; Move Left/Right</title>
<path fill="none" stroke="red" stroke-width="0.938967" stroke-dasharray="1,5" d="M1719.63,-423.453C1708.34,-417.666 1692.41,-410.042 1677.75,-404.985 1610.89,-381.917 1590.73,-388.473 1522.75,-368.985 1467.65,-353.191 1406.07,-331.783 1361.77,-315.7"/>
<polygon fill="red" stroke="red" stroke-width="0.938967" points="1362.9,-312.387 1352.31,-312.25 1360.5,-318.963 1362.9,-312.387"/>
</g>
<!-- 8377 -->
<g id="node37" class="node"><title>8377</title>
<ellipse fill="white" stroke="black" cx="1734.75" cy="-291.91" rx="25" ry="25"/>
<text text-anchor="middle" x="1734.75" y="-289.71" font-family="Times,serif" font-size="9.00">8377</text>
</g>
<!-- enemyRadar[Left45ø]&#45;&gt;8377 -->
<g id="edge45" class="edge"><title>enemyRadar[Left45ø]&#45;&gt;8377</title>
<path fill="none" stroke="green" stroke-width="0.274393" d="M1734.75,-423.304C1734.75,-404.814 1734.75,-359.2 1734.75,-327.158"/>
<polygon fill="green" stroke="green" stroke-width="0.274393" points="1738.25,-326.871 1734.75,-316.871 1731.25,-326.871 1738.25,-326.871"/>
</g>
<!-- enemyRadar[RightFront20ø] -->
<g id="node13" class="node"><title>enemyRadar[RightFront20ø]</title>
<polygon fill="lightgray" stroke="black" points="694.249,-441.562 575.249,-441.562 575.249,-423.562 694.249,-423.562 694.249,-441.562"/>
<text text-anchor="middle" x="634.749" y="-430.362" font-family="Times,serif" font-size="9.00">enemyRadar[RightFront20ø]</text>
</g>
<!-- enemyRadar[RightFront20ø]&#45;&gt;Move Forward/Backward -->
<g id="edge17" class="edge"><title>enemyRadar[RightFront20ø]&#45;&gt;Move Forward/Backward</title>
<path fill="none" stroke="green" stroke-width="0.178038" stroke-dasharray="1,5" d="M622.086,-423.508C596.754,-407.397 538.137,-370.116 489.99,-339.493"/>
<polygon fill="green" stroke="green" stroke-width="0.178038" points="491.756,-336.468 481.44,-334.055 487.999,-342.375 491.756,-336.468"/>
</g>
<!-- enemyRadar[RightFront20ø]&#45;&gt; Move Left/Right -->
<g id="edge44" class="edge"><title>enemyRadar[RightFront20ø]&#45;&gt; Move Left/Right</title>
<path fill="none" stroke="green" stroke-width="0.121818" d="M665.564,-423.513C686.895,-418.038 715.975,-410.766 741.749,-404.985 920.272,-364.939 1132.43,-324.293 1236.57,-304.791"/>
<polygon fill="green" stroke="green" stroke-width="0.121818" points="1237.43,-308.192 1246.61,-302.914 1236.14,-301.312 1237.43,-308.192"/>
</g>
<!-- enemyRadar[LeftFront20ø] -->
<g id="node14" class="node"><title>enemyRadar[LeftFront20ø]</title>
<polygon fill="lightgray" stroke="black" points="1222.75,-441.562 1108.75,-441.562 1108.75,-423.562 1222.75,-423.562 1222.75,-441.562"/>
<text text-anchor="middle" x="1165.75" y="-430.362" font-family="Times,serif" font-size="9.00">enemyRadar[LeftFront20ø]</text>
</g>
<!-- enemyRadar[LeftFront20ø]&#45;&gt; Move Left/Right -->
<g id="edge9" class="edge"><title>enemyRadar[LeftFront20ø]&#45;&gt; Move Left/Right</title>
<path fill="none" stroke="red" stroke-width="0.811735" stroke-dasharray="1,5" d="M1173.79,-423.304C1189.61,-407.058 1225.81,-369.871 1255.53,-339.351"/>
<polygon fill="red" stroke="red" stroke-width="0.811735" points="1258.07,-341.759 1262.54,-332.153 1253.06,-336.876 1258.07,-341.759"/>
</g>
<!-- enemyRadar[RightFront15ø] -->
<g id="node15" class="node"><title>enemyRadar[RightFront15ø]</title>
<polygon fill="lightgray" stroke="black" points="1360.25,-441.562 1241.25,-441.562 1241.25,-423.562 1360.25,-423.562 1360.25,-441.562"/>
<text text-anchor="middle" x="1300.75" y="-430.362" font-family="Times,serif" font-size="9.00">enemyRadar[RightFront15ø]</text>
</g>
<!-- enemyRadar[RightFront15ø]&#45;&gt; Move Left/Right -->
<g id="edge20" class="edge"><title>enemyRadar[RightFront15ø]&#45;&gt; Move Left/Right</title>
<path fill="none" stroke="green" stroke-width="0.287516" d="M1300.75,-423.304C1300.75,-410.18 1300.75,-383.389 1300.75,-357.486"/>
<polygon fill="green" stroke="green" stroke-width="0.287516" points="1304.25,-357.252 1300.75,-347.252 1297.25,-357.252 1304.25,-357.252"/>
</g>
<!-- enemyRadar[LeftFront15ø] -->
<g id="node16" class="node"><title>enemyRadar[LeftFront15ø]</title>
<polygon fill="lightgray" stroke="black" points="1867.75,-532.716 1753.75,-532.716 1753.75,-514.716 1867.75,-514.716 1867.75,-532.716"/>
<text text-anchor="middle" x="1810.75" y="-521.516" font-family="Times,serif" font-size="9.00">enemyRadar[LeftFront15ø]</text>
</g>
<!-- enemyRadar[LeftFront15ø]&#45;&gt;Shoot -->
<g id="edge15" class="edge"><title>enemyRadar[LeftFront15ø]&#45;&gt;Shoot</title>
<path fill="none" stroke="green" stroke-width="0.321193" d="M1849.91,-514.688C1882.03,-506.214 1926.64,-489.834 1954.75,-460.139 1989.38,-423.551 2005.04,-365.921 2011.85,-328.775"/>
<polygon fill="green" stroke="green" stroke-width="0.321193" points="2015.3,-329.323 2013.54,-318.876 2008.4,-328.142 2015.3,-329.323"/>
</g>
<!-- enemyRadar[LeftFront15ø]&#45;&gt;Turn left/right -->
<g id="edge24" class="edge"><title>enemyRadar[LeftFront15ø]&#45;&gt;Turn left/right</title>
<path fill="none" stroke="red" stroke-width="2.52058" d="M1809.96,-514.579C1806.42,-478.925 1791.24,-333.016 1768.75,-214.836 1761.48,-176.66 1751.02,-134.131 1742.48,-101.524"/>
<polygon fill="red" stroke="red" stroke-width="2.52058" points="1745.83,-100.515 1739.9,-91.739 1739.07,-102.301 1745.83,-100.515"/>
</g>
<!-- 641 -->
<g id="node28" class="node"><title>641</title>
<ellipse fill="white" stroke="black" cx="1647.75" cy="-432.562" rx="21.4286" ry="21.4286"/>
<text text-anchor="middle" x="1647.75" y="-430.362" font-family="Times,serif" font-size="9.00">641</text>
</g>
<!-- enemyRadar[LeftFront15ø]&#45;&gt;641 -->
<g id="edge31" class="edge"><title>enemyRadar[LeftFront15ø]&#45;&gt;641</title>
<path fill="none" stroke="green" stroke-width="0.177017" stroke-dasharray="1,5" d="M1788.55,-514.539C1761.29,-503.998 1714.19,-484.14 1677.75,-460.139 1675.24,-458.489 1672.73,-456.64 1670.28,-454.707"/>
<polygon fill="green" stroke="green" stroke-width="0.177017" points="1672.22,-451.763 1662.33,-447.974 1667.7,-457.106 1672.22,-451.763"/>
</g>
<!-- enemyRadar[RightFront7.5ø] -->
<g id="node17" class="node"><title>enemyRadar[RightFront7.5ø]</title>
<polygon fill="lightgray" stroke="black" points="2221.75,-605.294 2099.75,-605.294 2099.75,-587.294 2221.75,-587.294 2221.75,-605.294"/>
<text text-anchor="middle" x="2160.75" y="-594.094" font-family="Times,serif" font-size="9.00">enemyRadar[RightFront7.5ø]</text>
</g>
<!-- enemyRadar[RightFront7.5ø]&#45;&gt;Shoot -->
<g id="edge21" class="edge"><title>enemyRadar[RightFront7.5ø]&#45;&gt;Shoot</title>
<path fill="none" stroke="red" stroke-width="0.604252" stroke-dasharray="1,5" d="M2160.56,-587.146C2159.62,-559.753 2153.95,-469.099 2119.75,-404.985 2100.98,-369.791 2068.53,-337.138 2045.07,-316.263"/>
<polygon fill="red" stroke="red" stroke-width="0.604252" points="2047.32,-313.586 2037.49,-309.649 2042.72,-318.861 2047.32,-313.586"/>
</g>
<!-- enemyRadar[RightFront7.5ø]&#45;&gt;641 -->
<g id="edge38" class="edge"><title>enemyRadar[RightFront7.5ø]&#45;&gt;641</title>
<path fill="none" stroke="green" stroke-width="0.252364" stroke-dasharray="1,5" d="M2099.41,-594.438C1998.96,-592.112 1804.55,-583.461 1744.75,-551.294 1724.5,-540.399 1687.08,-490.102 1665.11,-458.879"/>
<polygon fill="green" stroke="green" stroke-width="0.252364" points="1667.94,-456.823 1659.35,-450.626 1662.2,-460.83 1667.94,-456.823"/>
</g>
<!-- 10682 -->
<g id="node34" class="node"><title>10682</title>
<ellipse fill="white" stroke="black" cx="2386.75" cy="-523.716" rx="27.6545" ry="27.6545"/>
<text text-anchor="middle" x="2386.75" y="-521.516" font-family="Times,serif" font-size="9.00">10682</text>
</g>
<!-- enemyRadar[RightFront7.5ø]&#45;&gt;10682 -->
<g id="edge68" class="edge"><title>enemyRadar[RightFront7.5ø]&#45;&gt;10682</title>
<path fill="none" stroke="green" stroke-width="0.218933" d="M2221.88,-587.327C2259.89,-580.871 2309.1,-569.732 2349.75,-551.294 2352.23,-550.168 2354.71,-548.865 2357.15,-547.452"/>
<polygon fill="green" stroke="green" stroke-width="0.218933" points="2359.18,-550.311 2365.71,-541.975 2355.4,-544.415 2359.18,-550.311"/>
</g>
<!-- enemyRadar[RightFront7.5ø]&#45;&gt;9042 -->
<g id="edge58" class="edge"><title>enemyRadar[RightFront7.5ø]&#45;&gt;9042</title>
<path fill="none" stroke="green" stroke-width="0.104238" d="M2099.46,-591.028C1989.79,-583.356 1752.71,-566.601 1552.75,-551.294 1050.81,-512.869 892.724,-643.127 423.749,-460.139 421,-459.067 418.293,-457.696 415.68,-456.143"/>
<polygon fill="green" stroke="green" stroke-width="0.104238" points="417.453,-453.115 407.229,-450.335 413.488,-458.883 417.453,-453.115"/>
</g>
<!-- 10430 -->
<g id="node39" class="node"><title>10430</title>
<ellipse fill="white" stroke="black" cx="2442.75" cy="-432.562" rx="27.6545" ry="27.6545"/>
<text text-anchor="middle" x="2442.75" y="-430.362" font-family="Times,serif" font-size="9.00">10430</text>
</g>
<!-- enemyRadar[RightFront7.5ø]&#45;&gt;10430 -->
<g id="edge63" class="edge"><title>enemyRadar[RightFront7.5ø]&#45;&gt;10430</title>
<path fill="none" stroke="green" stroke-width="0.238174" stroke-dasharray="1,5" d="M2219.32,-587.249C2294.61,-576.656 2416.56,-558.526 2423.75,-551.294 2444.53,-530.389 2448.08,-496.319 2447.13,-470.195"/>
<polygon fill="green" stroke="green" stroke-width="0.238174" points="2450.6,-469.678 2446.51,-459.905 2443.61,-470.096 2450.6,-469.678"/>
</g>
<!-- enemyRadar[LeftFront7.5ø] -->
<g id="node18" class="node"><title>enemyRadar[LeftFront7.5ø]</title>
<polygon fill="lightgray" stroke="black" points="982.749,-441.562 866.749,-441.562 866.749,-423.562 982.749,-423.562 982.749,-441.562"/>
<text text-anchor="middle" x="924.749" y="-430.362" font-family="Times,serif" font-size="9.00">enemyRadar[LeftFront7.5ø]</text>
</g>
<!-- enemyRadar[LeftFront7.5ø]&#45;&gt; Move Left/Right -->
<g id="edge55" class="edge"><title>enemyRadar[LeftFront7.5ø]&#45;&gt; Move Left/Right</title>
<path fill="none" stroke="red" stroke-width="0.320307" d="M943.965,-423.53C957.287,-418.062 975.486,-410.793 991.749,-404.985 1041.39,-387.257 1055.04,-386.529 1104.75,-368.985 1150.6,-352.8 1201.8,-332.861 1240.38,-317.456"/>
<polygon fill="red" stroke="red" stroke-width="0.320307" points="1241.92,-320.609 1249.9,-313.642 1239.31,-314.111 1241.92,-320.609"/>
</g>
<!-- enemyRadar[LeftFront7.5ø]&#45;&gt;Turn left/right -->
<g id="edge26" class="edge"><title>enemyRadar[LeftFront7.5ø]&#45;&gt;Turn left/right</title>
<path fill="none" stroke="red" stroke-width="3.64117" d="M934.337,-423.369C971.15,-392.262 1107.82,-279.944 1236.75,-214.836 1387.01,-138.954 1579.64,-84.7556 1672.63,-61.0354"/>
<polygon fill="red" stroke="red" stroke-width="3.64117" points="1673.56,-64.4113 1682.4,-58.5643 1671.84,-57.6254 1673.56,-64.4113"/>
</g>
<!-- 9322 -->
<g id="node31" class="node"><title>9322</title>
<ellipse fill="white" stroke="black" cx="852.749" cy="-291.91" rx="25" ry="25"/>
<text text-anchor="middle" x="852.749" y="-289.71" font-family="Times,serif" font-size="9.00">9322</text>
</g>
<!-- enemyRadar[LeftFront7.5ø]&#45;&gt;9322 -->
<g id="edge50" class="edge"><title>enemyRadar[LeftFront7.5ø]&#45;&gt;9322</title>
<path fill="none" stroke="green" stroke-width="0.269119" d="M920.46,-423.304C910.458,-404.043 885.17,-355.344 868.488,-323.22"/>
<polygon fill="green" stroke="green" stroke-width="0.269119" points="871.537,-321.497 863.823,-314.235 865.325,-324.723 871.537,-321.497"/>
</g>
<!-- enemyRadar[LeftFront7.5ø]&#45;&gt;6429 -->
<g id="edge40" class="edge"><title>enemyRadar[LeftFront7.5ø]&#45;&gt;6429</title>
<path fill="none" stroke="red" stroke-width="0.451065" stroke-dasharray="1,5" d="M925.913,-423.349C929.856,-392.17 939.672,-279.626 886.749,-214.836 857.732,-179.312 804.694,-164.826 769.579,-158.974"/>
<polygon fill="red" stroke="red" stroke-width="0.451065" points="769.713,-155.455 759.303,-157.422 768.667,-162.376 769.713,-155.455"/>
</g>
<!-- enemyRadar[RightFront2.5ø] -->
<g id="node19" class="node"><title>enemyRadar[RightFront2.5ø]</title>
<polygon fill="lightgray" stroke="black" points="124.749,-605.294 2.74874,-605.294 2.74874,-587.294 124.749,-587.294 124.749,-605.294"/>
<text text-anchor="middle" x="63.7487" y="-594.094" font-family="Times,serif" font-size="9.00">enemyRadar[RightFront2.5ø]</text>
</g>
<!-- 10542 -->
<g id="node33" class="node"><title>10542</title>
<ellipse fill="white" stroke="black" cx="35.7487" cy="-523.716" rx="27.6545" ry="27.6545"/>
<text text-anchor="middle" x="35.7487" y="-521.516" font-family="Times,serif" font-size="9.00">10542</text>
</g>
<!-- enemyRadar[RightFront2.5ø]&#45;&gt;10542 -->
<g id="edge65" class="edge"><title>enemyRadar[RightFront2.5ø]&#45;&gt;10542</title>
<path fill="none" stroke="green" stroke-width="0.490353" d="M60.5368,-587.197C57.7653,-580.212 53.5626,-569.618 49.401,-559.128"/>
<polygon fill="green" stroke="green" stroke-width="0.490353" points="52.5739,-557.635 45.6328,-549.63 46.0672,-560.216 52.5739,-557.635"/>
</g>
<!-- 3966 -->
<g id="node41" class="node"><title>3966</title>
<ellipse fill="white" stroke="black" cx="91.7487" cy="-432.562" rx="25" ry="25"/>
<text text-anchor="middle" x="91.7487" y="-430.362" font-family="Times,serif" font-size="9.00">3966</text>
</g>
<!-- enemyRadar[RightFront2.5ø]&#45;&gt;3966 -->
<g id="edge43" class="edge"><title>enemyRadar[RightFront2.5ø]&#45;&gt;3966</title>
<path fill="none" stroke="red" stroke-width="0.241218" stroke-dasharray="1,5" d="M65.5091,-587.204C67.4017,-578.392 70.4483,-563.872 72.7487,-551.294 77.9166,-523.035 83.064,-490.824 86.6949,-467.246"/>
<polygon fill="red" stroke="red" stroke-width="0.241218" points="90.1998,-467.48 88.2511,-457.066 83.2802,-466.422 90.1998,-467.48"/>
</g>
<!-- enemyRadar[LeftFront2.5ø] -->
<g id="node20" class="node"><title>enemyRadar[LeftFront2.5ø]</title>
<polygon fill="lightgray" stroke="black" points="2132.75,-532.716 2016.75,-532.716 2016.75,-514.716 2132.75,-514.716 2132.75,-532.716"/>
<text text-anchor="middle" x="2074.75" y="-521.516" font-family="Times,serif" font-size="9.00">enemyRadar[LeftFront2.5ø]</text>
</g>
<!-- enemyRadar[LeftFront2.5ø]&#45;&gt;Shoot -->
<g id="edge22" class="edge"><title>enemyRadar[LeftFront2.5ø]&#45;&gt;Shoot</title>
<path fill="none" stroke="green" stroke-width="0.160291" stroke-dasharray="1,5" d="M2079.91,-514.625C2086.93,-503.076 2099.16,-480.953 2103.75,-460.139 2109.03,-436.201 2111.69,-428.175 2103.75,-404.985 2091.95,-370.534 2064.76,-338.495 2043.89,-317.573"/>
<polygon fill="green" stroke="green" stroke-width="0.160291" points="2046.13,-314.867 2036.53,-310.384 2041.24,-319.875 2046.13,-314.867"/>
</g>
<!-- enemyRadar[LeftFront2.5ø]&#45;&gt;Move Forward/Backward -->
<g id="edge29" class="edge"><title>enemyRadar[LeftFront2.5ø]&#45;&gt;Move Forward/Backward</title>
<path fill="none" stroke="green" stroke-width="0.361516" d="M2026.08,-514.692C1986.1,-508.459 1927.92,-500.212 1876.75,-496.139 1798.36,-489.899 523.547,-508.767 461.749,-460.139 437.23,-440.846 425.195,-409.717 419.551,-379.517"/>
<polygon fill="green" stroke="green" stroke-width="0.361516" points="422.952,-378.628 417.874,-369.329 416.045,-379.765 422.952,-378.628"/>
</g>
<!-- enemyRadar[LeftFront2.5ø]&#45;&gt; Move Left/Right -->
<g id="edge2" class="edge"><title>enemyRadar[LeftFront2.5ø]&#45;&gt; Move Left/Right</title>
<path fill="none" stroke="red" stroke-width="0.535736" d="M2021.06,-514.671C1981.29,-508.914 1925.73,-501.302 1876.75,-496.139 1772.8,-485.182 1497.45,-513.801 1407.75,-460.139 1401.99,-456.693 1363.61,-395.5 1334.44,-348.127"/>
<polygon fill="red" stroke="red" stroke-width="0.535736" points="1337.33,-346.145 1329.12,-339.459 1331.37,-349.811 1337.33,-346.145"/>
</g>
<!-- enemyRadar[LeftFront2.5ø]&#45;&gt;Turn left/right -->
<g id="edge7" class="edge"><title>enemyRadar[LeftFront2.5ø]&#45;&gt;Turn left/right</title>
<path fill="none" stroke="green" stroke-width="0.181452" d="M2133.09,-519.281C2174.21,-513.451 2226.6,-498.395 2253.75,-460.139 2267.94,-440.149 2261.4,-428.274 2253.75,-404.985 2206.27,-260.437 2177.02,-214.219 2050.75,-129.338 1969.02,-74.3971 1853.13,-56.4117 1784.67,-50.5271"/>
<polygon fill="green" stroke="green" stroke-width="0.181452" points="1784.76,-47.0232 1774.51,-49.7131 1784.2,-54.0008 1784.76,-47.0232"/>
</g>
<!-- 9594 -->
<g id="node32" class="node"><title>9594</title>
<ellipse fill="white" stroke="black" cx="2069.75" cy="-432.562" rx="25" ry="25"/>
<text text-anchor="middle" x="2069.75" y="-430.362" font-family="Times,serif" font-size="9.00">9594</text>
</g>
<!-- enemyRadar[LeftFront2.5ø]&#45;&gt;9594 -->
<g id="edge52" class="edge"><title>enemyRadar[LeftFront2.5ø]&#45;&gt;9594</title>
<path fill="none" stroke="red" stroke-width="0.378659" d="M2074.29,-514.489C2073.69,-503.851 2072.61,-484.667 2071.66,-467.647"/>
<polygon fill="red" stroke="red" stroke-width="0.378659" points="2075.14,-467.213 2071.09,-457.424 2068.15,-467.605 2075.14,-467.213"/>
</g>
<!-- enemyRadar[Front7Ø] -->
<g id="node21" class="node"><title>enemyRadar[Front7Ø]</title>
<polygon fill="lightgray" stroke="black" points="848.749,-441.562 750.749,-441.562 750.749,-423.562 848.749,-423.562 848.749,-441.562"/>
<text text-anchor="middle" x="799.749" y="-430.362" font-family="Times,serif" font-size="9.00">enemyRadar[Front7Ø]</text>
</g>
<!-- enemyRadar[Front7Ø]&#45;&gt;Shoot -->
<g id="edge3" class="edge"><title>enemyRadar[Front7Ø]&#45;&gt;Shoot</title>
<path fill="none" stroke="red" stroke-width="0.101811" d="M813.494,-423.397C824.911,-417.083 841.805,-408.795 857.749,-404.985 1054.8,-357.892 1569.02,-402.976 1768.75,-368.985 1847.09,-355.653 1935.25,-324.558 1982.48,-306.521"/>
<polygon fill="red" stroke="red" stroke-width="0.101811" points="1983.85,-309.744 1991.92,-302.881 1981.33,-303.213 1983.85,-309.744"/>
</g>
<!-- enemyRadar[Front7Ø]&#45;&gt;Move Forward/Backward -->
<g id="edge11" class="edge"><title>enemyRadar[Front7Ø]&#45;&gt;Move Forward/Backward</title>
<path fill="none" stroke="green" stroke-width="0.601271" stroke-dasharray="1,5" d="M777.502,-423.508C724.358,-404.269 587.833,-354.845 498.808,-322.617"/>
<polygon fill="green" stroke="green" stroke-width="0.601271" points="499.866,-319.278 489.272,-319.165 497.483,-325.86 499.866,-319.278"/>
</g>
<!-- enemyRadar[Front7Ø]&#45;&gt;Turn left/right -->
<g id="edge25" class="edge"><title>enemyRadar[Front7Ø]&#45;&gt;Turn left/right</title>
<path fill="none" stroke="red" stroke-width="0.646723" stroke-dasharray="1,5" d="M797.453,-423.556C788.99,-392.18 762.83,-276.3 818.749,-214.836 934.14,-87.9999 1490.43,-56.4305 1671.01,-49.4629"/>
<polygon fill="red" stroke="red" stroke-width="0.646723" points="1671.24,-52.957 1681.1,-49.0844 1670.97,-45.962 1671.24,-52.957"/>
</g>
<!-- enemyRadar[Front7Ø]&#45;&gt;9322 -->
<g id="edge62" class="edge"><title>enemyRadar[Front7Ø]&#45;&gt;9322</title>
<path fill="none" stroke="green" stroke-width="0.121721" d="M802.905,-423.304C810.156,-404.337 828.318,-356.824 840.596,-324.702"/>
<polygon fill="green" stroke="green" stroke-width="0.121721" points="843.898,-325.867 844.199,-315.276 837.359,-323.367 843.898,-325.867"/>
</g>
<!-- OnTarget -->
<g id="node22" class="node"><title>OnTarget</title>
<polygon fill="lightgray" stroke="black" points="1679.75,-532.716 1629.75,-532.716 1629.75,-514.716 1679.75,-514.716 1679.75,-532.716"/>
<text text-anchor="middle" x="1654.75" y="-521.516" font-family="Times,serif" font-size="9.00">OnTarget</text>
</g>
<!-- OnTarget&#45;&gt;641 -->
<g id="edge33" class="edge"><title>OnTarget&#45;&gt;641</title>
<path fill="none" stroke="green" stroke-width="3.14606" d="M1654.1,-514.489C1653.21,-503.102 1651.55,-481.923 1650.15,-464.087"/>
<polygon fill="green" stroke="green" stroke-width="3.14606" points="1653.63,-463.767 1649.36,-454.072 1646.65,-464.315 1653.63,-463.767"/>
</g>
<!-- bias -->
<g id="node23" class="node"><title>bias</title>
<polygon fill="lightgray" stroke="black" points="2389.25,-605.294 2358.25,-605.294 2358.25,-587.294 2389.25,-587.294 2389.25,-605.294"/>
<text text-anchor="middle" x="2373.75" y="-594.094" font-family="Times,serif" font-size="9.00">bias</text>
</g>
<!-- Shoot&#45;&gt;8510 -->
<g id="edge56" class="edge"><title>Shoot&#45;&gt;8510</title>
<path fill="none" stroke="green" stroke-width="0.253836" d="M2016.75,-264.722C2016.75,-243.197 2016.75,-212.541 2016.75,-189.116"/>
<polygon fill="green" stroke="green" stroke-width="0.253836" points="2020.25,-188.92 2016.75,-178.92 2013.25,-188.92 2020.25,-188.92"/>
</g>
<!-- 641&#45;&gt;Shoot -->
<g id="edge32" class="edge"><title>641&#45;&gt;Shoot</title>
<path fill="none" stroke="green" stroke-width="0.585513" d="M1662.08,-416.746C1666.77,-412.508 1672.2,-408.177 1677.75,-404.985 1704.86,-389.383 1900,-328.699 1981.32,-303.732"/>
<polygon fill="green" stroke="green" stroke-width="0.585513" points="1982.57,-307.009 1991.11,-300.731 1980.52,-300.317 1982.57,-307.009"/>
</g>
<!-- 641&#45;&gt; Move Left/Right -->
<g id="edge37" class="edge"><title>641&#45;&gt; Move Left/Right</title>
<path fill="none" stroke="red" stroke-width="0.805237" stroke-dasharray="1,5" d="M1633.38,-416.816C1628.69,-412.581 1623.26,-408.234 1617.75,-404.985 1606.33,-398.255 1451.44,-344.625 1362.49,-314.057"/>
<polygon fill="red" stroke="red" stroke-width="0.805237" points="1363.37,-310.659 1352.77,-310.72 1361.09,-317.279 1363.37,-310.659"/>
</g>
<!-- 8510&#45;&gt;Turn left/right -->
<g id="edge47" class="edge"><title>8510&#45;&gt;Turn left/right</title>
<path fill="none" stroke="green" stroke-width="0.917145" d="M1993.59,-144.638C1947.72,-127.908 1844.3,-90.1833 1780.82,-67.029"/>
<polygon fill="green" stroke="green" stroke-width="0.917145" points="1781.97,-63.722 1771.38,-63.5832 1779.57,-70.2981 1781.97,-63.722"/>
</g>
<!-- 7847&#45;&gt;Shoot -->
<g id="edge42" class="edge"><title>7847&#45;&gt;Shoot</title>
<path fill="none" stroke="red" stroke-width="0.21917" d="M1604.29,-506.096C1609.27,-502.226 1614.93,-498.539 1620.75,-496.139 1745.3,-444.76 1809.54,-534.718 1921.75,-460.139 1924.95,-458.012 1972.69,-372.429 1999.25,-324.546"/>
<polygon fill="red" stroke="red" stroke-width="0.21917" points="2002.31,-326.233 2004.1,-315.79 1996.19,-322.84 2002.31,-326.233"/>
</g>
<!-- 7847&#45;&gt;9042 -->
<g id="edge57" class="edge"><title>7847&#45;&gt;9042</title>
<path fill="none" stroke="green" stroke-width="0.275204" d="M1561.86,-521.557C1396.03,-513.807 456.568,-469.546 428.749,-460.139 424.732,-458.781 420.746,-456.886 416.941,-454.726"/>
<polygon fill="green" stroke="green" stroke-width="0.275204" points="418.783,-451.75 408.467,-449.336 415.026,-457.656 418.783,-451.75"/>
</g>
<!-- 9322&#45;&gt;6429 -->
<g id="edge51" class="edge"><title>9322&#45;&gt;6429</title>
<path fill="none" stroke="green" stroke-width="1.00187" d="M836.835,-272.592C816.425,-249.1 780.89,-208.198 757.594,-181.383"/>
<polygon fill="green" stroke="green" stroke-width="1.00187" points="759.988,-178.802 750.787,-173.548 754.704,-183.393 759.988,-178.802"/>
</g>
<!-- 9594&#45;&gt;Shoot -->
<g id="edge53" class="edge"><title>9594&#45;&gt;Shoot</title>
<path fill="none" stroke="red" stroke-width="0.422961" stroke-dasharray="1,5" d="M2061.23,-409.285C2052.72,-387.021 2039.53,-352.499 2029.71,-326.829"/>
<polygon fill="red" stroke="red" stroke-width="0.422961" points="2032.98,-325.56 2026.14,-317.469 2026.44,-328.059 2032.98,-325.56"/>
</g>
<!-- 6807 -->
<g id="node36" class="node"><title>6807</title>
<ellipse fill="white" stroke="black" cx="24.7487" cy="-432.562" rx="25" ry="25"/>
<text text-anchor="middle" x="24.7487" y="-430.362" font-family="Times,serif" font-size="9.00">6807</text>
</g>
<!-- 10542&#45;&gt;6807 -->
<g id="edge67" class="edge"><title>10542&#45;&gt;6807</title>
<path fill="none" stroke="red" stroke-width="0.439151" d="M32.4484,-495.967C31.333,-486.927 30.0731,-476.716 28.9004,-467.211"/>
<polygon fill="red" stroke="red" stroke-width="0.439151" points="32.3713,-466.76 27.6731,-457.264 25.424,-467.617 32.3713,-466.76"/>
</g>
<!-- 10542&#45;&gt;3966 -->
<g id="edge66" class="edge"><title>10542&#45;&gt;3966</title>
<path fill="none" stroke="red" stroke-width="0.202394" d="M50.1701,-499.757C57.246,-488.492 65.8484,-474.796 73.3885,-462.792"/>
<polygon fill="red" stroke="red" stroke-width="0.202394" points="76.5493,-464.34 78.9045,-454.011 70.6216,-460.617 76.5493,-464.34"/>
</g>
<!-- 10682&#45;&gt;10430 -->
<g id="edge69" class="edge"><title>10682&#45;&gt;10430</title>
<path fill="none" stroke="green" stroke-width="0.28925" d="M2401.17,-499.757C2407.77,-489.254 2415.69,-476.638 2422.85,-465.25"/>
<polygon fill="green" stroke="green" stroke-width="0.28925" points="2426.02,-466.773 2428.38,-456.444 2420.09,-463.05 2426.02,-466.773"/>
</g>
<!-- 9042&#45;&gt;Move Forward/Backward -->
<g id="edge49" class="edge"><title>9042&#45;&gt;Move Forward/Backward</title>
<path fill="none" stroke="red" stroke-width="0.409328" stroke-dasharray="1,5" d="M394.329,-408.042C396.04,-399.257 398.096,-388.697 400.26,-377.583"/>
<polygon fill="red" stroke="red" stroke-width="0.409328" points="403.708,-378.188 402.184,-367.704 396.837,-376.85 403.708,-378.188"/>
</g>
<!-- 3674&#45;&gt;Turn left/right -->
<g id="edge35" class="edge"><title>3674&#45;&gt;Turn left/right</title>
<path fill="none" stroke="green" stroke-width="0.342711" stroke-dasharray="1,5" d="M1563.84,-268.085C1574.79,-235.18 1598.14,-173.522 1631.75,-129.338 1645.64,-111.078 1664.25,-94.0763 1681.39,-80.3652"/>
<polygon fill="green" stroke="green" stroke-width="0.342711" points="1683.93,-82.8211 1689.66,-73.9074 1679.62,-77.3043 1683.93,-82.8211"/>
</g>
<!-- 10430&#45;&gt;Shoot -->
<g id="edge64" class="edge"><title>10430&#45;&gt;Shoot</title>
<path fill="none" stroke="red" stroke-width="0.665716" d="M2416.74,-423.097C2343.47,-399.251 2135.29,-331.491 2051.91,-304.354"/>
<polygon fill="red" stroke="red" stroke-width="0.665716" points="2052.74,-300.943 2042.15,-301.177 2050.57,-307.6 2052.74,-300.943"/>
</g>
<!-- 3966&#45;&gt;Move Forward/Backward -->
<g id="edge36" class="edge"><title>3966&#45;&gt;Move Forward/Backward</title>
<path fill="none" stroke="green" stroke-width="0.397298" d="M114.344,-421.922C159.623,-402.605 263.403,-358.331 336.714,-327.055"/>
<polygon fill="green" stroke="green" stroke-width="0.397298" points="338.122,-330.259 345.947,-323.116 335.375,-323.821 338.122,-330.259"/>
</g>
<!-- 10297&#45;&gt;Shoot -->
<g id="edge61" class="edge"><title>10297&#45;&gt;Shoot</title>
<path fill="none" stroke="red" stroke-width="0.334508" d="M2194.19,-415.926C2158.12,-390.92 2087.41,-341.898 2046.99,-313.878"/>
<polygon fill="red" stroke="red" stroke-width="0.334508" points="2048.82,-310.888 2038.61,-308.067 2044.84,-316.641 2048.82,-310.888"/>
</g>
</g>
</svg>
