<?xml version="1.0" encoding="UTF-8" standalone="no"?>
<!DOCTYPE svg PUBLIC "-//W3C//DTD SVG 1.1//EN"
 "http://www.w3.org/Graphics/SVG/1.1/DTD/svg11.dtd">
<!-- Generated by graphviz version 2.38.0 (20140413.2041)
 -->
<!-- Title: %3 Pages: 1 -->
<svg width="2521pt" height="216pt"
 viewBox="0.00 0.00 2520.50 216.15" xmlns="http://www.w3.org/2000/svg" xmlns:xlink="http://www.w3.org/1999/xlink">
<g id="graph0" class="graph" transform="scale(1 1) rotate(0) translate(4 212.149)">
<title>%3</title>
<polygon fill="white" stroke="none" points="-4,4 -4,-212.149 2516.5,-212.149 2516.5,4 -4,4"/>
<!-- wallRadar[1,0] -->
<g id="node1" class="node"><title>wallRadar[1,0]</title>
<polygon fill="lightgray" stroke="black" points="1012,-208.149 942,-208.149 942,-190.149 1012,-190.149 1012,-208.149"/>
<text text-anchor="middle" x="977" y="-196.949" font-family="Times,serif" font-size="9.00">wallRadar[1,0]</text>
</g>
<!-- Shoot -->
<g id="node24" class="node"><title>Shoot</title>
<ellipse fill="lightblue" stroke="black" cx="1026" cy="-77.0746" rx="26.7407" ry="26.7407"/>
<text text-anchor="middle" x="1026" y="-74.8746" font-family="Times,serif" font-size="9.00">Shoot</text>
</g>
<!-- wallRadar[1,0]&#45;&gt;Shoot -->
<g id="edge17" class="edge"><title>wallRadar[1,0]&#45;&gt;Shoot</title>
<path fill="none" stroke="green" stroke-width="0.112171" d="M980.368,-189.896C986.838,-174.04 1001.33,-138.52 1012.26,-111.738"/>
<polygon fill="green" stroke="green" stroke-width="0.112171" points="1015.57,-112.901 1016.11,-102.319 1009.09,-110.256 1015.57,-112.901"/>
</g>
<!-- Move Forward/Backward -->
<g id="node25" class="node"><title>Move Forward/Backward</title>
<ellipse fill="lightblue" stroke="black" cx="1545" cy="-77.0746" rx="77.1494" ry="77.1494"/>
<text text-anchor="middle" x="1545" y="-74.8746" font-family="Times,serif" font-size="9.00">Move Forward/Backward</text>
</g>
<!-- wallRadar[1,0]&#45;&gt;Move Forward/Backward -->
<g id="edge34" class="edge"><title>wallRadar[1,0]&#45;&gt;Move Forward/Backward</title>
<path fill="none" stroke="red" stroke-width="0.154989" d="M1012.34,-191.676C1015.6,-191.136 1018.86,-190.618 1022,-190.149 1153.51,-170.505 1189.32,-183.512 1319,-154.149 1368.08,-143.036 1421.51,-125.325 1464.09,-109.787"/>
<polygon fill="red" stroke="red" stroke-width="0.154989" points="1465.38,-113.041 1473.55,-106.302 1462.96,-106.472 1465.38,-113.041"/>
</g>
<!-- Turn left/right -->
<g id="node27" class="node"><title>Turn left/right</title>
<ellipse fill="lightblue" stroke="black" cx="1263" cy="-77.0746" rx="46.8387" ry="46.8387"/>
<text text-anchor="middle" x="1263" y="-74.8746" font-family="Times,serif" font-size="9.00">Turn left/right</text>
</g>
<!-- wallRadar[1,0]&#45;&gt;Turn left/right -->
<g id="edge50" class="edge"><title>wallRadar[1,0]&#45;&gt;Turn left/right</title>
<path fill="none" stroke="red" stroke-width="0.248383" d="M996.209,-190.084C1039.51,-171.904 1145.99,-127.199 1210.58,-100.084"/>
<polygon fill="red" stroke="red" stroke-width="0.248383" points="1212.31,-103.151 1220.18,-96.0528 1209.6,-96.6968 1212.31,-103.151"/>
</g>
<!-- wallRadar[0,1] -->
<g id="node2" class="node"><title>wallRadar[0,1]</title>
<polygon fill="lightgray" stroke="black" points="174,-208.149 104,-208.149 104,-190.149 174,-190.149 174,-208.149"/>
<text text-anchor="middle" x="139" y="-196.949" font-family="Times,serif" font-size="9.00">wallRadar[0,1]</text>
</g>
<!-- wallRadar[0,1]&#45;&gt;Shoot -->
<g id="edge26" class="edge"><title>wallRadar[0,1]&#45;&gt;Shoot</title>
<path fill="none" stroke="red" stroke-width="0.173227" d="M174.039,-191.623C177.067,-191.106 180.085,-190.608 183,-190.149 493.8,-141.263 871.295,-96.1063 989.094,-82.3437"/>
<polygon fill="red" stroke="red" stroke-width="0.173227" points="989.83,-85.7817 999.357,-81.1474 989.019,-78.8288 989.83,-85.7817"/>
</g>
<!-- wallRadar[0,1]&#45;&gt;Turn left/right -->
<g id="edge9" class="edge"><title>wallRadar[0,1]&#45;&gt;Turn left/right</title>
<path fill="none" stroke="red" stroke-width="0.165891" d="M174.479,-191.262C177.355,-190.837 180.222,-190.457 183,-190.149 571.614,-147.074 678.907,-232.355 1062,-154.149 1114.97,-143.337 1172.36,-120.396 1212.21,-102.518"/>
<polygon fill="red" stroke="red" stroke-width="0.165891" points="1213.78,-105.647 1221.44,-98.3249 1210.89,-99.2731 1213.78,-105.647"/>
</g>
<!-- wallRadar[&#45;1,0] -->
<g id="node3" class="node"><title>wallRadar[&#45;1,0]</title>
<polygon fill="lightgray" stroke="black" points="2184.5,-208.149 2111.5,-208.149 2111.5,-190.149 2184.5,-190.149 2184.5,-208.149"/>
<text text-anchor="middle" x="2148" y="-196.949" font-family="Times,serif" font-size="9.00">wallRadar[&#45;1,0]</text>
</g>
<!-- wallRadar[&#45;1,0]&#45;&gt;Move Forward/Backward -->
<g id="edge55" class="edge"><title>wallRadar[&#45;1,0]&#45;&gt;Move Forward/Backward</title>
<path fill="none" stroke="red" stroke-width="0.152415" d="M2111.17,-191.577C2108.4,-191.092 2105.66,-190.611 2103,-190.149 2008.84,-173.785 1984.81,-172.416 1891,-154.149 1801.67,-136.754 1700.01,-114.052 1630.12,-97.9889"/>
<polygon fill="red" stroke="red" stroke-width="0.152415" points="1630.57,-94.502 1620.04,-95.6686 1629,-101.324 1630.57,-94.502"/>
</g>
<!--  Move Left/Right -->
<g id="node26" class="node"><title> Move Left/Right</title>
<ellipse fill="lightblue" stroke="black" cx="1955" cy="-77.0746" rx="55.3091" ry="55.3091"/>
<text text-anchor="middle" x="1955" y="-74.8746" font-family="Times,serif" font-size="9.00"> Move Left/Right</text>
</g>
<!-- wallRadar[&#45;1,0]&#45;&gt; Move Left/Right -->
<g id="edge33" class="edge"><title>wallRadar[&#45;1,0]&#45;&gt; Move Left/Right</title>
<path fill="none" stroke="green" stroke-width="0.229961" d="M2135.04,-190.084C2109.89,-174.441 2053.18,-139.159 2010.08,-112.342"/>
<polygon fill="green" stroke="green" stroke-width="0.229961" points="2011.72,-109.241 2001.38,-106.93 2008.02,-115.184 2011.72,-109.241"/>
</g>
<!-- wallRadar[&#45;1,0]&#45;&gt;Turn left/right -->
<g id="edge12" class="edge"><title>wallRadar[&#45;1,0]&#45;&gt;Turn left/right</title>
<path fill="none" stroke="green" stroke-width="0.110022" d="M2111.22,-191.239C2108.44,-190.831 2105.68,-190.461 2103,-190.149 1818.25,-157.001 1739.19,-214.76 1459,-154.149 1408.02,-143.122 1352.89,-120.704 1314.12,-103.046"/>
<polygon fill="green" stroke="green" stroke-width="0.110022" points="1315.18,-99.6787 1304.63,-98.6693 1312.25,-106.035 1315.18,-99.6787"/>
</g>
<!-- wallRadar[0,&#45;1] -->
<g id="node4" class="node"><title>wallRadar[0,&#45;1]</title>
<polygon fill="lightgray" stroke="black" points="1469.5,-208.149 1396.5,-208.149 1396.5,-190.149 1469.5,-190.149 1469.5,-208.149"/>
<text text-anchor="middle" x="1433" y="-196.949" font-family="Times,serif" font-size="9.00">wallRadar[0,&#45;1]</text>
</g>
<!-- wallRadar[0,&#45;1]&#45;&gt;Move Forward/Backward -->
<g id="edge25" class="edge"><title>wallRadar[0,&#45;1]&#45;&gt;Move Forward/Backward</title>
<path fill="none" stroke="green" stroke-width="0.230015" d="M1440.7,-189.896C1450.38,-179.513 1467.93,-160.697 1485.91,-141.424"/>
<polygon fill="green" stroke="green" stroke-width="0.230015" points="1488.54,-143.732 1492.81,-134.032 1483.43,-138.958 1488.54,-143.732"/>
</g>
<!-- wallRadar[0,&#45;1]&#45;&gt;Turn left/right -->
<g id="edge11" class="edge"><title>wallRadar[0,&#45;1]&#45;&gt;Turn left/right</title>
<path fill="none" stroke="red" stroke-width="0.249215" d="M1421.58,-190.084C1399.02,-174.148 1347.6,-137.83 1309.39,-110.844"/>
<polygon fill="red" stroke="red" stroke-width="0.249215" points="1311.16,-107.805 1300.97,-104.894 1307.12,-113.523 1311.16,-107.805"/>
</g>
<!-- wallRadar[0.7,0.7] -->
<g id="node5" class="node"><title>wallRadar[0.7,0.7]</title>
<polygon fill="lightgray" stroke="black" points="2512.5,-208.149 2429.5,-208.149 2429.5,-190.149 2512.5,-190.149 2512.5,-208.149"/>
<text text-anchor="middle" x="2471" y="-196.949" font-family="Times,serif" font-size="9.00">wallRadar[0.7,0.7]</text>
</g>
<!-- wallRadar[0.7,0.7]&#45;&gt;Move Forward/Backward -->
<g id="edge37" class="edge"><title>wallRadar[0.7,0.7]&#45;&gt;Move Forward/Backward</title>
<path fill="none" stroke="red" stroke-width="0.546863" d="M2429.29,-191.302C2426.15,-190.88 2423.03,-190.489 2420,-190.149 2185.82,-163.865 2124.28,-187.543 1891,-154.149 1800.76,-141.232 1699.04,-117.773 1629.37,-100.308"/>
<polygon fill="red" stroke="red" stroke-width="0.546863" points="1629.89,-96.8271 1619.33,-97.7762 1628.17,-103.615 1629.89,-96.8271"/>
</g>
<!-- wallRadar[0.7,0.7]&#45;&gt; Move Left/Right -->
<g id="edge13" class="edge"><title>wallRadar[0.7,0.7]&#45;&gt; Move Left/Right</title>
<path fill="none" stroke="green" stroke-width="0.283751" d="M2436.34,-190.084C2350.77,-170.173 2128.48,-118.443 2018.51,-92.8535"/>
<polygon fill="green" stroke="green" stroke-width="0.283751" points="2019.08,-89.3926 2008.55,-90.535 2017.49,-96.2105 2019.08,-89.3926"/>
</g>
<!-- wallRadar[&#45;0.7,0.7] -->
<g id="node6" class="node"><title>wallRadar[&#45;0.7,0.7]</title>
<polygon fill="lightgray" stroke="black" points="86,-208.149 0,-208.149 0,-190.149 86,-190.149 86,-208.149"/>
<text text-anchor="middle" x="43" y="-196.949" font-family="Times,serif" font-size="9.00">wallRadar[&#45;0.7,0.7]</text>
</g>
<!-- wallRadar[&#45;0.7,0.7]&#45;&gt;Shoot -->
<g id="edge47" class="edge"><title>wallRadar[&#45;0.7,0.7]&#45;&gt;Shoot</title>
<path fill="none" stroke="green" stroke-width="0.2757" d="M86.1143,-191.405C89.1199,-190.969 92.1042,-190.546 95,-190.149 442.141,-142.565 863.635,-95.7742 989.091,-82.0767"/>
<polygon fill="green" stroke="green" stroke-width="0.2757" points="989.735,-85.5273 999.297,-80.9642 988.976,-78.5686 989.735,-85.5273"/>
</g>
<!-- wallRadar[&#45;0.7,&#45;0.7] -->
<g id="node7" class="node"><title>wallRadar[&#45;0.7,&#45;0.7]</title>
<polygon fill="lightgray" stroke="black" points="1119.5,-208.149 1030.5,-208.149 1030.5,-190.149 1119.5,-190.149 1119.5,-208.149"/>
<text text-anchor="middle" x="1075" y="-196.949" font-family="Times,serif" font-size="9.00">wallRadar[&#45;0.7,&#45;0.7]</text>
</g>
<!-- wallRadar[&#45;0.7,&#45;0.7]&#45;&gt;Shoot -->
<g id="edge51" class="edge"><title>wallRadar[&#45;0.7,&#45;0.7]&#45;&gt;Shoot</title>
<path fill="none" stroke="green" stroke-width="0.361767" d="M1071.63,-189.896C1065.16,-174.04 1050.67,-138.52 1039.74,-111.738"/>
<polygon fill="green" stroke="green" stroke-width="0.361767" points="1042.91,-110.256 1035.89,-102.319 1036.43,-112.901 1042.91,-110.256"/>
</g>
<!-- wallRadar[&#45;0.7,&#45;0.7]&#45;&gt;Move Forward/Backward -->
<g id="edge28" class="edge"><title>wallRadar[&#45;0.7,&#45;0.7]&#45;&gt;Move Forward/Backward</title>
<path fill="none" stroke="green" stroke-width="0.105336" d="M1119.57,-190.916C1179.3,-181.085 1282.05,-163.645 1319,-154.149 1367.65,-141.647 1420.94,-123.909 1463.56,-108.705"/>
<polygon fill="green" stroke="green" stroke-width="0.105336" points="1464.81,-111.975 1473.04,-105.302 1462.44,-105.387 1464.81,-111.975"/>
</g>
<!-- wallRadar[&#45;0.7,&#45;0.7]&#45;&gt;Turn left/right -->
<g id="edge6" class="edge"><title>wallRadar[&#45;0.7,&#45;0.7]&#45;&gt;Turn left/right</title>
<path fill="none" stroke="green" stroke-width="0.15881" d="M1087.63,-190.084C1113.35,-173.654 1173,-135.559 1215.58,-108.363"/>
<polygon fill="green" stroke="green" stroke-width="0.15881" points="1217.58,-111.24 1224.12,-102.908 1213.81,-105.341 1217.58,-111.24"/>
</g>
<!-- wallRadar[0.7,&#45;0.7] -->
<g id="node8" class="node"><title>wallRadar[0.7,&#45;0.7]</title>
<polygon fill="lightgray" stroke="black" points="2289,-208.149 2203,-208.149 2203,-190.149 2289,-190.149 2289,-208.149"/>
<text text-anchor="middle" x="2246" y="-196.949" font-family="Times,serif" font-size="9.00">wallRadar[0.7,&#45;0.7]</text>
</g>
<!-- wallRadar[0.7,&#45;0.7]&#45;&gt; Move Left/Right -->
<g id="edge4" class="edge"><title>wallRadar[0.7,&#45;0.7]&#45;&gt; Move Left/Right</title>
<path fill="none" stroke="red" stroke-width="0.412279" d="M2226.45,-190.084C2183.88,-172.518 2081.3,-130.189 2015.14,-102.89"/>
<polygon fill="red" stroke="red" stroke-width="0.412279" points="2016.23,-99.5554 2005.66,-98.9764 2013.56,-106.026 2016.23,-99.5554"/>
</g>
<!-- wallRadar[0.7,&#45;0.7]&#45;&gt;Turn left/right -->
<g id="edge46" class="edge"><title>wallRadar[0.7,&#45;0.7]&#45;&gt;Turn left/right</title>
<path fill="none" stroke="red" stroke-width="0.120186" d="M2202.91,-191.169C2199.9,-190.789 2196.91,-190.443 2194,-190.149 1868.6,-157.239 1778.9,-222.196 1459,-154.149 1407.98,-143.298 1352.86,-120.859 1314.1,-103.149"/>
<polygon fill="red" stroke="red" stroke-width="0.120186" points="1315.16,-99.7818 1304.61,-98.7585 1312.22,-106.135 1315.16,-99.7818"/>
</g>
<!-- enemyRadar[RightBack] -->
<g id="node9" class="node"><title>enemyRadar[RightBack]</title>
<polygon fill="lightgray" stroke="black" points="2411,-208.149 2307,-208.149 2307,-190.149 2411,-190.149 2411,-208.149"/>
<text text-anchor="middle" x="2359" y="-196.949" font-family="Times,serif" font-size="9.00">enemyRadar[RightBack]</text>
</g>
<!-- enemyRadar[RightBack]&#45;&gt;Move Forward/Backward -->
<g id="edge2" class="edge"><title>enemyRadar[RightBack]&#45;&gt;Move Forward/Backward</title>
<path fill="none" stroke="green" stroke-width="0.118671" d="M2306.77,-191.153C2303.81,-190.801 2300.87,-190.464 2298,-190.149 2117.49,-170.338 2070.49,-181.704 1891,-154.149 1800.9,-140.318 1699.15,-117.003 1629.45,-99.8214"/>
<polygon fill="green" stroke="green" stroke-width="0.118671" points="1629.95,-96.3399 1619.4,-97.3328 1628.26,-103.135 1629.95,-96.3399"/>
</g>
<!-- enemyRadar[LeftBack] -->
<g id="node10" class="node"><title>enemyRadar[LeftBack]</title>
<polygon fill="lightgray" stroke="black" points="1719.5,-208.149 1620.5,-208.149 1620.5,-190.149 1719.5,-190.149 1719.5,-208.149"/>
<text text-anchor="middle" x="1670" y="-196.949" font-family="Times,serif" font-size="9.00">enemyRadar[LeftBack]</text>
</g>
<!-- enemyRadar[LeftBack]&#45;&gt;Shoot -->
<g id="edge7" class="edge"><title>enemyRadar[LeftBack]&#45;&gt;Shoot</title>
<path fill="none" stroke="green" stroke-width="0.198159" d="M1620.45,-191.262C1617.25,-190.87 1614.08,-190.495 1611,-190.149 1431.86,-170.033 1381.95,-197.591 1207,-154.149 1152.79,-140.69 1093.82,-113.293 1058.4,-95.3155"/>
<polygon fill="green" stroke="green" stroke-width="0.198159" points="1059.98,-92.1931 1049.49,-90.7382 1056.78,-98.42 1059.98,-92.1931"/>
</g>
<!-- enemyRadar[LeftBack]&#45;&gt;Move Forward/Backward -->
<g id="edge3" class="edge"><title>enemyRadar[LeftBack]&#45;&gt;Move Forward/Backward</title>
<path fill="none" stroke="green" stroke-width="0.349182" d="M1661.41,-189.896C1650.01,-178.947 1628.85,-158.622 1607.67,-138.273"/>
<polygon fill="green" stroke="green" stroke-width="0.349182" points="1609.83,-135.493 1600.19,-131.089 1604.98,-140.541 1609.83,-135.493"/>
</g>
<!-- enemyRadar[LeftBack]&#45;&gt; Move Left/Right -->
<g id="edge24" class="edge"><title>enemyRadar[LeftBack]&#45;&gt; Move Left/Right</title>
<path fill="none" stroke="green" stroke-width="0.244502" d="M1689.14,-190.084C1730.6,-172.618 1830.16,-130.671 1894.99,-103.359"/>
<polygon fill="green" stroke="green" stroke-width="0.244502" points="1896.43,-106.548 1904.29,-99.4402 1893.71,-100.097 1896.43,-106.548"/>
</g>
<!-- enemyRadar[LeftBack]&#45;&gt;Turn left/right -->
<g id="edge30" class="edge"><title>enemyRadar[LeftBack]&#45;&gt;Turn left/right</title>
<path fill="none" stroke="green" stroke-width="0.257439" d="M1620.4,-190.187C1577.28,-182.701 1513.36,-170.247 1459,-154.149 1409.15,-139.387 1354.1,-117.503 1315.07,-100.991"/>
<polygon fill="green" stroke="green" stroke-width="0.257439" points="1316.07,-97.6154 1305.5,-96.9166 1313.33,-104.055 1316.07,-97.6154"/>
</g>
<!-- enemyRadar[Right45ø] -->
<g id="node11" class="node"><title>enemyRadar[Right45ø]</title>
<polygon fill="lightgray" stroke="black" points="1378,-208.149 1278,-208.149 1278,-190.149 1378,-190.149 1378,-208.149"/>
<text text-anchor="middle" x="1328" y="-196.949" font-family="Times,serif" font-size="9.00">enemyRadar[Right45ø]</text>
</g>
<!-- enemyRadar[Right45ø]&#45;&gt;Shoot -->
<g id="edge39" class="edge"><title>enemyRadar[Right45ø]&#45;&gt;Shoot</title>
<path fill="none" stroke="red" stroke-width="0.192482" d="M1304.68,-190.051C1280.22,-181.468 1240.72,-167.356 1207,-154.149 1155.36,-133.922 1096.25,-108.677 1060.02,-92.9626"/>
<polygon fill="red" stroke="red" stroke-width="0.192482" points="1061,-89.5724 1050.44,-88.7952 1058.21,-95.992 1061,-89.5724"/>
</g>
<!-- enemyRadar[Right45ø]&#45;&gt; Move Left/Right -->
<g id="edge42" class="edge"><title>enemyRadar[Right45ø]&#45;&gt; Move Left/Right</title>
<path fill="none" stroke="red" stroke-width="0.420051" d="M1378.01,-191.423C1451.11,-181.497 1583.61,-163.137 1631,-154.149 1722.39,-136.818 1826.96,-111.201 1892,-94.572"/>
<polygon fill="red" stroke="red" stroke-width="0.420051" points="1892.88,-97.9597 1901.7,-92.0845 1891.14,-91.1793 1892.88,-97.9597"/>
</g>
<!-- enemyRadar[Right45ø]&#45;&gt;Turn left/right -->
<g id="edge49" class="edge"><title>enemyRadar[Right45ø]&#45;&gt;Turn left/right</title>
<path fill="none" stroke="red" stroke-width="0.193815" d="M1323.53,-189.896C1316.54,-176.976 1302.48,-150.998 1289.66,-127.331"/>
<polygon fill="red" stroke="red" stroke-width="0.193815" points="1292.67,-125.534 1284.83,-118.406 1286.52,-128.867 1292.67,-125.534"/>
</g>
<!-- enemyRadar[Left45ø] -->
<g id="node12" class="node"><title>enemyRadar[Left45ø]</title>
<polygon fill="lightgray" stroke="black" points="1832.5,-208.149 1737.5,-208.149 1737.5,-190.149 1832.5,-190.149 1832.5,-208.149"/>
<text text-anchor="middle" x="1785" y="-196.949" font-family="Times,serif" font-size="9.00">enemyRadar[Left45ø]</text>
</g>
<!-- enemyRadar[Left45ø]&#45;&gt;Shoot -->
<g id="edge31" class="edge"><title>enemyRadar[Left45ø]&#45;&gt;Shoot</title>
<path fill="none" stroke="green" stroke-width="0.108304" d="M1737.37,-191.104C1734.54,-190.76 1731.73,-190.439 1729,-190.149 1497.74,-165.689 1433.25,-207.929 1207,-154.149 1152.51,-141.197 1093.4,-113.53 1058.05,-95.3742"/>
<polygon fill="green" stroke="green" stroke-width="0.108304" points="1059.65,-92.2612 1049.16,-90.7521 1056.42,-98.4715 1059.65,-92.2612"/>
</g>
<!-- enemyRadar[Left45ø]&#45;&gt;Move Forward/Backward -->
<g id="edge21" class="edge"><title>enemyRadar[Left45ø]&#45;&gt;Move Forward/Backward</title>
<path fill="none" stroke="green" stroke-width="0.129658" d="M1768.88,-190.084C1739.43,-175.352 1675.17,-143.202 1623.02,-117.108"/>
<polygon fill="green" stroke="green" stroke-width="0.129658" points="1624.27,-113.823 1613.77,-112.479 1621.14,-120.083 1624.27,-113.823"/>
</g>
<!-- enemyRadar[Left45ø]&#45;&gt; Move Left/Right -->
<g id="edge48" class="edge"><title>enemyRadar[Left45ø]&#45;&gt; Move Left/Right</title>
<path fill="none" stroke="green" stroke-width="0.445505" d="M1796.42,-190.084C1817.67,-175.077 1864.5,-141.994 1901.8,-115.652"/>
<polygon fill="green" stroke="green" stroke-width="0.445505" points="1903.93,-118.429 1910.08,-109.801 1899.89,-112.712 1903.93,-118.429"/>
</g>
<!-- enemyRadar[Left45ø]&#45;&gt;Turn left/right -->
<g id="edge20" class="edge"><title>enemyRadar[Left45ø]&#45;&gt;Turn left/right</title>
<path fill="none" stroke="red" stroke-width="0.126348" d="M1737.35,-191.311C1734.52,-190.915 1731.72,-190.525 1729,-190.149 1609.08,-173.589 1576.26,-184.264 1459,-154.149 1408.65,-141.217 1353.65,-119.126 1314.77,-102.071"/>
<polygon fill="red" stroke="red" stroke-width="0.126348" points="1315.8,-98.7019 1305.24,-97.8526 1312.97,-105.102 1315.8,-98.7019"/>
</g>
<!-- enemyRadar[RightFront20ø] -->
<g id="node13" class="node"><title>enemyRadar[RightFront20ø]</title>
<polygon fill="lightgray" stroke="black" points="511.5,-208.149 392.5,-208.149 392.5,-190.149 511.5,-190.149 511.5,-208.149"/>
<text text-anchor="middle" x="452" y="-196.949" font-family="Times,serif" font-size="9.00">enemyRadar[RightFront20ø]</text>
</g>
<!-- enemyRadar[RightFront20ø]&#45;&gt;Shoot -->
<g id="edge45" class="edge"><title>enemyRadar[RightFront20ø]&#45;&gt;Shoot</title>
<path fill="none" stroke="green" stroke-width="0.162186" d="M490.553,-190.084C595.901,-168.047 887.558,-107.035 989.922,-85.6218"/>
<polygon fill="green" stroke="green" stroke-width="0.162186" points="990.712,-89.0323 999.784,-83.5588 989.279,-82.1806 990.712,-89.0323"/>
</g>
<!-- enemyRadar[RightFront20ø]&#45;&gt;Move Forward/Backward -->
<g id="edge27" class="edge"><title>enemyRadar[RightFront20ø]&#45;&gt;Move Forward/Backward</title>
<path fill="none" stroke="red" stroke-width="0.155152" d="M511.814,-190.954C514.919,-190.662 517.995,-190.391 521,-190.149 874.885,-161.687 970.024,-219.417 1319,-154.149 1368.56,-144.88 1422.12,-127.213 1464.65,-111.235"/>
<polygon fill="red" stroke="red" stroke-width="0.155152" points="1466,-114.467 1474.1,-107.644 1463.51,-107.923 1466,-114.467"/>
</g>
<!-- enemyRadar[RightFront20ø]&#45;&gt;Turn left/right -->
<g id="edge52" class="edge"><title>enemyRadar[RightFront20ø]&#45;&gt;Turn left/right</title>
<path fill="none" stroke="green" stroke-width="0.28412" d="M511.821,-191.032C514.924,-190.72 517.998,-190.423 521,-190.149 760.981,-168.266 826.527,-205.357 1062,-154.149 1114.66,-142.699 1171.87,-119.956 1211.74,-102.306"/>
<polygon fill="green" stroke="green" stroke-width="0.28412" points="1213.29,-105.449 1220.99,-98.1681 1210.43,-99.0596 1213.29,-105.449"/>
</g>
<!-- enemyRadar[LeftFront20ø] -->
<g id="node14" class="node"><title>enemyRadar[LeftFront20ø]</title>
<polygon fill="lightgray" stroke="black" points="1602,-208.149 1488,-208.149 1488,-190.149 1602,-190.149 1602,-208.149"/>
<text text-anchor="middle" x="1545" y="-196.949" font-family="Times,serif" font-size="9.00">enemyRadar[LeftFront20ø]</text>
</g>
<!-- enemyRadar[LeftFront20ø]&#45;&gt;Move Forward/Backward -->
<g id="edge18" class="edge"><title>enemyRadar[LeftFront20ø]&#45;&gt;Move Forward/Backward</title>
<path fill="none" stroke="red" stroke-width="0.169495" d="M1545,-189.896C1545,-183.793 1545,-174.776 1545,-164.466"/>
<polygon fill="red" stroke="red" stroke-width="0.169495" points="1548.5,-164.237 1545,-154.237 1541.5,-164.237 1548.5,-164.237"/>
</g>
<!-- enemyRadar[LeftFront20ø]&#45;&gt;Turn left/right -->
<g id="edge44" class="edge"><title>enemyRadar[LeftFront20ø]&#45;&gt;Turn left/right</title>
<path fill="none" stroke="green" stroke-width="0.253971" d="M1526.06,-190.084C1483.48,-171.954 1378.95,-127.445 1315.22,-100.308"/>
<polygon fill="green" stroke="green" stroke-width="0.253971" points="1316.31,-96.9693 1305.74,-96.2719 1313.57,-103.41 1316.31,-96.9693"/>
</g>
<!-- enemyRadar[RightFront15ø] -->
<g id="node15" class="node"><title>enemyRadar[RightFront15ø]</title>
<polygon fill="lightgray" stroke="black" points="789.5,-208.149 670.5,-208.149 670.5,-190.149 789.5,-190.149 789.5,-208.149"/>
<text text-anchor="middle" x="730" y="-196.949" font-family="Times,serif" font-size="9.00">enemyRadar[RightFront15ø]</text>
</g>
<!-- enemyRadar[RightFront15ø]&#45;&gt;Shoot -->
<g id="edge41" class="edge"><title>enemyRadar[RightFront15ø]&#45;&gt;Shoot</title>
<path fill="none" stroke="green" stroke-width="0.199283" d="M749.881,-190.084C799.589,-169.92 929.735,-117.125 991.939,-91.8919"/>
<polygon fill="green" stroke="green" stroke-width="0.199283" points="993.365,-95.0904 1001.32,-88.0879 990.734,-88.6038 993.365,-95.0904"/>
</g>
<!-- enemyRadar[RightFront15ø]&#45;&gt;Move Forward/Backward -->
<g id="edge19" class="edge"><title>enemyRadar[RightFront15ø]&#45;&gt;Move Forward/Backward</title>
<path fill="none" stroke="red" stroke-width="0.506658" d="M789.821,-191.042C792.924,-190.727 795.998,-190.427 799,-190.149 1029.68,-168.803 1091.81,-199.472 1319,-154.149 1368.45,-144.285 1421.99,-126.589 1464.55,-110.745"/>
<polygon fill="red" stroke="red" stroke-width="0.506658" points="1465.89,-113.983 1474.01,-107.186 1463.42,-107.431 1465.89,-113.983"/>
</g>
<!-- enemyRadar[RightFront15ø]&#45;&gt;Turn left/right -->
<g id="edge10" class="edge"><title>enemyRadar[RightFront15ø]&#45;&gt;Turn left/right</title>
<path fill="none" stroke="green" stroke-width="0.685926" d="M789.663,-190.998C878.07,-180.286 1036.24,-160.639 1062,-154.149 1114.25,-140.985 1171.52,-118.462 1211.51,-101.33"/>
<polygon fill="green" stroke="green" stroke-width="0.685926" points="1213,-104.502 1220.79,-97.3209 1210.22,-98.0762 1213,-104.502"/>
</g>
<!-- enemyRadar[LeftFront15ø] -->
<g id="node16" class="node"><title>enemyRadar[LeftFront15ø]</title>
<polygon fill="lightgray" stroke="black" points="306,-208.149 192,-208.149 192,-190.149 306,-190.149 306,-208.149"/>
<text text-anchor="middle" x="249" y="-196.949" font-family="Times,serif" font-size="9.00">enemyRadar[LeftFront15ø]</text>
</g>
<!-- enemyRadar[LeftFront15ø]&#45;&gt;Turn left/right -->
<g id="edge14" class="edge"><title>enemyRadar[LeftFront15ø]&#45;&gt;Turn left/right</title>
<path fill="none" stroke="green" stroke-width="0.260159" d="M306.211,-190.957C309.182,-190.665 312.125,-190.392 315,-190.149 646.202,-162.133 736.574,-221.808 1062,-154.149 1114.76,-143.181 1171.96,-120.376 1211.8,-102.581"/>
<polygon fill="green" stroke="green" stroke-width="0.260159" points="1213.37,-105.714 1221.04,-98.4064 1210.48,-99.3358 1213.37,-105.714"/>
</g>
<!-- enemyRadar[RightFront7.5ø] -->
<g id="node17" class="node"><title>enemyRadar[RightFront7.5ø]</title>
<polygon fill="lightgray" stroke="black" points="1260,-208.149 1138,-208.149 1138,-190.149 1260,-190.149 1260,-208.149"/>
<text text-anchor="middle" x="1199" y="-196.949" font-family="Times,serif" font-size="9.00">enemyRadar[RightFront7.5ø]</text>
</g>
<!-- enemyRadar[RightFront7.5ø]&#45;&gt;Shoot -->
<g id="edge8" class="edge"><title>enemyRadar[RightFront7.5ø]&#45;&gt;Shoot</title>
<path fill="none" stroke="green" stroke-width="0.207665" d="M1187.38,-190.084C1160.83,-171.655 1095,-125.968 1056.12,-98.9782"/>
<polygon fill="green" stroke="green" stroke-width="0.207665" points="1058,-96.0219 1047.79,-93.1952 1054,-101.772 1058,-96.0219"/>
</g>
<!-- enemyRadar[RightFront7.5ø]&#45;&gt; Move Left/Right -->
<g id="edge35" class="edge"><title>enemyRadar[RightFront7.5ø]&#45;&gt; Move Left/Right</title>
<path fill="none" stroke="red" stroke-width="0.608432" d="M1260.08,-191.116C1263.09,-190.785 1266.08,-190.461 1269,-190.149 1429.77,-172.97 1471.51,-180.685 1631,-154.149 1722.89,-138.86 1827.55,-112.656 1892.44,-95.3484"/>
<polygon fill="red" stroke="red" stroke-width="0.608432" points="1893.36,-98.7255 1902.11,-92.7561 1891.55,-91.9642 1893.36,-98.7255"/>
</g>
<!-- enemyRadar[RightFront7.5ø]&#45;&gt;Turn left/right -->
<g id="edge36" class="edge"><title>enemyRadar[RightFront7.5ø]&#45;&gt;Turn left/right</title>
<path fill="none" stroke="green" stroke-width="0.493847" d="M1203.4,-189.896C1210.26,-177.023 1224.03,-151.187 1236.61,-127.59"/>
<polygon fill="green" stroke="green" stroke-width="0.493847" points="1239.74,-129.158 1241.35,-118.687 1233.56,-125.866 1239.74,-129.158"/>
</g>
<!-- enemyRadar[LeftFront7.5ø] -->
<g id="node18" class="node"><title>enemyRadar[LeftFront7.5ø]</title>
<polygon fill="lightgray" stroke="black" points="924,-208.149 808,-208.149 808,-190.149 924,-190.149 924,-208.149"/>
<text text-anchor="middle" x="866" y="-196.949" font-family="Times,serif" font-size="9.00">enemyRadar[LeftFront7.5ø]</text>
</g>
<!-- enemyRadar[LeftFront7.5ø]&#45;&gt;Shoot -->
<g id="edge15" class="edge"><title>enemyRadar[LeftFront7.5ø]&#45;&gt;Shoot</title>
<path fill="none" stroke="red" stroke-width="0.203554" d="M876.746,-190.084C900.942,-171.927 960.392,-127.311 996.537,-100.186"/>
<polygon fill="red" stroke="red" stroke-width="0.203554" points="998.853,-102.824 1004.75,-94.022 994.651,-97.2251 998.853,-102.824"/>
</g>
<!-- enemyRadar[LeftFront7.5ø]&#45;&gt;Move Forward/Backward -->
<g id="edge43" class="edge"><title>enemyRadar[LeftFront7.5ø]&#45;&gt;Move Forward/Backward</title>
<path fill="none" stroke="red" stroke-width="0.19495" d="M924.094,-191.12C927.105,-190.784 930.088,-190.459 933,-190.149 1104.33,-171.934 1150.44,-189.873 1319,-154.149 1368.23,-143.716 1421.66,-126.038 1464.21,-110.349"/>
<polygon fill="red" stroke="red" stroke-width="0.19495" points="1465.52,-113.596 1473.67,-106.827 1463.08,-107.036 1465.52,-113.596"/>
</g>
<!-- enemyRadar[RightFront2.5ø] -->
<g id="node19" class="node"><title>enemyRadar[RightFront2.5ø]</title>
<polygon fill="lightgray" stroke="black" points="652,-208.149 530,-208.149 530,-190.149 652,-190.149 652,-208.149"/>
<text text-anchor="middle" x="591" y="-196.949" font-family="Times,serif" font-size="9.00">enemyRadar[RightFront2.5ø]</text>
</g>
<!-- enemyRadar[RightFront2.5ø]&#45;&gt;Shoot -->
<g id="edge40" class="edge"><title>enemyRadar[RightFront2.5ø]&#45;&gt;Shoot</title>
<path fill="none" stroke="green" stroke-width="0.198933" d="M620.217,-190.084C697.386,-168.783 906.471,-111.069 990.413,-87.8978"/>
<polygon fill="green" stroke="green" stroke-width="0.198933" points="991.537,-91.2187 1000.24,-85.1839 989.674,-84.471 991.537,-91.2187"/>
</g>
<!-- enemyRadar[RightFront2.5ø]&#45;&gt;Move Forward/Backward -->
<g id="edge53" class="edge"><title>enemyRadar[RightFront2.5ø]&#45;&gt;Move Forward/Backward</title>
<path fill="none" stroke="red" stroke-width="0.236457" d="M652.169,-191.031C655.493,-190.715 658.786,-190.418 662,-190.149 953.42,-165.767 1031.81,-209.298 1319,-154.149 1368.52,-144.641 1422.07,-126.962 1464.61,-111.038"/>
<polygon fill="red" stroke="red" stroke-width="0.236457" points="1465.95,-114.272 1474.07,-107.46 1463.47,-107.725 1465.95,-114.272"/>
</g>
<!-- enemyRadar[LeftFront2.5ø] -->
<g id="node20" class="node"><title>enemyRadar[LeftFront2.5ø]</title>
<polygon fill="lightgray" stroke="black" points="1967,-208.149 1851,-208.149 1851,-190.149 1967,-190.149 1967,-208.149"/>
<text text-anchor="middle" x="1909" y="-196.949" font-family="Times,serif" font-size="9.00">enemyRadar[LeftFront2.5ø]</text>
</g>
<!-- enemyRadar[LeftFront2.5ø]&#45;&gt;Shoot -->
<g id="edge54" class="edge"><title>enemyRadar[LeftFront2.5ø]&#45;&gt;Shoot</title>
<path fill="none" stroke="red" stroke-width="0.225163" d="M1850.92,-190.99C1847.9,-190.689 1844.92,-190.406 1842,-190.149 1560.41,-165.38 1482.41,-217.838 1207,-154.149 1152.43,-141.53 1093.34,-113.769 1058.02,-95.5025"/>
<polygon fill="red" stroke="red" stroke-width="0.225163" points="1059.62,-92.3906 1049.14,-90.8506 1056.37,-98.5914 1059.62,-92.3906"/>
</g>
<!-- enemyRadar[LeftFront2.5ø]&#45;&gt;Move Forward/Backward -->
<g id="edge5" class="edge"><title>enemyRadar[LeftFront2.5ø]&#45;&gt;Move Forward/Backward</title>
<path fill="none" stroke="red" stroke-width="0.10402" d="M1884.55,-190.084C1832.88,-173.039 1710.53,-132.677 1627.71,-105.357"/>
<polygon fill="red" stroke="red" stroke-width="0.10402" points="1628.65,-101.985 1618.06,-102.176 1626.46,-108.632 1628.65,-101.985"/>
</g>
<!-- enemyRadar[LeftFront2.5ø]&#45;&gt; Move Left/Right -->
<g id="edge1" class="edge"><title>enemyRadar[LeftFront2.5ø]&#45;&gt; Move Left/Right</title>
<path fill="none" stroke="green" stroke-width="0.297883" d="M1912.16,-189.896C1916.37,-178.915 1924.19,-158.5 1932.01,-138.089"/>
<polygon fill="green" stroke="green" stroke-width="0.297883" points="1935.28,-139.336 1935.59,-128.746 1928.74,-136.832 1935.28,-139.336"/>
</g>
<!-- OnTarget -->
<g id="node21" class="node"><title>OnTarget</title>
<polygon fill="lightgray" stroke="black" points="374,-208.149 324,-208.149 324,-190.149 374,-190.149 374,-208.149"/>
<text text-anchor="middle" x="349" y="-196.949" font-family="Times,serif" font-size="9.00">OnTarget</text>
</g>
<!-- OnTarget&#45;&gt;Turn left/right -->
<g id="edge23" class="edge"><title>OnTarget&#45;&gt;Turn left/right</title>
<path fill="none" stroke="green" stroke-width="0.153645" d="M374.156,-191.704C377.122,-191.1 380.119,-190.561 383,-190.149 682.159,-147.372 766.274,-216.376 1062,-154.149 1114.73,-143.054 1171.94,-120.265 1211.79,-102.509"/>
<polygon fill="green" stroke="green" stroke-width="0.153645" points="1213.35,-105.644 1221.02,-98.3436 1210.47,-99.2631 1213.35,-105.644"/>
</g>
<!-- TakingDmg -->
<g id="node22" class="node"><title>TakingDmg</title>
<polygon fill="lightgray" stroke="black" points="2093.5,-208.149 2034.5,-208.149 2034.5,-190.149 2093.5,-190.149 2093.5,-208.149"/>
<text text-anchor="middle" x="2064" y="-196.949" font-family="Times,serif" font-size="9.00">TakingDmg</text>
</g>
<!-- TakingDmg&#45;&gt; Move Left/Right -->
<g id="edge29" class="edge"><title>TakingDmg&#45;&gt; Move Left/Right</title>
<path fill="none" stroke="red" stroke-width="0.272249" d="M2056.51,-189.896C2044.57,-176.748 2020.36,-150.079 1998.58,-126.083"/>
<polygon fill="red" stroke="red" stroke-width="0.272249" points="2000.92,-123.458 1991.61,-118.406 1995.74,-128.163 2000.92,-123.458"/>
</g>
<!-- TakingDmg&#45;&gt;Turn left/right -->
<g id="edge16" class="edge"><title>TakingDmg&#45;&gt;Turn left/right</title>
<path fill="none" stroke="red" stroke-width="0.160137" d="M2034.2,-191.452C2031.44,-190.959 2028.67,-190.513 2026,-190.149 1775.81,-156.051 1705.6,-208.47 1459,-154.149 1408.06,-142.929 1352.93,-120.533 1314.15,-102.933"/>
<polygon fill="red" stroke="red" stroke-width="0.160137" points="1315.2,-99.5657 1304.65,-98.5717 1312.28,-105.927 1315.2,-99.5657"/>
</g>
<!-- bias -->
<g id="node23" class="node"><title>bias</title>
<polygon fill="lightgray" stroke="black" points="2016.5,-208.149 1985.5,-208.149 1985.5,-190.149 2016.5,-190.149 2016.5,-208.149"/>
<text text-anchor="middle" x="2001" y="-196.949" font-family="Times,serif" font-size="9.00">bias</text>
</g>
<!-- bias&#45;&gt;Shoot -->
<g id="edge38" class="edge"><title>bias&#45;&gt;Shoot</title>
<path fill="none" stroke="red" stroke-width="0.110477" d="M1985.29,-192.432C1982.24,-191.521 1979.05,-190.699 1976,-190.149 1639.27,-129.486 1540.73,-229.596 1207,-154.149 1152.37,-141.799 1093.3,-113.961 1058,-95.606"/>
<polygon fill="red" stroke="red" stroke-width="0.110477" points="1059.6,-92.495 1049.12,-90.9302 1056.34,-98.688 1059.6,-92.495"/>
</g>
<!-- bias&#45;&gt;Move Forward/Backward -->
<g id="edge32" class="edge"><title>bias&#45;&gt;Move Forward/Backward</title>
<path fill="none" stroke="green" stroke-width="0.217766" stroke-dasharray="1,5" d="M1985.44,-193.023C1982.32,-192.038 1979.06,-191.037 1976,-190.149 1856.41,-155.495 1716.72,-120.089 1629.54,-98.591"/>
<polygon fill="green" stroke="green" stroke-width="0.217766" points="1630.25,-95.1603 1619.7,-96.1682 1628.58,-101.957 1630.25,-95.1603"/>
</g>
<!-- bias&#45;&gt; Move Left/Right -->
<g id="edge22" class="edge"><title>bias&#45;&gt; Move Left/Right</title>
<path fill="none" stroke="red" stroke-width="0.155342" d="M1997.84,-189.896C1993.63,-178.915 1985.81,-158.5 1977.99,-138.089"/>
<polygon fill="red" stroke="red" stroke-width="0.155342" points="1981.26,-136.832 1974.41,-128.746 1974.72,-139.336 1981.26,-136.832"/>
</g>
</g>
</svg>
