<?xml version="1.0" encoding="UTF-8" standalone="no"?>
<!DOCTYPE svg PUBLIC "-//W3C//DTD SVG 1.1//EN"
 "http://www.w3.org/Graphics/SVG/1.1/DTD/svg11.dtd">
<!-- Generated by graphviz version 2.38.0 (20140413.2041)
 -->
<!-- Title: %3 Pages: 1 -->
<svg width="2520pt" height="172pt"
 viewBox="0.00 0.00 2520.00 172.31" xmlns="http://www.w3.org/2000/svg" xmlns:xlink="http://www.w3.org/1999/xlink">
<g id="graph0" class="graph" transform="scale(1 1) rotate(0) translate(4 168.309)">
<title>%3</title>
<polygon fill="white" stroke="none" points="-4,4 -4,-168.309 2516,-168.309 2516,4 -4,4"/>
<!-- wallRadar[1,0] -->
<g id="node1" class="node"><title>wallRadar[1,0]</title>
<polygon fill="lightgray" stroke="black" points="301,-164.309 231,-164.309 231,-146.309 301,-146.309 301,-164.309"/>
<text text-anchor="middle" x="266" y="-153.109" font-family="Times,serif" font-size="9.00">wallRadar[1,0]</text>
</g>
<!--  Move Backward -->
<g id="node26" class="node"><title> Move Backward</title>
<ellipse fill="lightblue" stroke="black" cx="968" cy="-55.1543" rx="55.3091" ry="55.3091"/>
<text text-anchor="middle" x="968" y="-52.9543" font-family="Times,serif" font-size="9.00"> Move Backward</text>
</g>
<!-- wallRadar[1,0]&#45;&gt; Move Backward -->
<g id="edge3" class="edge"><title>wallRadar[1,0]&#45;&gt; Move Backward</title>
<path fill="none" stroke="green" stroke-width="0.249804" d="M301.008,-147.558C304.042,-147.09 307.071,-146.664 310,-146.309 438.857,-130.671 770.782,-154.027 893,-110.309 901.662,-107.21 910.203,-102.787 918.243,-97.787"/>
<polygon fill="green" stroke="green" stroke-width="0.249804" points="920.334,-100.6 926.752,-92.1706 916.478,-94.758 920.334,-100.6"/>
</g>
<!-- Move Left -->
<g id="node27" class="node"><title>Move Left</title>
<ellipse fill="lightblue" stroke="black" cx="846" cy="-55.1543" rx="38.3684" ry="38.3684"/>
<text text-anchor="middle" x="846" y="-52.9543" font-family="Times,serif" font-size="9.00">Move Left</text>
</g>
<!-- wallRadar[1,0]&#45;&gt;Move Left -->
<g id="edge77" class="edge"><title>wallRadar[1,0]&#45;&gt;Move Left</title>
<path fill="none" stroke="green" stroke-width="0.644047" d="M301.018,-147.642C304.051,-147.155 307.076,-146.702 310,-146.309 490.849,-121.961 541.988,-154.647 719,-110.309 748.148,-103.008 779.202,-89.8714 803.307,-78.3654"/>
<polygon fill="green" stroke="green" stroke-width="0.644047" points="805.055,-81.4072 812.518,-73.887 801.995,-75.1119 805.055,-81.4072"/>
</g>
<!-- wallRadar[0,1] -->
<g id="node2" class="node"><title>wallRadar[0,1]</title>
<polygon fill="lightgray" stroke="black" points="760,-164.309 690,-164.309 690,-146.309 760,-146.309 760,-164.309"/>
<text text-anchor="middle" x="725" y="-153.109" font-family="Times,serif" font-size="9.00">wallRadar[0,1]</text>
</g>
<!-- Move Forward -->
<g id="node25" class="node"><title>Move Forward</title>
<ellipse fill="lightblue" stroke="black" cx="1205" cy="-55.1543" rx="50.41" ry="50.41"/>
<text text-anchor="middle" x="1205" y="-52.9543" font-family="Times,serif" font-size="9.00">Move Forward</text>
</g>
<!-- wallRadar[0,1]&#45;&gt;Move Forward -->
<g id="edge54" class="edge"><title>wallRadar[0,1]&#45;&gt;Move Forward</title>
<path fill="none" stroke="red" stroke-width="0.110944" d="M760.037,-147.767C763.065,-147.254 766.084,-146.76 769,-146.309 893.427,-127.04 927.457,-139.23 1050,-110.309 1083.52,-102.396 1119.94,-89.8876 1149.04,-78.8845"/>
<polygon fill="red" stroke="red" stroke-width="0.110944" points="1150.53,-82.0631 1158.61,-75.2196 1148.02,-75.5257 1150.53,-82.0631"/>
</g>
<!-- wallRadar[0,1]&#45;&gt; Move Backward -->
<g id="edge38" class="edge"><title>wallRadar[0,1]&#45;&gt; Move Backward</title>
<path fill="none" stroke="green" stroke-width="0.418495" d="M760.185,-146.697C802.166,-137.337 869.617,-121.339 893,-110.309 901.214,-106.434 909.458,-101.629 917.319,-96.4935"/>
<polygon fill="green" stroke="green" stroke-width="0.418495" points="919.37,-99.3315 925.679,-90.8197 915.439,-93.5396 919.37,-99.3315"/>
</g>
<!-- Move right -->
<g id="node28" class="node"><title>Move right</title>
<ellipse fill="lightblue" stroke="black" cx="670" cy="-55.1543" rx="39.6962" ry="39.6962"/>
<text text-anchor="middle" x="670" y="-52.9543" font-family="Times,serif" font-size="9.00">Move right</text>
</g>
<!-- wallRadar[0,1]&#45;&gt;Move right -->
<g id="edge51" class="edge"><title>wallRadar[0,1]&#45;&gt;Move right</title>
<path fill="none" stroke="green" stroke-width="0.226916" d="M720.499,-146.276C714.688,-135.905 704.134,-117.071 694.172,-99.2924"/>
<polygon fill="green" stroke="green" stroke-width="0.226916" points="696.986,-97.1547 689.045,-90.1418 690.88,-100.577 696.986,-97.1547"/>
</g>
<!-- Turn Left -->
<g id="node29" class="node"><title>Turn Left</title>
<ellipse fill="lightblue" stroke="black" cx="1427" cy="-55.1543" rx="35.2113" ry="35.2113"/>
<text text-anchor="middle" x="1427" y="-52.9543" font-family="Times,serif" font-size="9.00">Turn Left</text>
</g>
<!-- wallRadar[0,1]&#45;&gt;Turn Left -->
<g id="edge29" class="edge"><title>wallRadar[0,1]&#45;&gt;Turn Left</title>
<path fill="none" stroke="red" stroke-width="0.207164" stroke-dasharray="1,5" d="M760.011,-147.585C763.045,-147.111 766.073,-146.676 769,-146.309 995.779,-117.823 1058.64,-158.792 1282,-110.309 1318.22,-102.447 1357.49,-87.34 1386.02,-75.0749"/>
<polygon fill="red" stroke="red" stroke-width="0.207164" points="1387.5,-78.2482 1395.26,-71.039 1384.7,-71.833 1387.5,-78.2482"/>
</g>
<!-- wallRadar[&#45;1,0] -->
<g id="node3" class="node"><title>wallRadar[&#45;1,0]</title>
<polygon fill="lightgray" stroke="black" points="1697.5,-164.309 1624.5,-164.309 1624.5,-146.309 1697.5,-146.309 1697.5,-164.309"/>
<text text-anchor="middle" x="1661" y="-153.109" font-family="Times,serif" font-size="9.00">wallRadar[&#45;1,0]</text>
</g>
<!-- Shoot -->
<g id="node24" class="node"><title>Shoot</title>
<ellipse fill="lightblue" stroke="black" cx="1661" cy="-55.1543" rx="26.7407" ry="26.7407"/>
<text text-anchor="middle" x="1661" y="-52.9543" font-family="Times,serif" font-size="9.00">Shoot</text>
</g>
<!-- wallRadar[&#45;1,0]&#45;&gt;Shoot -->
<g id="edge53" class="edge"><title>wallRadar[&#45;1,0]&#45;&gt;Shoot</title>
<path fill="none" stroke="green" stroke-width="0.293166" d="M1661,-146.276C1661,-134.556 1661,-112.026 1661,-92.4263"/>
<polygon fill="green" stroke="green" stroke-width="0.293166" points="1664.5,-92.2223 1661,-82.2223 1657.5,-92.2223 1664.5,-92.2223"/>
</g>
<!-- wallRadar[&#45;1,0]&#45;&gt; Move Backward -->
<g id="edge81" class="edge"><title>wallRadar[&#45;1,0]&#45;&gt; Move Backward</title>
<path fill="none" stroke="red" stroke-width="0.232723" d="M1624.39,-147.617C1621.22,-147.136 1618.06,-146.691 1615,-146.309 1407.56,-120.369 1351.45,-148.964 1146,-110.309 1106.42,-102.861 1063.17,-89.821 1029.21,-78.4031"/>
<polygon fill="red" stroke="red" stroke-width="0.232723" points="1030.03,-74.986 1019.44,-75.0762 1027.78,-81.6125 1030.03,-74.986"/>
</g>
<!-- wallRadar[&#45;1,0]&#45;&gt;Move right -->
<g id="edge57" class="edge"><title>wallRadar[&#45;1,0]&#45;&gt;Move right</title>
<path fill="none" stroke="red" stroke-width="0.147027" d="M1624.4,-147.508C1621.23,-147.051 1618.06,-146.641 1615,-146.309 1434.55,-126.718 976.104,-150.057 799,-110.309 769.604,-103.711 738.41,-90.7941 714.062,-79.2298"/>
<polygon fill="red" stroke="red" stroke-width="0.147027" points="715.273,-75.9273 704.748,-74.7141 712.219,-82.2261 715.273,-75.9273"/>
</g>
<!-- wallRadar[&#45;1,0]&#45;&gt;Turn Left -->
<g id="edge2" class="edge"><title>wallRadar[&#45;1,0]&#45;&gt;Turn Left</title>
<path fill="none" stroke="green" stroke-width="0.25328" stroke-dasharray="1,5" d="M1641.85,-146.276C1604.22,-130.49 1519.84,-95.0978 1468.74,-73.6631"/>
<polygon fill="green" stroke="green" stroke-width="0.25328" points="1469.87,-70.3422 1459.3,-69.7016 1467.16,-76.7974 1469.87,-70.3422"/>
</g>
<!-- Turn Right -->
<g id="node30" class="node"><title>Turn Right</title>
<ellipse fill="lightblue" stroke="black" cx="1777" cy="-55.1543" rx="39.6962" ry="39.6962"/>
<text text-anchor="middle" x="1777" y="-52.9543" font-family="Times,serif" font-size="9.00">Turn Right</text>
</g>
<!-- wallRadar[&#45;1,0]&#45;&gt;Turn Right -->
<g id="edge84" class="edge"><title>wallRadar[&#45;1,0]&#45;&gt;Turn Right</title>
<path fill="none" stroke="red" stroke-width="0.322101" d="M1670.49,-146.276C1685.43,-133.634 1715.24,-108.417 1739.52,-87.8647"/>
<polygon fill="red" stroke="red" stroke-width="0.322101" points="1741.82,-90.509 1747.19,-81.3777 1737.3,-85.1653 1741.82,-90.509"/>
</g>
<!-- wallRadar[0,&#45;1] -->
<g id="node4" class="node"><title>wallRadar[0,&#45;1]</title>
<polygon fill="lightgray" stroke="black" points="1234.5,-164.309 1161.5,-164.309 1161.5,-146.309 1234.5,-146.309 1234.5,-164.309"/>
<text text-anchor="middle" x="1198" y="-153.109" font-family="Times,serif" font-size="9.00">wallRadar[0,&#45;1]</text>
</g>
<!-- wallRadar[0,&#45;1]&#45;&gt; Move Backward -->
<g id="edge16" class="edge"><title>wallRadar[0,&#45;1]&#45;&gt; Move Backward</title>
<path fill="none" stroke="red" stroke-width="0.360701" stroke-dasharray="1,5" d="M1179.18,-146.276C1146.52,-132.34 1078.06,-103.122 1027.9,-81.7182"/>
<polygon fill="red" stroke="red" stroke-width="0.360701" points="1029.02,-78.3894 1018.45,-77.6833 1026.27,-84.8276 1029.02,-78.3894"/>
</g>
<!-- wallRadar[0,&#45;1]&#45;&gt;Move Left -->
<g id="edge37" class="edge"><title>wallRadar[0,&#45;1]&#45;&gt;Move Left</title>
<path fill="none" stroke="red" stroke-width="0.471814" d="M1161.36,-147.841C1158.19,-147.311 1155.04,-146.794 1152,-146.309 1042.01,-128.765 1004.4,-158.517 904,-110.309 894.593,-105.792 885.674,-99.2064 877.779,-92.1722"/>
<polygon fill="red" stroke="red" stroke-width="0.471814" points="879.916,-89.3756 870.245,-85.0483 875.107,-94.462 879.916,-89.3756"/>
</g>
<!-- wallRadar[0,&#45;1]&#45;&gt;Turn Right -->
<g id="edge85" class="edge"><title>wallRadar[0,&#45;1]&#45;&gt;Turn Right</title>
<path fill="none" stroke="red" stroke-width="0.255803" d="M1234.79,-147.469C1237.57,-147.045 1240.32,-146.652 1243,-146.309 1443.77,-120.564 1505.98,-177.257 1697,-110.309 1711.66,-105.17 1726.19,-96.661 1738.75,-87.8925"/>
<polygon fill="red" stroke="red" stroke-width="0.255803" points="1741.08,-90.5262 1747.12,-81.8189 1736.97,-84.8617 1741.08,-90.5262"/>
</g>
<!-- wallRadar[0.7,0.7] -->
<g id="node5" class="node"><title>wallRadar[0.7,0.7]</title>
<polygon fill="lightgray" stroke="black" points="539.5,-164.309 456.5,-164.309 456.5,-146.309 539.5,-146.309 539.5,-164.309"/>
<text text-anchor="middle" x="498" y="-153.109" font-family="Times,serif" font-size="9.00">wallRadar[0.7,0.7]</text>
</g>
<!-- wallRadar[0.7,0.7]&#45;&gt; Move Backward -->
<g id="edge82" class="edge"><title>wallRadar[0.7,0.7]&#45;&gt; Move Backward</title>
<path fill="none" stroke="green" stroke-width="0.377692" d="M539.723,-147.585C542.86,-147.135 545.978,-146.703 549,-146.309 701.428,-126.391 749.393,-165.155 893,-110.309 901.594,-107.026 910.097,-102.502 918.12,-97.4548"/>
<polygon fill="green" stroke="green" stroke-width="0.377692" points="920.226,-100.257 926.618,-91.8076 916.352,-94.4271 920.226,-100.257"/>
</g>
<!-- wallRadar[0.7,0.7]&#45;&gt;Move right -->
<g id="edge78" class="edge"><title>wallRadar[0.7,0.7]&#45;&gt;Move right</title>
<path fill="none" stroke="red" stroke-width="1.53634" stroke-dasharray="1,5" d="M512.075,-146.276C536.884,-132.119 589.327,-102.192 626.978,-80.7057"/>
<polygon fill="red" stroke="red" stroke-width="1.53634" points="628.775,-83.7097 635.726,-75.7134 625.306,-77.63 628.775,-83.7097"/>
</g>
<!-- wallRadar[0.7,0.7]&#45;&gt;Turn Left -->
<g id="edge76" class="edge"><title>wallRadar[0.7,0.7]&#45;&gt;Turn Left</title>
<path fill="none" stroke="red" stroke-width="0.311147" d="M539.701,-147.397C542.843,-146.99 545.969,-146.62 549,-146.309 873.464,-112.988 962.544,-176.149 1282,-110.309 1318.3,-102.828 1357.57,-87.691 1386.07,-75.3178"/>
<polygon fill="red" stroke="red" stroke-width="0.311147" points="1387.57,-78.482 1395.31,-71.2427 1384.75,-72.0778 1387.57,-78.482"/>
</g>
<!-- wallRadar[&#45;0.7,0.7] -->
<g id="node6" class="node"><title>wallRadar[&#45;0.7,0.7]</title>
<polygon fill="lightgray" stroke="black" points="2512,-164.309 2426,-164.309 2426,-146.309 2512,-146.309 2512,-164.309"/>
<text text-anchor="middle" x="2469" y="-153.109" font-family="Times,serif" font-size="9.00">wallRadar[&#45;0.7,0.7]</text>
</g>
<!-- wallRadar[&#45;0.7,0.7]&#45;&gt;Turn Left -->
<g id="edge5" class="edge"><title>wallRadar[&#45;0.7,0.7]&#45;&gt;Turn Left</title>
<path fill="none" stroke="red" stroke-width="0.470201" d="M2425.91,-147.316C2422.9,-146.939 2419.91,-146.598 2417,-146.309 2066.36,-111.469 1973.07,-165.124 1625,-110.309 1570.48,-101.722 1509.46,-83.7046 1469.76,-70.8097"/>
<polygon fill="red" stroke="red" stroke-width="0.470201" points="1470.73,-67.4462 1460.14,-67.6505 1468.55,-74.0966 1470.73,-67.4462"/>
</g>
<!-- wallRadar[&#45;0.7,0.7]&#45;&gt;Turn Right -->
<g id="edge65" class="edge"><title>wallRadar[&#45;0.7,0.7]&#45;&gt;Turn Right</title>
<path fill="none" stroke="green" stroke-width="0.299773" d="M2425.88,-147.631C2422.87,-147.179 2419.89,-146.735 2417,-146.309 2197.03,-113.897 1934.15,-77.6468 1826.57,-62.9192"/>
<polygon fill="green" stroke="green" stroke-width="0.299773" points="1826.73,-59.4085 1816.35,-61.5205 1825.78,-66.3439 1826.73,-59.4085"/>
</g>
<!-- wallRadar[&#45;0.7,&#45;0.7] -->
<g id="node7" class="node"><title>wallRadar[&#45;0.7,&#45;0.7]</title>
<polygon fill="lightgray" stroke="black" points="2407.5,-164.309 2318.5,-164.309 2318.5,-146.309 2407.5,-146.309 2407.5,-164.309"/>
<text text-anchor="middle" x="2363" y="-153.109" font-family="Times,serif" font-size="9.00">wallRadar[&#45;0.7,&#45;0.7]</text>
</g>
<!-- wallRadar[&#45;0.7,&#45;0.7]&#45;&gt;Shoot -->
<g id="edge66" class="edge"><title>wallRadar[&#45;0.7,&#45;0.7]&#45;&gt;Shoot</title>
<path fill="none" stroke="green" stroke-width="0.821287" d="M2318.25,-147.379C2315.12,-146.987 2312.02,-146.625 2309,-146.309 2180.35,-132.818 1848.57,-157.186 1728,-110.309 1712.48,-104.276 1697.79,-93.2504 1686.14,-82.7151"/>
<polygon fill="green" stroke="green" stroke-width="0.821287" points="1688.26,-79.8996 1678.59,-75.567 1683.45,-84.9833 1688.26,-79.8996"/>
</g>
<!-- wallRadar[&#45;0.7,&#45;0.7]&#45;&gt; Move Backward -->
<g id="edge55" class="edge"><title>wallRadar[&#45;0.7,&#45;0.7]&#45;&gt; Move Backward</title>
<path fill="none" stroke="green" stroke-width="0.338352" d="M2318.26,-147.272C2315.13,-146.905 2312.02,-146.578 2309,-146.309 2051.46,-123.324 1401.13,-152.305 1146,-110.309 1106.26,-103.767 1063,-90.7501 1029.08,-79.1179"/>
<polygon fill="green" stroke="green" stroke-width="0.338352" points="1029.92,-75.7028 1019.32,-75.7212 1027.62,-82.3138 1029.92,-75.7028"/>
</g>
<!-- wallRadar[&#45;0.7,&#45;0.7]&#45;&gt;Turn Right -->
<g id="edge59" class="edge"><title>wallRadar[&#45;0.7,&#45;0.7]&#45;&gt;Turn Right</title>
<path fill="none" stroke="red" stroke-width="0.320861" d="M2318.47,-146.851C2210.99,-128.846 1937.94,-83.1121 1826.01,-64.363"/>
<polygon fill="red" stroke="red" stroke-width="0.320861" points="1826.45,-60.8878 1816.01,-62.6876 1825.29,-67.7916 1826.45,-60.8878"/>
</g>
<!-- wallRadar[0.7,&#45;0.7] -->
<g id="node8" class="node"><title>wallRadar[0.7,&#45;0.7]</title>
<polygon fill="lightgray" stroke="black" points="86,-164.309 0,-164.309 0,-146.309 86,-146.309 86,-164.309"/>
<text text-anchor="middle" x="43" y="-153.109" font-family="Times,serif" font-size="9.00">wallRadar[0.7,&#45;0.7]</text>
</g>
<!-- wallRadar[0.7,&#45;0.7]&#45;&gt;Move Left -->
<g id="edge10" class="edge"><title>wallRadar[0.7,&#45;0.7]&#45;&gt;Move Left</title>
<path fill="none" stroke="green" stroke-width="0.108837" stroke-dasharray="1,5" d="M86.0892,-147.357C89.1007,-146.97 92.0933,-146.615 95,-146.309 371.261,-117.155 448.543,-173.733 719,-110.309 748.254,-103.448 779.311,-90.321 803.391,-78.7095"/>
<polygon fill="green" stroke="green" stroke-width="0.108837" points="805.162,-81.7386 812.59,-74.1838 802.072,-75.4575 805.162,-81.7386"/>
</g>
<!-- wallRadar[0.7,&#45;0.7]&#45;&gt;Move right -->
<g id="edge35" class="edge"><title>wallRadar[0.7,&#45;0.7]&#45;&gt;Move right</title>
<path fill="none" stroke="green" stroke-width="0.713686" d="M86.0962,-147.562C198.74,-129.928 501.451,-82.5401 620.726,-63.868"/>
<polygon fill="green" stroke="green" stroke-width="0.713686" points="621.34,-67.3146 630.678,-62.31 620.257,-60.3988 621.34,-67.3146"/>
</g>
<!-- enemyRadar[RightBack] -->
<g id="node9" class="node"><title>enemyRadar[RightBack]</title>
<polygon fill="lightgray" stroke="black" points="1960,-164.309 1856,-164.309 1856,-146.309 1960,-146.309 1960,-164.309"/>
<text text-anchor="middle" x="1908" y="-153.109" font-family="Times,serif" font-size="9.00">enemyRadar[RightBack]</text>
</g>
<!-- enemyRadar[RightBack]&#45;&gt;Shoot -->
<g id="edge42" class="edge"><title>enemyRadar[RightBack]&#45;&gt;Shoot</title>
<path fill="none" stroke="red" stroke-width="0.545027" d="M1855.88,-147.769C1818.77,-141.659 1768.51,-130.365 1728,-110.309 1713.3,-103.029 1698.89,-92.0458 1687.23,-81.869"/>
<polygon fill="red" stroke="red" stroke-width="0.545027" points="1689.4,-79.1075 1679.63,-75.0078 1684.71,-84.3051 1689.4,-79.1075"/>
</g>
<!-- enemyRadar[RightBack]&#45;&gt; Move Backward -->
<g id="edge14" class="edge"><title>enemyRadar[RightBack]&#45;&gt; Move Backward</title>
<path fill="none" stroke="green" stroke-width="0.425618" d="M1855.79,-147.185C1852.82,-146.866 1849.87,-146.57 1847,-146.309 1536.32,-118.003 1453.29,-164.11 1146,-110.309 1106.33,-103.363 1063.07,-90.3353 1029.14,-78.7987"/>
<polygon fill="green" stroke="green" stroke-width="0.425618" points="1029.97,-75.3828 1019.37,-75.4332 1027.69,-82.0008 1029.97,-75.3828"/>
</g>
<!-- enemyRadar[RightBack]&#45;&gt;Move Left -->
<g id="edge83" class="edge"><title>enemyRadar[RightBack]&#45;&gt;Move Left</title>
<path fill="none" stroke="green" stroke-width="0.116899" d="M1855.79,-147.14C1852.82,-146.832 1849.87,-146.551 1847,-146.309 1742.52,-137.482 1000.79,-150.623 904,-110.309 894.271,-106.257 885.178,-99.7905 877.208,-92.7149"/>
<polygon fill="green" stroke="green" stroke-width="0.116899" points="879.288,-89.8625 869.632,-85.5029 874.462,-94.9327 879.288,-89.8625"/>
</g>
<!-- enemyRadar[RightBack]&#45;&gt;Turn Left -->
<g id="edge63" class="edge"><title>enemyRadar[RightBack]&#45;&gt;Turn Left</title>
<path fill="none" stroke="red" stroke-width="0.564776" d="M1855.78,-146.91C1786.51,-136.971 1667.97,-119.495 1625,-110.309 1571.19,-98.8044 1510.25,-81.4757 1470.37,-69.5344"/>
<polygon fill="red" stroke="red" stroke-width="0.564776" points="1471.28,-66.1548 1460.7,-66.6214 1469.26,-72.8572 1471.28,-66.1548"/>
</g>
<!-- enemyRadar[RightBack]&#45;&gt;Turn Right -->
<g id="edge60" class="edge"><title>enemyRadar[RightBack]&#45;&gt;Turn Right</title>
<path fill="none" stroke="red" stroke-width="0.294156" d="M1897.28,-146.276C1879.82,-133.191 1844.37,-106.635 1816.46,-85.7229"/>
<polygon fill="red" stroke="red" stroke-width="0.294156" points="1818.54,-82.9088 1808.44,-79.7135 1814.35,-88.5108 1818.54,-82.9088"/>
</g>
<!-- enemyRadar[LeftBack] -->
<g id="node10" class="node"><title>enemyRadar[LeftBack]</title>
<polygon fill="lightgray" stroke="black" points="1143.5,-164.309 1044.5,-164.309 1044.5,-146.309 1143.5,-146.309 1143.5,-164.309"/>
<text text-anchor="middle" x="1094" y="-153.109" font-family="Times,serif" font-size="9.00">enemyRadar[LeftBack]</text>
</g>
<!-- enemyRadar[LeftBack]&#45;&gt;Move Left -->
<g id="edge18" class="edge"><title>enemyRadar[LeftBack]&#45;&gt;Move Left</title>
<path fill="none" stroke="green" stroke-width="0.335192" d="M1046.64,-146.243C998.725,-137.571 928.357,-123.28 904,-110.309 894.789,-105.403 885.951,-98.6596 878.071,-91.5947"/>
<polygon fill="green" stroke="green" stroke-width="0.335192" points="880.208,-88.7981 870.533,-84.4789 875.403,-93.8885 880.208,-88.7981"/>
</g>
<!-- enemyRadar[LeftBack]&#45;&gt;Move right -->
<g id="edge48" class="edge"><title>enemyRadar[LeftBack]&#45;&gt;Move right</title>
<path fill="none" stroke="green" stroke-width="0.176132" stroke-dasharray="1,5" d="M1044.47,-147.608C966.63,-136.974 822.126,-116.778 799,-110.309 769.987,-102.193 738.805,-89.2284 714.367,-78.0193"/>
<polygon fill="green" stroke="green" stroke-width="0.176132" points="715.555,-74.7118 705.012,-73.6637 712.6,-81.0576 715.555,-74.7118"/>
</g>
<!-- enemyRadar[LeftBack]&#45;&gt;Turn Left -->
<g id="edge74" class="edge"><title>enemyRadar[LeftBack]&#45;&gt;Turn Left</title>
<path fill="none" stroke="green" stroke-width="0.640999" stroke-dasharray="1,5" d="M1135.1,-146.266C1173.46,-138.39 1232.11,-125.397 1282,-110.309 1317.36,-99.6162 1356.55,-84.7926 1385.27,-73.3572"/>
<polygon fill="green" stroke="green" stroke-width="0.640999" points="1386.6,-76.5916 1394.58,-69.6199 1384,-70.0949 1386.6,-76.5916"/>
</g>
<!-- enemyRadar[LeftBack]&#45;&gt;Turn Right -->
<g id="edge34" class="edge"><title>enemyRadar[LeftBack]&#45;&gt;Turn Right</title>
<path fill="none" stroke="red" stroke-width="0.230501" d="M1143.65,-147.225C1146.47,-146.895 1149.27,-146.587 1152,-146.309 1272.75,-134.009 1582.19,-149.699 1697,-110.309 1711.82,-105.223 1726.48,-96.6353 1739.12,-87.7796"/>
<polygon fill="red" stroke="red" stroke-width="0.230501" points="1741.52,-90.3676 1747.53,-81.6458 1737.39,-84.7129 1741.52,-90.3676"/>
</g>
<!-- enemyRadar[Right45ø] -->
<g id="node11" class="node"><title>enemyRadar[Right45ø]</title>
<polygon fill="lightgray" stroke="black" points="1606,-164.309 1506,-164.309 1506,-146.309 1606,-146.309 1606,-164.309"/>
<text text-anchor="middle" x="1556" y="-153.109" font-family="Times,serif" font-size="9.00">enemyRadar[Right45ø]</text>
</g>
<!-- enemyRadar[Right45ø]&#45;&gt;Move Forward -->
<g id="edge41" class="edge"><title>enemyRadar[Right45ø]&#45;&gt;Move Forward</title>
<path fill="none" stroke="red" stroke-width="0.369774" d="M1522.39,-146.249C1487.44,-137.754 1431.21,-123.765 1383,-110.309 1342.65,-99.0455 1297.5,-85.2949 1262.76,-74.4682"/>
<polygon fill="red" stroke="red" stroke-width="0.369774" points="1263.39,-70.9958 1252.8,-71.3526 1261.3,-77.677 1263.39,-70.9958"/>
</g>
<!-- enemyRadar[Right45ø]&#45;&gt; Move Backward -->
<g id="edge27" class="edge"><title>enemyRadar[Right45ø]&#45;&gt; Move Backward</title>
<path fill="none" stroke="red" stroke-width="1.57022" d="M1505.8,-147.389C1502.83,-147.014 1499.87,-146.651 1497,-146.309 1341.28,-127.771 1299.73,-141.275 1146,-110.309 1106.66,-102.384 1063.58,-89.3972 1029.66,-78.1275"/>
<polygon fill="red" stroke="red" stroke-width="1.57022" points="1030.49,-74.7135 1019.89,-74.8468 1028.26,-81.3491 1030.49,-74.7135"/>
</g>
<!-- enemyRadar[Right45ø]&#45;&gt;Move Left -->
<g id="edge44" class="edge"><title>enemyRadar[Right45ø]&#45;&gt;Move Left</title>
<path fill="none" stroke="green" stroke-width="0.391392" d="M1505.82,-147.247C1502.84,-146.907 1499.88,-146.591 1497,-146.309 1365.61,-133.43 1025.29,-162.434 904,-110.309 894.317,-106.148 885.242,-99.6376 877.276,-92.554"/>
<polygon fill="green" stroke="green" stroke-width="0.391392" points="879.356,-89.7018 869.699,-85.345 874.531,-94.7734 879.356,-89.7018"/>
</g>
<!-- enemyRadar[Right45ø]&#45;&gt;Turn Left -->
<g id="edge15" class="edge"><title>enemyRadar[Right45ø]&#45;&gt;Turn Left</title>
<path fill="none" stroke="green" stroke-width="0.390687" stroke-dasharray="1,5" d="M1545.44,-146.276C1527.59,-132.691 1490.65,-104.585 1462.74,-83.3512"/>
<polygon fill="green" stroke="green" stroke-width="0.390687" points="1464.85,-80.5543 1454.77,-77.2844 1460.61,-86.1251 1464.85,-80.5543"/>
</g>
<!-- enemyRadar[Right45ø]&#45;&gt;Turn Right -->
<g id="edge21" class="edge"><title>enemyRadar[Right45ø]&#45;&gt;Turn Right</title>
<path fill="none" stroke="red" stroke-width="0.621344" d="M1591.56,-146.289C1620.74,-138.99 1662.69,-126.83 1697,-110.309 1710.87,-103.628 1725.09,-94.7734 1737.61,-86.1639"/>
<polygon fill="red" stroke="red" stroke-width="0.621344" points="1739.82,-88.8885 1745.98,-80.2723 1735.79,-83.1631 1739.82,-88.8885"/>
</g>
<!-- enemyRadar[Left45ø] -->
<g id="node12" class="node"><title>enemyRadar[Left45ø]</title>
<polygon fill="lightgray" stroke="black" points="1347.5,-164.309 1252.5,-164.309 1252.5,-146.309 1347.5,-146.309 1347.5,-164.309"/>
<text text-anchor="middle" x="1300" y="-153.109" font-family="Times,serif" font-size="9.00">enemyRadar[Left45ø]</text>
</g>
<!-- enemyRadar[Left45ø]&#45;&gt;Shoot -->
<g id="edge43" class="edge"><title>enemyRadar[Left45ø]&#45;&gt;Shoot</title>
<path fill="none" stroke="red" stroke-width="1.0091" d="M1338.22,-146.307C1376.56,-138.073 1437.17,-124.48 1489,-110.309 1536.96,-97.1961 1591.61,-79.5099 1626.2,-67.9719"/>
<polygon fill="red" stroke="red" stroke-width="1.0091" points="1627.45,-71.2414 1635.82,-64.7451 1625.23,-64.6042 1627.45,-71.2414"/>
</g>
<!-- enemyRadar[Left45ø]&#45;&gt;Move Forward -->
<g id="edge20" class="edge"><title>enemyRadar[Left45ø]&#45;&gt;Move Forward</title>
<path fill="none" stroke="green" stroke-width="0.203294" d="M1292.23,-146.276C1282.22,-135.94 1264.08,-117.198 1246.93,-99.4727"/>
<polygon fill="green" stroke="green" stroke-width="0.203294" points="1249.13,-96.7171 1239.66,-91.9657 1244.1,-101.585 1249.13,-96.7171"/>
</g>
<!-- enemyRadar[Left45ø]&#45;&gt; Move Backward -->
<g id="edge6" class="edge"><title>enemyRadar[Left45ø]&#45;&gt; Move Backward</title>
<path fill="none" stroke="green" stroke-width="0.284633" d="M1271.29,-146.264C1240.33,-137.551 1189.61,-123.17 1146,-110.309 1107.51,-98.9557 1064.46,-85.8678 1030.33,-75.4026"/>
<polygon fill="green" stroke="green" stroke-width="0.284633" points="1031.09,-71.9736 1020.5,-72.3844 1029.04,-78.6653 1031.09,-71.9736"/>
</g>
<!-- enemyRadar[Left45ø]&#45;&gt;Move Left -->
<g id="edge22" class="edge"><title>enemyRadar[Left45ø]&#45;&gt;Move Left</title>
<path fill="none" stroke="red" stroke-width="0.149488" d="M1252.43,-147.51C1249.24,-147.092 1246.07,-146.688 1243,-146.309 1092.62,-127.777 1041.82,-173.258 904,-110.309 894.414,-105.93 885.377,-99.3325 877.419,-92.2331"/>
<polygon fill="red" stroke="red" stroke-width="0.149488" points="879.498,-89.3812 869.838,-85.03 874.676,-94.4556 879.498,-89.3812"/>
</g>
<!-- enemyRadar[Left45ø]&#45;&gt;Turn Left -->
<g id="edge11" class="edge"><title>enemyRadar[Left45ø]&#45;&gt;Turn Left</title>
<path fill="none" stroke="green" stroke-width="0.217874" d="M1310.39,-146.276C1327.84,-132.791 1363.8,-104.998 1391.2,-83.8203"/>
<polygon fill="green" stroke="green" stroke-width="0.217874" points="1393.63,-86.3681 1399.4,-77.4835 1389.35,-80.8294 1393.63,-86.3681"/>
</g>
<!-- enemyRadar[RightFront20ø] -->
<g id="node13" class="node"><title>enemyRadar[RightFront20ø]</title>
<polygon fill="lightgray" stroke="black" points="2231.5,-164.309 2112.5,-164.309 2112.5,-146.309 2231.5,-146.309 2231.5,-164.309"/>
<text text-anchor="middle" x="2172" y="-153.109" font-family="Times,serif" font-size="9.00">enemyRadar[RightFront20ø]</text>
</g>
<!-- enemyRadar[RightFront20ø]&#45;&gt;Shoot -->
<g id="edge39" class="edge"><title>enemyRadar[RightFront20ø]&#45;&gt;Shoot</title>
<path fill="none" stroke="red" stroke-width="0.189138" d="M2112.17,-147.299C2109.07,-146.958 2106,-146.626 2103,-146.309 1936.5,-128.666 1883,-173.614 1728,-110.309 1712.7,-104.06 1698.13,-93.1159 1686.5,-82.6942"/>
<polygon fill="red" stroke="red" stroke-width="0.189138" points="1688.64,-79.9058 1678.95,-75.6267 1683.86,-85.0161 1688.64,-79.9058"/>
</g>
<!-- enemyRadar[RightFront20ø]&#45;&gt;Move Forward -->
<g id="edge72" class="edge"><title>enemyRadar[RightFront20ø]&#45;&gt;Move Forward</title>
<path fill="none" stroke="green" stroke-width="0.471641" stroke-dasharray="1,5" d="M2112.18,-147.131C2109.08,-146.834 2106,-146.558 2103,-146.309 1783.7,-119.844 1698.64,-165.351 1383,-110.309 1341.41,-103.055 1295.88,-89.0908 1261.29,-77.1594"/>
<polygon fill="green" stroke="green" stroke-width="0.471641" points="1262.42,-73.8499 1251.83,-73.8553 1260.11,-80.4581 1262.42,-73.8499"/>
</g>
<!-- enemyRadar[LeftFront20ø] -->
<g id="node14" class="node"><title>enemyRadar[LeftFront20ø]</title>
<polygon fill="lightgray" stroke="black" points="672,-164.309 558,-164.309 558,-146.309 672,-146.309 672,-164.309"/>
<text text-anchor="middle" x="615" y="-153.109" font-family="Times,serif" font-size="9.00">enemyRadar[LeftFront20ø]</text>
</g>
<!-- enemyRadar[LeftFront20ø]&#45;&gt;Shoot -->
<g id="edge69" class="edge"><title>enemyRadar[LeftFront20ø]&#45;&gt;Shoot</title>
<path fill="none" stroke="green" stroke-width="0.310327" d="M672.21,-147.104C675.181,-146.814 678.124,-146.547 681,-146.309 1039.24,-116.66 1135.01,-172.815 1489,-110.309 1538.1,-101.638 1592.69,-82.7934 1626.92,-69.7912"/>
<polygon fill="green" stroke="green" stroke-width="0.310327" points="1628.37,-72.9858 1636.44,-66.127 1625.85,-66.4531 1628.37,-72.9858"/>
</g>
<!-- enemyRadar[LeftFront20ø]&#45;&gt; Move Backward -->
<g id="edge26" class="edge"><title>enemyRadar[LeftFront20ø]&#45;&gt; Move Backward</title>
<path fill="none" stroke="red" stroke-width="1.01229" d="M672.053,-146.723C747.413,-136.481 872.982,-118.564 893,-110.309 901.396,-106.846 909.742,-102.271 917.65,-97.2437"/>
<polygon fill="red" stroke="red" stroke-width="1.01229" points="919.668,-100.105 926.042,-91.6424 915.781,-94.283 919.668,-100.105"/>
</g>
<!-- enemyRadar[LeftFront20ø]&#45;&gt;Move Left -->
<g id="edge64" class="edge"><title>enemyRadar[LeftFront20ø]&#45;&gt;Move Left</title>
<path fill="none" stroke="red" stroke-width="0.230142" d="M634.175,-146.215C655.048,-137.401 689.407,-122.878 719,-110.309 746.559,-98.603 777.462,-85.4267 801.884,-75.0022"/>
<polygon fill="red" stroke="red" stroke-width="0.230142" points="803.421,-78.1516 811.244,-71.0062 800.672,-71.7138 803.421,-78.1516"/>
</g>
<!-- enemyRadar[LeftFront20ø]&#45;&gt;Move right -->
<g id="edge58" class="edge"><title>enemyRadar[LeftFront20ø]&#45;&gt;Move right</title>
<path fill="none" stroke="red" stroke-width="0.518979" d="M619.501,-146.276C625.312,-135.905 635.866,-117.071 645.828,-99.2924"/>
<polygon fill="red" stroke="red" stroke-width="0.518979" points="649.12,-100.577 650.955,-90.1418 643.014,-97.1547 649.12,-100.577"/>
</g>
<!-- enemyRadar[RightFront15ø] -->
<g id="node15" class="node"><title>enemyRadar[RightFront15ø]</title>
<polygon fill="lightgray" stroke="black" points="438.5,-164.309 319.5,-164.309 319.5,-146.309 438.5,-146.309 438.5,-164.309"/>
<text text-anchor="middle" x="379" y="-153.109" font-family="Times,serif" font-size="9.00">enemyRadar[RightFront15ø]</text>
</g>
<!-- enemyRadar[RightFront15ø]&#45;&gt;Move Forward -->
<g id="edge45" class="edge"><title>enemyRadar[RightFront15ø]&#45;&gt;Move Forward</title>
<path fill="none" stroke="green" stroke-width="0.323819" stroke-dasharray="1,5" d="M438.684,-147.09C441.494,-146.812 444.277,-146.55 447,-146.309 714.43,-122.614 786.762,-163.088 1050,-110.309 1083.9,-103.512 1120.47,-90.9994 1149.57,-79.7129"/>
<polygon fill="green" stroke="green" stroke-width="0.323819" points="1151.12,-82.865 1159.14,-75.9423 1148.55,-76.3525 1151.12,-82.865"/>
</g>
<!-- enemyRadar[RightFront15ø]&#45;&gt;Move Left -->
<g id="edge62" class="edge"><title>enemyRadar[RightFront15ø]&#45;&gt;Move Left</title>
<path fill="none" stroke="green" stroke-width="0.255365" stroke-dasharray="1,5" d="M438.745,-147.007C532.68,-135.467 705.666,-113.94 719,-110.309 747.992,-102.413 779.044,-89.2646 803.186,-77.9009"/>
<polygon fill="green" stroke="green" stroke-width="0.255365" points="804.903,-80.9592 812.414,-73.4863 801.882,-74.6446 804.903,-80.9592"/>
</g>
<!-- enemyRadar[RightFront15ø]&#45;&gt;Move right -->
<g id="edge36" class="edge"><title>enemyRadar[RightFront15ø]&#45;&gt;Move right</title>
<path fill="none" stroke="green" stroke-width="0.632947" d="M402.814,-146.276C450.745,-130.109 559.648,-93.3762 622.624,-72.1344"/>
<polygon fill="green" stroke="green" stroke-width="0.632947" points="623.963,-75.3763 632.32,-68.8637 621.726,-68.7434 623.963,-75.3763"/>
</g>
<!-- enemyRadar[RightFront15ø]&#45;&gt;Turn Left -->
<g id="edge47" class="edge"><title>enemyRadar[RightFront15ø]&#45;&gt;Turn Left</title>
<path fill="none" stroke="red" stroke-width="0.103356" d="M438.679,-147.034C441.49,-146.771 444.275,-146.527 447,-146.309 632.132,-131.448 1099.98,-147.255 1282,-110.309 1318.32,-102.937 1357.59,-87.7913 1386.09,-75.3872"/>
<polygon fill="red" stroke="red" stroke-width="0.103356" points="1387.59,-78.5487 1395.32,-71.3008 1384.76,-72.1476 1387.59,-78.5487"/>
</g>
<!-- enemyRadar[LeftFront15ø] -->
<g id="node16" class="node"><title>enemyRadar[LeftFront15ø]</title>
<polygon fill="lightgray" stroke="black" points="892,-164.309 778,-164.309 778,-146.309 892,-146.309 892,-164.309"/>
<text text-anchor="middle" x="835" y="-153.109" font-family="Times,serif" font-size="9.00">enemyRadar[LeftFront15ø]</text>
</g>
<!-- enemyRadar[LeftFront15ø]&#45;&gt;Shoot -->
<g id="edge73" class="edge"><title>enemyRadar[LeftFront15ø]&#45;&gt;Shoot</title>
<path fill="none" stroke="red" stroke-width="0.418858" d="M892.215,-147.162C895.185,-146.858 898.126,-146.571 901,-146.309 1161.74,-122.545 1231.55,-157.978 1489,-110.309 1537.89,-101.256 1592.32,-82.5922 1626.6,-69.727"/>
<polygon fill="red" stroke="red" stroke-width="0.418858" points="1628.03,-72.9265 1636.13,-66.1014 1625.54,-66.3833 1628.03,-72.9265"/>
</g>
<!-- enemyRadar[LeftFront15ø]&#45;&gt;Move Forward -->
<g id="edge67" class="edge"><title>enemyRadar[LeftFront15ø]&#45;&gt;Move Forward</title>
<path fill="none" stroke="green" stroke-width="0.485806" d="M883.685,-146.271C927.552,-138.574 993.62,-125.851 1050,-110.309 1083.21,-101.154 1119.6,-88.5761 1148.77,-77.8458"/>
<polygon fill="green" stroke="green" stroke-width="0.485806" points="1150.22,-81.0439 1158.37,-74.2854 1147.78,-74.4807 1150.22,-81.0439"/>
</g>
<!-- enemyRadar[LeftFront15ø]&#45;&gt; Move Backward -->
<g id="edge31" class="edge"><title>enemyRadar[LeftFront15ø]&#45;&gt; Move Backward</title>
<path fill="none" stroke="red" stroke-width="0.423741" stroke-dasharray="1,5" d="M845.884,-146.276C861.167,-134.998 890.012,-113.71 915.831,-94.6551"/>
<polygon fill="red" stroke="red" stroke-width="0.423741" points="918.119,-97.3168 924.087,-88.5626 913.962,-91.6845 918.119,-97.3168"/>
</g>
<!-- enemyRadar[LeftFront15ø]&#45;&gt;Move Left -->
<g id="edge19" class="edge"><title>enemyRadar[LeftFront15ø]&#45;&gt;Move Left</title>
<path fill="none" stroke="red" stroke-width="0.495589" stroke-dasharray="1,5" d="M835.9,-146.276C836.971,-136.721 838.847,-119.983 840.693,-103.505"/>
<polygon fill="red" stroke="red" stroke-width="0.495589" points="844.196,-103.673 841.832,-93.3454 837.24,-102.893 844.196,-103.673"/>
</g>
<!-- enemyRadar[LeftFront15ø]&#45;&gt;Move right -->
<g id="edge46" class="edge"><title>enemyRadar[LeftFront15ø]&#45;&gt;Move right</title>
<path fill="none" stroke="red" stroke-width="1.18648" d="M821.497,-146.276C798.012,-132.305 748.71,-102.977 712.705,-81.5585"/>
<polygon fill="red" stroke="red" stroke-width="1.18648" points="714.245,-78.4023 703.862,-76.2978 710.667,-84.4184 714.245,-78.4023"/>
</g>
<!-- enemyRadar[LeftFront15ø]&#45;&gt;Turn Left -->
<g id="edge17" class="edge"><title>enemyRadar[LeftFront15ø]&#45;&gt;Turn Left</title>
<path fill="none" stroke="green" stroke-width="0.351854" d="M892.227,-147.278C895.193,-146.943 898.131,-146.618 901,-146.309 1070.11,-128.074 1116.23,-148.393 1282,-110.309 1318.12,-102.011 1357.4,-86.9371 1385.96,-74.7962"/>
<polygon fill="green" stroke="green" stroke-width="0.351854" points="1387.42,-77.9795 1395.21,-70.8052 1384.64,-71.5518 1387.42,-77.9795"/>
</g>
<!-- enemyRadar[RightFront7.5ø] -->
<g id="node17" class="node"><title>enemyRadar[RightFront7.5ø]</title>
<polygon fill="lightgray" stroke="black" points="1488,-164.309 1366,-164.309 1366,-146.309 1488,-146.309 1488,-164.309"/>
<text text-anchor="middle" x="1427" y="-153.109" font-family="Times,serif" font-size="9.00">enemyRadar[RightFront7.5ø]</text>
</g>
<!-- enemyRadar[RightFront7.5ø]&#45;&gt;Shoot -->
<g id="edge9" class="edge"><title>enemyRadar[RightFront7.5ø]&#45;&gt;Shoot</title>
<path fill="none" stroke="green" stroke-width="0.117769" d="M1446.15,-146.276C1485.75,-129.665 1577.11,-91.3419 1626.99,-70.4191"/>
<polygon fill="green" stroke="green" stroke-width="0.117769" points="1628.52,-73.5738 1636.39,-66.4781 1625.81,-67.1187 1628.52,-73.5738"/>
</g>
<!-- enemyRadar[RightFront7.5ø]&#45;&gt;Move right -->
<g id="edge70" class="edge"><title>enemyRadar[RightFront7.5ø]&#45;&gt;Move right</title>
<path fill="none" stroke="green" stroke-width="0.250034" d="M1365.83,-147.229C1362.5,-146.903 1359.21,-146.593 1356,-146.309 1108.9,-124.414 1040.48,-167.105 799,-110.309 769.673,-103.411 738.482,-90.4845 714.117,-78.9905"/>
<polygon fill="green" stroke="green" stroke-width="0.250034" points="715.324,-75.6874 704.795,-74.5064 712.29,-81.9955 715.324,-75.6874"/>
</g>
<!-- enemyRadar[RightFront7.5ø]&#45;&gt;Turn Left -->
<g id="edge24" class="edge"><title>enemyRadar[RightFront7.5ø]&#45;&gt;Turn Left</title>
<path fill="none" stroke="green" stroke-width="0.464934" d="M1427,-146.276C1427,-136.172 1427,-118.035 1427,-100.667"/>
<polygon fill="green" stroke="green" stroke-width="0.464934" points="1430.5,-100.596 1427,-90.596 1423.5,-100.596 1430.5,-100.596"/>
</g>
<!-- enemyRadar[LeftFront7.5ø] -->
<g id="node18" class="node"><title>enemyRadar[LeftFront7.5ø]</title>
<polygon fill="lightgray" stroke="black" points="2094,-164.309 1978,-164.309 1978,-146.309 2094,-146.309 2094,-164.309"/>
<text text-anchor="middle" x="2036" y="-153.109" font-family="Times,serif" font-size="9.00">enemyRadar[LeftFront7.5ø]</text>
</g>
<!-- enemyRadar[LeftFront7.5ø]&#45;&gt;Shoot -->
<g id="edge25" class="edge"><title>enemyRadar[LeftFront7.5ø]&#45;&gt;Shoot</title>
<path fill="none" stroke="red" stroke-width="0.241116" d="M1977.91,-146.819C1891.85,-135.607 1739.33,-115.243 1728,-110.309 1712.85,-103.708 1698.29,-92.7162 1686.64,-82.3534"/>
<polygon fill="red" stroke="red" stroke-width="0.241116" points="1688.79,-79.5674 1679.07,-75.3414 1684.03,-84.7037 1688.79,-79.5674"/>
</g>
<!-- enemyRadar[LeftFront7.5ø]&#45;&gt; Move Backward -->
<g id="edge30" class="edge"><title>enemyRadar[LeftFront7.5ø]&#45;&gt; Move Backward</title>
<path fill="none" stroke="green" stroke-width="0.760437" d="M1977.92,-147.103C1974.91,-146.814 1971.92,-146.546 1969,-146.309 1604.08,-116.584 1506.88,-172.08 1146,-110.309 1106.3,-103.513 1063.05,-90.4899 1029.12,-78.9177"/>
<polygon fill="green" stroke="green" stroke-width="0.760437" points="1029.95,-75.5021 1019.35,-75.5405 1027.66,-82.1175 1029.95,-75.5021"/>
</g>
<!-- enemyRadar[RightFront2.5ø] -->
<g id="node19" class="node"><title>enemyRadar[RightFront2.5ø]</title>
<polygon fill="lightgray" stroke="black" points="1838,-164.309 1716,-164.309 1716,-146.309 1838,-146.309 1838,-164.309"/>
<text text-anchor="middle" x="1777" y="-153.109" font-family="Times,serif" font-size="9.00">enemyRadar[RightFront2.5ø]</text>
</g>
<!-- enemyRadar[RightFront2.5ø]&#45;&gt;Move Forward -->
<g id="edge8" class="edge"><title>enemyRadar[RightFront2.5ø]&#45;&gt;Move Forward</title>
<path fill="none" stroke="green" stroke-width="0.552454" stroke-dasharray="1,5" d="M1715.92,-147.316C1712.9,-146.975 1709.92,-146.637 1707,-146.309 1563.03,-130.083 1524.91,-139.519 1383,-110.309 1341.65,-101.797 1296.12,-87.8587 1261.46,-76.2549"/>
<polygon fill="green" stroke="green" stroke-width="0.552454" points="1262.58,-72.9387 1251.98,-73.0503 1260.33,-79.5697 1262.58,-72.9387"/>
</g>
<!-- enemyRadar[RightFront2.5ø]&#45;&gt;Move Left -->
<g id="edge79" class="edge"><title>enemyRadar[RightFront2.5ø]&#45;&gt;Move Left</title>
<path fill="none" stroke="green" stroke-width="0.992467" d="M1715.94,-147.079C1712.92,-146.8 1709.93,-146.541 1707,-146.309 1617.97,-139.234 986.332,-144.921 904,-110.309 894.285,-106.224 885.196,-99.7452 877.228,-92.6672"/>
<polygon fill="green" stroke="green" stroke-width="0.992467" points="879.308,-89.815 869.651,-85.4561 874.482,-94.8856 879.308,-89.815"/>
</g>
<!-- enemyRadar[RightFront2.5ø]&#45;&gt;Turn Left -->
<g id="edge13" class="edge"><title>enemyRadar[RightFront2.5ø]&#45;&gt;Turn Left</title>
<path fill="none" stroke="red" stroke-width="0.502116" d="M1748.36,-146.276C1687.16,-129.113 1543.31,-88.7711 1470.64,-68.3925"/>
<polygon fill="red" stroke="red" stroke-width="0.502116" points="1471.45,-64.9842 1460.87,-65.6539 1469.56,-71.7242 1471.45,-64.9842"/>
</g>
<!-- enemyRadar[RightFront2.5ø]&#45;&gt;Turn Right -->
<g id="edge71" class="edge"><title>enemyRadar[RightFront2.5ø]&#45;&gt;Turn Right</title>
<path fill="none" stroke="green" stroke-width="0.888995" stroke-dasharray="1,5" d="M1777,-146.276C1777,-137.112 1777,-121.34 1777,-105.527"/>
<polygon fill="green" stroke="green" stroke-width="0.888995" points="1780.5,-105.199 1777,-95.1987 1773.5,-105.199 1780.5,-105.199"/>
</g>
<!-- enemyRadar[LeftFront2.5ø] -->
<g id="node20" class="node"><title>enemyRadar[LeftFront2.5ø]</title>
<polygon fill="lightgray" stroke="black" points="1026,-164.309 910,-164.309 910,-146.309 1026,-146.309 1026,-164.309"/>
<text text-anchor="middle" x="968" y="-153.109" font-family="Times,serif" font-size="9.00">enemyRadar[LeftFront2.5ø]</text>
</g>
<!-- enemyRadar[LeftFront2.5ø]&#45;&gt;Shoot -->
<g id="edge23" class="edge"><title>enemyRadar[LeftFront2.5ø]&#45;&gt;Shoot</title>
<path fill="none" stroke="red" stroke-width="0.806198" d="M1026.09,-147.23C1029.1,-146.907 1032.09,-146.598 1035,-146.309 1236.42,-126.306 1290.31,-148.949 1489,-110.309 1537.81,-100.817 1592.26,-82.2588 1626.56,-69.5371"/>
<polygon fill="red" stroke="red" stroke-width="0.806198" points="1627.97,-72.7453 1636.11,-65.9547 1625.51,-66.1917 1627.97,-72.7453"/>
</g>
<!-- enemyRadar[LeftFront2.5ø]&#45;&gt;Move Forward -->
<g id="edge61" class="edge"><title>enemyRadar[LeftFront2.5ø]&#45;&gt;Move Forward</title>
<path fill="none" stroke="green" stroke-width="0.151507" d="M987.395,-146.276C1022.36,-131.794 1097.18,-100.809 1149.26,-79.2389"/>
<polygon fill="green" stroke="green" stroke-width="0.151507" points="1150.81,-82.3871 1158.71,-75.3271 1148.13,-75.9198 1150.81,-82.3871"/>
</g>
<!-- enemyRadar[LeftFront2.5ø]&#45;&gt; Move Backward -->
<g id="edge4" class="edge"><title>enemyRadar[LeftFront2.5ø]&#45;&gt; Move Backward</title>
<path fill="none" stroke="red" stroke-width="0.206321" d="M968,-146.276C968,-140.164 968,-131.112 968,-121.069"/>
<polygon fill="red" stroke="red" stroke-width="0.206321" points="971.5,-120.768 968,-110.768 964.5,-120.768 971.5,-120.768"/>
</g>
<!-- enemyRadar[LeftFront2.5ø]&#45;&gt;Move right -->
<g id="edge50" class="edge"><title>enemyRadar[LeftFront2.5ø]&#45;&gt;Move right</title>
<path fill="none" stroke="red" stroke-width="0.34147" d="M930.962,-146.272C896.42,-138.4 843.661,-125.411 799,-110.309 770.562,-100.692 739.515,-87.7387 715.007,-76.9117"/>
<polygon fill="red" stroke="red" stroke-width="0.34147" points="716.173,-73.5995 705.614,-72.7253 713.323,-79.9932 716.173,-73.5995"/>
</g>
<!-- OnTarget -->
<g id="node21" class="node"><title>OnTarget</title>
<polygon fill="lightgray" stroke="black" points="2300,-164.309 2250,-164.309 2250,-146.309 2300,-146.309 2300,-164.309"/>
<text text-anchor="middle" x="2275" y="-153.109" font-family="Times,serif" font-size="9.00">OnTarget</text>
</g>
<!-- OnTarget&#45;&gt;Shoot -->
<g id="edge80" class="edge"><title>OnTarget&#45;&gt;Shoot</title>
<path fill="none" stroke="green" stroke-width="0.406242" d="M2249.84,-147.912C2246.87,-147.299 2243.88,-146.745 2241,-146.309 2128.01,-129.166 1834.34,-152.157 1728,-110.309 1712.51,-104.212 1697.82,-93.1787 1686.17,-82.6543"/>
<polygon fill="green" stroke="green" stroke-width="0.406242" points="1688.29,-79.8396 1678.61,-75.5164 1683.48,-84.928 1688.29,-79.8396"/>
</g>
<!-- OnTarget&#45;&gt;Move Left -->
<g id="edge75" class="edge"><title>OnTarget&#45;&gt;Move Left</title>
<path fill="none" stroke="red" stroke-width="0.116644" d="M2249.85,-147.789C2246.89,-147.198 2243.89,-146.683 2241,-146.309 2093.63,-127.19 1041.51,-166.674 904,-110.309 894.249,-106.311 885.146,-99.8673 877.175,-92.7956"/>
<polygon fill="red" stroke="red" stroke-width="0.116644" points="879.255,-89.9432 869.599,-85.5821 874.428,-95.0126 879.255,-89.9432"/>
</g>
<!-- OnTarget&#45;&gt;Turn Left -->
<g id="edge49" class="edge"><title>OnTarget&#45;&gt;Turn Left</title>
<path fill="none" stroke="green" stroke-width="0.246922" d="M2249.84,-147.878C2246.88,-147.272 2243.88,-146.728 2241,-146.309 1969.62,-106.755 1895.62,-154.725 1625,-110.309 1570.54,-101.37 1509.5,-83.4258 1469.78,-70.6445"/>
<polygon fill="green" stroke="green" stroke-width="0.246922" points="1470.75,-67.2796 1460.16,-67.5148 1468.59,-73.9364 1470.75,-67.2796"/>
</g>
<!-- OnTarget&#45;&gt;Turn Right -->
<g id="edge32" class="edge"><title>OnTarget&#45;&gt;Turn Right</title>
<path fill="none" stroke="red" stroke-width="0.233065" d="M2249.77,-148.257C2246.82,-147.583 2243.85,-146.92 2241,-146.309 2090.08,-113.904 1910.43,-80.4456 1825.75,-64.9772"/>
<polygon fill="red" stroke="red" stroke-width="0.233065" points="1826.37,-61.5323 1815.91,-63.1813 1825.12,-68.4187 1826.37,-61.5323"/>
</g>
<!-- TakingDmg -->
<g id="node22" class="node"><title>TakingDmg</title>
<polygon fill="lightgray" stroke="black" points="163.5,-164.309 104.5,-164.309 104.5,-146.309 163.5,-146.309 163.5,-164.309"/>
<text text-anchor="middle" x="134" y="-153.109" font-family="Times,serif" font-size="9.00">TakingDmg</text>
</g>
<!-- TakingDmg&#45;&gt; Move Backward -->
<g id="edge33" class="edge"><title>TakingDmg&#45;&gt; Move Backward</title>
<path fill="none" stroke="green" stroke-width="0.100322" d="M163.795,-147.573C166.559,-147.088 169.326,-146.655 172,-146.309 331.095,-125.72 741.635,-163.449 893,-110.309 901.68,-107.261 910.231,-102.866 918.275,-97.8794"/>
<polygon fill="green" stroke="green" stroke-width="0.100322" points="920.363,-100.696 926.788,-92.2715 916.512,-94.85 920.363,-100.696"/>
</g>
<!-- TakingDmg&#45;&gt;Move Left -->
<g id="edge40" class="edge"><title>TakingDmg&#45;&gt;Move Left</title>
<path fill="none" stroke="green" stroke-width="0.13446" d="M163.801,-147.618C166.564,-147.124 169.328,-146.676 172,-146.309 413.367,-113.129 482.025,-166.894 719,-110.309 748.226,-103.33 779.283,-90.2002 803.369,-78.6171"/>
<polygon fill="green" stroke="green" stroke-width="0.13446" points="805.134,-81.6496 812.571,-74.1041 802.052,-75.3647 805.134,-81.6496"/>
</g>
<!-- TakingDmg&#45;&gt;Move right -->
<g id="edge1" class="edge"><title>TakingDmg&#45;&gt;Move right</title>
<path fill="none" stroke="green" stroke-width="0.296535" d="M163.854,-147.94C166.606,-147.378 169.353,-146.827 172,-146.309 336.02,-114.204 531.244,-80.0342 620.743,-64.5937"/>
<polygon fill="green" stroke="green" stroke-width="0.296535" points="621.607,-67.9964 630.868,-62.8491 620.419,-61.0981 621.607,-67.9964"/>
</g>
<!-- bias -->
<g id="node23" class="node"><title>bias</title>
<polygon fill="lightgray" stroke="black" points="212.5,-164.309 181.5,-164.309 181.5,-146.309 212.5,-146.309 212.5,-164.309"/>
<text text-anchor="middle" x="197" y="-153.109" font-family="Times,serif" font-size="9.00">bias</text>
</g>
<!-- bias&#45;&gt; Move Backward -->
<g id="edge56" class="edge"><title>bias&#45;&gt; Move Backward</title>
<path fill="none" stroke="green" stroke-width="0.474497" d="M212.714,-148.608C215.76,-147.695 218.952,-146.868 222,-146.309 368.869,-119.332 752.197,-160.035 893,-110.309 901.675,-107.245 910.222,-102.841 918.265,-97.8503"/>
<polygon fill="green" stroke="green" stroke-width="0.474497" points="920.354,-100.666 926.777,-92.2397 916.501,-94.821 920.354,-100.666"/>
</g>
<!-- bias&#45;&gt;Move Left -->
<g id="edge12" class="edge"><title>bias&#45;&gt;Move Left</title>
<path fill="none" stroke="red" stroke-width="0.344634" d="M212.723,-148.654C215.767,-147.737 218.958,-146.897 222,-146.309 439.44,-104.264 503.759,-162.454 719,-110.309 748.203,-103.234 779.259,-90.102 803.351,-78.5419"/>
<polygon fill="red" stroke="red" stroke-width="0.344634" points="805.111,-81.5772 812.556,-74.0392 802.035,-75.2892 805.111,-81.5772"/>
</g>
<!-- bias&#45;&gt;Move right -->
<g id="edge68" class="edge"><title>bias&#45;&gt;Move right</title>
<path fill="none" stroke="red" stroke-width="0.488627" d="M212.525,-149.046C215.644,-148.072 218.913,-147.111 222,-146.309 365.558,-109.018 538.364,-78.1123 621.139,-64.1535"/>
<polygon fill="red" stroke="red" stroke-width="0.488627" points="621.734,-67.6026 631.017,-62.4961 620.576,-60.699 621.734,-67.6026"/>
</g>
<!-- Move Forward&#45;&gt;Move Forward -->
<g id="edge52" class="edge"><title>Move Forward&#45;&gt;Move Forward</title>
<path fill="none" stroke="green" stroke-width="0.369905" d="M1251.86,-73.7109C1264.03,-72.5703 1273.2,-66.3848 1273.2,-55.1543 1273.2,-47.2579 1268.67,-41.8556 1261.74,-38.9475"/>
<polygon fill="green" stroke="green" stroke-width="0.369905" points="1262.4,-35.5055 1251.86,-36.5977 1260.78,-42.3157 1262.4,-35.5055"/>
</g>
<!--  Move Backward&#45;&gt; Move Backward -->
<g id="edge7" class="edge"><title> Move Backward&#45;&gt; Move Backward</title>
<path fill="none" stroke="red" stroke-width="0.734227" stroke-dasharray="1,5" d="M1020.28,-73.4912C1032.31,-71.9111 1041.15,-65.7989 1041.15,-55.1543 1041.15,-47.6699 1036.78,-42.4261 1030,-39.423"/>
<polygon fill="red" stroke="red" stroke-width="0.734227" points="1030.84,-36.0242 1020.28,-36.8175 1029.03,-42.7858 1030.84,-36.0242"/>
</g>
<!-- Turn Left&#45;&gt;Turn Left -->
<g id="edge28" class="edge"><title>Turn Left&#45;&gt;Turn Left</title>
<path fill="none" stroke="green" stroke-width="0.771717" stroke-dasharray="1,5" d="M1457.17,-73.7395C1469.72,-75.0213 1480.36,-68.8262 1480.36,-55.1543 1480.36,-45.4345 1474.98,-39.4936 1467.36,-37.3318"/>
<polygon fill="green" stroke="green" stroke-width="0.771717" points="1467.4,-33.8252 1457.17,-36.5691 1466.88,-40.8056 1467.4,-33.8252"/>
</g>
</g>
</svg>
