<?xml version="1.0" encoding="UTF-8" standalone="no"?>
<!DOCTYPE svg PUBLIC "-//W3C//DTD SVG 1.1//EN"
 "http://www.w3.org/Graphics/SVG/1.1/DTD/svg11.dtd">
<!-- Generated by graphviz version 2.38.0 (20140413.2041)
 -->
<!-- Title: %3 Pages: 1 -->
<svg width="2490pt" height="251pt"
 viewBox="0.00 0.00 2489.50 250.74" xmlns="http://www.w3.org/2000/svg" xmlns:xlink="http://www.w3.org/1999/xlink">
<g id="graph0" class="graph" transform="scale(1 1) rotate(0) translate(4 246.735)">
<title>%3</title>
<polygon fill="white" stroke="none" points="-4,4 -4,-246.735 2485.5,-246.735 2485.5,4 -4,4"/>
<!-- wallRadar[1,0] -->
<g id="node1" class="node"><title>wallRadar[1,0]</title>
<polygon fill="lightgray" stroke="black" points="70,-176.522 0,-176.522 0,-158.522 70,-158.522 70,-176.522"/>
<text text-anchor="middle" x="35" y="-165.322" font-family="Times,serif" font-size="9.00">wallRadar[1,0]</text>
</g>
<!-- Move Forward -->
<g id="node24" class="node"><title>Move Forward</title>
<ellipse fill="lightblue" stroke="black" cx="524" cy="-55.1543" rx="50.41" ry="50.41"/>
<text text-anchor="middle" x="524" y="-52.9543" font-family="Times,serif" font-size="9.00">Move Forward</text>
</g>
<!-- wallRadar[1,0]&#45;&gt;Move Forward -->
<g id="edge58" class="edge"><title>wallRadar[1,0]&#45;&gt;Move Forward</title>
<path fill="none" stroke="green" stroke-width="0.161254" d="M52.3965,-158.403C61.6319,-154.335 73.2636,-149.591 84,-146.309 217.281,-105.565 378.935,-77.768 464.374,-64.7001"/>
<polygon fill="green" stroke="green" stroke-width="0.161254" points="465.045,-68.1384 474.408,-63.1796 463.997,-61.2174 465.045,-68.1384"/>
</g>
<!-- Move Left -->
<g id="node26" class="node"><title>Move Left</title>
<ellipse fill="lightblue" stroke="black" cx="757" cy="-55.1543" rx="38.3684" ry="38.3684"/>
<text text-anchor="middle" x="757" y="-52.9543" font-family="Times,serif" font-size="9.00">Move Left</text>
</g>
<!-- wallRadar[1,0]&#45;&gt;Move Left -->
<g id="edge49" class="edge"><title>wallRadar[1,0]&#45;&gt;Move Left</title>
<path fill="none" stroke="red" stroke-width="0.308095" d="M50.9017,-158.443C60.2856,-154.066 72.5356,-149.013 84,-146.309 300.416,-95.2633 364.517,-151.62 583,-110.309 627.704,-101.856 677.09,-85.8113 711.791,-73.3713"/>
<polygon fill="red" stroke="red" stroke-width="0.308095" points="713.414,-76.5058 721.62,-69.8035 711.025,-69.9259 713.414,-76.5058"/>
</g>
<!-- wallRadar[0,1] -->
<g id="node2" class="node"><title>wallRadar[0,1]</title>
<polygon fill="lightgray" stroke="black" points="1132,-176.522 1062,-176.522 1062,-158.522 1132,-158.522 1132,-176.522"/>
<text text-anchor="middle" x="1097" y="-165.322" font-family="Times,serif" font-size="9.00">wallRadar[0,1]</text>
</g>
<!-- Shoot -->
<g id="node23" class="node"><title>Shoot</title>
<ellipse fill="lightblue" stroke="black" cx="840" cy="-55.1543" rx="26.7407" ry="26.7407"/>
<text text-anchor="middle" x="840" y="-52.9543" font-family="Times,serif" font-size="9.00">Shoot</text>
</g>
<!-- wallRadar[0,1]&#45;&gt;Shoot -->
<g id="edge22" class="edge"><title>wallRadar[0,1]&#45;&gt;Shoot</title>
<path fill="none" stroke="red" stroke-width="0.362695" d="M1079.5,-158.334C1071.45,-154.609 1061.77,-150.177 1053,-146.309 990.116,-118.564 916.101,-87.6168 873.952,-70.153"/>
<polygon fill="red" stroke="red" stroke-width="0.362695" points="875.281,-66.9153 864.703,-66.3253 872.604,-73.3833 875.281,-66.9153"/>
</g>
<!--  Move Backward -->
<g id="node25" class="node"><title> Move Backward</title>
<ellipse fill="lightblue" stroke="black" cx="1433" cy="-55.1543" rx="55.3091" ry="55.3091"/>
<text text-anchor="middle" x="1433" y="-52.9543" font-family="Times,serif" font-size="9.00"> Move Backward</text>
</g>
<!-- wallRadar[0,1]&#45;&gt; Move Backward -->
<g id="edge10" class="edge"><title>wallRadar[0,1]&#45;&gt; Move Backward</title>
<path fill="none" stroke="red" stroke-width="0.152313" d="M1112.95,-158.461C1121.42,-154.409 1132.1,-149.661 1142,-146.309 1208.16,-123.895 1228.32,-131.121 1295,-110.309 1321.03,-102.186 1349.15,-91.5117 1373.17,-81.7893"/>
<polygon fill="red" stroke="red" stroke-width="0.152313" points="1374.57,-84.9978 1382.5,-77.976 1371.92,-78.5176 1374.57,-84.9978"/>
</g>
<!-- Move right -->
<g id="node27" class="node"><title>Move right</title>
<ellipse fill="lightblue" stroke="black" cx="1097" cy="-55.1543" rx="39.6962" ry="39.6962"/>
<text text-anchor="middle" x="1097" y="-52.9543" font-family="Times,serif" font-size="9.00">Move right</text>
</g>
<!-- wallRadar[0,1]&#45;&gt;Move right -->
<g id="edge6" class="edge"><title>wallRadar[0,1]&#45;&gt;Move right</title>
<path fill="none" stroke="green" stroke-width="0.132373" d="M1097,-158.226C1097,-146.819 1097,-125.389 1097,-105.099"/>
<polygon fill="green" stroke="green" stroke-width="0.132373" points="1100.5,-104.966 1097,-94.9664 1093.5,-104.966 1100.5,-104.966"/>
</g>
<!-- Turn Right -->
<g id="node29" class="node"><title>Turn Right</title>
<ellipse fill="lightblue" stroke="black" cx="1246" cy="-55.1543" rx="39.6962" ry="39.6962"/>
<text text-anchor="middle" x="1246" y="-52.9543" font-family="Times,serif" font-size="9.00">Turn Right</text>
</g>
<!-- wallRadar[0,1]&#45;&gt;Turn Right -->
<g id="edge8" class="edge"><title>wallRadar[0,1]&#45;&gt;Turn Right</title>
<path fill="none" stroke="red" stroke-width="0.299971" d="M1108.2,-158.226C1128.79,-142.975 1173.56,-109.812 1206.51,-85.4065"/>
<polygon fill="red" stroke="red" stroke-width="0.299971" points="1208.66,-88.1713 1214.61,-79.4066 1204.49,-82.5464 1208.66,-88.1713"/>
</g>
<!-- wallRadar[&#45;1,0] -->
<g id="node3" class="node"><title>wallRadar[&#45;1,0]</title>
<polygon fill="lightgray" stroke="black" points="1888.5,-176.522 1815.5,-176.522 1815.5,-158.522 1888.5,-158.522 1888.5,-176.522"/>
<text text-anchor="middle" x="1852" y="-165.322" font-family="Times,serif" font-size="9.00">wallRadar[&#45;1,0]</text>
</g>
<!-- wallRadar[&#45;1,0]&#45;&gt; Move Backward -->
<g id="edge53" class="edge"><title>wallRadar[&#45;1,0]&#45;&gt; Move Backward</title>
<path fill="none" stroke="red" stroke-width="0.737785" d="M1836.05,-158.483C1827.57,-154.437 1816.89,-149.688 1807,-146.309 1750.04,-126.84 1587.89,-90.0949 1496.91,-70.0519"/>
<polygon fill="red" stroke="red" stroke-width="0.737785" points="1497.5,-66.5994 1486.99,-67.8701 1496,-73.4361 1497.5,-66.5994"/>
</g>
<!-- wallRadar[&#45;1,0]&#45;&gt;Move right -->
<g id="edge52" class="edge"><title>wallRadar[&#45;1,0]&#45;&gt;Move right</title>
<path fill="none" stroke="red" stroke-width="0.158464" d="M1837.49,-158.374C1828.9,-153.974 1817.65,-148.92 1807,-146.309 1543.24,-81.6048 1458.18,-184.745 1197,-110.309 1176.47,-104.456 1155.43,-93.8839 1137.99,-83.6238"/>
<polygon fill="red" stroke="red" stroke-width="0.158464" points="1139.58,-80.4975 1129.22,-78.3136 1135.96,-86.486 1139.58,-80.4975"/>
</g>
<!-- Turn Left -->
<g id="node28" class="node"><title>Turn Left</title>
<ellipse fill="lightblue" stroke="black" cx="1718" cy="-55.1543" rx="35.2113" ry="35.2113"/>
<text text-anchor="middle" x="1718" y="-52.9543" font-family="Times,serif" font-size="9.00">Turn Left</text>
</g>
<!-- wallRadar[&#45;1,0]&#45;&gt;Turn Left -->
<g id="edge73" class="edge"><title>wallRadar[&#45;1,0]&#45;&gt;Turn Left</title>
<path fill="none" stroke="red" stroke-width="0.232877" d="M1841.93,-158.226C1823.29,-142.876 1782.62,-109.377 1752.94,-84.9281"/>
<polygon fill="red" stroke="red" stroke-width="0.232877" points="1754.83,-81.951 1744.88,-78.295 1750.38,-87.3542 1754.83,-81.951"/>
</g>
<!-- wallRadar[&#45;1,0]&#45;&gt;Turn Right -->
<g id="edge42" class="edge"><title>wallRadar[&#45;1,0]&#45;&gt;Turn Right</title>
<path fill="none" stroke="green" stroke-width="0.291061" d="M1837.46,-158.466C1828.87,-154.096 1817.62,-149.043 1807,-146.309 1617.85,-97.5894 1558.33,-158.325 1369,-110.309 1341.57,-103.352 1312.52,-90.8309 1289.55,-79.5799"/>
<polygon fill="green" stroke="green" stroke-width="0.291061" points="1290.92,-76.3567 1280.41,-75.0197 1287.8,-82.6191 1290.92,-76.3567"/>
</g>
<!-- wallRadar[0,&#45;1] -->
<g id="node4" class="node"><title>wallRadar[0,&#45;1]</title>
<polygon fill="lightgray" stroke="black" points="2481.5,-176.522 2408.5,-176.522 2408.5,-158.522 2481.5,-158.522 2481.5,-176.522"/>
<text text-anchor="middle" x="2445" y="-165.322" font-family="Times,serif" font-size="9.00">wallRadar[0,&#45;1]</text>
</g>
<!-- wallRadar[0,&#45;1]&#45;&gt;Turn Left -->
<g id="edge39" class="edge"><title>wallRadar[0,&#45;1]&#45;&gt;Turn Left</title>
<path fill="none" stroke="red" stroke-width="0.326132" d="M2429.65,-158.47C2420.89,-154.213 2409.58,-149.27 2399,-146.309 2165.91,-81.0907 1874.39,-62.6176 1763.58,-57.7622"/>
<polygon fill="red" stroke="red" stroke-width="0.326132" points="1763.57,-54.2587 1753.43,-57.3337 1763.27,-61.2524 1763.57,-54.2587"/>
</g>
<!-- wallRadar[0.7,0.7] -->
<g id="node5" class="node"><title>wallRadar[0.7,0.7]</title>
<polygon fill="lightgray" stroke="black" points="1989.5,-176.522 1906.5,-176.522 1906.5,-158.522 1989.5,-158.522 1989.5,-176.522"/>
<text text-anchor="middle" x="1948" y="-165.322" font-family="Times,serif" font-size="9.00">wallRadar[0.7,0.7]</text>
</g>
<!-- wallRadar[0.7,0.7]&#45;&gt;Shoot -->
<g id="edge28" class="edge"><title>wallRadar[0.7,0.7]&#45;&gt;Shoot</title>
<path fill="none" stroke="red" stroke-width="0.590646" d="M1931.78,-158.318C1922.21,-153.898 1909.71,-148.845 1898,-146.309 1528.45,-66.2842 1421.95,-166.258 1048,-110.309 986.082,-101.045 915.98,-80.6622 875.019,-67.7145"/>
<polygon fill="red" stroke="red" stroke-width="0.590646" points="875.846,-64.3047 865.255,-64.5942 873.715,-70.9724 875.846,-64.3047"/>
</g>
<!-- wallRadar[0.7,0.7]&#45;&gt; Move Backward -->
<g id="edge25" class="edge"><title>wallRadar[0.7,0.7]&#45;&gt; Move Backward</title>
<path fill="none" stroke="green" stroke-width="0.125944" d="M1930.75,-158.427C1921.26,-154.265 1909.18,-149.425 1898,-146.309 1800.87,-119.242 1773.01,-129.371 1674,-110.309 1613.46,-98.6528 1544.9,-83.0083 1496.43,-71.5316"/>
<polygon fill="green" stroke="green" stroke-width="0.125944" points="1496.94,-68.0555 1486.4,-69.1488 1495.32,-74.8659 1496.94,-68.0555"/>
</g>
<!-- wallRadar[0.7,0.7]&#45;&gt;Turn Left -->
<g id="edge45" class="edge"><title>wallRadar[0.7,0.7]&#45;&gt;Turn Left</title>
<path fill="none" stroke="green" stroke-width="0.159786" d="M1931.09,-158.406C1895.05,-141.113 1809.82,-100.217 1758.74,-75.7057"/>
<polygon fill="green" stroke="green" stroke-width="0.159786" points="1760.15,-72.4999 1749.62,-71.329 1757.12,-78.8109 1760.15,-72.4999"/>
</g>
<!-- wallRadar[&#45;0.7,0.7] -->
<g id="node6" class="node"><title>wallRadar[&#45;0.7,0.7]</title>
<polygon fill="lightgray" stroke="black" points="296,-242.735 210,-242.735 210,-224.735 296,-224.735 296,-242.735"/>
<text text-anchor="middle" x="253" y="-231.535" font-family="Times,serif" font-size="9.00">wallRadar[&#45;0.7,0.7]</text>
</g>
<!-- wallRadar[&#45;0.7,0.7]&#45;&gt;Shoot -->
<g id="edge15" class="edge"><title>wallRadar[&#45;0.7,0.7]&#45;&gt;Shoot</title>
<path fill="none" stroke="red" stroke-width="0.218129" stroke-dasharray="1,5" d="M245.539,-224.712C230.888,-207.997 201.57,-169.107 223,-146.309 267.298,-99.1804 747.967,-142.615 804,-110.309 812.638,-105.328 819.601,-97.3387 825.016,-89.0089"/>
<polygon fill="red" stroke="red" stroke-width="0.218129" points="828.073,-90.7154 830.104,-80.3172 822.032,-87.1789 828.073,-90.7154"/>
</g>
<!-- wallRadar[&#45;0.7,0.7]&#45;&gt; Move Backward -->
<g id="edge71" class="edge"><title>wallRadar[&#45;0.7,0.7]&#45;&gt; Move Backward</title>
<path fill="none" stroke="red" stroke-width="0.302348" d="M296.238,-232.549C573.905,-231.254 2095.9,-222.618 2129,-188.735 2142.18,-175.246 2141.8,-160.158 2129,-146.309 2094.58,-109.061 1724.14,-117.887 1674,-110.309 1612.91,-101.076 1544.25,-85.083 1495.89,-72.8632"/>
<polygon fill="red" stroke="red" stroke-width="0.302348" points="1496.75,-69.4699 1486.19,-70.3948 1495.02,-76.2536 1496.75,-69.4699"/>
</g>
<!-- wallRadar[&#45;0.7,0.7]&#45;&gt;Move Left -->
<g id="edge20" class="edge"><title>wallRadar[&#45;0.7,0.7]&#45;&gt;Move Left</title>
<path fill="none" stroke="red" stroke-width="0.241056" d="M209.755,-231.432C178.426,-227.942 138.023,-217.632 117,-188.735 105.907,-173.487 104.19,-160.146 117,-146.309 152.279,-108.199 531.997,-120.087 583,-110.309 627.683,-101.742 677.071,-85.7118 711.779,-73.3059"/>
<polygon fill="red" stroke="red" stroke-width="0.241056" points="713.397,-76.4426 721.609,-69.7487 711.015,-69.8603 713.397,-76.4426"/>
</g>
<!-- wallRadar[&#45;0.7,0.7]&#45;&gt;Turn Right -->
<g id="edge77" class="edge"><title>wallRadar[&#45;0.7,0.7]&#45;&gt;Turn Right</title>
<path fill="none" stroke="red" stroke-width="0.737959" d="M296.14,-233.028C524.881,-234.374 1587.32,-237.956 1635,-188.735 1648.12,-175.191 1647.41,-160.508 1635,-146.309 1595.75,-101.39 1426.41,-126.485 1369,-110.309 1341.76,-102.634 1312.72,-90.0755 1289.7,-78.9837"/>
<polygon fill="red" stroke="red" stroke-width="0.737959" points="1291.07,-75.7569 1280.55,-74.4992 1287.99,-82.0427 1291.07,-75.7569"/>
</g>
<!-- 303 -->
<g id="node30" class="node"><title>303</title>
<ellipse fill="white" stroke="black" cx="253" cy="-167.522" rx="21.4286" ry="21.4286"/>
<text text-anchor="middle" x="253" y="-165.322" font-family="Times,serif" font-size="9.00">303</text>
</g>
<!-- wallRadar[&#45;0.7,0.7]&#45;&gt;303 -->
<g id="edge78" class="edge"><title>wallRadar[&#45;0.7,0.7]&#45;&gt;303</title>
<path fill="none" stroke="green" stroke-width="0.3" d="M253,-224.602C253,-218.06 253,-208.431 253,-198.991"/>
<polygon fill="green" stroke="green" stroke-width="0.3" points="256.5,-198.977 253,-188.977 249.5,-198.977 256.5,-198.977"/>
</g>
<!-- wallRadar[&#45;0.7,&#45;0.7] -->
<g id="node7" class="node"><title>wallRadar[&#45;0.7,&#45;0.7]</title>
<polygon fill="lightgray" stroke="black" points="381.5,-176.522 292.5,-176.522 292.5,-158.522 381.5,-158.522 381.5,-176.522"/>
<text text-anchor="middle" x="337" y="-165.322" font-family="Times,serif" font-size="9.00">wallRadar[&#45;0.7,&#45;0.7]</text>
</g>
<!-- wallRadar[&#45;0.7,&#45;0.7]&#45;&gt;Shoot -->
<g id="edge64" class="edge"><title>wallRadar[&#45;0.7,&#45;0.7]&#45;&gt;Shoot</title>
<path fill="none" stroke="red" stroke-width="0.240339" d="M354.765,-158.325C364.878,-154.024 377.906,-149.084 390,-146.309 480.008,-125.656 724.577,-157.425 804,-110.309 812.576,-105.221 819.519,-97.1986 824.936,-88.8713"/>
<polygon fill="red" stroke="red" stroke-width="0.240339" points="827.986,-90.5888 830.032,-80.1934 821.95,-87.0438 827.986,-90.5888"/>
</g>
<!-- wallRadar[&#45;0.7,&#45;0.7]&#45;&gt;Move Forward -->
<g id="edge44" class="edge"><title>wallRadar[&#45;0.7,&#45;0.7]&#45;&gt;Move Forward</title>
<path fill="none" stroke="green" stroke-width="0.225173" d="M350.751,-158.406C375.975,-143.519 430.839,-111.138 472.113,-86.7781"/>
<polygon fill="green" stroke="green" stroke-width="0.225173" points="474.129,-89.6525 480.962,-81.5555 470.571,-83.6241 474.129,-89.6525"/>
</g>
<!-- wallRadar[&#45;0.7,&#45;0.7]&#45;&gt;Move Left -->
<g id="edge63" class="edge"><title>wallRadar[&#45;0.7,&#45;0.7]&#45;&gt;Move Left</title>
<path fill="none" stroke="red" stroke-width="0.487917" d="M355.856,-158.381C365.856,-154.307 378.435,-149.564 390,-146.309 473.993,-122.666 498.308,-131.31 583,-110.309 627.019,-99.3931 676.299,-83.7218 711.145,-72.0433"/>
<polygon fill="red" stroke="red" stroke-width="0.487917" points="712.668,-75.2236 721.024,-68.7101 710.43,-68.591 712.668,-75.2236"/>
</g>
<!-- wallRadar[&#45;0.7,&#45;0.7]&#45;&gt;Move right -->
<g id="edge32" class="edge"><title>wallRadar[&#45;0.7,&#45;0.7]&#45;&gt;Move right</title>
<path fill="none" stroke="green" stroke-width="0.303313" d="M354.272,-158.471C364.446,-154.102 377.696,-149.049 390,-146.309 601.412,-99.2224 662.076,-144.2 876,-110.309 936.576,-100.712 1004.96,-82.8367 1049.41,-70.2544"/>
<polygon fill="green" stroke="green" stroke-width="0.303313" points="1050.41,-73.6076 1059.06,-67.4963 1048.49,-66.8766 1050.41,-73.6076"/>
</g>
<!-- wallRadar[&#45;0.7,&#45;0.7]&#45;&gt;Turn Right -->
<g id="edge62" class="edge"><title>wallRadar[&#45;0.7,&#45;0.7]&#45;&gt;Turn Right</title>
<path fill="none" stroke="green" stroke-width="0.29668" d="M354.246,-158.349C364.411,-153.94 377.661,-148.887 390,-146.309 719.271,-77.5137 821.982,-200.666 1146,-110.309 1166.57,-104.573 1187.6,-94.0188 1205.04,-83.7407"/>
<polygon fill="green" stroke="green" stroke-width="0.29668" points="1207.08,-86.5986 1213.81,-78.4181 1203.45,-80.6145 1207.08,-86.5986"/>
</g>
<!-- wallRadar[0.7,&#45;0.7] -->
<g id="node8" class="node"><title>wallRadar[0.7,&#45;0.7]</title>
<polygon fill="lightgray" stroke="black" points="994,-176.522 908,-176.522 908,-158.522 994,-158.522 994,-176.522"/>
<text text-anchor="middle" x="951" y="-165.322" font-family="Times,serif" font-size="9.00">wallRadar[0.7,&#45;0.7]</text>
</g>
<!-- wallRadar[0.7,&#45;0.7]&#45;&gt;Move Forward -->
<g id="edge41" class="edge"><title>wallRadar[0.7,&#45;0.7]&#45;&gt;Move Forward</title>
<path fill="none" stroke="red" stroke-width="0.250096" d="M932.509,-158.385C922.7,-154.312 910.358,-149.568 899,-146.309 816.808,-122.72 793.145,-130.283 710,-110.309 666.657,-99.896 618.338,-85.7494 581.813,-74.5264"/>
<polygon fill="red" stroke="red" stroke-width="0.250096" points="582.425,-71.0523 571.837,-71.4439 580.358,-77.7403 582.425,-71.0523"/>
</g>
<!-- wallRadar[0.7,&#45;0.7]&#45;&gt; Move Backward -->
<g id="edge12" class="edge"><title>wallRadar[0.7,&#45;0.7]&#45;&gt; Move Backward</title>
<path fill="none" stroke="green" stroke-width="0.376891" stroke-dasharray="1,5" d="M968.805,-158.495C978.931,-154.246 991.958,-149.303 1004,-146.309 1130.47,-114.861 1168.68,-142.363 1295,-110.309 1321.54,-103.574 1349.85,-93.0856 1373.88,-83.1256"/>
<polygon fill="green" stroke="green" stroke-width="0.376891" points="1375.35,-86.304 1383.21,-79.1972 1372.63,-79.8527 1375.35,-86.304"/>
</g>
<!-- wallRadar[0.7,&#45;0.7]&#45;&gt;Move Left -->
<g id="edge14" class="edge"><title>wallRadar[0.7,&#45;0.7]&#45;&gt;Move Left</title>
<path fill="none" stroke="green" stroke-width="0.652433" d="M930.267,-158.416C920.748,-154.706 909.309,-150.265 899,-146.309 856.846,-130.129 841.032,-136.142 804,-110.309 797.467,-105.751 791.264,-100.089 785.634,-94.159"/>
<polygon fill="green" stroke="green" stroke-width="0.652433" points="788.108,-91.6761 778.827,-86.5673 782.896,-96.3492 788.108,-91.6761"/>
</g>
<!-- wallRadar[0.7,&#45;0.7]&#45;&gt;Move right -->
<g id="edge17" class="edge"><title>wallRadar[0.7,&#45;0.7]&#45;&gt;Move right</title>
<path fill="none" stroke="red" stroke-width="0.401187" d="M961.974,-158.226C981.941,-143.132 1025.12,-110.491 1057.31,-86.1613"/>
<polygon fill="red" stroke="red" stroke-width="0.401187" points="1059.78,-88.6787 1065.65,-79.8563 1055.56,-83.0947 1059.78,-88.6787"/>
</g>
<!-- wallRadar[0.7,&#45;0.7]&#45;&gt;Turn Left -->
<g id="edge70" class="edge"><title>wallRadar[0.7,&#45;0.7]&#45;&gt;Turn Left</title>
<path fill="none" stroke="green" stroke-width="0.305975" d="M968.271,-158.466C978.445,-154.096 991.695,-149.043 1004,-146.309 1218.47,-98.66 1279.99,-144.572 1497,-110.309 1559.45,-100.449 1630.18,-81.7535 1674.44,-69.1224"/>
<polygon fill="green" stroke="green" stroke-width="0.305975" points="1675.64,-72.4183 1684.29,-66.2881 1673.71,-65.6915 1675.64,-72.4183"/>
</g>
<!-- wallRadar[0.7,&#45;0.7]&#45;&gt;Turn Right -->
<g id="edge56" class="edge"><title>wallRadar[0.7,&#45;0.7]&#45;&gt;Turn Right</title>
<path fill="none" stroke="green" stroke-width="0.267469" d="M970.441,-158.486C980.383,-154.536 992.733,-149.872 1004,-146.309 1066.08,-126.675 1085.35,-133.993 1146,-110.309 1165.73,-102.603 1186.49,-91.843 1203.95,-81.9432"/>
<polygon fill="green" stroke="green" stroke-width="0.267469" points="1205.84,-84.8929 1212.75,-76.8653 1202.34,-78.8289 1205.84,-84.8929"/>
</g>
<!-- enemyRadar[RightBack] -->
<g id="node9" class="node"><title>enemyRadar[RightBack]</title>
<polygon fill="lightgray" stroke="black" points="772,-176.522 668,-176.522 668,-158.522 772,-158.522 772,-176.522"/>
<text text-anchor="middle" x="720" y="-165.322" font-family="Times,serif" font-size="9.00">enemyRadar[RightBack]</text>
</g>
<!-- enemyRadar[RightBack]&#45;&gt;Shoot -->
<g id="edge72" class="edge"><title>enemyRadar[RightBack]&#45;&gt;Shoot</title>
<path fill="none" stroke="green" stroke-width="0.267757" d="M735.897,-158.388C753.868,-148.66 783.311,-131.062 804,-110.309 810.602,-103.686 816.7,-95.6803 821.93,-87.8791"/>
<polygon fill="green" stroke="green" stroke-width="0.267757" points="825.013,-89.5547 827.446,-79.2431 819.113,-85.7868 825.013,-89.5547"/>
</g>
<!-- enemyRadar[RightBack]&#45;&gt;Move Forward -->
<g id="edge48" class="edge"><title>enemyRadar[RightBack]&#45;&gt;Move Forward</title>
<path fill="none" stroke="red" stroke-width="0.106819" d="M705.588,-158.406C678.708,-143.27 619.714,-110.051 576.228,-85.564"/>
<polygon fill="red" stroke="red" stroke-width="0.106819" points="577.908,-82.493 567.477,-80.6362 574.473,-88.5925 577.908,-82.493"/>
</g>
<!-- enemyRadar[RightBack]&#45;&gt; Move Backward -->
<g id="edge57" class="edge"><title>enemyRadar[RightBack]&#45;&gt; Move Backward</title>
<path fill="none" stroke="red" stroke-width="0.256631" d="M740.332,-158.496C752.276,-154.136 767.776,-149.083 782,-146.309 1006.33,-102.558 1072.05,-160.635 1295,-110.309 1321.71,-104.28 1350.05,-93.9107 1374.05,-83.849"/>
<polygon fill="red" stroke="red" stroke-width="0.256631" points="1375.55,-87.0163 1383.37,-79.8693 1372.8,-80.5791 1375.55,-87.0163"/>
</g>
<!-- enemyRadar[RightBack]&#45;&gt;Turn Right -->
<g id="edge74" class="edge"><title>enemyRadar[RightBack]&#45;&gt;Turn Right</title>
<path fill="none" stroke="green" stroke-width="0.337263" d="M740.926,-158.445C752.802,-154.181 768.039,-149.239 782,-146.309 941.101,-112.918 990.572,-157.955 1146,-110.309 1166.25,-104.1 1187.1,-93.5824 1204.48,-83.4588"/>
<polygon fill="green" stroke="green" stroke-width="0.337263" points="1206.44,-86.3617 1213.23,-78.2256 1202.85,-80.3539 1206.44,-86.3617"/>
</g>
<!-- enemyRadar[LeftBack] -->
<g id="node10" class="node"><title>enemyRadar[LeftBack]</title>
<polygon fill="lightgray" stroke="black" points="889.5,-176.522 790.5,-176.522 790.5,-158.522 889.5,-158.522 889.5,-176.522"/>
<text text-anchor="middle" x="840" y="-165.322" font-family="Times,serif" font-size="9.00">enemyRadar[LeftBack]</text>
</g>
<!-- enemyRadar[LeftBack]&#45;&gt;Shoot -->
<g id="edge67" class="edge"><title>enemyRadar[LeftBack]&#45;&gt;Shoot</title>
<path fill="none" stroke="red" stroke-width="0.10308" d="M840,-158.226C840,-144.34 840,-115.601 840,-92.1464"/>
<polygon fill="red" stroke="red" stroke-width="0.10308" points="843.5,-92.1461 840,-82.1461 836.5,-92.1462 843.5,-92.1461"/>
</g>
<!-- enemyRadar[LeftBack]&#45;&gt; Move Backward -->
<g id="edge50" class="edge"><title>enemyRadar[LeftBack]&#45;&gt; Move Backward</title>
<path fill="none" stroke="red" stroke-width="0.361419" d="M859.602,-158.484C870.927,-154.177 885.552,-149.18 899,-146.309 1071.83,-109.406 1123.02,-150.995 1295,-110.309 1321.64,-104.005 1349.97,-93.5895 1373.99,-83.5674"/>
<polygon fill="red" stroke="red" stroke-width="0.361419" points="1375.47,-86.7392 1383.31,-79.6077 1372.74,-80.2964 1375.47,-86.7392"/>
</g>
<!-- enemyRadar[LeftBack]&#45;&gt;Move Left -->
<g id="edge16" class="edge"><title>enemyRadar[LeftBack]&#45;&gt;Move Left</title>
<path fill="none" stroke="red" stroke-width="0.172956" d="M833.762,-158.226C823.688,-144.832 803.224,-117.62 785.958,-94.66"/>
<polygon fill="red" stroke="red" stroke-width="0.172956" points="788.574,-92.3153 779.766,-86.4268 782.979,-96.5226 788.574,-92.3153"/>
</g>
<!-- enemyRadar[LeftBack]&#45;&gt;Move right -->
<g id="edge47" class="edge"><title>enemyRadar[LeftBack]&#45;&gt;Move right</title>
<path fill="none" stroke="green" stroke-width="0.138802" d="M858.898,-158.406C899.114,-141.136 994.151,-100.322 1051.25,-75.8009"/>
<polygon fill="green" stroke="green" stroke-width="0.138802" points="1052.96,-78.8784 1060.76,-71.7164 1050.19,-72.4464 1052.96,-78.8784"/>
</g>
<!-- enemyRadar[LeftBack]&#45;&gt;Turn Right -->
<g id="edge30" class="edge"><title>enemyRadar[LeftBack]&#45;&gt;Turn Right</title>
<path fill="none" stroke="red" stroke-width="0.117453" d="M860.474,-158.46C871.7,-154.307 885.95,-149.466 899,-146.309 1006.83,-120.219 1040.71,-145.262 1146,-110.309 1166.11,-103.634 1186.92,-93.0415 1204.33,-82.9874"/>
<polygon fill="red" stroke="red" stroke-width="0.117453" points="1206.27,-85.9057 1213.09,-77.8025 1202.7,-79.8805 1206.27,-85.9057"/>
</g>
<!-- enemyRadar[Right] -->
<g id="node11" class="node"><title>enemyRadar[Right]</title>
<polygon fill="lightgray" stroke="black" points="2390,-176.522 2304,-176.522 2304,-158.522 2390,-158.522 2390,-176.522"/>
<text text-anchor="middle" x="2347" y="-165.322" font-family="Times,serif" font-size="9.00">enemyRadar[Right]</text>
</g>
<!-- enemyRadar[Right]&#45;&gt; Move Backward -->
<g id="edge38" class="edge"><title>enemyRadar[Right]&#45;&gt; Move Backward</title>
<path fill="none" stroke="red" stroke-width="0.276954" d="M2330.09,-158.393C2320.11,-153.999 2307.11,-148.946 2295,-146.309 2024.86,-87.5087 1947.78,-148.742 1674,-110.309 1612.82,-101.719 1544.17,-85.6457 1495.83,-73.2323"/>
<polygon fill="red" stroke="red" stroke-width="0.276954" points="1496.7,-69.8414 1486.14,-70.7224 1494.95,-76.6178 1496.7,-69.8414"/>
</g>
<!-- enemyRadar[Right]&#45;&gt;Turn Left -->
<g id="edge75" class="edge"><title>enemyRadar[Right]&#45;&gt;Turn Left</title>
<path fill="none" stroke="red" stroke-width="0.185532" d="M2329.03,-158.431C2319.16,-154.27 2306.6,-149.43 2295,-146.309 2101.11,-94.1347 1861.91,-68.7318 1763.53,-59.9029"/>
<polygon fill="red" stroke="red" stroke-width="0.185532" points="1763.61,-56.3968 1753.35,-59.0033 1763,-63.3697 1763.61,-56.3968"/>
</g>
<!-- enemyRadar[Right]&#45;&gt;Turn Right -->
<g id="edge7" class="edge"><title>enemyRadar[Right]&#45;&gt;Turn Right</title>
<path fill="none" stroke="red" stroke-width="0.163698" stroke-dasharray="1,5" d="M2330.57,-158.513C2320.55,-154.042 2307.33,-148.869 2295,-146.309 1891.74,-62.5472 1770.32,-202.921 1369,-110.309 1341.43,-103.945 1312.37,-91.4555 1289.43,-80.0729"/>
<polygon fill="red" stroke="red" stroke-width="0.163698" points="1290.81,-76.8516 1280.31,-75.45 1287.65,-83.0946 1290.81,-76.8516"/>
</g>
<!-- enemyRadar[Left] -->
<g id="node12" class="node"><title>enemyRadar[Left]</title>
<polygon fill="lightgray" stroke="black" points="1625.5,-176.522 1544.5,-176.522 1544.5,-158.522 1625.5,-158.522 1625.5,-176.522"/>
<text text-anchor="middle" x="1585" y="-165.322" font-family="Times,serif" font-size="9.00">enemyRadar[Left]</text>
</g>
<!-- enemyRadar[Left]&#45;&gt;Move right -->
<g id="edge59" class="edge"><title>enemyRadar[Left]&#45;&gt;Move right</title>
<path fill="none" stroke="green" stroke-width="0.376101" d="M1568.27,-158.393C1558.74,-154.113 1546.44,-149.172 1535,-146.309 1388.44,-109.644 1341.27,-155.129 1197,-110.309 1176.77,-104.024 1155.93,-93.4939 1138.55,-83.3817"/>
<polygon fill="green" stroke="green" stroke-width="0.376101" points="1140.17,-80.2765 1129.79,-78.1564 1136.59,-86.2871 1140.17,-80.2765"/>
</g>
<!-- enemyRadar[Left]&#45;&gt;Turn Left -->
<g id="edge66" class="edge"><title>enemyRadar[Left]&#45;&gt;Turn Left</title>
<path fill="none" stroke="green" stroke-width="0.196775" d="M1595,-158.226C1613.44,-142.921 1653.62,-109.577 1683.06,-85.1473"/>
<polygon fill="green" stroke="green" stroke-width="0.196775" points="1685.59,-87.5952 1691.05,-78.5158 1681.12,-82.2084 1685.59,-87.5952"/>
</g>
<!-- enemyRadar[Left]&#45;&gt;Turn Right -->
<g id="edge9" class="edge"><title>enemyRadar[Left]&#45;&gt;Turn Right</title>
<path fill="none" stroke="red" stroke-width="0.403734" d="M1567.22,-158.47C1557.78,-154.42 1545.92,-149.672 1535,-146.309 1462.85,-124.081 1440.8,-133.637 1369,-110.309 1342.18,-101.596 1313.27,-89.0406 1290.23,-78.2127"/>
<polygon fill="red" stroke="red" stroke-width="0.403734" points="1291.59,-74.9845 1281.05,-73.8501 1288.58,-81.306 1291.59,-74.9845"/>
</g>
<!-- enemyRadar[RightFront30] -->
<g id="node13" class="node"><title>enemyRadar[RightFront30]</title>
<polygon fill="lightgray" stroke="black" points="1797.5,-176.522 1682.5,-176.522 1682.5,-158.522 1797.5,-158.522 1797.5,-176.522"/>
<text text-anchor="middle" x="1740" y="-165.322" font-family="Times,serif" font-size="9.00">enemyRadar[RightFront30]</text>
</g>
<!-- enemyRadar[RightFront30]&#45;&gt; Move Backward -->
<g id="edge13" class="edge"><title>enemyRadar[RightFront30]&#45;&gt; Move Backward</title>
<path fill="none" stroke="green" stroke-width="0.188958" d="M1717.67,-158.496C1671.29,-141.819 1563.08,-102.919 1494.24,-78.1698"/>
<polygon fill="green" stroke="green" stroke-width="0.188958" points="1495.39,-74.8647 1484.8,-74.7753 1493.02,-81.452 1495.39,-74.8647"/>
</g>
<!-- enemyRadar[RightFront30]&#45;&gt;Turn Right -->
<g id="edge76" class="edge"><title>enemyRadar[RightFront30]&#45;&gt;Turn Right</title>
<path fill="none" stroke="green" stroke-width="0.646236" d="M1714.91,-158.452C1701.17,-154.297 1683.79,-149.456 1668,-146.309 1536.73,-120.142 1498.1,-145.66 1369,-110.309 1341.71,-102.834 1312.66,-90.2864 1289.66,-79.1501"/>
<polygon fill="green" stroke="green" stroke-width="0.646236" points="1291.03,-75.9245 1280.51,-74.6445 1287.94,-82.2037 1291.03,-75.9245"/>
</g>
<!-- enemyRadar[LeftFront30] -->
<g id="node14" class="node"><title>enemyRadar[LeftFront30]</title>
<polygon fill="lightgray" stroke="black" points="2286,-176.522 2176,-176.522 2176,-158.522 2286,-158.522 2286,-176.522"/>
<text text-anchor="middle" x="2231" y="-165.322" font-family="Times,serif" font-size="9.00">enemyRadar[LeftFront30]</text>
</g>
<!-- enemyRadar[LeftFront30]&#45;&gt; Move Backward -->
<g id="edge18" class="edge"><title>enemyRadar[LeftFront30]&#45;&gt; Move Backward</title>
<path fill="none" stroke="green" stroke-width="0.128858" d="M2207.98,-158.451C2194.7,-154.133 2177.6,-149.136 2162,-146.309 1948.01,-107.522 1889.12,-142.235 1674,-110.309 1612.89,-101.239 1544.23,-85.2251 1495.87,-72.9564"/>
<polygon fill="green" stroke="green" stroke-width="0.128858" points="1496.73,-69.5638 1486.18,-70.4776 1495,-76.3456 1496.73,-69.5638"/>
</g>
<!-- enemyRadar[LeftFront30]&#45;&gt;Turn Left -->
<g id="edge4" class="edge"><title>enemyRadar[LeftFront30]&#45;&gt;Turn Left</title>
<path fill="none" stroke="green" stroke-width="0.785177" d="M2205.58,-158.516C2192.61,-154.574 2176.54,-149.908 2162,-146.309 2017.32,-110.496 1843.56,-78.3051 1763.04,-63.9959"/>
<polygon fill="green" stroke="green" stroke-width="0.785177" points="1763.22,-60.4746 1752.77,-62.178 1762,-67.3674 1763.22,-60.4746"/>
</g>
<!-- enemyRadar[LeftFront30]&#45;&gt;Turn Right -->
<g id="edge26" class="edge"><title>enemyRadar[LeftFront30]&#45;&gt;Turn Right</title>
<path fill="none" stroke="green" stroke-width="0.312224" d="M2197.2,-158.515C2177.44,-154.162 2151.94,-149.109 2129,-146.309 1793.34,-105.329 1698.17,-187.742 1369,-110.309 1341.45,-103.828 1312.4,-91.3325 1289.45,-79.9758"/>
<polygon fill="green" stroke="green" stroke-width="0.312224" points="1290.83,-76.7542 1280.33,-75.3653 1287.67,-83.0011 1290.83,-76.7542"/>
</g>
<!-- enemyRadar[RightFront10] -->
<g id="node15" class="node"><title>enemyRadar[RightFront10]</title>
<polygon fill="lightgray" stroke="black" points="514.5,-176.522 399.5,-176.522 399.5,-158.522 514.5,-158.522 514.5,-176.522"/>
<text text-anchor="middle" x="457" y="-165.322" font-family="Times,serif" font-size="9.00">enemyRadar[RightFront10]</text>
</g>
<!-- enemyRadar[RightFront10]&#45;&gt;Shoot -->
<g id="edge29" class="edge"><title>enemyRadar[RightFront10]&#45;&gt;Shoot</title>
<path fill="none" stroke="green" stroke-width="0.566279" d="M479.96,-158.439C492.535,-154.28 508.474,-149.44 523,-146.309 646.083,-119.778 697.04,-176.738 804,-110.309 812.311,-105.147 819.12,-97.2748 824.492,-89.1183"/>
<polygon fill="green" stroke="green" stroke-width="0.566279" points="827.651,-90.6538 829.761,-80.271 821.637,-87.0723 827.651,-90.6538"/>
</g>
<!-- enemyRadar[RightFront10]&#45;&gt;Move Forward -->
<g id="edge36" class="edge"><title>enemyRadar[RightFront10]&#45;&gt;Move Forward</title>
<path fill="none" stroke="green" stroke-width="0.134496" d="M462.036,-158.226C468.743,-147.178 481.157,-126.729 493.122,-107.019"/>
<polygon fill="green" stroke="green" stroke-width="0.134496" points="496.187,-108.715 498.384,-98.3507 490.203,-105.083 496.187,-108.715"/>
</g>
<!-- enemyRadar[RightFront10]&#45;&gt;Move right -->
<g id="edge21" class="edge"><title>enemyRadar[RightFront10]&#45;&gt;Move right</title>
<path fill="none" stroke="red" stroke-width="0.478662" d="M479.324,-158.492C491.98,-154.243 508.2,-149.3 523,-146.309 677.578,-115.069 720.597,-137.14 876,-110.309 936.438,-99.8738 1004.85,-82.1773 1049.34,-69.8652"/>
<polygon fill="red" stroke="red" stroke-width="0.478662" points="1050.32,-73.2265 1059.01,-67.1696 1048.44,-66.4836 1050.32,-73.2265"/>
</g>
<!-- enemyRadar[RightFront10]&#45;&gt;Turn Right -->
<g id="edge40" class="edge"><title>enemyRadar[RightFront10]&#45;&gt;Turn Right</title>
<path fill="none" stroke="green" stroke-width="0.29193" d="M478.676,-158.446C491.402,-154.07 507.902,-149.016 523,-146.309 795.995,-97.3491 879.224,-186.163 1146,-110.309 1166.54,-104.469 1187.57,-93.8985 1205.01,-83.6365"/>
<polygon fill="green" stroke="green" stroke-width="0.29193" points="1207.04,-86.4981 1213.79,-78.3249 1203.42,-80.5101 1207.04,-86.4981"/>
</g>
<!-- enemyRadar[LeftFront10] -->
<g id="node16" class="node"><title>enemyRadar[LeftFront10]</title>
<polygon fill="lightgray" stroke="black" points="1526,-176.522 1416,-176.522 1416,-158.522 1526,-158.522 1526,-176.522"/>
<text text-anchor="middle" x="1471" y="-165.322" font-family="Times,serif" font-size="9.00">enemyRadar[LeftFront10]</text>
</g>
<!-- enemyRadar[LeftFront10]&#45;&gt; Move Backward -->
<g id="edge46" class="edge"><title>enemyRadar[LeftFront10]&#45;&gt; Move Backward</title>
<path fill="none" stroke="green" stroke-width="0.418709" d="M1468.14,-158.226C1465,-149.091 1459.64,-133.527 1454.04,-117.269"/>
<polygon fill="green" stroke="green" stroke-width="0.418709" points="1457.3,-115.976 1450.73,-107.66 1450.68,-118.255 1457.3,-115.976"/>
</g>
<!-- enemyRadar[LeftFront10]&#45;&gt;Move Left -->
<g id="edge60" class="edge"><title>enemyRadar[LeftFront10]&#45;&gt;Move Left</title>
<path fill="none" stroke="green" stroke-width="0.447896" d="M1450,-158.448C1437.67,-154.073 1421.67,-149.02 1407,-146.309 1275,-121.91 924.415,-169.641 804,-110.309 796.698,-106.711 790.06,-101.417 784.223,-95.5297"/>
<polygon fill="green" stroke="green" stroke-width="0.447896" points="786.57,-92.9076 777.268,-87.8369 781.378,-97.6021 786.57,-92.9076"/>
</g>
<!-- enemyRadar[LeftFront10]&#45;&gt;Move right -->
<g id="edge37" class="edge"><title>enemyRadar[LeftFront10]&#45;&gt;Move right</title>
<path fill="none" stroke="red" stroke-width="0.287647" d="M1448.11,-158.458C1436,-154.406 1420.82,-149.658 1407,-146.309 1314.97,-123.997 1286.49,-141.267 1197,-110.309 1176.98,-103.383 1156.18,-92.7496 1138.76,-82.7331"/>
<polygon fill="red" stroke="red" stroke-width="0.287647" points="1140.38,-79.6247 1129.98,-77.5743 1136.83,-85.6593 1140.38,-79.6247"/>
</g>
<!-- enemyRadar[LeftFront10]&#45;&gt;Turn Left -->
<g id="edge5" class="edge"><title>enemyRadar[LeftFront10]&#45;&gt;Turn Left</title>
<path fill="none" stroke="red" stroke-width="0.188281" d="M1489.16,-158.406C1528.36,-140.89 1621.77,-99.1545 1676.35,-74.7627"/>
<polygon fill="red" stroke="red" stroke-width="0.188281" points="1678.05,-77.8408 1685.75,-70.5657 1675.19,-71.4498 1678.05,-77.8408"/>
</g>
<!-- enemyRadar[LeftFront10]&#45;&gt;Turn Right -->
<g id="edge33" class="edge"><title>enemyRadar[LeftFront10]&#45;&gt;Turn Right</title>
<path fill="none" stroke="red" stroke-width="0.236166" d="M1454.46,-158.406C1420.25,-141.629 1340.76,-102.634 1290.41,-77.9403"/>
<polygon fill="red" stroke="red" stroke-width="0.236166" points="1291.89,-74.7662 1281.37,-73.5045 1288.81,-81.0508 1291.89,-74.7662"/>
</g>
<!-- enemyRadar[RightFront3.5] -->
<g id="node17" class="node"><title>enemyRadar[RightFront3.5]</title>
<polygon fill="lightgray" stroke="black" points="1267.5,-176.522 1150.5,-176.522 1150.5,-158.522 1267.5,-158.522 1267.5,-176.522"/>
<text text-anchor="middle" x="1209" y="-165.322" font-family="Times,serif" font-size="9.00">enemyRadar[RightFront3.5]</text>
</g>
<!-- enemyRadar[RightFront3.5]&#45;&gt;Shoot -->
<g id="edge3" class="edge"><title>enemyRadar[RightFront3.5]&#45;&gt;Shoot</title>
<path fill="none" stroke="green" stroke-width="0.110283" d="M1182.17,-158.496C1116.75,-138.929 949.043,-88.769 875.483,-66.7673"/>
<polygon fill="green" stroke="green" stroke-width="0.110283" points="876.332,-63.3681 865.749,-63.8557 874.326,-70.0746 876.332,-63.3681"/>
</g>
<!-- enemyRadar[RightFront3.5]&#45;&gt; Move Backward -->
<g id="edge65" class="edge"><title>enemyRadar[RightFront3.5]&#45;&gt; Move Backward</title>
<path fill="none" stroke="green" stroke-width="0.321284" d="M1225.47,-158.406C1256.48,-143.128 1324.88,-109.428 1374.7,-84.8788"/>
<polygon fill="green" stroke="green" stroke-width="0.321284" points="1376.35,-87.9674 1383.78,-80.408 1373.26,-81.6882 1376.35,-87.9674"/>
</g>
<!-- enemyRadar[RightFront3.5]&#45;&gt;Move Left -->
<g id="edge27" class="edge"><title>enemyRadar[RightFront3.5]&#45;&gt;Move Left</title>
<path fill="none" stroke="green" stroke-width="0.714566" d="M1185.66,-158.435C1172.66,-154.222 1156.1,-149.332 1141,-146.309 993.304,-116.726 937.523,-180.029 804,-110.309 796.784,-106.541 790.188,-101.165 784.366,-95.2473"/>
<polygon fill="green" stroke="green" stroke-width="0.714566" points="786.714,-92.6244 777.417,-87.5432 781.516,-97.313 786.714,-92.6244"/>
</g>
<!-- enemyRadar[RightFront3.5]&#45;&gt;Turn Left -->
<g id="edge24" class="edge"><title>enemyRadar[RightFront3.5]&#45;&gt;Turn Left</title>
<path fill="none" stroke="green" stroke-width="0.319048" d="M1233.35,-158.467C1246.22,-154.417 1262.36,-149.669 1277,-146.309 1373.57,-124.149 1399.92,-130.114 1497,-110.309 1558.94,-97.6714 1629.81,-79.671 1674.23,-67.9514"/>
<polygon fill="green" stroke="green" stroke-width="0.319048" points="1675.34,-71.2773 1684.11,-65.3325 1673.55,-64.5108 1675.34,-71.2773"/>
</g>
<!-- enemyRadar[RightFront3.5]&#45;&gt;Turn Right -->
<g id="edge19" class="edge"><title>enemyRadar[RightFront3.5]&#45;&gt;Turn Right</title>
<path fill="none" stroke="green" stroke-width="0.595517" d="M1211.78,-158.226C1215.77,-146.315 1223.43,-123.476 1230.49,-102.417"/>
<polygon fill="green" stroke="green" stroke-width="0.595517" points="1233.82,-103.506 1233.68,-92.9123 1227.18,-101.281 1233.82,-103.506"/>
</g>
<!-- enemyRadar[LeftFront3.5] -->
<g id="node18" class="node"><title>enemyRadar[LeftFront3.5]</title>
<polygon fill="lightgray" stroke="black" points="2120,-176.522 2008,-176.522 2008,-158.522 2120,-158.522 2120,-176.522"/>
<text text-anchor="middle" x="2064" y="-165.322" font-family="Times,serif" font-size="9.00">enemyRadar[LeftFront3.5]</text>
</g>
<!-- enemyRadar[LeftFront3.5]&#45;&gt;Turn Left -->
<g id="edge61" class="edge"><title>enemyRadar[LeftFront3.5]&#45;&gt;Turn Left</title>
<path fill="none" stroke="red" stroke-width="0.495356" d="M2038.84,-158.496C1980.32,-139.829 1834.51,-93.3195 1761.33,-69.9769"/>
<polygon fill="red" stroke="red" stroke-width="0.495356" points="1762.1,-66.5468 1751.51,-66.8422 1759.97,-73.2157 1762.1,-66.5468"/>
</g>
<!-- enemyRadar[LeftFront3.5]&#45;&gt;Turn Right -->
<g id="edge68" class="edge"><title>enemyRadar[LeftFront3.5]&#45;&gt;Turn Right</title>
<path fill="none" stroke="red" stroke-width="0.439879" d="M2042.66,-158.438C2030.13,-154.059 2013.88,-149.006 1999,-146.309 1723.04,-96.2954 1641.69,-175.859 1369,-110.309 1341.48,-103.694 1312.43,-91.1913 1289.47,-79.8644"/>
<polygon fill="red" stroke="red" stroke-width="0.439879" points="1290.86,-76.6424 1280.35,-75.268 1287.71,-82.8936 1290.86,-76.6424"/>
</g>
<!-- enemyRadar[RightFront1.5] -->
<g id="node19" class="node"><title>enemyRadar[RightFront1.5]</title>
<polygon fill="lightgray" stroke="black" points="649.5,-176.522 532.5,-176.522 532.5,-158.522 649.5,-158.522 649.5,-176.522"/>
<text text-anchor="middle" x="591" y="-165.322" font-family="Times,serif" font-size="9.00">enemyRadar[RightFront1.5]</text>
</g>
<!-- enemyRadar[RightFront1.5]&#45;&gt;Move Forward -->
<g id="edge54" class="edge"><title>enemyRadar[RightFront1.5]&#45;&gt;Move Forward</title>
<path fill="none" stroke="red" stroke-width="0.207819" d="M585.964,-158.226C579.257,-147.178 566.843,-126.729 554.878,-107.019"/>
<polygon fill="red" stroke="red" stroke-width="0.207819" points="557.797,-105.083 549.616,-98.3507 551.813,-108.715 557.797,-105.083"/>
</g>
<!-- enemyRadar[RightFront1.5]&#45;&gt; Move Backward -->
<g id="edge69" class="edge"><title>enemyRadar[RightFront1.5]&#45;&gt; Move Backward</title>
<path fill="none" stroke="red" stroke-width="0.197794" d="M613.353,-158.447C626.47,-154.072 643.47,-149.018 659,-146.309 937.906,-97.6458 1018.41,-170.781 1295,-110.309 1321.75,-104.461 1350.09,-94.1218 1374.09,-84.0341"/>
<polygon fill="red" stroke="red" stroke-width="0.197794" points="1375.59,-87.1985 1383.41,-80.0412 1372.84,-80.7649 1375.59,-87.1985"/>
</g>
<!-- enemyRadar[LeftFront1.5] -->
<g id="node20" class="node"><title>enemyRadar[LeftFront1.5]</title>
<polygon fill="lightgray" stroke="black" points="1398,-176.522 1286,-176.522 1286,-158.522 1398,-158.522 1398,-176.522"/>
<text text-anchor="middle" x="1342" y="-165.322" font-family="Times,serif" font-size="9.00">enemyRadar[LeftFront1.5]</text>
</g>
<!-- enemyRadar[LeftFront1.5]&#45;&gt;Shoot -->
<g id="edge55" class="edge"><title>enemyRadar[LeftFront1.5]&#45;&gt;Shoot</title>
<path fill="none" stroke="red" stroke-width="0.22353" d="M1319.06,-158.492C1306.72,-154.399 1291.16,-149.604 1277,-146.309 1176.66,-122.95 1148.86,-131.314 1048,-110.309 986.876,-97.5795 916.798,-78.3558 875.582,-66.5649"/>
<polygon fill="red" stroke="red" stroke-width="0.22353" points="876.326,-63.137 865.748,-63.7358 874.39,-69.8642 876.326,-63.137"/>
</g>
<!-- enemyRadar[LeftFront1.5]&#45;&gt;Move right -->
<g id="edge11" class="edge"><title>enemyRadar[LeftFront1.5]&#45;&gt;Move right</title>
<path fill="none" stroke="green" stroke-width="0.172917" d="M1318.52,-158.454C1289.52,-148.257 1238.91,-129.684 1197,-110.309 1177.92,-101.489 1157.42,-90.6409 1139.98,-80.9761"/>
<polygon fill="green" stroke="green" stroke-width="0.172917" points="1141.6,-77.8706 1131.16,-76.047 1138.18,-83.981 1141.6,-77.8706"/>
</g>
<!-- enemyRadar[LeftFront1.5]&#45;&gt;Turn Left -->
<g id="edge1" class="edge"><title>enemyRadar[LeftFront1.5]&#45;&gt;Turn Left</title>
<path fill="none" stroke="green" stroke-width="0.426921" d="M1367.59,-158.439C1379.55,-154.695 1393.98,-150.219 1407,-146.309 1501.92,-117.795 1613.6,-85.797 1673.94,-68.6369"/>
<polygon fill="green" stroke="green" stroke-width="0.426921" points="1675.22,-71.9115 1683.88,-65.8112 1673.31,-65.1781 1675.22,-71.9115"/>
</g>
<!-- OnTarget -->
<g id="node21" class="node"><title>OnTarget</title>
<polygon fill="lightgray" stroke="black" points="176,-176.522 126,-176.522 126,-158.522 176,-158.522 176,-176.522"/>
<text text-anchor="middle" x="151" y="-165.322" font-family="Times,serif" font-size="9.00">OnTarget</text>
</g>
<!-- OnTarget&#45;&gt;Move Forward -->
<g id="edge43" class="edge"><title>OnTarget&#45;&gt;Move Forward</title>
<path fill="none" stroke="green" stroke-width="0.712268" d="M164.743,-158.477C172.065,-154.43 181.329,-149.681 190,-146.309 283.443,-109.968 397.039,-82.6875 464.774,-68.1032"/>
<polygon fill="green" stroke="green" stroke-width="0.712268" points="465.784,-71.4666 474.834,-65.958 464.324,-64.6205 465.784,-71.4666"/>
</g>
<!-- OnTarget&#45;&gt;Move Left -->
<g id="edge34" class="edge"><title>OnTarget&#45;&gt;Move Left</title>
<path fill="none" stroke="green" stroke-width="0.142389" d="M163.474,-158.472C170.882,-154.104 180.632,-149.051 190,-146.309 358.335,-97.0348 410.979,-144.56 583,-110.309 627.62,-101.424 677.016,-85.433 711.743,-73.1226"/>
<polygon fill="green" stroke="green" stroke-width="0.142389" points="713.348,-76.2654 721.579,-69.595 710.985,-69.6763 713.348,-76.2654"/>
</g>
<!-- OnTarget&#45;&gt;Turn Right -->
<g id="edge51" class="edge"><title>OnTarget&#45;&gt;Turn Right</title>
<path fill="none" stroke="red" stroke-width="0.208519" d="M174.363,-158.459C188.303,-154.029 206.456,-148.916 223,-146.309 425.764,-114.348 948.042,-164.596 1146,-110.309 1166.59,-104.662 1187.63,-94.121 1205.07,-83.8293"/>
<polygon fill="red" stroke="red" stroke-width="0.208519" points="1207.11,-86.6839 1213.83,-78.4972 1203.47,-80.7031 1207.11,-86.6839"/>
</g>
<!-- bias -->
<g id="node22" class="node"><title>bias</title>
<polygon fill="lightgray" stroke="black" points="1043.5,-176.522 1012.5,-176.522 1012.5,-158.522 1043.5,-158.522 1043.5,-176.522"/>
<text text-anchor="middle" x="1028" y="-165.322" font-family="Times,serif" font-size="9.00">bias</text>
</g>
<!-- bias&#45;&gt;Move Forward -->
<g id="edge23" class="edge"><title>bias&#45;&gt;Move Forward</title>
<path fill="none" stroke="red" stroke-width="0.211855" d="M1020.43,-158.507C1015.83,-154.151 1009.58,-149.098 1003,-146.309 882.211,-95.0851 838.513,-136.733 710,-110.309 666.187,-101.3 617.696,-87.0356 581.213,-75.4077"/>
<polygon fill="red" stroke="red" stroke-width="0.211855" points="581.847,-71.9349 571.255,-72.2045 579.703,-78.5986 581.847,-71.9349"/>
</g>
<!-- bias&#45;&gt; Move Backward -->
<g id="edge31" class="edge"><title>bias&#45;&gt; Move Backward</title>
<path fill="none" stroke="green" stroke-width="0.162268" d="M1036.03,-158.161C1040.6,-153.921 1046.66,-149.092 1053,-146.309 1152.56,-102.586 1189.94,-138.349 1295,-110.309 1321.45,-103.248 1349.75,-92.7048 1373.79,-82.7918"/>
<polygon fill="green" stroke="green" stroke-width="0.162268" points="1375.25,-85.975 1383.13,-78.8871 1372.55,-79.5172 1375.25,-85.975"/>
</g>
<!-- bias&#45;&gt;Move Left -->
<g id="edge2" class="edge"><title>bias&#45;&gt;Move Left</title>
<path fill="none" stroke="red" stroke-width="0.354255" d="M1019.93,-158.24C1015.35,-154.023 1009.29,-149.19 1003,-146.309 921.281,-108.886 882.112,-154.772 804,-110.309 797.002,-106.325 790.539,-100.897 784.788,-95.0083"/>
<polygon fill="red" stroke="red" stroke-width="0.354255" points="787.198,-92.4541 777.898,-87.3778 782.002,-97.1454 787.198,-92.4541"/>
</g>
<!-- bias&#45;&gt;Turn Left -->
<g id="edge35" class="edge"><title>bias&#45;&gt;Turn Left</title>
<path fill="none" stroke="green" stroke-width="0.70371" d="M1035.52,-158.405C1040.12,-154.015 1046.37,-148.961 1053,-146.309 1236.83,-72.7978 1301.57,-141.969 1497,-110.309 1559.41,-100.199 1630.15,-81.566 1674.42,-69.017"/>
<polygon fill="green" stroke="green" stroke-width="0.70371" points="1675.62,-72.3158 1684.27,-66.2021 1673.69,-65.5854 1675.62,-72.3158"/>
</g>
<!-- 303&#45;&gt;Shoot -->
<g id="edge79" class="edge"><title>303&#45;&gt;Shoot</title>
<path fill="none" stroke="red" stroke-width="0.187497" d="M268.988,-153.521C273.301,-150.657 278.13,-147.982 283,-146.309 392.756,-108.598 703.666,-168.632 804,-110.309 812.62,-105.298 819.578,-97.2985 824.993,-88.9695"/>
<polygon fill="red" stroke="red" stroke-width="0.187497" points="828.048,-90.6791 830.084,-80.2817 822.009,-87.1402 828.048,-90.6791"/>
</g>
</g>
</svg>
