<?xml version="1.0" encoding="UTF-8" standalone="no"?>
<!DOCTYPE svg PUBLIC "-//W3C//DTD SVG 1.1//EN"
 "http://www.w3.org/Graphics/SVG/1.1/DTD/svg11.dtd">
<!-- Generated by graphviz version 2.38.0 (20140413.2041)
 -->
<!-- Title: %3 Pages: 1 -->
<svg width="2403pt" height="245pt"
 viewBox="0.00 0.00 2403.45 245.08" xmlns="http://www.w3.org/2000/svg" xmlns:xlink="http://www.w3.org/1999/xlink">
<g id="graph0" class="graph" transform="scale(1 1) rotate(0) translate(4 241.078)">
<title>%3</title>
<polygon fill="white" stroke="none" points="-4,4 -4,-241.078 2399.45,-241.078 2399.45,4 -4,4"/>
<!-- wallRadar[1,0] -->
<g id="node1" class="node"><title>wallRadar[1,0]</title>
<polygon fill="lightgray" stroke="black" points="87.2006,-173.693 17.2006,-173.693 17.2006,-155.693 87.2006,-155.693 87.2006,-173.693"/>
<text text-anchor="middle" x="52.2006" y="-162.493" font-family="Times,serif" font-size="9.00">wallRadar[1,0]</text>
</g>
<!-- Move Left -->
<g id="node26" class="node"><title>Move Left</title>
<ellipse fill="lightblue" stroke="black" cx="521.201" cy="-55.1543" rx="38.3684" ry="38.3684"/>
<text text-anchor="middle" x="521.201" y="-52.9543" font-family="Times,serif" font-size="9.00">Move Left</text>
</g>
<!-- wallRadar[1,0]&#45;&gt;Move Left -->
<g id="edge68" class="edge"><title>wallRadar[1,0]&#45;&gt;Move Left</title>
<path fill="none" stroke="red" stroke-width="0.134623" d="M70.7987,-155.546C78.549,-152.362 87.7072,-148.868 96.2006,-146.309 230.459,-105.856 393.846,-76.6129 473.256,-63.6317"/>
<polygon fill="red" stroke="red" stroke-width="0.134623" points="474.122,-67.037 483.434,-61.9821 473.002,-60.1272 474.122,-67.037"/>
</g>
<!-- wallRadar[0,1] -->
<g id="node2" class="node"><title>wallRadar[0,1]</title>
<polygon fill="lightgray" stroke="black" points="1097.2,-173.693 1027.2,-173.693 1027.2,-155.693 1097.2,-155.693 1097.2,-173.693"/>
<text text-anchor="middle" x="1062.2" y="-162.493" font-family="Times,serif" font-size="9.00">wallRadar[0,1]</text>
</g>
<!-- Shoot -->
<g id="node23" class="node"><title>Shoot</title>
<ellipse fill="lightblue" stroke="black" cx="1417.2" cy="-55.1543" rx="26.7407" ry="26.7407"/>
<text text-anchor="middle" x="1417.2" y="-52.9543" font-family="Times,serif" font-size="9.00">Shoot</text>
</g>
<!-- wallRadar[0,1]&#45;&gt;Shoot -->
<g id="edge53" class="edge"><title>wallRadar[0,1]&#45;&gt;Shoot</title>
<path fill="none" stroke="green" stroke-width="0.21471" stroke-dasharray="1,5" d="M1080.74,-155.541C1088.75,-152.279 1098.31,-148.729 1107.2,-146.309 1202.38,-120.398 1233.54,-144.12 1326.2,-110.309 1347.97,-102.367 1370.36,-89.119 1387.48,-77.7149"/>
<polygon fill="green" stroke="green" stroke-width="0.21471" points="1389.64,-80.4827 1395.93,-71.9571 1385.69,-74.6993 1389.64,-80.4827"/>
</g>
<!--  Move Backward -->
<g id="node25" class="node"><title> Move Backward</title>
<ellipse fill="lightblue" stroke="black" cx="1589.2" cy="-55.1543" rx="55.3091" ry="55.3091"/>
<text text-anchor="middle" x="1589.2" y="-52.9543" font-family="Times,serif" font-size="9.00"> Move Backward</text>
</g>
<!-- wallRadar[0,1]&#45;&gt; Move Backward -->
<g id="edge47" class="edge"><title>wallRadar[0,1]&#45;&gt; Move Backward</title>
<path fill="none" stroke="green" stroke-width="0.554636" d="M1079.81,-155.643C1087.98,-152.234 1097.92,-148.543 1107.2,-146.309 1257.52,-110.134 1303.07,-147.256 1453.2,-110.309 1479.12,-103.93 1506.66,-93.6698 1530.13,-83.7868"/>
<polygon fill="green" stroke="green" stroke-width="0.554636" points="1531.78,-86.8909 1539.59,-79.7345 1529.02,-80.4569 1531.78,-86.8909"/>
</g>
<!-- wallRadar[0,1]&#45;&gt;Move Left -->
<g id="edge35" class="edge"><title>wallRadar[0,1]&#45;&gt;Move Left</title>
<path fill="none" stroke="red" stroke-width="0.206289" d="M1044.99,-155.671C1037.01,-152.269 1027.29,-148.574 1018.2,-146.309 879.76,-111.794 838.924,-139.194 699.201,-110.309 653.227,-100.805 602.084,-84.6376 566.458,-72.4362"/>
<polygon fill="red" stroke="red" stroke-width="0.206289" points="567.433,-69.0701 556.838,-69.1088 565.144,-75.6855 567.433,-69.0701"/>
</g>
<!-- Turn Left -->
<g id="node28" class="node"><title>Turn Left</title>
<ellipse fill="lightblue" stroke="black" cx="966.201" cy="-55.1543" rx="35.2113" ry="35.2113"/>
<text text-anchor="middle" x="966.201" y="-52.9543" font-family="Times,serif" font-size="9.00">Turn Left</text>
</g>
<!-- wallRadar[0,1]&#45;&gt;Turn Left -->
<g id="edge24" class="edge"><title>wallRadar[0,1]&#45;&gt;Turn Left</title>
<path fill="none" stroke="red" stroke-width="0.391391" d="M1054.99,-155.611C1042.68,-141.83 1016.98,-113.041 996.385,-89.9667"/>
<polygon fill="red" stroke="red" stroke-width="0.391391" points="998.892,-87.5196 989.622,-82.3904 993.67,-92.1812 998.892,-87.5196"/>
</g>
<!-- wallRadar[&#45;1,0] -->
<g id="node3" class="node"><title>wallRadar[&#45;1,0]</title>
<polygon fill="lightgray" stroke="black" points="708.701,-173.693 635.701,-173.693 635.701,-155.693 708.701,-155.693 708.701,-173.693"/>
<text text-anchor="middle" x="672.201" y="-162.493" font-family="Times,serif" font-size="9.00">wallRadar[&#45;1,0]</text>
</g>
<!-- wallRadar[&#45;1,0]&#45;&gt;Shoot -->
<g id="edge23" class="edge"><title>wallRadar[&#45;1,0]&#45;&gt;Shoot</title>
<path fill="none" stroke="green" stroke-width="0.189811" d="M689.736,-155.637C698.162,-152.139 708.515,-148.375 718.201,-146.309 982.936,-89.8162 1067.43,-189.781 1326.2,-110.309 1348.5,-103.46 1371.05,-90.0972 1388.12,-78.3596"/>
<polygon fill="green" stroke="green" stroke-width="0.189811" points="1390.38,-81.048 1396.52,-72.4129 1386.34,-75.335 1390.38,-81.048"/>
</g>
<!-- Move right -->
<g id="node27" class="node"><title>Move right</title>
<ellipse fill="lightblue" stroke="black" cx="748.201" cy="-55.1543" rx="39.6962" ry="39.6962"/>
<text text-anchor="middle" x="748.201" y="-52.9543" font-family="Times,serif" font-size="9.00">Move right</text>
</g>
<!-- wallRadar[&#45;1,0]&#45;&gt;Move right -->
<g id="edge70" class="edge"><title>wallRadar[&#45;1,0]&#45;&gt;Move right</title>
<path fill="none" stroke="green" stroke-width="0.489609" d="M677.913,-155.611C686.79,-143.05 704.48,-118.018 719.891,-96.2115"/>
<polygon fill="green" stroke="green" stroke-width="0.489609" points="722.75,-98.2309 725.663,-88.0444 717.034,-94.1909 722.75,-98.2309"/>
</g>
<!-- wallRadar[&#45;1,0]&#45;&gt;Turn Left -->
<g id="edge9" class="edge"><title>wallRadar[&#45;1,0]&#45;&gt;Turn Left</title>
<path fill="none" stroke="green" stroke-width="0.565692" d="M693.248,-155.675C701.074,-152.71 710.035,-149.336 718.201,-146.309 790.084,-119.661 873.961,-89.3281 923.435,-71.5148"/>
<polygon fill="green" stroke="green" stroke-width="0.565692" points="924.633,-74.8034 932.858,-68.1239 922.263,-68.2169 924.633,-74.8034"/>
</g>
<!-- wallRadar[0,&#45;1] -->
<g id="node4" class="node"><title>wallRadar[0,&#45;1]</title>
<polygon fill="lightgray" stroke="black" points="1623.7,-173.693 1550.7,-173.693 1550.7,-155.693 1623.7,-155.693 1623.7,-173.693"/>
<text text-anchor="middle" x="1587.2" y="-162.493" font-family="Times,serif" font-size="9.00">wallRadar[0,&#45;1]</text>
</g>
<!-- wallRadar[0,&#45;1]&#45;&gt;Shoot -->
<g id="edge37" class="edge"><title>wallRadar[0,&#45;1]&#45;&gt;Shoot</title>
<path fill="none" stroke="green" stroke-width="0.231604" d="M1574.42,-155.611C1547.83,-138.788 1485.88,-99.5984 1448.17,-75.7427"/>
<polygon fill="green" stroke="green" stroke-width="0.231604" points="1449.92,-72.7085 1439.59,-70.3203 1446.17,-78.6242 1449.92,-72.7085"/>
</g>
<!-- Move Forward -->
<g id="node24" class="node"><title>Move Forward</title>
<ellipse fill="lightblue" stroke="black" cx="1896.2" cy="-55.1543" rx="50.41" ry="50.41"/>
<text text-anchor="middle" x="1896.2" y="-52.9543" font-family="Times,serif" font-size="9.00">Move Forward</text>
</g>
<!-- wallRadar[0,&#45;1]&#45;&gt;Move Forward -->
<g id="edge27" class="edge"><title>wallRadar[0,&#45;1]&#45;&gt;Move Forward</title>
<path fill="none" stroke="green" stroke-width="0.289086" d="M1608.22,-155.593C1616.04,-152.62 1625.01,-149.26 1633.2,-146.309 1703.74,-120.897 1785.5,-93.1312 1838.9,-75.2242"/>
<polygon fill="green" stroke="green" stroke-width="0.289086" points="1840.16,-78.4931 1848.53,-71.9981 1837.94,-71.8555 1840.16,-78.4931"/>
</g>
<!-- wallRadar[0,&#45;1]&#45;&gt;Move Left -->
<g id="edge36" class="edge"><title>wallRadar[0,&#45;1]&#45;&gt;Move Left</title>
<path fill="none" stroke="green" stroke-width="0.348943" d="M1569.68,-155.565C1561.26,-152.052 1550.9,-148.296 1541.2,-146.309 1174.25,-71.1481 1068.43,-173.322 699.201,-110.309 652.924,-102.411 601.822,-86.0264 566.288,-73.3368"/>
<polygon fill="green" stroke="green" stroke-width="0.348943" points="567.289,-69.9772 556.695,-69.8658 564.908,-76.5596 567.289,-69.9772"/>
</g>
<!-- Turn Right -->
<g id="node29" class="node"><title>Turn Right</title>
<ellipse fill="lightblue" stroke="black" cx="1277.2" cy="-55.1543" rx="39.6962" ry="39.6962"/>
<text text-anchor="middle" x="1277.2" y="-52.9543" font-family="Times,serif" font-size="9.00">Turn Right</text>
</g>
<!-- wallRadar[0,&#45;1]&#45;&gt;Turn Right -->
<g id="edge30" class="edge"><title>wallRadar[0,&#45;1]&#45;&gt;Turn Right</title>
<path fill="none" stroke="red" stroke-width="0.1233" d="M1567.71,-155.636C1559.6,-152.465 1550.03,-148.957 1541.2,-146.309 1471.38,-125.373 1449.65,-135.35 1381.2,-110.309 1360.17,-102.616 1338.01,-91.5353 1319.58,-81.3989"/>
<polygon fill="red" stroke="red" stroke-width="0.1233" points="1321.28,-78.3433 1310.85,-76.5176 1317.87,-84.453 1321.28,-78.3433"/>
</g>
<!-- wallRadar[0.7,0.7] -->
<g id="node5" class="node"><title>wallRadar[0.7,0.7]</title>
<polygon fill="lightgray" stroke="black" points="861.701,-237.078 778.701,-237.078 778.701,-219.078 861.701,-219.078 861.701,-237.078"/>
<text text-anchor="middle" x="820.201" y="-225.878" font-family="Times,serif" font-size="9.00">wallRadar[0.7,0.7]</text>
</g>
<!-- wallRadar[0.7,0.7]&#45;&gt;Move Forward -->
<g id="edge17" class="edge"><title>wallRadar[0.7,0.7]&#45;&gt;Move Forward</title>
<path fill="none" stroke="green" stroke-width="0.296973" d="M861.728,-226.704C1107.32,-224.392 2359.82,-211.234 2387.2,-183.078 2398.59,-171.362 2397.66,-158.864 2387.2,-146.309 2333.03,-81.2831 2075.73,-63.0021 1956.77,-57.9889"/>
<polygon fill="green" stroke="green" stroke-width="0.296973" points="1956.87,-54.4899 1946.73,-57.5835 1956.58,-61.4842 1956.87,-54.4899"/>
</g>
<!-- wallRadar[0.7,0.7]&#45;&gt;Move Left -->
<g id="edge57" class="edge"><title>wallRadar[0.7,0.7]&#45;&gt;Move Left</title>
<path fill="none" stroke="red" stroke-width="0.236117" d="M778.681,-226.395C616.713,-223.528 34.9308,-211.296 8.20064,-183.078 -3.03795,-171.214 -2.30738,-158.824 8.20064,-146.309 67.394,-75.8055 356.93,-60.4218 472.968,-57.078"/>
<polygon fill="red" stroke="red" stroke-width="0.236117" points="473.088,-60.5761 482.99,-56.8069 472.899,-53.5787 473.088,-60.5761"/>
</g>
<!-- wallRadar[0.7,0.7]&#45;&gt;Turn Left -->
<g id="edge10" class="edge"><title>wallRadar[0.7,0.7]&#45;&gt;Turn Left</title>
<path fill="none" stroke="green" stroke-width="0.125039" stroke-dasharray="1,5" d="M832.615,-218.891C844.556,-210.672 862.731,-197.227 876.201,-183.078 902.055,-155.921 926.332,-120.898 943.141,-94.5235"/>
<polygon fill="green" stroke="green" stroke-width="0.125039" points="946.182,-96.2622 948.547,-85.9346 940.258,-92.5335 946.182,-96.2622"/>
</g>
<!-- 61 -->
<g id="node30" class="node"><title>61</title>
<ellipse fill="white" stroke="black" cx="745.201" cy="-164.693" rx="18.2703" ry="18.2703"/>
<text text-anchor="middle" x="745.201" y="-162.493" font-family="Times,serif" font-size="9.00">61</text>
</g>
<!-- wallRadar[0.7,0.7]&#45;&gt;61 -->
<g id="edge79" class="edge"><title>wallRadar[0.7,0.7]&#45;&gt;61</title>
<path fill="none" stroke="green" stroke-width="0.115926" d="M810.396,-219.053C799.442,-210.088 781.366,-195.294 767.023,-183.554"/>
<polygon fill="green" stroke="green" stroke-width="0.115926" points="769.046,-180.687 759.091,-177.062 764.612,-186.104 769.046,-180.687"/>
</g>
<!-- wallRadar[&#45;0.7,0.7] -->
<g id="node6" class="node"><title>wallRadar[&#45;0.7,0.7]</title>
<polygon fill="lightgray" stroke="black" points="2378.2,-173.693 2292.2,-173.693 2292.2,-155.693 2378.2,-155.693 2378.2,-173.693"/>
<text text-anchor="middle" x="2335.2" y="-162.493" font-family="Times,serif" font-size="9.00">wallRadar[&#45;0.7,0.7]</text>
</g>
<!-- wallRadar[&#45;0.7,0.7]&#45;&gt;Move Forward -->
<g id="edge2" class="edge"><title>wallRadar[&#45;0.7,0.7]&#45;&gt;Move Forward</title>
<path fill="none" stroke="green" stroke-width="0.153711" d="M2312.56,-155.612C2303.49,-152.509 2292.91,-149.056 2283.2,-146.309 2168.22,-113.772 2031.65,-83.9892 1955.35,-68.131"/>
<polygon fill="green" stroke="green" stroke-width="0.153711" points="1955.95,-64.6805 1945.45,-66.0802 1954.53,-71.5351 1955.95,-64.6805"/>
</g>
<!-- wallRadar[&#45;0.7,0.7]&#45;&gt; Move Backward -->
<g id="edge34" class="edge"><title>wallRadar[&#45;0.7,0.7]&#45;&gt; Move Backward</title>
<path fill="none" stroke="red" stroke-width="0.470484" d="M2314.77,-155.586C2305.31,-152.167 2293.83,-148.481 2283.2,-146.309 2088.36,-106.49 2033.9,-139.588 1837.2,-110.309 1773.79,-100.869 1702.36,-84.6701 1652.5,-72.4421"/>
<polygon fill="red" stroke="red" stroke-width="0.470484" points="1653.06,-68.9753 1642.52,-69.9748 1651.38,-75.771 1653.06,-68.9753"/>
</g>
<!-- wallRadar[&#45;0.7,0.7]&#45;&gt;Move Left -->
<g id="edge61" class="edge"><title>wallRadar[&#45;0.7,0.7]&#45;&gt;Move Left</title>
<path fill="none" stroke="red" stroke-width="0.304106" d="M2315.81,-155.667C2306.18,-152.083 2294.27,-148.239 2283.2,-146.309 1936.35,-85.8106 1046.85,-166.067 699.201,-110.309 652.848,-102.874 601.755,-86.427 566.245,-73.5965"/>
<polygon fill="red" stroke="red" stroke-width="0.304106" points="567.253,-70.2384 556.659,-70.0841 564.844,-76.811 567.253,-70.2384"/>
</g>
<!-- wallRadar[&#45;0.7,&#45;0.7] -->
<g id="node7" class="node"><title>wallRadar[&#45;0.7,&#45;0.7]</title>
<polygon fill="lightgray" stroke="black" points="617.701,-173.693 528.701,-173.693 528.701,-155.693 617.701,-155.693 617.701,-173.693"/>
<text text-anchor="middle" x="573.201" y="-162.493" font-family="Times,serif" font-size="9.00">wallRadar[&#45;0.7,&#45;0.7]</text>
</g>
<!-- wallRadar[&#45;0.7,&#45;0.7]&#45;&gt;Move Left -->
<g id="edge1" class="edge"><title>wallRadar[&#45;0.7,&#45;0.7]&#45;&gt;Move Left</title>
<path fill="none" stroke="green" stroke-width="0.402251" d="M569.292,-155.611C563.49,-143.611 552.185,-120.232 541.993,-99.1552"/>
<polygon fill="green" stroke="green" stroke-width="0.402251" points="545.068,-97.4727 537.563,-89.9936 538.766,-100.52 545.068,-97.4727"/>
</g>
<!-- wallRadar[&#45;0.7,&#45;0.7]&#45;&gt;Move right -->
<g id="edge63" class="edge"><title>wallRadar[&#45;0.7,&#45;0.7]&#45;&gt;Move right</title>
<path fill="none" stroke="red" stroke-width="0.297088" d="M586.354,-155.611C611.48,-140.17 667.269,-105.887 706.284,-81.9127"/>
<polygon fill="red" stroke="red" stroke-width="0.297088" points="708.14,-84.8801 714.827,-76.6625 704.475,-78.9161 708.14,-84.8801"/>
</g>
<!-- wallRadar[&#45;0.7,&#45;0.7]&#45;&gt;Turn Left -->
<g id="edge12" class="edge"><title>wallRadar[&#45;0.7,&#45;0.7]&#45;&gt;Turn Left</title>
<path fill="none" stroke="red" stroke-width="0.178699" d="M596.436,-155.635C605.912,-152.5 617.017,-149.019 627.201,-146.309 701.835,-126.449 722.553,-130.118 797.201,-110.309 840.702,-98.7647 889.586,-82.7619 923.545,-71.1478"/>
<polygon fill="red" stroke="red" stroke-width="0.178699" points="924.828,-74.4078 933.146,-67.8453 922.551,-67.7885 924.828,-74.4078"/>
</g>
<!-- wallRadar[&#45;0.7,&#45;0.7]&#45;&gt;Turn Right -->
<g id="edge19" class="edge"><title>wallRadar[&#45;0.7,&#45;0.7]&#45;&gt;Turn Right</title>
<path fill="none" stroke="green" stroke-width="0.466955" d="M594.461,-155.666C604.291,-152.262 616.203,-148.568 627.201,-146.309 794.677,-111.908 841.07,-135.337 1010.2,-110.309 1087.12,-98.9256 1175.36,-79.8284 1228.66,-67.6198"/>
<polygon fill="green" stroke="green" stroke-width="0.466955" points="1229.56,-71.0047 1238.52,-65.349 1227.99,-64.1834 1229.56,-71.0047"/>
</g>
<!-- wallRadar[0.7,&#45;0.7] -->
<g id="node8" class="node"><title>wallRadar[0.7,&#45;0.7]</title>
<polygon fill="lightgray" stroke="black" points="867.201,-173.693 781.201,-173.693 781.201,-155.693 867.201,-155.693 867.201,-173.693"/>
<text text-anchor="middle" x="824.201" y="-162.493" font-family="Times,serif" font-size="9.00">wallRadar[0.7,&#45;0.7]</text>
</g>
<!-- wallRadar[0.7,&#45;0.7]&#45;&gt; Move Backward -->
<g id="edge51" class="edge"><title>wallRadar[0.7,&#45;0.7]&#45;&gt; Move Backward</title>
<path fill="none" stroke="red" stroke-width="0.468041" d="M860.381,-155.641C876.741,-152.275 896.367,-148.618 914.201,-146.309 1152.3,-115.482 1219.05,-163.364 1453.2,-110.309 1479.23,-104.41 1506.8,-94.2363 1530.25,-84.288"/>
<polygon fill="red" stroke="red" stroke-width="0.468041" points="1531.91,-87.3839 1539.7,-80.2006 1529.13,-80.9594 1531.91,-87.3839"/>
</g>
<!-- wallRadar[0.7,&#45;0.7]&#45;&gt;Move right -->
<g id="edge14" class="edge"><title>wallRadar[0.7,&#45;0.7]&#45;&gt;Move right</title>
<path fill="none" stroke="green" stroke-width="0.229562" d="M818.488,-155.611C809.611,-143.05 791.921,-118.018 776.51,-96.2115"/>
<polygon fill="green" stroke="green" stroke-width="0.229562" points="779.368,-94.1909 770.738,-88.0444 773.651,-98.2309 779.368,-94.1909"/>
</g>
<!-- wallRadar[0.7,&#45;0.7]&#45;&gt;Turn Left -->
<g id="edge46" class="edge"><title>wallRadar[0.7,&#45;0.7]&#45;&gt;Turn Left</title>
<path fill="none" stroke="red" stroke-width="0.371551" d="M834.874,-155.611C854.827,-140.5 898.612,-107.341 930.145,-83.4597"/>
<polygon fill="red" stroke="red" stroke-width="0.371551" points="932.421,-86.1268 938.28,-77.2993 928.195,-80.5465 932.421,-86.1268"/>
</g>
<!-- enemyRadar[RightBack] -->
<g id="node9" class="node"><title>enemyRadar[RightBack]</title>
<polygon fill="lightgray" stroke="black" points="1532.2,-173.693 1428.2,-173.693 1428.2,-155.693 1532.2,-155.693 1532.2,-173.693"/>
<text text-anchor="middle" x="1480.2" y="-162.493" font-family="Times,serif" font-size="9.00">enemyRadar[RightBack]</text>
</g>
<!-- enemyRadar[RightBack]&#45;&gt;Shoot -->
<g id="edge15" class="edge"><title>enemyRadar[RightBack]&#45;&gt;Shoot</title>
<path fill="none" stroke="red" stroke-width="0.104334" d="M1475.47,-155.611C1467.13,-141.38 1449.42,-111.144 1435.7,-87.7237"/>
<polygon fill="red" stroke="red" stroke-width="0.104334" points="1438.55,-85.6699 1430.47,-78.8107 1432.51,-89.2083 1438.55,-85.6699"/>
</g>
<!-- enemyRadar[RightBack]&#45;&gt; Move Backward -->
<g id="edge29" class="edge"><title>enemyRadar[RightBack]&#45;&gt; Move Backward</title>
<path fill="none" stroke="green" stroke-width="0.269244" d="M1488.39,-155.611C1500.09,-144.075 1522.44,-122.022 1543.13,-101.608"/>
<polygon fill="green" stroke="green" stroke-width="0.269244" points="1545.7,-103.99 1550.36,-94.4756 1540.78,-99.0073 1545.7,-103.99"/>
</g>
<!-- enemyRadar[RightBack]&#45;&gt;Turn Left -->
<g id="edge11" class="edge"><title>enemyRadar[RightBack]&#45;&gt;Turn Left</title>
<path fill="none" stroke="red" stroke-width="0.436765" d="M1453.92,-155.634C1443.21,-152.499 1430.67,-149.017 1419.2,-146.309 1335.13,-126.45 1312.95,-127.052 1228.2,-110.309 1151.73,-95.2009 1062.94,-76.6296 1010.83,-65.6275"/>
<polygon fill="red" stroke="red" stroke-width="0.436765" points="1011.42,-62.1751 1000.91,-63.5313 1009.97,-69.0237 1011.42,-62.1751"/>
</g>
<!-- enemyRadar[RightBack]&#45;&gt;Turn Right -->
<g id="edge67" class="edge"><title>enemyRadar[RightBack]&#45;&gt;Turn Right</title>
<path fill="none" stroke="red" stroke-width="0.170345" d="M1464.94,-155.611C1434.75,-139.616 1366.39,-103.402 1321.03,-79.3718"/>
<polygon fill="red" stroke="red" stroke-width="0.170345" points="1322.48,-76.1778 1312,-74.5894 1319.2,-82.3635 1322.48,-76.1778"/>
</g>
<!-- enemyRadar[LeftBack] -->
<g id="node10" class="node"><title>enemyRadar[LeftBack]</title>
<polygon fill="lightgray" stroke="black" points="2008.7,-173.693 1909.7,-173.693 1909.7,-155.693 2008.7,-155.693 2008.7,-173.693"/>
<text text-anchor="middle" x="1959.2" y="-162.493" font-family="Times,serif" font-size="9.00">enemyRadar[LeftBack]</text>
</g>
<!-- enemyRadar[LeftBack]&#45;&gt;Shoot -->
<g id="edge78" class="edge"><title>enemyRadar[LeftBack]&#45;&gt;Shoot</title>
<path fill="none" stroke="red" stroke-width="0.275364" d="M1936.04,-155.616C1925.52,-152.246 1912.86,-148.591 1901.2,-146.309 1736.45,-114.054 1686.53,-156.722 1525.2,-110.309 1497.81,-102.428 1469.07,-87.6549 1448.12,-75.5268"/>
<polygon fill="red" stroke="red" stroke-width="0.275364" points="1449.76,-72.427 1439.37,-70.3473 1446.19,-78.4516 1449.76,-72.427"/>
</g>
<!-- enemyRadar[LeftBack]&#45;&gt;Move Forward -->
<g id="edge50" class="edge"><title>enemyRadar[LeftBack]&#45;&gt;Move Forward</title>
<path fill="none" stroke="red" stroke-width="0.158948" d="M1954.47,-155.611C1948.36,-145.195 1937.24,-126.205 1926.33,-107.589"/>
<polygon fill="red" stroke="red" stroke-width="0.158948" points="1929.26,-105.667 1921.19,-98.8075 1923.22,-109.205 1929.26,-105.667"/>
</g>
<!-- enemyRadar[LeftBack]&#45;&gt; Move Backward -->
<g id="edge62" class="edge"><title>enemyRadar[LeftBack]&#45;&gt; Move Backward</title>
<path fill="none" stroke="red" stroke-width="0.308846" stroke-dasharray="1,5" d="M1932.65,-155.676C1922.78,-152.711 1911.49,-149.336 1901.2,-146.309 1814.82,-120.883 1714.79,-92.0937 1651.76,-74.0331"/>
<polygon fill="red" stroke="red" stroke-width="0.308846" points="1652.54,-70.6178 1641.97,-71.2288 1650.62,-77.3472 1652.54,-70.6178"/>
</g>
<!-- enemyRadar[LeftBack]&#45;&gt;Turn Left -->
<g id="edge32" class="edge"><title>enemyRadar[LeftBack]&#45;&gt;Turn Left</title>
<path fill="none" stroke="green" stroke-width="0.352119" d="M1936.91,-155.658C1926.25,-152.165 1913.21,-148.4 1901.2,-146.309 1606.1,-94.9447 1525.26,-148.733 1228.2,-110.309 1150.68,-100.282 1061.87,-80.0369 1010.1,-67.3401"/>
<polygon fill="green" stroke="green" stroke-width="0.352119" points="1010.8,-63.9086 1000.26,-64.9066 1009.12,-70.7041 1010.8,-63.9086"/>
</g>
<!-- enemyRadar[LeftBack]&#45;&gt;Turn Right -->
<g id="edge40" class="edge"><title>enemyRadar[LeftBack]&#45;&gt;Turn Right</title>
<path fill="none" stroke="red" stroke-width="0.212182" d="M1936.62,-155.653C1926.01,-152.203 1913.09,-148.475 1901.2,-146.309 1673.29,-104.796 1604.19,-173.127 1381.2,-110.309 1359.48,-104.189 1337.07,-93.2143 1318.64,-82.7368"/>
<polygon fill="red" stroke="red" stroke-width="0.212182" points="1320.33,-79.6729 1309.93,-77.6567 1316.8,-85.7191 1320.33,-79.6729"/>
</g>
<!-- enemyRadar[Right] -->
<g id="node11" class="node"><title>enemyRadar[Right]</title>
<polygon fill="lightgray" stroke="black" points="1009.2,-173.693 923.201,-173.693 923.201,-155.693 1009.2,-155.693 1009.2,-173.693"/>
<text text-anchor="middle" x="966.201" y="-162.493" font-family="Times,serif" font-size="9.00">enemyRadar[Right]</text>
</g>
<!-- enemyRadar[Right]&#45;&gt; Move Backward -->
<g id="edge74" class="edge"><title>enemyRadar[Right]&#45;&gt; Move Backward</title>
<path fill="none" stroke="red" stroke-width="0.170981" d="M986.638,-155.596C996.097,-152.179 1007.57,-148.492 1018.2,-146.309 1208.23,-107.273 1264.35,-154.678 1453.2,-110.309 1479.19,-104.204 1506.74,-93.9927 1530.2,-84.0725"/>
<polygon fill="red" stroke="red" stroke-width="0.170981" points="1531.86,-87.172 1539.65,-80.0002 1529.08,-80.7434 1531.86,-87.172"/>
</g>
<!-- enemyRadar[Right]&#45;&gt;Move Left -->
<g id="edge58" class="edge"><title>enemyRadar[Right]&#45;&gt;Move Left</title>
<path fill="none" stroke="green" stroke-width="0.146426" stroke-dasharray="1,5" d="M924.808,-155.649C855.355,-142.117 720.805,-115.741 699.201,-110.309 653.816,-98.8967 602.79,-83.057 567.045,-71.4562"/>
<polygon fill="green" stroke="green" stroke-width="0.146426" points="567.978,-68.079 557.385,-68.3038 565.806,-74.7336 567.978,-68.079"/>
</g>
<!-- enemyRadar[Right]&#45;&gt;Turn Left -->
<g id="edge33" class="edge"><title>enemyRadar[Right]&#45;&gt;Turn Left</title>
<path fill="none" stroke="red" stroke-width="0.180561" d="M966.201,-155.611C966.201,-143.994 966.201,-121.711 966.201,-101.177"/>
<polygon fill="red" stroke="red" stroke-width="0.180561" points="969.701,-100.979 966.201,-90.9787 962.701,-100.979 969.701,-100.979"/>
</g>
<!-- enemyRadar[Right]&#45;&gt;Turn Right -->
<g id="edge26" class="edge"><title>enemyRadar[Right]&#45;&gt;Turn Right</title>
<path fill="none" stroke="green" stroke-width="0.472777" d="M989.576,-155.611C1040.61,-137.965 1162.8,-95.7115 1230.34,-72.3569"/>
<polygon fill="green" stroke="green" stroke-width="0.472777" points="1231.59,-75.6293 1239.9,-69.0534 1229.3,-69.0136 1231.59,-75.6293"/>
</g>
<!-- enemyRadar[Left] -->
<g id="node12" class="node"><title>enemyRadar[Left]</title>
<polygon fill="lightgray" stroke="black" points="510.701,-173.693 429.701,-173.693 429.701,-155.693 510.701,-155.693 510.701,-173.693"/>
<text text-anchor="middle" x="470.201" y="-162.493" font-family="Times,serif" font-size="9.00">enemyRadar[Left]</text>
</g>
<!-- enemyRadar[Left]&#45;&gt;Move Left -->
<g id="edge42" class="edge"><title>enemyRadar[Left]&#45;&gt;Move Left</title>
<path fill="none" stroke="green" stroke-width="0.22052" d="M474.034,-155.611C479.724,-143.611 490.812,-120.232 500.808,-99.1552"/>
<polygon fill="green" stroke="green" stroke-width="0.22052" points="504.03,-100.529 505.153,-89.9936 497.705,-97.5292 504.03,-100.529"/>
</g>
<!-- enemyRadar[Left]&#45;&gt;Move right -->
<g id="edge7" class="edge"><title>enemyRadar[Left]&#45;&gt;Move right</title>
<path fill="none" stroke="green" stroke-width="0.245421" d="M491.096,-155.611C535.684,-138.362 641.06,-97.5998 702.169,-73.961"/>
<polygon fill="green" stroke="green" stroke-width="0.245421" points="703.516,-77.1924 711.58,-70.3203 700.991,-70.6639 703.516,-77.1924"/>
</g>
<!-- enemyRadar[Left]&#45;&gt;Turn Left -->
<g id="edge52" class="edge"><title>enemyRadar[Left]&#45;&gt;Turn Left</title>
<path fill="none" stroke="red" stroke-width="0.254337" d="M489.938,-155.613C498.761,-152.283 509.369,-148.661 519.201,-146.309 640.368,-117.317 675.601,-137.429 797.201,-110.309 841.128,-100.511 889.952,-84.2619 923.781,-72.1139"/>
<polygon fill="red" stroke="red" stroke-width="0.254337" points="925.134,-75.3463 933.341,-68.6465 922.747,-68.7657 925.134,-75.3463"/>
</g>
<!-- enemyRadar[Left]&#45;&gt;Turn Right -->
<g id="edge54" class="edge"><title>enemyRadar[Left]&#45;&gt;Turn Right</title>
<path fill="none" stroke="red" stroke-width="0.132803" d="M489.409,-155.533C498.312,-152.103 509.13,-148.424 519.201,-146.309 733.335,-101.325 793.432,-140.116 1010.2,-110.309 1087.24,-99.7158 1175.44,-80.3938 1228.7,-67.9233"/>
<polygon fill="red" stroke="red" stroke-width="0.132803" points="1229.62,-71.3026 1238.55,-65.6017 1228.02,-64.4893 1229.62,-71.3026"/>
</g>
<!-- enemyRadar[RightFront30] -->
<g id="node13" class="node"><title>enemyRadar[RightFront30]</title>
<polygon fill="lightgray" stroke="black" points="1279.7,-173.693 1164.7,-173.693 1164.7,-155.693 1279.7,-155.693 1279.7,-173.693"/>
<text text-anchor="middle" x="1222.2" y="-162.493" font-family="Times,serif" font-size="9.00">enemyRadar[RightFront30]</text>
</g>
<!-- enemyRadar[RightFront30]&#45;&gt;Shoot -->
<g id="edge73" class="edge"><title>enemyRadar[RightFront30]&#45;&gt;Shoot</title>
<path fill="none" stroke="green" stroke-width="0.381026" d="M1238.58,-155.682C1259.21,-145.501 1295.66,-127.214 1326.2,-110.309 1346.34,-99.1639 1368.54,-85.9698 1385.97,-75.3953"/>
<polygon fill="green" stroke="green" stroke-width="0.381026" points="1387.9,-78.3203 1394.62,-70.129 1384.26,-72.3421 1387.9,-78.3203"/>
</g>
<!-- enemyRadar[RightFront30]&#45;&gt;Move Forward -->
<g id="edge72" class="edge"><title>enemyRadar[RightFront30]&#45;&gt;Move Forward</title>
<path fill="none" stroke="green" stroke-width="0.525319" d="M1249.37,-155.62C1261.47,-152.291 1275.95,-148.668 1289.2,-146.309 1449.25,-117.808 1492.68,-136.036 1653.2,-110.309 1716.88,-100.102 1788.89,-83.3942 1837.88,-71.2324"/>
<polygon fill="green" stroke="green" stroke-width="0.525319" points="1838.81,-74.6068 1847.66,-68.7871 1837.11,-67.8156 1838.81,-74.6068"/>
</g>
<!-- enemyRadar[RightFront30]&#45;&gt;Move right -->
<g id="edge31" class="edge"><title>enemyRadar[RightFront30]&#45;&gt;Move right</title>
<path fill="none" stroke="green" stroke-width="0.612994" d="M1194.42,-155.682C1182.69,-152.481 1168.85,-148.939 1156.2,-146.309 1053.18,-124.878 1024.72,-134.009 922.201,-110.309 878.575,-100.223 830.004,-84.7374 795.29,-72.9049"/>
<polygon fill="green" stroke="green" stroke-width="0.612994" points="796.028,-69.4575 785.433,-69.5164 793.752,-76.0773 796.028,-69.4575"/>
</g>
<!-- enemyRadar[RightFront30]&#45;&gt;Turn Left -->
<g id="edge48" class="edge"><title>enemyRadar[RightFront30]&#45;&gt;Turn Left</title>
<path fill="none" stroke="red" stroke-width="0.371027" d="M1202.96,-155.611C1161.74,-138.295 1064.1,-97.2802 1007.93,-73.684"/>
<polygon fill="red" stroke="red" stroke-width="0.371027" points="1009.19,-70.4178 998.617,-69.7717 1006.48,-76.8715 1009.19,-70.4178"/>
</g>
<!-- enemyRadar[RightFront30]&#45;&gt;Turn Right -->
<g id="edge20" class="edge"><title>enemyRadar[RightFront30]&#45;&gt;Turn Right</title>
<path fill="none" stroke="red" stroke-width="0.370507" d="M1226.33,-155.611C1232.38,-143.782 1244.09,-120.893 1254.75,-100.053"/>
<polygon fill="red" stroke="red" stroke-width="0.370507" points="1257.95,-101.476 1259.39,-90.9787 1251.72,-98.2881 1257.95,-101.476"/>
</g>
<!-- enemyRadar[LeftFront30] -->
<g id="node14" class="node"><title>enemyRadar[LeftFront30]</title>
<polygon fill="lightgray" stroke="black" points="283.201,-173.693 173.201,-173.693 173.201,-155.693 283.201,-155.693 283.201,-173.693"/>
<text text-anchor="middle" x="228.201" y="-162.493" font-family="Times,serif" font-size="9.00">enemyRadar[LeftFront30]</text>
</g>
<!-- enemyRadar[LeftFront30]&#45;&gt;Move Left -->
<g id="edge75" class="edge"><title>enemyRadar[LeftFront30]&#45;&gt;Move Left</title>
<path fill="none" stroke="green" stroke-width="0.409496" d="M250.223,-155.611C298.074,-138.048 412.347,-96.1066 476.158,-72.6862"/>
<polygon fill="green" stroke="green" stroke-width="0.409496" points="477.389,-75.9628 485.571,-69.2315 474.977,-69.3915 477.389,-75.9628"/>
</g>
<!-- enemyRadar[LeftFront30]&#45;&gt;Move right -->
<g id="edge66" class="edge"><title>enemyRadar[LeftFront30]&#45;&gt;Move right</title>
<path fill="none" stroke="red" stroke-width="0.229377" d="M254.477,-155.693C265.972,-152.417 279.669,-148.816 292.201,-146.309 413.502,-122.039 447.238,-136.214 568.201,-110.309 614.14,-100.47 665.335,-84.571 701.347,-72.539"/>
<polygon fill="red" stroke="red" stroke-width="0.229377" points="702.727,-75.7675 711.085,-69.2562 700.49,-69.1343 702.727,-75.7675"/>
</g>
<!-- enemyRadar[RightFront10] -->
<g id="node15" class="node"><title>enemyRadar[RightFront10]</title>
<polygon fill="lightgray" stroke="black" points="1756.7,-173.693 1641.7,-173.693 1641.7,-155.693 1756.7,-155.693 1756.7,-173.693"/>
<text text-anchor="middle" x="1699.2" y="-162.493" font-family="Times,serif" font-size="9.00">enemyRadar[RightFront10]</text>
</g>
<!-- enemyRadar[RightFront10]&#45;&gt;Move Forward -->
<g id="edge45" class="edge"><title>enemyRadar[RightFront10]&#45;&gt;Move Forward</title>
<path fill="none" stroke="red" stroke-width="0.345855" d="M1714.01,-155.611C1741.07,-140.835 1799.75,-108.805 1843.24,-85.0644"/>
<polygon fill="red" stroke="red" stroke-width="0.345855" points="1845.17,-87.997 1852.27,-80.1335 1841.82,-81.8529 1845.17,-87.997"/>
</g>
<!-- enemyRadar[RightFront10]&#45;&gt; Move Backward -->
<g id="edge59" class="edge"><title>enemyRadar[RightFront10]&#45;&gt; Move Backward</title>
<path fill="none" stroke="red" stroke-width="0.371576" d="M1690.93,-155.611C1679.09,-144.031 1656.4,-121.855 1635.46,-101.376"/>
<polygon fill="red" stroke="red" stroke-width="0.371576" points="1637.74,-98.7114 1628.14,-94.2235 1632.84,-103.717 1637.74,-98.7114"/>
</g>
<!-- enemyRadar[RightFront10]&#45;&gt;Move right -->
<g id="edge8" class="edge"><title>enemyRadar[RightFront10]&#45;&gt;Move right</title>
<path fill="none" stroke="red" stroke-width="0.126666" d="M1673.76,-155.675C1661.61,-152.185 1646.78,-148.418 1633.2,-146.309 1320.54,-97.752 1233.71,-165.759 922.201,-110.309 877.975,-102.436 829.283,-86.638 794.683,-74.1272"/>
<polygon fill="red" stroke="red" stroke-width="0.126666" points="795.46,-70.6843 784.866,-70.5291 793.051,-77.2568 795.46,-70.6843"/>
</g>
<!-- enemyRadar[RightFront10]&#45;&gt;Turn Left -->
<g id="edge55" class="edge"><title>enemyRadar[RightFront10]&#45;&gt;Turn Left</title>
<path fill="none" stroke="red" stroke-width="0.824586" stroke-dasharray="1,5" d="M1672.77,-155.639C1660.8,-152.272 1646.39,-148.615 1633.2,-146.309 1455.19,-115.183 1406.98,-136.642 1228.2,-110.309 1150.87,-98.9188 1062,-79.1027 1010.17,-66.8599"/>
<polygon fill="red" stroke="red" stroke-width="0.824586" points="1010.85,-63.4243 1000.31,-64.5171 1009.23,-70.2346 1010.85,-63.4243"/>
</g>
<!-- enemyRadar[LeftFront10] -->
<g id="node16" class="node"><title>enemyRadar[LeftFront10]</title>
<polygon fill="lightgray" stroke="black" points="411.201,-173.693 301.201,-173.693 301.201,-155.693 411.201,-155.693 411.201,-173.693"/>
<text text-anchor="middle" x="356.201" y="-162.493" font-family="Times,serif" font-size="9.00">enemyRadar[LeftFront10]</text>
</g>
<!-- enemyRadar[LeftFront10]&#45;&gt;Shoot -->
<g id="edge41" class="edge"><title>enemyRadar[LeftFront10]&#45;&gt;Shoot</title>
<path fill="none" stroke="green" stroke-width="0.154229" d="M380.539,-155.693C392.373,-152.162 406.886,-148.355 420.201,-146.309 619.355,-115.705 1133.02,-167.59 1326.2,-110.309 1348.56,-103.677 1371.11,-90.316 1388.17,-78.5252"/>
<polygon fill="green" stroke="green" stroke-width="0.154229" points="1390.45,-81.2004 1396.56,-72.5464 1386.39,-75.4998 1390.45,-81.2004"/>
</g>
<!-- enemyRadar[LeftFront10]&#45;&gt;Move Left -->
<g id="edge28" class="edge"><title>enemyRadar[LeftFront10]&#45;&gt;Move Left</title>
<path fill="none" stroke="green" stroke-width="0.564264" d="M368.602,-155.611C392.124,-140.281 444.145,-106.375 480.89,-82.4271"/>
<polygon fill="green" stroke="green" stroke-width="0.564264" points="482.943,-85.2665 489.41,-76.874 479.121,-79.4021 482.943,-85.2665"/>
</g>
<!-- enemyRadar[LeftFront10]&#45;&gt;Move right -->
<g id="edge69" class="edge"><title>enemyRadar[LeftFront10]&#45;&gt;Move right</title>
<path fill="none" stroke="red" stroke-width="0.483522" d="M385.15,-155.655C396.112,-152.656 408.716,-149.265 420.201,-146.309 485.76,-129.434 502.876,-128.067 568.201,-110.309 613.392,-98.0237 664.482,-82.4942 700.655,-71.2184"/>
<polygon fill="red" stroke="red" stroke-width="0.483522" points="701.945,-74.4821 710.445,-68.157 699.856,-67.8011 701.945,-74.4821"/>
</g>
<!-- enemyRadar[RightFront3.5] -->
<g id="node17" class="node"><title>enemyRadar[RightFront3.5]</title>
<polygon fill="lightgray" stroke="black" points="2143.7,-173.693 2026.7,-173.693 2026.7,-155.693 2143.7,-155.693 2143.7,-173.693"/>
<text text-anchor="middle" x="2085.2" y="-162.493" font-family="Times,serif" font-size="9.00">enemyRadar[RightFront3.5]</text>
</g>
<!-- enemyRadar[RightFront3.5]&#45;&gt;Shoot -->
<g id="edge44" class="edge"><title>enemyRadar[RightFront3.5]&#45;&gt;Shoot</title>
<path fill="none" stroke="green" stroke-width="0.11095" d="M2058.7,-155.637C2046.48,-152.228 2031.72,-148.537 2018.2,-146.309 1801.43,-110.574 1737,-168.663 1525.2,-110.309 1497.72,-102.738 1468.98,-87.9453 1448.07,-75.7312"/>
<polygon fill="green" stroke="green" stroke-width="0.11095" points="1449.7,-72.6324 1439.32,-70.51 1446.11,-78.6422 1449.7,-72.6324"/>
</g>
<!-- enemyRadar[RightFront3.5]&#45;&gt;Move Forward -->
<g id="edge16" class="edge"><title>enemyRadar[RightFront3.5]&#45;&gt;Move Forward</title>
<path fill="none" stroke="green" stroke-width="0.129364" d="M2070.99,-155.611C2045.32,-141.003 1990.01,-109.528 1948.43,-85.8746"/>
<polygon fill="green" stroke="green" stroke-width="0.129364" points="1949.94,-82.7072 1939.52,-80.8038 1946.48,-88.7913 1949.94,-82.7072"/>
</g>
<!-- enemyRadar[RightFront3.5]&#45;&gt; Move Backward -->
<g id="edge65" class="edge"><title>enemyRadar[RightFront3.5]&#45;&gt; Move Backward</title>
<path fill="none" stroke="red" stroke-width="0.309116" d="M2055.61,-155.623C2043.98,-152.556 2030.5,-149.125 2018.2,-146.309 1938.25,-128.001 1917.49,-127.058 1837.2,-110.309 1774.44,-97.216 1702.92,-81.5155 1652.87,-70.3992"/>
<polygon fill="red" stroke="red" stroke-width="0.309116" points="1653.36,-66.9231 1642.84,-68.1693 1651.84,-73.7562 1653.36,-66.9231"/>
</g>
<!-- enemyRadar[RightFront3.5]&#45;&gt;Move right -->
<g id="edge25" class="edge"><title>enemyRadar[RightFront3.5]&#45;&gt;Move right</title>
<path fill="none" stroke="red" stroke-width="0.134159" d="M2059.7,-155.66C2047.31,-152.121 2032.12,-148.317 2018.2,-146.309 1535.83,-76.6801 1402.77,-191.458 922.201,-110.309 877.907,-102.829 829.222,-86.988 794.642,-74.361"/>
<polygon fill="red" stroke="red" stroke-width="0.134159" points="795.425,-70.9186 784.832,-70.7268 792.993,-77.4826 795.425,-70.9186"/>
</g>
<!-- enemyRadar[LeftFront3.5] -->
<g id="node18" class="node"><title>enemyRadar[LeftFront3.5]</title>
<polygon fill="lightgray" stroke="black" points="1410.2,-173.693 1298.2,-173.693 1298.2,-155.693 1410.2,-155.693 1410.2,-173.693"/>
<text text-anchor="middle" x="1354.2" y="-162.493" font-family="Times,serif" font-size="9.00">enemyRadar[LeftFront3.5]</text>
</g>
<!-- enemyRadar[LeftFront3.5]&#45;&gt;Shoot -->
<g id="edge18" class="edge"><title>enemyRadar[LeftFront3.5]&#45;&gt;Shoot</title>
<path fill="none" stroke="red" stroke-width="0.56514" d="M1358.94,-155.611C1367.27,-141.38 1384.99,-111.144 1398.71,-87.7237"/>
<polygon fill="red" stroke="red" stroke-width="0.56514" points="1401.89,-89.2083 1403.93,-78.8107 1395.85,-85.6699 1401.89,-89.2083"/>
</g>
<!-- enemyRadar[LeftFront3.5]&#45;&gt; Move Backward -->
<g id="edge71" class="edge"><title>enemyRadar[LeftFront3.5]&#45;&gt; Move Backward</title>
<path fill="none" stroke="green" stroke-width="0.396482" d="M1371.86,-155.611C1404.99,-140.45 1477.82,-107.124 1530.04,-83.2261"/>
<polygon fill="green" stroke="green" stroke-width="0.396482" points="1531.58,-86.3733 1539.21,-79.0295 1528.66,-80.0081 1531.58,-86.3733"/>
</g>
<!-- enemyRadar[LeftFront3.5]&#45;&gt;Move right -->
<g id="edge4" class="edge"><title>enemyRadar[LeftFront3.5]&#45;&gt;Move right</title>
<path fill="none" stroke="green" stroke-width="0.138372" d="M1328.17,-155.687C1316.37,-152.33 1302.19,-148.666 1289.2,-146.309 1127.94,-117.038 1082.84,-142.83 922.201,-110.309 878.173,-101.395 829.459,-85.7105 794.8,-73.5076"/>
<polygon fill="green" stroke="green" stroke-width="0.138372" points="795.56,-70.0629 784.966,-70.0055 793.212,-76.6573 795.56,-70.0629"/>
</g>
<!-- enemyRadar[LeftFront3.5]&#45;&gt;Turn Right -->
<g id="edge22" class="edge"><title>enemyRadar[LeftFront3.5]&#45;&gt;Turn Right</title>
<path fill="none" stroke="green" stroke-width="0.165558" d="M1348.41,-155.611C1339.42,-143.05 1321.5,-118.018 1305.88,-96.2115"/>
<polygon fill="green" stroke="green" stroke-width="0.165558" points="1308.7,-94.1375 1300.03,-88.0444 1303.01,-98.2127 1308.7,-94.1375"/>
</g>
<!-- enemyRadar[RightFront1.5] -->
<g id="node19" class="node"><title>enemyRadar[RightFront1.5]</title>
<polygon fill="lightgray" stroke="black" points="1891.7,-173.693 1774.7,-173.693 1774.7,-155.693 1891.7,-155.693 1891.7,-173.693"/>
<text text-anchor="middle" x="1833.2" y="-162.493" font-family="Times,serif" font-size="9.00">enemyRadar[RightFront1.5]</text>
</g>
<!-- enemyRadar[RightFront1.5]&#45;&gt;Shoot -->
<g id="edge6" class="edge"><title>enemyRadar[RightFront1.5]&#45;&gt;Shoot</title>
<path fill="none" stroke="red" stroke-width="0.459258" d="M1804.99,-155.668C1793.09,-152.465 1779.04,-148.925 1766.2,-146.309 1660.08,-124.678 1628.45,-142.989 1525.2,-110.309 1498.2,-101.763 1469.64,-87.1672 1448.67,-75.2806"/>
<polygon fill="red" stroke="red" stroke-width="0.459258" points="1450.3,-72.1809 1439.89,-70.21 1446.8,-78.2424 1450.3,-72.1809"/>
</g>
<!-- enemyRadar[RightFront1.5]&#45;&gt;Move Forward -->
<g id="edge13" class="edge"><title>enemyRadar[RightFront1.5]&#45;&gt;Move Forward</title>
<path fill="none" stroke="red" stroke-width="0.207445" d="M1837.94,-155.611C1844.04,-145.195 1855.16,-126.205 1866.07,-107.589"/>
<polygon fill="red" stroke="red" stroke-width="0.207445" points="1869.18,-109.205 1871.21,-98.8075 1863.14,-105.667 1869.18,-109.205"/>
</g>
<!-- enemyRadar[RightFront1.5]&#45;&gt;Move right -->
<g id="edge3" class="edge"><title>enemyRadar[RightFront1.5]&#45;&gt;Move right</title>
<path fill="none" stroke="green" stroke-width="0.219786" d="M1807.37,-155.63C1795.04,-152.13 1779.99,-148.368 1766.2,-146.309 1394.87,-90.8508 1292.1,-174.635 922.201,-110.309 877.944,-102.612 829.255,-86.7949 794.664,-74.232"/>
<polygon fill="green" stroke="green" stroke-width="0.219786" points="795.444,-70.7893 784.85,-70.6177 793.025,-77.358 795.444,-70.7893"/>
</g>
<!-- enemyRadar[LeftFront1.5] -->
<g id="node20" class="node"><title>enemyRadar[LeftFront1.5]</title>
<polygon fill="lightgray" stroke="black" points="2274.2,-173.693 2162.2,-173.693 2162.2,-155.693 2274.2,-155.693 2274.2,-173.693"/>
<text text-anchor="middle" x="2218.2" y="-162.493" font-family="Times,serif" font-size="9.00">enemyRadar[LeftFront1.5]</text>
</g>
<!-- enemyRadar[LeftFront1.5]&#45;&gt;Shoot -->
<g id="edge60" class="edge"><title>enemyRadar[LeftFront1.5]&#45;&gt;Shoot</title>
<path fill="none" stroke="green" stroke-width="0.388162" d="M2192.84,-155.621C2180.93,-152.164 2166.46,-148.44 2153.2,-146.309 1877.17,-101.961 1795.3,-182.458 1525.2,-110.309 1497.66,-102.953 1468.93,-88.147 1448.03,-75.8732"/>
<polygon fill="green" stroke="green" stroke-width="0.388162" points="1449.67,-72.7748 1439.29,-70.623 1446.06,-78.7745 1449.67,-72.7748"/>
</g>
<!-- enemyRadar[LeftFront1.5]&#45;&gt;Move Forward -->
<g id="edge38" class="edge"><title>enemyRadar[LeftFront1.5]&#45;&gt;Move Forward</title>
<path fill="none" stroke="green" stroke-width="0.304878" d="M2194,-155.611C2143.29,-138.676 2024.71,-99.0733 1953.43,-75.2662"/>
<polygon fill="green" stroke="green" stroke-width="0.304878" points="1954.29,-71.8638 1943.69,-72.0158 1952.07,-78.5033 1954.29,-71.8638"/>
</g>
<!-- enemyRadar[LeftFront1.5]&#45;&gt; Move Backward -->
<g id="edge21" class="edge"><title>enemyRadar[LeftFront1.5]&#45;&gt; Move Backward</title>
<path fill="none" stroke="red" stroke-width="0.574738" d="M2191.84,-155.693C2180.1,-152.378 2166.05,-148.746 2153.2,-146.309 2014.32,-119.976 1976.65,-133.416 1837.2,-110.309 1773.95,-99.8279 1702.5,-83.7708 1652.59,-71.8597"/>
<polygon fill="red" stroke="red" stroke-width="0.574738" points="1653.14,-68.3906 1642.6,-69.4601 1651.5,-75.1973 1653.14,-68.3906"/>
</g>
<!-- enemyRadar[LeftFront1.5]&#45;&gt;Turn Right -->
<g id="edge5" class="edge"><title>enemyRadar[LeftFront1.5]&#45;&gt;Turn Right</title>
<path fill="none" stroke="red" stroke-width="0.307932" d="M2193.16,-155.647C2181.19,-152.151 2166.59,-148.387 2153.2,-146.309 1983.49,-119.97 1547.02,-155.014 1381.2,-110.309 1359.41,-104.434 1336.99,-93.4921 1318.57,-82.9731"/>
<polygon fill="red" stroke="red" stroke-width="0.307932" points="1320.27,-79.91 1309.87,-77.8672 1316.72,-85.9472 1320.27,-79.91"/>
</g>
<!-- OnTarget -->
<g id="node21" class="node"><title>OnTarget</title>
<polygon fill="lightgray" stroke="black" points="155.201,-173.693 105.201,-173.693 105.201,-155.693 155.201,-155.693 155.201,-173.693"/>
<text text-anchor="middle" x="130.201" y="-162.493" font-family="Times,serif" font-size="9.00">OnTarget</text>
</g>
<!-- OnTarget&#45;&gt;Move Left -->
<g id="edge43" class="edge"><title>OnTarget&#45;&gt;Move Left</title>
<path fill="none" stroke="green" stroke-width="0.103813" d="M144.103,-155.686C150.138,-152.449 157.376,-148.878 164.201,-146.309 271.61,-105.878 403.948,-77.8154 473.423,-64.6582"/>
<polygon fill="green" stroke="green" stroke-width="0.103813" points="474.429,-68.0308 483.614,-62.7501 473.141,-61.1504 474.429,-68.0308"/>
</g>
<!-- OnTarget&#45;&gt;Move right -->
<g id="edge56" class="edge"><title>OnTarget&#45;&gt;Move right</title>
<path fill="none" stroke="green" stroke-width="0.170314" d="M143.276,-155.514C149.402,-152.079 156.939,-148.403 164.201,-146.309 337.409,-96.358 391.197,-144.453 568.201,-110.309 614.331,-101.41 665.503,-85.3936 701.457,-73.079"/>
<polygon fill="green" stroke="green" stroke-width="0.170314" points="702.873,-76.2925 711.177,-69.7128 700.583,-69.6779 702.873,-76.2925"/>
</g>
<!-- bias -->
<g id="node22" class="node"><title>bias</title>
<polygon fill="lightgray" stroke="black" points="1146.7,-173.693 1115.7,-173.693 1115.7,-155.693 1146.7,-155.693 1146.7,-173.693"/>
<text text-anchor="middle" x="1131.2" y="-162.493" font-family="Times,serif" font-size="9.00">bias</text>
</g>
<!-- bias&#45;&gt;Shoot -->
<g id="edge76" class="edge"><title>bias&#45;&gt;Shoot</title>
<path fill="none" stroke="green" stroke-width="0.263146" d="M1140.87,-155.61C1145.3,-152.28 1150.77,-148.659 1156.2,-146.309 1227.09,-115.654 1254.27,-138.434 1326.2,-110.309 1347.78,-101.871 1370.17,-88.6156 1387.34,-77.3315"/>
<polygon fill="green" stroke="green" stroke-width="0.263146" points="1389.46,-80.1251 1395.81,-71.6462 1385.55,-74.3127 1389.46,-80.1251"/>
</g>
<!-- bias&#45;&gt;Move Forward -->
<g id="edge77" class="edge"><title>bias&#45;&gt;Move Forward</title>
<path fill="none" stroke="red" stroke-width="0.415503" d="M1140.27,-155.617C1144.74,-152.115 1150.42,-148.354 1156.2,-146.309 1364.99,-72.4589 1434.08,-142.482 1653.2,-110.309 1717.01,-100.939 1789,-84.0927 1837.94,-71.6695"/>
<polygon fill="red" stroke="red" stroke-width="0.415503" points="1838.9,-75.0374 1847.72,-69.1687 1837.17,-68.2556 1838.9,-75.0374"/>
</g>
<!-- bias&#45;&gt;Move Left -->
<g id="edge64" class="edge"><title>bias&#45;&gt;Move Left</title>
<path fill="none" stroke="green" stroke-width="0.362238" d="M1122.12,-155.658C1117.64,-152.165 1111.97,-148.399 1106.2,-146.309 935.486,-84.3943 877.466,-144.922 699.201,-110.309 653.116,-101.36 601.987,-85.1182 566.395,-72.7479"/>
<polygon fill="green" stroke="green" stroke-width="0.362238" points="567.38,-69.3843 556.785,-69.3708 565.059,-75.9884 567.38,-69.3843"/>
</g>
<!-- bias&#45;&gt;Turn Left -->
<g id="edge39" class="edge"><title>bias&#45;&gt;Turn Left</title>
<path fill="none" stroke="red" stroke-width="0.534981" d="M1119.56,-155.47C1115.37,-152.545 1110.59,-149.249 1106.2,-146.309 1072.17,-123.527 1032.93,-98.3509 1004.67,-80.4069"/>
<polygon fill="red" stroke="red" stroke-width="0.534981" points="1006.22,-77.2458 995.897,-74.8473 1002.47,-83.1578 1006.22,-77.2458"/>
</g>
<!-- bias&#45;&gt;Turn Right -->
<g id="edge49" class="edge"><title>bias&#45;&gt;Turn Right</title>
<path fill="none" stroke="green" stroke-width="0.145922" d="M1142.17,-155.611C1162.08,-140.948 1205.06,-109.293 1237.21,-85.6094"/>
<polygon fill="green" stroke="green" stroke-width="0.145922" points="1239.57,-88.2177 1245.55,-79.469 1235.42,-82.5816 1239.57,-88.2177"/>
</g>
<!-- 61&#45;&gt;Turn Left -->
<g id="edge80" class="edge"><title>61&#45;&gt;Turn Left</title>
<path fill="none" stroke="red" stroke-width="0.273324" d="M760.115,-153.574C763.987,-151.091 768.196,-148.515 772.201,-146.309 823.139,-118.246 884.346,-90.7831 924.202,-73.6855"/>
<polygon fill="red" stroke="red" stroke-width="0.273324" points="925.782,-76.8164 933.607,-69.6732 923.036,-70.3778 925.782,-76.8164"/>
</g>
</g>
</svg>
