<?xml version="1.0" encoding="UTF-8" standalone="no"?>
<!DOCTYPE svg PUBLIC "-//W3C//DTD SVG 1.1//EN"
 "http://www.w3.org/Graphics/SVG/1.1/DTD/svg11.dtd">
<!-- Generated by graphviz version 2.38.0 (20140413.2041)
 -->
<!-- Title: %3 Pages: 1 -->
<svg width="1993pt" height="533pt"
 viewBox="0.00 0.00 1992.50 533.45" xmlns="http://www.w3.org/2000/svg" xmlns:xlink="http://www.w3.org/1999/xlink">
<g id="graph0" class="graph" transform="scale(1 1) rotate(0) translate(4 529.453)">
<title>%3</title>
<polygon fill="white" stroke="none" points="-4,4 -4,-529.453 1988.5,-529.453 1988.5,4 -4,4"/>
<!-- wallRadar[1,0] -->
<g id="node1" class="node"><title>wallRadar[1,0]</title>
<polygon fill="lightgray" stroke="black" points="675.5,-455.704 605.5,-455.704 605.5,-437.704 675.5,-437.704 675.5,-455.704"/>
<text text-anchor="middle" x="640.5" y="-444.504" font-family="Times,serif" font-size="9.00">wallRadar[1,0]</text>
</g>
<!-- Shoot -->
<g id="node24" class="node"><title>Shoot</title>
<ellipse fill="lightblue" stroke="black" cx="1041.5" cy="-308.881" rx="26.7407" ry="26.7407"/>
<text text-anchor="middle" x="1041.5" y="-306.681" font-family="Times,serif" font-size="9.00">Shoot</text>
</g>
<!-- wallRadar[1,0]&#45;&gt;Shoot -->
<g id="edge19" class="edge"><title>wallRadar[1,0]&#45;&gt;Shoot</title>
<path fill="none" stroke="red" stroke-width="0.401235" stroke-dasharray="1,5" d="M654.039,-437.524C662.576,-432.588 673.944,-426.413 684.5,-421.955 798.395,-373.86 940.254,-335.333 1005.55,-318.73"/>
<polygon fill="red" stroke="red" stroke-width="0.401235" points="1006.52,-322.096 1015.36,-316.255 1004.8,-315.308 1006.52,-322.096"/>
</g>
<!-- Move Forward/Backward -->
<g id="node25" class="node"><title>Move Forward/Backward</title>
<ellipse fill="lightblue" stroke="black" cx="587.5" cy="-308.881" rx="77.1494" ry="77.1494"/>
<text text-anchor="middle" x="587.5" y="-306.681" font-family="Times,serif" font-size="9.00">Move Forward/Backward</text>
</g>
<!-- wallRadar[1,0]&#45;&gt;Move Forward/Backward -->
<g id="edge26" class="edge"><title>wallRadar[1,0]&#45;&gt;Move Forward/Backward</title>
<path fill="none" stroke="red" stroke-width="0.126528" stroke-dasharray="1,5" d="M637.343,-437.615C633.475,-427.701 626.5,-409.826 618.969,-390.528"/>
<polygon fill="red" stroke="red" stroke-width="0.126528" points="622.135,-389.012 615.239,-380.969 615.614,-391.557 622.135,-389.012"/>
</g>
<!-- wallRadar[0,1] -->
<g id="node2" class="node"><title>wallRadar[0,1]</title>
<polygon fill="lightgray" stroke="black" points="587.5,-455.704 517.5,-455.704 517.5,-437.704 587.5,-437.704 587.5,-455.704"/>
<text text-anchor="middle" x="552.5" y="-444.504" font-family="Times,serif" font-size="9.00">wallRadar[0,1]</text>
</g>
<!-- wallRadar[0,1]&#45;&gt;Shoot -->
<g id="edge35" class="edge"><title>wallRadar[0,1]&#45;&gt;Shoot</title>
<path fill="none" stroke="red" stroke-width="0.551898" d="M565.568,-437.536C574.111,-432.48 585.659,-426.171 596.5,-421.955 672.825,-392.279 913.532,-337.992 1005.39,-317.758"/>
<polygon fill="red" stroke="red" stroke-width="0.551898" points="1006.32,-321.138 1015.33,-315.574 1004.81,-314.302 1006.32,-321.138"/>
</g>
<!-- wallRadar[0,1]&#45;&gt;Move Forward/Backward -->
<g id="edge6" class="edge"><title>wallRadar[0,1]&#45;&gt;Move Forward/Backward</title>
<path fill="none" stroke="green" stroke-width="1.46144" d="M554.585,-437.615C557.005,-428.223 561.266,-411.688 565.935,-393.566"/>
<polygon fill="green" stroke="green" stroke-width="1.46144" points="569.378,-394.231 568.484,-383.674 562.6,-392.484 569.378,-394.231"/>
</g>
<!--  Move Left/Right -->
<g id="node26" class="node"><title> Move Left/Right</title>
<ellipse fill="lightblue" stroke="black" cx="711.5" cy="-55.1543" rx="55.3091" ry="55.3091"/>
<text text-anchor="middle" x="711.5" y="-52.9543" font-family="Times,serif" font-size="9.00"> Move Left/Right</text>
</g>
<!-- wallRadar[0,1]&#45;&gt; Move Left/Right -->
<g id="edge32" class="edge"><title>wallRadar[0,1]&#45;&gt; Move Left/Right</title>
<path fill="none" stroke="green" stroke-width="0.307544" stroke-dasharray="1,5" d="M567.056,-437.575C575.574,-432.886 586.574,-426.949 596.5,-421.955 630.247,-404.977 651.424,-416.612 673.5,-385.955 703.124,-344.817 709.978,-204.488 711.368,-120.713"/>
<polygon fill="green" stroke="green" stroke-width="0.307544" points="714.87,-120.586 711.514,-110.536 707.87,-120.485 714.87,-120.586"/>
</g>
<!-- wallRadar[&#45;1,0] -->
<g id="node3" class="node"><title>wallRadar[&#45;1,0]</title>
<polygon fill="lightgray" stroke="black" points="767,-455.704 694,-455.704 694,-437.704 767,-437.704 767,-455.704"/>
<text text-anchor="middle" x="730.5" y="-444.504" font-family="Times,serif" font-size="9.00">wallRadar[&#45;1,0]</text>
</g>
<!-- wallRadar[&#45;1,0]&#45;&gt;Move Forward/Backward -->
<g id="edge9" class="edge"><title>wallRadar[&#45;1,0]&#45;&gt;Move Forward/Backward</title>
<path fill="none" stroke="green" stroke-width="0.43497" stroke-dasharray="1,5" d="M721.983,-437.615C707.853,-424.194 678.363,-396.184 650.589,-369.804"/>
<polygon fill="green" stroke="green" stroke-width="0.43497" points="652.858,-367.132 643.197,-362.783 648.037,-372.207 652.858,-367.132"/>
</g>
<!-- wallRadar[&#45;1,0]&#45;&gt; Move Left/Right -->
<g id="edge30" class="edge"><title>wallRadar[&#45;1,0]&#45;&gt; Move Left/Right</title>
<path fill="none" stroke="green" stroke-width="0.667226" d="M730.103,-437.568C728.145,-397.416 719.414,-218.405 714.641,-120.557"/>
<polygon fill="green" stroke="green" stroke-width="0.667226" points="718.133,-120.3 714.15,-110.483 711.141,-120.642 718.133,-120.3"/>
</g>
<!-- Turn left/right -->
<g id="node27" class="node"><title>Turn left/right</title>
<ellipse fill="lightblue" stroke="black" cx="1453.5" cy="-308.881" rx="46.8387" ry="46.8387"/>
<text text-anchor="middle" x="1453.5" y="-306.681" font-family="Times,serif" font-size="9.00">Turn left/right</text>
</g>
<!-- wallRadar[&#45;1,0]&#45;&gt;Turn left/right -->
<g id="edge3" class="edge"><title>wallRadar[&#45;1,0]&#45;&gt;Turn left/right</title>
<path fill="none" stroke="red" stroke-width="0.298745" d="M742.95,-437.53C751.694,-432.2 763.862,-425.583 775.5,-421.955 904.55,-381.735 944.036,-407.376 1077.5,-385.955 1192.12,-367.56 1324.96,-338.947 1398.08,-322.559"/>
<polygon fill="red" stroke="red" stroke-width="0.298745" points="1399,-325.938 1407.99,-320.33 1397.47,-319.109 1399,-325.938"/>
</g>
<!-- wallRadar[0,&#45;1] -->
<g id="node4" class="node"><title>wallRadar[0,&#45;1]</title>
<polygon fill="lightgray" stroke="black" points="378,-180.057 305,-180.057 305,-162.057 378,-162.057 378,-180.057"/>
<text text-anchor="middle" x="341.5" y="-168.857" font-family="Times,serif" font-size="9.00">wallRadar[0,&#45;1]</text>
</g>
<!-- wallRadar[0,&#45;1]&#45;&gt; Move Left/Right -->
<g id="edge8" class="edge"><title>wallRadar[0,&#45;1]&#45;&gt; Move Left/Right</title>
<path fill="none" stroke="red" stroke-width="1.2799" d="M357.298,-161.899C367.232,-156.971 380.414,-150.797 392.5,-146.309 479.174,-114.117 582.694,-86.8244 647.781,-70.9597"/>
<polygon fill="red" stroke="red" stroke-width="1.2799" points="648.993,-74.2675 657.889,-68.5126 647.346,-67.464 648.993,-74.2675"/>
</g>
<!-- wallRadar[0.7,0.7] -->
<g id="node5" class="node"><title>wallRadar[0.7,0.7]</title>
<polygon fill="lightgray" stroke="black" points="83,-455.704 0,-455.704 0,-437.704 83,-437.704 83,-455.704"/>
<text text-anchor="middle" x="41.5" y="-444.504" font-family="Times,serif" font-size="9.00">wallRadar[0.7,0.7]</text>
</g>
<!-- wallRadar[0.7,0.7]&#45;&gt;Move Forward/Backward -->
<g id="edge18" class="edge"><title>wallRadar[0.7,0.7]&#45;&gt;Move Forward/Backward</title>
<path fill="none" stroke="red" stroke-width="0.764458" d="M56.4512,-437.531C66.2005,-432.472 79.3293,-426.163 91.5,-421.955 231.457,-373.574 400.952,-340.478 501.19,-323.408"/>
<polygon fill="red" stroke="red" stroke-width="0.764458" points="501.991,-326.822 511.268,-321.706 500.825,-319.92 501.991,-326.822"/>
</g>
<!-- wallRadar[0.7,0.7]&#45;&gt; Move Left/Right -->
<g id="edge7" class="edge"><title>wallRadar[0.7,0.7]&#45;&gt; Move Left/Right</title>
<path fill="none" stroke="green" stroke-width="0.230251" d="M45.4292,-437.615C65.3557,-397.583 159.644,-219.657 295.5,-146.309 408.913,-85.0773 560.881,-65.4329 646.228,-59.1308"/>
<polygon fill="green" stroke="green" stroke-width="0.230251" points="646.567,-62.6157 656.299,-58.4265 646.079,-55.6328 646.567,-62.6157"/>
</g>
<!-- wallRadar[&#45;0.7,0.7] -->
<g id="node6" class="node"><title>wallRadar[&#45;0.7,0.7]</title>
<polygon fill="lightgray" stroke="black" points="499.5,-455.704 413.5,-455.704 413.5,-437.704 499.5,-437.704 499.5,-455.704"/>
<text text-anchor="middle" x="456.5" y="-444.504" font-family="Times,serif" font-size="9.00">wallRadar[&#45;0.7,0.7]</text>
</g>
<!-- wallRadar[&#45;0.7,0.7]&#45;&gt;Shoot -->
<g id="edge36" class="edge"><title>wallRadar[&#45;0.7,0.7]&#45;&gt;Shoot</title>
<path fill="none" stroke="green" stroke-width="0.594481" d="M472.066,-437.496C482.212,-432.424 495.867,-426.112 508.5,-421.955 520.557,-417.989 887.518,-341.798 1005.41,-317.358"/>
<polygon fill="green" stroke="green" stroke-width="0.594481" points="1006.31,-320.746 1015.39,-315.289 1004.89,-313.892 1006.31,-320.746"/>
</g>
<!-- wallRadar[&#45;0.7,0.7]&#45;&gt;Move Forward/Backward -->
<g id="edge33" class="edge"><title>wallRadar[&#45;0.7,0.7]&#45;&gt;Move Forward/Backward</title>
<path fill="none" stroke="green" stroke-width="2.19462" d="M464.302,-437.615C476.785,-424.672 502.355,-398.161 526.981,-372.628"/>
<polygon fill="green" stroke="green" stroke-width="2.19462" points="529.809,-374.738 534.232,-365.11 524.771,-369.878 529.809,-374.738"/>
</g>
<!-- wallRadar[&#45;0.7,0.7]&#45;&gt; Move Left/Right -->
<g id="edge15" class="edge"><title>wallRadar[&#45;0.7,0.7]&#45;&gt; Move Left/Right</title>
<path fill="none" stroke="red" stroke-width="0.490914" stroke-dasharray="1,5" d="M456.701,-437.427C457.726,-407.826 463.952,-305.095 501.5,-231.806 534.826,-166.759 603.882,-116.481 653.722,-86.6979"/>
<polygon fill="red" stroke="red" stroke-width="0.490914" points="655.628,-89.6375 662.48,-81.5561 652.084,-83.601 655.628,-89.6375"/>
</g>
<!-- wallRadar[&#45;0.7,&#45;0.7] -->
<g id="node7" class="node"><title>wallRadar[&#45;0.7,&#45;0.7]</title>
<polygon fill="lightgray" stroke="black" points="327,-455.704 238,-455.704 238,-437.704 327,-437.704 327,-455.704"/>
<text text-anchor="middle" x="282.5" y="-444.504" font-family="Times,serif" font-size="9.00">wallRadar[&#45;0.7,&#45;0.7]</text>
</g>
<!-- wallRadar[&#45;0.7,&#45;0.7]&#45;&gt;Shoot -->
<g id="edge49" class="edge"><title>wallRadar[&#45;0.7,&#45;0.7]&#45;&gt;Shoot</title>
<path fill="none" stroke="green" stroke-width="0.381213" d="M297.638,-437.538C308.218,-432.211 322.843,-425.594 336.5,-421.955 482.053,-383.177 524.679,-409.23 673.5,-385.955 796.172,-366.77 939.838,-334.065 1005.48,-318.546"/>
<polygon fill="green" stroke="green" stroke-width="0.381213" points="1006.41,-321.922 1015.33,-316.207 1004.8,-315.112 1006.41,-321.922"/>
</g>
<!-- wallRadar[&#45;0.7,&#45;0.7]&#45;&gt;Move Forward/Backward -->
<g id="edge29" class="edge"><title>wallRadar[&#45;0.7,&#45;0.7]&#45;&gt;Move Forward/Backward</title>
<path fill="none" stroke="green" stroke-width="0.896434" d="M299.298,-437.655C309.843,-432.768 323.804,-426.599 336.5,-421.955 389.594,-402.536 406.649,-408.484 458.5,-385.955 477.251,-377.808 496.654,-367.488 514.539,-357.1"/>
<polygon fill="green" stroke="green" stroke-width="0.896434" points="516.349,-360.096 523.187,-352.003 512.795,-354.065 516.349,-360.096"/>
</g>
<!-- wallRadar[&#45;0.7,&#45;0.7]&#45;&gt; Move Left/Right -->
<g id="edge37" class="edge"><title>wallRadar[&#45;0.7,&#45;0.7]&#45;&gt; Move Left/Right</title>
<path fill="none" stroke="red" stroke-width="0.307345" stroke-dasharray="1,5" d="M300.975,-437.527C311.397,-432.928 324.663,-427.095 336.5,-421.955 373.757,-405.779 394.216,-416.922 420.5,-385.955 466.162,-332.16 428.071,-295.47 458.5,-231.806 479.084,-188.739 486.503,-176.47 523.5,-146.309 561.003,-115.735 610.599,-92.5096 649.434,-77.2943"/>
<polygon fill="red" stroke="red" stroke-width="0.307345" points="650.979,-80.45 659.061,-73.599 648.471,-73.9148 650.979,-80.45"/>
</g>
<!-- wallRadar[0.7,&#45;0.7] -->
<g id="node8" class="node"><title>wallRadar[0.7,&#45;0.7]</title>
<polygon fill="lightgray" stroke="black" points="1984.5,-455.704 1898.5,-455.704 1898.5,-437.704 1984.5,-437.704 1984.5,-455.704"/>
<text text-anchor="middle" x="1941.5" y="-444.504" font-family="Times,serif" font-size="9.00">wallRadar[0.7,&#45;0.7]</text>
</g>
<!-- wallRadar[0.7,&#45;0.7]&#45;&gt; Move Left/Right -->
<g id="edge39" class="edge"><title>wallRadar[0.7,&#45;0.7]&#45;&gt; Move Left/Right</title>
<path fill="none" stroke="green" stroke-width="0.387322" stroke-dasharray="1,5" d="M1939.86,-437.655C1933.55,-407.982 1908.55,-302.766 1858.5,-231.806 1824.99,-184.298 1813.07,-168.899 1759.5,-146.309 1580.88,-70.9825 977.726,-58.5897 777.05,-56.5537"/>
<polygon fill="green" stroke="green" stroke-width="0.387322" points="776.985,-53.053 766.952,-56.4566 776.918,-60.0527 776.985,-53.053"/>
</g>
<!-- wallRadar[0.7,&#45;0.7]&#45;&gt;Turn left/right -->
<g id="edge1" class="edge"><title>wallRadar[0.7,&#45;0.7]&#45;&gt;Turn left/right</title>
<path fill="none" stroke="green" stroke-width="0.980303" stroke-dasharray="1,5" d="M1925.87,-437.686C1915.7,-432.69 1902.04,-426.391 1889.5,-421.955 1755.86,-374.68 1592.73,-338.135 1508.98,-320.847"/>
<polygon fill="green" stroke="green" stroke-width="0.980303" points="1509.66,-317.415 1499.16,-318.835 1508.26,-324.272 1509.66,-317.415"/>
</g>
<!-- 9034 -->
<g id="node28" class="node"><title>9034</title>
<ellipse fill="white" stroke="black" cx="1824.5" cy="-308.881" rx="25" ry="25"/>
<text text-anchor="middle" x="1824.5" y="-306.681" font-family="Times,serif" font-size="9.00">9034</text>
</g>
<!-- wallRadar[0.7,&#45;0.7]&#45;&gt;9034 -->
<g id="edge50" class="edge"><title>wallRadar[0.7,&#45;0.7]&#45;&gt;9034</title>
<path fill="none" stroke="green" stroke-width="0.393357" d="M1934.53,-437.615C1917.64,-418.008 1873.93,-367.262 1846.96,-335.954"/>
<polygon fill="green" stroke="green" stroke-width="0.393357" points="1849.34,-333.354 1840.16,-328.062 1844.04,-337.923 1849.34,-333.354"/>
</g>
<!-- enemyRadar[RightBack] -->
<g id="node9" class="node"><title>enemyRadar[RightBack]</title>
<polygon fill="lightgray" stroke="black" points="1632.5,-455.704 1528.5,-455.704 1528.5,-437.704 1632.5,-437.704 1632.5,-455.704"/>
<text text-anchor="middle" x="1580.5" y="-444.504" font-family="Times,serif" font-size="9.00">enemyRadar[RightBack]</text>
</g>
<!-- enemyRadar[RightBack]&#45;&gt;Shoot -->
<g id="edge31" class="edge"><title>enemyRadar[RightBack]&#45;&gt;Shoot</title>
<path fill="none" stroke="green" stroke-width="0.87836" stroke-dasharray="1,5" d="M1561.78,-437.627C1549.84,-432.669 1533.94,-426.434 1519.5,-421.955 1357.44,-371.686 1158.39,-331.829 1077.87,-316.587"/>
<polygon fill="green" stroke="green" stroke-width="0.87836" points="1078.23,-313.093 1067.75,-314.684 1076.93,-319.972 1078.23,-313.093"/>
</g>
<!-- enemyRadar[RightBack]&#45;&gt;Turn left/right -->
<g id="edge2" class="edge"><title>enemyRadar[RightBack]&#45;&gt;Turn left/right</title>
<path fill="none" stroke="red" stroke-width="0.717861" stroke-dasharray="1,5" d="M1572.94,-437.615C1557.33,-420.925 1520.63,-381.674 1492,-351.054"/>
<polygon fill="red" stroke="red" stroke-width="0.717861" points="1494.3,-348.388 1484.91,-343.474 1489.18,-353.169 1494.3,-348.388"/>
</g>
<!-- 6772 -->
<g id="node30" class="node"><title>6772</title>
<ellipse fill="white" stroke="black" cx="821.5" cy="-171.057" rx="25" ry="25"/>
<text text-anchor="middle" x="821.5" y="-168.857" font-family="Times,serif" font-size="9.00">6772</text>
</g>
<!-- enemyRadar[RightBack]&#45;&gt;6772 -->
<g id="edge41" class="edge"><title>enemyRadar[RightBack]&#45;&gt;6772</title>
<path fill="none" stroke="green" stroke-width="0.16673" stroke-dasharray="1,5" d="M1580.73,-437.312C1581.14,-404.51 1577.8,-284.198 1509.5,-231.806 1455.1,-190.077 960.847,-208.653 893.5,-195.806 880.268,-193.282 866.108,-188.98 853.877,-184.726"/>
<polygon fill="green" stroke="green" stroke-width="0.16673" points="854.714,-181.307 844.12,-181.203 852.337,-187.891 854.714,-181.307"/>
</g>
<!-- enemyRadar[LeftBack] -->
<g id="node10" class="node"><title>enemyRadar[LeftBack]</title>
<polygon fill="lightgray" stroke="black" points="1154,-455.704 1055,-455.704 1055,-437.704 1154,-437.704 1154,-455.704"/>
<text text-anchor="middle" x="1104.5" y="-444.504" font-family="Times,serif" font-size="9.00">enemyRadar[LeftBack]</text>
</g>
<!-- enemyRadar[LeftBack]&#45;&gt;Shoot -->
<g id="edge24" class="edge"><title>enemyRadar[LeftBack]&#45;&gt;Shoot</title>
<path fill="none" stroke="green" stroke-width="0.581263" d="M1100.75,-437.615C1092.3,-419.396 1071.38,-374.295 1056.81,-342.882"/>
<polygon fill="green" stroke="green" stroke-width="0.581263" points="1059.89,-341.216 1052.51,-333.617 1053.54,-344.161 1059.89,-341.216"/>
</g>
<!-- enemyRadar[Right45ø] -->
<g id="node11" class="node"><title>enemyRadar[Right45ø]</title>
<polygon fill="lightgray" stroke="black" points="1378.5,-455.704 1278.5,-455.704 1278.5,-437.704 1378.5,-437.704 1378.5,-455.704"/>
<text text-anchor="middle" x="1328.5" y="-444.504" font-family="Times,serif" font-size="9.00">enemyRadar[Right45ø]</text>
</g>
<!-- enemyRadar[Right45ø]&#45;&gt;Shoot -->
<g id="edge38" class="edge"><title>enemyRadar[Right45ø]&#45;&gt;Shoot</title>
<path fill="none" stroke="green" stroke-width="0.478121" d="M1311.41,-437.615C1265.01,-415.66 1136.12,-354.662 1074.78,-325.629"/>
<polygon fill="green" stroke="green" stroke-width="0.478121" points="1076.07,-322.369 1065.53,-321.255 1073.08,-328.696 1076.07,-322.369"/>
</g>
<!-- enemyRadar[Right45ø]&#45;&gt;Turn left/right -->
<g id="edge27" class="edge"><title>enemyRadar[Right45ø]&#45;&gt;Turn left/right</title>
<path fill="none" stroke="red" stroke-width="1.65582" d="M1335.94,-437.615C1351.26,-420.978 1387.2,-381.922 1415.34,-351.344"/>
<polygon fill="red" stroke="red" stroke-width="1.65582" points="1418.11,-353.5 1422.31,-343.772 1412.96,-348.76 1418.11,-353.5"/>
</g>
<!-- enemyRadar[Left45ø] -->
<g id="node12" class="node"><title>enemyRadar[Left45ø]</title>
<polygon fill="lightgray" stroke="black" points="1746,-455.704 1651,-455.704 1651,-437.704 1746,-437.704 1746,-455.704"/>
<text text-anchor="middle" x="1698.5" y="-444.504" font-family="Times,serif" font-size="9.00">enemyRadar[Left45ø]</text>
</g>
<!-- enemyRadar[Left45ø]&#45;&gt;Turn left/right -->
<g id="edge20" class="edge"><title>enemyRadar[Left45ø]&#45;&gt;Turn left/right</title>
<path fill="none" stroke="green" stroke-width="1.78186" d="M1683.91,-437.615C1649,-418.262 1559.37,-368.572 1502.74,-337.18"/>
<polygon fill="green" stroke="green" stroke-width="1.78186" points="1504.4,-334.094 1493.95,-332.307 1501,-340.217 1504.4,-334.094"/>
</g>
<!-- enemyRadar[RightFront20ø] -->
<g id="node13" class="node"><title>enemyRadar[RightFront20ø]</title>
<polygon fill="lightgray" stroke="black" points="220,-455.704 101,-455.704 101,-437.704 220,-437.704 220,-455.704"/>
<text text-anchor="middle" x="160.5" y="-444.504" font-family="Times,serif" font-size="9.00">enemyRadar[RightFront20ø]</text>
</g>
<!-- enemyRadar[RightFront20ø]&#45;&gt;Move Forward/Backward -->
<g id="edge11" class="edge"><title>enemyRadar[RightFront20ø]&#45;&gt;Move Forward/Backward</title>
<path fill="none" stroke="green" stroke-width="0.603535" stroke-dasharray="1,5" d="M181.08,-437.607C194.437,-432.579 212.31,-426.274 228.5,-421.955 312.387,-399.579 337.723,-412.143 420.5,-385.955 450.656,-376.415 482.538,-362.833 510.273,-349.78"/>
<polygon fill="green" stroke="green" stroke-width="0.603535" points="511.987,-352.84 519.511,-345.38 508.977,-346.52 511.987,-352.84"/>
</g>
<!-- enemyRadar[RightFront20ø]&#45;&gt; Move Left/Right -->
<g id="edge14" class="edge"><title>enemyRadar[RightFront20ø]&#45;&gt; Move Left/Right</title>
<path fill="none" stroke="red" stroke-width="0.669696" stroke-dasharray="1,5" d="M166.862,-437.567C197.055,-399.442 330.388,-236.56 473.5,-146.309 528.334,-111.728 598.49,-87.1728 648.394,-72.5095"/>
<polygon fill="red" stroke="red" stroke-width="0.669696" points="649.458,-75.8455 658.095,-69.7088 647.516,-69.1202 649.458,-75.8455"/>
</g>
<!-- enemyRadar[LeftFront20ø] -->
<g id="node14" class="node"><title>enemyRadar[LeftFront20ø]</title>
<polygon fill="lightgray" stroke="black" points="1510.5,-455.704 1396.5,-455.704 1396.5,-437.704 1510.5,-437.704 1510.5,-455.704"/>
<text text-anchor="middle" x="1453.5" y="-444.504" font-family="Times,serif" font-size="9.00">enemyRadar[LeftFront20ø]</text>
</g>
<!-- enemyRadar[LeftFront20ø]&#45;&gt;Shoot -->
<g id="edge13" class="edge"><title>enemyRadar[LeftFront20ø]&#45;&gt;Shoot</title>
<path fill="none" stroke="green" stroke-width="0.650556" stroke-dasharray="1,5" d="M1431.56,-437.611C1418.75,-432.934 1402.25,-426.996 1387.5,-421.955 1274.59,-383.365 1139.83,-340.675 1077.01,-320.968"/>
<polygon fill="green" stroke="green" stroke-width="0.650556" points="1077.79,-317.546 1067.2,-317.895 1075.7,-324.225 1077.79,-317.546"/>
</g>
<!-- enemyRadar[LeftFront20ø]&#45;&gt;Turn left/right -->
<g id="edge34" class="edge"><title>enemyRadar[LeftFront20ø]&#45;&gt;Turn left/right</title>
<path fill="none" stroke="red" stroke-width="0.154486" d="M1453.5,-437.615C1453.5,-423.537 1453.5,-393.405 1453.5,-365.942"/>
<polygon fill="red" stroke="red" stroke-width="0.154486" points="1457,-365.586 1453.5,-355.586 1450,-365.586 1457,-365.586"/>
</g>
<!-- enemyRadar[RightFront15ø] -->
<g id="node15" class="node"><title>enemyRadar[RightFront15ø]</title>
<polygon fill="lightgray" stroke="black" points="904,-455.704 785,-455.704 785,-437.704 904,-437.704 904,-455.704"/>
<text text-anchor="middle" x="844.5" y="-444.504" font-family="Times,serif" font-size="9.00">enemyRadar[RightFront15ø]</text>
</g>
<!-- enemyRadar[RightFront15ø]&#45;&gt;Shoot -->
<g id="edge5" class="edge"><title>enemyRadar[RightFront15ø]&#45;&gt;Shoot</title>
<path fill="none" stroke="red" stroke-width="1.46932" d="M856.233,-437.615C886.364,-416.841 967.193,-361.112 1011.48,-330.582"/>
<polygon fill="red" stroke="red" stroke-width="1.46932" points="1013.57,-333.387 1019.82,-324.829 1009.6,-327.624 1013.57,-333.387"/>
</g>
<!-- enemyRadar[RightFront15ø]&#45;&gt;Move Forward/Backward -->
<g id="edge12" class="edge"><title>enemyRadar[RightFront15ø]&#45;&gt;Move Forward/Backward</title>
<path fill="none" stroke="green" stroke-width="1.71035" d="M829.193,-437.615C797.447,-420.837 722.557,-381.258 664.487,-350.568"/>
<polygon fill="green" stroke="green" stroke-width="1.71035" points="665.797,-347.302 655.32,-345.724 662.526,-353.491 665.797,-347.302"/>
</g>
<!-- enemyRadar[RightFront15ø]&#45;&gt; Move Left/Right -->
<g id="edge10" class="edge"><title>enemyRadar[RightFront15ø]&#45;&gt; Move Left/Right</title>
<path fill="none" stroke="green" stroke-width="0.827536" d="M841.722,-437.568C827.855,-396.953 765.479,-214.257 732.343,-117.203"/>
<polygon fill="green" stroke="green" stroke-width="0.827536" points="735.579,-115.849 729.036,-107.516 728.955,-118.111 735.579,-115.849"/>
</g>
<!-- enemyRadar[RightFront15ø]&#45;&gt;Turn left/right -->
<g id="edge21" class="edge"><title>enemyRadar[RightFront15ø]&#45;&gt;Turn left/right</title>
<path fill="none" stroke="green" stroke-width="0.895114" stroke-dasharray="1,5" d="M865.727,-437.616C879.263,-432.654 897.252,-426.418 913.5,-421.955 960.132,-409.147 1269.47,-346.755 1397.83,-321.017"/>
<polygon fill="green" stroke="green" stroke-width="0.895114" points="1398.74,-324.405 1407.86,-319.008 1397.36,-317.542 1398.74,-324.405"/>
</g>
<!-- enemyRadar[LeftFront15ø] -->
<g id="node16" class="node"><title>enemyRadar[LeftFront15ø]</title>
<polygon fill="lightgray" stroke="black" points="1036.5,-455.704 922.5,-455.704 922.5,-437.704 1036.5,-437.704 1036.5,-455.704"/>
<text text-anchor="middle" x="979.5" y="-444.504" font-family="Times,serif" font-size="9.00">enemyRadar[LeftFront15ø]</text>
</g>
<!-- enemyRadar[LeftFront15ø]&#45;&gt;Shoot -->
<g id="edge4" class="edge"><title>enemyRadar[LeftFront15ø]&#45;&gt;Shoot</title>
<path fill="none" stroke="red" stroke-width="0.269953" d="M983.193,-437.615C991.509,-419.396 1012.1,-374.295 1026.44,-342.882"/>
<polygon fill="red" stroke="red" stroke-width="0.269953" points="1029.7,-344.168 1030.66,-333.617 1023.33,-341.261 1029.7,-344.168"/>
</g>
<!-- enemyRadar[LeftFront15ø]&#45;&gt;Move Forward/Backward -->
<g id="edge46" class="edge"><title>enemyRadar[LeftFront15ø]&#45;&gt;Move Forward/Backward</title>
<path fill="none" stroke="red" stroke-width="0.376596" d="M956.878,-437.631C943.9,-433.014 927.295,-427.128 912.5,-421.955 829.938,-393.088 735.403,-360.545 669.655,-337.994"/>
<polygon fill="red" stroke="red" stroke-width="0.376596" points="670.763,-334.674 660.169,-334.741 668.493,-341.296 670.763,-334.674"/>
</g>
<!-- enemyRadar[LeftFront15ø]&#45;&gt; Move Left/Right -->
<g id="edge40" class="edge"><title>enemyRadar[LeftFront15ø]&#45;&gt; Move Left/Right</title>
<path fill="none" stroke="red" stroke-width="0.133396" stroke-dasharray="1,5" d="M977.987,-437.35C970.783,-399.589 936.883,-242.53 855.5,-146.309 832.727,-119.383 799.816,-97.9433 771.204,-82.7383"/>
<polygon fill="red" stroke="red" stroke-width="0.133396" points="772.574,-79.5065 762.084,-78.0216 769.358,-85.7242 772.574,-79.5065"/>
</g>
<!-- enemyRadar[LeftFront15ø]&#45;&gt;Turn left/right -->
<g id="edge23" class="edge"><title>enemyRadar[LeftFront15ø]&#45;&gt;Turn left/right</title>
<path fill="none" stroke="red" stroke-width="0.281231" stroke-dasharray="1,5" d="M1000.46,-437.693C1013.37,-432.878 1030.29,-426.772 1045.5,-421.955 1170.58,-382.338 1319.73,-343.447 1398.48,-323.553"/>
<polygon fill="red" stroke="red" stroke-width="0.281231" points="1399.35,-326.944 1408.19,-321.106 1397.64,-320.156 1399.35,-326.944"/>
</g>
<!-- enemyRadar[RightFront7.5ø] -->
<g id="node17" class="node"><title>enemyRadar[RightFront7.5ø]</title>
<polygon fill="lightgray" stroke="black" points="1409.5,-525.453 1287.5,-525.453 1287.5,-507.453 1409.5,-507.453 1409.5,-525.453"/>
<text text-anchor="middle" x="1348.5" y="-514.253" font-family="Times,serif" font-size="9.00">enemyRadar[RightFront7.5ø]</text>
</g>
<!-- enemyRadar[LeftFront7.5ø] -->
<g id="node18" class="node"><title>enemyRadar[LeftFront7.5ø]</title>
<polygon fill="lightgray" stroke="black" points="1880.5,-455.704 1764.5,-455.704 1764.5,-437.704 1880.5,-437.704 1880.5,-455.704"/>
<text text-anchor="middle" x="1822.5" y="-444.504" font-family="Times,serif" font-size="9.00">enemyRadar[LeftFront7.5ø]</text>
</g>
<!-- enemyRadar[LeftFront7.5ø]&#45;&gt;Move Forward/Backward -->
<g id="edge28" class="edge"><title>enemyRadar[LeftFront7.5ø]&#45;&gt;Move Forward/Backward</title>
<path fill="none" stroke="red" stroke-width="0.565542" stroke-dasharray="1,5" d="M1804.42,-437.667C1791.16,-432.178 1772.57,-425.315 1755.5,-421.955 1428.06,-357.521 1337.05,-423.915 1005.5,-385.955 889.307,-372.652 756.698,-346.646 672.58,-328.775"/>
<polygon fill="red" stroke="red" stroke-width="0.565542" points="673.077,-325.302 662.567,-326.637 671.615,-332.148 673.077,-325.302"/>
</g>
<!-- enemyRadar[LeftFront7.5ø]&#45;&gt; Move Left/Right -->
<g id="edge16" class="edge"><title>enemyRadar[LeftFront7.5ø]&#45;&gt; Move Left/Right</title>
<path fill="none" stroke="green" stroke-width="0.202359" d="M1815.23,-437.504C1786.28,-405.42 1675.08,-287.433 1557.5,-231.806 1286.7,-103.689 923.56,-68.5662 776.949,-59.3144"/>
<polygon fill="green" stroke="green" stroke-width="0.202359" points="776.966,-55.8091 766.771,-58.6921 776.539,-62.796 776.966,-55.8091"/>
</g>
<!-- enemyRadar[LeftFront7.5ø]&#45;&gt;Turn left/right -->
<g id="edge25" class="edge"><title>enemyRadar[LeftFront7.5ø]&#45;&gt;Turn left/right</title>
<path fill="none" stroke="red" stroke-width="0.116859" stroke-dasharray="1,5" d="M1800.52,-437.615C1743.42,-416.596 1589.1,-359.793 1506.83,-329.512"/>
<polygon fill="red" stroke="red" stroke-width="0.116859" points="1507.76,-326.125 1497.17,-325.955 1505.35,-332.694 1507.76,-326.125"/>
</g>
<!-- enemyRadar[RightFront2.5ø] -->
<g id="node19" class="node"><title>enemyRadar[RightFront2.5ø]</title>
<polygon fill="lightgray" stroke="black" points="1269.5,-525.453 1147.5,-525.453 1147.5,-507.453 1269.5,-507.453 1269.5,-525.453"/>
<text text-anchor="middle" x="1208.5" y="-514.253" font-family="Times,serif" font-size="9.00">enemyRadar[RightFront2.5ø]</text>
</g>
<!-- enemyRadar[RightFront2.5ø]&#45;&gt;Shoot -->
<g id="edge43" class="edge"><title>enemyRadar[RightFront2.5ø]&#45;&gt;Shoot</title>
<path fill="none" stroke="red" stroke-width="0.258292" stroke-dasharray="1,5" d="M1205.69,-507.397C1199.56,-490.494 1183.8,-450.531 1162.5,-421.955 1136.1,-386.529 1097.57,-353.092 1071.12,-332.117"/>
<polygon fill="red" stroke="red" stroke-width="0.258292" points="1073.02,-329.161 1062.98,-325.758 1068.71,-334.675 1073.02,-329.161"/>
</g>
<!-- 8683 -->
<g id="node29" class="node"><title>8683</title>
<ellipse fill="white" stroke="black" cx="1235.5" cy="-446.704" rx="25" ry="25"/>
<text text-anchor="middle" x="1235.5" y="-444.504" font-family="Times,serif" font-size="9.00">8683</text>
</g>
<!-- enemyRadar[RightFront2.5ø]&#45;&gt;8683 -->
<g id="edge47" class="edge"><title>enemyRadar[RightFront2.5ø]&#45;&gt;8683</title>
<path fill="none" stroke="green" stroke-width="0.459012" d="M1211.7,-507.415C1214.51,-500.384 1218.76,-489.697 1222.91,-479.298"/>
<polygon fill="green" stroke="green" stroke-width="0.459012" points="1226.19,-480.527 1226.64,-469.942 1219.68,-477.936 1226.19,-480.527"/>
</g>
<!-- enemyRadar[LeftFront2.5ø] -->
<g id="node20" class="node"><title>enemyRadar[LeftFront2.5ø]</title>
<polygon fill="lightgray" stroke="black" points="1018.5,-180.057 902.5,-180.057 902.5,-162.057 1018.5,-162.057 1018.5,-180.057"/>
<text text-anchor="middle" x="960.5" y="-168.857" font-family="Times,serif" font-size="9.00">enemyRadar[LeftFront2.5ø]</text>
</g>
<!-- enemyRadar[LeftFront2.5ø]&#45;&gt; Move Left/Right -->
<g id="edge17" class="edge"><title>enemyRadar[LeftFront2.5ø]&#45;&gt; Move Left/Right</title>
<path fill="none" stroke="red" stroke-width="0.16876" stroke-dasharray="1,5" d="M942.991,-162.048C907.758,-145.931 826.872,-108.93 770.709,-83.2388"/>
<polygon fill="red" stroke="red" stroke-width="0.16876" points="772.12,-80.0358 761.571,-79.0587 769.208,-86.4015 772.12,-80.0358"/>
</g>
<!-- enemyRadar[Front7Ø] -->
<g id="node21" class="node"><title>enemyRadar[Front7Ø]</title>
<polygon fill="lightgray" stroke="black" points="1525.5,-525.453 1427.5,-525.453 1427.5,-507.453 1525.5,-507.453 1525.5,-525.453"/>
<text text-anchor="middle" x="1476.5" y="-514.253" font-family="Times,serif" font-size="9.00">enemyRadar[Front7Ø]</text>
</g>
<!-- OnTarget -->
<g id="node22" class="node"><title>OnTarget</title>
<polygon fill="lightgray" stroke="black" points="395.5,-455.704 345.5,-455.704 345.5,-437.704 395.5,-437.704 395.5,-455.704"/>
<text text-anchor="middle" x="370.5" y="-444.504" font-family="Times,serif" font-size="9.00">OnTarget</text>
</g>
<!-- OnTarget&#45;&gt;Move Forward/Backward -->
<g id="edge22" class="edge"><title>OnTarget&#45;&gt;Move Forward/Backward</title>
<path fill="none" stroke="red" stroke-width="0.298654" d="M381.717,-437.616C388.289,-432.94 396.789,-427.003 404.5,-421.955 439.552,-399.01 479.12,-374.598 512.473,-354.435"/>
<polygon fill="red" stroke="red" stroke-width="0.298654" points="514.504,-357.297 521.258,-349.135 510.888,-351.304 514.504,-357.297"/>
</g>
<!-- bias -->
<g id="node23" class="node"><title>bias</title>
<polygon fill="lightgray" stroke="black" points="1575,-525.453 1544,-525.453 1544,-507.453 1575,-507.453 1575,-525.453"/>
<text text-anchor="middle" x="1559.5" y="-514.253" font-family="Times,serif" font-size="9.00">bias</text>
</g>
<!-- Move Forward/Backward&#45;&gt;6772 -->
<g id="edge42" class="edge"><title>Move Forward/Backward&#45;&gt;6772</title>
<path fill="none" stroke="red" stroke-width="0.289119" d="M653.929,-269.323C699.326,-242.972 757.3,-209.322 791.797,-189.298"/>
<polygon fill="red" stroke="red" stroke-width="0.289119" points="793.566,-192.319 800.457,-184.272 790.051,-186.265 793.566,-192.319"/>
</g>
<!-- 8024 -->
<g id="node31" class="node"><title>8024</title>
<ellipse fill="white" stroke="black" cx="613.5" cy="-171.057" rx="25" ry="25"/>
<text text-anchor="middle" x="613.5" y="-168.857" font-family="Times,serif" font-size="9.00">8024</text>
</g>
<!-- Move Forward/Backward&#45;&gt;8024 -->
<g id="edge45" class="edge"><title>Move Forward/Backward&#45;&gt;8024</title>
<path fill="none" stroke="green" stroke-width="0.389201" d="M601.869,-232.818C603.686,-223.328 605.466,-214.026 607.067,-205.665"/>
<polygon fill="green" stroke="green" stroke-width="0.389201" points="610.544,-206.113 608.987,-195.634 603.669,-204.797 610.544,-206.113"/>
</g>
<!-- 9034&#45;&gt; Move Left/Right -->
<g id="edge51" class="edge"><title>9034&#45;&gt; Move Left/Right</title>
<path fill="none" stroke="red" stroke-width="0.108085" d="M1817.37,-285.161C1804.62,-248.797 1774.23,-178.36 1721.5,-146.309 1640.92,-97.3308 987.74,-67.1855 776.874,-58.6569"/>
<polygon fill="red" stroke="red" stroke-width="0.108085" points="776.71,-55.1476 766.578,-58.2435 776.429,-62.142 776.71,-55.1476"/>
</g>
<!-- 8683&#45;&gt;Shoot -->
<g id="edge48" class="edge"><title>8683&#45;&gt;Shoot</title>
<path fill="none" stroke="red" stroke-width="0.645993" d="M1215.47,-431.68C1181.29,-407.748 1111.51,-358.898 1071.49,-330.88"/>
<polygon fill="red" stroke="red" stroke-width="0.645993" points="1073.39,-327.935 1063.19,-325.067 1069.38,-333.67 1073.39,-327.935"/>
</g>
<!-- 8024&#45;&gt; Move Left/Right -->
<g id="edge44" class="edge"><title>8024&#45;&gt; Move Left/Right</title>
<path fill="none" stroke="green" stroke-width="0.590609" d="M629.245,-151.757C640.033,-139.219 654.892,-121.949 669.015,-105.533"/>
<polygon fill="green" stroke="green" stroke-width="0.590609" points="672,-107.431 675.869,-97.5679 666.693,-102.866 672,-107.431"/>
</g>
</g>
</svg>
