<?xml version="1.0" encoding="UTF-8" standalone="no"?>
<!DOCTYPE svg PUBLIC "-//W3C//DTD SVG 1.1//EN"
 "http://www.w3.org/Graphics/SVG/1.1/DTD/svg11.dtd">
<!-- Generated by graphviz version 2.38.0 (20140413.2041)
 -->
<!-- Title: %3 Pages: 1 -->
<svg width="2189pt" height="488pt"
 viewBox="0.00 0.00 2188.50 488.20" xmlns="http://www.w3.org/2000/svg" xmlns:xlink="http://www.w3.org/1999/xlink">
<g id="graph0" class="graph" transform="scale(1 1) rotate(0) translate(4 484.198)">
<title>%3</title>
<polygon fill="white" stroke="none" points="-4,4 -4,-484.198 2184.5,-484.198 2184.5,4 -4,4"/>
<!-- wallRadar[1,0] -->
<g id="node1" class="node"><title>wallRadar[1,0]</title>
<polygon fill="lightgray" stroke="black" points="1219,-407.621 1149,-407.621 1149,-389.621 1219,-389.621 1219,-407.621"/>
<text text-anchor="middle" x="1184" y="-396.421" font-family="Times,serif" font-size="9.00">wallRadar[1,0]</text>
</g>
<!--  Move Left/Right -->
<g id="node26" class="node"><title> Move Left/Right</title>
<ellipse fill="lightblue" stroke="black" cx="680" cy="-166.815" rx="55.3091" ry="55.3091"/>
<text text-anchor="middle" x="680" y="-164.615" font-family="Times,serif" font-size="9.00"> Move Left/Right</text>
</g>
<!-- wallRadar[1,0]&#45;&gt; Move Left/Right -->
<g id="edge10" class="edge"><title>wallRadar[1,0]&#45;&gt; Move Left/Right</title>
<path fill="none" stroke="green" stroke-width="1.2268" d="M1172.48,-389.576C1163.84,-383.82 1151.57,-376.208 1140,-371.044 1089.93,-348.699 1071.44,-358.743 1022,-335.044 982.725,-316.219 979.186,-300.835 941,-279.889 875.128,-243.758 795.221,-210.938 741.314,-190.285"/>
<polygon fill="green" stroke="green" stroke-width="1.2268" points="742.484,-186.986 731.894,-186.698 739.994,-193.527 742.484,-186.986"/>
</g>
<!-- 14404 -->
<g id="node28" class="node"><title>14404</title>
<ellipse fill="white" stroke="black" cx="1648" cy="-307.467" rx="27.6545" ry="27.6545"/>
<text text-anchor="middle" x="1648" y="-305.267" font-family="Times,serif" font-size="9.00">14404</text>
</g>
<!-- wallRadar[1,0]&#45;&gt;14404 -->
<g id="edge30" class="edge"><title>wallRadar[1,0]&#45;&gt;14404</title>
<path fill="none" stroke="red" stroke-width="0.144552" d="M1219.14,-393.261C1313.88,-381.384 1569.9,-348.456 1606,-335.044 1609.8,-333.63 1613.63,-331.839 1617.34,-329.857"/>
<polygon fill="red" stroke="red" stroke-width="0.144552" points="1619.38,-332.717 1626.24,-324.642 1615.84,-326.677 1619.38,-332.717"/>
</g>
<!-- wallRadar[0,1] -->
<g id="node2" class="node"><title>wallRadar[0,1]</title>
<polygon fill="lightgray" stroke="black" points="1271,-480.198 1201,-480.198 1201,-462.198 1271,-462.198 1271,-480.198"/>
<text text-anchor="middle" x="1236" y="-468.998" font-family="Times,serif" font-size="9.00">wallRadar[0,1]</text>
</g>
<!-- wallRadar[&#45;1,0] -->
<g id="node3" class="node"><title>wallRadar[&#45;1,0]</title>
<polygon fill="lightgray" stroke="black" points="1441.5,-316.467 1368.5,-316.467 1368.5,-298.467 1441.5,-298.467 1441.5,-316.467"/>
<text text-anchor="middle" x="1405" y="-305.267" font-family="Times,serif" font-size="9.00">wallRadar[&#45;1,0]</text>
</g>
<!-- Shoot -->
<g id="node24" class="node"><title>Shoot</title>
<ellipse fill="lightblue" stroke="black" cx="415" cy="-26.8701" rx="26.7407" ry="26.7407"/>
<text text-anchor="middle" x="415" y="-24.6701" font-family="Times,serif" font-size="9.00">Shoot</text>
</g>
<!-- wallRadar[&#45;1,0]&#45;&gt;Shoot -->
<g id="edge1" class="edge"><title>wallRadar[&#45;1,0]&#45;&gt;Shoot</title>
<path fill="none" stroke="red" stroke-width="0.353877" stroke-dasharray="1,5" d="M1403.56,-298.3C1397.28,-265.293 1368.91,-141.074 1290,-89.7401 1218.95,-43.5177 609.7,-30.8979 452.095,-28.3935"/>
<polygon fill="red" stroke="red" stroke-width="0.353877" points="452.012,-24.8919 441.959,-28.2366 451.904,-31.8911 452.012,-24.8919"/>
</g>
<!-- Turn left/right -->
<g id="node27" class="node"><title>Turn left/right</title>
<ellipse fill="lightblue" stroke="black" cx="1805" cy="-166.815" rx="46.8387" ry="46.8387"/>
<text text-anchor="middle" x="1805" y="-164.615" font-family="Times,serif" font-size="9.00">Turn left/right</text>
</g>
<!-- wallRadar[&#45;1,0]&#45;&gt;Turn left/right -->
<g id="edge12" class="edge"><title>wallRadar[&#45;1,0]&#45;&gt;Turn left/right</title>
<path fill="none" stroke="green" stroke-width="0.374331" stroke-dasharray="1,5" d="M1417.5,-298.25C1426.54,-292.559 1439.18,-285.099 1451,-279.889 1553.04,-234.899 1678.82,-199.536 1749.67,-181.333"/>
<polygon fill="green" stroke="green" stroke-width="0.374331" points="1750.88,-184.634 1759.71,-178.772 1749.15,-177.851 1750.88,-184.634"/>
</g>
<!-- wallRadar[0,&#45;1] -->
<g id="node4" class="node"><title>wallRadar[0,&#45;1]</title>
<polygon fill="lightgray" stroke="black" points="1362.5,-480.198 1289.5,-480.198 1289.5,-462.198 1362.5,-462.198 1362.5,-480.198"/>
<text text-anchor="middle" x="1326" y="-468.998" font-family="Times,serif" font-size="9.00">wallRadar[0,&#45;1]</text>
</g>
<!-- wallRadar[0.7,0.7] -->
<g id="node5" class="node"><title>wallRadar[0.7,0.7]</title>
<polygon fill="lightgray" stroke="black" points="2180.5,-316.467 2097.5,-316.467 2097.5,-298.467 2180.5,-298.467 2180.5,-316.467"/>
<text text-anchor="middle" x="2139" y="-305.267" font-family="Times,serif" font-size="9.00">wallRadar[0.7,0.7]</text>
</g>
<!-- wallRadar[0.7,0.7]&#45;&gt;Turn left/right -->
<g id="edge4" class="edge"><title>wallRadar[0.7,0.7]&#45;&gt;Turn left/right</title>
<path fill="none" stroke="red" stroke-width="0.195446" stroke-dasharray="1,5" d="M2122.46,-298.296C2111.37,-292.899 2096.4,-285.766 2083,-279.889 2005.51,-245.917 1914.31,-209.889 1858.07,-188.12"/>
<polygon fill="red" stroke="red" stroke-width="0.195446" points="1859.26,-184.828 1848.67,-184.488 1856.74,-191.357 1859.26,-184.828"/>
</g>
<!-- wallRadar[&#45;0.7,0.7] -->
<g id="node6" class="node"><title>wallRadar[&#45;0.7,0.7]</title>
<polygon fill="lightgray" stroke="black" points="617,-407.621 531,-407.621 531,-389.621 617,-389.621 617,-407.621"/>
<text text-anchor="middle" x="574" y="-396.421" font-family="Times,serif" font-size="9.00">wallRadar[&#45;0.7,0.7]</text>
</g>
<!-- wallRadar[&#45;0.7,0.7]&#45;&gt; Move Left/Right -->
<g id="edge20" class="edge"><title>wallRadar[&#45;0.7,0.7]&#45;&gt; Move Left/Right</title>
<path fill="none" stroke="green" stroke-width="0.201085" d="M571.537,-389.513C566.011,-369.831 554.292,-318.319 570,-279.889 581.857,-250.881 605.244,-225.327 627.416,-205.974"/>
<polygon fill="green" stroke="green" stroke-width="0.201085" points="629.818,-208.526 635.186,-199.392 625.294,-203.184 629.818,-208.526"/>
</g>
<!-- 20505 -->
<g id="node39" class="node"><title>20505</title>
<ellipse fill="white" stroke="black" cx="904" cy="-307.467" rx="27.6545" ry="27.6545"/>
<text text-anchor="middle" x="904" y="-305.267" font-family="Times,serif" font-size="9.00">20505</text>
</g>
<!-- wallRadar[&#45;0.7,0.7]&#45;&gt;20505 -->
<g id="edge50" class="edge"><title>wallRadar[&#45;0.7,0.7]&#45;&gt;20505</title>
<path fill="none" stroke="red" stroke-width="0.213772" stroke-dasharray="1,5" d="M586.744,-389.619C596.973,-383.57 611.904,-375.56 626,-371.044 729.553,-337.863 767.501,-376.567 868,-335.044 870.158,-334.152 872.306,-333.103 874.417,-331.946"/>
<polygon fill="red" stroke="red" stroke-width="0.213772" points="876.737,-334.622 883.341,-326.337 873.012,-328.695 876.737,-334.622"/>
</g>
<!-- wallRadar[&#45;0.7,&#45;0.7] -->
<g id="node7" class="node"><title>wallRadar[&#45;0.7,&#45;0.7]</title>
<polygon fill="lightgray" stroke="black" points="668.5,-316.467 579.5,-316.467 579.5,-298.467 668.5,-298.467 668.5,-316.467"/>
<text text-anchor="middle" x="624" y="-305.267" font-family="Times,serif" font-size="9.00">wallRadar[&#45;0.7,&#45;0.7]</text>
</g>
<!-- wallRadar[&#45;0.7,&#45;0.7]&#45;&gt; Move Left/Right -->
<g id="edge8" class="edge"><title>wallRadar[&#45;0.7,&#45;0.7]&#45;&gt; Move Left/Right</title>
<path fill="none" stroke="green" stroke-width="0.770561" stroke-dasharray="1,5" d="M627.335,-298.208C632.959,-284.284 644.796,-254.976 655.826,-227.667"/>
<polygon fill="green" stroke="green" stroke-width="0.770561" points="659.183,-228.702 659.682,-218.119 652.692,-226.081 659.183,-228.702"/>
</g>
<!-- wallRadar[0.7,&#45;0.7] -->
<g id="node8" class="node"><title>wallRadar[0.7,&#45;0.7]</title>
<polygon fill="lightgray" stroke="black" points="1503,-407.621 1417,-407.621 1417,-389.621 1503,-389.621 1503,-407.621"/>
<text text-anchor="middle" x="1460" y="-396.421" font-family="Times,serif" font-size="9.00">wallRadar[0.7,&#45;0.7]</text>
</g>
<!-- Move Forward/Backward -->
<g id="node25" class="node"><title>Move Forward/Backward</title>
<ellipse fill="lightblue" stroke="black" cx="1204" cy="-166.815" rx="77.1494" ry="77.1494"/>
<text text-anchor="middle" x="1204" y="-164.615" font-family="Times,serif" font-size="9.00">Move Forward/Backward</text>
</g>
<!-- wallRadar[0.7,&#45;0.7]&#45;&gt;Move Forward/Backward -->
<g id="edge18" class="edge"><title>wallRadar[0.7,&#45;0.7]&#45;&gt;Move Forward/Backward</title>
<path fill="none" stroke="red" stroke-width="0.273545" stroke-dasharray="1,5" d="M1416.89,-396.971C1368.74,-393.854 1291.73,-381.325 1247,-335.044 1226.13,-313.448 1215.01,-283.143 1209.2,-254.253"/>
<polygon fill="red" stroke="red" stroke-width="0.273545" points="1212.59,-253.325 1207.36,-244.11 1205.7,-254.574 1212.59,-253.325"/>
</g>
<!-- wallRadar[0.7,&#45;0.7]&#45;&gt;14404 -->
<g id="edge39" class="edge"><title>wallRadar[0.7,&#45;0.7]&#45;&gt;14404</title>
<path fill="none" stroke="green" stroke-width="0.797303" d="M1481.77,-389.543C1510.75,-378.512 1563.3,-357.524 1606,-335.044 1609.51,-333.197 1613.11,-331.158 1616.66,-329.054"/>
<polygon fill="green" stroke="green" stroke-width="0.797303" points="1618.59,-331.975 1625.28,-323.765 1614.93,-326.007 1618.59,-331.975"/>
</g>
<!-- enemyRadar[RightBack] -->
<g id="node9" class="node"><title>enemyRadar[RightBack]</title>
<polygon fill="lightgray" stroke="black" points="1564,-316.467 1460,-316.467 1460,-298.467 1564,-298.467 1564,-316.467"/>
<text text-anchor="middle" x="1512" y="-305.267" font-family="Times,serif" font-size="9.00">enemyRadar[RightBack]</text>
</g>
<!-- enemyRadar[RightBack]&#45;&gt;Shoot -->
<g id="edge13" class="edge"><title>enemyRadar[RightBack]&#45;&gt;Shoot</title>
<path fill="none" stroke="green" stroke-width="0.307302" stroke-dasharray="1,5" d="M1508.97,-298.203C1496.22,-264.822 1443.41,-139.352 1353,-89.7401 1272.94,-45.8078 615.779,-31.4009 451.91,-28.4741"/>
<polygon fill="green" stroke="green" stroke-width="0.307302" points="451.9,-24.9735 441.84,-28.2978 451.778,-31.9725 451.9,-24.9735"/>
</g>
<!-- enemyRadar[RightBack]&#45;&gt;Turn left/right -->
<g id="edge7" class="edge"><title>enemyRadar[RightBack]&#45;&gt;Turn left/right</title>
<path fill="none" stroke="green" stroke-width="0.462196" stroke-dasharray="1,5" d="M1529.02,-298.413C1572.06,-278.044 1686.61,-223.839 1753.83,-192.03"/>
<polygon fill="green" stroke="green" stroke-width="0.462196" points="1755.45,-195.137 1762.99,-187.696 1752.45,-188.81 1755.45,-195.137"/>
</g>
<!-- enemyRadar[LeftBack] -->
<g id="node10" class="node"><title>enemyRadar[LeftBack]</title>
<polygon fill="lightgray" stroke="black" points="785.5,-316.467 686.5,-316.467 686.5,-298.467 785.5,-298.467 785.5,-316.467"/>
<text text-anchor="middle" x="736" y="-305.267" font-family="Times,serif" font-size="9.00">enemyRadar[LeftBack]</text>
</g>
<!-- enemyRadar[LeftBack]&#45;&gt; Move Left/Right -->
<g id="edge21" class="edge"><title>enemyRadar[LeftBack]&#45;&gt; Move Left/Right</title>
<path fill="none" stroke="red" stroke-width="0.2737" d="M732.665,-298.208C727.041,-284.284 715.204,-254.976 704.174,-227.667"/>
<polygon fill="red" stroke="red" stroke-width="0.2737" points="707.308,-226.081 700.318,-218.119 700.817,-228.702 707.308,-226.081"/>
</g>
<!-- enemyRadar[Right45ø] -->
<g id="node11" class="node"><title>enemyRadar[Right45ø]</title>
<polygon fill="lightgray" stroke="black" points="234,-316.467 134,-316.467 134,-298.467 234,-298.467 234,-316.467"/>
<text text-anchor="middle" x="184" y="-305.267" font-family="Times,serif" font-size="9.00">enemyRadar[Right45ø]</text>
</g>
<!-- enemyRadar[Right45ø]&#45;&gt;Shoot -->
<g id="edge11" class="edge"><title>enemyRadar[Right45ø]&#45;&gt;Shoot</title>
<path fill="none" stroke="green" stroke-width="0.197958" stroke-dasharray="1,5" d="M190.724,-298.114C200.199,-286.255 217.895,-263.765 232,-243.889 279.402,-177.093 277.036,-149.546 333,-89.7401 348.011,-73.699 367.562,-58.7696 383.809,-47.5964"/>
<polygon fill="green" stroke="green" stroke-width="0.197958" points="386.098,-50.2752 392.445,-41.7923 382.193,-44.4654 386.098,-50.2752"/>
</g>
<!-- 21299 -->
<g id="node37" class="node"><title>21299</title>
<ellipse fill="white" stroke="black" cx="195" cy="-166.815" rx="27.6545" ry="27.6545"/>
<text text-anchor="middle" x="195" y="-164.615" font-family="Times,serif" font-size="9.00">21299</text>
</g>
<!-- enemyRadar[Right45ø]&#45;&gt;21299 -->
<g id="edge56" class="edge"><title>enemyRadar[Right45ø]&#45;&gt;21299</title>
<path fill="none" stroke="red" stroke-width="0.247174" d="M184.655,-298.208C186.08,-280.243 189.538,-236.667 192.064,-204.818"/>
<polygon fill="red" stroke="red" stroke-width="0.247174" points="195.579,-204.766 192.881,-194.52 188.601,-204.212 195.579,-204.766"/>
</g>
<!-- enemyRadar[Left45ø] -->
<g id="node12" class="node"><title>enemyRadar[Left45ø]</title>
<polygon fill="lightgray" stroke="black" points="484.5,-316.467 389.5,-316.467 389.5,-298.467 484.5,-298.467 484.5,-316.467"/>
<text text-anchor="middle" x="437" y="-305.267" font-family="Times,serif" font-size="9.00">enemyRadar[Left45ø]</text>
</g>
<!-- enemyRadar[Left45ø]&#45;&gt;Shoot -->
<g id="edge31" class="edge"><title>enemyRadar[Left45ø]&#45;&gt;Shoot</title>
<path fill="none" stroke="green" stroke-width="0.187156" stroke-dasharray="1,5" d="M436.365,-298.429C433.669,-264.286 423.067,-130.027 417.884,-64.3902"/>
<polygon fill="green" stroke="green" stroke-width="0.187156" points="421.347,-63.7888 417.071,-54.0954 414.369,-64.3399 421.347,-63.7888"/>
</g>
<!-- enemyRadar[Left45ø]&#45;&gt; Move Left/Right -->
<g id="edge14" class="edge"><title>enemyRadar[Left45ø]&#45;&gt; Move Left/Right</title>
<path fill="none" stroke="red" stroke-width="2.47707" d="M451.115,-298.413C483.998,-279.65 567.198,-232.178 623.689,-199.945"/>
<polygon fill="red" stroke="red" stroke-width="2.47707" points="625.563,-202.905 632.514,-194.91 622.094,-196.826 625.563,-202.905"/>
</g>
<!-- enemyRadar[Left45ø]&#45;&gt;Turn left/right -->
<g id="edge9" class="edge"><title>enemyRadar[Left45ø]&#45;&gt;Turn left/right</title>
<path fill="none" stroke="red" stroke-width="0.457737" stroke-dasharray="1,5" d="M470.12,-298.436C496.895,-292.286 535.65,-284.157 570,-279.889 887.956,-240.391 971.147,-275.336 1290,-243.889 1457.92,-227.328 1654.82,-194.462 1749.13,-177.881"/>
<polygon fill="red" stroke="red" stroke-width="0.457737" points="1749.78,-181.319 1759.02,-176.135 1748.56,-174.426 1749.78,-181.319"/>
</g>
<!-- enemyRadar[Left45ø]&#45;&gt;21299 -->
<g id="edge40" class="edge"><title>enemyRadar[Left45ø]&#45;&gt;21299</title>
<path fill="none" stroke="green" stroke-width="0.113693" d="M422.943,-298.413C385.181,-276.777 280.787,-216.966 227.382,-186.368"/>
<polygon fill="green" stroke="green" stroke-width="0.113693" points="229.065,-183.298 218.648,-181.364 225.585,-189.372 229.065,-183.298"/>
</g>
<!-- enemyRadar[RightFront20ø] -->
<g id="node13" class="node"><title>enemyRadar[RightFront20ø]</title>
<polygon fill="lightgray" stroke="black" points="371.5,-316.467 252.5,-316.467 252.5,-298.467 371.5,-298.467 371.5,-316.467"/>
<text text-anchor="middle" x="312" y="-305.267" font-family="Times,serif" font-size="9.00">enemyRadar[RightFront20ø]</text>
</g>
<!-- enemyRadar[RightFront20ø]&#45;&gt;Shoot -->
<g id="edge16" class="edge"><title>enemyRadar[RightFront20ø]&#45;&gt;Shoot</title>
<path fill="none" stroke="red" stroke-width="0.203855" stroke-dasharray="1,5" d="M314.972,-298.429C327.746,-263.877 378.427,-126.795 402.359,-62.0605"/>
<polygon fill="red" stroke="red" stroke-width="0.203855" points="405.776,-62.9122 405.961,-52.319 399.21,-60.4848 405.776,-62.9122"/>
</g>
<!-- 18321 -->
<g id="node36" class="node"><title>18321</title>
<ellipse fill="white" stroke="black" cx="471" cy="-166.815" rx="27.6545" ry="27.6545"/>
<text text-anchor="middle" x="471" y="-164.615" font-family="Times,serif" font-size="9.00">18321</text>
</g>
<!-- enemyRadar[RightFront20ø]&#45;&gt;18321 -->
<g id="edge27" class="edge"><title>enemyRadar[RightFront20ø]&#45;&gt;18321</title>
<path fill="none" stroke="green" stroke-width="2.28" d="M321.47,-298.208C344.902,-277.775 406.325,-224.213 442.745,-192.454"/>
<polygon fill="green" stroke="green" stroke-width="2.28" points="445.315,-194.856 450.552,-185.646 440.714,-189.581 445.315,-194.856"/>
</g>
<!-- enemyRadar[LeftFront20ø] -->
<g id="node14" class="node"><title>enemyRadar[LeftFront20ø]</title>
<polygon fill="lightgray" stroke="black" points="1183,-480.198 1069,-480.198 1069,-462.198 1183,-462.198 1183,-480.198"/>
<text text-anchor="middle" x="1126" y="-468.998" font-family="Times,serif" font-size="9.00">enemyRadar[LeftFront20ø]</text>
</g>
<!-- enemyRadar[LeftFront20ø]&#45;&gt;Shoot -->
<g id="edge5" class="edge"><title>enemyRadar[LeftFront20ø]&#45;&gt;Shoot</title>
<path fill="none" stroke="green" stroke-width="0.37035" stroke-dasharray="1,5" d="M1172.33,-462.122C1193.04,-455.953 1215.55,-445.131 1228,-426.198 1241.47,-405.718 1242.93,-390.482 1228,-371.044 1190.17,-321.802 1149.27,-361.304 1093,-335.044 921.194,-254.867 918.681,-163.444 744,-89.7401 644.026,-47.5581 514.888,-33.9955 452.297,-29.7437"/>
<polygon fill="green" stroke="green" stroke-width="0.37035" points="452.323,-26.2383 442.121,-29.0955 451.878,-33.2242 452.323,-26.2383"/>
</g>
<!-- enemyRadar[LeftFront20ø]&#45;&gt;Turn left/right -->
<g id="edge6" class="edge"><title>enemyRadar[LeftFront20ø]&#45;&gt;Turn left/right</title>
<path fill="none" stroke="green" stroke-width="0.32213" stroke-dasharray="1,5" d="M1183.21,-462.997C1186.18,-462.706 1189.12,-462.438 1192,-462.198 1279.57,-454.906 1904.38,-467.373 1982,-426.198 2045.35,-392.597 2088.75,-340.225 2050,-279.889 2008.55,-215.34 1919.65,-187.498 1861.11,-175.824"/>
<polygon fill="green" stroke="green" stroke-width="0.32213" points="1861.75,-172.383 1851.27,-173.956 1860.44,-179.26 1861.75,-172.383"/>
</g>
<!-- 22601 -->
<g id="node33" class="node"><title>22601</title>
<ellipse fill="white" stroke="black" cx="831" cy="-307.467" rx="27.6545" ry="27.6545"/>
<text text-anchor="middle" x="831" y="-305.267" font-family="Times,serif" font-size="9.00">22601</text>
</g>
<!-- enemyRadar[LeftFront20ø]&#45;&gt;22601 -->
<g id="edge51" class="edge"><title>enemyRadar[LeftFront20ø]&#45;&gt;22601</title>
<path fill="none" stroke="red" stroke-width="0.141714" stroke-dasharray="1,5" d="M1069,-465.574C1007.85,-459.603 915.778,-447.374 888,-426.198 861.817,-406.238 847.009,-371.126 839.09,-344.426"/>
<polygon fill="red" stroke="red" stroke-width="0.141714" points="842.425,-343.357 836.382,-334.654 835.679,-345.226 842.425,-343.357"/>
</g>
<!-- 23398 -->
<g id="node35" class="node"><title>23398</title>
<ellipse fill="white" stroke="black" cx="775" cy="-398.621" rx="27.6545" ry="27.6545"/>
<text text-anchor="middle" x="775" y="-396.421" font-family="Times,serif" font-size="9.00">23398</text>
</g>
<!-- enemyRadar[LeftFront20ø]&#45;&gt;23398 -->
<g id="edge57" class="edge"><title>enemyRadar[LeftFront20ø]&#45;&gt;23398</title>
<path fill="none" stroke="green" stroke-width="0.50925" d="M1068.72,-469.195C1005.33,-466.469 901.028,-457.139 817,-426.198 813.192,-424.796 809.365,-423.012 805.655,-421.033"/>
<polygon fill="green" stroke="green" stroke-width="0.50925" points="807.151,-417.853 796.752,-415.823 803.615,-423.895 807.151,-417.853"/>
</g>
<!-- enemyRadar[RightFront15ø] -->
<g id="node15" class="node"><title>enemyRadar[RightFront15ø]</title>
<polygon fill="lightgray" stroke="black" points="1499.5,-480.198 1380.5,-480.198 1380.5,-462.198 1499.5,-462.198 1499.5,-480.198"/>
<text text-anchor="middle" x="1440" y="-468.998" font-family="Times,serif" font-size="9.00">enemyRadar[RightFront15ø]</text>
</g>
<!-- enemyRadar[LeftFront15ø] -->
<g id="node16" class="node"><title>enemyRadar[LeftFront15ø]</title>
<polygon fill="lightgray" stroke="black" points="1778,-407.621 1664,-407.621 1664,-389.621 1778,-389.621 1778,-407.621"/>
<text text-anchor="middle" x="1721" y="-396.421" font-family="Times,serif" font-size="9.00">enemyRadar[LeftFront15ø]</text>
</g>
<!-- enemyRadar[LeftFront15ø]&#45;&gt;Move Forward/Backward -->
<g id="edge22" class="edge"><title>enemyRadar[LeftFront15ø]&#45;&gt;Move Forward/Backward</title>
<path fill="none" stroke="red" stroke-width="0.430469" d="M1663.85,-390.152C1568.6,-377.345 1385.31,-351.033 1360,-335.044 1334.62,-319.008 1340.6,-302.634 1321,-279.889 1305.02,-261.337 1286.37,-242.441 1268.72,-225.581"/>
<polygon fill="red" stroke="red" stroke-width="0.430469" points="1270.9,-222.821 1261.23,-218.486 1266.09,-227.904 1270.9,-222.821"/>
</g>
<!-- enemyRadar[LeftFront15ø]&#45;&gt;Turn left/right -->
<g id="edge26" class="edge"><title>enemyRadar[LeftFront15ø]&#45;&gt;Turn left/right</title>
<path fill="none" stroke="green" stroke-width="0.222245" stroke-dasharray="1,5" d="M1726.75,-389.486C1734.73,-377.885 1749.17,-355.701 1758,-335.044 1773.47,-298.856 1785.38,-256.106 1793.34,-222.889"/>
<polygon fill="green" stroke="green" stroke-width="0.222245" points="1796.81,-223.439 1795.69,-212.904 1789.99,-221.84 1796.81,-223.439"/>
</g>
<!-- 21921 -->
<g id="node29" class="node"><title>21921</title>
<ellipse fill="white" stroke="black" cx="1721" cy="-307.467" rx="27.6545" ry="27.6545"/>
<text text-anchor="middle" x="1721" y="-305.267" font-family="Times,serif" font-size="9.00">21921</text>
</g>
<!-- enemyRadar[LeftFront15ø]&#45;&gt;21921 -->
<g id="edge41" class="edge"><title>enemyRadar[LeftFront15ø]&#45;&gt;21921</title>
<path fill="none" stroke="red" stroke-width="0.623621" d="M1721,-389.393C1721,-379.421 1721,-361.94 1721,-345.771"/>
<polygon fill="red" stroke="red" stroke-width="0.623621" points="1724.5,-345.427 1721,-335.427 1717.5,-345.428 1724.5,-345.427"/>
</g>
<!-- 22885 -->
<g id="node31" class="node"><title>22885</title>
<ellipse fill="white" stroke="black" cx="1284" cy="-307.467" rx="27.6545" ry="27.6545"/>
<text text-anchor="middle" x="1284" y="-305.267" font-family="Times,serif" font-size="9.00">22885</text>
</g>
<!-- enemyRadar[LeftFront15ø]&#45;&gt;22885 -->
<g id="edge48" class="edge"><title>enemyRadar[LeftFront15ø]&#45;&gt;22885</title>
<path fill="none" stroke="green" stroke-width="0.145756" d="M1663.94,-389.884C1562.17,-375.895 1357.06,-346.758 1326,-335.044 1322.2,-333.612 1318.38,-331.809 1314.68,-329.82"/>
<polygon fill="green" stroke="green" stroke-width="0.145756" points="1316.18,-326.64 1305.78,-324.597 1312.63,-332.677 1316.18,-326.64"/>
</g>
<!-- 23369 -->
<g id="node34" class="node"><title>23369</title>
<ellipse fill="white" stroke="black" cx="1833" cy="-307.467" rx="27.6545" ry="27.6545"/>
<text text-anchor="middle" x="1833" y="-305.267" font-family="Times,serif" font-size="9.00">23369</text>
</g>
<!-- enemyRadar[LeftFront15ø]&#45;&gt;23369 -->
<g id="edge54" class="edge"><title>enemyRadar[LeftFront15ø]&#45;&gt;23369</title>
<path fill="none" stroke="green" stroke-width="0.154418" d="M1731.34,-389.393C1747.61,-376.437 1779.81,-350.804 1803.63,-331.843"/>
<polygon fill="green" stroke="green" stroke-width="0.154418" points="1806.03,-334.412 1811.67,-325.446 1801.67,-328.935 1806.03,-334.412"/>
</g>
<!-- enemyRadar[RightFront7.5ø] -->
<g id="node17" class="node"><title>enemyRadar[RightFront7.5ø]</title>
<polygon fill="lightgray" stroke="black" points="1131,-407.621 1009,-407.621 1009,-389.621 1131,-389.621 1131,-407.621"/>
<text text-anchor="middle" x="1070" y="-396.421" font-family="Times,serif" font-size="9.00">enemyRadar[RightFront7.5ø]</text>
</g>
<!-- enemyRadar[RightFront7.5ø]&#45;&gt;Turn left/right -->
<g id="edge19" class="edge"><title>enemyRadar[RightFront7.5ø]&#45;&gt;Turn left/right</title>
<path fill="none" stroke="red" stroke-width="0.490542" stroke-dasharray="1,5" d="M1087.13,-389.567C1101.05,-383.404 1121.36,-375.268 1140,-371.044 1234.17,-349.699 1489.46,-383.457 1573,-335.044 1598.76,-320.118 1589.13,-300.086 1611,-279.889 1653.24,-240.879 1711.38,-209.552 1752.98,-190.042"/>
<polygon fill="red" stroke="red" stroke-width="0.490542" points="1754.51,-193.191 1762.12,-185.82 1751.57,-186.836 1754.51,-193.191"/>
</g>
<!-- enemyRadar[RightFront7.5ø]&#45;&gt;20505 -->
<g id="edge44" class="edge"><title>enemyRadar[RightFront7.5ø]&#45;&gt;20505</title>
<path fill="none" stroke="red" stroke-width="0.419722" d="M1054.98,-389.552C1028.53,-375.347 973.07,-345.562 937.234,-326.316"/>
<polygon fill="red" stroke="red" stroke-width="0.419722" points="938.597,-323.075 928.132,-321.427 935.285,-329.242 938.597,-323.075"/>
</g>
<!-- enemyRadar[LeftFront7.5ø] -->
<g id="node18" class="node"><title>enemyRadar[LeftFront7.5ø]</title>
<polygon fill="lightgray" stroke="black" points="1634,-480.198 1518,-480.198 1518,-462.198 1634,-462.198 1634,-480.198"/>
<text text-anchor="middle" x="1576" y="-468.998" font-family="Times,serif" font-size="9.00">enemyRadar[LeftFront7.5ø]</text>
</g>
<!-- enemyRadar[RightFront2.5ø] -->
<g id="node19" class="node"><title>enemyRadar[RightFront2.5ø]</title>
<polygon fill="lightgray" stroke="black" points="855,-480.198 733,-480.198 733,-462.198 855,-462.198 855,-480.198"/>
<text text-anchor="middle" x="794" y="-468.998" font-family="Times,serif" font-size="9.00">enemyRadar[RightFront2.5ø]</text>
</g>
<!-- enemyRadar[RightFront2.5ø]&#45;&gt;Move Forward/Backward -->
<g id="edge29" class="edge"><title>enemyRadar[RightFront2.5ø]&#45;&gt;Move Forward/Backward</title>
<path fill="none" stroke="green" stroke-width="0.157095" d="M855.107,-464.694C889.064,-459.192 930.655,-448.191 962,-426.198 986.368,-409.1 980.93,-393.901 1000,-371.044 1043.35,-319.078 1097.9,-265.243 1139.68,-226.046"/>
<polygon fill="green" stroke="green" stroke-width="0.157095" points="1142.15,-228.533 1147.06,-219.148 1137.37,-223.418 1142.15,-228.533"/>
</g>
<!-- enemyRadar[RightFront2.5ø]&#45;&gt; Move Left/Right -->
<g id="edge3" class="edge"><title>enemyRadar[RightFront2.5ø]&#45;&gt; Move Left/Right</title>
<path fill="none" stroke="red" stroke-width="0.367269" stroke-dasharray="1,5" d="M732.721,-469.167C660.967,-466.512 548.511,-457.342 522,-426.198 461.493,-355.116 560.894,-258.36 627.514,-205.724"/>
<polygon fill="red" stroke="red" stroke-width="0.367269" points="629.727,-208.437 635.463,-199.528 625.424,-202.915 629.727,-208.437"/>
</g>
<!-- 23328 -->
<g id="node32" class="node"><title>23328</title>
<ellipse fill="white" stroke="black" cx="663" cy="-398.621" rx="27.6545" ry="27.6545"/>
<text text-anchor="middle" x="663" y="-396.421" font-family="Times,serif" font-size="9.00">23328</text>
</g>
<!-- enemyRadar[RightFront2.5ø]&#45;&gt;23328 -->
<g id="edge52" class="edge"><title>enemyRadar[RightFront2.5ø]&#45;&gt;23328</title>
<path fill="none" stroke="red" stroke-width="0.294749" d="M776.324,-462.131C758.16,-453.686 729.197,-439.786 705,-426.198 701.544,-424.257 697.975,-422.157 694.447,-420.017"/>
<polygon fill="red" stroke="red" stroke-width="0.294749" points="696.187,-416.978 685.843,-414.685 692.499,-422.928 696.187,-416.978"/>
</g>
<!-- enemyRadar[RightFront2.5ø]&#45;&gt;22601 -->
<g id="edge46" class="edge"><title>enemyRadar[RightFront2.5ø]&#45;&gt;22601</title>
<path fill="none" stroke="green" stroke-width="0.933758" stroke-dasharray="1,5" d="M776.78,-462.1C763.466,-454.791 745.999,-442.656 738,-426.198 727.284,-404.151 726.254,-392.559 738,-371.044 752.178,-345.074 769.532,-351.68 794,-335.044 796.175,-333.565 798.409,-332.022 800.65,-330.457"/>
<polygon fill="green" stroke="green" stroke-width="0.933758" points="803.077,-333.027 809.219,-324.395 799.034,-327.313 803.077,-333.027"/>
</g>
<!-- enemyRadar[RightFront2.5ø]&#45;&gt;20505 -->
<g id="edge33" class="edge"><title>enemyRadar[RightFront2.5ø]&#45;&gt;20505</title>
<path fill="none" stroke="green" stroke-width="1.68524" d="M799.606,-461.955C814.765,-439.668 857.163,-377.331 883.026,-339.304"/>
<polygon fill="green" stroke="green" stroke-width="1.68524" points="886.175,-340.898 888.905,-330.66 880.387,-336.961 886.175,-340.898"/>
</g>
<!-- 22107 -->
<g id="node40" class="node"><title>22107</title>
<ellipse fill="white" stroke="black" cx="925" cy="-398.621" rx="27.6545" ry="27.6545"/>
<text text-anchor="middle" x="925" y="-396.421" font-family="Times,serif" font-size="9.00">22107</text>
</g>
<!-- enemyRadar[RightFront2.5ø]&#45;&gt;22107 -->
<g id="edge42" class="edge"><title>enemyRadar[RightFront2.5ø]&#45;&gt;22107</title>
<path fill="none" stroke="green" stroke-width="0.341668" d="M811.676,-462.131C829.84,-453.686 858.803,-439.786 883,-426.198 886.456,-424.257 890.025,-422.157 893.553,-420.017"/>
<polygon fill="green" stroke="green" stroke-width="0.341668" points="895.501,-422.928 902.157,-414.685 891.813,-416.978 895.501,-422.928"/>
</g>
<!-- enemyRadar[LeftFront2.5ø] -->
<g id="node20" class="node"><title>enemyRadar[LeftFront2.5ø]</title>
<polygon fill="lightgray" stroke="black" points="116,-316.467 7.10543e-15,-316.467 7.10543e-15,-298.467 116,-298.467 116,-316.467"/>
<text text-anchor="middle" x="58" y="-305.267" font-family="Times,serif" font-size="9.00">enemyRadar[LeftFront2.5ø]</text>
</g>
<!-- enemyRadar[LeftFront2.5ø]&#45;&gt;Shoot -->
<g id="edge17" class="edge"><title>enemyRadar[LeftFront2.5ø]&#45;&gt;Shoot</title>
<path fill="none" stroke="green" stroke-width="0.825066" stroke-dasharray="1,5" d="M55.7026,-298.459C47.2338,-267.079 21.0561,-151.182 77,-89.7401 116.927,-45.8896 298.713,-32.833 377.925,-29.1881"/>
<polygon fill="green" stroke="green" stroke-width="0.825066" points="378.113,-32.6833 387.951,-28.7521 377.809,-25.6899 378.113,-32.6833"/>
</g>
<!-- 20806 -->
<g id="node30" class="node"><title>20806</title>
<ellipse fill="white" stroke="black" cx="114" cy="-166.815" rx="27.6545" ry="27.6545"/>
<text text-anchor="middle" x="114" y="-164.615" font-family="Times,serif" font-size="9.00">20806</text>
</g>
<!-- enemyRadar[LeftFront2.5ø]&#45;&gt;20806 -->
<g id="edge34" class="edge"><title>enemyRadar[LeftFront2.5ø]&#45;&gt;20806</title>
<path fill="none" stroke="green" stroke-width="0.431533" stroke-dasharray="1,5" d="M61.3354,-298.208C68.804,-279.717 87.231,-234.093 100.172,-202.051"/>
<polygon fill="green" stroke="green" stroke-width="0.431533" points="103.495,-203.171 103.994,-192.588 97.004,-200.549 103.495,-203.171"/>
</g>
<!-- enemyRadar[LeftFront2.5ø]&#45;&gt;21299 -->
<g id="edge37" class="edge"><title>enemyRadar[LeftFront2.5ø]&#45;&gt;21299</title>
<path fill="none" stroke="green" stroke-width="0.258487" d="M74.4361,-298.394C94.4186,-287.958 128.282,-268.206 151,-243.889 162.62,-231.452 172.469,-215.407 179.883,-201.261"/>
<polygon fill="green" stroke="green" stroke-width="0.258487" points="183.026,-202.802 184.398,-192.296 176.774,-199.653 183.026,-202.802"/>
</g>
<!-- enemyRadar[Front7Ø] -->
<g id="node21" class="node"><title>enemyRadar[Front7Ø]</title>
<polygon fill="lightgray" stroke="black" points="1200,-316.467 1102,-316.467 1102,-298.467 1200,-298.467 1200,-316.467"/>
<text text-anchor="middle" x="1151" y="-305.267" font-family="Times,serif" font-size="9.00">enemyRadar[Front7Ø]</text>
</g>
<!-- enemyRadar[Front7Ø]&#45;&gt;Move Forward/Backward -->
<g id="edge24" class="edge"><title>enemyRadar[Front7Ø]&#45;&gt;Move Forward/Backward</title>
<path fill="none" stroke="red" stroke-width="0.156104" d="M1154.16,-298.208C1158.14,-287.794 1165.41,-268.773 1173.19,-248.419"/>
<polygon fill="red" stroke="red" stroke-width="0.156104" points="1176.49,-249.591 1176.79,-239 1169.95,-247.091 1176.49,-249.591"/>
</g>
<!-- OnTarget -->
<g id="node22" class="node"><title>OnTarget</title>
<polygon fill="lightgray" stroke="black" points="1929,-316.467 1879,-316.467 1879,-298.467 1929,-298.467 1929,-316.467"/>
<text text-anchor="middle" x="1904" y="-305.267" font-family="Times,serif" font-size="9.00">OnTarget</text>
</g>
<!-- OnTarget&#45;&gt;Turn left/right -->
<g id="edge23" class="edge"><title>OnTarget&#45;&gt;Turn left/right</title>
<path fill="none" stroke="green" stroke-width="0.544587" stroke-dasharray="1,5" d="M1898.1,-298.208C1886.42,-281.849 1859.58,-244.253 1837.7,-213.613"/>
<polygon fill="green" stroke="green" stroke-width="0.544587" points="1840.34,-211.283 1831.68,-205.179 1834.64,-215.351 1840.34,-211.283"/>
</g>
<!-- bias -->
<g id="node23" class="node"><title>bias</title>
<polygon fill="lightgray" stroke="black" points="1972.5,-407.621 1941.5,-407.621 1941.5,-389.621 1972.5,-389.621 1972.5,-407.621"/>
<text text-anchor="middle" x="1957" y="-396.421" font-family="Times,serif" font-size="9.00">bias</text>
</g>
<!-- bias&#45;&gt; Move Left/Right -->
<g id="edge2" class="edge"><title>bias&#45;&gt; Move Left/Right</title>
<path fill="none" stroke="green" stroke-width="0.214004" stroke-dasharray="1,5" d="M1941.13,-394.579C1911.15,-388.955 1844.05,-376.967 1787,-371.044 1633.4,-355.096 1241.23,-378.377 1093,-335.044 1045.4,-321.128 1041.1,-300.514 996,-279.889 910.528,-240.802 807.169,-206.437 742.486,-186.387"/>
<polygon fill="green" stroke="green" stroke-width="0.214004" points="743.426,-183.014 732.838,-183.414 741.364,-189.704 743.426,-183.014"/>
</g>
<!-- bias&#45;&gt;Turn left/right -->
<g id="edge15" class="edge"><title>bias&#45;&gt;Turn left/right</title>
<path fill="none" stroke="green" stroke-width="0.508366" stroke-dasharray="1,5" d="M1957.54,-389.571C1958.52,-369.58 1958.81,-316.641 1938,-279.889 1918.16,-244.856 1882.91,-215.912 1853.68,-196.219"/>
<polygon fill="green" stroke="green" stroke-width="0.508366" points="1855.5,-193.227 1845.22,-190.661 1851.65,-199.078 1855.5,-193.227"/>
</g>
<!-- 21205 -->
<g id="node38" class="node"><title>21205</title>
<ellipse fill="white" stroke="black" cx="2013" cy="-307.467" rx="27.6545" ry="27.6545"/>
<text text-anchor="middle" x="2013" y="-305.267" font-family="Times,serif" font-size="9.00">21205</text>
</g>
<!-- bias&#45;&gt;21205 -->
<g id="edge35" class="edge"><title>bias&#45;&gt;21205</title>
<path fill="none" stroke="green" stroke-width="0.372049" d="M1962.17,-389.393C1969.18,-378.234 1982.09,-357.671 1993.15,-340.066"/>
<polygon fill="green" stroke="green" stroke-width="0.372049" points="1996.37,-341.524 1998.72,-331.195 1990.44,-337.801 1996.37,-341.524"/>
</g>
<!-- 14404&#45;&gt;Turn left/right -->
<g id="edge25" class="edge"><title>14404&#45;&gt;Turn left/right</title>
<path fill="none" stroke="green" stroke-width="0.255707" d="M1668.2,-288.624C1692.02,-267.587 1732.25,-232.061 1762.94,-204.963"/>
<polygon fill="green" stroke="green" stroke-width="0.255707" points="1765.34,-207.512 1770.52,-198.269 1760.7,-202.265 1765.34,-207.512"/>
</g>
<!-- 22885&#45;&gt;Move Forward/Backward -->
<g id="edge49" class="edge"><title>22885&#45;&gt;Move Forward/Backward</title>
<path fill="none" stroke="red" stroke-width="0.457024" stroke-dasharray="1,5" d="M1270.61,-283.259C1264.03,-271.853 1255.69,-257.398 1247.16,-242.609"/>
<polygon fill="red" stroke="red" stroke-width="0.457024" points="1250.15,-240.796 1242.12,-233.883 1244.09,-244.294 1250.15,-240.796"/>
</g>
<!-- 23328&#45;&gt;22601 -->
<g id="edge53" class="edge"><title>23328&#45;&gt;22601</title>
<path fill="none" stroke="green" stroke-width="0.405348" d="M685.669,-382.233C691.813,-378.353 698.552,-374.354 705,-371.044 742.959,-351.557 756.629,-355.636 794,-335.044 796.303,-333.775 798.632,-332.387 800.942,-330.932"/>
<polygon fill="green" stroke="green" stroke-width="0.405348" points="803.288,-333.574 809.655,-325.105 799.397,-327.755 803.288,-333.574"/>
</g>
<!-- 22601&#45;&gt; Move Left/Right -->
<g id="edge47" class="edge"><title>22601&#45;&gt; Move Left/Right</title>
<path fill="none" stroke="red" stroke-width="0.601742" d="M810.948,-288.055C789.813,-268.647 755.756,-237.376 727.672,-211.589"/>
<polygon fill="red" stroke="red" stroke-width="0.601742" points="730.033,-209.005 720.3,-204.819 725.299,-214.161 730.033,-209.005"/>
</g>
<!-- 23369&#45;&gt;Turn left/right -->
<g id="edge55" class="edge"><title>23369&#45;&gt;Turn left/right</title>
<path fill="none" stroke="red" stroke-width="0.311041" d="M1827.73,-280.387C1824.44,-264.08 1820.07,-242.458 1816.05,-222.524"/>
<polygon fill="red" stroke="red" stroke-width="0.311041" points="1819.45,-221.708 1814.04,-212.599 1812.59,-223.094 1819.45,-221.708"/>
</g>
<!-- 23398&#45;&gt;22601 -->
<g id="edge58" class="edge"><title>23398&#45;&gt;22601</title>
<path fill="none" stroke="red" stroke-width="0.347153" d="M789.421,-374.661C796.019,-364.158 803.943,-351.542 811.096,-340.154"/>
<polygon fill="red" stroke="red" stroke-width="0.347153" points="814.272,-341.678 816.627,-331.348 808.345,-337.955 814.272,-341.678"/>
</g>
<!-- 18321&#45;&gt;Shoot -->
<g id="edge28" class="edge"><title>18321&#45;&gt;Shoot</title>
<path fill="none" stroke="green" stroke-width="2.17526" d="M460.859,-140.834C451.843,-118.626 438.589,-85.9761 428.645,-61.4817"/>
<polygon fill="green" stroke="green" stroke-width="2.17526" points="431.882,-60.151 424.878,-52.2019 425.396,-62.784 431.882,-60.151"/>
</g>
<!-- 21299&#45;&gt;Shoot -->
<g id="edge38" class="edge"><title>21299&#45;&gt;Shoot</title>
<path fill="none" stroke="red" stroke-width="0.302375" d="M207.918,-142.025C218.005,-125.392 233.409,-103.735 252,-89.7401 290.408,-60.8282 343.897,-43.9767 378.972,-35.349"/>
<polygon fill="red" stroke="red" stroke-width="0.302375" points="379.861,-38.7356 388.788,-33.0308 378.252,-31.9229 379.861,-38.7356"/>
</g>
<!-- 21205&#45;&gt;Turn left/right -->
<g id="edge36" class="edge"><title>21205&#45;&gt;Turn left/right</title>
<path fill="none" stroke="green" stroke-width="0.266797" stroke-dasharray="1,5" d="M1990.34,-291.364C1957.28,-269.321 1895.04,-227.834 1851.86,-199.05"/>
<polygon fill="green" stroke="green" stroke-width="0.266797" points="1853.75,-196.107 1843.49,-193.472 1849.87,-201.931 1853.75,-196.107"/>
</g>
<!-- 20505&#45;&gt;Move Forward/Backward -->
<g id="edge32" class="edge"><title>20505&#45;&gt;Move Forward/Backward</title>
<path fill="none" stroke="green" stroke-width="0.209185" d="M926.727,-291.19C932.87,-287.309 939.594,-283.281 946,-279.889 1003.59,-249.393 1071.25,-220.237 1122.82,-199.311"/>
<polygon fill="green" stroke="green" stroke-width="0.209185" points="1124.3,-202.49 1132.26,-195.501 1121.68,-195.999 1124.3,-202.49"/>
</g>
<!-- 20505&#45;&gt;18321 -->
<g id="edge45" class="edge"><title>20505&#45;&gt;18321</title>
<path fill="none" stroke="red" stroke-width="0.132347" stroke-dasharray="1,5" d="M883.351,-288.573C878.572,-285.21 873.319,-282.069 868,-279.889 763.312,-236.989 723.656,-278.676 616,-243.889 574.505,-230.481 530.675,-205.827 502.208,-188.218"/>
<polygon fill="red" stroke="red" stroke-width="0.132347" points="503.859,-185.122 493.528,-182.772 500.138,-191.051 503.859,-185.122"/>
</g>
<!-- 22107&#45;&gt;20505 -->
<g id="edge43" class="edge"><title>22107&#45;&gt;20505</title>
<path fill="none" stroke="red" stroke-width="0.123064" stroke-dasharray="1,5" d="M918.813,-371.354C916.826,-362.92 914.59,-353.427 912.469,-344.423"/>
<polygon fill="red" stroke="red" stroke-width="0.123064" points="915.842,-343.477 910.143,-334.546 909.029,-345.082 915.842,-343.477"/>
</g>
</g>
</svg>
