<?xml version="1.0" encoding="UTF-8" standalone="no"?>
<!DOCTYPE svg PUBLIC "-//W3C//DTD SVG 1.1//EN"
 "http://www.w3.org/Graphics/SVG/1.1/DTD/svg11.dtd">
<!-- Generated by graphviz version 2.38.0 (20140413.2041)
 -->
<!-- Title: %3 Pages: 1 -->
<svg width="3003pt" height="162pt"
 viewBox="0.00 0.00 3002.67 162.15" xmlns="http://www.w3.org/2000/svg" xmlns:xlink="http://www.w3.org/1999/xlink">
<g id="graph0" class="graph" transform="scale(1 1) rotate(0) translate(4 158.149)">
<title>%3</title>
<polygon fill="white" stroke="none" points="-4,4 -4,-158.149 2998.67,-158.149 2998.67,4 -4,4"/>
<!-- wallRadar[1,0] -->
<g id="node1" class="node"><title>wallRadar[1,0]</title>
<polygon fill="lightgray" stroke="black" points="70,-86.0746 0,-86.0746 0,-68.0746 70,-68.0746 70,-86.0746"/>
<text text-anchor="middle" x="35" y="-74.8746" font-family="Times,serif" font-size="9.00">wallRadar[1,0]</text>
</g>
<!-- wallRadar[0,1] -->
<g id="node2" class="node"><title>wallRadar[0,1]</title>
<polygon fill="lightgray" stroke="black" points="158,-86.0746 88,-86.0746 88,-68.0746 158,-68.0746 158,-86.0746"/>
<text text-anchor="middle" x="123" y="-74.8746" font-family="Times,serif" font-size="9.00">wallRadar[0,1]</text>
</g>
<!-- wallRadar[&#45;1,0] -->
<g id="node3" class="node"><title>wallRadar[&#45;1,0]</title>
<polygon fill="lightgray" stroke="black" points="249.5,-86.0746 176.5,-86.0746 176.5,-68.0746 249.5,-68.0746 249.5,-86.0746"/>
<text text-anchor="middle" x="213" y="-74.8746" font-family="Times,serif" font-size="9.00">wallRadar[&#45;1,0]</text>
</g>
<!-- wallRadar[0,&#45;1] -->
<g id="node4" class="node"><title>wallRadar[0,&#45;1]</title>
<polygon fill="lightgray" stroke="black" points="340.5,-86.0746 267.5,-86.0746 267.5,-68.0746 340.5,-68.0746 340.5,-86.0746"/>
<text text-anchor="middle" x="304" y="-74.8746" font-family="Times,serif" font-size="9.00">wallRadar[0,&#45;1]</text>
</g>
<!-- wallRadar[0.7,0.7] -->
<g id="node5" class="node"><title>wallRadar[0.7,0.7]</title>
<polygon fill="lightgray" stroke="black" points="441.5,-86.0746 358.5,-86.0746 358.5,-68.0746 441.5,-68.0746 441.5,-86.0746"/>
<text text-anchor="middle" x="400" y="-74.8746" font-family="Times,serif" font-size="9.00">wallRadar[0.7,0.7]</text>
</g>
<!-- wallRadar[&#45;0.7,0.7] -->
<g id="node6" class="node"><title>wallRadar[&#45;0.7,0.7]</title>
<polygon fill="lightgray" stroke="black" points="546,-86.0746 460,-86.0746 460,-68.0746 546,-68.0746 546,-86.0746"/>
<text text-anchor="middle" x="503" y="-74.8746" font-family="Times,serif" font-size="9.00">wallRadar[&#45;0.7,0.7]</text>
</g>
<!-- wallRadar[&#45;0.7,&#45;0.7] -->
<g id="node7" class="node"><title>wallRadar[&#45;0.7,&#45;0.7]</title>
<polygon fill="lightgray" stroke="black" points="653.5,-86.0746 564.5,-86.0746 564.5,-68.0746 653.5,-68.0746 653.5,-86.0746"/>
<text text-anchor="middle" x="609" y="-74.8746" font-family="Times,serif" font-size="9.00">wallRadar[&#45;0.7,&#45;0.7]</text>
</g>
<!-- wallRadar[0.7,&#45;0.7] -->
<g id="node8" class="node"><title>wallRadar[0.7,&#45;0.7]</title>
<polygon fill="lightgray" stroke="black" points="758,-86.0746 672,-86.0746 672,-68.0746 758,-68.0746 758,-86.0746"/>
<text text-anchor="middle" x="715" y="-74.8746" font-family="Times,serif" font-size="9.00">wallRadar[0.7,&#45;0.7]</text>
</g>
<!-- enemyRadar[RightBack] -->
<g id="node9" class="node"><title>enemyRadar[RightBack]</title>
<polygon fill="lightgray" stroke="black" points="880,-86.0746 776,-86.0746 776,-68.0746 880,-68.0746 880,-86.0746"/>
<text text-anchor="middle" x="828" y="-74.8746" font-family="Times,serif" font-size="9.00">enemyRadar[RightBack]</text>
</g>
<!-- enemyRadar[LeftBack] -->
<g id="node10" class="node"><title>enemyRadar[LeftBack]</title>
<polygon fill="lightgray" stroke="black" points="997.5,-86.0746 898.5,-86.0746 898.5,-68.0746 997.5,-68.0746 997.5,-86.0746"/>
<text text-anchor="middle" x="948" y="-74.8746" font-family="Times,serif" font-size="9.00">enemyRadar[LeftBack]</text>
</g>
<!-- enemyRadar[Right45ø] -->
<g id="node11" class="node"><title>enemyRadar[Right45ø]</title>
<polygon fill="lightgray" stroke="black" points="1116,-86.0746 1016,-86.0746 1016,-68.0746 1116,-68.0746 1116,-86.0746"/>
<text text-anchor="middle" x="1066" y="-74.8746" font-family="Times,serif" font-size="9.00">enemyRadar[Right45ø]</text>
</g>
<!-- enemyRadar[Left45ø] -->
<g id="node12" class="node"><title>enemyRadar[Left45ø]</title>
<polygon fill="lightgray" stroke="black" points="1229.5,-86.0746 1134.5,-86.0746 1134.5,-68.0746 1229.5,-68.0746 1229.5,-86.0746"/>
<text text-anchor="middle" x="1182" y="-74.8746" font-family="Times,serif" font-size="9.00">enemyRadar[Left45ø]</text>
</g>
<!-- enemyRadar[RightFront20ø] -->
<g id="node13" class="node"><title>enemyRadar[RightFront20ø]</title>
<polygon fill="lightgray" stroke="black" points="1366.5,-86.0746 1247.5,-86.0746 1247.5,-68.0746 1366.5,-68.0746 1366.5,-86.0746"/>
<text text-anchor="middle" x="1307" y="-74.8746" font-family="Times,serif" font-size="9.00">enemyRadar[RightFront20ø]</text>
</g>
<!-- enemyRadar[LeftFront20ø] -->
<g id="node14" class="node"><title>enemyRadar[LeftFront20ø]</title>
<polygon fill="lightgray" stroke="black" points="1499,-86.0746 1385,-86.0746 1385,-68.0746 1499,-68.0746 1499,-86.0746"/>
<text text-anchor="middle" x="1442" y="-74.8746" font-family="Times,serif" font-size="9.00">enemyRadar[LeftFront20ø]</text>
</g>
<!-- enemyRadar[RightFront15ø] -->
<g id="node15" class="node"><title>enemyRadar[RightFront15ø]</title>
<polygon fill="lightgray" stroke="black" points="1636.5,-86.0746 1517.5,-86.0746 1517.5,-68.0746 1636.5,-68.0746 1636.5,-86.0746"/>
<text text-anchor="middle" x="1577" y="-74.8746" font-family="Times,serif" font-size="9.00">enemyRadar[RightFront15ø]</text>
</g>
<!-- enemyRadar[LeftFront15ø] -->
<g id="node16" class="node"><title>enemyRadar[LeftFront15ø]</title>
<polygon fill="lightgray" stroke="black" points="1769,-86.0746 1655,-86.0746 1655,-68.0746 1769,-68.0746 1769,-86.0746"/>
<text text-anchor="middle" x="1712" y="-74.8746" font-family="Times,serif" font-size="9.00">enemyRadar[LeftFront15ø]</text>
</g>
<!-- enemyRadar[RightFront7.5ø] -->
<g id="node17" class="node"><title>enemyRadar[RightFront7.5ø]</title>
<polygon fill="lightgray" stroke="black" points="1909,-86.0746 1787,-86.0746 1787,-68.0746 1909,-68.0746 1909,-86.0746"/>
<text text-anchor="middle" x="1848" y="-74.8746" font-family="Times,serif" font-size="9.00">enemyRadar[RightFront7.5ø]</text>
</g>
<!-- enemyRadar[LeftFront7.5ø] -->
<g id="node18" class="node"><title>enemyRadar[LeftFront7.5ø]</title>
<polygon fill="lightgray" stroke="black" points="2043,-86.0746 1927,-86.0746 1927,-68.0746 2043,-68.0746 2043,-86.0746"/>
<text text-anchor="middle" x="1985" y="-74.8746" font-family="Times,serif" font-size="9.00">enemyRadar[LeftFront7.5ø]</text>
</g>
<!-- enemyRadar[RightFront2.5ø] -->
<g id="node19" class="node"><title>enemyRadar[RightFront2.5ø]</title>
<polygon fill="lightgray" stroke="black" points="2183,-86.0746 2061,-86.0746 2061,-68.0746 2183,-68.0746 2183,-86.0746"/>
<text text-anchor="middle" x="2122" y="-74.8746" font-family="Times,serif" font-size="9.00">enemyRadar[RightFront2.5ø]</text>
</g>
<!-- enemyRadar[LeftFront2.5ø] -->
<g id="node20" class="node"><title>enemyRadar[LeftFront2.5ø]</title>
<polygon fill="lightgray" stroke="black" points="2317,-86.0746 2201,-86.0746 2201,-68.0746 2317,-68.0746 2317,-86.0746"/>
<text text-anchor="middle" x="2259" y="-74.8746" font-family="Times,serif" font-size="9.00">enemyRadar[LeftFront2.5ø]</text>
</g>
<!-- OnTarget -->
<g id="node21" class="node"><title>OnTarget</title>
<polygon fill="lightgray" stroke="black" points="2385,-86.0746 2335,-86.0746 2335,-68.0746 2385,-68.0746 2385,-86.0746"/>
<text text-anchor="middle" x="2360" y="-74.8746" font-family="Times,serif" font-size="9.00">OnTarget</text>
</g>
<!-- TakingDmg -->
<g id="node22" class="node"><title>TakingDmg</title>
<polygon fill="lightgray" stroke="black" points="2462.5,-86.0746 2403.5,-86.0746 2403.5,-68.0746 2462.5,-68.0746 2462.5,-86.0746"/>
<text text-anchor="middle" x="2433" y="-74.8746" font-family="Times,serif" font-size="9.00">TakingDmg</text>
</g>
<!-- bias -->
<g id="node23" class="node"><title>bias</title>
<polygon fill="lightgray" stroke="black" points="2511.5,-86.0746 2480.5,-86.0746 2480.5,-68.0746 2511.5,-68.0746 2511.5,-86.0746"/>
<text text-anchor="middle" x="2496" y="-74.8746" font-family="Times,serif" font-size="9.00">bias</text>
</g>
<!-- Shoot -->
<g id="node24" class="node"><title>Shoot</title>
<ellipse fill="lightblue" stroke="black" cx="2556" cy="-77.0746" rx="26.7407" ry="26.7407"/>
<text text-anchor="middle" x="2556" y="-74.8746" font-family="Times,serif" font-size="9.00">Shoot</text>
</g>
<!-- Move Forward/Backward -->
<g id="node25" class="node"><title>Move Forward/Backward</title>
<ellipse fill="lightblue" stroke="black" cx="2678" cy="-77.0746" rx="77.1494" ry="77.1494"/>
<text text-anchor="middle" x="2678" y="-74.8746" font-family="Times,serif" font-size="9.00">Move Forward/Backward</text>
</g>
<!--  Move Left/Right -->
<g id="node26" class="node"><title> Move Left/Right</title>
<ellipse fill="lightblue" stroke="black" cx="2828" cy="-77.0746" rx="55.3091" ry="55.3091"/>
<text text-anchor="middle" x="2828" y="-74.8746" font-family="Times,serif" font-size="9.00"> Move Left/Right</text>
</g>
<!-- Turn left/right -->
<g id="node27" class="node"><title>Turn left/right</title>
<ellipse fill="lightblue" stroke="black" cx="2948" cy="-77.0746" rx="46.8387" ry="46.8387"/>
<text text-anchor="middle" x="2948" y="-74.8746" font-family="Times,serif" font-size="9.00">Turn left/right</text>
</g>
</g>
</svg>
