<?xml version="1.0" encoding="UTF-8" standalone="no"?>
<!DOCTYPE svg PUBLIC "-//W3C//DTD SVG 1.1//EN"
 "http://www.w3.org/Graphics/SVG/1.1/DTD/svg11.dtd">
<!-- Generated by graphviz version 2.38.0 (20140413.2041)
 -->
<!-- Title: %3 Pages: 1 -->
<svg width="2558pt" height="216pt"
 viewBox="0.00 0.00 2558.00 216.15" xmlns="http://www.w3.org/2000/svg" xmlns:xlink="http://www.w3.org/1999/xlink">
<g id="graph0" class="graph" transform="scale(1 1) rotate(0) translate(4 212.149)">
<title>%3</title>
<polygon fill="white" stroke="none" points="-4,4 -4,-212.149 2554,-212.149 2554,4 -4,4"/>
<!-- wallRadar[1,0] -->
<g id="node1" class="node"><title>wallRadar[1,0]</title>
<polygon fill="lightgray" stroke="black" points="1694,-208.149 1624,-208.149 1624,-190.149 1694,-190.149 1694,-208.149"/>
<text text-anchor="middle" x="1659" y="-196.949" font-family="Times,serif" font-size="9.00">wallRadar[1,0]</text>
</g>
<!-- Turn left/right -->
<g id="node27" class="node"><title>Turn left/right</title>
<ellipse fill="lightblue" stroke="black" cx="1378" cy="-77.0746" rx="46.8387" ry="46.8387"/>
<text text-anchor="middle" x="1378" y="-74.8746" font-family="Times,serif" font-size="9.00">Turn left/right</text>
</g>
<!-- wallRadar[1,0]&#45;&gt;Turn left/right -->
<g id="edge36" class="edge"><title>wallRadar[1,0]&#45;&gt;Turn left/right</title>
<path fill="none" stroke="red" stroke-width="0.250715" d="M1640.13,-190.084C1597.7,-171.954 1493.54,-127.445 1430.03,-100.308"/>
<polygon fill="red" stroke="red" stroke-width="0.250715" points="1431.16,-96.9829 1420.59,-96.2719 1428.41,-103.42 1431.16,-96.9829"/>
</g>
<!-- wallRadar[0,1] -->
<g id="node2" class="node"><title>wallRadar[0,1]</title>
<polygon fill="lightgray" stroke="black" points="70,-208.149 0,-208.149 0,-190.149 70,-190.149 70,-208.149"/>
<text text-anchor="middle" x="35" y="-196.949" font-family="Times,serif" font-size="9.00">wallRadar[0,1]</text>
</g>
<!--  Move Left/Right -->
<g id="node26" class="node"><title> Move Left/Right</title>
<ellipse fill="lightblue" stroke="black" cx="559" cy="-77.0746" rx="55.3091" ry="55.3091"/>
<text text-anchor="middle" x="559" y="-74.8746" font-family="Times,serif" font-size="9.00"> Move Left/Right</text>
</g>
<!-- wallRadar[0,1]&#45;&gt; Move Left/Right -->
<g id="edge15" class="edge"><title>wallRadar[0,1]&#45;&gt; Move Left/Right</title>
<path fill="none" stroke="red" stroke-width="0.172929" d="M70.1948,-190.084C157.399,-170.101 384.447,-118.074 495.698,-92.5804"/>
<polygon fill="red" stroke="red" stroke-width="0.172929" points="496.482,-95.9915 505.447,-90.3463 494.918,-89.1684 496.482,-95.9915"/>
</g>
<!-- wallRadar[&#45;1,0] -->
<g id="node3" class="node"><title>wallRadar[&#45;1,0]</title>
<polygon fill="lightgray" stroke="black" points="229.5,-208.149 156.5,-208.149 156.5,-190.149 229.5,-190.149 229.5,-208.149"/>
<text text-anchor="middle" x="193" y="-196.949" font-family="Times,serif" font-size="9.00">wallRadar[&#45;1,0]</text>
</g>
<!-- Move Forward/Backward -->
<g id="node25" class="node"><title>Move Forward/Backward</title>
<ellipse fill="lightblue" stroke="black" cx="1015" cy="-77.0746" rx="77.1494" ry="77.1494"/>
<text text-anchor="middle" x="1015" y="-74.8746" font-family="Times,serif" font-size="9.00">Move Forward/Backward</text>
</g>
<!-- wallRadar[&#45;1,0]&#45;&gt;Move Forward/Backward -->
<g id="edge22" class="edge"><title>wallRadar[&#45;1,0]&#45;&gt;Move Forward/Backward</title>
<path fill="none" stroke="red" stroke-width="0.407497" d="M229.618,-191.513C232.787,-191.02 235.947,-190.557 239,-190.149 408.905,-167.446 453.324,-178.507 623,-154.149 729.443,-138.869 850.813,-114.176 929.941,-97.0868"/>
<polygon fill="red" stroke="red" stroke-width="0.407497" points="930.826,-100.476 939.858,-94.9372 929.343,-93.6352 930.826,-100.476"/>
</g>
<!-- wallRadar[&#45;1,0]&#45;&gt; Move Left/Right -->
<g id="edge18" class="edge"><title>wallRadar[&#45;1,0]&#45;&gt; Move Left/Right</title>
<path fill="none" stroke="red" stroke-width="0.495775" d="M217.583,-190.084C274.184,-171.515 415.129,-125.275 497.142,-98.3687"/>
<polygon fill="red" stroke="red" stroke-width="0.495775" points="498.431,-101.629 506.841,-95.1865 496.249,-94.9782 498.431,-101.629"/>
</g>
<!-- wallRadar[0,&#45;1] -->
<g id="node4" class="node"><title>wallRadar[0,&#45;1]</title>
<polygon fill="lightgray" stroke="black" points="1785.5,-208.149 1712.5,-208.149 1712.5,-190.149 1785.5,-190.149 1785.5,-208.149"/>
<text text-anchor="middle" x="1749" y="-196.949" font-family="Times,serif" font-size="9.00">wallRadar[0,&#45;1]</text>
</g>
<!-- Shoot -->
<g id="node24" class="node"><title>Shoot</title>
<ellipse fill="lightblue" stroke="black" cx="1647" cy="-77.0746" rx="26.7407" ry="26.7407"/>
<text text-anchor="middle" x="1647" y="-74.8746" font-family="Times,serif" font-size="9.00">Shoot</text>
</g>
<!-- wallRadar[0,&#45;1]&#45;&gt;Shoot -->
<g id="edge16" class="edge"><title>wallRadar[0,&#45;1]&#45;&gt;Shoot</title>
<path fill="none" stroke="red" stroke-width="0.408494" d="M1741.99,-189.896C1727.49,-172.825 1693.62,-132.957 1670.5,-105.745"/>
<polygon fill="red" stroke="red" stroke-width="0.408494" points="1673.14,-103.445 1664,-98.0901 1667.81,-107.977 1673.14,-103.445"/>
</g>
<!-- wallRadar[0,&#45;1]&#45;&gt;Move Forward/Backward -->
<g id="edge26" class="edge"><title>wallRadar[0,&#45;1]&#45;&gt;Move Forward/Backward</title>
<path fill="none" stroke="green" stroke-width="0.432913" d="M1712.38,-191.516C1709.21,-191.022 1706.05,-190.558 1703,-190.149 1534.42,-167.561 1489.68,-182.683 1322,-154.149 1245.6,-141.147 1160.12,-119.358 1098.8,-102.423"/>
<polygon fill="green" stroke="green" stroke-width="0.432913" points="1099.36,-98.946 1088.79,-99.6417 1097.49,-105.691 1099.36,-98.946"/>
</g>
<!-- wallRadar[0,&#45;1]&#45;&gt;Turn left/right -->
<g id="edge20" class="edge"><title>wallRadar[0,&#45;1]&#45;&gt;Turn left/right</title>
<path fill="none" stroke="red" stroke-width="0.110836" stroke-dasharray="1,5" d="M1723.55,-190.092C1695.84,-181.309 1650.25,-166.813 1611,-154.149 1549.56,-134.325 1479.11,-111.281 1431.91,-95.7944"/>
<polygon fill="red" stroke="red" stroke-width="0.110836" points="1432.8,-92.4012 1422.2,-92.6084 1430.61,-99.0522 1432.8,-92.4012"/>
</g>
<!-- wallRadar[0.7,0.7] -->
<g id="node5" class="node"><title>wallRadar[0.7,0.7]</title>
<polygon fill="lightgray" stroke="black" points="1355.5,-208.149 1272.5,-208.149 1272.5,-190.149 1355.5,-190.149 1355.5,-208.149"/>
<text text-anchor="middle" x="1314" y="-196.949" font-family="Times,serif" font-size="9.00">wallRadar[0.7,0.7]</text>
</g>
<!-- wallRadar[0.7,0.7]&#45;&gt;Shoot -->
<g id="edge40" class="edge"><title>wallRadar[0.7,0.7]&#45;&gt;Shoot</title>
<path fill="none" stroke="green" stroke-width="0.311013" d="M1336.37,-190.084C1393.35,-169.536 1544.31,-115.104 1612.59,-90.4818"/>
<polygon fill="green" stroke="green" stroke-width="0.311013" points="1613.83,-93.7575 1622.05,-87.0729 1611.45,-87.1725 1613.83,-93.7575"/>
</g>
<!-- wallRadar[0.7,0.7]&#45;&gt;Move Forward/Backward -->
<g id="edge31" class="edge"><title>wallRadar[0.7,0.7]&#45;&gt;Move Forward/Backward</title>
<path fill="none" stroke="green" stroke-width="0.217874" d="M1293.92,-190.084C1254.03,-174.064 1162.85,-137.448 1095.54,-110.42"/>
<polygon fill="green" stroke="green" stroke-width="0.217874" points="1096.8,-107.152 1086.21,-106.673 1094.19,-113.647 1096.8,-107.152"/>
</g>
<!-- wallRadar[&#45;0.7,0.7] -->
<g id="node6" class="node"><title>wallRadar[&#45;0.7,0.7]</title>
<polygon fill="lightgray" stroke="black" points="1014,-208.149 928,-208.149 928,-190.149 1014,-190.149 1014,-208.149"/>
<text text-anchor="middle" x="971" y="-196.949" font-family="Times,serif" font-size="9.00">wallRadar[&#45;0.7,0.7]</text>
</g>
<!-- wallRadar[&#45;0.7,0.7]&#45;&gt;Move Forward/Backward -->
<g id="edge37" class="edge"><title>wallRadar[&#45;0.7,0.7]&#45;&gt;Move Forward/Backward</title>
<path fill="none" stroke="red" stroke-width="0.167533" d="M974.024,-189.896C976.624,-182.803 980.665,-171.774 985.217,-159.352"/>
<polygon fill="red" stroke="red" stroke-width="0.167533" points="988.627,-160.218 988.782,-149.624 982.055,-157.809 988.627,-160.218"/>
</g>
<!-- wallRadar[&#45;0.7,0.7]&#45;&gt;Turn left/right -->
<g id="edge12" class="edge"><title>wallRadar[&#45;0.7,0.7]&#45;&gt;Turn left/right</title>
<path fill="none" stroke="green" stroke-width="0.160857" d="M998.336,-190.084C1064.75,-170.49 1235.6,-120.085 1323.69,-94.0976"/>
<polygon fill="green" stroke="green" stroke-width="0.160857" points="1324.89,-97.3916 1333.49,-91.2049 1322.91,-90.6776 1324.89,-97.3916"/>
</g>
<!-- wallRadar[&#45;0.7,&#45;0.7] -->
<g id="node7" class="node"><title>wallRadar[&#45;0.7,&#45;0.7]</title>
<polygon fill="lightgray" stroke="black" points="603.5,-208.149 514.5,-208.149 514.5,-190.149 603.5,-190.149 603.5,-208.149"/>
<text text-anchor="middle" x="559" y="-196.949" font-family="Times,serif" font-size="9.00">wallRadar[&#45;0.7,&#45;0.7]</text>
</g>
<!-- wallRadar[&#45;0.7,&#45;0.7]&#45;&gt;Move Forward/Backward -->
<g id="edge25" class="edge"><title>wallRadar[&#45;0.7,&#45;0.7]&#45;&gt;Move Forward/Backward</title>
<path fill="none" stroke="red" stroke-width="0.188277" d="M589.628,-190.084C658.495,-171.95 827.585,-127.425 930.634,-100.29"/>
<polygon fill="red" stroke="red" stroke-width="0.188277" points="931.616,-103.651 940.395,-97.7198 929.833,-96.8817 931.616,-103.651"/>
</g>
<!-- wallRadar[&#45;0.7,&#45;0.7]&#45;&gt; Move Left/Right -->
<g id="edge45" class="edge"><title>wallRadar[&#45;0.7,&#45;0.7]&#45;&gt; Move Left/Right</title>
<path fill="none" stroke="green" stroke-width="0.216826" d="M559,-189.896C559,-179.701 559,-161.375 559,-142.47"/>
<polygon fill="green" stroke="green" stroke-width="0.216826" points="562.5,-142.265 559,-132.265 555.5,-142.265 562.5,-142.265"/>
</g>
<!-- wallRadar[&#45;0.7,&#45;0.7]&#45;&gt;Turn left/right -->
<g id="edge4" class="edge"><title>wallRadar[&#45;0.7,&#45;0.7]&#45;&gt;Turn left/right</title>
<path fill="none" stroke="red" stroke-width="0.257839" d="M603.501,-191.18C606.374,-190.808 609.226,-190.46 612,-190.149 828.565,-165.869 886.248,-191.181 1101,-154.149 1180.05,-140.519 1269.11,-113.985 1324.4,-96.1436"/>
<polygon fill="red" stroke="red" stroke-width="0.257839" points="1325.56,-99.4483 1333.98,-93.0286 1323.39,-92.7911 1325.56,-99.4483"/>
</g>
<!-- wallRadar[0.7,&#45;0.7] -->
<g id="node8" class="node"><title>wallRadar[0.7,&#45;0.7]</title>
<polygon fill="lightgray" stroke="black" points="2006,-208.149 1920,-208.149 1920,-190.149 2006,-190.149 2006,-208.149"/>
<text text-anchor="middle" x="1963" y="-196.949" font-family="Times,serif" font-size="9.00">wallRadar[0.7,&#45;0.7]</text>
</g>
<!-- wallRadar[0.7,&#45;0.7]&#45;&gt;Shoot -->
<g id="edge6" class="edge"><title>wallRadar[0.7,&#45;0.7]&#45;&gt;Shoot</title>
<path fill="none" stroke="green" stroke-width="0.252965" d="M1941.78,-190.084C1888.2,-169.728 1747.12,-116.119 1681.49,-91.1803"/>
<polygon fill="green" stroke="green" stroke-width="0.252965" points="1682.59,-87.855 1672,-87.5747 1680.11,-94.3985 1682.59,-87.855"/>
</g>
<!-- wallRadar[0.7,&#45;0.7]&#45;&gt;Turn left/right -->
<g id="edge42" class="edge"><title>wallRadar[0.7,&#45;0.7]&#45;&gt;Turn left/right</title>
<path fill="none" stroke="red" stroke-width="0.133121" d="M1919.89,-191.404C1916.88,-190.968 1913.9,-190.546 1911,-190.149 1777.95,-171.937 1742.13,-183.129 1611,-154.149 1547.96,-140.218 1477.81,-116.082 1431.12,-98.7283"/>
<polygon fill="red" stroke="red" stroke-width="0.133121" points="1432.11,-95.3636 1421.52,-95.1343 1429.66,-101.919 1432.11,-95.3636"/>
</g>
<!-- enemyRadar[RightBack] -->
<g id="node9" class="node"><title>enemyRadar[RightBack]</title>
<polygon fill="lightgray" stroke="black" points="1254,-208.149 1150,-208.149 1150,-190.149 1254,-190.149 1254,-208.149"/>
<text text-anchor="middle" x="1202" y="-196.949" font-family="Times,serif" font-size="9.00">enemyRadar[RightBack]</text>
</g>
<!-- enemyRadar[RightBack]&#45;&gt;Shoot -->
<g id="edge1" class="edge"><title>enemyRadar[RightBack]&#45;&gt;Shoot</title>
<path fill="none" stroke="red" stroke-width="0.351546" d="M1254.13,-190.642C1301.49,-183.26 1373.07,-170.699 1434,-154.149 1498.55,-136.615 1571.5,-108.733 1613.1,-92.0368"/>
<polygon fill="red" stroke="red" stroke-width="0.351546" points="1614.52,-95.2391 1622.48,-88.2482 1611.89,-88.7487 1614.52,-95.2391"/>
</g>
<!-- enemyRadar[RightBack]&#45;&gt; Move Left/Right -->
<g id="edge38" class="edge"><title>enemyRadar[RightBack]&#45;&gt; Move Left/Right</title>
<path fill="none" stroke="red" stroke-width="0.120611" d="M1149.8,-190.419C1094.78,-182.11 1005.62,-168.193 929,-154.149 821.187,-134.387 696.437,-108.002 622.822,-92.0662"/>
<polygon fill="red" stroke="red" stroke-width="0.120611" points="623.296,-88.5877 612.781,-89.8887 621.812,-95.4286 623.296,-88.5877"/>
</g>
<!-- enemyRadar[RightBack]&#45;&gt;Turn left/right -->
<g id="edge7" class="edge"><title>enemyRadar[RightBack]&#45;&gt;Turn left/right</title>
<path fill="none" stroke="red" stroke-width="0.30935" d="M1213.82,-190.084C1237.4,-174.001 1291.4,-137.16 1331.06,-110.102"/>
<polygon fill="red" stroke="red" stroke-width="0.30935" points="1333.5,-112.671 1339.79,-104.143 1329.56,-106.888 1333.5,-112.671"/>
</g>
<!-- enemyRadar[LeftBack] -->
<g id="node10" class="node"><title>enemyRadar[LeftBack]</title>
<polygon fill="lightgray" stroke="black" points="720.5,-208.149 621.5,-208.149 621.5,-190.149 720.5,-190.149 720.5,-208.149"/>
<text text-anchor="middle" x="671" y="-196.949" font-family="Times,serif" font-size="9.00">enemyRadar[LeftBack]</text>
</g>
<!-- enemyRadar[LeftBack]&#45;&gt; Move Left/Right -->
<g id="edge21" class="edge"><title>enemyRadar[LeftBack]&#45;&gt; Move Left/Right</title>
<path fill="none" stroke="red" stroke-width="0.478344" d="M663.302,-189.896C650.94,-176.643 625.764,-149.652 603.244,-125.509"/>
<polygon fill="red" stroke="red" stroke-width="0.478344" points="605.738,-123.051 596.358,-118.126 600.619,-127.826 605.738,-123.051"/>
</g>
<!-- enemyRadar[LeftBack]&#45;&gt;Turn left/right -->
<g id="edge11" class="edge"><title>enemyRadar[LeftBack]&#45;&gt;Turn left/right</title>
<path fill="none" stroke="red" stroke-width="0.173313" d="M720.657,-191.165C723.478,-190.81 726.274,-190.469 729,-190.149 893.975,-170.797 937.645,-184.255 1101,-154.149 1179.89,-139.611 1268.99,-113.311 1324.33,-95.7674"/>
<polygon fill="red" stroke="red" stroke-width="0.173313" points="1325.46,-99.0805 1333.93,-92.7066 1323.34,-92.4117 1325.46,-99.0805"/>
</g>
<!-- enemyRadar[Right45ø] -->
<g id="node11" class="node"><title>enemyRadar[Right45ø]</title>
<polygon fill="lightgray" stroke="black" points="1132,-208.149 1032,-208.149 1032,-190.149 1132,-190.149 1132,-208.149"/>
<text text-anchor="middle" x="1082" y="-196.949" font-family="Times,serif" font-size="9.00">enemyRadar[Right45ø]</text>
</g>
<!-- enemyRadar[Right45ø]&#45;&gt;Move Forward/Backward -->
<g id="edge30" class="edge"><title>enemyRadar[Right45ø]&#45;&gt;Move Forward/Backward</title>
<path fill="none" stroke="red" stroke-width="0.242418" d="M1077.39,-189.896C1072.82,-181.702 1065.32,-168.256 1057.07,-153.479"/>
<polygon fill="red" stroke="red" stroke-width="0.242418" points="1060.08,-151.681 1052.15,-144.654 1053.97,-155.092 1060.08,-151.681"/>
</g>
<!-- enemyRadar[Right45ø]&#45;&gt;Turn left/right -->
<g id="edge34" class="edge"><title>enemyRadar[Right45ø]&#45;&gt;Turn left/right</title>
<path fill="none" stroke="green" stroke-width="0.334718" d="M1101.88,-190.084C1147.1,-171.741 1258.88,-126.397 1325.53,-99.3602"/>
<polygon fill="green" stroke="green" stroke-width="0.334718" points="1327.07,-102.512 1335.02,-95.5094 1324.44,-96.0253 1327.07,-102.512"/>
</g>
<!-- enemyRadar[Left45ø] -->
<g id="node12" class="node"><title>enemyRadar[Left45ø]</title>
<polygon fill="lightgray" stroke="black" points="1468.5,-208.149 1373.5,-208.149 1373.5,-190.149 1468.5,-190.149 1468.5,-208.149"/>
<text text-anchor="middle" x="1421" y="-196.949" font-family="Times,serif" font-size="9.00">enemyRadar[Left45ø]</text>
</g>
<!-- enemyRadar[Left45ø]&#45;&gt;Shoot -->
<g id="edge9" class="edge"><title>enemyRadar[Left45ø]&#45;&gt;Shoot</title>
<path fill="none" stroke="red" stroke-width="0.156635" d="M1436.18,-190.084C1472.44,-170.819 1564.76,-121.768 1614.34,-95.426"/>
<polygon fill="red" stroke="red" stroke-width="0.156635" points="1616.18,-98.4127 1623.37,-90.6298 1612.9,-92.231 1616.18,-98.4127"/>
</g>
<!-- enemyRadar[Left45ø]&#45;&gt;Move Forward/Backward -->
<g id="edge5" class="edge"><title>enemyRadar[Left45ø]&#45;&gt;Move Forward/Backward</title>
<path fill="none" stroke="green" stroke-width="0.51112" d="M1393.73,-190.084C1334.23,-172.487 1190.71,-130.04 1098.42,-102.747"/>
<polygon fill="green" stroke="green" stroke-width="0.51112" points="1099.4,-99.3875 1088.82,-99.9076 1097.42,-106.1 1099.4,-99.3875"/>
</g>
<!-- enemyRadar[RightFront20ø] -->
<g id="node13" class="node"><title>enemyRadar[RightFront20ø]</title>
<polygon fill="lightgray" stroke="black" points="1605.5,-208.149 1486.5,-208.149 1486.5,-190.149 1605.5,-190.149 1605.5,-208.149"/>
<text text-anchor="middle" x="1546" y="-196.949" font-family="Times,serif" font-size="9.00">enemyRadar[RightFront20ø]</text>
</g>
<!-- enemyRadar[RightFront20ø]&#45;&gt;Shoot -->
<g id="edge10" class="edge"><title>enemyRadar[RightFront20ø]&#45;&gt;Shoot</title>
<path fill="none" stroke="red" stroke-width="0.286221" d="M1552.94,-189.896C1567.3,-172.825 1600.84,-132.957 1623.73,-105.745"/>
<polygon fill="red" stroke="red" stroke-width="0.286221" points="1626.41,-107.996 1630.16,-98.0901 1621.05,-103.49 1626.41,-107.996"/>
</g>
<!-- enemyRadar[RightFront20ø]&#45;&gt;Move Forward/Backward -->
<g id="edge2" class="edge"><title>enemyRadar[RightFront20ø]&#45;&gt;Move Forward/Backward</title>
<path fill="none" stroke="green" stroke-width="0.537142" d="M1501.66,-190.103C1456.38,-181.729 1384.1,-167.933 1322,-154.149 1246.47,-137.383 1161.07,-116.026 1099.56,-100.212"/>
<polygon fill="green" stroke="green" stroke-width="0.537142" points="1100.07,-96.7292 1089.52,-97.6238 1098.33,-103.508 1100.07,-96.7292"/>
</g>
<!-- enemyRadar[LeftFront20ø] -->
<g id="node14" class="node"><title>enemyRadar[LeftFront20ø]</title>
<polygon fill="lightgray" stroke="black" points="496,-208.149 382,-208.149 382,-190.149 496,-190.149 496,-208.149"/>
<text text-anchor="middle" x="439" y="-196.949" font-family="Times,serif" font-size="9.00">enemyRadar[LeftFront20ø]</text>
</g>
<!-- enemyRadar[LeftFront20ø]&#45;&gt;Move Forward/Backward -->
<g id="edge24" class="edge"><title>enemyRadar[LeftFront20ø]&#45;&gt;Move Forward/Backward</title>
<path fill="none" stroke="green" stroke-width="0.398796" d="M477.687,-190.084C569.537,-170.937 802.52,-122.369 929.427,-95.9134"/>
<polygon fill="green" stroke="green" stroke-width="0.398796" points="930.424,-99.2809 939.499,-93.8137 928.995,-92.4282 930.424,-99.2809"/>
</g>
<!-- enemyRadar[RightFront15ø] -->
<g id="node15" class="node"><title>enemyRadar[RightFront15ø]</title>
<polygon fill="lightgray" stroke="black" points="2143.5,-208.149 2024.5,-208.149 2024.5,-190.149 2143.5,-190.149 2143.5,-208.149"/>
<text text-anchor="middle" x="2084" y="-196.949" font-family="Times,serif" font-size="9.00">enemyRadar[RightFront15ø]</text>
</g>
<!-- enemyRadar[RightFront15ø]&#45;&gt;Shoot -->
<g id="edge17" class="edge"><title>enemyRadar[RightFront15ø]&#45;&gt;Shoot</title>
<path fill="none" stroke="red" stroke-width="0.241171" d="M2054.65,-190.084C1977.12,-168.783 1767.08,-111.069 1682.75,-87.8978"/>
<polygon fill="red" stroke="red" stroke-width="0.241171" points="1683.44,-84.4586 1672.87,-85.1839 1681.59,-91.2084 1683.44,-84.4586"/>
</g>
<!-- enemyRadar[RightFront15ø]&#45;&gt;Turn left/right -->
<g id="edge41" class="edge"><title>enemyRadar[RightFront15ø]&#45;&gt;Turn left/right</title>
<path fill="none" stroke="red" stroke-width="0.34147" d="M2024.17,-191.114C2021.07,-190.78 2018,-190.457 2015,-190.149 1835.67,-171.767 1787.59,-190.357 1611,-154.149 1547.56,-141.143 1477.21,-116.718 1430.58,-99.0458"/>
<polygon fill="red" stroke="red" stroke-width="0.34147" points="1431.6,-95.6855 1421.01,-95.3837 1429.1,-102.224 1431.6,-95.6855"/>
</g>
<!-- enemyRadar[LeftFront15ø] -->
<g id="node16" class="node"><title>enemyRadar[LeftFront15ø]</title>
<polygon fill="lightgray" stroke="black" points="2276,-208.149 2162,-208.149 2162,-190.149 2276,-190.149 2276,-208.149"/>
<text text-anchor="middle" x="2219" y="-196.949" font-family="Times,serif" font-size="9.00">enemyRadar[LeftFront15ø]</text>
</g>
<!-- enemyRadar[LeftFront15ø]&#45;&gt;Shoot -->
<g id="edge44" class="edge"><title>enemyRadar[LeftFront15ø]&#45;&gt;Shoot</title>
<path fill="none" stroke="green" stroke-width="0.593861" d="M2180.58,-190.084C2075.6,-168.047 1784.96,-107.035 1682.95,-85.6218"/>
<polygon fill="green" stroke="green" stroke-width="0.593861" points="1683.63,-82.188 1673.13,-83.5588 1682.19,-89.0387 1683.63,-82.188"/>
</g>
<!-- enemyRadar[LeftFront15ø]&#45;&gt;Turn left/right -->
<g id="edge14" class="edge"><title>enemyRadar[LeftFront15ø]&#45;&gt;Turn left/right</title>
<path fill="none" stroke="red" stroke-width="0.209492" d="M2161.78,-191.021C2158.81,-190.712 2155.87,-190.419 2153,-190.149 1912.63,-167.616 1848.03,-199.97 1611,-154.149 1547.42,-141.859 1477.1,-117.299 1430.51,-99.3991"/>
<polygon fill="red" stroke="red" stroke-width="0.209492" points="1431.53,-96.0407 1420.95,-95.6874 1429,-102.567 1431.53,-96.0407"/>
</g>
<!-- enemyRadar[RightFront7.5ø] -->
<g id="node17" class="node"><title>enemyRadar[RightFront7.5ø]</title>
<polygon fill="lightgray" stroke="black" points="2416,-208.149 2294,-208.149 2294,-190.149 2416,-190.149 2416,-208.149"/>
<text text-anchor="middle" x="2355" y="-196.949" font-family="Times,serif" font-size="9.00">enemyRadar[RightFront7.5ø]</text>
</g>
<!-- enemyRadar[RightFront7.5ø]&#45;&gt;Shoot -->
<g id="edge35" class="edge"><title>enemyRadar[RightFront7.5ø]&#45;&gt;Shoot</title>
<path fill="none" stroke="green" stroke-width="0.280284" d="M2307.72,-190.131C2175.11,-167.64 1801.57,-104.29 1683.35,-84.2401"/>
<polygon fill="green" stroke="green" stroke-width="0.280284" points="1683.81,-80.7668 1673.36,-82.5454 1682.63,-87.6683 1683.81,-80.7668"/>
</g>
<!-- enemyRadar[RightFront7.5ø]&#45;&gt;Turn left/right -->
<g id="edge3" class="edge"><title>enemyRadar[RightFront7.5ø]&#45;&gt;Turn left/right</title>
<path fill="none" stroke="red" stroke-width="0.212585" d="M2293.94,-190.951C2290.92,-190.664 2287.93,-190.394 2285,-190.149 1986.06,-165.107 1905.89,-209.175 1611,-154.149 1547.34,-142.271 1477.03,-117.633 1430.48,-99.6026"/>
<polygon fill="red" stroke="red" stroke-width="0.212585" points="1431.5,-96.245 1420.91,-95.8623 1428.95,-102.764 1431.5,-96.245"/>
</g>
<!-- enemyRadar[LeftFront7.5ø] -->
<g id="node18" class="node"><title>enemyRadar[LeftFront7.5ø]</title>
<polygon fill="lightgray" stroke="black" points="2550,-208.149 2434,-208.149 2434,-190.149 2550,-190.149 2550,-208.149"/>
<text text-anchor="middle" x="2492" y="-196.949" font-family="Times,serif" font-size="9.00">enemyRadar[LeftFront7.5ø]</text>
</g>
<!-- enemyRadar[RightFront2.5ø] -->
<g id="node19" class="node"><title>enemyRadar[RightFront2.5ø]</title>
<polygon fill="lightgray" stroke="black" points="910,-208.149 788,-208.149 788,-190.149 910,-190.149 910,-208.149"/>
<text text-anchor="middle" x="849" y="-196.949" font-family="Times,serif" font-size="9.00">enemyRadar[RightFront2.5ø]</text>
</g>
<!-- enemyRadar[RightFront2.5ø]&#45;&gt;Shoot -->
<g id="edge29" class="edge"><title>enemyRadar[RightFront2.5ø]&#45;&gt;Shoot</title>
<path fill="none" stroke="green" stroke-width="0.21503" d="M910.067,-191.01C913.086,-190.707 916.077,-190.418 919,-190.149 1147.48,-169.118 1209.42,-201.175 1434,-154.149 1499.47,-140.44 1572.12,-111.292 1613.41,-93.3215"/>
<polygon fill="green" stroke="green" stroke-width="0.21503" points="1614.97,-96.4586 1622.71,-89.2286 1612.15,-90.051 1614.97,-96.4586"/>
</g>
<!-- enemyRadar[RightFront2.5ø]&#45;&gt;Move Forward/Backward -->
<g id="edge39" class="edge"><title>enemyRadar[RightFront2.5ø]&#45;&gt;Move Forward/Backward</title>
<path fill="none" stroke="red" stroke-width="0.2949" d="M860.149,-190.084C877.506,-177.53 912.35,-152.325 944.597,-129"/>
<polygon fill="red" stroke="red" stroke-width="0.2949" points="946.676,-131.816 952.727,-123.119 942.574,-126.144 946.676,-131.816"/>
</g>
<!-- enemyRadar[RightFront2.5ø]&#45;&gt; Move Left/Right -->
<g id="edge19" class="edge"><title>enemyRadar[RightFront2.5ø]&#45;&gt; Move Left/Right</title>
<path fill="none" stroke="green" stroke-width="0.328668" d="M829.522,-190.084C787.157,-172.543 685.157,-130.31 619.216,-103.007"/>
<polygon fill="green" stroke="green" stroke-width="0.328668" points="620.339,-99.6838 609.76,-99.092 617.661,-106.151 620.339,-99.6838"/>
</g>
<!-- enemyRadar[RightFront2.5ø]&#45;&gt;Turn left/right -->
<g id="edge33" class="edge"><title>enemyRadar[RightFront2.5ø]&#45;&gt;Turn left/right</title>
<path fill="none" stroke="green" stroke-width="0.401394" d="M903.862,-190.112C955.111,-182.24 1033.61,-169.25 1101,-154.149 1179.04,-136.661 1268.01,-111.229 1323.59,-94.6692"/>
<polygon fill="green" stroke="green" stroke-width="0.401394" points="1324.65,-98.0047 1333.23,-91.7859 1322.65,-91.2982 1324.65,-98.0047"/>
</g>
<!-- enemyRadar[LeftFront2.5ø] -->
<g id="node20" class="node"><title>enemyRadar[LeftFront2.5ø]</title>
<polygon fill="lightgray" stroke="black" points="364,-208.149 248,-208.149 248,-190.149 364,-190.149 364,-208.149"/>
<text text-anchor="middle" x="306" y="-196.949" font-family="Times,serif" font-size="9.00">enemyRadar[LeftFront2.5ø]</text>
</g>
<!-- enemyRadar[LeftFront2.5ø]&#45;&gt; Move Left/Right -->
<g id="edge23" class="edge"><title>enemyRadar[LeftFront2.5ø]&#45;&gt; Move Left/Right</title>
<path fill="none" stroke="red" stroke-width="0.490306" d="M322.993,-190.084C358.623,-173.174 442.606,-133.316 500.142,-106.009"/>
<polygon fill="red" stroke="red" stroke-width="0.490306" points="501.959,-109.021 509.492,-101.571 498.957,-102.697 501.959,-109.021"/>
</g>
<!-- enemyRadar[LeftFront2.5ø]&#45;&gt;Turn left/right -->
<g id="edge13" class="edge"><title>enemyRadar[LeftFront2.5ø]&#45;&gt;Turn left/right</title>
<path fill="none" stroke="green" stroke-width="0.335719" d="M364.079,-190.964C367.094,-190.67 370.082,-190.395 373,-190.149 695.805,-162.929 781.121,-205.351 1101,-154.149 1180.21,-141.471 1269.23,-114.694 1324.47,-96.5385"/>
<polygon fill="green" stroke="green" stroke-width="0.335719" points="1325.65,-99.8338 1334.04,-93.3665 1323.45,-93.1889 1325.65,-99.8338"/>
</g>
<!-- enemyRadar[Front7Ø] -->
<g id="node21" class="node"><title>enemyRadar[Front7Ø]</title>
<polygon fill="lightgray" stroke="black" points="1902,-208.149 1804,-208.149 1804,-190.149 1902,-190.149 1902,-208.149"/>
<text text-anchor="middle" x="1853" y="-196.949" font-family="Times,serif" font-size="9.00">enemyRadar[Front7Ø]</text>
</g>
<!-- enemyRadar[Front7Ø]&#45;&gt;Shoot -->
<g id="edge28" class="edge"><title>enemyRadar[Front7Ø]&#45;&gt;Shoot</title>
<path fill="none" stroke="green" stroke-width="0.532337" d="M1839.16,-190.084C1806.59,-171.096 1724.37,-123.172 1678.74,-96.5756"/>
<polygon fill="green" stroke="green" stroke-width="0.532337" points="1680.26,-93.4109 1669.86,-91.3989 1676.74,-99.4585 1680.26,-93.4109"/>
</g>
<!-- enemyRadar[Front7Ø]&#45;&gt;Turn left/right -->
<g id="edge43" class="edge"><title>enemyRadar[Front7Ø]&#45;&gt;Turn left/right</title>
<path fill="none" stroke="green" stroke-width="0.320632" d="M1803.91,-191.226C1754.72,-183.82 1677.03,-170.85 1611,-154.149 1548.41,-138.32 1478.18,-114.536 1431.34,-97.7834"/>
<polygon fill="green" stroke="green" stroke-width="0.320632" points="1432.31,-94.4114 1421.71,-94.3208 1429.94,-100.998 1432.31,-94.4114"/>
</g>
<!-- OnTarget -->
<g id="node22" class="node"><title>OnTarget</title>
<polygon fill="lightgray" stroke="black" points="138,-208.149 88,-208.149 88,-190.149 138,-190.149 138,-208.149"/>
<text text-anchor="middle" x="113" y="-196.949" font-family="Times,serif" font-size="9.00">OnTarget</text>
</g>
<!-- OnTarget&#45;&gt; Move Left/Right -->
<g id="edge8" class="edge"><title>OnTarget&#45;&gt; Move Left/Right</title>
<path fill="none" stroke="green" stroke-width="0.159263" d="M138.257,-191.35C206.49,-172.979 396.092,-121.934 495.824,-95.0833"/>
<polygon fill="green" stroke="green" stroke-width="0.159263" points="497.027,-98.3842 505.773,-92.4048 495.207,-91.6249 497.027,-98.3842"/>
</g>
<!-- bias -->
<g id="node23" class="node"><title>bias</title>
<polygon fill="lightgray" stroke="black" points="769.5,-208.149 738.5,-208.149 738.5,-190.149 769.5,-190.149 769.5,-208.149"/>
<text text-anchor="middle" x="754" y="-196.949" font-family="Times,serif" font-size="9.00">bias</text>
</g>
<!-- bias&#45;&gt;Shoot -->
<g id="edge27" class="edge"><title>bias&#45;&gt;Shoot</title>
<path fill="none" stroke="green" stroke-width="0.214239" d="M769.715,-192.452C772.76,-191.539 775.953,-190.711 779,-190.149 1065.72,-137.292 1148.2,-211.778 1434,-154.149 1499.57,-140.928 1572.19,-111.619 1613.44,-93.4852"/>
<polygon fill="green" stroke="green" stroke-width="0.214239" points="1615.02,-96.613 1622.74,-89.3536 1612.18,-90.2162 1615.02,-96.613"/>
</g>
<!-- bias&#45;&gt; Move Left/Right -->
<g id="edge32" class="edge"><title>bias&#45;&gt; Move Left/Right</title>
<path fill="none" stroke="red" stroke-width="0.172744" d="M740.903,-190.084C715.445,-174.408 657.961,-139.011 614.378,-112.175"/>
<polygon fill="red" stroke="red" stroke-width="0.172744" points="616.211,-109.193 605.86,-106.93 612.54,-115.153 616.211,-109.193"/>
</g>
</g>
</svg>
