<?xml version="1.0" encoding="UTF-8" standalone="no"?>
<!DOCTYPE svg PUBLIC "-//W3C//DTD SVG 1.1//EN"
 "http://www.w3.org/Graphics/SVG/1.1/DTD/svg11.dtd">
<!-- Generated by graphviz version 2.38.0 (20140413.2041)
 -->
<!-- Title: %3 Pages: 1 -->
<svg width="2333pt" height="302pt"
 viewBox="0.00 0.00 2333.38 301.65" xmlns="http://www.w3.org/2000/svg" xmlns:xlink="http://www.w3.org/1999/xlink">
<g id="graph0" class="graph" transform="scale(1 1) rotate(0) translate(4 297.647)">
<title>%3</title>
<polygon fill="white" stroke="none" points="-4,4 -4,-297.647 2329.38,-297.647 2329.38,4 -4,4"/>
<!-- wallRadar[1,0] -->
<g id="node1" class="node"><title>wallRadar[1,0]</title>
<polygon fill="lightgray" stroke="black" points="530.375,-223.898 460.375,-223.898 460.375,-205.898 530.375,-205.898 530.375,-223.898"/>
<text text-anchor="middle" x="495.375" y="-212.698" font-family="Times,serif" font-size="9.00">wallRadar[1,0]</text>
</g>
<!--  Move Left/Right -->
<g id="node26" class="node"><title> Move Left/Right</title>
<ellipse fill="lightblue" stroke="black" cx="1089.38" cy="-77.0746" rx="55.3091" ry="55.3091"/>
<text text-anchor="middle" x="1089.38" y="-74.8746" font-family="Times,serif" font-size="9.00"> Move Left/Right</text>
</g>
<!-- wallRadar[1,0]&#45;&gt; Move Left/Right -->
<g id="edge13" class="edge"><title>wallRadar[1,0]&#45;&gt; Move Left/Right</title>
<path fill="none" stroke="green" stroke-width="0.2055" d="M508,-205.789C516.553,-200.626 528.277,-194.175 539.375,-190.149 584.741,-173.693 889.21,-115.6 1024.64,-90.159"/>
<polygon fill="green" stroke="green" stroke-width="0.2055" points="1025.69,-93.5231 1034.87,-88.2385 1024.4,-86.6433 1025.69,-93.5231"/>
</g>
<!-- Turn left/right -->
<g id="node27" class="node"><title>Turn left/right</title>
<ellipse fill="lightblue" stroke="black" cx="634.375" cy="-77.0746" rx="46.8387" ry="46.8387"/>
<text text-anchor="middle" x="634.375" y="-74.8746" font-family="Times,serif" font-size="9.00">Turn left/right</text>
</g>
<!-- wallRadar[1,0]&#45;&gt;Turn left/right -->
<g id="edge5" class="edge"><title>wallRadar[1,0]&#45;&gt;Turn left/right</title>
<path fill="none" stroke="red" stroke-width="0.227853" stroke-dasharray="1,5" d="M503.654,-205.808C521.023,-188.837 562.268,-148.534 593.821,-117.702"/>
<polygon fill="red" stroke="red" stroke-width="0.227853" points="596.499,-119.979 601.205,-110.486 591.607,-114.972 596.499,-119.979"/>
</g>
<!-- wallRadar[0,1] -->
<g id="node2" class="node"><title>wallRadar[0,1]</title>
<polygon fill="lightgray" stroke="black" points="1704.38,-223.898 1634.38,-223.898 1634.38,-205.898 1704.38,-205.898 1704.38,-223.898"/>
<text text-anchor="middle" x="1669.38" y="-212.698" font-family="Times,serif" font-size="9.00">wallRadar[0,1]</text>
</g>
<!-- Shoot -->
<g id="node24" class="node"><title>Shoot</title>
<ellipse fill="lightblue" stroke="black" cx="1669.38" cy="-77.0746" rx="26.7407" ry="26.7407"/>
<text text-anchor="middle" x="1669.38" y="-74.8746" font-family="Times,serif" font-size="9.00">Shoot</text>
</g>
<!-- wallRadar[0,1]&#45;&gt;Shoot -->
<g id="edge22" class="edge"><title>wallRadar[0,1]&#45;&gt;Shoot</title>
<path fill="none" stroke="green" stroke-width="1.07718" stroke-dasharray="1,5" d="M1669.38,-205.808C1669.38,-188.158 1669.38,-145.273 1669.38,-114.05"/>
<polygon fill="green" stroke="green" stroke-width="1.07718" points="1672.88,-113.962 1669.38,-103.962 1665.88,-113.962 1672.88,-113.962"/>
</g>
<!-- Move Forward/Backward -->
<g id="node25" class="node"><title>Move Forward/Backward</title>
<ellipse fill="lightblue" stroke="black" cx="1798.38" cy="-77.0746" rx="77.1494" ry="77.1494"/>
<text text-anchor="middle" x="1798.38" y="-74.8746" font-family="Times,serif" font-size="9.00">Move Forward/Backward</text>
</g>
<!-- wallRadar[0,1]&#45;&gt;Move Forward/Backward -->
<g id="edge36" class="edge"><title>wallRadar[0,1]&#45;&gt;Move Forward/Backward</title>
<path fill="none" stroke="green" stroke-width="0.445278" d="M1677.06,-205.808C1689.3,-192.918 1714.33,-166.567 1738.49,-141.13"/>
<polygon fill="green" stroke="green" stroke-width="0.445278" points="1741.25,-143.299 1745.6,-133.638 1736.18,-138.478 1741.25,-143.299"/>
</g>
<!-- wallRadar[0,1]&#45;&gt; Move Left/Right -->
<g id="edge23" class="edge"><title>wallRadar[0,1]&#45;&gt; Move Left/Right</title>
<path fill="none" stroke="green" stroke-width="2.32858" d="M1656.74,-205.808C1648.19,-200.652 1636.46,-194.203 1625.38,-190.149 1461.58,-130.26 1257.29,-98.6522 1154.66,-85.5467"/>
<polygon fill="green" stroke="green" stroke-width="2.32858" points="1154.81,-82.038 1144.45,-84.2615 1153.93,-88.9832 1154.81,-82.038"/>
</g>
<!-- wallRadar[&#45;1,0] -->
<g id="node3" class="node"><title>wallRadar[&#45;1,0]</title>
<polygon fill="lightgray" stroke="black" points="214.875,-293.647 141.875,-293.647 141.875,-275.647 214.875,-275.647 214.875,-293.647"/>
<text text-anchor="middle" x="178.375" y="-282.447" font-family="Times,serif" font-size="9.00">wallRadar[&#45;1,0]</text>
</g>
<!-- wallRadar[&#45;1,0]&#45;&gt;Move Forward/Backward -->
<g id="edge30" class="edge"><title>wallRadar[&#45;1,0]&#45;&gt;Move Forward/Backward</title>
<path fill="none" stroke="red" stroke-width="1.48034" d="M214.925,-283.476C471.216,-282.197 1989.6,-273.209 2022.38,-239.647 2078.1,-182.58 1966.84,-131.458 1882.07,-102.649"/>
<polygon fill="red" stroke="red" stroke-width="1.48034" points="1882.99,-99.2671 1872.39,-99.4188 1880.77,-105.907 1882.99,-99.2671"/>
</g>
<!-- wallRadar[&#45;1,0]&#45;&gt;Turn left/right -->
<g id="edge24" class="edge"><title>wallRadar[&#45;1,0]&#45;&gt;Turn left/right</title>
<path fill="none" stroke="red" stroke-width="0.929391" stroke-dasharray="1,5" d="M141.872,-279.281C97.4303,-273.128 26.3101,-260.293 10.3752,-239.647 -3.06611,-222.232 -3.73861,-207.024 10.3752,-190.149 82.539,-103.87 437.219,-83.9203 577.306,-79.3833"/>
<polygon fill="red" stroke="red" stroke-width="0.929391" points="577.525,-82.8783 587.412,-79.0708 577.309,-75.8816 577.525,-82.8783"/>
</g>
<!-- 9477 -->
<g id="node28" class="node"><title>9477</title>
<ellipse fill="white" stroke="black" cx="178.375" cy="-214.898" rx="25" ry="25"/>
<text text-anchor="middle" x="178.375" y="-212.698" font-family="Times,serif" font-size="9.00">9477</text>
</g>
<!-- wallRadar[&#45;1,0]&#45;&gt;9477 -->
<g id="edge45" class="edge"><title>wallRadar[&#45;1,0]&#45;&gt;9477</title>
<path fill="none" stroke="green" stroke-width="0.208691" d="M178.375,-275.609C178.375,-269.174 178.375,-259.676 178.375,-250.14"/>
<polygon fill="green" stroke="green" stroke-width="0.208691" points="181.875,-249.919 178.375,-239.919 174.875,-249.919 181.875,-249.919"/>
</g>
<!-- wallRadar[0,&#45;1] -->
<g id="node4" class="node"><title>wallRadar[0,&#45;1]</title>
<polygon fill="lightgray" stroke="black" points="1911.88,-223.898 1838.88,-223.898 1838.88,-205.898 1911.88,-205.898 1911.88,-223.898"/>
<text text-anchor="middle" x="1875.38" y="-212.698" font-family="Times,serif" font-size="9.00">wallRadar[0,&#45;1]</text>
</g>
<!-- wallRadar[0,&#45;1]&#45;&gt;Shoot -->
<g id="edge44" class="edge"><title>wallRadar[0,&#45;1]&#45;&gt;Shoot</title>
<path fill="none" stroke="red" stroke-width="0.473156" d="M1861.52,-205.707C1852.78,-200.767 1841.16,-194.592 1830.38,-190.149 1779.68,-169.26 1755.14,-188.465 1712.38,-154.149 1698.88,-143.323 1688.88,-127.049 1681.93,-112.327"/>
<polygon fill="red" stroke="red" stroke-width="0.473156" points="1685.04,-110.692 1677.8,-102.951 1678.63,-113.513 1685.04,-110.692"/>
</g>
<!-- wallRadar[0,&#45;1]&#45;&gt;Move Forward/Backward -->
<g id="edge25" class="edge"><title>wallRadar[0,&#45;1]&#45;&gt;Move Forward/Backward</title>
<path fill="none" stroke="green" stroke-width="0.618045" d="M1870.79,-205.808C1864.64,-194.966 1853.1,-174.603 1841,-153.27"/>
<polygon fill="green" stroke="green" stroke-width="0.618045" points="1843.96,-151.393 1835.99,-144.42 1837.87,-154.845 1843.96,-151.393"/>
</g>
<!-- wallRadar[0.7,0.7] -->
<g id="node5" class="node"><title>wallRadar[0.7,0.7]</title>
<polygon fill="lightgray" stroke="black" points="2012.88,-223.898 1929.88,-223.898 1929.88,-205.898 2012.88,-205.898 2012.88,-223.898"/>
<text text-anchor="middle" x="1971.38" y="-212.698" font-family="Times,serif" font-size="9.00">wallRadar[0.7,0.7]</text>
</g>
<!-- wallRadar[0.7,0.7]&#45;&gt;Shoot -->
<g id="edge42" class="edge"><title>wallRadar[0.7,0.7]&#45;&gt;Shoot</title>
<path fill="none" stroke="red" stroke-width="1.41493" d="M1956.93,-205.739C1947.17,-200.555 1933.83,-194.099 1921.38,-190.149 1831.53,-161.665 1789.45,-208.412 1712.38,-154.149 1698.03,-144.047 1687.87,-127.544 1681.04,-112.486"/>
<polygon fill="red" stroke="red" stroke-width="1.41493" points="1684.11,-110.757 1677.02,-102.882 1677.65,-113.458 1684.11,-110.757"/>
</g>
<!-- wallRadar[0.7,0.7]&#45;&gt;Move Forward/Backward -->
<g id="edge15" class="edge"><title>wallRadar[0.7,0.7]&#45;&gt;Move Forward/Backward</title>
<path fill="none" stroke="red" stroke-width="0.508721" stroke-dasharray="1,5" d="M1961.07,-205.808C1942.61,-191.314 1902.47,-159.801 1866.68,-131.705"/>
<polygon fill="red" stroke="red" stroke-width="0.508721" points="1868.68,-128.82 1858.65,-125.397 1864.35,-134.326 1868.68,-128.82"/>
</g>
<!-- wallRadar[&#45;0.7,0.7] -->
<g id="node6" class="node"><title>wallRadar[&#45;0.7,0.7]</title>
<polygon fill="lightgray" stroke="black" points="2012.38,-293.647 1926.38,-293.647 1926.38,-275.647 2012.38,-275.647 2012.38,-293.647"/>
<text text-anchor="middle" x="1969.38" y="-282.447" font-family="Times,serif" font-size="9.00">wallRadar[&#45;0.7,0.7]</text>
</g>
<!-- wallRadar[&#45;0.7,0.7]&#45;&gt;Move Forward/Backward -->
<g id="edge37" class="edge"><title>wallRadar[&#45;0.7,0.7]&#45;&gt;Move Forward/Backward</title>
<path fill="none" stroke="green" stroke-width="0.295219" stroke-dasharray="1,5" d="M2003.54,-275.531C2022.34,-269.131 2044.09,-258.103 2055.38,-239.647 2066.85,-220.88 2067.43,-208.553 2055.38,-190.149 2017.81,-132.792 1943.79,-104.624 1884.79,-90.8878"/>
<polygon fill="green" stroke="green" stroke-width="0.295219" points="1885.23,-87.4009 1874.71,-88.6459 1883.71,-94.2339 1885.23,-87.4009"/>
</g>
<!-- 8825 -->
<g id="node29" class="node"><title>8825</title>
<ellipse fill="white" stroke="black" cx="1747.38" cy="-214.898" rx="25" ry="25"/>
<text text-anchor="middle" x="1747.38" y="-212.698" font-family="Times,serif" font-size="9.00">8825</text>
</g>
<!-- wallRadar[&#45;0.7,0.7]&#45;&gt;8825 -->
<g id="edge40" class="edge"><title>wallRadar[&#45;0.7,0.7]&#45;&gt;8825</title>
<path fill="none" stroke="green" stroke-width="0.16673" d="M1926.07,-278.278C1886.97,-272.336 1828.51,-260.687 1781.38,-239.647 1779.29,-238.717 1777.2,-237.653 1775.14,-236.503"/>
<polygon fill="green" stroke="green" stroke-width="0.16673" points="1776.73,-233.369 1766.39,-231.056 1773.03,-239.312 1776.73,-233.369"/>
</g>
<!-- wallRadar[&#45;0.7,&#45;0.7] -->
<g id="node7" class="node"><title>wallRadar[&#45;0.7,&#45;0.7]</title>
<polygon fill="lightgray" stroke="black" points="309.875,-223.898 220.875,-223.898 220.875,-205.898 309.875,-205.898 309.875,-223.898"/>
<text text-anchor="middle" x="265.375" y="-212.698" font-family="Times,serif" font-size="9.00">wallRadar[&#45;0.7,&#45;0.7]</text>
</g>
<!-- wallRadar[&#45;0.7,&#45;0.7]&#45;&gt;Turn left/right -->
<g id="edge20" class="edge"><title>wallRadar[&#45;0.7,&#45;0.7]&#45;&gt;Turn left/right</title>
<path fill="none" stroke="red" stroke-width="1.12847" stroke-dasharray="1,5" d="M282.75,-205.874C293.27,-201.111 307.001,-195.064 319.375,-190.149 410.011,-154.15 517.357,-117.13 580.441,-95.9344"/>
<polygon fill="red" stroke="red" stroke-width="1.12847" points="581.807,-99.168 590.176,-92.6712 579.582,-92.531 581.807,-99.168"/>
</g>
<!-- wallRadar[0.7,&#45;0.7] -->
<g id="node8" class="node"><title>wallRadar[0.7,&#45;0.7]</title>
<polygon fill="lightgray" stroke="black" points="634.375,-223.898 548.375,-223.898 548.375,-205.898 634.375,-205.898 634.375,-223.898"/>
<text text-anchor="middle" x="591.375" y="-212.698" font-family="Times,serif" font-size="9.00">wallRadar[0.7,&#45;0.7]</text>
</g>
<!-- wallRadar[0.7,&#45;0.7]&#45;&gt; Move Left/Right -->
<g id="edge31" class="edge"><title>wallRadar[0.7,&#45;0.7]&#45;&gt; Move Left/Right</title>
<path fill="none" stroke="green" stroke-width="0.601274" stroke-dasharray="1,5" d="M606.998,-205.857C617.166,-200.851 630.825,-194.551 643.375,-190.149 776.176,-143.575 937.548,-108.003 1025.18,-90.3633"/>
<polygon fill="green" stroke="green" stroke-width="0.601274" points="1026.12,-93.7454 1035.24,-88.3528 1024.75,-86.8813 1026.12,-93.7454"/>
</g>
<!-- wallRadar[0.7,&#45;0.7]&#45;&gt;Turn left/right -->
<g id="edge7" class="edge"><title>wallRadar[0.7,&#45;0.7]&#45;&gt;Turn left/right</title>
<path fill="none" stroke="green" stroke-width="0.306973" stroke-dasharray="1,5" d="M593.936,-205.808C598.53,-191.3 608.521,-159.741 617.422,-131.624"/>
<polygon fill="green" stroke="green" stroke-width="0.306973" points="620.833,-132.446 620.515,-121.856 614.159,-130.333 620.833,-132.446"/>
</g>
<!-- enemyRadar[RightBack] -->
<g id="node9" class="node"><title>enemyRadar[RightBack]</title>
<polygon fill="lightgray" stroke="black" points="1799.38,-293.647 1695.38,-293.647 1695.38,-275.647 1799.38,-275.647 1799.38,-293.647"/>
<text text-anchor="middle" x="1747.38" y="-282.447" font-family="Times,serif" font-size="9.00">enemyRadar[RightBack]</text>
</g>
<!-- enemyRadar[RightBack]&#45;&gt;8825 -->
<g id="edge43" class="edge"><title>enemyRadar[RightBack]&#45;&gt;8825</title>
<path fill="none" stroke="red" stroke-width="0.106389" d="M1747.38,-275.609C1747.38,-269.174 1747.38,-259.676 1747.38,-250.14"/>
<polygon fill="red" stroke="red" stroke-width="0.106389" points="1750.88,-249.919 1747.38,-239.919 1743.88,-249.919 1750.88,-249.919"/>
</g>
<!-- enemyRadar[LeftBack] -->
<g id="node10" class="node"><title>enemyRadar[LeftBack]</title>
<polygon fill="lightgray" stroke="black" points="2206.88,-223.898 2107.88,-223.898 2107.88,-205.898 2206.88,-205.898 2206.88,-223.898"/>
<text text-anchor="middle" x="2157.38" y="-212.698" font-family="Times,serif" font-size="9.00">enemyRadar[LeftBack]</text>
</g>
<!-- enemyRadar[LeftBack]&#45;&gt;Move Forward/Backward -->
<g id="edge18" class="edge"><title>enemyRadar[LeftBack]&#45;&gt;Move Forward/Backward</title>
<path fill="none" stroke="red" stroke-width="0.133988" stroke-dasharray="1,5" d="M2135.99,-205.808C2086.72,-187.167 1963.05,-140.376 1879.87,-108.906"/>
<polygon fill="red" stroke="red" stroke-width="0.133988" points="1881.03,-105.604 1870.44,-105.339 1878.55,-112.151 1881.03,-105.604"/>
</g>
<!-- enemyRadar[Right45ø] -->
<g id="node11" class="node"><title>enemyRadar[Right45ø]</title>
<polygon fill="lightgray" stroke="black" points="2325.38,-223.898 2225.38,-223.898 2225.38,-205.898 2325.38,-205.898 2325.38,-223.898"/>
<text text-anchor="middle" x="2275.38" y="-212.698" font-family="Times,serif" font-size="9.00">enemyRadar[Right45ø]</text>
</g>
<!-- enemyRadar[Right45ø]&#45;&gt;Move Forward/Backward -->
<g id="edge14" class="edge"><title>enemyRadar[Right45ø]&#45;&gt;Move Forward/Backward</title>
<path fill="none" stroke="green" stroke-width="0.686285" d="M2256.99,-205.83C2245.45,-200.936 2230.2,-194.766 2216.38,-190.149 2102.75,-152.204 1968.53,-118.052 1883.43,-97.6862"/>
<polygon fill="green" stroke="green" stroke-width="0.686285" points="1884.1,-94.2471 1873.56,-95.3326 1882.47,-101.056 1884.1,-94.2471"/>
</g>
<!-- enemyRadar[Left45ø] -->
<g id="node12" class="node"><title>enemyRadar[Left45ø]</title>
<polygon fill="lightgray" stroke="black" points="815.875,-223.898 720.875,-223.898 720.875,-205.898 815.875,-205.898 815.875,-223.898"/>
<text text-anchor="middle" x="768.375" y="-212.698" font-family="Times,serif" font-size="9.00">enemyRadar[Left45ø]</text>
</g>
<!-- enemyRadar[Left45ø]&#45;&gt; Move Left/Right -->
<g id="edge38" class="edge"><title>enemyRadar[Left45ø]&#45;&gt; Move Left/Right</title>
<path fill="none" stroke="green" stroke-width="0.254454" d="M787.494,-205.808C834.125,-186.078 955.28,-134.814 1029.15,-103.557"/>
<polygon fill="green" stroke="green" stroke-width="0.254454" points="1030.96,-106.592 1038.81,-99.4722 1028.23,-100.146 1030.96,-106.592"/>
</g>
<!-- enemyRadar[RightFront20ø] -->
<g id="node13" class="node"><title>enemyRadar[RightFront20ø]</title>
<polygon fill="lightgray" stroke="black" points="2149.88,-293.647 2030.88,-293.647 2030.88,-275.647 2149.88,-275.647 2149.88,-293.647"/>
<text text-anchor="middle" x="2090.38" y="-282.447" font-family="Times,serif" font-size="9.00">enemyRadar[RightFront20ø]</text>
</g>
<!-- enemyRadar[LeftFront20ø] -->
<g id="node14" class="node"><title>enemyRadar[LeftFront20ø]</title>
<polygon fill="lightgray" stroke="black" points="1616.38,-223.898 1502.38,-223.898 1502.38,-205.898 1616.38,-205.898 1616.38,-223.898"/>
<text text-anchor="middle" x="1559.38" y="-212.698" font-family="Times,serif" font-size="9.00">enemyRadar[LeftFront20ø]</text>
</g>
<!-- enemyRadar[LeftFront20ø]&#45;&gt;Shoot -->
<g id="edge6" class="edge"><title>enemyRadar[LeftFront20ø]&#45;&gt;Shoot</title>
<path fill="none" stroke="red" stroke-width="0.148078" stroke-dasharray="1,5" d="M1565.93,-205.808C1581.42,-186.673 1620.94,-137.88 1646.4,-106.441"/>
<polygon fill="red" stroke="red" stroke-width="0.148078" points="1649.29,-108.435 1652.86,-98.4616 1643.85,-104.03 1649.29,-108.435"/>
</g>
<!-- enemyRadar[LeftFront20ø]&#45;&gt;Move Forward/Backward -->
<g id="edge9" class="edge"><title>enemyRadar[LeftFront20ø]&#45;&gt;Move Forward/Backward</title>
<path fill="none" stroke="green" stroke-width="0.680955" stroke-dasharray="1,5" d="M1581.24,-205.862C1616.33,-192.816 1683.49,-167.18 1705.38,-154.149 1714.71,-148.593 1724.09,-142.151 1733.12,-135.412"/>
<polygon fill="green" stroke="green" stroke-width="0.680955" points="1735.48,-138.013 1741.29,-129.157 1731.22,-132.452 1735.48,-138.013"/>
</g>
<!-- enemyRadar[LeftFront20ø]&#45;&gt;Turn left/right -->
<g id="edge32" class="edge"><title>enemyRadar[LeftFront20ø]&#45;&gt;Turn left/right</title>
<path fill="none" stroke="green" stroke-width="0.353429" stroke-dasharray="1,5" d="M1541.27,-205.889C1528.22,-200.489 1510.05,-193.721 1493.38,-190.149 1289.39,-146.44 1232.11,-182.117 1025.38,-154.149 904.697,-137.823 765.034,-107.962 689.605,-90.9113"/>
<polygon fill="green" stroke="green" stroke-width="0.353429" points="690.367,-87.4954 679.841,-88.6945 688.818,-94.3217 690.367,-87.4954"/>
</g>
<!-- enemyRadar[RightFront15ø] -->
<g id="node15" class="node"><title>enemyRadar[RightFront15ø]</title>
<polygon fill="lightgray" stroke="black" points="1343.88,-223.898 1224.88,-223.898 1224.88,-205.898 1343.88,-205.898 1343.88,-223.898"/>
<text text-anchor="middle" x="1284.38" y="-212.698" font-family="Times,serif" font-size="9.00">enemyRadar[RightFront15ø]</text>
</g>
<!-- enemyRadar[RightFront15ø]&#45;&gt;Move Forward/Backward -->
<g id="edge34" class="edge"><title>enemyRadar[RightFront15ø]&#45;&gt;Move Forward/Backward</title>
<path fill="none" stroke="red" stroke-width="0.285584" stroke-dasharray="1,5" d="M1303.96,-205.808C1317.58,-200.516 1336.3,-193.908 1353.38,-190.149 1506.96,-156.337 1560.15,-214.486 1705.38,-154.149 1715.73,-149.847 1725.84,-143.998 1735.34,-137.44"/>
<polygon fill="red" stroke="red" stroke-width="0.285584" points="1737.48,-140.213 1743.53,-131.516 1733.38,-134.541 1737.48,-140.213"/>
</g>
<!-- enemyRadar[RightFront15ø]&#45;&gt; Move Left/Right -->
<g id="edge29" class="edge"><title>enemyRadar[RightFront15ø]&#45;&gt; Move Left/Right</title>
<path fill="none" stroke="green" stroke-width="0.666654" d="M1272.76,-205.808C1247.73,-188.371 1187.34,-146.307 1142.66,-115.189"/>
<polygon fill="green" stroke="green" stroke-width="0.666654" points="1144.44,-112.161 1134.23,-109.318 1140.44,-117.905 1144.44,-112.161"/>
</g>
<!-- enemyRadar[RightFront15ø]&#45;&gt;Turn left/right -->
<g id="edge11" class="edge"><title>enemyRadar[RightFront15ø]&#45;&gt;Turn left/right</title>
<path fill="none" stroke="red" stroke-width="0.28423" stroke-dasharray="1,5" d="M1263.48,-205.824C1249.92,-200.806 1231.78,-194.503 1215.38,-190.149 1132.3,-168.106 1109.78,-170.357 1025.38,-154.149 906.027,-131.232 766.284,-103.93 690.387,-89.0621"/>
<polygon fill="red" stroke="red" stroke-width="0.28423" points="690.596,-85.5367 680.11,-87.0485 689.25,-92.4061 690.596,-85.5367"/>
</g>
<!-- enemyRadar[LeftFront15ø] -->
<g id="node16" class="node"><title>enemyRadar[LeftFront15ø]</title>
<polygon fill="lightgray" stroke="black" points="442.375,-223.898 328.375,-223.898 328.375,-205.898 442.375,-205.898 442.375,-223.898"/>
<text text-anchor="middle" x="385.375" y="-212.698" font-family="Times,serif" font-size="9.00">enemyRadar[LeftFront15ø]</text>
</g>
<!-- enemyRadar[LeftFront15ø]&#45;&gt;Turn left/right -->
<g id="edge8" class="edge"><title>enemyRadar[LeftFront15ø]&#45;&gt;Turn left/right</title>
<path fill="none" stroke="green" stroke-width="0.404671" stroke-dasharray="1,5" d="M400.206,-205.808C435.784,-186.401 527.29,-136.487 584.811,-105.111"/>
<polygon fill="green" stroke="green" stroke-width="0.404671" points="586.634,-108.103 593.737,-100.242 583.282,-101.958 586.634,-108.103"/>
</g>
<!-- enemyRadar[RightFront7.5ø] -->
<g id="node17" class="node"><title>enemyRadar[RightFront7.5ø]</title>
<polygon fill="lightgray" stroke="black" points="956.375,-223.898 834.375,-223.898 834.375,-205.898 956.375,-205.898 956.375,-223.898"/>
<text text-anchor="middle" x="895.375" y="-212.698" font-family="Times,serif" font-size="9.00">enemyRadar[RightFront7.5ø]</text>
</g>
<!-- enemyRadar[RightFront7.5ø]&#45;&gt;Shoot -->
<g id="edge1" class="edge"><title>enemyRadar[RightFront7.5ø]&#45;&gt;Shoot</title>
<path fill="none" stroke="green" stroke-width="0.61161" stroke-dasharray="1,5" d="M915.93,-205.898C929.736,-200.781 948.433,-194.34 965.375,-190.149 1095.1,-158.062 1506.94,-100.356 1632.61,-83.0882"/>
<polygon fill="green" stroke="green" stroke-width="0.61161" points="1633.42,-86.5095 1642.85,-81.683 1632.47,-79.5744 1633.42,-86.5095"/>
</g>
<!-- enemyRadar[RightFront7.5ø]&#45;&gt; Move Left/Right -->
<g id="edge28" class="edge"><title>enemyRadar[RightFront7.5ø]&#45;&gt; Move Left/Right</title>
<path fill="none" stroke="red" stroke-width="0.488731" stroke-dasharray="1,5" d="M906.93,-205.808C931.759,-188.425 991.547,-146.566 1035.95,-115.476"/>
<polygon fill="red" stroke="red" stroke-width="0.488731" points="1038.15,-118.211 1044.33,-109.609 1034.14,-112.477 1038.15,-118.211"/>
</g>
<!-- enemyRadar[RightFront7.5ø]&#45;&gt;Turn left/right -->
<g id="edge17" class="edge"><title>enemyRadar[RightFront7.5ø]&#45;&gt;Turn left/right</title>
<path fill="none" stroke="red" stroke-width="0.148326" d="M879.83,-205.808C842.147,-186.198 744.61,-135.44 684.449,-104.133"/>
<polygon fill="red" stroke="red" stroke-width="0.148326" points="685.979,-100.984 675.493,-99.4722 682.748,-107.193 685.979,-100.984"/>
</g>
<!-- enemyRadar[LeftFront7.5ø] -->
<g id="node18" class="node"><title>enemyRadar[LeftFront7.5ø]</title>
<polygon fill="lightgray" stroke="black" points="1090.38,-223.898 974.375,-223.898 974.375,-205.898 1090.38,-205.898 1090.38,-223.898"/>
<text text-anchor="middle" x="1032.38" y="-212.698" font-family="Times,serif" font-size="9.00">enemyRadar[LeftFront7.5ø]</text>
</g>
<!-- enemyRadar[LeftFront7.5ø]&#45;&gt;Move Forward/Backward -->
<g id="edge35" class="edge"><title>enemyRadar[LeftFront7.5ø]&#45;&gt;Move Forward/Backward</title>
<path fill="none" stroke="red" stroke-width="1.47263" d="M1050.75,-205.803C1063.99,-200.362 1082.44,-193.582 1099.38,-190.149 1231.59,-163.349 1579.72,-203.245 1705.38,-154.149 1715.89,-150.039 1726.12,-144.265 1735.72,-137.715"/>
<polygon fill="red" stroke="red" stroke-width="1.47263" points="1737.89,-140.459 1743.97,-131.78 1733.81,-134.775 1737.89,-140.459"/>
</g>
<!-- enemyRadar[LeftFront7.5ø]&#45;&gt;Turn left/right -->
<g id="edge3" class="edge"><title>enemyRadar[LeftFront7.5ø]&#45;&gt;Turn left/right</title>
<path fill="none" stroke="green" stroke-width="0.277985" d="M1009.76,-205.794C996.789,-201.166 980.184,-195.281 965.375,-190.149 867.772,-156.329 753.586,-117.921 688.047,-95.9877"/>
<polygon fill="green" stroke="green" stroke-width="0.277985" points="688.941,-92.5961 678.347,-92.7429 686.72,-99.2346 688.941,-92.5961"/>
</g>
<!-- enemyRadar[RightFront2.5ø] -->
<g id="node19" class="node"><title>enemyRadar[RightFront2.5ø]</title>
<polygon fill="lightgray" stroke="black" points="1484.38,-223.898 1362.38,-223.898 1362.38,-205.898 1484.38,-205.898 1484.38,-223.898"/>
<text text-anchor="middle" x="1423.38" y="-212.698" font-family="Times,serif" font-size="9.00">enemyRadar[RightFront2.5ø]</text>
</g>
<!-- enemyRadar[RightFront2.5ø]&#45;&gt;Shoot -->
<g id="edge12" class="edge"><title>enemyRadar[RightFront2.5ø]&#45;&gt;Shoot</title>
<path fill="none" stroke="red" stroke-width="0.12783" stroke-dasharray="1,5" d="M1438.03,-205.808C1476.94,-184.322 1583.59,-125.44 1637.41,-95.7233"/>
<polygon fill="red" stroke="red" stroke-width="0.12783" points="1639.13,-98.7692 1646.2,-90.8717 1635.75,-92.6412 1639.13,-98.7692"/>
</g>
<!-- enemyRadar[RightFront2.5ø]&#45;&gt;Move Forward/Backward -->
<g id="edge27" class="edge"><title>enemyRadar[RightFront2.5ø]&#45;&gt;Move Forward/Backward</title>
<path fill="none" stroke="red" stroke-width="0.655413" stroke-dasharray="1,5" d="M1444.25,-205.843C1458.03,-200.768 1476.58,-194.396 1493.38,-190.149 1586.03,-166.723 1618.38,-193.722 1705.38,-154.149 1715.51,-149.54 1725.46,-143.546 1734.86,-136.946"/>
<polygon fill="red" stroke="red" stroke-width="0.655413" points="1736.97,-139.739 1742.97,-131.009 1732.84,-134.09 1736.97,-139.739"/>
</g>
<!-- enemyRadar[RightFront2.5ø]&#45;&gt; Move Left/Right -->
<g id="edge2" class="edge"><title>enemyRadar[RightFront2.5ø]&#45;&gt; Move Left/Right</title>
<path fill="none" stroke="green" stroke-width="0.102621" d="M1403.48,-205.808C1354.46,-185.873 1226.28,-133.747 1149.66,-102.591"/>
<polygon fill="green" stroke="green" stroke-width="0.102621" points="1150.71,-99.2374 1140.13,-98.7125 1148.07,-105.722 1150.71,-99.2374"/>
</g>
<!-- enemyRadar[RightFront2.5ø]&#45;&gt;Turn left/right -->
<g id="edge4" class="edge"><title>enemyRadar[RightFront2.5ø]&#45;&gt;Turn left/right</title>
<path fill="none" stroke="green" stroke-width="0.144172" d="M1403.49,-205.856C1389.66,-200.585 1370.67,-193.983 1353.38,-190.149 1210.2,-158.403 1170.37,-176.172 1025.38,-154.149 904.979,-135.862 765.21,-106.738 689.687,-90.3379"/>
<polygon fill="green" stroke="green" stroke-width="0.144172" points="690.426,-86.917 679.911,-88.2081 688.936,-93.7566 690.426,-86.917"/>
</g>
<!-- enemyRadar[LeftFront2.5ø] -->
<g id="node20" class="node"><title>enemyRadar[LeftFront2.5ø]</title>
<polygon fill="lightgray" stroke="black" points="135.375,-223.898 19.3752,-223.898 19.3752,-205.898 135.375,-205.898 135.375,-223.898"/>
<text text-anchor="middle" x="77.3752" y="-212.698" font-family="Times,serif" font-size="9.00">enemyRadar[LeftFront2.5ø]</text>
</g>
<!-- enemyRadar[LeftFront2.5ø]&#45;&gt;Turn left/right -->
<g id="edge48" class="edge"><title>enemyRadar[LeftFront2.5ø]&#45;&gt;Turn left/right</title>
<path fill="none" stroke="red" stroke-width="0.199179" d="M97.9974,-205.89C111.145,-200.96 128.613,-194.729 144.375,-190.149 299.863,-144.975 487.363,-106.41 578.792,-88.6039"/>
<polygon fill="red" stroke="red" stroke-width="0.199179" points="579.512,-92.0296 588.663,-86.6897 578.179,-85.1577 579.512,-92.0296"/>
</g>
<!-- enemyRadar[Front7Ø] -->
<g id="node21" class="node"><title>enemyRadar[Front7Ø]</title>
<polygon fill="lightgray" stroke="black" points="1206.38,-223.898 1108.38,-223.898 1108.38,-205.898 1206.38,-205.898 1206.38,-223.898"/>
<text text-anchor="middle" x="1157.38" y="-212.698" font-family="Times,serif" font-size="9.00">enemyRadar[Front7Ø]</text>
</g>
<!-- enemyRadar[Front7Ø]&#45;&gt;Move Forward/Backward -->
<g id="edge33" class="edge"><title>enemyRadar[Front7Ø]&#45;&gt;Move Forward/Backward</title>
<path fill="none" stroke="green" stroke-width="0.302237" stroke-dasharray="1,5" d="M1173.46,-205.842C1185.08,-200.419 1201.32,-193.645 1216.38,-190.149 1428.65,-140.875 1502.96,-234.891 1705.38,-154.149 1715.86,-149.965 1726.08,-144.148 1735.66,-137.576"/>
<polygon fill="green" stroke="green" stroke-width="0.302237" points="1737.85,-140.315 1743.91,-131.628 1733.75,-134.637 1737.85,-140.315"/>
</g>
<!-- enemyRadar[Front7Ø]&#45;&gt;Turn left/right -->
<g id="edge16" class="edge"><title>enemyRadar[Front7Ø]&#45;&gt;Turn left/right</title>
<path fill="none" stroke="green" stroke-width="0.130442" stroke-dasharray="1,5" d="M1139.61,-205.801C1128.26,-200.836 1113.15,-194.599 1099.38,-190.149 954.39,-143.295 778.361,-106.031 690.269,-88.6794"/>
<polygon fill="green" stroke="green" stroke-width="0.130442" points="690.713,-85.1999 680.227,-86.7127 689.367,-92.0694 690.713,-85.1999"/>
</g>
<!-- OnTarget -->
<g id="node22" class="node"><title>OnTarget</title>
<polygon fill="lightgray" stroke="black" points="702.375,-223.898 652.375,-223.898 652.375,-205.898 702.375,-205.898 702.375,-223.898"/>
<text text-anchor="middle" x="677.375" y="-212.698" font-family="Times,serif" font-size="9.00">OnTarget</text>
</g>
<!-- OnTarget&#45;&gt; Move Left/Right -->
<g id="edge39" class="edge"><title>OnTarget&#45;&gt; Move Left/Right</title>
<path fill="none" stroke="red" stroke-width="0.30299" d="M687.259,-205.711C693.775,-200.648 702.683,-194.337 711.375,-190.149 815.98,-139.752 947.928,-106.934 1025.05,-90.5274"/>
<polygon fill="red" stroke="red" stroke-width="0.30299" points="1026.04,-93.8975 1035.1,-88.4166 1024.6,-87.047 1026.04,-93.8975"/>
</g>
<!-- OnTarget&#45;&gt;Turn left/right -->
<g id="edge19" class="edge"><title>OnTarget&#45;&gt;Turn left/right</title>
<path fill="none" stroke="green" stroke-width="0.382684" d="M674.814,-205.808C670.221,-191.3 660.23,-159.741 651.328,-131.624"/>
<polygon fill="green" stroke="green" stroke-width="0.382684" points="654.591,-130.333 648.236,-121.856 647.917,-132.446 654.591,-130.333"/>
</g>
<!-- bias -->
<g id="node23" class="node"><title>bias</title>
<polygon fill="lightgray" stroke="black" points="1820.88,-223.898 1789.88,-223.898 1789.88,-205.898 1820.88,-205.898 1820.88,-223.898"/>
<text text-anchor="middle" x="1805.38" y="-212.698" font-family="Times,serif" font-size="9.00">bias</text>
</g>
<!-- bias&#45;&gt;Shoot -->
<g id="edge26" class="edge"><title>bias&#45;&gt;Shoot</title>
<path fill="none" stroke="red" stroke-width="0.470601" stroke-dasharray="1,5" d="M1798.34,-205.791C1793.81,-200.883 1787.63,-194.711 1781.38,-190.149 1753.44,-169.757 1737.24,-178.194 1712.38,-154.149 1700.03,-142.211 1690.19,-125.955 1683.06,-111.535"/>
<polygon fill="red" stroke="red" stroke-width="0.470601" points="1686.19,-109.952 1678.77,-102.387 1679.85,-112.927 1686.19,-109.952"/>
</g>
<!-- bias&#45;&gt;Move Forward/Backward -->
<g id="edge10" class="edge"><title>bias&#45;&gt;Move Forward/Backward</title>
<path fill="none" stroke="green" stroke-width="1.48224" stroke-dasharray="1,5" d="M1804.96,-205.808C1804.5,-196.881 1803.71,-181.498 1802.83,-164.434"/>
<polygon fill="green" stroke="green" stroke-width="1.48224" points="1806.31,-164.035 1802.3,-154.228 1799.32,-164.395 1806.31,-164.035"/>
</g>
<!-- bias&#45;&gt; Move Left/Right -->
<g id="edge21" class="edge"><title>bias&#45;&gt; Move Left/Right</title>
<path fill="none" stroke="green" stroke-width="0.344402" stroke-dasharray="1,5" d="M1799.18,-205.517C1794.81,-200.239 1788.48,-193.762 1781.38,-190.149 1725.81,-161.899 1315.97,-107.084 1154.5,-86.3183"/>
<polygon fill="green" stroke="green" stroke-width="0.344402" points="1154.59,-82.8017 1144.23,-85.0003 1153.7,-89.7447 1154.59,-82.8017"/>
</g>
<!-- 9477&#45;&gt;Turn left/right -->
<g id="edge46" class="edge"><title>9477&#45;&gt;Turn left/right</title>
<path fill="none" stroke="green" stroke-width="0.306784" d="M197.183,-198.585C201.646,-195.465 206.525,-192.441 211.375,-190.149 335.342,-131.576 494.747,-99.8884 578.015,-86.2891"/>
<polygon fill="green" stroke="green" stroke-width="0.306784" points="578.71,-89.7225 588.029,-84.6813 577.6,-82.811 578.71,-89.7225"/>
</g>
<!-- 8825&#45;&gt;Move Forward/Backward -->
<g id="edge41" class="edge"><title>8825&#45;&gt;Move Forward/Backward</title>
<path fill="none" stroke="green" stroke-width="1.03616" d="M1755.8,-191.47C1759.26,-182.254 1763.49,-170.971 1767.94,-159.134"/>
<polygon fill="green" stroke="green" stroke-width="1.03616" points="1771.3,-160.143 1771.54,-149.551 1764.74,-157.682 1771.3,-160.143"/>
</g>
<!-- 8825&#45;&gt; Move Left/Right -->
<g id="edge47" class="edge"><title>8825&#45;&gt; Move Left/Right</title>
<path fill="none" stroke="green" stroke-width="0.450634" d="M1728.44,-198.545C1723.74,-195.35 1718.56,-192.304 1713.38,-190.149 1520.73,-110.123 1271.31,-87.1613 1154.77,-80.6327"/>
<polygon fill="green" stroke="green" stroke-width="0.450634" points="1154.76,-77.1272 1144.59,-80.0854 1154.39,-84.1171 1154.76,-77.1272"/>
</g>
</g>
</svg>
