<?xml version="1.0" encoding="UTF-8" standalone="no"?>
<!DOCTYPE svg PUBLIC "-//W3C//DTD SVG 1.1//EN"
 "http://www.w3.org/Graphics/SVG/1.1/DTD/svg11.dtd">
<!-- Generated by graphviz version 2.38.0 (20140413.2041)
 -->
<!-- Title: %3 Pages: 1 -->
<svg width="2520pt" height="172pt"
 viewBox="0.00 0.00 2519.50 172.31" xmlns="http://www.w3.org/2000/svg" xmlns:xlink="http://www.w3.org/1999/xlink">
<g id="graph0" class="graph" transform="scale(1 1) rotate(0) translate(4 168.309)">
<title>%3</title>
<polygon fill="white" stroke="none" points="-4,4 -4,-168.309 2515.5,-168.309 2515.5,4 -4,4"/>
<!-- wallRadar[1,0] -->
<g id="node1" class="node"><title>wallRadar[1,0]</title>
<polygon fill="lightgray" stroke="black" points="70,-164.309 0,-164.309 0,-146.309 70,-146.309 70,-164.309"/>
<text text-anchor="middle" x="35" y="-153.109" font-family="Times,serif" font-size="9.00">wallRadar[1,0]</text>
</g>
<!-- Shoot -->
<g id="node24" class="node"><title>Shoot</title>
<ellipse fill="lightblue" stroke="black" cx="775" cy="-55.1543" rx="26.7407" ry="26.7407"/>
<text text-anchor="middle" x="775" y="-52.9543" font-family="Times,serif" font-size="9.00">Shoot</text>
</g>
<!-- wallRadar[1,0]&#45;&gt;Shoot -->
<g id="edge76" class="edge"><title>wallRadar[1,0]&#45;&gt;Shoot</title>
<path fill="none" stroke="green" stroke-width="0.199975" d="M70.0107,-147.583C73.0446,-147.11 76.0725,-146.675 79,-146.309 307.988,-117.624 370.049,-152.161 597,-110.309 648.103,-100.885 705.272,-81.919 740.702,-69.1257"/>
<polygon fill="green" stroke="green" stroke-width="0.199975" points="741.903,-72.413 750.095,-65.694 739.501,-65.838 741.903,-72.413"/>
</g>
<!-- Turn Right -->
<g id="node30" class="node"><title>Turn Right</title>
<ellipse fill="lightblue" stroke="black" cx="548" cy="-55.1543" rx="39.6962" ry="39.6962"/>
<text text-anchor="middle" x="548" y="-52.9543" font-family="Times,serif" font-size="9.00">Turn Right</text>
</g>
<!-- wallRadar[1,0]&#45;&gt;Turn Right -->
<g id="edge26" class="edge"><title>wallRadar[1,0]&#45;&gt;Turn Right</title>
<path fill="none" stroke="green" stroke-width="0.457746" d="M70.2606,-147.562C159.772,-130.436 395.973,-85.2423 498.896,-65.5496"/>
<polygon fill="green" stroke="green" stroke-width="0.457746" points="499.853,-68.93 509.017,-63.6131 498.538,-62.0547 499.853,-68.93"/>
</g>
<!-- wallRadar[0,1] -->
<g id="node2" class="node"><title>wallRadar[0,1]</title>
<polygon fill="lightgray" stroke="black" points="971,-164.309 901,-164.309 901,-146.309 971,-146.309 971,-164.309"/>
<text text-anchor="middle" x="936" y="-153.109" font-family="Times,serif" font-size="9.00">wallRadar[0,1]</text>
</g>
<!-- Move Forward -->
<g id="node25" class="node"><title>Move Forward</title>
<ellipse fill="lightblue" stroke="black" cx="1061" cy="-55.1543" rx="50.41" ry="50.41"/>
<text text-anchor="middle" x="1061" y="-52.9543" font-family="Times,serif" font-size="9.00">Move Forward</text>
</g>
<!-- wallRadar[0,1]&#45;&gt;Move Forward -->
<g id="edge42" class="edge"><title>wallRadar[0,1]&#45;&gt;Move Forward</title>
<path fill="none" stroke="red" stroke-width="0.166542" d="M946.229,-146.276C961.014,-134.667 989.303,-112.453 1014.09,-92.9861"/>
<polygon fill="red" stroke="red" stroke-width="0.166542" points="1016.3,-95.7076 1022,-86.7789 1011.97,-90.202 1016.3,-95.7076"/>
</g>
<!-- Move Left -->
<g id="node27" class="node"><title>Move Left</title>
<ellipse fill="lightblue" stroke="black" cx="1912" cy="-55.1543" rx="38.3684" ry="38.3684"/>
<text text-anchor="middle" x="1912" y="-52.9543" font-family="Times,serif" font-size="9.00">Move Left</text>
</g>
<!-- wallRadar[0,1]&#45;&gt;Move Left -->
<g id="edge60" class="edge"><title>wallRadar[0,1]&#45;&gt;Move Left</title>
<path fill="none" stroke="green" stroke-width="0.28539" d="M971.001,-147.505C974.037,-147.049 977.068,-146.64 980,-146.309 1333.67,-106.384 1432.44,-186.988 1780,-110.309 1810.99,-103.471 1844.03,-89.9116 1869.3,-78.0721"/>
<polygon fill="green" stroke="green" stroke-width="0.28539" points="1871.07,-81.1055 1878.58,-73.6363 1868.05,-74.7894 1871.07,-81.1055"/>
</g>
<!-- Turn Left -->
<g id="node29" class="node"><title>Turn Left</title>
<ellipse fill="lightblue" stroke="black" cx="1311" cy="-55.1543" rx="35.2113" ry="35.2113"/>
<text text-anchor="middle" x="1311" y="-52.9543" font-family="Times,serif" font-size="9.00">Turn Left</text>
</g>
<!-- wallRadar[0,1]&#45;&gt;Turn Left -->
<g id="edge62" class="edge"><title>wallRadar[0,1]&#45;&gt;Turn Left</title>
<path fill="none" stroke="red" stroke-width="0.340376" d="M971.039,-146.386C1008.14,-137.891 1068.36,-123.798 1120,-110.309 1170.82,-97.0349 1228.81,-80.3756 1267.43,-69.0644"/>
<polygon fill="red" stroke="red" stroke-width="0.340376" points="1268.69,-72.3417 1277.3,-66.1664 1266.72,-65.6252 1268.69,-72.3417"/>
</g>
<!-- wallRadar[0,1]&#45;&gt;Turn Right -->
<g id="edge10" class="edge"><title>wallRadar[0,1]&#45;&gt;Turn Right</title>
<path fill="none" stroke="red" stroke-width="0.396734" d="M900.985,-147.113C861.484,-138.85 795.393,-124.589 739,-110.309 689.926,-97.8819 634.292,-81.8885 595.778,-70.5116"/>
<polygon fill="red" stroke="red" stroke-width="0.396734" points="596.463,-67.0641 585.88,-67.5781 594.474,-73.7755 596.463,-67.0641"/>
</g>
<!-- wallRadar[&#45;1,0] -->
<g id="node3" class="node"><title>wallRadar[&#45;1,0]</title>
<polygon fill="lightgray" stroke="black" points="1952.5,-164.309 1879.5,-164.309 1879.5,-146.309 1952.5,-146.309 1952.5,-164.309"/>
<text text-anchor="middle" x="1916" y="-153.109" font-family="Times,serif" font-size="9.00">wallRadar[&#45;1,0]</text>
</g>
<!--  Move Backward -->
<g id="node26" class="node"><title> Move Backward</title>
<ellipse fill="lightblue" stroke="black" cx="2023" cy="-55.1543" rx="55.3091" ry="55.3091"/>
<text text-anchor="middle" x="2023" y="-52.9543" font-family="Times,serif" font-size="9.00"> Move Backward</text>
</g>
<!-- wallRadar[&#45;1,0]&#45;&gt; Move Backward -->
<g id="edge28" class="edge"><title>wallRadar[&#45;1,0]&#45;&gt; Move Backward</title>
<path fill="none" stroke="green" stroke-width="0.508281" d="M1924.76,-146.276C1935.9,-136.05 1956.02,-117.596 1975.16,-100.038"/>
<polygon fill="green" stroke="green" stroke-width="0.508281" points="1977.71,-102.454 1982.71,-93.1148 1972.97,-97.2955 1977.71,-102.454"/>
</g>
<!-- wallRadar[&#45;1,0]&#45;&gt;Move Left -->
<g id="edge5" class="edge"><title>wallRadar[&#45;1,0]&#45;&gt;Move Left</title>
<path fill="none" stroke="red" stroke-width="0.451885" d="M1915.67,-146.276C1915.28,-136.721 1914.6,-119.983 1913.93,-103.505"/>
<polygon fill="red" stroke="red" stroke-width="0.451885" points="1917.42,-103.195 1913.52,-93.3454 1910.43,-103.48 1917.42,-103.195"/>
</g>
<!-- Move right -->
<g id="node28" class="node"><title>Move right</title>
<ellipse fill="lightblue" stroke="black" cx="1731" cy="-55.1543" rx="39.6962" ry="39.6962"/>
<text text-anchor="middle" x="1731" y="-52.9543" font-family="Times,serif" font-size="9.00">Move right</text>
</g>
<!-- wallRadar[&#45;1,0]&#45;&gt;Move right -->
<g id="edge40" class="edge"><title>wallRadar[&#45;1,0]&#45;&gt;Move right</title>
<path fill="none" stroke="green" stroke-width="0.349533" d="M1900.86,-146.276C1873.58,-131.804 1815.24,-100.851 1774.59,-79.2837"/>
<polygon fill="green" stroke="green" stroke-width="0.349533" points="1776.17,-76.1575 1765.7,-74.5624 1772.89,-82.3411 1776.17,-76.1575"/>
</g>
<!-- wallRadar[&#45;1,0]&#45;&gt;Turn Left -->
<g id="edge39" class="edge"><title>wallRadar[&#45;1,0]&#45;&gt;Turn Left</title>
<path fill="none" stroke="green" stroke-width="0.145857" d="M1879.35,-147.893C1876.19,-147.352 1873.04,-146.818 1870,-146.309 1679.13,-114.322 1451.24,-78.2151 1356.14,-63.2422"/>
<polygon fill="green" stroke="green" stroke-width="0.145857" points="1356.44,-59.7459 1346.02,-61.6487 1355.35,-66.6608 1356.44,-59.7459"/>
</g>
<!-- wallRadar[&#45;1,0]&#45;&gt;Turn Right -->
<g id="edge24" class="edge"><title>wallRadar[&#45;1,0]&#45;&gt;Turn Right</title>
<path fill="none" stroke="red" stroke-width="0.106258" d="M1879.41,-147.467C1876.23,-147.019 1873.06,-146.622 1870,-146.309 1369.69,-95.097 1235.97,-187.477 739,-110.309 688.82,-102.517 633.135,-85.7563 594.903,-72.9314"/>
<polygon fill="red" stroke="red" stroke-width="0.106258" points="595.682,-69.4998 585.088,-69.5967 593.43,-76.1277 595.682,-69.4998"/>
</g>
<!-- wallRadar[0,&#45;1] -->
<g id="node4" class="node"><title>wallRadar[0,&#45;1]</title>
<polygon fill="lightgray" stroke="black" points="1586.5,-164.309 1513.5,-164.309 1513.5,-146.309 1586.5,-146.309 1586.5,-164.309"/>
<text text-anchor="middle" x="1550" y="-153.109" font-family="Times,serif" font-size="9.00">wallRadar[0,&#45;1]</text>
</g>
<!-- wallRadar[0,&#45;1]&#45;&gt;Shoot -->
<g id="edge82" class="edge"><title>wallRadar[0,&#45;1]&#45;&gt;Shoot</title>
<path fill="none" stroke="red" stroke-width="0.215181" d="M1513.39,-147.6C1510.22,-147.123 1507.06,-146.683 1504,-146.309 1281.98,-119.111 1223.07,-144.374 1002,-110.309 933.274,-99.7185 854.668,-78.987 810.321,-66.4724"/>
<polygon fill="red" stroke="red" stroke-width="0.215181" points="811.179,-63.0775 800.602,-63.7062 809.262,-69.8101 811.179,-63.0775"/>
</g>
<!-- wallRadar[0,&#45;1]&#45;&gt;Move Forward -->
<g id="edge78" class="edge"><title>wallRadar[0,&#45;1]&#45;&gt;Move Forward</title>
<path fill="none" stroke="green" stroke-width="0.132793" d="M1513.35,-147.862C1510.19,-147.328 1507.04,-146.804 1504,-146.309 1398.84,-129.18 1371.33,-131.883 1267,-110.309 1216.48,-99.8628 1159.85,-84.721 1118.77,-73.1028"/>
<polygon fill="green" stroke="green" stroke-width="0.132793" points="1119.52,-69.6755 1108.94,-70.3054 1117.6,-76.4083 1119.52,-69.6755"/>
</g>
<!-- wallRadar[0,&#45;1]&#45;&gt;Move Left -->
<g id="edge11" class="edge"><title>wallRadar[0,&#45;1]&#45;&gt;Move Left</title>
<path fill="none" stroke="green" stroke-width="0.369949" d="M1586.67,-147.711C1646.84,-136.82 1761.73,-115.743 1780,-110.309 1810.21,-101.321 1843,-87.8886 1868.34,-76.6506"/>
<polygon fill="green" stroke="green" stroke-width="0.369949" points="1869.98,-79.7526 1877.67,-72.4649 1867.11,-73.3662 1869.98,-79.7526"/>
</g>
<!-- wallRadar[0,&#45;1]&#45;&gt;Move right -->
<g id="edge75" class="edge"><title>wallRadar[0,&#45;1]&#45;&gt;Move right</title>
<path fill="none" stroke="green" stroke-width="0.419605" d="M1564.81,-146.276C1591.29,-131.919 1647.67,-101.344 1687.39,-79.8012"/>
<polygon fill="green" stroke="green" stroke-width="0.419605" points="1689.23,-82.7872 1696.35,-74.9434 1685.89,-76.6338 1689.23,-82.7872"/>
</g>
<!-- wallRadar[0.7,0.7] -->
<g id="node5" class="node"><title>wallRadar[0.7,0.7]</title>
<polygon fill="lightgray" stroke="black" points="769.5,-164.309 686.5,-164.309 686.5,-146.309 769.5,-146.309 769.5,-164.309"/>
<text text-anchor="middle" x="728" y="-153.109" font-family="Times,serif" font-size="9.00">wallRadar[0.7,0.7]</text>
</g>
<!-- wallRadar[0.7,0.7]&#45;&gt;Shoot -->
<g id="edge50" class="edge"><title>wallRadar[0.7,0.7]&#45;&gt;Shoot</title>
<path fill="none" stroke="green" stroke-width="0.331958" d="M731.846,-146.276C737.789,-133.865 749.535,-109.335 759.274,-88.9963"/>
<polygon fill="green" stroke="green" stroke-width="0.331958" points="762.557,-90.2444 763.719,-79.7135 756.243,-87.2212 762.557,-90.2444"/>
</g>
<!-- wallRadar[0.7,0.7]&#45;&gt;Turn Left -->
<g id="edge49" class="edge"><title>wallRadar[0.7,0.7]&#45;&gt;Turn Left</title>
<path fill="none" stroke="green" stroke-width="0.153837" d="M769.717,-147.462C772.518,-147.055 775.298,-146.667 778,-146.309 929.515,-126.228 969.927,-139.261 1120,-110.309 1171.57,-100.36 1229.42,-83.0671 1267.8,-70.6984"/>
<polygon fill="green" stroke="green" stroke-width="0.153837" points="1269.18,-73.9308 1277.61,-67.5093 1267.02,-67.2741 1269.18,-73.9308"/>
</g>
<!-- wallRadar[&#45;0.7,0.7] -->
<g id="node6" class="node"><title>wallRadar[&#45;0.7,0.7]</title>
<polygon fill="lightgray" stroke="black" points="487,-164.309 401,-164.309 401,-146.309 487,-146.309 487,-164.309"/>
<text text-anchor="middle" x="444" y="-153.109" font-family="Times,serif" font-size="9.00">wallRadar[&#45;0.7,0.7]</text>
</g>
<!-- wallRadar[&#45;0.7,0.7]&#45;&gt;Shoot -->
<g id="edge72" class="edge"><title>wallRadar[&#45;0.7,0.7]&#45;&gt;Shoot</title>
<path fill="none" stroke="green" stroke-width="0.3203" d="M472.518,-146.248C503.276,-137.522 553.667,-123.13 597,-110.309 646.475,-95.6694 703.509,-78.2152 739.407,-67.1583"/>
<polygon fill="green" stroke="green" stroke-width="0.3203" points="740.867,-70.3707 749.392,-64.0798 738.805,-63.6814 740.867,-70.3707"/>
</g>
<!-- wallRadar[&#45;0.7,0.7]&#45;&gt;Move right -->
<g id="edge38" class="edge"><title>wallRadar[&#45;0.7,0.7]&#45;&gt;Move right</title>
<path fill="none" stroke="green" stroke-width="0.258448" d="M487.084,-147.304C490.097,-146.93 493.091,-146.593 496,-146.309 876.307,-109.2 974.519,-145.59 1355,-110.309 1472.98,-99.3681 1610.56,-77.1107 1682.11,-64.8098"/>
<polygon fill="green" stroke="green" stroke-width="0.258448" points="1682.92,-68.2218 1692.18,-63.0697 1681.73,-61.324 1682.92,-68.2218"/>
</g>
<!-- wallRadar[&#45;0.7,0.7]&#45;&gt;Turn Right -->
<g id="edge67" class="edge"><title>wallRadar[&#45;0.7,0.7]&#45;&gt;Turn Right</title>
<path fill="none" stroke="red" stroke-width="0.534677" d="M452.511,-146.276C465.443,-134.071 490.793,-110.146 512.125,-90.0126"/>
<polygon fill="red" stroke="red" stroke-width="0.534677" points="514.606,-92.484 519.476,-83.0748 509.801,-87.3932 514.606,-92.484"/>
</g>
<!-- wallRadar[&#45;0.7,&#45;0.7] -->
<g id="node7" class="node"><title>wallRadar[&#45;0.7,&#45;0.7]</title>
<polygon fill="lightgray" stroke="black" points="314.5,-164.309 225.5,-164.309 225.5,-146.309 314.5,-146.309 314.5,-164.309"/>
<text text-anchor="middle" x="270" y="-153.109" font-family="Times,serif" font-size="9.00">wallRadar[&#45;0.7,&#45;0.7]</text>
</g>
<!-- wallRadar[&#45;0.7,&#45;0.7]&#45;&gt;Shoot -->
<g id="edge16" class="edge"><title>wallRadar[&#45;0.7,&#45;0.7]&#45;&gt;Shoot</title>
<path fill="none" stroke="green" stroke-width="0.214669" d="M314.781,-147.618C317.9,-147.169 320.997,-146.729 324,-146.309 445.202,-129.341 477.388,-136.207 597,-110.309 647.571,-99.3592 704.548,-80.909 740.114,-68.6321"/>
<polygon fill="green" stroke="green" stroke-width="0.214669" points="741.702,-71.7852 749.994,-65.19 739.399,-65.1749 741.702,-71.7852"/>
</g>
<!-- wallRadar[&#45;0.7,&#45;0.7]&#45;&gt;Move Forward -->
<g id="edge20" class="edge"><title>wallRadar[&#45;0.7,&#45;0.7]&#45;&gt;Move Forward</title>
<path fill="none" stroke="green" stroke-width="0.301072" stroke-dasharray="1,5" d="M314.755,-147.411C317.881,-147.012 320.985,-146.639 324,-146.309 547.676,-121.803 606.521,-143.988 829,-110.309 888.816,-101.254 956.015,-84.8672 1002.63,-72.4832"/>
<polygon fill="green" stroke="green" stroke-width="0.301072" points="1003.8,-75.7946 1012.55,-69.8263 1001.99,-69.033 1003.8,-75.7946"/>
</g>
<!-- wallRadar[&#45;0.7,&#45;0.7]&#45;&gt;Turn Left -->
<g id="edge43" class="edge"><title>wallRadar[&#45;0.7,&#45;0.7]&#45;&gt;Turn Left</title>
<path fill="none" stroke="green" stroke-width="0.37797" d="M314.746,-147.321C317.873,-146.943 320.981,-146.6 324,-146.309 676.504,-112.315 770.426,-166.987 1120,-110.309 1172,-101.877 1229.99,-84.2102 1268.28,-71.3408"/>
<polygon fill="green" stroke="green" stroke-width="0.37797" points="1269.72,-74.5496 1278.06,-68.0156 1267.46,-67.9225 1269.72,-74.5496"/>
</g>
<!-- wallRadar[&#45;0.7,&#45;0.7]&#45;&gt;Turn Right -->
<g id="edge47" class="edge"><title>wallRadar[&#45;0.7,&#45;0.7]&#45;&gt;Turn Right</title>
<path fill="none" stroke="green" stroke-width="0.270912" d="M292.75,-146.276C338.077,-130.272 440.481,-94.1165 500.903,-72.783"/>
<polygon fill="green" stroke="green" stroke-width="0.270912" points="502.322,-75.9937 510.587,-69.364 499.992,-69.393 502.322,-75.9937"/>
</g>
<!-- wallRadar[0.7,&#45;0.7] -->
<g id="node8" class="node"><title>wallRadar[0.7,&#45;0.7]</title>
<polygon fill="lightgray" stroke="black" points="591,-164.309 505,-164.309 505,-146.309 591,-146.309 591,-164.309"/>
<text text-anchor="middle" x="548" y="-153.109" font-family="Times,serif" font-size="9.00">wallRadar[0.7,&#45;0.7]</text>
</g>
<!-- wallRadar[0.7,&#45;0.7]&#45;&gt;Shoot -->
<g id="edge21" class="edge"><title>wallRadar[0.7,&#45;0.7]&#45;&gt;Shoot</title>
<path fill="none" stroke="green" stroke-width="0.133602" d="M566.576,-146.276C604.715,-129.785 692.341,-91.8957 740.953,-70.8763"/>
<polygon fill="green" stroke="green" stroke-width="0.133602" points="742.626,-73.9661 750.415,-66.7847 739.848,-67.541 742.626,-73.9661"/>
</g>
<!-- wallRadar[0.7,&#45;0.7]&#45;&gt;Move Left -->
<g id="edge3" class="edge"><title>wallRadar[0.7,&#45;0.7]&#45;&gt;Move Left</title>
<path fill="none" stroke="green" stroke-width="0.116281" d="M591.08,-147.266C594.094,-146.901 597.089,-146.576 600,-146.309 861.245,-122.318 1523.41,-164.974 1780,-110.309 1811.04,-103.695 1844.08,-90.1358 1869.33,-78.2401"/>
<polygon fill="green" stroke="green" stroke-width="0.116281" points="1871.12,-81.2669 1878.61,-73.7804 1868.08,-74.9578 1871.12,-81.2669"/>
</g>
<!-- wallRadar[0.7,&#45;0.7]&#45;&gt;Turn Right -->
<g id="edge55" class="edge"><title>wallRadar[0.7,&#45;0.7]&#45;&gt;Turn Right</title>
<path fill="none" stroke="green" stroke-width="0.160787" d="M548,-146.276C548,-137.112 548,-121.34 548,-105.527"/>
<polygon fill="green" stroke="green" stroke-width="0.160787" points="551.5,-105.199 548,-95.1987 544.5,-105.199 551.5,-105.199"/>
</g>
<!-- enemyRadar[RightBack] -->
<g id="node9" class="node"><title>enemyRadar[RightBack]</title>
<polygon fill="lightgray" stroke="black" points="2075,-164.309 1971,-164.309 1971,-146.309 2075,-146.309 2075,-164.309"/>
<text text-anchor="middle" x="2023" y="-153.109" font-family="Times,serif" font-size="9.00">enemyRadar[RightBack]</text>
</g>
<!-- enemyRadar[RightBack]&#45;&gt;Shoot -->
<g id="edge68" class="edge"><title>enemyRadar[RightBack]&#45;&gt;Shoot</title>
<path fill="none" stroke="red" stroke-width="0.331797" d="M1970.94,-147.243C1967.58,-146.895 1964.24,-146.578 1961,-146.309 1535.94,-110.981 1424.59,-168.076 1002,-110.309 933.103,-100.891 854.556,-79.7597 810.266,-66.8544"/>
<polygon fill="red" stroke="red" stroke-width="0.331797" points="811.141,-63.4638 800.56,-63.9978 809.165,-70.1789 811.141,-63.4638"/>
</g>
<!-- enemyRadar[RightBack]&#45;&gt; Move Backward -->
<g id="edge84" class="edge"><title>enemyRadar[RightBack]&#45;&gt; Move Backward</title>
<path fill="none" stroke="red" stroke-width="0.104426" d="M2023,-146.276C2023,-140.164 2023,-131.112 2023,-121.069"/>
<polygon fill="red" stroke="red" stroke-width="0.104426" points="2026.5,-120.768 2023,-110.768 2019.5,-120.768 2026.5,-120.768"/>
</g>
<!-- enemyRadar[RightBack]&#45;&gt;Move Left -->
<g id="edge8" class="edge"><title>enemyRadar[RightBack]&#45;&gt;Move Left</title>
<path fill="none" stroke="red" stroke-width="0.231691" d="M2009.28,-146.297C1995.8,-138.106 1974.99,-124.592 1959,-110.309 1953.19,-105.119 1947.41,-99.2299 1942,-93.2943"/>
<polygon fill="red" stroke="red" stroke-width="0.231691" points="1944.61,-90.9646 1935.36,-85.8 1939.37,-95.6062 1944.61,-90.9646"/>
</g>
<!-- enemyRadar[RightBack]&#45;&gt;Move right -->
<g id="edge9" class="edge"><title>enemyRadar[RightBack]&#45;&gt;Move right</title>
<path fill="none" stroke="green" stroke-width="0.122144" d="M1989.99,-146.27C1957.8,-138.16 1907.59,-124.795 1865,-110.309 1835.09,-100.136 1802.18,-86.8689 1776.47,-76.0128"/>
<polygon fill="green" stroke="green" stroke-width="0.122144" points="1777.56,-72.6727 1766.98,-71.9816 1774.82,-79.1148 1777.56,-72.6727"/>
</g>
<!-- enemyRadar[RightBack]&#45;&gt;Turn Left -->
<g id="edge66" class="edge"><title>enemyRadar[RightBack]&#45;&gt;Turn Left</title>
<path fill="none" stroke="green" stroke-width="0.343414" d="M1970.9,-147.587C1967.55,-147.154 1964.23,-146.725 1961,-146.309 1837,-130.309 1805.86,-127.339 1682,-110.309 1564.39,-94.1379 1426.05,-73.5209 1356.21,-63.0012"/>
<polygon fill="green" stroke="green" stroke-width="0.343414" points="1356.42,-59.4932 1346.01,-61.4629 1355.38,-66.415 1356.42,-59.4932"/>
</g>
<!-- enemyRadar[LeftBack] -->
<g id="node10" class="node"><title>enemyRadar[LeftBack]</title>
<polygon fill="lightgray" stroke="black" points="2329.5,-164.309 2230.5,-164.309 2230.5,-146.309 2329.5,-146.309 2329.5,-164.309"/>
<text text-anchor="middle" x="2280" y="-153.109" font-family="Times,serif" font-size="9.00">enemyRadar[LeftBack]</text>
</g>
<!-- enemyRadar[LeftBack]&#45;&gt;Shoot -->
<g id="edge2" class="edge"><title>enemyRadar[LeftBack]&#45;&gt;Shoot</title>
<path fill="none" stroke="red" stroke-width="0.470859" d="M2230.36,-147.105C2227.54,-146.806 2224.73,-146.537 2222,-146.309 1681.42,-101.183 1539.75,-181.621 1002,-110.309 933.066,-101.167 854.531,-79.9418 810.254,-66.9445"/>
<polygon fill="red" stroke="red" stroke-width="0.470859" points="811.133,-63.5547 800.551,-64.0665 809.143,-70.2658 811.133,-63.5547"/>
</g>
<!-- enemyRadar[LeftBack]&#45;&gt; Move Backward -->
<g id="edge46" class="edge"><title>enemyRadar[LeftBack]&#45;&gt; Move Backward</title>
<path fill="none" stroke="red" stroke-width="0.105563" d="M2258.97,-146.276C2221.12,-131.82 2140.22,-100.922 2083.75,-79.3573"/>
<polygon fill="red" stroke="red" stroke-width="0.105563" points="2084.8,-76.0117 2074.21,-75.7134 2082.31,-82.551 2084.8,-76.0117"/>
</g>
<!-- enemyRadar[LeftBack]&#45;&gt;Move Left -->
<g id="edge53" class="edge"><title>enemyRadar[LeftBack]&#45;&gt;Move Left</title>
<path fill="none" stroke="green" stroke-width="0.179274" d="M2230.33,-147.454C2227.51,-147.066 2224.72,-146.682 2222,-146.309 2105.12,-130.248 2062.76,-166.458 1959,-110.309 1951.92,-106.476 1945.41,-101.123 1939.65,-95.2616"/>
<polygon fill="green" stroke="green" stroke-width="0.179274" points="1942.06,-92.7075 1932.75,-87.6424 1936.87,-97.4051 1942.06,-92.7075"/>
</g>
<!-- enemyRadar[Right45ø] -->
<g id="node11" class="node"><title>enemyRadar[Right45ø]</title>
<polygon fill="lightgray" stroke="black" points="1361,-164.309 1261,-164.309 1261,-146.309 1361,-146.309 1361,-164.309"/>
<text text-anchor="middle" x="1311" y="-153.109" font-family="Times,serif" font-size="9.00">enemyRadar[Right45ø]</text>
</g>
<!-- enemyRadar[Right45ø]&#45;&gt;Shoot -->
<g id="edge17" class="edge"><title>enemyRadar[Right45ø]&#45;&gt;Shoot</title>
<path fill="none" stroke="red" stroke-width="0.149628" d="M1260.86,-147.428C1179.88,-136.279 1026.85,-115.032 1002,-110.309 933.685,-97.3251 854.94,-77.4094 810.455,-65.6925"/>
<polygon fill="red" stroke="red" stroke-width="0.149628" points="811.268,-62.2871 800.705,-63.1109 809.476,-69.0539 811.268,-62.2871"/>
</g>
<!-- enemyRadar[Right45ø]&#45;&gt;Move Forward -->
<g id="edge61" class="edge"><title>enemyRadar[Right45ø]&#45;&gt;Move Forward</title>
<path fill="none" stroke="green" stroke-width="0.292375" d="M1290.54,-146.276C1253.03,-131.548 1172.04,-99.7512 1117.02,-78.148"/>
<polygon fill="green" stroke="green" stroke-width="0.292375" points="1117.99,-74.7697 1107.4,-74.3729 1115.43,-81.2855 1117.99,-74.7697"/>
</g>
<!-- enemyRadar[Right45ø]&#45;&gt;Move Left -->
<g id="edge54" class="edge"><title>enemyRadar[Right45ø]&#45;&gt;Move Left</title>
<path fill="none" stroke="green" stroke-width="0.350462" d="M1361.19,-147.339C1364.17,-146.976 1367.12,-146.63 1370,-146.309 1551.79,-126.014 1602.25,-153.515 1780,-110.309 1810.73,-102.838 1843.65,-89.3473 1868.92,-77.7003"/>
<polygon fill="green" stroke="green" stroke-width="0.350462" points="1870.64,-80.7578 1878.21,-73.3432 1867.67,-74.42 1870.64,-80.7578"/>
</g>
<!-- enemyRadar[Right45ø]&#45;&gt;Move right -->
<g id="edge58" class="edge"><title>enemyRadar[Right45ø]&#45;&gt;Move right</title>
<path fill="none" stroke="red" stroke-width="0.161141" d="M1345.37,-146.276C1420,-128.836 1597.03,-87.463 1682.79,-67.4216"/>
<polygon fill="red" stroke="red" stroke-width="0.161141" points="1683.59,-70.8281 1692.53,-65.1442 1682,-64.0118 1683.59,-70.8281"/>
</g>
<!-- enemyRadar[Right45ø]&#45;&gt;Turn Left -->
<g id="edge6" class="edge"><title>enemyRadar[Right45ø]&#45;&gt;Turn Left</title>
<path fill="none" stroke="green" stroke-width="0.210863" d="M1311,-146.276C1311,-136.172 1311,-118.035 1311,-100.667"/>
<polygon fill="green" stroke="green" stroke-width="0.210863" points="1314.5,-100.596 1311,-90.596 1307.5,-100.596 1314.5,-100.596"/>
</g>
<!-- enemyRadar[Left45ø] -->
<g id="node12" class="node"><title>enemyRadar[Left45ø]</title>
<polygon fill="lightgray" stroke="black" points="882.5,-164.309 787.5,-164.309 787.5,-146.309 882.5,-146.309 882.5,-164.309"/>
<text text-anchor="middle" x="835" y="-153.109" font-family="Times,serif" font-size="9.00">enemyRadar[Left45ø]</text>
</g>
<!-- enemyRadar[Left45ø]&#45;&gt;Shoot -->
<g id="edge45" class="edge"><title>enemyRadar[Left45ø]&#45;&gt;Shoot</title>
<path fill="none" stroke="green" stroke-width="0.37081" d="M830.09,-146.276C822.288,-133.514 806.653,-107.935 794.025,-87.2781"/>
<polygon fill="green" stroke="green" stroke-width="0.37081" points="796.854,-85.1952 788.652,-78.4884 790.882,-88.8461 796.854,-85.1952"/>
</g>
<!-- enemyRadar[Left45ø]&#45;&gt;Move Forward -->
<g id="edge71" class="edge"><title>enemyRadar[Left45ø]&#45;&gt;Move Forward</title>
<path fill="none" stroke="red" stroke-width="0.112265" d="M853.495,-146.276C886.375,-131.996 956.2,-101.67 1005.76,-80.1474"/>
<polygon fill="red" stroke="red" stroke-width="0.112265" points="1007.29,-83.2963 1015.07,-76.1023 1004.5,-76.8757 1007.29,-83.2963"/>
</g>
<!-- enemyRadar[Left45ø]&#45;&gt;Turn Left -->
<g id="edge33" class="edge"><title>enemyRadar[Left45ø]&#45;&gt;Turn Left</title>
<path fill="none" stroke="green" stroke-width="0.122385" d="M882.777,-147.261C957.864,-136.136 1097.32,-115.256 1120,-110.309 1171.32,-99.1173 1229.21,-82.0613 1267.68,-70.0878"/>
<polygon fill="green" stroke="green" stroke-width="0.122385" points="1269.01,-73.3383 1277.51,-67.0075 1266.92,-66.6588 1269.01,-73.3383"/>
</g>
<!-- enemyRadar[RightFront20ø] -->
<g id="node13" class="node"><title>enemyRadar[RightFront20ø]</title>
<polygon fill="lightgray" stroke="black" points="207.5,-164.309 88.5,-164.309 88.5,-146.309 207.5,-146.309 207.5,-164.309"/>
<text text-anchor="middle" x="148" y="-153.109" font-family="Times,serif" font-size="9.00">enemyRadar[RightFront20ø]</text>
</g>
<!-- enemyRadar[RightFront20ø]&#45;&gt;Shoot -->
<g id="edge77" class="edge"><title>enemyRadar[RightFront20ø]&#45;&gt;Shoot</title>
<path fill="none" stroke="green" stroke-width="0.326926" d="M207.695,-147.207C210.502,-146.898 213.281,-146.597 216,-146.309 385.139,-128.371 430.129,-143.228 597,-110.309 647.764,-100.294 704.693,-81.6088 740.196,-69.0249"/>
<polygon fill="green" stroke="green" stroke-width="0.326926" points="741.823,-72.1596 750.056,-65.491 739.462,-65.57 741.823,-72.1596"/>
</g>
<!-- enemyRadar[RightFront20ø]&#45;&gt;Move right -->
<g id="edge22" class="edge"><title>enemyRadar[RightFront20ø]&#45;&gt;Move right</title>
<path fill="none" stroke="red" stroke-width="0.370446" d="M207.676,-146.995C210.488,-146.743 213.274,-146.512 216,-146.309 721.076,-108.686 850.455,-154.478 1355,-110.309 1473.04,-99.9752 1610.59,-77.4728 1682.13,-64.9718"/>
<polygon fill="red" stroke="red" stroke-width="0.370446" points="1682.95,-68.381 1692.19,-63.2026 1681.74,-61.4867 1682.95,-68.381"/>
</g>
<!-- enemyRadar[RightFront20ø]&#45;&gt;Turn Right -->
<g id="edge52" class="edge"><title>enemyRadar[RightFront20ø]&#45;&gt;Turn Right</title>
<path fill="none" stroke="red" stroke-width="0.262624" d="M180.734,-146.276C251.126,-129.003 417.186,-88.2544 499.71,-68.0041"/>
<polygon fill="red" stroke="red" stroke-width="0.262624" points="500.709,-71.3628 509.587,-65.5804 499.041,-64.5645 500.709,-71.3628"/>
</g>
<!-- enemyRadar[LeftFront20ø] -->
<g id="node14" class="node"><title>enemyRadar[LeftFront20ø]</title>
<polygon fill="lightgray" stroke="black" points="2462,-164.309 2348,-164.309 2348,-146.309 2462,-146.309 2462,-164.309"/>
<text text-anchor="middle" x="2405" y="-153.109" font-family="Times,serif" font-size="9.00">enemyRadar[LeftFront20ø]</text>
</g>
<!-- enemyRadar[LeftFront20ø]&#45;&gt; Move Backward -->
<g id="edge37" class="edge"><title>enemyRadar[LeftFront20ø]&#45;&gt; Move Backward</title>
<path fill="none" stroke="red" stroke-width="0.342966" d="M2373.74,-146.276C2311.07,-130.173 2169,-93.6684 2086.18,-72.3889"/>
<polygon fill="red" stroke="red" stroke-width="0.342966" points="2086.94,-68.9705 2076.39,-69.8717 2085.2,-75.7503 2086.94,-68.9705"/>
</g>
<!-- enemyRadar[LeftFront20ø]&#45;&gt;Move Left -->
<g id="edge7" class="edge"><title>enemyRadar[LeftFront20ø]&#45;&gt;Move Left</title>
<path fill="none" stroke="green" stroke-width="0.169075" d="M2347.77,-147.279C2344.81,-146.944 2341.87,-146.618 2339,-146.309 2254.67,-137.204 2034.42,-149.119 1959,-110.309 1951.76,-106.584 1945.15,-101.229 1939.33,-95.3192"/>
<polygon fill="green" stroke="green" stroke-width="0.169075" points="1941.68,-92.6965 1932.38,-87.6179 1936.48,-97.3866 1941.68,-92.6965"/>
</g>
<!-- enemyRadar[LeftFront20ø]&#45;&gt;Move right -->
<g id="edge64" class="edge"><title>enemyRadar[LeftFront20ø]&#45;&gt;Move right</title>
<path fill="none" stroke="red" stroke-width="0.229707" d="M2347.78,-147.214C2344.81,-146.896 2341.87,-146.592 2339,-146.309 2128.74,-125.592 2070.71,-158.461 1865,-110.309 1834.13,-103.083 1801.09,-89.7964 1775.54,-78.1931"/>
<polygon fill="red" stroke="red" stroke-width="0.229707" points="1776.68,-74.8646 1766.13,-73.8445 1773.74,-81.2183 1776.68,-74.8646"/>
</g>
<!-- enemyRadar[LeftFront20ø]&#45;&gt;Turn Left -->
<g id="edge15" class="edge"><title>enemyRadar[LeftFront20ø]&#45;&gt;Turn Left</title>
<path fill="none" stroke="green" stroke-width="0.199308" d="M2347.79,-147.14C2344.82,-146.841 2341.87,-146.561 2339,-146.309 2047.69,-120.7 1972.98,-139.458 1682,-110.309 1563.72,-98.4596 1425.39,-75.9566 1355.81,-64.0304"/>
<polygon fill="green" stroke="green" stroke-width="0.199308" points="1356.1,-60.5288 1345.65,-62.2802 1354.91,-67.4271 1356.1,-60.5288"/>
</g>
<!-- enemyRadar[RightFront15ø] -->
<g id="node15" class="node"><title>enemyRadar[RightFront15ø]</title>
<polygon fill="lightgray" stroke="black" points="2212.5,-164.309 2093.5,-164.309 2093.5,-146.309 2212.5,-146.309 2212.5,-164.309"/>
<text text-anchor="middle" x="2153" y="-153.109" font-family="Times,serif" font-size="9.00">enemyRadar[RightFront15ø]</text>
</g>
<!-- enemyRadar[RightFront15ø]&#45;&gt;Move Forward -->
<g id="edge18" class="edge"><title>enemyRadar[RightFront15ø]&#45;&gt;Move Forward</title>
<path fill="none" stroke="green" stroke-width="0.458203" d="M2093.19,-147.109C2090.08,-146.818 2087.01,-146.549 2084,-146.309 1721.69,-117.36 1626.35,-164.822 1267,-110.309 1216,-102.572 1159.41,-87.1866 1118.47,-74.7858"/>
<polygon fill="green" stroke="green" stroke-width="0.458203" points="1119.26,-71.3675 1108.68,-71.7852 1117.21,-78.0606 1119.26,-71.3675"/>
</g>
<!-- enemyRadar[RightFront15ø]&#45;&gt; Move Backward -->
<g id="edge23" class="edge"><title>enemyRadar[RightFront15ø]&#45;&gt; Move Backward</title>
<path fill="none" stroke="red" stroke-width="0.17194" d="M2142.36,-146.276C2127.59,-135.121 2099.85,-114.176 2074.83,-95.2841"/>
<polygon fill="red" stroke="red" stroke-width="0.17194" points="2076.91,-92.4699 2066.82,-89.2374 2072.69,-98.0563 2076.91,-92.4699"/>
</g>
<!-- enemyRadar[RightFront15ø]&#45;&gt;Move Left -->
<g id="edge13" class="edge"><title>enemyRadar[RightFront15ø]&#45;&gt;Move Left</title>
<path fill="none" stroke="green" stroke-width="0.160102" d="M2101.16,-146.297C2052.12,-138.056 1982.63,-124.458 1959,-110.309 1952.09,-106.172 1945.67,-100.668 1939.94,-94.7516"/>
<polygon fill="green" stroke="green" stroke-width="0.160102" points="1942.35,-92.1974 1933.05,-87.1095 1937.15,-96.8822 1942.35,-92.1974"/>
</g>
<!-- enemyRadar[RightFront15ø]&#45;&gt;Move right -->
<g id="edge73" class="edge"><title>enemyRadar[RightFront15ø]&#45;&gt;Move right</title>
<path fill="none" stroke="red" stroke-width="0.294612" d="M2093.25,-146.844C2021.86,-137.633 1906.83,-121.787 1865,-110.309 1834.42,-101.918 1801.39,-88.6169 1775.77,-77.2971"/>
<polygon fill="red" stroke="red" stroke-width="0.294612" points="1776.89,-73.9643 1766.33,-73.07 1774.03,-80.3526 1776.89,-73.9643"/>
</g>
<!-- enemyRadar[RightFront15ø]&#45;&gt;Turn Left -->
<g id="edge30" class="edge"><title>enemyRadar[RightFront15ø]&#45;&gt;Turn Left</title>
<path fill="none" stroke="red" stroke-width="0.274407" d="M2093.17,-147.275C2090.07,-146.941 2087,-146.617 2084,-146.309 1905.56,-127.977 1860.15,-131.272 1682,-110.309 1564.09,-96.4348 1425.88,-74.8419 1356.14,-63.571"/>
<polygon fill="red" stroke="red" stroke-width="0.274407" points="1356.38,-60.065 1345.95,-61.9192 1355.26,-66.9747 1356.38,-60.065"/>
</g>
<!-- enemyRadar[LeftFront15ø] -->
<g id="node16" class="node"><title>enemyRadar[LeftFront15ø]</title>
<polygon fill="lightgray" stroke="black" points="1243,-164.309 1129,-164.309 1129,-146.309 1243,-146.309 1243,-164.309"/>
<text text-anchor="middle" x="1186" y="-153.109" font-family="Times,serif" font-size="9.00">enemyRadar[LeftFront15ø]</text>
</g>
<!-- enemyRadar[LeftFront15ø]&#45;&gt;Shoot -->
<g id="edge44" class="edge"><title>enemyRadar[LeftFront15ø]&#45;&gt;Shoot</title>
<path fill="none" stroke="red" stroke-width="0.330057" d="M1152.37,-146.276C1075.86,-128.004 889.348,-83.4628 810.804,-64.705"/>
<polygon fill="red" stroke="red" stroke-width="0.330057" points="811.437,-61.2577 800.897,-62.3391 809.811,-68.0663 811.437,-61.2577"/>
</g>
<!-- enemyRadar[LeftFront15ø]&#45;&gt;Move Forward -->
<g id="edge35" class="edge"><title>enemyRadar[LeftFront15ø]&#45;&gt;Move Forward</title>
<path fill="none" stroke="green" stroke-width="0.170317" d="M1175.77,-146.276C1160.99,-134.667 1132.7,-112.453 1107.91,-92.9861"/>
<polygon fill="green" stroke="green" stroke-width="0.170317" points="1110.03,-90.202 1100,-86.7789 1105.7,-95.7076 1110.03,-90.202"/>
</g>
<!-- enemyRadar[LeftFront15ø]&#45;&gt;Move Left -->
<g id="edge51" class="edge"><title>enemyRadar[LeftFront15ø]&#45;&gt;Move Left</title>
<path fill="none" stroke="green" stroke-width="0.137707" stroke-dasharray="1,5" d="M1243.22,-147.187C1246.19,-146.876 1249.13,-146.581 1252,-146.309 1486.17,-124.149 1550.91,-163.633 1780,-110.309 1810.81,-103.138 1843.72,-89.6481 1868.98,-77.9265"/>
<polygon fill="green" stroke="green" stroke-width="0.137707" points="1870.71,-80.9757 1878.26,-73.5375 1867.72,-74.6472 1870.71,-80.9757"/>
</g>
<!-- enemyRadar[LeftFront15ø]&#45;&gt;Turn Left -->
<g id="edge79" class="edge"><title>enemyRadar[LeftFront15ø]&#45;&gt;Turn Left</title>
<path fill="none" stroke="red" stroke-width="0.471492" d="M1196.23,-146.276C1213.35,-132.833 1248.58,-105.169 1275.52,-84.0159"/>
<polygon fill="red" stroke="red" stroke-width="0.471492" points="1277.88,-86.612 1283.58,-77.6833 1273.56,-81.1065 1277.88,-86.612"/>
</g>
<!-- enemyRadar[RightFront7.5ø] -->
<g id="node17" class="node"><title>enemyRadar[RightFront7.5ø]</title>
<polygon fill="lightgray" stroke="black" points="1111,-164.309 989,-164.309 989,-146.309 1111,-146.309 1111,-164.309"/>
<text text-anchor="middle" x="1050" y="-153.109" font-family="Times,serif" font-size="9.00">enemyRadar[RightFront7.5ø]</text>
</g>
<!-- enemyRadar[RightFront7.5ø]&#45;&gt;Shoot -->
<g id="edge57" class="edge"><title>enemyRadar[RightFront7.5ø]&#45;&gt;Shoot</title>
<path fill="none" stroke="green" stroke-width="0.130132" d="M1027.5,-146.276C979.575,-129.172 867.165,-89.0502 809.883,-68.6048"/>
<polygon fill="green" stroke="green" stroke-width="0.130132" points="810.782,-65.2095 800.187,-65.1442 808.428,-71.8021 810.782,-65.2095"/>
</g>
<!-- enemyRadar[RightFront7.5ø]&#45;&gt; Move Backward -->
<g id="edge31" class="edge"><title>enemyRadar[RightFront7.5ø]&#45;&gt; Move Backward</title>
<path fill="none" stroke="green" stroke-width="0.513453" d="M1111.06,-147.072C1114.08,-146.795 1117.07,-146.538 1120,-146.309 1213.02,-139.007 1872.09,-144.274 1959,-110.309 1964.96,-107.979 1970.76,-104.852 1976.28,-101.271"/>
<polygon fill="green" stroke="green" stroke-width="0.513453" points="1978.56,-103.946 1984.71,-95.3175 1974.52,-98.229 1978.56,-103.946"/>
</g>
<!-- enemyRadar[RightFront7.5ø]&#45;&gt;Move right -->
<g id="edge1" class="edge"><title>enemyRadar[RightFront7.5ø]&#45;&gt;Move right</title>
<path fill="none" stroke="green" stroke-width="0.259795" d="M1105.73,-146.276C1235.96,-127.505 1558.54,-81.0118 1681.92,-63.2277"/>
<polygon fill="green" stroke="green" stroke-width="0.259795" points="1682.45,-66.6881 1691.85,-61.7972 1681.45,-59.7597 1682.45,-66.6881"/>
</g>
<!-- enemyRadar[RightFront7.5ø]&#45;&gt;Turn Right -->
<g id="edge63" class="edge"><title>enemyRadar[RightFront7.5ø]&#45;&gt;Turn Right</title>
<path fill="none" stroke="green" stroke-width="0.345705" d="M988.672,-146.637C912.044,-136.876 785.348,-120.111 739,-110.309 689.472,-99.8344 633.905,-83.5531 595.531,-71.5759"/>
<polygon fill="green" stroke="green" stroke-width="0.345705" points="596.261,-68.1367 585.672,-68.4754 594.161,-74.8143 596.261,-68.1367"/>
</g>
<!-- enemyRadar[LeftFront7.5ø] -->
<g id="node18" class="node"><title>enemyRadar[LeftFront7.5ø]</title>
<polygon fill="lightgray" stroke="black" points="1495,-164.309 1379,-164.309 1379,-146.309 1495,-146.309 1495,-164.309"/>
<text text-anchor="middle" x="1437" y="-153.109" font-family="Times,serif" font-size="9.00">enemyRadar[LeftFront7.5ø]</text>
</g>
<!-- enemyRadar[LeftFront7.5ø]&#45;&gt; Move Backward -->
<g id="edge83" class="edge"><title>enemyRadar[LeftFront7.5ø]&#45;&gt; Move Backward</title>
<path fill="none" stroke="red" stroke-width="0.293003" d="M1495.09,-147.229C1498.1,-146.907 1501.09,-146.598 1504,-146.309 1604.93,-136.294 1865.21,-148.927 1959,-110.309 1964.92,-107.872 1970.69,-104.675 1976.19,-101.05"/>
<polygon fill="red" stroke="red" stroke-width="0.293003" points="1978.49,-103.708 1984.6,-95.0506 1974.43,-98.0101 1978.49,-103.708"/>
</g>
<!-- enemyRadar[LeftFront7.5ø]&#45;&gt;Turn Left -->
<g id="edge41" class="edge"><title>enemyRadar[LeftFront7.5ø]&#45;&gt;Turn Left</title>
<path fill="none" stroke="green" stroke-width="0.310121" d="M1426.69,-146.276C1409.43,-132.833 1373.92,-105.169 1346.77,-84.0159"/>
<polygon fill="green" stroke="green" stroke-width="0.310121" points="1348.68,-81.0677 1338.64,-77.6833 1344.37,-86.5899 1348.68,-81.0677"/>
</g>
<!-- enemyRadar[LeftFront7.5ø]&#45;&gt;Turn Right -->
<g id="edge27" class="edge"><title>enemyRadar[LeftFront7.5ø]&#45;&gt;Turn Right</title>
<path fill="none" stroke="red" stroke-width="0.196451" d="M1378.92,-147.151C1375.9,-146.849 1372.92,-146.566 1370,-146.309 1090.18,-121.645 1016.01,-156.9 739,-110.309 688.922,-101.886 633.222,-85.2207 594.958,-72.5904"/>
<polygon fill="red" stroke="red" stroke-width="0.196451" points="595.728,-69.1576 585.134,-69.3098 593.511,-75.7971 595.728,-69.1576"/>
</g>
<!-- enemyRadar[RightFront2.5ø] -->
<g id="node19" class="node"><title>enemyRadar[RightFront2.5ø]</title>
<polygon fill="lightgray" stroke="black" points="1861,-164.309 1739,-164.309 1739,-146.309 1861,-146.309 1861,-164.309"/>
<text text-anchor="middle" x="1800" y="-153.109" font-family="Times,serif" font-size="9.00">enemyRadar[RightFront2.5ø]</text>
</g>
<!-- enemyRadar[RightFront2.5ø]&#45;&gt;Move right -->
<g id="edge56" class="edge"><title>enemyRadar[RightFront2.5ø]&#45;&gt;Move right</title>
<path fill="none" stroke="green" stroke-width="0.514186" d="M1794.35,-146.276C1786.65,-135.318 1772.3,-114.911 1759.21,-96.2837"/>
<polygon fill="green" stroke="green" stroke-width="0.514186" points="1761.92,-94.059 1753.31,-87.8909 1756.2,-98.0846 1761.92,-94.059"/>
</g>
<!-- enemyRadar[RightFront2.5ø]&#45;&gt;Turn Left -->
<g id="edge25" class="edge"><title>enemyRadar[RightFront2.5ø]&#45;&gt;Turn Left</title>
<path fill="none" stroke="red" stroke-width="0.176565" d="M1759.98,-146.276C1669.53,-128.12 1449.86,-84.0268 1355.39,-65.065"/>
<polygon fill="red" stroke="red" stroke-width="0.176565" points="1356.07,-61.6314 1345.58,-63.0948 1354.69,-68.4945 1356.07,-61.6314"/>
</g>
<!-- enemyRadar[LeftFront2.5ø] -->
<g id="node20" class="node"><title>enemyRadar[LeftFront2.5ø]</title>
<polygon fill="lightgray" stroke="black" points="1721,-164.309 1605,-164.309 1605,-146.309 1721,-146.309 1721,-164.309"/>
<text text-anchor="middle" x="1663" y="-153.109" font-family="Times,serif" font-size="9.00">enemyRadar[LeftFront2.5ø]</text>
</g>
<!-- enemyRadar[LeftFront2.5ø]&#45;&gt;Shoot -->
<g id="edge12" class="edge"><title>enemyRadar[LeftFront2.5ø]&#45;&gt;Shoot</title>
<path fill="none" stroke="green" stroke-width="0.17079" d="M1604.78,-147.241C1601.48,-146.907 1598.2,-146.594 1595,-146.309 1332,-122.874 1263.18,-149.09 1002,-110.309 933.217,-100.095 854.631,-79.2353 810.303,-66.5952"/>
<polygon fill="green" stroke="green" stroke-width="0.17079" points="811.166,-63.2017 800.588,-63.7999 809.23,-69.9288 811.166,-63.2017"/>
</g>
<!-- enemyRadar[LeftFront2.5ø]&#45;&gt;Move Forward -->
<g id="edge74" class="edge"><title>enemyRadar[LeftFront2.5ø]&#45;&gt;Move Forward</title>
<path fill="none" stroke="green" stroke-width="0.435195" d="M1604.76,-147.427C1601.46,-147.046 1598.19,-146.671 1595,-146.309 1449.29,-129.741 1411.2,-137.025 1267,-110.309 1216.28,-100.911 1159.67,-85.6754 1118.64,-73.7542"/>
<polygon fill="green" stroke="green" stroke-width="0.435195" points="1119.41,-70.3309 1108.83,-70.8782 1117.44,-77.0486 1119.41,-70.3309"/>
</g>
<!-- enemyRadar[LeftFront2.5ø]&#45;&gt; Move Backward -->
<g id="edge59" class="edge"><title>enemyRadar[LeftFront2.5ø]&#45;&gt; Move Backward</title>
<path fill="none" stroke="red" stroke-width="0.101339" d="M1721.23,-146.486C1804.36,-135.198 1948.28,-115.161 1959,-110.309 1964.83,-107.67 1970.55,-104.341 1976.01,-100.635"/>
<polygon fill="red" stroke="red" stroke-width="0.101339" points="1978.36,-103.261 1984.38,-94.5484 1974.24,-97.5993 1978.36,-103.261"/>
</g>
<!-- enemyRadar[LeftFront2.5ø]&#45;&gt;Move right -->
<g id="edge69" class="edge"><title>enemyRadar[LeftFront2.5ø]&#45;&gt;Move right</title>
<path fill="none" stroke="red" stroke-width="0.218539" d="M1668.56,-146.276C1676.1,-135.397 1690.09,-115.206 1702.92,-96.6889"/>
<polygon fill="red" stroke="red" stroke-width="0.218539" points="1705.89,-98.5516 1708.7,-88.3383 1700.13,-94.5652 1705.89,-98.5516"/>
</g>
<!-- OnTarget -->
<g id="node21" class="node"><title>OnTarget</title>
<polygon fill="lightgray" stroke="black" points="383,-164.309 333,-164.309 333,-146.309 383,-146.309 383,-164.309"/>
<text text-anchor="middle" x="358" y="-153.109" font-family="Times,serif" font-size="9.00">OnTarget</text>
</g>
<!-- OnTarget&#45;&gt;Shoot -->
<g id="edge34" class="edge"><title>OnTarget&#45;&gt;Shoot</title>
<path fill="none" stroke="red" stroke-width="0.165688" d="M383.215,-148.206C386.171,-147.541 389.149,-146.894 392,-146.309 482.616,-127.707 507.028,-131.811 597,-110.309 647.325,-98.2814 704.365,-80.1022 740.011,-68.1792"/>
<polygon fill="red" stroke="red" stroke-width="0.165688" points="741.555,-71.3523 749.915,-64.8431 739.321,-64.7185 741.555,-71.3523"/>
</g>
<!-- OnTarget&#45;&gt;Move Forward -->
<g id="edge48" class="edge"><title>OnTarget&#45;&gt;Move Forward</title>
<path fill="none" stroke="green" stroke-width="0.10131" d="M383.168,-147.946C386.133,-147.328 389.125,-146.763 392,-146.309 584.494,-115.907 636.479,-140.54 829,-110.309 888.765,-100.924 955.972,-84.5846 1002.61,-72.3015"/>
<polygon fill="green" stroke="green" stroke-width="0.10131" points="1003.76,-75.6162 1012.53,-69.6675 1001.97,-68.8505 1003.76,-75.6162"/>
</g>
<!-- OnTarget&#45;&gt;Turn Left -->
<g id="edge19" class="edge"><title>OnTarget&#45;&gt;Turn Left</title>
<path fill="none" stroke="green" stroke-width="0.189322" d="M383.154,-147.853C386.121,-147.251 389.118,-146.716 392,-146.309 712.77,-101.023 800.335,-162.83 1120,-110.309 1171.83,-101.794 1229.63,-84.2278 1267.93,-71.4032"/>
<polygon fill="green" stroke="green" stroke-width="0.189322" points="1269.36,-74.6126 1277.71,-68.0885 1267.12,-67.9828 1269.36,-74.6126"/>
</g>
<!-- OnTarget&#45;&gt;Turn Right -->
<g id="edge65" class="edge"><title>OnTarget&#45;&gt;Turn Right</title>
<path fill="none" stroke="green" stroke-width="0.536917" d="M373.548,-146.276C401.728,-131.719 462.185,-100.487 503.963,-78.9041"/>
<polygon fill="green" stroke="green" stroke-width="0.536917" points="505.821,-81.8835 513.099,-74.1841 502.608,-75.6644 505.821,-81.8835"/>
</g>
<!-- TakingDmg -->
<g id="node22" class="node"><title>TakingDmg</title>
<polygon fill="lightgray" stroke="black" points="668.5,-164.309 609.5,-164.309 609.5,-146.309 668.5,-146.309 668.5,-164.309"/>
<text text-anchor="middle" x="639" y="-153.109" font-family="Times,serif" font-size="9.00">TakingDmg</text>
</g>
<!-- TakingDmg&#45;&gt;Shoot -->
<g id="edge14" class="edge"><title>TakingDmg&#45;&gt;Shoot</title>
<path fill="none" stroke="green" stroke-width="0.161006" d="M650.129,-146.276C670.685,-131.441 715.233,-99.2896 745.174,-77.6802"/>
<polygon fill="green" stroke="green" stroke-width="0.161006" points="747.517,-80.3062 753.577,-71.6158 743.42,-74.63 747.517,-80.3062"/>
</g>
<!-- TakingDmg&#45;&gt;Move Forward -->
<g id="edge4" class="edge"><title>TakingDmg&#45;&gt;Move Forward</title>
<path fill="none" stroke="red" stroke-width="0.551776" d="M668.623,-147.465C706.005,-138.826 772.275,-123.497 829,-110.309 887.925,-96.6084 955.252,-80.885 1002.14,-69.9228"/>
<polygon fill="red" stroke="red" stroke-width="0.551776" points="1003.18,-73.2741 1012.12,-67.5893 1001.59,-66.4579 1003.18,-73.2741"/>
</g>
<!-- TakingDmg&#45;&gt; Move Backward -->
<g id="edge36" class="edge"><title>TakingDmg&#45;&gt; Move Backward</title>
<path fill="none" stroke="green" stroke-width="0.272178" d="M668.787,-147.51C671.553,-147.039 674.322,-146.626 677,-146.309 818.513,-129.563 1825.9,-161.196 1959,-110.309 1964.98,-108.023 1970.79,-104.925 1976.32,-101.362"/>
<polygon fill="green" stroke="green" stroke-width="0.272178" points="1978.59,-104.044 1984.75,-95.4277 1974.56,-98.3194 1978.59,-104.044"/>
</g>
<!-- TakingDmg&#45;&gt;Turn Right -->
<g id="edge70" class="edge"><title>TakingDmg&#45;&gt;Turn Right</title>
<path fill="none" stroke="red" stroke-width="0.128613" d="M631.553,-146.276C620.638,-134.503 599.61,-111.822 581.382,-92.1609"/>
<polygon fill="red" stroke="red" stroke-width="0.128613" points="583.925,-89.756 574.56,-84.8023 578.792,-94.5152 583.925,-89.756"/>
</g>
<!-- bias -->
<g id="node23" class="node"><title>bias</title>
<polygon fill="lightgray" stroke="black" points="2511.5,-164.309 2480.5,-164.309 2480.5,-146.309 2511.5,-146.309 2511.5,-164.309"/>
<text text-anchor="middle" x="2496" y="-153.109" font-family="Times,serif" font-size="9.00">bias</text>
</g>
<!-- bias&#45;&gt; Move Backward -->
<g id="edge29" class="edge"><title>bias&#45;&gt; Move Backward</title>
<path fill="none" stroke="red" stroke-width="0.32417" d="M2480.47,-149.046C2477.36,-148.072 2474.09,-147.111 2471,-146.309 2336.01,-111.244 2175.17,-81.8257 2087.63,-66.8329"/>
<polygon fill="red" stroke="red" stroke-width="0.32417" points="2088.02,-63.3504 2077.58,-65.1204 2086.85,-70.2509 2088.02,-63.3504"/>
</g>
<!-- bias&#45;&gt;Move Left -->
<g id="edge32" class="edge"><title>bias&#45;&gt;Move Left</title>
<path fill="none" stroke="green" stroke-width="0.10403" d="M2480.28,-148.649C2477.23,-147.732 2474.04,-146.894 2471,-146.309 2358.99,-124.773 2061.04,-161.262 1959,-110.309 1951.72,-106.672 1945.09,-101.36 1939.25,-95.4656"/>
<polygon fill="green" stroke="green" stroke-width="0.10403" points="1941.6,-92.8433 1932.3,-87.7703 1936.41,-97.5365 1941.6,-92.8433"/>
</g>
<!-- bias&#45;&gt;Move right -->
<g id="edge80" class="edge"><title>bias&#45;&gt;Move right</title>
<path fill="none" stroke="red" stroke-width="0.245444" d="M2480.28,-148.622C2477.24,-147.708 2474.05,-146.877 2471,-146.309 2205.77,-96.8058 2128.2,-169.637 1865,-110.309 1834.07,-103.337 1801.03,-90.0541 1775.49,-78.3888"/>
<polygon fill="red" stroke="red" stroke-width="0.245444" points="1776.64,-75.0609 1766.09,-74.0137 1773.68,-81.407 1776.64,-75.0609"/>
</g>
<!-- Shoot&#45;&gt;Shoot -->
<g id="edge81" class="edge"><title>Shoot&#45;&gt;Shoot</title>
<path fill="none" stroke="red" stroke-width="0.331042" d="M795.77,-72.7325C808.185,-76.6387 819.87,-70.7793 819.87,-55.1543 819.87,-43.9239 813.834,-37.7383 805.828,-36.5977"/>
<polygon fill="red" stroke="red" stroke-width="0.331042" points="805.384,-33.1243 795.77,-37.5762 806.062,-40.0914 805.384,-33.1243"/>
</g>
</g>
</svg>
