<?xml version="1.0" encoding="UTF-8" standalone="no"?>
<!DOCTYPE svg PUBLIC "-//W3C//DTD SVG 1.1//EN"
 "http://www.w3.org/Graphics/SVG/1.1/DTD/svg11.dtd">
<!-- Generated by graphviz version 2.38.0 (20140413.2041)
 -->
<!-- Title: %3 Pages: 1 -->
<svg width="2520pt" height="172pt"
 viewBox="0.00 0.00 2519.50 172.31" xmlns="http://www.w3.org/2000/svg" xmlns:xlink="http://www.w3.org/1999/xlink">
<g id="graph0" class="graph" transform="scale(1 1) rotate(0) translate(4 168.309)">
<title>%3</title>
<polygon fill="white" stroke="none" points="-4,4 -4,-168.309 2515.5,-168.309 2515.5,4 -4,4"/>
<!-- wallRadar[1,0] -->
<g id="node1" class="node"><title>wallRadar[1,0]</title>
<polygon fill="lightgray" stroke="black" points="564,-164.309 494,-164.309 494,-146.309 564,-146.309 564,-164.309"/>
<text text-anchor="middle" x="529" y="-153.109" font-family="Times,serif" font-size="9.00">wallRadar[1,0]</text>
</g>
<!-- Shoot -->
<g id="node24" class="node"><title>Shoot</title>
<ellipse fill="lightblue" stroke="black" cx="1103" cy="-55.1543" rx="26.7407" ry="26.7407"/>
<text text-anchor="middle" x="1103" y="-52.9543" font-family="Times,serif" font-size="9.00">Shoot</text>
</g>
<!-- wallRadar[1,0]&#45;&gt;Shoot -->
<g id="edge58" class="edge"><title>wallRadar[1,0]&#45;&gt;Shoot</title>
<path fill="none" stroke="red" stroke-width="0.3284" d="M564.013,-147.598C567.046,-147.122 570.073,-146.682 573,-146.309 679.983,-132.643 960.863,-159.196 1057,-110.309 1067.52,-104.957 1076.61,-96.0387 1083.86,-86.9678"/>
<polygon fill="red" stroke="red" stroke-width="0.3284" points="1086.85,-88.8111 1089.99,-78.6926 1081.22,-84.6437 1086.85,-88.8111"/>
</g>
<!-- Move Forward -->
<g id="node25" class="node"><title>Move Forward</title>
<ellipse fill="lightblue" stroke="black" cx="909" cy="-55.1543" rx="50.41" ry="50.41"/>
<text text-anchor="middle" x="909" y="-52.9543" font-family="Times,serif" font-size="9.00">Move Forward</text>
</g>
<!-- wallRadar[1,0]&#45;&gt;Move Forward -->
<g id="edge55" class="edge"><title>wallRadar[1,0]&#45;&gt;Move Forward</title>
<path fill="none" stroke="red" stroke-width="0.218661" d="M564.049,-147.845C567.075,-147.315 570.09,-146.796 573,-146.309 677.212,-128.856 707.771,-143.756 808,-110.309 824.881,-104.675 842.296,-96.3674 857.81,-87.9417"/>
<polygon fill="red" stroke="red" stroke-width="0.218661" points="859.674,-90.9101 866.707,-82.9865 856.267,-84.7947 859.674,-90.9101"/>
</g>
<!-- Move right -->
<g id="node28" class="node"><title>Move right</title>
<ellipse fill="lightblue" stroke="black" cx="759" cy="-55.1543" rx="39.6962" ry="39.6962"/>
<text text-anchor="middle" x="759" y="-52.9543" font-family="Times,serif" font-size="9.00">Move right</text>
</g>
<!-- wallRadar[1,0]&#45;&gt;Move right -->
<g id="edge49" class="edge"><title>wallRadar[1,0]&#45;&gt;Move right</title>
<path fill="none" stroke="red" stroke-width="0.307604" d="M547.822,-146.276C583.703,-130.964 662.815,-97.2019 713.37,-75.6272"/>
<polygon fill="red" stroke="red" stroke-width="0.307604" points="714.946,-78.7601 722.77,-71.6158 712.199,-72.3219 714.946,-78.7601"/>
</g>
<!-- Turn Left -->
<g id="node29" class="node"><title>Turn Left</title>
<ellipse fill="lightblue" stroke="black" cx="1013" cy="-55.1543" rx="35.2113" ry="35.2113"/>
<text text-anchor="middle" x="1013" y="-52.9543" font-family="Times,serif" font-size="9.00">Turn Left</text>
</g>
<!-- wallRadar[1,0]&#45;&gt;Turn Left -->
<g id="edge10" class="edge"><title>wallRadar[1,0]&#45;&gt;Turn Left</title>
<path fill="none" stroke="green" stroke-width="0.303084" d="M564.02,-147.651C567.052,-147.163 570.077,-146.707 573,-146.309 660.335,-134.413 889.989,-151.337 968,-110.309 975.698,-106.26 982.594,-100.278 988.538,-93.7503"/>
<polygon fill="green" stroke="green" stroke-width="0.303084" points="991.352,-95.841 995.07,-85.9199 985.977,-91.357 991.352,-95.841"/>
</g>
<!-- Turn Right -->
<g id="node30" class="node"><title>Turn Right</title>
<ellipse fill="lightblue" stroke="black" cx="1435" cy="-55.1543" rx="39.6962" ry="39.6962"/>
<text text-anchor="middle" x="1435" y="-52.9543" font-family="Times,serif" font-size="9.00">Turn Right</text>
</g>
<!-- wallRadar[1,0]&#45;&gt;Turn Right -->
<g id="edge33" class="edge"><title>wallRadar[1,0]&#45;&gt;Turn Right</title>
<path fill="none" stroke="red" stroke-width="0.268653" d="M564.008,-147.564C567.043,-147.095 570.071,-146.667 573,-146.309 823.2,-115.712 888.817,-141.043 1139,-110.309 1226.8,-99.5223 1327.96,-79.3115 1386.38,-66.8632"/>
<polygon fill="red" stroke="red" stroke-width="0.268653" points="1387.39,-70.2272 1396.43,-64.7087 1385.92,-63.3827 1387.39,-70.2272"/>
</g>
<!-- wallRadar[0,1] -->
<g id="node2" class="node"><title>wallRadar[0,1]</title>
<polygon fill="lightgray" stroke="black" points="2420,-164.309 2350,-164.309 2350,-146.309 2420,-146.309 2420,-164.309"/>
<text text-anchor="middle" x="2385" y="-153.109" font-family="Times,serif" font-size="9.00">wallRadar[0,1]</text>
</g>
<!--  Move Backward -->
<g id="node26" class="node"><title> Move Backward</title>
<ellipse fill="lightblue" stroke="black" cx="1959" cy="-55.1543" rx="55.3091" ry="55.3091"/>
<text text-anchor="middle" x="1959" y="-52.9543" font-family="Times,serif" font-size="9.00"> Move Backward</text>
</g>
<!-- wallRadar[0,1]&#45;&gt; Move Backward -->
<g id="edge80" class="edge"><title>wallRadar[0,1]&#45;&gt; Move Backward</title>
<path fill="none" stroke="red" stroke-width="0.205181" d="M2349.97,-147.721C2346.94,-147.217 2343.92,-146.739 2341,-146.309 2200.28,-125.575 2153.59,-166.678 2023,-110.309 2017.12,-107.772 2011.38,-104.51 2005.89,-100.845"/>
<polygon fill="red" stroke="red" stroke-width="0.205181" points="2007.66,-97.8069 1997.5,-94.8025 2003.57,-103.487 2007.66,-97.8069"/>
</g>
<!-- Move Left -->
<g id="node27" class="node"><title>Move Left</title>
<ellipse fill="lightblue" stroke="black" cx="2070" cy="-55.1543" rx="38.3684" ry="38.3684"/>
<text text-anchor="middle" x="2070" y="-52.9543" font-family="Times,serif" font-size="9.00">Move Left</text>
</g>
<!-- wallRadar[0,1]&#45;&gt;Move Left -->
<g id="edge30" class="edge"><title>wallRadar[0,1]&#45;&gt;Move Left</title>
<path fill="none" stroke="green" stroke-width="0.254738" d="M2359.22,-146.276C2306.04,-129.706 2183.53,-91.5301 2116.27,-70.5736"/>
<polygon fill="green" stroke="green" stroke-width="0.254738" points="2116.96,-67.1211 2106.37,-67.4876 2114.88,-73.8042 2116.96,-67.1211"/>
</g>
<!-- wallRadar[&#45;1,0] -->
<g id="node3" class="node"><title>wallRadar[&#45;1,0]</title>
<polygon fill="lightgray" stroke="black" points="1373.5,-164.309 1300.5,-164.309 1300.5,-146.309 1373.5,-146.309 1373.5,-164.309"/>
<text text-anchor="middle" x="1337" y="-153.109" font-family="Times,serif" font-size="9.00">wallRadar[&#45;1,0]</text>
</g>
<!-- wallRadar[&#45;1,0]&#45;&gt;Shoot -->
<g id="edge53" class="edge"><title>wallRadar[&#45;1,0]&#45;&gt;Shoot</title>
<path fill="none" stroke="red" stroke-width="0.237317" d="M1317.85,-146.276C1278.25,-129.665 1186.89,-91.3419 1137.01,-70.4191"/>
<polygon fill="red" stroke="red" stroke-width="0.237317" points="1138.19,-67.1187 1127.61,-66.4781 1135.48,-73.5738 1138.19,-67.1187"/>
</g>
<!-- wallRadar[&#45;1,0]&#45;&gt;Turn Left -->
<g id="edge23" class="edge"><title>wallRadar[&#45;1,0]&#45;&gt;Turn Left</title>
<path fill="none" stroke="green" stroke-width="0.219119" d="M1300.17,-147.708C1297.41,-147.229 1294.66,-146.758 1292,-146.309 1192.14,-129.445 1157.16,-156.421 1067,-110.309 1057.69,-105.548 1049,-98.5915 1041.43,-91.2409"/>
<polygon fill="green" stroke="green" stroke-width="0.219119" points="1043.72,-88.5738 1034.24,-83.8256 1038.69,-93.4439 1043.72,-88.5738"/>
</g>
<!-- wallRadar[&#45;1,0]&#45;&gt;Turn Right -->
<g id="edge11" class="edge"><title>wallRadar[&#45;1,0]&#45;&gt;Turn Right</title>
<path fill="none" stroke="green" stroke-width="0.436329" d="M1345.02,-146.276C1356.99,-134.288 1380.25,-110.99 1400.12,-91.087"/>
<polygon fill="green" stroke="green" stroke-width="0.436329" points="1402.67,-93.4845 1407.26,-83.9349 1397.72,-88.5386 1402.67,-93.4845"/>
</g>
<!-- wallRadar[0,&#45;1] -->
<g id="node4" class="node"><title>wallRadar[0,&#45;1]</title>
<polygon fill="lightgray" stroke="black" points="2511.5,-164.309 2438.5,-164.309 2438.5,-146.309 2511.5,-146.309 2511.5,-164.309"/>
<text text-anchor="middle" x="2475" y="-153.109" font-family="Times,serif" font-size="9.00">wallRadar[0,&#45;1]</text>
</g>
<!-- wallRadar[0,&#45;1]&#45;&gt; Move Backward -->
<g id="edge34" class="edge"><title>wallRadar[0,&#45;1]&#45;&gt; Move Backward</title>
<path fill="none" stroke="green" stroke-width="0.206196" d="M2438.38,-147.656C2435.22,-147.167 2432.05,-146.709 2429,-146.309 2339.19,-134.539 2106.59,-145.192 2023,-110.309 2017.09,-107.844 2011.33,-104.628 2005.83,-100.993"/>
<polygon fill="green" stroke="green" stroke-width="0.206196" points="2007.6,-97.9529 1997.43,-94.9808 2003.52,-103.646 2007.6,-97.9529"/>
</g>
<!-- wallRadar[0,&#45;1]&#45;&gt;Move Left -->
<g id="edge37" class="edge"><title>wallRadar[0,&#45;1]&#45;&gt;Move Left</title>
<path fill="none" stroke="green" stroke-width="0.138796" d="M2441.86,-146.276C2370.04,-128.871 2199.88,-87.6309 2117,-67.5439"/>
<polygon fill="green" stroke="green" stroke-width="0.138796" points="2117.64,-64.0981 2107.09,-65.1442 2115.99,-70.9012 2117.64,-64.0981"/>
</g>
<!-- wallRadar[0.7,0.7] -->
<g id="node5" class="node"><title>wallRadar[0.7,0.7]</title>
<polygon fill="lightgray" stroke="black" points="2331.5,-164.309 2248.5,-164.309 2248.5,-146.309 2331.5,-146.309 2331.5,-164.309"/>
<text text-anchor="middle" x="2290" y="-153.109" font-family="Times,serif" font-size="9.00">wallRadar[0.7,0.7]</text>
</g>
<!-- wallRadar[0.7,0.7]&#45;&gt;Shoot -->
<g id="edge45" class="edge"><title>wallRadar[0.7,0.7]&#45;&gt;Shoot</title>
<path fill="none" stroke="green" stroke-width="0.163202" d="M2248.3,-147.373C2245.16,-146.972 2242.03,-146.609 2239,-146.309 1861.41,-108.847 1762.91,-154.085 1386,-110.309 1296.33,-99.8936 1192.44,-77.2502 1138.95,-64.7952"/>
<polygon fill="green" stroke="green" stroke-width="0.163202" points="1139.48,-61.324 1128.94,-62.4467 1137.88,-68.1388 1139.48,-61.324"/>
</g>
<!-- wallRadar[0.7,0.7]&#45;&gt; Move Backward -->
<g id="edge69" class="edge"><title>wallRadar[0.7,0.7]&#45;&gt; Move Backward</title>
<path fill="none" stroke="red" stroke-width="0.375102" d="M2248.38,-147.74C2174.6,-136.057 2028.1,-112.664 2023,-110.309 2017.28,-107.665 2011.66,-104.365 2006.27,-100.708"/>
<polygon fill="red" stroke="red" stroke-width="0.375102" points="2008.17,-97.7574 1998.02,-94.7082 2004.05,-103.419 2008.17,-97.7574"/>
</g>
<!-- wallRadar[0.7,0.7]&#45;&gt;Move Left -->
<g id="edge15" class="edge"><title>wallRadar[0.7,0.7]&#45;&gt;Move Left</title>
<path fill="none" stroke="red" stroke-width="0.265671" d="M2272,-146.276C2237.75,-130.995 2162.32,-97.3422 2113.95,-75.7619"/>
<polygon fill="red" stroke="red" stroke-width="0.265671" points="2115.21,-72.494 2104.65,-71.6158 2112.36,-78.8866 2115.21,-72.494"/>
</g>
<!-- wallRadar[&#45;0.7,0.7] -->
<g id="node6" class="node"><title>wallRadar[&#45;0.7,0.7]</title>
<polygon fill="lightgray" stroke="black" points="476,-164.309 390,-164.309 390,-146.309 476,-146.309 476,-164.309"/>
<text text-anchor="middle" x="433" y="-153.109" font-family="Times,serif" font-size="9.00">wallRadar[&#45;0.7,0.7]</text>
</g>
<!-- wallRadar[&#45;0.7,0.7]&#45;&gt;Shoot -->
<g id="edge35" class="edge"><title>wallRadar[&#45;0.7,0.7]&#45;&gt;Shoot</title>
<path fill="none" stroke="red" stroke-width="0.210637" d="M476.091,-147.374C479.102,-146.984 482.094,-146.623 485,-146.309 611.624,-132.612 943.146,-167.392 1057,-110.309 1067.55,-105.017 1076.65,-96.1139 1083.89,-87.0384"/>
<polygon fill="red" stroke="red" stroke-width="0.210637" points="1086.89,-88.8754 1090.02,-78.7541 1081.26,-84.713 1086.89,-88.8754"/>
</g>
<!-- wallRadar[&#45;0.7,0.7]&#45;&gt;Move Forward -->
<g id="edge47" class="edge"><title>wallRadar[&#45;0.7,0.7]&#45;&gt;Move Forward</title>
<path fill="none" stroke="green" stroke-width="0.161869" d="M476.11,-147.535C479.117,-147.106 482.102,-146.693 485,-146.309 628.191,-127.323 670.075,-153.214 808,-110.309 824.993,-105.023 842.441,-96.8193 857.952,-88.3827"/>
<polygon fill="green" stroke="green" stroke-width="0.161869" points="859.825,-91.3457 866.843,-83.4087 856.407,-85.2368 859.825,-91.3457"/>
</g>
<!-- wallRadar[&#45;0.7,0.7]&#45;&gt;Move right -->
<g id="edge14" class="edge"><title>wallRadar[&#45;0.7,0.7]&#45;&gt;Move right</title>
<path fill="none" stroke="red" stroke-width="0.399574" d="M459.678,-146.276C514.827,-129.672 642.027,-91.3732 711.537,-70.4448"/>
<polygon fill="red" stroke="red" stroke-width="0.399574" points="712.792,-73.7221 721.359,-67.4876 710.774,-67.0193 712.792,-73.7221"/>
</g>
<!-- wallRadar[&#45;0.7,0.7]&#45;&gt;Turn Left -->
<g id="edge68" class="edge"><title>wallRadar[&#45;0.7,0.7]&#45;&gt;Turn Left</title>
<path fill="none" stroke="red" stroke-width="0.358706" d="M476.095,-147.413C479.105,-147.013 482.096,-146.64 485,-146.309 591.938,-134.116 872.33,-159.621 968,-110.309 975.732,-106.323 982.642,-100.37 988.59,-93.8498"/>
<polygon fill="red" stroke="red" stroke-width="0.358706" points="991.403,-95.9407 995.122,-86.0198 986.028,-91.4565 991.403,-95.9407"/>
</g>
<!-- wallRadar[&#45;0.7,&#45;0.7] -->
<g id="node7" class="node"><title>wallRadar[&#45;0.7,&#45;0.7]</title>
<polygon fill="lightgray" stroke="black" points="803.5,-164.309 714.5,-164.309 714.5,-146.309 803.5,-146.309 803.5,-164.309"/>
<text text-anchor="middle" x="759" y="-153.109" font-family="Times,serif" font-size="9.00">wallRadar[&#45;0.7,&#45;0.7]</text>
</g>
<!-- wallRadar[&#45;0.7,&#45;0.7]&#45;&gt;Move Forward -->
<g id="edge51" class="edge"><title>wallRadar[&#45;0.7,&#45;0.7]&#45;&gt;Move Forward</title>
<path fill="none" stroke="green" stroke-width="0.273628" d="M771.275,-146.276C790.206,-133.888 827.589,-109.426 858.636,-89.1106"/>
<polygon fill="green" stroke="green" stroke-width="0.273628" points="860.753,-91.9082 867.204,-83.5039 856.92,-86.0508 860.753,-91.9082"/>
</g>
<!-- wallRadar[&#45;0.7,&#45;0.7]&#45;&gt; Move Backward -->
<g id="edge76" class="edge"><title>wallRadar[&#45;0.7,&#45;0.7]&#45;&gt; Move Backward</title>
<path fill="none" stroke="red" stroke-width="0.144241" d="M803.781,-147.239C806.559,-146.897 809.315,-146.583 812,-146.309 1109.55,-115.953 1185.95,-135.26 1484,-110.309 1631.09,-97.9954 1803.04,-76.6568 1894.33,-64.7738"/>
<polygon fill="red" stroke="red" stroke-width="0.144241" points="1894.79,-68.2437 1904.25,-63.4782 1893.88,-61.3026 1894.79,-68.2437"/>
</g>
<!-- wallRadar[&#45;0.7,&#45;0.7]&#45;&gt;Move right -->
<g id="edge71" class="edge"><title>wallRadar[&#45;0.7,&#45;0.7]&#45;&gt;Move right</title>
<path fill="none" stroke="green" stroke-width="0.389984" d="M759,-146.276C759,-137.112 759,-121.34 759,-105.527"/>
<polygon fill="green" stroke="green" stroke-width="0.389984" points="762.5,-105.199 759,-95.1987 755.5,-105.199 762.5,-105.199"/>
</g>
<!-- wallRadar[&#45;0.7,&#45;0.7]&#45;&gt;Turn Left -->
<g id="edge39" class="edge"><title>wallRadar[&#45;0.7,&#45;0.7]&#45;&gt;Turn Left</title>
<path fill="none" stroke="green" stroke-width="0.137282" d="M803.868,-146.484C861.013,-136.27 954.067,-118.708 968,-110.309 975.374,-105.863 982.097,-99.7647 987.969,-93.2587"/>
<polygon fill="green" stroke="green" stroke-width="0.137282" points="990.722,-95.4228 994.459,-85.509 985.355,-90.9284 990.722,-95.4228"/>
</g>
<!-- wallRadar[&#45;0.7,&#45;0.7]&#45;&gt;Turn Right -->
<g id="edge66" class="edge"><title>wallRadar[&#45;0.7,&#45;0.7]&#45;&gt;Turn Right</title>
<path fill="none" stroke="red" stroke-width="0.14414" d="M803.515,-147.457C806.385,-147.056 809.232,-146.67 812,-146.309 956.983,-127.394 994.329,-131.479 1139,-110.309 1226.53,-97.5001 1327.77,-77.9423 1386.29,-66.1679"/>
<polygon fill="red" stroke="red" stroke-width="0.14414" points="1387.25,-69.5453 1396.36,-64.1344 1385.86,-62.6839 1387.25,-69.5453"/>
</g>
<!-- wallRadar[0.7,&#45;0.7] -->
<g id="node8" class="node"><title>wallRadar[0.7,&#45;0.7]</title>
<polygon fill="lightgray" stroke="black" points="1478,-164.309 1392,-164.309 1392,-146.309 1478,-146.309 1478,-164.309"/>
<text text-anchor="middle" x="1435" y="-153.109" font-family="Times,serif" font-size="9.00">wallRadar[0.7,&#45;0.7]</text>
</g>
<!-- wallRadar[0.7,&#45;0.7]&#45;&gt;Move Forward -->
<g id="edge12" class="edge"><title>wallRadar[0.7,&#45;0.7]&#45;&gt;Move Forward</title>
<path fill="none" stroke="green" stroke-width="0.270119" d="M1391.9,-147.454C1388.89,-147.044 1385.9,-146.658 1383,-146.309 1291.31,-135.282 1053.68,-147.16 969,-110.309 962.603,-107.525 956.428,-103.779 950.629,-99.5512"/>
<polygon fill="green" stroke="green" stroke-width="0.270119" points="952.438,-96.5195 942.421,-93.0666 948.098,-102.012 952.438,-96.5195"/>
</g>
<!-- wallRadar[0.7,&#45;0.7]&#45;&gt;Move Left -->
<g id="edge6" class="edge"><title>wallRadar[0.7,&#45;0.7]&#45;&gt;Move Left</title>
<path fill="none" stroke="red" stroke-width="0.18842" d="M1478.09,-147.388C1481.1,-146.994 1484.09,-146.629 1487,-146.309 1605.66,-133.22 1916.11,-163.471 2023,-110.309 2030.29,-106.684 2036.92,-101.377 2042.76,-95.4846"/>
<polygon fill="red" stroke="red" stroke-width="0.18842" points="2045.6,-97.5559 2049.71,-87.79 2040.41,-92.8624 2045.6,-97.5559"/>
</g>
<!-- wallRadar[0.7,&#45;0.7]&#45;&gt;Turn Left -->
<g id="edge13" class="edge"><title>wallRadar[0.7,&#45;0.7]&#45;&gt;Turn Left</title>
<path fill="none" stroke="green" stroke-width="0.252044" d="M1391.89,-147.543C1388.88,-147.112 1385.9,-146.696 1383,-146.309 1242.9,-127.558 1194.27,-171.809 1067,-110.309 1057.5,-105.716 1048.69,-98.7535 1041.06,-91.3355"/>
<polygon fill="green" stroke="green" stroke-width="0.252044" points="1043.3,-88.6145 1033.84,-83.8368 1038.25,-93.4688 1043.3,-88.6145"/>
</g>
<!-- wallRadar[0.7,&#45;0.7]&#45;&gt;Turn Right -->
<g id="edge83" class="edge"><title>wallRadar[0.7,&#45;0.7]&#45;&gt;Turn Right</title>
<path fill="none" stroke="green" stroke-width="0.22617" d="M1435,-146.276C1435,-137.112 1435,-121.34 1435,-105.527"/>
<polygon fill="green" stroke="green" stroke-width="0.22617" points="1438.5,-105.199 1435,-95.1987 1431.5,-105.199 1438.5,-105.199"/>
</g>
<!-- enemyRadar[RightBack] -->
<g id="node9" class="node"><title>enemyRadar[RightBack]</title>
<polygon fill="lightgray" stroke="black" points="1165,-164.309 1061,-164.309 1061,-146.309 1165,-146.309 1165,-164.309"/>
<text text-anchor="middle" x="1113" y="-153.109" font-family="Times,serif" font-size="9.00">enemyRadar[RightBack]</text>
</g>
<!-- enemyRadar[RightBack]&#45;&gt;Shoot -->
<g id="edge27" class="edge"><title>enemyRadar[RightBack]&#45;&gt;Shoot</title>
<path fill="none" stroke="red" stroke-width="0.123626" d="M1112.18,-146.276C1110.99,-134.556 1108.69,-112.026 1106.7,-92.4263"/>
<polygon fill="red" stroke="red" stroke-width="0.123626" points="1110.15,-91.816 1105.66,-82.2223 1103.19,-92.5256 1110.15,-91.816"/>
</g>
<!-- enemyRadar[RightBack]&#45;&gt;Move Forward -->
<g id="edge72" class="edge"><title>enemyRadar[RightBack]&#45;&gt;Move Forward</title>
<path fill="none" stroke="green" stroke-width="0.347142" d="M1069.75,-146.287C1040.07,-139.568 1000.5,-128.153 969,-110.309 963.012,-106.917 957.116,-102.836 951.496,-98.4564"/>
<polygon fill="green" stroke="green" stroke-width="0.347142" points="953.43,-95.5156 943.483,-91.8698 948.986,-100.923 953.43,-95.5156"/>
</g>
<!-- enemyRadar[RightBack]&#45;&gt; Move Backward -->
<g id="edge25" class="edge"><title>enemyRadar[RightBack]&#45;&gt; Move Backward</title>
<path fill="none" stroke="green" stroke-width="0.38847" d="M1165.09,-147.534C1168.44,-147.115 1171.77,-146.703 1175,-146.309 1245.71,-137.681 1719,-83.5665 1894.06,-63.5694"/>
<polygon fill="green" stroke="green" stroke-width="0.38847" points="1894.62,-67.028 1904.16,-62.4156 1893.83,-60.0732 1894.62,-67.028"/>
</g>
<!-- enemyRadar[RightBack]&#45;&gt;Move Left -->
<g id="edge78" class="edge"><title>enemyRadar[RightBack]&#45;&gt;Move Left</title>
<path fill="none" stroke="red" stroke-width="0.379455" d="M1165.06,-147.262C1168.42,-146.909 1171.76,-146.586 1175,-146.309 1268.96,-138.267 1938.05,-151.263 2023,-110.309 2030.33,-106.774 2036.99,-101.511 2042.83,-95.6344"/>
<polygon fill="red" stroke="red" stroke-width="0.379455" points="2045.67,-97.7092 2049.79,-87.9458 2040.48,-93.0126 2045.67,-97.7092"/>
</g>
<!-- enemyRadar[RightBack]&#45;&gt;Move right -->
<g id="edge59" class="edge"><title>enemyRadar[RightBack]&#45;&gt;Move right</title>
<path fill="none" stroke="red" stroke-width="0.28886" d="M1060.91,-146.652C989.946,-136.057 869.424,-117.427 850,-110.309 832.54,-103.91 814.671,-94.1132 799.442,-84.6029"/>
<polygon fill="red" stroke="red" stroke-width="0.28886" points="801.111,-81.5153 790.803,-79.0643 797.333,-87.4082 801.111,-81.5153"/>
</g>
<!-- enemyRadar[RightBack]&#45;&gt;Turn Left -->
<g id="edge79" class="edge"><title>enemyRadar[RightBack]&#45;&gt;Turn Left</title>
<path fill="none" stroke="red" stroke-width="0.133787" d="M1104.46,-146.259C1095.18,-137.481 1079.95,-122.99 1067,-110.309 1059.67,-103.132 1051.85,-95.3553 1044.5,-87.9943"/>
<polygon fill="red" stroke="red" stroke-width="0.133787" points="1046.88,-85.4231 1037.34,-80.8094 1041.92,-90.3638 1046.88,-85.4231"/>
</g>
<!-- enemyRadar[LeftBack] -->
<g id="node10" class="node"><title>enemyRadar[LeftBack]</title>
<polygon fill="lightgray" stroke="black" points="1282.5,-164.309 1183.5,-164.309 1183.5,-146.309 1282.5,-146.309 1282.5,-164.309"/>
<text text-anchor="middle" x="1233" y="-153.109" font-family="Times,serif" font-size="9.00">enemyRadar[LeftBack]</text>
</g>
<!-- enemyRadar[LeftBack]&#45;&gt;Shoot -->
<g id="edge75" class="edge"><title>enemyRadar[LeftBack]&#45;&gt;Shoot</title>
<path fill="none" stroke="red" stroke-width="0.162922" d="M1222.36,-146.276C1202.93,-131.608 1161.08,-100.01 1132.48,-78.4126"/>
<polygon fill="red" stroke="red" stroke-width="0.162922" points="1134.52,-75.5675 1124.43,-72.335 1130.3,-81.154 1134.52,-75.5675"/>
</g>
<!-- enemyRadar[LeftBack]&#45;&gt;Move Forward -->
<g id="edge7" class="edge"><title>enemyRadar[LeftBack]&#45;&gt;Move Forward</title>
<path fill="none" stroke="red" stroke-width="0.225073" d="M1183.47,-147.586C1112.41,-137.71 987.961,-119.461 969,-110.309 962.717,-107.276 956.611,-103.379 950.851,-99.0669"/>
<polygon fill="red" stroke="red" stroke-width="0.225073" points="952.668,-96.0368 942.679,-92.5056 948.285,-101.495 952.668,-96.0368"/>
</g>
<!-- enemyRadar[LeftBack]&#45;&gt;Turn Right -->
<g id="edge70" class="edge"><title>enemyRadar[LeftBack]&#45;&gt;Turn Right</title>
<path fill="none" stroke="green" stroke-width="0.254915" d="M1249.53,-146.276C1279.97,-131.487 1345.82,-99.4864 1390.29,-77.879"/>
<polygon fill="green" stroke="green" stroke-width="0.254915" points="1391.97,-80.9545 1399.43,-73.4359 1388.91,-74.6584 1391.97,-80.9545"/>
</g>
<!-- enemyRadar[Right45ø] -->
<g id="node11" class="node"><title>enemyRadar[Right45ø]</title>
<polygon fill="lightgray" stroke="black" points="100,-164.309 0,-164.309 0,-146.309 100,-146.309 100,-164.309"/>
<text text-anchor="middle" x="50" y="-153.109" font-family="Times,serif" font-size="9.00">enemyRadar[Right45ø]</text>
</g>
<!-- enemyRadar[Right45ø]&#45;&gt;Move Forward -->
<g id="edge54" class="edge"><title>enemyRadar[Right45ø]&#45;&gt;Move Forward</title>
<path fill="none" stroke="red" stroke-width="0.364343" d="M100.179,-147.215C103.161,-146.884 106.118,-146.578 109,-146.309 263.865,-131.847 658.171,-152.068 808,-110.309 825.303,-105.486 842.963,-97.3298 858.577,-88.7909"/>
<polygon fill="red" stroke="red" stroke-width="0.364343" points="860.53,-91.7075 867.515,-83.7415 857.087,-85.6128 860.53,-91.7075"/>
</g>
<!-- enemyRadar[Right45ø]&#45;&gt;Move right -->
<g id="edge50" class="edge"><title>enemyRadar[Right45ø]&#45;&gt;Move right</title>
<path fill="none" stroke="red" stroke-width="0.179649" d="M100.138,-147.368C230.653,-129.299 579.793,-80.9638 709.544,-63.0011"/>
<polygon fill="red" stroke="red" stroke-width="0.179649" points="710.168,-66.4481 719.594,-61.6098 709.208,-59.5142 710.168,-66.4481"/>
</g>
<!-- enemyRadar[Left45ø] -->
<g id="node12" class="node"><title>enemyRadar[Left45ø]</title>
<polygon fill="lightgray" stroke="black" points="965.5,-164.309 870.5,-164.309 870.5,-146.309 965.5,-146.309 965.5,-164.309"/>
<text text-anchor="middle" x="918" y="-153.109" font-family="Times,serif" font-size="9.00">enemyRadar[Left45ø]</text>
</g>
<!-- enemyRadar[Left45ø]&#45;&gt;Shoot -->
<g id="edge62" class="edge"><title>enemyRadar[Left45ø]&#45;&gt;Shoot</title>
<path fill="none" stroke="red" stroke-width="0.22593" d="M964.981,-146.284C993.361,-139.839 1029.28,-128.733 1057,-110.309 1066.6,-103.931 1075.31,-94.9974 1082.52,-86.2226"/>
<polygon fill="red" stroke="red" stroke-width="0.22593" points="1085.31,-88.3295 1088.69,-78.2866 1079.79,-84.0329 1085.31,-88.3295"/>
</g>
<!-- enemyRadar[Left45ø]&#45;&gt;Move Forward -->
<g id="edge36" class="edge"><title>enemyRadar[Left45ø]&#45;&gt;Move Forward</title>
<path fill="none" stroke="red" stroke-width="0.408965" d="M917.263,-146.276C916.608,-139.122 915.582,-127.942 914.474,-115.858"/>
<polygon fill="red" stroke="red" stroke-width="0.408965" points="917.929,-115.203 913.53,-105.564 910.958,-115.842 917.929,-115.203"/>
</g>
<!-- enemyRadar[Left45ø]&#45;&gt; Move Backward -->
<g id="edge21" class="edge"><title>enemyRadar[Left45ø]&#45;&gt; Move Backward</title>
<path fill="none" stroke="green" stroke-width="0.405005" d="M965.63,-147.268C968.459,-146.923 971.266,-146.6 974,-146.309 1199.95,-122.226 1257.73,-131.183 1484,-110.309 1630.98,-96.7492 1802.97,-75.8958 1894.3,-64.4252"/>
<polygon fill="green" stroke="green" stroke-width="0.405005" points="1894.74,-67.8975 1904.22,-63.1757 1893.86,-60.9523 1894.74,-67.8975"/>
</g>
<!-- enemyRadar[Left45ø]&#45;&gt;Move right -->
<g id="edge28" class="edge"><title>enemyRadar[Left45ø]&#45;&gt;Move right</title>
<path fill="none" stroke="green" stroke-width="0.141239" d="M904.988,-146.276C882.494,-132.39 835.421,-103.331 800.782,-81.9476"/>
<polygon fill="green" stroke="green" stroke-width="0.141239" points="802.614,-78.9653 792.267,-76.6905 798.937,-84.9217 802.614,-78.9653"/>
</g>
<!-- enemyRadar[Left45ø]&#45;&gt;Turn Right -->
<g id="edge57" class="edge"><title>enemyRadar[Left45ø]&#45;&gt;Turn Right</title>
<path fill="none" stroke="red" stroke-width="0.30979" d="M960.308,-146.276C1055.32,-128.238 1285.17,-84.5997 1386.1,-65.4385"/>
<polygon fill="red" stroke="red" stroke-width="0.30979" points="1386.86,-68.8568 1396.03,-63.5529 1385.55,-61.9796 1386.86,-68.8568"/>
</g>
<!-- enemyRadar[RightFront20ø] -->
<g id="node13" class="node"><title>enemyRadar[RightFront20ø]</title>
<polygon fill="lightgray" stroke="black" points="237.5,-164.309 118.5,-164.309 118.5,-146.309 237.5,-146.309 237.5,-164.309"/>
<text text-anchor="middle" x="178" y="-153.109" font-family="Times,serif" font-size="9.00">enemyRadar[RightFront20ø]</text>
</g>
<!-- enemyRadar[RightFront20ø]&#45;&gt;Move Forward -->
<g id="edge74" class="edge"><title>enemyRadar[RightFront20ø]&#45;&gt;Move Forward</title>
<path fill="none" stroke="red" stroke-width="0.369309" d="M237.82,-147.183C240.923,-146.873 243.997,-146.579 247,-146.309 495.84,-123.914 567.755,-178.905 808,-110.309 825.272,-105.377 842.923,-97.1885 858.538,-88.6537"/>
<polygon fill="red" stroke="red" stroke-width="0.369309" points="860.488,-91.5723 867.478,-83.6106 857.049,-85.4755 860.488,-91.5723"/>
</g>
<!-- enemyRadar[RightFront20ø]&#45;&gt;Move right -->
<g id="edge61" class="edge"><title>enemyRadar[RightFront20ø]&#45;&gt;Move right</title>
<path fill="none" stroke="green" stroke-width="0.108648" d="M225.546,-146.276C334.108,-127.936 599.333,-83.1285 709.629,-64.4951"/>
<polygon fill="green" stroke="green" stroke-width="0.108648" points="710.531,-67.8924 719.808,-62.7754 709.365,-60.9902 710.531,-67.8924"/>
</g>
<!-- enemyRadar[RightFront20ø]&#45;&gt;Turn Left -->
<g id="edge77" class="edge"><title>enemyRadar[RightFront20ø]&#45;&gt;Turn Left</title>
<path fill="none" stroke="green" stroke-width="0.389609" d="M237.815,-147.131C240.92,-146.834 243.995,-146.558 247,-146.309 326.937,-139.686 896.258,-146.182 968,-110.309 975.858,-106.379 982.851,-100.387 988.845,-93.801"/>
<polygon fill="green" stroke="green" stroke-width="0.389609" points="991.723,-95.8147 995.415,-85.8841 986.336,-91.3446 991.723,-95.8147"/>
</g>
<!-- enemyRadar[LeftFront20ø] -->
<g id="node14" class="node"><title>enemyRadar[LeftFront20ø]</title>
<polygon fill="lightgray" stroke="black" points="2022,-164.309 1908,-164.309 1908,-146.309 2022,-146.309 2022,-164.309"/>
<text text-anchor="middle" x="1965" y="-153.109" font-family="Times,serif" font-size="9.00">enemyRadar[LeftFront20ø]</text>
</g>
<!-- enemyRadar[LeftFront20ø]&#45;&gt; Move Backward -->
<g id="edge22" class="edge"><title>enemyRadar[LeftFront20ø]&#45;&gt; Move Backward</title>
<path fill="none" stroke="green" stroke-width="0.134039" d="M1964.51,-146.276C1964.13,-140.031 1963.56,-130.716 1962.93,-120.412"/>
<polygon fill="green" stroke="green" stroke-width="0.134039" points="1966.41,-120.064 1962.31,-110.296 1959.43,-120.491 1966.41,-120.064"/>
</g>
<!-- enemyRadar[LeftFront20ø]&#45;&gt;Move Left -->
<g id="edge48" class="edge"><title>enemyRadar[LeftFront20ø]&#45;&gt;Move Left</title>
<path fill="none" stroke="green" stroke-width="0.116742" d="M1977.12,-146.218C1989.27,-137.862 2008.24,-124.13 2023,-110.309 2028.69,-104.984 2034.4,-99.027 2039.79,-93.0644"/>
<polygon fill="green" stroke="green" stroke-width="0.116742" points="2042.42,-95.3699 2046.42,-85.5562 2037.18,-90.738 2042.42,-95.3699"/>
</g>
<!-- enemyRadar[LeftFront20ø]&#45;&gt;Move right -->
<g id="edge4" class="edge"><title>enemyRadar[LeftFront20ø]&#45;&gt;Move right</title>
<path fill="none" stroke="red" stroke-width="0.118022" d="M1907.79,-147.068C1904.82,-146.788 1901.88,-146.532 1899,-146.309 1782.73,-137.283 961.901,-143.161 850,-110.309 832.01,-105.027 813.911,-95.3592 798.646,-85.6379"/>
<polygon fill="red" stroke="red" stroke-width="0.118022" points="800.283,-82.5246 790.008,-79.9407 796.429,-88.3681 800.283,-82.5246"/>
</g>
<!-- enemyRadar[LeftFront20ø]&#45;&gt;Turn Left -->
<g id="edge43" class="edge"><title>enemyRadar[LeftFront20ø]&#45;&gt;Turn Left</title>
<path fill="none" stroke="green" stroke-width="0.238808" d="M1907.79,-147.099C1904.82,-146.811 1901.88,-146.545 1899,-146.309 1806.78,-138.736 1151.68,-147.619 1067,-110.309 1057.34,-106.053 1048.47,-99.2172 1040.84,-91.8151"/>
<polygon fill="green" stroke="green" stroke-width="0.238808" points="1043.08,-89.0929 1033.63,-84.2987 1038.02,-93.9384 1043.08,-89.0929"/>
</g>
<!-- enemyRadar[LeftFront20ø]&#45;&gt;Turn Right -->
<g id="edge41" class="edge"><title>enemyRadar[LeftFront20ø]&#45;&gt;Turn Right</title>
<path fill="none" stroke="green" stroke-width="0.165463" d="M1921.63,-146.276C1823.87,-128.172 1586.86,-84.278 1483.99,-65.2279"/>
<polygon fill="green" stroke="green" stroke-width="0.165463" points="1484.35,-61.7347 1473.88,-63.3551 1483.08,-68.6176 1484.35,-61.7347"/>
</g>
<!-- enemyRadar[RightFront15ø] -->
<g id="node15" class="node"><title>enemyRadar[RightFront15ø]</title>
<polygon fill="lightgray" stroke="black" points="1889.5,-164.309 1770.5,-164.309 1770.5,-146.309 1889.5,-146.309 1889.5,-164.309"/>
<text text-anchor="middle" x="1830" y="-153.109" font-family="Times,serif" font-size="9.00">enemyRadar[RightFront15ø]</text>
</g>
<!-- enemyRadar[RightFront15ø]&#45;&gt;Turn Right -->
<g id="edge9" class="edge"><title>enemyRadar[RightFront15ø]&#45;&gt;Turn Right</title>
<path fill="none" stroke="red" stroke-width="0.103175" d="M1797.68,-146.276C1728.25,-129.025 1564.6,-88.358 1483,-68.0815"/>
<polygon fill="red" stroke="red" stroke-width="0.103175" points="1483.78,-64.6689 1473.23,-65.6539 1482.09,-71.4623 1483.78,-64.6689"/>
</g>
<!-- enemyRadar[LeftFront15ø] -->
<g id="node16" class="node"><title>enemyRadar[LeftFront15ø]</title>
<polygon fill="lightgray" stroke="black" points="696,-164.309 582,-164.309 582,-146.309 696,-146.309 696,-164.309"/>
<text text-anchor="middle" x="639" y="-153.109" font-family="Times,serif" font-size="9.00">enemyRadar[LeftFront15ø]</text>
</g>
<!-- enemyRadar[LeftFront15ø]&#45;&gt;Shoot -->
<g id="edge73" class="edge"><title>enemyRadar[LeftFront15ø]&#45;&gt;Shoot</title>
<path fill="none" stroke="green" stroke-width="0.293118" d="M696.23,-147.305C699.195,-146.963 702.132,-146.629 705,-146.309 783.144,-137.577 987.411,-146.916 1057,-110.309 1067.36,-104.856 1076.37,-96.0001 1083.59,-87.0146"/>
<polygon fill="green" stroke="green" stroke-width="0.293118" points="1086.54,-88.9253 1089.72,-78.8201 1080.93,-84.7344 1086.54,-88.9253"/>
</g>
<!-- enemyRadar[LeftFront15ø]&#45;&gt;Move Forward -->
<g id="edge32" class="edge"><title>enemyRadar[LeftFront15ø]&#45;&gt;Move Forward</title>
<path fill="none" stroke="red" stroke-width="0.162319" d="M681.198,-146.238C715.927,-138.909 766.08,-126.734 808,-110.309 824.57,-103.816 841.89,-95.2497 857.415,-86.8509"/>
<polygon fill="red" stroke="red" stroke-width="0.162319" points="859.257,-89.832 866.328,-81.9422 855.88,-83.7003 859.257,-89.832"/>
</g>
<!-- enemyRadar[LeftFront15ø]&#45;&gt;Turn Left -->
<g id="edge67" class="edge"><title>enemyRadar[LeftFront15ø]&#45;&gt;Turn Left</title>
<path fill="none" stroke="green" stroke-width="0.254332" d="M696.163,-147.199C788.811,-135.602 962.098,-113.573 968,-110.309 975.612,-106.099 982.468,-100.045 988.402,-93.4985"/>
<polygon fill="green" stroke="green" stroke-width="0.254332" points="991.216,-95.5886 994.934,-85.6672 985.841,-91.1051 991.216,-95.5886"/>
</g>
<!-- enemyRadar[RightFront7.5ø] -->
<g id="node17" class="node"><title>enemyRadar[RightFront7.5ø]</title>
<polygon fill="lightgray" stroke="black" points="1752,-164.309 1630,-164.309 1630,-146.309 1752,-146.309 1752,-164.309"/>
<text text-anchor="middle" x="1691" y="-153.109" font-family="Times,serif" font-size="9.00">enemyRadar[RightFront7.5ø]</text>
</g>
<!-- enemyRadar[RightFront7.5ø]&#45;&gt;Move Forward -->
<g id="edge82" class="edge"><title>enemyRadar[RightFront7.5ø]&#45;&gt;Move Forward</title>
<path fill="none" stroke="green" stroke-width="0.113043" d="M1629.94,-147.117C1626.92,-146.828 1623.93,-146.556 1621,-146.309 1476.41,-134.065 1102.95,-166.107 969,-110.309 962.321,-107.526 955.898,-103.668 949.9,-99.2799"/>
<polygon fill="green" stroke="green" stroke-width="0.113043" points="952.01,-96.4864 941.999,-93.0189 947.663,-101.973 952.01,-96.4864"/>
</g>
<!-- enemyRadar[RightFront7.5ø]&#45;&gt; Move Backward -->
<g id="edge29" class="edge"><title>enemyRadar[RightFront7.5ø]&#45;&gt; Move Backward</title>
<path fill="none" stroke="red" stroke-width="0.1292" d="M1712.93,-146.276C1752.9,-131.639 1838.89,-100.143 1897.85,-78.5488"/>
<polygon fill="red" stroke="red" stroke-width="0.1292" points="1899.25,-81.7647 1907.44,-75.0391 1896.84,-75.1917 1899.25,-81.7647"/>
</g>
<!-- enemyRadar[RightFront7.5ø]&#45;&gt;Turn Right -->
<g id="edge46" class="edge"><title>enemyRadar[RightFront7.5ø]&#45;&gt;Turn Right</title>
<path fill="none" stroke="red" stroke-width="0.404969" d="M1670.05,-146.276C1629.05,-130.554 1537.32,-95.3842 1481.35,-73.9242"/>
<polygon fill="red" stroke="red" stroke-width="0.404969" points="1482.26,-70.5263 1471.67,-70.2142 1479.75,-77.0623 1482.26,-70.5263"/>
</g>
<!-- enemyRadar[LeftFront7.5ø] -->
<g id="node18" class="node"><title>enemyRadar[LeftFront7.5ø]</title>
<polygon fill="lightgray" stroke="black" points="372,-164.309 256,-164.309 256,-146.309 372,-146.309 372,-164.309"/>
<text text-anchor="middle" x="314" y="-153.109" font-family="Times,serif" font-size="9.00">enemyRadar[LeftFront7.5ø]</text>
</g>
<!-- enemyRadar[LeftFront7.5ø]&#45;&gt;Move right -->
<g id="edge3" class="edge"><title>enemyRadar[LeftFront7.5ø]&#45;&gt;Move right</title>
<path fill="none" stroke="red" stroke-width="0.182695" d="M350.416,-146.276C430.266,-128.664 620.767,-86.6445 710.578,-66.8349"/>
<polygon fill="red" stroke="red" stroke-width="0.182695" points="711.489,-70.218 720.501,-64.6461 709.982,-63.3823 711.489,-70.218"/>
</g>
<!-- enemyRadar[LeftFront7.5ø]&#45;&gt;Turn Left -->
<g id="edge24" class="edge"><title>enemyRadar[LeftFront7.5ø]&#45;&gt;Turn Left</title>
<path fill="none" stroke="red" stroke-width="0.274893" d="M372.083,-147.166C375.097,-146.86 378.083,-146.572 381,-146.309 511.16,-134.556 851.443,-169.421 968,-110.309 975.836,-106.335 982.819,-100.323 988.811,-93.7318"/>
<polygon fill="red" stroke="red" stroke-width="0.274893" points="991.688,-95.7455 995.38,-85.815 986.301,-91.2754 991.688,-95.7455"/>
</g>
<!-- enemyRadar[RightFront2.5ø] -->
<g id="node19" class="node"><title>enemyRadar[RightFront2.5ø]</title>
<polygon fill="lightgray" stroke="black" points="2230,-164.309 2108,-164.309 2108,-146.309 2230,-146.309 2230,-164.309"/>
<text text-anchor="middle" x="2169" y="-153.109" font-family="Times,serif" font-size="9.00">enemyRadar[RightFront2.5ø]</text>
</g>
<!-- enemyRadar[RightFront2.5ø]&#45;&gt;Shoot -->
<g id="edge60" class="edge"><title>enemyRadar[RightFront2.5ø]&#45;&gt;Shoot</title>
<path fill="none" stroke="green" stroke-width="0.163849" d="M2107.94,-147.1C2104.92,-146.815 2101.93,-146.549 2099,-146.309 1782.78,-120.282 1701.02,-148.217 1386,-110.309 1296.37,-99.5229 1192.47,-77.0314 1138.96,-64.6984"/>
<polygon fill="green" stroke="green" stroke-width="0.163849" points="1139.48,-61.2265 1128.95,-62.3737 1137.9,-68.0451 1139.48,-61.2265"/>
</g>
<!-- enemyRadar[RightFront2.5ø]&#45;&gt; Move Backward -->
<g id="edge1" class="edge"><title>enemyRadar[RightFront2.5ø]&#45;&gt; Move Backward</title>
<path fill="none" stroke="red" stroke-width="0.354772" d="M2126.3,-146.288C2096.18,-139.497 2055.57,-127.996 2023,-110.309 2017.46,-107.3 2011.96,-103.76 2006.65,-99.9529"/>
<polygon fill="red" stroke="red" stroke-width="0.354772" points="2008.57,-97.0176 1998.48,-93.7904 2004.36,-102.606 2008.57,-97.0176"/>
</g>
<!-- enemyRadar[RightFront2.5ø]&#45;&gt;Move Left -->
<g id="edge5" class="edge"><title>enemyRadar[RightFront2.5ø]&#45;&gt;Move Left</title>
<path fill="none" stroke="green" stroke-width="0.286317" d="M2160.9,-146.276C2148.56,-134.043 2124.34,-110.035 2104.01,-89.8728"/>
<polygon fill="green" stroke="green" stroke-width="0.286317" points="2106.29,-87.2028 2096.72,-82.6476 2101.36,-92.1738 2106.29,-87.2028"/>
</g>
<!-- enemyRadar[RightFront2.5ø]&#45;&gt;Turn Left -->
<g id="edge18" class="edge"><title>enemyRadar[RightFront2.5ø]&#45;&gt;Turn Left</title>
<path fill="none" stroke="green" stroke-width="0.36957" d="M2107.94,-147.044C2104.92,-146.774 2101.93,-146.527 2099,-146.309 1984.58,-137.788 1172.19,-156.133 1067,-110.309 1057.23,-106.053 1048.28,-99.1441 1040.6,-91.6633"/>
<polygon fill="green" stroke="green" stroke-width="0.36957" points="1042.78,-88.887 1033.35,-84.0689 1037.72,-93.7197 1042.78,-88.887"/>
</g>
<!-- enemyRadar[RightFront2.5ø]&#45;&gt;Turn Right -->
<g id="edge20" class="edge"><title>enemyRadar[RightFront2.5ø]&#45;&gt;Turn Right</title>
<path fill="none" stroke="red" stroke-width="0.255341" d="M2108.93,-146.276C1967.26,-127.331 1614.39,-80.1431 1484.23,-62.7382"/>
<polygon fill="red" stroke="red" stroke-width="0.255341" points="1484.53,-59.2473 1474.16,-61.3909 1483.61,-66.1855 1484.53,-59.2473"/>
</g>
<!-- enemyRadar[LeftFront2.5ø] -->
<g id="node20" class="node"><title>enemyRadar[LeftFront2.5ø]</title>
<polygon fill="lightgray" stroke="black" points="1612,-164.309 1496,-164.309 1496,-146.309 1612,-146.309 1612,-164.309"/>
<text text-anchor="middle" x="1554" y="-153.109" font-family="Times,serif" font-size="9.00">enemyRadar[LeftFront2.5ø]</text>
</g>
<!-- enemyRadar[LeftFront2.5ø]&#45;&gt;Shoot -->
<g id="edge40" class="edge"><title>enemyRadar[LeftFront2.5ø]&#45;&gt;Shoot</title>
<path fill="none" stroke="green" stroke-width="0.314805" d="M1517.09,-146.276C1432.07,-127.772 1223.27,-82.3288 1139.07,-64.0038"/>
<polygon fill="green" stroke="green" stroke-width="0.314805" points="1139.72,-60.5631 1129.2,-61.8563 1138.23,-67.403 1139.72,-60.5631"/>
</g>
<!-- enemyRadar[LeftFront2.5ø]&#45;&gt;Turn Right -->
<g id="edge84" class="edge"><title>enemyRadar[LeftFront2.5ø]&#45;&gt;Turn Right</title>
<path fill="none" stroke="green" stroke-width="0.212411" d="M1544.26,-146.276C1528.83,-133.552 1497.96,-108.087 1472.96,-87.4624"/>
<polygon fill="green" stroke="green" stroke-width="0.212411" points="1475.01,-84.6215 1465.07,-80.9585 1470.56,-90.0216 1475.01,-84.6215"/>
</g>
<!-- OnTarget -->
<g id="node21" class="node"><title>OnTarget</title>
<polygon fill="lightgray" stroke="black" points="2090,-164.309 2040,-164.309 2040,-146.309 2090,-146.309 2090,-164.309"/>
<text text-anchor="middle" x="2065" y="-153.109" font-family="Times,serif" font-size="9.00">OnTarget</text>
</g>
<!-- OnTarget&#45;&gt;Move Forward -->
<g id="edge26" class="edge"><title>OnTarget&#45;&gt;Move Forward</title>
<path fill="none" stroke="red" stroke-width="0.288223" d="M2039.85,-147.808C2036.88,-147.215 2033.89,-146.693 2031,-146.309 1913.97,-130.712 1078.47,-154.547 969,-110.309 962.292,-107.598 955.852,-103.782 949.844,-99.4161"/>
<polygon fill="red" stroke="red" stroke-width="0.288223" points="951.953,-96.622 941.935,-93.1742 947.616,-102.117 951.953,-96.622"/>
</g>
<!-- OnTarget&#45;&gt; Move Backward -->
<g id="edge42" class="edge"><title>OnTarget&#45;&gt; Move Backward</title>
<path fill="none" stroke="green" stroke-width="0.232528" d="M2056.33,-146.276C2045.33,-136.09 2025.51,-117.741 2006.62,-100.246"/>
<polygon fill="green" stroke="green" stroke-width="0.232528" points="2008.88,-97.5716 1999.16,-93.3454 2004.12,-102.708 2008.88,-97.5716"/>
</g>
<!-- OnTarget&#45;&gt;Move Left -->
<g id="edge81" class="edge"><title>OnTarget&#45;&gt;Move Left</title>
<path fill="none" stroke="green" stroke-width="0.192793" d="M2065.41,-146.276C2065.9,-136.721 2066.75,-119.983 2067.59,-103.505"/>
<polygon fill="green" stroke="green" stroke-width="0.192793" points="2071.09,-103.511 2068.11,-93.3454 2064.1,-103.154 2071.09,-103.511"/>
</g>
<!-- OnTarget&#45;&gt;Turn Left -->
<g id="edge19" class="edge"><title>OnTarget&#45;&gt;Turn Left</title>
<path fill="none" stroke="red" stroke-width="0.134885" d="M2039.85,-147.818C2036.88,-147.223 2033.88,-146.698 2031,-146.309 1924.78,-131.967 1165.21,-153.238 1067,-110.309 1057.33,-106.081 1048.46,-99.2566 1040.82,-91.8559"/>
<polygon fill="red" stroke="red" stroke-width="0.134885" points="1043.06,-89.1335 1033.61,-84.3379 1038,-93.9783 1043.06,-89.1335"/>
</g>
<!-- OnTarget&#45;&gt;Turn Right -->
<g id="edge44" class="edge"><title>OnTarget&#45;&gt;Turn Right</title>
<path fill="none" stroke="green" stroke-width="0.274325" d="M2039.8,-148.139C2036.84,-147.486 2033.86,-146.86 2031,-146.309 1829.34,-107.397 1586.59,-75.1609 1484.27,-62.2345"/>
<polygon fill="green" stroke="green" stroke-width="0.274325" points="1484.6,-58.7475 1474.24,-60.9716 1483.72,-65.6927 1484.6,-58.7475"/>
</g>
<!-- TakingDmg -->
<g id="node22" class="node"><title>TakingDmg</title>
<polygon fill="lightgray" stroke="black" points="1042.5,-164.309 983.5,-164.309 983.5,-146.309 1042.5,-146.309 1042.5,-164.309"/>
<text text-anchor="middle" x="1013" y="-153.109" font-family="Times,serif" font-size="9.00">TakingDmg</text>
</g>
<!-- TakingDmg&#45;&gt;Shoot -->
<g id="edge8" class="edge"><title>TakingDmg&#45;&gt;Shoot</title>
<path fill="none" stroke="red" stroke-width="0.175785" d="M1021.64,-146.073C1030.67,-137.378 1045.14,-123.176 1057,-110.309 1064.6,-102.061 1072.61,-92.8393 1079.77,-84.3765"/>
<polygon fill="red" stroke="red" stroke-width="0.175785" points="1082.59,-86.461 1086.34,-76.5517 1077.23,-81.9602 1082.59,-86.461"/>
</g>
<!-- TakingDmg&#45;&gt;Move Forward -->
<g id="edge64" class="edge"><title>TakingDmg&#45;&gt;Move Forward</title>
<path fill="none" stroke="green" stroke-width="0.168545" d="M1004.49,-146.276C993.047,-135.477 971.882,-115.502 952.381,-97.0965"/>
<polygon fill="green" stroke="green" stroke-width="0.168545" points="954.687,-94.4602 945.012,-90.1418 949.882,-99.551 954.687,-94.4602"/>
</g>
<!-- TakingDmg&#45;&gt;Move Left -->
<g id="edge2" class="edge"><title>TakingDmg&#45;&gt;Move Left</title>
<path fill="none" stroke="green" stroke-width="0.181572" d="M1042.73,-147.684C1045.85,-147.146 1048.98,-146.672 1052,-146.309 1159.19,-133.417 1925.62,-156.932 2023,-110.309 2030.34,-106.793 2037,-101.54 2042.84,-95.6672"/>
<polygon fill="green" stroke="green" stroke-width="0.181572" points="2045.69,-97.7428 2049.8,-87.9799 2040.5,-93.0455 2045.69,-97.7428"/>
</g>
<!-- TakingDmg&#45;&gt;Move right -->
<g id="edge16" class="edge"><title>TakingDmg&#45;&gt;Move right</title>
<path fill="none" stroke="green" stroke-width="0.454325" d="M983.178,-147.293C943.055,-137.678 873.958,-120.445 850,-110.309 833.016,-103.123 815.369,-93.2537 800.188,-83.9072"/>
<polygon fill="green" stroke="green" stroke-width="0.454325" points="801.888,-80.8419 791.557,-78.4887 798.165,-86.7703 801.888,-80.8419"/>
</g>
<!-- TakingDmg&#45;&gt;Turn Left -->
<g id="edge31" class="edge"><title>TakingDmg&#45;&gt;Turn Left</title>
<path fill="none" stroke="green" stroke-width="0.317315" d="M1013,-146.276C1013,-136.172 1013,-118.035 1013,-100.667"/>
<polygon fill="green" stroke="green" stroke-width="0.317315" points="1016.5,-100.596 1013,-90.596 1009.5,-100.596 1016.5,-100.596"/>
</g>
<!-- TakingDmg&#45;&gt;Turn Right -->
<g id="edge17" class="edge"><title>TakingDmg&#45;&gt;Turn Right</title>
<path fill="none" stroke="green" stroke-width="0.212706" d="M1042.67,-147.407C1114.5,-130.701 1298.27,-87.9578 1386.41,-67.4561"/>
<polygon fill="green" stroke="green" stroke-width="0.212706" points="1387.47,-70.803 1396.42,-65.1285 1385.88,-63.985 1387.47,-70.803"/>
</g>
<!-- bias -->
<g id="node23" class="node"><title>bias</title>
<polygon fill="lightgray" stroke="black" points="852.5,-164.309 821.5,-164.309 821.5,-146.309 852.5,-146.309 852.5,-164.309"/>
<text text-anchor="middle" x="837" y="-153.109" font-family="Times,serif" font-size="9.00">bias</text>
</g>
<!-- bias&#45;&gt;Shoot -->
<g id="edge65" class="edge"><title>bias&#45;&gt;Shoot</title>
<path fill="none" stroke="green" stroke-width="0.113629" d="M852.656,-148.74C855.416,-147.859 858.278,-147.009 861,-146.309 946.778,-124.251 980.322,-154.635 1057,-110.309 1067.14,-104.447 1076.08,-95.4857 1083.33,-86.5292"/>
<polygon fill="green" stroke="green" stroke-width="0.113629" points="1086.24,-88.48 1089.48,-78.3943 1080.66,-84.2551 1086.24,-88.48"/>
</g>
<!-- bias&#45;&gt; Move Backward -->
<g id="edge56" class="edge"><title>bias&#45;&gt; Move Backward</title>
<path fill="none" stroke="green" stroke-width="0.106423" d="M852.592,-148.453C855.359,-147.604 858.24,-146.839 861,-146.309 1133.37,-94.0005 1207.67,-134.026 1484,-110.309 1631.06,-97.6865 1803.02,-76.4682 1894.32,-64.6874"/>
<polygon fill="green" stroke="green" stroke-width="0.106423" points="1894.78,-68.1579 1904.24,-63.4032 1893.88,-61.2158 1894.78,-68.1579"/>
</g>
<!-- bias&#45;&gt;Move right -->
<g id="edge38" class="edge"><title>bias&#45;&gt;Move right</title>
<path fill="none" stroke="red" stroke-width="0.1484" d="M830.617,-146.276C821.639,-134.979 804.681,-113.639 789.52,-94.56"/>
<polygon fill="red" stroke="red" stroke-width="0.1484" points="792.122,-92.2091 783.161,-86.5576 786.642,-96.5642 792.122,-92.2091"/>
</g>
<!-- bias&#45;&gt;Turn Left -->
<g id="edge52" class="edge"><title>bias&#45;&gt;Turn Left</title>
<path fill="none" stroke="green" stroke-width="0.138941" d="M852.714,-149.061C887.375,-137.483 967.38,-110.734 968,-110.309 975.03,-105.491 981.569,-99.2812 987.362,-92.7944"/>
<polygon fill="green" stroke="green" stroke-width="0.138941" points="990.057,-95.0285 993.806,-85.1192 984.695,-90.5277 990.057,-95.0285"/>
</g>
<!-- Move Left&#45;&gt;Move Left -->
<g id="edge63" class="edge"><title>Move Left&#45;&gt;Move Left</title>
<path fill="none" stroke="green" stroke-width="0.542565" d="M2103.45,-73.8631C2115.92,-74.4765 2126.18,-68.2403 2126.18,-55.1543 2126.18,-45.9533 2121.11,-40.1386 2113.76,-37.7103"/>
<polygon fill="green" stroke="green" stroke-width="0.542565" points="2113.81,-34.1893 2103.45,-36.4455 2112.95,-41.1372 2113.81,-34.1893"/>
</g>
</g>
</svg>
