<?xml version="1.0" encoding="UTF-8" standalone="no"?>
<!DOCTYPE svg PUBLIC "-//W3C//DTD SVG 1.1//EN"
 "http://www.w3.org/Graphics/SVG/1.1/DTD/svg11.dtd">
<!-- Generated by graphviz version 2.38.0 (20140413.2041)
 -->
<!-- Title: %3 Pages: 1 -->
<svg width="2493pt" height="258pt"
 viewBox="0.00 0.00 2493.19 257.81" xmlns="http://www.w3.org/2000/svg" xmlns:xlink="http://www.w3.org/1999/xlink">
<g id="graph0" class="graph" transform="scale(1 1) rotate(0) translate(4 253.806)">
<title>%3</title>
<polygon fill="white" stroke="none" points="-4,4 -4,-253.806 2489.19,-253.806 2489.19,4 -4,4"/>
<!-- wallRadar[1,0] -->
<g id="node1" class="node"><title>wallRadar[1,0]</title>
<polygon fill="lightgray" stroke="black" points="621.437,-180.057 551.437,-180.057 551.437,-162.057 621.437,-162.057 621.437,-180.057"/>
<text text-anchor="middle" x="586.437" y="-168.857" font-family="Times,serif" font-size="9.00">wallRadar[1,0]</text>
</g>
<!-- Shoot -->
<g id="node23" class="node"><title>Shoot</title>
<ellipse fill="lightblue" stroke="black" cx="1463.44" cy="-55.1543" rx="26.7407" ry="26.7407"/>
<text text-anchor="middle" x="1463.44" y="-52.9543" font-family="Times,serif" font-size="9.00">Shoot</text>
</g>
<!-- wallRadar[1,0]&#45;&gt;Shoot -->
<g id="edge15" class="edge"><title>wallRadar[1,0]&#45;&gt;Shoot</title>
<path fill="none" stroke="green" stroke-width="0.391389" stroke-dasharray="1,5" d="M598.145,-161.87C606.674,-156.386 618.736,-149.591 630.437,-146.309 926.535,-63.2465 1020.55,-173.873 1321.44,-110.309 1360,-102.162 1401.91,-85.0822 1430.13,-72.2694"/>
<polygon fill="green" stroke="green" stroke-width="0.391389" points="1431.9,-75.3068 1439.51,-67.937 1428.97,-68.9516 1431.9,-75.3068"/>
</g>
<!-- Move Left -->
<g id="node26" class="node"><title>Move Left</title>
<ellipse fill="lightblue" stroke="black" cx="1274.44" cy="-55.1543" rx="38.3684" ry="38.3684"/>
<text text-anchor="middle" x="1274.44" y="-52.9543" font-family="Times,serif" font-size="9.00">Move Left</text>
</g>
<!-- wallRadar[1,0]&#45;&gt;Move Left -->
<g id="edge2" class="edge"><title>wallRadar[1,0]&#45;&gt;Move Left</title>
<path fill="none" stroke="red" stroke-width="1.31183" d="M598.178,-161.984C606.723,-156.554 618.79,-149.777 630.437,-146.309 813.392,-91.8273 870.129,-141.623 1058.44,-110.309 1117.88,-100.424 1185,-82.5024 1228.43,-69.9936"/>
<polygon fill="red" stroke="red" stroke-width="1.31183" points="1229.5,-73.3263 1238.13,-67.1754 1227.55,-66.6043 1229.5,-73.3263"/>
</g>
<!-- Turn Left -->
<g id="node28" class="node"><title>Turn Left</title>
<ellipse fill="lightblue" stroke="black" cx="630.437" cy="-55.1543" rx="35.2113" ry="35.2113"/>
<text text-anchor="middle" x="630.437" y="-52.9543" font-family="Times,serif" font-size="9.00">Turn Left</text>
</g>
<!-- wallRadar[1,0]&#45;&gt;Turn Left -->
<g id="edge47" class="edge"><title>wallRadar[1,0]&#45;&gt;Turn Left</title>
<path fill="none" stroke="green" stroke-width="1.06546" d="M589.602,-161.866C594.745,-148.55 605.259,-121.335 614.329,-97.8533"/>
<polygon fill="green" stroke="green" stroke-width="1.06546" points="617.64,-98.996 617.979,-88.4065 611.11,-96.4735 617.64,-98.996"/>
</g>
<!-- Turn Right -->
<g id="node29" class="node"><title>Turn Right</title>
<ellipse fill="lightblue" stroke="black" cx="874.437" cy="-55.1543" rx="39.6962" ry="39.6962"/>
<text text-anchor="middle" x="874.437" y="-52.9543" font-family="Times,serif" font-size="9.00">Turn Right</text>
</g>
<!-- wallRadar[1,0]&#45;&gt;Turn Right -->
<g id="edge34" class="edge"><title>wallRadar[1,0]&#45;&gt;Turn Right</title>
<path fill="none" stroke="green" stroke-width="0.280985" d="M600.448,-161.839C608.968,-157.007 620.154,-150.956 630.437,-146.309 697.376,-116.059 777.756,-87.8539 827.473,-71.3067"/>
<polygon fill="green" stroke="green" stroke-width="0.280985" points="828.6,-74.6203 836.994,-68.1556 826.401,-67.9748 828.6,-74.6203"/>
</g>
<!-- wallRadar[0,1] -->
<g id="node2" class="node"><title>wallRadar[0,1]</title>
<polygon fill="lightgray" stroke="black" points="709.437,-180.057 639.437,-180.057 639.437,-162.057 709.437,-162.057 709.437,-180.057"/>
<text text-anchor="middle" x="674.437" y="-168.857" font-family="Times,serif" font-size="9.00">wallRadar[0,1]</text>
</g>
<!-- wallRadar[0,1]&#45;&gt;Shoot -->
<g id="edge46" class="edge"><title>wallRadar[0,1]&#45;&gt;Shoot</title>
<path fill="none" stroke="red" stroke-width="0.62602" d="M686.153,-161.897C694.686,-156.426 706.749,-149.635 718.437,-146.309 976.66,-72.8148 1058.97,-166.797 1321.44,-110.309 1359.97,-102.016 1401.89,-84.9605 1430.12,-72.1934"/>
<polygon fill="red" stroke="red" stroke-width="0.62602" points="1431.88,-75.2352 1439.5,-67.8778 1428.95,-68.8753 1431.88,-75.2352"/>
</g>
<!-- wallRadar[0,1]&#45;&gt;Move Left -->
<g id="edge31" class="edge"><title>wallRadar[0,1]&#45;&gt;Move Left</title>
<path fill="none" stroke="green" stroke-width="0.530729" d="M686.571,-161.83C695.102,-156.476 706.994,-149.851 718.437,-146.309 863.597,-101.372 908.818,-136.851 1058.44,-110.309 1117.77,-99.7837 1184.92,-82.0012 1228.38,-69.6995"/>
<polygon fill="green" stroke="green" stroke-width="0.530729" points="1229.43,-73.039 1238.08,-66.9306 1227.51,-66.3074 1229.43,-73.039"/>
</g>
<!-- wallRadar[0,1]&#45;&gt;Turn Left -->
<g id="edge55" class="edge"><title>wallRadar[0,1]&#45;&gt;Turn Left</title>
<path fill="none" stroke="green" stroke-width="0.882004" d="M671.273,-161.866C666.129,-148.55 655.616,-121.335 646.546,-97.8533"/>
<polygon fill="green" stroke="green" stroke-width="0.882004" points="649.765,-96.4735 642.896,-88.4065 643.235,-98.996 649.765,-96.4735"/>
</g>
<!-- wallRadar[0,1]&#45;&gt;Turn Right -->
<g id="edge41" class="edge"><title>wallRadar[0,1]&#45;&gt;Turn Right</title>
<path fill="none" stroke="red" stroke-width="0.681229" d="M688.501,-162.048C717.76,-145.385 786.213,-106.4 831.394,-80.6682"/>
<polygon fill="red" stroke="red" stroke-width="0.681229" points="833.144,-83.6994 840.102,-75.7092 829.68,-77.6167 833.144,-83.6994"/>
</g>
<!-- wallRadar[&#45;1,0] -->
<g id="node3" class="node"><title>wallRadar[&#45;1,0]</title>
<polygon fill="lightgray" stroke="black" points="1669.94,-180.057 1596.94,-180.057 1596.94,-162.057 1669.94,-162.057 1669.94,-180.057"/>
<text text-anchor="middle" x="1633.44" y="-168.857" font-family="Times,serif" font-size="9.00">wallRadar[&#45;1,0]</text>
</g>
<!-- Move Forward -->
<g id="node24" class="node"><title>Move Forward</title>
<ellipse fill="lightblue" stroke="black" cx="2050.44" cy="-55.1543" rx="50.41" ry="50.41"/>
<text text-anchor="middle" x="2050.44" y="-52.9543" font-family="Times,serif" font-size="9.00">Move Forward</text>
</g>
<!-- wallRadar[&#45;1,0]&#45;&gt;Move Forward -->
<g id="edge13" class="edge"><title>wallRadar[&#45;1,0]&#45;&gt;Move Forward</title>
<path fill="none" stroke="red" stroke-width="0.18971" d="M1647.13,-161.889C1656.08,-156.832 1668.16,-150.523 1679.44,-146.309 1786.04,-106.49 1916.51,-79.5332 1990.89,-66.0946"/>
<polygon fill="red" stroke="red" stroke-width="0.18971" points="1991.78,-69.4917 2001.01,-64.2881 1990.55,-62.6007 1991.78,-69.4917"/>
</g>
<!--  Move Backward -->
<g id="node25" class="node"><title> Move Backward</title>
<ellipse fill="lightblue" stroke="black" cx="994.437" cy="-55.1543" rx="55.3091" ry="55.3091"/>
<text text-anchor="middle" x="994.437" y="-52.9543" font-family="Times,serif" font-size="9.00"> Move Backward</text>
</g>
<!-- wallRadar[&#45;1,0]&#45;&gt; Move Backward -->
<g id="edge25" class="edge"><title>wallRadar[&#45;1,0]&#45;&gt; Move Backward</title>
<path fill="none" stroke="green" stroke-width="0.126891" stroke-dasharray="1,5" d="M1621.39,-162.045C1612.63,-156.643 1600.28,-149.875 1588.44,-146.309 1434.05,-99.8159 1386.52,-136.615 1227.44,-110.309 1169.42,-100.714 1104.29,-85.1635 1057.67,-73.1822"/>
<polygon fill="green" stroke="green" stroke-width="0.126891" points="1058.28,-69.7236 1047.72,-70.6062 1056.52,-76.5003 1058.28,-69.7236"/>
</g>
<!-- Move right -->
<g id="node27" class="node"><title>Move right</title>
<ellipse fill="lightblue" stroke="black" cx="1585.44" cy="-55.1543" rx="39.6962" ry="39.6962"/>
<text text-anchor="middle" x="1585.44" y="-52.9543" font-family="Times,serif" font-size="9.00">Move right</text>
</g>
<!-- wallRadar[&#45;1,0]&#45;&gt;Move right -->
<g id="edge75" class="edge"><title>wallRadar[&#45;1,0]&#45;&gt;Move right</title>
<path fill="none" stroke="red" stroke-width="0.736899" stroke-dasharray="1,5" d="M1629.99,-161.866C1624.66,-149.235 1614.07,-124.094 1604.55,-101.499"/>
<polygon fill="red" stroke="red" stroke-width="0.736899" points="1607.66,-99.8716 1600.55,-92.0157 1601.21,-102.59 1607.66,-99.8716"/>
</g>
<!-- wallRadar[&#45;1,0]&#45;&gt;Turn Right -->
<g id="edge69" class="edge"><title>wallRadar[&#45;1,0]&#45;&gt;Turn Right</title>
<path fill="none" stroke="red" stroke-width="0.793259" d="M1621.43,-161.881C1612.7,-156.402 1600.36,-149.609 1588.44,-146.309 1447.31,-107.23 1064.64,-168.903 930.437,-110.309 921.608,-106.454 913.356,-100.551 906.045,-94.0389"/>
<polygon fill="red" stroke="red" stroke-width="0.793259" points="908.137,-91.196 898.497,-86.8011 903.292,-96.2485 908.137,-91.196"/>
</g>
<!-- wallRadar[0,&#45;1] -->
<g id="node4" class="node"><title>wallRadar[0,&#45;1]</title>
<polygon fill="lightgray" stroke="black" points="1212.94,-180.057 1139.94,-180.057 1139.94,-162.057 1212.94,-162.057 1212.94,-180.057"/>
<text text-anchor="middle" x="1176.44" y="-168.857" font-family="Times,serif" font-size="9.00">wallRadar[0,&#45;1]</text>
</g>
<!-- wallRadar[0,&#45;1]&#45;&gt;Move right -->
<g id="edge70" class="edge"><title>wallRadar[0,&#45;1]&#45;&gt;Move right</title>
<path fill="none" stroke="green" stroke-width="0.371705" d="M1189.2,-161.93C1198.16,-156.621 1210.6,-150.008 1222.44,-146.309 1340.93,-109.276 1382.63,-152.365 1499.44,-110.309 1515.66,-104.468 1532.03,-95.1954 1546.07,-85.9623"/>
<polygon fill="green" stroke="green" stroke-width="0.371705" points="1548.18,-88.7609 1554.49,-80.2494 1544.25,-82.9686 1548.18,-88.7609"/>
</g>
<!-- wallRadar[0,&#45;1]&#45;&gt;Turn Right -->
<g id="edge14" class="edge"><title>wallRadar[0,&#45;1]&#45;&gt;Turn Right</title>
<path fill="none" stroke="green" stroke-width="0.563772" stroke-dasharray="1,5" d="M1163.22,-161.885C1154.27,-156.696 1142.01,-150.239 1130.44,-146.309 1044.92,-117.269 1010.82,-151.483 930.437,-110.309 921.951,-105.962 913.892,-99.9021 906.668,-93.4026"/>
<polygon fill="green" stroke="green" stroke-width="0.563772" points="908.823,-90.6201 899.177,-86.2375 903.984,-95.6788 908.823,-90.6201"/>
</g>
<!-- wallRadar[0.7,0.7] -->
<g id="node5" class="node"><title>wallRadar[0.7,0.7]</title>
<polygon fill="lightgray" stroke="black" points="1578.94,-180.057 1495.94,-180.057 1495.94,-162.057 1578.94,-162.057 1578.94,-180.057"/>
<text text-anchor="middle" x="1537.44" y="-168.857" font-family="Times,serif" font-size="9.00">wallRadar[0.7,0.7]</text>
</g>
<!-- wallRadar[0.7,0.7]&#45;&gt;Shoot -->
<g id="edge37" class="edge"><title>wallRadar[0.7,0.7]&#45;&gt;Shoot</title>
<path fill="none" stroke="red" stroke-width="0.148223" d="M1532.12,-161.866C1522.04,-146.352 1499.7,-111.967 1483.22,-86.6056"/>
<polygon fill="red" stroke="red" stroke-width="0.148223" points="1486.05,-84.5359 1477.67,-78.057 1480.18,-88.3495 1486.05,-84.5359"/>
</g>
<!-- wallRadar[0.7,0.7]&#45;&gt;Move Forward -->
<g id="edge57" class="edge"><title>wallRadar[0.7,0.7]&#45;&gt;Move Forward</title>
<path fill="none" stroke="green" stroke-width="0.147732" d="M1552.22,-162.001C1562.2,-156.861 1575.8,-150.415 1588.44,-146.309 1728.94,-100.641 1901.4,-74.5134 1990.61,-63.1023"/>
<polygon fill="green" stroke="green" stroke-width="0.147732" points="1991.07,-66.5728 2000.55,-61.8482 1990.19,-59.6279 1991.07,-66.5728"/>
</g>
<!-- wallRadar[0.7,0.7]&#45;&gt; Move Backward -->
<g id="edge65" class="edge"><title>wallRadar[0.7,0.7]&#45;&gt; Move Backward</title>
<path fill="none" stroke="green" stroke-width="0.109257" d="M1523.16,-162.003C1513.17,-156.727 1499.36,-150.124 1486.44,-146.309 1374.97,-113.415 1341.71,-131.485 1227.44,-110.309 1169.61,-99.5926 1104.47,-84.1614 1057.79,-72.5105"/>
<polygon fill="green" stroke="green" stroke-width="0.109257" points="1058.38,-69.049 1047.82,-70.0103 1056.67,-75.8386 1058.38,-69.049"/>
</g>
<!-- wallRadar[0.7,0.7]&#45;&gt;Move Left -->
<g id="edge28" class="edge"><title>wallRadar[0.7,0.7]&#45;&gt;Move Left</title>
<path fill="none" stroke="green" stroke-width="0.966485" d="M1520.5,-161.997C1510.61,-157.332 1497.86,-151.394 1486.44,-146.309 1428.86,-120.67 1361.84,-92.4353 1318.82,-74.5151"/>
<polygon fill="green" stroke="green" stroke-width="0.966485" points="1320.06,-71.241 1309.48,-70.6317 1317.37,-77.7041 1320.06,-71.241"/>
</g>
<!-- wallRadar[0.7,0.7]&#45;&gt;Move right -->
<g id="edge5" class="edge"><title>wallRadar[0.7,0.7]&#45;&gt;Move right</title>
<path fill="none" stroke="red" stroke-width="0.241859" d="M1540.89,-161.866C1546.21,-149.235 1556.81,-124.094 1566.33,-101.499"/>
<polygon fill="red" stroke="red" stroke-width="0.241859" points="1569.67,-102.59 1570.33,-92.0157 1563.22,-99.8716 1569.67,-102.59"/>
</g>
<!-- wallRadar[0.7,0.7]&#45;&gt;Turn Right -->
<g id="edge39" class="edge"><title>wallRadar[0.7,0.7]&#45;&gt;Turn Right</title>
<path fill="none" stroke="green" stroke-width="0.181328" stroke-dasharray="1,5" d="M1523.67,-161.934C1513.7,-156.48 1499.69,-149.695 1486.44,-146.309 1366.48,-115.649 1043.66,-160.416 930.437,-110.309 921.628,-106.41 913.384,-100.488 906.075,-93.9699"/>
<polygon fill="green" stroke="green" stroke-width="0.181328" points="908.167,-91.1271 898.527,-86.7316 903.322,-96.1793 908.167,-91.1271"/>
</g>
<!-- wallRadar[&#45;0.7,0.7] -->
<g id="node6" class="node"><title>wallRadar[&#45;0.7,0.7]</title>
<polygon fill="lightgray" stroke="black" points="917.437,-180.057 831.437,-180.057 831.437,-162.057 917.437,-162.057 917.437,-180.057"/>
<text text-anchor="middle" x="874.437" y="-168.857" font-family="Times,serif" font-size="9.00">wallRadar[&#45;0.7,0.7]</text>
</g>
<!-- wallRadar[&#45;0.7,0.7]&#45;&gt;Move Forward -->
<g id="edge64" class="edge"><title>wallRadar[&#45;0.7,0.7]&#45;&gt;Move Forward</title>
<path fill="none" stroke="green" stroke-width="0.584857" d="M888.478,-161.879C898.653,-156.4 912.94,-149.606 926.437,-146.309 1079.47,-108.921 1477.54,-124.488 1634.44,-110.309 1761.91,-98.7889 1910.4,-77.5658 1990.99,-65.3898"/>
<polygon fill="green" stroke="green" stroke-width="0.584857" points="1991.59,-68.8391 2000.95,-63.8786 1990.54,-61.9183 1991.59,-68.8391"/>
</g>
<!-- wallRadar[&#45;0.7,0.7]&#45;&gt;Move Left -->
<g id="edge12" class="edge"><title>wallRadar[&#45;0.7,0.7]&#45;&gt;Move Left</title>
<path fill="none" stroke="green" stroke-width="0.437141" stroke-dasharray="1,5" d="M890.071,-162.047C900.244,-157.054 913.904,-150.756 926.437,-146.309 954.932,-136.198 1139.69,-89.7369 1227.81,-67.7501"/>
<polygon fill="green" stroke="green" stroke-width="0.437141" points="1228.7,-71.136 1237.55,-65.3205 1227.01,-64.344 1228.7,-71.136"/>
</g>
<!-- wallRadar[&#45;0.7,0.7]&#45;&gt;Turn Left -->
<g id="edge72" class="edge"><title>wallRadar[&#45;0.7,0.7]&#45;&gt;Turn Left</title>
<path fill="none" stroke="green" stroke-width="0.389538" d="M857.28,-162.048C819.008,-144.182 725.766,-100.655 671.486,-75.3164"/>
<polygon fill="green" stroke="green" stroke-width="0.389538" points="672.692,-72.017 662.15,-70.9585 669.731,-78.3599 672.692,-72.017"/>
</g>
<!-- wallRadar[&#45;0.7,0.7]&#45;&gt;Turn Right -->
<g id="edge59" class="edge"><title>wallRadar[&#45;0.7,0.7]&#45;&gt;Turn Right</title>
<path fill="none" stroke="green" stroke-width="1.01684" d="M874.437,-161.866C874.437,-149.888 874.437,-126.662 874.437,-105.025"/>
<polygon fill="green" stroke="green" stroke-width="1.01684" points="877.938,-104.915 874.437,-94.9154 870.938,-104.915 877.938,-104.915"/>
</g>
<!-- wallRadar[&#45;0.7,&#45;0.7] -->
<g id="node7" class="node"><title>wallRadar[&#45;0.7,&#45;0.7]</title>
<polygon fill="lightgray" stroke="black" points="2329.94,-180.057 2240.94,-180.057 2240.94,-162.057 2329.94,-162.057 2329.94,-180.057"/>
<text text-anchor="middle" x="2285.44" y="-168.857" font-family="Times,serif" font-size="9.00">wallRadar[&#45;0.7,&#45;0.7]</text>
</g>
<!-- wallRadar[&#45;0.7,&#45;0.7]&#45;&gt;Move Forward -->
<g id="edge71" class="edge"><title>wallRadar[&#45;0.7,&#45;0.7]&#45;&gt;Move Forward</title>
<path fill="none" stroke="red" stroke-width="0.175665" stroke-dasharray="1,5" d="M2268.91,-162.048C2235.3,-145.758 2157.68,-108.136 2104.62,-82.4183"/>
<polygon fill="red" stroke="red" stroke-width="0.175665" points="2105.87,-79.1339 2095.35,-77.9218 2102.82,-85.433 2105.87,-79.1339"/>
</g>
<!-- wallRadar[&#45;0.7,&#45;0.7]&#45;&gt;Move Left -->
<g id="edge18" class="edge"><title>wallRadar[&#45;0.7,&#45;0.7]&#45;&gt;Move Left</title>
<path fill="none" stroke="red" stroke-width="0.613439" d="M2271.11,-161.855C2260.74,-156.365 2246.17,-149.568 2232.44,-146.309 1883.98,-63.624 1778.96,-178.804 1427.44,-110.309 1389.63,-102.942 1348.57,-87.9999 1318.51,-75.6742"/>
<polygon fill="red" stroke="red" stroke-width="0.613439" points="1319.74,-72.3923 1309.16,-71.7772 1317.05,-78.8539 1319.74,-72.3923"/>
</g>
<!-- wallRadar[0.7,&#45;0.7] -->
<g id="node8" class="node"><title>wallRadar[0.7,&#45;0.7]</title>
<polygon fill="lightgray" stroke="black" points="813.437,-180.057 727.437,-180.057 727.437,-162.057 813.437,-162.057 813.437,-180.057"/>
<text text-anchor="middle" x="770.437" y="-168.857" font-family="Times,serif" font-size="9.00">wallRadar[0.7,&#45;0.7]</text>
</g>
<!-- wallRadar[0.7,&#45;0.7]&#45;&gt; Move Backward -->
<g id="edge35" class="edge"><title>wallRadar[0.7,&#45;0.7]&#45;&gt; Move Backward</title>
<path fill="none" stroke="red" stroke-width="0.440552" d="M787.139,-161.986C797.259,-157.207 810.482,-151.159 822.437,-146.309 866.597,-128.393 881.548,-133.03 923.437,-110.309 930.432,-106.515 937.476,-102.065 944.268,-97.3753"/>
<polygon fill="red" stroke="red" stroke-width="0.440552" points="946.615,-100 952.715,-91.3377 942.544,-94.3056 946.615,-100"/>
</g>
<!-- wallRadar[0.7,&#45;0.7]&#45;&gt;Move right -->
<g id="edge8" class="edge"><title>wallRadar[0.7,&#45;0.7]&#45;&gt;Move right</title>
<path fill="none" stroke="red" stroke-width="0.64467" d="M784.48,-161.889C794.657,-156.414 808.944,-149.622 822.437,-146.309 1115.06,-74.4598 1212.26,-201.524 1499.44,-110.309 1516.01,-105.045 1532.57,-95.8089 1546.66,-86.4388"/>
<polygon fill="red" stroke="red" stroke-width="0.64467" points="1548.86,-89.179 1555.1,-80.6215 1544.88,-83.4157 1548.86,-89.179"/>
</g>
<!-- wallRadar[0.7,&#45;0.7]&#45;&gt;Turn Left -->
<g id="edge53" class="edge"><title>wallRadar[0.7,&#45;0.7]&#45;&gt;Turn Left</title>
<path fill="none" stroke="red" stroke-width="0.487752" d="M760.369,-161.866C740.858,-145.992 697.066,-110.363 665.716,-84.8567"/>
<polygon fill="red" stroke="red" stroke-width="0.487752" points="667.602,-81.8789 657.636,-78.2827 663.184,-87.3088 667.602,-81.8789"/>
</g>
<!-- enemyRadar[RightBack] -->
<g id="node9" class="node"><title>enemyRadar[RightBack]</title>
<polygon fill="lightgray" stroke="black" points="1477.44,-180.057 1373.44,-180.057 1373.44,-162.057 1477.44,-162.057 1477.44,-180.057"/>
<text text-anchor="middle" x="1425.44" y="-168.857" font-family="Times,serif" font-size="9.00">enemyRadar[RightBack]</text>
</g>
<!-- enemyRadar[RightBack]&#45;&gt;Shoot -->
<g id="edge68" class="edge"><title>enemyRadar[RightBack]&#45;&gt;Shoot</title>
<path fill="none" stroke="green" stroke-width="0.468126" stroke-dasharray="1,5" d="M1428.17,-161.866C1433.1,-147.095 1443.73,-115.22 1452.04,-90.3117"/>
<polygon fill="green" stroke="green" stroke-width="0.468126" points="1455.36,-91.4107 1455.21,-80.817 1448.72,-89.1953 1455.36,-91.4107"/>
</g>
<!-- enemyRadar[RightBack]&#45;&gt;Move right -->
<g id="edge32" class="edge"><title>enemyRadar[RightBack]&#45;&gt;Move right</title>
<path fill="none" stroke="green" stroke-width="0.586602" d="M1436.69,-162.048C1458.88,-146.249 1509.26,-110.385 1545.23,-84.7757"/>
<polygon fill="green" stroke="green" stroke-width="0.586602" points="1547.47,-87.4806 1553.59,-78.8298 1543.41,-81.778 1547.47,-87.4806"/>
</g>
<!-- enemyRadar[RightBack]&#45;&gt;Turn Right -->
<g id="edge33" class="edge"><title>enemyRadar[RightBack]&#45;&gt;Turn Right</title>
<path fill="none" stroke="red" stroke-width="0.175477" d="M1396.64,-161.981C1377,-156.764 1350.33,-150.239 1326.44,-146.309 1239.25,-131.965 1010.77,-147.117 930.437,-110.309 921.679,-106.295 913.459,-100.323 906.155,-93.7915"/>
<polygon fill="red" stroke="red" stroke-width="0.175477" points="908.248,-90.9485 898.608,-86.5516 903.402,-96.0001 908.248,-90.9485"/>
</g>
<!-- enemyRadar[LeftBack] -->
<g id="node10" class="node"><title>enemyRadar[LeftBack]</title>
<polygon fill="lightgray" stroke="black" points="2222.94,-180.057 2123.94,-180.057 2123.94,-162.057 2222.94,-162.057 2222.94,-180.057"/>
<text text-anchor="middle" x="2173.44" y="-168.857" font-family="Times,serif" font-size="9.00">enemyRadar[LeftBack]</text>
</g>
<!-- enemyRadar[LeftBack]&#45;&gt;Move Forward -->
<g id="edge50" class="edge"><title>enemyRadar[LeftBack]&#45;&gt;Move Forward</title>
<path fill="none" stroke="red" stroke-width="0.433225" d="M2164.59,-161.866C2150,-148.356 2119.96,-120.535 2094.36,-96.8248"/>
<polygon fill="red" stroke="red" stroke-width="0.433225" points="2096.64,-94.1678 2086.92,-89.9412 2091.88,-99.3038 2096.64,-94.1678"/>
</g>
<!-- enemyRadar[LeftBack]&#45;&gt; Move Backward -->
<g id="edge29" class="edge"><title>enemyRadar[LeftBack]&#45;&gt; Move Backward</title>
<path fill="none" stroke="green" stroke-width="0.640719" d="M2157.38,-161.848C2145.78,-156.354 2129.55,-149.556 2114.44,-146.309 1728.69,-63.4361 1618.42,-163.202 1227.44,-110.309 1169.16,-102.425 1104.06,-86.6923 1057.52,-74.2068"/>
<polygon fill="green" stroke="green" stroke-width="0.640719" points="1058.15,-70.752 1047.58,-71.5153 1056.32,-77.5085 1058.15,-70.752"/>
</g>
<!-- enemyRadar[Right] -->
<g id="node11" class="node"><title>enemyRadar[Right]</title>
<polygon fill="lightgray" stroke="black" points="1317.44,-180.057 1231.44,-180.057 1231.44,-162.057 1317.44,-162.057 1317.44,-180.057"/>
<text text-anchor="middle" x="1274.44" y="-168.857" font-family="Times,serif" font-size="9.00">enemyRadar[Right]</text>
</g>
<!-- enemyRadar[Right]&#45;&gt;Move Forward -->
<g id="edge48" class="edge"><title>enemyRadar[Right]&#45;&gt;Move Forward</title>
<path fill="none" stroke="green" stroke-width="0.345153" d="M1301.4,-161.98C1319.17,-156.895 1343.03,-150.522 1364.44,-146.309 1372.14,-144.793 1825.02,-85.5939 1990.63,-63.964"/>
<polygon fill="green" stroke="green" stroke-width="0.345153" points="1991.18,-67.4213 2000.64,-62.6556 1990.28,-60.4803 1991.18,-67.4213"/>
</g>
<!-- enemyRadar[Right]&#45;&gt;Move Left -->
<g id="edge7" class="edge"><title>enemyRadar[Right]&#45;&gt;Move Left</title>
<path fill="none" stroke="red" stroke-width="0.113362" d="M1274.44,-161.866C1274.44,-149.668 1274.44,-125.805 1274.44,-103.834"/>
<polygon fill="red" stroke="red" stroke-width="0.113362" points="1277.94,-103.591 1274.44,-93.591 1270.94,-103.591 1277.94,-103.591"/>
</g>
<!-- enemyRadar[Right]&#45;&gt;Move right -->
<g id="edge45" class="edge"><title>enemyRadar[Right]&#45;&gt;Move right</title>
<path fill="none" stroke="red" stroke-width="0.129194" d="M1305.07,-161.955C1366.34,-145.742 1498.3,-110.804 1499.44,-110.309 1515.11,-103.482 1531.24,-94.0657 1545.23,-84.9975"/>
<polygon fill="red" stroke="red" stroke-width="0.129194" points="1547.24,-87.8636 1553.65,-79.4226 1543.38,-82.0282 1547.24,-87.8636"/>
</g>
<!-- enemyRadar[Right]&#45;&gt;Turn Left -->
<g id="edge40" class="edge"><title>enemyRadar[Right]&#45;&gt;Turn Left</title>
<path fill="none" stroke="red" stroke-width="0.366058" d="M1260.06,-162.049C1249.66,-156.65 1235.09,-149.883 1221.44,-146.309 1050.47,-101.566 999.283,-142.082 825.437,-110.309 772.34,-100.604 712.746,-83.0446 673.574,-70.5527"/>
<polygon fill="red" stroke="red" stroke-width="0.366058" points="674.418,-67.1475 663.827,-67.4142 672.273,-73.8106 674.418,-67.1475"/>
</g>
<!-- enemyRadar[Right]&#45;&gt;Turn Right -->
<g id="edge62" class="edge"><title>enemyRadar[Right]&#45;&gt;Turn Right</title>
<path fill="none" stroke="green" stroke-width="0.166992" d="M1259.58,-161.956C1249.19,-156.658 1234.84,-150.049 1221.44,-146.309 1095.92,-111.275 1048.02,-166.507 930.437,-110.309 921.835,-106.197 913.723,-100.243 906.485,-93.7728"/>
<polygon fill="green" stroke="green" stroke-width="0.166992" points="908.639,-90.9903 898.991,-86.6125 903.803,-96.0514 908.639,-90.9903"/>
</g>
<!-- enemyRadar[Left] -->
<g id="node12" class="node"><title>enemyRadar[Left]</title>
<polygon fill="lightgray" stroke="black" points="231.937,-180.057 150.937,-180.057 150.937,-162.057 231.937,-162.057 231.937,-180.057"/>
<text text-anchor="middle" x="191.437" y="-168.857" font-family="Times,serif" font-size="9.00">enemyRadar[Left]</text>
</g>
<!-- enemyRadar[Left]&#45;&gt; Move Backward -->
<g id="edge66" class="edge"><title>enemyRadar[Left]&#45;&gt; Move Backward</title>
<path fill="none" stroke="green" stroke-width="0.15912" d="M204.607,-161.881C214.168,-156.402 227.621,-149.608 240.437,-146.309 387.626,-108.414 780.775,-162.729 923.437,-110.309 931.009,-107.527 938.435,-103.638 945.463,-99.2085"/>
<polygon fill="green" stroke="green" stroke-width="0.15912" points="947.807,-101.849 954.133,-93.3502 943.888,-96.0491 947.807,-101.849"/>
</g>
<!-- enemyRadar[Left]&#45;&gt;Move Left -->
<g id="edge24" class="edge"><title>enemyRadar[Left]&#45;&gt;Move Left</title>
<path fill="none" stroke="red" stroke-width="0.262851" d="M204.599,-161.846C214.155,-156.351 227.606,-149.553 240.437,-146.309 416.84,-101.708 878.388,-136.567 1058.44,-110.309 1118.06,-101.613 1185.15,-83.4323 1228.51,-70.5393"/>
<polygon fill="red" stroke="red" stroke-width="0.262851" points="1229.63,-73.8586 1238.2,-67.6296 1227.61,-67.1545 1229.63,-73.8586"/>
</g>
<!-- enemyRadar[Left]&#45;&gt;Turn Left -->
<g id="edge44" class="edge"><title>enemyRadar[Left]&#45;&gt;Turn Left</title>
<path fill="none" stroke="green" stroke-width="0.226142" d="M206.077,-161.889C215.626,-156.833 228.492,-150.524 240.437,-146.309 361.769,-103.493 511.59,-75.4526 585.23,-63.2106"/>
<polygon fill="green" stroke="green" stroke-width="0.226142" points="586.23,-66.5935 595.53,-61.5191 585.095,-59.686 586.23,-66.5935"/>
</g>
<!-- enemyRadar[Left]&#45;&gt;Turn Right -->
<g id="edge1" class="edge"><title>enemyRadar[Left]&#45;&gt;Turn Right</title>
<path fill="none" stroke="green" stroke-width="0.762257" d="M204.639,-161.999C214.214,-156.576 227.672,-149.801 240.437,-146.309 427.129,-95.236 483.795,-143.74 674.437,-110.309 727.516,-101.001 786.96,-84.0423 827.144,-71.5744"/>
<polygon fill="green" stroke="green" stroke-width="0.762257" points="828.433,-74.8383 836.93,-68.5088 826.341,-68.1584 828.433,-74.8383"/>
</g>
<!-- enemyRadar[RightFront30] -->
<g id="node13" class="node"><title>enemyRadar[RightFront30]</title>
<polygon fill="lightgray" stroke="black" points="1802.94,-180.057 1687.94,-180.057 1687.94,-162.057 1802.94,-162.057 1802.94,-180.057"/>
<text text-anchor="middle" x="1745.44" y="-168.857" font-family="Times,serif" font-size="9.00">enemyRadar[RightFront30]</text>
</g>
<!-- enemyRadar[RightFront30]&#45;&gt;Shoot -->
<g id="edge67" class="edge"><title>enemyRadar[RightFront30]&#45;&gt;Shoot</title>
<path fill="none" stroke="green" stroke-width="0.247407" d="M1724.81,-162.04C1711.88,-157.165 1694.81,-150.998 1679.44,-146.309 1616.75,-127.19 1595.67,-138.369 1536.44,-110.309 1520.18,-102.605 1503.92,-91.0204 1490.89,-80.5404"/>
<polygon fill="green" stroke="green" stroke-width="0.247407" points="1492.76,-77.5448 1482.82,-73.8649 1488.29,-82.9373 1492.76,-77.5448"/>
</g>
<!-- enemyRadar[RightFront30]&#45;&gt; Move Backward -->
<g id="edge30" class="edge"><title>enemyRadar[RightFront30]&#45;&gt; Move Backward</title>
<path fill="none" stroke="green" stroke-width="0.339846" d="M1727.05,-161.946C1714.02,-156.572 1695.98,-149.878 1679.44,-146.309 1482.44,-103.818 1426.58,-141.206 1227.44,-110.309 1169.32,-101.292 1104.21,-85.6803 1057.62,-73.5286"/>
<polygon fill="green" stroke="green" stroke-width="0.339846" points="1058.23,-70.0714 1047.67,-70.9135 1056.45,-76.8413 1058.23,-70.0714"/>
</g>
<!-- enemyRadar[RightFront30]&#45;&gt;Move Left -->
<g id="edge21" class="edge"><title>enemyRadar[RightFront30]&#45;&gt;Move Left</title>
<path fill="none" stroke="green" stroke-width="0.246832" d="M1726.41,-162.042C1713.39,-156.852 1695.63,-150.333 1679.44,-146.309 1569.64,-119.015 1537.3,-137.316 1427.44,-110.309 1390.03,-101.113 1348.95,-86.2961 1318.78,-74.4832"/>
<polygon fill="green" stroke="green" stroke-width="0.246832" points="1319.97,-71.1914 1309.38,-70.7644 1317.39,-77.6999 1319.97,-71.1914"/>
</g>
<!-- enemyRadar[RightFront30]&#45;&gt;Move right -->
<g id="edge78" class="edge"><title>enemyRadar[RightFront30]&#45;&gt;Move right</title>
<path fill="none" stroke="red" stroke-width="0.363727" d="M1734.19,-162.048C1711.99,-146.249 1661.62,-110.385 1625.64,-84.7757"/>
<polygon fill="red" stroke="red" stroke-width="0.363727" points="1627.47,-81.778 1617.29,-78.8298 1623.41,-87.4806 1627.47,-81.778"/>
</g>
<!-- enemyRadar[LeftFront30] -->
<g id="node14" class="node"><title>enemyRadar[LeftFront30]</title>
<polygon fill="lightgray" stroke="black" points="2105.44,-180.057 1995.44,-180.057 1995.44,-162.057 2105.44,-162.057 2105.44,-180.057"/>
<text text-anchor="middle" x="2050.44" y="-168.857" font-family="Times,serif" font-size="9.00">enemyRadar[LeftFront30]</text>
</g>
<!-- enemyRadar[LeftFront30]&#45;&gt;Move Forward -->
<g id="edge20" class="edge"><title>enemyRadar[LeftFront30]&#45;&gt;Move Forward</title>
<path fill="none" stroke="green" stroke-width="0.382978" stroke-dasharray="1,5" d="M2050.44,-161.866C2050.44,-151.838 2050.44,-133.925 2050.44,-115.661"/>
<polygon fill="green" stroke="green" stroke-width="0.382978" points="2053.94,-115.526 2050.44,-105.526 2046.94,-115.526 2053.94,-115.526"/>
</g>
<!-- enemyRadar[LeftFront30]&#45;&gt; Move Backward -->
<g id="edge60" class="edge"><title>enemyRadar[LeftFront30]&#45;&gt; Move Backward</title>
<path fill="none" stroke="red" stroke-width="0.158216" d="M2033.21,-162.009C2020.56,-156.516 2002.81,-149.651 1986.44,-146.309 1655.55,-78.7655 1561.94,-156.726 1227.44,-110.309 1169.19,-102.226 1104.08,-86.5144 1057.54,-74.0876"/>
<polygon fill="red" stroke="red" stroke-width="0.158216" points="1058.16,-70.6324 1047.6,-71.4095 1056.34,-77.3913 1058.16,-70.6324"/>
</g>
<!-- enemyRadar[LeftFront30]&#45;&gt;Move right -->
<g id="edge16" class="edge"><title>enemyRadar[LeftFront30]&#45;&gt;Move right</title>
<path fill="none" stroke="red" stroke-width="0.127662" d="M2030.78,-161.982C2018.23,-157.024 2001.55,-150.789 1986.44,-146.309 1861.48,-109.259 1710.69,-79.1825 1634.55,-64.9904"/>
<polygon fill="red" stroke="red" stroke-width="0.127662" points="1634.78,-61.4739 1624.31,-63.0942 1633.51,-68.3569 1634.78,-61.4739"/>
</g>
<!-- enemyRadar[RightFront10] -->
<g id="node15" class="node"><title>enemyRadar[RightFront10]</title>
<polygon fill="lightgray" stroke="black" points="364.937,-180.057 249.937,-180.057 249.937,-162.057 364.937,-162.057 364.937,-180.057"/>
<text text-anchor="middle" x="307.437" y="-168.857" font-family="Times,serif" font-size="9.00">enemyRadar[RightFront10]</text>
</g>
<!-- enemyRadar[RightFront10]&#45;&gt; Move Backward -->
<g id="edge77" class="edge"><title>enemyRadar[RightFront10]&#45;&gt; Move Backward</title>
<path fill="none" stroke="green" stroke-width="0.161021" d="M325.817,-161.994C339.064,-156.569 357.515,-149.793 374.437,-146.309 494.187,-121.652 808.95,-153.211 923.437,-110.309 930.991,-107.478 938.407,-103.561 945.429,-99.1162"/>
<polygon fill="green" stroke="green" stroke-width="0.161021" points="947.778,-101.752 954.094,-93.2457 943.852,-95.9569 947.778,-101.752"/>
</g>
<!-- enemyRadar[RightFront10]&#45;&gt;Move Left -->
<g id="edge19" class="edge"><title>enemyRadar[RightFront10]&#45;&gt;Move Left</title>
<path fill="none" stroke="green" stroke-width="0.358522" d="M325.52,-162.044C338.78,-156.567 357.372,-149.708 374.437,-146.309 672.993,-86.8407 757.395,-155.535 1058.44,-110.309 1118.02,-101.357 1185.12,-83.2318 1228.49,-70.4216"/>
<polygon fill="green" stroke="green" stroke-width="0.358522" points="1229.6,-73.7439 1238.18,-67.5316 1227.6,-67.0359 1229.6,-73.7439"/>
</g>
<!-- enemyRadar[RightFront10]&#45;&gt;Turn Left -->
<g id="edge6" class="edge"><title>enemyRadar[RightFront10]&#45;&gt;Turn Left</title>
<path fill="none" stroke="green" stroke-width="0.211991" d="M330.073,-162.021C343.055,-157.415 359.66,-151.53 374.437,-146.309 449.411,-119.82 536.779,-89.0791 587.624,-71.2019"/>
<polygon fill="green" stroke="green" stroke-width="0.211991" points="589.018,-74.4217 597.291,-67.8031 586.696,-67.818 589.018,-74.4217"/>
</g>
<!-- enemyRadar[RightFront10]&#45;&gt;Turn Right -->
<g id="edge56" class="edge"><title>enemyRadar[RightFront10]&#45;&gt;Turn Right</title>
<path fill="none" stroke="red" stroke-width="0.600461" d="M326.45,-162.047C339.681,-156.79 357.855,-150.192 374.437,-146.309 505.19,-115.689 542.613,-135.925 674.437,-110.309 727.337,-100.029 786.811,-83.2363 827.051,-71.0729"/>
<polygon fill="red" stroke="red" stroke-width="0.600461" points="828.306,-74.3496 836.852,-68.087 826.266,-67.6534 828.306,-74.3496"/>
</g>
<!-- enemyRadar[LeftFront10] -->
<g id="node16" class="node"><title>enemyRadar[LeftFront10]</title>
<polygon fill="lightgray" stroke="black" points="1643.44,-249.806 1533.44,-249.806 1533.44,-231.806 1643.44,-231.806 1643.44,-249.806"/>
<text text-anchor="middle" x="1588.44" y="-238.606" font-family="Times,serif" font-size="9.00">enemyRadar[LeftFront10]</text>
</g>
<!-- enemyRadar[LeftFront10]&#45;&gt;Shoot -->
<g id="edge52" class="edge"><title>enemyRadar[LeftFront10]&#45;&gt;Shoot</title>
<path fill="none" stroke="green" stroke-width="0.214372" d="M1643.48,-236.796C1702.76,-232.267 1791.44,-221.324 1812.44,-195.806 1826.41,-178.817 1826.95,-162.84 1812.44,-146.309 1771.63,-99.8296 1593.79,-133.48 1536.44,-110.309 1519.6,-103.504 1503.14,-91.8697 1490.13,-81.1248"/>
<polygon fill="green" stroke="green" stroke-width="0.214372" points="1492.37,-78.44 1482.5,-74.6007 1487.83,-83.76 1492.37,-78.44"/>
</g>
<!-- enemyRadar[LeftFront10]&#45;&gt;Move Forward -->
<g id="edge76" class="edge"><title>enemyRadar[LeftFront10]&#45;&gt;Move Forward</title>
<path fill="none" stroke="red" stroke-width="1.06367" stroke-dasharray="1,5" d="M1643.6,-238.83C1820.38,-235.435 2362.84,-222.845 2388.44,-195.806 2474.21,-105.186 2229.11,-71.3995 2110.58,-60.5916"/>
<polygon fill="red" stroke="red" stroke-width="1.06367" points="2110.83,-57.0993 2100.56,-59.7043 2110.21,-64.072 2110.83,-57.0993"/>
</g>
<!-- enemyRadar[LeftFront10]&#45;&gt; Move Backward -->
<g id="edge10" class="edge"><title>enemyRadar[LeftFront10]&#45;&gt; Move Backward</title>
<path fill="none" stroke="red" stroke-width="0.403578" stroke-dasharray="1,5" d="M1533.18,-239.575C1322.12,-238.426 576.971,-231.823 542.437,-195.806 527.212,-179.927 527.632,-162.579 542.437,-146.309 599.674,-83.4088 844.239,-141.292 923.437,-110.309 930.949,-107.37 938.341,-103.389 945.35,-98.9101"/>
<polygon fill="red" stroke="red" stroke-width="0.403578" points="947.712,-101.536 954.005,-93.0123 943.77,-95.7514 947.712,-101.536"/>
</g>
<!-- enemyRadar[LeftFront10]&#45;&gt;Move Left -->
<g id="edge38" class="edge"><title>enemyRadar[LeftFront10]&#45;&gt;Move Left</title>
<path fill="none" stroke="red" stroke-width="0.455929" d="M1533.38,-233.975C1476.21,-227.057 1391.41,-214.108 1364.44,-195.806 1354.88,-189.322 1322.06,-136.29 1298.82,-97.4918"/>
<polygon fill="red" stroke="red" stroke-width="0.455929" points="1301.56,-95.2591 1293.43,-88.4662 1295.55,-98.8468 1301.56,-95.2591"/>
</g>
<!-- enemyRadar[LeftFront10]&#45;&gt;Turn Right -->
<g id="edge61" class="edge"><title>enemyRadar[LeftFront10]&#45;&gt;Turn Right</title>
<path fill="none" stroke="green" stroke-width="1.10794" d="M1533.35,-239.313C1257.52,-236.713 38.5286,-223.664 11.4375,-195.806 -3.89962,-180.035 -3.6905,-162.28 11.4375,-146.309 62.1705,-92.7462 601.597,-122.014 674.437,-110.309 727.643,-101.758 787.066,-84.6709 827.21,-71.9656"/>
<polygon fill="green" stroke="green" stroke-width="1.10794" points="828.527,-75.2189 836.985,-68.8377 826.394,-68.5519 828.527,-75.2189"/>
</g>
<!-- 1840 -->
<g id="node30" class="node"><title>1840</title>
<ellipse fill="white" stroke="black" cx="2460.44" cy="-171.057" rx="25" ry="25"/>
<text text-anchor="middle" x="2460.44" y="-168.857" font-family="Times,serif" font-size="9.00">1840</text>
</g>
<!-- enemyRadar[LeftFront10]&#45;&gt;1840 -->
<g id="edge80" class="edge"><title>enemyRadar[LeftFront10]&#45;&gt;1840</title>
<path fill="none" stroke="green" stroke-width="0.395755" d="M1643.65,-240.393C1805.35,-241.562 2275.64,-240.885 2421.44,-195.806 2424.98,-194.711 2428.53,-193.224 2431.96,-191.525"/>
<polygon fill="green" stroke="green" stroke-width="0.395755" points="2433.67,-194.578 2440.71,-186.654 2430.27,-188.463 2433.67,-194.578"/>
</g>
<!-- enemyRadar[RightFront3.5] -->
<g id="node17" class="node"><title>enemyRadar[RightFront3.5]</title>
<polygon fill="lightgray" stroke="black" points="1052.94,-180.057 935.937,-180.057 935.937,-162.057 1052.94,-162.057 1052.94,-180.057"/>
<text text-anchor="middle" x="994.437" y="-168.857" font-family="Times,serif" font-size="9.00">enemyRadar[RightFront3.5]</text>
</g>
<!-- enemyRadar[RightFront3.5]&#45;&gt;Shoot -->
<g id="edge17" class="edge"><title>enemyRadar[RightFront3.5]&#45;&gt;Shoot</title>
<path fill="none" stroke="red" stroke-width="0.600092" d="M1014.06,-162.041C1027.48,-156.85 1045.78,-150.332 1062.44,-146.309 1175.41,-119.016 1208.87,-139.2 1321.44,-110.309 1359.62,-100.51 1401.59,-83.7068 1429.93,-71.4102"/>
<polygon fill="red" stroke="red" stroke-width="0.600092" points="1431.61,-74.495 1439.36,-67.2676 1428.79,-68.0865 1431.61,-74.495"/>
</g>
<!-- enemyRadar[RightFront3.5]&#45;&gt; Move Backward -->
<g id="edge74" class="edge"><title>enemyRadar[RightFront3.5]&#45;&gt; Move Backward</title>
<path fill="none" stroke="red" stroke-width="0.549759" stroke-dasharray="1,5" d="M994.437,-161.866C994.437,-152.784 994.437,-137.235 994.437,-120.815"/>
<polygon fill="red" stroke="red" stroke-width="0.549759" points="997.938,-120.528 994.437,-110.528 990.938,-120.528 997.938,-120.528"/>
</g>
<!-- enemyRadar[RightFront3.5]&#45;&gt;Turn Right -->
<g id="edge23" class="edge"><title>enemyRadar[RightFront3.5]&#45;&gt;Turn Right</title>
<path fill="none" stroke="red" stroke-width="1.35832" d="M985.697,-161.988C973.332,-150.552 950.052,-128.946 930.437,-110.309 923.741,-103.946 916.632,-97.1241 909.807,-90.5406"/>
<polygon fill="red" stroke="red" stroke-width="1.35832" points="912.169,-87.9556 902.546,-83.5234 907.305,-92.9893 912.169,-87.9556"/>
</g>
<!-- enemyRadar[LeftFront3.5] -->
<g id="node18" class="node"><title>enemyRadar[LeftFront3.5]</title>
<polygon fill="lightgray" stroke="black" points="132.437,-180.057 20.4375,-180.057 20.4375,-162.057 132.437,-162.057 132.437,-180.057"/>
<text text-anchor="middle" x="76.4375" y="-168.857" font-family="Times,serif" font-size="9.00">enemyRadar[LeftFront3.5]</text>
</g>
<!-- enemyRadar[LeftFront3.5]&#45;&gt; Move Backward -->
<g id="edge42" class="edge"><title>enemyRadar[LeftFront3.5]&#45;&gt; Move Backward</title>
<path fill="none" stroke="green" stroke-width="0.117083" d="M93.9485,-162.005C106.797,-156.509 124.829,-149.643 141.437,-146.309 311.995,-112.063 759.951,-169.764 923.437,-110.309 931.018,-107.552 938.45,-103.679 945.481,-99.2565"/>
<polygon fill="green" stroke="green" stroke-width="0.117083" points="947.821,-101.9 954.153,-93.4046 943.906,-96.097 947.821,-101.9"/>
</g>
<!-- enemyRadar[LeftFront3.5]&#45;&gt;Turn Left -->
<g id="edge58" class="edge"><title>enemyRadar[LeftFront3.5]&#45;&gt;Turn Left</title>
<path fill="none" stroke="green" stroke-width="0.427678" d="M95.7869,-162.017C108.57,-156.948 125.79,-150.577 141.437,-146.309 302.098,-102.483 498.299,-73.5139 585.249,-61.897"/>
<polygon fill="green" stroke="green" stroke-width="0.427678" points="585.847,-65.3485 595.301,-60.5665 584.928,-58.409 585.847,-65.3485"/>
</g>
<!-- enemyRadar[RightFront1.5] -->
<g id="node19" class="node"><title>enemyRadar[RightFront1.5]</title>
<polygon fill="lightgray" stroke="black" points="1976.94,-180.057 1859.94,-180.057 1859.94,-162.057 1976.94,-162.057 1976.94,-180.057"/>
<text text-anchor="middle" x="1918.44" y="-168.857" font-family="Times,serif" font-size="9.00">enemyRadar[RightFront1.5]</text>
</g>
<!-- enemyRadar[RightFront1.5]&#45;&gt;Shoot -->
<g id="edge51" class="edge"><title>enemyRadar[RightFront1.5]&#45;&gt;Shoot</title>
<path fill="none" stroke="red" stroke-width="0.10678" stroke-dasharray="1,5" d="M1897.34,-161.961C1882.93,-156.736 1863.27,-150.209 1845.44,-146.309 1710.37,-116.776 1664.98,-161.223 1536.44,-110.309 1519.43,-103.572 1502.85,-91.8296 1489.81,-80.9977"/>
<polygon fill="red" stroke="red" stroke-width="0.10678" points="1492.03,-78.2938 1482.17,-74.4238 1487.46,-83.5996 1492.03,-78.2938"/>
</g>
<!-- enemyRadar[RightFront1.5]&#45;&gt;Move Left -->
<g id="edge26" class="edge"><title>enemyRadar[RightFront1.5]&#45;&gt;Move Left</title>
<path fill="none" stroke="green" stroke-width="0.738826" d="M1887.56,-162.049C1866.52,-156.862 1837.96,-150.344 1812.44,-146.309 1642.69,-119.468 1595.28,-147.261 1427.44,-110.309 1389.82,-102.026 1348.75,-87.1467 1318.64,-75.0778"/>
<polygon fill="green" stroke="green" stroke-width="0.738826" points="1319.85,-71.7916 1309.27,-71.27 1317.21,-78.2768 1319.85,-71.7916"/>
</g>
<!-- enemyRadar[RightFront1.5]&#45;&gt;Move right -->
<g id="edge36" class="edge"><title>enemyRadar[RightFront1.5]&#45;&gt;Move right</title>
<path fill="none" stroke="green" stroke-width="0.565949" d="M1895.02,-162.048C1840.59,-143.428 1704.66,-96.9356 1632.37,-72.209"/>
<polygon fill="green" stroke="green" stroke-width="0.565949" points="1633.21,-68.7944 1622.61,-68.8696 1630.94,-75.4177 1633.21,-68.7944"/>
</g>
<!-- enemyRadar[LeftFront1.5] -->
<g id="node20" class="node"><title>enemyRadar[LeftFront1.5]</title>
<polygon fill="lightgray" stroke="black" points="495.437,-180.057 383.437,-180.057 383.437,-162.057 495.437,-162.057 495.437,-180.057"/>
<text text-anchor="middle" x="439.437" y="-168.857" font-family="Times,serif" font-size="9.00">enemyRadar[LeftFront1.5]</text>
</g>
<!-- enemyRadar[LeftFront1.5]&#45;&gt; Move Backward -->
<g id="edge63" class="edge"><title>enemyRadar[LeftFront1.5]&#45;&gt; Move Backward</title>
<path fill="none" stroke="red" stroke-width="0.44578" d="M458.997,-162.006C472.843,-156.66 491.98,-149.973 509.437,-146.309 690.192,-108.366 751.187,-176.954 923.437,-110.309 930.96,-107.398 938.358,-103.433 945.371,-98.9636"/>
<polygon fill="red" stroke="red" stroke-width="0.44578" points="947.73,-101.592 954.028,-93.0729 943.792,-95.8047 947.73,-101.592"/>
</g>
<!-- enemyRadar[LeftFront1.5]&#45;&gt;Move Left -->
<g id="edge9" class="edge"><title>enemyRadar[LeftFront1.5]&#45;&gt;Move Left</title>
<path fill="none" stroke="red" stroke-width="0.386647" d="M468.95,-161.954C489.416,-156.655 517.39,-150.046 542.437,-146.309 769.811,-112.379 831.398,-146.402 1058.44,-110.309 1117.95,-100.848 1185.06,-82.8341 1228.46,-70.1883"/>
<polygon fill="red" stroke="red" stroke-width="0.386647" points="1229.55,-73.5164 1238.15,-67.3374 1227.57,-66.8007 1229.55,-73.5164"/>
</g>
<!-- enemyRadar[LeftFront1.5]&#45;&gt;Turn Left -->
<g id="edge22" class="edge"><title>enemyRadar[LeftFront1.5]&#45;&gt;Turn Left</title>
<path fill="none" stroke="green" stroke-width="0.174305" d="M452.868,-162.048C481.328,-145.076 548.618,-104.947 591.706,-79.2516"/>
<polygon fill="green" stroke="green" stroke-width="0.174305" points="593.715,-82.1291 600.511,-74.0011 590.129,-76.117 593.715,-82.1291"/>
</g>
<!-- enemyRadar[LeftFront1.5]&#45;&gt;Turn Right -->
<g id="edge3" class="edge"><title>enemyRadar[LeftFront1.5]&#45;&gt;Turn Right</title>
<path fill="none" stroke="green" stroke-width="0.354775" d="M460.998,-162.042C474.741,-157.108 492.992,-150.877 509.437,-146.309 581.758,-126.22 601.524,-128.123 674.437,-110.309 726.786,-97.5189 786.355,-81.1536 826.767,-69.777"/>
<polygon fill="green" stroke="green" stroke-width="0.354775" points="827.94,-73.0828 836.613,-66.9973 826.038,-66.3461 827.94,-73.0828"/>
</g>
<!-- OnTarget -->
<g id="node21" class="node"><title>OnTarget</title>
<polygon fill="lightgray" stroke="black" points="1121.44,-180.057 1071.44,-180.057 1071.44,-162.057 1121.44,-162.057 1121.44,-180.057"/>
<text text-anchor="middle" x="1096.44" y="-168.857" font-family="Times,serif" font-size="9.00">OnTarget</text>
</g>
<!-- OnTarget&#45;&gt;Shoot -->
<g id="edge27" class="edge"><title>OnTarget&#45;&gt;Shoot</title>
<path fill="none" stroke="green" stroke-width="0.68034" d="M1105.61,-162.026C1112.11,-156.76 1121.28,-150.16 1130.44,-146.309 1210.07,-112.828 1238.31,-133.792 1321.44,-110.309 1359.37,-99.5935 1401.38,-82.9431 1429.8,-70.9332"/>
<polygon fill="green" stroke="green" stroke-width="0.68034" points="1431.44,-74.0416 1439.26,-66.896 1428.69,-67.6039 1431.44,-74.0416"/>
</g>
<!-- OnTarget&#45;&gt;Move Forward -->
<g id="edge79" class="edge"><title>OnTarget&#45;&gt;Move Forward</title>
<path fill="none" stroke="green" stroke-width="0.187443" d="M1105.2,-161.922C1111.66,-156.462 1120.94,-149.675 1130.44,-146.309 1236.28,-108.809 1522.72,-121.561 1634.44,-110.309 1761.78,-97.4827 1910.32,-76.7467 1990.95,-65.0045"/>
<polygon fill="green" stroke="green" stroke-width="0.187443" points="1991.53,-68.4575 2000.92,-63.5486 1990.52,-61.531 1991.53,-68.4575"/>
</g>
<!-- OnTarget&#45;&gt; Move Backward -->
<g id="edge49" class="edge"><title>OnTarget&#45;&gt; Move Backward</title>
<path fill="none" stroke="red" stroke-width="0.889127" d="M1089.1,-161.866C1078.27,-149.774 1057.18,-126.219 1037.65,-104.407"/>
<polygon fill="red" stroke="red" stroke-width="0.889127" points="1040.1,-101.901 1030.82,-96.786 1034.89,-106.571 1040.1,-101.901"/>
</g>
<!-- OnTarget&#45;&gt;Turn Left -->
<g id="edge4" class="edge"><title>OnTarget&#45;&gt;Turn Left</title>
<path fill="none" stroke="green" stroke-width="0.284155" stroke-dasharray="1,5" d="M1087,-161.93C1080.3,-156.621 1070.87,-150.009 1061.44,-146.309 962.661,-107.567 929.184,-132.544 825.437,-110.309 772.659,-98.9968 713.001,-81.7591 673.727,-69.7816"/>
<polygon fill="green" stroke="green" stroke-width="0.284155" points="674.539,-66.3697 663.953,-66.7807 672.485,-73.0615 674.539,-66.3697"/>
</g>
<!-- bias -->
<g id="node22" class="node"><title>bias</title>
<polygon fill="lightgray" stroke="black" points="2378.94,-180.057 2347.94,-180.057 2347.94,-162.057 2378.94,-162.057 2378.94,-180.057"/>
<text text-anchor="middle" x="2363.44" y="-168.857" font-family="Times,serif" font-size="9.00">bias</text>
</g>
<!-- bias&#45;&gt;Shoot -->
<g id="edge54" class="edge"><title>bias&#45;&gt;Shoot</title>
<path fill="none" stroke="green" stroke-width="0.187469" d="M2357.75,-161.874C2353.43,-156.393 2346.96,-149.598 2339.44,-146.309 2175.79,-74.7033 1704.74,-170.135 1536.44,-110.309 1519.2,-104.181 1502.6,-92.4965 1489.6,-81.545"/>
<polygon fill="green" stroke="green" stroke-width="0.187469" points="1491.82,-78.8389 1482,-74.8772 1487.21,-84.102 1491.82,-78.8389"/>
</g>
<!-- bias&#45;&gt;Move Forward -->
<g id="edge73" class="edge"><title>bias&#45;&gt;Move Forward</title>
<path fill="none" stroke="green" stroke-width="0.522378" d="M2357.06,-162.002C2352.62,-156.862 2346.27,-150.416 2339.44,-146.309 2266.68,-102.574 2170.7,-78.1392 2109.76,-66.0597"/>
<polygon fill="green" stroke="green" stroke-width="0.522378" points="2110.4,-62.6187 2099.91,-64.1559 2109.07,-69.4913 2110.4,-62.6187"/>
</g>
<!-- bias&#45;&gt;Move Left -->
<g id="edge11" class="edge"><title>bias&#45;&gt;Move Left</title>
<path fill="none" stroke="green" stroke-width="0.203979" d="M2357.76,-161.862C2353.44,-156.374 2346.96,-149.578 2339.44,-146.309 2246.42,-105.904 1527.03,-129.443 1427.44,-110.309 1389.48,-103.017 1348.28,-87.9935 1318.21,-75.6165"/>
<polygon fill="green" stroke="green" stroke-width="0.203979" points="1319.43,-72.3331 1308.85,-71.7041 1316.72,-78.7912 1319.43,-72.3331"/>
</g>
<!-- bias&#45;&gt;Move right -->
<g id="edge43" class="edge"><title>bias&#45;&gt;Move right</title>
<path fill="none" stroke="green" stroke-width="0.369666" d="M2357.69,-162.008C2353.34,-156.59 2346.86,-149.816 2339.44,-146.309 2269.15,-113.08 2068.64,-119.449 1991.44,-110.309 1862.62,-95.0576 1711.23,-74.0439 1634.85,-63.2242"/>
<polygon fill="green" stroke="green" stroke-width="0.369666" points="1634.97,-59.7066 1624.58,-61.7668 1633.99,-66.6372 1634.97,-59.7066"/>
</g>
<!-- 1840&#45;&gt;Move Forward -->
<g id="edge81" class="edge"><title>1840&#45;&gt;Move Forward</title>
<path fill="none" stroke="red" stroke-width="1.2739" d="M2440.42,-156.247C2434.51,-152.619 2427.88,-148.978 2421.44,-146.309 2316.3,-102.764 2185.33,-77.0786 2110.46,-64.8818"/>
<polygon fill="red" stroke="red" stroke-width="1.2739" points="2110.7,-61.3762 2100.27,-63.2498 2109.59,-68.288 2110.7,-61.3762"/>
</g>
</g>
</svg>
