<?xml version="1.0" encoding="UTF-8" standalone="no"?>
<!DOCTYPE svg PUBLIC "-//W3C//DTD SVG 1.1//EN"
 "http://www.w3.org/Graphics/SVG/1.1/DTD/svg11.dtd">
<!-- Generated by graphviz version 2.38.0 (20140413.2041)
 -->
<!-- Title: %3 Pages: 1 -->
<svg width="2557pt" height="216pt"
 viewBox="0.00 0.00 2557.00 216.15" xmlns="http://www.w3.org/2000/svg" xmlns:xlink="http://www.w3.org/1999/xlink">
<g id="graph0" class="graph" transform="scale(1 1) rotate(0) translate(4 212.149)">
<title>%3</title>
<polygon fill="white" stroke="none" points="-4,4 -4,-212.149 2553,-212.149 2553,4 -4,4"/>
<!-- wallRadar[1,0] -->
<g id="node1" class="node"><title>wallRadar[1,0]</title>
<polygon fill="lightgray" stroke="black" points="1210,-208.149 1140,-208.149 1140,-190.149 1210,-190.149 1210,-208.149"/>
<text text-anchor="middle" x="1175" y="-196.949" font-family="Times,serif" font-size="9.00">wallRadar[1,0]</text>
</g>
<!-- Shoot -->
<g id="node24" class="node"><title>Shoot</title>
<ellipse fill="lightblue" stroke="black" cx="670" cy="-77.0746" rx="26.7407" ry="26.7407"/>
<text text-anchor="middle" x="670" y="-74.8746" font-family="Times,serif" font-size="9.00">Shoot</text>
</g>
<!-- wallRadar[1,0]&#45;&gt;Shoot -->
<g id="edge28" class="edge"><title>wallRadar[1,0]&#45;&gt;Shoot</title>
<path fill="none" stroke="green" stroke-width="0.529002" d="M1139.96,-191.607C1136.94,-191.093 1133.92,-190.6 1131,-190.149 1006.13,-170.841 970.959,-187.171 849,-154.149 795.97,-139.791 738.043,-112.954 702.864,-95.3009"/>
<polygon fill="green" stroke="green" stroke-width="0.529002" points="704.07,-91.9878 693.568,-90.5833 700.902,-98.2299 704.07,-91.9878"/>
</g>
<!-- Move Forward/Backward -->
<g id="node25" class="node"><title>Move Forward/Backward</title>
<ellipse fill="lightblue" stroke="black" cx="935" cy="-77.0746" rx="77.1494" ry="77.1494"/>
<text text-anchor="middle" x="935" y="-74.8746" font-family="Times,serif" font-size="9.00">Move Forward/Backward</text>
</g>
<!-- wallRadar[1,0]&#45;&gt;Move Forward/Backward -->
<g id="edge16" class="edge"><title>wallRadar[1,0]&#45;&gt;Move Forward/Backward</title>
<path fill="none" stroke="red" stroke-width="0.179567" d="M1158.88,-190.084C1129.43,-175.352 1065.17,-143.202 1013.02,-117.108"/>
<polygon fill="red" stroke="red" stroke-width="0.179567" points="1014.27,-113.823 1003.77,-112.479 1011.14,-120.083 1014.27,-113.823"/>
</g>
<!--  Move Left/Right -->
<g id="node26" class="node"><title> Move Left/Right</title>
<ellipse fill="lightblue" stroke="black" cx="1518" cy="-77.0746" rx="55.3091" ry="55.3091"/>
<text text-anchor="middle" x="1518" y="-74.8746" font-family="Times,serif" font-size="9.00"> Move Left/Right</text>
</g>
<!-- wallRadar[1,0]&#45;&gt; Move Left/Right -->
<g id="edge26" class="edge"><title>wallRadar[1,0]&#45;&gt; Move Left/Right</title>
<path fill="none" stroke="green" stroke-width="0.133699" d="M1210.06,-191.752C1213.08,-191.207 1216.1,-190.667 1219,-190.149 1310.5,-173.836 1340.49,-192.837 1425,-154.149 1441.49,-146.601 1457.5,-135.406 1471.47,-123.911"/>
<polygon fill="green" stroke="green" stroke-width="0.133699" points="1474.09,-126.278 1479.44,-117.134 1469.55,-120.945 1474.09,-126.278"/>
</g>
<!-- Turn left/right -->
<g id="node27" class="node"><title>Turn left/right</title>
<ellipse fill="lightblue" stroke="black" cx="1369" cy="-77.0746" rx="46.8387" ry="46.8387"/>
<text text-anchor="middle" x="1369" y="-74.8746" font-family="Times,serif" font-size="9.00">Turn left/right</text>
</g>
<!-- wallRadar[1,0]&#45;&gt;Turn left/right -->
<g id="edge10" class="edge"><title>wallRadar[1,0]&#45;&gt;Turn left/right</title>
<path fill="none" stroke="red" stroke-width="0.444648" d="M1188.03,-190.084C1214.79,-173.521 1277.12,-134.941 1321.13,-107.705"/>
<polygon fill="red" stroke="red" stroke-width="0.444648" points="1323.01,-110.658 1329.67,-102.419 1319.32,-104.706 1323.01,-110.658"/>
</g>
<!-- wallRadar[0,1] -->
<g id="node2" class="node"><title>wallRadar[0,1]</title>
<polygon fill="lightgray" stroke="black" points="412,-208.149 342,-208.149 342,-190.149 412,-190.149 412,-208.149"/>
<text text-anchor="middle" x="377" y="-196.949" font-family="Times,serif" font-size="9.00">wallRadar[0,1]</text>
</g>
<!-- wallRadar[0,1]&#45;&gt;Shoot -->
<g id="edge46" class="edge"><title>wallRadar[0,1]&#45;&gt;Shoot</title>
<path fill="none" stroke="red" stroke-width="0.362087" d="M396.68,-190.084C445.762,-169.97 574.074,-117.386 635.825,-92.0797"/>
<polygon fill="red" stroke="red" stroke-width="0.362087" points="637.217,-95.2922 645.142,-88.2616 634.562,-88.815 637.217,-95.2922"/>
</g>
<!-- wallRadar[0,1]&#45;&gt;Move Forward/Backward -->
<g id="edge7" class="edge"><title>wallRadar[0,1]&#45;&gt;Move Forward/Backward</title>
<path fill="none" stroke="green" stroke-width="0.455737" d="M412.036,-191.602C415.064,-191.09 418.084,-190.598 421,-190.149 547.187,-170.723 581.494,-182.409 706,-154.149 755.946,-142.813 810.413,-124.955 853.693,-109.389"/>
<polygon fill="green" stroke="green" stroke-width="0.455737" points="855.106,-112.599 863.314,-105.9 852.72,-106.019 855.106,-112.599"/>
</g>
<!-- wallRadar[0,1]&#45;&gt;Turn left/right -->
<g id="edge2" class="edge"><title>wallRadar[0,1]&#45;&gt;Turn left/right</title>
<path fill="none" stroke="green" stroke-width="0.137693" d="M412.007,-191.393C415.042,-190.927 418.071,-190.502 421,-190.149 686.229,-158.198 756.378,-190.786 1021,-154.149 1125.74,-139.649 1245.8,-110.584 1313.99,-92.8775"/>
<polygon fill="green" stroke="green" stroke-width="0.137693" points="1315.29,-96.1573 1324.08,-90.2438 1313.52,-89.3845 1315.29,-96.1573"/>
</g>
<!-- wallRadar[&#45;1,0] -->
<g id="node3" class="node"><title>wallRadar[&#45;1,0]</title>
<polygon fill="lightgray" stroke="black" points="2297.5,-208.149 2224.5,-208.149 2224.5,-190.149 2297.5,-190.149 2297.5,-208.149"/>
<text text-anchor="middle" x="2261" y="-196.949" font-family="Times,serif" font-size="9.00">wallRadar[&#45;1,0]</text>
</g>
<!-- wallRadar[&#45;1,0]&#45;&gt; Move Left/Right -->
<g id="edge24" class="edge"><title>wallRadar[&#45;1,0]&#45;&gt; Move Left/Right</title>
<path fill="none" stroke="green" stroke-width="0.420676" d="M2224.17,-191.55C2221.41,-191.071 2218.66,-190.599 2216,-190.149 1982.94,-150.726 1705.51,-107.191 1582.37,-88.0414"/>
<polygon fill="green" stroke="green" stroke-width="0.420676" points="1582.77,-84.5622 1572.35,-86.4849 1581.7,-91.4792 1582.77,-84.5622"/>
</g>
<!-- wallRadar[0,&#45;1] -->
<g id="node4" class="node"><title>wallRadar[0,&#45;1]</title>
<polygon fill="lightgray" stroke="black" points="1485.5,-208.149 1412.5,-208.149 1412.5,-190.149 1485.5,-190.149 1485.5,-208.149"/>
<text text-anchor="middle" x="1449" y="-196.949" font-family="Times,serif" font-size="9.00">wallRadar[0,&#45;1]</text>
</g>
<!-- wallRadar[0,&#45;1]&#45;&gt;Shoot -->
<g id="edge39" class="edge"><title>wallRadar[0,&#45;1]&#45;&gt;Shoot</title>
<path fill="none" stroke="red" stroke-width="0.411975" d="M1412.39,-191.418C1409.22,-190.946 1406.06,-190.514 1403,-190.149 1157.99,-160.969 1089.05,-211.212 849,-154.149 795.4,-141.408 737.412,-114.006 702.402,-95.8063"/>
<polygon fill="red" stroke="red" stroke-width="0.411975" points="703.638,-92.5016 693.16,-90.937 700.376,-98.6947 703.638,-92.5016"/>
</g>
<!-- wallRadar[0,&#45;1]&#45;&gt; Move Left/Right -->
<g id="edge4" class="edge"><title>wallRadar[0,&#45;1]&#45;&gt; Move Left/Right</title>
<path fill="none" stroke="green" stroke-width="0.409668" d="M1453.74,-189.896C1460.46,-178.207 1473.32,-155.832 1485.78,-134.148"/>
<polygon fill="green" stroke="green" stroke-width="0.409668" points="1488.94,-135.67 1490.89,-125.255 1482.87,-132.182 1488.94,-135.67"/>
</g>
<!-- wallRadar[0,&#45;1]&#45;&gt;Turn left/right -->
<g id="edge17" class="edge"><title>wallRadar[0,&#45;1]&#45;&gt;Turn left/right</title>
<path fill="none" stroke="green" stroke-width="0.132186" d="M1443.5,-189.896C1434.6,-176.53 1416.38,-149.191 1400.19,-124.892"/>
<polygon fill="green" stroke="green" stroke-width="0.132186" points="1403.03,-122.833 1394.57,-116.451 1397.2,-126.714 1403.03,-122.833"/>
</g>
<!-- wallRadar[0.7,0.7] -->
<g id="node5" class="node"><title>wallRadar[0.7,0.7]</title>
<polygon fill="lightgray" stroke="black" points="2206.5,-208.149 2123.5,-208.149 2123.5,-190.149 2206.5,-190.149 2206.5,-208.149"/>
<text text-anchor="middle" x="2165" y="-196.949" font-family="Times,serif" font-size="9.00">wallRadar[0.7,0.7]</text>
</g>
<!-- wallRadar[0.7,0.7]&#45;&gt; Move Left/Right -->
<g id="edge1" class="edge"><title>wallRadar[0.7,0.7]&#45;&gt; Move Left/Right</title>
<path fill="none" stroke="green" stroke-width="0.124404" d="M2123.05,-190.363C2012.79,-169.901 1714.29,-114.503 1582.28,-90.0037"/>
<polygon fill="green" stroke="green" stroke-width="0.124404" points="1582.78,-86.5366 1572.31,-88.153 1581.5,-93.4191 1582.78,-86.5366"/>
</g>
<!-- wallRadar[&#45;0.7,0.7] -->
<g id="node6" class="node"><title>wallRadar[&#45;0.7,0.7]</title>
<polygon fill="lightgray" stroke="black" points="190,-208.149 104,-208.149 104,-190.149 190,-190.149 190,-208.149"/>
<text text-anchor="middle" x="147" y="-196.949" font-family="Times,serif" font-size="9.00">wallRadar[&#45;0.7,0.7]</text>
</g>
<!-- wallRadar[&#45;0.7,0.7]&#45;&gt;Shoot -->
<g id="edge31" class="edge"><title>wallRadar[&#45;0.7,0.7]&#45;&gt;Shoot</title>
<path fill="none" stroke="green" stroke-width="0.429561" d="M182.128,-190.084C277.148,-168.269 538.519,-108.261 634.256,-86.2812"/>
<polygon fill="green" stroke="green" stroke-width="0.429561" points="635.082,-89.6826 644.045,-84.0336 633.515,-82.8601 635.082,-89.6826"/>
</g>
<!-- wallRadar[&#45;0.7,&#45;0.7] -->
<g id="node7" class="node"><title>wallRadar[&#45;0.7,&#45;0.7]</title>
<polygon fill="lightgray" stroke="black" points="1592.5,-208.149 1503.5,-208.149 1503.5,-190.149 1592.5,-190.149 1592.5,-208.149"/>
<text text-anchor="middle" x="1548" y="-196.949" font-family="Times,serif" font-size="9.00">wallRadar[&#45;0.7,&#45;0.7]</text>
</g>
<!-- wallRadar[&#45;0.7,&#45;0.7]&#45;&gt;Move Forward/Backward -->
<g id="edge19" class="edge"><title>wallRadar[&#45;0.7,&#45;0.7]&#45;&gt;Move Forward/Backward</title>
<path fill="none" stroke="red" stroke-width="0.431622" d="M1504.22,-190.135C1457,-181.448 1379.62,-167.089 1313,-154.149 1212.53,-134.635 1097.25,-111.296 1020.68,-95.6611"/>
<polygon fill="red" stroke="red" stroke-width="0.431622" points="1021.1,-92.1754 1010.6,-93.6027 1019.7,-99.0337 1021.1,-92.1754"/>
</g>
<!-- wallRadar[&#45;0.7,&#45;0.7]&#45;&gt; Move Left/Right -->
<g id="edge13" class="edge"><title>wallRadar[&#45;0.7,&#45;0.7]&#45;&gt; Move Left/Right</title>
<path fill="none" stroke="green" stroke-width="0.414158" d="M1545.94,-189.896C1543.31,-179.38 1538.52,-160.215 1533.64,-140.685"/>
<polygon fill="green" stroke="green" stroke-width="0.414158" points="1536.99,-139.649 1531.17,-130.796 1530.2,-141.346 1536.99,-139.649"/>
</g>
<!-- wallRadar[&#45;0.7,&#45;0.7]&#45;&gt;Turn left/right -->
<g id="edge40" class="edge"><title>wallRadar[&#45;0.7,&#45;0.7]&#45;&gt;Turn left/right</title>
<path fill="none" stroke="red" stroke-width="0.110496" d="M1526.15,-190.046C1506.47,-182.262 1477.15,-169.447 1454,-154.149 1438.25,-143.74 1422.44,-130.532 1408.8,-118.054"/>
<polygon fill="red" stroke="red" stroke-width="0.110496" points="1411.16,-115.473 1401.46,-111.219 1406.39,-120.595 1411.16,-115.473"/>
</g>
<!-- wallRadar[0.7,&#45;0.7] -->
<g id="node8" class="node"><title>wallRadar[0.7,&#45;0.7]</title>
<polygon fill="lightgray" stroke="black" points="86,-208.149 0,-208.149 0,-190.149 86,-190.149 86,-208.149"/>
<text text-anchor="middle" x="43" y="-196.949" font-family="Times,serif" font-size="9.00">wallRadar[0.7,&#45;0.7]</text>
</g>
<!-- wallRadar[0.7,&#45;0.7]&#45;&gt;Shoot -->
<g id="edge20" class="edge"><title>wallRadar[0.7,&#45;0.7]&#45;&gt;Shoot</title>
<path fill="none" stroke="red" stroke-width="0.499718" stroke-dasharray="1,5" d="M85.1128,-190.084C201.351,-167.824 525.238,-105.798 633.918,-84.9845"/>
<polygon fill="red" stroke="red" stroke-width="0.499718" points="634.587,-88.4202 643.75,-83.1017 633.27,-81.5451 634.587,-88.4202"/>
</g>
<!-- enemyRadar[RightBack] -->
<g id="node9" class="node"><title>enemyRadar[RightBack]</title>
<polygon fill="lightgray" stroke="black" points="1855,-208.149 1751,-208.149 1751,-190.149 1855,-190.149 1855,-208.149"/>
<text text-anchor="middle" x="1803" y="-196.949" font-family="Times,serif" font-size="9.00">enemyRadar[RightBack]</text>
</g>
<!-- enemyRadar[RightBack]&#45;&gt;Turn left/right -->
<g id="edge21" class="edge"><title>enemyRadar[RightBack]&#45;&gt;Turn left/right</title>
<path fill="none" stroke="red" stroke-width="0.424542" stroke-dasharray="1,5" d="M1750.76,-191.277C1747.8,-190.894 1744.86,-190.516 1742,-190.149 1614.05,-173.762 1571.4,-207.595 1454,-154.149 1436.51,-146.188 1420.07,-133.332 1406.39,-120.437"/>
<polygon fill="red" stroke="red" stroke-width="0.424542" points="1408.69,-117.786 1399.09,-113.299 1403.79,-122.792 1408.69,-117.786"/>
</g>
<!-- enemyRadar[LeftBack] -->
<g id="node10" class="node"><title>enemyRadar[LeftBack]</title>
<polygon fill="lightgray" stroke="black" points="2414.5,-208.149 2315.5,-208.149 2315.5,-190.149 2414.5,-190.149 2414.5,-208.149"/>
<text text-anchor="middle" x="2365" y="-196.949" font-family="Times,serif" font-size="9.00">enemyRadar[LeftBack]</text>
</g>
<!-- enemyRadar[Right45ø] -->
<g id="node11" class="node"><title>enemyRadar[Right45ø]</title>
<polygon fill="lightgray" stroke="black" points="984,-208.149 884,-208.149 884,-190.149 984,-190.149 984,-208.149"/>
<text text-anchor="middle" x="934" y="-196.949" font-family="Times,serif" font-size="9.00">enemyRadar[Right45ø]</text>
</g>
<!-- enemyRadar[Right45ø]&#45;&gt;Shoot -->
<g id="edge36" class="edge"><title>enemyRadar[Right45ø]&#45;&gt;Shoot</title>
<path fill="none" stroke="red" stroke-width="0.267648" d="M916.268,-190.084C872.772,-170.301 760.221,-119.11 703.59,-93.3522"/>
<polygon fill="red" stroke="red" stroke-width="0.267648" points="704.898,-90.1025 694.347,-89.1482 702,-96.4744 704.898,-90.1025"/>
</g>
<!-- enemyRadar[Right45ø]&#45;&gt; Move Left/Right -->
<g id="edge11" class="edge"><title>enemyRadar[Right45ø]&#45;&gt; Move Left/Right</title>
<path fill="none" stroke="red" stroke-width="0.182256" d="M984.068,-191.286C987.427,-190.884 990.761,-190.5 994,-190.149 1089.55,-179.795 1335.91,-190.198 1425,-154.149 1442.13,-147.218 1458.54,-135.973 1472.68,-124.23"/>
<polygon fill="red" stroke="red" stroke-width="0.182256" points="1475,-126.855 1480.29,-117.679 1470.43,-121.55 1475,-126.855"/>
</g>
<!-- enemyRadar[Left45ø] -->
<g id="node12" class="node"><title>enemyRadar[Left45ø]</title>
<polygon fill="lightgray" stroke="black" points="2105.5,-208.149 2010.5,-208.149 2010.5,-190.149 2105.5,-190.149 2105.5,-208.149"/>
<text text-anchor="middle" x="2058" y="-196.949" font-family="Times,serif" font-size="9.00">enemyRadar[Left45ø]</text>
</g>
<!-- enemyRadar[Left45ø]&#45;&gt; Move Left/Right -->
<g id="edge3" class="edge"><title>enemyRadar[Left45ø]&#45;&gt; Move Left/Right</title>
<path fill="none" stroke="green" stroke-width="0.52037" d="M2021.73,-190.084C1931.52,-170.025 1696.09,-117.674 1581.92,-92.2885"/>
<polygon fill="green" stroke="green" stroke-width="0.52037" points="1582.45,-88.8194 1571.92,-90.0653 1580.93,-95.6525 1582.45,-88.8194"/>
</g>
<!-- enemyRadar[Left45ø]&#45;&gt;Turn left/right -->
<g id="edge37" class="edge"><title>enemyRadar[Left45ø]&#45;&gt;Turn left/right</title>
<path fill="none" stroke="red" stroke-width="0.196349" d="M2010.37,-191.093C2007.54,-190.752 2004.74,-190.434 2002,-190.149 1880.62,-177.511 1566.51,-201.429 1454,-154.149 1436.13,-146.64 1419.5,-133.753 1405.77,-120.697"/>
<polygon fill="red" stroke="red" stroke-width="0.196349" points="1408.03,-118.004 1398.46,-113.46 1403.11,-122.981 1408.03,-118.004"/>
</g>
<!-- enemyRadar[RightFront20ø] -->
<g id="node13" class="node"><title>enemyRadar[RightFront20ø]</title>
<polygon fill="lightgray" stroke="black" points="1992.5,-208.149 1873.5,-208.149 1873.5,-190.149 1992.5,-190.149 1992.5,-208.149"/>
<text text-anchor="middle" x="1933" y="-196.949" font-family="Times,serif" font-size="9.00">enemyRadar[RightFront20ø]</text>
</g>
<!-- enemyRadar[RightFront20ø]&#45;&gt;Turn left/right -->
<g id="edge9" class="edge"><title>enemyRadar[RightFront20ø]&#45;&gt;Turn left/right</title>
<path fill="none" stroke="green" stroke-width="0.269918" stroke-dasharray="1,5" d="M1873.17,-191.109C1870.07,-190.777 1867,-190.455 1864,-190.149 1773.01,-180.882 1537.92,-190.507 1454,-154.149 1436.21,-146.444 1419.6,-133.511 1405.87,-120.473"/>
<polygon fill="green" stroke="green" stroke-width="0.269918" points="1408.12,-117.781 1398.55,-113.252 1403.21,-122.765 1408.12,-117.781"/>
</g>
<!-- enemyRadar[LeftFront20ø] -->
<g id="node14" class="node"><title>enemyRadar[LeftFront20ø]</title>
<polygon fill="lightgray" stroke="black" points="544,-208.149 430,-208.149 430,-190.149 544,-190.149 544,-208.149"/>
<text text-anchor="middle" x="487" y="-196.949" font-family="Times,serif" font-size="9.00">enemyRadar[LeftFront20ø]</text>
</g>
<!-- enemyRadar[LeftFront20ø]&#45;&gt;Shoot -->
<g id="edge6" class="edge"><title>enemyRadar[LeftFront20ø]&#45;&gt;Shoot</title>
<path fill="none" stroke="red" stroke-width="0.493752" d="M499.291,-190.084C527.662,-171.469 598.416,-125.044 639.376,-98.1682"/>
<polygon fill="red" stroke="red" stroke-width="0.493752" points="641.442,-100.999 647.883,-92.5865 637.602,-95.1461 641.442,-100.999"/>
</g>
<!-- enemyRadar[LeftFront20ø]&#45;&gt;Move Forward/Backward -->
<g id="edge23" class="edge"><title>enemyRadar[LeftFront20ø]&#45;&gt;Move Forward/Backward</title>
<path fill="none" stroke="green" stroke-width="0.266458" d="M535.671,-190.134C580.313,-182.367 648.09,-169.524 706,-154.149 755.501,-141.007 809.949,-123.068 853.329,-107.91"/>
<polygon fill="green" stroke="green" stroke-width="0.266458" points="854.7,-111.138 862.975,-104.522 852.38,-104.534 854.7,-111.138"/>
</g>
<!-- enemyRadar[LeftFront20ø]&#45;&gt;Turn left/right -->
<g id="edge44" class="edge"><title>enemyRadar[LeftFront20ø]&#45;&gt;Turn left/right</title>
<path fill="none" stroke="red" stroke-width="0.120925" stroke-dasharray="1,5" d="M544.221,-191.058C547.188,-190.739 550.128,-190.434 553,-190.149 760.599,-169.593 814.605,-184.498 1021,-154.149 1125.61,-138.767 1245.71,-109.999 1313.95,-92.5857"/>
<polygon fill="red" stroke="red" stroke-width="0.120925" points="1315.23,-95.8724 1324.04,-89.9972 1313.49,-89.092 1315.23,-95.8724"/>
</g>
<!-- enemyRadar[RightFront15ø] -->
<g id="node15" class="node"><title>enemyRadar[RightFront15ø]</title>
<polygon fill="lightgray" stroke="black" points="1121.5,-208.149 1002.5,-208.149 1002.5,-190.149 1121.5,-190.149 1121.5,-208.149"/>
<text text-anchor="middle" x="1062" y="-196.949" font-family="Times,serif" font-size="9.00">enemyRadar[RightFront15ø]</text>
</g>
<!-- enemyRadar[RightFront15ø]&#45;&gt;Move Forward/Backward -->
<g id="edge5" class="edge"><title>enemyRadar[RightFront15ø]&#45;&gt;Move Forward/Backward</title>
<path fill="none" stroke="red" stroke-width="0.269169" d="M1053.27,-189.896C1041.59,-178.852 1019.82,-158.268 998.107,-137.741"/>
<polygon fill="red" stroke="red" stroke-width="0.269169" points="1000.43,-135.123 990.762,-130.796 995.624,-140.209 1000.43,-135.123"/>
</g>
<!-- enemyRadar[LeftFront15ø] -->
<g id="node16" class="node"><title>enemyRadar[LeftFront15ø]</title>
<polygon fill="lightgray" stroke="black" points="866,-208.149 752,-208.149 752,-190.149 866,-190.149 866,-208.149"/>
<text text-anchor="middle" x="809" y="-196.949" font-family="Times,serif" font-size="9.00">enemyRadar[LeftFront15ø]</text>
</g>
<!-- enemyRadar[LeftFront15ø]&#45;&gt;Shoot -->
<g id="edge45" class="edge"><title>enemyRadar[LeftFront15ø]&#45;&gt;Shoot</title>
<path fill="none" stroke="green" stroke-width="0.225141" d="M799.446,-189.896C778.782,-172.046 729.267,-129.272 697.815,-102.103"/>
<polygon fill="green" stroke="green" stroke-width="0.225141" points="699.705,-99.1101 689.85,-95.2216 695.129,-104.407 699.705,-99.1101"/>
</g>
<!-- enemyRadar[LeftFront15ø]&#45;&gt;Move Forward/Backward -->
<g id="edge22" class="edge"><title>enemyRadar[LeftFront15ø]&#45;&gt;Move Forward/Backward</title>
<path fill="none" stroke="red" stroke-width="0.183857" d="M817.66,-189.896C829.25,-178.852 850.85,-158.268 872.389,-137.741"/>
<polygon fill="red" stroke="red" stroke-width="0.183857" points="874.853,-140.228 879.677,-130.796 870.023,-135.161 874.853,-140.228"/>
</g>
<!-- enemyRadar[LeftFront15ø]&#45;&gt; Move Left/Right -->
<g id="edge35" class="edge"><title>enemyRadar[LeftFront15ø]&#45;&gt; Move Left/Right</title>
<path fill="none" stroke="red" stroke-width="0.490812" stroke-dasharray="1,5" d="M866.217,-191.018C869.186,-190.709 872.127,-190.417 875,-190.149 996.955,-178.776 1311.05,-199.068 1425,-154.149 1442.19,-147.372 1458.62,-136.174 1472.76,-124.428"/>
<polygon fill="red" stroke="red" stroke-width="0.490812" points="1475.08,-127.05 1480.37,-117.87 1470.51,-121.748 1475.08,-127.05"/>
</g>
<!-- enemyRadar[RightFront7.5ø] -->
<g id="node17" class="node"><title>enemyRadar[RightFront7.5ø]</title>
<polygon fill="lightgray" stroke="black" points="1733,-208.149 1611,-208.149 1611,-190.149 1733,-190.149 1733,-208.149"/>
<text text-anchor="middle" x="1672" y="-196.949" font-family="Times,serif" font-size="9.00">enemyRadar[RightFront7.5ø]</text>
</g>
<!-- enemyRadar[RightFront7.5ø]&#45;&gt;Move Forward/Backward -->
<g id="edge41" class="edge"><title>enemyRadar[RightFront7.5ø]&#45;&gt;Move Forward/Backward</title>
<path fill="none" stroke="red" stroke-width="0.192444" d="M1610.71,-190.897C1515.91,-179.642 1341.63,-158.778 1313,-154.149 1211.81,-137.79 1096.43,-113.784 1020.04,-97.1311"/>
<polygon fill="red" stroke="red" stroke-width="0.192444" points="1020.51,-93.6509 1010,-94.9339 1019.02,-100.489 1020.51,-93.6509"/>
</g>
<!-- enemyRadar[RightFront7.5ø]&#45;&gt; Move Left/Right -->
<g id="edge34" class="edge"><title>enemyRadar[RightFront7.5ø]&#45;&gt; Move Left/Right</title>
<path fill="none" stroke="red" stroke-width="0.174283" d="M1661.41,-189.896C1642.68,-175.291 1602.55,-144.002 1569.5,-118.226"/>
<polygon fill="red" stroke="red" stroke-width="0.174283" points="1571.3,-115.194 1561.26,-111.805 1566.99,-120.714 1571.3,-115.194"/>
</g>
<!-- enemyRadar[RightFront7.5ø]&#45;&gt;Turn left/right -->
<g id="edge30" class="edge"><title>enemyRadar[RightFront7.5ø]&#45;&gt;Turn left/right</title>
<path fill="none" stroke="green" stroke-width="0.203891" d="M1615.19,-190.144C1560.36,-181.803 1481.7,-168.033 1454,-154.149 1436.82,-145.539 1420.45,-132.527 1406.75,-119.687"/>
<polygon fill="green" stroke="green" stroke-width="0.203891" points="1409.04,-117.036 1399.42,-112.6 1404.18,-122.068 1409.04,-117.036"/>
</g>
<!-- enemyRadar[LeftFront7.5ø] -->
<g id="node18" class="node"><title>enemyRadar[LeftFront7.5ø]</title>
<polygon fill="lightgray" stroke="black" points="324,-208.149 208,-208.149 208,-190.149 324,-190.149 324,-208.149"/>
<text text-anchor="middle" x="266" y="-196.949" font-family="Times,serif" font-size="9.00">enemyRadar[LeftFront7.5ø]</text>
</g>
<!-- enemyRadar[LeftFront7.5ø]&#45;&gt;Shoot -->
<g id="edge32" class="edge"><title>enemyRadar[LeftFront7.5ø]&#45;&gt;Shoot</title>
<path fill="none" stroke="red" stroke-width="0.215683" d="M293.135,-190.084C363.994,-169.024 554.608,-112.371 634.257,-88.6979"/>
<polygon fill="red" stroke="red" stroke-width="0.215683" points="635.705,-91.919 644.294,-85.715 633.711,-85.2091 635.705,-91.919"/>
</g>
<!-- enemyRadar[LeftFront7.5ø]&#45;&gt;Move Forward/Backward -->
<g id="edge47" class="edge"><title>enemyRadar[LeftFront7.5ø]&#45;&gt;Move Forward/Backward</title>
<path fill="none" stroke="green" stroke-width="0.418206" d="M324.096,-191.131C327.106,-190.793 330.088,-190.464 333,-190.149 498.586,-172.275 543.058,-188.619 706,-154.149 756.203,-143.529 810.789,-125.656 854.072,-109.902"/>
<polygon fill="green" stroke="green" stroke-width="0.418206" points="855.512,-113.102 863.692,-106.368 853.098,-106.531 855.512,-113.102"/>
</g>
<!-- enemyRadar[RightFront2.5ø] -->
<g id="node19" class="node"><title>enemyRadar[RightFront2.5ø]</title>
<polygon fill="lightgray" stroke="black" points="684,-208.149 562,-208.149 562,-190.149 684,-190.149 684,-208.149"/>
<text text-anchor="middle" x="623" y="-196.949" font-family="Times,serif" font-size="9.00">enemyRadar[RightFront2.5ø]</text>
</g>
<!-- enemyRadar[RightFront2.5ø]&#45;&gt;Shoot -->
<g id="edge38" class="edge"><title>enemyRadar[RightFront2.5ø]&#45;&gt;Shoot</title>
<path fill="none" stroke="green" stroke-width="0.350462" d="M626.231,-189.896C632.437,-174.04 646.34,-138.52 656.823,-111.738"/>
<polygon fill="green" stroke="green" stroke-width="0.350462" points="660.124,-112.907 660.51,-102.319 653.606,-110.356 660.124,-112.907"/>
</g>
<!-- enemyRadar[RightFront2.5ø]&#45;&gt;Move Forward/Backward -->
<g id="edge12" class="edge"><title>enemyRadar[RightFront2.5ø]&#45;&gt;Move Forward/Backward</title>
<path fill="none" stroke="red" stroke-width="0.343258" d="M643.956,-190.084C686.105,-173.863 783.12,-136.526 853.585,-109.408"/>
<polygon fill="red" stroke="red" stroke-width="0.343258" points="855.267,-112.51 863.343,-105.652 852.753,-105.978 855.267,-112.51"/>
</g>
<!-- enemyRadar[RightFront2.5ø]&#45;&gt;Turn left/right -->
<g id="edge18" class="edge"><title>enemyRadar[RightFront2.5ø]&#45;&gt;Turn left/right</title>
<path fill="none" stroke="green" stroke-width="0.706902" d="M684.19,-191.245C687.508,-190.873 690.795,-190.506 694,-190.149 839.313,-173.964 876.713,-177.795 1021,-154.149 1125.34,-137.05 1245.54,-108.858 1313.86,-92.0173"/>
<polygon fill="green" stroke="green" stroke-width="0.706902" points="1315.1,-95.3167 1323.97,-89.5166 1313.42,-88.5217 1315.1,-95.3167"/>
</g>
<!-- enemyRadar[LeftFront2.5ø] -->
<g id="node20" class="node"><title>enemyRadar[LeftFront2.5ø]</title>
<polygon fill="lightgray" stroke="black" points="2549,-208.149 2433,-208.149 2433,-190.149 2549,-190.149 2549,-208.149"/>
<text text-anchor="middle" x="2491" y="-196.949" font-family="Times,serif" font-size="9.00">enemyRadar[LeftFront2.5ø]</text>
</g>
<!-- enemyRadar[Front7Ø] -->
<g id="node21" class="node"><title>enemyRadar[Front7Ø]</title>
<polygon fill="lightgray" stroke="black" points="1326,-208.149 1228,-208.149 1228,-190.149 1326,-190.149 1326,-208.149"/>
<text text-anchor="middle" x="1277" y="-196.949" font-family="Times,serif" font-size="9.00">enemyRadar[Front7Ø]</text>
</g>
<!-- enemyRadar[Front7Ø]&#45;&gt;Shoot -->
<g id="edge29" class="edge"><title>enemyRadar[Front7Ø]&#45;&gt;Shoot</title>
<path fill="none" stroke="red" stroke-width="0.537545" d="M1227.97,-191.246C1224.94,-190.862 1221.93,-190.493 1219,-190.149 1054.91,-170.858 1009.11,-194.934 849,-154.149 795.611,-140.549 737.565,-113.383 702.486,-95.4676"/>
<polygon fill="red" stroke="red" stroke-width="0.537545" points="703.714,-92.1624 693.223,-90.6788 700.499,-98.3805 703.714,-92.1624"/>
</g>
<!-- enemyRadar[Front7Ø]&#45;&gt;Move Forward/Backward -->
<g id="edge25" class="edge"><title>enemyRadar[Front7Ø]&#45;&gt;Move Forward/Backward</title>
<path fill="none" stroke="red" stroke-width="0.541954" d="M1254.03,-190.084C1206.42,-173.368 1094.94,-134.228 1017.26,-106.955"/>
<polygon fill="red" stroke="red" stroke-width="0.541954" points="1018.08,-103.533 1007.48,-103.523 1015.76,-110.138 1018.08,-103.533"/>
</g>
<!-- enemyRadar[Front7Ø]&#45;&gt; Move Left/Right -->
<g id="edge15" class="edge"><title>enemyRadar[Front7Ø]&#45;&gt; Move Left/Right</title>
<path fill="none" stroke="green" stroke-width="0.129971" d="M1319.87,-190.131C1350.39,-183.316 1391.72,-171.784 1425,-154.149 1441.02,-145.658 1456.89,-134.16 1470.86,-122.678"/>
<polygon fill="green" stroke="green" stroke-width="0.129971" points="1473.46,-125.063 1478.85,-115.941 1468.95,-119.71 1473.46,-125.063"/>
</g>
<!-- enemyRadar[Front7Ø]&#45;&gt;Turn left/right -->
<g id="edge8" class="edge"><title>enemyRadar[Front7Ø]&#45;&gt;Turn left/right</title>
<path fill="none" stroke="green" stroke-width="0.514661" d="M1283.32,-189.896C1293.86,-176.139 1315.75,-147.577 1334.76,-122.764"/>
<polygon fill="green" stroke="green" stroke-width="0.514661" points="1337.77,-124.586 1341.08,-114.52 1332.22,-120.329 1337.77,-124.586"/>
</g>
<!-- OnTarget -->
<g id="node22" class="node"><title>OnTarget</title>
<polygon fill="lightgray" stroke="black" points="1394,-208.149 1344,-208.149 1344,-190.149 1394,-190.149 1394,-208.149"/>
<text text-anchor="middle" x="1369" y="-196.949" font-family="Times,serif" font-size="9.00">OnTarget</text>
</g>
<!-- OnTarget&#45;&gt;Move Forward/Backward -->
<g id="edge33" class="edge"><title>OnTarget&#45;&gt;Move Forward/Backward</title>
<path fill="none" stroke="green" stroke-width="0.331543" d="M1343.79,-191.175C1281.72,-174.003 1119.29,-129.062 1018.86,-101.277"/>
<polygon fill="green" stroke="green" stroke-width="0.331543" points="1019.62,-97.8537 1009.04,-98.5603 1017.75,-104.6 1019.62,-97.8537"/>
</g>
<!-- OnTarget&#45;&gt;Turn left/right -->
<g id="edge14" class="edge"><title>OnTarget&#45;&gt;Turn left/right</title>
<path fill="none" stroke="green" stroke-width="0.74655" d="M1369,-189.896C1369,-178.186 1369,-155.752 1369,-134.032"/>
<polygon fill="green" stroke="green" stroke-width="0.74655" points="1372.5,-133.812 1369,-123.812 1365.5,-133.812 1372.5,-133.812"/>
</g>
<!-- bias -->
<g id="node23" class="node"><title>bias</title>
<polygon fill="lightgray" stroke="black" points="733.5,-208.149 702.5,-208.149 702.5,-190.149 733.5,-190.149 733.5,-208.149"/>
<text text-anchor="middle" x="718" y="-196.949" font-family="Times,serif" font-size="9.00">bias</text>
</g>
<!-- bias&#45;&gt;Shoot -->
<g id="edge43" class="edge"><title>bias&#45;&gt;Shoot</title>
<path fill="none" stroke="green" stroke-width="0.159918" d="M714.701,-189.896C708.362,-174.04 694.163,-138.52 683.457,-111.738"/>
<polygon fill="green" stroke="green" stroke-width="0.159918" points="686.654,-110.306 679.692,-102.319 680.154,-112.904 686.654,-110.306"/>
</g>
<!-- bias&#45;&gt;Move Forward/Backward -->
<g id="edge27" class="edge"><title>bias&#45;&gt;Move Forward/Backward</title>
<path fill="none" stroke="red" stroke-width="1.12788" d="M732.575,-190.084C758.197,-175.907 812.969,-145.599 859.084,-120.082"/>
<polygon fill="red" stroke="red" stroke-width="1.12788" points="860.827,-123.117 867.883,-115.213 857.438,-116.993 860.827,-123.117"/>
</g>
<!-- bias&#45;&gt;Turn left/right -->
<g id="edge42" class="edge"><title>bias&#45;&gt;Turn left/right</title>
<path fill="none" stroke="green" stroke-width="0.141907" stroke-dasharray="1,5" d="M733.752,-192.633C736.794,-191.704 739.975,-190.823 743,-190.149 864.605,-163.053 898.251,-175.473 1021,-154.149 1125.18,-136.052 1245.42,-108.195 1313.81,-91.6873"/>
<polygon fill="green" stroke="green" stroke-width="0.141907" points="1315.03,-94.9937 1323.92,-89.2376 1313.38,-88.1904 1315.03,-94.9937"/>
</g>
</g>
</svg>
