<?xml version="1.0" encoding="UTF-8" standalone="no"?>
<!DOCTYPE svg PUBLIC "-//W3C//DTD SVG 1.1//EN"
 "http://www.w3.org/Graphics/SVG/1.1/DTD/svg11.dtd">
<!-- Generated by graphviz version 2.38.0 (20140413.2041)
 -->
<!-- Title: %3 Pages: 1 -->
<svg width="2177pt" height="525pt"
 viewBox="0.00 0.00 2177.08 525.35" xmlns="http://www.w3.org/2000/svg" xmlns:xlink="http://www.w3.org/1999/xlink">
<g id="graph0" class="graph" transform="scale(1 1) rotate(0) translate(4 521.352)">
<title>%3</title>
<polygon fill="white" stroke="none" points="-4,4 -4,-521.352 2173.08,-521.352 2173.08,4 -4,4"/>
<!-- wallRadar[1,0] -->
<g id="node1" class="node"><title>wallRadar[1,0]</title>
<polygon fill="lightgray" stroke="black" points="1134.5,-266.969 1064.5,-266.969 1064.5,-248.969 1134.5,-248.969 1134.5,-266.969"/>
<text text-anchor="middle" x="1099.5" y="-255.769" font-family="Times,serif" font-size="9.00">wallRadar[1,0]</text>
</g>
<!-- 24706 -->
<g id="node29" class="node"><title>24706</title>
<ellipse fill="white" stroke="black" cx="1095.5" cy="-117.317" rx="27.6545" ry="27.6545"/>
<text text-anchor="middle" x="1095.5" y="-115.117" font-family="Times,serif" font-size="9.00">24706</text>
</g>
<!-- wallRadar[1,0]&#45;&gt;24706 -->
<g id="edge20" class="edge"><title>wallRadar[1,0]&#45;&gt;24706</title>
<path fill="none" stroke="green" stroke-width="0.662594" d="M1099.26,-248.711C1098.74,-230.745 1097.49,-187.169 1096.57,-155.32"/>
<polygon fill="green" stroke="green" stroke-width="0.662594" points="1100.06,-154.917 1096.27,-145.023 1093.06,-155.119 1100.06,-154.917"/>
</g>
<!-- wallRadar[0,1] -->
<g id="node2" class="node"><title>wallRadar[0,1]</title>
<polygon fill="lightgray" stroke="black" points="434.5,-266.969 364.5,-266.969 364.5,-248.969 434.5,-248.969 434.5,-266.969"/>
<text text-anchor="middle" x="399.5" y="-255.769" font-family="Times,serif" font-size="9.00">wallRadar[0,1]</text>
</g>
<!-- Shoot -->
<g id="node24" class="node"><title>Shoot</title>
<ellipse fill="lightblue" stroke="black" cx="651.5" cy="-26.8701" rx="26.7407" ry="26.7407"/>
<text text-anchor="middle" x="651.5" y="-24.6701" font-family="Times,serif" font-size="9.00">Shoot</text>
</g>
<!-- wallRadar[0,1]&#45;&gt;Shoot -->
<g id="edge16" class="edge"><title>wallRadar[0,1]&#45;&gt;Shoot</title>
<path fill="none" stroke="green" stroke-width="0.967319" d="M401.014,-248.667C406.352,-221.733 426.781,-135.865 477.5,-89.7401 516.092,-54.6433 575.914,-39.1672 614.391,-32.5484"/>
<polygon fill="green" stroke="green" stroke-width="0.967319" points="615.321,-35.9441 624.642,-30.9075 614.215,-29.0321 615.321,-35.9441"/>
</g>
<!-- 24480 -->
<g id="node28" class="node"><title>24480</title>
<ellipse fill="white" stroke="black" cx="256.5" cy="-117.317" rx="27.6545" ry="27.6545"/>
<text text-anchor="middle" x="256.5" y="-115.117" font-family="Times,serif" font-size="9.00">24480</text>
</g>
<!-- wallRadar[0,1]&#45;&gt;24480 -->
<g id="edge24" class="edge"><title>wallRadar[0,1]&#45;&gt;24480</title>
<path fill="none" stroke="green" stroke-width="0.243198" d="M396.241,-248.574C390.097,-233.575 375.591,-201.792 355.5,-180.894 336.802,-161.447 310.893,-145.349 290.27,-134.352"/>
<polygon fill="green" stroke="green" stroke-width="0.243198" points="291.701,-131.152 281.211,-129.665 288.484,-137.369 291.701,-131.152"/>
</g>
<!-- 26510 -->
<g id="node32" class="node"><title>26510</title>
<ellipse fill="white" stroke="black" cx="397.5" cy="-117.317" rx="27.6545" ry="27.6545"/>
<text text-anchor="middle" x="397.5" y="-115.117" font-family="Times,serif" font-size="9.00">26510</text>
</g>
<!-- wallRadar[0,1]&#45;&gt;26510 -->
<g id="edge30" class="edge"><title>wallRadar[0,1]&#45;&gt;26510</title>
<path fill="none" stroke="green" stroke-width="0.285964" d="M399.381,-248.711C399.122,-230.745 398.493,-187.169 398.034,-155.32"/>
<polygon fill="green" stroke="green" stroke-width="0.285964" points="401.529,-154.971 397.885,-145.023 394.53,-155.072 401.529,-154.971"/>
</g>
<!-- wallRadar[&#45;1,0] -->
<g id="node3" class="node"><title>wallRadar[&#45;1,0]</title>
<polygon fill="lightgray" stroke="black" points="871,-498.775 798,-498.775 798,-480.775 871,-480.775 871,-498.775"/>
<text text-anchor="middle" x="834.5" y="-487.575" font-family="Times,serif" font-size="9.00">wallRadar[&#45;1,0]</text>
</g>
<!-- wallRadar[0,&#45;1] -->
<g id="node4" class="node"><title>wallRadar[0,&#45;1]</title>
<polygon fill="lightgray" stroke="black" points="691,-407.621 618,-407.621 618,-389.621 691,-389.621 691,-407.621"/>
<text text-anchor="middle" x="654.5" y="-396.421" font-family="Times,serif" font-size="9.00">wallRadar[0,&#45;1]</text>
</g>
<!-- Move Forward/Backward -->
<g id="node25" class="node"><title>Move Forward/Backward</title>
<ellipse fill="lightblue" stroke="black" cx="670.5" cy="-257.969" rx="77.1494" ry="77.1494"/>
<text text-anchor="middle" x="670.5" y="-255.769" font-family="Times,serif" font-size="9.00">Move Forward/Backward</text>
</g>
<!-- wallRadar[0,&#45;1]&#45;&gt;Move Forward/Backward -->
<g id="edge13" class="edge"><title>wallRadar[0,&#45;1]&#45;&gt;Move Forward/Backward</title>
<path fill="none" stroke="green" stroke-width="0.748926" stroke-dasharray="1,5" d="M655.453,-389.363C656.554,-379.825 658.487,-363.07 660.609,-344.683"/>
<polygon fill="green" stroke="green" stroke-width="0.748926" points="664.098,-344.979 661.767,-334.644 657.144,-344.176 664.098,-344.979"/>
</g>
<!-- 19256 -->
<g id="node35" class="node"><title>19256</title>
<ellipse fill="white" stroke="black" cx="812.5" cy="-117.317" rx="27.6545" ry="27.6545"/>
<text text-anchor="middle" x="812.5" y="-115.117" font-family="Times,serif" font-size="9.00">19256</text>
</g>
<!-- wallRadar[0,&#45;1]&#45;&gt;19256 -->
<g id="edge15" class="edge"><title>wallRadar[0,&#45;1]&#45;&gt;19256</title>
<path fill="none" stroke="red" stroke-width="0.911165" d="M668.188,-389.597C695.302,-373.652 753.497,-339.153 756.5,-335.044 798.134,-278.074 776.299,-249.068 794.5,-180.894 796.852,-172.086 799.508,-162.617 802.044,-153.778"/>
<polygon fill="red" stroke="red" stroke-width="0.911165" points="805.417,-154.713 804.833,-144.134 798.692,-152.768 805.417,-154.713"/>
</g>
<!-- wallRadar[0.7,0.7] -->
<g id="node5" class="node"><title>wallRadar[0.7,0.7]</title>
<polygon fill="lightgray" stroke="black" points="972,-498.775 889,-498.775 889,-480.775 972,-480.775 972,-498.775"/>
<text text-anchor="middle" x="930.5" y="-487.575" font-family="Times,serif" font-size="9.00">wallRadar[0.7,0.7]</text>
</g>
<!-- wallRadar[&#45;0.7,0.7] -->
<g id="node6" class="node"><title>wallRadar[&#45;0.7,0.7]</title>
<polygon fill="lightgray" stroke="black" points="1076.5,-498.775 990.5,-498.775 990.5,-480.775 1076.5,-480.775 1076.5,-498.775"/>
<text text-anchor="middle" x="1033.5" y="-487.575" font-family="Times,serif" font-size="9.00">wallRadar[&#45;0.7,0.7]</text>
</g>
<!-- wallRadar[&#45;0.7,&#45;0.7] -->
<g id="node7" class="node"><title>wallRadar[&#45;0.7,&#45;0.7]</title>
<polygon fill="lightgray" stroke="black" points="1184,-498.775 1095,-498.775 1095,-480.775 1184,-480.775 1184,-498.775"/>
<text text-anchor="middle" x="1139.5" y="-487.575" font-family="Times,serif" font-size="9.00">wallRadar[&#45;0.7,&#45;0.7]</text>
</g>
<!-- wallRadar[0.7,&#45;0.7] -->
<g id="node8" class="node"><title>wallRadar[0.7,&#45;0.7]</title>
<polygon fill="lightgray" stroke="black" points="223.5,-407.621 137.5,-407.621 137.5,-389.621 223.5,-389.621 223.5,-407.621"/>
<text text-anchor="middle" x="180.5" y="-396.421" font-family="Times,serif" font-size="9.00">wallRadar[0.7,&#45;0.7]</text>
</g>
<!--  Move Left/Right -->
<g id="node26" class="node"><title> Move Left/Right</title>
<ellipse fill="lightblue" stroke="black" cx="291.5" cy="-257.969" rx="55.3091" ry="55.3091"/>
<text text-anchor="middle" x="291.5" y="-255.769" font-family="Times,serif" font-size="9.00"> Move Left/Right</text>
</g>
<!-- wallRadar[0.7,&#45;0.7]&#45;&gt; Move Left/Right -->
<g id="edge17" class="edge"><title>wallRadar[0.7,&#45;0.7]&#45;&gt; Move Left/Right</title>
<path fill="none" stroke="green" stroke-width="1.13475" d="M187.111,-389.363C199.536,-373.843 227.261,-339.211 251.017,-309.537"/>
<polygon fill="green" stroke="green" stroke-width="1.13475" points="253.759,-311.712 257.276,-301.718 248.294,-307.337 253.759,-311.712"/>
</g>
<!-- enemyRadar[RightBack] -->
<g id="node9" class="node"><title>enemyRadar[RightBack]</title>
<polygon fill="lightgray" stroke="black" points="345.5,-407.621 241.5,-407.621 241.5,-389.621 345.5,-389.621 345.5,-407.621"/>
<text text-anchor="middle" x="293.5" y="-396.421" font-family="Times,serif" font-size="9.00">enemyRadar[RightBack]</text>
</g>
<!-- enemyRadar[RightBack]&#45;&gt; Move Left/Right -->
<g id="edge7" class="edge"><title>enemyRadar[RightBack]&#45;&gt; Move Left/Right</title>
<path fill="none" stroke="green" stroke-width="0.15348" d="M293.381,-389.363C293.192,-376.239 292.805,-349.448 292.431,-323.545"/>
<polygon fill="green" stroke="green" stroke-width="0.15348" points="295.928,-323.259 292.284,-313.311 288.929,-323.36 295.928,-323.259"/>
</g>
<!-- enemyRadar[LeftBack] -->
<g id="node10" class="node"><title>enemyRadar[LeftBack]</title>
<polygon fill="lightgray" stroke="black" points="1301,-498.775 1202,-498.775 1202,-480.775 1301,-480.775 1301,-498.775"/>
<text text-anchor="middle" x="1251.5" y="-487.575" font-family="Times,serif" font-size="9.00">enemyRadar[LeftBack]</text>
</g>
<!-- enemyRadar[Right45ø] -->
<g id="node11" class="node"><title>enemyRadar[Right45ø]</title>
<polygon fill="lightgray" stroke="black" points="1419.5,-498.775 1319.5,-498.775 1319.5,-480.775 1419.5,-480.775 1419.5,-498.775"/>
<text text-anchor="middle" x="1369.5" y="-487.575" font-family="Times,serif" font-size="9.00">enemyRadar[Right45ø]</text>
</g>
<!-- enemyRadar[Left45ø] -->
<g id="node12" class="node"><title>enemyRadar[Left45ø]</title>
<polygon fill="lightgray" stroke="black" points="599,-407.621 504,-407.621 504,-389.621 599,-389.621 599,-407.621"/>
<text text-anchor="middle" x="551.5" y="-396.421" font-family="Times,serif" font-size="9.00">enemyRadar[Left45ø]</text>
</g>
<!-- enemyRadar[Left45ø]&#45;&gt;Shoot -->
<g id="edge1" class="edge"><title>enemyRadar[Left45ø]&#45;&gt;Shoot</title>
<path fill="none" stroke="green" stroke-width="0.468356" stroke-dasharray="1,5" d="M543.906,-389.525C533.964,-378.312 517.037,-356.949 510.5,-335.044 490.909,-269.394 485.581,-244.713 510.5,-180.894 532.727,-123.969 587.147,-75.4577 621.509,-49.0967"/>
<polygon fill="green" stroke="green" stroke-width="0.468356" points="623.889,-51.6861 629.78,-42.8804 619.684,-46.0901 623.889,-51.6861"/>
</g>
<!-- enemyRadar[Left45ø]&#45;&gt; Move Left/Right -->
<g id="edge6" class="edge"><title>enemyRadar[Left45ø]&#45;&gt; Move Left/Right</title>
<path fill="none" stroke="red" stroke-width="1.97114" d="M535.857,-389.379C524.585,-383.675 508.886,-376.211 494.5,-371.044 434.441,-349.47 409.487,-369.072 355.5,-335.044 345.675,-328.851 336.593,-320.658 328.543,-311.944"/>
<polygon fill="red" stroke="red" stroke-width="1.97114" points="330.966,-309.399 321.741,-304.189 325.704,-314.015 330.966,-309.399"/>
</g>
<!-- Turn left/right -->
<g id="node27" class="node"><title>Turn left/right</title>
<ellipse fill="lightblue" stroke="black" cx="850.5" cy="-257.969" rx="46.8387" ry="46.8387"/>
<text text-anchor="middle" x="850.5" y="-255.769" font-family="Times,serif" font-size="9.00">Turn left/right</text>
</g>
<!-- enemyRadar[Left45ø]&#45;&gt;Turn left/right -->
<g id="edge10" class="edge"><title>enemyRadar[Left45ø]&#45;&gt;Turn left/right</title>
<path fill="none" stroke="green" stroke-width="1.54694" d="M566.639,-389.558C577.932,-383.793 593.87,-376.177 608.5,-371.044 672.378,-348.631 695.826,-365.067 756.5,-335.044 775.568,-325.608 794.269,-311.723 809.906,-298.388"/>
<polygon fill="green" stroke="green" stroke-width="1.54694" points="812.567,-300.71 817.79,-291.492 807.959,-295.442 812.567,-300.71"/>
</g>
<!-- 25063 -->
<g id="node30" class="node"><title>25063</title>
<ellipse fill="white" stroke="black" cx="547.5" cy="-257.969" rx="27.6545" ry="27.6545"/>
<text text-anchor="middle" x="547.5" y="-255.769" font-family="Times,serif" font-size="9.00">25063</text>
</g>
<!-- enemyRadar[Left45ø]&#45;&gt;25063 -->
<g id="edge22" class="edge"><title>enemyRadar[Left45ø]&#45;&gt;25063</title>
<path fill="none" stroke="red" stroke-width="0.145013" d="M551.262,-389.363C550.743,-371.397 549.486,-327.821 548.568,-295.972"/>
<polygon fill="red" stroke="red" stroke-width="0.145013" points="552.057,-295.569 548.27,-285.674 545.06,-295.771 552.057,-295.569"/>
</g>
<!-- enemyRadar[RightFront20ø] -->
<g id="node13" class="node"><title>enemyRadar[RightFront20ø]</title>
<polygon fill="lightgray" stroke="black" points="1557,-498.775 1438,-498.775 1438,-480.775 1557,-480.775 1557,-498.775"/>
<text text-anchor="middle" x="1497.5" y="-487.575" font-family="Times,serif" font-size="9.00">enemyRadar[RightFront20ø]</text>
</g>
<!-- enemyRadar[LeftFront20ø] -->
<g id="node14" class="node"><title>enemyRadar[LeftFront20ø]</title>
<polygon fill="lightgray" stroke="black" points="1689.5,-498.775 1575.5,-498.775 1575.5,-480.775 1689.5,-480.775 1689.5,-498.775"/>
<text text-anchor="middle" x="1632.5" y="-487.575" font-family="Times,serif" font-size="9.00">enemyRadar[LeftFront20ø]</text>
</g>
<!-- enemyRadar[RightFront15ø] -->
<g id="node15" class="node"><title>enemyRadar[RightFront15ø]</title>
<polygon fill="lightgray" stroke="black" points="119,-407.621 0,-407.621 0,-389.621 119,-389.621 119,-407.621"/>
<text text-anchor="middle" x="59.5" y="-396.421" font-family="Times,serif" font-size="9.00">enemyRadar[RightFront15ø]</text>
</g>
<!-- enemyRadar[RightFront15ø]&#45;&gt; Move Left/Right -->
<g id="edge8" class="edge"><title>enemyRadar[RightFront15ø]&#45;&gt; Move Left/Right</title>
<path fill="none" stroke="red" stroke-width="0.35138" stroke-dasharray="1,5" d="M72.9761,-389.567C103.94,-371.062 181.632,-324.63 235.502,-292.436"/>
<polygon fill="red" stroke="red" stroke-width="0.35138" points="237.477,-295.333 244.265,-287.198 233.886,-289.324 237.477,-295.333"/>
</g>
<!-- enemyRadar[RightFront15ø]&#45;&gt;24480 -->
<g id="edge19" class="edge"><title>enemyRadar[RightFront15ø]&#45;&gt;24480</title>
<path fill="none" stroke="green" stroke-width="0.455026" d="M65.1834,-389.563C90.1279,-354.197 190.646,-211.684 235.134,-148.609"/>
<polygon fill="green" stroke="green" stroke-width="0.455026" points="238.123,-150.445 241.026,-140.256 232.402,-146.41 238.123,-150.445"/>
</g>
<!-- enemyRadar[LeftFront15ø] -->
<g id="node16" class="node"><title>enemyRadar[LeftFront15ø]</title>
<polygon fill="lightgray" stroke="black" points="1821.5,-498.775 1707.5,-498.775 1707.5,-480.775 1821.5,-480.775 1821.5,-498.775"/>
<text text-anchor="middle" x="1764.5" y="-487.575" font-family="Times,serif" font-size="9.00">enemyRadar[LeftFront15ø]</text>
</g>
<!-- enemyRadar[RightFront7.5ø] -->
<g id="node17" class="node"><title>enemyRadar[RightFront7.5ø]</title>
<polygon fill="lightgray" stroke="black" points="1961.5,-498.775 1839.5,-498.775 1839.5,-480.775 1961.5,-480.775 1961.5,-498.775"/>
<text text-anchor="middle" x="1900.5" y="-487.575" font-family="Times,serif" font-size="9.00">enemyRadar[RightFront7.5ø]</text>
</g>
<!-- enemyRadar[LeftFront7.5ø] -->
<g id="node18" class="node"><title>enemyRadar[LeftFront7.5ø]</title>
<polygon fill="lightgray" stroke="black" points="1052.5,-407.621 936.5,-407.621 936.5,-389.621 1052.5,-389.621 1052.5,-407.621"/>
<text text-anchor="middle" x="994.5" y="-396.421" font-family="Times,serif" font-size="9.00">enemyRadar[LeftFront7.5ø]</text>
</g>
<!-- enemyRadar[LeftFront7.5ø]&#45;&gt;Turn left/right -->
<g id="edge18" class="edge"><title>enemyRadar[LeftFront7.5ø]&#45;&gt;Turn left/right</title>
<path fill="none" stroke="green" stroke-width="0.129649" stroke-dasharray="1,5" d="M980.156,-389.579C961.601,-378.742 928.892,-358.13 905.5,-335.044 896.8,-326.458 888.477,-316.373 881.057,-306.405"/>
<polygon fill="green" stroke="green" stroke-width="0.129649" points="883.744,-304.147 875.048,-298.094 878.071,-308.249 883.744,-304.147"/>
</g>
<!-- 26484 -->
<g id="node34" class="node"><title>26484</title>
<ellipse fill="white" stroke="black" cx="942.5" cy="-257.969" rx="27.6545" ry="27.6545"/>
<text text-anchor="middle" x="942.5" y="-255.769" font-family="Times,serif" font-size="9.00">26484</text>
</g>
<!-- enemyRadar[LeftFront7.5ø]&#45;&gt;26484 -->
<g id="edge28" class="edge"><title>enemyRadar[LeftFront7.5ø]&#45;&gt;26484</title>
<path fill="none" stroke="red" stroke-width="0.111167" d="M991.403,-389.363C984.488,-370.924 967.455,-325.508 955.443,-293.48"/>
<polygon fill="red" stroke="red" stroke-width="0.111167" points="958.682,-292.149 951.893,-284.015 952.128,-294.607 958.682,-292.149"/>
</g>
<!-- enemyRadar[LeftFront7.5ø]&#45;&gt;19256 -->
<g id="edge14" class="edge"><title>enemyRadar[LeftFront7.5ø]&#45;&gt;19256</title>
<path fill="none" stroke="green" stroke-width="0.263064" stroke-dasharray="1,5" d="M996.745,-389.497C1004.75,-358.642 1028.87,-247.112 979.5,-180.894 949.174,-140.223 889.252,-125.979 850.045,-120.995"/>
<polygon fill="green" stroke="green" stroke-width="0.263064" points="850.396,-117.512 840.066,-119.868 849.61,-124.468 850.396,-117.512"/>
</g>
<!-- enemyRadar[RightFront2.5ø] -->
<g id="node19" class="node"><title>enemyRadar[RightFront2.5ø]</title>
<polygon fill="lightgray" stroke="black" points="485.5,-407.621 363.5,-407.621 363.5,-389.621 485.5,-389.621 485.5,-407.621"/>
<text text-anchor="middle" x="424.5" y="-396.421" font-family="Times,serif" font-size="9.00">enemyRadar[RightFront2.5ø]</text>
</g>
<!-- enemyRadar[RightFront2.5ø]&#45;&gt;Move Forward/Backward -->
<g id="edge3" class="edge"><title>enemyRadar[RightFront2.5ø]&#45;&gt;Move Forward/Backward</title>
<path fill="none" stroke="red" stroke-width="0.578975" d="M445.72,-389.548C487.788,-373.511 578.265,-338.854 584.5,-335.044 592.37,-330.235 600.203,-324.679 607.758,-318.804"/>
<polygon fill="red" stroke="red" stroke-width="0.578975" points="610.225,-321.312 615.834,-312.324 605.844,-315.853 610.225,-321.312"/>
</g>
<!-- enemyRadar[RightFront2.5ø]&#45;&gt; Move Left/Right -->
<g id="edge12" class="edge"><title>enemyRadar[RightFront2.5ø]&#45;&gt; Move Left/Right</title>
<path fill="none" stroke="red" stroke-width="0.433033" stroke-dasharray="1,5" d="M414.749,-389.506C401.029,-377.93 375.472,-355.774 355.5,-335.044 347.72,-326.969 339.767,-318.092 332.229,-309.342"/>
<polygon fill="red" stroke="red" stroke-width="0.433033" points="334.876,-307.051 325.728,-301.708 329.547,-311.59 334.876,-307.051"/>
</g>
<!-- enemyRadar[LeftFront2.5ø] -->
<g id="node20" class="node"><title>enemyRadar[LeftFront2.5ø]</title>
<polygon fill="lightgray" stroke="black" points="2095.5,-498.775 1979.5,-498.775 1979.5,-480.775 2095.5,-480.775 2095.5,-498.775"/>
<text text-anchor="middle" x="2037.5" y="-487.575" font-family="Times,serif" font-size="9.00">enemyRadar[LeftFront2.5ø]</text>
</g>
<!-- enemyRadar[Front7Ø] -->
<g id="node21" class="node"><title>enemyRadar[Front7Ø]</title>
<polygon fill="lightgray" stroke="black" points="918.5,-407.621 820.5,-407.621 820.5,-389.621 918.5,-389.621 918.5,-407.621"/>
<text text-anchor="middle" x="869.5" y="-396.421" font-family="Times,serif" font-size="9.00">enemyRadar[Front7Ø]</text>
</g>
<!-- enemyRadar[Front7Ø]&#45;&gt;Turn left/right -->
<g id="edge9" class="edge"><title>enemyRadar[Front7Ø]&#45;&gt;Turn left/right</title>
<path fill="none" stroke="green" stroke-width="0.249541" stroke-dasharray="1,5" d="M868.368,-389.363C866.353,-374.656 861.986,-342.789 858.074,-314.241"/>
<polygon fill="green" stroke="green" stroke-width="0.249541" points="861.539,-313.747 856.714,-304.315 854.604,-314.698 861.539,-313.747"/>
</g>
<!-- OnTarget -->
<g id="node22" class="node"><title>OnTarget</title>
<polygon fill="lightgray" stroke="black" points="1120.5,-407.621 1070.5,-407.621 1070.5,-389.621 1120.5,-389.621 1120.5,-407.621"/>
<text text-anchor="middle" x="1095.5" y="-396.421" font-family="Times,serif" font-size="9.00">OnTarget</text>
</g>
<!-- OnTarget&#45;&gt;Shoot -->
<g id="edge2" class="edge"><title>OnTarget&#45;&gt;Shoot</title>
<path fill="none" stroke="green" stroke-width="0.363463" d="M1089.28,-389.545C1080.66,-378.014 1065.05,-355.912 1055.5,-335.044 1025.74,-270.038 1053.98,-236.869 1009.5,-180.894 927.334,-77.4962 762.044,-42.7911 688.382,-32.1536"/>
<polygon fill="green" stroke="green" stroke-width="0.363463" points="688.583,-28.6484 678.2,-30.7535 687.63,-35.5832 688.583,-28.6484"/>
</g>
<!-- OnTarget&#45;&gt;Turn left/right -->
<g id="edge4" class="edge"><title>OnTarget&#45;&gt;Turn left/right</title>
<path fill="none" stroke="green" stroke-width="0.778178" d="M1087.26,-389.478C1080.78,-383.518 1071.24,-375.689 1061.5,-371.044 997.278,-340.406 964.791,-374.384 905.5,-335.044 894.892,-328.005 885.636,-318.178 877.896,-307.921"/>
<polygon fill="green" stroke="green" stroke-width="0.778178" points="880.662,-305.771 872.016,-299.647 874.956,-309.826 880.662,-305.771"/>
</g>
<!-- bias -->
<g id="node23" class="node"><title>bias</title>
<polygon fill="lightgray" stroke="black" points="780,-498.775 749,-498.775 749,-480.775 780,-480.775 780,-498.775"/>
<text text-anchor="middle" x="764.5" y="-487.575" font-family="Times,serif" font-size="9.00">bias</text>
</g>
<!-- bias&#45;&gt;Turn left/right -->
<g id="edge5" class="edge"><title>bias&#45;&gt;Turn left/right</title>
<path fill="none" stroke="red" stroke-width="0.771742" d="M767.561,-480.596C777.517,-453.991 809.564,-368.358 830.782,-311.659"/>
<polygon fill="red" stroke="red" stroke-width="0.771742" points="834.122,-312.719 834.349,-302.126 827.566,-310.265 834.122,-312.719"/>
</g>
<!-- 26286 -->
<g id="node31" class="node"><title>26286</title>
<ellipse fill="white" stroke="black" cx="736.5" cy="-398.621" rx="27.6545" ry="27.6545"/>
<text text-anchor="middle" x="736.5" y="-396.421" font-family="Times,serif" font-size="9.00">26286</text>
</g>
<!-- bias&#45;&gt;26286 -->
<g id="edge25" class="edge"><title>bias&#45;&gt;26286</title>
<path fill="none" stroke="green" stroke-width="0.525053" d="M761.916,-480.548C758.634,-470.097 752.762,-451.401 747.489,-434.609"/>
<polygon fill="green" stroke="green" stroke-width="0.525053" points="750.812,-433.512 744.477,-425.02 744.134,-435.609 750.812,-433.512"/>
</g>
<!-- Move Forward/Backward&#45;&gt;19256 -->
<g id="edge27" class="edge"><title>Move Forward/Backward&#45;&gt;19256</title>
<path fill="none" stroke="green" stroke-width="0.146082" d="M725.401,-203.363C746.111,-183.141 768.75,-161.036 785.755,-144.432"/>
<polygon fill="green" stroke="green" stroke-width="0.146082" points="788.435,-146.707 793.145,-137.216 783.545,-141.698 788.435,-146.707"/>
</g>
<!-- Turn left/right&#45;&gt;19256 -->
<g id="edge23" class="edge"><title>Turn left/right&#45;&gt;19256</title>
<path fill="none" stroke="red" stroke-width="0.157981" d="M838.372,-212.718C833.155,-193.681 827.139,-171.73 822.222,-153.788"/>
<polygon fill="red" stroke="red" stroke-width="0.157981" points="825.56,-152.729 819.541,-144.01 818.809,-154.579 825.56,-152.729"/>
</g>
<!-- 24706&#45;&gt;Shoot -->
<g id="edge21" class="edge"><title>24706&#45;&gt;Shoot</title>
<path fill="none" stroke="green" stroke-width="0.689354" d="M1072.97,-100.756C1066.03,-96.5932 1058.19,-92.4915 1050.5,-89.7401 923.062,-44.1353 760.876,-32.1279 688.858,-28.9805"/>
<polygon fill="green" stroke="green" stroke-width="0.689354" points="688.63,-25.4685 678.497,-28.5625 688.347,-32.4628 688.63,-25.4685"/>
</g>
<!-- 26286&#45;&gt;Turn left/right -->
<g id="edge26" class="edge"><title>26286&#45;&gt;Turn left/right</title>
<path fill="none" stroke="red" stroke-width="0.685094" stroke-dasharray="1,5" d="M754.065,-377.163C764.453,-364.995 777.819,-349.217 789.5,-335.044 797.994,-324.737 807.046,-313.559 815.505,-303.024"/>
<polygon fill="red" stroke="red" stroke-width="0.685094" points="818.317,-305.111 821.839,-295.119 812.855,-300.734 818.317,-305.111"/>
</g>
<!-- 26510&#45;&gt;Shoot -->
<g id="edge31" class="edge"><title>26510&#45;&gt;Shoot</title>
<path fill="none" stroke="green" stroke-width="0.626958" d="M419.955,-100.486C426.101,-96.6093 432.894,-92.7226 439.5,-89.7401 498.578,-63.0688 572.084,-44.6419 615.196,-35.2022"/>
<polygon fill="green" stroke="green" stroke-width="0.626958" points="616.173,-38.5723 625.215,-33.0509 614.704,-31.7283 616.173,-38.5723"/>
</g>
<!-- 17457 -->
<g id="node33" class="node"><title>17457</title>
<ellipse fill="white" stroke="black" cx="2141.5" cy="-489.775" rx="27.6545" ry="27.6545"/>
<text text-anchor="middle" x="2141.5" y="-487.575" font-family="Times,serif" font-size="9.00">17457</text>
</g>
<!-- 26484&#45;&gt;19256 -->
<g id="edge29" class="edge"><title>26484&#45;&gt;19256</title>
<path fill="none" stroke="green" stroke-width="0.130902" d="M934.355,-231.342C928.428,-215.557 919.207,-195.597 906.5,-180.894 889.789,-161.559 865.724,-145.69 846.127,-134.77"/>
<polygon fill="green" stroke="green" stroke-width="0.130902" points="847.663,-131.622 837.199,-129.96 844.342,-137.784 847.663,-131.622"/>
</g>
<!-- 19256&#45;&gt;Shoot -->
<g id="edge11" class="edge"><title>19256&#45;&gt;Shoot</title>
<path fill="none" stroke="red" stroke-width="0.378286" stroke-dasharray="1,5" d="M788.744,-103.267C760.999,-88.0248 714.958,-62.7315 683.938,-45.6902"/>
<polygon fill="red" stroke="red" stroke-width="0.378286" points="685.28,-42.4341 674.83,-40.6867 681.909,-48.5693 685.28,-42.4341"/>
</g>
</g>
</svg>
