<?xml version="1.0" encoding="UTF-8" standalone="no"?>
<!DOCTYPE svg PUBLIC "-//W3C//DTD SVG 1.1//EN"
 "http://www.w3.org/Graphics/SVG/1.1/DTD/svg11.dtd">
<!-- Generated by graphviz version 2.38.0 (20140413.2041)
 -->
<!-- Title: %3 Pages: 1 -->
<svg width="2557pt" height="216pt"
 viewBox="0.00 0.00 2557.00 216.15" xmlns="http://www.w3.org/2000/svg" xmlns:xlink="http://www.w3.org/1999/xlink">
<g id="graph0" class="graph" transform="scale(1 1) rotate(0) translate(4 212.149)">
<title>%3</title>
<polygon fill="white" stroke="none" points="-4,4 -4,-212.149 2553,-212.149 2553,4 -4,4"/>
<!-- wallRadar[1,0] -->
<g id="node1" class="node"><title>wallRadar[1,0]</title>
<polygon fill="lightgray" stroke="black" points="611,-208.149 541,-208.149 541,-190.149 611,-190.149 611,-208.149"/>
<text text-anchor="middle" x="576" y="-196.949" font-family="Times,serif" font-size="9.00">wallRadar[1,0]</text>
</g>
<!-- Move Forward/Backward -->
<g id="node25" class="node"><title>Move Forward/Backward</title>
<ellipse fill="lightblue" stroke="black" cx="1495" cy="-77.0746" rx="77.1494" ry="77.1494"/>
<text text-anchor="middle" x="1495" y="-74.8746" font-family="Times,serif" font-size="9.00">Move Forward/Backward</text>
</g>
<!-- wallRadar[1,0]&#45;&gt;Move Forward/Backward -->
<g id="edge37" class="edge"><title>wallRadar[1,0]&#45;&gt;Move Forward/Backward</title>
<path fill="none" stroke="green" stroke-width="0.489249" d="M611.006,-191.388C614.041,-190.922 617.07,-190.499 620,-190.149 893.628,-157.44 967.56,-201.715 1239,-154.149 1298.3,-143.758 1363.3,-124.337 1412.97,-107.72"/>
<polygon fill="green" stroke="green" stroke-width="0.489249" points="1414.34,-110.952 1422.69,-104.437 1412.1,-104.32 1414.34,-110.952"/>
</g>
<!--  Move Left/Right -->
<g id="node26" class="node"><title> Move Left/Right</title>
<ellipse fill="lightblue" stroke="black" cx="462" cy="-77.0746" rx="55.3091" ry="55.3091"/>
<text text-anchor="middle" x="462" y="-74.8746" font-family="Times,serif" font-size="9.00"> Move Left/Right</text>
</g>
<!-- wallRadar[1,0]&#45;&gt; Move Left/Right -->
<g id="edge6" class="edge"><title>wallRadar[1,0]&#45;&gt; Move Left/Right</title>
<path fill="none" stroke="red" stroke-width="0.166089" d="M568.164,-189.896C555.491,-176.547 529.584,-149.26 506.536,-124.984"/>
<polygon fill="red" stroke="red" stroke-width="0.166089" points="508.917,-122.408 499.493,-117.566 503.84,-127.228 508.917,-122.408"/>
</g>
<!-- wallRadar[0,1] -->
<g id="node2" class="node"><title>wallRadar[0,1]</title>
<polygon fill="lightgray" stroke="black" points="174,-208.149 104,-208.149 104,-190.149 174,-190.149 174,-208.149"/>
<text text-anchor="middle" x="139" y="-196.949" font-family="Times,serif" font-size="9.00">wallRadar[0,1]</text>
</g>
<!-- Turn left/right -->
<g id="node27" class="node"><title>Turn left/right</title>
<ellipse fill="lightblue" stroke="black" cx="798" cy="-77.0746" rx="46.8387" ry="46.8387"/>
<text text-anchor="middle" x="798" y="-74.8746" font-family="Times,serif" font-size="9.00">Turn left/right</text>
</g>
<!-- wallRadar[0,1]&#45;&gt;Turn left/right -->
<g id="edge1" class="edge"><title>wallRadar[0,1]&#45;&gt;Turn left/right</title>
<path fill="none" stroke="green" stroke-width="0.483015" d="M174.026,-191.535C177.056,-191.038 180.079,-190.567 183,-190.149 334.734,-168.424 375.438,-182.894 526,-154.149 602.855,-139.476 689.578,-113.539 744.008,-96.0798"/>
<polygon fill="green" stroke="green" stroke-width="0.483015" points="745.344,-99.3262 753.785,-92.9231 743.194,-92.6647 745.344,-99.3262"/>
</g>
<!-- wallRadar[&#45;1,0] -->
<g id="node3" class="node"><title>wallRadar[&#45;1,0]</title>
<polygon fill="lightgray" stroke="black" points="265.5,-208.149 192.5,-208.149 192.5,-190.149 265.5,-190.149 265.5,-208.149"/>
<text text-anchor="middle" x="229" y="-196.949" font-family="Times,serif" font-size="9.00">wallRadar[&#45;1,0]</text>
</g>
<!-- Shoot -->
<g id="node24" class="node"><title>Shoot</title>
<ellipse fill="lightblue" stroke="black" cx="1203" cy="-77.0746" rx="26.7407" ry="26.7407"/>
<text text-anchor="middle" x="1203" y="-74.8746" font-family="Times,serif" font-size="9.00">Shoot</text>
</g>
<!-- wallRadar[&#45;1,0]&#45;&gt;Shoot -->
<g id="edge40" class="edge"><title>wallRadar[&#45;1,0]&#45;&gt;Shoot</title>
<path fill="none" stroke="red" stroke-width="0.970032" d="M265.786,-191.258C268.56,-190.846 271.321,-190.469 274,-190.149 530.448,-159.496 598.192,-189.756 854,-154.149 969.782,-138.033 1104.28,-104.403 1167.16,-87.7896"/>
<polygon fill="red" stroke="red" stroke-width="0.970032" points="1168.21,-91.131 1176.98,-85.1792 1166.41,-84.366 1168.21,-91.131"/>
</g>
<!-- wallRadar[&#45;1,0]&#45;&gt; Move Left/Right -->
<g id="edge19" class="edge"><title>wallRadar[&#45;1,0]&#45;&gt; Move Left/Right</title>
<path fill="none" stroke="green" stroke-width="0.145019" d="M244.65,-190.084C276.769,-173.532 351.553,-134.993 404.398,-107.76"/>
<polygon fill="green" stroke="green" stroke-width="0.145019" points="406.05,-110.845 413.336,-103.153 402.844,-104.623 406.05,-110.845"/>
</g>
<!-- wallRadar[0,&#45;1] -->
<g id="node4" class="node"><title>wallRadar[0,&#45;1]</title>
<polygon fill="lightgray" stroke="black" points="834.5,-208.149 761.5,-208.149 761.5,-190.149 834.5,-190.149 834.5,-208.149"/>
<text text-anchor="middle" x="798" y="-196.949" font-family="Times,serif" font-size="9.00">wallRadar[0,&#45;1]</text>
</g>
<!-- wallRadar[0,&#45;1]&#45;&gt;Shoot -->
<g id="edge43" class="edge"><title>wallRadar[0,&#45;1]&#45;&gt;Shoot</title>
<path fill="none" stroke="green" stroke-width="0.357918" d="M825.202,-190.084C896.321,-168.999 1087.78,-112.235 1167.45,-88.6132"/>
<polygon fill="green" stroke="green" stroke-width="0.357918" points="1168.9,-91.8363 1177.49,-85.6381 1166.91,-85.125 1168.9,-91.8363"/>
</g>
<!-- wallRadar[0,&#45;1]&#45;&gt;Turn left/right -->
<g id="edge17" class="edge"><title>wallRadar[0,&#45;1]&#45;&gt;Turn left/right</title>
<path fill="none" stroke="green" stroke-width="0.353825" d="M798,-189.896C798,-178.186 798,-155.752 798,-134.032"/>
<polygon fill="green" stroke="green" stroke-width="0.353825" points="801.5,-133.812 798,-123.812 794.5,-133.812 801.5,-133.812"/>
</g>
<!-- wallRadar[0.7,0.7] -->
<g id="node5" class="node"><title>wallRadar[0.7,0.7]</title>
<polygon fill="lightgray" stroke="black" points="2167.5,-208.149 2084.5,-208.149 2084.5,-190.149 2167.5,-190.149 2167.5,-208.149"/>
<text text-anchor="middle" x="2126" y="-196.949" font-family="Times,serif" font-size="9.00">wallRadar[0.7,0.7]</text>
</g>
<!-- wallRadar[0.7,0.7]&#45;&gt;Shoot -->
<g id="edge32" class="edge"><title>wallRadar[0.7,0.7]&#45;&gt;Shoot</title>
<path fill="none" stroke="green" stroke-width="0.268552" d="M2084.3,-191.254C2081.16,-190.843 2078.03,-190.468 2075,-190.149 1780.19,-159.141 1699.29,-214.168 1409,-154.149 1345.88,-141.099 1276.29,-112.108 1236.3,-93.9217"/>
<polygon fill="green" stroke="green" stroke-width="0.268552" points="1237.58,-90.6581 1227.03,-89.6586 1234.65,-97.0175 1237.58,-90.6581"/>
</g>
<!-- wallRadar[0.7,0.7]&#45;&gt;Move Forward/Backward -->
<g id="edge27" class="edge"><title>wallRadar[0.7,0.7]&#45;&gt;Move Forward/Backward</title>
<path fill="none" stroke="red" stroke-width="0.619444" d="M2084.11,-190.178C1981.86,-170.721 1717.9,-120.491 1580.69,-94.3804"/>
<polygon fill="red" stroke="red" stroke-width="0.619444" points="1581.11,-90.8975 1570.63,-92.4663 1579.8,-97.7741 1581.11,-90.8975"/>
</g>
<!-- wallRadar[&#45;0.7,0.7] -->
<g id="node6" class="node"><title>wallRadar[&#45;0.7,0.7]</title>
<polygon fill="lightgray" stroke="black" points="86,-208.149 0,-208.149 0,-190.149 86,-190.149 86,-208.149"/>
<text text-anchor="middle" x="43" y="-196.949" font-family="Times,serif" font-size="9.00">wallRadar[&#45;0.7,0.7]</text>
</g>
<!-- wallRadar[&#45;0.7,0.7]&#45;&gt; Move Left/Right -->
<g id="edge33" class="edge"><title>wallRadar[&#45;0.7,0.7]&#45;&gt; Move Left/Right</title>
<path fill="none" stroke="green" stroke-width="0.162086" d="M71.1424,-190.084C137.885,-170.958 307.071,-122.473 399.453,-95.999"/>
<polygon fill="green" stroke="green" stroke-width="0.162086" points="400.588,-99.3147 409.237,-93.1952 398.659,-92.5856 400.588,-99.3147"/>
</g>
<!-- wallRadar[&#45;0.7,0.7]&#45;&gt;Turn left/right -->
<g id="edge41" class="edge"><title>wallRadar[&#45;0.7,0.7]&#45;&gt;Turn left/right</title>
<path fill="none" stroke="red" stroke-width="0.183923" d="M86.0988,-191.283C89.108,-190.876 92.0974,-190.493 95,-190.149 285.886,-167.521 336.815,-188.189 526,-154.149 603.007,-140.293 689.692,-114.154 744.072,-96.4275"/>
<polygon fill="red" stroke="red" stroke-width="0.183923" points="745.431,-99.6652 753.84,-93.2204 743.248,-93.0145 745.431,-99.6652"/>
</g>
<!-- wallRadar[&#45;0.7,&#45;0.7] -->
<g id="node7" class="node"><title>wallRadar[&#45;0.7,&#45;0.7]</title>
<polygon fill="lightgray" stroke="black" points="1078.5,-208.149 989.5,-208.149 989.5,-190.149 1078.5,-190.149 1078.5,-208.149"/>
<text text-anchor="middle" x="1034" y="-196.949" font-family="Times,serif" font-size="9.00">wallRadar[&#45;0.7,&#45;0.7]</text>
</g>
<!-- wallRadar[&#45;0.7,&#45;0.7]&#45;&gt;Shoot -->
<g id="edge38" class="edge"><title>wallRadar[&#45;0.7,&#45;0.7]&#45;&gt;Shoot</title>
<path fill="none" stroke="green" stroke-width="0.174043" d="M1045.35,-190.084C1071.22,-171.704 1135.25,-126.21 1173.28,-99.1933"/>
<polygon fill="green" stroke="green" stroke-width="0.174043" points="1175.31,-102.045 1181.43,-93.4003 1171.25,-96.3391 1175.31,-102.045"/>
</g>
<!-- wallRadar[&#45;0.7,&#45;0.7]&#45;&gt;Move Forward/Backward -->
<g id="edge11" class="edge"><title>wallRadar[&#45;0.7,&#45;0.7]&#45;&gt;Move Forward/Backward</title>
<path fill="none" stroke="green" stroke-width="0.194595" d="M1076.23,-190.079C1117.84,-181.895 1183.1,-168.431 1239,-154.149 1297.22,-139.274 1362.11,-119.961 1411.99,-104.517"/>
<polygon fill="green" stroke="green" stroke-width="0.194595" points="1413.25,-107.791 1421.76,-101.482 1411.17,-101.106 1413.25,-107.791"/>
</g>
<!-- wallRadar[&#45;0.7,&#45;0.7]&#45;&gt; Move Left/Right -->
<g id="edge25" class="edge"><title>wallRadar[&#45;0.7,&#45;0.7]&#45;&gt; Move Left/Right</title>
<path fill="none" stroke="red" stroke-width="0.276705" d="M989.19,-191.465C908.84,-179.47 748.012,-155.415 742,-154.149 666.319,-138.222 580.704,-114.036 524.292,-97.2268"/>
<polygon fill="red" stroke="red" stroke-width="0.276705" points="525.039,-93.797 514.455,-94.2822 523.031,-100.503 525.039,-93.797"/>
</g>
<!-- wallRadar[&#45;0.7,&#45;0.7]&#45;&gt;Turn left/right -->
<g id="edge8" class="edge"><title>wallRadar[&#45;0.7,&#45;0.7]&#45;&gt;Turn left/right</title>
<path fill="none" stroke="green" stroke-width="0.304768" d="M1018.15,-190.084C983.955,-172.687 902.023,-131.001 848.329,-103.682"/>
<polygon fill="green" stroke="green" stroke-width="0.304768" points="849.808,-100.507 839.308,-99.092 846.634,-106.746 849.808,-100.507"/>
</g>
<!-- wallRadar[0.7,&#45;0.7] -->
<g id="node8" class="node"><title>wallRadar[0.7,&#45;0.7]</title>
<polygon fill="lightgray" stroke="black" points="1538,-208.149 1452,-208.149 1452,-190.149 1538,-190.149 1538,-208.149"/>
<text text-anchor="middle" x="1495" y="-196.949" font-family="Times,serif" font-size="9.00">wallRadar[0.7,&#45;0.7]</text>
</g>
<!-- wallRadar[0.7,&#45;0.7]&#45;&gt;Move Forward/Backward -->
<g id="edge12" class="edge"><title>wallRadar[0.7,&#45;0.7]&#45;&gt;Move Forward/Backward</title>
<path fill="none" stroke="green" stroke-width="0.409454" stroke-dasharray="1,5" d="M1495,-189.896C1495,-183.793 1495,-174.776 1495,-164.466"/>
<polygon fill="green" stroke="green" stroke-width="0.409454" points="1498.5,-164.237 1495,-154.237 1491.5,-164.237 1498.5,-164.237"/>
</g>
<!-- wallRadar[0.7,&#45;0.7]&#45;&gt;Turn left/right -->
<g id="edge26" class="edge"><title>wallRadar[0.7,&#45;0.7]&#45;&gt;Turn left/right</title>
<path fill="none" stroke="red" stroke-width="0.545929" d="M1451.88,-191.438C1448.88,-190.994 1445.89,-190.561 1443,-190.149 1320.52,-172.743 1288.99,-174.652 1167,-154.149 1055.1,-135.343 925.423,-107.093 853.437,-90.8331"/>
<polygon fill="red" stroke="red" stroke-width="0.545929" points="853.77,-87.3199 843.244,-88.5235 852.223,-94.1468 853.77,-87.3199"/>
</g>
<!-- enemyRadar[RightBack] -->
<g id="node9" class="node"><title>enemyRadar[RightBack]</title>
<polygon fill="lightgray" stroke="black" points="1434,-208.149 1330,-208.149 1330,-190.149 1434,-190.149 1434,-208.149"/>
<text text-anchor="middle" x="1382" y="-196.949" font-family="Times,serif" font-size="9.00">enemyRadar[RightBack]</text>
</g>
<!-- enemyRadar[RightBack]&#45;&gt;Shoot -->
<g id="edge39" class="edge"><title>enemyRadar[RightBack]&#45;&gt;Shoot</title>
<path fill="none" stroke="red" stroke-width="0.274026" d="M1369.98,-190.084C1342.3,-171.518 1273.38,-125.289 1233.27,-98.3807"/>
<polygon fill="red" stroke="red" stroke-width="0.274026" points="1235.19,-95.4525 1224.93,-92.7883 1231.29,-101.266 1235.19,-95.4525"/>
</g>
<!-- enemyRadar[LeftBack] -->
<g id="node10" class="node"><title>enemyRadar[LeftBack]</title>
<polygon fill="lightgray" stroke="black" points="1311.5,-208.149 1212.5,-208.149 1212.5,-190.149 1311.5,-190.149 1311.5,-208.149"/>
<text text-anchor="middle" x="1262" y="-196.949" font-family="Times,serif" font-size="9.00">enemyRadar[LeftBack]</text>
</g>
<!-- enemyRadar[LeftBack]&#45;&gt;Shoot -->
<g id="edge35" class="edge"><title>enemyRadar[LeftBack]&#45;&gt;Shoot</title>
<path fill="none" stroke="red" stroke-width="0.255168" d="M1257.94,-189.896C1250.07,-173.876 1232.34,-137.782 1219.13,-110.908"/>
<polygon fill="red" stroke="red" stroke-width="0.255168" points="1222.23,-109.267 1214.68,-101.836 1215.94,-112.354 1222.23,-109.267"/>
</g>
<!-- enemyRadar[LeftBack]&#45;&gt;Move Forward/Backward -->
<g id="edge42" class="edge"><title>enemyRadar[LeftBack]&#45;&gt;Move Forward/Backward</title>
<path fill="none" stroke="red" stroke-width="0.287584" d="M1277.65,-190.084C1305.95,-175.501 1367.37,-143.85 1417.72,-117.901"/>
<polygon fill="red" stroke="red" stroke-width="0.287584" points="1419.37,-120.986 1426.66,-113.293 1416.17,-114.763 1419.37,-120.986"/>
</g>
<!-- enemyRadar[LeftBack]&#45;&gt;Turn left/right -->
<g id="edge7" class="edge"><title>enemyRadar[LeftBack]&#45;&gt;Turn left/right</title>
<path fill="none" stroke="green" stroke-width="0.490311" d="M1230.84,-190.084C1153.34,-170.029 951.114,-117.698 852.992,-92.3055"/>
<polygon fill="green" stroke="green" stroke-width="0.490311" points="853.818,-88.904 843.26,-89.787 852.064,-95.6808 853.818,-88.904"/>
</g>
<!-- enemyRadar[Right45ø] -->
<g id="node11" class="node"><title>enemyRadar[Right45ø]</title>
<polygon fill="lightgray" stroke="black" points="1934,-208.149 1834,-208.149 1834,-190.149 1934,-190.149 1934,-208.149"/>
<text text-anchor="middle" x="1884" y="-196.949" font-family="Times,serif" font-size="9.00">enemyRadar[Right45ø]</text>
</g>
<!-- enemyRadar[Right45ø]&#45;&gt;Shoot -->
<g id="edge18" class="edge"><title>enemyRadar[Right45ø]&#45;&gt;Shoot</title>
<path fill="none" stroke="green" stroke-width="0.309215" d="M1833.81,-191.175C1830.83,-190.814 1827.88,-190.469 1825,-190.149 1640.55,-169.676 1590.11,-194.656 1409,-154.149 1346.1,-140.081 1276.44,-111.416 1236.38,-93.5694"/>
<polygon fill="green" stroke="green" stroke-width="0.309215" points="1237.65,-90.3029 1227.09,-89.3897 1234.77,-96.686 1237.65,-90.3029"/>
</g>
<!-- enemyRadar[Right45ø]&#45;&gt;Move Forward/Backward -->
<g id="edge34" class="edge"><title>enemyRadar[Right45ø]&#45;&gt;Move Forward/Backward</title>
<path fill="none" stroke="red" stroke-width="0.163832" d="M1857.87,-190.084C1801.55,-172.7 1666.67,-131.064 1578.16,-103.744"/>
<polygon fill="red" stroke="red" stroke-width="0.163832" points="1579,-100.339 1568.41,-100.734 1576.93,-107.028 1579,-100.339"/>
</g>
<!-- enemyRadar[Left45ø] -->
<g id="node12" class="node"><title>enemyRadar[Left45ø]</title>
<polygon fill="lightgray" stroke="black" points="2280.5,-208.149 2185.5,-208.149 2185.5,-190.149 2280.5,-190.149 2280.5,-208.149"/>
<text text-anchor="middle" x="2233" y="-196.949" font-family="Times,serif" font-size="9.00">enemyRadar[Left45ø]</text>
</g>
<!-- enemyRadar[Left45ø]&#45;&gt;Move Forward/Backward -->
<g id="edge5" class="edge"><title>enemyRadar[Left45ø]&#45;&gt;Move Forward/Backward</title>
<path fill="none" stroke="red" stroke-width="0.245118" d="M2185.43,-190.409C2063.31,-170.541 1737.41,-117.515 1581.04,-92.0737"/>
<polygon fill="red" stroke="red" stroke-width="0.245118" points="1581.42,-88.5899 1570.99,-90.4385 1580.3,-95.499 1581.42,-88.5899"/>
</g>
<!-- enemyRadar[RightFront20ø] -->
<g id="node13" class="node"><title>enemyRadar[RightFront20ø]</title>
<polygon fill="lightgray" stroke="black" points="971.5,-208.149 852.5,-208.149 852.5,-190.149 971.5,-190.149 971.5,-208.149"/>
<text text-anchor="middle" x="912" y="-196.949" font-family="Times,serif" font-size="9.00">enemyRadar[RightFront20ø]</text>
</g>
<!-- enemyRadar[RightFront20ø]&#45;&gt;Shoot -->
<g id="edge3" class="edge"><title>enemyRadar[RightFront20ø]&#45;&gt;Shoot</title>
<path fill="none" stroke="green" stroke-width="0.190618" d="M931.545,-190.084C980.293,-169.97 1107.73,-117.386 1169.06,-92.0797"/>
<polygon fill="green" stroke="green" stroke-width="0.190618" points="1170.4,-95.3113 1178.31,-88.2616 1167.73,-88.8405 1170.4,-95.3113"/>
</g>
<!-- enemyRadar[RightFront20ø]&#45;&gt;Move Forward/Backward -->
<g id="edge10" class="edge"><title>enemyRadar[RightFront20ø]&#45;&gt;Move Forward/Backward</title>
<path fill="none" stroke="red" stroke-width="0.544265" d="M971.785,-190.616C1058.99,-179.549 1213.52,-159.616 1239,-154.149 1297.76,-141.545 1362.64,-122.204 1412.38,-106.178"/>
<polygon fill="red" stroke="red" stroke-width="0.544265" points="1413.69,-109.434 1422.12,-103.02 1411.53,-102.775 1413.69,-109.434"/>
</g>
<!-- enemyRadar[RightFront20ø]&#45;&gt; Move Left/Right -->
<g id="edge30" class="edge"><title>enemyRadar[RightFront20ø]&#45;&gt; Move Left/Right</title>
<path fill="none" stroke="red" stroke-width="0.117422" stroke-dasharray="1,5" d="M880.325,-190.072C846.16,-181.332 790.179,-166.929 742,-154.149 667.361,-134.351 581.71,-110.985 524.999,-95.4235"/>
<polygon fill="red" stroke="red" stroke-width="0.117422" points="525.676,-91.9798 515.106,-92.7074 523.822,-98.73 525.676,-91.9798"/>
</g>
<!-- enemyRadar[RightFront20ø]&#45;&gt;Turn left/right -->
<g id="edge9" class="edge"><title>enemyRadar[RightFront20ø]&#45;&gt;Turn left/right</title>
<path fill="none" stroke="red" stroke-width="0.255257" d="M904.164,-189.896C890.429,-175.429 861.15,-144.59 836.813,-118.955"/>
<polygon fill="red" stroke="red" stroke-width="0.255257" points="839.193,-116.379 829.77,-111.537 834.117,-121.199 839.193,-116.379"/>
</g>
<!-- enemyRadar[LeftFront20ø] -->
<g id="node14" class="node"><title>enemyRadar[LeftFront20ø]</title>
<polygon fill="lightgray" stroke="black" points="743,-208.149 629,-208.149 629,-190.149 743,-190.149 743,-208.149"/>
<text text-anchor="middle" x="686" y="-196.949" font-family="Times,serif" font-size="9.00">enemyRadar[LeftFront20ø]</text>
</g>
<!-- enemyRadar[LeftFront20ø]&#45;&gt;Move Forward/Backward -->
<g id="edge14" class="edge"><title>enemyRadar[LeftFront20ø]&#45;&gt;Move Forward/Backward</title>
<path fill="none" stroke="red" stroke-width="0.432809" d="M743.219,-191.047C746.188,-190.731 749.128,-190.429 752,-190.149 968.01,-169.085 1025.52,-193.287 1239,-154.149 1298.22,-143.293 1363.22,-123.879 1412.91,-107.381"/>
<polygon fill="red" stroke="red" stroke-width="0.432809" points="1414.26,-110.618 1422.63,-104.123 1412.04,-103.98 1414.26,-110.618"/>
</g>
<!-- enemyRadar[LeftFront20ø]&#45;&gt; Move Left/Right -->
<g id="edge16" class="edge"><title>enemyRadar[LeftFront20ø]&#45;&gt; Move Left/Right</title>
<path fill="none" stroke="red" stroke-width="0.190596" d="M670.955,-190.084C640.51,-173.765 570.194,-136.072 519.532,-108.914"/>
<polygon fill="red" stroke="red" stroke-width="0.190596" points="521.099,-105.783 510.632,-104.143 517.792,-111.953 521.099,-105.783"/>
</g>
<!-- enemyRadar[LeftFront20ø]&#45;&gt;Turn left/right -->
<g id="edge28" class="edge"><title>enemyRadar[LeftFront20ø]&#45;&gt;Turn left/right</title>
<path fill="none" stroke="red" stroke-width="0.297014" d="M693.698,-189.896C707.148,-175.477 735.766,-144.795 759.629,-119.212"/>
<polygon fill="red" stroke="red" stroke-width="0.297014" points="762.276,-121.505 766.538,-111.805 757.157,-116.731 762.276,-121.505"/>
</g>
<!-- enemyRadar[RightFront15ø] -->
<g id="node15" class="node"><title>enemyRadar[RightFront15ø]</title>
<polygon fill="lightgray" stroke="black" points="1675.5,-208.149 1556.5,-208.149 1556.5,-190.149 1675.5,-190.149 1675.5,-208.149"/>
<text text-anchor="middle" x="1616" y="-196.949" font-family="Times,serif" font-size="9.00">enemyRadar[RightFront15ø]</text>
</g>
<!-- enemyRadar[RightFront15ø]&#45;&gt;Shoot -->
<g id="edge36" class="edge"><title>enemyRadar[RightFront15ø]&#45;&gt;Shoot</title>
<path fill="none" stroke="red" stroke-width="0.108724" d="M1568.66,-190.099C1526.39,-182.436 1463,-169.77 1409,-154.149 1347.25,-136.287 1277.49,-108.956 1237.05,-92.3758"/>
<polygon fill="red" stroke="red" stroke-width="0.108724" points="1238.24,-89.0826 1227.66,-88.5051 1235.57,-95.5538 1238.24,-89.0826"/>
</g>
<!-- enemyRadar[LeftFront15ø] -->
<g id="node16" class="node"><title>enemyRadar[LeftFront15ø]</title>
<polygon fill="lightgray" stroke="black" points="2066,-208.149 1952,-208.149 1952,-190.149 2066,-190.149 2066,-208.149"/>
<text text-anchor="middle" x="2009" y="-196.949" font-family="Times,serif" font-size="9.00">enemyRadar[LeftFront15ø]</text>
</g>
<!-- enemyRadar[LeftFront15ø]&#45;&gt;Shoot -->
<g id="edge22" class="edge"><title>enemyRadar[LeftFront15ø]&#45;&gt;Shoot</title>
<path fill="none" stroke="green" stroke-width="0.503258" d="M1951.78,-191.025C1948.81,-190.714 1945.87,-190.42 1943,-190.149 1706.18,-167.83 1641.62,-203.861 1409,-154.149 1345.97,-140.679 1276.35,-111.823 1236.33,-93.7765"/>
<polygon fill="green" stroke="green" stroke-width="0.503258" points="1237.61,-90.5117 1227.06,-89.5477 1234.7,-96.881 1237.61,-90.5117"/>
</g>
<!-- enemyRadar[LeftFront15ø]&#45;&gt;Move Forward/Backward -->
<g id="edge29" class="edge"><title>enemyRadar[LeftFront15ø]&#45;&gt;Move Forward/Backward</title>
<path fill="none" stroke="red" stroke-width="0.586081" d="M1974.48,-190.084C1894.54,-171.41 1694.8,-124.749 1579.92,-97.9124"/>
<polygon fill="red" stroke="red" stroke-width="0.586081" points="1580.63,-94.4843 1570.1,-95.6176 1579.04,-101.301 1580.63,-94.4843"/>
</g>
<!-- enemyRadar[RightFront7.5ø] -->
<g id="node17" class="node"><title>enemyRadar[RightFront7.5ø]</title>
<polygon fill="lightgray" stroke="black" points="1816,-208.149 1694,-208.149 1694,-190.149 1816,-190.149 1816,-208.149"/>
<text text-anchor="middle" x="1755" y="-196.949" font-family="Times,serif" font-size="9.00">enemyRadar[RightFront7.5ø]</text>
</g>
<!-- enemyRadar[RightFront7.5ø]&#45;&gt;Shoot -->
<g id="edge24" class="edge"><title>enemyRadar[RightFront7.5ø]&#45;&gt;Shoot</title>
<path fill="none" stroke="green" stroke-width="0.132214" d="M1693.96,-191.151C1602.06,-180.498 1435.98,-160.756 1409,-154.149 1346.4,-138.821 1276.64,-110.56 1236.48,-93.1333"/>
<polygon fill="green" stroke="green" stroke-width="0.132214" points="1237.73,-89.8619 1227.17,-89.0569 1234.92,-96.2741 1237.73,-89.8619"/>
</g>
<!-- enemyRadar[LeftFront7.5ø] -->
<g id="node18" class="node"><title>enemyRadar[LeftFront7.5ø]</title>
<polygon fill="lightgray" stroke="black" points="2415,-208.149 2299,-208.149 2299,-190.149 2415,-190.149 2415,-208.149"/>
<text text-anchor="middle" x="2357" y="-196.949" font-family="Times,serif" font-size="9.00">enemyRadar[LeftFront7.5ø]</text>
</g>
<!-- enemyRadar[LeftFront7.5ø]&#45;&gt;Move Forward/Backward -->
<g id="edge13" class="edge"><title>enemyRadar[LeftFront7.5ø]&#45;&gt;Move Forward/Backward</title>
<path fill="none" stroke="green" stroke-width="0.278695" d="M2299.44,-190.131C2151.42,-169.513 1756.91,-114.558 1581.34,-90.1018"/>
<polygon fill="green" stroke="green" stroke-width="0.278695" points="1581.76,-86.6257 1571.37,-88.7125 1580.79,-93.5588 1581.76,-86.6257"/>
</g>
<!-- enemyRadar[RightFront2.5ø] -->
<g id="node19" class="node"><title>enemyRadar[RightFront2.5ø]</title>
<polygon fill="lightgray" stroke="black" points="523,-208.149 401,-208.149 401,-190.149 523,-190.149 523,-208.149"/>
<text text-anchor="middle" x="462" y="-196.949" font-family="Times,serif" font-size="9.00">enemyRadar[RightFront2.5ø]</text>
</g>
<!-- enemyRadar[RightFront2.5ø]&#45;&gt;Move Forward/Backward -->
<g id="edge20" class="edge"><title>enemyRadar[RightFront2.5ø]&#45;&gt;Move Forward/Backward</title>
<path fill="none" stroke="green" stroke-width="0.240514" d="M523.061,-190.942C526.082,-190.657 529.074,-190.391 532,-190.149 845.564,-164.274 928.899,-207.337 1239,-154.149 1298.34,-143.972 1363.34,-124.548 1412.99,-107.876"/>
<polygon fill="green" stroke="green" stroke-width="0.240514" points="1414.37,-111.106 1422.72,-104.581 1412.12,-104.476 1414.37,-111.106"/>
</g>
<!-- enemyRadar[RightFront2.5ø]&#45;&gt; Move Left/Right -->
<g id="edge45" class="edge"><title>enemyRadar[RightFront2.5ø]&#45;&gt; Move Left/Right</title>
<path fill="none" stroke="green" stroke-width="0.274512" d="M462,-189.896C462,-179.701 462,-161.375 462,-142.47"/>
<polygon fill="green" stroke="green" stroke-width="0.274512" points="465.5,-142.265 462,-132.265 458.5,-142.265 465.5,-142.265"/>
</g>
<!-- enemyRadar[RightFront2.5ø]&#45;&gt;Turn left/right -->
<g id="edge4" class="edge"><title>enemyRadar[RightFront2.5ø]&#45;&gt;Turn left/right</title>
<path fill="none" stroke="green" stroke-width="0.560179" d="M484.568,-190.084C537.304,-171.238 669.796,-123.89 744.542,-97.1786"/>
<polygon fill="green" stroke="green" stroke-width="0.560179" points="746.009,-100.371 754.248,-93.71 743.654,-93.7794 746.009,-100.371"/>
</g>
<!-- enemyRadar[LeftFront2.5ø] -->
<g id="node20" class="node"><title>enemyRadar[LeftFront2.5ø]</title>
<polygon fill="lightgray" stroke="black" points="2549,-208.149 2433,-208.149 2433,-190.149 2549,-190.149 2549,-208.149"/>
<text text-anchor="middle" x="2491" y="-196.949" font-family="Times,serif" font-size="9.00">enemyRadar[LeftFront2.5ø]</text>
</g>
<!-- enemyRadar[LeftFront2.5ø]&#45;&gt;Move Forward/Backward -->
<g id="edge21" class="edge"><title>enemyRadar[LeftFront2.5ø]&#45;&gt;Move Forward/Backward</title>
<path fill="none" stroke="green" stroke-width="0.352767" d="M2432.78,-191.131C2265.1,-170.916 1780.41,-112.482 1581.62,-88.5175"/>
<polygon fill="green" stroke="green" stroke-width="0.352767" points="1581.86,-85.0212 1571.52,-87.2991 1581.02,-91.9709 1581.86,-85.0212"/>
</g>
<!-- enemyRadar[Front7Ø] -->
<g id="node21" class="node"><title>enemyRadar[Front7Ø]</title>
<polygon fill="lightgray" stroke="black" points="1194,-208.149 1096,-208.149 1096,-190.149 1194,-190.149 1194,-208.149"/>
<text text-anchor="middle" x="1145" y="-196.949" font-family="Times,serif" font-size="9.00">enemyRadar[Front7Ø]</text>
</g>
<!-- enemyRadar[Front7Ø]&#45;&gt;Shoot -->
<g id="edge44" class="edge"><title>enemyRadar[Front7Ø]&#45;&gt;Shoot</title>
<path fill="none" stroke="green" stroke-width="0.120528" d="M1148.99,-189.896C1156.72,-173.876 1174.16,-137.782 1187.14,-110.908"/>
<polygon fill="green" stroke="green" stroke-width="0.120528" points="1190.32,-112.363 1191.52,-101.836 1184.02,-109.318 1190.32,-112.363"/>
</g>
<!-- OnTarget -->
<g id="node22" class="node"><title>OnTarget</title>
<polygon fill="lightgray" stroke="black" points="383,-208.149 333,-208.149 333,-190.149 383,-190.149 383,-208.149"/>
<text text-anchor="middle" x="358" y="-196.949" font-family="Times,serif" font-size="9.00">OnTarget</text>
</g>
<!-- OnTarget&#45;&gt;Shoot -->
<g id="edge2" class="edge"><title>OnTarget&#45;&gt;Shoot</title>
<path fill="none" stroke="red" stroke-width="0.210665" d="M383.166,-191.774C386.131,-191.158 389.124,-190.597 392,-190.149 595.505,-158.47 650.241,-184.151 854,-154.149 969.651,-137.12 1104.21,-103.921 1167.13,-87.5992"/>
<polygon fill="red" stroke="red" stroke-width="0.210665" points="1168.16,-90.9469 1176.96,-85.0359 1166.4,-84.1736 1168.16,-90.9469"/>
</g>
<!-- OnTarget&#45;&gt; Move Left/Right -->
<g id="edge15" class="edge"><title>OnTarget&#45;&gt; Move Left/Right</title>
<path fill="none" stroke="red" stroke-width="0.151086" d="M365.148,-189.896C376.412,-176.892 399.133,-150.659 419.738,-126.869"/>
<polygon fill="red" stroke="red" stroke-width="0.151086" points="422.435,-129.101 426.336,-119.251 417.144,-124.518 422.435,-129.101"/>
</g>
<!-- bias -->
<g id="node23" class="node"><title>bias</title>
<polygon fill="lightgray" stroke="black" points="314.5,-208.149 283.5,-208.149 283.5,-190.149 314.5,-190.149 314.5,-208.149"/>
<text text-anchor="middle" x="299" y="-196.949" font-family="Times,serif" font-size="9.00">bias</text>
</g>
<!-- bias&#45;&gt;Shoot -->
<g id="edge23" class="edge"><title>bias&#45;&gt;Shoot</title>
<path fill="none" stroke="red" stroke-width="0.12797" d="M314.721,-192.484C317.766,-191.568 320.956,-190.731 324,-190.149 555.905,-145.847 620.252,-187.381 854,-154.149 969.734,-137.696 1104.26,-104.225 1167.15,-87.7192"/>
<polygon fill="red" stroke="red" stroke-width="0.12797" points="1168.19,-91.063 1176.97,-85.1262 1166.41,-84.2948 1168.19,-91.063"/>
</g>
<!-- bias&#45;&gt; Move Left/Right -->
<g id="edge31" class="edge"><title>bias&#45;&gt; Move Left/Right</title>
<path fill="none" stroke="red" stroke-width="0.441165" d="M309.948,-190.084C330.037,-175.286 373.984,-142.912 409.49,-116.757"/>
<polygon fill="red" stroke="red" stroke-width="0.441165" points="411.874,-119.347 417.85,-110.598 407.722,-113.711 411.874,-119.347"/>
</g>
</g>
</svg>
