<?xml version="1.0" encoding="UTF-8" standalone="no"?>
<!DOCTYPE svg PUBLIC "-//W3C//DTD SVG 1.1//EN"
 "http://www.w3.org/Graphics/SVG/1.1/DTD/svg11.dtd">
<!-- Generated by graphviz version 2.38.0 (20140413.2041)
 -->
<!-- Title: %3 Pages: 1 -->
<svg width="2784pt" height="295pt"
 viewBox="0.00 0.00 2783.71 294.58" xmlns="http://www.w3.org/2000/svg" xmlns:xlink="http://www.w3.org/1999/xlink">
<g id="graph0" class="graph" transform="scale(1 1) rotate(0) translate(4 290.576)">
<title>%3</title>
<polygon fill="white" stroke="none" points="-4,4 -4,-290.576 2779.71,-290.576 2779.71,4 -4,4"/>
<!-- wallRadar[1,0] -->
<g id="node1" class="node"><title>wallRadar[1,0]</title>
<polygon fill="lightgray" stroke="black" points="646.213,-220.362 576.213,-220.362 576.213,-202.362 646.213,-202.362 646.213,-220.362"/>
<text text-anchor="middle" x="611.213" y="-209.162" font-family="Times,serif" font-size="9.00">wallRadar[1,0]</text>
</g>
<!-- Move Forward/Backward -->
<g id="node25" class="node"><title>Move Forward/Backward</title>
<ellipse fill="lightblue" stroke="black" cx="661.213" cy="-77.0746" rx="77.1494" ry="77.1494"/>
<text text-anchor="middle" x="661.213" y="-74.8746" font-family="Times,serif" font-size="9.00">Move Forward/Backward</text>
</g>
<!-- wallRadar[1,0]&#45;&gt;Move Forward/Backward -->
<g id="edge53" class="edge"><title>wallRadar[1,0]&#45;&gt;Move Forward/Backward</title>
<path fill="none" stroke="green" stroke-width="0.349062" d="M614.341,-202.087C617.873,-192.743 624.005,-176.517 630.693,-158.824"/>
<polygon fill="green" stroke="green" stroke-width="0.349062" points="633.968,-160.059 634.23,-149.467 627.42,-157.584 633.968,-160.059"/>
</g>
<!--  Move Left/Right -->
<g id="node26" class="node"><title> Move Left/Right</title>
<ellipse fill="lightblue" stroke="black" cx="1398.21" cy="-77.0746" rx="55.3091" ry="55.3091"/>
<text text-anchor="middle" x="1398.21" y="-74.8746" font-family="Times,serif" font-size="9.00"> Move Left/Right</text>
</g>
<!-- wallRadar[1,0]&#45;&gt; Move Left/Right -->
<g id="edge2" class="edge"><title>wallRadar[1,0]&#45;&gt; Move Left/Right</title>
<path fill="none" stroke="red" stroke-width="0.238825" d="M626.641,-202.172C635.149,-197.982 646.025,-193.146 656.213,-190.149 899.596,-118.568 1202.03,-91.0384 1332.87,-81.9606"/>
<polygon fill="red" stroke="red" stroke-width="0.238825" points="1333.38,-85.4342 1343.11,-81.2631 1332.9,-78.4503 1333.38,-85.4342"/>
</g>
<!-- Turn left/right -->
<g id="node27" class="node"><title>Turn left/right</title>
<ellipse fill="lightblue" stroke="black" cx="1873.21" cy="-77.0746" rx="46.8387" ry="46.8387"/>
<text text-anchor="middle" x="1873.21" y="-74.8746" font-family="Times,serif" font-size="9.00">Turn left/right</text>
</g>
<!-- wallRadar[1,0]&#45;&gt;Turn left/right -->
<g id="edge22" class="edge"><title>wallRadar[1,0]&#45;&gt;Turn left/right</title>
<path fill="none" stroke="green" stroke-width="0.345016" d="M625.714,-202.158C634.298,-197.738 645.548,-192.685 656.213,-190.149 830.641,-148.681 1284.08,-174.514 1462.21,-154.149 1590.55,-139.477 1739.13,-108.427 1817.75,-90.8697"/>
<polygon fill="green" stroke="green" stroke-width="0.345016" points="1818.92,-94.1947 1827.91,-88.5891 1817.38,-87.3647 1818.92,-94.1947"/>
</g>
<!-- wallRadar[0,1] -->
<g id="node2" class="node"><title>wallRadar[0,1]</title>
<polygon fill="lightgray" stroke="black" points="418.213,-220.362 348.213,-220.362 348.213,-202.362 418.213,-202.362 418.213,-220.362"/>
<text text-anchor="middle" x="383.213" y="-209.162" font-family="Times,serif" font-size="9.00">wallRadar[0,1]</text>
</g>
<!-- wallRadar[0,1]&#45;&gt;Move Forward/Backward -->
<g id="edge39" class="edge"><title>wallRadar[0,1]&#45;&gt;Move Forward/Backward</title>
<path fill="none" stroke="red" stroke-width="0.14245" d="M400.185,-202.286C435.635,-185.417 519.485,-145.517 582.655,-115.457"/>
<polygon fill="red" stroke="red" stroke-width="0.14245" points="584.29,-118.555 591.816,-111.098 581.283,-112.234 584.29,-118.555"/>
</g>
<!-- wallRadar[0,1]&#45;&gt; Move Left/Right -->
<g id="edge47" class="edge"><title>wallRadar[0,1]&#45;&gt; Move Left/Right</title>
<path fill="none" stroke="green" stroke-width="0.174456" stroke-dasharray="1,5" d="M397.834,-202.215C406.19,-197.929 417.009,-192.988 427.213,-190.149 565.097,-151.791 605.026,-170.455 747.213,-154.149 961.749,-129.547 1215.95,-99.615 1333.12,-85.7748"/>
<polygon fill="green" stroke="green" stroke-width="0.174456" points="1333.83,-89.2155 1343.35,-84.5663 1333.01,-82.2638 1333.83,-89.2155"/>
</g>
<!-- wallRadar[&#45;1,0] -->
<g id="node3" class="node"><title>wallRadar[&#45;1,0]</title>
<polygon fill="lightgray" stroke="black" points="193.713,-220.362 120.713,-220.362 120.713,-202.362 193.713,-202.362 193.713,-220.362"/>
<text text-anchor="middle" x="157.213" y="-209.162" font-family="Times,serif" font-size="9.00">wallRadar[&#45;1,0]</text>
</g>
<!-- wallRadar[&#45;1,0]&#45;&gt;Move Forward/Backward -->
<g id="edge5" class="edge"><title>wallRadar[&#45;1,0]&#45;&gt;Move Forward/Backward</title>
<path fill="none" stroke="red" stroke-width="0.386423" d="M175.885,-202.261C185.442,-198.294 197.329,-193.635 208.213,-190.149 334.396,-149.738 484.232,-115.22 576.004,-95.5583"/>
<polygon fill="red" stroke="red" stroke-width="0.386423" points="576.751,-98.9779 585.801,-93.4686 575.29,-92.1319 576.751,-98.9779"/>
</g>
<!-- wallRadar[0,&#45;1] -->
<g id="node4" class="node"><title>wallRadar[0,&#45;1]</title>
<polygon fill="lightgray" stroke="black" points="919.713,-220.362 846.713,-220.362 846.713,-202.362 919.713,-202.362 919.713,-220.362"/>
<text text-anchor="middle" x="883.213" y="-209.162" font-family="Times,serif" font-size="9.00">wallRadar[0,&#45;1]</text>
</g>
<!-- Shoot -->
<g id="node24" class="node"><title>Shoot</title>
<ellipse fill="lightblue" stroke="black" cx="1984.21" cy="-77.0746" rx="26.7407" ry="26.7407"/>
<text text-anchor="middle" x="1984.21" y="-74.8746" font-family="Times,serif" font-size="9.00">Shoot</text>
</g>
<!-- wallRadar[0,&#45;1]&#45;&gt;Shoot -->
<g id="edge15" class="edge"><title>wallRadar[0,&#45;1]&#45;&gt;Shoot</title>
<path fill="none" stroke="green" stroke-width="0.122298" d="M897.641,-202.331C906.47,-197.852 918.159,-192.679 929.213,-190.149 1037.59,-165.343 1831.13,-206.514 1929.21,-154.149 1946.64,-144.845 1959.89,-127.297 1969.02,-111.398"/>
<polygon fill="green" stroke="green" stroke-width="0.122298" points="1972.26,-112.766 1973.92,-102.301 1966.1,-109.447 1972.26,-112.766"/>
</g>
<!-- wallRadar[0,&#45;1]&#45;&gt;Move Forward/Backward -->
<g id="edge13" class="edge"><title>wallRadar[0,&#45;1]&#45;&gt;Move Forward/Backward</title>
<path fill="none" stroke="green" stroke-width="0.257103" d="M869.66,-202.286C843.506,-186.702 784.362,-151.458 735.73,-122.479"/>
<polygon fill="green" stroke="green" stroke-width="0.257103" points="737.476,-119.444 727.093,-117.332 733.892,-125.458 737.476,-119.444"/>
</g>
<!-- wallRadar[0.7,0.7] -->
<g id="node5" class="node"><title>wallRadar[0.7,0.7]</title>
<polygon fill="lightgray" stroke="black" points="192.713,-286.576 109.713,-286.576 109.713,-268.576 192.713,-268.576 192.713,-286.576"/>
<text text-anchor="middle" x="151.213" y="-275.376" font-family="Times,serif" font-size="9.00">wallRadar[0.7,0.7]</text>
</g>
<!-- wallRadar[0.7,0.7]&#45;&gt;Move Forward/Backward -->
<g id="edge46" class="edge"><title>wallRadar[0.7,0.7]&#45;&gt;Move Forward/Backward</title>
<path fill="none" stroke="green" stroke-width="0.304988" stroke-dasharray="1,5" d="M161.131,-268.299C171.512,-259.571 188.217,-245.343 202.213,-232.576 222.283,-214.268 222.578,-203.541 246.213,-190.149 350.364,-131.14 486.92,-102.079 574.388,-88.6023"/>
<polygon fill="green" stroke="green" stroke-width="0.304988" points="575.174,-92.0236 584.541,-87.074 574.132,-85.1015 575.174,-92.0236"/>
</g>
<!-- wallRadar[0.7,0.7]&#45;&gt;Turn left/right -->
<g id="edge30" class="edge"><title>wallRadar[0.7,0.7]&#45;&gt;Turn left/right</title>
<path fill="none" stroke="red" stroke-width="0.246008" d="M193.12,-276.074C483.149,-272.555 2181.01,-251.171 2199.21,-232.576 2212.4,-219.1 2211.56,-204.398 2199.21,-190.149 2125.4,-104.991 2048.82,-204.935 1948.21,-154.149 1933.13,-146.536 1919.29,-134.708 1907.71,-122.629"/>
<polygon fill="red" stroke="red" stroke-width="0.246008" points="1910.14,-120.107 1900.8,-115.112 1904.99,-124.843 1910.14,-120.107"/>
</g>
<!-- 448 -->
<g id="node28" class="node"><title>448</title>
<ellipse fill="white" stroke="black" cx="21.2132" cy="-211.362" rx="21.4286" ry="21.4286"/>
<text text-anchor="middle" x="21.2132" y="-209.162" font-family="Times,serif" font-size="9.00">448</text>
</g>
<!-- wallRadar[0.7,0.7]&#45;&gt;448 -->
<g id="edge57" class="edge"><title>wallRadar[0.7,0.7]&#45;&gt;448</title>
<path fill="none" stroke="green" stroke-width="0.139232" d="M130.008,-268.528C109.4,-260.411 77.4595,-247.041 51.2132,-232.576 49.7006,-231.742 48.1669,-230.854 46.6339,-229.934"/>
<polygon fill="green" stroke="green" stroke-width="0.139232" points="48.3315,-226.865 38.0159,-224.449 44.573,-232.771 48.3315,-226.865"/>
</g>
<!-- 478 -->
<g id="node31" class="node"><title>478</title>
<ellipse fill="white" stroke="black" cx="81.2132" cy="-211.362" rx="21.4286" ry="21.4286"/>
<text text-anchor="middle" x="81.2132" y="-209.162" font-family="Times,serif" font-size="9.00">478</text>
</g>
<!-- wallRadar[0.7,0.7]&#45;&gt;478 -->
<g id="edge59" class="edge"><title>wallRadar[0.7,0.7]&#45;&gt;478</title>
<path fill="none" stroke="green" stroke-width="0.303881" d="M142.348,-268.443C132.781,-259.668 117.163,-245.341 104.108,-233.365"/>
<polygon fill="green" stroke="green" stroke-width="0.303881" points="106.122,-230.463 96.3873,-226.282 101.39,-235.621 106.122,-230.463"/>
</g>
<!-- wallRadar[&#45;0.7,0.7] -->
<g id="node6" class="node"><title>wallRadar[&#45;0.7,0.7]</title>
<polygon fill="lightgray" stroke="black" points="1560.21,-220.362 1474.21,-220.362 1474.21,-202.362 1560.21,-202.362 1560.21,-220.362"/>
<text text-anchor="middle" x="1517.21" y="-209.162" font-family="Times,serif" font-size="9.00">wallRadar[&#45;0.7,0.7]</text>
</g>
<!-- wallRadar[&#45;0.7,0.7]&#45;&gt; Move Left/Right -->
<g id="edge45" class="edge"><title>wallRadar[&#45;0.7,0.7]&#45;&gt; Move Left/Right</title>
<path fill="none" stroke="red" stroke-width="0.540495" stroke-dasharray="1,5" d="M1509.77,-202.087C1496.28,-187.093 1466.86,-154.384 1441.61,-126.322"/>
<polygon fill="red" stroke="red" stroke-width="0.540495" points="1443.91,-123.643 1434.62,-118.549 1438.71,-128.324 1443.91,-123.643"/>
</g>
<!-- wallRadar[&#45;0.7,0.7]&#45;&gt;Turn left/right -->
<g id="edge31" class="edge"><title>wallRadar[&#45;0.7,0.7]&#45;&gt;Turn left/right</title>
<path fill="none" stroke="red" stroke-width="0.488588" d="M1537.93,-202.214C1547.45,-198.495 1558.89,-194.059 1569.21,-190.149 1656.79,-156.987 1759.03,-119.559 1819.82,-97.4379"/>
<polygon fill="red" stroke="red" stroke-width="0.488588" points="1821.38,-100.596 1829.58,-93.8892 1818.98,-94.0178 1821.38,-100.596"/>
</g>
<!-- wallRadar[&#45;0.7,&#45;0.7] -->
<g id="node7" class="node"><title>wallRadar[&#45;0.7,&#45;0.7]</title>
<polygon fill="lightgray" stroke="black" points="2411.71,-220.362 2322.71,-220.362 2322.71,-202.362 2411.71,-202.362 2411.71,-220.362"/>
<text text-anchor="middle" x="2367.21" y="-209.162" font-family="Times,serif" font-size="9.00">wallRadar[&#45;0.7,&#45;0.7]</text>
</g>
<!-- wallRadar[&#45;0.7,&#45;0.7]&#45;&gt;Shoot -->
<g id="edge54" class="edge"><title>wallRadar[&#45;0.7,&#45;0.7]&#45;&gt;Shoot</title>
<path fill="none" stroke="red" stroke-width="0.183582" d="M2343.83,-202.286C2278.94,-179.872 2096.32,-116.795 2019.24,-90.172"/>
<polygon fill="red" stroke="red" stroke-width="0.183582" points="2020.11,-86.77 2009.51,-86.8134 2017.82,-93.3864 2020.11,-86.77"/>
</g>
<!-- wallRadar[&#45;0.7,&#45;0.7]&#45;&gt;Turn left/right -->
<g id="edge10" class="edge"><title>wallRadar[&#45;0.7,&#45;0.7]&#45;&gt;Turn left/right</title>
<path fill="none" stroke="green" stroke-width="0.193711" d="M2347.33,-202.269C2336.04,-198 2321.54,-193.058 2308.21,-190.149 2151.11,-155.864 2093.28,-223.524 1948.21,-154.149 1932.97,-146.86 1919.08,-135.126 1907.51,-123.033"/>
<polygon fill="green" stroke="green" stroke-width="0.193711" points="1909.94,-120.51 1900.61,-115.494 1904.78,-125.235 1909.94,-120.51"/>
</g>
<!-- wallRadar[0.7,&#45;0.7] -->
<g id="node8" class="node"><title>wallRadar[0.7,&#45;0.7]</title>
<polygon fill="lightgray" stroke="black" points="2638.21,-286.576 2552.21,-286.576 2552.21,-268.576 2638.21,-268.576 2638.21,-286.576"/>
<text text-anchor="middle" x="2595.21" y="-275.376" font-family="Times,serif" font-size="9.00">wallRadar[0.7,&#45;0.7]</text>
</g>
<!-- wallRadar[0.7,&#45;0.7]&#45;&gt;Shoot -->
<g id="edge20" class="edge"><title>wallRadar[0.7,&#45;0.7]&#45;&gt;Shoot</title>
<path fill="none" stroke="green" stroke-width="0.486617" d="M2595.57,-268.494C2595.85,-251.315 2593.89,-211.037 2571.21,-190.149 2489.9,-115.26 2137.22,-87.3907 2021.3,-80.1528"/>
<polygon fill="green" stroke="green" stroke-width="0.486617" points="2021.34,-76.6491 2011.15,-79.5344 2020.91,-83.6362 2021.34,-76.6491"/>
</g>
<!-- wallRadar[0.7,&#45;0.7]&#45;&gt;Turn left/right -->
<g id="edge29" class="edge"><title>wallRadar[0.7,&#45;0.7]&#45;&gt;Turn left/right</title>
<path fill="none" stroke="red" stroke-width="0.537377" d="M2551.84,-275.497C2495.34,-272.825 2394.31,-263.674 2314.21,-232.576 2282.4,-220.223 2282.25,-201.916 2250.21,-190.149 2123.33,-143.542 2069.6,-213.623 1948.21,-154.149 1933.04,-146.716 1919.17,-134.94 1907.6,-122.854"/>
<polygon fill="red" stroke="red" stroke-width="0.537377" points="1910.03,-120.331 1900.69,-115.324 1904.87,-125.061 1910.03,-120.331"/>
</g>
<!-- 500 -->
<g id="node30" class="node"><title>500</title>
<ellipse fill="white" stroke="black" cx="2644.21" cy="-211.362" rx="21.4286" ry="21.4286"/>
<text text-anchor="middle" x="2644.21" y="-209.162" font-family="Times,serif" font-size="9.00">500</text>
</g>
<!-- wallRadar[0.7,&#45;0.7]&#45;&gt;500 -->
<g id="edge61" class="edge"><title>wallRadar[0.7,&#45;0.7]&#45;&gt;500</title>
<path fill="none" stroke="green" stroke-width="0.434649" d="M2601.42,-268.443C2607.45,-260.537 2616.92,-248.124 2625.43,-236.984"/>
<polygon fill="green" stroke="green" stroke-width="0.434649" points="2628.38,-238.882 2631.66,-228.809 2622.81,-234.636 2628.38,-238.882"/>
</g>
<!-- enemyRadar[RightBack] -->
<g id="node9" class="node"><title>enemyRadar[RightBack]</title>
<polygon fill="lightgray" stroke="black" points="2056.21,-220.362 1952.21,-220.362 1952.21,-202.362 2056.21,-202.362 2056.21,-220.362"/>
<text text-anchor="middle" x="2004.21" y="-209.162" font-family="Times,serif" font-size="9.00">enemyRadar[RightBack]</text>
</g>
<!-- enemyRadar[RightBack]&#45;&gt;Shoot -->
<g id="edge38" class="edge"><title>enemyRadar[RightBack]&#45;&gt;Shoot</title>
<path fill="none" stroke="red" stroke-width="0.138361" d="M2002.96,-202.087C2000.35,-184.833 1994.2,-144.12 1989.65,-114.025"/>
<polygon fill="red" stroke="red" stroke-width="0.138361" points="1993.07,-113.244 1988.11,-103.879 1986.15,-114.29 1993.07,-113.244"/>
</g>
<!-- enemyRadar[RightBack]&#45;&gt; Move Left/Right -->
<g id="edge26" class="edge"><title>enemyRadar[RightBack]&#45;&gt; Move Left/Right</title>
<path fill="none" stroke="red" stroke-width="0.267367" d="M1982.09,-202.338C1970.59,-198.344 1956.25,-193.638 1943.21,-190.149 1771.4,-144.186 1564.82,-106.365 1462.35,-88.7494"/>
<polygon fill="red" stroke="red" stroke-width="0.267367" points="1462.91,-85.2949 1452.47,-87.0573 1461.73,-92.1945 1462.91,-85.2949"/>
</g>
<!-- enemyRadar[RightBack]&#45;&gt;Turn left/right -->
<g id="edge49" class="edge"><title>enemyRadar[RightBack]&#45;&gt;Turn left/right</title>
<path fill="none" stroke="red" stroke-width="0.362441" d="M1995.85,-201.995C1984.89,-191.025 1965.09,-171.174 1948.21,-154.149 1936.75,-142.587 1924.34,-130.01 1912.96,-118.473"/>
<polygon fill="red" stroke="red" stroke-width="0.362441" points="1915.17,-115.73 1905.66,-111.064 1910.19,-120.643 1915.17,-115.73"/>
</g>
<!-- enemyRadar[LeftBack] -->
<g id="node10" class="node"><title>enemyRadar[LeftBack]</title>
<polygon fill="lightgray" stroke="black" points="2528.71,-220.362 2429.71,-220.362 2429.71,-202.362 2528.71,-202.362 2528.71,-220.362"/>
<text text-anchor="middle" x="2479.21" y="-209.162" font-family="Times,serif" font-size="9.00">enemyRadar[LeftBack]</text>
</g>
<!-- enemyRadar[LeftBack]&#45;&gt;Shoot -->
<g id="edge19" class="edge"><title>enemyRadar[LeftBack]&#45;&gt;Shoot</title>
<path fill="none" stroke="green" stroke-width="0.449638" stroke-dasharray="1,5" d="M2457.6,-202.343C2446.75,-198.442 2433.36,-193.817 2421.21,-190.149 2273.87,-145.667 2095.24,-103.438 2020.17,-86.2127"/>
<polygon fill="green" stroke="green" stroke-width="0.449638" points="2020.81,-82.7682 2010.28,-83.9504 2019.25,-89.592 2020.81,-82.7682"/>
</g>
<!-- enemyRadar[LeftBack]&#45;&gt;Turn left/right -->
<g id="edge16" class="edge"><title>enemyRadar[LeftBack]&#45;&gt;Turn left/right</title>
<path fill="none" stroke="green" stroke-width="0.257171" d="M2460.23,-202.346C2449.07,-197.99 2434.57,-192.937 2421.21,-190.149 2318.02,-168.623 2043.84,-198.499 1948.21,-154.149 1932.75,-146.977 1918.72,-135.147 1907.09,-122.929"/>
<polygon fill="green" stroke="green" stroke-width="0.257171" points="1909.48,-120.357 1900.17,-115.309 1904.3,-125.064 1909.48,-120.357"/>
</g>
<!-- enemyRadar[Right45ø] -->
<g id="node11" class="node"><title>enemyRadar[Right45ø]</title>
<polygon fill="lightgray" stroke="black" points="1794.21,-220.362 1694.21,-220.362 1694.21,-202.362 1794.21,-202.362 1794.21,-220.362"/>
<text text-anchor="middle" x="1744.21" y="-209.162" font-family="Times,serif" font-size="9.00">enemyRadar[Right45ø]</text>
</g>
<!-- enemyRadar[Right45ø]&#45;&gt;Shoot -->
<g id="edge33" class="edge"><title>enemyRadar[Right45ø]&#45;&gt;Shoot</title>
<path fill="none" stroke="green" stroke-width="0.565913" d="M1766.82,-202.312C1777.76,-198.492 1791.13,-193.944 1803.21,-190.149 1858.78,-172.705 1881.53,-187.588 1929.21,-154.149 1945.16,-142.964 1958.21,-125.637 1967.59,-110.343"/>
<polygon fill="green" stroke="green" stroke-width="0.565913" points="1970.65,-112.034 1972.68,-101.635 1964.61,-108.501 1970.65,-112.034"/>
</g>
<!-- enemyRadar[Right45ø]&#45;&gt;Move Forward/Backward -->
<g id="edge23" class="edge"><title>enemyRadar[Right45ø]&#45;&gt;Move Forward/Backward</title>
<path fill="none" stroke="green" stroke-width="0.268759" d="M1724.33,-202.282C1713.04,-198.017 1698.54,-193.075 1685.21,-190.149 1532.04,-156.519 1490.13,-170.957 1334.21,-154.149 1123.64,-131.45 876.212,-103.032 748.039,-88.1801"/>
<polygon fill="green" stroke="green" stroke-width="0.268759" points="748.228,-84.6786 737.891,-87.0037 747.422,-91.632 748.228,-84.6786"/>
</g>
<!-- enemyRadar[Right45ø]&#45;&gt; Move Left/Right -->
<g id="edge18" class="edge"><title>enemyRadar[Right45ø]&#45;&gt; Move Left/Right</title>
<path fill="none" stroke="red" stroke-width="0.360874" d="M1723.09,-202.286C1671.66,-182.624 1538.39,-131.67 1459.44,-101.483"/>
<polygon fill="red" stroke="red" stroke-width="0.360874" points="1460.21,-98.0295 1449.62,-97.7274 1457.71,-104.568 1460.21,-98.0295"/>
</g>
<!-- enemyRadar[Right45ø]&#45;&gt;Turn left/right -->
<g id="edge44" class="edge"><title>enemyRadar[Right45ø]&#45;&gt;Turn left/right</title>
<path fill="none" stroke="red" stroke-width="0.255915" d="M1752.28,-202.087C1768.3,-185.661 1805.05,-147.976 1833.86,-118.43"/>
<polygon fill="red" stroke="red" stroke-width="0.255915" points="1836.52,-120.714 1841,-111.111 1831.51,-115.827 1836.52,-120.714"/>
</g>
<!-- enemyRadar[Left45ø] -->
<g id="node12" class="node"><title>enemyRadar[Left45ø]</title>
<polygon fill="lightgray" stroke="black" points="759.713,-220.362 664.713,-220.362 664.713,-202.362 759.713,-202.362 759.713,-220.362"/>
<text text-anchor="middle" x="712.213" y="-209.162" font-family="Times,serif" font-size="9.00">enemyRadar[Left45ø]</text>
</g>
<!-- enemyRadar[Left45ø]&#45;&gt;Move Forward/Backward -->
<g id="edge55" class="edge"><title>enemyRadar[Left45ø]&#45;&gt;Move Forward/Backward</title>
<path fill="none" stroke="green" stroke-width="0.10092" d="M709.023,-202.087C705.402,-192.694 699.101,-176.35 692.239,-158.551"/>
<polygon fill="green" stroke="green" stroke-width="0.10092" points="695.473,-157.211 688.61,-149.139 688.942,-159.729 695.473,-157.211"/>
</g>
<!-- enemyRadar[Left45ø]&#45;&gt; Move Left/Right -->
<g id="edge43" class="edge"><title>enemyRadar[Left45ø]&#45;&gt; Move Left/Right</title>
<path fill="none" stroke="green" stroke-width="0.352289" d="M732.272,-202.338C743.082,-198.247 756.728,-193.451 769.213,-190.149 971.934,-136.535 1218.26,-100.988 1333.24,-86.0614"/>
<polygon fill="green" stroke="green" stroke-width="0.352289" points="1333.82,-89.5161 1343.29,-84.7663 1332.92,-82.5735 1333.82,-89.5161"/>
</g>
<!-- enemyRadar[Left45ø]&#45;&gt;Turn left/right -->
<g id="edge41" class="edge"><title>enemyRadar[Left45ø]&#45;&gt;Turn left/right</title>
<path fill="none" stroke="green" stroke-width="0.285181" d="M730.571,-202.325C741.559,-197.904 755.929,-192.792 769.213,-190.149 1071.7,-129.983 1155.92,-190.293 1462.21,-154.149 1590.5,-139.011 1739.1,-108.143 1817.74,-90.7399"/>
<polygon fill="green" stroke="green" stroke-width="0.285181" points="1818.89,-94.0677 1827.9,-88.4799 1817.37,-87.2347 1818.89,-94.0677"/>
</g>
<!-- enemyRadar[RightFront20ø] -->
<g id="node13" class="node"><title>enemyRadar[RightFront20ø]</title>
<polygon fill="lightgray" stroke="black" points="1189.71,-220.362 1070.71,-220.362 1070.71,-202.362 1189.71,-202.362 1189.71,-220.362"/>
<text text-anchor="middle" x="1130.21" y="-209.162" font-family="Times,serif" font-size="9.00">enemyRadar[RightFront20ø]</text>
</g>
<!-- enemyRadar[RightFront20ø]&#45;&gt;Shoot -->
<g id="edge34" class="edge"><title>enemyRadar[RightFront20ø]&#45;&gt;Shoot</title>
<path fill="none" stroke="red" stroke-width="0.230566" d="M1152.59,-202.352C1165.94,-197.94 1183.34,-192.828 1199.21,-190.149 1279.29,-176.64 1857.83,-192.873 1929.21,-154.149 1946.58,-144.73 1959.83,-127.175 1968.97,-111.301"/>
<polygon fill="red" stroke="red" stroke-width="0.230566" points="1972.2,-112.685 1973.88,-102.223 1966.04,-109.356 1972.2,-112.685"/>
</g>
<!-- enemyRadar[RightFront20ø]&#45;&gt;Move Forward/Backward -->
<g id="edge56" class="edge"><title>enemyRadar[RightFront20ø]&#45;&gt;Move Forward/Backward</title>
<path fill="none" stroke="green" stroke-width="0.543192" d="M1103.03,-202.32C1090.34,-198.584 1075.01,-194.104 1061.21,-190.149 952.122,-158.889 826.016,-123.715 745.027,-101.249"/>
<polygon fill="green" stroke="green" stroke-width="0.543192" points="745.95,-97.8725 735.378,-98.5729 744.079,-104.618 745.95,-97.8725"/>
</g>
<!-- enemyRadar[LeftFront20ø] -->
<g id="node14" class="node"><title>enemyRadar[LeftFront20ø]</title>
<polygon fill="lightgray" stroke="black" points="1322.21,-220.362 1208.21,-220.362 1208.21,-202.362 1322.21,-202.362 1322.21,-220.362"/>
<text text-anchor="middle" x="1265.21" y="-209.162" font-family="Times,serif" font-size="9.00">enemyRadar[LeftFront20ø]</text>
</g>
<!-- enemyRadar[LeftFront20ø]&#45;&gt;Shoot -->
<g id="edge21" class="edge"><title>enemyRadar[LeftFront20ø]&#45;&gt;Shoot</title>
<path fill="none" stroke="red" stroke-width="0.725944" d="M1286.89,-202.3C1299.62,-197.928 1316.12,-192.875 1331.21,-190.149 1462.22,-166.491 1812.54,-218.264 1929.21,-154.149 1946.53,-144.636 1959.77,-127.076 1968.93,-111.223"/>
<polygon fill="red" stroke="red" stroke-width="0.725944" points="1972.15,-112.619 1973.84,-102.16 1966,-109.282 1972.15,-112.619"/>
</g>
<!-- enemyRadar[LeftFront20ø]&#45;&gt;Move Forward/Backward -->
<g id="edge37" class="edge"><title>enemyRadar[LeftFront20ø]&#45;&gt;Move Forward/Backward</title>
<path fill="none" stroke="green" stroke-width="0.705968" d="M1240.92,-202.337C1228.51,-198.39 1213.14,-193.725 1199.21,-190.149 1040.98,-149.529 853.734,-113.108 747.074,-93.4418"/>
<polygon fill="green" stroke="green" stroke-width="0.705968" points="747.475,-89.957 737.007,-91.5913 746.21,-96.8416 747.475,-89.957"/>
</g>
<!-- enemyRadar[RightFront15ø] -->
<g id="node15" class="node"><title>enemyRadar[RightFront15ø]</title>
<polygon fill="lightgray" stroke="black" points="2775.71,-286.576 2656.71,-286.576 2656.71,-268.576 2775.71,-268.576 2775.71,-286.576"/>
<text text-anchor="middle" x="2716.21" y="-275.376" font-family="Times,serif" font-size="9.00">enemyRadar[RightFront15ø]</text>
</g>
<!-- enemyRadar[LeftFront15ø] -->
<g id="node16" class="node"><title>enemyRadar[LeftFront15ø]</title>
<polygon fill="lightgray" stroke="black" points="1052.21,-220.362 938.213,-220.362 938.213,-202.362 1052.21,-202.362 1052.21,-220.362"/>
<text text-anchor="middle" x="995.213" y="-209.162" font-family="Times,serif" font-size="9.00">enemyRadar[LeftFront15ø]</text>
</g>
<!-- enemyRadar[LeftFront15ø]&#45;&gt;Shoot -->
<g id="edge48" class="edge"><title>enemyRadar[LeftFront15ø]&#45;&gt;Shoot</title>
<path fill="none" stroke="red" stroke-width="0.312167" d="M1016.91,-202.301C1029.87,-197.871 1046.76,-192.758 1062.21,-190.149 1157.28,-174.098 1844.29,-199.794 1929.21,-154.149 1946.61,-144.797 1959.87,-127.247 1969,-111.358"/>
<polygon fill="red" stroke="red" stroke-width="0.312167" points="1972.23,-112.732 1973.9,-102.269 1966.07,-109.41 1972.23,-112.732"/>
</g>
<!-- enemyRadar[LeftFront15ø]&#45;&gt;Move Forward/Backward -->
<g id="edge9" class="edge"><title>enemyRadar[LeftFront15ø]&#45;&gt;Move Forward/Backward</title>
<path fill="none" stroke="green" stroke-width="0.187103" d="M974.823,-202.286C929.729,-184.426 819.449,-140.747 742.491,-110.266"/>
<polygon fill="green" stroke="green" stroke-width="0.187103" points="743.393,-106.859 732.807,-106.431 740.815,-113.367 743.393,-106.859"/>
</g>
<!-- enemyRadar[LeftFront15ø]&#45;&gt; Move Left/Right -->
<g id="edge40" class="edge"><title>enemyRadar[LeftFront15ø]&#45;&gt; Move Left/Right</title>
<path fill="none" stroke="red" stroke-width="0.124152" d="M1019.82,-202.286C1081.81,-181.935 1245.93,-128.063 1336.32,-98.3904"/>
<polygon fill="red" stroke="red" stroke-width="0.124152" points="1337.49,-101.69 1345.9,-95.246 1335.31,-95.0395 1337.49,-101.69"/>
</g>
<!-- enemyRadar[RightFront7.5ø] -->
<g id="node17" class="node"><title>enemyRadar[RightFront7.5ø]</title>
<polygon fill="lightgray" stroke="black" points="1934.21,-220.362 1812.21,-220.362 1812.21,-202.362 1934.21,-202.362 1934.21,-220.362"/>
<text text-anchor="middle" x="1873.21" y="-209.162" font-family="Times,serif" font-size="9.00">enemyRadar[RightFront7.5ø]</text>
</g>
<!-- enemyRadar[RightFront7.5ø]&#45;&gt;Shoot -->
<g id="edge17" class="edge"><title>enemyRadar[RightFront7.5ø]&#45;&gt;Shoot</title>
<path fill="none" stroke="green" stroke-width="0.100863" stroke-dasharray="1,5" d="M1882.39,-202.007C1893.86,-191.37 1913.86,-172.199 1929.21,-154.149 1941.45,-139.755 1953.89,-122.796 1963.83,-108.547"/>
<polygon fill="green" stroke="green" stroke-width="0.100863" points="1966.88,-110.292 1969.67,-100.072 1961.12,-106.318 1966.88,-110.292"/>
</g>
<!-- enemyRadar[RightFront7.5ø]&#45;&gt;Move Forward/Backward -->
<g id="edge28" class="edge"><title>enemyRadar[RightFront7.5ø]&#45;&gt;Move Forward/Backward</title>
<path fill="none" stroke="red" stroke-width="0.125413" d="M1849.85,-202.315C1836.37,-198.004 1819.02,-193.007 1803.21,-190.149 1597.49,-152.956 1542.34,-173.893 1334.21,-154.149 1123.22,-134.133 875.716,-104.591 747.708,-88.859"/>
<polygon fill="red" stroke="red" stroke-width="0.125413" points="747.926,-85.3596 737.574,-87.6117 747.071,-92.3072 747.926,-85.3596"/>
</g>
<!-- enemyRadar[RightFront7.5ø]&#45;&gt; Move Left/Right -->
<g id="edge4" class="edge"><title>enemyRadar[RightFront7.5ø]&#45;&gt; Move Left/Right</title>
<path fill="none" stroke="red" stroke-width="0.257845" d="M1845.64,-202.323C1832.76,-198.588 1817.21,-194.107 1803.21,-190.149 1682.37,-155.982 1540.92,-117.09 1461.22,-95.2763"/>
<polygon fill="red" stroke="red" stroke-width="0.257845" points="1461.91,-91.8359 1451.34,-92.5727 1460.06,-98.5877 1461.91,-91.8359"/>
</g>
<!-- enemyRadar[RightFront7.5ø]&#45;&gt;Turn left/right -->
<g id="edge12" class="edge"><title>enemyRadar[RightFront7.5ø]&#45;&gt;Turn left/right</title>
<path fill="none" stroke="green" stroke-width="0.54556" d="M1873.21,-202.087C1873.21,-188.455 1873.21,-160.178 1873.21,-134.065"/>
<polygon fill="green" stroke="green" stroke-width="0.54556" points="1876.71,-133.819 1873.21,-123.819 1869.71,-133.819 1876.71,-133.819"/>
</g>
<!-- enemyRadar[LeftFront7.5ø] -->
<g id="node18" class="node"><title>enemyRadar[LeftFront7.5ø]</title>
<polygon fill="lightgray" stroke="black" points="2190.21,-220.362 2074.21,-220.362 2074.21,-202.362 2190.21,-202.362 2190.21,-220.362"/>
<text text-anchor="middle" x="2132.21" y="-209.162" font-family="Times,serif" font-size="9.00">enemyRadar[LeftFront7.5ø]</text>
</g>
<!-- enemyRadar[LeftFront7.5ø]&#45;&gt;Shoot -->
<g id="edge50" class="edge"><title>enemyRadar[LeftFront7.5ø]&#45;&gt;Shoot</title>
<path fill="none" stroke="green" stroke-width="0.501792" stroke-dasharray="1,5" d="M2122.96,-202.087C2101.04,-182.502 2045.32,-132.693 2011.53,-102.494"/>
<polygon fill="green" stroke="green" stroke-width="0.501792" points="2013.65,-99.6898 2003.86,-95.635 2008.98,-104.909 2013.65,-99.6898"/>
</g>
<!-- enemyRadar[LeftFront7.5ø]&#45;&gt; Move Left/Right -->
<g id="edge8" class="edge"><title>enemyRadar[LeftFront7.5ø]&#45;&gt; Move Left/Right</title>
<path fill="none" stroke="red" stroke-width="0.178084" d="M2108.56,-202.288C2095.84,-198.183 2079.8,-193.39 2065.21,-190.149 1956.49,-165.998 1927.13,-172.1 1817.21,-154.149 1691.13,-133.559 1544.36,-106.106 1462.27,-90.435"/>
<polygon fill="red" stroke="red" stroke-width="0.178084" points="1462.83,-86.9771 1452.35,-88.537 1461.51,-93.8526 1462.83,-86.9771"/>
</g>
<!-- enemyRadar[LeftFront7.5ø]&#45;&gt;Turn left/right -->
<g id="edge35" class="edge"><title>enemyRadar[LeftFront7.5ø]&#45;&gt;Turn left/right</title>
<path fill="none" stroke="red" stroke-width="0.244154" d="M2105.37,-202.253C2054.72,-186.939 1949.95,-155.198 1948.21,-154.149 1933.89,-145.477 1920.35,-133.463 1908.81,-121.541"/>
<polygon fill="red" stroke="red" stroke-width="0.244154" points="1911.29,-119.066 1901.9,-114.161 1906.18,-123.852 1911.29,-119.066"/>
</g>
<!-- enemyRadar[RightFront2.5ø] -->
<g id="node19" class="node"><title>enemyRadar[RightFront2.5ø]</title>
<polygon fill="lightgray" stroke="black" points="558.213,-220.362 436.213,-220.362 436.213,-202.362 558.213,-202.362 558.213,-220.362"/>
<text text-anchor="middle" x="497.213" y="-209.162" font-family="Times,serif" font-size="9.00">enemyRadar[RightFront2.5ø]</text>
</g>
<!-- enemyRadar[RightFront2.5ø]&#45;&gt;Move Forward/Backward -->
<g id="edge51" class="edge"><title>enemyRadar[RightFront2.5ø]&#45;&gt;Move Forward/Backward</title>
<path fill="none" stroke="green" stroke-width="0.142595" d="M507.472,-202.087C524.676,-188.21 560.691,-159.159 593.541,-132.661"/>
<polygon fill="green" stroke="green" stroke-width="0.142595" points="595.783,-135.349 601.369,-126.347 591.388,-129.901 595.783,-135.349"/>
</g>
<!-- enemyRadar[RightFront2.5ø]&#45;&gt; Move Left/Right -->
<g id="edge3" class="edge"><title>enemyRadar[RightFront2.5ø]&#45;&gt; Move Left/Right</title>
<path fill="none" stroke="green" stroke-width="0.171693" d="M521.611,-202.361C534.962,-198.225 551.865,-193.382 567.213,-190.149 849.33,-130.73 1192.28,-96.1718 1333.1,-83.57"/>
<polygon fill="green" stroke="green" stroke-width="0.171693" points="1333.64,-87.0361 1343.29,-82.6651 1333.02,-80.0636 1333.64,-87.0361"/>
</g>
<!-- enemyRadar[LeftFront2.5ø] -->
<g id="node20" class="node"><title>enemyRadar[LeftFront2.5ø]</title>
<polygon fill="lightgray" stroke="black" points="1456.21,-220.362 1340.21,-220.362 1340.21,-202.362 1456.21,-202.362 1456.21,-220.362"/>
<text text-anchor="middle" x="1398.21" y="-209.162" font-family="Times,serif" font-size="9.00">enemyRadar[LeftFront2.5ø]</text>
</g>
<!-- enemyRadar[LeftFront2.5ø]&#45;&gt;Shoot -->
<g id="edge27" class="edge"><title>enemyRadar[LeftFront2.5ø]&#45;&gt;Shoot</title>
<path fill="none" stroke="green" stroke-width="0.17914" d="M1420.55,-202.302C1433.44,-197.988 1450.05,-192.991 1465.21,-190.149 1566.87,-171.103 1839.01,-204.738 1929.21,-154.149 1946.44,-144.486 1959.69,-126.919 1968.86,-111.099"/>
<polygon fill="green" stroke="green" stroke-width="0.17914" points="1972.07,-112.514 1973.78,-102.059 1965.93,-109.164 1972.07,-112.514"/>
</g>
<!-- enemyRadar[LeftFront2.5ø]&#45;&gt;Move Forward/Backward -->
<g id="edge1" class="edge"><title>enemyRadar[LeftFront2.5ø]&#45;&gt;Move Forward/Backward</title>
<path fill="none" stroke="green" stroke-width="0.883666" d="M1374.22,-202.316C1361.54,-198.268 1345.65,-193.519 1331.21,-190.149 1124.07,-141.785 876.229,-105.938 747.862,-88.9776"/>
<polygon fill="green" stroke="green" stroke-width="0.883666" points="748.07,-85.4749 737.7,-87.6414 747.158,-92.4152 748.07,-85.4749"/>
</g>
<!-- enemyRadar[LeftFront2.5ø]&#45;&gt; Move Left/Right -->
<g id="edge14" class="edge"><title>enemyRadar[LeftFront2.5ø]&#45;&gt; Move Left/Right</title>
<path fill="none" stroke="red" stroke-width="0.409394" d="M1398.21,-202.087C1398.21,-189.912 1398.21,-166.055 1398.21,-142.491"/>
<polygon fill="red" stroke="red" stroke-width="0.409394" points="1401.71,-142.445 1398.21,-132.445 1394.71,-142.445 1401.71,-142.445"/>
</g>
<!-- enemyRadar[LeftFront2.5ø]&#45;&gt;Turn left/right -->
<g id="edge6" class="edge"><title>enemyRadar[LeftFront2.5ø]&#45;&gt;Turn left/right</title>
<path fill="none" stroke="green" stroke-width="0.435401" d="M1424.26,-202.34C1436.64,-198.568 1451.67,-194.052 1465.21,-190.149 1591.29,-153.822 1740.04,-113.63 1818.46,-92.6491"/>
<polygon fill="green" stroke="green" stroke-width="0.435401" points="1819.38,-96.0283 1828.13,-90.0643 1817.57,-89.2658 1819.38,-96.0283"/>
</g>
<!-- enemyRadar[Front7Ø] -->
<g id="node21" class="node"><title>enemyRadar[Front7Ø]</title>
<polygon fill="lightgray" stroke="black" points="1676.21,-220.362 1578.21,-220.362 1578.21,-202.362 1676.21,-202.362 1676.21,-220.362"/>
<text text-anchor="middle" x="1627.21" y="-209.162" font-family="Times,serif" font-size="9.00">enemyRadar[Front7Ø]</text>
</g>
<!-- enemyRadar[Front7Ø]&#45;&gt; Move Left/Right -->
<g id="edge36" class="edge"><title>enemyRadar[Front7Ø]&#45;&gt; Move Left/Right</title>
<path fill="none" stroke="red" stroke-width="0.785438" d="M1613.23,-202.286C1582.48,-184.522 1507.51,-141.214 1454.79,-110.757"/>
<polygon fill="red" stroke="red" stroke-width="0.785438" points="1456.28,-107.579 1445.87,-105.607 1452.78,-113.64 1456.28,-107.579"/>
</g>
<!-- enemyRadar[Front7Ø]&#45;&gt;Turn left/right -->
<g id="edge42" class="edge"><title>enemyRadar[Front7Ø]&#45;&gt;Turn left/right</title>
<path fill="none" stroke="red" stroke-width="0.518212" d="M1642.23,-202.286C1677.41,-183.369 1766.45,-135.487 1823.14,-105.001"/>
<polygon fill="red" stroke="red" stroke-width="0.518212" points="1825.14,-107.898 1832.29,-100.079 1821.83,-101.733 1825.14,-107.898"/>
</g>
<!-- OnTarget -->
<g id="node22" class="node"><title>OnTarget</title>
<polygon fill="lightgray" stroke="black" points="828.213,-220.362 778.213,-220.362 778.213,-202.362 828.213,-202.362 828.213,-220.362"/>
<text text-anchor="middle" x="803.213" y="-209.162" font-family="Times,serif" font-size="9.00">OnTarget</text>
</g>
<!-- OnTarget&#45;&gt;Move Forward/Backward -->
<g id="edge52" class="edge"><title>OnTarget&#45;&gt;Move Forward/Backward</title>
<path fill="none" stroke="red" stroke-width="0.338541" d="M794.33,-202.087C780.289,-189.006 751.775,-162.442 724.726,-137.243"/>
<polygon fill="red" stroke="red" stroke-width="0.338541" points="726.852,-134.44 717.149,-130.185 722.08,-139.562 726.852,-134.44"/>
</g>
<!-- OnTarget&#45;&gt; Move Left/Right -->
<g id="edge7" class="edge"><title>OnTarget&#45;&gt; Move Left/Right</title>
<path fill="none" stroke="red" stroke-width="0.866368" d="M815.04,-202.231C821.606,-198.058 830.072,-193.22 838.213,-190.149 1010.15,-125.31 1226.63,-95.6132 1333.05,-84.1583"/>
<polygon fill="red" stroke="red" stroke-width="0.866368" points="1333.74,-87.6057 1343.31,-83.074 1333,-80.6444 1333.74,-87.6057"/>
</g>
<!-- OnTarget&#45;&gt;Turn left/right -->
<g id="edge32" class="edge"><title>OnTarget&#45;&gt;Turn left/right</title>
<path fill="none" stroke="red" stroke-width="0.445747" d="M814.26,-202.186C820.858,-197.777 829.608,-192.723 838.213,-190.149 971.284,-150.341 1324.32,-170.822 1462.21,-154.149 1590.45,-138.644 1739.07,-107.919 1817.72,-90.6376"/>
<polygon fill="red" stroke="red" stroke-width="0.445747" points="1818.88,-93.9675 1827.89,-88.3938 1817.37,-87.1322 1818.88,-93.9675"/>
</g>
<!-- bias -->
<g id="node23" class="node"><title>bias</title>
<polygon fill="lightgray" stroke="black" points="1297.71,-286.576 1266.71,-286.576 1266.71,-268.576 1297.71,-268.576 1297.71,-286.576"/>
<text text-anchor="middle" x="1282.21" y="-275.376" font-family="Times,serif" font-size="9.00">bias</text>
</g>
<!-- bias&#45;&gt;Shoot -->
<g id="edge11" class="edge"><title>bias&#45;&gt;Shoot</title>
<path fill="none" stroke="green" stroke-width="0.588842" d="M1297.94,-276.641C1439.68,-277.159 2492.98,-279.419 2538.21,-232.576 2551.31,-219.011 2550.15,-204.745 2538.21,-190.149 2472.31,-109.577 2135.15,-85.5777 2021.6,-79.7206"/>
<polygon fill="green" stroke="green" stroke-width="0.588842" points="2021.48,-76.2108 2011.32,-79.2092 2021.14,-83.2021 2021.48,-76.2108"/>
</g>
<!-- bias&#45;&gt;Move Forward/Backward -->
<g id="edge24" class="edge"><title>bias&#45;&gt;Move Forward/Backward</title>
<path fill="none" stroke="green" stroke-width="0.363782" stroke-dasharray="1,5" d="M1266.66,-276.499C1142.41,-275.812 314.879,-269.84 279.213,-232.576 186.44,-135.643 434.65,-97.8136 574.003,-84.5144"/>
<polygon fill="green" stroke="green" stroke-width="0.363782" points="574.62,-87.9721 584.253,-83.5615 573.972,-81.0022 574.62,-87.9721"/>
</g>
<!-- bias&#45;&gt;Turn left/right -->
<g id="edge25" class="edge"><title>bias&#45;&gt;Turn left/right</title>
<path fill="none" stroke="red" stroke-width="0.895317" stroke-dasharray="1,5" d="M1298.09,-276.457C1419.6,-275.474 2198.58,-267.804 2232.21,-232.576 2245.23,-218.937 2244.68,-204.296 2232.21,-190.149 2190.15,-142.421 2005.24,-182.352 1948.21,-154.149 1933.07,-146.659 1919.21,-134.867 1907.63,-122.783"/>
<polygon fill="red" stroke="red" stroke-width="0.895317" points="1910.07,-120.261 1900.73,-115.257 1904.91,-124.993 1910.07,-120.261"/>
</g>
<!-- 542 -->
<g id="node29" class="node"><title>542</title>
<ellipse fill="white" stroke="black" cx="309.213" cy="-211.362" rx="21.4286" ry="21.4286"/>
<text text-anchor="middle" x="309.213" y="-209.162" font-family="Times,serif" font-size="9.00">542</text>
</g>
<!-- bias&#45;&gt;542 -->
<g id="edge63" class="edge"><title>bias&#45;&gt;542</title>
<path fill="none" stroke="green" stroke-width="0.3" d="M1266.43,-276.353C1150.37,-274.644 430.717,-262.875 339.213,-232.576 337.533,-232.019 335.859,-231.34 334.21,-230.572"/>
<polygon fill="green" stroke="green" stroke-width="0.3" points="335.599,-227.336 325.176,-225.439 332.141,-233.423 335.599,-227.336"/>
</g>
<!-- 448&#45;&gt;Move Forward/Backward -->
<g id="edge58" class="edge"><title>448&#45;&gt;Move Forward/Backward</title>
<path fill="none" stroke="red" stroke-width="0.173444" d="M37.6587,-197.528C41.8869,-194.732 46.5611,-192.047 51.2132,-190.149 228.19,-117.959 453.025,-91.9963 574.257,-82.8622"/>
<polygon fill="red" stroke="red" stroke-width="0.173444" points="574.515,-86.3527 584.233,-82.1311 574.004,-79.3715 574.515,-86.3527"/>
</g>
<!-- 542&#45;&gt;Move Forward/Backward -->
<g id="edge64" class="edge"><title>542&#45;&gt;Move Forward/Backward</title>
<path fill="none" stroke="green" stroke-width="0.33489" d="M325.884,-198.025C330.105,-195.214 334.72,-192.397 339.213,-190.149 416.502,-151.478 510.37,-120.462 576.765,-100.949"/>
<polygon fill="green" stroke="green" stroke-width="0.33489" points="578.145,-104.192 586.767,-98.0348 576.187,-97.4714 578.145,-104.192"/>
</g>
<!-- 500&#45;&gt;Shoot -->
<g id="edge62" class="edge"><title>500&#45;&gt;Shoot</title>
<path fill="none" stroke="green" stroke-width="0.43931" d="M2626.99,-198.834C2621.5,-195.601 2615.28,-192.366 2609.21,-190.149 2395.44,-111.977 2119.93,-86.9972 2021.33,-80.2581"/>
<polygon fill="green" stroke="green" stroke-width="0.43931" points="2021.48,-76.7603 2011.27,-79.5924 2021.02,-83.745 2021.48,-76.7603"/>
</g>
<!-- 478&#45;&gt;Move Forward/Backward -->
<g id="edge60" class="edge"><title>478&#45;&gt;Move Forward/Backward</title>
<path fill="none" stroke="red" stroke-width="0.305129" d="M97.685,-197.592C101.912,-194.794 106.58,-192.092 111.213,-190.149 266.558,-125.026 462.872,-96.7506 574.006,-85.2534"/>
<polygon fill="red" stroke="red" stroke-width="0.305129" points="574.565,-88.7148 584.162,-84.225 573.86,-81.7504 574.565,-88.7148"/>
</g>
</g>
</svg>
