<?xml version="1.0" encoding="UTF-8" standalone="no"?>
<!DOCTYPE svg PUBLIC "-//W3C//DTD SVG 1.1//EN"
 "http://www.w3.org/Graphics/SVG/1.1/DTD/svg11.dtd">
<!-- Generated by graphviz version 2.38.0 (20140413.2041)
 -->
<!-- Title: %3 Pages: 1 -->
<svg width="2539pt" height="295pt"
 viewBox="0.00 0.00 2539.48 294.58" xmlns="http://www.w3.org/2000/svg" xmlns:xlink="http://www.w3.org/1999/xlink">
<g id="graph0" class="graph" transform="scale(1 1) rotate(0) translate(4 290.576)">
<title>%3</title>
<polygon fill="white" stroke="none" points="-4,4 -4,-290.576 2535.48,-290.576 2535.48,4 -4,4"/>
<!-- wallRadar[1,0] -->
<g id="node1" class="node"><title>wallRadar[1,0]</title>
<polygon fill="lightgray" stroke="black" points="800.5,-286.576 730.5,-286.576 730.5,-268.576 800.5,-268.576 800.5,-286.576"/>
<text text-anchor="middle" x="765.5" y="-275.376" font-family="Times,serif" font-size="9.00">wallRadar[1,0]</text>
</g>
<!-- wallRadar[0,1] -->
<g id="node2" class="node"><title>wallRadar[0,1]</title>
<polygon fill="lightgray" stroke="black" points="1585.5,-220.362 1515.5,-220.362 1515.5,-202.362 1585.5,-202.362 1585.5,-220.362"/>
<text text-anchor="middle" x="1550.5" y="-209.162" font-family="Times,serif" font-size="9.00">wallRadar[0,1]</text>
</g>
<!--  Move Left/Right -->
<g id="node26" class="node"><title> Move Left/Right</title>
<ellipse fill="lightblue" stroke="black" cx="1070.5" cy="-77.0746" rx="55.3091" ry="55.3091"/>
<text text-anchor="middle" x="1070.5" y="-74.8746" font-family="Times,serif" font-size="9.00"> Move Left/Right</text>
</g>
<!-- wallRadar[0,1]&#45;&gt; Move Left/Right -->
<g id="edge44" class="edge"><title>wallRadar[0,1]&#45;&gt; Move Left/Right</title>
<path fill="none" stroke="green" stroke-width="0.150789" d="M1535.87,-202.237C1527.52,-197.957 1516.7,-193.016 1506.5,-190.149 1375.1,-153.207 1330.99,-197.321 1201.5,-154.149 1174.29,-145.077 1146.49,-129.927 1123.53,-115.524"/>
<polygon fill="green" stroke="green" stroke-width="0.150789" points="1125.3,-112.496 1114.99,-110.055 1121.52,-118.393 1125.3,-112.496"/>
</g>
<!-- Turn left/right -->
<g id="node27" class="node"><title>Turn left/right</title>
<ellipse fill="lightblue" stroke="black" cx="1653.5" cy="-77.0746" rx="46.8387" ry="46.8387"/>
<text text-anchor="middle" x="1653.5" y="-74.8746" font-family="Times,serif" font-size="9.00">Turn left/right</text>
</g>
<!-- wallRadar[0,1]&#45;&gt;Turn left/right -->
<g id="edge10" class="edge"><title>wallRadar[0,1]&#45;&gt;Turn left/right</title>
<path fill="none" stroke="green" stroke-width="0.151728" stroke-dasharray="1,5" d="M1556.94,-202.087C1569.18,-186.369 1596.58,-151.185 1619.07,-122.293"/>
<polygon fill="green" stroke="green" stroke-width="0.151728" points="1621.89,-124.373 1625.27,-114.332 1616.36,-120.072 1621.89,-124.373"/>
</g>
<!-- wallRadar[&#45;1,0] -->
<g id="node3" class="node"><title>wallRadar[&#45;1,0]</title>
<polygon fill="lightgray" stroke="black" points="1275,-220.362 1202,-220.362 1202,-202.362 1275,-202.362 1275,-220.362"/>
<text text-anchor="middle" x="1238.5" y="-209.162" font-family="Times,serif" font-size="9.00">wallRadar[&#45;1,0]</text>
</g>
<!-- Move Forward/Backward -->
<g id="node25" class="node"><title>Move Forward/Backward</title>
<ellipse fill="lightblue" stroke="black" cx="1287.5" cy="-77.0746" rx="77.1494" ry="77.1494"/>
<text text-anchor="middle" x="1287.5" y="-74.8746" font-family="Times,serif" font-size="9.00">Move Forward/Backward</text>
</g>
<!-- wallRadar[&#45;1,0]&#45;&gt;Move Forward/Backward -->
<g id="edge13" class="edge"><title>wallRadar[&#45;1,0]&#45;&gt;Move Forward/Backward</title>
<path fill="none" stroke="green" stroke-width="0.151166" d="M1241.57,-202.087C1244.98,-192.876 1250.87,-176.979 1257.31,-159.581"/>
<polygon fill="green" stroke="green" stroke-width="0.151166" points="1260.74,-160.388 1260.93,-149.794 1254.18,-157.956 1260.74,-160.388"/>
</g>
<!-- wallRadar[0,&#45;1] -->
<g id="node4" class="node"><title>wallRadar[0,&#45;1]</title>
<polygon fill="lightgray" stroke="black" points="1051,-220.362 978,-220.362 978,-202.362 1051,-202.362 1051,-220.362"/>
<text text-anchor="middle" x="1014.5" y="-209.162" font-family="Times,serif" font-size="9.00">wallRadar[0,&#45;1]</text>
</g>
<!-- Shoot -->
<g id="node24" class="node"><title>Shoot</title>
<ellipse fill="lightblue" stroke="black" cx="649.5" cy="-77.0746" rx="26.7407" ry="26.7407"/>
<text text-anchor="middle" x="649.5" y="-74.8746" font-family="Times,serif" font-size="9.00">Shoot</text>
</g>
<!-- wallRadar[0,&#45;1]&#45;&gt;Shoot -->
<g id="edge8" class="edge"><title>wallRadar[0,&#45;1]&#45;&gt;Shoot</title>
<path fill="none" stroke="green" stroke-width="0.120062" d="M996.72,-202.172C988.239,-198.363 977.912,-193.864 968.5,-190.149 866.56,-149.912 743.642,-108.755 684.563,-89.4212"/>
<polygon fill="green" stroke="green" stroke-width="0.120062" points="685.56,-86.0648 674.967,-86.2892 683.388,-92.7193 685.56,-86.0648"/>
</g>
<!-- wallRadar[0,&#45;1]&#45;&gt;Move Forward/Backward -->
<g id="edge3" class="edge"><title>wallRadar[0,&#45;1]&#45;&gt;Move Forward/Backward</title>
<path fill="none" stroke="red" stroke-width="0.297256" d="M1032.05,-202.298C1055.48,-191.494 1098.24,-171.652 1134.5,-154.149 1159.02,-142.313 1185.62,-129.187 1209.66,-117.216"/>
<polygon fill="red" stroke="red" stroke-width="0.297256" points="1211.35,-120.284 1218.74,-112.689 1208.23,-114.019 1211.35,-120.284"/>
</g>
<!-- wallRadar[0,&#45;1]&#45;&gt; Move Left/Right -->
<g id="edge14" class="edge"><title>wallRadar[0,&#45;1]&#45;&gt; Move Left/Right</title>
<path fill="none" stroke="red" stroke-width="0.27613" d="M1018,-202.087C1023.5,-189.097 1034.63,-162.809 1045.23,-137.766"/>
<polygon fill="red" stroke="red" stroke-width="0.27613" points="1048.58,-138.833 1049.26,-128.259 1042.13,-136.104 1048.58,-138.833"/>
</g>
<!-- wallRadar[0,&#45;1]&#45;&gt;Turn left/right -->
<g id="edge30" class="edge"><title>wallRadar[0,&#45;1]&#45;&gt;Turn left/right</title>
<path fill="none" stroke="green" stroke-width="0.240884" d="M1029.83,-202.24C1038.58,-197.962 1049.89,-193.02 1060.5,-190.149 1195.67,-153.574 1235.99,-180.581 1373.5,-154.149 1453.3,-138.811 1543.71,-112.596 1599.67,-95.3023"/>
<polygon fill="green" stroke="green" stroke-width="0.240884" points="1600.86,-98.5985 1609.37,-92.2881 1598.78,-91.9139 1600.86,-98.5985"/>
</g>
<!-- wallRadar[0.7,0.7] -->
<g id="node5" class="node"><title>wallRadar[0.7,0.7]</title>
<polygon fill="lightgray" stroke="black" points="2257,-220.362 2174,-220.362 2174,-202.362 2257,-202.362 2257,-220.362"/>
<text text-anchor="middle" x="2215.5" y="-209.162" font-family="Times,serif" font-size="9.00">wallRadar[0.7,0.7]</text>
</g>
<!-- wallRadar[0.7,0.7]&#45;&gt; Move Left/Right -->
<g id="edge24" class="edge"><title>wallRadar[0.7,0.7]&#45;&gt; Move Left/Right</title>
<path fill="none" stroke="green" stroke-width="0.258623" d="M2199.4,-202.345C2189.58,-197.871 2176.62,-192.698 2164.5,-190.149 1954.94,-146.062 1407.21,-213.69 1201.5,-154.149 1173.83,-146.142 1145.87,-131.064 1122.92,-116.431"/>
<polygon fill="green" stroke="green" stroke-width="0.258623" points="1124.67,-113.393 1114.38,-110.859 1120.84,-119.255 1124.67,-113.393"/>
</g>
<!-- wallRadar[0.7,0.7]&#45;&gt;Turn left/right -->
<g id="edge39" class="edge"><title>wallRadar[0.7,0.7]&#45;&gt;Turn left/right</title>
<path fill="none" stroke="green" stroke-width="0.26694" d="M2197.34,-202.337C2187.72,-198.295 2175.61,-193.546 2164.5,-190.149 2002.13,-140.522 1804.41,-103.611 1709.55,-87.3081"/>
<polygon fill="green" stroke="green" stroke-width="0.26694" points="1710.04,-83.8417 1699.6,-85.6084 1708.87,-90.7418 1710.04,-83.8417"/>
</g>
<!-- wallRadar[&#45;0.7,0.7] -->
<g id="node6" class="node"><title>wallRadar[&#45;0.7,0.7]</title>
<polygon fill="lightgray" stroke="black" points="223.5,-220.362 137.5,-220.362 137.5,-202.362 223.5,-202.362 223.5,-220.362"/>
<text text-anchor="middle" x="180.5" y="-209.162" font-family="Times,serif" font-size="9.00">wallRadar[&#45;0.7,0.7]</text>
</g>
<!-- wallRadar[&#45;0.7,0.7]&#45;&gt;Shoot -->
<g id="edge21" class="edge"><title>wallRadar[&#45;0.7,0.7]&#45;&gt;Shoot</title>
<path fill="none" stroke="green" stroke-width="0.138538" d="M200.072,-202.176C209.742,-198.281 221.639,-193.708 232.5,-190.149 371.353,-144.651 540.502,-103.466 613.32,-86.4014"/>
<polygon fill="green" stroke="green" stroke-width="0.138538" points="614.406,-89.742 623.349,-84.0611 612.815,-82.9251 614.406,-89.742"/>
</g>
<!-- wallRadar[&#45;0.7,&#45;0.7] -->
<g id="node7" class="node"><title>wallRadar[&#45;0.7,&#45;0.7]</title>
<polygon fill="lightgray" stroke="black" points="1382,-220.362 1293,-220.362 1293,-202.362 1382,-202.362 1382,-220.362"/>
<text text-anchor="middle" x="1337.5" y="-209.162" font-family="Times,serif" font-size="9.00">wallRadar[&#45;0.7,&#45;0.7]</text>
</g>
<!-- wallRadar[&#45;0.7,&#45;0.7]&#45;&gt;Move Forward/Backward -->
<g id="edge1" class="edge"><title>wallRadar[&#45;0.7,&#45;0.7]&#45;&gt;Move Forward/Backward</title>
<path fill="none" stroke="red" stroke-width="0.302223" d="M1334.37,-202.087C1330.84,-192.743 1324.71,-176.517 1318.02,-158.824"/>
<polygon fill="red" stroke="red" stroke-width="0.302223" points="1321.29,-157.584 1314.48,-149.467 1314.75,-160.059 1321.29,-157.584"/>
</g>
<!-- wallRadar[0.7,&#45;0.7] -->
<g id="node8" class="node"><title>wallRadar[0.7,&#45;0.7]</title>
<polygon fill="lightgray" stroke="black" points="959.5,-220.362 873.5,-220.362 873.5,-202.362 959.5,-202.362 959.5,-220.362"/>
<text text-anchor="middle" x="916.5" y="-209.162" font-family="Times,serif" font-size="9.00">wallRadar[0.7,&#45;0.7]</text>
</g>
<!-- wallRadar[0.7,&#45;0.7]&#45;&gt;Shoot -->
<g id="edge9" class="edge"><title>wallRadar[0.7,&#45;0.7]&#45;&gt;Shoot</title>
<path fill="none" stroke="green" stroke-width="0.282144" d="M900.2,-202.286C857.192,-180.978 740.01,-122.919 682.385,-94.3681"/>
<polygon fill="green" stroke="green" stroke-width="0.282144" points="683.853,-91.1891 673.338,-89.8856 680.745,-97.4614 683.853,-91.1891"/>
</g>
<!-- wallRadar[0.7,&#45;0.7]&#45;&gt;Turn left/right -->
<g id="edge31" class="edge"><title>wallRadar[0.7,&#45;0.7]&#45;&gt;Turn left/right</title>
<path fill="none" stroke="green" stroke-width="0.135338" d="M934.267,-202.176C944.381,-197.877 957.409,-192.937 969.5,-190.149 1145.16,-149.647 1196.05,-185.905 1373.5,-154.149 1453.49,-139.835 1543.85,-113.353 1599.75,-95.7226"/>
<polygon fill="green" stroke="green" stroke-width="0.135338" points="1600.96,-99.0093 1609.44,-92.6472 1598.85,-92.3375 1600.96,-99.0093"/>
</g>
<!-- enemyRadar[RightBack] -->
<g id="node9" class="node"><title>enemyRadar[RightBack]</title>
<polygon fill="lightgray" stroke="black" points="617.5,-220.362 513.5,-220.362 513.5,-202.362 617.5,-202.362 617.5,-220.362"/>
<text text-anchor="middle" x="565.5" y="-209.162" font-family="Times,serif" font-size="9.00">enemyRadar[RightBack]</text>
</g>
<!-- enemyRadar[RightBack]&#45;&gt;Shoot -->
<g id="edge17" class="edge"><title>enemyRadar[RightBack]&#45;&gt;Shoot</title>
<path fill="none" stroke="red" stroke-width="0.191348" d="M570.755,-202.087C582.36,-183.811 610.677,-139.215 629.993,-108.796"/>
<polygon fill="red" stroke="red" stroke-width="0.191348" points="633.019,-110.559 635.425,-100.241 627.11,-106.807 633.019,-110.559"/>
</g>
<!-- enemyRadar[RightBack]&#45;&gt;Move Forward/Backward -->
<g id="edge29" class="edge"><title>enemyRadar[RightBack]&#45;&gt;Move Forward/Backward</title>
<path fill="none" stroke="green" stroke-width="0.216038" d="M599.68,-202.286C618.671,-198.076 642.784,-193.186 664.5,-190.149 871.982,-161.138 932.53,-209.814 1134.5,-154.149 1161.13,-146.811 1188.62,-134.747 1212.84,-122.367"/>
<polygon fill="green" stroke="green" stroke-width="0.216038" points="1214.7,-125.343 1221.94,-117.616 1211.46,-119.137 1214.7,-125.343"/>
</g>
<!-- enemyRadar[RightBack]&#45;&gt; Move Left/Right -->
<g id="edge33" class="edge"><title>enemyRadar[RightBack]&#45;&gt; Move Left/Right</title>
<path fill="none" stroke="red" stroke-width="0.578969" d="M590.804,-202.307C603.055,-198.485 618.001,-193.937 631.5,-190.149 764.451,-152.842 921.498,-113.999 1007.07,-93.2698"/>
<polygon fill="red" stroke="red" stroke-width="0.578969" points="1008,-96.6469 1016.9,-90.894 1006.35,-89.8431 1008,-96.6469"/>
</g>
<!-- enemyRadar[LeftBack] -->
<g id="node10" class="node"><title>enemyRadar[LeftBack]</title>
<polygon fill="lightgray" stroke="black" points="1703,-220.362 1604,-220.362 1604,-202.362 1703,-202.362 1703,-220.362"/>
<text text-anchor="middle" x="1653.5" y="-209.162" font-family="Times,serif" font-size="9.00">enemyRadar[LeftBack]</text>
</g>
<!-- enemyRadar[LeftBack]&#45;&gt;Move Forward/Backward -->
<g id="edge28" class="edge"><title>enemyRadar[LeftBack]&#45;&gt;Move Forward/Backward</title>
<path fill="none" stroke="green" stroke-width="0.220762" d="M1631.16,-202.286C1580.35,-183.921 1454.01,-138.257 1369.5,-107.714"/>
<polygon fill="green" stroke="green" stroke-width="0.220762" points="1370.52,-104.36 1359.93,-104.252 1368.14,-110.943 1370.52,-104.36"/>
</g>
<!-- enemyRadar[LeftBack]&#45;&gt; Move Left/Right -->
<g id="edge23" class="edge"><title>enemyRadar[LeftBack]&#45;&gt; Move Left/Right</title>
<path fill="none" stroke="green" stroke-width="0.168485" d="M1633.9,-202.328C1622.57,-198.022 1607.95,-193.025 1594.5,-190.149 1422.98,-153.465 1368.6,-207.445 1201.5,-154.149 1174.17,-145.433 1146.35,-130.336 1123.42,-115.876"/>
<polygon fill="green" stroke="green" stroke-width="0.168485" points="1125.18,-112.85 1114.88,-110.38 1121.39,-118.736 1125.18,-112.85"/>
</g>
<!-- enemyRadar[LeftBack]&#45;&gt;Turn left/right -->
<g id="edge25" class="edge"><title>enemyRadar[LeftBack]&#45;&gt;Turn left/right</title>
<path fill="none" stroke="green" stroke-width="0.277151" d="M1653.5,-202.087C1653.5,-188.455 1653.5,-160.178 1653.5,-134.065"/>
<polygon fill="green" stroke="green" stroke-width="0.277151" points="1657,-133.819 1653.5,-123.819 1650,-133.819 1657,-133.819"/>
</g>
<!-- enemyRadar[Right45ø] -->
<g id="node11" class="node"><title>enemyRadar[Right45ø]</title>
<polygon fill="lightgray" stroke="black" points="2375.5,-220.362 2275.5,-220.362 2275.5,-202.362 2375.5,-202.362 2375.5,-220.362"/>
<text text-anchor="middle" x="2325.5" y="-209.162" font-family="Times,serif" font-size="9.00">enemyRadar[Right45ø]</text>
</g>
<!-- enemyRadar[Right45ø]&#45;&gt;Turn left/right -->
<g id="edge16" class="edge"><title>enemyRadar[Right45ø]&#45;&gt;Turn left/right</title>
<path fill="none" stroke="green" stroke-width="0.166367" d="M2304.43,-202.289C2293.28,-198.234 2279.28,-193.487 2266.5,-190.149 2064.45,-137.383 1818.59,-100.472 1709.86,-85.5051"/>
<polygon fill="green" stroke="green" stroke-width="0.166367" points="1710.15,-82.0128 1699.77,-84.1254 1709.2,-88.9482 1710.15,-82.0128"/>
</g>
<!-- enemyRadar[Left45ø] -->
<g id="node12" class="node"><title>enemyRadar[Left45ø]</title>
<polygon fill="lightgray" stroke="black" points="1953,-220.362 1858,-220.362 1858,-202.362 1953,-202.362 1953,-220.362"/>
<text text-anchor="middle" x="1905.5" y="-209.162" font-family="Times,serif" font-size="9.00">enemyRadar[Left45ø]</text>
</g>
<!-- enemyRadar[Left45ø]&#45;&gt;Move Forward/Backward -->
<g id="edge46" class="edge"><title>enemyRadar[Left45ø]&#45;&gt;Move Forward/Backward</title>
<path fill="none" stroke="red" stroke-width="0.138227" d="M1886.36,-202.354C1875.68,-198.165 1862.04,-193.272 1849.5,-190.149 1739.72,-162.801 1708.57,-175.658 1597.5,-154.149 1520.29,-139.199 1433.43,-117.447 1371.33,-101.028"/>
<polygon fill="red" stroke="red" stroke-width="0.138227" points="1372.15,-97.6238 1361.58,-98.441 1370.35,-104.39 1372.15,-97.6238"/>
</g>
<!-- enemyRadar[Left45ø]&#45;&gt; Move Left/Right -->
<g id="edge42" class="edge"><title>enemyRadar[Left45ø]&#45;&gt; Move Left/Right</title>
<path fill="none" stroke="red" stroke-width="0.283161" d="M1887.22,-202.236C1876.46,-197.843 1862.46,-192.79 1849.5,-190.149 1566.86,-132.576 1477.83,-236.855 1201.5,-154.149 1173.91,-145.891 1145.95,-130.777 1122.99,-116.184"/>
<polygon fill="red" stroke="red" stroke-width="0.283161" points="1124.74,-113.146 1114.45,-110.632 1120.92,-119.016 1124.74,-113.146"/>
</g>
<!-- enemyRadar[Left45ø]&#45;&gt;Turn left/right -->
<g id="edge2" class="edge"><title>enemyRadar[Left45ø]&#45;&gt;Turn left/right</title>
<path fill="none" stroke="green" stroke-width="0.65591" d="M1890.12,-202.286C1853.8,-183.224 1761.46,-134.748 1703.46,-104.301"/>
<polygon fill="green" stroke="green" stroke-width="0.65591" points="1704.94,-101.125 1694.46,-99.5761 1701.69,-107.323 1704.94,-101.125"/>
</g>
<!-- enemyRadar[RightFront20ø] -->
<g id="node13" class="node"><title>enemyRadar[RightFront20ø]</title>
<polygon fill="lightgray" stroke="black" points="119,-220.362 0,-220.362 0,-202.362 119,-202.362 119,-220.362"/>
<text text-anchor="middle" x="59.5" y="-209.162" font-family="Times,serif" font-size="9.00">enemyRadar[RightFront20ø]</text>
</g>
<!-- enemyRadar[RightFront20ø]&#45;&gt;Shoot -->
<g id="edge11" class="edge"><title>enemyRadar[RightFront20ø]&#45;&gt;Shoot</title>
<path fill="none" stroke="green" stroke-width="0.167441" d="M85.262,-202.33C98.1799,-198.426 114.102,-193.802 128.5,-190.149 309.073,-144.344 527.9,-101.26 613.097,-84.9537"/>
<polygon fill="green" stroke="green" stroke-width="0.167441" points="613.881,-88.3673 623.048,-83.0548 612.569,-81.4914 613.881,-88.3673"/>
</g>
<!-- enemyRadar[LeftFront20ø] -->
<g id="node14" class="node"><title>enemyRadar[LeftFront20ø]</title>
<polygon fill="lightgray" stroke="black" points="1183.5,-220.362 1069.5,-220.362 1069.5,-202.362 1183.5,-202.362 1183.5,-220.362"/>
<text text-anchor="middle" x="1126.5" y="-209.162" font-family="Times,serif" font-size="9.00">enemyRadar[LeftFront20ø]</text>
</g>
<!-- enemyRadar[LeftFront20ø]&#45;&gt;Shoot -->
<g id="edge36" class="edge"><title>enemyRadar[LeftFront20ø]&#45;&gt;Shoot</title>
<path fill="none" stroke="green" stroke-width="0.220924" d="M1100.85,-202.306C1088.66,-198.526 1073.85,-194.014 1060.5,-190.149 922.363,-150.173 756.967,-106.269 685.408,-87.4657"/>
<polygon fill="green" stroke="green" stroke-width="0.220924" points="686.106,-84.0305 675.545,-84.877 684.329,-90.8011 686.106,-84.0305"/>
</g>
<!-- enemyRadar[LeftFront20ø]&#45;&gt;Move Forward/Backward -->
<g id="edge18" class="edge"><title>enemyRadar[LeftFront20ø]&#45;&gt;Move Forward/Backward</title>
<path fill="none" stroke="red" stroke-width="0.167574" d="M1136.57,-202.087C1153.33,-188.321 1188.25,-159.621 1220.29,-133.296"/>
<polygon fill="red" stroke="red" stroke-width="0.167574" points="1222.86,-135.717 1228.36,-126.665 1218.42,-130.309 1222.86,-135.717"/>
</g>
<!-- enemyRadar[LeftFront20ø]&#45;&gt; Move Left/Right -->
<g id="edge6" class="edge"><title>enemyRadar[LeftFront20ø]&#45;&gt; Move Left/Right</title>
<path fill="none" stroke="red" stroke-width="0.288241" d="M1123,-202.087C1117.5,-189.097 1106.37,-162.809 1095.77,-137.766"/>
<polygon fill="red" stroke="red" stroke-width="0.288241" points="1098.87,-136.104 1091.74,-128.259 1092.42,-138.833 1098.87,-136.104"/>
</g>
<!-- enemyRadar[LeftFront20ø]&#45;&gt;Turn left/right -->
<g id="edge35" class="edge"><title>enemyRadar[LeftFront20ø]&#45;&gt;Turn left/right</title>
<path fill="none" stroke="green" stroke-width="0.494282" d="M1151.16,-202.306C1163.75,-198.351 1179.36,-193.689 1193.5,-190.149 1272.64,-170.345 1294.09,-172.855 1373.5,-154.149 1452.36,-135.572 1542.66,-110.308 1598.89,-94.0933"/>
<polygon fill="green" stroke="green" stroke-width="0.494282" points="1600.01,-97.4141 1608.64,-91.2739 1598.06,-90.6896 1600.01,-97.4141"/>
</g>
<!-- enemyRadar[RightFront15ø] -->
<g id="node15" class="node"><title>enemyRadar[RightFront15ø]</title>
<polygon fill="lightgray" stroke="black" points="1840,-220.362 1721,-220.362 1721,-202.362 1840,-202.362 1840,-220.362"/>
<text text-anchor="middle" x="1780.5" y="-209.162" font-family="Times,serif" font-size="9.00">enemyRadar[RightFront15ø]</text>
</g>
<!-- enemyRadar[RightFront15ø]&#45;&gt;Move Forward/Backward -->
<g id="edge43" class="edge"><title>enemyRadar[RightFront15ø]&#45;&gt;Move Forward/Backward</title>
<path fill="none" stroke="red" stroke-width="0.369013" d="M1754.07,-202.3C1741.51,-198.518 1726.26,-194.007 1712.5,-190.149 1594.71,-157.119 1457.77,-121.505 1371.86,-99.4967"/>
<polygon fill="red" stroke="red" stroke-width="0.369013" points="1372.72,-96.1027 1362.16,-97.0137 1370.98,-102.884 1372.72,-96.1027"/>
</g>
<!-- enemyRadar[LeftFront15ø] -->
<g id="node16" class="node"><title>enemyRadar[LeftFront15ø]</title>
<polygon fill="lightgray" stroke="black" points="355.5,-220.362 241.5,-220.362 241.5,-202.362 355.5,-202.362 355.5,-220.362"/>
<text text-anchor="middle" x="298.5" y="-209.162" font-family="Times,serif" font-size="9.00">enemyRadar[LeftFront15ø]</text>
</g>
<!-- enemyRadar[LeftFront15ø]&#45;&gt;Shoot -->
<g id="edge37" class="edge"><title>enemyRadar[LeftFront15ø]&#45;&gt;Shoot</title>
<path fill="none" stroke="red" stroke-width="0.237999" d="M319.928,-202.286C378.781,-180.106 543.29,-118.104 615.165,-91.0149"/>
<polygon fill="red" stroke="red" stroke-width="0.237999" points="616.549,-94.2339 624.672,-87.432 614.08,-87.6837 616.549,-94.2339"/>
</g>
<!-- enemyRadar[LeftFront15ø]&#45;&gt;Move Forward/Backward -->
<g id="edge32" class="edge"><title>enemyRadar[LeftFront15ø]&#45;&gt;Move Forward/Backward</title>
<path fill="none" stroke="green" stroke-width="0.42914" d="M319.868,-202.327C332.629,-197.906 349.269,-192.794 364.5,-190.149 702.043,-131.528 802.902,-240.259 1134.5,-154.149 1161.23,-147.207 1188.76,-135.252 1212.96,-122.849"/>
<polygon fill="green" stroke="green" stroke-width="0.42914" points="1214.83,-125.821 1222.07,-118.082 1211.59,-119.619 1214.83,-125.821"/>
</g>
<!-- enemyRadar[LeftFront15ø]&#45;&gt; Move Left/Right -->
<g id="edge7" class="edge"><title>enemyRadar[LeftFront15ø]&#45;&gt; Move Left/Right</title>
<path fill="none" stroke="red" stroke-width="0.366239" d="M321.138,-202.29C333.753,-198.081 349.832,-193.19 364.5,-190.149 505.071,-161.004 543.624,-176.083 685.5,-154.149 799.397,-136.541 930.87,-108.988 1006.96,-92.32"/>
<polygon fill="red" stroke="red" stroke-width="0.366239" points="1007.86,-95.7076 1016.87,-90.1427 1006.35,-88.8707 1007.86,-95.7076"/>
</g>
<!-- enemyRadar[RightFront7.5ø] -->
<g id="node17" class="node"><title>enemyRadar[RightFront7.5ø]</title>
<polygon fill="lightgray" stroke="black" points="795.5,-220.362 673.5,-220.362 673.5,-202.362 795.5,-202.362 795.5,-220.362"/>
<text text-anchor="middle" x="734.5" y="-209.162" font-family="Times,serif" font-size="9.00">enemyRadar[RightFront7.5ø]</text>
</g>
<!-- enemyRadar[RightFront7.5ø]&#45;&gt;Shoot -->
<g id="edge40" class="edge"><title>enemyRadar[RightFront7.5ø]&#45;&gt;Shoot</title>
<path fill="none" stroke="red" stroke-width="0.136834" d="M729.183,-202.087C717.407,-183.759 688.623,-138.963 669.075,-108.539"/>
<polygon fill="red" stroke="red" stroke-width="0.136834" points="671.931,-106.51 663.581,-99.9888 666.042,-110.294 671.931,-106.51"/>
</g>
<!-- enemyRadar[RightFront7.5ø]&#45;&gt;Turn left/right -->
<g id="edge5" class="edge"><title>enemyRadar[RightFront7.5ø]&#45;&gt;Turn left/right</title>
<path fill="none" stroke="red" stroke-width="0.208059" d="M757.536,-202.336C771.048,-197.976 788.548,-192.923 804.5,-190.149 1054.15,-146.743 1123.52,-195.579 1373.5,-154.149 1453.67,-140.863 1543.98,-114.114 1599.82,-96.1448"/>
<polygon fill="red" stroke="red" stroke-width="0.208059" points="1601.07,-99.4213 1609.5,-93.0078 1598.91,-92.7625 1601.07,-99.4213"/>
</g>
<!-- enemyRadar[LeftFront7.5ø] -->
<g id="node18" class="node"><title>enemyRadar[LeftFront7.5ø]</title>
<polygon fill="lightgray" stroke="black" points="2509.5,-220.362 2393.5,-220.362 2393.5,-202.362 2509.5,-202.362 2509.5,-220.362"/>
<text text-anchor="middle" x="2451.5" y="-209.162" font-family="Times,serif" font-size="9.00">enemyRadar[LeftFront7.5ø]</text>
</g>
<!-- enemyRadar[LeftFront7.5ø]&#45;&gt;Turn left/right -->
<g id="edge27" class="edge"><title>enemyRadar[LeftFront7.5ø]&#45;&gt;Turn left/right</title>
<path fill="none" stroke="red" stroke-width="0.521687" d="M2427.84,-202.335C2415.11,-198.243 2399.08,-193.448 2384.5,-190.149 2136.02,-133.915 1833.57,-97.5237 1710.09,-83.9986"/>
<polygon fill="red" stroke="red" stroke-width="0.521687" points="1710.43,-80.5145 1700.11,-82.9122 1709.67,-87.4735 1710.43,-80.5145"/>
</g>
<!-- enemyRadar[RightFront2.5ø] -->
<g id="node19" class="node"><title>enemyRadar[RightFront2.5ø]</title>
<polygon fill="lightgray" stroke="black" points="495.5,-220.362 373.5,-220.362 373.5,-202.362 495.5,-202.362 495.5,-220.362"/>
<text text-anchor="middle" x="434.5" y="-209.162" font-family="Times,serif" font-size="9.00">enemyRadar[RightFront2.5ø]</text>
</g>
<!-- enemyRadar[RightFront2.5ø]&#45;&gt;Shoot -->
<g id="edge26" class="edge"><title>enemyRadar[RightFront2.5ø]&#45;&gt;Shoot</title>
<path fill="none" stroke="green" stroke-width="0.312653" d="M447.626,-202.286C481.115,-181.681 570.459,-126.708 618.276,-97.2867"/>
<polygon fill="green" stroke="green" stroke-width="0.312653" points="620.295,-100.154 626.977,-91.9326 616.626,-94.1921 620.295,-100.154"/>
</g>
<!-- enemyRadar[RightFront2.5ø]&#45;&gt;Move Forward/Backward -->
<g id="edge15" class="edge"><title>enemyRadar[RightFront2.5ø]&#45;&gt;Move Forward/Backward</title>
<path fill="none" stroke="green" stroke-width="0.15545" d="M457.53,-202.3C471.04,-197.927 488.54,-192.874 504.5,-190.149 780.957,-142.951 863.415,-226.046 1134.5,-154.149 1161.2,-147.069 1188.71,-135.076 1212.92,-122.681"/>
<polygon fill="green" stroke="green" stroke-width="0.15545" points="1214.79,-125.654 1222.03,-117.92 1211.54,-119.451 1214.79,-125.654"/>
</g>
<!-- enemyRadar[RightFront2.5ø]&#45;&gt; Move Left/Right -->
<g id="edge38" class="edge"><title>enemyRadar[RightFront2.5ø]&#45;&gt; Move Left/Right</title>
<path fill="none" stroke="green" stroke-width="0.102387" d="M460.288,-202.343C473.447,-198.398 489.75,-193.732 504.5,-190.149 510.642,-188.657 859.165,-119.805 1006.18,-90.773"/>
<polygon fill="green" stroke="green" stroke-width="0.102387" points="1007.28,-94.1241 1016.41,-88.753 1005.92,-87.2567 1007.28,-94.1241"/>
</g>
<!-- enemyRadar[LeftFront2.5ø] -->
<g id="node20" class="node"><title>enemyRadar[LeftFront2.5ø]</title>
<polygon fill="lightgray" stroke="black" points="2155.5,-220.362 2039.5,-220.362 2039.5,-202.362 2155.5,-202.362 2155.5,-220.362"/>
<text text-anchor="middle" x="2097.5" y="-209.162" font-family="Times,serif" font-size="9.00">enemyRadar[LeftFront2.5ø]</text>
</g>
<!-- enemyRadar[LeftFront2.5ø]&#45;&gt;Move Forward/Backward -->
<g id="edge20" class="edge"><title>enemyRadar[LeftFront2.5ø]&#45;&gt;Move Forward/Backward</title>
<path fill="none" stroke="green" stroke-width="0.36034" stroke-dasharray="1,5" d="M2075.15,-202.334C2062.27,-198.03 2045.66,-193.033 2030.5,-190.149 1840.79,-154.063 1788.09,-185.258 1597.5,-154.149 1519.89,-141.481 1433.06,-119.481 1371.09,-102.388"/>
<polygon fill="green" stroke="green" stroke-width="0.36034" points="1371.93,-98.9901 1361.36,-99.689 1370.06,-105.735 1371.93,-98.9901"/>
</g>
<!-- enemyRadar[Front7Ø] -->
<g id="node21" class="node"><title>enemyRadar[Front7Ø]</title>
<polygon fill="lightgray" stroke="black" points="1497.5,-220.362 1399.5,-220.362 1399.5,-202.362 1497.5,-202.362 1497.5,-220.362"/>
<text text-anchor="middle" x="1448.5" y="-209.162" font-family="Times,serif" font-size="9.00">enemyRadar[Front7Ø]</text>
</g>
<!-- enemyRadar[Front7Ø]&#45;&gt;Shoot -->
<g id="edge45" class="edge"><title>enemyRadar[Front7Ø]&#45;&gt;Shoot</title>
<path fill="none" stroke="green" stroke-width="0.184553" d="M1429.59,-202.325C1418.65,-198.017 1404.52,-193.02 1391.5,-190.149 1223.67,-153.147 1176.39,-180.102 1006.5,-154.149 887.819,-136.019 749.278,-103.059 685.27,-87.1485"/>
<polygon fill="green" stroke="green" stroke-width="0.184553" points="685.84,-83.6833 675.29,-84.6553 684.143,-90.4746 685.84,-83.6833"/>
</g>
<!-- enemyRadar[Front7Ø]&#45;&gt;Move Forward/Backward -->
<g id="edge41" class="edge"><title>enemyRadar[Front7Ø]&#45;&gt;Move Forward/Backward</title>
<path fill="none" stroke="green" stroke-width="0.206219" d="M1438.43,-202.087C1421.67,-188.321 1386.75,-159.621 1354.71,-133.296"/>
<polygon fill="green" stroke="green" stroke-width="0.206219" points="1356.58,-130.309 1346.64,-126.665 1352.14,-135.717 1356.58,-130.309"/>
</g>
<!-- enemyRadar[Front7Ø]&#45;&gt;Turn left/right -->
<g id="edge34" class="edge"><title>enemyRadar[Front7Ø]&#45;&gt;Turn left/right</title>
<path fill="none" stroke="red" stroke-width="0.325962" d="M1461.02,-202.286C1489.17,-184.12 1558.71,-139.241 1606.03,-108.71"/>
<polygon fill="red" stroke="red" stroke-width="0.325962" points="1608.08,-111.549 1614.59,-103.186 1604.29,-105.667 1608.08,-111.549"/>
</g>
<!-- OnTarget -->
<g id="node22" class="node"><title>OnTarget</title>
<polygon fill="lightgray" stroke="black" points="2021.5,-220.362 1971.5,-220.362 1971.5,-202.362 2021.5,-202.362 2021.5,-220.362"/>
<text text-anchor="middle" x="1996.5" y="-209.162" font-family="Times,serif" font-size="9.00">OnTarget</text>
</g>
<!-- OnTarget&#45;&gt; Move Left/Right -->
<g id="edge19" class="edge"><title>OnTarget&#45;&gt; Move Left/Right</title>
<path fill="none" stroke="red" stroke-width="0.437127" d="M1986.11,-202.359C1979.68,-197.89 1971.05,-192.718 1962.5,-190.149 1638.21,-92.7352 1526.28,-249.901 1201.5,-154.149 1173.87,-146.005 1145.91,-130.907 1122.96,-116.296"/>
<polygon fill="red" stroke="red" stroke-width="0.437127" points="1124.71,-113.258 1114.41,-110.735 1120.89,-119.124 1124.71,-113.258"/>
</g>
<!-- OnTarget&#45;&gt;Turn left/right -->
<g id="edge22" class="edge"><title>OnTarget&#45;&gt;Turn left/right</title>
<path fill="none" stroke="red" stroke-width="0.331436" d="M1984.21,-202.295C1977.88,-198.337 1969.95,-193.675 1962.5,-190.149 1876.09,-149.24 1770.44,-113.876 1707.74,-94.3193"/>
<polygon fill="red" stroke="red" stroke-width="0.331436" points="1708.64,-90.9351 1698.05,-91.318 1706.57,-97.6214 1708.64,-90.9351"/>
</g>
<!-- bias -->
<g id="node23" class="node"><title>bias</title>
<polygon fill="lightgray" stroke="black" points="850,-286.576 819,-286.576 819,-268.576 850,-268.576 850,-286.576"/>
<text text-anchor="middle" x="834.5" y="-275.376" font-family="Times,serif" font-size="9.00">bias</text>
</g>
<!-- bias&#45;&gt; Move Left/Right -->
<g id="edge4" class="edge"><title>bias&#45;&gt; Move Left/Right</title>
<path fill="none" stroke="red" stroke-width="0.207476" stroke-dasharray="1,5" d="M818.945,-271.422C815.829,-270.439 812.569,-269.447 809.5,-268.576 745.622,-250.447 705.406,-284.88 664.5,-232.576 652.884,-217.723 653.078,-205.152 664.5,-190.149 705.76,-135.956 901.977,-101.286 1005.77,-86.4234"/>
<polygon fill="red" stroke="red" stroke-width="0.207476" points="1006.41,-89.8679 1015.82,-85.0046 1005.43,-82.9366 1006.41,-89.8679"/>
</g>
<!-- bias&#45;&gt;Turn left/right -->
<g id="edge12" class="edge"><title>bias&#45;&gt;Turn left/right</title>
<path fill="none" stroke="green" stroke-width="0.285133" d="M850.059,-276.471C1017.9,-275.303 2487.71,-264.178 2518.5,-232.576 2634.96,-113.032 1920.43,-84.9711 1710.35,-79.3407"/>
<polygon fill="green" stroke="green" stroke-width="0.285133" points="1710.23,-75.8366 1700.14,-79.0744 1710.05,-82.8342 1710.23,-75.8366"/>
</g>
<!-- 105 -->
<g id="node28" class="node"><title>105</title>
<ellipse fill="white" stroke="black" cx="834.5" cy="-211.362" rx="21.4286" ry="21.4286"/>
<text text-anchor="middle" x="834.5" y="-209.162" font-family="Times,serif" font-size="9.00">105</text>
</g>
<!-- bias&#45;&gt;105 -->
<g id="edge47" class="edge"><title>bias&#45;&gt;105</title>
<path fill="none" stroke="green" stroke-width="0.222622" d="M834.5,-268.443C834.5,-261.9 834.5,-252.271 834.5,-242.832"/>
<polygon fill="green" stroke="green" stroke-width="0.222622" points="838,-242.818 834.5,-232.818 831,-242.818 838,-242.818"/>
</g>
<!-- 105&#45;&gt; Move Left/Right -->
<g id="edge48" class="edge"><title>105&#45;&gt; Move Left/Right</title>
<path fill="none" stroke="red" stroke-width="0.118636" d="M851.452,-198.534C855.665,-195.708 860.205,-192.756 864.5,-190.149 913.461,-160.428 970.818,-129.528 1012.56,-107.72"/>
<polygon fill="red" stroke="red" stroke-width="0.118636" points="1014.23,-110.794 1021.49,-103.07 1011,-104.586 1014.23,-110.794"/>
</g>
</g>
</svg>
