<?xml version="1.0" encoding="UTF-8" standalone="no"?>
<!DOCTYPE svg PUBLIC "-//W3C//DTD SVG 1.1//EN"
 "http://www.w3.org/Graphics/SVG/1.1/DTD/svg11.dtd">
<!-- Generated by graphviz version 2.38.0 (20140413.2041)
 -->
<!-- Title: %3 Pages: 1 -->
<svg width="2558pt" height="216pt"
 viewBox="0.00 0.00 2558.00 216.15" xmlns="http://www.w3.org/2000/svg" xmlns:xlink="http://www.w3.org/1999/xlink">
<g id="graph0" class="graph" transform="scale(1 1) rotate(0) translate(4 212.149)">
<title>%3</title>
<polygon fill="white" stroke="none" points="-4,4 -4,-212.149 2554,-212.149 2554,4 -4,4"/>
<!-- wallRadar[1,0] -->
<g id="node1" class="node"><title>wallRadar[1,0]</title>
<polygon fill="lightgray" stroke="black" points="720,-208.149 650,-208.149 650,-190.149 720,-190.149 720,-208.149"/>
<text text-anchor="middle" x="685" y="-196.949" font-family="Times,serif" font-size="9.00">wallRadar[1,0]</text>
</g>
<!-- Shoot -->
<g id="node24" class="node"><title>Shoot</title>
<ellipse fill="lightblue" stroke="black" cx="827" cy="-77.0746" rx="26.7407" ry="26.7407"/>
<text text-anchor="middle" x="827" y="-74.8746" font-family="Times,serif" font-size="9.00">Shoot</text>
</g>
<!-- wallRadar[1,0]&#45;&gt;Shoot -->
<g id="edge22" class="edge"><title>wallRadar[1,0]&#45;&gt;Shoot</title>
<path fill="none" stroke="red" stroke-width="0.122192" d="M694.76,-189.896C716.018,-171.921 767.163,-128.673 799.256,-101.535"/>
<polygon fill="red" stroke="red" stroke-width="0.122192" points="801.599,-104.137 806.975,-95.0079 797.079,-98.7922 801.599,-104.137"/>
</g>
<!--  Move Left/Right -->
<g id="node26" class="node"><title> Move Left/Right</title>
<ellipse fill="lightblue" stroke="black" cx="1274" cy="-77.0746" rx="55.3091" ry="55.3091"/>
<text text-anchor="middle" x="1274" y="-74.8746" font-family="Times,serif" font-size="9.00"> Move Left/Right</text>
</g>
<!-- wallRadar[1,0]&#45;&gt; Move Left/Right -->
<g id="edge41" class="edge"><title>wallRadar[1,0]&#45;&gt; Move Left/Right</title>
<path fill="none" stroke="red" stroke-width="0.378607" d="M720.324,-191.541C723.589,-191.029 726.852,-190.555 730,-190.149 828.838,-177.413 1084.19,-190.439 1177,-154.149 1195,-147.113 1212.36,-135.579 1227.31,-123.593"/>
<polygon fill="red" stroke="red" stroke-width="0.378607" points="1229.89,-125.996 1235.35,-116.914 1225.42,-120.611 1229.89,-125.996"/>
</g>
<!-- Turn left/right -->
<g id="node27" class="node"><title>Turn left/right</title>
<ellipse fill="lightblue" stroke="black" cx="1121" cy="-77.0746" rx="46.8387" ry="46.8387"/>
<text text-anchor="middle" x="1121" y="-74.8746" font-family="Times,serif" font-size="9.00">Turn left/right</text>
</g>
<!-- wallRadar[1,0]&#45;&gt;Turn left/right -->
<g id="edge1" class="edge"><title>wallRadar[1,0]&#45;&gt;Turn left/right</title>
<path fill="none" stroke="red" stroke-width="0.352133" d="M719.573,-190.084C755.524,-181.584 813.378,-167.591 863,-154.149 933.716,-134.994 1014.66,-110.745 1066.73,-94.8398"/>
<polygon fill="red" stroke="red" stroke-width="0.352133" points="1067.89,-98.1452 1076.43,-91.8723 1065.84,-91.4516 1067.89,-98.1452"/>
</g>
<!-- wallRadar[0,1] -->
<g id="node2" class="node"><title>wallRadar[0,1]</title>
<polygon fill="lightgray" stroke="black" points="70,-208.149 0,-208.149 0,-190.149 70,-190.149 70,-208.149"/>
<text text-anchor="middle" x="35" y="-196.949" font-family="Times,serif" font-size="9.00">wallRadar[0,1]</text>
</g>
<!-- wallRadar[0,1]&#45;&gt;Shoot -->
<g id="edge8" class="edge"><title>wallRadar[0,1]&#45;&gt;Shoot</title>
<path fill="none" stroke="green" stroke-width="0.222384" d="M70.0473,-191.676C73.0733,-191.147 76.0894,-190.632 79,-190.149 351.675,-144.944 681.641,-98.3077 790.34,-83.1551"/>
<polygon fill="green" stroke="green" stroke-width="0.222384" points="791.031,-86.5928 800.453,-81.7473 790.066,-79.6596 791.031,-86.5928"/>
</g>
<!-- wallRadar[&#45;1,0] -->
<g id="node3" class="node"><title>wallRadar[&#45;1,0]</title>
<polygon fill="lightgray" stroke="black" points="811.5,-208.149 738.5,-208.149 738.5,-190.149 811.5,-190.149 811.5,-208.149"/>
<text text-anchor="middle" x="775" y="-196.949" font-family="Times,serif" font-size="9.00">wallRadar[&#45;1,0]</text>
</g>
<!-- wallRadar[&#45;1,0]&#45;&gt;Shoot -->
<g id="edge13" class="edge"><title>wallRadar[&#45;1,0]&#45;&gt;Shoot</title>
<path fill="none" stroke="green" stroke-width="0.129886" d="M778.574,-189.896C785.441,-174.04 800.823,-138.52 812.421,-111.738"/>
<polygon fill="green" stroke="green" stroke-width="0.129886" points="815.738,-112.887 816.5,-102.319 809.315,-110.105 815.738,-112.887"/>
</g>
<!-- wallRadar[&#45;1,0]&#45;&gt; Move Left/Right -->
<g id="edge28" class="edge"><title>wallRadar[&#45;1,0]&#45;&gt; Move Left/Right</title>
<path fill="none" stroke="red" stroke-width="0.119613" d="M811.622,-191.538C814.789,-191.039 817.948,-190.568 821,-190.149 978.55,-168.511 1029.49,-213.569 1177,-154.149 1194.92,-146.93 1212.27,-135.341 1227.21,-123.363"/>
<polygon fill="red" stroke="red" stroke-width="0.119613" points="1229.79,-125.77 1235.26,-116.693 1225.33,-120.381 1229.79,-125.77"/>
</g>
<!-- wallRadar[&#45;1,0]&#45;&gt;Turn left/right -->
<g id="edge6" class="edge"><title>wallRadar[&#45;1,0]&#45;&gt;Turn left/right</title>
<path fill="none" stroke="green" stroke-width="0.505183" d="M798.239,-190.084C852.946,-171.099 991.002,-123.189 1067.65,-96.5896"/>
<polygon fill="green" stroke="green" stroke-width="0.505183" points="1068.83,-99.8828 1077.13,-93.2976 1066.54,-93.2697 1068.83,-99.8828"/>
</g>
<!-- wallRadar[0,&#45;1] -->
<g id="node4" class="node"><title>wallRadar[0,&#45;1]</title>
<polygon fill="lightgray" stroke="black" points="2314.5,-208.149 2241.5,-208.149 2241.5,-190.149 2314.5,-190.149 2314.5,-208.149"/>
<text text-anchor="middle" x="2278" y="-196.949" font-family="Times,serif" font-size="9.00">wallRadar[0,&#45;1]</text>
</g>
<!-- Move Forward/Backward -->
<g id="node25" class="node"><title>Move Forward/Backward</title>
<ellipse fill="lightblue" stroke="black" cx="1862" cy="-77.0746" rx="77.1494" ry="77.1494"/>
<text text-anchor="middle" x="1862" y="-74.8746" font-family="Times,serif" font-size="9.00">Move Forward/Backward</text>
</g>
<!-- wallRadar[0,&#45;1]&#45;&gt;Move Forward/Backward -->
<g id="edge26" class="edge"><title>wallRadar[0,&#45;1]&#45;&gt;Move Forward/Backward</title>
<path fill="none" stroke="green" stroke-width="0.364502" d="M2250.06,-190.084C2188.74,-172.386 2040.34,-129.55 1945.84,-102.276"/>
<polygon fill="green" stroke="green" stroke-width="0.364502" points="1946.6,-98.8508 1936.02,-99.4402 1944.66,-105.576 1946.6,-98.8508"/>
</g>
<!-- wallRadar[0.7,0.7] -->
<g id="node5" class="node"><title>wallRadar[0.7,0.7]</title>
<polygon fill="lightgray" stroke="black" points="2415.5,-208.149 2332.5,-208.149 2332.5,-190.149 2415.5,-190.149 2415.5,-208.149"/>
<text text-anchor="middle" x="2374" y="-196.949" font-family="Times,serif" font-size="9.00">wallRadar[0.7,0.7]</text>
</g>
<!-- wallRadar[0.7,0.7]&#45;&gt;Move Forward/Backward -->
<g id="edge49" class="edge"><title>wallRadar[0.7,0.7]&#45;&gt;Move Forward/Backward</title>
<path fill="none" stroke="red" stroke-width="0.447914" d="M2339.61,-190.084C2260.09,-171.435 2061.56,-124.877 1947.06,-98.0227"/>
<polygon fill="red" stroke="red" stroke-width="0.447914" points="1947.8,-94.6018 1937.27,-95.726 1946.2,-101.417 1947.8,-94.6018"/>
</g>
<!-- wallRadar[&#45;0.7,0.7] -->
<g id="node6" class="node"><title>wallRadar[&#45;0.7,0.7]</title>
<polygon fill="lightgray" stroke="black" points="174,-208.149 88,-208.149 88,-190.149 174,-190.149 174,-208.149"/>
<text text-anchor="middle" x="131" y="-196.949" font-family="Times,serif" font-size="9.00">wallRadar[&#45;0.7,0.7]</text>
</g>
<!-- wallRadar[&#45;0.7,0.7]&#45;&gt;Shoot -->
<g id="edge24" class="edge"><title>wallRadar[&#45;0.7,0.7]&#45;&gt;Shoot</title>
<path fill="none" stroke="green" stroke-width="0.168149" d="M174.013,-190.729C300.885,-168.841 672.076,-104.802 790.348,-84.3979"/>
<polygon fill="green" stroke="green" stroke-width="0.168149" points="791.093,-87.8212 800.352,-82.672 789.903,-80.9231 791.093,-87.8212"/>
</g>
<!-- wallRadar[&#45;0.7,&#45;0.7] -->
<g id="node7" class="node"><title>wallRadar[&#45;0.7,&#45;0.7]</title>
<polygon fill="lightgray" stroke="black" points="1727.5,-208.149 1638.5,-208.149 1638.5,-190.149 1727.5,-190.149 1727.5,-208.149"/>
<text text-anchor="middle" x="1683" y="-196.949" font-family="Times,serif" font-size="9.00">wallRadar[&#45;0.7,&#45;0.7]</text>
</g>
<!-- wallRadar[&#45;0.7,&#45;0.7]&#45;&gt;Shoot -->
<g id="edge25" class="edge"><title>wallRadar[&#45;0.7,&#45;0.7]&#45;&gt;Shoot</title>
<path fill="none" stroke="red" stroke-width="0.484119" d="M1638.25,-191.226C1635.12,-190.833 1632.02,-190.468 1629,-190.149 1379.22,-163.722 1311.82,-200.738 1065,-154.149 990.341,-140.057 906.435,-109.638 860.883,-91.8291"/>
<polygon fill="red" stroke="red" stroke-width="0.484119" points="862.08,-88.5391 851.494,-88.124 859.511,-95.0505 862.08,-88.5391"/>
</g>
<!-- wallRadar[&#45;0.7,&#45;0.7]&#45;&gt;Move Forward/Backward -->
<g id="edge36" class="edge"><title>wallRadar[&#45;0.7,&#45;0.7]&#45;&gt;Move Forward/Backward</title>
<path fill="none" stroke="green" stroke-width="0.132589" d="M1695.02,-190.084C1714.4,-177.087 1753.98,-150.532 1789.75,-126.54"/>
<polygon fill="green" stroke="green" stroke-width="0.132589" points="1791.91,-129.305 1798.27,-120.828 1788.01,-123.492 1791.91,-129.305"/>
</g>
<!-- wallRadar[&#45;0.7,&#45;0.7]&#45;&gt; Move Left/Right -->
<g id="edge34" class="edge"><title>wallRadar[&#45;0.7,&#45;0.7]&#45;&gt; Move Left/Right</title>
<path fill="none" stroke="red" stroke-width="0.206422" d="M1655.53,-190.084C1590.79,-171.078 1427.31,-123.084 1336.77,-96.503"/>
<polygon fill="red" stroke="red" stroke-width="0.206422" points="1337.49,-93.0652 1326.9,-93.6065 1335.51,-99.7818 1337.49,-93.0652"/>
</g>
<!-- wallRadar[&#45;0.7,&#45;0.7]&#45;&gt;Turn left/right -->
<g id="edge33" class="edge"><title>wallRadar[&#45;0.7,&#45;0.7]&#45;&gt;Turn left/right</title>
<path fill="none" stroke="red" stroke-width="0.535132" d="M1638.24,-191.302C1635.12,-190.891 1632.01,-190.501 1629,-190.149 1536.18,-179.296 1296.2,-190.239 1210,-154.149 1191.16,-146.262 1173.4,-132.845 1158.77,-119.456"/>
<polygon fill="red" stroke="red" stroke-width="0.535132" points="1161.08,-116.825 1151.42,-112.485 1156.27,-121.905 1161.08,-116.825"/>
</g>
<!-- wallRadar[0.7,&#45;0.7] -->
<g id="node8" class="node"><title>wallRadar[0.7,&#45;0.7]</title>
<polygon fill="lightgray" stroke="black" points="1964,-208.149 1878,-208.149 1878,-190.149 1964,-190.149 1964,-208.149"/>
<text text-anchor="middle" x="1921" y="-196.949" font-family="Times,serif" font-size="9.00">wallRadar[0.7,&#45;0.7]</text>
</g>
<!-- wallRadar[0.7,&#45;0.7]&#45;&gt;Shoot -->
<g id="edge4" class="edge"><title>wallRadar[0.7,&#45;0.7]&#45;&gt;Shoot</title>
<path fill="none" stroke="green" stroke-width="0.152782" d="M1877.92,-191.155C1874.9,-190.778 1871.91,-190.437 1869,-190.149 1513.05,-154.903 1417.1,-217.152 1065,-154.149 990.21,-140.767 906.353,-110.086 860.844,-92.0415"/>
<polygon fill="green" stroke="green" stroke-width="0.152782" points="862.049,-88.7538 851.464,-88.2853 859.446,-95.2521 862.049,-88.7538"/>
</g>
<!-- wallRadar[0.7,&#45;0.7]&#45;&gt;Move Forward/Backward -->
<g id="edge42" class="edge"><title>wallRadar[0.7,&#45;0.7]&#45;&gt;Move Forward/Backward</title>
<path fill="none" stroke="green" stroke-width="0.119411" d="M1916.94,-189.896C1913.14,-182.159 1907.04,-169.741 1900.26,-155.94"/>
<polygon fill="green" stroke="green" stroke-width="0.119411" points="1903.27,-154.139 1895.72,-146.707 1896.99,-157.226 1903.27,-154.139"/>
</g>
<!-- wallRadar[0.7,&#45;0.7]&#45;&gt; Move Left/Right -->
<g id="edge17" class="edge"><title>wallRadar[0.7,&#45;0.7]&#45;&gt; Move Left/Right</title>
<path fill="none" stroke="red" stroke-width="0.232349" d="M1877.8,-190.131C1766.59,-169.493 1470.01,-114.451 1338.42,-90.0307"/>
<polygon fill="red" stroke="red" stroke-width="0.232349" points="1338.95,-86.5691 1328.48,-88.1855 1337.67,-93.4515 1338.95,-86.5691"/>
</g>
<!-- enemyRadar[RightBack] -->
<g id="node9" class="node"><title>enemyRadar[RightBack]</title>
<polygon fill="lightgray" stroke="black" points="2086,-208.149 1982,-208.149 1982,-190.149 2086,-190.149 2086,-208.149"/>
<text text-anchor="middle" x="2034" y="-196.949" font-family="Times,serif" font-size="9.00">enemyRadar[RightBack]</text>
</g>
<!-- enemyRadar[RightBack]&#45;&gt;Shoot -->
<g id="edge31" class="edge"><title>enemyRadar[RightBack]&#45;&gt;Shoot</title>
<path fill="none" stroke="green" stroke-width="0.124011" d="M1981.79,-190.985C1978.82,-190.676 1975.87,-190.394 1973,-190.149 1570.59,-155.855 1462.74,-224.269 1065,-154.149 990.176,-140.958 906.331,-110.207 860.834,-92.0988"/>
<polygon fill="green" stroke="green" stroke-width="0.124011" points="862.04,-88.8117 851.456,-88.3288 859.429,-95.3065 862.04,-88.8117"/>
</g>
<!-- enemyRadar[RightBack]&#45;&gt;Move Forward/Backward -->
<g id="edge40" class="edge"><title>enemyRadar[RightBack]&#45;&gt;Move Forward/Backward</title>
<path fill="none" stroke="green" stroke-width="0.193597" d="M2022.45,-190.084C2004.19,-177.336 1967.24,-151.544 1933.4,-127.921"/>
<polygon fill="green" stroke="green" stroke-width="0.193597" points="1935.08,-124.825 1924.88,-121.971 1931.07,-130.565 1935.08,-124.825"/>
</g>
<!-- enemyRadar[RightBack]&#45;&gt; Move Left/Right -->
<g id="edge27" class="edge"><title>enemyRadar[RightBack]&#45;&gt; Move Left/Right</title>
<path fill="none" stroke="green" stroke-width="0.337858" d="M1983.25,-190.131C1849.44,-168.99 1487.15,-111.75 1338.73,-88.3019"/>
<polygon fill="green" stroke="green" stroke-width="0.337858" points="1338.85,-84.7765 1328.42,-86.673 1337.75,-91.6907 1338.85,-84.7765"/>
</g>
<!-- enemyRadar[LeftBack] -->
<g id="node10" class="node"><title>enemyRadar[LeftBack]</title>
<polygon fill="lightgray" stroke="black" points="291.5,-208.149 192.5,-208.149 192.5,-190.149 291.5,-190.149 291.5,-208.149"/>
<text text-anchor="middle" x="242" y="-196.949" font-family="Times,serif" font-size="9.00">enemyRadar[LeftBack]</text>
</g>
<!-- enemyRadar[LeftBack]&#45;&gt;Shoot -->
<g id="edge5" class="edge"><title>enemyRadar[LeftBack]&#45;&gt;Shoot</title>
<path fill="none" stroke="green" stroke-width="0.25361" d="M281.292,-190.084C388.782,-168.021 686.591,-106.894 790.591,-85.5478"/>
<polygon fill="green" stroke="green" stroke-width="0.25361" points="791.513,-88.9317 800.605,-83.4924 790.105,-82.0746 791.513,-88.9317"/>
</g>
<!-- enemyRadar[LeftBack]&#45;&gt;Turn left/right -->
<g id="edge30" class="edge"><title>enemyRadar[LeftBack]&#45;&gt;Turn left/right</title>
<path fill="none" stroke="green" stroke-width="0.275439" d="M291.544,-191.172C294.742,-190.802 297.914,-190.457 301,-190.149 550.055,-165.319 616.548,-197.814 863,-154.149 935.357,-141.33 1016.24,-115.526 1067.83,-97.5449"/>
<polygon fill="green" stroke="green" stroke-width="0.275439" points="1069.16,-100.789 1077.43,-94.1713 1066.84,-94.1849 1069.16,-100.789"/>
</g>
<!-- enemyRadar[Right45ø] -->
<g id="node11" class="node"><title>enemyRadar[Right45ø]</title>
<polygon fill="lightgray" stroke="black" points="930,-208.149 830,-208.149 830,-190.149 930,-190.149 930,-208.149"/>
<text text-anchor="middle" x="880" y="-196.949" font-family="Times,serif" font-size="9.00">enemyRadar[Right45ø]</text>
</g>
<!-- enemyRadar[Right45ø]&#45;&gt;Shoot -->
<g id="edge37" class="edge"><title>enemyRadar[Right45ø]&#45;&gt;Shoot</title>
<path fill="none" stroke="green" stroke-width="0.300065" d="M876.357,-189.896C869.317,-173.946 853.493,-138.096 841.648,-111.261"/>
<polygon fill="green" stroke="green" stroke-width="0.300065" points="844.728,-109.571 837.488,-101.836 838.324,-112.397 844.728,-109.571"/>
</g>
<!-- enemyRadar[Right45ø]&#45;&gt; Move Left/Right -->
<g id="edge35" class="edge"><title>enemyRadar[Right45ø]&#45;&gt; Move Left/Right</title>
<path fill="none" stroke="green" stroke-width="0.443781" d="M930.003,-191.421C1011.67,-180.335 1165.78,-158.975 1177,-154.149 1194.75,-146.517 1212.04,-134.807 1227,-122.844"/>
<polygon fill="green" stroke="green" stroke-width="0.443781" points="1229.57,-125.261 1235.05,-116.196 1225.11,-119.862 1229.57,-125.261"/>
</g>
<!-- enemyRadar[Right45ø]&#45;&gt;Turn left/right -->
<g id="edge3" class="edge"><title>enemyRadar[Right45ø]&#45;&gt;Turn left/right</title>
<path fill="none" stroke="green" stroke-width="0.374769" d="M896.187,-190.084C931.205,-172.637 1015.25,-130.762 1070.07,-103.448"/>
<polygon fill="green" stroke="green" stroke-width="0.374769" points="1071.89,-106.453 1079.28,-98.861 1068.77,-100.188 1071.89,-106.453"/>
</g>
<!-- enemyRadar[Left45ø] -->
<g id="node12" class="node"><title>enemyRadar[Left45ø]</title>
<polygon fill="lightgray" stroke="black" points="1043.5,-208.149 948.5,-208.149 948.5,-190.149 1043.5,-190.149 1043.5,-208.149"/>
<text text-anchor="middle" x="996" y="-196.949" font-family="Times,serif" font-size="9.00">enemyRadar[Left45ø]</text>
</g>
<!-- enemyRadar[Left45ø]&#45;&gt;Shoot -->
<g id="edge16" class="edge"><title>enemyRadar[Left45ø]&#45;&gt;Shoot</title>
<path fill="none" stroke="green" stroke-width="0.435783" d="M984.649,-190.084C958.779,-171.704 894.748,-126.21 856.724,-99.1933"/>
<polygon fill="green" stroke="green" stroke-width="0.435783" points="858.749,-96.3391 848.57,-93.4003 854.695,-102.045 858.749,-96.3391"/>
</g>
<!-- enemyRadar[Left45ø]&#45;&gt;Move Forward/Backward -->
<g id="edge14" class="edge"><title>enemyRadar[Left45ø]&#45;&gt;Move Forward/Backward</title>
<path fill="none" stroke="green" stroke-width="0.183252" d="M1043.58,-191.422C1046.77,-190.986 1049.93,-190.559 1053,-190.149 1179.55,-173.276 1211.49,-171.322 1338,-154.149 1492.27,-133.209 1671.76,-106.68 1775.58,-91.1218"/>
<polygon fill="green" stroke="green" stroke-width="0.183252" points="1776.33,-94.5492 1785.7,-89.6047 1775.29,-87.6266 1776.33,-94.5492"/>
</g>
<!-- enemyRadar[Left45ø]&#45;&gt;Turn left/right -->
<g id="edge29" class="edge"><title>enemyRadar[Left45ø]&#45;&gt;Turn left/right</title>
<path fill="none" stroke="red" stroke-width="0.162488" d="M1004.59,-189.896C1020.02,-175.076 1053.33,-143.076 1080.38,-117.09"/>
<polygon fill="red" stroke="red" stroke-width="0.162488" points="1083.04,-119.391 1087.83,-109.94 1078.19,-114.343 1083.04,-119.391"/>
</g>
<!-- enemyRadar[RightFront20ø] -->
<g id="node13" class="node"><title>enemyRadar[RightFront20ø]</title>
<polygon fill="lightgray" stroke="black" points="2223.5,-208.149 2104.5,-208.149 2104.5,-190.149 2223.5,-190.149 2223.5,-208.149"/>
<text text-anchor="middle" x="2164" y="-196.949" font-family="Times,serif" font-size="9.00">enemyRadar[RightFront20ø]</text>
</g>
<!-- enemyRadar[RightFront20ø]&#45;&gt;Move Forward/Backward -->
<g id="edge20" class="edge"><title>enemyRadar[RightFront20ø]&#45;&gt;Move Forward/Backward</title>
<path fill="none" stroke="red" stroke-width="0.178276" d="M2143.72,-190.084C2103.3,-174.014 2010.75,-137.218 1942.71,-110.166"/>
<polygon fill="red" stroke="red" stroke-width="0.178276" points="1943.87,-106.859 1933.28,-106.417 1941.28,-113.364 1943.87,-106.859"/>
</g>
<!-- enemyRadar[RightFront20ø]&#45;&gt; Move Left/Right -->
<g id="edge43" class="edge"><title>enemyRadar[RightFront20ø]&#45;&gt; Move Left/Right</title>
<path fill="none" stroke="red" stroke-width="0.121575" d="M2104.16,-191.2C2101.06,-190.844 2098,-190.492 2095,-190.149 1953.25,-173.933 1917.45,-172.842 1776,-154.149 1618.54,-133.341 1434.04,-104.137 1338.58,-88.6644"/>
<polygon fill="red" stroke="red" stroke-width="0.121575" points="1338.93,-85.1764 1328.5,-87.0288 1337.81,-92.086 1338.93,-85.1764"/>
</g>
<!-- enemyRadar[LeftFront20ø] -->
<g id="node14" class="node"><title>enemyRadar[LeftFront20ø]</title>
<polygon fill="lightgray" stroke="black" points="1860,-208.149 1746,-208.149 1746,-190.149 1860,-190.149 1860,-208.149"/>
<text text-anchor="middle" x="1803" y="-196.949" font-family="Times,serif" font-size="9.00">enemyRadar[LeftFront20ø]</text>
</g>
<!-- enemyRadar[LeftFront20ø]&#45;&gt;Shoot -->
<g id="edge47" class="edge"><title>enemyRadar[LeftFront20ø]&#45;&gt;Shoot</title>
<path fill="none" stroke="green" stroke-width="0.167066" d="M1745.79,-190.976C1742.82,-190.678 1739.87,-190.4 1737,-190.149 1439.04,-164.139 1359.18,-208.122 1065,-154.149 990.27,-140.439 906.39,-109.879 860.861,-91.9433"/>
<polygon fill="green" stroke="green" stroke-width="0.167066" points="862.063,-88.6547 851.478,-88.2108 859.476,-95.159 862.063,-88.6547"/>
</g>
<!-- enemyRadar[LeftFront20ø]&#45;&gt;Move Forward/Backward -->
<g id="edge18" class="edge"><title>enemyRadar[LeftFront20ø]&#45;&gt;Move Forward/Backward</title>
<path fill="none" stroke="red" stroke-width="0.242739" d="M1807.06,-189.896C1810.86,-182.159 1816.96,-169.741 1823.74,-155.94"/>
<polygon fill="red" stroke="red" stroke-width="0.242739" points="1827.01,-157.226 1828.28,-146.707 1820.73,-154.139 1827.01,-157.226"/>
</g>
<!-- enemyRadar[LeftFront20ø]&#45;&gt; Move Left/Right -->
<g id="edge51" class="edge"><title>enemyRadar[LeftFront20ø]&#45;&gt; Move Left/Right</title>
<path fill="none" stroke="red" stroke-width="0.218947" d="M1767.47,-190.084C1679.32,-170.076 1449.63,-117.941 1337.48,-92.4828"/>
<polygon fill="red" stroke="red" stroke-width="0.218947" points="1338.18,-89.0527 1327.65,-90.2523 1336.63,-95.8791 1338.18,-89.0527"/>
</g>
<!-- enemyRadar[LeftFront20ø]&#45;&gt;Turn left/right -->
<g id="edge50" class="edge"><title>enemyRadar[LeftFront20ø]&#45;&gt;Turn left/right</title>
<path fill="none" stroke="red" stroke-width="0.112662" d="M1745.78,-191.028C1742.81,-190.717 1739.87,-190.421 1737,-190.149 1620.14,-179.083 1318.67,-198.531 1210,-154.149 1191.09,-146.427 1173.31,-133.046 1158.69,-119.638"/>
<polygon fill="red" stroke="red" stroke-width="0.112662" points="1161.01,-117.007 1151.35,-112.655 1156.18,-122.081 1161.01,-117.007"/>
</g>
<!-- enemyRadar[RightFront15ø] -->
<g id="node15" class="node"><title>enemyRadar[RightFront15ø]</title>
<polygon fill="lightgray" stroke="black" points="1180.5,-208.149 1061.5,-208.149 1061.5,-190.149 1180.5,-190.149 1180.5,-208.149"/>
<text text-anchor="middle" x="1121" y="-196.949" font-family="Times,serif" font-size="9.00">enemyRadar[RightFront15ø]</text>
</g>
<!-- enemyRadar[RightFront15ø]&#45;&gt;Shoot -->
<g id="edge44" class="edge"><title>enemyRadar[RightFront15ø]&#45;&gt;Shoot</title>
<path fill="none" stroke="green" stroke-width="0.144857" d="M1101.25,-190.084C1051.88,-169.92 922.614,-117.125 860.831,-91.8919"/>
<polygon fill="green" stroke="green" stroke-width="0.144857" points="862.098,-88.6288 851.517,-88.0879 859.452,-95.1092 862.098,-88.6288"/>
</g>
<!-- enemyRadar[RightFront15ø]&#45;&gt;Move Forward/Backward -->
<g id="edge39" class="edge"><title>enemyRadar[RightFront15ø]&#45;&gt;Move Forward/Backward</title>
<path fill="none" stroke="red" stroke-width="0.128158" d="M1170.48,-190.131C1294.47,-170.039 1619.68,-117.341 1775.86,-92.0333"/>
<polygon fill="red" stroke="red" stroke-width="0.128158" points="1776.59,-95.4611 1785.9,-90.4065 1775.47,-88.5513 1776.59,-95.4611"/>
</g>
<!-- enemyRadar[RightFront15ø]&#45;&gt; Move Left/Right -->
<g id="edge2" class="edge"><title>enemyRadar[RightFront15ø]&#45;&gt; Move Left/Right</title>
<path fill="none" stroke="red" stroke-width="0.27233" d="M1131.52,-189.896C1150.13,-175.291 1189.99,-144.002 1222.84,-118.226"/>
<polygon fill="red" stroke="red" stroke-width="0.27233" points="1225.31,-120.733 1231.02,-111.805 1220.99,-115.226 1225.31,-120.733"/>
</g>
<!-- enemyRadar[RightFront15ø]&#45;&gt;Turn left/right -->
<g id="edge46" class="edge"><title>enemyRadar[RightFront15ø]&#45;&gt;Turn left/right</title>
<path fill="none" stroke="red" stroke-width="0.357049" d="M1121,-189.896C1121,-178.186 1121,-155.752 1121,-134.032"/>
<polygon fill="red" stroke="red" stroke-width="0.357049" points="1124.5,-133.812 1121,-123.812 1117.5,-133.812 1124.5,-133.812"/>
</g>
<!-- enemyRadar[LeftFront15ø] -->
<g id="node16" class="node"><title>enemyRadar[LeftFront15ø]</title>
<polygon fill="lightgray" stroke="black" points="492,-208.149 378,-208.149 378,-190.149 492,-190.149 492,-208.149"/>
<text text-anchor="middle" x="435" y="-196.949" font-family="Times,serif" font-size="9.00">enemyRadar[LeftFront15ø]</text>
</g>
<!-- enemyRadar[LeftFront15ø]&#45;&gt;Shoot -->
<g id="edge7" class="edge"><title>enemyRadar[LeftFront15ø]&#45;&gt;Shoot</title>
<path fill="none" stroke="red" stroke-width="0.111324" d="M461.329,-190.084C529.919,-169.075 714.152,-112.641 791.763,-88.8682"/>
<polygon fill="red" stroke="red" stroke-width="0.111324" points="793.015,-92.1451 801.552,-85.8697 790.965,-85.4521 793.015,-92.1451"/>
</g>
<!-- enemyRadar[LeftFront15ø]&#45;&gt; Move Left/Right -->
<g id="edge23" class="edge"><title>enemyRadar[LeftFront15ø]&#45;&gt; Move Left/Right</title>
<path fill="none" stroke="red" stroke-width="0.136508" d="M492.213,-190.975C495.183,-190.678 498.125,-190.4 501,-190.149 650.867,-177.091 1036.16,-207.023 1177,-154.149 1195.09,-147.358 1212.48,-135.896 1227.42,-123.901"/>
<polygon fill="red" stroke="red" stroke-width="0.136508" points="1230.01,-126.298 1235.46,-117.209 1225.54,-120.919 1230.01,-126.298"/>
</g>
<!-- enemyRadar[RightFront7.5ø] -->
<g id="node17" class="node"><title>enemyRadar[RightFront7.5ø]</title>
<polygon fill="lightgray" stroke="black" points="632,-208.149 510,-208.149 510,-190.149 632,-190.149 632,-208.149"/>
<text text-anchor="middle" x="571" y="-196.949" font-family="Times,serif" font-size="9.00">enemyRadar[RightFront7.5ø]</text>
</g>
<!-- enemyRadar[RightFront7.5ø]&#45;&gt;Shoot -->
<g id="edge48" class="edge"><title>enemyRadar[RightFront7.5ø]&#45;&gt;Shoot</title>
<path fill="none" stroke="red" stroke-width="0.152125" d="M588.194,-190.084C630.18,-170.392 738.516,-119.577 793.671,-93.7072"/>
<polygon fill="red" stroke="red" stroke-width="0.152125" points="795.438,-96.7445 803.005,-89.3292 792.465,-90.407 795.438,-96.7445"/>
</g>
<!-- enemyRadar[RightFront7.5ø]&#45;&gt; Move Left/Right -->
<g id="edge9" class="edge"><title>enemyRadar[RightFront7.5ø]&#45;&gt; Move Left/Right</title>
<path fill="none" stroke="red" stroke-width="0.178786" d="M632.066,-191C635.086,-190.7 638.076,-190.414 641,-190.149 759.892,-179.369 1065.53,-196.881 1177,-154.149 1195.04,-147.233 1212.42,-135.734 1227.36,-123.744"/>
<polygon fill="red" stroke="red" stroke-width="0.178786" points="1229.95,-126.144 1235.4,-117.058 1225.48,-120.762 1229.95,-126.144"/>
</g>
<!-- enemyRadar[LeftFront7.5ø] -->
<g id="node18" class="node"><title>enemyRadar[LeftFront7.5ø]</title>
<polygon fill="lightgray" stroke="black" points="1364,-208.149 1248,-208.149 1248,-190.149 1364,-190.149 1364,-208.149"/>
<text text-anchor="middle" x="1306" y="-196.949" font-family="Times,serif" font-size="9.00">enemyRadar[LeftFront7.5ø]</text>
</g>
<!-- enemyRadar[LeftFront7.5ø]&#45;&gt; Move Left/Right -->
<g id="edge54" class="edge"><title>enemyRadar[LeftFront7.5ø]&#45;&gt; Move Left/Right</title>
<path fill="none" stroke="green" stroke-width="0.199659" d="M1303.8,-189.896C1300.99,-179.335 1295.85,-160.049 1290.62,-140.433"/>
<polygon fill="green" stroke="green" stroke-width="0.199659" points="1293.93,-139.264 1287.97,-130.502 1287.17,-141.066 1293.93,-139.264"/>
</g>
<!-- enemyRadar[LeftFront7.5ø]&#45;&gt;Turn left/right -->
<g id="edge15" class="edge"><title>enemyRadar[LeftFront7.5ø]&#45;&gt;Turn left/right</title>
<path fill="none" stroke="red" stroke-width="0.231613" d="M1283.76,-190C1263.7,-182.185 1233.79,-169.35 1210,-154.149 1193.38,-143.531 1176.57,-130.032 1162.11,-117.363"/>
<polygon fill="red" stroke="red" stroke-width="0.231613" points="1164.12,-114.472 1154.33,-110.433 1159.47,-119.699 1164.12,-114.472"/>
</g>
<!-- enemyRadar[RightFront2.5ø] -->
<g id="node19" class="node"><title>enemyRadar[RightFront2.5ø]</title>
<polygon fill="lightgray" stroke="black" points="1504,-208.149 1382,-208.149 1382,-190.149 1504,-190.149 1504,-208.149"/>
<text text-anchor="middle" x="1443" y="-196.949" font-family="Times,serif" font-size="9.00">enemyRadar[RightFront2.5ø]</text>
</g>
<!-- enemyRadar[RightFront2.5ø]&#45;&gt; Move Left/Right -->
<g id="edge11" class="edge"><title>enemyRadar[RightFront2.5ø]&#45;&gt; Move Left/Right</title>
<path fill="none" stroke="red" stroke-width="0.249419" d="M1431.65,-190.084C1410.53,-175.077 1363.96,-141.994 1326.89,-115.652"/>
<polygon fill="red" stroke="red" stroke-width="0.249419" points="1328.83,-112.74 1318.65,-109.801 1324.78,-118.447 1328.83,-112.74"/>
</g>
<!-- enemyRadar[RightFront2.5ø]&#45;&gt;Turn left/right -->
<g id="edge19" class="edge"><title>enemyRadar[RightFront2.5ø]&#45;&gt;Turn left/right</title>
<path fill="none" stroke="green" stroke-width="0.271776" d="M1381.81,-190.232C1323.29,-182.012 1239.7,-168.384 1210,-154.149 1191.74,-145.396 1174.21,-131.933 1159.61,-118.752"/>
<polygon fill="green" stroke="green" stroke-width="0.271776" points="1161.96,-116.159 1152.25,-111.912 1157.19,-121.285 1161.96,-116.159"/>
</g>
<!-- enemyRadar[LeftFront2.5ø] -->
<g id="node20" class="node"><title>enemyRadar[LeftFront2.5ø]</title>
<polygon fill="lightgray" stroke="black" points="2550,-208.149 2434,-208.149 2434,-190.149 2550,-190.149 2550,-208.149"/>
<text text-anchor="middle" x="2492" y="-196.949" font-family="Times,serif" font-size="9.00">enemyRadar[LeftFront2.5ø]</text>
</g>
<!-- enemyRadar[Front7Ø] -->
<g id="node21" class="node"><title>enemyRadar[Front7Ø]</title>
<polygon fill="lightgray" stroke="black" points="1620,-208.149 1522,-208.149 1522,-190.149 1620,-190.149 1620,-208.149"/>
<text text-anchor="middle" x="1571" y="-196.949" font-family="Times,serif" font-size="9.00">enemyRadar[Front7Ø]</text>
</g>
<!-- enemyRadar[Front7Ø]&#45;&gt; Move Left/Right -->
<g id="edge10" class="edge"><title>enemyRadar[Front7Ø]&#45;&gt; Move Left/Right</title>
<path fill="none" stroke="red" stroke-width="0.10081" d="M1551.05,-190.084C1507.42,-172.443 1402.01,-129.826 1334.52,-102.541"/>
<polygon fill="red" stroke="red" stroke-width="0.10081" points="1335.43,-99.1343 1324.85,-98.6309 1332.8,-105.624 1335.43,-99.1343"/>
</g>
<!-- enemyRadar[Front7Ø]&#45;&gt;Turn left/right -->
<g id="edge53" class="edge"><title>enemyRadar[Front7Ø]&#45;&gt;Turn left/right</title>
<path fill="none" stroke="red" stroke-width="0.104773" d="M1521.96,-191.319C1518.93,-190.918 1515.92,-190.525 1513,-190.149 1378.49,-172.884 1334.22,-208.549 1210,-154.149 1191.45,-146.025 1173.86,-132.702 1159.29,-119.457"/>
<polygon fill="red" stroke="red" stroke-width="0.104773" points="1161.64,-116.864 1151.95,-112.566 1156.84,-121.964 1161.64,-116.864"/>
</g>
<!-- OnTarget -->
<g id="node22" class="node"><title>OnTarget</title>
<polygon fill="lightgray" stroke="black" points="360,-208.149 310,-208.149 310,-190.149 360,-190.149 360,-208.149"/>
<text text-anchor="middle" x="335" y="-196.949" font-family="Times,serif" font-size="9.00">OnTarget</text>
</g>
<!-- OnTarget&#45;&gt;Shoot -->
<g id="edge55" class="edge"><title>OnTarget&#45;&gt;Shoot</title>
<path fill="none" stroke="green" stroke-width="0.42578" d="M360.075,-192.03C441.141,-172.245 696.373,-109.955 791.126,-86.8297"/>
<polygon fill="green" stroke="green" stroke-width="0.42578" points="792.203,-90.1697 801.088,-84.3985 790.544,-83.3693 792.203,-90.1697"/>
</g>
<!-- OnTarget&#45;&gt; Move Left/Right -->
<g id="edge32" class="edge"><title>OnTarget&#45;&gt; Move Left/Right</title>
<path fill="none" stroke="green" stroke-width="0.177604" d="M360.152,-191.679C363.12,-191.08 366.117,-190.549 369,-190.149 547.03,-165.459 1008.46,-216.59 1177,-154.149 1195.12,-147.437 1212.52,-135.997 1227.46,-124"/>
<polygon fill="green" stroke="green" stroke-width="0.177604" points="1230.05,-126.395 1235.49,-117.304 1225.57,-121.017 1230.05,-126.395"/>
</g>
<!-- OnTarget&#45;&gt;Turn left/right -->
<g id="edge21" class="edge"><title>OnTarget&#45;&gt;Turn left/right</title>
<path fill="none" stroke="red" stroke-width="0.145893" d="M360.164,-191.76C363.129,-191.146 366.123,-190.59 369,-190.149 586.602,-156.835 646.409,-193.504 863,-154.149 935.3,-141.012 1016.2,-115.282 1067.81,-97.4035"/>
<polygon fill="red" stroke="red" stroke-width="0.145893" points="1069.12,-100.651 1077.41,-94.0501 1066.82,-94.0426 1069.12,-100.651"/>
</g>
<!-- bias -->
<g id="node23" class="node"><title>bias</title>
<polygon fill="lightgray" stroke="black" points="1229.5,-208.149 1198.5,-208.149 1198.5,-190.149 1229.5,-190.149 1229.5,-208.149"/>
<text text-anchor="middle" x="1214" y="-196.949" font-family="Times,serif" font-size="9.00">bias</text>
</g>
<!-- bias&#45;&gt;Shoot -->
<g id="edge52" class="edge"><title>bias&#45;&gt;Shoot</title>
<path fill="none" stroke="green" stroke-width="0.249067" d="M1198.28,-192.806C1195.53,-191.9 1192.68,-190.983 1190,-190.149 1134.79,-173.004 1120.32,-170.952 1065,-154.149 992.496,-132.126 908.124,-104.737 861.839,-89.5594"/>
<polygon fill="green" stroke="green" stroke-width="0.249067" points="862.878,-86.2169 852.286,-86.4226 860.695,-92.8675 862.878,-86.2169"/>
</g>
<!-- bias&#45;&gt;Move Forward/Backward -->
<g id="edge12" class="edge"><title>bias&#45;&gt;Move Forward/Backward</title>
<path fill="none" stroke="green" stroke-width="0.435447" d="M1229.51,-192.836C1232.63,-191.867 1235.9,-190.919 1239,-190.149 1428.3,-143.051 1654.62,-107.383 1775.6,-89.9384"/>
<polygon fill="green" stroke="green" stroke-width="0.435447" points="1776.15,-93.3955 1785.55,-88.5105 1775.16,-86.4665 1776.15,-93.3955"/>
</g>
<!-- bias&#45;&gt; Move Left/Right -->
<g id="edge45" class="edge"><title>bias&#45;&gt; Move Left/Right</title>
<path fill="none" stroke="green" stroke-width="0.164441" d="M1218.12,-189.896C1223.82,-178.491 1234.61,-156.912 1245.19,-135.729"/>
<polygon fill="green" stroke="green" stroke-width="0.164441" points="1248.36,-137.215 1249.7,-126.705 1242.1,-134.086 1248.36,-137.215"/>
</g>
<!-- bias&#45;&gt;Turn left/right -->
<g id="edge38" class="edge"><title>bias&#45;&gt;Turn left/right</title>
<path fill="none" stroke="red" stroke-width="0.345043" d="M1207.61,-189.896C1196.91,-176.079 1174.64,-147.328 1155.36,-122.441"/>
<polygon fill="red" stroke="red" stroke-width="0.345043" points="1158.12,-120.283 1149.23,-114.52 1152.58,-124.569 1158.12,-120.283"/>
</g>
</g>
</svg>
