<?xml version="1.0" encoding="UTF-8" standalone="no"?>
<!DOCTYPE svg PUBLIC "-//W3C//DTD SVG 1.1//EN"
 "http://www.w3.org/Graphics/SVG/1.1/DTD/svg11.dtd">
<!-- Generated by graphviz version 2.38.0 (20140413.2041)
 -->
<!-- Title: %3 Pages: 1 -->
<svg width="2433pt" height="636pt"
 viewBox="0.00 0.00 2432.50 635.92" xmlns="http://www.w3.org/2000/svg" xmlns:xlink="http://www.w3.org/1999/xlink">
<g id="graph0" class="graph" transform="scale(1 1) rotate(0) translate(4 631.921)">
<title>%3</title>
<polygon fill="white" stroke="none" points="-4,4 -4,-631.921 2428.5,-631.921 2428.5,4 -4,4"/>
<!-- wallRadar[1,0] -->
<g id="node1" class="node"><title>wallRadar[1,0]</title>
<polygon fill="lightgray" stroke="black" points="324,-409.035 254,-409.035 254,-391.035 324,-391.035 324,-409.035"/>
<text text-anchor="middle" x="289" y="-397.835" font-family="Times,serif" font-size="9.00">wallRadar[1,0]</text>
</g>
<!-- Move Forward/Backward -->
<g id="node25" class="node"><title>Move Forward/Backward</title>
<ellipse fill="lightblue" stroke="black" cx="338" cy="-259.383" rx="77.1494" ry="77.1494"/>
<text text-anchor="middle" x="338" y="-257.183" font-family="Times,serif" font-size="9.00">Move Forward/Backward</text>
</g>
<!-- wallRadar[1,0]&#45;&gt;Move Forward/Backward -->
<g id="edge7" class="edge"><title>wallRadar[1,0]&#45;&gt;Move Forward/Backward</title>
<path fill="none" stroke="green" stroke-width="0.41939" stroke-dasharray="1,5" d="M291.918,-390.777C295.547,-380.51 302.131,-361.879 309.209,-341.852"/>
<polygon fill="green" stroke="green" stroke-width="0.41939" points="312.566,-342.855 312.598,-332.26 305.966,-340.522 312.566,-342.855"/>
</g>
<!-- wallRadar[0,1] -->
<g id="node2" class="node"><title>wallRadar[0,1]</title>
<polygon fill="lightgray" stroke="black" points="1277,-627.921 1207,-627.921 1207,-609.921 1277,-609.921 1277,-627.921"/>
<text text-anchor="middle" x="1242" y="-616.721" font-family="Times,serif" font-size="9.00">wallRadar[0,1]</text>
</g>
<!-- wallRadar[&#45;1,0] -->
<g id="node3" class="node"><title>wallRadar[&#45;1,0]</title>
<polygon fill="lightgray" stroke="black" points="932.5,-127.731 859.5,-127.731 859.5,-109.731 932.5,-109.731 932.5,-127.731"/>
<text text-anchor="middle" x="896" y="-116.531" font-family="Times,serif" font-size="9.00">wallRadar[&#45;1,0]</text>
</g>
<!-- 28571 -->
<g id="node33" class="node"><title>28571</title>
<ellipse fill="white" stroke="black" cx="1154" cy="-27.5772" rx="27.6545" ry="27.6545"/>
<text text-anchor="middle" x="1154" y="-25.3772" font-family="Times,serif" font-size="9.00">28571</text>
</g>
<!-- wallRadar[&#45;1,0]&#45;&gt;28571 -->
<g id="edge15" class="edge"><title>wallRadar[&#45;1,0]&#45;&gt;28571</title>
<path fill="none" stroke="red" stroke-width="0.196195" stroke-dasharray="1,5" d="M909.951,-109.556C920.016,-103.884 934.056,-96.4296 947,-91.1543 1005.14,-67.462 1075.64,-48.0224 1117.55,-37.388"/>
<polygon fill="red" stroke="red" stroke-width="0.196195" points="1118.47,-40.7674 1127.31,-34.9396 1116.76,-33.9777 1118.47,-40.7674"/>
</g>
<!-- wallRadar[0,&#45;1] -->
<g id="node4" class="node"><title>wallRadar[0,&#45;1]</title>
<polygon fill="lightgray" stroke="black" points="1007.5,-409.035 934.5,-409.035 934.5,-391.035 1007.5,-391.035 1007.5,-409.035"/>
<text text-anchor="middle" x="971" y="-397.835" font-family="Times,serif" font-size="9.00">wallRadar[0,&#45;1]</text>
</g>
<!-- Turn left/right -->
<g id="node27" class="node"><title>Turn left/right</title>
<ellipse fill="lightblue" stroke="black" cx="1036" cy="-259.383" rx="46.8387" ry="46.8387"/>
<text text-anchor="middle" x="1036" y="-257.183" font-family="Times,serif" font-size="9.00">Turn left/right</text>
</g>
<!-- wallRadar[0,&#45;1]&#45;&gt;Turn left/right -->
<g id="edge6" class="edge"><title>wallRadar[0,&#45;1]&#45;&gt;Turn left/right</title>
<path fill="none" stroke="green" stroke-width="0.561775" stroke-dasharray="1,5" d="M974.871,-390.777C982.122,-375.311 998.27,-340.865 1012.15,-311.26"/>
<polygon fill="green" stroke="green" stroke-width="0.561775" points="1015.49,-312.388 1016.56,-301.848 1009.15,-309.417 1015.49,-312.388"/>
</g>
<!-- wallRadar[0.7,0.7] -->
<g id="node5" class="node"><title>wallRadar[0.7,0.7]</title>
<polygon fill="lightgray" stroke="black" points="1414.5,-627.921 1331.5,-627.921 1331.5,-609.921 1414.5,-609.921 1414.5,-627.921"/>
<text text-anchor="middle" x="1373" y="-616.721" font-family="Times,serif" font-size="9.00">wallRadar[0.7,0.7]</text>
</g>
<!--  Move Left/Right -->
<g id="node26" class="node"><title> Move Left/Right</title>
<ellipse fill="lightblue" stroke="black" cx="1405" cy="-518.767" rx="55.3091" ry="55.3091"/>
<text text-anchor="middle" x="1405" y="-516.567" font-family="Times,serif" font-size="9.00"> Move Left/Right</text>
</g>
<!-- wallRadar[0.7,0.7]&#45;&gt; Move Left/Right -->
<g id="edge9" class="edge"><title>wallRadar[0.7,0.7]&#45;&gt; Move Left/Right</title>
<path fill="none" stroke="green" stroke-width="0.328427" stroke-dasharray="1,5" d="M1375.62,-609.889C1377.83,-603.092 1381.23,-592.662 1384.95,-581.276"/>
<polygon fill="green" stroke="green" stroke-width="0.328427" points="1388.35,-582.138 1388.12,-571.545 1381.69,-579.968 1388.35,-582.138"/>
</g>
<!-- wallRadar[&#45;0.7,0.7] -->
<g id="node6" class="node"><title>wallRadar[&#45;0.7,0.7]</title>
<polygon fill="lightgray" stroke="black" points="1519,-627.921 1433,-627.921 1433,-609.921 1519,-609.921 1519,-627.921"/>
<text text-anchor="middle" x="1476" y="-616.721" font-family="Times,serif" font-size="9.00">wallRadar[&#45;0.7,0.7]</text>
</g>
<!-- wallRadar[&#45;0.7,0.7]&#45;&gt; Move Left/Right -->
<g id="edge8" class="edge"><title>wallRadar[&#45;0.7,0.7]&#45;&gt; Move Left/Right</title>
<path fill="none" stroke="red" stroke-width="0.186669" d="M1470.19,-609.889C1463.99,-601.312 1453.6,-586.949 1442.91,-572.181"/>
<polygon fill="red" stroke="red" stroke-width="0.186669" points="1445.67,-570.02 1436.97,-563.969 1440,-574.123 1445.67,-570.02"/>
</g>
<!-- wallRadar[&#45;0.7,&#45;0.7] -->
<g id="node7" class="node"><title>wallRadar[&#45;0.7,&#45;0.7]</title>
<polygon fill="lightgray" stroke="black" points="431.5,-409.035 342.5,-409.035 342.5,-391.035 431.5,-391.035 431.5,-409.035"/>
<text text-anchor="middle" x="387" y="-397.835" font-family="Times,serif" font-size="9.00">wallRadar[&#45;0.7,&#45;0.7]</text>
</g>
<!-- wallRadar[&#45;0.7,&#45;0.7]&#45;&gt;Move Forward/Backward -->
<g id="edge11" class="edge"><title>wallRadar[&#45;0.7,&#45;0.7]&#45;&gt;Move Forward/Backward</title>
<path fill="none" stroke="green" stroke-width="0.421632" d="M384.082,-390.777C380.453,-380.51 373.869,-361.879 366.791,-341.852"/>
<polygon fill="green" stroke="green" stroke-width="0.421632" points="370.034,-340.522 363.402,-332.26 363.434,-342.855 370.034,-340.522"/>
</g>
<!-- wallRadar[0.7,&#45;0.7] -->
<g id="node8" class="node"><title>wallRadar[0.7,&#45;0.7]</title>
<polygon fill="lightgray" stroke="black" points="1623,-627.921 1537,-627.921 1537,-609.921 1623,-609.921 1623,-627.921"/>
<text text-anchor="middle" x="1580" y="-616.721" font-family="Times,serif" font-size="9.00">wallRadar[0.7,&#45;0.7]</text>
</g>
<!-- enemyRadar[RightBack] -->
<g id="node9" class="node"><title>enemyRadar[RightBack]</title>
<polygon fill="lightgray" stroke="black" points="104,-409.035 0,-409.035 0,-391.035 104,-391.035 104,-409.035"/>
<text text-anchor="middle" x="52" y="-397.835" font-family="Times,serif" font-size="9.00">enemyRadar[RightBack]</text>
</g>
<!-- enemyRadar[RightBack]&#45;&gt;Move Forward/Backward -->
<g id="edge5" class="edge"><title>enemyRadar[RightBack]&#45;&gt;Move Forward/Backward</title>
<path fill="none" stroke="red" stroke-width="0.139675" stroke-dasharray="1,5" d="M68.6128,-390.981C105.049,-373.317 193.973,-330.207 259.74,-298.323"/>
<polygon fill="red" stroke="red" stroke-width="0.139675" points="261.387,-301.415 268.859,-293.903 258.333,-295.116 261.387,-301.415"/>
</g>
<!-- enemyRadar[LeftBack] -->
<g id="node10" class="node"><title>enemyRadar[LeftBack]</title>
<polygon fill="lightgray" stroke="black" points="916.5,-409.035 817.5,-409.035 817.5,-391.035 916.5,-391.035 916.5,-409.035"/>
<text text-anchor="middle" x="867" y="-397.835" font-family="Times,serif" font-size="9.00">enemyRadar[LeftBack]</text>
</g>
<!-- Shoot -->
<g id="node24" class="node"><title>Shoot</title>
<ellipse fill="lightblue" stroke="black" cx="678" cy="-259.383" rx="26.7407" ry="26.7407"/>
<text text-anchor="middle" x="678" y="-257.183" font-family="Times,serif" font-size="9.00">Shoot</text>
</g>
<!-- enemyRadar[LeftBack]&#45;&gt;Shoot -->
<g id="edge10" class="edge"><title>enemyRadar[LeftBack]&#45;&gt;Shoot</title>
<path fill="none" stroke="green" stroke-width="0.554971" stroke-dasharray="1,5" d="M856.022,-390.981C827.497,-370.056 750.295,-313.419 707.523,-282.041"/>
<polygon fill="green" stroke="green" stroke-width="0.554971" points="709.333,-279.029 699.2,-275.936 705.192,-284.673 709.333,-279.029"/>
</g>
<!-- enemyRadar[LeftBack]&#45;&gt;Move Forward/Backward -->
<g id="edge3" class="edge"><title>enemyRadar[LeftBack]&#45;&gt;Move Forward/Backward</title>
<path fill="none" stroke="red" stroke-width="1.1027" stroke-dasharray="1,5" d="M851.334,-390.889C839.647,-385.083 823.151,-377.452 808,-372.458 736.302,-348.825 715.515,-353.623 642,-336.458 567.599,-319.086 483.345,-297.88 422.437,-282.275"/>
<polygon fill="red" stroke="red" stroke-width="1.1027" points="423.044,-278.818 412.488,-279.723 421.304,-285.598 423.044,-278.818"/>
</g>
<!-- 30631 -->
<g id="node29" class="node"><title>30631</title>
<ellipse fill="white" stroke="black" cx="1135" cy="-259.383" rx="27.6545" ry="27.6545"/>
<text text-anchor="middle" x="1135" y="-257.183" font-family="Times,serif" font-size="9.00">30631</text>
</g>
<!-- enemyRadar[LeftBack]&#45;&gt;30631 -->
<g id="edge22" class="edge"><title>enemyRadar[LeftBack]&#45;&gt;30631</title>
<path fill="none" stroke="red" stroke-width="0.733221" stroke-dasharray="1,5" d="M882.382,-390.87C893.862,-385.055 910.075,-377.42 925,-372.458 997.049,-348.502 1030.84,-381.455 1092,-336.458 1105.83,-326.28 1115.84,-310.228 1122.7,-295.486"/>
<polygon fill="red" stroke="red" stroke-width="0.733221" points="1126.02,-296.632 1126.76,-286.064 1119.59,-293.861 1126.02,-296.632"/>
</g>
<!-- enemyRadar[LeftBack]&#45;&gt;28571 -->
<g id="edge14" class="edge"><title>enemyRadar[LeftBack]&#45;&gt;28571</title>
<path fill="none" stroke="green" stroke-width="0.383048" stroke-dasharray="1,5" d="M869.962,-390.943C881.135,-361.099 923,-255.166 980,-182.309 1022.43,-128.081 1085.7,-77.779 1123.11,-50.3048"/>
<polygon fill="green" stroke="green" stroke-width="0.383048" points="1125.55,-52.8564 1131.59,-44.147 1121.44,-47.1933 1125.55,-52.8564"/>
</g>
<!-- enemyRadar[Right45ø] -->
<g id="node11" class="node"><title>enemyRadar[Right45ø]</title>
<polygon fill="lightgray" stroke="black" points="665,-409.035 565,-409.035 565,-391.035 665,-391.035 665,-409.035"/>
<text text-anchor="middle" x="615" y="-397.835" font-family="Times,serif" font-size="9.00">enemyRadar[Right45ø]</text>
</g>
<!-- enemyRadar[Right45ø]&#45;&gt;Shoot -->
<g id="edge12" class="edge"><title>enemyRadar[Right45ø]&#45;&gt;Shoot</title>
<path fill="none" stroke="green" stroke-width="0.718103" stroke-dasharray="1,5" d="M618.752,-390.777C627.251,-372.074 648.36,-325.615 662.941,-293.526"/>
<polygon fill="green" stroke="green" stroke-width="0.718103" points="666.284,-294.628 667.235,-284.076 659.911,-291.732 666.284,-294.628"/>
</g>
<!-- enemyRadar[Left45ø] -->
<g id="node12" class="node"><title>enemyRadar[Left45ø]</title>
<polygon fill="lightgray" stroke="black" points="1116.5,-627.921 1021.5,-627.921 1021.5,-609.921 1116.5,-609.921 1116.5,-627.921"/>
<text text-anchor="middle" x="1069" y="-616.721" font-family="Times,serif" font-size="9.00">enemyRadar[Left45ø]</text>
</g>
<!-- enemyRadar[Left45ø]&#45;&gt;Turn left/right -->
<g id="edge1" class="edge"><title>enemyRadar[Left45ø]&#45;&gt;Turn left/right</title>
<path fill="none" stroke="green" stroke-width="0.506967" d="M1068.25,-609.781C1064.69,-571.187 1049.33,-404.819 1041.16,-316.296"/>
<polygon fill="green" stroke="green" stroke-width="0.506967" points="1044.63,-315.796 1040.23,-306.16 1037.66,-316.439 1044.63,-315.796"/>
</g>
<!-- 29455 -->
<g id="node30" class="node"><title>29455</title>
<ellipse fill="white" stroke="black" cx="1257" cy="-518.767" rx="27.6545" ry="27.6545"/>
<text text-anchor="middle" x="1257" y="-516.567" font-family="Times,serif" font-size="9.00">29455</text>
</g>
<!-- enemyRadar[Left45ø]&#45;&gt;29455 -->
<g id="edge20" class="edge"><title>enemyRadar[Left45ø]&#45;&gt;29455</title>
<path fill="none" stroke="green" stroke-width="0.856104" d="M1084.38,-609.889C1114.73,-594.045 1182.91,-558.45 1223.92,-537.04"/>
<polygon fill="green" stroke="green" stroke-width="0.856104" points="1225.73,-540.042 1232.97,-532.311 1222.49,-533.836 1225.73,-540.042"/>
</g>
<!-- enemyRadar[RightFront20ø] -->
<g id="node13" class="node"><title>enemyRadar[RightFront20ø]</title>
<polygon fill="lightgray" stroke="black" points="1183.5,-409.035 1064.5,-409.035 1064.5,-391.035 1183.5,-391.035 1183.5,-409.035"/>
<text text-anchor="middle" x="1124" y="-397.835" font-family="Times,serif" font-size="9.00">enemyRadar[RightFront20ø]</text>
</g>
<!-- enemyRadar[RightFront20ø]&#45;&gt;Turn left/right -->
<g id="edge16" class="edge"><title>enemyRadar[RightFront20ø]&#45;&gt;Turn left/right</title>
<path fill="none" stroke="red" stroke-width="0.973049" stroke-dasharray="1,5" d="M1118.76,-390.777C1108.59,-374.752 1085.49,-338.353 1066.27,-308.074"/>
<polygon fill="red" stroke="red" stroke-width="0.973049" points="1069.02,-305.879 1060.71,-299.311 1063.11,-309.63 1069.02,-305.879"/>
</g>
<!-- enemyRadar[LeftFront20ø] -->
<g id="node14" class="node"><title>enemyRadar[LeftFront20ø]</title>
<polygon fill="lightgray" stroke="black" points="1755,-627.921 1641,-627.921 1641,-609.921 1755,-609.921 1755,-627.921"/>
<text text-anchor="middle" x="1698" y="-616.721" font-family="Times,serif" font-size="9.00">enemyRadar[LeftFront20ø]</text>
</g>
<!-- enemyRadar[RightFront15ø] -->
<g id="node15" class="node"><title>enemyRadar[RightFront15ø]</title>
<polygon fill="lightgray" stroke="black" points="1892.5,-627.921 1773.5,-627.921 1773.5,-609.921 1892.5,-609.921 1892.5,-627.921"/>
<text text-anchor="middle" x="1833" y="-616.721" font-family="Times,serif" font-size="9.00">enemyRadar[RightFront15ø]</text>
</g>
<!-- enemyRadar[LeftFront15ø] -->
<g id="node16" class="node"><title>enemyRadar[LeftFront15ø]</title>
<polygon fill="lightgray" stroke="black" points="236,-409.035 122,-409.035 122,-391.035 236,-391.035 236,-409.035"/>
<text text-anchor="middle" x="179" y="-397.835" font-family="Times,serif" font-size="9.00">enemyRadar[LeftFront15ø]</text>
</g>
<!-- enemyRadar[LeftFront15ø]&#45;&gt;Move Forward/Backward -->
<g id="edge13" class="edge"><title>enemyRadar[LeftFront15ø]&#45;&gt;Move Forward/Backward</title>
<path fill="none" stroke="red" stroke-width="0.655203" stroke-dasharray="1,5" d="M188.47,-390.777C204.995,-376.366 240.417,-345.478 272.637,-317.382"/>
<polygon fill="red" stroke="red" stroke-width="0.655203" points="275.076,-319.898 280.313,-310.688 270.476,-314.622 275.076,-319.898"/>
</g>
<!-- enemyRadar[RightFront7.5ø] -->
<g id="node17" class="node"><title>enemyRadar[RightFront7.5ø]</title>
<polygon fill="lightgray" stroke="black" points="2033,-627.921 1911,-627.921 1911,-609.921 2033,-609.921 2033,-627.921"/>
<text text-anchor="middle" x="1972" y="-616.721" font-family="Times,serif" font-size="9.00">enemyRadar[RightFront7.5ø]</text>
</g>
<!-- enemyRadar[LeftFront7.5ø] -->
<g id="node18" class="node"><title>enemyRadar[LeftFront7.5ø]</title>
<polygon fill="lightgray" stroke="black" points="2167,-627.921 2051,-627.921 2051,-609.921 2167,-609.921 2167,-627.921"/>
<text text-anchor="middle" x="2109" y="-616.721" font-family="Times,serif" font-size="9.00">enemyRadar[LeftFront7.5ø]</text>
</g>
<!-- enemyRadar[RightFront2.5ø] -->
<g id="node19" class="node"><title>enemyRadar[RightFront2.5ø]</title>
<polygon fill="lightgray" stroke="black" points="2307,-627.921 2185,-627.921 2185,-609.921 2307,-609.921 2307,-627.921"/>
<text text-anchor="middle" x="2246" y="-616.721" font-family="Times,serif" font-size="9.00">enemyRadar[RightFront2.5ø]</text>
</g>
<!-- enemyRadar[LeftFront2.5ø] -->
<g id="node20" class="node"><title>enemyRadar[LeftFront2.5ø]</title>
<polygon fill="lightgray" stroke="black" points="799,-409.035 683,-409.035 683,-391.035 799,-391.035 799,-409.035"/>
<text text-anchor="middle" x="741" y="-397.835" font-family="Times,serif" font-size="9.00">enemyRadar[LeftFront2.5ø]</text>
</g>
<!-- enemyRadar[LeftFront2.5ø]&#45;&gt;Shoot -->
<g id="edge21" class="edge"><title>enemyRadar[LeftFront2.5ø]&#45;&gt;Shoot</title>
<path fill="none" stroke="red" stroke-width="0.752063" d="M737.248,-390.777C728.749,-372.074 707.64,-325.615 693.059,-293.526"/>
<polygon fill="red" stroke="red" stroke-width="0.752063" points="696.089,-291.732 688.765,-284.076 689.716,-294.628 696.089,-291.732"/>
</g>
<!-- enemyRadar[Front7Ø] -->
<g id="node21" class="node"><title>enemyRadar[Front7Ø]</title>
<polygon fill="lightgray" stroke="black" points="547,-409.035 449,-409.035 449,-391.035 547,-391.035 547,-409.035"/>
<text text-anchor="middle" x="498" y="-397.835" font-family="Times,serif" font-size="9.00">enemyRadar[Front7Ø]</text>
</g>
<!-- enemyRadar[Front7Ø]&#45;&gt;Shoot -->
<g id="edge26" class="edge"><title>enemyRadar[Front7Ø]&#45;&gt;Shoot</title>
<path fill="none" stroke="red" stroke-width="0.472395" d="M508.456,-390.981C535.411,-370.218 608.011,-314.295 648.93,-282.775"/>
<polygon fill="red" stroke="red" stroke-width="0.472395" points="651.125,-285.503 656.911,-276.628 646.853,-279.958 651.125,-285.503"/>
</g>
<!-- enemyRadar[Front7Ø]&#45;&gt;Move Forward/Backward -->
<g id="edge4" class="edge"><title>enemyRadar[Front7Ø]&#45;&gt;Move Forward/Backward</title>
<path fill="none" stroke="green" stroke-width="0.398147" stroke-dasharray="1,5" d="M488.47,-390.777C471.841,-376.366 436.197,-345.478 403.774,-317.382"/>
<polygon fill="green" stroke="green" stroke-width="0.398147" points="405.899,-314.592 396.05,-310.688 401.315,-319.882 405.899,-314.592"/>
</g>
<!-- enemyRadar[Front7Ø]&#45;&gt;Turn left/right -->
<g id="edge2" class="edge"><title>enemyRadar[Front7Ø]&#45;&gt;Turn left/right</title>
<path fill="none" stroke="green" stroke-width="0.654921" d="M513.4,-390.922C524.888,-385.133 541.104,-377.508 556,-372.458 624.209,-349.335 643.842,-352.738 714,-336.458 807.745,-314.704 916.7,-288.841 980.806,-273.565"/>
<polygon fill="green" stroke="green" stroke-width="0.654921" points="981.784,-276.93 990.7,-271.206 980.161,-270.12 981.784,-276.93"/>
</g>
<!-- OnTarget -->
<g id="node22" class="node"><title>OnTarget</title>
<polygon fill="lightgray" stroke="black" points="2375,-627.921 2325,-627.921 2325,-609.921 2375,-609.921 2375,-627.921"/>
<text text-anchor="middle" x="2350" y="-616.721" font-family="Times,serif" font-size="9.00">OnTarget</text>
</g>
<!-- bias -->
<g id="node23" class="node"><title>bias</title>
<polygon fill="lightgray" stroke="black" points="2424.5,-627.921 2393.5,-627.921 2393.5,-609.921 2424.5,-609.921 2424.5,-627.921"/>
<text text-anchor="middle" x="2409" y="-616.721" font-family="Times,serif" font-size="9.00">bias</text>
</g>
<!-- 31237 -->
<g id="node28" class="node"><title>31237</title>
<ellipse fill="white" stroke="black" cx="1229" cy="-400.035" rx="27.6545" ry="27.6545"/>
<text text-anchor="middle" x="1229" y="-397.835" font-family="Times,serif" font-size="9.00">31237</text>
</g>
<!-- 31237&#45;&gt;30631 -->
<g id="edge29" class="edge"><title>31237&#45;&gt;30631</title>
<path fill="none" stroke="red" stroke-width="0.376087" d="M1213.9,-376.758C1198.14,-353.512 1173.32,-316.903 1155.73,-290.959"/>
<polygon fill="red" stroke="red" stroke-width="0.376087" points="1158.57,-288.918 1150.07,-282.605 1152.78,-292.846 1158.57,-288.918"/>
</g>
<!-- 29679 -->
<g id="node31" class="node"><title>29679</title>
<ellipse fill="white" stroke="black" cx="1229" cy="-259.383" rx="27.6545" ry="27.6545"/>
<text text-anchor="middle" x="1229" y="-257.183" font-family="Times,serif" font-size="9.00">29679</text>
</g>
<!-- 31237&#45;&gt;29679 -->
<g id="edge28" class="edge"><title>31237&#45;&gt;29679</title>
<path fill="none" stroke="red" stroke-width="0.150729" d="M1229,-372.302C1229,-350.914 1229,-320.697 1229,-297.051"/>
<polygon fill="red" stroke="red" stroke-width="0.150729" points="1232.5,-297.035 1229,-287.035 1225.5,-297.035 1232.5,-297.035"/>
</g>
<!-- 30631&#45;&gt;28571 -->
<g id="edge23" class="edge"><title>30631&#45;&gt;28571</title>
<path fill="none" stroke="red" stroke-width="0.487536" d="M1137.22,-231.572C1140.61,-190.491 1147.11,-111.864 1150.95,-65.4457"/>
<polygon fill="red" stroke="red" stroke-width="0.487536" points="1154.46,-65.4723 1151.8,-55.2178 1147.49,-64.8954 1154.46,-65.4723"/>
</g>
<!-- 29455&#45;&gt;31237 -->
<g id="edge27" class="edge"><title>29455&#45;&gt;31237</title>
<path fill="none" stroke="green" stroke-width="0.186795" d="M1250.79,-491.86C1246.93,-475.802 1241.93,-454.937 1237.69,-437.255"/>
<polygon fill="green" stroke="green" stroke-width="0.186795" points="1241.03,-436.181 1235.29,-427.273 1234.22,-437.813 1241.03,-436.181"/>
</g>
<!-- 29455&#45;&gt;29679 -->
<g id="edge18" class="edge"><title>29455&#45;&gt;29679</title>
<path fill="none" stroke="green" stroke-width="0.140675" stroke-dasharray="1,5" d="M1260.33,-491.388C1262.43,-473.441 1264.93,-449.135 1266,-427.612 1267.22,-403.13 1269.89,-396.66 1266,-372.458 1261.68,-345.616 1251.9,-316.493 1243.48,-294.663"/>
<polygon fill="green" stroke="green" stroke-width="0.140675" points="1246.66,-293.193 1239.73,-285.18 1240.15,-295.767 1246.66,-293.193"/>
</g>
<!-- 29455&#45;&gt;28571 -->
<g id="edge17" class="edge"><title>29455&#45;&gt;28571</title>
<path fill="none" stroke="red" stroke-width="0.364029" stroke-dasharray="1,5" d="M1266.28,-492.679C1290.43,-422.733 1347.92,-222.099 1266,-91.1543 1249.03,-64.0296 1215.84,-47.6425 1189.98,-38.4832"/>
<polygon fill="red" stroke="red" stroke-width="0.364029" points="1191.06,-35.1568 1180.47,-35.3194 1188.85,-41.7986 1191.06,-35.1568"/>
</g>
<!-- 30706 -->
<g id="node32" class="node"><title>30706</title>
<ellipse fill="white" stroke="black" cx="1229" cy="-118.731" rx="27.6545" ry="27.6545"/>
<text text-anchor="middle" x="1229" y="-116.531" font-family="Times,serif" font-size="9.00">30706</text>
</g>
<!-- 29679&#45;&gt;30706 -->
<g id="edge24" class="edge"><title>29679&#45;&gt;30706</title>
<path fill="none" stroke="green" stroke-width="0.245778" stroke-dasharray="1,5" d="M1229,-231.65C1229,-210.263 1229,-180.046 1229,-156.399"/>
<polygon fill="green" stroke="green" stroke-width="0.245778" points="1232.5,-156.383 1229,-146.383 1225.5,-156.383 1232.5,-156.383"/>
</g>
<!-- 29679&#45;&gt;28571 -->
<g id="edge19" class="edge"><title>29679&#45;&gt;28571</title>
<path fill="none" stroke="green" stroke-width="0.633212" stroke-dasharray="1,5" d="M1220.58,-233.028C1213.04,-210.323 1201.73,-176.111 1192,-146.309 1183,-118.741 1172.92,-87.5034 1165.41,-64.1354"/>
<polygon fill="green" stroke="green" stroke-width="0.633212" points="1168.65,-62.7651 1162.25,-54.3156 1161.98,-64.907 1168.65,-62.7651"/>
</g>
<!-- 30706&#45;&gt;28571 -->
<g id="edge25" class="edge"><title>30706&#45;&gt;28571</title>
<path fill="none" stroke="red" stroke-width="0.610457" d="M1211.6,-97.0536C1201.57,-85.126 1188.81,-69.9574 1177.85,-56.9297"/>
<polygon fill="red" stroke="red" stroke-width="0.610457" points="1180.42,-54.5422 1171.3,-49.1429 1175.06,-59.0484 1180.42,-54.5422"/>
</g>
</g>
</svg>
