<?xml version="1.0" encoding="UTF-8" standalone="no"?>
<!DOCTYPE svg PUBLIC "-//W3C//DTD SVG 1.1//EN"
 "http://www.w3.org/Graphics/SVG/1.1/DTD/svg11.dtd">
<!-- Generated by graphviz version 2.38.0 (20140413.2041)
 -->
<!-- Title: %3 Pages: 1 -->
<svg width="2622pt" height="302pt"
 viewBox="0.00 0.00 2622.10 301.65" xmlns="http://www.w3.org/2000/svg" xmlns:xlink="http://www.w3.org/1999/xlink">
<g id="graph0" class="graph" transform="scale(1 1) rotate(0) translate(4 297.647)">
<title>%3</title>
<polygon fill="white" stroke="none" points="-4,4 -4,-297.647 2618.1,-297.647 2618.1,4 -4,4"/>
<!-- wallRadar[1,0] -->
<g id="node1" class="node"><title>wallRadar[1,0]</title>
<polygon fill="lightgray" stroke="black" points="2367.7,-223.898 2297.7,-223.898 2297.7,-205.898 2367.7,-205.898 2367.7,-223.898"/>
<text text-anchor="middle" x="2332.7" y="-212.698" font-family="Times,serif" font-size="9.00">wallRadar[1,0]</text>
</g>
<!-- Shoot -->
<g id="node24" class="node"><title>Shoot</title>
<ellipse fill="lightblue" stroke="black" cx="929.704" cy="-77.0746" rx="26.7407" ry="26.7407"/>
<text text-anchor="middle" x="929.704" y="-74.8746" font-family="Times,serif" font-size="9.00">Shoot</text>
</g>
<!-- wallRadar[1,0]&#45;&gt;Shoot -->
<g id="edge13" class="edge"><title>wallRadar[1,0]&#45;&gt;Shoot</title>
<path fill="none" stroke="green" stroke-width="0.180174" d="M2310.06,-205.795C2293.78,-200.351 2271.17,-193.57 2250.7,-190.149 1930.31,-136.605 1844.27,-182.907 1520.7,-154.149 1309.86,-135.41 1058.51,-98.0267 966.095,-83.7744"/>
<polygon fill="green" stroke="green" stroke-width="0.180174" points="966.548,-80.3029 956.131,-82.232 965.477,-87.2205 966.548,-80.3029"/>
</g>
<!--  Move Left/Right -->
<g id="node26" class="node"><title> Move Left/Right</title>
<ellipse fill="lightblue" stroke="black" cx="2363.7" cy="-77.0746" rx="55.3091" ry="55.3091"/>
<text text-anchor="middle" x="2363.7" y="-74.8746" font-family="Times,serif" font-size="9.00"> Move Left/Right</text>
</g>
<!-- wallRadar[1,0]&#45;&gt; Move Left/Right -->
<g id="edge40" class="edge"><title>wallRadar[1,0]&#45;&gt; Move Left/Right</title>
<path fill="none" stroke="green" stroke-width="0.357381" d="M2334.55,-205.808C2337.5,-192.902 2343.52,-166.501 2349.33,-141.035"/>
<polygon fill="green" stroke="green" stroke-width="0.357381" points="2352.82,-141.505 2351.63,-130.976 2345.99,-139.947 2352.82,-141.505"/>
</g>
<!-- wallRadar[0,1] -->
<g id="node2" class="node"><title>wallRadar[0,1]</title>
<polygon fill="lightgray" stroke="black" points="2591.7,-223.898 2521.7,-223.898 2521.7,-205.898 2591.7,-205.898 2591.7,-223.898"/>
<text text-anchor="middle" x="2556.7" y="-212.698" font-family="Times,serif" font-size="9.00">wallRadar[0,1]</text>
</g>
<!-- wallRadar[0,1]&#45;&gt; Move Left/Right -->
<g id="edge17" class="edge"><title>wallRadar[0,1]&#45;&gt; Move Left/Right</title>
<path fill="none" stroke="green" stroke-width="0.327056" d="M2545.21,-205.808C2520.51,-188.425 2461.03,-146.566 2416.85,-115.476"/>
<polygon fill="green" stroke="green" stroke-width="0.327056" points="2418.71,-112.502 2408.51,-109.609 2414.68,-118.226 2418.71,-112.502"/>
</g>
<!-- wallRadar[&#45;1,0] -->
<g id="node3" class="node"><title>wallRadar[&#45;1,0]</title>
<polygon fill="lightgray" stroke="black" points="745.204,-223.898 672.204,-223.898 672.204,-205.898 745.204,-205.898 745.204,-223.898"/>
<text text-anchor="middle" x="708.704" y="-212.698" font-family="Times,serif" font-size="9.00">wallRadar[&#45;1,0]</text>
</g>
<!-- wallRadar[&#45;1,0]&#45;&gt;Shoot -->
<g id="edge23" class="edge"><title>wallRadar[&#45;1,0]&#45;&gt;Shoot</title>
<path fill="none" stroke="green" stroke-width="0.488002" d="M721.867,-205.808C756.246,-184.679 849.464,-127.389 898.535,-97.231"/>
<polygon fill="green" stroke="green" stroke-width="0.488002" points="900.472,-100.148 907.159,-91.9303 896.807,-94.1846 900.472,-100.148"/>
</g>
<!-- Move Forward/Backward -->
<g id="node25" class="node"><title>Move Forward/Backward</title>
<ellipse fill="lightblue" stroke="black" cx="528.704" cy="-77.0746" rx="77.1494" ry="77.1494"/>
<text text-anchor="middle" x="528.704" y="-74.8746" font-family="Times,serif" font-size="9.00">Move Forward/Backward</text>
</g>
<!-- wallRadar[&#45;1,0]&#45;&gt;Move Forward/Backward -->
<g id="edge37" class="edge"><title>wallRadar[&#45;1,0]&#45;&gt;Move Forward/Backward</title>
<path fill="none" stroke="green" stroke-width="0.228426" d="M697.984,-205.808C678.563,-191.154 636.092,-159.107 598.552,-130.78"/>
<polygon fill="green" stroke="green" stroke-width="0.228426" points="600.222,-127.655 590.131,-124.426 596.005,-133.243 600.222,-127.655"/>
</g>
<!-- Turn left/right -->
<g id="node27" class="node"><title>Turn left/right</title>
<ellipse fill="lightblue" stroke="black" cx="1576.7" cy="-77.0746" rx="46.8387" ry="46.8387"/>
<text text-anchor="middle" x="1576.7" y="-74.8746" font-family="Times,serif" font-size="9.00">Turn left/right</text>
</g>
<!-- wallRadar[&#45;1,0]&#45;&gt;Turn left/right -->
<g id="edge41" class="edge"><title>wallRadar[&#45;1,0]&#45;&gt;Turn left/right</title>
<path fill="none" stroke="red" stroke-width="0.642174" d="M721.476,-205.794C730.435,-200.495 742.878,-193.886 754.704,-190.149 827.754,-167.068 1347.16,-104.939 1520.53,-84.6108"/>
<polygon fill="red" stroke="red" stroke-width="0.642174" points="1520.95,-88.0859 1530.47,-83.4463 1520.13,-81.1334 1520.95,-88.0859"/>
</g>
<!-- wallRadar[0,&#45;1] -->
<g id="node4" class="node"><title>wallRadar[0,&#45;1]</title>
<polygon fill="lightgray" stroke="black" points="209.204,-223.898 136.204,-223.898 136.204,-205.898 209.204,-205.898 209.204,-223.898"/>
<text text-anchor="middle" x="172.704" y="-212.698" font-family="Times,serif" font-size="9.00">wallRadar[0,&#45;1]</text>
</g>
<!-- wallRadar[0,&#45;1]&#45;&gt;Shoot -->
<g id="edge45" class="edge"><title>wallRadar[0,&#45;1]&#45;&gt;Shoot</title>
<path fill="none" stroke="red" stroke-width="0.68121" d="M185.039,-205.857C193.999,-200.443 206.624,-193.67 218.704,-190.149 388.37,-140.695 440.344,-182.97 614.704,-154.149 717.335,-137.185 836.036,-105.041 894.056,-88.4941"/>
<polygon fill="red" stroke="red" stroke-width="0.68121" points="895.186,-91.811 903.833,-85.689 893.256,-85.0824 895.186,-91.811"/>
</g>
<!-- wallRadar[0,&#45;1]&#45;&gt;Move Forward/Backward -->
<g id="edge1" class="edge"><title>wallRadar[0,&#45;1]&#45;&gt;Move Forward/Backward</title>
<path fill="none" stroke="red" stroke-width="0.818825" d="M187.384,-205.7C196.302,-200.876 207.997,-194.825 218.704,-190.149 294.155,-157.199 382.705,-125.889 445.804,-104.781"/>
<polygon fill="red" stroke="red" stroke-width="0.818825" points="446.934,-108.094 455.315,-101.612 444.721,-101.452 446.934,-108.094"/>
</g>
<!-- wallRadar[0.7,0.7] -->
<g id="node5" class="node"><title>wallRadar[0.7,0.7]</title>
<polygon fill="lightgray" stroke="black" points="1653.2,-223.898 1570.2,-223.898 1570.2,-205.898 1653.2,-205.898 1653.2,-223.898"/>
<text text-anchor="middle" x="1611.7" y="-212.698" font-family="Times,serif" font-size="9.00">wallRadar[0.7,0.7]</text>
</g>
<!-- wallRadar[0.7,0.7]&#45;&gt;Shoot -->
<g id="edge33" class="edge"><title>wallRadar[0.7,0.7]&#45;&gt;Shoot</title>
<path fill="none" stroke="green" stroke-width="0.14627" d="M1583.78,-205.877C1566.31,-201.001 1543.29,-194.834 1522.7,-190.149 1313.42,-142.519 1059.36,-99.3512 966.194,-84.0039"/>
<polygon fill="green" stroke="green" stroke-width="0.14627" points="966.586,-80.5215 956.151,-82.3548 965.452,-87.429 966.586,-80.5215"/>
</g>
<!-- wallRadar[0.7,0.7]&#45;&gt; Move Left/Right -->
<g id="edge50" class="edge"><title>wallRadar[0.7,0.7]&#45;&gt; Move Left/Right</title>
<path fill="none" stroke="red" stroke-width="0.141209" d="M1626.44,-205.699C1636.4,-200.498 1650,-194.039 1662.7,-190.149 1889.94,-120.56 2172.58,-92.2178 2298.23,-82.4676"/>
<polygon fill="red" stroke="red" stroke-width="0.141209" points="2298.74,-85.9386 2308.45,-81.6889 2298.21,-78.9589 2298.74,-85.9386"/>
</g>
<!-- wallRadar[0.7,0.7]&#45;&gt;Turn left/right -->
<g id="edge32" class="edge"><title>wallRadar[0.7,0.7]&#45;&gt;Turn left/right</title>
<path fill="none" stroke="green" stroke-width="0.314086" d="M1609.62,-205.808C1605.91,-191.402 1597.86,-160.185 1590.66,-132.219"/>
<polygon fill="green" stroke="green" stroke-width="0.314086" points="1594.04,-131.306 1588.15,-122.495 1587.26,-133.052 1594.04,-131.306"/>
</g>
<!-- wallRadar[&#45;0.7,0.7] -->
<g id="node6" class="node"><title>wallRadar[&#45;0.7,0.7]</title>
<polygon fill="lightgray" stroke="black" points="1757.7,-223.898 1671.7,-223.898 1671.7,-205.898 1757.7,-205.898 1757.7,-223.898"/>
<text text-anchor="middle" x="1714.7" y="-212.698" font-family="Times,serif" font-size="9.00">wallRadar[&#45;0.7,0.7]</text>
</g>
<!-- wallRadar[&#45;0.7,0.7]&#45;&gt;Shoot -->
<g id="edge39" class="edge"><title>wallRadar[&#45;0.7,0.7]&#45;&gt;Shoot</title>
<path fill="none" stroke="red" stroke-width="0.761115" stroke-dasharray="1,5" d="M1699.66,-205.68C1689.51,-200.471 1675.64,-194.01 1662.7,-190.149 1529.07,-150.261 1096.61,-97.6145 966.848,-82.3754"/>
<polygon fill="red" stroke="red" stroke-width="0.761115" points="966.974,-78.8664 956.635,-81.18 966.16,-85.819 966.974,-78.8664"/>
</g>
<!-- wallRadar[&#45;0.7,0.7]&#45;&gt; Move Left/Right -->
<g id="edge26" class="edge"><title>wallRadar[&#45;0.7,0.7]&#45;&gt; Move Left/Right</title>
<path fill="none" stroke="red" stroke-width="0.134205" d="M1729.79,-205.824C1739.97,-200.676 1753.84,-194.228 1766.7,-190.149 1955.09,-130.428 2187.58,-98.0852 2298.65,-85.0397"/>
<polygon fill="red" stroke="red" stroke-width="0.134205" points="2299.17,-88.5037 2308.7,-83.8741 2298.36,-81.5504 2299.17,-88.5037"/>
</g>
<!-- wallRadar[&#45;0.7,0.7]&#45;&gt;Turn left/right -->
<g id="edge42" class="edge"><title>wallRadar[&#45;0.7,0.7]&#45;&gt;Turn left/right</title>
<path fill="none" stroke="green" stroke-width="0.191998" stroke-dasharray="1,5" d="M1706.49,-205.808C1689.24,-188.837 1648.29,-148.534 1616.97,-117.702"/>
<polygon fill="green" stroke="green" stroke-width="0.191998" points="1619.22,-115.007 1609.64,-110.486 1614.31,-119.996 1619.22,-115.007"/>
</g>
<!-- wallRadar[&#45;0.7,&#45;0.7] -->
<g id="node7" class="node"><title>wallRadar[&#45;0.7,&#45;0.7]</title>
<polygon fill="lightgray" stroke="black" points="2241.2,-223.898 2152.2,-223.898 2152.2,-205.898 2241.2,-205.898 2241.2,-223.898"/>
<text text-anchor="middle" x="2196.7" y="-212.698" font-family="Times,serif" font-size="9.00">wallRadar[&#45;0.7,&#45;0.7]</text>
</g>
<!-- wallRadar[&#45;0.7,&#45;0.7]&#45;&gt;Turn left/right -->
<g id="edge36" class="edge"><title>wallRadar[&#45;0.7,&#45;0.7]&#45;&gt;Turn left/right</title>
<path fill="none" stroke="red" stroke-width="0.28821" d="M2180.99,-205.892C2170.4,-200.772 2155.99,-194.331 2142.7,-190.149 1960.72,-132.874 1736.24,-98.7882 1633.22,-85.0889"/>
<polygon fill="red" stroke="red" stroke-width="0.28821" points="1633.41,-81.5843 1623.04,-83.7495 1632.5,-88.5245 1633.41,-81.5843"/>
</g>
<!-- wallRadar[0.7,&#45;0.7] -->
<g id="node8" class="node"><title>wallRadar[0.7,&#45;0.7]</title>
<polygon fill="lightgray" stroke="black" points="1861.7,-223.898 1775.7,-223.898 1775.7,-205.898 1861.7,-205.898 1861.7,-223.898"/>
<text text-anchor="middle" x="1818.7" y="-212.698" font-family="Times,serif" font-size="9.00">wallRadar[0.7,&#45;0.7]</text>
</g>
<!-- wallRadar[0.7,&#45;0.7]&#45;&gt;Turn left/right -->
<g id="edge43" class="edge"><title>wallRadar[0.7,&#45;0.7]&#45;&gt;Turn left/right</title>
<path fill="none" stroke="red" stroke-width="0.455277" d="M1804.29,-205.808C1769.98,-186.549 1682.13,-137.247 1626.16,-105.833"/>
<polygon fill="red" stroke="red" stroke-width="0.455277" points="1627.56,-102.603 1617.12,-100.761 1624.13,-108.707 1627.56,-102.603"/>
</g>
<!-- enemyRadar[RightBack] -->
<g id="node9" class="node"><title>enemyRadar[RightBack]</title>
<polygon fill="lightgray" stroke="black" points="1167.7,-223.898 1063.7,-223.898 1063.7,-205.898 1167.7,-205.898 1167.7,-223.898"/>
<text text-anchor="middle" x="1115.7" y="-212.698" font-family="Times,serif" font-size="9.00">enemyRadar[RightBack]</text>
</g>
<!-- enemyRadar[RightBack]&#45;&gt;Shoot -->
<g id="edge30" class="edge"><title>enemyRadar[RightBack]&#45;&gt;Shoot</title>
<path fill="none" stroke="red" stroke-width="0.229622" d="M1104.63,-205.808C1076.46,-185.238 1001.35,-130.395 959.291,-99.6802"/>
<polygon fill="red" stroke="red" stroke-width="0.229622" points="961.235,-96.7654 951.095,-93.6947 957.107,-102.419 961.235,-96.7654"/>
</g>
<!-- enemyRadar[RightBack]&#45;&gt;Move Forward/Backward -->
<g id="edge38" class="edge"><title>enemyRadar[RightBack]&#45;&gt;Move Forward/Backward</title>
<path fill="none" stroke="red" stroke-width="0.792201" d="M1097.29,-205.831C1085.32,-200.815 1069.29,-194.513 1054.7,-190.149 1033.6,-183.838 757.758,-125.925 614.227,-95.9208"/>
<polygon fill="red" stroke="red" stroke-width="0.792201" points="614.631,-92.4298 604.126,-93.8098 613.199,-99.2817 614.631,-92.4298"/>
</g>
<!-- enemyRadar[RightBack]&#45;&gt; Move Left/Right -->
<g id="edge4" class="edge"><title>enemyRadar[RightBack]&#45;&gt; Move Left/Right</title>
<path fill="none" stroke="green" stroke-width="0.49534" d="M1157.55,-205.848C1184.85,-200.807 1221.29,-194.471 1253.7,-190.149 1421.42,-167.785 1464.33,-170.907 1632.7,-154.149 1878.71,-129.665 2171.07,-98.6658 2298.7,-85.038"/>
<polygon fill="green" stroke="green" stroke-width="0.49534" points="2299.13,-88.512 2308.7,-83.9695 2298.39,-81.5516 2299.13,-88.512"/>
</g>
<!-- enemyRadar[LeftBack] -->
<g id="node10" class="node"><title>enemyRadar[LeftBack]</title>
<polygon fill="lightgray" stroke="black" points="2017.2,-223.898 1918.2,-223.898 1918.2,-205.898 2017.2,-205.898 2017.2,-223.898"/>
<text text-anchor="middle" x="1967.7" y="-212.698" font-family="Times,serif" font-size="9.00">enemyRadar[LeftBack]</text>
</g>
<!-- enemyRadar[LeftBack]&#45;&gt;Turn left/right -->
<g id="edge48" class="edge"><title>enemyRadar[LeftBack]&#45;&gt;Turn left/right</title>
<path fill="none" stroke="red" stroke-width="0.340897" d="M1946.42,-205.847C1933.99,-201.185 1917.99,-195.248 1903.7,-190.149 1807.74,-155.905 1695.23,-117.786 1630.34,-95.9954"/>
<polygon fill="red" stroke="red" stroke-width="0.340897" points="1631.32,-92.6341 1620.73,-92.7713 1629.09,-99.2705 1631.32,-92.6341"/>
</g>
<!-- enemyRadar[Right45ø] -->
<g id="node11" class="node"><title>enemyRadar[Right45ø]</title>
<polygon fill="lightgray" stroke="black" points="863.704,-223.898 763.704,-223.898 763.704,-205.898 863.704,-205.898 863.704,-223.898"/>
<text text-anchor="middle" x="813.704" y="-212.698" font-family="Times,serif" font-size="9.00">enemyRadar[Right45ø]</text>
</g>
<!-- enemyRadar[Right45ø]&#45;&gt;Shoot -->
<g id="edge27" class="edge"><title>enemyRadar[Right45ø]&#45;&gt;Shoot</title>
<path fill="none" stroke="red" stroke-width="0.16495" stroke-dasharray="1,5" d="M820.613,-205.808C837.045,-186.568 879.085,-137.344 905.918,-105.925"/>
<polygon fill="red" stroke="red" stroke-width="0.16495" points="908.886,-107.84 912.719,-97.9632 903.563,-103.294 908.886,-107.84"/>
</g>
<!-- enemyRadar[Left45ø] -->
<g id="node12" class="node"><title>enemyRadar[Left45ø]</title>
<polygon fill="lightgray" stroke="black" points="977.204,-223.898 882.204,-223.898 882.204,-205.898 977.204,-205.898 977.204,-223.898"/>
<text text-anchor="middle" x="929.704" y="-212.698" font-family="Times,serif" font-size="9.00">enemyRadar[Left45ø]</text>
</g>
<!-- enemyRadar[Left45ø]&#45;&gt;Shoot -->
<g id="edge25" class="edge"><title>enemyRadar[Left45ø]&#45;&gt;Shoot</title>
<path fill="none" stroke="green" stroke-width="0.207693" d="M929.704,-205.808C929.704,-188.158 929.704,-145.273 929.704,-114.05"/>
<polygon fill="green" stroke="green" stroke-width="0.207693" points="933.204,-113.962 929.704,-103.962 926.204,-113.962 933.204,-113.962"/>
</g>
<!-- enemyRadar[Left45ø]&#45;&gt;Move Forward/Backward -->
<g id="edge34" class="edge"><title>enemyRadar[Left45ø]&#45;&gt;Move Forward/Backward</title>
<path fill="none" stroke="red" stroke-width="0.379366" d="M911.369,-205.821C900.267,-201.04 885.772,-194.992 872.704,-190.149 784.669,-157.528 682.166,-124.793 612.101,-103.198"/>
<polygon fill="red" stroke="red" stroke-width="0.379366" points="613.021,-99.8198 602.434,-100.226 610.964,-106.511 613.021,-99.8198"/>
</g>
<!-- enemyRadar[Left45ø]&#45;&gt;Turn left/right -->
<g id="edge15" class="edge"><title>enemyRadar[Left45ø]&#45;&gt;Turn left/right</title>
<path fill="none" stroke="green" stroke-width="1.03556" d="M946.33,-205.895C957.524,-200.777 972.739,-194.336 986.704,-190.149 1178.32,-132.709 1414.11,-98.416 1520.24,-84.8379"/>
<polygon fill="green" stroke="green" stroke-width="1.03556" points="1520.92,-88.2794 1530.4,-83.5503 1520.04,-81.3349 1520.92,-88.2794"/>
</g>
<!-- enemyRadar[RightFront20ø] -->
<g id="node13" class="node"><title>enemyRadar[RightFront20ø]</title>
<polygon fill="lightgray" stroke="black" points="2122.2,-293.647 2003.2,-293.647 2003.2,-275.647 2122.2,-275.647 2122.2,-293.647"/>
<text text-anchor="middle" x="2062.7" y="-282.447" font-family="Times,serif" font-size="9.00">enemyRadar[RightFront20ø]</text>
</g>
<!-- enemyRadar[RightFront20ø]&#45;&gt;Shoot -->
<g id="edge31" class="edge"><title>enemyRadar[RightFront20ø]&#45;&gt;Shoot</title>
<path fill="none" stroke="red" stroke-width="1.20637" d="M2003.06,-283.215C1822.45,-281.537 1289.56,-273.72 1219.7,-239.647 1193.51,-226.871 1200.07,-207.569 1176.7,-190.149 1109.25,-139.848 1015.62,-105.164 965.222,-88.8025"/>
<polygon fill="red" stroke="red" stroke-width="1.20637" points="966.035,-85.3879 955.444,-85.6827 963.907,-92.0567 966.035,-85.3879"/>
</g>
<!-- enemyRadar[RightFront20ø]&#45;&gt; Move Left/Right -->
<g id="edge7" class="edge"><title>enemyRadar[RightFront20ø]&#45;&gt; Move Left/Right</title>
<path fill="none" stroke="green" stroke-width="0.441067" d="M2122.54,-280.305C2216.79,-274.423 2391.06,-260.804 2409.7,-239.647 2436.08,-209.717 2421.14,-165.647 2401.5,-131.09"/>
<polygon fill="green" stroke="green" stroke-width="0.441067" points="2404.26,-128.886 2396.15,-122.071 2398.24,-132.457 2404.26,-128.886"/>
</g>
<!-- enemyRadar[RightFront20ø]&#45;&gt;Turn left/right -->
<g id="edge53" class="edge"><title>enemyRadar[RightFront20ø]&#45;&gt;Turn left/right</title>
<path fill="none" stroke="red" stroke-width="0.171718" d="M2004.2,-275.638C1974.05,-269.42 1937.81,-258.533 1909.7,-239.647 1886.46,-224.024 1893.27,-206.736 1870.7,-190.149 1797.43,-136.291 1695.12,-105.085 1632.53,-89.846"/>
<polygon fill="red" stroke="red" stroke-width="0.171718" points="1633,-86.3594 1622.46,-87.4483 1631.38,-93.1691 1633,-86.3594"/>
</g>
<!-- 372 -->
<g id="node29" class="node"><title>372</title>
<ellipse fill="white" stroke="black" cx="2482.7" cy="-214.898" rx="21.4286" ry="21.4286"/>
<text text-anchor="middle" x="2482.7" y="-212.698" font-family="Times,serif" font-size="9.00">372</text>
</g>
<!-- enemyRadar[RightFront20ø]&#45;&gt;372 -->
<g id="edge54" class="edge"><title>enemyRadar[RightFront20ø]&#45;&gt;372</title>
<path fill="none" stroke="green" stroke-width="0.108363" d="M2122.41,-280.315C2215.22,-274.55 2389.51,-261.218 2447.7,-239.647 2451.22,-238.345 2454.72,-236.62 2458.07,-234.691"/>
<polygon fill="green" stroke="green" stroke-width="0.108363" points="2460,-237.611 2466.52,-229.261 2456.22,-231.722 2460,-237.611"/>
</g>
<!-- enemyRadar[LeftFront20ø] -->
<g id="node14" class="node"><title>enemyRadar[LeftFront20ø]</title>
<polygon fill="lightgray" stroke="black" points="519.704,-223.898 405.704,-223.898 405.704,-205.898 519.704,-205.898 519.704,-223.898"/>
<text text-anchor="middle" x="462.704" y="-212.698" font-family="Times,serif" font-size="9.00">enemyRadar[LeftFront20ø]</text>
</g>
<!-- enemyRadar[LeftFront20ø]&#45;&gt;Shoot -->
<g id="edge21" class="edge"><title>enemyRadar[LeftFront20ø]&#45;&gt;Shoot</title>
<path fill="none" stroke="green" stroke-width="0.766731" d="M483.971,-205.8C496.839,-201.012 513.623,-194.963 528.704,-190.149 662.272,-147.516 823.635,-105.149 894.001,-87.119"/>
<polygon fill="green" stroke="green" stroke-width="0.766731" points="894.886,-90.5053 903.708,-84.6383 893.153,-83.7233 894.886,-90.5053"/>
</g>
<!-- enemyRadar[LeftFront20ø]&#45;&gt;Move Forward/Backward -->
<g id="edge2" class="edge"><title>enemyRadar[LeftFront20ø]&#45;&gt;Move Forward/Backward</title>
<path fill="none" stroke="green" stroke-width="0.771182" d="M466.635,-205.808C471.688,-195.411 480.995,-176.257 490.892,-155.889"/>
<polygon fill="green" stroke="green" stroke-width="0.771182" points="494.09,-157.316 495.313,-146.791 487.794,-154.256 494.09,-157.316"/>
</g>
<!-- enemyRadar[LeftFront20ø]&#45;&gt;Turn left/right -->
<g id="edge19" class="edge"><title>enemyRadar[LeftFront20ø]&#45;&gt;Turn left/right</title>
<path fill="none" stroke="green" stroke-width="1.25061" d="M481.095,-205.801C494.127,-200.434 512.163,-193.741 528.704,-190.149 719.147,-148.801 771.858,-174.193 965.704,-154.149 1170.43,-132.981 1412.82,-100.622 1520.42,-85.8791"/>
<polygon fill="green" stroke="green" stroke-width="1.25061" points="1520.98,-89.3359 1530.41,-84.5084 1520.02,-82.4009 1520.98,-89.3359"/>
</g>
<!-- enemyRadar[RightFront15ø] -->
<g id="node15" class="node"><title>enemyRadar[RightFront15ø]</title>
<polygon fill="lightgray" stroke="black" points="1381.2,-223.898 1262.2,-223.898 1262.2,-205.898 1381.2,-205.898 1381.2,-223.898"/>
<text text-anchor="middle" x="1321.7" y="-212.698" font-family="Times,serif" font-size="9.00">enemyRadar[RightFront15ø]</text>
</g>
<!-- enemyRadar[RightFront15ø]&#45;&gt;Shoot -->
<g id="edge3" class="edge"><title>enemyRadar[RightFront15ø]&#45;&gt;Shoot</title>
<path fill="none" stroke="red" stroke-width="0.416071" d="M1298.36,-205.808C1232.26,-182.908 1043.57,-117.527 964.855,-90.254"/>
<polygon fill="red" stroke="red" stroke-width="0.416071" points="965.534,-86.7851 954.939,-86.8182 963.242,-93.3993 965.534,-86.7851"/>
</g>
<!-- enemyRadar[RightFront15ø]&#45;&gt;Turn left/right -->
<g id="edge20" class="edge"><title>enemyRadar[RightFront15ø]&#45;&gt;Turn left/right</title>
<path fill="none" stroke="green" stroke-width="0.244754" d="M1336.89,-205.808C1373.43,-186.347 1467.56,-136.208 1526.44,-104.848"/>
<polygon fill="green" stroke="green" stroke-width="0.244754" points="1528.39,-107.775 1535.57,-99.9842 1525.1,-101.596 1528.39,-107.775"/>
</g>
<!-- enemyRadar[LeftFront15ø] -->
<g id="node16" class="node"><title>enemyRadar[LeftFront15ø]</title>
<polygon fill="lightgray" stroke="black" points="1513.7,-223.898 1399.7,-223.898 1399.7,-205.898 1513.7,-205.898 1513.7,-223.898"/>
<text text-anchor="middle" x="1456.7" y="-212.698" font-family="Times,serif" font-size="9.00">enemyRadar[LeftFront15ø]</text>
</g>
<!-- enemyRadar[LeftFront15ø]&#45;&gt;Move Forward/Backward -->
<g id="edge14" class="edge"><title>enemyRadar[LeftFront15ø]&#45;&gt;Move Forward/Backward</title>
<path fill="none" stroke="red" stroke-width="0.300023" stroke-dasharray="1,5" d="M1438.6,-205.866C1425.56,-200.455 1407.38,-193.684 1390.7,-190.149 1174.05,-144.23 1113.04,-184.811 893.704,-154.149 796.813,-140.604 687.103,-116.536 613.484,-99.0916"/>
<polygon fill="red" stroke="red" stroke-width="0.300023" points="613.88,-95.588 603.341,-96.6759 612.258,-102.398 613.88,-95.588"/>
</g>
<!-- enemyRadar[LeftFront15ø]&#45;&gt; Move Left/Right -->
<g id="edge49" class="edge"><title>enemyRadar[LeftFront15ø]&#45;&gt; Move Left/Right</title>
<path fill="none" stroke="green" stroke-width="0.217096" stroke-dasharray="1,5" d="M1489.19,-205.812C1509.87,-200.851 1537.25,-194.615 1561.7,-190.149 1833.98,-140.423 2161.79,-100.897 2298.69,-85.2912"/>
<polygon fill="green" stroke="green" stroke-width="0.217096" points="2299.45,-88.7269 2309,-84.1205 2298.66,-81.7716 2299.45,-88.7269"/>
</g>
<!-- enemyRadar[LeftFront15ø]&#45;&gt;Turn left/right -->
<g id="edge24" class="edge"><title>enemyRadar[LeftFront15ø]&#45;&gt;Turn left/right</title>
<path fill="none" stroke="green" stroke-width="1.11332" stroke-dasharray="1,5" d="M1463.85,-205.808C1478.46,-189.277 1512.62,-150.609 1539.56,-120.12"/>
<polygon fill="green" stroke="green" stroke-width="1.11332" points="1542.24,-122.374 1546.23,-112.563 1536.99,-117.739 1542.24,-122.374"/>
</g>
<!-- enemyRadar[RightFront7.5ø] -->
<g id="node17" class="node"><title>enemyRadar[RightFront7.5ø]</title>
<polygon fill="lightgray" stroke="black" points="2436.7,-293.647 2314.7,-293.647 2314.7,-275.647 2436.7,-275.647 2436.7,-293.647"/>
<text text-anchor="middle" x="2375.7" y="-282.447" font-family="Times,serif" font-size="9.00">enemyRadar[RightFront7.5ø]</text>
</g>
<!-- enemyRadar[RightFront7.5ø]&#45;&gt;Shoot -->
<g id="edge18" class="edge"><title>enemyRadar[RightFront7.5ø]&#45;&gt;Shoot</title>
<path fill="none" stroke="green" stroke-width="0.522969" stroke-dasharray="1,5" d="M2314.52,-281.575C2082,-273.664 1265.73,-245.501 1253.7,-239.647 1227.77,-227.015 1235.14,-206.977 1211.7,-190.149 1133.15,-133.742 1022.25,-100.602 965.783,-86.3657"/>
<polygon fill="green" stroke="green" stroke-width="0.522969" points="966.441,-82.9232 955.894,-83.9261 964.764,-89.7194 966.441,-82.9232"/>
</g>
<!-- enemyRadar[RightFront7.5ø]&#45;&gt; Move Left/Right -->
<g id="edge12" class="edge"><title>enemyRadar[RightFront7.5ø]&#45;&gt; Move Left/Right</title>
<path fill="none" stroke="red" stroke-width="0.798275" stroke-dasharray="1,5" d="M2436.97,-280.207C2496.34,-275.442 2580.31,-264.42 2600.7,-239.647 2658.14,-169.892 2515.09,-117.85 2426.91,-93.4544"/>
<polygon fill="red" stroke="red" stroke-width="0.798275" points="2427.8,-90.0708 2417.24,-90.8279 2425.97,-96.8262 2427.8,-90.0708"/>
</g>
<!-- enemyRadar[RightFront7.5ø]&#45;&gt;Turn left/right -->
<g id="edge10" class="edge"><title>enemyRadar[RightFront7.5ø]&#45;&gt;Turn left/right</title>
<path fill="none" stroke="green" stroke-width="0.125074" d="M2353.36,-275.597C2334.76,-268.171 2308.25,-255.85 2288.7,-239.647 2267.35,-221.947 2274.49,-204.418 2250.7,-190.149 2146.39,-127.559 1776.54,-93.318 1633.64,-82.1793"/>
<polygon fill="green" stroke="green" stroke-width="0.125074" points="1633.58,-78.6648 1623.34,-81.3864 1633.04,-85.6441 1633.58,-78.6648"/>
</g>
<!-- enemyRadar[RightFront7.5ø]&#45;&gt;372 -->
<g id="edge51" class="edge"><title>enemyRadar[RightFront7.5ø]&#45;&gt;372</title>
<path fill="none" stroke="red" stroke-width="0.443146" d="M2389.36,-275.566C2403.93,-266.881 2427.63,-252.58 2447.7,-239.647 2450.85,-237.618 2454.14,-235.456 2457.37,-233.293"/>
<polygon fill="red" stroke="red" stroke-width="0.443146" points="2459.39,-236.153 2465.72,-227.658 2455.48,-230.351 2459.39,-236.153"/>
</g>
<!-- enemyRadar[LeftFront7.5ø] -->
<g id="node18" class="node"><title>enemyRadar[LeftFront7.5ø]</title>
<polygon fill="lightgray" stroke="black" points="653.704,-223.898 537.704,-223.898 537.704,-205.898 653.704,-205.898 653.704,-223.898"/>
<text text-anchor="middle" x="595.704" y="-212.698" font-family="Times,serif" font-size="9.00">enemyRadar[LeftFront7.5ø]</text>
</g>
<!-- enemyRadar[LeftFront7.5ø]&#45;&gt;Shoot -->
<g id="edge5" class="edge"><title>enemyRadar[LeftFront7.5ø]&#45;&gt;Shoot</title>
<path fill="none" stroke="red" stroke-width="1.44213" d="M615.597,-205.808C670.745,-183.382 826.07,-120.218 895.467,-91.9977"/>
<polygon fill="red" stroke="red" stroke-width="1.44213" points="897.115,-95.1058 905.06,-88.0965 894.478,-88.6214 897.115,-95.1058"/>
</g>
<!-- enemyRadar[LeftFront7.5ø]&#45;&gt;Move Forward/Backward -->
<g id="edge35" class="edge"><title>enemyRadar[LeftFront7.5ø]&#45;&gt;Move Forward/Backward</title>
<path fill="none" stroke="red" stroke-width="0.252069" stroke-dasharray="1,5" d="M591.714,-205.808C586.56,-195.361 577.046,-176.074 566.945,-155.597"/>
<polygon fill="red" stroke="red" stroke-width="0.252069" points="569.997,-153.872 562.434,-146.453 563.719,-156.969 569.997,-153.872"/>
</g>
<!-- enemyRadar[LeftFront7.5ø]&#45;&gt;Turn left/right -->
<g id="edge46" class="edge"><title>enemyRadar[LeftFront7.5ø]&#45;&gt;Turn left/right</title>
<path fill="none" stroke="green" stroke-width="0.229394" d="M614.716,-205.881C627.946,-200.621 646.12,-194.023 662.704,-190.149 794.764,-159.305 831.083,-170.527 965.704,-154.149 1170.01,-129.293 1412.62,-98.7933 1520.34,-85.1993"/>
<polygon fill="green" stroke="green" stroke-width="0.229394" points="1520.86,-88.6621 1530.34,-83.9372 1519.98,-81.7172 1520.86,-88.6621"/>
</g>
<!-- enemyRadar[RightFront2.5ø] -->
<g id="node19" class="node"><title>enemyRadar[RightFront2.5ø]</title>
<polygon fill="lightgray" stroke="black" points="349.704,-223.898 227.704,-223.898 227.704,-205.898 349.704,-205.898 349.704,-223.898"/>
<text text-anchor="middle" x="288.704" y="-212.698" font-family="Times,serif" font-size="9.00">enemyRadar[RightFront2.5ø]</text>
</g>
<!-- enemyRadar[RightFront2.5ø]&#45;&gt;Shoot -->
<g id="edge8" class="edge"><title>enemyRadar[RightFront2.5ø]&#45;&gt;Shoot</title>
<path fill="none" stroke="red" stroke-width="0.715231" d="M310.756,-205.862C325.561,-200.729 345.596,-194.285 363.704,-190.149 473.572,-165.054 504.029,-175.401 614.704,-154.149 716.861,-134.533 835.773,-103.568 893.946,-87.8804"/>
<polygon fill="red" stroke="red" stroke-width="0.715231" points="895.013,-91.2176 903.751,-85.2257 893.183,-84.4609 895.013,-91.2176"/>
</g>
<!-- enemyRadar[RightFront2.5ø]&#45;&gt;Move Forward/Backward -->
<g id="edge28" class="edge"><title>enemyRadar[RightFront2.5ø]&#45;&gt;Move Forward/Backward</title>
<path fill="none" stroke="red" stroke-width="0.142135" d="M302.999,-205.808C331.963,-189.417 399.383,-151.261 453.041,-120.895"/>
<polygon fill="red" stroke="red" stroke-width="0.142135" points="454.887,-123.872 461.866,-115.901 451.439,-117.78 454.887,-123.872"/>
</g>
<!-- enemyRadar[LeftFront2.5ø] -->
<g id="node20" class="node"><title>enemyRadar[LeftFront2.5ø]</title>
<polygon fill="lightgray" stroke="black" points="435.704,-293.647 319.704,-293.647 319.704,-275.647 435.704,-275.647 435.704,-293.647"/>
<text text-anchor="middle" x="377.704" y="-282.447" font-family="Times,serif" font-size="9.00">enemyRadar[LeftFront2.5ø]</text>
</g>
<!-- enemyRadar[LeftFront2.5ø]&#45;&gt;Shoot -->
<g id="edge47" class="edge"><title>enemyRadar[LeftFront2.5ø]&#45;&gt;Shoot</title>
<path fill="none" stroke="green" stroke-width="0.494016" d="M376.61,-275.482C374.672,-257.274 372.852,-213.139 396.704,-190.149 432.057,-156.075 566.586,-163.919 614.704,-154.149 716.648,-133.451 835.654,-102.967 893.897,-87.63"/>
<polygon fill="green" stroke="green" stroke-width="0.494016" points="894.939,-90.9748 903.713,-85.0367 893.151,-84.2069 894.939,-90.9748"/>
</g>
<!-- enemyRadar[LeftFront2.5ø]&#45;&gt;Move Forward/Backward -->
<g id="edge6" class="edge"><title>enemyRadar[LeftFront2.5ø]&#45;&gt;Move Forward/Backward</title>
<path fill="none" stroke="red" stroke-width="0.225231" stroke-dasharray="1,5" d="M319.583,-280.843C221.275,-275.501 30.828,-262.327 10.7043,-239.647 -3.89607,-223.191 -3.10893,-207.271 10.7043,-190.149 63.8798,-124.238 308.413,-95.1674 441.614,-84.0351"/>
<polygon fill="red" stroke="red" stroke-width="0.225231" points="442.112,-87.5062 451.793,-83.2013 441.54,-80.5295 442.112,-87.5062"/>
</g>
<!-- enemyRadar[LeftFront2.5ø]&#45;&gt; Move Left/Right -->
<g id="edge29" class="edge"><title>enemyRadar[LeftFront2.5ø]&#45;&gt; Move Left/Right</title>
<path fill="none" stroke="green" stroke-width="0.564394" stroke-dasharray="1,5" d="M435.879,-283.476C761.211,-282.386 2341.87,-275.26 2376.7,-239.647 2402.32,-213.464 2398.53,-172.142 2388.61,-137.841"/>
<polygon fill="green" stroke="green" stroke-width="0.564394" points="2391.83,-136.417 2385.52,-127.91 2385.15,-138.499 2391.83,-136.417"/>
</g>
<!-- enemyRadar[LeftFront2.5ø]&#45;&gt;Turn left/right -->
<g id="edge22" class="edge"><title>enemyRadar[LeftFront2.5ø]&#45;&gt;Turn left/right</title>
<path fill="none" stroke="red" stroke-width="0.379864" d="M435.892,-283.234C662.931,-281.392 1478.88,-272.5 1522.7,-239.647 1555.37,-215.159 1568.51,-170.11 1573.68,-133.789"/>
<polygon fill="red" stroke="red" stroke-width="0.379864" points="1577.16,-134.159 1574.94,-123.8 1570.21,-133.285 1577.16,-134.159"/>
</g>
<!-- 1252 -->
<g id="node28" class="node"><title>1252</title>
<ellipse fill="white" stroke="black" cx="93.7043" cy="-214.898" rx="25" ry="25"/>
<text text-anchor="middle" x="93.7043" y="-212.698" font-family="Times,serif" font-size="9.00">1252</text>
</g>
<!-- enemyRadar[LeftFront2.5ø]&#45;&gt;1252 -->
<g id="edge55" class="edge"><title>enemyRadar[LeftFront2.5ø]&#45;&gt;1252</title>
<path fill="none" stroke="green" stroke-width="0.103707" d="M319.565,-280.833C267.316,-276.611 189.39,-266.052 126.704,-239.647 124.85,-238.866 123,-237.964 121.176,-236.979"/>
<polygon fill="green" stroke="green" stroke-width="0.103707" points="122.717,-233.816 112.373,-231.522 119.028,-239.766 122.717,-233.816"/>
</g>
<!-- enemyRadar[Front7Ø] -->
<g id="node21" class="node"><title>enemyRadar[Front7Ø]</title>
<polygon fill="lightgray" stroke="black" points="2133.7,-223.898 2035.7,-223.898 2035.7,-205.898 2133.7,-205.898 2133.7,-223.898"/>
<text text-anchor="middle" x="2084.7" y="-212.698" font-family="Times,serif" font-size="9.00">enemyRadar[Front7Ø]</text>
</g>
<!-- enemyRadar[Front7Ø]&#45;&gt;Turn left/right -->
<g id="edge9" class="edge"><title>enemyRadar[Front7Ø]&#45;&gt;Turn left/right</title>
<path fill="none" stroke="red" stroke-width="0.136029" stroke-dasharray="1,5" d="M2066.93,-205.837C2055.58,-200.886 2040.46,-194.652 2026.7,-190.149 1887.19,-144.477 1718.12,-107.009 1632.38,-89.2281"/>
<polygon fill="red" stroke="red" stroke-width="0.136029" points="1632.85,-85.7505 1622.35,-87.1581 1631.43,-92.6061 1632.85,-85.7505"/>
</g>
<!-- OnTarget -->
<g id="node22" class="node"><title>OnTarget</title>
<polygon fill="lightgray" stroke="black" points="1045.7,-223.898 995.704,-223.898 995.704,-205.898 1045.7,-205.898 1045.7,-223.898"/>
<text text-anchor="middle" x="1020.7" y="-212.698" font-family="Times,serif" font-size="9.00">OnTarget</text>
</g>
<!-- OnTarget&#45;&gt;Move Forward/Backward -->
<g id="edge16" class="edge"><title>OnTarget&#45;&gt;Move Forward/Backward</title>
<path fill="none" stroke="green" stroke-width="0.101251" d="M1010.86,-205.81C1004.14,-200.655 994.83,-194.206 985.704,-190.149 862.906,-135.556 709.216,-104.847 615.045,-89.8688"/>
<polygon fill="green" stroke="green" stroke-width="0.101251" points="615.414,-86.3839 604.993,-88.2938 614.33,-93.2996 615.414,-86.3839"/>
</g>
<!-- OnTarget&#45;&gt;Turn left/right -->
<g id="edge44" class="edge"><title>OnTarget&#45;&gt;Turn left/right</title>
<path fill="none" stroke="red" stroke-width="0.19297" d="M1030.19,-205.712C1036.69,-200.516 1045.73,-194.058 1054.7,-190.149 1214.76,-120.468 1421.84,-92.6555 1520.12,-82.8208"/>
<polygon fill="red" stroke="red" stroke-width="0.19297" points="1520.53,-86.2979 1530.14,-81.8431 1519.85,-79.3309 1520.53,-86.2979"/>
</g>
<!-- bias -->
<g id="node23" class="node"><title>bias</title>
<polygon fill="lightgray" stroke="black" points="51.2043,-223.898 20.2043,-223.898 20.2043,-205.898 51.2043,-205.898 51.2043,-223.898"/>
<text text-anchor="middle" x="35.7043" y="-212.698" font-family="Times,serif" font-size="9.00">bias</text>
</g>
<!-- bias&#45;&gt;Move Forward/Backward -->
<g id="edge11" class="edge"><title>bias&#45;&gt;Move Forward/Backward</title>
<path fill="none" stroke="red" stroke-width="0.541367" d="M41.9877,-205.689C46.3985,-200.483 52.7365,-194.023 59.7043,-190.149 181.61,-122.384 343.483,-95.3537 441.67,-84.7392"/>
<polygon fill="red" stroke="red" stroke-width="0.541367" points="442.269,-88.1957 451.85,-83.6729 441.54,-81.2338 442.269,-88.1957"/>
</g>
<!-- 1252&#45;&gt;Move Forward/Backward -->
<g id="edge56" class="edge"><title>1252&#45;&gt;Move Forward/Backward</title>
<path fill="none" stroke="red" stroke-width="0.396524" d="M112.534,-198.631C116.996,-195.509 121.869,-192.472 126.704,-190.149 229.94,-140.555 358.958,-109.476 442.557,-92.9557"/>
<polygon fill="red" stroke="red" stroke-width="0.396524" points="443.377,-96.3619 452.522,-91.0129 442.037,-89.4912 443.377,-96.3619"/>
</g>
<!-- 372&#45;&gt; Move Left/Right -->
<g id="edge52" class="edge"><title>372&#45;&gt; Move Left/Right</title>
<path fill="none" stroke="green" stroke-width="0.133953" stroke-dasharray="1,5" d="M2469.05,-198.317C2453.84,-180.952 2428.48,-152.002 2406.45,-126.861"/>
<polygon fill="green" stroke="green" stroke-width="0.133953" points="2408.96,-124.413 2399.73,-119.198 2403.69,-129.026 2408.96,-124.413"/>
</g>
</g>
</svg>
