<?xml version="1.0" encoding="UTF-8" standalone="no"?>
<!DOCTYPE svg PUBLIC "-//W3C//DTD SVG 1.1//EN"
 "http://www.w3.org/Graphics/SVG/1.1/DTD/svg11.dtd">
<!-- Generated by graphviz version 2.38.0 (20140413.2041)
 -->
<!-- Title: %3 Pages: 1 -->
<svg width="2623pt" height="295pt"
 viewBox="0.00 0.00 2623.06 294.58" xmlns="http://www.w3.org/2000/svg" xmlns:xlink="http://www.w3.org/1999/xlink">
<g id="graph0" class="graph" transform="scale(1 1) rotate(0) translate(4 290.576)">
<title>%3</title>
<polygon fill="white" stroke="none" points="-4,4 -4,-290.576 2619.06,-290.576 2619.06,4 -4,4"/>
<!-- wallRadar[1,0] -->
<g id="node1" class="node"><title>wallRadar[1,0]</title>
<polygon fill="lightgray" stroke="black" points="966.5,-220.362 896.5,-220.362 896.5,-202.362 966.5,-202.362 966.5,-220.362"/>
<text text-anchor="middle" x="931.5" y="-209.162" font-family="Times,serif" font-size="9.00">wallRadar[1,0]</text>
</g>
<!-- Shoot -->
<g id="node24" class="node"><title>Shoot</title>
<ellipse fill="lightblue" stroke="black" cx="829.5" cy="-77.0746" rx="26.7407" ry="26.7407"/>
<text text-anchor="middle" x="829.5" y="-74.8746" font-family="Times,serif" font-size="9.00">Shoot</text>
</g>
<!-- wallRadar[1,0]&#45;&gt;Shoot -->
<g id="edge32" class="edge"><title>wallRadar[1,0]&#45;&gt;Shoot</title>
<path fill="none" stroke="red" stroke-width="0.684476" d="M925.119,-202.087C910.768,-183.474 875.367,-137.561 851.902,-107.128"/>
<polygon fill="red" stroke="red" stroke-width="0.684476" points="854.505,-104.773 845.627,-98.9904 848.961,-109.047 854.505,-104.773"/>
</g>
<!-- Move Forward/Backward -->
<g id="node25" class="node"><title>Move Forward/Backward</title>
<ellipse fill="lightblue" stroke="black" cx="1761.5" cy="-77.0746" rx="77.1494" ry="77.1494"/>
<text text-anchor="middle" x="1761.5" y="-74.8746" font-family="Times,serif" font-size="9.00">Move Forward/Backward</text>
</g>
<!-- wallRadar[1,0]&#45;&gt;Move Forward/Backward -->
<g id="edge44" class="edge"><title>wallRadar[1,0]&#45;&gt;Move Forward/Backward</title>
<path fill="none" stroke="green" stroke-width="0.247132" d="M946.155,-202.332C954.521,-198.082 965.339,-193.139 975.5,-190.149 1222.31,-117.536 1527.04,-91.2302 1674.04,-82.3065"/>
<polygon fill="green" stroke="green" stroke-width="0.247132" points="1674.57,-85.781 1684.34,-81.6936 1674.15,-78.7934 1674.57,-85.781"/>
</g>
<!--  Move Left/Right -->
<g id="node26" class="node"><title> Move Left/Right</title>
<ellipse fill="lightblue" stroke="black" cx="1009.5" cy="-77.0746" rx="55.3091" ry="55.3091"/>
<text text-anchor="middle" x="1009.5" y="-74.8746" font-family="Times,serif" font-size="9.00"> Move Left/Right</text>
</g>
<!-- wallRadar[1,0]&#45;&gt; Move Left/Right -->
<g id="edge50" class="edge"><title>wallRadar[1,0]&#45;&gt; Move Left/Right</title>
<path fill="none" stroke="green" stroke-width="0.25794" stroke-dasharray="1,5" d="M936.379,-202.087C944.44,-188.417 961.183,-160.02 976.616,-133.846"/>
<polygon fill="green" stroke="green" stroke-width="0.25794" points="979.721,-135.471 981.785,-125.08 973.691,-131.916 979.721,-135.471"/>
</g>
<!-- wallRadar[0,1] -->
<g id="node2" class="node"><title>wallRadar[0,1]</title>
<polygon fill="lightgray" stroke="black" points="644.5,-220.362 574.5,-220.362 574.5,-202.362 644.5,-202.362 644.5,-220.362"/>
<text text-anchor="middle" x="609.5" y="-209.162" font-family="Times,serif" font-size="9.00">wallRadar[0,1]</text>
</g>
<!-- wallRadar[0,1]&#45;&gt;Shoot -->
<g id="edge11" class="edge"><title>wallRadar[0,1]&#45;&gt;Shoot</title>
<path fill="none" stroke="green" stroke-width="0.436177" stroke-dasharray="1,5" d="M622.931,-202.286C657.358,-181.585 749.47,-126.197 798.228,-96.8787"/>
<polygon fill="green" stroke="green" stroke-width="0.436177" points="800.038,-99.8747 806.804,-91.7219 796.43,-93.8757 800.038,-99.8747"/>
</g>
<!-- wallRadar[0,1]&#45;&gt;Move Forward/Backward -->
<g id="edge30" class="edge"><title>wallRadar[0,1]&#45;&gt;Move Forward/Backward</title>
<path fill="none" stroke="green" stroke-width="0.271317" stroke-dasharray="1,5" d="M624.042,-202.321C632.639,-197.957 643.889,-192.903 654.5,-190.149 835.414,-143.194 887.487,-172.422 1073.5,-154.149 1289.94,-132.888 1544.19,-103.669 1674.63,-88.3686"/>
<polygon fill="green" stroke="green" stroke-width="0.271317" points="1675.43,-91.799 1684.95,-87.1566 1674.61,-84.8468 1675.43,-91.799"/>
</g>
<!-- wallRadar[0,1]&#45;&gt; Move Left/Right -->
<g id="edge23" class="edge"><title>wallRadar[0,1]&#45;&gt; Move Left/Right</title>
<path fill="none" stroke="green" stroke-width="0.604427" d="M624.951,-202.25C633.465,-198.082 644.341,-193.243 654.5,-190.149 745.507,-162.437 775.424,-184.752 865.5,-154.149 896.153,-143.735 928.193,-127.418 954.247,-112.562"/>
<polygon fill="green" stroke="green" stroke-width="0.604427" points="956.299,-115.419 963.201,-107.38 952.792,-109.36 956.299,-115.419"/>
</g>
<!-- wallRadar[&#45;1,0] -->
<g id="node3" class="node"><title>wallRadar[&#45;1,0]</title>
<polygon fill="lightgray" stroke="black" points="1150,-286.576 1077,-286.576 1077,-268.576 1150,-268.576 1150,-286.576"/>
<text text-anchor="middle" x="1113.5" y="-275.376" font-family="Times,serif" font-size="9.00">wallRadar[&#45;1,0]</text>
</g>
<!-- wallRadar[&#45;1,0]&#45;&gt;Shoot -->
<g id="edge45" class="edge"><title>wallRadar[&#45;1,0]&#45;&gt;Shoot</title>
<path fill="none" stroke="green" stroke-width="0.839919" d="M1076.88,-276.354C901.473,-275.115 154.181,-267.782 120.5,-232.576 107.465,-218.95 108.252,-204.486 120.5,-190.149 208.574,-87.0596 659.203,-78.2489 792.386,-77.9248"/>
<polygon fill="green" stroke="green" stroke-width="0.839919" points="792.497,-81.4248 802.494,-77.9155 792.491,-74.4248 792.497,-81.4248"/>
</g>
<!-- wallRadar[&#45;1,0]&#45;&gt;Move Forward/Backward -->
<g id="edge17" class="edge"><title>wallRadar[&#45;1,0]&#45;&gt;Move Forward/Backward</title>
<path fill="none" stroke="green" stroke-width="0.465235" d="M1150.25,-275.645C1291.22,-271.902 1790.6,-256.958 1813.5,-232.576 1835.18,-209.486 1827.97,-177.054 1812.98,-147.863"/>
<polygon fill="green" stroke="green" stroke-width="0.465235" points="1815.96,-146.023 1808.1,-138.921 1809.82,-149.376 1815.96,-146.023"/>
</g>
<!-- Turn left/right -->
<g id="node27" class="node"><title>Turn left/right</title>
<ellipse fill="lightblue" stroke="black" cx="1920.5" cy="-77.0746" rx="46.8387" ry="46.8387"/>
<text text-anchor="middle" x="1920.5" y="-74.8746" font-family="Times,serif" font-size="9.00">Turn left/right</text>
</g>
<!-- wallRadar[&#45;1,0]&#45;&gt;Turn left/right -->
<g id="edge4" class="edge"><title>wallRadar[&#45;1,0]&#45;&gt;Turn left/right</title>
<path fill="none" stroke="green" stroke-width="0.151403" d="M1150.06,-276.195C1376.53,-273.752 2579.34,-259.52 2605.5,-232.576 2618.64,-219.047 2617.71,-204.519 2605.5,-190.149 2524.78,-95.1452 2127.06,-80.5003 1977.5,-78.3772"/>
<polygon fill="green" stroke="green" stroke-width="0.151403" points="1977.21,-74.8733 1967.17,-78.2451 1977.12,-81.8728 1977.21,-74.8733"/>
</g>
<!-- 710 -->
<g id="node28" class="node"><title>710</title>
<ellipse fill="white" stroke="black" cx="395.5" cy="-211.362" rx="21.4286" ry="21.4286"/>
<text text-anchor="middle" x="395.5" y="-209.162" font-family="Times,serif" font-size="9.00">710</text>
</g>
<!-- wallRadar[&#45;1,0]&#45;&gt;710 -->
<g id="edge57" class="edge"><title>wallRadar[&#45;1,0]&#45;&gt;710</title>
<path fill="none" stroke="red" stroke-width="0.716001" d="M1076.89,-276.743C952.595,-276.922 547.715,-274.217 425.5,-232.576 423.824,-232.005 422.154,-231.314 420.508,-230.538"/>
<polygon fill="red" stroke="red" stroke-width="0.716001" points="421.901,-227.303 411.482,-225.381 418.428,-233.381 421.901,-227.303"/>
</g>
<!-- wallRadar[0,&#45;1] -->
<g id="node4" class="node"><title>wallRadar[0,&#45;1]</title>
<polygon fill="lightgray" stroke="black" points="73,-220.362 0,-220.362 0,-202.362 73,-202.362 73,-220.362"/>
<text text-anchor="middle" x="36.5" y="-209.162" font-family="Times,serif" font-size="9.00">wallRadar[0,&#45;1]</text>
</g>
<!-- wallRadar[0,&#45;1]&#45;&gt;Shoot -->
<g id="edge2" class="edge"><title>wallRadar[0,&#45;1]&#45;&gt;Shoot</title>
<path fill="none" stroke="green" stroke-width="0.497285" d="M54.1006,-202.237C63.7761,-198.065 76.098,-193.227 87.5,-190.149 352.254,-118.689 683.268,-88.9731 792.591,-80.666"/>
<polygon fill="green" stroke="green" stroke-width="0.497285" points="793.052,-84.1413 802.764,-79.9065 792.531,-77.1608 793.052,-84.1413"/>
</g>
<!-- wallRadar[0.7,0.7] -->
<g id="node5" class="node"><title>wallRadar[0.7,0.7]</title>
<polygon fill="lightgray" stroke="black" points="1510,-220.362 1427,-220.362 1427,-202.362 1510,-202.362 1510,-220.362"/>
<text text-anchor="middle" x="1468.5" y="-209.162" font-family="Times,serif" font-size="9.00">wallRadar[0.7,0.7]</text>
</g>
<!-- wallRadar[0.7,0.7]&#45;&gt;Shoot -->
<g id="edge26" class="edge"><title>wallRadar[0.7,0.7]&#45;&gt;Shoot</title>
<path fill="none" stroke="red" stroke-width="0.132776" d="M1451.91,-202.311C1442.13,-197.943 1429.38,-192.89 1417.5,-190.149 1212.5,-142.855 1144.65,-221.983 945.5,-154.149 912.348,-142.857 879.429,-119.846 857.175,-102.074"/>
<polygon fill="red" stroke="red" stroke-width="0.132776" points="859.15,-99.1675 849.191,-95.554 854.723,-104.59 859.15,-99.1675"/>
</g>
<!-- wallRadar[0.7,0.7]&#45;&gt; Move Left/Right -->
<g id="edge21" class="edge"><title>wallRadar[0.7,0.7]&#45;&gt; Move Left/Right</title>
<path fill="none" stroke="green" stroke-width="0.367413" d="M1449.31,-202.181C1439.83,-198.287 1428.16,-193.713 1417.5,-190.149 1297.41,-149.992 1154.06,-113.1 1073.22,-93.283"/>
<polygon fill="green" stroke="green" stroke-width="0.367413" points="1073.74,-89.8077 1063.2,-90.8351 1072.08,-96.6079 1073.74,-89.8077"/>
</g>
<!-- wallRadar[0.7,0.7]&#45;&gt;Turn left/right -->
<g id="edge10" class="edge"><title>wallRadar[0.7,0.7]&#45;&gt;Turn left/right</title>
<path fill="none" stroke="red" stroke-width="0.203474" d="M1485.59,-202.256C1495.32,-197.982 1507.85,-193.041 1519.5,-190.149 1661.83,-154.815 1715.94,-218.949 1847.5,-154.149 1862.32,-146.849 1875.77,-135.238 1886.96,-123.265"/>
<polygon fill="red" stroke="red" stroke-width="0.203474" points="1889.58,-125.587 1893.64,-115.798 1884.36,-120.922 1889.58,-125.587"/>
</g>
<!-- wallRadar[&#45;0.7,0.7] -->
<g id="node6" class="node"><title>wallRadar[&#45;0.7,0.7]</title>
<polygon fill="lightgray" stroke="black" points="1804.5,-220.362 1718.5,-220.362 1718.5,-202.362 1804.5,-202.362 1804.5,-220.362"/>
<text text-anchor="middle" x="1761.5" y="-209.162" font-family="Times,serif" font-size="9.00">wallRadar[&#45;0.7,0.7]</text>
</g>
<!-- wallRadar[&#45;0.7,0.7]&#45;&gt;Move Forward/Backward -->
<g id="edge53" class="edge"><title>wallRadar[&#45;0.7,0.7]&#45;&gt;Move Forward/Backward</title>
<path fill="none" stroke="green" stroke-width="0.277224" d="M1761.5,-202.087C1761.5,-193.782 1761.5,-180.04 1761.5,-164.664"/>
<polygon fill="green" stroke="green" stroke-width="0.277224" points="1765,-164.364 1761.5,-154.364 1758,-164.364 1765,-164.364"/>
</g>
<!-- wallRadar[&#45;0.7,0.7]&#45;&gt; Move Left/Right -->
<g id="edge24" class="edge"><title>wallRadar[&#45;0.7,0.7]&#45;&gt; Move Left/Right</title>
<path fill="none" stroke="green" stroke-width="0.551525" d="M1743.53,-202.289C1733.65,-198.133 1721.09,-193.292 1709.5,-190.149 1480.73,-128.127 1200.01,-95.9948 1074.97,-83.8814"/>
<polygon fill="green" stroke="green" stroke-width="0.551525" points="1075.08,-80.3766 1064.79,-82.907 1074.41,-87.3447 1075.08,-80.3766"/>
</g>
<!-- wallRadar[&#45;0.7,0.7]&#45;&gt;Turn left/right -->
<g id="edge52" class="edge"><title>wallRadar[&#45;0.7,0.7]&#45;&gt;Turn left/right</title>
<path fill="none" stroke="red" stroke-width="0.145146" stroke-dasharray="1,5" d="M1775.88,-202.327C1793.54,-192.162 1824.02,-173.623 1847.5,-154.149 1859.75,-143.988 1872.1,-131.952 1883.07,-120.488"/>
<polygon fill="red" stroke="red" stroke-width="0.145146" points="1885.76,-122.742 1890.06,-113.063 1880.66,-117.943 1885.76,-122.742"/>
</g>
<!-- wallRadar[&#45;0.7,&#45;0.7] -->
<g id="node7" class="node"><title>wallRadar[&#45;0.7,&#45;0.7]</title>
<polygon fill="lightgray" stroke="black" points="219,-220.362 130,-220.362 130,-202.362 219,-202.362 219,-220.362"/>
<text text-anchor="middle" x="174.5" y="-209.162" font-family="Times,serif" font-size="9.00">wallRadar[&#45;0.7,&#45;0.7]</text>
</g>
<!-- wallRadar[&#45;0.7,&#45;0.7]&#45;&gt;Shoot -->
<g id="edge8" class="edge"><title>wallRadar[&#45;0.7,&#45;0.7]&#45;&gt;Shoot</title>
<path fill="none" stroke="red" stroke-width="0.937611" d="M193.356,-202.22C203.355,-198.146 215.934,-193.403 227.5,-190.149 437.604,-131.048 697.892,-94.6605 792.744,-82.5662"/>
<polygon fill="red" stroke="red" stroke-width="0.937611" points="793.219,-86.034 802.702,-81.3086 792.342,-79.0892 793.219,-86.034"/>
</g>
<!-- wallRadar[&#45;0.7,&#45;0.7]&#45;&gt; Move Left/Right -->
<g id="edge33" class="edge"><title>wallRadar[&#45;0.7,&#45;0.7]&#45;&gt; Move Left/Right</title>
<path fill="none" stroke="green" stroke-width="0.843387" d="M191.754,-202.23C201.923,-197.835 215.173,-192.781 227.5,-190.149 505.246,-130.845 591.874,-230.23 865.5,-154.149 896.949,-145.405 929.319,-129.076 955.384,-113.781"/>
<polygon fill="green" stroke="green" stroke-width="0.843387" points="957.184,-116.782 963.971,-108.646 953.592,-110.775 957.184,-116.782"/>
</g>
<!-- wallRadar[0.7,&#45;0.7] -->
<g id="node8" class="node"><title>wallRadar[0.7,&#45;0.7]</title>
<polygon fill="lightgray" stroke="black" points="2482.5,-220.362 2396.5,-220.362 2396.5,-202.362 2482.5,-202.362 2482.5,-220.362"/>
<text text-anchor="middle" x="2439.5" y="-209.162" font-family="Times,serif" font-size="9.00">wallRadar[0.7,&#45;0.7]</text>
</g>
<!-- wallRadar[0.7,&#45;0.7]&#45;&gt;Move Forward/Backward -->
<g id="edge27" class="edge"><title>wallRadar[0.7,&#45;0.7]&#45;&gt;Move Forward/Backward</title>
<path fill="none" stroke="green" stroke-width="0.119804" d="M2422.57,-202.283C2412.6,-197.905 2399.6,-192.852 2387.5,-190.149 2160.11,-139.364 2083.17,-234.577 1864.5,-154.149 1851.57,-149.395 1838.87,-142.485 1827.04,-134.742"/>
<polygon fill="green" stroke="green" stroke-width="0.119804" points="1828.82,-131.721 1818.59,-128.976 1824.87,-137.503 1828.82,-131.721"/>
</g>
<!-- wallRadar[0.7,&#45;0.7]&#45;&gt;Turn left/right -->
<g id="edge31" class="edge"><title>wallRadar[0.7,&#45;0.7]&#45;&gt;Turn left/right</title>
<path fill="none" stroke="red" stroke-width="0.371671" d="M2420.46,-202.247C2410.71,-198.277 2398.59,-193.619 2387.5,-190.149 2241.3,-144.42 2064.41,-106.603 1976.19,-88.8951"/>
<polygon fill="red" stroke="red" stroke-width="0.371671" points="1976.63,-85.4133 1966.14,-86.887 1975.26,-92.2777 1976.63,-85.4133"/>
</g>
<!-- enemyRadar[RightBack] -->
<g id="node9" class="node"><title>enemyRadar[RightBack]</title>
<polygon fill="lightgray" stroke="black" points="1408.5,-220.362 1304.5,-220.362 1304.5,-202.362 1408.5,-202.362 1408.5,-220.362"/>
<text text-anchor="middle" x="1356.5" y="-209.162" font-family="Times,serif" font-size="9.00">enemyRadar[RightBack]</text>
</g>
<!-- enemyRadar[RightBack]&#45;&gt;Shoot -->
<g id="edge6" class="edge"><title>enemyRadar[RightBack]&#45;&gt;Shoot</title>
<path fill="none" stroke="red" stroke-width="0.217027" stroke-dasharray="1,5" d="M1335.92,-202.299C1324.24,-198.039 1309.24,-193.097 1295.5,-190.149 1142.6,-157.362 1092.85,-206.516 945.5,-154.149 912.5,-142.421 879.56,-119.469 857.26,-101.829"/>
<polygon fill="red" stroke="red" stroke-width="0.217027" points="859.235,-98.9253 849.257,-95.3634 854.836,-104.37 859.235,-98.9253"/>
</g>
<!-- enemyRadar[RightBack]&#45;&gt;Turn left/right -->
<g id="edge39" class="edge"><title>enemyRadar[RightBack]&#45;&gt;Turn left/right</title>
<path fill="none" stroke="red" stroke-width="0.884362" d="M1377.13,-202.307C1389.04,-197.995 1404.41,-192.998 1418.5,-190.149 1512.27,-171.196 1761.14,-195.319 1847.5,-154.149 1862.55,-146.974 1876.13,-135.272 1887.39,-123.174"/>
<polygon fill="red" stroke="red" stroke-width="0.884362" points="1890.07,-125.43 1894.09,-115.628 1884.83,-120.783 1890.07,-125.43"/>
</g>
<!-- enemyRadar[LeftBack] -->
<g id="node10" class="node"><title>enemyRadar[LeftBack]</title>
<polygon fill="lightgray" stroke="black" points="762,-220.362 663,-220.362 663,-202.362 762,-202.362 762,-220.362"/>
<text text-anchor="middle" x="712.5" y="-209.162" font-family="Times,serif" font-size="9.00">enemyRadar[LeftBack]</text>
</g>
<!-- enemyRadar[LeftBack]&#45;&gt;Shoot -->
<g id="edge36" class="edge"><title>enemyRadar[LeftBack]&#45;&gt;Shoot</title>
<path fill="none" stroke="red" stroke-width="0.406277" d="M719.819,-202.087C736.535,-183.187 778.147,-136.138 805.04,-105.73"/>
<polygon fill="red" stroke="red" stroke-width="0.406277" points="807.866,-107.819 811.869,-98.0093 802.622,-103.181 807.866,-107.819"/>
</g>
<!-- enemyRadar[LeftBack]&#45;&gt;Move Forward/Backward -->
<g id="edge25" class="edge"><title>enemyRadar[LeftBack]&#45;&gt;Move Forward/Backward</title>
<path fill="none" stroke="red" stroke-width="0.793723" d="M732.395,-202.337C743.69,-198.089 758.19,-193.145 771.5,-190.149 793.517,-185.194 1437.91,-113.798 1675.03,-87.6121"/>
<polygon fill="red" stroke="red" stroke-width="0.793723" points="1675.44,-91.0885 1684.99,-86.5121 1674.67,-84.1308 1675.44,-91.0885"/>
</g>
<!-- enemyRadar[LeftBack]&#45;&gt; Move Left/Right -->
<g id="edge34" class="edge"><title>enemyRadar[LeftBack]&#45;&gt; Move Left/Right</title>
<path fill="none" stroke="red" stroke-width="0.227209" d="M735.465,-202.351C771.961,-189.547 841.524,-164.829 865.5,-154.149 894.957,-141.028 926.749,-124.498 952.948,-110.202"/>
<polygon fill="red" stroke="red" stroke-width="0.227209" points="954.889,-113.129 961.969,-105.247 951.519,-106.993 954.889,-113.129"/>
</g>
<!-- enemyRadar[Right45ø] -->
<g id="node11" class="node"><title>enemyRadar[Right45ø]</title>
<polygon fill="lightgray" stroke="black" points="1152.5,-220.362 1052.5,-220.362 1052.5,-202.362 1152.5,-202.362 1152.5,-220.362"/>
<text text-anchor="middle" x="1102.5" y="-209.162" font-family="Times,serif" font-size="9.00">enemyRadar[Right45ø]</text>
</g>
<!-- enemyRadar[Right45ø]&#45;&gt;Shoot -->
<g id="edge12" class="edge"><title>enemyRadar[Right45ø]&#45;&gt;Shoot</title>
<path fill="none" stroke="red" stroke-width="0.167023" d="M1079.03,-202.303C1038.33,-188.275 957.809,-160.281 945.5,-154.149 914.534,-138.724 881.795,-116.657 859.024,-100.258"/>
<polygon fill="red" stroke="red" stroke-width="0.167023" points="860.953,-97.3338 850.809,-94.2768 856.832,-102.993 860.953,-97.3338"/>
</g>
<!-- enemyRadar[Right45ø]&#45;&gt; Move Left/Right -->
<g id="edge43" class="edge"><title>enemyRadar[Right45ø]&#45;&gt; Move Left/Right</title>
<path fill="none" stroke="green" stroke-width="0.20731" d="M1096.68,-202.087C1086.7,-187.888 1065.55,-157.801 1046.58,-130.819"/>
<polygon fill="green" stroke="green" stroke-width="0.20731" points="1049.39,-128.734 1040.78,-122.566 1043.67,-132.76 1049.39,-128.734"/>
</g>
<!-- enemyRadar[Right45ø]&#45;&gt;Turn left/right -->
<g id="edge46" class="edge"><title>enemyRadar[Right45ø]&#45;&gt;Turn left/right</title>
<path fill="none" stroke="red" stroke-width="0.393764" d="M1121.53,-202.335C1132.91,-197.916 1147.79,-192.804 1161.5,-190.149 1311.37,-161.132 1708.69,-217.679 1847.5,-154.149 1862.66,-147.21 1876.28,-135.577 1887.53,-123.469"/>
<polygon fill="red" stroke="red" stroke-width="0.393764" points="1890.21,-125.715 1894.22,-115.906 1884.97,-121.076 1890.21,-125.715"/>
</g>
<!-- enemyRadar[Left45ø] -->
<g id="node12" class="node"><title>enemyRadar[Left45ø]</title>
<polygon fill="lightgray" stroke="black" points="2596,-220.362 2501,-220.362 2501,-202.362 2596,-202.362 2596,-220.362"/>
<text text-anchor="middle" x="2548.5" y="-209.162" font-family="Times,serif" font-size="9.00">enemyRadar[Left45ø]</text>
</g>
<!-- enemyRadar[Left45ø]&#45;&gt;Move Forward/Backward -->
<g id="edge41" class="edge"><title>enemyRadar[Left45ø]&#45;&gt;Move Forward/Backward</title>
<path fill="none" stroke="red" stroke-width="0.486517" d="M2530.14,-202.352C2519.15,-197.939 2504.78,-192.828 2491.5,-190.149 2354.69,-162.55 1995.76,-201.579 1864.5,-154.149 1851.55,-149.468 1838.83,-142.596 1826.99,-134.869"/>
<polygon fill="red" stroke="red" stroke-width="0.486517" points="1828.77,-131.847 1818.54,-129.11 1824.83,-137.633 1828.77,-131.847"/>
</g>
<!-- enemyRadar[Left45ø]&#45;&gt;Turn left/right -->
<g id="edge42" class="edge"><title>enemyRadar[Left45ø]&#45;&gt;Turn left/right</title>
<path fill="none" stroke="green" stroke-width="0.109427" d="M2528.15,-202.327C2517.38,-198.282 2503.85,-193.533 2491.5,-190.149 2305.69,-139.265 2079.85,-101.999 1976.73,-86.2983"/>
<polygon fill="green" stroke="green" stroke-width="0.109427" points="1976.96,-82.793 1966.55,-84.7573 1975.91,-89.7142 1976.96,-82.793"/>
</g>
<!-- enemyRadar[RightFront20ø] -->
<g id="node13" class="node"><title>enemyRadar[RightFront20ø]</title>
<polygon fill="lightgray" stroke="black" points="356,-220.362 237,-220.362 237,-202.362 356,-202.362 356,-220.362"/>
<text text-anchor="middle" x="296.5" y="-209.162" font-family="Times,serif" font-size="9.00">enemyRadar[RightFront20ø]</text>
</g>
<!-- enemyRadar[RightFront20ø]&#45;&gt;Shoot -->
<g id="edge48" class="edge"><title>enemyRadar[RightFront20ø]&#45;&gt;Shoot</title>
<path fill="none" stroke="red" stroke-width="0.606762" d="M322.957,-202.289C335.765,-198.464 351.39,-193.918 365.5,-190.149 524.306,-147.736 715.566,-103.768 793.661,-86.1142"/>
<polygon fill="red" stroke="red" stroke-width="0.606762" points="794.498,-89.5134 803.482,-83.898 792.957,-82.6851 794.498,-89.5134"/>
</g>
<!-- enemyRadar[RightFront20ø]&#45;&gt; Move Left/Right -->
<g id="edge18" class="edge"><title>enemyRadar[RightFront20ø]&#45;&gt; Move Left/Right</title>
<path fill="none" stroke="green" stroke-width="0.244668" d="M319.52,-202.281C332.795,-197.959 349.899,-192.963 365.5,-190.149 584.76,-150.607 651.315,-215.496 865.5,-154.149 896.881,-145.161 929.244,-128.808 955.321,-113.561"/>
<polygon fill="green" stroke="green" stroke-width="0.244668" points="957.112,-116.568 963.914,-108.445 953.531,-110.554 957.112,-116.568"/>
</g>
<!-- enemyRadar[LeftFront20ø] -->
<g id="node14" class="node"><title>enemyRadar[LeftFront20ø]</title>
<polygon fill="lightgray" stroke="black" points="2378.5,-220.362 2264.5,-220.362 2264.5,-202.362 2378.5,-202.362 2378.5,-220.362"/>
<text text-anchor="middle" x="2321.5" y="-209.162" font-family="Times,serif" font-size="9.00">enemyRadar[LeftFront20ø]</text>
</g>
<!-- enemyRadar[LeftFront20ø]&#45;&gt; Move Left/Right -->
<g id="edge49" class="edge"><title>enemyRadar[LeftFront20ø]&#45;&gt; Move Left/Right</title>
<path fill="none" stroke="red" stroke-width="0.30691" d="M2299.82,-202.311C2287.09,-197.943 2270.59,-192.889 2255.5,-190.149 2001.38,-144.015 1932.78,-176.812 1675.5,-154.149 1454.43,-134.676 1193.17,-102.003 1074.26,-86.5995"/>
<polygon fill="red" stroke="red" stroke-width="0.30691" points="1074.59,-83.114 1064.22,-85.2975 1073.69,-90.0557 1074.59,-83.114"/>
</g>
<!-- enemyRadar[LeftFront20ø]&#45;&gt;Turn left/right -->
<g id="edge13" class="edge"><title>enemyRadar[LeftFront20ø]&#45;&gt;Turn left/right</title>
<path fill="none" stroke="green" stroke-width="0.516508" d="M2297.02,-202.286C2233.51,-181.334 2062.29,-124.851 1974.31,-95.8255"/>
<polygon fill="green" stroke="green" stroke-width="0.516508" points="1975.37,-92.4895 1964.77,-92.6803 1973.17,-99.1371 1975.37,-92.4895"/>
</g>
<!-- enemyRadar[RightFront15ø] -->
<g id="node15" class="node"><title>enemyRadar[RightFront15ø]</title>
<polygon fill="lightgray" stroke="black" points="1980,-220.362 1861,-220.362 1861,-202.362 1980,-202.362 1980,-220.362"/>
<text text-anchor="middle" x="1920.5" y="-209.162" font-family="Times,serif" font-size="9.00">enemyRadar[RightFront15ø]</text>
</g>
<!-- enemyRadar[RightFront15ø]&#45;&gt;Move Forward/Backward -->
<g id="edge9" class="edge"><title>enemyRadar[RightFront15ø]&#45;&gt;Move Forward/Backward</title>
<path fill="none" stroke="green" stroke-width="0.7271" d="M1910.55,-202.087C1894.07,-188.373 1859.77,-159.839 1828.23,-133.595"/>
<polygon fill="green" stroke="green" stroke-width="0.7271" points="1830.21,-130.688 1820.28,-126.983 1825.73,-136.069 1830.21,-130.688"/>
</g>
<!-- enemyRadar[RightFront15ø]&#45;&gt; Move Left/Right -->
<g id="edge28" class="edge"><title>enemyRadar[RightFront15ø]&#45;&gt; Move Left/Right</title>
<path fill="none" stroke="green" stroke-width="0.251613" d="M1880.44,-202.321C1860.38,-198.415 1835.7,-193.791 1813.5,-190.149 1539.7,-145.232 1211.53,-103.119 1074.54,-86.0608"/>
<polygon fill="green" stroke="green" stroke-width="0.251613" points="1074.58,-82.5392 1064.23,-84.7791 1073.72,-89.4858 1074.58,-82.5392"/>
</g>
<!-- enemyRadar[RightFront15ø]&#45;&gt;Turn left/right -->
<g id="edge15" class="edge"><title>enemyRadar[RightFront15ø]&#45;&gt;Turn left/right</title>
<path fill="none" stroke="green" stroke-width="0.383996" d="M1920.5,-202.087C1920.5,-188.455 1920.5,-160.178 1920.5,-134.065"/>
<polygon fill="green" stroke="green" stroke-width="0.383996" points="1924,-133.819 1920.5,-123.819 1917,-133.819 1924,-133.819"/>
</g>
<!-- enemyRadar[LeftFront15ø] -->
<g id="node16" class="node"><title>enemyRadar[LeftFront15ø]</title>
<polygon fill="lightgray" stroke="black" points="2112.5,-220.362 1998.5,-220.362 1998.5,-202.362 2112.5,-202.362 2112.5,-220.362"/>
<text text-anchor="middle" x="2055.5" y="-209.162" font-family="Times,serif" font-size="9.00">enemyRadar[LeftFront15ø]</text>
</g>
<!-- enemyRadar[LeftFront15ø]&#45;&gt;Move Forward/Backward -->
<g id="edge1" class="edge"><title>enemyRadar[LeftFront15ø]&#45;&gt;Move Forward/Backward</title>
<path fill="none" stroke="red" stroke-width="0.678015" d="M2029.51,-202.293C2017.37,-198.552 2002.71,-194.074 1989.5,-190.149 1934.08,-173.684 1916.35,-179.727 1864.5,-154.149 1852.39,-148.174 1840.22,-140.75 1828.71,-132.902"/>
<polygon fill="red" stroke="red" stroke-width="0.678015" points="1830.66,-129.992 1820.46,-127.127 1826.65,-135.727 1830.66,-129.992"/>
</g>
<!-- enemyRadar[LeftFront15ø]&#45;&gt; Move Left/Right -->
<g id="edge20" class="edge"><title>enemyRadar[LeftFront15ø]&#45;&gt; Move Left/Right</title>
<path fill="none" stroke="green" stroke-width="0.229714" d="M2032.86,-202.302C2020.24,-198.097 2004.16,-193.206 1989.5,-190.149 1988.09,-189.855 1292.52,-110.399 1074.23,-85.4674"/>
<polygon fill="green" stroke="green" stroke-width="0.229714" points="1074.53,-81.9794 1064.2,-84.3219 1073.74,-88.9342 1074.53,-81.9794"/>
</g>
<!-- enemyRadar[LeftFront15ø]&#45;&gt;Turn left/right -->
<g id="edge54" class="edge"><title>enemyRadar[LeftFront15ø]&#45;&gt;Turn left/right</title>
<path fill="none" stroke="green" stroke-width="1.24485" d="M2047.06,-202.087C2030.13,-185.505 1991.1,-147.256 1960.82,-117.588"/>
<polygon fill="green" stroke="green" stroke-width="1.24485" points="1962.93,-114.747 1953.33,-110.248 1958.03,-119.747 1962.93,-114.747"/>
</g>
<!-- enemyRadar[RightFront7.5ø] -->
<g id="node17" class="node"><title>enemyRadar[RightFront7.5ø]</title>
<polygon fill="lightgray" stroke="black" points="1650.5,-220.362 1528.5,-220.362 1528.5,-202.362 1650.5,-202.362 1650.5,-220.362"/>
<text text-anchor="middle" x="1589.5" y="-209.162" font-family="Times,serif" font-size="9.00">enemyRadar[RightFront7.5ø]</text>
</g>
<!-- enemyRadar[RightFront7.5ø]&#45;&gt; Move Left/Right -->
<g id="edge35" class="edge"><title>enemyRadar[RightFront7.5ø]&#45;&gt; Move Left/Right</title>
<path fill="none" stroke="green" stroke-width="0.722072" d="M1563.02,-202.277C1549.97,-198.405 1533.97,-193.823 1519.5,-190.149 1360.17,-149.684 1170.67,-110.313 1073.69,-90.7886"/>
<polygon fill="green" stroke="green" stroke-width="0.722072" points="1074.24,-87.3291 1063.74,-88.7911 1072.86,-94.1921 1074.24,-87.3291"/>
</g>
<!-- enemyRadar[RightFront7.5ø]&#45;&gt;Turn left/right -->
<g id="edge5" class="edge"><title>enemyRadar[RightFront7.5ø]&#45;&gt;Turn left/right</title>
<path fill="none" stroke="red" stroke-width="0.365527" d="M1615.66,-202.326C1629,-198.376 1645.54,-193.712 1660.5,-190.149 1742.84,-170.543 1773.15,-194.586 1847.5,-154.149 1861.88,-146.33 1875.12,-134.692 1886.26,-122.857"/>
<polygon fill="red" stroke="red" stroke-width="0.365527" points="1889.17,-124.859 1893.27,-115.09 1883.97,-120.169 1889.17,-124.859"/>
</g>
<!-- enemyRadar[LeftFront7.5ø] -->
<g id="node18" class="node"><title>enemyRadar[LeftFront7.5ø]</title>
<polygon fill="lightgray" stroke="black" points="2246.5,-220.362 2130.5,-220.362 2130.5,-202.362 2246.5,-202.362 2246.5,-220.362"/>
<text text-anchor="middle" x="2188.5" y="-209.162" font-family="Times,serif" font-size="9.00">enemyRadar[LeftFront7.5ø]</text>
</g>
<!-- enemyRadar[LeftFront7.5ø]&#45;&gt;Move Forward/Backward -->
<g id="edge29" class="edge"><title>enemyRadar[LeftFront7.5ø]&#45;&gt;Move Forward/Backward</title>
<path fill="none" stroke="red" stroke-width="0.255787" d="M2165.17,-202.359C2152.39,-198.223 2136.22,-193.38 2121.5,-190.149 2008.84,-165.42 1971.28,-197.75 1864.5,-154.149 1851.83,-148.976 1839.3,-141.892 1827.57,-134.115"/>
<polygon fill="red" stroke="red" stroke-width="0.255787" points="1829.41,-131.129 1819.18,-128.347 1825.44,-136.897 1829.41,-131.129"/>
</g>
<!-- enemyRadar[LeftFront7.5ø]&#45;&gt; Move Left/Right -->
<g id="edge19" class="edge"><title>enemyRadar[LeftFront7.5ø]&#45;&gt; Move Left/Right</title>
<path fill="none" stroke="red" stroke-width="0.46853" d="M2166.16,-202.32C2153.27,-198.012 2136.66,-193.015 2121.5,-190.149 1926.09,-153.222 1873.43,-173.436 1675.5,-154.149 1454.62,-132.626 1193.27,-100.957 1074.29,-86.1993"/>
<polygon fill="red" stroke="red" stroke-width="0.46853" points="1074.61,-82.7122 1064.26,-84.9527 1073.75,-89.6588 1074.61,-82.7122"/>
</g>
<!-- enemyRadar[LeftFront7.5ø]&#45;&gt;Turn left/right -->
<g id="edge7" class="edge"><title>enemyRadar[LeftFront7.5ø]&#45;&gt;Turn left/right</title>
<path fill="none" stroke="green" stroke-width="0.203221" d="M2172.14,-202.286C2133.01,-182.971 2032.7,-133.458 1971.2,-103.1"/>
<polygon fill="green" stroke="green" stroke-width="0.203221" points="1972.56,-99.8703 1962.05,-98.5825 1969.46,-106.147 1972.56,-99.8703"/>
</g>
<!-- enemyRadar[RightFront2.5ø] -->
<g id="node19" class="node"><title>enemyRadar[RightFront2.5ø]</title>
<polygon fill="lightgray" stroke="black" points="556.5,-220.362 434.5,-220.362 434.5,-202.362 556.5,-202.362 556.5,-220.362"/>
<text text-anchor="middle" x="495.5" y="-209.162" font-family="Times,serif" font-size="9.00">enemyRadar[RightFront2.5ø]</text>
</g>
<!-- enemyRadar[RightFront2.5ø]&#45;&gt; Move Left/Right -->
<g id="edge37" class="edge"><title>enemyRadar[RightFront2.5ø]&#45;&gt; Move Left/Right</title>
<path fill="none" stroke="green" stroke-width="0.539166" d="M519.88,-202.271C533.225,-198.11 550.128,-193.27 565.5,-190.149 697.106,-163.434 737.317,-194.185 865.5,-154.149 896.402,-144.498 928.468,-128.261 954.475,-113.261"/>
<polygon fill="green" stroke="green" stroke-width="0.539166" points="956.555,-116.099 963.409,-108.02 953.013,-110.061 956.555,-116.099"/>
</g>
<!-- enemyRadar[LeftFront2.5ø] -->
<g id="node20" class="node"><title>enemyRadar[LeftFront2.5ø]</title>
<polygon fill="lightgray" stroke="black" points="1286.5,-220.362 1170.5,-220.362 1170.5,-202.362 1286.5,-202.362 1286.5,-220.362"/>
<text text-anchor="middle" x="1228.5" y="-209.162" font-family="Times,serif" font-size="9.00">enemyRadar[LeftFront2.5ø]</text>
</g>
<!-- enemyRadar[LeftFront2.5ø]&#45;&gt;Shoot -->
<g id="edge14" class="edge"><title>enemyRadar[LeftFront2.5ø]&#45;&gt;Shoot</title>
<path fill="none" stroke="green" stroke-width="0.440082" stroke-dasharray="1,5" d="M1204.51,-202.312C1191.83,-198.264 1175.94,-193.515 1161.5,-190.149 1066.72,-168.049 1036.14,-189.597 945.5,-154.149 913.082,-141.471 880.293,-118.859 857.886,-101.572"/>
<polygon fill="green" stroke="green" stroke-width="0.440082" points="859.854,-98.6667 849.829,-95.2387 855.528,-104.17 859.854,-98.6667"/>
</g>
<!-- enemyRadar[LeftFront2.5ø]&#45;&gt;Turn left/right -->
<g id="edge38" class="edge"><title>enemyRadar[LeftFront2.5ø]&#45;&gt;Turn left/right</title>
<path fill="none" stroke="red" stroke-width="0.32334" stroke-dasharray="1,5" d="M1250.52,-202.333C1263.45,-197.972 1280.2,-192.919 1295.5,-190.149 1416.46,-168.255 1736.05,-206.016 1847.5,-154.149 1862.62,-147.114 1876.22,-135.453 1887.47,-123.349"/>
<polygon fill="red" stroke="red" stroke-width="0.32334" points="1890.15,-125.599 1894.16,-115.793 1884.91,-120.957 1890.15,-125.599"/>
</g>
<!-- enemyRadar[Front7Ø] -->
<g id="node21" class="node"><title>enemyRadar[Front7Ø]</title>
<polygon fill="lightgray" stroke="black" points="878.5,-220.362 780.5,-220.362 780.5,-202.362 878.5,-202.362 878.5,-220.362"/>
<text text-anchor="middle" x="829.5" y="-209.162" font-family="Times,serif" font-size="9.00">enemyRadar[Front7Ø]</text>
</g>
<!-- enemyRadar[Front7Ø]&#45;&gt;Shoot -->
<g id="edge55" class="edge"><title>enemyRadar[Front7Ø]&#45;&gt;Shoot</title>
<path fill="none" stroke="red" stroke-width="0.457016" d="M829.5,-202.087C829.5,-184.884 829.5,-144.359 829.5,-114.29"/>
<polygon fill="red" stroke="red" stroke-width="0.457016" points="833,-114.146 829.5,-104.146 826,-114.146 833,-114.146"/>
</g>
<!-- enemyRadar[Front7Ø]&#45;&gt;Move Forward/Backward -->
<g id="edge3" class="edge"><title>enemyRadar[Front7Ø]&#45;&gt;Move Forward/Backward</title>
<path fill="none" stroke="green" stroke-width="0.101211" d="M849.327,-202.302C860.394,-198.098 874.526,-193.207 887.5,-190.149 1036.16,-155.116 1484.64,-106.55 1674.79,-86.875"/>
<polygon fill="green" stroke="green" stroke-width="0.101211" points="1675.15,-90.3558 1684.74,-85.847 1674.43,-83.3928 1675.15,-90.3558"/>
</g>
<!-- enemyRadar[Front7Ø]&#45;&gt; Move Left/Right -->
<g id="edge40" class="edge"><title>enemyRadar[Front7Ø]&#45;&gt; Move Left/Right</title>
<path fill="none" stroke="green" stroke-width="0.43884" d="M840.489,-202.286C863.126,-185.65 916.244,-146.612 956.937,-116.705"/>
<polygon fill="green" stroke="green" stroke-width="0.43884" points="959.171,-119.407 965.156,-110.664 955.026,-113.766 959.171,-119.407"/>
</g>
<!-- OnTarget -->
<g id="node22" class="node"><title>OnTarget</title>
<polygon fill="lightgray" stroke="black" points="1034.5,-220.362 984.5,-220.362 984.5,-202.362 1034.5,-202.362 1034.5,-220.362"/>
<text text-anchor="middle" x="1009.5" y="-209.162" font-family="Times,serif" font-size="9.00">OnTarget</text>
</g>
<!-- OnTarget&#45;&gt;Shoot -->
<g id="edge47" class="edge"><title>OnTarget&#45;&gt;Shoot</title>
<path fill="none" stroke="red" stroke-width="0.381807" d="M998.511,-202.286C971.218,-182.228 899.616,-129.605 858.904,-99.6849"/>
<polygon fill="red" stroke="red" stroke-width="0.381807" points="860.844,-96.7665 850.713,-93.6647 856.698,-102.407 860.844,-96.7665"/>
</g>
<!-- OnTarget&#45;&gt;Move Forward/Backward -->
<g id="edge22" class="edge"><title>OnTarget&#45;&gt;Move Forward/Backward</title>
<path fill="none" stroke="red" stroke-width="0.710343" d="M1020.6,-202.287C1027,-198.023 1035.36,-193.08 1043.5,-190.149 1261.65,-111.604 1536.61,-88.0731 1674.39,-81.0475"/>
<polygon fill="red" stroke="red" stroke-width="0.710343" points="1674.66,-84.5386 1684.47,-80.5505 1674.31,-77.5471 1674.66,-84.5386"/>
</g>
<!-- OnTarget&#45;&gt; Move Left/Right -->
<g id="edge51" class="edge"><title>OnTarget&#45;&gt; Move Left/Right</title>
<path fill="none" stroke="green" stroke-width="1.2769" d="M1009.5,-202.087C1009.5,-189.912 1009.5,-166.055 1009.5,-142.491"/>
<polygon fill="green" stroke="green" stroke-width="1.2769" points="1013,-142.445 1009.5,-132.445 1006,-142.445 1013,-142.445"/>
</g>
<!-- bias -->
<g id="node23" class="node"><title>bias</title>
<polygon fill="lightgray" stroke="black" points="1700,-220.362 1669,-220.362 1669,-202.362 1700,-202.362 1700,-220.362"/>
<text text-anchor="middle" x="1684.5" y="-209.162" font-family="Times,serif" font-size="9.00">bias</text>
</g>
<!-- bias&#45;&gt;Move Forward/Backward -->
<g id="edge16" class="edge"><title>bias&#45;&gt;Move Forward/Backward</title>
<path fill="none" stroke="green" stroke-width="0.4202" d="M1689.32,-202.087C1695.34,-191.74 1706.27,-172.956 1717.84,-153.085"/>
<polygon fill="green" stroke="green" stroke-width="0.4202" points="1721,-154.619 1723,-144.216 1714.95,-151.097 1721,-154.619"/>
</g>
<!-- 710&#45;&gt; Move Left/Right -->
<g id="edge56" class="edge"><title>710&#45;&gt; Move Left/Right</title>
<path fill="none" stroke="green" stroke-width="0.34799" d="M411.503,-197.404C415.816,-194.54 420.64,-191.853 425.5,-190.149 610.655,-125.221 677.141,-209.095 865.5,-154.149 896.7,-145.048 928.914,-128.782 954.941,-113.621"/>
<polygon fill="green" stroke="green" stroke-width="0.34799" points="957.064,-116.431 963.877,-108.318 953.491,-110.411 957.064,-116.431"/>
</g>
</g>
</svg>
