<?xml version="1.0" encoding="UTF-8" standalone="no"?>
<!DOCTYPE svg PUBLIC "-//W3C//DTD SVG 1.1//EN"
 "http://www.w3.org/Graphics/SVG/1.1/DTD/svg11.dtd">
<!-- Generated by graphviz version 2.38.0 (20140413.2041)
 -->
<!-- Title: %3 Pages: 1 -->
<svg width="2274pt" height="245pt"
 viewBox="0.00 0.00 2273.62 245.08" xmlns="http://www.w3.org/2000/svg" xmlns:xlink="http://www.w3.org/1999/xlink">
<g id="graph0" class="graph" transform="scale(1 1) rotate(0) translate(4 241.078)">
<title>%3</title>
<polygon fill="white" stroke="none" points="-4,4 -4,-241.078 2269.62,-241.078 2269.62,4 -4,4"/>
<!-- wallRadar[1,0] -->
<g id="node1" class="node"><title>wallRadar[1,0]</title>
<polygon fill="lightgray" stroke="black" points="887.177,-173.693 817.177,-173.693 817.177,-155.693 887.177,-155.693 887.177,-173.693"/>
<text text-anchor="middle" x="852.177" y="-162.493" font-family="Times,serif" font-size="9.00">wallRadar[1,0]</text>
</g>
<!-- Move Forward -->
<g id="node24" class="node"><title>Move Forward</title>
<ellipse fill="lightblue" stroke="black" cx="745.177" cy="-55.1543" rx="50.41" ry="50.41"/>
<text text-anchor="middle" x="745.177" y="-52.9543" font-family="Times,serif" font-size="9.00">Move Forward</text>
</g>
<!-- wallRadar[1,0]&#45;&gt;Move Forward -->
<g id="edge55" class="edge"><title>wallRadar[1,0]&#45;&gt;Move Forward</title>
<path fill="none" stroke="green" stroke-width="0.575046" d="M844.135,-155.611C832.136,-143.551 808.699,-119.996 787.645,-98.8356"/>
<polygon fill="green" stroke="green" stroke-width="0.575046" points="789.854,-96.0939 780.32,-91.4737 784.892,-101.031 789.854,-96.0939"/>
</g>
<!-- Move Left -->
<g id="node26" class="node"><title>Move Left</title>
<ellipse fill="lightblue" stroke="black" cx="1945.18" cy="-55.1543" rx="38.3684" ry="38.3684"/>
<text text-anchor="middle" x="1945.18" y="-52.9543" font-family="Times,serif" font-size="9.00">Move Left</text>
</g>
<!-- wallRadar[1,0]&#45;&gt;Move Left -->
<g id="edge45" class="edge"><title>wallRadar[1,0]&#45;&gt;Move Left</title>
<path fill="none" stroke="red" stroke-width="0.760555" d="M868.896,-155.537C876.944,-152.018 886.853,-148.265 896.177,-146.309 1106.2,-102.249 1656.49,-174.742 1861.18,-110.309 1877.62,-105.131 1893.96,-95.8132 1907.79,-86.3492"/>
<polygon fill="red" stroke="red" stroke-width="0.760555" points="1909.94,-89.1193 1916.06,-80.4734 1905.88,-83.4134 1909.94,-89.1193"/>
</g>
<!-- Move right -->
<g id="node27" class="node"><title>Move right</title>
<ellipse fill="lightblue" stroke="black" cx="1106.18" cy="-55.1543" rx="39.6962" ry="39.6962"/>
<text text-anchor="middle" x="1106.18" y="-52.9543" font-family="Times,serif" font-size="9.00">Move right</text>
</g>
<!-- wallRadar[1,0]&#45;&gt;Move right -->
<g id="edge21" class="edge"><title>wallRadar[1,0]&#45;&gt;Move right</title>
<path fill="none" stroke="green" stroke-width="0.421813" stroke-dasharray="1,5" d="M871.269,-155.611C911.186,-138.71 1004.42,-99.2352 1060.69,-75.4125"/>
<polygon fill="green" stroke="green" stroke-width="0.421813" points="1062.22,-78.5644 1070.07,-71.4425 1059.49,-72.1183 1062.22,-78.5644"/>
</g>
<!-- Turn Left -->
<g id="node28" class="node"><title>Turn Left</title>
<ellipse fill="lightblue" stroke="black" cx="536.177" cy="-55.1543" rx="35.2113" ry="35.2113"/>
<text text-anchor="middle" x="536.177" y="-52.9543" font-family="Times,serif" font-size="9.00">Turn Left</text>
</g>
<!-- wallRadar[1,0]&#45;&gt;Turn Left -->
<g id="edge20" class="edge"><title>wallRadar[1,0]&#45;&gt;Turn Left</title>
<path fill="none" stroke="green" stroke-width="0.403705" d="M832.605,-155.526C825.03,-152.48 816.254,-149.09 808.177,-146.309 754.724,-127.903 739.9,-127.915 686.177,-110.309 649.657,-98.3397 608.64,-83.4288 578.74,-72.2853"/>
<polygon fill="green" stroke="green" stroke-width="0.403705" points="579.642,-68.8856 569.049,-68.6603 577.189,-75.4419 579.642,-68.8856"/>
</g>
<!-- Turn Right -->
<g id="node29" class="node"><title>Turn Right</title>
<ellipse fill="lightblue" stroke="black" cx="853.177" cy="-55.1543" rx="39.6962" ry="39.6962"/>
<text text-anchor="middle" x="853.177" y="-52.9543" font-family="Times,serif" font-size="9.00">Turn Right</text>
</g>
<!-- wallRadar[1,0]&#45;&gt;Turn Right -->
<g id="edge15" class="edge"><title>wallRadar[1,0]&#45;&gt;Turn Right</title>
<path fill="none" stroke="red" stroke-width="0.140707" d="M852.253,-155.611C852.354,-144.712 852.543,-124.427 852.723,-105.004"/>
<polygon fill="red" stroke="red" stroke-width="0.140707" points="856.223,-105.013 852.816,-94.9808 849.224,-104.948 856.223,-105.013"/>
</g>
<!-- wallRadar[0,1] -->
<g id="node2" class="node"><title>wallRadar[0,1]</title>
<polygon fill="lightgray" stroke="black" points="1922.18,-173.693 1852.18,-173.693 1852.18,-155.693 1922.18,-155.693 1922.18,-173.693"/>
<text text-anchor="middle" x="1887.18" y="-162.493" font-family="Times,serif" font-size="9.00">wallRadar[0,1]</text>
</g>
<!-- Shoot -->
<g id="node23" class="node"><title>Shoot</title>
<ellipse fill="lightblue" stroke="black" cx="1364.18" cy="-55.1543" rx="26.7407" ry="26.7407"/>
<text text-anchor="middle" x="1364.18" y="-52.9543" font-family="Times,serif" font-size="9.00">Shoot</text>
</g>
<!-- wallRadar[0,1]&#45;&gt;Shoot -->
<g id="edge41" class="edge"><title>wallRadar[0,1]&#45;&gt;Shoot</title>
<path fill="none" stroke="red" stroke-width="0.448005" d="M1869.04,-155.626C1861.2,-152.378 1851.86,-148.816 1843.18,-146.309 1681.54,-99.626 1482.05,-71.0756 1401,-60.651"/>
<polygon fill="red" stroke="red" stroke-width="0.448005" points="1401.17,-57.1452 1390.81,-59.3565 1400.29,-64.0894 1401.17,-57.1452"/>
</g>
<!--  Move Backward -->
<g id="node25" class="node"><title> Move Backward</title>
<ellipse fill="lightblue" stroke="black" cx="1797.18" cy="-55.1543" rx="55.3091" ry="55.3091"/>
<text text-anchor="middle" x="1797.18" y="-52.9543" font-family="Times,serif" font-size="9.00"> Move Backward</text>
</g>
<!-- wallRadar[0,1]&#45;&gt; Move Backward -->
<g id="edge53" class="edge"><title>wallRadar[0,1]&#45;&gt; Move Backward</title>
<path fill="none" stroke="red" stroke-width="0.412542" d="M1880.41,-155.611C1871.43,-144.878 1854.83,-125.04 1838.8,-105.888"/>
<polygon fill="red" stroke="red" stroke-width="0.412542" points="1841.33,-103.46 1832.23,-98.0373 1835.96,-107.952 1841.33,-103.46"/>
</g>
<!-- wallRadar[0,1]&#45;&gt;Move Left -->
<g id="edge65" class="edge"><title>wallRadar[0,1]&#45;&gt;Move Left</title>
<path fill="none" stroke="green" stroke-width="0.550627" d="M1891.54,-155.611C1898.13,-143.387 1911.09,-119.352 1922.62,-97.9732"/>
<polygon fill="green" stroke="green" stroke-width="0.550627" points="1925.79,-99.4783 1927.45,-89.0154 1919.63,-96.1554 1925.79,-99.4783"/>
</g>
<!-- wallRadar[0,1]&#45;&gt;Turn Left -->
<g id="edge67" class="edge"><title>wallRadar[0,1]&#45;&gt;Turn Left</title>
<path fill="none" stroke="green" stroke-width="0.273797" d="M1870.46,-155.512C1862.42,-151.986 1852.51,-148.236 1843.18,-146.309 1339.34,-42.2373 1191.51,-206.857 686.177,-110.309 648.306,-103.073 607.251,-87.6846 577.682,-75.1543"/>
<polygon fill="green" stroke="green" stroke-width="0.273797" points="578.684,-71.7751 568.115,-71.0304 575.913,-78.2033 578.684,-71.7751"/>
</g>
<!-- wallRadar[&#45;1,0] -->
<g id="node3" class="node"><title>wallRadar[&#45;1,0]</title>
<polygon fill="lightgray" stroke="black" points="1215.68,-173.693 1142.68,-173.693 1142.68,-155.693 1215.68,-155.693 1215.68,-173.693"/>
<text text-anchor="middle" x="1179.18" y="-162.493" font-family="Times,serif" font-size="9.00">wallRadar[&#45;1,0]</text>
</g>
<!-- wallRadar[&#45;1,0]&#45;&gt;Shoot -->
<g id="edge11" class="edge"><title>wallRadar[&#45;1,0]&#45;&gt;Shoot</title>
<path fill="none" stroke="green" stroke-width="0.368364" d="M1193.08,-155.611C1222.53,-138.49 1291.84,-98.2027 1332.64,-74.4894"/>
<polygon fill="green" stroke="green" stroke-width="0.368364" points="1334.49,-77.4621 1341.37,-69.4106 1330.97,-71.4103 1334.49,-77.4621"/>
</g>
<!-- wallRadar[&#45;1,0]&#45;&gt;Move Forward -->
<g id="edge76" class="edge"><title>wallRadar[&#45;1,0]&#45;&gt;Move Forward</title>
<path fill="none" stroke="red" stroke-width="0.211857" stroke-dasharray="1,5" d="M1161.16,-155.674C1152.8,-152.272 1142.64,-148.576 1133.18,-146.309 990.131,-112.035 938.138,-171.065 804.177,-110.309 797.967,-107.492 791.971,-103.767 786.334,-99.5845"/>
<polygon fill="red" stroke="red" stroke-width="0.211857" points="788.342,-96.7081 778.351,-93.1827 783.963,-102.169 788.342,-96.7081"/>
</g>
<!-- wallRadar[&#45;1,0]&#45;&gt;Move Left -->
<g id="edge3" class="edge"><title>wallRadar[&#45;1,0]&#45;&gt;Move Left</title>
<path fill="none" stroke="green" stroke-width="0.110417" d="M1212.51,-155.645C1227.85,-152.237 1246.35,-148.545 1263.18,-146.309 1395.15,-128.773 1734.66,-151.729 1861.18,-110.309 1877.56,-104.944 1893.89,-95.5838 1907.73,-86.1387"/>
<polygon fill="green" stroke="green" stroke-width="0.110417" points="1909.86,-88.9162 1916,-80.2817 1905.82,-83.2028 1909.86,-88.9162"/>
</g>
<!-- wallRadar[&#45;1,0]&#45;&gt;Turn Right -->
<g id="edge54" class="edge"><title>wallRadar[&#45;1,0]&#45;&gt;Turn Right</title>
<path fill="none" stroke="red" stroke-width="0.174499" d="M1158.65,-155.685C1150.72,-152.658 1141.56,-149.24 1133.18,-146.309 1052,-117.921 956.472,-87.8722 900.591,-70.6297"/>
<polygon fill="red" stroke="red" stroke-width="0.174499" points="901.554,-67.2639 890.966,-67.6655 899.493,-73.9538 901.554,-67.2639"/>
</g>
<!-- wallRadar[0,&#45;1] -->
<g id="node4" class="node"><title>wallRadar[0,&#45;1]</title>
<polygon fill="lightgray" stroke="black" points="1833.68,-173.693 1760.68,-173.693 1760.68,-155.693 1833.68,-155.693 1833.68,-173.693"/>
<text text-anchor="middle" x="1797.18" y="-162.493" font-family="Times,serif" font-size="9.00">wallRadar[0,&#45;1]</text>
</g>
<!-- wallRadar[0,&#45;1]&#45;&gt; Move Backward -->
<g id="edge8" class="edge"><title>wallRadar[0,&#45;1]&#45;&gt; Move Backward</title>
<path fill="none" stroke="red" stroke-width="0.454155" d="M1797.18,-155.611C1797.18,-147.671 1797.18,-134.748 1797.18,-120.807"/>
<polygon fill="red" stroke="red" stroke-width="0.454155" points="1800.68,-120.532 1797.18,-110.532 1793.68,-120.532 1800.68,-120.532"/>
</g>
<!-- wallRadar[0,&#45;1]&#45;&gt;Move right -->
<g id="edge69" class="edge"><title>wallRadar[0,&#45;1]&#45;&gt;Move right</title>
<path fill="none" stroke="green" stroke-width="0.409995" d="M1762.59,-155.636C1747.49,-152.351 1729.53,-148.757 1713.18,-146.309 1543.22,-120.855 1497.67,-138.749 1328.18,-110.309 1267.25,-100.085 1198.3,-82.2614 1153.64,-69.8665"/>
<polygon fill="green" stroke="green" stroke-width="0.409995" points="1154.5,-66.4753 1143.93,-67.153 1152.62,-73.2167 1154.5,-66.4753"/>
</g>
<!-- wallRadar[0.7,0.7] -->
<g id="node5" class="node"><title>wallRadar[0.7,0.7]</title>
<polygon fill="lightgray" stroke="black" points="268.677,-173.693 185.677,-173.693 185.677,-155.693 268.677,-155.693 268.677,-173.693"/>
<text text-anchor="middle" x="227.177" y="-162.493" font-family="Times,serif" font-size="9.00">wallRadar[0.7,0.7]</text>
</g>
<!-- wallRadar[0.7,0.7]&#45;&gt;Move Forward -->
<g id="edge34" class="edge"><title>wallRadar[0.7,0.7]&#45;&gt;Move Forward</title>
<path fill="none" stroke="green" stroke-width="0.347533" d="M247.736,-155.585C256.923,-152.25 267.961,-148.632 278.177,-146.309 409.985,-116.337 448.201,-139.529 580.177,-110.309 617.125,-102.128 657.506,-88.9515 689.072,-77.6441"/>
<polygon fill="green" stroke="green" stroke-width="0.347533" points="690.362,-80.8994 698.572,-74.2025 687.978,-74.318 690.362,-80.8994"/>
</g>
<!-- wallRadar[0.7,0.7]&#45;&gt;Turn Left -->
<g id="edge49" class="edge"><title>wallRadar[0.7,0.7]&#45;&gt;Turn Left</title>
<path fill="none" stroke="red" stroke-width="0.656201" d="M250.403,-155.611C302.068,-137.63 427.158,-94.0956 493.39,-71.0454"/>
<polygon fill="red" stroke="red" stroke-width="0.656201" points="494.813,-74.2562 503.107,-67.6637 492.512,-67.6451 494.813,-74.2562"/>
</g>
<!-- wallRadar[0.7,0.7]&#45;&gt;Turn Right -->
<g id="edge73" class="edge"><title>wallRadar[0.7,0.7]&#45;&gt;Turn Right</title>
<path fill="none" stroke="green" stroke-width="0.609452" d="M247.194,-155.521C256.466,-152.088 267.723,-148.411 278.177,-146.309 393.041,-123.212 698.772,-161.463 804.177,-110.309 811.476,-106.767 818.187,-101.612 824.149,-95.8725"/>
<polygon fill="green" stroke="green" stroke-width="0.609452" points="826.932,-98.0251 831.287,-88.3667 821.859,-93.2011 826.932,-98.0251"/>
</g>
<!-- wallRadar[&#45;0.7,0.7] -->
<g id="node6" class="node"><title>wallRadar[&#45;0.7,0.7]</title>
<polygon fill="lightgray" stroke="black" points="1458.18,-173.693 1372.18,-173.693 1372.18,-155.693 1458.18,-155.693 1458.18,-173.693"/>
<text text-anchor="middle" x="1415.18" y="-162.493" font-family="Times,serif" font-size="9.00">wallRadar[&#45;0.7,0.7]</text>
</g>
<!-- wallRadar[&#45;0.7,0.7]&#45;&gt;Shoot -->
<g id="edge12" class="edge"><title>wallRadar[&#45;0.7,0.7]&#45;&gt;Shoot</title>
<path fill="none" stroke="red" stroke-width="0.112921" d="M1411.34,-155.611C1404.71,-141.615 1390.73,-112.137 1379.7,-88.8879"/>
<polygon fill="red" stroke="red" stroke-width="0.112921" points="1382.79,-87.2255 1375.34,-79.6898 1376.46,-90.225 1382.79,-87.2255"/>
</g>
<!-- wallRadar[&#45;0.7,0.7]&#45;&gt; Move Backward -->
<g id="edge27" class="edge"><title>wallRadar[&#45;0.7,0.7]&#45;&gt; Move Backward</title>
<path fill="none" stroke="green" stroke-width="0.134925" d="M1438.84,-155.653C1447.98,-152.623 1458.53,-149.21 1468.18,-146.309 1560.15,-118.641 1667.63,-89.8476 1734.06,-72.4582"/>
<polygon fill="green" stroke="green" stroke-width="0.134925" points="1735.16,-75.7864 1743.95,-69.8721 1733.39,-69.0138 1735.16,-75.7864"/>
</g>
<!-- wallRadar[&#45;0.7,0.7]&#45;&gt;Move right -->
<g id="edge35" class="edge"><title>wallRadar[&#45;0.7,0.7]&#45;&gt;Move right</title>
<path fill="none" stroke="green" stroke-width="0.299249" d="M1391.95,-155.611C1341.32,-137.989 1220.16,-95.8229 1153,-72.4494"/>
<polygon fill="green" stroke="green" stroke-width="0.299249" points="1154.09,-69.1238 1143.5,-69.1424 1151.79,-75.7348 1154.09,-69.1238"/>
</g>
<!-- wallRadar[&#45;0.7,0.7]&#45;&gt;Turn Right -->
<g id="edge59" class="edge"><title>wallRadar[&#45;0.7,0.7]&#45;&gt;Turn Right</title>
<path fill="none" stroke="red" stroke-width="0.282619" d="M1394.04,-155.688C1384.44,-152.331 1372.86,-148.667 1362.18,-146.309 1228.89,-116.891 1191.26,-135.884 1057.18,-110.309 1002.81,-99.9381 941.58,-82.9527 900.513,-70.7685"/>
<polygon fill="red" stroke="red" stroke-width="0.282619" points="901.365,-67.3701 890.782,-67.859 899.36,-74.0768 901.365,-67.3701"/>
</g>
<!-- wallRadar[&#45;0.7,&#45;0.7] -->
<g id="node7" class="node"><title>wallRadar[&#45;0.7,&#45;0.7]</title>
<polygon fill="lightgray" stroke="black" points="711.677,-237.078 622.677,-237.078 622.677,-219.078 711.677,-219.078 711.677,-237.078"/>
<text text-anchor="middle" x="667.177" y="-225.878" font-family="Times,serif" font-size="9.00">wallRadar[&#45;0.7,&#45;0.7]</text>
</g>
<!-- wallRadar[&#45;0.7,&#45;0.7]&#45;&gt;Turn Left -->
<g id="edge58" class="edge"><title>wallRadar[&#45;0.7,&#45;0.7]&#45;&gt;Turn Left</title>
<path fill="none" stroke="red" stroke-width="0.147467" d="M622.673,-227.535C481.423,-228.523 50.0365,-227.825 8.17748,-183.078 -2.98653,-171.144 -2.36084,-158.799 8.17748,-146.309 69.9537,-73.0903 374.29,-59.331 490.743,-56.7492"/>
<polygon fill="red" stroke="red" stroke-width="0.147467" points="490.835,-60.2481 500.762,-56.5446 490.692,-53.2496 490.835,-60.2481"/>
</g>
<!-- wallRadar[&#45;0.7,&#45;0.7]&#45;&gt;Turn Right -->
<g id="edge48" class="edge"><title>wallRadar[&#45;0.7,&#45;0.7]&#45;&gt;Turn Right</title>
<path fill="none" stroke="red" stroke-width="0.542442" d="M666.619,-218.749C666.011,-202.571 667.07,-166.702 686.177,-146.309 723.667,-106.297 757.889,-139.699 804.177,-110.309 810.876,-106.056 817.227,-100.646 823.001,-94.8992"/>
<polygon fill="red" stroke="red" stroke-width="0.542442" points="825.666,-97.1746 829.989,-87.5015 820.578,-92.368 825.666,-97.1746"/>
</g>
<!-- 51 -->
<g id="node30" class="node"><title>51</title>
<ellipse fill="white" stroke="black" cx="1106.18" cy="-164.693" rx="18.2703" ry="18.2703"/>
<text text-anchor="middle" x="1106.18" y="-162.493" font-family="Times,serif" font-size="9.00">51</text>
</g>
<!-- wallRadar[&#45;0.7,&#45;0.7]&#45;&gt;51 -->
<g id="edge80" class="edge"><title>wallRadar[&#45;0.7,&#45;0.7]&#45;&gt;51</title>
<path fill="none" stroke="green" stroke-width="0.209451" d="M711.955,-224.806C803.981,-219.727 1011.33,-206.06 1078.18,-183.078 1079.63,-182.578 1081.09,-181.992 1082.53,-181.342"/>
<polygon fill="green" stroke="green" stroke-width="0.209451" points="1084.56,-184.227 1091.69,-176.394 1081.23,-178.069 1084.56,-184.227"/>
</g>
<!-- wallRadar[0.7,&#45;0.7] -->
<g id="node8" class="node"><title>wallRadar[0.7,&#45;0.7]</title>
<polygon fill="lightgray" stroke="black" points="2026.18,-173.693 1940.18,-173.693 1940.18,-155.693 2026.18,-155.693 2026.18,-173.693"/>
<text text-anchor="middle" x="1983.18" y="-162.493" font-family="Times,serif" font-size="9.00">wallRadar[0.7,&#45;0.7]</text>
</g>
<!-- wallRadar[0.7,&#45;0.7]&#45;&gt;Shoot -->
<g id="edge14" class="edge"><title>wallRadar[0.7,&#45;0.7]&#45;&gt;Shoot</title>
<path fill="none" stroke="red" stroke-width="0.19925" d="M1961.65,-155.61C1952.38,-152.359 1941.35,-148.799 1931.18,-146.309 1879.37,-133.622 1517.83,-79.1273 1400.71,-61.6039"/>
<polygon fill="red" stroke="red" stroke-width="0.19925" points="1401.19,-58.1378 1390.78,-60.1205 1400.16,-65.0608 1401.19,-58.1378"/>
</g>
<!-- wallRadar[0.7,&#45;0.7]&#45;&gt;Move Forward -->
<g id="edge40" class="edge"><title>wallRadar[0.7,&#45;0.7]&#45;&gt;Move Forward</title>
<path fill="none" stroke="red" stroke-width="0.516922" d="M1963.28,-155.529C1953.74,-152.008 1942.05,-148.256 1931.18,-146.309 1807.86,-124.213 920.185,-157.624 804.177,-110.309 797.777,-107.698 791.637,-104.059 785.898,-99.8889"/>
<polygon fill="red" stroke="red" stroke-width="0.516922" points="787.802,-96.9317 777.792,-93.4579 783.451,-102.415 787.802,-96.9317"/>
</g>
<!-- wallRadar[0.7,&#45;0.7]&#45;&gt; Move Backward -->
<g id="edge39" class="edge"><title>wallRadar[0.7,&#45;0.7]&#45;&gt; Move Backward</title>
<path fill="none" stroke="green" stroke-width="0.162839" stroke-dasharray="1,5" d="M1969.2,-155.611C1944.88,-141.549 1893.52,-111.858 1853.22,-88.5588"/>
<polygon fill="green" stroke="green" stroke-width="0.162839" points="1854.96,-85.5174 1844.55,-83.542 1851.45,-91.5774 1854.96,-85.5174"/>
</g>
<!-- wallRadar[0.7,&#45;0.7]&#45;&gt;Move Left -->
<g id="edge2" class="edge"><title>wallRadar[0.7,&#45;0.7]&#45;&gt;Move Left</title>
<path fill="none" stroke="green" stroke-width="0.299025" d="M1980.32,-155.611C1976.21,-143.972 1968.31,-121.627 1961.05,-101.061"/>
<polygon fill="green" stroke="green" stroke-width="0.299025" points="1964.29,-99.7362 1957.66,-91.4737 1957.69,-102.068 1964.29,-99.7362"/>
</g>
<!-- enemyRadar[RightBack] -->
<g id="node9" class="node"><title>enemyRadar[RightBack]</title>
<polygon fill="lightgray" stroke="black" points="799.177,-173.693 695.177,-173.693 695.177,-155.693 799.177,-155.693 799.177,-173.693"/>
<text text-anchor="middle" x="747.177" y="-162.493" font-family="Times,serif" font-size="9.00">enemyRadar[RightBack]</text>
</g>
<!-- enemyRadar[RightBack]&#45;&gt;Shoot -->
<g id="edge1" class="edge"><title>enemyRadar[RightBack]&#45;&gt;Shoot</title>
<path fill="none" stroke="red" stroke-width="0.362109" d="M771.577,-155.686C782.642,-152.328 795.959,-148.665 808.177,-146.309 960.422,-116.949 1002.59,-137.832 1155.18,-110.309 1217.2,-99.1215 1287.91,-79.2691 1329.14,-66.9596"/>
<polygon fill="red" stroke="red" stroke-width="0.362109" points="1330.15,-70.3112 1338.71,-64.0777 1328.13,-63.6082 1330.15,-70.3112"/>
</g>
<!-- enemyRadar[RightBack]&#45;&gt;Move Forward -->
<g id="edge28" class="edge"><title>enemyRadar[RightBack]&#45;&gt;Move Forward</title>
<path fill="none" stroke="red" stroke-width="0.157442" d="M747.027,-155.611C746.862,-146.755 746.583,-131.702 746.29,-115.95"/>
<polygon fill="red" stroke="red" stroke-width="0.157442" points="749.782,-115.489 746.096,-105.556 742.783,-115.619 749.782,-115.489"/>
</g>
<!-- enemyRadar[RightBack]&#45;&gt;Move right -->
<g id="edge16" class="edge"><title>enemyRadar[RightBack]&#45;&gt;Move right</title>
<path fill="none" stroke="red" stroke-width="0.251379" d="M774.161,-155.611C834.712,-137.472 982.07,-93.3309 1058.47,-70.4443"/>
<polygon fill="red" stroke="red" stroke-width="0.251379" points="1059.75,-73.7169 1068.32,-67.4945 1057.74,-67.0113 1059.75,-73.7169"/>
</g>
<!-- enemyRadar[RightBack]&#45;&gt;Turn Left -->
<g id="edge4" class="edge"><title>enemyRadar[RightBack]&#45;&gt;Turn Left</title>
<path fill="none" stroke="green" stroke-width="0.491247" d="M731.318,-155.611C698.702,-138.987 623.233,-100.523 576.287,-76.5965"/>
<polygon fill="green" stroke="green" stroke-width="0.491247" points="577.798,-73.4384 567.299,-72.0158 574.619,-79.6751 577.798,-73.4384"/>
</g>
<!-- enemyRadar[RightBack]&#45;&gt;Turn Right -->
<g id="edge50" class="edge"><title>enemyRadar[RightBack]&#45;&gt;Turn Right</title>
<path fill="none" stroke="green" stroke-width="0.479715" d="M756.281,-155.594C767.719,-145.321 787.83,-126.94 804.177,-110.309 809.494,-104.9 815.001,-99.0629 820.319,-93.2923"/>
<polygon fill="green" stroke="green" stroke-width="0.479715" points="823.264,-95.2574 827.418,-85.5111 818.093,-90.5393 823.264,-95.2574"/>
</g>
<!-- enemyRadar[LeftBack] -->
<g id="node10" class="node"><title>enemyRadar[LeftBack]</title>
<polygon fill="lightgray" stroke="black" points="1575.68,-173.693 1476.68,-173.693 1476.68,-155.693 1575.68,-155.693 1575.68,-173.693"/>
<text text-anchor="middle" x="1526.18" y="-162.493" font-family="Times,serif" font-size="9.00">enemyRadar[LeftBack]</text>
</g>
<!-- enemyRadar[LeftBack]&#45;&gt;Shoot -->
<g id="edge37" class="edge"><title>enemyRadar[LeftBack]&#45;&gt;Shoot</title>
<path fill="none" stroke="red" stroke-width="0.352011" d="M1514,-155.611C1488.97,-138.994 1431.06,-100.555 1395.02,-76.6262"/>
<polygon fill="red" stroke="red" stroke-width="0.352011" points="1396.62,-73.4919 1386.36,-70.8773 1392.75,-79.3239 1396.62,-73.4919"/>
</g>
<!-- enemyRadar[LeftBack]&#45;&gt; Move Backward -->
<g id="edge51" class="edge"><title>enemyRadar[LeftBack]&#45;&gt; Move Backward</title>
<path fill="none" stroke="green" stroke-width="0.542893" d="M1546.55,-155.611C1586.39,-139.8 1676.03,-104.23 1736.57,-80.2039"/>
<polygon fill="green" stroke="green" stroke-width="0.542893" points="1738.02,-83.3934 1746.03,-76.4517 1735.44,-76.887 1738.02,-83.3934"/>
</g>
<!-- enemyRadar[LeftBack]&#45;&gt;Turn Right -->
<g id="edge47" class="edge"><title>enemyRadar[LeftBack]&#45;&gt;Turn Right</title>
<path fill="none" stroke="green" stroke-width="0.193609" d="M1502.9,-155.67C1492.15,-152.268 1479.14,-148.573 1467.18,-146.309 1287.45,-112.289 1237.35,-141.892 1057.18,-110.309 1002.66,-100.752 941.458,-83.6203 900.438,-71.1791"/>
<polygon fill="green" stroke="green" stroke-width="0.193609" points="901.305,-67.7841 890.718,-68.2042 899.256,-74.4776 901.305,-67.7841"/>
</g>
<!-- enemyRadar[Right] -->
<g id="node11" class="node"><title>enemyRadar[Right]</title>
<polygon fill="lightgray" stroke="black" points="639.177,-173.693 553.177,-173.693 553.177,-155.693 639.177,-155.693 639.177,-173.693"/>
<text text-anchor="middle" x="596.177" y="-162.493" font-family="Times,serif" font-size="9.00">enemyRadar[Right]</text>
</g>
<!-- enemyRadar[Right]&#45;&gt;Shoot -->
<g id="edge43" class="edge"><title>enemyRadar[Right]&#45;&gt;Shoot</title>
<path fill="none" stroke="red" stroke-width="0.235646" d="M632.804,-155.635C649.078,-152.309 668.513,-148.685 686.177,-146.309 893.369,-118.438 948.962,-144.662 1155.18,-110.309 1217.34,-99.9525 1288.01,-79.8396 1329.19,-67.2533"/>
<polygon fill="red" stroke="red" stroke-width="0.235646" points="1330.23,-70.5954 1338.75,-64.3032 1328.16,-63.9063 1330.23,-70.5954"/>
</g>
<!-- enemyRadar[Right]&#45;&gt;Move Forward -->
<g id="edge64" class="edge"><title>enemyRadar[Right]&#45;&gt;Move Forward</title>
<path fill="none" stroke="red" stroke-width="0.728271" d="M607.377,-155.611C626.077,-142.114 664.726,-114.219 696.347,-91.3972"/>
<polygon fill="red" stroke="red" stroke-width="0.728271" points="698.576,-94.1049 704.636,-85.4145 694.479,-88.4288 698.576,-94.1049"/>
</g>
<!-- enemyRadar[Right]&#45;&gt;Move right -->
<g id="edge9" class="edge"><title>enemyRadar[Right]&#45;&gt;Move right</title>
<path fill="none" stroke="green" stroke-width="0.263994" d="M636.458,-155.684C651.981,-152.657 669.889,-149.239 686.177,-146.309 781.964,-129.078 807.039,-130.817 902.177,-110.309 956.283,-98.6456 1017.56,-81.8929 1058.71,-70.1168"/>
<polygon fill="green" stroke="green" stroke-width="0.263994" points="1059.82,-73.4394 1068.46,-67.311 1057.88,-66.7122 1059.82,-73.4394"/>
</g>
<!-- enemyRadar[Right]&#45;&gt;Turn Left -->
<g id="edge68" class="edge"><title>enemyRadar[Right]&#45;&gt;Turn Left</title>
<path fill="none" stroke="green" stroke-width="0.219345" d="M591.668,-155.611C584.578,-142.903 570.366,-117.431 558.101,-95.4477"/>
<polygon fill="green" stroke="green" stroke-width="0.219345" points="561.094,-93.6297 553.166,-86.6023 554.981,-97.0404 561.094,-93.6297"/>
</g>
<!-- enemyRadar[Right]&#45;&gt;Turn Right -->
<g id="edge10" class="edge"><title>enemyRadar[Right]&#45;&gt;Turn Right</title>
<path fill="none" stroke="green" stroke-width="0.575848" d="M621.334,-155.653C631.221,-152.59 642.694,-149.154 653.177,-146.309 719.76,-128.236 744.815,-145.465 804.177,-110.309 811.081,-106.22 817.566,-100.844 823.417,-95.0663"/>
<polygon fill="green" stroke="green" stroke-width="0.575848" points="826.148,-97.272 830.473,-87.6002 821.061,-92.4639 826.148,-97.272"/>
</g>
<!-- enemyRadar[Left] -->
<g id="node12" class="node"><title>enemyRadar[Left]</title>
<polygon fill="lightgray" stroke="black" points="1353.68,-173.693 1272.68,-173.693 1272.68,-155.693 1353.68,-155.693 1353.68,-173.693"/>
<text text-anchor="middle" x="1313.18" y="-162.493" font-family="Times,serif" font-size="9.00">enemyRadar[Left]</text>
</g>
<!-- enemyRadar[Left]&#45;&gt;Shoot -->
<g id="edge18" class="edge"><title>enemyRadar[Left]&#45;&gt;Shoot</title>
<path fill="none" stroke="green" stroke-width="0.407904" d="M1317.01,-155.611C1323.65,-141.615 1337.63,-112.137 1348.65,-88.8879"/>
<polygon fill="green" stroke="green" stroke-width="0.407904" points="1351.89,-90.225 1353.02,-79.6898 1345.57,-87.2255 1351.89,-90.225"/>
</g>
<!-- enemyRadar[Left]&#45;&gt;Move right -->
<g id="edge56" class="edge"><title>enemyRadar[Left]&#45;&gt;Move right</title>
<path fill="none" stroke="green" stroke-width="0.482427" d="M1297.62,-155.611C1266.68,-139.537 1196.43,-103.043 1150.18,-79.0158"/>
<polygon fill="green" stroke="green" stroke-width="0.482427" points="1151.76,-75.8907 1141.27,-74.3864 1148.53,-82.1025 1151.76,-75.8907"/>
</g>
<!-- enemyRadar[RightFront30] -->
<g id="node13" class="node"><title>enemyRadar[RightFront30]</title>
<polygon fill="lightgray" stroke="black" points="1677.68,-237.078 1562.68,-237.078 1562.68,-219.078 1677.68,-219.078 1677.68,-237.078"/>
<text text-anchor="middle" x="1620.18" y="-225.878" font-family="Times,serif" font-size="9.00">enemyRadar[RightFront30]</text>
</g>
<!-- enemyRadar[LeftFront30] -->
<g id="node14" class="node"><title>enemyRadar[LeftFront30]</title>
<polygon fill="lightgray" stroke="black" points="2154.18,-173.693 2044.18,-173.693 2044.18,-155.693 2154.18,-155.693 2154.18,-173.693"/>
<text text-anchor="middle" x="2099.18" y="-162.493" font-family="Times,serif" font-size="9.00">enemyRadar[LeftFront30]</text>
</g>
<!-- enemyRadar[LeftFront30]&#45;&gt; Move Backward -->
<g id="edge19" class="edge"><title>enemyRadar[LeftFront30]&#45;&gt; Move Backward</title>
<path fill="none" stroke="green" stroke-width="0.305722" d="M2069.88,-155.68C2058.99,-152.716 2046.52,-149.34 2035.18,-146.309 1974.36,-130.057 1956.77,-133.342 1898.18,-110.309 1883.07,-104.371 1867.34,-96.7188 1852.91,-89.0478"/>
<polygon fill="green" stroke="green" stroke-width="0.305722" points="1854.58,-85.9681 1844.12,-84.2843 1851.24,-92.1237 1854.58,-85.9681"/>
</g>
<!-- enemyRadar[LeftFront30]&#45;&gt;Move Left -->
<g id="edge77" class="edge"><title>enemyRadar[LeftFront30]&#45;&gt;Move Left</title>
<path fill="none" stroke="red" stroke-width="0.136349" d="M2087.6,-155.611C2066,-140.525 2018.64,-107.454 1984.45,-83.5819"/>
<polygon fill="red" stroke="red" stroke-width="0.136349" points="1986.27,-80.5833 1976.07,-77.7276 1982.27,-86.3225 1986.27,-80.5833"/>
</g>
<!-- enemyRadar[LeftFront30]&#45;&gt;Turn Right -->
<g id="edge72" class="edge"><title>enemyRadar[LeftFront30]&#45;&gt;Turn Right</title>
<path fill="none" stroke="red" stroke-width="0.601881" d="M2074.84,-155.676C2063.01,-152.141 2048.5,-148.335 2035.18,-146.309 1605.17,-80.8723 1487.37,-174.506 1057.18,-110.309 1002.44,-102.14 941.274,-84.7578 900.325,-71.8786"/>
<polygon fill="red" stroke="red" stroke-width="0.601881" points="901.213,-68.4885 890.623,-68.7924 899.091,-75.1592 901.213,-68.4885"/>
</g>
<!-- enemyRadar[RightFront10] -->
<g id="node15" class="node"><title>enemyRadar[RightFront10]</title>
<polygon fill="lightgray" stroke="black" points="1020.68,-173.693 905.677,-173.693 905.677,-155.693 1020.68,-155.693 1020.68,-173.693"/>
<text text-anchor="middle" x="963.177" y="-162.493" font-family="Times,serif" font-size="9.00">enemyRadar[RightFront10]</text>
</g>
<!-- enemyRadar[RightFront10]&#45;&gt;Shoot -->
<g id="edge32" class="edge"><title>enemyRadar[RightFront10]&#45;&gt;Shoot</title>
<path fill="none" stroke="red" stroke-width="0.154907" d="M993.318,-155.611C1066.01,-136.117 1250.7,-86.5871 1328.63,-65.6885"/>
<polygon fill="red" stroke="red" stroke-width="0.154907" points="1329.7,-69.0229 1338.46,-63.052 1327.89,-62.2618 1329.7,-69.0229"/>
</g>
<!-- enemyRadar[RightFront10]&#45;&gt;Move Forward -->
<g id="edge52" class="edge"><title>enemyRadar[RightFront10]&#45;&gt;Move Forward</title>
<path fill="none" stroke="red" stroke-width="0.246714" d="M934.437,-155.61C895.03,-144.262 826.557,-123.52 804.177,-110.309 798.385,-106.89 792.676,-102.829 787.224,-98.4913"/>
<polygon fill="red" stroke="red" stroke-width="0.246714" points="789.357,-95.7126 779.441,-91.9804 784.865,-101.081 789.357,-95.7126"/>
</g>
<!-- enemyRadar[RightFront10]&#45;&gt;Move right -->
<g id="edge71" class="edge"><title>enemyRadar[RightFront10]&#45;&gt;Move right</title>
<path fill="none" stroke="green" stroke-width="0.288582" d="M973.926,-155.611C993.364,-140.993 1035.26,-109.486 1066.72,-85.8269"/>
<polygon fill="green" stroke="green" stroke-width="0.288582" points="1068.99,-88.4975 1074.88,-79.6898 1064.79,-82.9029 1068.99,-88.4975"/>
</g>
<!-- enemyRadar[RightFront10]&#45;&gt;Turn Right -->
<g id="edge26" class="edge"><title>enemyRadar[RightFront10]&#45;&gt;Turn Right</title>
<path fill="none" stroke="red" stroke-width="0.340766" d="M954.91,-155.611C941.023,-142.035 912.237,-113.893 888.818,-90.998"/>
<polygon fill="red" stroke="red" stroke-width="0.340766" points="891.027,-88.262 881.429,-83.7741 886.133,-93.2675 891.027,-88.262"/>
</g>
<!-- enemyRadar[LeftFront10] -->
<g id="node16" class="node"><title>enemyRadar[LeftFront10]</title>
<polygon fill="lightgray" stroke="black" points="1704.18,-173.693 1594.18,-173.693 1594.18,-155.693 1704.18,-155.693 1704.18,-173.693"/>
<text text-anchor="middle" x="1649.18" y="-162.493" font-family="Times,serif" font-size="9.00">enemyRadar[LeftFront10]</text>
</g>
<!-- enemyRadar[LeftFront10]&#45;&gt;Shoot -->
<g id="edge74" class="edge"><title>enemyRadar[LeftFront10]&#45;&gt;Shoot</title>
<path fill="none" stroke="red" stroke-width="0.454003" d="M1627.76,-155.611C1578.81,-137.14 1458.4,-91.7062 1398.78,-69.2092"/>
<polygon fill="red" stroke="red" stroke-width="0.454003" points="1399.66,-65.8005 1389.06,-65.5447 1397.18,-72.3498 1399.66,-65.8005"/>
</g>
<!-- enemyRadar[LeftFront10]&#45;&gt; Move Backward -->
<g id="edge36" class="edge"><title>enemyRadar[LeftFront10]&#45;&gt; Move Backward</title>
<path fill="none" stroke="green" stroke-width="0.266327" d="M1660.3,-155.611C1678.06,-142.707 1713.93,-116.643 1744.5,-94.4342"/>
<polygon fill="green" stroke="green" stroke-width="0.266327" points="1746.92,-96.9962 1752.96,-88.2865 1742.81,-91.3333 1746.92,-96.9962"/>
</g>
<!-- enemyRadar[LeftFront10]&#45;&gt;Move Left -->
<g id="edge7" class="edge"><title>enemyRadar[LeftFront10]&#45;&gt;Move Left</title>
<path fill="none" stroke="red" stroke-width="0.342142" d="M1700.38,-155.639C1744.3,-147.607 1808.61,-133.136 1861.18,-110.309 1876.86,-103.498 1892.92,-93.9061 1906.74,-84.6833"/>
<polygon fill="red" stroke="red" stroke-width="0.342142" points="1908.75,-87.5489 1915.03,-79.0166 1904.8,-81.7697 1908.75,-87.5489"/>
</g>
<!-- enemyRadar[LeftFront10]&#45;&gt;Turn Left -->
<g id="edge63" class="edge"><title>enemyRadar[LeftFront10]&#45;&gt;Turn Left</title>
<path fill="none" stroke="red" stroke-width="0.350045" d="M1624.53,-155.604C1612.76,-152.099 1598.38,-148.339 1585.18,-146.309 1189.95,-85.5123 1078.61,-187.102 686.177,-110.309 648.339,-102.904 607.281,-87.5306 577.702,-75.049"/>
<polygon fill="red" stroke="red" stroke-width="0.350045" points="578.702,-71.6696 568.132,-70.9427 575.942,-78.1024 578.702,-71.6696"/>
</g>
<!-- enemyRadar[LeftFront10]&#45;&gt;Turn Right -->
<g id="edge57" class="edge"><title>enemyRadar[LeftFront10]&#45;&gt;Turn Right</title>
<path fill="none" stroke="red" stroke-width="0.274554" d="M1624.2,-155.68C1612.48,-152.236 1598.23,-148.505 1585.18,-146.309 1353.22,-107.29 1289.24,-148.659 1057.18,-110.309 1002.57,-101.284 941.384,-84.0565 900.393,-71.4474"/>
<polygon fill="red" stroke="red" stroke-width="0.274554" points="901.268,-68.0544 890.68,-68.4298 899.191,-74.7392 901.268,-68.0544"/>
</g>
<!-- enemyRadar[RightFront3.5] -->
<g id="node17" class="node"><title>enemyRadar[RightFront3.5]</title>
<polygon fill="lightgray" stroke="black" points="167.677,-173.693 50.6775,-173.693 50.6775,-155.693 167.677,-155.693 167.677,-173.693"/>
<text text-anchor="middle" x="109.177" y="-162.493" font-family="Times,serif" font-size="9.00">enemyRadar[RightFront3.5]</text>
</g>
<!-- enemyRadar[RightFront3.5]&#45;&gt;Move Forward -->
<g id="edge17" class="edge"><title>enemyRadar[RightFront3.5]&#45;&gt;Move Forward</title>
<path fill="none" stroke="red" stroke-width="0.488909" stroke-dasharray="1,5" d="M136.014,-155.648C148.175,-152.283 162.797,-148.624 176.177,-146.309 353.804,-115.566 403.612,-146.652 580.177,-110.309 617.242,-102.679 657.626,-89.5131 689.164,-78.0734"/>
<polygon fill="red" stroke="red" stroke-width="0.488909" points="690.475,-81.3207 698.654,-74.5866 688.061,-74.7501 690.475,-81.3207"/>
</g>
<!-- enemyRadar[RightFront3.5]&#45;&gt;Turn Left -->
<g id="edge22" class="edge"><title>enemyRadar[RightFront3.5]&#45;&gt;Turn Left</title>
<path fill="none" stroke="red" stroke-width="0.619083" d="M139.849,-155.676C151.251,-152.712 164.3,-149.337 176.177,-146.309 289.899,-117.316 424.044,-83.9393 491.977,-67.0952"/>
<polygon fill="red" stroke="red" stroke-width="0.619083" points="493.039,-70.4378 501.903,-64.6347 491.355,-63.6434 493.039,-70.4378"/>
</g>
<!-- enemyRadar[RightFront3.5]&#45;&gt;Turn Right -->
<g id="edge33" class="edge"><title>enemyRadar[RightFront3.5]&#45;&gt;Turn Right</title>
<path fill="none" stroke="red" stroke-width="0.366932" d="M135.338,-155.63C147.618,-152.176 162.525,-148.45 176.177,-146.309 314.274,-124.65 678.084,-170.643 804.177,-110.309 811.496,-106.807 818.217,-101.673 824.182,-95.9408"/>
<polygon fill="red" stroke="red" stroke-width="0.366932" points="826.963,-98.0953 831.321,-88.4385 821.892,-93.2696 826.963,-98.0953"/>
</g>
<!-- enemyRadar[LeftFront3.5] -->
<g id="node18" class="node"><title>enemyRadar[LeftFront3.5]</title>
<polygon fill="lightgray" stroke="black" points="1544.18,-237.078 1432.18,-237.078 1432.18,-219.078 1544.18,-219.078 1544.18,-237.078"/>
<text text-anchor="middle" x="1488.18" y="-225.878" font-family="Times,serif" font-size="9.00">enemyRadar[LeftFront3.5]</text>
</g>
<!-- enemyRadar[LeftFront3.5]&#45;&gt;Shoot -->
<g id="edge38" class="edge"><title>enemyRadar[LeftFront3.5]&#45;&gt;Shoot</title>
<path fill="none" stroke="red" stroke-width="0.154492" d="M1544.21,-219.862C1607.3,-211.166 1702.46,-196.099 1713.18,-183.078 1723.57,-170.462 1723.18,-159.229 1713.18,-146.309 1674.81,-96.7692 1482.9,-69.567 1401.15,-60.0697"/>
<polygon fill="red" stroke="red" stroke-width="0.154492" points="1401.16,-56.5484 1390.83,-58.8971 1400.37,-63.5036 1401.16,-56.5484"/>
</g>
<!-- enemyRadar[LeftFront3.5]&#45;&gt; Move Backward -->
<g id="edge6" class="edge"><title>enemyRadar[LeftFront3.5]&#45;&gt; Move Backward</title>
<path fill="none" stroke="green" stroke-width="0.306457" d="M1544.32,-220.012C1547.65,-219.673 1550.96,-219.359 1554.18,-219.078 1591.7,-215.81 2205.26,-210.409 2231.18,-183.078 2242.42,-171.22 2242.09,-158.469 2231.18,-146.309 2181.46,-90.9216 1969.29,-132.3 1898.18,-110.309 1882.59,-105.489 1866.63,-98.2026 1852.13,-90.5232"/>
<polygon fill="green" stroke="green" stroke-width="0.306457" points="1853.77,-87.4271 1843.31,-85.7095 1850.41,-93.5718 1853.77,-87.4271"/>
</g>
<!-- enemyRadar[LeftFront3.5]&#45;&gt;Move Left -->
<g id="edge24" class="edge"><title>enemyRadar[LeftFront3.5]&#45;&gt;Move Left</title>
<path fill="none" stroke="red" stroke-width="0.30928" d="M1544.32,-220.006C1547.65,-219.669 1550.96,-219.356 1554.18,-219.078 1592.7,-215.75 2222.56,-211.115 2249.18,-183.078 2327.99,-100.077 2097.8,-69.2808 1993.56,-59.7919"/>
<polygon fill="red" stroke="red" stroke-width="0.30928" points="1993.55,-56.2778 1983.29,-58.8884 1992.94,-63.2509 1993.55,-56.2778"/>
</g>
<!-- enemyRadar[LeftFront3.5]&#45;&gt;Move right -->
<g id="edge13" class="edge"><title>enemyRadar[LeftFront3.5]&#45;&gt;Move right</title>
<path fill="none" stroke="green" stroke-width="0.177134" stroke-dasharray="1,5" d="M1431.71,-224.726C1384.4,-220.776 1316.28,-210.359 1263.18,-183.078 1241.99,-172.193 1242.33,-161.732 1224.18,-146.309 1198.98,-124.902 1169.41,-102.317 1146.18,-85.1074"/>
<polygon fill="green" stroke="green" stroke-width="0.177134" points="1148.05,-82.1396 1137.93,-79.0221 1143.9,-87.7737 1148.05,-82.1396"/>
</g>
<!-- enemyRadar[LeftFront3.5]&#45;&gt;Turn Left -->
<g id="edge42" class="edge"><title>enemyRadar[LeftFront3.5]&#45;&gt;Turn Left</title>
<path fill="none" stroke="red" stroke-width="0.136649" d="M1432.07,-226.431C1168.58,-223.26 65.8274,-208.489 41.1775,-183.078 29.7989,-171.348 30.7083,-158.857 41.1775,-146.309 98.3025,-77.8397 379.147,-61.2399 490.538,-57.3247"/>
<polygon fill="red" stroke="red" stroke-width="0.136649" points="490.897,-60.8148 500.775,-56.9841 490.665,-53.8187 490.897,-60.8148"/>
</g>
<!-- enemyRadar[LeftFront3.5]&#45;&gt;51 -->
<g id="edge78" class="edge"><title>enemyRadar[LeftFront3.5]&#45;&gt;51</title>
<path fill="none" stroke="green" stroke-width="0.491224" d="M1431.97,-227.742C1360.43,-226.889 1234.04,-219.633 1133.18,-183.078 1131.94,-182.629 1130.7,-182.115 1129.47,-181.552"/>
<polygon fill="green" stroke="green" stroke-width="0.491224" points="1130.85,-178.313 1120.4,-176.53 1127.45,-184.437 1130.85,-178.313"/>
</g>
<!-- enemyRadar[RightFront1.5] -->
<g id="node19" class="node"><title>enemyRadar[RightFront1.5]</title>
<polygon fill="lightgray" stroke="black" points="534.677,-173.693 417.677,-173.693 417.677,-155.693 534.677,-155.693 534.677,-173.693"/>
<text text-anchor="middle" x="476.177" y="-162.493" font-family="Times,serif" font-size="9.00">enemyRadar[RightFront1.5]</text>
</g>
<!-- enemyRadar[RightFront1.5]&#45;&gt;Shoot -->
<g id="edge46" class="edge"><title>enemyRadar[RightFront1.5]&#45;&gt;Shoot</title>
<path fill="none" stroke="green" stroke-width="0.255025" d="M502.738,-155.645C515.203,-152.193 530.332,-148.466 544.177,-146.309 812.961,-104.428 886.462,-152.625 1155.18,-110.309 1217.43,-100.505 1288.07,-80.2187 1329.22,-67.4485"/>
<polygon fill="green" stroke="green" stroke-width="0.255025" points="1330.28,-70.7839 1338.78,-64.4531 1328.19,-64.1043 1330.28,-70.7839"/>
</g>
<!-- enemyRadar[RightFront1.5]&#45;&gt;Turn Left -->
<g id="edge23" class="edge"><title>enemyRadar[RightFront1.5]&#45;&gt;Turn Left</title>
<path fill="none" stroke="red" stroke-width="0.829425" d="M480.687,-155.611C487.777,-142.903 501.989,-117.431 514.254,-95.4477"/>
<polygon fill="red" stroke="red" stroke-width="0.829425" points="517.374,-97.0404 519.189,-86.6023 511.261,-93.6297 517.374,-97.0404"/>
</g>
<!-- enemyRadar[RightFront1.5]&#45;&gt;Turn Right -->
<g id="edge29" class="edge"><title>enemyRadar[RightFront1.5]&#45;&gt;Turn Right</title>
<path fill="none" stroke="red" stroke-width="0.411938" d="M504.8,-155.612C516.882,-152.4 531.145,-148.868 544.177,-146.309 658.648,-123.825 701.052,-164.846 804.177,-110.309 811.27,-106.558 817.851,-101.352 823.738,-95.6402"/>
<polygon fill="red" stroke="red" stroke-width="0.411938" points="826.455,-97.863 830.812,-88.2058 821.383,-93.0377 826.455,-97.863"/>
</g>
<!-- enemyRadar[LeftFront1.5] -->
<g id="node20" class="node"><title>enemyRadar[LeftFront1.5]</title>
<polygon fill="lightgray" stroke="black" points="399.177,-173.693 287.177,-173.693 287.177,-155.693 399.177,-155.693 399.177,-173.693"/>
<text text-anchor="middle" x="343.177" y="-162.493" font-family="Times,serif" font-size="9.00">enemyRadar[LeftFront1.5]</text>
</g>
<!-- enemyRadar[LeftFront1.5]&#45;&gt;Move Forward -->
<g id="edge75" class="edge"><title>enemyRadar[LeftFront1.5]&#45;&gt;Move Forward</title>
<path fill="none" stroke="green" stroke-width="0.614123" d="M371.889,-155.65C383.167,-152.586 396.246,-149.151 408.177,-146.309 484.153,-128.212 504.736,-130.517 580.177,-110.309 616.599,-100.552 656.813,-87.4042 688.422,-76.5065"/>
<polygon fill="green" stroke="green" stroke-width="0.614123" points="689.642,-79.788 697.942,-73.203 687.347,-73.1749 689.642,-79.788"/>
</g>
<!-- enemyRadar[LeftFront1.5]&#45;&gt; Move Backward -->
<g id="edge30" class="edge"><title>enemyRadar[LeftFront1.5]&#45;&gt; Move Backward</title>
<path fill="none" stroke="green" stroke-width="0.315611" d="M367.902,-155.675C379.923,-152.14 394.661,-148.335 408.177,-146.309 844.481,-80.8998 960.626,-148.17 1400.18,-110.309 1517.91,-100.168 1654.2,-79.64 1732.58,-66.9753"/>
<polygon fill="green" stroke="green" stroke-width="0.315611" points="1733.47,-70.3765 1742.78,-65.3186 1732.35,-63.4671 1733.47,-70.3765"/>
</g>
<!-- enemyRadar[LeftFront1.5]&#45;&gt;Turn Left -->
<g id="edge61" class="edge"><title>enemyRadar[LeftFront1.5]&#45;&gt;Turn Left</title>
<path fill="none" stroke="red" stroke-width="0.30464" d="M357.684,-155.611C386.902,-139.33 453.717,-102.101 496.8,-78.0954"/>
<polygon fill="red" stroke="red" stroke-width="0.30464" points="498.579,-81.1107 505.611,-73.1859 495.172,-74.9959 498.579,-81.1107"/>
</g>
<!-- enemyRadar[LeftFront1.5]&#45;&gt;Turn Right -->
<g id="edge25" class="edge"><title>enemyRadar[LeftFront1.5]&#45;&gt;Turn Right</title>
<path fill="none" stroke="red" stroke-width="0.319147" d="M369.199,-155.644C380.994,-152.278 395.181,-148.62 408.177,-146.309 495.175,-130.837 725.117,-149.774 804.177,-110.309 811.436,-106.685 818.127,-101.49 824.081,-95.7354"/>
<polygon fill="red" stroke="red" stroke-width="0.319147" points="826.867,-97.8841 831.216,-88.2227 821.792,-93.0637 826.867,-97.8841"/>
</g>
<!-- OnTarget -->
<g id="node21" class="node"><title>OnTarget</title>
<polygon fill="lightgray" stroke="black" points="2222.18,-173.693 2172.18,-173.693 2172.18,-155.693 2222.18,-155.693 2222.18,-173.693"/>
<text text-anchor="middle" x="2197.18" y="-162.493" font-family="Times,serif" font-size="9.00">OnTarget</text>
</g>
<!-- OnTarget&#45;&gt; Move Backward -->
<g id="edge62" class="edge"><title>OnTarget&#45;&gt; Move Backward</title>
<path fill="none" stroke="red" stroke-width="0.842001" d="M2184.06,-155.668C2177.92,-152.265 2170.39,-148.57 2163.18,-146.309 2049.76,-110.747 2011.24,-146.975 1898.18,-110.309 1882.66,-105.277 1866.72,-97.9137 1852.23,-90.2286"/>
<polygon fill="red" stroke="red" stroke-width="0.842001" points="1853.86,-87.1322 1843.4,-85.4199 1850.51,-93.2786 1853.86,-87.1322"/>
</g>
<!-- OnTarget&#45;&gt;Move Left -->
<g id="edge5" class="edge"><title>OnTarget&#45;&gt;Move Left</title>
<path fill="none" stroke="green" stroke-width="0.467954" d="M2182.07,-155.641C2176.22,-152.609 2169.44,-149.198 2163.18,-146.309 2104.11,-119.047 2034.41,-90.9065 1990.02,-73.4737"/>
<polygon fill="green" stroke="green" stroke-width="0.467954" points="1991.26,-70.1999 1980.67,-69.8138 1988.7,-76.7183 1991.26,-70.1999"/>
</g>
<!-- OnTarget&#45;&gt;Move right -->
<g id="edge70" class="edge"><title>OnTarget&#45;&gt;Move right</title>
<path fill="none" stroke="green" stroke-width="0.195863" d="M2184.47,-155.542C2178.29,-152.023 2170.61,-148.27 2163.18,-146.309 1983.59,-98.9434 1512.06,-136.442 1328.18,-110.309 1267.01,-101.616 1198.12,-83.4606 1153.53,-70.5711"/>
<polygon fill="green" stroke="green" stroke-width="0.195863" points="1154.42,-67.186 1143.84,-67.7433 1152.46,-73.9055 1154.42,-67.186"/>
</g>
<!-- bias -->
<g id="node22" class="node"><title>bias</title>
<polygon fill="lightgray" stroke="black" points="1069.68,-173.693 1038.68,-173.693 1038.68,-155.693 1069.68,-155.693 1069.68,-173.693"/>
<text text-anchor="middle" x="1054.18" y="-162.493" font-family="Times,serif" font-size="9.00">bias</text>
</g>
<!-- bias&#45;&gt; Move Backward -->
<g id="edge44" class="edge"><title>bias&#45;&gt; Move Backward</title>
<path fill="none" stroke="red" stroke-width="0.750097" d="M1063.75,-155.358C1068.16,-151.981 1073.64,-148.393 1079.18,-146.309 1213.55,-95.7822 1257.71,-128.012 1400.18,-110.309 1517.44,-95.7372 1653.89,-76.6587 1732.43,-65.4708"/>
<polygon fill="red" stroke="red" stroke-width="0.750097" points="1733.24,-68.8899 1742.65,-64.0127 1732.25,-61.9601 1733.24,-68.8899"/>
</g>
<!-- bias&#45;&gt;Move right -->
<g id="edge66" class="edge"><title>bias&#45;&gt;Move right</title>
<path fill="none" stroke="red" stroke-width="0.330578" d="M1058.09,-155.611C1063.76,-143.867 1074.71,-121.222 1084.73,-100.504"/>
<polygon fill="red" stroke="red" stroke-width="0.330578" points="1087.9,-102 1089.1,-91.4737 1081.59,-98.9528 1087.9,-102"/>
</g>
<!-- bias&#45;&gt;Turn Left -->
<g id="edge60" class="edge"><title>bias&#45;&gt;Turn Left</title>
<path fill="none" stroke="green" stroke-width="0.220443" d="M1044.61,-155.339C1040.21,-151.958 1034.73,-148.373 1029.18,-146.309 885.512,-92.8714 835.578,-144.584 686.177,-110.309 648.598,-101.687 607.516,-86.4205 577.863,-74.2897"/>
<polygon fill="green" stroke="green" stroke-width="0.220443" points="578.845,-70.9077 568.267,-70.3101 576.163,-77.3737 578.845,-70.9077"/>
</g>
<!-- bias&#45;&gt;Turn Right -->
<g id="edge31" class="edge"><title>bias&#45;&gt;Turn Right</title>
<path fill="none" stroke="green" stroke-width="0.102733" d="M1043.19,-155.577C1038.9,-152.537 1033.89,-149.138 1029.18,-146.309 985.942,-120.362 934.384,-94.5123 898.285,-77.1891"/>
<polygon fill="green" stroke="green" stroke-width="0.102733" points="899.527,-73.9038 888.995,-72.7553 896.512,-80.2212 899.527,-73.9038"/>
</g>
<!-- 51&#45;&gt;Move right -->
<g id="edge79" class="edge"><title>51&#45;&gt;Move right</title>
<path fill="none" stroke="green" stroke-width="0.130573" d="M1106.18,-145.936C1106.18,-134.798 1106.18,-119.847 1106.18,-105.343"/>
<polygon fill="green" stroke="green" stroke-width="0.130573" points="1109.68,-104.921 1106.18,-94.9214 1102.68,-104.921 1109.68,-104.921"/>
</g>
</g>
</svg>
