<?xml version="1.0" encoding="UTF-8" standalone="no"?>
<!DOCTYPE svg PUBLIC "-//W3C//DTD SVG 1.1//EN"
 "http://www.w3.org/Graphics/SVG/1.1/DTD/svg11.dtd">
<!-- Generated by graphviz version 2.38.0 (20140413.2041)
 -->
<!-- Title: %3 Pages: 1 -->
<svg width="2683pt" height="295pt"
 viewBox="0.00 0.00 2682.60 294.58" xmlns="http://www.w3.org/2000/svg" xmlns:xlink="http://www.w3.org/1999/xlink">
<g id="graph0" class="graph" transform="scale(1 1) rotate(0) translate(4 290.576)">
<title>%3</title>
<polygon fill="white" stroke="none" points="-4,4 -4,-290.576 2678.6,-290.576 2678.6,4 -4,4"/>
<!-- wallRadar[1,0] -->
<g id="node1" class="node"><title>wallRadar[1,0]</title>
<polygon fill="lightgray" stroke="black" points="106.392,-220.362 36.3916,-220.362 36.3916,-202.362 106.392,-202.362 106.392,-220.362"/>
<text text-anchor="middle" x="71.3916" y="-209.162" font-family="Times,serif" font-size="9.00">wallRadar[1,0]</text>
</g>
<!--  Move Left/Right -->
<g id="node26" class="node"><title> Move Left/Right</title>
<ellipse fill="lightblue" stroke="black" cx="554.392" cy="-77.0746" rx="55.3091" ry="55.3091"/>
<text text-anchor="middle" x="554.392" y="-74.8746" font-family="Times,serif" font-size="9.00"> Move Left/Right</text>
</g>
<!-- wallRadar[1,0]&#45;&gt; Move Left/Right -->
<g id="edge31" class="edge"><title>wallRadar[1,0]&#45;&gt; Move Left/Right</title>
<path fill="none" stroke="green" stroke-width="0.227064" d="M86.9909,-202.359C95.2778,-198.323 105.724,-193.572 115.392,-190.149 245.738,-143.997 404.073,-108.382 490.496,-90.595"/>
<polygon fill="green" stroke="green" stroke-width="0.227064" points="491.321,-93.9989 500.417,-88.5665 489.919,-87.1408 491.321,-93.9989"/>
</g>
<!-- wallRadar[0,1] -->
<g id="node2" class="node"><title>wallRadar[0,1]</title>
<polygon fill="lightgray" stroke="black" points="642.392,-220.362 572.392,-220.362 572.392,-202.362 642.392,-202.362 642.392,-220.362"/>
<text text-anchor="middle" x="607.392" y="-209.162" font-family="Times,serif" font-size="9.00">wallRadar[0,1]</text>
</g>
<!-- Shoot -->
<g id="node24" class="node"><title>Shoot</title>
<ellipse fill="lightblue" stroke="black" cx="1709.39" cy="-77.0746" rx="26.7407" ry="26.7407"/>
<text text-anchor="middle" x="1709.39" y="-74.8746" font-family="Times,serif" font-size="9.00">Shoot</text>
</g>
<!-- wallRadar[0,1]&#45;&gt;Shoot -->
<g id="edge10" class="edge"><title>wallRadar[0,1]&#45;&gt;Shoot</title>
<path fill="none" stroke="red" stroke-width="0.741466" d="M621.15,-202.333C629.58,-197.854 640.761,-192.682 651.392,-190.149 861.441,-140.115 1421.69,-233.795 1622.39,-154.149 1647.46,-144.202 1670.19,-123.728 1686.12,-106.523"/>
<polygon fill="red" stroke="red" stroke-width="0.741466" points="1688.89,-108.683 1692.95,-98.8985 1683.67,-104.014 1688.89,-108.683"/>
</g>
<!-- wallRadar[0,1]&#45;&gt; Move Left/Right -->
<g id="edge54" class="edge"><title>wallRadar[0,1]&#45;&gt; Move Left/Right</title>
<path fill="none" stroke="green" stroke-width="0.125874" d="M604.076,-202.087C598.892,-189.147 588.421,-163.011 578.423,-138.056"/>
<polygon fill="green" stroke="green" stroke-width="0.125874" points="581.594,-136.56 574.626,-128.579 575.096,-139.164 581.594,-136.56"/>
</g>
<!-- Turn left/right -->
<g id="node27" class="node"><title>Turn left/right</title>
<ellipse fill="lightblue" stroke="black" cx="967.392" cy="-77.0746" rx="46.8387" ry="46.8387"/>
<text text-anchor="middle" x="967.392" y="-74.8746" font-family="Times,serif" font-size="9.00">Turn left/right</text>
</g>
<!-- wallRadar[0,1]&#45;&gt;Turn left/right -->
<g id="edge49" class="edge"><title>wallRadar[0,1]&#45;&gt;Turn left/right</title>
<path fill="none" stroke="red" stroke-width="0.274322" d="M623.952,-202.327C632.134,-198.468 642.201,-193.881 651.392,-190.149 742.132,-153.302 850.093,-116.479 913.444,-95.5638"/>
<polygon fill="red" stroke="red" stroke-width="0.274322" points="914.815,-98.7974 923.219,-92.3461 912.626,-92.1484 914.815,-98.7974"/>
</g>
<!-- wallRadar[&#45;1,0] -->
<g id="node3" class="node"><title>wallRadar[&#45;1,0]</title>
<polygon fill="lightgray" stroke="black" points="2185.89,-220.362 2112.89,-220.362 2112.89,-202.362 2185.89,-202.362 2185.89,-220.362"/>
<text text-anchor="middle" x="2149.39" y="-209.162" font-family="Times,serif" font-size="9.00">wallRadar[&#45;1,0]</text>
</g>
<!-- wallRadar[&#45;1,0]&#45;&gt;Shoot -->
<g id="edge35" class="edge"><title>wallRadar[&#45;1,0]&#45;&gt;Shoot</title>
<path fill="none" stroke="green" stroke-width="0.65758" d="M2130.18,-202.239C2120.69,-198.358 2109.03,-193.78 2098.39,-190.149 1970.28,-146.42 1814.74,-105.049 1745.57,-87.2427"/>
<polygon fill="green" stroke="green" stroke-width="0.65758" points="1746.17,-83.7837 1735.61,-84.6895 1744.43,-90.5643 1746.17,-83.7837"/>
</g>
<!-- Move Forward/Backward -->
<g id="node25" class="node"><title>Move Forward/Backward</title>
<ellipse fill="lightblue" stroke="black" cx="1536.39" cy="-77.0746" rx="77.1494" ry="77.1494"/>
<text text-anchor="middle" x="1536.39" y="-74.8746" font-family="Times,serif" font-size="9.00">Move Forward/Backward</text>
</g>
<!-- wallRadar[&#45;1,0]&#45;&gt;Move Forward/Backward -->
<g id="edge38" class="edge"><title>wallRadar[&#45;1,0]&#45;&gt;Move Forward/Backward</title>
<path fill="none" stroke="green" stroke-width="0.116725" d="M2132.79,-202.349C2123.01,-197.993 2110.26,-192.94 2098.39,-190.149 1913.86,-146.762 1854.73,-209.39 1673.39,-154.149 1651.4,-147.45 1629,-136.886 1608.86,-125.738"/>
<polygon fill="green" stroke="green" stroke-width="0.116725" points="1610.5,-122.644 1600.08,-120.76 1607.05,-128.735 1610.5,-122.644"/>
</g>
<!-- wallRadar[0,&#45;1] -->
<g id="node4" class="node"><title>wallRadar[0,&#45;1]</title>
<polygon fill="lightgray" stroke="black" points="1572.89,-220.362 1499.89,-220.362 1499.89,-202.362 1572.89,-202.362 1572.89,-220.362"/>
<text text-anchor="middle" x="1536.39" y="-209.162" font-family="Times,serif" font-size="9.00">wallRadar[0,&#45;1]</text>
</g>
<!-- wallRadar[0,&#45;1]&#45;&gt;Shoot -->
<g id="edge47" class="edge"><title>wallRadar[0,&#45;1]&#45;&gt;Shoot</title>
<path fill="none" stroke="red" stroke-width="0.166724" d="M1549.9,-202.346C1567.17,-191.91 1597.8,-172.793 1622.39,-154.149 1643.41,-138.211 1665.79,-118.576 1682.59,-103.247"/>
<polygon fill="red" stroke="red" stroke-width="0.166724" points="1685.36,-105.449 1690.35,-96.1028 1680.62,-100.297 1685.36,-105.449"/>
</g>
<!-- wallRadar[0,&#45;1]&#45;&gt;Move Forward/Backward -->
<g id="edge19" class="edge"><title>wallRadar[0,&#45;1]&#45;&gt;Move Forward/Backward</title>
<path fill="none" stroke="red" stroke-width="0.329466" d="M1536.39,-202.087C1536.39,-193.782 1536.39,-180.04 1536.39,-164.664"/>
<polygon fill="red" stroke="red" stroke-width="0.329466" points="1539.89,-164.364 1536.39,-154.364 1532.89,-164.364 1539.89,-164.364"/>
</g>
<!-- wallRadar[0,&#45;1]&#45;&gt;Turn left/right -->
<g id="edge55" class="edge"><title>wallRadar[0,&#45;1]&#45;&gt;Turn left/right</title>
<path fill="none" stroke="green" stroke-width="0.170702" d="M1520.1,-202.236C1511.44,-198.166 1500.52,-193.422 1490.39,-190.149 1324.57,-136.564 1120.82,-101.315 1023.85,-86.3146"/>
<polygon fill="green" stroke="green" stroke-width="0.170702" points="1024.1,-82.8118 1013.68,-84.7556 1023.04,-89.7309 1024.1,-82.8118"/>
</g>
<!-- wallRadar[0.7,0.7] -->
<g id="node5" class="node"><title>wallRadar[0.7,0.7]</title>
<polygon fill="lightgray" stroke="black" points="1244.89,-220.362 1161.89,-220.362 1161.89,-202.362 1244.89,-202.362 1244.89,-220.362"/>
<text text-anchor="middle" x="1203.39" y="-209.162" font-family="Times,serif" font-size="9.00">wallRadar[0.7,0.7]</text>
</g>
<!-- wallRadar[0.7,0.7]&#45;&gt;Shoot -->
<g id="edge50" class="edge"><title>wallRadar[0.7,0.7]&#45;&gt;Shoot</title>
<path fill="none" stroke="green" stroke-width="0.138211" d="M1220.47,-202.203C1230.19,-197.913 1242.73,-192.972 1254.39,-190.149 1414.12,-151.496 1471.55,-219.355 1622.39,-154.149 1647.15,-143.448 1669.89,-123.012 1685.91,-106.014"/>
<polygon fill="green" stroke="green" stroke-width="0.138211" points="1688.62,-108.237 1692.78,-98.493 1683.45,-103.515 1688.62,-108.237"/>
</g>
<!-- wallRadar[0.7,0.7]&#45;&gt;Move Forward/Backward -->
<g id="edge2" class="edge"><title>wallRadar[0.7,0.7]&#45;&gt;Move Forward/Backward</title>
<path fill="none" stroke="red" stroke-width="0.141726" d="M1223.72,-202.286C1268.68,-184.426 1378.63,-140.747 1455.36,-110.266"/>
<polygon fill="red" stroke="red" stroke-width="0.141726" points="1457.01,-113.376 1465.01,-106.431 1454.43,-106.87 1457.01,-113.376"/>
</g>
<!-- wallRadar[0.7,0.7]&#45;&gt; Move Left/Right -->
<g id="edge45" class="edge"><title>wallRadar[0.7,0.7]&#45;&gt; Move Left/Right</title>
<path fill="none" stroke="green" stroke-width="0.259829" d="M1185.79,-202.23C1176.12,-198.056 1163.8,-193.218 1152.39,-190.149 1047.81,-162.013 1017.96,-173.444 911.392,-154.149 808.274,-135.479 689.411,-109.186 618.173,-92.9083"/>
<polygon fill="green" stroke="green" stroke-width="0.259829" points="618.545,-89.4028 608.016,-90.5815 616.982,-96.2261 618.545,-89.4028"/>
</g>
<!-- wallRadar[0.7,0.7]&#45;&gt;Turn left/right -->
<g id="edge5" class="edge"><title>wallRadar[0.7,0.7]&#45;&gt;Turn left/right</title>
<path fill="none" stroke="red" stroke-width="0.12547" d="M1188.98,-202.286C1155.52,-183.528 1071.25,-136.291 1016.81,-105.775"/>
<polygon fill="red" stroke="red" stroke-width="0.12547" points="1018.44,-102.679 1008.01,-100.842 1015.02,-108.785 1018.44,-102.679"/>
</g>
<!-- wallRadar[&#45;0.7,0.7] -->
<g id="node6" class="node"><title>wallRadar[&#45;0.7,0.7]</title>
<polygon fill="lightgray" stroke="black" points="2056.39,-220.362 1970.39,-220.362 1970.39,-202.362 2056.39,-202.362 2056.39,-220.362"/>
<text text-anchor="middle" x="2013.39" y="-209.162" font-family="Times,serif" font-size="9.00">wallRadar[&#45;0.7,0.7]</text>
</g>
<!-- wallRadar[&#45;0.7,0.7]&#45;&gt;Move Forward/Backward -->
<g id="edge34" class="edge"><title>wallRadar[&#45;0.7,0.7]&#45;&gt;Move Forward/Backward</title>
<path fill="none" stroke="red" stroke-width="0.265543" d="M1995.94,-202.332C1986.01,-198.083 1973.22,-193.14 1961.39,-190.149 1836.33,-158.542 1796.02,-194.191 1673.39,-154.149 1651.65,-147.05 1629.42,-136.411 1609.36,-125.322"/>
<polygon fill="red" stroke="red" stroke-width="0.265543" points="1611.03,-122.248 1600.6,-120.379 1607.59,-128.344 1611.03,-122.248"/>
</g>
<!-- wallRadar[&#45;0.7,&#45;0.7] -->
<g id="node7" class="node"><title>wallRadar[&#45;0.7,&#45;0.7]</title>
<polygon fill="lightgray" stroke="black" points="889.892,-220.362 800.892,-220.362 800.892,-202.362 889.892,-202.362 889.892,-220.362"/>
<text text-anchor="middle" x="845.392" y="-209.162" font-family="Times,serif" font-size="9.00">wallRadar[&#45;0.7,&#45;0.7]</text>
</g>
<!-- wallRadar[&#45;0.7,&#45;0.7]&#45;&gt;Turn left/right -->
<g id="edge33" class="edge"><title>wallRadar[&#45;0.7,&#45;0.7]&#45;&gt;Turn left/right</title>
<path fill="none" stroke="red" stroke-width="0.325675" d="M853.023,-202.087C867.964,-185.887 901.977,-149.006 929.049,-119.65"/>
<polygon fill="red" stroke="red" stroke-width="0.325675" points="931.915,-121.705 936.122,-111.981 926.77,-116.959 931.915,-121.705"/>
</g>
<!-- wallRadar[0.7,&#45;0.7] -->
<g id="node8" class="node"><title>wallRadar[0.7,&#45;0.7]</title>
<polygon fill="lightgray" stroke="black" points="1349.39,-220.362 1263.39,-220.362 1263.39,-202.362 1349.39,-202.362 1349.39,-220.362"/>
<text text-anchor="middle" x="1306.39" y="-209.162" font-family="Times,serif" font-size="9.00">wallRadar[0.7,&#45;0.7]</text>
</g>
<!-- wallRadar[0.7,&#45;0.7]&#45;&gt;Shoot -->
<g id="edge18" class="edge"><title>wallRadar[0.7,&#45;0.7]&#45;&gt;Shoot</title>
<path fill="none" stroke="green" stroke-width="0.472756" d="M1324.34,-202.181C1334.2,-197.994 1346.76,-193.157 1358.39,-190.149 1473.04,-160.492 1514.61,-203.193 1622.39,-154.149 1646.94,-142.98 1669.69,-122.567 1685.77,-105.697"/>
<polygon fill="green" stroke="green" stroke-width="0.472756" points="1688.45,-107.958 1692.67,-98.2407 1683.31,-103.203 1688.45,-107.958"/>
</g>
<!-- wallRadar[0.7,&#45;0.7]&#45;&gt;Move Forward/Backward -->
<g id="edge25" class="edge"><title>wallRadar[0.7,&#45;0.7]&#45;&gt;Move Forward/Backward</title>
<path fill="none" stroke="red" stroke-width="0.458707" d="M1320.43,-202.286C1347.91,-186.484 1410.52,-150.469 1461.3,-121.267"/>
<polygon fill="red" stroke="red" stroke-width="0.458707" points="1463.06,-124.292 1469.98,-116.273 1459.57,-118.224 1463.06,-124.292"/>
</g>
<!-- wallRadar[0.7,&#45;0.7]&#45;&gt; Move Left/Right -->
<g id="edge28" class="edge"><title>wallRadar[0.7,&#45;0.7]&#45;&gt; Move Left/Right</title>
<path fill="none" stroke="green" stroke-width="0.185547" d="M1288.96,-202.242C1279.03,-197.964 1266.25,-193.022 1254.39,-190.149 1105.42,-154.063 1062.78,-178.156 911.392,-154.149 807.89,-137.737 689.14,-110.784 618.029,-93.7573"/>
<polygon fill="green" stroke="green" stroke-width="0.185547" points="618.431,-90.2544 607.89,-91.3195 616.795,-97.0604 618.431,-90.2544"/>
</g>
<!-- enemyRadar[RightBack] -->
<g id="node9" class="node"><title>enemyRadar[RightBack]</title>
<polygon fill="lightgray" stroke="black" points="554.392,-220.362 450.392,-220.362 450.392,-202.362 554.392,-202.362 554.392,-220.362"/>
<text text-anchor="middle" x="502.392" y="-209.162" font-family="Times,serif" font-size="9.00">enemyRadar[RightBack]</text>
</g>
<!-- enemyRadar[RightBack]&#45;&gt;Move Forward/Backward -->
<g id="edge53" class="edge"><title>enemyRadar[RightBack]&#45;&gt;Move Forward/Backward</title>
<path fill="none" stroke="red" stroke-width="0.134372" d="M522.669,-202.272C534.381,-197.947 549.502,-192.951 563.392,-190.149 764.412,-149.601 819.622,-177.204 1023.39,-154.149 1174.26,-137.08 1348.97,-109.488 1450.64,-92.6435"/>
<polygon fill="red" stroke="red" stroke-width="0.134372" points="1451.26,-96.0887 1460.55,-90.9973 1450.12,-89.1833 1451.26,-96.0887"/>
</g>
<!-- enemyRadar[RightBack]&#45;&gt; Move Left/Right -->
<g id="edge39" class="edge"><title>enemyRadar[RightBack]&#45;&gt; Move Left/Right</title>
<path fill="none" stroke="red" stroke-width="0.603598" d="M505.644,-202.087C510.731,-189.147 521.004,-163.011 530.814,-138.056"/>
<polygon fill="red" stroke="red" stroke-width="0.603598" points="534.138,-139.167 534.539,-128.579 527.623,-136.606 534.138,-139.167"/>
</g>
<!-- enemyRadar[RightBack]&#45;&gt;Turn left/right -->
<g id="edge40" class="edge"><title>enemyRadar[RightBack]&#45;&gt;Turn left/right</title>
<path fill="none" stroke="red" stroke-width="0.123277" d="M525.768,-202.316C537.089,-198.497 550.903,-193.948 563.392,-190.149 687.351,-152.442 834.257,-112.986 912.263,-92.4439"/>
<polygon fill="red" stroke="red" stroke-width="0.123277" points="913.563,-95.721 922.345,-89.7933 911.784,-88.9511 913.563,-95.721"/>
</g>
<!-- enemyRadar[LeftBack] -->
<g id="node10" class="node"><title>enemyRadar[LeftBack]</title>
<polygon fill="lightgray" stroke="black" points="223.892,-220.362 124.892,-220.362 124.892,-202.362 223.892,-202.362 223.892,-220.362"/>
<text text-anchor="middle" x="174.392" y="-209.162" font-family="Times,serif" font-size="9.00">enemyRadar[LeftBack]</text>
</g>
<!-- enemyRadar[LeftBack]&#45;&gt; Move Left/Right -->
<g id="edge15" class="edge"><title>enemyRadar[LeftBack]&#45;&gt; Move Left/Right</title>
<path fill="none" stroke="green" stroke-width="0.342078" d="M197.59,-202.286C255.31,-182.193 406.901,-129.42 492.769,-99.5272"/>
<polygon fill="green" stroke="green" stroke-width="0.342078" points="494.101,-102.769 502.394,-96.1762 491.8,-96.1586 494.101,-102.769"/>
</g>
<!-- enemyRadar[Right45ø] -->
<g id="node11" class="node"><title>enemyRadar[Right45ø]</title>
<polygon fill="lightgray" stroke="black" points="2304.39,-220.362 2204.39,-220.362 2204.39,-202.362 2304.39,-202.362 2304.39,-220.362"/>
<text text-anchor="middle" x="2254.39" y="-209.162" font-family="Times,serif" font-size="9.00">enemyRadar[Right45ø]</text>
</g>
<!-- enemyRadar[Right45ø]&#45;&gt;Shoot -->
<g id="edge29" class="edge"><title>enemyRadar[Right45ø]&#45;&gt;Shoot</title>
<path fill="none" stroke="green" stroke-width="0.140127" d="M2232.71,-202.332C2221.63,-198.384 2207.88,-193.719 2195.39,-190.149 2029.46,-142.73 1827.33,-101.217 1745.93,-85.154"/>
<polygon fill="green" stroke="green" stroke-width="0.140127" points="1746.2,-81.6398 1735.71,-83.1462 1744.85,-88.5085 1746.2,-81.6398"/>
</g>
<!-- enemyRadar[Right45ø]&#45;&gt;Move Forward/Backward -->
<g id="edge11" class="edge"><title>enemyRadar[Right45ø]&#45;&gt;Move Forward/Backward</title>
<path fill="none" stroke="green" stroke-width="0.392084" d="M2235.08,-202.315C2223.73,-197.949 2208.98,-192.895 2195.39,-190.149 1967.45,-144.072 1896.37,-220.174 1673.39,-154.149 1651.35,-147.623 1628.93,-137.117 1608.79,-125.969"/>
<polygon fill="green" stroke="green" stroke-width="0.392084" points="1610.43,-122.877 1600.01,-120.989 1606.98,-128.966 1610.43,-122.877"/>
</g>
<!-- enemyRadar[Left45ø] -->
<g id="node12" class="node"><title>enemyRadar[Left45ø]</title>
<polygon fill="lightgray" stroke="black" points="1685.89,-220.362 1590.89,-220.362 1590.89,-202.362 1685.89,-202.362 1685.89,-220.362"/>
<text text-anchor="middle" x="1638.39" y="-209.162" font-family="Times,serif" font-size="9.00">enemyRadar[Left45ø]</text>
</g>
<!-- enemyRadar[Left45ø]&#45;&gt;Shoot -->
<g id="edge3" class="edge"><title>enemyRadar[Left45ø]&#45;&gt;Shoot</title>
<path fill="none" stroke="red" stroke-width="0.209002" d="M1642.83,-202.087C1652.52,-184.043 1675.97,-140.344 1692.28,-109.962"/>
<polygon fill="red" stroke="red" stroke-width="0.209002" points="1695.44,-111.47 1697.09,-101.004 1689.27,-108.16 1695.44,-111.47"/>
</g>
<!-- enemyRadar[Left45ø]&#45;&gt;Move Forward/Backward -->
<g id="edge4" class="edge"><title>enemyRadar[Left45ø]&#45;&gt;Move Forward/Backward</title>
<path fill="none" stroke="red" stroke-width="0.106864" d="M1632.01,-202.087C1623.19,-190.652 1606.43,-168.911 1589.37,-146.787"/>
<polygon fill="red" stroke="red" stroke-width="0.106864" points="1591.97,-144.419 1583.09,-138.637 1586.42,-148.693 1591.97,-144.419"/>
</g>
<!-- enemyRadar[Left45ø]&#45;&gt;Turn left/right -->
<g id="edge48" class="edge"><title>enemyRadar[Left45ø]&#45;&gt;Turn left/right</title>
<path fill="none" stroke="green" stroke-width="0.465747" d="M1618.69,-202.344C1608.07,-198.254 1594.67,-193.459 1582.39,-190.149 1380.13,-135.621 1133.24,-99.6053 1024.01,-85.1853"/>
<polygon fill="green" stroke="green" stroke-width="0.465747" points="1024.25,-81.6863 1013.88,-83.8573 1023.34,-88.627 1024.25,-81.6863"/>
</g>
<!-- enemyRadar[RightFront20ø] -->
<g id="node13" class="node"><title>enemyRadar[RightFront20ø]</title>
<polygon fill="lightgray" stroke="black" points="1026.89,-220.362 907.892,-220.362 907.892,-202.362 1026.89,-202.362 1026.89,-220.362"/>
<text text-anchor="middle" x="967.392" y="-209.162" font-family="Times,serif" font-size="9.00">enemyRadar[RightFront20ø]</text>
</g>
<!-- enemyRadar[RightFront20ø]&#45;&gt;Shoot -->
<g id="edge22" class="edge"><title>enemyRadar[RightFront20ø]&#45;&gt;Shoot</title>
<path fill="none" stroke="green" stroke-width="0.291462" d="M990.087,-202.321C1003.4,-197.956 1020.65,-192.902 1036.39,-190.149 1164.91,-167.67 1501.72,-203.743 1622.39,-154.149 1647.34,-143.898 1670.07,-123.439 1686.04,-106.318"/>
<polygon fill="green" stroke="green" stroke-width="0.291462" points="1688.78,-108.503 1692.88,-98.7349 1683.58,-103.813 1688.78,-108.503"/>
</g>
<!-- enemyRadar[RightFront20ø]&#45;&gt;Move Forward/Backward -->
<g id="edge37" class="edge"><title>enemyRadar[RightFront20ø]&#45;&gt;Move Forward/Backward</title>
<path fill="none" stroke="green" stroke-width="0.444549" d="M993.494,-202.285C1006.36,-198.415 1022.13,-193.832 1036.39,-190.149 1180.87,-152.836 1350.68,-116.304 1450.6,-95.5483"/>
<polygon fill="green" stroke="green" stroke-width="0.444549" points="1451.56,-98.9234 1460.64,-93.4664 1450.14,-92.0692 1451.56,-98.9234"/>
</g>
<!-- enemyRadar[RightFront20ø]&#45;&gt; Move Left/Right -->
<g id="edge16" class="edge"><title>enemyRadar[RightFront20ø]&#45;&gt; Move Left/Right</title>
<path fill="none" stroke="green" stroke-width="0.47141" d="M942.178,-202.286C878.39,-181.854 709.111,-127.633 616.712,-98.0365"/>
<polygon fill="green" stroke="green" stroke-width="0.47141" points="617.518,-94.6195 606.927,-94.9022 615.382,-101.286 617.518,-94.6195"/>
</g>
<!-- enemyRadar[RightFront20ø]&#45;&gt;Turn left/right -->
<g id="edge8" class="edge"><title>enemyRadar[RightFront20ø]&#45;&gt;Turn left/right</title>
<path fill="none" stroke="red" stroke-width="0.309312" d="M967.392,-202.087C967.392,-188.455 967.392,-160.178 967.392,-134.065"/>
<polygon fill="red" stroke="red" stroke-width="0.309312" points="970.892,-133.819 967.392,-123.819 963.892,-133.819 970.892,-133.819"/>
</g>
<!-- enemyRadar[LeftFront20ø] -->
<g id="node14" class="node"><title>enemyRadar[LeftFront20ø]</title>
<polygon fill="lightgray" stroke="black" points="1818.39,-220.362 1704.39,-220.362 1704.39,-202.362 1818.39,-202.362 1818.39,-220.362"/>
<text text-anchor="middle" x="1761.39" y="-209.162" font-family="Times,serif" font-size="9.00">enemyRadar[LeftFront20ø]</text>
</g>
<!-- enemyRadar[LeftFront20ø]&#45;&gt;Shoot -->
<g id="edge6" class="edge"><title>enemyRadar[LeftFront20ø]&#45;&gt;Shoot</title>
<path fill="none" stroke="red" stroke-width="0.573862" d="M1758.14,-202.087C1751.18,-184.376 1734.5,-141.948 1722.59,-111.657"/>
<polygon fill="red" stroke="red" stroke-width="0.573862" points="1725.83,-110.323 1718.91,-102.296 1719.31,-112.883 1725.83,-110.323"/>
</g>
<!-- enemyRadar[LeftFront20ø]&#45;&gt;Move Forward/Backward -->
<g id="edge44" class="edge"><title>enemyRadar[LeftFront20ø]&#45;&gt;Move Forward/Backward</title>
<path fill="none" stroke="red" stroke-width="0.666077" d="M1747.66,-202.286C1721.06,-186.649 1660.8,-151.218 1611.41,-122.184"/>
<polygon fill="red" stroke="red" stroke-width="0.666077" points="1613.04,-119.08 1602.65,-117.029 1609.49,-125.114 1613.04,-119.08"/>
</g>
<!-- enemyRadar[LeftFront20ø]&#45;&gt;Turn left/right -->
<g id="edge13" class="edge"><title>enemyRadar[LeftFront20ø]&#45;&gt;Turn left/right</title>
<path fill="none" stroke="green" stroke-width="0.193219" d="M1738.1,-202.287C1725.57,-198.181 1709.77,-193.388 1695.39,-190.149 1588.02,-165.966 1559.2,-170.711 1450.39,-154.149 1295.65,-130.594 1113.24,-101.503 1023.3,-87.0722"/>
<polygon fill="green" stroke="green" stroke-width="0.193219" points="1023.75,-83.5995 1013.32,-85.4702 1022.64,-90.511 1023.75,-83.5995"/>
</g>
<!-- enemyRadar[RightFront15ø] -->
<g id="node15" class="node"><title>enemyRadar[RightFront15ø]</title>
<polygon fill="lightgray" stroke="black" points="2575.89,-220.362 2456.89,-220.362 2456.89,-202.362 2575.89,-202.362 2575.89,-220.362"/>
<text text-anchor="middle" x="2516.39" y="-209.162" font-family="Times,serif" font-size="9.00">enemyRadar[RightFront15ø]</text>
</g>
<!-- enemyRadar[RightFront15ø]&#45;&gt;Shoot -->
<g id="edge30" class="edge"><title>enemyRadar[RightFront15ø]&#45;&gt;Shoot</title>
<path fill="none" stroke="green" stroke-width="0.305324" d="M2492.01,-202.351C2478.9,-198.263 2462.38,-193.468 2447.39,-190.149 2181.36,-131.262 1854.52,-93.506 1746.19,-81.8915"/>
<polygon fill="green" stroke="green" stroke-width="0.305324" points="1746.42,-78.3963 1736.11,-80.8184 1745.68,-85.357 1746.42,-78.3963"/>
</g>
<!-- enemyRadar[LeftFront15ø] -->
<g id="node16" class="node"><title>enemyRadar[LeftFront15ø]</title>
<polygon fill="lightgray" stroke="black" points="1481.39,-220.362 1367.39,-220.362 1367.39,-202.362 1481.39,-202.362 1481.39,-220.362"/>
<text text-anchor="middle" x="1424.39" y="-209.162" font-family="Times,serif" font-size="9.00">enemyRadar[LeftFront15ø]</text>
</g>
<!-- enemyRadar[LeftFront15ø]&#45;&gt;Shoot -->
<g id="edge27" class="edge"><title>enemyRadar[LeftFront15ø]&#45;&gt;Shoot</title>
<path fill="none" stroke="green" stroke-width="0.358592" d="M1450.44,-202.341C1462.82,-198.568 1477.85,-194.052 1491.39,-190.149 1549.41,-173.428 1569.21,-182.744 1622.39,-154.149 1645.99,-141.46 1668.64,-121.307 1684.92,-104.931"/>
<polygon fill="green" stroke="green" stroke-width="0.358592" points="1687.47,-107.326 1691.92,-97.7128 1682.45,-102.45 1687.47,-107.326"/>
</g>
<!-- enemyRadar[LeftFront15ø]&#45;&gt;Move Forward/Backward -->
<g id="edge14" class="edge"><title>enemyRadar[LeftFront15ø]&#45;&gt;Move Forward/Backward</title>
<path fill="none" stroke="green" stroke-width="0.329095" d="M1431.4,-202.087C1441.47,-190.195 1460.97,-167.161 1480.46,-144.139"/>
<polygon fill="green" stroke="green" stroke-width="0.329095" points="1483.26,-146.241 1487.06,-136.348 1477.92,-141.718 1483.26,-146.241"/>
</g>
<!-- enemyRadar[LeftFront15ø]&#45;&gt; Move Left/Right -->
<g id="edge36" class="edge"><title>enemyRadar[LeftFront15ø]&#45;&gt; Move Left/Right</title>
<path fill="none" stroke="red" stroke-width="0.374071" d="M1402.39,-202.313C1389.7,-198.002 1373.34,-193.005 1358.39,-190.149 1162.62,-152.747 1108.61,-182.979 911.392,-154.149 807.699,-138.991 689.004,-111.672 617.957,-94.2288"/>
<polygon fill="red" stroke="red" stroke-width="0.374071" points="618.375,-90.7271 607.828,-91.7295 616.698,-97.5232 618.375,-90.7271"/>
</g>
<!-- enemyRadar[RightFront7.5ø] -->
<g id="node17" class="node"><title>enemyRadar[RightFront7.5ø]</title>
<polygon fill="lightgray" stroke="black" points="432.392,-220.362 310.392,-220.362 310.392,-202.362 432.392,-202.362 432.392,-220.362"/>
<text text-anchor="middle" x="371.392" y="-209.162" font-family="Times,serif" font-size="9.00">enemyRadar[RightFront7.5ø]</text>
</g>
<!-- enemyRadar[RightFront7.5ø]&#45;&gt;Move Forward/Backward -->
<g id="edge51" class="edge"><title>enemyRadar[RightFront7.5ø]&#45;&gt;Move Forward/Backward</title>
<path fill="none" stroke="red" stroke-width="0.335835" stroke-dasharray="1,5" d="M394.426,-202.328C407.938,-197.965 425.438,-192.912 441.392,-190.149 696.753,-145.935 765.644,-181.182 1023.39,-154.149 1174.4,-138.312 1349.06,-110.329 1450.69,-93.074"/>
<polygon fill="red" stroke="red" stroke-width="0.335835" points="1451.33,-96.5162 1460.6,-91.3868 1450.15,-89.6156 1451.33,-96.5162"/>
</g>
<!-- enemyRadar[RightFront7.5ø]&#45;&gt; Move Left/Right -->
<g id="edge9" class="edge"><title>enemyRadar[RightFront7.5ø]&#45;&gt; Move Left/Right</title>
<path fill="none" stroke="red" stroke-width="0.131802" d="M382.564,-202.286C405.771,-185.51 460.492,-145.953 501.993,-115.952"/>
<polygon fill="red" stroke="red" stroke-width="0.131802" points="504.05,-118.784 510.104,-110.089 499.949,-113.111 504.05,-118.784"/>
</g>
<!-- enemyRadar[RightFront7.5ø]&#45;&gt;Turn left/right -->
<g id="edge21" class="edge"><title>enemyRadar[RightFront7.5ø]&#45;&gt;Turn left/right</title>
<path fill="none" stroke="green" stroke-width="0.334258" d="M397.517,-202.277C410.62,-198.36 426.774,-193.74 441.392,-190.149 519.351,-170.998 539.839,-170.698 618.392,-154.149 722.14,-132.292 842.977,-105.698 911.801,-90.4429"/>
<polygon fill="green" stroke="green" stroke-width="0.334258" points="912.975,-93.7677 921.98,-88.1854 911.459,-86.9338 912.975,-93.7677"/>
</g>
<!-- enemyRadar[LeftFront7.5ø] -->
<g id="node18" class="node"><title>enemyRadar[LeftFront7.5ø]</title>
<polygon fill="lightgray" stroke="black" points="2438.39,-220.362 2322.39,-220.362 2322.39,-202.362 2438.39,-202.362 2438.39,-220.362"/>
<text text-anchor="middle" x="2380.39" y="-209.162" font-family="Times,serif" font-size="9.00">enemyRadar[LeftFront7.5ø]</text>
</g>
<!-- enemyRadar[LeftFront7.5ø]&#45;&gt;Shoot -->
<g id="edge7" class="edge"><title>enemyRadar[LeftFront7.5ø]&#45;&gt;Shoot</title>
<path fill="none" stroke="green" stroke-width="0.287231" d="M2356.06,-202.322C2343.43,-198.324 2327.68,-193.619 2313.39,-190.149 2100.62,-138.477 1840.66,-97.6028 1746.04,-83.4403"/>
<polygon fill="green" stroke="green" stroke-width="0.287231" points="1746.51,-79.9723 1736.11,-81.961 1745.48,-86.896 1746.51,-79.9723"/>
</g>
<!-- enemyRadar[LeftFront7.5ø]&#45;&gt;Move Forward/Backward -->
<g id="edge46" class="edge"><title>enemyRadar[LeftFront7.5ø]&#45;&gt;Move Forward/Backward</title>
<path fill="none" stroke="red" stroke-width="0.219088" d="M2358.38,-202.282C2345.46,-197.904 2328.71,-192.851 2313.39,-190.149 2032.83,-140.66 1947.07,-233.304 1673.39,-154.149 1651.31,-147.762 1628.88,-137.304 1608.74,-126.158"/>
<polygon fill="red" stroke="red" stroke-width="0.219088" points="1610.38,-123.065 1599.95,-121.175 1606.92,-129.153 1610.38,-123.065"/>
</g>
<!-- enemyRadar[RightFront2.5ø] -->
<g id="node19" class="node"><title>enemyRadar[RightFront2.5ø]</title>
<polygon fill="lightgray" stroke="black" points="782.392,-220.362 660.392,-220.362 660.392,-202.362 782.392,-202.362 782.392,-220.362"/>
<text text-anchor="middle" x="721.392" y="-209.162" font-family="Times,serif" font-size="9.00">enemyRadar[RightFront2.5ø]</text>
</g>
<!-- enemyRadar[RightFront2.5ø]&#45;&gt;Turn left/right -->
<g id="edge32" class="edge"><title>enemyRadar[RightFront2.5ø]&#45;&gt;Turn left/right</title>
<path fill="none" stroke="green" stroke-width="0.135065" d="M736.41,-202.286C771.588,-183.369 860.629,-135.487 917.32,-105.001"/>
<polygon fill="green" stroke="green" stroke-width="0.135065" points="919.322,-107.898 926.472,-100.079 916.007,-101.733 919.322,-107.898"/>
</g>
<!-- enemyRadar[LeftFront2.5ø] -->
<g id="node20" class="node"><title>enemyRadar[LeftFront2.5ø]</title>
<polygon fill="lightgray" stroke="black" points="1952.39,-220.362 1836.39,-220.362 1836.39,-202.362 1952.39,-202.362 1952.39,-220.362"/>
<text text-anchor="middle" x="1894.39" y="-209.162" font-family="Times,serif" font-size="9.00">enemyRadar[LeftFront2.5ø]</text>
</g>
<!-- enemyRadar[LeftFront2.5ø]&#45;&gt;Shoot -->
<g id="edge41" class="edge"><title>enemyRadar[LeftFront2.5ø]&#45;&gt;Shoot</title>
<path fill="none" stroke="green" stroke-width="0.340927" d="M1883.1,-202.286C1854.91,-182.134 1780.76,-129.109 1739.02,-99.2638"/>
<polygon fill="green" stroke="green" stroke-width="0.340927" points="1741.05,-96.4134 1730.88,-93.4437 1736.98,-102.107 1741.05,-96.4134"/>
</g>
<!-- enemyRadar[LeftFront2.5ø]&#45;&gt;Turn left/right -->
<g id="edge17" class="edge"><title>enemyRadar[LeftFront2.5ø]&#45;&gt;Turn left/right</title>
<path fill="none" stroke="green" stroke-width="0.257822" d="M1871.73,-202.303C1858.88,-198.045 1842.41,-193.102 1827.39,-190.149 1662.23,-157.683 1617.38,-175.253 1450.39,-154.149 1295.1,-134.524 1112.93,-103.702 1023.17,-87.9945"/>
<polygon fill="green" stroke="green" stroke-width="0.257822" points="1023.66,-84.528 1013.21,-86.2473 1022.46,-91.4227 1023.66,-84.528"/>
</g>
<!-- enemyRadar[Front7Ø] -->
<g id="node21" class="node"><title>enemyRadar[Front7Ø]</title>
<polygon fill="lightgray" stroke="black" points="1143.39,-220.362 1045.39,-220.362 1045.39,-202.362 1143.39,-202.362 1143.39,-220.362"/>
<text text-anchor="middle" x="1094.39" y="-209.162" font-family="Times,serif" font-size="9.00">enemyRadar[Front7Ø]</text>
</g>
<!-- enemyRadar[Front7Ø]&#45;&gt;Shoot -->
<g id="edge20" class="edge"><title>enemyRadar[Front7Ø]&#45;&gt;Shoot</title>
<path fill="none" stroke="red" stroke-width="0.340209" d="M1113.71,-202.355C1125.07,-198.001 1139.82,-192.948 1153.39,-190.149 1358.14,-147.933 1429.64,-235.089 1622.39,-154.149 1647.26,-143.708 1670,-123.259 1685.99,-106.189"/>
<polygon fill="red" stroke="red" stroke-width="0.340209" points="1688.71,-108.391 1692.84,-98.6327 1683.53,-103.687 1688.71,-108.391"/>
</g>
<!-- enemyRadar[Front7Ø]&#45;&gt;Move Forward/Backward -->
<g id="edge12" class="edge"><title>enemyRadar[Front7Ø]&#45;&gt;Move Forward/Backward</title>
<path fill="none" stroke="green" stroke-width="0.464336" d="M1117.01,-202.346C1127.96,-198.534 1141.32,-193.982 1153.39,-190.149 1255.82,-157.635 1374.74,-123.376 1452.55,-101.424"/>
<polygon fill="green" stroke="green" stroke-width="0.464336" points="1453.63,-104.756 1462.31,-98.6755 1451.73,-98.0183 1453.63,-104.756"/>
</g>
<!-- enemyRadar[Front7Ø]&#45;&gt; Move Left/Right -->
<g id="edge24" class="edge"><title>enemyRadar[Front7Ø]&#45;&gt; Move Left/Right</title>
<path fill="none" stroke="green" stroke-width="0.197261" d="M1073.08,-202.323C1062.19,-198.373 1048.68,-193.709 1036.39,-190.149 888.447,-147.303 711.327,-109.503 618.453,-90.6943"/>
<polygon fill="green" stroke="green" stroke-width="0.197261" points="618.864,-87.2068 608.369,-88.6599 617.48,-94.0685 618.864,-87.2068"/>
</g>
<!-- enemyRadar[Front7Ø]&#45;&gt;Turn left/right -->
<g id="edge26" class="edge"><title>enemyRadar[Front7Ø]&#45;&gt;Turn left/right</title>
<path fill="none" stroke="red" stroke-width="0.344313" d="M1086.45,-202.087C1070.73,-185.714 1034.73,-148.215 1006.4,-118.711"/>
<polygon fill="red" stroke="red" stroke-width="0.344313" points="1008.84,-116.19 999.385,-111.4 1003.79,-121.038 1008.84,-116.19"/>
</g>
<!-- OnTarget -->
<g id="node22" class="node"><title>OnTarget</title>
<polygon fill="lightgray" stroke="black" points="292.392,-220.362 242.392,-220.362 242.392,-202.362 292.392,-202.362 292.392,-220.362"/>
<text text-anchor="middle" x="267.392" y="-209.162" font-family="Times,serif" font-size="9.00">OnTarget</text>
</g>
<!-- OnTarget&#45;&gt; Move Left/Right -->
<g id="edge42" class="edge"><title>OnTarget&#45;&gt; Move Left/Right</title>
<path fill="none" stroke="green" stroke-width="0.367705" d="M280.103,-202.315C286.405,-198.452 294.192,-193.867 301.392,-190.149 365.686,-156.947 441.907,-124.017 493.762,-102.533"/>
<polygon fill="green" stroke="green" stroke-width="0.367705" points="495.245,-105.707 503.153,-98.6569 492.574,-99.2369 495.245,-105.707"/>
</g>
<!-- OnTarget&#45;&gt;Turn left/right -->
<g id="edge23" class="edge"><title>OnTarget&#45;&gt;Turn left/right</title>
<path fill="none" stroke="green" stroke-width="0.311512" d="M278.144,-202.359C284.561,-198.007 293.061,-192.954 301.392,-190.149 435.776,-144.91 478.496,-177.279 618.392,-154.149 723.212,-136.819 844.042,-108.613 912.507,-91.8496"/>
<polygon fill="green" stroke="green" stroke-width="0.311512" points="913.345,-95.2479 922.22,-89.462 911.674,-88.4503 913.345,-95.2479"/>
</g>
<!-- bias -->
<g id="node23" class="node"><title>bias</title>
<polygon fill="lightgray" stroke="black" points="2359.89,-286.576 2328.89,-286.576 2328.89,-268.576 2359.89,-268.576 2359.89,-286.576"/>
<text text-anchor="middle" x="2344.39" y="-275.376" font-family="Times,serif" font-size="9.00">bias</text>
</g>
<!-- bias&#45;&gt;Shoot -->
<g id="edge1" class="edge"><title>bias&#45;&gt;Shoot</title>
<path fill="none" stroke="red" stroke-width="0.44969" stroke-dasharray="1,5" d="M2360.31,-276.306C2423.53,-274.721 2650.3,-263.886 2585.39,-190.149 2528.95,-126.022 1906.79,-88.6053 1746.75,-79.997"/>
<polygon fill="red" stroke="red" stroke-width="0.44969" points="1746.64,-76.4859 1736.47,-79.4492 1746.27,-83.476 1746.64,-76.4859"/>
</g>
<!-- bias&#45;&gt;Move Forward/Backward -->
<g id="edge52" class="edge"><title>bias&#45;&gt;Move Forward/Backward</title>
<path fill="none" stroke="red" stroke-width="0.167458" d="M2328.66,-277.029C2288.58,-277.512 2180.42,-274.543 2104.39,-232.576 2081.97,-220.198 2088.35,-201.509 2065.39,-190.149 1908.58,-112.554 1840.57,-205.725 1673.39,-154.149 1651.43,-147.373 1629.03,-136.782 1608.89,-125.633"/>
<polygon fill="red" stroke="red" stroke-width="0.167458" points="1610.53,-122.54 1600.11,-120.657 1607.08,-128.631 1610.53,-122.54"/>
</g>
<!-- bias&#45;&gt; Move Left/Right -->
<g id="edge43" class="edge"><title>bias&#45;&gt; Move Left/Right</title>
<path fill="none" stroke="red" stroke-width="0.324363" d="M2328.67,-276.584C2127.83,-276.652 70.2744,-276.281 27.3916,-232.576 -110.929,-91.6036 319.638,-77.6113 489.021,-77.405"/>
<polygon fill="red" stroke="red" stroke-width="0.324363" points="489.066,-80.9049 499.067,-77.4087 489.068,-73.9049 489.066,-80.9049"/>
</g>
<!-- 112 -->
<g id="node28" class="node"><title>112</title>
<ellipse fill="white" stroke="black" cx="2653.39" cy="-211.362" rx="21.4286" ry="21.4286"/>
<text text-anchor="middle" x="2653.39" y="-209.162" font-family="Times,serif" font-size="9.00">112</text>
</g>
<!-- bias&#45;&gt;112 -->
<g id="edge56" class="edge"><title>bias&#45;&gt;112</title>
<path fill="none" stroke="green" stroke-width="0.138401" d="M2360.03,-276.041C2402.68,-274.168 2524.19,-266.054 2618.39,-232.576 2621.34,-231.529 2624.32,-230.233 2627.23,-228.809"/>
<polygon fill="green" stroke="green" stroke-width="0.138401" points="2629.06,-231.797 2636.19,-223.959 2625.73,-225.641 2629.06,-231.797"/>
</g>
<!-- 112&#45;&gt;Shoot -->
<g id="edge57" class="edge"><title>112&#45;&gt;Shoot</title>
<path fill="none" stroke="red" stroke-width="0.439584" d="M2636.24,-198.629C2630.75,-195.387 2624.51,-192.2 2618.39,-190.149 2293.88,-81.4569 1872.52,-76.309 1746.53,-77.4264"/>
<polygon fill="red" stroke="red" stroke-width="0.439584" points="1746.23,-73.9293 1736.27,-77.5377 1746.31,-80.9289 1746.23,-73.9293"/>
</g>
</g>
</svg>
