<?xml version="1.0" encoding="UTF-8" standalone="no"?>
<!DOCTYPE svg PUBLIC "-//W3C//DTD SVG 1.1//EN"
 "http://www.w3.org/Graphics/SVG/1.1/DTD/svg11.dtd">
<!-- Generated by graphviz version 2.38.0 (20140413.2041)
 -->
<!-- Title: %3 Pages: 1 -->
<svg width="2318pt" height="527pt"
 viewBox="0.00 0.00 2318.30 526.77" xmlns="http://www.w3.org/2000/svg" xmlns:xlink="http://www.w3.org/1999/xlink">
<g id="graph0" class="graph" transform="scale(1 1) rotate(0) translate(4 522.767)">
<title>%3</title>
<polygon fill="white" stroke="none" points="-4,4 -4,-522.767 2314.3,-522.767 2314.3,4 -4,4"/>
<!-- wallRadar[1,0] -->
<g id="node1" class="node"><title>wallRadar[1,0]</title>
<polygon fill="lightgray" stroke="black" points="579.302,-500.189 509.302,-500.189 509.302,-482.189 579.302,-482.189 579.302,-500.189"/>
<text text-anchor="middle" x="544.302" y="-488.989" font-family="Times,serif" font-size="9.00">wallRadar[1,0]</text>
</g>
<!-- Shoot -->
<g id="node24" class="node"><title>Shoot</title>
<ellipse fill="lightblue" stroke="black" cx="876.302" cy="-168.229" rx="26.7407" ry="26.7407"/>
<text text-anchor="middle" x="876.302" y="-166.029" font-family="Times,serif" font-size="9.00">Shoot</text>
</g>
<!-- wallRadar[1,0]&#45;&gt;Shoot -->
<g id="edge11" class="edge"><title>wallRadar[1,0]&#45;&gt;Shoot</title>
<path fill="none" stroke="green" stroke-width="0.29687" stroke-dasharray="1,5" d="M543.352,-482.15C540.218,-451.651 533.281,-341.772 587.302,-281.304 654.409,-206.189 777.877,-181.001 839.417,-172.888"/>
<polygon fill="green" stroke="green" stroke-width="0.29687" points="839.959,-176.347 849.452,-171.645 839.098,-169.4 839.959,-176.347"/>
</g>
<!-- Turn left/right -->
<g id="node27" class="node"><title>Turn left/right</title>
<ellipse fill="lightblue" stroke="black" cx="1850.3" cy="-168.229" rx="46.8387" ry="46.8387"/>
<text text-anchor="middle" x="1850.3" y="-166.029" font-family="Times,serif" font-size="9.00">Turn left/right</text>
</g>
<!-- wallRadar[1,0]&#45;&gt;Turn left/right -->
<g id="edge22" class="edge"><title>wallRadar[1,0]&#45;&gt;Turn left/right</title>
<path fill="none" stroke="red" stroke-width="0.305296" stroke-dasharray="1,5" d="M554.425,-481.987C562.908,-475.651 575.635,-467.352 588.302,-463.612 837.139,-390.14 1499.62,-471.689 1755.3,-427.612 1885.94,-405.092 1961.19,-443.565 2039.3,-336.458 2085.53,-273.066 1974.6,-216.532 1903.76,-188.281"/>
<polygon fill="red" stroke="red" stroke-width="0.305296" points="1904.64,-184.867 1894.05,-184.485 1902.09,-191.386 1904.64,-184.867"/>
</g>
<!-- 12836 -->
<g id="node29" class="node"><title>12836</title>
<ellipse fill="white" stroke="black" cx="465.302" cy="-400.035" rx="27.6545" ry="27.6545"/>
<text text-anchor="middle" x="465.302" y="-397.835" font-family="Times,serif" font-size="9.00">12836</text>
</g>
<!-- wallRadar[1,0]&#45;&gt;12836 -->
<g id="edge45" class="edge"><title>wallRadar[1,0]&#45;&gt;12836</title>
<path fill="none" stroke="red" stroke-width="0.151983" d="M537.012,-481.962C526.383,-469.967 506.128,-447.108 489.849,-428.736"/>
<polygon fill="red" stroke="red" stroke-width="0.151983" points="492.406,-426.345 483.155,-421.182 487.167,-430.988 492.406,-426.345"/>
</g>
<!-- 9195 -->
<g id="node31" class="node"><title>9195</title>
<ellipse fill="white" stroke="black" cx="386.302" cy="-308.881" rx="25" ry="25"/>
<text text-anchor="middle" x="386.302" y="-306.681" font-family="Times,serif" font-size="9.00">9195</text>
</g>
<!-- wallRadar[1,0]&#45;&gt;9195 -->
<g id="edge34" class="edge"><title>wallRadar[1,0]&#45;&gt;9195</title>
<path fill="none" stroke="red" stroke-width="0.368269" d="M517.66,-482.109C491.501,-472.891 452.15,-455.392 428.302,-427.612 407.804,-403.733 397.051,-369.128 391.581,-343.612"/>
<polygon fill="red" stroke="red" stroke-width="0.368269" points="394.982,-342.766 389.609,-333.634 388.115,-344.123 394.982,-342.766"/>
</g>
<!-- 12471 -->
<g id="node35" class="node"><title>12471</title>
<ellipse fill="white" stroke="black" cx="790.302" cy="-400.035" rx="27.6545" ry="27.6545"/>
<text text-anchor="middle" x="790.302" y="-397.835" font-family="Times,serif" font-size="9.00">12471</text>
</g>
<!-- wallRadar[1,0]&#45;&gt;12471 -->
<g id="edge40" class="edge"><title>wallRadar[1,0]&#45;&gt;12471</title>
<path fill="none" stroke="green" stroke-width="0.194282" d="M555.83,-482.159C564.468,-476.411 576.741,-468.801 588.302,-463.612 643.882,-438.665 712.28,-419.767 753.527,-409.558"/>
<polygon fill="green" stroke="green" stroke-width="0.194282" points="754.517,-412.919 763.404,-407.151 752.86,-406.118 754.517,-412.919"/>
</g>
<!-- wallRadar[0,1] -->
<g id="node2" class="node"><title>wallRadar[0,1]</title>
<polygon fill="lightgray" stroke="black" points="974.302,-317.881 904.302,-317.881 904.302,-299.881 974.302,-299.881 974.302,-317.881"/>
<text text-anchor="middle" x="939.302" y="-306.681" font-family="Times,serif" font-size="9.00">wallRadar[0,1]</text>
</g>
<!-- Move Forward/Backward -->
<g id="node25" class="node"><title>Move Forward/Backward</title>
<ellipse fill="lightblue" stroke="black" cx="479.302" cy="-168.229" rx="77.1494" ry="77.1494"/>
<text text-anchor="middle" x="479.302" y="-166.029" font-family="Times,serif" font-size="9.00">Move Forward/Backward</text>
</g>
<!-- wallRadar[0,1]&#45;&gt;Move Forward/Backward -->
<g id="edge17" class="edge"><title>wallRadar[0,1]&#45;&gt;Move Forward/Backward</title>
<path fill="none" stroke="green" stroke-width="0.743272" stroke-dasharray="1,5" d="M914.955,-299.812C898.669,-294.458 876.741,-287.334 857.302,-281.304 756.366,-249.988 639.687,-215.68 562.969,-193.379"/>
<polygon fill="green" stroke="green" stroke-width="0.743272" points="563.928,-190.013 553.349,-190.585 561.975,-196.736 563.928,-190.013"/>
</g>
<!--  Move Left/Right -->
<g id="node26" class="node"><title> Move Left/Right</title>
<ellipse fill="lightblue" stroke="black" cx="1542.3" cy="-168.229" rx="55.3091" ry="55.3091"/>
<text text-anchor="middle" x="1542.3" y="-166.029" font-family="Times,serif" font-size="9.00"> Move Left/Right</text>
</g>
<!-- wallRadar[0,1]&#45;&gt; Move Left/Right -->
<g id="edge33" class="edge"><title>wallRadar[0,1]&#45;&gt; Move Left/Right</title>
<path fill="none" stroke="green" stroke-width="0.124721" d="M950.113,-299.656C958.845,-293.485 971.711,-285.419 984.302,-281.304 1139.25,-230.662 1190.85,-283.559 1349.3,-245.304 1395.78,-234.083 1445.95,-214.043 1483.49,-197.348"/>
<polygon fill="green" stroke="green" stroke-width="0.124721" points="1485.07,-200.476 1492.75,-193.182 1482.2,-194.092 1485.07,-200.476"/>
</g>
<!-- wallRadar[&#45;1,0] -->
<g id="node3" class="node"><title>wallRadar[&#45;1,0]</title>
<polygon fill="lightgray" stroke="black" points="82.8025,-409.035 9.80248,-409.035 9.80248,-391.035 82.8025,-391.035 82.8025,-409.035"/>
<text text-anchor="middle" x="46.3025" y="-397.835" font-family="Times,serif" font-size="9.00">wallRadar[&#45;1,0]</text>
</g>
<!-- wallRadar[&#45;1,0]&#45;&gt;Move Forward/Backward -->
<g id="edge38" class="edge"><title>wallRadar[&#45;1,0]&#45;&gt;Move Forward/Backward</title>
<path fill="none" stroke="red" stroke-width="0.304425" stroke-dasharray="1,5" d="M39.2415,-390.984C22.1841,-370.534 -17.9155,-315.775 9.30248,-281.304 56.1354,-221.99 269.88,-190.65 392.374,-177.289"/>
<polygon fill="red" stroke="red" stroke-width="0.304425" points="392.914,-180.752 402.483,-176.205 392.167,-173.792 392.914,-180.752"/>
</g>
<!-- wallRadar[&#45;1,0]&#45;&gt; Move Left/Right -->
<g id="edge1" class="edge"><title>wallRadar[&#45;1,0]&#45;&gt; Move Left/Right</title>
<path fill="none" stroke="green" stroke-width="0.791663" d="M82.8862,-396.073C150.875,-390.661 301.335,-379.12 428.302,-372.458 484.76,-369.496 1396.82,-365.538 1445.3,-336.458 1456.23,-329.903 1488.33,-272.268 1512.64,-226.467"/>
<polygon fill="green" stroke="green" stroke-width="0.791663" points="1515.81,-227.96 1517.39,-217.484 1509.62,-224.689 1515.81,-227.96"/>
</g>
<!-- 13310 -->
<g id="node36" class="node"><title>13310</title>
<ellipse fill="white" stroke="black" cx="46.3025" cy="-308.881" rx="27.6545" ry="27.6545"/>
<text text-anchor="middle" x="46.3025" y="-306.681" font-family="Times,serif" font-size="9.00">13310</text>
</g>
<!-- wallRadar[&#45;1,0]&#45;&gt;13310 -->
<g id="edge50" class="edge"><title>wallRadar[&#45;1,0]&#45;&gt;13310</title>
<path fill="none" stroke="green" stroke-width="0.581615" d="M46.3025,-390.807C46.3025,-380.836 46.3025,-363.355 46.3025,-347.186"/>
<polygon fill="green" stroke="green" stroke-width="0.581615" points="49.8026,-346.842 46.3025,-336.842 42.8026,-346.842 49.8026,-346.842"/>
</g>
<!-- wallRadar[0,&#45;1] -->
<g id="node4" class="node"><title>wallRadar[0,&#45;1]</title>
<polygon fill="lightgray" stroke="black" points="1178.8,-317.881 1105.8,-317.881 1105.8,-299.881 1178.8,-299.881 1178.8,-317.881"/>
<text text-anchor="middle" x="1142.3" y="-306.681" font-family="Times,serif" font-size="9.00">wallRadar[0,&#45;1]</text>
</g>
<!-- wallRadar[0,&#45;1]&#45;&gt;Shoot -->
<g id="edge5" class="edge"><title>wallRadar[0,&#45;1]&#45;&gt;Shoot</title>
<path fill="none" stroke="green" stroke-width="0.240352" stroke-dasharray="1,5" d="M1129.04,-299.746C1120.15,-294.365 1108.12,-287.235 1097.3,-281.304 1031.72,-245.355 953.289,-206.545 909.708,-185.339"/>
<polygon fill="green" stroke="green" stroke-width="0.240352" points="910.963,-182.058 900.438,-180.838 907.905,-188.355 910.963,-182.058"/>
</g>
<!-- wallRadar[0,&#45;1]&#45;&gt;Move Forward/Backward -->
<g id="edge30" class="edge"><title>wallRadar[0,&#45;1]&#45;&gt;Move Forward/Backward</title>
<path fill="none" stroke="red" stroke-width="0.76612" stroke-dasharray="1,5" d="M1131.44,-299.798C1122.69,-293.705 1109.81,-285.675 1097.3,-281.304 988.427,-243.24 953.91,-265.207 840.302,-245.304 745.401,-228.677 637.384,-205.324 564.432,-188.89"/>
<polygon fill="red" stroke="red" stroke-width="0.76612" points="564.902,-185.407 554.376,-186.618 563.359,-192.235 564.902,-185.407"/>
</g>
<!-- wallRadar[0,&#45;1]&#45;&gt;Turn left/right -->
<g id="edge3" class="edge"><title>wallRadar[0,&#45;1]&#45;&gt;Turn left/right</title>
<path fill="none" stroke="red" stroke-width="0.315703" stroke-dasharray="1,5" d="M1153,-299.869C1161.94,-293.644 1175.28,-285.402 1188.3,-281.304 1366.17,-225.325 1423.34,-281.264 1606.3,-245.304 1673.65,-232.066 1748.7,-207.05 1797.55,-189.323"/>
<polygon fill="red" stroke="red" stroke-width="0.315703" points="1798.77,-192.603 1806.96,-185.88 1796.37,-186.029 1798.77,-192.603"/>
</g>
<!-- wallRadar[0.7,0.7] -->
<g id="node5" class="node"><title>wallRadar[0.7,0.7]</title>
<polygon fill="lightgray" stroke="black" points="2187.8,-317.881 2104.8,-317.881 2104.8,-299.881 2187.8,-299.881 2187.8,-317.881"/>
<text text-anchor="middle" x="2146.3" y="-306.681" font-family="Times,serif" font-size="9.00">wallRadar[0.7,0.7]</text>
</g>
<!-- wallRadar[0.7,0.7]&#45;&gt;Turn left/right -->
<g id="edge2" class="edge"><title>wallRadar[0.7,0.7]&#45;&gt;Turn left/right</title>
<path fill="none" stroke="red" stroke-width="0.246246" stroke-dasharray="1,5" d="M2129.16,-299.711C2118.08,-294.44 2103.35,-287.446 2090.3,-281.304 2025.36,-250.729 1950.38,-215.772 1901.76,-193.144"/>
<polygon fill="red" stroke="red" stroke-width="0.246246" points="1902.94,-189.833 1892.39,-188.788 1899.98,-196.18 1902.94,-189.833"/>
</g>
<!-- wallRadar[&#45;0.7,0.7] -->
<g id="node6" class="node"><title>wallRadar[&#45;0.7,0.7]</title>
<polygon fill="lightgray" stroke="black" points="1802.3,-317.881 1716.3,-317.881 1716.3,-299.881 1802.3,-299.881 1802.3,-317.881"/>
<text text-anchor="middle" x="1759.3" y="-306.681" font-family="Times,serif" font-size="9.00">wallRadar[&#45;0.7,0.7]</text>
</g>
<!-- wallRadar[&#45;0.7,0.7]&#45;&gt; Move Left/Right -->
<g id="edge19" class="edge"><title>wallRadar[&#45;0.7,0.7]&#45;&gt; Move Left/Right</title>
<path fill="none" stroke="green" stroke-width="1.19866" d="M1746.7,-299.827C1718.22,-281.633 1647.5,-236.445 1597.24,-204.332"/>
<polygon fill="green" stroke="green" stroke-width="1.19866" points="1599.05,-201.333 1588.74,-198.898 1595.28,-207.232 1599.05,-201.333"/>
</g>
<!-- wallRadar[&#45;0.7,&#45;0.7] -->
<g id="node7" class="node"><title>wallRadar[&#45;0.7,&#45;0.7]</title>
<polygon fill="lightgray" stroke="black" points="686.802,-500.189 597.802,-500.189 597.802,-482.189 686.802,-482.189 686.802,-500.189"/>
<text text-anchor="middle" x="642.302" y="-488.989" font-family="Times,serif" font-size="9.00">wallRadar[&#45;0.7,&#45;0.7]</text>
</g>
<!-- wallRadar[0.7,&#45;0.7] -->
<g id="node8" class="node"><title>wallRadar[0.7,&#45;0.7]</title>
<polygon fill="lightgray" stroke="black" points="658.302,-409.035 572.302,-409.035 572.302,-391.035 658.302,-391.035 658.302,-409.035"/>
<text text-anchor="middle" x="615.302" y="-397.835" font-family="Times,serif" font-size="9.00">wallRadar[0.7,&#45;0.7]</text>
</g>
<!-- wallRadar[0.7,&#45;0.7]&#45;&gt;Shoot -->
<g id="edge10" class="edge"><title>wallRadar[0.7,&#45;0.7]&#45;&gt;Shoot</title>
<path fill="none" stroke="green" stroke-width="0.439129" stroke-dasharray="1,5" d="M610.904,-390.749C600.675,-370.221 577.874,-316.151 601.302,-281.304 655.142,-201.222 777.259,-178.331 839.031,-171.811"/>
<polygon fill="green" stroke="green" stroke-width="0.439129" points="839.505,-175.281 849.122,-170.835 838.831,-168.314 839.505,-175.281"/>
</g>
<!-- wallRadar[0.7,&#45;0.7]&#45;&gt;Turn left/right -->
<g id="edge16" class="edge"><title>wallRadar[0.7,&#45;0.7]&#45;&gt;Turn left/right</title>
<path fill="none" stroke="green" stroke-width="0.257358" stroke-dasharray="1,5" d="M648.816,-391.003C676.619,-384.722 717.287,-376.412 753.302,-372.458 823.244,-364.78 1970.26,-386.913 2019.3,-336.458 2070.48,-283.807 1968.94,-223.583 1902.2,-191.732"/>
<polygon fill="green" stroke="green" stroke-width="0.257358" points="1903.58,-188.51 1893.04,-187.43 1900.6,-194.847 1903.58,-188.51"/>
</g>
<!-- 9444 -->
<g id="node28" class="node"><title>9444</title>
<ellipse fill="white" stroke="black" cx="453.302" cy="-308.881" rx="25" ry="25"/>
<text text-anchor="middle" x="453.302" y="-306.681" font-family="Times,serif" font-size="9.00">9444</text>
</g>
<!-- wallRadar[0.7,&#45;0.7]&#45;&gt;9444 -->
<g id="edge39" class="edge"><title>wallRadar[0.7,&#45;0.7]&#45;&gt;9444</title>
<path fill="none" stroke="green" stroke-width="1.10233" d="M597.818,-391.006C573.626,-379.703 528.797,-358.057 492.302,-336.458 488.832,-334.404 485.254,-332.157 481.739,-329.868"/>
<polygon fill="green" stroke="green" stroke-width="1.10233" points="483.484,-326.825 473.226,-324.175 479.593,-332.644 483.484,-326.825"/>
</g>
<!-- enemyRadar[RightBack] -->
<g id="node9" class="node"><title>enemyRadar[RightBack]</title>
<polygon fill="lightgray" stroke="black" points="2310.3,-317.881 2206.3,-317.881 2206.3,-299.881 2310.3,-299.881 2310.3,-317.881"/>
<text text-anchor="middle" x="2258.3" y="-306.681" font-family="Times,serif" font-size="9.00">enemyRadar[RightBack]</text>
</g>
<!-- enemyRadar[RightBack]&#45;&gt;Turn left/right -->
<g id="edge20" class="edge"><title>enemyRadar[RightBack]&#45;&gt;Turn left/right</title>
<path fill="none" stroke="green" stroke-width="1.14543" d="M2241.14,-299.861C2229.01,-294.332 2212.32,-286.985 2197.3,-281.304 2095.29,-242.715 1973.43,-205.308 1904.64,-184.968"/>
<polygon fill="green" stroke="green" stroke-width="1.14543" points="1905.46,-181.562 1894.88,-182.092 1903.48,-188.277 1905.46,-181.562"/>
</g>
<!-- enemyRadar[LeftBack] -->
<g id="node10" class="node"><title>enemyRadar[LeftBack]</title>
<polygon fill="lightgray" stroke="black" points="1295.8,-317.881 1196.8,-317.881 1196.8,-299.881 1295.8,-299.881 1295.8,-317.881"/>
<text text-anchor="middle" x="1246.3" y="-306.681" font-family="Times,serif" font-size="9.00">enemyRadar[LeftBack]</text>
</g>
<!-- enemyRadar[LeftBack]&#45;&gt;Move Forward/Backward -->
<g id="edge14" class="edge"><title>enemyRadar[LeftBack]&#45;&gt;Move Forward/Backward</title>
<path fill="none" stroke="green" stroke-width="0.403739" stroke-dasharray="1,5" d="M1232.02,-299.735C1220.57,-293.606 1203.9,-285.561 1188.3,-281.304 1038.29,-240.372 993.921,-269.368 840.302,-245.304 745.116,-230.393 637.15,-206.739 564.287,-189.765"/>
<polygon fill="green" stroke="green" stroke-width="0.403739" points="564.778,-186.285 554.244,-187.416 563.184,-193.101 564.778,-186.285"/>
</g>
<!-- enemyRadar[LeftBack]&#45;&gt; Move Left/Right -->
<g id="edge15" class="edge"><title>enemyRadar[LeftBack]&#45;&gt; Move Left/Right</title>
<path fill="none" stroke="green" stroke-width="0.177939" stroke-dasharray="1,5" d="M1263.5,-299.827C1305.45,-280.176 1414.63,-229.031 1483.26,-196.887"/>
<polygon fill="green" stroke="green" stroke-width="0.177939" points="1485.09,-199.894 1492.66,-192.483 1482.12,-193.555 1485.09,-199.894"/>
</g>
<!-- 13236 -->
<g id="node33" class="node"><title>13236</title>
<ellipse fill="white" stroke="black" cx="1312.3" cy="-168.229" rx="27.6545" ry="27.6545"/>
<text text-anchor="middle" x="1312.3" y="-166.029" font-family="Times,serif" font-size="9.00">13236</text>
</g>
<!-- enemyRadar[LeftBack]&#45;&gt;13236 -->
<g id="edge48" class="edge"><title>enemyRadar[LeftBack]&#45;&gt;13236</title>
<path fill="none" stroke="green" stroke-width="0.339691" d="M1250.23,-299.623C1259.12,-280.945 1281.19,-234.587 1296.46,-202.503"/>
<polygon fill="green" stroke="green" stroke-width="0.339691" points="1299.63,-203.993 1300.77,-193.46 1293.31,-200.984 1299.63,-203.993"/>
</g>
<!-- 11477 -->
<g id="node34" class="node"><title>11477</title>
<ellipse fill="white" stroke="black" cx="1341.3" cy="-27.5772" rx="27.6545" ry="27.6545"/>
<text text-anchor="middle" x="1341.3" y="-25.3772" font-family="Times,serif" font-size="9.00">11477</text>
</g>
<!-- enemyRadar[LeftBack]&#45;&gt;11477 -->
<g id="edge37" class="edge"><title>enemyRadar[LeftBack]&#45;&gt;11477</title>
<path fill="none" stroke="red" stroke-width="0.917248" stroke-dasharray="1,5" d="M1245.54,-299.843C1243.09,-270.192 1237.64,-164.842 1275.3,-91.1543 1283.57,-74.9702 1297.75,-60.6884 1310.85,-49.8703"/>
<polygon fill="red" stroke="red" stroke-width="0.917248" points="1313.12,-52.5372 1318.81,-43.5961 1308.79,-47.0411 1313.12,-52.5372"/>
</g>
<!-- enemyRadar[Right45ø] -->
<g id="node11" class="node"><title>enemyRadar[Right45ø]</title>
<polygon fill="lightgray" stroke="black" points="1592.3,-317.881 1492.3,-317.881 1492.3,-299.881 1592.3,-299.881 1592.3,-317.881"/>
<text text-anchor="middle" x="1542.3" y="-306.681" font-family="Times,serif" font-size="9.00">enemyRadar[Right45ø]</text>
</g>
<!-- enemyRadar[Right45ø]&#45;&gt;Shoot -->
<g id="edge7" class="edge"><title>enemyRadar[Right45ø]&#45;&gt;Shoot</title>
<path fill="none" stroke="green" stroke-width="0.139408" d="M1514.84,-299.782C1495.5,-294.217 1468.93,-286.859 1445.3,-281.304 1341.8,-256.964 1021.75,-196.495 912.946,-176.084"/>
<polygon fill="green" stroke="green" stroke-width="0.139408" points="913.268,-172.583 902.795,-174.181 911.979,-179.463 913.268,-172.583"/>
</g>
<!-- enemyRadar[Right45ø]&#45;&gt; Move Left/Right -->
<g id="edge26" class="edge"><title>enemyRadar[Right45ø]&#45;&gt; Move Left/Right</title>
<path fill="none" stroke="red" stroke-width="0.802176" d="M1542.3,-299.623C1542.3,-286.499 1542.3,-259.708 1542.3,-233.805"/>
<polygon fill="red" stroke="red" stroke-width="0.802176" points="1545.8,-233.571 1542.3,-223.571 1538.8,-233.571 1545.8,-233.571"/>
</g>
<!-- enemyRadar[Right45ø]&#45;&gt;Turn left/right -->
<g id="edge32" class="edge"><title>enemyRadar[Right45ø]&#45;&gt;Turn left/right</title>
<path fill="none" stroke="red" stroke-width="0.443775" stroke-dasharray="1,5" d="M1560.12,-299.855C1571.82,-294.581 1587.47,-287.531 1601.3,-281.304 1669.53,-250.584 1748.27,-215.144 1798.63,-192.48"/>
<polygon fill="red" stroke="red" stroke-width="0.443775" points="1800.32,-195.558 1808.01,-188.262 1797.45,-189.174 1800.32,-195.558"/>
</g>
<!-- enemyRadar[Left45ø] -->
<g id="node12" class="node"><title>enemyRadar[Left45ø]</title>
<polygon fill="lightgray" stroke="black" points="1087.8,-317.881 992.802,-317.881 992.802,-299.881 1087.8,-299.881 1087.8,-317.881"/>
<text text-anchor="middle" x="1040.3" y="-306.681" font-family="Times,serif" font-size="9.00">enemyRadar[Left45ø]</text>
</g>
<!-- enemyRadar[Left45ø]&#45;&gt;Shoot -->
<g id="edge13" class="edge"><title>enemyRadar[Left45ø]&#45;&gt;Shoot</title>
<path fill="none" stroke="green" stroke-width="0.897544" stroke-dasharray="1,5" d="M1030.53,-299.623C1006.17,-279.027 942,-224.772 904.554,-193.114"/>
<polygon fill="green" stroke="green" stroke-width="0.897544" points="906.442,-190.127 896.546,-186.343 901.923,-195.472 906.442,-190.127"/>
</g>
<!-- enemyRadar[Left45ø]&#45;&gt;Move Forward/Backward -->
<g id="edge18" class="edge"><title>enemyRadar[Left45ø]&#45;&gt;Move Forward/Backward</title>
<path fill="none" stroke="green" stroke-width="0.926519" stroke-dasharray="1,5" d="M1025.19,-299.731C1013.91,-293.923 997.983,-286.292 983.302,-281.304 944.038,-267.962 698.181,-215.346 564.926,-187.207"/>
<polygon fill="green" stroke="green" stroke-width="0.926519" points="565.254,-183.699 554.747,-185.059 563.808,-190.548 565.254,-183.699"/>
</g>
<!-- enemyRadar[Left45ø]&#45;&gt; Move Left/Right -->
<g id="edge28" class="edge"><title>enemyRadar[Left45ø]&#45;&gt; Move Left/Right</title>
<path fill="none" stroke="red" stroke-width="0.471768" stroke-dasharray="1,5" d="M1054.83,-299.645C1066.08,-293.635 1082.23,-285.786 1097.3,-281.304 1205.74,-249.05 1239.93,-274.245 1349.3,-245.304 1395.52,-233.073 1445.71,-213.071 1483.31,-196.645"/>
<polygon fill="red" stroke="red" stroke-width="0.471768" points="1484.85,-199.79 1492.59,-192.553 1482.03,-193.385 1484.85,-199.79"/>
</g>
<!-- enemyRadar[RightFront20ø] -->
<g id="node13" class="node"><title>enemyRadar[RightFront20ø]</title>
<polygon fill="lightgray" stroke="black" points="823.802,-500.189 704.802,-500.189 704.802,-482.189 823.802,-482.189 823.802,-500.189"/>
<text text-anchor="middle" x="764.302" y="-488.989" font-family="Times,serif" font-size="9.00">enemyRadar[RightFront20ø]</text>
</g>
<!-- enemyRadar[LeftFront20ø] -->
<g id="node14" class="node"><title>enemyRadar[LeftFront20ø]</title>
<polygon fill="lightgray" stroke="black" points="956.302,-500.189 842.302,-500.189 842.302,-482.189 956.302,-482.189 956.302,-500.189"/>
<text text-anchor="middle" x="899.302" y="-488.989" font-family="Times,serif" font-size="9.00">enemyRadar[LeftFront20ø]</text>
</g>
<!-- enemyRadar[RightFront15ø] -->
<g id="node15" class="node"><title>enemyRadar[RightFront15ø]</title>
<polygon fill="lightgray" stroke="black" points="210.802,-317.881 91.8025,-317.881 91.8025,-299.881 210.802,-299.881 210.802,-317.881"/>
<text text-anchor="middle" x="151.302" y="-306.681" font-family="Times,serif" font-size="9.00">enemyRadar[RightFront15ø]</text>
</g>
<!-- enemyRadar[RightFront15ø]&#45;&gt;Move Forward/Backward -->
<g id="edge21" class="edge"><title>enemyRadar[RightFront15ø]&#45;&gt;Move Forward/Backward</title>
<path fill="none" stroke="red" stroke-width="0.35642" stroke-dasharray="1,5" d="M170.355,-299.827C213.886,-281.426 322.744,-235.409 398.85,-203.238"/>
<polygon fill="red" stroke="red" stroke-width="0.35642" points="400.58,-206.306 408.428,-199.189 397.854,-199.859 400.58,-206.306"/>
</g>
<!-- enemyRadar[LeftFront15ø] -->
<g id="node16" class="node"><title>enemyRadar[LeftFront15ø]</title>
<polygon fill="lightgray" stroke="black" points="343.302,-317.881 229.302,-317.881 229.302,-299.881 343.302,-299.881 343.302,-317.881"/>
<text text-anchor="middle" x="286.302" y="-306.681" font-family="Times,serif" font-size="9.00">enemyRadar[LeftFront15ø]</text>
</g>
<!-- enemyRadar[LeftFront15ø]&#45;&gt;Move Forward/Backward -->
<g id="edge23" class="edge"><title>enemyRadar[LeftFront15ø]&#45;&gt;Move Forward/Backward</title>
<path fill="none" stroke="green" stroke-width="0.199667" d="M297.513,-299.827C318.933,-284.439 367.235,-249.738 408.668,-219.973"/>
<polygon fill="green" stroke="green" stroke-width="0.199667" points="410.774,-222.77 416.853,-214.093 406.69,-217.085 410.774,-222.77"/>
</g>
<!-- enemyRadar[RightFront7.5ø] -->
<g id="node17" class="node"><title>enemyRadar[RightFront7.5ø]</title>
<polygon fill="lightgray" stroke="black" points="1436.3,-317.881 1314.3,-317.881 1314.3,-299.881 1436.3,-299.881 1436.3,-317.881"/>
<text text-anchor="middle" x="1375.3" y="-306.681" font-family="Times,serif" font-size="9.00">enemyRadar[RightFront7.5ø]</text>
</g>
<!-- enemyRadar[RightFront7.5ø]&#45;&gt;Shoot -->
<g id="edge4" class="edge"><title>enemyRadar[RightFront7.5ø]&#45;&gt;Shoot</title>
<path fill="none" stroke="green" stroke-width="0.708756" stroke-dasharray="1,5" d="M1355.89,-299.867C1341.95,-294.271 1322.64,-286.841 1305.3,-281.304 1161.73,-235.441 986.834,-194.175 912.506,-177.3"/>
<polygon fill="green" stroke="green" stroke-width="0.708756" points="913.225,-173.875 902.699,-175.083 911.681,-180.702 913.225,-173.875"/>
</g>
<!-- enemyRadar[RightFront7.5ø]&#45;&gt; Move Left/Right -->
<g id="edge8" class="edge"><title>enemyRadar[RightFront7.5ø]&#45;&gt; Move Left/Right</title>
<path fill="none" stroke="red" stroke-width="0.452901" d="M1385.25,-299.623C1405.9,-282.478 1454.64,-242.01 1492.39,-210.668"/>
<polygon fill="red" stroke="red" stroke-width="0.452901" points="1494.81,-213.211 1500.27,-204.13 1490.34,-207.825 1494.81,-213.211"/>
</g>
<!-- enemyRadar[RightFront7.5ø]&#45;&gt;11477 -->
<g id="edge47" class="edge"><title>enemyRadar[RightFront7.5ø]&#45;&gt;11477</title>
<path fill="none" stroke="red" stroke-width="0.372451" d="M1374.33,-299.61C1370.96,-270.831 1359.37,-172.388 1349.3,-91.1543 1348.26,-82.7314 1347.11,-73.6739 1346.02,-65.1377"/>
<polygon fill="red" stroke="red" stroke-width="0.372451" points="1349.48,-64.5361 1344.73,-55.0617 1342.53,-65.4253 1349.48,-64.5361"/>
</g>
<!-- enemyRadar[LeftFront7.5ø] -->
<g id="node18" class="node"><title>enemyRadar[LeftFront7.5ø]</title>
<polygon fill="lightgray" stroke="black" points="1936.3,-317.881 1820.3,-317.881 1820.3,-299.881 1936.3,-299.881 1936.3,-317.881"/>
<text text-anchor="middle" x="1878.3" y="-306.681" font-family="Times,serif" font-size="9.00">enemyRadar[LeftFront7.5ø]</text>
</g>
<!-- enemyRadar[LeftFront7.5ø]&#45;&gt; Move Left/Right -->
<g id="edge12" class="edge"><title>enemyRadar[LeftFront7.5ø]&#45;&gt; Move Left/Right</title>
<path fill="none" stroke="red" stroke-width="1.09214" stroke-dasharray="1,5" d="M1858.79,-299.827C1809.76,-279.597 1679.85,-225.989 1602.56,-194.095"/>
<polygon fill="red" stroke="red" stroke-width="1.09214" points="1603.52,-190.706 1592.94,-190.127 1600.85,-197.177 1603.52,-190.706"/>
</g>
<!-- enemyRadar[RightFront2.5ø] -->
<g id="node19" class="node"><title>enemyRadar[RightFront2.5ø]</title>
<polygon fill="lightgray" stroke="black" points="848.302,-317.881 726.302,-317.881 726.302,-299.881 848.302,-299.881 848.302,-317.881"/>
<text text-anchor="middle" x="787.302" y="-306.681" font-family="Times,serif" font-size="9.00">enemyRadar[RightFront2.5ø]</text>
</g>
<!-- enemyRadar[RightFront2.5ø]&#45;&gt;Shoot -->
<g id="edge31" class="edge"><title>enemyRadar[RightFront2.5ø]&#45;&gt;Shoot</title>
<path fill="none" stroke="red" stroke-width="0.397062" d="M792.603,-299.623C804.917,-280.439 835.976,-232.053 856.598,-199.926"/>
<polygon fill="red" stroke="red" stroke-width="0.397062" points="859.658,-201.639 862.114,-191.333 853.767,-197.858 859.658,-201.639"/>
</g>
<!-- enemyRadar[LeftFront2.5ø] -->
<g id="node20" class="node"><title>enemyRadar[LeftFront2.5ø]</title>
<polygon fill="lightgray" stroke="black" points="1746.3,-409.035 1630.3,-409.035 1630.3,-391.035 1746.3,-391.035 1746.3,-409.035"/>
<text text-anchor="middle" x="1688.3" y="-397.835" font-family="Times,serif" font-size="9.00">enemyRadar[LeftFront2.5ø]</text>
</g>
<!-- enemyRadar[LeftFront2.5ø]&#45;&gt;Move Forward/Backward -->
<g id="edge25" class="edge"><title>enemyRadar[LeftFront2.5ø]&#45;&gt;Move Forward/Backward</title>
<path fill="none" stroke="red" stroke-width="1.03237" stroke-dasharray="1,5" d="M1630.27,-398.574C1418.07,-396.497 691.864,-385.816 601.302,-336.458 564.949,-316.645 536.608,-280.797 516.43,-247.36"/>
<polygon fill="red" stroke="red" stroke-width="1.03237" points="519.293,-245.323 511.216,-238.466 513.255,-248.863 519.293,-245.323"/>
</g>
<!-- enemyRadar[LeftFront2.5ø]&#45;&gt; Move Left/Right -->
<g id="edge9" class="edge"><title>enemyRadar[LeftFront2.5ø]&#45;&gt; Move Left/Right</title>
<path fill="none" stroke="red" stroke-width="0.407349" stroke-dasharray="1,5" d="M1688.79,-391.014C1689.65,-371.09 1689.7,-318.29 1669.3,-281.304 1652.26,-250.399 1623.29,-223.839 1597.31,-204.343"/>
<polygon fill="red" stroke="red" stroke-width="0.407349" points="1599.14,-201.344 1589.01,-198.265 1595.01,-206.994 1599.14,-201.344"/>
</g>
<!-- 12620 -->
<g id="node32" class="node"><title>12620</title>
<ellipse fill="white" stroke="black" cx="1982.3" cy="-308.881" rx="27.6545" ry="27.6545"/>
<text text-anchor="middle" x="1982.3" y="-306.681" font-family="Times,serif" font-size="9.00">12620</text>
</g>
<!-- enemyRadar[LeftFront2.5ø]&#45;&gt;12620 -->
<g id="edge43" class="edge"><title>enemyRadar[LeftFront2.5ø]&#45;&gt;12620</title>
<path fill="none" stroke="red" stroke-width="0.381421" stroke-dasharray="1,5" d="M1746.55,-391.382C1800.06,-382.856 1880.63,-366.187 1945.3,-336.458 1947.78,-335.32 1950.26,-334.008 1952.69,-332.588"/>
<polygon fill="red" stroke="red" stroke-width="0.381421" points="1954.72,-335.444 1961.25,-327.098 1950.94,-329.552 1954.72,-335.444"/>
</g>
<!-- enemyRadar[Front7Ø] -->
<g id="node21" class="node"><title>enemyRadar[Front7Ø]</title>
<polygon fill="lightgray" stroke="black" points="708.302,-317.881 610.302,-317.881 610.302,-299.881 708.302,-299.881 708.302,-317.881"/>
<text text-anchor="middle" x="659.302" y="-306.681" font-family="Times,serif" font-size="9.00">enemyRadar[Front7Ø]</text>
</g>
<!-- enemyRadar[Front7Ø]&#45;&gt;Shoot -->
<g id="edge29" class="edge"><title>enemyRadar[Front7Ø]&#45;&gt;Shoot</title>
<path fill="none" stroke="red" stroke-width="0.574592" d="M671.907,-299.827C705.373,-278.444 797.2,-219.771 845.57,-188.866"/>
<polygon fill="red" stroke="red" stroke-width="0.574592" points="847.53,-191.767 854.072,-183.433 843.761,-185.868 847.53,-191.767"/>
</g>
<!-- OnTarget -->
<g id="node22" class="node"><title>OnTarget</title>
<polygon fill="lightgray" stroke="black" points="1660.3,-317.881 1610.3,-317.881 1610.3,-299.881 1660.3,-299.881 1660.3,-317.881"/>
<text text-anchor="middle" x="1635.3" y="-306.681" font-family="Times,serif" font-size="9.00">OnTarget</text>
</g>
<!-- OnTarget&#45;&gt;Shoot -->
<g id="edge24" class="edge"><title>OnTarget&#45;&gt;Shoot</title>
<path fill="none" stroke="green" stroke-width="2.31874" d="M1627.48,-299.662C1621.07,-293.493 1611.43,-285.429 1601.3,-281.304 1466.3,-226.325 1419.45,-266.971 1275.3,-245.304 1140.98,-225.114 982.914,-192.24 912.871,-177.198"/>
<polygon fill="green" stroke="green" stroke-width="2.31874" points="913.308,-173.712 902.795,-175.027 911.833,-180.555 913.308,-173.712"/>
</g>
<!-- OnTarget&#45;&gt; Move Left/Right -->
<g id="edge27" class="edge"><title>OnTarget&#45;&gt; Move Left/Right</title>
<path fill="none" stroke="red" stroke-width="0.386784" d="M1629.76,-299.623C1619.73,-284.659 1597.77,-251.93 1578.37,-223.008"/>
<polygon fill="red" stroke="red" stroke-width="0.386784" points="1581.2,-220.93 1572.72,-214.575 1575.38,-224.829 1581.2,-220.93"/>
</g>
<!-- OnTarget&#45;&gt;Turn left/right -->
<g id="edge6" class="edge"><title>OnTarget&#45;&gt;Turn left/right</title>
<path fill="none" stroke="red" stroke-width="4.2615" d="M1647.79,-299.827C1677.36,-280.759 1752.91,-232.04 1802.9,-199.799"/>
<polygon fill="red" stroke="red" stroke-width="4.2615" points="1804.92,-202.931 1811.31,-194.377 1800.88,-196.663 1804.92,-202.931"/>
</g>
<!-- bias -->
<g id="node23" class="node"><title>bias</title>
<polygon fill="lightgray" stroke="black" points="1005.8,-500.189 974.802,-500.189 974.802,-482.189 1005.8,-482.189 1005.8,-500.189"/>
<text text-anchor="middle" x="990.302" y="-488.989" font-family="Times,serif" font-size="9.00">bias</text>
</g>
<!-- Turn left/right&#45;&gt;11477 -->
<g id="edge42" class="edge"><title>Turn left/right&#45;&gt;11477</title>
<path fill="none" stroke="green" stroke-width="0.127693" stroke-dasharray="1,5" d="M1806.05,-152.403C1757.38,-136.336 1676.71,-110.417 1606.3,-91.1543 1525.47,-69.0378 1429.5,-47.5424 1378.13,-36.4146"/>
<polygon fill="green" stroke="green" stroke-width="0.127693" points="1378.68,-32.9529 1368.17,-34.2656 1377.2,-39.7955 1378.68,-32.9529"/>
</g>
<!-- 9444&#45;&gt;Move Forward/Backward -->
<g id="edge36" class="edge"><title>9444&#45;&gt;Move Forward/Backward</title>
<path fill="none" stroke="red" stroke-width="0.274321" d="M457.713,-284.36C459.36,-275.576 461.341,-265.016 463.425,-253.902"/>
<polygon fill="red" stroke="red" stroke-width="0.274321" points="466.874,-254.496 465.277,-244.022 459.994,-253.206 466.874,-254.496"/>
</g>
<!-- 12836&#45;&gt;9195 -->
<g id="edge46" class="edge"><title>12836&#45;&gt;9195</title>
<path fill="none" stroke="red" stroke-width="0.310412" stroke-dasharray="1,5" d="M447.376,-378.805C436.036,-366.006 421.273,-349.346 409.103,-335.611"/>
<polygon fill="red" stroke="red" stroke-width="0.310412" points="411.533,-333.077 402.282,-327.914 406.294,-337.72 411.533,-333.077"/>
</g>
<!-- 10058 -->
<g id="node30" class="node"><title>10058</title>
<ellipse fill="white" stroke="black" cx="1051.3" cy="-491.189" rx="27.6545" ry="27.6545"/>
<text text-anchor="middle" x="1051.3" y="-488.989" font-family="Times,serif" font-size="9.00">10058</text>
</g>
<!-- 9195&#45;&gt;Shoot -->
<g id="edge35" class="edge"><title>9195&#45;&gt;Shoot</title>
<path fill="none" stroke="red" stroke-width="0.154459" d="M404.169,-291.167C408.826,-287.486 414.027,-283.912 419.302,-281.304 420.515,-280.704 732.872,-204.3 840.419,-178.002"/>
<polygon fill="red" stroke="red" stroke-width="0.154459" points="841.288,-181.393 850.17,-175.618 839.625,-174.593 841.288,-181.393"/>
</g>
<!-- 12620&#45;&gt; Move Left/Right -->
<g id="edge44" class="edge"><title>12620&#45;&gt; Move Left/Right</title>
<path fill="none" stroke="red" stroke-width="0.170876" d="M1961.26,-290.644C1956.25,-287.158 1950.77,-283.801 1945.3,-281.304 1882.55,-252.639 1860.91,-263.281 1794.3,-245.304 1729.15,-227.721 1655.32,-205.112 1604.5,-189.125"/>
<polygon fill="red" stroke="red" stroke-width="0.170876" points="1605.24,-185.689 1594.65,-186.02 1603.14,-192.365 1605.24,-185.689"/>
</g>
<!-- 13236&#45;&gt;11477 -->
<g id="edge49" class="edge"><title>13236&#45;&gt;11477</title>
<path fill="none" stroke="red" stroke-width="1.14179" d="M1317.76,-141.15C1322.27,-119.597 1328.72,-88.7587 1333.72,-64.8072"/>
<polygon fill="red" stroke="red" stroke-width="1.14179" points="1337.15,-65.5157 1335.77,-55.011 1330.3,-64.0826 1337.15,-65.5157"/>
</g>
<!-- 12471&#45;&gt;Shoot -->
<g id="edge41" class="edge"><title>12471&#45;&gt;Shoot</title>
<path fill="none" stroke="red" stroke-width="0.461411" stroke-dasharray="1,5" d="M813.262,-384.153C828.458,-372.97 847.356,-356.219 857.302,-336.458 878.137,-295.065 880.45,-240.778 879.193,-205.459"/>
<polygon fill="red" stroke="red" stroke-width="0.461411" points="882.673,-204.965 878.705,-195.142 875.681,-205.296 882.673,-204.965"/>
</g>
<!-- 13310&#45;&gt;Move Forward/Backward -->
<g id="edge51" class="edge"><title>13310&#45;&gt;Move Forward/Backward</title>
<path fill="none" stroke="red" stroke-width="0.272747" d="M67.1894,-290.517C71.9539,-287.121 77.1399,-283.833 82.3025,-281.304 183.657,-231.649 310.673,-200.657 393.346,-184.167"/>
<polygon fill="red" stroke="red" stroke-width="0.272747" points="394.067,-187.593 403.203,-182.228 392.715,-180.724 394.067,-187.593"/>
</g>
</g>
</svg>
