<?xml version="1.0" encoding="UTF-8" standalone="no"?>
<!DOCTYPE svg PUBLIC "-//W3C//DTD SVG 1.1//EN"
 "http://www.w3.org/Graphics/SVG/1.1/DTD/svg11.dtd">
<!-- Generated by graphviz version 2.38.0 (20140413.2041)
 -->
<!-- Title: %3 Pages: 1 -->
<svg width="2495pt" height="295pt"
 viewBox="0.00 0.00 2495.35 294.58" xmlns="http://www.w3.org/2000/svg" xmlns:xlink="http://www.w3.org/1999/xlink">
<g id="graph0" class="graph" transform="scale(1 1) rotate(0) translate(4 290.576)">
<title>%3</title>
<polygon fill="white" stroke="none" points="-4,4 -4,-290.576 2491.35,-290.576 2491.35,4 -4,4"/>
<!-- wallRadar[1,0] -->
<g id="node1" class="node"><title>wallRadar[1,0]</title>
<polygon fill="lightgray" stroke="black" points="1025.5,-220.362 955.5,-220.362 955.5,-202.362 1025.5,-202.362 1025.5,-220.362"/>
<text text-anchor="middle" x="990.5" y="-209.162" font-family="Times,serif" font-size="9.00">wallRadar[1,0]</text>
</g>
<!-- Move Forward/Backward -->
<g id="node25" class="node"><title>Move Forward/Backward</title>
<ellipse fill="lightblue" stroke="black" cx="1876.5" cy="-77.0746" rx="77.1494" ry="77.1494"/>
<text text-anchor="middle" x="1876.5" y="-74.8746" font-family="Times,serif" font-size="9.00">Move Forward/Backward</text>
</g>
<!-- wallRadar[1,0]&#45;&gt;Move Forward/Backward -->
<g id="edge19" class="edge"><title>wallRadar[1,0]&#45;&gt;Move Forward/Backward</title>
<path fill="none" stroke="red" stroke-width="0.30161" d="M1004.71,-202.357C1013.11,-198.004 1024.11,-192.951 1034.5,-190.149 1195.3,-146.782 1242.33,-175.494 1407.5,-154.149 1541.88,-136.784 1696.91,-110.382 1790.76,-93.69"/>
<polygon fill="red" stroke="red" stroke-width="0.30161" points="1791.54,-97.1061 1800.77,-91.905 1790.31,-90.2148 1791.54,-97.1061"/>
</g>
<!--  Move Left/Right -->
<g id="node26" class="node"><title> Move Left/Right</title>
<ellipse fill="lightblue" stroke="black" cx="1214.5" cy="-77.0746" rx="55.3091" ry="55.3091"/>
<text text-anchor="middle" x="1214.5" y="-74.8746" font-family="Times,serif" font-size="9.00"> Move Left/Right</text>
</g>
<!-- wallRadar[1,0]&#45;&gt; Move Left/Right -->
<g id="edge6" class="edge"><title>wallRadar[1,0]&#45;&gt; Move Left/Right</title>
<path fill="none" stroke="green" stroke-width="0.249729" d="M1004.18,-202.286C1034.17,-184.575 1107.15,-141.472 1158.7,-111.03"/>
<polygon fill="green" stroke="green" stroke-width="0.249729" points="1160.59,-113.98 1167.42,-105.881 1157.03,-107.952 1160.59,-113.98"/>
</g>
<!-- Turn left/right -->
<g id="node27" class="node"><title>Turn left/right</title>
<ellipse fill="lightblue" stroke="black" cx="579.5" cy="-77.0746" rx="46.8387" ry="46.8387"/>
<text text-anchor="middle" x="579.5" y="-74.8746" font-family="Times,serif" font-size="9.00">Turn left/right</text>
</g>
<!-- wallRadar[1,0]&#45;&gt;Turn left/right -->
<g id="edge15" class="edge"><title>wallRadar[1,0]&#45;&gt;Turn left/right</title>
<path fill="none" stroke="green" stroke-width="0.378841" d="M974.423,-202.346C966.186,-198.402 955.928,-193.736 946.5,-190.149 837.819,-148.805 706.736,-111.74 634.318,-92.3378"/>
<polygon fill="green" stroke="green" stroke-width="0.378841" points="635.061,-88.9138 624.497,-89.7186 633.257,-95.6774 635.061,-88.9138"/>
</g>
<!-- wallRadar[0,1] -->
<g id="node2" class="node"><title>wallRadar[0,1]</title>
<polygon fill="lightgray" stroke="black" points="337.5,-220.362 267.5,-220.362 267.5,-202.362 337.5,-202.362 337.5,-220.362"/>
<text text-anchor="middle" x="302.5" y="-209.162" font-family="Times,serif" font-size="9.00">wallRadar[0,1]</text>
</g>
<!-- wallRadar[0,1]&#45;&gt; Move Left/Right -->
<g id="edge23" class="edge"><title>wallRadar[0,1]&#45;&gt; Move Left/Right</title>
<path fill="none" stroke="green" stroke-width="0.501252" d="M317.134,-202.262C325.494,-197.991 336.313,-193.049 346.5,-190.149 470.993,-154.717 507.11,-170.58 635.5,-154.149 822.307,-130.242 1042.87,-100.975 1149.84,-86.7142"/>
<polygon fill="green" stroke="green" stroke-width="0.501252" points="1150.38,-90.1728 1159.83,-85.3816 1149.46,-83.2343 1150.38,-90.1728"/>
</g>
<!-- wallRadar[0,1]&#45;&gt;Turn left/right -->
<g id="edge26" class="edge"><title>wallRadar[0,1]&#45;&gt;Turn left/right</title>
<path fill="none" stroke="green" stroke-width="0.143035" d="M319.411,-202.286C360.163,-182.824 465.109,-132.705 528.54,-102.412"/>
<polygon fill="green" stroke="green" stroke-width="0.143035" points="530.069,-105.56 537.585,-98.0922 527.053,-99.2435 530.069,-105.56"/>
</g>
<!-- wallRadar[&#45;1,0] -->
<g id="node3" class="node"><title>wallRadar[&#45;1,0]</title>
<polygon fill="lightgray" stroke="black" points="2143,-220.362 2070,-220.362 2070,-202.362 2143,-202.362 2143,-220.362"/>
<text text-anchor="middle" x="2106.5" y="-209.162" font-family="Times,serif" font-size="9.00">wallRadar[&#45;1,0]</text>
</g>
<!-- wallRadar[&#45;1,0]&#45;&gt;Move Forward/Backward -->
<g id="edge38" class="edge"><title>wallRadar[&#45;1,0]&#45;&gt;Move Forward/Backward</title>
<path fill="none" stroke="green" stroke-width="0.249786" d="M2092.46,-202.286C2064.98,-186.484 2002.37,-150.469 1951.6,-121.267"/>
<polygon fill="green" stroke="green" stroke-width="0.249786" points="1953.33,-118.224 1942.91,-116.273 1949.84,-124.292 1953.33,-118.224"/>
</g>
<!-- wallRadar[&#45;1,0]&#45;&gt; Move Left/Right -->
<g id="edge3" class="edge"><title>wallRadar[&#45;1,0]&#45;&gt; Move Left/Right</title>
<path fill="none" stroke="green" stroke-width="0.149358" d="M2091.99,-202.177C2083.41,-197.764 2072.16,-192.711 2061.5,-190.149 1904.44,-152.403 1489.56,-202.719 1335.5,-154.149 1310.75,-146.346 1286.02,-132.22 1265.44,-118.241"/>
<polygon fill="green" stroke="green" stroke-width="0.149358" points="1267.38,-115.33 1257.17,-112.489 1263.38,-121.075 1267.38,-115.33"/>
</g>
<!-- wallRadar[0,&#45;1] -->
<g id="node4" class="node"><title>wallRadar[0,&#45;1]</title>
<polygon fill="lightgray" stroke="black" points="249,-220.362 176,-220.362 176,-202.362 249,-202.362 249,-220.362"/>
<text text-anchor="middle" x="212.5" y="-209.162" font-family="Times,serif" font-size="9.00">wallRadar[0,&#45;1]</text>
</g>
<!-- wallRadar[0,&#45;1]&#45;&gt;Turn left/right -->
<g id="edge33" class="edge"><title>wallRadar[0,&#45;1]&#45;&gt;Turn left/right</title>
<path fill="none" stroke="green" stroke-width="0.183854" d="M229.84,-202.36C238.4,-198.508 248.922,-193.919 258.5,-190.149 351.365,-153.599 461.579,-116.443 525.721,-95.4234"/>
<polygon fill="green" stroke="green" stroke-width="0.183854" points="526.809,-98.7501 535.226,-92.3162 524.634,-92.0966 526.809,-98.7501"/>
</g>
<!-- wallRadar[0.7,0.7] -->
<g id="node5" class="node"><title>wallRadar[0.7,0.7]</title>
<polygon fill="lightgray" stroke="black" points="1127,-220.362 1044,-220.362 1044,-202.362 1127,-202.362 1127,-220.362"/>
<text text-anchor="middle" x="1085.5" y="-209.162" font-family="Times,serif" font-size="9.00">wallRadar[0.7,0.7]</text>
</g>
<!-- wallRadar[0.7,0.7]&#45;&gt;Move Forward/Backward -->
<g id="edge20" class="edge"><title>wallRadar[0.7,0.7]&#45;&gt;Move Forward/Backward</title>
<path fill="none" stroke="green" stroke-width="0.660998" d="M1102.61,-202.358C1112.35,-198.117 1124.89,-193.173 1136.5,-190.149 1254.08,-159.535 1287.3,-171.878 1407.5,-154.149 1541.55,-134.378 1696.67,-108.658 1790.63,-92.7632"/>
<polygon fill="green" stroke="green" stroke-width="0.660998" points="1791.38,-96.1864 1800.65,-91.0656 1790.21,-89.2847 1791.38,-96.1864"/>
</g>
<!-- wallRadar[0.7,0.7]&#45;&gt;Turn left/right -->
<g id="edge8" class="edge"><title>wallRadar[0.7,0.7]&#45;&gt;Turn left/right</title>
<path fill="none" stroke="green" stroke-width="0.121067" stroke-dasharray="1,5" d="M1066.83,-202.256C1057.27,-198.288 1045.39,-193.63 1034.5,-190.149 892.876,-144.872 721.563,-107.121 635.135,-89.2271"/>
<polygon fill="green" stroke="green" stroke-width="0.121067" points="635.776,-85.7857 625.276,-87.1957 634.364,-92.6417 635.776,-85.7857"/>
</g>
<!-- wallRadar[&#45;0.7,0.7] -->
<g id="node6" class="node"><title>wallRadar[&#45;0.7,0.7]</title>
<polygon fill="lightgray" stroke="black" points="683.5,-220.362 597.5,-220.362 597.5,-202.362 683.5,-202.362 683.5,-220.362"/>
<text text-anchor="middle" x="640.5" y="-209.162" font-family="Times,serif" font-size="9.00">wallRadar[&#45;0.7,0.7]</text>
</g>
<!-- Shoot -->
<g id="node24" class="node"><title>Shoot</title>
<ellipse fill="lightblue" stroke="black" cx="1371.5" cy="-77.0746" rx="26.7407" ry="26.7407"/>
<text text-anchor="middle" x="1371.5" y="-74.8746" font-family="Times,serif" font-size="9.00">Shoot</text>
</g>
<!-- wallRadar[&#45;0.7,0.7]&#45;&gt;Shoot -->
<g id="edge34" class="edge"><title>wallRadar[&#45;0.7,0.7]&#45;&gt;Shoot</title>
<path fill="none" stroke="green" stroke-width="0.106956" d="M657.418,-202.249C667.39,-197.86 680.39,-192.807 692.5,-190.149 819.935,-162.181 1157.03,-201.753 1278.5,-154.149 1304.94,-143.787 1329.56,-122.93 1346.82,-105.671"/>
<polygon fill="green" stroke="green" stroke-width="0.106956" points="1349.77,-107.662 1354.21,-98.0453 1344.74,-102.79 1349.77,-107.662"/>
</g>
<!-- wallRadar[&#45;0.7,0.7]&#45;&gt; Move Left/Right -->
<g id="edge45" class="edge"><title>wallRadar[&#45;0.7,0.7]&#45;&gt; Move Left/Right</title>
<path fill="none" stroke="red" stroke-width="0.847455" d="M659.023,-202.334C668.84,-198.291 681.18,-193.541 692.5,-190.149 854.527,-141.601 1050.8,-105.319 1150.16,-88.4832"/>
<polygon fill="red" stroke="red" stroke-width="0.847455" points="1150.77,-91.9299 1160.05,-86.8177 1149.61,-85.0271 1150.77,-91.9299"/>
</g>
<!-- wallRadar[&#45;0.7,0.7]&#45;&gt;Turn left/right -->
<g id="edge27" class="edge"><title>wallRadar[&#45;0.7,0.7]&#45;&gt;Turn left/right</title>
<path fill="none" stroke="green" stroke-width="0.424162" d="M636.684,-202.087C629.982,-187.553 615.604,-156.373 602.943,-128.915"/>
<polygon fill="green" stroke="green" stroke-width="0.424162" points="606.095,-127.391 598.729,-119.775 599.738,-130.322 606.095,-127.391"/>
</g>
<!-- wallRadar[&#45;0.7,&#45;0.7] -->
<g id="node7" class="node"><title>wallRadar[&#45;0.7,&#45;0.7]</title>
<polygon fill="lightgray" stroke="black" points="1303,-220.362 1214,-220.362 1214,-202.362 1303,-202.362 1303,-220.362"/>
<text text-anchor="middle" x="1258.5" y="-209.162" font-family="Times,serif" font-size="9.00">wallRadar[&#45;0.7,&#45;0.7]</text>
</g>
<!-- wallRadar[&#45;0.7,&#45;0.7]&#45;&gt;Shoot -->
<g id="edge39" class="edge"><title>wallRadar[&#45;0.7,&#45;0.7]&#45;&gt;Shoot</title>
<path fill="none" stroke="red" stroke-width="0.332493" stroke-dasharray="1,5" d="M1265.57,-202.087C1281.71,-183.187 1321.9,-136.138 1347.88,-105.73"/>
<polygon fill="red" stroke="red" stroke-width="0.332493" points="1350.64,-107.886 1354.47,-98.0093 1345.32,-103.34 1350.64,-107.886"/>
</g>
<!-- wallRadar[&#45;0.7,&#45;0.7]&#45;&gt;Move Forward/Backward -->
<g id="edge42" class="edge"><title>wallRadar[&#45;0.7,&#45;0.7]&#45;&gt;Move Forward/Backward</title>
<path fill="none" stroke="green" stroke-width="0.784805" d="M1277.74,-202.293C1287.94,-198.238 1300.75,-193.491 1312.5,-190.149 1478.94,-142.799 1678.56,-108.188 1790.12,-90.7732"/>
<polygon fill="green" stroke="green" stroke-width="0.784805" points="1790.97,-94.1845 1800.31,-89.1926 1789.89,-87.2673 1790.97,-94.1845"/>
</g>
<!-- wallRadar[&#45;0.7,&#45;0.7]&#45;&gt; Move Left/Right -->
<g id="edge13" class="edge"><title>wallRadar[&#45;0.7,&#45;0.7]&#45;&gt; Move Left/Right</title>
<path fill="none" stroke="red" stroke-width="0.515656" d="M1255.75,-202.087C1251.51,-189.354 1243.03,-163.843 1234.85,-139.253"/>
<polygon fill="red" stroke="red" stroke-width="0.515656" points="1238.1,-137.926 1231.62,-129.542 1231.45,-140.135 1238.1,-137.926"/>
</g>
<!-- wallRadar[&#45;0.7,&#45;0.7]&#45;&gt;Turn left/right -->
<g id="edge35" class="edge"><title>wallRadar[&#45;0.7,&#45;0.7]&#45;&gt;Turn left/right</title>
<path fill="none" stroke="red" stroke-width="0.242507" d="M1239.28,-202.202C1229.09,-198.123 1216.28,-193.381 1204.5,-190.149 998.578,-133.645 746.452,-98.4838 635.938,-84.7169"/>
<polygon fill="red" stroke="red" stroke-width="0.242507" points="636.361,-81.2427 626.007,-83.4901 635.503,-88.1899 636.361,-81.2427"/>
</g>
<!-- wallRadar[0.7,&#45;0.7] -->
<g id="node8" class="node"><title>wallRadar[0.7,&#45;0.7]</title>
<polygon fill="lightgray" stroke="black" points="441.5,-220.362 355.5,-220.362 355.5,-202.362 441.5,-202.362 441.5,-220.362"/>
<text text-anchor="middle" x="398.5" y="-209.162" font-family="Times,serif" font-size="9.00">wallRadar[0.7,&#45;0.7]</text>
</g>
<!-- wallRadar[0.7,&#45;0.7]&#45;&gt; Move Left/Right -->
<g id="edge16" class="edge"><title>wallRadar[0.7,&#45;0.7]&#45;&gt; Move Left/Right</title>
<path fill="none" stroke="red" stroke-width="0.270947" d="M416.456,-202.228C426.325,-198.054 438.888,-193.216 450.5,-190.149 582.799,-155.21 989.926,-104.726 1149.44,-85.7069"/>
<polygon fill="red" stroke="red" stroke-width="0.270947" points="1150.06,-89.1571 1159.58,-84.5001 1149.24,-82.2061 1150.06,-89.1571"/>
</g>
<!-- wallRadar[0.7,&#45;0.7]&#45;&gt;Turn left/right -->
<g id="edge5" class="edge"><title>wallRadar[0.7,&#45;0.7]&#45;&gt;Turn left/right</title>
<path fill="none" stroke="green" stroke-width="0.362071" d="M409.55,-202.286C433.727,-184.616 492.483,-141.673 534.119,-111.242"/>
<polygon fill="green" stroke="green" stroke-width="0.362071" points="536.194,-114.061 542.202,-105.334 532.064,-108.409 536.194,-114.061"/>
</g>
<!-- enemyRadar[RightBack] -->
<g id="node9" class="node"><title>enemyRadar[RightBack]</title>
<polygon fill="lightgray" stroke="black" points="805.5,-220.362 701.5,-220.362 701.5,-202.362 805.5,-202.362 805.5,-220.362"/>
<text text-anchor="middle" x="753.5" y="-209.162" font-family="Times,serif" font-size="9.00">enemyRadar[RightBack]</text>
</g>
<!-- enemyRadar[RightBack]&#45;&gt;Shoot -->
<g id="edge14" class="edge"><title>enemyRadar[RightBack]&#45;&gt;Shoot</title>
<path fill="none" stroke="red" stroke-width="0.101093" d="M773.776,-202.268C785.489,-197.943 800.61,-192.946 814.5,-190.149 1017.27,-149.319 1086.53,-231.165 1278.5,-154.149 1304.86,-143.575 1329.48,-122.731 1346.77,-105.531"/>
<polygon fill="red" stroke="red" stroke-width="0.101093" points="1349.7,-107.54 1354.17,-97.9355 1344.68,-102.654 1349.7,-107.54"/>
</g>
<!-- enemyRadar[RightBack]&#45;&gt; Move Left/Right -->
<g id="edge49" class="edge"><title>enemyRadar[RightBack]&#45;&gt; Move Left/Right</title>
<path fill="none" stroke="green" stroke-width="0.450222" d="M776.881,-202.33C788.202,-198.514 802.017,-193.964 814.5,-190.149 932.893,-153.969 1072.36,-115.918 1151.41,-94.7726"/>
<polygon fill="green" stroke="green" stroke-width="0.450222" points="1152.46,-98.1158 1161.21,-92.1536 1150.65,-91.3529 1152.46,-98.1158"/>
</g>
<!-- enemyRadar[RightBack]&#45;&gt;Turn left/right -->
<g id="edge31" class="edge"><title>enemyRadar[RightBack]&#45;&gt;Turn left/right</title>
<path fill="none" stroke="red" stroke-width="0.586989" d="M742.877,-202.286C719.891,-184.81 664.389,-142.614 624.452,-112.25"/>
<polygon fill="red" stroke="red" stroke-width="0.586989" points="626.514,-109.421 616.435,-106.155 622.277,-114.994 626.514,-109.421"/>
</g>
<!-- enemyRadar[LeftBack] -->
<g id="node10" class="node"><title>enemyRadar[LeftBack]</title>
<polygon fill="lightgray" stroke="black" points="1926,-220.362 1827,-220.362 1827,-202.362 1926,-202.362 1926,-220.362"/>
<text text-anchor="middle" x="1876.5" y="-209.162" font-family="Times,serif" font-size="9.00">enemyRadar[LeftBack]</text>
</g>
<!-- enemyRadar[LeftBack]&#45;&gt;Move Forward/Backward -->
<g id="edge21" class="edge"><title>enemyRadar[LeftBack]&#45;&gt;Move Forward/Backward</title>
<path fill="none" stroke="red" stroke-width="0.271349" d="M1876.5,-202.087C1876.5,-193.782 1876.5,-180.04 1876.5,-164.664"/>
<polygon fill="red" stroke="red" stroke-width="0.271349" points="1880,-164.364 1876.5,-154.364 1873,-164.364 1880,-164.364"/>
</g>
<!-- enemyRadar[LeftBack]&#45;&gt; Move Left/Right -->
<g id="edge22" class="edge"><title>enemyRadar[LeftBack]&#45;&gt; Move Left/Right</title>
<path fill="none" stroke="red" stroke-width="0.598704" d="M1857.18,-202.344C1845.83,-197.987 1831.08,-192.934 1817.5,-190.149 1607.06,-146.986 1539.55,-221.298 1335.5,-154.149 1310.85,-146.037 1286.14,-131.855 1265.54,-117.917"/>
<polygon fill="red" stroke="red" stroke-width="0.598704" points="1267.48,-115.006 1257.27,-112.187 1263.5,-120.759 1267.48,-115.006"/>
</g>
<!-- enemyRadar[Right45ø] -->
<g id="node11" class="node"><title>enemyRadar[Right45ø]</title>
<polygon fill="lightgray" stroke="black" points="1421.5,-220.362 1321.5,-220.362 1321.5,-202.362 1421.5,-202.362 1421.5,-220.362"/>
<text text-anchor="middle" x="1371.5" y="-209.162" font-family="Times,serif" font-size="9.00">enemyRadar[Right45ø]</text>
</g>
<!-- enemyRadar[Right45ø]&#45;&gt;Shoot -->
<g id="edge43" class="edge"><title>enemyRadar[Right45ø]&#45;&gt;Shoot</title>
<path fill="none" stroke="red" stroke-width="0.301243" d="M1371.5,-202.087C1371.5,-184.884 1371.5,-144.359 1371.5,-114.29"/>
<polygon fill="red" stroke="red" stroke-width="0.301243" points="1375,-114.146 1371.5,-104.146 1368,-114.146 1375,-114.146"/>
</g>
<!-- enemyRadar[Right45ø]&#45;&gt;Move Forward/Backward -->
<g id="edge12" class="edge"><title>enemyRadar[Right45ø]&#45;&gt;Move Forward/Backward</title>
<path fill="none" stroke="green" stroke-width="0.191596" d="M1393.49,-202.337C1404.53,-198.436 1418.15,-193.811 1430.5,-190.149 1555.01,-153.249 1701.34,-117.996 1791.51,-97.1931"/>
<polygon fill="green" stroke="green" stroke-width="0.191596" points="1792.45,-100.569 1801.41,-94.9152 1790.88,-93.7469 1792.45,-100.569"/>
</g>
<!-- enemyRadar[Right45ø]&#45;&gt; Move Left/Right -->
<g id="edge17" class="edge"><title>enemyRadar[Right45ø]&#45;&gt; Move Left/Right</title>
<path fill="none" stroke="green" stroke-width="0.675447" d="M1361.68,-202.087C1342.52,-185.943 1298.98,-149.261 1264.2,-119.956"/>
<polygon fill="green" stroke="green" stroke-width="0.675447" points="1266.38,-117.212 1256.48,-113.445 1261.87,-122.565 1266.38,-117.212"/>
</g>
<!-- enemyRadar[Left45ø] -->
<g id="node12" class="node"><title>enemyRadar[Left45ø]</title>
<polygon fill="lightgray" stroke="black" points="1809,-220.362 1714,-220.362 1714,-202.362 1809,-202.362 1809,-220.362"/>
<text text-anchor="middle" x="1761.5" y="-209.162" font-family="Times,serif" font-size="9.00">enemyRadar[Left45ø]</text>
</g>
<!-- enemyRadar[Left45ø]&#45;&gt;Shoot -->
<g id="edge41" class="edge"><title>enemyRadar[Left45ø]&#45;&gt;Shoot</title>
<path fill="none" stroke="green" stroke-width="0.914377" d="M1739.06,-202.311C1728.57,-198.572 1715.91,-194.093 1704.5,-190.149 1596.09,-152.688 1467.29,-109.794 1406.53,-89.658"/>
<polygon fill="green" stroke="green" stroke-width="0.914377" points="1407.62,-86.3337 1397.03,-86.5116 1405.42,-92.9786 1407.62,-86.3337"/>
</g>
<!-- enemyRadar[RightFront20ø] -->
<g id="node13" class="node"><title>enemyRadar[RightFront20ø]</title>
<polygon fill="lightgray" stroke="black" points="119,-220.362 0,-220.362 0,-202.362 119,-202.362 119,-220.362"/>
<text text-anchor="middle" x="59.5" y="-209.162" font-family="Times,serif" font-size="9.00">enemyRadar[RightFront20ø]</text>
</g>
<!-- enemyRadar[RightFront20ø]&#45;&gt;Turn left/right -->
<g id="edge4" class="edge"><title>enemyRadar[RightFront20ø]&#45;&gt;Turn left/right</title>
<path fill="none" stroke="green" stroke-width="0.472761" d="M88.2802,-202.354C101.962,-198.585 118.556,-194.067 133.5,-190.149 273.944,-153.326 439.92,-112.263 524.28,-91.5655"/>
<polygon fill="green" stroke="green" stroke-width="0.472761" points="525.277,-94.9248 534.156,-89.1441 523.61,-88.1262 525.277,-94.9248"/>
</g>
<!-- enemyRadar[LeftFront20ø] -->
<g id="node14" class="node"><title>enemyRadar[LeftFront20ø]</title>
<polygon fill="lightgray" stroke="black" points="2469.5,-220.362 2355.5,-220.362 2355.5,-202.362 2469.5,-202.362 2469.5,-220.362"/>
<text text-anchor="middle" x="2412.5" y="-209.162" font-family="Times,serif" font-size="9.00">enemyRadar[LeftFront20ø]</text>
</g>
<!-- enemyRadar[LeftFront20ø]&#45;&gt;Move Forward/Backward -->
<g id="edge30" class="edge"><title>enemyRadar[LeftFront20ø]&#45;&gt;Move Forward/Backward</title>
<path fill="none" stroke="red" stroke-width="0.347014" stroke-dasharray="1,5" d="M2387.54,-202.31C2375.23,-198.446 2360.14,-193.862 2346.5,-190.149 2212.82,-153.779 2056.01,-117.691 1961.55,-96.6578"/>
<polygon fill="red" stroke="red" stroke-width="0.347014" points="1962.28,-93.2349 1951.76,-94.482 1960.76,-100.068 1962.28,-93.2349"/>
</g>
<!-- enemyRadar[RightFront15ø] -->
<g id="node15" class="node"><title>enemyRadar[RightFront15ø]</title>
<polygon fill="lightgray" stroke="black" points="579,-220.362 460,-220.362 460,-202.362 579,-202.362 579,-220.362"/>
<text text-anchor="middle" x="519.5" y="-209.162" font-family="Times,serif" font-size="9.00">enemyRadar[RightFront15ø]</text>
</g>
<!-- enemyRadar[RightFront15ø]&#45;&gt; Move Left/Right -->
<g id="edge36" class="edge"><title>enemyRadar[RightFront15ø]&#45;&gt; Move Left/Right</title>
<path fill="none" stroke="red" stroke-width="0.428029" d="M544.561,-202.313C557.579,-198.313 573.797,-193.608 588.5,-190.149 791.413,-142.411 1035.52,-104.128 1149.69,-87.3193"/>
<polygon fill="red" stroke="red" stroke-width="0.428029" points="1150.28,-90.7702 1159.67,-85.8564 1149.26,-83.8442 1150.28,-90.7702"/>
</g>
<!-- enemyRadar[RightFront15ø]&#45;&gt;Turn left/right -->
<g id="edge25" class="edge"><title>enemyRadar[RightFront15ø]&#45;&gt;Turn left/right</title>
<path fill="none" stroke="red" stroke-width="0.16642" d="M523.253,-202.087C529.845,-187.553 543.987,-156.373 556.441,-128.915"/>
<polygon fill="red" stroke="red" stroke-width="0.16642" points="559.643,-130.328 560.586,-119.775 553.268,-127.437 559.643,-130.328"/>
</g>
<!-- enemyRadar[LeftFront15ø] -->
<g id="node16" class="node"><title>enemyRadar[LeftFront15ø]</title>
<polygon fill="lightgray" stroke="black" points="937.5,-220.362 823.5,-220.362 823.5,-202.362 937.5,-202.362 937.5,-220.362"/>
<text text-anchor="middle" x="880.5" y="-209.162" font-family="Times,serif" font-size="9.00">enemyRadar[LeftFront15ø]</text>
</g>
<!-- enemyRadar[LeftFront15ø]&#45;&gt;Shoot -->
<g id="edge37" class="edge"><title>enemyRadar[LeftFront15ø]&#45;&gt;Shoot</title>
<path fill="none" stroke="red" stroke-width="0.849609" d="M903.133,-202.268C915.747,-198.053 931.827,-193.163 946.5,-190.149 1091.88,-160.284 1141.61,-211.512 1278.5,-154.149 1304.69,-143.173 1329.33,-122.355 1346.66,-105.267"/>
<polygon fill="red" stroke="red" stroke-width="0.849609" points="1349.56,-107.308 1354.08,-97.7277 1344.57,-102.396 1349.56,-107.308"/>
</g>
<!-- enemyRadar[LeftFront15ø]&#45;&gt;Turn left/right -->
<g id="edge46" class="edge"><title>enemyRadar[LeftFront15ø]&#45;&gt;Turn left/right</title>
<path fill="none" stroke="red" stroke-width="0.310244" d="M862.124,-202.286C817.08,-182.49 699.861,-130.973 631.361,-100.867"/>
<polygon fill="red" stroke="red" stroke-width="0.310244" points="632.595,-97.5864 622.032,-96.7671 629.778,-103.995 632.595,-97.5864"/>
</g>
<!-- enemyRadar[RightFront7.5ø] -->
<g id="node17" class="node"><title>enemyRadar[RightFront7.5ø]</title>
<polygon fill="lightgray" stroke="black" points="1561.5,-220.362 1439.5,-220.362 1439.5,-202.362 1561.5,-202.362 1561.5,-220.362"/>
<text text-anchor="middle" x="1500.5" y="-209.162" font-family="Times,serif" font-size="9.00">enemyRadar[RightFront7.5ø]</text>
</g>
<!-- enemyRadar[RightFront7.5ø]&#45;&gt;Shoot -->
<g id="edge24" class="edge"><title>enemyRadar[RightFront7.5ø]&#45;&gt;Shoot</title>
<path fill="none" stroke="red" stroke-width="0.134007" stroke-dasharray="1,5" d="M1492.43,-202.087C1473.72,-182.898 1426.71,-134.692 1397.12,-104.347"/>
<polygon fill="red" stroke="red" stroke-width="0.134007" points="1399.49,-101.762 1390,-97.0459 1394.48,-106.649 1399.49,-101.762"/>
</g>
<!-- enemyRadar[RightFront7.5ø]&#45;&gt;Move Forward/Backward -->
<g id="edge40" class="edge"><title>enemyRadar[RightFront7.5ø]&#45;&gt;Move Forward/Backward</title>
<path fill="none" stroke="green" stroke-width="0.92643" d="M1523.45,-202.286C1576.09,-183.767 1707.62,-137.491 1794.43,-106.95"/>
<polygon fill="green" stroke="green" stroke-width="0.92643" points="1795.72,-110.204 1804,-103.584 1793.4,-103.601 1795.72,-110.204"/>
</g>
<!-- enemyRadar[RightFront7.5ø]&#45;&gt; Move Left/Right -->
<g id="edge32" class="edge"><title>enemyRadar[RightFront7.5ø]&#45;&gt; Move Left/Right</title>
<path fill="none" stroke="red" stroke-width="0.661118" d="M1474.33,-202.265C1434.47,-189.799 1360.56,-166.097 1335.5,-154.149 1312.47,-143.172 1288.42,-128.742 1267.89,-115.402"/>
<polygon fill="red" stroke="red" stroke-width="0.661118" points="1269.6,-112.336 1259.32,-109.766 1265.75,-118.184 1269.6,-112.336"/>
</g>
<!-- enemyRadar[LeftFront7.5ø] -->
<g id="node18" class="node"><title>enemyRadar[LeftFront7.5ø]</title>
<polygon fill="lightgray" stroke="black" points="1695.5,-220.362 1579.5,-220.362 1579.5,-202.362 1695.5,-202.362 1695.5,-220.362"/>
<text text-anchor="middle" x="1637.5" y="-209.162" font-family="Times,serif" font-size="9.00">enemyRadar[LeftFront7.5ø]</text>
</g>
<!-- enemyRadar[LeftFront7.5ø]&#45;&gt;Shoot -->
<g id="edge1" class="edge"><title>enemyRadar[LeftFront7.5ø]&#45;&gt;Shoot</title>
<path fill="none" stroke="red" stroke-width="0.219681" d="M1621.26,-202.286C1578.41,-180.978 1461.67,-122.919 1404.26,-94.3681"/>
<polygon fill="red" stroke="red" stroke-width="0.219681" points="1405.76,-91.2048 1395.25,-89.8856 1402.64,-97.4725 1405.76,-91.2048"/>
</g>
<!-- enemyRadar[LeftFront7.5ø]&#45;&gt;Move Forward/Backward -->
<g id="edge2" class="edge"><title>enemyRadar[LeftFront7.5ø]&#45;&gt;Move Forward/Backward</title>
<path fill="none" stroke="red" stroke-width="0.337191" d="M1652.09,-202.286C1680.98,-186.298 1747.24,-149.62 1800.32,-120.241"/>
<polygon fill="red" stroke="red" stroke-width="0.337191" points="1802.34,-123.126 1809.39,-115.221 1798.95,-117.001 1802.34,-123.126"/>
</g>
<!-- enemyRadar[LeftFront7.5ø]&#45;&gt; Move Left/Right -->
<g id="edge28" class="edge"><title>enemyRadar[LeftFront7.5ø]&#45;&gt; Move Left/Right</title>
<path fill="none" stroke="green" stroke-width="0.51864" d="M1613.84,-202.334C1601.11,-198.242 1585.08,-193.447 1570.5,-190.149 1467.44,-166.832 1434.51,-191.039 1335.5,-154.149 1311.28,-145.127 1286.74,-130.854 1266.15,-117.096"/>
<polygon fill="green" stroke="green" stroke-width="0.51864" points="1268.11,-114.196 1257.88,-111.454 1264.17,-119.979 1268.11,-114.196"/>
</g>
<!-- enemyRadar[RightFront2.5ø] -->
<g id="node19" class="node"><title>enemyRadar[RightFront2.5ø]</title>
<polygon fill="lightgray" stroke="black" points="2377.5,-286.576 2255.5,-286.576 2255.5,-268.576 2377.5,-268.576 2377.5,-286.576"/>
<text text-anchor="middle" x="2316.5" y="-275.376" font-family="Times,serif" font-size="9.00">enemyRadar[RightFront2.5ø]</text>
</g>
<!-- enemyRadar[RightFront2.5ø]&#45;&gt;Move Forward/Backward -->
<g id="edge18" class="edge"><title>enemyRadar[RightFront2.5ø]&#45;&gt;Move Forward/Backward</title>
<path fill="none" stroke="red" stroke-width="0.68771" stroke-dasharray="1,5" d="M2373.37,-268.547C2414.7,-261.411 2465.58,-249.476 2478.5,-232.576 2489.95,-217.597 2490.55,-204.652 2478.5,-190.149 2414.07,-112.621 2114.74,-88.4538 1963.89,-81.1343"/>
<polygon fill="red" stroke="red" stroke-width="0.68771" points="1963.88,-77.6302 1953.73,-80.6559 1963.55,-84.6225 1963.88,-77.6302"/>
</g>
<!-- enemyRadar[RightFront2.5ø]&#45;&gt;Turn left/right -->
<g id="edge44" class="edge"><title>enemyRadar[RightFront2.5ø]&#45;&gt;Turn left/right</title>
<path fill="none" stroke="green" stroke-width="0.612991" d="M2255.35,-276.492C1908.66,-275.876 204.049,-270.9 166.5,-232.576 56.9788,-120.79 385.721,-89.0152 522.628,-80.7492"/>
<polygon fill="green" stroke="green" stroke-width="0.612991" points="523.147,-84.225 532.927,-80.15 522.74,-77.2368 523.147,-84.225"/>
</g>
<!-- 521 -->
<g id="node28" class="node"><title>521</title>
<ellipse fill="white" stroke="black" cx="2316.5" cy="-211.362" rx="21.4286" ry="21.4286"/>
<text text-anchor="middle" x="2316.5" y="-209.162" font-family="Times,serif" font-size="9.00">521</text>
</g>
<!-- enemyRadar[RightFront2.5ø]&#45;&gt;521 -->
<g id="edge50" class="edge"><title>enemyRadar[RightFront2.5ø]&#45;&gt;521</title>
<path fill="none" stroke="green" stroke-width="0.403276" d="M2316.5,-268.443C2316.5,-261.9 2316.5,-252.271 2316.5,-242.832"/>
<polygon fill="green" stroke="green" stroke-width="0.403276" points="2320,-242.818 2316.5,-232.818 2313,-242.818 2320,-242.818"/>
</g>
<!-- enemyRadar[LeftFront2.5ø] -->
<g id="node20" class="node"><title>enemyRadar[LeftFront2.5ø]</title>
<polygon fill="lightgray" stroke="black" points="2277.5,-220.362 2161.5,-220.362 2161.5,-202.362 2277.5,-202.362 2277.5,-220.362"/>
<text text-anchor="middle" x="2219.5" y="-209.162" font-family="Times,serif" font-size="9.00">enemyRadar[LeftFront2.5ø]</text>
</g>
<!-- enemyRadar[LeftFront2.5ø]&#45;&gt;Shoot -->
<g id="edge7" class="edge"><title>enemyRadar[LeftFront2.5ø]&#45;&gt;Shoot</title>
<path fill="none" stroke="green" stroke-width="0.879814" d="M2196.83,-202.326C2183.98,-198.075 2167.52,-193.132 2152.5,-190.149 1993.92,-158.652 1950.61,-176.609 1790.5,-154.149 1648.14,-134.18 1480.32,-100.66 1407.84,-85.6925"/>
<polygon fill="green" stroke="green" stroke-width="0.879814" points="1408.35,-82.2248 1397.85,-83.6226 1406.93,-89.0791 1408.35,-82.2248"/>
</g>
<!-- enemyRadar[LeftFront2.5ø]&#45;&gt;Move Forward/Backward -->
<g id="edge11" class="edge"><title>enemyRadar[LeftFront2.5ø]&#45;&gt;Move Forward/Backward</title>
<path fill="none" stroke="green" stroke-width="0.953753" d="M2198.56,-202.286C2151.81,-184.255 2036.82,-139.908 1957.71,-109.394"/>
<polygon fill="green" stroke="green" stroke-width="0.953753" points="1958.83,-106.077 1948.24,-105.744 1956.31,-112.608 1958.83,-106.077"/>
</g>
<!-- OnTarget -->
<g id="node21" class="node"><title>OnTarget</title>
<polygon fill="lightgray" stroke="black" points="1195.5,-220.362 1145.5,-220.362 1145.5,-202.362 1195.5,-202.362 1195.5,-220.362"/>
<text text-anchor="middle" x="1170.5" y="-209.162" font-family="Times,serif" font-size="9.00">OnTarget</text>
</g>
<!-- OnTarget&#45;&gt;Shoot -->
<g id="edge47" class="edge"><title>OnTarget&#45;&gt;Shoot</title>
<path fill="none" stroke="red" stroke-width="0.787679" d="M1183.59,-202.231C1189.85,-198.435 1197.49,-193.93 1204.5,-190.149 1236.69,-172.789 1247.69,-173.861 1278.5,-154.149 1302.12,-139.038 1326.57,-118.823 1344.47,-103.029"/>
<polygon fill="red" stroke="red" stroke-width="0.787679" points="1347.09,-105.39 1352.21,-96.118 1342.42,-100.169 1347.09,-105.39"/>
</g>
<!-- OnTarget&#45;&gt; Move Left/Right -->
<g id="edge9" class="edge"><title>OnTarget&#45;&gt; Move Left/Right</title>
<path fill="none" stroke="red" stroke-width="0.354623" d="M1173.25,-202.087C1177.49,-189.354 1185.97,-163.843 1194.15,-139.253"/>
<polygon fill="red" stroke="red" stroke-width="0.354623" points="1197.55,-140.135 1197.38,-129.542 1190.9,-137.926 1197.55,-140.135"/>
</g>
<!-- TakingDmg -->
<g id="node22" class="node"><title>TakingDmg</title>
<polygon fill="lightgray" stroke="black" points="2052,-220.362 1993,-220.362 1993,-202.362 2052,-202.362 2052,-220.362"/>
<text text-anchor="middle" x="2022.5" y="-209.162" font-family="Times,serif" font-size="9.00">TakingDmg</text>
</g>
<!-- TakingDmg&#45;&gt;Shoot -->
<g id="edge48" class="edge"><title>TakingDmg&#45;&gt;Shoot</title>
<path fill="none" stroke="red" stroke-width="0.338604" d="M2009.59,-202.211C2002.44,-198.032 1993.25,-193.194 1984.5,-190.149 1981.02,-188.939 1539.55,-108.628 1408.05,-84.7189"/>
<polygon fill="red" stroke="red" stroke-width="0.338604" points="1408.53,-81.2485 1398.06,-82.9032 1407.28,-88.1356 1408.53,-81.2485"/>
</g>
<!-- bias -->
<g id="node23" class="node"><title>bias</title>
<polygon fill="lightgray" stroke="black" points="1975,-220.362 1944,-220.362 1944,-202.362 1975,-202.362 1975,-220.362"/>
<text text-anchor="middle" x="1959.5" y="-209.162" font-family="Times,serif" font-size="9.00">bias</text>
</g>
<!-- bias&#45;&gt;Move Forward/Backward -->
<g id="edge29" class="edge"><title>bias&#45;&gt;Move Forward/Backward</title>
<path fill="none" stroke="green" stroke-width="0.365844" d="M1954.31,-202.087C1947.63,-191.448 1935.36,-171.89 1922.51,-151.402"/>
<polygon fill="green" stroke="green" stroke-width="0.365844" points="1925.45,-149.512 1917.17,-142.902 1919.52,-153.232 1925.45,-149.512"/>
</g>
<!-- bias&#45;&gt; Move Left/Right -->
<g id="edge10" class="edge"><title>bias&#45;&gt; Move Left/Right</title>
<path fill="none" stroke="red" stroke-width="0.596566" d="M1952.36,-202.195C1947.98,-197.789 1941.98,-192.735 1935.5,-190.149 1811.45,-140.611 1462.68,-194.973 1335.5,-154.149 1310.79,-146.217 1286.07,-132.069 1265.48,-118.107"/>
<polygon fill="red" stroke="red" stroke-width="0.596566" points="1267.42,-115.195 1257.21,-112.363 1263.43,-120.944 1267.42,-115.195"/>
</g>
<!-- 521&#45;&gt;Move Forward/Backward -->
<g id="edge51" class="edge"><title>521&#45;&gt;Move Forward/Backward</title>
<path fill="none" stroke="red" stroke-width="0.835469" d="M2299.93,-197.806C2295.71,-195.002 2291.07,-192.243 2286.5,-190.149 2179.71,-141.191 2047.19,-109.783 1962.23,-93.0299"/>
<polygon fill="red" stroke="red" stroke-width="0.835469" points="1962.85,-89.5853 1952.37,-91.1087 1961.51,-96.4562 1962.85,-89.5853"/>
</g>
</g>
</svg>
