<?xml version="1.0" encoding="UTF-8" standalone="no"?>
<!DOCTYPE svg PUBLIC "-//W3C//DTD SVG 1.1//EN"
 "http://www.w3.org/Graphics/SVG/1.1/DTD/svg11.dtd">
<!-- Generated by graphviz version 2.38.0 (20140413.2041)
 -->
<!-- Title: %3 Pages: 1 -->
<svg width="2380pt" height="172pt"
 viewBox="0.00 0.00 2379.50 172.31" xmlns="http://www.w3.org/2000/svg" xmlns:xlink="http://www.w3.org/1999/xlink">
<g id="graph0" class="graph" transform="scale(1 1) rotate(0) translate(4 168.309)">
<title>%3</title>
<polygon fill="white" stroke="none" points="-4,4 -4,-168.309 2375.5,-168.309 2375.5,4 -4,4"/>
<!-- wallRadar[1,0] -->
<g id="node1" class="node"><title>wallRadar[1,0]</title>
<polygon fill="lightgray" stroke="black" points="177.5,-164.309 107.5,-164.309 107.5,-146.309 177.5,-146.309 177.5,-164.309"/>
<text text-anchor="middle" x="142.5" y="-153.109" font-family="Times,serif" font-size="9.00">wallRadar[1,0]</text>
</g>
<!-- Move Forward -->
<g id="node24" class="node"><title>Move Forward</title>
<ellipse fill="lightblue" stroke="black" cx="1131.5" cy="-55.1543" rx="50.41" ry="50.41"/>
<text text-anchor="middle" x="1131.5" y="-52.9543" font-family="Times,serif" font-size="9.00">Move Forward</text>
</g>
<!-- wallRadar[1,0]&#45;&gt;Move Forward -->
<g id="edge66" class="edge"><title>wallRadar[1,0]&#45;&gt;Move Forward</title>
<path fill="none" stroke="red" stroke-width="0.220176" d="M177.503,-147.517C180.538,-147.058 183.569,-146.645 186.5,-146.309 512.305,-108.896 599.323,-159.885 923.5,-110.309 975.235,-102.397 1032.72,-86.899 1074.12,-74.5025"/>
<polygon fill="red" stroke="red" stroke-width="0.220176" points="1075.2,-77.8329 1083.75,-71.5863 1073.17,-71.133 1075.2,-77.8329"/>
</g>
<!--  Move Backward -->
<g id="node25" class="node"><title> Move Backward</title>
<ellipse fill="lightblue" stroke="black" cx="598.5" cy="-55.1543" rx="55.3091" ry="55.3091"/>
<text text-anchor="middle" x="598.5" y="-52.9543" font-family="Times,serif" font-size="9.00"> Move Backward</text>
</g>
<!-- wallRadar[1,0]&#45;&gt; Move Backward -->
<g id="edge68" class="edge"><title>wallRadar[1,0]&#45;&gt; Move Backward</title>
<path fill="none" stroke="red" stroke-width="0.135405" d="M177.524,-146.77C254.065,-130.294 437.184,-90.8777 534.758,-69.8749"/>
<polygon fill="red" stroke="red" stroke-width="0.135405" points="535.747,-73.2421 544.787,-67.7161 534.274,-66.3989 535.747,-73.2421"/>
</g>
<!-- Turn Right -->
<g id="node29" class="node"><title>Turn Right</title>
<ellipse fill="lightblue" stroke="black" cx="874.5" cy="-55.1543" rx="39.6962" ry="39.6962"/>
<text text-anchor="middle" x="874.5" y="-52.9543" font-family="Times,serif" font-size="9.00">Turn Right</text>
</g>
<!-- wallRadar[1,0]&#45;&gt;Turn Right -->
<g id="edge65" class="edge"><title>wallRadar[1,0]&#45;&gt;Turn Right</title>
<path fill="none" stroke="green" stroke-width="0.436379" d="M177.513,-147.602C180.547,-147.125 183.574,-146.684 186.5,-146.309 396.933,-119.296 453.145,-144.694 662.5,-110.309 719.76,-100.904 784.168,-83.4414 826.807,-70.8856"/>
<polygon fill="green" stroke="green" stroke-width="0.436379" points="828.038,-74.1709 836.627,-67.9671 826.044,-67.461 828.038,-74.1709"/>
</g>
<!-- wallRadar[0,1] -->
<g id="node2" class="node"><title>wallRadar[0,1]</title>
<polygon fill="lightgray" stroke="black" points="1725.5,-164.309 1655.5,-164.309 1655.5,-146.309 1725.5,-146.309 1725.5,-164.309"/>
<text text-anchor="middle" x="1690.5" y="-153.109" font-family="Times,serif" font-size="9.00">wallRadar[0,1]</text>
</g>
<!-- Shoot -->
<g id="node23" class="node"><title>Shoot</title>
<ellipse fill="lightblue" stroke="black" cx="1730.5" cy="-55.1543" rx="26.7407" ry="26.7407"/>
<text text-anchor="middle" x="1730.5" y="-52.9543" font-family="Times,serif" font-size="9.00">Shoot</text>
</g>
<!-- wallRadar[0,1]&#45;&gt;Shoot -->
<g id="edge22" class="edge"><title>wallRadar[0,1]&#45;&gt;Shoot</title>
<path fill="none" stroke="red" stroke-width="0.540831" d="M1693.77,-146.276C1698.74,-134.079 1708.49,-110.175 1716.69,-90.0497"/>
<polygon fill="red" stroke="red" stroke-width="0.540831" points="1720.03,-91.1228 1720.56,-80.5413 1713.55,-88.481 1720.03,-91.1228"/>
</g>
<!-- wallRadar[0,1]&#45;&gt;Move Forward -->
<g id="edge69" class="edge"><title>wallRadar[0,1]&#45;&gt;Move Forward</title>
<path fill="none" stroke="green" stroke-width="0.883244" d="M1655.17,-147.742C1651.91,-147.222 1648.65,-146.734 1645.5,-146.309 1474.76,-123.21 1426.59,-152.372 1259.5,-110.309 1234.32,-103.969 1207.68,-93.3882 1185.27,-83.253"/>
<polygon fill="green" stroke="green" stroke-width="0.883244" points="1186.49,-79.9599 1175.94,-78.9503 1183.56,-86.3165 1186.49,-79.9599"/>
</g>
<!-- wallRadar[0,1]&#45;&gt; Move Backward -->
<g id="edge16" class="edge"><title>wallRadar[0,1]&#45;&gt; Move Backward</title>
<path fill="none" stroke="green" stroke-width="0.132634" d="M1655.19,-147.577C1651.92,-147.091 1648.65,-146.657 1645.5,-146.309 1282.91,-106.296 1186.78,-160.863 825.5,-110.309 769.053,-102.41 706.096,-86.839 660.829,-74.4132"/>
<polygon fill="green" stroke="green" stroke-width="0.132634" points="661.731,-71.0314 651.159,-71.733 659.861,-77.777 661.731,-71.0314"/>
</g>
<!-- Move Left -->
<g id="node26" class="node"><title>Move Left</title>
<ellipse fill="lightblue" stroke="black" cx="1306.5" cy="-55.1543" rx="38.3684" ry="38.3684"/>
<text text-anchor="middle" x="1306.5" y="-52.9543" font-family="Times,serif" font-size="9.00">Move Left</text>
</g>
<!-- wallRadar[0,1]&#45;&gt;Move Left -->
<g id="edge10" class="edge"><title>wallRadar[0,1]&#45;&gt;Move Left</title>
<path fill="none" stroke="green" stroke-width="0.100976" d="M1655.14,-147.969C1651.88,-147.401 1648.63,-146.84 1645.5,-146.309 1546.96,-129.56 1519.08,-139.573 1423.5,-110.309 1397.75,-102.424 1370.36,-89.9897 1348.56,-79.0231"/>
<polygon fill="green" stroke="green" stroke-width="0.100976" points="1350.08,-75.868 1339.58,-74.4305 1346.89,-82.1002 1350.08,-75.868"/>
</g>
<!-- Move right -->
<g id="node27" class="node"><title>Move right</title>
<ellipse fill="lightblue" stroke="black" cx="1855.5" cy="-55.1543" rx="39.6962" ry="39.6962"/>
<text text-anchor="middle" x="1855.5" y="-52.9543" font-family="Times,serif" font-size="9.00">Move right</text>
</g>
<!-- wallRadar[0,1]&#45;&gt;Move right -->
<g id="edge1" class="edge"><title>wallRadar[0,1]&#45;&gt;Move right</title>
<path fill="none" stroke="green" stroke-width="0.162375" d="M1704.56,-146.29C1719.86,-137.54 1745,-123.072 1766.5,-110.309 1781.83,-101.21 1798.54,-91.0918 1813.31,-82.0869"/>
<polygon fill="green" stroke="green" stroke-width="0.162375" points="1815.51,-84.8433 1822.22,-76.643 1811.86,-78.87 1815.51,-84.8433"/>
</g>
<!-- Turn Left -->
<g id="node28" class="node"><title>Turn Left</title>
<ellipse fill="lightblue" stroke="black" cx="1467.5" cy="-55.1543" rx="35.2113" ry="35.2113"/>
<text text-anchor="middle" x="1467.5" y="-52.9543" font-family="Times,serif" font-size="9.00">Turn Left</text>
</g>
<!-- wallRadar[0,1]&#45;&gt;Turn Left -->
<g id="edge23" class="edge"><title>wallRadar[0,1]&#45;&gt;Turn Left</title>
<path fill="none" stroke="red" stroke-width="0.268493" d="M1672.25,-146.276C1636.85,-130.695 1558.05,-96.0116 1509.19,-74.5031"/>
<polygon fill="red" stroke="red" stroke-width="0.268493" points="1510.4,-71.2118 1499.83,-70.3866 1507.58,-77.6187 1510.4,-71.2118"/>
</g>
<!-- wallRadar[&#45;1,0] -->
<g id="node3" class="node"><title>wallRadar[&#45;1,0]</title>
<polygon fill="lightgray" stroke="black" points="798,-164.309 725,-164.309 725,-146.309 798,-146.309 798,-164.309"/>
<text text-anchor="middle" x="761.5" y="-153.109" font-family="Times,serif" font-size="9.00">wallRadar[&#45;1,0]</text>
</g>
<!-- wallRadar[&#45;1,0]&#45;&gt; Move Backward -->
<g id="edge17" class="edge"><title>wallRadar[&#45;1,0]&#45;&gt; Move Backward</title>
<path fill="none" stroke="red" stroke-width="0.437765" d="M748.161,-146.276C727.78,-134.004 687.72,-109.88 654.172,-89.6784"/>
<polygon fill="red" stroke="red" stroke-width="0.437765" points="655.725,-86.5281 645.353,-84.3677 652.114,-92.5248 655.725,-86.5281"/>
</g>
<!-- wallRadar[&#45;1,0]&#45;&gt;Move Left -->
<g id="edge36" class="edge"><title>wallRadar[&#45;1,0]&#45;&gt;Move Left</title>
<path fill="none" stroke="green" stroke-width="0.60074" d="M798.298,-147.512C801.069,-147.078 803.827,-146.671 806.5,-146.309 976.362,-123.287 1025.07,-155.225 1190.5,-110.309 1216.21,-103.327 1243.28,-91.0099 1264.79,-79.8845"/>
<polygon fill="green" stroke="green" stroke-width="0.60074" points="1266.44,-82.9711 1273.66,-75.2084 1263.18,-76.7802 1266.44,-82.9711"/>
</g>
<!-- wallRadar[&#45;1,0]&#45;&gt;Move right -->
<g id="edge49" class="edge"><title>wallRadar[&#45;1,0]&#45;&gt;Move right</title>
<path fill="none" stroke="green" stroke-width="0.386071" d="M798.278,-147.343C801.054,-146.948 803.817,-146.596 806.5,-146.309 1018.77,-123.571 1562.06,-171.775 1766.5,-110.309 1783.88,-105.085 1801.3,-95.6398 1816.07,-86.0838"/>
<polygon fill="green" stroke="green" stroke-width="0.386071" points="1818.07,-88.9508 1824.43,-80.4756 1814.18,-83.1362 1818.07,-88.9508"/>
</g>
<!-- wallRadar[&#45;1,0]&#45;&gt;Turn Right -->
<g id="edge25" class="edge"><title>wallRadar[&#45;1,0]&#45;&gt;Turn Right</title>
<path fill="none" stroke="red" stroke-width="0.353093" d="M770.747,-146.276C785.144,-133.771 813.705,-108.962 837.222,-88.5345"/>
<polygon fill="red" stroke="red" stroke-width="0.353093" points="839.722,-90.9991 844.977,-81.799 835.132,-85.7144 839.722,-90.9991"/>
</g>
<!-- wallRadar[0,&#45;1] -->
<g id="node4" class="node"><title>wallRadar[0,&#45;1]</title>
<polygon fill="lightgray" stroke="black" points="473,-164.309 400,-164.309 400,-146.309 473,-146.309 473,-164.309"/>
<text text-anchor="middle" x="436.5" y="-153.109" font-family="Times,serif" font-size="9.00">wallRadar[0,&#45;1]</text>
</g>
<!-- wallRadar[0,&#45;1]&#45;&gt;Shoot -->
<g id="edge12" class="edge"><title>wallRadar[0,&#45;1]&#45;&gt;Shoot</title>
<path fill="none" stroke="red" stroke-width="0.149651" d="M473.277,-147.335C476.053,-146.942 478.817,-146.593 481.5,-146.309 937.013,-98.1013 1057.84,-173.627 1511.5,-110.309 1577.4,-101.111 1652.27,-80.2731 1695.2,-67.294"/>
<polygon fill="red" stroke="red" stroke-width="0.149651" points="1696.34,-70.6039 1704.88,-64.334 1694.3,-63.9095 1696.34,-70.6039"/>
</g>
<!-- wallRadar[0,&#45;1]&#45;&gt; Move Backward -->
<g id="edge77" class="edge"><title>wallRadar[0,&#45;1]&#45;&gt; Move Backward</title>
<path fill="none" stroke="red" stroke-width="0.320934" d="M449.757,-146.276C469.943,-134.046 509.555,-110.045 542.827,-89.886"/>
<polygon fill="red" stroke="red" stroke-width="0.320934" points="544.838,-92.7602 551.577,-84.5848 541.21,-86.7734 544.838,-92.7602"/>
</g>
<!-- wallRadar[0,&#45;1]&#45;&gt;Turn Right -->
<g id="edge31" class="edge"><title>wallRadar[0,&#45;1]&#45;&gt;Turn Right</title>
<path fill="none" stroke="red" stroke-width="0.287622" d="M473.338,-147.405C527.755,-137.161 627.011,-118.289 662.5,-110.309 719.114,-97.578 783.647,-80.7586 826.491,-69.2626"/>
<polygon fill="red" stroke="red" stroke-width="0.287622" points="827.616,-72.5845 836.362,-66.6052 825.796,-65.8252 827.616,-72.5845"/>
</g>
<!-- wallRadar[0.7,0.7] -->
<g id="node5" class="node"><title>wallRadar[0.7,0.7]</title>
<polygon fill="lightgray" stroke="black" points="707,-164.309 624,-164.309 624,-146.309 707,-146.309 707,-164.309"/>
<text text-anchor="middle" x="665.5" y="-153.109" font-family="Times,serif" font-size="9.00">wallRadar[0.7,0.7]</text>
</g>
<!-- wallRadar[0.7,0.7]&#45;&gt;Shoot -->
<g id="edge62" class="edge"><title>wallRadar[0.7,0.7]&#45;&gt;Shoot</title>
<path fill="none" stroke="green" stroke-width="0.222195" d="M707.195,-147.275C710.001,-146.913 712.789,-146.586 715.5,-146.309 1067.8,-110.275 1161.02,-161.061 1511.5,-110.309 1577.35,-100.773 1652.24,-80.0458 1695.18,-67.1793"/>
<polygon fill="green" stroke="green" stroke-width="0.222195" points="1696.31,-70.4934 1704.87,-64.2462 1694.28,-63.7936 1696.31,-70.4934"/>
</g>
<!-- wallRadar[0.7,0.7]&#45;&gt; Move Backward -->
<g id="edge26" class="edge"><title>wallRadar[0.7,0.7]&#45;&gt; Move Backward</title>
<path fill="none" stroke="green" stroke-width="0.271951" stroke-dasharray="1,5" d="M660.017,-146.276C654.322,-137.933 644.887,-124.111 635.097,-109.769"/>
<polygon fill="green" stroke="green" stroke-width="0.271951" points="637.846,-107.588 629.317,-101.301 632.064,-111.534 637.846,-107.588"/>
</g>
<!-- wallRadar[0.7,0.7]&#45;&gt;Move Left -->
<g id="edge27" class="edge"><title>wallRadar[0.7,0.7]&#45;&gt;Move Left</title>
<path fill="none" stroke="green" stroke-width="0.47396" d="M707.206,-147.37C710.009,-146.986 712.793,-146.627 715.5,-146.309 925.765,-121.563 985.694,-163.961 1190.5,-110.309 1216.27,-103.557 1243.34,-91.254 1264.85,-80.0791"/>
<polygon fill="green" stroke="green" stroke-width="0.47396" points="1266.51,-83.159 1273.7,-75.3784 1263.23,-76.9762 1266.51,-83.159"/>
</g>
<!-- wallRadar[0.7,0.7]&#45;&gt;Turn Right -->
<g id="edge2" class="edge"><title>wallRadar[0.7,0.7]&#45;&gt;Turn Right</title>
<path fill="none" stroke="red" stroke-width="0.516533" d="M682.603,-146.276C714.435,-131.327 783.706,-98.7944 829.722,-77.1838"/>
<polygon fill="red" stroke="red" stroke-width="0.516533" points="831.318,-80.3012 838.881,-72.8822 828.342,-73.9652 831.318,-80.3012"/>
</g>
<!-- wallRadar[&#45;0.7,0.7] -->
<g id="node6" class="node"><title>wallRadar[&#45;0.7,0.7]</title>
<polygon fill="lightgray" stroke="black" points="1035.5,-164.309 949.5,-164.309 949.5,-146.309 1035.5,-146.309 1035.5,-164.309"/>
<text text-anchor="middle" x="992.5" y="-153.109" font-family="Times,serif" font-size="9.00">wallRadar[&#45;0.7,0.7]</text>
</g>
<!-- wallRadar[&#45;0.7,0.7]&#45;&gt;Shoot -->
<g id="edge9" class="edge"><title>wallRadar[&#45;0.7,0.7]&#45;&gt;Shoot</title>
<path fill="none" stroke="green" stroke-width="0.426955" d="M1035.6,-147.421C1038.61,-147.02 1041.6,-146.643 1044.5,-146.309 1251.3,-122.465 1305.98,-143.408 1511.5,-110.309 1577.19,-99.7296 1652.14,-79.3435 1695.13,-66.8249"/>
<polygon fill="green" stroke="green" stroke-width="0.426955" points="1696.22,-70.1515 1704.83,-63.9749 1694.25,-63.4353 1696.22,-70.1515"/>
</g>
<!-- wallRadar[&#45;0.7,0.7]&#45;&gt;Move Forward -->
<g id="edge51" class="edge"><title>wallRadar[&#45;0.7,0.7]&#45;&gt;Move Forward</title>
<path fill="none" stroke="green" stroke-width="0.423472" d="M1003.87,-146.276C1020.99,-134.191 1054.38,-110.616 1082.71,-90.6084"/>
<polygon fill="green" stroke="green" stroke-width="0.423472" points="1084.78,-93.4296 1090.93,-84.8023 1080.74,-87.7116 1084.78,-93.4296"/>
</g>
<!-- wallRadar[&#45;0.7,0.7]&#45;&gt; Move Backward -->
<g id="edge61" class="edge"><title>wallRadar[&#45;0.7,0.7]&#45;&gt; Move Backward</title>
<path fill="none" stroke="green" stroke-width="0.171713" d="M960.257,-146.276C895.111,-130.047 746.778,-93.0938 661.666,-71.8903"/>
<polygon fill="green" stroke="green" stroke-width="0.171713" points="662.412,-68.4693 651.862,-69.4481 660.72,-75.2617 662.412,-68.4693"/>
</g>
<!-- wallRadar[&#45;0.7,0.7]&#45;&gt;Move Left -->
<g id="edge74" class="edge"><title>wallRadar[&#45;0.7,0.7]&#45;&gt;Move Left</title>
<path fill="none" stroke="green" stroke-width="0.428253" d="M1035.73,-147.507C1076.34,-140.462 1138.49,-127.991 1190.5,-110.309 1215.61,-101.771 1242.52,-89.4248 1264.09,-78.6762"/>
<polygon fill="green" stroke="green" stroke-width="0.428253" points="1265.95,-81.6601 1273.29,-74.027 1262.79,-75.4122 1265.95,-81.6601"/>
</g>
<!-- wallRadar[&#45;0.7,0.7]&#45;&gt;Turn Left -->
<g id="edge42" class="edge"><title>wallRadar[&#45;0.7,0.7]&#45;&gt;Turn Left</title>
<path fill="none" stroke="red" stroke-width="0.126191" d="M1035.61,-147.551C1038.62,-147.119 1041.6,-146.7 1044.5,-146.309 1181.52,-127.794 1220.61,-148.482 1353.5,-110.309 1379.37,-102.878 1406.65,-90.112 1428.04,-78.8403"/>
<polygon fill="red" stroke="red" stroke-width="0.126191" points="1429.98,-81.7742 1437.13,-73.9567 1426.66,-75.6085 1429.98,-81.7742"/>
</g>
<!-- wallRadar[&#45;0.7,0.7]&#45;&gt;Turn Right -->
<g id="edge18" class="edge"><title>wallRadar[&#45;0.7,0.7]&#45;&gt;Turn Right</title>
<path fill="none" stroke="green" stroke-width="0.561783" d="M982.844,-146.276C967.596,-133.593 937.131,-108.252 912.38,-87.6634"/>
<polygon fill="green" stroke="green" stroke-width="0.561783" points="914.497,-84.872 904.571,-81.1678 910.021,-90.2536 914.497,-84.872"/>
</g>
<!-- wallRadar[&#45;0.7,&#45;0.7] -->
<g id="node7" class="node"><title>wallRadar[&#45;0.7,&#45;0.7]</title>
<polygon fill="lightgray" stroke="black" points="89,-164.309 7.10543e-15,-164.309 7.10543e-15,-146.309 89,-146.309 89,-164.309"/>
<text text-anchor="middle" x="44.5" y="-153.109" font-family="Times,serif" font-size="9.00">wallRadar[&#45;0.7,&#45;0.7]</text>
</g>
<!-- wallRadar[&#45;0.7,&#45;0.7]&#45;&gt;Move Forward -->
<g id="edge53" class="edge"><title>wallRadar[&#45;0.7,&#45;0.7]&#45;&gt;Move Forward</title>
<path fill="none" stroke="red" stroke-width="0.321507" d="M89.2455,-147.316C92.3731,-146.939 95.481,-146.597 98.5,-146.309 463.849,-111.369 560.559,-164.848 923.5,-110.309 975.255,-102.531 1032.73,-87.0207 1074.13,-74.585"/>
<polygon fill="red" stroke="red" stroke-width="0.321507" points="1075.21,-77.9139 1083.76,-71.659 1073.18,-71.216 1075.21,-77.9139"/>
</g>
<!-- wallRadar[&#45;0.7,&#45;0.7]&#45;&gt; Move Backward -->
<g id="edge6" class="edge"><title>wallRadar[&#45;0.7,&#45;0.7]&#45;&gt; Move Backward</title>
<path fill="none" stroke="red" stroke-width="0.298427" d="M89.3669,-146.359C187.386,-128.993 420.924,-87.6162 534.408,-67.5098"/>
<polygon fill="red" stroke="red" stroke-width="0.298427" points="535.112,-70.9397 544.348,-65.7487 533.89,-64.047 535.112,-70.9397"/>
</g>
<!-- wallRadar[&#45;0.7,&#45;0.7]&#45;&gt;Turn Right -->
<g id="edge48" class="edge"><title>wallRadar[&#45;0.7,&#45;0.7]&#45;&gt;Turn Right</title>
<path fill="none" stroke="green" stroke-width="0.139577" d="M89.2525,-147.385C92.3784,-146.992 95.4841,-146.628 98.5,-146.309 348.283,-119.881 414.409,-149.562 662.5,-110.309 719.988,-101.213 784.602,-83.6064 827.22,-70.9347"/>
<polygon fill="green" stroke="green" stroke-width="0.139577" points="828.459,-74.217 837.031,-67.9892 826.446,-67.5127 828.459,-74.217"/>
</g>
<!-- wallRadar[0.7,&#45;0.7] -->
<g id="node8" class="node"><title>wallRadar[0.7,&#45;0.7]</title>
<polygon fill="lightgray" stroke="black" points="1139.5,-164.309 1053.5,-164.309 1053.5,-146.309 1139.5,-146.309 1139.5,-164.309"/>
<text text-anchor="middle" x="1096.5" y="-153.109" font-family="Times,serif" font-size="9.00">wallRadar[0.7,&#45;0.7]</text>
</g>
<!-- wallRadar[0.7,&#45;0.7]&#45;&gt;Move Forward -->
<g id="edge40" class="edge"><title>wallRadar[0.7,&#45;0.7]&#45;&gt;Move Forward</title>
<path fill="none" stroke="green" stroke-width="0.624152" d="M1099.36,-146.276C1102.15,-138.466 1106.65,-125.855 1111.4,-112.51"/>
<polygon fill="green" stroke="green" stroke-width="0.624152" points="1114.83,-113.315 1114.9,-102.721 1108.24,-110.964 1114.83,-113.315"/>
</g>
<!-- wallRadar[0.7,&#45;0.7]&#45;&gt;Move Left -->
<g id="edge8" class="edge"><title>wallRadar[0.7,&#45;0.7]&#45;&gt;Move Left</title>
<path fill="none" stroke="green" stroke-width="0.840335" d="M1113.69,-146.276C1146.04,-131.156 1216.87,-98.0464 1263.09,-76.4451"/>
<polygon fill="green" stroke="green" stroke-width="0.840335" points="1264.69,-79.5592 1272.27,-72.1541 1261.73,-73.2177 1264.69,-79.5592"/>
</g>
<!-- wallRadar[0.7,&#45;0.7]&#45;&gt;Turn Left -->
<g id="edge67" class="edge"><title>wallRadar[0.7,&#45;0.7]&#45;&gt;Turn Left</title>
<path fill="none" stroke="green" stroke-width="0.448214" d="M1139.68,-147.577C1207.54,-136.9 1333.49,-116.643 1353.5,-110.309 1379.16,-102.188 1406.44,-89.3938 1427.88,-78.28"/>
<polygon fill="green" stroke="green" stroke-width="0.448214" points="1429.77,-81.2369 1436.99,-73.477 1426.51,-75.0448 1429.77,-81.2369"/>
</g>
<!-- wallRadar[0.7,&#45;0.7]&#45;&gt;Turn Right -->
<g id="edge30" class="edge"><title>wallRadar[0.7,&#45;0.7]&#45;&gt;Turn Right</title>
<path fill="none" stroke="red" stroke-width="0.10099" d="M1078.33,-146.276C1044.06,-131.124 968.936,-97.908 920.087,-76.31"/>
<polygon fill="red" stroke="red" stroke-width="0.10099" points="921.249,-72.9968 910.687,-72.1541 918.418,-79.399 921.249,-72.9968"/>
</g>
<!-- enemyRadar[RightBack] -->
<g id="node9" class="node"><title>enemyRadar[RightBack]</title>
<polygon fill="lightgray" stroke="black" points="1519.5,-164.309 1415.5,-164.309 1415.5,-146.309 1519.5,-146.309 1519.5,-164.309"/>
<text text-anchor="middle" x="1467.5" y="-153.109" font-family="Times,serif" font-size="9.00">enemyRadar[RightBack]</text>
</g>
<!-- enemyRadar[RightBack]&#45;&gt;Shoot -->
<g id="edge54" class="edge"><title>enemyRadar[RightBack]&#45;&gt;Shoot</title>
<path fill="none" stroke="red" stroke-width="0.401993" d="M1489.02,-146.276C1534.53,-129.294 1640.83,-89.6196 1695.96,-69.0439"/>
<polygon fill="red" stroke="red" stroke-width="0.401993" points="1697.49,-72.2097 1705.64,-65.434 1695.04,-65.6515 1697.49,-72.2097"/>
</g>
<!-- enemyRadar[RightBack]&#45;&gt; Move Backward -->
<g id="edge50" class="edge"><title>enemyRadar[RightBack]&#45;&gt; Move Backward</title>
<path fill="none" stroke="red" stroke-width="0.143428" d="M1415.28,-147.221C1412.31,-146.893 1409.37,-146.585 1406.5,-146.309 1148.98,-121.473 1081.39,-148.468 825.5,-110.309 769.127,-101.902 706.162,-86.3813 660.873,-74.1039"/>
<polygon fill="red" stroke="red" stroke-width="0.143428" points="661.768,-70.7202 651.199,-71.4578 659.921,-77.4722 661.768,-70.7202"/>
</g>
<!-- enemyRadar[RightBack]&#45;&gt;Move Left -->
<g id="edge15" class="edge"><title>enemyRadar[RightBack]&#45;&gt;Move Left</title>
<path fill="none" stroke="red" stroke-width="0.260741" d="M1454.32,-146.276C1431.27,-132.221 1382.72,-102.622 1347.53,-81.1711"/>
<polygon fill="red" stroke="red" stroke-width="0.260741" points="1349.26,-78.1246 1338.9,-75.9075 1345.62,-84.1015 1349.26,-78.1246"/>
</g>
<!-- enemyRadar[RightBack]&#45;&gt;Turn Left -->
<g id="edge70" class="edge"><title>enemyRadar[RightBack]&#45;&gt;Turn Left</title>
<path fill="none" stroke="red" stroke-width="0.373177" d="M1467.5,-146.276C1467.5,-136.172 1467.5,-118.035 1467.5,-100.667"/>
<polygon fill="red" stroke="red" stroke-width="0.373177" points="1471,-100.596 1467.5,-90.596 1464,-100.596 1471,-100.596"/>
</g>
<!-- enemyRadar[LeftBack] -->
<g id="node10" class="node"><title>enemyRadar[LeftBack]</title>
<polygon fill="lightgray" stroke="black" points="1637,-164.309 1538,-164.309 1538,-146.309 1637,-146.309 1637,-164.309"/>
<text text-anchor="middle" x="1587.5" y="-153.109" font-family="Times,serif" font-size="9.00">enemyRadar[LeftBack]</text>
</g>
<!-- enemyRadar[LeftBack]&#45;&gt;Shoot -->
<g id="edge34" class="edge"><title>enemyRadar[LeftBack]&#45;&gt;Shoot</title>
<path fill="none" stroke="green" stroke-width="0.269576" d="M1599.2,-146.276C1621.09,-131.252 1668.86,-98.4666 1700.34,-76.8585"/>
<polygon fill="green" stroke="green" stroke-width="0.269576" points="1702.48,-79.6292 1708.75,-71.0844 1698.52,-73.8579 1702.48,-79.6292"/>
</g>
<!-- enemyRadar[LeftBack]&#45;&gt;Move Left -->
<g id="edge46" class="edge"><title>enemyRadar[LeftBack]&#45;&gt;Move Left</title>
<path fill="none" stroke="green" stroke-width="0.233607" d="M1550.47,-146.289C1516.86,-138.562 1466.18,-125.782 1423.5,-110.309 1398.28,-101.164 1371.02,-88.7086 1349.17,-78.0489"/>
<polygon fill="green" stroke="green" stroke-width="0.233607" points="1350.67,-74.888 1340.15,-73.6053 1347.57,-81.1664 1350.67,-74.888"/>
</g>
<!-- enemyRadar[LeftBack]&#45;&gt;Turn Right -->
<g id="edge35" class="edge"><title>enemyRadar[LeftBack]&#45;&gt;Turn Right</title>
<path fill="none" stroke="red" stroke-width="0.43732" d="M1537.95,-147.385C1534.75,-147.002 1531.58,-146.639 1528.5,-146.309 1326.36,-124.642 1272.77,-145.28 1072.5,-110.309 1020.07,-101.153 961.429,-84.2498 921.666,-71.7542"/>
<polygon fill="red" stroke="red" stroke-width="0.43732" points="922.569,-68.3688 911.979,-68.6797 920.451,-75.0408 922.569,-68.3688"/>
</g>
<!-- enemyRadar[Right] -->
<g id="node11" class="node"><title>enemyRadar[Right]</title>
<polygon fill="lightgray" stroke="black" points="2241.5,-164.309 2155.5,-164.309 2155.5,-146.309 2241.5,-146.309 2241.5,-164.309"/>
<text text-anchor="middle" x="2198.5" y="-153.109" font-family="Times,serif" font-size="9.00">enemyRadar[Right]</text>
</g>
<!-- enemyRadar[Right]&#45;&gt;Shoot -->
<g id="edge64" class="edge"><title>enemyRadar[Right]&#45;&gt;Shoot</title>
<path fill="none" stroke="red" stroke-width="0.312901" d="M2155.39,-147.517C2152.38,-147.092 2149.4,-146.685 2146.5,-146.309 1995.81,-126.75 1948.59,-164.165 1806.5,-110.309 1788.81,-103.604 1771.45,-91.749 1757.79,-80.837"/>
<polygon fill="red" stroke="red" stroke-width="0.312901" points="1759.73,-77.9009 1749.8,-74.2191 1755.27,-83.2926 1759.73,-77.9009"/>
</g>
<!-- enemyRadar[Right]&#45;&gt;Move Forward -->
<g id="edge56" class="edge"><title>enemyRadar[Right]&#45;&gt;Move Forward</title>
<path fill="none" stroke="red" stroke-width="0.121428" d="M2155.42,-147.3C2152.4,-146.927 2149.41,-146.591 2146.5,-146.309 1950.15,-127.28 1452,-153.437 1259.5,-110.309 1234.06,-104.608 1207.29,-94.0707 1184.84,-83.7957"/>
<polygon fill="red" stroke="red" stroke-width="0.121428" points="1186.04,-80.4944 1175.5,-79.423 1183.08,-86.8337 1186.04,-80.4944"/>
</g>
<!-- enemyRadar[Right]&#45;&gt;Move right -->
<g id="edge37" class="edge"><title>enemyRadar[Right]&#45;&gt;Move right</title>
<path fill="none" stroke="red" stroke-width="0.278927" d="M2170.43,-146.276C2111.83,-129.506 1975.9,-90.609 1903.27,-69.8253"/>
<polygon fill="red" stroke="red" stroke-width="0.278927" points="1904.04,-66.4033 1893.46,-67.017 1902.11,-73.1332 1904.04,-66.4033"/>
</g>
<!-- enemyRadar[Right]&#45;&gt;Turn Left -->
<g id="edge3" class="edge"><title>enemyRadar[Right]&#45;&gt;Turn Left</title>
<path fill="none" stroke="red" stroke-width="0.170811" stroke-dasharray="1,5" d="M2155.4,-147.43C2152.39,-147.026 2149.4,-146.647 2146.5,-146.309 1946.33,-122.971 1893.55,-141.785 1694.5,-110.309 1629.95,-100.101 1556.62,-81.2574 1511.21,-68.7129"/>
<polygon fill="red" stroke="red" stroke-width="0.170811" points="1511.97,-65.2921 1501.4,-65.9812 1510.09,-72.0356 1511.97,-65.2921"/>
</g>
<!-- enemyRadar[Left] -->
<g id="node12" class="node"><title>enemyRadar[Left]</title>
<polygon fill="lightgray" stroke="black" points="1953,-164.309 1872,-164.309 1872,-146.309 1953,-146.309 1953,-164.309"/>
<text text-anchor="middle" x="1912.5" y="-153.109" font-family="Times,serif" font-size="9.00">enemyRadar[Left]</text>
</g>
<!-- enemyRadar[Left]&#45;&gt;Shoot -->
<g id="edge76" class="edge"><title>enemyRadar[Left]&#45;&gt;Shoot</title>
<path fill="none" stroke="green" stroke-width="0.135003" d="M1888.63,-146.16C1866.67,-138.256 1833.51,-125.285 1806.5,-110.309 1790.07,-101.2 1772.94,-89.2346 1759.1,-78.868"/>
<polygon fill="green" stroke="green" stroke-width="0.135003" points="1761.03,-75.9349 1750.95,-72.6599 1756.79,-81.5035 1761.03,-75.9349"/>
</g>
<!-- enemyRadar[Left]&#45;&gt;Move Left -->
<g id="edge59" class="edge"><title>enemyRadar[Left]&#45;&gt;Move Left</title>
<path fill="none" stroke="green" stroke-width="0.296546" d="M1871.88,-147.542C1868.71,-147.095 1865.55,-146.678 1862.5,-146.309 1668.15,-122.827 1612.8,-160.193 1423.5,-110.309 1397.36,-103.422 1369.85,-90.9832 1348.08,-79.7626"/>
<polygon fill="green" stroke="green" stroke-width="0.296546" points="1349.6,-76.6073 1339.12,-75.048 1346.34,-82.8021 1349.6,-76.6073"/>
</g>
<!-- enemyRadar[Left]&#45;&gt;Move right -->
<g id="edge60" class="edge"><title>enemyRadar[Left]&#45;&gt;Move right</title>
<path fill="none" stroke="green" stroke-width="0.193169" d="M1907.84,-146.276C1901.71,-135.731 1890.51,-116.437 1880.03,-98.3993"/>
<polygon fill="green" stroke="green" stroke-width="0.193169" points="1883.02,-96.5789 1874.97,-89.689 1876.97,-100.094 1883.02,-96.5789"/>
</g>
<!-- enemyRadar[Left]&#45;&gt;Turn Right -->
<g id="edge14" class="edge"><title>enemyRadar[Left]&#45;&gt;Turn Right</title>
<path fill="none" stroke="red" stroke-width="0.541908" d="M1871.89,-147.417C1868.72,-147 1865.56,-146.622 1862.5,-146.309 1512.85,-110.486 1419.69,-165.006 1072.5,-110.309 1019.93,-102.026 961.308,-84.9771 921.59,-72.2086"/>
<polygon fill="red" stroke="red" stroke-width="0.541908" points="922.507,-68.8265 911.915,-69.0626 920.343,-75.4834 922.507,-68.8265"/>
</g>
<!-- enemyRadar[RightFront30] -->
<g id="node13" class="node"><title>enemyRadar[RightFront30]</title>
<polygon fill="lightgray" stroke="black" points="931,-164.309 816,-164.309 816,-146.309 931,-146.309 931,-164.309"/>
<text text-anchor="middle" x="873.5" y="-153.109" font-family="Times,serif" font-size="9.00">enemyRadar[RightFront30]</text>
</g>
<!-- enemyRadar[RightFront30]&#45;&gt; Move Backward -->
<g id="edge39" class="edge"><title>enemyRadar[RightFront30]&#45;&gt; Move Backward</title>
<path fill="none" stroke="green" stroke-width="0.202832" stroke-dasharray="1,5" d="M850.996,-146.276C809.657,-131.521 720.327,-99.6376 659.796,-78.0324"/>
<polygon fill="green" stroke="green" stroke-width="0.202832" points="660.935,-74.7227 650.34,-74.6574 658.582,-81.3153 660.935,-74.7227"/>
</g>
<!-- enemyRadar[RightFront30]&#45;&gt;Move Left -->
<g id="edge41" class="edge"><title>enemyRadar[RightFront30]&#45;&gt;Move Left</title>
<path fill="none" stroke="red" stroke-width="0.254115" d="M931.224,-147.244C1015.85,-136.743 1166.22,-117.483 1190.5,-110.309 1216.05,-102.758 1243.11,-90.4042 1264.66,-79.4013"/>
<polygon fill="red" stroke="red" stroke-width="0.254115" points="1266.28,-82.5041 1273.54,-74.7864 1263.05,-76.2931 1266.28,-82.5041"/>
</g>
<!-- enemyRadar[RightFront30]&#45;&gt;Turn Left -->
<g id="edge44" class="edge"><title>enemyRadar[RightFront30]&#45;&gt;Turn Left</title>
<path fill="none" stroke="green" stroke-width="0.553397" d="M931.23,-147.297C934.365,-146.953 937.47,-146.621 940.5,-146.309 1123.78,-127.384 1175.69,-158.604 1353.5,-110.309 1379.47,-103.255 1406.76,-90.5035 1428.13,-79.1458"/>
<polygon fill="green" stroke="green" stroke-width="0.553397" points="1430.09,-82.0665 1437.2,-74.2182 1426.75,-75.9152 1430.09,-82.0665"/>
</g>
<!-- enemyRadar[LeftFront30] -->
<g id="node14" class="node"><title>enemyRadar[LeftFront30]</title>
<polygon fill="lightgray" stroke="black" points="1267.5,-164.309 1157.5,-164.309 1157.5,-146.309 1267.5,-146.309 1267.5,-164.309"/>
<text text-anchor="middle" x="1212.5" y="-153.109" font-family="Times,serif" font-size="9.00">enemyRadar[LeftFront30]</text>
</g>
<!-- enemyRadar[LeftFront30]&#45;&gt;Move Forward -->
<g id="edge72" class="edge"><title>enemyRadar[LeftFront30]&#45;&gt;Move Forward</title>
<path fill="none" stroke="green" stroke-width="0.183747" d="M1205.87,-146.276C1197.88,-136.597 1183.81,-119.546 1170.04,-102.861"/>
<polygon fill="green" stroke="green" stroke-width="0.183747" points="1172.4,-100.219 1163.34,-94.734 1167,-104.675 1172.4,-100.219"/>
</g>
<!-- enemyRadar[LeftFront30]&#45;&gt;Move right -->
<g id="edge43" class="edge"><title>enemyRadar[LeftFront30]&#45;&gt;Move right</title>
<path fill="none" stroke="green" stroke-width="0.576635" d="M1267.64,-147.235C1270.63,-146.907 1273.6,-146.596 1276.5,-146.309 1493.8,-124.759 1558.54,-176.919 1766.5,-110.309 1783.78,-104.774 1801.18,-95.2619 1815.96,-85.7391"/>
<polygon fill="green" stroke="green" stroke-width="0.576635" points="1817.95,-88.6171 1824.33,-80.161 1814.07,-82.7909 1817.95,-88.6171"/>
</g>
<!-- enemyRadar[LeftFront30]&#45;&gt;Turn Right -->
<g id="edge29" class="edge"><title>enemyRadar[LeftFront30]&#45;&gt;Turn Right</title>
<path fill="none" stroke="red" stroke-width="0.236648" d="M1184.84,-146.276C1127.24,-129.55 993.845,-90.8117 922.138,-69.9882"/>
<polygon fill="red" stroke="red" stroke-width="0.236648" points="923.023,-66.6007 912.443,-67.173 921.071,-73.323 923.023,-66.6007"/>
</g>
<!-- enemyRadar[RightFront10] -->
<g id="node15" class="node"><title>enemyRadar[RightFront10]</title>
<polygon fill="lightgray" stroke="black" points="606,-164.309 491,-164.309 491,-146.309 606,-146.309 606,-164.309"/>
<text text-anchor="middle" x="548.5" y="-153.109" font-family="Times,serif" font-size="9.00">enemyRadar[RightFront10]</text>
</g>
<!-- enemyRadar[RightFront10]&#45;&gt;Move Forward -->
<g id="edge57" class="edge"><title>enemyRadar[RightFront10]&#45;&gt;Move Forward</title>
<path fill="none" stroke="red" stroke-width="0.102313" d="M606.091,-147.312C608.934,-146.972 611.749,-146.636 614.5,-146.309 751.796,-129.99 787.606,-135.788 923.5,-110.309 974.94,-100.664 1032.45,-85.3321 1073.94,-73.4398"/>
<polygon fill="red" stroke="red" stroke-width="0.102313" points="1074.96,-76.7879 1083.59,-70.6507 1073.02,-70.0628 1074.96,-76.7879"/>
</g>
<!-- enemyRadar[RightFront10]&#45;&gt; Move Backward -->
<g id="edge4" class="edge"><title>enemyRadar[RightFront10]&#45;&gt; Move Backward</title>
<path fill="none" stroke="red" stroke-width="0.129341" d="M552.592,-146.276C556.458,-138.687 562.632,-126.567 569.214,-113.645"/>
<polygon fill="red" stroke="red" stroke-width="0.129341" points="572.393,-115.115 573.814,-104.616 566.156,-111.938 572.393,-115.115"/>
</g>
<!-- enemyRadar[RightFront10]&#45;&gt;Move Left -->
<g id="edge7" class="edge"><title>enemyRadar[RightFront10]&#45;&gt;Move Left</title>
<path fill="none" stroke="red" stroke-width="0.135439" d="M606.072,-147.13C608.92,-146.838 611.741,-146.562 614.5,-146.309 869.926,-122.866 941.949,-173.668 1190.5,-110.309 1216.32,-103.728 1243.39,-91.4354 1264.88,-80.2238"/>
<polygon fill="red" stroke="red" stroke-width="0.135439" points="1266.56,-83.2985 1273.73,-75.5048 1263.26,-77.1218 1266.56,-83.2985"/>
</g>
<!-- enemyRadar[RightFront10]&#45;&gt;Turn Right -->
<g id="edge63" class="edge"><title>enemyRadar[RightFront10]&#45;&gt;Turn Right</title>
<path fill="none" stroke="green" stroke-width="0.132626" d="M575.178,-146.276C630.327,-129.672 757.527,-91.3732 827.037,-70.4448"/>
<polygon fill="green" stroke="green" stroke-width="0.132626" points="828.292,-73.7221 836.859,-67.4876 826.274,-67.0193 828.292,-73.7221"/>
</g>
<!-- enemyRadar[LeftFront10] -->
<g id="node16" class="node"><title>enemyRadar[LeftFront10]</title>
<polygon fill="lightgray" stroke="black" points="1853.5,-164.309 1743.5,-164.309 1743.5,-146.309 1853.5,-146.309 1853.5,-164.309"/>
<text text-anchor="middle" x="1798.5" y="-153.109" font-family="Times,serif" font-size="9.00">enemyRadar[LeftFront10]</text>
</g>
<!-- enemyRadar[LeftFront10]&#45;&gt;Shoot -->
<g id="edge13" class="edge"><title>enemyRadar[LeftFront10]&#45;&gt;Shoot</title>
<path fill="none" stroke="green" stroke-width="0.346264" d="M1792.94,-146.276C1783.9,-133.238 1765.6,-106.825 1751.14,-85.9478"/>
<polygon fill="green" stroke="green" stroke-width="0.346264" points="1753.99,-83.9102 1745.42,-77.6833 1748.23,-87.8966 1753.99,-83.9102"/>
</g>
<!-- enemyRadar[LeftFront10]&#45;&gt;Move Forward -->
<g id="edge21" class="edge"><title>enemyRadar[LeftFront10]&#45;&gt;Move Forward</title>
<path fill="none" stroke="red" stroke-width="0.498883" d="M1743.36,-147.243C1740.37,-146.913 1737.4,-146.599 1734.5,-146.309 1523.84,-125.172 1465.25,-160.211 1259.5,-110.309 1234.26,-104.188 1207.62,-93.6418 1185.22,-83.4735"/>
<polygon fill="red" stroke="red" stroke-width="0.498883" points="1186.44,-80.181 1175.89,-79.1527 1183.5,-86.5324 1186.44,-80.181"/>
</g>
<!-- enemyRadar[LeftFront10]&#45;&gt;Move right -->
<g id="edge47" class="edge"><title>enemyRadar[LeftFront10]&#45;&gt;Move right</title>
<path fill="none" stroke="green" stroke-width="0.121807" d="M1803.16,-146.276C1809.29,-135.731 1820.49,-116.437 1830.97,-98.3993"/>
<polygon fill="green" stroke="green" stroke-width="0.121807" points="1834.03,-100.094 1836.03,-89.689 1827.98,-96.5789 1834.03,-100.094"/>
</g>
<!-- enemyRadar[LeftFront10]&#45;&gt;Turn Right -->
<g id="edge73" class="edge"><title>enemyRadar[LeftFront10]&#45;&gt;Turn Right</title>
<path fill="none" stroke="green" stroke-width="0.188043" d="M1743.37,-147.168C1740.37,-146.858 1737.4,-146.568 1734.5,-146.309 1441.02,-120.019 1363.36,-157.443 1072.5,-110.309 1019.96,-101.795 961.339,-84.7846 921.61,-72.0884"/>
<polygon fill="green" stroke="green" stroke-width="0.188043" points="922.523,-68.7054 911.931,-68.9613 920.371,-75.3663 922.523,-68.7054"/>
</g>
<!-- enemyRadar[RightFront3.5] -->
<g id="node17" class="node"><title>enemyRadar[RightFront3.5]</title>
<polygon fill="lightgray" stroke="black" points="313,-164.309 196,-164.309 196,-146.309 313,-146.309 313,-164.309"/>
<text text-anchor="middle" x="254.5" y="-153.109" font-family="Times,serif" font-size="9.00">enemyRadar[RightFront3.5]</text>
</g>
<!-- enemyRadar[RightFront3.5]&#45;&gt;Move Forward -->
<g id="edge52" class="edge"><title>enemyRadar[RightFront3.5]&#45;&gt;Move Forward</title>
<path fill="none" stroke="green" stroke-width="0.271217" d="M313.083,-147.201C316.267,-146.882 319.421,-146.582 322.5,-146.309 589.043,-122.666 659.212,-152.218 923.5,-110.309 975.191,-102.112 1032.68,-86.6413 1074.09,-74.3277"/>
<polygon fill="green" stroke="green" stroke-width="0.271217" points="1075.16,-77.6612 1083.73,-71.4325 1073.15,-70.9571 1075.16,-77.6612"/>
</g>
<!-- enemyRadar[RightFront3.5]&#45;&gt; Move Backward -->
<g id="edge58" class="edge"><title>enemyRadar[RightFront3.5]&#45;&gt; Move Backward</title>
<path fill="none" stroke="red" stroke-width="0.25509" d="M282.651,-146.276C337.628,-130.589 460.462,-95.541 535.718,-74.068"/>
<polygon fill="red" stroke="red" stroke-width="0.25509" points="536.901,-77.3703 545.557,-71.2608 534.98,-70.639 536.901,-77.3703"/>
</g>
<!-- enemyRadar[LeftFront3.5] -->
<g id="node18" class="node"><title>enemyRadar[LeftFront3.5]</title>
<polygon fill="lightgray" stroke="black" points="1397.5,-164.309 1285.5,-164.309 1285.5,-146.309 1397.5,-146.309 1397.5,-164.309"/>
<text text-anchor="middle" x="1341.5" y="-153.109" font-family="Times,serif" font-size="9.00">enemyRadar[LeftFront3.5]</text>
</g>
<!-- enemyRadar[LeftFront3.5]&#45;&gt;Move Left -->
<g id="edge75" class="edge"><title>enemyRadar[LeftFront3.5]&#45;&gt;Move Left</title>
<path fill="none" stroke="green" stroke-width="0.174782" d="M1338.64,-146.276C1335.05,-136.232 1328.64,-118.25 1322.48,-100.977"/>
<polygon fill="green" stroke="green" stroke-width="0.174782" points="1325.76,-99.7515 1319.11,-91.5079 1319.17,-102.103 1325.76,-99.7515"/>
</g>
<!-- enemyRadar[RightFront1.5] -->
<g id="node19" class="node"><title>enemyRadar[RightFront1.5]</title>
<polygon fill="lightgray" stroke="black" points="2088,-164.309 1971,-164.309 1971,-146.309 2088,-146.309 2088,-164.309"/>
<text text-anchor="middle" x="2029.5" y="-153.109" font-family="Times,serif" font-size="9.00">enemyRadar[RightFront1.5]</text>
</g>
<!-- enemyRadar[RightFront1.5]&#45;&gt;Shoot -->
<g id="edge19" class="edge"><title>enemyRadar[RightFront1.5]&#45;&gt;Shoot</title>
<path fill="none" stroke="red" stroke-width="0.265043" d="M1975.31,-146.308C1919.38,-137.572 1836.22,-123.117 1806.5,-110.309 1789.13,-102.821 1771.79,-90.8972 1758.07,-80.1421"/>
<polygon fill="red" stroke="red" stroke-width="0.265043" points="1760.01,-77.2071 1750.03,-73.6467 1755.61,-82.6528 1760.01,-77.2071"/>
</g>
<!-- enemyRadar[RightFront1.5]&#45;&gt;Move Forward -->
<g id="edge20" class="edge"><title>enemyRadar[RightFront1.5]&#45;&gt;Move Forward</title>
<path fill="none" stroke="green" stroke-width="0.524926" stroke-dasharray="1,5" d="M1970.7,-147.059C1967.93,-146.79 1965.18,-146.537 1962.5,-146.309 1650.78,-119.747 1564.42,-180.323 1259.5,-110.309 1234.09,-104.473 1207.32,-93.915 1184.87,-83.6607"/>
<polygon fill="green" stroke="green" stroke-width="0.524926" points="1186.07,-80.3591 1175.53,-79.2992 1183.11,-86.7017 1186.07,-80.3591"/>
</g>
<!-- enemyRadar[RightFront1.5]&#45;&gt;Move Left -->
<g id="edge55" class="edge"><title>enemyRadar[RightFront1.5]&#45;&gt;Move Left</title>
<path fill="none" stroke="green" stroke-width="0.313742" d="M1970.69,-147.111C1967.92,-146.828 1965.18,-146.558 1962.5,-146.309 1723.44,-124.069 1656.12,-169.729 1423.5,-110.309 1397.31,-103.62 1369.8,-91.1923 1348.04,-79.9283"/>
<polygon fill="green" stroke="green" stroke-width="0.313742" points="1349.56,-76.7739 1339.08,-75.1922 1346.29,-82.9617 1349.56,-76.7739"/>
</g>
<!-- enemyRadar[RightFront1.5]&#45;&gt;Move right -->
<g id="edge5" class="edge"><title>enemyRadar[RightFront1.5]&#45;&gt;Move right</title>
<path fill="none" stroke="green" stroke-width="0.300828" d="M2015.26,-146.276C1990.09,-132.077 1936.79,-102.012 1898.68,-80.5129"/>
<polygon fill="green" stroke="green" stroke-width="0.300828" points="1900.26,-77.3848 1889.83,-75.5199 1896.82,-83.4816 1900.26,-77.3848"/>
</g>
<!-- enemyRadar[LeftFront1.5] -->
<g id="node20" class="node"><title>enemyRadar[LeftFront1.5]</title>
<polygon fill="lightgray" stroke="black" points="2371.5,-164.309 2259.5,-164.309 2259.5,-146.309 2371.5,-146.309 2371.5,-164.309"/>
<text text-anchor="middle" x="2315.5" y="-153.109" font-family="Times,serif" font-size="9.00">enemyRadar[LeftFront1.5]</text>
</g>
<!-- enemyRadar[LeftFront1.5]&#45;&gt;Shoot -->
<g id="edge32" class="edge"><title>enemyRadar[LeftFront1.5]&#45;&gt;Shoot</title>
<path fill="none" stroke="green" stroke-width="0.193545" d="M2259.5,-147.266C2256.45,-146.93 2253.44,-146.609 2250.5,-146.309 2152.02,-136.26 1899.49,-144.253 1806.5,-110.309 1788.73,-103.822 1771.36,-91.986 1757.72,-81.0304"/>
<polygon fill="green" stroke="green" stroke-width="0.193545" points="1759.66,-78.093 1749.74,-74.3784 1755.18,-83.4699 1759.66,-78.093"/>
</g>
<!-- OnTarget -->
<g id="node21" class="node"><title>OnTarget</title>
<polygon fill="lightgray" stroke="black" points="381.5,-164.309 331.5,-164.309 331.5,-146.309 381.5,-146.309 381.5,-164.309"/>
<text text-anchor="middle" x="356.5" y="-153.109" font-family="Times,serif" font-size="9.00">OnTarget</text>
</g>
<!-- OnTarget&#45;&gt; Move Backward -->
<g id="edge11" class="edge"><title>OnTarget&#45;&gt; Move Backward</title>
<path fill="none" stroke="green" stroke-width="0.23356" d="M376.304,-146.276C411.233,-132.109 485.096,-102.151 538.077,-80.6617"/>
<polygon fill="green" stroke="green" stroke-width="0.23356" points="539.43,-83.8899 547.381,-76.8879 536.799,-77.4031 539.43,-83.8899"/>
</g>
<!-- OnTarget&#45;&gt;Move Left -->
<g id="edge28" class="edge"><title>OnTarget&#45;&gt;Move Left</title>
<path fill="none" stroke="green" stroke-width="0.672436" d="M381.653,-147.84C384.62,-147.241 387.617,-146.709 390.5,-146.309 566.765,-121.823 1017.68,-152.761 1190.5,-110.309 1216.37,-103.953 1243.45,-91.6752 1264.93,-80.4151"/>
<polygon fill="green" stroke="green" stroke-width="0.672436" points="1266.62,-83.4829 1273.78,-75.6719 1263.31,-77.3141 1266.62,-83.4829"/>
</g>
<!-- bias -->
<g id="node22" class="node"><title>bias</title>
<polygon fill="lightgray" stroke="black" points="2137,-164.309 2106,-164.309 2106,-146.309 2137,-146.309 2137,-164.309"/>
<text text-anchor="middle" x="2121.5" y="-153.109" font-family="Times,serif" font-size="9.00">bias</text>
</g>
<!-- bias&#45;&gt;Shoot -->
<g id="edge45" class="edge"><title>bias&#45;&gt;Shoot</title>
<path fill="none" stroke="green" stroke-width="0.417867" d="M2105.88,-148.605C2103.11,-147.739 2100.24,-146.929 2097.5,-146.309 1970.39,-117.562 1927.95,-157.567 1806.5,-110.309 1788.87,-103.448 1771.51,-91.5799 1757.84,-80.6991"/>
<polygon fill="green" stroke="green" stroke-width="0.417867" points="1759.79,-77.7637 1749.84,-74.1055 1755.33,-83.1659 1759.79,-77.7637"/>
</g>
<!-- bias&#45;&gt;Move Forward -->
<g id="edge33" class="edge"><title>bias&#45;&gt;Move Forward</title>
<path fill="none" stroke="green" stroke-width="0.1819" d="M2105.91,-148.419C2103.15,-147.573 2100.26,-146.818 2097.5,-146.309 1730.89,-78.7099 1623.17,-192.24 1259.5,-110.309 1234.06,-104.578 1207.29,-94.0359 1184.85,-83.7655"/>
<polygon fill="green" stroke="green" stroke-width="0.1819" points="1186.05,-80.4641 1175.51,-79.3953 1183.08,-86.8042 1186.05,-80.4641"/>
</g>
<!-- bias&#45;&gt;Move Left -->
<g id="edge71" class="edge"><title>bias&#45;&gt;Move Left</title>
<path fill="none" stroke="green" stroke-width="0.795134" d="M2105.91,-148.443C2103.14,-147.595 2100.26,-146.833 2097.5,-146.309 1802.78,-90.3744 1714.64,-182.614 1423.5,-110.309 1397.27,-103.794 1369.75,-91.3769 1348,-80.0746"/>
<polygon fill="green" stroke="green" stroke-width="0.795134" points="1349.52,-76.9209 1339.05,-75.3194 1346.24,-83.1024 1349.52,-76.9209"/>
</g>
<!-- bias&#45;&gt;Move right -->
<g id="edge38" class="edge"><title>bias&#45;&gt;Move right</title>
<path fill="none" stroke="green" stroke-width="0.203587" d="M2105.66,-148.463C2066.35,-133.958 1963.14,-95.8753 1902.28,-73.4157"/>
<polygon fill="green" stroke="green" stroke-width="0.203587" points="1903.12,-69.9951 1892.53,-69.8168 1900.7,-76.5623 1903.12,-69.9951"/>
</g>
<!-- bias&#45;&gt;Turn Left -->
<g id="edge24" class="edge"><title>bias&#45;&gt;Turn Left</title>
<path fill="none" stroke="green" stroke-width="0.566067" d="M2105.89,-148.526C2103.13,-147.669 2100.25,-146.882 2097.5,-146.309 1921.46,-109.628 1871.98,-139.249 1694.5,-110.309 1630,-99.791 1556.66,-81.0279 1511.23,-68.5855"/>
<polygon fill="green" stroke="green" stroke-width="0.566067" points="1511.99,-65.1637 1501.41,-65.8772 1510.12,-71.9115 1511.99,-65.1637"/>
</g>
</g>
</svg>
