<?xml version="1.0" encoding="UTF-8" standalone="no"?>
<!DOCTYPE svg PUBLIC "-//W3C//DTD SVG 1.1//EN"
 "http://www.w3.org/Graphics/SVG/1.1/DTD/svg11.dtd">
<!-- Generated by graphviz version 2.38.0 (20140413.2041)
 -->
<!-- Title: %3 Pages: 1 -->
<svg width="2532pt" height="295pt"
 viewBox="0.00 0.00 2532.16 294.58" xmlns="http://www.w3.org/2000/svg" xmlns:xlink="http://www.w3.org/1999/xlink">
<g id="graph0" class="graph" transform="scale(1 1) rotate(0) translate(4 290.576)">
<title>%3</title>
<polygon fill="white" stroke="none" points="-4,4 -4,-290.576 2528.16,-290.576 2528.16,4 -4,4"/>
<!-- wallRadar[1,0] -->
<g id="node1" class="node"><title>wallRadar[1,0]</title>
<polygon fill="lightgray" stroke="black" points="617.164,-220.362 547.164,-220.362 547.164,-202.362 617.164,-202.362 617.164,-220.362"/>
<text text-anchor="middle" x="582.164" y="-209.162" font-family="Times,serif" font-size="9.00">wallRadar[1,0]</text>
</g>
<!-- Move Forward/Backward -->
<g id="node25" class="node"><title>Move Forward/Backward</title>
<ellipse fill="lightblue" stroke="black" cx="944.164" cy="-77.0746" rx="77.1494" ry="77.1494"/>
<text text-anchor="middle" x="944.164" y="-74.8746" font-family="Times,serif" font-size="9.00">Move Forward/Backward</text>
</g>
<!-- wallRadar[1,0]&#45;&gt;Move Forward/Backward -->
<g id="edge14" class="edge"><title>wallRadar[1,0]&#45;&gt;Move Forward/Backward</title>
<path fill="none" stroke="green" stroke-width="0.37744" stroke-dasharray="1,5" d="M598.722,-202.319C606.903,-198.458 616.97,-193.872 626.164,-190.149 704.867,-158.281 796.476,-126.545 861.098,-105.023"/>
<polygon fill="green" stroke="green" stroke-width="0.37744" points="862.444,-108.264 870.832,-101.79 860.238,-101.62 862.444,-108.264"/>
</g>
<!-- wallRadar[0,1] -->
<g id="node2" class="node"><title>wallRadar[0,1]</title>
<polygon fill="lightgray" stroke="black" points="1171.16,-220.362 1101.16,-220.362 1101.16,-202.362 1171.16,-202.362 1171.16,-220.362"/>
<text text-anchor="middle" x="1136.16" y="-209.162" font-family="Times,serif" font-size="9.00">wallRadar[0,1]</text>
</g>
<!-- wallRadar[0,1]&#45;&gt;Move Forward/Backward -->
<g id="edge30" class="edge"><title>wallRadar[0,1]&#45;&gt;Move Forward/Backward</title>
<path fill="none" stroke="green" stroke-width="0.468787" d="M1124.44,-202.286C1103.04,-187.539 1056.09,-155.189 1015.47,-127.201"/>
<polygon fill="green" stroke="green" stroke-width="0.468787" points="1017.39,-124.277 1007.17,-121.486 1013.42,-130.042 1017.39,-124.277"/>
</g>
<!--  Move Left/Right -->
<g id="node26" class="node"><title> Move Left/Right</title>
<ellipse fill="lightblue" stroke="black" cx="1484.16" cy="-77.0746" rx="55.3091" ry="55.3091"/>
<text text-anchor="middle" x="1484.16" y="-74.8746" font-family="Times,serif" font-size="9.00"> Move Left/Right</text>
</g>
<!-- wallRadar[0,1]&#45;&gt; Move Left/Right -->
<g id="edge18" class="edge"><title>wallRadar[0,1]&#45;&gt; Move Left/Right</title>
<path fill="none" stroke="green" stroke-width="0.28979" d="M1155.19,-202.346C1164.24,-198.575 1175.23,-194.058 1185.16,-190.149 1267.18,-157.871 1362.66,-122.456 1423.23,-100.252"/>
<polygon fill="green" stroke="green" stroke-width="0.28979" points="1424.46,-103.529 1432.65,-96.8043 1422.06,-96.9563 1424.46,-103.529"/>
</g>
<!-- wallRadar[&#45;1,0] -->
<g id="node3" class="node"><title>wallRadar[&#45;1,0]</title>
<polygon fill="lightgray" stroke="black" points="1806.66,-220.362 1733.66,-220.362 1733.66,-202.362 1806.66,-202.362 1806.66,-220.362"/>
<text text-anchor="middle" x="1770.16" y="-209.162" font-family="Times,serif" font-size="9.00">wallRadar[&#45;1,0]</text>
</g>
<!-- Shoot -->
<g id="node24" class="node"><title>Shoot</title>
<ellipse fill="lightblue" stroke="black" cx="1927.16" cy="-77.0746" rx="26.7407" ry="26.7407"/>
<text text-anchor="middle" x="1927.16" y="-74.8746" font-family="Times,serif" font-size="9.00">Shoot</text>
</g>
<!-- wallRadar[&#45;1,0]&#45;&gt;Shoot -->
<g id="edge19" class="edge"><title>wallRadar[&#45;1,0]&#45;&gt;Shoot</title>
<path fill="none" stroke="green" stroke-width="0.39707" stroke-dasharray="1,5" d="M1779.99,-202.087C1803.45,-182.314 1863.48,-131.735 1899.21,-101.631"/>
<polygon fill="green" stroke="green" stroke-width="0.39707" points="1901.48,-104.294 1906.87,-95.1741 1896.97,-98.9412 1901.48,-104.294"/>
</g>
<!-- wallRadar[&#45;1,0]&#45;&gt;Move Forward/Backward -->
<g id="edge38" class="edge"><title>wallRadar[&#45;1,0]&#45;&gt;Move Forward/Backward</title>
<path fill="none" stroke="green" stroke-width="0.549715" d="M1754.83,-202.254C1746.08,-197.98 1734.77,-193.038 1724.16,-190.149 1592.89,-154.391 1554.92,-172.889 1420.16,-154.149 1283.47,-135.14 1125.36,-109.052 1030.15,-92.8942"/>
<polygon fill="green" stroke="green" stroke-width="0.549715" points="1030.72,-89.4421 1020.28,-91.2168 1029.55,-96.3431 1030.72,-89.4421"/>
</g>
<!-- wallRadar[&#45;1,0]&#45;&gt; Move Left/Right -->
<g id="edge29" class="edge"><title>wallRadar[&#45;1,0]&#45;&gt; Move Left/Right</title>
<path fill="none" stroke="red" stroke-width="0.16193" d="M1752.7,-202.286C1712.02,-183.466 1609.34,-135.976 1543.39,-105.471"/>
<polygon fill="red" stroke="red" stroke-width="0.16193" points="1544.49,-102.12 1533.94,-101.099 1541.55,-108.473 1544.49,-102.12"/>
</g>
<!-- wallRadar[0,&#45;1] -->
<g id="node4" class="node"><title>wallRadar[0,&#45;1]</title>
<polygon fill="lightgray" stroke="black" points="2278.66,-220.362 2205.66,-220.362 2205.66,-202.362 2278.66,-202.362 2278.66,-220.362"/>
<text text-anchor="middle" x="2242.16" y="-209.162" font-family="Times,serif" font-size="9.00">wallRadar[0,&#45;1]</text>
</g>
<!-- wallRadar[0,&#45;1]&#45;&gt;Shoot -->
<g id="edge17" class="edge"><title>wallRadar[0,&#45;1]&#45;&gt;Shoot</title>
<path fill="none" stroke="red" stroke-width="0.196811" d="M2222.93,-202.286C2170.97,-180.463 2027.22,-120.092 1961.16,-92.3517"/>
<polygon fill="red" stroke="red" stroke-width="0.196811" points="1962.2,-88.9922 1951.62,-88.3471 1959.49,-95.4462 1962.2,-88.9922"/>
</g>
<!-- wallRadar[0.7,0.7] -->
<g id="node5" class="node"><title>wallRadar[0.7,0.7]</title>
<polygon fill="lightgray" stroke="black" points="251.664,-220.362 168.664,-220.362 168.664,-202.362 251.664,-202.362 251.664,-220.362"/>
<text text-anchor="middle" x="210.164" y="-209.162" font-family="Times,serif" font-size="9.00">wallRadar[0.7,0.7]</text>
</g>
<!-- wallRadar[0.7,0.7]&#45;&gt;Move Forward/Backward -->
<g id="edge5" class="edge"><title>wallRadar[0.7,0.7]&#45;&gt;Move Forward/Backward</title>
<path fill="none" stroke="green" stroke-width="0.383784" d="M227.419,-202.282C236.905,-198.123 248.985,-193.283 260.164,-190.149 316.896,-174.247 687.154,-117.082 858.018,-91.0957"/>
<polygon fill="green" stroke="green" stroke-width="0.383784" points="858.627,-94.5434 867.987,-89.5805 857.575,-87.6229 858.627,-94.5434"/>
</g>
<!-- Turn left/right -->
<g id="node27" class="node"><title>Turn left/right</title>
<ellipse fill="lightblue" stroke="black" cx="374.164" cy="-77.0746" rx="46.8387" ry="46.8387"/>
<text text-anchor="middle" x="374.164" y="-74.8746" font-family="Times,serif" font-size="9.00">Turn left/right</text>
</g>
<!-- wallRadar[0.7,0.7]&#45;&gt;Turn left/right -->
<g id="edge34" class="edge"><title>wallRadar[0.7,0.7]&#45;&gt;Turn left/right</title>
<path fill="none" stroke="green" stroke-width="0.311034" d="M220.423,-202.087C241.872,-184.786 292.562,-143.898 329.9,-113.779"/>
<polygon fill="green" stroke="green" stroke-width="0.311034" points="332.539,-116.148 338.125,-107.145 328.144,-110.7 332.539,-116.148"/>
</g>
<!-- wallRadar[&#45;0.7,0.7] -->
<g id="node6" class="node"><title>wallRadar[&#45;0.7,0.7]</title>
<polygon fill="lightgray" stroke="black" points="1911.16,-220.362 1825.16,-220.362 1825.16,-202.362 1911.16,-202.362 1911.16,-220.362"/>
<text text-anchor="middle" x="1868.16" y="-209.162" font-family="Times,serif" font-size="9.00">wallRadar[&#45;0.7,0.7]</text>
</g>
<!-- wallRadar[&#45;0.7,0.7]&#45;&gt;Shoot -->
<g id="edge49" class="edge"><title>wallRadar[&#45;0.7,0.7]&#45;&gt;Shoot</title>
<path fill="none" stroke="red" stroke-width="0.129445" d="M1871.86,-202.087C1879.78,-184.325 1898.79,-141.703 1912.3,-111.396"/>
<polygon fill="red" stroke="red" stroke-width="0.129445" points="1915.6,-112.594 1916.48,-102.036 1909.21,-109.743 1915.6,-112.594"/>
</g>
<!-- wallRadar[&#45;0.7,0.7]&#45;&gt;Move Forward/Backward -->
<g id="edge12" class="edge"><title>wallRadar[&#45;0.7,0.7]&#45;&gt;Move Forward/Backward</title>
<path fill="none" stroke="red" stroke-width="0.292969" d="M1850.75,-202.178C1840.83,-197.88 1828.05,-192.94 1816.16,-190.149 1644.12,-149.739 1595.52,-176.107 1420.16,-154.149 1283.22,-137.001 1125.18,-110.377 1030.05,-93.6012"/>
<polygon fill="red" stroke="red" stroke-width="0.292969" points="1030.65,-90.1526 1020.19,-91.858 1029.43,-97.0457 1030.65,-90.1526"/>
</g>
<!-- wallRadar[&#45;0.7,0.7]&#45;&gt; Move Left/Right -->
<g id="edge32" class="edge"><title>wallRadar[&#45;0.7,0.7]&#45;&gt; Move Left/Right</title>
<path fill="none" stroke="red" stroke-width="0.163431" d="M1847.99,-202.278C1838.39,-198.492 1826.73,-193.982 1816.16,-190.149 1722.55,-156.175 1612.91,-119.823 1546.01,-98.0268"/>
<polygon fill="red" stroke="red" stroke-width="0.163431" points="1547.05,-94.6845 1536.46,-94.9186 1544.89,-101.341 1547.05,-94.6845"/>
</g>
<!-- wallRadar[&#45;0.7,&#45;0.7] -->
<g id="node7" class="node"><title>wallRadar[&#45;0.7,&#45;0.7]</title>
<polygon fill="lightgray" stroke="black" points="358.664,-220.362 269.664,-220.362 269.664,-202.362 358.664,-202.362 358.664,-220.362"/>
<text text-anchor="middle" x="314.164" y="-209.162" font-family="Times,serif" font-size="9.00">wallRadar[&#45;0.7,&#45;0.7]</text>
</g>
<!-- wallRadar[&#45;0.7,&#45;0.7]&#45;&gt;Move Forward/Backward -->
<g id="edge28" class="edge"><title>wallRadar[&#45;0.7,&#45;0.7]&#45;&gt;Move Forward/Backward</title>
<path fill="none" stroke="green" stroke-width="0.108782" d="M333.401,-202.273C343.596,-198.214 356.411,-193.468 368.164,-190.149 538.995,-141.918 744.117,-107.422 857.712,-90.3085"/>
<polygon fill="green" stroke="green" stroke-width="0.108782" points="858.372,-93.7487 867.744,-88.8065 857.336,-86.8259 858.372,-93.7487"/>
</g>
<!-- wallRadar[&#45;0.7,&#45;0.7]&#45;&gt;Turn left/right -->
<g id="edge22" class="edge"><title>wallRadar[&#45;0.7,&#45;0.7]&#45;&gt;Turn left/right</title>
<path fill="none" stroke="green" stroke-width="0.1862" d="M317.918,-202.087C324.51,-187.553 338.652,-156.373 351.106,-128.915"/>
<polygon fill="green" stroke="green" stroke-width="0.1862" points="354.308,-130.328 355.251,-119.775 347.933,-127.437 354.308,-130.328"/>
</g>
<!-- wallRadar[0.7,&#45;0.7] -->
<g id="node8" class="node"><title>wallRadar[0.7,&#45;0.7]</title>
<polygon fill="lightgray" stroke="black" points="2149.16,-220.362 2063.16,-220.362 2063.16,-202.362 2149.16,-202.362 2149.16,-220.362"/>
<text text-anchor="middle" x="2106.16" y="-209.162" font-family="Times,serif" font-size="9.00">wallRadar[0.7,&#45;0.7]</text>
</g>
<!-- wallRadar[0.7,&#45;0.7]&#45;&gt;Shoot -->
<g id="edge40" class="edge"><title>wallRadar[0.7,&#45;0.7]&#45;&gt;Shoot</title>
<path fill="none" stroke="red" stroke-width="0.230986" d="M2095.24,-202.286C2068.17,-182.28 1997.26,-129.88 1956.72,-99.9197"/>
<polygon fill="red" stroke="red" stroke-width="0.230986" points="1958.68,-97.0156 1948.56,-93.8869 1954.52,-102.645 1958.68,-97.0156"/>
</g>
<!-- wallRadar[0.7,&#45;0.7]&#45;&gt; Move Left/Right -->
<g id="edge33" class="edge"><title>wallRadar[0.7,&#45;0.7]&#45;&gt; Move Left/Right</title>
<path fill="none" stroke="green" stroke-width="0.192303" d="M2087.67,-202.253C2077.85,-198.188 2065.51,-193.443 2054.16,-190.149 2005.91,-176.147 1687.43,-116.041 1548.64,-90.0861"/>
<polygon fill="green" stroke="green" stroke-width="0.192303" points="1549.03,-86.5998 1538.56,-88.203 1547.75,-93.4807 1549.03,-86.5998"/>
</g>
<!-- enemyRadar[RightBack] -->
<g id="node9" class="node"><title>enemyRadar[RightBack]</title>
<polygon fill="lightgray" stroke="black" points="1715.16,-220.362 1611.16,-220.362 1611.16,-202.362 1715.16,-202.362 1715.16,-220.362"/>
<text text-anchor="middle" x="1663.16" y="-209.162" font-family="Times,serif" font-size="9.00">enemyRadar[RightBack]</text>
</g>
<!-- enemyRadar[RightBack]&#45;&gt; Move Left/Right -->
<g id="edge9" class="edge"><title>enemyRadar[RightBack]&#45;&gt; Move Left/Right</title>
<path fill="none" stroke="red" stroke-width="0.382679" d="M1652.24,-202.286C1629.73,-185.65 1576.9,-146.612 1536.44,-116.705"/>
<polygon fill="red" stroke="red" stroke-width="0.382679" points="1538.38,-113.793 1528.26,-110.664 1534.22,-119.422 1538.38,-113.793"/>
</g>
<!-- enemyRadar[LeftBack] -->
<g id="node10" class="node"><title>enemyRadar[LeftBack]</title>
<polygon fill="lightgray" stroke="black" points="734.664,-286.576 635.664,-286.576 635.664,-268.576 734.664,-268.576 734.664,-286.576"/>
<text text-anchor="middle" x="685.164" y="-275.376" font-family="Times,serif" font-size="9.00">enemyRadar[LeftBack]</text>
</g>
<!-- enemyRadar[LeftBack]&#45;&gt;Move Forward/Backward -->
<g id="edge2" class="edge"><title>enemyRadar[LeftBack]&#45;&gt;Move Forward/Backward</title>
<path fill="none" stroke="red" stroke-width="0.398124" d="M635.331,-276.052C602.013,-272.771 560.357,-262.384 538.164,-232.576 526.904,-217.451 526.742,-205.152 538.164,-190.149 576.677,-139.565 750.196,-105.99 857.542,-89.656"/>
<polygon fill="red" stroke="red" stroke-width="0.398124" points="858.348,-93.0744 867.717,-88.1291 857.309,-86.1519 858.348,-93.0744"/>
</g>
<!-- enemyRadar[LeftBack]&#45;&gt; Move Left/Right -->
<g id="edge13" class="edge"><title>enemyRadar[LeftBack]&#45;&gt; Move Left/Right</title>
<path fill="none" stroke="green" stroke-width="0.699831" stroke-dasharray="1,5" d="M734.996,-274.221C852.7,-268.365 1141.02,-252.191 1180.16,-232.576 1202.8,-221.235 1197.56,-204.849 1218.16,-190.149 1281.09,-145.267 1364.75,-113.784 1421.32,-95.8468"/>
<polygon fill="green" stroke="green" stroke-width="0.699831" points="1422.7,-99.0821 1431.2,-92.7624 1420.61,-92.3997 1422.7,-99.0821"/>
</g>
<!-- enemyRadar[LeftBack]&#45;&gt;Turn left/right -->
<g id="edge41" class="edge"><title>enemyRadar[LeftBack]&#45;&gt;Turn left/right</title>
<path fill="none" stroke="green" stroke-width="0.182491" d="M635.584,-277.104C488.306,-278.159 61.0365,-277.305 19.1644,-232.576 -72.6712,-134.473 195.439,-95.3692 317.305,-82.9453"/>
<polygon fill="green" stroke="green" stroke-width="0.182491" points="317.97,-86.3966 327.576,-81.9261 317.279,-79.4308 317.97,-86.3966"/>
</g>
<!-- 498 -->
<g id="node29" class="node"><title>498</title>
<ellipse fill="white" stroke="black" cx="1248.16" cy="-211.362" rx="21.4286" ry="21.4286"/>
<text text-anchor="middle" x="1248.16" y="-209.162" font-family="Times,serif" font-size="9.00">498</text>
</g>
<!-- enemyRadar[LeftBack]&#45;&gt;498 -->
<g id="edge50" class="edge"><title>enemyRadar[LeftBack]&#45;&gt;498</title>
<path fill="none" stroke="green" stroke-width="0.211413" d="M734.741,-275.207C848.39,-271.626 1124.72,-260.267 1213.16,-232.576 1216.15,-231.641 1219.15,-230.42 1222.08,-229.039"/>
<polygon fill="green" stroke="green" stroke-width="0.211413" points="1223.89,-232.043 1231.06,-224.245 1220.59,-225.868 1223.89,-232.043"/>
</g>
<!-- enemyRadar[Right45ø] -->
<g id="node11" class="node"><title>enemyRadar[Right45ø]</title>
<polygon fill="lightgray" stroke="black" points="1083.16,-220.362 983.164,-220.362 983.164,-202.362 1083.16,-202.362 1083.16,-220.362"/>
<text text-anchor="middle" x="1033.16" y="-209.162" font-family="Times,serif" font-size="9.00">enemyRadar[Right45ø]</text>
</g>
<!-- enemyRadar[Right45ø]&#45;&gt;Shoot -->
<g id="edge43" class="edge"><title>enemyRadar[Right45ø]&#45;&gt;Shoot</title>
<path fill="none" stroke="red" stroke-width="0.341388" d="M1052.75,-202.264C1064.07,-197.937 1078.7,-192.941 1092.16,-190.149 1291.23,-148.879 1346.81,-182.204 1548.16,-154.149 1675.3,-136.436 1824.02,-102.725 1891.11,-86.8094"/>
<polygon fill="red" stroke="red" stroke-width="0.341388" points="1892.24,-90.1371 1901.16,-84.413 1890.62,-83.328 1892.24,-90.1371"/>
</g>
<!-- enemyRadar[Right45ø]&#45;&gt;Move Forward/Backward -->
<g id="edge1" class="edge"><title>enemyRadar[Right45ø]&#45;&gt;Move Forward/Backward</title>
<path fill="none" stroke="green" stroke-width="0.221323" d="M1027.6,-202.087C1020.27,-191.201 1006.67,-170.977 992.536,-149.974"/>
<polygon fill="green" stroke="green" stroke-width="0.221323" points="995.381,-147.931 986.895,-141.588 989.573,-151.839 995.381,-147.931"/>
</g>
<!-- enemyRadar[Right45ø]&#45;&gt;Turn left/right -->
<g id="edge39" class="edge"><title>enemyRadar[Right45ø]&#45;&gt;Turn left/right</title>
<path fill="none" stroke="green" stroke-width="0.246004" stroke-dasharray="1,5" d="M1012.09,-202.309C1000.94,-198.26 986.939,-193.512 974.164,-190.149 777.102,-138.282 537.546,-101.099 430.526,-85.8053"/>
<polygon fill="green" stroke="green" stroke-width="0.246004" points="430.981,-82.335 420.589,-84.3938 429.997,-89.2654 430.981,-82.335"/>
</g>
<!-- enemyRadar[Left45ø] -->
<g id="node12" class="node"><title>enemyRadar[Left45ø]</title>
<polygon fill="lightgray" stroke="black" points="2391.66,-220.362 2296.66,-220.362 2296.66,-202.362 2391.66,-202.362 2391.66,-220.362"/>
<text text-anchor="middle" x="2344.16" y="-209.162" font-family="Times,serif" font-size="9.00">enemyRadar[Left45ø]</text>
</g>
<!-- enemyRadar[Left45ø]&#45;&gt;Shoot -->
<g id="edge15" class="edge"><title>enemyRadar[Left45ø]&#45;&gt;Shoot</title>
<path fill="none" stroke="red" stroke-width="0.335774" d="M2322.7,-202.358C2312.31,-198.549 2299.63,-193.996 2288.16,-190.149 2169.46,-150.323 2027.18,-107.609 1962.39,-88.4327"/>
<polygon fill="red" stroke="red" stroke-width="0.335774" points="1963.26,-85.039 1952.68,-85.5612 1961.27,-91.7519 1963.26,-85.039"/>
</g>
<!-- enemyRadar[RightFront20ø] -->
<g id="node13" class="node"><title>enemyRadar[RightFront20ø]</title>
<polygon fill="lightgray" stroke="black" points="1406.66,-220.362 1287.66,-220.362 1287.66,-202.362 1406.66,-202.362 1406.66,-220.362"/>
<text text-anchor="middle" x="1347.16" y="-209.162" font-family="Times,serif" font-size="9.00">enemyRadar[RightFront20ø]</text>
</g>
<!-- enemyRadar[RightFront20ø]&#45;&gt;Shoot -->
<g id="edge16" class="edge"><title>enemyRadar[RightFront20ø]&#45;&gt;Shoot</title>
<path fill="none" stroke="green" stroke-width="0.528259" d="M1372.55,-202.334C1385.28,-198.432 1400.97,-193.807 1415.16,-190.149 1592.19,-144.528 1806.7,-101.487 1890.83,-85.0737"/>
<polygon fill="green" stroke="green" stroke-width="0.528259" points="1891.75,-88.4608 1900.9,-83.1158 1890.41,-81.5896 1891.75,-88.4608"/>
</g>
<!-- enemyRadar[RightFront20ø]&#45;&gt;Move Forward/Backward -->
<g id="edge44" class="edge"><title>enemyRadar[RightFront20ø]&#45;&gt;Move Forward/Backward</title>
<path fill="none" stroke="red" stroke-width="0.357931" d="M1322.56,-202.286C1265.12,-183.432 1120.03,-135.805 1027.12,-105.306"/>
<polygon fill="red" stroke="red" stroke-width="0.357931" points="1028.05,-101.928 1017.46,-102.134 1025.87,-108.578 1028.05,-101.928"/>
</g>
<!-- enemyRadar[LeftFront20ø] -->
<g id="node14" class="node"><title>enemyRadar[LeftFront20ø]</title>
<polygon fill="lightgray" stroke="black" points="2524.16,-220.362 2410.16,-220.362 2410.16,-202.362 2524.16,-202.362 2524.16,-220.362"/>
<text text-anchor="middle" x="2467.16" y="-209.162" font-family="Times,serif" font-size="9.00">enemyRadar[LeftFront20ø]</text>
</g>
<!-- enemyRadar[LeftFront20ø]&#45;&gt;Shoot -->
<g id="edge11" class="edge"><title>enemyRadar[LeftFront20ø]&#45;&gt;Shoot</title>
<path fill="none" stroke="green" stroke-width="0.131452" d="M2442.2,-202.299C2429.9,-198.432 2414.81,-193.849 2401.16,-190.149 2238.89,-146.166 2042.77,-102.9 1963.25,-85.7673"/>
<polygon fill="green" stroke="green" stroke-width="0.131452" points="1963.77,-82.2995 1953.26,-83.62 1962.3,-89.1432 1963.77,-82.2995"/>
</g>
<!-- enemyRadar[RightFront15ø] -->
<g id="node15" class="node"><title>enemyRadar[RightFront15ø]</title>
<polygon fill="lightgray" stroke="black" points="1543.66,-220.362 1424.66,-220.362 1424.66,-202.362 1543.66,-202.362 1543.66,-220.362"/>
<text text-anchor="middle" x="1484.16" y="-209.162" font-family="Times,serif" font-size="9.00">enemyRadar[RightFront15ø]</text>
</g>
<!-- enemyRadar[RightFront15ø]&#45;&gt;Shoot -->
<g id="edge35" class="edge"><title>enemyRadar[RightFront15ø]&#45;&gt;Shoot</title>
<path fill="none" stroke="red" stroke-width="0.344155" d="M1511.21,-202.286C1587.75,-179.43 1805.88,-114.293 1891.78,-88.6405"/>
<polygon fill="red" stroke="red" stroke-width="0.344155" points="1893,-91.9285 1901.58,-85.7134 1891,-85.2212 1893,-91.9285"/>
</g>
<!-- enemyRadar[RightFront15ø]&#45;&gt;Move Forward/Backward -->
<g id="edge3" class="edge"><title>enemyRadar[RightFront15ø]&#45;&gt;Move Forward/Backward</title>
<path fill="none" stroke="red" stroke-width="0.237964" d="M1457.71,-202.268C1444.91,-198.438 1429.28,-193.894 1415.16,-190.149 1280.99,-154.557 1123.9,-118.243 1029.31,-96.9517"/>
<polygon fill="red" stroke="red" stroke-width="0.237964" points="1030.03,-93.5264 1019.51,-94.7484 1028.5,-100.356 1030.03,-93.5264"/>
</g>
<!-- enemyRadar[RightFront15ø]&#45;&gt; Move Left/Right -->
<g id="edge48" class="edge"><title>enemyRadar[RightFront15ø]&#45;&gt; Move Left/Right</title>
<path fill="none" stroke="green" stroke-width="0.37793" d="M1484.16,-202.087C1484.16,-189.912 1484.16,-166.055 1484.16,-142.491"/>
<polygon fill="green" stroke="green" stroke-width="0.37793" points="1487.66,-142.445 1484.16,-132.445 1480.66,-142.445 1487.66,-142.445"/>
</g>
<!-- enemyRadar[LeftFront15ø] -->
<g id="node16" class="node"><title>enemyRadar[LeftFront15ø]</title>
<polygon fill="lightgray" stroke="black" points="491.164,-220.362 377.164,-220.362 377.164,-202.362 491.164,-202.362 491.164,-220.362"/>
<text text-anchor="middle" x="434.164" y="-209.162" font-family="Times,serif" font-size="9.00">enemyRadar[LeftFront15ø]</text>
</g>
<!-- enemyRadar[LeftFront15ø]&#45;&gt;Move Forward/Backward -->
<g id="edge42" class="edge"><title>enemyRadar[LeftFront15ø]&#45;&gt;Move Forward/Backward</title>
<path fill="none" stroke="red" stroke-width="0.209094" d="M461.764,-202.315C474.888,-198.537 490.811,-194.024 505.164,-190.149 628.136,-156.954 771.185,-120.912 859.711,-98.9058"/>
<polygon fill="red" stroke="red" stroke-width="0.209094" points="860.571,-102.298 869.433,-96.491 858.884,-95.5049 860.571,-102.298"/>
</g>
<!-- enemyRadar[LeftFront15ø]&#45;&gt;Turn left/right -->
<g id="edge4" class="edge"><title>enemyRadar[LeftFront15ø]&#45;&gt;Turn left/right</title>
<path fill="none" stroke="green" stroke-width="0.408914" d="M430.411,-202.087C423.819,-187.553 409.677,-156.373 397.223,-128.915"/>
<polygon fill="green" stroke="green" stroke-width="0.408914" points="400.396,-127.437 393.078,-119.775 394.021,-130.328 400.396,-127.437"/>
</g>
<!-- enemyRadar[RightFront7.5ø] -->
<g id="node17" class="node"><title>enemyRadar[RightFront7.5ø]</title>
<polygon fill="lightgray" stroke="black" points="150.164,-220.362 28.1644,-220.362 28.1644,-202.362 150.164,-202.362 150.164,-220.362"/>
<text text-anchor="middle" x="89.1644" y="-209.162" font-family="Times,serif" font-size="9.00">enemyRadar[RightFront7.5ø]</text>
</g>
<!-- enemyRadar[RightFront7.5ø]&#45;&gt;Move Forward/Backward -->
<g id="edge23" class="edge"><title>enemyRadar[RightFront7.5ø]&#45;&gt;Move Forward/Backward</title>
<path fill="none" stroke="green" stroke-width="0.292855" d="M113.55,-202.299C126.896,-198.145 143.8,-193.304 159.164,-190.149 285.956,-164.114 319.959,-171.963 448.164,-154.149 592.28,-134.125 759.463,-107.849 858.277,-92.0017"/>
<polygon fill="green" stroke="green" stroke-width="0.292855" points="858.893,-95.4476 868.212,-90.4065 857.784,-88.5362 858.893,-95.4476"/>
</g>
<!-- enemyRadar[RightFront7.5ø]&#45;&gt;Turn left/right -->
<g id="edge7" class="edge"><title>enemyRadar[RightFront7.5ø]&#45;&gt;Turn left/right</title>
<path fill="none" stroke="red" stroke-width="0.33544" d="M106.563,-202.286C148.723,-182.717 257.658,-132.153 322.804,-101.914"/>
<polygon fill="red" stroke="red" stroke-width="0.33544" points="324.488,-104.991 332.085,-97.6064 321.541,-98.642 324.488,-104.991"/>
</g>
<!-- enemyRadar[LeftFront7.5ø] -->
<g id="node18" class="node"><title>enemyRadar[LeftFront7.5ø]</title>
<polygon fill="lightgray" stroke="black" points="2045.16,-220.362 1929.16,-220.362 1929.16,-202.362 2045.16,-202.362 2045.16,-220.362"/>
<text text-anchor="middle" x="1987.16" y="-209.162" font-family="Times,serif" font-size="9.00">enemyRadar[LeftFront7.5ø]</text>
</g>
<!-- enemyRadar[LeftFront7.5ø]&#45;&gt;Shoot -->
<g id="edge20" class="edge"><title>enemyRadar[LeftFront7.5ø]&#45;&gt;Shoot</title>
<path fill="none" stroke="red" stroke-width="0.304522" d="M1983.41,-202.087C1975.33,-184.274 1955.91,-141.458 1942.16,-111.135"/>
<polygon fill="red" stroke="red" stroke-width="0.304522" points="1945.23,-109.438 1937.91,-101.776 1938.86,-112.329 1945.23,-109.438"/>
</g>
<!-- enemyRadar[LeftFront7.5ø]&#45;&gt; Move Left/Right -->
<g id="edge10" class="edge"><title>enemyRadar[LeftFront7.5ø]&#45;&gt; Move Left/Right</title>
<path fill="none" stroke="red" stroke-width="0.429915" d="M1961.47,-202.338C1949.03,-198.523 1933.86,-193.973 1920.16,-190.149 1788.2,-153.299 1632.51,-114.362 1547.48,-93.4762"/>
<polygon fill="red" stroke="red" stroke-width="0.429915" points="1548.26,-90.0647 1537.71,-91.0816 1546.59,-96.8632 1548.26,-90.0647"/>
</g>
<!-- enemyRadar[RightFront2.5ø] -->
<g id="node19" class="node"><title>enemyRadar[RightFront2.5ø]</title>
<polygon fill="lightgray" stroke="black" points="1109.16,-286.576 987.164,-286.576 987.164,-268.576 1109.16,-268.576 1109.16,-286.576"/>
<text text-anchor="middle" x="1048.16" y="-275.376" font-family="Times,serif" font-size="9.00">enemyRadar[RightFront2.5ø]</text>
</g>
<!-- enemyRadar[LeftFront2.5ø] -->
<g id="node20" class="node"><title>enemyRadar[LeftFront2.5ø]</title>
<polygon fill="lightgray" stroke="black" points="751.164,-220.362 635.164,-220.362 635.164,-202.362 751.164,-202.362 751.164,-220.362"/>
<text text-anchor="middle" x="693.164" y="-209.162" font-family="Times,serif" font-size="9.00">enemyRadar[LeftFront2.5ø]</text>
</g>
<!-- enemyRadar[LeftFront2.5ø]&#45;&gt; Move Left/Right -->
<g id="edge31" class="edge"><title>enemyRadar[LeftFront2.5ø]&#45;&gt; Move Left/Right</title>
<path fill="none" stroke="green" stroke-width="0.245984" d="M716.478,-202.272C729.246,-198.11 745.426,-193.27 760.164,-190.149 886.362,-163.425 920.589,-173.241 1048.16,-154.149 1180.7,-134.315 1335.02,-106.196 1419.92,-90.287"/>
<polygon fill="green" stroke="green" stroke-width="0.245984" points="1420.74,-93.6941 1429.92,-88.4088 1419.45,-86.8143 1420.74,-93.6941"/>
</g>
<!-- enemyRadar[LeftFront2.5ø]&#45;&gt;Turn left/right -->
<g id="edge36" class="edge"><title>enemyRadar[LeftFront2.5ø]&#45;&gt;Turn left/right</title>
<path fill="none" stroke="red" stroke-width="0.191802" d="M673.69,-202.286C625.336,-182.234 498.507,-129.639 426.345,-99.7138"/>
<polygon fill="red" stroke="red" stroke-width="0.191802" points="427.546,-96.4228 416.968,-95.8252 424.865,-102.889 427.546,-96.4228"/>
</g>
<!-- enemyRadar[Front7Ø] -->
<g id="node21" class="node"><title>enemyRadar[Front7Ø]</title>
<polygon fill="lightgray" stroke="black" points="867.164,-220.362 769.164,-220.362 769.164,-202.362 867.164,-202.362 867.164,-220.362"/>
<text text-anchor="middle" x="818.164" y="-209.162" font-family="Times,serif" font-size="9.00">enemyRadar[Front7Ø]</text>
</g>
<!-- enemyRadar[Front7Ø]&#45;&gt; Move Left/Right -->
<g id="edge6" class="edge"><title>enemyRadar[Front7Ø]&#45;&gt; Move Left/Right</title>
<path fill="none" stroke="red" stroke-width="0.50913" d="M855.984,-202.277C873.649,-198.532 894.971,-194.057 914.164,-190.149 1097.5,-152.826 1314.45,-110.741 1420.02,-90.3961"/>
<polygon fill="red" stroke="red" stroke-width="0.50913" points="1420.73,-93.8244 1429.89,-88.496 1419.41,-86.9508 1420.73,-93.8244"/>
</g>
<!-- enemyRadar[Front7Ø]&#45;&gt;Turn left/right -->
<g id="edge25" class="edge"><title>enemyRadar[Front7Ø]&#45;&gt;Turn left/right</title>
<path fill="none" stroke="red" stroke-width="0.416686" d="M795.947,-202.312C785.186,-198.491 772.05,-193.943 760.164,-190.149 642.784,-152.684 503.693,-113.583 428.682,-92.9264"/>
<polygon fill="red" stroke="red" stroke-width="0.416686" points="429.544,-89.5336 418.974,-90.2574 427.688,-96.2831 429.544,-89.5336"/>
</g>
<!-- OnTarget -->
<g id="node22" class="node"><title>OnTarget</title>
<polygon fill="lightgray" stroke="black" points="969.164,-286.576 919.164,-286.576 919.164,-268.576 969.164,-268.576 969.164,-286.576"/>
<text text-anchor="middle" x="944.164" y="-275.376" font-family="Times,serif" font-size="9.00">OnTarget</text>
</g>
<!-- OnTarget&#45;&gt;Shoot -->
<g id="edge37" class="edge"><title>OnTarget&#45;&gt;Shoot</title>
<path fill="none" stroke="green" stroke-width="0.137401" d="M969.311,-270.066C972.28,-269.474 975.279,-268.955 978.164,-268.576 1043.19,-260.022 2112.5,-279.654 2158.16,-232.576 2225.98,-162.665 2043.21,-106.941 1962.88,-86.5003"/>
<polygon fill="green" stroke="green" stroke-width="0.137401" points="1963.71,-83.1009 1953.16,-84.0728 1962.02,-89.8922 1963.71,-83.1009"/>
</g>
<!-- OnTarget&#45;&gt;Move Forward/Backward -->
<g id="edge8" class="edge"><title>OnTarget&#45;&gt;Move Forward/Backward</title>
<path fill="none" stroke="red" stroke-width="0.365883" d="M936.234,-268.305C928.889,-260.023 918.47,-246.535 914.164,-232.576 906.873,-208.939 908.49,-182.699 913.627,-158.653"/>
<polygon fill="red" stroke="red" stroke-width="0.365883" points="917.049,-159.387 915.936,-148.851 910.236,-157.782 917.049,-159.387"/>
</g>
<!-- 130 -->
<g id="node28" class="node"><title>130</title>
<ellipse fill="white" stroke="black" cx="944.164" cy="-211.362" rx="21.4286" ry="21.4286"/>
<text text-anchor="middle" x="944.164" y="-209.162" font-family="Times,serif" font-size="9.00">130</text>
</g>
<!-- OnTarget&#45;&gt;130 -->
<g id="edge46" class="edge"><title>OnTarget&#45;&gt;130</title>
<path fill="none" stroke="green" stroke-width="0.351123" d="M944.164,-268.443C944.164,-261.9 944.164,-252.271 944.164,-242.832"/>
<polygon fill="green" stroke="green" stroke-width="0.351123" points="947.665,-242.818 944.164,-232.818 940.665,-242.818 947.665,-242.818"/>
</g>
<!-- bias -->
<g id="node23" class="node"><title>bias</title>
<polygon fill="lightgray" stroke="black" points="1592.66,-220.362 1561.66,-220.362 1561.66,-202.362 1592.66,-202.362 1592.66,-220.362"/>
<text text-anchor="middle" x="1577.16" y="-209.162" font-family="Times,serif" font-size="9.00">bias</text>
</g>
<!-- bias&#45;&gt;Shoot -->
<g id="edge27" class="edge"><title>bias&#45;&gt;Shoot</title>
<path fill="none" stroke="red" stroke-width="0.215563" d="M1585.87,-202.058C1590.45,-198.04 1596.31,-193.396 1602.16,-190.149 1700.12,-135.868 1829.09,-100.947 1890.98,-86.1688"/>
<polygon fill="red" stroke="red" stroke-width="0.215563" points="1892.09,-89.5022 1901.03,-83.8063 1890.49,-82.688 1892.09,-89.5022"/>
</g>
<!-- bias&#45;&gt;Move Forward/Backward -->
<g id="edge21" class="edge"><title>bias&#45;&gt;Move Forward/Backward</title>
<path fill="none" stroke="red" stroke-width="0.151163" d="M1569.09,-202.089C1564.51,-197.874 1558.45,-193.041 1552.16,-190.149 1505.35,-168.617 1186.65,-116.324 1030.31,-91.5366"/>
<polygon fill="red" stroke="red" stroke-width="0.151163" points="1030.67,-88.0509 1020.25,-89.9442 1029.58,-94.9648 1030.67,-88.0509"/>
</g>
<!-- Shoot&#45;&gt;Shoot -->
<g id="edge45" class="edge"><title>Shoot&#45;&gt;Shoot</title>
<path fill="none" stroke="red" stroke-width="0.13002" d="M1943.73,-98.3659C1957.57,-107.465 1972.03,-100.368 1972.03,-77.0746 1972.03,-59.059 1963.38,-50.7318 1953.06,-52.0931"/>
<polygon fill="red" stroke="red" stroke-width="0.13002" points="1951.74,-48.8499 1943.73,-55.7834 1954.32,-55.359 1951.74,-48.8499"/>
</g>
<!-- Move Forward/Backward&#45;&gt;Move Forward/Backward -->
<g id="edge26" class="edge"><title>Move Forward/Backward&#45;&gt;Move Forward/Backward</title>
<path fill="none" stroke="red" stroke-width="0.395598" d="M1017.91,-100.53C1030.51,-97.3246 1039.24,-89.5063 1039.24,-77.0746 1039.24,-68.1394 1034.73,-61.5874 1027.52,-57.4186"/>
<polygon fill="red" stroke="red" stroke-width="0.395598" points="1028.5,-54.0436 1017.91,-53.6196 1025.92,-60.5528 1028.5,-54.0436"/>
</g>
<!-- Turn left/right&#45;&gt;Turn left/right -->
<g id="edge24" class="edge"><title>Turn left/right&#45;&gt;Turn left/right</title>
<path fill="none" stroke="red" stroke-width="0.600738" d="M413.631,-102.186C427.544,-102.588 438.833,-94.2172 438.833,-77.0746 438.833,-64.3516 432.615,-56.4607 423.72,-53.4019"/>
<polygon fill="red" stroke="red" stroke-width="0.600738" points="424.025,-49.91 413.631,-51.9634 423.037,-56.8399 424.025,-49.91"/>
</g>
<!-- 130&#45;&gt;Move Forward/Backward -->
<g id="edge47" class="edge"><title>130&#45;&gt;Move Forward/Backward</title>
<path fill="none" stroke="green" stroke-width="0.149089" d="M944.164,-189.982C944.164,-182.613 944.164,-173.757 944.164,-164.296"/>
<polygon fill="green" stroke="green" stroke-width="0.149089" points="947.665,-164.254 944.164,-154.254 940.665,-164.254 947.665,-164.254"/>
</g>
<!-- 498&#45;&gt; Move Left/Right -->
<g id="edge51" class="edge"><title>498&#45;&gt; Move Left/Right</title>
<path fill="none" stroke="green" stroke-width="0.636787" d="M1265.12,-198.534C1269.33,-195.708 1273.87,-192.756 1278.16,-190.149 1327.13,-160.428 1384.48,-129.528 1426.22,-107.72"/>
<polygon fill="green" stroke="green" stroke-width="0.636787" points="1427.9,-110.794 1435.15,-103.07 1424.66,-104.586 1427.9,-110.794"/>
</g>
</g>
</svg>
