<?xml version="1.0" encoding="UTF-8" standalone="no"?>
<!DOCTYPE svg PUBLIC "-//W3C//DTD SVG 1.1//EN"
 "http://www.w3.org/Graphics/SVG/1.1/DTD/svg11.dtd">
<!-- Generated by graphviz version 2.38.0 (20140413.2041)
 -->
<!-- Title: %3 Pages: 1 -->
<svg width="2481pt" height="302pt"
 viewBox="0.00 0.00 2481.28 301.65" xmlns="http://www.w3.org/2000/svg" xmlns:xlink="http://www.w3.org/1999/xlink">
<g id="graph0" class="graph" transform="scale(1 1) rotate(0) translate(4 297.647)">
<title>%3</title>
<polygon fill="white" stroke="none" points="-4,4 -4,-297.647 2477.28,-297.647 2477.28,4 -4,4"/>
<!-- wallRadar[1,0] -->
<g id="node1" class="node"><title>wallRadar[1,0]</title>
<polygon fill="lightgray" stroke="black" points="895.749,-223.898 825.749,-223.898 825.749,-205.898 895.749,-205.898 895.749,-223.898"/>
<text text-anchor="middle" x="860.749" y="-212.698" font-family="Times,serif" font-size="9.00">wallRadar[1,0]</text>
</g>
<!--  Move Left/Right -->
<g id="node26" class="node"><title> Move Left/Right</title>
<ellipse fill="lightblue" stroke="black" cx="630.749" cy="-77.0746" rx="55.3091" ry="55.3091"/>
<text text-anchor="middle" x="630.749" y="-74.8746" font-family="Times,serif" font-size="9.00"> Move Left/Right</text>
</g>
<!-- wallRadar[1,0]&#45;&gt; Move Left/Right -->
<g id="edge22" class="edge"><title>wallRadar[1,0]&#45;&gt; Move Left/Right</title>
<path fill="none" stroke="green" stroke-width="0.148971" d="M847.05,-205.808C816.178,-187.577 739.717,-142.424 686.517,-111.008"/>
<polygon fill="green" stroke="green" stroke-width="0.148971" points="688.251,-107.967 677.861,-105.896 684.692,-113.995 688.251,-107.967"/>
</g>
<!-- Turn left/right -->
<g id="node27" class="node"><title>Turn left/right</title>
<ellipse fill="lightblue" stroke="black" cx="1664.75" cy="-77.0746" rx="46.8387" ry="46.8387"/>
<text text-anchor="middle" x="1664.75" y="-74.8746" font-family="Times,serif" font-size="9.00">Turn left/right</text>
</g>
<!-- wallRadar[1,0]&#45;&gt;Turn left/right -->
<g id="edge42" class="edge"><title>wallRadar[1,0]&#45;&gt;Turn left/right</title>
<path fill="none" stroke="red" stroke-width="0.243822" stroke-dasharray="1,5" d="M873.232,-205.828C881.991,-200.544 894.162,-193.939 905.749,-190.149 914.181,-187.391 1434.65,-111.545 1608.73,-86.219"/>
<polygon fill="red" stroke="red" stroke-width="0.243822" points="1609.32,-89.6698 1618.72,-84.7666 1608.32,-82.7427 1609.32,-89.6698"/>
</g>
<!-- wallRadar[0,1] -->
<g id="node2" class="node"><title>wallRadar[0,1]</title>
<polygon fill="lightgray" stroke="black" points="551.749,-223.898 481.749,-223.898 481.749,-205.898 551.749,-205.898 551.749,-223.898"/>
<text text-anchor="middle" x="516.749" y="-212.698" font-family="Times,serif" font-size="9.00">wallRadar[0,1]</text>
</g>
<!-- Move Forward/Backward -->
<g id="node25" class="node"><title>Move Forward/Backward</title>
<ellipse fill="lightblue" stroke="black" cx="1054.75" cy="-77.0746" rx="77.1494" ry="77.1494"/>
<text text-anchor="middle" x="1054.75" y="-74.8746" font-family="Times,serif" font-size="9.00">Move Forward/Backward</text>
</g>
<!-- wallRadar[0,1]&#45;&gt;Move Forward/Backward -->
<g id="edge39" class="edge"><title>wallRadar[0,1]&#45;&gt;Move Forward/Backward</title>
<path fill="none" stroke="green" stroke-width="0.32378" d="M529.403,-205.87C537.969,-200.74 549.696,-194.297 560.749,-190.149 598.715,-175.901 838.409,-124.006 969.438,-96.1085"/>
<polygon fill="green" stroke="green" stroke-width="0.32378" points="970.4,-99.4825 979.452,-93.9781 968.943,-92.6357 970.4,-99.4825"/>
</g>
<!-- wallRadar[0,1]&#45;&gt; Move Left/Right -->
<g id="edge21" class="edge"><title>wallRadar[0,1]&#45;&gt; Move Left/Right</title>
<path fill="none" stroke="red" stroke-width="0.214538" d="M523.539,-205.808C536.299,-190.605 564.773,-156.68 589.171,-127.611"/>
<polygon fill="red" stroke="red" stroke-width="0.214538" points="591.852,-129.862 595.6,-119.952 586.49,-125.361 591.852,-129.862"/>
</g>
<!-- wallRadar[&#45;1,0] -->
<g id="node3" class="node"><title>wallRadar[&#45;1,0]</title>
<polygon fill="lightgray" stroke="black" points="1442.25,-223.898 1369.25,-223.898 1369.25,-205.898 1442.25,-205.898 1442.25,-223.898"/>
<text text-anchor="middle" x="1405.75" y="-212.698" font-family="Times,serif" font-size="9.00">wallRadar[&#45;1,0]</text>
</g>
<!-- wallRadar[&#45;1,0]&#45;&gt;Move Forward/Backward -->
<g id="edge28" class="edge"><title>wallRadar[&#45;1,0]&#45;&gt;Move Forward/Backward</title>
<path fill="none" stroke="red" stroke-width="0.263129" d="M1391.06,-205.721C1382.14,-200.904 1370.44,-194.853 1359.75,-190.149 1285.98,-157.703 1199.56,-126.569 1137.59,-105.386"/>
<polygon fill="red" stroke="red" stroke-width="0.263129" points="1138.45,-101.982 1127.86,-102.073 1136.19,-108.609 1138.45,-101.982"/>
</g>
<!-- wallRadar[&#45;1,0]&#45;&gt;Turn left/right -->
<g id="edge5" class="edge"><title>wallRadar[&#45;1,0]&#45;&gt;Turn left/right</title>
<path fill="none" stroke="green" stroke-width="0.275128" d="M1421.17,-205.808C1458.47,-186.253 1554.82,-135.721 1614.56,-104.394"/>
<polygon fill="green" stroke="green" stroke-width="0.275128" points="1616.23,-107.472 1623.46,-99.7276 1612.98,-101.272 1616.23,-107.472"/>
</g>
<!-- wallRadar[0,&#45;1] -->
<g id="node4" class="node"><title>wallRadar[0,&#45;1]</title>
<polygon fill="lightgray" stroke="black" points="987.249,-223.898 914.249,-223.898 914.249,-205.898 987.249,-205.898 987.249,-223.898"/>
<text text-anchor="middle" x="950.749" y="-212.698" font-family="Times,serif" font-size="9.00">wallRadar[0,&#45;1]</text>
</g>
<!-- wallRadar[0,&#45;1]&#45;&gt;Move Forward/Backward -->
<g id="edge52" class="edge"><title>wallRadar[0,&#45;1]&#45;&gt;Move Forward/Backward</title>
<path fill="none" stroke="red" stroke-width="0.357776" d="M956.943,-205.808C966.097,-193.853 984.115,-170.321 1002.22,-146.678"/>
<polygon fill="red" stroke="red" stroke-width="0.357776" points="1005.05,-148.739 1008.35,-138.672 999.491,-144.484 1005.05,-148.739"/>
</g>
<!-- wallRadar[0,&#45;1]&#45;&gt; Move Left/Right -->
<g id="edge51" class="edge"><title>wallRadar[0,&#45;1]&#45;&gt; Move Left/Right</title>
<path fill="none" stroke="red" stroke-width="0.835224" stroke-dasharray="1,5" d="M935.997,-205.86C927.054,-201.093 915.357,-195.046 904.749,-190.149 832.515,-156.809 747.455,-122.811 691.491,-101.141"/>
<polygon fill="red" stroke="red" stroke-width="0.835224" points="692.668,-97.8437 682.078,-97.5064 690.146,-104.374 692.668,-97.8437"/>
</g>
<!-- wallRadar[0,&#45;1]&#45;&gt;Turn left/right -->
<g id="edge35" class="edge"><title>wallRadar[0,&#45;1]&#45;&gt;Turn left/right</title>
<path fill="none" stroke="red" stroke-width="0.3263" stroke-dasharray="1,5" d="M963.951,-205.681C972.894,-200.472 985.151,-194.011 996.749,-190.149 1110.77,-152.187 1468.52,-103.404 1608.14,-85.2757"/>
<polygon fill="red" stroke="red" stroke-width="0.3263" points="1608.74,-88.7276 1618.2,-83.9729 1607.84,-81.7855 1608.74,-88.7276"/>
</g>
<!-- wallRadar[0.7,0.7] -->
<g id="node5" class="node"><title>wallRadar[0.7,0.7]</title>
<polygon fill="lightgray" stroke="black" points="2004.25,-293.647 1921.25,-293.647 1921.25,-275.647 2004.25,-275.647 2004.25,-293.647"/>
<text text-anchor="middle" x="1962.75" y="-282.447" font-family="Times,serif" font-size="9.00">wallRadar[0.7,0.7]</text>
</g>
<!-- wallRadar[0.7,0.7]&#45;&gt;Move Forward/Backward -->
<g id="edge50" class="edge"><title>wallRadar[0.7,0.7]&#45;&gt;Move Forward/Backward</title>
<path fill="none" stroke="red" stroke-width="0.492575" d="M1921.25,-281.922C1758.03,-275.071 1168.39,-249.674 1151.75,-239.647 1142.73,-234.212 1118.24,-193.37 1096.13,-154.112"/>
<polygon fill="red" stroke="red" stroke-width="0.492575" points="1099.1,-152.26 1091.16,-145.248 1093,-155.683 1099.1,-152.26"/>
</g>
<!-- wallRadar[0.7,0.7]&#45;&gt;Turn left/right -->
<g id="edge47" class="edge"><title>wallRadar[0.7,0.7]&#45;&gt;Turn left/right</title>
<path fill="none" stroke="red" stroke-width="0.340845" d="M1961.66,-275.511C1958.89,-257.741 1949.96,-215.065 1925.75,-190.149 1869.55,-132.309 1778.64,-102.631 1720.3,-88.7382"/>
<polygon fill="red" stroke="red" stroke-width="0.340845" points="1721.05,-85.3184 1710.52,-86.4831 1719.48,-92.1396 1721.05,-85.3184"/>
</g>
<!-- 833 -->
<g id="node28" class="node"><title>833</title>
<ellipse fill="white" stroke="black" cx="2011.75" cy="-214.898" rx="21.4286" ry="21.4286"/>
<text text-anchor="middle" x="2011.75" y="-212.698" font-family="Times,serif" font-size="9.00">833</text>
</g>
<!-- wallRadar[0.7,0.7]&#45;&gt;833 -->
<g id="edge55" class="edge"><title>wallRadar[0.7,0.7]&#45;&gt;833</title>
<path fill="none" stroke="green" stroke-width="0.489843" d="M1968.56,-275.609C1974.78,-267.008 1984.96,-252.937 1993.87,-240.614"/>
<polygon fill="green" stroke="green" stroke-width="0.489843" points="1996.75,-242.605 1999.78,-232.451 1991.08,-238.503 1996.75,-242.605"/>
</g>
<!-- wallRadar[&#45;0.7,0.7] -->
<g id="node6" class="node"><title>wallRadar[&#45;0.7,0.7]</title>
<polygon fill="lightgray" stroke="black" points="1713.75,-293.647 1627.75,-293.647 1627.75,-275.647 1713.75,-275.647 1713.75,-293.647"/>
<text text-anchor="middle" x="1670.75" y="-282.447" font-family="Times,serif" font-size="9.00">wallRadar[&#45;0.7,0.7]</text>
</g>
<!-- Shoot -->
<g id="node24" class="node"><title>Shoot</title>
<ellipse fill="lightblue" stroke="black" cx="1965.75" cy="-77.0746" rx="26.7407" ry="26.7407"/>
<text text-anchor="middle" x="1965.75" y="-74.8746" font-family="Times,serif" font-size="9.00">Shoot</text>
</g>
<!-- wallRadar[&#45;0.7,0.7]&#45;&gt;Shoot -->
<g id="edge19" class="edge"><title>wallRadar[&#45;0.7,0.7]&#45;&gt;Shoot</title>
<path fill="none" stroke="red" stroke-width="0.225041" stroke-dasharray="1,5" d="M1714.01,-281.998C1875.71,-275.737 2436.03,-253.105 2448.75,-239.647 2581.2,-99.4901 2137.42,-80.8742 2003.09,-78.4342"/>
<polygon fill="red" stroke="red" stroke-width="0.225041" points="2002.93,-74.9312 1992.88,-78.2694 2002.82,-81.9303 2002.93,-74.9312"/>
</g>
<!-- wallRadar[&#45;0.7,0.7]&#45;&gt; Move Left/Right -->
<g id="edge29" class="edge"><title>wallRadar[&#45;0.7,0.7]&#45;&gt; Move Left/Right</title>
<path fill="none" stroke="green" stroke-width="0.562793" d="M1627.74,-283.147C1391.14,-280.301 257.664,-265.336 232.749,-239.647 129.293,-132.977 428.025,-94.4742 565.522,-82.6471"/>
<polygon fill="green" stroke="green" stroke-width="0.562793" points="565.859,-86.1311 575.532,-81.8086 565.275,-79.1556 565.859,-86.1311"/>
</g>
<!-- wallRadar[&#45;0.7,0.7]&#45;&gt;Turn left/right -->
<g id="edge12" class="edge"><title>wallRadar[&#45;0.7,0.7]&#45;&gt;Turn left/right</title>
<path fill="none" stroke="red" stroke-width="1.08999" d="M1713.77,-281.944C1774.81,-278.522 1881.82,-268.47 1905.75,-239.647 1966.08,-166.966 1808.71,-114.069 1720.21,-90.9705"/>
<polygon fill="red" stroke="red" stroke-width="1.08999" points="1720.85,-87.5231 1710.3,-88.4333 1719.12,-94.3043 1720.85,-87.5231"/>
</g>
<!-- 430 -->
<g id="node29" class="node"><title>430</title>
<ellipse fill="white" stroke="black" cx="1481.75" cy="-214.898" rx="21.4286" ry="21.4286"/>
<text text-anchor="middle" x="1481.75" y="-212.698" font-family="Times,serif" font-size="9.00">430</text>
</g>
<!-- wallRadar[&#45;0.7,0.7]&#45;&gt;430 -->
<g id="edge53" class="edge"><title>wallRadar[&#45;0.7,0.7]&#45;&gt;430</title>
<path fill="none" stroke="green" stroke-width="1.0139" d="M1627.54,-276.54C1594.55,-269.986 1548.65,-258.383 1511.75,-239.647 1509.68,-238.596 1507.62,-237.39 1505.6,-236.09"/>
<polygon fill="green" stroke="green" stroke-width="1.0139" points="1507.29,-232.994 1497.13,-229.986 1503.19,-238.673 1507.29,-232.994"/>
</g>
<!-- wallRadar[&#45;0.7,&#45;0.7] -->
<g id="node7" class="node"><title>wallRadar[&#45;0.7,&#45;0.7]</title>
<polygon fill="lightgray" stroke="black" points="331.249,-223.898 242.249,-223.898 242.249,-205.898 331.249,-205.898 331.249,-223.898"/>
<text text-anchor="middle" x="286.749" y="-212.698" font-family="Times,serif" font-size="9.00">wallRadar[&#45;0.7,&#45;0.7]</text>
</g>
<!-- wallRadar[&#45;0.7,&#45;0.7]&#45;&gt;Move Forward/Backward -->
<g id="edge13" class="edge"><title>wallRadar[&#45;0.7,&#45;0.7]&#45;&gt;Move Forward/Backward</title>
<path fill="none" stroke="green" stroke-width="0.590027" d="M301.88,-205.709C312.458,-200.373 327.083,-193.753 340.749,-190.149 493.666,-149.824 538.495,-178.533 694.749,-154.149 789.691,-139.334 897.355,-115.663 970.01,-98.659"/>
<polygon fill="green" stroke="green" stroke-width="0.590027" points="971.09,-102 980.024,-96.3055 969.489,-95.1861 971.09,-102"/>
</g>
<!-- wallRadar[&#45;0.7,&#45;0.7]&#45;&gt; Move Left/Right -->
<g id="edge46" class="edge"><title>wallRadar[&#45;0.7,&#45;0.7]&#45;&gt; Move Left/Right</title>
<path fill="none" stroke="green" stroke-width="0.183536" d="M304.661,-205.776C315.132,-201.089 328.632,-195.152 340.749,-190.149 419.201,-157.758 510.691,-122.874 569.602,-100.78"/>
<polygon fill="green" stroke="green" stroke-width="0.183536" points="570.993,-103.997 579.13,-97.2122 568.538,-97.4417 570.993,-103.997"/>
</g>
<!-- wallRadar[0.7,&#45;0.7] -->
<g id="node8" class="node"><title>wallRadar[0.7,&#45;0.7]</title>
<polygon fill="lightgray" stroke="black" points="2136.75,-223.898 2050.75,-223.898 2050.75,-205.898 2136.75,-205.898 2136.75,-223.898"/>
<text text-anchor="middle" x="2093.75" y="-212.698" font-family="Times,serif" font-size="9.00">wallRadar[0.7,&#45;0.7]</text>
</g>
<!-- wallRadar[0.7,&#45;0.7]&#45;&gt;Shoot -->
<g id="edge3" class="edge"><title>wallRadar[0.7,&#45;0.7]&#45;&gt;Shoot</title>
<path fill="none" stroke="red" stroke-width="0.304785" d="M2086.13,-205.808C2067.77,-186.329 2020.44,-136.113 1990.9,-104.759"/>
<polygon fill="red" stroke="red" stroke-width="0.304785" points="1993.2,-102.101 1983.8,-97.2243 1988.11,-106.902 1993.2,-102.101"/>
</g>
<!-- wallRadar[0.7,&#45;0.7]&#45;&gt;Turn left/right -->
<g id="edge25" class="edge"><title>wallRadar[0.7,&#45;0.7]&#45;&gt;Turn left/right</title>
<path fill="none" stroke="green" stroke-width="0.236049" stroke-dasharray="1,5" d="M2077.6,-205.817C2067.46,-200.919 2054.02,-194.748 2041.75,-190.149 2011.19,-178.692 1816.01,-121.841 1719.14,-93.7866"/>
<polygon fill="green" stroke="green" stroke-width="0.236049" points="1720.09,-90.4198 1709.51,-91.0011 1718.15,-97.1437 1720.09,-90.4198"/>
</g>
<!-- enemyRadar[RightBack] -->
<g id="node9" class="node"><title>enemyRadar[RightBack]</title>
<polygon fill="lightgray" stroke="black" points="2126.75,-293.647 2022.75,-293.647 2022.75,-275.647 2126.75,-275.647 2126.75,-293.647"/>
<text text-anchor="middle" x="2074.75" y="-282.447" font-family="Times,serif" font-size="9.00">enemyRadar[RightBack]</text>
</g>
<!-- enemyRadar[LeftBack] -->
<g id="node10" class="node"><title>enemyRadar[LeftBack]</title>
<polygon fill="lightgray" stroke="black" points="1104.25,-223.898 1005.25,-223.898 1005.25,-205.898 1104.25,-205.898 1104.25,-223.898"/>
<text text-anchor="middle" x="1054.75" y="-212.698" font-family="Times,serif" font-size="9.00">enemyRadar[LeftBack]</text>
</g>
<!-- enemyRadar[LeftBack]&#45;&gt;Move Forward/Backward -->
<g id="edge27" class="edge"><title>enemyRadar[LeftBack]&#45;&gt;Move Forward/Backward</title>
<path fill="none" stroke="red" stroke-width="1.12724" d="M1054.75,-205.808C1054.75,-196.881 1054.75,-181.498 1054.75,-164.434"/>
<polygon fill="red" stroke="red" stroke-width="1.12724" points="1058.25,-164.228 1054.75,-154.228 1051.25,-164.228 1058.25,-164.228"/>
</g>
<!-- enemyRadar[LeftBack]&#45;&gt; Move Left/Right -->
<g id="edge8" class="edge"><title>enemyRadar[LeftBack]&#45;&gt; Move Left/Right</title>
<path fill="none" stroke="red" stroke-width="0.151023" d="M1036.37,-205.869C1025.05,-201.048 1010.17,-194.942 996.749,-190.149 891.696,-152.646 767.055,-116.14 693.677,-95.447"/>
<polygon fill="red" stroke="red" stroke-width="0.151023" points="694.245,-91.971 683.671,-92.6336 692.35,-98.7097 694.245,-91.971"/>
</g>
<!-- enemyRadar[LeftBack]&#45;&gt;Turn left/right -->
<g id="edge4" class="edge"><title>enemyRadar[LeftBack]&#45;&gt;Turn left/right</title>
<path fill="none" stroke="green" stroke-width="0.118281" stroke-dasharray="1,5" d="M1086.59,-205.889C1105.5,-201.187 1129.96,-195.196 1151.75,-190.149 1317.77,-151.696 1514.87,-109.64 1609.14,-89.7477"/>
<polygon fill="green" stroke="green" stroke-width="0.118281" points="1609.96,-93.1507 1619.02,-87.6627 1608.52,-86.3013 1609.96,-93.1507"/>
</g>
<!-- enemyRadar[Right45ø] -->
<g id="node11" class="node"><title>enemyRadar[Right45ø]</title>
<polygon fill="lightgray" stroke="black" points="2244.75,-293.647 2144.75,-293.647 2144.75,-275.647 2244.75,-275.647 2244.75,-293.647"/>
<text text-anchor="middle" x="2194.75" y="-282.447" font-family="Times,serif" font-size="9.00">enemyRadar[Right45ø]</text>
</g>
<!-- enemyRadar[Left45ø] -->
<g id="node12" class="node"><title>enemyRadar[Left45ø]</title>
<polygon fill="lightgray" stroke="black" points="125.249,-293.647 30.2487,-293.647 30.2487,-275.647 125.249,-275.647 125.249,-293.647"/>
<text text-anchor="middle" x="77.7487" y="-282.447" font-family="Times,serif" font-size="9.00">enemyRadar[Left45ø]</text>
</g>
<!-- enemyRadar[Left45ø]&#45;&gt; Move Left/Right -->
<g id="edge16" class="edge"><title>enemyRadar[Left45ø]&#45;&gt; Move Left/Right</title>
<path fill="none" stroke="red" stroke-width="0.466083" stroke-dasharray="1,5" d="M77.7026,-275.474C78.0707,-257.247 81.6566,-213.078 106.749,-190.149 173.38,-129.263 440.062,-96.287 565.24,-83.8918"/>
<polygon fill="red" stroke="red" stroke-width="0.466083" points="565.841,-87.3498 575.454,-82.895 565.161,-80.3829 565.841,-87.3498"/>
</g>
<!-- enemyRadar[Left45ø]&#45;&gt;Turn left/right -->
<g id="edge20" class="edge"><title>enemyRadar[Left45ø]&#45;&gt;Turn left/right</title>
<path fill="none" stroke="green" stroke-width="1.47321" d="M125.436,-283.16C384.99,-280.404 1616.99,-265.954 1645.75,-239.647 1674.3,-213.534 1677.73,-169.107 1674.76,-133.441"/>
<polygon fill="green" stroke="green" stroke-width="1.47321" points="1678.21,-132.754 1673.71,-123.161 1671.24,-133.465 1678.21,-132.754"/>
</g>
<!-- 1237 -->
<g id="node30" class="node"><title>1237</title>
<ellipse fill="white" stroke="black" cx="24.7487" cy="-214.898" rx="25" ry="25"/>
<text text-anchor="middle" x="24.7487" y="-212.698" font-family="Times,serif" font-size="9.00">1237</text>
</g>
<!-- enemyRadar[Left45ø]&#45;&gt;1237 -->
<g id="edge60" class="edge"><title>enemyRadar[Left45ø]&#45;&gt;1237</title>
<path fill="none" stroke="green" stroke-width="0.342335" d="M71.4608,-275.609C65.1336,-267.521 55.0216,-254.595 45.8214,-242.835"/>
<polygon fill="green" stroke="green" stroke-width="0.342335" points="48.5738,-240.673 39.6554,-234.953 43.0604,-244.986 48.5738,-240.673"/>
</g>
<!-- enemyRadar[RightFront20ø] -->
<g id="node13" class="node"><title>enemyRadar[RightFront20ø]</title>
<polygon fill="lightgray" stroke="black" points="2274.25,-223.898 2155.25,-223.898 2155.25,-205.898 2274.25,-205.898 2274.25,-223.898"/>
<text text-anchor="middle" x="2214.75" y="-212.698" font-family="Times,serif" font-size="9.00">enemyRadar[RightFront20ø]</text>
</g>
<!-- enemyRadar[RightFront20ø]&#45;&gt;Shoot -->
<g id="edge18" class="edge"><title>enemyRadar[RightFront20ø]&#45;&gt;Shoot</title>
<path fill="none" stroke="green" stroke-width="0.913445" d="M2199.92,-205.808C2160.53,-184.322 2052.58,-125.44 1998.1,-95.7233"/>
<polygon fill="green" stroke="green" stroke-width="0.913445" points="1999.66,-92.5878 1989.21,-90.8717 1996.31,-98.733 1999.66,-92.5878"/>
</g>
<!-- enemyRadar[RightFront20ø]&#45;&gt;Turn left/right -->
<g id="edge17" class="edge"><title>enemyRadar[RightFront20ø]&#45;&gt;Turn left/right</title>
<path fill="none" stroke="red" stroke-width="0.492436" d="M2194.19,-205.814C2180.61,-200.727 2162.33,-194.353 2145.75,-190.149 2051.41,-166.23 2024.68,-175.612 1929.75,-154.149 1855.69,-137.405 1771.66,-112.203 1718.46,-95.4532"/>
<polygon fill="red" stroke="red" stroke-width="0.492436" points="1719.48,-92.106 1708.89,-92.428 1717.37,-98.7802 1719.48,-92.106"/>
</g>
<!-- enemyRadar[LeftFront20ø] -->
<g id="node14" class="node"><title>enemyRadar[LeftFront20ø]</title>
<polygon fill="lightgray" stroke="black" points="463.749,-223.898 349.749,-223.898 349.749,-205.898 463.749,-205.898 463.749,-223.898"/>
<text text-anchor="middle" x="406.749" y="-212.698" font-family="Times,serif" font-size="9.00">enemyRadar[LeftFront20ø]</text>
</g>
<!-- enemyRadar[LeftFront20ø]&#45;&gt;Move Forward/Backward -->
<g id="edge40" class="edge"><title>enemyRadar[LeftFront20ø]&#45;&gt;Move Forward/Backward</title>
<path fill="none" stroke="green" stroke-width="0.388375" d="M426.09,-205.869C439.09,-200.739 456.715,-194.296 472.749,-190.149 569.52,-165.121 596.49,-172.487 694.749,-154.149 789.06,-136.548 896.616,-113.416 969.417,-97.3002"/>
<polygon fill="green" stroke="green" stroke-width="0.388375" points="970.449,-100.656 979.454,-95.0741 968.933,-93.8225 970.449,-100.656"/>
</g>
<!-- enemyRadar[LeftFront20ø]&#45;&gt; Move Left/Right -->
<g id="edge32" class="edge"><title>enemyRadar[LeftFront20ø]&#45;&gt; Move Left/Right</title>
<path fill="none" stroke="green" stroke-width="0.370146" stroke-dasharray="1,5" d="M420.09,-205.808C449.917,-187.723 523.437,-143.144 575.19,-111.763"/>
<polygon fill="green" stroke="green" stroke-width="0.370146" points="577.204,-114.635 583.94,-106.457 573.575,-108.649 577.204,-114.635"/>
</g>
<!-- enemyRadar[RightFront15ø] -->
<g id="node15" class="node"><title>enemyRadar[RightFront15ø]</title>
<polygon fill="lightgray" stroke="black" points="1030.25,-293.647 911.249,-293.647 911.249,-275.647 1030.25,-275.647 1030.25,-293.647"/>
<text text-anchor="middle" x="970.749" y="-282.447" font-family="Times,serif" font-size="9.00">enemyRadar[RightFront15ø]</text>
</g>
<!-- enemyRadar[RightFront15ø]&#45;&gt;Shoot -->
<g id="edge36" class="edge"><title>enemyRadar[RightFront15ø]&#45;&gt;Shoot</title>
<path fill="none" stroke="red" stroke-width="0.416595" d="M1030.33,-282.955C1299.66,-279.689 2391.24,-264.91 2415.75,-239.647 2541.11,-110.412 2131,-84.1833 2002.8,-79.1863"/>
<polygon fill="red" stroke="red" stroke-width="0.416595" points="2002.8,-75.6839 1992.68,-78.8134 2002.54,-82.6792 2002.8,-75.6839"/>
</g>
<!-- enemyRadar[RightFront15ø]&#45;&gt; Move Left/Right -->
<g id="edge14" class="edge"><title>enemyRadar[RightFront15ø]&#45;&gt; Move Left/Right</title>
<path fill="none" stroke="green" stroke-width="0.161452" stroke-dasharray="1,5" d="M911.155,-282.732C724.416,-279.579 161.43,-267.769 134.749,-239.647 6.73736,-104.721 403.307,-82.2945 565.189,-78.7015"/>
<polygon fill="green" stroke="green" stroke-width="0.161452" points="565.578,-82.1944 575.505,-78.4911 565.436,-75.1958 565.578,-82.1944"/>
</g>
<!-- enemyRadar[RightFront15ø]&#45;&gt;Turn left/right -->
<g id="edge2" class="edge"><title>enemyRadar[RightFront15ø]&#45;&gt;Turn left/right</title>
<path fill="none" stroke="green" stroke-width="0.2062" d="M1030.45,-282.137C1197.12,-277.634 1656.68,-263.134 1678.75,-239.647 1705.8,-210.859 1699,-165.092 1687.32,-129.606"/>
<polygon fill="green" stroke="green" stroke-width="0.2062" points="1690.53,-128.175 1683.92,-119.892 1683.92,-130.487 1690.53,-128.175"/>
</g>
<!-- 952 -->
<g id="node31" class="node"><title>952</title>
<ellipse fill="white" stroke="black" cx="164.749" cy="-214.898" rx="21.4286" ry="21.4286"/>
<text text-anchor="middle" x="164.749" y="-212.698" font-family="Times,serif" font-size="9.00">952</text>
</g>
<!-- enemyRadar[RightFront15ø]&#45;&gt;952 -->
<g id="edge57" class="edge"><title>enemyRadar[RightFront15ø]&#45;&gt;952</title>
<path fill="none" stroke="green" stroke-width="0.308308" d="M910.982,-284.323C753.649,-285.455 331.099,-284.138 199.749,-239.647 196.128,-238.42 192.532,-236.71 189.101,-234.765"/>
<polygon fill="green" stroke="green" stroke-width="0.308308" points="190.803,-231.698 180.499,-229.232 187.017,-237.585 190.803,-231.698"/>
</g>
<!-- enemyRadar[LeftFront15ø] -->
<g id="node16" class="node"><title>enemyRadar[LeftFront15ø]</title>
<polygon fill="lightgray" stroke="black" points="2406.75,-223.898 2292.75,-223.898 2292.75,-205.898 2406.75,-205.898 2406.75,-223.898"/>
<text text-anchor="middle" x="2349.75" y="-212.698" font-family="Times,serif" font-size="9.00">enemyRadar[LeftFront15ø]</text>
</g>
<!-- enemyRadar[LeftFront15ø]&#45;&gt;Shoot -->
<g id="edge41" class="edge"><title>enemyRadar[LeftFront15ø]&#45;&gt;Shoot</title>
<path fill="none" stroke="red" stroke-width="0.281609" d="M2327.46,-205.837C2314.67,-201.223 2298.32,-195.338 2283.75,-190.149 2180.79,-153.485 2058.87,-110.689 2000.41,-90.2065"/>
<polygon fill="red" stroke="red" stroke-width="0.281609" points="2001.51,-86.8838 1990.92,-86.8812 1999.2,-93.4902 2001.51,-86.8838"/>
</g>
<!-- enemyRadar[LeftFront15ø]&#45;&gt;Turn left/right -->
<g id="edge24" class="edge"><title>enemyRadar[LeftFront15ø]&#45;&gt;Turn left/right</title>
<path fill="none" stroke="red" stroke-width="0.136069" stroke-dasharray="1,5" d="M2331.05,-205.785C2318.03,-200.482 2300.14,-193.872 2283.75,-190.149 2129.53,-155.117 2085.03,-184.086 1929.75,-154.149 1855.19,-139.776 1771.29,-114.006 1718.24,-96.4822"/>
<polygon fill="red" stroke="red" stroke-width="0.136069" points="1719.3,-93.1454 1708.71,-93.3106 1717.09,-99.7876 1719.3,-93.1454"/>
</g>
<!-- enemyRadar[RightFront7.5ø] -->
<g id="node17" class="node"><title>enemyRadar[RightFront7.5ø]</title>
<polygon fill="lightgray" stroke="black" points="691.749,-223.898 569.749,-223.898 569.749,-205.898 691.749,-205.898 691.749,-223.898"/>
<text text-anchor="middle" x="630.749" y="-212.698" font-family="Times,serif" font-size="9.00">enemyRadar[RightFront7.5ø]</text>
</g>
<!-- enemyRadar[RightFront7.5ø]&#45;&gt;Move Forward/Backward -->
<g id="edge10" class="edge"><title>enemyRadar[RightFront7.5ø]&#45;&gt;Move Forward/Backward</title>
<path fill="none" stroke="green" stroke-width="0.113399" d="M654.042,-205.862C667.64,-201.204 685.14,-195.267 700.749,-190.149 793.185,-159.84 899.649,-126.321 971.484,-103.908"/>
<polygon fill="green" stroke="green" stroke-width="0.113399" points="972.881,-107.138 981.386,-100.82 970.797,-100.456 972.881,-107.138"/>
</g>
<!-- enemyRadar[RightFront7.5ø]&#45;&gt; Move Left/Right -->
<g id="edge38" class="edge"><title>enemyRadar[RightFront7.5ø]&#45;&gt; Move Left/Right</title>
<path fill="none" stroke="red" stroke-width="0.167192" stroke-dasharray="1,5" d="M630.749,-205.808C630.749,-193.159 630.749,-167.551 630.749,-142.562"/>
<polygon fill="red" stroke="red" stroke-width="0.167192" points="634.249,-142.305 630.749,-132.305 627.249,-142.305 634.249,-142.305"/>
</g>
<!-- enemyRadar[RightFront7.5ø]&#45;&gt;Turn left/right -->
<g id="edge1" class="edge"><title>enemyRadar[RightFront7.5ø]&#45;&gt;Turn left/right</title>
<path fill="none" stroke="red" stroke-width="0.339141" d="M650.303,-205.819C664.146,-200.46 683.282,-193.769 700.749,-190.149 892.875,-150.331 945.789,-176.255 1140.75,-154.149 1311.72,-134.763 1512.81,-103.056 1608.57,-87.4092"/>
<polygon fill="red" stroke="red" stroke-width="0.339141" points="1609.31,-90.8349 1618.61,-85.7642 1608.18,-83.927 1609.31,-90.8349"/>
</g>
<!-- enemyRadar[LeftFront7.5ø] -->
<g id="node18" class="node"><title>enemyRadar[LeftFront7.5ø]</title>
<polygon fill="lightgray" stroke="black" points="1636.75,-223.898 1520.75,-223.898 1520.75,-205.898 1636.75,-205.898 1636.75,-223.898"/>
<text text-anchor="middle" x="1578.75" y="-212.698" font-family="Times,serif" font-size="9.00">enemyRadar[LeftFront7.5ø]</text>
</g>
<!-- enemyRadar[LeftFront7.5ø]&#45;&gt;Move Forward/Backward -->
<g id="edge26" class="edge"><title>enemyRadar[LeftFront7.5ø]&#45;&gt;Move Forward/Backward</title>
<path fill="none" stroke="green" stroke-width="0.127868" d="M1557.8,-205.865C1544.68,-200.985 1527.36,-194.816 1511.75,-190.149 1383.56,-151.817 1232.34,-116.66 1140.03,-96.3042"/>
<polygon fill="green" stroke="green" stroke-width="0.127868" points="1140.69,-92.867 1130.18,-94.1386 1139.19,-99.7038 1140.69,-92.867"/>
</g>
<!-- enemyRadar[LeftFront7.5ø]&#45;&gt;Turn left/right -->
<g id="edge31" class="edge"><title>enemyRadar[LeftFront7.5ø]&#45;&gt;Turn left/right</title>
<path fill="none" stroke="red" stroke-width="0.115047" d="M1583.87,-205.808C1593.74,-190.215 1616.09,-154.925 1634.79,-125.382"/>
<polygon fill="red" stroke="red" stroke-width="0.115047" points="1637.82,-127.147 1640.21,-116.826 1631.91,-123.402 1637.82,-127.147"/>
</g>
<!-- enemyRadar[RightFront2.5ø] -->
<g id="node19" class="node"><title>enemyRadar[RightFront2.5ø]</title>
<polygon fill="lightgray" stroke="black" points="1282.75,-223.898 1160.75,-223.898 1160.75,-205.898 1282.75,-205.898 1282.75,-223.898"/>
<text text-anchor="middle" x="1221.75" y="-212.698" font-family="Times,serif" font-size="9.00">enemyRadar[RightFront2.5ø]</text>
</g>
<!-- enemyRadar[RightFront2.5ø]&#45;&gt;Shoot -->
<g id="edge33" class="edge"><title>enemyRadar[RightFront2.5ø]&#45;&gt;Shoot</title>
<path fill="none" stroke="green" stroke-width="0.534715" stroke-dasharray="1,5" d="M1241.31,-205.83C1255.15,-200.476 1274.29,-193.788 1291.75,-190.149 1479.06,-151.124 1532.94,-190.735 1720.75,-154.149 1797.68,-139.162 1884.62,-108.83 1931.45,-91.333"/>
<polygon fill="green" stroke="green" stroke-width="0.534715" points="1932.69,-94.6051 1940.82,-87.8042 1930.23,-88.0545 1932.69,-94.6051"/>
</g>
<!-- enemyRadar[RightFront2.5ø]&#45;&gt;Move Forward/Backward -->
<g id="edge6" class="edge"><title>enemyRadar[RightFront2.5ø]&#45;&gt;Move Forward/Backward</title>
<path fill="none" stroke="red" stroke-width="0.164882" d="M1211.8,-205.808C1194.25,-191.533 1156.4,-160.752 1122.26,-132.984"/>
<polygon fill="red" stroke="red" stroke-width="0.164882" points="1124.1,-129.968 1114.13,-126.373 1119.68,-135.398 1124.1,-129.968"/>
</g>
<!-- enemyRadar[RightFront2.5ø]&#45;&gt; Move Left/Right -->
<g id="edge7" class="edge"><title>enemyRadar[RightFront2.5ø]&#45;&gt; Move Left/Right</title>
<path fill="none" stroke="green" stroke-width="0.650618" d="M1186.55,-205.808C1089.77,-183.567 818.641,-121.256 694.396,-92.702"/>
<polygon fill="green" stroke="green" stroke-width="0.650618" points="695.161,-89.2868 684.631,-90.4579 693.593,-96.1089 695.161,-89.2868"/>
</g>
<!-- enemyRadar[LeftFront2.5ø] -->
<g id="node20" class="node"><title>enemyRadar[LeftFront2.5ø]</title>
<polygon fill="lightgray" stroke="black" points="1896.75,-223.898 1780.75,-223.898 1780.75,-205.898 1896.75,-205.898 1896.75,-223.898"/>
<text text-anchor="middle" x="1838.75" y="-212.698" font-family="Times,serif" font-size="9.00">enemyRadar[LeftFront2.5ø]</text>
</g>
<!-- enemyRadar[LeftFront2.5ø]&#45;&gt;Shoot -->
<g id="edge37" class="edge"><title>enemyRadar[LeftFront2.5ø]&#45;&gt;Shoot</title>
<path fill="none" stroke="green" stroke-width="0.115873" stroke-dasharray="1,5" d="M1846.31,-205.808C1864.53,-186.329 1911.48,-136.113 1940.8,-104.759"/>
<polygon fill="green" stroke="green" stroke-width="0.115873" points="1943.57,-106.919 1947.84,-97.2243 1938.46,-102.138 1943.57,-106.919"/>
</g>
<!-- enemyRadar[LeftFront2.5ø]&#45;&gt;Move Forward/Backward -->
<g id="edge23" class="edge"><title>enemyRadar[LeftFront2.5ø]&#45;&gt;Move Forward/Backward</title>
<path fill="none" stroke="green" stroke-width="0.113403" d="M1819.11,-205.85C1805.91,-200.712 1788.02,-194.267 1771.75,-190.149 1653.61,-160.254 1304.59,-111.542 1141.09,-89.5234"/>
<polygon fill="green" stroke="green" stroke-width="0.113403" points="1141.44,-86.0397 1131.07,-88.1758 1140.51,-92.9773 1141.44,-86.0397"/>
</g>
<!-- enemyRadar[Front7Ø] -->
<g id="node21" class="node"><title>enemyRadar[Front7Ø]</title>
<polygon fill="lightgray" stroke="black" points="807.749,-223.898 709.749,-223.898 709.749,-205.898 807.749,-205.898 807.749,-223.898"/>
<text text-anchor="middle" x="758.749" y="-212.698" font-family="Times,serif" font-size="9.00">enemyRadar[Front7Ø]</text>
</g>
<!-- enemyRadar[Front7Ø]&#45;&gt;Move Forward/Backward -->
<g id="edge9" class="edge"><title>enemyRadar[Front7Ø]&#45;&gt;Move Forward/Backward</title>
<path fill="none" stroke="green" stroke-width="0.16584" d="M776.378,-205.808C814.714,-188.218 907.669,-145.564 975.653,-114.369"/>
<polygon fill="green" stroke="green" stroke-width="0.16584" points="977.443,-117.398 985.072,-110.047 974.524,-111.036 977.443,-117.398"/>
</g>
<!-- enemyRadar[Front7Ø]&#45;&gt; Move Left/Right -->
<g id="edge11" class="edge"><title>enemyRadar[Front7Ø]&#45;&gt; Move Left/Right</title>
<path fill="none" stroke="green" stroke-width="0.434621" d="M751.125,-205.808C736.389,-190.172 702.99,-154.731 675.102,-125.139"/>
<polygon fill="green" stroke="green" stroke-width="0.434621" points="677.551,-122.634 668.145,-117.757 672.457,-127.435 677.551,-122.634"/>
</g>
<!-- enemyRadar[Front7Ø]&#45;&gt;Turn left/right -->
<g id="edge34" class="edge"><title>enemyRadar[Front7Ø]&#45;&gt;Turn left/right</title>
<path fill="none" stroke="green" stroke-width="0.410133" d="M775.083,-205.777C786.481,-200.47 802.199,-193.859 816.749,-190.149 957.143,-154.354 997.037,-172.56 1140.75,-154.149 1311.42,-132.285 1512.65,-101.723 1608.51,-86.8718"/>
<polygon fill="green" stroke="green" stroke-width="0.410133" points="1609.21,-90.3041 1618.56,-85.3121 1608.14,-83.3869 1609.21,-90.3041"/>
</g>
<!-- OnTarget -->
<g id="node22" class="node"><title>OnTarget</title>
<polygon fill="lightgray" stroke="black" points="1350.75,-223.898 1300.75,-223.898 1300.75,-205.898 1350.75,-205.898 1350.75,-223.898"/>
<text text-anchor="middle" x="1325.75" y="-212.698" font-family="Times,serif" font-size="9.00">OnTarget</text>
</g>
<!-- OnTarget&#45;&gt;Shoot -->
<g id="edge44" class="edge"><title>OnTarget&#45;&gt;Shoot</title>
<path fill="none" stroke="green" stroke-width="1.48826" d="M1334.84,-205.848C1341.52,-200.428 1351.08,-193.654 1360.75,-190.149 1511.91,-135.326 1563.17,-186.153 1720.75,-154.149 1797.56,-138.549 1884.54,-108.447 1931.42,-91.1533"/>
<polygon fill="green" stroke="green" stroke-width="1.48826" points="1932.64,-94.4331 1940.79,-87.6673 1930.2,-87.872 1932.64,-94.4331"/>
</g>
<!-- OnTarget&#45;&gt;Move Forward/Backward -->
<g id="edge15" class="edge"><title>OnTarget&#45;&gt;Move Forward/Backward</title>
<path fill="none" stroke="green" stroke-width="0.1589" d="M1315.03,-205.716C1308.49,-200.897 1299.84,-194.847 1291.75,-190.149 1241.09,-160.76 1181.48,-132.6 1134.72,-111.859"/>
<polygon fill="green" stroke="green" stroke-width="0.1589" points="1136.11,-108.646 1125.55,-107.812 1133.28,-115.05 1136.11,-108.646"/>
</g>
<!-- OnTarget&#45;&gt; Move Left/Right -->
<g id="edge45" class="edge"><title>OnTarget&#45;&gt; Move Left/Right</title>
<path fill="none" stroke="red" stroke-width="0.419997" d="M1316.94,-205.878C1310.47,-200.473 1301.18,-193.704 1291.75,-190.149 1156.58,-139.217 1111.2,-178.044 968.749,-154.149 872.124,-137.942 761.619,-111.56 694.017,-94.5133"/>
<polygon fill="red" stroke="red" stroke-width="0.419997" points="694.506,-91.0267 683.953,-91.9645 692.788,-97.8125 694.506,-91.0267"/>
</g>
<!-- OnTarget&#45;&gt;Turn left/right -->
<g id="edge48" class="edge"><title>OnTarget&#45;&gt;Turn left/right</title>
<path fill="none" stroke="green" stroke-width="0.339305" d="M1336.36,-205.698C1343.09,-200.755 1352.13,-194.58 1360.75,-190.149 1444.33,-147.198 1548.29,-112.576 1610.43,-93.7043"/>
<polygon fill="green" stroke="green" stroke-width="0.339305" points="1611.47,-97.0467 1620.04,-90.8118 1609.45,-90.344 1611.47,-97.0467"/>
</g>
<!-- bias -->
<g id="node23" class="node"><title>bias</title>
<polygon fill="lightgray" stroke="black" points="1762.25,-223.898 1731.25,-223.898 1731.25,-205.898 1762.25,-205.898 1762.25,-223.898"/>
<text text-anchor="middle" x="1746.75" y="-212.698" font-family="Times,serif" font-size="9.00">bias</text>
</g>
<!-- bias&#45;&gt;Shoot -->
<g id="edge30" class="edge"><title>bias&#45;&gt;Shoot</title>
<path fill="none" stroke="red" stroke-width="0.125311" d="M1754.65,-205.464C1759.36,-200.674 1765.61,-194.736 1771.75,-190.149 1824.68,-150.592 1892.79,-114.182 1932.63,-94.1611"/>
<polygon fill="red" stroke="red" stroke-width="0.125311" points="1934.25,-97.2621 1941.64,-89.6689 1931.13,-90.9971 1934.25,-97.2621"/>
</g>
<!-- bias&#45;&gt; Move Left/Right -->
<g id="edge49" class="edge"><title>bias&#45;&gt; Move Left/Right</title>
<path fill="none" stroke="red" stroke-width="1.27406" d="M1731.17,-209.322C1711.47,-203.748 1676.42,-194.535 1645.75,-190.149 1347.47,-147.496 1267.23,-195.376 968.749,-154.149 871.695,-140.744 761.308,-113.599 693.847,-95.6255"/>
<polygon fill="red" stroke="red" stroke-width="1.27406" points="694.37,-92.1421 683.805,-92.9331 692.557,-98.9034 694.37,-92.1421"/>
</g>
<!-- bias&#45;&gt;Turn left/right -->
<g id="edge43" class="edge"><title>bias&#45;&gt;Turn left/right</title>
<path fill="none" stroke="red" stroke-width="0.363845" d="M1741.86,-205.808C1732.55,-190.385 1711.61,-155.694 1693.9,-126.353"/>
<polygon fill="red" stroke="red" stroke-width="0.363845" points="1696.68,-124.198 1688.52,-117.446 1690.69,-127.816 1696.68,-124.198"/>
</g>
<!-- 833&#45;&gt;Turn left/right -->
<g id="edge56" class="edge"><title>833&#45;&gt;Turn left/right</title>
<path fill="none" stroke="green" stroke-width="0.300021" d="M1995.19,-201.409C1989.52,-197.484 1983.03,-193.345 1976.75,-190.149 1890.56,-146.311 1783.11,-111.741 1719.44,-93.1563"/>
<polygon fill="green" stroke="green" stroke-width="0.300021" points="1720.18,-89.7284 1709.6,-90.3118 1718.24,-96.4527 1720.18,-89.7284"/>
</g>
<!-- 430&#45;&gt;Shoot -->
<g id="edge59" class="edge"><title>430&#45;&gt;Shoot</title>
<path fill="none" stroke="green" stroke-width="0.253172" d="M1496.66,-199.719C1501.2,-196.085 1506.41,-192.533 1511.75,-190.149 1597.81,-151.707 1629.1,-176.172 1720.75,-154.149 1796.8,-135.875 1883.8,-106.873 1930.94,-90.4613"/>
<polygon fill="green" stroke="green" stroke-width="0.253172" points="1932.38,-93.6687 1940.66,-87.0612 1930.06,-87.0618 1932.38,-93.6687"/>
</g>
<!-- 430&#45;&gt; Move Left/Right -->
<g id="edge54" class="edge"><title>430&#45;&gt; Move Left/Right</title>
<path fill="none" stroke="red" stroke-width="0.742242" d="M1466.98,-199.384C1462.44,-195.744 1457.19,-192.274 1451.75,-190.149 1351.48,-151.027 1075.2,-170.009 968.749,-154.149 871.843,-139.713 761.415,-112.848 693.906,-95.2161"/>
<polygon fill="red" stroke="red" stroke-width="0.742242" points="694.417,-91.7318 683.856,-92.5766 692.639,-98.5021 694.417,-91.7318"/>
</g>
<!-- 1237&#45;&gt; Move Left/Right -->
<g id="edge61" class="edge"><title>1237&#45;&gt; Move Left/Right</title>
<path fill="none" stroke="red" stroke-width="0.651185" d="M44.6921,-199.907C50.6073,-196.276 57.2474,-192.679 63.7487,-190.149 237.683,-122.475 458.185,-93.9763 565.766,-83.4512"/>
<polygon fill="red" stroke="red" stroke-width="0.651185" points="566.199,-86.9258 575.82,-82.488 565.532,-79.9577 566.199,-86.9258"/>
</g>
<!-- 952&#45;&gt; Move Left/Right -->
<g id="edge58" class="edge"><title>952&#45;&gt; Move Left/Right</title>
<path fill="none" stroke="red" stroke-width="0.170064" d="M181.149,-201.072C186.8,-197.125 193.327,-193.058 199.749,-190.149 323.215,-134.228 479.7,-102.339 566.081,-87.792"/>
<polygon fill="red" stroke="red" stroke-width="0.170064" points="566.713,-91.235 576.006,-86.1452 565.568,-84.3294 566.713,-91.235"/>
</g>
</g>
</svg>
