<?xml version="1.0" encoding="UTF-8" standalone="no"?>
<!DOCTYPE svg PUBLIC "-//W3C//DTD SVG 1.1//EN"
 "http://www.w3.org/Graphics/SVG/1.1/DTD/svg11.dtd">
<!-- Generated by graphviz version 2.38.0 (20140413.2041)
 -->
<!-- Title: %3 Pages: 1 -->
<svg width="2517pt" height="172pt"
 viewBox="0.00 0.00 2516.50 172.31" xmlns="http://www.w3.org/2000/svg" xmlns:xlink="http://www.w3.org/1999/xlink">
<g id="graph0" class="graph" transform="scale(1 1) rotate(0) translate(4 168.309)">
<title>%3</title>
<polygon fill="white" stroke="none" points="-4,4 -4,-168.309 2512.5,-168.309 2512.5,4 -4,4"/>
<!-- wallRadar[1,0] -->
<g id="node1" class="node"><title>wallRadar[1,0]</title>
<polygon fill="lightgray" stroke="black" points="744.5,-164.309 674.5,-164.309 674.5,-146.309 744.5,-146.309 744.5,-164.309"/>
<text text-anchor="middle" x="709.5" y="-153.109" font-family="Times,serif" font-size="9.00">wallRadar[1,0]</text>
</g>
<!-- Move Forward -->
<g id="node25" class="node"><title>Move Forward</title>
<ellipse fill="lightblue" stroke="black" cx="1042.5" cy="-55.1543" rx="50.41" ry="50.41"/>
<text text-anchor="middle" x="1042.5" y="-52.9543" font-family="Times,serif" font-size="9.00">Move Forward</text>
</g>
<!-- wallRadar[1,0]&#45;&gt;Move Forward -->
<g id="edge42" class="edge"><title>wallRadar[1,0]&#45;&gt;Move Forward</title>
<path fill="none" stroke="red" stroke-width="0.357466" d="M744.56,-147.909C747.583,-147.365 750.595,-146.825 753.5,-146.309 845.438,-129.956 873.709,-144.766 960.5,-110.309 972.136,-105.689 983.839,-99.268 994.614,-92.458"/>
<polygon fill="red" stroke="red" stroke-width="0.357466" points="996.591,-95.3474 1003.04,-86.9401 992.755,-89.4918 996.591,-95.3474"/>
</g>
<!-- Move Left -->
<g id="node27" class="node"><title>Move Left</title>
<ellipse fill="lightblue" stroke="black" cx="1299.5" cy="-55.1543" rx="38.3684" ry="38.3684"/>
<text text-anchor="middle" x="1299.5" y="-52.9543" font-family="Times,serif" font-size="9.00">Move Left</text>
</g>
<!-- wallRadar[1,0]&#45;&gt;Move Left -->
<g id="edge27" class="edge"><title>wallRadar[1,0]&#45;&gt;Move Left</title>
<path fill="none" stroke="red" stroke-width="0.184809" d="M744.512,-147.591C747.545,-147.116 750.573,-146.679 753.5,-146.309 863.797,-132.344 1153.08,-160.065 1252.5,-110.309 1259.78,-106.665 1266.41,-101.35 1272.24,-95.4546"/>
<polygon fill="red" stroke="red" stroke-width="0.184809" points="1275.09,-97.5252 1279.19,-87.7588 1269.89,-92.8323 1275.09,-97.5252"/>
</g>
<!-- wallRadar[0,1] -->
<g id="node2" class="node"><title>wallRadar[0,1]</title>
<polygon fill="lightgray" stroke="black" points="656.5,-164.309 586.5,-164.309 586.5,-146.309 656.5,-146.309 656.5,-164.309"/>
<text text-anchor="middle" x="621.5" y="-153.109" font-family="Times,serif" font-size="9.00">wallRadar[0,1]</text>
</g>
<!-- Shoot -->
<g id="node24" class="node"><title>Shoot</title>
<ellipse fill="lightblue" stroke="black" cx="924.5" cy="-55.1543" rx="26.7407" ry="26.7407"/>
<text text-anchor="middle" x="924.5" y="-52.9543" font-family="Times,serif" font-size="9.00">Shoot</text>
</g>
<!-- wallRadar[0,1]&#45;&gt;Shoot -->
<g id="edge39" class="edge"><title>wallRadar[0,1]&#45;&gt;Shoot</title>
<path fill="none" stroke="green" stroke-width="0.312583" d="M646.296,-146.276C699.984,-128.885 827.138,-87.694 889.198,-67.5901"/>
<polygon fill="green" stroke="green" stroke-width="0.312583" points="890.499,-70.8478 898.934,-64.4363 888.342,-64.1885 890.499,-70.8478"/>
</g>
<!-- wallRadar[0,1]&#45;&gt;Move Forward -->
<g id="edge3" class="edge"><title>wallRadar[0,1]&#45;&gt;Move Forward</title>
<path fill="none" stroke="green" stroke-width="0.188381" d="M656.534,-147.748C659.563,-147.239 662.583,-146.751 665.5,-146.309 796.088,-126.486 836.54,-155.916 960.5,-110.309 972.376,-105.939 984.254,-99.5558 995.135,-92.6921"/>
<polygon fill="green" stroke="green" stroke-width="0.188381" points="997.192,-95.5288 1003.63,-87.1139 993.349,-89.6777 997.192,-95.5288"/>
</g>
<!--  Move Backward -->
<g id="node26" class="node"><title> Move Backward</title>
<ellipse fill="lightblue" stroke="black" cx="1188.5" cy="-55.1543" rx="55.3091" ry="55.3091"/>
<text text-anchor="middle" x="1188.5" y="-52.9543" font-family="Times,serif" font-size="9.00"> Move Backward</text>
</g>
<!-- wallRadar[0,1]&#45;&gt; Move Backward -->
<g id="edge21" class="edge"><title>wallRadar[0,1]&#45;&gt; Move Backward</title>
<path fill="none" stroke="green" stroke-width="0.284049" d="M656.516,-147.624C659.549,-147.142 662.575,-146.694 665.5,-146.309 858.268,-120.887 916.907,-171.394 1101.5,-110.309 1113.23,-106.428 1124.99,-100.668 1135.92,-94.3337"/>
<polygon fill="green" stroke="green" stroke-width="0.284049" points="1137.73,-97.3261 1144.48,-89.1559 1134.11,-91.3365 1137.73,-97.3261"/>
</g>
<!-- wallRadar[0,1]&#45;&gt;Move Left -->
<g id="edge47" class="edge"><title>wallRadar[0,1]&#45;&gt;Move Left</title>
<path fill="none" stroke="red" stroke-width="0.183926" d="M656.507,-147.557C659.542,-147.089 662.571,-146.663 665.5,-146.309 795.241,-130.592 1135.32,-168.168 1252.5,-110.309 1259.8,-106.705 1266.44,-101.409 1272.27,-95.5199"/>
<polygon fill="red" stroke="red" stroke-width="0.183926" points="1275.12,-97.592 1279.23,-87.8267 1269.92,-92.8977 1275.12,-97.592"/>
</g>
<!-- Move right -->
<g id="node28" class="node"><title>Move right</title>
<ellipse fill="lightblue" stroke="black" cx="1611.5" cy="-55.1543" rx="39.6962" ry="39.6962"/>
<text text-anchor="middle" x="1611.5" y="-52.9543" font-family="Times,serif" font-size="9.00">Move right</text>
</g>
<!-- wallRadar[0,1]&#45;&gt;Move right -->
<g id="edge68" class="edge"><title>wallRadar[0,1]&#45;&gt;Move right</title>
<path fill="none" stroke="red" stroke-width="0.394213" d="M656.504,-147.53C659.54,-147.068 662.57,-146.651 665.5,-146.309 966.541,-111.129 1045.86,-148.757 1346.5,-110.309 1423.08,-100.515 1510.59,-80.966 1563.41,-68.2304"/>
<polygon fill="red" stroke="red" stroke-width="0.394213" points="1564.29,-71.6191 1573.18,-65.8573 1562.64,-64.817 1564.29,-71.6191"/>
</g>
<!-- wallRadar[&#45;1,0] -->
<g id="node3" class="node"><title>wallRadar[&#45;1,0]</title>
<polygon fill="lightgray" stroke="black" points="73,-164.309 0,-164.309 0,-146.309 73,-146.309 73,-164.309"/>
<text text-anchor="middle" x="36.5" y="-153.109" font-family="Times,serif" font-size="9.00">wallRadar[&#45;1,0]</text>
</g>
<!-- wallRadar[&#45;1,0]&#45;&gt;Shoot -->
<g id="edge73" class="edge"><title>wallRadar[&#45;1,0]&#45;&gt;Shoot</title>
<path fill="none" stroke="red" stroke-width="0.212438" d="M73.3036,-147.551C76.0737,-147.108 78.829,-146.688 81.5,-146.309 391.679,-102.205 768.846,-69.116 887.168,-59.2153"/>
<polygon fill="red" stroke="red" stroke-width="0.212438" points="887.808,-62.6742 897.483,-58.3562 887.227,-55.6984 887.808,-62.6742"/>
</g>
<!-- wallRadar[0,&#45;1] -->
<g id="node4" class="node"><title>wallRadar[0,&#45;1]</title>
<polygon fill="lightgray" stroke="black" points="2204,-164.309 2131,-164.309 2131,-146.309 2204,-146.309 2204,-164.309"/>
<text text-anchor="middle" x="2167.5" y="-153.109" font-family="Times,serif" font-size="9.00">wallRadar[0,&#45;1]</text>
</g>
<!-- wallRadar[0,&#45;1]&#45;&gt;Move Left -->
<g id="edge79" class="edge"><title>wallRadar[0,&#45;1]&#45;&gt;Move Left</title>
<path fill="none" stroke="green" stroke-width="0.300252" d="M2130.71,-147.424C2127.94,-147.01 2125.18,-146.632 2122.5,-146.309 1874.89,-116.435 1809.68,-143.538 1562.5,-110.309 1486.27,-100.06 1399.05,-80.5258 1346.67,-67.9331"/>
<polygon fill="green" stroke="green" stroke-width="0.300252" points="1347.22,-64.4642 1336.68,-65.5119 1345.57,-71.2675 1347.22,-64.4642"/>
</g>
<!-- Turn Left -->
<g id="node29" class="node"><title>Turn Left</title>
<ellipse fill="lightblue" stroke="black" cx="1722.5" cy="-55.1543" rx="35.2113" ry="35.2113"/>
<text text-anchor="middle" x="1722.5" y="-52.9543" font-family="Times,serif" font-size="9.00">Turn Left</text>
</g>
<!-- wallRadar[0,&#45;1]&#45;&gt;Turn Left -->
<g id="edge49" class="edge"><title>wallRadar[0,&#45;1]&#45;&gt;Turn Left</title>
<path fill="none" stroke="red" stroke-width="0.336318" d="M2130.69,-147.621C2127.92,-147.162 2125.17,-146.719 2122.5,-146.309 2000.24,-127.477 1965.7,-143.392 1846.5,-110.309 1817.42,-102.239 1786.31,-88.6335 1762.52,-77.0791"/>
<polygon fill="red" stroke="red" stroke-width="0.336318" points="1763.97,-73.8926 1753.46,-72.6039 1760.87,-80.1693 1763.97,-73.8926"/>
</g>
<!-- wallRadar[0.7,0.7] -->
<g id="node5" class="node"><title>wallRadar[0.7,0.7]</title>
<polygon fill="lightgray" stroke="black" points="2113,-164.309 2030,-164.309 2030,-146.309 2113,-146.309 2113,-164.309"/>
<text text-anchor="middle" x="2071.5" y="-153.109" font-family="Times,serif" font-size="9.00">wallRadar[0.7,0.7]</text>
</g>
<!-- wallRadar[0.7,0.7]&#45;&gt;Shoot -->
<g id="edge34" class="edge"><title>wallRadar[0.7,0.7]&#45;&gt;Shoot</title>
<path fill="none" stroke="red" stroke-width="0.154713" d="M2029.8,-147.348C2026.66,-146.952 2023.53,-146.598 2020.5,-146.309 1905.73,-135.355 1090.19,-153.997 983.5,-110.309 969.966,-104.767 957.593,-94.6361 947.712,-84.6234"/>
<polygon fill="red" stroke="red" stroke-width="0.154713" points="950.044,-81.9925 940.663,-77.0676 944.925,-86.7674 950.044,-81.9925"/>
</g>
<!-- wallRadar[0.7,0.7]&#45;&gt;Move right -->
<g id="edge22" class="edge"><title>wallRadar[0.7,0.7]&#45;&gt;Move right</title>
<path fill="none" stroke="green" stroke-width="0.201609" d="M2029.78,-147.587C2026.64,-147.136 2023.52,-146.704 2020.5,-146.309 1868.95,-126.46 1819.73,-168.745 1678.5,-110.309 1667.16,-105.618 1656.21,-98.3727 1646.56,-90.6919"/>
<polygon fill="green" stroke="green" stroke-width="0.201609" points="1648.7,-87.9169 1638.79,-84.1841 1644.21,-93.2856 1648.7,-87.9169"/>
</g>
<!-- Turn Right -->
<g id="node30" class="node"><title>Turn Right</title>
<ellipse fill="lightblue" stroke="black" cx="1895.5" cy="-55.1543" rx="39.6962" ry="39.6962"/>
<text text-anchor="middle" x="1895.5" y="-52.9543" font-family="Times,serif" font-size="9.00">Turn Right</text>
</g>
<!-- wallRadar[0.7,0.7]&#45;&gt;Turn Right -->
<g id="edge66" class="edge"><title>wallRadar[0.7,0.7]&#45;&gt;Turn Right</title>
<path fill="none" stroke="red" stroke-width="0.309233" d="M2057.1,-146.276C2031.56,-132.034 1977.41,-101.833 1938.83,-80.3206"/>
<polygon fill="red" stroke="red" stroke-width="0.309233" points="1940.32,-77.1411 1929.88,-75.3271 1936.91,-83.2546 1940.32,-77.1411"/>
</g>
<!-- wallRadar[&#45;0.7,0.7] -->
<g id="node6" class="node"><title>wallRadar[&#45;0.7,0.7]</title>
<polygon fill="lightgray" stroke="black" points="848.5,-164.309 762.5,-164.309 762.5,-146.309 848.5,-146.309 848.5,-164.309"/>
<text text-anchor="middle" x="805.5" y="-153.109" font-family="Times,serif" font-size="9.00">wallRadar[&#45;0.7,0.7]</text>
</g>
<!-- wallRadar[&#45;0.7,0.7]&#45;&gt;Shoot -->
<g id="edge31" class="edge"><title>wallRadar[&#45;0.7,0.7]&#45;&gt;Shoot</title>
<path fill="none" stroke="red" stroke-width="0.102661" d="M815.238,-146.276C832.744,-131.837 870.14,-100.992 896.28,-79.431"/>
<polygon fill="red" stroke="red" stroke-width="0.102661" points="898.509,-82.1292 903.997,-73.0661 894.055,-76.7291 898.509,-82.1292"/>
</g>
<!-- wallRadar[&#45;0.7,0.7]&#45;&gt;Move Forward -->
<g id="edge71" class="edge"><title>wallRadar[&#45;0.7,0.7]&#45;&gt;Move Forward</title>
<path fill="none" stroke="green" stroke-width="0.42429" d="M846.528,-146.278C878.494,-139.173 923.507,-127.28 960.5,-110.309 971.879,-105.088 983.472,-98.4108 994.222,-91.5407"/>
<polygon fill="green" stroke="green" stroke-width="0.42429" points="996.203,-94.4274 1002.64,-86.0139 992.361,-88.5754 996.203,-94.4274"/>
</g>
<!-- wallRadar[&#45;0.7,0.7]&#45;&gt; Move Backward -->
<g id="edge63" class="edge"><title>wallRadar[&#45;0.7,0.7]&#45;&gt; Move Backward</title>
<path fill="none" stroke="red" stroke-width="0.243016" d="M848.627,-147.653C851.63,-147.196 854.61,-146.744 857.5,-146.309 965.895,-129.974 998.589,-148.064 1101.5,-110.309 1113.1,-106.054 1124.8,-100.123 1135.71,-93.738"/>
<polygon fill="red" stroke="red" stroke-width="0.243016" points="1137.53,-96.7255 1144.26,-88.5437 1133.9,-90.7421 1137.53,-96.7255"/>
</g>
<!-- wallRadar[&#45;0.7,0.7]&#45;&gt;Move Left -->
<g id="edge55" class="edge"><title>wallRadar[&#45;0.7,0.7]&#45;&gt;Move Left</title>
<path fill="none" stroke="green" stroke-width="0.421936" d="M848.602,-147.468C851.61,-147.055 854.599,-146.664 857.5,-146.309 944.989,-135.602 1174.05,-150.497 1252.5,-110.309 1259.74,-106.597 1266.36,-101.248 1272.18,-95.3407"/>
<polygon fill="green" stroke="green" stroke-width="0.421936" points="1275.03,-97.4086 1279.13,-87.6403 1269.83,-92.718 1275.03,-97.4086"/>
</g>
<!-- wallRadar[&#45;0.7,0.7]&#45;&gt;Turn Left -->
<g id="edge20" class="edge"><title>wallRadar[&#45;0.7,0.7]&#45;&gt;Turn Left</title>
<path fill="none" stroke="red" stroke-width="0.256101" d="M848.585,-147.311C851.597,-146.935 854.591,-146.595 857.5,-146.309 948.37,-137.353 1596.93,-151.348 1678.5,-110.309 1686.2,-106.434 1693.02,-100.53 1698.85,-94.0234"/>
<polygon fill="red" stroke="red" stroke-width="0.256101" points="1701.63,-96.155 1705.24,-86.1941 1696.21,-91.7298 1701.63,-96.155"/>
</g>
<!-- wallRadar[&#45;0.7,&#45;0.7] -->
<g id="node7" class="node"><title>wallRadar[&#45;0.7,&#45;0.7]</title>
<polygon fill="lightgray" stroke="black" points="1549,-164.309 1460,-164.309 1460,-146.309 1549,-146.309 1549,-164.309"/>
<text text-anchor="middle" x="1504.5" y="-153.109" font-family="Times,serif" font-size="9.00">wallRadar[&#45;0.7,&#45;0.7]</text>
</g>
<!-- wallRadar[&#45;0.7,&#45;0.7]&#45;&gt;Shoot -->
<g id="edge58" class="edge"><title>wallRadar[&#45;0.7,&#45;0.7]&#45;&gt;Shoot</title>
<path fill="none" stroke="green" stroke-width="0.215494" d="M1460,-147.35C1457.13,-146.976 1454.27,-146.624 1451.5,-146.309 1347.86,-134.517 1079.18,-151.856 983.5,-110.309 970.085,-104.483 957.734,-94.3021 947.836,-84.3283"/>
<polygon fill="green" stroke="green" stroke-width="0.215494" points="950.17,-81.7018 940.769,-76.8172 945.072,-86.4986 950.17,-81.7018"/>
</g>
<!-- wallRadar[&#45;0.7,&#45;0.7]&#45;&gt; Move Backward -->
<g id="edge80" class="edge"><title>wallRadar[&#45;0.7,&#45;0.7]&#45;&gt; Move Backward</title>
<path fill="none" stroke="red" stroke-width="0.132193" d="M1459.81,-147.129C1389.95,-135.815 1261.83,-114.672 1252.5,-110.309 1246.79,-107.637 1241.18,-104.32 1235.8,-100.651"/>
<polygon fill="red" stroke="red" stroke-width="0.132193" points="1237.7,-97.7019 1227.55,-94.6395 1233.57,-103.358 1237.7,-97.7019"/>
</g>
<!-- wallRadar[&#45;0.7,&#45;0.7]&#45;&gt;Move Left -->
<g id="edge83" class="edge"><title>wallRadar[&#45;0.7,&#45;0.7]&#45;&gt;Move Left</title>
<path fill="none" stroke="red" stroke-width="0.226879" d="M1487.72,-146.276C1456.39,-131.273 1388.06,-98.5579 1342.93,-76.9489"/>
<polygon fill="red" stroke="red" stroke-width="0.226879" points="1344.2,-73.6785 1333.67,-72.5167 1341.18,-79.9921 1344.2,-73.6785"/>
</g>
<!-- wallRadar[&#45;0.7,&#45;0.7]&#45;&gt;Move right -->
<g id="edge59" class="edge"><title>wallRadar[&#45;0.7,&#45;0.7]&#45;&gt;Move right</title>
<path fill="none" stroke="red" stroke-width="0.419643" d="M1513.26,-146.276C1526.65,-133.989 1552.99,-109.824 1575.03,-89.6077"/>
<polygon fill="red" stroke="red" stroke-width="0.419643" points="1577.62,-91.9867 1582.62,-82.6476 1572.88,-86.8283 1577.62,-91.9867"/>
</g>
<!-- wallRadar[&#45;0.7,&#45;0.7]&#45;&gt;Turn Right -->
<g id="edge51" class="edge"><title>wallRadar[&#45;0.7,&#45;0.7]&#45;&gt;Turn Right</title>
<path fill="none" stroke="red" stroke-width="0.266814" d="M1549.11,-147.652C1625.3,-136.236 1773.38,-113.808 1784.5,-110.309 1807.91,-102.941 1832.58,-91.3345 1852.7,-80.7532"/>
<polygon fill="red" stroke="red" stroke-width="0.266814" points="1854.44,-83.7906 1861.6,-75.9825 1851.14,-77.6205 1854.44,-83.7906"/>
</g>
<!-- wallRadar[0.7,&#45;0.7] -->
<g id="node8" class="node"><title>wallRadar[0.7,&#45;0.7]</title>
<polygon fill="lightgray" stroke="black" points="294.5,-164.309 208.5,-164.309 208.5,-146.309 294.5,-146.309 294.5,-164.309"/>
<text text-anchor="middle" x="251.5" y="-153.109" font-family="Times,serif" font-size="9.00">wallRadar[0.7,&#45;0.7]</text>
</g>
<!-- wallRadar[0.7,&#45;0.7]&#45;&gt;Shoot -->
<g id="edge9" class="edge"><title>wallRadar[0.7,&#45;0.7]&#45;&gt;Shoot</title>
<path fill="none" stroke="green" stroke-width="0.214177" d="M294.626,-147.645C297.629,-147.19 300.609,-146.741 303.5,-146.309 525.224,-113.159 791.757,-75.0486 887.787,-61.3733"/>
<polygon fill="green" stroke="green" stroke-width="0.214177" points="888.45,-64.8143 897.857,-59.9399 887.463,-57.8842 888.45,-64.8143"/>
</g>
<!-- wallRadar[0.7,&#45;0.7]&#45;&gt;Move Forward -->
<g id="edge16" class="edge"><title>wallRadar[0.7,&#45;0.7]&#45;&gt;Move Forward</title>
<path fill="none" stroke="green" stroke-width="0.176074" d="M294.588,-147.347C297.6,-146.963 300.593,-146.611 303.5,-146.309 448.934,-131.174 821.667,-156.194 960.5,-110.309 972.515,-106.338 984.451,-100.122 995.346,-93.2951"/>
<polygon fill="green" stroke="green" stroke-width="0.176074" points="997.4,-96.133 1003.84,-87.7205 993.56,-90.2804 997.4,-96.133"/>
</g>
<!-- wallRadar[0.7,&#45;0.7]&#45;&gt;Turn Left -->
<g id="edge82" class="edge"><title>wallRadar[0.7,&#45;0.7]&#45;&gt;Turn Left</title>
<path fill="none" stroke="red" stroke-width="0.116535" d="M294.579,-147.252C297.593,-146.89 300.589,-146.57 303.5,-146.309 379.61,-139.485 1609.94,-144.05 1678.5,-110.309 1686.23,-106.503 1693.07,-100.628 1698.9,-94.1299"/>
<polygon fill="red" stroke="red" stroke-width="0.116535" points="1701.68,-96.2618 1705.29,-86.301 1696.26,-91.8364 1701.68,-96.2618"/>
</g>
<!-- enemyRadar[RightBack] -->
<g id="node9" class="node"><title>enemyRadar[RightBack]</title>
<polygon fill="lightgray" stroke="black" points="1671.5,-164.309 1567.5,-164.309 1567.5,-146.309 1671.5,-146.309 1671.5,-164.309"/>
<text text-anchor="middle" x="1619.5" y="-153.109" font-family="Times,serif" font-size="9.00">enemyRadar[RightBack]</text>
</g>
<!-- enemyRadar[RightBack]&#45;&gt;Shoot -->
<g id="edge75" class="edge"><title>enemyRadar[RightBack]&#45;&gt;Shoot</title>
<path fill="none" stroke="green" stroke-width="0.10688" d="M1567.28,-147.224C1564.31,-146.895 1561.37,-146.586 1558.5,-146.309 1431.07,-133.978 1101.29,-160.467 983.5,-110.309 970.044,-104.579 957.685,-94.4149 947.793,-84.4279"/>
<polygon fill="green" stroke="green" stroke-width="0.10688" points="950.127,-81.8 940.732,-76.9017 945.022,-86.5894 950.127,-81.8"/>
</g>
<!-- enemyRadar[RightBack]&#45;&gt;Move Forward -->
<g id="edge1" class="edge"><title>enemyRadar[RightBack]&#45;&gt;Move Forward</title>
<path fill="none" stroke="green" stroke-width="0.133762" d="M1567.28,-147.293C1564.31,-146.947 1561.37,-146.615 1558.5,-146.309 1366.05,-125.719 1307.41,-173.615 1124.5,-110.309 1112.54,-106.17 1100.63,-99.8832 1089.74,-93.0409"/>
<polygon fill="green" stroke="green" stroke-width="0.133762" points="1091.53,-90.0263 1081.25,-87.4648 1087.68,-95.8783 1091.53,-90.0263"/>
</g>
<!-- enemyRadar[RightBack]&#45;&gt; Move Backward -->
<g id="edge62" class="edge"><title>enemyRadar[RightBack]&#45;&gt; Move Backward</title>
<path fill="none" stroke="green" stroke-width="0.232128" d="M1567.26,-147.411C1564.3,-147.035 1561.36,-146.665 1558.5,-146.309 1422.61,-129.405 1378.11,-164.854 1252.5,-110.309 1246.63,-107.76 1240.89,-104.489 1235.4,-100.819"/>
<polygon fill="green" stroke="green" stroke-width="0.232128" points="1237.17,-97.7807 1227.02,-94.7705 1233.08,-103.458 1237.17,-97.7807"/>
</g>
<!-- enemyRadar[RightBack]&#45;&gt;Move Left -->
<g id="edge61" class="edge"><title>enemyRadar[RightBack]&#45;&gt;Move Left</title>
<path fill="none" stroke="red" stroke-width="0.194776" d="M1593.31,-146.276C1539.04,-129.628 1413.66,-91.1718 1345.55,-70.2801"/>
<polygon fill="red" stroke="red" stroke-width="0.194776" points="1346.52,-66.9163 1335.93,-67.3299 1344.47,-73.6085 1346.52,-66.9163"/>
</g>
<!-- enemyRadar[RightBack]&#45;&gt;Move right -->
<g id="edge19" class="edge"><title>enemyRadar[RightBack]&#45;&gt;Move right</title>
<path fill="none" stroke="green" stroke-width="0.307408" d="M1618.85,-146.276C1618.09,-137.037 1616.79,-121.081 1615.49,-105.138"/>
<polygon fill="green" stroke="green" stroke-width="0.307408" points="1618.95,-104.417 1614.64,-94.734 1611.97,-104.985 1618.95,-104.417"/>
</g>
<!-- enemyRadar[RightBack]&#45;&gt;Turn Left -->
<g id="edge56" class="edge"><title>enemyRadar[RightBack]&#45;&gt;Turn Left</title>
<path fill="none" stroke="red" stroke-width="0.113817" d="M1632.41,-146.046C1644.87,-137.77 1663.93,-124.285 1678.5,-110.309 1684.34,-104.707 1690.13,-98.3416 1695.49,-91.9925"/>
<polygon fill="red" stroke="red" stroke-width="0.113817" points="1698.4,-93.9687 1702.03,-84.0176 1692.99,-89.5289 1698.4,-93.9687"/>
</g>
<!-- enemyRadar[RightBack]&#45;&gt;Turn Right -->
<g id="edge48" class="edge"><title>enemyRadar[RightBack]&#45;&gt;Turn Right</title>
<path fill="none" stroke="green" stroke-width="0.148649" d="M1657.83,-146.301C1691.7,-138.707 1742.14,-126.119 1784.5,-110.309 1807.32,-101.79 1831.75,-90.1683 1851.86,-79.8742"/>
<polygon fill="green" stroke="green" stroke-width="0.148649" points="1853.5,-82.9626 1860.77,-75.254 1850.28,-76.7475 1853.5,-82.9626"/>
</g>
<!-- enemyRadar[LeftBack] -->
<g id="node10" class="node"><title>enemyRadar[LeftBack]</title>
<polygon fill="lightgray" stroke="black" points="190,-164.309 91,-164.309 91,-146.309 190,-146.309 190,-164.309"/>
<text text-anchor="middle" x="140.5" y="-153.109" font-family="Times,serif" font-size="9.00">enemyRadar[LeftBack]</text>
</g>
<!-- enemyRadar[LeftBack]&#45;&gt;Shoot -->
<g id="edge2" class="edge"><title>enemyRadar[LeftBack]&#45;&gt;Shoot</title>
<path fill="none" stroke="green" stroke-width="0.217185" d="M190.069,-147.547C193.26,-147.124 196.425,-146.708 199.5,-146.309 463.075,-112.052 780.93,-73.4701 887.593,-60.5976"/>
<polygon fill="green" stroke="green" stroke-width="0.217185" points="888.315,-64.0359 897.824,-59.3635 887.477,-57.0863 888.315,-64.0359"/>
</g>
<!-- enemyRadar[LeftBack]&#45;&gt;Move Forward -->
<g id="edge54" class="edge"><title>enemyRadar[LeftBack]&#45;&gt;Move Forward</title>
<path fill="none" stroke="red" stroke-width="0.340634" d="M190.039,-147.272C193.237,-146.916 196.412,-146.591 199.5,-146.309 368.099,-130.92 799.555,-162.836 960.5,-110.309 972.53,-106.383 984.472,-100.186 995.368,-93.363"/>
<polygon fill="red" stroke="red" stroke-width="0.340634" points="997.423,-96.2011 1003.86,-87.7888 993.582,-90.3484 997.423,-96.2011"/>
</g>
<!-- enemyRadar[Right45ø] -->
<g id="node11" class="node"><title>enemyRadar[Right45ø]</title>
<polygon fill="lightgray" stroke="black" points="2508.5,-164.309 2408.5,-164.309 2408.5,-146.309 2508.5,-146.309 2508.5,-164.309"/>
<text text-anchor="middle" x="2458.5" y="-153.109" font-family="Times,serif" font-size="9.00">enemyRadar[Right45ø]</text>
</g>
<!-- enemyRadar[Right45ø]&#45;&gt;Turn Left -->
<g id="edge24" class="edge"><title>enemyRadar[Right45ø]&#45;&gt;Turn Left</title>
<path fill="none" stroke="green" stroke-width="0.52311" d="M2408.32,-147.262C2405.34,-146.918 2402.38,-146.597 2399.5,-146.309 2154.43,-121.747 2085.83,-168.468 1846.5,-110.309 1817.08,-103.159 1785.85,-89.4811 1762.09,-77.661"/>
<polygon fill="green" stroke="green" stroke-width="0.52311" points="1763.55,-74.4756 1753.05,-73.0717 1760.38,-80.718 1763.55,-74.4756"/>
</g>
<!-- enemyRadar[Right45ø]&#45;&gt;Turn Right -->
<g id="edge41" class="edge"><title>enemyRadar[Right45ø]&#45;&gt;Turn Right</title>
<path fill="none" stroke="red" stroke-width="0.180328" d="M2412.43,-146.276C2307.61,-128.002 2052.08,-83.4532 1944.51,-64.6989"/>
<polygon fill="red" stroke="red" stroke-width="0.180328" points="1945.02,-61.2359 1934.57,-62.9663 1943.82,-68.1319 1945.02,-61.2359"/>
</g>
<!-- enemyRadar[Left45ø] -->
<g id="node12" class="node"><title>enemyRadar[Left45ø]</title>
<polygon fill="lightgray" stroke="black" points="1442,-164.309 1347,-164.309 1347,-146.309 1442,-146.309 1442,-164.309"/>
<text text-anchor="middle" x="1394.5" y="-153.109" font-family="Times,serif" font-size="9.00">enemyRadar[Left45ø]</text>
</g>
<!-- enemyRadar[Left45ø]&#45;&gt;Move Forward -->
<g id="edge33" class="edge"><title>enemyRadar[Left45ø]&#45;&gt;Move Forward</title>
<path fill="none" stroke="green" stroke-width="0.125793" d="M1346.98,-147.094C1272.29,-135.677 1134.77,-114.323 1124.5,-110.309 1112.84,-105.751 1101.13,-99.3565 1090.35,-92.5527"/>
<polygon fill="green" stroke="green" stroke-width="0.125793" points="1092.21,-89.5864 1081.92,-87.0356 1088.37,-95.4424 1092.21,-89.5864"/>
</g>
<!-- enemyRadar[Left45ø]&#45;&gt;Move Left -->
<g id="edge23" class="edge"><title>enemyRadar[Left45ø]&#45;&gt;Move Left</title>
<path fill="none" stroke="red" stroke-width="0.179913" d="M1386.73,-146.276C1374.96,-134.125 1351.96,-110.354 1332.53,-90.2765"/>
<polygon fill="red" stroke="red" stroke-width="0.179913" points="1335.03,-87.8263 1325.56,-83.0748 1330,-92.6946 1335.03,-87.8263"/>
</g>
<!-- enemyRadar[Left45ø]&#45;&gt;Move right -->
<g id="edge15" class="edge"><title>enemyRadar[Left45ø]&#45;&gt;Move right</title>
<path fill="none" stroke="red" stroke-width="0.339368" d="M1412.26,-146.276C1445.66,-131.167 1518.77,-98.0961 1566.53,-76.4938"/>
<polygon fill="red" stroke="red" stroke-width="0.339368" points="1568.06,-79.6453 1575.73,-72.335 1565.17,-73.2674 1568.06,-79.6453"/>
</g>
<!-- enemyRadar[RightFront20ø] -->
<g id="node13" class="node"><title>enemyRadar[RightFront20ø]</title>
<polygon fill="lightgray" stroke="black" points="2390,-164.309 2271,-164.309 2271,-146.309 2390,-146.309 2390,-164.309"/>
<text text-anchor="middle" x="2330.5" y="-153.109" font-family="Times,serif" font-size="9.00">enemyRadar[RightFront20ø]</text>
</g>
<!-- enemyRadar[RightFront20ø]&#45;&gt; Move Backward -->
<g id="edge70" class="edge"><title>enemyRadar[RightFront20ø]&#45;&gt; Move Backward</title>
<path fill="none" stroke="green" stroke-width="0.116211" d="M2270.82,-147.009C2268.01,-146.753 2265.23,-146.517 2262.5,-146.309 2150.53,-137.741 1357.24,-150.805 1252.5,-110.309 1246.53,-108.001 1240.72,-104.888 1235.2,-101.315"/>
<polygon fill="green" stroke="green" stroke-width="0.116211" points="1236.96,-98.2733 1226.77,-95.3714 1232.93,-103.994 1236.96,-98.2733"/>
</g>
<!-- enemyRadar[RightFront20ø]&#45;&gt;Move Left -->
<g id="edge77" class="edge"><title>enemyRadar[RightFront20ø]&#45;&gt;Move Left</title>
<path fill="none" stroke="red" stroke-width="0.465947" d="M2270.82,-147.063C2268.01,-146.792 2265.22,-146.539 2262.5,-146.309 1952.08,-120.095 1871.5,-149.836 1562.5,-110.309 1486.2,-100.549 1399,-80.8732 1346.65,-68.1183"/>
<polygon fill="red" stroke="red" stroke-width="0.465947" points="1347.2,-64.6503 1336.66,-65.6646 1345.53,-71.4484 1347.2,-64.6503"/>
</g>
<!-- enemyRadar[RightFront20ø]&#45;&gt;Turn Left -->
<g id="edge7" class="edge"><title>enemyRadar[RightFront20ø]&#45;&gt;Turn Left</title>
<path fill="none" stroke="green" stroke-width="0.227521" d="M2270.81,-147.181C2268,-146.879 2265.22,-146.586 2262.5,-146.309 2077.88,-127.465 2026.35,-156.05 1846.5,-110.309 1817.16,-102.846 1785.93,-89.1701 1762.15,-77.4294"/>
<polygon fill="green" stroke="green" stroke-width="0.227521" points="1763.6,-74.2426 1753.1,-72.8752 1760.46,-80.4959 1763.6,-74.2426"/>
</g>
<!-- enemyRadar[RightFront20ø]&#45;&gt;Turn Right -->
<g id="edge40" class="edge"><title>enemyRadar[RightFront20ø]&#45;&gt;Turn Right</title>
<path fill="none" stroke="green" stroke-width="0.498176" d="M2294.9,-146.276C2217.22,-128.748 2032.4,-87.0444 1944.1,-67.1196"/>
<polygon fill="green" stroke="green" stroke-width="0.498176" points="1944.6,-63.6451 1934.07,-64.8581 1943.06,-70.4735 1944.6,-63.6451"/>
</g>
<!-- enemyRadar[LeftFront20ø] -->
<g id="node14" class="node"><title>enemyRadar[LeftFront20ø]</title>
<polygon fill="lightgray" stroke="black" points="1871.5,-164.309 1757.5,-164.309 1757.5,-146.309 1871.5,-146.309 1871.5,-164.309"/>
<text text-anchor="middle" x="1814.5" y="-153.109" font-family="Times,serif" font-size="9.00">enemyRadar[LeftFront20ø]</text>
</g>
<!-- enemyRadar[LeftFront20ø]&#45;&gt;Shoot -->
<g id="edge38" class="edge"><title>enemyRadar[LeftFront20ø]&#45;&gt;Shoot</title>
<path fill="none" stroke="red" stroke-width="0.390669" d="M1757.29,-147.113C1754.32,-146.821 1751.38,-146.55 1748.5,-146.309 1663.7,-139.184 1062.05,-143.039 983.5,-110.309 970,-104.683 957.633,-94.538 947.747,-84.5367"/>
<polygon fill="red" stroke="red" stroke-width="0.390669" points="950.08,-81.9072 940.694,-76.994 944.968,-86.6885 950.08,-81.9072"/>
</g>
<!-- enemyRadar[LeftFront20ø]&#45;&gt;Move right -->
<g id="edge72" class="edge"><title>enemyRadar[LeftFront20ø]&#45;&gt;Move right</title>
<path fill="none" stroke="green" stroke-width="0.523662" d="M1777.52,-146.257C1749.3,-139.202 1710.03,-127.385 1678.5,-110.309 1667.81,-104.522 1657.16,-96.9531 1647.6,-89.3167"/>
<polygon fill="green" stroke="green" stroke-width="0.523662" points="1649.79,-86.5848 1639.85,-82.9237 1645.33,-91.9857 1649.79,-86.5848"/>
</g>
<!-- enemyRadar[LeftFront20ø]&#45;&gt;Turn Right -->
<g id="edge36" class="edge"><title>enemyRadar[LeftFront20ø]&#45;&gt;Turn Right</title>
<path fill="none" stroke="red" stroke-width="0.208444" d="M1821.13,-146.276C1830.56,-134.848 1848.47,-113.143 1864.35,-93.8976"/>
<polygon fill="red" stroke="red" stroke-width="0.208444" points="1867.11,-96.0569 1870.77,-86.1163 1861.71,-91.6015 1867.11,-96.0569"/>
</g>
<!-- enemyRadar[RightFront15ø] -->
<g id="node15" class="node"><title>enemyRadar[RightFront15ø]</title>
<polygon fill="lightgray" stroke="black" points="1252,-164.309 1133,-164.309 1133,-146.309 1252,-146.309 1252,-164.309"/>
<text text-anchor="middle" x="1192.5" y="-153.109" font-family="Times,serif" font-size="9.00">enemyRadar[RightFront15ø]</text>
</g>
<!-- enemyRadar[RightFront15ø]&#45;&gt;Shoot -->
<g id="edge11" class="edge"><title>enemyRadar[RightFront15ø]&#45;&gt;Shoot</title>
<path fill="none" stroke="red" stroke-width="0.114977" d="M1138.48,-146.268C1085.87,-137.844 1010.04,-123.961 983.5,-110.309 970.593,-103.67 958.402,-93.4408 948.489,-83.6531"/>
<polygon fill="red" stroke="red" stroke-width="0.114977" points="950.852,-81.0631 941.378,-76.3212 945.827,-85.9364 950.852,-81.0631"/>
</g>
<!-- enemyRadar[RightFront15ø]&#45;&gt;Move Forward -->
<g id="edge69" class="edge"><title>enemyRadar[RightFront15ø]&#45;&gt;Move Forward</title>
<path fill="none" stroke="green" stroke-width="0.331722" d="M1179.94,-146.234C1166.28,-137.436 1143.8,-122.927 1124.5,-110.309 1114.24,-103.599 1103.27,-96.3883 1092.81,-89.4865"/>
<polygon fill="green" stroke="green" stroke-width="0.331722" points="1094.44,-86.3686 1084.17,-83.7796 1090.58,-92.2102 1094.44,-86.3686"/>
</g>
<!-- enemyRadar[RightFront15ø]&#45;&gt; Move Backward -->
<g id="edge4" class="edge"><title>enemyRadar[RightFront15ø]&#45;&gt; Move Backward</title>
<path fill="none" stroke="green" stroke-width="0.275025" d="M1192.17,-146.276C1191.92,-140.031 1191.54,-130.716 1191.12,-120.412"/>
<polygon fill="green" stroke="green" stroke-width="0.275025" points="1194.61,-120.145 1190.71,-110.296 1187.62,-120.43 1194.61,-120.145"/>
</g>
<!-- enemyRadar[RightFront15ø]&#45;&gt;Move Left -->
<g id="edge17" class="edge"><title>enemyRadar[RightFront15ø]&#45;&gt;Move Left</title>
<path fill="none" stroke="red" stroke-width="0.423283" d="M1205.07,-146.294C1217.66,-137.998 1237.3,-124.311 1252.5,-110.309 1258.23,-105.031 1263.97,-99.0971 1269.37,-93.1438"/>
<polygon fill="red" stroke="red" stroke-width="0.423283" points="1272,-95.4515 1276,-85.6404 1266.75,-90.8162 1272,-95.4515"/>
</g>
<!-- enemyRadar[RightFront15ø]&#45;&gt;Move right -->
<g id="edge53" class="edge"><title>enemyRadar[RightFront15ø]&#45;&gt;Move right</title>
<path fill="none" stroke="green" stroke-width="0.33966" d="M1226.79,-146.276C1301.16,-128.854 1477.49,-87.5469 1563.14,-67.4827"/>
<polygon fill="green" stroke="green" stroke-width="0.33966" points="1564.19,-70.8328 1573.12,-65.1442 1562.59,-64.0173 1564.19,-70.8328"/>
</g>
<!-- enemyRadar[RightFront15ø]&#45;&gt;Turn Left -->
<g id="edge8" class="edge"><title>enemyRadar[RightFront15ø]&#45;&gt;Turn Left</title>
<path fill="none" stroke="red" stroke-width="0.20934" d="M1252.33,-147.263C1255.43,-146.932 1258.5,-146.612 1261.5,-146.309 1354.04,-136.952 1596.32,-153.861 1678.5,-110.309 1686.12,-106.273 1692.9,-100.296 1698.72,-93.7701"/>
<polygon fill="red" stroke="red" stroke-width="0.20934" points="1701.5,-95.9011 1705.11,-85.9398 1696.08,-91.4765 1701.5,-95.9011"/>
</g>
<!-- enemyRadar[LeftFront15ø] -->
<g id="node16" class="node"><title>enemyRadar[LeftFront15ø]</title>
<polygon fill="lightgray" stroke="black" points="1114.5,-164.309 1000.5,-164.309 1000.5,-146.309 1114.5,-146.309 1114.5,-164.309"/>
<text text-anchor="middle" x="1057.5" y="-153.109" font-family="Times,serif" font-size="9.00">enemyRadar[LeftFront15ø]</text>
</g>
<!-- enemyRadar[LeftFront15ø]&#45;&gt; Move Backward -->
<g id="edge32" class="edge"><title>enemyRadar[LeftFront15ø]&#45;&gt; Move Backward</title>
<path fill="none" stroke="green" stroke-width="0.624947" d="M1068.22,-146.276C1083.16,-135.08 1111.27,-114.021 1136.56,-95.0743"/>
<polygon fill="green" stroke="green" stroke-width="0.624947" points="1138.74,-97.8094 1144.65,-89.0121 1134.55,-92.2074 1138.74,-97.8094"/>
</g>
<!-- enemyRadar[LeftFront15ø]&#45;&gt;Move Left -->
<g id="edge28" class="edge"><title>enemyRadar[LeftFront15ø]&#45;&gt;Move Left</title>
<path fill="none" stroke="red" stroke-width="0.161574" d="M1110.07,-146.244C1159.33,-138.013 1228.82,-124.47 1252.5,-110.309 1259.41,-106.176 1265.83,-100.673 1271.57,-94.7581"/>
<polygon fill="red" stroke="red" stroke-width="0.161574" points="1274.36,-96.8888 1278.45,-87.1162 1269.16,-92.2038 1274.36,-96.8888"/>
</g>
<!-- enemyRadar[RightFront7.5ø] -->
<g id="node17" class="node"><title>enemyRadar[RightFront7.5ø]</title>
<polygon fill="lightgray" stroke="black" points="568.5,-164.309 446.5,-164.309 446.5,-146.309 568.5,-146.309 568.5,-164.309"/>
<text text-anchor="middle" x="507.5" y="-153.109" font-family="Times,serif" font-size="9.00">enemyRadar[RightFront7.5ø]</text>
</g>
<!-- enemyRadar[RightFront7.5ø]&#45;&gt;Shoot -->
<g id="edge76" class="edge"><title>enemyRadar[RightFront7.5ø]&#45;&gt;Shoot</title>
<path fill="none" stroke="green" stroke-width="0.136805" d="M541.625,-146.276C619.345,-127.982 808.936,-83.356 888.459,-64.6376"/>
<polygon fill="green" stroke="green" stroke-width="0.136805" points="889.553,-67.976 898.485,-62.2778 887.949,-61.1622 889.553,-67.976"/>
</g>
<!-- enemyRadar[RightFront7.5ø]&#45;&gt; Move Backward -->
<g id="edge10" class="edge"><title>enemyRadar[RightFront7.5ø]&#45;&gt; Move Backward</title>
<path fill="none" stroke="green" stroke-width="0.137095" d="M568.567,-147.165C571.586,-146.864 574.577,-146.576 577.5,-146.309 693.734,-135.679 990.441,-146.213 1101.5,-110.309 1113.25,-106.508 1125.03,-100.786 1135.96,-94.4626"/>
<polygon fill="green" stroke="green" stroke-width="0.137095" points="1137.77,-97.4562 1144.52,-89.2884 1134.15,-91.4653 1137.77,-97.4562"/>
</g>
<!-- enemyRadar[RightFront7.5ø]&#45;&gt;Move Left -->
<g id="edge60" class="edge"><title>enemyRadar[RightFront7.5ø]&#45;&gt;Move Left</title>
<path fill="none" stroke="red" stroke-width="0.402079" d="M568.562,-147.11C571.582,-146.823 574.575,-146.554 577.5,-146.309 652.345,-140.042 1185.02,-143.291 1252.5,-110.309 1259.81,-106.734 1266.46,-101.452 1272.3,-95.5683"/>
<polygon fill="red" stroke="red" stroke-width="0.402079" points="1275.14,-97.6415 1279.25,-87.877 1269.95,-92.9463 1275.14,-97.6415"/>
</g>
<!-- enemyRadar[LeftFront7.5ø] -->
<g id="node18" class="node"><title>enemyRadar[LeftFront7.5ø]</title>
<polygon fill="lightgray" stroke="black" points="428.5,-164.309 312.5,-164.309 312.5,-146.309 428.5,-146.309 428.5,-164.309"/>
<text text-anchor="middle" x="370.5" y="-153.109" font-family="Times,serif" font-size="9.00">enemyRadar[LeftFront7.5ø]</text>
</g>
<!-- enemyRadar[LeftFront7.5ø]&#45;&gt;Move Forward -->
<g id="edge13" class="edge"><title>enemyRadar[LeftFront7.5ø]&#45;&gt;Move Forward</title>
<path fill="none" stroke="red" stroke-width="0.269968" d="M428.586,-147.193C431.599,-146.88 434.584,-146.583 437.5,-146.309 553.485,-135.399 850.146,-147.639 960.5,-110.309 972.487,-106.254 984.411,-100.003 995.303,-93.1681"/>
<polygon fill="red" stroke="red" stroke-width="0.269968" points="997.358,-96.0057 1003.8,-87.5927 993.518,-90.1535 997.358,-96.0057"/>
</g>
<!-- enemyRadar[LeftFront7.5ø]&#45;&gt; Move Backward -->
<g id="edge57" class="edge"><title>enemyRadar[LeftFront7.5ø]&#45;&gt; Move Backward</title>
<path fill="none" stroke="red" stroke-width="0.43746" d="M428.581,-147.141C431.596,-146.842 434.582,-146.562 437.5,-146.309 584.72,-133.542 960.569,-154.75 1101.5,-110.309 1113.42,-106.551 1125.34,-100.78 1136.37,-94.3825"/>
<polygon fill="red" stroke="red" stroke-width="0.43746" points="1138.28,-97.3218 1145.01,-89.1442 1134.65,-91.336 1138.28,-97.3218"/>
</g>
<!-- enemyRadar[RightFront2.5ø] -->
<g id="node19" class="node"><title>enemyRadar[RightFront2.5ø]</title>
<polygon fill="lightgray" stroke="black" points="2011.5,-164.309 1889.5,-164.309 1889.5,-146.309 2011.5,-146.309 2011.5,-164.309"/>
<text text-anchor="middle" x="1950.5" y="-153.109" font-family="Times,serif" font-size="9.00">enemyRadar[RightFront2.5ø]</text>
</g>
<!-- enemyRadar[RightFront2.5ø]&#45;&gt;Move Forward -->
<g id="edge25" class="edge"><title>enemyRadar[RightFront2.5ø]&#45;&gt;Move Forward</title>
<path fill="none" stroke="green" stroke-width="0.123976" d="M1889.44,-147.089C1886.42,-146.808 1883.43,-146.545 1880.5,-146.309 1712.86,-132.753 1284.38,-162.517 1124.5,-110.309 1112.47,-106.381 1100.53,-100.183 1089.63,-93.3602"/>
<polygon fill="green" stroke="green" stroke-width="0.123976" points="1091.42,-90.3455 1081.14,-87.786 1087.58,-96.1982 1091.42,-90.3455"/>
</g>
<!-- enemyRadar[RightFront2.5ø]&#45;&gt; Move Backward -->
<g id="edge30" class="edge"><title>enemyRadar[RightFront2.5ø]&#45;&gt; Move Backward</title>
<path fill="none" stroke="green" stroke-width="0.708983" d="M1889.44,-147.124C1886.42,-146.833 1883.42,-146.559 1880.5,-146.309 1741.23,-134.368 1382.33,-162.127 1252.5,-110.309 1246.56,-107.936 1240.77,-104.781 1235.25,-101.183"/>
<polygon fill="green" stroke="green" stroke-width="0.708983" points="1237.01,-98.1415 1226.83,-95.2109 1232.96,-103.851 1237.01,-98.1415"/>
</g>
<!-- enemyRadar[RightFront2.5ø]&#45;&gt;Move right -->
<g id="edge44" class="edge"><title>enemyRadar[RightFront2.5ø]&#45;&gt;Move right</title>
<path fill="none" stroke="green" stroke-width="0.255891" d="M1890.5,-146.27C1816.33,-136.072 1697.5,-118.795 1678.5,-110.309 1667.3,-105.305 1656.4,-97.9476 1646.75,-90.2587"/>
<polygon fill="green" stroke="green" stroke-width="0.255891" points="1648.89,-87.4833 1638.97,-83.7663 1644.4,-92.8591 1648.89,-87.4833"/>
</g>
<!-- enemyRadar[RightFront2.5ø]&#45;&gt;Turn Right -->
<g id="edge84" class="edge"><title>enemyRadar[RightFront2.5ø]&#45;&gt;Turn Right</title>
<path fill="none" stroke="green" stroke-width="0.179774" d="M1946,-146.276C1940.19,-135.905 1929.63,-117.071 1919.67,-99.2924"/>
<polygon fill="green" stroke="green" stroke-width="0.179774" points="1922.49,-97.1547 1914.54,-90.1418 1916.38,-100.577 1922.49,-97.1547"/>
</g>
<!-- enemyRadar[LeftFront2.5ø] -->
<g id="node20" class="node"><title>enemyRadar[LeftFront2.5ø]</title>
<polygon fill="lightgray" stroke="black" points="982.5,-164.309 866.5,-164.309 866.5,-146.309 982.5,-146.309 982.5,-164.309"/>
<text text-anchor="middle" x="924.5" y="-153.109" font-family="Times,serif" font-size="9.00">enemyRadar[LeftFront2.5ø]</text>
</g>
<!-- enemyRadar[LeftFront2.5ø]&#45;&gt;Shoot -->
<g id="edge67" class="edge"><title>enemyRadar[LeftFront2.5ø]&#45;&gt;Shoot</title>
<path fill="none" stroke="green" stroke-width="0.242434" stroke-dasharray="1,5" d="M924.5,-146.276C924.5,-134.556 924.5,-112.026 924.5,-92.4263"/>
<polygon fill="green" stroke="green" stroke-width="0.242434" points="928,-92.2223 924.5,-82.2223 921,-92.2223 928,-92.2223"/>
</g>
<!-- enemyRadar[LeftFront2.5ø]&#45;&gt;Move Forward -->
<g id="edge50" class="edge"><title>enemyRadar[LeftFront2.5ø]&#45;&gt;Move Forward</title>
<path fill="none" stroke="green" stroke-width="0.203527" d="M934.156,-146.276C947.746,-134.972 973.422,-113.614 996.368,-94.5274"/>
<polygon fill="green" stroke="green" stroke-width="0.203527" points="998.897,-96.9767 1004.35,-87.8909 994.42,-91.5951 998.897,-96.9767"/>
</g>
<!-- enemyRadar[LeftFront2.5ø]&#45;&gt;Move Left -->
<g id="edge78" class="edge"><title>enemyRadar[LeftFront2.5ø]&#45;&gt;Move Left</title>
<path fill="none" stroke="red" stroke-width="0.110705" d="M982.595,-147.044C1075.22,-135.387 1246.61,-113.488 1252.5,-110.309 1259.66,-106.444 1266.24,-101.02 1272.05,-95.0863"/>
<polygon fill="red" stroke="red" stroke-width="0.110705" points="1274.9,-97.1482 1278.99,-87.3757 1269.7,-92.4631 1274.9,-97.1482"/>
</g>
<!-- enemyRadar[LeftFront2.5ø]&#45;&gt;Turn Right -->
<g id="edge12" class="edge"><title>enemyRadar[LeftFront2.5ø]&#45;&gt;Turn Right</title>
<path fill="none" stroke="green" stroke-width="0.273718" d="M982.578,-147.109C985.594,-146.818 988.581,-146.549 991.5,-146.309 1167.31,-131.842 1613.56,-153.889 1784.5,-110.309 1808.28,-104.245 1832.99,-92.7765 1853.04,-81.949"/>
<polygon fill="green" stroke="green" stroke-width="0.273718" points="1854.85,-84.947 1861.9,-77.0411 1851.46,-78.823 1854.85,-84.947"/>
</g>
<!-- OnTarget -->
<g id="node21" class="node"><title>OnTarget</title>
<polygon fill="lightgray" stroke="black" points="1739.5,-164.309 1689.5,-164.309 1689.5,-146.309 1739.5,-146.309 1739.5,-164.309"/>
<text text-anchor="middle" x="1714.5" y="-153.109" font-family="Times,serif" font-size="9.00">OnTarget</text>
</g>
<!-- OnTarget&#45;&gt;Shoot -->
<g id="edge45" class="edge"><title>OnTarget&#45;&gt;Shoot</title>
<path fill="none" stroke="red" stroke-width="0.110198" d="M1689.34,-147.859C1686.38,-147.256 1683.38,-146.719 1680.5,-146.309 1526.95,-124.459 1126.53,-170.291 983.5,-110.309 970.013,-104.652 957.648,-94.5016 947.761,-84.5045"/>
<polygon fill="red" stroke="red" stroke-width="0.110198" points="950.094,-81.8755 940.705,-76.9667 944.984,-86.6592 950.094,-81.8755"/>
</g>
<!-- OnTarget&#45;&gt;Move Forward -->
<g id="edge81" class="edge"><title>OnTarget&#45;&gt;Move Forward</title>
<path fill="none" stroke="red" stroke-width="0.189393" d="M1689.34,-147.896C1686.37,-147.287 1683.38,-146.738 1680.5,-146.309 1558.04,-128.066 1241.87,-149.745 1124.5,-110.309 1112.5,-106.278 1100.58,-100.037 1089.68,-93.205"/>
<polygon fill="red" stroke="red" stroke-width="0.189393" points="1091.47,-90.1904 1081.19,-87.6298 1087.63,-96.0427 1091.47,-90.1904"/>
</g>
<!-- OnTarget&#45;&gt;Move Left -->
<g id="edge6" class="edge"><title>OnTarget&#45;&gt;Move Left</title>
<path fill="none" stroke="red" stroke-width="0.278314" stroke-dasharray="1,5" d="M1689.47,-148.39C1621.88,-132.402 1434.79,-88.1536 1346.63,-67.3003"/>
<polygon fill="red" stroke="red" stroke-width="0.278314" points="1347.17,-63.8323 1336.63,-64.9365 1345.56,-70.6443 1347.17,-63.8323"/>
</g>
<!-- OnTarget&#45;&gt;Move right -->
<g id="edge64" class="edge"><title>OnTarget&#45;&gt;Move right</title>
<path fill="none" stroke="green" stroke-width="0.162941" d="M1706.07,-146.276C1693.26,-134.071 1668.16,-110.146 1647.03,-90.0126"/>
<polygon fill="green" stroke="green" stroke-width="0.162941" points="1649.4,-87.4398 1639.75,-83.0748 1644.57,-92.5073 1649.4,-87.4398"/>
</g>
<!-- OnTarget&#45;&gt;Turn Left -->
<g id="edge26" class="edge"><title>OnTarget&#45;&gt;Turn Left</title>
<path fill="none" stroke="red" stroke-width="0.461759" d="M1715.15,-146.276C1715.98,-136.172 1717.46,-118.035 1718.87,-100.667"/>
<polygon fill="red" stroke="red" stroke-width="0.461759" points="1722.37,-100.847 1719.69,-90.596 1715.39,-100.279 1722.37,-100.847"/>
</g>
<!-- OnTarget&#45;&gt;Turn Right -->
<g id="edge65" class="edge"><title>OnTarget&#45;&gt;Turn Right</title>
<path fill="none" stroke="red" stroke-width="0.138127" d="M1729.31,-146.276C1755.79,-131.919 1812.17,-101.344 1851.89,-79.8012"/>
<polygon fill="red" stroke="red" stroke-width="0.138127" points="1853.73,-82.7872 1860.85,-74.9434 1850.39,-76.6338 1853.73,-82.7872"/>
</g>
<!-- TakingDmg -->
<g id="node22" class="node"><title>TakingDmg</title>
<polygon fill="lightgray" stroke="black" points="1329,-164.309 1270,-164.309 1270,-146.309 1329,-146.309 1329,-164.309"/>
<text text-anchor="middle" x="1299.5" y="-153.109" font-family="Times,serif" font-size="9.00">TakingDmg</text>
</g>
<!-- TakingDmg&#45;&gt;Move Forward -->
<g id="edge29" class="edge"><title>TakingDmg&#45;&gt;Move Forward</title>
<path fill="none" stroke="red" stroke-width="0.2183" d="M1269.64,-147.381C1223.25,-136.527 1137.76,-116.15 1124.5,-110.309 1113.04,-105.261 1101.42,-98.6574 1090.66,-91.8046"/>
<polygon fill="red" stroke="red" stroke-width="0.2183" points="1092.52,-88.839 1082.24,-86.2803 1088.68,-94.692 1092.52,-88.839"/>
</g>
<!-- TakingDmg&#45;&gt; Move Backward -->
<g id="edge52" class="edge"><title>TakingDmg&#45;&gt; Move Backward</title>
<path fill="none" stroke="red" stroke-width="0.510125" d="M1290.42,-146.276C1278.66,-135.883 1257.3,-116.991 1237.15,-99.1784"/>
<polygon fill="red" stroke="red" stroke-width="0.510125" points="1239.33,-96.4269 1229.52,-92.4245 1234.69,-101.671 1239.33,-96.4269"/>
</g>
<!-- TakingDmg&#45;&gt;Move Left -->
<g id="edge43" class="edge"><title>TakingDmg&#45;&gt;Move Left</title>
<path fill="none" stroke="red" stroke-width="0.257781" d="M1299.5,-146.276C1299.5,-136.721 1299.5,-119.983 1299.5,-103.505"/>
<polygon fill="red" stroke="red" stroke-width="0.257781" points="1303,-103.345 1299.5,-93.3454 1296,-103.345 1303,-103.345"/>
</g>
<!-- TakingDmg&#45;&gt;Move right -->
<g id="edge18" class="edge"><title>TakingDmg&#45;&gt;Move right</title>
<path fill="none" stroke="red" stroke-width="0.32651" d="M1325.03,-146.276C1377.29,-129.836 1497.14,-92.1307 1564.08,-71.0725"/>
<polygon fill="red" stroke="red" stroke-width="0.32651" points="1565.47,-74.3059 1573.95,-67.9662 1563.36,-67.6286 1565.47,-74.3059"/>
</g>
<!-- bias -->
<g id="node23" class="node"><title>bias</title>
<polygon fill="lightgray" stroke="black" points="2253,-164.309 2222,-164.309 2222,-146.309 2253,-146.309 2253,-164.309"/>
<text text-anchor="middle" x="2237.5" y="-153.109" font-family="Times,serif" font-size="9.00">bias</text>
</g>
<!-- bias&#45;&gt;Move Forward -->
<g id="edge74" class="edge"><title>bias&#45;&gt;Move Forward</title>
<path fill="none" stroke="red" stroke-width="0.102036" d="M2221.92,-148.396C2219.15,-147.553 2216.27,-146.805 2213.5,-146.309 1975.17,-103.58 1355.21,-183.794 1124.5,-110.309 1112.44,-106.468 1100.49,-100.307 1089.59,-93.4926"/>
<polygon fill="red" stroke="red" stroke-width="0.102036" points="1091.38,-90.478 1081.09,-87.9193 1087.54,-96.331 1091.38,-90.478"/>
</g>
<!-- bias&#45;&gt;Move right -->
<g id="edge5" class="edge"><title>bias&#45;&gt;Move right</title>
<path fill="none" stroke="green" stroke-width="0.438378" d="M2221.9,-148.475C2219.14,-147.623 2216.26,-146.852 2213.5,-146.309 2096.59,-123.282 1789.44,-153.784 1678.5,-110.309 1667.08,-105.832 1656.09,-98.6642 1646.44,-90.989"/>
<polygon fill="green" stroke="green" stroke-width="0.438378" points="1648.58,-88.214 1638.67,-84.4706 1644.08,-93.5779 1648.58,-88.214"/>
</g>
<!-- bias&#45;&gt;Turn Left -->
<g id="edge46" class="edge"><title>bias&#45;&gt;Turn Left</title>
<path fill="none" stroke="red" stroke-width="0.387398" d="M2221.89,-148.546C2219.12,-147.687 2216.25,-146.894 2213.5,-146.309 2053.2,-112.181 2005.1,-151.614 1846.5,-110.309 1817.3,-102.704 1786.18,-89.0969 1762.43,-77.4254"/>
<polygon fill="red" stroke="red" stroke-width="0.387398" points="1763.89,-74.2419 1753.38,-72.8984 1760.75,-80.5023 1763.89,-74.2419"/>
</g>
<!-- bias&#45;&gt;Turn Right -->
<g id="edge37" class="edge"><title>bias&#45;&gt;Turn Right</title>
<path fill="none" stroke="green" stroke-width="0.306314" d="M2221.78,-148.956C2219.03,-148.051 2216.19,-147.137 2213.5,-146.309 2118.44,-117.007 2006.31,-86.0498 1943.81,-69.1151"/>
<polygon fill="green" stroke="green" stroke-width="0.306314" points="1944.41,-65.6524 1933.85,-66.42 1942.59,-72.4096 1944.41,-65.6524"/>
</g>
<!-- Move right&#45;&gt;Move right -->
<g id="edge14" class="edge"><title>Move right&#45;&gt;Move right</title>
<path fill="none" stroke="green" stroke-width="0.15711" d="M1646.65,-73.894C1659.04,-74.1939 1669.1,-67.9473 1669.1,-55.1543 1669.1,-46.1593 1664.13,-40.4007 1656.87,-37.8785"/>
<polygon fill="green" stroke="green" stroke-width="0.15711" points="1657.05,-34.3684 1646.65,-36.4146 1656.05,-41.2977 1657.05,-34.3684"/>
</g>
<!-- Turn Left&#45;&gt;Turn Left -->
<g id="edge35" class="edge"><title>Turn Left&#45;&gt;Turn Left</title>
<path fill="none" stroke="red" stroke-width="0.143035" d="M1752.67,-73.7395C1765.22,-75.0213 1775.86,-68.8262 1775.86,-55.1543 1775.86,-45.4345 1770.48,-39.4936 1762.86,-37.3318"/>
<polygon fill="red" stroke="red" stroke-width="0.143035" points="1762.9,-33.8252 1752.67,-36.5691 1762.38,-40.8056 1762.9,-33.8252"/>
</g>
</g>
</svg>
