<?xml version="1.0" encoding="UTF-8" standalone="no"?>
<!DOCTYPE svg PUBLIC "-//W3C//DTD SVG 1.1//EN"
 "http://www.w3.org/Graphics/SVG/1.1/DTD/svg11.dtd">
<!-- Generated by graphviz version 2.38.0 (20140413.2041)
 -->
<!-- Title: %3 Pages: 1 -->
<svg width="2505pt" height="387pt"
 viewBox="0.00 0.00 2504.56 387.14" xmlns="http://www.w3.org/2000/svg" xmlns:xlink="http://www.w3.org/1999/xlink">
<g id="graph0" class="graph" transform="scale(1 1) rotate(0) translate(4 383.144)">
<title>%3</title>
<polygon fill="white" stroke="none" points="-4,4 -4,-383.144 2500.56,-383.144 2500.56,4 -4,4"/>
<!-- wallRadar[1,0] -->
<g id="node1" class="node"><title>wallRadar[1,0]</title>
<polygon fill="lightgray" stroke="black" points="70,-223.898 0,-223.898 0,-205.898 70,-205.898 70,-223.898"/>
<text text-anchor="middle" x="35" y="-212.698" font-family="Times,serif" font-size="9.00">wallRadar[1,0]</text>
</g>
<!-- Move Forward/Backward -->
<g id="node25" class="node"><title>Move Forward/Backward</title>
<ellipse fill="lightblue" stroke="black" cx="406" cy="-77.0746" rx="77.1494" ry="77.1494"/>
<text text-anchor="middle" x="406" y="-74.8746" font-family="Times,serif" font-size="9.00">Move Forward/Backward</text>
</g>
<!-- wallRadar[1,0]&#45;&gt;Move Forward/Backward -->
<g id="edge7" class="edge"><title>wallRadar[1,0]&#45;&gt;Move Forward/Backward</title>
<path fill="none" stroke="green" stroke-width="0.475252" stroke-dasharray="1,5" d="M48.5807,-205.814C57.1328,-200.914 68.5031,-194.744 79,-190.149 159.696,-154.83 255.356,-123.168 322.292,-102.581"/>
<polygon fill="green" stroke="green" stroke-width="0.475252" points="323.415,-105.897 331.954,-99.6246 321.367,-99.2035 323.415,-105.897"/>
</g>
<!-- wallRadar[0,1] -->
<g id="node2" class="node"><title>wallRadar[0,1]</title>
<polygon fill="lightgray" stroke="black" points="983,-309.395 913,-309.395 913,-291.395 983,-291.395 983,-309.395"/>
<text text-anchor="middle" x="948" y="-298.195" font-family="Times,serif" font-size="9.00">wallRadar[0,1]</text>
</g>
<!-- Shoot -->
<g id="node24" class="node"><title>Shoot</title>
<ellipse fill="lightblue" stroke="black" cx="987" cy="-77.0746" rx="26.7407" ry="26.7407"/>
<text text-anchor="middle" x="987" y="-74.8746" font-family="Times,serif" font-size="9.00">Shoot</text>
</g>
<!-- wallRadar[0,1]&#45;&gt;Shoot -->
<g id="edge18" class="edge"><title>wallRadar[0,1]&#45;&gt;Shoot</title>
<path fill="none" stroke="red" stroke-width="0.381542" d="M949.434,-291.256C954.446,-262.815 971.377,-166.734 980.705,-113.799"/>
<polygon fill="red" stroke="red" stroke-width="0.381542" points="984.175,-114.276 982.463,-103.821 977.281,-113.061 984.175,-114.276"/>
</g>
<!-- wallRadar[0,1]&#45;&gt;Move Forward/Backward -->
<g id="edge43" class="edge"><title>wallRadar[0,1]&#45;&gt;Move Forward/Backward</title>
<path fill="none" stroke="red" stroke-width="0.125409" d="M927.911,-291.318C913.448,-285.886 893.335,-279.108 875,-275.647 807.956,-262.99 308.809,-289.286 262,-239.647 224.089,-199.444 277.257,-152.111 329.371,-119.107"/>
<polygon fill="red" stroke="red" stroke-width="0.125409" points="331.39,-121.973 338.049,-113.732 327.704,-116.023 331.39,-121.973"/>
</g>
<!-- Turn left/right -->
<g id="node27" class="node"><title>Turn left/right</title>
<ellipse fill="lightblue" stroke="black" cx="2105" cy="-77.0746" rx="46.8387" ry="46.8387"/>
<text text-anchor="middle" x="2105" y="-74.8746" font-family="Times,serif" font-size="9.00">Turn left/right</text>
</g>
<!-- wallRadar[0,1]&#45;&gt;Turn left/right -->
<g id="edge15" class="edge"><title>wallRadar[0,1]&#45;&gt;Turn left/right</title>
<path fill="none" stroke="red" stroke-width="0.14771" d="M983.045,-298.332C1180.11,-292.275 2142.09,-261.611 2163,-239.647 2194.01,-207.074 2168.31,-156.761 2141.98,-120.941"/>
<polygon fill="red" stroke="red" stroke-width="0.14771" points="2144.5,-118.47 2135.66,-112.621 2138.92,-122.703 2144.5,-118.47"/>
</g>
<!-- 4531 -->
<g id="node29" class="node"><title>4531</title>
<ellipse fill="white" stroke="black" cx="898" cy="-214.898" rx="25" ry="25"/>
<text text-anchor="middle" x="898" y="-212.698" font-family="Times,serif" font-size="9.00">4531</text>
</g>
<!-- wallRadar[0,1]&#45;&gt;4531 -->
<g id="edge55" class="edge"><title>wallRadar[0,1]&#45;&gt;4531</title>
<path fill="none" stroke="green" stroke-width="0.155572" d="M943.206,-291.389C936.895,-280.851 925.454,-261.744 915.661,-245.39"/>
<polygon fill="green" stroke="green" stroke-width="0.155572" points="918.573,-243.441 910.433,-236.66 912.568,-247.038 918.573,-243.441"/>
</g>
<!-- wallRadar[&#45;1,0] -->
<g id="node3" class="node"><title>wallRadar[&#45;1,0]</title>
<polygon fill="lightgray" stroke="black" points="1623.5,-223.898 1550.5,-223.898 1550.5,-205.898 1623.5,-205.898 1623.5,-223.898"/>
<text text-anchor="middle" x="1587" y="-212.698" font-family="Times,serif" font-size="9.00">wallRadar[&#45;1,0]</text>
</g>
<!--  Move Left/Right -->
<g id="node26" class="node"><title> Move Left/Right</title>
<ellipse fill="lightblue" stroke="black" cx="1474" cy="-77.0746" rx="55.3091" ry="55.3091"/>
<text text-anchor="middle" x="1474" y="-74.8746" font-family="Times,serif" font-size="9.00"> Move Left/Right</text>
</g>
<!-- wallRadar[&#45;1,0]&#45;&gt; Move Left/Right -->
<g id="edge34" class="edge"><title>wallRadar[&#45;1,0]&#45;&gt; Move Left/Right</title>
<path fill="none" stroke="green" stroke-width="0.497414" d="M1580.27,-205.808C1567.68,-190.67 1539.64,-156.968 1515.52,-127.983"/>
<polygon fill="green" stroke="green" stroke-width="0.497414" points="1517.93,-125.401 1508.84,-119.952 1512.55,-129.878 1517.93,-125.401"/>
</g>
<!-- wallRadar[0,&#45;1] -->
<g id="node4" class="node"><title>wallRadar[0,&#45;1]</title>
<polygon fill="lightgray" stroke="black" points="495.5,-223.898 422.5,-223.898 422.5,-205.898 495.5,-205.898 495.5,-223.898"/>
<text text-anchor="middle" x="459" y="-212.698" font-family="Times,serif" font-size="9.00">wallRadar[0,&#45;1]</text>
</g>
<!-- wallRadar[0,&#45;1]&#45;&gt;Shoot -->
<g id="edge45" class="edge"><title>wallRadar[0,&#45;1]&#45;&gt;Shoot</title>
<path fill="none" stroke="red" stroke-width="0.425262" stroke-dasharray="1,5" d="M471.483,-205.827C480.242,-200.543 492.413,-193.938 504,-190.149 608.189,-156.079 641.202,-178.854 748,-154.149 822.107,-137.007 906.36,-107.838 952.408,-91.0367"/>
<polygon fill="red" stroke="red" stroke-width="0.425262" points="953.727,-94.2807 961.908,-87.5478 951.314,-87.7098 953.727,-94.2807"/>
</g>
<!-- wallRadar[0,&#45;1]&#45;&gt;Move Forward/Backward -->
<g id="edge39" class="edge"><title>wallRadar[0,&#45;1]&#45;&gt;Move Forward/Backward</title>
<path fill="none" stroke="green" stroke-width="0.892407" d="M455.843,-205.808C451.975,-195.894 445,-178.02 437.469,-158.722"/>
<polygon fill="green" stroke="green" stroke-width="0.892407" points="440.635,-157.206 433.739,-149.162 434.114,-159.751 440.635,-157.206"/>
</g>
<!-- 4156 -->
<g id="node32" class="node"><title>4156</title>
<ellipse fill="white" stroke="black" cx="714" cy="-77.0746" rx="25" ry="25"/>
<text text-anchor="middle" x="714" y="-74.8746" font-family="Times,serif" font-size="9.00">4156</text>
</g>
<!-- wallRadar[0,&#45;1]&#45;&gt;4156 -->
<g id="edge47" class="edge"><title>wallRadar[0,&#45;1]&#45;&gt;4156</title>
<path fill="none" stroke="red" stroke-width="0.314936" d="M474.188,-205.808C515.136,-183.998 628.424,-123.656 683.351,-94.3995"/>
<polygon fill="red" stroke="red" stroke-width="0.314936" points="685.092,-97.4378 692.273,-89.6475 681.801,-91.2596 685.092,-97.4378"/>
</g>
<!-- wallRadar[0.7,0.7] -->
<g id="node5" class="node"><title>wallRadar[0.7,0.7]</title>
<polygon fill="lightgray" stroke="black" points="171.5,-223.898 88.5,-223.898 88.5,-205.898 171.5,-205.898 171.5,-223.898"/>
<text text-anchor="middle" x="130" y="-212.698" font-family="Times,serif" font-size="9.00">wallRadar[0.7,0.7]</text>
</g>
<!-- wallRadar[0.7,0.7]&#45;&gt;Move Forward/Backward -->
<g id="edge10" class="edge"><title>wallRadar[0.7,0.7]&#45;&gt;Move Forward/Backward</title>
<path fill="none" stroke="green" stroke-width="0.17054" d="M146.439,-205.808C181.391,-188.608 265.042,-147.442 328.001,-116.459"/>
<polygon fill="green" stroke="green" stroke-width="0.17054" points="329.705,-119.521 337.132,-111.965 326.614,-113.241 329.705,-119.521"/>
</g>
<!-- wallRadar[&#45;0.7,0.7] -->
<g id="node6" class="node"><title>wallRadar[&#45;0.7,0.7]</title>
<polygon fill="lightgray" stroke="black" points="1398,-223.898 1312,-223.898 1312,-205.898 1398,-205.898 1398,-223.898"/>
<text text-anchor="middle" x="1355" y="-212.698" font-family="Times,serif" font-size="9.00">wallRadar[&#45;0.7,0.7]</text>
</g>
<!-- wallRadar[&#45;0.7,0.7]&#45;&gt;Shoot -->
<g id="edge21" class="edge"><title>wallRadar[&#45;0.7,0.7]&#45;&gt;Shoot</title>
<path fill="none" stroke="red" stroke-width="0.697385" d="M1338.3,-205.82C1328.18,-201.039 1314.96,-194.99 1303,-190.149 1202.52,-149.476 1081.01,-108.671 1022.23,-89.4486"/>
<polygon fill="red" stroke="red" stroke-width="0.697385" points="1023.27,-86.1058 1012.68,-86.3334 1021.1,-92.761 1023.27,-86.1058"/>
</g>
<!-- wallRadar[&#45;0.7,0.7]&#45;&gt; Move Left/Right -->
<g id="edge33" class="edge"><title>wallRadar[&#45;0.7,0.7]&#45;&gt; Move Left/Right</title>
<path fill="none" stroke="red" stroke-width="0.286572" stroke-dasharray="1,5" d="M1362.09,-205.808C1375.55,-190.448 1405.75,-155.976 1431.39,-126.711"/>
<polygon fill="red" stroke="red" stroke-width="0.286572" points="1434.18,-128.835 1438.14,-119.007 1428.91,-124.223 1434.18,-128.835"/>
</g>
<!-- wallRadar[&#45;0.7,&#45;0.7] -->
<g id="node7" class="node"><title>wallRadar[&#45;0.7,&#45;0.7]</title>
<polygon fill="lightgray" stroke="black" points="1068.5,-223.898 979.5,-223.898 979.5,-205.898 1068.5,-205.898 1068.5,-223.898"/>
<text text-anchor="middle" x="1024" y="-212.698" font-family="Times,serif" font-size="9.00">wallRadar[&#45;0.7,&#45;0.7]</text>
</g>
<!-- wallRadar[&#45;0.7,&#45;0.7]&#45;&gt;Shoot -->
<g id="edge9" class="edge"><title>wallRadar[&#45;0.7,&#45;0.7]&#45;&gt;Shoot</title>
<path fill="none" stroke="green" stroke-width="0.56941" stroke-dasharray="1,5" d="M1021.8,-205.808C1016.93,-187.927 1005,-144.144 996.467,-112.828"/>
<polygon fill="green" stroke="green" stroke-width="0.56941" points="999.836,-111.876 993.83,-103.148 993.082,-113.716 999.836,-111.876"/>
</g>
<!-- wallRadar[&#45;0.7,&#45;0.7]&#45;&gt;Move Forward/Backward -->
<g id="edge3" class="edge"><title>wallRadar[&#45;0.7,&#45;0.7]&#45;&gt;Move Forward/Backward</title>
<path fill="none" stroke="green" stroke-width="0.13387" stroke-dasharray="1,5" d="M996,-205.81C977.866,-200.785 953.676,-194.481 932,-190.149 821.057,-167.976 790.737,-177.331 680,-154.149 615.177,-140.579 543.05,-120.341 489.076,-104.149"/>
<polygon fill="green" stroke="green" stroke-width="0.13387" points="489.799,-100.712 479.215,-101.176 487.778,-107.414 489.799,-100.712"/>
</g>
<!-- wallRadar[&#45;0.7,&#45;0.7]&#45;&gt; Move Left/Right -->
<g id="edge46" class="edge"><title>wallRadar[&#45;0.7,&#45;0.7]&#45;&gt; Move Left/Right</title>
<path fill="none" stroke="red" stroke-width="0.708564" d="M1050.8,-205.808C1121.03,-184.613 1311.81,-127.027 1411.48,-96.9461"/>
<polygon fill="red" stroke="red" stroke-width="0.708564" points="1412.56,-100.275 1421.12,-94.0349 1410.54,-93.5738 1412.56,-100.275"/>
</g>
<!-- wallRadar[&#45;0.7,&#45;0.7]&#45;&gt;Turn left/right -->
<g id="edge42" class="edge"><title>wallRadar[&#45;0.7,&#45;0.7]&#45;&gt;Turn left/right</title>
<path fill="none" stroke="red" stroke-width="0.552211" d="M1050.61,-205.858C1069.07,-200.588 1094.33,-193.987 1117,-190.149 1302.16,-158.811 1351.33,-174.642 1538,-154.149 1725.56,-133.56 1946.99,-101.635 2048.74,-86.5366"/>
<polygon fill="red" stroke="red" stroke-width="0.552211" points="2049.41,-89.9745 2058.79,-85.0417 2048.38,-83.0507 2049.41,-89.9745"/>
</g>
<!-- wallRadar[&#45;0.7,&#45;0.7]&#45;&gt;4156 -->
<g id="edge57" class="edge"><title>wallRadar[&#45;0.7,&#45;0.7]&#45;&gt;4156</title>
<path fill="none" stroke="red" stroke-width="0.314449" d="M1005.54,-205.808C954.332,-183.374 810.08,-120.171 745.706,-91.9661"/>
<polygon fill="red" stroke="red" stroke-width="0.314449" points="747.01,-88.7167 736.446,-87.9093 744.201,-95.1283 747.01,-88.7167"/>
</g>
<!-- wallRadar[0.7,&#45;0.7] -->
<g id="node8" class="node"><title>wallRadar[0.7,&#45;0.7]</title>
<polygon fill="lightgray" stroke="black" points="2402,-223.898 2316,-223.898 2316,-205.898 2402,-205.898 2402,-223.898"/>
<text text-anchor="middle" x="2359" y="-212.698" font-family="Times,serif" font-size="9.00">wallRadar[0.7,&#45;0.7]</text>
</g>
<!-- wallRadar[0.7,&#45;0.7]&#45;&gt;Turn left/right -->
<g id="edge1" class="edge"><title>wallRadar[0.7,&#45;0.7]&#45;&gt;Turn left/right</title>
<path fill="none" stroke="green" stroke-width="0.167011" d="M2343.87,-205.808C2307.48,-186.347 2213.71,-136.208 2155.07,-104.848"/>
<polygon fill="green" stroke="green" stroke-width="0.167011" points="2156.44,-101.613 2145.97,-99.9842 2153.14,-107.786 2156.44,-101.613"/>
</g>
<!-- enemyRadar[RightBack] -->
<g id="node9" class="node"><title>enemyRadar[RightBack]</title>
<polygon fill="lightgray" stroke="black" points="1924,-223.898 1820,-223.898 1820,-205.898 1924,-205.898 1924,-223.898"/>
<text text-anchor="middle" x="1872" y="-212.698" font-family="Times,serif" font-size="9.00">enemyRadar[RightBack]</text>
</g>
<!-- enemyRadar[RightBack]&#45;&gt;Shoot -->
<g id="edge13" class="edge"><title>enemyRadar[RightBack]&#45;&gt;Shoot</title>
<path fill="none" stroke="green" stroke-width="0.780963" stroke-dasharray="1,5" d="M1855.06,-205.811C1843.04,-200.448 1826.38,-193.757 1811,-190.149 1636.79,-149.285 1587.34,-178.009 1410,-154.149 1265.86,-134.757 1096,-100.794 1023.14,-85.6896"/>
<polygon fill="green" stroke="green" stroke-width="0.780963" points="1023.61,-82.2129 1013.11,-83.6019 1022.19,-89.0661 1023.61,-82.2129"/>
</g>
<!-- enemyRadar[RightBack]&#45;&gt; Move Left/Right -->
<g id="edge2" class="edge"><title>enemyRadar[RightBack]&#45;&gt; Move Left/Right</title>
<path fill="none" stroke="red" stroke-width="0.156759" stroke-dasharray="1,5" d="M1852.04,-205.835C1840.17,-201.115 1824.79,-195.123 1811,-190.149 1715.78,-155.804 1604.09,-119.417 1536.22,-97.7319"/>
<polygon fill="red" stroke="red" stroke-width="0.156759" points="1537.12,-94.3459 1526.53,-94.6412 1534.99,-101.015 1537.12,-94.3459"/>
</g>
<!-- enemyRadar[RightBack]&#45;&gt;Turn left/right -->
<g id="edge22" class="edge"><title>enemyRadar[RightBack]&#45;&gt;Turn left/right</title>
<path fill="none" stroke="red" stroke-width="0.209229" d="M1885.88,-205.808C1918.64,-186.712 2002.07,-138.076 2056.01,-106.631"/>
<polygon fill="red" stroke="red" stroke-width="0.209229" points="2057.86,-109.607 2064.73,-101.547 2054.33,-103.559 2057.86,-109.607"/>
</g>
<!-- enemyRadar[LeftBack] -->
<g id="node10" class="node"><title>enemyRadar[LeftBack]</title>
<polygon fill="lightgray" stroke="black" points="749.5,-223.898 650.5,-223.898 650.5,-205.898 749.5,-205.898 749.5,-223.898"/>
<text text-anchor="middle" x="700" y="-212.698" font-family="Times,serif" font-size="9.00">enemyRadar[LeftBack]</text>
</g>
<!-- enemyRadar[LeftBack]&#45;&gt;Move Forward/Backward -->
<g id="edge44" class="edge"><title>enemyRadar[LeftBack]&#45;&gt;Move Forward/Backward</title>
<path fill="none" stroke="red" stroke-width="0.583059" stroke-dasharray="1,5" d="M682.489,-205.808C644.531,-188.272 552.658,-145.828 485.19,-114.659"/>
<polygon fill="red" stroke="red" stroke-width="0.583059" points="486.386,-111.356 475.84,-110.34 483.45,-117.711 486.386,-111.356"/>
</g>
<!-- enemyRadar[LeftBack]&#45;&gt; Move Left/Right -->
<g id="edge38" class="edge"><title>enemyRadar[LeftBack]&#45;&gt; Move Left/Right</title>
<path fill="none" stroke="green" stroke-width="0.435386" d="M730.005,-205.877C749.098,-200.941 774.396,-194.709 797,-190.149 896.703,-170.038 922.63,-170.608 1023,-154.149 1160.75,-131.561 1321.98,-104.123 1409.49,-89.1471"/>
<polygon fill="green" stroke="green" stroke-width="0.435386" points="1410.26,-92.5653 1419.53,-87.4279 1409.08,-85.6656 1410.26,-92.5653"/>
</g>
<!-- enemyRadar[Right45ø] -->
<g id="node11" class="node"><title>enemyRadar[Right45ø]</title>
<polygon fill="lightgray" stroke="black" points="404,-223.898 304,-223.898 304,-205.898 404,-205.898 404,-223.898"/>
<text text-anchor="middle" x="354" y="-212.698" font-family="Times,serif" font-size="9.00">enemyRadar[Right45ø]</text>
</g>
<!-- enemyRadar[Right45ø]&#45;&gt;Shoot -->
<g id="edge40" class="edge"><title>enemyRadar[Right45ø]&#45;&gt;Shoot</title>
<path fill="none" stroke="red" stroke-width="0.343606" stroke-dasharray="1,5" d="M370.376,-205.882C381.995,-200.552 398.11,-193.87 413,-190.149 558.279,-153.847 601.469,-185.015 748,-154.149 822.63,-138.429 907.014,-108.61 952.872,-91.342"/>
<polygon fill="red" stroke="red" stroke-width="0.343606" points="954.218,-94.5749 962.325,-87.7542 951.734,-88.0304 954.218,-94.5749"/>
</g>
<!-- enemyRadar[Right45ø]&#45;&gt;Move Forward/Backward -->
<g id="edge5" class="edge"><title>enemyRadar[Right45ø]&#45;&gt;Move Forward/Backward</title>
<path fill="none" stroke="red" stroke-width="0.296818" d="M357.097,-205.808C360.874,-195.944 367.668,-178.196 375.015,-159.008"/>
<polygon fill="red" stroke="red" stroke-width="0.296818" points="378.348,-160.091 378.654,-149.501 371.81,-157.588 378.348,-160.091"/>
</g>
<!-- enemyRadar[Left45ø] -->
<g id="node12" class="node"><title>enemyRadar[Left45ø]</title>
<polygon fill="lightgray" stroke="black" points="2037.5,-223.898 1942.5,-223.898 1942.5,-205.898 2037.5,-205.898 2037.5,-223.898"/>
<text text-anchor="middle" x="1990" y="-212.698" font-family="Times,serif" font-size="9.00">enemyRadar[Left45ø]</text>
</g>
<!-- enemyRadar[Left45ø]&#45;&gt; Move Left/Right -->
<g id="edge19" class="edge"><title>enemyRadar[Left45ø]&#45;&gt; Move Left/Right</title>
<path fill="none" stroke="green" stroke-width="0.296629" stroke-dasharray="1,5" d="M1972.55,-205.798C1961.4,-200.832 1946.55,-194.596 1933,-190.149 1794.73,-144.768 1627.66,-108.46 1538.12,-90.4452"/>
<polygon fill="green" stroke="green" stroke-width="0.296629" points="1538.61,-86.9741 1528.12,-88.4443 1537.23,-93.8381 1538.61,-86.9741"/>
</g>
<!-- enemyRadar[Left45ø]&#45;&gt;Turn left/right -->
<g id="edge32" class="edge"><title>enemyRadar[Left45ø]&#45;&gt;Turn left/right</title>
<path fill="none" stroke="red" stroke-width="0.11976" stroke-dasharray="1,5" d="M1996.85,-205.808C2010.7,-189.452 2042.9,-151.425 2068.58,-121.09"/>
<polygon fill="red" stroke="red" stroke-width="0.11976" points="2071.5,-123.056 2075.29,-113.163 2066.16,-118.533 2071.5,-123.056"/>
</g>
<!-- enemyRadar[RightFront20ø] -->
<g id="node13" class="node"><title>enemyRadar[RightFront20ø]</title>
<polygon fill="lightgray" stroke="black" points="1293.5,-223.898 1174.5,-223.898 1174.5,-205.898 1293.5,-205.898 1293.5,-223.898"/>
<text text-anchor="middle" x="1234" y="-212.698" font-family="Times,serif" font-size="9.00">enemyRadar[RightFront20ø]</text>
</g>
<!-- enemyRadar[RightFront20ø]&#45;&gt;Shoot -->
<g id="edge8" class="edge"><title>enemyRadar[RightFront20ø]&#45;&gt;Shoot</title>
<path fill="none" stroke="green" stroke-width="2.40234" d="M1219.29,-205.808C1180.21,-184.322 1073.14,-125.44 1019.09,-95.7233"/>
<polygon fill="green" stroke="green" stroke-width="2.40234" points="1020.72,-92.6233 1010.27,-90.8717 1017.35,-98.7571 1020.72,-92.6233"/>
</g>
<!-- enemyRadar[RightFront20ø]&#45;&gt; Move Left/Right -->
<g id="edge31" class="edge"><title>enemyRadar[RightFront20ø]&#45;&gt; Move Left/Right</title>
<path fill="none" stroke="green" stroke-width="0.273677" d="M1248.29,-205.808C1280.8,-187.415 1361.72,-141.618 1417.28,-110.172"/>
<polygon fill="green" stroke="green" stroke-width="0.273677" points="1419.34,-113.033 1426.31,-105.061 1415.89,-106.94 1419.34,-113.033"/>
</g>
<!-- enemyRadar[LeftFront20ø] -->
<g id="node14" class="node"><title>enemyRadar[LeftFront20ø]</title>
<polygon fill="lightgray" stroke="black" points="1894,-309.395 1780,-309.395 1780,-291.395 1894,-291.395 1894,-309.395"/>
<text text-anchor="middle" x="1837" y="-298.195" font-family="Times,serif" font-size="9.00">enemyRadar[LeftFront20ø]</text>
</g>
<!-- enemyRadar[LeftFront20ø]&#45;&gt;Move Forward/Backward -->
<g id="edge30" class="edge"><title>enemyRadar[LeftFront20ø]&#45;&gt;Move Forward/Backward</title>
<path fill="none" stroke="red" stroke-width="0.283694" d="M1779.9,-297.715C1502.48,-289.488 308.132,-253.298 295,-239.647 262.706,-206.077 296.676,-162.216 335.284,-128.665"/>
<polygon fill="red" stroke="red" stroke-width="0.283694" points="337.674,-131.228 343.05,-122.098 333.154,-125.883 337.674,-131.228"/>
</g>
<!-- 4408 -->
<g id="node30" class="node"><title>4408</title>
<ellipse fill="white" stroke="black" cx="2235" cy="-214.898" rx="25" ry="25"/>
<text text-anchor="middle" x="2235" y="-212.698" font-family="Times,serif" font-size="9.00">4408</text>
</g>
<!-- enemyRadar[LeftFront20ø]&#45;&gt;4408 -->
<g id="edge54" class="edge"><title>enemyRadar[LeftFront20ø]&#45;&gt;4408</title>
<path fill="none" stroke="red" stroke-width="0.40068" d="M1892.52,-291.343C1986.16,-277.586 2168.05,-250.036 2196,-239.647 2199.47,-238.355 2202.98,-236.744 2206.39,-234.971"/>
<polygon fill="red" stroke="red" stroke-width="0.40068" points="2208.14,-238.001 2215.11,-230.016 2204.68,-231.916 2208.14,-238.001"/>
</g>
<!-- enemyRadar[RightFront15ø] -->
<g id="node15" class="node"><title>enemyRadar[RightFront15ø]</title>
<polygon fill="lightgray" stroke="black" points="632.5,-223.898 513.5,-223.898 513.5,-205.898 632.5,-205.898 632.5,-223.898"/>
<text text-anchor="middle" x="573" y="-212.698" font-family="Times,serif" font-size="9.00">enemyRadar[RightFront15ø]</text>
</g>
<!-- enemyRadar[RightFront15ø]&#45;&gt;Shoot -->
<g id="edge29" class="edge"><title>enemyRadar[RightFront15ø]&#45;&gt;Shoot</title>
<path fill="none" stroke="red" stroke-width="0.560044" d="M595.622,-205.853C608.83,-201.192 625.83,-195.255 641,-190.149 754.093,-152.09 888.765,-109.147 951.527,-89.2713"/>
<polygon fill="red" stroke="red" stroke-width="0.560044" points="952.847,-92.525 961.325,-86.1711 950.735,-85.8512 952.847,-92.525"/>
</g>
<!-- enemyRadar[RightFront15ø]&#45;&gt;Move Forward/Backward -->
<g id="edge25" class="edge"><title>enemyRadar[RightFront15ø]&#45;&gt;Move Forward/Backward</title>
<path fill="none" stroke="green" stroke-width="0.664766" d="M563.054,-205.808C545.502,-191.533 507.655,-160.752 473.513,-132.984"/>
<polygon fill="green" stroke="green" stroke-width="0.664766" points="475.351,-129.968 465.385,-126.373 470.935,-135.398 475.351,-129.968"/>
</g>
<!-- enemyRadar[LeftFront15ø] -->
<g id="node16" class="node"><title>enemyRadar[LeftFront15ø]</title>
<polygon fill="lightgray" stroke="black" points="1109,-379.144 995,-379.144 995,-361.144 1109,-361.144 1109,-379.144"/>
<text text-anchor="middle" x="1052" y="-367.944" font-family="Times,serif" font-size="9.00">enemyRadar[LeftFront15ø]</text>
</g>
<!-- enemyRadar[LeftFront15ø]&#45;&gt;Move Forward/Backward -->
<g id="edge28" class="edge"><title>enemyRadar[LeftFront15ø]&#45;&gt;Move Forward/Backward</title>
<path fill="none" stroke="red" stroke-width="0.341779" d="M994.958,-369.158C827.363,-367.862 342.192,-354.116 246,-239.647 207.832,-194.226 269.618,-146.451 327.155,-114.74"/>
<polygon fill="red" stroke="red" stroke-width="0.341779" points="328.829,-117.814 335.968,-109.986 325.506,-111.653 328.829,-117.814"/>
</g>
<!-- 4347 -->
<g id="node31" class="node"><title>4347</title>
<ellipse fill="white" stroke="black" cx="2036" cy="-300.395" rx="25" ry="25"/>
<text text-anchor="middle" x="2036" y="-298.195" font-family="Times,serif" font-size="9.00">4347</text>
</g>
<!-- enemyRadar[LeftFront15ø]&#45;&gt;4347 -->
<g id="edge58" class="edge"><title>enemyRadar[LeftFront15ø]&#45;&gt;4347</title>
<path fill="none" stroke="green" stroke-width="0.127149" d="M1109.22,-368.651C1246.57,-366.932 1605.56,-359.254 1903,-325.144 1936.74,-321.275 1974.85,-314.186 2001.61,-308.757"/>
<polygon fill="green" stroke="green" stroke-width="0.127149" points="2002.53,-312.14 2011.62,-306.694 2001.12,-305.284 2002.53,-312.14"/>
</g>
<!-- enemyRadar[RightFront7.5ø] -->
<g id="node17" class="node"><title>enemyRadar[RightFront7.5ø]</title>
<polygon fill="lightgray" stroke="black" points="866,-309.395 744,-309.395 744,-291.395 866,-291.395 866,-309.395"/>
<text text-anchor="middle" x="805" y="-298.195" font-family="Times,serif" font-size="9.00">enemyRadar[RightFront7.5ø]</text>
</g>
<!-- enemyRadar[RightFront7.5ø]&#45;&gt;Shoot -->
<g id="edge16" class="edge"><title>enemyRadar[RightFront7.5ø]&#45;&gt;Shoot</title>
<path fill="none" stroke="red" stroke-width="0.214117" d="M801.539,-291.316C793.943,-272.241 777.948,-223.507 797,-190.149 830.109,-132.18 906.223,-101.192 951.425,-87.3184"/>
<polygon fill="red" stroke="red" stroke-width="0.214117" points="952.517,-90.6456 961.119,-84.4601 950.537,-83.9314 952.517,-90.6456"/>
</g>
<!-- 4461 -->
<g id="node28" class="node"><title>4461</title>
<ellipse fill="white" stroke="black" cx="831" cy="-214.898" rx="25" ry="25"/>
<text text-anchor="middle" x="831" y="-212.698" font-family="Times,serif" font-size="9.00">4461</text>
</g>
<!-- enemyRadar[RightFront7.5ø]&#45;&gt;4461 -->
<g id="edge52" class="edge"><title>enemyRadar[RightFront7.5ø]&#45;&gt;4461</title>
<path fill="none" stroke="red" stroke-width="0.201335" d="M807.493,-291.389C810.558,-281.545 815.952,-264.225 820.799,-248.656"/>
<polygon fill="red" stroke="red" stroke-width="0.201335" points="824.245,-249.363 823.877,-238.774 817.562,-247.282 824.245,-249.363"/>
</g>
<!-- enemyRadar[LeftFront7.5ø] -->
<g id="node18" class="node"><title>enemyRadar[LeftFront7.5ø]</title>
<polygon fill="lightgray" stroke="black" points="1532,-223.898 1416,-223.898 1416,-205.898 1532,-205.898 1532,-223.898"/>
<text text-anchor="middle" x="1474" y="-212.698" font-family="Times,serif" font-size="9.00">enemyRadar[LeftFront7.5ø]</text>
</g>
<!-- enemyRadar[LeftFront7.5ø]&#45;&gt;Move Forward/Backward -->
<g id="edge20" class="edge"><title>enemyRadar[LeftFront7.5ø]&#45;&gt;Move Forward/Backward</title>
<path fill="none" stroke="red" stroke-width="0.269863" stroke-dasharray="1,5" d="M1455.92,-205.868C1442.66,-200.384 1424.07,-193.522 1407,-190.149 1089.63,-127.445 999.367,-205.738 680,-154.149 614.619,-143.588 542.52,-123.205 488.697,-106.194"/>
<polygon fill="red" stroke="red" stroke-width="0.269863" points="489.456,-102.763 478.865,-103.061 487.33,-109.432 489.456,-102.763"/>
</g>
<!-- enemyRadar[LeftFront7.5ø]&#45;&gt; Move Left/Right -->
<g id="edge11" class="edge"><title>enemyRadar[LeftFront7.5ø]&#45;&gt; Move Left/Right</title>
<path fill="none" stroke="red" stroke-width="0.734887" d="M1474,-205.808C1474,-193.159 1474,-167.551 1474,-142.562"/>
<polygon fill="red" stroke="red" stroke-width="0.734887" points="1477.5,-142.305 1474,-132.305 1470.5,-142.305 1477.5,-142.305"/>
</g>
<!-- enemyRadar[LeftFront7.5ø]&#45;&gt;Turn left/right -->
<g id="edge27" class="edge"><title>enemyRadar[LeftFront7.5ø]&#45;&gt;Turn left/right</title>
<path fill="none" stroke="red" stroke-width="0.673116" d="M1494.6,-205.862C1507.96,-200.858 1525.83,-194.558 1542,-190.149 1724.89,-140.27 1946.83,-102.638 2048.81,-86.5917"/>
<polygon fill="red" stroke="red" stroke-width="0.673116" points="2049.55,-90.019 2058.89,-85.0152 2048.46,-83.1031 2049.55,-90.019"/>
</g>
<!-- enemyRadar[RightFront2.5ø] -->
<g id="node19" class="node"><title>enemyRadar[RightFront2.5ø]</title>
<polygon fill="lightgray" stroke="black" points="1802,-223.898 1680,-223.898 1680,-205.898 1802,-205.898 1802,-223.898"/>
<text text-anchor="middle" x="1741" y="-212.698" font-family="Times,serif" font-size="9.00">enemyRadar[RightFront2.5ø]</text>
</g>
<!-- enemyRadar[RightFront2.5ø]&#45;&gt;Shoot -->
<g id="edge6" class="edge"><title>enemyRadar[RightFront2.5ø]&#45;&gt;Shoot</title>
<path fill="none" stroke="green" stroke-width="0.233244" d="M1706.57,-205.807C1685.41,-200.964 1657.71,-194.856 1633,-190.149 1534.38,-171.361 1508.96,-171.035 1410,-154.149 1266.99,-129.747 1097.2,-98.5276 1023.81,-84.9234"/>
<polygon fill="green" stroke="green" stroke-width="0.233244" points="1024.17,-81.43 1013.7,-83.047 1022.89,-88.3125 1024.17,-81.43"/>
</g>
<!-- enemyRadar[RightFront2.5ø]&#45;&gt;Turn left/right -->
<g id="edge36" class="edge"><title>enemyRadar[RightFront2.5ø]&#45;&gt;Turn left/right</title>
<path fill="none" stroke="green" stroke-width="0.203853" stroke-dasharray="1,5" d="M1762.68,-205.808C1818.86,-184.845 1970.44,-128.284 2051.75,-97.9438"/>
<polygon fill="green" stroke="green" stroke-width="0.203853" points="2053.16,-101.153 2061.31,-94.378 2050.72,-94.5948 2053.16,-101.153"/>
</g>
<!-- enemyRadar[LeftFront2.5ø] -->
<g id="node20" class="node"><title>enemyRadar[LeftFront2.5ø]</title>
<polygon fill="lightgray" stroke="black" points="1902,-379.144 1786,-379.144 1786,-361.144 1902,-361.144 1902,-379.144"/>
<text text-anchor="middle" x="1844" y="-367.944" font-family="Times,serif" font-size="9.00">enemyRadar[LeftFront2.5ø]</text>
</g>
<!-- enemyRadar[LeftFront2.5ø]&#45;&gt;Shoot -->
<g id="edge17" class="edge"><title>enemyRadar[LeftFront2.5ø]&#45;&gt;Shoot</title>
<path fill="none" stroke="red" stroke-width="0.34955" stroke-dasharray="1,5" d="M1785.98,-364.149C1634.43,-350.271 1230.61,-307.729 1117,-239.647 1092.98,-225.25 1095.49,-212.021 1078,-190.149 1055.13,-161.561 1028.74,-129.111 1010.28,-106.512"/>
<polygon fill="red" stroke="red" stroke-width="0.34955" points="1012.9,-104.186 1003.86,-98.6577 1007.48,-108.616 1012.9,-104.186"/>
</g>
<!-- enemyRadar[LeftFront2.5ø]&#45;&gt; Move Left/Right -->
<g id="edge12" class="edge"><title>enemyRadar[LeftFront2.5ø]&#45;&gt; Move Left/Right</title>
<path fill="none" stroke="red" stroke-width="0.254608" d="M1829,-361.066C1813.92,-352.72 1790.2,-338.995 1771,-325.144 1723.58,-290.936 1711.25,-282.068 1671,-239.647 1651.91,-219.526 1653.01,-209.357 1633,-190.149 1601.82,-160.218 1562.09,-132.206 1530.14,-111.673"/>
<polygon fill="red" stroke="red" stroke-width="0.254608" points="1531.66,-108.496 1521.34,-106.085 1527.91,-114.403 1531.66,-108.496"/>
</g>
<!-- enemyRadar[LeftFront2.5ø]&#45;&gt;Turn left/right -->
<g id="edge26" class="edge"><title>enemyRadar[LeftFront2.5ø]&#45;&gt;Turn left/right</title>
<path fill="none" stroke="green" stroke-width="1.02343" stroke-dasharray="1,5" d="M1902.21,-366.355C2045.04,-358.169 2406.49,-328.876 2479,-239.647 2568.59,-129.392 2287.37,-92.6863 2162.06,-81.9885"/>
<polygon fill="green" stroke="green" stroke-width="1.02343" points="2162.13,-78.4822 2151.87,-81.1468 2161.55,-85.4584 2162.13,-78.4822"/>
</g>
<!-- enemyRadar[LeftFront2.5ø]&#45;&gt;4347 -->
<g id="edge48" class="edge"><title>enemyRadar[LeftFront2.5ø]&#45;&gt;4347</title>
<path fill="none" stroke="green" stroke-width="0.581694" d="M1866.78,-361.107C1900.61,-349.169 1964.31,-326.694 2003.17,-312.981"/>
<polygon fill="green" stroke="green" stroke-width="0.581694" points="2004.69,-316.156 2012.95,-309.528 2002.36,-309.555 2004.69,-316.156"/>
</g>
<!-- enemyRadar[Front7Ø] -->
<g id="node21" class="node"><title>enemyRadar[Front7Ø]</title>
<polygon fill="lightgray" stroke="black" points="2154,-223.898 2056,-223.898 2056,-205.898 2154,-205.898 2154,-223.898"/>
<text text-anchor="middle" x="2105" y="-212.698" font-family="Times,serif" font-size="9.00">enemyRadar[Front7Ø]</text>
</g>
<!-- enemyRadar[Front7Ø]&#45;&gt; Move Left/Right -->
<g id="edge41" class="edge"><title>enemyRadar[Front7Ø]&#45;&gt; Move Left/Right</title>
<path fill="none" stroke="green" stroke-width="0.518612" stroke-dasharray="1,5" d="M2087.81,-205.82C2076.43,-200.736 2061.07,-194.362 2047,-190.149 1866.38,-136.075 1645.74,-101.414 1538.58,-86.5018"/>
<polygon fill="green" stroke="green" stroke-width="0.518612" points="1538.96,-83.0203 1528.57,-85.1203 1538,-89.9545 1538.96,-83.0203"/>
</g>
<!-- enemyRadar[Front7Ø]&#45;&gt;Turn left/right -->
<g id="edge4" class="edge"><title>enemyRadar[Front7Ø]&#45;&gt;Turn left/right</title>
<path fill="none" stroke="red" stroke-width="1.44873" stroke-dasharray="1,5" d="M2105,-205.808C2105,-191.73 2105,-161.599 2105,-134.136"/>
<polygon fill="red" stroke="red" stroke-width="1.44873" points="2108.5,-133.78 2105,-123.78 2101.5,-133.78 2108.5,-133.78"/>
</g>
<!-- OnTarget -->
<g id="node22" class="node"><title>OnTarget</title>
<polygon fill="lightgray" stroke="black" points="2470,-223.898 2420,-223.898 2420,-205.898 2470,-205.898 2470,-223.898"/>
<text text-anchor="middle" x="2445" y="-212.698" font-family="Times,serif" font-size="9.00">OnTarget</text>
</g>
<!-- OnTarget&#45;&gt;Turn left/right -->
<g id="edge37" class="edge"><title>OnTarget&#45;&gt;Turn left/right</title>
<path fill="none" stroke="green" stroke-width="0.263737" d="M2435.02,-205.896C2428.47,-200.906 2419.56,-194.608 2411,-190.149 2327.06,-146.408 2222.15,-111.973 2159.52,-93.3614"/>
<polygon fill="green" stroke="green" stroke-width="0.263737" points="2160.42,-89.9788 2149.84,-90.5113 2158.45,-96.6937 2160.42,-89.9788"/>
</g>
<!-- bias -->
<g id="node23" class="node"><title>bias</title>
<polygon fill="lightgray" stroke="black" points="1156.5,-223.898 1125.5,-223.898 1125.5,-205.898 1156.5,-205.898 1156.5,-223.898"/>
<text text-anchor="middle" x="1141" y="-212.698" font-family="Times,serif" font-size="9.00">bias</text>
</g>
<!-- bias&#45;&gt;Shoot -->
<g id="edge14" class="edge"><title>bias&#45;&gt;Shoot</title>
<path fill="none" stroke="red" stroke-width="0.236041" d="M1131.83,-205.808C1109.13,-185.792 1049.64,-133.322 1014.37,-102.211"/>
<polygon fill="red" stroke="red" stroke-width="0.236041" points="1016.62,-99.532 1006.81,-95.5423 1011.99,-104.782 1016.62,-99.532"/>
</g>
<!-- bias&#45;&gt;Move Forward/Backward -->
<g id="edge35" class="edge"><title>bias&#45;&gt;Move Forward/Backward</title>
<path fill="none" stroke="green" stroke-width="0.509884" d="M1125.31,-206.624C1112.79,-201.151 1094.63,-193.963 1078,-190.149 904.88,-150.463 854.725,-186.037 680,-154.149 614.848,-142.259 542.737,-121.94 488.852,-105.291"/>
<polygon fill="green" stroke="green" stroke-width="0.509884" points="489.597,-101.857 479.008,-102.228 487.517,-108.541 489.597,-101.857"/>
</g>
<!-- bias&#45;&gt; Move Left/Right -->
<g id="edge23" class="edge"><title>bias&#45;&gt; Move Left/Right</title>
<path fill="none" stroke="green" stroke-width="0.659006" stroke-dasharray="1,5" d="M1148.19,-205.508C1152.84,-200.493 1159.28,-194.309 1166,-190.149 1243.84,-141.957 1345.5,-110.072 1410.29,-93.0323"/>
<polygon fill="green" stroke="green" stroke-width="0.659006" points="1411.55,-96.3193 1420.36,-90.4248 1409.8,-89.5427 1411.55,-96.3193"/>
</g>
<!-- bias&#45;&gt;Turn left/right -->
<g id="edge24" class="edge"><title>bias&#45;&gt;Turn left/right</title>
<path fill="none" stroke="red" stroke-width="1.29864" d="M1147.05,-205.832C1151.61,-200.405 1158.38,-193.629 1166,-190.149 1241.56,-155.67 1455.49,-163.673 1538,-154.149 1725.44,-132.513 1946.93,-101.094 2048.71,-86.3276"/>
<polygon fill="red" stroke="red" stroke-width="1.29864" points="2049.38,-89.768 2058.77,-84.8662 2048.37,-82.8407 2049.38,-89.768"/>
</g>
<!-- 4461&#45;&gt;Shoot -->
<g id="edge53" class="edge"><title>4461&#45;&gt;Shoot</title>
<path fill="none" stroke="green" stroke-width="0.366659" d="M849.2,-198.052C876.393,-174.376 927.819,-129.602 959.577,-101.951"/>
<polygon fill="green" stroke="green" stroke-width="0.366659" points="961.957,-104.519 967.201,-95.3128 957.361,-99.2397 961.957,-104.519"/>
</g>
<!-- 4531&#45;&gt;Shoot -->
<g id="edge56" class="edge"><title>4531&#45;&gt;Shoot</title>
<path fill="none" stroke="red" stroke-width="0.651081" d="M911.132,-193.857C925.903,-171.316 950.054,-134.458 967.135,-108.391"/>
<polygon fill="red" stroke="red" stroke-width="0.651081" points="970.079,-110.283 972.633,-100.001 964.224,-106.447 970.079,-110.283"/>
</g>
<!-- 4408&#45;&gt;Turn left/right -->
<g id="edge51" class="edge"><title>4408&#45;&gt;Turn left/right</title>
<path fill="none" stroke="green" stroke-width="0.620709" d="M2218.27,-196.42C2199.61,-176.922 2168.78,-144.717 2144,-118.822"/>
<polygon fill="green" stroke="green" stroke-width="0.620709" points="2146.3,-116.16 2136.85,-111.356 2141.24,-121 2146.3,-116.16"/>
</g>
<!-- 4347&#45;&gt;Turn left/right -->
<g id="edge49" class="edge"><title>4347&#45;&gt;Turn left/right</title>
<path fill="none" stroke="green" stroke-width="0.39239" stroke-dasharray="1,5" d="M2060.9,-296.805C2115.59,-290.549 2243.4,-272.64 2269,-239.647 2311.77,-184.531 2219.98,-129.464 2157.24,-100"/>
<polygon fill="green" stroke="green" stroke-width="0.39239" points="2158.38,-96.6705 2147.83,-95.6686 2155.45,-103.029 2158.38,-96.6705"/>
</g>
<!-- 4347&#45;&gt;4408 -->
<g id="edge50" class="edge"><title>4347&#45;&gt;4408</title>
<path fill="none" stroke="green" stroke-width="1.05343" d="M2059.63,-292.132C2091.37,-282.027 2149.19,-262.384 2196,-239.647 2199.33,-238.027 2202.75,-236.208 2206.11,-234.314"/>
<polygon fill="green" stroke="green" stroke-width="1.05343" points="2207.92,-237.308 2214.76,-229.219 2204.37,-231.276 2207.92,-237.308"/>
</g>
</g>
</svg>
