<?xml version="1.0" encoding="UTF-8" standalone="no"?>
<!DOCTYPE svg PUBLIC "-//W3C//DTD SVG 1.1//EN"
 "http://www.w3.org/Graphics/SVG/1.1/DTD/svg11.dtd">
<!-- Generated by graphviz version 2.38.0 (20140413.2041)
 -->
<!-- Title: %3 Pages: 1 -->
<svg width="2678pt" height="251pt"
 viewBox="0.00 0.00 2678.43 250.74" xmlns="http://www.w3.org/2000/svg" xmlns:xlink="http://www.w3.org/1999/xlink">
<g id="graph0" class="graph" transform="scale(1 1) rotate(0) translate(4 246.735)">
<title>%3</title>
<polygon fill="white" stroke="none" points="-4,4 -4,-246.735 2674.43,-246.735 2674.43,4 -4,4"/>
<!-- wallRadar[1,0] -->
<g id="node1" class="node"><title>wallRadar[1,0]</title>
<polygon fill="lightgray" stroke="black" points="1528.21,-242.735 1458.21,-242.735 1458.21,-224.735 1528.21,-224.735 1528.21,-242.735"/>
<text text-anchor="middle" x="1493.21" y="-231.535" font-family="Times,serif" font-size="9.00">wallRadar[1,0]</text>
</g>
<!-- Shoot -->
<g id="node23" class="node"><title>Shoot</title>
<ellipse fill="lightblue" stroke="black" cx="2056.21" cy="-55.1543" rx="26.7407" ry="26.7407"/>
<text text-anchor="middle" x="2056.21" y="-52.9543" font-family="Times,serif" font-size="9.00">Shoot</text>
</g>
<!-- wallRadar[1,0]&#45;&gt;Shoot -->
<g id="edge50" class="edge"><title>wallRadar[1,0]&#45;&gt;Shoot</title>
<path fill="none" stroke="green" stroke-width="0.700988" d="M1528.43,-232.094C1677.75,-229.207 2252.12,-216.336 2278.21,-188.735 2291.17,-175.034 2288.74,-161.951 2278.21,-146.309 2256.57,-114.163 2148.84,-81.0551 2091.8,-65.4126"/>
<polygon fill="green" stroke="green" stroke-width="0.700988" points="2092.67,-62.022 2082.1,-62.7878 2090.84,-68.7789 2092.67,-62.022"/>
</g>
<!-- Move Forward -->
<g id="node24" class="node"><title>Move Forward</title>
<ellipse fill="lightblue" stroke="black" cx="570.213" cy="-55.1543" rx="50.41" ry="50.41"/>
<text text-anchor="middle" x="570.213" y="-52.9543" font-family="Times,serif" font-size="9.00">Move Forward</text>
</g>
<!-- wallRadar[1,0]&#45;&gt;Move Forward -->
<g id="edge28" class="edge"><title>wallRadar[1,0]&#45;&gt;Move Forward</title>
<path fill="none" stroke="red" stroke-width="1.42051" d="M1458.18,-232.269C1247.37,-229.385 155.98,-213.283 132.213,-188.735 19.4189,-72.2353 364.891,-57.2255 509.601,-55.9278"/>
<polygon fill="red" stroke="red" stroke-width="1.42051" points="509.689,-59.4273 519.664,-55.8568 509.64,-52.4275 509.689,-59.4273"/>
</g>
<!-- Move right -->
<g id="node27" class="node"><title>Move right</title>
<ellipse fill="lightblue" stroke="black" cx="1469.21" cy="-55.1543" rx="39.6962" ry="39.6962"/>
<text text-anchor="middle" x="1469.21" y="-52.9543" font-family="Times,serif" font-size="9.00">Move right</text>
</g>
<!-- wallRadar[1,0]&#45;&gt;Move right -->
<g id="edge53" class="edge"><title>wallRadar[1,0]&#45;&gt;Move right</title>
<path fill="none" stroke="green" stroke-width="0.83906" d="M1492.12,-224.689C1489.28,-203.808 1481.51,-146.593 1475.8,-104.598"/>
<polygon fill="green" stroke="green" stroke-width="0.83906" points="1479.25,-103.987 1474.43,-94.5496 1472.31,-104.93 1479.25,-103.987"/>
</g>
<!-- Turn Left -->
<g id="node28" class="node"><title>Turn Left</title>
<ellipse fill="lightblue" stroke="black" cx="697.213" cy="-55.1543" rx="35.2113" ry="35.2113"/>
<text text-anchor="middle" x="697.213" y="-52.9543" font-family="Times,serif" font-size="9.00">Turn Left</text>
</g>
<!-- wallRadar[1,0]&#45;&gt;Turn Left -->
<g id="edge37" class="edge"><title>wallRadar[1,0]&#45;&gt;Turn Left</title>
<path fill="none" stroke="green" stroke-width="0.245445" d="M1458.14,-232.274C1300.28,-230.034 662.079,-219.115 633.213,-188.735 605.416,-159.48 636.253,-115.879 663.971,-86.7561"/>
<polygon fill="green" stroke="green" stroke-width="0.245445" points="666.769,-88.9017 671.283,-79.3162 661.777,-83.995 666.769,-88.9017"/>
</g>
<!-- Turn Right -->
<g id="node29" class="node"><title>Turn Right</title>
<ellipse fill="lightblue" stroke="black" cx="2278.21" cy="-55.1543" rx="39.6962" ry="39.6962"/>
<text text-anchor="middle" x="2278.21" y="-52.9543" font-family="Times,serif" font-size="9.00">Turn Right</text>
</g>
<!-- wallRadar[1,0]&#45;&gt;Turn Right -->
<g id="edge7" class="edge"><title>wallRadar[1,0]&#45;&gt;Turn Right</title>
<path fill="none" stroke="red" stroke-width="0.630701" d="M1528.39,-231.924C1709.09,-227.675 2525.25,-207.469 2543.21,-188.735 2612.78,-116.191 2421.8,-77.1527 2327.46,-62.7326"/>
<polygon fill="red" stroke="red" stroke-width="0.630701" points="2327.95,-59.2679 2317.54,-61.2539 2326.92,-66.1913 2327.95,-59.2679"/>
</g>
<!-- 371 -->
<g id="node30" class="node"><title>371</title>
<ellipse fill="white" stroke="black" cx="1518.21" cy="-167.522" rx="21.4286" ry="21.4286"/>
<text text-anchor="middle" x="1518.21" y="-165.322" font-family="Times,serif" font-size="9.00">371</text>
</g>
<!-- wallRadar[1,0]&#45;&gt;371 -->
<g id="edge75" class="edge"><title>wallRadar[1,0]&#45;&gt;371</title>
<path fill="none" stroke="red" stroke-width="1.07425" d="M1496.38,-224.602C1499.11,-217.595 1503.21,-207.048 1507.13,-196.984"/>
<polygon fill="red" stroke="red" stroke-width="1.07425" points="1510.41,-198.204 1510.78,-187.615 1503.89,-195.664 1510.41,-198.204"/>
</g>
<!-- wallRadar[0,1] -->
<g id="node2" class="node"><title>wallRadar[0,1]</title>
<polygon fill="lightgray" stroke="black" points="435.213,-176.522 365.213,-176.522 365.213,-158.522 435.213,-158.522 435.213,-176.522"/>
<text text-anchor="middle" x="400.213" y="-165.322" font-family="Times,serif" font-size="9.00">wallRadar[0,1]</text>
</g>
<!-- wallRadar[0,1]&#45;&gt;Move Forward -->
<g id="edge58" class="edge"><title>wallRadar[0,1]&#45;&gt;Move Forward</title>
<path fill="none" stroke="red" stroke-width="0.666039" d="M412.714,-158.406C434.933,-143.981 482.45,-113.132 519.513,-89.07"/>
<polygon fill="red" stroke="red" stroke-width="0.666039" points="521.725,-91.8066 528.207,-83.4257 517.914,-85.9354 521.725,-91.8066"/>
</g>
<!-- Move Left -->
<g id="node26" class="node"><title>Move Left</title>
<ellipse fill="lightblue" stroke="black" cx="1067.21" cy="-55.1543" rx="38.3684" ry="38.3684"/>
<text text-anchor="middle" x="1067.21" y="-52.9543" font-family="Times,serif" font-size="9.00">Move Left</text>
</g>
<!-- wallRadar[0,1]&#45;&gt;Move Left -->
<g id="edge40" class="edge"><title>wallRadar[0,1]&#45;&gt;Move Left</title>
<path fill="none" stroke="red" stroke-width="0.225009" d="M414.844,-158.408C423.203,-154.133 434.021,-149.191 444.213,-146.309 572.16,-110.122 609.597,-129.208 741.213,-110.309 840.466,-96.0566 956.14,-76.0242 1019.55,-64.7465"/>
<polygon fill="red" stroke="red" stroke-width="0.225009" points="1020.42,-68.1479 1029.65,-62.9469 1019.19,-61.2566 1020.42,-68.1479"/>
</g>
<!-- wallRadar[0,1]&#45;&gt;Turn Left -->
<g id="edge49" class="edge"><title>wallRadar[0,1]&#45;&gt;Turn Left</title>
<path fill="none" stroke="green" stroke-width="0.794709" d="M415.33,-158.489C423.657,-154.345 434.291,-149.503 444.213,-146.309 523.949,-120.643 553.157,-145.407 629.213,-110.309 641.771,-104.514 654.052,-95.9278 664.645,-87.2921"/>
<polygon fill="green" stroke="green" stroke-width="0.794709" points="667.028,-89.8601 672.393,-80.7239 662.502,-84.5205 667.028,-89.8601"/>
</g>
<!-- wallRadar[&#45;1,0] -->
<g id="node3" class="node"><title>wallRadar[&#45;1,0]</title>
<polygon fill="lightgray" stroke="black" points="1864.71,-176.522 1791.71,-176.522 1791.71,-158.522 1864.71,-158.522 1864.71,-176.522"/>
<text text-anchor="middle" x="1828.21" y="-165.322" font-family="Times,serif" font-size="9.00">wallRadar[&#45;1,0]</text>
</g>
<!-- wallRadar[&#45;1,0]&#45;&gt;Shoot -->
<g id="edge2" class="edge"><title>wallRadar[&#45;1,0]&#45;&gt;Shoot</title>
<path fill="none" stroke="red" stroke-width="0.480041" d="M1844.98,-158.406C1882.48,-140.252 1973.73,-96.0826 2023.13,-72.1688"/>
<polygon fill="red" stroke="red" stroke-width="0.480041" points="2024.95,-75.1773 2032.42,-67.6698 2021.9,-68.8766 2024.95,-75.1773"/>
</g>
<!-- wallRadar[&#45;1,0]&#45;&gt;Move Forward -->
<g id="edge11" class="edge"><title>wallRadar[&#45;1,0]&#45;&gt;Move Forward</title>
<path fill="none" stroke="green" stroke-width="0.689878" d="M1813.79,-158.474C1804.96,-153.989 1793.27,-148.816 1782.21,-146.309 1537.41,-90.8077 892.645,-185.685 653.213,-110.309 640.911,-106.436 628.697,-100.188 617.574,-93.2875"/>
<polygon fill="green" stroke="green" stroke-width="0.689878" points="619.197,-90.168 608.907,-87.6468 615.379,-96.035 619.197,-90.168"/>
</g>
<!--  Move Backward -->
<g id="node25" class="node"><title> Move Backward</title>
<ellipse fill="lightblue" stroke="black" cx="1828.21" cy="-55.1543" rx="55.3091" ry="55.3091"/>
<text text-anchor="middle" x="1828.21" y="-52.9543" font-family="Times,serif" font-size="9.00"> Move Backward</text>
</g>
<!-- wallRadar[&#45;1,0]&#45;&gt; Move Backward -->
<g id="edge59" class="edge"><title>wallRadar[&#45;1,0]&#45;&gt; Move Backward</title>
<path fill="none" stroke="red" stroke-width="0.193766" d="M1828.21,-158.226C1828.21,-149.673 1828.21,-135.484 1828.21,-120.367"/>
<polygon fill="red" stroke="red" stroke-width="0.193766" points="1831.71,-120.348 1828.21,-110.348 1824.71,-120.348 1831.71,-120.348"/>
</g>
<!-- wallRadar[0,&#45;1] -->
<g id="node4" class="node"><title>wallRadar[0,&#45;1]</title>
<polygon fill="lightgray" stroke="black" points="247.713,-176.522 174.713,-176.522 174.713,-158.522 247.713,-158.522 247.713,-176.522"/>
<text text-anchor="middle" x="211.213" y="-165.322" font-family="Times,serif" font-size="9.00">wallRadar[0,&#45;1]</text>
</g>
<!-- wallRadar[0,&#45;1]&#45;&gt;Move Forward -->
<g id="edge42" class="edge"><title>wallRadar[0,&#45;1]&#45;&gt;Move Forward</title>
<path fill="none" stroke="red" stroke-width="0.543999" stroke-dasharray="1,5" d="M227.648,-158.46C236.071,-154.503 246.562,-149.841 256.213,-146.309 343.549,-114.341 447.831,-86.3372 511.518,-70.335"/>
<polygon fill="red" stroke="red" stroke-width="0.543999" points="512.528,-73.6903 521.382,-67.8711 510.832,-66.899 512.528,-73.6903"/>
</g>
<!-- wallRadar[0,&#45;1]&#45;&gt;Turn Left -->
<g id="edge26" class="edge"><title>wallRadar[0,&#45;1]&#45;&gt;Turn Left</title>
<path fill="none" stroke="green" stroke-width="1.19025" d="M226.171,-158.318C234.718,-154.014 245.782,-149.074 256.213,-146.309 417.198,-103.622 474.818,-172.761 629.213,-110.309 642.146,-105.077 654.605,-96.5634 665.246,-87.8192"/>
<polygon fill="green" stroke="green" stroke-width="1.19025" points="667.712,-90.3149 673.007,-81.1382 663.145,-85.0098 667.712,-90.3149"/>
</g>
<!-- wallRadar[0.7,0.7] -->
<g id="node5" class="node"><title>wallRadar[0.7,0.7]</title>
<polygon fill="lightgray" stroke="black" points="536.713,-176.522 453.713,-176.522 453.713,-158.522 536.713,-158.522 536.713,-176.522"/>
<text text-anchor="middle" x="495.213" y="-165.322" font-family="Times,serif" font-size="9.00">wallRadar[0.7,0.7]</text>
</g>
<!-- wallRadar[0.7,0.7]&#45;&gt;Turn Left -->
<g id="edge23" class="edge"><title>wallRadar[0.7,0.7]&#45;&gt;Turn Left</title>
<path fill="none" stroke="red" stroke-width="0.242439" d="M514.893,-158.433C550.854,-143.629 623.991,-113.403 629.213,-110.309 641.008,-103.32 652.995,-94.4723 663.552,-85.9645"/>
<polygon fill="red" stroke="red" stroke-width="0.242439" points="665.83,-88.6229 671.32,-79.5613 661.377,-83.2215 665.83,-88.6229"/>
</g>
<!-- wallRadar[&#45;0.7,0.7] -->
<g id="node6" class="node"><title>wallRadar[&#45;0.7,0.7]</title>
<polygon fill="lightgray" stroke="black" points="2534.21,-176.522 2448.21,-176.522 2448.21,-158.522 2534.21,-158.522 2534.21,-176.522"/>
<text text-anchor="middle" x="2491.21" y="-165.322" font-family="Times,serif" font-size="9.00">wallRadar[&#45;0.7,0.7]</text>
</g>
<!-- wallRadar[&#45;0.7,0.7]&#45;&gt;Shoot -->
<g id="edge29" class="edge"><title>wallRadar[&#45;0.7,0.7]&#45;&gt;Shoot</title>
<path fill="none" stroke="red" stroke-width="0.694117" d="M2473.23,-158.499C2463.35,-154.358 2450.79,-149.515 2439.21,-146.309 2347.96,-121.027 2321.27,-132.503 2229.21,-110.309 2180.62,-98.5937 2125.74,-80.5709 2091.07,-68.576"/>
<polygon fill="red" stroke="red" stroke-width="0.694117" points="2092.01,-65.199 2081.42,-65.212 2089.71,-71.8088 2092.01,-65.199"/>
</g>
<!-- wallRadar[&#45;0.7,0.7]&#45;&gt; Move Backward -->
<g id="edge44" class="edge"><title>wallRadar[&#45;0.7,0.7]&#45;&gt; Move Backward</title>
<path fill="none" stroke="red" stroke-width="0.186646" d="M2474.27,-158.519C2464.29,-154.167 2451.29,-149.114 2439.21,-146.309 2257.15,-104.021 2204.09,-143.828 2020.21,-110.309 1976.11,-102.269 1927.52,-88.516 1890.26,-76.8815"/>
<polygon fill="red" stroke="red" stroke-width="0.186646" points="1891.14,-73.49 1880.55,-73.8189 1889.04,-80.1656 1891.14,-73.49"/>
</g>
<!-- wallRadar[&#45;0.7,0.7]&#45;&gt;Turn Right -->
<g id="edge70" class="edge"><title>wallRadar[&#45;0.7,0.7]&#45;&gt;Turn Right</title>
<path fill="none" stroke="red" stroke-width="0.483492" d="M2475.55,-158.406C2443.6,-141.851 2369.9,-103.661 2322.16,-78.9275"/>
<polygon fill="red" stroke="red" stroke-width="0.483492" points="2323.76,-75.8154 2313.28,-74.3223 2320.54,-82.0306 2323.76,-75.8154"/>
</g>
<!-- wallRadar[&#45;0.7,&#45;0.7] -->
<g id="node7" class="node"><title>wallRadar[&#45;0.7,&#45;0.7]</title>
<polygon fill="lightgray" stroke="black" points="2100.71,-176.522 2011.71,-176.522 2011.71,-158.522 2100.71,-158.522 2100.71,-176.522"/>
<text text-anchor="middle" x="2056.21" y="-165.322" font-family="Times,serif" font-size="9.00">wallRadar[&#45;0.7,&#45;0.7]</text>
</g>
<!-- wallRadar[&#45;0.7,&#45;0.7]&#45;&gt;Shoot -->
<g id="edge17" class="edge"><title>wallRadar[&#45;0.7,&#45;0.7]&#45;&gt;Shoot</title>
<path fill="none" stroke="red" stroke-width="0.597048" d="M2056.21,-158.226C2056.21,-144.34 2056.21,-115.601 2056.21,-92.1464"/>
<polygon fill="red" stroke="red" stroke-width="0.597048" points="2059.71,-92.1461 2056.21,-82.1461 2052.71,-92.1462 2059.71,-92.1461"/>
</g>
<!-- wallRadar[&#45;0.7,&#45;0.7]&#45;&gt; Move Backward -->
<g id="edge55" class="edge"><title>wallRadar[&#45;0.7,&#45;0.7]&#45;&gt; Move Backward</title>
<path fill="none" stroke="red" stroke-width="0.340418" d="M2039.45,-158.406C2007.79,-143.082 1937.84,-109.221 1887.09,-84.6532"/>
<polygon fill="red" stroke="red" stroke-width="0.340418" points="1888.37,-81.3874 1877.85,-80.1806 1885.32,-87.688 1888.37,-81.3874"/>
</g>
<!-- wallRadar[&#45;0.7,&#45;0.7]&#45;&gt;Move right -->
<g id="edge4" class="edge"><title>wallRadar[&#45;0.7,&#45;0.7]&#45;&gt;Move right</title>
<path fill="none" stroke="red" stroke-width="0.121129" d="M2037.53,-158.431C2027.27,-154.269 2014.23,-149.429 2002.21,-146.309 1898.67,-119.411 1869.73,-127.969 1764.21,-110.309 1677.49,-95.7937 1576.82,-76.8652 1518.34,-65.661"/>
<polygon fill="red" stroke="red" stroke-width="0.121129" points="1518.75,-62.1767 1508.27,-63.729 1517.43,-69.0512 1518.75,-62.1767"/>
</g>
<!-- wallRadar[&#45;0.7,&#45;0.7]&#45;&gt;Turn Left -->
<g id="edge14" class="edge"><title>wallRadar[&#45;0.7,&#45;0.7]&#45;&gt;Turn Left</title>
<path fill="none" stroke="green" stroke-width="0.150638" d="M2039.12,-158.507C2028.7,-154.034 2014.97,-148.861 2002.21,-146.309 1788.09,-103.48 1237.46,-132.409 1020.21,-110.309 920.011,-100.115 803.828,-78.0998 741.757,-65.5033"/>
<polygon fill="green" stroke="green" stroke-width="0.150638" points="742.403,-62.0632 731.905,-63.4908 741.002,-68.9216 742.403,-62.0632"/>
</g>
<!-- wallRadar[&#45;0.7,&#45;0.7]&#45;&gt;Turn Right -->
<g id="edge65" class="edge"><title>wallRadar[&#45;0.7,&#45;0.7]&#45;&gt;Turn Right</title>
<path fill="none" stroke="green" stroke-width="0.39183" d="M2072.54,-158.406C2106.12,-141.71 2183.96,-103.013 2233.66,-78.3016"/>
<polygon fill="green" stroke="green" stroke-width="0.39183" points="2235.51,-81.2935 2242.91,-73.7077 2232.39,-75.0254 2235.51,-81.2935"/>
</g>
<!-- wallRadar[0.7,&#45;0.7] -->
<g id="node8" class="node"><title>wallRadar[0.7,&#45;0.7]</title>
<polygon fill="lightgray" stroke="black" points="1643.21,-176.522 1557.21,-176.522 1557.21,-158.522 1643.21,-158.522 1643.21,-176.522"/>
<text text-anchor="middle" x="1600.21" y="-165.322" font-family="Times,serif" font-size="9.00">wallRadar[0.7,&#45;0.7]</text>
</g>
<!-- wallRadar[0.7,&#45;0.7]&#45;&gt; Move Backward -->
<g id="edge6" class="edge"><title>wallRadar[0.7,&#45;0.7]&#45;&gt; Move Backward</title>
<path fill="none" stroke="green" stroke-width="0.346522" d="M1616.98,-158.406C1648.64,-143.082 1718.59,-109.221 1769.34,-84.6532"/>
<polygon fill="green" stroke="green" stroke-width="0.346522" points="1771.1,-87.688 1778.58,-80.1806 1768.05,-81.3874 1771.1,-87.688"/>
</g>
<!-- wallRadar[0.7,&#45;0.7]&#45;&gt;Move right -->
<g id="edge33" class="edge"><title>wallRadar[0.7,&#45;0.7]&#45;&gt;Move right</title>
<path fill="none" stroke="red" stroke-width="0.133327" stroke-dasharray="1,5" d="M1590.37,-158.226C1572.91,-143.517 1535.67,-112.145 1507.06,-88.0388"/>
<polygon fill="red" stroke="red" stroke-width="0.133327" points="1509.14,-85.2186 1499.24,-81.4522 1504.63,-90.572 1509.14,-85.2186"/>
</g>
<!-- enemyRadar[RightBack] -->
<g id="node9" class="node"><title>enemyRadar[RightBack]</title>
<polygon fill="lightgray" stroke="black" points="966.213,-242.735 862.213,-242.735 862.213,-224.735 966.213,-224.735 966.213,-242.735"/>
<text text-anchor="middle" x="914.213" y="-231.535" font-family="Times,serif" font-size="9.00">enemyRadar[RightBack]</text>
</g>
<!-- enemyRadar[RightBack]&#45;&gt;Move Forward -->
<g id="edge41" class="edge"><title>enemyRadar[RightBack]&#45;&gt;Move Forward</title>
<path fill="none" stroke="green" stroke-width="0.144951" d="M862.044,-231.889C685.603,-228.776 120.677,-216.657 94.2132,-188.735 81.242,-175.049 82.1843,-160.83 94.2132,-146.309 146.361,-83.3565 393.755,-64.0261 509.824,-58.3678"/>
<polygon fill="green" stroke="green" stroke-width="0.144951" points="510.141,-61.8569 519.965,-57.892 509.812,-54.8646 510.141,-61.8569"/>
</g>
<!-- enemyRadar[RightBack]&#45;&gt; Move Backward -->
<g id="edge12" class="edge"><title>enemyRadar[RightBack]&#45;&gt; Move Backward</title>
<path fill="none" stroke="red" stroke-width="0.578325" d="M966.232,-231.996C1209.32,-228.419 2222.58,-212.128 2245.21,-188.735 2258.32,-175.183 2257.45,-160.657 2245.21,-146.309 2212.36,-107.779 2069.66,-121.2 2020.21,-110.309 1976.43,-100.667 1927.84,-86.9311 1890.5,-75.7062"/>
<polygon fill="red" stroke="red" stroke-width="0.578325" points="1891.35,-72.308 1880.77,-72.7618 1889.32,-79.008 1891.35,-72.308"/>
</g>
<!-- enemyRadar[RightBack]&#45;&gt;Move Left -->
<g id="edge82" class="edge"><title>enemyRadar[RightBack]&#45;&gt;Move Left</title>
<path fill="none" stroke="red" stroke-width="0.281466" d="M914.185,-224.571C914.513,-208.257 917.225,-171.074 934.213,-146.309 956.141,-114.343 993.451,-90.5166 1022.98,-75.4116"/>
<polygon fill="red" stroke="red" stroke-width="0.281466" points="1024.86,-78.388 1032.27,-70.8146 1021.75,-72.1146 1024.86,-78.388"/>
</g>
<!-- enemyRadar[RightBack]&#45;&gt;Move right -->
<g id="edge21" class="edge"><title>enemyRadar[RightBack]&#45;&gt;Move right</title>
<path fill="none" stroke="green" stroke-width="0.168004" d="M966.6,-231.118C1087.17,-226.971 1376.7,-214.432 1412.21,-188.735 1439.36,-169.092 1453.7,-133.791 1461.2,-104.552"/>
<polygon fill="green" stroke="green" stroke-width="0.168004" points="1464.68,-105.035 1463.58,-94.4982 1457.87,-103.423 1464.68,-105.035"/>
</g>
<!-- 504 -->
<g id="node31" class="node"><title>504</title>
<ellipse fill="white" stroke="black" cx="21.2132" cy="-167.522" rx="21.4286" ry="21.4286"/>
<text text-anchor="middle" x="21.2132" y="-165.322" font-family="Times,serif" font-size="9.00">504</text>
</g>
<!-- enemyRadar[RightBack]&#45;&gt;504 -->
<g id="edge77" class="edge"><title>enemyRadar[RightBack]&#45;&gt;504</title>
<path fill="none" stroke="red" stroke-width="0.406969" d="M862.048,-233.244C700.203,-234.324 208.364,-233.722 56.2132,-188.735 53.2146,-187.848 50.1994,-186.658 47.2643,-185.296"/>
<polygon fill="red" stroke="red" stroke-width="0.406969" points="48.7531,-182.124 38.2794,-180.526 45.4705,-188.307 48.7531,-182.124"/>
</g>
<!-- enemyRadar[LeftBack] -->
<g id="node10" class="node"><title>enemyRadar[LeftBack]</title>
<polygon fill="lightgray" stroke="black" points="2429.71,-176.522 2330.71,-176.522 2330.71,-158.522 2429.71,-158.522 2429.71,-176.522"/>
<text text-anchor="middle" x="2380.21" y="-165.322" font-family="Times,serif" font-size="9.00">enemyRadar[LeftBack]</text>
</g>
<!-- enemyRadar[LeftBack]&#45;&gt;Shoot -->
<g id="edge10" class="edge"><title>enemyRadar[LeftBack]&#45;&gt;Shoot</title>
<path fill="none" stroke="red" stroke-width="0.550419" d="M2356.65,-158.496C2300.28,-139.292 2157.39,-90.6202 2091.05,-68.0209"/>
<polygon fill="red" stroke="red" stroke-width="0.550419" points="2092.05,-64.6657 2081.46,-64.7542 2089.8,-71.2918 2092.05,-64.6657"/>
</g>
<!-- enemyRadar[LeftBack]&#45;&gt;Move right -->
<g id="edge73" class="edge"><title>enemyRadar[LeftBack]&#45;&gt;Move right</title>
<path fill="none" stroke="red" stroke-width="0.25765" stroke-dasharray="1,5" d="M2332.53,-158.504C2306.74,-154.389 2274.3,-149.57 2245.21,-146.309 2032.17,-122.42 1976.83,-137.701 1764.21,-110.309 1677.01,-99.0734 1576.49,-79.0979 1518.17,-66.801"/>
<polygon fill="red" stroke="red" stroke-width="0.25765" points="1518.64,-63.3232 1508.13,-64.6726 1517.19,-70.1709 1518.64,-63.3232"/>
</g>
<!-- enemyRadar[LeftBack]&#45;&gt;Turn Right -->
<g id="edge48" class="edge"><title>enemyRadar[LeftBack]&#45;&gt;Turn Right</title>
<path fill="none" stroke="green" stroke-width="0.224124" d="M2372.55,-158.226C2359.75,-144.384 2333.32,-115.786 2311.69,-92.3728"/>
<polygon fill="green" stroke="green" stroke-width="0.224124" points="2314.21,-89.9472 2304.85,-84.9787 2309.07,-94.6982 2314.21,-89.9472"/>
</g>
<!-- enemyRadar[Right] -->
<g id="node11" class="node"><title>enemyRadar[Right]</title>
<polygon fill="lightgray" stroke="black" points="1403.21,-176.522 1317.21,-176.522 1317.21,-158.522 1403.21,-158.522 1403.21,-176.522"/>
<text text-anchor="middle" x="1360.21" y="-165.322" font-family="Times,serif" font-size="9.00">enemyRadar[Right]</text>
</g>
<!-- enemyRadar[Right]&#45;&gt;Move Left -->
<g id="edge24" class="edge"><title>enemyRadar[Right]&#45;&gt;Move Left</title>
<path fill="none" stroke="red" stroke-width="0.668477" d="M1339.49,-158.396C1329.97,-154.682 1318.53,-150.243 1308.21,-146.309 1240.07,-120.321 1160.83,-90.8153 1112.36,-72.8469"/>
<polygon fill="red" stroke="red" stroke-width="0.668477" points="1113.39,-69.4948 1102.79,-69.3024 1110.95,-76.0587 1113.39,-69.4948"/>
</g>
<!-- enemyRadar[Right]&#45;&gt;Move right -->
<g id="edge64" class="edge"><title>enemyRadar[Right]&#45;&gt;Move right</title>
<path fill="none" stroke="red" stroke-width="0.340905" d="M1368.41,-158.226C1382.32,-144.143 1411.31,-114.783 1434.65,-91.1515"/>
<polygon fill="red" stroke="red" stroke-width="0.340905" points="1437.15,-93.5992 1441.69,-84.0248 1432.17,-88.6804 1437.15,-93.5992"/>
</g>
<!-- enemyRadar[Right]&#45;&gt;Turn Right -->
<g id="edge22" class="edge"><title>enemyRadar[Right]&#45;&gt;Turn Right</title>
<path fill="none" stroke="green" stroke-width="0.432472" stroke-dasharray="1,5" d="M1403.32,-158.626C1428.08,-154.365 1459.81,-149.366 1488.21,-146.309 1763.53,-116.676 1838.02,-161.196 2110.21,-110.309 2152.43,-102.415 2198.78,-86.9313 2232.08,-74.535"/>
<polygon fill="green" stroke="green" stroke-width="0.432472" points="2233.43,-77.7692 2241.55,-70.9645 2230.96,-71.2198 2233.43,-77.7692"/>
</g>
<!-- enemyRadar[Left] -->
<g id="node12" class="node"><title>enemyRadar[Left]</title>
<polygon fill="lightgray" stroke="black" points="346.713,-176.522 265.713,-176.522 265.713,-158.522 346.713,-158.522 346.713,-176.522"/>
<text text-anchor="middle" x="306.213" y="-165.322" font-family="Times,serif" font-size="9.00">enemyRadar[Left]</text>
</g>
<!-- enemyRadar[Left]&#45;&gt;Move Forward -->
<g id="edge27" class="edge"><title>enemyRadar[Left]&#45;&gt;Move Forward</title>
<path fill="none" stroke="green" stroke-width="0.707634" stroke-dasharray="1,5" d="M325.626,-158.406C364.936,-141.972 455.236,-104.222 514.43,-79.475"/>
<polygon fill="green" stroke="green" stroke-width="0.707634" points="516.136,-82.5552 524.013,-75.4689 513.436,-76.0969 516.136,-82.5552"/>
</g>
<!-- enemyRadar[Left]&#45;&gt;Turn Left -->
<g id="edge34" class="edge"><title>enemyRadar[Left]&#45;&gt;Turn Left</title>
<path fill="none" stroke="green" stroke-width="0.320797" stroke-dasharray="1,5" d="M322.974,-158.504C332.514,-154.258 344.805,-149.315 356.213,-146.309 474.557,-115.125 516.577,-158.173 629.213,-110.309 642.053,-104.853 654.486,-96.2761 665.132,-87.5438"/>
<polygon fill="green" stroke="green" stroke-width="0.320797" points="667.586,-90.0499 672.902,-80.885 663.031,-84.7346 667.586,-90.0499"/>
</g>
<!-- enemyRadar[RightFront30] -->
<g id="node13" class="node"><title>enemyRadar[RightFront30]</title>
<polygon fill="lightgray" stroke="black" points="885.713,-176.522 770.713,-176.522 770.713,-158.522 885.713,-158.522 885.713,-176.522"/>
<text text-anchor="middle" x="828.213" y="-165.322" font-family="Times,serif" font-size="9.00">enemyRadar[RightFront30]</text>
</g>
<!-- enemyRadar[RightFront30]&#45;&gt;Move Forward -->
<g id="edge38" class="edge"><title>enemyRadar[RightFront30]&#45;&gt;Move Forward</title>
<path fill="none" stroke="red" stroke-width="0.83659" d="M801.685,-158.429C756.195,-144.488 666.862,-116.809 653.213,-110.309 641.691,-104.822 629.879,-97.968 618.911,-91.0005"/>
<polygon fill="red" stroke="red" stroke-width="0.83659" points="620.609,-87.9298 610.317,-85.4121 616.792,-93.7981 620.609,-87.9298"/>
</g>
<!-- enemyRadar[RightFront30]&#45;&gt; Move Backward -->
<g id="edge66" class="edge"><title>enemyRadar[RightFront30]&#45;&gt; Move Backward</title>
<path fill="none" stroke="red" stroke-width="0.562238" d="M864.336,-158.455C884.748,-154.194 910.792,-149.252 934.213,-146.309 1192.23,-113.888 1259.95,-140.731 1518.21,-110.309 1603.92,-100.213 1701.88,-81.9584 1764.35,-69.4571"/>
<polygon fill="red" stroke="red" stroke-width="0.562238" points="1765.33,-72.8298 1774.44,-67.4251 1763.95,-65.9675 1765.33,-72.8298"/>
</g>
<!-- enemyRadar[RightFront30]&#45;&gt;Move Left -->
<g id="edge45" class="edge"><title>enemyRadar[RightFront30]&#45;&gt;Move Left</title>
<path fill="none" stroke="red" stroke-width="0.239825" d="M845.787,-158.406C882.906,-141.265 970.244,-100.934 1023.47,-76.3557"/>
<polygon fill="red" stroke="red" stroke-width="0.239825" points="1025.06,-79.4775 1032.67,-72.1074 1022.12,-73.1223 1025.06,-79.4775"/>
</g>
<!-- enemyRadar[RightFront30]&#45;&gt;Turn Left -->
<g id="edge54" class="edge"><title>enemyRadar[RightFront30]&#45;&gt;Turn Left</title>
<path fill="none" stroke="red" stroke-width="0.4472" d="M818.367,-158.226C800.201,-142.921 760.622,-109.577 731.626,-85.1473"/>
<polygon fill="red" stroke="red" stroke-width="0.4472" points="733.658,-82.2823 723.755,-78.5158 729.148,-87.6357 733.658,-82.2823"/>
</g>
<!-- enemyRadar[LeftFront30] -->
<g id="node14" class="node"><title>enemyRadar[LeftFront30]</title>
<polygon fill="lightgray" stroke="black" points="1993.21,-176.522 1883.21,-176.522 1883.21,-158.522 1993.21,-158.522 1993.21,-176.522"/>
<text text-anchor="middle" x="1938.21" y="-165.322" font-family="Times,serif" font-size="9.00">enemyRadar[LeftFront30]</text>
</g>
<!-- enemyRadar[LeftFront30]&#45;&gt;Shoot -->
<g id="edge39" class="edge"><title>enemyRadar[LeftFront30]&#45;&gt;Shoot</title>
<path fill="none" stroke="green" stroke-width="0.122923" d="M1947.08,-158.226C1964.35,-142.074 2003.1,-105.83 2029.46,-81.1773"/>
<polygon fill="green" stroke="green" stroke-width="0.122923" points="2031.96,-83.6332 2036.87,-74.2461 2027.18,-78.5208 2031.96,-83.6332"/>
</g>
<!-- enemyRadar[LeftFront30]&#45;&gt;Move Forward -->
<g id="edge51" class="edge"><title>enemyRadar[LeftFront30]&#45;&gt;Move Forward</title>
<path fill="none" stroke="red" stroke-width="0.304207" d="M1917.82,-158.49C1905.42,-154.01 1889.15,-148.837 1874.21,-146.309 1606.57,-101 912.235,-191.51 653.213,-110.309 640.906,-106.451 628.69,-100.209 617.567,-93.3096"/>
<polygon fill="red" stroke="red" stroke-width="0.304207" points="619.19,-90.1902 608.9,-87.669 615.372,-96.0571 619.19,-90.1902"/>
</g>
<!-- enemyRadar[LeftFront30]&#45;&gt;Move right -->
<g id="edge3" class="edge"><title>enemyRadar[LeftFront30]&#45;&gt;Move right</title>
<path fill="none" stroke="green" stroke-width="1.12664" d="M1914.35,-158.442C1902.37,-154.527 1887.6,-149.906 1874.21,-146.309 1746.72,-112.054 1594.2,-80.6397 1517.83,-65.555"/>
<polygon fill="green" stroke="green" stroke-width="1.12664" points="1518.5,-62.12 1508.02,-63.6232 1517.15,-68.9883 1518.5,-62.12"/>
</g>
<!-- enemyRadar[LeftFront30]&#45;&gt;Turn Right -->
<g id="edge63" class="edge"><title>enemyRadar[LeftFront30]&#45;&gt;Turn Right</title>
<path fill="none" stroke="green" stroke-width="0.305215" stroke-dasharray="1,5" d="M1962.94,-158.496C2019.2,-140.232 2157.58,-95.3133 2230.88,-71.5195"/>
<polygon fill="green" stroke="green" stroke-width="0.305215" points="2232.34,-74.7238 2240.77,-68.3072 2230.18,-68.0658 2232.34,-74.7238"/>
</g>
<!-- enemyRadar[RightFront10] -->
<g id="node15" class="node"><title>enemyRadar[RightFront10]</title>
<polygon fill="lightgray" stroke="black" points="1192.71,-176.522 1077.71,-176.522 1077.71,-158.522 1192.71,-158.522 1192.71,-176.522"/>
<text text-anchor="middle" x="1135.21" y="-165.322" font-family="Times,serif" font-size="9.00">enemyRadar[RightFront10]</text>
</g>
<!-- enemyRadar[RightFront10]&#45;&gt;Shoot -->
<g id="edge36" class="edge"><title>enemyRadar[RightFront10]&#45;&gt;Shoot</title>
<path fill="none" stroke="red" stroke-width="0.582094" d="M1170.5,-158.494C1190.79,-154.191 1216.81,-149.193 1240.21,-146.309 1528.25,-110.797 1607.06,-164.277 1892.21,-110.309 1938.4,-101.567 1989.53,-83.2209 2022.22,-70.3134"/>
<polygon fill="red" stroke="red" stroke-width="0.582094" points="2023.76,-73.4649 2031.75,-66.4988 2021.16,-66.9664 2023.76,-73.4649"/>
</g>
<!-- enemyRadar[RightFront10]&#45;&gt;Move Forward -->
<g id="edge60" class="edge"><title>enemyRadar[RightFront10]&#45;&gt;Move Forward</title>
<path fill="none" stroke="red" stroke-width="0.157285" d="M1113.21,-158.506C1100.51,-154.207 1084.15,-149.209 1069.21,-146.309 887.035,-110.94 828.646,-170.833 653.213,-110.309 641.021,-106.102 628.852,-99.7161 617.739,-92.7872"/>
<polygon fill="red" stroke="red" stroke-width="0.157285" points="619.362,-89.6678 609.072,-87.1454 615.543,-95.5343 619.362,-89.6678"/>
</g>
<!-- enemyRadar[RightFront10]&#45;&gt;Move right -->
<g id="edge57" class="edge"><title>enemyRadar[RightFront10]&#45;&gt;Move right</title>
<path fill="none" stroke="red" stroke-width="0.361676" d="M1159.5,-158.496C1214.63,-140.279 1350,-95.5461 1422.15,-71.7051"/>
<polygon fill="red" stroke="red" stroke-width="0.361676" points="1423.5,-74.9455 1431.9,-68.4846 1421.31,-68.2989 1423.5,-74.9455"/>
</g>
<!-- enemyRadar[RightFront10]&#45;&gt;Turn Left -->
<g id="edge67" class="edge"><title>enemyRadar[RightFront10]&#45;&gt;Turn Left</title>
<path fill="none" stroke="red" stroke-width="1.03871" d="M1110.24,-158.491C1097.94,-154.633 1082.85,-150.046 1069.21,-146.309 951.623,-114.084 811.504,-81.7411 741.551,-66.0023"/>
<polygon fill="red" stroke="red" stroke-width="1.03871" points="742.274,-62.5776 731.751,-63.8027 740.741,-69.4077 742.274,-62.5776"/>
</g>
<!-- enemyRadar[LeftFront10] -->
<g id="node16" class="node"><title>enemyRadar[LeftFront10]</title>
<polygon fill="lightgray" stroke="black" points="752.213,-176.522 642.213,-176.522 642.213,-158.522 752.213,-158.522 752.213,-176.522"/>
<text text-anchor="middle" x="697.213" y="-165.322" font-family="Times,serif" font-size="9.00">enemyRadar[LeftFront10]</text>
</g>
<!-- enemyRadar[LeftFront10]&#45;&gt;Move Forward -->
<g id="edge19" class="edge"><title>enemyRadar[LeftFront10]&#45;&gt;Move Forward</title>
<path fill="none" stroke="green" stroke-width="0.172606" d="M687.668,-158.226C672.442,-144.994 641.7,-118.279 615.486,-95.4976"/>
<polygon fill="green" stroke="green" stroke-width="0.172606" points="617.718,-92.8009 607.874,-88.8832 613.127,-98.0845 617.718,-92.8009"/>
</g>
<!-- enemyRadar[LeftFront10]&#45;&gt;Move Left -->
<g id="edge72" class="edge"><title>enemyRadar[LeftFront10]&#45;&gt;Move Left</title>
<path fill="none" stroke="green" stroke-width="1.27561" d="M722.811,-158.47C734.77,-154.732 749.208,-150.253 762.213,-146.309 853.622,-118.588 960.767,-87.1637 1020.64,-69.6997"/>
<polygon fill="green" stroke="green" stroke-width="1.27561" points="1021.92,-72.9713 1030.54,-66.8124 1019.96,-66.2511 1021.92,-72.9713"/>
</g>
<!-- enemyRadar[LeftFront10]&#45;&gt;Move right -->
<g id="edge47" class="edge"><title>enemyRadar[LeftFront10]&#45;&gt;Move right</title>
<path fill="none" stroke="red" stroke-width="0.359501" d="M719.189,-158.486C731.651,-154.235 747.625,-149.292 762.213,-146.309 916.285,-114.803 958.212,-130.172 1114.21,-110.309 1223.78,-96.3579 1351.7,-75.7817 1420.11,-64.4307"/>
<polygon fill="red" stroke="red" stroke-width="0.359501" points="1420.88,-67.8518 1430.17,-62.7577 1419.73,-60.9467 1420.88,-67.8518"/>
</g>
<!-- enemyRadar[LeftFront10]&#45;&gt;Turn Left -->
<g id="edge8" class="edge"><title>enemyRadar[LeftFront10]&#45;&gt;Turn Left</title>
<path fill="none" stroke="red" stroke-width="0.499548" stroke-dasharray="1,5" d="M697.213,-158.226C697.213,-145.979 697.213,-122.179 697.213,-100.64"/>
<polygon fill="red" stroke="red" stroke-width="0.499548" points="700.713,-100.632 697.213,-90.6319 693.713,-100.632 700.713,-100.632"/>
</g>
<!-- enemyRadar[RightFront3.5] -->
<g id="node17" class="node"><title>enemyRadar[RightFront3.5]</title>
<polygon fill="lightgray" stroke="black" points="2235.71,-176.522 2118.71,-176.522 2118.71,-158.522 2235.71,-158.522 2235.71,-176.522"/>
<text text-anchor="middle" x="2177.21" y="-165.322" font-family="Times,serif" font-size="9.00">enemyRadar[RightFront3.5]</text>
</g>
<!-- enemyRadar[RightFront3.5]&#45;&gt;Shoot -->
<g id="edge52" class="edge"><title>enemyRadar[RightFront3.5]&#45;&gt;Shoot</title>
<path fill="none" stroke="red" stroke-width="0.110143" d="M2168.12,-158.226C2150.31,-141.983 2110.22,-105.42 2083.19,-80.7606"/>
<polygon fill="red" stroke="red" stroke-width="0.110143" points="2085.35,-77.9902 2075.6,-73.837 2080.63,-83.162 2085.35,-77.9902"/>
</g>
<!-- enemyRadar[RightFront3.5]&#45;&gt; Move Backward -->
<g id="edge43" class="edge"><title>enemyRadar[RightFront3.5]&#45;&gt; Move Backward</title>
<path fill="none" stroke="green" stroke-width="0.671695" d="M2151.83,-158.496C2097.38,-141.275 1967.99,-100.358 1890.32,-75.7946"/>
<polygon fill="green" stroke="green" stroke-width="0.671695" points="1891.24,-72.4139 1880.65,-72.7358 1889.13,-79.0882 1891.24,-72.4139"/>
</g>
<!-- enemyRadar[RightFront3.5]&#45;&gt;Move Left -->
<g id="edge18" class="edge"><title>enemyRadar[RightFront3.5]&#45;&gt;Move Left</title>
<path fill="none" stroke="red" stroke-width="0.63138" d="M2155.51,-158.521C2142.55,-154.111 2125.65,-149 2110.21,-146.309 1807.69,-93.5789 1725.7,-141.631 1420.21,-110.309 1310.21,-99.03 1182.16,-77.1832 1114.59,-64.9669"/>
<polygon fill="red" stroke="red" stroke-width="0.63138" points="1115.13,-61.5092 1104.67,-63.1644 1113.88,-68.3964 1115.13,-61.5092"/>
</g>
<!-- enemyRadar[RightFront3.5]&#45;&gt;Move right -->
<g id="edge9" class="edge"><title>enemyRadar[RightFront3.5]&#45;&gt;Move right</title>
<path fill="none" stroke="red" stroke-width="0.962064" d="M2154.54,-158.512C2141.69,-154.269 2125.22,-149.325 2110.21,-146.309 1958.64,-115.844 1917.25,-132.283 1764.21,-110.309 1677.18,-97.8115 1576.61,-78.2389 1518.23,-66.3623"/>
<polygon fill="red" stroke="red" stroke-width="0.962064" points="1518.68,-62.8823 1508.18,-64.3095 1517.28,-69.7406 1518.68,-62.8823"/>
</g>
<!-- enemyRadar[RightFront3.5]&#45;&gt;Turn Right -->
<g id="edge79" class="edge"><title>enemyRadar[RightFront3.5]&#45;&gt;Turn Right</title>
<path fill="none" stroke="green" stroke-width="0.141139" d="M2184.8,-158.226C2197.47,-144.384 2223.64,-115.786 2245.07,-92.3728"/>
<polygon fill="green" stroke="green" stroke-width="0.141139" points="2247.67,-94.7188 2251.84,-84.9787 2242.5,-89.993 2247.67,-94.7188"/>
</g>
<!-- enemyRadar[LeftFront3.5] -->
<g id="node18" class="node"><title>enemyRadar[LeftFront3.5]</title>
<polygon fill="lightgray" stroke="black" points="2169.21,-242.735 2057.21,-242.735 2057.21,-224.735 2169.21,-224.735 2169.21,-242.735"/>
<text text-anchor="middle" x="2113.21" y="-231.535" font-family="Times,serif" font-size="9.00">enemyRadar[LeftFront3.5]</text>
</g>
<!-- enemyRadar[LeftFront3.5]&#45;&gt;Move Forward -->
<g id="edge61" class="edge"><title>enemyRadar[LeftFront3.5]&#45;&gt;Move Forward</title>
<path fill="none" stroke="red" stroke-width="0.123079" d="M2057.02,-231.997C1739.38,-227.759 182.201,-206.111 165.213,-188.735 60.8698,-82.0083 372.507,-61.158 509.289,-57.114"/>
<polygon fill="red" stroke="red" stroke-width="0.123079" points="509.713,-60.6037 519.613,-56.8309 509.521,-53.6064 509.713,-60.6037"/>
</g>
<!-- enemyRadar[LeftFront3.5]&#45;&gt;Move Left -->
<g id="edge31" class="edge"><title>enemyRadar[LeftFront3.5]&#45;&gt;Move Left</title>
<path fill="none" stroke="green" stroke-width="0.14881" d="M2056.98,-232.4C1875.61,-230.975 1313.57,-223.751 1240.21,-188.735 1217.37,-177.83 1221.33,-162.897 1202.21,-146.309 1173.11,-121.061 1136.59,-97.0697 1108.88,-80.1925"/>
<polygon fill="green" stroke="green" stroke-width="0.14881" points="1110.58,-77.1327 1100.21,-74.9703 1106.97,-83.1287 1110.58,-77.1327"/>
</g>
<!-- enemyRadar[LeftFront3.5]&#45;&gt;Turn Right -->
<g id="edge46" class="edge"><title>enemyRadar[LeftFront3.5]&#45;&gt;Turn Right</title>
<path fill="none" stroke="green" stroke-width="0.26496" stroke-dasharray="1,5" d="M2169.6,-231.536C2287.06,-228.454 2549.32,-218.304 2576.21,-188.735 2651.91,-105.507 2430.63,-71.6086 2327.73,-60.6008"/>
<polygon fill="green" stroke="green" stroke-width="0.26496" points="2327.87,-57.0969 2317.57,-59.5466 2327.15,-64.0596 2327.87,-57.0969"/>
</g>
<!-- 762 -->
<g id="node32" class="node"><title>762</title>
<ellipse fill="white" stroke="black" cx="2649.21" cy="-167.522" rx="21.4286" ry="21.4286"/>
<text text-anchor="middle" x="2649.21" y="-165.322" font-family="Times,serif" font-size="9.00">762</text>
</g>
<!-- enemyRadar[LeftFront3.5]&#45;&gt;762 -->
<g id="edge80" class="edge"><title>enemyRadar[LeftFront3.5]&#45;&gt;762</title>
<path fill="none" stroke="green" stroke-width="0.359329" d="M2169.43,-230.86C2282.29,-226.597 2532.61,-214.485 2614.21,-188.735 2617.2,-187.794 2620.2,-186.568 2623.13,-185.185"/>
<polygon fill="green" stroke="green" stroke-width="0.359329" points="2624.93,-188.188 2632.1,-180.388 2621.64,-182.014 2624.93,-188.188"/>
</g>
<!-- enemyRadar[RightFront1.5] -->
<g id="node19" class="node"><title>enemyRadar[RightFront1.5]</title>
<polygon fill="lightgray" stroke="black" points="1059.71,-176.522 942.713,-176.522 942.713,-158.522 1059.71,-158.522 1059.71,-176.522"/>
<text text-anchor="middle" x="1001.21" y="-165.322" font-family="Times,serif" font-size="9.00">enemyRadar[RightFront1.5]</text>
</g>
<!-- enemyRadar[RightFront1.5]&#45;&gt;Move Forward -->
<g id="edge71" class="edge"><title>enemyRadar[RightFront1.5]&#45;&gt;Move Forward</title>
<path fill="none" stroke="red" stroke-width="0.49782" d="M961.266,-158.506C941.438,-154.629 917.101,-150.022 895.213,-146.309 788.006,-128.121 754.871,-148.909 653.213,-110.309 641.283,-105.779 629.298,-99.3274 618.292,-92.4488"/>
<polygon fill="red" stroke="red" stroke-width="0.49782" points="619.989,-89.3775 609.695,-86.8691 616.178,-95.2492 619.989,-89.3775"/>
</g>
<!-- enemyRadar[RightFront1.5]&#45;&gt; Move Backward -->
<g id="edge32" class="edge"><title>enemyRadar[RightFront1.5]&#45;&gt; Move Backward</title>
<path fill="none" stroke="red" stroke-width="0.307948" d="M1023.9,-158.482C1036.98,-154.175 1053.84,-149.178 1069.21,-146.309 1266.01,-109.587 1319.62,-135.561 1518.21,-110.309 1603.69,-99.4393 1701.51,-81.4076 1764.02,-69.1646"/>
<polygon fill="red" stroke="red" stroke-width="0.307948" points="1764.99,-72.5415 1774.13,-67.176 1763.64,-65.6733 1764.99,-72.5415"/>
</g>
<!-- enemyRadar[RightFront1.5]&#45;&gt;Move right -->
<g id="edge62" class="edge"><title>enemyRadar[RightFront1.5]&#45;&gt;Move right</title>
<path fill="none" stroke="red" stroke-width="0.128299" d="M1026.93,-158.433C1039.61,-154.56 1055.15,-149.979 1069.21,-146.309 1194.86,-113.514 1344.55,-81.6793 1420.22,-66.0887"/>
<polygon fill="red" stroke="red" stroke-width="0.128299" points="1421.3,-69.4391 1430.39,-63.9982 1419.89,-62.5823 1421.3,-69.4391"/>
</g>
<!-- enemyRadar[RightFront1.5]&#45;&gt;Turn Left -->
<g id="edge56" class="edge"><title>enemyRadar[RightFront1.5]&#45;&gt;Turn Left</title>
<path fill="none" stroke="red" stroke-width="0.854031" d="M978.859,-158.406C928.516,-140.129 805.545,-95.4843 739.996,-71.6867"/>
<polygon fill="red" stroke="red" stroke-width="0.854031" points="740.967,-68.3157 730.373,-68.193 738.578,-74.8955 740.967,-68.3157"/>
</g>
<!-- enemyRadar[LeftFront1.5] -->
<g id="node20" class="node"><title>enemyRadar[LeftFront1.5]</title>
<polygon fill="lightgray" stroke="black" points="1773.21,-176.522 1661.21,-176.522 1661.21,-158.522 1773.21,-158.522 1773.21,-176.522"/>
<text text-anchor="middle" x="1717.21" y="-165.322" font-family="Times,serif" font-size="9.00">enemyRadar[LeftFront1.5]</text>
</g>
<!-- enemyRadar[LeftFront1.5]&#45;&gt; Move Backward -->
<g id="edge13" class="edge"><title>enemyRadar[LeftFront1.5]&#45;&gt; Move Backward</title>
<path fill="none" stroke="green" stroke-width="0.29792" d="M1725.56,-158.226C1737.65,-146.201 1760.95,-123.038 1782.29,-101.813"/>
<polygon fill="green" stroke="green" stroke-width="0.29792" points="1784.81,-104.241 1789.44,-94.7083 1779.88,-99.2772 1784.81,-104.241"/>
</g>
<!-- enemyRadar[LeftFront1.5]&#45;&gt;Move right -->
<g id="edge16" class="edge"><title>enemyRadar[LeftFront1.5]&#45;&gt;Move right</title>
<path fill="none" stroke="red" stroke-width="0.45359" stroke-dasharray="1,5" d="M1698.98,-158.406C1660.38,-141.23 1569.46,-100.766 1514.26,-76.2032"/>
<polygon fill="red" stroke="red" stroke-width="0.45359" points="1515.62,-72.9756 1505.06,-72.1074 1512.77,-79.3709 1515.62,-72.9756"/>
</g>
<!-- OnTarget -->
<g id="node21" class="node"><title>OnTarget</title>
<polygon fill="lightgray" stroke="black" points="1299.21,-176.522 1249.21,-176.522 1249.21,-158.522 1299.21,-158.522 1299.21,-176.522"/>
<text text-anchor="middle" x="1274.21" y="-165.322" font-family="Times,serif" font-size="9.00">OnTarget</text>
</g>
<!-- OnTarget&#45;&gt;Shoot -->
<g id="edge20" class="edge"><title>OnTarget&#45;&gt;Shoot</title>
<path fill="none" stroke="green" stroke-width="0.524774" d="M1284.91,-158.357C1291.31,-153.951 1299.81,-148.898 1308.21,-146.309 1556.73,-69.7156 1636.86,-159.485 1892.21,-110.309 1938.37,-101.419 1989.51,-83.1063 2022.21,-70.2467"/>
<polygon fill="green" stroke="green" stroke-width="0.524774" points="2023.74,-73.4017 2031.74,-66.4474 2021.15,-66.8993 2023.74,-73.4017"/>
</g>
<!-- OnTarget&#45;&gt;Move Forward -->
<g id="edge25" class="edge"><title>OnTarget&#45;&gt;Move Forward</title>
<path fill="none" stroke="red" stroke-width="0.615802" d="M1250.5,-158.519C1236.59,-154.167 1218.59,-149.113 1202.21,-146.309 961.197,-105.039 885.186,-187.644 653.213,-110.309 640.978,-106.23 628.791,-99.8961 617.674,-92.9782"/>
<polygon fill="red" stroke="red" stroke-width="0.615802" points="619.297,-89.8587 609.007,-87.3368 615.479,-95.7254 619.297,-89.8587"/>
</g>
<!-- OnTarget&#45;&gt;Move Left -->
<g id="edge30" class="edge"><title>OnTarget&#45;&gt;Move Left</title>
<path fill="none" stroke="red" stroke-width="0.344341" d="M1258.99,-158.406C1227.83,-141.792 1155.8,-103.389 1109.43,-78.6639"/>
<polygon fill="red" stroke="red" stroke-width="0.344341" points="1110.99,-75.5281 1100.52,-73.9117 1107.7,-81.705 1110.99,-75.5281"/>
</g>
<!-- OnTarget&#45;&gt;Move right -->
<g id="edge74" class="edge"><title>OnTarget&#45;&gt;Move right</title>
<path fill="none" stroke="green" stroke-width="0.20234" d="M1287.73,-158.376C1293.95,-154.658 1301.43,-150.222 1308.21,-146.309 1347.9,-123.403 1393.51,-97.9454 1426.03,-79.9406"/>
<polygon fill="green" stroke="green" stroke-width="0.20234" points="1427.78,-82.9713 1434.83,-75.0682 1424.39,-76.846 1427.78,-82.9713"/>
</g>
<!-- OnTarget&#45;&gt;Turn Left -->
<g id="edge35" class="edge"><title>OnTarget&#45;&gt;Turn Left</title>
<path fill="none" stroke="red" stroke-width="0.77697" d="M1249.04,-158.809C1235.29,-154.758 1217.91,-149.903 1202.21,-146.309 1114.21,-126.15 848.843,-81.3735 742.252,-63.6175"/>
<polygon fill="red" stroke="red" stroke-width="0.77697" points="742.583,-60.1246 732.144,-61.9355 741.434,-67.0296 742.583,-60.1246"/>
</g>
<!-- OnTarget&#45;&gt;Turn Right -->
<g id="edge1" class="edge"><title>OnTarget&#45;&gt;Turn Right</title>
<path fill="none" stroke="red" stroke-width="0.438165" d="M1284.6,-158.511C1291.03,-154.039 1299.66,-148.867 1308.21,-146.309 1479.13,-95.1894 1934.64,-141.957 2110.21,-110.309 2152.62,-102.664 2199.13,-87.0781 2232.44,-74.5816"/>
<polygon fill="red" stroke="red" stroke-width="0.438165" points="2233.8,-77.8091 2241.9,-70.9819 2231.31,-71.2667 2233.8,-77.8091"/>
</g>
<!-- bias -->
<g id="node22" class="node"><title>bias</title>
<polygon fill="lightgray" stroke="black" points="585.713,-176.522 554.713,-176.522 554.713,-158.522 585.713,-158.522 585.713,-176.522"/>
<text text-anchor="middle" x="570.213" y="-165.322" font-family="Times,serif" font-size="9.00">bias</text>
</g>
<!-- bias&#45;&gt;Move Forward -->
<g id="edge5" class="edge"><title>bias&#45;&gt;Move Forward</title>
<path fill="none" stroke="green" stroke-width="0.638202" d="M570.213,-158.226C570.213,-148.844 570.213,-132.682 570.213,-115.951"/>
<polygon fill="green" stroke="green" stroke-width="0.638202" points="573.713,-115.515 570.213,-105.515 566.713,-115.515 573.713,-115.515"/>
</g>
<!-- bias&#45;&gt;Move right -->
<g id="edge15" class="edge"><title>bias&#45;&gt;Move right</title>
<path fill="none" stroke="green" stroke-width="0.516246" d="M585.737,-160.407C598.327,-155.726 616.64,-149.54 633.213,-146.309 843.626,-105.277 901.206,-134.491 1114.21,-110.309 1223.96,-97.8499 1351.82,-76.7008 1420.16,-64.8553"/>
<polygon fill="green" stroke="green" stroke-width="0.516246" points="1420.96,-68.27 1430.21,-63.107 1419.76,-61.3736 1420.96,-68.27"/>
</g>
<!-- Shoot&#45;&gt;Shoot -->
<g id="edge68" class="edge"><title>Shoot&#45;&gt;Shoot</title>
<path fill="none" stroke="green" stroke-width="0.204788" stroke-dasharray="1,5" d="M2075.58,-74.3035C2088.51,-79.6936 2101.08,-73.3106 2101.08,-55.1543 2101.08,-41.8208 2094.3,-34.8367 2085.58,-34.2019"/>
<polygon fill="green" stroke="green" stroke-width="0.204788" points="2084.8,-30.7852 2075.58,-36.0052 2086.05,-37.674 2084.8,-30.7852"/>
</g>
<!-- Turn Right&#45;&gt;Turn Right -->
<g id="edge69" class="edge"><title>Turn Right&#45;&gt;Turn Right</title>
<path fill="none" stroke="red" stroke-width="0.329147" d="M2311.94,-76.0723C2324.97,-77.002 2335.81,-70.0293 2335.81,-55.1543 2335.81,-44.3467 2330.09,-37.7107 2321.96,-35.2463"/>
<polygon fill="red" stroke="red" stroke-width="0.329147" points="2322.24,-31.7564 2311.94,-34.2364 2321.53,-38.7211 2322.24,-31.7564"/>
</g>
<!-- 371&#45;&gt;Move right -->
<g id="edge76" class="edge"><title>371&#45;&gt;Move right</title>
<path fill="none" stroke="green" stroke-width="0.215083" d="M1509.9,-147.8C1504.19,-134.947 1496.37,-117.318 1489.1,-100.953"/>
<polygon fill="green" stroke="green" stroke-width="0.215083" points="1492.17,-99.2288 1484.91,-91.5093 1485.77,-102.069 1492.17,-99.2288"/>
</g>
<!-- 504&#45;&gt;Move Forward -->
<g id="edge78" class="edge"><title>504&#45;&gt;Move Forward</title>
<path fill="none" stroke="green" stroke-width="0.574625" d="M38.4315,-154.979C43.9195,-151.745 50.1461,-148.514 56.2132,-146.309 213.696,-89.0587 411.918,-67.4742 509.811,-59.9031"/>
<polygon fill="green" stroke="green" stroke-width="0.574625" points="510.111,-63.3905 519.821,-59.151 509.587,-56.4102 510.111,-63.3905"/>
</g>
<!-- 762&#45;&gt;Turn Right -->
<g id="edge81" class="edge"><title>762&#45;&gt;Turn Right</title>
<path fill="none" stroke="red" stroke-width="0.395317" d="M2631.87,-155.307C2626.37,-152.086 2620.18,-148.78 2614.21,-146.309 2515.97,-105.589 2393.92,-78.2333 2327.28,-65.122"/>
<polygon fill="red" stroke="red" stroke-width="0.395317" points="2327.56,-61.6106 2317.08,-63.1401 2326.23,-68.4822 2327.56,-61.6106"/>
</g>
</g>
</svg>
