<?xml version="1.0" encoding="UTF-8" standalone="no"?>
<!DOCTYPE svg PUBLIC "-//W3C//DTD SVG 1.1//EN"
 "http://www.w3.org/Graphics/SVG/1.1/DTD/svg11.dtd">
<!-- Generated by graphviz version 2.38.0 (20140413.2041)
 -->
<!-- Title: %3 Pages: 1 -->
<svg width="2917pt" height="302pt"
 viewBox="0.00 0.00 2917.29 301.65" xmlns="http://www.w3.org/2000/svg" xmlns:xlink="http://www.w3.org/1999/xlink">
<g id="graph0" class="graph" transform="scale(1 1) rotate(0) translate(4 297.647)">
<title>%3</title>
<polygon fill="white" stroke="none" points="-4,4 -4,-297.647 2913.29,-297.647 2913.29,4 -4,4"/>
<!-- wallRadar[1,0] -->
<g id="node1" class="node"><title>wallRadar[1,0]</title>
<polygon fill="lightgray" stroke="black" points="652.372,-293.647 582.372,-293.647 582.372,-275.647 652.372,-275.647 652.372,-293.647"/>
<text text-anchor="middle" x="617.372" y="-282.447" font-family="Times,serif" font-size="9.00">wallRadar[1,0]</text>
</g>
<!-- Shoot -->
<g id="node24" class="node"><title>Shoot</title>
<ellipse fill="lightblue" stroke="black" cx="499.372" cy="-77.0746" rx="26.7407" ry="26.7407"/>
<text text-anchor="middle" x="499.372" y="-74.8746" font-family="Times,serif" font-size="9.00">Shoot</text>
</g>
<!-- wallRadar[1,0]&#45;&gt;Shoot -->
<g id="edge5" class="edge"><title>wallRadar[1,0]&#45;&gt;Shoot</title>
<path fill="none" stroke="green" stroke-width="0.168839" stroke-dasharray="1,5" d="M581.999,-281.989C525.006,-278.495 416.852,-268.187 393.372,-239.647 354.408,-192.284 425.149,-130.171 468.781,-98.5277"/>
<polygon fill="green" stroke="green" stroke-width="0.168839" points="470.977,-101.261 477.106,-92.6186 466.925,-95.5529 470.977,-101.261"/>
</g>
<!-- Move Forward/Backward -->
<g id="node25" class="node"><title>Move Forward/Backward</title>
<ellipse fill="lightblue" stroke="black" cx="2003.37" cy="-77.0746" rx="77.1494" ry="77.1494"/>
<text text-anchor="middle" x="2003.37" y="-74.8746" font-family="Times,serif" font-size="9.00">Move Forward/Backward</text>
</g>
<!-- wallRadar[1,0]&#45;&gt;Move Forward/Backward -->
<g id="edge11" class="edge"><title>wallRadar[1,0]&#45;&gt;Move Forward/Backward</title>
<path fill="none" stroke="green" stroke-width="0.747424" d="M652.429,-282.777C848.503,-277.864 1801.45,-253.318 1828.37,-239.647 1853.34,-226.965 1847.79,-210.169 1867.37,-190.149 1887.76,-169.308 1911.82,-148.453 1933.98,-130.482"/>
<polygon fill="green" stroke="green" stroke-width="0.747424" points="1936.45,-132.989 1942.05,-123.997 1932.07,-127.532 1936.45,-132.989"/>
</g>
<!--  Move Left/Right -->
<g id="node26" class="node"><title> Move Left/Right</title>
<ellipse fill="lightblue" stroke="black" cx="1119.37" cy="-77.0746" rx="55.3091" ry="55.3091"/>
<text text-anchor="middle" x="1119.37" y="-74.8746" font-family="Times,serif" font-size="9.00"> Move Left/Right</text>
</g>
<!-- wallRadar[1,0]&#45;&gt; Move Left/Right -->
<g id="edge26" class="edge"><title>wallRadar[1,0]&#45;&gt; Move Left/Right</title>
<path fill="none" stroke="green" stroke-width="0.882808" d="M652.696,-280.459C688.245,-275.909 743.514,-265.069 784.372,-239.647 809.115,-224.252 803.504,-206.867 827.372,-190.149 898.192,-140.546 993.882,-109.29 1056.1,-92.747"/>
<polygon fill="green" stroke="green" stroke-width="0.882808" points="1057,-96.1299 1065.79,-90.2178 1055.23,-89.3568 1057,-96.1299"/>
</g>
<!-- 1506 -->
<g id="node28" class="node"><title>1506</title>
<ellipse fill="white" stroke="black" cx="427.372" cy="-214.898" rx="25" ry="25"/>
<text text-anchor="middle" x="427.372" y="-212.698" font-family="Times,serif" font-size="9.00">1506</text>
</g>
<!-- wallRadar[1,0]&#45;&gt;1506 -->
<g id="edge51" class="edge"><title>wallRadar[1,0]&#45;&gt;1506</title>
<path fill="none" stroke="red" stroke-width="0.307835" d="M582.275,-276.195C551.069,-268.925 504.599,-256.501 466.372,-239.647 462.981,-238.152 459.528,-236.411 456.149,-234.563"/>
<polygon fill="red" stroke="red" stroke-width="0.307835" points="457.873,-231.518 447.468,-229.521 454.357,-237.571 457.873,-231.518"/>
</g>
<!-- wallRadar[0,1] -->
<g id="node2" class="node"><title>wallRadar[0,1]</title>
<polygon fill="lightgray" stroke="black" points="1434.37,-223.898 1364.37,-223.898 1364.37,-205.898 1434.37,-205.898 1434.37,-223.898"/>
<text text-anchor="middle" x="1399.37" y="-212.698" font-family="Times,serif" font-size="9.00">wallRadar[0,1]</text>
</g>
<!-- wallRadar[0,1]&#45;&gt;Move Forward/Backward -->
<g id="edge16" class="edge"><title>wallRadar[0,1]&#45;&gt;Move Forward/Backward</title>
<path fill="none" stroke="red" stroke-width="0.55055" stroke-dasharray="1,5" d="M1412.3,-205.789C1421.06,-200.626 1433.05,-194.175 1444.37,-190.149 1605.8,-132.733 1804.49,-101.722 1916.26,-87.6586"/>
<polygon fill="red" stroke="red" stroke-width="0.55055" points="1916.97,-91.0965 1926.47,-86.3907 1916.11,-84.1499 1916.97,-91.0965"/>
</g>
<!-- wallRadar[0,1]&#45;&gt; Move Left/Right -->
<g id="edge46" class="edge"><title>wallRadar[0,1]&#45;&gt; Move Left/Right</title>
<path fill="none" stroke="green" stroke-width="0.212317" stroke-dasharray="1,5" d="M1384.81,-205.791C1376.28,-201.11 1365.28,-195.173 1355.37,-190.149 1295.82,-159.965 1226.74,-127.441 1178.76,-105.246"/>
<polygon fill="green" stroke="green" stroke-width="0.212317" points="1180.01,-101.965 1169.46,-100.949 1177.07,-108.32 1180.01,-101.965"/>
</g>
<!-- wallRadar[&#45;1,0] -->
<g id="node3" class="node"><title>wallRadar[&#45;1,0]</title>
<polygon fill="lightgray" stroke="black" points="1345.87,-223.898 1272.87,-223.898 1272.87,-205.898 1345.87,-205.898 1345.87,-223.898"/>
<text text-anchor="middle" x="1309.37" y="-212.698" font-family="Times,serif" font-size="9.00">wallRadar[&#45;1,0]</text>
</g>
<!-- wallRadar[&#45;1,0]&#45;&gt;Shoot -->
<g id="edge34" class="edge"><title>wallRadar[&#45;1,0]&#45;&gt;Shoot</title>
<path fill="none" stroke="green" stroke-width="0.638127" d="M1283.84,-205.801C1267.3,-200.773 1245.22,-194.469 1225.37,-190.149 963.67,-133.179 642.771,-94.2572 535.912,-82.1107"/>
<polygon fill="green" stroke="green" stroke-width="0.638127" points="536.289,-78.6311 525.959,-80.9867 535.503,-85.5869 536.289,-78.6311"/>
</g>
<!-- wallRadar[&#45;1,0]&#45;&gt;Move Forward/Backward -->
<g id="edge41" class="edge"><title>wallRadar[&#45;1,0]&#45;&gt;Move Forward/Backward</title>
<path fill="none" stroke="green" stroke-width="1.24611" stroke-dasharray="1,5" d="M1322.58,-205.7C1331.53,-200.499 1343.78,-194.04 1355.37,-190.149 1549.66,-124.916 1790.1,-96.0602 1916.43,-84.6405"/>
<polygon fill="green" stroke="green" stroke-width="1.24611" points="1916.79,-88.1226 1926.44,-83.7507 1916.17,-81.15 1916.79,-88.1226"/>
</g>
<!-- wallRadar[&#45;1,0]&#45;&gt; Move Left/Right -->
<g id="edge8" class="edge"><title>wallRadar[&#45;1,0]&#45;&gt; Move Left/Right</title>
<path fill="none" stroke="green" stroke-width="0.330381" d="M1298.06,-205.808C1273.81,-188.479 1215.54,-146.824 1172.1,-115.764"/>
<polygon fill="green" stroke="green" stroke-width="0.330381" points="1174.06,-112.869 1163.89,-109.9 1169.99,-118.563 1174.06,-112.869"/>
</g>
<!-- Turn left/right -->
<g id="node27" class="node"><title>Turn left/right</title>
<ellipse fill="lightblue" stroke="black" cx="2527.37" cy="-77.0746" rx="46.8387" ry="46.8387"/>
<text text-anchor="middle" x="2527.37" y="-74.8746" font-family="Times,serif" font-size="9.00">Turn left/right</text>
</g>
<!-- wallRadar[&#45;1,0]&#45;&gt;Turn left/right -->
<g id="edge33" class="edge"><title>wallRadar[&#45;1,0]&#45;&gt;Turn left/right</title>
<path fill="none" stroke="green" stroke-width="0.163946" d="M1321.66,-205.702C1330.6,-200.214 1343.22,-193.418 1355.37,-190.149 1513.07,-147.725 1927.06,-172.156 2089.37,-154.149 2228,-138.77 2389.17,-107.195 2471.98,-89.9532"/>
<polygon fill="green" stroke="green" stroke-width="0.163946" points="2472.85,-93.3463 2481.92,-87.8728 2471.42,-86.4946 2472.85,-93.3463"/>
</g>
<!-- wallRadar[0,&#45;1] -->
<g id="node4" class="node"><title>wallRadar[0,&#45;1]</title>
<polygon fill="lightgray" stroke="black" points="1071.87,-223.898 998.872,-223.898 998.872,-205.898 1071.87,-205.898 1071.87,-223.898"/>
<text text-anchor="middle" x="1035.37" y="-212.698" font-family="Times,serif" font-size="9.00">wallRadar[0,&#45;1]</text>
</g>
<!-- wallRadar[0,&#45;1]&#45;&gt;Shoot -->
<g id="edge1" class="edge"><title>wallRadar[0,&#45;1]&#45;&gt;Shoot</title>
<path fill="none" stroke="green" stroke-width="0.468948" d="M1022.4,-205.888C1013.63,-200.767 1001.64,-194.325 990.372,-190.149 826.252,-129.308 618.564,-95.0868 535.807,-83.0573"/>
<polygon fill="green" stroke="green" stroke-width="0.468948" points="536.283,-79.5898 525.887,-81.6353 535.289,-86.519 536.283,-79.5898"/>
</g>
<!-- wallRadar[0,&#45;1]&#45;&gt;Move Forward/Backward -->
<g id="edge35" class="edge"><title>wallRadar[0,&#45;1]&#45;&gt;Move Forward/Backward</title>
<path fill="none" stroke="red" stroke-width="0.639881" d="M1072.11,-206.145C1096.27,-201.195 1128.62,-194.847 1157.37,-190.149 1433.59,-145.011 1762.83,-105.461 1916.43,-87.8319"/>
<polygon fill="red" stroke="red" stroke-width="0.639881" points="1917.2,-91.2667 1926.73,-86.6516 1916.4,-84.3122 1917.2,-91.2667"/>
</g>
<!-- wallRadar[0,&#45;1]&#45;&gt; Move Left/Right -->
<g id="edge30" class="edge"><title>wallRadar[0,&#45;1]&#45;&gt; Move Left/Right</title>
<path fill="none" stroke="green" stroke-width="0.23595" d="M1040.38,-205.808C1049.17,-191.585 1068.1,-160.977 1085.23,-133.288"/>
<polygon fill="green" stroke="green" stroke-width="0.23595" points="1088.42,-134.772 1090.71,-124.426 1082.47,-131.09 1088.42,-134.772"/>
</g>
<!-- wallRadar[0.7,0.7] -->
<g id="node5" class="node"><title>wallRadar[0.7,0.7]</title>
<polygon fill="lightgray" stroke="black" points="1821.87,-293.647 1738.87,-293.647 1738.87,-275.647 1821.87,-275.647 1821.87,-293.647"/>
<text text-anchor="middle" x="1780.37" y="-282.447" font-family="Times,serif" font-size="9.00">wallRadar[0.7,0.7]</text>
</g>
<!-- wallRadar[0.7,0.7]&#45;&gt;Move Forward/Backward -->
<g id="edge12" class="edge"><title>wallRadar[0.7,0.7]&#45;&gt;Move Forward/Backward</title>
<path fill="none" stroke="red" stroke-width="1.8755" d="M1822.19,-282.333C1922.75,-278.744 2171.63,-267.146 2196.37,-239.647 2242.88,-187.963 2157.03,-138.112 2085.37,-107.78"/>
<polygon fill="red" stroke="red" stroke-width="1.8755" points="2086.4,-104.416 2075.82,-103.814 2083.72,-110.881 2086.4,-104.416"/>
</g>
<!-- wallRadar[0.7,0.7]&#45;&gt; Move Left/Right -->
<g id="edge9" class="edge"><title>wallRadar[0.7,0.7]&#45;&gt; Move Left/Right</title>
<path fill="none" stroke="green" stroke-width="1.27865" d="M1738.76,-281.996C1623.48,-277.156 1305.73,-261.932 1264.37,-239.647 1239.72,-226.361 1243.68,-211.344 1225.37,-190.149 1206.2,-167.954 1184.03,-144.24 1164.94,-124.367"/>
<polygon fill="green" stroke="green" stroke-width="1.27865" points="1167.25,-121.718 1157.79,-116.95 1162.21,-126.578 1167.25,-121.718"/>
</g>
<!-- wallRadar[0.7,0.7]&#45;&gt;Turn left/right -->
<g id="edge19" class="edge"><title>wallRadar[0.7,0.7]&#45;&gt;Turn left/right</title>
<path fill="none" stroke="green" stroke-width="0.474289" d="M1821.91,-282.806C1977.26,-279.463 2516.51,-265.993 2541.37,-239.647 2568.49,-210.918 2561.68,-165.145 2549.98,-129.642"/>
<polygon fill="green" stroke="green" stroke-width="0.474289" points="2553.18,-128.204 2546.58,-119.923 2546.58,-130.518 2553.18,-128.204"/>
</g>
<!-- 2812 -->
<g id="node34" class="node"><title>2812</title>
<ellipse fill="white" stroke="black" cx="1191.37" cy="-214.898" rx="25" ry="25"/>
<text text-anchor="middle" x="1191.37" y="-212.698" font-family="Times,serif" font-size="9.00">2812</text>
</g>
<!-- wallRadar[0.7,0.7]&#45;&gt;2812 -->
<g id="edge61" class="edge"><title>wallRadar[0.7,0.7]&#45;&gt;2812</title>
<path fill="none" stroke="green" stroke-width="0.106522" d="M1738.81,-282.807C1627.54,-280.164 1324.91,-270.286 1230.37,-239.647 1226.85,-238.504 1223.31,-236.987 1219.88,-235.27"/>
<polygon fill="green" stroke="green" stroke-width="0.106522" points="1221.58,-232.209 1211.14,-230.379 1218.16,-238.317 1221.58,-232.209"/>
</g>
<!-- wallRadar[&#45;0.7,0.7] -->
<g id="node6" class="node"><title>wallRadar[&#45;0.7,0.7]</title>
<polygon fill="lightgray" stroke="black" points="105.372,-223.898 19.3724,-223.898 19.3724,-205.898 105.372,-205.898 105.372,-223.898"/>
<text text-anchor="middle" x="62.3724" y="-212.698" font-family="Times,serif" font-size="9.00">wallRadar[&#45;0.7,0.7]</text>
</g>
<!-- wallRadar[&#45;0.7,0.7]&#45;&gt;Shoot -->
<g id="edge32" class="edge"><title>wallRadar[&#45;0.7,0.7]&#45;&gt;Shoot</title>
<path fill="none" stroke="green" stroke-width="0.356044" d="M78.5108,-205.793C88.6511,-200.885 102.093,-194.713 114.372,-190.149 240.059,-143.436 394.56,-103.571 463.366,-86.6937"/>
<polygon fill="green" stroke="green" stroke-width="0.356044" points="464.384,-90.0482 473.27,-84.2784 462.725,-83.2476 464.384,-90.0482"/>
</g>
<!-- wallRadar[&#45;0.7,&#45;0.7] -->
<g id="node7" class="node"><title>wallRadar[&#45;0.7,&#45;0.7]</title>
<polygon fill="lightgray" stroke="black" points="1678.87,-223.898 1589.87,-223.898 1589.87,-205.898 1678.87,-205.898 1678.87,-223.898"/>
<text text-anchor="middle" x="1634.37" y="-212.698" font-family="Times,serif" font-size="9.00">wallRadar[&#45;0.7,&#45;0.7]</text>
</g>
<!-- wallRadar[&#45;0.7,&#45;0.7]&#45;&gt;Move Forward/Backward -->
<g id="edge17" class="edge"><title>wallRadar[&#45;0.7,&#45;0.7]&#45;&gt;Move Forward/Backward</title>
<path fill="none" stroke="green" stroke-width="0.551109" stroke-dasharray="1,5" d="M1651.75,-205.874C1662.27,-201.111 1676,-195.064 1688.37,-190.149 1766.37,-159.171 1856.74,-127.437 1920.62,-105.681"/>
<polygon fill="green" stroke="green" stroke-width="0.551109" points="1921.91,-108.942 1930.25,-102.411 1919.65,-102.314 1921.91,-108.942"/>
</g>
<!-- wallRadar[&#45;0.7,&#45;0.7]&#45;&gt; Move Left/Right -->
<g id="edge31" class="edge"><title>wallRadar[&#45;0.7,&#45;0.7]&#45;&gt; Move Left/Right</title>
<path fill="none" stroke="green" stroke-width="0.325938" stroke-dasharray="1,5" d="M1618.44,-205.838C1608.08,-200.825 1594.16,-194.523 1581.37,-190.149 1442.64,-142.688 1273.97,-107.126 1183.72,-89.8049"/>
<polygon fill="green" stroke="green" stroke-width="0.325938" points="1184.12,-86.3182 1173.64,-87.8839 1182.81,-93.1944 1184.12,-86.3182"/>
</g>
<!-- wallRadar[0.7,&#45;0.7] -->
<g id="node8" class="node"><title>wallRadar[0.7,&#45;0.7]</title>
<polygon fill="lightgray" stroke="black" points="2499.37,-223.898 2413.37,-223.898 2413.37,-205.898 2499.37,-205.898 2499.37,-223.898"/>
<text text-anchor="middle" x="2456.37" y="-212.698" font-family="Times,serif" font-size="9.00">wallRadar[0.7,&#45;0.7]</text>
</g>
<!-- wallRadar[0.7,&#45;0.7]&#45;&gt;Shoot -->
<g id="edge10" class="edge"><title>wallRadar[0.7,&#45;0.7]&#45;&gt;Shoot</title>
<path fill="none" stroke="green" stroke-width="0.315652" d="M2431.86,-205.788C2413.94,-200.266 2388.93,-193.39 2366.37,-190.149 1789.41,-107.24 1636.31,-201.728 1055.37,-154.149 858.49,-138.025 624.7,-99.7206 535.969,-84.4853"/>
<polygon fill="green" stroke="green" stroke-width="0.315652" points="536.329,-80.9958 525.88,-82.7447 535.139,-87.8939 536.329,-80.9958"/>
</g>
<!-- wallRadar[0.7,&#45;0.7]&#45;&gt;Move Forward/Backward -->
<g id="edge48" class="edge"><title>wallRadar[0.7,&#45;0.7]&#45;&gt;Move Forward/Backward</title>
<path fill="none" stroke="green" stroke-width="0.473552" d="M2438.61,-205.857C2427.47,-200.974 2412.74,-194.806 2399.37,-190.149 2293.74,-153.343 2169.21,-119.64 2088.4,-99.0096"/>
<polygon fill="green" stroke="green" stroke-width="0.473552" points="2088.83,-95.5076 2078.27,-96.435 2087.1,-102.292 2088.83,-95.5076"/>
</g>
<!-- wallRadar[0.7,&#45;0.7]&#45;&gt;Turn left/right -->
<g id="edge47" class="edge"><title>wallRadar[0.7,&#45;0.7]&#45;&gt;Turn left/right</title>
<path fill="none" stroke="green" stroke-width="0.15936" d="M2460.6,-205.808C2468.52,-190.658 2486.16,-156.915 2501.32,-127.914"/>
<polygon fill="green" stroke="green" stroke-width="0.15936" points="2504.61,-129.178 2506.14,-118.694 2498.4,-125.935 2504.61,-129.178"/>
</g>
<!-- enemyRadar[RightBack] -->
<g id="node9" class="node"><title>enemyRadar[RightBack]</title>
<polygon fill="lightgray" stroke="black" points="2765.37,-223.898 2661.37,-223.898 2661.37,-205.898 2765.37,-205.898 2765.37,-223.898"/>
<text text-anchor="middle" x="2713.37" y="-212.698" font-family="Times,serif" font-size="9.00">enemyRadar[RightBack]</text>
</g>
<!-- enemyRadar[RightBack]&#45;&gt;Turn left/right -->
<g id="edge18" class="edge"><title>enemyRadar[RightBack]&#45;&gt;Turn left/right</title>
<path fill="none" stroke="green" stroke-width="0.130443" stroke-dasharray="1,5" d="M2702.29,-205.808C2677.44,-187.658 2616.04,-142.824 2573.05,-111.427"/>
<polygon fill="green" stroke="green" stroke-width="0.130443" points="2574.85,-108.409 2564.71,-105.339 2570.72,-114.062 2574.85,-108.409"/>
</g>
<!-- enemyRadar[LeftBack] -->
<g id="node10" class="node"><title>enemyRadar[LeftBack]</title>
<polygon fill="lightgray" stroke="black" points="1974.87,-223.898 1875.87,-223.898 1875.87,-205.898 1974.87,-205.898 1974.87,-223.898"/>
<text text-anchor="middle" x="1925.37" y="-212.698" font-family="Times,serif" font-size="9.00">enemyRadar[LeftBack]</text>
</g>
<!-- enemyRadar[LeftBack]&#45;&gt;Shoot -->
<g id="edge4" class="edge"><title>enemyRadar[LeftBack]&#45;&gt;Shoot</title>
<path fill="none" stroke="red" stroke-width="0.601989" d="M1898.47,-205.824C1879.15,-200.394 1852.4,-193.616 1828.37,-190.149 1487.97,-141.025 1397.87,-185.492 1055.37,-154.149 858.653,-136.147 624.767,-98.9395 535.991,-84.2416"/>
<polygon fill="red" stroke="red" stroke-width="0.601989" points="536.334,-80.7508 525.896,-82.5635 535.186,-87.656 536.334,-80.7508"/>
</g>
<!-- enemyRadar[LeftBack]&#45;&gt;Move Forward/Backward -->
<g id="edge3" class="edge"><title>enemyRadar[LeftBack]&#45;&gt;Move Forward/Backward</title>
<path fill="none" stroke="green" stroke-width="0.17282" stroke-dasharray="1,5" d="M1930.02,-205.808C1936.24,-194.966 1947.94,-174.603 1960.19,-153.27"/>
<polygon fill="green" stroke="green" stroke-width="0.17282" points="1963.33,-154.834 1965.27,-144.42 1957.26,-151.348 1963.33,-154.834"/>
</g>
<!-- enemyRadar[LeftBack]&#45;&gt;Turn left/right -->
<g id="edge25" class="edge"><title>enemyRadar[LeftBack]&#45;&gt;Turn left/right</title>
<path fill="none" stroke="green" stroke-width="0.438942" d="M1957.66,-205.806C1976.51,-201.13 2000.76,-195.192 2022.37,-190.149 2185.28,-152.135 2378.47,-110.106 2471.64,-90.0298"/>
<polygon fill="green" stroke="green" stroke-width="0.438942" points="2472.65,-93.3927 2481.69,-87.8659 2471.17,-86.5496 2472.65,-93.3927"/>
</g>
<!-- enemyRadar[Right45ø] -->
<g id="node11" class="node"><title>enemyRadar[Right45ø]</title>
<polygon fill="lightgray" stroke="black" points="1150.37,-293.647 1050.37,-293.647 1050.37,-275.647 1150.37,-275.647 1150.37,-293.647"/>
<text text-anchor="middle" x="1100.37" y="-282.447" font-family="Times,serif" font-size="9.00">enemyRadar[Right45ø]</text>
</g>
<!-- enemyRadar[Right45ø]&#45;&gt;Shoot -->
<g id="edge7" class="edge"><title>enemyRadar[Right45ø]&#45;&gt;Shoot</title>
<path fill="none" stroke="red" stroke-width="0.786831" stroke-dasharray="1,5" d="M1050.29,-283.698C913.604,-283.325 541.788,-278.697 504.372,-239.647 472.428,-206.306 479.479,-149.082 488.597,-112.446"/>
<polygon fill="red" stroke="red" stroke-width="0.786831" points="492.002,-113.26 491.192,-102.696 485.238,-111.459 492.002,-113.26"/>
</g>
<!-- enemyRadar[Right45ø]&#45;&gt;Move Forward/Backward -->
<g id="edge22" class="edge"><title>enemyRadar[Right45ø]&#45;&gt;Move Forward/Backward</title>
<path fill="none" stroke="green" stroke-width="0.586853" stroke-dasharray="1,5" d="M1150.42,-282.024C1335.17,-275.924 1969.03,-253.985 1984.37,-239.647 2004.95,-220.407 2012.38,-191.63 2013.78,-163.669"/>
<polygon fill="green" stroke="green" stroke-width="0.586853" points="2017.28,-163.508 2014.04,-153.424 2010.29,-163.333 2017.28,-163.508"/>
</g>
<!-- enemyRadar[Right45ø]&#45;&gt; Move Left/Right -->
<g id="edge24" class="edge"><title>enemyRadar[Right45ø]&#45;&gt; Move Left/Right</title>
<path fill="none" stroke="green" stroke-width="0.238404" d="M1101.12,-275.588C1103.14,-253.688 1108.89,-191.45 1113.41,-142.63"/>
<polygon fill="green" stroke="green" stroke-width="0.238404" points="1116.91,-142.715 1114.35,-132.435 1109.94,-142.071 1116.91,-142.715"/>
</g>
<!-- enemyRadar[Right45ø]&#45;&gt;Turn left/right -->
<g id="edge39" class="edge"><title>enemyRadar[Right45ø]&#45;&gt;Turn left/right</title>
<path fill="none" stroke="red" stroke-width="0.84912" d="M1150.78,-282.182C1401.8,-274.871 2505.18,-242.578 2508.37,-239.647 2536.88,-213.489 2540.32,-169.065 2537.36,-133.412"/>
<polygon fill="red" stroke="red" stroke-width="0.84912" points="2540.8,-132.73 2536.31,-123.136 2533.84,-133.439 2540.8,-132.73"/>
</g>
<!-- enemyRadar[Right45ø]&#45;&gt;1506 -->
<g id="edge55" class="edge"><title>enemyRadar[Right45ø]&#45;&gt;1506</title>
<path fill="none" stroke="red" stroke-width="0.211899" d="M1050.13,-283.217C920.039,-281.619 574.796,-274.154 466.372,-239.647 462.841,-238.523 459.299,-237.017 455.867,-235.307"/>
<polygon fill="red" stroke="red" stroke-width="0.211899" points="457.564,-232.246 447.127,-230.424 454.15,-238.357 457.564,-232.246"/>
</g>
<!-- 3178 -->
<g id="node29" class="node"><title>3178</title>
<ellipse fill="white" stroke="black" cx="2056.37" cy="-214.898" rx="25" ry="25"/>
<text text-anchor="middle" x="2056.37" y="-212.698" font-family="Times,serif" font-size="9.00">3178</text>
</g>
<!-- enemyRadar[Right45ø]&#45;&gt;3178 -->
<g id="edge66" class="edge"><title>enemyRadar[Right45ø]&#45;&gt;3178</title>
<path fill="none" stroke="green" stroke-width="0.118012" d="M1150.64,-281.923C1336.42,-275.465 1975.73,-252.413 2017.37,-239.647 2020.92,-238.561 2024.47,-237.079 2027.9,-235.383"/>
<polygon fill="green" stroke="green" stroke-width="0.118012" points="2029.61,-238.437 2036.65,-230.516 2026.21,-232.321 2029.61,-238.437"/>
</g>
<!-- 2303 -->
<g id="node35" class="node"><title>2303</title>
<ellipse fill="white" stroke="black" cx="321.372" cy="-214.898" rx="25" ry="25"/>
<text text-anchor="middle" x="321.372" y="-212.698" font-family="Times,serif" font-size="9.00">2303</text>
</g>
<!-- enemyRadar[Right45ø]&#45;&gt;2303 -->
<g id="edge63" class="edge"><title>enemyRadar[Right45ø]&#45;&gt;2303</title>
<path fill="none" stroke="red" stroke-width="0.512206" d="M1050.14,-282.193C910.47,-277.887 519.49,-263.951 393.372,-239.647 380.145,-237.098 365.986,-232.791 353.755,-228.54"/>
<polygon fill="red" stroke="red" stroke-width="0.512206" points="354.591,-225.121 343.997,-225.021 352.217,-231.706 354.591,-225.121"/>
</g>
<!-- enemyRadar[Left45ø] -->
<g id="node12" class="node"><title>enemyRadar[Left45ø]</title>
<polygon fill="lightgray" stroke="black" points="931.872,-223.898 836.872,-223.898 836.872,-205.898 931.872,-205.898 931.872,-223.898"/>
<text text-anchor="middle" x="884.372" y="-212.698" font-family="Times,serif" font-size="9.00">enemyRadar[Left45ø]</text>
</g>
<!-- enemyRadar[Left45ø]&#45;&gt;Shoot -->
<g id="edge13" class="edge"><title>enemyRadar[Left45ø]&#45;&gt;Shoot</title>
<path fill="none" stroke="green" stroke-width="0.654137" d="M861.442,-205.808C796.605,-182.935 611.645,-117.683 534.173,-90.3518"/>
<polygon fill="green" stroke="green" stroke-width="0.654137" points="535.003,-86.9334 524.408,-86.907 532.674,-93.5346 535.003,-86.9334"/>
</g>
<!-- enemyRadar[Left45ø]&#45;&gt;Move Forward/Backward -->
<g id="edge49" class="edge"><title>enemyRadar[Left45ø]&#45;&gt;Move Forward/Backward</title>
<path fill="none" stroke="red" stroke-width="0.613579" d="M900.403,-205.745C911.594,-200.424 927.038,-193.809 941.372,-190.149 1034.91,-166.27 1679.21,-107.061 1916.17,-85.8168"/>
<polygon fill="red" stroke="red" stroke-width="0.613579" points="1916.82,-89.273 1926.47,-84.8947 1916.19,-82.3009 1916.82,-89.273"/>
</g>
<!-- enemyRadar[RightFront20ø] -->
<g id="node13" class="node"><title>enemyRadar[RightFront20ø]</title>
<polygon fill="lightgray" stroke="black" points="703.872,-223.898 584.872,-223.898 584.872,-205.898 703.872,-205.898 703.872,-223.898"/>
<text text-anchor="middle" x="644.372" y="-212.698" font-family="Times,serif" font-size="9.00">enemyRadar[RightFront20ø]</text>
</g>
<!-- enemyRadar[RightFront20ø]&#45;&gt;Shoot -->
<g id="edge50" class="edge"><title>enemyRadar[RightFront20ø]&#45;&gt;Shoot</title>
<path fill="none" stroke="green" stroke-width="0.776345" d="M635.736,-205.808C614.57,-185.982 559.412,-134.314 526.091,-103.102"/>
<polygon fill="green" stroke="green" stroke-width="0.776345" points="528.218,-100.299 518.527,-96.0168 523.432,-105.408 528.218,-100.299"/>
</g>
<!-- enemyRadar[RightFront20ø]&#45;&gt; Move Left/Right -->
<g id="edge43" class="edge"><title>enemyRadar[RightFront20ø]&#45;&gt; Move Left/Right</title>
<path fill="none" stroke="red" stroke-width="0.27888" d="M668.63,-205.857C683.041,-201.143 701.701,-195.152 718.372,-190.149 837.387,-154.434 977.374,-116.15 1056.51,-94.8509"/>
<polygon fill="red" stroke="red" stroke-width="0.27888" points="1057.57,-98.189 1066.32,-92.2127 1055.75,-91.4291 1057.57,-98.189"/>
</g>
<!-- enemyRadar[LeftFront20ø] -->
<g id="node14" class="node"><title>enemyRadar[LeftFront20ø]</title>
<polygon fill="lightgray" stroke="black" points="2357.37,-223.898 2243.37,-223.898 2243.37,-205.898 2357.37,-205.898 2357.37,-223.898"/>
<text text-anchor="middle" x="2300.37" y="-212.698" font-family="Times,serif" font-size="9.00">enemyRadar[LeftFront20ø]</text>
</g>
<!-- enemyRadar[LeftFront20ø]&#45;&gt;Move Forward/Backward -->
<g id="edge23" class="edge"><title>enemyRadar[LeftFront20ø]&#45;&gt;Move Forward/Backward</title>
<path fill="none" stroke="red" stroke-width="0.729982" d="M2282.68,-205.808C2244.22,-188.218 2150.95,-145.564 2082.74,-114.369"/>
<polygon fill="red" stroke="red" stroke-width="0.729982" points="2083.83,-111.023 2073.28,-110.047 2080.92,-117.389 2083.83,-111.023"/>
</g>
<!-- enemyRadar[RightFront15ø] -->
<g id="node15" class="node"><title>enemyRadar[RightFront15ø]</title>
<polygon fill="lightgray" stroke="black" points="1571.87,-223.898 1452.87,-223.898 1452.87,-205.898 1571.87,-205.898 1571.87,-223.898"/>
<text text-anchor="middle" x="1512.37" y="-212.698" font-family="Times,serif" font-size="9.00">enemyRadar[RightFront15ø]</text>
</g>
<!-- enemyRadar[RightFront15ø]&#45;&gt;Shoot -->
<g id="edge28" class="edge"><title>enemyRadar[RightFront15ø]&#45;&gt;Shoot</title>
<path fill="none" stroke="red" stroke-width="0.401229" d="M1493.1,-205.872C1479.45,-200.538 1460.59,-193.855 1443.37,-190.149 1274.06,-153.708 1227.43,-173.893 1055.37,-154.149 859.119,-131.629 624.961,-97.0604 536.051,-83.6554"/>
<polygon fill="red" stroke="red" stroke-width="0.401229" points="536.351,-80.1611 525.941,-82.1278 535.305,-87.0825 536.351,-80.1611"/>
</g>
<!-- enemyRadar[RightFront15ø]&#45;&gt;Turn left/right -->
<g id="edge42" class="edge"><title>enemyRadar[RightFront15ø]&#45;&gt;Turn left/right</title>
<path fill="none" stroke="red" stroke-width="0.479714" d="M1531.33,-205.871C1544.99,-200.463 1563.99,-193.692 1581.37,-190.149 1803.15,-144.934 1864.69,-181.551 2089.37,-154.149 2227.82,-137.264 2389.06,-106.309 2471.93,-89.5625"/>
<polygon fill="red" stroke="red" stroke-width="0.479714" points="2472.78,-92.9618 2481.88,-87.5432 2471.39,-86.1016 2472.78,-92.9618"/>
</g>
<!-- enemyRadar[LeftFront15ø] -->
<g id="node16" class="node"><title>enemyRadar[LeftFront15ø]</title>
<polygon fill="lightgray" stroke="black" points="419.372,-293.647 305.372,-293.647 305.372,-275.647 419.372,-275.647 419.372,-293.647"/>
<text text-anchor="middle" x="362.372" y="-282.447" font-family="Times,serif" font-size="9.00">enemyRadar[LeftFront15ø]</text>
</g>
<!-- enemyRadar[LeftFront15ø]&#45;&gt;Shoot -->
<g id="edge44" class="edge"><title>enemyRadar[LeftFront15ø]&#45;&gt;Shoot</title>
<path fill="none" stroke="red" stroke-width="1.13364" d="M335.484,-275.597C318.408,-268.933 297.651,-257.594 287.372,-239.647 276.439,-220.557 276.02,-208.992 287.372,-190.149 325.583,-126.728 413.022,-97.3353 462.847,-85.3001"/>
<polygon fill="red" stroke="red" stroke-width="1.13364" points="463.918,-88.6451 472.877,-82.9894 462.347,-81.8238 463.918,-88.6451"/>
</g>
<!-- enemyRadar[LeftFront15ø]&#45;&gt; Move Left/Right -->
<g id="edge37" class="edge"><title>enemyRadar[LeftFront15ø]&#45;&gt; Move Left/Right</title>
<path fill="none" stroke="green" stroke-width="0.434676" d="M419.497,-282.505C512.523,-279.76 691.844,-270.511 746.372,-239.647 770.508,-225.985 761.791,-206.251 784.372,-190.149 867.065,-131.183 982.959,-101.607 1054.49,-88.0714"/>
<polygon fill="green" stroke="green" stroke-width="0.434676" points="1055.52,-91.4421 1064.72,-86.1892 1054.25,-84.5578 1055.52,-91.4421"/>
</g>
<!-- 3057 -->
<g id="node30" class="node"><title>3057</title>
<ellipse fill="white" stroke="black" cx="215.372" cy="-214.898" rx="25" ry="25"/>
<text text-anchor="middle" x="215.372" y="-212.698" font-family="Times,serif" font-size="9.00">3057</text>
</g>
<!-- enemyRadar[LeftFront15ø]&#45;&gt;3057 -->
<g id="edge64" class="edge"><title>enemyRadar[LeftFront15ø]&#45;&gt;3057</title>
<path fill="none" stroke="green" stroke-width="0.714287" stroke-dasharray="1,5" d="M339.567,-275.57C317.382,-267.432 282.937,-254.046 254.372,-239.647 251.063,-237.979 247.662,-236.128 244.313,-234.216"/>
<polygon fill="green" stroke="green" stroke-width="0.714287" points="246.056,-231.181 235.667,-229.1 242.491,-237.205 246.056,-231.181"/>
</g>
<!-- enemyRadar[RightFront7.5ø] -->
<g id="node17" class="node"><title>enemyRadar[RightFront7.5ø]</title>
<polygon fill="lightgray" stroke="black" points="1819.37,-223.898 1697.37,-223.898 1697.37,-205.898 1819.37,-205.898 1819.37,-223.898"/>
<text text-anchor="middle" x="1758.37" y="-212.698" font-family="Times,serif" font-size="9.00">enemyRadar[RightFront7.5ø]</text>
</g>
<!-- enemyRadar[RightFront7.5ø]&#45;&gt;Move Forward/Backward -->
<g id="edge21" class="edge"><title>enemyRadar[RightFront7.5ø]&#45;&gt;Move Forward/Backward</title>
<path fill="none" stroke="red" stroke-width="0.552374" stroke-dasharray="1,5" d="M1772.96,-205.808C1802.73,-189.308 1872.27,-150.757 1927.22,-120.294"/>
<polygon fill="red" stroke="red" stroke-width="0.552374" points="1929.2,-123.197 1936.25,-115.287 1925.8,-117.075 1929.2,-123.197"/>
</g>
<!-- enemyRadar[RightFront7.5ø]&#45;&gt; Move Left/Right -->
<g id="edge36" class="edge"><title>enemyRadar[RightFront7.5ø]&#45;&gt; Move Left/Right</title>
<path fill="none" stroke="red" stroke-width="0.284078" d="M1737.15,-205.879C1723.39,-200.882 1704.99,-194.583 1688.37,-190.149 1507.91,-141.99 1290.19,-104.774 1183.98,-87.9319"/>
<polygon fill="red" stroke="red" stroke-width="0.284078" points="1184.48,-84.4673 1174.06,-86.3659 1183.39,-91.3818 1184.48,-84.4673"/>
</g>
<!-- enemyRadar[LeftFront7.5ø] -->
<g id="node18" class="node"><title>enemyRadar[LeftFront7.5ø]</title>
<polygon fill="lightgray" stroke="black" points="2559.37,-293.647 2443.37,-293.647 2443.37,-275.647 2559.37,-275.647 2559.37,-293.647"/>
<text text-anchor="middle" x="2501.37" y="-282.447" font-family="Times,serif" font-size="9.00">enemyRadar[LeftFront7.5ø]</text>
</g>
<!-- enemyRadar[LeftFront7.5ø]&#45;&gt;Shoot -->
<g id="edge38" class="edge"><title>enemyRadar[LeftFront7.5ø]&#45;&gt;Shoot</title>
<path fill="none" stroke="green" stroke-width="0.444593" d="M2443.34,-282.734C2124.09,-277.663 595.455,-252.717 575.372,-239.647 552.716,-224.9 525.654,-155.249 510.706,-112.353"/>
<polygon fill="green" stroke="green" stroke-width="0.444593" points="514.002,-111.173 507.441,-102.854 507.382,-113.448 514.002,-111.173"/>
</g>
<!-- enemyRadar[LeftFront7.5ø]&#45;&gt;Move Forward/Backward -->
<g id="edge40" class="edge"><title>enemyRadar[LeftFront7.5ø]&#45;&gt;Move Forward/Backward</title>
<path fill="none" stroke="green" stroke-width="0.637051" stroke-dasharray="1,5" d="M2474.75,-275.554C2454.09,-268.383 2425.52,-256.432 2404.37,-239.647 2382.65,-222.404 2389.14,-205.986 2366.37,-190.149 2282.81,-132.028 2168.09,-103.253 2090.13,-89.564"/>
<polygon fill="green" stroke="green" stroke-width="0.637051" points="2090.31,-86.0433 2079.86,-87.8101 2089.13,-92.9434 2090.31,-86.0433"/>
</g>
<!-- enemyRadar[LeftFront7.5ø]&#45;&gt;Turn left/right -->
<g id="edge6" class="edge"><title>enemyRadar[LeftFront7.5ø]&#45;&gt;Turn left/right</title>
<path fill="none" stroke="red" stroke-width="0.111702" stroke-dasharray="1,5" d="M2559.47,-276.682C2562.48,-276.33 2565.46,-275.983 2568.37,-275.647 2639.9,-267.378 2842.37,-293.313 2890.37,-239.647 2982.63,-136.501 2707.38,-95.7938 2583.96,-83.0071"/>
<polygon fill="red" stroke="red" stroke-width="0.111702" points="2584.22,-79.5159 2573.92,-81.9941 2583.52,-86.4806 2584.22,-79.5159"/>
</g>
<!-- 2226 -->
<g id="node31" class="node"><title>2226</title>
<ellipse fill="white" stroke="black" cx="2618.37" cy="-214.898" rx="25" ry="25"/>
<text text-anchor="middle" x="2618.37" y="-212.698" font-family="Times,serif" font-size="9.00">2226</text>
</g>
<!-- enemyRadar[LeftFront7.5ø]&#45;&gt;2226 -->
<g id="edge56" class="edge"><title>enemyRadar[LeftFront7.5ø]&#45;&gt;2226</title>
<path fill="none" stroke="green" stroke-width="0.21785" d="M2516.12,-275.52C2531.87,-266.798 2557.51,-252.465 2579.37,-239.647 2582.4,-237.869 2585.56,-235.994 2588.7,-234.11"/>
<polygon fill="green" stroke="green" stroke-width="0.21785" points="2590.65,-237.016 2597.4,-228.845 2587.03,-231.026 2590.65,-237.016"/>
</g>
<!-- enemyRadar[RightFront2.5ø] -->
<g id="node19" class="node"><title>enemyRadar[RightFront2.5ø]</title>
<polygon fill="lightgray" stroke="black" points="287.372,-293.647 165.372,-293.647 165.372,-275.647 287.372,-275.647 287.372,-293.647"/>
<text text-anchor="middle" x="226.372" y="-282.447" font-family="Times,serif" font-size="9.00">enemyRadar[RightFront2.5ø]</text>
</g>
<!-- enemyRadar[RightFront2.5ø]&#45;&gt;Shoot -->
<g id="edge2" class="edge"><title>enemyRadar[RightFront2.5ø]&#45;&gt;Shoot</title>
<path fill="none" stroke="red" stroke-width="0.641551" d="M165.13,-279.632C108.282,-274.476 29.6195,-263.21 10.3724,-239.647 -3.54432,-222.609 -3.3359,-207.355 10.3724,-190.149 67.2383,-118.776 358.663,-89.1544 462.539,-80.7553"/>
<polygon fill="red" stroke="red" stroke-width="0.641551" points="462.867,-84.2404 472.56,-79.9642 462.316,-77.2621 462.867,-84.2404"/>
</g>
<!-- enemyRadar[RightFront2.5ø]&#45;&gt; Move Left/Right -->
<g id="edge29" class="edge"><title>enemyRadar[RightFront2.5ø]&#45;&gt; Move Left/Right</title>
<path fill="none" stroke="green" stroke-width="1.23568" d="M287.445,-276.567C290.463,-276.249 293.451,-275.94 296.372,-275.647 388.698,-266.378 632.201,-286.364 712.372,-239.647 735.432,-226.21 724.813,-205.882 746.372,-190.149 839.681,-122.06 974.554,-94.9368 1053.97,-84.426"/>
<polygon fill="green" stroke="green" stroke-width="1.23568" points="1054.84,-87.8431 1064.32,-83.1085 1053.96,-80.8991 1054.84,-87.8431"/>
</g>
<!-- enemyRadar[RightFront2.5ø]&#45;&gt;2303 -->
<g id="edge58" class="edge"><title>enemyRadar[RightFront2.5ø]&#45;&gt;2303</title>
<path fill="none" stroke="red" stroke-width="0.118834" d="M237.643,-275.609C251.282,-265.882 274.733,-249.159 293.353,-235.88"/>
<polygon fill="red" stroke="red" stroke-width="0.118834" points="295.406,-238.715 301.515,-230.059 291.341,-233.016 295.406,-238.715"/>
</g>
<!-- enemyRadar[LeftFront2.5ø] -->
<g id="node20" class="node"><title>enemyRadar[LeftFront2.5ø]</title>
<polygon fill="lightgray" stroke="black" points="1502.37,-293.647 1386.37,-293.647 1386.37,-275.647 1502.37,-275.647 1502.37,-293.647"/>
<text text-anchor="middle" x="1444.37" y="-282.447" font-family="Times,serif" font-size="9.00">enemyRadar[LeftFront2.5ø]</text>
</g>
<!-- enemyRadar[LeftFront2.5ø]&#45;&gt;Shoot -->
<g id="edge45" class="edge"><title>enemyRadar[LeftFront2.5ø]&#45;&gt;Shoot</title>
<path fill="none" stroke="green" stroke-width="0.245255" d="M1386.05,-281.723C1188.93,-275.103 558.825,-252.943 542.372,-239.647 505.331,-209.71 498.107,-151.778 497.696,-114.033"/>
<polygon fill="green" stroke="green" stroke-width="0.245255" points="501.196,-113.978 497.741,-103.962 494.196,-113.946 501.196,-113.978"/>
</g>
<!-- enemyRadar[LeftFront2.5ø]&#45;&gt;Move Forward/Backward -->
<g id="edge14" class="edge"><title>enemyRadar[LeftFront2.5ø]&#45;&gt;Move Forward/Backward</title>
<path fill="none" stroke="red" stroke-width="0.439593" stroke-dasharray="1,5" d="M1502.44,-281.82C1657.42,-276.665 2070.44,-260.979 2090.37,-239.647 2118.16,-209.904 2096.54,-169.608 2067.91,-136.699"/>
<polygon fill="red" stroke="red" stroke-width="0.439593" points="2070.21,-134.019 2060.92,-128.935 2065.01,-138.706 2070.21,-134.019"/>
</g>
<!-- enemyRadar[LeftFront2.5ø]&#45;&gt; Move Left/Right -->
<g id="edge20" class="edge"><title>enemyRadar[LeftFront2.5ø]&#45;&gt; Move Left/Right</title>
<path fill="none" stroke="green" stroke-width="0.509299" d="M1386.09,-282.21C1311.99,-279.151 1189.77,-269.582 1157.37,-239.647 1130.9,-215.188 1121.23,-176.067 1118.25,-142.446"/>
<polygon fill="green" stroke="green" stroke-width="0.509299" points="1121.73,-141.941 1117.54,-132.211 1114.74,-142.431 1121.73,-141.941"/>
</g>
<!-- 1587 -->
<g id="node32" class="node"><title>1587</title>
<ellipse fill="white" stroke="black" cx="2162.37" cy="-214.898" rx="25" ry="25"/>
<text text-anchor="middle" x="2162.37" y="-212.698" font-family="Times,serif" font-size="9.00">1587</text>
</g>
<!-- enemyRadar[LeftFront2.5ø]&#45;&gt;1587 -->
<g id="edge53" class="edge"><title>enemyRadar[LeftFront2.5ø]&#45;&gt;1587</title>
<path fill="none" stroke="red" stroke-width="0.360907" d="M1502.51,-281.473C1656.12,-275.503 2065.01,-258.075 2123.37,-239.647 2126.91,-238.531 2130.45,-237.031 2133.88,-235.323"/>
<polygon fill="red" stroke="red" stroke-width="0.360907" points="2135.6,-238.374 2142.62,-230.444 2132.19,-232.262 2135.6,-238.374"/>
</g>
<!-- enemyRadar[Front7Ø] -->
<g id="node21" class="node"><title>enemyRadar[Front7Ø]</title>
<polygon fill="lightgray" stroke="black" points="2881.37,-223.898 2783.37,-223.898 2783.37,-205.898 2881.37,-205.898 2881.37,-223.898"/>
<text text-anchor="middle" x="2832.37" y="-212.698" font-family="Times,serif" font-size="9.00">enemyRadar[Front7Ø]</text>
</g>
<!-- enemyRadar[Front7Ø]&#45;&gt;Turn left/right -->
<g id="edge27" class="edge"><title>enemyRadar[Front7Ø]&#45;&gt;Turn left/right</title>
<path fill="none" stroke="red" stroke-width="0.180671" d="M2814.21,-205.808C2768.77,-185.572 2648.84,-132.168 2579.29,-101.196"/>
<polygon fill="red" stroke="red" stroke-width="0.180671" points="2580.39,-97.8512 2569.83,-96.9804 2577.54,-104.246 2580.39,-97.8512"/>
</g>
<!-- OnTarget -->
<g id="node22" class="node"><title>OnTarget</title>
<polygon fill="lightgray" stroke="black" points="2627.37,-293.647 2577.37,-293.647 2577.37,-275.647 2627.37,-275.647 2627.37,-293.647"/>
<text text-anchor="middle" x="2602.37" y="-282.447" font-family="Times,serif" font-size="9.00">OnTarget</text>
</g>
<!-- bias -->
<g id="node23" class="node"><title>bias</title>
<polygon fill="lightgray" stroke="black" points="980.872,-223.898 949.872,-223.898 949.872,-205.898 980.872,-205.898 980.872,-223.898"/>
<text text-anchor="middle" x="965.372" y="-212.698" font-family="Times,serif" font-size="9.00">bias</text>
</g>
<!-- bias&#45;&gt; Move Left/Right -->
<g id="edge15" class="edge"><title>bias&#45;&gt; Move Left/Right</title>
<path fill="none" stroke="red" stroke-width="0.889534" d="M973.619,-205.888C978.451,-201.239 984.701,-195.302 990.372,-190.149 1016.33,-166.567 1045.82,-140.867 1070.04,-120.034"/>
<polygon fill="red" stroke="red" stroke-width="0.889534" points="1072.41,-122.619 1077.71,-113.449 1067.85,-117.308 1072.41,-122.619"/>
</g>
<!-- 1506&#45;&gt;Shoot -->
<g id="edge52" class="edge"><title>1506&#45;&gt;Shoot</title>
<path fill="none" stroke="red" stroke-width="0.449422" stroke-dasharray="1,5" d="M438.622,-192.676C450.317,-170.614 468.766,-135.812 482.267,-110.344"/>
<polygon fill="red" stroke="red" stroke-width="0.449422" points="485.404,-111.898 486.995,-101.424 479.219,-108.62 485.404,-111.898"/>
</g>
<!-- 3178&#45;&gt;Move Forward/Backward -->
<g id="edge67" class="edge"><title>3178&#45;&gt;Move Forward/Backward</title>
<path fill="none" stroke="green" stroke-width="0.480438" d="M2047.62,-191.47C2044,-182.195 2039.56,-170.825 2034.91,-158.905"/>
<polygon fill="green" stroke="green" stroke-width="0.480438" points="2038.04,-157.299 2031.15,-149.256 2031.52,-159.844 2038.04,-157.299"/>
</g>
<!-- 3057&#45;&gt;Shoot -->
<g id="edge65" class="edge"><title>3057&#45;&gt;Shoot</title>
<path fill="none" stroke="red" stroke-width="0.506768" d="M236.159,-200.618C241.973,-197.075 248.351,-193.346 254.372,-190.149 327.81,-151.167 417.385,-112.286 465.281,-92.1594"/>
<polygon fill="red" stroke="red" stroke-width="0.506768" points="466.695,-95.3622 474.568,-88.2729 463.992,-88.9048 466.695,-95.3622"/>
</g>
<!-- 2226&#45;&gt;Move Forward/Backward -->
<g id="edge57" class="edge"><title>2226&#45;&gt;Move Forward/Backward</title>
<path fill="none" stroke="green" stroke-width="0.7173" d="M2594.26,-208.574C2510.77,-190.133 2231.27,-128.405 2088.65,-96.9082"/>
<polygon fill="green" stroke="green" stroke-width="0.7173" points="2089.14,-93.4326 2078.62,-94.6937 2087.63,-100.268 2089.14,-93.4326"/>
</g>
<!-- 1587&#45;&gt;Move Forward/Backward -->
<g id="edge54" class="edge"><title>1587&#45;&gt;Move Forward/Backward</title>
<path fill="none" stroke="red" stroke-width="0.255864" stroke-dasharray="1,5" d="M2143.82,-198.052C2125.55,-182.447 2096.56,-157.678 2069.64,-134.686"/>
<polygon fill="red" stroke="red" stroke-width="0.255864" points="2071.62,-131.774 2061.75,-127.94 2067.08,-137.096 2071.62,-131.774"/>
</g>
<!-- 2519 -->
<g id="node33" class="node"><title>2519</title>
<ellipse fill="white" stroke="black" cx="148.372" cy="-214.898" rx="25" ry="25"/>
<text text-anchor="middle" x="148.372" y="-212.698" font-family="Times,serif" font-size="9.00">2519</text>
</g>
<!-- 2519&#45;&gt;Shoot -->
<g id="edge60" class="edge"><title>2519&#45;&gt;Shoot</title>
<path fill="none" stroke="red" stroke-width="0.717085" d="M167.322,-198.869C171.777,-195.735 176.617,-192.633 181.372,-190.149 278.243,-139.555 402.954,-103.148 463.375,-87.1441"/>
<polygon fill="red" stroke="red" stroke-width="0.717085" points="464.41,-90.4911 473.198,-84.5727 462.638,-83.7193 464.41,-90.4911"/>
</g>
<!-- 2812&#45;&gt; Move Left/Right -->
<g id="edge62" class="edge"><title>2812&#45;&gt; Move Left/Right</title>
<path fill="none" stroke="green" stroke-width="1.86679" d="M1180.12,-192.676C1171.92,-177.207 1160.4,-155.476 1149.6,-135.089"/>
<polygon fill="green" stroke="green" stroke-width="1.86679" points="1152.63,-133.348 1144.86,-126.152 1146.45,-136.627 1152.63,-133.348"/>
</g>
<!-- 2303&#45;&gt;Shoot -->
<g id="edge59" class="edge"><title>2303&#45;&gt;Shoot</title>
<path fill="none" stroke="red" stroke-width="0.499136" d="M340.76,-199.104C371.959,-175.298 433.497,-128.341 470.073,-100.431"/>
<polygon fill="red" stroke="red" stroke-width="0.499136" points="472.533,-102.957 478.36,-94.1081 468.287,-97.3918 472.533,-102.957"/>
</g>
</g>
</svg>
