<?xml version="1.0" encoding="UTF-8" standalone="no"?>
<!DOCTYPE svg PUBLIC "-//W3C//DTD SVG 1.1//EN"
 "http://www.w3.org/Graphics/SVG/1.1/DTD/svg11.dtd">
<!-- Generated by graphviz version 2.38.0 (20140413.2041)
 -->
<!-- Title: %3 Pages: 1 -->
<svg width="2448pt" height="329pt"
 viewBox="0.00 0.00 2448.02 329.16" xmlns="http://www.w3.org/2000/svg" xmlns:xlink="http://www.w3.org/1999/xlink">
<g id="graph0" class="graph" transform="scale(1 1) rotate(0) translate(4 325.161)">
<title>%3</title>
<polygon fill="white" stroke="none" points="-4,4 -4,-325.161 2444.02,-325.161 2444.02,4 -4,4"/>
<!-- wallRadar[1,0] -->
<g id="node1" class="node"><title>wallRadar[1,0]</title>
<polygon fill="lightgray" stroke="black" points="168.213,-176.522 98.2132,-176.522 98.2132,-158.522 168.213,-158.522 168.213,-176.522"/>
<text text-anchor="middle" x="133.213" y="-165.322" font-family="Times,serif" font-size="9.00">wallRadar[1,0]</text>
</g>
<!-- Move Left -->
<g id="node26" class="node"><title>Move Left</title>
<ellipse fill="lightblue" stroke="black" cx="551.213" cy="-55.1543" rx="38.3684" ry="38.3684"/>
<text text-anchor="middle" x="551.213" y="-52.9543" font-family="Times,serif" font-size="9.00">Move Left</text>
</g>
<!-- wallRadar[1,0]&#45;&gt;Move Left -->
<g id="edge69" class="edge"><title>wallRadar[1,0]&#45;&gt;Move Left</title>
<path fill="none" stroke="red" stroke-width="0.644492" d="M151.119,-158.37C160.293,-154.39 171.715,-149.734 182.213,-146.309 295.597,-109.308 432.943,-79.5911 503.805,-65.3335"/>
<polygon fill="red" stroke="red" stroke-width="0.644492" points="504.647,-68.7346 513.767,-63.343 503.275,-61.8703 504.647,-68.7346"/>
</g>
<!-- Turn Left -->
<g id="node28" class="node"><title>Turn Left</title>
<ellipse fill="lightblue" stroke="black" cx="950.213" cy="-55.1543" rx="35.2113" ry="35.2113"/>
<text text-anchor="middle" x="950.213" y="-52.9543" font-family="Times,serif" font-size="9.00">Turn Left</text>
</g>
<!-- wallRadar[1,0]&#45;&gt;Turn Left -->
<g id="edge9" class="edge"><title>wallRadar[1,0]&#45;&gt;Turn Left</title>
<path fill="none" stroke="red" stroke-width="0.474281" stroke-dasharray="1,5" d="M149.13,-158.505C158.518,-154.148 170.768,-149.095 182.213,-146.309 362.527,-102.415 413.956,-132.43 598.213,-110.309 708.93,-97.0162 838.351,-75.575 905.171,-64.0639"/>
<polygon fill="red" stroke="red" stroke-width="0.474281" points="906.088,-67.4574 915.346,-62.3045 904.896,-60.5597 906.088,-67.4574"/>
</g>
<!-- wallRadar[0,1] -->
<g id="node2" class="node"><title>wallRadar[0,1]</title>
<polygon fill="lightgray" stroke="black" points="1926.21,-321.161 1856.21,-321.161 1856.21,-303.161 1926.21,-303.161 1926.21,-321.161"/>
<text text-anchor="middle" x="1891.21" y="-309.961" font-family="Times,serif" font-size="9.00">wallRadar[0,1]</text>
</g>
<!-- Shoot -->
<g id="node23" class="node"><title>Shoot</title>
<ellipse fill="lightblue" stroke="black" cx="1552.21" cy="-55.1543" rx="26.7407" ry="26.7407"/>
<text text-anchor="middle" x="1552.21" y="-52.9543" font-family="Times,serif" font-size="9.00">Shoot</text>
</g>
<!-- wallRadar[0,1]&#45;&gt;Shoot -->
<g id="edge7" class="edge"><title>wallRadar[0,1]&#45;&gt;Shoot</title>
<path fill="none" stroke="red" stroke-width="0.129298" d="M1925.23,-303.086C2005.63,-282.496 2195.81,-224.114 2129.21,-146.309 2128.66,-145.657 1715.76,-81.5338 1588.86,-61.841"/>
<polygon fill="red" stroke="red" stroke-width="0.129298" points="1589.28,-58.3629 1578.86,-60.2879 1588.2,-65.2801 1589.28,-58.3629"/>
</g>
<!--  Move Backward -->
<g id="node25" class="node"><title> Move Backward</title>
<ellipse fill="lightblue" stroke="black" cx="1433.21" cy="-55.1543" rx="55.3091" ry="55.3091"/>
<text text-anchor="middle" x="1433.21" y="-52.9543" font-family="Times,serif" font-size="9.00"> Move Backward</text>
</g>
<!-- wallRadar[0,1]&#45;&gt; Move Backward -->
<g id="edge54" class="edge"><title>wallRadar[0,1]&#45;&gt; Move Backward</title>
<path fill="none" stroke="green" stroke-width="0.501262" stroke-dasharray="1,5" d="M1856.03,-308.599C1782.98,-301.596 1612.85,-276.328 1506.21,-188.735 1483.43,-170.019 1466.59,-142.235 1454.87,-116.93"/>
<polygon fill="green" stroke="green" stroke-width="0.501262" points="1458.04,-115.453 1450.78,-107.741 1451.65,-118.3 1458.04,-115.453"/>
</g>
<!-- Move right -->
<g id="node27" class="node"><title>Move right</title>
<ellipse fill="lightblue" stroke="black" cx="1175.21" cy="-55.1543" rx="39.6962" ry="39.6962"/>
<text text-anchor="middle" x="1175.21" y="-52.9543" font-family="Times,serif" font-size="9.00">Move right</text>
</g>
<!-- wallRadar[0,1]&#45;&gt;Move right -->
<g id="edge70" class="edge"><title>wallRadar[0,1]&#45;&gt;Move right</title>
<path fill="none" stroke="green" stroke-width="0.391758" d="M1856.18,-310.352C1727.8,-306.613 1285.73,-286.714 1194.21,-188.735 1173.5,-166.563 1168.97,-132.552 1169.5,-104.529"/>
<polygon fill="green" stroke="green" stroke-width="0.391758" points="1173,-104.642 1169.91,-94.5092 1166,-104.36 1173,-104.642"/>
</g>
<!-- Turn Right -->
<g id="node29" class="node"><title>Turn Right</title>
<ellipse fill="lightblue" stroke="black" cx="1951.21" cy="-55.1543" rx="39.6962" ry="39.6962"/>
<text text-anchor="middle" x="1951.21" y="-52.9543" font-family="Times,serif" font-size="9.00">Turn Right</text>
</g>
<!-- wallRadar[0,1]&#45;&gt;Turn Right -->
<g id="edge32" class="edge"><title>wallRadar[0,1]&#45;&gt;Turn Right</title>
<path fill="none" stroke="green" stroke-width="0.175977" d="M1926.27,-304.715C1929.29,-304.181 1932.3,-303.656 1935.21,-303.161 2158.24,-265.206 2295.46,-369.715 2431.21,-188.735 2442.53,-173.651 2443.25,-160.821 2431.21,-146.309 2376.93,-80.8799 2113.16,-62.6366 2001.41,-57.8026"/>
<polygon fill="green" stroke="green" stroke-width="0.175977" points="2001.21,-54.2917 1991.08,-57.3755 2000.93,-61.2858 2001.21,-54.2917"/>
</g>
<!-- 236 -->
<g id="node31" class="node"><title>236</title>
<ellipse fill="white" stroke="black" cx="1891.21" cy="-245.948" rx="21.4286" ry="21.4286"/>
<text text-anchor="middle" x="1891.21" y="-243.748" font-family="Times,serif" font-size="9.00">236</text>
</g>
<!-- wallRadar[0,1]&#45;&gt;236 -->
<g id="edge76" class="edge"><title>wallRadar[0,1]&#45;&gt;236</title>
<path fill="none" stroke="green" stroke-width="0.304225" d="M1891.21,-303.029C1891.21,-296.486 1891.21,-286.857 1891.21,-277.417"/>
<polygon fill="green" stroke="green" stroke-width="0.304225" points="1894.71,-277.404 1891.21,-267.404 1887.71,-277.404 1894.71,-277.404"/>
</g>
<!-- wallRadar[&#45;1,0] -->
<g id="node3" class="node"><title>wallRadar[&#45;1,0]</title>
<polygon fill="lightgray" stroke="black" points="636.713,-176.522 563.713,-176.522 563.713,-158.522 636.713,-158.522 636.713,-176.522"/>
<text text-anchor="middle" x="600.213" y="-165.322" font-family="Times,serif" font-size="9.00">wallRadar[&#45;1,0]</text>
</g>
<!-- Move Forward -->
<g id="node24" class="node"><title>Move Forward</title>
<ellipse fill="lightblue" stroke="black" cx="1060.21" cy="-55.1543" rx="50.41" ry="50.41"/>
<text text-anchor="middle" x="1060.21" y="-52.9543" font-family="Times,serif" font-size="9.00">Move Forward</text>
</g>
<!-- wallRadar[&#45;1,0]&#45;&gt;Move Forward -->
<g id="edge60" class="edge"><title>wallRadar[&#45;1,0]&#45;&gt;Move Forward</title>
<path fill="none" stroke="green" stroke-width="0.607745" d="M615.532,-158.352C624.278,-154.059 635.587,-149.119 646.213,-146.309 796.537,-106.553 850.701,-170.158 994.213,-110.309 1002.08,-107.028 1009.74,-102.489 1016.89,-97.423"/>
<polygon fill="green" stroke="green" stroke-width="0.607745" points="1019.16,-100.094 1025.04,-91.2768 1014.95,-94.5066 1019.16,-100.094"/>
</g>
<!-- wallRadar[&#45;1,0]&#45;&gt; Move Backward -->
<g id="edge10" class="edge"><title>wallRadar[&#45;1,0]&#45;&gt; Move Backward</title>
<path fill="none" stroke="red" stroke-width="0.29913" d="M615.075,-158.39C623.863,-153.996 635.363,-148.942 646.213,-146.309 896.338,-85.5995 970.027,-150.774 1224.21,-110.309 1274.25,-102.344 1329.71,-87.6929 1370.92,-75.6368"/>
<polygon fill="red" stroke="red" stroke-width="0.29913" points="1371.95,-78.9826 1380.55,-72.7921 1369.96,-72.2696 1371.95,-78.9826"/>
</g>
<!-- wallRadar[&#45;1,0]&#45;&gt;Move Left -->
<g id="edge73" class="edge"><title>wallRadar[&#45;1,0]&#45;&gt;Move Left</title>
<path fill="none" stroke="green" stroke-width="0.319539" d="M596.53,-158.226C590.999,-145.769 580.162,-121.359 570.472,-99.5338"/>
<polygon fill="green" stroke="green" stroke-width="0.319539" points="573.665,-98.1002 566.409,-90.3807 567.268,-100.941 573.665,-98.1002"/>
</g>
<!-- wallRadar[&#45;1,0]&#45;&gt;Move right -->
<g id="edge31" class="edge"><title>wallRadar[&#45;1,0]&#45;&gt;Move right</title>
<path fill="none" stroke="green" stroke-width="0.10906" d="M615.089,-158.446C623.881,-154.07 635.381,-149.017 646.213,-146.309 748.481,-120.74 1023.06,-153.514 1119.21,-110.309 1128,-106.36 1136.23,-100.416 1143.54,-93.8922"/>
<polygon fill="green" stroke="green" stroke-width="0.10906" points="1146.29,-96.1012 1151.09,-86.6532 1141.45,-91.0493 1146.29,-96.1012"/>
</g>
<!-- wallRadar[0,&#45;1] -->
<g id="node4" class="node"><title>wallRadar[0,&#45;1]</title>
<polygon fill="lightgray" stroke="black" points="1588.71,-176.522 1515.71,-176.522 1515.71,-158.522 1588.71,-158.522 1588.71,-176.522"/>
<text text-anchor="middle" x="1552.21" y="-165.322" font-family="Times,serif" font-size="9.00">wallRadar[0,&#45;1]</text>
</g>
<!-- wallRadar[0,&#45;1]&#45;&gt;Shoot -->
<g id="edge38" class="edge"><title>wallRadar[0,&#45;1]&#45;&gt;Shoot</title>
<path fill="none" stroke="green" stroke-width="0.576184" d="M1552.21,-158.226C1552.21,-144.34 1552.21,-115.601 1552.21,-92.1464"/>
<polygon fill="green" stroke="green" stroke-width="0.576184" points="1555.71,-92.1461 1552.21,-82.1461 1548.71,-92.1462 1555.71,-92.1461"/>
</g>
<!-- wallRadar[0,&#45;1]&#45;&gt;Move Forward -->
<g id="edge36" class="edge"><title>wallRadar[0,&#45;1]&#45;&gt;Move Forward</title>
<path fill="none" stroke="red" stroke-width="0.637157" d="M1522.51,-158.47C1506.28,-154.32 1485.75,-149.478 1467.21,-146.309 1316.99,-120.627 1266.81,-169.115 1126.21,-110.309 1118.35,-107.02 1110.69,-102.477 1103.54,-97.4081"/>
<polygon fill="red" stroke="red" stroke-width="0.637157" points="1105.48,-94.4918 1095.39,-91.2605 1101.27,-100.079 1105.48,-94.4918"/>
</g>
<!-- wallRadar[0,&#45;1]&#45;&gt; Move Backward -->
<g id="edge15" class="edge"><title>wallRadar[0,&#45;1]&#45;&gt; Move Backward</title>
<path fill="none" stroke="green" stroke-width="0.110258" d="M1543.27,-158.226C1530,-145.922 1504.16,-121.959 1480.86,-100.342"/>
<polygon fill="green" stroke="green" stroke-width="0.110258" points="1483.11,-97.6575 1473.4,-93.4236 1478.35,-102.79 1483.11,-97.6575"/>
</g>
<!-- wallRadar[0,&#45;1]&#45;&gt;Move Left -->
<g id="edge28" class="edge"><title>wallRadar[0,&#45;1]&#45;&gt;Move Left</title>
<path fill="none" stroke="red" stroke-width="0.964447" d="M1523.73,-158.472C1507.33,-154.161 1486.26,-149.164 1467.21,-146.309 1220.13,-109.275 1154.61,-137.173 906.213,-110.309 795.522,-98.3373 666.511,-76.715 598.605,-64.7322"/>
<polygon fill="red" stroke="red" stroke-width="0.964447" points="599.099,-61.2652 588.641,-62.9656 597.877,-68.1577 599.099,-61.2652"/>
</g>
<!-- wallRadar[0,&#45;1]&#45;&gt;Turn Right -->
<g id="edge16" class="edge"><title>wallRadar[0,&#45;1]&#45;&gt;Turn Right</title>
<path fill="none" stroke="green" stroke-width="0.400945" d="M1568.6,-158.336C1577.02,-154.348 1587.51,-149.695 1597.21,-146.309 1703.72,-109.14 1833.12,-80.0989 1902.18,-65.8346"/>
<polygon fill="green" stroke="green" stroke-width="0.400945" points="1903.23,-69.1915 1912.33,-63.7556 1901.83,-62.3339 1903.23,-69.1915"/>
</g>
<!-- wallRadar[0.7,0.7] -->
<g id="node5" class="node"><title>wallRadar[0.7,0.7]</title>
<polygon fill="lightgray" stroke="black" points="307.713,-176.522 224.713,-176.522 224.713,-158.522 307.713,-158.522 307.713,-176.522"/>
<text text-anchor="middle" x="266.213" y="-165.322" font-family="Times,serif" font-size="9.00">wallRadar[0.7,0.7]</text>
</g>
<!-- wallRadar[0.7,0.7]&#45;&gt;Move Forward -->
<g id="edge72" class="edge"><title>wallRadar[0.7,0.7]&#45;&gt;Move Forward</title>
<path fill="none" stroke="green" stroke-width="0.115985" d="M282.439,-158.365C292.014,-153.961 304.514,-148.908 316.213,-146.309 463.501,-113.587 853.549,-164.881 994.213,-110.309 1002.16,-107.226 1009.86,-102.796 1017.04,-97.7797"/>
<polygon fill="green" stroke="green" stroke-width="0.115985" points="1019.29,-100.464 1025.2,-91.667 1015.09,-94.8623 1019.29,-100.464"/>
</g>
<!-- wallRadar[0.7,0.7]&#45;&gt;Move Left -->
<g id="edge43" class="edge"><title>wallRadar[0.7,0.7]&#45;&gt;Move Left</title>
<path fill="none" stroke="green" stroke-width="0.427862" d="M286.132,-158.375C295.281,-154.657 306.282,-150.221 316.213,-146.309 382.207,-120.313 458.989,-91.0384 506.348,-73.0938"/>
<polygon fill="green" stroke="green" stroke-width="0.427862" points="507.591,-76.3656 515.704,-69.5512 505.112,-69.8192 507.591,-76.3656"/>
</g>
<!-- wallRadar[0.7,0.7]&#45;&gt;Move right -->
<g id="edge20" class="edge"><title>wallRadar[0.7,0.7]&#45;&gt;Move right</title>
<path fill="none" stroke="red" stroke-width="0.378558" stroke-dasharray="1,5" d="M282.431,-158.328C292.003,-153.913 304.503,-148.86 316.213,-146.309 490.744,-108.289 955.161,-180.973 1119.21,-110.309 1128.06,-106.497 1136.32,-100.614 1143.64,-94.1069"/>
<polygon fill="red" stroke="red" stroke-width="0.378558" points="1146.39,-96.3169 1151.18,-86.8697 1141.54,-91.2641 1146.39,-96.3169"/>
</g>
<!-- wallRadar[&#45;0.7,0.7] -->
<g id="node6" class="node"><title>wallRadar[&#45;0.7,0.7]</title>
<polygon fill="lightgray" stroke="black" points="1109.21,-176.522 1023.21,-176.522 1023.21,-158.522 1109.21,-158.522 1109.21,-176.522"/>
<text text-anchor="middle" x="1066.21" y="-165.322" font-family="Times,serif" font-size="9.00">wallRadar[&#45;0.7,0.7]</text>
</g>
<!-- wallRadar[&#45;0.7,0.7]&#45;&gt;Shoot -->
<g id="edge17" class="edge"><title>wallRadar[&#45;0.7,0.7]&#45;&gt;Shoot</title>
<path fill="none" stroke="green" stroke-width="0.694623" d="M1109.4,-159.279C1134.19,-155.228 1165.91,-150.223 1194.21,-146.309 1328.55,-127.729 1374.98,-169.046 1497.21,-110.309 1509.51,-104.401 1520.72,-94.6294 1529.77,-85.0009"/>
<polygon fill="green" stroke="green" stroke-width="0.694623" points="1532.51,-87.1849 1536.54,-77.3862 1527.28,-82.5333 1532.51,-87.1849"/>
</g>
<!-- wallRadar[&#45;0.7,0.7]&#45;&gt;Move Forward -->
<g id="edge40" class="edge"><title>wallRadar[&#45;0.7,0.7]&#45;&gt;Move Forward</title>
<path fill="none" stroke="red" stroke-width="0.527463" d="M1065.76,-158.226C1065.25,-148.844 1064.37,-132.682 1063.46,-115.951"/>
<polygon fill="red" stroke="red" stroke-width="0.527463" points="1066.93,-115.31 1062.9,-105.515 1059.94,-115.69 1066.93,-115.31"/>
</g>
<!-- wallRadar[&#45;0.7,0.7]&#45;&gt;Move Left -->
<g id="edge57" class="edge"><title>wallRadar[&#45;0.7,0.7]&#45;&gt;Move Left</title>
<path fill="none" stroke="red" stroke-width="0.295053" d="M1047.72,-158.404C1037.91,-154.336 1025.56,-149.592 1014.21,-146.309 865.443,-103.283 683.809,-74.6274 599.051,-62.5903"/>
<polygon fill="red" stroke="red" stroke-width="0.295053" points="599.351,-59.098 588.96,-61.171 598.375,-66.0298 599.351,-59.098"/>
</g>
<!-- wallRadar[&#45;0.7,0.7]&#45;&gt;Turn Left -->
<g id="edge58" class="edge"><title>wallRadar[&#45;0.7,0.7]&#45;&gt;Turn Left</title>
<path fill="none" stroke="green" stroke-width="0.591579" d="M1056.25,-158.443C1043.25,-147.785 1019.95,-128.272 1001.21,-110.309 994.366,-103.746 987.251,-96.4919 980.584,-89.4834"/>
<polygon fill="green" stroke="green" stroke-width="0.591579" points="982.962,-86.9033 973.56,-82.019 977.864,-91.7003 982.962,-86.9033"/>
</g>
<!-- wallRadar[&#45;0.7,0.7]&#45;&gt;Turn Right -->
<g id="edge5" class="edge"><title>wallRadar[&#45;0.7,0.7]&#45;&gt;Turn Right</title>
<path fill="none" stroke="red" stroke-width="0.526906" d="M1109.36,-158.986C1134.14,-154.841 1165.86,-149.839 1194.21,-146.309 1368.71,-124.583 1413.63,-131.29 1588.21,-110.309 1700.74,-96.7855 1832.14,-75.9112 1901.86,-64.4292"/>
<polygon fill="red" stroke="red" stroke-width="0.526906" points="1902.8,-67.8209 1912.1,-62.7375 1901.66,-60.9145 1902.8,-67.8209"/>
</g>
<!-- wallRadar[&#45;0.7,&#45;0.7] -->
<g id="node7" class="node"><title>wallRadar[&#45;0.7,&#45;0.7]</title>
<polygon fill="lightgray" stroke="black" points="1458.71,-176.522 1369.71,-176.522 1369.71,-158.522 1458.71,-158.522 1458.71,-176.522"/>
<text text-anchor="middle" x="1414.21" y="-165.322" font-family="Times,serif" font-size="9.00">wallRadar[&#45;0.7,&#45;0.7]</text>
</g>
<!-- wallRadar[&#45;0.7,&#45;0.7]&#45;&gt; Move Backward -->
<g id="edge2" class="edge"><title>wallRadar[&#45;0.7,&#45;0.7]&#45;&gt; Move Backward</title>
<path fill="none" stroke="green" stroke-width="0.325871" d="M1415.64,-158.226C1417.14,-149.549 1419.63,-135.074 1422.27,-119.712"/>
<polygon fill="green" stroke="green" stroke-width="0.325871" points="1425.78,-119.99 1424.02,-109.541 1418.88,-118.802 1425.78,-119.99"/>
</g>
<!-- wallRadar[&#45;0.7,&#45;0.7]&#45;&gt;Move Left -->
<g id="edge14" class="edge"><title>wallRadar[&#45;0.7,&#45;0.7]&#45;&gt;Move Left</title>
<path fill="none" stroke="green" stroke-width="0.269299" d="M1396.59,-158.5C1386.22,-154.141 1372.72,-149.088 1360.21,-146.309 1162.62,-102.403 1107.28,-133.586 906.213,-110.309 795.615,-97.5049 666.567,-76.2116 598.631,-64.5038"/>
<polygon fill="green" stroke="green" stroke-width="0.269299" points="599.113,-61.0352 588.662,-62.779 597.919,-67.9327 599.113,-61.0352"/>
</g>
<!-- wallRadar[&#45;0.7,&#45;0.7]&#45;&gt;Move right -->
<g id="edge55" class="edge"><title>wallRadar[&#45;0.7,&#45;0.7]&#45;&gt;Move right</title>
<path fill="none" stroke="red" stroke-width="0.387391" d="M1396.64,-158.406C1359.83,-141.406 1273.61,-101.595 1220.28,-76.9649"/>
<polygon fill="red" stroke="red" stroke-width="0.387391" points="1221.59,-73.7157 1211.04,-72.7008 1218.66,-80.0708 1221.59,-73.7157"/>
</g>
<!-- wallRadar[&#45;0.7,&#45;0.7]&#45;&gt;Turn Right -->
<g id="edge41" class="edge"><title>wallRadar[&#45;0.7,&#45;0.7]&#45;&gt;Turn Right</title>
<path fill="none" stroke="red" stroke-width="0.167381" d="M1450.01,-158.514C1467.02,-154.745 1487.65,-150.227 1506.21,-146.309 1650.07,-115.935 1820.53,-81.9625 1902.46,-65.7596"/>
<polygon fill="red" stroke="red" stroke-width="0.167381" points="1903.35,-69.1523 1912.48,-63.7798 1901.99,-62.2851 1903.35,-69.1523"/>
</g>
<!-- wallRadar[0.7,&#45;0.7] -->
<g id="node8" class="node"><title>wallRadar[0.7,&#45;0.7]</title>
<polygon fill="lightgray" stroke="black" points="545.213,-176.522 459.213,-176.522 459.213,-158.522 545.213,-158.522 545.213,-176.522"/>
<text text-anchor="middle" x="502.213" y="-165.322" font-family="Times,serif" font-size="9.00">wallRadar[0.7,&#45;0.7]</text>
</g>
<!-- wallRadar[0.7,&#45;0.7]&#45;&gt;Move Forward -->
<g id="edge66" class="edge"><title>wallRadar[0.7,&#45;0.7]&#45;&gt;Move Forward</title>
<path fill="none" stroke="red" stroke-width="1.0661" d="M519.152,-158.501C529.131,-154.142 542.131,-149.089 554.213,-146.309 745.424,-102.306 812.322,-183.884 994.213,-110.309 1002.11,-107.113 1009.8,-102.621 1016.96,-97.5755"/>
<polygon fill="red" stroke="red" stroke-width="1.0661" points="1019.22,-100.252 1025.11,-91.4436 1015.01,-94.6586 1019.22,-100.252"/>
</g>
<!-- wallRadar[0.7,&#45;0.7]&#45;&gt; Move Backward -->
<g id="edge51" class="edge"><title>wallRadar[0.7,&#45;0.7]&#45;&gt; Move Backward</title>
<path fill="none" stroke="red" stroke-width="0.327959" stroke-dasharray="1,5" d="M519.123,-158.374C529.093,-153.973 542.093,-148.92 554.213,-146.309 845.731,-83.4999 929.517,-155.936 1224.21,-110.309 1274.28,-102.557 1329.74,-87.8943 1370.94,-75.7794"/>
<polygon fill="red" stroke="red" stroke-width="0.327959" points="1371.98,-79.1231 1380.57,-72.9197 1369.98,-72.4131 1371.98,-79.1231"/>
</g>
<!-- wallRadar[0.7,&#45;0.7]&#45;&gt;Move Left -->
<g id="edge11" class="edge"><title>wallRadar[0.7,&#45;0.7]&#45;&gt;Move Left</title>
<path fill="none" stroke="red" stroke-width="0.157511" d="M505.896,-158.226C511.427,-145.769 522.264,-121.359 531.954,-99.5338"/>
<polygon fill="red" stroke="red" stroke-width="0.157511" points="535.159,-100.941 536.018,-90.3807 528.761,-98.1002 535.159,-100.941"/>
</g>
<!-- enemyRadar[RightBack] -->
<g id="node9" class="node"><title>enemyRadar[RightBack]</title>
<polygon fill="lightgray" stroke="black" points="2048.21,-321.161 1944.21,-321.161 1944.21,-303.161 2048.21,-303.161 2048.21,-321.161"/>
<text text-anchor="middle" x="1996.21" y="-309.961" font-family="Times,serif" font-size="9.00">enemyRadar[RightBack]</text>
</g>
<!-- enemyRadar[LeftBack] -->
<g id="node10" class="node"><title>enemyRadar[LeftBack]</title>
<polygon fill="lightgray" stroke="black" points="1302.71,-176.522 1203.71,-176.522 1203.71,-158.522 1302.71,-158.522 1302.71,-176.522"/>
<text text-anchor="middle" x="1253.21" y="-165.322" font-family="Times,serif" font-size="9.00">enemyRadar[LeftBack]</text>
</g>
<!-- enemyRadar[LeftBack]&#45;&gt;Shoot -->
<g id="edge46" class="edge"><title>enemyRadar[LeftBack]&#45;&gt;Shoot</title>
<path fill="none" stroke="red" stroke-width="0.153451" d="M1273.93,-158.488C1284.89,-154.443 1298.65,-149.694 1311.21,-146.309 1392.51,-124.397 1422.7,-149.52 1497.21,-110.309 1509.28,-103.957 1520.45,-94.0942 1529.52,-84.5173"/>
<polygon fill="red" stroke="red" stroke-width="0.153451" points="1532.23,-86.7409 1536.33,-76.9705 1527.03,-82.0531 1532.23,-86.7409"/>
</g>
<!-- enemyRadar[LeftBack]&#45;&gt;Move Forward -->
<g id="edge71" class="edge"><title>enemyRadar[LeftBack]&#45;&gt;Move Forward</title>
<path fill="none" stroke="green" stroke-width="0.354618" d="M1230.27,-158.519C1204.1,-148.91 1160.5,-131.421 1126.21,-110.309 1119.14,-105.952 1112,-100.906 1105.16,-95.6821"/>
<polygon fill="green" stroke="green" stroke-width="0.354618" points="1107.31,-92.9256 1097.29,-89.4983 1102.99,-98.4294 1107.31,-92.9256"/>
</g>
<!-- enemyRadar[LeftBack]&#45;&gt; Move Backward -->
<g id="edge25" class="edge"><title>enemyRadar[LeftBack]&#45;&gt; Move Backward</title>
<path fill="none" stroke="green" stroke-width="0.303903" d="M1266.45,-158.406C1289.62,-144.198 1338.78,-114.056 1377.75,-90.1595"/>
<polygon fill="green" stroke="green" stroke-width="0.303903" points="1379.71,-93.0654 1386.41,-84.8544 1376.05,-87.0979 1379.71,-93.0654"/>
</g>
<!-- enemyRadar[LeftBack]&#45;&gt;Turn Left -->
<g id="edge44" class="edge"><title>enemyRadar[LeftBack]&#45;&gt;Turn Left</title>
<path fill="none" stroke="red" stroke-width="0.44103" d="M1203.46,-158.983C1140.24,-148.8 1035.25,-129.682 1001.21,-110.309 992.723,-105.477 984.798,-98.7721 977.845,-91.7236"/>
<polygon fill="red" stroke="red" stroke-width="0.44103" points="980.064,-88.9694 970.701,-84.0125 974.929,-93.7268 980.064,-88.9694"/>
</g>
<!-- enemyRadar[Right] -->
<g id="node11" class="node"><title>enemyRadar[Right]</title>
<polygon fill="lightgray" stroke="black" points="741.213,-176.522 655.213,-176.522 655.213,-158.522 741.213,-158.522 741.213,-176.522"/>
<text text-anchor="middle" x="698.213" y="-165.322" font-family="Times,serif" font-size="9.00">enemyRadar[Right]</text>
</g>
<!-- enemyRadar[Right]&#45;&gt;Shoot -->
<g id="edge30" class="edge"><title>enemyRadar[Right]&#45;&gt;Shoot</title>
<path fill="none" stroke="green" stroke-width="0.358683" d="M715.118,-158.349C725.086,-153.94 738.086,-148.886 750.213,-146.309 912.774,-111.754 1344.99,-176.997 1497.21,-110.309 1509.8,-104.793 1521.14,-95.0025 1530.19,-85.2488"/>
<polygon fill="green" stroke="green" stroke-width="0.358683" points="1533.01,-87.3491 1536.95,-77.5167 1527.74,-82.742 1533.01,-87.3491"/>
</g>
<!-- enemyRadar[Right]&#45;&gt;Move Left -->
<g id="edge59" class="edge"><title>enemyRadar[Right]&#45;&gt;Move Left</title>
<path fill="none" stroke="green" stroke-width="0.777906" d="M687.164,-158.226C666.667,-142.837 621.875,-109.207 589.291,-84.7431"/>
<polygon fill="green" stroke="green" stroke-width="0.777906" points="591.39,-81.9427 581.292,-78.7375 587.187,-87.5405 591.39,-81.9427"/>
</g>
<!-- enemyRadar[Right]&#45;&gt;Move right -->
<g id="edge67" class="edge"><title>enemyRadar[Right]&#45;&gt;Move right</title>
<path fill="none" stroke="red" stroke-width="0.332471" d="M715.638,-158.368C725.559,-154.079 738.342,-149.138 750.213,-146.309 910.501,-108.102 969.638,-179.441 1119.21,-110.309 1127.96,-106.267 1136.17,-100.281 1143.47,-93.7464"/>
<polygon fill="red" stroke="red" stroke-width="0.332471" points="1146.23,-95.9548 1151.02,-86.5062 1141.38,-90.9034 1146.23,-95.9548"/>
</g>
<!-- enemyRadar[Right]&#45;&gt;Turn Left -->
<g id="edge6" class="edge"><title>enemyRadar[Right]&#45;&gt;Turn Left</title>
<path fill="none" stroke="green" stroke-width="0.14388" stroke-dasharray="1,5" d="M716.743,-158.406C757.037,-140.759 853.453,-98.5318 908.962,-74.2209"/>
<polygon fill="green" stroke="green" stroke-width="0.14388" points="910.41,-77.4076 918.166,-70.1898 907.602,-70.9956 910.41,-77.4076"/>
</g>
<!-- enemyRadar[Left] -->
<g id="node12" class="node"><title>enemyRadar[Left]</title>
<polygon fill="lightgray" stroke="black" points="1991.71,-176.522 1910.71,-176.522 1910.71,-158.522 1991.71,-158.522 1991.71,-176.522"/>
<text text-anchor="middle" x="1951.21" y="-165.322" font-family="Times,serif" font-size="9.00">enemyRadar[Left]</text>
</g>
<!-- enemyRadar[Left]&#45;&gt;Shoot -->
<g id="edge42" class="edge"><title>enemyRadar[Left]&#45;&gt;Shoot</title>
<path fill="none" stroke="green" stroke-width="0.30289" stroke-dasharray="1,5" d="M1932.91,-158.448C1923.54,-154.488 1911.88,-149.827 1901.21,-146.309 1788.9,-109.277 1652.22,-77.7904 1588.36,-63.8419"/>
<polygon fill="green" stroke="green" stroke-width="0.30289" points="1588.9,-60.3782 1578.38,-61.6775 1587.41,-67.219 1588.9,-60.3782"/>
</g>
<!-- enemyRadar[Left]&#45;&gt;Move Forward -->
<g id="edge39" class="edge"><title>enemyRadar[Left]&#45;&gt;Move Forward</title>
<path fill="none" stroke="red" stroke-width="0.173651" d="M1934.99,-158.336C1925.42,-153.922 1912.92,-148.869 1901.21,-146.309 1732.79,-109.476 1287.15,-172.135 1126.21,-110.309 1118.26,-107.252 1110.55,-102.837 1103.37,-97.8273"/>
<polygon fill="red" stroke="red" stroke-width="0.173651" points="1105.31,-94.9098 1095.21,-91.719 1101.12,-100.514 1105.31,-94.9098"/>
</g>
<!-- enemyRadar[Left]&#45;&gt;Move right -->
<g id="edge24" class="edge"><title>enemyRadar[Left]&#45;&gt;Move right</title>
<path fill="none" stroke="green" stroke-width="0.215891" d="M1934.97,-158.428C1925.39,-154.046 1912.89,-148.993 1901.21,-146.309 1670.25,-93.2344 1602.79,-150.377 1369.21,-110.309 1318.28,-101.571 1261.49,-84.8726 1222.59,-72.3177"/>
<polygon fill="green" stroke="green" stroke-width="0.215891" points="1223.2,-68.8347 1212.61,-69.0598 1221.03,-75.4894 1223.2,-68.8347"/>
</g>
<!-- enemyRadar[Left]&#45;&gt;Turn Right -->
<g id="edge4" class="edge"><title>enemyRadar[Left]&#45;&gt;Turn Right</title>
<path fill="none" stroke="green" stroke-width="0.217825" d="M1951.21,-158.226C1951.21,-146.819 1951.21,-125.389 1951.21,-105.099"/>
<polygon fill="green" stroke="green" stroke-width="0.217825" points="1954.71,-104.966 1951.21,-94.9664 1947.71,-104.966 1954.71,-104.966"/>
</g>
<!-- enemyRadar[RightFront30] -->
<g id="node13" class="node"><title>enemyRadar[RightFront30]</title>
<polygon fill="lightgray" stroke="black" points="440.713,-176.522 325.713,-176.522 325.713,-158.522 440.713,-158.522 440.713,-176.522"/>
<text text-anchor="middle" x="383.213" y="-165.322" font-family="Times,serif" font-size="9.00">enemyRadar[RightFront30]</text>
</g>
<!-- enemyRadar[RightFront30]&#45;&gt;Move Forward -->
<g id="edge52" class="edge"><title>enemyRadar[RightFront30]&#45;&gt;Move Forward</title>
<path fill="none" stroke="red" stroke-width="0.41743" d="M405.237,-158.498C418.161,-154.139 434.911,-149.086 450.213,-146.309 569.419,-124.673 881.55,-154.865 994.213,-110.309 1002.14,-107.174 1009.83,-102.716 1017,-97.6865"/>
<polygon fill="red" stroke="red" stroke-width="0.41743" points="1019.26,-100.368 1025.16,-91.565 1015.06,-94.7693 1019.26,-100.368"/>
</g>
<!-- enemyRadar[RightFront30]&#45;&gt; Move Backward -->
<g id="edge49" class="edge"><title>enemyRadar[RightFront30]&#45;&gt; Move Backward</title>
<path fill="none" stroke="green" stroke-width="0.33621" d="M404.915,-158.489C417.873,-154.068 434.765,-148.956 450.213,-146.309 789.636,-88.1345 883.709,-161.773 1224.21,-110.309 1274.31,-102.737 1329.77,-88.0645 1370.96,-75.8999"/>
<polygon fill="green" stroke="green" stroke-width="0.33621" points="1372,-79.2418 1380.58,-73.0276 1370,-72.5343 1372,-79.2418"/>
</g>
<!-- enemyRadar[RightFront30]&#45;&gt;Move Left -->
<g id="edge27" class="edge"><title>enemyRadar[RightFront30]&#45;&gt;Move Left</title>
<path fill="none" stroke="green" stroke-width="1.00953" d="M395.567,-158.406C419.559,-142.645 473.399,-107.275 510.996,-82.575"/>
<polygon fill="green" stroke="green" stroke-width="1.00953" points="513.265,-85.2719 519.702,-76.8559 509.422,-79.4214 513.265,-85.2719"/>
</g>
<!-- enemyRadar[RightFront30]&#45;&gt;Move right -->
<g id="edge18" class="edge"><title>enemyRadar[RightFront30]&#45;&gt;Move right</title>
<path fill="none" stroke="red" stroke-width="0.379379" d="M405.224,-158.427C418.145,-154.045 434.895,-148.992 450.213,-146.309 596.863,-120.624 982.742,-169.818 1119.21,-110.309 1128.04,-106.458 1136.3,-100.557 1143.61,-94.0451"/>
<polygon fill="red" stroke="red" stroke-width="0.379379" points="1146.36,-96.2548 1151.16,-86.8073 1141.52,-91.2022 1146.36,-96.2548"/>
</g>
<!-- enemyRadar[RightFront30]&#45;&gt;Turn Left -->
<g id="edge50" class="edge"><title>enemyRadar[RightFront30]&#45;&gt;Turn Left</title>
<path fill="none" stroke="red" stroke-width="0.12215" d="M407.533,-158.451C420.169,-154.445 435.918,-149.742 450.213,-146.309 616.245,-106.434 817.086,-75.3125 905.15,-62.5074"/>
<polygon fill="red" stroke="red" stroke-width="0.12215" points="905.675,-65.9681 915.071,-61.0732 904.673,-59.0401 905.675,-65.9681"/>
</g>
<!-- enemyRadar[LeftFront30] -->
<g id="node14" class="node"><title>enemyRadar[LeftFront30]</title>
<polygon fill="lightgray" stroke="black" points="1005.21,-176.522 895.213,-176.522 895.213,-158.522 1005.21,-158.522 1005.21,-176.522"/>
<text text-anchor="middle" x="950.213" y="-165.322" font-family="Times,serif" font-size="9.00">enemyRadar[LeftFront30]</text>
</g>
<!-- enemyRadar[LeftFront30]&#45;&gt;Shoot -->
<g id="edge22" class="edge"><title>enemyRadar[LeftFront30]&#45;&gt;Shoot</title>
<path fill="none" stroke="red" stroke-width="0.115895" d="M971.519,-158.428C983.817,-154.102 999.682,-149.106 1014.21,-146.309 1119.9,-125.965 1399.2,-154.788 1497.21,-110.309 1509.73,-104.628 1521.05,-94.8051 1530.12,-85.0713"/>
<polygon fill="red" stroke="red" stroke-width="0.115895" points="1532.92,-87.1875 1536.89,-77.365 1527.66,-82.5673 1532.92,-87.1875"/>
</g>
<!-- enemyRadar[LeftFront30]&#45;&gt;Move Forward -->
<g id="edge65" class="edge"><title>enemyRadar[LeftFront30]&#45;&gt;Move Forward</title>
<path fill="none" stroke="red" stroke-width="0.16144" d="M958.481,-158.226C971.05,-145.615 995.827,-120.756 1017.78,-98.7281"/>
<polygon fill="red" stroke="red" stroke-width="0.16144" points="1020.52,-100.942 1025.1,-91.3882 1015.56,-96.0004 1020.52,-100.942"/>
</g>
<!-- enemyRadar[LeftFront30]&#45;&gt;Turn Left -->
<g id="edge33" class="edge"><title>enemyRadar[LeftFront30]&#45;&gt;Turn Left</title>
<path fill="none" stroke="red" stroke-width="0.775586" d="M950.213,-158.226C950.213,-145.979 950.213,-122.179 950.213,-100.64"/>
<polygon fill="red" stroke="red" stroke-width="0.775586" points="953.713,-100.632 950.213,-90.6319 946.713,-100.632 953.713,-100.632"/>
</g>
<!-- enemyRadar[RightFront10] -->
<g id="node15" class="node"><title>enemyRadar[RightFront10]</title>
<polygon fill="lightgray" stroke="black" points="2291.71,-176.522 2176.71,-176.522 2176.71,-158.522 2291.71,-158.522 2291.71,-176.522"/>
<text text-anchor="middle" x="2234.21" y="-165.322" font-family="Times,serif" font-size="9.00">enemyRadar[RightFront10]</text>
</g>
<!-- enemyRadar[RightFront10]&#45;&gt;Shoot -->
<g id="edge21" class="edge"><title>enemyRadar[RightFront10]&#45;&gt;Shoot</title>
<path fill="none" stroke="green" stroke-width="0.484477" d="M2208.76,-158.464C2195.08,-154.363 2177.85,-149.57 2162.21,-146.309 2048.01,-122.488 2017.64,-127.228 1902.21,-110.309 1787.82,-93.5404 1652.65,-72.189 1588.94,-62.0333"/>
<polygon fill="green" stroke="green" stroke-width="0.484477" points="1589.4,-58.5636 1578.98,-60.4441 1588.3,-65.4761 1589.4,-58.5636"/>
</g>
<!-- enemyRadar[RightFront10]&#45;&gt;Move right -->
<g id="edge62" class="edge"><title>enemyRadar[RightFront10]&#45;&gt;Move right</title>
<path fill="none" stroke="green" stroke-width="1.61589" stroke-dasharray="1,5" d="M2198.93,-158.425C2178.65,-154.098 2152.62,-149.102 2129.21,-146.309 1793.44,-106.245 1703.06,-164.108 1369.21,-110.309 1318.19,-102.086 1261.42,-85.3086 1222.55,-72.5941"/>
<polygon fill="green" stroke="green" stroke-width="1.61589" points="1223.16,-69.1116 1212.57,-69.2919 1220.96,-75.757 1223.16,-69.1116"/>
</g>
<!-- enemyRadar[RightFront10]&#45;&gt;Turn Right -->
<g id="edge47" class="edge"><title>enemyRadar[RightFront10]&#45;&gt;Turn Right</title>
<path fill="none" stroke="red" stroke-width="0.125517" d="M2213.4,-158.406C2168.21,-140.781 2060.14,-98.6351 1997.77,-74.3102"/>
<polygon fill="red" stroke="red" stroke-width="0.125517" points="1998.75,-70.9383 1988.17,-70.5657 1996.21,-77.4599 1998.75,-70.9383"/>
</g>
<!-- enemyRadar[LeftFront10] -->
<g id="node16" class="node"><title>enemyRadar[LeftFront10]</title>
<polygon fill="lightgray" stroke="black" points="188.213,-254.948 78.2132,-254.948 78.2132,-236.948 188.213,-236.948 188.213,-254.948"/>
<text text-anchor="middle" x="133.213" y="-243.748" font-family="Times,serif" font-size="9.00">enemyRadar[LeftFront10]</text>
</g>
<!-- enemyRadar[LeftFront10]&#45;&gt;Move Left -->
<g id="edge23" class="edge"><title>enemyRadar[LeftFront10]&#45;&gt;Move Left</title>
<path fill="none" stroke="red" stroke-width="0.36257" d="M124.112,-236.739C105.236,-218.739 65.4883,-175.111 89.2132,-146.309 141.257,-83.1278 394.76,-63.6224 502.554,-58.1268"/>
<polygon fill="red" stroke="red" stroke-width="0.36257" points="503.009,-61.6088 512.825,-57.6233 502.666,-54.6172 503.009,-61.6088"/>
</g>
<!-- enemyRadar[LeftFront10]&#45;&gt;Move right -->
<g id="edge64" class="edge"><title>enemyRadar[LeftFront10]&#45;&gt;Move right</title>
<path fill="none" stroke="green" stroke-width="0.183837" d="M188.509,-245.142C385.013,-245.376 1041.97,-242.127 1118.21,-188.735 1145.75,-169.452 1160.08,-133.96 1167.48,-104.548"/>
<polygon fill="green" stroke="green" stroke-width="0.183837" points="1170.98,-104.967 1169.82,-94.435 1164.16,-103.389 1170.98,-104.967"/>
</g>
<!-- enemyRadar[LeftFront10]&#45;&gt;Turn Left -->
<g id="edge48" class="edge"><title>enemyRadar[LeftFront10]&#45;&gt;Turn Left</title>
<path fill="none" stroke="red" stroke-width="0.262088" d="M139.704,-236.803C158.176,-213.665 210.043,-149.037 215.213,-146.309 290.821,-106.417 513.375,-120.813 598.213,-110.309 708.88,-96.6068 838.321,-75.3331 905.158,-63.9567"/>
<polygon fill="red" stroke="red" stroke-width="0.262088" points="906.067,-67.3522 915.335,-62.2185 904.889,-60.4521 906.067,-67.3522"/>
</g>
<!-- 309 -->
<g id="node32" class="node"><title>309</title>
<ellipse fill="white" stroke="black" cx="21.2132" cy="-167.522" rx="21.4286" ry="21.4286"/>
<text text-anchor="middle" x="21.2132" y="-165.322" font-family="Times,serif" font-size="9.00">309</text>
</g>
<!-- enemyRadar[LeftFront10]&#45;&gt;309 -->
<g id="edge78" class="edge"><title>enemyRadar[LeftFront10]&#45;&gt;309</title>
<path fill="none" stroke="green" stroke-width="0.851071" d="M121.227,-236.769C103.614,-224.75 70.3064,-202.022 46.9857,-186.108"/>
<polygon fill="green" stroke="green" stroke-width="0.851071" points="48.8233,-183.125 38.5903,-180.38 44.8777,-188.907 48.8233,-183.125"/>
</g>
<!-- enemyRadar[RightFront3.5] -->
<g id="node17" class="node"><title>enemyRadar[RightFront3.5]</title>
<polygon fill="lightgray" stroke="black" points="876.713,-176.522 759.713,-176.522 759.713,-158.522 876.713,-158.522 876.713,-176.522"/>
<text text-anchor="middle" x="818.213" y="-165.322" font-family="Times,serif" font-size="9.00">enemyRadar[RightFront3.5]</text>
</g>
<!-- enemyRadar[RightFront3.5]&#45;&gt;Shoot -->
<g id="edge3" class="edge"><title>enemyRadar[RightFront3.5]&#45;&gt;Shoot</title>
<path fill="none" stroke="green" stroke-width="0.102731" d="M840.568,-158.461C853.686,-154.09 870.686,-149.036 886.213,-146.309 1020.18,-122.776 1372.92,-165.552 1497.21,-110.309 1509.77,-104.726 1521.1,-94.9219 1530.16,-85.1763"/>
<polygon fill="green" stroke="green" stroke-width="0.102731" points="1532.97,-87.2832 1536.93,-77.4548 1527.7,-82.6707 1532.97,-87.2832"/>
</g>
<!-- enemyRadar[RightFront3.5]&#45;&gt;Move Left -->
<g id="edge74" class="edge"><title>enemyRadar[RightFront3.5]&#45;&gt;Move Left</title>
<path fill="none" stroke="green" stroke-width="0.704251" d="M798.58,-158.406C756.142,-140.864 654.946,-99.0335 595.974,-74.6568"/>
<polygon fill="green" stroke="green" stroke-width="0.704251" points="597.114,-71.3407 586.535,-70.7551 594.44,-77.8098 597.114,-71.3407"/>
</g>
<!-- enemyRadar[RightFront3.5]&#45;&gt;Move right -->
<g id="edge8" class="edge"><title>enemyRadar[RightFront3.5]&#45;&gt;Move right</title>
<path fill="none" stroke="red" stroke-width="0.200926" d="M842.236,-158.514C855.158,-154.427 871.433,-149.631 886.213,-146.309 988.446,-123.328 1025.37,-156.918 1119.21,-110.309 1127.75,-106.067 1135.84,-100.055 1143.07,-93.5688"/>
<polygon fill="red" stroke="red" stroke-width="0.200926" points="1145.75,-95.8462 1150.56,-86.4059 1140.91,-90.7864 1145.75,-95.8462"/>
</g>
<!-- enemyRadar[LeftFront3.5] -->
<g id="node18" class="node"><title>enemyRadar[LeftFront3.5]</title>
<polygon fill="lightgray" stroke="black" points="2422.21,-176.522 2310.21,-176.522 2310.21,-158.522 2422.21,-158.522 2422.21,-176.522"/>
<text text-anchor="middle" x="2366.21" y="-165.322" font-family="Times,serif" font-size="9.00">enemyRadar[LeftFront3.5]</text>
</g>
<!-- enemyRadar[LeftFront3.5]&#45;&gt;Shoot -->
<g id="edge53" class="edge"><title>enemyRadar[LeftFront3.5]&#45;&gt;Shoot</title>
<path fill="none" stroke="green" stroke-width="0.533079" d="M2344.55,-158.52C2332.05,-154.225 2315.94,-149.228 2301.21,-146.309 2126.56,-111.679 2078.95,-131.932 1902.21,-110.309 1787.45,-96.2677 1652.45,-73.6372 1588.86,-62.6101"/>
<polygon fill="green" stroke="green" stroke-width="0.533079" points="1589.37,-59.1464 1578.92,-60.8798 1588.17,-66.0428 1589.37,-59.1464"/>
</g>
<!-- enemyRadar[LeftFront3.5]&#45;&gt; Move Backward -->
<g id="edge26" class="edge"><title>enemyRadar[LeftFront3.5]&#45;&gt; Move Backward</title>
<path fill="none" stroke="green" stroke-width="0.615711" d="M2345.18,-158.479C2332.62,-154.055 2316.23,-148.943 2301.21,-146.309 2129.21,-116.135 1682.41,-163.907 1516.21,-110.309 1505.45,-106.837 1494.74,-101.577 1484.76,-95.6759"/>
<polygon fill="green" stroke="green" stroke-width="0.615711" points="1486.55,-92.6631 1476.21,-90.3541 1482.85,-98.6073 1486.55,-92.6631"/>
</g>
<!-- enemyRadar[LeftFront3.5]&#45;&gt;Turn Right -->
<g id="edge19" class="edge"><title>enemyRadar[LeftFront3.5]&#45;&gt;Turn Right</title>
<path fill="none" stroke="red" stroke-width="0.415848" stroke-dasharray="1,5" d="M2341.3,-158.458C2329.23,-154.634 2314.51,-150.087 2301.21,-146.309 2194.14,-115.89 2067.4,-84.3389 1999.66,-67.8307"/>
<polygon fill="red" stroke="red" stroke-width="0.415848" points="2000.25,-64.372 1989.71,-65.4095 1998.59,-71.1737 2000.25,-64.372"/>
</g>
<!-- enemyRadar[RightFront1.5] -->
<g id="node19" class="node"><title>enemyRadar[RightFront1.5]</title>
<polygon fill="lightgray" stroke="black" points="1723.71,-176.522 1606.71,-176.522 1606.71,-158.522 1723.71,-158.522 1723.71,-176.522"/>
<text text-anchor="middle" x="1665.21" y="-165.322" font-family="Times,serif" font-size="9.00">enemyRadar[RightFront1.5]</text>
</g>
<!-- enemyRadar[RightFront1.5]&#45;&gt;Shoot -->
<g id="edge56" class="edge"><title>enemyRadar[RightFront1.5]&#45;&gt;Shoot</title>
<path fill="none" stroke="green" stroke-width="0.33053" stroke-dasharray="1,5" d="M1656.72,-158.226C1640.35,-142.234 1603.81,-106.547 1578.59,-81.9142"/>
<polygon fill="green" stroke="green" stroke-width="0.33053" points="1580.76,-79.1419 1571.16,-74.6585 1575.87,-84.1496 1580.76,-79.1419"/>
</g>
<!-- enemyRadar[RightFront1.5]&#45;&gt; Move Backward -->
<g id="edge34" class="edge"><title>enemyRadar[RightFront1.5]&#45;&gt; Move Backward</title>
<path fill="none" stroke="green" stroke-width="0.399683" d="M1638.64,-158.437C1608.25,-148.753 1557.39,-131.196 1516.21,-110.309 1506.34,-105.303 1496.2,-99.3945 1486.53,-93.3528"/>
<polygon fill="green" stroke="green" stroke-width="0.399683" points="1488.13,-90.2184 1477.81,-87.789 1484.36,-96.1191 1488.13,-90.2184"/>
</g>
<!-- enemyRadar[RightFront1.5]&#45;&gt;Move right -->
<g id="edge63" class="edge"><title>enemyRadar[RightFront1.5]&#45;&gt;Move right</title>
<path fill="none" stroke="red" stroke-width="0.454067" d="M1640.87,-158.434C1628,-154.375 1611.87,-149.628 1597.21,-146.309 1497.16,-123.644 1469.45,-132.136 1369.21,-110.309 1318.72,-99.3126 1261.87,-82.9636 1222.83,-71.1073"/>
<polygon fill="red" stroke="red" stroke-width="0.454067" points="1223.39,-67.6202 1212.81,-68.0435 1221.35,-74.3143 1223.39,-67.6202"/>
</g>
<!-- enemyRadar[RightFront1.5]&#45;&gt;Turn Left -->
<g id="edge35" class="edge"><title>enemyRadar[RightFront1.5]&#45;&gt;Turn Left</title>
<path fill="none" stroke="red" stroke-width="0.256368" d="M1642.86,-158.47C1629.74,-154.101 1612.74,-149.048 1597.21,-146.309 1466.55,-123.255 1121.38,-166.568 1001.21,-110.309 992.28,-106.126 984.138,-99.6196 977.11,-92.5474"/>
<polygon fill="red" stroke="red" stroke-width="0.256368" points="979.277,-89.7334 969.936,-84.7347 974.121,-94.4678 979.277,-89.7334"/>
</g>
<!-- enemyRadar[RightFront1.5]&#45;&gt;Turn Right -->
<g id="edge29" class="edge"><title>enemyRadar[RightFront1.5]&#45;&gt;Turn Right</title>
<path fill="none" stroke="green" stroke-width="0.474153" d="M1686.24,-158.406C1732.04,-140.734 1841.72,-98.4089 1904.67,-74.1149"/>
<polygon fill="green" stroke="green" stroke-width="0.474153" points="1906.29,-77.2429 1914.36,-70.3773 1903.77,-70.7122 1906.29,-77.2429"/>
</g>
<!-- enemyRadar[LeftFront1.5] -->
<g id="node20" class="node"><title>enemyRadar[LeftFront1.5]</title>
<polygon fill="lightgray" stroke="black" points="1892.21,-176.522 1780.21,-176.522 1780.21,-158.522 1892.21,-158.522 1892.21,-176.522"/>
<text text-anchor="middle" x="1836.21" y="-165.322" font-family="Times,serif" font-size="9.00">enemyRadar[LeftFront1.5]</text>
</g>
<!-- enemyRadar[LeftFront1.5]&#45;&gt;Shoot -->
<g id="edge45" class="edge"><title>enemyRadar[LeftFront1.5]&#45;&gt;Shoot</title>
<path fill="none" stroke="red" stroke-width="0.383402" d="M1815.33,-158.406C1766.79,-139.544 1645.99,-92.5988 1586.47,-69.4668"/>
<polygon fill="red" stroke="red" stroke-width="0.383402" points="1587.71,-66.1939 1577.12,-65.8339 1585.17,-72.7185 1587.71,-66.1939"/>
</g>
<!-- enemyRadar[LeftFront1.5]&#45;&gt;Move right -->
<g id="edge68" class="edge"><title>enemyRadar[LeftFront1.5]&#45;&gt;Move right</title>
<path fill="none" stroke="red" stroke-width="0.158392" stroke-dasharray="1,5" d="M1799.65,-158.467C1780.03,-154.367 1755.39,-149.574 1733.21,-146.309 1572.38,-122.629 1528.99,-140.276 1369.21,-110.309 1318.42,-100.782 1261.61,-84.2058 1222.67,-71.8949"/>
<polygon fill="red" stroke="red" stroke-width="0.158392" points="1223.26,-68.4109 1212.67,-68.7048 1221.13,-75.0795 1223.26,-68.4109"/>
</g>
<!-- OnTarget -->
<g id="node21" class="node"><title>OnTarget</title>
<polygon fill="lightgray" stroke="black" points="2120.21,-176.522 2070.21,-176.522 2070.21,-158.522 2120.21,-158.522 2120.21,-176.522"/>
<text text-anchor="middle" x="2095.21" y="-165.322" font-family="Times,serif" font-size="9.00">OnTarget</text>
</g>
<!-- OnTarget&#45;&gt;Move Forward -->
<g id="edge1" class="edge"><title>OnTarget&#45;&gt;Move Forward</title>
<path fill="none" stroke="red" stroke-width="0.471003" d="M2084.83,-158.491C2078.41,-154.012 2069.77,-148.839 2061.21,-146.309 1861.81,-87.363 1320.61,-184.103 1126.21,-110.309 1118.25,-107.284 1110.53,-102.886 1103.35,-97.8843"/>
<polygon fill="red" stroke="red" stroke-width="0.471003" points="1105.29,-94.9666 1095.19,-91.7813 1101.1,-100.573 1105.29,-94.9666"/>
</g>
<!-- OnTarget&#45;&gt;Turn Right -->
<g id="edge12" class="edge"><title>OnTarget&#45;&gt;Turn Right</title>
<path fill="none" stroke="red" stroke-width="0.200205" d="M2084.39,-158.226C2064.76,-143.178 2022.37,-110.69 1990.65,-86.3841"/>
<polygon fill="red" stroke="red" stroke-width="0.200205" points="1992.5,-83.3875 1982.43,-80.0823 1988.24,-88.9434 1992.5,-83.3875"/>
</g>
<!-- bias -->
<g id="node22" class="node"><title>bias</title>
<polygon fill="lightgray" stroke="black" points="1351.71,-176.522 1320.71,-176.522 1320.71,-158.522 1351.71,-158.522 1351.71,-176.522"/>
<text text-anchor="middle" x="1336.21" y="-165.322" font-family="Times,serif" font-size="9.00">bias</text>
</g>
<!-- bias&#45;&gt;Shoot -->
<g id="edge37" class="edge"><title>bias&#45;&gt;Shoot</title>
<path fill="none" stroke="green" stroke-width="0.125002" d="M1343.99,-158.422C1348.4,-154.258 1354.22,-149.419 1360.21,-146.309 1416.1,-117.323 1442.49,-141.443 1497.21,-110.309 1508.98,-103.615 1520.02,-93.7741 1529.08,-84.3107"/>
<polygon fill="green" stroke="green" stroke-width="0.125002" points="1531.72,-86.6077 1535.89,-76.8695 1526.56,-81.8795 1531.72,-86.6077"/>
</g>
<!-- bias&#45;&gt; Move Backward -->
<g id="edge13" class="edge"><title>bias&#45;&gt; Move Backward</title>
<path fill="none" stroke="red" stroke-width="0.192026" d="M1343.5,-158.226C1353.58,-146.758 1372.57,-125.159 1390.48,-104.773"/>
<polygon fill="red" stroke="red" stroke-width="0.192026" points="1393.3,-106.865 1397.28,-97.0428 1388.05,-102.244 1393.3,-106.865"/>
</g>
<!-- bias&#45;&gt;Move right -->
<g id="edge75" class="edge"><title>bias&#45;&gt;Move right</title>
<path fill="none" stroke="red" stroke-width="0.377074" d="M1326.65,-158.433C1322.06,-154.646 1316.43,-150.137 1311.21,-146.309 1280.39,-123.713 1244.29,-99.897 1217.03,-82.4211"/>
<polygon fill="red" stroke="red" stroke-width="0.377074" points="1218.82,-79.4113 1208.51,-76.9795 1215.05,-85.3111 1218.82,-79.4113"/>
</g>
<!-- bias&#45;&gt;Turn Left -->
<g id="edge61" class="edge"><title>bias&#45;&gt;Turn Left</title>
<path fill="none" stroke="green" stroke-width="0.678416" d="M1328.65,-158.491C1324.05,-154.129 1317.8,-149.076 1311.21,-146.309 1183.34,-92.5805 1125.16,-172.568 1001.21,-110.309 992.484,-105.924 984.461,-99.4022 977.488,-92.3895"/>
<polygon fill="green" stroke="green" stroke-width="0.678416" points="979.708,-89.6348 970.351,-84.6651 974.567,-94.3852 979.708,-89.6348"/>
</g>
<!-- 388 -->
<g id="node30" class="node"><title>388</title>
<ellipse fill="white" stroke="black" cx="2031.21" cy="-167.522" rx="21.4286" ry="21.4286"/>
<text text-anchor="middle" x="2031.21" y="-165.322" font-family="Times,serif" font-size="9.00">388</text>
</g>
<!-- 388&#45;&gt; Move Backward -->
<g id="edge81" class="edge"><title>388&#45;&gt; Move Backward</title>
<path fill="none" stroke="red" stroke-width="0.139481" stroke-dasharray="1,5" d="M2015.22,-153.538C2010.91,-150.674 2006.08,-147.994 2001.21,-146.309 1796.97,-75.5522 1720.97,-179.552 1516.21,-110.309 1505.5,-106.685 1494.81,-101.351 1484.85,-95.4244"/>
<polygon fill="red" stroke="red" stroke-width="0.139481" points="1486.63,-92.4121 1476.29,-90.0914 1482.93,-98.3522 1486.63,-92.4121"/>
</g>
<!-- 236&#45;&gt; Move Backward -->
<g id="edge77" class="edge"><title>236&#45;&gt; Move Backward</title>
<path fill="none" stroke="red" stroke-width="0.262576" stroke-dasharray="1,5" d="M1871.19,-238.388C1846.22,-229.603 1802.97,-212.342 1771.21,-188.735 1750.9,-173.633 1755.4,-158.498 1733.21,-146.309 1647.53,-99.2338 1607.32,-145.775 1516.21,-110.309 1505.67,-106.205 1495.07,-100.638 1485.14,-94.629"/>
<polygon fill="red" stroke="red" stroke-width="0.262576" points="1486.93,-91.6191 1476.6,-89.2607 1483.2,-97.5456 1486.93,-91.6191"/>
</g>
<!-- 236&#45;&gt;388 -->
<g id="edge80" class="edge"><title>236&#45;&gt;388</title>
<path fill="none" stroke="green" stroke-width="0.404098" d="M1910.27,-236.074C1932.5,-225.523 1970.18,-207.032 2001.21,-188.735 2002.7,-187.858 2004.22,-186.936 2005.73,-185.989"/>
<polygon fill="green" stroke="green" stroke-width="0.404098" points="2007.82,-188.806 2014.31,-180.429 2004.01,-182.933 2007.82,-188.806"/>
</g>
<!-- 309&#45;&gt;Move Left -->
<g id="edge79" class="edge"><title>309&#45;&gt;Move Left</title>
<path fill="none" stroke="green" stroke-width="0.299295" stroke-dasharray="1,5" d="M38.4404,-155.004C43.9287,-151.77 50.1533,-148.534 56.2132,-146.309 213.37,-88.5961 412.664,-66.7666 502.911,-59.4394"/>
<polygon fill="green" stroke="green" stroke-width="0.299295" points="503.414,-62.9107 513.109,-58.636 502.865,-55.9323 503.414,-62.9107"/>
</g>
</g>
</svg>
