<?xml version="1.0" encoding="UTF-8" standalone="no"?>
<!DOCTYPE svg PUBLIC "-//W3C//DTD SVG 1.1//EN"
 "http://www.w3.org/Graphics/SVG/1.1/DTD/svg11.dtd">
<!-- Generated by graphviz version 2.38.0 (20140413.2041)
 -->
<!-- Title: %3 Pages: 1 -->
<svg width="2649pt" height="251pt"
 viewBox="0.00 0.00 2649.38 250.74" xmlns="http://www.w3.org/2000/svg" xmlns:xlink="http://www.w3.org/1999/xlink">
<g id="graph0" class="graph" transform="scale(1 1) rotate(0) translate(4 246.735)">
<title>%3</title>
<polygon fill="white" stroke="none" points="-4,4 -4,-246.735 2645.38,-246.735 2645.38,4 -4,4"/>
<!-- wallRadar[1,0] -->
<g id="node1" class="node"><title>wallRadar[1,0]</title>
<polygon fill="lightgray" stroke="black" points="476,-176.522 406,-176.522 406,-158.522 476,-158.522 476,-176.522"/>
<text text-anchor="middle" x="441" y="-165.322" font-family="Times,serif" font-size="9.00">wallRadar[1,0]</text>
</g>
<!-- Move Forward -->
<g id="node24" class="node"><title>Move Forward</title>
<ellipse fill="lightblue" stroke="black" cx="1610" cy="-55.1543" rx="50.41" ry="50.41"/>
<text text-anchor="middle" x="1610" y="-52.9543" font-family="Times,serif" font-size="9.00">Move Forward</text>
</g>
<!-- wallRadar[1,0]&#45;&gt;Move Forward -->
<g id="edge17" class="edge"><title>wallRadar[1,0]&#45;&gt;Move Forward</title>
<path fill="none" stroke="green" stroke-width="0.12641" d="M454.761,-158.505C463.193,-154.03 474.373,-148.858 485,-146.309 678.559,-99.8802 1182.78,-137.241 1380,-110.309 1439.45,-102.19 1506.05,-85.67 1552.22,-72.9993"/>
<polygon fill="green" stroke="green" stroke-width="0.12641" points="1553.34,-76.3208 1562.04,-70.2772 1551.47,-69.575 1553.34,-76.3208"/>
</g>
<!-- Move right -->
<g id="node27" class="node"><title>Move right</title>
<ellipse fill="lightblue" stroke="black" cx="695" cy="-55.1543" rx="39.6962" ry="39.6962"/>
<text text-anchor="middle" x="695" y="-52.9543" font-family="Times,serif" font-size="9.00">Move right</text>
</g>
<!-- wallRadar[1,0]&#45;&gt;Move right -->
<g id="edge56" class="edge"><title>wallRadar[1,0]&#45;&gt;Move right</title>
<path fill="none" stroke="red" stroke-width="0.3175" d="M457.563,-158.493C465.746,-154.635 475.812,-150.048 485,-146.309 529.14,-128.344 542.139,-128.943 586,-110.309 607.826,-101.036 631.463,-89.4856 651.129,-79.4369"/>
<polygon fill="red" stroke="red" stroke-width="0.3175" points="652.863,-82.4808 660.151,-74.7906 649.658,-76.2576 652.863,-82.4808"/>
</g>
<!-- Turn Left -->
<g id="node28" class="node"><title>Turn Left</title>
<ellipse fill="lightblue" stroke="black" cx="870" cy="-55.1543" rx="35.2113" ry="35.2113"/>
<text text-anchor="middle" x="870" y="-52.9543" font-family="Times,serif" font-size="9.00">Turn Left</text>
</g>
<!-- wallRadar[1,0]&#45;&gt;Turn Left -->
<g id="edge70" class="edge"><title>wallRadar[1,0]&#45;&gt;Turn Left</title>
<path fill="none" stroke="red" stroke-width="0.333359" d="M455.65,-158.477C464.016,-154.223 474.833,-149.28 485,-146.309 596.55,-113.703 632.056,-141.534 744,-110.309 773.662,-102.035 805.512,-88.2994 829.769,-76.7321"/>
<polygon fill="red" stroke="red" stroke-width="0.333359" points="831.531,-79.7678 839.005,-72.2582 828.479,-73.468 831.531,-79.7678"/>
</g>
<!-- Turn Right -->
<g id="node29" class="node"><title>Turn Right</title>
<ellipse fill="lightblue" stroke="black" cx="537" cy="-55.1543" rx="39.6962" ry="39.6962"/>
<text text-anchor="middle" x="537" y="-52.9543" font-family="Times,serif" font-size="9.00">Turn Right</text>
</g>
<!-- wallRadar[1,0]&#45;&gt;Turn Right -->
<g id="edge40" class="edge"><title>wallRadar[1,0]&#45;&gt;Turn Right</title>
<path fill="none" stroke="red" stroke-width="0.161727" d="M448.216,-158.226C460.125,-144.534 484.594,-116.404 504.833,-93.1358"/>
<polygon fill="red" stroke="red" stroke-width="0.161727" points="507.588,-95.3013 511.51,-85.4591 502.306,-90.7072 507.588,-95.3013"/>
</g>
<!-- wallRadar[0,1] -->
<g id="node2" class="node"><title>wallRadar[0,1]</title>
<polygon fill="lightgray" stroke="black" points="842,-176.522 772,-176.522 772,-158.522 842,-158.522 842,-176.522"/>
<text text-anchor="middle" x="807" y="-165.322" font-family="Times,serif" font-size="9.00">wallRadar[0,1]</text>
</g>
<!-- wallRadar[0,1]&#45;&gt;Move Forward -->
<g id="edge11" class="edge"><title>wallRadar[0,1]&#45;&gt;Move Forward</title>
<path fill="none" stroke="green" stroke-width="0.386844" d="M834.471,-158.521C850.285,-154.226 870.609,-149.228 889,-146.309 1105.1,-112.002 1163.72,-143.486 1380,-110.309 1439.31,-101.211 1505.93,-84.8304 1552.14,-72.4595"/>
<polygon fill="green" stroke="green" stroke-width="0.386844" points="1553.23,-75.7906 1561.97,-69.8055 1551.41,-69.0324 1553.23,-75.7906"/>
</g>
<!-- wallRadar[0,1]&#45;&gt;Turn Left -->
<g id="edge36" class="edge"><title>wallRadar[0,1]&#45;&gt;Turn Left</title>
<path fill="none" stroke="red" stroke-width="0.663734" d="M811.735,-158.226C819.314,-144.949 834.642,-118.097 847.675,-95.2652"/>
<polygon fill="red" stroke="red" stroke-width="0.663734" points="850.802,-96.8466 852.72,-86.4268 844.723,-93.3764 850.802,-96.8466"/>
</g>
<!-- wallRadar[0,1]&#45;&gt;Turn Right -->
<g id="edge62" class="edge"><title>wallRadar[0,1]&#45;&gt;Turn Right</title>
<path fill="none" stroke="green" stroke-width="0.124503" d="M790.109,-158.35C781.752,-154.457 771.453,-149.883 762,-146.309 711.509,-127.214 696.11,-130.382 646,-110.309 623.987,-101.49 600.326,-89.9962 580.693,-79.867"/>
<polygon fill="green" stroke="green" stroke-width="0.124503" points="582.176,-76.6931 571.691,-75.1733 578.94,-82.9001 582.176,-76.6931"/>
</g>
<!-- wallRadar[&#45;1,0] -->
<g id="node3" class="node"><title>wallRadar[&#45;1,0]</title>
<polygon fill="lightgray" stroke="black" points="1420.5,-176.522 1347.5,-176.522 1347.5,-158.522 1420.5,-158.522 1420.5,-176.522"/>
<text text-anchor="middle" x="1384" y="-165.322" font-family="Times,serif" font-size="9.00">wallRadar[&#45;1,0]</text>
</g>
<!-- Shoot -->
<g id="node23" class="node"><title>Shoot</title>
<ellipse fill="lightblue" stroke="black" cx="1344" cy="-55.1543" rx="26.7407" ry="26.7407"/>
<text text-anchor="middle" x="1344" y="-52.9543" font-family="Times,serif" font-size="9.00">Shoot</text>
</g>
<!-- wallRadar[&#45;1,0]&#45;&gt;Shoot -->
<g id="edge5" class="edge"><title>wallRadar[&#45;1,0]&#45;&gt;Shoot</title>
<path fill="none" stroke="green" stroke-width="0.536969" d="M1380.99,-158.226C1375.82,-143.951 1364.96,-113.98 1356.33,-90.1887"/>
<polygon fill="green" stroke="green" stroke-width="0.536969" points="1359.62,-88.9731 1352.92,-80.7641 1353.04,-91.3583 1359.62,-88.9731"/>
</g>
<!-- wallRadar[&#45;1,0]&#45;&gt;Move Forward -->
<g id="edge59" class="edge"><title>wallRadar[&#45;1,0]&#45;&gt;Move Forward</title>
<path fill="none" stroke="red" stroke-width="0.130824" d="M1400.62,-158.406C1432.86,-142.66 1505.18,-107.343 1555.75,-82.6463"/>
<polygon fill="red" stroke="red" stroke-width="0.130824" points="1557.48,-85.699 1564.93,-78.1657 1554.41,-79.409 1557.48,-85.699"/>
</g>
<!--  Move Backward -->
<g id="node25" class="node"><title> Move Backward</title>
<ellipse fill="lightblue" stroke="black" cx="2091" cy="-55.1543" rx="55.3091" ry="55.3091"/>
<text text-anchor="middle" x="2091" y="-52.9543" font-family="Times,serif" font-size="9.00"> Move Backward</text>
</g>
<!-- wallRadar[&#45;1,0]&#45;&gt; Move Backward -->
<g id="edge60" class="edge"><title>wallRadar[&#45;1,0]&#45;&gt; Move Backward</title>
<path fill="none" stroke="red" stroke-width="0.196172" d="M1398.86,-158.382C1407.65,-153.985 1419.15,-148.932 1430,-146.309 1559.19,-115.088 1903.63,-159.76 2027,-110.309 2032.94,-107.927 2038.73,-104.767 2044.24,-101.164"/>
<polygon fill="red" stroke="red" stroke-width="0.196172" points="2046.53,-103.832 2052.66,-95.1889 2042.48,-98.1235 2046.53,-103.832"/>
</g>
<!-- wallRadar[&#45;1,0]&#45;&gt;Turn Right -->
<g id="edge48" class="edge"><title>wallRadar[&#45;1,0]&#45;&gt;Turn Right</title>
<path fill="none" stroke="green" stroke-width="0.25124" d="M1369.15,-158.349C1360.36,-153.94 1348.86,-148.887 1338,-146.309 1038.35,-75.1996 943.893,-188.452 646,-110.309 622.886,-104.245 598.922,-92.9708 579.37,-82.2725"/>
<polygon fill="green" stroke="green" stroke-width="0.25124" points="580.867,-79.099 570.433,-77.256 577.44,-85.2031 580.867,-79.099"/>
</g>
<!-- wallRadar[0,&#45;1] -->
<g id="node4" class="node"><title>wallRadar[0,&#45;1]</title>
<polygon fill="lightgray" stroke="black" points="215.5,-176.522 142.5,-176.522 142.5,-158.522 215.5,-158.522 215.5,-176.522"/>
<text text-anchor="middle" x="179" y="-165.322" font-family="Times,serif" font-size="9.00">wallRadar[0,&#45;1]</text>
</g>
<!-- wallRadar[0,&#45;1]&#45;&gt;Move right -->
<g id="edge66" class="edge"><title>wallRadar[0,&#45;1]&#45;&gt;Move right</title>
<path fill="none" stroke="red" stroke-width="0.264539" stroke-dasharray="1,5" d="M196.078,-158.377C205.804,-154.091 218.341,-149.15 230,-146.309 384.506,-108.652 433.206,-154.402 586,-110.309 608.96,-103.683 632.905,-92.3431 652.485,-81.7469"/>
<polygon fill="red" stroke="red" stroke-width="0.264539" points="654.385,-84.6959 661.438,-76.7902 650.994,-78.5718 654.385,-84.6959"/>
</g>
<!-- wallRadar[0,&#45;1]&#45;&gt;Turn Left -->
<g id="edge31" class="edge"><title>wallRadar[0,&#45;1]&#45;&gt;Turn Left</title>
<path fill="none" stroke="red" stroke-width="0.119555" d="M207.539,-158.442C223.688,-154.177 244.328,-149.234 263,-146.309 474.792,-113.123 535.785,-161.332 744,-110.309 773.909,-102.979 805.757,-89.2339 829.951,-77.4258"/>
<polygon fill="red" stroke="red" stroke-width="0.119555" points="831.764,-80.433 839.158,-72.8454 828.646,-74.1656 831.764,-80.433"/>
</g>
<!-- wallRadar[0,&#45;1]&#45;&gt;Turn Right -->
<g id="edge9" class="edge"><title>wallRadar[0,&#45;1]&#45;&gt;Turn Right</title>
<path fill="none" stroke="green" stroke-width="0.261384" d="M198.218,-158.422C207.707,-154.547 219.373,-149.966 230,-146.309 320.555,-115.141 428.376,-85.065 489.138,-68.7459"/>
<polygon fill="green" stroke="green" stroke-width="0.261384" points="490.082,-72.1166 498.837,-66.1506 488.272,-65.3545 490.082,-72.1166"/>
</g>
<!-- wallRadar[0.7,0.7] -->
<g id="node5" class="node"><title>wallRadar[0.7,0.7]</title>
<polygon fill="lightgray" stroke="black" points="2434.5,-242.735 2351.5,-242.735 2351.5,-224.735 2434.5,-224.735 2434.5,-242.735"/>
<text text-anchor="middle" x="2393" y="-231.535" font-family="Times,serif" font-size="9.00">wallRadar[0.7,0.7]</text>
</g>
<!-- wallRadar[0.7,0.7]&#45;&gt;Move Forward -->
<g id="edge16" class="edge"><title>wallRadar[0.7,0.7]&#45;&gt;Move Forward</title>
<path fill="none" stroke="red" stroke-width="0.207371" d="M2351.26,-229.515C2313.18,-225.012 2256.53,-214.267 2214,-188.735 2192.3,-175.705 2198.29,-158.305 2176,-146.309 2079.86,-94.5675 2040.84,-127.336 1933,-110.309 1840.9,-95.7678 1734.27,-77.636 1669.5,-66.4794"/>
<polygon fill="red" stroke="red" stroke-width="0.207371" points="1669.93,-63.0008 1659.48,-64.7504 1668.74,-69.899 1669.93,-63.0008"/>
</g>
<!-- wallRadar[0.7,0.7]&#45;&gt; Move Backward -->
<g id="edge2" class="edge"><title>wallRadar[0.7,0.7]&#45;&gt; Move Backward</title>
<path fill="none" stroke="green" stroke-width="0.497906" stroke-dasharray="1,5" d="M2434.5,-226.319C2474.49,-219.188 2530.81,-206.318 2544,-188.735 2555.32,-173.652 2555.96,-160.885 2544,-146.309 2495.72,-87.4738 2269.97,-66.3222 2156.48,-59.3183"/>
<polygon fill="green" stroke="green" stroke-width="0.497906" points="2156.38,-55.8061 2146.19,-58.703 2155.96,-62.7936 2156.38,-55.8061"/>
</g>
<!-- Move Left -->
<g id="node26" class="node"><title>Move Left</title>
<ellipse fill="lightblue" stroke="black" cx="1980" cy="-55.1543" rx="38.3684" ry="38.3684"/>
<text text-anchor="middle" x="1980" y="-52.9543" font-family="Times,serif" font-size="9.00">Move Left</text>
</g>
<!-- wallRadar[0.7,0.7]&#45;&gt;Move Left -->
<g id="edge67" class="edge"><title>wallRadar[0.7,0.7]&#45;&gt;Move Left</title>
<path fill="none" stroke="red" stroke-width="0.351899" d="M2392,-224.653C2389.37,-207.107 2380.5,-165.562 2354,-146.309 2235.71,-60.3727 2156.5,-178.193 2027,-110.309 2019.79,-106.529 2013.2,-101.147 2007.38,-95.2279"/>
<polygon fill="red" stroke="red" stroke-width="0.351899" points="2009.72,-92.605 2000.43,-87.523 2004.53,-97.2932 2009.72,-92.605"/>
</g>
<!-- wallRadar[0.7,0.7]&#45;&gt;Turn Left -->
<g id="edge46" class="edge"><title>wallRadar[0.7,0.7]&#45;&gt;Turn Left</title>
<path fill="none" stroke="red" stroke-width="0.123525" d="M2351.23,-231.877C2109.78,-226.875 903.028,-201.26 889,-188.735 864.873,-167.193 861.356,-129.918 863.174,-100.368"/>
<polygon fill="red" stroke="red" stroke-width="0.123525" points="866.673,-100.532 864.015,-90.2761 859.697,-99.9509 866.673,-100.532"/>
</g>
<!-- 97 -->
<g id="node30" class="node"><title>97</title>
<ellipse fill="white" stroke="black" cx="2623" cy="-167.522" rx="18.2703" ry="18.2703"/>
<text text-anchor="middle" x="2623" y="-165.322" font-family="Times,serif" font-size="9.00">97</text>
</g>
<!-- wallRadar[0.7,0.7]&#45;&gt;97 -->
<g id="edge78" class="edge"><title>wallRadar[0.7,0.7]&#45;&gt;97</title>
<path fill="none" stroke="green" stroke-width="0.170887" d="M2434.83,-227.706C2475.79,-221.805 2539.4,-210.007 2591,-188.735 2593.94,-187.522 2596.92,-186.044 2599.81,-184.446"/>
<polygon fill="green" stroke="green" stroke-width="0.170887" points="2601.87,-187.286 2608.6,-179.102 2598.24,-181.303 2601.87,-187.286"/>
</g>
<!-- wallRadar[&#45;0.7,0.7] -->
<g id="node6" class="node"><title>wallRadar[&#45;0.7,0.7]</title>
<polygon fill="lightgray" stroke="black" points="580,-176.522 494,-176.522 494,-158.522 580,-158.522 580,-176.522"/>
<text text-anchor="middle" x="537" y="-165.322" font-family="Times,serif" font-size="9.00">wallRadar[&#45;0.7,0.7]</text>
</g>
<!-- wallRadar[&#45;0.7,0.7]&#45;&gt;Move Left -->
<g id="edge50" class="edge"><title>wallRadar[&#45;0.7,0.7]&#45;&gt;Move Left</title>
<path fill="none" stroke="red" stroke-width="0.270516" d="M566.344,-158.477C583.817,-154.052 606.51,-148.94 627,-146.309 1086.61,-87.2809 1208.09,-158.169 1669,-110.309 1763.3,-100.516 1872.17,-79.2294 1932.86,-66.4544"/>
<polygon fill="red" stroke="red" stroke-width="0.270516" points="1933.83,-69.8245 1942.89,-64.3265 1932.38,-62.9768 1933.83,-69.8245"/>
</g>
<!-- wallRadar[&#45;0.7,0.7]&#45;&gt;Move right -->
<g id="edge23" class="edge"><title>wallRadar[&#45;0.7,0.7]&#45;&gt;Move right</title>
<path fill="none" stroke="green" stroke-width="0.218228" d="M548.618,-158.406C570.561,-143.078 619.052,-109.206 654.224,-84.6373"/>
<polygon fill="green" stroke="green" stroke-width="0.218228" points="656.662,-87.2042 662.855,-78.6084 652.653,-81.4656 656.662,-87.2042"/>
</g>
<!-- wallRadar[&#45;0.7,0.7]&#45;&gt;Turn Left -->
<g id="edge69" class="edge"><title>wallRadar[&#45;0.7,0.7]&#45;&gt;Turn Left</title>
<path fill="none" stroke="green" stroke-width="0.331486" d="M557.94,-158.501C568.641,-154.555 581.92,-149.889 594,-146.309 659.733,-126.825 678.937,-131.923 744,-110.309 773.124,-100.634 804.861,-86.9733 829.197,-75.7932"/>
<polygon fill="green" stroke="green" stroke-width="0.331486" points="830.877,-78.8722 838.474,-71.4872 827.93,-72.5228 830.877,-78.8722"/>
</g>
<!-- wallRadar[&#45;0.7,0.7]&#45;&gt;Turn Right -->
<g id="edge3" class="edge"><title>wallRadar[&#45;0.7,0.7]&#45;&gt;Turn Right</title>
<path fill="none" stroke="green" stroke-width="0.360641" d="M537,-158.226C537,-146.819 537,-125.389 537,-105.099"/>
<polygon fill="green" stroke="green" stroke-width="0.360641" points="540.5,-104.966 537,-94.9664 533.5,-104.966 540.5,-104.966"/>
</g>
<!-- wallRadar[&#45;0.7,&#45;0.7] -->
<g id="node7" class="node"><title>wallRadar[&#45;0.7,&#45;0.7]</title>
<polygon fill="lightgray" stroke="black" points="2510.5,-176.522 2421.5,-176.522 2421.5,-158.522 2510.5,-158.522 2510.5,-176.522"/>
<text text-anchor="middle" x="2466" y="-165.322" font-family="Times,serif" font-size="9.00">wallRadar[&#45;0.7,&#45;0.7]</text>
</g>
<!-- wallRadar[&#45;0.7,&#45;0.7]&#45;&gt;Move Forward -->
<g id="edge54" class="edge"><title>wallRadar[&#45;0.7,&#45;0.7]&#45;&gt;Move Forward</title>
<path fill="none" stroke="green" stroke-width="0.27796" stroke-dasharray="1,5" d="M2421.28,-158.831C2396.25,-154.714 2364.45,-149.788 2336,-146.309 2157.51,-124.483 2111.36,-133.193 1933,-110.309 1840.52,-98.4436 1733.99,-79.5597 1669.35,-67.5167"/>
<polygon fill="green" stroke="green" stroke-width="0.27796" points="1669.82,-64.0435 1659.35,-65.6447 1668.53,-70.9241 1669.82,-64.0435"/>
</g>
<!-- wallRadar[&#45;0.7,&#45;0.7]&#45;&gt; Move Backward -->
<g id="edge45" class="edge"><title>wallRadar[&#45;0.7,&#45;0.7]&#45;&gt; Move Backward</title>
<path fill="none" stroke="red" stroke-width="0.24833" d="M2443.4,-158.469C2432.45,-154.649 2419.09,-150.101 2407,-146.309 2319.81,-118.955 2218.01,-90.5359 2154.02,-73.0938"/>
<polygon fill="red" stroke="red" stroke-width="0.24833" points="2154.66,-69.6384 2144.09,-70.3906 2152.82,-76.3929 2154.66,-69.6384"/>
</g>
<!-- wallRadar[&#45;0.7,&#45;0.7]&#45;&gt;Move Left -->
<g id="edge55" class="edge"><title>wallRadar[&#45;0.7,&#45;0.7]&#45;&gt;Move Left</title>
<path fill="none" stroke="red" stroke-width="0.152238" d="M2446.39,-158.504C2435.07,-154.203 2420.44,-149.206 2407,-146.309 2324.08,-128.439 2102.42,-149.119 2027,-110.309 2019.76,-106.584 2013.15,-101.229 2007.33,-95.3192"/>
<polygon fill="red" stroke="red" stroke-width="0.152238" points="2009.68,-92.6965 2000.38,-87.6179 2004.48,-97.3866 2009.68,-92.6965"/>
</g>
<!-- wallRadar[0.7,&#45;0.7] -->
<g id="node8" class="node"><title>wallRadar[0.7,&#45;0.7]</title>
<polygon fill="lightgray" stroke="black" points="86,-176.522 0,-176.522 0,-158.522 86,-158.522 86,-176.522"/>
<text text-anchor="middle" x="43" y="-165.322" font-family="Times,serif" font-size="9.00">wallRadar[0.7,&#45;0.7]</text>
</g>
<!-- wallRadar[0.7,&#45;0.7]&#45;&gt;Turn Right -->
<g id="edge6" class="edge"><title>wallRadar[0.7,&#45;0.7]&#45;&gt;Turn Right</title>
<path fill="none" stroke="red" stroke-width="0.312584" d="M63.6265,-158.436C74.3597,-154.426 87.7629,-149.723 100,-146.309 238.817,-107.574 406.665,-77.5246 488.034,-63.9942"/>
<polygon fill="red" stroke="red" stroke-width="0.312584" points="488.695,-67.4326 497.991,-62.3494 487.554,-60.5262 488.695,-67.4326"/>
</g>
<!-- enemyRadar[RightBack] -->
<g id="node9" class="node"><title>enemyRadar[RightBack]</title>
<polygon fill="lightgray" stroke="black" points="2327,-176.522 2223,-176.522 2223,-158.522 2327,-158.522 2327,-176.522"/>
<text text-anchor="middle" x="2275" y="-165.322" font-family="Times,serif" font-size="9.00">enemyRadar[RightBack]</text>
</g>
<!-- enemyRadar[RightBack]&#45;&gt;Move Forward -->
<g id="edge49" class="edge"><title>enemyRadar[RightBack]&#45;&gt;Move Forward</title>
<path fill="none" stroke="red" stroke-width="0.185456" d="M2252.04,-158.452C2239.46,-154.297 2223.52,-149.456 2209,-146.309 2088.1,-120.104 2055.36,-128.539 1933,-110.309 1840.78,-96.5684 1734.18,-78.2116 1669.46,-66.7898"/>
<polygon fill="red" stroke="red" stroke-width="0.185456" points="1669.89,-63.3129 1659.44,-65.018 1668.67,-70.2059 1669.89,-63.3129"/>
</g>
<!-- enemyRadar[RightBack]&#45;&gt;Move Left -->
<g id="edge1" class="edge"><title>enemyRadar[RightBack]&#45;&gt;Move Left</title>
<path fill="none" stroke="green" stroke-width="0.186743" d="M2250.72,-158.437C2238.32,-154.474 2222.95,-149.814 2209,-146.309 2129.03,-126.21 2098.32,-151.683 2027,-110.309 2020.03,-106.268 2013.59,-100.812 2007.84,-94.9129"/>
<polygon fill="green" stroke="green" stroke-width="0.186743" points="2010.25,-92.3586 2000.96,-87.2781 2005.06,-97.0476 2010.25,-92.3586"/>
</g>
<!-- enemyRadar[LeftBack] -->
<g id="node10" class="node"><title>enemyRadar[LeftBack]</title>
<polygon fill="lightgray" stroke="black" points="1260.5,-176.522 1161.5,-176.522 1161.5,-158.522 1260.5,-158.522 1260.5,-176.522"/>
<text text-anchor="middle" x="1211" y="-165.322" font-family="Times,serif" font-size="9.00">enemyRadar[LeftBack]</text>
</g>
<!-- enemyRadar[LeftBack]&#45;&gt;Shoot -->
<g id="edge12" class="edge"><title>enemyRadar[LeftBack]&#45;&gt;Shoot</title>
<path fill="none" stroke="red" stroke-width="0.567591" stroke-dasharray="1,5" d="M1221,-158.226C1240.88,-141.73 1286.01,-104.276 1315.73,-79.6171"/>
<polygon fill="red" stroke="red" stroke-width="0.567591" points="1318.2,-82.1088 1323.66,-73.0294 1313.73,-76.7219 1318.2,-82.1088"/>
</g>
<!-- enemyRadar[LeftBack]&#45;&gt;Move Forward -->
<g id="edge57" class="edge"><title>enemyRadar[LeftBack]&#45;&gt;Move Forward</title>
<path fill="none" stroke="green" stroke-width="0.427755" d="M1233.29,-158.468C1244.28,-154.603 1257.77,-150.019 1270,-146.309 1367.83,-116.622 1483.1,-87.2093 1551.17,-70.4068"/>
<polygon fill="green" stroke="green" stroke-width="0.427755" points="1552.4,-73.7092 1561.27,-67.9205 1550.73,-66.912 1552.4,-73.7092"/>
</g>
<!-- enemyRadar[LeftBack]&#45;&gt;Turn Left -->
<g id="edge65" class="edge"><title>enemyRadar[LeftBack]&#45;&gt;Turn Left</title>
<path fill="none" stroke="red" stroke-width="0.346137" d="M1187.78,-158.443C1176.93,-154.699 1163.82,-150.223 1152,-146.309 1067.71,-118.399 968.768,-87.1044 913.33,-69.7016"/>
<polygon fill="red" stroke="red" stroke-width="0.346137" points="914.087,-66.271 903.498,-66.6177 911.992,-72.9502 914.087,-66.271"/>
</g>
<!-- enemyRadar[Right] -->
<g id="node11" class="node"><title>enemyRadar[Right]</title>
<polygon fill="lightgray" stroke="black" points="1755,-176.522 1669,-176.522 1669,-158.522 1755,-158.522 1755,-176.522"/>
<text text-anchor="middle" x="1712" y="-165.322" font-family="Times,serif" font-size="9.00">enemyRadar[Right]</text>
</g>
<!-- enemyRadar[Right]&#45;&gt;Shoot -->
<g id="edge41" class="edge"><title>enemyRadar[Right]&#45;&gt;Shoot</title>
<path fill="none" stroke="red" stroke-width="0.33423" d="M1692.01,-158.435C1682.15,-154.563 1670.02,-149.981 1659,-146.309 1558.96,-112.984 1438.64,-80.6502 1379.86,-65.3452"/>
<polygon fill="red" stroke="red" stroke-width="0.33423" points="1380.51,-61.8991 1369.95,-62.776 1378.75,-68.6749 1380.51,-61.8991"/>
</g>
<!-- enemyRadar[Right]&#45;&gt;Move Forward -->
<g id="edge61" class="edge"><title>enemyRadar[Right]&#45;&gt;Move Forward</title>
<path fill="none" stroke="red" stroke-width="0.279625" d="M1704.33,-158.226C1692.94,-145.894 1670.71,-121.85 1650.7,-100.194"/>
<polygon fill="red" stroke="red" stroke-width="0.279625" points="1653.09,-97.6258 1643.74,-92.6573 1647.95,-102.377 1653.09,-97.6258"/>
</g>
<!-- enemyRadar[Right]&#45;&gt; Move Backward -->
<g id="edge4" class="edge"><title>enemyRadar[Right]&#45;&gt; Move Backward</title>
<path fill="none" stroke="green" stroke-width="0.505402" d="M1730.31,-158.356C1740.37,-154.172 1753.17,-149.335 1765,-146.309 1878.87,-117.178 1919.65,-158.172 2027,-110.309 2032.85,-107.703 2038.57,-104.394 2044.04,-100.702"/>
<polygon fill="green" stroke="green" stroke-width="0.505402" points="2046.38,-103.332 2052.42,-94.6286 2042.27,-97.6647 2046.38,-103.332"/>
</g>
<!-- enemyRadar[Right]&#45;&gt;Move right -->
<g id="edge14" class="edge"><title>enemyRadar[Right]&#45;&gt;Move right</title>
<path fill="none" stroke="green" stroke-width="0.431774" d="M1694.76,-158.328C1684.59,-153.913 1671.34,-148.86 1659,-146.309 1296.1,-71.3188 1187.83,-190.307 826,-110.309 795.85,-103.643 763.786,-90.5021 738.926,-78.8349"/>
<polygon fill="green" stroke="green" stroke-width="0.431774" points="740.301,-75.6129 729.77,-74.4521 737.279,-81.9268 740.301,-75.6129"/>
</g>
<!-- enemyRadar[Left] -->
<g id="node12" class="node"><title>enemyRadar[Left]</title>
<polygon fill="lightgray" stroke="black" points="1650.5,-176.522 1569.5,-176.522 1569.5,-158.522 1650.5,-158.522 1650.5,-176.522"/>
<text text-anchor="middle" x="1610" y="-165.322" font-family="Times,serif" font-size="9.00">enemyRadar[Left]</text>
</g>
<!-- enemyRadar[Left]&#45;&gt;Shoot -->
<g id="edge29" class="edge"><title>enemyRadar[Left]&#45;&gt;Shoot</title>
<path fill="none" stroke="green" stroke-width="0.251576" d="M1590.44,-158.406C1545.51,-139.762 1434.45,-93.6835 1378.05,-70.2808"/>
<polygon fill="green" stroke="green" stroke-width="0.251576" points="1379.08,-66.9212 1368.5,-66.3215 1376.4,-73.3867 1379.08,-66.9212"/>
</g>
<!-- enemyRadar[Left]&#45;&gt;Move Forward -->
<g id="edge63" class="edge"><title>enemyRadar[Left]&#45;&gt;Move Forward</title>
<path fill="none" stroke="green" stroke-width="0.602455" stroke-dasharray="1,5" d="M1610,-158.226C1610,-148.844 1610,-132.682 1610,-115.951"/>
<polygon fill="green" stroke="green" stroke-width="0.602455" points="1613.5,-115.515 1610,-105.515 1606.5,-115.515 1613.5,-115.515"/>
</g>
<!-- enemyRadar[Left]&#45;&gt; Move Backward -->
<g id="edge18" class="edge"><title>enemyRadar[Left]&#45;&gt; Move Backward</title>
<path fill="none" stroke="green" stroke-width="0.394687" d="M1626.72,-158.357C1636.25,-154.065 1648.54,-149.124 1660,-146.309 1819.16,-107.195 1876.04,-174.135 2027,-110.309 2032.89,-107.816 2038.65,-104.583 2044.15,-100.936"/>
<polygon fill="green" stroke="green" stroke-width="0.394687" points="2046.46,-103.585 2052.54,-94.9121 2042.38,-97.8966 2046.46,-103.585"/>
</g>
<!-- enemyRadar[Left]&#45;&gt;Move Left -->
<g id="edge74" class="edge"><title>enemyRadar[Left]&#45;&gt;Move Left</title>
<path fill="none" stroke="green" stroke-width="0.704952" d="M1628.81,-158.349C1638.11,-154.456 1649.55,-149.882 1660,-146.309 1755.71,-113.59 1870.34,-83.4196 1933.13,-67.6407"/>
<polygon fill="green" stroke="green" stroke-width="0.704952" points="1934.27,-70.9631 1943.13,-65.1413 1932.58,-64.1723 1934.27,-70.9631"/>
</g>
<!-- enemyRadar[Left]&#45;&gt;Move right -->
<g id="edge38" class="edge"><title>enemyRadar[Left]&#45;&gt;Move right</title>
<path fill="none" stroke="red" stroke-width="0.654352" stroke-dasharray="1,5" d="M1593.78,-158.347C1584.2,-153.938 1571.7,-148.884 1560,-146.309 1241.02,-76.1184 1144.71,-181.746 826,-110.309 795.87,-103.555 763.806,-90.4127 738.941,-78.7666"/>
<polygon fill="red" stroke="red" stroke-width="0.654352" points="740.316,-75.5442 729.784,-74.3928 737.299,-81.8608 740.316,-75.5442"/>
</g>
<!-- enemyRadar[Left]&#45;&gt;Turn Left -->
<g id="edge13" class="edge"><title>enemyRadar[Left]&#45;&gt;Turn Left</title>
<path fill="none" stroke="green" stroke-width="0.521133" d="M1593.24,-158.499C1583.7,-154.251 1571.41,-149.308 1560,-146.309 1528.62,-138.06 1063.94,-80.1598 915.334,-61.7559"/>
<polygon fill="green" stroke="green" stroke-width="0.521133" points="915.545,-58.2555 905.191,-60.5003 914.685,-65.2025 915.545,-58.2555"/>
</g>
<!-- enemyRadar[RightFront30] -->
<g id="node13" class="node"><title>enemyRadar[RightFront30]</title>
<polygon fill="lightgray" stroke="black" points="387.5,-176.522 272.5,-176.522 272.5,-158.522 387.5,-158.522 387.5,-176.522"/>
<text text-anchor="middle" x="330" y="-165.322" font-family="Times,serif" font-size="9.00">enemyRadar[RightFront30]</text>
</g>
<!-- enemyRadar[RightFront30]&#45;&gt;Shoot -->
<g id="edge8" class="edge"><title>enemyRadar[RightFront30]&#45;&gt;Shoot</title>
<path fill="none" stroke="red" stroke-width="0.151749" d="M352.027,-158.518C364.953,-154.165 381.703,-149.112 397,-146.309 623.561,-104.786 684.758,-132.708 914,-110.309 1059.96,-96.0467 1232.93,-72.1089 1307.17,-61.497"/>
<polygon fill="red" stroke="red" stroke-width="0.151749" points="1307.99,-64.9153 1317.39,-60.0307 1306.99,-57.9862 1307.99,-64.9153"/>
</g>
<!-- enemyRadar[RightFront30]&#45;&gt;Move right -->
<g id="edge75" class="edge"><title>enemyRadar[RightFront30]&#45;&gt;Move right</title>
<path fill="none" stroke="red" stroke-width="0.233906" d="M354.334,-158.51C366.973,-154.519 382.722,-149.812 397,-146.309 480.047,-125.932 504.957,-137.586 586,-110.309 608.648,-102.686 632.557,-91.2298 652.194,-80.8147"/>
<polygon fill="red" stroke="red" stroke-width="0.233906" points="654.043,-83.7941 661.18,-75.9641 650.718,-77.6342 654.043,-83.7941"/>
</g>
<!-- enemyRadar[RightFront30]&#45;&gt;Turn Right -->
<g id="edge68" class="edge"><title>enemyRadar[RightFront30]&#45;&gt;Turn Right</title>
<path fill="none" stroke="red" stroke-width="0.313285" stroke-dasharray="1,5" d="M345.221,-158.406C376.032,-141.978 446.795,-104.25 493.209,-79.5025"/>
<polygon fill="red" stroke="red" stroke-width="0.313285" points="494.971,-82.5296 502.149,-74.7363 491.678,-76.3527 494.971,-82.5296"/>
</g>
<!-- enemyRadar[LeftFront30] -->
<g id="node14" class="node"><title>enemyRadar[LeftFront30]</title>
<polygon fill="lightgray" stroke="black" points="1972,-242.735 1862,-242.735 1862,-224.735 1972,-224.735 1972,-242.735"/>
<text text-anchor="middle" x="1917" y="-231.535" font-family="Times,serif" font-size="9.00">enemyRadar[LeftFront30]</text>
</g>
<!-- enemyRadar[LeftFront30]&#45;&gt;Move Forward -->
<g id="edge35" class="edge"><title>enemyRadar[LeftFront30]&#45;&gt;Move Forward</title>
<path fill="none" stroke="red" stroke-width="0.527704" d="M1917.7,-224.634C1918.68,-207.772 1918.45,-168.619 1898,-146.309 1839.36,-82.3346 1736.04,-63.4038 1670.4,-58.0103"/>
<polygon fill="red" stroke="red" stroke-width="0.527704" points="1670.43,-54.5032 1660.2,-57.2561 1669.91,-61.4842 1670.43,-54.5032"/>
</g>
<!-- enemyRadar[LeftFront30]&#45;&gt; Move Backward -->
<g id="edge37" class="edge"><title>enemyRadar[LeftFront30]&#45;&gt; Move Backward</title>
<path fill="none" stroke="red" stroke-width="0.611157" d="M1972.04,-232.887C2113.83,-232.707 2483.13,-228.398 2520,-188.735 2626.78,-73.8802 2300.82,-57.6657 2156.3,-55.9886"/>
<polygon fill="red" stroke="red" stroke-width="0.611157" points="2156.25,-52.4881 2146.22,-55.8918 2156.18,-59.4877 2156.25,-52.4881"/>
</g>
<!-- enemyRadar[LeftFront30]&#45;&gt;Move Left -->
<g id="edge52" class="edge"><title>enemyRadar[LeftFront30]&#45;&gt;Move Left</title>
<path fill="none" stroke="green" stroke-width="0.250208" d="M1972.14,-230.975C2080.33,-226.952 2312.08,-215.3 2336,-188.735 2348.62,-174.723 2348.54,-160.392 2336,-146.309 2290.03,-94.6746 2088.13,-142.599 2027,-110.309 2019.8,-106.506 2013.21,-101.113 2007.4,-95.19"/>
<polygon fill="green" stroke="green" stroke-width="0.250208" points="2009.74,-92.567 2000.45,-87.4836 2004.54,-97.2543 2009.74,-92.567"/>
</g>
<!-- enemyRadar[LeftFront30]&#45;&gt;Move right -->
<g id="edge44" class="edge"><title>enemyRadar[LeftFront30]&#45;&gt;Move right</title>
<path fill="none" stroke="red" stroke-width="0.153042" d="M1861.59,-232.312C1576.98,-230.012 291.51,-218.014 263,-188.735 249.845,-175.226 250.427,-160.361 263,-146.309 311.157,-92.4857 516.713,-130.687 586,-110.309 608.925,-103.566 632.867,-92.2123 652.453,-81.6374"/>
<polygon fill="red" stroke="red" stroke-width="0.153042" points="654.347,-84.5901 661.41,-76.6931 650.964,-78.4618 654.347,-84.5901"/>
</g>
<!-- enemyRadar[LeftFront30]&#45;&gt;Turn Left -->
<g id="edge10" class="edge"><title>enemyRadar[LeftFront30]&#45;&gt;Turn Left</title>
<path fill="none" stroke="green" stroke-width="0.289202" d="M1861.6,-232.966C1620.24,-233.702 670.483,-233.726 627,-188.735 613.896,-175.176 615.798,-161.476 627,-146.309 659.323,-102.545 692.934,-129.077 744,-110.309 772.805,-99.7218 804.544,-86.0678 828.961,-75.1189"/>
<polygon fill="green" stroke="green" stroke-width="0.289202" points="830.6,-78.2195 838.274,-70.9152 827.72,-71.8394 830.6,-78.2195"/>
</g>
<!-- enemyRadar[LeftFront30]&#45;&gt;Turn Right -->
<g id="edge39" class="edge"><title>enemyRadar[LeftFront30]&#45;&gt;Turn Right</title>
<path fill="none" stroke="green" stroke-width="0.464325" d="M1861.71,-232.423C1564,-230.616 163.932,-220.439 133,-188.735 26.0926,-79.1584 357.52,-60.1101 487.257,-56.8272"/>
<polygon fill="green" stroke="green" stroke-width="0.464325" points="487.424,-60.3243 497.341,-56.5936 487.262,-53.3262 487.424,-60.3243"/>
</g>
<!-- 180 -->
<g id="node31" class="node"><title>180</title>
<ellipse fill="white" stroke="black" cx="2146" cy="-167.522" rx="21.4286" ry="21.4286"/>
<text text-anchor="middle" x="2146" y="-165.322" font-family="Times,serif" font-size="9.00">180</text>
</g>
<!-- enemyRadar[LeftFront30]&#45;&gt;180 -->
<g id="edge80" class="edge"><title>enemyRadar[LeftFront30]&#45;&gt;180</title>
<path fill="none" stroke="green" stroke-width="0.478798" stroke-dasharray="1,5" d="M1972.34,-226.18C2013.25,-219.995 2069.66,-208.614 2116,-188.735 2117.59,-188.054 2119.18,-187.286 2120.76,-186.458"/>
<polygon fill="green" stroke="green" stroke-width="0.478798" points="2122.71,-189.368 2129.51,-181.238 2119.12,-183.357 2122.71,-189.368"/>
</g>
<!-- enemyRadar[RightFront10] -->
<g id="node15" class="node"><title>enemyRadar[RightFront10]</title>
<polygon fill="lightgray" stroke="black" points="1888.5,-176.522 1773.5,-176.522 1773.5,-158.522 1888.5,-158.522 1888.5,-176.522"/>
<text text-anchor="middle" x="1831" y="-165.322" font-family="Times,serif" font-size="9.00">enemyRadar[RightFront10]</text>
</g>
<!-- enemyRadar[RightFront10]&#45;&gt;Shoot -->
<g id="edge72" class="edge"><title>enemyRadar[RightFront10]&#45;&gt;Shoot</title>
<path fill="none" stroke="red" stroke-width="0.18985" d="M1807.01,-158.485C1794.32,-154.44 1778.43,-149.691 1764,-146.309 1670.52,-124.4 1644.87,-130.478 1551,-110.309 1490.23,-97.2513 1420.47,-78.1284 1379.43,-66.4467"/>
<polygon fill="red" stroke="red" stroke-width="0.18985" points="1380.22,-63.031 1369.64,-63.6453 1378.29,-69.761 1380.22,-63.031"/>
</g>
<!-- enemyRadar[RightFront10]&#45;&gt;Move Forward -->
<g id="edge53" class="edge"><title>enemyRadar[RightFront10]&#45;&gt;Move Forward</title>
<path fill="none" stroke="red" stroke-width="0.146372" d="M1814.75,-158.406C1783.31,-142.707 1712.92,-107.553 1663.49,-82.8671"/>
<polygon fill="red" stroke="red" stroke-width="0.146372" points="1665.03,-79.7233 1654.52,-78.3867 1661.9,-85.9858 1665.03,-79.7233"/>
</g>
<!-- enemyRadar[RightFront10]&#45;&gt; Move Backward -->
<g id="edge22" class="edge"><title>enemyRadar[RightFront10]&#45;&gt; Move Backward</title>
<path fill="none" stroke="red" stroke-width="0.463848" d="M1879.9,-158.462C1920.93,-150.333 1980.17,-135.335 2027,-110.309 2032.56,-107.337 2038.07,-103.821 2043.39,-100.03"/>
<polygon fill="red" stroke="red" stroke-width="0.463848" points="2045.68,-102.689 2051.57,-93.8841 2041.47,-97.0929 2045.68,-102.689"/>
</g>
<!-- enemyRadar[RightFront10]&#45;&gt;Turn Left -->
<g id="edge27" class="edge"><title>enemyRadar[RightFront10]&#45;&gt;Turn Left</title>
<path fill="none" stroke="red" stroke-width="0.282877" d="M1808.66,-158.469C1795.77,-154.157 1779.16,-149.161 1764,-146.309 1564.21,-108.734 1510.26,-130.787 1308,-110.309 1164.28,-95.7577 994.685,-73.267 915.28,-62.4234"/>
<polygon fill="red" stroke="red" stroke-width="0.282877" points="915.523,-58.9241 905.141,-61.0351 914.573,-65.8594 915.523,-58.9241"/>
</g>
<!-- enemyRadar[LeftFront10] -->
<g id="node16" class="node"><title>enemyRadar[LeftFront10]</title>
<polygon fill="lightgray" stroke="black" points="1008,-176.522 898,-176.522 898,-158.522 1008,-158.522 1008,-176.522"/>
<text text-anchor="middle" x="953" y="-165.322" font-family="Times,serif" font-size="9.00">enemyRadar[LeftFront10]</text>
</g>
<!-- enemyRadar[LeftFront10]&#45;&gt;Move Forward -->
<g id="edge43" class="edge"><title>enemyRadar[LeftFront10]&#45;&gt;Move Forward</title>
<path fill="none" stroke="red" stroke-width="0.548744" d="M974.624,-158.461C986.889,-154.202 1002.62,-149.26 1017,-146.309 1175.82,-113.721 1220.08,-136.945 1380,-110.309 1439,-100.482 1505.4,-84.2822 1551.63,-72.1565"/>
<polygon fill="red" stroke="red" stroke-width="0.548744" points="1552.7,-75.4951 1561.47,-69.5573 1550.91,-68.7272 1552.7,-75.4951"/>
</g>
<!-- enemyRadar[LeftFront10]&#45;&gt;Move Left -->
<g id="edge7" class="edge"><title>enemyRadar[LeftFront10]&#45;&gt;Move Left</title>
<path fill="none" stroke="green" stroke-width="0.188094" d="M973.996,-158.424C986.328,-154.04 1002.33,-148.987 1017,-146.309 1302.5,-94.1973 1380.66,-143.259 1669,-110.309 1763.2,-99.5445 1872.1,-78.5992 1932.82,-66.1478"/>
<polygon fill="green" stroke="green" stroke-width="0.188094" points="1933.78,-69.5244 1942.86,-64.0757 1932.36,-62.6688 1933.78,-69.5244"/>
</g>
<!-- enemyRadar[LeftFront10]&#45;&gt;Move right -->
<g id="edge34" class="edge"><title>enemyRadar[LeftFront10]&#45;&gt;Move right</title>
<path fill="none" stroke="red" stroke-width="0.194916" d="M934.029,-158.406C893.656,-141.136 798.249,-100.322 740.927,-75.8009"/>
<polygon fill="red" stroke="red" stroke-width="0.194916" points="741.949,-72.4315 731.378,-71.7164 739.196,-78.8674 741.949,-72.4315"/>
</g>
<!-- enemyRadar[LeftFront10]&#45;&gt;Turn Right -->
<g id="edge47" class="edge"><title>enemyRadar[LeftFront10]&#45;&gt;Turn Right</title>
<path fill="none" stroke="green" stroke-width="0.347001" d="M913.318,-158.449C894.458,-154.666 871.585,-150.155 851,-146.309 760.069,-129.317 733.883,-139.186 646,-110.309 623.298,-102.849 599.382,-91.4119 579.755,-80.9672"/>
<polygon fill="green" stroke="green" stroke-width="0.347001" points="581.234,-77.7878 570.775,-76.0992 577.898,-83.9418 581.234,-77.7878"/>
</g>
<!-- enemyRadar[RightFront3.5] -->
<g id="node17" class="node"><title>enemyRadar[RightFront3.5]</title>
<polygon fill="lightgray" stroke="black" points="753.5,-176.522 636.5,-176.522 636.5,-158.522 753.5,-158.522 753.5,-176.522"/>
<text text-anchor="middle" x="695" y="-165.322" font-family="Times,serif" font-size="9.00">enemyRadar[RightFront3.5]</text>
</g>
<!-- enemyRadar[RightFront3.5]&#45;&gt;Shoot -->
<g id="edge25" class="edge"><title>enemyRadar[RightFront3.5]&#45;&gt;Shoot</title>
<path fill="none" stroke="red" stroke-width="0.125391" d="M719.024,-158.518C731.946,-154.432 748.221,-149.636 763,-146.309 966.281,-100.544 1214.79,-70.4407 1307.15,-60.1212"/>
<polygon fill="red" stroke="red" stroke-width="0.125391" points="1307.57,-63.5965 1317.12,-59.0165 1306.79,-56.6391 1307.57,-63.5965"/>
</g>
<!-- enemyRadar[RightFront3.5]&#45;&gt;Move Forward -->
<g id="edge77" class="edge"><title>enemyRadar[RightFront3.5]&#45;&gt;Move Forward</title>
<path fill="none" stroke="red" stroke-width="0.43783" d="M717.354,-158.458C730.472,-154.085 747.472,-149.032 763,-146.309 1033.56,-98.8598 1108.18,-149.934 1380,-110.309 1439.37,-101.653 1505.98,-85.2096 1552.18,-72.7033"/>
<polygon fill="red" stroke="red" stroke-width="0.43783" points="1553.28,-76.0301 1562.01,-70.0186 1551.44,-69.2775 1553.28,-76.0301"/>
</g>
<!-- enemyRadar[RightFront3.5]&#45;&gt;Move right -->
<g id="edge42" class="edge"><title>enemyRadar[RightFront3.5]&#45;&gt;Move right</title>
<path fill="none" stroke="red" stroke-width="0.406672" d="M695,-158.226C695,-146.819 695,-125.389 695,-105.099"/>
<polygon fill="red" stroke="red" stroke-width="0.406672" points="698.5,-104.966 695,-94.9664 691.5,-104.966 698.5,-104.966"/>
</g>
<!-- enemyRadar[RightFront3.5]&#45;&gt;Turn Right -->
<g id="edge28" class="edge"><title>enemyRadar[RightFront3.5]&#45;&gt;Turn Right</title>
<path fill="none" stroke="red" stroke-width="0.420698" d="M683.382,-158.406C661.439,-143.078 612.948,-109.206 577.776,-84.6373"/>
<polygon fill="red" stroke="red" stroke-width="0.420698" points="579.347,-81.4656 569.145,-78.6084 575.338,-87.2042 579.347,-81.4656"/>
</g>
<!-- enemyRadar[LeftFront3.5] -->
<g id="node18" class="node"><title>enemyRadar[LeftFront3.5]</title>
<polygon fill="lightgray" stroke="black" points="1551,-176.522 1439,-176.522 1439,-158.522 1551,-158.522 1551,-176.522"/>
<text text-anchor="middle" x="1495" y="-165.322" font-family="Times,serif" font-size="9.00">enemyRadar[LeftFront3.5]</text>
</g>
<!-- enemyRadar[LeftFront3.5]&#45;&gt;Move Left -->
<g id="edge73" class="edge"><title>enemyRadar[LeftFront3.5]&#45;&gt;Move Left</title>
<path fill="none" stroke="red" stroke-width="0.918569" d="M1518.93,-158.515C1531.14,-154.572 1546.28,-149.906 1560,-146.309 1693.76,-111.23 1854.1,-79.6696 1932.34,-64.934"/>
<polygon fill="red" stroke="red" stroke-width="0.918569" points="1933.18,-68.336 1942.37,-63.0522 1931.89,-61.456 1933.18,-68.336"/>
</g>
<!-- enemyRadar[LeftFront3.5]&#45;&gt;Move right -->
<g id="edge19" class="edge"><title>enemyRadar[LeftFront3.5]&#45;&gt;Move right</title>
<path fill="none" stroke="green" stroke-width="0.476108" d="M1473.32,-158.457C1460.6,-154.084 1444.1,-149.031 1429,-146.309 1164.78,-98.6632 1087.66,-170.421 826,-110.309 795.906,-103.395 763.843,-90.2496 738.97,-78.6418"/>
<polygon fill="green" stroke="green" stroke-width="0.476108" points="740.342,-75.4188 729.808,-74.2845 737.336,-81.7403 740.342,-75.4188"/>
</g>
<!-- enemyRadar[RightFront1.5] -->
<g id="node19" class="node"><title>enemyRadar[RightFront1.5]</title>
<polygon fill="lightgray" stroke="black" points="1143.5,-176.522 1026.5,-176.522 1026.5,-158.522 1143.5,-158.522 1143.5,-176.522"/>
<text text-anchor="middle" x="1085" y="-165.322" font-family="Times,serif" font-size="9.00">enemyRadar[RightFront1.5]</text>
</g>
<!-- enemyRadar[RightFront1.5]&#45;&gt;Shoot -->
<g id="edge24" class="edge"><title>enemyRadar[RightFront1.5]&#45;&gt;Shoot</title>
<path fill="none" stroke="green" stroke-width="0.340577" d="M1104.04,-158.406C1147.58,-139.856 1254.84,-94.1471 1310.02,-70.6362"/>
<polygon fill="green" stroke="green" stroke-width="0.340577" points="1311.54,-73.7922 1319.36,-66.6521 1308.79,-67.3525 1311.54,-73.7922"/>
</g>
<!-- enemyRadar[RightFront1.5]&#45;&gt;Move Forward -->
<g id="edge33" class="edge"><title>enemyRadar[RightFront1.5]&#45;&gt;Move Forward</title>
<path fill="none" stroke="green" stroke-width="0.43038" d="M1108.67,-158.521C1121.4,-154.436 1137.43,-149.64 1152,-146.309 1252.01,-123.44 1279.33,-130.078 1380,-110.309 1438.69,-98.7825 1505.13,-82.8192 1551.46,-71.2119"/>
<polygon fill="green" stroke="green" stroke-width="0.43038" points="1552.48,-74.5649 1561.32,-68.7307 1550.77,-67.7764 1552.48,-74.5649"/>
</g>
<!-- enemyRadar[RightFront1.5]&#45;&gt; Move Backward -->
<g id="edge76" class="edge"><title>enemyRadar[RightFront1.5]&#45;&gt; Move Backward</title>
<path fill="none" stroke="green" stroke-width="0.2738" d="M1106.7,-158.458C1119.65,-154.027 1136.55,-148.915 1152,-146.309 1343.9,-113.948 1845.68,-180.989 2027,-110.309 2032.96,-107.984 2038.77,-104.861 2044.29,-101.282"/>
<polygon fill="green" stroke="green" stroke-width="0.2738" points="2046.56,-103.958 2052.71,-95.3306 2042.53,-98.2397 2046.56,-103.958"/>
</g>
<!-- enemyRadar[RightFront1.5]&#45;&gt;Move right -->
<g id="edge30" class="edge"><title>enemyRadar[RightFront1.5]&#45;&gt;Move right</title>
<path fill="none" stroke="green" stroke-width="0.413568" d="M1060.3,-158.514C1047.47,-154.524 1031.48,-149.816 1017,-146.309 933.044,-125.975 908.798,-134.94 826,-110.309 796.508,-101.535 764.577,-88.4146 739.623,-77.2854"/>
<polygon fill="green" stroke="green" stroke-width="0.413568" points="740.975,-74.0557 730.421,-73.1308 738.095,-80.4356 740.975,-74.0557"/>
</g>
<!-- enemyRadar[RightFront1.5]&#45;&gt;Turn Left -->
<g id="edge51" class="edge"><title>enemyRadar[RightFront1.5]&#45;&gt;Turn Left</title>
<path fill="none" stroke="red" stroke-width="0.355701" d="M1069.19,-158.406C1036.01,-141.372 958.206,-101.434 910.249,-76.8154"/>
<polygon fill="red" stroke="red" stroke-width="0.355701" points="911.572,-73.5605 901.077,-72.1074 908.375,-79.788 911.572,-73.5605"/>
</g>
<!-- enemyRadar[RightFront1.5]&#45;&gt;Turn Right -->
<g id="edge20" class="edge"><title>enemyRadar[RightFront1.5]&#45;&gt;Turn Right</title>
<path fill="none" stroke="green" stroke-width="0.19758" d="M1061.99,-158.479C1048.94,-154.226 1032.23,-149.283 1017,-146.309 854.407,-114.561 805.261,-155.919 646,-110.309 623.027,-103.73 599.08,-92.395 579.502,-81.7904"/>
<polygon fill="green" stroke="green" stroke-width="0.19758" points="580.994,-78.6155 570.551,-76.8287 577.6,-84.7379 580.994,-78.6155"/>
</g>
<!-- enemyRadar[LeftFront1.5] -->
<g id="node20" class="node"><title>enemyRadar[LeftFront1.5]</title>
<polygon fill="lightgray" stroke="black" points="2057,-176.522 1945,-176.522 1945,-158.522 2057,-158.522 2057,-176.522"/>
<text text-anchor="middle" x="2001" y="-165.322" font-family="Times,serif" font-size="9.00">enemyRadar[LeftFront1.5]</text>
</g>
<!-- enemyRadar[LeftFront1.5]&#45;&gt;Move Forward -->
<g id="edge21" class="edge"><title>enemyRadar[LeftFront1.5]&#45;&gt;Move Forward</title>
<path fill="none" stroke="red" stroke-width="0.484478" d="M1973.42,-158.507C1960.54,-154.777 1944.99,-150.293 1931,-146.309 1839.18,-120.159 1732.44,-90.2841 1668.11,-72.3375"/>
<polygon fill="red" stroke="red" stroke-width="0.484478" points="1668.73,-68.8772 1658.16,-69.562 1666.85,-75.6199 1668.73,-68.8772"/>
</g>
<!-- OnTarget -->
<g id="node21" class="node"><title>OnTarget</title>
<polygon fill="lightgray" stroke="black" points="1329,-176.522 1279,-176.522 1279,-158.522 1329,-158.522 1329,-176.522"/>
<text text-anchor="middle" x="1304" y="-165.322" font-family="Times,serif" font-size="9.00">OnTarget</text>
</g>
<!-- OnTarget&#45;&gt;Shoot -->
<g id="edge58" class="edge"><title>OnTarget&#45;&gt;Shoot</title>
<path fill="none" stroke="green" stroke-width="0.338731" d="M1307.01,-158.226C1312.18,-143.951 1323.04,-113.98 1331.67,-90.1887"/>
<polygon fill="green" stroke="green" stroke-width="0.338731" points="1334.96,-91.3583 1335.08,-80.7641 1328.38,-88.9731 1334.96,-91.3583"/>
</g>
<!-- OnTarget&#45;&gt;Move Forward -->
<g id="edge32" class="edge"><title>OnTarget&#45;&gt;Move Forward</title>
<path fill="none" stroke="green" stroke-width="0.420733" d="M1316.24,-158.366C1322.56,-154.386 1330.5,-149.731 1338,-146.309 1409.3,-113.764 1495.85,-87.1326 1551.88,-71.4615"/>
<polygon fill="green" stroke="green" stroke-width="0.420733" points="1552.94,-74.8022 1561.64,-68.7583 1551.07,-68.0565 1552.94,-74.8022"/>
</g>
<!-- bias -->
<g id="node22" class="node"><title>bias</title>
<polygon fill="lightgray" stroke="black" points="2106.5,-176.522 2075.5,-176.522 2075.5,-158.522 2106.5,-158.522 2106.5,-176.522"/>
<text text-anchor="middle" x="2091" y="-165.322" font-family="Times,serif" font-size="9.00">bias</text>
</g>
<!-- bias&#45;&gt;Shoot -->
<g id="edge15" class="edge"><title>bias&#45;&gt;Shoot</title>
<path fill="none" stroke="red" stroke-width="0.252285" d="M2083.49,-158.377C2078.9,-153.978 2072.65,-148.924 2066,-146.309 1959.24,-104.304 1664.21,-128.907 1551,-110.309 1489.67,-100.232 1420.08,-80.1937 1379.23,-67.5199"/>
<polygon fill="red" stroke="red" stroke-width="0.252285" points="1380.07,-64.1169 1369.49,-64.4669 1377.98,-70.7967 1380.07,-64.1169"/>
</g>
<!-- bias&#45;&gt; Move Backward -->
<g id="edge64" class="edge"><title>bias&#45;&gt; Move Backward</title>
<path fill="none" stroke="red" stroke-width="0.378885" d="M2091,-158.226C2091,-149.673 2091,-135.484 2091,-120.367"/>
<polygon fill="red" stroke="red" stroke-width="0.378885" points="2094.5,-120.348 2091,-110.348 2087.5,-120.348 2094.5,-120.348"/>
</g>
<!-- bias&#45;&gt;Move Left -->
<g id="edge26" class="edge"><title>bias&#45;&gt;Move Left</title>
<path fill="none" stroke="green" stroke-width="0.420237" d="M2080.64,-158.164C2067.66,-147.522 2044.93,-128.348 2027,-110.309 2021.51,-104.784 2015.89,-98.7241 2010.54,-92.7211"/>
<polygon fill="green" stroke="green" stroke-width="0.420237" points="2013.16,-90.4005 2003.94,-85.1922 2007.9,-95.0173 2013.16,-90.4005"/>
</g>
<!-- bias&#45;&gt;Turn Left -->
<g id="edge71" class="edge"><title>bias&#45;&gt;Turn Left</title>
<path fill="none" stroke="green" stroke-width="0.316157" d="M2083.51,-158.321C2078.93,-153.903 2072.68,-148.85 2066,-146.309 1908.4,-86.3214 1476.02,-124.665 1308,-110.309 1163.88,-97.9949 994.144,-74.3946 914.935,-62.8488"/>
<polygon fill="green" stroke="green" stroke-width="0.316157" points="915.225,-59.3541 904.824,-61.3687 914.211,-66.2803 915.225,-59.3541"/>
</g>
<!-- 97&#45;&gt; Move Backward -->
<g id="edge79" class="edge"><title>97&#45;&gt; Move Backward</title>
<path fill="none" stroke="green" stroke-width="0.56171" d="M2608.66,-155.805C2603.35,-152.296 2597.12,-148.69 2591,-146.309 2442.13,-88.4154 2253.68,-67.3151 2156.14,-59.9236"/>
<polygon fill="green" stroke="green" stroke-width="0.56171" points="2156.36,-56.4305 2146.13,-59.1894 2155.85,-63.4118 2156.36,-56.4305"/>
</g>
<!-- 180&#45;&gt;Move Forward -->
<g id="edge81" class="edge"><title>180&#45;&gt;Move Forward</title>
<path fill="none" stroke="red" stroke-width="0.528102" d="M2129.56,-153.67C2125.33,-150.875 2120.66,-148.194 2116,-146.309 2095.36,-137.956 1799.32,-87.8248 1669.86,-66.1392"/>
<polygon fill="red" stroke="red" stroke-width="0.528102" points="1670.16,-62.6406 1659.72,-64.4414 1669.01,-69.5445 1670.16,-62.6406"/>
</g>
</g>
</svg>
