<?xml version="1.0" encoding="UTF-8" standalone="no"?>
<!DOCTYPE svg PUBLIC "-//W3C//DTD SVG 1.1//EN"
 "http://www.w3.org/Graphics/SVG/1.1/DTD/svg11.dtd">
<!-- Generated by graphviz version 2.38.0 (20140413.2041)
 -->
<!-- Title: %3 Pages: 1 -->
<svg width="2650pt" height="258pt"
 viewBox="0.00 0.00 2649.65 257.81" xmlns="http://www.w3.org/2000/svg" xmlns:xlink="http://www.w3.org/1999/xlink">
<g id="graph0" class="graph" transform="scale(1 1) rotate(0) translate(4 253.806)">
<title>%3</title>
<polygon fill="white" stroke="none" points="-4,4 -4,-253.806 2645.65,-253.806 2645.65,4 -4,4"/>
<!-- wallRadar[1,0] -->
<g id="node1" class="node"><title>wallRadar[1,0]</title>
<polygon fill="lightgray" stroke="black" points="435.417,-180.057 365.417,-180.057 365.417,-162.057 435.417,-162.057 435.417,-180.057"/>
<text text-anchor="middle" x="400.417" y="-168.857" font-family="Times,serif" font-size="9.00">wallRadar[1,0]</text>
</g>
<!-- Shoot -->
<g id="node23" class="node"><title>Shoot</title>
<ellipse fill="lightblue" stroke="black" cx="400.417" cy="-55.1543" rx="26.7407" ry="26.7407"/>
<text text-anchor="middle" x="400.417" y="-52.9543" font-family="Times,serif" font-size="9.00">Shoot</text>
</g>
<!-- wallRadar[1,0]&#45;&gt;Shoot -->
<g id="edge15" class="edge"><title>wallRadar[1,0]&#45;&gt;Shoot</title>
<path fill="none" stroke="red" stroke-width="0.223452" stroke-dasharray="1,5" d="M400.417,-161.866C400.417,-147.494 400.417,-116.928 400.417,-92.3425"/>
<polygon fill="red" stroke="red" stroke-width="0.223452" points="403.917,-92.2369 400.417,-82.2369 396.917,-92.2369 403.917,-92.2369"/>
</g>
<!-- Move Left -->
<g id="node26" class="node"><title>Move Left</title>
<ellipse fill="lightblue" stroke="black" cx="894.417" cy="-55.1543" rx="38.3684" ry="38.3684"/>
<text text-anchor="middle" x="894.417" y="-52.9543" font-family="Times,serif" font-size="9.00">Move Left</text>
</g>
<!-- wallRadar[1,0]&#45;&gt;Move Left -->
<g id="edge33" class="edge"><title>wallRadar[1,0]&#45;&gt;Move Left</title>
<path fill="none" stroke="green" stroke-width="0.17977" d="M413.037,-161.936C421.588,-156.768 433.312,-150.316 444.417,-146.309 585.61,-95.3554 762.695,-70.5719 846.381,-61.0354"/>
<polygon fill="green" stroke="green" stroke-width="0.17977" points="846.806,-64.5098 856.355,-59.9209 846.029,-57.5531 846.806,-64.5098"/>
</g>
<!-- Turn Left -->
<g id="node28" class="node"><title>Turn Left</title>
<ellipse fill="lightblue" stroke="black" cx="1484.42" cy="-55.1543" rx="35.2113" ry="35.2113"/>
<text text-anchor="middle" x="1484.42" y="-52.9543" font-family="Times,serif" font-size="9.00">Turn Left</text>
</g>
<!-- wallRadar[1,0]&#45;&gt;Turn Left -->
<g id="edge14" class="edge"><title>wallRadar[1,0]&#45;&gt;Turn Left</title>
<path fill="none" stroke="green" stroke-width="1.54781" stroke-dasharray="1,5" d="M412.114,-161.831C420.637,-156.329 432.698,-149.528 444.417,-146.309 631.431,-94.9336 1125.49,-144.371 1316.42,-110.309 1360.49,-102.446 1408.96,-85.9236 1442.47,-73.1842"/>
<polygon fill="green" stroke="green" stroke-width="1.54781" points="1443.87,-76.3976 1451.94,-69.5341 1441.35,-69.8663 1443.87,-76.3976"/>
</g>
<!-- wallRadar[0,1] -->
<g id="node2" class="node"><title>wallRadar[0,1]</title>
<polygon fill="lightgray" stroke="black" points="743.417,-180.057 673.417,-180.057 673.417,-162.057 743.417,-162.057 743.417,-180.057"/>
<text text-anchor="middle" x="708.417" y="-168.857" font-family="Times,serif" font-size="9.00">wallRadar[0,1]</text>
</g>
<!-- wallRadar[0,1]&#45;&gt;Shoot -->
<g id="edge44" class="edge"><title>wallRadar[0,1]&#45;&gt;Shoot</title>
<path fill="none" stroke="green" stroke-width="0.390359" d="M696.223,-162.015C687.665,-156.744 675.766,-150.142 664.417,-146.309 567.224,-113.476 522.766,-165.7 436.417,-110.309 428.182,-105.026 421.397,-97.1151 416.024,-88.9598"/>
<polygon fill="green" stroke="green" stroke-width="0.390359" points="418.881,-86.9164 410.747,-80.1277 412.872,-90.5072 418.881,-86.9164"/>
</g>
<!-- Move Forward -->
<g id="node24" class="node"><title>Move Forward</title>
<ellipse fill="lightblue" stroke="black" cx="495.417" cy="-55.1543" rx="50.41" ry="50.41"/>
<text text-anchor="middle" x="495.417" y="-52.9543" font-family="Times,serif" font-size="9.00">Move Forward</text>
</g>
<!-- wallRadar[0,1]&#45;&gt;Move Forward -->
<g id="edge13" class="edge"><title>wallRadar[0,1]&#45;&gt;Move Forward</title>
<path fill="none" stroke="green" stroke-width="0.892564" stroke-dasharray="1,5" d="M693.357,-161.906C684.864,-157.314 674.054,-151.48 664.417,-146.309 625.714,-125.541 581.96,-102.204 548.671,-84.4777"/>
<polygon fill="green" stroke="green" stroke-width="0.892564" points="550.043,-81.2435 539.572,-79.6335 546.754,-87.4224 550.043,-81.2435"/>
</g>
<!--  Move Backward -->
<g id="node25" class="node"><title> Move Backward</title>
<ellipse fill="lightblue" stroke="black" cx="1252.42" cy="-55.1543" rx="55.3091" ry="55.3091"/>
<text text-anchor="middle" x="1252.42" y="-52.9543" font-family="Times,serif" font-size="9.00"> Move Backward</text>
</g>
<!-- wallRadar[0,1]&#45;&gt; Move Backward -->
<g id="edge12" class="edge"><title>wallRadar[0,1]&#45;&gt; Move Backward</title>
<path fill="none" stroke="green" stroke-width="0.126317" d="M721.012,-161.865C729.552,-156.667 741.274,-150.209 752.417,-146.309 762.699,-142.71 1055.01,-90.9526 1187.84,-67.5264"/>
<polygon fill="green" stroke="green" stroke-width="0.126317" points="1188.64,-70.9379 1197.89,-65.7545 1187.43,-64.0442 1188.64,-70.9379"/>
</g>
<!-- wallRadar[0,1]&#45;&gt;Move Left -->
<g id="edge20" class="edge"><title>wallRadar[0,1]&#45;&gt;Move Left</title>
<path fill="none" stroke="green" stroke-width="0.162579" stroke-dasharray="1,5" d="M721.496,-162.048C748.516,-145.502 811.478,-106.945 853.5,-81.2108"/>
<polygon fill="green" stroke="green" stroke-width="0.162579" points="855.429,-84.1339 862.129,-75.9266 851.773,-78.1643 855.429,-84.1339"/>
</g>
<!-- Turn Right -->
<g id="node29" class="node"><title>Turn Right</title>
<ellipse fill="lightblue" stroke="black" cx="1935.42" cy="-55.1543" rx="39.6962" ry="39.6962"/>
<text text-anchor="middle" x="1935.42" y="-52.9543" font-family="Times,serif" font-size="9.00">Turn Right</text>
</g>
<!-- wallRadar[0,1]&#45;&gt;Turn Right -->
<g id="edge67" class="edge"><title>wallRadar[0,1]&#45;&gt;Turn Right</title>
<path fill="none" stroke="red" stroke-width="0.305599" d="M719.741,-162.032C728.279,-156.473 740.515,-149.517 752.417,-146.309 874.242,-113.467 1773.19,-163.896 1887.42,-110.309 1894.69,-106.895 1901.33,-101.804 1907.2,-96.0886"/>
<polygon fill="red" stroke="red" stroke-width="0.305599" points="1909.93,-98.29 1914.2,-88.5937 1904.81,-93.5108 1909.93,-98.29"/>
</g>
<!-- wallRadar[&#45;1,0] -->
<g id="node3" class="node"><title>wallRadar[&#45;1,0]</title>
<polygon fill="lightgray" stroke="black" points="526.917,-180.057 453.917,-180.057 453.917,-162.057 526.917,-162.057 526.917,-180.057"/>
<text text-anchor="middle" x="490.417" y="-168.857" font-family="Times,serif" font-size="9.00">wallRadar[&#45;1,0]</text>
</g>
<!-- wallRadar[&#45;1,0]&#45;&gt;Shoot -->
<g id="edge32" class="edge"><title>wallRadar[&#45;1,0]&#45;&gt;Shoot</title>
<path fill="none" stroke="green" stroke-width="0.28454" d="M482.317,-161.891C471.379,-150.692 451.52,-129.737 436.417,-110.309 430.728,-102.991 424.985,-94.7967 419.808,-87.0411"/>
<polygon fill="green" stroke="green" stroke-width="0.28454" points="422.646,-84.986 414.237,-78.5412 416.792,-88.8234 422.646,-84.986"/>
</g>
<!-- wallRadar[&#45;1,0]&#45;&gt;Move Forward -->
<g id="edge18" class="edge"><title>wallRadar[&#45;1,0]&#45;&gt;Move Forward</title>
<path fill="none" stroke="green" stroke-width="0.773933" d="M490.776,-161.866C491.216,-151.838 492.003,-133.925 492.804,-115.661"/>
<polygon fill="green" stroke="green" stroke-width="0.773933" points="496.307,-115.67 493.249,-105.526 489.314,-115.363 496.307,-115.67"/>
</g>
<!-- wallRadar[&#45;1,0]&#45;&gt;Move Left -->
<g id="edge59" class="edge"><title>wallRadar[&#45;1,0]&#45;&gt;Move Left</title>
<path fill="none" stroke="green" stroke-width="0.454675" stroke-dasharray="1,5" d="M504.126,-161.921C513.077,-156.877 525.152,-150.57 536.417,-146.309 644.185,-105.542 777.137,-77.573 846.76,-64.5309"/>
<polygon fill="green" stroke="green" stroke-width="0.454675" points="847.773,-67.9027 856.969,-62.6406 846.499,-61.0197 847.773,-67.9027"/>
</g>
<!-- Move right -->
<g id="node27" class="node"><title>Move right</title>
<ellipse fill="lightblue" stroke="black" cx="1838.42" cy="-55.1543" rx="39.6962" ry="39.6962"/>
<text text-anchor="middle" x="1838.42" y="-52.9543" font-family="Times,serif" font-size="9.00">Move right</text>
</g>
<!-- wallRadar[&#45;1,0]&#45;&gt;Move right -->
<g id="edge3" class="edge"><title>wallRadar[&#45;1,0]&#45;&gt;Move right</title>
<path fill="none" stroke="red" stroke-width="0.381847" d="M502.314,-162.049C511.269,-156.499 524.072,-149.546 536.417,-146.309 749.793,-90.3609 1309.03,-133.343 1528.42,-110.309 1621.39,-100.547 1728.56,-79.643 1789.42,-66.8512"/>
<polygon fill="red" stroke="red" stroke-width="0.381847" points="1790.45,-70.2113 1799.51,-64.7163 1789,-63.3631 1790.45,-70.2113"/>
</g>
<!-- wallRadar[0,&#45;1] -->
<g id="node4" class="node"><title>wallRadar[0,&#45;1]</title>
<polygon fill="lightgray" stroke="black" points="1971.92,-180.057 1898.92,-180.057 1898.92,-162.057 1971.92,-162.057 1971.92,-180.057"/>
<text text-anchor="middle" x="1935.42" y="-168.857" font-family="Times,serif" font-size="9.00">wallRadar[0,&#45;1]</text>
</g>
<!-- wallRadar[0,&#45;1]&#45;&gt;Move right -->
<g id="edge65" class="edge"><title>wallRadar[0,&#45;1]&#45;&gt;Move right</title>
<path fill="none" stroke="red" stroke-width="1.12673" d="M1928.44,-161.866C1916.45,-147.781 1891.21,-118.143 1870.5,-93.8241"/>
<polygon fill="red" stroke="red" stroke-width="1.12673" points="1873.1,-91.4857 1863.95,-86.1415 1867.77,-96.0242 1873.1,-91.4857"/>
</g>
<!-- wallRadar[0,&#45;1]&#45;&gt;Turn Left -->
<g id="edge5" class="edge"><title>wallRadar[0,&#45;1]&#45;&gt;Turn Left</title>
<path fill="none" stroke="green" stroke-width="0.365195" stroke-dasharray="1,5" d="M1920.15,-161.896C1910.2,-156.843 1896.8,-150.534 1884.42,-146.309 1758.94,-103.506 1604.33,-75.2662 1529.38,-63.0542"/>
<polygon fill="green" stroke="green" stroke-width="0.365195" points="1529.78,-59.5727 1519.35,-61.4375 1528.66,-66.4836 1529.78,-59.5727"/>
</g>
<!-- wallRadar[0,&#45;1]&#45;&gt;Turn Right -->
<g id="edge48" class="edge"><title>wallRadar[0,&#45;1]&#45;&gt;Turn Right</title>
<path fill="none" stroke="green" stroke-width="1.06623" stroke-dasharray="1,5" d="M1935.42,-161.866C1935.42,-149.888 1935.42,-126.662 1935.42,-105.025"/>
<polygon fill="green" stroke="green" stroke-width="1.06623" points="1938.92,-104.915 1935.42,-94.9154 1931.92,-104.915 1938.92,-104.915"/>
</g>
<!-- wallRadar[0.7,0.7] -->
<g id="node5" class="node"><title>wallRadar[0.7,0.7]</title>
<polygon fill="lightgray" stroke="black" points="171.917,-180.057 88.9166,-180.057 88.9166,-162.057 171.917,-162.057 171.917,-180.057"/>
<text text-anchor="middle" x="130.417" y="-168.857" font-family="Times,serif" font-size="9.00">wallRadar[0.7,0.7]</text>
</g>
<!-- wallRadar[0.7,0.7]&#45;&gt;Shoot -->
<g id="edge11" class="edge"><title>wallRadar[0.7,0.7]&#45;&gt;Shoot</title>
<path fill="none" stroke="red" stroke-width="0.439872" stroke-dasharray="1,5" d="M146.979,-161.913C156.666,-157.219 169.166,-151.281 180.417,-146.309 245.389,-117.592 322.427,-86.7424 365.948,-69.6053"/>
<polygon fill="red" stroke="red" stroke-width="0.439872" points="367.458,-72.7722 375.486,-65.8577 364.899,-66.2571 367.458,-72.7722"/>
</g>
<!-- wallRadar[0.7,0.7]&#45;&gt;Move Forward -->
<g id="edge47" class="edge"><title>wallRadar[0.7,0.7]&#45;&gt;Move Forward</title>
<path fill="none" stroke="green" stroke-width="0.647575" d="M144.397,-162.002C154.178,-156.724 167.715,-150.121 180.417,-146.309 290.465,-113.281 332.52,-159.368 436.417,-110.309 442.583,-107.397 448.552,-103.613 454.174,-99.3982"/>
<polygon fill="green" stroke="green" stroke-width="0.647575" points="456.56,-101.97 462.143,-92.9658 452.163,-96.5231 456.56,-101.97"/>
</g>
<!-- wallRadar[&#45;0.7,0.7] -->
<g id="node6" class="node"><title>wallRadar[&#45;0.7,0.7]</title>
<polygon fill="lightgray" stroke="black" points="1408.42,-180.057 1322.42,-180.057 1322.42,-162.057 1408.42,-162.057 1408.42,-180.057"/>
<text text-anchor="middle" x="1365.42" y="-168.857" font-family="Times,serif" font-size="9.00">wallRadar[&#45;0.7,0.7]</text>
</g>
<!-- wallRadar[&#45;0.7,0.7]&#45;&gt;Move Forward -->
<g id="edge46" class="edge"><title>wallRadar[&#45;0.7,0.7]&#45;&gt;Move Forward</title>
<path fill="none" stroke="red" stroke-width="0.531622" d="M1351.35,-161.988C1341.16,-156.56 1326.87,-149.783 1313.42,-146.309 1112.29,-94.3609 1053.78,-134.119 847.417,-110.309 744.088,-98.3862 624.558,-78.7478 554.74,-66.6827"/>
<polygon fill="red" stroke="red" stroke-width="0.531622" points="555.258,-63.2205 544.807,-64.9594 554.062,-70.1175 555.258,-63.2205"/>
</g>
<!-- wallRadar[&#45;0.7,0.7]&#45;&gt; Move Backward -->
<g id="edge30" class="edge"><title>wallRadar[&#45;0.7,0.7]&#45;&gt; Move Backward</title>
<path fill="none" stroke="red" stroke-width="0.179826" d="M1357.29,-161.866C1344.87,-149.346 1320.26,-124.537 1298,-102.099"/>
<polygon fill="red" stroke="red" stroke-width="0.179826" points="1300.4,-99.5496 1290.87,-94.9154 1295.43,-104.48 1300.4,-99.5496"/>
</g>
<!-- wallRadar[&#45;0.7,0.7]&#45;&gt;Move Left -->
<g id="edge51" class="edge"><title>wallRadar[&#45;0.7,0.7]&#45;&gt;Move Left</title>
<path fill="none" stroke="red" stroke-width="0.538209" d="M1349.84,-161.869C1339.7,-156.805 1326.04,-150.494 1313.42,-146.309 1182.29,-102.829 1020.97,-74.9963 942.229,-62.9847"/>
<polygon fill="red" stroke="red" stroke-width="0.538209" points="942.542,-59.4924 932.132,-61.4625 941.498,-66.4142 942.542,-59.4924"/>
</g>
<!-- wallRadar[&#45;0.7,0.7]&#45;&gt;Move right -->
<g id="edge56" class="edge"><title>wallRadar[&#45;0.7,0.7]&#45;&gt;Move right</title>
<path fill="none" stroke="red" stroke-width="0.843755" d="M1381.31,-161.881C1391.66,-156.822 1405.58,-150.512 1418.42,-146.309 1549.16,-103.51 1709.56,-75.5796 1788.99,-63.3127"/>
<polygon fill="red" stroke="red" stroke-width="0.843755" points="1789.83,-66.7248 1799.19,-61.7552 1788.78,-59.805 1789.83,-66.7248"/>
</g>
<!-- wallRadar[&#45;0.7,0.7]&#45;&gt;Turn Left -->
<g id="edge4" class="edge"><title>wallRadar[&#45;0.7,0.7]&#45;&gt;Turn Left</title>
<path fill="none" stroke="red" stroke-width="0.102811" stroke-dasharray="1,5" d="M1373.97,-161.866C1389.98,-146.545 1425.21,-112.821 1451.61,-87.5577"/>
<polygon fill="red" stroke="red" stroke-width="0.102811" points="1454.33,-89.7926 1459.14,-80.3494 1449.49,-84.7357 1454.33,-89.7926"/>
</g>
<!-- wallRadar[&#45;0.7,0.7]&#45;&gt;Turn Right -->
<g id="edge42" class="edge"><title>wallRadar[&#45;0.7,0.7]&#45;&gt;Turn Right</title>
<path fill="none" stroke="red" stroke-width="0.324746" stroke-dasharray="1,5" d="M1379.77,-161.99C1390.17,-156.563 1404.74,-149.786 1418.42,-146.309 1519.72,-120.556 1793.8,-156.816 1887.42,-110.309 1894.54,-106.771 1901.07,-101.674 1906.87,-96.0035"/>
<polygon fill="red" stroke="red" stroke-width="0.324746" points="1909.53,-98.28 1913.82,-88.5892 1904.43,-93.4943 1909.53,-98.28"/>
</g>
<!-- wallRadar[&#45;0.7,&#45;0.7] -->
<g id="node7" class="node"><title>wallRadar[&#45;0.7,&#45;0.7]</title>
<polygon fill="lightgray" stroke="black" points="1068.92,-180.057 979.917,-180.057 979.917,-162.057 1068.92,-162.057 1068.92,-180.057"/>
<text text-anchor="middle" x="1024.42" y="-168.857" font-family="Times,serif" font-size="9.00">wallRadar[&#45;0.7,&#45;0.7]</text>
</g>
<!-- wallRadar[&#45;0.7,&#45;0.7]&#45;&gt;Shoot -->
<g id="edge45" class="edge"><title>wallRadar[&#45;0.7,&#45;0.7]&#45;&gt;Shoot</title>
<path fill="none" stroke="red" stroke-width="0.330229" d="M979.579,-163.036C945.787,-157.911 898.271,-151.057 856.417,-146.309 763.338,-135.749 517.012,-158.053 436.417,-110.309 427.838,-105.227 420.894,-97.2055 415.477,-88.8781"/>
<polygon fill="red" stroke="red" stroke-width="0.330229" points="418.463,-87.0505 410.381,-80.1995 412.426,-90.595 418.463,-87.0505"/>
</g>
<!-- wallRadar[&#45;0.7,&#45;0.7]&#45;&gt; Move Backward -->
<g id="edge38" class="edge"><title>wallRadar[&#45;0.7,&#45;0.7]&#45;&gt; Move Backward</title>
<path fill="none" stroke="red" stroke-width="0.396006" stroke-dasharray="1,5" d="M1040.45,-162.048C1071.91,-146.332 1143.12,-110.758 1194.32,-85.1762"/>
<polygon fill="red" stroke="red" stroke-width="0.396006" points="1195.94,-88.283 1203.32,-80.6829 1192.81,-82.021 1195.94,-88.283"/>
</g>
<!-- wallRadar[&#45;0.7,&#45;0.7]&#45;&gt;Turn Left -->
<g id="edge7" class="edge"><title>wallRadar[&#45;0.7,&#45;0.7]&#45;&gt;Turn Left</title>
<path fill="none" stroke="red" stroke-width="0.616912" stroke-dasharray="1,5" d="M1039.76,-161.84C1050.12,-156.63 1064.26,-150.169 1077.42,-146.309 1180.49,-116.067 1211.84,-134.868 1316.42,-110.309 1359.86,-100.106 1408.24,-83.9871 1441.88,-71.9844"/>
<polygon fill="red" stroke="red" stroke-width="0.616912" points="1443.17,-75.2401 1451.4,-68.5599 1440.8,-68.6538 1443.17,-75.2401"/>
</g>
<!-- wallRadar[0.7,&#45;0.7] -->
<g id="node8" class="node"><title>wallRadar[0.7,&#45;0.7]</title>
<polygon fill="lightgray" stroke="black" points="847.417,-180.057 761.417,-180.057 761.417,-162.057 847.417,-162.057 847.417,-180.057"/>
<text text-anchor="middle" x="804.417" y="-168.857" font-family="Times,serif" font-size="9.00">wallRadar[0.7,&#45;0.7]</text>
</g>
<!-- wallRadar[0.7,&#45;0.7]&#45;&gt;Move Left -->
<g id="edge40" class="edge"><title>wallRadar[0.7,&#45;0.7]&#45;&gt;Move Left</title>
<path fill="none" stroke="green" stroke-width="1.2786" d="M810.889,-161.866C822.042,-147.75 845.538,-118.014 864.778,-93.6652"/>
<polygon fill="green" stroke="green" stroke-width="1.2786" points="867.661,-95.6608 871.115,-85.6446 862.169,-91.321 867.661,-95.6608"/>
</g>
<!-- enemyRadar[RightBack] -->
<g id="node9" class="node"><title>enemyRadar[RightBack]</title>
<polygon fill="lightgray" stroke="black" points="351.417,-249.806 247.417,-249.806 247.417,-231.806 351.417,-231.806 351.417,-249.806"/>
<text text-anchor="middle" x="299.417" y="-238.606" font-family="Times,serif" font-size="9.00">enemyRadar[RightBack]</text>
</g>
<!-- enemyRadar[RightBack]&#45;&gt;Shoot -->
<g id="edge68" class="edge"><title>enemyRadar[RightBack]&#45;&gt;Shoot</title>
<path fill="none" stroke="red" stroke-width="0.389889" stroke-dasharray="1,5" d="M247.09,-240.035C148.138,-238.659 -51.0585,-226.224 12.4166,-146.309 56.1252,-91.2797 274.981,-66.8035 363.336,-59.0519"/>
<polygon fill="red" stroke="red" stroke-width="0.389889" points="363.778,-62.527 373.444,-58.1886 363.182,-55.5524 363.778,-62.527"/>
</g>
<!-- enemyRadar[RightBack]&#45;&gt;Move Forward -->
<g id="edge53" class="edge"><title>enemyRadar[RightBack]&#45;&gt;Move Forward</title>
<path fill="none" stroke="red" stroke-width="0.181128" stroke-dasharray="1,5" d="M299.051,-231.571C298.717,-213.603 300.519,-170.554 323.417,-146.309 359.608,-107.988 390.819,-136.75 436.417,-110.309 442.235,-106.935 447.961,-102.902 453.422,-98.5801"/>
<polygon fill="red" stroke="red" stroke-width="0.181128" points="455.774,-101.176 461.214,-92.0842 451.292,-95.7996 455.774,-101.176"/>
</g>
<!-- enemyRadar[RightBack]&#45;&gt;Move Left -->
<g id="edge31" class="edge"><title>enemyRadar[RightBack]&#45;&gt;Move Left</title>
<path fill="none" stroke="green" stroke-width="0.388982" stroke-dasharray="1,5" d="M351.889,-239.049C483.173,-236.682 818.091,-227.565 856.417,-195.806 883.098,-173.696 892.061,-134.879 894.651,-103.773"/>
<polygon fill="green" stroke="green" stroke-width="0.388982" points="898.159,-103.757 895.302,-93.5546 891.174,-103.312 898.159,-103.757"/>
</g>
<!-- enemyRadar[RightBack]&#45;&gt;Turn Right -->
<g id="edge52" class="edge"><title>enemyRadar[RightBack]&#45;&gt;Turn Right</title>
<path fill="none" stroke="green" stroke-width="0.127247" stroke-dasharray="1,5" d="M351.665,-239.197C672.439,-235.397 2362.11,-214.501 2380.42,-195.806 2499.24,-74.4488 2124.61,-58.2065 1985.37,-56.2987"/>
<polygon fill="green" stroke="green" stroke-width="0.127247" points="1985.42,-52.7991 1975.38,-56.181 1985.33,-59.7986 1985.42,-52.7991"/>
</g>
<!-- 3899 -->
<g id="node32" class="node"><title>3899</title>
<ellipse fill="white" stroke="black" cx="46.4166" cy="-171.057" rx="25" ry="25"/>
<text text-anchor="middle" x="46.4166" y="-168.857" font-family="Times,serif" font-size="9.00">3899</text>
</g>
<!-- enemyRadar[RightBack]&#45;&gt;3899 -->
<g id="edge69" class="edge"><title>enemyRadar[RightBack]&#45;&gt;3899</title>
<path fill="none" stroke="red" stroke-width="0.105684" d="M247.32,-235.672C201.525,-230.592 133.879,-219.516 79.4166,-195.806 77.5721,-195.003 75.7294,-194.085 73.9107,-193.086"/>
<polygon fill="red" stroke="red" stroke-width="0.105684" points="75.4581,-189.926 65.1231,-187.594 71.748,-195.862 75.4581,-189.926"/>
</g>
<!-- enemyRadar[LeftBack] -->
<g id="node10" class="node"><title>enemyRadar[LeftBack]</title>
<polygon fill="lightgray" stroke="black" points="1892.92,-249.806 1793.92,-249.806 1793.92,-231.806 1892.92,-231.806 1892.92,-249.806"/>
<text text-anchor="middle" x="1843.42" y="-238.606" font-family="Times,serif" font-size="9.00">enemyRadar[LeftBack]</text>
</g>
<!-- enemyRadar[LeftBack]&#45;&gt;Move Left -->
<g id="edge57" class="edge"><title>enemyRadar[LeftBack]&#45;&gt;Move Left</title>
<path fill="none" stroke="green" stroke-width="0.173185" d="M1793.8,-238.633C1614.15,-234.213 1006.44,-217.7 971.417,-195.806 953.421,-184.558 929.366,-136.702 912.962,-100.116"/>
<polygon fill="green" stroke="green" stroke-width="0.173185" points="916.004,-98.341 908.757,-90.612 909.602,-101.173 916.004,-98.341"/>
</g>
<!-- enemyRadar[LeftBack]&#45;&gt;Turn Left -->
<g id="edge22" class="edge"><title>enemyRadar[LeftBack]&#45;&gt;Turn Left</title>
<path fill="none" stroke="red" stroke-width="0.690155" stroke-dasharray="1,5" d="M1847.4,-231.759C1855.49,-214.167 1871.42,-171.821 1851.42,-146.309 1831.37,-120.742 1622.64,-80.767 1529.2,-63.9858"/>
<polygon fill="red" stroke="red" stroke-width="0.690155" points="1529.66,-60.5116 1519.2,-62.1983 1528.43,-67.4025 1529.66,-60.5116"/>
</g>
<!-- enemyRadar[LeftBack]&#45;&gt;Turn Right -->
<g id="edge28" class="edge"><title>enemyRadar[LeftBack]&#45;&gt;Turn Right</title>
<path fill="none" stroke="green" stroke-width="0.174612" stroke-dasharray="1,5" d="M1892.96,-232.835C1896.16,-232.463 1899.33,-232.116 1902.42,-231.806 1963.24,-225.696 2409.63,-240.424 2451.42,-195.806 2466.45,-179.75 2465.57,-163.15 2451.42,-146.309 2392.07,-75.6885 2102.72,-60.3793 1985.19,-57.0666"/>
<polygon fill="green" stroke="green" stroke-width="0.174612" points="1985.11,-53.5636 1975.03,-56.7983 1984.93,-60.5612 1985.11,-53.5636"/>
</g>
<!-- 2733 -->
<g id="node30" class="node"><title>2733</title>
<ellipse fill="white" stroke="black" cx="1817.42" cy="-171.057" rx="25" ry="25"/>
<text text-anchor="middle" x="1817.42" y="-168.857" font-family="Times,serif" font-size="9.00">2733</text>
</g>
<!-- enemyRadar[LeftBack]&#45;&gt;2733 -->
<g id="edge60" class="edge"><title>enemyRadar[LeftBack]&#45;&gt;2733</title>
<path fill="none" stroke="green" stroke-width="0.323833" d="M1840.33,-231.768C1837.63,-224.737 1833.53,-214.05 1829.54,-203.651"/>
<polygon fill="green" stroke="green" stroke-width="0.323833" points="1832.8,-202.377 1825.95,-194.295 1826.27,-204.885 1832.8,-202.377"/>
</g>
<!-- enemyRadar[Right] -->
<g id="node11" class="node"><title>enemyRadar[Right]</title>
<polygon fill="lightgray" stroke="black" points="1774.42,-180.057 1688.42,-180.057 1688.42,-162.057 1774.42,-162.057 1774.42,-180.057"/>
<text text-anchor="middle" x="1731.42" y="-168.857" font-family="Times,serif" font-size="9.00">enemyRadar[Right]</text>
</g>
<!-- enemyRadar[Right]&#45;&gt;Move Left -->
<g id="edge43" class="edge"><title>enemyRadar[Right]&#45;&gt;Move Left</title>
<path fill="none" stroke="red" stroke-width="0.979518" stroke-dasharray="1,5" d="M1717.35,-161.972C1707.17,-156.536 1692.88,-149.757 1679.42,-146.309 1467.45,-92.0045 1405.44,-138.169 1188.42,-110.309 1100.76,-99.0563 999.643,-78.8142 941.751,-66.5194"/>
<polygon fill="red" stroke="red" stroke-width="0.979518" points="942.314,-63.0607 931.803,-64.3944 940.851,-69.9062 942.314,-63.0607"/>
</g>
<!-- enemyRadar[Right]&#45;&gt;Turn Left -->
<g id="edge58" class="edge"><title>enemyRadar[Right]&#45;&gt;Turn Left</title>
<path fill="none" stroke="red" stroke-width="0.678465" stroke-dasharray="1,5" d="M1714.05,-162.048C1675.23,-144.145 1580.53,-100.475 1525.63,-75.1592"/>
<polygon fill="red" stroke="red" stroke-width="0.678465" points="1527.07,-71.9678 1516.52,-70.9585 1524.13,-78.3245 1527.07,-71.9678"/>
</g>
<!-- enemyRadar[Right]&#45;&gt;Turn Right -->
<g id="edge1" class="edge"><title>enemyRadar[Right]&#45;&gt;Turn Right</title>
<path fill="none" stroke="red" stroke-width="0.401313" stroke-dasharray="1,5" d="M1748.1,-161.947C1758.22,-157.154 1771.44,-151.104 1783.42,-146.309 1828.83,-128.128 1846.76,-137.498 1887.42,-110.309 1893.73,-106.084 1899.75,-100.831 1905.25,-95.2724"/>
<polygon fill="red" stroke="red" stroke-width="0.401313" points="1908.16,-97.2778 1912.41,-87.5707 1903.03,-92.5115 1908.16,-97.2778"/>
</g>
<!-- enemyRadar[Left] -->
<g id="node12" class="node"><title>enemyRadar[Left]</title>
<polygon fill="lightgray" stroke="black" points="270.917,-180.057 189.917,-180.057 189.917,-162.057 270.917,-162.057 270.917,-180.057"/>
<text text-anchor="middle" x="230.417" y="-168.857" font-family="Times,serif" font-size="9.00">enemyRadar[Left]</text>
</g>
<!-- enemyRadar[Left]&#45;&gt;Shoot -->
<g id="edge35" class="edge"><title>enemyRadar[Left]&#45;&gt;Shoot</title>
<path fill="none" stroke="green" stroke-width="2.12829" d="M242.371,-162.048C268.539,-144.515 331.592,-102.268 369.675,-76.7515"/>
<polygon fill="green" stroke="green" stroke-width="2.12829" points="371.962,-79.4324 378.321,-70.9585 368.066,-73.6171 371.962,-79.4324"/>
</g>
<!-- enemyRadar[Left]&#45;&gt; Move Backward -->
<g id="edge55" class="edge"><title>enemyRadar[Left]&#45;&gt; Move Backward</title>
<path fill="none" stroke="green" stroke-width="0.618908" stroke-dasharray="1,5" d="M266.347,-162.048C291.452,-156.757 325.823,-150.118 356.417,-146.309 614.912,-114.122 682.704,-140.699 941.417,-110.309 1027.39,-100.209 1125.67,-81.9556 1188.34,-69.4555"/>
<polygon fill="green" stroke="green" stroke-width="0.618908" points="1189.35,-72.8225 1198.47,-67.4237 1187.97,-65.9593 1189.35,-72.8225"/>
</g>
<!-- enemyRadar[RightFront30] -->
<g id="node13" class="node"><title>enemyRadar[RightFront30]</title>
<polygon fill="lightgray" stroke="black" points="2235.92,-180.057 2120.92,-180.057 2120.92,-162.057 2235.92,-162.057 2235.92,-180.057"/>
<text text-anchor="middle" x="2178.42" y="-168.857" font-family="Times,serif" font-size="9.00">enemyRadar[RightFront30]</text>
</g>
<!-- enemyRadar[RightFront30]&#45;&gt;Move right -->
<g id="edge23" class="edge"><title>enemyRadar[RightFront30]&#45;&gt;Move right</title>
<path fill="none" stroke="green" stroke-width="0.106902" stroke-dasharray="1,5" d="M2158.77,-162.028C2145.57,-156.899 2127.68,-150.455 2111.42,-146.309 2013.28,-121.288 1975.19,-159.049 1886.42,-110.309 1879.53,-106.525 1873.13,-101.355 1867.41,-95.7029"/>
<polygon fill="green" stroke="green" stroke-width="0.106902" points="1869.92,-93.2627 1860.53,-88.3535 1864.81,-98.0462 1869.92,-93.2627"/>
</g>
<!-- enemyRadar[LeftFront30] -->
<g id="node14" class="node"><title>enemyRadar[LeftFront30]</title>
<polygon fill="lightgray" stroke="black" points="1670.42,-180.057 1560.42,-180.057 1560.42,-162.057 1670.42,-162.057 1670.42,-180.057"/>
<text text-anchor="middle" x="1615.42" y="-168.857" font-family="Times,serif" font-size="9.00">enemyRadar[LeftFront30]</text>
</g>
<!-- enemyRadar[LeftFront30]&#45;&gt; Move Backward -->
<g id="edge26" class="edge"><title>enemyRadar[LeftFront30]&#45;&gt; Move Backward</title>
<path fill="none" stroke="green" stroke-width="0.355388" d="M1594.78,-162.027C1582.3,-157.262 1566.02,-151.215 1551.42,-146.309 1470.48,-119.119 1375.97,-91.2642 1315.22,-73.8524"/>
<polygon fill="green" stroke="green" stroke-width="0.355388" points="1315.97,-70.4274 1305.39,-71.0435 1314.05,-77.1577 1315.97,-70.4274"/>
</g>
<!-- enemyRadar[LeftFront30]&#45;&gt;Move Left -->
<g id="edge37" class="edge"><title>enemyRadar[LeftFront30]&#45;&gt;Move Left</title>
<path fill="none" stroke="red" stroke-width="0.459302" d="M1597.59,-162.034C1584.96,-156.7 1567.47,-150.018 1551.42,-146.309 1393.45,-109.808 1348.94,-133.013 1188.42,-110.309 1100.91,-97.9326 999.745,-78.0616 941.802,-66.1414"/>
<polygon fill="red" stroke="red" stroke-width="0.459302" points="942.346,-62.68 931.845,-64.0836 940.93,-69.5351 942.346,-62.68"/>
</g>
<!-- enemyRadar[LeftFront30]&#45;&gt;Turn Left -->
<g id="edge9" class="edge"><title>enemyRadar[LeftFront30]&#45;&gt;Turn Left</title>
<path fill="none" stroke="red" stroke-width="0.262485" stroke-dasharray="1,5" d="M1606,-161.866C1587.9,-146.132 1547.49,-110.992 1518.21,-85.5362"/>
<polygon fill="red" stroke="red" stroke-width="0.262485" points="1520.49,-82.885 1510.65,-78.9647 1515.9,-88.1674 1520.49,-82.885"/>
</g>
<!-- enemyRadar[LeftFront30]&#45;&gt;Turn Right -->
<g id="edge2" class="edge"><title>enemyRadar[LeftFront30]&#45;&gt;Turn Right</title>
<path fill="none" stroke="green" stroke-width="0.110887" stroke-dasharray="1,5" d="M1634.44,-161.948C1647.02,-156.85 1663.97,-150.474 1679.42,-146.309 1770,-121.886 1805.47,-155.984 1887.42,-110.309 1894.28,-106.481 1900.66,-101.289 1906.38,-95.6279"/>
<polygon fill="green" stroke="green" stroke-width="0.110887" points="1908.98,-97.9688 1913.26,-88.274 1903.87,-93.1878 1908.98,-97.9688"/>
</g>
<!-- enemyRadar[RightFront10] -->
<g id="node15" class="node"><title>enemyRadar[RightFront10]</title>
<polygon fill="lightgray" stroke="black" points="1541.92,-180.057 1426.92,-180.057 1426.92,-162.057 1541.92,-162.057 1541.92,-180.057"/>
<text text-anchor="middle" x="1484.42" y="-168.857" font-family="Times,serif" font-size="9.00">enemyRadar[RightFront10]</text>
</g>
<!-- enemyRadar[RightFront10]&#45;&gt;Move Forward -->
<g id="edge36" class="edge"><title>enemyRadar[RightFront10]&#45;&gt;Move Forward</title>
<path fill="none" stroke="red" stroke-width="0.663359" stroke-dasharray="1,5" d="M1466.04,-161.982C1452.79,-156.55 1434.34,-149.773 1417.42,-146.309 1168.73,-95.4167 1099.78,-137.635 847.417,-110.309 744.006,-99.1111 624.502,-79.2449 554.711,-66.9384"/>
<polygon fill="red" stroke="red" stroke-width="0.663359" points="555.24,-63.4776 544.783,-65.1795 554.019,-70.3703 555.24,-63.4776"/>
</g>
<!-- enemyRadar[RightFront10]&#45;&gt;Turn Left -->
<g id="edge54" class="edge"><title>enemyRadar[RightFront10]&#45;&gt;Turn Left</title>
<path fill="none" stroke="green" stroke-width="0.248128" d="M1484.42,-161.866C1484.42,-149.126 1484.42,-123.662 1484.42,-100.918"/>
<polygon fill="green" stroke="green" stroke-width="0.248128" points="1487.92,-100.715 1484.42,-90.7155 1480.92,-100.716 1487.92,-100.715"/>
</g>
<!-- enemyRadar[RightFront10]&#45;&gt;Turn Right -->
<g id="edge62" class="edge"><title>enemyRadar[RightFront10]&#45;&gt;Turn Right</title>
<path fill="none" stroke="red" stroke-width="0.213623" d="M1503.41,-161.98C1516.64,-156.692 1534.81,-150.087 1551.42,-146.309 1697.86,-112.993 1753.93,-179.149 1887.42,-110.309 1894.48,-106.665 1900.99,-101.513 1906.78,-95.8219"/>
<polygon fill="red" stroke="red" stroke-width="0.213623" points="1909.45,-98.0927 1913.72,-88.3975 1904.33,-93.3124 1909.45,-98.0927"/>
</g>
<!-- enemyRadar[LeftFront10] -->
<g id="node16" class="node"><title>enemyRadar[LeftFront10]</title>
<polygon fill="lightgray" stroke="black" points="655.417,-180.057 545.417,-180.057 545.417,-162.057 655.417,-162.057 655.417,-180.057"/>
<text text-anchor="middle" x="600.417" y="-168.857" font-family="Times,serif" font-size="9.00">enemyRadar[LeftFront10]</text>
</g>
<!-- enemyRadar[LeftFront10]&#45;&gt;Shoot -->
<g id="edge19" class="edge"><title>enemyRadar[LeftFront10]&#45;&gt;Shoot</title>
<path fill="none" stroke="red" stroke-width="0.385788" d="M578.456,-162.024C565.861,-157.42 549.752,-151.534 535.417,-146.309 491.429,-130.275 473.217,-139.252 436.417,-110.309 428.857,-104.363 422.342,-96.3781 417.014,-88.369"/>
<polygon fill="red" stroke="red" stroke-width="0.385788" points="419.934,-86.4368 411.705,-79.7643 413.977,-90.1126 419.934,-86.4368"/>
</g>
<!-- enemyRadar[LeftFront10]&#45;&gt;Move Left -->
<g id="edge17" class="edge"><title>enemyRadar[LeftFront10]&#45;&gt;Move Left</title>
<path fill="none" stroke="green" stroke-width="0.262119" stroke-dasharray="1,5" d="M621.09,-162.048C668.208,-143.793 784.475,-98.7484 849.159,-73.6885"/>
<polygon fill="green" stroke="green" stroke-width="0.262119" points="850.636,-76.8697 858.696,-69.9934 848.107,-70.3425 850.636,-76.8697"/>
</g>
<!-- enemyRadar[LeftFront10]&#45;&gt;Turn Left -->
<g id="edge39" class="edge"><title>enemyRadar[LeftFront10]&#45;&gt;Turn Left</title>
<path fill="none" stroke="red" stroke-width="0.891247" d="M617.654,-162.048C630.303,-156.573 648.057,-149.714 664.417,-146.309 948.545,-87.1609 1031.07,-163.264 1316.42,-110.309 1360.43,-102.14 1408.92,-85.6608 1442.44,-73.0149"/>
<polygon fill="red" stroke="red" stroke-width="0.891247" points="1443.82,-76.2342 1451.91,-69.3937 1441.32,-69.6958 1443.82,-76.2342"/>
</g>
<!-- enemyRadar[RightFront3.5] -->
<g id="node17" class="node"><title>enemyRadar[RightFront3.5]</title>
<polygon fill="lightgray" stroke="black" points="2620.92,-180.057 2503.92,-180.057 2503.92,-162.057 2620.92,-162.057 2620.92,-180.057"/>
<text text-anchor="middle" x="2562.42" y="-168.857" font-family="Times,serif" font-size="9.00">enemyRadar[RightFront3.5]</text>
</g>
<!-- enemyRadar[RightFront3.5]&#45;&gt;Turn Right -->
<g id="edge27" class="edge"><title>enemyRadar[RightFront3.5]&#45;&gt;Turn Right</title>
<path fill="none" stroke="red" stroke-width="0.139499" stroke-dasharray="1,5" d="M2540.63,-161.998C2526.25,-156.922 2506.9,-150.549 2489.42,-146.309 2305.76,-101.769 2082.43,-72.9733 1984.93,-61.6285"/>
<polygon fill="red" stroke="red" stroke-width="0.139499" points="1985.12,-58.1269 1974.79,-60.458 1984.32,-65.0808 1985.12,-58.1269"/>
</g>
<!-- enemyRadar[LeftFront3.5] -->
<g id="node18" class="node"><title>enemyRadar[LeftFront3.5]</title>
<polygon fill="lightgray" stroke="black" points="1198.42,-180.057 1086.42,-180.057 1086.42,-162.057 1198.42,-162.057 1198.42,-180.057"/>
<text text-anchor="middle" x="1142.42" y="-168.857" font-family="Times,serif" font-size="9.00">enemyRadar[LeftFront3.5]</text>
</g>
<!-- enemyRadar[LeftFront3.5]&#45;&gt;Shoot -->
<g id="edge29" class="edge"><title>enemyRadar[LeftFront3.5]&#45;&gt;Shoot</title>
<path fill="none" stroke="green" stroke-width="0.273142" stroke-dasharray="1,5" d="M1125.18,-162.052C1112.53,-156.579 1094.77,-149.721 1078.42,-146.309 938.537,-117.127 560.416,-181.316 436.417,-110.309 427.764,-105.354 420.797,-97.3719 415.382,-89.0416"/>
<polygon fill="green" stroke="green" stroke-width="0.273142" points="418.366,-87.2109 410.295,-80.3466 412.324,-90.7455 418.366,-87.2109"/>
</g>
<!-- enemyRadar[LeftFront3.5]&#45;&gt;Move Left -->
<g id="edge49" class="edge"><title>enemyRadar[LeftFront3.5]&#45;&gt;Move Left</title>
<path fill="none" stroke="red" stroke-width="0.494088" stroke-dasharray="1,5" d="M1124.98,-162.048C1086.52,-144.384 993.447,-101.638 938.028,-76.1843"/>
<polygon fill="red" stroke="red" stroke-width="0.494088" points="939.353,-72.9418 928.805,-71.9486 936.432,-79.3029 939.353,-72.9418"/>
</g>
<!-- enemyRadar[LeftFront3.5]&#45;&gt;Move right -->
<g id="edge41" class="edge"><title>enemyRadar[LeftFront3.5]&#45;&gt;Move right</title>
<path fill="none" stroke="red" stroke-width="0.276854" stroke-dasharray="1,5" d="M1173.8,-161.96C1194.12,-156.932 1221.21,-150.628 1245.42,-146.309 1370.24,-124.037 1403.04,-129.223 1528.42,-110.309 1620.85,-96.3634 1728.21,-76.8678 1789.25,-65.4707"/>
<polygon fill="red" stroke="red" stroke-width="0.276854" points="1790.18,-68.8571 1799.36,-63.5766 1788.89,-61.9767 1790.18,-68.8571"/>
</g>
<!-- enemyRadar[LeftFront3.5]&#45;&gt;Turn Left -->
<g id="edge34" class="edge"><title>enemyRadar[LeftFront3.5]&#45;&gt;Turn Left</title>
<path fill="none" stroke="green" stroke-width="0.473944" stroke-dasharray="1,5" d="M1166.47,-162.048C1223.68,-142.993 1368.54,-94.7467 1441.31,-70.5112"/>
<polygon fill="green" stroke="green" stroke-width="0.473944" points="1442.7,-73.737 1451.08,-67.2564 1440.49,-67.0956 1442.7,-73.737"/>
</g>
<!-- enemyRadar[RightFront1.5] -->
<g id="node19" class="node"><title>enemyRadar[RightFront1.5]</title>
<polygon fill="lightgray" stroke="black" points="2370.92,-180.057 2253.92,-180.057 2253.92,-162.057 2370.92,-162.057 2370.92,-180.057"/>
<text text-anchor="middle" x="2312.42" y="-168.857" font-family="Times,serif" font-size="9.00">enemyRadar[RightFront1.5]</text>
</g>
<!-- enemyRadar[RightFront1.5]&#45;&gt;Move right -->
<g id="edge24" class="edge"><title>enemyRadar[RightFront1.5]&#45;&gt;Move right</title>
<path fill="none" stroke="green" stroke-width="0.365554" stroke-dasharray="1,5" d="M2293.43,-161.944C2280.21,-156.64 2262.04,-150.03 2245.42,-146.309 2088.94,-111.268 2029.18,-183.326 1886.42,-110.309 1879.34,-106.689 1872.83,-101.549 1867.03,-95.8627"/>
<polygon fill="green" stroke="green" stroke-width="0.365554" points="1869.48,-93.3532 1860.09,-88.4406 1864.37,-98.1348 1869.48,-93.3532"/>
</g>
<!-- enemyRadar[LeftFront1.5] -->
<g id="node20" class="node"><title>enemyRadar[LeftFront1.5]</title>
<polygon fill="lightgray" stroke="black" points="2102.42,-180.057 1990.42,-180.057 1990.42,-162.057 2102.42,-162.057 2102.42,-180.057"/>
<text text-anchor="middle" x="2046.42" y="-168.857" font-family="Times,serif" font-size="9.00">enemyRadar[LeftFront1.5]</text>
</g>
<!-- enemyRadar[LeftFront1.5]&#45;&gt;Turn Left -->
<g id="edge25" class="edge"><title>enemyRadar[LeftFront1.5]&#45;&gt;Turn Left</title>
<path fill="none" stroke="green" stroke-width="1.52952" d="M2027.07,-162.002C2014.29,-156.927 1997.07,-150.555 1981.42,-146.309 1959.49,-140.362 1647.34,-84.9587 1529.24,-64.0716"/>
<polygon fill="green" stroke="green" stroke-width="1.52952" points="1529.55,-60.5717 1519.09,-62.277 1528.33,-67.4647 1529.55,-60.5717"/>
</g>
<!-- enemyRadar[LeftFront1.5]&#45;&gt;Turn Right -->
<g id="edge10" class="edge"><title>enemyRadar[LeftFront1.5]&#45;&gt;Turn Right</title>
<path fill="none" stroke="green" stroke-width="0.185496" stroke-dasharray="1,5" d="M2038.43,-161.866C2024.29,-147.35 1994.04,-116.316 1969.97,-91.6081"/>
<polygon fill="green" stroke="green" stroke-width="0.185496" points="1972.2,-88.8876 1962.72,-84.1686 1967.19,-93.7731 1972.2,-88.8876"/>
</g>
<!-- OnTarget -->
<g id="node21" class="node"><title>OnTarget</title>
<polygon fill="lightgray" stroke="black" points="1961.42,-249.806 1911.42,-249.806 1911.42,-231.806 1961.42,-231.806 1961.42,-249.806"/>
<text text-anchor="middle" x="1936.42" y="-238.606" font-family="Times,serif" font-size="9.00">OnTarget</text>
</g>
<!-- bias -->
<g id="node22" class="node"><title>bias</title>
<polygon fill="lightgray" stroke="black" points="1267.92,-249.806 1236.92,-249.806 1236.92,-231.806 1267.92,-231.806 1267.92,-249.806"/>
<text text-anchor="middle" x="1252.42" y="-238.606" font-family="Times,serif" font-size="9.00">bias</text>
</g>
<!-- bias&#45;&gt;Move Forward -->
<g id="edge50" class="edge"><title>bias&#45;&gt;Move Forward</title>
<path fill="none" stroke="green" stroke-width="0.422827" stroke-dasharray="1,5" d="M1236.71,-239.644C1119.73,-238.359 388.03,-229.01 356.417,-195.806 341.247,-179.874 344.472,-164.782 356.417,-146.309 377.587,-113.567 403.862,-131.765 436.417,-110.309 441.955,-106.659 447.477,-102.489 452.798,-98.1191"/>
<polygon fill="green" stroke="green" stroke-width="0.422827" points="455.09,-100.764 460.428,-91.6117 450.548,-95.4382 455.09,-100.764"/>
</g>
<!-- bias&#45;&gt; Move Backward -->
<g id="edge16" class="edge"><title>bias&#45;&gt; Move Backward</title>
<path fill="none" stroke="green" stroke-width="0.381731" d="M1250.74,-231.742C1249.01,-222.953 1246.42,-208.452 1245.42,-195.806 1243.48,-171.247 1244.17,-144.214 1245.72,-120.527"/>
<polygon fill="green" stroke="green" stroke-width="0.381731" points="1249.24,-120.475 1246.46,-110.25 1242.25,-119.974 1249.24,-120.475"/>
</g>
<!-- bias&#45;&gt;Move Left -->
<g id="edge8" class="edge"><title>bias&#45;&gt;Move Left</title>
<path fill="none" stroke="red" stroke-width="0.208274" d="M1236.68,-239.765C1179.45,-239.298 983.239,-234.83 937.417,-195.806 910.868,-173.196 900.432,-134.603 896.46,-103.71"/>
<polygon fill="red" stroke="red" stroke-width="0.208274" points="899.917,-103.121 895.347,-93.5621 892.959,-103.884 899.917,-103.121"/>
</g>
<!-- bias&#45;&gt;Move right -->
<g id="edge21" class="edge"><title>bias&#45;&gt;Move right</title>
<path fill="none" stroke="red" stroke-width="0.959062" d="M1268.06,-239.496C1402.62,-236.791 2360.21,-216.818 2380.42,-195.806 2395.67,-179.95 2395.4,-162.42 2380.42,-146.309 2305.47,-65.6994 1985.09,-159.091 1886.42,-110.309 1879.29,-106.785 1872.75,-101.695 1866.95,-96.0269"/>
<polygon fill="red" stroke="red" stroke-width="0.959062" points="1869.4,-93.5177 1860,-88.6139 1864.29,-98.3041 1869.4,-93.5177"/>
</g>
<!-- bias&#45;&gt;Turn Right -->
<g id="edge6" class="edge"><title>bias&#45;&gt;Turn Right</title>
<path fill="none" stroke="red" stroke-width="1.68974" d="M1268.07,-239.608C1418.64,-237.668 2605.46,-221.569 2630.42,-195.806 2645.72,-180.004 2644.94,-162.834 2630.42,-146.309 2587.78,-97.7818 2137.59,-67.7247 1985.38,-58.8891"/>
<polygon fill="red" stroke="red" stroke-width="1.68974" points="1985.55,-55.3933 1975.37,-58.3137 1985.15,-62.3818 1985.55,-55.3933"/>
</g>
<!-- 3255 -->
<g id="node31" class="node"><title>3255</title>
<ellipse fill="white" stroke="black" cx="1279.42" cy="-171.057" rx="25" ry="25"/>
<text text-anchor="middle" x="1279.42" y="-168.857" font-family="Times,serif" font-size="9.00">3255</text>
</g>
<!-- bias&#45;&gt;3255 -->
<g id="edge63" class="edge"><title>bias&#45;&gt;3255</title>
<path fill="none" stroke="red" stroke-width="0.322823" stroke-dasharray="1,5" d="M1255.62,-231.768C1258.42,-224.737 1262.68,-214.05 1266.83,-203.651"/>
<polygon fill="red" stroke="red" stroke-width="0.322823" points="1270.1,-204.88 1270.55,-194.295 1263.6,-202.289 1270.1,-204.88"/>
</g>
<!-- 2733&#45;&gt; Move Backward -->
<g id="edge66" class="edge"><title>2733&#45;&gt; Move Backward</title>
<path fill="none" stroke="green" stroke-width="0.303016" d="M1798.59,-154.427C1793.89,-151.244 1788.68,-148.272 1783.42,-146.309 1639.81,-92.7215 1590.87,-139.636 1440.42,-110.309 1397.75,-101.992 1350.77,-88.4583 1314.44,-77.0011"/>
<polygon fill="green" stroke="green" stroke-width="0.303016" points="1315.08,-73.5315 1304.49,-73.8307 1312.95,-80.2012 1315.08,-73.5315"/>
</g>
<!-- 2733&#45;&gt;Turn Right -->
<g id="edge61" class="edge"><title>2733&#45;&gt;Turn Right</title>
<path fill="none" stroke="red" stroke-width="0.105746" stroke-dasharray="1,5" d="M1836.46,-155.01C1850.9,-143.316 1871,-126.425 1887.42,-110.309 1892.72,-105.105 1898.13,-99.4171 1903.32,-93.7451"/>
<polygon fill="red" stroke="red" stroke-width="0.105746" points="1906.14,-95.8426 1910.23,-86.0679 1900.94,-91.1604 1906.14,-95.8426"/>
</g>
<!-- 3255&#45;&gt; Move Backward -->
<g id="edge64" class="edge"><title>3255&#45;&gt; Move Backward</title>
<path fill="none" stroke="red" stroke-width="0.241453" d="M1273.89,-146.733C1271.94,-138.532 1269.66,-128.882 1267.31,-118.992"/>
<polygon fill="red" stroke="red" stroke-width="0.241453" points="1270.67,-117.991 1264.96,-109.068 1263.86,-119.606 1270.67,-117.991"/>
</g>
<!-- 3899&#45;&gt;Shoot -->
<g id="edge70" class="edge"><title>3899&#45;&gt;Shoot</title>
<path fill="none" stroke="red" stroke-width="0.228641" d="M65.2497,-154.797C69.7114,-151.675 74.5834,-148.636 79.4166,-146.309 176.786,-99.4181 302.864,-72.9712 363.988,-62.0887"/>
<polygon fill="red" stroke="red" stroke-width="0.228641" points="364.677,-65.5216 373.926,-60.3554 363.474,-58.6257 364.677,-65.5216"/>
</g>
</g>
</svg>
