<?xml version="1.0" encoding="UTF-8" standalone="no"?>
<!DOCTYPE svg PUBLIC "-//W3C//DTD SVG 1.1//EN"
 "http://www.w3.org/Graphics/SVG/1.1/DTD/svg11.dtd">
<!-- Generated by graphviz version 2.38.0 (20140413.2041)
 -->
<!-- Title: %3 Pages: 1 -->
<svg width="2490pt" height="216pt"
 viewBox="0.00 0.00 2490.00 216.15" xmlns="http://www.w3.org/2000/svg" xmlns:xlink="http://www.w3.org/1999/xlink">
<g id="graph0" class="graph" transform="scale(1 1) rotate(0) translate(4 212.149)">
<title>%3</title>
<polygon fill="white" stroke="none" points="-4,4 -4,-212.149 2486,-212.149 2486,4 -4,4"/>
<!-- wallRadar[1,0] -->
<g id="node1" class="node"><title>wallRadar[1,0]</title>
<polygon fill="lightgray" stroke="black" points="881,-208.149 811,-208.149 811,-190.149 881,-190.149 881,-208.149"/>
<text text-anchor="middle" x="846" y="-196.949" font-family="Times,serif" font-size="9.00">wallRadar[1,0]</text>
</g>
<!-- Shoot -->
<g id="node24" class="node"><title>Shoot</title>
<ellipse fill="lightblue" stroke="black" cx="1204" cy="-77.0746" rx="26.7407" ry="26.7407"/>
<text text-anchor="middle" x="1204" y="-74.8746" font-family="Times,serif" font-size="9.00">Shoot</text>
</g>
<!-- wallRadar[1,0]&#45;&gt;Shoot -->
<g id="edge26" class="edge"><title>wallRadar[1,0]&#45;&gt;Shoot</title>
<path fill="none" stroke="red" stroke-width="0.483817" d="M870.045,-190.084C931.884,-169.343 1096.65,-114.08 1169.05,-89.7968"/>
<polygon fill="red" stroke="red" stroke-width="0.483817" points="1170.27,-93.0811 1178.63,-86.5827 1168.04,-86.4444 1170.27,-93.0811"/>
</g>
<!-- Move Forward/Backward -->
<g id="node25" class="node"><title>Move Forward/Backward</title>
<ellipse fill="lightblue" stroke="black" cx="1388" cy="-77.0746" rx="77.1494" ry="77.1494"/>
<text text-anchor="middle" x="1388" y="-74.8746" font-family="Times,serif" font-size="9.00">Move Forward/Backward</text>
</g>
<!-- wallRadar[1,0]&#45;&gt;Move Forward/Backward -->
<g id="edge32" class="edge"><title>wallRadar[1,0]&#45;&gt;Move Forward/Backward</title>
<path fill="none" stroke="red" stroke-width="0.326379" d="M881.025,-191.529C884.056,-191.033 887.079,-190.564 890,-190.149 1044.82,-168.146 1090.09,-198.663 1240,-154.149 1265.06,-146.708 1290.9,-135.022 1313.83,-123.022"/>
<polygon fill="red" stroke="red" stroke-width="0.326379" points="1315.62,-126.032 1322.8,-118.236 1312.33,-119.856 1315.62,-126.032"/>
</g>
<!-- Turn left/right -->
<g id="node27" class="node"><title>Turn left/right</title>
<ellipse fill="lightblue" stroke="black" cx="768" cy="-77.0746" rx="46.8387" ry="46.8387"/>
<text text-anchor="middle" x="768" y="-74.8746" font-family="Times,serif" font-size="9.00">Turn left/right</text>
</g>
<!-- wallRadar[1,0]&#45;&gt;Turn left/right -->
<g id="edge1" class="edge"><title>wallRadar[1,0]&#45;&gt;Turn left/right</title>
<path fill="none" stroke="green" stroke-width="0.571261" d="M840.639,-189.896C831.987,-176.578 814.323,-149.385 798.58,-125.15"/>
<polygon fill="green" stroke="green" stroke-width="0.571261" points="801.493,-123.209 793.11,-116.729 795.622,-127.022 801.493,-123.209"/>
</g>
<!-- wallRadar[0,1] -->
<g id="node2" class="node"><title>wallRadar[0,1]</title>
<polygon fill="lightgray" stroke="black" points="2482,-208.149 2412,-208.149 2412,-190.149 2482,-190.149 2482,-208.149"/>
<text text-anchor="middle" x="2447" y="-196.949" font-family="Times,serif" font-size="9.00">wallRadar[0,1]</text>
</g>
<!--  Move Left/Right -->
<g id="node26" class="node"><title> Move Left/Right</title>
<ellipse fill="lightblue" stroke="black" cx="1713" cy="-77.0746" rx="55.3091" ry="55.3091"/>
<text text-anchor="middle" x="1713" y="-74.8746" font-family="Times,serif" font-size="9.00"> Move Left/Right</text>
</g>
<!-- wallRadar[0,1]&#45;&gt; Move Left/Right -->
<g id="edge53" class="edge"><title>wallRadar[0,1]&#45;&gt; Move Left/Right</title>
<path fill="none" stroke="green" stroke-width="0.335456" d="M2411.95,-191.714C2408.92,-191.178 2405.91,-190.65 2403,-190.149 2173.24,-150.606 1899.77,-107.301 1777.57,-88.1461"/>
<polygon fill="green" stroke="green" stroke-width="0.335456" points="1778.04,-84.6783 1767.62,-86.5884 1776.96,-91.5939 1778.04,-84.6783"/>
</g>
<!-- wallRadar[&#45;1,0] -->
<g id="node3" class="node"><title>wallRadar[&#45;1,0]</title>
<polygon fill="lightgray" stroke="black" points="290.5,-208.149 217.5,-208.149 217.5,-190.149 290.5,-190.149 290.5,-208.149"/>
<text text-anchor="middle" x="254" y="-196.949" font-family="Times,serif" font-size="9.00">wallRadar[&#45;1,0]</text>
</g>
<!-- wallRadar[&#45;1,0]&#45;&gt;Turn left/right -->
<g id="edge43" class="edge"><title>wallRadar[&#45;1,0]&#45;&gt;Turn left/right</title>
<path fill="none" stroke="red" stroke-width="0.60002" d="M288.523,-190.084C375.854,-169.683 606.161,-115.882 712.606,-91.015"/>
<polygon fill="red" stroke="red" stroke-width="0.60002" points="713.57,-94.3842 722.512,-88.701 711.978,-87.5677 713.57,-94.3842"/>
</g>
<!-- wallRadar[0,&#45;1] -->
<g id="node4" class="node"><title>wallRadar[0,&#45;1]</title>
<polygon fill="lightgray" stroke="black" points="381.5,-208.149 308.5,-208.149 308.5,-190.149 381.5,-190.149 381.5,-208.149"/>
<text text-anchor="middle" x="345" y="-196.949" font-family="Times,serif" font-size="9.00">wallRadar[0,&#45;1]</text>
</g>
<!-- wallRadar[0,&#45;1]&#45;&gt;Shoot -->
<g id="edge10" class="edge"><title>wallRadar[0,&#45;1]&#45;&gt;Shoot</title>
<path fill="none" stroke="green" stroke-width="0.142406" d="M381.614,-191.478C384.783,-190.993 387.945,-190.541 391,-190.149 582.539,-165.581 632.788,-181.147 824,-154.149 951.423,-136.158 1100.56,-102.584 1167.84,-86.756"/>
<polygon fill="green" stroke="green" stroke-width="0.142406" points="1168.99,-90.0802 1177.92,-84.3731 1167.38,-83.268 1168.99,-90.0802"/>
</g>
<!-- wallRadar[0,&#45;1]&#45;&gt;Turn left/right -->
<g id="edge39" class="edge"><title>wallRadar[0,&#45;1]&#45;&gt;Turn left/right</title>
<path fill="none" stroke="green" stroke-width="0.120384" d="M373.411,-190.084C442.865,-170.369 622.206,-119.46 713.244,-93.618"/>
<polygon fill="green" stroke="green" stroke-width="0.120384" points="714.435,-96.9182 723.099,-90.8204 712.524,-90.1842 714.435,-96.9182"/>
</g>
<!-- wallRadar[0.7,0.7] -->
<g id="node5" class="node"><title>wallRadar[0.7,0.7]</title>
<polygon fill="lightgray" stroke="black" points="587.5,-208.149 504.5,-208.149 504.5,-190.149 587.5,-190.149 587.5,-208.149"/>
<text text-anchor="middle" x="546" y="-196.949" font-family="Times,serif" font-size="9.00">wallRadar[0.7,0.7]</text>
</g>
<!-- wallRadar[0.7,0.7]&#45;&gt;Move Forward/Backward -->
<g id="edge23" class="edge"><title>wallRadar[0.7,0.7]&#45;&gt;Move Forward/Backward</title>
<path fill="none" stroke="green" stroke-width="0.621226" d="M587.704,-191.261C590.845,-190.848 593.97,-190.471 597,-190.149 739.313,-175.042 1101.9,-191.682 1240,-154.149 1265.23,-147.293 1291.11,-135.779 1314.04,-123.757"/>
<polygon fill="green" stroke="green" stroke-width="0.621226" points="1315.84,-126.761 1323,-118.952 1312.53,-120.591 1315.84,-126.761"/>
</g>
<!-- wallRadar[0.7,0.7]&#45;&gt;Turn left/right -->
<g id="edge30" class="edge"><title>wallRadar[0.7,0.7]&#45;&gt;Turn left/right</title>
<path fill="none" stroke="green" stroke-width="0.257228" d="M560.911,-190.084C592.551,-172.971 667.644,-132.355 718.162,-105.031"/>
<polygon fill="green" stroke="green" stroke-width="0.257228" points="719.851,-108.097 726.982,-100.261 716.521,-101.94 719.851,-108.097"/>
</g>
<!-- wallRadar[&#45;0.7,0.7] -->
<g id="node6" class="node"><title>wallRadar[&#45;0.7,0.7]</title>
<polygon fill="lightgray" stroke="black" points="86,-208.149 0,-208.149 0,-190.149 86,-190.149 86,-208.149"/>
<text text-anchor="middle" x="43" y="-196.949" font-family="Times,serif" font-size="9.00">wallRadar[&#45;0.7,0.7]</text>
</g>
<!-- wallRadar[&#45;0.7,0.7]&#45;&gt;Turn left/right -->
<g id="edge33" class="edge"><title>wallRadar[&#45;0.7,0.7]&#45;&gt;Turn left/right</title>
<path fill="none" stroke="green" stroke-width="0.126983" d="M86.1809,-190.998C210.94,-170.335 571.888,-110.555 711.725,-87.395"/>
<polygon fill="green" stroke="green" stroke-width="0.126983" points="712.507,-90.8132 721.8,-85.7262 711.363,-83.9073 712.507,-90.8132"/>
</g>
<!-- wallRadar[&#45;0.7,&#45;0.7] -->
<g id="node7" class="node"><title>wallRadar[&#45;0.7,&#45;0.7]</title>
<polygon fill="lightgray" stroke="black" points="1128.5,-208.149 1039.5,-208.149 1039.5,-190.149 1128.5,-190.149 1128.5,-208.149"/>
<text text-anchor="middle" x="1084" y="-196.949" font-family="Times,serif" font-size="9.00">wallRadar[&#45;0.7,&#45;0.7]</text>
</g>
<!-- wallRadar[&#45;0.7,&#45;0.7]&#45;&gt;Shoot -->
<g id="edge36" class="edge"><title>wallRadar[&#45;0.7,&#45;0.7]&#45;&gt;Shoot</title>
<path fill="none" stroke="red" stroke-width="0.1255" stroke-dasharray="1,5" d="M1092.25,-189.896C1109.67,-172.461 1150.86,-131.247 1178.07,-104.022"/>
<polygon fill="red" stroke="red" stroke-width="0.1255" points="1180.75,-106.293 1185.34,-96.7457 1175.8,-101.345 1180.75,-106.293"/>
</g>
<!-- wallRadar[&#45;0.7,&#45;0.7]&#45;&gt; Move Left/Right -->
<g id="edge15" class="edge"><title>wallRadar[&#45;0.7,&#45;0.7]&#45;&gt; Move Left/Right</title>
<path fill="none" stroke="green" stroke-width="0.103242" d="M1128.77,-191.375C1131.89,-190.946 1134.99,-190.533 1138,-190.149 1286.98,-171.14 1327.03,-185.083 1474,-154.149 1535.79,-141.144 1604.26,-118.463 1652.02,-101.241"/>
<polygon fill="green" stroke="green" stroke-width="0.103242" points="1653.39,-104.469 1661.59,-97.7638 1651,-97.8899 1653.39,-104.469"/>
</g>
<!-- wallRadar[&#45;0.7,&#45;0.7]&#45;&gt;Turn left/right -->
<g id="edge34" class="edge"><title>wallRadar[&#45;0.7,&#45;0.7]&#45;&gt;Turn left/right</title>
<path fill="none" stroke="green" stroke-width="0.465673" d="M1062.78,-190.084C1013.81,-171.478 891.725,-125.088 820.98,-98.2062"/>
<polygon fill="green" stroke="green" stroke-width="0.465673" points="821.943,-94.8278 811.351,-94.5474 819.456,-101.371 821.943,-94.8278"/>
</g>
<!-- wallRadar[0.7,&#45;0.7] -->
<g id="node8" class="node"><title>wallRadar[0.7,&#45;0.7]</title>
<polygon fill="lightgray" stroke="black" points="486,-208.149 400,-208.149 400,-190.149 486,-190.149 486,-208.149"/>
<text text-anchor="middle" x="443" y="-196.949" font-family="Times,serif" font-size="9.00">wallRadar[0.7,&#45;0.7]</text>
</g>
<!-- wallRadar[0.7,&#45;0.7]&#45;&gt;Shoot -->
<g id="edge7" class="edge"><title>wallRadar[0.7,&#45;0.7]&#45;&gt;Shoot</title>
<path fill="none" stroke="red" stroke-width="0.199116" d="M486.11,-191.369C489.116,-190.942 492.102,-190.531 495,-190.149 640.838,-170.961 678.63,-176.609 824,-154.149 951.178,-134.5 1100.44,-101.746 1167.79,-86.4381"/>
<polygon fill="red" stroke="red" stroke-width="0.199116" points="1168.91,-89.7727 1177.88,-84.1357 1167.35,-82.9481 1168.91,-89.7727"/>
</g>
<!-- wallRadar[0.7,&#45;0.7]&#45;&gt;Move Forward/Backward -->
<g id="edge46" class="edge"><title>wallRadar[0.7,&#45;0.7]&#45;&gt;Move Forward/Backward</title>
<path fill="none" stroke="red" stroke-width="0.615547" d="M486.086,-191.166C489.098,-190.787 492.092,-190.442 495,-190.149 659.913,-173.525 1079.89,-197.007 1240,-154.149 1265.25,-147.39 1291.15,-135.904 1314.07,-123.878"/>
<polygon fill="red" stroke="red" stroke-width="0.615547" points="1315.87,-126.881 1323.03,-119.07 1312.57,-120.712 1315.87,-126.881"/>
</g>
<!-- wallRadar[0.7,&#45;0.7]&#45;&gt;Turn left/right -->
<g id="edge50" class="edge"><title>wallRadar[0.7,&#45;0.7]&#45;&gt;Turn left/right</title>
<path fill="none" stroke="green" stroke-width="0.263781" stroke-dasharray="1,5" d="M464.829,-190.084C515.566,-171.339 642.627,-124.395 715.129,-97.6083"/>
<polygon fill="green" stroke="green" stroke-width="0.263781" points="716.386,-100.875 724.553,-94.1266 713.96,-94.3092 716.386,-100.875"/>
</g>
<!-- enemyRadar[RightBack] -->
<g id="node9" class="node"><title>enemyRadar[RightBack]</title>
<polygon fill="lightgray" stroke="black" points="2093,-208.149 1989,-208.149 1989,-190.149 2093,-190.149 2093,-208.149"/>
<text text-anchor="middle" x="2041" y="-196.949" font-family="Times,serif" font-size="9.00">enemyRadar[RightBack]</text>
</g>
<!-- enemyRadar[RightBack]&#45;&gt;Move Forward/Backward -->
<g id="edge4" class="edge"><title>enemyRadar[RightBack]&#45;&gt;Move Forward/Backward</title>
<path fill="none" stroke="red" stroke-width="0.240067" d="M1988.77,-191.222C1985.8,-190.853 1982.86,-190.493 1980,-190.149 1833.07,-172.527 1794.15,-182.964 1649,-154.149 1588.33,-142.105 1521.38,-122.455 1470.47,-106.143"/>
<polygon fill="red" stroke="red" stroke-width="0.240067" points="1471.43,-102.774 1460.84,-103.034 1469.28,-109.436 1471.43,-102.774"/>
</g>
<!-- enemyRadar[LeftBack] -->
<g id="node10" class="node"><title>enemyRadar[LeftBack]</title>
<polygon fill="lightgray" stroke="black" points="2344.5,-208.149 2245.5,-208.149 2245.5,-190.149 2344.5,-190.149 2344.5,-208.149"/>
<text text-anchor="middle" x="2295" y="-196.949" font-family="Times,serif" font-size="9.00">enemyRadar[LeftBack]</text>
</g>
<!-- enemyRadar[LeftBack]&#45;&gt;Move Forward/Backward -->
<g id="edge51" class="edge"><title>enemyRadar[LeftBack]&#45;&gt;Move Forward/Backward</title>
<path fill="none" stroke="red" stroke-width="0.215894" d="M2245.46,-191.163C2242.26,-190.795 2239.09,-190.453 2236,-190.149 1975.88,-164.572 1906.5,-198.997 1649,-154.149 1587.95,-143.517 1520.88,-123.782 1470.01,-107.077"/>
<polygon fill="red" stroke="red" stroke-width="0.215894" points="1470.98,-103.71 1460.38,-103.888 1468.77,-110.355 1470.98,-103.71"/>
</g>
<!-- enemyRadar[LeftBack]&#45;&gt; Move Left/Right -->
<g id="edge19" class="edge"><title>enemyRadar[LeftBack]&#45;&gt; Move Left/Right</title>
<path fill="none" stroke="green" stroke-width="0.265844" d="M2255.91,-190.084C2157.37,-169.754 1898.07,-116.257 1776.99,-91.2763"/>
<polygon fill="green" stroke="green" stroke-width="0.265844" points="1777.61,-87.8314 1767.11,-89.2386 1776.2,-94.687 1777.61,-87.8314"/>
</g>
<!-- enemyRadar[Right45ø] -->
<g id="node11" class="node"><title>enemyRadar[Right45ø]</title>
<polygon fill="lightgray" stroke="black" points="1567,-208.149 1467,-208.149 1467,-190.149 1567,-190.149 1567,-208.149"/>
<text text-anchor="middle" x="1517" y="-196.949" font-family="Times,serif" font-size="9.00">enemyRadar[Right45ø]</text>
</g>
<!-- enemyRadar[Right45ø]&#45;&gt;Shoot -->
<g id="edge14" class="edge"><title>enemyRadar[Right45ø]&#45;&gt;Shoot</title>
<path fill="none" stroke="green" stroke-width="0.171984" d="M1466.62,-190.557C1412.6,-181.939 1330.73,-167.36 1302,-154.149 1274.95,-141.709 1248.53,-120.519 1229.96,-103.657"/>
<polygon fill="green" stroke="green" stroke-width="0.171984" points="1232.21,-100.971 1222.5,-96.7341 1227.44,-106.102 1232.21,-100.971"/>
</g>
<!-- enemyRadar[Right45ø]&#45;&gt;Move Forward/Backward -->
<g id="edge16" class="edge"><title>enemyRadar[Right45ø]&#45;&gt;Move Forward/Backward</title>
<path fill="none" stroke="red" stroke-width="0.293205" stroke-dasharray="1,5" d="M1508.13,-189.896C1496.17,-178.757 1473.77,-157.912 1451.53,-137.21"/>
<polygon fill="red" stroke="red" stroke-width="0.293205" points="1453.71,-134.46 1444.01,-130.209 1448.94,-139.584 1453.71,-134.46"/>
</g>
<!-- enemyRadar[Right45ø]&#45;&gt; Move Left/Right -->
<g id="edge29" class="edge"><title>enemyRadar[Right45ø]&#45;&gt; Move Left/Right</title>
<path fill="none" stroke="green" stroke-width="0.299195" d="M1530.16,-190.084C1555.83,-174.359 1613.9,-138.789 1657.75,-111.922"/>
<polygon fill="green" stroke="green" stroke-width="0.299195" points="1659.62,-114.881 1666.32,-106.673 1655.96,-108.912 1659.62,-114.881"/>
</g>
<!-- enemyRadar[Right45ø]&#45;&gt;Turn left/right -->
<g id="edge6" class="edge"><title>enemyRadar[Right45ø]&#45;&gt;Turn left/right</title>
<path fill="none" stroke="red" stroke-width="0.217341" stroke-dasharray="1,5" d="M1466.79,-191.302C1463.82,-190.909 1460.87,-190.522 1458,-190.149 1329.2,-173.424 1296.31,-174.293 1168,-154.149 1044.53,-134.764 900.801,-105.867 823.7,-89.8444"/>
<polygon fill="red" stroke="red" stroke-width="0.217341" points="824.229,-86.3796 813.725,-87.7661 822.801,-93.2324 824.229,-86.3796"/>
</g>
<!-- enemyRadar[Left45ø] -->
<g id="node12" class="node"><title>enemyRadar[Left45ø]</title>
<polygon fill="lightgray" stroke="black" points="199.5,-208.149 104.5,-208.149 104.5,-190.149 199.5,-190.149 199.5,-208.149"/>
<text text-anchor="middle" x="152" y="-196.949" font-family="Times,serif" font-size="9.00">enemyRadar[Left45ø]</text>
</g>
<!-- enemyRadar[Left45ø]&#45;&gt;Turn left/right -->
<g id="edge25" class="edge"><title>enemyRadar[Left45ø]&#45;&gt;Turn left/right</title>
<path fill="none" stroke="red" stroke-width="0.593435" stroke-dasharray="1,5" d="M193.374,-190.084C301.081,-169.09 590.255,-112.722 712.366,-88.9191"/>
<polygon fill="red" stroke="red" stroke-width="0.593435" points="713.115,-92.3391 722.261,-86.9904 711.776,-85.4684 713.115,-92.3391"/>
</g>
<!-- enemyRadar[RightFront20ø] -->
<g id="node13" class="node"><title>enemyRadar[RightFront20ø]</title>
<polygon fill="lightgray" stroke="black" points="724.5,-208.149 605.5,-208.149 605.5,-190.149 724.5,-190.149 724.5,-208.149"/>
<text text-anchor="middle" x="665" y="-196.949" font-family="Times,serif" font-size="9.00">enemyRadar[RightFront20ø]</text>
</g>
<!-- enemyRadar[RightFront20ø]&#45;&gt;Move Forward/Backward -->
<g id="edge40" class="edge"><title>enemyRadar[RightFront20ø]&#45;&gt;Move Forward/Backward</title>
<path fill="none" stroke="red" stroke-width="0.437124" d="M724.822,-191.049C727.925,-190.732 730.998,-190.43 734,-190.149 958.478,-169.161 1022.89,-214.918 1240,-154.149 1265.17,-147.103 1291.04,-135.533 1313.97,-123.518"/>
<polygon fill="red" stroke="red" stroke-width="0.437124" points="1315.77,-126.524 1322.94,-118.719 1312.47,-120.352 1315.77,-126.524"/>
</g>
<!-- enemyRadar[RightFront20ø]&#45;&gt;Turn left/right -->
<g id="edge27" class="edge"><title>enemyRadar[RightFront20ø]&#45;&gt;Turn left/right</title>
<path fill="none" stroke="red" stroke-width="0.279156" d="M672.08,-189.896C684.189,-175.779 709.671,-146.073 731.328,-120.826"/>
<polygon fill="red" stroke="red" stroke-width="0.279156" points="734.053,-123.025 737.907,-113.156 728.74,-118.467 734.053,-123.025"/>
</g>
<!-- enemyRadar[LeftFront20ø] -->
<g id="node14" class="node"><title>enemyRadar[LeftFront20ø]</title>
<polygon fill="lightgray" stroke="black" points="1261,-208.149 1147,-208.149 1147,-190.149 1261,-190.149 1261,-208.149"/>
<text text-anchor="middle" x="1204" y="-196.949" font-family="Times,serif" font-size="9.00">enemyRadar[LeftFront20ø]</text>
</g>
<!-- enemyRadar[LeftFront20ø]&#45;&gt;Shoot -->
<g id="edge35" class="edge"><title>enemyRadar[LeftFront20ø]&#45;&gt;Shoot</title>
<path fill="none" stroke="red" stroke-width="0.211075" d="M1204,-189.896C1204,-174.554 1204,-140.799 1204,-114.366"/>
<polygon fill="red" stroke="red" stroke-width="0.211075" points="1207.5,-114.286 1204,-104.286 1200.5,-114.286 1207.5,-114.286"/>
</g>
<!-- enemyRadar[LeftFront20ø]&#45;&gt; Move Left/Right -->
<g id="edge18" class="edge"><title>enemyRadar[LeftFront20ø]&#45;&gt; Move Left/Right</title>
<path fill="none" stroke="green" stroke-width="0.436867" d="M1261.11,-191.317C1316.09,-184.159 1401.37,-171.528 1474,-154.149 1535.41,-139.456 1603.93,-116.999 1651.81,-100.289"/>
<polygon fill="green" stroke="green" stroke-width="0.436867" points="1653.13,-103.536 1661.4,-96.9212 1650.81,-96.9314 1653.13,-103.536"/>
</g>
<!-- enemyRadar[LeftFront20ø]&#45;&gt;Turn left/right -->
<g id="edge44" class="edge"><title>enemyRadar[LeftFront20ø]&#45;&gt;Turn left/right</title>
<path fill="none" stroke="green" stroke-width="0.890895" d="M1174.72,-190.084C1102.69,-170.247 915.993,-118.832 822.716,-93.1433"/>
<polygon fill="green" stroke="green" stroke-width="0.890895" points="823.472,-89.7213 812.901,-90.4405 821.613,-96.4701 823.472,-89.7213"/>
</g>
<!-- enemyRadar[RightFront15ø] -->
<g id="node15" class="node"><title>enemyRadar[RightFront15ø]</title>
<polygon fill="lightgray" stroke="black" points="1704.5,-208.149 1585.5,-208.149 1585.5,-190.149 1704.5,-190.149 1704.5,-208.149"/>
<text text-anchor="middle" x="1645" y="-196.949" font-family="Times,serif" font-size="9.00">enemyRadar[RightFront15ø]</text>
</g>
<!-- enemyRadar[RightFront15ø]&#45;&gt;Move Forward/Backward -->
<g id="edge5" class="edge"><title>enemyRadar[RightFront15ø]&#45;&gt;Move Forward/Backward</title>
<path fill="none" stroke="red" stroke-width="0.181617" d="M1627.74,-190.084C1595.33,-174.942 1523.54,-141.4 1466.92,-114.946"/>
<polygon fill="red" stroke="red" stroke-width="0.181617" points="1468.15,-111.66 1457.61,-110.598 1465.19,-118.002 1468.15,-111.66"/>
</g>
<!-- enemyRadar[RightFront15ø]&#45;&gt; Move Left/Right -->
<g id="edge28" class="edge"><title>enemyRadar[RightFront15ø]&#45;&gt; Move Left/Right</title>
<path fill="none" stroke="red" stroke-width="0.138303" d="M1649.67,-189.896C1656.27,-178.254 1668.86,-156.01 1681.1,-134.408"/>
<polygon fill="red" stroke="red" stroke-width="0.138303" points="1684.23,-135.971 1686.12,-125.545 1678.14,-132.522 1684.23,-135.971"/>
</g>
<!-- enemyRadar[RightFront15ø]&#45;&gt;Turn left/right -->
<g id="edge20" class="edge"><title>enemyRadar[RightFront15ø]&#45;&gt;Turn left/right</title>
<path fill="none" stroke="red" stroke-width="0.285917" d="M1585.17,-191.111C1582.07,-190.778 1579,-190.455 1576,-190.149 1394.9,-171.665 1348.31,-179.186 1168,-154.149 1044.03,-136.936 900.212,-107.144 823.294,-90.4064"/>
<polygon fill="red" stroke="red" stroke-width="0.285917" points="823.863,-86.9482 813.346,-88.2332 822.369,-93.7869 823.863,-86.9482"/>
</g>
<!-- enemyRadar[LeftFront15ø] -->
<g id="node16" class="node"><title>enemyRadar[LeftFront15ø]</title>
<polygon fill="lightgray" stroke="black" points="1971,-208.149 1857,-208.149 1857,-190.149 1971,-190.149 1971,-208.149"/>
<text text-anchor="middle" x="1914" y="-196.949" font-family="Times,serif" font-size="9.00">enemyRadar[LeftFront15ø]</text>
</g>
<!-- enemyRadar[LeftFront15ø]&#45;&gt;Shoot -->
<g id="edge48" class="edge"><title>enemyRadar[LeftFront15ø]&#45;&gt;Shoot</title>
<path fill="none" stroke="green" stroke-width="0.200977" d="M1856.78,-191.019C1853.81,-190.71 1850.87,-190.418 1848,-190.149 1726.93,-178.829 1415.67,-197.323 1302,-154.149 1273.99,-143.51 1247.48,-121.966 1229.11,-104.513"/>
<polygon fill="green" stroke="green" stroke-width="0.200977" points="1231.36,-101.813 1221.76,-97.3268 1226.46,-106.819 1231.36,-101.813"/>
</g>
<!-- enemyRadar[LeftFront15ø]&#45;&gt; Move Left/Right -->
<g id="edge17" class="edge"><title>enemyRadar[LeftFront15ø]&#45;&gt; Move Left/Right</title>
<path fill="none" stroke="green" stroke-width="0.402372" d="M1900.5,-190.084C1874.01,-174.26 1813.88,-138.342 1768.81,-111.417"/>
<polygon fill="green" stroke="green" stroke-width="0.402372" points="1770.4,-108.285 1760.02,-106.161 1766.81,-114.294 1770.4,-108.285"/>
</g>
<!-- enemyRadar[RightFront7.5ø] -->
<g id="node17" class="node"><title>enemyRadar[RightFront7.5ø]</title>
<polygon fill="lightgray" stroke="black" points="1021,-208.149 899,-208.149 899,-190.149 1021,-190.149 1021,-208.149"/>
<text text-anchor="middle" x="960" y="-196.949" font-family="Times,serif" font-size="9.00">enemyRadar[RightFront7.5ø]</text>
</g>
<!-- enemyRadar[RightFront7.5ø]&#45;&gt;Shoot -->
<g id="edge2" class="edge"><title>enemyRadar[RightFront7.5ø]&#45;&gt;Shoot</title>
<path fill="none" stroke="red" stroke-width="0.236622" d="M976.388,-190.084C1016.1,-170.54 1118.11,-120.343 1171.03,-94.2979"/>
<polygon fill="red" stroke="red" stroke-width="0.236622" points="1172.58,-97.4353 1180.01,-89.8795 1169.49,-91.1546 1172.58,-97.4353"/>
</g>
<!-- enemyRadar[RightFront7.5ø]&#45;&gt; Move Left/Right -->
<g id="edge11" class="edge"><title>enemyRadar[RightFront7.5ø]&#45;&gt; Move Left/Right</title>
<path fill="none" stroke="red" stroke-width="0.684647" d="M1021.18,-191.134C1024.5,-190.791 1027.79,-190.46 1031,-190.149 1227.62,-171.088 1280.19,-192.353 1474,-154.149 1535.95,-141.937 1604.4,-119.151 1652.12,-101.688"/>
<polygon fill="red" stroke="red" stroke-width="0.684647" points="1653.5,-104.907 1661.67,-98.1598 1651.08,-98.3399 1653.5,-104.907"/>
</g>
<!-- enemyRadar[RightFront7.5ø]&#45;&gt;Turn left/right -->
<g id="edge13" class="edge"><title>enemyRadar[RightFront7.5ø]&#45;&gt;Turn left/right</title>
<path fill="none" stroke="green" stroke-width="0.130981" d="M947.104,-190.084C920.753,-173.605 859.552,-135.33 816.04,-108.119"/>
<polygon fill="green" stroke="green" stroke-width="0.130981" points="817.651,-104.998 807.316,-102.663 813.939,-110.933 817.651,-104.998"/>
</g>
<!-- enemyRadar[LeftFront7.5ø] -->
<g id="node18" class="node"><title>enemyRadar[LeftFront7.5ø]</title>
<polygon fill="lightgray" stroke="black" points="2227,-208.149 2111,-208.149 2111,-190.149 2227,-190.149 2227,-208.149"/>
<text text-anchor="middle" x="2169" y="-196.949" font-family="Times,serif" font-size="9.00">enemyRadar[LeftFront7.5ø]</text>
</g>
<!-- enemyRadar[LeftFront7.5ø]&#45;&gt;Shoot -->
<g id="edge42" class="edge"><title>enemyRadar[LeftFront7.5ø]&#45;&gt;Shoot</title>
<path fill="none" stroke="red" stroke-width="0.473326" d="M2110.92,-190.949C2107.91,-190.658 2104.92,-190.389 2102,-190.149 1924.64,-175.59 1469.01,-215.594 1302,-154.149 1273.88,-143.803 1247.38,-122.234 1229.04,-104.696"/>
<polygon fill="red" stroke="red" stroke-width="0.473326" points="1231.29,-101.992 1221.7,-97.4709 1226.37,-106.981 1231.29,-101.992"/>
</g>
<!-- enemyRadar[LeftFront7.5ø]&#45;&gt;Move Forward/Backward -->
<g id="edge38" class="edge"><title>enemyRadar[LeftFront7.5ø]&#45;&gt;Move Forward/Backward</title>
<path fill="none" stroke="red" stroke-width="0.508194" d="M2110.91,-191.071C2107.9,-190.748 2104.91,-190.439 2102,-190.149 1901.02,-170.173 1847.65,-190.598 1649,-154.149 1588.05,-142.967 1520.97,-123.245 1470.08,-106.685"/>
<polygon fill="red" stroke="red" stroke-width="0.508194" points="1471.04,-103.316 1460.45,-103.525 1468.86,-109.968 1471.04,-103.316"/>
</g>
<!-- enemyRadar[LeftFront7.5ø]&#45;&gt; Move Left/Right -->
<g id="edge9" class="edge"><title>enemyRadar[LeftFront7.5ø]&#45;&gt; Move Left/Right</title>
<path fill="none" stroke="red" stroke-width="0.454067" d="M2138.37,-190.084C2064.53,-170.639 1875.45,-120.851 1776.12,-94.6957"/>
<polygon fill="red" stroke="red" stroke-width="0.454067" points="1776.77,-91.2486 1766.21,-92.0867 1774.99,-98.0178 1776.77,-91.2486"/>
</g>
<!-- enemyRadar[RightFront2.5ø] -->
<g id="node19" class="node"><title>enemyRadar[RightFront2.5ø]</title>
<polygon fill="lightgray" stroke="black" points="1449,-208.149 1327,-208.149 1327,-190.149 1449,-190.149 1449,-208.149"/>
<text text-anchor="middle" x="1388" y="-196.949" font-family="Times,serif" font-size="9.00">enemyRadar[RightFront2.5ø]</text>
</g>
<!-- enemyRadar[RightFront2.5ø]&#45;&gt;Shoot -->
<g id="edge37" class="edge"><title>enemyRadar[RightFront2.5ø]&#45;&gt;Shoot</title>
<path fill="none" stroke="green" stroke-width="0.662266" stroke-dasharray="1,5" d="M1370.01,-190.149C1352.23,-181.968 1324.5,-168.461 1302,-154.149 1277.03,-138.27 1250.64,-117.526 1231.54,-101.711"/>
<polygon fill="green" stroke="green" stroke-width="0.662266" points="1233.75,-98.9923 1223.83,-95.2641 1229.26,-104.363 1233.75,-98.9923"/>
</g>
<!-- enemyRadar[RightFront2.5ø]&#45;&gt;Move Forward/Backward -->
<g id="edge49" class="edge"><title>enemyRadar[RightFront2.5ø]&#45;&gt;Move Forward/Backward</title>
<path fill="none" stroke="green" stroke-width="0.141616" d="M1388,-189.896C1388,-183.793 1388,-174.776 1388,-164.466"/>
<polygon fill="green" stroke="green" stroke-width="0.141616" points="1391.5,-164.237 1388,-154.237 1384.5,-164.237 1391.5,-164.237"/>
</g>
<!-- enemyRadar[LeftFront2.5ø] -->
<g id="node20" class="node"><title>enemyRadar[LeftFront2.5ø]</title>
<polygon fill="lightgray" stroke="black" points="1839,-208.149 1723,-208.149 1723,-190.149 1839,-190.149 1839,-208.149"/>
<text text-anchor="middle" x="1781" y="-196.949" font-family="Times,serif" font-size="9.00">enemyRadar[LeftFront2.5ø]</text>
</g>
<!-- enemyRadar[LeftFront2.5ø]&#45;&gt;Shoot -->
<g id="edge24" class="edge"><title>enemyRadar[LeftFront2.5ø]&#45;&gt;Shoot</title>
<path fill="none" stroke="red" stroke-width="0.397009" d="M1722.91,-191.099C1719.9,-190.769 1716.91,-190.45 1714,-190.149 1622.58,-180.7 1387.56,-187.694 1302,-154.149 1274.28,-143.281 1247.92,-121.964 1229.53,-104.655"/>
<polygon fill="red" stroke="red" stroke-width="0.397009" points="1231.78,-101.961 1222.16,-97.5235 1226.91,-106.992 1231.78,-101.961"/>
</g>
<!-- enemyRadar[LeftFront2.5ø]&#45;&gt;Move Forward/Backward -->
<g id="edge31" class="edge"><title>enemyRadar[LeftFront2.5ø]&#45;&gt;Move Forward/Backward</title>
<path fill="none" stroke="red" stroke-width="0.126556" d="M1754.6,-190.084C1697.57,-172.657 1560.76,-130.858 1471.35,-103.542"/>
<polygon fill="red" stroke="red" stroke-width="0.126556" points="1472.36,-100.19 1461.78,-100.615 1470.32,-106.885 1472.36,-100.19"/>
</g>
<!-- enemyRadar[LeftFront2.5ø]&#45;&gt; Move Left/Right -->
<g id="edge8" class="edge"><title>enemyRadar[LeftFront2.5ø]&#45;&gt; Move Left/Right</title>
<path fill="none" stroke="red" stroke-width="0.371627" stroke-dasharray="1,5" d="M1776.33,-189.896C1769.73,-178.254 1757.14,-156.01 1744.9,-134.408"/>
<polygon fill="red" stroke="red" stroke-width="0.371627" points="1747.86,-132.522 1739.88,-125.545 1741.77,-135.971 1747.86,-132.522"/>
</g>
<!-- &#45;21 -->
<g id="node21" class="node"><title>&#45;21</title>
<polygon fill="lightgray" stroke="black" points="1308.5,-208.149 1279.5,-208.149 1279.5,-190.149 1308.5,-190.149 1308.5,-208.149"/>
<text text-anchor="middle" x="1294" y="-196.949" font-family="Times,serif" font-size="9.00">&#45;21</text>
</g>
<!-- &#45;21&#45;&gt;Shoot -->
<g id="edge52" class="edge"><title>&#45;21&#45;&gt;Shoot</title>
<path fill="none" stroke="green" stroke-width="0.737938" d="M1287.81,-189.896C1275.22,-173.09 1246.06,-134.191 1225.7,-107.023"/>
<polygon fill="green" stroke="green" stroke-width="0.737938" points="1228.49,-104.908 1219.69,-99.0051 1222.89,-109.106 1228.49,-104.908"/>
</g>
<!-- &#45;21&#45;&gt;Move Forward/Backward -->
<g id="edge47" class="edge"><title>&#45;21&#45;&gt;Move Forward/Backward</title>
<path fill="none" stroke="red" stroke-width="0.135011" d="M1300.46,-189.896C1307.91,-180.385 1320.89,-163.798 1334.62,-146.265"/>
<polygon fill="red" stroke="red" stroke-width="0.135011" points="1337.55,-148.197 1340.96,-138.166 1332.04,-143.882 1337.55,-148.197"/>
</g>
<!-- &#45;21&#45;&gt; Move Left/Right -->
<g id="edge22" class="edge"><title>&#45;21&#45;&gt; Move Left/Right</title>
<path fill="none" stroke="red" stroke-width="0.504657" stroke-dasharray="1,5" d="M1308.65,-193.019C1311.73,-192.013 1314.96,-191.006 1318,-190.149 1386.5,-170.877 1405.37,-172.956 1474,-154.149 1534.9,-137.46 1603.49,-115.269 1651.52,-99.1634"/>
<polygon fill="red" stroke="red" stroke-width="0.504657" points="1652.78,-102.431 1661.15,-95.9251 1650.55,-95.7967 1652.78,-102.431"/>
</g>
<!-- &#45;21&#45;&gt;Turn left/right -->
<g id="edge45" class="edge"><title>&#45;21&#45;&gt;Turn left/right</title>
<path fill="none" stroke="red" stroke-width="0.129003" d="M1279.35,-193.002C1276.28,-191.998 1273.05,-190.995 1270,-190.149 1109.72,-145.67 916.919,-106.584 823.774,-88.5907"/>
<polygon fill="red" stroke="red" stroke-width="0.129003" points="824.207,-85.1099 813.726,-86.6569 822.884,-91.9838 824.207,-85.1099"/>
</g>
<!-- OnTarget -->
<g id="node22" class="node"><title>OnTarget</title>
<polygon fill="lightgray" stroke="black" points="793,-208.149 743,-208.149 743,-190.149 793,-190.149 793,-208.149"/>
<text text-anchor="middle" x="768" y="-196.949" font-family="Times,serif" font-size="9.00">OnTarget</text>
</g>
<!-- OnTarget&#45;&gt;Shoot -->
<g id="edge41" class="edge"><title>OnTarget&#45;&gt;Shoot</title>
<path fill="none" stroke="green" stroke-width="0.430617" d="M793.007,-191.262C866.644,-170.983 1082.87,-111.433 1168.5,-87.8516"/>
<polygon fill="green" stroke="green" stroke-width="0.430617" points="1169.56,-91.1889 1178.28,-85.1593 1167.7,-84.4401 1169.56,-91.1889"/>
</g>
<!-- OnTarget&#45;&gt;Move Forward/Backward -->
<g id="edge21" class="edge"><title>OnTarget&#45;&gt;Move Forward/Backward</title>
<path fill="none" stroke="red" stroke-width="0.265143" d="M793.168,-191.786C796.133,-191.168 799.125,-190.603 802,-190.149 994.935,-159.696 1052.2,-207.828 1240,-154.149 1265.14,-146.965 1290.99,-135.355 1313.92,-123.345"/>
<polygon fill="red" stroke="red" stroke-width="0.265143" points="1315.72,-126.352 1322.89,-118.551 1312.42,-120.179 1315.72,-126.352"/>
</g>
<!-- OnTarget&#45;&gt;Turn left/right -->
<g id="edge12" class="edge"><title>OnTarget&#45;&gt;Turn left/right</title>
<path fill="none" stroke="red" stroke-width="0.623537" stroke-dasharray="1,5" d="M768,-189.896C768,-178.186 768,-155.752 768,-134.032"/>
<polygon fill="red" stroke="red" stroke-width="0.623537" points="771.5,-133.812 768,-123.812 764.5,-133.812 771.5,-133.812"/>
</g>
<!-- bias -->
<g id="node23" class="node"><title>bias</title>
<polygon fill="lightgray" stroke="black" points="2393.5,-208.149 2362.5,-208.149 2362.5,-190.149 2393.5,-190.149 2393.5,-208.149"/>
<text text-anchor="middle" x="2378" y="-196.949" font-family="Times,serif" font-size="9.00">bias</text>
</g>
<!-- bias&#45;&gt; Move Left/Right -->
<g id="edge3" class="edge"><title>bias&#45;&gt; Move Left/Right</title>
<path fill="none" stroke="green" stroke-width="0.119426" d="M2362.35,-192.561C2359.59,-191.682 2356.73,-190.838 2354,-190.149 2146.4,-137.711 1894.85,-101.488 1778.22,-86.2125"/>
<polygon fill="green" stroke="green" stroke-width="0.119426" points="1778.4,-82.7067 1768.03,-84.8868 1777.49,-89.6481 1778.4,-82.7067"/>
</g>
</g>
</svg>
