<?xml version="1.0" encoding="UTF-8" standalone="no"?>
<!DOCTYPE svg PUBLIC "-//W3C//DTD SVG 1.1//EN"
 "http://www.w3.org/Graphics/SVG/1.1/DTD/svg11.dtd">
<!-- Generated by graphviz version 2.38.0 (20140413.2041)
 -->
<!-- Title: %3 Pages: 1 -->
<svg width="2385pt" height="251pt"
 viewBox="0.00 0.00 2384.71 250.74" xmlns="http://www.w3.org/2000/svg" xmlns:xlink="http://www.w3.org/1999/xlink">
<g id="graph0" class="graph" transform="scale(1 1) rotate(0) translate(4 246.735)">
<title>%3</title>
<polygon fill="white" stroke="none" points="-4,4 -4,-246.735 2380.71,-246.735 2380.71,4 -4,4"/>
<!-- wallRadar[1,0] -->
<g id="node1" class="node"><title>wallRadar[1,0]</title>
<polygon fill="lightgray" stroke="black" points="2035.21,-176.522 1965.21,-176.522 1965.21,-158.522 2035.21,-158.522 2035.21,-176.522"/>
<text text-anchor="middle" x="2000.21" y="-165.322" font-family="Times,serif" font-size="9.00">wallRadar[1,0]</text>
</g>
<!-- Shoot -->
<g id="node23" class="node"><title>Shoot</title>
<ellipse fill="lightblue" stroke="black" cx="1468.21" cy="-55.1543" rx="26.7407" ry="26.7407"/>
<text text-anchor="middle" x="1468.21" y="-52.9543" font-family="Times,serif" font-size="9.00">Shoot</text>
</g>
<!-- wallRadar[1,0]&#45;&gt;Shoot -->
<g id="edge71" class="edge"><title>wallRadar[1,0]&#45;&gt;Shoot</title>
<path fill="none" stroke="green" stroke-width="0.160236" d="M1985.61,-158.319C1977.26,-154.016 1966.44,-149.076 1956.21,-146.309 1798.44,-103.603 1748.26,-151.997 1590.21,-110.309 1558.37,-101.908 1524.27,-86.1422 1500.25,-73.7792"/>
<polygon fill="green" stroke="green" stroke-width="0.160236" points="1501.72,-70.601 1491.24,-69.0609 1498.48,-76.8017 1501.72,-70.601"/>
</g>
<!-- wallRadar[0,1] -->
<g id="node2" class="node"><title>wallRadar[0,1]</title>
<polygon fill="lightgray" stroke="black" points="452.213,-176.522 382.213,-176.522 382.213,-158.522 452.213,-158.522 452.213,-176.522"/>
<text text-anchor="middle" x="417.213" y="-165.322" font-family="Times,serif" font-size="9.00">wallRadar[0,1]</text>
</g>
<!-- wallRadar[0,1]&#45;&gt;Shoot -->
<g id="edge23" class="edge"><title>wallRadar[0,1]&#45;&gt;Shoot</title>
<path fill="none" stroke="red" stroke-width="0.233829" stroke-dasharray="1,5" d="M430.973,-158.499C439.404,-154.023 450.584,-148.85 461.213,-146.309 662.149,-98.2669 1194.28,-175.848 1390.21,-110.309 1408.9,-104.057 1427.14,-91.836 1441.28,-80.5834"/>
<polygon fill="red" stroke="red" stroke-width="0.233829" points="1443.62,-83.1892 1449.11,-74.1223 1439.17,-77.7921 1443.62,-83.1892"/>
</g>
<!-- Move Forward -->
<g id="node24" class="node"><title>Move Forward</title>
<ellipse fill="lightblue" stroke="black" cx="795.213" cy="-55.1543" rx="50.41" ry="50.41"/>
<text text-anchor="middle" x="795.213" y="-52.9543" font-family="Times,serif" font-size="9.00">Move Forward</text>
</g>
<!-- wallRadar[0,1]&#45;&gt;Move Forward -->
<g id="edge64" class="edge"><title>wallRadar[0,1]&#45;&gt;Move Forward</title>
<path fill="none" stroke="red" stroke-width="0.364395" d="M431.855,-158.448C440.218,-154.185 451.036,-149.242 461.213,-146.309 579.233,-112.29 623.695,-161.782 735.213,-110.309 741.548,-107.385 747.685,-103.554 753.462,-99.279"/>
<polygon fill="red" stroke="red" stroke-width="0.364395" points="756.013,-101.722 761.651,-92.7513 751.649,-96.248 756.013,-101.722"/>
</g>
<!--  Move Backward -->
<g id="node25" class="node"><title> Move Backward</title>
<ellipse fill="lightblue" stroke="black" cx="417.213" cy="-55.1543" rx="55.3091" ry="55.3091"/>
<text text-anchor="middle" x="417.213" y="-52.9543" font-family="Times,serif" font-size="9.00"> Move Backward</text>
</g>
<!-- wallRadar[0,1]&#45;&gt; Move Backward -->
<g id="edge15" class="edge"><title>wallRadar[0,1]&#45;&gt; Move Backward</title>
<path fill="none" stroke="green" stroke-width="0.894134" d="M417.213,-158.226C417.213,-149.673 417.213,-135.484 417.213,-120.367"/>
<polygon fill="green" stroke="green" stroke-width="0.894134" points="420.713,-120.348 417.213,-110.348 413.713,-120.348 420.713,-120.348"/>
</g>
<!-- Move right -->
<g id="node27" class="node"><title>Move right</title>
<ellipse fill="lightblue" stroke="black" cx="1341.21" cy="-55.1543" rx="39.6962" ry="39.6962"/>
<text text-anchor="middle" x="1341.21" y="-52.9543" font-family="Times,serif" font-size="9.00">Move right</text>
</g>
<!-- wallRadar[0,1]&#45;&gt;Move right -->
<g id="edge50" class="edge"><title>wallRadar[0,1]&#45;&gt;Move right</title>
<path fill="none" stroke="red" stroke-width="0.40195" d="M431.391,-158.399C439.783,-154.006 450.783,-148.953 461.213,-146.309 696.519,-86.6518 765.014,-137.709 1006.21,-110.309 1108.59,-98.6785 1227.44,-77.6637 1292.47,-65.5152"/>
<polygon fill="red" stroke="red" stroke-width="0.40195" points="1293.25,-68.9297 1302.44,-63.6444 1291.96,-62.0499 1293.25,-68.9297"/>
</g>
<!-- Turn Left -->
<g id="node28" class="node"><title>Turn Left</title>
<ellipse fill="lightblue" stroke="black" cx="691.213" cy="-55.1543" rx="35.2113" ry="35.2113"/>
<text text-anchor="middle" x="691.213" y="-52.9543" font-family="Times,serif" font-size="9.00">Turn Left</text>
</g>
<!-- wallRadar[0,1]&#45;&gt;Turn Left -->
<g id="edge25" class="edge"><title>wallRadar[0,1]&#45;&gt;Turn Left</title>
<path fill="none" stroke="green" stroke-width="0.172695" stroke-dasharray="1,5" d="M434.247,-158.422C442.364,-154.633 452.24,-150.125 461.213,-146.309 526.064,-118.729 602.418,-89.4129 648.793,-71.9509"/>
<polygon fill="green" stroke="green" stroke-width="0.172695" points="650.089,-75.2031 658.219,-68.4096 647.627,-68.6503 650.089,-75.2031"/>
</g>
<!-- wallRadar[&#45;1,0] -->
<g id="node3" class="node"><title>wallRadar[&#45;1,0]</title>
<polygon fill="lightgray" stroke="black" points="2126.71,-176.522 2053.71,-176.522 2053.71,-158.522 2126.71,-158.522 2126.71,-176.522"/>
<text text-anchor="middle" x="2090.21" y="-165.322" font-family="Times,serif" font-size="9.00">wallRadar[&#45;1,0]</text>
</g>
<!-- wallRadar[&#45;1,0]&#45;&gt;Shoot -->
<g id="edge75" class="edge"><title>wallRadar[&#45;1,0]&#45;&gt;Shoot</title>
<path fill="none" stroke="green" stroke-width="0.627605" stroke-dasharray="1,5" d="M2075.33,-158.459C2066.54,-154.087 2055.04,-149.034 2044.21,-146.309 1847.92,-96.9035 1786.41,-160.081 1590.21,-110.309 1558.29,-102.21 1524.21,-86.4105 1500.2,-73.9582"/>
<polygon fill="green" stroke="green" stroke-width="0.627605" points="1501.68,-70.7813 1491.21,-69.2021 1498.41,-76.9698 1501.68,-70.7813"/>
</g>
<!-- wallRadar[&#45;1,0]&#45;&gt;Move right -->
<g id="edge26" class="edge"><title>wallRadar[&#45;1,0]&#45;&gt;Move right</title>
<path fill="none" stroke="red" stroke-width="0.328649" d="M2075.35,-158.376C2066.57,-153.977 2055.07,-148.924 2044.21,-146.309 1779.32,-82.4983 1692.69,-190.252 1432.21,-110.309 1414.29,-104.808 1396.2,-95.095 1380.93,-85.3995"/>
<polygon fill="red" stroke="red" stroke-width="0.328649" points="1382.57,-82.2863 1372.29,-79.7249 1378.72,-88.1383 1382.57,-82.2863"/>
</g>
<!-- Turn Right -->
<g id="node29" class="node"><title>Turn Right</title>
<ellipse fill="lightblue" stroke="black" cx="1639.21" cy="-55.1543" rx="39.6962" ry="39.6962"/>
<text text-anchor="middle" x="1639.21" y="-52.9543" font-family="Times,serif" font-size="9.00">Turn Right</text>
</g>
<!-- wallRadar[&#45;1,0]&#45;&gt;Turn Right -->
<g id="edge13" class="edge"><title>wallRadar[&#45;1,0]&#45;&gt;Turn Right</title>
<path fill="none" stroke="green" stroke-width="0.170466" stroke-dasharray="1,5" d="M2073.91,-158.428C2065.25,-154.367 2054.33,-149.621 2044.21,-146.309 1918.75,-105.216 1765.36,-76.7545 1688.33,-63.8994"/>
<polygon fill="green" stroke="green" stroke-width="0.170466" points="1688.86,-60.4399 1678.42,-62.2625 1687.72,-67.3463 1688.86,-60.4399"/>
</g>
<!-- wallRadar[0,&#45;1] -->
<g id="node4" class="node"><title>wallRadar[0,&#45;1]</title>
<polygon fill="lightgray" stroke="black" points="860.713,-242.735 787.713,-242.735 787.713,-224.735 860.713,-224.735 860.713,-242.735"/>
<text text-anchor="middle" x="824.213" y="-231.535" font-family="Times,serif" font-size="9.00">wallRadar[0,&#45;1]</text>
</g>
<!-- wallRadar[0.7,0.7] -->
<g id="node5" class="node"><title>wallRadar[0.7,0.7]</title>
<polygon fill="lightgray" stroke="black" points="181.713,-176.522 98.7132,-176.522 98.7132,-158.522 181.713,-158.522 181.713,-176.522"/>
<text text-anchor="middle" x="140.213" y="-165.322" font-family="Times,serif" font-size="9.00">wallRadar[0.7,0.7]</text>
</g>
<!-- wallRadar[0.7,0.7]&#45;&gt; Move Backward -->
<g id="edge72" class="edge"><title>wallRadar[0.7,0.7]&#45;&gt; Move Backward</title>
<path fill="none" stroke="red" stroke-width="0.395068" d="M160.153,-158.428C169.306,-154.721 180.305,-150.279 190.213,-146.309 246.621,-123.706 311.01,-98.1573 356.768,-80.0441"/>
<polygon fill="red" stroke="red" stroke-width="0.395068" points="358.229,-83.2299 366.24,-76.2956 355.654,-76.7211 358.229,-83.2299"/>
</g>
<!-- Move Left -->
<g id="node26" class="node"><title>Move Left</title>
<ellipse fill="lightblue" stroke="black" cx="959.213" cy="-55.1543" rx="38.3684" ry="38.3684"/>
<text text-anchor="middle" x="959.213" y="-52.9543" font-family="Times,serif" font-size="9.00">Move Left</text>
</g>
<!-- wallRadar[0.7,0.7]&#45;&gt;Move Left -->
<g id="edge65" class="edge"><title>wallRadar[0.7,0.7]&#45;&gt;Move Left</title>
<path fill="none" stroke="green" stroke-width="0.500973" d="M156.44,-158.37C166.015,-153.968 178.515,-148.914 190.213,-146.309 478.688,-82.0514 568.998,-187.762 854.213,-110.309 876.667,-104.211 899.838,-92.884 918.683,-82.1594"/>
<polygon fill="green" stroke="green" stroke-width="0.500973" points="920.696,-85.0364 927.564,-76.9685 917.164,-78.993 920.696,-85.0364"/>
</g>
<!-- wallRadar[&#45;0.7,0.7] -->
<g id="node6" class="node"><title>wallRadar[&#45;0.7,0.7]</title>
<polygon fill="lightgray" stroke="black" points="1002.21,-176.522 916.213,-176.522 916.213,-158.522 1002.21,-158.522 1002.21,-176.522"/>
<text text-anchor="middle" x="959.213" y="-165.322" font-family="Times,serif" font-size="9.00">wallRadar[&#45;0.7,0.7]</text>
</g>
<!-- wallRadar[&#45;0.7,0.7]&#45;&gt;Shoot -->
<g id="edge60" class="edge"><title>wallRadar[&#45;0.7,0.7]&#45;&gt;Shoot</title>
<path fill="none" stroke="red" stroke-width="0.120929" d="M976.636,-158.356C986.556,-154.064 999.338,-149.123 1011.21,-146.309 1175.85,-107.286 1231.31,-168.454 1390.21,-110.309 1408.59,-103.584 1426.7,-91.4523 1440.83,-80.3736"/>
<polygon fill="red" stroke="red" stroke-width="0.120929" points="1443.1,-83.0377 1448.66,-74.0212 1438.69,-77.6003 1443.1,-83.0377"/>
</g>
<!-- wallRadar[&#45;0.7,0.7]&#45;&gt;Move Forward -->
<g id="edge59" class="edge"><title>wallRadar[&#45;0.7,0.7]&#45;&gt;Move Forward</title>
<path fill="none" stroke="red" stroke-width="0.291336" d="M947.154,-158.406C925.856,-144.073 880.464,-113.526 844.811,-89.532"/>
<polygon fill="red" stroke="red" stroke-width="0.291336" points="846.691,-86.579 836.441,-83.8995 842.783,-92.3864 846.691,-86.579"/>
</g>
<!-- wallRadar[&#45;0.7,0.7]&#45;&gt; Move Backward -->
<g id="edge53" class="edge"><title>wallRadar[&#45;0.7,0.7]&#45;&gt; Move Backward</title>
<path fill="none" stroke="red" stroke-width="0.4026" d="M940.906,-158.363C930.846,-154.182 918.041,-149.344 906.213,-146.309 793.644,-117.417 761.455,-131.65 647.213,-110.309 590.297,-99.6765 526.227,-84.3065 480.192,-72.655"/>
<polygon fill="red" stroke="red" stroke-width="0.4026" points="480.914,-69.2273 470.36,-70.1536 479.188,-76.0112 480.914,-69.2273"/>
</g>
<!-- wallRadar[&#45;0.7,0.7]&#45;&gt;Move Left -->
<g id="edge42" class="edge"><title>wallRadar[&#45;0.7,0.7]&#45;&gt;Move Left</title>
<path fill="none" stroke="red" stroke-width="0.253337" d="M959.213,-158.226C959.213,-146.508 959.213,-124.215 959.213,-103.444"/>
<polygon fill="red" stroke="red" stroke-width="0.253337" points="962.713,-103.424 959.213,-93.4236 955.713,-103.424 962.713,-103.424"/>
</g>
<!-- wallRadar[&#45;0.7,0.7]&#45;&gt;Move right -->
<g id="edge31" class="edge"><title>wallRadar[&#45;0.7,0.7]&#45;&gt;Move right</title>
<path fill="none" stroke="green" stroke-width="0.314009" d="M978.792,-158.355C988.463,-154.464 1000.36,-149.89 1011.21,-146.309 1109.99,-113.717 1228.06,-83.5253 1292.8,-67.7029"/>
<polygon fill="green" stroke="green" stroke-width="0.314009" points="1293.83,-71.0539 1302.72,-65.2887 1292.17,-64.2524 1293.83,-71.0539"/>
</g>
<!-- wallRadar[&#45;0.7,0.7]&#45;&gt;Turn Left -->
<g id="edge32" class="edge"><title>wallRadar[&#45;0.7,0.7]&#45;&gt;Turn Left</title>
<path fill="none" stroke="red" stroke-width="0.285197" stroke-dasharray="1,5" d="M940.324,-158.496C930.315,-154.454 917.738,-149.704 906.213,-146.309 832.131,-124.482 802.333,-150.219 736.213,-110.309 728.842,-105.859 722.12,-99.7583 716.248,-93.2518"/>
<polygon fill="red" stroke="red" stroke-width="0.285197" points="718.862,-90.9216 709.758,-85.502 713.495,-95.4159 718.862,-90.9216"/>
</g>
<!-- wallRadar[&#45;0.7,0.7]&#45;&gt;Turn Right -->
<g id="edge28" class="edge"><title>wallRadar[&#45;0.7,0.7]&#45;&gt;Turn Right</title>
<path fill="none" stroke="green" stroke-width="0.17897" d="M976.143,-158.461C986.119,-154.09 999.119,-149.036 1011.21,-146.309 1225.53,-97.9754 1290.16,-159.793 1504.21,-110.309 1535.55,-103.064 1569.12,-89.6247 1594.94,-77.9471"/>
<polygon fill="green" stroke="green" stroke-width="0.17897" points="1596.47,-81.0986 1604.09,-73.7392 1593.54,-74.7394 1596.47,-81.0986"/>
</g>
<!-- wallRadar[&#45;0.7,&#45;0.7] -->
<g id="node7" class="node"><title>wallRadar[&#45;0.7,&#45;0.7]</title>
<polygon fill="lightgray" stroke="black" points="2376.71,-176.522 2287.71,-176.522 2287.71,-158.522 2376.71,-158.522 2376.71,-176.522"/>
<text text-anchor="middle" x="2332.21" y="-165.322" font-family="Times,serif" font-size="9.00">wallRadar[&#45;0.7,&#45;0.7]</text>
</g>
<!-- wallRadar[&#45;0.7,&#45;0.7]&#45;&gt;Turn Right -->
<g id="edge39" class="edge"><title>wallRadar[&#45;0.7,&#45;0.7]&#45;&gt;Turn Right</title>
<path fill="none" stroke="red" stroke-width="0.188815" d="M2311.74,-158.442C2300.52,-154.284 2286.27,-149.443 2273.21,-146.309 2059,-94.8727 1796.56,-69.0492 1688.89,-60.005"/>
<polygon fill="red" stroke="red" stroke-width="0.188815" points="1688.91,-56.4948 1678.66,-59.157 1688.33,-63.4709 1688.91,-56.4948"/>
</g>
<!-- wallRadar[0.7,&#45;0.7] -->
<g id="node8" class="node"><title>wallRadar[0.7,&#45;0.7]</title>
<polygon fill="lightgray" stroke="black" points="556.213,-176.522 470.213,-176.522 470.213,-158.522 556.213,-158.522 556.213,-176.522"/>
<text text-anchor="middle" x="513.213" y="-165.322" font-family="Times,serif" font-size="9.00">wallRadar[0.7,&#45;0.7]</text>
</g>
<!-- wallRadar[0.7,&#45;0.7]&#45;&gt;Shoot -->
<g id="edge41" class="edge"><title>wallRadar[0.7,&#45;0.7]&#45;&gt;Shoot</title>
<path fill="none" stroke="red" stroke-width="0.154684" d="M530.114,-158.328C540.08,-153.912 553.08,-148.859 565.213,-146.309 744.797,-108.562 1216.33,-168.947 1390.21,-110.309 1408.89,-104.012 1427.13,-91.7875 1441.27,-80.5445"/>
<polygon fill="red" stroke="red" stroke-width="0.154684" points="1443.61,-83.1536 1449.09,-74.0905 1439.15,-77.7535 1443.61,-83.1536"/>
</g>
<!-- wallRadar[0.7,&#45;0.7]&#45;&gt;Move Forward -->
<g id="edge2" class="edge"><title>wallRadar[0.7,&#45;0.7]&#45;&gt;Move Forward</title>
<path fill="none" stroke="green" stroke-width="0.21622" d="M531.732,-158.48C541.548,-154.433 553.889,-149.684 565.213,-146.309 639.226,-124.246 666.407,-145.386 735.213,-110.309 741.345,-107.183 747.329,-103.267 752.998,-98.9784"/>
<polygon fill="green" stroke="green" stroke-width="0.21622" points="755.471,-101.48 761.057,-92.4773 751.076,-96.0315 755.471,-101.48"/>
</g>
<!-- wallRadar[0.7,&#45;0.7]&#45;&gt; Move Backward -->
<g id="edge48" class="edge"><title>wallRadar[0.7,&#45;0.7]&#45;&gt; Move Backward</title>
<path fill="none" stroke="red" stroke-width="0.140049" d="M505.998,-158.226C496.061,-146.802 477.381,-125.326 459.709,-105.01"/>
<polygon fill="red" stroke="red" stroke-width="0.140049" points="462.21,-102.552 453.006,-97.3038 456.928,-107.146 462.21,-102.552"/>
</g>
<!-- enemyRadar[RightBack] -->
<g id="node9" class="node"><title>enemyRadar[RightBack]</title>
<polygon fill="lightgray" stroke="black" points="1817.21,-176.522 1713.21,-176.522 1713.21,-158.522 1817.21,-158.522 1817.21,-176.522"/>
<text text-anchor="middle" x="1765.21" y="-165.322" font-family="Times,serif" font-size="9.00">enemyRadar[RightBack]</text>
</g>
<!-- enemyRadar[RightBack]&#45;&gt;Move Left -->
<g id="edge33" class="edge"><title>enemyRadar[RightBack]&#45;&gt;Move Left</title>
<path fill="none" stroke="green" stroke-width="0.120455" d="M1744.93,-158.479C1733.21,-154.17 1718.09,-149.173 1704.21,-146.309 1524.2,-109.149 1474.61,-133.076 1292.21,-110.309 1190.15,-97.5683 1071.42,-76.8249 1006.91,-65.0528"/>
<polygon fill="green" stroke="green" stroke-width="0.120455" points="1007.5,-61.6028 997.036,-63.2431 1006.24,-68.4882 1007.5,-61.6028"/>
</g>
<!-- enemyRadar[RightBack]&#45;&gt;Move right -->
<g id="edge43" class="edge"><title>enemyRadar[RightBack]&#45;&gt;Move right</title>
<path fill="none" stroke="red" stroke-width="0.4851" d="M1744.32,-158.513C1732.67,-154.323 1717.8,-149.431 1704.21,-146.309 1585.37,-119.009 1547.41,-150.308 1432.21,-110.309 1414.65,-104.209 1396.76,-94.4753 1381.54,-84.9314"/>
<polygon fill="red" stroke="red" stroke-width="0.4851" points="1383.21,-81.845 1372.91,-79.363 1379.41,-87.7264 1383.21,-81.845"/>
</g>
<!-- enemyRadar[RightBack]&#45;&gt;Turn Right -->
<g id="edge11" class="edge"><title>enemyRadar[RightBack]&#45;&gt;Turn Right</title>
<path fill="none" stroke="green" stroke-width="0.150437" d="M1755.74,-158.226C1739.13,-143.671 1703.88,-112.801 1676.48,-88.7989"/>
<polygon fill="green" stroke="green" stroke-width="0.150437" points="1678.45,-85.8704 1668.62,-81.9142 1673.84,-91.136 1678.45,-85.8704"/>
</g>
<!-- enemyRadar[LeftBack] -->
<g id="node10" class="node"><title>enemyRadar[LeftBack]</title>
<polygon fill="lightgray" stroke="black" points="769.713,-242.735 670.713,-242.735 670.713,-224.735 769.713,-224.735 769.713,-242.735"/>
<text text-anchor="middle" x="720.213" y="-231.535" font-family="Times,serif" font-size="9.00">enemyRadar[LeftBack]</text>
</g>
<!-- enemyRadar[LeftBack]&#45;&gt;Move Forward -->
<g id="edge29" class="edge"><title>enemyRadar[LeftBack]&#45;&gt;Move Forward</title>
<path fill="none" stroke="green" stroke-width="0.4486" d="M721.099,-224.354C722.972,-208.586 728.105,-173.634 739.213,-146.309 744.907,-132.301 752.705,-118.01 760.673,-105.057"/>
<polygon fill="green" stroke="green" stroke-width="0.4486" points="763.809,-106.646 766.193,-96.3228 757.892,-102.907 763.809,-106.646"/>
</g>
<!-- enemyRadar[LeftBack]&#45;&gt; Move Backward -->
<g id="edge22" class="edge"><title>enemyRadar[LeftBack]&#45;&gt; Move Backward</title>
<path fill="none" stroke="green" stroke-width="0.41722" d="M670.477,-233.067C528.428,-233.498 128.56,-230.921 89.2132,-188.735 8.59343,-102.298 234.532,-70.8945 351.69,-60.6293"/>
<polygon fill="green" stroke="green" stroke-width="0.41722" points="352.321,-64.0885 361.99,-59.7566 351.73,-57.1135 352.321,-64.0885"/>
</g>
<!-- enemyRadar[LeftBack]&#45;&gt;Move right -->
<g id="edge74" class="edge"><title>enemyRadar[LeftBack]&#45;&gt;Move right</title>
<path fill="none" stroke="red" stroke-width="0.584231" d="M769.856,-225.622C772.681,-225.3 775.482,-225.001 778.213,-224.735 847.997,-217.94 1360.07,-239.708 1408.21,-188.735 1435.36,-159.993 1405.97,-118.131 1378.02,-89.1689"/>
<polygon fill="red" stroke="red" stroke-width="0.584231" points="1380.14,-86.3408 1370.6,-81.7323 1375.18,-91.2842 1380.14,-86.3408"/>
</g>
<!-- enemyRadar[LeftBack]&#45;&gt;Turn Right -->
<g id="edge44" class="edge"><title>enemyRadar[LeftBack]&#45;&gt;Turn Right</title>
<path fill="none" stroke="red" stroke-width="0.254295" d="M769.847,-225.515C772.674,-225.221 775.478,-224.957 778.213,-224.735 818.704,-221.455 2211.84,-217.812 2240.21,-188.735 2253.38,-175.239 2252.52,-160.597 2240.21,-146.309 2168.99,-63.604 1820.33,-55.6953 1689.2,-55.7042"/>
<polygon fill="red" stroke="red" stroke-width="0.254295" points="1689.03,-52.2043 1679.04,-55.721 1689.04,-59.2043 1689.03,-52.2043"/>
</g>
<!-- 285 -->
<g id="node30" class="node"><title>285</title>
<ellipse fill="white" stroke="black" cx="21.2132" cy="-167.522" rx="21.4286" ry="21.4286"/>
<text text-anchor="middle" x="21.2132" y="-165.322" font-family="Times,serif" font-size="9.00">285</text>
</g>
<!-- enemyRadar[LeftBack]&#45;&gt;285 -->
<g id="edge76" class="edge"><title>enemyRadar[LeftBack]&#45;&gt;285</title>
<path fill="none" stroke="red" stroke-width="0.218494" d="M670.579,-232.353C536.788,-230.862 171.038,-223.62 56.2132,-188.735 53.2213,-187.826 50.2105,-186.621 47.278,-185.251"/>
<polygon fill="red" stroke="red" stroke-width="0.218494" points="48.7683,-182.079 38.2965,-180.469 45.4789,-188.258 48.7683,-182.079"/>
</g>
<!-- enemyRadar[Right] -->
<g id="node11" class="node"><title>enemyRadar[Right]</title>
<polygon fill="lightgray" stroke="black" points="2231.21,-176.522 2145.21,-176.522 2145.21,-158.522 2231.21,-158.522 2231.21,-176.522"/>
<text text-anchor="middle" x="2188.21" y="-165.322" font-family="Times,serif" font-size="9.00">enemyRadar[Right]</text>
</g>
<!-- enemyRadar[Right]&#45;&gt;Shoot -->
<g id="edge69" class="edge"><title>enemyRadar[Right]&#45;&gt;Shoot</title>
<path fill="none" stroke="red" stroke-width="0.137484" d="M2171.29,-158.429C2161.32,-154.047 2148.32,-148.994 2136.21,-146.309 1898.79,-93.6426 1826.33,-168.541 1590.21,-110.309 1558.23,-102.422 1524.16,-86.5994 1500.17,-74.0842"/>
<polygon fill="red" stroke="red" stroke-width="0.137484" points="1501.65,-70.9081 1491.18,-69.3014 1498.37,-77.0881 1501.65,-70.9081"/>
</g>
<!-- enemyRadar[Right]&#45;&gt;Turn Right -->
<g id="edge18" class="edge"><title>enemyRadar[Right]&#45;&gt;Turn Right</title>
<path fill="none" stroke="green" stroke-width="0.335236" stroke-dasharray="1,5" d="M2169.73,-158.344C2159.93,-154.26 2147.59,-149.519 2136.21,-146.309 1975.31,-100.894 1778.42,-73.1208 1688.38,-61.901"/>
<polygon fill="green" stroke="green" stroke-width="0.335236" points="1688.81,-58.4273 1678.45,-60.6775 1687.95,-65.3747 1688.81,-58.4273"/>
</g>
<!-- enemyRadar[Left] -->
<g id="node12" class="node"><title>enemyRadar[Left]</title>
<polygon fill="lightgray" stroke="black" points="897.713,-176.522 816.713,-176.522 816.713,-158.522 897.713,-158.522 897.713,-176.522"/>
<text text-anchor="middle" x="857.213" y="-165.322" font-family="Times,serif" font-size="9.00">enemyRadar[Left]</text>
</g>
<!-- enemyRadar[Left]&#45;&gt; Move Backward -->
<g id="edge14" class="edge"><title>enemyRadar[Left]&#45;&gt; Move Backward</title>
<path fill="none" stroke="green" stroke-width="0.446111" d="M839.419,-158.504C829.983,-154.465 818.117,-149.714 807.213,-146.309 737.639,-124.577 718.244,-126.661 647.213,-110.309 590.975,-97.3614 527.091,-82.2905 480.946,-71.3397"/>
<polygon fill="green" stroke="green" stroke-width="0.446111" points="481.624,-67.9032 471.085,-68.9982 480.006,-74.7139 481.624,-67.9032"/>
</g>
<!-- enemyRadar[Left]&#45;&gt;Move Left -->
<g id="edge19" class="edge"><title>enemyRadar[Left]&#45;&gt;Move Left</title>
<path fill="none" stroke="green" stroke-width="0.141897" d="M864.88,-158.226C877.84,-144.203 904.796,-115.036 926.587,-91.4574"/>
<polygon fill="green" stroke="green" stroke-width="0.141897" points="929.239,-93.7443 933.456,-84.0248 924.098,-88.9932 929.239,-93.7443"/>
</g>
<!-- enemyRadar[Left]&#45;&gt;Turn Right -->
<g id="edge38" class="edge"><title>enemyRadar[Left]&#45;&gt;Turn Right</title>
<path fill="none" stroke="red" stroke-width="0.535271" d="M873.446,-158.396C883.023,-154.003 895.523,-148.95 907.213,-146.309 1166.49,-87.7286 1244.85,-168.541 1504.21,-110.309 1535.59,-103.263 1569.16,-89.8243 1594.98,-78.0975"/>
<polygon fill="red" stroke="red" stroke-width="0.535271" points="1596.51,-81.2442 1604.12,-73.8695 1593.57,-74.8908 1596.51,-81.2442"/>
</g>
<!-- enemyRadar[RightFront30] -->
<g id="node13" class="node"><title>enemyRadar[RightFront30]</title>
<polygon fill="lightgray" stroke="black" points="363.713,-176.522 248.713,-176.522 248.713,-158.522 363.713,-158.522 363.713,-176.522"/>
<text text-anchor="middle" x="306.213" y="-165.322" font-family="Times,serif" font-size="9.00">enemyRadar[RightFront30]</text>
</g>
<!-- enemyRadar[RightFront30]&#45;&gt;Move Forward -->
<g id="edge3" class="edge"><title>enemyRadar[RightFront30]&#45;&gt;Move Forward</title>
<path fill="none" stroke="red" stroke-width="0.136036" d="M328.882,-158.486C341.733,-154.234 358.198,-149.291 373.213,-146.309 531.798,-114.811 587.364,-175.746 735.213,-110.309 741.593,-107.485 747.758,-103.716 753.55,-99.4741"/>
<polygon fill="red" stroke="red" stroke-width="0.136036" points="756.087,-101.93 761.753,-92.9774 751.741,-96.4426 756.087,-101.93"/>
</g>
<!-- enemyRadar[RightFront30]&#45;&gt; Move Backward -->
<g id="edge67" class="edge"><title>enemyRadar[RightFront30]&#45;&gt; Move Backward</title>
<path fill="none" stroke="green" stroke-width="0.247746" d="M314.556,-158.226C326.651,-146.201 349.947,-123.038 371.293,-101.813"/>
<polygon fill="green" stroke="green" stroke-width="0.247746" points="373.815,-104.241 378.438,-94.7083 368.879,-99.2772 373.815,-104.241"/>
</g>
<!-- enemyRadar[RightFront30]&#45;&gt;Move Left -->
<g id="edge10" class="edge"><title>enemyRadar[RightFront30]&#45;&gt;Move Left</title>
<path fill="none" stroke="green" stroke-width="0.343162" d="M328.55,-158.446C341.435,-154.126 358.043,-149.13 373.213,-146.309 583.976,-107.116 647.918,-168.612 854.213,-110.309 876.603,-103.981 899.767,-92.6276 918.623,-81.9451"/>
<polygon fill="green" stroke="green" stroke-width="0.343162" points="920.624,-84.8306 927.512,-76.7799 917.107,-78.7783 920.624,-84.8306"/>
</g>
<!-- enemyRadar[RightFront30]&#45;&gt;Turn Left -->
<g id="edge16" class="edge"><title>enemyRadar[RightFront30]&#45;&gt;Turn Left</title>
<path fill="none" stroke="red" stroke-width="0.543449" d="M332.595,-158.452C344.921,-154.71 359.803,-150.232 373.213,-146.309 471.034,-117.689 586.19,-85.3855 647.541,-68.2861"/>
<polygon fill="red" stroke="red" stroke-width="0.543449" points="648.58,-71.6299 657.274,-65.575 646.702,-64.8866 648.58,-71.6299"/>
</g>
<!-- enemyRadar[RightFront30]&#45;&gt;Turn Right -->
<g id="edge35" class="edge"><title>enemyRadar[RightFront30]&#45;&gt;Turn Right</title>
<path fill="none" stroke="green" stroke-width="0.470624" d="M327.6,-158.508C340.592,-154.035 357.626,-148.863 373.213,-146.309 621.365,-105.648 1258.1,-161.905 1504.21,-110.309 1535.69,-103.709 1569.26,-90.273 1595.05,-78.4357"/>
<polygon fill="green" stroke="green" stroke-width="0.470624" points="1596.61,-81.5712 1604.18,-74.1625 1593.64,-75.231 1596.61,-81.5712"/>
</g>
<!-- enemyRadar[LeftFront30] -->
<g id="node14" class="node"><title>enemyRadar[LeftFront30]</title>
<polygon fill="lightgray" stroke="black" points="1130.21,-176.522 1020.21,-176.522 1020.21,-158.522 1130.21,-158.522 1130.21,-176.522"/>
<text text-anchor="middle" x="1075.21" y="-165.322" font-family="Times,serif" font-size="9.00">enemyRadar[LeftFront30]</text>
</g>
<!-- enemyRadar[LeftFront30]&#45;&gt;Shoot -->
<g id="edge37" class="edge"><title>enemyRadar[LeftFront30]&#45;&gt;Shoot</title>
<path fill="none" stroke="red" stroke-width="0.340536" d="M1097.84,-158.518C1110.22,-154.382 1125.92,-149.539 1140.21,-146.309 1249.71,-121.564 1285.75,-151.42 1390.21,-110.309 1408.42,-103.142 1426.52,-90.9782 1440.68,-79.9922"/>
<polygon fill="red" stroke="red" stroke-width="0.340536" points="1442.92,-82.6855 1448.55,-73.7066 1438.55,-77.2184 1442.92,-82.6855"/>
</g>
<!-- enemyRadar[LeftFront30]&#45;&gt;Move Forward -->
<g id="edge27" class="edge"><title>enemyRadar[LeftFront30]&#45;&gt;Move Forward</title>
<path fill="none" stroke="red" stroke-width="0.502897" d="M1049.22,-158.459C1016.8,-148.195 959.835,-129.484 912.213,-110.309 891.332,-101.901 868.799,-91.7407 849.136,-82.5032"/>
<polygon fill="red" stroke="red" stroke-width="0.502897" points="850.564,-79.3069 840.028,-78.1944 847.571,-85.6346 850.564,-79.3069"/>
</g>
<!-- enemyRadar[LeftFront30]&#45;&gt;Move right -->
<g id="edge34" class="edge"><title>enemyRadar[LeftFront30]&#45;&gt;Move right</title>
<path fill="none" stroke="green" stroke-width="0.283991" d="M1094.77,-158.406C1136.71,-141.006 1236.25,-99.7066 1295.19,-75.2499"/>
<polygon fill="green" stroke="green" stroke-width="0.283991" points="1296.75,-78.3942 1304.64,-71.329 1294.06,-71.9287 1296.75,-78.3942"/>
</g>
<!-- enemyRadar[LeftFront30]&#45;&gt;Turn Left -->
<g id="edge56" class="edge"><title>enemyRadar[LeftFront30]&#45;&gt;Turn Left</title>
<path fill="none" stroke="red" stroke-width="0.344373" d="M1052.97,-158.435C1040.78,-154.274 1025.32,-149.434 1011.21,-146.309 890.867,-119.644 844.162,-169.817 736.213,-110.309 728.596,-106.109 721.736,-100.061 715.802,-93.515"/>
<polygon fill="red" stroke="red" stroke-width="0.344373" points="718.363,-91.1217 709.27,-85.6838 712.988,-95.6052 718.363,-91.1217"/>
</g>
<!-- enemyRadar[RightFront10] -->
<g id="node15" class="node"><title>enemyRadar[RightFront10]</title>
<polygon fill="lightgray" stroke="black" points="1398.71,-176.522 1283.71,-176.522 1283.71,-158.522 1398.71,-158.522 1398.71,-176.522"/>
<text text-anchor="middle" x="1341.21" y="-165.322" font-family="Times,serif" font-size="9.00">enemyRadar[RightFront10]</text>
</g>
<!-- enemyRadar[RightFront10]&#45;&gt;Shoot -->
<g id="edge47" class="edge"><title>enemyRadar[RightFront10]&#45;&gt;Shoot</title>
<path fill="none" stroke="green" stroke-width="0.10991" stroke-dasharray="1,5" d="M1350.76,-158.226C1369.64,-141.822 1412.36,-104.691 1440.74,-80.0292"/>
<polygon fill="green" stroke="green" stroke-width="0.10991" points="1443.08,-82.6328 1448.33,-73.4315 1438.49,-77.3492 1443.08,-82.6328"/>
</g>
<!-- enemyRadar[RightFront10]&#45;&gt;Move Forward -->
<g id="edge46" class="edge"><title>enemyRadar[RightFront10]&#45;&gt;Move Forward</title>
<path fill="none" stroke="green" stroke-width="0.103159" d="M1318.89,-158.476C1306.24,-154.222 1290.02,-149.279 1275.21,-146.309 1116.26,-114.414 1068.63,-152.954 912.213,-110.309 890.309,-104.337 867.394,-94.5949 847.708,-85.0085"/>
<polygon fill="green" stroke="green" stroke-width="0.103159" points="849.127,-81.8051 838.615,-80.4812 846.007,-88.0714 849.127,-81.8051"/>
</g>
<!-- enemyRadar[RightFront10]&#45;&gt;Move right -->
<g id="edge51" class="edge"><title>enemyRadar[RightFront10]&#45;&gt;Move right</title>
<path fill="none" stroke="red" stroke-width="0.113155" d="M1341.21,-158.226C1341.21,-146.819 1341.21,-125.389 1341.21,-105.099"/>
<polygon fill="red" stroke="red" stroke-width="0.113155" points="1344.71,-104.966 1341.21,-94.9664 1337.71,-104.966 1344.71,-104.966"/>
</g>
<!-- enemyRadar[RightFront10]&#45;&gt;Turn Left -->
<g id="edge7" class="edge"><title>enemyRadar[RightFront10]&#45;&gt;Turn Left</title>
<path fill="none" stroke="red" stroke-width="0.417587" d="M1319.53,-158.497C1306.8,-154.137 1290.3,-149.084 1275.21,-146.309 1157.15,-124.588 843.128,-164.897 736.213,-110.309 728.466,-106.353 721.549,-100.413 715.6,-93.8964"/>
<polygon fill="red" stroke="red" stroke-width="0.417587" points="718.161,-91.5032 709.067,-86.0666 712.786,-95.9874 718.161,-91.5032"/>
</g>
<!-- enemyRadar[RightFront10]&#45;&gt;Turn Right -->
<g id="edge20" class="edge"><title>enemyRadar[RightFront10]&#45;&gt;Turn Right</title>
<path fill="none" stroke="green" stroke-width="0.410766" d="M1365.65,-158.514C1397.65,-147.932 1455.41,-128.501 1504.21,-110.309 1534.24,-99.1147 1567.68,-85.7099 1593.76,-75.0375"/>
<polygon fill="green" stroke="green" stroke-width="0.410766" points="1595.1,-78.2732 1603.02,-71.2384 1592.44,-71.7974 1595.1,-78.2732"/>
</g>
<!-- enemyRadar[LeftFront10] -->
<g id="node16" class="node"><title>enemyRadar[LeftFront10]</title>
<polygon fill="lightgray" stroke="black" points="1565.21,-176.522 1455.21,-176.522 1455.21,-158.522 1565.21,-158.522 1565.21,-176.522"/>
<text text-anchor="middle" x="1510.21" y="-165.322" font-family="Times,serif" font-size="9.00">enemyRadar[LeftFront10]</text>
</g>
<!-- enemyRadar[LeftFront10]&#45;&gt;Shoot -->
<g id="edge49" class="edge"><title>enemyRadar[LeftFront10]&#45;&gt;Shoot</title>
<path fill="none" stroke="green" stroke-width="0.215184" d="M1507.06,-158.226C1501.62,-143.951 1490.22,-113.98 1481.16,-90.1887"/>
<polygon fill="green" stroke="green" stroke-width="0.215184" points="1484.41,-88.8654 1477.58,-80.7641 1477.86,-91.3551 1484.41,-88.8654"/>
</g>
<!-- enemyRadar[LeftFront10]&#45;&gt;Move Forward -->
<g id="edge4" class="edge"><title>enemyRadar[LeftFront10]&#45;&gt;Move Forward</title>
<path fill="none" stroke="red" stroke-width="0.485969" d="M1474.99,-158.429C1455.42,-154.214 1430.58,-149.324 1408.21,-146.309 1189.17,-116.77 1126.2,-165.628 912.213,-110.309 890.232,-104.626 867.301,-94.9446 847.624,-85.3252"/>
<polygon fill="red" stroke="red" stroke-width="0.485969" points="849.045,-82.1229 838.537,-80.7758 845.912,-88.3823 849.045,-82.1229"/>
</g>
<!-- enemyRadar[LeftFront10]&#45;&gt;Move Left -->
<g id="edge5" class="edge"><title>enemyRadar[LeftFront10]&#45;&gt;Move Left</title>
<path fill="none" stroke="green" stroke-width="0.679177" d="M1470.14,-158.496C1370.7,-138.577 1112.97,-86.9534 1006.4,-65.607"/>
<polygon fill="green" stroke="green" stroke-width="0.679177" points="1007.07,-62.17 996.574,-63.6378 1005.69,-69.0337 1007.07,-62.17"/>
</g>
<!-- enemyRadar[LeftFront10]&#45;&gt;Move right -->
<g id="edge9" class="edge"><title>enemyRadar[LeftFront10]&#45;&gt;Move right</title>
<path fill="none" stroke="green" stroke-width="0.221688" d="M1497.79,-158.406C1473.86,-142.783 1420.44,-107.894 1382.67,-83.2274"/>
<polygon fill="green" stroke="green" stroke-width="0.221688" points="1384.2,-80.0449 1373.91,-77.5074 1380.37,-85.9058 1384.2,-80.0449"/>
</g>
<!-- enemyRadar[LeftFront10]&#45;&gt;Turn Right -->
<g id="edge40" class="edge"><title>enemyRadar[LeftFront10]&#45;&gt;Turn Right</title>
<path fill="none" stroke="red" stroke-width="0.125135" d="M1519.91,-158.226C1537.05,-143.563 1573.54,-112.34 1601.68,-88.2643"/>
<polygon fill="red" stroke="red" stroke-width="0.125135" points="1604.05,-90.8433 1609.37,-81.6828 1599.5,-85.5244 1604.05,-90.8433"/>
</g>
<!-- enemyRadar[RightFront3.5] -->
<g id="node17" class="node"><title>enemyRadar[RightFront3.5]</title>
<polygon fill="lightgray" stroke="black" points="1265.71,-176.522 1148.71,-176.522 1148.71,-158.522 1265.71,-158.522 1265.71,-176.522"/>
<text text-anchor="middle" x="1207.21" y="-165.322" font-family="Times,serif" font-size="9.00">enemyRadar[RightFront3.5]</text>
</g>
<!-- enemyRadar[RightFront3.5]&#45;&gt;Move Left -->
<g id="edge21" class="edge"><title>enemyRadar[RightFront3.5]&#45;&gt;Move Left</title>
<path fill="none" stroke="green" stroke-width="0.599056" d="M1188.98,-158.406C1150.06,-141.089 1057.96,-100.1 1002.91,-75.6008"/>
<polygon fill="green" stroke="green" stroke-width="0.599056" points="1004.3,-72.3905 993.745,-71.5222 1001.46,-78.7858 1004.3,-72.3905"/>
</g>
<!-- enemyRadar[RightFront3.5]&#45;&gt;Turn Left -->
<g id="edge8" class="edge"><title>enemyRadar[RightFront3.5]&#45;&gt;Turn Left</title>
<path fill="none" stroke="green" stroke-width="0.387193" d="M1184.21,-158.434C1171.17,-154.167 1154.46,-149.224 1139.21,-146.309 1050.9,-129.415 815.828,-152.089 736.213,-110.309 728.511,-106.267 721.614,-100.288 715.67,-93.7611"/>
<polygon fill="green" stroke="green" stroke-width="0.387193" points="718.231,-91.3678 709.138,-85.9308 712.856,-95.8518 718.231,-91.3678"/>
</g>
<!-- enemyRadar[RightFront3.5]&#45;&gt;Turn Right -->
<g id="edge52" class="edge"><title>enemyRadar[RightFront3.5]&#45;&gt;Turn Right</title>
<path fill="none" stroke="green" stroke-width="0.339579" d="M1231.56,-158.43C1244.43,-154.369 1260.56,-149.623 1275.21,-146.309 1375.7,-123.581 1404.88,-137.661 1504.21,-110.309 1535.11,-101.8 1568.55,-88.4179 1594.42,-77.0857"/>
<polygon fill="green" stroke="green" stroke-width="0.339579" points="1595.87,-80.272 1603.59,-73.0163 1593.03,-73.8738 1595.87,-80.272"/>
</g>
<!-- enemyRadar[LeftFront3.5] -->
<g id="node18" class="node"><title>enemyRadar[LeftFront3.5]</title>
<polygon fill="lightgray" stroke="black" points="1947.21,-176.522 1835.21,-176.522 1835.21,-158.522 1947.21,-158.522 1947.21,-176.522"/>
<text text-anchor="middle" x="1891.21" y="-165.322" font-family="Times,serif" font-size="9.00">enemyRadar[LeftFront3.5]</text>
</g>
<!-- enemyRadar[LeftFront3.5]&#45;&gt;Shoot -->
<g id="edge30" class="edge"><title>enemyRadar[LeftFront3.5]&#45;&gt;Shoot</title>
<path fill="none" stroke="red" stroke-width="0.610361" d="M1868.28,-158.466C1855.94,-154.366 1840.38,-149.572 1826.21,-146.309 1722.82,-122.488 1692.05,-140.096 1590.21,-110.309 1558.8,-101.119 1524.91,-85.5839 1500.84,-73.5031"/>
<polygon fill="red" stroke="red" stroke-width="0.610361" points="1502.3,-70.3198 1491.8,-68.8977 1499.12,-76.5567 1502.3,-70.3198"/>
</g>
<!-- enemyRadar[LeftFront3.5]&#45;&gt;Move Left -->
<g id="edge17" class="edge"><title>enemyRadar[LeftFront3.5]&#45;&gt;Move Left</title>
<path fill="none" stroke="red" stroke-width="0.673386" d="M1869.87,-158.495C1857.33,-154.136 1841.08,-149.082 1826.21,-146.309 1592.37,-102.692 1528.53,-137.43 1292.21,-110.309 1189.75,-98.5498 1070.7,-77.3471 1006.36,-65.2546"/>
<polygon fill="red" stroke="red" stroke-width="0.673386" points="1006.98,-61.8117 996.508,-63.3949 1005.69,-68.6901 1006.98,-61.8117"/>
</g>
<!-- enemyRadar[LeftFront3.5]&#45;&gt;Move right -->
<g id="edge1" class="edge"><title>enemyRadar[LeftFront3.5]&#45;&gt;Move right</title>
<path fill="none" stroke="green" stroke-width="0.476993" d="M1869.25,-158.425C1856.79,-154.155 1840.82,-149.213 1826.21,-146.309 1653.75,-112.012 1599.46,-164.614 1432.21,-110.309 1414.53,-104.566 1396.61,-94.9068 1381.41,-85.323"/>
<polygon fill="green" stroke="green" stroke-width="0.476993" points="1383.08,-82.2374 1372.79,-79.719 1379.26,-88.1054 1383.08,-82.2374"/>
</g>
<!-- enemyRadar[LeftFront3.5]&#45;&gt;Turn Right -->
<g id="edge58" class="edge"><title>enemyRadar[LeftFront3.5]&#45;&gt;Turn Right</title>
<path fill="none" stroke="green" stroke-width="0.497521" d="M1872.68,-158.406C1833.36,-141.183 1740.57,-100.545 1684.53,-76.0017"/>
<polygon fill="green" stroke="green" stroke-width="0.497521" points="1685.76,-72.7172 1675.19,-71.9114 1682.95,-79.1292 1685.76,-72.7172"/>
</g>
<!-- enemyRadar[RightFront1.5] -->
<g id="node19" class="node"><title>enemyRadar[RightFront1.5]</title>
<polygon fill="lightgray" stroke="black" points="691.713,-176.522 574.713,-176.522 574.713,-158.522 691.713,-158.522 691.713,-176.522"/>
<text text-anchor="middle" x="633.213" y="-165.322" font-family="Times,serif" font-size="9.00">enemyRadar[RightFront1.5]</text>
</g>
<!-- enemyRadar[RightFront1.5]&#45;&gt;Move Forward -->
<g id="edge36" class="edge"><title>enemyRadar[RightFront1.5]&#45;&gt;Move Forward</title>
<path fill="none" stroke="red" stroke-width="0.627293" d="M650.534,-158.504C671.423,-148.497 707.217,-130.252 735.213,-110.309 740.742,-106.37 746.324,-101.987 751.741,-97.4666"/>
<polygon fill="red" stroke="red" stroke-width="0.627293" points="754.222,-99.9493 759.535,-90.7826 749.665,-94.6357 754.222,-99.9493"/>
</g>
<!-- enemyRadar[RightFront1.5]&#45;&gt;Move right -->
<g id="edge61" class="edge"><title>enemyRadar[RightFront1.5]&#45;&gt;Move right</title>
<path fill="none" stroke="green" stroke-width="0.126034" stroke-dasharray="1,5" d="M672.638,-158.475C692.551,-154.546 717.116,-149.902 739.213,-146.309 857.401,-127.087 887.767,-127.864 1006.21,-110.309 1108.14,-95.2017 1227.15,-75.4607 1292.33,-64.4682"/>
<polygon fill="green" stroke="green" stroke-width="0.126034" points="1293.05,-67.8978 1302.32,-62.7812 1291.88,-60.9956 1293.05,-67.8978"/>
</g>
<!-- enemyRadar[RightFront1.5]&#45;&gt;Turn Left -->
<g id="edge68" class="edge"><title>enemyRadar[RightFront1.5]&#45;&gt;Turn Left</title>
<path fill="none" stroke="red" stroke-width="0.167083" d="M637.573,-158.226C644.473,-145.096 658.35,-118.689 670.261,-96.0243"/>
<polygon fill="red" stroke="red" stroke-width="0.167083" points="673.495,-97.3942 675.049,-86.9139 667.298,-94.1378 673.495,-97.3942"/>
</g>
<!-- enemyRadar[LeftFront1.5] -->
<g id="node20" class="node"><title>enemyRadar[LeftFront1.5]</title>
<polygon fill="lightgray" stroke="black" points="1695.21,-176.522 1583.21,-176.522 1583.21,-158.522 1695.21,-158.522 1695.21,-176.522"/>
<text text-anchor="middle" x="1639.21" y="-165.322" font-family="Times,serif" font-size="9.00">enemyRadar[LeftFront1.5]</text>
</g>
<!-- enemyRadar[LeftFront1.5]&#45;&gt;Shoot -->
<g id="edge70" class="edge"><title>enemyRadar[LeftFront1.5]&#45;&gt;Shoot</title>
<path fill="none" stroke="red" stroke-width="0.177519" d="M1626.64,-158.406C1600.01,-141.216 1537.23,-100.701 1499.18,-76.144"/>
<polygon fill="red" stroke="red" stroke-width="0.177519" points="1500.84,-73.0479 1490.54,-70.5657 1497.05,-78.9293 1500.84,-73.0479"/>
</g>
<!-- enemyRadar[LeftFront1.5]&#45;&gt; Move Backward -->
<g id="edge6" class="edge"><title>enemyRadar[LeftFront1.5]&#45;&gt; Move Backward</title>
<path fill="none" stroke="red" stroke-width="0.310724" d="M1618.19,-158.44C1605.63,-154.003 1589.24,-148.89 1574.21,-146.309 1167.86,-76.4904 1055.77,-165.813 647.213,-110.309 589.84,-102.514 525.816,-86.8528 479.916,-74.3686"/>
<polygon fill="red" stroke="red" stroke-width="0.310724" points="480.684,-70.9501 470.114,-71.6762 478.83,-77.7001 480.684,-70.9501"/>
</g>
<!-- enemyRadar[LeftFront1.5]&#45;&gt;Move right -->
<g id="edge73" class="edge"><title>enemyRadar[LeftFront1.5]&#45;&gt;Move right</title>
<path fill="none" stroke="red" stroke-width="0.133215" d="M1614.3,-158.435C1602.24,-154.606 1587.52,-150.062 1574.21,-146.309 1511.55,-128.636 1492.37,-135.215 1432.21,-110.309 1415.17,-103.254 1397.52,-93.4127 1382.34,-84.0522"/>
<polygon fill="red" stroke="red" stroke-width="0.133215" points="1384.04,-80.988 1373.72,-78.6211 1380.31,-86.9114 1384.04,-80.988"/>
</g>
<!-- enemyRadar[LeftFront1.5]&#45;&gt;Turn Right -->
<g id="edge66" class="edge"><title>enemyRadar[LeftFront1.5]&#45;&gt;Turn Right</title>
<path fill="none" stroke="red" stroke-width="0.140795" d="M1639.21,-158.226C1639.21,-146.819 1639.21,-125.389 1639.21,-105.099"/>
<polygon fill="red" stroke="red" stroke-width="0.140795" points="1642.71,-104.966 1639.21,-94.9664 1635.71,-104.966 1642.71,-104.966"/>
</g>
<!-- OnTarget -->
<g id="node21" class="node"><title>OnTarget</title>
<polygon fill="lightgray" stroke="black" points="798.213,-176.522 748.213,-176.522 748.213,-158.522 798.213,-158.522 798.213,-176.522"/>
<text text-anchor="middle" x="773.213" y="-165.322" font-family="Times,serif" font-size="9.00">OnTarget</text>
</g>
<!-- OnTarget&#45;&gt;Shoot -->
<g id="edge63" class="edge"><title>OnTarget&#45;&gt;Shoot</title>
<path fill="none" stroke="red" stroke-width="0.121047" d="M783.913,-158.357C790.313,-153.951 798.813,-148.898 807.213,-146.309 1055.3,-69.8332 1144.98,-195.481 1390.21,-110.309 1408.7,-103.888 1426.81,-91.7788 1440.92,-80.6363"/>
<polygon fill="red" stroke="red" stroke-width="0.121047" points="1443.22,-83.2796 1448.74,-74.2378 1438.79,-77.8624 1443.22,-83.2796"/>
</g>
<!-- OnTarget&#45;&gt; Move Backward -->
<g id="edge62" class="edge"><title>OnTarget&#45;&gt; Move Backward</title>
<path fill="none" stroke="red" stroke-width="0.19676" d="M748.18,-158.761C692.933,-141.633 559.178,-100.166 479.645,-75.5095"/>
<polygon fill="red" stroke="red" stroke-width="0.19676" points="480.336,-72.0595 469.748,-72.4413 478.263,-78.7456 480.336,-72.0595"/>
</g>
<!-- OnTarget&#45;&gt;Move Left -->
<g id="edge55" class="edge"><title>OnTarget&#45;&gt;Move Left</title>
<path fill="none" stroke="red" stroke-width="0.694894" d="M786.778,-158.453C793.003,-154.751 800.482,-150.306 807.213,-146.309 844.67,-124.066 887.334,-98.764 917.908,-80.6379"/>
<polygon fill="red" stroke="red" stroke-width="0.694894" points="919.775,-83.6001 926.592,-75.4897 916.205,-77.5787 919.775,-83.6001"/>
</g>
<!-- OnTarget&#45;&gt;Move right -->
<g id="edge54" class="edge"><title>OnTarget&#45;&gt;Move right</title>
<path fill="none" stroke="green" stroke-width="0.49258" d="M784.328,-158.485C790.727,-154.234 799.091,-149.29 807.213,-146.309 818.653,-142.109 1162,-85.5498 1291.99,-64.2192"/>
<polygon fill="green" stroke="green" stroke-width="0.49258" points="1292.77,-67.6382 1302.07,-62.5655 1291.64,-60.7305 1292.77,-67.6382"/>
</g>
<!-- OnTarget&#45;&gt;Turn Left -->
<g id="edge24" class="edge"><title>OnTarget&#45;&gt;Turn Left</title>
<path fill="none" stroke="red" stroke-width="0.385004" d="M767.05,-158.226C756.721,-144.325 735.335,-115.54 717.898,-92.071"/>
<polygon fill="red" stroke="red" stroke-width="0.385004" points="720.693,-89.9644 711.92,-84.0248 715.075,-94.1391 720.693,-89.9644"/>
</g>
<!-- bias -->
<g id="node22" class="node"><title>bias</title>
<polygon fill="lightgray" stroke="black" points="230.713,-176.522 199.713,-176.522 199.713,-158.522 230.713,-158.522 230.713,-176.522"/>
<text text-anchor="middle" x="215.213" y="-165.322" font-family="Times,serif" font-size="9.00">bias</text>
</g>
<!-- bias&#45;&gt; Move Backward -->
<g id="edge45" class="edge"><title>bias&#45;&gt; Move Backward</title>
<path fill="none" stroke="red" stroke-width="0.336633" d="M224.167,-158.126C228.521,-154.272 233.943,-149.795 239.213,-146.309 276.742,-121.485 322.012,-98.6422 357.507,-82.1607"/>
<polygon fill="red" stroke="red" stroke-width="0.336633" points="359.153,-85.256 366.776,-77.8977 356.228,-78.8964 359.153,-85.256"/>
</g>
<!-- bias&#45;&gt;Move right -->
<g id="edge12" class="edge"><title>bias&#45;&gt;Move right</title>
<path fill="none" stroke="green" stroke-width="0.107453" d="M222.344,-158.323C226.721,-153.906 232.721,-148.852 239.213,-146.309 398.086,-84.0602 836.496,-127.952 1006.21,-110.309 1108.7,-99.6545 1227.51,-78.2822 1292.5,-65.8091"/>
<polygon fill="green" stroke="green" stroke-width="0.107453" points="1293.31,-69.2188 1302.46,-63.8867 1291.98,-62.3456 1293.31,-69.2188"/>
</g>
<!-- bias&#45;&gt;Turn Left -->
<g id="edge57" class="edge"><title>bias&#45;&gt;Turn Left</title>
<path fill="none" stroke="red" stroke-width="0.249881" d="M222.864,-158.157C227.233,-153.916 233.056,-149.087 239.213,-146.309 338.332,-101.59 374.642,-131.915 481.213,-110.309 539.288,-98.5346 605.326,-80.7697 647.587,-68.8301"/>
<polygon fill="red" stroke="red" stroke-width="0.249881" points="648.614,-72.177 657.276,-66.0769 646.7,-65.4435 648.614,-72.177"/>
</g>
<!-- 285&#45;&gt; Move Backward -->
<g id="edge77" class="edge"><title>285&#45;&gt; Move Backward</title>
<path fill="none" stroke="red" stroke-width="0.594577" d="M38.5328,-155.243C44.0248,-152.02 50.2283,-148.728 56.2132,-146.309 156.167,-105.895 279.231,-79.8575 352.787,-66.6286"/>
<polygon fill="red" stroke="red" stroke-width="0.594577" points="353.595,-70.0399 362.83,-64.8468 352.372,-63.1476 353.595,-70.0399"/>
</g>
</g>
</svg>
