<?xml version="1.0" encoding="UTF-8" standalone="no"?>
<!DOCTYPE svg PUBLIC "-//W3C//DTD SVG 1.1//EN"
 "http://www.w3.org/Graphics/SVG/1.1/DTD/svg11.dtd">
<!-- Generated by graphviz version 2.38.0 (20140413.2041)
 -->
<!-- Title: %3 Pages: 1 -->
<svg width="2521pt" height="329pt"
 viewBox="0.00 0.00 2521.45 329.16" xmlns="http://www.w3.org/2000/svg" xmlns:xlink="http://www.w3.org/1999/xlink">
<g id="graph0" class="graph" transform="scale(1 1) rotate(0) translate(4 325.161)">
<title>%3</title>
<polygon fill="white" stroke="none" points="-4,4 -4,-325.161 2517.45,-325.161 2517.45,4 -4,4"/>
<!-- wallRadar[1,0] -->
<g id="node1" class="node"><title>wallRadar[1,0]</title>
<polygon fill="lightgray" stroke="black" points="896.237,-176.522 826.237,-176.522 826.237,-158.522 896.237,-158.522 896.237,-176.522"/>
<text text-anchor="middle" x="861.237" y="-165.322" font-family="Times,serif" font-size="9.00">wallRadar[1,0]</text>
</g>
<!-- Shoot -->
<g id="node23" class="node"><title>Shoot</title>
<ellipse fill="lightblue" stroke="black" cx="1057.24" cy="-55.1543" rx="26.7407" ry="26.7407"/>
<text text-anchor="middle" x="1057.24" y="-52.9543" font-family="Times,serif" font-size="9.00">Shoot</text>
</g>
<!-- wallRadar[1,0]&#45;&gt;Shoot -->
<g id="edge54" class="edge"><title>wallRadar[1,0]&#45;&gt;Shoot</title>
<path fill="none" stroke="green" stroke-width="1.22183" d="M875.65,-158.406C906.947,-140.783 981.781,-98.6435 1024.98,-74.3174"/>
<polygon fill="green" stroke="green" stroke-width="1.22183" points="1026.95,-77.2235 1033.95,-69.2671 1023.52,-71.124 1026.95,-77.2235"/>
</g>
<!-- Move Left -->
<g id="node26" class="node"><title>Move Left</title>
<ellipse fill="lightblue" stroke="black" cx="673.237" cy="-55.1543" rx="38.3684" ry="38.3684"/>
<text text-anchor="middle" x="673.237" y="-52.9543" font-family="Times,serif" font-size="9.00">Move Left</text>
</g>
<!-- wallRadar[1,0]&#45;&gt;Move Left -->
<g id="edge35" class="edge"><title>wallRadar[1,0]&#45;&gt;Move Left</title>
<path fill="none" stroke="green" stroke-width="0.341939" d="M847.413,-158.406C819.784,-142.186 756.783,-105.201 714.619,-80.4481"/>
<polygon fill="green" stroke="green" stroke-width="0.341939" points="716.354,-77.408 705.958,-75.3636 712.81,-83.4447 716.354,-77.408"/>
</g>
<!-- Turn Left -->
<g id="node28" class="node"><title>Turn Left</title>
<ellipse fill="lightblue" stroke="black" cx="1435.24" cy="-55.1543" rx="35.2113" ry="35.2113"/>
<text text-anchor="middle" x="1435.24" y="-52.9543" font-family="Times,serif" font-size="9.00">Turn Left</text>
</g>
<!-- wallRadar[1,0]&#45;&gt;Turn Left -->
<g id="edge65" class="edge"><title>wallRadar[1,0]&#45;&gt;Turn Left</title>
<path fill="none" stroke="red" stroke-width="0.693104" d="M891.897,-158.497C907.26,-154.596 926.178,-149.971 943.237,-146.309 1107.23,-111.105 1303.83,-77.7025 1390.49,-63.4228"/>
<polygon fill="red" stroke="red" stroke-width="0.693104" points="1391.2,-66.8527 1400.5,-61.7773 1390.06,-59.9453 1391.2,-66.8527"/>
</g>
<!-- wallRadar[0,1] -->
<g id="node2" class="node"><title>wallRadar[0,1]</title>
<polygon fill="lightgray" stroke="black" points="1472.24,-176.522 1402.24,-176.522 1402.24,-158.522 1472.24,-158.522 1472.24,-176.522"/>
<text text-anchor="middle" x="1437.24" y="-165.322" font-family="Times,serif" font-size="9.00">wallRadar[0,1]</text>
</g>
<!-- wallRadar[0,1]&#45;&gt;Shoot -->
<g id="edge6" class="edge"><title>wallRadar[0,1]&#45;&gt;Shoot</title>
<path fill="none" stroke="green" stroke-width="0.339591" stroke-dasharray="1,5" d="M1421.21,-158.369C1412.99,-154.389 1402.73,-149.733 1393.24,-146.309 1286.64,-107.832 1155.79,-77.3241 1093.51,-63.7751"/>
<polygon fill="green" stroke="green" stroke-width="0.339591" points="1093.92,-60.2834 1083.41,-61.5957 1092.45,-67.126 1093.92,-60.2834"/>
</g>
<!--  Move Backward -->
<g id="node25" class="node"><title> Move Backward</title>
<ellipse fill="lightblue" stroke="black" cx="1606.24" cy="-55.1543" rx="55.3091" ry="55.3091"/>
<text text-anchor="middle" x="1606.24" y="-52.9543" font-family="Times,serif" font-size="9.00"> Move Backward</text>
</g>
<!-- wallRadar[0,1]&#45;&gt; Move Backward -->
<g id="edge1" class="edge"><title>wallRadar[0,1]&#45;&gt; Move Backward</title>
<path fill="none" stroke="green" stroke-width="0.205131" d="M1449.66,-158.406C1470.98,-144.488 1515.7,-115.28 1551.91,-91.631"/>
<polygon fill="green" stroke="green" stroke-width="0.205131" points="1553.98,-94.4596 1560.44,-86.0612 1550.16,-88.5987 1553.98,-94.4596"/>
</g>
<!-- wallRadar[0,1]&#45;&gt;Move Left -->
<g id="edge32" class="edge"><title>wallRadar[0,1]&#45;&gt;Move Left</title>
<path fill="none" stroke="red" stroke-width="0.247065" d="M1423.03,-158.518C1414.63,-154.165 1403.63,-149.112 1393.24,-146.309 1232.87,-103.036 1186.04,-131.088 1021.24,-110.309 913.557,-96.7315 787.895,-75.9468 720.957,-64.477"/>
<polygon fill="red" stroke="red" stroke-width="0.247065" points="721.178,-60.9638 710.729,-62.7187 719.992,-67.8626 721.178,-60.9638"/>
</g>
<!-- Move right -->
<g id="node27" class="node"><title>Move right</title>
<ellipse fill="lightblue" stroke="black" cx="1750.24" cy="-55.1543" rx="39.6962" ry="39.6962"/>
<text text-anchor="middle" x="1750.24" y="-52.9543" font-family="Times,serif" font-size="9.00">Move right</text>
</g>
<!-- wallRadar[0,1]&#45;&gt;Move right -->
<g id="edge44" class="edge"><title>wallRadar[0,1]&#45;&gt;Move right</title>
<path fill="none" stroke="green" stroke-width="0.200939" stroke-dasharray="1,5" d="M1452.35,-158.473C1460.67,-154.324 1471.31,-149.483 1481.24,-146.309 1562.69,-120.27 1591.2,-142.949 1670.24,-110.309 1684.6,-104.379 1699.04,-95.6506 1711.62,-86.9253"/>
<polygon fill="green" stroke="green" stroke-width="0.200939" points="1713.92,-89.5857 1720.01,-80.9195 1709.84,-83.8932 1713.92,-89.5857"/>
</g>
<!-- wallRadar[&#45;1,0] -->
<g id="node3" class="node"><title>wallRadar[&#45;1,0]</title>
<polygon fill="lightgray" stroke="black" points="336.737,-176.522 263.737,-176.522 263.737,-158.522 336.737,-158.522 336.737,-176.522"/>
<text text-anchor="middle" x="300.237" y="-165.322" font-family="Times,serif" font-size="9.00">wallRadar[&#45;1,0]</text>
</g>
<!-- wallRadar[&#45;1,0]&#45;&gt;Turn Left -->
<g id="edge39" class="edge"><title>wallRadar[&#45;1,0]&#45;&gt;Turn Left</title>
<path fill="none" stroke="green" stroke-width="0.243536" d="M315.086,-158.333C323.869,-153.919 335.369,-148.866 346.237,-146.309 669.787,-70.1805 762.6,-144.351 1093.24,-110.309 1200.52,-99.2631 1325.39,-77.1032 1390.52,-64.8312"/>
<polygon fill="green" stroke="green" stroke-width="0.243536" points="1391.27,-68.2507 1400.45,-62.9497 1389.97,-61.3731 1391.27,-68.2507"/>
</g>
<!-- Turn Right -->
<g id="node29" class="node"><title>Turn Right</title>
<ellipse fill="lightblue" stroke="black" cx="300.237" cy="-55.1543" rx="39.6962" ry="39.6962"/>
<text text-anchor="middle" x="300.237" y="-52.9543" font-family="Times,serif" font-size="9.00">Turn Right</text>
</g>
<!-- wallRadar[&#45;1,0]&#45;&gt;Turn Right -->
<g id="edge49" class="edge"><title>wallRadar[&#45;1,0]&#45;&gt;Turn Right</title>
<path fill="none" stroke="green" stroke-width="1.01755" d="M300.237,-158.226C300.237,-146.819 300.237,-125.389 300.237,-105.099"/>
<polygon fill="green" stroke="green" stroke-width="1.01755" points="303.737,-104.966 300.237,-94.9664 296.737,-104.966 303.737,-104.966"/>
</g>
<!-- wallRadar[0,&#45;1] -->
<g id="node4" class="node"><title>wallRadar[0,&#45;1]</title>
<polygon fill="lightgray" stroke="black" points="709.737,-176.522 636.737,-176.522 636.737,-158.522 709.737,-158.522 709.737,-176.522"/>
<text text-anchor="middle" x="673.237" y="-165.322" font-family="Times,serif" font-size="9.00">wallRadar[0,&#45;1]</text>
</g>
<!-- wallRadar[0,&#45;1]&#45;&gt;Shoot -->
<g id="edge26" class="edge"><title>wallRadar[0,&#45;1]&#45;&gt;Shoot</title>
<path fill="none" stroke="red" stroke-width="0.243411" stroke-dasharray="1,5" d="M691.942,-158.521C701.508,-154.58 713.392,-149.913 724.237,-146.309 830.62,-110.952 959.452,-79.1031 1021.04,-64.5333"/>
<polygon fill="red" stroke="red" stroke-width="0.243411" points="1022.1,-67.8787 1031.03,-62.1808 1020.5,-61.0648 1022.1,-67.8787"/>
</g>
<!-- wallRadar[0,&#45;1]&#45;&gt;Move Left -->
<g id="edge58" class="edge"><title>wallRadar[0,&#45;1]&#45;&gt;Move Left</title>
<path fill="none" stroke="green" stroke-width="0.447719" d="M673.237,-158.226C673.237,-146.508 673.237,-124.215 673.237,-103.444"/>
<polygon fill="green" stroke="green" stroke-width="0.447719" points="676.737,-103.424 673.237,-93.4236 669.737,-103.424 676.737,-103.424"/>
</g>
<!-- wallRadar[0.7,0.7] -->
<g id="node5" class="node"><title>wallRadar[0.7,0.7]</title>
<polygon fill="lightgray" stroke="black" points="618.737,-176.522 535.737,-176.522 535.737,-158.522 618.737,-158.522 618.737,-176.522"/>
<text text-anchor="middle" x="577.237" y="-165.322" font-family="Times,serif" font-size="9.00">wallRadar[0.7,0.7]</text>
</g>
<!-- wallRadar[0.7,0.7]&#45;&gt;Shoot -->
<g id="edge52" class="edge"><title>wallRadar[0.7,0.7]&#45;&gt;Shoot</title>
<path fill="none" stroke="green" stroke-width="0.190783" d="M595.011,-158.439C604.441,-154.381 616.309,-149.634 627.237,-146.309 769.817,-102.918 945.243,-73.2439 1020.32,-61.6252"/>
<polygon fill="green" stroke="green" stroke-width="0.190783" points="1021.3,-65.0163 1030.65,-60.0425 1020.24,-58.097 1021.3,-65.0163"/>
</g>
<!-- wallRadar[0.7,0.7]&#45;&gt;Move Left -->
<g id="edge16" class="edge"><title>wallRadar[0.7,0.7]&#45;&gt;Move Left</title>
<path fill="none" stroke="green" stroke-width="0.361564" d="M584.453,-158.226C596.519,-144.354 621.477,-115.661 641.867,-92.2199"/>
<polygon fill="green" stroke="green" stroke-width="0.361564" points="644.659,-94.3427 648.581,-84.5005 639.377,-89.7486 644.659,-94.3427"/>
</g>
<!-- wallRadar[0.7,0.7]&#45;&gt;Turn Left -->
<g id="edge36" class="edge"><title>wallRadar[0.7,0.7]&#45;&gt;Turn Left</title>
<path fill="none" stroke="green" stroke-width="0.16261" d="M593.487,-158.47C603.07,-154.102 615.57,-149.048 627.237,-146.309 829.465,-98.8222 886.931,-134.572 1093.24,-110.309 1200.35,-97.7117 1325.29,-76.1748 1390.47,-64.4145"/>
<polygon fill="green" stroke="green" stroke-width="0.16261" points="1391.19,-67.841 1400.41,-62.6138 1389.95,-60.9532 1391.19,-67.841"/>
</g>
<!-- wallRadar[0.7,0.7]&#45;&gt;Turn Right -->
<g id="edge66" class="edge"><title>wallRadar[0.7,0.7]&#45;&gt;Turn Right</title>
<path fill="none" stroke="red" stroke-width="0.173466" stroke-dasharray="1,5" d="M556.869,-158.406C512.751,-140.828 407.422,-98.8609 346.297,-74.5062"/>
<polygon fill="red" stroke="red" stroke-width="0.173466" points="347.468,-71.2051 336.882,-70.7551 344.877,-77.708 347.468,-71.2051"/>
</g>
<!-- wallRadar[&#45;0.7,0.7] -->
<g id="node6" class="node"><title>wallRadar[&#45;0.7,0.7]</title>
<polygon fill="lightgray" stroke="black" points="245.237,-176.522 159.237,-176.522 159.237,-158.522 245.237,-158.522 245.237,-176.522"/>
<text text-anchor="middle" x="202.237" y="-165.322" font-family="Times,serif" font-size="9.00">wallRadar[&#45;0.7,0.7]</text>
</g>
<!-- wallRadar[&#45;0.7,0.7]&#45;&gt;Shoot -->
<g id="edge31" class="edge"><title>wallRadar[&#45;0.7,0.7]&#45;&gt;Shoot</title>
<path fill="none" stroke="red" stroke-width="0.340738" d="M219.171,-158.48C229.149,-154.115 242.149,-149.062 254.237,-146.309 456.779,-100.182 513.959,-134.808 720.237,-110.309 830.098,-97.2604 958.958,-74.4411 1020.67,-63.0427"/>
<polygon fill="red" stroke="red" stroke-width="0.340738" points="1021.5,-66.4492 1030.69,-61.1832 1020.22,-59.5667 1021.5,-66.4492"/>
</g>
<!-- wallRadar[&#45;0.7,0.7]&#45;&gt;Move Left -->
<g id="edge48" class="edge"><title>wallRadar[&#45;0.7,0.7]&#45;&gt;Move Left</title>
<path fill="none" stroke="green" stroke-width="0.168143" d="M220.76,-158.495C230.578,-154.453 242.919,-149.703 254.237,-146.309 386.394,-106.679 546.926,-77.1601 625.394,-63.8963"/>
<polygon fill="green" stroke="green" stroke-width="0.168143" points="626.173,-67.3145 635.456,-62.2086 625.015,-60.4109 626.173,-67.3145"/>
</g>
<!-- wallRadar[&#45;0.7,0.7]&#45;&gt;Turn Right -->
<g id="edge34" class="edge"><title>wallRadar[&#45;0.7,0.7]&#45;&gt;Turn Right</title>
<path fill="none" stroke="green" stroke-width="0.501852" d="M209.603,-158.226C221.761,-144.534 246.739,-116.404 267.4,-93.1358"/>
<polygon fill="green" stroke="green" stroke-width="0.501852" points="270.194,-95.2607 274.216,-85.4591 264.959,-90.6129 270.194,-95.2607"/>
</g>
<!-- wallRadar[&#45;0.7,&#45;0.7] -->
<g id="node7" class="node"><title>wallRadar[&#45;0.7,&#45;0.7]</title>
<polygon fill="lightgray" stroke="black" points="1873.74,-176.522 1784.74,-176.522 1784.74,-158.522 1873.74,-158.522 1873.74,-176.522"/>
<text text-anchor="middle" x="1829.24" y="-165.322" font-family="Times,serif" font-size="9.00">wallRadar[&#45;0.7,&#45;0.7]</text>
</g>
<!-- wallRadar[&#45;0.7,&#45;0.7]&#45;&gt;Shoot -->
<g id="edge13" class="edge"><title>wallRadar[&#45;0.7,&#45;0.7]&#45;&gt;Shoot</title>
<path fill="none" stroke="green" stroke-width="0.270974" d="M1797.05,-158.518C1779.47,-154.382 1757.26,-149.539 1737.24,-146.309 1584.6,-121.681 1544.5,-130.689 1391.24,-110.309 1282.52,-95.8513 1154.73,-73.6782 1093.51,-62.7329"/>
<polygon fill="green" stroke="green" stroke-width="0.270974" points="1094.03,-59.2706 1083.57,-60.9497 1092.8,-66.1606 1094.03,-59.2706"/>
</g>
<!-- Move Forward -->
<g id="node24" class="node"><title>Move Forward</title>
<ellipse fill="lightblue" stroke="black" cx="2207.24" cy="-55.1543" rx="50.41" ry="50.41"/>
<text text-anchor="middle" x="2207.24" y="-52.9543" font-family="Times,serif" font-size="9.00">Move Forward</text>
</g>
<!-- wallRadar[&#45;0.7,&#45;0.7]&#45;&gt;Move Forward -->
<g id="edge64" class="edge"><title>wallRadar[&#45;0.7,&#45;0.7]&#45;&gt;Move Forward</title>
<path fill="none" stroke="red" stroke-width="1.19224" stroke-dasharray="1,5" d="M1849.35,-158.52C1859.45,-154.624 1871.91,-149.997 1883.24,-146.309 1975.12,-116.39 2083.62,-87.4753 2148.85,-70.7711"/>
<polygon fill="red" stroke="red" stroke-width="1.19224" points="2149.72,-74.161 2158.54,-68.2966 2147.98,-67.3785 2149.72,-74.161"/>
</g>
<!-- wallRadar[&#45;0.7,&#45;0.7]&#45;&gt;Move right -->
<g id="edge41" class="edge"><title>wallRadar[&#45;0.7,&#45;0.7]&#45;&gt;Move right</title>
<path fill="none" stroke="green" stroke-width="0.214164" d="M1823.3,-158.226C1813.9,-145.1 1795.01,-118.703 1778.79,-96.0425"/>
<polygon fill="green" stroke="green" stroke-width="0.214164" points="1781.62,-93.9888 1772.96,-87.8944 1775.93,-98.0632 1781.62,-93.9888"/>
</g>
<!-- wallRadar[&#45;0.7,&#45;0.7]&#45;&gt;Turn Left -->
<g id="edge67" class="edge"><title>wallRadar[&#45;0.7,&#45;0.7]&#45;&gt;Turn Left</title>
<path fill="none" stroke="red" stroke-width="0.631698" d="M1793.91,-158.468C1776.82,-154.647 1755.99,-150.099 1737.24,-146.309 1650.85,-128.85 1625.74,-138.495 1542.24,-110.309 1518.63,-102.34 1493.71,-89.9874 1473.87,-79.0909"/>
<polygon fill="red" stroke="red" stroke-width="0.631698" points="1475.57,-76.0308 1465.13,-74.2078 1472.15,-82.1414 1475.57,-76.0308"/>
</g>
<!-- wallRadar[0.7,&#45;0.7] -->
<g id="node8" class="node"><title>wallRadar[0.7,&#45;0.7]</title>
<polygon fill="lightgray" stroke="black" points="441.237,-176.522 355.237,-176.522 355.237,-158.522 441.237,-158.522 441.237,-176.522"/>
<text text-anchor="middle" x="398.237" y="-165.322" font-family="Times,serif" font-size="9.00">wallRadar[0.7,&#45;0.7]</text>
</g>
<!-- wallRadar[0.7,&#45;0.7]&#45;&gt; Move Backward -->
<g id="edge51" class="edge"><title>wallRadar[0.7,&#45;0.7]&#45;&gt; Move Backward</title>
<path fill="none" stroke="green" stroke-width="0.193266" d="M440.742,-158.511C465.576,-154.156 497.576,-149.103 526.237,-146.309 737.166,-125.744 1272.44,-156.643 1479.24,-110.309 1502.77,-105.036 1527.42,-95.5433 1548.68,-85.9619"/>
<polygon fill="green" stroke="green" stroke-width="0.193266" points="1550.26,-89.0846 1557.88,-81.7158 1547.33,-82.7289 1550.26,-89.0846"/>
</g>
<!-- wallRadar[0.7,&#45;0.7]&#45;&gt;Move Left -->
<g id="edge17" class="edge"><title>wallRadar[0.7,&#45;0.7]&#45;&gt;Move Left</title>
<path fill="none" stroke="green" stroke-width="0.699964" d="M418.459,-158.406C462.493,-140.734 567.953,-98.4089 628.485,-74.1149"/>
<polygon fill="green" stroke="green" stroke-width="0.699964" points="629.822,-77.3501 637.798,-70.3773 627.214,-70.8537 629.822,-77.3501"/>
</g>
<!-- wallRadar[0.7,&#45;0.7]&#45;&gt;Turn Right -->
<g id="edge42" class="edge"><title>wallRadar[0.7,&#45;0.7]&#45;&gt;Turn Right</title>
<path fill="none" stroke="green" stroke-width="0.709404" d="M390.871,-158.226C378.714,-144.534 353.735,-116.404 333.075,-93.1358"/>
<polygon fill="green" stroke="green" stroke-width="0.709404" points="335.515,-90.6129 326.258,-85.4591 330.281,-95.2607 335.515,-90.6129"/>
</g>
<!-- enemyRadar[RightBack] -->
<g id="node9" class="node"><title>enemyRadar[RightBack]</title>
<polygon fill="lightgray" stroke="black" points="1384.24,-176.522 1280.24,-176.522 1280.24,-158.522 1384.24,-158.522 1384.24,-176.522"/>
<text text-anchor="middle" x="1332.24" y="-165.322" font-family="Times,serif" font-size="9.00">enemyRadar[RightBack]</text>
</g>
<!-- enemyRadar[RightBack]&#45;&gt;Shoot -->
<g id="edge43" class="edge"><title>enemyRadar[RightBack]&#45;&gt;Shoot</title>
<path fill="none" stroke="green" stroke-width="1.1304" d="M1312.02,-158.406C1265.35,-139.677 1149.69,-93.2595 1091.64,-69.9597"/>
<polygon fill="green" stroke="green" stroke-width="1.1304" points="1092.75,-66.6344 1082.16,-66.1579 1090.14,-73.1307 1092.75,-66.6344"/>
</g>
<!-- enemyRadar[RightBack]&#45;&gt;Turn Left -->
<g id="edge29" class="edge"><title>enemyRadar[RightBack]&#45;&gt;Turn Left</title>
<path fill="none" stroke="green" stroke-width="0.43258" d="M1339.98,-158.226C1353.49,-143.751 1382.06,-113.138 1404.4,-89.1937"/>
<polygon fill="green" stroke="green" stroke-width="0.43258" points="1407.15,-91.3817 1411.41,-81.6828 1402.03,-86.6057 1407.15,-91.3817"/>
</g>
<!-- enemyRadar[LeftBack] -->
<g id="node10" class="node"><title>enemyRadar[LeftBack]</title>
<polygon fill="lightgray" stroke="black" points="1727.74,-176.522 1628.74,-176.522 1628.74,-158.522 1727.74,-158.522 1727.74,-176.522"/>
<text text-anchor="middle" x="1678.24" y="-165.322" font-family="Times,serif" font-size="9.00">enemyRadar[LeftBack]</text>
</g>
<!-- enemyRadar[LeftBack]&#45;&gt;Shoot -->
<g id="edge25" class="edge"><title>enemyRadar[LeftBack]&#45;&gt;Shoot</title>
<path fill="none" stroke="red" stroke-width="0.223374" d="M1640.6,-158.459C1622.39,-154.635 1600.21,-150.088 1580.24,-146.309 1397.95,-111.808 1178.87,-75.8069 1093.64,-62.0087"/>
<polygon fill="red" stroke="red" stroke-width="0.223374" points="1094.12,-58.5404 1083.69,-60.3997 1093,-65.4507 1094.12,-58.5404"/>
</g>
<!-- enemyRadar[LeftBack]&#45;&gt;Move Forward -->
<g id="edge7" class="edge"><title>enemyRadar[LeftBack]&#45;&gt;Move Forward</title>
<path fill="none" stroke="green" stroke-width="0.441441" d="M1716.71,-158.496C1808.12,-139.423 2038.88,-91.2803 2148.13,-68.4852"/>
<polygon fill="green" stroke="green" stroke-width="0.441441" points="2148.93,-71.8947 2158,-66.4261 2147.5,-65.0423 2148.93,-71.8947"/>
</g>
<!-- enemyRadar[LeftBack]&#45;&gt; Move Backward -->
<g id="edge2" class="edge"><title>enemyRadar[LeftBack]&#45;&gt; Move Backward</title>
<path fill="none" stroke="green" stroke-width="0.164288" d="M1672.83,-158.226C1666.02,-147.793 1653.74,-128.975 1641.57,-110.314"/>
<polygon fill="green" stroke="green" stroke-width="0.164288" points="1644.4,-108.245 1636,-101.782 1638.54,-112.07 1644.4,-108.245"/>
</g>
<!-- enemyRadar[LeftBack]&#45;&gt;Move right -->
<g id="edge27" class="edge"><title>enemyRadar[LeftBack]&#45;&gt;Move right</title>
<path fill="none" stroke="red" stroke-width="1.04763" d="M1683.65,-158.226C1692.06,-145.335 1708.82,-119.646 1723.42,-97.2651"/>
<polygon fill="red" stroke="red" stroke-width="1.04763" points="1726.35,-99.1709 1728.89,-88.8832 1720.49,-95.3462 1726.35,-99.1709"/>
</g>
<!-- enemyRadar[LeftBack]&#45;&gt;Turn Right -->
<g id="edge50" class="edge"><title>enemyRadar[LeftBack]&#45;&gt;Turn Right</title>
<path fill="none" stroke="green" stroke-width="0.476143" d="M1645.79,-158.421C1626.81,-154.036 1602.31,-148.983 1580.24,-146.309 1159.02,-95.2781 1048.37,-153.16 626.237,-110.309 527.29,-100.264 412.866,-78.9917 349.296,-66.3028"/>
<polygon fill="green" stroke="green" stroke-width="0.476143" points="349.657,-62.8054 339.163,-64.2668 348.278,-69.6682 349.657,-62.8054"/>
</g>
<!-- enemyRadar[Right] -->
<g id="node11" class="node"><title>enemyRadar[Right]</title>
<polygon fill="lightgray" stroke="black" points="805.237,-254.948 719.237,-254.948 719.237,-236.948 805.237,-236.948 805.237,-254.948"/>
<text text-anchor="middle" x="762.237" y="-243.748" font-family="Times,serif" font-size="9.00">enemyRadar[Right]</text>
</g>
<!-- enemyRadar[Right]&#45;&gt;Shoot -->
<g id="edge40" class="edge"><title>enemyRadar[Right]&#45;&gt;Shoot</title>
<path fill="none" stroke="green" stroke-width="0.419824" d="M758.686,-236.804C751.336,-218.553 736.773,-173.827 757.237,-146.309 789.02,-103.571 947.785,-73.4556 1020.62,-61.6661"/>
<polygon fill="green" stroke="green" stroke-width="0.419824" points="1021.39,-65.0876 1030.71,-60.0603 1020.29,-58.1745 1021.39,-65.0876"/>
</g>
<!-- enemyRadar[Right]&#45;&gt;Move Forward -->
<g id="edge33" class="edge"><title>enemyRadar[Right]&#45;&gt;Move Forward</title>
<path fill="none" stroke="green" stroke-width="0.386367" d="M805.556,-245.031C1049.24,-245.289 2240.22,-243.73 2293.24,-188.735 2321.35,-159.568 2288.42,-119.938 2255.51,-91.6194"/>
<polygon fill="green" stroke="green" stroke-width="0.386367" points="2257.55,-88.7603 2247.63,-85.0379 2253.06,-94.1337 2257.55,-88.7603"/>
</g>
<!-- enemyRadar[Right]&#45;&gt;Move Left -->
<g id="edge24" class="edge"><title>enemyRadar[Right]&#45;&gt;Move Left</title>
<path fill="none" stroke="green" stroke-width="0.301516" d="M719.167,-240.976C657.756,-234.319 549.83,-218.607 526.237,-188.735 488.785,-141.314 572.124,-96.4903 627.996,-73.0663"/>
<polygon fill="green" stroke="green" stroke-width="0.301516" points="629.461,-76.2486 637.388,-69.2195 626.808,-69.7708 629.461,-76.2486"/>
</g>
<!-- enemyRadar[Right]&#45;&gt;Move right -->
<g id="edge53" class="edge"><title>enemyRadar[Right]&#45;&gt;Move right</title>
<path fill="none" stroke="green" stroke-width="1.50817" d="M805.441,-245.011C1047.15,-245.157 2222.89,-243.066 2275.24,-188.735 2288.32,-175.156 2287.39,-160.726 2275.24,-146.309 2259.84,-128.043 1927.19,-80.5189 1799.52,-62.8762"/>
<polygon fill="green" stroke="green" stroke-width="1.50817" points="1800,-59.4085 1789.61,-61.5098 1799.04,-66.3429 1800,-59.4085"/>
</g>
<!-- enemyRadar[Right]&#45;&gt;Turn Right -->
<g id="edge30" class="edge"><title>enemyRadar[Right]&#45;&gt;Turn Right</title>
<path fill="none" stroke="green" stroke-width="0.245717" d="M719.011,-244.267C585.84,-241.724 188.486,-230.658 150.237,-188.735 108.964,-143.497 195.556,-97.7275 253.558,-73.5866"/>
<polygon fill="green" stroke="green" stroke-width="0.245717" points="255.011,-76.7738 262.952,-69.7597 252.37,-70.2911 255.011,-76.7738"/>
</g>
<!-- 406 -->
<g id="node31" class="node"><title>406</title>
<ellipse fill="white" stroke="black" cx="787.237" cy="-167.522" rx="21.4286" ry="21.4286"/>
<text text-anchor="middle" x="787.237" y="-165.322" font-family="Times,serif" font-size="9.00">406</text>
</g>
<!-- enemyRadar[Right]&#45;&gt;406 -->
<g id="edge80" class="edge"><title>enemyRadar[Right]&#45;&gt;406</title>
<path fill="none" stroke="green" stroke-width="0.338216" d="M764.913,-236.769C767.954,-227.473 773.09,-211.771 777.67,-197.771"/>
<polygon fill="green" stroke="green" stroke-width="0.338216" points="781.086,-198.585 780.868,-187.993 774.432,-196.409 781.086,-198.585"/>
</g>
<!-- enemyRadar[Left] -->
<g id="node12" class="node"><title>enemyRadar[Left]</title>
<polygon fill="lightgray" stroke="black" points="1571.74,-176.522 1490.74,-176.522 1490.74,-158.522 1571.74,-158.522 1571.74,-176.522"/>
<text text-anchor="middle" x="1531.24" y="-165.322" font-family="Times,serif" font-size="9.00">enemyRadar[Left]</text>
</g>
<!-- enemyRadar[Left]&#45;&gt;Shoot -->
<g id="edge59" class="edge"><title>enemyRadar[Left]&#45;&gt;Shoot</title>
<path fill="none" stroke="green" stroke-width="1.09856" d="M1513.46,-158.452C1504.03,-154.397 1492.16,-149.65 1481.24,-146.309 1340.97,-103.403 1168.5,-73.5696 1094.18,-61.7753"/>
<polygon fill="green" stroke="green" stroke-width="1.09856" points="1094.37,-58.2614 1083.94,-60.1666 1093.28,-65.1766 1094.37,-58.2614"/>
</g>
<!-- enemyRadar[Left]&#45;&gt;Move right -->
<g id="edge22" class="edge"><title>enemyRadar[Left]&#45;&gt;Move right</title>
<path fill="none" stroke="red" stroke-width="0.901845" d="M1555.54,-158.453C1583.84,-148.659 1631.65,-130.878 1670.24,-110.309 1683.83,-103.066 1697.96,-94.0527 1710.5,-85.4705"/>
<polygon fill="red" stroke="red" stroke-width="0.901845" points="1712.69,-88.2103 1718.89,-79.625 1708.69,-82.4649 1712.69,-88.2103"/>
</g>
<!-- enemyRadar[Left]&#45;&gt;Turn Left -->
<g id="edge20" class="edge"><title>enemyRadar[Left]&#45;&gt;Turn Left</title>
<path fill="none" stroke="green" stroke-width="0.144778" d="M1524.02,-158.226C1511.64,-143.994 1485.69,-114.161 1465.03,-90.4043"/>
<polygon fill="green" stroke="green" stroke-width="0.144778" points="1467.45,-87.8601 1458.25,-82.612 1462.17,-92.4542 1467.45,-87.8601"/>
</g>
<!-- enemyRadar[RightFront30] -->
<g id="node13" class="node"><title>enemyRadar[RightFront30]</title>
<polygon fill="lightgray" stroke="black" points="2438.74,-254.948 2323.74,-254.948 2323.74,-236.948 2438.74,-236.948 2438.74,-254.948"/>
<text text-anchor="middle" x="2381.24" y="-243.748" font-family="Times,serif" font-size="9.00">enemyRadar[RightFront30]</text>
</g>
<!-- enemyRadar[RightFront30]&#45;&gt;Move Forward -->
<g id="edge60" class="edge"><title>enemyRadar[RightFront30]&#45;&gt;Move Forward</title>
<path fill="none" stroke="red" stroke-width="0.371546" d="M2387.93,-236.895C2401.77,-219.204 2430.68,-176.155 2411.24,-146.309 2379.57,-97.6923 2315.08,-75.1014 2267.05,-64.7254"/>
<polygon fill="red" stroke="red" stroke-width="0.371546" points="2267.56,-61.2583 2257.06,-62.6917 2266.16,-68.1175 2267.56,-61.2583"/>
</g>
<!-- enemyRadar[RightFront30]&#45;&gt; Move Backward -->
<g id="edge3" class="edge"><title>enemyRadar[RightFront30]&#45;&gt; Move Backward</title>
<path fill="none" stroke="green" stroke-width="0.524311" d="M2323.6,-244.806C2191.61,-243.653 1871.47,-235.922 1776.24,-188.735 1753.29,-177.363 1756.58,-163.103 1737.24,-146.309 1713.85,-125.994 1685.79,-106.166 1661.65,-90.3011"/>
<polygon fill="green" stroke="green" stroke-width="0.524311" points="1663.24,-87.1612 1652.95,-84.642 1659.43,-93.0289 1663.24,-87.1612"/>
</g>
<!-- 385 -->
<g id="node30" class="node"><title>385</title>
<ellipse fill="white" stroke="black" cx="2381.24" cy="-167.522" rx="21.4286" ry="21.4286"/>
<text text-anchor="middle" x="2381.24" y="-165.322" font-family="Times,serif" font-size="9.00">385</text>
</g>
<!-- enemyRadar[RightFront30]&#45;&gt;385 -->
<g id="edge78" class="edge"><title>enemyRadar[RightFront30]&#45;&gt;385</title>
<path fill="none" stroke="green" stroke-width="0.589608" d="M2381.24,-236.769C2381.24,-227.748 2381.24,-212.693 2381.24,-199.015"/>
<polygon fill="green" stroke="green" stroke-width="0.589608" points="2384.74,-198.946 2381.24,-188.946 2377.74,-198.946 2384.74,-198.946"/>
</g>
<!-- enemyRadar[LeftFront30] -->
<g id="node14" class="node"><title>enemyRadar[LeftFront30]</title>
<polygon fill="lightgray" stroke="black" points="2002.24,-176.522 1892.24,-176.522 1892.24,-158.522 2002.24,-158.522 2002.24,-176.522"/>
<text text-anchor="middle" x="1947.24" y="-165.322" font-family="Times,serif" font-size="9.00">enemyRadar[LeftFront30]</text>
</g>
<!-- enemyRadar[LeftFront30]&#45;&gt;Shoot -->
<g id="edge23" class="edge"><title>enemyRadar[LeftFront30]&#45;&gt;Shoot</title>
<path fill="none" stroke="red" stroke-width="0.47152" stroke-dasharray="1,5" d="M1925.93,-158.42C1913.64,-154.092 1897.77,-149.096 1883.24,-146.309 1667.91,-105.013 1608.99,-135.879 1391.24,-110.309 1282.31,-97.5181 1154.62,-74.5806 1093.47,-63.0994"/>
<polygon fill="red" stroke="red" stroke-width="0.47152" points="1094.01,-59.6409 1083.54,-61.2259 1092.72,-66.5195 1094.01,-59.6409"/>
</g>
<!-- enemyRadar[LeftFront30]&#45;&gt;Move Forward -->
<g id="edge21" class="edge"><title>enemyRadar[LeftFront30]&#45;&gt;Move Forward</title>
<path fill="none" stroke="green" stroke-width="0.32613" stroke-dasharray="1,5" d="M1966.36,-158.406C2004.96,-142.02 2093.49,-104.438 2151.8,-79.6884"/>
<polygon fill="green" stroke="green" stroke-width="0.32613" points="2153.4,-82.8093 2161.24,-75.6801 2150.67,-76.3658 2153.4,-82.8093"/>
</g>
<!-- enemyRadar[LeftFront30]&#45;&gt; Move Backward -->
<g id="edge10" class="edge"><title>enemyRadar[LeftFront30]&#45;&gt; Move Backward</title>
<path fill="none" stroke="green" stroke-width="0.275877" d="M1924.01,-158.504C1911.94,-154.512 1896.9,-149.805 1883.24,-146.309 1803.36,-125.861 1778.5,-139.1 1701.24,-110.309 1687.65,-105.246 1673.71,-98.3837 1660.85,-91.2466"/>
<polygon fill="green" stroke="green" stroke-width="0.275877" points="1662.55,-88.1882 1652.13,-86.2804 1659.09,-94.2708 1662.55,-88.1882"/>
</g>
<!-- enemyRadar[LeftFront30]&#45;&gt;Move right -->
<g id="edge9" class="edge"><title>enemyRadar[LeftFront30]&#45;&gt;Move right</title>
<path fill="none" stroke="green" stroke-width="0.242406" d="M1932.75,-158.406C1903.74,-142.152 1837.51,-105.046 1793.32,-80.2929"/>
<polygon fill="green" stroke="green" stroke-width="0.242406" points="1794.96,-77.1978 1784.52,-75.3636 1791.54,-83.3048 1794.96,-77.1978"/>
</g>
<!-- enemyRadar[LeftFront30]&#45;&gt;Turn Left -->
<g id="edge19" class="edge"><title>enemyRadar[LeftFront30]&#45;&gt;Turn Left</title>
<path fill="none" stroke="red" stroke-width="0.129487" d="M1925.61,-158.497C1913.34,-154.249 1897.61,-149.305 1883.24,-146.309 1734.05,-115.203 1688.41,-153.428 1542.24,-110.309 1518.34,-103.259 1493.4,-90.9662 1473.62,-79.8728"/>
<polygon fill="red" stroke="red" stroke-width="0.129487" points="1475.33,-76.8199 1464.92,-74.8833 1471.85,-82.893 1475.33,-76.8199"/>
</g>
<!-- enemyRadar[RightFront10] -->
<g id="node15" class="node"><title>enemyRadar[RightFront10]</title>
<polygon fill="lightgray" stroke="black" points="753.737,-321.161 638.737,-321.161 638.737,-303.161 753.737,-303.161 753.737,-321.161"/>
<text text-anchor="middle" x="696.237" y="-309.961" font-family="Times,serif" font-size="9.00">enemyRadar[RightFront10]</text>
</g>
<!-- enemyRadar[RightFront10]&#45;&gt;Shoot -->
<g id="edge14" class="edge"><title>enemyRadar[RightFront10]&#45;&gt;Shoot</title>
<path fill="none" stroke="red" stroke-width="0.173715" d="M726.651,-303.071C751.298,-295.767 786.386,-283.635 814.237,-267.161 860.193,-239.981 867.125,-226.127 905.237,-188.735 923.307,-171.007 924.798,-163.651 943.237,-146.309 970.248,-120.905 1003.81,-94.9589 1027.51,-77.4644"/>
<polygon fill="red" stroke="red" stroke-width="0.173715" points="1029.76,-80.1516 1035.76,-71.4181 1025.63,-74.505 1029.76,-80.1516"/>
</g>
<!-- enemyRadar[RightFront10]&#45;&gt;Move Forward -->
<g id="edge71" class="edge"><title>enemyRadar[RightFront10]&#45;&gt;Move Forward</title>
<path fill="none" stroke="red" stroke-width="0.556601" d="M753.798,-303.843C756.649,-303.588 759.474,-303.358 762.237,-303.161 855.689,-296.516 2366.37,-312.716 2448.24,-267.161 2499.18,-238.814 2533.85,-193.221 2499.24,-146.309 2471.5,-108.719 2343.76,-80.1853 2266.72,-66.0348"/>
<polygon fill="red" stroke="red" stroke-width="0.556601" points="2267.12,-62.5516 2256.66,-64.2163 2265.88,-69.4399 2267.12,-62.5516"/>
</g>
<!-- enemyRadar[RightFront10]&#45;&gt;Move Left -->
<g id="edge62" class="edge"><title>enemyRadar[RightFront10]&#45;&gt;Move Left</title>
<path fill="none" stroke="red" stroke-width="0.25977" d="M671.195,-303.135C629.477,-288.241 547.005,-251.953 513.237,-188.735 483.352,-132.786 569.996,-91.1492 627.196,-70.5573"/>
<polygon fill="red" stroke="red" stroke-width="0.25977" points="628.517,-73.8032 636.8,-67.1961 626.205,-67.1962 628.517,-73.8032"/>
</g>
<!-- enemyRadar[RightFront10]&#45;&gt;Turn Left -->
<g id="edge69" class="edge"><title>enemyRadar[RightFront10]&#45;&gt;Turn Left</title>
<path fill="none" stroke="green" stroke-width="0.398299" d="M754.075,-303.662C949.481,-278.262 1573.37,-196.617 1580.24,-188.735 1592.62,-174.517 1589.4,-162.79 1580.24,-146.309 1568.67,-125.5 1514.54,-95.3121 1475.8,-75.7065"/>
<polygon fill="green" stroke="green" stroke-width="0.398299" points="1477.32,-72.5535 1466.82,-71.2055 1474.19,-78.8126 1477.32,-72.5535"/>
</g>
<!-- enemyRadar[RightFront10]&#45;&gt;Turn Right -->
<g id="edge15" class="edge"><title>enemyRadar[RightFront10]&#45;&gt;Turn Right</title>
<path fill="none" stroke="red" stroke-width="0.69475" stroke-dasharray="1,5" d="M638.527,-310.119C491.655,-307.05 111.843,-296.355 63.2373,-267.161 13.5511,-237.319 -20.0362,-193.049 14.2373,-146.309 42.464,-107.815 176.999,-78.21 251.06,-64.5107"/>
<polygon fill="red" stroke="red" stroke-width="0.69475" points="251.88,-67.9189 261.091,-62.6839 250.626,-61.0321 251.88,-67.9189"/>
</g>
<!-- 220 -->
<g id="node33" class="node"><title>220</title>
<ellipse fill="white" stroke="black" cx="93.2373" cy="-245.948" rx="21.4286" ry="21.4286"/>
<text text-anchor="middle" x="93.2373" y="-243.748" font-family="Times,serif" font-size="9.00">220</text>
</g>
<!-- enemyRadar[RightFront10]&#45;&gt;220 -->
<g id="edge76" class="edge"><title>enemyRadar[RightFront10]&#45;&gt;220</title>
<path fill="none" stroke="green" stroke-width="0.530203" d="M638.692,-305.034C513.561,-291.708 220.249,-260.474 124.251,-250.251"/>
<polygon fill="green" stroke="green" stroke-width="0.530203" points="124.62,-246.771 114.306,-249.192 123.879,-253.731 124.62,-246.771"/>
</g>
<!-- enemyRadar[LeftFront10] -->
<g id="node16" class="node"><title>enemyRadar[LeftFront10]</title>
<polygon fill="lightgray" stroke="black" points="2130.24,-176.522 2020.24,-176.522 2020.24,-158.522 2130.24,-158.522 2130.24,-176.522"/>
<text text-anchor="middle" x="2075.24" y="-165.322" font-family="Times,serif" font-size="9.00">enemyRadar[LeftFront10]</text>
</g>
<!-- enemyRadar[LeftFront10]&#45;&gt;Move Forward -->
<g id="edge45" class="edge"><title>enemyRadar[LeftFront10]&#45;&gt;Move Forward</title>
<path fill="none" stroke="red" stroke-width="0.320332" d="M2085.16,-158.226C2101.15,-144.858 2133.6,-117.724 2161.03,-94.7919"/>
<polygon fill="red" stroke="red" stroke-width="0.320332" points="2163.55,-97.2405 2168.98,-88.1409 2159.06,-91.8702 2163.55,-97.2405"/>
</g>
<!-- enemyRadar[LeftFront10]&#45;&gt; Move Backward -->
<g id="edge37" class="edge"><title>enemyRadar[LeftFront10]&#45;&gt; Move Backward</title>
<path fill="none" stroke="green" stroke-width="0.690323" stroke-dasharray="1,5" d="M2053.3,-158.454C2041.07,-154.246 2025.48,-149.356 2011.24,-146.309 1875.6,-117.291 1833.04,-153.526 1701.24,-110.309 1687.46,-105.791 1673.45,-99.1487 1660.57,-92.0518"/>
<polygon fill="green" stroke="green" stroke-width="0.690323" points="1662.27,-88.9933 1651.85,-87.0864 1658.8,-95.0762 1662.27,-88.9933"/>
</g>
<!-- enemyRadar[LeftFront10]&#45;&gt;Move right -->
<g id="edge72" class="edge"><title>enemyRadar[LeftFront10]&#45;&gt;Move right</title>
<path fill="none" stroke="green" stroke-width="0.177245" stroke-dasharray="1,5" d="M2051.6,-158.496C1998.24,-140.374 1867.6,-96.0108 1797.13,-72.0788"/>
<polygon fill="green" stroke="green" stroke-width="0.177245" points="1798.19,-68.7439 1787.6,-68.8423 1795.94,-75.3721 1798.19,-68.7439"/>
</g>
<!-- enemyRadar[LeftFront10]&#45;&gt;Turn Left -->
<g id="edge74" class="edge"><title>enemyRadar[LeftFront10]&#45;&gt;Turn Left</title>
<path fill="none" stroke="red" stroke-width="0.291076" d="M2053.93,-158.44C2041.63,-154.118 2025.77,-149.122 2011.24,-146.309 1805.99,-106.567 1743.58,-166.588 1542.24,-110.309 1518.24,-103.601 1493.3,-91.3306 1473.54,-80.1638"/>
<polygon fill="red" stroke="red" stroke-width="0.291076" points="1475.25,-77.1129 1464.84,-75.1348 1471.75,-83.172 1475.25,-77.1129"/>
</g>
<!-- enemyRadar[RightFront3.5] -->
<g id="node17" class="node"><title>enemyRadar[RightFront3.5]</title>
<polygon fill="lightgray" stroke="black" points="2265.74,-176.522 2148.74,-176.522 2148.74,-158.522 2265.74,-158.522 2265.74,-176.522"/>
<text text-anchor="middle" x="2207.24" y="-165.322" font-family="Times,serif" font-size="9.00">enemyRadar[RightFront3.5]</text>
</g>
<!-- enemyRadar[RightFront3.5]&#45;&gt;Move Forward -->
<g id="edge47" class="edge"><title>enemyRadar[RightFront3.5]&#45;&gt;Move Forward</title>
<path fill="none" stroke="red" stroke-width="0.314253" d="M2207.24,-158.226C2207.24,-148.844 2207.24,-132.682 2207.24,-115.951"/>
<polygon fill="red" stroke="red" stroke-width="0.314253" points="2210.74,-115.515 2207.24,-105.515 2203.74,-115.515 2210.74,-115.515"/>
</g>
<!-- enemyRadar[RightFront3.5]&#45;&gt;Move right -->
<g id="edge12" class="edge"><title>enemyRadar[RightFront3.5]&#45;&gt;Move right</title>
<path fill="none" stroke="green" stroke-width="0.397367" d="M2181.51,-158.47C2168.83,-154.606 2153.29,-150.021 2139.24,-146.309 2017.45,-114.128 1872.57,-82.211 1798.74,-66.3957"/>
<polygon fill="green" stroke="green" stroke-width="0.397367" points="1799.31,-62.9393 1788.8,-64.2726 1797.85,-69.7848 1799.31,-62.9393"/>
</g>
<!-- enemyRadar[RightFront3.5]&#45;&gt;Turn Left -->
<g id="edge8" class="edge"><title>enemyRadar[RightFront3.5]&#45;&gt;Turn Left</title>
<path fill="none" stroke="green" stroke-width="0.732443" d="M2184.88,-158.469C2171.76,-154.1 2154.76,-149.047 2139.24,-146.309 1877.46,-100.138 1798.82,-179.769 1542.24,-110.309 1518.19,-103.798 1493.24,-91.5402 1473.49,-80.3312"/>
<polygon fill="green" stroke="green" stroke-width="0.732443" points="1475.21,-77.2812 1464.8,-75.2794 1471.69,-83.3323 1475.21,-77.2812"/>
</g>
<!-- enemyRadar[LeftFront3.5] -->
<g id="node18" class="node"><title>enemyRadar[LeftFront3.5]</title>
<polygon fill="lightgray" stroke="black" points="1262.24,-176.522 1150.24,-176.522 1150.24,-158.522 1262.24,-158.522 1262.24,-176.522"/>
<text text-anchor="middle" x="1206.24" y="-165.322" font-family="Times,serif" font-size="9.00">enemyRadar[LeftFront3.5]</text>
</g>
<!-- enemyRadar[LeftFront3.5]&#45;&gt;Shoot -->
<g id="edge70" class="edge"><title>enemyRadar[LeftFront3.5]&#45;&gt;Shoot</title>
<path fill="none" stroke="green" stroke-width="0.36917" d="M1195.04,-158.226C1172.3,-141.383 1120.07,-102.693 1086.84,-78.08"/>
<polygon fill="green" stroke="green" stroke-width="0.36917" points="1088.54,-74.9843 1078.42,-71.8446 1084.37,-80.6093 1088.54,-74.9843"/>
</g>
<!-- enemyRadar[LeftFront3.5]&#45;&gt;Move Forward -->
<g id="edge55" class="edge"><title>enemyRadar[LeftFront3.5]&#45;&gt;Move Forward</title>
<path fill="none" stroke="green" stroke-width="0.414995" d="M1227.59,-158.5C1240.12,-154.141 1256.37,-149.088 1271.24,-146.309 1502.44,-103.092 1565.2,-133.795 1799.24,-110.309 1923.41,-97.8471 2068.06,-77.1819 2147.45,-65.3077"/>
<polygon fill="green" stroke="green" stroke-width="0.414995" points="2148.37,-68.7088 2157.74,-63.7631 2147.33,-61.7864 2148.37,-68.7088"/>
</g>
<!-- enemyRadar[LeftFront3.5]&#45;&gt;Move Left -->
<g id="edge38" class="edge"><title>enemyRadar[LeftFront3.5]&#45;&gt;Move Left</title>
<path fill="none" stroke="red" stroke-width="0.215888" d="M1182.64,-158.491C1170.39,-154.496 1155.11,-149.79 1141.24,-146.309 989.273,-108.169 806.072,-77.127 720.982,-63.549"/>
<polygon fill="red" stroke="red" stroke-width="0.215888" points="721.281,-60.0528 710.856,-61.942 720.184,-66.9663 721.281,-60.0528"/>
</g>
<!-- enemyRadar[RightFront1.5] -->
<g id="node19" class="node"><title>enemyRadar[RightFront1.5]</title>
<polygon fill="lightgray" stroke="black" points="888.737,-321.161 771.737,-321.161 771.737,-303.161 888.737,-303.161 888.737,-321.161"/>
<text text-anchor="middle" x="830.237" y="-309.961" font-family="Times,serif" font-size="9.00">enemyRadar[RightFront1.5]</text>
</g>
<!-- enemyRadar[LeftFront1.5] -->
<g id="node20" class="node"><title>enemyRadar[LeftFront1.5]</title>
<polygon fill="lightgray" stroke="black" points="1064.24,-176.522 952.237,-176.522 952.237,-158.522 1064.24,-158.522 1064.24,-176.522"/>
<text text-anchor="middle" x="1008.24" y="-165.322" font-family="Times,serif" font-size="9.00">enemyRadar[LeftFront1.5]</text>
</g>
<!-- enemyRadar[LeftFront1.5]&#45;&gt;Shoot -->
<g id="edge73" class="edge"><title>enemyRadar[LeftFront1.5]&#45;&gt;Shoot</title>
<path fill="none" stroke="green" stroke-width="0.21409" d="M1011.92,-158.226C1018.3,-143.863 1031.73,-113.609 1042.32,-89.7488"/>
<polygon fill="green" stroke="green" stroke-width="0.21409" points="1045.65,-90.8688 1046.51,-80.3089 1039.26,-88.0283 1045.65,-90.8688"/>
</g>
<!-- enemyRadar[LeftFront1.5]&#45;&gt; Move Backward -->
<g id="edge61" class="edge"><title>enemyRadar[LeftFront1.5]&#45;&gt; Move Backward</title>
<path fill="none" stroke="green" stroke-width="0.288682" d="M1029.9,-158.512C1042.4,-154.214 1058.51,-149.216 1073.24,-146.309 1250.96,-111.213 1303.53,-154.381 1479.24,-110.309 1502.53,-104.467 1527.04,-94.9048 1548.25,-85.4283"/>
<polygon fill="green" stroke="green" stroke-width="0.288682" points="1549.78,-88.5737 1557.43,-81.2392 1546.88,-82.2049 1549.78,-88.5737"/>
</g>
<!-- enemyRadar[LeftFront1.5]&#45;&gt;Move Left -->
<g id="edge57" class="edge"><title>enemyRadar[LeftFront1.5]&#45;&gt;Move Left</title>
<path fill="none" stroke="green" stroke-width="0.267669" d="M983.875,-158.496C928.224,-140.161 791.035,-94.9633 719.035,-71.2427"/>
<polygon fill="green" stroke="green" stroke-width="0.267669" points="719.917,-67.8481 709.324,-68.0432 717.726,-74.4966 719.917,-67.8481"/>
</g>
<!-- enemyRadar[LeftFront1.5]&#45;&gt;Move right -->
<g id="edge5" class="edge"><title>enemyRadar[LeftFront1.5]&#45;&gt;Move right</title>
<path fill="none" stroke="green" stroke-width="1.25965" stroke-dasharray="1,5" d="M1029.58,-158.456C1042.11,-154.083 1058.36,-149.03 1073.24,-146.309 1203.98,-122.402 1544.4,-153.081 1670.24,-110.309 1685.07,-105.265 1699.74,-96.6892 1712.38,-87.8311"/>
<polygon fill="green" stroke="green" stroke-width="1.25965" points="1714.77,-90.4174 1720.78,-81.6933 1710.64,-84.7642 1714.77,-90.4174"/>
</g>
<!-- enemyRadar[LeftFront1.5]&#45;&gt;Turn Left -->
<g id="edge11" class="edge"><title>enemyRadar[LeftFront1.5]&#45;&gt;Turn Left</title>
<path fill="none" stroke="red" stroke-width="0.695042" d="M1032.83,-158.509C1044.95,-154.654 1059.81,-150.066 1073.24,-146.309 1187,-114.484 1322.41,-82.245 1390.87,-66.3361"/>
<polygon fill="red" stroke="red" stroke-width="0.695042" points="1391.93,-69.6852 1400.88,-64.0175 1390.34,-62.866 1391.93,-69.6852"/>
</g>
<!-- enemyRadar[LeftFront1.5]&#45;&gt;Turn Right -->
<g id="edge28" class="edge"><title>enemyRadar[LeftFront1.5]&#45;&gt;Turn Right</title>
<path fill="none" stroke="red" stroke-width="0.213478" d="M970.191,-158.438C950.803,-154.476 926.822,-149.815 905.237,-146.309 781.827,-126.26 749.927,-128.556 626.237,-110.309 527.847,-95.7936 413.226,-76.1049 349.47,-64.9048"/>
<polygon fill="red" stroke="red" stroke-width="0.213478" points="349.762,-61.4024 339.307,-63.1155 348.548,-68.2964 349.762,-61.4024"/>
</g>
<!-- OnTarget -->
<g id="node21" class="node"><title>OnTarget</title>
<polygon fill="lightgray" stroke="black" points="1132.24,-176.522 1082.24,-176.522 1082.24,-158.522 1132.24,-158.522 1132.24,-176.522"/>
<text text-anchor="middle" x="1107.24" y="-165.322" font-family="Times,serif" font-size="9.00">OnTarget</text>
</g>
<!-- OnTarget&#45;&gt;Shoot -->
<g id="edge4" class="edge"><title>OnTarget&#45;&gt;Shoot</title>
<path fill="none" stroke="red" stroke-width="0.130278" d="M1103.48,-158.226C1096.9,-143.71 1082.97,-112.966 1072.11,-88.9918"/>
<polygon fill="red" stroke="red" stroke-width="0.130278" points="1075.29,-87.5209 1067.98,-79.8563 1068.91,-90.4095 1075.29,-87.5209"/>
</g>
<!-- OnTarget&#45;&gt; Move Backward -->
<g id="edge56" class="edge"><title>OnTarget&#45;&gt; Move Backward</title>
<path fill="none" stroke="red" stroke-width="0.497032" d="M1117.98,-158.497C1124.4,-154.137 1132.9,-149.084 1141.24,-146.309 1284.58,-98.6088 1333.03,-148.356 1479.24,-110.309 1502.47,-104.261 1526.97,-94.6545 1548.19,-85.1998"/>
<polygon fill="red" stroke="red" stroke-width="0.497032" points="1549.72,-88.3484 1557.37,-81.0245 1546.82,-81.9756 1549.72,-88.3484"/>
</g>
<!-- OnTarget&#45;&gt;Move Left -->
<g id="edge18" class="edge"><title>OnTarget&#45;&gt;Move Left</title>
<path fill="none" stroke="red" stroke-width="0.467716" d="M1095.75,-158.455C1089.37,-154.3 1081.15,-149.459 1073.24,-146.309 951.49,-97.8188 797.996,-72.4476 721.37,-62.0203"/>
<polygon fill="red" stroke="red" stroke-width="0.467716" points="721.455,-58.5006 711.08,-60.6473 720.529,-65.4391 721.455,-58.5006"/>
</g>
<!-- OnTarget&#45;&gt;Move right -->
<g id="edge68" class="edge"><title>OnTarget&#45;&gt;Move right</title>
<path fill="none" stroke="red" stroke-width="0.736482" d="M1117.94,-158.377C1124.35,-153.978 1132.85,-148.924 1141.24,-146.309 1366.22,-76.182 1447.41,-187.008 1670.24,-110.309 1685.06,-105.208 1699.71,-96.6166 1712.36,-87.7618"/>
<polygon fill="red" stroke="red" stroke-width="0.736482" points="1714.75,-90.3503 1720.76,-81.6292 1710.62,-84.6951 1714.75,-90.3503"/>
</g>
<!-- OnTarget&#45;&gt;Turn Left -->
<g id="edge75" class="edge"><title>OnTarget&#45;&gt;Turn Left</title>
<path fill="none" stroke="red" stroke-width="0.313688" stroke-dasharray="1,5" d="M1119.14,-158.494C1125.5,-154.451 1133.58,-149.702 1141.24,-146.309 1226.43,-108.576 1332.1,-80.3905 1390.74,-66.2717"/>
<polygon fill="red" stroke="red" stroke-width="0.313688" points="1391.86,-69.6026 1400.78,-63.8816 1390.24,-62.793 1391.86,-69.6026"/>
</g>
<!-- OnTarget&#45;&gt;Turn Right -->
<g id="edge63" class="edge"><title>OnTarget&#45;&gt;Turn Right</title>
<path fill="none" stroke="red" stroke-width="0.126533" d="M1096.52,-158.416C1090.11,-154.03 1081.61,-148.976 1073.24,-146.309 883.329,-85.8175 824.054,-134.661 626.237,-110.309 527.527,-98.1569 413.019,-77.6309 349.37,-65.6438"/>
<polygon fill="red" stroke="red" stroke-width="0.126533" points="349.701,-62.1443 339.224,-63.7241 348.399,-69.0223 349.701,-62.1443"/>
</g>
<!-- bias -->
<g id="node22" class="node"><title>bias</title>
<polygon fill="lightgray" stroke="black" points="2489.74,-176.522 2458.74,-176.522 2458.74,-158.522 2489.74,-158.522 2489.74,-176.522"/>
<text text-anchor="middle" x="2474.24" y="-165.322" font-family="Times,serif" font-size="9.00">bias</text>
</g>
<!-- bias&#45;&gt;Move Forward -->
<g id="edge46" class="edge"><title>bias&#45;&gt;Move Forward</title>
<path fill="none" stroke="red" stroke-width="0.204018" stroke-dasharray="1,5" d="M2463.5,-158.405C2457.94,-154.435 2450.93,-149.777 2444.24,-146.309 2385.55,-115.89 2314.17,-90.1388 2265.18,-74.045"/>
<polygon fill="red" stroke="red" stroke-width="0.204018" points="2265.98,-70.6237 2255.39,-70.8578 2263.81,-77.2802 2265.98,-70.6237"/>
</g>
<!-- 385&#45;&gt;Move Forward -->
<g id="edge79" class="edge"><title>385&#45;&gt;Move Forward</title>
<path fill="none" stroke="red" stroke-width="0.478301" d="M2363.6,-155.332C2339.06,-139.772 2293.65,-110.968 2258.07,-88.3957"/>
<polygon fill="red" stroke="red" stroke-width="0.478301" points="2259.57,-85.2038 2249.25,-82.8031 2255.82,-91.115 2259.57,-85.2038"/>
</g>
<!-- 406&#45;&gt;Shoot -->
<g id="edge81" class="edge"><title>406&#45;&gt;Shoot</title>
<path fill="none" stroke="red" stroke-width="0.370669" d="M803.947,-154.262C808.168,-151.449 812.772,-148.611 817.237,-146.309 886.854,-110.408 974.172,-81.2622 1021.96,-66.5497"/>
<polygon fill="red" stroke="red" stroke-width="0.370669" points="1022.99,-69.8947 1031.53,-63.632 1020.95,-63.1986 1022.99,-69.8947"/>
</g>
<!-- 536 -->
<g id="node32" class="node"><title>536</title>
<ellipse fill="white" stroke="black" cx="44.2373" cy="-167.522" rx="21.4286" ry="21.4286"/>
<text text-anchor="middle" x="44.2373" y="-165.322" font-family="Times,serif" font-size="9.00">536</text>
</g>
<!-- 536&#45;&gt;Turn Right -->
<g id="edge83" class="edge"><title>536&#45;&gt;Turn Right</title>
<path fill="none" stroke="red" stroke-width="0.50848" d="M62.1475,-155.551C67.5565,-152.41 73.566,-149.087 79.2373,-146.309 138,-117.521 208.358,-89.9448 253.647,-73.0391"/>
<polygon fill="red" stroke="red" stroke-width="0.50848" points="255.041,-76.2554 263.197,-69.4938 252.604,-69.693 255.041,-76.2554"/>
</g>
<!-- 220&#45;&gt;Turn Right -->
<g id="edge77" class="edge"><title>220&#45;&gt;Turn Right</title>
<path fill="none" stroke="red" stroke-width="0.27913" stroke-dasharray="1,5" d="M93.3025,-224.624C94.3915,-202.998 99.1557,-168.859 117.237,-146.309 151.184,-103.973 210.048,-80.0195 251.843,-67.6096"/>
<polygon fill="red" stroke="red" stroke-width="0.27913" points="252.887,-70.9515 261.544,-64.844 250.968,-64.2197 252.887,-70.9515"/>
</g>
<!-- 220&#45;&gt;536 -->
<g id="edge82" class="edge"><title>220&#45;&gt;536</title>
<path fill="none" stroke="green" stroke-width="0.296413" d="M82.1184,-227.606C75.8535,-217.834 67.9046,-205.436 60.9077,-194.523"/>
<polygon fill="green" stroke="green" stroke-width="0.296413" points="63.656,-192.325 55.3121,-185.796 57.7631,-196.103 63.656,-192.325"/>
</g>
</g>
</svg>
