<?xml version="1.0" encoding="UTF-8" standalone="no"?>
<!DOCTYPE svg PUBLIC "-//W3C//DTD SVG 1.1//EN"
 "http://www.w3.org/Graphics/SVG/1.1/DTD/svg11.dtd">
<!-- Generated by graphviz version 2.38.0 (20140413.2041)
 -->
<!-- Title: %3 Pages: 1 -->
<svg width="2559pt" height="216pt"
 viewBox="0.00 0.00 2558.50 216.15" xmlns="http://www.w3.org/2000/svg" xmlns:xlink="http://www.w3.org/1999/xlink">
<g id="graph0" class="graph" transform="scale(1 1) rotate(0) translate(4 212.149)">
<title>%3</title>
<polygon fill="white" stroke="none" points="-4,4 -4,-212.149 2554.5,-212.149 2554.5,4 -4,4"/>
<!-- wallRadar[1,0] -->
<g id="node1" class="node"><title>wallRadar[1,0]</title>
<polygon fill="lightgray" stroke="black" points="1866.5,-208.149 1796.5,-208.149 1796.5,-190.149 1866.5,-190.149 1866.5,-208.149"/>
<text text-anchor="middle" x="1831.5" y="-196.949" font-family="Times,serif" font-size="9.00">wallRadar[1,0]</text>
</g>
<!-- Shoot -->
<g id="node24" class="node"><title>Shoot</title>
<ellipse fill="lightblue" stroke="black" cx="997.5" cy="-77.0746" rx="26.7407" ry="26.7407"/>
<text text-anchor="middle" x="997.5" y="-74.8746" font-family="Times,serif" font-size="9.00">Shoot</text>
</g>
<!-- wallRadar[1,0]&#45;&gt;Shoot -->
<g id="edge24" class="edge"><title>wallRadar[1,0]&#45;&gt;Shoot</title>
<path fill="none" stroke="green" stroke-width="0.294305" d="M1796.46,-191.651C1793.43,-191.128 1790.41,-190.62 1787.5,-190.149 1498.04,-143.321 1147.16,-97.31 1034.32,-82.7798"/>
<polygon fill="green" stroke="green" stroke-width="0.294305" points="1034.52,-79.2765 1024.15,-81.473 1033.63,-86.2194 1034.52,-79.2765"/>
</g>
<!-- Move Forward/Backward -->
<g id="node25" class="node"><title>Move Forward/Backward</title>
<ellipse fill="lightblue" stroke="black" cx="1657.5" cy="-77.0746" rx="77.1494" ry="77.1494"/>
<text text-anchor="middle" x="1657.5" y="-74.8746" font-family="Times,serif" font-size="9.00">Move Forward/Backward</text>
</g>
<!-- wallRadar[1,0]&#45;&gt;Move Forward/Backward -->
<g id="edge23" class="edge"><title>wallRadar[1,0]&#45;&gt;Move Forward/Backward</title>
<path fill="none" stroke="red" stroke-width="0.373049" d="M1819.81,-190.084C1801.27,-177.287 1763.68,-151.347 1729.34,-127.651"/>
<polygon fill="red" stroke="red" stroke-width="0.373049" points="1730.91,-124.483 1720.69,-121.684 1726.94,-130.245 1730.91,-124.483"/>
</g>
<!--  Move Left/Right -->
<g id="node26" class="node"><title> Move Left/Right</title>
<ellipse fill="lightblue" stroke="black" cx="1876.5" cy="-77.0746" rx="55.3091" ry="55.3091"/>
<text text-anchor="middle" x="1876.5" y="-74.8746" font-family="Times,serif" font-size="9.00"> Move Left/Right</text>
</g>
<!-- wallRadar[1,0]&#45;&gt; Move Left/Right -->
<g id="edge36" class="edge"><title>wallRadar[1,0]&#45;&gt; Move Left/Right</title>
<path fill="none" stroke="green" stroke-width="0.31887" d="M1834.59,-189.896C1838.67,-179.01 1846.23,-158.853 1853.81,-138.62"/>
<polygon fill="green" stroke="green" stroke-width="0.31887" points="1857.17,-139.63 1857.4,-129.038 1850.61,-137.174 1857.17,-139.63"/>
</g>
<!-- wallRadar[0,1] -->
<g id="node2" class="node"><title>wallRadar[0,1]</title>
<polygon fill="lightgray" stroke="black" points="343.5,-208.149 273.5,-208.149 273.5,-190.149 343.5,-190.149 343.5,-208.149"/>
<text text-anchor="middle" x="308.5" y="-196.949" font-family="Times,serif" font-size="9.00">wallRadar[0,1]</text>
</g>
<!-- wallRadar[0,1]&#45;&gt;Shoot -->
<g id="edge47" class="edge"><title>wallRadar[0,1]&#45;&gt;Shoot</title>
<path fill="none" stroke="green" stroke-width="0.221453" d="M343.518,-191.48C346.55,-190.994 349.576,-190.542 352.5,-190.149 534.673,-165.683 584.405,-190.914 764.5,-154.149 836.984,-139.352 918.476,-109.568 963.312,-91.9769"/>
<polygon fill="green" stroke="green" stroke-width="0.221453" points="964.827,-95.1416 972.836,-88.2065 962.25,-88.6331 964.827,-95.1416"/>
</g>
<!-- Turn left/right -->
<g id="node27" class="node"><title>Turn left/right</title>
<ellipse fill="lightblue" stroke="black" cx="708.5" cy="-77.0746" rx="46.8387" ry="46.8387"/>
<text text-anchor="middle" x="708.5" y="-74.8746" font-family="Times,serif" font-size="9.00">Turn left/right</text>
</g>
<!-- wallRadar[0,1]&#45;&gt;Turn left/right -->
<g id="edge31" class="edge"><title>wallRadar[0,1]&#45;&gt;Turn left/right</title>
<path fill="none" stroke="green" stroke-width="0.403228" d="M335.366,-190.084C400.387,-170.566 567.251,-120.476 654.113,-94.4009"/>
<polygon fill="green" stroke="green" stroke-width="0.403228" points="655.218,-97.7237 663.789,-91.4963 653.205,-91.0192 655.218,-97.7237"/>
</g>
<!-- wallRadar[&#45;1,0] -->
<g id="node3" class="node"><title>wallRadar[&#45;1,0]</title>
<polygon fill="lightgray" stroke="black" points="1958,-208.149 1885,-208.149 1885,-190.149 1958,-190.149 1958,-208.149"/>
<text text-anchor="middle" x="1921.5" y="-196.949" font-family="Times,serif" font-size="9.00">wallRadar[&#45;1,0]</text>
</g>
<!-- wallRadar[&#45;1,0]&#45;&gt;Shoot -->
<g id="edge42" class="edge"><title>wallRadar[&#45;1,0]&#45;&gt;Shoot</title>
<path fill="none" stroke="red" stroke-width="0.243062" d="M1884.87,-191.594C1881.7,-191.084 1878.55,-190.594 1875.5,-190.149 1740.87,-170.486 1706.5,-171.088 1571.5,-154.149 1368.34,-128.658 1125.09,-95.5718 1034.16,-83.1134"/>
<polygon fill="red" stroke="red" stroke-width="0.243062" points="1034.47,-79.6233 1024.09,-81.7324 1033.52,-86.5584 1034.47,-79.6233"/>
</g>
<!-- wallRadar[&#45;1,0]&#45;&gt;Move Forward/Backward -->
<g id="edge10" class="edge"><title>wallRadar[&#45;1,0]&#45;&gt;Move Forward/Backward</title>
<path fill="none" stroke="green" stroke-width="0.123365" d="M1900,-190.003C1877.88,-181.495 1842.5,-167.545 1812.5,-154.149 1787.14,-142.824 1759.83,-129.73 1735.3,-117.632"/>
<polygon fill="green" stroke="green" stroke-width="0.123365" points="1736.57,-114.352 1726.05,-113.05 1733.46,-120.624 1736.57,-114.352"/>
</g>
<!-- wallRadar[&#45;1,0]&#45;&gt; Move Left/Right -->
<g id="edge11" class="edge"><title>wallRadar[&#45;1,0]&#45;&gt; Move Left/Right</title>
<path fill="none" stroke="green" stroke-width="0.183873" d="M1918.41,-189.896C1914.33,-179.01 1906.77,-158.853 1899.19,-138.62"/>
<polygon fill="green" stroke="green" stroke-width="0.183873" points="1902.39,-137.174 1895.6,-129.038 1895.83,-139.63 1902.39,-137.174"/>
</g>
<!-- wallRadar[0,&#45;1] -->
<g id="node4" class="node"><title>wallRadar[0,&#45;1]</title>
<polygon fill="lightgray" stroke="black" points="2154,-208.149 2081,-208.149 2081,-190.149 2154,-190.149 2154,-208.149"/>
<text text-anchor="middle" x="2117.5" y="-196.949" font-family="Times,serif" font-size="9.00">wallRadar[0,&#45;1]</text>
</g>
<!-- wallRadar[0,&#45;1]&#45;&gt;Move Forward/Backward -->
<g id="edge27" class="edge"><title>wallRadar[0,&#45;1]&#45;&gt;Move Forward/Backward</title>
<path fill="none" stroke="green" stroke-width="0.36374" d="M2080.86,-191.661C2077.7,-191.136 2074.54,-190.625 2071.5,-190.149 1956.68,-172.19 1923.62,-188.182 1812.5,-154.149 1785.57,-145.901 1757.53,-133.46 1732.82,-121.014"/>
<polygon fill="green" stroke="green" stroke-width="0.36374" points="1734.37,-117.876 1723.87,-116.436 1731.18,-124.108 1734.37,-117.876"/>
</g>
<!-- wallRadar[0,&#45;1]&#45;&gt; Move Left/Right -->
<g id="edge7" class="edge"><title>wallRadar[0,&#45;1]&#45;&gt; Move Left/Right</title>
<path fill="none" stroke="green" stroke-width="0.620335" d="M2101.31,-190.084C2067.89,-173.433 1989.81,-134.529 1935.1,-107.27"/>
<polygon fill="green" stroke="green" stroke-width="0.620335" points="1936.36,-103.99 1925.85,-102.663 1933.24,-110.255 1936.36,-103.99"/>
</g>
<!-- wallRadar[0.7,0.7] -->
<g id="node5" class="node"><title>wallRadar[0.7,0.7]</title>
<polygon fill="lightgray" stroke="black" points="445,-208.149 362,-208.149 362,-190.149 445,-190.149 445,-208.149"/>
<text text-anchor="middle" x="403.5" y="-196.949" font-family="Times,serif" font-size="9.00">wallRadar[0.7,0.7]</text>
</g>
<!-- wallRadar[0.7,0.7]&#45;&gt;Shoot -->
<g id="edge9" class="edge"><title>wallRadar[0.7,0.7]&#45;&gt;Shoot</title>
<path fill="none" stroke="green" stroke-width="0.261836" d="M445.222,-191.335C448.021,-190.921 450.8,-190.521 453.5,-190.149 591.342,-171.153 628.571,-183.892 764.5,-154.149 836.769,-138.336 918.338,-108.916 963.246,-91.6629"/>
<polygon fill="green" stroke="green" stroke-width="0.261836" points="964.725,-94.8435 972.786,-87.9683 962.197,-88.3158 964.725,-94.8435"/>
</g>
<!-- wallRadar[0.7,0.7]&#45;&gt;Turn left/right -->
<g id="edge46" class="edge"><title>wallRadar[0.7,0.7]&#45;&gt;Turn left/right</title>
<path fill="none" stroke="green" stroke-width="0.286698" d="M423.986,-190.084C470.929,-171.603 587.495,-125.713 655.975,-98.753"/>
<polygon fill="green" stroke="green" stroke-width="0.286698" points="657.284,-101.999 665.307,-95.0793 654.72,-95.4859 657.284,-101.999"/>
</g>
<!-- wallRadar[&#45;0.7,0.7] -->
<g id="node6" class="node"><title>wallRadar[&#45;0.7,0.7]</title>
<polygon fill="lightgray" stroke="black" points="2062.5,-208.149 1976.5,-208.149 1976.5,-190.149 2062.5,-190.149 2062.5,-208.149"/>
<text text-anchor="middle" x="2019.5" y="-196.949" font-family="Times,serif" font-size="9.00">wallRadar[&#45;0.7,0.7]</text>
</g>
<!-- wallRadar[&#45;0.7,0.7]&#45;&gt;Shoot -->
<g id="edge13" class="edge"><title>wallRadar[&#45;0.7,0.7]&#45;&gt;Shoot</title>
<path fill="none" stroke="green" stroke-width="0.381584" d="M1976.4,-191.308C1973.39,-190.895 1970.4,-190.504 1967.5,-190.149 1792.08,-168.703 1747.13,-173.763 1571.5,-154.149 1368.01,-131.425 1124.96,-96.7025 1034.12,-83.46"/>
<polygon fill="green" stroke="green" stroke-width="0.381584" points="1034.46,-79.9724 1024.06,-81.9902 1033.45,-86.8989 1034.46,-79.9724"/>
</g>
<!-- wallRadar[&#45;0.7,0.7]&#45;&gt;Move Forward/Backward -->
<g id="edge18" class="edge"><title>wallRadar[&#45;0.7,0.7]&#45;&gt;Move Forward/Backward</title>
<path fill="none" stroke="green" stroke-width="0.1926" d="M1976.46,-190.297C1925.06,-180.692 1842.28,-164.443 1812.5,-154.149 1786.01,-144.99 1758.19,-132.371 1733.54,-120.042"/>
<polygon fill="green" stroke="green" stroke-width="0.1926" points="1735.12,-116.917 1724.62,-115.52 1731.95,-123.161 1735.12,-116.917"/>
</g>
<!-- wallRadar[&#45;0.7,0.7]&#45;&gt; Move Left/Right -->
<g id="edge6" class="edge"><title>wallRadar[&#45;0.7,0.7]&#45;&gt; Move Left/Right</title>
<path fill="none" stroke="red" stroke-width="0.728864" d="M2009.67,-189.896C1992.64,-175.596 1956.56,-145.302 1926.25,-119.849"/>
<polygon fill="red" stroke="red" stroke-width="0.728864" points="1928.19,-116.906 1918.28,-113.156 1923.69,-122.267 1928.19,-116.906"/>
</g>
<!-- wallRadar[&#45;0.7,&#45;0.7] -->
<g id="node7" class="node"><title>wallRadar[&#45;0.7,&#45;0.7]</title>
<polygon fill="lightgray" stroke="black" points="206,-208.149 117,-208.149 117,-190.149 206,-190.149 206,-208.149"/>
<text text-anchor="middle" x="161.5" y="-196.949" font-family="Times,serif" font-size="9.00">wallRadar[&#45;0.7,&#45;0.7]</text>
</g>
<!-- wallRadar[&#45;0.7,&#45;0.7]&#45;&gt;Turn left/right -->
<g id="edge43" class="edge"><title>wallRadar[&#45;0.7,&#45;0.7]&#45;&gt;Turn left/right</title>
<path fill="none" stroke="red" stroke-width="0.472871" d="M198.24,-190.084C292.084,-169.484 541.067,-114.829 652.828,-90.2956"/>
<polygon fill="red" stroke="red" stroke-width="0.472871" points="653.867,-93.6507 662.884,-88.0879 652.367,-86.8135 653.867,-93.6507"/>
</g>
<!-- wallRadar[0.7,&#45;0.7] -->
<g id="node8" class="node"><title>wallRadar[0.7,&#45;0.7]</title>
<polygon fill="lightgray" stroke="black" points="1272.5,-208.149 1186.5,-208.149 1186.5,-190.149 1272.5,-190.149 1272.5,-208.149"/>
<text text-anchor="middle" x="1229.5" y="-196.949" font-family="Times,serif" font-size="9.00">wallRadar[0.7,&#45;0.7]</text>
</g>
<!-- wallRadar[0.7,&#45;0.7]&#45;&gt;Shoot -->
<g id="edge29" class="edge"><title>wallRadar[0.7,&#45;0.7]&#45;&gt;Shoot</title>
<path fill="none" stroke="green" stroke-width="0.146804" d="M1213.92,-190.084C1176.43,-170.68 1080.55,-121.058 1029.93,-94.8591"/>
<polygon fill="green" stroke="green" stroke-width="0.146804" points="1031.52,-91.7405 1021.03,-90.2523 1028.3,-97.9572 1031.52,-91.7405"/>
</g>
<!-- wallRadar[0.7,&#45;0.7]&#45;&gt; Move Left/Right -->
<g id="edge2" class="edge"><title>wallRadar[0.7,&#45;0.7]&#45;&gt; Move Left/Right</title>
<path fill="none" stroke="green" stroke-width="0.491174" d="M1272.6,-191.265C1275.61,-190.862 1278.6,-190.485 1281.5,-190.149 1486.09,-166.474 1546.66,-214.751 1743.5,-154.149 1771.45,-145.543 1799.93,-130.296 1823.32,-115.7"/>
<polygon fill="green" stroke="green" stroke-width="0.491174" points="1825.48,-118.479 1832.03,-110.153 1821.71,-112.575 1825.48,-118.479"/>
</g>
<!-- wallRadar[0.7,&#45;0.7]&#45;&gt;Turn left/right -->
<g id="edge19" class="edge"><title>wallRadar[0.7,&#45;0.7]&#45;&gt;Turn left/right</title>
<path fill="none" stroke="red" stroke-width="0.283563" d="M1186.27,-191.366C1116.08,-180.306 982.975,-159.119 961.5,-154.149 891.749,-138.008 812.997,-113.267 762.152,-96.4152"/>
<polygon fill="red" stroke="red" stroke-width="0.283563" points="762.96,-92.9953 752.366,-93.1549 760.747,-99.6364 762.96,-92.9953"/>
</g>
<!-- enemyRadar[RightBack] -->
<g id="node9" class="node"><title>enemyRadar[RightBack]</title>
<polygon fill="lightgray" stroke="black" points="1526.5,-208.149 1422.5,-208.149 1422.5,-190.149 1526.5,-190.149 1526.5,-208.149"/>
<text text-anchor="middle" x="1474.5" y="-196.949" font-family="Times,serif" font-size="9.00">enemyRadar[RightBack]</text>
</g>
<!-- enemyRadar[RightBack]&#45;&gt;Move Forward/Backward -->
<g id="edge22" class="edge"><title>enemyRadar[RightBack]&#45;&gt;Move Forward/Backward</title>
<path fill="none" stroke="green" stroke-width="0.235722" d="M1486.79,-190.084C1506.75,-176.99 1547.68,-150.134 1584.46,-126.002"/>
<polygon fill="green" stroke="green" stroke-width="0.235722" points="1586.77,-128.671 1593.21,-120.259 1582.93,-122.818 1586.77,-128.671"/>
</g>
<!-- enemyRadar[RightBack]&#45;&gt; Move Left/Right -->
<g id="edge4" class="edge"><title>enemyRadar[RightBack]&#45;&gt; Move Left/Right</title>
<path fill="none" stroke="red" stroke-width="0.36632" stroke-dasharray="1,5" d="M1526.54,-190.656C1598.94,-180.077 1723.46,-161.258 1743.5,-154.149 1770.95,-144.411 1799.26,-129.084 1822.66,-114.731"/>
<polygon fill="red" stroke="red" stroke-width="0.36632" points="1824.75,-117.554 1831.38,-109.291 1821.04,-111.616 1824.75,-117.554"/>
</g>
<!-- enemyRadar[RightBack]&#45;&gt;Turn left/right -->
<g id="edge35" class="edge"><title>enemyRadar[RightBack]&#45;&gt;Turn left/right</title>
<path fill="none" stroke="red" stroke-width="0.181046" d="M1422.28,-191.123C1419.31,-190.779 1416.37,-190.451 1413.5,-190.149 1213.08,-169.04 1159.56,-191.374 961.5,-154.149 890.991,-140.897 812.192,-115.438 761.557,-97.6367"/>
<polygon fill="red" stroke="red" stroke-width="0.181046" points="762.722,-94.3364 752.127,-94.2956 760.384,-100.934 762.722,-94.3364"/>
</g>
<!-- enemyRadar[LeftBack] -->
<g id="node10" class="node"><title>enemyRadar[LeftBack]</title>
<polygon fill="lightgray" stroke="black" points="99,-208.149 0,-208.149 0,-190.149 99,-190.149 99,-208.149"/>
<text text-anchor="middle" x="49.5" y="-196.949" font-family="Times,serif" font-size="9.00">enemyRadar[LeftBack]</text>
</g>
<!-- enemyRadar[LeftBack]&#45;&gt;Turn left/right -->
<g id="edge37" class="edge"><title>enemyRadar[LeftBack]&#45;&gt;Turn left/right</title>
<path fill="none" stroke="green" stroke-width="0.109005" d="M93.5053,-190.131C209.605,-168.977 524.074,-111.678 652.612,-88.2579"/>
<polygon fill="green" stroke="green" stroke-width="0.109005" points="653.427,-91.667 662.638,-86.4311 652.172,-84.7804 653.427,-91.667"/>
</g>
<!-- enemyRadar[Right45ø] -->
<g id="node11" class="node"><title>enemyRadar[Right45ø]</title>
<polygon fill="lightgray" stroke="black" points="1644.5,-208.149 1544.5,-208.149 1544.5,-190.149 1644.5,-190.149 1644.5,-208.149"/>
<text text-anchor="middle" x="1594.5" y="-196.949" font-family="Times,serif" font-size="9.00">enemyRadar[Right45ø]</text>
</g>
<!-- enemyRadar[Right45ø]&#45;&gt;Shoot -->
<g id="edge45" class="edge"><title>enemyRadar[Right45ø]&#45;&gt;Shoot</title>
<path fill="none" stroke="red" stroke-width="0.382535" d="M1554.4,-190.084C1444.34,-167.948 1138.77,-106.489 1033.61,-85.3368"/>
<polygon fill="red" stroke="red" stroke-width="0.382535" points="1034.28,-81.9013 1023.78,-83.3607 1032.9,-88.7639 1034.28,-81.9013"/>
</g>
<!-- enemyRadar[Right45ø]&#45;&gt;Move Forward/Backward -->
<g id="edge40" class="edge"><title>enemyRadar[Right45ø]&#45;&gt;Move Forward/Backward</title>
<path fill="none" stroke="green" stroke-width="0.389748" d="M1598.83,-189.896C1603,-181.954 1609.75,-169.079 1617.22,-154.839"/>
<polygon fill="green" stroke="green" stroke-width="0.389748" points="1620.4,-156.309 1621.95,-145.828 1614.21,-153.057 1620.4,-156.309"/>
</g>
<!-- enemyRadar[Right45ø]&#45;&gt; Move Left/Right -->
<g id="edge21" class="edge"><title>enemyRadar[Right45ø]&#45;&gt; Move Left/Right</title>
<path fill="none" stroke="red" stroke-width="0.112611" d="M1630.23,-190.083C1660.93,-182.571 1706.04,-170.135 1743.5,-154.149 1770.18,-142.762 1798.27,-127.269 1821.72,-113.236"/>
<polygon fill="red" stroke="red" stroke-width="0.112611" points="1823.73,-116.113 1830.47,-107.941 1820.11,-110.124 1823.73,-116.113"/>
</g>
<!-- enemyRadar[Left45ø] -->
<g id="node12" class="node"><title>enemyRadar[Left45ø]</title>
<polygon fill="lightgray" stroke="black" points="1168,-208.149 1073,-208.149 1073,-190.149 1168,-190.149 1168,-208.149"/>
<text text-anchor="middle" x="1120.5" y="-196.949" font-family="Times,serif" font-size="9.00">enemyRadar[Left45ø]</text>
</g>
<!-- enemyRadar[Left45ø]&#45;&gt;Shoot -->
<g id="edge33" class="edge"><title>enemyRadar[Left45ø]&#45;&gt;Shoot</title>
<path fill="none" stroke="green" stroke-width="0.183065" d="M1112.05,-189.896C1094.19,-172.461 1051.97,-131.247 1024.08,-104.022"/>
<polygon fill="green" stroke="green" stroke-width="0.183065" points="1026.23,-101.227 1016.63,-96.7457 1021.34,-106.236 1026.23,-101.227"/>
</g>
<!-- enemyRadar[Left45ø]&#45;&gt; Move Left/Right -->
<g id="edge54" class="edge"><title>enemyRadar[Left45ø]&#45;&gt; Move Left/Right</title>
<path fill="none" stroke="green" stroke-width="0.35465" d="M1168.05,-191.2C1171.25,-190.818 1174.42,-190.463 1177.5,-190.149 1302.88,-177.382 1622.79,-190.375 1743.5,-154.149 1771.51,-145.742 1800,-130.523 1823.38,-115.895"/>
<polygon fill="green" stroke="green" stroke-width="0.35465" points="1825.54,-118.668 1832.08,-110.332 1821.77,-112.77 1825.54,-118.668"/>
</g>
<!-- enemyRadar[Left45ø]&#45;&gt;Turn left/right -->
<g id="edge14" class="edge"><title>enemyRadar[Left45ø]&#45;&gt;Turn left/right</title>
<path fill="none" stroke="green" stroke-width="0.637937" d="M1090.55,-190.074C1058.55,-181.395 1006.35,-167.097 961.5,-154.149 892.921,-134.352 814.224,-110.511 763.055,-94.8589"/>
<polygon fill="green" stroke="green" stroke-width="0.637937" points="763.786,-91.4224 753.199,-91.8413 761.736,-98.1157 763.786,-91.4224"/>
</g>
<!-- enemyRadar[RightFront20ø] -->
<g id="node13" class="node"><title>enemyRadar[RightFront20ø]</title>
<polygon fill="lightgray" stroke="black" points="582,-208.149 463,-208.149 463,-190.149 582,-190.149 582,-208.149"/>
<text text-anchor="middle" x="522.5" y="-196.949" font-family="Times,serif" font-size="9.00">enemyRadar[RightFront20ø]</text>
</g>
<!-- enemyRadar[RightFront20ø]&#45;&gt;Shoot -->
<g id="edge39" class="edge"><title>enemyRadar[RightFront20ø]&#45;&gt;Shoot</title>
<path fill="none" stroke="red" stroke-width="0.599404" d="M578.711,-190.144C628.058,-182.592 701.573,-170.064 764.5,-154.149 836.221,-136.01 917.986,-107.423 963.076,-90.9443"/>
<polygon fill="red" stroke="red" stroke-width="0.599404" points="964.479,-94.1579 972.657,-87.423 962.064,-87.5876 964.479,-94.1579"/>
</g>
<!-- enemyRadar[RightFront20ø]&#45;&gt;Turn left/right -->
<g id="edge3" class="edge"><title>enemyRadar[RightFront20ø]&#45;&gt;Turn left/right</title>
<path fill="none" stroke="red" stroke-width="0.143582" d="M534.993,-190.084C560.368,-173.703 619.102,-135.787 661.204,-108.607"/>
<polygon fill="red" stroke="red" stroke-width="0.143582" points="663.149,-111.517 669.653,-103.153 659.353,-105.636 663.149,-111.517"/>
</g>
<!-- enemyRadar[LeftFront20ø] -->
<g id="node14" class="node"><title>enemyRadar[LeftFront20ø]</title>
<polygon fill="lightgray" stroke="black" points="1404.5,-208.149 1290.5,-208.149 1290.5,-190.149 1404.5,-190.149 1404.5,-208.149"/>
<text text-anchor="middle" x="1347.5" y="-196.949" font-family="Times,serif" font-size="9.00">enemyRadar[LeftFront20ø]</text>
</g>
<!-- enemyRadar[LeftFront20ø]&#45;&gt;Shoot -->
<g id="edge32" class="edge"><title>enemyRadar[LeftFront20ø]&#45;&gt;Shoot</title>
<path fill="none" stroke="red" stroke-width="0.442644" d="M1323.99,-190.084C1263.8,-169.436 1103.89,-114.572 1032.62,-90.1236"/>
<polygon fill="red" stroke="red" stroke-width="0.442644" points="1033.37,-86.6793 1022.77,-86.7448 1031.1,-93.3005 1033.37,-86.6793"/>
</g>
<!-- enemyRadar[LeftFront20ø]&#45;&gt;Move Forward/Backward -->
<g id="edge1" class="edge"><title>enemyRadar[LeftFront20ø]&#45;&gt;Move Forward/Backward</title>
<path fill="none" stroke="green" stroke-width="0.3912" d="M1368.32,-190.084C1410.07,-173.913 1506,-136.757 1575.96,-109.66"/>
<polygon fill="green" stroke="green" stroke-width="0.3912" points="1577.59,-112.782 1585.65,-105.906 1575.06,-106.254 1577.59,-112.782"/>
</g>
<!-- enemyRadar[LeftFront20ø]&#45;&gt; Move Left/Right -->
<g id="edge5" class="edge"><title>enemyRadar[LeftFront20ø]&#45;&gt; Move Left/Right</title>
<path fill="none" stroke="green" stroke-width="0.776993" d="M1404.73,-191.17C1407.7,-190.821 1410.63,-190.479 1413.5,-190.149 1560.07,-173.272 1603.18,-199.734 1743.5,-154.149 1771.32,-145.112 1799.77,-129.804 1823.19,-115.279"/>
<polygon fill="green" stroke="green" stroke-width="0.776993" points="1825.33,-118.07 1831.91,-109.766 1821.58,-112.154 1825.33,-118.07"/>
</g>
<!-- enemyRadar[LeftFront20ø]&#45;&gt;Turn left/right -->
<g id="edge20" class="edge"><title>enemyRadar[LeftFront20ø]&#45;&gt;Turn left/right</title>
<path fill="none" stroke="green" stroke-width="0.453939" d="M1290.27,-191.181C1287.3,-190.83 1284.37,-190.484 1281.5,-190.149 1139.35,-173.538 1101.71,-182.872 961.5,-154.149 891.362,-139.781 812.695,-114.651 761.976,-97.2254"/>
<polygon fill="green" stroke="green" stroke-width="0.453939" points="762.81,-93.8106 752.215,-93.8484 760.521,-100.426 762.81,-93.8106"/>
</g>
<!-- enemyRadar[RightFront15ø] -->
<g id="node15" class="node"><title>enemyRadar[RightFront15ø]</title>
<polygon fill="lightgray" stroke="black" points="922,-208.149 803,-208.149 803,-190.149 922,-190.149 922,-208.149"/>
<text text-anchor="middle" x="862.5" y="-196.949" font-family="Times,serif" font-size="9.00">enemyRadar[RightFront15ø]</text>
</g>
<!-- enemyRadar[RightFront15ø]&#45;&gt;Shoot -->
<g id="edge12" class="edge"><title>enemyRadar[RightFront15ø]&#45;&gt;Shoot</title>
<path fill="none" stroke="red" stroke-width="0.165517" d="M871.779,-189.896C891.684,-172.192 939.154,-129.97 969.733,-102.772"/>
<polygon fill="red" stroke="red" stroke-width="0.165517" points="972.348,-105.13 977.494,-95.8688 967.696,-99.8996 972.348,-105.13"/>
</g>
<!-- enemyRadar[RightFront15ø]&#45;&gt;Move Forward/Backward -->
<g id="edge26" class="edge"><title>enemyRadar[RightFront15ø]&#45;&gt;Move Forward/Backward</title>
<path fill="none" stroke="green" stroke-width="0.539657" d="M915.587,-190.131C1050.28,-169.788 1406.28,-116.018 1571.28,-91.0964"/>
<polygon fill="green" stroke="green" stroke-width="0.539657" points="1572.03,-94.5238 1581.39,-89.5695 1570.98,-87.6023 1572.03,-94.5238"/>
</g>
<!-- enemyRadar[RightFront15ø]&#45;&gt;Turn left/right -->
<g id="edge15" class="edge"><title>enemyRadar[RightFront15ø]&#45;&gt;Turn left/right</title>
<path fill="none" stroke="green" stroke-width="0.717739" d="M851.915,-189.896C831.846,-174.248 787.214,-139.449 753.032,-112.797"/>
<polygon fill="green" stroke="green" stroke-width="0.717739" points="755.069,-109.947 745.031,-106.558 750.765,-115.467 755.069,-109.947"/>
</g>
<!-- enemyRadar[LeftFront15ø] -->
<g id="node16" class="node"><title>enemyRadar[LeftFront15ø]</title>
<polygon fill="lightgray" stroke="black" points="1054.5,-208.149 940.5,-208.149 940.5,-190.149 1054.5,-190.149 1054.5,-208.149"/>
<text text-anchor="middle" x="997.5" y="-196.949" font-family="Times,serif" font-size="9.00">enemyRadar[LeftFront15ø]</text>
</g>
<!-- enemyRadar[LeftFront15ø]&#45;&gt;Shoot -->
<g id="edge34" class="edge"><title>enemyRadar[LeftFront15ø]&#45;&gt;Shoot</title>
<path fill="none" stroke="green" stroke-width="0.133294" d="M997.5,-189.896C997.5,-174.554 997.5,-140.799 997.5,-114.366"/>
<polygon fill="green" stroke="green" stroke-width="0.133294" points="1001,-114.286 997.5,-104.286 994,-114.286 1001,-114.286"/>
</g>
<!-- enemyRadar[LeftFront15ø]&#45;&gt;Move Forward/Backward -->
<g id="edge52" class="edge"><title>enemyRadar[LeftFront15ø]&#45;&gt;Move Forward/Backward</title>
<path fill="none" stroke="red" stroke-width="0.459033" d="M1041.57,-190.131C1149.68,-170.464 1429.51,-119.554 1571.76,-93.6735"/>
<polygon fill="red" stroke="red" stroke-width="0.459033" points="1572.55,-97.0876 1581.76,-91.8541 1571.29,-90.2007 1572.55,-97.0876"/>
</g>
<!-- enemyRadar[LeftFront15ø]&#45;&gt;Turn left/right -->
<g id="edge53" class="edge"><title>enemyRadar[LeftFront15ø]&#45;&gt;Turn left/right</title>
<path fill="none" stroke="red" stroke-width="0.290617" d="M978.089,-190.084C934.121,-171.817 825.697,-126.768 760.533,-99.6936"/>
<polygon fill="red" stroke="red" stroke-width="0.290617" points="761.823,-96.4395 751.246,-95.8347 759.137,-102.904 761.823,-96.4395"/>
</g>
<!-- enemyRadar[RightFront7.5ø] -->
<g id="node17" class="node"><title>enemyRadar[RightFront7.5ø]</title>
<polygon fill="lightgray" stroke="black" points="2550.5,-208.149 2428.5,-208.149 2428.5,-190.149 2550.5,-190.149 2550.5,-208.149"/>
<text text-anchor="middle" x="2489.5" y="-196.949" font-family="Times,serif" font-size="9.00">enemyRadar[RightFront7.5ø]</text>
</g>
<!-- enemyRadar[RightFront7.5ø]&#45;&gt; Move Left/Right -->
<g id="edge44" class="edge"><title>enemyRadar[RightFront7.5ø]&#45;&gt; Move Left/Right</title>
<path fill="none" stroke="green" stroke-width="0.105124" d="M2448.33,-190.084C2343.65,-169.58 2066.74,-115.338 1940.65,-90.6413"/>
<polygon fill="green" stroke="green" stroke-width="0.105124" points="1941.24,-87.1887 1930.75,-88.701 1939.89,-94.0581 1941.24,-87.1887"/>
</g>
<!-- enemyRadar[LeftFront7.5ø] -->
<g id="node18" class="node"><title>enemyRadar[LeftFront7.5ø]</title>
<polygon fill="lightgray" stroke="black" points="716.5,-208.149 600.5,-208.149 600.5,-190.149 716.5,-190.149 716.5,-208.149"/>
<text text-anchor="middle" x="658.5" y="-196.949" font-family="Times,serif" font-size="9.00">enemyRadar[LeftFront7.5ø]</text>
</g>
<!-- enemyRadar[LeftFront7.5ø]&#45;&gt;Shoot -->
<g id="edge41" class="edge"><title>enemyRadar[LeftFront7.5ø]&#45;&gt;Shoot</title>
<path fill="none" stroke="green" stroke-width="0.335895" d="M681.269,-190.084C739.282,-169.536 892.957,-115.104 962.472,-90.4818"/>
<polygon fill="green" stroke="green" stroke-width="0.335895" points="963.838,-93.7109 972.096,-87.0729 961.501,-87.1126 963.838,-93.7109"/>
</g>
<!-- enemyRadar[LeftFront7.5ø]&#45;&gt;Move Forward/Backward -->
<g id="edge38" class="edge"><title>enemyRadar[LeftFront7.5ø]&#45;&gt;Move Forward/Backward</title>
<path fill="none" stroke="red" stroke-width="0.524781" d="M716.604,-191.203C719.612,-190.846 722.592,-190.493 725.5,-190.149 862.369,-173.979 896.651,-170.489 1033.5,-154.149 1225.14,-131.268 1449.79,-103.696 1570.39,-88.8333"/>
<polygon fill="red" stroke="red" stroke-width="0.524781" points="1571.17,-92.2638 1580.66,-87.5666 1570.31,-85.3164 1571.17,-92.2638"/>
</g>
<!-- enemyRadar[LeftFront7.5ø]&#45;&gt;Turn left/right -->
<g id="edge51" class="edge"><title>enemyRadar[LeftFront7.5ø]&#45;&gt;Turn left/right</title>
<path fill="none" stroke="green" stroke-width="0.527836" d="M661.937,-189.896C667.134,-177.416 677.404,-152.752 686.98,-129.756"/>
<polygon fill="green" stroke="green" stroke-width="0.527836" points="690.27,-130.959 690.883,-120.382 683.808,-128.268 690.27,-130.959"/>
</g>
<!-- enemyRadar[RightFront2.5ø] -->
<g id="node19" class="node"><title>enemyRadar[RightFront2.5ø]</title>
<polygon fill="lightgray" stroke="black" points="2294.5,-208.149 2172.5,-208.149 2172.5,-190.149 2294.5,-190.149 2294.5,-208.149"/>
<text text-anchor="middle" x="2233.5" y="-196.949" font-family="Times,serif" font-size="9.00">enemyRadar[RightFront2.5ø]</text>
</g>
<!-- enemyRadar[RightFront2.5ø]&#45;&gt;Move Forward/Backward -->
<g id="edge55" class="edge"><title>enemyRadar[RightFront2.5ø]&#45;&gt;Move Forward/Backward</title>
<path fill="none" stroke="red" stroke-width="0.481826" d="M2172.42,-191.127C2169.41,-190.793 2166.42,-190.466 2163.5,-190.149 2007.6,-173.246 1963.24,-197.372 1812.5,-154.149 1785.43,-146.386 1757.34,-134.073 1732.64,-121.596"/>
<polygon fill="red" stroke="red" stroke-width="0.481826" points="1734.2,-118.46 1723.7,-117 1731,-124.686 1734.2,-118.46"/>
</g>
<!-- enemyRadar[RightFront2.5ø]&#45;&gt; Move Left/Right -->
<g id="edge16" class="edge"><title>enemyRadar[RightFront2.5ø]&#45;&gt; Move Left/Right</title>
<path fill="none" stroke="red" stroke-width="0.24237" d="M2209.52,-190.084C2154.61,-171.616 2018.33,-125.777 1938.15,-98.8097"/>
<polygon fill="red" stroke="red" stroke-width="0.24237" points="1939.25,-95.4882 1928.66,-95.6176 1937.02,-102.123 1939.25,-95.4882"/>
</g>
<!-- enemyRadar[LeftFront2.5ø] -->
<g id="node20" class="node"><title>enemyRadar[LeftFront2.5ø]</title>
<polygon fill="lightgray" stroke="black" points="1778.5,-208.149 1662.5,-208.149 1662.5,-190.149 1778.5,-190.149 1778.5,-208.149"/>
<text text-anchor="middle" x="1720.5" y="-196.949" font-family="Times,serif" font-size="9.00">enemyRadar[LeftFront2.5ø]</text>
</g>
<!-- enemyRadar[LeftFront2.5ø]&#45;&gt;Move Forward/Backward -->
<g id="edge49" class="edge"><title>enemyRadar[LeftFront2.5ø]&#45;&gt;Move Forward/Backward</title>
<path fill="none" stroke="green" stroke-width="0.238705" d="M1716.17,-189.896C1712,-181.954 1705.25,-169.079 1697.78,-154.839"/>
<polygon fill="green" stroke="green" stroke-width="0.238705" points="1700.79,-153.057 1693.05,-145.828 1694.6,-156.309 1700.79,-153.057"/>
</g>
<!-- enemyRadar[Front7Ø] -->
<g id="node21" class="node"><title>enemyRadar[Front7Ø]</title>
<polygon fill="lightgray" stroke="black" points="2410.5,-208.149 2312.5,-208.149 2312.5,-190.149 2410.5,-190.149 2410.5,-208.149"/>
<text text-anchor="middle" x="2361.5" y="-196.949" font-family="Times,serif" font-size="9.00">enemyRadar[Front7Ø]</text>
</g>
<!-- enemyRadar[Front7Ø]&#45;&gt;Move Forward/Backward -->
<g id="edge48" class="edge"><title>enemyRadar[Front7Ø]&#45;&gt;Move Forward/Backward</title>
<path fill="none" stroke="red" stroke-width="0.22401" d="M2312.48,-191.164C2309.44,-190.801 2306.43,-190.459 2303.5,-190.149 2085.9,-167.189 2023.69,-211.399 1812.5,-154.149 1785.32,-146.78 1757.21,-134.572 1732.51,-122.07"/>
<polygon fill="red" stroke="red" stroke-width="0.22401" points="1734.07,-118.934 1723.58,-117.459 1730.86,-125.155 1734.07,-118.934"/>
</g>
<!-- enemyRadar[Front7Ø]&#45;&gt; Move Left/Right -->
<g id="edge17" class="edge"><title>enemyRadar[Front7Ø]&#45;&gt; Move Left/Right</title>
<path fill="none" stroke="green" stroke-width="0.128777" d="M2328.92,-190.084C2249.4,-170.396 2044.24,-119.602 1939.72,-93.7262"/>
<polygon fill="green" stroke="green" stroke-width="0.128777" points="1940.47,-90.3076 1929.93,-91.3017 1938.79,-97.1024 1940.47,-90.3076"/>
</g>
<!-- OnTarget -->
<g id="node22" class="node"><title>OnTarget</title>
<polygon fill="lightgray" stroke="black" points="784.5,-208.149 734.5,-208.149 734.5,-190.149 784.5,-190.149 784.5,-208.149"/>
<text text-anchor="middle" x="759.5" y="-196.949" font-family="Times,serif" font-size="9.00">OnTarget</text>
</g>
<!-- OnTarget&#45;&gt;Shoot -->
<g id="edge8" class="edge"><title>OnTarget&#45;&gt;Shoot</title>
<path fill="none" stroke="green" stroke-width="0.248985" d="M775.485,-190.084C814.045,-170.63 912.804,-120.805 964.628,-94.6591"/>
<polygon fill="green" stroke="green" stroke-width="0.248985" points="966.382,-97.6946 973.733,-90.0653 963.229,-91.4449 966.382,-97.6946"/>
</g>
<!-- OnTarget&#45;&gt;Move Forward/Backward -->
<g id="edge25" class="edge"><title>OnTarget&#45;&gt;Move Forward/Backward</title>
<path fill="none" stroke="green" stroke-width="0.137496" d="M784.676,-192.092C787.971,-191.389 791.309,-190.72 794.5,-190.149 942.638,-163.663 1382.8,-110.532 1570.8,-88.2634"/>
<polygon fill="green" stroke="green" stroke-width="0.137496" points="1571.4,-91.7171 1580.92,-87.0659 1570.58,-84.7656 1571.4,-91.7171"/>
</g>
<!-- OnTarget&#45;&gt;Turn left/right -->
<g id="edge50" class="edge"><title>OnTarget&#45;&gt;Turn left/right</title>
<path fill="none" stroke="green" stroke-width="0.457608" d="M755.995,-189.896C750.694,-177.416 740.218,-152.752 730.451,-129.756"/>
<polygon fill="green" stroke="green" stroke-width="0.457608" points="733.6,-128.218 726.469,-120.382 727.157,-130.955 733.6,-128.218"/>
</g>
<!-- bias -->
<g id="node23" class="node"><title>bias</title>
<polygon fill="lightgray" stroke="black" points="255,-208.149 224,-208.149 224,-190.149 255,-190.149 255,-208.149"/>
<text text-anchor="middle" x="239.5" y="-196.949" font-family="Times,serif" font-size="9.00">bias</text>
</g>
<!-- bias&#45;&gt;Shoot -->
<g id="edge28" class="edge"><title>bias&#45;&gt;Shoot</title>
<path fill="none" stroke="green" stroke-width="0.230467" d="M255.223,-192.494C258.267,-191.577 261.457,-190.737 264.5,-190.149 483.255,-147.899 545.87,-197.043 764.5,-154.149 837.095,-139.907 918.547,-109.924 963.346,-92.1481"/>
<polygon fill="green" stroke="green" stroke-width="0.230467" points="964.881,-95.3039 972.862,-88.3364 962.278,-88.8058 964.881,-95.3039"/>
</g>
<!-- bias&#45;&gt;Turn left/right -->
<g id="edge30" class="edge"><title>bias&#45;&gt;Turn left/right</title>
<path fill="none" stroke="red" stroke-width="0.660337" d="M255.057,-193.005C258.174,-192.022 261.433,-191.026 264.5,-190.149 403.509,-150.405 569.08,-110.571 653.325,-90.8306"/>
<polygon fill="red" stroke="red" stroke-width="0.660337" points="654.248,-94.2092 663.188,-88.5242 652.654,-87.3931 654.248,-94.2092"/>
</g>
</g>
</svg>
