<?xml version="1.0" encoding="UTF-8" standalone="no"?>
<!DOCTYPE svg PUBLIC "-//W3C//DTD SVG 1.1//EN"
 "http://www.w3.org/Graphics/SVG/1.1/DTD/svg11.dtd">
<!-- Generated by graphviz version 2.38.0 (20140413.2041)
 -->
<!-- Title: %3 Pages: 1 -->
<svg width="2551pt" height="302pt"
 viewBox="0.00 0.00 2551.00 301.65" xmlns="http://www.w3.org/2000/svg" xmlns:xlink="http://www.w3.org/1999/xlink">
<g id="graph0" class="graph" transform="scale(1 1) rotate(0) translate(4 297.647)">
<title>%3</title>
<polygon fill="white" stroke="none" points="-4,4 -4,-297.647 2547,-297.647 2547,4 -4,4"/>
<!-- wallRadar[1,0] -->
<g id="node1" class="node"><title>wallRadar[1,0]</title>
<polygon fill="lightgray" stroke="black" points="1828,-223.898 1758,-223.898 1758,-205.898 1828,-205.898 1828,-223.898"/>
<text text-anchor="middle" x="1793" y="-212.698" font-family="Times,serif" font-size="9.00">wallRadar[1,0]</text>
</g>
<!-- Turn left/right -->
<g id="node27" class="node"><title>Turn left/right</title>
<ellipse fill="lightblue" stroke="black" cx="1430" cy="-77.0746" rx="46.8387" ry="46.8387"/>
<text text-anchor="middle" x="1430" y="-74.8746" font-family="Times,serif" font-size="9.00">Turn left/right</text>
</g>
<!-- wallRadar[1,0]&#45;&gt;Turn left/right -->
<g id="edge41" class="edge"><title>wallRadar[1,0]&#45;&gt;Turn left/right</title>
<path fill="none" stroke="red" stroke-width="0.429597" stroke-dasharray="1,5" d="M1779.41,-205.842C1770.85,-200.953 1759.48,-194.784 1749,-190.149 1658.55,-150.146 1548.98,-114.253 1484.64,-94.3873"/>
<polygon fill="red" stroke="red" stroke-width="0.429597" points="1485.3,-90.9283 1474.71,-91.3385 1483.24,-97.6199 1485.3,-90.9283"/>
</g>
<!-- wallRadar[0,1] -->
<g id="node2" class="node"><title>wallRadar[0,1]</title>
<polygon fill="lightgray" stroke="black" points="70,-223.898 0,-223.898 0,-205.898 70,-205.898 70,-223.898"/>
<text text-anchor="middle" x="35" y="-212.698" font-family="Times,serif" font-size="9.00">wallRadar[0,1]</text>
</g>
<!-- Shoot -->
<g id="node24" class="node"><title>Shoot</title>
<ellipse fill="lightblue" stroke="black" cx="560" cy="-77.0746" rx="26.7407" ry="26.7407"/>
<text text-anchor="middle" x="560" y="-74.8746" font-family="Times,serif" font-size="9.00">Shoot</text>
</g>
<!-- wallRadar[0,1]&#45;&gt;Shoot -->
<g id="edge7" class="edge"><title>wallRadar[0,1]&#45;&gt;Shoot</title>
<path fill="none" stroke="red" stroke-width="0.103665" stroke-dasharray="1,5" d="M47.6623,-205.891C56.2313,-200.771 67.9592,-194.329 79,-190.149 238.818,-129.641 441.325,-95.4189 523.187,-83.2279"/>
<polygon fill="red" stroke="red" stroke-width="0.103665" points="524.083,-86.6339 533.469,-81.7187 523.067,-79.7081 524.083,-86.6339"/>
</g>
<!-- wallRadar[&#45;1,0] -->
<g id="node3" class="node"><title>wallRadar[&#45;1,0]</title>
<polygon fill="lightgray" stroke="black" points="2091.5,-223.898 2018.5,-223.898 2018.5,-205.898 2091.5,-205.898 2091.5,-223.898"/>
<text text-anchor="middle" x="2055" y="-212.698" font-family="Times,serif" font-size="9.00">wallRadar[&#45;1,0]</text>
</g>
<!-- Move Forward/Backward -->
<g id="node25" class="node"><title>Move Forward/Backward</title>
<ellipse fill="lightblue" stroke="black" cx="965" cy="-77.0746" rx="77.1494" ry="77.1494"/>
<text text-anchor="middle" x="965" y="-74.8746" font-family="Times,serif" font-size="9.00">Move Forward/Backward</text>
</g>
<!-- wallRadar[&#45;1,0]&#45;&gt;Move Forward/Backward -->
<g id="edge38" class="edge"><title>wallRadar[&#45;1,0]&#45;&gt;Move Forward/Backward</title>
<path fill="none" stroke="red" stroke-width="1.25272" stroke-dasharray="1,5" d="M2031.77,-205.872C2015.08,-200.465 1991.92,-193.694 1971,-190.149 1708.92,-145.733 1637.84,-186.515 1374,-154.149 1261.2,-140.311 1132.54,-114.743 1050.14,-97.0928"/>
<polygon fill="red" stroke="red" stroke-width="1.25272" points="1050.84,-93.6627 1040.32,-94.9809 1049.36,-100.506 1050.84,-93.6627"/>
</g>
<!--  Move Left/Right -->
<g id="node26" class="node"><title> Move Left/Right</title>
<ellipse fill="lightblue" stroke="black" cx="1904" cy="-77.0746" rx="55.3091" ry="55.3091"/>
<text text-anchor="middle" x="1904" y="-74.8746" font-family="Times,serif" font-size="9.00"> Move Left/Right</text>
</g>
<!-- wallRadar[&#45;1,0]&#45;&gt; Move Left/Right -->
<g id="edge3" class="edge"><title>wallRadar[&#45;1,0]&#45;&gt; Move Left/Right</title>
<path fill="none" stroke="red" stroke-width="0.488539" stroke-dasharray="1,5" d="M2046.01,-205.808C2027.89,-189.508 1985.84,-151.688 1952.17,-121.406"/>
<polygon fill="red" stroke="red" stroke-width="0.488539" points="1954.47,-118.762 1944.69,-114.677 1949.79,-123.966 1954.47,-118.762"/>
</g>
<!-- wallRadar[0,&#45;1] -->
<g id="node4" class="node"><title>wallRadar[0,&#45;1]</title>
<polygon fill="lightgray" stroke="black" points="596.5,-223.898 523.5,-223.898 523.5,-205.898 596.5,-205.898 596.5,-223.898"/>
<text text-anchor="middle" x="560" y="-212.698" font-family="Times,serif" font-size="9.00">wallRadar[0,&#45;1]</text>
</g>
<!-- wallRadar[0,&#45;1]&#45;&gt;Shoot -->
<g id="edge44" class="edge"><title>wallRadar[0,&#45;1]&#45;&gt;Shoot</title>
<path fill="none" stroke="green" stroke-width="0.530634" d="M560,-205.808C560,-188.158 560,-145.273 560,-114.05"/>
<polygon fill="green" stroke="green" stroke-width="0.530634" points="563.5,-113.962 560,-103.962 556.5,-113.962 563.5,-113.962"/>
</g>
<!-- wallRadar[0,&#45;1]&#45;&gt;Move Forward/Backward -->
<g id="edge29" class="edge"><title>wallRadar[0,&#45;1]&#45;&gt;Move Forward/Backward</title>
<path fill="none" stroke="red" stroke-width="0.264139" d="M573.866,-205.729C582.604,-200.797 594.232,-194.622 605,-190.149 696.987,-151.939 806.813,-119.555 880.771,-99.5722"/>
<polygon fill="red" stroke="red" stroke-width="0.264139" points="881.761,-102.93 890.511,-96.9561 879.945,-96.17 881.761,-102.93"/>
</g>
<!-- wallRadar[0,&#45;1]&#45;&gt;Turn left/right -->
<g id="edge13" class="edge"><title>wallRadar[0,&#45;1]&#45;&gt;Turn left/right</title>
<path fill="none" stroke="green" stroke-width="0.88711" stroke-dasharray="1,5" d="M572.031,-205.816C580.78,-200.382 593.125,-193.604 605,-190.149 795.952,-134.605 854.06,-181.765 1051,-154.149 1167.16,-137.861 1301.37,-108.353 1374.84,-91.2696"/>
<polygon fill="green" stroke="green" stroke-width="0.88711" points="1375.85,-94.6272 1384.79,-88.9442 1374.26,-87.8107 1375.85,-94.6272"/>
</g>
<!-- wallRadar[0.7,0.7] -->
<g id="node5" class="node"><title>wallRadar[0.7,0.7]</title>
<polygon fill="lightgray" stroke="black" points="505.5,-223.898 422.5,-223.898 422.5,-205.898 505.5,-205.898 505.5,-223.898"/>
<text text-anchor="middle" x="464" y="-212.698" font-family="Times,serif" font-size="9.00">wallRadar[0.7,0.7]</text>
</g>
<!-- wallRadar[0.7,0.7]&#45;&gt;Shoot -->
<g id="edge31" class="edge"><title>wallRadar[0.7,0.7]&#45;&gt;Shoot</title>
<path fill="none" stroke="green" stroke-width="0.590685" d="M469.718,-205.808C483.037,-186.963 516.688,-139.353 538.931,-107.883"/>
<polygon fill="green" stroke="green" stroke-width="0.590685" points="541.962,-109.658 544.876,-99.4722 536.246,-105.618 541.962,-109.658"/>
</g>
<!-- wallRadar[0.7,0.7]&#45;&gt;Move Forward/Backward -->
<g id="edge10" class="edge"><title>wallRadar[0.7,0.7]&#45;&gt;Move Forward/Backward</title>
<path fill="none" stroke="green" stroke-width="0.856261" stroke-dasharray="1,5" d="M478.982,-205.813C488.744,-200.79 501.875,-194.486 514,-190.149 637.928,-145.823 787.053,-112.479 878.938,-94.1201"/>
<polygon fill="green" stroke="green" stroke-width="0.856261" points="879.898,-97.4979 889.026,-92.1188 878.536,-90.6317 879.898,-97.4979"/>
</g>
<!-- wallRadar[&#45;0.7,0.7] -->
<g id="node6" class="node"><title>wallRadar[&#45;0.7,0.7]</title>
<polygon fill="lightgray" stroke="black" points="2439,-293.647 2353,-293.647 2353,-275.647 2439,-275.647 2439,-293.647"/>
<text text-anchor="middle" x="2396" y="-282.447" font-family="Times,serif" font-size="9.00">wallRadar[&#45;0.7,0.7]</text>
</g>
<!-- wallRadar[&#45;0.7,&#45;0.7] -->
<g id="node7" class="node"><title>wallRadar[&#45;0.7,&#45;0.7]</title>
<polygon fill="lightgray" stroke="black" points="1283.5,-223.898 1194.5,-223.898 1194.5,-205.898 1283.5,-205.898 1283.5,-223.898"/>
<text text-anchor="middle" x="1239" y="-212.698" font-family="Times,serif" font-size="9.00">wallRadar[&#45;0.7,&#45;0.7]</text>
</g>
<!-- wallRadar[&#45;0.7,&#45;0.7]&#45;&gt;Shoot -->
<g id="edge4" class="edge"><title>wallRadar[&#45;0.7,&#45;0.7]&#45;&gt;Shoot</title>
<path fill="none" stroke="red" stroke-width="0.937122" stroke-dasharray="1,5" d="M1223.85,-205.778C1213.26,-200.472 1198.64,-193.861 1185,-190.149 1052.87,-154.189 1013.83,-178.073 879,-154.149 775.083,-135.711 654.4,-104.087 595.717,-88.041"/>
<polygon fill="red" stroke="red" stroke-width="0.937122" points="596.405,-84.6003 585.835,-85.3254 594.55,-91.3501 596.405,-84.6003"/>
</g>
<!-- wallRadar[&#45;0.7,&#45;0.7]&#45;&gt;Move Forward/Backward -->
<g id="edge2" class="edge"><title>wallRadar[&#45;0.7,&#45;0.7]&#45;&gt;Move Forward/Backward</title>
<path fill="none" stroke="green" stroke-width="0.196193" stroke-dasharray="1,5" d="M1222.68,-205.808C1188.04,-188.635 1105.2,-147.572 1042.73,-116.606"/>
<polygon fill="green" stroke="green" stroke-width="0.196193" points="1044.18,-113.42 1033.67,-112.114 1041.07,-119.692 1044.18,-113.42"/>
</g>
<!-- wallRadar[&#45;0.7,&#45;0.7]&#45;&gt; Move Left/Right -->
<g id="edge18" class="edge"><title>wallRadar[&#45;0.7,&#45;0.7]&#45;&gt; Move Left/Right</title>
<path fill="none" stroke="red" stroke-width="0.406425" stroke-dasharray="1,5" d="M1254.39,-205.817C1264.77,-200.666 1278.9,-194.217 1292,-190.149 1298.58,-188.104 1684.3,-117.969 1839.93,-89.7055"/>
<polygon fill="red" stroke="red" stroke-width="0.406425" points="1840.62,-93.136 1849.84,-87.9055 1839.37,-86.2487 1840.62,-93.136"/>
</g>
<!-- wallRadar[&#45;0.7,&#45;0.7]&#45;&gt;Turn left/right -->
<g id="edge30" class="edge"><title>wallRadar[&#45;0.7,&#45;0.7]&#45;&gt;Turn left/right</title>
<path fill="none" stroke="green" stroke-width="0.204422" d="M1250.38,-205.808C1276.1,-187.513 1339.96,-142.106 1384.15,-110.676"/>
<polygon fill="green" stroke="green" stroke-width="0.204422" points="1386.32,-113.433 1392.44,-104.785 1382.26,-107.728 1386.32,-113.433"/>
</g>
<!-- wallRadar[0.7,&#45;0.7] -->
<g id="node8" class="node"><title>wallRadar[0.7,&#45;0.7]</title>
<polygon fill="lightgray" stroke="black" points="2543,-293.647 2457,-293.647 2457,-275.647 2543,-275.647 2543,-293.647"/>
<text text-anchor="middle" x="2500" y="-282.447" font-family="Times,serif" font-size="9.00">wallRadar[0.7,&#45;0.7]</text>
</g>
<!-- enemyRadar[RightBack] -->
<g id="node9" class="node"><title>enemyRadar[RightBack]</title>
<polygon fill="lightgray" stroke="black" points="1740,-223.898 1636,-223.898 1636,-205.898 1740,-205.898 1740,-223.898"/>
<text text-anchor="middle" x="1688" y="-212.698" font-family="Times,serif" font-size="9.00">enemyRadar[RightBack]</text>
</g>
<!-- enemyRadar[RightBack]&#45;&gt;Turn left/right -->
<g id="edge24" class="edge"><title>enemyRadar[RightBack]&#45;&gt;Turn left/right</title>
<path fill="none" stroke="green" stroke-width="0.124941" d="M1672.63,-205.808C1635.49,-186.253 1539.5,-135.721 1479.99,-104.394"/>
<polygon fill="green" stroke="green" stroke-width="0.124941" points="1481.61,-101.289 1471.13,-99.7276 1478.35,-107.483 1481.61,-101.289"/>
</g>
<!-- enemyRadar[LeftBack] -->
<g id="node10" class="node"><title>enemyRadar[LeftBack]</title>
<polygon fill="lightgray" stroke="black" points="1064.5,-293.647 965.5,-293.647 965.5,-275.647 1064.5,-275.647 1064.5,-293.647"/>
<text text-anchor="middle" x="1015" y="-282.447" font-family="Times,serif" font-size="9.00">enemyRadar[LeftBack]</text>
</g>
<!-- enemyRadar[LeftBack]&#45;&gt;Move Forward/Backward -->
<g id="edge27" class="edge"><title>enemyRadar[LeftBack]&#45;&gt;Move Forward/Backward</title>
<path fill="none" stroke="green" stroke-width="0.814629" stroke-dasharray="1,5" d="M965.422,-281.515C903.811,-277.706 803.96,-267.327 781,-239.647 738.617,-188.552 816.402,-139.674 883.524,-109.319"/>
<polygon fill="green" stroke="green" stroke-width="0.814629" points="885.186,-112.411 892.911,-105.16 882.35,-106.011 885.186,-112.411"/>
</g>
<!-- enemyRadar[LeftBack]&#45;&gt;Turn left/right -->
<g id="edge48" class="edge"><title>enemyRadar[LeftBack]&#45;&gt;Turn left/right</title>
<path fill="none" stroke="red" stroke-width="0.281865" stroke-dasharray="1,5" d="M1064.73,-283.605C1197.68,-282.979 1553.73,-277.729 1589,-239.647 1635.84,-189.081 1544.17,-132.081 1481.59,-101.117"/>
<polygon fill="red" stroke="red" stroke-width="0.281865" points="1483.11,-97.9654 1472.59,-96.7417 1480.05,-104.261 1483.11,-97.9654"/>
</g>
<!-- 8516 -->
<g id="node28" class="node"><title>8516</title>
<ellipse fill="white" stroke="black" cx="1015" cy="-214.898" rx="25" ry="25"/>
<text text-anchor="middle" x="1015" y="-212.698" font-family="Times,serif" font-size="9.00">8516</text>
</g>
<!-- enemyRadar[LeftBack]&#45;&gt;8516 -->
<g id="edge52" class="edge"><title>enemyRadar[LeftBack]&#45;&gt;8516</title>
<path fill="none" stroke="green" stroke-width="0.323897" d="M1015,-275.609C1015,-269.174 1015,-259.676 1015,-250.14"/>
<polygon fill="green" stroke="green" stroke-width="0.323897" points="1018.5,-249.919 1015,-239.919 1011.5,-249.919 1018.5,-249.919"/>
</g>
<!-- enemyRadar[Right45ø] -->
<g id="node11" class="node"><title>enemyRadar[Right45ø]</title>
<polygon fill="lightgray" stroke="black" points="404,-223.898 304,-223.898 304,-205.898 404,-205.898 404,-223.898"/>
<text text-anchor="middle" x="354" y="-212.698" font-family="Times,serif" font-size="9.00">enemyRadar[Right45ø]</text>
</g>
<!-- enemyRadar[Right45ø]&#45;&gt;Shoot -->
<g id="edge17" class="edge"><title>enemyRadar[Right45ø]&#45;&gt;Shoot</title>
<path fill="none" stroke="red" stroke-width="0.897974" d="M366.269,-205.808C398.005,-184.884 483.526,-128.496 529.605,-98.1155"/>
<polygon fill="red" stroke="red" stroke-width="0.897974" points="531.575,-101.009 537.997,-92.582 527.722,-95.1645 531.575,-101.009"/>
</g>
<!-- enemyRadar[Right45ø]&#45;&gt;Move Forward/Backward -->
<g id="edge37" class="edge"><title>enemyRadar[Right45ø]&#45;&gt;Move Forward/Backward</title>
<path fill="none" stroke="green" stroke-width="0.243401" stroke-dasharray="1,5" d="M371.505,-205.839C383.084,-200.762 398.71,-194.39 413,-190.149 492.467,-166.568 514.74,-170.518 596,-154.149 693.266,-134.556 804.82,-111.473 879.58,-95.914"/>
<polygon fill="green" stroke="green" stroke-width="0.243401" points="880.346,-99.3297 889.423,-93.8649 878.92,-92.4767 880.346,-99.3297"/>
</g>
<!-- enemyRadar[Left45ø] -->
<g id="node12" class="node"><title>enemyRadar[Left45ø]</title>
<polygon fill="lightgray" stroke="black" points="1396.5,-223.898 1301.5,-223.898 1301.5,-205.898 1396.5,-205.898 1396.5,-223.898"/>
<text text-anchor="middle" x="1349" y="-212.698" font-family="Times,serif" font-size="9.00">enemyRadar[Left45ø]</text>
</g>
<!-- enemyRadar[Left45ø]&#45;&gt;Move Forward/Backward -->
<g id="edge28" class="edge"><title>enemyRadar[Left45ø]&#45;&gt;Move Forward/Backward</title>
<path fill="none" stroke="green" stroke-width="0.293485" stroke-dasharray="1,5" d="M1330.64,-205.893C1319.53,-201.138 1305.03,-195.091 1292,-190.149 1209.64,-158.914 1114.22,-126.653 1047.8,-104.811"/>
<polygon fill="green" stroke="green" stroke-width="0.293485" points="1048.81,-101.458 1038.21,-101.665 1046.62,-108.109 1048.81,-101.458"/>
</g>
<!-- enemyRadar[Left45ø]&#45;&gt;Turn left/right -->
<g id="edge26" class="edge"><title>enemyRadar[Left45ø]&#45;&gt;Turn left/right</title>
<path fill="none" stroke="red" stroke-width="0.386632" stroke-dasharray="1,5" d="M1353.82,-205.808C1363.02,-190.385 1383.71,-155.694 1401.21,-126.353"/>
<polygon fill="red" stroke="red" stroke-width="0.386632" points="1404.4,-127.827 1406.52,-117.446 1398.39,-124.242 1404.4,-127.827"/>
</g>
<!-- enemyRadar[RightFront20ø] -->
<g id="node13" class="node"><title>enemyRadar[RightFront20ø]</title>
<polygon fill="lightgray" stroke="black" points="733.5,-223.898 614.5,-223.898 614.5,-205.898 733.5,-205.898 733.5,-223.898"/>
<text text-anchor="middle" x="674" y="-212.698" font-family="Times,serif" font-size="9.00">enemyRadar[RightFront20ø]</text>
</g>
<!-- enemyRadar[RightFront20ø]&#45;&gt;Shoot -->
<g id="edge32" class="edge"><title>enemyRadar[RightFront20ø]&#45;&gt;Shoot</title>
<path fill="none" stroke="green" stroke-width="1.23773" d="M667.21,-205.808C651.106,-186.621 609.972,-137.613 583.592,-106.183"/>
<polygon fill="green" stroke="green" stroke-width="1.23773" points="586.011,-103.621 576.902,-98.2118 580.65,-108.122 586.011,-103.621"/>
</g>
<!-- enemyRadar[RightFront20ø]&#45;&gt;Move Forward/Backward -->
<g id="edge34" class="edge"><title>enemyRadar[RightFront20ø]&#45;&gt;Move Forward/Backward</title>
<path fill="none" stroke="green" stroke-width="0.258888" stroke-dasharray="1,5" d="M691.332,-205.808C728.786,-188.327 819.273,-146.092 885.994,-114.95"/>
<polygon fill="green" stroke="green" stroke-width="0.258888" points="887.662,-118.034 895.243,-110.633 884.701,-111.691 887.662,-118.034"/>
</g>
<!-- enemyRadar[RightFront20ø]&#45;&gt;Turn left/right -->
<g id="edge22" class="edge"><title>enemyRadar[RightFront20ø]&#45;&gt;Turn left/right</title>
<path fill="none" stroke="green" stroke-width="0.19573" d="M706.635,-205.891C727.754,-200.899 755.893,-194.601 781,-190.149 900.203,-169.014 931.589,-174.072 1051,-154.149 1166.54,-134.872 1300.71,-106.518 1374.39,-90.4252"/>
<polygon fill="green" stroke="green" stroke-width="0.19573" points="1375.36,-93.7963 1384.38,-88.238 1373.86,-86.9583 1375.36,-93.7963"/>
</g>
<!-- enemyRadar[LeftFront20ø] -->
<g id="node14" class="node"><title>enemyRadar[LeftFront20ø]</title>
<polygon fill="lightgray" stroke="black" points="972,-223.898 858,-223.898 858,-205.898 972,-205.898 972,-223.898"/>
<text text-anchor="middle" x="915" y="-212.698" font-family="Times,serif" font-size="9.00">enemyRadar[LeftFront20ø]</text>
</g>
<!-- enemyRadar[LeftFront20ø]&#45;&gt;Shoot -->
<g id="edge35" class="edge"><title>enemyRadar[LeftFront20ø]&#45;&gt;Shoot</title>
<path fill="none" stroke="green" stroke-width="3.1002" d="M893.856,-205.808C834.836,-183.227 667.862,-119.343 594.874,-91.4174"/>
<polygon fill="green" stroke="green" stroke-width="3.1002" points="595.81,-88.0282 585.22,-87.7237 593.309,-94.566 595.81,-88.0282"/>
</g>
<!-- enemyRadar[LeftFront20ø]&#45;&gt;Move Forward/Backward -->
<g id="edge21" class="edge"><title>enemyRadar[LeftFront20ø]&#45;&gt;Move Forward/Backward</title>
<path fill="none" stroke="green" stroke-width="0.321744" stroke-dasharray="1,5" d="M917.978,-205.808C921.591,-195.993 928.078,-178.373 935.101,-159.294"/>
<polygon fill="green" stroke="green" stroke-width="0.321744" points="938.411,-160.433 938.582,-149.839 931.842,-158.015 938.411,-160.433"/>
</g>
<!-- enemyRadar[LeftFront20ø]&#45;&gt; Move Left/Right -->
<g id="edge49" class="edge"><title>enemyRadar[LeftFront20ø]&#45;&gt; Move Left/Right</title>
<path fill="none" stroke="green" stroke-width="0.495889" d="M933.099,-205.86C946.145,-200.447 964.32,-193.675 981,-190.149 1201.15,-143.62 1262.76,-182.336 1486,-154.149 1612.45,-138.183 1758.64,-109.112 1840.31,-91.9005"/>
<polygon fill="green" stroke="green" stroke-width="0.495889" points="1841.12,-95.3051 1850.18,-89.8106 1839.67,-88.4568 1841.12,-95.3051"/>
</g>
<!-- enemyRadar[RightFront15ø] -->
<g id="node15" class="node"><title>enemyRadar[RightFront15ø]</title>
<polygon fill="lightgray" stroke="black" points="1176.5,-223.898 1057.5,-223.898 1057.5,-205.898 1176.5,-205.898 1176.5,-223.898"/>
<text text-anchor="middle" x="1117" y="-212.698" font-family="Times,serif" font-size="9.00">enemyRadar[RightFront15ø]</text>
</g>
<!-- enemyRadar[RightFront15ø]&#45;&gt;Shoot -->
<g id="edge47" class="edge"><title>enemyRadar[RightFront15ø]&#45;&gt;Shoot</title>
<path fill="none" stroke="green" stroke-width="0.337317" d="M1096.08,-205.817C1082.75,-200.858 1065.02,-194.623 1049,-190.149 974.615,-169.375 954.346,-171.108 879,-154.149 776.036,-130.974 654.925,-101.473 595.935,-86.9593"/>
<polygon fill="green" stroke="green" stroke-width="0.337317" points="596.545,-83.5051 585.998,-84.5116 594.871,-90.3019 596.545,-83.5051"/>
</g>
<!-- enemyRadar[RightFront15ø]&#45;&gt;Move Forward/Backward -->
<g id="edge9" class="edge"><title>enemyRadar[RightFront15ø]&#45;&gt;Move Forward/Backward</title>
<path fill="none" stroke="green" stroke-width="0.427724" stroke-dasharray="1,5" d="M1107.95,-205.808C1092.51,-192.015 1059.83,-162.809 1029.6,-135.802"/>
<polygon fill="green" stroke="green" stroke-width="0.427724" points="1031.77,-133.048 1021.98,-128.994 1027.11,-138.267 1031.77,-133.048"/>
</g>
<!-- enemyRadar[RightFront15ø]&#45;&gt; Move Left/Right -->
<g id="edge16" class="edge"><title>enemyRadar[RightFront15ø]&#45;&gt; Move Left/Right</title>
<path fill="none" stroke="green" stroke-width="0.635703" d="M1136.31,-205.893C1149.74,-200.639 1168.19,-194.042 1185,-190.149 1316.26,-159.759 1352.77,-174.221 1486,-154.149 1612.03,-135.162 1758.36,-107.148 1840.17,-90.9429"/>
<polygon fill="green" stroke="green" stroke-width="0.635703" points="1840.94,-94.359 1850.07,-88.9783 1839.58,-87.4931 1840.94,-94.359"/>
</g>
<!-- enemyRadar[RightFront15ø]&#45;&gt;Turn left/right -->
<g id="edge1" class="edge"><title>enemyRadar[RightFront15ø]&#45;&gt;Turn left/right</title>
<path fill="none" stroke="green" stroke-width="0.231614" d="M1135.64,-205.808C1182.62,-185.422 1307.18,-131.371 1378.3,-100.508"/>
<polygon fill="green" stroke="green" stroke-width="0.231614" points="1379.77,-103.688 1387.55,-96.4961 1376.98,-97.2662 1379.77,-103.688"/>
</g>
<!-- enemyRadar[LeftFront15ø] -->
<g id="node16" class="node"><title>enemyRadar[LeftFront15ø]</title>
<polygon fill="lightgray" stroke="black" points="1622,-293.647 1508,-293.647 1508,-275.647 1622,-275.647 1622,-293.647"/>
<text text-anchor="middle" x="1565" y="-282.447" font-family="Times,serif" font-size="9.00">enemyRadar[LeftFront15ø]</text>
</g>
<!-- enemyRadar[LeftFront15ø]&#45;&gt;Shoot -->
<g id="edge43" class="edge"><title>enemyRadar[LeftFront15ø]&#45;&gt;Shoot</title>
<path fill="none" stroke="green" stroke-width="0.147284" d="M1507.98,-282.792C1259.65,-278.937 283.964,-262.365 262,-239.647 176.947,-151.673 426.637,-100.02 523.419,-83.7214"/>
<polygon fill="green" stroke="green" stroke-width="0.147284" points="524.069,-87.1616 533.366,-82.0806 522.929,-80.2549 524.069,-87.1616"/>
</g>
<!-- enemyRadar[LeftFront15ø]&#45;&gt; Move Left/Right -->
<g id="edge45" class="edge"><title>enemyRadar[LeftFront15ø]&#45;&gt; Move Left/Right</title>
<path fill="none" stroke="red" stroke-width="1.66403" d="M1622.01,-284.137C1773.42,-284.845 2176.81,-282.64 2217,-239.647 2297.06,-154.001 2081.67,-106.019 1968.45,-87.3212"/>
<polygon fill="red" stroke="red" stroke-width="1.66403" points="1968.92,-83.8517 1958.48,-85.7081 1967.8,-90.7617 1968.92,-83.8517"/>
</g>
<!-- enemyRadar[LeftFront15ø]&#45;&gt;Turn left/right -->
<g id="edge42" class="edge"><title>enemyRadar[LeftFront15ø]&#45;&gt;Turn left/right</title>
<path fill="none" stroke="red" stroke-width="0.405018" stroke-dasharray="1,5" d="M1622.1,-281.607C1728.43,-277.217 1948.12,-265.139 1971,-239.647 1985.69,-223.275 1984.89,-207.21 1971,-190.149 1955.56,-171.187 1621.39,-111.312 1486.11,-87.7425"/>
<polygon fill="red" stroke="red" stroke-width="0.405018" points="1486.4,-84.241 1475.95,-85.9757 1485.2,-91.1375 1486.4,-84.241"/>
</g>
<!-- enemyRadar[LeftFront15ø]&#45;&gt;8516 -->
<g id="edge54" class="edge"><title>enemyRadar[LeftFront15ø]&#45;&gt;8516</title>
<path fill="none" stroke="red" stroke-width="0.3937" d="M1507.65,-282.598C1391.19,-279.846 1131.01,-270.356 1048,-239.647 1046.11,-238.949 1044.24,-238.112 1042.39,-237.176"/>
<polygon fill="red" stroke="red" stroke-width="0.3937" points="1043.91,-234.005 1033.54,-231.85 1040.3,-240.003 1043.91,-234.005"/>
</g>
<!-- enemyRadar[RightFront7.5ø] -->
<g id="node17" class="node"><title>enemyRadar[RightFront7.5ø]</title>
<polygon fill="lightgray" stroke="black" points="210,-223.898 88,-223.898 88,-205.898 210,-205.898 210,-223.898"/>
<text text-anchor="middle" x="149" y="-212.698" font-family="Times,serif" font-size="9.00">enemyRadar[RightFront7.5ø]</text>
</g>
<!-- enemyRadar[RightFront7.5ø]&#45;&gt;Shoot -->
<g id="edge5" class="edge"><title>enemyRadar[RightFront7.5ø]&#45;&gt;Shoot</title>
<path fill="none" stroke="red" stroke-width="0.60494" d="M173.479,-205.808C243.25,-182.751 443.323,-116.633 524.819,-89.701"/>
<polygon fill="red" stroke="red" stroke-width="0.60494" points="526.208,-92.928 534.605,-86.4669 524.012,-86.2815 526.208,-92.928"/>
</g>
<!-- enemyRadar[LeftFront7.5ø] -->
<g id="node18" class="node"><title>enemyRadar[LeftFront7.5ø]</title>
<polygon fill="lightgray" stroke="black" points="1580,-223.898 1464,-223.898 1464,-205.898 1580,-205.898 1580,-223.898"/>
<text text-anchor="middle" x="1522" y="-212.698" font-family="Times,serif" font-size="9.00">enemyRadar[LeftFront7.5ø]</text>
</g>
<!-- enemyRadar[LeftFront7.5ø]&#45;&gt;Move Forward/Backward -->
<g id="edge36" class="edge"><title>enemyRadar[LeftFront7.5ø]&#45;&gt;Move Forward/Backward</title>
<path fill="none" stroke="red" stroke-width="1.00817" stroke-dasharray="1,5" d="M1500.76,-205.798C1487.44,-200.892 1469.86,-194.721 1454,-190.149 1314.23,-149.858 1148.7,-114.437 1050.51,-94.6806"/>
<polygon fill="red" stroke="red" stroke-width="1.00817" points="1051.13,-91.2351 1040.64,-92.7009 1049.75,-98.0985 1051.13,-91.2351"/>
</g>
<!-- enemyRadar[LeftFront7.5ø]&#45;&gt; Move Left/Right -->
<g id="edge6" class="edge"><title>enemyRadar[LeftFront7.5ø]&#45;&gt; Move Left/Right</title>
<path fill="none" stroke="red" stroke-width="0.573015" stroke-dasharray="1,5" d="M1544.75,-205.808C1602.5,-185.276 1756.28,-130.597 1842.76,-99.85"/>
<polygon fill="red" stroke="red" stroke-width="0.573015" points="1843.94,-103.144 1852.19,-96.4961 1841.6,-96.5486 1843.94,-103.144"/>
</g>
<!-- enemyRadar[RightFront2.5ø] -->
<g id="node19" class="node"><title>enemyRadar[RightFront2.5ø]</title>
<polygon fill="lightgray" stroke="black" points="2335,-293.647 2213,-293.647 2213,-275.647 2335,-275.647 2335,-293.647"/>
<text text-anchor="middle" x="2274" y="-282.447" font-family="Times,serif" font-size="9.00">enemyRadar[RightFront2.5ø]</text>
</g>
<!-- enemyRadar[RightFront2.5ø]&#45;&gt;Shoot -->
<g id="edge19" class="edge"><title>enemyRadar[RightFront2.5ø]&#45;&gt;Shoot</title>
<path fill="none" stroke="red" stroke-width="0.743444" stroke-dasharray="1,5" d="M2212.9,-282.865C1881.34,-278.552 312.191,-257.224 295,-239.647 217.716,-160.626 434.429,-104.503 523.61,-85.3184"/>
<polygon fill="red" stroke="red" stroke-width="0.743444" points="524.516,-88.7044 533.577,-83.2142 523.07,-81.8554 524.516,-88.7044"/>
</g>
<!-- enemyRadar[RightFront2.5ø]&#45;&gt; Move Left/Right -->
<g id="edge12" class="edge"><title>enemyRadar[RightFront2.5ø]&#45;&gt; Move Left/Right</title>
<path fill="none" stroke="green" stroke-width="1.50247" d="M2273.29,-275.638C2271.27,-257.748 2263.94,-214.224 2239,-190.149 2164.83,-118.554 2043.63,-92.6596 1969.14,-83.3181"/>
<polygon fill="green" stroke="green" stroke-width="1.50247" points="1969.29,-79.8116 1958.95,-82.1068 1968.46,-86.7627 1969.29,-79.8116"/>
</g>
<!-- 8341 -->
<g id="node29" class="node"><title>8341</title>
<ellipse fill="white" stroke="black" cx="2327" cy="-214.898" rx="25" ry="25"/>
<text text-anchor="middle" x="2327" y="-212.698" font-family="Times,serif" font-size="9.00">8341</text>
</g>
<!-- enemyRadar[RightFront2.5ø]&#45;&gt;8341 -->
<g id="edge50" class="edge"><title>enemyRadar[RightFront2.5ø]&#45;&gt;8341</title>
<path fill="none" stroke="green" stroke-width="0.247703" d="M2280.29,-275.609C2286.62,-267.521 2296.73,-254.595 2305.93,-242.835"/>
<polygon fill="green" stroke="green" stroke-width="0.247703" points="2308.69,-244.986 2312.09,-234.953 2303.17,-240.673 2308.69,-244.986"/>
</g>
<!-- enemyRadar[LeftFront2.5ø] -->
<g id="node20" class="node"><title>enemyRadar[LeftFront2.5ø]</title>
<polygon fill="lightgray" stroke="black" points="1962,-223.898 1846,-223.898 1846,-205.898 1962,-205.898 1962,-223.898"/>
<text text-anchor="middle" x="1904" y="-212.698" font-family="Times,serif" font-size="9.00">enemyRadar[LeftFront2.5ø]</text>
</g>
<!-- enemyRadar[LeftFront2.5ø]&#45;&gt;Move Forward/Backward -->
<g id="edge14" class="edge"><title>enemyRadar[LeftFront2.5ø]&#45;&gt;Move Forward/Backward</title>
<path fill="none" stroke="red" stroke-width="0.262693" d="M1885.61,-205.898C1872.35,-200.502 1853.9,-193.736 1837,-190.149 1635.1,-147.301 1578.64,-181.059 1374,-154.149 1261.32,-139.332 1132.64,-113.988 1050.19,-96.6566"/>
<polygon fill="red" stroke="red" stroke-width="0.262693" points="1050.88,-93.2245 1040.37,-94.584 1049.44,-100.074 1050.88,-93.2245"/>
</g>
<!-- enemyRadar[LeftFront2.5ø]&#45;&gt; Move Left/Right -->
<g id="edge15" class="edge"><title>enemyRadar[LeftFront2.5ø]&#45;&gt; Move Left/Right</title>
<path fill="none" stroke="red" stroke-width="0.611839" stroke-dasharray="1,5" d="M1904,-205.808C1904,-193.159 1904,-167.551 1904,-142.562"/>
<polygon fill="red" stroke="red" stroke-width="0.611839" points="1907.5,-142.305 1904,-132.305 1900.5,-142.305 1907.5,-142.305"/>
</g>
<!-- enemyRadar[LeftFront2.5ø]&#45;&gt;Turn left/right -->
<g id="edge25" class="edge"><title>enemyRadar[LeftFront2.5ø]&#45;&gt;Turn left/right</title>
<path fill="none" stroke="red" stroke-width="0.181752" stroke-dasharray="1,5" d="M1882.41,-205.8C1869.34,-201.011 1852.3,-194.962 1837,-190.149 1712.38,-150.96 1563.99,-112.01 1485.34,-91.9651"/>
<polygon fill="red" stroke="red" stroke-width="0.181752" points="1485.73,-88.4533 1475.18,-89.3811 1484.01,-95.2374 1485.73,-88.4533"/>
</g>
<!-- enemyRadar[Front7Ø] -->
<g id="node21" class="node"><title>enemyRadar[Front7Ø]</title>
<polygon fill="lightgray" stroke="black" points="2208,-223.898 2110,-223.898 2110,-205.898 2208,-205.898 2208,-223.898"/>
<text text-anchor="middle" x="2159" y="-212.698" font-family="Times,serif" font-size="9.00">enemyRadar[Front7Ø]</text>
</g>
<!-- enemyRadar[Front7Ø]&#45;&gt; Move Left/Right -->
<g id="edge11" class="edge"><title>enemyRadar[Front7Ø]&#45;&gt; Move Left/Right</title>
<path fill="none" stroke="red" stroke-width="0.442503" d="M2143.81,-205.808C2108.68,-187.095 2020.29,-140.015 1961.2,-108.543"/>
<polygon fill="red" stroke="red" stroke-width="0.442503" points="1962.82,-105.437 1952.35,-103.825 1959.53,-111.616 1962.82,-105.437"/>
</g>
<!-- enemyRadar[Front7Ø]&#45;&gt;Turn left/right -->
<g id="edge40" class="edge"><title>enemyRadar[Front7Ø]&#45;&gt;Turn left/right</title>
<path fill="none" stroke="green" stroke-width="0.643897" stroke-dasharray="1,5" d="M2142.13,-205.67C2130.77,-200.457 2115.29,-193.994 2101,-190.149 1987.92,-159.723 1955.6,-172.836 1840,-154.149 1712.95,-133.612 1564.65,-104.914 1485.87,-89.2919"/>
<polygon fill="green" stroke="green" stroke-width="0.643897" points="1486.18,-85.7848 1475.69,-87.2687 1484.81,-92.6506 1486.18,-85.7848"/>
</g>
<!-- OnTarget -->
<g id="node22" class="node"><title>OnTarget</title>
<polygon fill="lightgray" stroke="black" points="840,-223.898 790,-223.898 790,-205.898 840,-205.898 840,-223.898"/>
<text text-anchor="middle" x="815" y="-212.698" font-family="Times,serif" font-size="9.00">OnTarget</text>
</g>
<!-- OnTarget&#45;&gt;Shoot -->
<g id="edge39" class="edge"><title>OnTarget&#45;&gt;Shoot</title>
<path fill="none" stroke="red" stroke-width="0.47846" stroke-dasharray="1,5" d="M799.812,-205.808C759.371,-184.268 648.369,-125.144 592.715,-95.4999"/>
<polygon fill="red" stroke="red" stroke-width="0.47846" points="594.107,-92.2762 583.636,-90.6641 590.817,-98.4544 594.107,-92.2762"/>
</g>
<!-- OnTarget&#45;&gt;Move Forward/Backward -->
<g id="edge46" class="edge"><title>OnTarget&#45;&gt;Move Forward/Backward</title>
<path fill="none" stroke="green" stroke-width="0.641451" stroke-dasharray="1,5" d="M823.934,-205.808C839.051,-192.12 870.93,-163.254 900.563,-136.421"/>
<polygon fill="green" stroke="green" stroke-width="0.641451" points="902.974,-138.96 908.037,-129.654 898.275,-133.771 902.974,-138.96"/>
</g>
<!-- OnTarget&#45;&gt;Turn left/right -->
<g id="edge8" class="edge"><title>OnTarget&#45;&gt;Turn left/right</title>
<path fill="none" stroke="green" stroke-width="0.131402" d="M824.162,-205.838C830.658,-200.559 839.821,-193.955 849,-190.149 933.239,-155.223 961.401,-171.124 1051,-154.149 1166.09,-132.346 1300.42,-104.91 1374.26,-89.6578"/>
<polygon fill="green" stroke="green" stroke-width="0.131402" points="1375.18,-93.0408 1384.27,-87.5884 1373.76,-86.1858 1375.18,-93.0408"/>
</g>
<!-- bias -->
<g id="node23" class="node"><title>bias</title>
<polygon fill="lightgray" stroke="black" points="1445.5,-223.898 1414.5,-223.898 1414.5,-205.898 1445.5,-205.898 1445.5,-223.898"/>
<text text-anchor="middle" x="1430" y="-212.698" font-family="Times,serif" font-size="9.00">bias</text>
</g>
<!-- bias&#45;&gt;Shoot -->
<g id="edge20" class="edge"><title>bias&#45;&gt;Shoot</title>
<path fill="none" stroke="red" stroke-width="1.51907" d="M1423.98,-205.765C1419.43,-200.308 1412.67,-193.521 1405,-190.149 1297.74,-143.014 994.825,-171.799 879,-154.149 774.664,-138.25 654.169,-105.488 595.622,-88.6209"/>
<polygon fill="red" stroke="red" stroke-width="1.51907" points="596.342,-85.1857 585.763,-85.7617 594.392,-91.9087 596.342,-85.1857"/>
</g>
<!-- bias&#45;&gt; Move Left/Right -->
<g id="edge33" class="edge"><title>bias&#45;&gt; Move Left/Right</title>
<path fill="none" stroke="green" stroke-width="0.232304" d="M1436.63,-205.719C1441.25,-200.526 1447.86,-194.068 1455,-190.149 1580.11,-121.448 1747.81,-94.1255 1838.73,-83.8367"/>
<polygon fill="green" stroke="green" stroke-width="0.232304" points="1839.34,-87.2914 1848.9,-82.7217 1838.57,-80.3332 1839.34,-87.2914"/>
</g>
<!-- bias&#45;&gt;Turn left/right -->
<g id="edge23" class="edge"><title>bias&#45;&gt;Turn left/right</title>
<path fill="none" stroke="green" stroke-width="0.523286" stroke-dasharray="1,5" d="M1430,-205.808C1430,-191.73 1430,-161.599 1430,-134.136"/>
<polygon fill="green" stroke="green" stroke-width="0.523286" points="1433.5,-133.78 1430,-123.78 1426.5,-133.78 1433.5,-133.78"/>
</g>
<!-- 8516&#45;&gt;Move Forward/Backward -->
<g id="edge53" class="edge"><title>8516&#45;&gt;Move Forward/Backward</title>
<path fill="none" stroke="green" stroke-width="0.810489" d="M1006.74,-191.47C1003.35,-182.254 999.198,-170.971 994.84,-159.134"/>
<polygon fill="green" stroke="green" stroke-width="0.810489" points="998.051,-157.726 991.312,-149.551 991.482,-160.144 998.051,-157.726"/>
</g>
<!-- 8341&#45;&gt; Move Left/Right -->
<g id="edge51" class="edge"><title>8341&#45;&gt; Move Left/Right</title>
<path fill="none" stroke="green" stroke-width="1.71082" d="M2306.9,-200.277C2300.99,-196.651 2294.38,-192.965 2288,-190.149 2179.91,-142.466 2045.91,-108.666 1968.17,-91.3534"/>
<polygon fill="green" stroke="green" stroke-width="1.71082" points="1968.56,-87.8565 1958.04,-89.1215 1967.05,-94.6923 1968.56,-87.8565"/>
</g>
</g>
</svg>
