<?xml version="1.0" encoding="UTF-8" standalone="no"?>
<!DOCTYPE svg PUBLIC "-//W3C//DTD SVG 1.1//EN"
 "http://www.w3.org/Graphics/SVG/1.1/DTD/svg11.dtd">
<!-- Generated by graphviz version 2.38.0 (20140413.2041)
 -->
<!-- Title: %3 Pages: 1 -->
<svg width="2629pt" height="295pt"
 viewBox="0.00 0.00 2628.50 294.58" xmlns="http://www.w3.org/2000/svg" xmlns:xlink="http://www.w3.org/1999/xlink">
<g id="graph0" class="graph" transform="scale(1 1) rotate(0) translate(4 290.576)">
<title>%3</title>
<polygon fill="white" stroke="none" points="-4,4 -4,-290.576 2624.5,-290.576 2624.5,4 -4,4"/>
<!-- wallRadar[1,0] -->
<g id="node1" class="node"><title>wallRadar[1,0]</title>
<polygon fill="lightgray" stroke="black" points="566.5,-220.362 496.5,-220.362 496.5,-202.362 566.5,-202.362 566.5,-220.362"/>
<text text-anchor="middle" x="531.5" y="-209.162" font-family="Times,serif" font-size="9.00">wallRadar[1,0]</text>
</g>
<!-- Shoot -->
<g id="node24" class="node"><title>Shoot</title>
<ellipse fill="lightblue" stroke="black" cx="831.5" cy="-77.0746" rx="26.7407" ry="26.7407"/>
<text text-anchor="middle" x="831.5" y="-74.8746" font-family="Times,serif" font-size="9.00">Shoot</text>
</g>
<!-- wallRadar[1,0]&#45;&gt;Shoot -->
<g id="edge43" class="edge"><title>wallRadar[1,0]&#45;&gt;Shoot</title>
<path fill="none" stroke="green" stroke-width="0.893002" d="M549.024,-202.225C557.074,-198.509 566.756,-194.071 575.5,-190.149 654.974,-154.501 748.883,-113.733 797.894,-92.5581"/>
<polygon fill="green" stroke="green" stroke-width="0.893002" points="799.287,-95.7692 807.08,-88.5918 796.512,-89.3427 799.287,-95.7692"/>
</g>
<!-- wallRadar[0,1] -->
<g id="node2" class="node"><title>wallRadar[0,1]</title>
<polygon fill="lightgray" stroke="black" points="654.5,-220.362 584.5,-220.362 584.5,-202.362 654.5,-202.362 654.5,-220.362"/>
<text text-anchor="middle" x="619.5" y="-209.162" font-family="Times,serif" font-size="9.00">wallRadar[0,1]</text>
</g>
<!-- wallRadar[0,1]&#45;&gt;Shoot -->
<g id="edge14" class="edge"><title>wallRadar[0,1]&#45;&gt;Shoot</title>
<path fill="none" stroke="green" stroke-width="0.101634" d="M632.442,-202.286C665.38,-181.733 753.111,-126.989 800.349,-97.513"/>
<polygon fill="green" stroke="green" stroke-width="0.101634" points="802.321,-100.408 808.952,-92.1446 798.615,-94.4692 802.321,-100.408"/>
</g>
<!-- wallRadar[&#45;1,0] -->
<g id="node3" class="node"><title>wallRadar[&#45;1,0]</title>
<polygon fill="lightgray" stroke="black" points="868,-220.362 795,-220.362 795,-202.362 868,-202.362 868,-220.362"/>
<text text-anchor="middle" x="831.5" y="-209.162" font-family="Times,serif" font-size="9.00">wallRadar[&#45;1,0]</text>
</g>
<!-- wallRadar[&#45;1,0]&#45;&gt;Shoot -->
<g id="edge18" class="edge"><title>wallRadar[&#45;1,0]&#45;&gt;Shoot</title>
<path fill="none" stroke="red" stroke-width="0.502453" d="M831.5,-202.087C831.5,-184.884 831.5,-144.359 831.5,-114.29"/>
<polygon fill="red" stroke="red" stroke-width="0.502453" points="835,-114.146 831.5,-104.146 828,-114.146 835,-114.146"/>
</g>
<!-- Move Forward/Backward -->
<g id="node25" class="node"><title>Move Forward/Backward</title>
<ellipse fill="lightblue" stroke="black" cx="566.5" cy="-77.0746" rx="77.1494" ry="77.1494"/>
<text text-anchor="middle" x="566.5" y="-74.8746" font-family="Times,serif" font-size="9.00">Move Forward/Backward</text>
</g>
<!-- wallRadar[&#45;1,0]&#45;&gt;Move Forward/Backward -->
<g id="edge23" class="edge"><title>wallRadar[&#45;1,0]&#45;&gt;Move Forward/Backward</title>
<path fill="none" stroke="green" stroke-width="0.16939" d="M815.322,-202.286C782.08,-185.692 704.191,-146.81 644.342,-116.933"/>
<polygon fill="green" stroke="green" stroke-width="0.16939" points="645.786,-113.743 635.276,-112.408 642.66,-120.006 645.786,-113.743"/>
</g>
<!-- Turn left/right -->
<g id="node27" class="node"><title>Turn left/right</title>
<ellipse fill="lightblue" stroke="black" cx="1780.5" cy="-77.0746" rx="46.8387" ry="46.8387"/>
<text text-anchor="middle" x="1780.5" y="-74.8746" font-family="Times,serif" font-size="9.00">Turn left/right</text>
</g>
<!-- wallRadar[&#45;1,0]&#45;&gt;Turn left/right -->
<g id="edge16" class="edge"><title>wallRadar[&#45;1,0]&#45;&gt;Turn left/right</title>
<path fill="none" stroke="red" stroke-width="0.295513" d="M846.363,-202.233C855.15,-197.839 866.65,-192.785 877.5,-190.149 1125.89,-129.805 1198.57,-191.067 1451.5,-154.149 1549.24,-139.883 1660.83,-111.443 1725.71,-93.6656"/>
<polygon fill="red" stroke="red" stroke-width="0.295513" points="1727,-96.94 1735.71,-90.9077 1725.14,-90.1919 1727,-96.94"/>
</g>
<!-- wallRadar[0,&#45;1] -->
<g id="node4" class="node"><title>wallRadar[0,&#45;1]</title>
<polygon fill="lightgray" stroke="black" points="1765,-220.362 1692,-220.362 1692,-202.362 1765,-202.362 1765,-220.362"/>
<text text-anchor="middle" x="1728.5" y="-209.162" font-family="Times,serif" font-size="9.00">wallRadar[0,&#45;1]</text>
</g>
<!-- wallRadar[0,&#45;1]&#45;&gt;Shoot -->
<g id="edge28" class="edge"><title>wallRadar[0,&#45;1]&#45;&gt;Shoot</title>
<path fill="none" stroke="green" stroke-width="0.143487" stroke-dasharray="1,5" d="M1699.14,-202.349C1683.1,-198.211 1662.82,-193.368 1644.5,-190.149 1503.1,-165.308 1465.8,-173.122 1323.5,-154.149 1152.75,-131.384 949.666,-97.9566 868.084,-84.2665"/>
<polygon fill="green" stroke="green" stroke-width="0.143487" points="868.286,-80.7514 857.844,-82.5446 867.125,-87.6545 868.286,-80.7514"/>
</g>
<!-- wallRadar[0,&#45;1]&#45;&gt;Turn left/right -->
<g id="edge2" class="edge"><title>wallRadar[0,&#45;1]&#45;&gt;Turn left/right</title>
<path fill="none" stroke="red" stroke-width="0.206049" d="M1731.75,-202.087C1737.38,-187.768 1749.36,-157.291 1760.04,-130.136"/>
<polygon fill="red" stroke="red" stroke-width="0.206049" points="1763.34,-131.288 1763.74,-120.701 1756.83,-128.727 1763.34,-131.288"/>
</g>
<!-- wallRadar[0.7,0.7] -->
<g id="node5" class="node"><title>wallRadar[0.7,0.7]</title>
<polygon fill="lightgray" stroke="black" points="83,-220.362 0,-220.362 0,-202.362 83,-202.362 83,-220.362"/>
<text text-anchor="middle" x="41.5" y="-209.162" font-family="Times,serif" font-size="9.00">wallRadar[0.7,0.7]</text>
</g>
<!-- wallRadar[0.7,0.7]&#45;&gt;Move Forward/Backward -->
<g id="edge29" class="edge"><title>wallRadar[0.7,0.7]&#45;&gt;Move Forward/Backward</title>
<path fill="none" stroke="red" stroke-width="0.28706" d="M62.0598,-202.317C72.5688,-198.365 85.6162,-193.702 97.5,-190.149 229.969,-150.549 386.716,-115.398 481.281,-95.4377"/>
<polygon fill="red" stroke="red" stroke-width="0.28706" points="482.018,-98.8594 491.083,-93.3761 480.577,-92.0093 482.018,-98.8594"/>
</g>
<!-- wallRadar[&#45;0.7,0.7] -->
<g id="node6" class="node"><title>wallRadar[&#45;0.7,0.7]</title>
<polygon fill="lightgray" stroke="black" points="2362.5,-220.362 2276.5,-220.362 2276.5,-202.362 2362.5,-202.362 2362.5,-220.362"/>
<text text-anchor="middle" x="2319.5" y="-209.162" font-family="Times,serif" font-size="9.00">wallRadar[&#45;0.7,0.7]</text>
</g>
<!--  Move Left/Right -->
<g id="node26" class="node"><title> Move Left/Right</title>
<ellipse fill="lightblue" stroke="black" cx="1387.5" cy="-77.0746" rx="55.3091" ry="55.3091"/>
<text text-anchor="middle" x="1387.5" y="-74.8746" font-family="Times,serif" font-size="9.00"> Move Left/Right</text>
</g>
<!-- wallRadar[&#45;0.7,0.7]&#45;&gt; Move Left/Right -->
<g id="edge13" class="edge"><title>wallRadar[&#45;0.7,0.7]&#45;&gt; Move Left/Right</title>
<path fill="none" stroke="green" stroke-width="0.374298" d="M2302.58,-202.271C2292.6,-197.89 2279.6,-192.836 2267.5,-190.149 2031.39,-137.729 1963.86,-188.884 1724.5,-154.149 1627.81,-140.119 1517.73,-113.144 1450.44,-95.3772"/>
<polygon fill="green" stroke="green" stroke-width="0.374298" points="1450.99,-91.9012 1440.43,-92.7169 1449.19,-98.6666 1450.99,-91.9012"/>
</g>
<!-- wallRadar[&#45;0.7,0.7]&#45;&gt;Turn left/right -->
<g id="edge54" class="edge"><title>wallRadar[&#45;0.7,0.7]&#45;&gt;Turn left/right</title>
<path fill="none" stroke="red" stroke-width="0.127539" d="M2300.47,-202.203C2290.73,-198.222 2278.61,-193.567 2267.5,-190.149 2113.84,-142.875 1927.47,-105.318 1836.25,-88.1795"/>
<polygon fill="red" stroke="red" stroke-width="0.127539" points="1836.87,-84.7353 1826.4,-86.3388 1835.59,-91.6162 1836.87,-84.7353"/>
</g>
<!-- wallRadar[&#45;0.7,&#45;0.7] -->
<g id="node7" class="node"><title>wallRadar[&#45;0.7,&#45;0.7]</title>
<polygon fill="lightgray" stroke="black" points="2126,-220.362 2037,-220.362 2037,-202.362 2126,-202.362 2126,-220.362"/>
<text text-anchor="middle" x="2081.5" y="-209.162" font-family="Times,serif" font-size="9.00">wallRadar[&#45;0.7,&#45;0.7]</text>
</g>
<!-- wallRadar[&#45;0.7,&#45;0.7]&#45;&gt; Move Left/Right -->
<g id="edge20" class="edge"><title>wallRadar[&#45;0.7,&#45;0.7]&#45;&gt; Move Left/Right</title>
<path fill="none" stroke="green" stroke-width="0.162567" d="M2063.7,-202.311C2053.58,-198.055 2040.55,-193.112 2028.5,-190.149 1896.38,-157.662 1858.6,-177.16 1724.5,-154.149 1628.35,-137.65 1518.34,-111.407 1450.9,-94.4621"/>
<polygon fill="green" stroke="green" stroke-width="0.162567" points="1451.41,-90.9811 1440.85,-91.9286 1449.69,-97.7685 1451.41,-90.9811"/>
</g>
<!-- wallRadar[&#45;0.7,&#45;0.7]&#45;&gt;Turn left/right -->
<g id="edge10" class="edge"><title>wallRadar[&#45;0.7,&#45;0.7]&#45;&gt;Turn left/right</title>
<path fill="none" stroke="green" stroke-width="0.300234" d="M2063.12,-202.286C2018.08,-182.49 1900.86,-130.973 1832.36,-100.867"/>
<polygon fill="green" stroke="green" stroke-width="0.300234" points="1833.59,-97.5864 1823.03,-96.7671 1830.78,-103.995 1833.59,-97.5864"/>
</g>
<!-- wallRadar[0.7,&#45;0.7] -->
<g id="node8" class="node"><title>wallRadar[0.7,&#45;0.7]</title>
<polygon fill="lightgray" stroke="black" points="1050.5,-286.576 964.5,-286.576 964.5,-268.576 1050.5,-268.576 1050.5,-286.576"/>
<text text-anchor="middle" x="1007.5" y="-275.376" font-family="Times,serif" font-size="9.00">wallRadar[0.7,&#45;0.7]</text>
</g>
<!-- wallRadar[0.7,&#45;0.7]&#45;&gt;Shoot -->
<g id="edge48" class="edge"><title>wallRadar[0.7,&#45;0.7]&#45;&gt;Shoot</title>
<path fill="none" stroke="red" stroke-width="0.389022" d="M964.165,-276.19C845.071,-274.684 519.493,-267.39 487.5,-232.576 474.741,-218.692 475.673,-204.835 487.5,-190.149 534.579,-131.691 580.981,-176.928 652.5,-154.149 704.848,-137.476 762.96,-111.267 798.364,-94.3787"/>
<polygon fill="red" stroke="red" stroke-width="0.389022" points="800.228,-97.3659 807.724,-89.878 797.195,-91.0573 800.228,-97.3659"/>
</g>
<!-- wallRadar[0.7,&#45;0.7]&#45;&gt;Move Forward/Backward -->
<g id="edge47" class="edge"><title>wallRadar[0.7,&#45;0.7]&#45;&gt;Move Forward/Backward</title>
<path fill="none" stroke="red" stroke-width="0.246315" d="M964.431,-276.044C792.024,-273.711 159.523,-263.092 130.5,-232.576 24.0173,-120.617 323.866,-89.6767 479.425,-81.2137"/>
<polygon fill="red" stroke="red" stroke-width="0.246315" points="479.653,-84.7066 489.457,-80.6881 479.287,-77.7162 479.653,-84.7066"/>
</g>
<!-- wallRadar[0.7,&#45;0.7]&#45;&gt; Move Left/Right -->
<g id="edge8" class="edge"><title>wallRadar[0.7,&#45;0.7]&#45;&gt; Move Left/Right</title>
<path fill="none" stroke="green" stroke-width="0.201938" stroke-dasharray="1,5" d="M1050.52,-276.915C1187.07,-277.545 1604.08,-275.882 1644.5,-232.576 1710.11,-162.275 1547.24,-112.988 1451.45,-90.9898"/>
<polygon fill="green" stroke="green" stroke-width="0.201938" points="1452.07,-87.5417 1441.54,-88.7571 1450.53,-94.3704 1452.07,-87.5417"/>
</g>
<!-- 545 -->
<g id="node28" class="node"><title>545</title>
<ellipse fill="white" stroke="black" cx="1546.5" cy="-211.362" rx="21.4286" ry="21.4286"/>
<text text-anchor="middle" x="1546.5" y="-209.162" font-family="Times,serif" font-size="9.00">545</text>
</g>
<!-- wallRadar[0.7,&#45;0.7]&#45;&gt;545 -->
<g id="edge52" class="edge"><title>wallRadar[0.7,&#45;0.7]&#45;&gt;545</title>
<path fill="none" stroke="green" stroke-width="0.137692" d="M1050.63,-275.618C1157.29,-272.807 1430.99,-262.784 1516.5,-232.576 1518.17,-231.986 1519.83,-231.281 1521.48,-230.494"/>
<polygon fill="green" stroke="green" stroke-width="0.137692" points="1523.57,-233.327 1530.49,-225.305 1520.08,-227.26 1523.57,-233.327"/>
</g>
<!-- enemyRadar[RightBack] -->
<g id="node9" class="node"><title>enemyRadar[RightBack]</title>
<polygon fill="lightgray" stroke="black" points="776.5,-220.362 672.5,-220.362 672.5,-202.362 776.5,-202.362 776.5,-220.362"/>
<text text-anchor="middle" x="724.5" y="-209.162" font-family="Times,serif" font-size="9.00">enemyRadar[RightBack]</text>
</g>
<!-- enemyRadar[RightBack]&#45;&gt;Shoot -->
<g id="edge7" class="edge"><title>enemyRadar[RightBack]&#45;&gt;Shoot</title>
<path fill="none" stroke="red" stroke-width="0.342184" d="M731.193,-202.087C746.332,-183.371 783.798,-137.05 808.409,-106.622"/>
<polygon fill="red" stroke="red" stroke-width="0.342184" points="811.413,-108.474 814.981,-98.4976 805.971,-104.072 811.413,-108.474"/>
</g>
<!-- enemyRadar[RightBack]&#45;&gt;Move Forward/Backward -->
<g id="edge19" class="edge"><title>enemyRadar[RightBack]&#45;&gt;Move Forward/Backward</title>
<path fill="none" stroke="green" stroke-width="0.661295" d="M714.616,-202.087C698.299,-188.425 664.415,-160.055 633.169,-133.895"/>
<polygon fill="green" stroke="green" stroke-width="0.661295" points="635.209,-131.037 625.295,-127.301 630.715,-136.405 635.209,-131.037"/>
</g>
<!-- enemyRadar[RightBack]&#45;&gt; Move Left/Right -->
<g id="edge11" class="edge"><title>enemyRadar[RightBack]&#45;&gt; Move Left/Right</title>
<path fill="none" stroke="green" stroke-width="0.811256" d="M746.309,-202.336C757.847,-198.293 772.319,-193.543 785.5,-190.149 978.68,-140.406 1212.09,-103.372 1322.97,-87.14"/>
<polygon fill="green" stroke="green" stroke-width="0.811256" points="1323.6,-90.5853 1333,-85.6809 1322.6,-83.6583 1323.6,-90.5853"/>
</g>
<!-- enemyRadar[LeftBack] -->
<g id="node10" class="node"><title>enemyRadar[LeftBack]</title>
<polygon fill="lightgray" stroke="black" points="1260,-220.362 1161,-220.362 1161,-202.362 1260,-202.362 1260,-220.362"/>
<text text-anchor="middle" x="1210.5" y="-209.162" font-family="Times,serif" font-size="9.00">enemyRadar[LeftBack]</text>
</g>
<!-- enemyRadar[LeftBack]&#45;&gt;Shoot -->
<g id="edge40" class="edge"><title>enemyRadar[LeftBack]&#45;&gt;Shoot</title>
<path fill="none" stroke="green" stroke-width="0.265231" d="M1187.36,-202.286C1123.22,-179.899 942.866,-116.946 866.433,-90.2678"/>
<polygon fill="green" stroke="green" stroke-width="0.265231" points="867.381,-86.8917 856.786,-86.9006 865.074,-93.5007 867.381,-86.8917"/>
</g>
<!-- enemyRadar[LeftBack]&#45;&gt;Move Forward/Backward -->
<g id="edge45" class="edge"><title>enemyRadar[LeftBack]&#45;&gt;Move Forward/Backward</title>
<path fill="none" stroke="green" stroke-width="0.242929" stroke-dasharray="1,5" d="M1190.62,-202.275C1179.33,-198.008 1164.83,-193.066 1151.5,-190.149 996.147,-156.155 951.01,-187.418 795.5,-154.149 745.322,-143.414 690.736,-125.537 647.448,-109.808"/>
<polygon fill="green" stroke="green" stroke-width="0.242929" points="648.421,-106.437 637.827,-106.281 646.011,-113.009 648.421,-106.437"/>
</g>
<!-- enemyRadar[LeftBack]&#45;&gt; Move Left/Right -->
<g id="edge35" class="edge"><title>enemyRadar[LeftBack]&#45;&gt; Move Left/Right</title>
<path fill="none" stroke="green" stroke-width="0.360892" d="M1221.31,-202.286C1243.5,-185.702 1295.47,-146.858 1335.43,-116.988"/>
<polygon fill="green" stroke="green" stroke-width="0.360892" points="1337.59,-119.743 1343.51,-110.953 1333.4,-114.136 1337.59,-119.743"/>
</g>
<!-- enemyRadar[LeftBack]&#45;&gt;Turn left/right -->
<g id="edge5" class="edge"><title>enemyRadar[LeftBack]&#45;&gt;Turn left/right</title>
<path fill="none" stroke="red" stroke-width="0.195232" stroke-dasharray="1,5" d="M1231.22,-202.344C1242.18,-198.304 1255.94,-193.554 1268.5,-190.149 1348.5,-168.456 1370.44,-171.489 1451.5,-154.149 1548.09,-133.487 1660.05,-107.07 1725.31,-91.4232"/>
<polygon fill="red" stroke="red" stroke-width="0.195232" points="1726.46,-94.7451 1735.37,-89.007 1724.83,-87.9385 1726.46,-94.7451"/>
</g>
<!-- enemyRadar[Right45ø] -->
<g id="node11" class="node"><title>enemyRadar[Right45ø]</title>
<polygon fill="lightgray" stroke="black" points="2480.5,-220.362 2380.5,-220.362 2380.5,-202.362 2480.5,-202.362 2480.5,-220.362"/>
<text text-anchor="middle" x="2430.5" y="-209.162" font-family="Times,serif" font-size="9.00">enemyRadar[Right45ø]</text>
</g>
<!-- enemyRadar[Right45ø]&#45;&gt;Turn left/right -->
<g id="edge33" class="edge"><title>enemyRadar[Right45ø]&#45;&gt;Turn left/right</title>
<path fill="none" stroke="red" stroke-width="0.200816" d="M2409.42,-202.324C2398.27,-198.278 2384.27,-193.529 2371.5,-190.149 2177.8,-138.884 1942.48,-101.51 1836.73,-86.0007"/>
<polygon fill="red" stroke="red" stroke-width="0.200816" points="1837,-82.5035 1826.6,-84.5244 1835.99,-89.4303 1837,-82.5035"/>
</g>
<!-- enemyRadar[Left45ø] -->
<g id="node12" class="node"><title>enemyRadar[Left45ø]</title>
<polygon fill="lightgray" stroke="black" points="1373,-220.362 1278,-220.362 1278,-202.362 1373,-202.362 1373,-220.362"/>
<text text-anchor="middle" x="1325.5" y="-209.162" font-family="Times,serif" font-size="9.00">enemyRadar[Left45ø]</text>
</g>
<!-- enemyRadar[Left45ø]&#45;&gt;Shoot -->
<g id="edge27" class="edge"><title>enemyRadar[Left45ø]&#45;&gt;Shoot</title>
<path fill="none" stroke="red" stroke-width="0.170798" d="M1304.27,-202.322C1293.61,-198.417 1280.45,-193.793 1268.5,-190.149 1121.28,-145.266 942.584,-103.252 867.481,-86.1477"/>
<polygon fill="red" stroke="red" stroke-width="0.170798" points="868.111,-82.702 857.585,-83.9019 866.562,-89.5284 868.111,-82.702"/>
</g>
<!-- enemyRadar[Left45ø]&#45;&gt;Move Forward/Backward -->
<g id="edge12" class="edge"><title>enemyRadar[Left45ø]&#45;&gt;Move Forward/Backward</title>
<path fill="none" stroke="red" stroke-width="0.774016" stroke-dasharray="1,5" d="M1306.86,-202.341C1295.9,-197.983 1281.65,-192.929 1268.5,-190.149 1062.23,-146.535 1002.2,-195.693 795.5,-154.149 745.193,-144.038 690.601,-126.187 647.342,-110.317"/>
<polygon fill="red" stroke="red" stroke-width="0.774016" points="648.322,-106.948 637.729,-106.755 645.889,-113.511 648.322,-106.948"/>
</g>
<!-- enemyRadar[Left45ø]&#45;&gt; Move Left/Right -->
<g id="edge51" class="edge"><title>enemyRadar[Left45ø]&#45;&gt; Move Left/Right</title>
<path fill="none" stroke="red" stroke-width="0.610608" d="M1329.38,-202.087C1335.56,-188.888 1348.18,-161.962 1360.09,-136.562"/>
<polygon fill="red" stroke="red" stroke-width="0.610608" points="1363.35,-137.842 1364.43,-127.301 1357.02,-134.871 1363.35,-137.842"/>
</g>
<!-- enemyRadar[Left45ø]&#45;&gt;Turn left/right -->
<g id="edge34" class="edge"><title>enemyRadar[Left45ø]&#45;&gt;Turn left/right</title>
<path fill="none" stroke="green" stroke-width="1.71033" d="M1347.04,-202.344C1357.66,-198.489 1370.69,-193.901 1382.5,-190.149 1503.96,-151.56 1648.36,-112.595 1725.47,-92.3327"/>
<polygon fill="green" stroke="green" stroke-width="1.71033" points="1726.66,-95.6401 1735.45,-89.7184 1724.89,-88.8689 1726.66,-95.6401"/>
</g>
<!-- enemyRadar[RightFront20ø] -->
<g id="node13" class="node"><title>enemyRadar[RightFront20ø]</title>
<polygon fill="lightgray" stroke="black" points="2019,-220.362 1900,-220.362 1900,-202.362 2019,-202.362 2019,-220.362"/>
<text text-anchor="middle" x="1959.5" y="-209.162" font-family="Times,serif" font-size="9.00">enemyRadar[RightFront20ø]</text>
</g>
<!-- enemyRadar[RightFront20ø]&#45;&gt; Move Left/Right -->
<g id="edge37" class="edge"><title>enemyRadar[RightFront20ø]&#45;&gt; Move Left/Right</title>
<path fill="none" stroke="green" stroke-width="0.816604" d="M1933.74,-202.34C1920.82,-198.439 1904.9,-193.814 1890.5,-190.149 1817.34,-171.526 1798.21,-170.461 1724.5,-154.149 1629.25,-133.07 1519,-108.067 1451.25,-92.6353"/>
<polygon fill="green" stroke="green" stroke-width="0.816604" points="1451.69,-89.1457 1441.17,-90.3362 1450.14,-95.9707 1451.69,-89.1457"/>
</g>
<!-- enemyRadar[LeftFront20ø] -->
<g id="node14" class="node"><title>enemyRadar[LeftFront20ø]</title>
<polygon fill="lightgray" stroke="black" points="2258.5,-220.362 2144.5,-220.362 2144.5,-202.362 2258.5,-202.362 2258.5,-220.362"/>
<text text-anchor="middle" x="2201.5" y="-209.162" font-family="Times,serif" font-size="9.00">enemyRadar[LeftFront20ø]</text>
</g>
<!-- enemyRadar[LeftFront20ø]&#45;&gt; Move Left/Right -->
<g id="edge15" class="edge"><title>enemyRadar[LeftFront20ø]&#45;&gt; Move Left/Right</title>
<path fill="none" stroke="red" stroke-width="0.485148" d="M2179.49,-202.353C2166.8,-198.055 2150.44,-193.058 2135.5,-190.149 1955.51,-155.109 1905.68,-182.402 1724.5,-154.149 1628.11,-139.118 1518.16,-112.478 1450.8,-95.0478"/>
<polygon fill="red" stroke="red" stroke-width="0.485148" points="1451.33,-91.569 1440.77,-92.4392 1449.57,-98.3436 1451.33,-91.569"/>
</g>
<!-- enemyRadar[LeftFront20ø]&#45;&gt;Turn left/right -->
<g id="edge36" class="edge"><title>enemyRadar[LeftFront20ø]&#45;&gt;Turn left/right</title>
<path fill="none" stroke="green" stroke-width="0.560347" d="M2175.8,-202.286C2108.53,-181.151 1926.2,-123.858 1834.58,-95.0688"/>
<polygon fill="green" stroke="green" stroke-width="0.560347" points="1835.53,-91.6972 1824.94,-92.0385 1833.43,-98.3753 1835.53,-91.6972"/>
</g>
<!-- enemyRadar[RightFront15ø] -->
<g id="node15" class="node"><title>enemyRadar[RightFront15ø]</title>
<polygon fill="lightgray" stroke="black" points="391,-220.362 272,-220.362 272,-202.362 391,-202.362 391,-220.362"/>
<text text-anchor="middle" x="331.5" y="-209.162" font-family="Times,serif" font-size="9.00">enemyRadar[RightFront15ø]</text>
</g>
<!-- enemyRadar[RightFront15ø]&#45;&gt;Shoot -->
<g id="edge9" class="edge"><title>enemyRadar[RightFront15ø]&#45;&gt;Shoot</title>
<path fill="none" stroke="green" stroke-width="0.427112" d="M355.507,-202.283C368.425,-198.176 384.7,-193.383 399.5,-190.149 510.459,-165.902 543.087,-184.62 652.5,-154.149 705.425,-139.41 763.381,-112.677 798.594,-95.1493"/>
<polygon fill="green" stroke="green" stroke-width="0.427112" points="800.54,-98.0884 807.9,-90.4673 797.394,-91.8352 800.54,-98.0884"/>
</g>
<!-- enemyRadar[RightFront15ø]&#45;&gt;Move Forward/Backward -->
<g id="edge1" class="edge"><title>enemyRadar[RightFront15ø]&#45;&gt;Move Forward/Backward</title>
<path fill="none" stroke="green" stroke-width="0.253311" d="M345.847,-202.286C374.107,-186.378 438.757,-149.984 490.815,-120.68"/>
<polygon fill="green" stroke="green" stroke-width="0.253311" points="492.716,-123.626 499.713,-115.671 489.282,-117.526 492.716,-123.626"/>
</g>
<!-- enemyRadar[RightFront15ø]&#45;&gt; Move Left/Right -->
<g id="edge21" class="edge"><title>enemyRadar[RightFront15ø]&#45;&gt; Move Left/Right</title>
<path fill="none" stroke="green" stroke-width="0.148459" stroke-dasharray="1,5" d="M354.182,-202.304C367.264,-197.99 384.119,-192.993 399.5,-190.149 604.637,-152.216 660.17,-177.262 867.5,-154.149 1032.15,-135.795 1224.83,-105.206 1322.95,-88.9717"/>
<polygon fill="green" stroke="green" stroke-width="0.148459" points="1323.71,-92.3929 1333.01,-87.3033 1322.57,-85.4873 1323.71,-92.3929"/>
</g>
<!-- enemyRadar[LeftFront15ø] -->
<g id="node16" class="node"><title>enemyRadar[LeftFront15ø]</title>
<polygon fill="lightgray" stroke="black" points="253.5,-220.362 139.5,-220.362 139.5,-202.362 253.5,-202.362 253.5,-220.362"/>
<text text-anchor="middle" x="196.5" y="-209.162" font-family="Times,serif" font-size="9.00">enemyRadar[LeftFront15ø]</text>
</g>
<!-- enemyRadar[LeftFront15ø]&#45;&gt;Shoot -->
<g id="edge41" class="edge"><title>enemyRadar[LeftFront15ø]&#45;&gt;Shoot</title>
<path fill="none" stroke="green" stroke-width="0.254817" d="M218.813,-202.278C231.466,-198.012 247.686,-193.069 262.5,-190.149 433.284,-156.485 483.711,-196.702 652.5,-154.149 705.922,-140.681 763.959,-113.479 799.027,-95.5197"/>
<polygon fill="green" stroke="green" stroke-width="0.254817" points="801.02,-98.4289 808.287,-90.7185 797.798,-92.2147 801.02,-98.4289"/>
</g>
<!-- enemyRadar[LeftFront15ø]&#45;&gt;Move Forward/Backward -->
<g id="edge50" class="edge"><title>enemyRadar[LeftFront15ø]&#45;&gt;Move Forward/Backward</title>
<path fill="none" stroke="green" stroke-width="0.36771" d="M219.088,-202.286C270.658,-183.849 399.186,-137.895 484.613,-107.352"/>
<polygon fill="green" stroke="green" stroke-width="0.36771" points="485.795,-110.647 494.033,-103.984 483.438,-104.055 485.795,-110.647"/>
</g>
<!-- enemyRadar[LeftFront15ø]&#45;&gt; Move Left/Right -->
<g id="edge38" class="edge"><title>enemyRadar[LeftFront15ø]&#45;&gt; Move Left/Right</title>
<path fill="none" stroke="green" stroke-width="0.168498" d="M218.178,-202.296C230.904,-197.923 247.404,-192.87 262.5,-190.149 527.594,-142.372 599.545,-181.671 867.5,-154.149 1032.3,-137.223 1224.92,-106.037 1322.99,-89.3338"/>
<polygon fill="green" stroke="green" stroke-width="0.168498" points="1323.77,-92.7507 1333.04,-87.6162 1322.59,-85.8507 1323.77,-92.7507"/>
</g>
<!-- enemyRadar[RightFront7.5ø] -->
<g id="node17" class="node"><title>enemyRadar[RightFront7.5ø]</title>
<polygon fill="lightgray" stroke="black" points="1142.5,-220.362 1020.5,-220.362 1020.5,-202.362 1142.5,-202.362 1142.5,-220.362"/>
<text text-anchor="middle" x="1081.5" y="-209.162" font-family="Times,serif" font-size="9.00">enemyRadar[RightFront7.5ø]</text>
</g>
<!-- enemyRadar[RightFront7.5ø]&#45;&gt;Shoot -->
<g id="edge46" class="edge"><title>enemyRadar[RightFront7.5ø]&#45;&gt;Shoot</title>
<path fill="none" stroke="red" stroke-width="0.821964" d="M1066.24,-202.286C1026.35,-181.181 918.331,-124.022 863.849,-95.1921"/>
<polygon fill="red" stroke="red" stroke-width="0.821964" points="865.43,-92.0691 854.954,-90.4856 862.156,-98.2563 865.43,-92.0691"/>
</g>
<!-- enemyRadar[RightFront7.5ø]&#45;&gt; Move Left/Right -->
<g id="edge22" class="edge"><title>enemyRadar[RightFront7.5ø]&#45;&gt; Move Left/Right</title>
<path fill="none" stroke="red" stroke-width="0.211716" stroke-dasharray="1,5" d="M1100.18,-202.286C1144.51,-183.12 1257.62,-134.222 1327.98,-103.808"/>
<polygon fill="red" stroke="red" stroke-width="0.211716" points="1329.39,-107.008 1337.18,-99.8272 1326.62,-100.583 1329.39,-107.008"/>
</g>
<!-- enemyRadar[LeftFront7.5ø] -->
<g id="node18" class="node"><title>enemyRadar[LeftFront7.5ø]</title>
<polygon fill="lightgray" stroke="black" points="1507.5,-220.362 1391.5,-220.362 1391.5,-202.362 1507.5,-202.362 1507.5,-220.362"/>
<text text-anchor="middle" x="1449.5" y="-209.162" font-family="Times,serif" font-size="9.00">enemyRadar[LeftFront7.5ø]</text>
</g>
<!-- enemyRadar[LeftFront7.5ø]&#45;&gt; Move Left/Right -->
<g id="edge42" class="edge"><title>enemyRadar[LeftFront7.5ø]&#45;&gt; Move Left/Right</title>
<path fill="none" stroke="red" stroke-width="0.17786" d="M1445.62,-202.087C1439.44,-188.888 1426.82,-161.962 1414.91,-136.562"/>
<polygon fill="red" stroke="red" stroke-width="0.17786" points="1417.98,-134.871 1410.57,-127.301 1411.65,-137.842 1417.98,-134.871"/>
</g>
<!-- enemyRadar[RightFront2.5ø] -->
<g id="node19" class="node"><title>enemyRadar[RightFront2.5ø]</title>
<polygon fill="lightgray" stroke="black" points="2620.5,-220.362 2498.5,-220.362 2498.5,-202.362 2620.5,-202.362 2620.5,-220.362"/>
<text text-anchor="middle" x="2559.5" y="-209.162" font-family="Times,serif" font-size="9.00">enemyRadar[RightFront2.5ø]</text>
</g>
<!-- enemyRadar[RightFront2.5ø]&#45;&gt;Turn left/right -->
<g id="edge30" class="edge"><title>enemyRadar[RightFront2.5ø]&#45;&gt;Turn left/right</title>
<path fill="none" stroke="red" stroke-width="0.530505" d="M2534.42,-202.301C2521.17,-198.249 2504.56,-193.501 2489.5,-190.149 2249.26,-136.693 1957.73,-99.0143 1837.02,-84.584"/>
<polygon fill="red" stroke="red" stroke-width="0.530505" points="1837.25,-81.0868 1826.91,-83.3817 1836.43,-88.0379 1837.25,-81.0868"/>
</g>
<!-- enemyRadar[LeftFront2.5ø] -->
<g id="node20" class="node"><title>enemyRadar[LeftFront2.5ø]</title>
<polygon fill="lightgray" stroke="black" points="1002.5,-220.362 886.5,-220.362 886.5,-202.362 1002.5,-202.362 1002.5,-220.362"/>
<text text-anchor="middle" x="944.5" y="-209.162" font-family="Times,serif" font-size="9.00">enemyRadar[LeftFront2.5ø]</text>
</g>
<!-- enemyRadar[LeftFront2.5ø]&#45;&gt;Shoot -->
<g id="edge32" class="edge"><title>enemyRadar[LeftFront2.5ø]&#45;&gt;Shoot</title>
<path fill="none" stroke="green" stroke-width="0.241668" d="M937.431,-202.087C921.287,-183.187 881.097,-136.138 855.123,-105.73"/>
<polygon fill="green" stroke="green" stroke-width="0.241668" points="857.684,-103.34 848.528,-98.0093 852.362,-107.886 857.684,-103.34"/>
</g>
<!-- enemyRadar[LeftFront2.5ø]&#45;&gt;Move Forward/Backward -->
<g id="edge44" class="edge"><title>enemyRadar[LeftFront2.5ø]&#45;&gt;Move Forward/Backward</title>
<path fill="none" stroke="red" stroke-width="0.69147" d="M921.423,-202.286C868.43,-183.74 735.889,-137.355 648.626,-106.816"/>
<polygon fill="red" stroke="red" stroke-width="0.69147" points="649.605,-103.451 639.01,-103.451 647.293,-110.058 649.605,-103.451"/>
</g>
<!-- enemyRadar[LeftFront2.5ø]&#45;&gt; Move Left/Right -->
<g id="edge39" class="edge"><title>enemyRadar[LeftFront2.5ø]&#45;&gt; Move Left/Right</title>
<path fill="none" stroke="green" stroke-width="0.465013" d="M971.228,-202.277C983.496,-198.571 998.233,-194.128 1011.5,-190.149 1121.87,-157.053 1250.54,-118.762 1325.15,-96.5907"/>
<polygon fill="green" stroke="green" stroke-width="0.465013" points="1326.28,-99.9073 1334.86,-93.7038 1324.28,-93.1973 1326.28,-99.9073"/>
</g>
<!-- enemyRadar[LeftFront2.5ø]&#45;&gt;Turn left/right -->
<g id="edge24" class="edge"><title>enemyRadar[LeftFront2.5ø]&#45;&gt;Turn left/right</title>
<path fill="none" stroke="green" stroke-width="0.26845" d="M966.844,-202.326C979.732,-198.02 996.34,-193.023 1011.5,-190.149 1204.28,-153.61 1257.63,-184.331 1451.5,-154.149 1549.1,-138.955 1660.74,-110.809 1725.66,-93.3403"/>
<polygon fill="green" stroke="green" stroke-width="0.26845" points="1726.93,-96.6224 1735.67,-90.632 1725.1,-89.8654 1726.93,-96.6224"/>
</g>
<!-- enemyRadar[Front7Ø] -->
<g id="node21" class="node"><title>enemyRadar[Front7Ø]</title>
<polygon fill="lightgray" stroke="black" points="1881.5,-220.362 1783.5,-220.362 1783.5,-202.362 1881.5,-202.362 1881.5,-220.362"/>
<text text-anchor="middle" x="1832.5" y="-209.162" font-family="Times,serif" font-size="9.00">enemyRadar[Front7Ø]</text>
</g>
<!-- enemyRadar[Front7Ø]&#45;&gt;Shoot -->
<g id="edge3" class="edge"><title>enemyRadar[Front7Ø]&#45;&gt;Shoot</title>
<path fill="none" stroke="red" stroke-width="0.391201" d="M1813.26,-202.263C1802.13,-197.936 1787.75,-192.939 1774.5,-190.149 1577.73,-148.724 1523.22,-177.529 1323.5,-154.149 1152.41,-134.121 949.514,-99.169 868.034,-84.6693"/>
<polygon fill="red" stroke="red" stroke-width="0.391201" points="868.266,-81.1556 857.807,-82.8432 867.036,-88.0466 868.266,-81.1556"/>
</g>
<!-- enemyRadar[Front7Ø]&#45;&gt;Turn left/right -->
<g id="edge4" class="edge"><title>enemyRadar[Front7Ø]&#45;&gt;Turn left/right</title>
<path fill="none" stroke="green" stroke-width="0.155884" d="M1829.25,-202.087C1823.62,-187.768 1811.64,-157.291 1800.96,-130.136"/>
<polygon fill="green" stroke="green" stroke-width="0.155884" points="1804.17,-128.727 1797.26,-120.701 1797.66,-131.288 1804.17,-128.727"/>
</g>
<!-- OnTarget -->
<g id="node22" class="node"><title>OnTarget</title>
<polygon fill="lightgray" stroke="black" points="1635.5,-220.362 1585.5,-220.362 1585.5,-202.362 1635.5,-202.362 1635.5,-220.362"/>
<text text-anchor="middle" x="1610.5" y="-209.162" font-family="Times,serif" font-size="9.00">OnTarget</text>
</g>
<!-- OnTarget&#45;&gt;Shoot -->
<g id="edge26" class="edge"><title>OnTarget&#45;&gt;Shoot</title>
<path fill="none" stroke="green" stroke-width="0.51351" d="M1599.41,-202.244C1593.02,-197.967 1584.66,-193.025 1576.5,-190.149 1469.38,-152.395 1435.85,-170.827 1323.5,-154.149 1153.11,-128.854 949.824,-96.836 868.137,-83.8942"/>
<polygon fill="green" stroke="green" stroke-width="0.51351" points="868.308,-80.3778 857.883,-82.2688 867.212,-87.2914 868.308,-80.3778"/>
</g>
<!-- OnTarget&#45;&gt; Move Left/Right -->
<g id="edge25" class="edge"><title>OnTarget&#45;&gt; Move Left/Right</title>
<path fill="none" stroke="green" stroke-width="0.354744" d="M1596.94,-202.294C1590.71,-198.592 1583.23,-194.146 1576.5,-190.149 1531.86,-163.645 1481.27,-133.648 1443.67,-111.361"/>
<polygon fill="green" stroke="green" stroke-width="0.354744" points="1445.28,-108.244 1434.89,-106.156 1441.71,-114.266 1445.28,-108.244"/>
</g>
<!-- OnTarget&#45;&gt;Turn left/right -->
<g id="edge6" class="edge"><title>OnTarget&#45;&gt;Turn left/right</title>
<path fill="none" stroke="green" stroke-width="0.516442" d="M1620.88,-202.286C1643.22,-184.899 1697.01,-143.042 1735.99,-112.715"/>
<polygon fill="green" stroke="green" stroke-width="0.516442" points="1738.32,-115.334 1744.06,-106.431 1734.02,-109.81 1738.32,-115.334"/>
</g>
<!-- bias -->
<g id="node23" class="node"><title>bias</title>
<polygon fill="lightgray" stroke="black" points="440,-220.362 409,-220.362 409,-202.362 440,-202.362 440,-220.362"/>
<text text-anchor="middle" x="424.5" y="-209.162" font-family="Times,serif" font-size="9.00">bias</text>
</g>
<!-- bias&#45;&gt;Shoot -->
<g id="edge17" class="edge"><title>bias&#45;&gt;Shoot</title>
<path fill="none" stroke="green" stroke-width="0.531602" d="M434.181,-202.326C439.788,-198.074 447.17,-193.131 454.5,-190.149 537.349,-156.444 566.814,-179.799 652.5,-154.149 705.132,-138.394 763.167,-111.936 798.477,-94.7443"/>
<polygon fill="green" stroke="green" stroke-width="0.531602" points="800.379,-97.7094 807.81,-90.1576 797.292,-91.427 800.379,-97.7094"/>
</g>
<!-- bias&#45;&gt;Move Forward/Backward -->
<g id="edge49" class="edge"><title>bias&#45;&gt;Move Forward/Backward</title>
<path fill="none" stroke="red" stroke-width="0.820191" d="M433.383,-202.087C447.424,-189.006 475.939,-162.442 502.987,-137.243"/>
<polygon fill="red" stroke="red" stroke-width="0.820191" points="505.633,-139.562 510.564,-130.185 500.862,-134.44 505.633,-139.562"/>
</g>
<!-- bias&#45;&gt; Move Left/Right -->
<g id="edge31" class="edge"><title>bias&#45;&gt; Move Left/Right</title>
<path fill="none" stroke="green" stroke-width="0.134913" d="M440.042,-204.336C452.642,-199.705 470.959,-193.545 487.5,-190.149 653.68,-156.037 699.072,-174.434 867.5,-154.149 1031.98,-134.34 1224.73,-104.36 1322.91,-88.6028"/>
<polygon fill="green" stroke="green" stroke-width="0.134913" points="1323.65,-92.0281 1332.97,-86.9844 1322.54,-85.1169 1323.65,-92.0281"/>
</g>
<!-- 545&#45;&gt; Move Left/Right -->
<g id="edge53" class="edge"><title>545&#45;&gt; Move Left/Right</title>
<path fill="none" stroke="red" stroke-width="0.364592" d="M1530.67,-197.195C1509.17,-179.301 1469.72,-146.481 1437.67,-119.815"/>
<polygon fill="red" stroke="red" stroke-width="0.364592" points="1439.62,-116.886 1429.69,-113.181 1435.14,-122.267 1439.62,-116.886"/>
</g>
</g>
</svg>
