<?xml version="1.0" encoding="UTF-8" standalone="no"?>
<!DOCTYPE svg PUBLIC "-//W3C//DTD SVG 1.1//EN"
 "http://www.w3.org/Graphics/SVG/1.1/DTD/svg11.dtd">
<!-- Generated by graphviz version 2.38.0 (20140413.2041)
 -->
<!-- Title: %3 Pages: 1 -->
<svg width="2712pt" height="295pt"
 viewBox="0.00 0.00 2711.71 294.58" xmlns="http://www.w3.org/2000/svg" xmlns:xlink="http://www.w3.org/1999/xlink">
<g id="graph0" class="graph" transform="scale(1 1) rotate(0) translate(4 290.576)">
<title>%3</title>
<polygon fill="white" stroke="none" points="-4,4 -4,-290.576 2707.71,-290.576 2707.71,4 -4,4"/>
<!-- wallRadar[1,0] -->
<g id="node1" class="node"><title>wallRadar[1,0]</title>
<polygon fill="lightgray" stroke="black" points="937.213,-220.362 867.213,-220.362 867.213,-202.362 937.213,-202.362 937.213,-220.362"/>
<text text-anchor="middle" x="902.213" y="-209.162" font-family="Times,serif" font-size="9.00">wallRadar[1,0]</text>
</g>
<!-- Shoot -->
<g id="node24" class="node"><title>Shoot</title>
<ellipse fill="lightblue" stroke="black" cx="1232.21" cy="-77.0746" rx="26.7407" ry="26.7407"/>
<text text-anchor="middle" x="1232.21" y="-74.8746" font-family="Times,serif" font-size="9.00">Shoot</text>
</g>
<!-- wallRadar[1,0]&#45;&gt;Shoot -->
<g id="edge25" class="edge"><title>wallRadar[1,0]&#45;&gt;Shoot</title>
<path fill="none" stroke="red" stroke-width="0.134967" d="M919.246,-202.262C927.364,-198.473 937.239,-193.965 946.213,-190.149 1036.07,-151.939 1143.7,-111.053 1197.71,-90.8668"/>
<polygon fill="red" stroke="red" stroke-width="0.134967" points="1199.01,-94.1183 1207.15,-87.3438 1196.56,-87.5597 1199.01,-94.1183"/>
</g>
<!--  Move Left/Right -->
<g id="node26" class="node"><title> Move Left/Right</title>
<ellipse fill="lightblue" stroke="black" cx="1825.21" cy="-77.0746" rx="55.3091" ry="55.3091"/>
<text text-anchor="middle" x="1825.21" y="-74.8746" font-family="Times,serif" font-size="9.00"> Move Left/Right</text>
</g>
<!-- wallRadar[1,0]&#45;&gt; Move Left/Right -->
<g id="edge47" class="edge"><title>wallRadar[1,0]&#45;&gt; Move Left/Right</title>
<path fill="none" stroke="red" stroke-width="0.164291" d="M916.834,-202.212C925.189,-197.926 936.008,-192.985 946.213,-190.149 1084.96,-151.602 1125.31,-171.894 1268.21,-154.149 1446.78,-131.977 1657.03,-102.285 1760.72,-87.4037"/>
<polygon fill="red" stroke="red" stroke-width="0.164291" points="1761.32,-90.8538 1770.72,-85.9672 1760.32,-83.9249 1761.32,-90.8538"/>
</g>
<!-- Turn left/right -->
<g id="node27" class="node"><title>Turn left/right</title>
<ellipse fill="lightblue" stroke="black" cx="718.213" cy="-77.0746" rx="46.8387" ry="46.8387"/>
<text text-anchor="middle" x="718.213" y="-74.8746" font-family="Times,serif" font-size="9.00">Turn left/right</text>
</g>
<!-- wallRadar[1,0]&#45;&gt;Turn left/right -->
<g id="edge15" class="edge"><title>wallRadar[1,0]&#45;&gt;Turn left/right</title>
<path fill="none" stroke="red" stroke-width="0.122727" d="M890.98,-202.286C866.329,-184.563 806.316,-141.417 763.969,-110.971"/>
<polygon fill="red" stroke="red" stroke-width="0.122727" points="765.913,-108.058 755.751,-105.063 761.827,-113.742 765.913,-108.058"/>
</g>
<!-- wallRadar[0,1] -->
<g id="node2" class="node"><title>wallRadar[0,1]</title>
<polygon fill="lightgray" stroke="black" points="105.213,-286.576 35.2132,-286.576 35.2132,-268.576 105.213,-268.576 105.213,-286.576"/>
<text text-anchor="middle" x="70.2132" y="-275.376" font-family="Times,serif" font-size="9.00">wallRadar[0,1]</text>
</g>
<!-- wallRadar[0,1]&#45;&gt;Shoot -->
<g id="edge52" class="edge"><title>wallRadar[0,1]&#45;&gt;Shoot</title>
<path fill="none" stroke="green" stroke-width="0.301393" d="M105.225,-273.252C144.76,-268.446 210.215,-257.257 261.213,-232.576 288.373,-219.432 286.154,-201.245 314.213,-190.149 409.563,-152.444 672.432,-166.561 774.213,-154.149 932.013,-134.906 1118.51,-100.161 1195.83,-85.2206"/>
<polygon fill="green" stroke="green" stroke-width="0.301393" points="1196.85,-88.5879 1206,-83.2476 1195.51,-81.716 1196.85,-88.5879"/>
</g>
<!-- wallRadar[0,1]&#45;&gt;Turn left/right -->
<g id="edge17" class="edge"><title>wallRadar[0,1]&#45;&gt;Turn left/right</title>
<path fill="none" stroke="green" stroke-width="0.17675" stroke-dasharray="1,5" d="M71.9506,-268.346C76.0954,-250.88 88.2923,-210.079 115.213,-190.149 201.854,-126.01 528.651,-93.2202 661.518,-82.3124"/>
<polygon fill="green" stroke="green" stroke-width="0.17675" points="661.815,-85.8 671.5,-81.5043 661.25,-78.8228 661.815,-85.8"/>
</g>
<!-- 164 -->
<g id="node28" class="node"><title>164</title>
<ellipse fill="white" stroke="black" cx="21.2132" cy="-211.362" rx="21.4286" ry="21.4286"/>
<text text-anchor="middle" x="21.2132" y="-209.162" font-family="Times,serif" font-size="9.00">164</text>
</g>
<!-- wallRadar[0,1]&#45;&gt;164 -->
<g id="edge57" class="edge"><title>wallRadar[0,1]&#45;&gt;164</title>
<path fill="none" stroke="green" stroke-width="0.417216" d="M64.0073,-268.443C57.974,-260.537 48.5019,-248.124 40.0014,-236.984"/>
<polygon fill="green" stroke="green" stroke-width="0.417216" points="42.6122,-234.636 33.7633,-228.809 37.0473,-238.882 42.6122,-234.636"/>
</g>
<!-- wallRadar[&#45;1,0] -->
<g id="node3" class="node"><title>wallRadar[&#45;1,0]</title>
<polygon fill="lightgray" stroke="black" points="354.713,-286.576 281.713,-286.576 281.713,-268.576 354.713,-268.576 354.713,-286.576"/>
<text text-anchor="middle" x="318.213" y="-275.376" font-family="Times,serif" font-size="9.00">wallRadar[&#45;1,0]</text>
</g>
<!-- wallRadar[&#45;1,0]&#45;&gt;Shoot -->
<g id="edge24" class="edge"><title>wallRadar[&#45;1,0]&#45;&gt;Shoot</title>
<path fill="none" stroke="green" stroke-width="0.227936" stroke-dasharray="1,5" d="M317.17,-268.36C315.469,-250.921 314.31,-210.168 337.213,-190.149 373.896,-158.086 725.864,-160.146 774.213,-154.149 931.973,-134.583 1118.49,-100.012 1195.82,-85.1695"/>
<polygon fill="green" stroke="green" stroke-width="0.227936" points="1196.83,-88.5383 1205.99,-83.2096 1195.51,-81.6647 1196.83,-88.5383"/>
</g>
<!-- wallRadar[&#45;1,0]&#45;&gt;Turn left/right -->
<g id="edge35" class="edge"><title>wallRadar[&#45;1,0]&#45;&gt;Turn left/right</title>
<path fill="none" stroke="red" stroke-width="0.392584" d="M281.497,-273.453C231.524,-268.356 146.125,-256.339 127.213,-232.576 115.471,-217.821 115.186,-204.672 127.213,-190.149 194.811,-108.527 526.706,-85.8823 661.327,-80.0027"/>
<polygon fill="red" stroke="red" stroke-width="0.392584" points="661.595,-83.4946 671.438,-79.5765 661.3,-76.5008 661.595,-83.4946"/>
</g>
<!-- 72 -->
<g id="node29" class="node"><title>72</title>
<ellipse fill="white" stroke="black" cx="364.213" cy="-211.362" rx="18.2703" ry="18.2703"/>
<text text-anchor="middle" x="364.213" y="-209.162" font-family="Times,serif" font-size="9.00">72</text>
</g>
<!-- wallRadar[&#45;1,0]&#45;&gt;72 -->
<g id="edge59" class="edge"><title>wallRadar[&#45;1,0]&#45;&gt;72</title>
<path fill="none" stroke="green" stroke-width="0.231216" stroke-dasharray="1,5" d="M324.039,-268.443C329.973,-260.16 339.449,-246.931 347.709,-235.402"/>
<polygon fill="green" stroke="green" stroke-width="0.231216" points="350.73,-237.194 353.709,-227.026 345.04,-233.117 350.73,-237.194"/>
</g>
<!-- wallRadar[0,&#45;1] -->
<g id="node4" class="node"><title>wallRadar[0,&#45;1]</title>
<polygon fill="lightgray" stroke="black" points="2703.71,-220.362 2630.71,-220.362 2630.71,-202.362 2703.71,-202.362 2703.71,-220.362"/>
<text text-anchor="middle" x="2667.21" y="-209.162" font-family="Times,serif" font-size="9.00">wallRadar[0,&#45;1]</text>
</g>
<!-- Move Forward/Backward -->
<g id="node25" class="node"><title>Move Forward/Backward</title>
<ellipse fill="lightblue" stroke="black" cx="2180.21" cy="-77.0746" rx="77.1494" ry="77.1494"/>
<text text-anchor="middle" x="2180.21" y="-74.8746" font-family="Times,serif" font-size="9.00">Move Forward/Backward</text>
</g>
<!-- wallRadar[0,&#45;1]&#45;&gt;Move Forward/Backward -->
<g id="edge8" class="edge"><title>wallRadar[0,&#45;1]&#45;&gt;Move Forward/Backward</title>
<path fill="none" stroke="red" stroke-width="0.213083" d="M2648.53,-202.303C2638.97,-198.347 2627.08,-193.684 2616.21,-190.149 2496.16,-151.101 2354.03,-116.711 2265.48,-96.6457"/>
<polygon fill="red" stroke="red" stroke-width="0.213083" points="2266.01,-93.1773 2255.48,-94.3902 2264.47,-100.006 2266.01,-93.1773"/>
</g>
<!-- wallRadar[0.7,0.7] -->
<g id="node5" class="node"><title>wallRadar[0.7,0.7]</title>
<polygon fill="lightgray" stroke="black" points="2091.71,-220.362 2008.71,-220.362 2008.71,-202.362 2091.71,-202.362 2091.71,-220.362"/>
<text text-anchor="middle" x="2050.21" y="-209.162" font-family="Times,serif" font-size="9.00">wallRadar[0.7,0.7]</text>
</g>
<!-- wallRadar[0.7,0.7]&#45;&gt;Shoot -->
<g id="edge34" class="edge"><title>wallRadar[0.7,0.7]&#45;&gt;Shoot</title>
<path fill="none" stroke="green" stroke-width="0.142556" d="M2032.62,-202.215C2022.94,-198.037 2010.62,-193.199 1999.21,-190.149 1981.2,-185.334 1419.25,-104.819 1268.9,-83.3179"/>
<polygon fill="green" stroke="green" stroke-width="0.142556" points="1269.2,-79.8244 1258.8,-81.8736 1268.2,-86.7539 1269.2,-79.8244"/>
</g>
<!-- wallRadar[0.7,0.7]&#45;&gt;Move Forward/Backward -->
<g id="edge13" class="edge"><title>wallRadar[0.7,0.7]&#45;&gt;Move Forward/Backward</title>
<path fill="none" stroke="red" stroke-width="0.141218" stroke-dasharray="1,5" d="M2058.35,-202.087C2070.74,-189.474 2095.45,-164.325 2119.41,-139.951"/>
<polygon fill="red" stroke="red" stroke-width="0.141218" points="2121.95,-142.355 2126.46,-132.769 2116.96,-137.448 2121.95,-142.355"/>
</g>
<!-- wallRadar[&#45;0.7,0.7] -->
<g id="node6" class="node"><title>wallRadar[&#45;0.7,0.7]</title>
<polygon fill="lightgray" stroke="black" points="2234.21,-220.362 2148.21,-220.362 2148.21,-202.362 2234.21,-202.362 2234.21,-220.362"/>
<text text-anchor="middle" x="2191.21" y="-209.162" font-family="Times,serif" font-size="9.00">wallRadar[&#45;0.7,0.7]</text>
</g>
<!-- wallRadar[&#45;0.7,0.7]&#45;&gt; Move Left/Right -->
<g id="edge22" class="edge"><title>wallRadar[&#45;0.7,0.7]&#45;&gt; Move Left/Right</title>
<path fill="none" stroke="green" stroke-width="0.374834" d="M2168.87,-202.286C2113.71,-182.348 1969.52,-130.234 1886.49,-100.224"/>
<polygon fill="green" stroke="green" stroke-width="0.374834" points="1887.52,-96.8748 1876.93,-96.7671 1885.14,-103.458 1887.52,-96.8748"/>
</g>
<!-- wallRadar[&#45;0.7,&#45;0.7] -->
<g id="node7" class="node"><title>wallRadar[&#45;0.7,&#45;0.7]</title>
<polygon fill="lightgray" stroke="black" points="1628.71,-220.362 1539.71,-220.362 1539.71,-202.362 1628.71,-202.362 1628.71,-220.362"/>
<text text-anchor="middle" x="1584.21" y="-209.162" font-family="Times,serif" font-size="9.00">wallRadar[&#45;0.7,&#45;0.7]</text>
</g>
<!-- wallRadar[&#45;0.7,&#45;0.7]&#45;&gt;Shoot -->
<g id="edge40" class="edge"><title>wallRadar[&#45;0.7,&#45;0.7]&#45;&gt;Shoot</title>
<path fill="none" stroke="green" stroke-width="0.898492" d="M1562.72,-202.286C1503.7,-180.106 1338.73,-118.104 1266.65,-91.0149"/>
<polygon fill="green" stroke="green" stroke-width="0.898492" points="1267.7,-87.6738 1257.11,-87.432 1265.24,-94.2263 1267.7,-87.6738"/>
</g>
<!-- wallRadar[&#45;0.7,&#45;0.7]&#45;&gt; Move Left/Right -->
<g id="edge32" class="edge"><title>wallRadar[&#45;0.7,&#45;0.7]&#45;&gt; Move Left/Right</title>
<path fill="none" stroke="red" stroke-width="0.350965" d="M1598.93,-202.286C1631.74,-184.272 1712.41,-139.994 1768,-109.482"/>
<polygon fill="red" stroke="red" stroke-width="0.350965" points="1769.95,-112.402 1777.03,-104.522 1766.58,-106.265 1769.95,-112.402"/>
</g>
<!-- wallRadar[&#45;0.7,&#45;0.7]&#45;&gt;Turn left/right -->
<g id="edge49" class="edge"><title>wallRadar[&#45;0.7,&#45;0.7]&#45;&gt;Turn left/right</title>
<path fill="none" stroke="green" stroke-width="0.323326" d="M1566.07,-202.27C1555.76,-198.001 1542.49,-193.059 1530.21,-190.149 1384.94,-155.708 1344.21,-173.889 1196.21,-154.149 1043.03,-133.717 863.241,-103.379 774.135,-87.9138"/>
<polygon fill="green" stroke="green" stroke-width="0.323326" points="774.695,-84.4588 764.243,-86.1934 773.496,-91.3552 774.695,-84.4588"/>
</g>
<!-- wallRadar[0.7,&#45;0.7] -->
<g id="node8" class="node"><title>wallRadar[0.7,&#45;0.7]</title>
<polygon fill="lightgray" stroke="black" points="1990.21,-220.362 1904.21,-220.362 1904.21,-202.362 1990.21,-202.362 1990.21,-220.362"/>
<text text-anchor="middle" x="1947.21" y="-209.162" font-family="Times,serif" font-size="9.00">wallRadar[0.7,&#45;0.7]</text>
</g>
<!-- wallRadar[0.7,&#45;0.7]&#45;&gt;Move Forward/Backward -->
<g id="edge16" class="edge"><title>wallRadar[0.7,&#45;0.7]&#45;&gt;Move Forward/Backward</title>
<path fill="none" stroke="red" stroke-width="0.191152" d="M1961.44,-202.286C1989.36,-186.431 2053.13,-150.227 2104.66,-120.973"/>
<polygon fill="red" stroke="red" stroke-width="0.191152" points="2106.5,-123.952 2113.47,-115.971 2103.04,-117.865 2106.5,-123.952"/>
</g>
<!-- wallRadar[0.7,&#45;0.7]&#45;&gt; Move Left/Right -->
<g id="edge37" class="edge"><title>wallRadar[0.7,&#45;0.7]&#45;&gt; Move Left/Right</title>
<path fill="none" stroke="red" stroke-width="0.318766" d="M1939.58,-202.087C1925.65,-186.977 1895.12,-153.877 1869.11,-125.672"/>
<polygon fill="red" stroke="red" stroke-width="0.318766" points="1871.61,-123.222 1862.26,-118.244 1866.46,-127.968 1871.61,-123.222"/>
</g>
<!-- wallRadar[0.7,&#45;0.7]&#45;&gt;Turn left/right -->
<g id="edge44" class="edge"><title>wallRadar[0.7,&#45;0.7]&#45;&gt;Turn left/right</title>
<path fill="none" stroke="red" stroke-width="0.538175" d="M1930.31,-202.204C1920.34,-197.8 1907.34,-192.747 1895.21,-190.149 1591.04,-124.968 1505.59,-186.642 1196.21,-154.149 1042.52,-138.007 862.953,-105.795 774.013,-88.9343"/>
<polygon fill="red" stroke="red" stroke-width="0.538175" points="774.619,-85.4868 764.141,-87.055 773.31,-92.3633 774.619,-85.4868"/>
</g>
<!-- enemyRadar[RightBack] -->
<g id="node9" class="node"><title>enemyRadar[RightBack]</title>
<polygon fill="lightgray" stroke="black" points="1521.21,-220.362 1417.21,-220.362 1417.21,-202.362 1521.21,-202.362 1521.21,-220.362"/>
<text text-anchor="middle" x="1469.21" y="-209.162" font-family="Times,serif" font-size="9.00">enemyRadar[RightBack]</text>
</g>
<!-- enemyRadar[RightBack]&#45;&gt; Move Left/Right -->
<g id="edge5" class="edge"><title>enemyRadar[RightBack]&#45;&gt; Move Left/Right</title>
<path fill="none" stroke="green" stroke-width="0.356937" d="M1490.95,-202.286C1544.26,-182.476 1683.05,-130.902 1764.04,-100.805"/>
<polygon fill="green" stroke="green" stroke-width="0.356937" points="1765.47,-104.009 1773.62,-97.245 1763.03,-97.4475 1765.47,-104.009"/>
</g>
<!-- enemyRadar[RightBack]&#45;&gt;Turn left/right -->
<g id="edge29" class="edge"><title>enemyRadar[RightBack]&#45;&gt;Turn left/right</title>
<path fill="none" stroke="red" stroke-width="0.243225" d="M1447.72,-202.311C1436.14,-198.212 1421.54,-193.418 1408.21,-190.149 1377.29,-182.565 933.243,-112.079 774.291,-86.934"/>
<polygon fill="red" stroke="red" stroke-width="0.243225" points="774.665,-83.4497 764.241,-85.3445 773.572,-90.3637 774.665,-83.4497"/>
</g>
<!-- enemyRadar[LeftBack] -->
<g id="node10" class="node"><title>enemyRadar[LeftBack]</title>
<polygon fill="lightgray" stroke="black" points="1745.71,-220.362 1646.71,-220.362 1646.71,-202.362 1745.71,-202.362 1745.71,-220.362"/>
<text text-anchor="middle" x="1696.21" y="-209.162" font-family="Times,serif" font-size="9.00">enemyRadar[LeftBack]</text>
</g>
<!-- enemyRadar[LeftBack]&#45;&gt;Shoot -->
<g id="edge14" class="edge"><title>enemyRadar[LeftBack]&#45;&gt;Shoot</title>
<path fill="none" stroke="red" stroke-width="0.439873" d="M1674.29,-202.34C1663.49,-198.483 1650.23,-193.896 1638.21,-190.149 1502.48,-147.815 1338.72,-105.136 1267.81,-87.0567"/>
<polygon fill="red" stroke="red" stroke-width="0.439873" points="1268.59,-83.6437 1258.04,-84.5708 1266.86,-90.4277 1268.59,-83.6437"/>
</g>
<!-- enemyRadar[LeftBack]&#45;&gt;Move Forward/Backward -->
<g id="edge7" class="edge"><title>enemyRadar[LeftBack]&#45;&gt;Move Forward/Backward</title>
<path fill="none" stroke="red" stroke-width="0.121516" d="M1718.5,-202.301C1729.49,-198.435 1742.98,-193.851 1755.21,-190.149 1771.71,-185.156 1976.6,-131.389 2095.76,-100.179"/>
<polygon fill="red" stroke="red" stroke-width="0.121516" points="2096.81,-103.521 2105.6,-97.6018 2095.04,-96.7497 2096.81,-103.521"/>
</g>
<!-- enemyRadar[LeftBack]&#45;&gt;Turn left/right -->
<g id="edge12" class="edge"><title>enemyRadar[LeftBack]&#45;&gt;Turn left/right</title>
<path fill="none" stroke="green" stroke-width="0.679323" stroke-dasharray="1,5" d="M1676.97,-202.271C1665.84,-197.946 1651.46,-192.95 1638.21,-190.149 1445.38,-149.39 1391.9,-177.656 1196.21,-154.149 1042.77,-135.718 863.099,-104.506 774.075,-88.3898"/>
<polygon fill="green" stroke="green" stroke-width="0.679323" points="774.657,-84.9383 764.193,-86.5953 773.406,-91.8257 774.657,-84.9383"/>
</g>
<!-- enemyRadar[Right45ø] -->
<g id="node11" class="node"><title>enemyRadar[Right45ø]</title>
<polygon fill="lightgray" stroke="black" points="2486.21,-220.362 2386.21,-220.362 2386.21,-202.362 2486.21,-202.362 2486.21,-220.362"/>
<text text-anchor="middle" x="2436.21" y="-209.162" font-family="Times,serif" font-size="9.00">enemyRadar[Right45ø]</text>
</g>
<!-- enemyRadar[Right45ø]&#45;&gt; Move Left/Right -->
<g id="edge18" class="edge"><title>enemyRadar[Right45ø]&#45;&gt; Move Left/Right</title>
<path fill="none" stroke="green" stroke-width="0.445357" d="M2416.03,-202.307C2404.77,-198.103 2390.4,-193.212 2377.21,-190.149 2253.71,-161.454 2218.45,-179.472 2094.21,-154.149 2022.25,-139.481 1941.36,-115.571 1887.26,-98.4711"/>
<polygon fill="green" stroke="green" stroke-width="0.445357" points="1888.06,-95.055 1877.47,-95.3612 1885.94,-101.726 1888.06,-95.055"/>
</g>
<!-- enemyRadar[Left45ø] -->
<g id="node12" class="node"><title>enemyRadar[Left45ø]</title>
<polygon fill="lightgray" stroke="black" points="571.713,-220.362 476.713,-220.362 476.713,-202.362 571.713,-202.362 571.713,-220.362"/>
<text text-anchor="middle" x="524.213" y="-209.162" font-family="Times,serif" font-size="9.00">enemyRadar[Left45ø]</text>
</g>
<!-- enemyRadar[Left45ø]&#45;&gt;Shoot -->
<g id="edge45" class="edge"><title>enemyRadar[Left45ø]&#45;&gt;Shoot</title>
<path fill="none" stroke="green" stroke-width="0.288691" d="M543.9,-202.294C554.514,-198.19 567.922,-193.397 580.213,-190.149 610.486,-182.151 1062.39,-106.439 1195.55,-84.1926"/>
<polygon fill="green" stroke="green" stroke-width="0.288691" points="1196.37,-87.6049 1205.66,-82.5053 1195.22,-80.7005 1196.37,-87.6049"/>
</g>
<!-- enemyRadar[Left45ø]&#45;&gt;Turn left/right -->
<g id="edge4" class="edge"><title>enemyRadar[Left45ø]&#45;&gt;Turn left/right</title>
<path fill="none" stroke="red" stroke-width="0.47551" d="M536.057,-202.286C562.334,-184.368 626.719,-140.464 671.438,-109.971"/>
<polygon fill="red" stroke="red" stroke-width="0.47551" points="673.533,-112.778 679.823,-104.252 669.59,-106.995 673.533,-112.778"/>
</g>
<!-- enemyRadar[RightFront20ø] -->
<g id="node13" class="node"><title>enemyRadar[RightFront20ø]</title>
<polygon fill="lightgray" stroke="black" points="708.713,-220.362 589.713,-220.362 589.713,-202.362 708.713,-202.362 708.713,-220.362"/>
<text text-anchor="middle" x="649.213" y="-209.162" font-family="Times,serif" font-size="9.00">enemyRadar[RightFront20ø]</text>
</g>
<!-- enemyRadar[RightFront20ø]&#45;&gt;Shoot -->
<g id="edge20" class="edge"><title>enemyRadar[RightFront20ø]&#45;&gt;Shoot</title>
<path fill="none" stroke="green" stroke-width="0.428156" stroke-dasharray="1,5" d="M674.98,-202.347C687.899,-198.448 703.82,-193.822 718.213,-190.149 896.192,-144.737 1111.75,-101.508 1196,-85.0588"/>
<polygon fill="green" stroke="green" stroke-width="0.428156" points="1196.7,-88.4887 1205.85,-83.142 1195.36,-81.6177 1196.7,-88.4887"/>
</g>
<!-- enemyRadar[RightFront20ø]&#45;&gt; Move Left/Right -->
<g id="edge30" class="edge"><title>enemyRadar[RightFront20ø]&#45;&gt; Move Left/Right</title>
<path fill="none" stroke="red" stroke-width="0.4955" d="M671.913,-202.344C685.23,-197.987 702.48,-192.934 718.213,-190.149 959.432,-147.458 1024.48,-178.739 1268.21,-154.149 1447.24,-136.087 1657.29,-104.586 1760.83,-88.3694"/>
<polygon fill="red" stroke="red" stroke-width="0.4955" points="1761.48,-91.8106 1770.81,-86.8013 1760.39,-84.8953 1761.48,-91.8106"/>
</g>
<!-- enemyRadar[RightFront20ø]&#45;&gt;Turn left/right -->
<g id="edge36" class="edge"><title>enemyRadar[RightFront20ø]&#45;&gt;Turn left/right</title>
<path fill="none" stroke="red" stroke-width="0.510968" d="M653.529,-202.087C661.19,-187.4 677.716,-155.717 692.145,-128.052"/>
<polygon fill="red" stroke="red" stroke-width="0.510968" points="695.421,-129.34 696.943,-118.855 689.215,-126.102 695.421,-129.34"/>
</g>
<!-- enemyRadar[LeftFront20ø] -->
<g id="node14" class="node"><title>enemyRadar[LeftFront20ø]</title>
<polygon fill="lightgray" stroke="black" points="1308.21,-286.576 1194.21,-286.576 1194.21,-268.576 1308.21,-268.576 1308.21,-286.576"/>
<text text-anchor="middle" x="1251.21" y="-275.376" font-family="Times,serif" font-size="9.00">enemyRadar[LeftFront20ø]</text>
</g>
<!-- enemyRadar[LeftFront20ø]&#45;&gt;Shoot -->
<g id="edge53" class="edge"><title>enemyRadar[LeftFront20ø]&#45;&gt;Shoot</title>
<path fill="none" stroke="green" stroke-width="0.375598" d="M1250.44,-268.548C1247.99,-242.924 1240.24,-161.976 1235.68,-114.251"/>
<polygon fill="green" stroke="green" stroke-width="0.375598" points="1239.13,-113.653 1234.7,-104.032 1232.17,-114.32 1239.13,-113.653"/>
</g>
<!-- enemyRadar[LeftFront20ø]&#45;&gt;Move Forward/Backward -->
<g id="edge27" class="edge"><title>enemyRadar[LeftFront20ø]&#45;&gt;Move Forward/Backward</title>
<path fill="none" stroke="green" stroke-width="0.230523" d="M1308.41,-276.876C1557.63,-277.91 2538.29,-279.006 2583.21,-232.576 2681.99,-130.486 2413.47,-94.8715 2267.48,-83.2626"/>
<polygon fill="green" stroke="green" stroke-width="0.230523" points="2267.43,-79.7482 2257.19,-82.4677 2266.89,-86.7274 2267.43,-79.7482"/>
</g>
<!-- enemyRadar[LeftFront20ø]&#45;&gt; Move Left/Right -->
<g id="edge41" class="edge"><title>enemyRadar[LeftFront20ø]&#45;&gt; Move Left/Right</title>
<path fill="none" stroke="green" stroke-width="0.3971" d="M1308.61,-276.736C1547.63,-277.127 2453.54,-275.748 2495.21,-232.576 2508.31,-219.009 2507.94,-204.066 2495.21,-190.149 2465.03,-157.133 2138.2,-162.271 2094.21,-154.149 2021.88,-140.794 1940.9,-116.586 1886.87,-99.0582"/>
<polygon fill="green" stroke="green" stroke-width="0.3971" points="1887.7,-95.646 1877.11,-95.8671 1885.53,-102.3 1887.7,-95.646"/>
</g>
<!-- enemyRadar[LeftFront20ø]&#45;&gt;Turn left/right -->
<g id="edge1" class="edge"><title>enemyRadar[LeftFront20ø]&#45;&gt;Turn left/right</title>
<path fill="none" stroke="red" stroke-width="0.376921" d="M1194.09,-275.495C1017.72,-271.881 492.135,-258.935 467.213,-232.576 400.563,-162.08 570.302,-111.261 662.85,-89.6394"/>
<polygon fill="red" stroke="red" stroke-width="0.376921" points="663.68,-93.0401 672.644,-87.3927 662.115,-86.2173 663.68,-93.0401"/>
</g>
<!-- enemyRadar[LeftFront20ø]&#45;&gt;72 -->
<g id="edge56" class="edge"><title>enemyRadar[LeftFront20ø]&#45;&gt;72</title>
<path fill="none" stroke="red" stroke-width="0.426573" d="M1194.09,-275.188C1033.58,-271.02 580.75,-257.346 434.213,-232.576 419.648,-230.114 403.804,-225.691 390.88,-221.61"/>
<polygon fill="red" stroke="red" stroke-width="0.426573" points="391.813,-218.233 381.221,-218.454 389.639,-224.887 391.813,-218.233"/>
</g>
<!-- enemyRadar[RightFront15ø] -->
<g id="node15" class="node"><title>enemyRadar[RightFront15ø]</title>
<polygon fill="lightgray" stroke="black" points="1398.71,-220.362 1279.71,-220.362 1279.71,-202.362 1398.71,-202.362 1398.71,-220.362"/>
<text text-anchor="middle" x="1339.21" y="-209.162" font-family="Times,serif" font-size="9.00">enemyRadar[RightFront15ø]</text>
</g>
<!-- enemyRadar[RightFront15ø]&#45;&gt;Shoot -->
<g id="edge48" class="edge"><title>enemyRadar[RightFront15ø]&#45;&gt;Shoot</title>
<path fill="none" stroke="green" stroke-width="0.230003" d="M1332.52,-202.087C1317.38,-183.371 1279.92,-137.05 1255.3,-106.622"/>
<polygon fill="green" stroke="green" stroke-width="0.230003" points="1257.74,-104.072 1248.73,-98.4976 1252.3,-108.474 1257.74,-104.072"/>
</g>
<!-- enemyRadar[RightFront15ø]&#45;&gt; Move Left/Right -->
<g id="edge10" class="edge"><title>enemyRadar[RightFront15ø]&#45;&gt; Move Left/Right</title>
<path fill="none" stroke="red" stroke-width="0.213206" d="M1366.04,-202.351C1378.8,-198.581 1394.27,-194.064 1408.21,-190.149 1533.27,-155.031 1680.08,-116.108 1761.9,-94.6197"/>
<polygon fill="red" stroke="red" stroke-width="0.213206" points="1763.01,-97.9473 1771.79,-92.0234 1761.23,-91.1766 1763.01,-97.9473"/>
</g>
<!-- enemyRadar[RightFront15ø]&#45;&gt;Turn left/right -->
<g id="edge50" class="edge"><title>enemyRadar[RightFront15ø]&#45;&gt;Turn left/right</title>
<path fill="none" stroke="red" stroke-width="0.248201" d="M1301.3,-202.286C1195.77,-179.806 898.239,-116.424 773.905,-89.9383"/>
<polygon fill="red" stroke="red" stroke-width="0.248201" points="774.347,-86.4541 763.837,-87.7937 772.889,-93.3005 774.347,-86.4541"/>
</g>
<!-- enemyRadar[LeftFront15ø] -->
<g id="node16" class="node"><title>enemyRadar[LeftFront15ø]</title>
<polygon fill="lightgray" stroke="black" points="1185.21,-220.362 1071.21,-220.362 1071.21,-202.362 1185.21,-202.362 1185.21,-220.362"/>
<text text-anchor="middle" x="1128.21" y="-209.162" font-family="Times,serif" font-size="9.00">enemyRadar[LeftFront15ø]</text>
</g>
<!-- enemyRadar[LeftFront15ø]&#45;&gt;Shoot -->
<g id="edge39" class="edge"><title>enemyRadar[LeftFront15ø]&#45;&gt;Shoot</title>
<path fill="none" stroke="red" stroke-width="0.249406" d="M1134.72,-202.087C1149.35,-183.474 1185.45,-137.561 1209.37,-107.128"/>
<polygon fill="red" stroke="red" stroke-width="0.249406" points="1212.34,-109.015 1215.77,-98.9904 1206.84,-104.689 1212.34,-109.015"/>
</g>
<!-- enemyRadar[RightFront7.5ø] -->
<g id="node17" class="node"><title>enemyRadar[RightFront7.5ø]</title>
<polygon fill="lightgray" stroke="black" points="849.213,-220.362 727.213,-220.362 727.213,-202.362 849.213,-202.362 849.213,-220.362"/>
<text text-anchor="middle" x="788.213" y="-209.162" font-family="Times,serif" font-size="9.00">enemyRadar[RightFront7.5ø]</text>
</g>
<!-- enemyRadar[RightFront7.5ø]&#45;&gt; Move Left/Right -->
<g id="edge46" class="edge"><title>enemyRadar[RightFront7.5ø]&#45;&gt; Move Left/Right</title>
<path fill="none" stroke="green" stroke-width="0.388272" d="M811.912,-202.279C825.343,-198.013 842.545,-193.071 858.213,-190.149 1038.04,-156.619 1086.43,-174.532 1268.21,-154.149 1447.03,-134.1 1657.17,-103.473 1760.78,-87.9024"/>
<polygon fill="green" stroke="green" stroke-width="0.388272" points="1761.4,-91.348 1770.77,-86.3979 1760.36,-84.4261 1761.4,-91.348"/>
</g>
<!-- enemyRadar[RightFront7.5ø]&#45;&gt;Turn left/right -->
<g id="edge26" class="edge"><title>enemyRadar[RightFront7.5ø]&#45;&gt;Turn left/right</title>
<path fill="none" stroke="red" stroke-width="0.309499" d="M783.834,-202.087C776.002,-187.285 759.034,-155.22 744.316,-127.404"/>
<polygon fill="red" stroke="red" stroke-width="0.309499" points="747.401,-125.751 739.63,-118.549 741.214,-129.025 747.401,-125.751"/>
</g>
<!-- enemyRadar[LeftFront7.5ø] -->
<g id="node18" class="node"><title>enemyRadar[LeftFront7.5ø]</title>
<polygon fill="lightgray" stroke="black" points="2368.21,-220.362 2252.21,-220.362 2252.21,-202.362 2368.21,-202.362 2368.21,-220.362"/>
<text text-anchor="middle" x="2310.21" y="-209.162" font-family="Times,serif" font-size="9.00">enemyRadar[LeftFront7.5ø]</text>
</g>
<!-- enemyRadar[LeftFront7.5ø]&#45;&gt;Shoot -->
<g id="edge42" class="edge"><title>enemyRadar[LeftFront7.5ø]&#45;&gt;Shoot</title>
<path fill="none" stroke="green" stroke-width="0.324621" d="M2287.88,-202.285C2274.99,-197.966 2258.38,-192.969 2243.21,-190.149 2032.01,-150.892 1974.76,-177.452 1761.21,-154.149 1575.27,-133.859 1354.14,-98.3504 1268.54,-84.1733"/>
<polygon fill="green" stroke="green" stroke-width="0.324621" points="1268.99,-80.6998 1258.55,-82.5134 1267.84,-87.6052 1268.99,-80.6998"/>
</g>
<!-- enemyRadar[LeftFront7.5ø]&#45;&gt;Move Forward/Backward -->
<g id="edge6" class="edge"><title>enemyRadar[LeftFront7.5ø]&#45;&gt;Move Forward/Backward</title>
<path fill="none" stroke="green" stroke-width="0.404089" d="M2302.08,-202.087C2289.69,-189.474 2264.97,-164.325 2241.02,-139.951"/>
<polygon fill="green" stroke="green" stroke-width="0.404089" points="2243.47,-137.448 2233.96,-132.769 2238.47,-142.355 2243.47,-137.448"/>
</g>
<!-- enemyRadar[LeftFront7.5ø]&#45;&gt; Move Left/Right -->
<g id="edge9" class="edge"><title>enemyRadar[LeftFront7.5ø]&#45;&gt; Move Left/Right</title>
<path fill="none" stroke="green" stroke-width="0.15441" d="M2284.86,-202.348C2272.37,-198.493 2257.05,-193.905 2243.21,-190.149 2177.46,-172.304 2160.11,-171.422 2094.21,-154.149 2023.17,-135.528 1942.12,-112.338 1887.72,-96.4886"/>
<polygon fill="green" stroke="green" stroke-width="0.15441" points="1888.46,-93.0589 1877.88,-93.6172 1886.5,-99.7786 1888.46,-93.0589"/>
</g>
<!-- enemyRadar[RightFront2.5ø] -->
<g id="node19" class="node"><title>enemyRadar[RightFront2.5ø]</title>
<polygon fill="lightgray" stroke="black" points="1886.21,-220.362 1764.21,-220.362 1764.21,-202.362 1886.21,-202.362 1886.21,-220.362"/>
<text text-anchor="middle" x="1825.21" y="-209.162" font-family="Times,serif" font-size="9.00">enemyRadar[RightFront2.5ø]</text>
</g>
<!-- enemyRadar[RightFront2.5ø]&#45;&gt;Shoot -->
<g id="edge51" class="edge"><title>enemyRadar[RightFront2.5ø]&#45;&gt;Shoot</title>
<path fill="none" stroke="red" stroke-width="0.258504" d="M1799.07,-202.343C1785.96,-198.442 1769.81,-193.817 1755.21,-190.149 1573.66,-144.542 1353.72,-101.265 1268.44,-84.9298"/>
<polygon fill="red" stroke="red" stroke-width="0.258504" points="1268.96,-81.4665 1258.48,-83.0282 1267.65,-88.3422 1268.96,-81.4665"/>
</g>
<!-- enemyRadar[RightFront2.5ø]&#45;&gt;Move Forward/Backward -->
<g id="edge38" class="edge"><title>enemyRadar[RightFront2.5ø]&#45;&gt;Move Forward/Backward</title>
<path fill="none" stroke="green" stroke-width="0.19348" stroke-dasharray="1,5" d="M1846.89,-202.286C1895.71,-184.093 2016.42,-139.11 2098.36,-108.576"/>
<polygon fill="green" stroke="green" stroke-width="0.19348" points="2100.01,-111.699 2108.15,-104.927 2097.56,-105.139 2100.01,-111.699"/>
</g>
<!-- enemyRadar[RightFront2.5ø]&#45;&gt; Move Left/Right -->
<g id="edge2" class="edge"><title>enemyRadar[RightFront2.5ø]&#45;&gt; Move Left/Right</title>
<path fill="none" stroke="red" stroke-width="0.190081" d="M1825.21,-202.087C1825.21,-189.912 1825.21,-166.055 1825.21,-142.491"/>
<polygon fill="red" stroke="red" stroke-width="0.190081" points="1828.71,-142.445 1825.21,-132.445 1821.71,-142.445 1828.71,-142.445"/>
</g>
<!-- enemyRadar[RightFront2.5ø]&#45;&gt;Turn left/right -->
<g id="edge21" class="edge"><title>enemyRadar[RightFront2.5ø]&#45;&gt;Turn left/right</title>
<path fill="none" stroke="green" stroke-width="0.232731" d="M1802.18,-202.343C1788.66,-197.985 1771.16,-192.932 1755.21,-190.149 1509.96,-147.364 1443.64,-181.744 1196.21,-154.149 1042.62,-137.02 863.014,-105.239 774.039,-88.6994"/>
<polygon fill="green" stroke="green" stroke-width="0.232731" points="774.635,-85.2502 764.162,-86.8567 773.351,-92.1315 774.635,-85.2502"/>
</g>
<!-- enemyRadar[LeftFront2.5ø] -->
<g id="node20" class="node"><title>enemyRadar[LeftFront2.5ø]</title>
<polygon fill="lightgray" stroke="black" points="252.213,-220.362 136.213,-220.362 136.213,-202.362 252.213,-202.362 252.213,-220.362"/>
<text text-anchor="middle" x="194.213" y="-209.162" font-family="Times,serif" font-size="9.00">enemyRadar[LeftFront2.5ø]</text>
</g>
<!-- enemyRadar[LeftFront2.5ø]&#45;&gt;Turn left/right -->
<g id="edge23" class="edge"><title>enemyRadar[LeftFront2.5ø]&#45;&gt;Turn left/right</title>
<path fill="none" stroke="red" stroke-width="0.249008" d="M222.197,-202.291C235.504,-198.508 251.653,-193.997 266.213,-190.149 408.737,-152.483 577.538,-111.616 662.88,-91.2166"/>
<polygon fill="red" stroke="red" stroke-width="0.249008" points="663.953,-94.5589 672.867,-88.8319 662.327,-87.7504 663.953,-94.5589"/>
</g>
<!-- enemyRadar[Front7Ø] -->
<g id="node21" class="node"><title>enemyRadar[Front7Ø]</title>
<polygon fill="lightgray" stroke="black" points="1053.21,-220.362 955.213,-220.362 955.213,-202.362 1053.21,-202.362 1053.21,-220.362"/>
<text text-anchor="middle" x="1004.21" y="-209.162" font-family="Times,serif" font-size="9.00">enemyRadar[Front7Ø]</text>
</g>
<!-- enemyRadar[Front7Ø]&#45;&gt; Move Left/Right -->
<g id="edge28" class="edge"><title>enemyRadar[Front7Ø]&#45;&gt; Move Left/Right</title>
<path fill="none" stroke="red" stroke-width="0.272422" d="M1024.33,-202.295C1035.36,-198.141 1049.37,-193.3 1062.21,-190.149 1129.66,-173.601 1589.02,-110.252 1760.67,-86.8392"/>
<polygon fill="red" stroke="red" stroke-width="0.272422" points="1761.15,-90.3069 1770.59,-85.4882 1760.2,-83.371 1761.15,-90.3069"/>
</g>
<!-- enemyRadar[Front7Ø]&#45;&gt;Turn left/right -->
<g id="edge3" class="edge"><title>enemyRadar[Front7Ø]&#45;&gt;Turn left/right</title>
<path fill="none" stroke="green" stroke-width="0.669003" d="M986.753,-202.286C944.446,-182.717 835.128,-132.153 769.753,-101.914"/>
<polygon fill="green" stroke="green" stroke-width="0.669003" points="770.985,-98.6279 760.44,-97.6064 768.047,-104.981 770.985,-98.6279"/>
</g>
<!-- OnTarget -->
<g id="node22" class="node"><title>OnTarget</title>
<polygon fill="lightgray" stroke="black" points="805.213,-286.576 755.213,-286.576 755.213,-268.576 805.213,-268.576 805.213,-286.576"/>
<text text-anchor="middle" x="780.213" y="-275.376" font-family="Times,serif" font-size="9.00">OnTarget</text>
</g>
<!-- OnTarget&#45;&gt;Shoot -->
<g id="edge33" class="edge"><title>OnTarget&#45;&gt;Shoot</title>
<path fill="none" stroke="red" stroke-width="0.344302" d="M805.223,-275.569C890.293,-271.922 1164.81,-258.246 1194.21,-232.576 1227.73,-203.309 1234.11,-149.694 1234.24,-113.964"/>
<polygon fill="red" stroke="red" stroke-width="0.344302" points="1237.74,-113.902 1234.11,-103.947 1230.74,-113.99 1237.74,-113.902"/>
</g>
<!-- OnTarget&#45;&gt; Move Left/Right -->
<g id="edge11" class="edge"><title>OnTarget&#45;&gt; Move Left/Right</title>
<path fill="none" stroke="red" stroke-width="0.288782" d="M805.475,-275.974C987.302,-271.612 2089.5,-244.682 2101.21,-232.576 2172.71,-158.661 1991.92,-110.211 1889.68,-89.5223"/>
<polygon fill="red" stroke="red" stroke-width="0.288782" points="1890.23,-86.0634 1879.74,-87.548 1888.87,-92.9292 1890.23,-86.0634"/>
</g>
<!-- OnTarget&#45;&gt;Turn left/right -->
<g id="edge19" class="edge"><title>OnTarget&#45;&gt;Turn left/right</title>
<path fill="none" stroke="red" stroke-width="0.722053" stroke-dasharray="1,5" d="M755.212,-275.272C679.316,-271.063 455.452,-256.686 434.213,-232.576 362.653,-151.339 560.134,-104.812 661.874,-86.8056"/>
<polygon fill="red" stroke="red" stroke-width="0.722053" points="662.747,-90.2066 672.002,-85.0511 661.552,-83.3093 662.747,-90.2066"/>
</g>
<!-- OnTarget&#45;&gt;72 -->
<g id="edge54" class="edge"><title>OnTarget&#45;&gt;72</title>
<path fill="none" stroke="red" stroke-width="0.44736" d="M754.978,-275.156C680.553,-270.737 462.984,-256.1 396.213,-232.576 393.211,-231.518 390.2,-230.137 387.29,-228.593"/>
<polygon fill="red" stroke="red" stroke-width="0.44736" points="388.85,-225.447 378.475,-223.3 385.246,-231.449 388.85,-225.447"/>
</g>
<!-- bias -->
<g id="node23" class="node"><title>bias</title>
<polygon fill="lightgray" stroke="black" points="2573.71,-220.362 2542.71,-220.362 2542.71,-202.362 2573.71,-202.362 2573.71,-220.362"/>
<text text-anchor="middle" x="2558.21" y="-209.162" font-family="Times,serif" font-size="9.00">bias</text>
</g>
<!-- bias&#45;&gt;Move Forward/Backward -->
<g id="edge31" class="edge"><title>bias&#45;&gt;Move Forward/Backward</title>
<path fill="none" stroke="red" stroke-width="0.107746" stroke-dasharray="1,5" d="M2547.82,-202.298C2542.24,-198.245 2535.1,-193.497 2528.21,-190.149 2442.33,-148.427 2337.22,-117.041 2265.14,-98.2488"/>
<polygon fill="red" stroke="red" stroke-width="0.107746" points="2265.75,-94.7916 2255.19,-95.681 2264,-101.569 2265.75,-94.7916"/>
</g>
<!-- bias&#45;&gt; Move Left/Right -->
<g id="edge43" class="edge"><title>bias&#45;&gt; Move Left/Right</title>
<path fill="none" stroke="green" stroke-width="0.339115" d="M2548.9,-202.254C2543.3,-197.867 2535.8,-192.814 2528.21,-190.149 2345.6,-125.998 2284.67,-188.645 2094.21,-154.149 2021.83,-141.039 1940.86,-116.786 1886.85,-99.1805"/>
<polygon fill="green" stroke="green" stroke-width="0.339115" points="1887.68,-95.769 1877.09,-95.9747 1885.5,-102.42 1887.68,-95.769"/>
</g>
<!-- 164&#45;&gt;Turn left/right -->
<g id="edge58" class="edge"><title>164&#45;&gt;Turn left/right</title>
<path fill="none" stroke="green" stroke-width="0.488231" d="M38.4235,-198.798C43.9111,-195.563 50.1396,-192.337 56.2132,-190.149 270.988,-112.791 544.575,-88.2021 661.301,-80.9173"/>
<polygon fill="green" stroke="green" stroke-width="0.488231" points="661.665,-84.4018 671.435,-80.3041 661.242,-77.4146 661.665,-84.4018"/>
</g>
<!-- 72&#45;&gt;Turn left/right -->
<g id="edge55" class="edge"><title>72&#45;&gt;Turn left/right</title>
<path fill="none" stroke="red" stroke-width="0.196556" d="M379.106,-199.963C384.363,-196.563 390.412,-192.945 396.213,-190.149 486.49,-146.634 598.198,-111.656 663.503,-92.9564"/>
<polygon fill="red" stroke="red" stroke-width="0.196556" points="664.521,-96.3058 673.184,-90.2063 662.608,-89.5722 664.521,-96.3058"/>
</g>
</g>
</svg>
