<?xml version="1.0" encoding="UTF-8" standalone="no"?>
<!DOCTYPE svg PUBLIC "-//W3C//DTD SVG 1.1//EN"
 "http://www.w3.org/Graphics/SVG/1.1/DTD/svg11.dtd">
<!-- Generated by graphviz version 2.38.0 (20140413.2041)
 -->
<!-- Title: %3 Pages: 1 -->
<svg width="2141pt" height="711pt"
 viewBox="0.00 0.00 2140.50 710.87" xmlns="http://www.w3.org/2000/svg" xmlns:xlink="http://www.w3.org/1999/xlink">
<g id="graph0" class="graph" transform="scale(1 1) rotate(0) translate(4 706.874)">
<title>%3</title>
<polygon fill="white" stroke="none" points="-4,4 -4,-706.874 2136.5,-706.874 2136.5,4 -4,4"/>
<!-- wallRadar[1,0] -->
<g id="node1" class="node"><title>wallRadar[1,0]</title>
<polygon fill="lightgray" stroke="black" points="1415.5,-702.874 1345.5,-702.874 1345.5,-684.874 1415.5,-684.874 1415.5,-702.874"/>
<text text-anchor="middle" x="1380.5" y="-691.674" font-family="Times,serif" font-size="9.00">wallRadar[1,0]</text>
</g>
<!-- Shoot -->
<g id="node25" class="node"><title>Shoot</title>
<ellipse fill="lightblue" stroke="black" cx="502.5" cy="-512.465" rx="26.7407" ry="26.7407"/>
<text text-anchor="middle" x="502.5" y="-510.265" font-family="Times,serif" font-size="9.00">Shoot</text>
</g>
<!-- wallRadar[1,0]&#45;&gt;Shoot -->
<g id="edge17" class="edge"><title>wallRadar[1,0]&#45;&gt;Shoot</title>
<path fill="none" stroke="green" stroke-width="0.175808" d="M1345.26,-690.229C1323.45,-688.617 1294.85,-686.552 1269.5,-684.874 1203.19,-680.486 731.192,-680.04 672.5,-648.874 648.005,-635.867 656.76,-615.92 634.5,-599.377 598.26,-572.443 575.512,-590.614 539.5,-563.377 532.725,-558.253 526.617,-551.558 521.407,-544.744"/>
<polygon fill="green" stroke="green" stroke-width="0.175808" points="523.951,-542.282 515.305,-536.158 518.245,-546.337 523.951,-542.282"/>
</g>
<!-- Move Left/Right -->
<g id="node28" class="node"><title>Move Left/Right</title>
<ellipse fill="lightblue" stroke="black" cx="1415.5" cy="-371.813" rx="53.9813" ry="53.9813"/>
<text text-anchor="middle" x="1415.5" y="-369.613" font-family="Times,serif" font-size="9.00">Move Left/Right</text>
</g>
<!-- wallRadar[1,0]&#45;&gt;Move Left/Right -->
<g id="edge10" class="edge"><title>wallRadar[1,0]&#45;&gt;Move Left/Right</title>
<path fill="none" stroke="red" stroke-width="0.336486" d="M1411.87,-684.786C1430.09,-678.301 1451.55,-667.175 1462.5,-648.874 1473.79,-629.996 1475.5,-617.121 1462.5,-599.377 1431.09,-556.521 1379.91,-606.233 1348.5,-563.377 1321.75,-526.875 1334.12,-504.463 1348.5,-461.553 1353.58,-446.388 1362.39,-431.744 1371.99,-418.873"/>
<polygon fill="red" stroke="red" stroke-width="0.336486" points="1374.98,-420.721 1378.37,-410.683 1369.46,-416.417 1374.98,-420.721"/>
</g>
<!-- 2433 -->
<g id="node31" class="node"><title>2433</title>
<ellipse fill="white" stroke="black" cx="1380.5" cy="-624.126" rx="25" ry="25"/>
<text text-anchor="middle" x="1380.5" y="-621.926" font-family="Times,serif" font-size="9.00">2433</text>
</g>
<!-- wallRadar[1,0]&#45;&gt;2433 -->
<g id="edge62" class="edge"><title>wallRadar[1,0]&#45;&gt;2433</title>
<path fill="none" stroke="green" stroke-width="0.33086" d="M1380.5,-684.837C1380.5,-678.401 1380.5,-668.904 1380.5,-659.367"/>
<polygon fill="green" stroke="green" stroke-width="0.33086" points="1384,-659.147 1380.5,-649.147 1377,-659.147 1384,-659.147"/>
</g>
<!-- wallRadar[0,1] -->
<g id="node2" class="node"><title>wallRadar[0,1]</title>
<polygon fill="lightgray" stroke="black" points="751.5,-633.126 681.5,-633.126 681.5,-615.126 751.5,-615.126 751.5,-633.126"/>
<text text-anchor="middle" x="716.5" y="-621.926" font-family="Times,serif" font-size="9.00">wallRadar[0,1]</text>
</g>
<!-- wallRadar[0,1]&#45;&gt;Shoot -->
<g id="edge34" class="edge"><title>wallRadar[0,1]&#45;&gt;Shoot</title>
<path fill="none" stroke="green" stroke-width="0.647904" stroke-dasharray="1,5" d="M701.347,-614.959C691.811,-610.028 679.148,-603.853 667.5,-599.377 613.933,-578.789 591.413,-594.962 543.5,-563.377 535.761,-558.275 528.746,-551.265 522.793,-544.11"/>
<polygon fill="green" stroke="green" stroke-width="0.647904" points="525.206,-541.51 516.313,-535.75 519.673,-545.798 525.206,-541.51"/>
</g>
<!-- Turn Left/Right -->
<g id="node29" class="node"><title>Turn Left/Right</title>
<ellipse fill="lightblue" stroke="black" cx="1174.5" cy="-512.465" rx="50.8235" ry="50.8235"/>
<text text-anchor="middle" x="1174.5" y="-510.265" font-family="Times,serif" font-size="9.00">Turn Left/Right</text>
</g>
<!-- wallRadar[0,1]&#45;&gt;Turn Left/Right -->
<g id="edge3" class="edge"><title>wallRadar[0,1]&#45;&gt;Turn Left/Right</title>
<path fill="none" stroke="green" stroke-width="0.471014" stroke-dasharray="1,5" d="M728.642,-614.927C737.178,-609.586 749.071,-602.965 760.5,-599.377 895.364,-557.039 941.141,-604.101 1076.5,-563.377 1091.8,-558.774 1107.57,-551.848 1121.86,-544.609"/>
<polygon fill="green" stroke="green" stroke-width="0.471014" points="1123.78,-547.558 1131.02,-539.829 1120.54,-541.352 1123.78,-547.558"/>
</g>
<!-- wallRadar[&#45;1,0] -->
<g id="node3" class="node"><title>wallRadar[&#45;1,0]</title>
<polygon fill="lightgray" stroke="black" points="1261,-702.874 1188,-702.874 1188,-684.874 1261,-684.874 1261,-702.874"/>
<text text-anchor="middle" x="1224.5" y="-691.674" font-family="Times,serif" font-size="9.00">wallRadar[&#45;1,0]</text>
</g>
<!-- Jump/Crouch -->
<g id="node26" class="node"><title>Jump/Crouch</title>
<ellipse fill="lightblue" stroke="black" cx="488.5" cy="-236.111" rx="45.9239" ry="45.9239"/>
<text text-anchor="middle" x="488.5" y="-233.911" font-family="Times,serif" font-size="9.00">Jump/Crouch</text>
</g>
<!-- wallRadar[&#45;1,0]&#45;&gt;Jump/Crouch -->
<g id="edge7" class="edge"><title>wallRadar[&#45;1,0]&#45;&gt;Jump/Crouch</title>
<path fill="none" stroke="red" stroke-width="0.400639" stroke-dasharray="1,5" d="M1187.88,-692.432C1025.36,-690.291 375.935,-679.822 346.5,-648.874 322.409,-623.546 255.01,-521.92 373.5,-318.073 388.134,-292.897 414.092,-273.607 437.647,-260.183"/>
<polygon fill="red" stroke="red" stroke-width="0.400639" points="439.435,-263.194 446.529,-255.325 436.076,-257.053 439.435,-263.194"/>
</g>
<!-- wallRadar[&#45;1,0]&#45;&gt;Move Left/Right -->
<g id="edge38" class="edge"><title>wallRadar[&#45;1,0]&#45;&gt;Move Left/Right</title>
<path fill="none" stroke="green" stroke-width="0.512651" d="M1261.41,-689.97C1309.09,-685.344 1394.1,-674.101 1462.5,-648.874 1533.77,-622.589 1572.53,-629.169 1610.5,-563.377 1633.12,-524.182 1634.99,-499.608 1610.5,-461.553 1581.59,-416.628 1523.73,-394.18 1478.51,-383.129"/>
<polygon fill="green" stroke="green" stroke-width="0.512651" points="1479.02,-379.654 1468.49,-380.812 1477.44,-386.474 1479.02,-379.654"/>
</g>
<!-- wallRadar[&#45;1,0]&#45;&gt;Turn Left/Right -->
<g id="edge25" class="edge"><title>wallRadar[&#45;1,0]&#45;&gt;Turn Left/Right</title>
<path fill="none" stroke="red" stroke-width="0.463905" stroke-dasharray="1,5" d="M1213.58,-684.821C1203.78,-676.893 1189.97,-663.824 1183.5,-648.874 1173.39,-625.507 1170.21,-597.739 1169.92,-573.45"/>
<polygon fill="red" stroke="red" stroke-width="0.463905" points="1173.42,-573.289 1169.95,-563.276 1166.42,-573.263 1173.42,-573.289"/>
</g>
<!-- wallRadar[&#45;1,0]&#45;&gt;2433 -->
<g id="edge49" class="edge"><title>wallRadar[&#45;1,0]&#45;&gt;2433</title>
<path fill="none" stroke="green" stroke-width="0.599718" d="M1253.5,-684.783C1278.8,-677.176 1316.11,-664.615 1346.5,-648.874 1348.53,-647.825 1350.57,-646.671 1352.6,-645.456"/>
<polygon fill="green" stroke="green" stroke-width="0.599718" points="1354.77,-648.219 1361.28,-639.857 1350.98,-642.337 1354.77,-648.219"/>
</g>
<!-- wallRadar[0,&#45;1] -->
<g id="node4" class="node"><title>wallRadar[0,&#45;1]</title>
<polygon fill="lightgray" stroke="black" points="429,-633.126 356,-633.126 356,-615.126 429,-615.126 429,-633.126"/>
<text text-anchor="middle" x="392.5" y="-621.926" font-family="Times,serif" font-size="9.00">wallRadar[0,&#45;1]</text>
</g>
<!-- wallRadar[0,&#45;1]&#45;&gt;Shoot -->
<g id="edge6" class="edge"><title>wallRadar[0,&#45;1]&#45;&gt;Shoot</title>
<path fill="none" stroke="red" stroke-width="0.174735" d="M400.768,-614.883C416.616,-599.084 451.872,-563.937 476.406,-539.478"/>
<polygon fill="red" stroke="red" stroke-width="0.174735" points="479.032,-541.803 483.643,-532.264 474.09,-536.845 479.032,-541.803"/>
</g>
<!-- wallRadar[0,&#45;1]&#45;&gt;Jump/Crouch -->
<g id="edge23" class="edge"><title>wallRadar[0,&#45;1]&#45;&gt;Jump/Crouch</title>
<path fill="none" stroke="red" stroke-width="0.121329" stroke-dasharray="1,5" d="M390.64,-615.089C382.631,-578.673 353.65,-426.25 402.5,-318.073 411.196,-298.817 426.824,-281.945 442.395,-268.659"/>
<polygon fill="red" stroke="red" stroke-width="0.121329" points="444.964,-271.08 450.496,-262.044 440.536,-265.658 444.964,-271.08"/>
</g>
<!-- wallRadar[0.7,0.7] -->
<g id="node5" class="node"><title>wallRadar[0.7,0.7]</title>
<polygon fill="lightgray" stroke="black" points="1903,-702.874 1820,-702.874 1820,-684.874 1903,-684.874 1903,-702.874"/>
<text text-anchor="middle" x="1861.5" y="-691.674" font-family="Times,serif" font-size="9.00">wallRadar[0.7,0.7]</text>
</g>
<!-- Move Forward/Backward -->
<g id="node27" class="node"><title>Move Forward/Backward</title>
<ellipse fill="lightblue" stroke="black" cx="980.5" cy="-77.0746" rx="77.1494" ry="77.1494"/>
<text text-anchor="middle" x="980.5" y="-74.8746" font-family="Times,serif" font-size="9.00">Move Forward/Backward</text>
</g>
<!-- wallRadar[0.7,0.7]&#45;&gt;Move Forward/Backward -->
<g id="edge27" class="edge"><title>wallRadar[0.7,0.7]&#45;&gt;Move Forward/Backward</title>
<path fill="none" stroke="green" stroke-width="0.137925" stroke-dasharray="1,5" d="M1862.91,-684.678C1867.16,-659.315 1879.5,-579.829 1879.5,-513.465 1879.5,-513.465 1879.5,-513.465 1879.5,-370.813 1879.5,-201.072 1292.73,-114.528 1067.28,-87.5413"/>
<polygon fill="green" stroke="green" stroke-width="0.137925" points="1067.49,-84.0414 1057.15,-86.3391 1066.67,-90.9927 1067.49,-84.0414"/>
</g>
<!-- wallRadar[0.7,0.7]&#45;&gt;2433 -->
<g id="edge51" class="edge"><title>wallRadar[0.7,0.7]&#45;&gt;2433</title>
<path fill="none" stroke="green" stroke-width="0.750535" d="M1819.8,-687.817C1811.11,-686.806 1802.01,-685.778 1793.5,-684.874 1624.8,-666.962 1572.32,-708.497 1413.5,-648.874 1411.62,-648.167 1409.74,-647.323 1407.9,-646.382"/>
<polygon fill="green" stroke="green" stroke-width="0.750535" points="1409.42,-643.212 1399.05,-641.041 1405.81,-649.205 1409.42,-643.212"/>
</g>
<!-- wallRadar[&#45;0.7,0.7] -->
<g id="node6" class="node"><title>wallRadar[&#45;0.7,0.7]</title>
<polygon fill="lightgray" stroke="black" points="163.5,-633.126 77.5,-633.126 77.5,-615.126 163.5,-615.126 163.5,-633.126"/>
<text text-anchor="middle" x="120.5" y="-621.926" font-family="Times,serif" font-size="9.00">wallRadar[&#45;0.7,0.7]</text>
</g>
<!-- wallRadar[&#45;0.7,0.7]&#45;&gt;Shoot -->
<g id="edge8" class="edge"><title>wallRadar[&#45;0.7,0.7]&#45;&gt;Shoot</title>
<path fill="none" stroke="green" stroke-width="0.194756" d="M136.135,-615.12C146.309,-610.129 159.969,-603.831 172.5,-599.377 276.644,-562.355 404.402,-533.639 465.94,-520.805"/>
<polygon fill="green" stroke="green" stroke-width="0.194756" points="466.853,-524.19 475.937,-518.738 465.436,-517.335 466.853,-524.19"/>
</g>
<!-- wallRadar[&#45;0.7,0.7]&#45;&gt;Jump/Crouch -->
<g id="edge73" class="edge"><title>wallRadar[&#45;0.7,0.7]&#45;&gt;Jump/Crouch</title>
<path fill="none" stroke="red" stroke-width="0.115287" d="M127.009,-614.951C135.753,-603.741 151.468,-582.775 162.5,-563.377 221.57,-459.516 185.396,-399.861 272.5,-318.073 317.064,-276.229 385.278,-255.501 433.095,-245.584"/>
<polygon fill="red" stroke="red" stroke-width="0.115287" points="433.844,-249.004 442.974,-243.628 432.484,-242.137 433.844,-249.004"/>
</g>
<!-- wallRadar[&#45;0.7,0.7]&#45;&gt;Move Forward/Backward -->
<g id="edge4" class="edge"><title>wallRadar[&#45;0.7,0.7]&#45;&gt;Move Forward/Backward</title>
<path fill="none" stroke="red" stroke-width="0.210679" d="M120.853,-614.818C123.455,-565.037 143.981,-304.571 291.5,-190.149 384.066,-118.351 729.763,-91.0783 893.478,-82.0276"/>
<polygon fill="red" stroke="red" stroke-width="0.210679" points="893.723,-85.5196 903.518,-81.4829 893.343,-78.5299 893.723,-85.5196"/>
</g>
<!-- wallRadar[&#45;0.7,&#45;0.7] -->
<g id="node7" class="node"><title>wallRadar[&#45;0.7,&#45;0.7]</title>
<polygon fill="lightgray" stroke="black" points="675,-521.465 586,-521.465 586,-503.465 675,-503.465 675,-521.465"/>
<text text-anchor="middle" x="630.5" y="-510.265" font-family="Times,serif" font-size="9.00">wallRadar[&#45;0.7,&#45;0.7]</text>
</g>
<!-- wallRadar[&#45;0.7,&#45;0.7]&#45;&gt;Jump/Crouch -->
<g id="edge18" class="edge"><title>wallRadar[&#45;0.7,&#45;0.7]&#45;&gt;Jump/Crouch</title>
<path fill="none" stroke="green" stroke-width="0.251795" d="M628.988,-503.203C623.641,-475.418 603.803,-383.442 564.5,-318.073 555.116,-302.466 542.31,-287.354 529.885,-274.496"/>
<polygon fill="green" stroke="green" stroke-width="0.251795" points="532.17,-271.83 522.641,-267.199 527.202,-276.762 532.17,-271.83"/>
</g>
<!-- 2661 -->
<g id="node33" class="node"><title>2661</title>
<ellipse fill="white" stroke="black" cx="1092.5" cy="-236.111" rx="25" ry="25"/>
<text text-anchor="middle" x="1092.5" y="-233.911" font-family="Times,serif" font-size="9.00">2661</text>
</g>
<!-- wallRadar[&#45;0.7,&#45;0.7]&#45;&gt;2661 -->
<g id="edge66" class="edge"><title>wallRadar[&#45;0.7,&#45;0.7]&#45;&gt;2661</title>
<path fill="none" stroke="red" stroke-width="0.459784" d="M644.077,-503.403C707.2,-465.918 972.713,-308.245 1062.6,-254.865"/>
<polygon fill="red" stroke="red" stroke-width="0.459784" points="1064.66,-257.715 1071.47,-249.599 1061.09,-251.696 1064.66,-257.715"/>
</g>
<!-- 2892 -->
<g id="node35" class="node"><title>2892</title>
<ellipse fill="white" stroke="black" cx="530.5" cy="-371.813" rx="25" ry="25"/>
<text text-anchor="middle" x="530.5" y="-369.613" font-family="Times,serif" font-size="9.00">2892</text>
</g>
<!-- wallRadar[&#45;0.7,&#45;0.7]&#45;&gt;2892 -->
<g id="edge60" class="edge"><title>wallRadar[&#45;0.7,&#45;0.7]&#45;&gt;2892</title>
<path fill="none" stroke="green" stroke-width="1.14425" d="M624.544,-503.207C610.324,-483.49 573.856,-432.927 550.736,-400.871"/>
<polygon fill="green" stroke="green" stroke-width="1.14425" points="553.287,-398.425 544.599,-392.362 547.61,-402.52 553.287,-398.425"/>
</g>
<!-- wallRadar[0.7,&#45;0.7] -->
<g id="node8" class="node"><title>wallRadar[0.7,&#45;0.7]</title>
<polygon fill="lightgray" stroke="black" points="997.5,-633.126 911.5,-633.126 911.5,-615.126 997.5,-615.126 997.5,-633.126"/>
<text text-anchor="middle" x="954.5" y="-621.926" font-family="Times,serif" font-size="9.00">wallRadar[0.7,&#45;0.7]</text>
</g>
<!-- wallRadar[0.7,&#45;0.7]&#45;&gt;Shoot -->
<g id="edge28" class="edge"><title>wallRadar[0.7,&#45;0.7]&#45;&gt;Shoot</title>
<path fill="none" stroke="green" stroke-width="0.679926" d="M927.936,-615.116C910.129,-609.994 886.077,-603.553 864.5,-599.377 737.854,-574.866 697.278,-608.683 576.5,-563.377 560.075,-557.216 543.706,-546.744 530.556,-536.978"/>
<polygon fill="green" stroke="green" stroke-width="0.679926" points="532.472,-534.036 522.411,-530.715 528.205,-539.585 532.472,-534.036"/>
</g>
<!-- wallRadar[0.7,&#45;0.7]&#45;&gt;Move Left/Right -->
<g id="edge24" class="edge"><title>wallRadar[0.7,&#45;0.7]&#45;&gt;Move Left/Right</title>
<path fill="none" stroke="red" stroke-width="0.216359" stroke-dasharray="1,5" d="M971.826,-615.055C1004.58,-599.742 1072.66,-567.614 1076.5,-563.377 1108.94,-527.585 1079.16,-494.484 1114.5,-461.553 1132.24,-445.024 1270.85,-408.574 1353.66,-387.9"/>
<polygon fill="red" stroke="red" stroke-width="0.216359" points="1354.61,-391.27 1363.47,-385.459 1352.92,-384.477 1354.61,-391.27"/>
</g>
<!-- wallRadar[0.7,&#45;0.7]&#45;&gt;Turn Left/Right -->
<g id="edge2" class="edge"><title>wallRadar[0.7,&#45;0.7]&#45;&gt;Turn Left/Right</title>
<path fill="none" stroke="red" stroke-width="0.204636" stroke-dasharray="1,5" d="M971.191,-615.028C981.307,-610.239 994.529,-604.19 1006.5,-599.377 1051.49,-581.285 1066.84,-586.436 1109.5,-563.377 1115.55,-560.104 1121.64,-556.286 1127.53,-552.245"/>
<polygon fill="red" stroke="red" stroke-width="0.204636" points="1129.89,-554.862 1136,-546.204 1125.83,-549.164 1129.89,-554.862"/>
</g>
<!-- enemyRadar[RightBack] -->
<g id="node9" class="node"><title>enemyRadar[RightBack]</title>
<polygon fill="lightgray" stroke="black" points="873.5,-521.465 769.5,-521.465 769.5,-503.465 873.5,-503.465 873.5,-521.465"/>
<text text-anchor="middle" x="821.5" y="-510.265" font-family="Times,serif" font-size="9.00">enemyRadar[RightBack]</text>
</g>
<!-- enemyRadar[RightBack]&#45;&gt;Jump/Crouch -->
<g id="edge9" class="edge"><title>enemyRadar[RightBack]&#45;&gt;Jump/Crouch</title>
<path fill="none" stroke="green" stroke-width="0.19597" stroke-dasharray="1,5" d="M821.226,-503.092C819.792,-473.327 810.866,-371.563 755.5,-318.073 698.2,-262.715 604.307,-245.07 544.5,-239.53"/>
<polygon fill="green" stroke="green" stroke-width="0.19597" points="544.735,-236.037 534.476,-238.685 544.147,-243.012 544.735,-236.037"/>
</g>
<!-- enemyRadar[RightBack]&#45;&gt;Move Left/Right -->
<g id="edge13" class="edge"><title>enemyRadar[RightBack]&#45;&gt;Move Left/Right</title>
<path fill="none" stroke="red" stroke-width="2.08987" stroke-dasharray="1,5" d="M828.433,-503.403C838.861,-491.895 859.793,-471.097 882.5,-461.553 1016.88,-405.074 1065.08,-451.612 1208.5,-425.553 1258.05,-416.55 1313.28,-402.258 1354.22,-390.821"/>
<polygon fill="red" stroke="red" stroke-width="2.08987" points="1355.37,-394.134 1364.05,-388.055 1353.47,-387.396 1355.37,-394.134"/>
</g>
<!-- enemyRadar[LeftBack] -->
<g id="node10" class="node"><title>enemyRadar[LeftBack]</title>
<polygon fill="lightgray" stroke="black" points="1785,-702.874 1686,-702.874 1686,-684.874 1785,-684.874 1785,-702.874"/>
<text text-anchor="middle" x="1735.5" y="-691.674" font-family="Times,serif" font-size="9.00">enemyRadar[LeftBack]</text>
</g>
<!-- enemyRadar[LeftBack]&#45;&gt;Jump/Crouch -->
<g id="edge16" class="edge"><title>enemyRadar[LeftBack]&#45;&gt;Jump/Crouch</title>
<path fill="none" stroke="green" stroke-width="0.252766" stroke-dasharray="1,5" d="M1685.81,-691.396C1511.62,-686.063 937.263,-667.168 902.5,-648.874 877.957,-635.959 887.613,-614.706 864.5,-599.377 811.676,-564.342 774.437,-604.847 726.5,-563.377 689.348,-531.237 705.282,-505.585 683.5,-461.553 650.933,-395.72 650.707,-372.601 601.5,-318.073 582.955,-297.523 558.345,-279.135 536.826,-265.097"/>
<polygon fill="green" stroke="green" stroke-width="0.252766" points="538.445,-261.978 528.132,-259.549 534.679,-267.879 538.445,-261.978"/>
</g>
<!-- enemyRadar[LeftBack]&#45;&gt;Move Left/Right -->
<g id="edge32" class="edge"><title>enemyRadar[LeftBack]&#45;&gt;Move Left/Right</title>
<path fill="none" stroke="red" stroke-width="0.284847" stroke-dasharray="1,5" d="M1770.05,-684.865C1789.06,-678.501 1811.06,-667.474 1822.5,-648.874 1866.11,-577.954 1874.72,-526.391 1822.5,-461.553 1780.13,-408.954 1582.93,-385.87 1479.38,-377.232"/>
<polygon fill="red" stroke="red" stroke-width="0.284847" points="1479.61,-373.739 1469.36,-376.416 1479.04,-380.716 1479.61,-373.739"/>
</g>
<!-- enemyRadar[LeftBack]&#45;&gt;Turn Left/Right -->
<g id="edge12" class="edge"><title>enemyRadar[LeftBack]&#45;&gt;Turn Left/Right</title>
<path fill="none" stroke="green" stroke-width="0.313586" d="M1685.76,-691.778C1562.94,-688.635 1252.57,-677.882 1216.5,-648.874 1194.05,-630.82 1183.35,-600.968 1178.35,-573.881"/>
<polygon fill="green" stroke="green" stroke-width="0.313586" points="1181.75,-572.979 1176.7,-563.666 1174.84,-574.096 1181.75,-572.979"/>
</g>
<!-- 1253 -->
<g id="node30" class="node"><title>1253</title>
<ellipse fill="white" stroke="black" cx="1788.5" cy="-512.465" rx="25" ry="25"/>
<text text-anchor="middle" x="1788.5" y="-510.265" font-family="Times,serif" font-size="9.00">1253</text>
</g>
<!-- enemyRadar[LeftBack]&#45;&gt;1253 -->
<g id="edge63" class="edge"><title>enemyRadar[LeftBack]&#45;&gt;1253</title>
<path fill="none" stroke="green" stroke-width="0.114412" d="M1736.66,-684.752C1739.09,-668.381 1745.31,-630.34 1754.5,-599.377 1759.98,-580.912 1767.8,-560.868 1774.56,-544.788"/>
<polygon fill="green" stroke="green" stroke-width="0.114412" points="1777.89,-545.909 1778.6,-535.338 1771.45,-543.157 1777.89,-545.909"/>
</g>
<!-- 3300 -->
<g id="node34" class="node"><title>3300</title>
<ellipse fill="white" stroke="black" cx="1788.5" cy="-624.126" rx="25" ry="25"/>
<text text-anchor="middle" x="1788.5" y="-621.926" font-family="Times,serif" font-size="9.00">3300</text>
</g>
<!-- enemyRadar[LeftBack]&#45;&gt;3300 -->
<g id="edge69" class="edge"><title>enemyRadar[LeftBack]&#45;&gt;3300</title>
<path fill="none" stroke="green" stroke-width="0.833597" d="M1741.79,-684.837C1748.12,-676.749 1758.23,-663.823 1767.43,-652.062"/>
<polygon fill="green" stroke="green" stroke-width="0.833597" points="1770.19,-654.213 1773.59,-644.18 1764.67,-649.9 1770.19,-654.213"/>
</g>
<!-- enemyRadar[Right] -->
<g id="node11" class="node"><title>enemyRadar[Right]</title>
<polygon fill="lightgray" stroke="black" points="855.5,-633.126 769.5,-633.126 769.5,-615.126 855.5,-615.126 855.5,-633.126"/>
<text text-anchor="middle" x="812.5" y="-621.926" font-family="Times,serif" font-size="9.00">enemyRadar[Right]</text>
</g>
<!-- enemyRadar[Right]&#45;&gt;Shoot -->
<g id="edge35" class="edge"><title>enemyRadar[Right]&#45;&gt;Shoot</title>
<path fill="none" stroke="red" stroke-width="1.19744" d="M797.444,-614.962C787.278,-609.775 773.409,-603.319 760.5,-599.377 667.001,-570.821 628.157,-612.271 543.5,-563.377 535.228,-558.599 527.921,-551.474 521.853,-544.093"/>
<polygon fill="red" stroke="red" stroke-width="1.19744" points="524.604,-541.929 515.768,-536.083 519.03,-546.163 524.604,-541.929"/>
</g>
<!-- enemyRadar[Right]&#45;&gt;1253 -->
<g id="edge48" class="edge"><title>enemyRadar[Right]&#45;&gt;1253</title>
<path fill="none" stroke="red" stroke-width="0.204404" d="M837.414,-615.014C855.314,-609.565 880.134,-602.782 902.5,-599.377 1081.5,-572.122 1544.92,-621.223 1716.5,-563.377 1733.41,-557.677 1749.94,-546.721 1762.89,-536.522"/>
<polygon fill="red" stroke="red" stroke-width="0.204404" points="1765.33,-539.041 1770.85,-529.993 1760.89,-533.629 1765.33,-539.041"/>
</g>
<!-- enemyRadar[Right]&#45;&gt;2892 -->
<g id="edge72" class="edge"><title>enemyRadar[Right]&#45;&gt;2892</title>
<path fill="none" stroke="green" stroke-width="0.694868" d="M797.405,-615.084C787.223,-609.949 773.351,-603.505 760.5,-599.377 681.164,-573.892 636.694,-620.999 576.5,-563.377 554.225,-542.054 540.437,-455.44 534.281,-406.649"/>
<polygon fill="green" stroke="green" stroke-width="0.694868" points="537.736,-406.062 533.049,-396.56 530.787,-406.911 537.736,-406.062"/>
</g>
<!-- enemyRadar[Left] -->
<g id="node12" class="node"><title>enemyRadar[Left]</title>
<polygon fill="lightgray" stroke="black" points="2002,-702.874 1921,-702.874 1921,-684.874 2002,-684.874 2002,-702.874"/>
<text text-anchor="middle" x="1961.5" y="-691.674" font-family="Times,serif" font-size="9.00">enemyRadar[Left]</text>
</g>
<!-- enemyRadar[RightFront30] -->
<g id="node13" class="node"><title>enemyRadar[RightFront30]</title>
<polygon fill="lightgray" stroke="black" points="1473,-521.465 1358,-521.465 1358,-503.465 1473,-503.465 1473,-521.465"/>
<text text-anchor="middle" x="1415.5" y="-510.265" font-family="Times,serif" font-size="9.00">enemyRadar[RightFront30]</text>
</g>
<!-- enemyRadar[RightFront30]&#45;&gt;Move Left/Right -->
<g id="edge31" class="edge"><title>enemyRadar[RightFront30]&#45;&gt;Move Left/Right</title>
<path fill="none" stroke="green" stroke-width="0.947768" stroke-dasharray="1,5" d="M1415.5,-503.207C1415.5,-489.818 1415.5,-462.205 1415.5,-435.822"/>
<polygon fill="green" stroke="green" stroke-width="0.947768" points="1419,-435.803 1415.5,-425.803 1412,-435.803 1419,-435.803"/>
</g>
<!-- enemyRadar[LeftFront30] -->
<g id="node14" class="node"><title>enemyRadar[LeftFront30]</title>
<polygon fill="lightgray" stroke="black" points="1601.5,-521.465 1491.5,-521.465 1491.5,-503.465 1601.5,-503.465 1601.5,-521.465"/>
<text text-anchor="middle" x="1546.5" y="-510.265" font-family="Times,serif" font-size="9.00">enemyRadar[LeftFront30]</text>
</g>
<!-- enemyRadar[LeftFront30]&#45;&gt;Move Left/Right -->
<g id="edge30" class="edge"><title>enemyRadar[LeftFront30]&#45;&gt;Move Left/Right</title>
<path fill="none" stroke="red" stroke-width="1.05094" d="M1538.7,-503.207C1523.31,-486.922 1488.05,-449.596 1459.17,-419.034"/>
<polygon fill="red" stroke="red" stroke-width="1.05094" points="1461.39,-416.292 1451.98,-411.427 1456.31,-421.099 1461.39,-416.292"/>
</g>
<!-- enemyRadar[RightFront10] -->
<g id="node15" class="node"><title>enemyRadar[RightFront10]</title>
<polygon fill="lightgray" stroke="black" points="1131,-633.126 1016,-633.126 1016,-615.126 1131,-615.126 1131,-633.126"/>
<text text-anchor="middle" x="1073.5" y="-621.926" font-family="Times,serif" font-size="9.00">enemyRadar[RightFront10]</text>
</g>
<!-- enemyRadar[RightFront10]&#45;&gt;Jump/Crouch -->
<g id="edge33" class="edge"><title>enemyRadar[RightFront10]&#45;&gt;Jump/Crouch</title>
<path fill="none" stroke="red" stroke-width="1.29902" stroke-dasharray="1,5" d="M1053.88,-615.025C1040.68,-609.865 1022.79,-603.415 1006.5,-599.377 952.874,-586.084 800.114,-601.889 760.5,-563.377 681.137,-486.222 788.996,-402.57 717.5,-318.073 674.472,-267.221 597.35,-248.299 544.594,-241.265"/>
<polygon fill="red" stroke="red" stroke-width="1.29902" points="544.737,-237.756 534.385,-240.01 543.884,-244.704 544.737,-237.756"/>
</g>
<!-- enemyRadar[RightFront10]&#45;&gt;Turn Left/Right -->
<g id="edge5" class="edge"><title>enemyRadar[RightFront10]&#45;&gt;Turn Left/Right</title>
<path fill="none" stroke="green" stroke-width="0.461796" stroke-dasharray="1,5" d="M1081.09,-614.883C1092.25,-602.764 1113.9,-579.259 1133.55,-557.928"/>
<polygon fill="green" stroke="green" stroke-width="0.461796" points="1136.19,-560.222 1140.39,-550.496 1131.04,-555.48 1136.19,-560.222"/>
</g>
<!-- enemyRadar[LeftFront10] -->
<g id="node16" class="node"><title>enemyRadar[LeftFront10]</title>
<polygon fill="lightgray" stroke="black" points="557.5,-633.126 447.5,-633.126 447.5,-615.126 557.5,-615.126 557.5,-633.126"/>
<text text-anchor="middle" x="502.5" y="-621.926" font-family="Times,serif" font-size="9.00">enemyRadar[LeftFront10]</text>
</g>
<!-- enemyRadar[LeftFront10]&#45;&gt;Shoot -->
<g id="edge53" class="edge"><title>enemyRadar[LeftFront10]&#45;&gt;Shoot</title>
<path fill="none" stroke="green" stroke-width="0.36979" d="M502.5,-614.883C502.5,-601.234 502.5,-573.143 502.5,-549.98"/>
<polygon fill="green" stroke="green" stroke-width="0.36979" points="506,-549.753 502.5,-539.753 499,-549.753 506,-549.753"/>
</g>
<!-- enemyRadar[LeftFront10]&#45;&gt;Jump/Crouch -->
<g id="edge40" class="edge"><title>enemyRadar[LeftFront10]&#45;&gt;Jump/Crouch</title>
<path fill="none" stroke="red" stroke-width="0.365007" stroke-dasharray="1,5" d="M486.965,-615.035C470.199,-605.322 444.431,-587.302 433.5,-563.377 388.193,-464.213 401.452,-422.28 433.5,-318.073 437.64,-304.612 444.864,-291.38 452.742,-279.641"/>
<polygon fill="red" stroke="red" stroke-width="0.365007" points="455.666,-281.567 458.559,-271.375 449.942,-277.539 455.666,-281.567"/>
</g>
<!-- enemyRadar[RightFront3.5] -->
<g id="node17" class="node"><title>enemyRadar[RightFront3.5]</title>
<polygon fill="lightgray" stroke="black" points="1009,-521.465 892,-521.465 892,-503.465 1009,-503.465 1009,-521.465"/>
<text text-anchor="middle" x="950.5" y="-510.265" font-family="Times,serif" font-size="9.00">enemyRadar[RightFront3.5]</text>
</g>
<!-- enemyRadar[RightFront3.5]&#45;&gt;Jump/Crouch -->
<g id="edge21" class="edge"><title>enemyRadar[RightFront3.5]&#45;&gt;Jump/Crouch</title>
<path fill="none" stroke="green" stroke-width="0.254618" d="M946.551,-503.322C931.643,-473.471 875.625,-369.132 797.5,-318.073 719.175,-266.884 609.871,-248.002 544.445,-241.076"/>
<polygon fill="green" stroke="green" stroke-width="0.254618" points="544.632,-237.578 534.333,-240.064 543.935,-244.543 544.632,-237.578"/>
</g>
<!-- enemyRadar[RightFront3.5]&#45;&gt;Move Left/Right -->
<g id="edge42" class="edge"><title>enemyRadar[RightFront3.5]&#45;&gt;Move Left/Right</title>
<path fill="none" stroke="red" stroke-width="0.133344" d="M958.934,-503.283C971.058,-492.019 994.596,-471.949 1018.5,-461.553 1097.32,-427.277 1124.59,-444.172 1208.5,-425.553 1257.67,-414.643 1312.92,-400.467 1353.97,-389.56"/>
<polygon fill="red" stroke="red" stroke-width="0.133344" points="1355.06,-392.891 1363.82,-386.932 1353.26,-386.127 1355.06,-392.891"/>
</g>
<!-- enemyRadar[LeftFront3.5] -->
<g id="node18" class="node"><title>enemyRadar[LeftFront3.5]</title>
<polygon fill="lightgray" stroke="black" points="2132.5,-702.874 2020.5,-702.874 2020.5,-684.874 2132.5,-684.874 2132.5,-702.874"/>
<text text-anchor="middle" x="2076.5" y="-691.674" font-family="Times,serif" font-size="9.00">enemyRadar[LeftFront3.5]</text>
</g>
<!-- enemyRadar[RightFront1.5] -->
<g id="node19" class="node"><title>enemyRadar[RightFront1.5]</title>
<polygon fill="lightgray" stroke="black" points="299,-633.126 182,-633.126 182,-615.126 299,-615.126 299,-633.126"/>
<text text-anchor="middle" x="240.5" y="-621.926" font-family="Times,serif" font-size="9.00">enemyRadar[RightFront1.5]</text>
</g>
<!-- enemyRadar[RightFront1.5]&#45;&gt;Shoot -->
<g id="edge15" class="edge"><title>enemyRadar[RightFront1.5]&#45;&gt;Shoot</title>
<path fill="none" stroke="green" stroke-width="0.163575" stroke-dasharray="1,5" d="M259.765,-615.062C303.912,-596.584 412.859,-550.984 468.544,-527.677"/>
<polygon fill="green" stroke="green" stroke-width="0.163575" points="470.1,-530.82 477.973,-523.731 467.397,-524.363 470.1,-530.82"/>
</g>
<!-- enemyRadar[RightFront1.5]&#45;&gt;Jump/Crouch -->
<g id="edge11" class="edge"><title>enemyRadar[RightFront1.5]&#45;&gt;Jump/Crouch</title>
<path fill="none" stroke="red" stroke-width="0.44713" stroke-dasharray="1,5" d="M244.614,-614.816C250.09,-603.453 259.751,-582.314 265.5,-563.377 297.773,-457.076 244.919,-405.468 313.5,-318.073 343.03,-280.442 394.116,-259.597 433.494,-248.522"/>
<polygon fill="red" stroke="red" stroke-width="0.44713" points="434.479,-251.881 443.233,-245.912 432.668,-245.12 434.479,-251.881"/>
</g>
<!-- enemyRadar[RightFront1.5]&#45;&gt;Move Forward/Backward -->
<g id="edge26" class="edge"><title>enemyRadar[RightFront1.5]&#45;&gt;Move Forward/Backward</title>
<path fill="none" stroke="green" stroke-width="0.993615" stroke-dasharray="1,5" d="M239.185,-614.919C233.652,-577.771 215.109,-422.642 272.5,-318.073 316.472,-237.954 350.686,-228.809 433.5,-190.149 585.545,-119.172 782.059,-92.9388 893.393,-83.3919"/>
<polygon fill="green" stroke="green" stroke-width="0.993615" points="893.892,-86.8626 903.568,-82.5457 893.312,-79.8867 893.892,-86.8626"/>
</g>
<!-- enemyRadar[LeftFront1.5] -->
<g id="node20" class="node"><title>enemyRadar[LeftFront1.5]</title>
<polygon fill="lightgray" stroke="black" points="1337.5,-633.126 1225.5,-633.126 1225.5,-615.126 1337.5,-615.126 1337.5,-633.126"/>
<text text-anchor="middle" x="1281.5" y="-621.926" font-family="Times,serif" font-size="9.00">enemyRadar[LeftFront1.5]</text>
</g>
<!-- enemyRadar[LeftFront1.5]&#45;&gt;Shoot -->
<g id="edge29" class="edge"><title>enemyRadar[LeftFront1.5]&#45;&gt;Shoot</title>
<path fill="none" stroke="red" stroke-width="0.344529" d="M1240.34,-615.101C1212.07,-609.872 1173.64,-603.313 1139.5,-599.377 1014.96,-585.018 695.158,-603.838 576.5,-563.377 559.896,-557.715 543.507,-547.301 530.389,-537.444"/>
<polygon fill="red" stroke="red" stroke-width="0.344529" points="532.307,-534.501 522.272,-531.103 527.998,-540.018 532.307,-534.501"/>
</g>
<!-- enemyRadar[LeftFront1.5]&#45;&gt;Move Left/Right -->
<g id="edge36" class="edge"><title>enemyRadar[LeftFront1.5]&#45;&gt;Move Left/Right</title>
<path fill="none" stroke="green" stroke-width="0.558108" d="M1299.62,-615.099C1312.45,-609.764 1330.22,-603.081 1346.5,-599.377 1427.05,-581.055 1660.99,-624.554 1716.5,-563.377 1746.91,-529.863 1743.6,-497.797 1716.5,-461.553 1687.99,-423.425 1558.11,-395.996 1478.57,-382.429"/>
<polygon fill="green" stroke="green" stroke-width="0.558108" points="1479.09,-378.968 1468.65,-380.765 1477.93,-385.872 1479.09,-378.968"/>
</g>
<!-- enemyRadar[LeftFront1.5]&#45;&gt;Turn Left/Right -->
<g id="edge39" class="edge"><title>enemyRadar[LeftFront1.5]&#45;&gt;Turn Left/Right</title>
<path fill="none" stroke="red" stroke-width="0.215619" d="M1273.46,-614.883C1261.41,-602.532 1237.82,-578.356 1216.69,-556.706"/>
<polygon fill="red" stroke="red" stroke-width="0.215619" points="1219.13,-554.194 1209.64,-549.481 1214.12,-559.083 1219.13,-554.194"/>
</g>
<!-- OnTarget -->
<g id="node21" class="node"><title>OnTarget</title>
<polygon fill="lightgray" stroke="black" points="625.5,-633.126 575.5,-633.126 575.5,-615.126 625.5,-615.126 625.5,-633.126"/>
<text text-anchor="middle" x="600.5" y="-621.926" font-family="Times,serif" font-size="9.00">OnTarget</text>
</g>
<!-- OnTarget&#45;&gt;Shoot -->
<g id="edge43" class="edge"><title>OnTarget&#45;&gt;Shoot</title>
<path fill="none" stroke="green" stroke-width="0.43284" stroke-dasharray="1,5" d="M592.18,-614.802C580.896,-603.423 560.228,-582.267 543.5,-563.377 537.515,-556.619 531.24,-549.175 525.449,-542.146"/>
<polygon fill="green" stroke="green" stroke-width="0.43284" points="527.956,-539.682 518.92,-534.15 522.534,-544.11 527.956,-539.682"/>
</g>
<!-- OnTarget&#45;&gt;Jump/Crouch -->
<g id="edge1" class="edge"><title>OnTarget&#45;&gt;Jump/Crouch</title>
<path fill="none" stroke="red" stroke-width="1.60696" stroke-dasharray="1,5" d="M590.532,-615.107C583.982,-610.111 575.068,-603.812 566.5,-599.377 524.55,-577.663 493.662,-602.023 466.5,-563.377 408.82,-481.309 441.241,-357.104 466.865,-288.022"/>
<polygon fill="red" stroke="red" stroke-width="1.60696" points="470.146,-289.242 470.426,-278.651 463.602,-286.756 470.146,-289.242"/>
</g>
<!-- Health -->
<g id="node22" class="node"><title>Health</title>
<polygon fill="lightgray" stroke="black" points="1067.5,-521.465 1027.5,-521.465 1027.5,-503.465 1067.5,-503.465 1067.5,-521.465"/>
<text text-anchor="middle" x="1047.5" y="-510.265" font-family="Times,serif" font-size="9.00">Health</text>
</g>
<!-- Health&#45;&gt;Move Forward/Backward -->
<g id="edge37" class="edge"><title>Health&#45;&gt;Move Forward/Backward</title>
<path fill="none" stroke="green" stroke-width="0.216595" d="M1046.22,-503.195C1039.83,-461.846 1010.96,-275.104 993.681,-163.335"/>
<polygon fill="green" stroke="green" stroke-width="0.216595" points="997.136,-162.774 992.149,-153.426 990.218,-163.844 997.136,-162.774"/>
</g>
<!-- Health&#45;&gt;Move Left/Right -->
<g id="edge14" class="edge"><title>Health&#45;&gt;Move Left/Right</title>
<path fill="none" stroke="red" stroke-width="0.223758" d="M1050.8,-503.392C1055.78,-492.257 1066.27,-472.34 1081.5,-461.553 1087.15,-457.55 1258.53,-413.124 1353.54,-388.693"/>
<polygon fill="red" stroke="red" stroke-width="0.223758" points="1354.52,-392.056 1363.33,-386.177 1352.77,-385.277 1354.52,-392.056"/>
</g>
<!-- Health&#45;&gt;2661 -->
<g id="edge54" class="edge"><title>Health&#45;&gt;2661</title>
<path fill="none" stroke="green" stroke-width="0.841698" d="M1048.85,-503.254C1054.51,-468.711 1076.6,-334.053 1087.01,-270.573"/>
<polygon fill="green" stroke="green" stroke-width="0.841698" points="1090.47,-271.098 1088.64,-260.663 1083.56,-269.964 1090.47,-271.098"/>
</g>
<!-- 1430 -->
<g id="node37" class="node"><title>1430</title>
<ellipse fill="white" stroke="black" cx="954.5" cy="-236.111" rx="25" ry="25"/>
<text text-anchor="middle" x="954.5" y="-233.911" font-family="Times,serif" font-size="9.00">1430</text>
</g>
<!-- Health&#45;&gt;1430 -->
<g id="edge46" class="edge"><title>Health&#45;&gt;1430</title>
<path fill="none" stroke="green" stroke-width="0.232154" d="M1042.73,-503.267C1036.91,-493.319 1026.7,-476.073 1017.5,-461.553 1007.21,-445.308 1000.92,-443.295 993.5,-425.553 972,-374.136 961.96,-309.712 957.574,-271.066"/>
<polygon fill="green" stroke="green" stroke-width="0.232154" points="961.028,-270.451 956.482,-260.882 954.068,-271.198 961.028,-270.451"/>
</g>
<!-- TakingDmg -->
<g id="node23" class="node"><title>TakingDmg</title>
<polygon fill="lightgray" stroke="black" points="59,-633.126 0,-633.126 0,-615.126 59,-615.126 59,-633.126"/>
<text text-anchor="middle" x="29.5" y="-621.926" font-family="Times,serif" font-size="9.00">TakingDmg</text>
</g>
<!-- TakingDmg&#45;&gt;Shoot -->
<g id="edge41" class="edge"><title>TakingDmg&#45;&gt;Shoot</title>
<path fill="none" stroke="green" stroke-width="0.925921" stroke-dasharray="1,5" d="M40.5515,-614.941C48.0741,-609.746 58.453,-603.287 68.5,-599.377 208.985,-544.694 389.158,-523.361 465.588,-516.383"/>
<polygon fill="green" stroke="green" stroke-width="0.925921" points="466.016,-519.859 475.669,-515.492 465.4,-512.886 466.016,-519.859"/>
</g>
<!-- TakingDmg&#45;&gt;Move Forward/Backward -->
<g id="edge59" class="edge"><title>TakingDmg&#45;&gt;Move Forward/Backward</title>
<path fill="none" stroke="red" stroke-width="0.453219" d="M29.9972,-615.052C33.5191,-565.565 59.2066,-301.681 211.5,-190.149 318.61,-111.707 715.516,-87.6362 893.345,-80.6982"/>
<polygon fill="red" stroke="red" stroke-width="0.453219" points="893.59,-84.1915 903.45,-80.3133 893.324,-77.1966 893.59,-84.1915"/>
</g>
<!-- bias -->
<g id="node24" class="node"><title>bias</title>
<polygon fill="lightgray" stroke="black" points="1454,-633.126 1423,-633.126 1423,-615.126 1454,-615.126 1454,-633.126"/>
<text text-anchor="middle" x="1438.5" y="-621.926" font-family="Times,serif" font-size="9.00">bias</text>
</g>
<!-- bias&#45;&gt;Turn Left/Right -->
<g id="edge20" class="edge"><title>bias&#45;&gt;Turn Left/Right</title>
<path fill="none" stroke="green" stroke-width="1.07446" d="M1431.67,-614.709C1427.22,-609.685 1421.05,-603.5 1414.5,-599.377 1412.46,-598.094 1302.24,-558.838 1231.89,-533.84"/>
<polygon fill="green" stroke="green" stroke-width="1.07446" points="1232.84,-530.463 1222.25,-530.413 1230.5,-537.059 1232.84,-530.463"/>
</g>
<!-- bias&#45;&gt;1253 -->
<g id="edge44" class="edge"><title>bias&#45;&gt;1253</title>
<path fill="none" stroke="red" stroke-width="0.173397" stroke-dasharray="1,5" d="M1454.02,-621.594C1509.66,-615.885 1698.48,-594.561 1749.5,-563.377 1757.91,-558.238 1765.21,-550.583 1771.14,-542.802"/>
<polygon fill="red" stroke="red" stroke-width="0.173397" points="1774.15,-544.615 1777.04,-534.423 1768.42,-540.587 1774.15,-544.615"/>
</g>
<!-- Shoot&#45;&gt;2892 -->
<g id="edge74" class="edge"><title>Shoot&#45;&gt;2892</title>
<path fill="none" stroke="green" stroke-width="0.224215" d="M507.636,-486.034C512.167,-463.597 518.802,-430.738 523.759,-406.192"/>
<polygon fill="green" stroke="green" stroke-width="0.224215" points="527.221,-406.731 525.77,-396.236 520.36,-405.345 527.221,-406.731"/>
</g>
<!-- Move Forward/Backward&#45;&gt;Move Forward/Backward -->
<g id="edge22" class="edge"><title>Move Forward/Backward&#45;&gt;Move Forward/Backward</title>
<path fill="none" stroke="green" stroke-width="0.326988" stroke-dasharray="1,5" d="M1052.64,-105.179C1066.1,-101.718 1075.57,-92.35 1075.57,-77.0746 1075.57,-65.7374 1070.35,-57.6542 1062.16,-52.825"/>
<polygon fill="green" stroke="green" stroke-width="0.326988" points="1063.22,-49.4784 1052.64,-48.9703 1060.59,-55.9669 1063.22,-49.4784"/>
</g>
<!-- Move Left/Right&#45;&gt;Move Left/Right -->
<g id="edge19" class="edge"><title>Move Left/Right&#45;&gt;Move Left/Right</title>
<path fill="none" stroke="green" stroke-width="0.430818" stroke-dasharray="1,5" d="M1463.1,-396.84C1476.73,-395.859 1487.24,-387.516 1487.24,-371.813 1487.24,-360.159 1481.45,-352.559 1472.89,-349.013"/>
<polygon fill="green" stroke="green" stroke-width="0.430818" points="1473.63,-345.591 1463.1,-346.786 1472.08,-352.417 1473.63,-345.591"/>
</g>
<!-- 3286 -->
<g id="node38" class="node"><title>3286</title>
<ellipse fill="white" stroke="black" cx="1415.5" cy="-236.111" rx="25" ry="25"/>
<text text-anchor="middle" x="1415.5" y="-233.911" font-family="Times,serif" font-size="9.00">3286</text>
</g>
<!-- Move Left/Right&#45;&gt;3286 -->
<g id="edge67" class="edge"><title>Move Left/Right&#45;&gt;3286</title>
<path fill="none" stroke="red" stroke-width="0.527469" d="M1408.89,-318.354C1408.57,-302.224 1408.8,-284.92 1409.57,-270.445"/>
<polygon fill="red" stroke="red" stroke-width="0.527469" points="1413.06,-270.67 1410.23,-260.461 1406.08,-270.209 1413.06,-270.67"/>
</g>
<!-- Turn Left/Right&#45;&gt;2661 -->
<g id="edge56" class="edge"><title>Turn Left/Right&#45;&gt;2661</title>
<path fill="none" stroke="green" stroke-width="0.231476" d="M1154.88,-465.041C1149.86,-452.354 1144.7,-438.525 1140.5,-425.553 1123.2,-372.121 1108.11,-308.556 1099.67,-270.591"/>
<polygon fill="green" stroke="green" stroke-width="0.231476" points="1103.04,-269.605 1097.47,-260.592 1096.2,-271.111 1103.04,-269.605"/>
</g>
<!-- 3244 -->
<g id="node36" class="node"><title>3244</title>
<ellipse fill="white" stroke="black" cx="1174.5" cy="-371.813" rx="25" ry="25"/>
<text text-anchor="middle" x="1174.5" y="-369.613" font-family="Times,serif" font-size="9.00">3244</text>
</g>
<!-- Turn Left/Right&#45;&gt;3244 -->
<g id="edge64" class="edge"><title>Turn Left/Right&#45;&gt;3244</title>
<path fill="none" stroke="green" stroke-width="0.16211" d="M1174.5,-461.409C1174.5,-443.338 1174.5,-423.369 1174.5,-406.971"/>
<polygon fill="green" stroke="green" stroke-width="0.16211" points="1178,-406.767 1174.5,-396.767 1171,-406.767 1178,-406.767"/>
</g>
<!-- 1253&#45;&gt;Move Left/Right -->
<g id="edge45" class="edge"><title>1253&#45;&gt;Move Left/Right</title>
<path fill="none" stroke="green" stroke-width="0.452344" d="M1776.67,-490.581C1769.92,-480.437 1760.6,-468.886 1749.5,-461.553 1666.35,-406.645 1550.51,-385.632 1479.4,-377.644"/>
<polygon fill="green" stroke="green" stroke-width="0.452344" points="1479.55,-374.141 1469.24,-376.558 1478.81,-381.101 1479.55,-374.141"/>
</g>
<!-- 2433&#45;&gt;Move Left/Right -->
<g id="edge57" class="edge"><title>2433&#45;&gt;Move Left/Right</title>
<path fill="none" stroke="green" stroke-width="0.533193" d="M1361.36,-608.436C1343.99,-594.625 1320.37,-574.464 1315.5,-563.377 1297.31,-521.94 1296.94,-502.829 1315.5,-461.553 1325.28,-439.798 1343.32,-421.21 1361.42,-406.751"/>
<polygon fill="green" stroke="green" stroke-width="0.533193" points="1363.89,-409.262 1369.7,-400.402 1359.64,-403.705 1363.89,-409.262"/>
</g>
<!-- 2433&#45;&gt;Turn Left/Right -->
<g id="edge50" class="edge"><title>2433&#45;&gt;Turn Left/Right</title>
<path fill="none" stroke="green" stroke-width="0.122351" stroke-dasharray="1,5" d="M1361.32,-608.316C1356.63,-605.098 1351.51,-601.906 1346.5,-599.377 1301.7,-576.782 1283.78,-586.977 1239.5,-563.377 1233.43,-560.139 1227.33,-556.343 1221.43,-552.315"/>
<polygon fill="green" stroke="green" stroke-width="0.122351" points="1223.13,-549.233 1212.96,-546.286 1219.07,-554.936 1223.13,-549.233"/>
</g>
<!-- 2433&#45;&gt;2661 -->
<g id="edge58" class="edge"><title>2433&#45;&gt;2661</title>
<path fill="none" stroke="red" stroke-width="0.186805" d="M1360.54,-609.025C1337.01,-592.332 1300.78,-566.4 1298.5,-563.377 1228.56,-470.673 1279.38,-410.06 1208.5,-318.073 1185.94,-288.793 1149.81,-265.956 1123.86,-252.107"/>
<polygon fill="red" stroke="red" stroke-width="0.186805" points="1125.3,-248.909 1114.81,-247.417 1122.08,-255.125 1125.3,-248.909"/>
</g>
<!-- 2592 -->
<g id="node32" class="node"><title>2592</title>
<ellipse fill="white" stroke="black" cx="1682.5" cy="-512.465" rx="25" ry="25"/>
<text text-anchor="middle" x="1682.5" y="-510.265" font-family="Times,serif" font-size="9.00">2592</text>
</g>
<!-- 2592&#45;&gt;Move Left/Right -->
<g id="edge52" class="edge"><title>2592&#45;&gt;Move Left/Right</title>
<path fill="none" stroke="green" stroke-width="2.32915" d="M1670.14,-490.839C1663.32,-480.886 1654.09,-469.427 1643.5,-461.553 1593.59,-424.447 1526.19,-400.758 1477.64,-387.276"/>
<polygon fill="green" stroke="green" stroke-width="2.32915" points="1478.45,-383.87 1467.88,-384.634 1476.62,-390.626 1478.45,-383.87"/>
</g>
<!-- 2661&#45;&gt;Move Forward/Backward -->
<g id="edge55" class="edge"><title>2661&#45;&gt;Move Forward/Backward</title>
<path fill="none" stroke="red" stroke-width="0.471717" d="M1078.54,-215.54C1066.48,-198.624 1048.28,-173.106 1030.82,-148.63"/>
<polygon fill="red" stroke="red" stroke-width="0.471717" points="1033.6,-146.493 1024.94,-140.384 1027.9,-150.558 1033.6,-146.493"/>
</g>
<!-- 3300&#45;&gt;1253 -->
<g id="edge70" class="edge"><title>3300&#45;&gt;1253</title>
<path fill="none" stroke="red" stroke-width="0.558073" d="M1788.5,-599.331C1788.5,-584.346 1788.5,-564.749 1788.5,-548.061"/>
<polygon fill="red" stroke="red" stroke-width="0.558073" points="1792,-547.592 1788.5,-537.592 1785,-547.592 1792,-547.592"/>
</g>
<!-- 2892&#45;&gt;Jump/Crouch -->
<g id="edge61" class="edge"><title>2892&#45;&gt;Jump/Crouch</title>
<path fill="none" stroke="red" stroke-width="1.33483" d="M523.28,-347.829C518.281,-331.917 511.418,-310.067 505.108,-289.981"/>
<polygon fill="red" stroke="red" stroke-width="1.33483" points="508.402,-288.787 502.066,-280.295 501.723,-290.885 508.402,-288.787"/>
</g>
<!-- 3244&#45;&gt;Move Forward/Backward -->
<g id="edge71" class="edge"><title>3244&#45;&gt;Move Forward/Backward</title>
<path fill="none" stroke="red" stroke-width="0.207311" stroke-dasharray="1,5" d="M1173.03,-346.875C1169.76,-310.265 1159.35,-239.433 1126.5,-190.149 1108.43,-163.037 1081.59,-139.743 1055.84,-121.526"/>
<polygon fill="red" stroke="red" stroke-width="0.207311" points="1057.75,-118.59 1047.53,-115.792 1053.77,-124.352 1057.75,-118.59"/>
</g>
<!-- 3244&#45;&gt;2661 -->
<g id="edge65" class="edge"><title>3244&#45;&gt;2661</title>
<path fill="none" stroke="green" stroke-width="0.119282" stroke-dasharray="1,5" d="M1161.87,-350.215C1148.1,-327.773 1125.97,-291.69 1110.42,-266.327"/>
<polygon fill="green" stroke="green" stroke-width="0.119282" points="1113.22,-264.208 1105.01,-257.513 1107.26,-267.868 1113.22,-264.208"/>
</g>
<!-- 1430&#45;&gt;Move Forward/Backward -->
<g id="edge47" class="edge"><title>1430&#45;&gt;Move Forward/Backward</title>
<path fill="none" stroke="green" stroke-width="0.480373" d="M958.392,-211.601C960.58,-198.39 963.458,-181.003 966.413,-163.161"/>
<polygon fill="green" stroke="green" stroke-width="0.480373" points="969.877,-163.663 968.058,-153.225 962.971,-162.519 969.877,-163.663"/>
</g>
<!-- 3286&#45;&gt;Move Left/Right -->
<g id="edge68" class="edge"><title>3286&#45;&gt;Move Left/Right</title>
<path fill="none" stroke="green" stroke-width="0.165821" stroke-dasharray="1,5" d="M1420.77,-260.461C1421.84,-273.703 1422.33,-290.969 1422.24,-307.897"/>
<polygon fill="green" stroke="green" stroke-width="0.165821" points="1418.73,-308.311 1422.11,-318.354 1425.73,-308.399 1418.73,-308.311"/>
</g>
</g>
</svg>
