<?xml version="1.0" encoding="UTF-8" standalone="no"?>
<!DOCTYPE svg PUBLIC "-//W3C//DTD SVG 1.1//EN"
 "http://www.w3.org/Graphics/SVG/1.1/DTD/svg11.dtd">
<!-- Generated by graphviz version 2.38.0 (20140413.2041)
 -->
<!-- Title: %3 Pages: 1 -->
<svg width="2518pt" height="172pt"
 viewBox="0.00 0.00 2517.50 172.31" xmlns="http://www.w3.org/2000/svg" xmlns:xlink="http://www.w3.org/1999/xlink">
<g id="graph0" class="graph" transform="scale(1 1) rotate(0) translate(4 168.309)">
<title>%3</title>
<polygon fill="white" stroke="none" points="-4,4 -4,-168.309 2513.5,-168.309 2513.5,4 -4,4"/>
<!-- wallRadar[1,0] -->
<g id="node1" class="node"><title>wallRadar[1,0]</title>
<polygon fill="lightgray" stroke="black" points="1125.5,-164.309 1055.5,-164.309 1055.5,-146.309 1125.5,-146.309 1125.5,-164.309"/>
<text text-anchor="middle" x="1090.5" y="-153.109" font-family="Times,serif" font-size="9.00">wallRadar[1,0]</text>
</g>
<!-- Move Forward -->
<g id="node25" class="node"><title>Move Forward</title>
<ellipse fill="lightblue" stroke="black" cx="1734.5" cy="-55.1543" rx="50.41" ry="50.41"/>
<text text-anchor="middle" x="1734.5" y="-52.9543" font-family="Times,serif" font-size="9.00">Move Forward</text>
</g>
<!-- wallRadar[1,0]&#45;&gt;Move Forward -->
<g id="edge65" class="edge"><title>wallRadar[1,0]&#45;&gt;Move Forward</title>
<path fill="none" stroke="red" stroke-width="0.152997" d="M1125.53,-147.745C1128.56,-147.236 1131.58,-146.75 1134.5,-146.309 1266.41,-126.367 1300.57,-130.09 1432.5,-110.309 1517.03,-97.6344 1614.25,-79.5715 1675.03,-67.8553"/>
<polygon fill="red" stroke="red" stroke-width="0.152997" points="1676.06,-71.2228 1685.21,-65.8879 1674.73,-64.3501 1676.06,-71.2228"/>
</g>
<!-- Turn Right -->
<g id="node30" class="node"><title>Turn Right</title>
<ellipse fill="lightblue" stroke="black" cx="840.5" cy="-55.1543" rx="39.6962" ry="39.6962"/>
<text text-anchor="middle" x="840.5" y="-52.9543" font-family="Times,serif" font-size="9.00">Turn Right</text>
</g>
<!-- wallRadar[1,0]&#45;&gt;Turn Right -->
<g id="edge25" class="edge"><title>wallRadar[1,0]&#45;&gt;Turn Right</title>
<path fill="none" stroke="red" stroke-width="0.112748" d="M1057.18,-146.302C1026.96,-138.583 981.484,-125.809 943.5,-110.309 923.27,-102.054 901.751,-91.1085 883.641,-81.2195"/>
<polygon fill="red" stroke="red" stroke-width="0.112748" points="884.951,-77.9442 874.507,-76.1642 881.562,-84.0688 884.951,-77.9442"/>
</g>
<!-- wallRadar[0,1] -->
<g id="node2" class="node"><title>wallRadar[0,1]</title>
<polygon fill="lightgray" stroke="black" points="838.5,-164.309 768.5,-164.309 768.5,-146.309 838.5,-146.309 838.5,-164.309"/>
<text text-anchor="middle" x="803.5" y="-153.109" font-family="Times,serif" font-size="9.00">wallRadar[0,1]</text>
</g>
<!-- Shoot -->
<g id="node24" class="node"><title>Shoot</title>
<ellipse fill="lightblue" stroke="black" cx="413.5" cy="-55.1543" rx="26.7407" ry="26.7407"/>
<text text-anchor="middle" x="413.5" y="-52.9543" font-family="Times,serif" font-size="9.00">Shoot</text>
</g>
<!-- wallRadar[0,1]&#45;&gt;Shoot -->
<g id="edge60" class="edge"><title>wallRadar[0,1]&#45;&gt;Shoot</title>
<path fill="none" stroke="red" stroke-width="0.266411" d="M771.585,-146.276C699.653,-128.173 525.26,-84.2819 449.562,-65.2304"/>
<polygon fill="red" stroke="red" stroke-width="0.266411" points="450.109,-61.7588 439.557,-62.7123 448.4,-68.5472 450.109,-61.7588"/>
</g>
<!--  Move Backward -->
<g id="node26" class="node"><title> Move Backward</title>
<ellipse fill="lightblue" stroke="black" cx="1186.5" cy="-55.1543" rx="55.3091" ry="55.3091"/>
<text text-anchor="middle" x="1186.5" y="-52.9543" font-family="Times,serif" font-size="9.00"> Move Backward</text>
</g>
<!-- wallRadar[0,1]&#45;&gt; Move Backward -->
<g id="edge56" class="edge"><title>wallRadar[0,1]&#45;&gt; Move Backward</title>
<path fill="none" stroke="red" stroke-width="0.673388" d="M838.869,-147.997C842.125,-147.423 845.373,-146.853 848.5,-146.309 942.222,-129.983 968.232,-137.15 1059.5,-110.309 1082.44,-103.563 1106.78,-93.8538 1127.95,-84.5136"/>
<polygon fill="red" stroke="red" stroke-width="0.673388" points="1129.43,-87.6853 1137.12,-80.4021 1126.57,-81.2973 1129.43,-87.6853"/>
</g>
<!-- Move Left -->
<g id="node27" class="node"><title>Move Left</title>
<ellipse fill="lightblue" stroke="black" cx="1367.5" cy="-55.1543" rx="38.3684" ry="38.3684"/>
<text text-anchor="middle" x="1367.5" y="-52.9543" font-family="Times,serif" font-size="9.00">Move Left</text>
</g>
<!-- wallRadar[0,1]&#45;&gt;Move Left -->
<g id="edge48" class="edge"><title>wallRadar[0,1]&#45;&gt;Move Left</title>
<path fill="none" stroke="red" stroke-width="0.283615" d="M838.828,-147.73C842.092,-147.212 845.354,-146.728 848.5,-146.309 1026.31,-122.588 1077.21,-156.668 1250.5,-110.309 1276.61,-103.324 1304.12,-90.8798 1325.9,-79.6806"/>
<polygon fill="red" stroke="red" stroke-width="0.283615" points="1327.63,-82.7231 1334.86,-74.9768 1324.38,-76.5249 1327.63,-82.7231"/>
</g>
<!-- wallRadar[0,1]&#45;&gt;Turn Right -->
<g id="edge51" class="edge"><title>wallRadar[0,1]&#45;&gt;Turn Right</title>
<path fill="none" stroke="green" stroke-width="0.473224" d="M806.528,-146.276C810.221,-136.478 816.762,-119.127 823.125,-102.247"/>
<polygon fill="green" stroke="green" stroke-width="0.473224" points="826.575,-103.016 826.828,-92.4245 820.025,-100.547 826.575,-103.016"/>
</g>
<!-- wallRadar[&#45;1,0] -->
<g id="node3" class="node"><title>wallRadar[&#45;1,0]</title>
<polygon fill="lightgray" stroke="black" points="930,-164.309 857,-164.309 857,-146.309 930,-146.309 930,-164.309"/>
<text text-anchor="middle" x="893.5" y="-153.109" font-family="Times,serif" font-size="9.00">wallRadar[&#45;1,0]</text>
</g>
<!-- wallRadar[&#45;1,0]&#45;&gt;Shoot -->
<g id="edge5" class="edge"><title>wallRadar[&#45;1,0]&#45;&gt;Shoot</title>
<path fill="none" stroke="green" stroke-width="0.20492" d="M856.632,-146.77C766.992,-128.439 538.48,-81.7113 449.619,-63.5402"/>
<polygon fill="green" stroke="green" stroke-width="0.20492" points="450.236,-60.0941 439.738,-61.5197 448.834,-66.9522 450.236,-60.0941"/>
</g>
<!-- wallRadar[&#45;1,0]&#45;&gt;Move Forward -->
<g id="edge83" class="edge"><title>wallRadar[&#45;1,0]&#45;&gt;Move Forward</title>
<path fill="none" stroke="green" stroke-width="0.523842" d="M930.109,-147.604C933.28,-147.126 936.443,-146.685 939.5,-146.309 1157.55,-119.454 1214.52,-137.735 1432.5,-110.309 1517.43,-99.6225 1614.74,-81.0123 1675.42,-68.6378"/>
<polygon fill="green" stroke="green" stroke-width="0.523842" points="1676.48,-71.9932 1685.57,-66.5555 1675.07,-65.1359 1676.48,-71.9932"/>
</g>
<!-- Move right -->
<g id="node28" class="node"><title>Move right</title>
<ellipse fill="lightblue" stroke="black" cx="992.5" cy="-55.1543" rx="39.6962" ry="39.6962"/>
<text text-anchor="middle" x="992.5" y="-52.9543" font-family="Times,serif" font-size="9.00">Move right</text>
</g>
<!-- wallRadar[&#45;1,0]&#45;&gt;Move right -->
<g id="edge20" class="edge"><title>wallRadar[&#45;1,0]&#45;&gt;Move right</title>
<path fill="none" stroke="green" stroke-width="0.34643" d="M901.602,-146.276C913.693,-134.288 937.191,-110.99 957.266,-91.087"/>
<polygon fill="green" stroke="green" stroke-width="0.34643" points="959.843,-93.4611 964.48,-83.9349 954.914,-88.4901 959.843,-93.4611"/>
</g>
<!-- Turn Left -->
<g id="node29" class="node"><title>Turn Left</title>
<ellipse fill="lightblue" stroke="black" cx="1840.5" cy="-55.1543" rx="35.2113" ry="35.2113"/>
<text text-anchor="middle" x="1840.5" y="-52.9543" font-family="Times,serif" font-size="9.00">Turn Left</text>
</g>
<!-- wallRadar[&#45;1,0]&#45;&gt;Turn Left -->
<g id="edge72" class="edge"><title>wallRadar[&#45;1,0]&#45;&gt;Turn Left</title>
<path fill="none" stroke="green" stroke-width="0.288694" d="M930.098,-147.502C933.27,-147.046 936.437,-146.638 939.5,-146.309 1033.93,-136.151 1707.94,-151.539 1793.5,-110.309 1801.64,-106.385 1808.94,-100.333 1815.23,-93.6733"/>
<polygon fill="green" stroke="green" stroke-width="0.288694" points="1818.25,-95.528 1822.13,-85.6687 1812.95,-90.9571 1818.25,-95.528"/>
</g>
<!-- wallRadar[&#45;1,0]&#45;&gt;Turn Right -->
<g id="edge67" class="edge"><title>wallRadar[&#45;1,0]&#45;&gt;Turn Right</title>
<path fill="none" stroke="green" stroke-width="0.435883" d="M889.163,-146.276C883.605,-135.983 873.546,-117.354 864.01,-99.6936"/>
<polygon fill="green" stroke="green" stroke-width="0.435883" points="866.928,-97.7322 859.097,-90.596 860.769,-101.058 866.928,-97.7322"/>
</g>
<!-- wallRadar[0,&#45;1] -->
<g id="node4" class="node"><title>wallRadar[0,&#45;1]</title>
<polygon fill="lightgray" stroke="black" points="223,-164.309 150,-164.309 150,-146.309 223,-146.309 223,-164.309"/>
<text text-anchor="middle" x="186.5" y="-153.109" font-family="Times,serif" font-size="9.00">wallRadar[0,&#45;1]</text>
</g>
<!-- wallRadar[0,&#45;1]&#45;&gt;Shoot -->
<g id="edge82" class="edge"><title>wallRadar[0,&#45;1]&#45;&gt;Shoot</title>
<path fill="none" stroke="red" stroke-width="0.273284" d="M205.076,-146.276C243.215,-129.785 330.841,-91.8957 379.453,-70.8763"/>
<polygon fill="red" stroke="red" stroke-width="0.273284" points="381.126,-73.9661 388.915,-66.7847 378.348,-67.541 381.126,-73.9661"/>
</g>
<!-- wallRadar[0,&#45;1]&#45;&gt;Move Left -->
<g id="edge71" class="edge"><title>wallRadar[0,&#45;1]&#45;&gt;Move Left</title>
<path fill="none" stroke="green" stroke-width="0.510384" d="M223.277,-147.336C226.053,-146.943 228.817,-146.593 231.5,-146.309 456.823,-122.42 1030.11,-162.936 1250.5,-110.309 1276.79,-104.031 1304.31,-91.6273 1326.05,-80.273"/>
<polygon fill="green" stroke="green" stroke-width="0.510384" points="1327.82,-83.2933 1334.99,-75.4921 1324.52,-77.12 1327.82,-83.2933"/>
</g>
<!-- wallRadar[0,&#45;1]&#45;&gt;Turn Right -->
<g id="edge14" class="edge"><title>wallRadar[0,&#45;1]&#45;&gt;Turn Right</title>
<path fill="none" stroke="red" stroke-width="0.248381" d="M223.322,-147.673C226.088,-147.202 228.837,-146.742 231.5,-146.309 439.047,-112.505 687.28,-77.4111 791.077,-62.9758"/>
<polygon fill="red" stroke="red" stroke-width="0.248381" points="791.829,-66.405 801.253,-61.5625 790.866,-59.4716 791.829,-66.405"/>
</g>
<!-- wallRadar[0.7,0.7] -->
<g id="node5" class="node"><title>wallRadar[0.7,0.7]</title>
<polygon fill="lightgray" stroke="black" points="132,-164.309 49,-164.309 49,-146.309 132,-146.309 132,-164.309"/>
<text text-anchor="middle" x="90.5" y="-153.109" font-family="Times,serif" font-size="9.00">wallRadar[0.7,0.7]</text>
</g>
<!-- wallRadar[0.7,0.7]&#45;&gt;Shoot -->
<g id="edge34" class="edge"><title>wallRadar[0.7,0.7]&#45;&gt;Shoot</title>
<path fill="none" stroke="green" stroke-width="0.166533" d="M116.932,-146.276C174.854,-128.675 312.991,-86.6972 378.23,-66.8722"/>
<polygon fill="green" stroke="green" stroke-width="0.166533" points="379.501,-70.1441 388.052,-63.8877 377.466,-63.4465 379.501,-70.1441"/>
</g>
<!-- wallRadar[0.7,0.7]&#45;&gt; Move Backward -->
<g id="edge31" class="edge"><title>wallRadar[0.7,0.7]&#45;&gt; Move Backward</title>
<path fill="none" stroke="green" stroke-width="0.365988" d="M132.193,-147.256C135,-146.899 137.788,-146.578 140.5,-146.309 343.88,-126.128 860.097,-155.131 1059.5,-110.309 1083.03,-105.02 1107.68,-95.5234 1128.94,-85.9437"/>
<polygon fill="green" stroke="green" stroke-width="0.365988" points="1130.52,-89.0667 1138.14,-81.6987 1127.59,-82.7107 1130.52,-89.0667"/>
</g>
<!-- wallRadar[0.7,0.7]&#45;&gt;Turn Right -->
<g id="edge49" class="edge"><title>wallRadar[0.7,0.7]&#45;&gt;Turn Right</title>
<path fill="none" stroke="red" stroke-width="0.158925" d="M132.222,-147.497C135.022,-147.082 137.8,-146.682 140.5,-146.309 277.461,-127.382 312.348,-127.794 449.5,-110.309 572.697,-94.6025 717.415,-73.9945 791.445,-63.2959"/>
<polygon fill="red" stroke="red" stroke-width="0.158925" points="792.016,-66.7497 801.412,-61.8536 791.014,-59.8219 792.016,-66.7497"/>
</g>
<!-- wallRadar[&#45;0.7,0.7] -->
<g id="node6" class="node"><title>wallRadar[&#45;0.7,0.7]</title>
<polygon fill="lightgray" stroke="black" points="2243.5,-164.309 2157.5,-164.309 2157.5,-146.309 2243.5,-146.309 2243.5,-164.309"/>
<text text-anchor="middle" x="2200.5" y="-153.109" font-family="Times,serif" font-size="9.00">wallRadar[&#45;0.7,0.7]</text>
</g>
<!-- wallRadar[&#45;0.7,0.7]&#45;&gt; Move Backward -->
<g id="edge13" class="edge"><title>wallRadar[&#45;0.7,0.7]&#45;&gt; Move Backward</title>
<path fill="none" stroke="red" stroke-width="0.229639" d="M2157.42,-147.31C2154.4,-146.934 2151.41,-146.595 2148.5,-146.309 1965.21,-128.279 1500.48,-149.378 1320.5,-110.309 1294.85,-104.741 1267.8,-94.684 1244.76,-84.7346"/>
<polygon fill="red" stroke="red" stroke-width="0.229639" points="1246.05,-81.4757 1235.48,-80.6404 1243.22,-87.8799 1246.05,-81.4757"/>
</g>
<!-- wallRadar[&#45;0.7,0.7]&#45;&gt;Turn Left -->
<g id="edge39" class="edge"><title>wallRadar[&#45;0.7,0.7]&#45;&gt;Turn Left</title>
<path fill="none" stroke="green" stroke-width="0.129238" d="M2171.04,-146.276C2107.85,-129.047 1959,-88.4624 1884.53,-68.1597"/>
<polygon fill="green" stroke="green" stroke-width="0.129238" points="1885.1,-64.6879 1874.54,-65.434 1883.26,-71.4413 1885.1,-64.6879"/>
</g>
<!-- wallRadar[&#45;0.7,&#45;0.7] -->
<g id="node7" class="node"><title>wallRadar[&#45;0.7,&#45;0.7]</title>
<polygon fill="lightgray" stroke="black" points="1037,-164.309 948,-164.309 948,-146.309 1037,-146.309 1037,-164.309"/>
<text text-anchor="middle" x="992.5" y="-153.109" font-family="Times,serif" font-size="9.00">wallRadar[&#45;0.7,&#45;0.7]</text>
</g>
<!-- wallRadar[&#45;0.7,&#45;0.7]&#45;&gt; Move Backward -->
<g id="edge36" class="edge"><title>wallRadar[&#45;0.7,&#45;0.7]&#45;&gt; Move Backward</title>
<path fill="none" stroke="red" stroke-width="0.320647" d="M1008.38,-146.276C1034.29,-133.166 1086.93,-106.532 1128.3,-85.6012"/>
<polygon fill="red" stroke="red" stroke-width="0.320647" points="1130.13,-88.5961 1137.48,-80.9585 1126.97,-82.3501 1130.13,-88.5961"/>
</g>
<!-- wallRadar[&#45;0.7,&#45;0.7]&#45;&gt;Move Left -->
<g id="edge70" class="edge"><title>wallRadar[&#45;0.7,&#45;0.7]&#45;&gt;Move Left</title>
<path fill="none" stroke="red" stroke-width="0.144763" d="M1037.23,-147.34C1105.65,-136.582 1230.51,-116.518 1250.5,-110.309 1276.22,-102.319 1303.6,-89.8784 1325.41,-78.9347"/>
<polygon fill="red" stroke="red" stroke-width="0.144763" points="1327.07,-82.0146 1334.39,-74.3535 1323.89,-75.7787 1327.07,-82.0146"/>
</g>
<!-- wallRadar[&#45;0.7,&#45;0.7]&#45;&gt;Move right -->
<g id="edge84" class="edge"><title>wallRadar[&#45;0.7,&#45;0.7]&#45;&gt;Move right</title>
<path fill="none" stroke="green" stroke-width="0.355334" d="M992.5,-146.276C992.5,-137.112 992.5,-121.34 992.5,-105.527"/>
<polygon fill="green" stroke="green" stroke-width="0.355334" points="996,-105.199 992.5,-95.1987 989,-105.199 996,-105.199"/>
</g>
<!-- wallRadar[&#45;0.7,&#45;0.7]&#45;&gt;Turn Right -->
<g id="edge53" class="edge"><title>wallRadar[&#45;0.7,&#45;0.7]&#45;&gt;Turn Right</title>
<path fill="none" stroke="red" stroke-width="0.332684" d="M980.061,-146.276C958.908,-132.617 915.021,-104.276 882.076,-83.0021"/>
<polygon fill="red" stroke="red" stroke-width="0.332684" points="883.829,-79.9681 873.53,-77.4835 880.032,-85.8486 883.829,-79.9681"/>
</g>
<!-- wallRadar[0.7,&#45;0.7] -->
<g id="node8" class="node"><title>wallRadar[0.7,&#45;0.7]</title>
<polygon fill="lightgray" stroke="black" points="1229.5,-164.309 1143.5,-164.309 1143.5,-146.309 1229.5,-146.309 1229.5,-164.309"/>
<text text-anchor="middle" x="1186.5" y="-153.109" font-family="Times,serif" font-size="9.00">wallRadar[0.7,&#45;0.7]</text>
</g>
<!-- wallRadar[0.7,&#45;0.7]&#45;&gt;Move Forward -->
<g id="edge68" class="edge"><title>wallRadar[0.7,&#45;0.7]&#45;&gt;Move Forward</title>
<path fill="none" stroke="green" stroke-width="0.455497" d="M1229.61,-146.605C1278.72,-137.825 1361.39,-123.043 1432.5,-110.309 1516.64,-95.2405 1613.95,-77.7849 1674.87,-66.8552"/>
<polygon fill="green" stroke="green" stroke-width="0.455497" points="1675.84,-70.2367 1685.07,-65.0255 1674.61,-63.3467 1675.84,-70.2367"/>
</g>
<!-- wallRadar[0.7,&#45;0.7]&#45;&gt; Move Backward -->
<g id="edge29" class="edge"><title>wallRadar[0.7,&#45;0.7]&#45;&gt; Move Backward</title>
<path fill="none" stroke="red" stroke-width="0.302677" d="M1186.5,-146.276C1186.5,-140.164 1186.5,-131.112 1186.5,-121.069"/>
<polygon fill="red" stroke="red" stroke-width="0.302677" points="1190,-120.768 1186.5,-110.768 1183,-120.768 1190,-120.768"/>
</g>
<!-- wallRadar[0.7,&#45;0.7]&#45;&gt;Move right -->
<g id="edge66" class="edge"><title>wallRadar[0.7,&#45;0.7]&#45;&gt;Move right</title>
<path fill="none" stroke="red" stroke-width="0.502761" d="M1170.62,-146.276C1141.71,-131.645 1079.5,-100.172 1036.82,-78.5791"/>
<polygon fill="red" stroke="red" stroke-width="0.502761" points="1038.27,-75.3876 1027.76,-73.996 1035.11,-81.6337 1038.27,-75.3876"/>
</g>
<!-- wallRadar[0.7,&#45;0.7]&#45;&gt;Turn Right -->
<g id="edge28" class="edge"><title>wallRadar[0.7,&#45;0.7]&#45;&gt;Turn Right</title>
<path fill="none" stroke="red" stroke-width="0.264722" d="M1143.28,-147.217C1078.57,-136.488 962.071,-116.703 943.5,-110.309 922.678,-103.14 900.915,-92.258 882.786,-82.1248"/>
<polygon fill="red" stroke="red" stroke-width="0.264722" points="884.082,-78.8343 873.662,-76.9176 880.612,-84.9139 884.082,-78.8343"/>
</g>
<!-- enemyRadar[RightBack] -->
<g id="node9" class="node"><title>enemyRadar[RightBack]</title>
<polygon fill="lightgray" stroke="black" points="1419.5,-164.309 1315.5,-164.309 1315.5,-146.309 1419.5,-146.309 1419.5,-164.309"/>
<text text-anchor="middle" x="1367.5" y="-153.109" font-family="Times,serif" font-size="9.00">enemyRadar[RightBack]</text>
</g>
<!-- enemyRadar[RightBack]&#45;&gt;Move Left -->
<g id="edge50" class="edge"><title>enemyRadar[RightBack]&#45;&gt;Move Left</title>
<path fill="none" stroke="green" stroke-width="0.328697" d="M1367.5,-146.276C1367.5,-136.721 1367.5,-119.983 1367.5,-103.505"/>
<polygon fill="green" stroke="green" stroke-width="0.328697" points="1371,-103.345 1367.5,-93.3454 1364,-103.345 1371,-103.345"/>
</g>
<!-- enemyRadar[RightBack]&#45;&gt;Move right -->
<g id="edge47" class="edge"><title>enemyRadar[RightBack]&#45;&gt;Move right</title>
<path fill="none" stroke="green" stroke-width="0.246071" d="M1315.33,-146.301C1254.5,-136.726 1157.79,-120.694 1122.5,-110.309 1093.28,-101.709 1061.71,-88.6543 1037,-77.5169"/>
<polygon fill="green" stroke="green" stroke-width="0.246071" points="1038.44,-74.3245 1027.88,-73.3556 1035.53,-80.6924 1038.44,-74.3245"/>
</g>
<!-- enemyRadar[RightBack]&#45;&gt;Turn Left -->
<g id="edge22" class="edge"><title>enemyRadar[RightBack]&#45;&gt;Turn Left</title>
<path fill="none" stroke="red" stroke-width="0.446303" d="M1419.73,-147.347C1422.7,-146.986 1425.63,-146.638 1428.5,-146.309 1509.47,-137.008 1721.1,-147.74 1793.5,-110.309 1801.53,-106.158 1808.78,-100.007 1815.06,-93.3236"/>
<polygon fill="red" stroke="red" stroke-width="0.446303" points="1818.08,-95.1796 1821.96,-85.3212 1812.78,-90.6076 1818.08,-95.1796"/>
</g>
<!-- enemyRadar[RightBack]&#45;&gt;Turn Right -->
<g id="edge37" class="edge"><title>enemyRadar[RightBack]&#45;&gt;Turn Right</title>
<path fill="none" stroke="green" stroke-width="0.569085" d="M1315.27,-147.349C1312.3,-146.988 1309.36,-146.639 1306.5,-146.309 1145.44,-127.765 1098.79,-156.894 943.5,-110.309 922.408,-103.981 900.604,-93.2242 882.518,-82.957"/>
<polygon fill="green" stroke="green" stroke-width="0.569085" points="883.826,-79.668 873.423,-77.6586 880.302,-85.7165 883.826,-79.668"/>
</g>
<!-- enemyRadar[LeftBack] -->
<g id="node10" class="node"><title>enemyRadar[LeftBack]</title>
<polygon fill="lightgray" stroke="black" points="1655,-164.309 1556,-164.309 1556,-146.309 1655,-146.309 1655,-164.309"/>
<text text-anchor="middle" x="1605.5" y="-153.109" font-family="Times,serif" font-size="9.00">enemyRadar[LeftBack]</text>
</g>
<!-- enemyRadar[LeftBack]&#45;&gt; Move Backward -->
<g id="edge33" class="edge"><title>enemyRadar[LeftBack]&#45;&gt; Move Backward</title>
<path fill="none" stroke="red" stroke-width="0.182897" d="M1555.82,-147.275C1480.22,-136.477 1342.7,-116.421 1320.5,-110.309 1295.3,-103.373 1268.43,-93.117 1245.41,-83.3907"/>
<polygon fill="red" stroke="red" stroke-width="0.182897" points="1246.7,-80.136 1236.13,-79.4107 1243.95,-86.5692 1246.7,-80.136"/>
</g>
<!-- enemyRadar[LeftBack]&#45;&gt;Move Left -->
<g id="edge75" class="edge"><title>enemyRadar[LeftBack]&#45;&gt;Move Left</title>
<path fill="none" stroke="green" stroke-width="0.414279" d="M1586.02,-146.276C1548.29,-130.716 1464.37,-96.1063 1412.21,-74.5913"/>
<polygon fill="green" stroke="green" stroke-width="0.414279" points="1413.43,-71.311 1402.85,-70.7339 1410.76,-77.7823 1413.43,-71.311"/>
</g>
<!-- enemyRadar[Right45ø] -->
<g id="node11" class="node"><title>enemyRadar[Right45ø]</title>
<polygon fill="lightgray" stroke="black" points="1537.5,-164.309 1437.5,-164.309 1437.5,-146.309 1537.5,-146.309 1537.5,-164.309"/>
<text text-anchor="middle" x="1487.5" y="-153.109" font-family="Times,serif" font-size="9.00">enemyRadar[Right45ø]</text>
</g>
<!-- enemyRadar[Right45ø]&#45;&gt;Shoot -->
<g id="edge57" class="edge"><title>enemyRadar[Right45ø]&#45;&gt;Shoot</title>
<path fill="none" stroke="green" stroke-width="0.166447" d="M1437.32,-147.232C1434.34,-146.897 1431.38,-146.585 1428.5,-146.309 1146.23,-119.238 1073.66,-138.442 791.5,-110.309 665.638,-97.7596 517.422,-73.8358 450.082,-62.4625"/>
<polygon fill="green" stroke="green" stroke-width="0.166447" points="450.43,-58.9714 439.985,-60.7485 449.258,-65.8727 450.43,-58.9714"/>
</g>
<!-- enemyRadar[Right45ø]&#45;&gt;Move Forward -->
<g id="edge11" class="edge"><title>enemyRadar[Right45ø]&#45;&gt;Move Forward</title>
<path fill="none" stroke="red" stroke-width="0.355652" d="M1507.71,-146.276C1544.67,-131.591 1624.32,-99.9375 1678.68,-78.3383"/>
<polygon fill="red" stroke="red" stroke-width="0.355652" points="1680.18,-81.508 1688.18,-74.5624 1677.59,-75.0028 1680.18,-81.508"/>
</g>
<!-- enemyRadar[Right45ø]&#45;&gt; Move Backward -->
<g id="edge46" class="edge"><title>enemyRadar[Right45ø]&#45;&gt; Move Backward</title>
<path fill="none" stroke="red" stroke-width="0.237018" d="M1451.61,-146.241C1417.53,-138.255 1365.03,-125.106 1320.5,-110.309 1295.8,-102.102 1269.13,-91.6566 1246.12,-82.1335"/>
<polygon fill="red" stroke="red" stroke-width="0.237018" points="1247.42,-78.8807 1236.84,-78.258 1244.72,-85.3404 1247.42,-78.8807"/>
</g>
<!-- enemyRadar[Right45ø]&#45;&gt;Move Left -->
<g id="edge58" class="edge"><title>enemyRadar[Right45ø]&#45;&gt;Move Left</title>
<path fill="none" stroke="green" stroke-width="0.321886" d="M1477.68,-146.276C1461.92,-133.386 1430.18,-107.423 1404.8,-86.6613"/>
<polygon fill="green" stroke="green" stroke-width="0.321886" points="1406.76,-83.7485 1396.81,-80.1263 1402.33,-89.1668 1406.76,-83.7485"/>
</g>
<!-- enemyRadar[Right45ø]&#45;&gt;Move right -->
<g id="edge12" class="edge"><title>enemyRadar[Right45ø]&#45;&gt;Move right</title>
<path fill="none" stroke="red" stroke-width="0.365346" d="M1437.3,-147.44C1434.32,-147.052 1431.37,-146.672 1428.5,-146.309 1292.65,-129.108 1254.98,-144.971 1122.5,-110.309 1092.93,-102.571 1061.23,-89.4743 1036.54,-78.0987"/>
<polygon fill="red" stroke="red" stroke-width="0.365346" points="1037.98,-74.9082 1027.44,-73.8379 1035.01,-81.2478 1037.98,-74.9082"/>
</g>
<!-- enemyRadar[Right45ø]&#45;&gt;Turn Left -->
<g id="edge3" class="edge"><title>enemyRadar[Right45ø]&#45;&gt;Turn Left</title>
<path fill="none" stroke="red" stroke-width="0.104859" d="M1537.59,-147.56C1622.93,-136 1787.92,-113.353 1793.5,-110.309 1801.35,-106.024 1808.5,-99.8758 1814.72,-93.2491"/>
<polygon fill="red" stroke="red" stroke-width="0.104859" points="1817.68,-95.1816 1821.59,-85.3329 1812.39,-90.5965 1817.68,-95.1816"/>
</g>
<!-- enemyRadar[Left45ø] -->
<g id="node12" class="node"><title>enemyRadar[Left45ø]</title>
<polygon fill="lightgray" stroke="black" points="336,-164.309 241,-164.309 241,-146.309 336,-146.309 336,-164.309"/>
<text text-anchor="middle" x="288.5" y="-153.109" font-family="Times,serif" font-size="9.00">enemyRadar[Left45ø]</text>
</g>
<!-- enemyRadar[Left45ø]&#45;&gt;Shoot -->
<g id="edge54" class="edge"><title>enemyRadar[Left45ø]&#45;&gt;Shoot</title>
<path fill="none" stroke="red" stroke-width="0.281298" d="M298.729,-146.276C317.224,-131.754 356.851,-100.637 384.329,-79.0601"/>
<polygon fill="red" stroke="red" stroke-width="0.281298" points="386.727,-81.6278 392.43,-72.6991 382.404,-76.1222 386.727,-81.6278"/>
</g>
<!-- enemyRadar[Left45ø]&#45;&gt;Move Forward -->
<g id="edge4" class="edge"><title>enemyRadar[Left45ø]&#45;&gt;Move Forward</title>
<path fill="none" stroke="green" stroke-width="0.204429" d="M336.118,-147.147C338.951,-146.832 341.761,-146.549 344.5,-146.309 826.47,-104.035 951.357,-161.139 1432.5,-110.309 1517.63,-101.315 1614.89,-82.2727 1675.5,-69.3416"/>
<polygon fill="green" stroke="green" stroke-width="0.204429" points="1676.6,-72.6849 1685.64,-67.1618 1675.13,-65.8412 1676.6,-72.6849"/>
</g>
<!-- enemyRadar[Left45ø]&#45;&gt;Move right -->
<g id="edge18" class="edge"><title>enemyRadar[Left45ø]&#45;&gt;Move right</title>
<path fill="none" stroke="green" stroke-width="0.142645" d="M336.128,-147.247C338.958,-146.907 341.765,-146.591 344.5,-146.309 469.204,-133.434 788.324,-149.216 907.5,-110.309 923.754,-105.002 939.984,-95.8563 953.841,-86.5752"/>
<polygon fill="green" stroke="green" stroke-width="0.142645" points="955.923,-89.3906 962.14,-80.8121 951.93,-83.6408 955.923,-89.3906"/>
</g>
<!-- enemyRadar[Left45ø]&#45;&gt;Turn Right -->
<g id="edge26" class="edge"><title>enemyRadar[Left45ø]&#45;&gt;Turn Right</title>
<path fill="none" stroke="green" stroke-width="0.247124" d="M333.672,-146.276C436.09,-128.065 685.258,-83.7588 791.356,-64.893"/>
<polygon fill="green" stroke="green" stroke-width="0.247124" points="792.235,-68.2916 801.468,-63.0948 791.01,-61.3997 792.235,-68.2916"/>
</g>
<!-- enemyRadar[RightFront20ø] -->
<g id="node13" class="node"><title>enemyRadar[RightFront20ø]</title>
<polygon fill="lightgray" stroke="black" points="473,-164.309 354,-164.309 354,-146.309 473,-146.309 473,-164.309"/>
<text text-anchor="middle" x="413.5" y="-153.109" font-family="Times,serif" font-size="9.00">enemyRadar[RightFront20ø]</text>
</g>
<!-- enemyRadar[RightFront20ø]&#45;&gt;Shoot -->
<g id="edge42" class="edge"><title>enemyRadar[RightFront20ø]&#45;&gt;Shoot</title>
<path fill="none" stroke="green" stroke-width="0.146053" d="M413.5,-146.276C413.5,-134.556 413.5,-112.026 413.5,-92.4263"/>
<polygon fill="green" stroke="green" stroke-width="0.146053" points="417,-92.2223 413.5,-82.2223 410,-92.2223 417,-92.2223"/>
</g>
<!-- enemyRadar[RightFront20ø]&#45;&gt;Move right -->
<g id="edge59" class="edge"><title>enemyRadar[RightFront20ø]&#45;&gt;Move right</title>
<path fill="none" stroke="green" stroke-width="0.316444" d="M473.192,-147.174C476,-146.874 478.78,-146.584 481.5,-146.309 670.545,-127.206 727.486,-171.121 907.5,-110.309 923.699,-104.836 939.916,-95.6511 953.777,-86.385"/>
<polygon fill="green" stroke="green" stroke-width="0.316444" points="955.851,-89.2062 962.082,-80.6374 951.868,-83.4502 955.851,-89.2062"/>
</g>
<!-- enemyRadar[RightFront20ø]&#45;&gt;Turn Left -->
<g id="edge19" class="edge"><title>enemyRadar[RightFront20ø]&#45;&gt;Turn Left</title>
<path fill="none" stroke="red" stroke-width="0.146618" d="M473.175,-146.981C475.987,-146.733 478.773,-146.506 481.5,-146.309 554.226,-141.044 1727.58,-141.48 1793.5,-110.309 1801.67,-106.445 1808.99,-100.418 1815.27,-93.7656"/>
<polygon fill="red" stroke="red" stroke-width="0.146618" points="1818.3,-95.6199 1822.18,-85.7604 1813,-91.0493 1818.3,-95.6199"/>
</g>
<!-- enemyRadar[RightFront20ø]&#45;&gt;Turn Right -->
<g id="edge77" class="edge"><title>enemyRadar[RightFront20ø]&#45;&gt;Turn Right</title>
<path fill="none" stroke="red" stroke-width="0.321945" d="M448.443,-146.276C524.506,-128.792 705.208,-87.2538 792.143,-67.2702"/>
<polygon fill="red" stroke="red" stroke-width="0.321945" points="793.054,-70.6521 802.016,-65.0007 791.486,-63.83 793.054,-70.6521"/>
</g>
<!-- enemyRadar[LeftFront20ø] -->
<g id="node14" class="node"><title>enemyRadar[LeftFront20ø]</title>
<polygon fill="lightgray" stroke="black" points="2139.5,-164.309 2025.5,-164.309 2025.5,-146.309 2139.5,-146.309 2139.5,-164.309"/>
<text text-anchor="middle" x="2082.5" y="-153.109" font-family="Times,serif" font-size="9.00">enemyRadar[LeftFront20ø]</text>
</g>
<!-- enemyRadar[LeftFront20ø]&#45;&gt;Move Forward -->
<g id="edge55" class="edge"><title>enemyRadar[LeftFront20ø]&#45;&gt;Move Forward</title>
<path fill="none" stroke="red" stroke-width="0.436728" d="M2025.33,-147.252C1947.86,-137.424 1816.83,-119.762 1796.5,-110.309 1789.73,-107.16 1783.14,-103.04 1776.94,-98.4777"/>
<polygon fill="red" stroke="red" stroke-width="0.436728" points="1778.77,-95.4632 1768.74,-92.0307 1774.44,-100.965 1778.77,-95.4632"/>
</g>
<!-- enemyRadar[LeftFront20ø]&#45;&gt; Move Backward -->
<g id="edge2" class="edge"><title>enemyRadar[LeftFront20ø]&#45;&gt; Move Backward</title>
<path fill="none" stroke="green" stroke-width="0.367746" d="M2025.29,-147.129C2022.32,-146.833 2019.37,-146.557 2016.5,-146.309 1707.9,-119.657 1622.92,-177.261 1320.5,-110.309 1294.88,-104.636 1267.82,-94.5593 1244.79,-84.624"/>
<polygon fill="green" stroke="green" stroke-width="0.367746" points="1246.07,-81.3647 1235.51,-80.5373 1243.25,-87.771 1246.07,-81.3647"/>
</g>
<!-- enemyRadar[LeftFront20ø]&#45;&gt;Move Left -->
<g id="edge21" class="edge"><title>enemyRadar[LeftFront20ø]&#45;&gt;Move Left</title>
<path fill="none" stroke="green" stroke-width="0.238959" d="M2025.27,-147.317C2022.3,-146.972 2019.37,-146.634 2016.5,-146.309 1865.07,-129.139 1826.41,-131.517 1675.5,-110.309 1582.75,-97.2741 1475.13,-77.2136 1414.81,-65.5164"/>
<polygon fill="green" stroke="green" stroke-width="0.238959" points="1415.31,-62.0485 1404.82,-63.5732 1413.97,-68.9195 1415.31,-62.0485"/>
</g>
<!-- enemyRadar[LeftFront20ø]&#45;&gt;Turn Left -->
<g id="edge43" class="edge"><title>enemyRadar[LeftFront20ø]&#45;&gt;Turn Left</title>
<path fill="none" stroke="red" stroke-width="0.227965" d="M2062.7,-146.276C2023.48,-130.371 1935.2,-94.563 1882.48,-73.1806"/>
<polygon fill="red" stroke="red" stroke-width="0.227965" points="1883.65,-69.8792 1873.07,-69.364 1881.02,-76.366 1883.65,-69.8792"/>
</g>
<!-- enemyRadar[RightFront15ø] -->
<g id="node15" class="node"><title>enemyRadar[RightFront15ø]</title>
<polygon fill="lightgray" stroke="black" points="610,-164.309 491,-164.309 491,-146.309 610,-146.309 610,-164.309"/>
<text text-anchor="middle" x="550.5" y="-153.109" font-family="Times,serif" font-size="9.00">enemyRadar[RightFront15ø]</text>
</g>
<!-- enemyRadar[RightFront15ø]&#45;&gt; Move Backward -->
<g id="edge15" class="edge"><title>enemyRadar[RightFront15ø]&#45;&gt; Move Backward</title>
<path fill="none" stroke="green" stroke-width="0.27534" d="M610.326,-147.247C613.427,-146.92 616.5,-146.605 619.5,-146.309 814.757,-127.007 869.025,-157.396 1059.5,-110.309 1082.81,-104.546 1107.32,-95.0012 1128.53,-85.5164"/>
<polygon fill="green" stroke="green" stroke-width="0.27534" points="1130.07,-88.6605 1137.71,-81.322 1127.16,-82.2933 1130.07,-88.6605"/>
</g>
<!-- enemyRadar[RightFront15ø]&#45;&gt;Move right -->
<g id="edge7" class="edge"><title>enemyRadar[RightFront15ø]&#45;&gt;Move right</title>
<path fill="none" stroke="green" stroke-width="0.243992" d="M610.03,-147.311C709.786,-135.537 900.567,-112.8 907.5,-110.309 923.455,-104.576 939.508,-95.4252 953.301,-86.265"/>
<polygon fill="green" stroke="green" stroke-width="0.243992" points="955.307,-89.1329 961.575,-80.5907 951.348,-83.3599 955.307,-89.1329"/>
</g>
<!-- enemyRadar[RightFront15ø]&#45;&gt;Turn Right -->
<g id="edge30" class="edge"><title>enemyRadar[RightFront15ø]&#45;&gt;Turn Right</title>
<path fill="none" stroke="red" stroke-width="0.12429" d="M574.232,-146.276C621.999,-130.109 730.527,-93.3762 793.287,-72.1344"/>
<polygon fill="red" stroke="red" stroke-width="0.12429" points="794.6,-75.385 802.95,-68.8637 792.356,-68.7545 794.6,-75.385"/>
</g>
<!-- enemyRadar[LeftFront15ø] -->
<g id="node16" class="node"><title>enemyRadar[LeftFront15ø]</title>
<polygon fill="lightgray" stroke="black" points="2375.5,-164.309 2261.5,-164.309 2261.5,-146.309 2375.5,-146.309 2375.5,-164.309"/>
<text text-anchor="middle" x="2318.5" y="-153.109" font-family="Times,serif" font-size="9.00">enemyRadar[LeftFront15ø]</text>
</g>
<!-- enemyRadar[LeftFront15ø]&#45;&gt;Move Forward -->
<g id="edge73" class="edge"><title>enemyRadar[LeftFront15ø]&#45;&gt;Move Forward</title>
<path fill="none" stroke="red" stroke-width="0.272834" d="M2261.28,-147.224C2258.31,-146.903 2255.37,-146.596 2252.5,-146.309 2151.36,-136.191 1890.19,-149.74 1796.5,-110.309 1789.62,-107.412 1782.96,-103.442 1776.73,-98.9569"/>
<polygon fill="red" stroke="red" stroke-width="0.272834" points="1778.55,-95.941 1768.5,-92.5747 1774.26,-101.471 1778.55,-95.941"/>
</g>
<!-- enemyRadar[LeftFront15ø]&#45;&gt;Turn Left -->
<g id="edge16" class="edge"><title>enemyRadar[LeftFront15ø]&#45;&gt;Turn Left</title>
<path fill="none" stroke="green" stroke-width="0.198494" d="M2279.38,-146.276C2191.27,-128.183 1977.71,-84.3301 1884.85,-65.2618"/>
<polygon fill="green" stroke="green" stroke-width="0.198494" points="1885.43,-61.8075 1874.93,-63.2244 1884.02,-68.6645 1885.43,-61.8075"/>
</g>
<!-- enemyRadar[RightFront7.5ø] -->
<g id="node17" class="node"><title>enemyRadar[RightFront7.5ø]</title>
<polygon fill="lightgray" stroke="black" points="1795.5,-164.309 1673.5,-164.309 1673.5,-146.309 1795.5,-146.309 1795.5,-164.309"/>
<text text-anchor="middle" x="1734.5" y="-153.109" font-family="Times,serif" font-size="9.00">enemyRadar[RightFront7.5ø]</text>
</g>
<!-- enemyRadar[RightFront7.5ø]&#45;&gt;Move Forward -->
<g id="edge44" class="edge"><title>enemyRadar[RightFront7.5ø]&#45;&gt;Move Forward</title>
<path fill="none" stroke="red" stroke-width="0.149194" d="M1734.5,-146.276C1734.5,-139.122 1734.5,-127.942 1734.5,-115.858"/>
<polygon fill="red" stroke="red" stroke-width="0.149194" points="1738,-115.564 1734.5,-105.564 1731,-115.564 1738,-115.564"/>
</g>
<!-- enemyRadar[RightFront7.5ø]&#45;&gt; Move Backward -->
<g id="edge8" class="edge"><title>enemyRadar[RightFront7.5ø]&#45;&gt; Move Backward</title>
<path fill="none" stroke="red" stroke-width="0.369115" d="M1673.42,-147.293C1670.4,-146.958 1667.42,-146.628 1664.5,-146.309 1511.69,-129.581 1469.66,-147.471 1320.5,-110.309 1295.14,-103.991 1268.24,-93.8503 1245.24,-84.0431"/>
<polygon fill="red" stroke="red" stroke-width="0.369115" points="1246.54,-80.7915 1235.98,-80.0193 1243.75,-87.2124 1246.54,-80.7915"/>
</g>
<!-- enemyRadar[RightFront7.5ø]&#45;&gt;Move Left -->
<g id="edge41" class="edge"><title>enemyRadar[RightFront7.5ø]&#45;&gt;Move Left</title>
<path fill="none" stroke="red" stroke-width="0.312439" d="M1704.47,-146.276C1640.49,-129.165 1490.38,-89.0178 1413.96,-68.5801"/>
<polygon fill="red" stroke="red" stroke-width="0.312439" points="1414.69,-65.153 1404.13,-65.9504 1412.88,-71.9153 1414.69,-65.153"/>
</g>
<!-- enemyRadar[RightFront7.5ø]&#45;&gt;Move right -->
<g id="edge52" class="edge"><title>enemyRadar[RightFront7.5ø]&#45;&gt;Move right</title>
<path fill="none" stroke="green" stroke-width="0.120747" d="M1673.43,-147.157C1670.41,-146.858 1667.42,-146.573 1664.5,-146.309 1424.06,-124.596 1357.53,-165.468 1122.5,-110.309 1092.74,-103.324 1061.04,-90.2451 1036.4,-78.6902"/>
<polygon fill="green" stroke="green" stroke-width="0.120747" points="1037.85,-75.5043 1027.31,-74.3522 1034.83,-81.8207 1037.85,-75.5043"/>
</g>
<!-- enemyRadar[RightFront7.5ø]&#45;&gt;Turn Left -->
<g id="edge9" class="edge"><title>enemyRadar[RightFront7.5ø]&#45;&gt;Turn Left</title>
<path fill="none" stroke="green" stroke-width="0.450447" d="M1746.85,-146.256C1759.22,-137.93 1778.52,-124.22 1793.5,-110.309 1799.86,-104.403 1806.24,-97.6971 1812.16,-91.0654"/>
<polygon fill="green" stroke="green" stroke-width="0.450447" points="1814.94,-93.2053 1818.87,-83.3666 1809.66,-88.6067 1814.94,-93.2053"/>
</g>
<!-- enemyRadar[LeftFront7.5ø] -->
<g id="node18" class="node"><title>enemyRadar[LeftFront7.5ø]</title>
<polygon fill="lightgray" stroke="black" points="2007.5,-164.309 1891.5,-164.309 1891.5,-146.309 2007.5,-146.309 2007.5,-164.309"/>
<text text-anchor="middle" x="1949.5" y="-153.109" font-family="Times,serif" font-size="9.00">enemyRadar[LeftFront7.5ø]</text>
</g>
<!-- enemyRadar[LeftFront7.5ø]&#45;&gt;Move Forward -->
<g id="edge62" class="edge"><title>enemyRadar[LeftFront7.5ø]&#45;&gt;Move Forward</title>
<path fill="none" stroke="red" stroke-width="0.224521" d="M1902.26,-146.299C1870.93,-139.673 1829.63,-128.363 1796.5,-110.309 1790.03,-106.782 1783.65,-102.479 1777.59,-97.856"/>
<polygon fill="red" stroke="red" stroke-width="0.224521" points="1779.53,-94.9255 1769.54,-91.3954 1775.15,-100.385 1779.53,-94.9255"/>
</g>
<!-- enemyRadar[LeftFront7.5ø]&#45;&gt;Turn Left -->
<g id="edge81" class="edge"><title>enemyRadar[LeftFront7.5ø]&#45;&gt;Turn Left</title>
<path fill="none" stroke="red" stroke-width="0.265138" d="M1940.58,-146.276C1926.24,-133.36 1897.32,-107.317 1874.24,-86.5335"/>
<polygon fill="red" stroke="red" stroke-width="0.265138" points="1876.44,-83.8043 1866.66,-79.7135 1871.75,-89.0061 1876.44,-83.8043"/>
</g>
<!-- enemyRadar[LeftFront7.5ø]&#45;&gt;Turn Right -->
<g id="edge38" class="edge"><title>enemyRadar[LeftFront7.5ø]&#45;&gt;Turn Right</title>
<path fill="none" stroke="green" stroke-width="0.461013" d="M1891.42,-147.084C1888.41,-146.8 1885.42,-146.539 1882.5,-146.309 1674.32,-129.916 1145.24,-164.231 943.5,-110.309 922.226,-104.622 900.395,-93.9605 882.338,-83.5912"/>
<polygon fill="green" stroke="green" stroke-width="0.461013" points="883.652,-80.3017 873.263,-78.2233 880.088,-86.3267 883.652,-80.3017"/>
</g>
<!-- enemyRadar[RightFront2.5ø] -->
<g id="node19" class="node"><title>enemyRadar[RightFront2.5ø]</title>
<polygon fill="lightgray" stroke="black" points="750.5,-164.309 628.5,-164.309 628.5,-146.309 750.5,-146.309 750.5,-164.309"/>
<text text-anchor="middle" x="689.5" y="-153.109" font-family="Times,serif" font-size="9.00">enemyRadar[RightFront2.5ø]</text>
</g>
<!-- enemyRadar[RightFront2.5ø]&#45;&gt;Shoot -->
<g id="edge1" class="edge"><title>enemyRadar[RightFront2.5ø]&#45;&gt;Shoot</title>
<path fill="none" stroke="green" stroke-width="0.256819" d="M666.914,-146.276C618.819,-129.172 506,-89.0502 448.51,-68.6048"/>
<polygon fill="green" stroke="green" stroke-width="0.256819" points="449.373,-65.1973 438.779,-65.1442 447.028,-71.7926 449.373,-65.1973"/>
</g>
<!-- enemyRadar[RightFront2.5ø]&#45;&gt; Move Backward -->
<g id="edge27" class="edge"><title>enemyRadar[RightFront2.5ø]&#45;&gt; Move Backward</title>
<path fill="none" stroke="red" stroke-width="0.241353" d="M750.748,-147.249C853.963,-135.322 1052.12,-112.278 1059.5,-110.309 1082.7,-104.119 1107.19,-94.4813 1128.41,-85.0417"/>
<polygon fill="red" stroke="red" stroke-width="0.241353" points="1129.94,-88.1924 1137.6,-80.8758 1127.04,-81.8168 1129.94,-88.1924"/>
</g>
<!-- enemyRadar[RightFront2.5ø]&#45;&gt;Move Left -->
<g id="edge10" class="edge"><title>enemyRadar[RightFront2.5ø]&#45;&gt;Move Left</title>
<path fill="none" stroke="red" stroke-width="0.277467" d="M750.568,-147.182C753.587,-146.876 756.577,-146.583 759.5,-146.309 977.352,-125.882 1038.68,-165.151 1250.5,-110.309 1276.66,-103.535 1304.18,-91.1025 1325.94,-79.8571"/>
<polygon fill="red" stroke="red" stroke-width="0.277467" points="1327.69,-82.8931 1334.9,-75.1303 1324.42,-76.7023 1327.69,-82.8931"/>
</g>
<!-- enemyRadar[RightFront2.5ø]&#45;&gt;Move right -->
<g id="edge24" class="edge"><title>enemyRadar[RightFront2.5ø]&#45;&gt;Move right</title>
<path fill="none" stroke="red" stroke-width="0.447509" d="M740.366,-146.261C794.939,-137.234 877.778,-122.291 907.5,-110.309 923.224,-103.97 939.221,-94.6718 953.033,-85.5626"/>
<polygon fill="red" stroke="red" stroke-width="0.447509" points="955.012,-88.4495 961.328,-79.9434 951.086,-82.654 955.012,-88.4495"/>
</g>
<!-- enemyRadar[RightFront2.5ø]&#45;&gt;Turn Right -->
<g id="edge69" class="edge"><title>enemyRadar[RightFront2.5ø]&#45;&gt;Turn Right</title>
<path fill="none" stroke="green" stroke-width="0.24392" d="M701.857,-146.276C722.871,-132.617 766.469,-104.276 799.198,-83.0021"/>
<polygon fill="green" stroke="green" stroke-width="0.24392" points="801.21,-85.8682 807.687,-77.4835 797.395,-79.9991 801.21,-85.8682"/>
</g>
<!-- enemyRadar[LeftFront2.5ø] -->
<g id="node20" class="node"><title>enemyRadar[LeftFront2.5ø]</title>
<polygon fill="lightgray" stroke="black" points="2509.5,-164.309 2393.5,-164.309 2393.5,-146.309 2509.5,-146.309 2509.5,-164.309"/>
<text text-anchor="middle" x="2451.5" y="-153.109" font-family="Times,serif" font-size="9.00">enemyRadar[LeftFront2.5ø]</text>
</g>
<!-- enemyRadar[LeftFront2.5ø]&#45;&gt;Move Forward -->
<g id="edge64" class="edge"><title>enemyRadar[LeftFront2.5ø]&#45;&gt;Move Forward</title>
<path fill="none" stroke="green" stroke-width="0.387013" d="M2393.42,-147.166C2390.4,-146.86 2387.42,-146.572 2384.5,-146.309 2254.12,-134.543 1917.6,-160.025 1796.5,-110.309 1789.59,-107.473 1782.92,-103.538 1776.68,-99.0724"/>
<polygon fill="green" stroke="green" stroke-width="0.387013" points="1778.5,-96.0565 1768.45,-92.7059 1774.22,-101.593 1778.5,-96.0565"/>
</g>
<!-- enemyRadar[LeftFront2.5ø]&#45;&gt;Turn Left -->
<g id="edge6" class="edge"><title>enemyRadar[LeftFront2.5ø]&#45;&gt;Turn Left</title>
<path fill="none" stroke="green" stroke-width="0.206019" d="M2401.5,-146.276C2284.87,-127.54 1996.29,-81.1818 1885.14,-63.3256"/>
<polygon fill="green" stroke="green" stroke-width="0.206019" points="1885.69,-59.8689 1875.26,-61.7383 1884.58,-66.7802 1885.69,-59.8689"/>
</g>
<!-- OnTarget -->
<g id="node21" class="node"><title>OnTarget</title>
<polygon fill="lightgray" stroke="black" points="1297.5,-164.309 1247.5,-164.309 1247.5,-146.309 1297.5,-146.309 1297.5,-164.309"/>
<text text-anchor="middle" x="1272.5" y="-153.109" font-family="Times,serif" font-size="9.00">OnTarget</text>
</g>
<!-- OnTarget&#45;&gt;Move Left -->
<g id="edge78" class="edge"><title>OnTarget&#45;&gt;Move Left</title>
<path fill="none" stroke="red" stroke-width="0.517071" d="M1280.27,-146.276C1292.04,-134.125 1315.04,-110.354 1334.47,-90.2765"/>
<polygon fill="red" stroke="red" stroke-width="0.517071" points="1337,-92.6946 1341.44,-83.0748 1331.97,-87.8263 1337,-92.6946"/>
</g>
<!-- OnTarget&#45;&gt;Move right -->
<g id="edge79" class="edge"><title>OnTarget&#45;&gt;Move right</title>
<path fill="none" stroke="green" stroke-width="0.288467" d="M1247.28,-147.817C1217.26,-139.881 1165.74,-125.605 1122.5,-110.309 1093.78,-100.15 1062.23,-87.0533 1037.4,-76.2841"/>
<polygon fill="green" stroke="green" stroke-width="0.288467" points="1038.8,-73.0755 1028.23,-72.2817 1036,-79.4907 1038.8,-73.0755"/>
</g>
<!-- OnTarget&#45;&gt;Turn Left -->
<g id="edge40" class="edge"><title>OnTarget&#45;&gt;Turn Left</title>
<path fill="none" stroke="red" stroke-width="0.434391" d="M1297.66,-147.922C1300.63,-147.308 1303.62,-146.751 1306.5,-146.309 1413.76,-129.83 1696.5,-158.96 1793.5,-110.309 1801.58,-106.257 1808.85,-100.149 1815.13,-93.4757"/>
<polygon fill="red" stroke="red" stroke-width="0.434391" points="1818.15,-95.3311 1822.04,-85.4723 1812.85,-90.7596 1818.15,-95.3311"/>
</g>
<!-- OnTarget&#45;&gt;Turn Right -->
<g id="edge63" class="edge"><title>OnTarget&#45;&gt;Turn Right</title>
<path fill="none" stroke="green" stroke-width="0.219967" d="M1247.31,-148.058C1244.35,-147.419 1241.37,-146.819 1238.5,-146.309 1108.46,-123.148 1069.58,-149.688 943.5,-110.309 922.48,-103.743 900.687,-92.9511 882.59,-82.7218"/>
<polygon fill="green" stroke="green" stroke-width="0.219967" points="883.895,-79.4327 873.487,-77.4492 880.386,-85.4899 883.895,-79.4327"/>
</g>
<!-- TakingDmg -->
<g id="node22" class="node"><title>TakingDmg</title>
<polygon fill="lightgray" stroke="black" points="1873,-164.309 1814,-164.309 1814,-146.309 1873,-146.309 1873,-164.309"/>
<text text-anchor="middle" x="1843.5" y="-153.109" font-family="Times,serif" font-size="9.00">TakingDmg</text>
</g>
<!-- TakingDmg&#45;&gt;Move Forward -->
<g id="edge35" class="edge"><title>TakingDmg&#45;&gt;Move Forward</title>
<path fill="none" stroke="green" stroke-width="0.336738" d="M1834.58,-146.276C1822.4,-135.307 1799.7,-114.871 1779,-96.229"/>
<polygon fill="green" stroke="green" stroke-width="0.336738" points="1781.26,-93.5538 1771.49,-89.463 1776.58,-98.7556 1781.26,-93.5538"/>
</g>
<!-- TakingDmg&#45;&gt;Move Left -->
<g id="edge74" class="edge"><title>TakingDmg&#45;&gt;Move Left</title>
<path fill="none" stroke="red" stroke-width="0.429218" d="M1813.72,-148.169C1733.52,-131.63 1512.46,-86.0451 1414.86,-65.9204"/>
<polygon fill="red" stroke="red" stroke-width="0.429218" points="1415.48,-62.4737 1404.98,-63.8819 1414.06,-69.3295 1415.48,-62.4737"/>
</g>
<!-- TakingDmg&#45;&gt;Turn Left -->
<g id="edge32" class="edge"><title>TakingDmg&#45;&gt;Turn Left</title>
<path fill="none" stroke="green" stroke-width="0.234802" d="M1843.25,-146.276C1842.95,-136.172 1842.39,-118.035 1841.86,-100.667"/>
<polygon fill="green" stroke="green" stroke-width="0.234802" points="1845.36,-100.484 1841.55,-90.596 1838.36,-100.698 1845.36,-100.484"/>
</g>
<!-- TakingDmg&#45;&gt;Turn Right -->
<g id="edge61" class="edge"><title>TakingDmg&#45;&gt;Turn Right</title>
<path fill="none" stroke="red" stroke-width="0.366436" d="M1813.77,-147.698C1810.65,-147.158 1807.52,-146.679 1804.5,-146.309 1614.42,-122.993 1128.42,-160.08 943.5,-110.309 922.236,-104.585 900.406,-93.9182 882.348,-83.5547"/>
<polygon fill="red" stroke="red" stroke-width="0.366436" points="883.661,-80.2653 873.272,-78.1908 880.1,-86.2917 883.661,-80.2653"/>
</g>
<!-- bias -->
<g id="node23" class="node"><title>bias</title>
<polygon fill="lightgray" stroke="black" points="31,-164.309 1.77636e-15,-164.309 1.77636e-15,-146.309 31,-146.309 31,-164.309"/>
<text text-anchor="middle" x="15.5" y="-153.109" font-family="Times,serif" font-size="9.00">bias</text>
</g>
<!-- bias&#45;&gt;Shoot -->
<g id="edge23" class="edge"><title>bias&#45;&gt;Shoot</title>
<path fill="none" stroke="green" stroke-width="0.152029" d="M31.1902,-148.866C33.9468,-147.97 36.7979,-147.083 39.5,-146.309 161.999,-111.197 309.643,-78.3455 376.909,-63.888"/>
<polygon fill="green" stroke="green" stroke-width="0.152029" points="377.953,-67.2439 386.999,-61.7281 376.488,-60.399 377.953,-67.2439"/>
</g>
<!-- bias&#45;&gt;Turn Right -->
<g id="edge17" class="edge"><title>bias&#45;&gt;Turn Right</title>
<path fill="none" stroke="green" stroke-width="0.18791" d="M31.1056,-148.523C33.8716,-147.666 36.7478,-146.88 39.5,-146.309 218.606,-109.131 267.735,-130.863 449.5,-110.309 572.908,-96.3535 717.538,-75.0174 791.499,-63.744"/>
<polygon fill="green" stroke="green" stroke-width="0.18791" points="792.1,-67.1929 801.456,-62.2219 791.042,-60.2733 792.1,-67.1929"/>
</g>
<!-- Move Left&#45;&gt;Move Left -->
<g id="edge76" class="edge"><title>Move Left&#45;&gt;Move Left</title>
<path fill="none" stroke="green" stroke-width="0.337929" d="M1400.95,-73.8631C1413.42,-74.4765 1423.68,-68.2403 1423.68,-55.1543 1423.68,-45.9533 1418.61,-40.1386 1411.26,-37.7103"/>
<polygon fill="green" stroke="green" stroke-width="0.337929" points="1411.31,-34.1893 1400.95,-36.4455 1410.45,-41.1372 1411.31,-34.1893"/>
</g>
<!-- Move right&#45;&gt;Move right -->
<g id="edge80" class="edge"><title>Move right&#45;&gt;Move right</title>
<path fill="none" stroke="red" stroke-width="0.238667" d="M1027.65,-73.894C1040.04,-74.1939 1050.1,-67.9473 1050.1,-55.1543 1050.1,-46.1593 1045.13,-40.4007 1037.87,-37.8785"/>
<polygon fill="red" stroke="red" stroke-width="0.238667" points="1038.05,-34.3684 1027.65,-36.4146 1037.05,-41.2977 1038.05,-34.3684"/>
</g>
<!-- Turn Right&#45;&gt;Turn Right -->
<g id="edge45" class="edge"><title>Turn Right&#45;&gt;Turn Right</title>
<path fill="none" stroke="red" stroke-width="0.277429" d="M875.651,-73.894C888.043,-74.1939 898.098,-67.9473 898.098,-55.1543 898.098,-46.1593 893.127,-40.4007 885.868,-37.8785"/>
<polygon fill="red" stroke="red" stroke-width="0.277429" points="886.047,-34.3684 875.651,-36.4146 885.054,-41.2977 886.047,-34.3684"/>
</g>
</g>
</svg>
