<?xml version="1.0" encoding="UTF-8" standalone="no"?>
<!DOCTYPE svg PUBLIC "-//W3C//DTD SVG 1.1//EN"
 "http://www.w3.org/Graphics/SVG/1.1/DTD/svg11.dtd">
<!-- Generated by graphviz version 2.38.0 (20140413.2041)
 -->
<!-- Title: %3 Pages: 1 -->
<svg width="1992pt" height="562pt"
 viewBox="0.00 0.00 1992.00 562.38" xmlns="http://www.w3.org/2000/svg" xmlns:xlink="http://www.w3.org/1999/xlink">
<g id="graph0" class="graph" transform="scale(1 1) rotate(0) translate(4 558.382)">
<title>%3</title>
<polygon fill="white" stroke="none" points="-4,4 -4,-558.382 1988,-558.382 1988,4 -4,4"/>
<!-- wallRadar[1,0] -->
<g id="node1" class="node"><title>wallRadar[1,0]</title>
<polygon fill="lightgray" stroke="black" points="70,-399.136 0,-399.136 0,-381.136 70,-381.136 70,-399.136"/>
<text text-anchor="middle" x="35" y="-387.936" font-family="Times,serif" font-size="9.00">wallRadar[1,0]</text>
</g>
<!-- Shoot -->
<g id="node24" class="node"><title>Shoot</title>
<ellipse fill="lightblue" stroke="black" cx="1440" cy="-26.8701" rx="26.7407" ry="26.7407"/>
<text text-anchor="middle" x="1440" y="-24.6701" font-family="Times,serif" font-size="9.00">Shoot</text>
</g>
<!-- wallRadar[1,0]&#45;&gt;Shoot -->
<g id="edge19" class="edge"><title>wallRadar[1,0]&#45;&gt;Shoot</title>
<path fill="none" stroke="red" stroke-width="0.766738" stroke-dasharray="1,5" d="M36.559,-380.745C42.6703,-349.879 67.5908,-241.026 126,-175.238 176.69,-118.143 201.773,-111.353 275,-89.7401 493.696,-25.1928 1228.91,-26.3272 1402.88,-27.5372"/>
<polygon fill="red" stroke="red" stroke-width="0.766738" points="1403.03,-31.0383 1413.05,-27.6127 1403.08,-24.0385 1403.03,-31.0383"/>
</g>
<!-- Move Forward/Backward -->
<g id="node25" class="node"><title>Move Forward/Backward</title>
<ellipse fill="lightblue" stroke="black" cx="292" cy="-252.312" rx="77.1494" ry="77.1494"/>
<text text-anchor="middle" x="292" y="-250.112" font-family="Times,serif" font-size="9.00">Move Forward/Backward</text>
</g>
<!-- wallRadar[1,0]&#45;&gt;Move Forward/Backward -->
<g id="edge25" class="edge"><title>wallRadar[1,0]&#45;&gt;Move Forward/Backward</title>
<path fill="none" stroke="green" stroke-width="0.365246" stroke-dasharray="1,5" d="M50.0483,-380.963C58.5379,-376.364 69.3477,-370.531 79,-365.387 123.911,-341.452 174.298,-314.925 214.786,-293.69"/>
<polygon fill="green" stroke="green" stroke-width="0.365246" points="216.564,-296.709 223.796,-288.966 213.314,-290.51 216.564,-296.709"/>
</g>
<!-- wallRadar[0,1] -->
<g id="node2" class="node"><title>wallRadar[0,1]</title>
<polygon fill="lightgray" stroke="black" points="158,-399.136 88,-399.136 88,-381.136 158,-381.136 158,-399.136"/>
<text text-anchor="middle" x="123" y="-387.936" font-family="Times,serif" font-size="9.00">wallRadar[0,1]</text>
</g>
<!-- wallRadar[0,1]&#45;&gt;Shoot -->
<g id="edge32" class="edge"><title>wallRadar[0,1]&#45;&gt;Shoot</title>
<path fill="none" stroke="red" stroke-width="0.276894" d="M123.355,-380.822C125.228,-348.313 136.758,-228.949 206,-175.238 399.259,-25.3244 1218.1,-25.3605 1402.86,-27.3294"/>
<polygon fill="red" stroke="red" stroke-width="0.276894" points="1402.85,-30.8294 1412.89,-27.4451 1402.93,-23.8299 1402.85,-30.8294"/>
</g>
<!-- wallRadar[0,1]&#45;&gt;Move Forward/Backward -->
<g id="edge6" class="edge"><title>wallRadar[0,1]&#45;&gt;Move Forward/Backward</title>
<path fill="none" stroke="green" stroke-width="0.918334" d="M133.066,-381.046C150.969,-366.657 189.737,-335.5 224.501,-307.56"/>
<polygon fill="green" stroke="green" stroke-width="0.918334" points="226.707,-310.278 232.309,-301.285 222.322,-304.821 226.707,-310.278"/>
</g>
<!-- wallRadar[&#45;1,0] -->
<g id="node3" class="node"><title>wallRadar[&#45;1,0]</title>
<polygon fill="lightgray" stroke="black" points="942.5,-399.136 869.5,-399.136 869.5,-381.136 942.5,-381.136 942.5,-399.136"/>
<text text-anchor="middle" x="906" y="-387.936" font-family="Times,serif" font-size="9.00">wallRadar[&#45;1,0]</text>
</g>
<!-- wallRadar[&#45;1,0]&#45;&gt;Move Forward/Backward -->
<g id="edge9" class="edge"><title>wallRadar[&#45;1,0]&#45;&gt;Move Forward/Backward</title>
<path fill="none" stroke="red" stroke-width="0.115883" stroke-dasharray="1,5" d="M893.072,-381.014C884.318,-375.846 872.326,-369.394 861,-365.387 773.03,-334.265 514.14,-289.454 377.966,-267.094"/>
<polygon fill="red" stroke="red" stroke-width="0.115883" points="378.413,-263.62 367.978,-265.458 377.281,-270.528 378.413,-263.62"/>
</g>
<!--  Move Left/Right -->
<g id="node26" class="node"><title> Move Left/Right</title>
<ellipse fill="lightblue" stroke="black" cx="800" cy="-252.312" rx="55.3091" ry="55.3091"/>
<text text-anchor="middle" x="800" y="-250.112" font-family="Times,serif" font-size="9.00"> Move Left/Right</text>
</g>
<!-- wallRadar[&#45;1,0]&#45;&gt; Move Left/Right -->
<g id="edge29" class="edge"><title>wallRadar[&#45;1,0]&#45;&gt; Move Left/Right</title>
<path fill="none" stroke="red" stroke-width="0.254208" d="M899.687,-381.046C888.035,-366.116 862.293,-333.132 839.888,-304.422"/>
<polygon fill="red" stroke="red" stroke-width="0.254208" points="842.583,-302.187 833.671,-296.457 837.064,-306.493 842.583,-302.187"/>
</g>
<!-- Turn left/right -->
<g id="node27" class="node"><title>Turn left/right</title>
<ellipse fill="lightblue" stroke="black" cx="1497" cy="-252.312" rx="46.8387" ry="46.8387"/>
<text text-anchor="middle" x="1497" y="-250.112" font-family="Times,serif" font-size="9.00">Turn left/right</text>
</g>
<!-- wallRadar[&#45;1,0]&#45;&gt;Turn left/right -->
<g id="edge3" class="edge"><title>wallRadar[&#45;1,0]&#45;&gt;Turn left/right</title>
<path fill="none" stroke="green" stroke-width="0.235579" d="M941.866,-381.121C966.084,-375.965 998.832,-369.485 1028,-365.387 1119.23,-352.568 1360.67,-374.489 1441,-329.387 1452.51,-322.925 1462.32,-313.007 1470.36,-302.444"/>
<polygon fill="green" stroke="green" stroke-width="0.235579" points="1473.21,-304.466 1476.16,-294.288 1467.51,-300.409 1473.21,-304.466"/>
</g>
<!-- wallRadar[0,&#45;1] -->
<g id="node4" class="node"><title>wallRadar[0,&#45;1]</title>
<polygon fill="lightgray" stroke="black" points="640.5,-399.136 567.5,-399.136 567.5,-381.136 640.5,-381.136 640.5,-399.136"/>
<text text-anchor="middle" x="604" y="-387.936" font-family="Times,serif" font-size="9.00">wallRadar[0,&#45;1]</text>
</g>
<!-- wallRadar[0,&#45;1]&#45;&gt; Move Left/Right -->
<g id="edge8" class="edge"><title>wallRadar[0,&#45;1]&#45;&gt; Move Left/Right</title>
<path fill="none" stroke="green" stroke-width="0.827053" d="M615.674,-381.046C640.836,-363.609 701.537,-321.545 746.443,-290.426"/>
<polygon fill="green" stroke="green" stroke-width="0.827053" points="748.689,-293.128 754.914,-284.555 744.702,-287.375 748.689,-293.128"/>
</g>
<!-- wallRadar[0.7,0.7] -->
<g id="node5" class="node"><title>wallRadar[0.7,0.7]</title>
<polygon fill="lightgray" stroke="black" points="403.5,-399.136 320.5,-399.136 320.5,-381.136 403.5,-381.136 403.5,-399.136"/>
<text text-anchor="middle" x="362" y="-387.936" font-family="Times,serif" font-size="9.00">wallRadar[0.7,0.7]</text>
</g>
<!-- wallRadar[0.7,0.7]&#45;&gt;Move Forward/Backward -->
<g id="edge18" class="edge"><title>wallRadar[0.7,0.7]&#45;&gt;Move Forward/Backward</title>
<path fill="none" stroke="red" stroke-width="0.410914" stroke-dasharray="1,5" d="M357.831,-381.046C352.397,-370.502 342.322,-350.953 331.659,-330.265"/>
<polygon fill="red" stroke="red" stroke-width="0.410914" points="334.758,-328.637 327.066,-321.351 328.536,-331.844 334.758,-328.637"/>
</g>
<!-- wallRadar[0.7,0.7]&#45;&gt; Move Left/Right -->
<g id="edge7" class="edge"><title>wallRadar[0.7,0.7]&#45;&gt; Move Left/Right</title>
<path fill="none" stroke="red" stroke-width="0.36124" d="M377.48,-380.982C387.216,-376.057 400.138,-369.883 412,-365.387 523.688,-323.052 658.542,-287.432 736.275,-268.337"/>
<polygon fill="red" stroke="red" stroke-width="0.36124" points="737.508,-271.638 746.392,-265.865 735.847,-264.838 737.508,-271.638"/>
</g>
<!-- wallRadar[&#45;0.7,0.7] -->
<g id="node6" class="node"><title>wallRadar[&#45;0.7,0.7]</title>
<polygon fill="lightgray" stroke="black" points="850,-484.633 764,-484.633 764,-466.633 850,-466.633 850,-484.633"/>
<text text-anchor="middle" x="807" y="-473.433" font-family="Times,serif" font-size="9.00">wallRadar[&#45;0.7,0.7]</text>
</g>
<!-- wallRadar[&#45;0.7,0.7]&#45;&gt; Move Left/Right -->
<g id="edge15" class="edge"><title>wallRadar[&#45;0.7,0.7]&#45;&gt; Move Left/Right</title>
<path fill="none" stroke="green" stroke-width="0.377861" stroke-dasharray="1,5" d="M804.499,-466.62C801.095,-455.25 795.178,-433.723 793,-414.884 789.309,-382.949 790.319,-347.259 792.565,-317.561"/>
<polygon fill="green" stroke="green" stroke-width="0.377861" points="796.075,-317.575 793.405,-307.323 789.099,-317.003 796.075,-317.575"/>
</g>
<!-- 8154 -->
<g id="node32" class="node"><title>8154</title>
<ellipse fill="white" stroke="black" cx="827" cy="-390.136" rx="25" ry="25"/>
<text text-anchor="middle" x="827" y="-387.936" font-family="Times,serif" font-size="9.00">8154</text>
</g>
<!-- wallRadar[&#45;0.7,0.7]&#45;&gt;8154 -->
<g id="edge44" class="edge"><title>wallRadar[&#45;0.7,0.7]&#45;&gt;8154</title>
<path fill="none" stroke="green" stroke-width="0.369996" d="M808.918,-466.627C811.26,-456.85 815.368,-439.698 819.077,-424.212"/>
<polygon fill="green" stroke="green" stroke-width="0.369996" points="822.509,-424.91 821.435,-414.37 815.702,-423.28 822.509,-424.91"/>
</g>
<!-- wallRadar[&#45;0.7,&#45;0.7] -->
<g id="node7" class="node"><title>wallRadar[&#45;0.7,&#45;0.7]</title>
<polygon fill="lightgray" stroke="black" points="510.5,-399.136 421.5,-399.136 421.5,-381.136 510.5,-381.136 510.5,-399.136"/>
<text text-anchor="middle" x="466" y="-387.936" font-family="Times,serif" font-size="9.00">wallRadar[&#45;0.7,&#45;0.7]</text>
</g>
<!-- wallRadar[&#45;0.7,&#45;0.7]&#45;&gt;Move Forward/Backward -->
<g id="edge28" class="edge"><title>wallRadar[&#45;0.7,&#45;0.7]&#45;&gt;Move Forward/Backward</title>
<path fill="none" stroke="red" stroke-width="0.554533" d="M455.637,-381.046C437.068,-366.551 396.698,-335.039 360.704,-306.942"/>
<polygon fill="red" stroke="red" stroke-width="0.554533" points="362.66,-304.029 352.624,-300.635 358.353,-309.547 362.66,-304.029"/>
</g>
<!-- wallRadar[&#45;0.7,&#45;0.7]&#45;&gt; Move Left/Right -->
<g id="edge33" class="edge"><title>wallRadar[&#45;0.7,&#45;0.7]&#45;&gt; Move Left/Right</title>
<path fill="none" stroke="green" stroke-width="0.394631" stroke-dasharray="1,5" d="M485.893,-381.046C534.916,-361.111 663.097,-308.985 739.713,-277.829"/>
<polygon fill="green" stroke="green" stroke-width="0.394631" points="741.305,-280.959 749.25,-273.95 738.668,-274.475 741.305,-280.959"/>
</g>
<!-- wallRadar[0.7,&#45;0.7] -->
<g id="node8" class="node"><title>wallRadar[0.7,&#45;0.7]</title>
<polygon fill="lightgray" stroke="black" points="1393,-399.136 1307,-399.136 1307,-381.136 1393,-381.136 1393,-399.136"/>
<text text-anchor="middle" x="1350" y="-387.936" font-family="Times,serif" font-size="9.00">wallRadar[0.7,&#45;0.7]</text>
</g>
<!-- wallRadar[0.7,&#45;0.7]&#45;&gt;Shoot -->
<g id="edge43" class="edge"><title>wallRadar[0.7,&#45;0.7]&#45;&gt;Shoot</title>
<path fill="none" stroke="green" stroke-width="0.196822" d="M1345.34,-380.962C1339.25,-369.754 1328.9,-348.79 1325,-329.387 1311.51,-262.217 1302.71,-240.022 1325,-175.238 1342.18,-125.308 1383.97,-79.3176 1412.15,-52.4278"/>
<polygon fill="green" stroke="green" stroke-width="0.196822" points="1414.8,-54.749 1419.71,-45.3626 1410.02,-49.6358 1414.8,-54.749"/>
</g>
<!-- wallRadar[0.7,&#45;0.7]&#45;&gt; Move Left/Right -->
<g id="edge35" class="edge"><title>wallRadar[0.7,&#45;0.7]&#45;&gt; Move Left/Right</title>
<path fill="none" stroke="green" stroke-width="0.989179" stroke-dasharray="1,5" d="M1334.41,-380.988C1324.26,-375.94 1310.6,-369.632 1298,-365.387 1146.27,-314.28 960.668,-279.489 864.574,-263.439"/>
<polygon fill="green" stroke="green" stroke-width="0.989179" points="864.87,-259.94 854.433,-261.759 863.726,-266.846 864.87,-259.94"/>
</g>
<!-- wallRadar[0.7,&#45;0.7]&#45;&gt;Turn left/right -->
<g id="edge1" class="edge"><title>wallRadar[0.7,&#45;0.7]&#45;&gt;Turn left/right</title>
<path fill="none" stroke="green" stroke-width="1.52363" stroke-dasharray="1,5" d="M1365.68,-381.102C1384.82,-370.809 1417.54,-351.619 1441,-329.387 1450.11,-320.752 1458.78,-310.48 1466.46,-300.322"/>
<polygon fill="green" stroke="green" stroke-width="1.52363" points="1469.3,-302.367 1472.39,-292.233 1463.65,-298.226 1469.3,-302.367"/>
</g>
<!-- enemyRadar[RightBack] -->
<g id="node9" class="node"><title>enemyRadar[RightBack]</title>
<polygon fill="lightgray" stroke="black" points="1734,-399.136 1630,-399.136 1630,-381.136 1734,-381.136 1734,-399.136"/>
<text text-anchor="middle" x="1682" y="-387.936" font-family="Times,serif" font-size="9.00">enemyRadar[RightBack]</text>
</g>
<!-- enemyRadar[RightBack]&#45;&gt;Shoot -->
<g id="edge30" class="edge"><title>enemyRadar[RightBack]&#45;&gt;Shoot</title>
<path fill="none" stroke="green" stroke-width="0.797028" stroke-dasharray="1,5" d="M1663.71,-381.123C1644.08,-371.592 1613.38,-353.839 1596,-329.387 1554.8,-271.409 1584.77,-238.872 1553,-175.238 1529.7,-128.57 1490.72,-82.0293 1465.18,-54.0945"/>
<polygon fill="green" stroke="green" stroke-width="0.797028" points="1467.72,-51.6857 1458.36,-46.7241 1462.58,-56.4405 1467.72,-51.6857"/>
</g>
<!-- enemyRadar[RightBack]&#45;&gt;Turn left/right -->
<g id="edge2" class="edge"><title>enemyRadar[RightBack]&#45;&gt;Turn left/right</title>
<path fill="none" stroke="red" stroke-width="0.414145" d="M1662.67,-381.073C1632.35,-368.222 1575.3,-343.148 1558,-329.387 1547.44,-320.989 1537.55,-310.448 1528.92,-299.912"/>
<polygon fill="red" stroke="red" stroke-width="0.414145" points="1531.53,-297.569 1522.59,-291.891 1526.04,-301.908 1531.53,-297.569"/>
</g>
<!-- enemyRadar[LeftBack] -->
<g id="node10" class="node"><title>enemyRadar[LeftBack]</title>
<polygon fill="lightgray" stroke="black" points="1775.5,-123.489 1676.5,-123.489 1676.5,-105.489 1775.5,-105.489 1775.5,-123.489"/>
<text text-anchor="middle" x="1726" y="-112.289" font-family="Times,serif" font-size="9.00">enemyRadar[LeftBack]</text>
</g>
<!-- enemyRadar[LeftBack]&#45;&gt;Shoot -->
<g id="edge23" class="edge"><title>enemyRadar[LeftBack]&#45;&gt;Shoot</title>
<path fill="none" stroke="green" stroke-width="0.181563" stroke-dasharray="1,5" d="M1705.69,-105.457C1693.18,-100.635 1676.77,-94.5289 1662,-89.7401 1596.99,-68.6606 1519.9,-48.1673 1475.8,-36.8619"/>
<polygon fill="green" stroke="green" stroke-width="0.181563" points="1476.4,-33.4044 1465.85,-34.3245 1474.67,-40.1873 1476.4,-33.4044"/>
</g>
<!-- enemyRadar[Right45ø] -->
<g id="node11" class="node"><title>enemyRadar[Right45ø]</title>
<polygon fill="lightgray" stroke="black" points="1852,-399.136 1752,-399.136 1752,-381.136 1852,-381.136 1852,-399.136"/>
<text text-anchor="middle" x="1802" y="-387.936" font-family="Times,serif" font-size="9.00">enemyRadar[Right45ø]</text>
</g>
<!-- enemyRadar[Right45ø]&#45;&gt;Shoot -->
<g id="edge34" class="edge"><title>enemyRadar[Right45ø]&#45;&gt;Shoot</title>
<path fill="none" stroke="red" stroke-width="0.103297" d="M1782.99,-381.125C1771.48,-376.367 1756.48,-370.32 1743,-365.387 1695.09,-347.853 1669.44,-366.087 1634,-329.387 1584.42,-278.046 1619.91,-239.566 1589,-175.238 1568.89,-133.396 1561.9,-122.493 1529,-89.7401 1512.08,-72.8941 1490.07,-57.5484 1472.17,-46.354"/>
<polygon fill="red" stroke="red" stroke-width="0.103297" points="1473.59,-43.121 1463.23,-40.8926 1469.94,-49.0938 1473.59,-43.121"/>
</g>
<!-- enemyRadar[Right45ø]&#45;&gt;Turn left/right -->
<g id="edge26" class="edge"><title>enemyRadar[Right45ø]&#45;&gt;Turn left/right</title>
<path fill="none" stroke="red" stroke-width="0.563993" d="M1783.91,-381.073C1772.36,-376.121 1756.98,-369.887 1743,-365.387 1678.97,-344.776 1656.64,-358.504 1596,-329.387 1575.68,-319.63 1555.54,-305.248 1538.77,-291.608"/>
<polygon fill="red" stroke="red" stroke-width="0.563993" points="1540.76,-288.704 1530.83,-284.995 1536.28,-294.083 1540.76,-288.704"/>
</g>
<!-- enemyRadar[Left45ø] -->
<g id="node12" class="node"><title>enemyRadar[Left45ø]</title>
<polygon fill="lightgray" stroke="black" points="1544.5,-399.136 1449.5,-399.136 1449.5,-381.136 1544.5,-381.136 1544.5,-399.136"/>
<text text-anchor="middle" x="1497" y="-387.936" font-family="Times,serif" font-size="9.00">enemyRadar[Left45ø]</text>
</g>
<!-- enemyRadar[Left45ø]&#45;&gt;Turn left/right -->
<g id="edge20" class="edge"><title>enemyRadar[Left45ø]&#45;&gt;Turn left/right</title>
<path fill="none" stroke="green" stroke-width="0.799709" d="M1497,-381.046C1497,-366.968 1497,-336.837 1497,-309.374"/>
<polygon fill="green" stroke="green" stroke-width="0.799709" points="1500.5,-309.018 1497,-299.018 1493.5,-309.018 1500.5,-309.018"/>
</g>
<!-- enemyRadar[RightFront20ø] -->
<g id="node13" class="node"><title>enemyRadar[RightFront20ø]</title>
<polygon fill="lightgray" stroke="black" points="598.5,-484.633 479.5,-484.633 479.5,-466.633 598.5,-466.633 598.5,-484.633"/>
<text text-anchor="middle" x="539" y="-473.433" font-family="Times,serif" font-size="9.00">enemyRadar[RightFront20ø]</text>
</g>
<!-- enemyRadar[RightFront20ø]&#45;&gt;Move Forward/Backward -->
<g id="edge11" class="edge"><title>enemyRadar[RightFront20ø]&#45;&gt;Move Forward/Backward</title>
<path fill="none" stroke="green" stroke-width="1.0671" stroke-dasharray="1,5" d="M479.322,-472.813C392.858,-468.777 239.311,-455.878 205,-414.884 179.16,-384.012 200.03,-344.248 227.792,-311.894"/>
<polygon fill="green" stroke="green" stroke-width="1.0671" points="230.548,-314.061 234.581,-304.264 225.319,-309.408 230.548,-314.061"/>
</g>
<!-- enemyRadar[RightFront20ø]&#45;&gt; Move Left/Right -->
<g id="edge14" class="edge"><title>enemyRadar[RightFront20ø]&#45;&gt; Move Left/Right</title>
<path fill="none" stroke="green" stroke-width="0.120647" stroke-dasharray="1,5" d="M538.046,-466.511C536.2,-446.917 534.205,-396.387 558,-365.387 601.416,-308.823 680.174,-279.755 736.04,-265.571"/>
<polygon fill="green" stroke="green" stroke-width="0.120647" points="736.961,-268.95 745.843,-263.175 735.298,-262.15 736.961,-268.95"/>
</g>
<!-- 7955 -->
<g id="node29" class="node"><title>7955</title>
<ellipse fill="white" stroke="black" cx="683" cy="-390.136" rx="25" ry="25"/>
<text text-anchor="middle" x="683" y="-387.936" font-family="Times,serif" font-size="9.00">7955</text>
</g>
<!-- enemyRadar[RightFront20ø]&#45;&gt;7955 -->
<g id="edge40" class="edge"><title>enemyRadar[RightFront20ø]&#45;&gt;7955</title>
<path fill="none" stroke="red" stroke-width="0.634975" d="M555.352,-466.479C577.125,-455.459 616.65,-434.881 649,-414.884 650.891,-413.715 652.82,-412.483 654.751,-411.22"/>
<polygon fill="red" stroke="red" stroke-width="0.634975" points="656.78,-414.073 663.114,-405.58 652.866,-408.269 656.78,-414.073"/>
</g>
<!-- enemyRadar[LeftFront20ø] -->
<g id="node14" class="node"><title>enemyRadar[LeftFront20ø]</title>
<polygon fill="lightgray" stroke="black" points="1984,-399.136 1870,-399.136 1870,-381.136 1984,-381.136 1984,-399.136"/>
<text text-anchor="middle" x="1927" y="-387.936" font-family="Times,serif" font-size="9.00">enemyRadar[LeftFront20ø]</text>
</g>
<!-- enemyRadar[LeftFront20ø]&#45;&gt;Shoot -->
<g id="edge13" class="edge"><title>enemyRadar[LeftFront20ø]&#45;&gt;Shoot</title>
<path fill="none" stroke="green" stroke-width="0.947698" stroke-dasharray="1,5" d="M1918.59,-380.945C1880.28,-343.891 1717.44,-189.445 1564,-89.7401 1535.02,-70.9093 1499.52,-53.7308 1473.94,-42.2795"/>
<polygon fill="green" stroke="green" stroke-width="0.947698" points="1475.22,-39.018 1464.66,-38.1795 1472.39,-45.4213 1475.22,-39.018"/>
</g>
<!-- enemyRadar[LeftFront20ø]&#45;&gt;Turn left/right -->
<g id="edge31" class="edge"><title>enemyRadar[LeftFront20ø]&#45;&gt;Turn left/right</title>
<path fill="none" stroke="green" stroke-width="1.94816" d="M1907.66,-381.088C1894.67,-375.951 1877.04,-369.506 1861,-365.387 1762.06,-339.982 1730.57,-362.689 1634,-329.387 1602.37,-318.478 1569.5,-300.49 1543.9,-284.744"/>
<polygon fill="green" stroke="green" stroke-width="1.94816" points="1545.49,-281.613 1535.16,-279.283 1541.78,-287.55 1545.49,-281.613"/>
</g>
<!-- enemyRadar[RightFront15ø] -->
<g id="node15" class="node"><title>enemyRadar[RightFront15ø]</title>
<polygon fill="lightgray" stroke="black" points="1156.5,-399.136 1037.5,-399.136 1037.5,-381.136 1156.5,-381.136 1156.5,-399.136"/>
<text text-anchor="middle" x="1097" y="-387.936" font-family="Times,serif" font-size="9.00">enemyRadar[RightFront15ø]</text>
</g>
<!-- enemyRadar[RightFront15ø]&#45;&gt;Shoot -->
<g id="edge5" class="edge"><title>enemyRadar[RightFront15ø]&#45;&gt;Shoot</title>
<path fill="none" stroke="red" stroke-width="0.367532" d="M1100.45,-380.895C1117.03,-342.306 1192.25,-177.646 1304,-89.7401 1334.46,-65.7825 1375.68,-48.7173 1404.73,-38.6587"/>
<polygon fill="red" stroke="red" stroke-width="0.367532" points="1406.1,-41.8928 1414.46,-35.3932 1403.87,-35.2565 1406.1,-41.8928"/>
</g>
<!-- enemyRadar[RightFront15ø]&#45;&gt;Move Forward/Backward -->
<g id="edge12" class="edge"><title>enemyRadar[RightFront15ø]&#45;&gt;Move Forward/Backward</title>
<path fill="none" stroke="green" stroke-width="0.941055" d="M1047.94,-381.106C978.478,-369.717 847.506,-348.167 736,-329.387 611.431,-308.407 467.298,-283.616 377.881,-268.175"/>
<polygon fill="green" stroke="green" stroke-width="0.941055" points="378.241,-264.686 367.791,-266.433 377.049,-271.584 378.241,-264.686"/>
</g>
<!-- enemyRadar[RightFront15ø]&#45;&gt; Move Left/Right -->
<g id="edge10" class="edge"><title>enemyRadar[RightFront15ø]&#45;&gt; Move Left/Right</title>
<path fill="none" stroke="red" stroke-width="1.07981" stroke-dasharray="1,5" d="M1079.31,-381.046C1036.91,-361.655 927.915,-311.81 859.295,-280.429"/>
<polygon fill="red" stroke="red" stroke-width="1.07981" points="860.441,-277.105 849.892,-276.129 857.53,-283.47 860.441,-277.105"/>
</g>
<!-- enemyRadar[RightFront15ø]&#45;&gt;Turn left/right -->
<g id="edge21" class="edge"><title>enemyRadar[RightFront15ø]&#45;&gt;Turn left/right</title>
<path fill="none" stroke="red" stroke-width="0.404637" stroke-dasharray="1,5" d="M1116.91,-381.086C1130.53,-375.88 1149.1,-369.358 1166,-365.387 1286,-337.186 1334.85,-392.042 1441,-329.387 1452.14,-322.809 1461.74,-313.059 1469.68,-302.717"/>
<polygon fill="red" stroke="red" stroke-width="0.404637" points="1472.7,-304.509 1475.69,-294.345 1467.02,-300.426 1472.7,-304.509"/>
</g>
<!-- enemyRadar[LeftFront15ø] -->
<g id="node16" class="node"><title>enemyRadar[LeftFront15ø]</title>
<polygon fill="lightgray" stroke="black" points="1289,-399.136 1175,-399.136 1175,-381.136 1289,-381.136 1289,-399.136"/>
<text text-anchor="middle" x="1232" y="-387.936" font-family="Times,serif" font-size="9.00">enemyRadar[LeftFront15ø]</text>
</g>
<!-- enemyRadar[LeftFront15ø]&#45;&gt;Shoot -->
<g id="edge4" class="edge"><title>enemyRadar[LeftFront15ø]&#45;&gt;Shoot</title>
<path fill="none" stroke="red" stroke-width="0.590539" d="M1232.9,-380.762C1237.36,-342.918 1260.06,-185.554 1338,-89.7401 1355.76,-67.9072 1383.41,-51.8198 1405.44,-41.5301"/>
<polygon fill="red" stroke="red" stroke-width="0.590539" points="1407.1,-44.6209 1414.8,-37.3431 1404.24,-38.2308 1407.1,-44.6209"/>
</g>
<!-- enemyRadar[LeftFront15ø]&#45;&gt; Move Left/Right -->
<g id="edge36" class="edge"><title>enemyRadar[LeftFront15ø]&#45;&gt; Move Left/Right</title>
<path fill="none" stroke="green" stroke-width="0.324655" d="M1210.05,-381.09C1197.01,-376.375 1180.12,-370.384 1165,-365.387 1059.51,-330.512 935.681,-293.259 862.755,-271.694"/>
<polygon fill="green" stroke="green" stroke-width="0.324655" points="863.392,-268.232 852.81,-268.757 861.41,-274.946 863.392,-268.232"/>
</g>
<!-- enemyRadar[RightFront7.5ø] -->
<g id="node17" class="node"><title>enemyRadar[RightFront7.5ø]</title>
<polygon fill="lightgray" stroke="black" points="1012,-554.382 890,-554.382 890,-536.382 1012,-536.382 1012,-554.382"/>
<text text-anchor="middle" x="951" y="-543.182" font-family="Times,serif" font-size="9.00">enemyRadar[RightFront7.5ø]</text>
</g>
<!-- enemyRadar[LeftFront7.5ø] -->
<g id="node18" class="node"><title>enemyRadar[LeftFront7.5ø]</title>
<polygon fill="lightgray" stroke="black" points="1273,-484.633 1157,-484.633 1157,-466.633 1273,-466.633 1273,-484.633"/>
<text text-anchor="middle" x="1215" y="-473.433" font-family="Times,serif" font-size="9.00">enemyRadar[LeftFront7.5ø]</text>
</g>
<!-- enemyRadar[LeftFront7.5ø]&#45;&gt;Move Forward/Backward -->
<g id="edge27" class="edge"><title>enemyRadar[LeftFront7.5ø]&#45;&gt;Move Forward/Backward</title>
<path fill="none" stroke="green" stroke-width="0.350195" stroke-dasharray="1,5" d="M1156.84,-469.426C1098.69,-464.318 1006.7,-456.498 927,-450.884 858.608,-446.067 360.881,-461.921 311,-414.884 290.594,-395.642 283.16,-367.016 281.705,-339.182"/>
<polygon fill="green" stroke="green" stroke-width="0.350195" points="285.199,-338.882 281.427,-328.982 278.201,-339.073 285.199,-338.882"/>
</g>
<!-- enemyRadar[LeftFront7.5ø]&#45;&gt; Move Left/Right -->
<g id="edge16" class="edge"><title>enemyRadar[LeftFront7.5ø]&#45;&gt; Move Left/Right</title>
<path fill="none" stroke="red" stroke-width="0.11953" d="M1174.87,-466.58C1135.72,-457.647 1075.31,-440.956 1028,-414.884 998.022,-398.365 996.417,-385.877 969,-365.387 932.111,-337.818 888.795,-309.16 855.252,-287.725"/>
<polygon fill="red" stroke="red" stroke-width="0.11953" points="856.821,-284.575 846.506,-282.158 853.062,-290.48 856.821,-284.575"/>
</g>
<!-- enemyRadar[LeftFront7.5ø]&#45;&gt;Turn left/right -->
<g id="edge24" class="edge"><title>enemyRadar[LeftFront7.5ø]&#45;&gt;Turn left/right</title>
<path fill="none" stroke="green" stroke-width="0.316628" d="M1273.29,-467.134C1313.04,-459.534 1364.99,-444.461 1402,-414.884 1421.32,-399.444 1451.19,-345.376 1472.27,-303.996"/>
<polygon fill="green" stroke="green" stroke-width="0.316628" points="1475.51,-305.351 1476.89,-294.847 1469.26,-302.193 1475.51,-305.351"/>
</g>
<!-- 8787 -->
<g id="node31" class="node"><title>8787</title>
<ellipse fill="white" stroke="black" cx="1587" cy="-390.136" rx="25" ry="25"/>
<text text-anchor="middle" x="1587" y="-387.936" font-family="Times,serif" font-size="9.00">8787</text>
</g>
<!-- enemyRadar[LeftFront7.5ø]&#45;&gt;8787 -->
<g id="edge49" class="edge"><title>enemyRadar[LeftFront7.5ø]&#45;&gt;8787</title>
<path fill="none" stroke="red" stroke-width="0.216917" d="M1273.03,-471.985C1342.1,-467.135 1459.81,-453.447 1553,-414.884 1555.11,-414.012 1557.22,-412.992 1559.29,-411.874"/>
<polygon fill="red" stroke="red" stroke-width="0.216917" points="1561.37,-414.704 1568.07,-406.499 1557.72,-408.733 1561.37,-414.704"/>
</g>
<!-- enemyRadar[RightFront2.5ø] -->
<g id="node19" class="node"><title>enemyRadar[RightFront2.5ø]</title>
<polygon fill="lightgray" stroke="black" points="1916,-123.489 1794,-123.489 1794,-105.489 1916,-105.489 1916,-123.489"/>
<text text-anchor="middle" x="1855" y="-112.289" font-family="Times,serif" font-size="9.00">enemyRadar[RightFront2.5ø]</text>
</g>
<!-- enemyRadar[RightFront2.5ø]&#45;&gt;Shoot -->
<g id="edge38" class="edge"><title>enemyRadar[RightFront2.5ø]&#45;&gt;Shoot</title>
<path fill="none" stroke="green" stroke-width="0.319094" stroke-dasharray="1,5" d="M1833.49,-105.389C1819.54,-100.36 1800.87,-94.0554 1784,-89.7401 1673.69,-61.5288 1540.27,-41.4337 1476.89,-32.7136"/>
<polygon fill="green" stroke="green" stroke-width="0.319094" points="1476.99,-29.1953 1466.61,-31.3151 1476.04,-36.1314 1476.99,-29.1953"/>
</g>
<!-- enemyRadar[LeftFront2.5ø] -->
<g id="node20" class="node"><title>enemyRadar[LeftFront2.5ø]</title>
<polygon fill="lightgray" stroke="black" points="872,-554.382 756,-554.382 756,-536.382 872,-536.382 872,-554.382"/>
<text text-anchor="middle" x="814" y="-543.182" font-family="Times,serif" font-size="9.00">enemyRadar[LeftFront2.5ø]</text>
</g>
<!-- enemyRadar[LeftFront2.5ø]&#45;&gt; Move Left/Right -->
<g id="edge17" class="edge"><title>enemyRadar[LeftFront2.5ø]&#45;&gt; Move Left/Right</title>
<path fill="none" stroke="green" stroke-width="0.61887" stroke-dasharray="1,5" d="M795.601,-536.375C781.627,-529.187 763.423,-517.171 755,-500.382 724.815,-440.215 747.405,-362.757 770.094,-310.748"/>
<polygon fill="green" stroke="green" stroke-width="0.61887" points="773.414,-311.899 774.319,-301.342 767.028,-309.03 773.414,-311.899"/>
</g>
<!-- 8391 -->
<g id="node28" class="node"><title>8391</title>
<ellipse fill="white" stroke="black" cx="893" cy="-475.633" rx="25" ry="25"/>
<text text-anchor="middle" x="893" y="-473.433" font-family="Times,serif" font-size="9.00">8391</text>
</g>
<!-- enemyRadar[LeftFront2.5ø]&#45;&gt;8391 -->
<g id="edge46" class="edge"><title>enemyRadar[LeftFront2.5ø]&#45;&gt;8391</title>
<path fill="none" stroke="green" stroke-width="0.142544" d="M823.373,-536.344C833.994,-527.235 851.771,-511.99 866.703,-499.184"/>
<polygon fill="green" stroke="green" stroke-width="0.142544" points="869.331,-501.542 874.643,-492.376 864.774,-496.229 869.331,-501.542"/>
</g>
<!-- enemyRadar[Front7Ø] -->
<g id="node21" class="node"><title>enemyRadar[Front7Ø]</title>
<polygon fill="lightgray" stroke="black" points="1432,-261.312 1334,-261.312 1334,-243.312 1432,-243.312 1432,-261.312"/>
<text text-anchor="middle" x="1383" y="-250.112" font-family="Times,serif" font-size="9.00">enemyRadar[Front7Ø]</text>
</g>
<!-- 7188 -->
<g id="node30" class="node"><title>7188</title>
<ellipse fill="white" stroke="black" cx="1440" cy="-114.489" rx="25" ry="25"/>
<text text-anchor="middle" x="1440" y="-112.289" font-family="Times,serif" font-size="9.00">7188</text>
</g>
<!-- enemyRadar[Front7Ø]&#45;&gt;7188 -->
<g id="edge42" class="edge"><title>enemyRadar[Front7Ø]&#45;&gt;7188</title>
<path fill="none" stroke="red" stroke-width="0.164232" d="M1386.39,-243.223C1394.17,-224.694 1413.62,-178.358 1426.82,-146.896"/>
<polygon fill="red" stroke="red" stroke-width="0.164232" points="1430.05,-148.231 1430.7,-137.656 1423.6,-145.523 1430.05,-148.231"/>
</g>
<!-- OnTarget -->
<g id="node22" class="node"><title>OnTarget</title>
<polygon fill="lightgray" stroke="black" points="264,-399.136 214,-399.136 214,-381.136 264,-381.136 264,-399.136"/>
<text text-anchor="middle" x="239" y="-387.936" font-family="Times,serif" font-size="9.00">OnTarget</text>
</g>
<!-- OnTarget&#45;&gt;Move Forward/Backward -->
<g id="edge22" class="edge"><title>OnTarget&#45;&gt;Move Forward/Backward</title>
<path fill="none" stroke="red" stroke-width="0.146236" d="M242.157,-381.046C246.025,-371.132 253,-353.257 260.531,-333.959"/>
<polygon fill="red" stroke="red" stroke-width="0.146236" points="263.886,-334.988 264.261,-324.4 257.365,-332.444 263.886,-334.988"/>
</g>
<!-- bias -->
<g id="node23" class="node"><title>bias</title>
<polygon fill="lightgray" stroke="black" points="1061.5,-554.382 1030.5,-554.382 1030.5,-536.382 1061.5,-536.382 1061.5,-554.382"/>
<text text-anchor="middle" x="1046" y="-543.182" font-family="Times,serif" font-size="9.00">bias</text>
</g>
<!-- Turn left/right&#45;&gt;7188 -->
<g id="edge39" class="edge"><title>Turn left/right&#45;&gt;7188</title>
<path fill="none" stroke="red" stroke-width="0.209151" stroke-dasharray="1,5" d="M1479.28,-209.081C1470.86,-189.014 1460.96,-165.439 1453.21,-146.97"/>
<polygon fill="red" stroke="red" stroke-width="0.209151" points="1456.36,-145.423 1449.26,-137.557 1449.9,-148.132 1456.36,-145.423"/>
</g>
<!-- 8391&#45;&gt; Move Left/Right -->
<g id="edge47" class="edge"><title>8391&#45;&gt; Move Left/Right</title>
<path fill="none" stroke="red" stroke-width="0.259054" stroke-dasharray="1,5" d="M912.96,-460.73C926.523,-449.981 943.339,-433.774 951,-414.884 959.267,-394.498 960.887,-385.039 951,-365.387 931.806,-327.237 892.801,-298.813 859.243,-280.135"/>
<polygon fill="red" stroke="red" stroke-width="0.259054" points="860.858,-277.029 850.396,-275.361 857.534,-283.19 860.858,-277.029"/>
</g>
<!-- 8391&#45;&gt;8154 -->
<g id="edge48" class="edge"><title>8391&#45;&gt;8154</title>
<path fill="none" stroke="red" stroke-width="0.735076" d="M878.024,-455.686C869.248,-444.584 858.018,-430.377 848.33,-418.12"/>
<polygon fill="red" stroke="red" stroke-width="0.735076" points="850.864,-415.682 841.917,-410.007 845.373,-420.023 850.864,-415.682"/>
</g>
<!-- 7955&#45;&gt; Move Left/Right -->
<g id="edge41" class="edge"><title>7955&#45;&gt; Move Left/Right</title>
<path fill="none" stroke="red" stroke-width="0.26854" d="M698.779,-370.818C713.863,-353.307 737.279,-326.124 757.791,-302.311"/>
<polygon fill="red" stroke="red" stroke-width="0.26854" points="760.46,-304.576 764.335,-294.715 755.157,-300.007 760.46,-304.576"/>
</g>
<!-- 7188&#45;&gt;Shoot -->
<g id="edge37" class="edge"><title>7188&#45;&gt;Shoot</title>
<path fill="none" stroke="red" stroke-width="0.319905" d="M1440,-89.6392C1440,-81.7595 1440,-72.8058 1440,-64.2085"/>
<polygon fill="red" stroke="red" stroke-width="0.319905" points="1443.5,-63.9946 1440,-53.9946 1436.5,-63.9946 1443.5,-63.9946"/>
</g>
<!-- 8787&#45;&gt;Turn left/right -->
<g id="edge50" class="edge"><title>8787&#45;&gt;Turn left/right</title>
<path fill="none" stroke="green" stroke-width="0.511546" stroke-dasharray="1,5" d="M1573.72,-369.094C1561.74,-351.021 1543.67,-323.744 1528.07,-300.205"/>
<polygon fill="green" stroke="green" stroke-width="0.511546" points="1530.9,-298.129 1522.45,-291.726 1525.06,-301.995 1530.9,-298.129"/>
</g>
<!-- 8154&#45;&gt; Move Left/Right -->
<g id="edge45" class="edge"><title>8154&#45;&gt; Move Left/Right</title>
<path fill="none" stroke="green" stroke-width="1.37173" stroke-dasharray="1,5" d="M822.359,-365.787C819.649,-352.155 816.086,-334.234 812.604,-316.715"/>
<polygon fill="green" stroke="green" stroke-width="1.37173" points="815.952,-315.608 810.57,-306.482 809.087,-316.973 815.952,-315.608"/>
</g>
</g>
</svg>
