<?xml version="1.0" encoding="UTF-8" standalone="no"?>
<!DOCTYPE svg PUBLIC "-//W3C//DTD SVG 1.1//EN"
 "http://www.w3.org/Graphics/SVG/1.1/DTD/svg11.dtd">
<!-- Generated by graphviz version 2.38.0 (20140413.2041)
 -->
<!-- Title: %3 Pages: 1 -->
<svg width="2470pt" height="302pt"
 viewBox="0.00 0.00 2469.65 301.65" xmlns="http://www.w3.org/2000/svg" xmlns:xlink="http://www.w3.org/1999/xlink">
<g id="graph0" class="graph" transform="scale(1 1) rotate(0) translate(4 297.647)">
<title>%3</title>
<polygon fill="white" stroke="none" points="-4,4 -4,-297.647 2465.65,-297.647 2465.65,4 -4,4"/>
<!-- wallRadar[1,0] -->
<g id="node1" class="node"><title>wallRadar[1,0]</title>
<polygon fill="lightgray" stroke="black" points="1233.36,-223.898 1163.36,-223.898 1163.36,-205.898 1233.36,-205.898 1233.36,-223.898"/>
<text text-anchor="middle" x="1198.36" y="-212.698" font-family="Times,serif" font-size="9.00">wallRadar[1,0]</text>
</g>
<!-- Shoot -->
<g id="node24" class="node"><title>Shoot</title>
<ellipse fill="lightblue" stroke="black" cx="600.361" cy="-77.0746" rx="26.7407" ry="26.7407"/>
<text text-anchor="middle" x="600.361" y="-74.8746" font-family="Times,serif" font-size="9.00">Shoot</text>
</g>
<!-- wallRadar[1,0]&#45;&gt;Shoot -->
<g id="edge44" class="edge"><title>wallRadar[1,0]&#45;&gt;Shoot</title>
<path fill="none" stroke="red" stroke-width="1.04605" d="M1185.74,-205.784C1177.19,-200.619 1165.46,-194.167 1154.36,-190.149 966.64,-122.206 727.402,-91.4709 637.085,-81.715"/>
<polygon fill="red" stroke="red" stroke-width="1.04605" points="637.383,-78.2271 627.07,-80.6539 636.646,-85.1881 637.383,-78.2271"/>
</g>
<!-- Move Forward/Backward -->
<g id="node25" class="node"><title>Move Forward/Backward</title>
<ellipse fill="lightblue" stroke="black" cx="1373.36" cy="-77.0746" rx="77.1494" ry="77.1494"/>
<text text-anchor="middle" x="1373.36" y="-74.8746" font-family="Times,serif" font-size="9.00">Move Forward/Backward</text>
</g>
<!-- wallRadar[1,0]&#45;&gt;Move Forward/Backward -->
<g id="edge42" class="edge"><title>wallRadar[1,0]&#45;&gt;Move Forward/Backward</title>
<path fill="none" stroke="green" stroke-width="0.223174" stroke-dasharray="1,5" d="M1208.78,-205.808C1227.53,-191.261 1268.36,-159.57 1304.66,-131.396"/>
<polygon fill="green" stroke="green" stroke-width="0.223174" points="1307.05,-133.969 1312.81,-125.073 1302.76,-128.439 1307.05,-133.969"/>
</g>
<!--  Move Left/Right -->
<g id="node26" class="node"><title> Move Left/Right</title>
<ellipse fill="lightblue" stroke="black" cx="2022.36" cy="-77.0746" rx="55.3091" ry="55.3091"/>
<text text-anchor="middle" x="2022.36" y="-74.8746" font-family="Times,serif" font-size="9.00"> Move Left/Right</text>
</g>
<!-- wallRadar[1,0]&#45;&gt; Move Left/Right -->
<g id="edge27" class="edge"><title>wallRadar[1,0]&#45;&gt; Move Left/Right</title>
<path fill="none" stroke="red" stroke-width="0.178928" d="M1210.08,-205.76C1218.62,-200.3 1230.68,-193.512 1242.36,-190.149 1476.06,-122.851 1549.55,-200.098 1788.36,-154.149 1848.67,-142.545 1915.05,-119.98 1961.65,-102.426"/>
<polygon fill="red" stroke="red" stroke-width="0.178928" points="1963.18,-105.588 1971.29,-98.7622 1960.69,-99.0451 1963.18,-105.588"/>
</g>
<!-- wallRadar[0,1] -->
<g id="node2" class="node"><title>wallRadar[0,1]</title>
<polygon fill="lightgray" stroke="black" points="793.361,-223.898 723.361,-223.898 723.361,-205.898 793.361,-205.898 793.361,-223.898"/>
<text text-anchor="middle" x="758.361" y="-212.698" font-family="Times,serif" font-size="9.00">wallRadar[0,1]</text>
</g>
<!-- wallRadar[0,1]&#45;&gt;Move Forward/Backward -->
<g id="edge43" class="edge"><title>wallRadar[0,1]&#45;&gt;Move Forward/Backward</title>
<path fill="none" stroke="green" stroke-width="1.12722" stroke-dasharray="1,5" d="M770.976,-205.763C779.525,-200.588 791.248,-194.135 802.361,-190.149 968.05,-130.722 1172.71,-100.271 1286.54,-86.8827"/>
<polygon fill="green" stroke="green" stroke-width="1.12722" points="1287.06,-90.3454 1296.59,-85.7167 1286.26,-83.392 1287.06,-90.3454"/>
</g>
<!-- wallRadar[&#45;1,0] -->
<g id="node3" class="node"><title>wallRadar[&#45;1,0]</title>
<polygon fill="lightgray" stroke="black" points="78.8609,-293.647 5.86088,-293.647 5.86088,-275.647 78.8609,-275.647 78.8609,-293.647"/>
<text text-anchor="middle" x="42.3609" y="-282.447" font-family="Times,serif" font-size="9.00">wallRadar[&#45;1,0]</text>
</g>
<!-- wallRadar[&#45;1,0]&#45;&gt;Shoot -->
<g id="edge5" class="edge"><title>wallRadar[&#45;1,0]&#45;&gt;Shoot</title>
<path fill="none" stroke="red" stroke-width="0.236395" stroke-dasharray="1,5" d="M33.3943,-275.586C25.0847,-267.459 13.2883,-254.082 8.36088,-239.647 1.25427,-218.827 -5.67355,-207.09 8.36088,-190.149 79.6974,-104.041 444.783,-83.59 563.215,-79.1874"/>
<polygon fill="red" stroke="red" stroke-width="0.236395" points="563.38,-82.6839 573.25,-78.8313 563.132,-75.6883 563.38,-82.6839"/>
</g>
<!-- Turn left/right -->
<g id="node27" class="node"><title>Turn left/right</title>
<ellipse fill="lightblue" stroke="black" cx="1732.36" cy="-77.0746" rx="46.8387" ry="46.8387"/>
<text text-anchor="middle" x="1732.36" y="-74.8746" font-family="Times,serif" font-size="9.00">Turn left/right</text>
</g>
<!-- wallRadar[&#45;1,0]&#45;&gt;Turn left/right -->
<g id="edge29" class="edge"><title>wallRadar[&#45;1,0]&#45;&gt;Turn left/right</title>
<path fill="none" stroke="red" stroke-width="0.191686" d="M78.9347,-283.123C313.825,-279.702 1601.66,-260.034 1636.36,-239.647 1642.03,-236.318 1678.59,-173.182 1704.91,-126.837"/>
<polygon fill="red" stroke="red" stroke-width="0.191686" points="1707.97,-128.531 1709.86,-118.106 1701.88,-125.079 1707.97,-128.531"/>
</g>
<!-- 4649 -->
<g id="node28" class="node"><title>4649</title>
<ellipse fill="white" stroke="black" cx="42.3609" cy="-214.898" rx="25" ry="25"/>
<text text-anchor="middle" x="42.3609" y="-212.698" font-family="Times,serif" font-size="9.00">4649</text>
</g>
<!-- wallRadar[&#45;1,0]&#45;&gt;4649 -->
<g id="edge52" class="edge"><title>wallRadar[&#45;1,0]&#45;&gt;4649</title>
<path fill="none" stroke="green" stroke-width="0.200404" d="M42.3609,-275.609C42.3609,-269.174 42.3609,-259.676 42.3609,-250.14"/>
<polygon fill="green" stroke="green" stroke-width="0.200404" points="45.861,-249.919 42.3609,-239.919 38.861,-249.919 45.861,-249.919"/>
</g>
<!-- wallRadar[0,&#45;1] -->
<g id="node4" class="node"><title>wallRadar[0,&#45;1]</title>
<polygon fill="lightgray" stroke="black" points="2156.86,-293.647 2083.86,-293.647 2083.86,-275.647 2156.86,-275.647 2156.86,-293.647"/>
<text text-anchor="middle" x="2120.36" y="-282.447" font-family="Times,serif" font-size="9.00">wallRadar[0,&#45;1]</text>
</g>
<!-- wallRadar[0.7,0.7] -->
<g id="node5" class="node"><title>wallRadar[0.7,0.7]</title>
<polygon fill="lightgray" stroke="black" points="1252.86,-293.647 1169.86,-293.647 1169.86,-275.647 1252.86,-275.647 1252.86,-293.647"/>
<text text-anchor="middle" x="1211.36" y="-282.447" font-family="Times,serif" font-size="9.00">wallRadar[0.7,0.7]</text>
</g>
<!-- wallRadar[0.7,0.7]&#45;&gt;Shoot -->
<g id="edge7" class="edge"><title>wallRadar[0.7,0.7]&#45;&gt;Shoot</title>
<path fill="none" stroke="green" stroke-width="0.455028" stroke-dasharray="1,5" d="M1169.64,-281.675C1024.69,-274.728 551.172,-251.19 540.361,-239.647 504.571,-201.433 545.734,-139.978 575.377,-104.903"/>
<polygon fill="green" stroke="green" stroke-width="0.455028" points="578.325,-106.847 582.239,-97.0012 573.039,-102.257 578.325,-106.847"/>
</g>
<!-- wallRadar[0.7,0.7]&#45;&gt;Turn left/right -->
<g id="edge15" class="edge"><title>wallRadar[0.7,0.7]&#45;&gt;Turn left/right</title>
<path fill="none" stroke="red" stroke-width="0.540269" d="M1253.17,-283.889C1385.87,-284.227 1791.12,-281.775 1830.36,-239.647 1866.49,-200.856 1817.97,-146.662 1777.26,-111.965"/>
<polygon fill="red" stroke="red" stroke-width="0.540269" points="1779.44,-109.222 1769.51,-105.509 1774.96,-114.599 1779.44,-109.222"/>
</g>
<!-- 3347 -->
<g id="node29" class="node"><title>3347</title>
<ellipse fill="white" stroke="black" cx="574.361" cy="-214.898" rx="25" ry="25"/>
<text text-anchor="middle" x="574.361" y="-212.698" font-family="Times,serif" font-size="9.00">3347</text>
</g>
<!-- wallRadar[0.7,0.7]&#45;&gt;3347 -->
<g id="edge47" class="edge"><title>wallRadar[0.7,0.7]&#45;&gt;3347</title>
<path fill="none" stroke="green" stroke-width="0.646297" d="M1169.54,-281.708C1042.41,-275.656 665.962,-256.509 613.361,-239.647 609.832,-238.515 606.291,-237.005 602.86,-235.293"/>
<polygon fill="green" stroke="green" stroke-width="0.646297" points="604.557,-232.231 594.121,-230.406 601.141,-238.341 604.557,-232.231"/>
</g>
<!-- 3032 -->
<g id="node31" class="node"><title>3032</title>
<ellipse fill="white" stroke="black" cx="2302.36" cy="-214.898" rx="25" ry="25"/>
<text text-anchor="middle" x="2302.36" y="-212.698" font-family="Times,serif" font-size="9.00">3032</text>
</g>
<!-- wallRadar[0.7,0.7]&#45;&gt;3032 -->
<g id="edge49" class="edge"><title>wallRadar[0.7,0.7]&#45;&gt;3032</title>
<path fill="none" stroke="red" stroke-width="0.545098" d="M1252.89,-283.136C1435.88,-280.721 2165.56,-269.299 2263.36,-239.647 2266.91,-238.571 2270.46,-237.097 2273.9,-235.405"/>
<polygon fill="red" stroke="red" stroke-width="0.545098" points="2275.6,-238.46 2282.64,-230.542 2272.2,-232.342 2275.6,-238.46"/>
</g>
<!-- wallRadar[&#45;0.7,0.7] -->
<g id="node6" class="node"><title>wallRadar[&#45;0.7,0.7]</title>
<polygon fill="lightgray" stroke="black" points="897.361,-223.898 811.361,-223.898 811.361,-205.898 897.361,-205.898 897.361,-223.898"/>
<text text-anchor="middle" x="854.361" y="-212.698" font-family="Times,serif" font-size="9.00">wallRadar[&#45;0.7,0.7]</text>
</g>
<!-- wallRadar[&#45;0.7,0.7]&#45;&gt;Shoot -->
<g id="edge41" class="edge"><title>wallRadar[&#45;0.7,0.7]&#45;&gt;Shoot</title>
<path fill="none" stroke="red" stroke-width="0.533034" d="M839.233,-205.808C798.95,-184.268 688.383,-125.144 632.947,-95.4999"/>
<polygon fill="red" stroke="red" stroke-width="0.533034" points="634.373,-92.2932 623.904,-90.6641 631.072,-98.4661 634.373,-92.2932"/>
</g>
<!-- wallRadar[&#45;0.7,0.7]&#45;&gt;Move Forward/Backward -->
<g id="edge19" class="edge"><title>wallRadar[&#45;0.7,0.7]&#45;&gt;Move Forward/Backward</title>
<path fill="none" stroke="red" stroke-width="0.975668" d="M869.968,-205.811C880.13,-200.787 893.788,-194.484 906.361,-190.149 1036.36,-145.336 1192.67,-111.75 1287.44,-93.5233"/>
<polygon fill="red" stroke="red" stroke-width="0.975668" points="1288.1,-96.9603 1297.27,-91.6461 1286.79,-90.0846 1288.1,-96.9603"/>
</g>
<!-- wallRadar[&#45;0.7,0.7]&#45;&gt;Turn left/right -->
<g id="edge30" class="edge"><title>wallRadar[&#45;0.7,0.7]&#45;&gt;Turn left/right</title>
<path fill="none" stroke="green" stroke-width="0.473478" stroke-dasharray="1,5" d="M868.416,-205.779C878.598,-200.327 892.887,-193.543 906.361,-190.149 1145.2,-129.999 1216.55,-195.427 1459.36,-154.149 1536.99,-140.953 1624.25,-114.525 1678.76,-96.566"/>
<polygon fill="green" stroke="green" stroke-width="0.473478" points="1680.16,-99.7891 1688.55,-93.3164 1677.96,-93.1457 1680.16,-99.7891"/>
</g>
<!-- wallRadar[&#45;0.7,&#45;0.7] -->
<g id="node7" class="node"><title>wallRadar[&#45;0.7,&#45;0.7]</title>
<polygon fill="lightgray" stroke="black" points="2065.86,-293.647 1976.86,-293.647 1976.86,-275.647 2065.86,-275.647 2065.86,-293.647"/>
<text text-anchor="middle" x="2021.36" y="-282.447" font-family="Times,serif" font-size="9.00">wallRadar[&#45;0.7,&#45;0.7]</text>
</g>
<!-- wallRadar[&#45;0.7,&#45;0.7]&#45;&gt;Shoot -->
<g id="edge33" class="edge"><title>wallRadar[&#45;0.7,&#45;0.7]&#45;&gt;Shoot</title>
<path fill="none" stroke="green" stroke-width="0.1491" stroke-dasharray="1,5" d="M1976.58,-282.934C1742.9,-279.129 673.191,-260.587 646.361,-239.647 608.637,-210.205 600.373,-152.133 599.303,-114.224"/>
<polygon fill="green" stroke="green" stroke-width="0.1491" points="602.801,-114.061 599.173,-104.107 595.802,-114.151 602.801,-114.061"/>
</g>
<!-- wallRadar[&#45;0.7,&#45;0.7]&#45;&gt; Move Left/Right -->
<g id="edge25" class="edge"><title>wallRadar[&#45;0.7,&#45;0.7]&#45;&gt; Move Left/Right</title>
<path fill="none" stroke="red" stroke-width="0.481488" stroke-dasharray="1,5" d="M2066.13,-276.843C2069.25,-276.421 2072.35,-276.018 2075.36,-275.647 2115.81,-270.659 2413,-269.844 2440.36,-239.647 2544.98,-124.207 2230.2,-90.5056 2088.11,-81.3013"/>
<polygon fill="red" stroke="red" stroke-width="0.481488" points="2087.97,-77.7861 2077.77,-80.6554 2087.53,-84.7725 2087.97,-77.7861"/>
</g>
<!-- wallRadar[&#45;0.7,&#45;0.7]&#45;&gt;Turn left/right -->
<g id="edge3" class="edge"><title>wallRadar[&#45;0.7,&#45;0.7]&#45;&gt;Turn left/right</title>
<path fill="none" stroke="red" stroke-width="0.196767" d="M2022.07,-275.59C2023.17,-257.977 2023.32,-215.594 2002.36,-190.149 1973.97,-155.678 1857.03,-115.641 1786.7,-93.9779"/>
<polygon fill="red" stroke="red" stroke-width="0.196767" points="1787.68,-90.6191 1777.1,-91.0456 1785.64,-97.3138 1787.68,-90.6191"/>
</g>
<!-- 4502 -->
<g id="node30" class="node"><title>4502</title>
<ellipse fill="white" stroke="black" cx="680.361" cy="-214.898" rx="25" ry="25"/>
<text text-anchor="middle" x="680.361" y="-212.698" font-family="Times,serif" font-size="9.00">4502</text>
</g>
<!-- wallRadar[&#45;0.7,&#45;0.7]&#45;&gt;4502 -->
<g id="edge50" class="edge"><title>wallRadar[&#45;0.7,&#45;0.7]&#45;&gt;4502</title>
<path fill="none" stroke="green" stroke-width="0.100034" d="M1976.83,-282.858C1754.78,-278.836 775.445,-260.003 714.361,-239.647 712.141,-238.907 709.937,-237.972 707.78,-236.904"/>
<polygon fill="green" stroke="green" stroke-width="0.100034" points="709.117,-233.629 698.726,-231.556 705.556,-239.656 709.117,-233.629"/>
</g>
<!-- wallRadar[&#45;0.7,&#45;0.7]&#45;&gt;3032 -->
<g id="edge45" class="edge"><title>wallRadar[&#45;0.7,&#45;0.7]&#45;&gt;3032</title>
<path fill="none" stroke="green" stroke-width="0.693498" d="M2066.05,-276.43C2130.86,-265.826 2245.23,-246.544 2263.36,-239.647 2266.82,-238.329 2270.32,-236.701 2273.73,-234.92"/>
<polygon fill="green" stroke="green" stroke-width="0.693498" points="2275.49,-237.947 2282.44,-229.953 2272.02,-231.865 2275.49,-237.947"/>
</g>
<!-- wallRadar[0.7,&#45;0.7] -->
<g id="node8" class="node"><title>wallRadar[0.7,&#45;0.7]</title>
<polygon fill="lightgray" stroke="black" points="2431.36,-223.898 2345.36,-223.898 2345.36,-205.898 2431.36,-205.898 2431.36,-223.898"/>
<text text-anchor="middle" x="2388.36" y="-212.698" font-family="Times,serif" font-size="9.00">wallRadar[0.7,&#45;0.7]</text>
</g>
<!-- wallRadar[0.7,&#45;0.7]&#45;&gt; Move Left/Right -->
<g id="edge40" class="edge"><title>wallRadar[0.7,&#45;0.7]&#45;&gt; Move Left/Right</title>
<path fill="none" stroke="red" stroke-width="0.870703" stroke-dasharray="1,5" d="M2371.66,-205.829C2361.54,-201.051 2348.32,-195.002 2336.36,-190.149 2249.89,-155.048 2147.8,-119.708 2084.05,-98.3512"/>
<polygon fill="red" stroke="red" stroke-width="0.870703" points="2085.14,-95.0243 2074.55,-95.1747 2082.92,-101.664 2085.14,-95.0243"/>
</g>
<!-- enemyRadar[RightBack] -->
<g id="node9" class="node"><title>enemyRadar[RightBack]</title>
<polygon fill="lightgray" stroke="black" points="1489.36,-223.898 1385.36,-223.898 1385.36,-205.898 1489.36,-205.898 1489.36,-223.898"/>
<text text-anchor="middle" x="1437.36" y="-212.698" font-family="Times,serif" font-size="9.00">enemyRadar[RightBack]</text>
</g>
<!-- enemyRadar[RightBack]&#45;&gt;Shoot -->
<g id="edge32" class="edge"><title>enemyRadar[RightBack]&#45;&gt;Shoot</title>
<path fill="none" stroke="red" stroke-width="0.202254" d="M1419.83,-205.843C1407.83,-200.635 1391.42,-194.112 1376.36,-190.149 1098.04,-116.899 750.134,-88.1963 637.427,-80.4222"/>
<polygon fill="red" stroke="red" stroke-width="0.202254" points="637.478,-76.9177 627.264,-79.7344 637.005,-83.9018 637.478,-76.9177"/>
</g>
<!-- enemyRadar[RightBack]&#45;&gt;Move Forward/Backward -->
<g id="edge21" class="edge"><title>enemyRadar[RightBack]&#45;&gt;Move Forward/Backward</title>
<path fill="none" stroke="green" stroke-width="1.15173" stroke-dasharray="1,5" d="M1433.55,-205.808C1428.67,-195.461 1419.71,-176.44 1410.16,-156.181"/>
<polygon fill="green" stroke="green" stroke-width="1.15173" points="1413.33,-154.684 1405.9,-147.13 1407,-157.668 1413.33,-154.684"/>
</g>
<!-- enemyRadar[RightBack]&#45;&gt; Move Left/Right -->
<g id="edge35" class="edge"><title>enemyRadar[RightBack]&#45;&gt; Move Left/Right</title>
<path fill="none" stroke="green" stroke-width="2.13489" d="M1454.9,-205.87C1467.12,-200.605 1483.93,-194.005 1499.36,-190.149 1624.94,-158.77 1662.02,-182.286 1788.36,-154.149 1848.31,-140.799 1914.73,-118.449 1961.44,-101.419"/>
<polygon fill="green" stroke="green" stroke-width="2.13489" points="1962.92,-104.605 1971.1,-97.8712 1960.51,-98.0337 1962.92,-104.605"/>
</g>
<!-- enemyRadar[RightBack]&#45;&gt;Turn left/right -->
<g id="edge22" class="edge"><title>enemyRadar[RightBack]&#45;&gt;Turn left/right</title>
<path fill="none" stroke="green" stroke-width="0.11524" stroke-dasharray="1,5" d="M1454.93,-205.808C1498.65,-185.682 1613.63,-132.743 1681.05,-101.699"/>
<polygon fill="green" stroke="green" stroke-width="0.11524" points="1682.62,-104.831 1690.24,-97.4694 1679.69,-98.4724 1682.62,-104.831"/>
</g>
<!-- enemyRadar[LeftBack] -->
<g id="node10" class="node"><title>enemyRadar[LeftBack]</title>
<polygon fill="lightgray" stroke="black" points="1820.86,-223.898 1721.86,-223.898 1721.86,-205.898 1820.86,-205.898 1820.86,-223.898"/>
<text text-anchor="middle" x="1771.36" y="-212.698" font-family="Times,serif" font-size="9.00">enemyRadar[LeftBack]</text>
</g>
<!-- enemyRadar[LeftBack]&#45;&gt;Turn left/right -->
<g id="edge2" class="edge"><title>enemyRadar[LeftBack]&#45;&gt;Turn left/right</title>
<path fill="none" stroke="green" stroke-width="0.20025" stroke-dasharray="1,5" d="M1769.04,-205.808C1764.89,-191.351 1755.87,-159.963 1747.82,-131.921"/>
<polygon fill="green" stroke="green" stroke-width="0.20025" points="1751.15,-130.821 1745.02,-122.176 1744.42,-132.753 1751.15,-130.821"/>
</g>
<!-- enemyRadar[Right45ø] -->
<g id="node11" class="node"><title>enemyRadar[Right45ø]</title>
<polygon fill="lightgray" stroke="black" points="223.361,-223.898 123.361,-223.898 123.361,-205.898 223.361,-205.898 223.361,-223.898"/>
<text text-anchor="middle" x="173.361" y="-212.698" font-family="Times,serif" font-size="9.00">enemyRadar[Right45ø]</text>
</g>
<!-- enemyRadar[Right45ø]&#45;&gt;Shoot -->
<g id="edge28" class="edge"><title>enemyRadar[Right45ø]&#45;&gt;Shoot</title>
<path fill="none" stroke="green" stroke-width="0.395375" d="M192.067,-205.883C203.59,-201.067 218.72,-194.961 232.361,-190.149 352.825,-147.652 498.706,-106.095 564.779,-87.7967"/>
<polygon fill="green" stroke="green" stroke-width="0.395375" points="565.974,-91.0978 574.682,-85.063 564.111,-84.3502 565.974,-91.0978"/>
</g>
<!-- enemyRadar[Left45ø] -->
<g id="node12" class="node"><title>enemyRadar[Left45ø]</title>
<polygon fill="lightgray" stroke="black" points="990.861,-293.647 895.861,-293.647 895.861,-275.647 990.861,-275.647 990.861,-293.647"/>
<text text-anchor="middle" x="943.361" y="-282.447" font-family="Times,serif" font-size="9.00">enemyRadar[Left45ø]</text>
</g>
<!-- enemyRadar[Left45ø]&#45;&gt;Shoot -->
<g id="edge8" class="edge"><title>enemyRadar[Left45ø]&#45;&gt;Shoot</title>
<path fill="none" stroke="green" stroke-width="0.30386" stroke-dasharray="1,5" d="M895.772,-282.91C723.541,-280.014 141.386,-268.144 114.361,-239.647 -19.2265,-98.7811 428.572,-80.6702 563.224,-78.3902"/>
<polygon fill="green" stroke="green" stroke-width="0.30386" points="563.51,-81.8864 573.457,-78.2376 563.406,-74.8872 563.51,-81.8864"/>
</g>
<!-- enemyRadar[Left45ø]&#45;&gt; Move Left/Right -->
<g id="edge36" class="edge"><title>enemyRadar[Left45ø]&#45;&gt; Move Left/Right</title>
<path fill="none" stroke="red" stroke-width="2.08635" d="M990.989,-281.858C1035.15,-280.208 1102.69,-277.711 1161.36,-275.647 1220.75,-273.557 2189.06,-282.366 2230.36,-239.647 2286.86,-181.208 2164.59,-126.017 2084.59,-97.7445"/>
<polygon fill="red" stroke="red" stroke-width="2.08635" points="2085.65,-94.4085 2075.05,-94.4317 2083.35,-101.021 2085.65,-94.4085"/>
</g>
<!-- enemyRadar[Left45ø]&#45;&gt;Turn left/right -->
<g id="edge26" class="edge"><title>enemyRadar[Left45ø]&#45;&gt;Turn left/right</title>
<path fill="none" stroke="green" stroke-width="0.600424" stroke-dasharray="1,5" d="M991.091,-281.444C1150.55,-273.995 1655.62,-249.663 1669.36,-239.647 1702.94,-215.172 1718.63,-170.122 1725.95,-133.797"/>
<polygon fill="green" stroke="green" stroke-width="0.600424" points="1729.42,-134.278 1727.8,-123.807 1722.54,-133.002 1729.42,-134.278"/>
</g>
<!-- enemyRadar[Left45ø]&#45;&gt;4649 -->
<g id="edge54" class="edge"><title>enemyRadar[Left45ø]&#45;&gt;4649</title>
<path fill="none" stroke="green" stroke-width="0.13118" d="M895.728,-282.582C726.351,-278.609 159.181,-263.633 81.3609,-239.647 77.8192,-238.555 74.2705,-237.07 70.8354,-235.372"/>
<polygon fill="green" stroke="green" stroke-width="0.13118" points="72.5303,-232.31 62.0907,-230.503 69.1247,-238.426 72.5303,-232.31"/>
</g>
<!-- enemyRadar[RightFront20ø] -->
<g id="node13" class="node"><title>enemyRadar[RightFront20ø]</title>
<polygon fill="lightgray" stroke="black" points="360.861,-223.898 241.861,-223.898 241.861,-205.898 360.861,-205.898 360.861,-223.898"/>
<text text-anchor="middle" x="301.361" y="-212.698" font-family="Times,serif" font-size="9.00">enemyRadar[RightFront20ø]</text>
</g>
<!-- enemyRadar[RightFront20ø]&#45;&gt;Shoot -->
<g id="edge39" class="edge"><title>enemyRadar[RightFront20ø]&#45;&gt;Shoot</title>
<path fill="none" stroke="green" stroke-width="2.89211" d="M319.169,-205.808C367.839,-183.7 503.667,-121.999 567.026,-93.2173"/>
<polygon fill="green" stroke="green" stroke-width="2.89211" points="568.532,-96.3774 576.189,-89.0549 565.637,-90.0042 568.532,-96.3774"/>
</g>
<!-- enemyRadar[LeftFront20ø] -->
<g id="node14" class="node"><title>enemyRadar[LeftFront20ø]</title>
<polygon fill="lightgray" stroke="black" points="493.361,-223.898 379.361,-223.898 379.361,-205.898 493.361,-205.898 493.361,-223.898"/>
<text text-anchor="middle" x="436.361" y="-212.698" font-family="Times,serif" font-size="9.00">enemyRadar[LeftFront20ø]</text>
</g>
<!-- enemyRadar[LeftFront20ø]&#45;&gt;Shoot -->
<g id="edge18" class="edge"><title>enemyRadar[LeftFront20ø]&#45;&gt;Shoot</title>
<path fill="none" stroke="green" stroke-width="0.472418" d="M446.129,-205.808C470.49,-185.633 534.663,-132.485 572.109,-101.473"/>
<polygon fill="green" stroke="green" stroke-width="0.472418" points="574.648,-103.914 580.118,-94.8399 570.184,-98.5228 574.648,-103.914"/>
</g>
<!-- enemyRadar[RightFront15ø] -->
<g id="node15" class="node"><title>enemyRadar[RightFront15ø]</title>
<polygon fill="lightgray" stroke="black" points="1626.86,-223.898 1507.86,-223.898 1507.86,-205.898 1626.86,-205.898 1626.86,-223.898"/>
<text text-anchor="middle" x="1567.36" y="-212.698" font-family="Times,serif" font-size="9.00">enemyRadar[RightFront15ø]</text>
</g>
<!-- enemyRadar[RightFront15ø]&#45;&gt;Shoot -->
<g id="edge37" class="edge"><title>enemyRadar[RightFront15ø]&#45;&gt;Shoot</title>
<path fill="none" stroke="red" stroke-width="1.05933" d="M1547.45,-205.815C1533.84,-200.595 1515.27,-194.069 1498.36,-190.149 1329.63,-151.03 785.435,-96.1611 637.678,-81.689"/>
<polygon fill="red" stroke="red" stroke-width="1.05933" points="637.635,-78.1682 627.342,-80.6793 636.954,-85.135 637.635,-78.1682"/>
</g>
<!-- enemyRadar[RightFront15ø]&#45;&gt;Move Forward/Backward -->
<g id="edge12" class="edge"><title>enemyRadar[RightFront15ø]&#45;&gt;Move Forward/Backward</title>
<path fill="none" stroke="green" stroke-width="0.550584" stroke-dasharray="1,5" d="M1555.81,-205.808C1534.21,-190.688 1486.16,-157.049 1444.8,-128.087"/>
<polygon fill="green" stroke="green" stroke-width="0.550584" points="1446.55,-125.044 1436.35,-122.176 1442.54,-130.778 1446.55,-125.044"/>
</g>
<!-- enemyRadar[RightFront15ø]&#45;&gt; Move Left/Right -->
<g id="edge31" class="edge"><title>enemyRadar[RightFront15ø]&#45;&gt; Move Left/Right</title>
<path fill="none" stroke="red" stroke-width="1.16852" d="M1598.98,-205.885C1642,-194.858 1721.31,-174.098 1788.36,-154.149 1847.04,-136.692 1913.35,-114.94 1960.36,-99.1726"/>
<polygon fill="red" stroke="red" stroke-width="1.16852" points="1961.72,-102.406 1970.09,-95.9025 1959.49,-95.771 1961.72,-102.406"/>
</g>
<!-- enemyRadar[RightFront15ø]&#45;&gt;Turn left/right -->
<g id="edge17" class="edge"><title>enemyRadar[RightFront15ø]&#45;&gt;Turn left/right</title>
<path fill="none" stroke="green" stroke-width="0.28708" stroke-dasharray="1,5" d="M1577.19,-205.808C1598.63,-188.16 1650.71,-145.285 1688.64,-114.063"/>
<polygon fill="green" stroke="green" stroke-width="0.28708" points="1691.01,-116.648 1696.5,-107.591 1686.56,-111.244 1691.01,-116.648"/>
</g>
<!-- enemyRadar[LeftFront15ø] -->
<g id="node16" class="node"><title>enemyRadar[LeftFront15ø]</title>
<polygon fill="lightgray" stroke="black" points="1029.36,-223.898 915.361,-223.898 915.361,-205.898 1029.36,-205.898 1029.36,-223.898"/>
<text text-anchor="middle" x="972.361" y="-212.698" font-family="Times,serif" font-size="9.00">enemyRadar[LeftFront15ø]</text>
</g>
<!-- enemyRadar[LeftFront15ø]&#45;&gt;Shoot -->
<g id="edge9" class="edge"><title>enemyRadar[LeftFront15ø]&#45;&gt;Shoot</title>
<path fill="none" stroke="red" stroke-width="0.408284" stroke-dasharray="1,5" d="M950.205,-205.808C887.782,-183.017 710.122,-118.15 634.795,-90.6471"/>
<polygon fill="red" stroke="red" stroke-width="0.408284" points="635.881,-87.3178 625.288,-87.1758 633.481,-93.8933 635.881,-87.3178"/>
</g>
<!-- enemyRadar[LeftFront15ø]&#45;&gt; Move Left/Right -->
<g id="edge34" class="edge"><title>enemyRadar[LeftFront15ø]&#45;&gt; Move Left/Right</title>
<path fill="none" stroke="red" stroke-width="0.529966" stroke-dasharray="1,5" d="M990.156,-205.858C1003.21,-200.368 1021.52,-193.505 1038.36,-190.149 1365.64,-124.935 1460.1,-214.27 1788.36,-154.149 1848.9,-143.061 1915.41,-120.359 1962,-102.626"/>
<polygon fill="red" stroke="red" stroke-width="0.529966" points="1963.26,-105.892 1971.34,-99.0374 1960.75,-99.3583 1963.26,-105.892"/>
</g>
<!-- enemyRadar[RightFront7.5ø] -->
<g id="node17" class="node"><title>enemyRadar[RightFront7.5ø]</title>
<polygon fill="lightgray" stroke="black" points="2297.36,-293.647 2175.36,-293.647 2175.36,-275.647 2297.36,-275.647 2297.36,-293.647"/>
<text text-anchor="middle" x="2236.36" y="-282.447" font-family="Times,serif" font-size="9.00">enemyRadar[RightFront7.5ø]</text>
</g>
<!-- enemyRadar[LeftFront7.5ø] -->
<g id="node18" class="node"><title>enemyRadar[LeftFront7.5ø]</title>
<polygon fill="lightgray" stroke="black" points="1367.36,-223.898 1251.36,-223.898 1251.36,-205.898 1367.36,-205.898 1367.36,-223.898"/>
<text text-anchor="middle" x="1309.36" y="-212.698" font-family="Times,serif" font-size="9.00">enemyRadar[LeftFront7.5ø]</text>
</g>
<!-- enemyRadar[LeftFront7.5ø]&#45;&gt;Move Forward/Backward -->
<g id="edge13" class="edge"><title>enemyRadar[LeftFront7.5ø]&#45;&gt;Move Forward/Backward</title>
<path fill="none" stroke="green" stroke-width="0.222842" stroke-dasharray="1,5" d="M1313.17,-205.808C1318.05,-195.461 1327.01,-176.44 1336.56,-156.181"/>
<polygon fill="green" stroke="green" stroke-width="0.222842" points="1339.73,-157.668 1340.82,-147.13 1333.39,-154.684 1339.73,-157.668"/>
</g>
<!-- enemyRadar[LeftFront7.5ø]&#45;&gt;Turn left/right -->
<g id="edge1" class="edge"><title>enemyRadar[LeftFront7.5ø]&#45;&gt;Turn left/right</title>
<path fill="none" stroke="red" stroke-width="0.814242" stroke-dasharray="1,5" d="M1331.32,-205.892C1344.37,-201.191 1361.26,-195.2 1376.36,-190.149 1482.66,-154.589 1607.86,-115.911 1677.88,-94.5669"/>
<polygon fill="red" stroke="red" stroke-width="0.814242" points="1679.25,-97.8072 1687.8,-91.546 1677.21,-91.1108 1679.25,-97.8072"/>
</g>
<!-- enemyRadar[RightFront2.5ø] -->
<g id="node19" class="node"><title>enemyRadar[RightFront2.5ø]</title>
<polygon fill="lightgray" stroke="black" points="2171.36,-223.898 2049.36,-223.898 2049.36,-205.898 2171.36,-205.898 2171.36,-223.898"/>
<text text-anchor="middle" x="2110.36" y="-212.698" font-family="Times,serif" font-size="9.00">enemyRadar[RightFront2.5ø]</text>
</g>
<!-- enemyRadar[RightFront2.5ø]&#45;&gt;Move Forward/Backward -->
<g id="edge4" class="edge"><title>enemyRadar[RightFront2.5ø]&#45;&gt;Move Forward/Backward</title>
<path fill="none" stroke="green" stroke-width="0.838602" stroke-dasharray="1,5" d="M2077.93,-205.819C2056.57,-200.735 2027.93,-194.361 2002.36,-190.149 1858.53,-166.463 1819.83,-179.957 1676.36,-154.149 1601.4,-140.664 1517.5,-119.082 1457.03,-102.343"/>
<polygon fill="green" stroke="green" stroke-width="0.838602" points="1457.72,-98.904 1447.15,-99.5951 1455.85,-105.648 1457.72,-98.904"/>
</g>
<!-- enemyRadar[RightFront2.5ø]&#45;&gt; Move Left/Right -->
<g id="edge14" class="edge"><title>enemyRadar[RightFront2.5ø]&#45;&gt; Move Left/Right</title>
<path fill="none" stroke="red" stroke-width="0.582297" stroke-dasharray="1,5" d="M2105.12,-205.808C2095.8,-191.42 2075.61,-160.264 2057.51,-132.325"/>
<polygon fill="red" stroke="red" stroke-width="0.582297" points="2060.35,-130.27 2051.97,-123.78 2054.47,-134.076 2060.35,-130.27"/>
</g>
<!-- enemyRadar[RightFront2.5ø]&#45;&gt;Turn left/right -->
<g id="edge11" class="edge"><title>enemyRadar[RightFront2.5ø]&#45;&gt;Turn left/right</title>
<path fill="none" stroke="red" stroke-width="0.985733" stroke-dasharray="1,5" d="M2087.85,-205.808C2029.06,-184.686 1869.71,-127.425 1785.75,-97.2595"/>
<polygon fill="red" stroke="red" stroke-width="0.985733" points="1786.74,-93.8955 1776.15,-93.8077 1784.37,-100.483 1786.74,-93.8955"/>
</g>
<!-- enemyRadar[LeftFront2.5ø] -->
<g id="node20" class="node"><title>enemyRadar[LeftFront2.5ø]</title>
<polygon fill="lightgray" stroke="black" points="1993.36,-223.898 1877.36,-223.898 1877.36,-205.898 1993.36,-205.898 1993.36,-223.898"/>
<text text-anchor="middle" x="1935.36" y="-212.698" font-family="Times,serif" font-size="9.00">enemyRadar[LeftFront2.5ø]</text>
</g>
<!-- enemyRadar[LeftFront2.5ø]&#45;&gt;Move Forward/Backward -->
<g id="edge16" class="edge"><title>enemyRadar[LeftFront2.5ø]&#45;&gt;Move Forward/Backward</title>
<path fill="none" stroke="green" stroke-width="0.162859" stroke-dasharray="1,5" d="M1900.14,-205.861C1839.72,-192.061 1718.76,-164.361 1676.36,-154.149 1602.44,-136.344 1518.61,-115.225 1457.89,-99.762"/>
<polygon fill="green" stroke="green" stroke-width="0.162859" points="1458.53,-96.312 1447.97,-97.2336 1456.8,-103.095 1458.53,-96.312"/>
</g>
<!-- enemyRadar[LeftFront2.5ø]&#45;&gt; Move Left/Right -->
<g id="edge24" class="edge"><title>enemyRadar[LeftFront2.5ø]&#45;&gt; Move Left/Right</title>
<path fill="none" stroke="red" stroke-width="0.278164" stroke-dasharray="1,5" d="M1940.54,-205.808C1949.73,-191.472 1969.57,-160.488 1987.42,-132.627"/>
<polygon fill="red" stroke="red" stroke-width="0.278164" points="1990.43,-134.411 1992.88,-124.103 1984.54,-130.635 1990.43,-134.411"/>
</g>
<!-- enemyRadar[LeftFront2.5ø]&#45;&gt;Turn left/right -->
<g id="edge10" class="edge"><title>enemyRadar[LeftFront2.5ø]&#45;&gt;Turn left/right</title>
<path fill="none" stroke="red" stroke-width="0.215963" d="M1923.27,-205.808C1895.63,-187.314 1826.58,-141.113 1779.56,-109.654"/>
<polygon fill="red" stroke="red" stroke-width="0.215963" points="1781.31,-106.614 1771.05,-103.962 1777.42,-112.432 1781.31,-106.614"/>
</g>
<!-- enemyRadar[Front7Ø] -->
<g id="node21" class="node"><title>enemyRadar[Front7Ø]</title>
<polygon fill="lightgray" stroke="black" points="1145.36,-223.898 1047.36,-223.898 1047.36,-205.898 1145.36,-205.898 1145.36,-223.898"/>
<text text-anchor="middle" x="1096.36" y="-212.698" font-family="Times,serif" font-size="9.00">enemyRadar[Front7Ø]</text>
</g>
<!-- enemyRadar[Front7Ø]&#45;&gt;Shoot -->
<g id="edge23" class="edge"><title>enemyRadar[Front7Ø]&#45;&gt;Shoot</title>
<path fill="none" stroke="green" stroke-width="0.234688" d="M1078.57,-205.868C1067.22,-200.928 1052.1,-194.696 1038.36,-190.149 891.928,-141.693 712.223,-101.591 636.606,-85.5688"/>
<polygon fill="green" stroke="green" stroke-width="0.234688" points="637.148,-82.1063 626.641,-83.4695 635.705,-88.9559 637.148,-82.1063"/>
</g>
<!-- enemyRadar[Front7Ø]&#45;&gt; Move Left/Right -->
<g id="edge20" class="edge"><title>enemyRadar[Front7Ø]&#45;&gt; Move Left/Right</title>
<path fill="none" stroke="red" stroke-width="0.450553" d="M1112.14,-205.761C1123.55,-200.301 1139.5,-193.513 1154.36,-190.149 1429.62,-127.82 1510.97,-206.21 1788.36,-154.149 1848.72,-142.82 1915.09,-120.221 1961.68,-102.585"/>
<polygon fill="red" stroke="red" stroke-width="0.450553" points="1963.22,-105.743 1971.31,-98.9025 1960.72,-99.2043 1963.22,-105.743"/>
</g>
<!-- OnTarget -->
<g id="node22" class="node"><title>OnTarget</title>
<polygon fill="lightgray" stroke="black" points="2365.36,-293.647 2315.36,-293.647 2315.36,-275.647 2365.36,-275.647 2365.36,-293.647"/>
<text text-anchor="middle" x="2340.36" y="-282.447" font-family="Times,serif" font-size="9.00">OnTarget</text>
</g>
<!-- bias -->
<g id="node23" class="node"><title>bias</title>
<polygon fill="lightgray" stroke="black" points="2220.86,-223.898 2189.86,-223.898 2189.86,-205.898 2220.86,-205.898 2220.86,-223.898"/>
<text text-anchor="middle" x="2205.36" y="-212.698" font-family="Times,serif" font-size="9.00">bias</text>
</g>
<!-- bias&#45;&gt; Move Left/Right -->
<g id="edge6" class="edge"><title>bias&#45;&gt; Move Left/Right</title>
<path fill="none" stroke="green" stroke-width="0.840827" d="M2197.3,-205.674C2192.53,-200.954 2186.28,-195.017 2180.36,-190.149 2147.24,-162.907 2107.92,-134.998 2076.78,-113.845"/>
<polygon fill="green" stroke="green" stroke-width="0.840827" points="2078.48,-110.765 2068.23,-108.064 2074.56,-116.564 2078.48,-110.765"/>
</g>
<!-- bias&#45;&gt;Turn left/right -->
<g id="edge38" class="edge"><title>bias&#45;&gt;Turn left/right</title>
<path fill="none" stroke="green" stroke-width="0.278834" stroke-dasharray="1,5" d="M2198.84,-205.519C2194.26,-200.242 2187.66,-193.766 2180.36,-190.149 2090.81,-145.752 2055.39,-178.174 1958.36,-154.149 1897.9,-139.178 1830.44,-115.526 1785.09,-98.5693"/>
<polygon fill="green" stroke="green" stroke-width="0.278834" points="1786.07,-95.1982 1775.48,-94.9509 1783.61,-101.749 1786.07,-95.1982"/>
</g>
<!-- 4649&#45;&gt;Shoot -->
<g id="edge53" class="edge"><title>4649&#45;&gt;Shoot</title>
<path fill="none" stroke="red" stroke-width="0.184965" d="M62.3332,-199.98C68.2489,-196.35 74.882,-192.736 81.3609,-190.149 253.946,-121.252 476.556,-91.3653 563.383,-81.7737"/>
<polygon fill="red" stroke="red" stroke-width="0.184965" points="563.959,-85.2319 573.526,-80.6781 563.208,-78.2724 563.959,-85.2319"/>
</g>
<!-- 3347&#45;&gt;Shoot -->
<g id="edge48" class="edge"><title>3347&#45;&gt;Shoot</title>
<path fill="none" stroke="red" stroke-width="0.846991" d="M578.83,-190.549C582.87,-169.445 588.878,-138.06 593.522,-113.802"/>
<polygon fill="red" stroke="red" stroke-width="0.846991" points="596.976,-114.373 595.419,-103.893 590.101,-113.056 596.976,-114.373"/>
</g>
<!-- 4502&#45;&gt;Shoot -->
<g id="edge51" class="edge"><title>4502&#45;&gt;Shoot</title>
<path fill="none" stroke="green" stroke-width="0.383476" d="M668.211,-193.269C655.073,-170.964 633.978,-135.15 618.796,-109.373"/>
<polygon fill="green" stroke="green" stroke-width="0.383476" points="621.786,-107.553 613.695,-100.713 615.754,-111.106 621.786,-107.553"/>
</g>
<!-- 3032&#45;&gt; Move Left/Right -->
<g id="edge46" class="edge"><title>3032&#45;&gt; Move Left/Right</title>
<path fill="none" stroke="red" stroke-width="0.460849" d="M2281.56,-200.643C2275.75,-197.1 2269.37,-193.365 2263.36,-190.149 2202.96,-157.847 2131.58,-125.325 2082.26,-103.698"/>
<polygon fill="red" stroke="red" stroke-width="0.460849" points="2083.57,-100.452 2073.01,-99.6555 2080.77,-106.867 2083.57,-100.452"/>
</g>
</g>
</svg>
