<?xml version="1.0" encoding="UTF-8" standalone="no"?>
<!DOCTYPE svg PUBLIC "-//W3C//DTD SVG 1.1//EN"
 "http://www.w3.org/Graphics/SVG/1.1/DTD/svg11.dtd">
<!-- Generated by graphviz version 2.38.0 (20140413.2041)
 -->
<!-- Title: %3 Pages: 1 -->
<svg width="2391pt" height="216pt"
 viewBox="0.00 0.00 2390.50 216.15" xmlns="http://www.w3.org/2000/svg" xmlns:xlink="http://www.w3.org/1999/xlink">
<g id="graph0" class="graph" transform="scale(1 1) rotate(0) translate(4 212.149)">
<title>%3</title>
<polygon fill="white" stroke="none" points="-4,4 -4,-212.149 2386.5,-212.149 2386.5,4 -4,4"/>
<!-- wallRadar[1,0] -->
<g id="node1" class="node"><title>wallRadar[1,0]</title>
<polygon fill="lightgray" stroke="black" points="441.5,-208.149 371.5,-208.149 371.5,-190.149 441.5,-190.149 441.5,-208.149"/>
<text text-anchor="middle" x="406.5" y="-196.949" font-family="Times,serif" font-size="9.00">wallRadar[1,0]</text>
</g>
<!-- Jump/Crouch -->
<g id="node24" class="node"><title>Jump/Crouch</title>
<ellipse fill="lightblue" stroke="black" cx="316.5" cy="-77.0746" rx="45.9239" ry="45.9239"/>
<text text-anchor="middle" x="316.5" y="-74.8746" font-family="Times,serif" font-size="9.00">Jump/Crouch</text>
</g>
<!-- wallRadar[1,0]&#45;&gt;Jump/Crouch -->
<g id="edge48" class="edge"><title>wallRadar[1,0]&#45;&gt;Jump/Crouch</title>
<path fill="none" stroke="green" stroke-width="0.161009" d="M400.314,-189.896C389.967,-176.091 368.446,-147.379 349.803,-122.507"/>
<polygon fill="green" stroke="green" stroke-width="0.161009" points="352.41,-120.149 343.612,-114.246 346.809,-124.347 352.41,-120.149"/>
</g>
<!-- Move Forward/Backward -->
<g id="node25" class="node"><title>Move Forward/Backward</title>
<ellipse fill="lightblue" stroke="black" cx="706.5" cy="-77.0746" rx="77.1494" ry="77.1494"/>
<text text-anchor="middle" x="706.5" y="-74.8746" font-family="Times,serif" font-size="9.00">Move Forward/Backward</text>
</g>
<!-- wallRadar[1,0]&#45;&gt;Move Forward/Backward -->
<g id="edge42" class="edge"><title>wallRadar[1,0]&#45;&gt;Move Forward/Backward</title>
<path fill="none" stroke="green" stroke-width="0.294468" d="M426.65,-190.084C466.676,-174.064 558.159,-137.448 625.687,-110.42"/>
<polygon fill="green" stroke="green" stroke-width="0.294468" points="627.066,-113.638 635.049,-106.673 624.464,-107.139 627.066,-113.638"/>
</g>
<!-- Turn Left/Right -->
<g id="node27" class="node"><title>Turn Left/Right</title>
<ellipse fill="lightblue" stroke="black" cx="1709.5" cy="-77.0746" rx="50.8235" ry="50.8235"/>
<text text-anchor="middle" x="1709.5" y="-74.8746" font-family="Times,serif" font-size="9.00">Turn Left/Right</text>
</g>
<!-- wallRadar[1,0]&#45;&gt;Turn Left/Right -->
<g id="edge77" class="edge"><title>wallRadar[1,0]&#45;&gt;Turn Left/Right</title>
<path fill="none" stroke="green" stroke-width="0.152479" d="M441.977,-191.241C444.853,-190.821 447.721,-190.448 450.5,-190.149 682.855,-165.181 1272.12,-198.843 1501.5,-154.149 1555.07,-143.711 1613.18,-121.46 1654.33,-103.705"/>
<polygon fill="green" stroke="green" stroke-width="0.152479" points="1655.86,-106.855 1663.62,-99.6459 1653.06,-100.44 1655.86,-106.855"/>
</g>
<!-- 5 -->
<g id="node28" class="node"><title>5</title>
<ellipse fill="lightblue" stroke="black" cx="1188.5" cy="-77.0746" rx="14.7" ry="14.7"/>
<text text-anchor="middle" x="1188.5" y="-74.8746" font-family="Times,serif" font-size="9.00">5</text>
</g>
<!-- wallRadar[1,0]&#45;&gt;5 -->
<g id="edge19" class="edge"><title>wallRadar[1,0]&#45;&gt;5</title>
<path fill="none" stroke="red" stroke-width="0.162359" stroke-dasharray="1,5" d="M441.507,-191.392C444.542,-190.925 447.571,-190.501 450.5,-190.149 584.219,-174.074 926.422,-192.598 1055.5,-154.149 1099.32,-141.096 1144.26,-111.274 1169.05,-93.0874"/>
<polygon fill="red" stroke="red" stroke-width="0.162359" points="1171.33,-95.7579 1177.24,-86.9659 1167.14,-90.1521 1171.33,-95.7579"/>
</g>
<!-- wallRadar[0,1] -->
<g id="node2" class="node"><title>wallRadar[0,1]</title>
<polygon fill="lightgray" stroke="black" points="261.5,-208.149 191.5,-208.149 191.5,-190.149 261.5,-190.149 261.5,-208.149"/>
<text text-anchor="middle" x="226.5" y="-196.949" font-family="Times,serif" font-size="9.00">wallRadar[0,1]</text>
</g>
<!-- Shoot -->
<g id="node23" class="node"><title>Shoot</title>
<ellipse fill="lightblue" stroke="black" cx="1019.5" cy="-77.0746" rx="26.7407" ry="26.7407"/>
<text text-anchor="middle" x="1019.5" y="-74.8746" font-family="Times,serif" font-size="9.00">Shoot</text>
</g>
<!-- wallRadar[0,1]&#45;&gt;Shoot -->
<g id="edge22" class="edge"><title>wallRadar[0,1]&#45;&gt;Shoot</title>
<path fill="none" stroke="red" stroke-width="0.146581" d="M261.51,-191.415C264.544,-190.943 267.572,-190.512 270.5,-190.149 509.209,-160.588 575.143,-203.779 810.5,-154.149 874.686,-140.614 945.72,-111.543 986.249,-93.5146"/>
<polygon fill="red" stroke="red" stroke-width="0.146581" points="987.703,-96.6982 995.389,-89.4054 984.833,-90.3138 987.703,-96.6982"/>
</g>
<!-- wallRadar[0,1]&#45;&gt;Jump/Crouch -->
<g id="edge18" class="edge"><title>wallRadar[0,1]&#45;&gt;Jump/Crouch</title>
<path fill="none" stroke="red" stroke-width="0.420452" d="M232.686,-189.896C243.033,-176.091 264.554,-147.379 283.197,-122.507"/>
<polygon fill="red" stroke="red" stroke-width="0.420452" points="286.191,-124.347 289.388,-114.246 280.59,-120.149 286.191,-124.347"/>
</g>
<!-- wallRadar[0,1]&#45;&gt;Move Forward/Backward -->
<g id="edge62" class="edge"><title>wallRadar[0,1]&#45;&gt;Move Forward/Backward</title>
<path fill="none" stroke="green" stroke-width="0.146183" d="M258.739,-190.084C332.12,-171.728 513.599,-126.33 621.65,-99.3003"/>
<polygon fill="green" stroke="green" stroke-width="0.146183" points="622.698,-102.646 631.549,-96.8239 620.999,-95.8554 622.698,-102.646"/>
</g>
<!-- 6 -->
<g id="node29" class="node"><title>6</title>
<ellipse fill="lightblue" stroke="black" cx="1459.5" cy="-77.0746" rx="14.7" ry="14.7"/>
<text text-anchor="middle" x="1459.5" y="-74.8746" font-family="Times,serif" font-size="9.00">6</text>
</g>
<!-- wallRadar[0,1]&#45;&gt;6 -->
<g id="edge25" class="edge"><title>wallRadar[0,1]&#45;&gt;6</title>
<path fill="none" stroke="red" stroke-width="0.236515" d="M261.978,-191.251C264.854,-190.829 267.721,-190.452 270.5,-190.149 694.948,-143.843 810.364,-230.214 1230.5,-154.149 1308.6,-140.01 1396.51,-105.137 1436.95,-87.9596"/>
<polygon fill="red" stroke="red" stroke-width="0.236515" points="1438.37,-91.1606 1446.17,-83.9972 1435.6,-84.7292 1438.37,-91.1606"/>
</g>
<!-- wallRadar[&#45;1,0] -->
<g id="node3" class="node"><title>wallRadar[&#45;1,0]</title>
<polygon fill="lightgray" stroke="black" points="353,-208.149 280,-208.149 280,-190.149 353,-190.149 353,-208.149"/>
<text text-anchor="middle" x="316.5" y="-196.949" font-family="Times,serif" font-size="9.00">wallRadar[&#45;1,0]</text>
</g>
<!-- wallRadar[&#45;1,0]&#45;&gt;Jump/Crouch -->
<g id="edge2" class="edge"><title>wallRadar[&#45;1,0]&#45;&gt;Jump/Crouch</title>
<path fill="none" stroke="green" stroke-width="0.194311" d="M316.5,-189.896C316.5,-178.095 316.5,-155.4 316.5,-133.523"/>
<polygon fill="green" stroke="green" stroke-width="0.194311" points="320,-133.237 316.5,-123.237 313,-133.237 320,-133.237"/>
</g>
<!-- wallRadar[&#45;1,0]&#45;&gt;Move Forward/Backward -->
<g id="edge15" class="edge"><title>wallRadar[&#45;1,0]&#45;&gt;Move Forward/Backward</title>
<path fill="none" stroke="green" stroke-width="0.362384" d="M342.695,-190.084C399.158,-172.7 534.391,-131.064 623.126,-103.744"/>
<polygon fill="green" stroke="green" stroke-width="0.362384" points="624.375,-107.022 632.902,-100.734 622.315,-100.332 624.375,-107.022"/>
</g>
<!-- wallRadar[&#45;1,0]&#45;&gt;5 -->
<g id="edge17" class="edge"><title>wallRadar[&#45;1,0]&#45;&gt;5</title>
<path fill="none" stroke="red" stroke-width="0.129413" d="M353.101,-191.375C356.273,-190.912 359.439,-190.494 362.5,-190.149 515.741,-172.907 907.545,-197.615 1055.5,-154.149 1099.37,-141.261 1144.29,-111.383 1169.07,-93.1409"/>
<polygon fill="red" stroke="red" stroke-width="0.129413" points="1171.35,-95.8027 1177.25,-86.9996 1167.15,-90.2049 1171.35,-95.8027"/>
</g>
<!-- wallRadar[&#45;1,0]&#45;&gt;6 -->
<g id="edge16" class="edge"><title>wallRadar[&#45;1,0]&#45;&gt;6</title>
<path fill="none" stroke="red" stroke-width="0.102099" stroke-dasharray="1,5" d="M353.097,-191.34C356.27,-190.885 359.437,-190.478 362.5,-190.149 746.409,-148.983 850.704,-223.689 1230.5,-154.149 1308.57,-139.855 1396.5,-105.056 1436.94,-87.9282"/>
<polygon fill="red" stroke="red" stroke-width="0.102099" points="1438.35,-91.1319 1446.17,-83.9776 1435.6,-84.6972 1438.35,-91.1319"/>
</g>
<!-- wallRadar[0,&#45;1] -->
<g id="node4" class="node"><title>wallRadar[0,&#45;1]</title>
<polygon fill="lightgray" stroke="black" points="1821,-208.149 1748,-208.149 1748,-190.149 1821,-190.149 1821,-208.149"/>
<text text-anchor="middle" x="1784.5" y="-196.949" font-family="Times,serif" font-size="9.00">wallRadar[0,&#45;1]</text>
</g>
<!-- wallRadar[0,&#45;1]&#45;&gt;Move Forward/Backward -->
<g id="edge38" class="edge"><title>wallRadar[0,&#45;1]&#45;&gt;Move Forward/Backward</title>
<path fill="none" stroke="green" stroke-width="0.370768" d="M1747.72,-191.214C1744.94,-190.812 1742.18,-190.45 1739.5,-190.149 1405.22,-152.633 1315.7,-207.012 983.5,-154.149 916.944,-143.558 843.467,-122.95 788.923,-105.852"/>
<polygon fill="green" stroke="green" stroke-width="0.370768" points="789.899,-102.49 779.309,-102.813 787.789,-109.164 789.899,-102.49"/>
</g>
<!-- Move Left/Right -->
<g id="node26" class="node"><title>Move Left/Right</title>
<ellipse fill="lightblue" stroke="black" cx="1874.5" cy="-77.0746" rx="53.9813" ry="53.9813"/>
<text text-anchor="middle" x="1874.5" y="-74.8746" font-family="Times,serif" font-size="9.00">Move Left/Right</text>
</g>
<!-- wallRadar[0,&#45;1]&#45;&gt;Move Left/Right -->
<g id="edge45" class="edge"><title>wallRadar[0,&#45;1]&#45;&gt;Move Left/Right</title>
<path fill="none" stroke="green" stroke-width="0.143573" d="M1790.69,-189.896C1800.17,-177.241 1819.05,-152.06 1836.49,-128.792"/>
<polygon fill="green" stroke="green" stroke-width="0.143573" points="1839.38,-130.767 1842.58,-120.666 1833.78,-126.569 1839.38,-130.767"/>
</g>
<!-- wallRadar[0,&#45;1]&#45;&gt;Turn Left/Right -->
<g id="edge64" class="edge"><title>wallRadar[0,&#45;1]&#45;&gt;Turn Left/Right</title>
<path fill="none" stroke="red" stroke-width="0.151823" d="M1779.34,-189.896C1771.51,-177.352 1755.99,-152.499 1741.56,-129.402"/>
<polygon fill="red" stroke="red" stroke-width="0.151823" points="1744.37,-127.293 1736.1,-120.666 1738.43,-131.002 1744.37,-127.293"/>
</g>
<!-- wallRadar[0,&#45;1]&#45;&gt;5 -->
<g id="edge1" class="edge"><title>wallRadar[0,&#45;1]&#45;&gt;5</title>
<path fill="none" stroke="red" stroke-width="0.360749" stroke-dasharray="1,5" d="M1747.69,-191.426C1744.92,-190.975 1742.17,-190.544 1739.5,-190.149 1604.91,-170.234 1568.61,-182.288 1435.5,-154.149 1351.55,-136.403 1255.19,-102.719 1211.81,-86.8112"/>
<polygon fill="red" stroke="red" stroke-width="0.360749" points="1212.79,-83.4418 1202.2,-83.2577 1210.36,-90.0076 1212.79,-83.4418"/>
</g>
<!-- wallRadar[0.7,0.7] -->
<g id="node5" class="node"><title>wallRadar[0.7,0.7]</title>
<polygon fill="lightgray" stroke="black" points="1730,-208.149 1647,-208.149 1647,-190.149 1730,-190.149 1730,-208.149"/>
<text text-anchor="middle" x="1688.5" y="-196.949" font-family="Times,serif" font-size="9.00">wallRadar[0.7,0.7]</text>
</g>
<!-- wallRadar[0.7,0.7]&#45;&gt;Jump/Crouch -->
<g id="edge21" class="edge"><title>wallRadar[0.7,0.7]&#45;&gt;Jump/Crouch</title>
<path fill="none" stroke="red" stroke-width="0.191441" d="M1646.8,-191.191C1643.66,-190.794 1640.53,-190.44 1637.5,-190.149 1187.28,-147.027 1068.34,-217.395 620.5,-154.149 531.07,-141.52 429.789,-113.279 369.634,-94.9856"/>
<polygon fill="red" stroke="red" stroke-width="0.191441" points="370.566,-91.6105 359.979,-92.0273 368.515,-98.3034 370.566,-91.6105"/>
</g>
<!-- wallRadar[0.7,0.7]&#45;&gt;Move Forward/Backward -->
<g id="edge59" class="edge"><title>wallRadar[0.7,0.7]&#45;&gt;Move Forward/Backward</title>
<path fill="none" stroke="red" stroke-width="0.813969" d="M1646.8,-191.258C1643.66,-190.846 1640.53,-190.47 1637.5,-190.149 1348.01,-159.555 1270.82,-200.962 983.5,-154.149 916.983,-143.312 843.505,-122.718 788.95,-105.687"/>
<polygon fill="red" stroke="red" stroke-width="0.813969" points="789.923,-102.324 779.333,-102.661 787.821,-109.001 789.923,-102.324"/>
</g>
<!-- wallRadar[0.7,0.7]&#45;&gt;Move Left/Right -->
<g id="edge6" class="edge"><title>wallRadar[0.7,0.7]&#45;&gt;Move Left/Right</title>
<path fill="none" stroke="green" stroke-width="0.240333" d="M1704.68,-190.144C1721.28,-181.747 1747.7,-167.886 1769.5,-154.149 1787.75,-142.65 1807.05,-129.1 1824.05,-116.647"/>
<polygon fill="green" stroke="green" stroke-width="0.240333" points="1826.23,-119.389 1832.2,-110.636 1822.08,-113.756 1826.23,-119.389"/>
</g>
<!-- wallRadar[0.7,0.7]&#45;&gt;Turn Left/Right -->
<g id="edge11" class="edge"><title>wallRadar[0.7,0.7]&#45;&gt;Turn Left/Right</title>
<path fill="none" stroke="green" stroke-width="0.110442" d="M1689.94,-189.896C1691.89,-178.786 1695.52,-158.02 1699.13,-137.372"/>
<polygon fill="green" stroke="green" stroke-width="0.110442" points="1702.62,-137.741 1700.89,-127.287 1695.72,-136.535 1702.62,-137.741"/>
</g>
<!-- wallRadar[0.7,0.7]&#45;&gt;6 -->
<g id="edge30" class="edge"><title>wallRadar[0.7,0.7]&#45;&gt;6</title>
<path fill="none" stroke="green" stroke-width="0.229307" d="M1673.12,-190.084C1633.42,-169.27 1527.42,-113.688 1481.37,-89.54"/>
<polygon fill="green" stroke="green" stroke-width="0.229307" points="1482.98,-86.4321 1472.49,-84.888 1479.73,-92.6316 1482.98,-86.4321"/>
</g>
<!-- wallRadar[&#45;0.7,0.7] -->
<g id="node6" class="node"><title>wallRadar[&#45;0.7,0.7]</title>
<polygon fill="lightgray" stroke="black" points="1283.5,-208.149 1197.5,-208.149 1197.5,-190.149 1283.5,-190.149 1283.5,-208.149"/>
<text text-anchor="middle" x="1240.5" y="-196.949" font-family="Times,serif" font-size="9.00">wallRadar[&#45;0.7,0.7]</text>
</g>
<!-- wallRadar[&#45;0.7,0.7]&#45;&gt;Shoot -->
<g id="edge65" class="edge"><title>wallRadar[&#45;0.7,0.7]&#45;&gt;Shoot</title>
<path fill="none" stroke="red" stroke-width="0.291098" d="M1225.66,-190.084C1190.29,-170.868 1100.38,-122.019 1051.81,-95.629"/>
<polygon fill="red" stroke="red" stroke-width="0.291098" points="1053.42,-92.5191 1042.96,-90.8204 1050.07,-98.6699 1053.42,-92.5191"/>
</g>
<!-- wallRadar[&#45;0.7,0.7]&#45;&gt;Move Left/Right -->
<g id="edge61" class="edge"><title>wallRadar[&#45;0.7,0.7]&#45;&gt;Move Left/Right</title>
<path fill="none" stroke="green" stroke-width="0.134856" d="M1283.56,-191.376C1286.92,-190.931 1290.26,-190.515 1293.5,-190.149 1398.91,-178.225 1669.9,-190.647 1769.5,-154.149 1790.03,-146.628 1810.09,-133.866 1827.08,-120.922"/>
<polygon fill="green" stroke="green" stroke-width="0.134856" points="1829.47,-123.502 1835.17,-114.575 1825.14,-117.996 1829.47,-123.502"/>
</g>
<!-- wallRadar[&#45;0.7,0.7]&#45;&gt;5 -->
<g id="edge10" class="edge"><title>wallRadar[&#45;0.7,0.7]&#45;&gt;5</title>
<path fill="none" stroke="red" stroke-width="0.255245" d="M1236.93,-189.896C1229.03,-171.667 1209.88,-127.445 1198.17,-100.394"/>
<polygon fill="red" stroke="red" stroke-width="0.255245" points="1201.26,-98.7423 1194.08,-90.9568 1194.84,-101.524 1201.26,-98.7423"/>
</g>
<!-- wallRadar[&#45;0.7,&#45;0.7] -->
<g id="node7" class="node"><title>wallRadar[&#45;0.7,&#45;0.7]</title>
<polygon fill="lightgray" stroke="black" points="2192,-208.149 2103,-208.149 2103,-190.149 2192,-190.149 2192,-208.149"/>
<text text-anchor="middle" x="2147.5" y="-196.949" font-family="Times,serif" font-size="9.00">wallRadar[&#45;0.7,&#45;0.7]</text>
</g>
<!-- wallRadar[&#45;0.7,&#45;0.7]&#45;&gt;Move Forward/Backward -->
<g id="edge32" class="edge"><title>wallRadar[&#45;0.7,&#45;0.7]&#45;&gt;Move Forward/Backward</title>
<path fill="none" stroke="green" stroke-width="0.221126" d="M2102.73,-191.013C2099.95,-190.687 2097.19,-190.395 2094.5,-190.149 1602.51,-145.204 1471.97,-228.08 983.5,-154.149 916.865,-144.064 843.393,-123.428 788.871,-106.19"/>
<polygon fill="green" stroke="green" stroke-width="0.221126" points="789.851,-102.829 779.26,-103.125 787.724,-109.498 789.851,-102.829"/>
</g>
<!-- wallRadar[&#45;0.7,&#45;0.7]&#45;&gt;Move Left/Right -->
<g id="edge50" class="edge"><title>wallRadar[&#45;0.7,&#45;0.7]&#45;&gt;Move Left/Right</title>
<path fill="none" stroke="green" stroke-width="0.24213" d="M2129.16,-190.084C2089.59,-172.679 1994.75,-130.963 1932.64,-103.645"/>
<polygon fill="green" stroke="green" stroke-width="0.24213" points="1933.9,-100.379 1923.34,-99.5567 1931.09,-106.787 1933.9,-100.379"/>
</g>
<!-- wallRadar[&#45;0.7,&#45;0.7]&#45;&gt;Turn Left/Right -->
<g id="edge72" class="edge"><title>wallRadar[&#45;0.7,&#45;0.7]&#45;&gt;Turn Left/Right</title>
<path fill="none" stroke="green" stroke-width="0.1324" d="M2102.98,-191.352C2100.11,-190.938 2097.27,-190.534 2094.5,-190.149 1968.92,-172.686 1929.07,-201.612 1811.5,-154.149 1791.08,-145.906 1771.1,-132.547 1754.3,-119.306"/>
<polygon fill="green" stroke="green" stroke-width="0.1324" points="1756.3,-116.42 1746.33,-112.839 1751.89,-121.856 1756.3,-116.42"/>
</g>
<!-- wallRadar[0.7,&#45;0.7] -->
<g id="node8" class="node"><title>wallRadar[0.7,&#45;0.7]</title>
<polygon fill="lightgray" stroke="black" points="1179.5,-208.149 1093.5,-208.149 1093.5,-190.149 1179.5,-190.149 1179.5,-208.149"/>
<text text-anchor="middle" x="1136.5" y="-196.949" font-family="Times,serif" font-size="9.00">wallRadar[0.7,&#45;0.7]</text>
</g>
<!-- wallRadar[0.7,&#45;0.7]&#45;&gt;Shoot -->
<g id="edge41" class="edge"><title>wallRadar[0.7,&#45;0.7]&#45;&gt;Shoot</title>
<path fill="none" stroke="green" stroke-width="0.2997" d="M1128.46,-189.896C1111.56,-172.558 1071.76,-131.705 1045.23,-104.477"/>
<polygon fill="green" stroke="green" stroke-width="0.2997" points="1047.61,-101.91 1038.13,-97.19 1042.6,-106.795 1047.61,-101.91"/>
</g>
<!-- wallRadar[0.7,&#45;0.7]&#45;&gt;Turn Left/Right -->
<g id="edge73" class="edge"><title>wallRadar[0.7,&#45;0.7]&#45;&gt;Turn Left/Right</title>
<path fill="none" stroke="red" stroke-width="0.392546" d="M1179.61,-191.387C1182.62,-190.956 1185.6,-190.539 1188.5,-190.149 1327.28,-171.5 1365.24,-186.423 1501.5,-154.149 1554.44,-141.611 1612.39,-119.696 1653.65,-102.598"/>
<polygon fill="red" stroke="red" stroke-width="0.392546" points="1655.1,-105.785 1662.97,-98.6973 1652.4,-99.327 1655.1,-105.785"/>
</g>
<!-- wallRadar[0.7,&#45;0.7]&#45;&gt;5 -->
<g id="edge49" class="edge"><title>wallRadar[0.7,&#45;0.7]&#45;&gt;5</title>
<path fill="none" stroke="green" stroke-width="0.116985" d="M1140.07,-189.896C1147.97,-171.667 1167.12,-127.445 1178.83,-100.394"/>
<polygon fill="green" stroke="green" stroke-width="0.116985" points="1182.16,-101.524 1182.92,-90.9568 1175.74,-98.7423 1182.16,-101.524"/>
</g>
<!-- enemyRadar[RightBack] -->
<g id="node9" class="node"><title>enemyRadar[RightBack]</title>
<polygon fill="lightgray" stroke="black" points="2382.5,-208.149 2278.5,-208.149 2278.5,-190.149 2382.5,-190.149 2382.5,-208.149"/>
<text text-anchor="middle" x="2330.5" y="-196.949" font-family="Times,serif" font-size="9.00">enemyRadar[RightBack]</text>
</g>
<!-- enemyRadar[RightBack]&#45;&gt;Move Left/Right -->
<g id="edge63" class="edge"><title>enemyRadar[RightBack]&#45;&gt;Move Left/Right</title>
<path fill="none" stroke="green" stroke-width="0.35696" d="M2299.87,-190.084C2225.74,-170.563 2035.47,-120.461 1936.46,-94.3891"/>
<polygon fill="green" stroke="green" stroke-width="0.35696" points="1937.15,-90.9521 1926.59,-91.7902 1935.37,-97.7213 1937.15,-90.9521"/>
</g>
<!-- enemyRadar[RightBack]&#45;&gt;Turn Left/Right -->
<g id="edge12" class="edge"><title>enemyRadar[RightBack]&#45;&gt;Turn Left/Right</title>
<path fill="none" stroke="green" stroke-width="0.108454" d="M2278.28,-191.119C2275.31,-190.776 2272.37,-190.45 2269.5,-190.149 2167.96,-179.508 1907.06,-190.079 1811.5,-154.149 1790.71,-146.332 1770.52,-132.92 1753.66,-119.514"/>
<polygon fill="green" stroke="green" stroke-width="0.108454" points="1755.61,-116.592 1745.66,-112.958 1751.17,-122.005 1755.61,-116.592"/>
</g>
<!-- enemyRadar[RightBack]&#45;&gt;6 -->
<g id="edge69" class="edge"><title>enemyRadar[RightBack]&#45;&gt;6</title>
<path fill="none" stroke="green" stroke-width="0.299283" d="M2278.28,-191.049C2275.32,-190.724 2272.37,-190.421 2269.5,-190.149 1994.7,-164.186 1918.9,-214.229 1649.5,-154.149 1586.06,-140 1516.26,-107.224 1481.59,-89.6688"/>
<polygon fill="green" stroke="green" stroke-width="0.299283" points="1482.88,-86.3992 1472.39,-84.9475 1479.69,-92.627 1482.88,-86.3992"/>
</g>
<!-- enemyRadar[LeftBack] -->
<g id="node10" class="node"><title>enemyRadar[LeftBack]</title>
<polygon fill="lightgray" stroke="black" points="1401,-208.149 1302,-208.149 1302,-190.149 1401,-190.149 1401,-208.149"/>
<text text-anchor="middle" x="1351.5" y="-196.949" font-family="Times,serif" font-size="9.00">enemyRadar[LeftBack]</text>
</g>
<!-- enemyRadar[LeftBack]&#45;&gt;5 -->
<g id="edge24" class="edge"><title>enemyRadar[LeftBack]&#45;&gt;5</title>
<path fill="none" stroke="red" stroke-width="0.218361" d="M1340.55,-190.084C1313.56,-170.198 1243.48,-118.573 1208.69,-92.9499"/>
<polygon fill="red" stroke="red" stroke-width="0.218361" points="1210.4,-89.8579 1200.27,-86.7448 1206.25,-95.4938 1210.4,-89.8579"/>
</g>
<!-- enemyRadar[LeftBack]&#45;&gt;6 -->
<g id="edge34" class="edge"><title>enemyRadar[LeftBack]&#45;&gt;6</title>
<path fill="none" stroke="red" stroke-width="0.159053" d="M1358.92,-189.896C1376.2,-170.689 1419.43,-122.626 1443.2,-96.1958"/>
<polygon fill="red" stroke="red" stroke-width="0.159053" points="1445.82,-98.5193 1449.9,-88.7436 1440.61,-93.8381 1445.82,-98.5193"/>
</g>
<!-- enemyRadar[Right] -->
<g id="node11" class="node"><title>enemyRadar[Right]</title>
<polygon fill="lightgray" stroke="black" points="809.5,-208.149 723.5,-208.149 723.5,-190.149 809.5,-190.149 809.5,-208.149"/>
<text text-anchor="middle" x="766.5" y="-196.949" font-family="Times,serif" font-size="9.00">enemyRadar[Right]</text>
</g>
<!-- enemyRadar[Right]&#45;&gt;Shoot -->
<g id="edge71" class="edge"><title>enemyRadar[Right]&#45;&gt;Shoot</title>
<path fill="none" stroke="green" stroke-width="0.137074" d="M783.493,-190.084C824.882,-170.441 931.514,-119.833 986.149,-93.9031"/>
<polygon fill="green" stroke="green" stroke-width="0.137074" points="987.869,-96.9611 995.402,-89.5114 984.868,-90.6372 987.869,-96.9611"/>
</g>
<!-- enemyRadar[Right]&#45;&gt;Move Forward/Backward -->
<g id="edge9" class="edge"><title>enemyRadar[Right]&#45;&gt;Move Forward/Backward</title>
<path fill="none" stroke="green" stroke-width="0.35113" d="M762.376,-189.896C758.488,-182.116 752.235,-169.601 745.292,-155.708"/>
<polygon fill="green" stroke="green" stroke-width="0.35113" points="748.249,-153.795 740.649,-146.414 741.988,-156.924 748.249,-153.795"/>
</g>
<!-- enemyRadar[Right]&#45;&gt;5 -->
<g id="edge70" class="edge"><title>enemyRadar[Right]&#45;&gt;5</title>
<path fill="none" stroke="green" stroke-width="0.449948" d="M809.507,-191.652C889.68,-179.534 1054.05,-154.654 1055.5,-154.149 1098.45,-139.18 1143.37,-110.266 1168.46,-92.715"/>
<polygon fill="green" stroke="green" stroke-width="0.449948" points="1170.64,-95.4568 1176.76,-86.81 1166.58,-89.7516 1170.64,-95.4568"/>
</g>
<!-- enemyRadar[Right]&#45;&gt;6 -->
<g id="edge52" class="edge"><title>enemyRadar[Right]&#45;&gt;6</title>
<path fill="none" stroke="green" stroke-width="0.301466" d="M809.568,-191.419C812.925,-190.964 816.266,-190.535 819.5,-190.149 1001.58,-168.455 1050.94,-191.306 1230.5,-154.149 1308.22,-138.067 1396.32,-104.126 1436.87,-87.5656"/>
<polygon fill="green" stroke="green" stroke-width="0.301466" points="1438.21,-90.7989 1446.12,-83.7512 1435.54,-84.3274 1438.21,-90.7989"/>
</g>
<!-- enemyRadar[Left] -->
<g id="node12" class="node"><title>enemyRadar[Left]</title>
<polygon fill="lightgray" stroke="black" points="1500,-208.149 1419,-208.149 1419,-190.149 1500,-190.149 1500,-208.149"/>
<text text-anchor="middle" x="1459.5" y="-196.949" font-family="Times,serif" font-size="9.00">enemyRadar[Left]</text>
</g>
<!-- enemyRadar[Left]&#45;&gt;Shoot -->
<g id="edge7" class="edge"><title>enemyRadar[Left]&#45;&gt;Shoot</title>
<path fill="none" stroke="green" stroke-width="0.102785" d="M1418.87,-191.462C1416.04,-191.013 1413.23,-190.571 1410.5,-190.149 1301.3,-173.246 1269.59,-188.304 1164.5,-154.149 1122.78,-140.591 1078.68,-115.739 1050.22,-98.1341"/>
<polygon fill="green" stroke="green" stroke-width="0.102785" points="1051.88,-95.046 1041.55,-92.6962 1048.16,-100.976 1051.88,-95.046"/>
</g>
<!-- enemyRadar[Left]&#45;&gt;Turn Left/Right -->
<g id="edge55" class="edge"><title>enemyRadar[Left]&#45;&gt;Turn Left/Right</title>
<path fill="none" stroke="green" stroke-width="0.40504" d="M1476.29,-190.084C1512.17,-172.85 1597.68,-131.781 1654.58,-104.455"/>
<polygon fill="green" stroke="green" stroke-width="0.40504" points="1656.3,-107.51 1663.8,-100.025 1653.27,-101.2 1656.3,-107.51"/>
</g>
<!-- enemyRadar[Left]&#45;&gt;5 -->
<g id="edge29" class="edge"><title>enemyRadar[Left]&#45;&gt;5</title>
<path fill="none" stroke="green" stroke-width="0.155253" d="M1441.3,-190.084C1393.36,-168.843 1263.7,-111.393 1211.11,-88.094"/>
<polygon fill="green" stroke="green" stroke-width="0.155253" points="1212.51,-84.8847 1201.95,-84.0336 1209.67,-91.2846 1212.51,-84.8847"/>
</g>
<!-- enemyRadar[Left]&#45;&gt;6 -->
<g id="edge46" class="edge"><title>enemyRadar[Left]&#45;&gt;6</title>
<path fill="none" stroke="green" stroke-width="0.31877" d="M1459.5,-189.896C1459.5,-172.107 1459.5,-129.564 1459.5,-102.382"/>
<polygon fill="green" stroke="green" stroke-width="0.31877" points="1463,-102.126 1459.5,-92.1261 1456,-102.126 1463,-102.126"/>
</g>
<!-- enemyRadar[RightFront30] -->
<g id="node13" class="node"><title>enemyRadar[RightFront30]</title>
<polygon fill="lightgray" stroke="black" points="2085,-208.149 1970,-208.149 1970,-190.149 2085,-190.149 2085,-208.149"/>
<text text-anchor="middle" x="2027.5" y="-196.949" font-family="Times,serif" font-size="9.00">enemyRadar[RightFront30]</text>
</g>
<!-- enemyRadar[RightFront30]&#45;&gt;Move Left/Right -->
<g id="edge31" class="edge"><title>enemyRadar[RightFront30]&#45;&gt;Move Left/Right</title>
<path fill="none" stroke="red" stroke-width="0.294134" d="M2016.98,-189.896C1998.19,-175.145 1957.7,-143.373 1924.68,-117.452"/>
<polygon fill="red" stroke="red" stroke-width="0.294134" points="1926.48,-114.423 1916.46,-111.002 1922.16,-119.929 1926.48,-114.423"/>
</g>
<!-- enemyRadar[RightFront30]&#45;&gt;Turn Left/Right -->
<g id="edge60" class="edge"><title>enemyRadar[RightFront30]&#45;&gt;Turn Left/Right</title>
<path fill="none" stroke="green" stroke-width="0.384511" d="M1974.46,-190.074C1920.24,-181.334 1840.06,-166.932 1811.5,-154.149 1791.4,-145.152 1771.49,-131.626 1754.66,-118.463"/>
<polygon fill="green" stroke="green" stroke-width="0.384511" points="1756.66,-115.575 1746.67,-112.051 1752.28,-121.037 1756.66,-115.575"/>
</g>
<!-- enemyRadar[RightFront30]&#45;&gt;5 -->
<g id="edge79" class="edge"><title>enemyRadar[RightFront30]&#45;&gt;5</title>
<path fill="none" stroke="red" stroke-width="0.299697" d="M1969.78,-191.07C1966.64,-190.744 1963.53,-190.434 1960.5,-190.149 1727.64,-168.278 1665.45,-196.854 1435.5,-154.149 1351.14,-138.482 1254.98,-103.771 1211.73,-87.2104"/>
<polygon fill="red" stroke="red" stroke-width="0.299697" points="1212.74,-83.8468 1202.15,-83.505 1210.21,-90.3758 1212.74,-83.8468"/>
</g>
<!-- enemyRadar[RightFront30]&#45;&gt;6 -->
<g id="edge58" class="edge"><title>enemyRadar[RightFront30]&#45;&gt;6</title>
<path fill="none" stroke="red" stroke-width="0.120096" d="M1969.76,-191.241C1966.63,-190.871 1963.52,-190.505 1960.5,-190.149 1822.31,-173.901 1784.39,-188.311 1649.5,-154.149 1586.49,-138.191 1516.51,-106.191 1481.69,-89.2266"/>
<polygon fill="red" stroke="red" stroke-width="0.120096" points="1482.97,-85.9539 1472.45,-84.6721 1479.88,-92.2327 1482.97,-85.9539"/>
</g>
<!-- enemyRadar[LeftFront30] -->
<g id="node14" class="node"><title>enemyRadar[LeftFront30]</title>
<polygon fill="lightgray" stroke="black" points="1628.5,-208.149 1518.5,-208.149 1518.5,-190.149 1628.5,-190.149 1628.5,-208.149"/>
<text text-anchor="middle" x="1573.5" y="-196.949" font-family="Times,serif" font-size="9.00">enemyRadar[LeftFront30]</text>
</g>
<!-- enemyRadar[LeftFront30]&#45;&gt;Jump/Crouch -->
<g id="edge28" class="edge"><title>enemyRadar[LeftFront30]&#45;&gt;Jump/Crouch</title>
<path fill="none" stroke="red" stroke-width="0.108959" d="M1518.37,-190.96C1515.37,-190.662 1512.4,-190.389 1509.5,-190.149 1115.41,-157.597 1011.91,-210.442 620.5,-154.149 531.103,-141.292 429.812,-113.12 369.646,-94.9013"/>
<polygon fill="red" stroke="red" stroke-width="0.108959" points="370.575,-91.5256 359.989,-91.9556 368.533,-98.221 370.575,-91.5256"/>
</g>
<!-- enemyRadar[LeftFront30]&#45;&gt;Move Left/Right -->
<g id="edge27" class="edge"><title>enemyRadar[LeftFront30]&#45;&gt;Move Left/Right</title>
<path fill="none" stroke="red" stroke-width="0.170377" d="M1619.36,-190.073C1668.54,-181.022 1743.12,-166.056 1769.5,-154.149 1789.25,-145.237 1808.99,-132.273 1825.94,-119.563"/>
<polygon fill="red" stroke="red" stroke-width="0.170377" points="1828.22,-122.226 1834.02,-113.363 1823.96,-116.672 1828.22,-122.226"/>
</g>
<!-- enemyRadar[LeftFront30]&#45;&gt;6 -->
<g id="edge14" class="edge"><title>enemyRadar[LeftFront30]&#45;&gt;6</title>
<path fill="none" stroke="green" stroke-width="0.205306" d="M1565.66,-189.896C1547.34,-170.593 1501.34,-122.145 1476.33,-95.801"/>
<polygon fill="green" stroke="green" stroke-width="0.205306" points="1478.72,-93.234 1469.3,-88.3917 1473.64,-98.0537 1478.72,-93.234"/>
</g>
<!-- enemyRadar[RightFront10] -->
<g id="node15" class="node"><title>enemyRadar[RightFront10]</title>
<polygon fill="lightgray" stroke="black" points="115,-208.149 7.10543e-15,-208.149 7.10543e-15,-190.149 115,-190.149 115,-208.149"/>
<text text-anchor="middle" x="57.5" y="-196.949" font-family="Times,serif" font-size="9.00">enemyRadar[RightFront10]</text>
</g>
<!-- enemyRadar[RightFront10]&#45;&gt;Shoot -->
<g id="edge13" class="edge"><title>enemyRadar[RightFront10]&#45;&gt;Shoot</title>
<path fill="none" stroke="red" stroke-width="0.223938" d="M115.219,-191.011C118.356,-190.7 121.465,-190.41 124.5,-190.149 428.69,-164.036 511.323,-215.032 810.5,-154.149 874.78,-141.068 945.783,-111.848 986.281,-93.6688"/>
<polygon fill="red" stroke="red" stroke-width="0.223938" points="987.754,-96.8438 995.413,-89.5234 984.86,-90.4697 987.754,-96.8438"/>
</g>
<!-- enemyRadar[RightFront10]&#45;&gt;Jump/Crouch -->
<g id="edge53" class="edge"><title>enemyRadar[RightFront10]&#45;&gt;Jump/Crouch</title>
<path fill="none" stroke="red" stroke-width="0.159147" d="M74.8959,-190.084C113.438,-172.216 207.248,-128.725 265.984,-101.494"/>
<polygon fill="red" stroke="red" stroke-width="0.159147" points="267.496,-104.651 275.096,-97.27 264.551,-98.3007 267.496,-104.651"/>
</g>
<!-- enemyRadar[RightFront10]&#45;&gt;Move Forward/Backward -->
<g id="edge20" class="edge"><title>enemyRadar[RightFront10]&#45;&gt;Move Forward/Backward</title>
<path fill="none" stroke="green" stroke-width="0.260633" d="M115.315,-191.222C196.009,-181.427 338.266,-163.665 389.5,-154.149 469.126,-139.36 558.779,-117.335 622.372,-100.784"/>
<polygon fill="green" stroke="green" stroke-width="0.260633" points="623.559,-104.092 632.349,-98.1771 621.789,-97.3193 623.559,-104.092"/>
</g>
<!-- enemyRadar[LeftFront10] -->
<g id="node16" class="node"><title>enemyRadar[LeftFront10]</title>
<polygon fill="lightgray" stroke="black" points="569.5,-208.149 459.5,-208.149 459.5,-190.149 569.5,-190.149 569.5,-208.149"/>
<text text-anchor="middle" x="514.5" y="-196.949" font-family="Times,serif" font-size="9.00">enemyRadar[LeftFront10]</text>
</g>
<!-- enemyRadar[LeftFront10]&#45;&gt;Move Forward/Backward -->
<g id="edge5" class="edge"><title>enemyRadar[LeftFront10]&#45;&gt;Move Forward/Backward</title>
<path fill="none" stroke="red" stroke-width="0.26416" d="M527.396,-190.084C548.814,-176.69 593.254,-148.897 632.507,-124.349"/>
<polygon fill="red" stroke="red" stroke-width="0.26416" points="634.689,-127.113 641.311,-118.843 630.977,-121.178 634.689,-127.113"/>
</g>
<!-- enemyRadar[LeftFront10]&#45;&gt;5 -->
<g id="edge33" class="edge"><title>enemyRadar[LeftFront10]&#45;&gt;5</title>
<path fill="none" stroke="red" stroke-width="0.129471" d="M569.639,-191.083C572.635,-190.753 575.603,-190.439 578.5,-190.149 790.044,-168.958 852.233,-216.459 1055.5,-154.149 1099.22,-140.748 1144.19,-111.046 1169.02,-92.9747"/>
<polygon fill="red" stroke="red" stroke-width="0.129471" points="1171.27,-95.6631 1177.22,-86.895 1167.1,-90.0406 1171.27,-95.6631"/>
</g>
<!-- enemyRadar[RightFront3.5] -->
<g id="node17" class="node"><title>enemyRadar[RightFront3.5]</title>
<polygon fill="lightgray" stroke="black" points="945,-208.149 828,-208.149 828,-190.149 945,-190.149 945,-208.149"/>
<text text-anchor="middle" x="886.5" y="-196.949" font-family="Times,serif" font-size="9.00">enemyRadar[RightFront3.5]</text>
</g>
<!-- enemyRadar[RightFront3.5]&#45;&gt;Move Forward/Backward -->
<g id="edge35" class="edge"><title>enemyRadar[RightFront3.5]&#45;&gt;Move Forward/Backward</title>
<path fill="none" stroke="green" stroke-width="0.131025" d="M874.41,-190.084C854.853,-177.038 814.821,-150.333 778.749,-126.271"/>
<polygon fill="green" stroke="green" stroke-width="0.131025" points="780.424,-123.181 770.163,-120.543 776.54,-129.004 780.424,-123.181"/>
</g>
<!-- enemyRadar[RightFront3.5]&#45;&gt;Turn Left/Right -->
<g id="edge43" class="edge"><title>enemyRadar[RightFront3.5]&#45;&gt;Turn Left/Right</title>
<path fill="none" stroke="green" stroke-width="0.127372" d="M945.085,-191.063C948.268,-190.739 951.422,-190.431 954.5,-190.149 1197.12,-167.909 1263.12,-204.503 1501.5,-154.149 1554.9,-142.869 1613.03,-120.71 1654.23,-103.204"/>
<polygon fill="green" stroke="green" stroke-width="0.127372" points="1655.73,-106.368 1663.53,-99.2052 1652.96,-99.9365 1655.73,-106.368"/>
</g>
<!-- enemyRadar[LeftFront3.5] -->
<g id="node18" class="node"><title>enemyRadar[LeftFront3.5]</title>
<polygon fill="lightgray" stroke="black" points="1951.5,-208.149 1839.5,-208.149 1839.5,-190.149 1951.5,-190.149 1951.5,-208.149"/>
<text text-anchor="middle" x="1895.5" y="-196.949" font-family="Times,serif" font-size="9.00">enemyRadar[LeftFront3.5]</text>
</g>
<!-- enemyRadar[LeftFront3.5]&#45;&gt;Shoot -->
<g id="edge39" class="edge"><title>enemyRadar[LeftFront3.5]&#45;&gt;Shoot</title>
<path fill="none" stroke="green" stroke-width="0.15646" d="M1839.15,-190.975C1836.23,-190.678 1833.33,-190.4 1830.5,-190.149 1682.86,-177.089 1307.4,-193.481 1164.5,-154.149 1122.21,-142.509 1078.22,-117.263 1049.95,-99.0422"/>
<polygon fill="green" stroke="green" stroke-width="0.15646" points="1051.62,-95.9558 1041.34,-93.3992 1047.78,-101.81 1051.62,-95.9558"/>
</g>
<!-- enemyRadar[LeftFront3.5]&#45;&gt;Move Left/Right -->
<g id="edge44" class="edge"><title>enemyRadar[LeftFront3.5]&#45;&gt;Move Left/Right</title>
<path fill="none" stroke="green" stroke-width="0.357712" d="M1894.06,-189.896C1892.2,-179.29 1888.81,-159.884 1885.36,-140.18"/>
<polygon fill="green" stroke="green" stroke-width="0.357712" points="1888.79,-139.457 1883.62,-130.209 1881.89,-140.663 1888.79,-139.457"/>
</g>
<!-- enemyRadar[LeftFront3.5]&#45;&gt;Turn Left/Right -->
<g id="edge47" class="edge"><title>enemyRadar[LeftFront3.5]&#45;&gt;Turn Left/Right</title>
<path fill="none" stroke="red" stroke-width="0.713726" d="M1878.33,-190.146C1861.03,-181.859 1833.79,-168.178 1811.5,-154.149 1793.18,-142.622 1773.95,-128.777 1757.18,-116.075"/>
<polygon fill="red" stroke="red" stroke-width="0.713726" points="1759.23,-113.238 1749.16,-109.947 1754.98,-118.8 1759.23,-113.238"/>
</g>
<!-- enemyRadar[LeftFront3.5]&#45;&gt;5 -->
<g id="edge67" class="edge"><title>enemyRadar[LeftFront3.5]&#45;&gt;5</title>
<path fill="none" stroke="green" stroke-width="0.457195" d="M1839.49,-191.142C1836.45,-190.797 1833.44,-190.464 1830.5,-190.149 1655.22,-171.38 1608.45,-188.278 1435.5,-154.149 1351.32,-137.537 1255.08,-103.293 1211.77,-87.029"/>
<polygon fill="green" stroke="green" stroke-width="0.457195" points="1212.76,-83.663 1202.17,-83.3926 1210.28,-90.2089 1212.76,-83.663"/>
</g>
<!-- enemyRadar[LeftFront3.5]&#45;&gt;6 -->
<g id="edge78" class="edge"><title>enemyRadar[LeftFront3.5]&#45;&gt;6</title>
<path fill="none" stroke="green" stroke-width="0.312234" d="M1843.41,-190.111C1782.37,-180.469 1685.06,-164.332 1649.5,-154.149 1587.01,-136.253 1516.8,-105.085 1481.82,-88.7532"/>
<polygon fill="green" stroke="green" stroke-width="0.312234" points="1483.07,-85.473 1472.53,-84.3774 1480.09,-91.8055 1483.07,-85.473"/>
</g>
<!-- enemyRadar[RightFront1.5] -->
<g id="node19" class="node"><title>enemyRadar[RightFront1.5]</title>
<polygon fill="lightgray" stroke="black" points="705,-208.149 588,-208.149 588,-190.149 705,-190.149 705,-208.149"/>
<text text-anchor="middle" x="646.5" y="-196.949" font-family="Times,serif" font-size="9.00">enemyRadar[RightFront1.5]</text>
</g>
<!-- enemyRadar[RightFront1.5]&#45;&gt;Shoot -->
<g id="edge54" class="edge"><title>enemyRadar[RightFront1.5]&#45;&gt;Shoot</title>
<path fill="none" stroke="red" stroke-width="0.573697" d="M679.727,-190.137C713.032,-181.895 765.659,-168.296 810.5,-154.149 872.756,-134.508 943.934,-107.631 985.099,-91.6413"/>
<polygon fill="red" stroke="red" stroke-width="0.573697" points="986.602,-94.8119 994.647,-87.9183 984.059,-88.2901 986.602,-94.8119"/>
</g>
<!-- enemyRadar[RightFront1.5]&#45;&gt;Move Forward/Backward -->
<g id="edge23" class="edge"><title>enemyRadar[RightFront1.5]&#45;&gt;Move Forward/Backward</title>
<path fill="none" stroke="red" stroke-width="0.173752" d="M650.624,-189.896C654.512,-182.116 660.765,-169.601 667.708,-155.708"/>
<polygon fill="red" stroke="red" stroke-width="0.173752" points="671.012,-156.924 672.351,-146.414 664.751,-153.795 671.012,-156.924"/>
</g>
<!-- enemyRadar[RightFront1.5]&#45;&gt;Turn Left/Right -->
<g id="edge56" class="edge"><title>enemyRadar[RightFront1.5]&#45;&gt;Turn Left/Right</title>
<path fill="none" stroke="red" stroke-width="0.12842" d="M705.079,-190.989C708.264,-190.683 711.42,-190.401 714.5,-190.149 1063.48,-161.676 1158.21,-223.084 1501.5,-154.149 1555.01,-143.404 1613.13,-121.187 1654.29,-103.523"/>
<polygon fill="red" stroke="red" stroke-width="0.12842" points="1655.81,-106.678 1663.59,-99.4851 1653.03,-100.257 1655.81,-106.678"/>
</g>
<!-- enemyRadar[LeftFront1.5] -->
<g id="node20" class="node"><title>enemyRadar[LeftFront1.5]</title>
<polygon fill="lightgray" stroke="black" points="1075.5,-208.149 963.5,-208.149 963.5,-190.149 1075.5,-190.149 1075.5,-208.149"/>
<text text-anchor="middle" x="1019.5" y="-196.949" font-family="Times,serif" font-size="9.00">enemyRadar[LeftFront1.5]</text>
</g>
<!-- enemyRadar[LeftFront1.5]&#45;&gt;Shoot -->
<g id="edge51" class="edge"><title>enemyRadar[LeftFront1.5]&#45;&gt;Shoot</title>
<path fill="none" stroke="red" stroke-width="0.254352" stroke-dasharray="1,5" d="M1019.5,-189.896C1019.5,-174.554 1019.5,-140.799 1019.5,-114.366"/>
<polygon fill="red" stroke="red" stroke-width="0.254352" points="1023,-114.286 1019.5,-104.286 1016,-114.286 1023,-114.286"/>
</g>
<!-- enemyRadar[LeftFront1.5]&#45;&gt;Move Forward/Backward -->
<g id="edge74" class="edge"><title>enemyRadar[LeftFront1.5]&#45;&gt;Move Forward/Backward</title>
<path fill="none" stroke="green" stroke-width="0.249801" d="M998.477,-190.084C956.107,-173.83 858.468,-136.373 787.743,-109.241"/>
<polygon fill="green" stroke="green" stroke-width="0.249801" points="788.977,-105.966 778.387,-105.652 786.47,-112.502 788.977,-105.966"/>
</g>
<!-- enemyRadar[LeftFront1.5]&#45;&gt;Move Left/Right -->
<g id="edge40" class="edge"><title>enemyRadar[LeftFront1.5]&#45;&gt;Move Left/Right</title>
<path fill="none" stroke="green" stroke-width="0.463811" d="M1075.84,-190.97C1078.77,-190.674 1081.67,-190.398 1084.5,-190.149 1236.35,-176.831 1625.78,-204.948 1769.5,-154.149 1790.29,-146.8 1810.55,-133.934 1827.63,-120.851"/>
<polygon fill="green" stroke="green" stroke-width="0.463811" points="1830.08,-123.38 1835.75,-114.434 1825.74,-117.888 1830.08,-123.38"/>
</g>
<!-- enemyRadar[LeftFront1.5]&#45;&gt;5 -->
<g id="edge36" class="edge"><title>enemyRadar[LeftFront1.5]&#45;&gt;5</title>
<path fill="none" stroke="green" stroke-width="0.14421" d="M1030.85,-190.084C1059.1,-170.016 1132.83,-117.628 1168.54,-92.2546"/>
<polygon fill="green" stroke="green" stroke-width="0.14421" points="1170.63,-95.0671 1176.75,-86.422 1166.57,-89.3608 1170.63,-95.0671"/>
</g>
<!-- enemyRadar[LeftFront1.5]&#45;&gt;6 -->
<g id="edge3" class="edge"><title>enemyRadar[LeftFront1.5]&#45;&gt;6</title>
<path fill="none" stroke="green" stroke-width="0.239181" d="M1065.55,-190.128C1108.54,-182.268 1174.32,-169.286 1230.5,-154.149 1306.95,-133.554 1395.32,-101.908 1436.35,-86.751"/>
<polygon fill="green" stroke="green" stroke-width="0.239181" points="1437.57,-90.0318 1445.73,-83.2695 1435.14,-83.4696 1437.57,-90.0318"/>
</g>
<!-- OnTarget -->
<g id="node21" class="node"><title>OnTarget</title>
<polygon fill="lightgray" stroke="black" points="2260.5,-208.149 2210.5,-208.149 2210.5,-190.149 2260.5,-190.149 2260.5,-208.149"/>
<text text-anchor="middle" x="2235.5" y="-196.949" font-family="Times,serif" font-size="9.00">OnTarget</text>
</g>
<!-- OnTarget&#45;&gt;Move Left/Right -->
<g id="edge76" class="edge"><title>OnTarget&#45;&gt;Move Left/Right</title>
<path fill="none" stroke="green" stroke-width="0.161503" d="M2211.25,-190.084C2155.27,-171.465 2015.65,-125.023 1934.85,-98.1495"/>
<polygon fill="green" stroke="green" stroke-width="0.161503" points="1935.9,-94.8075 1925.3,-94.9724 1933.69,-101.45 1935.9,-94.8075"/>
</g>
<!-- OnTarget&#45;&gt;Turn Left/Right -->
<g id="edge37" class="edge"><title>OnTarget&#45;&gt;Turn Left/Right</title>
<path fill="none" stroke="green" stroke-width="0.657171" d="M2210.33,-191.815C2207.36,-191.191 2204.37,-190.618 2201.5,-190.149 2029.7,-162.147 1974.01,-216.517 1811.5,-154.149 1790.94,-146.259 1770.93,-132.978 1754.15,-119.701"/>
<polygon fill="green" stroke="green" stroke-width="0.657171" points="1756.15,-116.815 1746.19,-113.208 1751.72,-122.24 1756.15,-116.815"/>
</g>
<!-- OnTarget&#45;&gt;5 -->
<g id="edge75" class="edge"><title>OnTarget&#45;&gt;5</title>
<path fill="none" stroke="red" stroke-width="0.441723" d="M2210.35,-191.686C2207.38,-191.086 2204.38,-190.553 2201.5,-190.149 1863.97,-142.919 1771.24,-212.773 1435.5,-154.149 1350.97,-139.39 1254.9,-104.231 1211.7,-87.3848"/>
<polygon fill="red" stroke="red" stroke-width="0.441723" points="1212.71,-84.0229 1202.13,-83.6131 1210.15,-90.5355 1212.71,-84.0229"/>
</g>
<!-- Health -->
<g id="node22" class="node"><title>Health</title>
<polygon fill="lightgray" stroke="black" points="173.5,-208.149 133.5,-208.149 133.5,-190.149 173.5,-190.149 173.5,-208.149"/>
<text text-anchor="middle" x="153.5" y="-196.949" font-family="Times,serif" font-size="9.00">Health</text>
</g>
<!-- Health&#45;&gt;Jump/Crouch -->
<g id="edge68" class="edge"><title>Health&#45;&gt;Jump/Crouch</title>
<path fill="none" stroke="red" stroke-width="0.179894" d="M164.448,-190.084C186.015,-174.197 235.081,-138.052 271.678,-111.093"/>
<polygon fill="red" stroke="red" stroke-width="0.179894" points="273.775,-113.895 279.751,-105.146 269.623,-108.259 273.775,-113.895"/>
</g>
<!-- Health&#45;&gt;5 -->
<g id="edge26" class="edge"><title>Health&#45;&gt;5</title>
<path fill="none" stroke="green" stroke-width="0.219102" d="M173.653,-191.958C176.597,-191.238 179.61,-190.601 182.5,-190.149 374.331,-160.138 868.918,-207.881 1055.5,-154.149 1099.44,-141.496 1144.33,-111.537 1169.09,-93.2168"/>
<polygon fill="green" stroke="green" stroke-width="0.219102" points="1171.39,-95.8664 1177.26,-87.0475 1167.17,-90.2798 1171.39,-95.8664"/>
</g>
<!-- Jump/Crouch&#45;&gt;Jump/Crouch -->
<g id="edge4" class="edge"><title>Jump/Crouch&#45;&gt;Jump/Crouch</title>
<path fill="none" stroke="green" stroke-width="0.359755" d="M356.476,-99.9496C369.802,-99.9496 380.462,-92.3246 380.462,-77.0746 380.462,-65.8754 374.713,-58.7884 366.381,-55.8136"/>
<polygon fill="green" stroke="green" stroke-width="0.359755" points="366.909,-52.3536 356.476,-54.1996 365.783,-59.2625 366.909,-52.3536"/>
</g>
<!-- Move Forward/Backward&#45;&gt;Move Forward/Backward -->
<g id="edge66" class="edge"><title>Move Forward/Backward&#45;&gt;Move Forward/Backward</title>
<path fill="none" stroke="green" stroke-width="0.139576" d="M780.644,-98.3357C793.029,-95.3609 801.575,-88.2739 801.575,-77.0746 801.575,-69.0252 797.16,-63.1001 790.078,-59.2995"/>
<polygon fill="green" stroke="green" stroke-width="0.139576" points="791.238,-55.9966 780.644,-55.8136 788.811,-62.5627 791.238,-55.9966"/>
</g>
<!-- 5&#45;&gt;5 -->
<g id="edge57" class="edge"><title>5&#45;&gt;5</title>
<path fill="none" stroke="green" stroke-width="0.25231" d="M1195.27,-90.5617C1206.61,-106.59 1221.35,-102.094 1221.35,-77.0746 1221.35,-57.1372 1211.99,-50.2326 1202.45,-56.3608"/>
<polygon fill="green" stroke="green" stroke-width="0.25231" points="1199.84,-54.0263 1195.27,-63.5875 1204.8,-58.9596 1199.84,-54.0263"/>
</g>
<!-- 6&#45;&gt;6 -->
<g id="edge8" class="edge"><title>6&#45;&gt;6</title>
<path fill="none" stroke="red" stroke-width="0.322363" d="M1466.27,-90.5617C1477.61,-106.59 1492.35,-102.094 1492.35,-77.0746 1492.35,-57.1372 1482.99,-50.2326 1473.45,-56.3608"/>
<polygon fill="red" stroke="red" stroke-width="0.322363" points="1470.84,-54.0263 1466.27,-63.5875 1475.8,-58.9596 1470.84,-54.0263"/>
</g>
</g>
</svg>
