<?xml version="1.0" encoding="UTF-8" standalone="no"?>
<!DOCTYPE svg PUBLIC "-//W3C//DTD SVG 1.1//EN"
 "http://www.w3.org/Graphics/SVG/1.1/DTD/svg11.dtd">
<!-- Generated by graphviz version 2.38.0 (20140413.2041)
 -->
<!-- Title: %3 Pages: 1 -->
<svg width="2559pt" height="216pt"
 viewBox="0.00 0.00 2559.00 216.15" xmlns="http://www.w3.org/2000/svg" xmlns:xlink="http://www.w3.org/1999/xlink">
<g id="graph0" class="graph" transform="scale(1 1) rotate(0) translate(4 212.149)">
<title>%3</title>
<polygon fill="white" stroke="none" points="-4,4 -4,-212.149 2555,-212.149 2555,4 -4,4"/>
<!-- wallRadar[1,0] -->
<g id="node1" class="node"><title>wallRadar[1,0]</title>
<polygon fill="lightgray" stroke="black" points="974.5,-208.149 904.5,-208.149 904.5,-190.149 974.5,-190.149 974.5,-208.149"/>
<text text-anchor="middle" x="939.5" y="-196.949" font-family="Times,serif" font-size="9.00">wallRadar[1,0]</text>
</g>
<!-- Shoot -->
<g id="node24" class="node"><title>Shoot</title>
<ellipse fill="lightblue" stroke="black" cx="577.5" cy="-77.0746" rx="26.7407" ry="26.7407"/>
<text text-anchor="middle" x="577.5" y="-74.8746" font-family="Times,serif" font-size="9.00">Shoot</text>
</g>
<!-- wallRadar[1,0]&#45;&gt;Shoot -->
<g id="edge26" class="edge"><title>wallRadar[1,0]&#45;&gt;Shoot</title>
<path fill="none" stroke="green" stroke-width="0.313933" d="M915.186,-190.084C852.656,-169.343 686.048,-114.08 612.84,-89.7968"/>
<polygon fill="green" stroke="green" stroke-width="0.313933" points="613.744,-86.4091 603.15,-86.5827 611.54,-93.0531 613.744,-86.4091"/>
</g>
<!--  Move Left/Right -->
<g id="node26" class="node"><title> Move Left/Right</title>
<ellipse fill="lightblue" stroke="black" cx="990.5" cy="-77.0746" rx="55.3091" ry="55.3091"/>
<text text-anchor="middle" x="990.5" y="-74.8746" font-family="Times,serif" font-size="9.00"> Move Left/Right</text>
</g>
<!-- wallRadar[1,0]&#45;&gt; Move Left/Right -->
<g id="edge10" class="edge"><title>wallRadar[1,0]&#45;&gt; Move Left/Right</title>
<path fill="none" stroke="green" stroke-width="0.131717" d="M943.005,-189.896C947.709,-178.823 956.486,-158.158 965.227,-137.577"/>
<polygon fill="green" stroke="green" stroke-width="0.131717" points="968.538,-138.734 969.226,-128.162 962.095,-135.997 968.538,-138.734"/>
</g>
<!-- Turn left/right -->
<g id="node27" class="node"><title>Turn left/right</title>
<ellipse fill="lightblue" stroke="black" cx="1981.5" cy="-77.0746" rx="46.8387" ry="46.8387"/>
<text text-anchor="middle" x="1981.5" y="-74.8746" font-family="Times,serif" font-size="9.00">Turn left/right</text>
</g>
<!-- wallRadar[1,0]&#45;&gt;Turn left/right -->
<g id="edge27" class="edge"><title>wallRadar[1,0]&#45;&gt;Turn left/right</title>
<path fill="none" stroke="green" stroke-width="0.109403" d="M974.511,-191.424C977.545,-190.95 980.573,-190.516 983.5,-190.149 1212.49,-161.464 1272.2,-180.237 1501.5,-154.149 1655.88,-136.585 1836.54,-104.925 1925.78,-88.5372"/>
<polygon fill="green" stroke="green" stroke-width="0.109403" points="1926.48,-91.9665 1935.68,-86.7122 1925.21,-85.0824 1926.48,-91.9665"/>
</g>
<!-- wallRadar[0,1] -->
<g id="node2" class="node"><title>wallRadar[0,1]</title>
<polygon fill="lightgray" stroke="black" points="1450.5,-208.149 1380.5,-208.149 1380.5,-190.149 1450.5,-190.149 1450.5,-208.149"/>
<text text-anchor="middle" x="1415.5" y="-196.949" font-family="Times,serif" font-size="9.00">wallRadar[0,1]</text>
</g>
<!-- Move Forward/Backward -->
<g id="node25" class="node"><title>Move Forward/Backward</title>
<ellipse fill="lightblue" stroke="black" cx="1415.5" cy="-77.0746" rx="77.1494" ry="77.1494"/>
<text text-anchor="middle" x="1415.5" y="-74.8746" font-family="Times,serif" font-size="9.00">Move Forward/Backward</text>
</g>
<!-- wallRadar[0,1]&#45;&gt;Move Forward/Backward -->
<g id="edge19" class="edge"><title>wallRadar[0,1]&#45;&gt;Move Forward/Backward</title>
<path fill="none" stroke="green" stroke-width="0.299291" d="M1415.5,-189.896C1415.5,-183.793 1415.5,-174.776 1415.5,-164.466"/>
<polygon fill="green" stroke="green" stroke-width="0.299291" points="1419,-164.237 1415.5,-154.237 1412,-164.237 1419,-164.237"/>
</g>
<!-- wallRadar[&#45;1,0] -->
<g id="node3" class="node"><title>wallRadar[&#45;1,0]</title>
<polygon fill="lightgray" stroke="black" points="186,-208.149 113,-208.149 113,-190.149 186,-190.149 186,-208.149"/>
<text text-anchor="middle" x="149.5" y="-196.949" font-family="Times,serif" font-size="9.00">wallRadar[&#45;1,0]</text>
</g>
<!-- wallRadar[&#45;1,0]&#45;&gt;Shoot -->
<g id="edge44" class="edge"><title>wallRadar[&#45;1,0]&#45;&gt;Shoot</title>
<path fill="none" stroke="red" stroke-width="0.400842" d="M178.247,-190.084C254.084,-168.808 459.407,-111.205 542.192,-87.9803"/>
<polygon fill="red" stroke="red" stroke-width="0.400842" points="543.21,-91.3299 551.893,-85.2588 541.319,-84.5901 543.21,-91.3299"/>
</g>
<!-- wallRadar[&#45;1,0]&#45;&gt; Move Left/Right -->
<g id="edge4" class="edge"><title>wallRadar[&#45;1,0]&#45;&gt; Move Left/Right</title>
<path fill="none" stroke="red" stroke-width="0.468716" d="M186.115,-191.488C189.284,-191.001 192.445,-190.546 195.5,-190.149 380.415,-166.152 428.925,-180.633 613.5,-154.149 724.442,-138.231 851.978,-110.481 926.652,-93.2591"/>
<polygon fill="red" stroke="red" stroke-width="0.468716" points="927.878,-96.5677 936.83,-90.9012 926.298,-89.7483 927.878,-96.5677"/>
</g>
<!-- wallRadar[0,&#45;1] -->
<g id="node4" class="node"><title>wallRadar[0,&#45;1]</title>
<polygon fill="lightgray" stroke="black" points="516,-208.149 443,-208.149 443,-190.149 516,-190.149 516,-208.149"/>
<text text-anchor="middle" x="479.5" y="-196.949" font-family="Times,serif" font-size="9.00">wallRadar[0,&#45;1]</text>
</g>
<!-- wallRadar[0,&#45;1]&#45;&gt;Shoot -->
<g id="edge35" class="edge"><title>wallRadar[0,&#45;1]&#45;&gt;Shoot</title>
<path fill="none" stroke="green" stroke-width="0.185559" d="M486.236,-189.896C500.031,-172.994 532.064,-133.746 554.253,-106.558"/>
<polygon fill="green" stroke="green" stroke-width="0.185559" points="557.181,-108.506 560.792,-98.5457 551.758,-104.08 557.181,-108.506"/>
</g>
<!-- wallRadar[0,&#45;1]&#45;&gt;Move Forward/Backward -->
<g id="edge9" class="edge"><title>wallRadar[0,&#45;1]&#45;&gt;Move Forward/Backward</title>
<path fill="none" stroke="green" stroke-width="0.61702" d="M516.107,-191.428C519.278,-190.954 522.442,-190.518 525.5,-190.149 759.458,-161.922 821.08,-186.525 1054.5,-154.149 1150.09,-140.892 1258.2,-116.889 1330.99,-99.3813"/>
<polygon fill="green" stroke="green" stroke-width="0.61702" points="1332.12,-102.708 1341.02,-96.9558 1330.48,-95.9041 1332.12,-102.708"/>
</g>
<!-- wallRadar[0.7,0.7] -->
<g id="node5" class="node"><title>wallRadar[0.7,0.7]</title>
<polygon fill="lightgray" stroke="black" points="2502,-208.149 2419,-208.149 2419,-190.149 2502,-190.149 2502,-208.149"/>
<text text-anchor="middle" x="2460.5" y="-196.949" font-family="Times,serif" font-size="9.00">wallRadar[0.7,0.7]</text>
</g>
<!-- wallRadar[0.7,0.7]&#45;&gt;Turn left/right -->
<g id="edge21" class="edge"><title>wallRadar[0.7,0.7]&#45;&gt;Turn left/right</title>
<path fill="none" stroke="green" stroke-width="0.226036" d="M2428.33,-190.084C2347.92,-169.928 2137.44,-117.166 2036.74,-91.9214"/>
<polygon fill="green" stroke="green" stroke-width="0.226036" points="2037.31,-88.4568 2026.76,-89.4202 2035.61,-95.2468 2037.31,-88.4568"/>
</g>
<!-- wallRadar[&#45;0.7,0.7] -->
<g id="node6" class="node"><title>wallRadar[&#45;0.7,0.7]</title>
<polygon fill="lightgray" stroke="black" points="620.5,-208.149 534.5,-208.149 534.5,-190.149 620.5,-190.149 620.5,-208.149"/>
<text text-anchor="middle" x="577.5" y="-196.949" font-family="Times,serif" font-size="9.00">wallRadar[&#45;0.7,0.7]</text>
</g>
<!-- wallRadar[&#45;0.7,0.7]&#45;&gt;Shoot -->
<g id="edge38" class="edge"><title>wallRadar[&#45;0.7,0.7]&#45;&gt;Shoot</title>
<path fill="none" stroke="green" stroke-width="0.335773" d="M577.5,-189.896C577.5,-174.554 577.5,-140.799 577.5,-114.366"/>
<polygon fill="green" stroke="green" stroke-width="0.335773" points="581,-114.286 577.5,-104.286 574,-114.286 581,-114.286"/>
</g>
<!-- wallRadar[&#45;0.7,0.7]&#45;&gt;Move Forward/Backward -->
<g id="edge46" class="edge"><title>wallRadar[&#45;0.7,0.7]&#45;&gt;Move Forward/Backward</title>
<path fill="none" stroke="red" stroke-width="0.206611" d="M620.599,-191.287C623.608,-190.879 626.598,-190.495 629.5,-190.149 817.734,-167.724 866.954,-181.746 1054.5,-154.149 1149.82,-140.123 1257.76,-116.314 1330.58,-99.0618"/>
<polygon fill="red" stroke="red" stroke-width="0.206611" points="1331.7,-102.393 1340.62,-96.6726 1330.08,-95.5834 1331.7,-102.393"/>
</g>
<!-- wallRadar[&#45;0.7,&#45;0.7] -->
<g id="node7" class="node"><title>wallRadar[&#45;0.7,&#45;0.7]</title>
<polygon fill="lightgray" stroke="black" points="2088,-208.149 1999,-208.149 1999,-190.149 2088,-190.149 2088,-208.149"/>
<text text-anchor="middle" x="2043.5" y="-196.949" font-family="Times,serif" font-size="9.00">wallRadar[&#45;0.7,&#45;0.7]</text>
</g>
<!-- wallRadar[&#45;0.7,&#45;0.7]&#45;&gt;Move Forward/Backward -->
<g id="edge30" class="edge"><title>wallRadar[&#45;0.7,&#45;0.7]&#45;&gt;Move Forward/Backward</title>
<path fill="none" stroke="green" stroke-width="0.147019" d="M2001.32,-190.084C1899.3,-170.578 1637.58,-120.537 1501.14,-94.4489"/>
<polygon fill="green" stroke="green" stroke-width="0.147019" points="1501.61,-90.9765 1491.13,-92.5362 1500.3,-97.852 1501.61,-90.9765"/>
</g>
<!-- wallRadar[&#45;0.7,&#45;0.7]&#45;&gt;Turn left/right -->
<g id="edge31" class="edge"><title>wallRadar[&#45;0.7,&#45;0.7]&#45;&gt;Turn left/right</title>
<path fill="none" stroke="red" stroke-width="0.274515" d="M2039.24,-189.896C2032.64,-177.126 2019.47,-151.602 2007.36,-128.159"/>
<polygon fill="red" stroke="red" stroke-width="0.274515" points="2010.31,-126.248 2002.62,-118.969 2004.09,-129.46 2010.31,-126.248"/>
</g>
<!-- wallRadar[0.7,&#45;0.7] -->
<g id="node8" class="node"><title>wallRadar[0.7,&#45;0.7]</title>
<polygon fill="lightgray" stroke="black" points="2192.5,-208.149 2106.5,-208.149 2106.5,-190.149 2192.5,-190.149 2192.5,-208.149"/>
<text text-anchor="middle" x="2149.5" y="-196.949" font-family="Times,serif" font-size="9.00">wallRadar[0.7,&#45;0.7]</text>
</g>
<!-- wallRadar[0.7,&#45;0.7]&#45;&gt;Move Forward/Backward -->
<g id="edge45" class="edge"><title>wallRadar[0.7,&#45;0.7]&#45;&gt;Move Forward/Backward</title>
<path fill="none" stroke="red" stroke-width="0.146506" d="M2106.33,-191.086C1988.38,-171.791 1659.04,-117.915 1501.53,-92.1489"/>
<polygon fill="red" stroke="red" stroke-width="0.146506" points="1501.85,-88.6535 1491.41,-90.493 1500.72,-95.5616 1501.85,-88.6535"/>
</g>
<!-- wallRadar[0.7,&#45;0.7]&#45;&gt;Turn left/right -->
<g id="edge1" class="edge"><title>wallRadar[0.7,&#45;0.7]&#45;&gt;Turn left/right</title>
<path fill="none" stroke="red" stroke-width="0.217516" d="M2138.22,-190.084C2115.92,-174.148 2065.11,-137.83 2027.35,-110.844"/>
<polygon fill="red" stroke="red" stroke-width="0.217516" points="2029.2,-107.862 2019.02,-104.894 2025.12,-113.557 2029.2,-107.862"/>
</g>
<!-- enemyRadar[RightBack] -->
<g id="node9" class="node"><title>enemyRadar[RightBack]</title>
<polygon fill="lightgray" stroke="black" points="308.5,-208.149 204.5,-208.149 204.5,-190.149 308.5,-190.149 308.5,-208.149"/>
<text text-anchor="middle" x="256.5" y="-196.949" font-family="Times,serif" font-size="9.00">enemyRadar[RightBack]</text>
</g>
<!-- enemyRadar[RightBack]&#45;&gt;Shoot -->
<g id="edge39" class="edge"><title>enemyRadar[RightBack]&#45;&gt;Shoot</title>
<path fill="none" stroke="red" stroke-width="0.3791" d="M278.06,-190.084C332.613,-169.678 476.499,-115.856 542.954,-90.997"/>
<polygon fill="red" stroke="red" stroke-width="0.3791" points="544.414,-94.1879 552.554,-87.4061 541.961,-87.6316 544.414,-94.1879"/>
</g>
<!-- enemyRadar[RightBack]&#45;&gt; Move Left/Right -->
<g id="edge7" class="edge"><title>enemyRadar[RightBack]&#45;&gt; Move Left/Right</title>
<path fill="none" stroke="red" stroke-width="0.110499" d="M308.739,-191.265C311.703,-190.885 314.639,-190.511 317.5,-190.149 448.979,-173.533 482.669,-175.272 613.5,-154.149 724.145,-136.285 851.774,-109.141 926.546,-92.5672"/>
<polygon fill="red" stroke="red" stroke-width="0.110499" points="927.737,-95.888 936.739,-90.3007 926.217,-89.0549 927.737,-95.888"/>
</g>
<!-- enemyRadar[LeftBack] -->
<g id="node10" class="node"><title>enemyRadar[LeftBack]</title>
<polygon fill="lightgray" stroke="black" points="1568,-208.149 1469,-208.149 1469,-190.149 1568,-190.149 1568,-208.149"/>
<text text-anchor="middle" x="1518.5" y="-196.949" font-family="Times,serif" font-size="9.00">enemyRadar[LeftBack]</text>
</g>
<!-- enemyRadar[LeftBack]&#45;&gt;Move Forward/Backward -->
<g id="edge17" class="edge"><title>enemyRadar[LeftBack]&#45;&gt;Move Forward/Backward</title>
<path fill="none" stroke="red" stroke-width="0.122276" d="M1511.42,-189.896C1502.91,-179.975 1487.79,-162.354 1472.04,-143.992"/>
<polygon fill="red" stroke="red" stroke-width="0.122276" points="1474.44,-141.409 1465.27,-136.098 1469.13,-145.967 1474.44,-141.409"/>
</g>
<!-- enemyRadar[Right45ø] -->
<g id="node11" class="node"><title>enemyRadar[Right45ø]</title>
<polygon fill="lightgray" stroke="black" points="1092.5,-208.149 992.5,-208.149 992.5,-190.149 1092.5,-190.149 1092.5,-208.149"/>
<text text-anchor="middle" x="1042.5" y="-196.949" font-family="Times,serif" font-size="9.00">enemyRadar[Right45ø]</text>
</g>
<!-- enemyRadar[Right45ø]&#45;&gt;Shoot -->
<g id="edge41" class="edge"><title>enemyRadar[Right45ø]&#45;&gt;Shoot</title>
<path fill="none" stroke="red" stroke-width="0.166882" d="M1011.27,-190.084C928.021,-168.588 701.167,-110.009 613.11,-87.27"/>
<polygon fill="red" stroke="red" stroke-width="0.166882" points="613.878,-83.8536 603.32,-84.7421 612.128,-90.6313 613.878,-83.8536"/>
</g>
<!-- enemyRadar[Right45ø]&#45;&gt; Move Left/Right -->
<g id="edge29" class="edge"><title>enemyRadar[Right45ø]&#45;&gt; Move Left/Right</title>
<path fill="none" stroke="green" stroke-width="0.614491" d="M1038.93,-189.896C1034.11,-178.777 1025.11,-157.986 1016.16,-137.321"/>
<polygon fill="green" stroke="green" stroke-width="0.614491" points="1019.25,-135.655 1012.06,-127.87 1012.83,-138.437 1019.25,-135.655"/>
</g>
<!-- enemyRadar[Right45ø]&#45;&gt;Turn left/right -->
<g id="edge12" class="edge"><title>enemyRadar[Right45ø]&#45;&gt;Turn left/right</title>
<path fill="none" stroke="red" stroke-width="0.322934" d="M1092.69,-191.187C1095.67,-190.823 1098.62,-190.474 1101.5,-190.149 1278.87,-170.153 1324.36,-176.132 1501.5,-154.149 1655.69,-135.014 1836.43,-104.043 1925.73,-88.1658"/>
<polygon fill="red" stroke="red" stroke-width="0.322934" points="1926.41,-91.5998 1935.65,-86.399 1925.19,-84.7084 1926.41,-91.5998"/>
</g>
<!-- enemyRadar[Left45ø] -->
<g id="node12" class="node"><title>enemyRadar[Left45ø]</title>
<polygon fill="lightgray" stroke="black" points="95,-208.149 0,-208.149 0,-190.149 95,-190.149 95,-208.149"/>
<text text-anchor="middle" x="47.5" y="-196.949" font-family="Times,serif" font-size="9.00">enemyRadar[Left45ø]</text>
</g>
<!-- enemyRadar[Left45ø]&#45;&gt;Shoot -->
<g id="edge25" class="edge"><title>enemyRadar[Left45ø]&#45;&gt;Shoot</title>
<path fill="none" stroke="red" stroke-width="0.121335" d="M83.0978,-190.084C179.502,-168.243 444.876,-108.121 541.615,-86.2046"/>
<polygon fill="red" stroke="red" stroke-width="0.121335" points="542.522,-89.5879 551.502,-83.9647 540.975,-82.7609 542.522,-89.5879"/>
</g>
<!-- enemyRadar[RightFront20ø] -->
<g id="node13" class="node"><title>enemyRadar[RightFront20ø]</title>
<polygon fill="lightgray" stroke="black" points="1840,-208.149 1721,-208.149 1721,-190.149 1840,-190.149 1840,-208.149"/>
<text text-anchor="middle" x="1780.5" y="-196.949" font-family="Times,serif" font-size="9.00">enemyRadar[RightFront20ø]</text>
</g>
<!-- enemyRadar[RightFront20ø]&#45;&gt; Move Left/Right -->
<g id="edge6" class="edge"><title>enemyRadar[RightFront20ø]&#45;&gt; Move Left/Right</title>
<path fill="none" stroke="green" stroke-width="0.510302" d="M1720.67,-191.133C1717.57,-190.794 1714.5,-190.464 1711.5,-190.149 1541.9,-172.328 1497.92,-180.873 1329.5,-154.149 1232.46,-138.753 1121.67,-112.15 1053.91,-94.8351"/>
<polygon fill="green" stroke="green" stroke-width="0.510302" points="1054.37,-91.342 1043.82,-92.2448 1052.63,-98.122 1054.37,-91.342"/>
</g>
<!-- enemyRadar[RightFront20ø]&#45;&gt;Turn left/right -->
<g id="edge43" class="edge"><title>enemyRadar[RightFront20ø]&#45;&gt;Turn left/right</title>
<path fill="none" stroke="green" stroke-width="0.102342" d="M1794,-190.084C1821.89,-173.422 1887.08,-134.481 1932.71,-107.22"/>
<polygon fill="green" stroke="green" stroke-width="0.102342" points="1934.77,-110.066 1941.56,-101.933 1931.18,-104.057 1934.77,-110.066"/>
</g>
<!-- enemyRadar[LeftFront20ø] -->
<g id="node14" class="node"><title>enemyRadar[LeftFront20ø]</title>
<polygon fill="lightgray" stroke="black" points="1224.5,-208.149 1110.5,-208.149 1110.5,-190.149 1224.5,-190.149 1224.5,-208.149"/>
<text text-anchor="middle" x="1167.5" y="-196.949" font-family="Times,serif" font-size="9.00">enemyRadar[LeftFront20ø]</text>
</g>
<!-- enemyRadar[LeftFront20ø]&#45;&gt;Shoot -->
<g id="edge20" class="edge"><title>enemyRadar[LeftFront20ø]&#45;&gt;Shoot</title>
<path fill="none" stroke="green" stroke-width="0.112594" d="M1120.76,-190.101C1072.14,-181.616 993.852,-167.634 926.5,-154.149 811.877,-131.2 676.827,-100.799 613.583,-86.3646"/>
<polygon fill="green" stroke="green" stroke-width="0.112594" points="614.233,-82.9229 603.704,-84.1063 612.673,-89.7469 614.233,-82.9229"/>
</g>
<!-- enemyRadar[LeftFront20ø]&#45;&gt;Move Forward/Backward -->
<g id="edge24" class="edge"><title>enemyRadar[LeftFront20ø]&#45;&gt;Move Forward/Backward</title>
<path fill="none" stroke="red" stroke-width="0.289073" d="M1184.16,-190.084C1215.01,-175.147 1282.84,-142.306 1337.12,-116.025"/>
<polygon fill="red" stroke="red" stroke-width="0.289073" points="1338.92,-119.043 1346.39,-111.535 1335.87,-112.743 1338.92,-119.043"/>
</g>
<!-- enemyRadar[LeftFront20ø]&#45;&gt; Move Left/Right -->
<g id="edge3" class="edge"><title>enemyRadar[LeftFront20ø]&#45;&gt; Move Left/Right</title>
<path fill="none" stroke="green" stroke-width="0.351587" d="M1155.61,-190.084C1133.2,-174.881 1083.45,-141.129 1044.38,-114.626"/>
<polygon fill="green" stroke="green" stroke-width="0.351587" points="1045.96,-111.465 1035.71,-108.748 1042.03,-117.258 1045.96,-111.465"/>
</g>
<!-- enemyRadar[LeftFront20ø]&#45;&gt;Turn left/right -->
<g id="edge32" class="edge"><title>enemyRadar[LeftFront20ø]&#45;&gt;Turn left/right</title>
<path fill="none" stroke="green" stroke-width="0.427078" d="M1224.59,-191.09C1291.14,-182.755 1404.4,-168.237 1501.5,-154.149 1655.27,-131.84 1836.19,-102.261 1925.63,-87.4158"/>
<polygon fill="green" stroke="green" stroke-width="0.427078" points="1926.27,-90.8583 1935.56,-85.7664 1925.12,-83.953 1926.27,-90.8583"/>
</g>
<!-- enemyRadar[RightFront15ø] -->
<g id="node15" class="node"><title>enemyRadar[RightFront15ø]</title>
<polygon fill="lightgray" stroke="black" points="1362,-208.149 1243,-208.149 1243,-190.149 1362,-190.149 1362,-208.149"/>
<text text-anchor="middle" x="1302.5" y="-196.949" font-family="Times,serif" font-size="9.00">enemyRadar[RightFront15ø]</text>
</g>
<!-- enemyRadar[RightFront15ø]&#45;&gt;Move Forward/Backward -->
<g id="edge11" class="edge"><title>enemyRadar[RightFront15ø]&#45;&gt;Move Forward/Backward</title>
<path fill="none" stroke="red" stroke-width="0.276633" d="M1310.27,-189.896C1320.08,-179.466 1337.91,-160.526 1356.13,-141.163"/>
<polygon fill="red" stroke="red" stroke-width="0.276633" points="1358.81,-143.418 1363.12,-133.737 1353.71,-138.621 1358.81,-143.418"/>
</g>
<!-- enemyRadar[RightFront15ø]&#45;&gt; Move Left/Right -->
<g id="edge33" class="edge"><title>enemyRadar[RightFront15ø]&#45;&gt; Move Left/Right</title>
<path fill="none" stroke="green" stroke-width="0.349864" d="M1281.54,-190.084C1235.15,-172.231 1122.3,-128.799 1051.53,-101.564"/>
<polygon fill="green" stroke="green" stroke-width="0.349864" points="1052.43,-98.1582 1041.84,-97.8329 1049.92,-104.691 1052.43,-98.1582"/>
</g>
<!-- enemyRadar[LeftFront15ø] -->
<g id="node16" class="node"><title>enemyRadar[LeftFront15ø]</title>
<polygon fill="lightgray" stroke="black" points="752.5,-208.149 638.5,-208.149 638.5,-190.149 752.5,-190.149 752.5,-208.149"/>
<text text-anchor="middle" x="695.5" y="-196.949" font-family="Times,serif" font-size="9.00">enemyRadar[LeftFront15ø]</text>
</g>
<!-- enemyRadar[LeftFront15ø]&#45;&gt;Shoot -->
<g id="edge13" class="edge"><title>enemyRadar[LeftFront15ø]&#45;&gt;Shoot</title>
<path fill="none" stroke="red" stroke-width="0.451471" d="M687.389,-189.896C670.255,-172.461 629.754,-131.247 602.999,-104.022"/>
<polygon fill="red" stroke="red" stroke-width="0.451471" points="605.354,-101.425 595.848,-96.7457 600.361,-106.331 605.354,-101.425"/>
</g>
<!-- enemyRadar[LeftFront15ø]&#45;&gt;Move Forward/Backward -->
<g id="edge18" class="edge"><title>enemyRadar[LeftFront15ø]&#45;&gt;Move Forward/Backward</title>
<path fill="none" stroke="green" stroke-width="0.352098" d="M752.53,-191.223C851.932,-179.142 1047.13,-155.376 1054.5,-154.149 1149.54,-138.341 1257.53,-114.844 1330.44,-98.1524"/>
<polygon fill="green" stroke="green" stroke-width="0.352098" points="1331.53,-101.494 1340.49,-95.8438 1329.96,-94.6716 1331.53,-101.494"/>
</g>
<!-- enemyRadar[LeftFront15ø]&#45;&gt; Move Left/Right -->
<g id="edge5" class="edge"><title>enemyRadar[LeftFront15ø]&#45;&gt; Move Left/Right</title>
<path fill="none" stroke="green" stroke-width="0.165744" d="M715.314,-190.084C758.594,-172.468 863.059,-129.947 930.106,-102.657"/>
<polygon fill="green" stroke="green" stroke-width="0.165744" points="931.772,-105.758 939.715,-98.7458 929.133,-99.2741 931.772,-105.758"/>
</g>
<!-- enemyRadar[RightFront7.5ø] -->
<g id="node17" class="node"><title>enemyRadar[RightFront7.5ø]</title>
<polygon fill="lightgray" stroke="black" points="2332.5,-208.149 2210.5,-208.149 2210.5,-190.149 2332.5,-190.149 2332.5,-208.149"/>
<text text-anchor="middle" x="2271.5" y="-196.949" font-family="Times,serif" font-size="9.00">enemyRadar[RightFront7.5ø]</text>
</g>
<!-- enemyRadar[RightFront7.5ø]&#45;&gt;Move Forward/Backward -->
<g id="edge16" class="edge"><title>enemyRadar[RightFront7.5ø]&#45;&gt;Move Forward/Backward</title>
<path fill="none" stroke="red" stroke-width="0.151156" d="M2210.2,-190.759C2141,-182.322 2025.07,-167.905 1925.5,-154.149 1776.54,-133.57 1603.48,-107.243 1502.08,-91.5716"/>
<polygon fill="red" stroke="red" stroke-width="0.151156" points="1502.31,-88.0654 1491.89,-89.9954 1501.24,-94.9831 1502.31,-88.0654"/>
</g>
<!-- enemyRadar[RightFront7.5ø]&#45;&gt;Turn left/right -->
<g id="edge23" class="edge"><title>enemyRadar[RightFront7.5ø]&#45;&gt;Turn left/right</title>
<path fill="none" stroke="green" stroke-width="0.16316" d="M2252.02,-190.084C2207.9,-171.817 2099.1,-126.768 2033.71,-99.6936"/>
<polygon fill="green" stroke="green" stroke-width="0.16316" points="2034.97,-96.4265 2024.39,-95.8347 2032.29,-102.894 2034.97,-96.4265"/>
</g>
<!-- enemyRadar[LeftFront7.5ø] -->
<g id="node18" class="node"><title>enemyRadar[LeftFront7.5ø]</title>
<polygon fill="lightgray" stroke="black" points="1702.5,-208.149 1586.5,-208.149 1586.5,-190.149 1702.5,-190.149 1702.5,-208.149"/>
<text text-anchor="middle" x="1644.5" y="-196.949" font-family="Times,serif" font-size="9.00">enemyRadar[LeftFront7.5ø]</text>
</g>
<!-- enemyRadar[LeftFront7.5ø]&#45;&gt;Move Forward/Backward -->
<g id="edge37" class="edge"><title>enemyRadar[LeftFront7.5ø]&#45;&gt;Move Forward/Backward</title>
<path fill="none" stroke="red" stroke-width="0.151184" d="M1629.12,-190.084C1601.51,-175.605 1541.81,-144.302 1492.52,-118.459"/>
<polygon fill="red" stroke="red" stroke-width="0.151184" points="1493.93,-115.247 1483.45,-113.703 1490.68,-121.446 1493.93,-115.247"/>
</g>
<!-- enemyRadar[RightFront2.5ø] -->
<g id="node19" class="node"><title>enemyRadar[RightFront2.5ø]</title>
<polygon fill="lightgray" stroke="black" points="1980.5,-208.149 1858.5,-208.149 1858.5,-190.149 1980.5,-190.149 1980.5,-208.149"/>
<text text-anchor="middle" x="1919.5" y="-196.949" font-family="Times,serif" font-size="9.00">enemyRadar[RightFront2.5ø]</text>
</g>
<!-- enemyRadar[RightFront2.5ø]&#45;&gt;Move Forward/Backward -->
<g id="edge42" class="edge"><title>enemyRadar[RightFront2.5ø]&#45;&gt;Move Forward/Backward</title>
<path fill="none" stroke="green" stroke-width="0.181643" d="M1885.65,-190.084C1807.66,-171.505 1613.41,-125.225 1500.5,-98.325"/>
<polygon fill="green" stroke="green" stroke-width="0.181643" points="1501.04,-94.8566 1490.5,-95.9436 1499.42,-101.666 1501.04,-94.8566"/>
</g>
<!-- enemyRadar[RightFront2.5ø]&#45;&gt; Move Left/Right -->
<g id="edge14" class="edge"><title>enemyRadar[RightFront2.5ø]&#45;&gt; Move Left/Right</title>
<path fill="none" stroke="red" stroke-width="0.239498" d="M1858.43,-191.008C1855.41,-190.706 1852.42,-190.417 1849.5,-190.149 1618.8,-168.992 1558.74,-187.608 1329.5,-154.149 1232.14,-139.938 1121.21,-112.949 1053.54,-95.2364"/>
<polygon fill="red" stroke="red" stroke-width="0.239498" points="1054.03,-91.7461 1043.46,-92.5849 1052.24,-98.5154 1054.03,-91.7461"/>
</g>
<!-- enemyRadar[RightFront2.5ø]&#45;&gt;Turn left/right -->
<g id="edge34" class="edge"><title>enemyRadar[RightFront2.5ø]&#45;&gt;Turn left/right</title>
<path fill="none" stroke="red" stroke-width="0.588922" d="M1923.76,-189.896C1930.36,-177.126 1943.53,-151.602 1955.64,-128.159"/>
<polygon fill="red" stroke="red" stroke-width="0.588922" points="1958.91,-129.46 1960.38,-118.969 1952.69,-126.248 1958.91,-129.46"/>
</g>
<!-- enemyRadar[LeftFront2.5ø] -->
<g id="node20" class="node"><title>enemyRadar[LeftFront2.5ø]</title>
<polygon fill="lightgray" stroke="black" points="886.5,-208.149 770.5,-208.149 770.5,-190.149 886.5,-190.149 886.5,-208.149"/>
<text text-anchor="middle" x="828.5" y="-196.949" font-family="Times,serif" font-size="9.00">enemyRadar[LeftFront2.5ø]</text>
</g>
<!-- enemyRadar[LeftFront2.5ø]&#45;&gt;Shoot -->
<g id="edge15" class="edge"><title>enemyRadar[LeftFront2.5ø]&#45;&gt;Shoot</title>
<path fill="none" stroke="red" stroke-width="0.630866" d="M811.641,-190.084C770.58,-170.441 664.79,-119.833 610.587,-93.9031"/>
<polygon fill="red" stroke="red" stroke-width="0.630866" points="611.938,-90.6696 601.407,-89.5114 608.918,-96.9843 611.938,-90.6696"/>
</g>
<!-- enemyRadar[LeftFront2.5ø]&#45;&gt;Move Forward/Backward -->
<g id="edge22" class="edge"><title>enemyRadar[LeftFront2.5ø]&#45;&gt;Move Forward/Backward</title>
<path fill="none" stroke="red" stroke-width="0.696071" d="M871.025,-190.073C916.481,-181.392 990.643,-167.093 1054.5,-154.149 1148.93,-135.009 1257.03,-112.096 1330.13,-96.4525"/>
<polygon fill="red" stroke="red" stroke-width="0.696071" points="1331.16,-99.8109 1340.21,-94.2945 1329.69,-92.966 1331.16,-99.8109"/>
</g>
<!-- enemyRadar[LeftFront2.5ø]&#45;&gt; Move Left/Right -->
<g id="edge8" class="edge"><title>enemyRadar[LeftFront2.5ø]&#45;&gt; Move Left/Right</title>
<path fill="none" stroke="red" stroke-width="0.174431" d="M839.381,-190.084C859.347,-175.286 903.024,-142.912 938.312,-116.757"/>
<polygon fill="red" stroke="red" stroke-width="0.174431" points="940.671,-119.365 946.62,-110.598 936.502,-113.741 940.671,-119.365"/>
</g>
<!-- enemyRadar[Front7Ø] -->
<g id="node21" class="node"><title>enemyRadar[Front7Ø]</title>
<polygon fill="lightgray" stroke="black" points="424.5,-208.149 326.5,-208.149 326.5,-190.149 424.5,-190.149 424.5,-208.149"/>
<text text-anchor="middle" x="375.5" y="-196.949" font-family="Times,serif" font-size="9.00">enemyRadar[Front7Ø]</text>
</g>
<!-- enemyRadar[Front7Ø]&#45;&gt;Shoot -->
<g id="edge40" class="edge"><title>enemyRadar[Front7Ø]&#45;&gt;Shoot</title>
<path fill="none" stroke="red" stroke-width="0.13901" d="M389.067,-190.084C420.929,-171.145 501.216,-123.42 546.028,-96.7828"/>
<polygon fill="red" stroke="red" stroke-width="0.13901" points="547.949,-99.7123 554.757,-91.594 544.372,-93.6951 547.949,-99.7123"/>
</g>
<!-- enemyRadar[Front7Ø]&#45;&gt;Move Forward/Backward -->
<g id="edge28" class="edge"><title>enemyRadar[Front7Ø]&#45;&gt;Move Forward/Backward</title>
<path fill="none" stroke="red" stroke-width="0.453355" d="M424.515,-191.111C427.553,-190.761 430.566,-190.436 433.5,-190.149 708.651,-163.241 780.471,-190.756 1054.5,-154.149 1150.15,-141.372 1258.25,-117.284 1331.02,-99.6252"/>
<polygon fill="red" stroke="red" stroke-width="0.453355" points="1332.16,-102.949 1341.05,-97.1779 1330.5,-96.1486 1332.16,-102.949"/>
</g>
<!-- OnTarget -->
<g id="node22" class="node"><title>OnTarget</title>
<polygon fill="lightgray" stroke="black" points="2400.5,-208.149 2350.5,-208.149 2350.5,-190.149 2400.5,-190.149 2400.5,-208.149"/>
<text text-anchor="middle" x="2375.5" y="-196.949" font-family="Times,serif" font-size="9.00">OnTarget</text>
</g>
<!-- OnTarget&#45;&gt;Move Forward/Backward -->
<g id="edge2" class="edge"><title>OnTarget&#45;&gt;Move Forward/Backward</title>
<path fill="none" stroke="red" stroke-width="0.388634" d="M2350.33,-191.799C2347.37,-191.178 2344.37,-190.609 2341.5,-190.149 2158.25,-160.82 2109.81,-175.849 1925.5,-154.149 1775.94,-136.54 1602.72,-109.224 1501.51,-92.5621"/>
<polygon fill="red" stroke="red" stroke-width="0.388634" points="1501.78,-89.059 1491.34,-90.8839 1500.64,-95.9656 1501.78,-89.059"/>
</g>
<!-- OnTarget&#45;&gt;Turn left/right -->
<g id="edge36" class="edge"><title>OnTarget&#45;&gt;Turn left/right</title>
<path fill="none" stroke="red" stroke-width="0.431118" d="M2350.25,-190.455C2287.21,-171.242 2121.76,-120.819 2035.52,-94.5388"/>
<polygon fill="red" stroke="red" stroke-width="0.431118" points="2036.5,-91.1783 2025.92,-91.611 2034.46,-97.8743 2036.5,-91.1783"/>
</g>
<!-- bias -->
<g id="node23" class="node"><title>bias</title>
<polygon fill="lightgray" stroke="black" points="2551,-208.149 2520,-208.149 2520,-190.149 2551,-190.149 2551,-208.149"/>
<text text-anchor="middle" x="2535.5" y="-196.949" font-family="Times,serif" font-size="9.00">bias</text>
</g>
</g>
</svg>
