<?xml version="1.0" encoding="UTF-8" standalone="no"?>
<!DOCTYPE svg PUBLIC "-//W3C//DTD SVG 1.1//EN"
 "http://www.w3.org/Graphics/SVG/1.1/DTD/svg11.dtd">
<!-- Generated by graphviz version 2.38.0 (20140413.2041)
 -->
<!-- Title: %3 Pages: 1 -->
<svg width="2408pt" height="909pt"
 viewBox="0.00 0.00 2407.50 909.38" xmlns="http://www.w3.org/2000/svg" xmlns:xlink="http://www.w3.org/1999/xlink">
<g id="graph0" class="graph" transform="scale(1 1) rotate(0) translate(4 905.384)">
<title>%3</title>
<polygon fill="white" stroke="none" points="-4,4 -4,-905.384 2403.5,-905.384 2403.5,4 -4,4"/>
<!-- wallRadar[1,0] -->
<g id="node1" class="node"><title>wallRadar[1,0]</title>
<polygon fill="lightgray" stroke="black" points="70,-464.189 0,-464.189 0,-446.189 70,-446.189 70,-464.189"/>
<text text-anchor="middle" x="35" y="-452.989" font-family="Times,serif" font-size="9.00">wallRadar[1,0]</text>
</g>
<!-- Move Forward/Backward -->
<g id="node25" class="node"><title>Move Forward/Backward</title>
<ellipse fill="lightblue" stroke="black" cx="270" cy="-314.538" rx="77.1494" ry="77.1494"/>
<text text-anchor="middle" x="270" y="-312.338" font-family="Times,serif" font-size="9.00">Move Forward/Backward</text>
</g>
<!-- wallRadar[1,0]&#45;&gt;Move Forward/Backward -->
<g id="edge11" class="edge"><title>wallRadar[1,0]&#45;&gt;Move Forward/Backward</title>
<path fill="none" stroke="red" stroke-width="0.125288" d="M47.5023,-446.152C56.1986,-440.682 68.1357,-433.412 79,-427.612 112.326,-409.821 123.083,-410.15 156,-391.612 170.164,-383.635 184.888,-374.498 198.863,-365.387"/>
<polygon fill="red" stroke="red" stroke-width="0.125288" points="201.029,-368.152 207.456,-359.729 197.18,-362.305 201.029,-368.152"/>
</g>
<!--  Move Left/Right -->
<g id="node26" class="node"><title> Move Left/Right</title>
<ellipse fill="lightblue" stroke="black" cx="1354" cy="-55.1543" rx="55.3091" ry="55.3091"/>
<text text-anchor="middle" x="1354" y="-52.9543" font-family="Times,serif" font-size="9.00"> Move Left/Right</text>
</g>
<!-- wallRadar[1,0]&#45;&gt; Move Left/Right -->
<g id="edge29" class="edge"><title>wallRadar[1,0]&#45;&gt; Move Left/Right</title>
<path fill="none" stroke="green" stroke-width="0.346876" stroke-dasharray="1,5" d="M33.5096,-446.055C28.1851,-414.197 13.441,-296.755 73,-237.463 246.319,-64.9218 1051.68,-54.7285 1288.4,-55.5328"/>
<polygon fill="green" stroke="green" stroke-width="0.346876" points="1288.56,-59.0334 1298.58,-55.5755 1288.59,-52.0335 1288.56,-59.0334"/>
</g>
<!-- 12531 -->
<g id="node39" class="node"><title>12531</title>
<ellipse fill="white" stroke="black" cx="644" cy="-173.886" rx="27.6545" ry="27.6545"/>
<text text-anchor="middle" x="644" y="-171.686" font-family="Times,serif" font-size="9.00">12531</text>
</g>
<!-- wallRadar[1,0]&#45;&gt;12531 -->
<g id="edge56" class="edge"><title>wallRadar[1,0]&#45;&gt;12531</title>
<path fill="none" stroke="green" stroke-width="0.429186" stroke-dasharray="1,5" d="M40.0634,-446.017C63.6041,-408.14 162.129,-250.928 184,-237.463 254.618,-193.986 508.944,-179.971 605.999,-176.146"/>
<polygon fill="green" stroke="green" stroke-width="0.429186" points="606.373,-179.634 616.233,-175.758 606.107,-172.639 606.373,-179.634"/>
</g>
<!-- wallRadar[0,1] -->
<g id="node2" class="node"><title>wallRadar[0,1]</title>
<polygon fill="lightgray" stroke="black" points="600,-464.189 530,-464.189 530,-446.189 600,-446.189 600,-464.189"/>
<text text-anchor="middle" x="565" y="-452.989" font-family="Times,serif" font-size="9.00">wallRadar[0,1]</text>
</g>
<!-- Shoot -->
<g id="node24" class="node"><title>Shoot</title>
<ellipse fill="lightblue" stroke="black" cx="1379" cy="-314.538" rx="26.7407" ry="26.7407"/>
<text text-anchor="middle" x="1379" y="-312.338" font-family="Times,serif" font-size="9.00">Shoot</text>
</g>
<!-- wallRadar[0,1]&#45;&gt;Shoot -->
<g id="edge17" class="edge"><title>wallRadar[0,1]&#45;&gt;Shoot</title>
<path fill="none" stroke="red" stroke-width="0.327919" d="M575.141,-446.048C583.635,-439.748 596.367,-431.467 609,-427.612 687.205,-403.749 1276.25,-437.392 1344,-391.612 1357.83,-382.264 1366.3,-365.993 1371.43,-350.892"/>
<polygon fill="red" stroke="red" stroke-width="0.327919" points="1374.81,-351.807 1374.34,-341.222 1368.11,-349.788 1374.81,-351.807"/>
</g>
<!-- wallRadar[0,1]&#45;&gt;Move Forward/Backward -->
<g id="edge8" class="edge"><title>wallRadar[0,1]&#45;&gt;Move Forward/Backward</title>
<path fill="none" stroke="red" stroke-width="0.221595" stroke-dasharray="1,5" d="M552.22,-446.122C543.329,-440.64 531.121,-433.366 520,-427.612 464.438,-398.865 399.979,-370.074 350.431,-348.872"/>
<polygon fill="red" stroke="red" stroke-width="0.221595" points="351.615,-345.572 341.043,-344.869 348.869,-352.011 351.615,-345.572"/>
</g>
<!-- wallRadar[0,1]&#45;&gt; Move Left/Right -->
<g id="edge23" class="edge"><title>wallRadar[0,1]&#45;&gt; Move Left/Right</title>
<path fill="none" stroke="red" stroke-width="0.450957" d="M576.447,-445.973C585.045,-440.133 597.303,-432.489 609,-427.612 669.492,-402.393 705.072,-437.363 752,-391.612 802.929,-341.961 745.763,-288.792 795,-237.463 929.202,-97.5585 1172.15,-65.4529 1288.48,-58.197"/>
<polygon fill="red" stroke="red" stroke-width="0.450957" points="1288.88,-61.6798 1298.66,-57.6057 1288.47,-54.6916 1288.88,-61.6798"/>
</g>
<!-- wallRadar[&#45;1,0] -->
<g id="node3" class="node"><title>wallRadar[&#45;1,0]</title>
<polygon fill="lightgray" stroke="black" points="1261.5,-323.538 1188.5,-323.538 1188.5,-305.538 1261.5,-305.538 1261.5,-323.538"/>
<text text-anchor="middle" x="1225" y="-312.338" font-family="Times,serif" font-size="9.00">wallRadar[&#45;1,0]</text>
</g>
<!-- wallRadar[&#45;1,0]&#45;&gt; Move Left/Right -->
<g id="edge20" class="edge"><title>wallRadar[&#45;1,0]&#45;&gt; Move Left/Right</title>
<path fill="none" stroke="green" stroke-width="0.1839" stroke-dasharray="1,5" d="M1229.15,-305.266C1243.64,-276.356 1292.87,-178.12 1325.01,-113.99"/>
<polygon fill="green" stroke="green" stroke-width="0.1839" points="1328.27,-115.296 1329.63,-104.788 1322.02,-112.159 1328.27,-115.296"/>
</g>
<!-- 10790 -->
<g id="node30" class="node"><title>10790</title>
<ellipse fill="white" stroke="black" cx="1354" cy="-173.886" rx="27.6545" ry="27.6545"/>
<text text-anchor="middle" x="1354" y="-171.686" font-family="Times,serif" font-size="9.00">10790</text>
</g>
<!-- wallRadar[&#45;1,0]&#45;&gt;10790 -->
<g id="edge41" class="edge"><title>wallRadar[&#45;1,0]&#45;&gt;10790</title>
<path fill="none" stroke="green" stroke-width="0.520618" stroke-dasharray="1,5" d="M1228.54,-305.299C1235.16,-290.547 1250.51,-259.143 1270,-237.463 1285.12,-220.65 1305.36,-205.409 1322.19,-194.177"/>
<polygon fill="green" stroke="green" stroke-width="0.520618" points="1324.16,-197.071 1330.63,-188.682 1320.34,-191.204 1324.16,-197.071"/>
</g>
<!-- wallRadar[0,&#45;1] -->
<g id="node4" class="node"><title>wallRadar[0,&#45;1]</title>
<polygon fill="lightgray" stroke="black" points="511.5,-464.189 438.5,-464.189 438.5,-446.189 511.5,-446.189 511.5,-464.189"/>
<text text-anchor="middle" x="475" y="-452.989" font-family="Times,serif" font-size="9.00">wallRadar[0,&#45;1]</text>
</g>
<!-- wallRadar[0,&#45;1]&#45;&gt;Move Forward/Backward -->
<g id="edge6" class="edge"><title>wallRadar[0,&#45;1]&#45;&gt;Move Forward/Backward</title>
<path fill="none" stroke="red" stroke-width="0.275797" d="M463.092,-446.136C439.811,-430.39 386.634,-394.423 341.968,-364.213"/>
<polygon fill="red" stroke="red" stroke-width="0.275797" points="343.693,-361.154 333.448,-358.451 339.771,-366.953 343.693,-361.154"/>
</g>
<!-- wallRadar[0,&#45;1]&#45;&gt; Move Left/Right -->
<g id="edge33" class="edge"><title>wallRadar[0,&#45;1]&#45;&gt; Move Left/Right</title>
<path fill="none" stroke="green" stroke-width="0.175822" stroke-dasharray="1,5" d="M486.557,-446.024C495.545,-440.052 508.543,-432.218 521,-427.612 602.842,-397.351 650.558,-451.52 714,-391.612 765.303,-343.167 719.16,-299.917 752,-237.463 777.223,-189.493 785.643,-172.664 833,-146.309 910.355,-103.26 1166.9,-73.9027 1288.7,-62.0429"/>
<polygon fill="green" stroke="green" stroke-width="0.175822" points="1289.39,-65.4936 1299,-61.0506 1288.71,-58.5258 1289.39,-65.4936"/>
</g>
<!-- Turn left/right -->
<g id="node27" class="node"><title>Turn left/right</title>
<ellipse fill="lightblue" stroke="black" cx="851" cy="-314.538" rx="46.8387" ry="46.8387"/>
<text text-anchor="middle" x="851" y="-312.338" font-family="Times,serif" font-size="9.00">Turn left/right</text>
</g>
<!-- wallRadar[0,&#45;1]&#45;&gt;Turn left/right -->
<g id="edge12" class="edge"><title>wallRadar[0,&#45;1]&#45;&gt;Turn left/right</title>
<path fill="none" stroke="green" stroke-width="0.279981" stroke-dasharray="1,5" d="M486.147,-446.168C495.126,-440.108 508.302,-432.094 521,-427.612 618.984,-393.034 656.496,-432.543 752,-391.612 772.888,-382.66 793.272,-368.281 810.061,-354.421"/>
<polygon fill="green" stroke="green" stroke-width="0.279981" points="812.64,-356.823 818.001,-347.685 808.111,-351.486 812.64,-356.823"/>
</g>
<!-- wallRadar[0.7,0.7] -->
<g id="node5" class="node"><title>wallRadar[0.7,0.7]</title>
<polygon fill="lightgray" stroke="black" points="1249.5,-464.189 1166.5,-464.189 1166.5,-446.189 1249.5,-446.189 1249.5,-464.189"/>
<text text-anchor="middle" x="1208" y="-452.989" font-family="Times,serif" font-size="9.00">wallRadar[0.7,0.7]</text>
</g>
<!-- wallRadar[0.7,0.7]&#45;&gt;Shoot -->
<g id="edge15" class="edge"><title>wallRadar[0.7,0.7]&#45;&gt;Shoot</title>
<path fill="none" stroke="green" stroke-width="0.254569" stroke-dasharray="1,5" d="M1222.26,-446.158C1232.17,-440.691 1245.74,-433.421 1258,-427.612 1295.44,-409.869 1314.2,-420.398 1344,-391.612 1355.56,-380.452 1363.66,-364.752 1369.13,-350.512"/>
<polygon fill="green" stroke="green" stroke-width="0.254569" points="1372.48,-351.554 1372.51,-340.959 1365.88,-349.218 1372.48,-351.554"/>
</g>
<!-- wallRadar[0.7,0.7]&#45;&gt;Turn left/right -->
<g id="edge9" class="edge"><title>wallRadar[0.7,0.7]&#45;&gt;Turn left/right</title>
<path fill="none" stroke="green" stroke-width="0.693385" stroke-dasharray="1,5" d="M1193.52,-446.002C1183.44,-440.465 1169.6,-433.177 1157,-427.612 1070.53,-389.44 966.605,-353.36 904.828,-332.898"/>
<polygon fill="green" stroke="green" stroke-width="0.693385" points="905.878,-329.558 895.285,-329.75 903.685,-336.206 905.878,-329.558"/>
</g>
<!-- wallRadar[&#45;0.7,0.7] -->
<g id="node6" class="node"><title>wallRadar[&#45;0.7,0.7]</title>
<polygon fill="lightgray" stroke="black" points="1992,-901.384 1906,-901.384 1906,-883.384 1992,-883.384 1992,-901.384"/>
<text text-anchor="middle" x="1949" y="-890.184" font-family="Times,serif" font-size="9.00">wallRadar[&#45;0.7,0.7]</text>
</g>
<!-- wallRadar[&#45;0.7,0.7]&#45;&gt;Move Forward/Backward -->
<g id="edge39" class="edge"><title>wallRadar[&#45;0.7,0.7]&#45;&gt;Move Forward/Backward</title>
<path fill="none" stroke="red" stroke-width="0.296299" d="M1905.81,-891.748C1760.58,-892.515 1276.69,-891.37 880,-847.384 589.068,-815.125 232,-1022.37 232,-729.652 232,-729.652 232,-729.652 232,-545.344 232,-496.573 240.434,-442.75 249.355,-399.46"/>
<polygon fill="red" stroke="red" stroke-width="0.296299" points="252.808,-400.049 251.445,-389.543 245.958,-398.606 252.808,-400.049"/>
</g>
<!-- wallRadar[&#45;0.7,0.7]&#45;&gt; Move Left/Right -->
<g id="edge24" class="edge"><title>wallRadar[&#45;0.7,0.7]&#45;&gt; Move Left/Right</title>
<path fill="none" stroke="green" stroke-width="0.128694" d="M1979.38,-883.308C2060.31,-860.903 2275,-795.28 2275,-729.652 2275,-729.652 2275,-729.652 2275,-313.538 2275,-182.8 2154.97,-193.383 2033,-146.309 1921.55,-103.292 1566.76,-72.2631 1419.28,-60.9037"/>
<polygon fill="green" stroke="green" stroke-width="0.128694" points="1419.26,-57.3923 1409.02,-60.1199 1418.73,-64.3719 1419.26,-57.3923"/>
</g>
<!-- wallRadar[&#45;0.7,0.7]&#45;&gt;Turn left/right -->
<g id="edge7" class="edge"><title>wallRadar[&#45;0.7,0.7]&#45;&gt;Turn left/right</title>
<path fill="none" stroke="red" stroke-width="0.385843" d="M1905.98,-890.157C1692.82,-883.523 760,-847.746 760,-729.652 760,-729.652 760,-729.652 760,-545.344 760,-478.362 793.832,-407.625 820.239,-362.615"/>
<polygon fill="red" stroke="red" stroke-width="0.385843" points="823.283,-364.344 825.409,-353.965 817.275,-360.753 823.283,-364.344"/>
</g>
<!-- 11691 -->
<g id="node33" class="node"><title>11691</title>
<ellipse fill="white" stroke="black" cx="1996" cy="-819.807" rx="27.6545" ry="27.6545"/>
<text text-anchor="middle" x="1996" y="-817.607" font-family="Times,serif" font-size="9.00">11691</text>
</g>
<!-- wallRadar[&#45;0.7,0.7]&#45;&gt;11691 -->
<g id="edge48" class="edge"><title>wallRadar[&#45;0.7,0.7]&#45;&gt;11691</title>
<path fill="none" stroke="red" stroke-width="0.732374" stroke-dasharray="1,5" d="M1954.39,-883.288C1959.54,-875.555 1967.63,-863.403 1975.32,-851.863"/>
<polygon fill="red" stroke="red" stroke-width="0.732374" points="1978.43,-853.504 1981.06,-843.241 1972.6,-849.624 1978.43,-853.504"/>
</g>
<!-- 12942 -->
<g id="node34" class="node"><title>12942</title>
<ellipse fill="white" stroke="black" cx="2146" cy="-728.652" rx="27.6545" ry="27.6545"/>
<text text-anchor="middle" x="2146" y="-726.452" font-family="Times,serif" font-size="9.00">12942</text>
</g>
<!-- wallRadar[&#45;0.7,0.7]&#45;&gt;12942 -->
<g id="edge61" class="edge"><title>wallRadar[&#45;0.7,0.7]&#45;&gt;12942</title>
<path fill="none" stroke="red" stroke-width="0.163655" d="M1968.72,-883.246C1986.45,-875.44 2012.73,-862.61 2033,-847.384 2067.75,-821.284 2101.43,-784.191 2122.84,-758.65"/>
<polygon fill="red" stroke="red" stroke-width="0.163655" points="2125.67,-760.726 2129.35,-750.792 2120.27,-756.262 2125.67,-760.726"/>
</g>
<!-- 8819 -->
<g id="node38" class="node"><title>8819</title>
<ellipse fill="white" stroke="black" cx="2090" cy="-455.189" rx="25" ry="25"/>
<text text-anchor="middle" x="2090" y="-452.989" font-family="Times,serif" font-size="9.00">8819</text>
</g>
<!-- wallRadar[&#45;0.7,0.7]&#45;&gt;8819 -->
<g id="edge45" class="edge"><title>wallRadar[&#45;0.7,0.7]&#45;&gt;8819</title>
<path fill="none" stroke="red" stroke-width="0.548879" stroke-dasharray="1,5" d="M1944.83,-883.211C1933.33,-859.889 1902,-790.764 1902,-729.652 1902,-729.652 1902,-729.652 1902,-636.498 1902,-569.262 1947.44,-564.205 1997,-518.767 2007.7,-508.956 2037.52,-489.326 2060.53,-474.654"/>
<polygon fill="red" stroke="red" stroke-width="0.548879" points="2062.71,-477.42 2069.28,-469.108 2058.96,-471.508 2062.71,-477.42"/>
</g>
<!-- wallRadar[&#45;0.7,&#45;0.7] -->
<g id="node7" class="node"><title>wallRadar[&#45;0.7,&#45;0.7]</title>
<polygon fill="lightgray" stroke="black" points="1395.5,-555.344 1306.5,-555.344 1306.5,-537.344 1395.5,-537.344 1395.5,-555.344"/>
<text text-anchor="middle" x="1351" y="-544.144" font-family="Times,serif" font-size="9.00">wallRadar[&#45;0.7,&#45;0.7]</text>
</g>
<!-- wallRadar[&#45;0.7,&#45;0.7]&#45;&gt;Shoot -->
<g id="edge10" class="edge"><title>wallRadar[&#45;0.7,&#45;0.7]&#45;&gt;Shoot</title>
<path fill="none" stroke="red" stroke-width="0.182539" stroke-dasharray="1,5" d="M1352,-537.165C1355.58,-507.795 1367.92,-406.493 1374.61,-351.589"/>
<polygon fill="red" stroke="red" stroke-width="0.182539" points="1378.09,-351.933 1375.83,-341.583 1371.14,-351.086 1378.09,-351.933"/>
</g>
<!-- 12041 -->
<g id="node32" class="node"><title>12041</title>
<ellipse fill="white" stroke="black" cx="1407" cy="-455.189" rx="27.6545" ry="27.6545"/>
<text text-anchor="middle" x="1407" y="-452.989" font-family="Times,serif" font-size="9.00">12041</text>
</g>
<!-- wallRadar[&#45;0.7,&#45;0.7]&#45;&gt;12041 -->
<g id="edge50" class="edge"><title>wallRadar[&#45;0.7,&#45;0.7]&#45;&gt;12041</title>
<path fill="none" stroke="red" stroke-width="0.418218" d="M1356.17,-537.116C1363.18,-525.957 1376.09,-505.393 1387.15,-487.789"/>
<polygon fill="red" stroke="red" stroke-width="0.418218" points="1390.37,-489.247 1392.72,-478.918 1384.44,-485.524 1390.37,-489.247"/>
</g>
<!-- 13487 -->
<g id="node37" class="node"><title>13487</title>
<ellipse fill="white" stroke="black" cx="1295" cy="-455.189" rx="27.6545" ry="27.6545"/>
<text text-anchor="middle" x="1295" y="-452.989" font-family="Times,serif" font-size="9.00">13487</text>
</g>
<!-- wallRadar[&#45;0.7,&#45;0.7]&#45;&gt;13487 -->
<g id="edge68" class="edge"><title>wallRadar[&#45;0.7,&#45;0.7]&#45;&gt;13487</title>
<path fill="none" stroke="green" stroke-width="0.203377" d="M1345.83,-537.116C1338.82,-525.957 1325.91,-505.393 1314.85,-487.789"/>
<polygon fill="green" stroke="green" stroke-width="0.203377" points="1317.56,-485.524 1309.28,-478.918 1311.63,-489.247 1317.56,-485.524"/>
</g>
<!-- wallRadar[0.7,&#45;0.7] -->
<g id="node8" class="node"><title>wallRadar[0.7,&#45;0.7]</title>
<polygon fill="lightgray" stroke="black" points="1539,-464.189 1453,-464.189 1453,-446.189 1539,-446.189 1539,-464.189"/>
<text text-anchor="middle" x="1496" y="-452.989" font-family="Times,serif" font-size="9.00">wallRadar[0.7,&#45;0.7]</text>
</g>
<!-- wallRadar[0.7,&#45;0.7]&#45;&gt;Shoot -->
<g id="edge28" class="edge"><title>wallRadar[0.7,&#45;0.7]&#45;&gt;Shoot</title>
<path fill="none" stroke="red" stroke-width="0.495644" stroke-dasharray="1,5" d="M1489.03,-445.931C1472.34,-426.153 1429.46,-375.338 1402.43,-343.298"/>
<polygon fill="red" stroke="red" stroke-width="0.495644" points="1405.04,-340.973 1395.92,-335.588 1399.69,-345.487 1405.04,-340.973"/>
</g>
<!-- enemyRadar[RightBack] -->
<g id="node9" class="node"><title>enemyRadar[RightBack]</title>
<polygon fill="lightgray" stroke="black" points="2114,-901.384 2010,-901.384 2010,-883.384 2114,-883.384 2114,-901.384"/>
<text text-anchor="middle" x="2062" y="-890.184" font-family="Times,serif" font-size="9.00">enemyRadar[RightBack]</text>
</g>
<!-- enemyRadar[LeftBack] -->
<g id="node10" class="node"><title>enemyRadar[LeftBack]</title>
<polygon fill="lightgray" stroke="black" points="2231.5,-901.384 2132.5,-901.384 2132.5,-883.384 2231.5,-883.384 2231.5,-901.384"/>
<text text-anchor="middle" x="2182" y="-890.184" font-family="Times,serif" font-size="9.00">enemyRadar[LeftBack]</text>
</g>
<!-- enemyRadar[Right45ø] -->
<g id="node11" class="node"><title>enemyRadar[Right45ø]</title>
<polygon fill="lightgray" stroke="black" points="2350,-901.384 2250,-901.384 2250,-883.384 2350,-883.384 2350,-901.384"/>
<text text-anchor="middle" x="2300" y="-890.184" font-family="Times,serif" font-size="9.00">enemyRadar[Right45ø]</text>
</g>
<!-- enemyRadar[Left45ø] -->
<g id="node12" class="node"><title>enemyRadar[Left45ø]</title>
<polygon fill="lightgray" stroke="black" points="1801.5,-555.344 1706.5,-555.344 1706.5,-537.344 1801.5,-537.344 1801.5,-555.344"/>
<text text-anchor="middle" x="1754" y="-544.144" font-family="Times,serif" font-size="9.00">enemyRadar[Left45ø]</text>
</g>
<!-- enemyRadar[Left45ø]&#45;&gt;Shoot -->
<g id="edge27" class="edge"><title>enemyRadar[Left45ø]&#45;&gt;Shoot</title>
<path fill="none" stroke="red" stroke-width="0.673636" d="M1746.69,-537.038C1736.39,-525.233 1717.18,-502.808 1702,-482.767 1684.02,-459.039 1688.9,-443.922 1664,-427.612 1593.93,-381.718 1555.44,-425.865 1479,-391.612 1451.48,-379.28 1424.52,-358.081 1405.54,-341.189"/>
<polygon fill="red" stroke="red" stroke-width="0.673636" points="1407.67,-338.393 1397.92,-334.251 1402.96,-343.57 1407.67,-338.393"/>
</g>
<!-- enemyRadar[Left45ø]&#45;&gt;Move Forward/Backward -->
<g id="edge16" class="edge"><title>enemyRadar[Left45ø]&#45;&gt;Move Forward/Backward</title>
<path fill="none" stroke="red" stroke-width="2.31971" stroke-dasharray="1,5" d="M1706.34,-541.05C1639.19,-535.152 1512.85,-524.61 1405,-518.767 1343.06,-515.411 334.601,-524.821 289,-482.767 266.807,-462.3 259.433,-431.114 258.531,-401.195"/>
<polygon fill="red" stroke="red" stroke-width="2.31971" points="262.031,-401.09 258.462,-391.114 255.031,-401.138 262.031,-401.09"/>
</g>
<!-- enemyRadar[Left45ø]&#45;&gt;Turn left/right -->
<g id="edge25" class="edge"><title>enemyRadar[Left45ø]&#45;&gt;Turn left/right</title>
<path fill="none" stroke="green" stroke-width="2.23229" d="M1706.32,-541.487C1639.13,-536.104 1512.76,-526.168 1405,-518.767 1339.7,-514.281 861.848,-530.444 817,-482.767 787.152,-451.036 802.809,-400.586 821.543,-363.389"/>
<polygon fill="green" stroke="green" stroke-width="2.23229" points="824.799,-364.718 826.347,-354.237 818.6,-361.465 824.799,-364.718"/>
</g>
<!-- 12706 -->
<g id="node28" class="node"><title>12706</title>
<ellipse fill="white" stroke="black" cx="1666" cy="-173.886" rx="27.6545" ry="27.6545"/>
<text text-anchor="middle" x="1666" y="-171.686" font-family="Times,serif" font-size="9.00">12706</text>
</g>
<!-- enemyRadar[Left45ø]&#45;&gt;12706 -->
<g id="edge58" class="edge"><title>enemyRadar[Left45ø]&#45;&gt;12706</title>
<path fill="none" stroke="red" stroke-width="0.792564" d="M1774.86,-537.32C1796.14,-527.866 1827.99,-509.922 1842,-482.767 1853.24,-460.982 1855.05,-448.36 1842,-427.612 1822.31,-396.318 1793,-417.906 1767,-391.612 1715.88,-339.908 1687.43,-257.505 1674.56,-210.612"/>
<polygon fill="red" stroke="red" stroke-width="0.792564" points="1677.93,-209.655 1671.98,-200.889 1671.17,-211.453 1677.93,-209.655"/>
</g>
<!-- 7216 -->
<g id="node36" class="node"><title>7216</title>
<ellipse fill="white" stroke="black" cx="1949" cy="-173.886" rx="25" ry="25"/>
<text text-anchor="middle" x="1949" y="-171.686" font-family="Times,serif" font-size="9.00">7216</text>
</g>
<!-- enemyRadar[Left45ø]&#45;&gt;7216 -->
<g id="edge36" class="edge"><title>enemyRadar[Left45ø]&#45;&gt;7216</title>
<path fill="none" stroke="green" stroke-width="0.532413" d="M1791.68,-537.332C1862.5,-522.144 2009.2,-490.032 2018,-482.767 2060.61,-447.568 2086.79,-285.238 2059,-237.463 2042.71,-209.462 2008.7,-192.959 1982.79,-183.996"/>
<polygon fill="green" stroke="green" stroke-width="0.532413" points="1983.54,-180.563 1972.95,-180.816 1981.39,-187.223 1983.54,-180.563"/>
</g>
<!-- enemyRadar[Left45ø]&#45;&gt;8819 -->
<g id="edge43" class="edge"><title>enemyRadar[Left45ø]&#45;&gt;8819</title>
<path fill="none" stroke="red" stroke-width="0.431909" d="M1794.24,-537.296C1872.62,-521.561 2039.17,-487.809 2051,-482.767 2054.9,-481.104 2058.82,-479.028 2062.59,-476.772"/>
<polygon fill="red" stroke="red" stroke-width="0.431909" points="2064.54,-479.675 2071.03,-471.297 2060.73,-473.802 2064.54,-479.675"/>
</g>
<!-- enemyRadar[RightFront20ø] -->
<g id="node13" class="node"><title>enemyRadar[RightFront20ø]</title>
<polygon fill="lightgray" stroke="black" points="1013.5,-464.189 894.5,-464.189 894.5,-446.189 1013.5,-446.189 1013.5,-464.189"/>
<text text-anchor="middle" x="954" y="-452.989" font-family="Times,serif" font-size="9.00">enemyRadar[RightFront20ø]</text>
</g>
<!-- enemyRadar[RightFront20ø]&#45;&gt;Shoot -->
<g id="edge21" class="edge"><title>enemyRadar[RightFront20ø]&#45;&gt;Shoot</title>
<path fill="none" stroke="green" stroke-width="0.817555" d="M971.186,-446.15C984.911,-440.08 1004.79,-432.061 1023,-427.612 1092.73,-410.573 1285.82,-433.648 1344,-391.612 1357.44,-381.905 1365.85,-365.753 1371.04,-350.823"/>
<polygon fill="green" stroke="green" stroke-width="0.817555" points="1374.39,-351.856 1374.01,-341.268 1367.7,-349.778 1374.39,-351.856"/>
</g>
<!-- enemyRadar[RightFront20ø]&#45;&gt;Turn left/right -->
<g id="edge4" class="edge"><title>enemyRadar[RightFront20ø]&#45;&gt;Turn left/right</title>
<path fill="none" stroke="green" stroke-width="0.171382" d="M947.865,-445.931C935.621,-429.448 907.361,-391.407 884.508,-360.644"/>
<polygon fill="green" stroke="green" stroke-width="0.171382" points="887.299,-358.532 878.526,-352.591 881.68,-362.706 887.299,-358.532"/>
</g>
<!-- enemyRadar[LeftFront20ø] -->
<g id="node14" class="node"><title>enemyRadar[LeftFront20ø]</title>
<polygon fill="lightgray" stroke="black" points="2247,-464.189 2133,-464.189 2133,-446.189 2247,-446.189 2247,-464.189"/>
<text text-anchor="middle" x="2190" y="-452.989" font-family="Times,serif" font-size="9.00">enemyRadar[LeftFront20ø]</text>
</g>
<!-- enemyRadar[LeftFront20ø]&#45;&gt; Move Left/Right -->
<g id="edge35" class="edge"><title>enemyRadar[LeftFront20ø]&#45;&gt; Move Left/Right</title>
<path fill="none" stroke="red" stroke-width="0.575273" stroke-dasharray="1,5" d="M2187.77,-445.979C2175.8,-403.749 2114.72,-210.513 1983,-146.309 1884.44,-98.2678 1559.71,-70.4771 1419.46,-60.4533"/>
<polygon fill="red" stroke="red" stroke-width="0.575273" points="1419.51,-56.9478 1409.29,-59.7341 1419.01,-63.9304 1419.51,-56.9478"/>
</g>
<!-- 13331 -->
<g id="node41" class="node"><title>13331</title>
<ellipse fill="white" stroke="black" cx="2022" cy="-314.538" rx="27.6545" ry="27.6545"/>
<text text-anchor="middle" x="2022" y="-312.338" font-family="Times,serif" font-size="9.00">13331</text>
</g>
<!-- enemyRadar[LeftFront20ø]&#45;&gt;13331 -->
<g id="edge72" class="edge"><title>enemyRadar[LeftFront20ø]&#45;&gt;13331</title>
<path fill="none" stroke="green" stroke-width="0.150373" d="M2179.99,-445.931C2155,-425.303 2089.1,-370.912 2050.76,-339.275"/>
<polygon fill="green" stroke="green" stroke-width="0.150373" points="2052.97,-336.556 2043.03,-332.89 2048.51,-341.954 2052.97,-336.556"/>
</g>
<!-- enemyRadar[RightFront15ø] -->
<g id="node15" class="node"><title>enemyRadar[RightFront15ø]</title>
<polygon fill="lightgray" stroke="black" points="2008.5,-464.189 1889.5,-464.189 1889.5,-446.189 2008.5,-446.189 2008.5,-464.189"/>
<text text-anchor="middle" x="1949" y="-452.989" font-family="Times,serif" font-size="9.00">enemyRadar[RightFront15ø]</text>
</g>
<!-- enemyRadar[RightFront15ø]&#45;&gt;Shoot -->
<g id="edge32" class="edge"><title>enemyRadar[RightFront15ø]&#45;&gt;Shoot</title>
<path fill="none" stroke="red" stroke-width="0.646086" stroke-dasharray="1,5" d="M1916.7,-446.114C1895.48,-440.821 1867.1,-433.766 1842,-427.612 1682.87,-388.591 1492.76,-342.848 1414.91,-324.154"/>
<polygon fill="red" stroke="red" stroke-width="0.646086" points="1415.66,-320.734 1405.12,-321.803 1414.03,-327.54 1415.66,-320.734"/>
</g>
<!-- enemyRadar[RightFront15ø]&#45;&gt; Move Left/Right -->
<g id="edge22" class="edge"><title>enemyRadar[RightFront15ø]&#45;&gt; Move Left/Right</title>
<path fill="none" stroke="red" stroke-width="0.26642" stroke-dasharray="1,5" d="M1923.33,-446.099C1885.64,-433.787 1817.86,-409.855 1800,-391.612 1717.98,-307.844 1790.87,-223.923 1703,-146.309 1623.44,-76.0311 1496.08,-59.3048 1419.2,-56.0178"/>
<polygon fill="red" stroke="red" stroke-width="0.26642" points="1419.28,-52.5184 1409.16,-55.6526 1419.02,-59.5138 1419.28,-52.5184"/>
</g>
<!-- enemyRadar[RightFront15ø]&#45;&gt;Turn left/right -->
<g id="edge5" class="edge"><title>enemyRadar[RightFront15ø]&#45;&gt;Turn left/right</title>
<path fill="none" stroke="red" stroke-width="0.42464" d="M1922.46,-446.107C1900.98,-439.929 1869.83,-431.785 1842,-427.612 1550.16,-383.848 1471.17,-433.106 1179,-391.612 1081.49,-377.764 970.254,-349.191 905.599,-331.275"/>
<polygon fill="red" stroke="red" stroke-width="0.42464" points="906.204,-327.81 895.631,-328.495 904.323,-334.553 906.204,-327.81"/>
</g>
<!-- 13541 -->
<g id="node31" class="node"><title>13541</title>
<ellipse fill="white" stroke="black" cx="1949" cy="-314.538" rx="27.6545" ry="27.6545"/>
<text text-anchor="middle" x="1949" y="-312.338" font-family="Times,serif" font-size="9.00">13541</text>
</g>
<!-- enemyRadar[RightFront15ø]&#45;&gt;13541 -->
<g id="edge70" class="edge"><title>enemyRadar[RightFront15ø]&#45;&gt;13541</title>
<path fill="none" stroke="red" stroke-width="0.134537" d="M1949,-445.931C1949,-427.966 1949,-384.39 1949,-352.54"/>
<polygon fill="red" stroke="red" stroke-width="0.134537" points="1952.5,-352.243 1949,-342.243 1945.5,-352.243 1952.5,-352.243"/>
</g>
<!-- enemyRadar[RightFront15ø]&#45;&gt;7216 -->
<g id="edge38" class="edge"><title>enemyRadar[RightFront15ø]&#45;&gt;7216</title>
<path fill="none" stroke="red" stroke-width="0.32704" stroke-dasharray="1,5" d="M1942.14,-445.953C1933.15,-434.581 1917.86,-413.038 1912,-391.612 1893.92,-325.529 1893.92,-303.546 1912,-237.463 1915.35,-225.223 1921.77,-212.944 1928.34,-202.545"/>
<polygon fill="red" stroke="red" stroke-width="0.32704" points="1931.45,-204.202 1934.08,-193.94 1925.62,-200.319 1931.45,-204.202"/>
</g>
<!-- enemyRadar[RightFront15ø]&#45;&gt;13331 -->
<g id="edge66" class="edge"><title>enemyRadar[RightFront15ø]&#45;&gt;13331</title>
<path fill="none" stroke="green" stroke-width="0.62706" d="M1954.28,-445.828C1961.69,-433.958 1975.47,-411.456 1986,-391.612 1993.22,-378.007 2000.6,-362.708 2006.78,-349.416"/>
<polygon fill="green" stroke="green" stroke-width="0.62706" points="2010.05,-350.692 2011.05,-340.145 2003.69,-347.764 2010.05,-350.692"/>
</g>
<!-- 11647 -->
<g id="node43" class="node"><title>11647</title>
<ellipse fill="white" stroke="black" cx="1837" cy="-314.538" rx="27.6545" ry="27.6545"/>
<text text-anchor="middle" x="1837" y="-312.338" font-family="Times,serif" font-size="9.00">11647</text>
</g>
<!-- enemyRadar[RightFront15ø]&#45;&gt;11647 -->
<g id="edge46" class="edge"><title>enemyRadar[RightFront15ø]&#45;&gt;11647</title>
<path fill="none" stroke="red" stroke-width="0.595458" d="M1937.75,-446.06C1922.96,-434.972 1896.78,-413.921 1879,-391.612 1868.76,-378.767 1859.64,-363.088 1852.53,-349.309"/>
<polygon fill="red" stroke="red" stroke-width="0.595458" points="1855.54,-347.511 1847.94,-340.131 1849.28,-350.641 1855.54,-347.511"/>
</g>
<!-- enemyRadar[LeftFront15ø] -->
<g id="node16" class="node"><title>enemyRadar[LeftFront15ø]</title>
<polygon fill="lightgray" stroke="black" points="732,-464.189 618,-464.189 618,-446.189 732,-446.189 732,-464.189"/>
<text text-anchor="middle" x="675" y="-452.989" font-family="Times,serif" font-size="9.00">enemyRadar[LeftFront15ø]</text>
</g>
<!-- enemyRadar[LeftFront15ø]&#45;&gt;Turn left/right -->
<g id="edge30" class="edge"><title>enemyRadar[LeftFront15ø]&#45;&gt;Turn left/right</title>
<path fill="none" stroke="green" stroke-width="0.938975" stroke-dasharray="1,5" d="M695.181,-446.142C719.375,-435.866 760.363,-416.406 790,-391.612 800.347,-382.956 810.163,-372.318 818.776,-361.77"/>
<polygon fill="green" stroke="green" stroke-width="0.938975" points="821.657,-363.77 825.117,-353.756 816.167,-359.427 821.657,-363.77"/>
</g>
<!-- enemyRadar[RightFront7.5ø] -->
<g id="node17" class="node"><title>enemyRadar[RightFront7.5ø]</title>
<polygon fill="lightgray" stroke="black" points="420,-464.189 298,-464.189 298,-446.189 420,-446.189 420,-464.189"/>
<text text-anchor="middle" x="359" y="-452.989" font-family="Times,serif" font-size="9.00">enemyRadar[RightFront7.5ø]</text>
</g>
<!-- enemyRadar[RightFront7.5ø]&#45;&gt;Move Forward/Backward -->
<g id="edge1" class="edge"><title>enemyRadar[RightFront7.5ø]&#45;&gt;Move Forward/Backward</title>
<path fill="none" stroke="red" stroke-width="0.208707" d="M353.699,-445.931C346.167,-434.197 331.621,-411.536 316.741,-388.354"/>
<polygon fill="red" stroke="red" stroke-width="0.208707" points="319.603,-386.334 311.256,-379.809 313.712,-390.115 319.603,-386.334"/>
</g>
<!-- enemyRadar[RightFront7.5ø]&#45;&gt; Move Left/Right -->
<g id="edge3" class="edge"><title>enemyRadar[RightFront7.5ø]&#45;&gt; Move Left/Right</title>
<path fill="none" stroke="green" stroke-width="1.35794" d="M369.369,-445.922C428.47,-398.861 721.827,-166.17 769,-146.309 946.485,-71.5825 1177.6,-57.9491 1288.73,-56.0084"/>
<polygon fill="green" stroke="green" stroke-width="1.35794" points="1288.83,-59.5073 1298.78,-55.8593 1288.73,-52.5081 1288.83,-59.5073"/>
</g>
<!-- enemyRadar[LeftFront7.5ø] -->
<g id="node18" class="node"><title>enemyRadar[LeftFront7.5ø]</title>
<polygon fill="lightgray" stroke="black" points="204,-464.189 88,-464.189 88,-446.189 204,-446.189 204,-464.189"/>
<text text-anchor="middle" x="146" y="-452.989" font-family="Times,serif" font-size="9.00">enemyRadar[LeftFront7.5ø]</text>
</g>
<!-- enemyRadar[LeftFront7.5ø]&#45;&gt;Move Forward/Backward -->
<g id="edge18" class="edge"><title>enemyRadar[LeftFront7.5ø]&#45;&gt;Move Forward/Backward</title>
<path fill="none" stroke="green" stroke-width="0.834619" d="M153.385,-445.931C165.107,-432.825 189.017,-406.09 212.153,-380.22"/>
<polygon fill="green" stroke="green" stroke-width="0.834619" points="214.911,-382.386 218.969,-372.599 209.694,-377.719 214.911,-382.386"/>
</g>
<!-- enemyRadar[RightFront2.5ø] -->
<g id="node19" class="node"><title>enemyRadar[RightFront2.5ø]</title>
<polygon fill="lightgray" stroke="black" points="1833,-464.189 1711,-464.189 1711,-446.189 1833,-446.189 1833,-464.189"/>
<text text-anchor="middle" x="1772" y="-452.989" font-family="Times,serif" font-size="9.00">enemyRadar[RightFront2.5ø]</text>
</g>
<!-- enemyRadar[RightFront2.5ø]&#45;&gt;Shoot -->
<g id="edge31" class="edge"><title>enemyRadar[RightFront2.5ø]&#45;&gt;Shoot</title>
<path fill="none" stroke="red" stroke-width="1.1231" d="M1752.24,-446.106C1737.29,-440.255 1716.13,-432.54 1697,-427.612 1601.9,-403.116 1569.18,-430.486 1479,-391.612 1451.13,-379.599 1424.02,-358.174 1405.07,-341.116"/>
<polygon fill="red" stroke="red" stroke-width="1.1231" points="1407.2,-338.317 1397.47,-334.113 1402.45,-343.464 1407.2,-338.317"/>
</g>
<!-- enemyRadar[RightFront2.5ø]&#45;&gt; Move Left/Right -->
<g id="edge34" class="edge"><title>enemyRadar[RightFront2.5ø]&#45;&gt; Move Left/Right</title>
<path fill="none" stroke="green" stroke-width="0.191252" stroke-dasharray="1,5" d="M1758.13,-446.115C1739.37,-434.927 1705.27,-413.592 1679,-391.612 1568.67,-299.291 1455.17,-173.819 1395.89,-105.483"/>
<polygon fill="green" stroke="green" stroke-width="0.191252" points="1398.47,-103.115 1389.28,-97.8422 1393.17,-107.695 1398.47,-103.115"/>
</g>
<!-- enemyRadar[LeftFront2.5ø] -->
<g id="node20" class="node"><title>enemyRadar[LeftFront2.5ø]</title>
<polygon fill="lightgray" stroke="black" points="1148,-464.189 1032,-464.189 1032,-446.189 1148,-446.189 1148,-464.189"/>
<text text-anchor="middle" x="1090" y="-452.989" font-family="Times,serif" font-size="9.00">enemyRadar[LeftFront2.5ø]</text>
</g>
<!-- enemyRadar[LeftFront2.5ø]&#45;&gt;Shoot -->
<g id="edge26" class="edge"><title>enemyRadar[LeftFront2.5ø]&#45;&gt;Shoot</title>
<path fill="none" stroke="green" stroke-width="0.132846" d="M1107.6,-446.156C1120.93,-440.33 1139.82,-432.625 1157,-427.612 1238.25,-403.904 1277.39,-443.831 1344,-391.612 1356.83,-381.555 1365.13,-365.714 1370.42,-351.085"/>
<polygon fill="green" stroke="green" stroke-width="0.132846" points="1373.86,-351.829 1373.61,-341.237 1367.2,-349.67 1373.86,-351.829"/>
</g>
<!-- enemyRadar[LeftFront2.5ø]&#45;&gt;Turn left/right -->
<g id="edge2" class="edge"><title>enemyRadar[LeftFront2.5ø]&#45;&gt;Turn left/right</title>
<path fill="none" stroke="green" stroke-width="0.49643" d="M1076.12,-446.136C1042.52,-426.645 955.522,-376.174 900.041,-343.988"/>
<polygon fill="green" stroke="green" stroke-width="0.49643" points="901.489,-340.782 891.083,-338.791 897.977,-346.837 901.489,-340.782"/>
</g>
<!-- enemyRadar[Front7Ø] -->
<g id="node21" class="node"><title>enemyRadar[Front7Ø]</title>
<polygon fill="lightgray" stroke="black" points="1655,-464.189 1557,-464.189 1557,-446.189 1655,-446.189 1655,-464.189"/>
<text text-anchor="middle" x="1606" y="-452.989" font-family="Times,serif" font-size="9.00">enemyRadar[Front7Ø]</text>
</g>
<!-- enemyRadar[Front7Ø]&#45;&gt;Shoot -->
<g id="edge14" class="edge"><title>enemyRadar[Front7Ø]&#45;&gt;Shoot</title>
<path fill="none" stroke="red" stroke-width="0.324247" stroke-dasharray="1,5" d="M1588.52,-446.085C1558.56,-432.118 1498.75,-403.834 1479,-391.612 1453.52,-375.845 1426.59,-355.093 1407.1,-339.247"/>
<polygon fill="red" stroke="red" stroke-width="0.324247" points="1409.18,-336.426 1399.23,-332.785 1404.74,-341.836 1409.18,-336.426"/>
</g>
<!-- OnTarget -->
<g id="node22" class="node"><title>OnTarget</title>
<polygon fill="lightgray" stroke="black" points="876,-464.189 826,-464.189 826,-446.189 876,-446.189 876,-464.189"/>
<text text-anchor="middle" x="851" y="-452.989" font-family="Times,serif" font-size="9.00">OnTarget</text>
</g>
<!-- OnTarget&#45;&gt;Shoot -->
<g id="edge13" class="edge"><title>OnTarget&#45;&gt;Shoot</title>
<path fill="none" stroke="green" stroke-width="3.8703" d="M858.53,-446.136C864.916,-439.886 874.665,-431.631 885,-427.612 980.357,-390.531 1260.08,-450.135 1344,-391.612 1357.7,-382.062 1366.15,-365.771 1371.3,-350.708"/>
<polygon fill="green" stroke="green" stroke-width="3.8703" points="1374.67,-351.656 1374.24,-341.071 1367.98,-349.617 1374.67,-351.656"/>
</g>
<!-- OnTarget&#45;&gt;Turn left/right -->
<g id="edge19" class="edge"><title>OnTarget&#45;&gt;Turn left/right</title>
<path fill="none" stroke="green" stroke-width="2.21052" d="M851,-445.931C851,-431.341 851,-399.86 851,-371.486"/>
<polygon fill="green" stroke="green" stroke-width="2.21052" points="854.5,-371.21 851,-361.211 847.5,-371.211 854.5,-371.21"/>
</g>
<!-- 10741 -->
<g id="node40" class="node"><title>10741</title>
<ellipse fill="white" stroke="black" cx="1307" cy="-314.538" rx="27.6545" ry="27.6545"/>
<text text-anchor="middle" x="1307" y="-312.338" font-family="Times,serif" font-size="9.00">10741</text>
</g>
<!-- OnTarget&#45;&gt;10741 -->
<g id="edge40" class="edge"><title>OnTarget&#45;&gt;10741</title>
<path fill="none" stroke="red" stroke-width="0.338093" stroke-dasharray="1,5" d="M858.546,-446.176C864.942,-439.95 874.695,-431.707 885,-427.612 965.061,-395.799 1200.43,-441.028 1271,-391.612 1284.55,-382.124 1293.15,-366.152 1298.54,-351.285"/>
<polygon fill="red" stroke="red" stroke-width="0.338093" points="1301.87,-352.346 1301.63,-341.754 1295.22,-350.186 1301.87,-352.346"/>
</g>
<!-- bias -->
<g id="node23" class="node"><title>bias</title>
<polygon fill="lightgray" stroke="black" points="2399.5,-901.384 2368.5,-901.384 2368.5,-883.384 2399.5,-883.384 2399.5,-901.384"/>
<text text-anchor="middle" x="2384" y="-890.184" font-family="Times,serif" font-size="9.00">bias</text>
</g>
<!-- Shoot&#45;&gt;10790 -->
<g id="edge44" class="edge"><title>Shoot&#45;&gt;10790</title>
<path fill="none" stroke="green" stroke-width="0.552997" d="M1374.36,-287.783C1370.49,-266.362 1364.95,-235.608 1360.62,-211.606"/>
<polygon fill="green" stroke="green" stroke-width="0.552997" points="1364.01,-210.666 1358.79,-201.446 1357.12,-211.909 1364.01,-210.666"/>
</g>
<!-- Turn left/right&#45;&gt;12531 -->
<g id="edge63" class="edge"><title>Turn left/right&#45;&gt;12531</title>
<path fill="none" stroke="green" stroke-width="0.195132" d="M812.55,-287.783C772.825,-261.175 711.6,-220.165 674.903,-195.585"/>
<polygon fill="green" stroke="green" stroke-width="0.195132" points="676.83,-192.663 666.574,-190.006 672.934,-198.479 676.83,-192.663"/>
</g>
<!-- 12706&#45;&gt; Move Left/Right -->
<g id="edge65" class="edge"><title>12706&#45;&gt; Move Left/Right</title>
<path fill="none" stroke="red" stroke-width="0.566807" d="M1640.47,-163.333C1591.54,-145.027 1483.36,-104.552 1414.83,-78.9129"/>
<polygon fill="red" stroke="red" stroke-width="0.566807" points="1416.03,-75.6236 1405.43,-75.3975 1413.57,-82.1798 1416.03,-75.6236"/>
</g>
<!-- 12832 -->
<g id="node29" class="node"><title>12832</title>
<ellipse fill="white" stroke="black" cx="1996" cy="-728.652" rx="27.6545" ry="27.6545"/>
<text text-anchor="middle" x="1996" y="-726.452" font-family="Times,serif" font-size="9.00">12832</text>
</g>
<!-- 12351 -->
<g id="node42" class="node"><title>12351</title>
<ellipse fill="white" stroke="black" cx="1996" cy="-637.498" rx="27.6545" ry="27.6545"/>
<text text-anchor="middle" x="1996" y="-635.298" font-family="Times,serif" font-size="9.00">12351</text>
</g>
<!-- 12832&#45;&gt;12351 -->
<g id="edge60" class="edge"><title>12832&#45;&gt;12351</title>
<path fill="none" stroke="green" stroke-width="0.189144" d="M1996,-700.903C1996,-692.881 1996,-683.936 1996,-675.382"/>
<polygon fill="green" stroke="green" stroke-width="0.189144" points="1999.5,-675.228 1996,-665.228 1992.5,-675.228 1999.5,-675.228"/>
</g>
<!-- 10790&#45;&gt; Move Left/Right -->
<g id="edge42" class="edge"><title>10790&#45;&gt; Move Left/Right</title>
<path fill="none" stroke="red" stroke-width="0.638748" d="M1354,-146.105C1354,-138.378 1354,-129.594 1354,-120.616"/>
<polygon fill="red" stroke="red" stroke-width="0.638748" points="1357.5,-120.442 1354,-110.442 1350.5,-120.442 1357.5,-120.442"/>
</g>
<!-- 13541&#45;&gt;7216 -->
<g id="edge71" class="edge"><title>13541&#45;&gt;7216</title>
<path fill="none" stroke="green" stroke-width="0.113569" stroke-dasharray="1,5" d="M1949,-286.804C1949,-264.594 1949,-232.862 1949,-208.855"/>
<polygon fill="green" stroke="green" stroke-width="0.113569" points="1952.5,-208.76 1949,-198.76 1945.5,-208.76 1952.5,-208.76"/>
</g>
<!-- 12041&#45;&gt;Shoot -->
<g id="edge51" class="edge"><title>12041&#45;&gt;Shoot</title>
<path fill="none" stroke="red" stroke-width="0.330529" d="M1401.73,-428.11C1397.33,-406.283 1390.99,-374.932 1386.13,-350.856"/>
<polygon fill="red" stroke="red" stroke-width="0.330529" points="1389.56,-350.141 1384.15,-341.032 1382.7,-351.527 1389.56,-350.141"/>
</g>
<!-- 11691&#45;&gt;12832 -->
<g id="edge59" class="edge"><title>11691&#45;&gt;12832</title>
<path fill="none" stroke="green" stroke-width="0.817805" d="M1996,-792.058C1996,-784.035 1996,-775.091 1996,-766.536"/>
<polygon fill="green" stroke="green" stroke-width="0.817805" points="1999.5,-766.383 1996,-756.383 1992.5,-766.383 1999.5,-766.383"/>
</g>
<!-- 12303 -->
<g id="node35" class="node"><title>12303</title>
<ellipse fill="white" stroke="black" cx="2034" cy="-546.344" rx="27.6545" ry="27.6545"/>
<text text-anchor="middle" x="2034" y="-544.144" font-family="Times,serif" font-size="9.00">12303</text>
</g>
<!-- 11691&#45;&gt;12303 -->
<g id="edge52" class="edge"><title>11691&#45;&gt;12303</title>
<path fill="none" stroke="green" stroke-width="0.369775" stroke-dasharray="1,5" d="M2012.43,-797.52C2020.31,-785.98 2028.9,-771.072 2033,-756.23 2049.19,-697.578 2044.59,-626.081 2039.49,-583.769"/>
<polygon fill="green" stroke="green" stroke-width="0.369775" points="2042.94,-583.141 2038.2,-573.667 2036,-584.03 2042.94,-583.141"/>
</g>
<!-- 11691&#45;&gt;8819 -->
<g id="edge49" class="edge"><title>11691&#45;&gt;8819</title>
<path fill="none" stroke="green" stroke-width="0.175238" stroke-dasharray="1,5" d="M2016.67,-801.226C2028.75,-789.716 2043.13,-773.622 2051,-756.23 2091.5,-666.769 2093.65,-547.958 2091.86,-490.374"/>
<polygon fill="green" stroke="green" stroke-width="0.175238" points="2095.34,-489.89 2091.47,-480.027 2088.35,-490.151 2095.34,-489.89"/>
</g>
<!-- 11691&#45;&gt;12351 -->
<g id="edge54" class="edge"><title>11691&#45;&gt;12351</title>
<path fill="none" stroke="green" stroke-width="0.373389" stroke-dasharray="1,5" d="M1979.54,-797.528C1971.66,-785.99 1963.06,-771.082 1959,-756.23 1952.53,-732.585 1952.53,-724.72 1959,-701.075 1962.11,-689.704 1967.88,-678.3 1973.95,-668.401"/>
<polygon fill="green" stroke="green" stroke-width="0.373389" points="1977.03,-670.072 1979.54,-659.777 1971.16,-666.263 1977.03,-670.072"/>
</g>
<!-- 12942&#45;&gt;8819 -->
<g id="edge62" class="edge"><title>12942&#45;&gt;8819</title>
<path fill="none" stroke="green" stroke-width="0.48415" d="M2140.88,-701.235C2133.15,-661.562 2117.91,-584.259 2104,-518.767 2101.98,-509.25 2099.71,-498.938 2097.59,-489.484"/>
<polygon fill="green" stroke="green" stroke-width="0.48415" points="2100.98,-488.625 2095.37,-479.639 2094.15,-490.163 2100.98,-488.625"/>
</g>
<!-- 12303&#45;&gt;8819 -->
<g id="edge53" class="edge"><title>12303&#45;&gt;8819</title>
<path fill="none" stroke="green" stroke-width="0.535592" d="M2048.42,-522.384C2055.5,-511.119 2064.1,-497.424 2071.64,-485.42"/>
<polygon fill="green" stroke="green" stroke-width="0.535592" points="2074.8,-486.968 2077.16,-476.638 2068.87,-483.244 2074.8,-486.968"/>
</g>
<!-- 13487&#45;&gt;Shoot -->
<g id="edge69" class="edge"><title>13487&#45;&gt;Shoot</title>
<path fill="none" stroke="green" stroke-width="0.211053" d="M1312.84,-433.93C1322.74,-422.09 1334.87,-406.572 1344,-391.612 1352.1,-378.329 1359.55,-362.857 1365.47,-349.347"/>
<polygon fill="green" stroke="green" stroke-width="0.211053" points="1368.79,-350.486 1369.5,-339.916 1362.35,-347.736 1368.79,-350.486"/>
</g>
<!-- 8819&#45;&gt;Shoot -->
<g id="edge37" class="edge"><title>8819&#45;&gt;Shoot</title>
<path fill="none" stroke="red" stroke-width="0.142331" stroke-dasharray="1,5" d="M2067.33,-444.561C2053.33,-438.931 2034.87,-432.077 2018,-427.612 1923.07,-402.496 1896.77,-408.344 1800,-391.612 1657.7,-367.007 1488.69,-335.893 1415.64,-322.351"/>
<polygon fill="red" stroke="red" stroke-width="0.142331" points="1416.04,-318.866 1405.57,-320.483 1414.77,-325.749 1416.04,-318.866"/>
</g>
<!-- 12531&#45;&gt; Move Left/Right -->
<g id="edge57" class="edge"><title>12531&#45;&gt; Move Left/Right</title>
<path fill="none" stroke="red" stroke-width="0.336266" d="M665.74,-156.65C671.999,-152.68 679.027,-148.847 686,-146.309 896.491,-69.6724 1165.68,-57.2374 1288.1,-55.8405"/>
<polygon fill="red" stroke="red" stroke-width="0.336266" points="1288.46,-59.3375 1298.43,-55.7452 1288.4,-52.3378 1288.46,-59.3375"/>
</g>
<!-- 13331&#45;&gt;7216 -->
<g id="edge67" class="edge"><title>13331&#45;&gt;7216</title>
<path fill="none" stroke="green" stroke-width="0.389798" d="M2011.05,-288.93C2004.19,-273.894 1994.97,-254.37 1986,-237.463 1980.1,-226.34 1973.17,-214.382 1966.92,-203.929"/>
<polygon fill="green" stroke="green" stroke-width="0.389798" points="1969.81,-201.942 1961.65,-195.19 1963.82,-205.56 1969.81,-201.942"/>
</g>
<!-- 12351&#45;&gt;12303 -->
<g id="edge55" class="edge"><title>12351&#45;&gt;12303</title>
<path fill="none" stroke="red" stroke-width="0.144357" d="M2006.59,-611.664C2010.58,-602.293 2015.2,-591.463 2019.49,-581.394"/>
<polygon fill="red" stroke="red" stroke-width="0.144357" points="2022.77,-582.617 2023.47,-572.045 2016.33,-579.872 2022.77,-582.617"/>
</g>
<!-- 11647&#45;&gt; Move Left/Right -->
<g id="edge64" class="edge"><title>11647&#45;&gt; Move Left/Right</title>
<path fill="none" stroke="red" stroke-width="0.200549" d="M1838.4,-286.993C1838.8,-249.975 1833.61,-183.243 1795,-146.309 1741.87,-95.4841 1528.56,-70.6657 1419.27,-61.0828"/>
<polygon fill="red" stroke="red" stroke-width="0.200549" points="1419.29,-57.5717 1409.02,-60.2026 1418.69,-64.546 1419.29,-57.5717"/>
</g>
<!-- 11647&#45;&gt;7216 -->
<g id="edge47" class="edge"><title>11647&#45;&gt;7216</title>
<path fill="none" stroke="red" stroke-width="0.869685" d="M1847.94,-288.944C1855.48,-273.375 1866.4,-253.272 1879,-237.463 1891.4,-221.905 1907.89,-206.958 1921.74,-195.576"/>
<polygon fill="red" stroke="red" stroke-width="0.869685" points="1923.94,-198.299 1929.55,-189.309 1919.56,-192.841 1923.94,-198.299"/>
</g>
</g>
</svg>
