<?xml version="1.0" encoding="UTF-8" standalone="no"?>
<!DOCTYPE svg PUBLIC "-//W3C//DTD SVG 1.1//EN"
 "http://www.w3.org/Graphics/SVG/1.1/DTD/svg11.dtd">
<!-- Generated by graphviz version 2.38.0 (20140413.2041)
 -->
<!-- Title: %3 Pages: 1 -->
<svg width="2707pt" height="295pt"
 viewBox="0.00 0.00 2707.43 294.58" xmlns="http://www.w3.org/2000/svg" xmlns:xlink="http://www.w3.org/1999/xlink">
<g id="graph0" class="graph" transform="scale(1 1) rotate(0) translate(4 290.576)">
<title>%3</title>
<polygon fill="white" stroke="none" points="-4,4 -4,-290.576 2703.43,-290.576 2703.43,4 -4,4"/>
<!-- wallRadar[1,0] -->
<g id="node1" class="node"><title>wallRadar[1,0]</title>
<polygon fill="lightgray" stroke="black" points="1487.21,-220.362 1417.21,-220.362 1417.21,-202.362 1487.21,-202.362 1487.21,-220.362"/>
<text text-anchor="middle" x="1452.21" y="-209.162" font-family="Times,serif" font-size="9.00">wallRadar[1,0]</text>
</g>
<!-- Shoot -->
<g id="node24" class="node"><title>Shoot</title>
<ellipse fill="lightblue" stroke="black" cx="985.213" cy="-77.0746" rx="26.7407" ry="26.7407"/>
<text text-anchor="middle" x="985.213" y="-74.8746" font-family="Times,serif" font-size="9.00">Shoot</text>
</g>
<!-- wallRadar[1,0]&#45;&gt;Shoot -->
<g id="edge1" class="edge"><title>wallRadar[1,0]&#45;&gt;Shoot</title>
<path fill="none" stroke="red" stroke-width="0.164996" d="M1436.19,-202.197C1427.97,-198.214 1417.71,-193.559 1408.21,-190.149 1268.51,-139.972 1095.65,-101.102 1021.63,-85.5087"/>
<polygon fill="red" stroke="red" stroke-width="0.164996" points="1021.94,-81.9992 1011.44,-83.3784 1020.51,-88.851 1021.94,-81.9992"/>
</g>
<!--  Move Left/Right -->
<g id="node26" class="node"><title> Move Left/Right</title>
<ellipse fill="lightblue" stroke="black" cx="1553.21" cy="-77.0746" rx="55.3091" ry="55.3091"/>
<text text-anchor="middle" x="1553.21" y="-74.8746" font-family="Times,serif" font-size="9.00"> Move Left/Right</text>
</g>
<!-- wallRadar[1,0]&#45;&gt; Move Left/Right -->
<g id="edge45" class="edge"><title>wallRadar[1,0]&#45;&gt; Move Left/Right</title>
<path fill="none" stroke="red" stroke-width="0.428042" d="M1458.53,-202.087C1469.58,-187.621 1493.21,-156.663 1514.1,-129.3"/>
<polygon fill="red" stroke="red" stroke-width="0.428042" points="1516.91,-131.393 1520.2,-121.321 1511.35,-127.145 1516.91,-131.393"/>
</g>
<!-- wallRadar[0,1] -->
<g id="node2" class="node"><title>wallRadar[0,1]</title>
<polygon fill="lightgray" stroke="black" points="490.213,-286.576 420.213,-286.576 420.213,-268.576 490.213,-268.576 490.213,-286.576"/>
<text text-anchor="middle" x="455.213" y="-275.376" font-family="Times,serif" font-size="9.00">wallRadar[0,1]</text>
</g>
<!-- wallRadar[0,1]&#45;&gt;Shoot -->
<g id="edge20" class="edge"><title>wallRadar[0,1]&#45;&gt;Shoot</title>
<path fill="none" stroke="red" stroke-width="0.400627" d="M490.461,-277.466C541.319,-277.251 636.789,-271.132 706.213,-232.576 728.343,-220.285 723.876,-205.223 744.213,-190.149 810.282,-141.18 901.163,-106.075 950.288,-89.2638"/>
<polygon fill="red" stroke="red" stroke-width="0.400627" points="951.466,-92.5605 959.825,-86.0512 949.231,-85.9268 951.466,-92.5605"/>
</g>
<!-- Move Forward/Backward -->
<g id="node25" class="node"><title>Move Forward/Backward</title>
<ellipse fill="lightblue" stroke="black" cx="576.213" cy="-77.0746" rx="77.1494" ry="77.1494"/>
<text text-anchor="middle" x="576.213" y="-74.8746" font-family="Times,serif" font-size="9.00">Move Forward/Backward</text>
</g>
<!-- wallRadar[0,1]&#45;&gt;Move Forward/Backward -->
<g id="edge2" class="edge"><title>wallRadar[0,1]&#45;&gt;Move Forward/Backward</title>
<path fill="none" stroke="red" stroke-width="0.214831" d="M420.173,-276.445C340.354,-274.891 155.968,-263.491 210.213,-190.149 243.656,-144.933 392.872,-110.515 490.15,-92.3824"/>
<polygon fill="red" stroke="red" stroke-width="0.214831" points="491.074,-95.7712 500.275,-90.5187 489.807,-88.8868 491.074,-95.7712"/>
</g>
<!-- wallRadar[0,1]&#45;&gt; Move Left/Right -->
<g id="edge47" class="edge"><title>wallRadar[0,1]&#45;&gt; Move Left/Right</title>
<path fill="none" stroke="red" stroke-width="0.306211" d="M490.373,-276.177C667.442,-274.033 1454.71,-262.823 1496.21,-232.576 1524.9,-211.669 1539.17,-174.701 1546.26,-142.168"/>
<polygon fill="red" stroke="red" stroke-width="0.306211" points="1549.71,-142.727 1548.23,-132.236 1542.85,-141.36 1549.71,-142.727"/>
</g>
<!-- 195 -->
<g id="node28" class="node"><title>195</title>
<ellipse fill="white" stroke="black" cx="21.2132" cy="-211.362" rx="21.4286" ry="21.4286"/>
<text text-anchor="middle" x="21.2132" y="-209.162" font-family="Times,serif" font-size="9.00">195</text>
</g>
<!-- wallRadar[0,1]&#45;&gt;195 -->
<g id="edge55" class="edge"><title>wallRadar[0,1]&#45;&gt;195</title>
<path fill="none" stroke="green" stroke-width="0.273944" d="M420.03,-274.911C334.683,-270.528 118.715,-257.269 51.2132,-232.576 49.5913,-231.982 47.9716,-231.283 46.3724,-230.508"/>
<polygon fill="green" stroke="green" stroke-width="0.273944" points="47.9778,-227.394 37.5647,-225.44 44.4867,-233.461 47.9778,-227.394"/>
</g>
<!-- wallRadar[&#45;1,0] -->
<g id="node3" class="node"><title>wallRadar[&#45;1,0]</title>
<polygon fill="lightgray" stroke="black" points="442.713,-220.362 369.713,-220.362 369.713,-202.362 442.713,-202.362 442.713,-220.362"/>
<text text-anchor="middle" x="406.213" y="-209.162" font-family="Times,serif" font-size="9.00">wallRadar[&#45;1,0]</text>
</g>
<!-- wallRadar[&#45;1,0]&#45;&gt;Shoot -->
<g id="edge46" class="edge"><title>wallRadar[&#45;1,0]&#45;&gt;Shoot</title>
<path fill="none" stroke="red" stroke-width="0.421943" d="M422.028,-202.265C430.738,-198.102 441.854,-193.262 452.213,-190.149 542.902,-162.899 569.416,-173.013 662.213,-154.149 767.132,-132.822 889.94,-102.368 949.372,-87.2785"/>
<polygon fill="red" stroke="red" stroke-width="0.421943" points="950.547,-90.5911 959.374,-84.7319 948.82,-83.8075 950.547,-90.5911"/>
</g>
<!-- wallRadar[&#45;1,0]&#45;&gt;Move Forward/Backward -->
<g id="edge24" class="edge"><title>wallRadar[&#45;1,0]&#45;&gt;Move Forward/Backward</title>
<path fill="none" stroke="green" stroke-width="0.258689" d="M416.592,-202.286C434.544,-188.316 472.796,-158.55 507.353,-131.659"/>
<polygon fill="green" stroke="green" stroke-width="0.258689" points="509.838,-134.16 515.581,-125.257 505.539,-128.636 509.838,-134.16"/>
</g>
<!-- wallRadar[0,&#45;1] -->
<g id="node4" class="node"><title>wallRadar[0,&#45;1]</title>
<polygon fill="lightgray" stroke="black" points="2515.71,-286.576 2442.71,-286.576 2442.71,-268.576 2515.71,-268.576 2515.71,-286.576"/>
<text text-anchor="middle" x="2479.21" y="-275.376" font-family="Times,serif" font-size="9.00">wallRadar[0,&#45;1]</text>
</g>
<!-- wallRadar[0.7,0.7] -->
<g id="node5" class="node"><title>wallRadar[0.7,0.7]</title>
<polygon fill="lightgray" stroke="black" points="1594.71,-286.576 1511.71,-286.576 1511.71,-268.576 1594.71,-268.576 1594.71,-286.576"/>
<text text-anchor="middle" x="1553.21" y="-275.376" font-family="Times,serif" font-size="9.00">wallRadar[0.7,0.7]</text>
</g>
<!-- wallRadar[0.7,0.7]&#45;&gt;Shoot -->
<g id="edge40" class="edge"><title>wallRadar[0.7,0.7]&#45;&gt;Shoot</title>
<path fill="none" stroke="green" stroke-width="0.569263" d="M1511.66,-276.21C1389.97,-274.737 1040.63,-267.477 1004.21,-232.576 972.694,-202.365 973.389,-148.755 978.193,-113.31"/>
<polygon fill="green" stroke="green" stroke-width="0.569263" points="981.659,-113.798 979.708,-103.384 974.739,-112.741 981.659,-113.798"/>
</g>
<!-- wallRadar[0.7,0.7]&#45;&gt;Move Forward/Backward -->
<g id="edge37" class="edge"><title>wallRadar[0.7,0.7]&#45;&gt;Move Forward/Backward</title>
<path fill="none" stroke="green" stroke-width="0.336897" d="M1511.6,-276.783C1293.28,-277.674 288.321,-279.223 243.213,-232.576 162.417,-149.021 365.738,-106.104 489.374,-88.3288"/>
<polygon fill="green" stroke="green" stroke-width="0.336897" points="490.189,-91.7486 499.604,-86.889 489.213,-84.8169 490.189,-91.7486"/>
</g>
<!-- wallRadar[0.7,0.7]&#45;&gt; Move Left/Right -->
<g id="edge12" class="edge"><title>wallRadar[0.7,0.7]&#45;&gt; Move Left/Right</title>
<path fill="none" stroke="green" stroke-width="0.34382" d="M1553.21,-268.548C1553.21,-247.533 1553.21,-189.305 1553.21,-142.712"/>
<polygon fill="green" stroke="green" stroke-width="0.34382" points="1556.71,-142.663 1553.21,-132.663 1549.71,-142.663 1556.71,-142.663"/>
</g>
<!-- Turn left/right -->
<g id="node27" class="node"><title>Turn left/right</title>
<ellipse fill="lightblue" stroke="black" cx="2328.21" cy="-77.0746" rx="46.8387" ry="46.8387"/>
<text text-anchor="middle" x="2328.21" y="-74.8746" font-family="Times,serif" font-size="9.00">Turn left/right</text>
</g>
<!-- wallRadar[0.7,0.7]&#45;&gt;Turn left/right -->
<g id="edge13" class="edge"><title>wallRadar[0.7,0.7]&#45;&gt;Turn left/right</title>
<path fill="none" stroke="green" stroke-width="0.425043" d="M1594.99,-275.979C1761.52,-273.402 2370.29,-261.991 2398.21,-232.576 2429.12,-200.013 2398.39,-151.433 2368.47,-117.466"/>
<polygon fill="green" stroke="green" stroke-width="0.425043" points="2371.03,-115.082 2361.72,-110.024 2365.84,-119.783 2371.03,-115.082"/>
</g>
<!-- 254 -->
<g id="node30" class="node"><title>254</title>
<ellipse fill="white" stroke="black" cx="2466.21" cy="-211.362" rx="21.4286" ry="21.4286"/>
<text text-anchor="middle" x="2466.21" y="-209.162" font-family="Times,serif" font-size="9.00">254</text>
</g>
<!-- wallRadar[0.7,0.7]&#45;&gt;254 -->
<g id="edge57" class="edge"><title>wallRadar[0.7,0.7]&#45;&gt;254</title>
<path fill="none" stroke="green" stroke-width="0.469213" d="M1594.96,-277.067C1747.16,-278.458 2271.66,-279.652 2431.21,-232.576 2434.21,-231.691 2437.23,-230.502 2440.16,-229.141"/>
<polygon fill="green" stroke="green" stroke-width="0.469213" points="2441.96,-232.151 2449.15,-224.371 2438.67,-225.968 2441.96,-232.151"/>
</g>
<!-- wallRadar[&#45;0.7,0.7] -->
<g id="node6" class="node"><title>wallRadar[&#45;0.7,0.7]</title>
<polygon fill="lightgray" stroke="black" points="957.213,-220.362 871.213,-220.362 871.213,-202.362 957.213,-202.362 957.213,-220.362"/>
<text text-anchor="middle" x="914.213" y="-209.162" font-family="Times,serif" font-size="9.00">wallRadar[&#45;0.7,0.7]</text>
</g>
<!-- wallRadar[&#45;0.7,0.7]&#45;&gt;Shoot -->
<g id="edge22" class="edge"><title>wallRadar[&#45;0.7,0.7]&#45;&gt;Shoot</title>
<path fill="none" stroke="green" stroke-width="0.215421" d="M918.655,-202.087C928.339,-184.043 951.793,-140.344 968.099,-109.962"/>
<polygon fill="green" stroke="green" stroke-width="0.215421" points="971.262,-111.47 972.907,-101.004 965.094,-108.16 971.262,-111.47"/>
</g>
<!-- wallRadar[&#45;0.7,0.7]&#45;&gt;Move Forward/Backward -->
<g id="edge36" class="edge"><title>wallRadar[&#45;0.7,0.7]&#45;&gt;Move Forward/Backward</title>
<path fill="none" stroke="green" stroke-width="0.695153" d="M893.579,-202.286C847.714,-184.336 735.214,-140.305 657.286,-109.805"/>
<polygon fill="green" stroke="green" stroke-width="0.695153" points="658.548,-106.541 647.961,-106.155 655.997,-113.059 658.548,-106.541"/>
</g>
<!-- wallRadar[&#45;0.7,0.7]&#45;&gt; Move Left/Right -->
<g id="edge10" class="edge"><title>wallRadar[&#45;0.7,0.7]&#45;&gt; Move Left/Right</title>
<path fill="none" stroke="red" stroke-width="0.593573" d="M949.226,-202.332C965.867,-198.558 986.049,-194.043 1004.21,-190.149 1179.34,-152.611 1386.54,-111.096 1489.09,-90.742"/>
<polygon fill="red" stroke="red" stroke-width="0.593573" points="1489.86,-94.1589 1498.98,-88.78 1488.49,-87.2926 1489.86,-94.1589"/>
</g>
<!-- wallRadar[&#45;0.7,&#45;0.7] -->
<g id="node7" class="node"><title>wallRadar[&#45;0.7,&#45;0.7]</title>
<polygon fill="lightgray" stroke="black" points="1398.71,-220.362 1309.71,-220.362 1309.71,-202.362 1398.71,-202.362 1398.71,-220.362"/>
<text text-anchor="middle" x="1354.21" y="-209.162" font-family="Times,serif" font-size="9.00">wallRadar[&#45;0.7,&#45;0.7]</text>
</g>
<!-- wallRadar[&#45;0.7,&#45;0.7]&#45;&gt;Shoot -->
<g id="edge30" class="edge"><title>wallRadar[&#45;0.7,&#45;0.7]&#45;&gt;Shoot</title>
<path fill="none" stroke="green" stroke-width="0.141597" d="M1332.96,-202.314C1323.02,-198.577 1311.03,-194.097 1300.21,-190.149 1198.67,-153.083 1078.17,-110.637 1020.03,-90.2524"/>
<polygon fill="green" stroke="green" stroke-width="0.141597" points="1021.17,-86.9453 1010.58,-86.9414 1018.86,-93.5515 1021.17,-86.9453"/>
</g>
<!-- wallRadar[&#45;0.7,&#45;0.7]&#45;&gt;Move Forward/Backward -->
<g id="edge50" class="edge"><title>wallRadar[&#45;0.7,&#45;0.7]&#45;&gt;Move Forward/Backward</title>
<path fill="none" stroke="red" stroke-width="0.546394" d="M1336.08,-202.245C1325.77,-197.969 1312.49,-193.027 1300.21,-190.149 1147.53,-154.369 1104.23,-177.848 949.213,-154.149 849.644,-138.928 736.427,-114.867 661.103,-97.8867"/>
<polygon fill="red" stroke="red" stroke-width="0.546394" points="661.717,-94.4372 651.192,-95.6438 660.173,-101.265 661.717,-94.4372"/>
</g>
<!-- wallRadar[&#45;0.7,&#45;0.7]&#45;&gt; Move Left/Right -->
<g id="edge26" class="edge"><title>wallRadar[&#45;0.7,&#45;0.7]&#45;&gt; Move Left/Right</title>
<path fill="none" stroke="red" stroke-width="0.286157" d="M1366.36,-202.286C1392.13,-185.159 1453.61,-144.287 1499.05,-114.081"/>
<polygon fill="red" stroke="red" stroke-width="0.286157" points="1501.23,-116.834 1507.62,-108.383 1497.35,-111.005 1501.23,-116.834"/>
</g>
<!-- wallRadar[&#45;0.7,&#45;0.7]&#45;&gt;Turn left/right -->
<g id="edge43" class="edge"><title>wallRadar[&#45;0.7,&#45;0.7]&#45;&gt;Turn left/right</title>
<path fill="none" stroke="red" stroke-width="0.46369" d="M1372.37,-202.336C1382.69,-198.087 1395.96,-193.144 1408.21,-190.149 1574.12,-149.602 2097.51,-99.2336 2271.42,-83.215"/>
<polygon fill="red" stroke="red" stroke-width="0.46369" points="2271.99,-86.6769 2281.63,-82.2767 2271.35,-79.7062 2271.99,-86.6769"/>
</g>
<!-- wallRadar[0.7,&#45;0.7] -->
<g id="node8" class="node"><title>wallRadar[0.7,&#45;0.7]</title>
<polygon fill="lightgray" stroke="black" points="1939.21,-220.362 1853.21,-220.362 1853.21,-202.362 1939.21,-202.362 1939.21,-220.362"/>
<text text-anchor="middle" x="1896.21" y="-209.162" font-family="Times,serif" font-size="9.00">wallRadar[0.7,&#45;0.7]</text>
</g>
<!-- wallRadar[0.7,&#45;0.7]&#45;&gt;Move Forward/Backward -->
<g id="edge34" class="edge"><title>wallRadar[0.7,&#45;0.7]&#45;&gt;Move Forward/Backward</title>
<path fill="none" stroke="red" stroke-width="0.464546" d="M1879.78,-202.36C1869.76,-197.891 1856.54,-192.718 1844.21,-190.149 1454.49,-108.926 1344.42,-202.082 949.213,-154.149 849.22,-142.021 736.084,-117.371 660.895,-99.4065"/>
<polygon fill="red" stroke="red" stroke-width="0.464546" points="661.543,-95.9625 651.002,-97.029 659.907,-102.769 661.543,-95.9625"/>
</g>
<!-- wallRadar[0.7,&#45;0.7]&#45;&gt; Move Left/Right -->
<g id="edge33" class="edge"><title>wallRadar[0.7,&#45;0.7]&#45;&gt; Move Left/Right</title>
<path fill="none" stroke="red" stroke-width="0.47643" d="M1875.47,-202.282C1865.95,-198.578 1854.51,-194.134 1844.21,-190.149 1764.7,-159.383 1672.89,-124.057 1614,-101.424"/>
<polygon fill="red" stroke="red" stroke-width="0.47643" points="1615.07,-98.0858 1604.48,-97.7654 1612.56,-104.62 1615.07,-98.0858"/>
</g>
<!-- wallRadar[0.7,&#45;0.7]&#45;&gt;Turn left/right -->
<g id="edge39" class="edge"><title>wallRadar[0.7,&#45;0.7]&#45;&gt;Turn left/right</title>
<path fill="none" stroke="red" stroke-width="0.264562" d="M1916.22,-202.318C1926.08,-198.455 1938.2,-193.87 1949.21,-190.149 2063.29,-151.592 2199.07,-113.23 2273.19,-92.9148"/>
<polygon fill="red" stroke="red" stroke-width="0.264562" points="2274.51,-96.1832 2283.23,-90.1699 2272.66,-89.431 2274.51,-96.1832"/>
</g>
<!-- enemyRadar[RightBack] -->
<g id="node9" class="node"><title>enemyRadar[RightBack]</title>
<polygon fill="lightgray" stroke="black" points="565.213,-220.362 461.213,-220.362 461.213,-202.362 565.213,-202.362 565.213,-220.362"/>
<text text-anchor="middle" x="513.213" y="-209.162" font-family="Times,serif" font-size="9.00">enemyRadar[RightBack]</text>
</g>
<!-- enemyRadar[RightBack]&#45;&gt;Shoot -->
<g id="edge8" class="edge"><title>enemyRadar[RightBack]&#45;&gt;Shoot</title>
<path fill="none" stroke="green" stroke-width="0.39892" d="M536.583,-202.292C547.901,-198.467 561.717,-193.921 574.213,-190.149 711.885,-148.601 877.522,-105.514 949.225,-87.1931"/>
<polygon fill="green" stroke="green" stroke-width="0.39892" points="950.283,-90.5354 959.108,-84.6729 948.553,-83.7525 950.283,-90.5354"/>
</g>
<!-- enemyRadar[RightBack]&#45;&gt;Move Forward/Backward -->
<g id="edge11" class="edge"><title>enemyRadar[RightBack]&#45;&gt;Move Forward/Backward</title>
<path fill="none" stroke="red" stroke-width="0.192375" d="M517.154,-202.087C521.807,-192.317 530.043,-175.024 538.914,-156.396"/>
<polygon fill="red" stroke="red" stroke-width="0.192375" points="542.167,-157.705 543.307,-147.171 535.847,-154.695 542.167,-157.705"/>
</g>
<!-- enemyRadar[LeftBack] -->
<g id="node10" class="node"><title>enemyRadar[LeftBack]</title>
<polygon fill="lightgray" stroke="black" points="351.713,-220.362 252.713,-220.362 252.713,-202.362 351.713,-202.362 351.713,-220.362"/>
<text text-anchor="middle" x="302.213" y="-209.162" font-family="Times,serif" font-size="9.00">enemyRadar[LeftBack]</text>
</g>
<!-- enemyRadar[LeftBack]&#45;&gt;Shoot -->
<g id="edge5" class="edge"><title>enemyRadar[LeftBack]&#45;&gt;Shoot</title>
<path fill="none" stroke="red" stroke-width="0.315989" d="M321.765,-202.358C332.867,-198.117 347.122,-193.173 360.213,-190.149 491.918,-159.729 529.105,-177.681 662.213,-154.149 767.643,-135.511 890.22,-103.842 949.487,-87.8844"/>
<polygon fill="red" stroke="red" stroke-width="0.315989" points="950.722,-91.1763 959.461,-85.1861 948.894,-84.4192 950.722,-91.1763"/>
</g>
<!-- enemyRadar[LeftBack]&#45;&gt;Move Forward/Backward -->
<g id="edge35" class="edge"><title>enemyRadar[LeftBack]&#45;&gt;Move Forward/Backward</title>
<path fill="none" stroke="red" stroke-width="0.478313" d="M318.941,-202.286C353.714,-185.498 435.74,-145.895 497.895,-115.887"/>
<polygon fill="red" stroke="red" stroke-width="0.478313" points="499.43,-119.032 506.914,-111.533 496.387,-112.729 499.43,-119.032"/>
</g>
<!-- enemyRadar[Right45ø] -->
<g id="node11" class="node"><title>enemyRadar[Right45ø]</title>
<polygon fill="lightgray" stroke="black" points="853.213,-220.362 753.213,-220.362 753.213,-202.362 853.213,-202.362 853.213,-220.362"/>
<text text-anchor="middle" x="803.213" y="-209.162" font-family="Times,serif" font-size="9.00">enemyRadar[Right45ø]</text>
</g>
<!-- enemyRadar[Right45ø]&#45;&gt;Shoot -->
<g id="edge16" class="edge"><title>enemyRadar[Right45ø]&#45;&gt;Shoot</title>
<path fill="none" stroke="green" stroke-width="0.269651" d="M814.324,-202.286C841.92,-182.228 914.318,-129.605 955.482,-99.6849"/>
<polygon fill="green" stroke="green" stroke-width="0.269651" points="957.733,-102.375 963.765,-93.6647 953.618,-96.7131 957.733,-102.375"/>
</g>
<!-- enemyRadar[Left45ø] -->
<g id="node12" class="node"><title>enemyRadar[Left45ø]</title>
<polygon fill="lightgray" stroke="black" points="2600.71,-220.362 2505.71,-220.362 2505.71,-202.362 2600.71,-202.362 2600.71,-220.362"/>
<text text-anchor="middle" x="2553.21" y="-209.162" font-family="Times,serif" font-size="9.00">enemyRadar[Left45ø]</text>
</g>
<!-- enemyRadar[Left45ø]&#45;&gt;Turn left/right -->
<g id="edge15" class="edge"><title>enemyRadar[Left45ø]&#45;&gt;Turn left/right</title>
<path fill="none" stroke="green" stroke-width="0.796772" d="M2539.48,-202.286C2507.91,-183.726 2428.92,-137.284 2376.98,-106.746"/>
<polygon fill="green" stroke="green" stroke-width="0.796772" points="2378.64,-103.666 2368.25,-101.614 2375.1,-109.7 2378.64,-103.666"/>
</g>
<!-- enemyRadar[RightFront20ø] -->
<g id="node13" class="node"><title>enemyRadar[RightFront20ø]</title>
<polygon fill="lightgray" stroke="black" points="2076.71,-220.362 1957.71,-220.362 1957.71,-202.362 2076.71,-202.362 2076.71,-220.362"/>
<text text-anchor="middle" x="2017.21" y="-209.162" font-family="Times,serif" font-size="9.00">enemyRadar[RightFront20ø]</text>
</g>
<!-- enemyRadar[RightFront20ø]&#45;&gt;Shoot -->
<g id="edge32" class="edge"><title>enemyRadar[RightFront20ø]&#45;&gt;Shoot</title>
<path fill="none" stroke="green" stroke-width="0.426279" d="M1994.19,-202.319C1980.91,-198.01 1963.81,-193.013 1948.21,-190.149 1746.95,-153.189 1692.51,-177.435 1489.21,-154.149 1313.22,-133.991 1104.28,-98.84 1021.54,-84.4712"/>
<polygon fill="green" stroke="green" stroke-width="0.426279" points="1022.08,-81.0129 1011.63,-82.7444 1020.88,-87.909 1022.08,-81.0129"/>
</g>
<!-- enemyRadar[RightFront20ø]&#45;&gt; Move Left/Right -->
<g id="edge4" class="edge"><title>enemyRadar[RightFront20ø]&#45;&gt; Move Left/Right</title>
<path fill="none" stroke="red" stroke-width="0.111755" d="M1990.03,-202.341C1977.33,-198.609 1962.01,-194.126 1948.21,-190.149 1830.97,-156.343 1693.91,-117.637 1615.95,-95.6988"/>
<polygon fill="red" stroke="red" stroke-width="0.111755" points="1616.86,-92.3169 1606.28,-92.9776 1614.96,-99.0553 1616.86,-92.3169"/>
</g>
<!-- enemyRadar[RightFront20ø]&#45;&gt;Turn left/right -->
<g id="edge52" class="edge"><title>enemyRadar[RightFront20ø]&#45;&gt;Turn left/right</title>
<path fill="none" stroke="red" stroke-width="0.470637" d="M2036.2,-202.286C2082.99,-182.383 2205.17,-130.414 2275.77,-100.38"/>
<polygon fill="red" stroke="red" stroke-width="0.470637" points="2277.55,-103.429 2285.38,-96.2938 2274.81,-96.9873 2277.55,-103.429"/>
</g>
<!-- enemyRadar[LeftFront20ø] -->
<g id="node14" class="node"><title>enemyRadar[LeftFront20ø]</title>
<polygon fill="lightgray" stroke="black" points="2424.21,-286.576 2310.21,-286.576 2310.21,-268.576 2424.21,-268.576 2424.21,-286.576"/>
<text text-anchor="middle" x="2367.21" y="-275.376" font-family="Times,serif" font-size="9.00">enemyRadar[LeftFront20ø]</text>
</g>
<!-- enemyRadar[LeftFront20ø]&#45;&gt;Shoot -->
<g id="edge28" class="edge"><title>enemyRadar[LeftFront20ø]&#45;&gt;Shoot</title>
<path fill="none" stroke="green" stroke-width="0.104942" d="M2309.83,-275.73C2077,-272.141 1212.75,-257.207 1160.21,-232.576 1137.29,-221.83 1140.51,-207.644 1122.21,-190.149 1087.19,-156.661 1043.33,-121.905 1014.81,-100.149"/>
<polygon fill="green" stroke="green" stroke-width="0.104942" points="1016.56,-97.0845 1006.48,-93.8306 1012.34,-102.662 1016.56,-97.0845"/>
</g>
<!-- enemyRadar[LeftFront20ø]&#45;&gt; Move Left/Right -->
<g id="edge3" class="edge"><title>enemyRadar[LeftFront20ø]&#45;&gt; Move Left/Right</title>
<path fill="none" stroke="green" stroke-width="0.226944" d="M2310.17,-276.553C2258.57,-274.233 2182.03,-264.898 2124.21,-232.576 2102.12,-220.223 2108.13,-202.811 2086.21,-190.149 1934.86,-102.723 1724.19,-83.1185 1618.78,-78.9742"/>
<polygon fill="green" stroke="green" stroke-width="0.226944" points="1618.72,-75.4701 1608.6,-78.6097 1618.47,-82.4656 1618.72,-75.4701"/>
</g>
<!-- enemyRadar[LeftFront20ø]&#45;&gt;Turn left/right -->
<g id="edge42" class="edge"><title>enemyRadar[LeftFront20ø]&#45;&gt;Turn left/right</title>
<path fill="none" stroke="green" stroke-width="0.468453" d="M2421.5,-268.537C2491.26,-257.949 2604.16,-239.825 2610.21,-232.576 2622.3,-218.103 2620.8,-205.752 2610.21,-190.149 2559.77,-115.825 2451.43,-90.7895 2384.69,-82.3569"/>
<polygon fill="green" stroke="green" stroke-width="0.468453" points="2385.1,-78.8804 2374.76,-81.185 2384.28,-85.8323 2385.1,-78.8804"/>
</g>
<!-- 136 -->
<g id="node29" class="node"><title>136</title>
<ellipse fill="white" stroke="black" cx="2678.21" cy="-211.362" rx="21.4286" ry="21.4286"/>
<text text-anchor="middle" x="2678.21" y="-209.162" font-family="Times,serif" font-size="9.00">136</text>
</g>
<!-- enemyRadar[LeftFront20ø]&#45;&gt;136 -->
<g id="edge53" class="edge"><title>enemyRadar[LeftFront20ø]&#45;&gt;136</title>
<path fill="none" stroke="green" stroke-width="0.491769" d="M2424.38,-268.597C2499.14,-257.988 2623.01,-239.744 2643.21,-232.576 2646.16,-231.53 2649.14,-230.236 2652.06,-228.812"/>
<polygon fill="green" stroke="green" stroke-width="0.491769" points="2653.89,-231.801 2661.02,-223.963 2650.56,-225.645 2653.89,-231.801"/>
</g>
<!-- enemyRadar[RightFront15ø] -->
<g id="node15" class="node"><title>enemyRadar[RightFront15ø]</title>
<polygon fill="lightgray" stroke="black" points="1700.71,-220.362 1581.71,-220.362 1581.71,-202.362 1700.71,-202.362 1700.71,-220.362"/>
<text text-anchor="middle" x="1641.21" y="-209.162" font-family="Times,serif" font-size="9.00">enemyRadar[RightFront15ø]</text>
</g>
<!-- enemyRadar[RightFront15ø]&#45;&gt; Move Left/Right -->
<g id="edge18" class="edge"><title>enemyRadar[RightFront15ø]&#45;&gt; Move Left/Right</title>
<path fill="none" stroke="red" stroke-width="0.360314" d="M1635.71,-202.087C1626.41,-188.102 1606.85,-158.706 1589.11,-132.043"/>
<polygon fill="red" stroke="red" stroke-width="0.360314" points="1591.89,-129.893 1583.43,-123.505 1586.06,-133.77 1591.89,-129.893"/>
</g>
<!-- enemyRadar[LeftFront15ø] -->
<g id="node16" class="node"><title>enemyRadar[LeftFront15ø]</title>
<polygon fill="lightgray" stroke="black" points="697.213,-220.362 583.213,-220.362 583.213,-202.362 697.213,-202.362 697.213,-220.362"/>
<text text-anchor="middle" x="640.213" y="-209.162" font-family="Times,serif" font-size="9.00">enemyRadar[LeftFront15ø]</text>
</g>
<!-- enemyRadar[LeftFront15ø]&#45;&gt;Shoot -->
<g id="edge25" class="edge"><title>enemyRadar[LeftFront15ø]&#45;&gt;Shoot</title>
<path fill="none" stroke="red" stroke-width="0.442929" d="M661.275,-202.286C718.982,-180.159 880.038,-118.403 950.952,-91.2118"/>
<polygon fill="red" stroke="red" stroke-width="0.442929" points="952.256,-94.4604 960.34,-87.6121 949.75,-87.9245 952.256,-94.4604"/>
</g>
<!-- enemyRadar[LeftFront15ø]&#45;&gt;Move Forward/Backward -->
<g id="edge29" class="edge"><title>enemyRadar[LeftFront15ø]&#45;&gt;Move Forward/Backward</title>
<path fill="none" stroke="green" stroke-width="0.203387" d="M636.21,-202.087C631.438,-192.223 622.956,-174.693 613.846,-155.862"/>
<polygon fill="green" stroke="green" stroke-width="0.203387" points="616.989,-154.321 609.483,-146.843 610.687,-157.369 616.989,-154.321"/>
</g>
<!-- enemyRadar[LeftFront15ø]&#45;&gt; Move Left/Right -->
<g id="edge41" class="edge"><title>enemyRadar[LeftFront15ø]&#45;&gt; Move Left/Right</title>
<path fill="none" stroke="green" stroke-width="0.197469" d="M678.634,-202.298C698.212,-198.341 722.425,-193.679 744.213,-190.149 866.762,-170.297 898.207,-170.937 1021.21,-154.149 1189.91,-131.127 1388.42,-102.271 1488.53,-87.5969"/>
<polygon fill="green" stroke="green" stroke-width="0.197469" points="1489.1,-91.0502 1498.49,-86.1359 1488.09,-84.1243 1489.1,-91.0502"/>
</g>
<!-- enemyRadar[RightFront7.5ø] -->
<g id="node17" class="node"><title>enemyRadar[RightFront7.5ø]</title>
<polygon fill="lightgray" stroke="black" points="2389.21,-220.362 2267.21,-220.362 2267.21,-202.362 2389.21,-202.362 2389.21,-220.362"/>
<text text-anchor="middle" x="2328.21" y="-209.162" font-family="Times,serif" font-size="9.00">enemyRadar[RightFront7.5ø]</text>
</g>
<!-- enemyRadar[RightFront7.5ø]&#45;&gt; Move Left/Right -->
<g id="edge49" class="edge"><title>enemyRadar[RightFront7.5ø]&#45;&gt; Move Left/Right</title>
<path fill="none" stroke="red" stroke-width="0.596484" d="M2303.13,-202.306C2289.88,-198.256 2273.28,-193.508 2258.21,-190.149 2024.96,-138.141 1743.1,-100.894 1618.2,-85.6792"/>
<polygon fill="red" stroke="red" stroke-width="0.596484" points="1618.39,-82.1769 1608.05,-84.4484 1617.55,-89.126 1618.39,-82.1769"/>
</g>
<!-- enemyRadar[RightFront7.5ø]&#45;&gt;Turn left/right -->
<g id="edge23" class="edge"><title>enemyRadar[RightFront7.5ø]&#45;&gt;Turn left/right</title>
<path fill="none" stroke="green" stroke-width="0.318965" d="M2328.21,-202.087C2328.21,-188.455 2328.21,-160.178 2328.21,-134.065"/>
<polygon fill="green" stroke="green" stroke-width="0.318965" points="2331.71,-133.819 2328.21,-123.819 2324.71,-133.819 2331.71,-133.819"/>
</g>
<!-- enemyRadar[LeftFront7.5ø] -->
<g id="node18" class="node"><title>enemyRadar[LeftFront7.5ø]</title>
<polygon fill="lightgray" stroke="black" points="2249.21,-220.362 2133.21,-220.362 2133.21,-202.362 2249.21,-202.362 2249.21,-220.362"/>
<text text-anchor="middle" x="2191.21" y="-209.162" font-family="Times,serif" font-size="9.00">enemyRadar[LeftFront7.5ø]</text>
</g>
<!-- enemyRadar[LeftFront7.5ø]&#45;&gt;Shoot -->
<g id="edge19" class="edge"><title>enemyRadar[LeftFront7.5ø]&#45;&gt;Shoot</title>
<path fill="none" stroke="green" stroke-width="0.732199" d="M2155.44,-202.279C2135.22,-198.012 2109.42,-193.07 2086.21,-190.149 1822.48,-156.955 1753.56,-182.014 1489.21,-154.149 1313.04,-135.579 1104.2,-99.5326 1021.51,-84.6977"/>
<polygon fill="green" stroke="green" stroke-width="0.732199" points="1022.07,-81.2419 1011.61,-82.9137 1020.83,-88.131 1022.07,-81.2419"/>
</g>
<!-- enemyRadar[LeftFront7.5ø]&#45;&gt; Move Left/Right -->
<g id="edge51" class="edge"><title>enemyRadar[LeftFront7.5ø]&#45;&gt; Move Left/Right</title>
<path fill="none" stroke="red" stroke-width="0.110616" d="M2164.33,-202.277C2150.85,-198.361 2134.24,-193.741 2119.21,-190.149 1938.7,-147.01 1723.02,-107.61 1617.61,-89.133"/>
<polygon fill="red" stroke="red" stroke-width="0.110616" points="1618.22,-85.6853 1607.76,-87.4107 1617.01,-92.5807 1618.22,-85.6853"/>
</g>
<!-- enemyRadar[LeftFront7.5ø]&#45;&gt;Turn left/right -->
<g id="edge27" class="edge"><title>enemyRadar[LeftFront7.5ø]&#45;&gt;Turn left/right</title>
<path fill="none" stroke="green" stroke-width="0.276791" d="M2199.78,-202.087C2217.03,-185.435 2256.9,-146.931 2287.68,-117.211"/>
<polygon fill="green" stroke="green" stroke-width="0.276791" points="2290.13,-119.712 2294.89,-110.248 2285.27,-114.677 2290.13,-119.712"/>
</g>
<!-- enemyRadar[RightFront2.5ø] -->
<g id="node19" class="node"><title>enemyRadar[RightFront2.5ø]</title>
<polygon fill="lightgray" stroke="black" points="1291.21,-220.362 1169.21,-220.362 1169.21,-202.362 1291.21,-202.362 1291.21,-220.362"/>
<text text-anchor="middle" x="1230.21" y="-209.162" font-family="Times,serif" font-size="9.00">enemyRadar[RightFront2.5ø]</text>
</g>
<!-- enemyRadar[RightFront2.5ø]&#45;&gt;Shoot -->
<g id="edge17" class="edge"><title>enemyRadar[RightFront2.5ø]&#45;&gt;Shoot</title>
<path fill="none" stroke="green" stroke-width="0.349172" d="M1215.26,-202.286C1176.35,-181.277 1071.27,-124.544 1017.65,-95.5895"/>
<polygon fill="green" stroke="green" stroke-width="0.349172" points="1019.04,-92.3597 1008.57,-90.6883 1015.71,-98.5192 1019.04,-92.3597"/>
</g>
<!-- enemyRadar[RightFront2.5ø]&#45;&gt;Move Forward/Backward -->
<g id="edge48" class="edge"><title>enemyRadar[RightFront2.5ø]&#45;&gt;Move Forward/Backward</title>
<path fill="none" stroke="green" stroke-width="0.28159" d="M1189.72,-202.311C1135.1,-191.441 1034.8,-171.437 949.213,-154.149 850.481,-134.205 737.105,-111.045 661.515,-95.567"/>
<polygon fill="green" stroke="green" stroke-width="0.28159" points="662.065,-92.1072 651.567,-93.5296 660.661,-98.9648 662.065,-92.1072"/>
</g>
<!-- enemyRadar[RightFront2.5ø]&#45;&gt;Turn left/right -->
<g id="edge44" class="edge"><title>enemyRadar[RightFront2.5ø]&#45;&gt;Turn left/right</title>
<path fill="none" stroke="red" stroke-width="0.260649" stroke-dasharray="1,5" d="M1254.61,-202.315C1268.19,-198.114 1285.49,-193.222 1301.21,-190.149 1325.31,-185.439 2060.02,-106.742 2271.67,-84.1145"/>
<polygon fill="red" stroke="red" stroke-width="0.260649" points="2272.08,-87.5917 2281.65,-83.0485 2271.33,-80.6313 2272.08,-87.5917"/>
</g>
<!-- enemyRadar[LeftFront2.5ø] -->
<g id="node20" class="node"><title>enemyRadar[LeftFront2.5ø]</title>
<polygon fill="lightgray" stroke="black" points="1835.21,-220.362 1719.21,-220.362 1719.21,-202.362 1835.21,-202.362 1835.21,-220.362"/>
<text text-anchor="middle" x="1777.21" y="-209.162" font-family="Times,serif" font-size="9.00">enemyRadar[LeftFront2.5ø]</text>
</g>
<!-- enemyRadar[LeftFront2.5ø]&#45;&gt; Move Left/Right -->
<g id="edge14" class="edge"><title>enemyRadar[LeftFront2.5ø]&#45;&gt; Move Left/Right</title>
<path fill="none" stroke="red" stroke-width="0.301407" d="M1763.54,-202.286C1733.55,-184.575 1660.56,-141.472 1609.02,-111.03"/>
<polygon fill="red" stroke="red" stroke-width="0.301407" points="1610.69,-107.952 1600.3,-105.881 1607.13,-113.98 1610.69,-107.952"/>
</g>
<!-- enemyRadar[Front7Ø] -->
<g id="node21" class="node"><title>enemyRadar[Front7Ø]</title>
<polygon fill="lightgray" stroke="black" points="158.213,-220.362 60.2132,-220.362 60.2132,-202.362 158.213,-202.362 158.213,-220.362"/>
<text text-anchor="middle" x="109.213" y="-209.162" font-family="Times,serif" font-size="9.00">enemyRadar[Front7Ø]</text>
</g>
<!-- enemyRadar[Front7Ø]&#45;&gt;Move Forward/Backward -->
<g id="edge7" class="edge"><title>enemyRadar[Front7Ø]&#45;&gt;Move Forward/Backward</title>
<path fill="none" stroke="red" stroke-width="0.140092" d="M133.375,-202.361C145.071,-198.552 159.337,-193.999 172.213,-190.149 282.282,-157.239 410.196,-122.308 492.111,-100.357"/>
<polygon fill="red" stroke="red" stroke-width="0.140092" points="493.114,-103.712 501.869,-97.7459 491.304,-96.9504 493.114,-103.712"/>
</g>
<!-- OnTarget -->
<g id="node22" class="node"><title>OnTarget</title>
<polygon fill="lightgray" stroke="black" points="1063.21,-220.362 1013.21,-220.362 1013.21,-202.362 1063.21,-202.362 1063.21,-220.362"/>
<text text-anchor="middle" x="1038.21" y="-209.162" font-family="Times,serif" font-size="9.00">OnTarget</text>
</g>
<!-- OnTarget&#45;&gt;Shoot -->
<g id="edge21" class="edge"><title>OnTarget&#45;&gt;Shoot</title>
<path fill="none" stroke="red" stroke-width="0.312832" d="M1034.9,-202.087C1027.8,-184.376 1010.8,-141.948 998.668,-111.657"/>
<polygon fill="red" stroke="red" stroke-width="0.312832" points="1001.89,-110.277 994.917,-102.296 995.388,-112.881 1001.89,-110.277"/>
</g>
<!-- OnTarget&#45;&gt;Move Forward/Backward -->
<g id="edge9" class="edge"><title>OnTarget&#45;&gt;Move Forward/Backward</title>
<path fill="none" stroke="green" stroke-width="0.46939" d="M1013.05,-203.156C947.128,-184.281 767.135,-132.743 659.877,-102.031"/>
<polygon fill="green" stroke="green" stroke-width="0.46939" points="660.627,-98.605 650.05,-99.2169 658.7,-105.335 660.627,-98.605"/>
</g>
<!-- OnTarget&#45;&gt; Move Left/Right -->
<g id="edge6" class="edge"><title>OnTarget&#45;&gt; Move Left/Right</title>
<path fill="none" stroke="red" stroke-width="0.164775" d="M1050.08,-202.334C1056.66,-198.191 1065.12,-193.349 1073.21,-190.149 1216.03,-133.678 1394.5,-101.305 1488.45,-86.9951"/>
<polygon fill="red" stroke="red" stroke-width="0.164775" points="1489.01,-90.4505 1498.37,-85.5025 1487.97,-83.5283 1489.01,-90.4505"/>
</g>
<!-- bias -->
<g id="node23" class="node"><title>bias</title>
<polygon fill="lightgray" stroke="black" points="1112.71,-220.362 1081.71,-220.362 1081.71,-202.362 1112.71,-202.362 1112.71,-220.362"/>
<text text-anchor="middle" x="1097.21" y="-209.162" font-family="Times,serif" font-size="9.00">bias</text>
</g>
<!-- bias&#45;&gt;Move Forward/Backward -->
<g id="edge38" class="edge"><title>bias&#45;&gt;Move Forward/Backward</title>
<path fill="none" stroke="green" stroke-width="0.484922" d="M1089.1,-202.189C1084.5,-198.003 1078.44,-193.166 1072.21,-190.149 1035.53,-172.38 793.62,-121.918 661.694,-95.1828"/>
<polygon fill="green" stroke="green" stroke-width="0.484922" points="662.108,-91.6957 651.613,-93.1426 660.72,-98.5566 662.108,-91.6957"/>
</g>
<!-- bias&#45;&gt; Move Left/Right -->
<g id="edge31" class="edge"><title>bias&#45;&gt; Move Left/Right</title>
<path fill="none" stroke="red" stroke-width="0.264624" d="M1112.96,-205.152C1125.68,-200.983 1144.05,-195.045 1160.21,-190.149 1276.28,-154.989 1412.57,-116.814 1490.33,-95.3267"/>
<polygon fill="red" stroke="red" stroke-width="0.264624" points="1491.27,-98.6978 1499.97,-92.6628 1489.4,-91.9503 1491.27,-98.6978"/>
</g>
<!-- 195&#45;&gt;Move Forward/Backward -->
<g id="edge56" class="edge"><title>195&#45;&gt;Move Forward/Backward</title>
<path fill="none" stroke="red" stroke-width="0.316595" d="M37.6979,-197.622C41.9249,-194.824 46.5888,-192.113 51.2132,-190.149 197.682,-127.945 382.313,-98.8611 489.045,-86.3887"/>
<polygon fill="red" stroke="red" stroke-width="0.316595" points="489.591,-89.8492 499.127,-85.233 488.794,-82.8947 489.591,-89.8492"/>
</g>
<!-- 136&#45;&gt;Turn left/right -->
<g id="edge54" class="edge"><title>136&#45;&gt;Turn left/right</title>
<path fill="none" stroke="green" stroke-width="0.767673" d="M2660.38,-199.228C2654.97,-196.082 2648.95,-192.798 2643.21,-190.149 2554.56,-149.191 2446.37,-113.66 2382.62,-94.1147"/>
<polygon fill="green" stroke="green" stroke-width="0.767673" points="2383.37,-90.6832 2372.78,-91.1166 2381.33,-97.3792 2383.37,-90.6832"/>
</g>
<!-- 254&#45;&gt;Turn left/right -->
<g id="edge58" class="edge"><title>254&#45;&gt;Turn left/right</title>
<path fill="none" stroke="red" stroke-width="0.272539" d="M2451.18,-195.954C2431.56,-177.143 2396.45,-143.492 2368.76,-116.946"/>
<polygon fill="red" stroke="red" stroke-width="0.272539" points="2371.17,-114.408 2361.53,-110.015 2366.33,-119.462 2371.17,-114.408"/>
</g>
</g>
</svg>
