<?xml version="1.0" encoding="UTF-8" standalone="no"?>
<!DOCTYPE svg PUBLIC "-//W3C//DTD SVG 1.1//EN"
 "http://www.w3.org/Graphics/SVG/1.1/DTD/svg11.dtd">
<!-- Generated by graphviz version 2.38.0 (20140413.2041)
 -->
<!-- Title: %3 Pages: 1 -->
<svg width="2610pt" height="295pt"
 viewBox="0.00 0.00 2609.97 294.58" xmlns="http://www.w3.org/2000/svg" xmlns:xlink="http://www.w3.org/1999/xlink">
<g id="graph0" class="graph" transform="scale(1 1) rotate(0) translate(4 290.576)">
<title>%3</title>
<polygon fill="white" stroke="none" points="-4,4 -4,-290.576 2605.97,-290.576 2605.97,4 -4,4"/>
<!-- wallRadar[1,0] -->
<g id="node1" class="node"><title>wallRadar[1,0]</title>
<polygon fill="lightgray" stroke="black" points="256.213,-220.362 186.213,-220.362 186.213,-202.362 256.213,-202.362 256.213,-220.362"/>
<text text-anchor="middle" x="221.213" y="-209.162" font-family="Times,serif" font-size="9.00">wallRadar[1,0]</text>
</g>
<!-- Shoot -->
<g id="node24" class="node"><title>Shoot</title>
<ellipse fill="lightblue" stroke="black" cx="1342.21" cy="-77.0746" rx="26.7407" ry="26.7407"/>
<text text-anchor="middle" x="1342.21" y="-74.8746" font-family="Times,serif" font-size="9.00">Shoot</text>
</g>
<!-- wallRadar[1,0]&#45;&gt;Shoot -->
<g id="edge1" class="edge"><title>wallRadar[1,0]&#45;&gt;Shoot</title>
<path fill="none" stroke="red" stroke-width="0.105551" d="M234.969,-202.323C243.399,-197.841 254.579,-192.668 265.213,-190.149 377.832,-163.471 1209.51,-217.738 1306.21,-154.149 1320.23,-144.93 1328.92,-128.672 1334.24,-113.546"/>
<polygon fill="red" stroke="red" stroke-width="0.105551" points="1337.62,-114.444 1337.27,-103.856 1330.94,-112.356 1337.62,-114.444"/>
</g>
<!-- Move Forward/Backward -->
<g id="node25" class="node"><title>Move Forward/Backward</title>
<ellipse fill="lightblue" stroke="black" cx="980.213" cy="-77.0746" rx="77.1494" ry="77.1494"/>
<text text-anchor="middle" x="980.213" y="-74.8746" font-family="Times,serif" font-size="9.00">Move Forward/Backward</text>
</g>
<!-- wallRadar[1,0]&#45;&gt;Move Forward/Backward -->
<g id="edge2" class="edge"><title>wallRadar[1,0]&#45;&gt;Move Forward/Backward</title>
<path fill="none" stroke="red" stroke-width="0.462726" d="M236.284,-202.184C244.599,-197.997 255.234,-193.161 265.213,-190.149 485.692,-123.62 756.976,-94.906 893.296,-83.9615"/>
<polygon fill="red" stroke="red" stroke-width="0.462726" points="893.58,-87.4501 903.273,-83.173 893.029,-80.4718 893.58,-87.4501"/>
</g>
<!--  Move Left/Right -->
<g id="node26" class="node"><title> Move Left/Right</title>
<ellipse fill="lightblue" stroke="black" cx="1130.21" cy="-77.0746" rx="55.3091" ry="55.3091"/>
<text text-anchor="middle" x="1130.21" y="-74.8746" font-family="Times,serif" font-size="9.00"> Move Left/Right</text>
</g>
<!-- wallRadar[1,0]&#45;&gt; Move Left/Right -->
<g id="edge3" class="edge"><title>wallRadar[1,0]&#45;&gt; Move Left/Right</title>
<path fill="none" stroke="green" stroke-width="0.447423" d="M235.37,-202.157C243.756,-197.737 254.756,-192.684 265.213,-190.149 438.38,-148.181 906.409,-232.956 1066.21,-154.149 1076.98,-148.841 1086.61,-140.805 1094.94,-131.913"/>
<polygon fill="green" stroke="green" stroke-width="0.447423" points="1097.67,-134.112 1101.63,-124.285 1092.41,-129.499 1097.67,-134.112"/>
</g>
<!-- Turn left/right -->
<g id="node27" class="node"><title>Turn left/right</title>
<ellipse fill="lightblue" stroke="black" cx="1250.21" cy="-77.0746" rx="46.8387" ry="46.8387"/>
<text text-anchor="middle" x="1250.21" y="-74.8746" font-family="Times,serif" font-size="9.00">Turn left/right</text>
</g>
<!-- wallRadar[1,0]&#45;&gt;Turn left/right -->
<g id="edge4" class="edge"><title>wallRadar[1,0]&#45;&gt;Turn left/right</title>
<path fill="none" stroke="red" stroke-width="0.375465" stroke-dasharray="1,5" d="M234.973,-202.34C243.404,-197.863 254.584,-192.69 265.213,-190.149 365.681,-166.128 1102.95,-202.535 1194.21,-154.149 1205.88,-147.967 1215.74,-138.152 1223.78,-127.601"/>
<polygon fill="red" stroke="red" stroke-width="0.375465" points="1226.64,-129.616 1229.58,-119.436 1220.94,-125.564 1226.64,-129.616"/>
</g>
<!-- wallRadar[0,1] -->
<g id="node2" class="node"><title>wallRadar[0,1]</title>
<polygon fill="lightgray" stroke="black" points="344.213,-220.362 274.213,-220.362 274.213,-202.362 344.213,-202.362 344.213,-220.362"/>
<text text-anchor="middle" x="309.213" y="-209.162" font-family="Times,serif" font-size="9.00">wallRadar[0,1]</text>
</g>
<!-- wallRadar[0,1]&#45;&gt;Shoot -->
<g id="edge5" class="edge"><title>wallRadar[0,1]&#45;&gt;Shoot</title>
<path fill="none" stroke="red" stroke-width="0.661475" d="M322.972,-202.336C331.403,-197.858 342.583,-192.685 353.213,-190.149 456.285,-165.559 1217.77,-212.511 1306.21,-154.149 1320.22,-144.907 1328.9,-128.647 1334.22,-113.526"/>
<polygon fill="red" stroke="red" stroke-width="0.661475" points="1337.61,-114.428 1337.25,-103.839 1330.93,-112.337 1337.61,-114.428"/>
</g>
<!-- wallRadar[0,1]&#45;&gt;Move Forward/Backward -->
<g id="edge6" class="edge"><title>wallRadar[0,1]&#45;&gt;Move Forward/Backward</title>
<path fill="none" stroke="red" stroke-width="0.457421" d="M324.311,-202.269C332.632,-198.107 343.266,-193.267 353.213,-190.149 541.029,-131.277 770.785,-100.091 893.362,-86.552"/>
<polygon fill="red" stroke="red" stroke-width="0.457421" points="893.881,-90.0162 903.443,-85.4517 893.122,-83.0575 893.881,-90.0162"/>
</g>
<!-- wallRadar[0,1]&#45;&gt; Move Left/Right -->
<g id="edge7" class="edge"><title>wallRadar[0,1]&#45;&gt; Move Left/Right</title>
<path fill="none" stroke="red" stroke-width="0.613733" d="M323.375,-202.178C331.763,-197.766 342.763,-192.713 353.213,-190.149 507.292,-152.355 924.122,-224.71 1066.21,-154.149 1076.96,-148.812 1086.59,-140.762 1094.92,-131.866"/>
<polygon fill="red" stroke="red" stroke-width="0.613733" points="1097.65,-134.064 1101.61,-124.236 1092.38,-129.451 1097.65,-134.064"/>
</g>
<!-- wallRadar[0,1]&#45;&gt;Turn left/right -->
<g id="edge8" class="edge"><title>wallRadar[0,1]&#45;&gt;Turn left/right</title>
<path fill="none" stroke="green" stroke-width="0.271949" d="M322.977,-202.355C331.409,-197.884 342.59,-192.712 353.213,-190.149 444.135,-168.216 1111.67,-198.126 1194.21,-154.149 1205.86,-147.943 1215.72,-138.12 1223.77,-127.567"/>
<polygon fill="green" stroke="green" stroke-width="0.271949" points="1226.63,-129.583 1229.56,-119.403 1220.92,-125.531 1226.63,-129.583"/>
</g>
<!-- wallRadar[&#45;1,0] -->
<g id="node3" class="node"><title>wallRadar[&#45;1,0]</title>
<polygon fill="lightgray" stroke="black" points="435.713,-220.362 362.713,-220.362 362.713,-202.362 435.713,-202.362 435.713,-220.362"/>
<text text-anchor="middle" x="399.213" y="-209.162" font-family="Times,serif" font-size="9.00">wallRadar[&#45;1,0]</text>
</g>
<!-- wallRadar[&#45;1,0]&#45;&gt;Shoot -->
<g id="edge9" class="edge"><title>wallRadar[&#45;1,0]&#45;&gt;Shoot</title>
<path fill="none" stroke="red" stroke-width="0.158544" d="M413.646,-202.355C422.477,-197.884 434.166,-192.711 445.213,-190.149 538.488,-168.516 1226.4,-207.046 1306.21,-154.149 1320.2,-144.879 1328.88,-128.616 1334.21,-113.5"/>
<polygon fill="red" stroke="red" stroke-width="0.158544" points="1337.59,-114.407 1337.24,-103.818 1330.91,-112.313 1337.59,-114.407"/>
</g>
<!-- wallRadar[&#45;1,0]&#45;&gt;Move Forward/Backward -->
<g id="edge10" class="edge"><title>wallRadar[&#45;1,0]&#45;&gt;Move Forward/Backward</title>
<path fill="none" stroke="red" stroke-width="0.508856" d="M415.499,-202.216C424.157,-198.141 435.079,-193.398 445.213,-190.149 599.727,-140.61 786.503,-107.25 893.516,-90.5554"/>
<polygon fill="red" stroke="red" stroke-width="0.508856" points="894.272,-93.9802 903.619,-88.9919 893.201,-87.0625 894.272,-93.9802"/>
</g>
<!-- wallRadar[&#45;1,0]&#45;&gt; Move Left/Right -->
<g id="edge11" class="edge"><title>wallRadar[&#45;1,0]&#45;&gt; Move Left/Right</title>
<path fill="none" stroke="red" stroke-width="0.557949" d="M414.071,-202.214C422.857,-197.813 434.357,-192.76 445.213,-190.149 579.614,-157.834 942.637,-216.092 1066.21,-154.149 1076.82,-148.832 1086.35,-140.884 1094.61,-132.102"/>
<polygon fill="red" stroke="red" stroke-width="0.557949" points="1097.26,-134.385 1101.24,-124.568 1092.01,-129.758 1097.26,-134.385"/>
</g>
<!-- wallRadar[&#45;1,0]&#45;&gt;Turn left/right -->
<g id="edge12" class="edge"><title>wallRadar[&#45;1,0]&#45;&gt;Turn left/right</title>
<path fill="none" stroke="red" stroke-width="0.239538" d="M414.061,-202.173C422.844,-197.759 434.344,-192.706 445.213,-190.149 607.423,-151.994 1047.35,-232.886 1194.21,-154.149 1205.85,-147.912 1215.7,-138.078 1223.74,-127.524"/>
<polygon fill="red" stroke="red" stroke-width="0.239538" points="1226.6,-129.541 1229.54,-119.361 1220.9,-125.488 1226.6,-129.541"/>
</g>
<!-- wallRadar[0,&#45;1] -->
<g id="node4" class="node"><title>wallRadar[0,&#45;1]</title>
<polygon fill="lightgray" stroke="black" points="526.713,-220.362 453.713,-220.362 453.713,-202.362 526.713,-202.362 526.713,-220.362"/>
<text text-anchor="middle" x="490.213" y="-209.162" font-family="Times,serif" font-size="9.00">wallRadar[0,&#45;1]</text>
</g>
<!-- wallRadar[0,&#45;1]&#45;&gt;Shoot -->
<g id="edge13" class="edge"><title>wallRadar[0,&#45;1]&#45;&gt;Shoot</title>
<path fill="none" stroke="red" stroke-width="0.238797" d="M505.06,-202.168C513.843,-197.752 525.343,-192.699 536.213,-190.149 619.6,-170.592 1234.94,-201.642 1306.21,-154.149 1320.18,-144.845 1328.86,-128.578 1334.18,-113.469"/>
<polygon fill="red" stroke="red" stroke-width="0.238797" points="1337.57,-114.381 1337.22,-103.792 1330.89,-112.284 1337.57,-114.381"/>
</g>
<!-- wallRadar[0,&#45;1]&#45;&gt;Move Forward/Backward -->
<g id="edge14" class="edge"><title>wallRadar[0,&#45;1]&#45;&gt;Move Forward/Backward</title>
<path fill="none" stroke="red" stroke-width="0.158436" d="M506.984,-202.187C515.586,-198.201 526.312,-193.548 536.213,-190.149 658.339,-148.231 804.212,-114.392 894.546,-95.2519"/>
<polygon fill="red" stroke="red" stroke-width="0.158436" points="895.403,-98.6482 904.467,-93.1617 893.96,-91.7986 895.403,-98.6482"/>
</g>
<!-- wallRadar[0,&#45;1]&#45;&gt; Move Left/Right -->
<g id="edge15" class="edge"><title>wallRadar[0,&#45;1]&#45;&gt; Move Left/Right</title>
<path fill="none" stroke="red" stroke-width="0.25631" d="M505.081,-202.254C513.87,-197.867 525.37,-192.813 536.213,-190.149 650.853,-161.983 960.943,-207.57 1066.21,-154.149 1076.79,-148.78 1086.31,-140.807 1094.56,-132.018"/>
<polygon fill="red" stroke="red" stroke-width="0.25631" points="1097.22,-134.3 1101.2,-124.481 1091.97,-129.674 1097.22,-134.3"/>
</g>
<!-- wallRadar[0,&#45;1]&#45;&gt;Turn left/right -->
<g id="edge16" class="edge"><title>wallRadar[0,&#45;1]&#45;&gt;Turn left/right</title>
<path fill="none" stroke="green" stroke-width="0.444468" d="M505.068,-202.2C513.853,-197.795 525.353,-192.742 536.213,-190.149 678.652,-156.146 1065.38,-223.771 1194.21,-154.149 1205.83,-147.874 1215.67,-138.025 1223.71,-127.47"/>
<polygon fill="green" stroke="green" stroke-width="0.444468" points="1226.57,-129.487 1229.51,-119.308 1220.87,-125.434 1226.57,-129.487"/>
</g>
<!-- wallRadar[0.7,0.7] -->
<g id="node5" class="node"><title>wallRadar[0.7,0.7]</title>
<polygon fill="lightgray" stroke="black" points="627.713,-220.362 544.713,-220.362 544.713,-202.362 627.713,-202.362 627.713,-220.362"/>
<text text-anchor="middle" x="586.213" y="-209.162" font-family="Times,serif" font-size="9.00">wallRadar[0.7,0.7]</text>
</g>
<!-- wallRadar[0.7,0.7]&#45;&gt;Shoot -->
<g id="edge17" class="edge"><title>wallRadar[0.7,0.7]&#45;&gt;Shoot</title>
<path fill="none" stroke="red" stroke-width="0.389051" d="M602.782,-202.212C612.554,-197.81 625.304,-192.757 637.213,-190.149 709.931,-174.227 1244.41,-195.644 1306.21,-154.149 1320.14,-144.795 1328.82,-128.524 1334.15,-113.424"/>
<polygon fill="red" stroke="red" stroke-width="0.389051" points="1337.53,-114.344 1337.2,-103.755 1330.86,-112.243 1337.53,-114.344"/>
</g>
<!-- wallRadar[0.7,0.7]&#45;&gt;Move Forward/Backward -->
<g id="edge18" class="edge"><title>wallRadar[0.7,0.7]&#45;&gt;Move Forward/Backward</title>
<path fill="none" stroke="green" stroke-width="0.450118" d="M605.965,-202.206C615.376,-198.404 626.822,-193.902 637.213,-190.149 725.143,-158.393 827.114,-125.576 896.876,-103.726"/>
<polygon fill="green" stroke="green" stroke-width="0.450118" points="898.001,-107.042 906.501,-100.717 895.912,-100.36 898.001,-107.042"/>
</g>
<!-- wallRadar[0.7,0.7]&#45;&gt; Move Left/Right -->
<g id="edge19" class="edge"><title>wallRadar[0.7,0.7]&#45;&gt; Move Left/Right</title>
<path fill="none" stroke="red" stroke-width="0.136602" d="M602.812,-202.345C612.595,-197.988 625.345,-192.935 637.213,-190.149 730.351,-168.289 981.248,-198.119 1066.21,-154.149 1076.75,-148.696 1086.25,-140.685 1094.5,-131.883"/>
<polygon fill="red" stroke="red" stroke-width="0.136602" points="1097.15,-134.163 1101.13,-124.343 1091.9,-129.539 1097.15,-134.163"/>
</g>
<!-- wallRadar[0.7,0.7]&#45;&gt;Turn left/right -->
<g id="edge20" class="edge"><title>wallRadar[0.7,0.7]&#45;&gt;Turn left/right</title>
<path fill="none" stroke="red" stroke-width="0.260914" d="M602.792,-202.26C612.569,-197.874 625.319,-192.821 637.213,-190.149 758.234,-162.967 1085.38,-213.658 1194.21,-154.149 1205.79,-147.817 1215.63,-137.946 1223.67,-127.389"/>
<polygon fill="red" stroke="red" stroke-width="0.260914" points="1226.53,-129.408 1229.47,-119.229 1220.82,-125.353 1226.53,-129.408"/>
</g>
<!-- wallRadar[&#45;0.7,0.7] -->
<g id="node6" class="node"><title>wallRadar[&#45;0.7,0.7]</title>
<polygon fill="lightgray" stroke="black" points="732.213,-220.362 646.213,-220.362 646.213,-202.362 732.213,-202.362 732.213,-220.362"/>
<text text-anchor="middle" x="689.213" y="-209.162" font-family="Times,serif" font-size="9.00">wallRadar[&#45;0.7,0.7]</text>
</g>
<!-- wallRadar[&#45;0.7,0.7]&#45;&gt;Shoot -->
<g id="edge21" class="edge"><title>wallRadar[&#45;0.7,0.7]&#45;&gt;Shoot</title>
<path fill="none" stroke="red" stroke-width="0.43739" d="M706.475,-202.264C716.646,-197.88 729.896,-192.827 742.213,-190.149 864.936,-163.472 1202.3,-224.675 1306.21,-154.149 1320.1,-144.726 1328.77,-128.447 1334.11,-113.361"/>
<polygon fill="red" stroke="red" stroke-width="0.43739" points="1337.49,-114.293 1337.16,-103.703 1330.81,-112.184 1337.49,-114.293"/>
</g>
<!-- wallRadar[&#45;0.7,0.7]&#45;&gt;Move Forward/Backward -->
<g id="edge22" class="edge"><title>wallRadar[&#45;0.7,0.7]&#45;&gt;Move Forward/Backward</title>
<path fill="none" stroke="green" stroke-width="0.104066" d="M706.979,-202.286C744.692,-185.142 834.74,-144.206 901.205,-113.992"/>
<polygon fill="green" stroke="green" stroke-width="0.104066" points="902.764,-117.128 910.419,-109.803 899.867,-110.755 902.764,-117.128"/>
</g>
<!-- wallRadar[&#45;0.7,0.7]&#45;&gt; Move Left/Right -->
<g id="edge23" class="edge"><title>wallRadar[&#45;0.7,0.7]&#45;&gt; Move Left/Right</title>
<path fill="none" stroke="red" stroke-width="0.466442" d="M707.004,-202.278C717.126,-198.011 730.153,-193.069 742.213,-190.149 883.032,-156.061 938.445,-222.467 1066.21,-154.149 1076.68,-148.554 1086.14,-140.478 1094.38,-131.656"/>
<polygon fill="red" stroke="red" stroke-width="0.466442" points="1097.04,-133.931 1101.01,-124.109 1091.78,-129.312 1097.04,-133.931"/>
</g>
<!-- wallRadar[&#45;0.7,0.7]&#45;&gt;Turn left/right -->
<g id="edge24" class="edge"><title>wallRadar[&#45;0.7,0.7]&#45;&gt;Turn left/right</title>
<path fill="none" stroke="red" stroke-width="0.52444" d="M706.491,-202.337C716.667,-197.977 729.917,-192.924 742.213,-190.149 840.505,-167.972 1106.17,-203.151 1194.21,-154.149 1205.75,-147.73 1215.56,-137.828 1223.6,-127.267"/>
<polygon fill="red" stroke="red" stroke-width="0.52444" points="1226.46,-129.288 1229.4,-119.11 1220.76,-125.232 1226.46,-129.288"/>
</g>
<!-- wallRadar[&#45;0.7,&#45;0.7] -->
<g id="node7" class="node"><title>wallRadar[&#45;0.7,&#45;0.7]</title>
<polygon fill="lightgray" stroke="black" points="839.713,-220.362 750.713,-220.362 750.713,-202.362 839.713,-202.362 839.713,-220.362"/>
<text text-anchor="middle" x="795.213" y="-209.162" font-family="Times,serif" font-size="9.00">wallRadar[&#45;0.7,&#45;0.7]</text>
</g>
<!-- wallRadar[&#45;0.7,&#45;0.7]&#45;&gt;Shoot -->
<g id="edge25" class="edge"><title>wallRadar[&#45;0.7,&#45;0.7]&#45;&gt;Shoot</title>
<path fill="none" stroke="red" stroke-width="0.502675" d="M812.832,-202.338C823.204,-197.979 836.704,-192.925 849.213,-190.149 948.664,-168.078 1222.35,-211.981 1306.21,-154.149 1320.03,-144.623 1328.69,-128.334 1334.05,-113.267"/>
<polygon fill="red" stroke="red" stroke-width="0.502675" points="1337.42,-114.216 1337.11,-103.625 1330.75,-112.097 1337.42,-114.216"/>
</g>
<!-- wallRadar[&#45;0.7,&#45;0.7]&#45;&gt;Move Forward/Backward -->
<g id="edge26" class="edge"><title>wallRadar[&#45;0.7,&#45;0.7]&#45;&gt;Move Forward/Backward</title>
<path fill="none" stroke="green" stroke-width="0.328281" d="M806.507,-202.286C826.795,-187.779 870.903,-156.239 909.594,-128.573"/>
<polygon fill="green" stroke="green" stroke-width="0.328281" points="911.658,-131.399 917.757,-122.735 907.587,-125.705 911.658,-131.399"/>
</g>
<!-- wallRadar[&#45;0.7,&#45;0.7]&#45;&gt; Move Left/Right -->
<g id="edge27" class="edge"><title>wallRadar[&#45;0.7,&#45;0.7]&#45;&gt; Move Left/Right</title>
<path fill="none" stroke="red" stroke-width="0.464528" d="M813.914,-202.34C824.178,-198.198 837.222,-193.356 849.213,-190.149 943.658,-164.895 981.271,-202.547 1066.21,-154.149 1076.3,-148.4 1085.51,-140.417 1093.6,-131.772"/>
<polygon fill="red" stroke="red" stroke-width="0.464528" points="1096.43,-133.858 1100.42,-124.044 1091.18,-129.227 1096.43,-133.858"/>
</g>
<!-- wallRadar[&#45;0.7,&#45;0.7]&#45;&gt;Turn left/right -->
<g id="edge28" class="edge"><title>wallRadar[&#45;0.7,&#45;0.7]&#45;&gt;Turn left/right</title>
<path fill="none" stroke="red" stroke-width="0.420188" d="M813.348,-202.254C823.662,-197.98 836.936,-193.038 849.213,-190.149 999.282,-154.842 1060.43,-230.765 1194.21,-154.149 1205.67,-147.59 1215.45,-137.635 1223.49,-127.069"/>
<polygon fill="red" stroke="red" stroke-width="0.420188" points="1226.35,-129.092 1229.29,-118.916 1220.64,-125.033 1226.35,-129.092"/>
</g>
<!-- wallRadar[0.7,&#45;0.7] -->
<g id="node8" class="node"><title>wallRadar[0.7,&#45;0.7]</title>
<polygon fill="lightgray" stroke="black" points="944.213,-220.362 858.213,-220.362 858.213,-202.362 944.213,-202.362 944.213,-220.362"/>
<text text-anchor="middle" x="901.213" y="-209.162" font-family="Times,serif" font-size="9.00">wallRadar[0.7,&#45;0.7]</text>
</g>
<!-- wallRadar[0.7,&#45;0.7]&#45;&gt;Shoot -->
<g id="edge29" class="edge"><title>wallRadar[0.7,&#45;0.7]&#45;&gt;Shoot</title>
<path fill="none" stroke="red" stroke-width="0.629327" d="M918.995,-202.237C929.113,-197.957 942.141,-193.016 954.213,-190.149 1030.72,-171.983 1242.01,-199.539 1306.21,-154.149 1319.92,-144.463 1328.57,-128.157 1333.95,-113.121"/>
<polygon fill="red" stroke="red" stroke-width="0.629327" points="1337.31,-114.096 1337.03,-103.505 1330.64,-111.961 1337.31,-114.096"/>
</g>
<!-- wallRadar[0.7,&#45;0.7]&#45;&gt;Move Forward/Backward -->
<g id="edge30" class="edge"><title>wallRadar[0.7,&#45;0.7]&#45;&gt;Move Forward/Backward</title>
<path fill="none" stroke="red" stroke-width="0.793273" d="M906.155,-202.087C912.421,-191.595 923.868,-172.426 935.919,-152.247"/>
<polygon fill="red" stroke="red" stroke-width="0.793273" points="938.985,-153.939 941.107,-143.559 932.975,-150.35 938.985,-153.939"/>
</g>
<!-- wallRadar[0.7,&#45;0.7]&#45;&gt; Move Left/Right -->
<g id="edge31" class="edge"><title>wallRadar[0.7,&#45;0.7]&#45;&gt; Move Left/Right</title>
<path fill="none" stroke="red" stroke-width="0.943897" d="M921.506,-202.332C931.337,-198.517 943.342,-193.966 954.213,-190.149 1003.55,-172.827 1022.8,-183.291 1066.21,-154.149 1075.75,-147.751 1084.64,-139.541 1092.6,-130.894"/>
<polygon fill="red" stroke="red" stroke-width="0.943897" points="1095.37,-133.042 1099.33,-123.217 1090.11,-128.425 1095.37,-133.042"/>
</g>
<!-- wallRadar[0.7,&#45;0.7]&#45;&gt;Turn left/right -->
<g id="edge32" class="edge"><title>wallRadar[0.7,&#45;0.7]&#45;&gt;Turn left/right</title>
<path fill="none" stroke="green" stroke-width="0.108347" d="M919.534,-202.254C929.598,-198.088 942.402,-193.249 954.213,-190.149 1058.54,-162.773 1101.84,-209.841 1194.21,-154.149 1205.3,-147.468 1214.87,-137.678 1222.8,-127.33"/>
<polygon fill="green" stroke="green" stroke-width="0.108347" points="1225.83,-129.124 1228.82,-118.961 1220.14,-125.039 1225.83,-129.124"/>
</g>
<!-- enemyRadar[RightBack] -->
<g id="node9" class="node"><title>enemyRadar[RightBack]</title>
<polygon fill="lightgray" stroke="black" points="160.213,-286.576 56.2132,-286.576 56.2132,-268.576 160.213,-268.576 160.213,-286.576"/>
<text text-anchor="middle" x="108.213" y="-275.376" font-family="Times,serif" font-size="9.00">enemyRadar[RightBack]</text>
</g>
<!-- enemyRadar[RightBack]&#45;&gt;Shoot -->
<g id="edge33" class="edge"><title>enemyRadar[RightBack]&#45;&gt;Shoot</title>
<path fill="none" stroke="green" stroke-width="0.115594" d="M160.243,-276.655C513.562,-277.073 2548.05,-277.525 2592.21,-232.576 2605.43,-219.125 2604.94,-204.065 2592.21,-190.149 2508.21,-98.2743 1577.93,-81.1183 1379.36,-78.4951"/>
<polygon fill="green" stroke="green" stroke-width="0.115594" points="1379.2,-74.9929 1369.15,-78.3647 1379.11,-81.9923 1379.2,-74.9929"/>
</g>
<!-- enemyRadar[RightBack]&#45;&gt;Move Forward/Backward -->
<g id="edge34" class="edge"><title>enemyRadar[RightBack]&#45;&gt;Move Forward/Backward</title>
<path fill="none" stroke="green" stroke-width="0.192698" d="M103.17,-268.499C93.3768,-251.683 74.4125,-212.612 94.2132,-190.149 146.572,-130.75 679.531,-94.7845 892.745,-82.6764"/>
<polygon fill="green" stroke="green" stroke-width="0.192698" points="893.172,-86.158 902.959,-82.1008 892.778,-79.1691 893.172,-86.158"/>
</g>
<!-- enemyRadar[RightBack]&#45;&gt; Move Left/Right -->
<g id="edge35" class="edge"><title>enemyRadar[RightBack]&#45;&gt; Move Left/Right</title>
<path fill="none" stroke="green" stroke-width="0.214429" d="M107.131,-268.546C105.288,-251.106 103.759,-209.759 127.213,-190.149 207.315,-123.178 972.419,-200.02 1066.21,-154.149 1076.99,-148.877 1086.64,-140.857 1094.97,-131.97"/>
<polygon fill="green" stroke="green" stroke-width="0.214429" points="1097.7,-134.17 1101.66,-124.343 1092.43,-129.555 1097.7,-134.17"/>
</g>
<!-- enemyRadar[RightBack]&#45;&gt;Turn left/right -->
<g id="edge36" class="edge"><title>enemyRadar[RightBack]&#45;&gt;Turn left/right</title>
<path fill="none" stroke="red" stroke-width="0.267822" d="M160.431,-276.648C512.784,-277.017 2530.4,-277.179 2574.21,-232.576 2587.43,-219.124 2587.36,-203.67 2574.21,-190.149 2525.09,-139.615 1368.65,-186.837 1306.21,-154.149 1294.4,-147.966 1284.45,-138.041 1276.36,-127.372"/>
<polygon fill="red" stroke="red" stroke-width="0.267822" points="1279.16,-125.273 1270.54,-119.119 1273.44,-129.308 1279.16,-125.273"/>
</g>
<!-- 104 -->
<g id="node28" class="node"><title>104</title>
<ellipse fill="white" stroke="black" cx="21.2132" cy="-211.362" rx="21.4286" ry="21.4286"/>
<text text-anchor="middle" x="21.2132" y="-209.162" font-family="Times,serif" font-size="9.00">104</text>
</g>
<!-- enemyRadar[RightBack]&#45;&gt;104 -->
<g id="edge93" class="edge"><title>enemyRadar[RightBack]&#45;&gt;104</title>
<path fill="none" stroke="green" stroke-width="0.365311" d="M97.1946,-268.443C84.5013,-259.074 63.2352,-243.378 46.4244,-230.97"/>
<polygon fill="green" stroke="green" stroke-width="0.365311" points="48.2329,-227.955 38.1086,-224.833 44.0759,-233.587 48.2329,-227.955"/>
</g>
<!-- enemyRadar[LeftBack] -->
<g id="node10" class="node"><title>enemyRadar[LeftBack]</title>
<polygon fill="lightgray" stroke="black" points="1061.71,-220.362 962.713,-220.362 962.713,-202.362 1061.71,-202.362 1061.71,-220.362"/>
<text text-anchor="middle" x="1012.21" y="-209.162" font-family="Times,serif" font-size="9.00">enemyRadar[LeftBack]</text>
</g>
<!-- enemyRadar[LeftBack]&#45;&gt;Shoot -->
<g id="edge37" class="edge"><title>enemyRadar[LeftBack]&#45;&gt;Shoot</title>
<path fill="none" stroke="green" stroke-width="0.394869" stroke-dasharray="1,5" d="M1032.7,-202.339C1043.93,-198.197 1058.18,-193.354 1071.21,-190.149 1173.82,-164.927 1221.49,-217.285 1306.21,-154.149 1319.57,-144.194 1328.17,-128.015 1333.6,-113.131"/>
<polygon fill="green" stroke="green" stroke-width="0.394869" points="1336.93,-114.209 1336.73,-103.616 1330.28,-112.022 1336.93,-114.209"/>
</g>
<!-- enemyRadar[LeftBack]&#45;&gt;Move Forward/Backward -->
<g id="edge38" class="edge"><title>enemyRadar[LeftBack]&#45;&gt;Move Forward/Backward</title>
<path fill="none" stroke="red" stroke-width="0.14075" d="M1010.21,-202.087C1008.08,-193.292 1004.48,-178.402 1000.5,-161.931"/>
<polygon fill="red" stroke="red" stroke-width="0.14075" points="1003.87,-160.98 998.116,-152.083 997.065,-162.626 1003.87,-160.98"/>
</g>
<!-- enemyRadar[LeftBack]&#45;&gt; Move Left/Right -->
<g id="edge39" class="edge"><title>enemyRadar[LeftBack]&#45;&gt; Move Left/Right</title>
<path fill="none" stroke="red" stroke-width="0.229028" d="M1020.44,-202.144C1031.18,-191.335 1050.47,-171.659 1066.21,-154.149 1073.71,-145.811 1081.52,-136.805 1089.01,-128.008"/>
<polygon fill="red" stroke="red" stroke-width="0.229028" points="1091.7,-130.247 1095.49,-120.353 1086.36,-125.725 1091.7,-130.247"/>
</g>
<!-- enemyRadar[LeftBack]&#45;&gt;Turn left/right -->
<g id="edge40" class="edge"><title>enemyRadar[LeftBack]&#45;&gt;Turn left/right</title>
<path fill="none" stroke="red" stroke-width="0.394412" d="M1034.83,-202.346C1045.78,-198.534 1059.14,-193.982 1071.21,-190.149 1125.5,-172.914 1147.54,-186.802 1194.21,-154.149 1204.71,-146.805 1214.02,-136.859 1221.88,-126.584"/>
<polygon fill="red" stroke="red" stroke-width="0.394412" points="1224.84,-128.467 1227.87,-118.316 1219.17,-124.359 1224.84,-128.467"/>
</g>
<!-- enemyRadar[Right45ø] -->
<g id="node11" class="node"><title>enemyRadar[Right45ø]</title>
<polygon fill="lightgray" stroke="black" points="1180.21,-220.362 1080.21,-220.362 1080.21,-202.362 1180.21,-202.362 1180.21,-220.362"/>
<text text-anchor="middle" x="1130.21" y="-209.162" font-family="Times,serif" font-size="9.00">enemyRadar[Right45ø]</text>
</g>
<!-- enemyRadar[Right45ø]&#45;&gt;Shoot -->
<g id="edge41" class="edge"><title>enemyRadar[Right45ø]&#45;&gt;Shoot</title>
<path fill="none" stroke="red" stroke-width="0.506086" d="M1153.54,-202.361C1164.63,-198.593 1178.08,-194.075 1190.21,-190.149 1241.57,-173.531 1265.45,-189.535 1306.21,-154.149 1318.59,-143.41 1327.03,-127.484 1332.61,-112.976"/>
<polygon fill="red" stroke="red" stroke-width="0.506086" points="1336.01,-113.834 1336.02,-103.239 1329.41,-111.514 1336.01,-113.834"/>
</g>
<!-- enemyRadar[Right45ø]&#45;&gt;Move Forward/Backward -->
<g id="edge42" class="edge"><title>enemyRadar[Right45ø]&#45;&gt;Move Forward/Backward</title>
<path fill="none" stroke="red" stroke-width="0.643502" d="M1120.66,-201.992C1108.15,-191.019 1085.52,-171.164 1066.21,-154.149 1059.4,-148.148 1052.3,-141.875 1045.21,-135.616"/>
<polygon fill="red" stroke="red" stroke-width="0.643502" points="1047.36,-132.844 1037.55,-128.845 1042.73,-138.089 1047.36,-132.844"/>
</g>
<!-- enemyRadar[Right45ø]&#45;&gt; Move Left/Right -->
<g id="edge43" class="edge"><title>enemyRadar[Right45ø]&#45;&gt; Move Left/Right</title>
<path fill="none" stroke="red" stroke-width="0.137587" d="M1130.21,-202.087C1130.21,-189.912 1130.21,-166.055 1130.21,-142.491"/>
<polygon fill="red" stroke="red" stroke-width="0.137587" points="1133.71,-142.445 1130.21,-132.445 1126.71,-142.445 1133.71,-142.445"/>
</g>
<!-- enemyRadar[Right45ø]&#45;&gt;Turn left/right -->
<g id="edge44" class="edge"><title>enemyRadar[Right45ø]&#45;&gt;Turn left/right</title>
<path fill="none" stroke="red" stroke-width="0.328877" d="M1140.81,-202.232C1154.04,-191.826 1177.02,-172.893 1194.21,-154.149 1202.53,-145.085 1210.78,-134.803 1218.29,-124.794"/>
<polygon fill="red" stroke="red" stroke-width="0.328877" points="1221.29,-126.611 1224.4,-116.483 1215.66,-122.461 1221.29,-126.611"/>
</g>
<!-- enemyRadar[Left45ø] -->
<g id="node12" class="node"><title>enemyRadar[Left45ø]</title>
<polygon fill="lightgray" stroke="black" points="1293.71,-220.362 1198.71,-220.362 1198.71,-202.362 1293.71,-202.362 1293.71,-220.362"/>
<text text-anchor="middle" x="1246.21" y="-209.162" font-family="Times,serif" font-size="9.00">enemyRadar[Left45ø]</text>
</g>
<!-- enemyRadar[Left45ø]&#45;&gt;Shoot -->
<g id="edge45" class="edge"><title>enemyRadar[Left45ø]&#45;&gt;Shoot</title>
<path fill="none" stroke="green" stroke-width="0.631602" d="M1257.14,-202.232C1270.15,-192.112 1291.92,-173.757 1306.21,-154.149 1315.5,-141.418 1323.34,-125.915 1329.32,-112.234"/>
<polygon fill="green" stroke="green" stroke-width="0.631602" points="1332.7,-113.236 1333.34,-102.66 1326.24,-110.528 1332.7,-113.236"/>
</g>
<!-- enemyRadar[Left45ø]&#45;&gt;Move Forward/Backward -->
<g id="edge46" class="edge"><title>enemyRadar[Left45ø]&#45;&gt;Move Forward/Backward</title>
<path fill="none" stroke="red" stroke-width="0.130446" d="M1224.39,-202.299C1213.81,-198.476 1200.9,-193.929 1189.21,-190.149 1135.02,-172.624 1116.08,-181.681 1066.21,-154.149 1058.14,-149.692 1050.18,-144.36 1042.54,-138.617"/>
<polygon fill="red" stroke="red" stroke-width="0.130446" points="1044.44,-135.654 1034.41,-132.245 1040.12,-141.165 1044.44,-135.654"/>
</g>
<!-- enemyRadar[Left45ø]&#45;&gt; Move Left/Right -->
<g id="edge47" class="edge"><title>enemyRadar[Left45ø]&#45;&gt; Move Left/Right</title>
<path fill="none" stroke="green" stroke-width="0.123743" d="M1238.34,-202.094C1228.04,-191.231 1209.52,-171.495 1194.21,-154.149 1186.79,-145.741 1179.02,-136.701 1171.55,-127.891"/>
<polygon fill="green" stroke="green" stroke-width="0.123743" points="1174.2,-125.609 1165.07,-120.23 1168.85,-130.127 1174.2,-125.609"/>
</g>
<!-- enemyRadar[Left45ø]&#45;&gt;Turn left/right -->
<g id="edge48" class="edge"><title>enemyRadar[Left45ø]&#45;&gt;Turn left/right</title>
<path fill="none" stroke="green" stroke-width="0.125979" d="M1246.46,-202.087C1246.88,-188.455 1247.73,-160.178 1248.52,-134.065"/>
<polygon fill="green" stroke="green" stroke-width="0.125979" points="1252.03,-133.92 1248.83,-123.819 1245.03,-133.709 1252.03,-133.92"/>
</g>
<!-- enemyRadar[RightFront20ø] -->
<g id="node13" class="node"><title>enemyRadar[RightFront20ø]</title>
<polygon fill="lightgray" stroke="black" points="1430.71,-220.362 1311.71,-220.362 1311.71,-202.362 1430.71,-202.362 1430.71,-220.362"/>
<text text-anchor="middle" x="1371.21" y="-209.162" font-family="Times,serif" font-size="9.00">enemyRadar[RightFront20ø]</text>
</g>
<!-- enemyRadar[RightFront20ø]&#45;&gt;Shoot -->
<g id="edge49" class="edge"><title>enemyRadar[RightFront20ø]&#45;&gt;Shoot</title>
<path fill="none" stroke="green" stroke-width="0.378167" stroke-dasharray="1,5" d="M1369.4,-202.087C1365.61,-184.783 1356.64,-143.882 1350.04,-113.761"/>
<polygon fill="green" stroke="green" stroke-width="0.378167" points="1353.37,-112.631 1347.81,-103.613 1346.53,-114.13 1353.37,-112.631"/>
</g>
<!-- enemyRadar[RightFront20ø]&#45;&gt;Move Forward/Backward -->
<g id="edge50" class="edge"><title>enemyRadar[RightFront20ø]&#45;&gt;Move Forward/Backward</title>
<path fill="none" stroke="red" stroke-width="0.94481" d="M1347.19,-202.339C1334.27,-198.248 1318,-193.453 1303.21,-190.149 1199.24,-166.915 1162.72,-199.288 1066.21,-154.149 1057.64,-150.138 1049.28,-144.996 1041.36,-139.281"/>
<polygon fill="red" stroke="red" stroke-width="0.94481" points="1043.36,-136.401 1033.27,-133.142 1039.12,-141.976 1043.36,-136.401"/>
</g>
<!-- enemyRadar[RightFront20ø]&#45;&gt; Move Left/Right -->
<g id="edge51" class="edge"><title>enemyRadar[RightFront20ø]&#45;&gt; Move Left/Right</title>
<path fill="none" stroke="red" stroke-width="0.173172" d="M1344.39,-202.272C1296.49,-187.767 1200.63,-158.44 1194.21,-154.149 1184.67,-147.767 1175.77,-139.566 1167.81,-130.922"/>
<polygon fill="red" stroke="red" stroke-width="0.173172" points="1170.3,-128.453 1161.08,-123.245 1165.04,-133.07 1170.3,-128.453"/>
</g>
<!-- enemyRadar[RightFront20ø]&#45;&gt;Turn left/right -->
<g id="edge52" class="edge"><title>enemyRadar[RightFront20ø]&#45;&gt;Turn left/right</title>
<path fill="none" stroke="red" stroke-width="0.42011" d="M1360.44,-202.264C1346.99,-191.891 1323.63,-172.992 1306.21,-154.149 1297.86,-145.117 1289.6,-134.848 1282.09,-124.842"/>
<polygon fill="red" stroke="red" stroke-width="0.42011" points="1284.72,-122.509 1275.97,-116.531 1279.08,-126.659 1284.72,-122.509"/>
</g>
<!-- enemyRadar[LeftFront20ø] -->
<g id="node14" class="node"><title>enemyRadar[LeftFront20ø]</title>
<polygon fill="lightgray" stroke="black" points="1563.21,-220.362 1449.21,-220.362 1449.21,-202.362 1563.21,-202.362 1563.21,-220.362"/>
<text text-anchor="middle" x="1506.21" y="-209.162" font-family="Times,serif" font-size="9.00">enemyRadar[LeftFront20ø]</text>
</g>
<!-- enemyRadar[LeftFront20ø]&#45;&gt;Shoot -->
<g id="edge53" class="edge"><title>enemyRadar[LeftFront20ø]&#45;&gt;Shoot</title>
<path fill="none" stroke="red" stroke-width="0.100532" d="M1495.95,-202.087C1471.31,-182.209 1408.07,-131.196 1370.82,-101.152"/>
<polygon fill="red" stroke="red" stroke-width="0.100532" points="1372.83,-98.2722 1362.85,-94.718 1368.43,-103.721 1372.83,-98.2722"/>
</g>
<!-- enemyRadar[LeftFront20ø]&#45;&gt;Move Forward/Backward -->
<g id="edge54" class="edge"><title>enemyRadar[LeftFront20ø]&#45;&gt;Move Forward/Backward</title>
<path fill="none" stroke="green" stroke-width="0.249974" stroke-dasharray="1,5" d="M1483.9,-202.301C1471.24,-198.041 1455.02,-193.098 1440.21,-190.149 1276.44,-157.534 1219.36,-220.728 1066.21,-154.149 1057.53,-150.374 1049.11,-145.381 1041.15,-139.752"/>
<polygon fill="green" stroke="green" stroke-width="0.249974" points="1043.14,-136.867 1033.03,-133.679 1038.94,-142.472 1043.14,-136.867"/>
</g>
<!-- enemyRadar[LeftFront20ø]&#45;&gt; Move Left/Right -->
<g id="edge55" class="edge"><title>enemyRadar[LeftFront20ø]&#45;&gt; Move Left/Right</title>
<path fill="none" stroke="red" stroke-width="0.305035" d="M1482.93,-202.283C1470.39,-198.177 1454.59,-193.384 1440.21,-190.149 1332.41,-165.901 1290.74,-207.932 1194.21,-154.149 1183.85,-148.374 1174.43,-140.214 1166.21,-131.366"/>
<polygon fill="red" stroke="red" stroke-width="0.305035" points="1168.81,-129.022 1159.58,-123.81 1163.54,-133.637 1168.81,-129.022"/>
</g>
<!-- enemyRadar[LeftFront20ø]&#45;&gt;Turn left/right -->
<g id="edge56" class="edge"><title>enemyRadar[LeftFront20ø]&#45;&gt;Turn left/right</title>
<path fill="none" stroke="green" stroke-width="0.598179" d="M1480.57,-202.283C1468.38,-198.499 1453.57,-193.989 1440.21,-190.149 1380.94,-173.118 1357.13,-188.936 1306.21,-154.149 1295.63,-146.922 1286.3,-137.022 1278.43,-126.754"/>
<polygon fill="green" stroke="green" stroke-width="0.598179" points="1281.14,-124.529 1272.44,-118.483 1275.47,-128.635 1281.14,-124.529"/>
</g>
<!-- enemyRadar[RightFront15ø] -->
<g id="node15" class="node"><title>enemyRadar[RightFront15ø]</title>
<polygon fill="lightgray" stroke="black" points="1700.71,-220.362 1581.71,-220.362 1581.71,-202.362 1700.71,-202.362 1700.71,-220.362"/>
<text text-anchor="middle" x="1641.21" y="-209.162" font-family="Times,serif" font-size="9.00">enemyRadar[RightFront15ø]</text>
</g>
<!-- enemyRadar[RightFront15ø]&#45;&gt;Shoot -->
<g id="edge57" class="edge"><title>enemyRadar[RightFront15ø]&#45;&gt;Shoot</title>
<path fill="none" stroke="red" stroke-width="0.13119" d="M1622.96,-202.286C1574,-180.623 1439.18,-120.976 1375.87,-92.9673"/>
<polygon fill="red" stroke="red" stroke-width="0.13119" points="1377.27,-89.7588 1366.71,-88.9135 1374.44,-96.1603 1377.27,-89.7588"/>
</g>
<!-- enemyRadar[RightFront15ø]&#45;&gt;Move Forward/Backward -->
<g id="edge58" class="edge"><title>enemyRadar[RightFront15ø]&#45;&gt;Move Forward/Backward</title>
<path fill="none" stroke="green" stroke-width="0.176003" d="M1618.19,-202.276C1604.92,-197.953 1587.82,-192.956 1572.21,-190.149 1461.27,-170.189 1170.15,-197.802 1066.21,-154.149 1057.48,-150.483 1049.03,-145.558 1041.06,-139.968"/>
<polygon fill="green" stroke="green" stroke-width="0.176003" points="1043.04,-137.081 1032.93,-133.926 1038.87,-142.7 1043.04,-137.081"/>
</g>
<!-- enemyRadar[RightFront15ø]&#45;&gt; Move Left/Right -->
<g id="edge59" class="edge"><title>enemyRadar[RightFront15ø]&#45;&gt; Move Left/Right</title>
<path fill="none" stroke="red" stroke-width="0.337428" d="M1617.85,-202.317C1604.61,-198.062 1587.66,-193.119 1572.21,-190.149 1489.35,-174.217 1268.93,-193.351 1194.21,-154.149 1183.71,-148.637 1174.23,-140.598 1165.98,-131.788"/>
<polygon fill="red" stroke="red" stroke-width="0.337428" points="1168.58,-129.444 1159.35,-124.245 1163.32,-134.066 1168.58,-129.444"/>
</g>
<!-- enemyRadar[RightFront15ø]&#45;&gt;Turn left/right -->
<g id="edge60" class="edge"><title>enemyRadar[RightFront15ø]&#45;&gt;Turn left/right</title>
<path fill="none" stroke="red" stroke-width="0.324451" d="M1617.17,-202.353C1604.01,-198.215 1587.35,-193.372 1572.21,-190.149 1455.53,-165.31 1408.82,-215.012 1306.21,-154.149 1295.08,-147.547 1285.49,-137.788 1277.55,-127.444"/>
<polygon fill="red" stroke="red" stroke-width="0.324451" points="1280.22,-125.153 1271.54,-119.073 1274.53,-129.237 1280.22,-125.153"/>
</g>
<!-- enemyRadar[LeftFront15ø] -->
<g id="node16" class="node"><title>enemyRadar[LeftFront15ø]</title>
<polygon fill="lightgray" stroke="black" points="1833.21,-220.362 1719.21,-220.362 1719.21,-202.362 1833.21,-202.362 1833.21,-220.362"/>
<text text-anchor="middle" x="1776.21" y="-209.162" font-family="Times,serif" font-size="9.00">enemyRadar[LeftFront15ø]</text>
</g>
<!-- enemyRadar[LeftFront15ø]&#45;&gt;Shoot -->
<g id="edge61" class="edge"><title>enemyRadar[LeftFront15ø]&#45;&gt;Shoot</title>
<path fill="none" stroke="green" stroke-width="0.592082" d="M1749.88,-202.288C1737.8,-198.584 1723.28,-194.14 1710.21,-190.149 1588.04,-152.838 1443.01,-108.718 1377.47,-88.7915"/>
<polygon fill="green" stroke="green" stroke-width="0.592082" points="1378.23,-85.3661 1367.65,-85.8059 1376.2,-92.0634 1378.23,-85.3661"/>
</g>
<!-- enemyRadar[LeftFront15ø]&#45;&gt;Move Forward/Backward -->
<g id="edge62" class="edge"><title>enemyRadar[LeftFront15ø]&#45;&gt;Move Forward/Backward</title>
<path fill="none" stroke="green" stroke-width="0.59535" d="M1754.54,-202.276C1741.81,-197.896 1725.31,-192.843 1710.21,-190.149 1569.11,-164.98 1198.78,-208.649 1066.21,-154.149 1057.46,-150.549 1048.99,-145.666 1041,-140.1"/>
<polygon fill="green" stroke="green" stroke-width="0.59535" points="1042.98,-137.212 1032.86,-134.077 1038.82,-142.839 1042.98,-137.212"/>
</g>
<!-- enemyRadar[LeftFront15ø]&#45;&gt; Move Left/Right -->
<g id="edge63" class="edge"><title>enemyRadar[LeftFront15ø]&#45;&gt; Move Left/Right</title>
<path fill="none" stroke="green" stroke-width="0.185357" d="M1754.52,-202.354C1741.79,-198 1725.29,-192.947 1710.21,-190.149 1597.2,-169.184 1296.67,-206.26 1194.21,-154.149 1183.64,-148.77 1174.13,-140.793 1165.87,-132.002"/>
<polygon fill="green" stroke="green" stroke-width="0.185357" points="1168.47,-129.658 1159.23,-124.465 1163.21,-134.284 1168.47,-129.658"/>
</g>
<!-- enemyRadar[LeftFront15ø]&#45;&gt;Turn left/right -->
<g id="edge64" class="edge"><title>enemyRadar[LeftFront15ø]&#45;&gt;Turn left/right</title>
<path fill="none" stroke="green" stroke-width="0.183291" d="M1754.2,-202.361C1741.51,-198.066 1725.15,-193.069 1710.21,-190.149 1621.75,-172.858 1384.76,-198.351 1306.21,-154.149 1294.71,-147.676 1284.9,-137.754 1276.87,-127.191"/>
<polygon fill="green" stroke="green" stroke-width="0.183291" points="1279.71,-125.155 1271.07,-119.035 1274.01,-129.213 1279.71,-125.155"/>
</g>
<!-- enemyRadar[RightFront7.5ø] -->
<g id="node17" class="node"><title>enemyRadar[RightFront7.5ø]</title>
<polygon fill="lightgray" stroke="black" points="1973.21,-220.362 1851.21,-220.362 1851.21,-202.362 1973.21,-202.362 1973.21,-220.362"/>
<text text-anchor="middle" x="1912.21" y="-209.162" font-family="Times,serif" font-size="9.00">enemyRadar[RightFront7.5ø]</text>
</g>
<!-- enemyRadar[RightFront7.5ø]&#45;&gt;Shoot -->
<g id="edge65" class="edge"><title>enemyRadar[RightFront7.5ø]&#45;&gt;Shoot</title>
<path fill="none" stroke="green" stroke-width="0.253619" d="M1885.72,-202.303C1872.67,-198.438 1856.67,-193.854 1842.21,-190.149 1669.49,-145.898 1460.74,-102.239 1378.25,-85.3698"/>
<polygon fill="green" stroke="green" stroke-width="0.253619" points="1378.87,-81.9241 1368.37,-83.3544 1377.47,-88.7828 1378.87,-81.9241"/>
</g>
<!-- enemyRadar[RightFront7.5ø]&#45;&gt;Move Forward/Backward -->
<g id="edge66" class="edge"><title>enemyRadar[RightFront7.5ø]&#45;&gt;Move Forward/Backward</title>
<path fill="none" stroke="green" stroke-width="0.192746" d="M1889.51,-202.338C1875.96,-197.921 1858.31,-192.809 1842.21,-190.149 1671.89,-162.01 1226.19,-219.03 1066.21,-154.149 1057.44,-150.591 1048.96,-145.734 1040.97,-140.182"/>
<polygon fill="green" stroke="green" stroke-width="0.192746" points="1042.95,-137.294 1032.83,-134.171 1038.79,-142.926 1042.95,-137.294"/>
</g>
<!-- enemyRadar[RightFront7.5ø]&#45;&gt; Move Left/Right -->
<g id="edge67" class="edge"><title>enemyRadar[RightFront7.5ø]&#45;&gt; Move Left/Right</title>
<path fill="none" stroke="red" stroke-width="0.665522" d="M1889.18,-202.29C1875.68,-197.915 1858.18,-192.861 1842.21,-190.149 1700.03,-165.99 1323.22,-218.621 1194.21,-154.149 1183.6,-148.845 1174.07,-140.903 1165.81,-132.123"/>
<polygon fill="red" stroke="red" stroke-width="0.665522" points="1168.41,-129.779 1159.17,-124.589 1163.16,-134.406 1168.41,-129.779"/>
</g>
<!-- enemyRadar[RightFront7.5ø]&#45;&gt;Turn left/right -->
<g id="edge68" class="edge"><title>enemyRadar[RightFront7.5ø]&#45;&gt;Turn left/right</title>
<path fill="none" stroke="green" stroke-width="0.632555" stroke-dasharray="1,5" d="M1889.17,-202.359C1875.66,-198.007 1858.16,-192.954 1842.21,-190.149 1724.64,-169.472 1410.88,-211.556 1306.21,-154.149 1294.64,-147.802 1284.81,-137.926 1276.77,-127.368"/>
<polygon fill="green" stroke="green" stroke-width="0.632555" points="1279.61,-125.332 1270.97,-119.209 1273.91,-129.388 1279.61,-125.332"/>
</g>
<!-- enemyRadar[LeftFront7.5ø] -->
<g id="node18" class="node"><title>enemyRadar[LeftFront7.5ø]</title>
<polygon fill="lightgray" stroke="black" points="2107.21,-220.362 1991.21,-220.362 1991.21,-202.362 2107.21,-202.362 2107.21,-220.362"/>
<text text-anchor="middle" x="2049.21" y="-209.162" font-family="Times,serif" font-size="9.00">enemyRadar[LeftFront7.5ø]</text>
</g>
<!-- enemyRadar[LeftFront7.5ø]&#45;&gt;Shoot -->
<g id="edge69" class="edge"><title>enemyRadar[LeftFront7.5ø]&#45;&gt;Shoot</title>
<path fill="none" stroke="green" stroke-width="0.604752" d="M2025.21,-202.361C2012.53,-198.326 1996.63,-193.574 1982.21,-190.149 1755.34,-136.267 1477.56,-96.3262 1379.01,-82.9452"/>
<polygon fill="green" stroke="green" stroke-width="0.604752" points="1379.34,-79.4583 1368.97,-81.5889 1378.41,-86.3954 1379.34,-79.4583"/>
</g>
<!-- enemyRadar[LeftFront7.5ø]&#45;&gt;Move Forward/Backward -->
<g id="edge70" class="edge"><title>enemyRadar[LeftFront7.5ø]&#45;&gt;Move Forward/Backward</title>
<path fill="none" stroke="green" stroke-width="0.168321" d="M2027.52,-202.288C2014.56,-197.854 1997.67,-192.741 1982.21,-190.149 1781.31,-156.459 1255.26,-230.043 1066.21,-154.149 1057.43,-150.622 1048.94,-145.784 1040.94,-140.244"/>
<polygon fill="green" stroke="green" stroke-width="0.168321" points="1042.92,-137.356 1032.8,-134.242 1038.77,-142.992 1042.92,-137.356"/>
</g>
<!-- enemyRadar[LeftFront7.5ø]&#45;&gt; Move Left/Right -->
<g id="edge71" class="edge"><title>enemyRadar[LeftFront7.5ø]&#45;&gt; Move Left/Right</title>
<path fill="none" stroke="red" stroke-width="0.142299" d="M2027.51,-202.324C2014.55,-197.902 1997.66,-192.791 1982.21,-190.149 1895.82,-175.379 1272.81,-192.944 1194.21,-154.149 1183.45,-148.837 1173.82,-140.799 1165.49,-131.907"/>
<polygon fill="red" stroke="red" stroke-width="0.142299" points="1168.02,-129.492 1158.8,-124.278 1162.76,-134.106 1168.02,-129.492"/>
</g>
<!-- enemyRadar[LeftFront7.5ø]&#45;&gt;Turn left/right -->
<g id="edge72" class="edge"><title>enemyRadar[LeftFront7.5ø]&#45;&gt;Turn left/right</title>
<path fill="none" stroke="green" stroke-width="0.210363" d="M2027.2,-202.265C2014.28,-197.881 1997.53,-192.828 1982.21,-190.149 1908.12,-177.194 1372.41,-189.862 1306.21,-154.149 1294.6,-147.882 1284.75,-138.037 1276.71,-127.482"/>
<polygon fill="green" stroke="green" stroke-width="0.210363" points="1279.55,-125.445 1270.91,-119.32 1273.85,-129.499 1279.55,-125.445"/>
</g>
<!-- enemyRadar[RightFront2.5ø] -->
<g id="node19" class="node"><title>enemyRadar[RightFront2.5ø]</title>
<polygon fill="lightgray" stroke="black" points="2247.21,-220.362 2125.21,-220.362 2125.21,-202.362 2247.21,-202.362 2247.21,-220.362"/>
<text text-anchor="middle" x="2186.21" y="-209.162" font-family="Times,serif" font-size="9.00">enemyRadar[RightFront2.5ø]</text>
</g>
<!-- enemyRadar[RightFront2.5ø]&#45;&gt;Shoot -->
<g id="edge73" class="edge"><title>enemyRadar[RightFront2.5ø]&#45;&gt;Shoot</title>
<path fill="none" stroke="red" stroke-width="0.457787" d="M2161.48,-202.321C2148.18,-198.224 2131.42,-193.43 2116.21,-190.149 1835.92,-129.686 1491.34,-92.7095 1379.29,-81.6168"/>
<polygon fill="red" stroke="red" stroke-width="0.457787" points="1379.48,-78.1184 1369.19,-80.6242 1378.8,-85.0849 1379.48,-78.1184"/>
</g>
<!-- enemyRadar[RightFront2.5ø]&#45;&gt;Move Forward/Backward -->
<g id="edge74" class="edge"><title>enemyRadar[RightFront2.5ø]&#45;&gt;Move Forward/Backward</title>
<path fill="none" stroke="green" stroke-width="0.180903" stroke-dasharray="1,5" d="M2163.52,-202.266C2149.98,-197.824 2132.33,-192.712 2116.21,-190.149 2000.93,-171.817 1174.65,-197.368 1066.21,-154.149 1057.28,-150.589 1048.66,-145.669 1040.55,-140.028"/>
<polygon fill="green" stroke="green" stroke-width="0.180903" points="1042.42,-137.053 1032.3,-133.916 1038.25,-142.679 1042.42,-137.053"/>
</g>
<!-- enemyRadar[RightFront2.5ø]&#45;&gt; Move Left/Right -->
<g id="edge75" class="edge"><title>enemyRadar[RightFront2.5ø]&#45;&gt; Move Left/Right</title>
<path fill="none" stroke="red" stroke-width="0.147482" d="M2163.52,-202.295C2149.97,-197.862 2132.32,-192.75 2116.21,-190.149 2015,-173.809 1286.3,-199.223 1194.21,-154.149 1183.43,-148.873 1173.79,-140.851 1165.46,-131.964"/>
<polygon fill="red" stroke="red" stroke-width="0.147482" points="1168,-129.549 1158.77,-124.336 1162.73,-134.164 1168,-129.549"/>
</g>
<!-- enemyRadar[RightFront2.5ø]&#45;&gt;Turn left/right -->
<g id="edge76" class="edge"><title>enemyRadar[RightFront2.5ø]&#45;&gt;Turn left/right</title>
<path fill="none" stroke="red" stroke-width="0.25565" d="M2163.51,-202.327C2149.96,-197.905 2132.32,-192.793 2116.21,-190.149 2027.32,-175.551 1385.69,-196.573 1306.21,-154.149 1294.57,-147.934 1284.71,-138.107 1276.67,-127.554"/>
<polygon fill="red" stroke="red" stroke-width="0.25565" points="1279.51,-125.517 1270.87,-119.39 1273.81,-129.57 1279.51,-125.517"/>
</g>
<!-- enemyRadar[LeftFront2.5ø] -->
<g id="node20" class="node"><title>enemyRadar[LeftFront2.5ø]</title>
<polygon fill="lightgray" stroke="black" points="2381.21,-220.362 2265.21,-220.362 2265.21,-202.362 2381.21,-202.362 2381.21,-220.362"/>
<text text-anchor="middle" x="2323.21" y="-209.162" font-family="Times,serif" font-size="9.00">enemyRadar[LeftFront2.5ø]</text>
</g>
<!-- enemyRadar[LeftFront2.5ø]&#45;&gt;Shoot -->
<g id="edge77" class="edge"><title>enemyRadar[LeftFront2.5ø]&#45;&gt;Shoot</title>
<path fill="none" stroke="green" stroke-width="0.23042" d="M2300.21,-202.359C2287.4,-198.171 2271.07,-193.278 2256.21,-190.149 1919.89,-119.341 1503.86,-88.4209 1379.18,-80.3307"/>
<polygon fill="green" stroke="green" stroke-width="0.23042" points="1379.24,-76.827 1369.03,-79.681 1378.79,-83.8127 1379.24,-76.827"/>
</g>
<!-- enemyRadar[LeftFront2.5ø]&#45;&gt;Move Forward/Backward -->
<g id="edge78" class="edge"><title>enemyRadar[LeftFront2.5ø]&#45;&gt;Move Forward/Backward</title>
<path fill="none" stroke="red" stroke-width="0.143549" d="M2301.83,-202.34C2288.84,-197.864 2271.8,-192.691 2256.21,-190.149 2125.65,-168.862 1189.19,-202.876 1066.21,-154.149 1057.27,-150.607 1048.65,-145.698 1040.54,-140.064"/>
<polygon fill="red" stroke="red" stroke-width="0.143549" points="1042.4,-137.089 1032.28,-133.956 1038.24,-142.717 1042.4,-137.089"/>
</g>
<!-- enemyRadar[LeftFront2.5ø]&#45;&gt; Move Left/Right -->
<g id="edge79" class="edge"><title>enemyRadar[LeftFront2.5ø]&#45;&gt; Move Left/Right</title>
<path fill="none" stroke="green" stroke-width="0.216662" d="M2301.82,-202.361C2288.83,-197.892 2271.8,-192.719 2256.21,-190.149 2139.72,-170.937 1300.39,-205.785 1194.21,-154.149 1183.42,-148.901 1173.77,-140.891 1165.44,-132.008"/>
<polygon fill="green" stroke="green" stroke-width="0.216662" points="1167.97,-129.593 1158.75,-124.382 1162.71,-134.208 1167.97,-129.593"/>
</g>
<!-- enemyRadar[LeftFront2.5ø]&#45;&gt;Turn left/right -->
<g id="edge80" class="edge"><title>enemyRadar[LeftFront2.5ø]&#45;&gt;Turn left/right</title>
<path fill="none" stroke="red" stroke-width="0.142625" d="M2301.52,-202.28C2288.56,-197.843 2271.67,-192.73 2256.21,-190.149 2152.02,-172.753 1399.56,-203.588 1306.21,-154.149 1294.55,-147.972 1284.68,-138.159 1276.64,-127.608"/>
<polygon fill="red" stroke="red" stroke-width="0.142625" points="1279.49,-125.571 1270.84,-119.443 1273.78,-129.623 1279.49,-125.571"/>
</g>
<!-- enemyRadar[Front7Ø] -->
<g id="node21" class="node"><title>enemyRadar[Front7Ø]</title>
<polygon fill="lightgray" stroke="black" points="2497.21,-220.362 2399.21,-220.362 2399.21,-202.362 2497.21,-202.362 2497.21,-220.362"/>
<text text-anchor="middle" x="2448.21" y="-209.162" font-family="Times,serif" font-size="9.00">enemyRadar[Front7Ø]</text>
</g>
<!-- enemyRadar[Front7Ø]&#45;&gt;Shoot -->
<g id="edge81" class="edge"><title>enemyRadar[Front7Ø]&#45;&gt;Shoot</title>
<path fill="none" stroke="red" stroke-width="0.42381" d="M2428.68,-202.297C2417.58,-198.036 2403.32,-193.094 2390.21,-190.149 2001.71,-102.89 1516.46,-82.997 1379.64,-78.9929"/>
<polygon fill="red" stroke="red" stroke-width="0.42381" points="1379.4,-75.4847 1369.3,-78.7016 1379.2,-82.482 1379.4,-75.4847"/>
</g>
<!-- enemyRadar[Front7Ø]&#45;&gt;Move Forward/Backward -->
<g id="edge82" class="edge"><title>enemyRadar[Front7Ø]&#45;&gt;Move Forward/Backward</title>
<path fill="none" stroke="green" stroke-width="0.537047" d="M2429.8,-202.309C2418.59,-197.822 2403.85,-192.648 2390.21,-190.149 2245.46,-163.62 1203.11,-208.149 1066.21,-154.149 1057.27,-150.621 1048.64,-145.72 1040.53,-140.091"/>
<polygon fill="green" stroke="green" stroke-width="0.537047" points="1042.39,-137.116 1032.27,-133.987 1038.23,-142.745 1042.39,-137.116"/>
</g>
<!-- enemyRadar[Front7Ø]&#45;&gt; Move Left/Right -->
<g id="edge83" class="edge"><title>enemyRadar[Front7Ø]&#45;&gt; Move Left/Right</title>
<path fill="none" stroke="red" stroke-width="0.388514" d="M2429.8,-202.323C2418.59,-197.841 2403.84,-192.668 2390.21,-190.149 2259.48,-165.992 1313.88,-212.066 1194.21,-154.149 1183.41,-148.921 1173.76,-140.921 1165.42,-132.041"/>
<polygon fill="red" stroke="red" stroke-width="0.388514" points="1167.96,-129.626 1158.73,-124.415 1162.7,-134.241 1167.96,-129.626"/>
</g>
<!-- enemyRadar[Front7Ø]&#45;&gt;Turn left/right -->
<g id="edge84" class="edge"><title>enemyRadar[Front7Ø]&#45;&gt;Turn left/right</title>
<path fill="none" stroke="green" stroke-width="0.209428" stroke-dasharray="1,5" d="M2429.8,-202.339C2418.58,-197.862 2403.84,-192.689 2390.21,-190.149 2271.74,-168.068 1412.84,-210.302 1306.21,-154.149 1294.42,-147.938 1284.47,-138.002 1276.38,-127.332"/>
<polygon fill="green" stroke="green" stroke-width="0.209428" points="1279.18,-125.234 1270.56,-119.08 1273.46,-129.269 1279.18,-125.234"/>
</g>
<!-- OnTarget -->
<g id="node22" class="node"><title>OnTarget</title>
<polygon fill="lightgray" stroke="black" points="2565.21,-220.362 2515.21,-220.362 2515.21,-202.362 2565.21,-202.362 2565.21,-220.362"/>
<text text-anchor="middle" x="2540.21" y="-209.162" font-family="Times,serif" font-size="9.00">OnTarget</text>
</g>
<!-- OnTarget&#45;&gt;Shoot -->
<g id="edge85" class="edge"><title>OnTarget&#45;&gt;Shoot</title>
<path fill="none" stroke="green" stroke-width="0.345299" d="M2529.48,-202.306C2523.07,-197.936 2514.57,-192.882 2506.21,-190.149 2288.98,-119.082 1553.43,-86.3282 1379.36,-79.4681"/>
<polygon fill="green" stroke="green" stroke-width="0.345299" points="1379.31,-75.9633 1369.18,-79.0711 1379.03,-82.958 1379.31,-75.9633"/>
</g>
<!-- OnTarget&#45;&gt;Move Forward/Backward -->
<g id="edge86" class="edge"><title>OnTarget&#45;&gt;Move Forward/Backward</title>
<path fill="none" stroke="green" stroke-width="0.544546" d="M2529.85,-202.29C2523.42,-197.796 2514.79,-192.622 2506.21,-190.149 2352.43,-145.814 1215.16,-212.714 1066.21,-154.149 1057.26,-150.63 1048.63,-145.736 1040.52,-140.11"/>
<polygon fill="green" stroke="green" stroke-width="0.544546" points="1042.38,-137.135 1032.26,-134.009 1038.22,-142.766 1042.38,-137.135"/>
</g>
<!-- OnTarget&#45;&gt; Move Left/Right -->
<g id="edge87" class="edge"><title>OnTarget&#45;&gt; Move Left/Right</title>
<path fill="none" stroke="red" stroke-width="0.257694" d="M2529.84,-202.298C2523.42,-197.806 2514.79,-192.633 2506.21,-190.149 2366.14,-149.581 1325.57,-217.504 1194.21,-154.149 1183.4,-148.936 1173.75,-140.942 1165.41,-132.063"/>
<polygon fill="red" stroke="red" stroke-width="0.257694" points="1167.95,-129.649 1158.72,-124.439 1162.68,-134.265 1167.95,-129.649"/>
</g>
<!-- OnTarget&#45;&gt;Turn left/right -->
<g id="edge88" class="edge"><title>OnTarget&#45;&gt;Turn left/right</title>
<path fill="none" stroke="red" stroke-width="0.125361" d="M2529.84,-202.306C2523.42,-197.817 2514.78,-192.644 2506.21,-190.149 2378.13,-152.878 1424.34,-216.116 1306.21,-154.149 1294.41,-147.957 1284.45,-138.028 1276.37,-127.359"/>
<polygon fill="red" stroke="red" stroke-width="0.125361" points="1279.17,-125.26 1270.55,-119.106 1273.45,-129.295 1279.17,-125.26"/>
</g>
<!-- bias -->
<g id="node23" class="node"><title>bias</title>
<polygon fill="lightgray" stroke="black" points="167.713,-220.362 136.713,-220.362 136.713,-202.362 167.713,-202.362 167.713,-220.362"/>
<text text-anchor="middle" x="152.213" y="-209.162" font-family="Times,serif" font-size="9.00">bias</text>
</g>
<!-- bias&#45;&gt;Shoot -->
<g id="edge89" class="edge"><title>bias&#45;&gt;Shoot</title>
<path fill="none" stroke="red" stroke-width="0.244417" d="M159.691,-202.123C164.267,-197.692 170.517,-192.639 177.213,-190.149 294.856,-146.418 1201.25,-222.966 1306.21,-154.149 1320.25,-144.948 1328.93,-128.693 1334.25,-113.564"/>
<polygon fill="red" stroke="red" stroke-width="0.244417" points="1337.63,-114.458 1337.27,-103.87 1330.95,-112.372 1337.63,-114.458"/>
</g>
<!-- bias&#45;&gt;Move Forward/Backward -->
<g id="edge90" class="edge"><title>bias&#45;&gt;Move Forward/Backward</title>
<path fill="none" stroke="red" stroke-width="0.284739" d="M160.235,-201.979C164.8,-197.732 170.864,-192.904 177.213,-190.149 304.664,-134.862 712.988,-98.2016 893.266,-84.3139"/>
<polygon fill="red" stroke="red" stroke-width="0.284739" points="893.538,-87.8033 903.242,-83.5506 893.004,-80.8237 893.538,-87.8033"/>
</g>
<!-- bias&#45;&gt; Move Left/Right -->
<g id="edge91" class="edge"><title>bias&#45;&gt; Move Left/Right</title>
<path fill="none" stroke="green" stroke-width="0.202445" d="M159.699,-202.144C164.277,-197.721 170.527,-192.667 177.213,-190.149 362.243,-120.462 888.692,-241.204 1066.21,-154.149 1076.99,-148.865 1086.63,-140.84 1094.96,-131.951"/>
<polygon fill="green" stroke="green" stroke-width="0.202445" points="1097.69,-134.151 1101.65,-124.324 1092.42,-129.537 1097.69,-134.151"/>
</g>
<!-- bias&#45;&gt;Turn left/right -->
<g id="edge92" class="edge"><title>bias&#45;&gt;Turn left/right</title>
<path fill="none" stroke="red" stroke-width="0.47482" d="M159.694,-202.132C164.271,-197.704 170.521,-192.65 177.213,-190.149 283.129,-150.566 1094.23,-206.945 1194.21,-154.149 1205.89,-147.986 1215.75,-138.179 1223.8,-127.628"/>
<polygon fill="red" stroke="red" stroke-width="0.47482" points="1226.66,-129.643 1229.59,-119.463 1220.95,-125.591 1226.66,-129.643"/>
</g>
<!-- 104&#45;&gt;Move Forward/Backward -->
<g id="edge94" class="edge"><title>104&#45;&gt;Move Forward/Backward</title>
<path fill="none" stroke="green" stroke-width="0.188527" d="M38.3623,-198.621C43.8474,-195.379 50.0899,-192.194 56.2132,-190.149 351.6,-91.5348 725.885,-77.8805 892.885,-77.1561"/>
<polygon fill="green" stroke="green" stroke-width="0.188527" points="893.11,-80.6556 903.1,-77.1269 893.09,-73.6556 893.11,-80.6556"/>
</g>
</g>
</svg>
