<?xml version="1.0" encoding="UTF-8" standalone="no"?>
<!DOCTYPE svg PUBLIC "-//W3C//DTD SVG 1.1//EN"
 "http://www.w3.org/Graphics/SVG/1.1/DTD/svg11.dtd">
<!-- Generated by graphviz version 2.38.0 (20140413.2041)
 -->
<!-- Title: %3 Pages: 1 -->
<svg width="2520pt" height="172pt"
 viewBox="0.00 0.00 2519.50 172.31" xmlns="http://www.w3.org/2000/svg" xmlns:xlink="http://www.w3.org/1999/xlink">
<g id="graph0" class="graph" transform="scale(1 1) rotate(0) translate(4 168.309)">
<title>%3</title>
<polygon fill="white" stroke="none" points="-4,4 -4,-168.309 2515.5,-168.309 2515.5,4 -4,4"/>
<!-- wallRadar[1,0] -->
<g id="node1" class="node"><title>wallRadar[1,0]</title>
<polygon fill="lightgray" stroke="black" points="599,-164.309 529,-164.309 529,-146.309 599,-146.309 599,-164.309"/>
<text text-anchor="middle" x="564" y="-153.109" font-family="Times,serif" font-size="9.00">wallRadar[1,0]</text>
</g>
<!-- Move Forward -->
<g id="node25" class="node"><title>Move Forward</title>
<ellipse fill="lightblue" stroke="black" cx="529" cy="-55.1543" rx="50.41" ry="50.41"/>
<text text-anchor="middle" x="529" y="-52.9543" font-family="Times,serif" font-size="9.00">Move Forward</text>
</g>
<!-- wallRadar[1,0]&#45;&gt;Move Forward -->
<g id="edge30" class="edge"><title>wallRadar[1,0]&#45;&gt;Move Forward</title>
<path fill="none" stroke="red" stroke-width="0.395259" d="M561.136,-146.276C558.351,-138.466 553.854,-125.855 549.095,-112.51"/>
<polygon fill="red" stroke="red" stroke-width="0.395259" points="552.26,-110.964 545.605,-102.721 545.667,-113.315 552.26,-110.964"/>
</g>
<!--  Move Backward -->
<g id="node26" class="node"><title> Move Backward</title>
<ellipse fill="lightblue" stroke="black" cx="917" cy="-55.1543" rx="55.3091" ry="55.3091"/>
<text text-anchor="middle" x="917" y="-52.9543" font-family="Times,serif" font-size="9.00"> Move Backward</text>
</g>
<!-- wallRadar[1,0]&#45;&gt; Move Backward -->
<g id="edge19" class="edge"><title>wallRadar[1,0]&#45;&gt; Move Backward</title>
<path fill="none" stroke="green" stroke-width="0.192569" d="M599.358,-147.932C602.616,-147.372 605.868,-146.823 609,-146.309 715.001,-128.906 749.374,-152.878 848,-110.309 855.078,-107.254 862.055,-103.289 868.694,-98.8942"/>
<polygon fill="green" stroke="green" stroke-width="0.192569" points="870.729,-101.742 876.905,-93.1333 866.709,-96.0117 870.729,-101.742"/>
</g>
<!-- wallRadar[0,1] -->
<g id="node2" class="node"><title>wallRadar[0,1]</title>
<polygon fill="lightgray" stroke="black" points="847,-164.309 777,-164.309 777,-146.309 847,-146.309 847,-164.309"/>
<text text-anchor="middle" x="812" y="-153.109" font-family="Times,serif" font-size="9.00">wallRadar[0,1]</text>
</g>
<!-- Shoot -->
<g id="node24" class="node"><title>Shoot</title>
<ellipse fill="lightblue" stroke="black" cx="812" cy="-55.1543" rx="26.7407" ry="26.7407"/>
<text text-anchor="middle" x="812" y="-52.9543" font-family="Times,serif" font-size="9.00">Shoot</text>
</g>
<!-- wallRadar[0,1]&#45;&gt;Shoot -->
<g id="edge17" class="edge"><title>wallRadar[0,1]&#45;&gt;Shoot</title>
<path fill="none" stroke="green" stroke-width="0.125962" d="M812,-146.276C812,-134.556 812,-112.026 812,-92.4263"/>
<polygon fill="green" stroke="green" stroke-width="0.125962" points="815.5,-92.2223 812,-82.2223 808.5,-92.2223 815.5,-92.2223"/>
</g>
<!-- wallRadar[0,1]&#45;&gt; Move Backward -->
<g id="edge44" class="edge"><title>wallRadar[0,1]&#45;&gt; Move Backward</title>
<path fill="none" stroke="red" stroke-width="0.123688" d="M820.593,-146.276C831.402,-136.171 850.807,-118.032 869.387,-100.663"/>
<polygon fill="red" stroke="red" stroke-width="0.123688" points="871.806,-103.193 876.721,-93.8073 867.026,-98.0794 871.806,-103.193"/>
</g>
<!-- wallRadar[&#45;1,0] -->
<g id="node3" class="node"><title>wallRadar[&#45;1,0]</title>
<polygon fill="lightgray" stroke="black" points="1856.5,-164.309 1783.5,-164.309 1783.5,-146.309 1856.5,-146.309 1856.5,-164.309"/>
<text text-anchor="middle" x="1820" y="-153.109" font-family="Times,serif" font-size="9.00">wallRadar[&#45;1,0]</text>
</g>
<!-- wallRadar[&#45;1,0]&#45;&gt; Move Backward -->
<g id="edge13" class="edge"><title>wallRadar[&#45;1,0]&#45;&gt; Move Backward</title>
<path fill="none" stroke="red" stroke-width="0.137154" d="M1783.38,-147.71C1780.21,-147.209 1777.05,-146.734 1774,-146.309 1479.65,-105.278 1126.07,-73.6386 982.435,-61.5226"/>
<polygon fill="red" stroke="red" stroke-width="0.137154" points="982.308,-57.9997 972.05,-60.6498 981.721,-64.9751 982.308,-57.9997"/>
</g>
<!-- Move Left -->
<g id="node27" class="node"><title>Move Left</title>
<ellipse fill="lightblue" stroke="black" cx="1764" cy="-55.1543" rx="38.3684" ry="38.3684"/>
<text text-anchor="middle" x="1764" y="-52.9543" font-family="Times,serif" font-size="9.00">Move Left</text>
</g>
<!-- wallRadar[&#45;1,0]&#45;&gt;Move Left -->
<g id="edge43" class="edge"><title>wallRadar[&#45;1,0]&#45;&gt;Move Left</title>
<path fill="none" stroke="green" stroke-width="0.228363" d="M1815.42,-146.276C1809.31,-135.574 1798.06,-115.86 1787.64,-97.5925"/>
<polygon fill="green" stroke="green" stroke-width="0.228363" points="1790.61,-95.7385 1782.62,-88.7872 1784.53,-99.2074 1790.61,-95.7385"/>
</g>
<!-- wallRadar[0,&#45;1] -->
<g id="node4" class="node"><title>wallRadar[0,&#45;1]</title>
<polygon fill="lightgray" stroke="black" points="690.5,-164.309 617.5,-164.309 617.5,-146.309 690.5,-146.309 690.5,-164.309"/>
<text text-anchor="middle" x="654" y="-153.109" font-family="Times,serif" font-size="9.00">wallRadar[0,&#45;1]</text>
</g>
<!-- wallRadar[0,&#45;1]&#45;&gt;Move Forward -->
<g id="edge21" class="edge"><title>wallRadar[0,&#45;1]&#45;&gt;Move Forward</title>
<path fill="none" stroke="green" stroke-width="0.539912" d="M643.771,-146.276C628.986,-134.667 600.697,-112.453 575.905,-92.9861"/>
<polygon fill="green" stroke="green" stroke-width="0.539912" points="578.027,-90.202 568.001,-86.7789 573.704,-95.7076 578.027,-90.202"/>
</g>
<!-- wallRadar[0,&#45;1]&#45;&gt; Move Backward -->
<g id="edge18" class="edge"><title>wallRadar[0,&#45;1]&#45;&gt; Move Backward</title>
<path fill="none" stroke="green" stroke-width="0.218893" d="M690.546,-148.004C738.691,-139.359 820.48,-123.407 848,-110.309 854.712,-107.114 861.373,-103.169 867.758,-98.8756"/>
<polygon fill="green" stroke="green" stroke-width="0.218893" points="870.137,-101.48 876.273,-92.8429 866.09,-95.7678 870.137,-101.48"/>
</g>
<!-- wallRadar[0.7,0.7] -->
<g id="node5" class="node"><title>wallRadar[0.7,0.7]</title>
<polygon fill="lightgray" stroke="black" points="2151.5,-164.309 2068.5,-164.309 2068.5,-146.309 2151.5,-146.309 2151.5,-164.309"/>
<text text-anchor="middle" x="2110" y="-153.109" font-family="Times,serif" font-size="9.00">wallRadar[0.7,0.7]</text>
</g>
<!-- wallRadar[0.7,0.7]&#45;&gt;Move Left -->
<g id="edge46" class="edge"><title>wallRadar[0.7,0.7]&#45;&gt;Move Left</title>
<path fill="none" stroke="green" stroke-width="0.109011" d="M2081.69,-146.276C2022.11,-129.375 1883.3,-89.9991 1810.48,-69.3409"/>
<polygon fill="green" stroke="green" stroke-width="0.109011" points="1811.24,-65.9165 1800.66,-66.5544 1809.33,-72.6508 1811.24,-65.9165"/>
</g>
<!-- wallRadar[&#45;0.7,0.7] -->
<g id="node6" class="node"><title>wallRadar[&#45;0.7,0.7]</title>
<polygon fill="lightgray" stroke="black" points="220,-164.309 134,-164.309 134,-146.309 220,-146.309 220,-164.309"/>
<text text-anchor="middle" x="177" y="-153.109" font-family="Times,serif" font-size="9.00">wallRadar[&#45;0.7,0.7]</text>
</g>
<!-- wallRadar[&#45;0.7,0.7]&#45;&gt;Shoot -->
<g id="edge31" class="edge"><title>wallRadar[&#45;0.7,0.7]&#45;&gt;Shoot</title>
<path fill="none" stroke="red" stroke-width="0.195537" d="M220.106,-147.498C223.113,-147.078 226.1,-146.677 229,-146.309 388.079,-126.11 429.917,-137.213 588,-110.309 655.37,-98.8429 732.558,-78.5693 776.472,-66.3455"/>
<polygon fill="red" stroke="red" stroke-width="0.195537" points="777.687,-69.64 786.37,-63.5695 775.796,-62.9001 777.687,-69.64"/>
</g>
<!-- wallRadar[&#45;0.7,0.7]&#45;&gt;Move Forward -->
<g id="edge33" class="edge"><title>wallRadar[&#45;0.7,0.7]&#45;&gt;Move Forward</title>
<path fill="none" stroke="red" stroke-width="0.325179" d="M205.806,-146.276C263.555,-130.173 394.472,-93.6672 470.784,-72.3878"/>
<polygon fill="red" stroke="red" stroke-width="0.325179" points="472.028,-75.6744 480.721,-69.6169 470.148,-68.9316 472.028,-75.6744"/>
</g>
<!-- wallRadar[&#45;0.7,&#45;0.7] -->
<g id="node7" class="node"><title>wallRadar[&#45;0.7,&#45;0.7]</title>
<polygon fill="lightgray" stroke="black" points="2511.5,-164.309 2422.5,-164.309 2422.5,-146.309 2511.5,-146.309 2511.5,-164.309"/>
<text text-anchor="middle" x="2467" y="-153.109" font-family="Times,serif" font-size="9.00">wallRadar[&#45;0.7,&#45;0.7]</text>
</g>
<!-- wallRadar[0.7,&#45;0.7] -->
<g id="node8" class="node"><title>wallRadar[0.7,&#45;0.7]</title>
<polygon fill="lightgray" stroke="black" points="324,-164.309 238,-164.309 238,-146.309 324,-146.309 324,-164.309"/>
<text text-anchor="middle" x="281" y="-153.109" font-family="Times,serif" font-size="9.00">wallRadar[0.7,&#45;0.7]</text>
</g>
<!-- wallRadar[0.7,&#45;0.7]&#45;&gt;Shoot -->
<g id="edge34" class="edge"><title>wallRadar[0.7,&#45;0.7]&#45;&gt;Shoot</title>
<path fill="none" stroke="red" stroke-width="0.307161" d="M324.124,-147.632C327.127,-147.18 330.108,-146.735 333,-146.309 446.232,-129.606 475.575,-131.782 588,-110.309 655.125,-97.4876 732.396,-77.6672 776.391,-65.8952"/>
<polygon fill="red" stroke="red" stroke-width="0.307161" points="777.561,-69.205 786.308,-63.2269 775.742,-62.4454 777.561,-69.205"/>
</g>
<!-- wallRadar[0.7,&#45;0.7]&#45;&gt;Move Forward -->
<g id="edge47" class="edge"><title>wallRadar[0.7,&#45;0.7]&#45;&gt;Move Forward</title>
<path fill="none" stroke="red" stroke-width="0.253691" d="M301.295,-146.276C338.399,-131.591 418.376,-99.9375 472.949,-78.3383"/>
<polygon fill="red" stroke="red" stroke-width="0.253691" points="474.479,-81.4969 482.49,-74.5624 471.903,-74.9882 474.479,-81.4969"/>
</g>
<!-- wallRadar[0.7,&#45;0.7]&#45;&gt; Move Backward -->
<g id="edge1" class="edge"><title>wallRadar[0.7,&#45;0.7]&#45;&gt; Move Backward</title>
<path fill="none" stroke="red" stroke-width="0.261807" d="M324.094,-147.398C327.104,-147.001 330.095,-146.633 333,-146.309 447.015,-133.575 740.941,-151.539 848,-110.309 855.194,-107.538 862.241,-103.745 868.918,-99.4434"/>
<polygon fill="red" stroke="red" stroke-width="0.261807" points="870.915,-102.318 877.161,-93.7603 866.941,-96.5552 870.915,-102.318"/>
</g>
<!-- enemyRadar[RightBack] -->
<g id="node9" class="node"><title>enemyRadar[RightBack]</title>
<polygon fill="lightgray" stroke="black" points="969,-164.309 865,-164.309 865,-146.309 969,-146.309 969,-164.309"/>
<text text-anchor="middle" x="917" y="-153.109" font-family="Times,serif" font-size="9.00">enemyRadar[RightBack]</text>
</g>
<!-- enemyRadar[RightBack]&#45;&gt;Shoot -->
<g id="edge38" class="edge"><title>enemyRadar[RightBack]&#45;&gt;Shoot</title>
<path fill="none" stroke="green" stroke-width="0.103211" d="M902.557,-146.218C888.911,-138.167 868.307,-124.931 853,-110.309 845.532,-103.175 838.376,-94.5842 832.191,-86.3683"/>
<polygon fill="green" stroke="green" stroke-width="0.103211" points="834.835,-84.0525 826.126,-78.0189 829.171,-88.1666 834.835,-84.0525"/>
</g>
<!-- enemyRadar[RightBack]&#45;&gt; Move Backward -->
<g id="edge20" class="edge"><title>enemyRadar[RightBack]&#45;&gt; Move Backward</title>
<path fill="none" stroke="red" stroke-width="0.262275" d="M917,-146.276C917,-140.164 917,-131.112 917,-121.069"/>
<polygon fill="red" stroke="red" stroke-width="0.262275" points="920.5,-120.768 917,-110.768 913.5,-120.768 920.5,-120.768"/>
</g>
<!-- enemyRadar[LeftBack] -->
<g id="node10" class="node"><title>enemyRadar[LeftBack]</title>
<polygon fill="lightgray" stroke="black" points="1973.5,-164.309 1874.5,-164.309 1874.5,-146.309 1973.5,-146.309 1973.5,-164.309"/>
<text text-anchor="middle" x="1924" y="-153.109" font-family="Times,serif" font-size="9.00">enemyRadar[LeftBack]</text>
</g>
<!-- enemyRadar[LeftBack]&#45;&gt; Move Backward -->
<g id="edge14" class="edge"><title>enemyRadar[LeftBack]&#45;&gt; Move Backward</title>
<path fill="none" stroke="red" stroke-width="0.380129" d="M1874.34,-147.319C1871.52,-146.965 1868.73,-146.626 1866,-146.309 1534.36,-107.702 1136.07,-73.9557 982.132,-61.3847"/>
<polygon fill="red" stroke="red" stroke-width="0.380129" points="982.163,-57.8757 971.911,-60.5519 981.594,-64.8526 982.163,-57.8757"/>
</g>
<!-- enemyRadar[LeftBack]&#45;&gt;Move Left -->
<g id="edge3" class="edge"><title>enemyRadar[LeftBack]&#45;&gt;Move Left</title>
<path fill="none" stroke="green" stroke-width="0.148232" d="M1910.91,-146.276C1888,-132.221 1839.75,-102.622 1804.78,-81.1711"/>
<polygon fill="green" stroke="green" stroke-width="0.148232" points="1806.55,-78.1533 1796.2,-75.9075 1802.89,-84.1201 1806.55,-78.1533"/>
</g>
<!-- enemyRadar[Right45ø] -->
<g id="node11" class="node"><title>enemyRadar[Right45ø]</title>
<polygon fill="lightgray" stroke="black" points="2270,-164.309 2170,-164.309 2170,-146.309 2270,-146.309 2270,-164.309"/>
<text text-anchor="middle" x="2220" y="-153.109" font-family="Times,serif" font-size="9.00">enemyRadar[Right45ø]</text>
</g>
<!-- enemyRadar[Right45ø]&#45;&gt;Move Left -->
<g id="edge11" class="edge"><title>enemyRadar[Right45ø]&#45;&gt;Move Left</title>
<path fill="none" stroke="red" stroke-width="0.258123" d="M2182.68,-146.276C2100.14,-128.509 1902.22,-85.9064 1811.22,-66.3194"/>
<polygon fill="red" stroke="red" stroke-width="0.258123" points="1811.71,-62.8428 1801.19,-64.16 1810.23,-69.6861 1811.71,-62.8428"/>
</g>
<!-- enemyRadar[Left45ø] -->
<g id="node12" class="node"><title>enemyRadar[Left45ø]</title>
<polygon fill="lightgray" stroke="black" points="1354.5,-164.309 1259.5,-164.309 1259.5,-146.309 1354.5,-146.309 1354.5,-164.309"/>
<text text-anchor="middle" x="1307" y="-153.109" font-family="Times,serif" font-size="9.00">enemyRadar[Left45ø]</text>
</g>
<!-- enemyRadar[Left45ø]&#45;&gt;Shoot -->
<g id="edge12" class="edge"><title>enemyRadar[Left45ø]&#45;&gt;Shoot</title>
<path fill="none" stroke="red" stroke-width="0.398078" d="M1259.44,-147.455C1256.25,-147.05 1253.08,-146.664 1250,-146.309 1162,-136.15 930.458,-153.29 853,-110.309 843.467,-105.019 835.472,-96.4865 829.148,-87.7439"/>
<polygon fill="red" stroke="red" stroke-width="0.398078" points="832.05,-85.7877 823.6,-79.3962 826.22,-89.6621 832.05,-85.7877"/>
</g>
<!-- enemyRadar[Left45ø]&#45;&gt; Move Backward -->
<g id="edge5" class="edge"><title>enemyRadar[Left45ø]&#45;&gt; Move Backward</title>
<path fill="none" stroke="green" stroke-width="0.164492" d="M1275.08,-146.276C1210.78,-130.091 1064.57,-93.2942 980.212,-72.0633"/>
<polygon fill="green" stroke="green" stroke-width="0.164492" points="981.043,-68.6635 970.491,-69.6169 979.335,-75.4518 981.043,-68.6635"/>
</g>
<!-- enemyRadar[Left45ø]&#45;&gt;Move Left -->
<g id="edge2" class="edge"><title>enemyRadar[Left45ø]&#45;&gt;Move Left</title>
<path fill="none" stroke="green" stroke-width="0.194817" d="M1344.4,-146.276C1427.12,-128.509 1625.48,-85.9064 1716.67,-66.3194"/>
<polygon fill="green" stroke="green" stroke-width="0.194817" points="1717.68,-69.682 1726.73,-64.16 1716.21,-62.8381 1717.68,-69.682"/>
</g>
<!-- enemyRadar[RightFront20ø] -->
<g id="node13" class="node"><title>enemyRadar[RightFront20ø]</title>
<polygon fill="lightgray" stroke="black" points="461.5,-164.309 342.5,-164.309 342.5,-146.309 461.5,-146.309 461.5,-164.309"/>
<text text-anchor="middle" x="402" y="-153.109" font-family="Times,serif" font-size="9.00">enemyRadar[RightFront20ø]</text>
</g>
<!-- enemyRadar[RightFront20ø]&#45;&gt;Shoot -->
<g id="edge25" class="edge"><title>enemyRadar[RightFront20ø]&#45;&gt;Shoot</title>
<path fill="none" stroke="green" stroke-width="0.251258" d="M436.293,-146.25C473.624,-137.464 535.073,-122.967 588,-110.309 654.284,-94.4563 731.536,-75.7228 775.811,-64.9613"/>
<polygon fill="green" stroke="green" stroke-width="0.251258" points="776.911,-68.2959 785.801,-62.5324 775.257,-61.4941 776.911,-68.2959"/>
</g>
<!-- enemyRadar[RightFront20ø]&#45;&gt;Move Forward -->
<g id="edge40" class="edge"><title>enemyRadar[RightFront20ø]&#45;&gt;Move Forward</title>
<path fill="none" stroke="red" stroke-width="0.181562" d="M412.393,-146.276C427.467,-134.626 456.36,-112.295 481.613,-92.7783"/>
<polygon fill="red" stroke="red" stroke-width="0.181562" points="483.89,-95.4422 489.662,-86.5576 479.609,-89.9035 483.89,-95.4422"/>
</g>
<!-- enemyRadar[RightFront20ø]&#45;&gt; Move Backward -->
<g id="edge42" class="edge"><title>enemyRadar[RightFront20ø]&#45;&gt; Move Backward</title>
<path fill="none" stroke="red" stroke-width="0.148462" d="M461.831,-147.297C464.931,-146.957 468.002,-146.626 471,-146.309 638.385,-128.615 691.709,-172.791 848,-110.309 855.158,-107.447 862.184,-103.599 868.849,-99.2674"/>
<polygon fill="red" stroke="red" stroke-width="0.148462" points="870.858,-102.133 877.082,-93.5593 866.87,-96.3808 870.858,-102.133"/>
</g>
<!-- enemyRadar[LeftFront20ø] -->
<g id="node14" class="node"><title>enemyRadar[LeftFront20ø]</title>
<polygon fill="lightgray" stroke="black" points="1765,-164.309 1651,-164.309 1651,-146.309 1765,-146.309 1765,-164.309"/>
<text text-anchor="middle" x="1708" y="-153.109" font-family="Times,serif" font-size="9.00">enemyRadar[LeftFront20ø]</text>
</g>
<!-- enemyRadar[LeftFront20ø]&#45;&gt;Shoot -->
<g id="edge4" class="edge"><title>enemyRadar[LeftFront20ø]&#45;&gt;Shoot</title>
<path fill="none" stroke="red" stroke-width="0.334468" d="M1650.79,-147.108C1647.82,-146.817 1644.88,-146.548 1642,-146.309 1554.55,-139.024 930.671,-151.159 853,-110.309 843.351,-105.234 835.324,-96.7613 829.005,-88.0072"/>
<polygon fill="red" stroke="red" stroke-width="0.334468" points="831.905,-86.0463 823.474,-79.6295 826.063,-89.9031 831.905,-86.0463"/>
</g>
<!-- enemyRadar[LeftFront20ø]&#45;&gt;Move Left -->
<g id="edge24" class="edge"><title>enemyRadar[LeftFront20ø]&#45;&gt;Move Left</title>
<path fill="none" stroke="red" stroke-width="0.29646" d="M1712.58,-146.276C1718.69,-135.574 1729.94,-115.86 1740.36,-97.5925"/>
<polygon fill="red" stroke="red" stroke-width="0.29646" points="1743.47,-99.2074 1745.38,-88.7872 1737.39,-95.7385 1743.47,-99.2074"/>
</g>
<!-- enemyRadar[RightFront15ø] -->
<g id="node15" class="node"><title>enemyRadar[RightFront15ø]</title>
<polygon fill="lightgray" stroke="black" points="1632.5,-164.309 1513.5,-164.309 1513.5,-146.309 1632.5,-146.309 1632.5,-164.309"/>
<text text-anchor="middle" x="1573" y="-153.109" font-family="Times,serif" font-size="9.00">enemyRadar[RightFront15ø]</text>
</g>
<!-- enemyRadar[RightFront15ø]&#45;&gt;Shoot -->
<g id="edge45" class="edge"><title>enemyRadar[RightFront15ø]&#45;&gt;Shoot</title>
<path fill="none" stroke="green" stroke-width="0.302487" d="M1513.18,-147.15C1510.08,-146.849 1507,-146.566 1504,-146.309 1431.82,-140.134 916.953,-144.339 853,-110.309 843.375,-105.187 835.355,-96.7019 829.036,-87.9502"/>
<polygon fill="green" stroke="green" stroke-width="0.302487" points="831.936,-85.9905 823.501,-79.579 826.096,-89.851 831.936,-85.9905"/>
</g>
<!-- enemyRadar[RightFront15ø]&#45;&gt; Move Backward -->
<g id="edge35" class="edge"><title>enemyRadar[RightFront15ø]&#45;&gt; Move Backward</title>
<path fill="none" stroke="green" stroke-width="0.207027" d="M1519.32,-146.276C1399.55,-128.356 1110.91,-85.1678 981.575,-65.8164"/>
<polygon fill="green" stroke="green" stroke-width="0.207027" points="981.833,-62.3161 971.425,-64.2977 980.797,-69.239 981.833,-62.3161"/>
</g>
<!-- enemyRadar[RightFront15ø]&#45;&gt;Move Left -->
<g id="edge39" class="edge"><title>enemyRadar[RightFront15ø]&#45;&gt;Move Left</title>
<path fill="none" stroke="green" stroke-width="0.169508" d="M1588.63,-146.276C1617.35,-131.517 1679.42,-99.6202 1721.46,-78.0148"/>
<polygon fill="green" stroke="green" stroke-width="0.169508" points="1723.08,-81.1197 1730.37,-73.4359 1719.88,-74.8937 1723.08,-81.1197"/>
</g>
<!-- enemyRadar[LeftFront15ø] -->
<g id="node16" class="node"><title>enemyRadar[LeftFront15ø]</title>
<polygon fill="lightgray" stroke="black" points="1101,-164.309 987,-164.309 987,-146.309 1101,-146.309 1101,-164.309"/>
<text text-anchor="middle" x="1044" y="-153.109" font-family="Times,serif" font-size="9.00">enemyRadar[LeftFront15ø]</text>
</g>
<!-- enemyRadar[LeftFront15ø]&#45;&gt;Shoot -->
<g id="edge15" class="edge"><title>enemyRadar[LeftFront15ø]&#45;&gt;Shoot</title>
<path fill="none" stroke="green" stroke-width="0.303335" d="M990.92,-146.248C942.606,-138.171 875.494,-124.873 853,-110.309 844.091,-104.54 836.379,-96.1348 830.123,-87.659"/>
<polygon fill="green" stroke="green" stroke-width="0.303335" points="832.903,-85.5242 824.362,-79.2549 827.129,-89.482 832.903,-85.5242"/>
</g>
<!-- enemyRadar[LeftFront15ø]&#45;&gt;Move Forward -->
<g id="edge7" class="edge"><title>enemyRadar[LeftFront15ø]&#45;&gt;Move Forward</title>
<path fill="none" stroke="green" stroke-width="0.214599" d="M989.952,-146.298C935.719,-138.057 849.862,-124.459 776,-110.309 711.46,-97.9445 637.948,-81.5244 588.021,-70.0187"/>
<polygon fill="green" stroke="green" stroke-width="0.214599" points="588.58,-66.5557 578.049,-67.7136 587.004,-73.3759 588.58,-66.5557"/>
</g>
<!-- enemyRadar[LeftFront15ø]&#45;&gt; Move Backward -->
<g id="edge41" class="edge"><title>enemyRadar[LeftFront15ø]&#45;&gt; Move Backward</title>
<path fill="none" stroke="green" stroke-width="0.173694" d="M1033.61,-146.276C1019.34,-135.252 992.706,-114.665 968.489,-95.9483"/>
<polygon fill="green" stroke="green" stroke-width="0.173694" points="970.442,-93.0349 960.39,-89.689 966.162,-98.5735 970.442,-93.0349"/>
</g>
<!-- enemyRadar[LeftFront15ø]&#45;&gt;Move Left -->
<g id="edge16" class="edge"><title>enemyRadar[LeftFront15ø]&#45;&gt;Move Left</title>
<path fill="none" stroke="green" stroke-width="0.116538" d="M1101.1,-146.525C1238.92,-127.737 1587.82,-80.1715 1715.9,-62.7117"/>
<polygon fill="green" stroke="green" stroke-width="0.116538" points="1716.73,-66.1306 1726.17,-61.3119 1715.79,-59.1948 1716.73,-66.1306"/>
</g>
<!-- enemyRadar[RightFront7.5ø] -->
<g id="node17" class="node"><title>enemyRadar[RightFront7.5ø]</title>
<polygon fill="lightgray" stroke="black" points="1495,-164.309 1373,-164.309 1373,-146.309 1495,-146.309 1495,-164.309"/>
<text text-anchor="middle" x="1434" y="-153.109" font-family="Times,serif" font-size="9.00">enemyRadar[RightFront7.5ø]</text>
</g>
<!-- enemyRadar[RightFront7.5ø]&#45;&gt; Move Backward -->
<g id="edge36" class="edge"><title>enemyRadar[RightFront7.5ø]&#45;&gt; Move Backward</title>
<path fill="none" stroke="red" stroke-width="0.362541" d="M1391.69,-146.276C1301.28,-129.111 1088.76,-88.7629 981.428,-68.3862"/>
<polygon fill="red" stroke="red" stroke-width="0.362541" points="981.855,-64.9048 971.378,-66.4781 980.549,-71.782 981.855,-64.9048"/>
</g>
<!-- enemyRadar[LeftFront7.5ø] -->
<g id="node18" class="node"><title>enemyRadar[LeftFront7.5ø]</title>
<polygon fill="lightgray" stroke="black" points="2404,-164.309 2288,-164.309 2288,-146.309 2404,-146.309 2404,-164.309"/>
<text text-anchor="middle" x="2346" y="-153.109" font-family="Times,serif" font-size="9.00">enemyRadar[LeftFront7.5ø]</text>
</g>
<!-- enemyRadar[LeftFront7.5ø]&#45;&gt;Move Left -->
<g id="edge26" class="edge"><title>enemyRadar[LeftFront7.5ø]&#45;&gt;Move Left</title>
<path fill="none" stroke="green" stroke-width="0.176364" d="M2298.37,-146.276C2189.1,-127.847 1921.37,-82.6944 1811.86,-64.2266"/>
<polygon fill="green" stroke="green" stroke-width="0.176364" points="1812.21,-60.7363 1801.77,-62.5245 1811.05,-67.6388 1812.21,-60.7363"/>
</g>
<!-- enemyRadar[RightFront2.5ø] -->
<g id="node19" class="node"><title>enemyRadar[RightFront2.5ø]</title>
<polygon fill="lightgray" stroke="black" points="1241,-164.309 1119,-164.309 1119,-146.309 1241,-146.309 1241,-164.309"/>
<text text-anchor="middle" x="1180" y="-153.109" font-family="Times,serif" font-size="9.00">enemyRadar[RightFront2.5ø]</text>
</g>
<!-- enemyRadar[RightFront2.5ø]&#45;&gt;Move Forward -->
<g id="edge6" class="edge"><title>enemyRadar[RightFront2.5ø]&#45;&gt;Move Forward</title>
<path fill="none" stroke="red" stroke-width="0.296313" d="M1118.92,-147.305C1115.9,-146.966 1112.92,-146.633 1110,-146.309 961.608,-129.832 923.359,-134.332 776,-110.309 710.94,-99.7024 637.225,-82.9073 587.39,-70.8323"/>
<polygon fill="red" stroke="red" stroke-width="0.296313" points="587.986,-67.375 577.441,-68.4074 586.328,-74.1759 587.986,-67.375"/>
</g>
<!-- enemyRadar[RightFront2.5ø]&#45;&gt;Move Left -->
<g id="edge10" class="edge"><title>enemyRadar[RightFront2.5ø]&#45;&gt;Move Left</title>
<path fill="none" stroke="red" stroke-width="0.312381" d="M1227.79,-146.276C1337.57,-127.825 1606.74,-82.5857 1716.37,-64.16"/>
<polygon fill="red" stroke="red" stroke-width="0.312381" points="1717.19,-67.5716 1726.47,-62.4624 1716.03,-60.6684 1717.19,-67.5716"/>
</g>
<!-- enemyRadar[LeftFront2.5ø] -->
<g id="node20" class="node"><title>enemyRadar[LeftFront2.5ø]</title>
<polygon fill="lightgray" stroke="black" points="116,-164.309 7.10543e-15,-164.309 7.10543e-15,-146.309 116,-146.309 116,-164.309"/>
<text text-anchor="middle" x="58" y="-153.109" font-family="Times,serif" font-size="9.00">enemyRadar[LeftFront2.5ø]</text>
</g>
<!-- enemyRadar[LeftFront2.5ø]&#45;&gt;Move Forward -->
<g id="edge8" class="edge"><title>enemyRadar[LeftFront2.5ø]&#45;&gt;Move Forward</title>
<path fill="none" stroke="green" stroke-width="0.291798" d="M96.5439,-146.276C178.769,-129.141 371.854,-88.9029 469.794,-68.4925"/>
<polygon fill="green" stroke="green" stroke-width="0.291798" points="470.75,-71.8686 479.826,-66.402 469.322,-65.0158 470.75,-71.8686"/>
</g>
<!-- OnTarget -->
<g id="node21" class="node"><title>OnTarget</title>
<polygon fill="lightgray" stroke="black" points="759,-164.309 709,-164.309 709,-146.309 759,-146.309 759,-164.309"/>
<text text-anchor="middle" x="734" y="-153.109" font-family="Times,serif" font-size="9.00">OnTarget</text>
</g>
<!-- OnTarget&#45;&gt;Shoot -->
<g id="edge28" class="edge"><title>OnTarget&#45;&gt;Shoot</title>
<path fill="none" stroke="red" stroke-width="0.457274" d="M740.383,-146.276C750.919,-133.019 772.444,-105.931 789.159,-84.8976"/>
<polygon fill="red" stroke="red" stroke-width="0.457274" points="792.042,-86.8944 795.524,-76.8879 786.562,-82.5394 792.042,-86.8944"/>
</g>
<!-- OnTarget&#45;&gt;Move Forward -->
<g id="edge23" class="edge"><title>OnTarget&#45;&gt;Move Forward</title>
<path fill="none" stroke="green" stroke-width="0.161022" d="M717.224,-146.276C688.299,-132.427 627.855,-103.486 583.23,-82.1196"/>
<polygon fill="green" stroke="green" stroke-width="0.161022" points="584.495,-78.8451 573.964,-77.6833 581.472,-85.1587 584.495,-78.8451"/>
</g>
<!-- OnTarget&#45;&gt; Move Backward -->
<g id="edge9" class="edge"><title>OnTarget&#45;&gt; Move Backward</title>
<path fill="none" stroke="red" stroke-width="0.680244" d="M759.425,-146.899C783.19,-139.425 819.229,-126.663 848,-110.309 854.462,-106.635 860.969,-102.394 867.267,-97.9347"/>
<polygon fill="red" stroke="red" stroke-width="0.680244" points="869.707,-100.486 875.704,-91.7517 865.57,-94.8397 869.707,-100.486"/>
</g>
<!-- OnTarget&#45;&gt;Move Left -->
<g id="edge27" class="edge"><title>OnTarget&#45;&gt;Move Left</title>
<path fill="none" stroke="red" stroke-width="0.130884" d="M759.172,-147.969C762.136,-147.347 765.127,-146.774 768,-146.309 1129.16,-87.7729 1570.61,-64.5182 1715.45,-58.1237"/>
<polygon fill="red" stroke="red" stroke-width="0.130884" points="1715.93,-61.6065 1725.76,-57.675 1715.62,-54.6132 1715.93,-61.6065"/>
</g>
<!-- TakingDmg -->
<g id="node22" class="node"><title>TakingDmg</title>
<polygon fill="lightgray" stroke="black" points="2050.5,-164.309 1991.5,-164.309 1991.5,-146.309 2050.5,-146.309 2050.5,-164.309"/>
<text text-anchor="middle" x="2021" y="-153.109" font-family="Times,serif" font-size="9.00">TakingDmg</text>
</g>
<!-- TakingDmg&#45;&gt; Move Backward -->
<g id="edge32" class="edge"><title>TakingDmg&#45;&gt; Move Backward</title>
<path fill="none" stroke="red" stroke-width="0.231657" d="M1991.19,-147.671C1988.43,-147.166 1985.67,-146.701 1983,-146.309 1606.38,-90.9529 1149.52,-66.4468 982.315,-58.8752"/>
<polygon fill="red" stroke="red" stroke-width="0.231657" points="982.344,-55.3731 972.197,-58.4218 982.03,-62.3661 982.344,-55.3731"/>
</g>
<!-- TakingDmg&#45;&gt;Move Left -->
<g id="edge22" class="edge"><title>TakingDmg&#45;&gt;Move Left</title>
<path fill="none" stroke="green" stroke-width="0.380608" d="M1999.97,-146.276C1958.46,-130.425 1865.2,-94.8032 1809.15,-73.3964"/>
<polygon fill="green" stroke="green" stroke-width="0.380608" points="1810.06,-69.9999 1799.47,-69.7016 1807.56,-76.5392 1810.06,-69.9999"/>
</g>
<!-- bias -->
<g id="node23" class="node"><title>bias</title>
<polygon fill="lightgray" stroke="black" points="510.5,-164.309 479.5,-164.309 479.5,-146.309 510.5,-146.309 510.5,-164.309"/>
<text text-anchor="middle" x="495" y="-153.109" font-family="Times,serif" font-size="9.00">bias</text>
</g>
<!-- bias&#45;&gt;Shoot -->
<g id="edge48" class="edge"><title>bias&#45;&gt;Shoot</title>
<path fill="none" stroke="red" stroke-width="0.170917" d="M510.595,-149.291C513.709,-148.297 516.957,-147.265 520,-146.309 612.675,-117.175 722.16,-83.5957 776.998,-66.8345"/>
<polygon fill="red" stroke="red" stroke-width="0.170917" points="778.044,-70.1747 786.585,-63.9054 775.999,-63.4802 778.044,-70.1747"/>
</g>
<!-- bias&#45;&gt;Move Forward -->
<g id="edge37" class="edge"><title>bias&#45;&gt;Move Forward</title>
<path fill="none" stroke="green" stroke-width="0.386804" d="M497.782,-146.276C500.488,-138.466 504.856,-125.855 509.479,-112.51"/>
<polygon fill="green" stroke="green" stroke-width="0.386804" points="512.904,-113.316 512.87,-102.721 506.289,-111.024 512.904,-113.316"/>
</g>
<!-- bias&#45;&gt; Move Backward -->
<g id="edge29" class="edge"><title>bias&#45;&gt; Move Backward</title>
<path fill="none" stroke="red" stroke-width="0.101747" d="M510.741,-148.745C513.784,-147.82 516.969,-146.953 520,-146.309 663.446,-115.808 712.213,-165.708 848,-110.309 855.138,-107.396 862.151,-103.518 868.81,-99.17"/>
<polygon fill="red" stroke="red" stroke-width="0.101747" points="870.826,-102.031 877.037,-93.4481 866.829,-96.2844 870.826,-102.031"/>
</g>
</g>
</svg>
