<?xml version="1.0" encoding="UTF-8" standalone="no"?>
<!DOCTYPE svg PUBLIC "-//W3C//DTD SVG 1.1//EN"
 "http://www.w3.org/Graphics/SVG/1.1/DTD/svg11.dtd">
<!-- Generated by graphviz version 2.38.0 (20140413.2041)
 -->
<!-- Title: %3 Pages: 1 -->
<svg width="2416pt" height="295pt"
 viewBox="0.00 0.00 2415.96 294.58" xmlns="http://www.w3.org/2000/svg" xmlns:xlink="http://www.w3.org/1999/xlink">
<g id="graph0" class="graph" transform="scale(1 1) rotate(0) translate(4 290.576)">
<title>%3</title>
<polygon fill="white" stroke="none" points="-4,4 -4,-290.576 2411.96,-290.576 2411.96,4 -4,4"/>
<!-- wallRadar[1,0] -->
<g id="node1" class="node"><title>wallRadar[1,0]</title>
<polygon fill="lightgray" stroke="black" points="546.463,-220.362 476.463,-220.362 476.463,-202.362 546.463,-202.362 546.463,-220.362"/>
<text text-anchor="middle" x="511.463" y="-209.162" font-family="Times,serif" font-size="9.00">wallRadar[1,0]</text>
</g>
<!-- Shoot -->
<g id="node24" class="node"><title>Shoot</title>
<ellipse fill="lightblue" stroke="black" cx="622.463" cy="-77.0746" rx="26.7407" ry="26.7407"/>
<text text-anchor="middle" x="622.463" y="-74.8746" font-family="Times,serif" font-size="9.00">Shoot</text>
</g>
<!-- wallRadar[1,0]&#45;&gt;Shoot -->
<g id="edge51" class="edge"><title>wallRadar[1,0]&#45;&gt;Shoot</title>
<path fill="none" stroke="green" stroke-width="0.170991" stroke-dasharray="1,5" d="M518.406,-202.087C534.178,-183.291 573.31,-136.654 598.836,-106.233"/>
<polygon fill="green" stroke="green" stroke-width="0.170991" points="601.58,-108.408 605.326,-98.4976 596.217,-103.908 601.58,-108.408"/>
</g>
<!-- Move Forward/Backward -->
<g id="node25" class="node"><title>Move Forward/Backward</title>
<ellipse fill="lightblue" stroke="black" cx="1410.46" cy="-77.0746" rx="77.1494" ry="77.1494"/>
<text text-anchor="middle" x="1410.46" y="-74.8746" font-family="Times,serif" font-size="9.00">Move Forward/Backward</text>
</g>
<!-- wallRadar[1,0]&#45;&gt;Move Forward/Backward -->
<g id="edge1" class="edge"><title>wallRadar[1,0]&#45;&gt;Move Forward/Backward</title>
<path fill="none" stroke="green" stroke-width="0.165143" stroke-dasharray="1,5" d="M525.652,-202.285C534.048,-197.908 545.048,-192.855 555.463,-190.149 754.8,-138.357 813.367,-181.764 1017.46,-154.149 1124.45,-139.673 1246.32,-114.75 1325.61,-97.3915"/>
<polygon fill="green" stroke="green" stroke-width="0.165143" points="1326.53,-100.773 1335.54,-95.2071 1325.02,-93.9363 1326.53,-100.773"/>
</g>
<!-- wallRadar[0,1] -->
<g id="node2" class="node"><title>wallRadar[0,1]</title>
<polygon fill="lightgray" stroke="black" points="88.4629,-220.362 18.4629,-220.362 18.4629,-202.362 88.4629,-202.362 88.4629,-220.362"/>
<text text-anchor="middle" x="53.4629" y="-209.162" font-family="Times,serif" font-size="9.00">wallRadar[0,1]</text>
</g>
<!-- wallRadar[0,1]&#45;&gt;Shoot -->
<g id="edge29" class="edge"><title>wallRadar[0,1]&#45;&gt;Shoot</title>
<path fill="none" stroke="red" stroke-width="0.703759" d="M69.008,-202.201C77.2801,-198.122 87.7293,-193.38 97.4629,-190.149 275.992,-130.892 499.345,-95.4086 585.873,-83.0454"/>
<polygon fill="red" stroke="red" stroke-width="0.703759" points="586.561,-86.4832 595.973,-81.6191 585.582,-79.5519 586.561,-86.4832"/>
</g>
<!-- Turn left/right -->
<g id="node27" class="node"><title>Turn left/right</title>
<ellipse fill="lightblue" stroke="black" cx="961.463" cy="-77.0746" rx="46.8387" ry="46.8387"/>
<text text-anchor="middle" x="961.463" y="-74.8746" font-family="Times,serif" font-size="9.00">Turn left/right</text>
</g>
<!-- wallRadar[0,1]&#45;&gt;Turn left/right -->
<g id="edge27" class="edge"><title>wallRadar[0,1]&#45;&gt;Turn left/right</title>
<path fill="none" stroke="red" stroke-width="0.540146" d="M67.6384,-202.232C76.0302,-197.837 87.0302,-192.784 97.4629,-190.149 339.704,-128.976 411.613,-192.729 658.463,-154.149 746.913,-140.325 847.269,-112.702 907.406,-94.8204"/>
<polygon fill="red" stroke="red" stroke-width="0.540146" points="908.49,-98.1494 917.067,-91.9287 906.483,-91.4434 908.49,-98.1494"/>
</g>
<!-- wallRadar[&#45;1,0] -->
<g id="node3" class="node"><title>wallRadar[&#45;1,0]</title>
<polygon fill="lightgray" stroke="black" points="1776.96,-220.362 1703.96,-220.362 1703.96,-202.362 1776.96,-202.362 1776.96,-220.362"/>
<text text-anchor="middle" x="1740.46" y="-209.162" font-family="Times,serif" font-size="9.00">wallRadar[&#45;1,0]</text>
</g>
<!-- wallRadar[&#45;1,0]&#45;&gt;Move Forward/Backward -->
<g id="edge31" class="edge"><title>wallRadar[&#45;1,0]&#45;&gt;Move Forward/Backward</title>
<path fill="none" stroke="red" stroke-width="0.177382" d="M1724.63,-202.307C1715.92,-198.155 1704.81,-193.314 1694.46,-190.149 1608.93,-163.979 1576.92,-193.218 1496.46,-154.149 1488.04,-150.057 1479.8,-144.903 1471.98,-139.215"/>
<polygon fill="red" stroke="red" stroke-width="0.177382" points="1473.73,-136.149 1463.66,-132.859 1469.48,-141.711 1473.73,-136.149"/>
</g>
<!--  Move Left/Right -->
<g id="node26" class="node"><title> Move Left/Right</title>
<ellipse fill="lightblue" stroke="black" cx="1560.46" cy="-77.0746" rx="55.3091" ry="55.3091"/>
<text text-anchor="middle" x="1560.46" y="-74.8746" font-family="Times,serif" font-size="9.00"> Move Left/Right</text>
</g>
<!-- wallRadar[&#45;1,0]&#45;&gt; Move Left/Right -->
<g id="edge44" class="edge"><title>wallRadar[&#45;1,0]&#45;&gt; Move Left/Right</title>
<path fill="none" stroke="green" stroke-width="0.529893" d="M1729.47,-202.286C1706.84,-185.65 1653.72,-146.612 1613.03,-116.705"/>
<polygon fill="green" stroke="green" stroke-width="0.529893" points="1614.94,-113.766 1604.81,-110.664 1610.79,-119.407 1614.94,-113.766"/>
</g>
<!-- wallRadar[&#45;1,0]&#45;&gt;Turn left/right -->
<g id="edge41" class="edge"><title>wallRadar[&#45;1,0]&#45;&gt;Turn left/right</title>
<path fill="none" stroke="red" stroke-width="0.30857" stroke-dasharray="1,5" d="M1725.15,-202.168C1716.41,-197.867 1705.1,-192.927 1694.46,-190.149 1534.61,-148.392 1487.78,-179.132 1324.46,-154.149 1214.51,-137.33 1087.65,-108.568 1016.77,-91.6403"/>
<polygon fill="red" stroke="red" stroke-width="0.30857" points="1017.27,-88.1606 1006.73,-89.2315 1015.64,-94.9675 1017.27,-88.1606"/>
</g>
<!-- wallRadar[0,&#45;1] -->
<g id="node4" class="node"><title>wallRadar[0,&#45;1]</title>
<polygon fill="lightgray" stroke="black" points="179.963,-220.362 106.963,-220.362 106.963,-202.362 179.963,-202.362 179.963,-220.362"/>
<text text-anchor="middle" x="143.463" y="-209.162" font-family="Times,serif" font-size="9.00">wallRadar[0,&#45;1]</text>
</g>
<!-- wallRadar[0,&#45;1]&#45;&gt;Shoot -->
<g id="edge38" class="edge"><title>wallRadar[0,&#45;1]&#45;&gt;Shoot</title>
<path fill="none" stroke="red" stroke-width="0.137771" stroke-dasharray="1,5" d="M162.155,-202.324C171.717,-198.373 183.602,-193.709 194.463,-190.149 337.371,-143.31 512.036,-102.561 586.29,-85.984"/>
<polygon fill="red" stroke="red" stroke-width="0.137771" points="587.084,-89.3929 596.087,-83.8072 585.566,-82.5595 587.084,-89.3929"/>
</g>
<!-- wallRadar[0,&#45;1]&#45;&gt;Turn left/right -->
<g id="edge13" class="edge"><title>wallRadar[0,&#45;1]&#45;&gt;Turn left/right</title>
<path fill="none" stroke="green" stroke-width="0.257566" stroke-dasharray="1,5" d="M160.055,-202.317C169.836,-197.951 182.586,-192.898 194.463,-190.149 395.98,-143.52 454.319,-187.452 658.463,-154.149 746.819,-139.735 847.202,-112.282 907.371,-94.5971"/>
<polygon fill="green" stroke="green" stroke-width="0.257566" points="908.44,-97.9308 917.036,-91.7382 906.454,-91.2182 908.44,-97.9308"/>
</g>
<!-- wallRadar[0.7,0.7] -->
<g id="node5" class="node"><title>wallRadar[0.7,0.7]</title>
<polygon fill="lightgray" stroke="black" points="1473.96,-220.362 1390.96,-220.362 1390.96,-202.362 1473.96,-202.362 1473.96,-220.362"/>
<text text-anchor="middle" x="1432.46" y="-209.162" font-family="Times,serif" font-size="9.00">wallRadar[0.7,0.7]</text>
</g>
<!-- wallRadar[0.7,0.7]&#45;&gt;Shoot -->
<g id="edge6" class="edge"><title>wallRadar[0.7,0.7]&#45;&gt;Shoot</title>
<path fill="none" stroke="red" stroke-width="0.49278" stroke-dasharray="1,5" d="M1415.87,-202.308C1406.09,-197.939 1393.34,-192.886 1381.46,-190.149 1174.72,-142.522 1114.6,-189.844 905.463,-154.149 814.532,-138.63 710.445,-106.932 657.451,-89.7586"/>
<polygon fill="red" stroke="red" stroke-width="0.49278" points="658.451,-86.4034 647.859,-86.6273 656.279,-93.0578 658.451,-86.4034"/>
</g>
<!-- wallRadar[0.7,0.7]&#45;&gt;Move Forward/Backward -->
<g id="edge48" class="edge"><title>wallRadar[0.7,0.7]&#45;&gt;Move Forward/Backward</title>
<path fill="none" stroke="red" stroke-width="0.318743" d="M1431.09,-202.087C1429.67,-193.562 1427.3,-179.31 1424.66,-163.441"/>
<polygon fill="red" stroke="red" stroke-width="0.318743" points="1428.08,-162.678 1422.99,-153.388 1421.18,-163.826 1428.08,-162.678"/>
</g>
<!-- wallRadar[0.7,0.7]&#45;&gt; Move Left/Right -->
<g id="edge4" class="edge"><title>wallRadar[0.7,0.7]&#45;&gt; Move Left/Right</title>
<path fill="none" stroke="green" stroke-width="0.318744" d="M1442.87,-202.049C1455.9,-191.453 1478.67,-172.326 1496.46,-154.149 1504.31,-146.136 1512.29,-137.291 1519.84,-128.551"/>
<polygon fill="green" stroke="green" stroke-width="0.318744" points="1522.52,-130.802 1526.35,-120.922 1517.2,-126.259 1522.52,-130.802"/>
</g>
<!-- wallRadar[&#45;0.7,0.7] -->
<g id="node6" class="node"><title>wallRadar[&#45;0.7,0.7]</title>
<polygon fill="lightgray" stroke="black" points="1304.46,-220.362 1218.46,-220.362 1218.46,-202.362 1304.46,-202.362 1304.46,-220.362"/>
<text text-anchor="middle" x="1261.46" y="-209.162" font-family="Times,serif" font-size="9.00">wallRadar[&#45;0.7,0.7]</text>
</g>
<!-- wallRadar[&#45;0.7,0.7]&#45;&gt;Move Forward/Backward -->
<g id="edge3" class="edge"><title>wallRadar[&#45;0.7,0.7]&#45;&gt;Move Forward/Backward</title>
<path fill="none" stroke="red" stroke-width="0.616109" d="M1270.78,-202.087C1285.81,-188.743 1316.65,-161.366 1345.53,-135.722"/>
<polygon fill="red" stroke="red" stroke-width="0.616109" points="1348.06,-138.156 1353.22,-128.9 1343.42,-132.922 1348.06,-138.156"/>
</g>
<!-- wallRadar[&#45;0.7,0.7]&#45;&gt;Turn left/right -->
<g id="edge2" class="edge"><title>wallRadar[&#45;0.7,0.7]&#45;&gt;Turn left/right</title>
<path fill="none" stroke="green" stroke-width="0.231315" d="M1243.15,-202.286C1198.25,-182.49 1081.42,-130.973 1013.15,-100.867"/>
<polygon fill="green" stroke="green" stroke-width="0.231315" points="1014.42,-97.5994 1003.85,-96.7671 1011.59,-104.004 1014.42,-97.5994"/>
</g>
<!-- wallRadar[&#45;0.7,&#45;0.7] -->
<g id="node7" class="node"><title>wallRadar[&#45;0.7,&#45;0.7]</title>
<polygon fill="lightgray" stroke="black" points="1033.96,-286.576 944.963,-286.576 944.963,-268.576 1033.96,-268.576 1033.96,-286.576"/>
<text text-anchor="middle" x="989.463" y="-275.376" font-family="Times,serif" font-size="9.00">wallRadar[&#45;0.7,&#45;0.7]</text>
</g>
<!-- wallRadar[0.7,&#45;0.7] -->
<g id="node8" class="node"><title>wallRadar[0.7,&#45;0.7]</title>
<polygon fill="lightgray" stroke="black" points="2270.46,-220.362 2184.46,-220.362 2184.46,-202.362 2270.46,-202.362 2270.46,-220.362"/>
<text text-anchor="middle" x="2227.46" y="-209.162" font-family="Times,serif" font-size="9.00">wallRadar[0.7,&#45;0.7]</text>
</g>
<!-- wallRadar[0.7,&#45;0.7]&#45;&gt; Move Left/Right -->
<g id="edge18" class="edge"><title>wallRadar[0.7,&#45;0.7]&#45;&gt; Move Left/Right</title>
<path fill="none" stroke="red" stroke-width="0.223455" stroke-dasharray="1,5" d="M2208.98,-202.188C2199.18,-198.105 2186.83,-193.364 2175.46,-190.149 1978.74,-134.537 1738.54,-100.085 1625.36,-85.7637"/>
<polygon fill="red" stroke="red" stroke-width="0.223455" points="1625.5,-82.2533 1615.14,-84.4813 1624.62,-89.1988 1625.5,-82.2533"/>
</g>
<!-- enemyRadar[RightBack] -->
<g id="node9" class="node"><title>enemyRadar[RightBack]</title>
<polygon fill="lightgray" stroke="black" points="458.463,-220.362 354.463,-220.362 354.463,-202.362 458.463,-202.362 458.463,-220.362"/>
<text text-anchor="middle" x="406.463" y="-209.162" font-family="Times,serif" font-size="9.00">enemyRadar[RightBack]</text>
</g>
<!-- enemyRadar[RightBack]&#45;&gt;Shoot -->
<g id="edge42" class="edge"><title>enemyRadar[RightBack]&#45;&gt;Shoot</title>
<path fill="none" stroke="green" stroke-width="0.207123" d="M419.649,-202.286C453.295,-181.681 543.054,-126.708 591.093,-97.2867"/>
<polygon fill="green" stroke="green" stroke-width="0.207123" points="593.136,-100.14 599.836,-91.9326 589.48,-94.1707 593.136,-100.14"/>
</g>
<!-- enemyRadar[RightBack]&#45;&gt;Move Forward/Backward -->
<g id="edge20" class="edge"><title>enemyRadar[RightBack]&#45;&gt;Move Forward/Backward</title>
<path fill="none" stroke="green" stroke-width="0.289069" d="M426.451,-202.307C438.197,-197.937 453.447,-192.884 467.463,-190.149 707.898,-143.243 774.508,-185.489 1017.46,-154.149 1124.54,-140.337 1246.39,-115.272 1325.65,-97.6993"/>
<polygon fill="green" stroke="green" stroke-width="0.289069" points="1326.58,-101.078 1335.58,-95.4871 1325.06,-94.2451 1326.58,-101.078"/>
</g>
<!-- enemyRadar[LeftBack] -->
<g id="node10" class="node"><title>enemyRadar[LeftBack]</title>
<polygon fill="lightgray" stroke="black" points="335.963,-220.362 236.963,-220.362 236.963,-202.362 335.963,-202.362 335.963,-220.362"/>
<text text-anchor="middle" x="286.463" y="-209.162" font-family="Times,serif" font-size="9.00">enemyRadar[LeftBack]</text>
</g>
<!-- enemyRadar[LeftBack]&#45;&gt;Shoot -->
<g id="edge39" class="edge"><title>enemyRadar[LeftBack]&#45;&gt;Shoot</title>
<path fill="none" stroke="green" stroke-width="0.15257" d="M306.975,-202.286C362.926,-180.258 518.634,-118.953 588.166,-91.5778"/>
<polygon fill="green" stroke="green" stroke-width="0.15257" points="589.755,-94.7139 597.777,-87.7937 587.19,-88.2005 589.755,-94.7139"/>
</g>
<!-- enemyRadar[LeftBack]&#45;&gt;Move Forward/Backward -->
<g id="edge52" class="edge"><title>enemyRadar[LeftBack]&#45;&gt;Move Forward/Backward</title>
<path fill="none" stroke="green" stroke-width="0.492932" stroke-dasharray="1,5" d="M305.494,-202.34C316.877,-197.924 331.751,-192.812 345.463,-190.149 639.074,-133.136 720.604,-190.657 1017.46,-154.149 1124.62,-140.971 1246.45,-115.771 1325.68,-97.9934"/>
<polygon fill="green" stroke="green" stroke-width="0.492932" points="1326.63,-101.369 1335.61,-95.7546 1325.09,-94.5402 1326.63,-101.369"/>
</g>
<!-- enemyRadar[LeftBack]&#45;&gt;Turn left/right -->
<g id="edge15" class="edge"><title>enemyRadar[LeftBack]&#45;&gt;Turn left/right</title>
<path fill="none" stroke="green" stroke-width="0.476079" d="M306.36,-202.346C317.655,-198.101 332.156,-193.157 345.463,-190.149 482.046,-159.278 520.703,-179.253 658.463,-154.149 746.536,-138.1 847.001,-111.12 907.264,-93.9779"/>
<polygon fill="green" stroke="green" stroke-width="0.476079" points="908.293,-97.324 916.945,-91.2099 906.368,-90.5937 908.293,-97.324"/>
</g>
<!-- enemyRadar[Right45ø] -->
<g id="node11" class="node"><title>enemyRadar[Right45ø]</title>
<polygon fill="lightgray" stroke="black" points="2032.46,-220.362 1932.46,-220.362 1932.46,-202.362 2032.46,-202.362 2032.46,-220.362"/>
<text text-anchor="middle" x="1982.46" y="-209.162" font-family="Times,serif" font-size="9.00">enemyRadar[Right45ø]</text>
</g>
<!-- enemyRadar[Right45ø]&#45;&gt;Move Forward/Backward -->
<g id="edge50" class="edge"><title>enemyRadar[Right45ø]&#45;&gt;Move Forward/Backward</title>
<path fill="none" stroke="red" stroke-width="0.480137" d="M1962.87,-202.291C1951.55,-197.973 1936.92,-192.977 1923.46,-190.149 1737.08,-150.991 1671.57,-229.046 1496.46,-154.149 1487.76,-150.426 1479.32,-145.465 1471.35,-139.854"/>
<polygon fill="red" stroke="red" stroke-width="0.480137" points="1473.34,-136.968 1463.23,-133.796 1469.16,-142.58 1473.34,-136.968"/>
</g>
<!-- enemyRadar[Right45ø]&#45;&gt; Move Left/Right -->
<g id="edge5" class="edge"><title>enemyRadar[Right45ø]&#45;&gt; Move Left/Right</title>
<path fill="none" stroke="red" stroke-width="0.206212" stroke-dasharray="1,5" d="M1959.54,-202.328C1948.64,-198.552 1935.41,-194.038 1923.46,-190.149 1818.49,-155.972 1695.61,-118.577 1623.11,-96.7814"/>
<polygon fill="red" stroke="red" stroke-width="0.206212" points="1623.81,-93.3359 1613.22,-93.8115 1621.79,-100.04 1623.81,-93.3359"/>
</g>
<!-- enemyRadar[Left45ø] -->
<g id="node12" class="node"><title>enemyRadar[Left45ø]</title>
<polygon fill="lightgray" stroke="black" points="1586.96,-220.362 1491.96,-220.362 1491.96,-202.362 1586.96,-202.362 1586.96,-220.362"/>
<text text-anchor="middle" x="1539.46" y="-209.162" font-family="Times,serif" font-size="9.00">enemyRadar[Left45ø]</text>
</g>
<!-- enemyRadar[Left45ø]&#45;&gt;Shoot -->
<g id="edge23" class="edge"><title>enemyRadar[Left45ø]&#45;&gt;Shoot</title>
<path fill="none" stroke="green" stroke-width="0.361592" d="M1521.18,-202.269C1510.42,-197.887 1496.42,-192.833 1483.46,-190.149 1231.43,-137.93 1159.46,-195.767 905.463,-154.149 814.431,-139.234 710.386,-107.285 657.425,-89.9129"/>
<polygon fill="green" stroke="green" stroke-width="0.361592" points="658.433,-86.5596 647.839,-86.7442 656.235,-93.2059 658.433,-86.5596"/>
</g>
<!-- enemyRadar[Left45ø]&#45;&gt;Move Forward/Backward -->
<g id="edge43" class="edge"><title>enemyRadar[Left45ø]&#45;&gt;Move Forward/Backward</title>
<path fill="none" stroke="green" stroke-width="0.522749" d="M1531.39,-202.087C1519.09,-189.474 1494.57,-164.325 1470.8,-139.951"/>
<polygon fill="green" stroke="green" stroke-width="0.522749" points="1473.29,-137.485 1463.8,-132.769 1468.27,-142.372 1473.29,-137.485"/>
</g>
<!-- enemyRadar[Left45ø]&#45;&gt; Move Left/Right -->
<g id="edge12" class="edge"><title>enemyRadar[Left45ø]&#45;&gt; Move Left/Right</title>
<path fill="none" stroke="red" stroke-width="0.554549" d="M1540.78,-202.087C1542.73,-189.813 1546.56,-165.666 1550.33,-141.916"/>
<polygon fill="red" stroke="red" stroke-width="0.554549" points="1553.82,-142.223 1551.93,-131.798 1546.91,-141.125 1553.82,-142.223"/>
</g>
<!-- enemyRadar[RightFront20ø] -->
<g id="node13" class="node"><title>enemyRadar[RightFront20ø]</title>
<polygon fill="lightgray" stroke="black" points="1913.96,-220.362 1794.96,-220.362 1794.96,-202.362 1913.96,-202.362 1913.96,-220.362"/>
<text text-anchor="middle" x="1854.46" y="-209.162" font-family="Times,serif" font-size="9.00">enemyRadar[RightFront20ø]</text>
</g>
<!-- enemyRadar[RightFront20ø]&#45;&gt;Move Forward/Backward -->
<g id="edge35" class="edge"><title>enemyRadar[RightFront20ø]&#45;&gt;Move Forward/Backward</title>
<path fill="none" stroke="green" stroke-width="0.192339" stroke-dasharray="1,5" d="M1830.79,-202.276C1817.83,-198.117 1801.41,-193.276 1786.46,-190.149 1659.34,-163.555 1614.85,-207.567 1496.46,-154.149 1487.83,-150.255 1479.44,-145.187 1471.5,-139.514"/>
<polygon fill="green" stroke="green" stroke-width="0.192339" points="1473.49,-136.632 1463.4,-133.408 1469.28,-142.222 1473.49,-136.632"/>
</g>
<!-- enemyRadar[RightFront20ø]&#45;&gt; Move Left/Right -->
<g id="edge32" class="edge"><title>enemyRadar[RightFront20ø]&#45;&gt; Move Left/Right</title>
<path fill="none" stroke="red" stroke-width="0.531169" stroke-dasharray="1,5" d="M1836.51,-202.286C1794.36,-183.32 1687.51,-135.239 1619.78,-104.765"/>
<polygon fill="red" stroke="red" stroke-width="0.531169" points="1621.05,-101.498 1610.49,-100.587 1618.18,-107.882 1621.05,-101.498"/>
</g>
<!-- enemyRadar[RightFront20ø]&#45;&gt;Turn left/right -->
<g id="edge30" class="edge"><title>enemyRadar[RightFront20ø]&#45;&gt;Turn left/right</title>
<path fill="none" stroke="green" stroke-width="0.57571" d="M1831.78,-202.31C1818.7,-197.998 1801.84,-193.001 1786.46,-190.149 1583.96,-152.599 1528.34,-183.332 1324.46,-154.149 1214.35,-138.388 1087.55,-109.256 1016.72,-91.9758"/>
<polygon fill="green" stroke="green" stroke-width="0.57571" points="1017.23,-88.4976 1006.69,-89.5154 1015.57,-95.2962 1017.23,-88.4976"/>
</g>
<!-- enemyRadar[LeftFront20ø] -->
<g id="node14" class="node"><title>enemyRadar[LeftFront20ø]</title>
<polygon fill="lightgray" stroke="black" points="952.463,-220.362 838.463,-220.362 838.463,-202.362 952.463,-202.362 952.463,-220.362"/>
<text text-anchor="middle" x="895.463" y="-209.162" font-family="Times,serif" font-size="9.00">enemyRadar[LeftFront20ø]</text>
</g>
<!-- enemyRadar[LeftFront20ø]&#45;&gt;Shoot -->
<g id="edge19" class="edge"><title>enemyRadar[LeftFront20ø]&#45;&gt;Shoot</title>
<path fill="none" stroke="red" stroke-width="0.722917" d="M878.796,-202.286C834.713,-180.925 714.408,-122.629 655.648,-94.155"/>
<polygon fill="red" stroke="red" stroke-width="0.722917" points="656.955,-90.8995 646.43,-89.6884 653.903,-97.1989 656.955,-90.8995"/>
</g>
<!-- enemyRadar[LeftFront20ø]&#45;&gt; Move Left/Right -->
<g id="edge45" class="edge"><title>enemyRadar[LeftFront20ø]&#45;&gt; Move Left/Right</title>
<path fill="none" stroke="green" stroke-width="0.683003" stroke-dasharray="1,5" d="M917.149,-202.34C929.878,-197.982 946.378,-192.928 961.463,-190.149 1078.65,-168.56 1390.19,-208.039 1496.46,-154.149 1507.05,-148.783 1516.56,-140.812 1524.82,-132.023"/>
<polygon fill="green" stroke="green" stroke-width="0.683003" points="1527.47,-134.305 1531.45,-124.487 1522.22,-129.679 1527.47,-134.305"/>
</g>
<!-- enemyRadar[LeftFront20ø]&#45;&gt;Turn left/right -->
<g id="edge25" class="edge"><title>enemyRadar[LeftFront20ø]&#45;&gt;Turn left/right</title>
<path fill="none" stroke="red" stroke-width="0.354073" d="M899.591,-202.087C906.894,-187.451 922.617,-155.936 936.385,-128.339"/>
<polygon fill="red" stroke="red" stroke-width="0.354073" points="939.632,-129.672 940.964,-119.161 933.368,-126.547 939.632,-129.672"/>
</g>
<!-- enemyRadar[RightFront15ø] -->
<g id="node15" class="node"><title>enemyRadar[RightFront15ø]</title>
<polygon fill="lightgray" stroke="black" points="2407.96,-220.362 2288.96,-220.362 2288.96,-202.362 2407.96,-202.362 2407.96,-220.362"/>
<text text-anchor="middle" x="2348.46" y="-209.162" font-family="Times,serif" font-size="9.00">enemyRadar[RightFront15ø]</text>
</g>
<!-- enemyRadar[RightFront15ø]&#45;&gt; Move Left/Right -->
<g id="edge14" class="edge"><title>enemyRadar[RightFront15ø]&#45;&gt; Move Left/Right</title>
<path fill="none" stroke="red" stroke-width="0.173959" d="M2323.76,-202.275C2310.69,-198.216 2294.33,-193.47 2279.46,-190.149 2040.88,-136.846 1752.16,-100.089 1625.43,-85.3204"/>
<polygon fill="red" stroke="red" stroke-width="0.173959" points="1625.83,-81.8434 1615.49,-84.169 1625.02,-88.7969 1625.83,-81.8434"/>
</g>
<!-- enemyRadar[LeftFront15ø] -->
<g id="node16" class="node"><title>enemyRadar[LeftFront15ø]</title>
<polygon fill="lightgray" stroke="black" points="1084.46,-220.362 970.463,-220.362 970.463,-202.362 1084.46,-202.362 1084.46,-220.362"/>
<text text-anchor="middle" x="1027.46" y="-209.162" font-family="Times,serif" font-size="9.00">enemyRadar[LeftFront15ø]</text>
</g>
<!-- enemyRadar[LeftFront15ø]&#45;&gt;Shoot -->
<g id="edge28" class="edge"><title>enemyRadar[LeftFront15ø]&#45;&gt;Shoot</title>
<path fill="none" stroke="green" stroke-width="0.645509" d="M1002.74,-202.286C933.565,-179.692 737.893,-115.778 657.554,-89.5368"/>
<polygon fill="green" stroke="green" stroke-width="0.645509" points="658.491,-86.1607 647.898,-86.3827 656.317,-92.8147 658.491,-86.1607"/>
</g>
<!-- enemyRadar[LeftFront15ø]&#45;&gt;Move Forward/Backward -->
<g id="edge9" class="edge"><title>enemyRadar[LeftFront15ø]&#45;&gt;Move Forward/Backward</title>
<path fill="none" stroke="red" stroke-width="0.171754" d="M1050.84,-202.286C1104.75,-183.667 1239.89,-136.99 1328.29,-106.457"/>
<polygon fill="red" stroke="red" stroke-width="0.171754" points="1329.45,-109.759 1337.76,-103.186 1327.17,-103.142 1329.45,-109.759"/>
</g>
<!-- enemyRadar[LeftFront15ø]&#45;&gt; Move Left/Right -->
<g id="edge17" class="edge"><title>enemyRadar[LeftFront15ø]&#45;&gt; Move Left/Right</title>
<path fill="none" stroke="red" stroke-width="0.141796" d="M1049.77,-202.261C1062.42,-197.989 1078.64,-193.048 1093.46,-190.149 1181.7,-172.891 1416.72,-195.688 1496.46,-154.149 1506.99,-148.667 1516.47,-140.643 1524.72,-131.838"/>
<polygon fill="red" stroke="red" stroke-width="0.141796" points="1527.38,-134.116 1531.35,-124.296 1522.12,-129.493 1527.38,-134.116"/>
</g>
<!-- enemyRadar[LeftFront15ø]&#45;&gt;Turn left/right -->
<g id="edge40" class="edge"><title>enemyRadar[LeftFront15ø]&#45;&gt;Turn left/right</title>
<path fill="none" stroke="green" stroke-width="0.438046" stroke-dasharray="1,5" d="M1023.33,-202.087C1016.03,-187.451 1000.31,-155.936 986.541,-128.339"/>
<polygon fill="green" stroke="green" stroke-width="0.438046" points="989.558,-126.547 981.961,-119.161 983.294,-129.672 989.558,-126.547"/>
</g>
<!-- enemyRadar[RightFront7.5ø] -->
<g id="node17" class="node"><title>enemyRadar[RightFront7.5ø]</title>
<polygon fill="lightgray" stroke="black" points="820.463,-220.362 698.463,-220.362 698.463,-202.362 820.463,-202.362 820.463,-220.362"/>
<text text-anchor="middle" x="759.463" y="-209.162" font-family="Times,serif" font-size="9.00">enemyRadar[RightFront7.5ø]</text>
</g>
<!-- enemyRadar[RightFront7.5ø]&#45;&gt;Shoot -->
<g id="edge16" class="edge"><title>enemyRadar[RightFront7.5ø]&#45;&gt;Shoot</title>
<path fill="none" stroke="green" stroke-width="0.395435" d="M750.893,-202.087C730.912,-182.793 680.554,-134.167 649.161,-103.854"/>
<polygon fill="green" stroke="green" stroke-width="0.395435" points="651.243,-100.999 641.618,-96.571 646.381,-106.035 651.243,-100.999"/>
</g>
<!-- enemyRadar[RightFront7.5ø]&#45;&gt; Move Left/Right -->
<g id="edge46" class="edge"><title>enemyRadar[RightFront7.5ø]&#45;&gt; Move Left/Right</title>
<path fill="none" stroke="green" stroke-width="0.181773" d="M782.49,-202.281C795.998,-197.902 813.498,-192.849 829.463,-190.149 975.823,-165.4 1363.63,-220.401 1496.46,-154.149 1507.08,-148.853 1516.61,-140.915 1524.87,-132.136"/>
<polygon fill="green" stroke="green" stroke-width="0.181773" points="1527.53,-134.42 1531.51,-124.603 1522.27,-129.792 1527.53,-134.42"/>
</g>
<!-- enemyRadar[LeftFront7.5ø] -->
<g id="node18" class="node"><title>enemyRadar[LeftFront7.5ø]</title>
<polygon fill="lightgray" stroke="black" points="2166.46,-220.362 2050.46,-220.362 2050.46,-202.362 2166.46,-202.362 2166.46,-220.362"/>
<text text-anchor="middle" x="2108.46" y="-209.162" font-family="Times,serif" font-size="9.00">enemyRadar[LeftFront7.5ø]</text>
</g>
<!-- enemyRadar[LeftFront7.5ø]&#45;&gt;Move Forward/Backward -->
<g id="edge21" class="edge"><title>enemyRadar[LeftFront7.5ø]&#45;&gt;Move Forward/Backward</title>
<path fill="none" stroke="green" stroke-width="0.288977" d="M2086.44,-202.338C2073.51,-197.979 2056.76,-192.926 2041.46,-190.149 1922.04,-168.481 1608.49,-200.866 1496.46,-154.149 1487.72,-150.505 1479.27,-145.594 1471.29,-140.012"/>
<polygon fill="green" stroke="green" stroke-width="0.288977" points="1473.27,-137.125 1463.16,-133.976 1469.1,-142.746 1473.27,-137.125"/>
</g>
<!-- enemyRadar[LeftFront7.5ø]&#45;&gt; Move Left/Right -->
<g id="edge11" class="edge"><title>enemyRadar[LeftFront7.5ø]&#45;&gt; Move Left/Right</title>
<path fill="none" stroke="green" stroke-width="0.72794" d="M2083.12,-202.299C2070.63,-198.432 2055.31,-193.848 2041.46,-190.149 1893.15,-150.541 1717.02,-111.517 1624.53,-91.6327"/>
<polygon fill="green" stroke="green" stroke-width="0.72794" points="1625,-88.1536 1614.48,-89.4781 1623.53,-94.9978 1625,-88.1536"/>
</g>
<!-- enemyRadar[RightFront2.5ø] -->
<g id="node19" class="node"><title>enemyRadar[RightFront2.5ø]</title>
<polygon fill="lightgray" stroke="black" points="1174.46,-286.576 1052.46,-286.576 1052.46,-268.576 1174.46,-268.576 1174.46,-286.576"/>
<text text-anchor="middle" x="1113.46" y="-275.376" font-family="Times,serif" font-size="9.00">enemyRadar[RightFront2.5ø]</text>
</g>
<!-- enemyRadar[LeftFront2.5ø] -->
<g id="node20" class="node"><title>enemyRadar[LeftFront2.5ø]</title>
<polygon fill="lightgray" stroke="black" points="680.463,-220.362 564.463,-220.362 564.463,-202.362 680.463,-202.362 680.463,-220.362"/>
<text text-anchor="middle" x="622.463" y="-209.162" font-family="Times,serif" font-size="9.00">enemyRadar[LeftFront2.5ø]</text>
</g>
<!-- enemyRadar[LeftFront2.5ø]&#45;&gt;Shoot -->
<g id="edge33" class="edge"><title>enemyRadar[LeftFront2.5ø]&#45;&gt;Shoot</title>
<path fill="none" stroke="green" stroke-width="0.102123" d="M622.463,-202.087C622.463,-184.884 622.463,-144.359 622.463,-114.29"/>
<polygon fill="green" stroke="green" stroke-width="0.102123" points="625.963,-114.146 622.463,-104.146 618.963,-114.146 625.963,-114.146"/>
</g>
<!-- enemyRadar[LeftFront2.5ø]&#45;&gt; Move Left/Right -->
<g id="edge22" class="edge"><title>enemyRadar[LeftFront2.5ø]&#45;&gt; Move Left/Right</title>
<path fill="none" stroke="green" stroke-width="0.390388" d="M644.163,-202.318C657.12,-197.894 674.012,-192.782 689.463,-190.149 777.943,-175.071 1415.96,-193.834 1496.46,-154.149 1507.23,-148.843 1516.87,-140.807 1525.19,-131.916"/>
<polygon fill="green" stroke="green" stroke-width="0.390388" points="1527.92,-134.115 1531.88,-124.288 1522.66,-129.502 1527.92,-134.115"/>
</g>
<!-- enemyRadar[LeftFront2.5ø]&#45;&gt;Turn left/right -->
<g id="edge7" class="edge"><title>enemyRadar[LeftFront2.5ø]&#45;&gt;Turn left/right</title>
<path fill="none" stroke="red" stroke-width="0.267635" stroke-dasharray="1,5" d="M643.159,-202.286C695.131,-182.005 832.417,-128.432 908.617,-98.6966"/>
<polygon fill="red" stroke="red" stroke-width="0.267635" points="910.004,-101.912 918.048,-95.0165 907.46,-95.3913 910.004,-101.912"/>
</g>
<!-- enemyRadar[Front7Ø] -->
<g id="node21" class="node"><title>enemyRadar[Front7Ø]</title>
<polygon fill="lightgray" stroke="black" points="1200.46,-220.362 1102.46,-220.362 1102.46,-202.362 1200.46,-202.362 1200.46,-220.362"/>
<text text-anchor="middle" x="1151.46" y="-209.162" font-family="Times,serif" font-size="9.00">enemyRadar[Front7Ø]</text>
</g>
<!-- enemyRadar[Front7Ø]&#45;&gt;Shoot -->
<g id="edge34" class="edge"><title>enemyRadar[Front7Ø]&#45;&gt;Shoot</title>
<path fill="none" stroke="red" stroke-width="0.229748" d="M1130.75,-202.318C1119.79,-198.271 1106.03,-193.522 1093.46,-190.149 1011.3,-168.092 988.375,-173.205 905.463,-154.149 815.561,-133.487 711.045,-103.932 657.714,-88.4456"/>
<polygon fill="red" stroke="red" stroke-width="0.229748" points="658.638,-85.0693 648.058,-85.6328 656.68,-91.79 658.638,-85.0693"/>
</g>
<!-- enemyRadar[Front7Ø]&#45;&gt;Move Forward/Backward -->
<g id="edge24" class="edge"><title>enemyRadar[Front7Ø]&#45;&gt;Move Forward/Backward</title>
<path fill="none" stroke="green" stroke-width="0.613714" d="M1167.27,-202.286C1199.49,-185.833 1274.6,-147.467 1332.89,-117.694"/>
<polygon fill="green" stroke="green" stroke-width="0.613714" points="1334.78,-120.66 1342.09,-112.995 1331.6,-114.426 1334.78,-120.66"/>
</g>
<!-- enemyRadar[Front7Ø]&#45;&gt; Move Left/Right -->
<g id="edge26" class="edge"><title>enemyRadar[Front7Ø]&#45;&gt; Move Left/Right</title>
<path fill="none" stroke="green" stroke-width="0.28275" d="M1171.29,-202.288C1182.35,-198.079 1196.48,-193.189 1209.46,-190.149 1334.63,-160.834 1383.53,-215.566 1496.46,-154.149 1506.89,-148.48 1516.33,-140.37 1524.56,-131.538"/>
<polygon fill="green" stroke="green" stroke-width="0.28275" points="1527.22,-133.811 1531.19,-123.987 1521.96,-129.193 1527.22,-133.811"/>
</g>
<!-- enemyRadar[Front7Ø]&#45;&gt;Turn left/right -->
<g id="edge8" class="edge"><title>enemyRadar[Front7Ø]&#45;&gt;Turn left/right</title>
<path fill="none" stroke="green" stroke-width="0.425095" d="M1139.86,-202.286C1114.2,-184.421 1051.44,-140.722 1007.66,-110.24"/>
<polygon fill="green" stroke="green" stroke-width="0.425095" points="1009.65,-107.363 999.448,-104.522 1005.65,-113.108 1009.65,-107.363"/>
</g>
<!-- OnTarget -->
<g id="node22" class="node"><title>OnTarget</title>
<polygon fill="lightgray" stroke="black" points="1372.46,-220.362 1322.46,-220.362 1322.46,-202.362 1372.46,-202.362 1372.46,-220.362"/>
<text text-anchor="middle" x="1347.46" y="-209.162" font-family="Times,serif" font-size="9.00">OnTarget</text>
</g>
<!-- OnTarget&#45;&gt;Move Forward/Backward -->
<g id="edge36" class="edge"><title>OnTarget&#45;&gt;Move Forward/Backward</title>
<path fill="none" stroke="green" stroke-width="0.367937" d="M1351.4,-202.087C1356.06,-192.317 1364.29,-175.024 1373.16,-156.396"/>
<polygon fill="green" stroke="green" stroke-width="0.367937" points="1376.42,-157.705 1377.56,-147.171 1370.1,-154.695 1376.42,-157.705"/>
</g>
<!-- OnTarget&#45;&gt;Turn left/right -->
<g id="edge47" class="edge"><title>OnTarget&#45;&gt;Turn left/right</title>
<path fill="none" stroke="red" stroke-width="0.153068" d="M1335.24,-202.169C1328.92,-198.179 1320.98,-193.527 1313.46,-190.149 1212.4,-144.739 1087.44,-109.579 1016.86,-91.5148"/>
<polygon fill="red" stroke="red" stroke-width="0.153068" points="1017.4,-88.0419 1006.85,-88.9744 1015.68,-94.8268 1017.4,-88.0419"/>
</g>
<!-- bias -->
<g id="node23" class="node"><title>bias</title>
<polygon fill="lightgray" stroke="black" points="926.963,-286.576 895.963,-286.576 895.963,-268.576 926.963,-268.576 926.963,-286.576"/>
<text text-anchor="middle" x="911.463" y="-275.376" font-family="Times,serif" font-size="9.00">bias</text>
</g>
<!-- bias&#45;&gt;Shoot -->
<g id="edge37" class="edge"><title>bias&#45;&gt;Shoot</title>
<path fill="none" stroke="red" stroke-width="0.589145" stroke-dasharray="1,5" d="M895.649,-276.417C777.884,-275.164 41.2931,-265.996 9.46288,-232.576 -3.54158,-218.921 -2.61208,-204.632 9.46288,-190.149 83.7748,-101.019 464.007,-82.5675 585.259,-78.9282"/>
<polygon fill="red" stroke="red" stroke-width="0.589145" points="585.617,-82.4195 595.514,-78.6376 585.419,-75.4223 585.617,-82.4195"/>
</g>
<!-- bias&#45;&gt;Move Forward/Backward -->
<g id="edge10" class="edge"><title>bias&#45;&gt;Move Forward/Backward</title>
<path fill="none" stroke="red" stroke-width="1.08428" d="M927.177,-270.877C930.223,-269.964 933.415,-269.137 936.463,-268.576 1008.69,-255.276 1545.97,-285.903 1596.46,-232.576 1609.43,-218.884 1607.31,-205.576 1596.46,-190.149 1569.3,-151.503 1537.1,-178.228 1496.46,-154.149 1488.53,-149.448 1480.65,-143.961 1473.07,-138.127"/>
<polygon fill="red" stroke="red" stroke-width="1.08428" points="1474.98,-135.171 1464.98,-131.68 1470.62,-140.647 1474.98,-135.171"/>
</g>
<!-- bias&#45;&gt;Turn left/right -->
<g id="edge49" class="edge"><title>bias&#45;&gt;Turn left/right</title>
<path fill="none" stroke="red" stroke-width="0.429936" d="M895.8,-276.815C798.077,-278.152 274.673,-282.92 227.463,-232.576 214.565,-218.821 214.697,-204.026 227.463,-190.149 259.998,-154.783 611.057,-162.026 658.463,-154.149 746.776,-139.475 847.171,-112.097 907.354,-94.4984"/>
<polygon fill="red" stroke="red" stroke-width="0.429936" points="908.417,-97.8342 917.023,-91.654 906.441,-91.1187 908.417,-97.8342"/>
</g>
<!-- 897 -->
<g id="node28" class="node"><title>897</title>
<ellipse fill="white" stroke="black" cx="1664.46" cy="-211.362" rx="21.4286" ry="21.4286"/>
<text text-anchor="middle" x="1664.46" y="-209.162" font-family="Times,serif" font-size="9.00">897</text>
</g>
<!-- bias&#45;&gt;897 -->
<g id="edge53" class="edge"><title>bias&#45;&gt;897</title>
<path fill="none" stroke="green" stroke-width="0.176111" stroke-dasharray="1,5" d="M927.176,-270.871C930.222,-269.959 933.415,-269.133 936.463,-268.576 1239.85,-213.117 1333.73,-320.121 1629.46,-232.576 1632.46,-231.688 1635.48,-230.497 1638.41,-229.135"/>
<polygon fill="green" stroke="green" stroke-width="0.176111" points="1640.21,-232.145 1647.4,-224.364 1636.92,-225.963 1640.21,-232.145"/>
</g>
<!-- 897&#45;&gt;Move Forward/Backward -->
<g id="edge54" class="edge"><title>897&#45;&gt;Move Forward/Backward</title>
<path fill="none" stroke="red" stroke-width="0.880416" d="M1646.75,-198.946C1641.35,-195.792 1635.29,-192.574 1629.46,-190.149 1572.92,-166.639 1550.37,-183.201 1496.46,-154.149 1488.34,-149.774 1480.35,-144.496 1472.7,-138.783"/>
<polygon fill="red" stroke="red" stroke-width="0.880416" points="1474.59,-135.818 1464.55,-132.437 1470.29,-141.341 1474.59,-135.818"/>
</g>
</g>
</svg>
