<?xml version="1.0" encoding="UTF-8" standalone="no"?>
<!DOCTYPE svg PUBLIC "-//W3C//DTD SVG 1.1//EN"
 "http://www.w3.org/Graphics/SVG/1.1/DTD/svg11.dtd">
<!-- Generated by graphviz version 2.38.0 (20140413.2041)
 -->
<!-- Title: %3 Pages: 1 -->
<svg width="2619pt" height="302pt"
 viewBox="0.00 0.00 2618.93 301.65" xmlns="http://www.w3.org/2000/svg" xmlns:xlink="http://www.w3.org/1999/xlink">
<g id="graph0" class="graph" transform="scale(1 1) rotate(0) translate(4 297.647)">
<title>%3</title>
<polygon fill="white" stroke="none" points="-4,4 -4,-297.647 2614.93,-297.647 2614.93,4 -4,4"/>
<!-- wallRadar[1,0] -->
<g id="node1" class="node"><title>wallRadar[1,0]</title>
<polygon fill="lightgray" stroke="black" points="2267.18,-223.898 2197.18,-223.898 2197.18,-205.898 2267.18,-205.898 2267.18,-223.898"/>
<text text-anchor="middle" x="2232.18" y="-212.698" font-family="Times,serif" font-size="9.00">wallRadar[1,0]</text>
</g>
<!-- Move Forward/Backward -->
<g id="node25" class="node"><title>Move Forward/Backward</title>
<ellipse fill="lightblue" stroke="black" cx="1498.18" cy="-77.0746" rx="77.1494" ry="77.1494"/>
<text text-anchor="middle" x="1498.18" y="-74.8746" font-family="Times,serif" font-size="9.00">Move Forward/Backward</text>
</g>
<!-- wallRadar[1,0]&#45;&gt;Move Forward/Backward -->
<g id="edge1" class="edge"><title>wallRadar[1,0]&#45;&gt;Move Forward/Backward</title>
<path fill="none" stroke="green" stroke-width="0.389971" d="M2220.45,-205.794C2211.91,-200.349 2199.84,-193.567 2188.18,-190.149 1983.73,-130.239 1918.55,-198.53 1710.18,-154.149 1665.58,-144.65 1617.62,-128.019 1578.62,-112.724"/>
<polygon fill="green" stroke="green" stroke-width="0.389971" points="1579.49,-109.304 1568.9,-108.87 1576.9,-115.811 1579.49,-109.304"/>
</g>
<!--  Move Left/Right -->
<g id="node26" class="node"><title> Move Left/Right</title>
<ellipse fill="lightblue" stroke="black" cx="1774.18" cy="-77.0746" rx="55.3091" ry="55.3091"/>
<text text-anchor="middle" x="1774.18" y="-74.8746" font-family="Times,serif" font-size="9.00"> Move Left/Right</text>
</g>
<!-- wallRadar[1,0]&#45;&gt; Move Left/Right -->
<g id="edge63" class="edge"><title>wallRadar[1,0]&#45;&gt; Move Left/Right</title>
<path fill="none" stroke="red" stroke-width="0.444364" d="M2219.08,-205.795C2210.53,-200.765 2198.98,-194.46 2188.18,-190.149 2068.34,-142.333 1921.06,-107.902 1838.39,-90.6417"/>
<polygon fill="red" stroke="red" stroke-width="0.444364" points="1838.89,-87.1713 1828.39,-88.5719 1837.48,-94.026 1838.89,-87.1713"/>
</g>
<!-- wallRadar[0,1] -->
<g id="node2" class="node"><title>wallRadar[0,1]</title>
<polygon fill="lightgray" stroke="black" points="965.178,-223.898 895.178,-223.898 895.178,-205.898 965.178,-205.898 965.178,-223.898"/>
<text text-anchor="middle" x="930.178" y="-212.698" font-family="Times,serif" font-size="9.00">wallRadar[0,1]</text>
</g>
<!-- Shoot -->
<g id="node24" class="node"><title>Shoot</title>
<ellipse fill="lightblue" stroke="black" cx="725.178" cy="-77.0746" rx="26.7407" ry="26.7407"/>
<text text-anchor="middle" x="725.178" y="-74.8746" font-family="Times,serif" font-size="9.00">Shoot</text>
</g>
<!-- wallRadar[0,1]&#45;&gt;Shoot -->
<g id="edge2" class="edge"><title>wallRadar[0,1]&#45;&gt;Shoot</title>
<path fill="none" stroke="red" stroke-width="0.38096" d="M917.968,-205.808C886.468,-184.938 801.716,-128.785 755.779,-98.3497"/>
<polygon fill="red" stroke="red" stroke-width="0.38096" points="757.675,-95.4074 747.406,-92.8018 753.809,-101.243 757.675,-95.4074"/>
</g>
<!-- wallRadar[0,1]&#45;&gt; Move Left/Right -->
<g id="edge3" class="edge"><title>wallRadar[0,1]&#45;&gt; Move Left/Right</title>
<path fill="none" stroke="green" stroke-width="0.179759" stroke-dasharray="1,5" d="M941.893,-205.735C950.425,-200.263 962.488,-193.472 974.178,-190.149 1235.41,-115.894 1319.13,-213.389 1584.18,-154.149 1630.05,-143.896 1679.25,-123.925 1716.09,-107.018"/>
<polygon fill="green" stroke="green" stroke-width="0.179759" points="1717.59,-110.182 1725.18,-102.793 1714.63,-103.834 1717.59,-110.182"/>
</g>
<!-- wallRadar[&#45;1,0] -->
<g id="node3" class="node"><title>wallRadar[&#45;1,0]</title>
<polygon fill="lightgray" stroke="black" points="2110.68,-223.898 2037.68,-223.898 2037.68,-205.898 2110.68,-205.898 2110.68,-223.898"/>
<text text-anchor="middle" x="2074.18" y="-212.698" font-family="Times,serif" font-size="9.00">wallRadar[&#45;1,0]</text>
</g>
<!-- wallRadar[&#45;1,0]&#45;&gt;Move Forward/Backward -->
<g id="edge4" class="edge"><title>wallRadar[&#45;1,0]&#45;&gt;Move Forward/Backward</title>
<path fill="none" stroke="red" stroke-width="0.206484" stroke-dasharray="1,5" d="M2061.43,-205.708C2052.49,-200.371 2040.05,-193.751 2028.18,-190.149 1892.07,-148.842 1848.71,-186.386 1710.18,-154.149 1665.76,-143.814 1617.82,-127.108 1578.78,-111.981"/>
<polygon fill="red" stroke="red" stroke-width="0.206484" points="1579.64,-108.56 1569.06,-108.174 1577.09,-115.078 1579.64,-108.56"/>
</g>
<!-- wallRadar[&#45;1,0]&#45;&gt; Move Left/Right -->
<g id="edge5" class="edge"><title>wallRadar[&#45;1,0]&#45;&gt; Move Left/Right</title>
<path fill="none" stroke="green" stroke-width="0.365252" d="M2058.96,-205.746C2050.06,-201.05 2038.56,-195.112 2028.18,-190.149 1962.48,-158.73 1885.85,-125.358 1834.08,-103.282"/>
<polygon fill="green" stroke="green" stroke-width="0.365252" points="1835.28,-99.9905 1824.71,-99.2947 1832.54,-106.431 1835.28,-99.9905"/>
</g>
<!-- Turn left/right -->
<g id="node27" class="node"><title>Turn left/right</title>
<ellipse fill="lightblue" stroke="black" cx="932.178" cy="-77.0746" rx="46.8387" ry="46.8387"/>
<text text-anchor="middle" x="932.178" y="-74.8746" font-family="Times,serif" font-size="9.00">Turn left/right</text>
</g>
<!-- wallRadar[&#45;1,0]&#45;&gt;Turn left/right -->
<g id="edge6" class="edge"><title>wallRadar[&#45;1,0]&#45;&gt;Turn left/right</title>
<path fill="none" stroke="red" stroke-width="0.796385" stroke-dasharray="1,5" d="M2061.88,-205.737C2052.93,-200.266 2040.31,-193.475 2028.18,-190.149 1763.68,-117.666 1684.83,-183.65 1412.18,-154.149 1257.7,-137.436 1077.09,-105.402 987.877,-88.7381"/>
<polygon fill="red" stroke="red" stroke-width="0.796385" points="988.45,-85.2847 977.977,-86.8817 987.16,-92.1648 988.45,-85.2847"/>
</g>
<!-- wallRadar[0,&#45;1] -->
<g id="node4" class="node"><title>wallRadar[0,&#45;1]</title>
<polygon fill="lightgray" stroke="black" points="93.6778,-223.898 20.6778,-223.898 20.6778,-205.898 93.6778,-205.898 93.6778,-223.898"/>
<text text-anchor="middle" x="57.1778" y="-212.698" font-family="Times,serif" font-size="9.00">wallRadar[0,&#45;1]</text>
</g>
<!-- wallRadar[0,&#45;1]&#45;&gt;Shoot -->
<g id="edge7" class="edge"><title>wallRadar[0,&#45;1]&#45;&gt;Shoot</title>
<path fill="none" stroke="green" stroke-width="0.724334" stroke-dasharray="1,5" d="M70.0838,-205.715C78.8289,-200.521 90.8192,-194.063 102.178,-190.149 316.711,-116.236 590.456,-88.645 688.34,-80.7362"/>
<polygon fill="green" stroke="green" stroke-width="0.724334" points="688.634,-84.224 698.328,-79.9488 688.084,-77.2456 688.634,-84.224"/>
</g>
<!-- wallRadar[0,&#45;1]&#45;&gt;Turn left/right -->
<g id="edge8" class="edge"><title>wallRadar[0,&#45;1]&#45;&gt;Turn left/right</title>
<path fill="none" stroke="green" stroke-width="0.107724" d="M69.1813,-205.721C77.918,-200.242 90.2589,-193.449 102.178,-190.149 384.87,-111.886 476.023,-222.899 761.178,-154.149 804.054,-143.812 849.537,-123.049 882.809,-105.823"/>
<polygon fill="green" stroke="green" stroke-width="0.107724" points="884.632,-108.819 891.857,-101.07 881.376,-102.622 884.632,-108.819"/>
</g>
<!-- wallRadar[0.7,0.7] -->
<g id="node5" class="node"><title>wallRadar[0.7,0.7]</title>
<polygon fill="lightgray" stroke="black" points="596.678,-223.898 513.678,-223.898 513.678,-205.898 596.678,-205.898 596.678,-223.898"/>
<text text-anchor="middle" x="555.178" y="-212.698" font-family="Times,serif" font-size="9.00">wallRadar[0.7,0.7]</text>
</g>
<!-- wallRadar[0.7,0.7]&#45;&gt;Shoot -->
<g id="edge9" class="edge"><title>wallRadar[0.7,0.7]&#45;&gt;Shoot</title>
<path fill="none" stroke="green" stroke-width="1.57273" d="M565.303,-205.808C590.622,-185.579 657.427,-132.205 696.198,-101.228"/>
<polygon fill="green" stroke="green" stroke-width="1.57273" points="698.856,-103.585 704.484,-94.6083 694.486,-98.1159 698.856,-103.585"/>
</g>
<!-- wallRadar[0.7,0.7]&#45;&gt;Move Forward/Backward -->
<g id="edge10" class="edge"><title>wallRadar[0.7,0.7]&#45;&gt;Move Forward/Backward</title>
<path fill="none" stroke="red" stroke-width="0.835991" d="M581.026,-205.852C598.659,-200.648 622.633,-194.126 644.178,-190.149 795.348,-162.247 835.676,-173.494 988.178,-154.149 1137.51,-135.207 1310.7,-108.327 1411.98,-92.1098"/>
<polygon fill="red" stroke="red" stroke-width="0.835991" points="1412.54,-95.5655 1421.86,-90.5258 1411.43,-88.6539 1412.54,-95.5655"/>
</g>
<!-- wallRadar[0.7,0.7]&#45;&gt;Turn left/right -->
<g id="edge11" class="edge"><title>wallRadar[0.7,0.7]&#45;&gt;Turn left/right</title>
<path fill="none" stroke="green" stroke-width="0.704551" d="M572.053,-205.875C583.025,-200.877 597.738,-194.578 611.178,-190.149 676.293,-168.692 696.252,-176.175 761.178,-154.149 802.804,-140.027 848.188,-119.587 881.734,-103.449"/>
<polygon fill="green" stroke="green" stroke-width="0.704551" points="883.398,-106.532 890.869,-99.0205 880.344,-100.234 883.398,-106.532"/>
</g>
<!-- wallRadar[&#45;0.7,0.7] -->
<g id="node6" class="node"><title>wallRadar[&#45;0.7,0.7]</title>
<polygon fill="lightgray" stroke="black" points="2371.18,-223.898 2285.18,-223.898 2285.18,-205.898 2371.18,-205.898 2371.18,-223.898"/>
<text text-anchor="middle" x="2328.18" y="-212.698" font-family="Times,serif" font-size="9.00">wallRadar[&#45;0.7,0.7]</text>
</g>
<!-- wallRadar[&#45;0.7,0.7]&#45;&gt;Move Forward/Backward -->
<g id="edge12" class="edge"><title>wallRadar[&#45;0.7,0.7]&#45;&gt;Move Forward/Backward</title>
<path fill="none" stroke="red" stroke-width="1.13151" d="M2314.12,-205.773C2303.94,-200.318 2289.65,-193.533 2276.18,-190.149 2031.7,-128.773 1957.01,-205.22 1710.18,-154.149 1665.52,-144.91 1617.56,-128.302 1578.57,-112.956"/>
<polygon fill="red" stroke="red" stroke-width="1.13151" points="1579.44,-109.536 1568.85,-109.087 1576.85,-116.039 1579.44,-109.536"/>
</g>
<!-- wallRadar[&#45;0.7,0.7]&#45;&gt; Move Left/Right -->
<g id="edge13" class="edge"><title>wallRadar[&#45;0.7,0.7]&#45;&gt; Move Left/Right</title>
<path fill="none" stroke="green" stroke-width="0.451027" stroke-dasharray="1,5" d="M2312.59,-205.743C2302.44,-200.692 2288.78,-194.384 2276.18,-190.149 2122.88,-138.661 1935.27,-103.935 1838.59,-88.0214"/>
<polygon fill="green" stroke="green" stroke-width="0.451027" points="1839.11,-84.5596 1828.68,-86.4026 1837.98,-91.4681 1839.11,-84.5596"/>
</g>
<!-- wallRadar[&#45;0.7,&#45;0.7] -->
<g id="node7" class="node"><title>wallRadar[&#45;0.7,&#45;0.7]</title>
<polygon fill="lightgray" stroke="black" points="876.678,-223.898 787.678,-223.898 787.678,-205.898 876.678,-205.898 876.678,-223.898"/>
<text text-anchor="middle" x="832.178" y="-212.698" font-family="Times,serif" font-size="9.00">wallRadar[&#45;0.7,&#45;0.7]</text>
</g>
<!-- wallRadar[&#45;0.7,&#45;0.7]&#45;&gt;Shoot -->
<g id="edge14" class="edge"><title>wallRadar[&#45;0.7,&#45;0.7]&#45;&gt;Shoot</title>
<path fill="none" stroke="red" stroke-width="0.397126" stroke-dasharray="1,5" d="M825.805,-205.808C810.772,-186.726 772.502,-138.147 747.728,-106.7"/>
<polygon fill="red" stroke="red" stroke-width="0.397126" points="750.374,-104.402 741.436,-98.7125 744.875,-108.734 750.374,-104.402"/>
</g>
<!-- wallRadar[&#45;0.7,&#45;0.7]&#45;&gt;Move Forward/Backward -->
<g id="edge15" class="edge"><title>wallRadar[&#45;0.7,&#45;0.7]&#45;&gt;Move Forward/Backward</title>
<path fill="none" stroke="red" stroke-width="0.362459" stroke-dasharray="1,5" d="M847.872,-205.829C858.454,-200.682 872.862,-194.235 886.178,-190.149 1068.8,-134.113 1291.16,-102.014 1411.21,-87.521"/>
<polygon fill="red" stroke="red" stroke-width="0.362459" points="1411.93,-90.9602 1421.44,-86.2985 1411.1,-84.0096 1411.93,-90.9602"/>
</g>
<!-- wallRadar[&#45;0.7,&#45;0.7]&#45;&gt; Move Left/Right -->
<g id="edge16" class="edge"><title>wallRadar[&#45;0.7,&#45;0.7]&#45;&gt; Move Left/Right</title>
<path fill="none" stroke="red" stroke-width="0.240381" stroke-dasharray="1,5" d="M846.799,-205.727C857.385,-200.251 872.227,-193.459 886.178,-190.149 1188.42,-118.445 1280.77,-220.783 1584.18,-154.149 1630.09,-144.066 1679.29,-124.09 1716.12,-107.137"/>
<polygon fill="red" stroke="red" stroke-width="0.240381" points="1717.62,-110.298 1725.2,-102.9 1714.66,-103.954 1717.62,-110.298"/>
</g>
<!-- wallRadar[&#45;0.7,&#45;0.7]&#45;&gt;Turn left/right -->
<g id="edge17" class="edge"><title>wallRadar[&#45;0.7,&#45;0.7]&#45;&gt;Turn left/right</title>
<path fill="none" stroke="red" stroke-width="0.382916" stroke-dasharray="1,5" d="M838.134,-205.808C849.856,-189.887 876.696,-153.432 898.714,-123.526"/>
<polygon fill="red" stroke="red" stroke-width="0.382916" points="901.67,-125.415 904.78,-115.287 896.033,-121.265 901.67,-125.415"/>
</g>
<!-- wallRadar[0.7,&#45;0.7] -->
<g id="node8" class="node"><title>wallRadar[0.7,&#45;0.7]</title>
<polygon fill="lightgray" stroke="black" points="1622.18,-293.647 1536.18,-293.647 1536.18,-275.647 1622.18,-275.647 1622.18,-293.647"/>
<text text-anchor="middle" x="1579.18" y="-282.447" font-family="Times,serif" font-size="9.00">wallRadar[0.7,&#45;0.7]</text>
</g>
<!-- wallRadar[0.7,&#45;0.7]&#45;&gt;Shoot -->
<g id="edge18" class="edge"><title>wallRadar[0.7,&#45;0.7]&#45;&gt;Shoot</title>
<path fill="none" stroke="green" stroke-width="0.802487" stroke-dasharray="1,5" d="M1536.01,-283.257C1286.45,-280.907 38.5126,-267.759 11.1778,-239.647 -4.15807,-223.875 -3.12092,-206.867 11.1778,-190.149 99.9137,-86.3982 553.692,-78.0505 687.805,-77.8802"/>
<polygon fill="green" stroke="green" stroke-width="0.802487" points="687.983,-81.3801 697.983,-77.8826 687.984,-74.3801 687.983,-81.3801"/>
</g>
<!-- wallRadar[0.7,&#45;0.7]&#45;&gt; Move Left/Right -->
<g id="edge19" class="edge"><title>wallRadar[0.7,&#45;0.7]&#45;&gt; Move Left/Right</title>
<path fill="none" stroke="green" stroke-width="0.602094" stroke-dasharray="1,5" d="M1622.32,-283.254C1802.01,-281.412 2483.03,-272.293 2514.18,-239.647 2529.36,-223.73 2528.52,-206.829 2514.18,-190.149 2427.29,-89.1076 2004.55,-78.0333 1839.95,-77.6224"/>
<polygon fill="green" stroke="green" stroke-width="0.602094" points="1839.49,-74.1219 1829.49,-77.6099 1839.49,-81.1219 1839.49,-74.1219"/>
</g>
<!-- wallRadar[0.7,&#45;0.7]&#45;&gt;Turn left/right -->
<g id="edge20" class="edge"><title>wallRadar[0.7,&#45;0.7]&#45;&gt;Turn left/right</title>
<path fill="none" stroke="red" stroke-width="0.420745" stroke-dasharray="1,5" d="M1536.03,-283.254C1356.35,-281.412 675.324,-272.293 644.178,-239.647 628.992,-223.73 631.108,-207.845 644.178,-190.149 676.5,-146.386 710.232,-173.241 761.178,-154.149 802.2,-138.777 847.443,-118.495 881.082,-102.74"/>
<polygon fill="red" stroke="red" stroke-width="0.420745" points="882.693,-105.85 890.25,-98.424 879.711,-99.517 882.693,-105.85"/>
</g>
<!-- 7631 -->
<g id="node28" class="node"><title>7631</title>
<ellipse fill="white" stroke="black" cx="2586.18" cy="-214.898" rx="25" ry="25"/>
<text text-anchor="middle" x="2586.18" y="-212.698" font-family="Times,serif" font-size="9.00">7631</text>
</g>
<!-- wallRadar[0.7,&#45;0.7]&#45;&gt;7631 -->
<g id="edge61" class="edge"><title>wallRadar[0.7,&#45;0.7]&#45;&gt;7631</title>
<path fill="none" stroke="green" stroke-width="0.286282" d="M1622.33,-282.946C1798.49,-279.915 2458.08,-266.838 2547.18,-239.647 2550.72,-238.565 2554.27,-237.086 2557.71,-235.392"/>
<polygon fill="green" stroke="green" stroke-width="0.286282" points="2559.42,-238.447 2566.46,-230.527 2556.01,-232.329 2559.42,-238.447"/>
</g>
<!-- enemyRadar[RightBack] -->
<g id="node9" class="node"><title>enemyRadar[RightBack]</title>
<polygon fill="lightgray" stroke="black" points="265.178,-223.898 161.178,-223.898 161.178,-205.898 265.178,-205.898 265.178,-223.898"/>
<text text-anchor="middle" x="213.178" y="-212.698" font-family="Times,serif" font-size="9.00">enemyRadar[RightBack]</text>
</g>
<!-- enemyRadar[RightBack]&#45;&gt;Turn left/right -->
<g id="edge21" class="edge"><title>enemyRadar[RightBack]&#45;&gt;Turn left/right</title>
<path fill="none" stroke="green" stroke-width="0.113748" stroke-dasharray="1,5" d="M229.843,-205.851C241.871,-200.434 258.66,-193.661 274.178,-190.149 485.861,-142.25 550.687,-207.043 761.178,-154.149 803.953,-143.4 849.442,-122.663 882.741,-105.55"/>
<polygon fill="green" stroke="green" stroke-width="0.113748" points="884.547,-108.556 891.798,-100.831 881.312,-102.349 884.547,-108.556"/>
</g>
<!-- enemyRadar[LeftBack] -->
<g id="node10" class="node"><title>enemyRadar[LeftBack]</title>
<polygon fill="lightgray" stroke="black" points="495.678,-223.898 396.678,-223.898 396.678,-205.898 495.678,-205.898 495.678,-223.898"/>
<text text-anchor="middle" x="446.178" y="-212.698" font-family="Times,serif" font-size="9.00">enemyRadar[LeftBack]</text>
</g>
<!-- enemyRadar[LeftBack]&#45;&gt;Shoot -->
<g id="edge22" class="edge"><title>enemyRadar[LeftBack]&#45;&gt;Shoot</title>
<path fill="none" stroke="red" stroke-width="0.241286" stroke-dasharray="1,5" d="M462.795,-205.808C507.782,-183.908 632.573,-123.157 692.386,-94.0384"/>
<polygon fill="red" stroke="red" stroke-width="0.241286" points="693.946,-97.1716 701.405,-89.6475 690.882,-90.8778 693.946,-97.1716"/>
</g>
<!-- enemyRadar[LeftBack]&#45;&gt;Move Forward/Backward -->
<g id="edge59" class="edge"><title>enemyRadar[LeftBack]&#45;&gt;Move Forward/Backward</title>
<path fill="none" stroke="red" stroke-width="0.337895" stroke-dasharray="1,5" d="M461.979,-205.841C473.395,-200.418 489.351,-193.643 504.178,-190.149 714.132,-140.671 773.804,-178.077 988.178,-154.149 1137.84,-137.444 1311.03,-109.844 1412.21,-92.8808"/>
<polygon fill="red" stroke="red" stroke-width="0.337895" points="1413.09,-96.2814 1422.37,-91.1716 1411.93,-89.3783 1413.09,-96.2814"/>
</g>
<!-- enemyRadar[LeftBack]&#45;&gt;Turn left/right -->
<g id="edge23" class="edge"><title>enemyRadar[LeftBack]&#45;&gt;Turn left/right</title>
<path fill="none" stroke="red" stroke-width="0.1716" d="M463.046,-205.68C474.416,-200.471 489.892,-194.009 504.178,-190.149 615.522,-160.063 650.297,-185.899 761.178,-154.149 803.436,-142.049 848.784,-121.493 882.156,-104.798"/>
<polygon fill="red" stroke="red" stroke-width="0.1716" points="883.896,-107.84 891.238,-100.201 880.735,-101.594 883.896,-107.84"/>
</g>
<!-- enemyRadar[Right45ø] -->
<g id="node11" class="node"><title>enemyRadar[Right45ø]</title>
<polygon fill="lightgray" stroke="black" points="1083.18,-223.898 983.178,-223.898 983.178,-205.898 1083.18,-205.898 1083.18,-223.898"/>
<text text-anchor="middle" x="1033.18" y="-212.698" font-family="Times,serif" font-size="9.00">enemyRadar[Right45ø]</text>
</g>
<!-- enemyRadar[Right45ø]&#45;&gt;Shoot -->
<g id="edge24" class="edge"><title>enemyRadar[Right45ø]&#45;&gt;Shoot</title>
<path fill="none" stroke="green" stroke-width="0.367306" stroke-dasharray="1,5" d="M1013.57,-205.831C1002.12,-201.163 987.368,-195.225 974.178,-190.149 930.872,-173.484 918.745,-172.618 876.178,-154.149 834.202,-135.937 787.361,-111.699 757.142,-95.5254"/>
<polygon fill="green" stroke="green" stroke-width="0.367306" points="758.786,-92.4354 748.321,-90.7805 755.47,-98.6001 758.786,-92.4354"/>
</g>
<!-- enemyRadar[Right45ø]&#45;&gt;Move Forward/Backward -->
<g id="edge25" class="edge"><title>enemyRadar[Right45ø]&#45;&gt;Move Forward/Backward</title>
<path fill="none" stroke="green" stroke-width="0.39877" stroke-dasharray="1,5" d="M1051.58,-205.866C1063.12,-200.985 1078.37,-194.817 1092.18,-190.149 1201.68,-153.131 1330.75,-119.097 1413.47,-98.476"/>
<polygon fill="green" stroke="green" stroke-width="0.39877" points="1414.46,-101.836 1423.33,-96.0284 1412.78,-95.0423 1414.46,-101.836"/>
</g>
<!-- enemyRadar[Right45ø]&#45;&gt; Move Left/Right -->
<g id="edge26" class="edge"><title>enemyRadar[Right45ø]&#45;&gt; Move Left/Right</title>
<path fill="none" stroke="green" stroke-width="0.232199" stroke-dasharray="1,5" d="M1049.27,-205.84C1060.89,-200.416 1077.12,-193.641 1092.18,-190.149 1305.76,-140.622 1370.55,-203.481 1584.18,-154.149 1629.98,-143.573 1679.18,-123.613 1716.04,-106.791"/>
<polygon fill="green" stroke="green" stroke-width="0.232199" points="1717.52,-109.961 1725.13,-102.59 1714.59,-103.606 1717.52,-109.961"/>
</g>
<!-- enemyRadar[Right45ø]&#45;&gt;Turn left/right -->
<g id="edge27" class="edge"><title>enemyRadar[Right45ø]&#45;&gt;Turn left/right</title>
<path fill="none" stroke="red" stroke-width="0.317428" stroke-dasharray="1,5" d="M1027.16,-205.808C1015.28,-189.835 988.037,-153.193 965.757,-123.232"/>
<polygon fill="red" stroke="red" stroke-width="0.317428" points="968.398,-120.918 959.622,-114.982 962.781,-125.095 968.398,-120.918"/>
</g>
<!-- enemyRadar[Left45ø] -->
<g id="node12" class="node"><title>enemyRadar[Left45ø]</title>
<polygon fill="lightgray" stroke="black" points="378.678,-223.898 283.678,-223.898 283.678,-205.898 378.678,-205.898 378.678,-223.898"/>
<text text-anchor="middle" x="331.178" y="-212.698" font-family="Times,serif" font-size="9.00">enemyRadar[Left45ø]</text>
</g>
<!-- enemyRadar[Left45ø]&#45;&gt;Turn left/right -->
<g id="edge28" class="edge"><title>enemyRadar[Left45ø]&#45;&gt;Turn left/right</title>
<path fill="none" stroke="red" stroke-width="0.408623" stroke-dasharray="1,5" d="M346.9,-205.697C357.883,-200.355 373.052,-193.734 387.178,-190.149 549.038,-149.073 599.683,-196.639 761.178,-154.149 803.831,-142.927 849.328,-122.218 882.661,-105.237"/>
<polygon fill="red" stroke="red" stroke-width="0.408623" points="884.447,-108.254 891.727,-100.557 881.236,-102.034 884.447,-108.254"/>
</g>
<!-- enemyRadar[RightFront20ø] -->
<g id="node13" class="node"><title>enemyRadar[RightFront20ø]</title>
<polygon fill="lightgray" stroke="black" points="1360.68,-223.898 1241.68,-223.898 1241.68,-205.898 1360.68,-205.898 1360.68,-223.898"/>
<text text-anchor="middle" x="1301.18" y="-212.698" font-family="Times,serif" font-size="9.00">enemyRadar[RightFront20ø]</text>
</g>
<!-- enemyRadar[RightFront20ø]&#45;&gt;Shoot -->
<g id="edge29" class="edge"><title>enemyRadar[RightFront20ø]&#45;&gt;Shoot</title>
<path fill="none" stroke="red" stroke-width="0.180735" stroke-dasharray="1,5" d="M1281.6,-205.802C1267.97,-200.507 1249.25,-193.899 1232.18,-190.149 1076.85,-156.045 1028.85,-198.668 876.178,-154.149 832.251,-141.34 785.835,-115.926 756.247,-98.0049"/>
<polygon fill="red" stroke="red" stroke-width="0.180735" points="757.978,-94.9607 747.626,-92.7062 754.312,-100.924 757.978,-94.9607"/>
</g>
<!-- enemyRadar[RightFront20ø]&#45;&gt;Move Forward/Backward -->
<g id="edge30" class="edge"><title>enemyRadar[RightFront20ø]&#45;&gt;Move Forward/Backward</title>
<path fill="none" stroke="green" stroke-width="1.0682" stroke-dasharray="1,5" d="M1312.91,-205.808C1335.04,-190.549 1384.53,-156.431 1426.79,-127.292"/>
<polygon fill="green" stroke="green" stroke-width="1.0682" points="1428.89,-130.095 1435.14,-121.537 1424.92,-124.332 1428.89,-130.095"/>
</g>
<!-- enemyRadar[RightFront20ø]&#45;&gt; Move Left/Right -->
<g id="edge31" class="edge"><title>enemyRadar[RightFront20ø]&#45;&gt; Move Left/Right</title>
<path fill="none" stroke="red" stroke-width="0.825259" stroke-dasharray="1,5" d="M1321.74,-205.822C1335.32,-200.739 1353.6,-194.365 1370.18,-190.149 1463.65,-166.374 1491.32,-180.224 1584.18,-154.149 1629.08,-141.54 1677.89,-121.859 1714.8,-105.675"/>
<polygon fill="red" stroke="red" stroke-width="0.825259" points="1716.67,-108.675 1724.39,-101.427 1713.83,-102.274 1716.67,-108.675"/>
</g>
<!-- enemyRadar[RightFront20ø]&#45;&gt;Turn left/right -->
<g id="edge32" class="edge"><title>enemyRadar[RightFront20ø]&#45;&gt;Turn left/right</title>
<path fill="none" stroke="green" stroke-width="1.31679" d="M1279.2,-205.808C1222.1,-184.79 1067.78,-127.987 985.512,-97.7061"/>
<polygon fill="green" stroke="green" stroke-width="1.31679" points="986.441,-94.3187 975.848,-94.1489 984.023,-100.888 986.441,-94.3187"/>
</g>
<!-- enemyRadar[LeftFront20ø] -->
<g id="node14" class="node"><title>enemyRadar[LeftFront20ø]</title>
<polygon fill="lightgray" stroke="black" points="1493.18,-223.898 1379.18,-223.898 1379.18,-205.898 1493.18,-205.898 1493.18,-223.898"/>
<text text-anchor="middle" x="1436.18" y="-212.698" font-family="Times,serif" font-size="9.00">enemyRadar[LeftFront20ø]</text>
</g>
<!-- enemyRadar[LeftFront20ø]&#45;&gt;Shoot -->
<g id="edge33" class="edge"><title>enemyRadar[LeftFront20ø]&#45;&gt;Shoot</title>
<path fill="none" stroke="green" stroke-width="0.90956" stroke-dasharray="1,5" d="M1417.79,-205.873C1404.54,-200.466 1386.09,-193.696 1369.18,-190.149 1154.16,-145.047 1087.93,-212.704 876.178,-154.149 832.077,-141.954 785.699,-116.406 756.167,-98.2866"/>
<polygon fill="green" stroke="green" stroke-width="0.90956" points="757.901,-95.2437 747.563,-92.9249 754.199,-101.184 757.901,-95.2437"/>
</g>
<!-- enemyRadar[LeftFront20ø]&#45;&gt;Move Forward/Backward -->
<g id="edge34" class="edge"><title>enemyRadar[LeftFront20ø]&#45;&gt;Move Forward/Backward</title>
<path fill="none" stroke="green" stroke-width="0.24559" stroke-dasharray="1,5" d="M1439.87,-205.808C1444.55,-195.557 1453.12,-176.792 1462.27,-156.745"/>
<polygon fill="green" stroke="green" stroke-width="0.24559" points="1465.53,-158.02 1466.5,-147.469 1459.16,-155.113 1465.53,-158.02"/>
</g>
<!-- enemyRadar[LeftFront20ø]&#45;&gt; Move Left/Right -->
<g id="edge35" class="edge"><title>enemyRadar[LeftFront20ø]&#45;&gt; Move Left/Right</title>
<path fill="none" stroke="red" stroke-width="0.550826" d="M1456.31,-205.808C1505.99,-185.846 1635.99,-133.604 1713.49,-102.463"/>
<polygon fill="red" stroke="red" stroke-width="0.550826" points="1715.16,-105.563 1723.13,-98.5869 1712.55,-99.068 1715.16,-105.563"/>
</g>
<!-- enemyRadar[LeftFront20ø]&#45;&gt;Turn left/right -->
<g id="edge36" class="edge"><title>enemyRadar[LeftFront20ø]&#45;&gt;Turn left/right</title>
<path fill="none" stroke="red" stroke-width="0.865342" stroke-dasharray="1,5" d="M1414.92,-205.812C1401.82,-200.971 1384.64,-194.863 1369.18,-190.149 1233.29,-148.731 1070.59,-109.744 987.286,-90.534"/>
<polygon fill="red" stroke="red" stroke-width="0.865342" points="988.058,-87.1201 977.528,-88.2905 986.49,-93.9421 988.058,-87.1201"/>
</g>
<!-- enemyRadar[RightFront15ø] -->
<g id="node15" class="node"><title>enemyRadar[RightFront15ø]</title>
<polygon fill="lightgray" stroke="black" points="1630.68,-223.898 1511.68,-223.898 1511.68,-205.898 1630.68,-205.898 1630.68,-223.898"/>
<text text-anchor="middle" x="1571.18" y="-212.698" font-family="Times,serif" font-size="9.00">enemyRadar[RightFront15ø]</text>
</g>
<!-- enemyRadar[RightFront15ø]&#45;&gt;Move Forward/Backward -->
<g id="edge37" class="edge"><title>enemyRadar[RightFront15ø]&#45;&gt;Move Forward/Backward</title>
<path fill="none" stroke="red" stroke-width="1.11455" d="M1566.83,-205.808C1561.11,-195.165 1550.46,-175.344 1539.22,-154.439"/>
<polygon fill="red" stroke="red" stroke-width="1.11455" points="1542.2,-152.587 1534.38,-145.436 1536.03,-155.901 1542.2,-152.587"/>
</g>
<!-- enemyRadar[RightFront15ø]&#45;&gt; Move Left/Right -->
<g id="edge38" class="edge"><title>enemyRadar[RightFront15ø]&#45;&gt; Move Left/Right</title>
<path fill="none" stroke="red" stroke-width="0.627708" stroke-dasharray="1,5" d="M1583.27,-205.808C1609.62,-188.174 1673.63,-145.351 1720.28,-114.135"/>
<polygon fill="red" stroke="red" stroke-width="0.627708" points="1722.41,-116.92 1728.78,-108.45 1718.52,-111.102 1722.41,-116.92"/>
</g>
<!-- enemyRadar[RightFront15ø]&#45;&gt;Turn left/right -->
<g id="edge39" class="edge"><title>enemyRadar[RightFront15ø]&#45;&gt;Turn left/right</title>
<path fill="none" stroke="red" stroke-width="0.743997" stroke-dasharray="1,5" d="M1550.27,-205.863C1536.71,-200.86 1518.57,-194.56 1502.18,-190.149 1316.69,-140.246 1091.7,-102.563 988.657,-86.5384"/>
<polygon fill="red" stroke="red" stroke-width="0.743997" points="988.896,-83.0338 978.478,-84.9644 987.826,-89.9516 988.896,-83.0338"/>
</g>
<!-- enemyRadar[LeftFront15ø] -->
<g id="node16" class="node"><title>enemyRadar[LeftFront15ø]</title>
<polygon fill="lightgray" stroke="black" points="2019.18,-223.898 1905.18,-223.898 1905.18,-205.898 2019.18,-205.898 2019.18,-223.898"/>
<text text-anchor="middle" x="1962.18" y="-212.698" font-family="Times,serif" font-size="9.00">enemyRadar[LeftFront15ø]</text>
</g>
<!-- enemyRadar[LeftFront15ø]&#45;&gt; Move Left/Right -->
<g id="edge40" class="edge"><title>enemyRadar[LeftFront15ø]&#45;&gt; Move Left/Right</title>
<path fill="none" stroke="red" stroke-width="0.189009" stroke-dasharray="1,5" d="M1950.98,-205.808C1927.07,-188.532 1869.69,-147.082 1826.75,-116.053"/>
<polygon fill="red" stroke="red" stroke-width="0.189009" points="1828.79,-113.212 1818.63,-110.193 1824.69,-118.886 1828.79,-113.212"/>
</g>
<!-- enemyRadar[LeftFront15ø]&#45;&gt;Turn left/right -->
<g id="edge41" class="edge"><title>enemyRadar[LeftFront15ø]&#45;&gt;Turn left/right</title>
<path fill="none" stroke="green" stroke-width="0.557079" stroke-dasharray="1,5" d="M1944.08,-205.876C1931.03,-200.47 1912.85,-193.7 1896.18,-190.149 1685.2,-145.221 1626.44,-179.053 1412.18,-154.149 1257.84,-136.21 1077.17,-104.714 987.91,-88.4486"/>
<polygon fill="green" stroke="green" stroke-width="0.557079" points="988.47,-84.9932 978.004,-86.6375 987.211,-91.8791 988.47,-84.9932"/>
</g>
<!-- enemyRadar[RightFront7.5ø] -->
<g id="node17" class="node"><title>enemyRadar[RightFront7.5ø]</title>
<polygon fill="lightgray" stroke="black" points="1771.18,-223.898 1649.18,-223.898 1649.18,-205.898 1771.18,-205.898 1771.18,-223.898"/>
<text text-anchor="middle" x="1710.18" y="-212.698" font-family="Times,serif" font-size="9.00">enemyRadar[RightFront7.5ø]</text>
</g>
<!-- enemyRadar[RightFront7.5ø]&#45;&gt; Move Left/Right -->
<g id="edge42" class="edge"><title>enemyRadar[RightFront7.5ø]&#45;&gt; Move Left/Right</title>
<path fill="none" stroke="green" stroke-width="0.78959" d="M1713.99,-205.808C1720.42,-192.168 1733.95,-163.458 1746.55,-136.706"/>
<polygon fill="green" stroke="green" stroke-width="0.78959" points="1749.86,-137.891 1750.96,-127.353 1743.53,-134.907 1749.86,-137.891"/>
</g>
<!-- enemyRadar[RightFront7.5ø]&#45;&gt;Turn left/right -->
<g id="edge43" class="edge"><title>enemyRadar[RightFront7.5ø]&#45;&gt;Turn left/right</title>
<path fill="none" stroke="green" stroke-width="0.759541" d="M1689.01,-205.792C1675.03,-200.696 1656.22,-194.32 1639.18,-190.149 1639.18,-190.149 1155.73,-113.512 988.382,-86.9841"/>
<polygon fill="green" stroke="green" stroke-width="0.759541" points="988.718,-83.4938 978.293,-85.3849 987.622,-90.4075 988.718,-83.4938"/>
</g>
<!-- enemyRadar[LeftFront7.5ø] -->
<g id="node18" class="node"><title>enemyRadar[LeftFront7.5ø]</title>
<polygon fill="lightgray" stroke="black" points="2505.18,-223.898 2389.18,-223.898 2389.18,-205.898 2505.18,-205.898 2505.18,-223.898"/>
<text text-anchor="middle" x="2447.18" y="-212.698" font-family="Times,serif" font-size="9.00">enemyRadar[LeftFront7.5ø]</text>
</g>
<!-- enemyRadar[LeftFront7.5ø]&#45;&gt;Move Forward/Backward -->
<g id="edge44" class="edge"><title>enemyRadar[LeftFront7.5ø]&#45;&gt;Move Forward/Backward</title>
<path fill="none" stroke="red" stroke-width="0.940947" d="M2429.09,-205.89C2415.83,-200.416 2397.24,-193.558 2380.18,-190.149 2087.75,-131.735 2002.49,-213.132 1710.18,-154.149 1665.3,-145.094 1617.13,-128.41 1578.07,-112.969"/>
<polygon fill="red" stroke="red" stroke-width="0.940947" points="1578.92,-109.542 1568.34,-109.075 1576.32,-116.04 1578.92,-109.542"/>
</g>
<!-- enemyRadar[LeftFront7.5ø]&#45;&gt; Move Left/Right -->
<g id="edge45" class="edge"><title>enemyRadar[LeftFront7.5ø]&#45;&gt; Move Left/Right</title>
<path fill="none" stroke="red" stroke-width="0.312401" d="M2427.21,-205.886C2414.02,-200.829 2396.27,-194.461 2380.18,-190.149 2186,-138.129 1950.43,-102.098 1838.81,-86.6072"/>
<polygon fill="red" stroke="red" stroke-width="0.312401" points="1839.11,-83.1153 1828.73,-85.2165 1838.16,-90.0497 1839.11,-83.1153"/>
</g>
<!-- enemyRadar[RightFront2.5ø] -->
<g id="node19" class="node"><title>enemyRadar[RightFront2.5ø]</title>
<polygon fill="lightgray" stroke="black" points="1223.18,-223.898 1101.18,-223.898 1101.18,-205.898 1223.18,-205.898 1223.18,-223.898"/>
<text text-anchor="middle" x="1162.18" y="-212.698" font-family="Times,serif" font-size="9.00">enemyRadar[RightFront2.5ø]</text>
</g>
<!-- enemyRadar[RightFront2.5ø]&#45;&gt;Shoot -->
<g id="edge46" class="edge"><title>enemyRadar[RightFront2.5ø]&#45;&gt;Shoot</title>
<path fill="none" stroke="red" stroke-width="1.08095" d="M1141.31,-205.826C1127.53,-200.744 1108.98,-194.37 1092.18,-190.149 997.786,-166.437 968.686,-184.387 876.178,-154.149 832.686,-139.933 786.175,-114.825 756.446,-97.3593"/>
<polygon fill="red" stroke="red" stroke-width="1.08095" points="758.164,-94.309 747.781,-92.2048 754.586,-100.325 758.164,-94.309"/>
</g>
<!-- enemyRadar[RightFront2.5ø]&#45;&gt;Move Forward/Backward -->
<g id="edge47" class="edge"><title>enemyRadar[RightFront2.5ø]&#45;&gt;Move Forward/Backward</title>
<path fill="none" stroke="green" stroke-width="1.08352" stroke-dasharray="1,5" d="M1182.19,-205.808C1227.47,-187.506 1339.86,-142.072 1417.61,-110.641"/>
<polygon fill="green" stroke="green" stroke-width="1.08352" points="1418.96,-113.873 1426.92,-106.881 1416.33,-107.383 1418.96,-113.873"/>
</g>
<!-- enemyRadar[RightFront2.5ø]&#45;&gt; Move Left/Right -->
<g id="edge48" class="edge"><title>enemyRadar[RightFront2.5ø]&#45;&gt; Move Left/Right</title>
<path fill="none" stroke="green" stroke-width="0.598318" stroke-dasharray="1,5" d="M1182.06,-205.815C1195.88,-200.526 1214.87,-193.919 1232.18,-190.149 1385.83,-156.675 1431.48,-191.742 1584.18,-154.149 1629.82,-142.913 1679.03,-122.975 1715.93,-106.329"/>
<polygon fill="green" stroke="green" stroke-width="0.598318" points="1717.39,-109.51 1725.03,-102.175 1714.48,-103.141 1717.39,-109.51"/>
</g>
<!-- enemyRadar[RightFront2.5ø]&#45;&gt;Turn left/right -->
<g id="edge49" class="edge"><title>enemyRadar[RightFront2.5ø]&#45;&gt;Turn left/right</title>
<path fill="none" stroke="green" stroke-width="0.439398" stroke-dasharray="1,5" d="M1148.48,-205.808C1116.21,-186.751 1034.12,-138.277 980.864,-106.825"/>
<polygon fill="green" stroke="green" stroke-width="0.439398" points="982.315,-103.618 971.925,-101.547 978.756,-109.645 982.315,-103.618"/>
</g>
<!-- enemyRadar[LeftFront2.5ø] -->
<g id="node20" class="node"><title>enemyRadar[LeftFront2.5ø]</title>
<polygon fill="lightgray" stroke="black" points="769.178,-223.898 653.178,-223.898 653.178,-205.898 769.178,-205.898 769.178,-223.898"/>
<text text-anchor="middle" x="711.178" y="-212.698" font-family="Times,serif" font-size="9.00">enemyRadar[LeftFront2.5ø]</text>
</g>
<!-- enemyRadar[LeftFront2.5ø]&#45;&gt;Shoot -->
<g id="edge50" class="edge"><title>enemyRadar[LeftFront2.5ø]&#45;&gt;Shoot</title>
<path fill="none" stroke="green" stroke-width="0.552544" d="M712.012,-205.808C713.831,-188.158 718.251,-145.273 721.47,-114.05"/>
<polygon fill="green" stroke="green" stroke-width="0.552544" points="724.966,-114.268 722.509,-103.962 718.002,-113.55 724.966,-114.268"/>
</g>
<!-- enemyRadar[LeftFront2.5ø]&#45;&gt; Move Left/Right -->
<g id="edge60" class="edge"><title>enemyRadar[LeftFront2.5ø]&#45;&gt; Move Left/Right</title>
<path fill="none" stroke="red" stroke-width="0.932714" d="M729.252,-205.843C742.508,-200.347 761.099,-193.481 778.178,-190.149 1130.12,-121.5 1233.68,-229.859 1584.18,-154.149 1630.12,-144.225 1679.32,-124.243 1716.14,-107.248"/>
<polygon fill="red" stroke="red" stroke-width="0.932714" points="1717.65,-110.406 1725.22,-102.999 1714.68,-104.065 1717.65,-110.406"/>
</g>
<!-- enemyRadar[LeftFront2.5ø]&#45;&gt;Turn left/right -->
<g id="edge51" class="edge"><title>enemyRadar[LeftFront2.5ø]&#45;&gt;Turn left/right</title>
<path fill="none" stroke="red" stroke-width="0.499682" stroke-dasharray="1,5" d="M724.34,-205.808C755.085,-186.913 832.885,-139.098 884.086,-107.631"/>
<polygon fill="red" stroke="red" stroke-width="0.499682" points="886.004,-110.56 892.691,-102.342 882.339,-104.597 886.004,-110.56"/>
</g>
<!-- enemyRadar[Front7Ø] -->
<g id="node21" class="node"><title>enemyRadar[Front7Ø]</title>
<polygon fill="lightgray" stroke="black" points="1887.18,-223.898 1789.18,-223.898 1789.18,-205.898 1887.18,-205.898 1887.18,-223.898"/>
<text text-anchor="middle" x="1838.18" y="-212.698" font-family="Times,serif" font-size="9.00">enemyRadar[Front7Ø]</text>
</g>
<!-- enemyRadar[Front7Ø]&#45;&gt;Move Forward/Backward -->
<g id="edge58" class="edge"><title>enemyRadar[Front7Ø]&#45;&gt;Move Forward/Backward</title>
<path fill="none" stroke="green" stroke-width="0.753337" d="M1818.6,-205.823C1807.37,-201.204 1792.99,-195.319 1780.18,-190.149 1712.63,-162.899 1635.8,-132.395 1579.4,-110.099"/>
<polygon fill="green" stroke="green" stroke-width="0.753337" points="1580.42,-106.735 1569.83,-106.314 1577.84,-113.245 1580.42,-106.735"/>
</g>
<!-- enemyRadar[Front7Ø]&#45;&gt; Move Left/Right -->
<g id="edge52" class="edge"><title>enemyRadar[Front7Ø]&#45;&gt; Move Left/Right</title>
<path fill="none" stroke="green" stroke-width="0.75966" stroke-dasharray="1,5" d="M1834.37,-205.808C1827.94,-192.168 1814.41,-163.458 1801.8,-136.706"/>
<polygon fill="green" stroke="green" stroke-width="0.75966" points="1804.83,-134.907 1797.4,-127.353 1798.49,-137.891 1804.83,-134.907"/>
</g>
<!-- enemyRadar[Front7Ø]&#45;&gt;Turn left/right -->
<g id="edge53" class="edge"><title>enemyRadar[Front7Ø]&#45;&gt;Turn left/right</title>
<path fill="none" stroke="red" stroke-width="4.12856" d="M1821.86,-205.716C1810.47,-200.382 1794.75,-193.763 1780.18,-190.149 1620.67,-150.595 1575.18,-175.021 1412.18,-154.149 1258.06,-134.416 1077.29,-103.707 987.961,-88.0246"/>
<polygon fill="red" stroke="red" stroke-width="4.12856" points="988.522,-84.4554 978.048,-86.2798 987.27,-91.571 988.522,-84.4554"/>
</g>
<!-- OnTarget -->
<g id="node22" class="node"><title>OnTarget</title>
<polygon fill="lightgray" stroke="black" points="2179.18,-223.898 2129.18,-223.898 2129.18,-205.898 2179.18,-205.898 2179.18,-223.898"/>
<text text-anchor="middle" x="2154.18" y="-212.698" font-family="Times,serif" font-size="9.00">OnTarget</text>
</g>
<!-- OnTarget&#45;&gt;Move Forward/Backward -->
<g id="edge54" class="edge"><title>OnTarget&#45;&gt;Move Forward/Backward</title>
<path fill="none" stroke="red" stroke-width="1.216" d="M2145.4,-205.81C2138.93,-200.373 2129.65,-193.593 2120.18,-190.149 1948.26,-127.658 1888.85,-193.364 1710.18,-154.149 1665.64,-144.373 1617.68,-127.717 1578.67,-112.478"/>
<polygon fill="red" stroke="red" stroke-width="1.216" points="1579.54,-109.058 1568.95,-108.64 1576.96,-115.569 1579.54,-109.058"/>
</g>
<!-- OnTarget&#45;&gt; Move Left/Right -->
<g id="edge55" class="edge"><title>OnTarget&#45;&gt; Move Left/Right</title>
<path fill="none" stroke="green" stroke-width="0.36489" stroke-dasharray="1,5" d="M2144.26,-205.785C2137.73,-200.751 2128.82,-194.445 2120.18,-190.149 2026.36,-143.493 1908.78,-110.231 1837.67,-92.6031"/>
<polygon fill="green" stroke="green" stroke-width="0.36489" points="1838.5,-89.2024 1827.96,-90.2197 1836.83,-96.001 1838.5,-89.2024"/>
</g>
<!-- bias -->
<g id="node23" class="node"><title>bias</title>
<polygon fill="lightgray" stroke="black" points="142.678,-223.898 111.678,-223.898 111.678,-205.898 142.678,-205.898 142.678,-223.898"/>
<text text-anchor="middle" x="127.178" y="-212.698" font-family="Times,serif" font-size="9.00">bias</text>
</g>
<!-- bias&#45;&gt;Shoot -->
<g id="edge56" class="edge"><title>bias&#45;&gt;Shoot</title>
<path fill="none" stroke="red" stroke-width="0.294156" stroke-dasharray="1,5" d="M133.738,-205.597C138.339,-200.352 144.943,-193.883 152.178,-190.149 336.702,-94.9164 592.825,-80.3307 687.799,-78.3039"/>
<polygon fill="red" stroke="red" stroke-width="0.294156" points="688.112,-81.799 698.049,-78.1216 687.988,-74.8001 688.112,-81.799"/>
</g>
<!-- bias&#45;&gt;Turn left/right -->
<g id="edge57" class="edge"><title>bias&#45;&gt;Turn left/right</title>
<path fill="none" stroke="green" stroke-width="1.25589" stroke-dasharray="1,5" d="M133.189,-205.743C137.733,-200.275 144.489,-193.485 152.178,-190.149 276.544,-136.186 629.456,-186.219 761.178,-154.149 804.031,-143.716 849.516,-122.959 882.793,-105.759"/>
<polygon fill="green" stroke="green" stroke-width="1.25589" points="884.612,-108.758 891.843,-101.014 881.361,-102.558 884.612,-108.758"/>
</g>
<!-- 7631&#45;&gt; Move Left/Right -->
<g id="edge62" class="edge"><title>7631&#45;&gt; Move Left/Right</title>
<path fill="none" stroke="green" stroke-width="0.467009" d="M2566.32,-199.691C2560.4,-196.056 2553.74,-192.512 2547.18,-190.149 2296.61,-99.9664 1975.58,-82.1928 1839.65,-78.8055"/>
<polygon fill="green" stroke="green" stroke-width="0.467009" points="1839.48,-75.3008 1829.41,-78.569 1839.32,-82.299 1839.48,-75.3008"/>
</g>
</g>
</svg>
