<?xml version="1.0" encoding="UTF-8" standalone="no"?>
<!DOCTYPE svg PUBLIC "-//W3C//DTD SVG 1.1//EN"
 "http://www.w3.org/Graphics/SVG/1.1/DTD/svg11.dtd">
<!-- Generated by graphviz version 2.38.0 (20140413.2041)
 -->
<!-- Title: %3 Pages: 1 -->
<svg width="2559pt" height="216pt"
 viewBox="0.00 0.00 2559.00 216.15" xmlns="http://www.w3.org/2000/svg" xmlns:xlink="http://www.w3.org/1999/xlink">
<g id="graph0" class="graph" transform="scale(1 1) rotate(0) translate(4 212.149)">
<title>%3</title>
<polygon fill="white" stroke="none" points="-4,4 -4,-212.149 2555,-212.149 2555,4 -4,4"/>
<!-- wallRadar[1,0] -->
<g id="node1" class="node"><title>wallRadar[1,0]</title>
<polygon fill="lightgray" stroke="black" points="70,-208.149 0,-208.149 0,-190.149 70,-190.149 70,-208.149"/>
<text text-anchor="middle" x="35" y="-196.949" font-family="Times,serif" font-size="9.00">wallRadar[1,0]</text>
</g>
<!--  Move Left/Right -->
<g id="node26" class="node"><title> Move Left/Right</title>
<ellipse fill="lightblue" stroke="black" cx="846" cy="-77.0746" rx="55.3091" ry="55.3091"/>
<text text-anchor="middle" x="846" y="-74.8746" font-family="Times,serif" font-size="9.00"> Move Left/Right</text>
</g>
<!-- wallRadar[1,0]&#45;&gt; Move Left/Right -->
<g id="edge32" class="edge"><title>wallRadar[1,0]&#45;&gt; Move Left/Right</title>
<path fill="none" stroke="green" stroke-width="0.278816" d="M70.0454,-191.664C73.0718,-191.138 76.0885,-190.627 79,-190.149 338.506,-147.611 648.736,-104.713 781.051,-86.7888"/>
<polygon fill="green" stroke="green" stroke-width="0.278816" points="781.586,-90.2485 791.026,-85.4392 780.647,-83.3117 781.586,-90.2485"/>
</g>
<!-- wallRadar[0,1] -->
<g id="node2" class="node"><title>wallRadar[0,1]</title>
<polygon fill="lightgray" stroke="black" points="731,-208.149 661,-208.149 661,-190.149 731,-190.149 731,-208.149"/>
<text text-anchor="middle" x="696" y="-196.949" font-family="Times,serif" font-size="9.00">wallRadar[0,1]</text>
</g>
<!-- Shoot -->
<g id="node24" class="node"><title>Shoot</title>
<ellipse fill="lightblue" stroke="black" cx="1017" cy="-77.0746" rx="26.7407" ry="26.7407"/>
<text text-anchor="middle" x="1017" y="-74.8746" font-family="Times,serif" font-size="9.00">Shoot</text>
</g>
<!-- wallRadar[0,1]&#45;&gt;Shoot -->
<g id="edge43" class="edge"><title>wallRadar[0,1]&#45;&gt;Shoot</title>
<path fill="none" stroke="green" stroke-width="0.391275" d="M731.168,-191.741C787.618,-181.333 893.784,-161.205 910,-154.149 939.521,-141.304 969.04,-119.473 989.572,-102.484"/>
<polygon fill="green" stroke="green" stroke-width="0.391275" points="991.864,-105.129 997.252,-96.0065 987.351,-99.7782 991.864,-105.129"/>
</g>
<!-- wallRadar[&#45;1,0] -->
<g id="node3" class="node"><title>wallRadar[&#45;1,0]</title>
<polygon fill="lightgray" stroke="black" points="1529.5,-208.149 1456.5,-208.149 1456.5,-190.149 1529.5,-190.149 1529.5,-208.149"/>
<text text-anchor="middle" x="1493" y="-196.949" font-family="Times,serif" font-size="9.00">wallRadar[&#45;1,0]</text>
</g>
<!-- Move Forward/Backward -->
<g id="node25" class="node"><title>Move Forward/Backward</title>
<ellipse fill="lightblue" stroke="black" cx="1423" cy="-77.0746" rx="77.1494" ry="77.1494"/>
<text text-anchor="middle" x="1423" y="-74.8746" font-family="Times,serif" font-size="9.00">Move Forward/Backward</text>
</g>
<!-- wallRadar[&#45;1,0]&#45;&gt;Move Forward/Backward -->
<g id="edge46" class="edge"><title>wallRadar[&#45;1,0]&#45;&gt;Move Forward/Backward</title>
<path fill="none" stroke="green" stroke-width="0.109675" d="M1488.19,-189.896C1483.36,-181.613 1475.4,-167.965 1466.68,-152.999"/>
<polygon fill="green" stroke="green" stroke-width="0.109675" points="1469.53,-150.942 1461.47,-144.066 1463.48,-154.468 1469.53,-150.942"/>
</g>
<!-- wallRadar[&#45;1,0]&#45;&gt; Move Left/Right -->
<g id="edge14" class="edge"><title>wallRadar[&#45;1,0]&#45;&gt; Move Left/Right</title>
<path fill="none" stroke="red" stroke-width="0.143986" d="M1456.21,-191.303C1453.44,-190.88 1450.68,-190.489 1448,-190.149 1241.49,-163.899 1180.18,-214.683 981,-154.149 952.344,-145.44 923.081,-129.919 899.158,-115.157"/>
<polygon fill="red" stroke="red" stroke-width="0.143986" points="900.924,-112.133 890.597,-109.767 897.194,-118.057 900.924,-112.133"/>
</g>
<!-- Turn left/right -->
<g id="node27" class="node"><title>Turn left/right</title>
<ellipse fill="lightblue" stroke="black" cx="1609" cy="-77.0746" rx="46.8387" ry="46.8387"/>
<text text-anchor="middle" x="1609" y="-74.8746" font-family="Times,serif" font-size="9.00">Turn left/right</text>
</g>
<!-- wallRadar[&#45;1,0]&#45;&gt;Turn left/right -->
<g id="edge27" class="edge"><title>wallRadar[&#45;1,0]&#45;&gt;Turn left/right</title>
<path fill="none" stroke="green" stroke-width="0.453111" d="M1500.97,-189.896C1515,-175.38 1544.94,-144.384 1569.75,-118.699"/>
<polygon fill="green" stroke="green" stroke-width="0.453111" points="1572.5,-120.893 1576.93,-111.269 1567.47,-116.03 1572.5,-120.893"/>
</g>
<!-- wallRadar[0,&#45;1] -->
<g id="node4" class="node"><title>wallRadar[0,&#45;1]</title>
<polygon fill="lightgray" stroke="black" points="295.5,-208.149 222.5,-208.149 222.5,-190.149 295.5,-190.149 295.5,-208.149"/>
<text text-anchor="middle" x="259" y="-196.949" font-family="Times,serif" font-size="9.00">wallRadar[0,&#45;1]</text>
</g>
<!-- wallRadar[0,&#45;1]&#45;&gt;Shoot -->
<g id="edge7" class="edge"><title>wallRadar[0,&#45;1]&#45;&gt;Shoot</title>
<path fill="none" stroke="green" stroke-width="0.439529" d="M295.785,-191.249C298.559,-190.84 301.321,-190.466 304,-190.149 437.972,-174.316 782.76,-198.972 910,-154.149 940.556,-143.385 970.165,-121.124 990.46,-103.449"/>
<polygon fill="green" stroke="green" stroke-width="0.439529" points="992.901,-105.962 998.03,-96.6909 988.24,-100.74 992.901,-105.962"/>
</g>
<!-- wallRadar[0,&#45;1]&#45;&gt; Move Left/Right -->
<g id="edge20" class="edge"><title>wallRadar[0,&#45;1]&#45;&gt; Move Left/Right</title>
<path fill="none" stroke="green" stroke-width="0.20446" d="M295.719,-190.638C393.127,-170.713 659.029,-116.321 782.026,-91.1609"/>
<polygon fill="green" stroke="green" stroke-width="0.20446" points="782.958,-94.5429 792.054,-89.1097 781.555,-87.6849 782.958,-94.5429"/>
</g>
<!-- wallRadar[0.7,0.7] -->
<g id="node5" class="node"><title>wallRadar[0.7,0.7]</title>
<polygon fill="lightgray" stroke="black" points="1168.5,-208.149 1085.5,-208.149 1085.5,-190.149 1168.5,-190.149 1168.5,-208.149"/>
<text text-anchor="middle" x="1127" y="-196.949" font-family="Times,serif" font-size="9.00">wallRadar[0.7,0.7]</text>
</g>
<!-- wallRadar[0.7,0.7]&#45;&gt;Shoot -->
<g id="edge51" class="edge"><title>wallRadar[0.7,0.7]&#45;&gt;Shoot</title>
<path fill="none" stroke="green" stroke-width="0.604611" d="M1119.44,-189.896C1103.71,-172.728 1066.86,-132.506 1041.93,-105.285"/>
<polygon fill="green" stroke="green" stroke-width="0.604611" points="1044.26,-102.648 1034.92,-97.6381 1039.1,-107.376 1044.26,-102.648"/>
</g>
<!-- wallRadar[0.7,0.7]&#45;&gt;Move Forward/Backward -->
<g id="edge19" class="edge"><title>wallRadar[0.7,0.7]&#45;&gt;Move Forward/Backward</title>
<path fill="none" stroke="green" stroke-width="0.217232" stroke-dasharray="1,5" d="M1146.88,-190.084C1186.17,-174.147 1275.7,-137.826 1342.23,-110.84"/>
<polygon fill="green" stroke="green" stroke-width="0.217232" points="1343.92,-113.932 1351.87,-106.93 1341.29,-107.446 1343.92,-113.932"/>
</g>
<!-- wallRadar[0.7,0.7]&#45;&gt; Move Left/Right -->
<g id="edge5" class="edge"><title>wallRadar[0.7,0.7]&#45;&gt; Move Left/Right</title>
<path fill="none" stroke="red" stroke-width="0.258829" d="M1092.62,-190.077C1062.55,-182.481 1018.02,-169.928 981,-154.149 953.669,-142.499 924.795,-126.743 900.796,-112.591"/>
<polygon fill="red" stroke="red" stroke-width="0.258829" points="902.568,-109.574 892.186,-107.461 898.985,-115.587 902.568,-109.574"/>
</g>
<!-- wallRadar[0.7,0.7]&#45;&gt;Turn left/right -->
<g id="edge11" class="edge"><title>wallRadar[0.7,0.7]&#45;&gt;Turn left/right</title>
<path fill="none" stroke="red" stroke-width="0.31733" d="M1168.73,-191.44C1171.86,-190.986 1174.98,-190.55 1178,-190.149 1324.69,-170.678 1371.54,-208.947 1509,-154.149 1530.24,-145.68 1550.86,-131.388 1567.8,-117.463"/>
<polygon fill="red" stroke="red" stroke-width="0.31733" points="1570.44,-119.817 1575.81,-110.684 1565.91,-114.475 1570.44,-119.817"/>
</g>
<!-- wallRadar[&#45;0.7,0.7] -->
<g id="node6" class="node"><title>wallRadar[&#45;0.7,0.7]</title>
<polygon fill="lightgray" stroke="black" points="835,-208.149 749,-208.149 749,-190.149 835,-190.149 835,-208.149"/>
<text text-anchor="middle" x="792" y="-196.949" font-family="Times,serif" font-size="9.00">wallRadar[&#45;0.7,0.7]</text>
</g>
<!-- wallRadar[&#45;0.7,0.7]&#45;&gt;Shoot -->
<g id="edge13" class="edge"><title>wallRadar[&#45;0.7,0.7]&#45;&gt;Shoot</title>
<path fill="none" stroke="green" stroke-width="0.258179" d="M819.581,-190.122C844.069,-182.474 880.445,-169.818 910,-154.149 938.319,-139.136 967.813,-117.661 988.646,-101.354"/>
<polygon fill="green" stroke="green" stroke-width="0.258179" points="991.076,-103.894 996.738,-94.9386 986.727,-98.4087 991.076,-103.894"/>
</g>
<!-- wallRadar[&#45;0.7,0.7]&#45;&gt; Move Left/Right -->
<g id="edge54" class="edge"><title>wallRadar[&#45;0.7,0.7]&#45;&gt; Move Left/Right</title>
<path fill="none" stroke="green" stroke-width="0.296028" d="M795.712,-189.896C800.756,-178.68 810.224,-157.626 819.597,-136.784"/>
<polygon fill="green" stroke="green" stroke-width="0.296028" points="822.828,-138.134 823.737,-127.578 816.444,-135.263 822.828,-138.134"/>
</g>
<!-- wallRadar[&#45;0.7,0.7]&#45;&gt;Turn left/right -->
<g id="edge39" class="edge"><title>wallRadar[&#45;0.7,0.7]&#45;&gt;Turn left/right</title>
<path fill="none" stroke="green" stroke-width="0.278875" d="M835.055,-191.298C838.415,-190.871 841.76,-190.481 845,-190.149 992.004,-175.104 1370.3,-205.133 1509,-154.149 1530.64,-146.194 1551.46,-131.838 1568.45,-117.724"/>
<polygon fill="green" stroke="green" stroke-width="0.278875" points="1571.15,-120.012 1576.46,-110.844 1566.6,-114.7 1571.15,-120.012"/>
</g>
<!-- wallRadar[&#45;0.7,&#45;0.7] -->
<g id="node7" class="node"><title>wallRadar[&#45;0.7,&#45;0.7]</title>
<polygon fill="lightgray" stroke="black" points="642.5,-208.149 553.5,-208.149 553.5,-190.149 642.5,-190.149 642.5,-208.149"/>
<text text-anchor="middle" x="598" y="-196.949" font-family="Times,serif" font-size="9.00">wallRadar[&#45;0.7,&#45;0.7]</text>
</g>
<!-- wallRadar[&#45;0.7,&#45;0.7]&#45;&gt;Shoot -->
<g id="edge45" class="edge"><title>wallRadar[&#45;0.7,&#45;0.7]&#45;&gt;Shoot</title>
<path fill="none" stroke="red" stroke-width="0.174217" d="M642.785,-191.485C645.903,-191.03 648.998,-190.581 652,-190.149 766.598,-173.666 802.411,-196.916 910,-154.149 940.105,-142.183 969.764,-120.054 990.193,-102.735"/>
<polygon fill="red" stroke="red" stroke-width="0.174217" points="992.553,-105.321 997.819,-96.128 987.969,-100.031 992.553,-105.321"/>
</g>
<!-- wallRadar[&#45;0.7,&#45;0.7]&#45;&gt; Move Left/Right -->
<g id="edge15" class="edge"><title>wallRadar[&#45;0.7,&#45;0.7]&#45;&gt; Move Left/Right</title>
<path fill="none" stroke="red" stroke-width="0.12358" d="M614.657,-190.084C649.429,-173.249 731.18,-133.667 787.556,-106.372"/>
<polygon fill="red" stroke="red" stroke-width="0.12358" points="789.248,-109.441 796.723,-101.933 786.197,-103.141 789.248,-109.441"/>
</g>
<!-- wallRadar[&#45;0.7,&#45;0.7]&#45;&gt;Turn left/right -->
<g id="edge4" class="edge"><title>wallRadar[&#45;0.7,&#45;0.7]&#45;&gt;Turn left/right</title>
<path fill="none" stroke="red" stroke-width="0.402994" d="M642.745,-191.151C645.873,-190.775 648.981,-190.436 652,-190.149 841.761,-172.157 1329.69,-218.822 1509,-154.149 1530.69,-146.326 1551.52,-131.993 1568.5,-117.861"/>
<polygon fill="red" stroke="red" stroke-width="0.402994" points="1571.21,-120.143 1576.51,-110.968 1566.65,-114.836 1571.21,-120.143"/>
</g>
<!-- wallRadar[0.7,&#45;0.7] -->
<g id="node8" class="node"><title>wallRadar[0.7,&#45;0.7]</title>
<polygon fill="lightgray" stroke="black" points="2417,-208.149 2331,-208.149 2331,-190.149 2417,-190.149 2417,-208.149"/>
<text text-anchor="middle" x="2374" y="-196.949" font-family="Times,serif" font-size="9.00">wallRadar[0.7,&#45;0.7]</text>
</g>
<!-- wallRadar[0.7,&#45;0.7]&#45;&gt;Turn left/right -->
<g id="edge10" class="edge"><title>wallRadar[0.7,&#45;0.7]&#45;&gt;Turn left/right</title>
<path fill="none" stroke="red" stroke-width="0.148812" d="M2330.96,-191.393C2200.84,-170.969 1811.59,-109.873 1665.36,-86.9204"/>
<polygon fill="red" stroke="red" stroke-width="0.148812" points="1665.68,-83.4278 1655.25,-85.3348 1664.59,-90.3432 1665.68,-83.4278"/>
</g>
<!-- enemyRadar[RightBack] -->
<g id="node9" class="node"><title>enemyRadar[RightBack]</title>
<polygon fill="lightgray" stroke="black" points="535,-208.149 431,-208.149 431,-190.149 535,-190.149 535,-208.149"/>
<text text-anchor="middle" x="483" y="-196.949" font-family="Times,serif" font-size="9.00">enemyRadar[RightBack]</text>
</g>
<!-- enemyRadar[RightBack]&#45;&gt;Shoot -->
<g id="edge18" class="edge"><title>enemyRadar[RightBack]&#45;&gt;Shoot</title>
<path fill="none" stroke="red" stroke-width="0.160523" d="M535.081,-191.314C538.437,-190.909 541.765,-190.517 545,-190.149 706.964,-171.717 757.336,-211.296 910,-154.149 940.34,-142.792 969.973,-120.596 990.332,-103.097"/>
<polygon fill="red" stroke="red" stroke-width="0.160523" points="992.733,-105.646 997.929,-96.4132 988.11,-100.391 992.733,-105.646"/>
</g>
<!-- enemyRadar[RightBack]&#45;&gt;Move Forward/Backward -->
<g id="edge52" class="edge"><title>enemyRadar[RightBack]&#45;&gt;Move Forward/Backward</title>
<path fill="none" stroke="red" stroke-width="0.275261" d="M535.07,-191.21C538.428,-190.83 541.76,-190.473 545,-190.149 770.224,-167.657 828.77,-185.009 1053,-154.149 1151.86,-140.544 1263.92,-116.234 1338.56,-98.7526"/>
<polygon fill="red" stroke="red" stroke-width="0.275261" points="1339.45,-102.139 1348.38,-96.4408 1337.85,-95.3249 1339.45,-102.139"/>
</g>
<!-- enemyRadar[RightBack]&#45;&gt; Move Left/Right -->
<g id="edge2" class="edge"><title>enemyRadar[RightBack]&#45;&gt; Move Left/Right</title>
<path fill="none" stroke="red" stroke-width="0.362814" d="M507.381,-190.084C563.365,-171.566 702.548,-125.526 783.983,-98.5888"/>
<polygon fill="red" stroke="red" stroke-width="0.362814" points="785.224,-101.865 793.619,-95.4015 783.025,-95.2192 785.224,-101.865"/>
</g>
<!-- enemyRadar[LeftBack] -->
<g id="node10" class="node"><title>enemyRadar[LeftBack]</title>
<polygon fill="lightgray" stroke="black" points="412.5,-208.149 313.5,-208.149 313.5,-190.149 412.5,-190.149 412.5,-208.149"/>
<text text-anchor="middle" x="363" y="-196.949" font-family="Times,serif" font-size="9.00">enemyRadar[LeftBack]</text>
</g>
<!-- enemyRadar[LeftBack]&#45;&gt;Shoot -->
<g id="edge30" class="edge"><title>enemyRadar[LeftBack]&#45;&gt;Shoot</title>
<path fill="none" stroke="red" stroke-width="0.423287" d="M412.548,-191.207C415.744,-190.829 418.916,-190.472 422,-190.149 530.149,-178.839 807.699,-191.011 910,-154.149 940.478,-143.167 970.096,-120.929 990.414,-103.32"/>
<polygon fill="red" stroke="red" stroke-width="0.423287" points="992.84,-105.846 997.994,-96.5888 988.193,-100.612 992.84,-105.846"/>
</g>
<!-- enemyRadar[LeftBack]&#45;&gt;Move Forward/Backward -->
<g id="edge56" class="edge"><title>enemyRadar[LeftBack]&#45;&gt;Move Forward/Backward</title>
<path fill="none" stroke="red" stroke-width="0.152156" d="M412.542,-191.147C415.74,-190.783 418.913,-190.446 422,-190.149 701.61,-163.258 774.466,-190.532 1053,-154.149 1151.95,-141.224 1264,-116.786 1338.61,-99.0883"/>
<polygon fill="red" stroke="red" stroke-width="0.152156" points="1339.51,-102.471 1348.43,-96.747 1337.89,-95.6621 1339.51,-102.471"/>
</g>
<!-- enemyRadar[LeftBack]&#45;&gt; Move Left/Right -->
<g id="edge12" class="edge"><title>enemyRadar[LeftBack]&#45;&gt; Move Left/Right</title>
<path fill="none" stroke="red" stroke-width="0.2799" d="M395.441,-190.084C474.534,-170.422 678.427,-119.734 782.637,-93.8267"/>
<polygon fill="red" stroke="red" stroke-width="0.2799" points="783.543,-97.2081 792.403,-91.3989 781.854,-90.4149 783.543,-97.2081"/>
</g>
<!-- enemyRadar[Right45ø] -->
<g id="node11" class="node"><title>enemyRadar[Right45ø]</title>
<polygon fill="lightgray" stroke="black" points="1067,-208.149 967,-208.149 967,-190.149 1067,-190.149 1067,-208.149"/>
<text text-anchor="middle" x="1017" y="-196.949" font-family="Times,serif" font-size="9.00">enemyRadar[Right45ø]</text>
</g>
<!-- enemyRadar[Right45ø]&#45;&gt;Shoot -->
<g id="edge48" class="edge"><title>enemyRadar[Right45ø]&#45;&gt;Shoot</title>
<path fill="none" stroke="red" stroke-width="0.300534" d="M1017,-189.896C1017,-174.554 1017,-140.799 1017,-114.366"/>
<polygon fill="red" stroke="red" stroke-width="0.300534" points="1020.5,-114.286 1017,-104.286 1013.5,-114.286 1020.5,-114.286"/>
</g>
<!-- enemyRadar[Right45ø]&#45;&gt;Move Forward/Backward -->
<g id="edge33" class="edge"><title>enemyRadar[Right45ø]&#45;&gt;Move Forward/Backward</title>
<path fill="none" stroke="red" stroke-width="0.115569" d="M1044.27,-190.084C1103.77,-172.487 1247.29,-130.04 1339.58,-102.747"/>
<polygon fill="red" stroke="red" stroke-width="0.115569" points="1340.58,-106.1 1349.18,-99.9076 1338.6,-99.3875 1340.58,-106.1"/>
</g>
<!-- enemyRadar[Right45ø]&#45;&gt; Move Left/Right -->
<g id="edge49" class="edge"><title>enemyRadar[Right45ø]&#45;&gt; Move Left/Right</title>
<path fill="none" stroke="red" stroke-width="0.320013" d="M1005.51,-190.084C984.072,-175.028 936.721,-141.778 899.148,-115.395"/>
<polygon fill="red" stroke="red" stroke-width="0.320013" points="901.001,-112.419 890.806,-109.537 896.979,-118.148 901.001,-112.419"/>
</g>
<!-- enemyRadar[Right45ø]&#45;&gt;Turn left/right -->
<g id="edge41" class="edge"><title>enemyRadar[Right45ø]&#45;&gt;Turn left/right</title>
<path fill="none" stroke="green" stroke-width="0.362702" d="M1067.07,-191.285C1070.43,-190.883 1073.76,-190.5 1077,-190.149 1172.77,-179.78 1419.07,-188.692 1509,-154.149 1530.52,-145.881 1551.32,-131.471 1568.33,-117.401"/>
<polygon fill="green" stroke="green" stroke-width="0.362702" points="1571.02,-119.703 1576.35,-110.549 1566.47,-114.379 1571.02,-119.703"/>
</g>
<!-- enemyRadar[Left45ø] -->
<g id="node12" class="node"><title>enemyRadar[Left45ø]</title>
<polygon fill="lightgray" stroke="black" points="948.5,-208.149 853.5,-208.149 853.5,-190.149 948.5,-190.149 948.5,-208.149"/>
<text text-anchor="middle" x="901" y="-196.949" font-family="Times,serif" font-size="9.00">enemyRadar[Left45ø]</text>
</g>
<!-- enemyRadar[Left45ø]&#45;&gt; Move Left/Right -->
<g id="edge9" class="edge"><title>enemyRadar[Left45ø]&#45;&gt; Move Left/Right</title>
<path fill="none" stroke="green" stroke-width="0.288291" d="M897.22,-189.896C892.082,-178.68 882.438,-157.626 872.892,-136.784"/>
<polygon fill="green" stroke="green" stroke-width="0.288291" points="876.022,-135.212 868.675,-127.578 869.657,-138.128 876.022,-135.212"/>
</g>
<!-- enemyRadar[Left45ø]&#45;&gt;Turn left/right -->
<g id="edge21" class="edge"><title>enemyRadar[Left45ø]&#45;&gt;Turn left/right</title>
<path fill="none" stroke="green" stroke-width="0.751327" d="M948.554,-191.206C951.747,-190.823 954.918,-190.466 958,-190.149 1080.06,-177.613 1394.07,-197.122 1509,-154.149 1530.6,-146.074 1551.41,-131.698 1568.4,-117.6"/>
<polygon fill="green" stroke="green" stroke-width="0.751327" points="1571.1,-119.894 1576.42,-110.731 1566.55,-114.577 1571.1,-119.894"/>
</g>
<!-- enemyRadar[RightFront20ø] -->
<g id="node13" class="node"><title>enemyRadar[RightFront20ø]</title>
<polygon fill="lightgray" stroke="black" points="2015.5,-208.149 1896.5,-208.149 1896.5,-190.149 2015.5,-190.149 2015.5,-208.149"/>
<text text-anchor="middle" x="1956" y="-196.949" font-family="Times,serif" font-size="9.00">enemyRadar[RightFront20ø]</text>
</g>
<!-- enemyRadar[RightFront20ø]&#45;&gt;Shoot -->
<g id="edge8" class="edge"><title>enemyRadar[RightFront20ø]&#45;&gt;Shoot</title>
<path fill="none" stroke="red" stroke-width="0.434658" d="M1896.18,-191.028C1893.08,-190.717 1890,-190.421 1887,-190.149 1643.03,-168.036 1579.24,-190.607 1337,-154.149 1232.33,-138.396 1111.46,-105.569 1052.73,-88.6541"/>
<polygon fill="red" stroke="red" stroke-width="0.434658" points="1053.42,-85.2101 1042.84,-85.7866 1051.47,-91.9332 1053.42,-85.2101"/>
</g>
<!-- enemyRadar[RightFront20ø]&#45;&gt;Turn left/right -->
<g id="edge31" class="edge"><title>enemyRadar[RightFront20ø]&#45;&gt;Turn left/right</title>
<path fill="none" stroke="red" stroke-width="0.403698" d="M1932.69,-190.084C1877.83,-171.099 1739.37,-123.189 1662.51,-96.5896"/>
<polygon fill="red" stroke="red" stroke-width="0.403698" points="1663.59,-93.2602 1652.99,-93.2976 1661.3,-99.8754 1663.59,-93.2602"/>
</g>
<!-- enemyRadar[LeftFront20ø] -->
<g id="node14" class="node"><title>enemyRadar[LeftFront20ø]</title>
<polygon fill="lightgray" stroke="black" points="2197,-208.149 2083,-208.149 2083,-190.149 2197,-190.149 2197,-208.149"/>
<text text-anchor="middle" x="2140" y="-196.949" font-family="Times,serif" font-size="9.00">enemyRadar[LeftFront20ø]</text>
</g>
<!-- enemyRadar[LeftFront20ø]&#45;&gt;Shoot -->
<g id="edge17" class="edge"><title>enemyRadar[LeftFront20ø]&#45;&gt;Shoot</title>
<path fill="none" stroke="red" stroke-width="0.302609" d="M2082.79,-190.96C2079.82,-190.666 2076.88,-190.393 2074,-190.149 1747.23,-162.4 1661.69,-200.27 1337,-154.149 1232.2,-139.262 1111.39,-106.047 1052.7,-88.8521"/>
<polygon fill="red" stroke="red" stroke-width="0.302609" points="1053.4,-85.4095 1042.82,-85.9356 1051.42,-92.1232 1053.4,-85.4095"/>
</g>
<!-- enemyRadar[LeftFront20ø]&#45;&gt;Move Forward/Backward -->
<g id="edge3" class="edge"><title>enemyRadar[LeftFront20ø]&#45;&gt;Move Forward/Backward</title>
<path fill="none" stroke="red" stroke-width="0.11881" d="M2082.78,-191.03C2079.81,-190.719 2076.87,-190.422 2074,-190.149 1842.93,-168.177 1774.79,-222.57 1553,-154.149 1532.92,-147.955 1512.64,-138.155 1494.26,-127.623"/>
<polygon fill="red" stroke="red" stroke-width="0.11881" points="1495.79,-124.463 1485.4,-122.406 1492.24,-130.496 1495.79,-124.463"/>
</g>
<!-- enemyRadar[LeftFront20ø]&#45;&gt;Turn left/right -->
<g id="edge29" class="edge"><title>enemyRadar[LeftFront20ø]&#45;&gt;Turn left/right</title>
<path fill="none" stroke="green" stroke-width="0.12876" d="M2104.34,-190.084C2013.57,-169.561 1773.33,-115.234 1664.26,-90.5701"/>
<polygon fill="green" stroke="green" stroke-width="0.12876" points="1664.96,-87.1407 1654.44,-88.3488 1663.42,-93.9683 1664.96,-87.1407"/>
</g>
<!-- enemyRadar[RightFront15ø] -->
<g id="node15" class="node"><title>enemyRadar[RightFront15ø]</title>
<polygon fill="lightgray" stroke="black" points="1438.5,-208.149 1319.5,-208.149 1319.5,-190.149 1438.5,-190.149 1438.5,-208.149"/>
<text text-anchor="middle" x="1379" y="-196.949" font-family="Times,serif" font-size="9.00">enemyRadar[RightFront15ø]</text>
</g>
<!-- enemyRadar[RightFront15ø]&#45;&gt;Shoot -->
<g id="edge35" class="edge"><title>enemyRadar[RightFront15ø]&#45;&gt;Shoot</title>
<path fill="none" stroke="green" stroke-width="0.183237" d="M1354.69,-190.084C1292.16,-169.343 1125.55,-114.08 1052.34,-89.7968"/>
<polygon fill="green" stroke="green" stroke-width="0.183237" points="1053.24,-86.4091 1042.65,-86.5827 1051.04,-93.0531 1053.24,-86.4091"/>
</g>
<!-- enemyRadar[RightFront15ø]&#45;&gt;Move Forward/Backward -->
<g id="edge28" class="edge"><title>enemyRadar[RightFront15ø]&#45;&gt;Move Forward/Backward</title>
<path fill="none" stroke="green" stroke-width="0.362613" d="M1382.02,-189.896C1384.62,-182.803 1388.67,-171.774 1393.22,-159.352"/>
<polygon fill="green" stroke="green" stroke-width="0.362613" points="1396.63,-160.218 1396.78,-149.624 1390.05,-157.809 1396.63,-160.218"/>
</g>
<!-- enemyRadar[LeftFront15ø] -->
<g id="node16" class="node"><title>enemyRadar[LeftFront15ø]</title>
<polygon fill="lightgray" stroke="black" points="1301,-208.149 1187,-208.149 1187,-190.149 1301,-190.149 1301,-208.149"/>
<text text-anchor="middle" x="1244" y="-196.949" font-family="Times,serif" font-size="9.00">enemyRadar[LeftFront15ø]</text>
</g>
<!-- enemyRadar[LeftFront15ø]&#45;&gt;Shoot -->
<g id="edge34" class="edge"><title>enemyRadar[LeftFront15ø]&#45;&gt;Shoot</title>
<path fill="none" stroke="green" stroke-width="0.113363" d="M1228.75,-190.084C1192.24,-170.769 1099.13,-121.516 1049.42,-95.2238"/>
<polygon fill="green" stroke="green" stroke-width="0.113363" points="1050.85,-92.0225 1040.38,-90.4405 1047.58,-98.2102 1050.85,-92.0225"/>
</g>
<!-- enemyRadar[LeftFront15ø]&#45;&gt;Move Forward/Backward -->
<g id="edge25" class="edge"><title>enemyRadar[LeftFront15ø]&#45;&gt;Move Forward/Backward</title>
<path fill="none" stroke="green" stroke-width="0.388376" d="M1256.02,-190.084C1275.4,-177.087 1314.98,-150.532 1350.75,-126.54"/>
<polygon fill="green" stroke="green" stroke-width="0.388376" points="1352.91,-129.305 1359.27,-120.828 1349.01,-123.492 1352.91,-129.305"/>
</g>
<!-- enemyRadar[LeftFront15ø]&#45;&gt; Move Left/Right -->
<g id="edge36" class="edge"><title>enemyRadar[LeftFront15ø]&#45;&gt; Move Left/Right</title>
<path fill="none" stroke="green" stroke-width="0.472116" d="M1186.88,-190.948C1121.3,-182.267 1018,-167.214 981,-154.149 952.872,-144.216 923.783,-128.616 899.844,-114.121"/>
<polygon fill="green" stroke="green" stroke-width="0.472116" points="901.619,-111.104 891.268,-108.843 897.95,-117.065 901.619,-111.104"/>
</g>
<!-- enemyRadar[LeftFront15ø]&#45;&gt;Turn left/right -->
<g id="edge38" class="edge"><title>enemyRadar[LeftFront15ø]&#45;&gt;Turn left/right</title>
<path fill="none" stroke="green" stroke-width="0.398081" d="M1301.17,-190.15C1373.31,-179.827 1490.27,-162.234 1509,-154.149 1530,-145.087 1550.57,-130.687 1567.54,-116.843"/>
<polygon fill="green" stroke="green" stroke-width="0.398081" points="1570.15,-119.221 1575.57,-110.116 1565.66,-113.855 1570.15,-119.221"/>
</g>
<!-- enemyRadar[RightFront7.5ø] -->
<g id="node17" class="node"><title>enemyRadar[RightFront7.5ø]</title>
<polygon fill="lightgray" stroke="black" points="1670,-208.149 1548,-208.149 1548,-190.149 1670,-190.149 1670,-208.149"/>
<text text-anchor="middle" x="1609" y="-196.949" font-family="Times,serif" font-size="9.00">enemyRadar[RightFront7.5ø]</text>
</g>
<!-- enemyRadar[RightFront7.5ø]&#45;&gt;Move Forward/Backward -->
<g id="edge23" class="edge"><title>enemyRadar[RightFront7.5ø]&#45;&gt;Move Forward/Backward</title>
<path fill="none" stroke="green" stroke-width="0.158896" d="M1596.51,-190.084C1575.99,-176.836 1533.65,-149.504 1495.93,-125.157"/>
<polygon fill="green" stroke="green" stroke-width="0.158896" points="1497.77,-122.174 1487.47,-119.691 1493.97,-128.055 1497.77,-122.174"/>
</g>
<!-- enemyRadar[RightFront7.5ø]&#45;&gt; Move Left/Right -->
<g id="edge55" class="edge"><title>enemyRadar[RightFront7.5ø]&#45;&gt; Move Left/Right</title>
<path fill="none" stroke="red" stroke-width="0.316187" d="M1547.93,-190.991C1544.91,-190.693 1541.92,-190.411 1539,-190.149 1415.24,-179.091 1100.11,-189.537 981,-154.149 952.29,-145.62 923.02,-130.122 899.106,-115.329"/>
<polygon fill="red" stroke="red" stroke-width="0.316187" points="900.873,-112.306 890.549,-109.925 897.136,-118.224 900.873,-112.306"/>
</g>
<!-- enemyRadar[RightFront7.5ø]&#45;&gt;Turn left/right -->
<g id="edge24" class="edge"><title>enemyRadar[RightFront7.5ø]&#45;&gt;Turn left/right</title>
<path fill="none" stroke="red" stroke-width="0.123214" d="M1609,-189.896C1609,-178.186 1609,-155.752 1609,-134.032"/>
<polygon fill="red" stroke="red" stroke-width="0.123214" points="1612.5,-133.812 1609,-123.812 1605.5,-133.812 1612.5,-133.812"/>
</g>
<!-- enemyRadar[LeftFront7.5ø] -->
<g id="node18" class="node"><title>enemyRadar[LeftFront7.5ø]</title>
<polygon fill="lightgray" stroke="black" points="2551,-208.149 2435,-208.149 2435,-190.149 2551,-190.149 2551,-208.149"/>
<text text-anchor="middle" x="2493" y="-196.949" font-family="Times,serif" font-size="9.00">enemyRadar[LeftFront7.5ø]</text>
</g>
<!-- enemyRadar[RightFront2.5ø] -->
<g id="node19" class="node"><title>enemyRadar[RightFront2.5ø]</title>
<polygon fill="lightgray" stroke="black" points="1810,-208.149 1688,-208.149 1688,-190.149 1810,-190.149 1810,-208.149"/>
<text text-anchor="middle" x="1749" y="-196.949" font-family="Times,serif" font-size="9.00">enemyRadar[RightFront2.5ø]</text>
</g>
<!-- enemyRadar[RightFront2.5ø]&#45;&gt;Move Forward/Backward -->
<g id="edge6" class="edge"><title>enemyRadar[RightFront2.5ø]&#45;&gt;Move Forward/Backward</title>
<path fill="none" stroke="green" stroke-width="0.336056" d="M1691.87,-190.108C1652.01,-183.357 1598.1,-171.911 1553,-154.149 1533.66,-146.533 1513.79,-136.311 1495.6,-125.837"/>
<polygon fill="green" stroke="green" stroke-width="0.336056" points="1497.2,-122.722 1486.81,-120.685 1493.66,-128.761 1497.2,-122.722"/>
</g>
<!-- enemyRadar[RightFront2.5ø]&#45;&gt; Move Left/Right -->
<g id="edge40" class="edge"><title>enemyRadar[RightFront2.5ø]&#45;&gt; Move Left/Right</title>
<path fill="none" stroke="green" stroke-width="0.347964" d="M1687.94,-190.944C1684.92,-190.659 1681.93,-190.392 1679,-190.149 1524.21,-177.325 1130.17,-197.422 981,-154.149 952.236,-145.805 922.958,-130.331 899.054,-115.507"/>
<polygon fill="green" stroke="green" stroke-width="0.347964" points="900.822,-112.483 890.501,-110.089 897.076,-118.397 900.822,-112.483"/>
</g>
<!-- enemyRadar[RightFront2.5ø]&#45;&gt;Turn left/right -->
<g id="edge53" class="edge"><title>enemyRadar[RightFront2.5ø]&#45;&gt;Turn left/right</title>
<path fill="none" stroke="green" stroke-width="0.122772" d="M1739.38,-189.896C1721.55,-174.607 1682.41,-141.036 1651.64,-114.644"/>
<polygon fill="green" stroke="green" stroke-width="0.122772" points="1653.88,-111.958 1644.01,-108.105 1649.33,-117.272 1653.88,-111.958"/>
</g>
<!-- enemyRadar[LeftFront2.5ø] -->
<g id="node20" class="node"><title>enemyRadar[LeftFront2.5ø]</title>
<polygon fill="lightgray" stroke="black" points="204,-208.149 88,-208.149 88,-190.149 204,-190.149 204,-208.149"/>
<text text-anchor="middle" x="146" y="-196.949" font-family="Times,serif" font-size="9.00">enemyRadar[LeftFront2.5ø]</text>
</g>
<!-- enemyRadar[LeftFront2.5ø]&#45;&gt;Shoot -->
<g id="edge50" class="edge"><title>enemyRadar[LeftFront2.5ø]&#45;&gt;Shoot</title>
<path fill="none" stroke="green" stroke-width="0.369008" d="M204.08,-190.972C207.095,-190.675 210.082,-190.399 213,-190.149 367.532,-176.948 763.518,-205.115 910,-154.149 940.597,-143.504 970.202,-121.229 990.485,-103.519"/>
<polygon fill="green" stroke="green" stroke-width="0.369008" points="992.934,-106.024 998.05,-96.7462 988.265,-100.809 992.934,-106.024"/>
</g>
<!-- enemyRadar[LeftFront2.5ø]&#45;&gt; Move Left/Right -->
<g id="edge44" class="edge"><title>enemyRadar[LeftFront2.5ø]&#45;&gt; Move Left/Right</title>
<path fill="none" stroke="red" stroke-width="0.415496" d="M192.743,-190.131C314.523,-169.242 641.771,-113.107 781.416,-89.1531"/>
<polygon fill="red" stroke="red" stroke-width="0.415496" points="782.277,-92.5566 791.541,-87.4163 781.093,-85.6574 782.277,-92.5566"/>
</g>
<!-- enemyRadar[Front7Ø] -->
<g id="node21" class="node"><title>enemyRadar[Front7Ø]</title>
<polygon fill="lightgray" stroke="black" points="2313,-208.149 2215,-208.149 2215,-190.149 2313,-190.149 2313,-208.149"/>
<text text-anchor="middle" x="2264" y="-196.949" font-family="Times,serif" font-size="9.00">enemyRadar[Front7Ø]</text>
</g>
<!-- enemyRadar[Front7Ø]&#45;&gt;Move Forward/Backward -->
<g id="edge47" class="edge"><title>enemyRadar[Front7Ø]&#45;&gt;Move Forward/Backward</title>
<path fill="none" stroke="red" stroke-width="0.319208" d="M2214.99,-191.101C2211.95,-190.753 2208.93,-190.432 2206,-190.149 2061.34,-176.209 1692.17,-196.023 1553,-154.149 1532.88,-148.095 1512.58,-138.347 1494.2,-127.82"/>
<polygon fill="red" stroke="red" stroke-width="0.319208" points="1495.73,-124.661 1485.34,-122.602 1492.18,-130.693 1495.73,-124.661"/>
</g>
<!-- enemyRadar[Front7Ø]&#45;&gt;Turn left/right -->
<g id="edge26" class="edge"><title>enemyRadar[Front7Ø]&#45;&gt;Turn left/right</title>
<path fill="none" stroke="red" stroke-width="0.233298" d="M2220.26,-190.131C2105.01,-169.002 1793.06,-111.817 1665.01,-88.3429"/>
<polygon fill="red" stroke="red" stroke-width="0.233298" points="1665.49,-84.872 1655.02,-86.5114 1664.23,-91.7572 1665.49,-84.872"/>
</g>
<!-- OnTarget -->
<g id="node22" class="node"><title>OnTarget</title>
<polygon fill="lightgray" stroke="black" points="1878,-208.149 1828,-208.149 1828,-190.149 1878,-190.149 1878,-208.149"/>
<text text-anchor="middle" x="1853" y="-196.949" font-family="Times,serif" font-size="9.00">OnTarget</text>
</g>
<!-- OnTarget&#45;&gt;Shoot -->
<g id="edge1" class="edge"><title>OnTarget&#45;&gt;Shoot</title>
<path fill="none" stroke="red" stroke-width="0.496114" d="M1827.84,-191.765C1824.87,-191.151 1821.88,-190.592 1819,-190.149 1606.68,-157.448 1549.28,-187.096 1337,-154.149 1232.4,-137.915 1111.5,-105.303 1052.75,-88.5443"/>
<polygon fill="red" stroke="red" stroke-width="0.496114" points="1053.43,-85.0995 1042.85,-85.7041 1051.5,-91.8277 1053.43,-85.0995"/>
</g>
<!-- OnTarget&#45;&gt;Move Forward/Backward -->
<g id="edge42" class="edge"><title>OnTarget&#45;&gt;Move Forward/Backward</title>
<path fill="none" stroke="green" stroke-width="0.108777" d="M1827.81,-191.935C1824.85,-191.29 1821.86,-190.678 1819,-190.149 1701.69,-168.462 1665.79,-193.032 1553,-154.149 1533.24,-147.338 1513.15,-137.364 1494.86,-126.868"/>
<polygon fill="green" stroke="green" stroke-width="0.108777" points="1496.43,-123.731 1486.03,-121.684 1492.88,-129.767 1496.43,-123.731"/>
</g>
<!-- OnTarget&#45;&gt;Turn left/right -->
<g id="edge16" class="edge"><title>OnTarget&#45;&gt;Turn left/right</title>
<path fill="none" stroke="red" stroke-width="0.154979" d="M1836.61,-190.084C1801.06,-172.588 1715.58,-130.523 1660.09,-103.215"/>
<polygon fill="red" stroke="red" stroke-width="0.154979" points="1661.29,-99.906 1650.77,-98.6309 1658.2,-106.187 1661.29,-99.906"/>
</g>
<!-- bias -->
<g id="node23" class="node"><title>bias</title>
<polygon fill="lightgray" stroke="black" points="2064.5,-208.149 2033.5,-208.149 2033.5,-190.149 2064.5,-190.149 2064.5,-208.149"/>
<text text-anchor="middle" x="2049" y="-196.949" font-family="Times,serif" font-size="9.00">bias</text>
</g>
<!-- bias&#45;&gt;Shoot -->
<g id="edge22" class="edge"><title>bias&#45;&gt;Shoot</title>
<path fill="none" stroke="green" stroke-width="0.379237" d="M2033.41,-192.281C2030.64,-191.433 2027.76,-190.672 2025,-190.149 1724.14,-133.219 1640.08,-197.738 1337,-154.149 1232.22,-139.081 1111.4,-105.947 1052.71,-88.8106"/>
<polygon fill="green" stroke="green" stroke-width="0.379237" points="1053.41,-85.3677 1042.82,-85.9043 1051.43,-92.0833 1053.41,-85.3677"/>
</g>
<!-- bias&#45;&gt;Turn left/right -->
<g id="edge37" class="edge"><title>bias&#45;&gt;Turn left/right</title>
<path fill="none" stroke="green" stroke-width="0.207102" d="M2033.29,-192.767C2030.54,-191.865 2027.69,-190.96 2025,-190.149 1896.56,-151.478 1743.93,-111.989 1664.03,-91.8051"/>
<polygon fill="green" stroke="green" stroke-width="0.207102" points="1664.74,-88.3738 1654.18,-89.3227 1663.02,-95.1614 1664.74,-88.3738"/>
</g>
</g>
</svg>
