<?xml version="1.0" encoding="UTF-8" standalone="no"?>
<!DOCTYPE svg PUBLIC "-//W3C//DTD SVG 1.1//EN"
 "http://www.w3.org/Graphics/SVG/1.1/DTD/svg11.dtd">
<!-- Generated by graphviz version 2.38.0 (20140413.2041)
 -->
<!-- Title: %3 Pages: 1 -->
<svg width="2557pt" height="216pt"
 viewBox="0.00 0.00 2556.50 216.15" xmlns="http://www.w3.org/2000/svg" xmlns:xlink="http://www.w3.org/1999/xlink">
<g id="graph0" class="graph" transform="scale(1 1) rotate(0) translate(4 212.149)">
<title>%3</title>
<polygon fill="white" stroke="none" points="-4,4 -4,-212.149 2552.5,-212.149 2552.5,4 -4,4"/>
<!-- wallRadar[1,0] -->
<g id="node1" class="node"><title>wallRadar[1,0]</title>
<polygon fill="lightgray" stroke="black" points="382,-208.149 312,-208.149 312,-190.149 382,-190.149 382,-208.149"/>
<text text-anchor="middle" x="347" y="-196.949" font-family="Times,serif" font-size="9.00">wallRadar[1,0]</text>
</g>
<!-- Shoot -->
<g id="node24" class="node"><title>Shoot</title>
<ellipse fill="lightblue" stroke="black" cx="237" cy="-77.0746" rx="26.7407" ry="26.7407"/>
<text text-anchor="middle" x="237" y="-74.8746" font-family="Times,serif" font-size="9.00">Shoot</text>
</g>
<!-- wallRadar[1,0]&#45;&gt;Shoot -->
<g id="edge15" class="edge"><title>wallRadar[1,0]&#45;&gt;Shoot</title>
<path fill="none" stroke="green" stroke-width="0.669349" d="M339.439,-189.896C323.712,-172.728 286.864,-132.506 261.927,-105.285"/>
<polygon fill="green" stroke="green" stroke-width="0.669349" points="264.258,-102.648 254.922,-97.6381 259.096,-107.376 264.258,-102.648"/>
</g>
<!-- Move Forward/Backward -->
<g id="node25" class="node"><title>Move Forward/Backward</title>
<ellipse fill="lightblue" stroke="black" cx="751" cy="-77.0746" rx="77.1494" ry="77.1494"/>
<text text-anchor="middle" x="751" y="-74.8746" font-family="Times,serif" font-size="9.00">Move Forward/Backward</text>
</g>
<!-- wallRadar[1,0]&#45;&gt;Move Forward/Backward -->
<g id="edge13" class="edge"><title>wallRadar[1,0]&#45;&gt;Move Forward/Backward</title>
<path fill="none" stroke="green" stroke-width="1.27233" stroke-dasharray="1,5" d="M374.135,-190.084C433.196,-172.53 575.457,-130.248 667.313,-102.948"/>
<polygon fill="green" stroke="green" stroke-width="1.27233" points="668.558,-106.229 677.146,-100.025 666.563,-99.5191 668.558,-106.229"/>
</g>
<!-- wallRadar[0,1] -->
<g id="node2" class="node"><title>wallRadar[0,1]</title>
<polygon fill="lightgray" stroke="black" points="70,-208.149 0,-208.149 0,-190.149 70,-190.149 70,-208.149"/>
<text text-anchor="middle" x="35" y="-196.949" font-family="Times,serif" font-size="9.00">wallRadar[0,1]</text>
</g>
<!-- wallRadar[0,1]&#45;&gt;Shoot -->
<g id="edge12" class="edge"><title>wallRadar[0,1]&#45;&gt;Shoot</title>
<path fill="none" stroke="green" stroke-width="1.07386" d="M48.5675,-190.084C80.429,-171.145 160.716,-123.42 205.528,-96.7828"/>
<polygon fill="green" stroke="green" stroke-width="1.07386" points="207.449,-99.7123 214.257,-91.594 203.872,-93.6951 207.449,-99.7123"/>
</g>
<!-- wallRadar[&#45;1,0] -->
<g id="node3" class="node"><title>wallRadar[&#45;1,0]</title>
<polygon fill="lightgray" stroke="black" points="1851.5,-208.149 1778.5,-208.149 1778.5,-190.149 1851.5,-190.149 1851.5,-208.149"/>
<text text-anchor="middle" x="1815" y="-196.949" font-family="Times,serif" font-size="9.00">wallRadar[&#45;1,0]</text>
</g>
<!-- wallRadar[0,&#45;1] -->
<g id="node4" class="node"><title>wallRadar[0,&#45;1]</title>
<polygon fill="lightgray" stroke="black" points="161.5,-208.149 88.5,-208.149 88.5,-190.149 161.5,-190.149 161.5,-208.149"/>
<text text-anchor="middle" x="125" y="-196.949" font-family="Times,serif" font-size="9.00">wallRadar[0,&#45;1]</text>
</g>
<!-- wallRadar[0,&#45;1]&#45;&gt;Shoot -->
<g id="edge21" class="edge"><title>wallRadar[0,&#45;1]&#45;&gt;Shoot</title>
<path fill="none" stroke="red" stroke-width="0.141709" d="M132.698,-189.896C148.802,-172.632 186.651,-132.053 212.047,-104.827"/>
<polygon fill="red" stroke="red" stroke-width="0.141709" points="214.909,-106.89 219.17,-97.19 209.79,-102.115 214.909,-106.89"/>
</g>
<!-- wallRadar[0.7,0.7] -->
<g id="node5" class="node"><title>wallRadar[0.7,0.7]</title>
<polygon fill="lightgray" stroke="black" points="605.5,-208.149 522.5,-208.149 522.5,-190.149 605.5,-190.149 605.5,-208.149"/>
<text text-anchor="middle" x="564" y="-196.949" font-family="Times,serif" font-size="9.00">wallRadar[0.7,0.7]</text>
</g>
<!-- wallRadar[0.7,0.7]&#45;&gt;Move Forward/Backward -->
<g id="edge5" class="edge"><title>wallRadar[0.7,0.7]&#45;&gt;Move Forward/Backward</title>
<path fill="none" stroke="red" stroke-width="0.136144" d="M576.56,-190.084C597.192,-176.836 639.758,-149.504 677.676,-125.157"/>
<polygon fill="red" stroke="red" stroke-width="0.136144" points="679.664,-128.039 686.188,-119.691 675.882,-122.149 679.664,-128.039"/>
</g>
<!-- wallRadar[&#45;0.7,0.7] -->
<g id="node6" class="node"><title>wallRadar[&#45;0.7,0.7]</title>
<polygon fill="lightgray" stroke="black" points="1283,-208.149 1197,-208.149 1197,-190.149 1283,-190.149 1283,-208.149"/>
<text text-anchor="middle" x="1240" y="-196.949" font-family="Times,serif" font-size="9.00">wallRadar[&#45;0.7,0.7]</text>
</g>
<!-- Turn left/right -->
<g id="node27" class="node"><title>Turn left/right</title>
<ellipse fill="lightblue" stroke="black" cx="1292" cy="-77.0746" rx="46.8387" ry="46.8387"/>
<text text-anchor="middle" x="1292" y="-74.8746" font-family="Times,serif" font-size="9.00">Turn left/right</text>
</g>
<!-- wallRadar[&#45;0.7,0.7]&#45;&gt;Turn left/right -->
<g id="edge20" class="edge"><title>wallRadar[&#45;0.7,0.7]&#45;&gt;Turn left/right</title>
<path fill="none" stroke="red" stroke-width="0.107264" d="M1243.57,-189.896C1249,-177.369 1259.74,-152.567 1269.73,-129.498"/>
<polygon fill="red" stroke="red" stroke-width="0.107264" points="1273.04,-130.666 1273.8,-120.099 1266.62,-127.884 1273.04,-130.666"/>
</g>
<!-- wallRadar[&#45;0.7,&#45;0.7] -->
<g id="node7" class="node"><title>wallRadar[&#45;0.7,&#45;0.7]</title>
<polygon fill="lightgray" stroke="black" points="1760.5,-208.149 1671.5,-208.149 1671.5,-190.149 1760.5,-190.149 1760.5,-208.149"/>
<text text-anchor="middle" x="1716" y="-196.949" font-family="Times,serif" font-size="9.00">wallRadar[&#45;0.7,&#45;0.7]</text>
</g>
<!--  Move Left/Right -->
<g id="node26" class="node"><title> Move Left/Right</title>
<ellipse fill="lightblue" stroke="black" cx="1656" cy="-77.0746" rx="55.3091" ry="55.3091"/>
<text text-anchor="middle" x="1656" y="-74.8746" font-family="Times,serif" font-size="9.00"> Move Left/Right</text>
</g>
<!-- wallRadar[&#45;0.7,&#45;0.7]&#45;&gt; Move Left/Right -->
<g id="edge10" class="edge"><title>wallRadar[&#45;0.7,&#45;0.7]&#45;&gt; Move Left/Right</title>
<path fill="none" stroke="red" stroke-width="0.422545" d="M1711.88,-189.896C1706.18,-178.491 1695.39,-156.912 1684.81,-135.729"/>
<polygon fill="red" stroke="red" stroke-width="0.422545" points="1687.9,-134.086 1680.3,-126.705 1681.64,-137.215 1687.9,-134.086"/>
</g>
<!-- wallRadar[0.7,&#45;0.7] -->
<g id="node8" class="node"><title>wallRadar[0.7,&#45;0.7]</title>
<polygon fill="lightgray" stroke="black" points="1387,-208.149 1301,-208.149 1301,-190.149 1387,-190.149 1387,-208.149"/>
<text text-anchor="middle" x="1344" y="-196.949" font-family="Times,serif" font-size="9.00">wallRadar[0.7,&#45;0.7]</text>
</g>
<!-- wallRadar[0.7,&#45;0.7]&#45;&gt;Turn left/right -->
<g id="edge18" class="edge"><title>wallRadar[0.7,&#45;0.7]&#45;&gt;Turn left/right</title>
<path fill="none" stroke="green" stroke-width="0.368512" stroke-dasharray="1,5" d="M1340.43,-189.896C1335,-177.369 1324.26,-152.567 1314.27,-129.498"/>
<polygon fill="green" stroke="green" stroke-width="0.368512" points="1317.38,-127.884 1310.2,-120.099 1310.96,-130.666 1317.38,-127.884"/>
</g>
<!-- enemyRadar[RightBack] -->
<g id="node9" class="node"><title>enemyRadar[RightBack]</title>
<polygon fill="lightgray" stroke="black" points="504,-208.149 400,-208.149 400,-190.149 504,-190.149 504,-208.149"/>
<text text-anchor="middle" x="452" y="-196.949" font-family="Times,serif" font-size="9.00">enemyRadar[RightBack]</text>
</g>
<!-- enemyRadar[RightBack]&#45;&gt;Shoot -->
<g id="edge3" class="edge"><title>enemyRadar[RightBack]&#45;&gt;Shoot</title>
<path fill="none" stroke="red" stroke-width="0.458467" stroke-dasharray="1,5" d="M437.559,-190.084C403.312,-170.958 316.497,-122.472 269.093,-95.9982"/>
<polygon fill="red" stroke="red" stroke-width="0.458467" points="270.602,-92.8323 260.165,-91.012 267.189,-98.9438 270.602,-92.8323"/>
</g>
<!-- enemyRadar[RightBack]&#45;&gt;Move Forward/Backward -->
<g id="edge16" class="edge"><title>enemyRadar[RightBack]&#45;&gt;Move Forward/Backward</title>
<path fill="none" stroke="red" stroke-width="0.892863" stroke-dasharray="1,5" d="M472.083,-190.084C511.975,-174.064 603.154,-137.448 670.457,-110.42"/>
<polygon fill="red" stroke="red" stroke-width="0.892863" points="671.812,-113.647 679.787,-106.673 669.203,-107.152 671.812,-113.647"/>
</g>
<!-- enemyRadar[LeftBack] -->
<g id="node10" class="node"><title>enemyRadar[LeftBack]</title>
<polygon fill="lightgray" stroke="black" points="1968.5,-208.149 1869.5,-208.149 1869.5,-190.149 1968.5,-190.149 1968.5,-208.149"/>
<text text-anchor="middle" x="1919" y="-196.949" font-family="Times,serif" font-size="9.00">enemyRadar[LeftBack]</text>
</g>
<!-- enemyRadar[Right45ø] -->
<g id="node11" class="node"><title>enemyRadar[Right45ø]</title>
<polygon fill="lightgray" stroke="black" points="1111,-208.149 1011,-208.149 1011,-190.149 1111,-190.149 1111,-208.149"/>
<text text-anchor="middle" x="1061" y="-196.949" font-family="Times,serif" font-size="9.00">enemyRadar[Right45ø]</text>
</g>
<!-- enemyRadar[Right45ø]&#45;&gt;Move Forward/Backward -->
<g id="edge1" class="edge"><title>enemyRadar[Right45ø]&#45;&gt;Move Forward/Backward</title>
<path fill="none" stroke="green" stroke-width="0.330229" stroke-dasharray="1,5" d="M1040.18,-190.084C998.43,-173.913 902.503,-136.757 832.544,-109.66"/>
<polygon fill="green" stroke="green" stroke-width="0.330229" points="833.443,-106.254 822.854,-105.906 830.914,-112.782 833.443,-106.254"/>
</g>
<!-- enemyRadar[Right45ø]&#45;&gt;Turn left/right -->
<g id="edge7" class="edge"><title>enemyRadar[Right45ø]&#45;&gt;Turn left/right</title>
<path fill="none" stroke="red" stroke-width="2.99156" d="M1076.52,-190.084C1109.72,-172.822 1188.94,-131.647 1241.51,-104.321"/>
<polygon fill="red" stroke="red" stroke-width="2.99156" points="1243.41,-107.274 1250.67,-99.5567 1240.19,-101.063 1243.41,-107.274"/>
</g>
<!-- enemyRadar[Left45ø] -->
<g id="node12" class="node"><title>enemyRadar[Left45ø]</title>
<polygon fill="lightgray" stroke="black" points="2081.5,-208.149 1986.5,-208.149 1986.5,-190.149 2081.5,-190.149 2081.5,-208.149"/>
<text text-anchor="middle" x="2034" y="-196.949" font-family="Times,serif" font-size="9.00">enemyRadar[Left45ø]</text>
</g>
<!-- enemyRadar[RightFront20ø] -->
<g id="node13" class="node"><title>enemyRadar[RightFront20ø]</title>
<polygon fill="lightgray" stroke="black" points="742.5,-208.149 623.5,-208.149 623.5,-190.149 742.5,-190.149 742.5,-208.149"/>
<text text-anchor="middle" x="683" y="-196.949" font-family="Times,serif" font-size="9.00">enemyRadar[RightFront20ø]</text>
</g>
<!-- enemyRadar[RightFront20ø]&#45;&gt;Move Forward/Backward -->
<g id="edge2" class="edge"><title>enemyRadar[RightFront20ø]&#45;&gt;Move Forward/Backward</title>
<path fill="none" stroke="green" stroke-width="3.37472" d="M687.674,-189.896C692.314,-181.702 699.929,-168.256 708.298,-153.479"/>
<polygon fill="green" stroke="green" stroke-width="3.37472" points="711.413,-155.08 713.295,-144.654 705.322,-151.63 711.413,-155.08"/>
</g>
<!-- enemyRadar[LeftFront20ø] -->
<g id="node14" class="node"><title>enemyRadar[LeftFront20ø]</title>
<polygon fill="lightgray" stroke="black" points="1653,-208.149 1539,-208.149 1539,-190.149 1653,-190.149 1653,-208.149"/>
<text text-anchor="middle" x="1596" y="-196.949" font-family="Times,serif" font-size="9.00">enemyRadar[LeftFront20ø]</text>
</g>
<!-- enemyRadar[LeftFront20ø]&#45;&gt; Move Left/Right -->
<g id="edge6" class="edge"><title>enemyRadar[LeftFront20ø]&#45;&gt; Move Left/Right</title>
<path fill="none" stroke="green" stroke-width="0.598292" stroke-dasharray="1,5" d="M1600.12,-189.896C1605.82,-178.491 1616.61,-156.912 1627.19,-135.729"/>
<polygon fill="green" stroke="green" stroke-width="0.598292" points="1630.36,-137.215 1631.7,-126.705 1624.1,-134.086 1630.36,-137.215"/>
</g>
<!-- enemyRadar[LeftFront20ø]&#45;&gt;Turn left/right -->
<g id="edge17" class="edge"><title>enemyRadar[LeftFront20ø]&#45;&gt;Turn left/right</title>
<path fill="none" stroke="green" stroke-width="0.228913" d="M1575.58,-190.084C1528.86,-171.628 1412.92,-125.838 1344.63,-98.863"/>
<polygon fill="green" stroke="green" stroke-width="0.228913" points="1345.91,-95.6049 1335.32,-95.1865 1343.34,-102.115 1345.91,-95.6049"/>
</g>
<!-- enemyRadar[RightFront15ø] -->
<g id="node15" class="node"><title>enemyRadar[RightFront15ø]</title>
<polygon fill="lightgray" stroke="black" points="2218.5,-208.149 2099.5,-208.149 2099.5,-190.149 2218.5,-190.149 2218.5,-208.149"/>
<text text-anchor="middle" x="2159" y="-196.949" font-family="Times,serif" font-size="9.00">enemyRadar[RightFront15ø]</text>
</g>
<!-- enemyRadar[LeftFront15ø] -->
<g id="node16" class="node"><title>enemyRadar[LeftFront15ø]</title>
<polygon fill="lightgray" stroke="black" points="294,-208.149 180,-208.149 180,-190.149 294,-190.149 294,-208.149"/>
<text text-anchor="middle" x="237" y="-196.949" font-family="Times,serif" font-size="9.00">enemyRadar[LeftFront15ø]</text>
</g>
<!-- enemyRadar[LeftFront15ø]&#45;&gt;Shoot -->
<g id="edge19" class="edge"><title>enemyRadar[LeftFront15ø]&#45;&gt;Shoot</title>
<path fill="none" stroke="red" stroke-width="0.52083" stroke-dasharray="1,5" d="M237,-189.896C237,-174.554 237,-140.799 237,-114.366"/>
<polygon fill="red" stroke="red" stroke-width="0.52083" points="240.5,-114.286 237,-104.286 233.5,-114.286 240.5,-114.286"/>
</g>
<!-- enemyRadar[RightFront7.5ø] -->
<g id="node17" class="node"><title>enemyRadar[RightFront7.5ø]</title>
<polygon fill="lightgray" stroke="black" points="2359,-208.149 2237,-208.149 2237,-190.149 2359,-190.149 2359,-208.149"/>
<text text-anchor="middle" x="2298" y="-196.949" font-family="Times,serif" font-size="9.00">enemyRadar[RightFront7.5ø]</text>
</g>
<!-- enemyRadar[LeftFront7.5ø] -->
<g id="node18" class="node"><title>enemyRadar[LeftFront7.5ø]</title>
<polygon fill="lightgray" stroke="black" points="877,-208.149 761,-208.149 761,-190.149 877,-190.149 877,-208.149"/>
<text text-anchor="middle" x="819" y="-196.949" font-family="Times,serif" font-size="9.00">enemyRadar[LeftFront7.5ø]</text>
</g>
<!-- enemyRadar[LeftFront7.5ø]&#45;&gt;Move Forward/Backward -->
<g id="edge8" class="edge"><title>enemyRadar[LeftFront7.5ø]&#45;&gt;Move Forward/Backward</title>
<path fill="none" stroke="green" stroke-width="0.321911" stroke-dasharray="1,5" d="M814.326,-189.896C809.686,-181.702 802.071,-168.256 793.702,-153.479"/>
<polygon fill="green" stroke="green" stroke-width="0.321911" points="796.678,-151.63 788.705,-144.654 790.587,-155.08 796.678,-151.63"/>
</g>
<!-- enemyRadar[RightFront2.5ø] -->
<g id="node19" class="node"><title>enemyRadar[RightFront2.5ø]</title>
<polygon fill="lightgray" stroke="black" points="2499,-208.149 2377,-208.149 2377,-190.149 2499,-190.149 2499,-208.149"/>
<text text-anchor="middle" x="2438" y="-196.949" font-family="Times,serif" font-size="9.00">enemyRadar[RightFront2.5ø]</text>
</g>
<!-- enemyRadar[LeftFront2.5ø] -->
<g id="node20" class="node"><title>enemyRadar[LeftFront2.5ø]</title>
<polygon fill="lightgray" stroke="black" points="1521,-208.149 1405,-208.149 1405,-190.149 1521,-190.149 1521,-208.149"/>
<text text-anchor="middle" x="1463" y="-196.949" font-family="Times,serif" font-size="9.00">enemyRadar[LeftFront2.5ø]</text>
</g>
<!-- enemyRadar[LeftFront2.5ø]&#45;&gt;Turn left/right -->
<g id="edge9" class="edge"><title>enemyRadar[LeftFront2.5ø]&#45;&gt;Turn left/right</title>
<path fill="none" stroke="green" stroke-width="0.285408" stroke-dasharray="1,5" d="M1451.51,-190.084C1428.75,-174.099 1376.78,-137.607 1338.31,-110.596"/>
<polygon fill="green" stroke="green" stroke-width="0.285408" points="1340.03,-107.526 1329.84,-104.643 1336.01,-113.254 1340.03,-107.526"/>
</g>
<!-- enemyRadar[Front7Ø] -->
<g id="node21" class="node"><title>enemyRadar[Front7Ø]</title>
<polygon fill="lightgray" stroke="black" points="993,-208.149 895,-208.149 895,-190.149 993,-190.149 993,-208.149"/>
<text text-anchor="middle" x="944" y="-196.949" font-family="Times,serif" font-size="9.00">enemyRadar[Front7Ø]</text>
</g>
<!-- enemyRadar[Front7Ø]&#45;&gt;Move Forward/Backward -->
<g id="edge4" class="edge"><title>enemyRadar[Front7Ø]&#45;&gt;Move Forward/Backward</title>
<path fill="none" stroke="red" stroke-width="0.563899" stroke-dasharray="1,5" d="M931.037,-190.084C909.429,-176.641 864.509,-148.694 824.947,-124.081"/>
<polygon fill="red" stroke="red" stroke-width="0.563899" points="826.415,-120.872 816.075,-118.561 822.717,-126.815 826.415,-120.872"/>
</g>
<!-- OnTarget -->
<g id="node22" class="node"><title>OnTarget</title>
<polygon fill="lightgray" stroke="black" points="1179,-208.149 1129,-208.149 1129,-190.149 1179,-190.149 1179,-208.149"/>
<text text-anchor="middle" x="1154" y="-196.949" font-family="Times,serif" font-size="9.00">OnTarget</text>
</g>
<!-- OnTarget&#45;&gt;Move Forward/Backward -->
<g id="edge14" class="edge"><title>OnTarget&#45;&gt;Move Forward/Backward</title>
<path fill="none" stroke="green" stroke-width="0.290193" stroke-dasharray="1,5" d="M1128.79,-190.638C1071.04,-173.431 927.024,-130.521 834.42,-102.93"/>
<polygon fill="green" stroke="green" stroke-width="0.290193" points="835.371,-99.5612 824.788,-100.06 833.372,-106.27 835.371,-99.5612"/>
</g>
<!-- OnTarget&#45;&gt;Turn left/right -->
<g id="edge11" class="edge"><title>OnTarget&#45;&gt;Turn left/right</title>
<path fill="none" stroke="red" stroke-width="0.850134" d="M1163.49,-189.896C1180.93,-174.721 1219.07,-141.533 1249.29,-115.233"/>
<polygon fill="red" stroke="red" stroke-width="0.850134" points="1251.94,-117.569 1257.19,-108.365 1247.35,-112.289 1251.94,-117.569"/>
</g>
<!-- bias -->
<g id="node23" class="node"><title>bias</title>
<polygon fill="lightgray" stroke="black" points="2548.5,-208.149 2517.5,-208.149 2517.5,-190.149 2548.5,-190.149 2548.5,-208.149"/>
<text text-anchor="middle" x="2533" y="-196.949" font-family="Times,serif" font-size="9.00">bias</text>
</g>
</g>
</svg>
