<?xml version="1.0" encoding="UTF-8" standalone="no"?>
<!DOCTYPE svg PUBLIC "-//W3C//DTD SVG 1.1//EN"
 "http://www.w3.org/Graphics/SVG/1.1/DTD/svg11.dtd">
<!-- Generated by graphviz version 2.38.0 (20140413.2041)
 -->
<!-- Title: %3 Pages: 1 -->
<svg width="2503pt" height="516pt"
 viewBox="0.00 0.00 2503.31 516.48" xmlns="http://www.w3.org/2000/svg" xmlns:xlink="http://www.w3.org/1999/xlink">
<g id="graph0" class="graph" transform="scale(1 1) rotate(0) translate(4 512.482)">
<title>%3</title>
<polygon fill="white" stroke="none" points="-4,4 -4,-512.482 2499.31,-512.482 2499.31,4 -4,4"/>
<!-- wallRadar[1,0] -->
<g id="node1" class="node"><title>wallRadar[1,0]</title>
<polygon fill="lightgray" stroke="black" points="1623.17,-438.734 1553.17,-438.734 1553.17,-420.734 1623.17,-420.734 1623.17,-438.734"/>
<text text-anchor="middle" x="1588.17" y="-427.534" font-family="Times,serif" font-size="9.00">wallRadar[1,0]</text>
</g>
<!-- Shoot -->
<g id="node24" class="node"><title>Shoot</title>
<ellipse fill="lightblue" stroke="black" cx="1050.17" cy="-291.91" rx="26.7407" ry="26.7407"/>
<text text-anchor="middle" x="1050.17" y="-289.71" font-family="Times,serif" font-size="9.00">Shoot</text>
</g>
<!-- wallRadar[1,0]&#45;&gt;Shoot -->
<g id="edge1" class="edge"><title>wallRadar[1,0]&#45;&gt;Shoot</title>
<path fill="none" stroke="red" stroke-width="0.414512" d="M1562.87,-420.673C1546.75,-415.721 1525.36,-409.487 1506.17,-404.985 1418.67,-384.456 1394.62,-389.771 1307.17,-368.985 1226.7,-349.856 1134.08,-320.614 1084.97,-304.526"/>
<polygon fill="red" stroke="red" stroke-width="0.414512" points="1086.05,-301.197 1075.46,-301.395 1083.87,-307.846 1086.05,-301.197"/>
</g>
<!-- Move Forward/Backward -->
<g id="node25" class="node"><title>Move Forward/Backward</title>
<ellipse fill="lightblue" stroke="black" cx="1721.17" cy="-291.91" rx="77.1494" ry="77.1494"/>
<text text-anchor="middle" x="1721.17" y="-289.71" font-family="Times,serif" font-size="9.00">Move Forward/Backward</text>
</g>
<!-- wallRadar[1,0]&#45;&gt;Move Forward/Backward -->
<g id="edge2" class="edge"><title>wallRadar[1,0]&#45;&gt;Move Forward/Backward</title>
<path fill="none" stroke="green" stroke-width="1.30305" d="M1596.1,-420.644C1608.93,-407.541 1635.37,-380.533 1660.66,-354.712"/>
<polygon fill="green" stroke="green" stroke-width="1.30305" points="1663.25,-357.067 1667.75,-347.473 1658.25,-352.169 1663.25,-357.067"/>
</g>
<!--  Move Left/Right -->
<g id="node26" class="node"><title> Move Left/Right</title>
<ellipse fill="lightblue" stroke="black" cx="1371.17" cy="-291.91" rx="55.3091" ry="55.3091"/>
<text text-anchor="middle" x="1371.17" y="-289.71" font-family="Times,serif" font-size="9.00"> Move Left/Right</text>
</g>
<!-- wallRadar[1,0]&#45;&gt; Move Left/Right -->
<g id="edge3" class="edge"><title>wallRadar[1,0]&#45;&gt; Move Left/Right</title>
<path fill="none" stroke="red" stroke-width="0.443478" stroke-dasharray="1,5" d="M1575.25,-420.644C1546.67,-402.757 1476.69,-358.957 1426.66,-327.639"/>
<polygon fill="red" stroke="red" stroke-width="0.443478" points="1428.21,-324.48 1417.88,-322.142 1424.5,-330.414 1428.21,-324.48"/>
</g>
<!-- wallRadar[0,1] -->
<g id="node2" class="node"><title>wallRadar[0,1]</title>
<polygon fill="lightgray" stroke="black" points="227.174,-438.734 157.174,-438.734 157.174,-420.734 227.174,-420.734 227.174,-438.734"/>
<text text-anchor="middle" x="192.174" y="-427.534" font-family="Times,serif" font-size="9.00">wallRadar[0,1]</text>
</g>
<!-- wallRadar[0,1]&#45;&gt;Shoot -->
<g id="edge4" class="edge"><title>wallRadar[0,1]&#45;&gt;Shoot</title>
<path fill="none" stroke="red" stroke-width="0.241356" stroke-dasharray="1,5" d="M204.343,-420.62C212.891,-415.317 224.787,-408.706 236.174,-404.985 524.465,-310.765 895.359,-295.743 1012.8,-293.358"/>
<polygon fill="red" stroke="red" stroke-width="0.241356" points="1013.11,-296.852 1023.05,-293.169 1012.98,-289.854 1013.11,-296.852"/>
</g>
<!-- wallRadar[0,1]&#45;&gt;Move Forward/Backward -->
<g id="edge66" class="edge"><title>wallRadar[0,1]&#45;&gt;Move Forward/Backward</title>
<path fill="none" stroke="green" stroke-width="0.337609" d="M203.497,-420.702C212.034,-415.14 224.269,-408.183 236.174,-404.985 493.609,-335.819 1171.41,-407.5 1435.17,-368.985 1504.98,-358.792 1582.18,-337.648 1638.76,-320.233"/>
<polygon fill="green" stroke="green" stroke-width="0.337609" points="1639.86,-323.558 1648.37,-317.251 1637.78,-316.873 1639.86,-323.558"/>
</g>
<!-- Turn left/right -->
<g id="node27" class="node"><title>Turn left/right</title>
<ellipse fill="lightblue" stroke="black" cx="873.174" cy="-46.669" rx="46.8387" ry="46.8387"/>
<text text-anchor="middle" x="873.174" y="-44.469" font-family="Times,serif" font-size="9.00">Turn left/right</text>
</g>
<!-- wallRadar[0,1]&#45;&gt;Turn left/right -->
<g id="edge5" class="edge"><title>wallRadar[0,1]&#45;&gt;Turn left/right</title>
<path fill="none" stroke="red" stroke-width="0.74393" stroke-dasharray="1,5" d="M189.945,-420.527C182.025,-389.389 158.439,-277.166 211.174,-214.836 290.055,-121.601 670.84,-70.1543 816.419,-53.6286"/>
<polygon fill="red" stroke="red" stroke-width="0.74393" points="816.94,-57.0923 826.487,-52.499 816.159,-50.1359 816.94,-57.0923"/>
</g>
<!-- 8790 -->
<g id="node31" class="node"><title>8790</title>
<ellipse fill="white" stroke="black" cx="245.174" cy="-291.91" rx="25" ry="25"/>
<text text-anchor="middle" x="245.174" y="-289.71" font-family="Times,serif" font-size="9.00">8790</text>
</g>
<!-- wallRadar[0,1]&#45;&gt;8790 -->
<g id="edge77" class="edge"><title>wallRadar[0,1]&#45;&gt;8790</title>
<path fill="none" stroke="green" stroke-width="0.273422" d="M195.33,-420.644C202.509,-402.247 220.385,-356.435 232.656,-324.989"/>
<polygon fill="green" stroke="green" stroke-width="0.273422" points="236.048,-325.925 236.423,-315.336 229.527,-323.38 236.048,-325.925"/>
</g>
<!-- wallRadar[&#45;1,0] -->
<g id="node3" class="node"><title>wallRadar[&#45;1,0]</title>
<polygon fill="lightgray" stroke="black" points="2214.67,-438.734 2141.67,-438.734 2141.67,-420.734 2214.67,-420.734 2214.67,-438.734"/>
<text text-anchor="middle" x="2178.17" y="-427.534" font-family="Times,serif" font-size="9.00">wallRadar[&#45;1,0]</text>
</g>
<!-- wallRadar[&#45;1,0]&#45;&gt;Shoot -->
<g id="edge6" class="edge"><title>wallRadar[&#45;1,0]&#45;&gt;Shoot</title>
<path fill="none" stroke="green" stroke-width="0.934156" d="M2166.18,-420.516C2157.45,-415.018 2145.11,-408.219 2133.17,-404.985 1955.84,-356.939 1488.39,-399.285 1307.17,-368.985 1225.59,-355.344 1133.4,-323.969 1084.66,-306.064"/>
<polygon fill="green" stroke="green" stroke-width="0.934156" points="1085.82,-302.76 1075.22,-302.565 1083.38,-309.323 1085.82,-302.76"/>
</g>
<!-- wallRadar[&#45;1,0]&#45;&gt;Move Forward/Backward -->
<g id="edge64" class="edge"><title>wallRadar[&#45;1,0]&#45;&gt;Move Forward/Backward</title>
<path fill="none" stroke="red" stroke-width="0.545155" stroke-dasharray="1,5" d="M2165.68,-420.681C2156.92,-415.405 2144.75,-408.802 2133.17,-404.985 2032.41,-371.761 1999.15,-398.274 1897.17,-368.985 1864.12,-359.491 1829.08,-345.27 1799.04,-331.684"/>
<polygon fill="red" stroke="red" stroke-width="0.545155" points="1800.44,-328.474 1789.89,-327.494 1797.52,-334.838 1800.44,-328.474"/>
</g>
<!-- wallRadar[&#45;1,0]&#45;&gt; Move Left/Right -->
<g id="edge7" class="edge"><title>wallRadar[&#45;1,0]&#45;&gt; Move Left/Right</title>
<path fill="none" stroke="red" stroke-width="0.32094" stroke-dasharray="1,5" d="M2166.15,-420.621C2157.41,-415.173 2145.06,-408.389 2133.17,-404.985 1919.84,-343.897 1853.64,-407.919 1635.17,-368.985 1564.44,-356.38 1485.55,-332.271 1432.59,-314.56"/>
<polygon fill="red" stroke="red" stroke-width="0.32094" points="1433.6,-311.209 1423.01,-311.332 1431.37,-317.842 1433.6,-311.209"/>
</g>
<!-- wallRadar[&#45;1,0]&#45;&gt;Turn left/right -->
<g id="edge8" class="edge"><title>wallRadar[&#45;1,0]&#45;&gt;Turn left/right</title>
<path fill="none" stroke="green" stroke-width="0.303841" d="M2167.34,-420.561C2124.38,-388.581 1960.82,-270.929 1807.17,-214.836 1488.7,-98.5671 1078.63,-61.2011 930.074,-51.0187"/>
<polygon fill="green" stroke="green" stroke-width="0.303841" points="930.047,-47.5091 919.835,-50.3318 929.578,-54.4934 930.047,-47.5091"/>
</g>
<!-- 8295 -->
<g id="node30" class="node"><title>8295</title>
<ellipse fill="white" stroke="black" cx="2135.17" cy="-291.91" rx="25" ry="25"/>
<text text-anchor="middle" x="2135.17" y="-289.71" font-family="Times,serif" font-size="9.00">8295</text>
</g>
<!-- wallRadar[&#45;1,0]&#45;&gt;8295 -->
<g id="edge70" class="edge"><title>wallRadar[&#45;1,0]&#45;&gt;8295</title>
<path fill="none" stroke="green" stroke-width="0.378389" d="M2175.61,-420.644C2169.8,-402.298 2155.37,-356.692 2145.41,-325.253"/>
<polygon fill="green" stroke="green" stroke-width="0.378389" points="2148.71,-324.073 2142.36,-315.596 2142.04,-326.186 2148.71,-324.073"/>
</g>
<!-- wallRadar[0,&#45;1] -->
<g id="node4" class="node"><title>wallRadar[0,&#45;1]</title>
<polygon fill="lightgray" stroke="black" points="1714.67,-438.734 1641.67,-438.734 1641.67,-420.734 1714.67,-420.734 1714.67,-438.734"/>
<text text-anchor="middle" x="1678.17" y="-427.534" font-family="Times,serif" font-size="9.00">wallRadar[0,&#45;1]</text>
</g>
<!-- wallRadar[0,&#45;1]&#45;&gt;Shoot -->
<g id="edge9" class="edge"><title>wallRadar[0,&#45;1]&#45;&gt;Shoot</title>
<path fill="none" stroke="red" stroke-width="0.179541" stroke-dasharray="1,5" d="M1665.43,-420.535C1656.49,-415.193 1644.05,-408.572 1632.17,-404.985 1493.06,-362.948 1449.63,-397.723 1307.17,-368.985 1226.09,-352.629 1133.7,-322.309 1084.8,-305.303"/>
<polygon fill="red" stroke="red" stroke-width="0.179541" points="1085.93,-301.988 1075.33,-301.986 1083.61,-308.595 1085.93,-301.988"/>
</g>
<!-- wallRadar[0,&#45;1]&#45;&gt;Move Forward/Backward -->
<g id="edge10" class="edge"><title>wallRadar[0,&#45;1]&#45;&gt;Move Forward/Backward</title>
<path fill="none" stroke="green" stroke-width="0.585939" stroke-dasharray="1,5" d="M1680.73,-420.644C1683.78,-411.019 1689.2,-393.892 1695.11,-375.243"/>
<polygon fill="green" stroke="green" stroke-width="0.585939" points="1698.45,-376.28 1698.13,-365.69 1691.78,-374.167 1698.45,-376.28"/>
</g>
<!-- wallRadar[0,&#45;1]&#45;&gt; Move Left/Right -->
<g id="edge11" class="edge"><title>wallRadar[0,&#45;1]&#45;&gt; Move Left/Right</title>
<path fill="none" stroke="green" stroke-width="0.490247" d="M1662.98,-420.543C1654.08,-415.833 1642.58,-409.896 1632.17,-404.985 1564.23,-372.91 1484.72,-339.318 1431.47,-317.375"/>
<polygon fill="green" stroke="green" stroke-width="0.490247" points="1432.75,-314.117 1422.17,-313.551 1430.09,-320.591 1432.75,-314.117"/>
</g>
<!-- wallRadar[0.7,0.7] -->
<g id="node5" class="node"><title>wallRadar[0.7,0.7]</title>
<polygon fill="lightgray" stroke="black" points="592.674,-438.734 509.674,-438.734 509.674,-420.734 592.674,-420.734 592.674,-438.734"/>
<text text-anchor="middle" x="551.174" y="-427.534" font-family="Times,serif" font-size="9.00">wallRadar[0.7,0.7]</text>
</g>
<!-- wallRadar[0.7,0.7]&#45;&gt; Move Left/Right -->
<g id="edge12" class="edge"><title>wallRadar[0.7,0.7]&#45;&gt; Move Left/Right</title>
<path fill="none" stroke="green" stroke-width="0.449949" d="M564.948,-420.649C574.93,-415.214 588.942,-408.434 602.174,-404.985 810.903,-350.569 873.489,-404.956 1086.17,-368.985 1164.34,-355.765 1252.18,-330.718 1309.41,-312.98"/>
<polygon fill="green" stroke="green" stroke-width="0.449949" points="1310.53,-316.298 1319.03,-309.979 1308.44,-309.616 1310.53,-316.298"/>
</g>
<!-- wallRadar[0.7,0.7]&#45;&gt;Turn left/right -->
<g id="edge13" class="edge"><title>wallRadar[0.7,0.7]&#45;&gt;Turn left/right</title>
<path fill="none" stroke="red" stroke-width="0.210526" stroke-dasharray="1,5" d="M566.458,-420.618C576.416,-415.583 589.81,-409.278 602.174,-404.985 667.758,-382.214 704.859,-417.851 754.174,-368.985 804.296,-319.319 768.214,-281.205 792.174,-214.836 806.988,-173.8 828.765,-129.453 846.008,-96.7534"/>
<polygon fill="red" stroke="red" stroke-width="0.210526" points="849.137,-98.3243 850.742,-87.8518 842.957,-95.0376 849.137,-98.3243"/>
</g>
<!-- wallRadar[&#45;0.7,0.7] -->
<g id="node6" class="node"><title>wallRadar[&#45;0.7,0.7]</title>
<polygon fill="lightgray" stroke="black" points="697.174,-438.734 611.174,-438.734 611.174,-420.734 697.174,-420.734 697.174,-438.734"/>
<text text-anchor="middle" x="654.174" y="-427.534" font-family="Times,serif" font-size="9.00">wallRadar[&#45;0.7,0.7]</text>
</g>
<!-- wallRadar[&#45;0.7,0.7]&#45;&gt;Shoot -->
<g id="edge14" class="edge"><title>wallRadar[&#45;0.7,0.7]&#45;&gt;Shoot</title>
<path fill="none" stroke="green" stroke-width="0.179201" d="M670.311,-420.625C680.451,-415.716 693.892,-409.544 706.174,-404.985 759.972,-385.012 775.483,-386.368 830.174,-368.985 896.277,-347.975 972.63,-320.942 1015.78,-305.406"/>
<polygon fill="green" stroke="green" stroke-width="0.179201" points="1017.02,-308.68 1025.24,-301.993 1014.64,-302.096 1017.02,-308.68"/>
</g>
<!-- wallRadar[&#45;0.7,0.7]&#45;&gt;Move Forward/Backward -->
<g id="edge15" class="edge"><title>wallRadar[&#45;0.7,0.7]&#45;&gt;Move Forward/Backward</title>
<path fill="none" stroke="red" stroke-width="0.257601" d="M668.213,-420.549C678.388,-415.067 692.674,-408.273 706.174,-404.985 1021.36,-328.228 1114.65,-418.956 1435.17,-368.985 1504.76,-358.136 1581.82,-337.095 1638.4,-319.887"/>
<polygon fill="red" stroke="red" stroke-width="0.257601" points="1639.48,-323.219 1648.01,-316.942 1637.43,-316.526 1639.48,-323.219"/>
</g>
<!-- wallRadar[&#45;0.7,0.7]&#45;&gt; Move Left/Right -->
<g id="edge16" class="edge"><title>wallRadar[&#45;0.7,0.7]&#45;&gt; Move Left/Right</title>
<path fill="none" stroke="red" stroke-width="0.371165" d="M668.7,-420.504C678.866,-415.149 692.943,-408.525 706.174,-404.985 870.054,-361.137 919.199,-398.964 1086.17,-368.985 1164.08,-354.997 1251.8,-330.17 1309.09,-312.69"/>
<polygon fill="red" stroke="red" stroke-width="0.371165" points="1310.18,-316.015 1318.72,-309.734 1308.13,-309.323 1310.18,-316.015"/>
</g>
<!-- wallRadar[&#45;0.7,0.7]&#45;&gt;Turn left/right -->
<g id="edge17" class="edge"><title>wallRadar[&#45;0.7,0.7]&#45;&gt;Turn left/right</title>
<path fill="none" stroke="green" stroke-width="0.237606" d="M671.445,-420.678C681.535,-416.014 694.535,-410.077 706.174,-404.985 744.135,-388.376 765.226,-400.462 792.174,-368.985 838.062,-315.383 812.94,-283.26 830.174,-214.836 839.692,-177.045 850.636,-134.51 859.101,-101.804"/>
<polygon fill="green" stroke="green" stroke-width="0.237606" points="862.525,-102.543 861.645,-91.9852 855.749,-100.788 862.525,-102.543"/>
</g>
<!-- wallRadar[&#45;0.7,&#45;0.7] -->
<g id="node7" class="node"><title>wallRadar[&#45;0.7,&#45;0.7]</title>
<polygon fill="lightgray" stroke="black" points="711.674,-163.087 622.674,-163.087 622.674,-145.087 711.674,-145.087 711.674,-163.087"/>
<text text-anchor="middle" x="667.174" y="-151.887" font-family="Times,serif" font-size="9.00">wallRadar[&#45;0.7,&#45;0.7]</text>
</g>
<!-- wallRadar[&#45;0.7,&#45;0.7]&#45;&gt;Turn left/right -->
<g id="edge18" class="edge"><title>wallRadar[&#45;0.7,&#45;0.7]&#45;&gt;Turn left/right</title>
<path fill="none" stroke="red" stroke-width="0.278055" stroke-dasharray="1,5" d="M682.996,-144.99C712.524,-129.88 777.161,-96.8023 822.861,-73.4158"/>
<polygon fill="red" stroke="red" stroke-width="0.278055" points="824.712,-76.4006 832.019,-68.7293 821.523,-70.1691 824.712,-76.4006"/>
</g>
<!-- wallRadar[0.7,&#45;0.7] -->
<g id="node8" class="node"><title>wallRadar[0.7,&#45;0.7]</title>
<polygon fill="lightgray" stroke="black" points="139.174,-438.734 53.1737,-438.734 53.1737,-420.734 139.174,-420.734 139.174,-438.734"/>
<text text-anchor="middle" x="96.1737" y="-427.534" font-family="Times,serif" font-size="9.00">wallRadar[0.7,&#45;0.7]</text>
</g>
<!-- wallRadar[0.7,&#45;0.7]&#45;&gt;Shoot -->
<g id="edge19" class="edge"><title>wallRadar[0.7,&#45;0.7]&#45;&gt;Shoot</title>
<path fill="none" stroke="green" stroke-width="0.589555" d="M110.734,-420.627C120.915,-415.327 134.996,-408.717 148.174,-404.985 474.212,-312.635 887.951,-296.357 1012.84,-293.509"/>
<polygon fill="green" stroke="green" stroke-width="0.589555" points="1013.1,-297.004 1023.02,-293.293 1012.95,-290.006 1013.1,-297.004"/>
</g>
<!-- wallRadar[0.7,&#45;0.7]&#45;&gt;Turn left/right -->
<g id="edge20" class="edge"><title>wallRadar[0.7,&#45;0.7]&#45;&gt;Turn left/right</title>
<path fill="none" stroke="red" stroke-width="0.361963" d="M97.2776,-420.661C103.453,-379.156 137.885,-189.404 258.174,-129.338 355.631,-80.673 683.025,-57.9251 816.155,-50.5203"/>
<polygon fill="red" stroke="red" stroke-width="0.361963" points="816.742,-53.9935 826.536,-49.9522 816.359,-47.004 816.742,-53.9935"/>
</g>
<!-- enemyRadar[RightBack] -->
<g id="node9" class="node"><title>enemyRadar[RightBack]</title>
<polygon fill="lightgray" stroke="black" points="1837.17,-438.734 1733.17,-438.734 1733.17,-420.734 1837.17,-420.734 1837.17,-438.734"/>
<text text-anchor="middle" x="1785.17" y="-427.534" font-family="Times,serif" font-size="9.00">enemyRadar[RightBack]</text>
</g>
<!-- enemyRadar[RightBack]&#45;&gt;Shoot -->
<g id="edge21" class="edge"><title>enemyRadar[RightBack]&#45;&gt;Shoot</title>
<path fill="none" stroke="green" stroke-width="0.633032" stroke-dasharray="1,5" d="M1767.94,-420.636C1755.72,-415.269 1738.79,-408.576 1723.17,-404.985 1542.32,-363.388 1489.52,-403.497 1307.17,-368.985 1225.9,-353.603 1133.59,-322.905 1084.75,-305.576"/>
<polygon fill="green" stroke="green" stroke-width="0.633032" points="1085.88,-302.265 1075.29,-302.194 1083.53,-308.857 1085.88,-302.265"/>
</g>
<!-- enemyRadar[RightBack]&#45;&gt;Move Forward/Backward -->
<g id="edge22" class="edge"><title>enemyRadar[RightBack]&#45;&gt;Move Forward/Backward</title>
<path fill="none" stroke="green" stroke-width="0.350926" d="M1781.36,-420.644C1776.49,-410.296 1767.52,-391.276 1757.98,-371.017"/>
<polygon fill="green" stroke="green" stroke-width="0.350926" points="1761.14,-369.52 1753.71,-361.966 1754.81,-372.504 1761.14,-369.52"/>
</g>
<!-- enemyRadar[RightBack]&#45;&gt; Move Left/Right -->
<g id="edge23" class="edge"><title>enemyRadar[RightBack]&#45;&gt; Move Left/Right</title>
<path fill="none" stroke="red" stroke-width="0.244725" stroke-dasharray="1,5" d="M1764.9,-420.629C1752.84,-415.894 1737.21,-409.902 1723.17,-404.985 1622.59,-369.741 1504.26,-333.026 1433.61,-311.602"/>
<polygon fill="red" stroke="red" stroke-width="0.244725" points="1434.55,-308.229 1423.97,-308.682 1432.52,-314.929 1434.55,-308.229"/>
</g>
<!-- enemyRadar[LeftBack] -->
<g id="node10" class="node"><title>enemyRadar[LeftBack]</title>
<polygon fill="lightgray" stroke="black" points="814.674,-438.734 715.674,-438.734 715.674,-420.734 814.674,-420.734 814.674,-438.734"/>
<text text-anchor="middle" x="765.174" y="-427.534" font-family="Times,serif" font-size="9.00">enemyRadar[LeftBack]</text>
</g>
<!-- enemyRadar[LeftBack]&#45;&gt;Shoot -->
<g id="edge24" class="edge"><title>enemyRadar[LeftBack]&#45;&gt;Shoot</title>
<path fill="none" stroke="green" stroke-width="0.18861" d="M782.148,-420.644C828.217,-398.689 956.209,-337.691 1017.13,-308.658"/>
<polygon fill="green" stroke="green" stroke-width="0.18861" points="1018.79,-311.746 1026.31,-304.284 1015.77,-305.427 1018.79,-311.746"/>
</g>
<!-- enemyRadar[LeftBack]&#45;&gt;Move Forward/Backward -->
<g id="edge25" class="edge"><title>enemyRadar[LeftBack]&#45;&gt;Move Forward/Backward</title>
<path fill="none" stroke="green" stroke-width="0.338884" d="M780.958,-420.606C792.366,-415.15 808.32,-408.364 823.174,-404.985 1088.86,-344.541 1166.16,-412.224 1435.17,-368.985 1504.71,-357.809 1581.77,-336.791 1638.37,-319.675"/>
<polygon fill="green" stroke="green" stroke-width="0.338884" points="1639.44,-323.009 1647.98,-316.746 1637.39,-316.313 1639.44,-323.009"/>
</g>
<!-- enemyRadar[LeftBack]&#45;&gt; Move Left/Right -->
<g id="edge26" class="edge"><title>enemyRadar[LeftBack]&#45;&gt; Move Left/Right</title>
<path fill="none" stroke="green" stroke-width="0.450817" d="M781.539,-420.73C792.951,-415.476 808.672,-408.879 823.174,-404.985 937.116,-374.389 970.51,-392.243 1086.17,-368.985 1163.77,-353.381 1251.56,-328.889 1308.94,-311.929"/>
<polygon fill="green" stroke="green" stroke-width="0.450817" points="1310,-315.266 1318.59,-309.064 1308,-308.556 1310,-315.266"/>
</g>
<!-- enemyRadar[LeftBack]&#45;&gt;Turn left/right -->
<g id="edge27" class="edge"><title>enemyRadar[LeftBack]&#45;&gt;Turn left/right</title>
<path fill="none" stroke="red" stroke-width="0.131104" stroke-dasharray="1,5" d="M778.446,-420.682C793.712,-410.639 818.206,-391.959 830.174,-368.985 853.597,-324.021 865.348,-183.206 870.255,-103.721"/>
<polygon fill="red" stroke="red" stroke-width="0.131104" points="873.769,-103.591 870.875,-93.3994 866.782,-103.172 873.769,-103.591"/>
</g>
<!-- enemyRadar[Right45ø] -->
<g id="node11" class="node"><title>enemyRadar[Right45ø]</title>
<polygon fill="lightgray" stroke="black" points="1575.17,-508.482 1475.17,-508.482 1475.17,-490.482 1575.17,-490.482 1575.17,-508.482"/>
<text text-anchor="middle" x="1525.17" y="-497.282" font-family="Times,serif" font-size="9.00">enemyRadar[Right45ø]</text>
</g>
<!-- enemyRadar[Right45ø]&#45;&gt; Move Left/Right -->
<g id="edge28" class="edge"><title>enemyRadar[Right45ø]&#45;&gt; Move Left/Right</title>
<path fill="none" stroke="green" stroke-width="1.06779" stroke-dasharray="1,5" d="M1525.28,-490.335C1525.15,-473.259 1522.93,-432.986 1506.17,-404.985 1486.97,-372.886 1455.12,-345.794 1427.19,-326.292"/>
<polygon fill="green" stroke="green" stroke-width="1.06779" points="1428.9,-323.221 1418.66,-320.485 1424.96,-329.007 1428.9,-323.221"/>
</g>
<!-- enemyRadar[Right45ø]&#45;&gt;Turn left/right -->
<g id="edge65" class="edge"><title>enemyRadar[Right45ø]&#45;&gt;Turn left/right</title>
<path fill="none" stroke="red" stroke-width="0.196524" d="M1475.14,-497.944C1219.45,-495.074 69.6493,-480.726 44.1737,-454.482 -66.6754,-340.291 50.1683,-197.085 194.174,-129.338 304.228,-77.5636 673.003,-56.3524 815.912,-49.945"/>
<polygon fill="red" stroke="red" stroke-width="0.196524" points="816.373,-53.4282 826.209,-49.4916 816.065,-46.435 816.373,-53.4282"/>
</g>
<!-- 7650 -->
<g id="node28" class="node"><title>7650</title>
<ellipse fill="white" stroke="black" cx="1993.17" cy="-429.734" rx="25" ry="25"/>
<text text-anchor="middle" x="1993.17" y="-427.534" font-family="Times,serif" font-size="9.00">7650</text>
</g>
<!-- enemyRadar[Right45ø]&#45;&gt;7650 -->
<g id="edge68" class="edge"><title>enemyRadar[Right45ø]&#45;&gt;7650</title>
<path fill="none" stroke="red" stroke-width="0.158057" d="M1575.18,-496.571C1673.82,-492.287 1889.86,-480.207 1959.17,-454.482 1961.31,-453.688 1963.44,-452.727 1965.53,-451.652"/>
<polygon fill="red" stroke="red" stroke-width="0.158057" points="1967.57,-454.513 1974.36,-446.378 1963.98,-448.506 1967.57,-454.513"/>
</g>
<!-- enemyRadar[Left45ø] -->
<g id="node12" class="node"><title>enemyRadar[Left45ø]</title>
<polygon fill="lightgray" stroke="black" points="1950.67,-438.734 1855.67,-438.734 1855.67,-420.734 1950.67,-420.734 1950.67,-438.734"/>
<text text-anchor="middle" x="1903.17" y="-427.534" font-family="Times,serif" font-size="9.00">enemyRadar[Left45ø]</text>
</g>
<!-- enemyRadar[Left45ø]&#45;&gt;Shoot -->
<g id="edge29" class="edge"><title>enemyRadar[Left45ø]&#45;&gt;Shoot</title>
<path fill="none" stroke="red" stroke-width="0.444709" stroke-dasharray="1,5" d="M1887.67,-420.638C1876.46,-415.198 1860.78,-408.417 1846.17,-404.985 1612.45,-350.079 1543.5,-411.316 1307.17,-368.985 1225.76,-354.401 1133.5,-323.393 1084.71,-305.799"/>
<polygon fill="red" stroke="red" stroke-width="0.444709" points="1085.85,-302.492 1075.26,-302.364 1083.46,-309.071 1085.85,-302.492"/>
</g>
<!-- enemyRadar[Left45ø]&#45;&gt;Move Forward/Backward -->
<g id="edge30" class="edge"><title>enemyRadar[Left45ø]&#45;&gt;Move Forward/Backward</title>
<path fill="none" stroke="red" stroke-width="0.387672" d="M1892.33,-420.644C1872.54,-405.875 1829.08,-373.439 1790.91,-344.95"/>
<polygon fill="red" stroke="red" stroke-width="0.387672" points="1792.96,-342.114 1782.85,-338.938 1788.77,-347.724 1792.96,-342.114"/>
</g>
<!-- enemyRadar[Left45ø]&#45;&gt; Move Left/Right -->
<g id="edge31" class="edge"><title>enemyRadar[Left45ø]&#45;&gt; Move Left/Right</title>
<path fill="none" stroke="red" stroke-width="0.370869" stroke-dasharray="1,5" d="M1886.57,-420.644C1875.39,-415.489 1860.18,-409.04 1846.17,-404.985 1754.8,-378.522 1727.91,-390.189 1635.17,-368.985 1565.35,-353.021 1486.61,-329.612 1433.44,-312.984"/>
<polygon fill="red" stroke="red" stroke-width="0.370869" points="1434.4,-309.619 1423.82,-309.961 1432.31,-316.297 1434.4,-309.619"/>
</g>
<!-- enemyRadar[RightFront20ø] -->
<g id="node13" class="node"><title>enemyRadar[RightFront20ø]</title>
<polygon fill="lightgray" stroke="black" points="951.674,-438.734 832.674,-438.734 832.674,-420.734 951.674,-420.734 951.674,-438.734"/>
<text text-anchor="middle" x="892.174" y="-427.534" font-family="Times,serif" font-size="9.00">enemyRadar[RightFront20ø]</text>
</g>
<!-- enemyRadar[RightFront20ø]&#45;&gt;Shoot -->
<g id="edge32" class="edge"><title>enemyRadar[RightFront20ø]&#45;&gt;Shoot</title>
<path fill="none" stroke="red" stroke-width="0.327673" d="M901.584,-420.644C924.931,-400.574 986.23,-347.879 1022.38,-316.8"/>
<polygon fill="red" stroke="red" stroke-width="0.327673" points="1024.83,-319.315 1030.13,-310.142 1020.26,-314.007 1024.83,-319.315"/>
</g>
<!-- enemyRadar[RightFront20ø]&#45;&gt;Move Forward/Backward -->
<g id="edge33" class="edge"><title>enemyRadar[RightFront20ø]&#45;&gt;Move Forward/Backward</title>
<path fill="none" stroke="red" stroke-width="0.237404" stroke-dasharray="1,5" d="M910.85,-420.728C924.306,-415.33 943.036,-408.563 960.174,-404.985 1167.42,-361.716 1226.43,-404.347 1435.17,-368.985 1504.61,-357.222 1581.68,-336.246 1638.31,-319.295"/>
<polygon fill="red" stroke="red" stroke-width="0.237404" points="1639.36,-322.634 1647.92,-316.396 1637.34,-315.931 1639.36,-322.634"/>
</g>
<!-- enemyRadar[RightFront20ø]&#45;&gt; Move Left/Right -->
<g id="edge34" class="edge"><title>enemyRadar[RightFront20ø]&#45;&gt; Move Left/Right</title>
<path fill="none" stroke="green" stroke-width="0.526098" stroke-dasharray="1,5" d="M914.094,-420.641C927.356,-415.855 944.649,-409.806 960.174,-404.985 1025.3,-384.759 1209.88,-335.513 1308.02,-309.554"/>
<polygon fill="green" stroke="green" stroke-width="0.526098" points="1309.04,-312.904 1317.81,-306.964 1307.25,-306.137 1309.04,-312.904"/>
</g>
<!-- enemyRadar[RightFront20ø]&#45;&gt;Turn left/right -->
<g id="edge35" class="edge"><title>enemyRadar[RightFront20ø]&#45;&gt;Turn left/right</title>
<path fill="none" stroke="red" stroke-width="0.129229" stroke-dasharray="1,5" d="M891.759,-420.42C889.717,-379.453 880.633,-197.274 875.965,-103.643"/>
<polygon fill="red" stroke="red" stroke-width="0.129229" points="879.453,-103.312 875.459,-93.4989 872.461,-103.661 879.453,-103.312"/>
</g>
<!-- enemyRadar[LeftFront20ø] -->
<g id="node14" class="node"><title>enemyRadar[LeftFront20ø]</title>
<polygon fill="lightgray" stroke="black" points="359.174,-438.734 245.174,-438.734 245.174,-420.734 359.174,-420.734 359.174,-438.734"/>
<text text-anchor="middle" x="302.174" y="-427.534" font-family="Times,serif" font-size="9.00">enemyRadar[LeftFront20ø]</text>
</g>
<!-- enemyRadar[LeftFront20ø]&#45;&gt;Shoot -->
<g id="edge36" class="edge"><title>enemyRadar[LeftFront20ø]&#45;&gt;Shoot</title>
<path fill="none" stroke="red" stroke-width="0.526243" stroke-dasharray="1,5" d="M321.518,-420.716C334.519,-415.591 352.144,-409.149 368.174,-404.985 610.174,-342.123 910.068,-307.342 1013.27,-296.577"/>
<polygon fill="red" stroke="red" stroke-width="0.526243" points="1013.89,-300.031 1023.48,-295.524 1013.17,-293.068 1013.89,-300.031"/>
</g>
<!-- enemyRadar[LeftFront20ø]&#45;&gt; Move Left/Right -->
<g id="edge37" class="edge"><title>enemyRadar[LeftFront20ø]&#45;&gt; Move Left/Right</title>
<path fill="none" stroke="green" stroke-width="0.459883" d="M319.971,-420.704C333.026,-415.22 351.338,-408.358 368.174,-404.985 681.459,-342.212 770.516,-418.46 1086.17,-368.985 1164.49,-356.71 1252.3,-331.465 1309.49,-313.423"/>
<polygon fill="green" stroke="green" stroke-width="0.459883" points="1310.63,-316.733 1319.1,-310.368 1308.5,-310.062 1310.63,-316.733"/>
</g>
<!-- enemyRadar[LeftFront20ø]&#45;&gt;Turn left/right -->
<g id="edge38" class="edge"><title>enemyRadar[LeftFront20ø]&#45;&gt;Turn left/right</title>
<path fill="none" stroke="red" stroke-width="0.272605" d="M307.804,-420.601C335.628,-381.095 463.134,-207.934 613.174,-129.338 679.656,-94.5122 763.576,-71.4883 817.797,-59.0119"/>
<polygon fill="red" stroke="red" stroke-width="0.272605" points="818.582,-62.4228 827.565,-56.8046 817.039,-55.595 818.582,-62.4228"/>
</g>
<!-- enemyRadar[RightFront15ø] -->
<g id="node15" class="node"><title>enemyRadar[RightFront15ø]</title>
<polygon fill="lightgray" stroke="black" points="1088.67,-438.734 969.674,-438.734 969.674,-420.734 1088.67,-420.734 1088.67,-438.734"/>
<text text-anchor="middle" x="1029.17" y="-427.534" font-family="Times,serif" font-size="9.00">enemyRadar[RightFront15ø]</text>
</g>
<!-- enemyRadar[RightFront15ø]&#45;&gt;Shoot -->
<g id="edge39" class="edge"><title>enemyRadar[RightFront15ø]&#45;&gt;Shoot</title>
<path fill="none" stroke="green" stroke-width="0.699124" stroke-dasharray="1,5" d="M1030.42,-420.644C1033.16,-402.942 1039.82,-359.859 1044.65,-328.614"/>
<polygon fill="green" stroke="green" stroke-width="0.699124" points="1048.14,-328.942 1046.21,-318.525 1041.23,-327.873 1048.14,-328.942"/>
</g>
<!-- enemyRadar[RightFront15ø]&#45;&gt;Move Forward/Backward -->
<g id="edge40" class="edge"><title>enemyRadar[RightFront15ø]&#45;&gt;Move Forward/Backward</title>
<path fill="none" stroke="red" stroke-width="0.213747" stroke-dasharray="1,5" d="M1048.76,-420.668C1062.39,-415.387 1081.11,-408.782 1098.17,-404.985 1245.21,-372.267 1287.06,-396.426 1435.17,-368.985 1504.42,-356.155 1581.51,-335.255 1638.18,-318.604"/>
<polygon fill="red" stroke="red" stroke-width="0.213747" points="1639.21,-321.95 1647.81,-315.76 1637.23,-315.237 1639.21,-321.95"/>
</g>
<!-- enemyRadar[RightFront15ø]&#45;&gt; Move Left/Right -->
<g id="edge41" class="edge"><title>enemyRadar[RightFront15ø]&#45;&gt; Move Left/Right</title>
<path fill="none" stroke="red" stroke-width="0.473836" d="M1049.54,-420.644C1099.95,-400.626 1232.07,-348.153 1310.41,-317.042"/>
<polygon fill="red" stroke="red" stroke-width="0.473836" points="1312.15,-320.116 1320.15,-313.172 1309.57,-313.61 1312.15,-320.116"/>
</g>
<!-- enemyRadar[RightFront15ø]&#45;&gt;Turn left/right -->
<g id="edge42" class="edge"><title>enemyRadar[RightFront15ø]&#45;&gt;Turn left/right</title>
<path fill="none" stroke="green" stroke-width="0.663794" stroke-dasharray="1,5" d="M1025.77,-420.42C1008.75,-378.845 932.19,-191.83 894.404,-99.5298"/>
<polygon fill="green" stroke="green" stroke-width="0.663794" points="897.571,-98.0254 890.543,-90.0969 891.092,-100.677 897.571,-98.0254"/>
</g>
<!-- enemyRadar[LeftFront15ø] -->
<g id="node16" class="node"><title>enemyRadar[LeftFront15ø]</title>
<polygon fill="lightgray" stroke="black" points="491.174,-438.734 377.174,-438.734 377.174,-420.734 491.174,-420.734 491.174,-438.734"/>
<text text-anchor="middle" x="434.174" y="-427.534" font-family="Times,serif" font-size="9.00">enemyRadar[LeftFront15ø]</text>
</g>
<!-- enemyRadar[LeftFront15ø]&#45;&gt;Shoot -->
<g id="edge43" class="edge"><title>enemyRadar[LeftFront15ø]&#45;&gt;Shoot</title>
<path fill="none" stroke="red" stroke-width="0.160748" d="M453.202,-420.713C466.218,-415.52 483.981,-409.001 500.174,-404.985 610.838,-377.54 642.344,-391.209 754.174,-368.985 849.463,-350.047 959.869,-319.282 1015.02,-303.296"/>
<polygon fill="red" stroke="red" stroke-width="0.160748" points="1016.04,-306.646 1024.66,-300.489 1014.08,-299.925 1016.04,-306.646"/>
</g>
<!-- enemyRadar[LeftFront15ø]&#45;&gt; Move Left/Right -->
<g id="edge44" class="edge"><title>enemyRadar[LeftFront15ø]&#45;&gt; Move Left/Right</title>
<path fill="none" stroke="green" stroke-width="0.124574" d="M452.262,-420.645C465.303,-415.208 483.477,-408.428 500.174,-404.985 755.731,-352.281 828.617,-410.84 1086.17,-368.985 1164.42,-356.269 1252.24,-331.116 1309.45,-313.216"/>
<polygon fill="green" stroke="green" stroke-width="0.124574" points="1310.58,-316.53 1319.07,-310.186 1308.48,-309.854 1310.58,-316.53"/>
</g>
<!-- enemyRadar[LeftFront15ø]&#45;&gt;Turn left/right -->
<g id="edge45" class="edge"><title>enemyRadar[LeftFront15ø]&#45;&gt;Turn left/right</title>
<path fill="none" stroke="green" stroke-width="0.390241" d="M443.751,-420.42C494.416,-376.442 732.557,-169.728 830.717,-84.5223"/>
<polygon fill="green" stroke="green" stroke-width="0.390241" points="833.12,-87.0712 838.378,-77.8729 828.532,-81.7849 833.12,-87.0712"/>
</g>
<!-- enemyRadar[RightFront7.5ø] -->
<g id="node17" class="node"><title>enemyRadar[RightFront7.5ø]</title>
<polygon fill="lightgray" stroke="black" points="2393.17,-438.734 2271.17,-438.734 2271.17,-420.734 2393.17,-420.734 2393.17,-438.734"/>
<text text-anchor="middle" x="2332.17" y="-427.534" font-family="Times,serif" font-size="9.00">enemyRadar[RightFront7.5ø]</text>
</g>
<!-- enemyRadar[RightFront7.5ø]&#45;&gt;Move Forward/Backward -->
<g id="edge46" class="edge"><title>enemyRadar[RightFront7.5ø]&#45;&gt;Move Forward/Backward</title>
<path fill="none" stroke="green" stroke-width="0.381754" d="M2308.71,-420.634C2294.01,-415.728 2274.61,-409.557 2257.17,-404.985 2173.04,-382.928 1935.33,-335.143 1806.58,-309.678"/>
<polygon fill="green" stroke="green" stroke-width="0.381754" points="1807.23,-306.24 1796.74,-307.735 1805.88,-313.107 1807.23,-306.24"/>
</g>
<!-- enemyRadar[RightFront7.5ø]&#45;&gt; Move Left/Right -->
<g id="edge47" class="edge"><title>enemyRadar[RightFront7.5ø]&#45;&gt; Move Left/Right</title>
<path fill="none" stroke="red" stroke-width="0.217321" stroke-dasharray="1,5" d="M2301.39,-420.704C2279.68,-415.367 2249.84,-408.684 2223.17,-404.985 1963.83,-369.01 1893.18,-413.501 1635.17,-368.985 1564.37,-356.769 1485.49,-332.592 1432.55,-314.758"/>
<polygon fill="red" stroke="red" stroke-width="0.217321" points="1433.57,-311.408 1422.98,-311.507 1431.32,-318.036 1433.57,-311.408"/>
</g>
<!-- enemyRadar[RightFront7.5ø]&#45;&gt;Turn left/right -->
<g id="edge48" class="edge"><title>enemyRadar[RightFront7.5ø]&#45;&gt;Turn left/right</title>
<path fill="none" stroke="red" stroke-width="0.28678" stroke-dasharray="1,5" d="M2328.65,-420.343C2314.4,-387.544 2257.51,-267.242 2169.17,-214.836 1954.54,-87.5068 1151.62,-55.5666 930.096,-49.1023"/>
<polygon fill="red" stroke="red" stroke-width="0.28678" points="930.087,-45.6007 919.991,-48.8134 929.887,-52.5978 930.087,-45.6007"/>
</g>
<!-- enemyRadar[LeftFront7.5ø] -->
<g id="node18" class="node"><title>enemyRadar[LeftFront7.5ø]</title>
<polygon fill="lightgray" stroke="black" points="1223.17,-438.734 1107.17,-438.734 1107.17,-420.734 1223.17,-420.734 1223.17,-438.734"/>
<text text-anchor="middle" x="1165.17" y="-427.534" font-family="Times,serif" font-size="9.00">enemyRadar[LeftFront7.5ø]</text>
</g>
<!-- enemyRadar[LeftFront7.5ø]&#45;&gt;Shoot -->
<g id="edge49" class="edge"><title>enemyRadar[LeftFront7.5ø]&#45;&gt;Shoot</title>
<path fill="none" stroke="green" stroke-width="0.433738" d="M1158.32,-420.644C1142.08,-401.456 1100.58,-352.448 1073.97,-321.018"/>
<polygon fill="green" stroke="green" stroke-width="0.433738" points="1076.36,-318.418 1067.22,-313.047 1071.01,-322.941 1076.36,-318.418"/>
</g>
<!-- enemyRadar[LeftFront7.5ø]&#45;&gt;Move Forward/Backward -->
<g id="edge50" class="edge"><title>enemyRadar[LeftFront7.5ø]&#45;&gt;Move Forward/Backward</title>
<path fill="none" stroke="green" stroke-width="0.190459" d="M1185.13,-420.682C1198.31,-415.609 1216.07,-409.237 1232.17,-404.985 1320.77,-381.599 1345.71,-388.78 1435.17,-368.985 1503.82,-353.797 1580.79,-333.111 1637.58,-317.143"/>
<polygon fill="green" stroke="green" stroke-width="0.190459" points="1638.55,-320.505 1647.22,-314.421 1636.65,-313.768 1638.55,-320.505"/>
</g>
<!-- enemyRadar[LeftFront7.5ø]&#45;&gt; Move Left/Right -->
<g id="edge51" class="edge"><title>enemyRadar[LeftFront7.5ø]&#45;&gt; Move Left/Right</title>
<path fill="none" stroke="green" stroke-width="0.285039" d="M1177.44,-420.644C1204.27,-402.956 1269.53,-359.925 1316.91,-328.686"/>
<polygon fill="green" stroke="green" stroke-width="0.285039" points="1319.12,-331.425 1325.54,-322.999 1315.26,-325.581 1319.12,-331.425"/>
</g>
<!-- enemyRadar[LeftFront7.5ø]&#45;&gt;Turn left/right -->
<g id="edge67" class="edge"><title>enemyRadar[LeftFront7.5ø]&#45;&gt;Turn left/right</title>
<path fill="none" stroke="green" stroke-width="0.155523" d="M1163.83,-420.605C1158.55,-390.654 1136.99,-284.589 1086.17,-214.836 1042.01,-154.208 970.145,-104.213 922.273,-75.1503"/>
<polygon fill="green" stroke="green" stroke-width="0.155523" points="924.003,-72.1065 913.626,-69.9695 920.405,-78.1113 924.003,-72.1065"/>
</g>
<!-- enemyRadar[RightFront2.5ø] -->
<g id="node19" class="node"><title>enemyRadar[RightFront2.5ø]</title>
<polygon fill="lightgray" stroke="black" points="1363.17,-438.734 1241.17,-438.734 1241.17,-420.734 1363.17,-420.734 1363.17,-438.734"/>
<text text-anchor="middle" x="1302.17" y="-427.534" font-family="Times,serif" font-size="9.00">enemyRadar[RightFront2.5ø]</text>
</g>
<!-- enemyRadar[RightFront2.5ø]&#45;&gt;Shoot -->
<g id="edge52" class="edge"><title>enemyRadar[RightFront2.5ø]&#45;&gt;Shoot</title>
<path fill="none" stroke="red" stroke-width="0.4018" stroke-dasharray="1,5" d="M1287.16,-420.644C1247.2,-399.103 1137.5,-339.979 1082.5,-310.335"/>
<polygon fill="red" stroke="red" stroke-width="0.4018" points="1084,-307.163 1073.53,-305.5 1080.67,-313.325 1084,-307.163"/>
</g>
<!-- enemyRadar[RightFront2.5ø]&#45;&gt;Move Forward/Backward -->
<g id="edge53" class="edge"><title>enemyRadar[RightFront2.5ø]&#45;&gt;Move Forward/Backward</title>
<path fill="none" stroke="green" stroke-width="0.403088" stroke-dasharray="1,5" d="M1325.48,-420.722C1339.08,-416.072 1356.58,-410.135 1372.17,-404.985 1462.93,-375.019 1567.32,-341.64 1638.1,-319.166"/>
<polygon fill="green" stroke="green" stroke-width="0.403088" points="1639.39,-322.429 1647.86,-316.068 1637.27,-315.757 1639.39,-322.429"/>
</g>
<!-- enemyRadar[RightFront2.5ø]&#45;&gt; Move Left/Right -->
<g id="edge54" class="edge"><title>enemyRadar[RightFront2.5ø]&#45;&gt; Move Left/Right</title>
<path fill="none" stroke="green" stroke-width="0.433398" stroke-dasharray="1,5" d="M1306.28,-420.644C1313.3,-406.842 1328.15,-377.609 1341.87,-350.588"/>
<polygon fill="green" stroke="green" stroke-width="0.433398" points="1345.06,-352.036 1346.47,-341.535 1338.82,-348.865 1345.06,-352.036"/>
</g>
<!-- enemyRadar[LeftFront2.5ø] -->
<g id="node20" class="node"><title>enemyRadar[LeftFront2.5ø]</title>
<polygon fill="lightgray" stroke="black" points="1497.17,-438.734 1381.17,-438.734 1381.17,-420.734 1497.17,-420.734 1497.17,-438.734"/>
<text text-anchor="middle" x="1439.17" y="-427.534" font-family="Times,serif" font-size="9.00">enemyRadar[LeftFront2.5ø]</text>
</g>
<!-- enemyRadar[LeftFront2.5ø]&#45;&gt;Shoot -->
<g id="edge55" class="edge"><title>enemyRadar[LeftFront2.5ø]&#45;&gt;Shoot</title>
<path fill="none" stroke="green" stroke-width="0.90946" stroke-dasharray="1,5" d="M1416.55,-420.677C1403.57,-416.064 1386.96,-410.179 1372.17,-404.985 1267.91,-368.361 1144.46,-325.547 1085.27,-305.051"/>
<polygon fill="green" stroke="green" stroke-width="0.90946" points="1086.25,-301.687 1075.65,-301.723 1083.96,-308.302 1086.25,-301.687"/>
</g>
<!-- enemyRadar[LeftFront2.5ø]&#45;&gt;Move Forward/Backward -->
<g id="edge56" class="edge"><title>enemyRadar[LeftFront2.5ø]&#45;&gt;Move Forward/Backward</title>
<path fill="none" stroke="green" stroke-width="0.422675" stroke-dasharray="1,5" d="M1455.97,-420.644C1491.91,-403.334 1578.24,-361.756 1642.7,-330.707"/>
<polygon fill="green" stroke="green" stroke-width="0.422675" points="1644.55,-333.7 1652.04,-326.207 1641.51,-327.393 1644.55,-333.7"/>
</g>
<!-- enemyRadar[LeftFront2.5ø]&#45;&gt; Move Left/Right -->
<g id="edge57" class="edge"><title>enemyRadar[LeftFront2.5ø]&#45;&gt; Move Left/Right</title>
<path fill="none" stroke="green" stroke-width="0.440067" d="M1435.12,-420.644C1428.21,-406.842 1413.58,-377.609 1400.05,-350.588"/>
<polygon fill="green" stroke="green" stroke-width="0.440067" points="1403.12,-348.91 1395.52,-341.535 1396.86,-352.044 1403.12,-348.91"/>
</g>
<!-- enemyRadar[Front7Ø] -->
<g id="node21" class="node"><title>enemyRadar[Front7Ø]</title>
<polygon fill="lightgray" stroke="black" points="2425.17,-508.482 2327.17,-508.482 2327.17,-490.482 2425.17,-490.482 2425.17,-508.482"/>
<text text-anchor="middle" x="2376.17" y="-497.282" font-family="Times,serif" font-size="9.00">enemyRadar[Front7Ø]</text>
</g>
<!-- enemyRadar[Front7Ø]&#45;&gt;Move Forward/Backward -->
<g id="edge58" class="edge"><title>enemyRadar[Front7Ø]&#45;&gt;Move Forward/Backward</title>
<path fill="none" stroke="red" stroke-width="0.253623" d="M2341.88,-490.432C2317.92,-483.627 2286.07,-472.122 2262.17,-454.482 2239.64,-437.849 2246.88,-419.899 2223.17,-404.985 2188.15,-382.949 1940.66,-334.066 1806.74,-308.767"/>
<polygon fill="red" stroke="red" stroke-width="0.253623" points="1807.39,-305.326 1796.91,-306.913 1806.09,-312.205 1807.39,-305.326"/>
</g>
<!-- enemyRadar[Front7Ø]&#45;&gt;Turn left/right -->
<g id="edge59" class="edge"><title>enemyRadar[Front7Ø]&#45;&gt;Turn left/right</title>
<path fill="none" stroke="red" stroke-width="0.103161" stroke-dasharray="1,5" d="M2412.59,-490.354C2432.48,-483.978 2455.73,-472.978 2469.17,-454.482 2491.7,-423.489 2477.72,-407.219 2480.17,-368.985 2484.55,-300.614 2510.42,-276.309 2480.17,-214.836 2452.68,-158.961 2427.55,-151.008 2369.17,-129.338 2232.45,-78.5879 1187.18,-54.0795 930.135,-48.7832"/>
<polygon fill="red" stroke="red" stroke-width="0.103161" points="929.974,-45.2793 919.905,-48.574 929.831,-52.2778 929.974,-45.2793"/>
</g>
<!-- enemyRadar[Front7Ø]&#45;&gt;7650 -->
<g id="edge71" class="edge"><title>enemyRadar[Front7Ø]&#45;&gt;7650</title>
<path fill="none" stroke="green" stroke-width="0.752286" d="M2326.93,-494.247C2265.18,-488.315 2156.37,-475.795 2065.17,-454.482 2052.16,-451.44 2038.14,-447.074 2025.96,-442.913"/>
<polygon fill="green" stroke="green" stroke-width="0.752286" points="2026.82,-439.506 2016.22,-439.5 2024.5,-446.111 2026.82,-439.506"/>
</g>
<!-- 8674 -->
<g id="node29" class="node"><title>8674</title>
<ellipse fill="white" stroke="black" cx="2241.17" cy="-154.087" rx="25" ry="25"/>
<text text-anchor="middle" x="2241.17" y="-151.887" font-family="Times,serif" font-size="9.00">8674</text>
</g>
<!-- enemyRadar[Front7Ø]&#45;&gt;8674 -->
<g id="edge73" class="edge"><title>enemyRadar[Front7Ø]&#45;&gt;8674</title>
<path fill="none" stroke="green" stroke-width="0.300064" d="M2403.06,-490.433C2420.14,-483.769 2440.9,-472.429 2451.17,-454.482 2462.11,-435.393 2458.71,-425.654 2451.17,-404.985 2414.31,-303.815 2316.48,-215.16 2268.49,-176.175"/>
<polygon fill="green" stroke="green" stroke-width="0.300064" points="2270.68,-173.44 2260.69,-169.915 2266.3,-178.901 2270.68,-173.44"/>
</g>
<!-- OnTarget -->
<g id="node22" class="node"><title>OnTarget</title>
<polygon fill="lightgray" stroke="black" points="2124.17,-508.482 2074.17,-508.482 2074.17,-490.482 2124.17,-490.482 2124.17,-508.482"/>
<text text-anchor="middle" x="2099.17" y="-497.282" font-family="Times,serif" font-size="9.00">OnTarget</text>
</g>
<!-- OnTarget&#45;&gt;Move Forward/Backward -->
<g id="edge60" class="edge"><title>OnTarget&#45;&gt;Move Forward/Backward</title>
<path fill="none" stroke="red" stroke-width="0.583744" stroke-dasharray="1,5" d="M2092.9,-490.379C2086.07,-481.555 2074.83,-467.025 2065.17,-454.482 2048.25,-432.51 2050.17,-420.487 2027.17,-404.985 1977.46,-371.475 1953.71,-388.926 1897.17,-368.985 1864.88,-357.596 1830.13,-343.078 1800.1,-329.784"/>
<polygon fill="red" stroke="red" stroke-width="0.583744" points="1801.5,-326.576 1790.94,-325.702 1798.65,-332.97 1801.5,-326.576"/>
</g>
<!-- OnTarget&#45;&gt;Turn left/right -->
<g id="edge61" class="edge"><title>OnTarget&#45;&gt;Turn left/right</title>
<path fill="none" stroke="red" stroke-width="0.675138" d="M2124.33,-497.227C2201.28,-493.135 2429.52,-479.01 2451.17,-454.482 2554.84,-337.052 2458.04,-193.56 2315.17,-129.338 2187.23,-71.8256 1181.16,-52.4568 929.893,-48.4916"/>
<polygon fill="red" stroke="red" stroke-width="0.675138" points="929.937,-44.992 919.883,-48.3356 929.828,-51.9912 929.937,-44.992"/>
</g>
<!-- 8764 -->
<g id="node32" class="node"><title>8764</title>
<ellipse fill="white" stroke="black" cx="2099.17" cy="-429.734" rx="25" ry="25"/>
<text text-anchor="middle" x="2099.17" y="-427.534" font-family="Times,serif" font-size="9.00">8764</text>
</g>
<!-- OnTarget&#45;&gt;8764 -->
<g id="edge75" class="edge"><title>OnTarget&#45;&gt;8764</title>
<path fill="none" stroke="green" stroke-width="0.382182" d="M2099.17,-490.445C2099.17,-484.01 2099.17,-474.512 2099.17,-464.975"/>
<polygon fill="green" stroke="green" stroke-width="0.382182" points="2102.67,-464.755 2099.17,-454.755 2095.67,-464.755 2102.67,-464.755"/>
</g>
<!-- bias -->
<g id="node23" class="node"><title>bias</title>
<polygon fill="lightgray" stroke="black" points="2442.67,-438.734 2411.67,-438.734 2411.67,-420.734 2442.67,-420.734 2442.67,-438.734"/>
<text text-anchor="middle" x="2427.17" y="-427.534" font-family="Times,serif" font-size="9.00">bias</text>
</g>
<!-- bias&#45;&gt;Move Forward/Backward -->
<g id="edge62" class="edge"><title>bias&#45;&gt;Move Forward/Backward</title>
<path fill="none" stroke="green" stroke-width="0.441576" d="M2421.1,-420.72C2416.52,-415.318 2409.76,-408.55 2402.17,-404.985 2280.24,-347.672 2234.22,-390.225 2101.17,-368.985 1999.28,-352.718 1883.09,-328.638 1806.3,-311.945"/>
<polygon fill="green" stroke="green" stroke-width="0.441576" points="1806.72,-308.454 1796.2,-309.743 1805.23,-315.293 1806.72,-308.454"/>
</g>
<!-- bias&#45;&gt;Turn left/right -->
<g id="edge63" class="edge"><title>bias&#45;&gt;Turn left/right</title>
<path fill="none" stroke="green" stroke-width="0.436567" stroke-dasharray="1,5" d="M2425.98,-420.604C2419.62,-380.374 2385.64,-201.652 2275.17,-129.338 2161.3,-54.7945 1179.44,-48.1567 930.405,-47.6773"/>
<polygon fill="green" stroke="green" stroke-width="0.436567" points="930.139,-44.177 920.133,-47.6603 930.127,-51.177 930.139,-44.177"/>
</g>
<!-- Move Forward/Backward&#45;&gt;8674 -->
<g id="edge78" class="edge"><title>Move Forward/Backward&#45;&gt;8674</title>
<path fill="none" stroke="green" stroke-width="0.133816" d="M1795.68,-271.45C1910.13,-241.554 2124.66,-185.519 2207.42,-163.904"/>
<polygon fill="green" stroke="green" stroke-width="0.133816" points="2208.5,-167.238 2217.29,-161.324 2206.73,-160.465 2208.5,-167.238"/>
</g>
<!-- 7650&#45;&gt;Move Forward/Backward -->
<g id="edge72" class="edge"><title>7650&#45;&gt;Move Forward/Backward</title>
<path fill="none" stroke="red" stroke-width="0.374205" d="M1973.77,-414.337C1969.09,-411.103 1964.03,-407.799 1959.17,-404.985 1908.23,-375.481 1848.24,-347.274 1801.24,-326.537"/>
<polygon fill="red" stroke="red" stroke-width="0.374205" points="1802.58,-323.304 1792.02,-322.491 1799.77,-329.714 1802.58,-323.304"/>
</g>
<!-- 7650&#45;&gt; Move Left/Right -->
<g id="edge69" class="edge"><title>7650&#45;&gt; Move Left/Right</title>
<path fill="none" stroke="red" stroke-width="0.160848" stroke-dasharray="1,5" d="M1974.34,-413.126C1969.64,-409.942 1964.43,-406.964 1959.17,-404.985 1823.58,-353.92 1777.3,-397.145 1635.17,-368.985 1564.7,-355.021 1485.76,-331.153 1432.72,-313.87"/>
<polygon fill="red" stroke="red" stroke-width="0.160848" points="1433.72,-310.513 1423.12,-310.723 1431.53,-317.165 1433.72,-310.513"/>
</g>
<!-- 8674&#45;&gt;Turn left/right -->
<g id="edge74" class="edge"><title>8674&#45;&gt;Turn left/right</title>
<path fill="none" stroke="green" stroke-width="0.117274" d="M2221.43,-138.527C2215.52,-134.887 2208.83,-131.427 2202.17,-129.338 1959.56,-53.1776 1152.38,-47.6036 930.21,-47.5418"/>
<polygon fill="green" stroke="green" stroke-width="0.117274" points="930.077,-44.0417 920.077,-47.5427 930.077,-51.0417 930.077,-44.0417"/>
</g>
<!-- 8764&#45;&gt;Move Forward/Backward -->
<g id="edge76" class="edge"><title>8764&#45;&gt;Move Forward/Backward</title>
<path fill="none" stroke="red" stroke-width="0.599293" d="M2079.19,-414.836C2073.28,-411.206 2066.65,-407.586 2060.17,-404.985 1991.34,-377.317 1967.77,-391.806 1897.17,-368.985 1864.45,-358.406 1829.48,-343.976 1799.39,-330.526"/>
<polygon fill="red" stroke="red" stroke-width="0.599293" points="1800.78,-327.311 1790.22,-326.388 1797.9,-333.691 1800.78,-327.311"/>
</g>
</g>
</svg>
