<?xml version="1.0" encoding="UTF-8" standalone="no"?>
<!DOCTYPE svg PUBLIC "-//W3C//DTD SVG 1.1//EN"
 "http://www.w3.org/Graphics/SVG/1.1/DTD/svg11.dtd">
<!-- Generated by graphviz version 2.38.0 (20140413.2041)
 -->
<!-- Title: %3 Pages: 1 -->
<svg width="2559pt" height="216pt"
 viewBox="0.00 0.00 2558.50 216.15" xmlns="http://www.w3.org/2000/svg" xmlns:xlink="http://www.w3.org/1999/xlink">
<g id="graph0" class="graph" transform="scale(1 1) rotate(0) translate(4 212.149)">
<title>%3</title>
<polygon fill="white" stroke="none" points="-4,4 -4,-212.149 2554.5,-212.149 2554.5,4 -4,4"/>
<!-- wallRadar[1,0] -->
<g id="node1" class="node"><title>wallRadar[1,0]</title>
<polygon fill="lightgray" stroke="black" points="174,-208.149 104,-208.149 104,-190.149 174,-190.149 174,-208.149"/>
<text text-anchor="middle" x="139" y="-196.949" font-family="Times,serif" font-size="9.00">wallRadar[1,0]</text>
</g>
<!-- Move Forward/Backward -->
<g id="node25" class="node"><title>Move Forward/Backward</title>
<ellipse fill="lightblue" stroke="black" cx="561" cy="-77.0746" rx="77.1494" ry="77.1494"/>
<text text-anchor="middle" x="561" y="-74.8746" font-family="Times,serif" font-size="9.00">Move Forward/Backward</text>
</g>
<!-- wallRadar[1,0]&#45;&gt;Move Forward/Backward -->
<g id="edge21" class="edge"><title>wallRadar[1,0]&#45;&gt;Move Forward/Backward</title>
<path fill="none" stroke="red" stroke-width="0.196964" d="M167.344,-190.084C229.876,-172.292 381.697,-129.093 477.471,-101.842"/>
<polygon fill="red" stroke="red" stroke-width="0.196964" points="478.475,-105.195 487.135,-99.092 476.559,-98.4624 478.475,-105.195"/>
</g>
<!--  Move Left/Right -->
<g id="node26" class="node"><title> Move Left/Right</title>
<ellipse fill="lightblue" stroke="black" cx="796" cy="-77.0746" rx="55.3091" ry="55.3091"/>
<text text-anchor="middle" x="796" y="-74.8746" font-family="Times,serif" font-size="9.00"> Move Left/Right</text>
</g>
<!-- wallRadar[1,0]&#45;&gt; Move Left/Right -->
<g id="edge10" class="edge"><title>wallRadar[1,0]&#45;&gt; Move Left/Right</title>
<path fill="none" stroke="green" stroke-width="0.194803" d="M174.014,-191.449C177.047,-190.97 180.074,-190.528 183,-190.149 388.133,-163.614 447.916,-210.267 647,-154.149 679.776,-144.91 713.784,-128.177 741.02,-112.752"/>
<polygon fill="green" stroke="green" stroke-width="0.194803" points="743.07,-115.61 749.985,-107.584 739.574,-109.546 743.07,-115.61"/>
</g>
<!-- wallRadar[0,1] -->
<g id="node2" class="node"><title>wallRadar[0,1]</title>
<polygon fill="lightgray" stroke="black" points="262,-208.149 192,-208.149 192,-190.149 262,-190.149 262,-208.149"/>
<text text-anchor="middle" x="227" y="-196.949" font-family="Times,serif" font-size="9.00">wallRadar[0,1]</text>
</g>
<!-- wallRadar[0,1]&#45;&gt;Move Forward/Backward -->
<g id="edge41" class="edge"><title>wallRadar[0,1]&#45;&gt;Move Forward/Backward</title>
<path fill="none" stroke="red" stroke-width="0.173553" d="M249.433,-190.084C295.58,-173.494 403.165,-134.817 478.945,-107.574"/>
<polygon fill="red" stroke="red" stroke-width="0.173553" points="480.261,-110.82 488.487,-104.143 477.892,-104.233 480.261,-110.82"/>
</g>
<!-- wallRadar[0,1]&#45;&gt; Move Left/Right -->
<g id="edge40" class="edge"><title>wallRadar[0,1]&#45;&gt; Move Left/Right</title>
<path fill="none" stroke="green" stroke-width="0.105303" d="M262.022,-191.506C265.053,-191.015 268.078,-190.554 271,-190.149 437.287,-167.114 485.838,-201.149 647,-154.149 679.567,-144.652 713.432,-127.985 740.632,-112.669"/>
<polygon fill="green" stroke="green" stroke-width="0.105303" points="742.651,-115.545 749.589,-107.538 739.172,-109.471 742.651,-115.545"/>
</g>
<!-- wallRadar[&#45;1,0] -->
<g id="node3" class="node"><title>wallRadar[&#45;1,0]</title>
<polygon fill="lightgray" stroke="black" points="1349.5,-208.149 1276.5,-208.149 1276.5,-190.149 1349.5,-190.149 1349.5,-208.149"/>
<text text-anchor="middle" x="1313" y="-196.949" font-family="Times,serif" font-size="9.00">wallRadar[&#45;1,0]</text>
</g>
<!-- Shoot -->
<g id="node24" class="node"><title>Shoot</title>
<ellipse fill="lightblue" stroke="black" cx="1222" cy="-77.0746" rx="26.7407" ry="26.7407"/>
<text text-anchor="middle" x="1222" y="-74.8746" font-family="Times,serif" font-size="9.00">Shoot</text>
</g>
<!-- wallRadar[&#45;1,0]&#45;&gt;Shoot -->
<g id="edge7" class="edge"><title>wallRadar[&#45;1,0]&#45;&gt;Shoot</title>
<path fill="none" stroke="red" stroke-width="0.284895" d="M1306.75,-189.896C1294.01,-173.09 1264.53,-134.191 1243.94,-107.023"/>
<polygon fill="red" stroke="red" stroke-width="0.284895" points="1246.69,-104.861 1237.86,-99.0051 1241.11,-109.089 1246.69,-104.861"/>
</g>
<!-- wallRadar[&#45;1,0]&#45;&gt;Move Forward/Backward -->
<g id="edge16" class="edge"><title>wallRadar[&#45;1,0]&#45;&gt;Move Forward/Backward</title>
<path fill="none" stroke="green" stroke-width="0.119477" d="M1276.21,-191.273C1273.44,-190.858 1270.68,-190.476 1268,-190.149 1031,-161.211 963.754,-211.558 732,-154.149 699.983,-146.218 666.47,-132.615 637.681,-119.085"/>
<polygon fill="green" stroke="green" stroke-width="0.119477" points="639.04,-115.855 628.508,-114.702 636.022,-122.171 639.04,-115.855"/>
</g>
<!-- Turn left/right -->
<g id="node27" class="node"><title>Turn left/right</title>
<ellipse fill="lightblue" stroke="black" cx="1866" cy="-77.0746" rx="46.8387" ry="46.8387"/>
<text text-anchor="middle" x="1866" y="-74.8746" font-family="Times,serif" font-size="9.00">Turn left/right</text>
</g>
<!-- wallRadar[&#45;1,0]&#45;&gt;Turn left/right -->
<g id="edge26" class="edge"><title>wallRadar[&#45;1,0]&#45;&gt;Turn left/right</title>
<path fill="none" stroke="green" stroke-width="0.458258" d="M1349.71,-190.178C1444.55,-169.586 1698.14,-114.523 1810.77,-90.0659"/>
<polygon fill="green" stroke="green" stroke-width="0.458258" points="1811.55,-93.4792 1820.58,-87.9369 1810.06,-86.6386 1811.55,-93.4792"/>
</g>
<!-- wallRadar[0,&#45;1] -->
<g id="node4" class="node"><title>wallRadar[0,&#45;1]</title>
<polygon fill="lightgray" stroke="black" points="1258.5,-208.149 1185.5,-208.149 1185.5,-190.149 1258.5,-190.149 1258.5,-208.149"/>
<text text-anchor="middle" x="1222" y="-196.949" font-family="Times,serif" font-size="9.00">wallRadar[0,&#45;1]</text>
</g>
<!-- wallRadar[0,&#45;1]&#45;&gt;Shoot -->
<g id="edge43" class="edge"><title>wallRadar[0,&#45;1]&#45;&gt;Shoot</title>
<path fill="none" stroke="green" stroke-width="0.104043" d="M1222,-189.896C1222,-174.554 1222,-140.799 1222,-114.366"/>
<polygon fill="green" stroke="green" stroke-width="0.104043" points="1225.5,-114.286 1222,-104.286 1218.5,-114.286 1225.5,-114.286"/>
</g>
<!-- wallRadar[0.7,0.7] -->
<g id="node5" class="node"><title>wallRadar[0.7,0.7]</title>
<polygon fill="lightgray" stroke="black" points="922.5,-208.149 839.5,-208.149 839.5,-190.149 922.5,-190.149 922.5,-208.149"/>
<text text-anchor="middle" x="881" y="-196.949" font-family="Times,serif" font-size="9.00">wallRadar[0.7,0.7]</text>
</g>
<!-- wallRadar[0.7,0.7]&#45;&gt;Shoot -->
<g id="edge12" class="edge"><title>wallRadar[0.7,0.7]&#45;&gt;Shoot</title>
<path fill="none" stroke="red" stroke-width="0.24191" d="M903.903,-190.084C962.401,-169.486 1117.59,-114.838 1187.28,-90.3022"/>
<polygon fill="red" stroke="red" stroke-width="0.24191" points="1188.64,-93.5309 1196.91,-86.9082 1186.32,-86.9283 1188.64,-93.5309"/>
</g>
<!-- wallRadar[0.7,0.7]&#45;&gt; Move Left/Right -->
<g id="edge32" class="edge"><title>wallRadar[0.7,0.7]&#45;&gt; Move Left/Right</title>
<path fill="none" stroke="red" stroke-width="0.247883" d="M875.158,-189.896C866.472,-177.627 849.452,-153.583 833.412,-130.924"/>
<polygon fill="red" stroke="red" stroke-width="0.247883" points="836.199,-128.803 827.564,-122.663 830.485,-132.848 836.199,-128.803"/>
</g>
<!-- wallRadar[&#45;0.7,0.7] -->
<g id="node6" class="node"><title>wallRadar[&#45;0.7,0.7]</title>
<polygon fill="lightgray" stroke="black" points="86,-208.149 0,-208.149 0,-190.149 86,-190.149 86,-208.149"/>
<text text-anchor="middle" x="43" y="-196.949" font-family="Times,serif" font-size="9.00">wallRadar[&#45;0.7,0.7]</text>
</g>
<!-- wallRadar[&#45;0.7,0.7]&#45;&gt;Move Forward/Backward -->
<g id="edge22" class="edge"><title>wallRadar[&#45;0.7,0.7]&#45;&gt;Move Forward/Backward</title>
<path fill="none" stroke="red" stroke-width="0.308739" d="M77.7918,-190.084C158.464,-171.384 360.199,-124.621 475.895,-97.8024"/>
<polygon fill="red" stroke="red" stroke-width="0.308739" points="476.835,-101.177 485.787,-95.5094 475.254,-94.3581 476.835,-101.177"/>
</g>
<!-- wallRadar[&#45;0.7,&#45;0.7] -->
<g id="node7" class="node"><title>wallRadar[&#45;0.7,&#45;0.7]</title>
<polygon fill="lightgray" stroke="black" points="369.5,-208.149 280.5,-208.149 280.5,-190.149 369.5,-190.149 369.5,-208.149"/>
<text text-anchor="middle" x="325" y="-196.949" font-family="Times,serif" font-size="9.00">wallRadar[&#45;0.7,&#45;0.7]</text>
</g>
<!-- wallRadar[&#45;0.7,&#45;0.7]&#45;&gt;Move Forward/Backward -->
<g id="edge39" class="edge"><title>wallRadar[&#45;0.7,&#45;0.7]&#45;&gt;Move Forward/Backward</title>
<path fill="none" stroke="red" stroke-width="0.43313" d="M340.851,-190.084C369.661,-175.426 432.359,-143.526 483.504,-117.504"/>
<polygon fill="red" stroke="red" stroke-width="0.43313" points="485.256,-120.54 492.581,-112.886 482.081,-114.301 485.256,-120.54"/>
</g>
<!-- wallRadar[&#45;0.7,&#45;0.7]&#45;&gt; Move Left/Right -->
<g id="edge28" class="edge"><title>wallRadar[&#45;0.7,&#45;0.7]&#45;&gt; Move Left/Right</title>
<path fill="none" stroke="red" stroke-width="0.220139" d="M369.525,-191.373C372.392,-190.954 375.236,-190.543 378,-190.149 497.417,-173.147 531.857,-190.089 647,-154.149 679.382,-144.042 713.231,-127.322 740.468,-112.127"/>
<polygon fill="red" stroke="red" stroke-width="0.220139" points="742.465,-115.019 749.44,-107.044 739.014,-108.928 742.465,-115.019"/>
</g>
<!-- wallRadar[0.7,&#45;0.7] -->
<g id="node8" class="node"><title>wallRadar[0.7,&#45;0.7]</title>
<polygon fill="lightgray" stroke="black" points="1027,-208.149 941,-208.149 941,-190.149 1027,-190.149 1027,-208.149"/>
<text text-anchor="middle" x="984" y="-196.949" font-family="Times,serif" font-size="9.00">wallRadar[0.7,&#45;0.7]</text>
</g>
<!-- wallRadar[0.7,&#45;0.7]&#45;&gt;Shoot -->
<g id="edge31" class="edge"><title>wallRadar[0.7,&#45;0.7]&#45;&gt;Shoot</title>
<path fill="none" stroke="red" stroke-width="0.204473" d="M999.985,-190.084C1038.55,-170.63 1137.3,-120.805 1189.13,-94.6591"/>
<polygon fill="red" stroke="red" stroke-width="0.204473" points="1190.88,-97.6946 1198.23,-90.0653 1187.73,-91.4449 1190.88,-97.6946"/>
</g>
<!-- wallRadar[0.7,&#45;0.7]&#45;&gt; Move Left/Right -->
<g id="edge14" class="edge"><title>wallRadar[0.7,&#45;0.7]&#45;&gt; Move Left/Right</title>
<path fill="none" stroke="red" stroke-width="0.208879" d="M971.373,-190.084C947.111,-174.588 892.679,-139.823 850.845,-113.104"/>
<polygon fill="red" stroke="red" stroke-width="0.208879" points="852.703,-110.138 842.392,-107.705 848.936,-116.037 852.703,-110.138"/>
</g>
<!-- enemyRadar[RightBack] -->
<g id="node9" class="node"><title>enemyRadar[RightBack]</title>
<polygon fill="lightgray" stroke="black" points="1472,-208.149 1368,-208.149 1368,-190.149 1472,-190.149 1472,-208.149"/>
<text text-anchor="middle" x="1420" y="-196.949" font-family="Times,serif" font-size="9.00">enemyRadar[RightBack]</text>
</g>
<!-- enemyRadar[RightBack]&#45;&gt;Shoot -->
<g id="edge44" class="edge"><title>enemyRadar[RightBack]&#45;&gt;Shoot</title>
<path fill="none" stroke="red" stroke-width="0.356488" d="M1406.7,-190.084C1375.55,-171.194 1297.18,-123.668 1253.19,-96.9907"/>
<polygon fill="red" stroke="red" stroke-width="0.356488" points="1254.98,-93.983 1244.62,-91.7902 1251.35,-99.9683 1254.98,-93.983"/>
</g>
<!-- enemyRadar[RightBack]&#45;&gt;Move Forward/Backward -->
<g id="edge6" class="edge"><title>enemyRadar[RightBack]&#45;&gt;Move Forward/Backward</title>
<path fill="none" stroke="green" stroke-width="0.183661" d="M1367.78,-191.046C1364.82,-190.722 1361.87,-190.42 1359,-190.149 1081.1,-163.984 1003.26,-219.948 732,-154.149 699.945,-146.374 666.424,-132.803 637.639,-119.255"/>
<polygon fill="green" stroke="green" stroke-width="0.183661" points="638.999,-116.026 628.468,-114.865 635.976,-122.339 638.999,-116.026"/>
</g>
<!-- enemyRadar[RightBack]&#45;&gt;Turn left/right -->
<g id="edge25" class="edge"><title>enemyRadar[RightBack]&#45;&gt;Turn left/right</title>
<path fill="none" stroke="red" stroke-width="0.134807" d="M1449.96,-190.084C1523.99,-170.151 1716.47,-118.332 1811.41,-92.7712"/>
<polygon fill="red" stroke="red" stroke-width="0.134807" points="1812.37,-96.1381 1821.12,-90.1587 1810.55,-89.3788 1812.37,-96.1381"/>
</g>
<!-- enemyRadar[LeftBack] -->
<g id="node10" class="node"><title>enemyRadar[LeftBack]</title>
<polygon fill="lightgray" stroke="black" points="1980.5,-208.149 1881.5,-208.149 1881.5,-190.149 1980.5,-190.149 1980.5,-208.149"/>
<text text-anchor="middle" x="1931" y="-196.949" font-family="Times,serif" font-size="9.00">enemyRadar[LeftBack]</text>
</g>
<!-- enemyRadar[LeftBack]&#45;&gt;Shoot -->
<g id="edge19" class="edge"><title>enemyRadar[LeftBack]&#45;&gt;Shoot</title>
<path fill="none" stroke="red" stroke-width="0.168102" d="M1883.66,-190.131C1750.85,-167.64 1376.79,-104.29 1258.4,-84.2401"/>
<polygon fill="red" stroke="red" stroke-width="0.168102" points="1258.84,-80.7644 1248.4,-82.5454 1257.67,-87.6661 1258.84,-80.7644"/>
</g>
<!-- enemyRadar[LeftBack]&#45;&gt;Turn left/right -->
<g id="edge27" class="edge"><title>enemyRadar[LeftBack]&#45;&gt;Turn left/right</title>
<path fill="none" stroke="green" stroke-width="0.144961" d="M1926.53,-189.896C1919.54,-176.976 1905.48,-150.998 1892.66,-127.331"/>
<polygon fill="green" stroke="green" stroke-width="0.144961" points="1895.67,-125.534 1887.83,-118.406 1889.52,-128.867 1895.67,-125.534"/>
</g>
<!-- enemyRadar[Right45ø] -->
<g id="node11" class="node"><title>enemyRadar[Right45ø]</title>
<polygon fill="lightgray" stroke="black" points="2281,-208.149 2181,-208.149 2181,-190.149 2281,-190.149 2281,-208.149"/>
<text text-anchor="middle" x="2231" y="-196.949" font-family="Times,serif" font-size="9.00">enemyRadar[Right45ø]</text>
</g>
<!-- enemyRadar[Right45ø]&#45;&gt;Turn left/right -->
<g id="edge24" class="edge"><title>enemyRadar[Right45ø]&#45;&gt;Turn left/right</title>
<path fill="none" stroke="red" stroke-width="0.241367" stroke-dasharray="1,5" d="M2206.48,-190.084C2148.24,-170.923 2000.42,-122.295 1920.04,-95.8534"/>
<polygon fill="red" stroke="red" stroke-width="0.241367" points="1920.71,-92.3868 1910.11,-92.5865 1918.52,-99.0362 1920.71,-92.3868"/>
</g>
<!-- enemyRadar[Left45ø] -->
<g id="node12" class="node"><title>enemyRadar[Left45ø]</title>
<polygon fill="lightgray" stroke="black" points="1585.5,-208.149 1490.5,-208.149 1490.5,-190.149 1585.5,-190.149 1585.5,-208.149"/>
<text text-anchor="middle" x="1538" y="-196.949" font-family="Times,serif" font-size="9.00">enemyRadar[Left45ø]</text>
</g>
<!-- enemyRadar[Left45ø]&#45;&gt;Move Forward/Backward -->
<g id="edge30" class="edge"><title>enemyRadar[Left45ø]&#45;&gt;Move Forward/Backward</title>
<path fill="none" stroke="red" stroke-width="0.118859" d="M1490.45,-191.145C1487.26,-190.776 1484.08,-190.439 1481,-190.149 1315.09,-174.553 894.122,-192.675 732,-154.149 699.909,-146.523 666.38,-132.983 637.6,-119.418"/>
<polygon fill="red" stroke="red" stroke-width="0.118859" points="638.961,-116.189 628.43,-115.021 635.934,-122.501 638.961,-116.189"/>
</g>
<!-- enemyRadar[Left45ø]&#45;&gt;Turn left/right -->
<g id="edge8" class="edge"><title>enemyRadar[Left45ø]&#45;&gt;Turn left/right</title>
<path fill="none" stroke="red" stroke-width="0.143874" d="M1560.03,-190.084C1611.3,-171.314 1739.81,-124.269 1812.94,-97.5006"/>
<polygon fill="red" stroke="red" stroke-width="0.143874" points="1814.25,-100.747 1822.44,-94.022 1811.84,-94.1731 1814.25,-100.747"/>
</g>
<!-- enemyRadar[RightFront20ø] -->
<g id="node13" class="node"><title>enemyRadar[RightFront20ø]</title>
<polygon fill="lightgray" stroke="black" points="1722.5,-208.149 1603.5,-208.149 1603.5,-190.149 1722.5,-190.149 1722.5,-208.149"/>
<text text-anchor="middle" x="1663" y="-196.949" font-family="Times,serif" font-size="9.00">enemyRadar[RightFront20ø]</text>
</g>
<!-- enemyRadar[RightFront20ø]&#45;&gt;Shoot -->
<g id="edge13" class="edge"><title>enemyRadar[RightFront20ø]&#45;&gt;Shoot</title>
<path fill="none" stroke="green" stroke-width="0.579665" d="M1633.38,-190.084C1554.97,-168.736 1342.24,-110.814 1257.52,-87.7452"/>
<polygon fill="green" stroke="green" stroke-width="0.579665" points="1258.41,-84.3596 1247.84,-85.1094 1256.57,-91.1137 1258.41,-84.3596"/>
</g>
<!-- enemyRadar[LeftFront20ø] -->
<g id="node14" class="node"><title>enemyRadar[LeftFront20ø]</title>
<polygon fill="lightgray" stroke="black" points="2413,-208.149 2299,-208.149 2299,-190.149 2413,-190.149 2413,-208.149"/>
<text text-anchor="middle" x="2356" y="-196.949" font-family="Times,serif" font-size="9.00">enemyRadar[LeftFront20ø]</text>
</g>
<!-- enemyRadar[LeftFront20ø]&#45;&gt;Turn left/right -->
<g id="edge20" class="edge"><title>enemyRadar[LeftFront20ø]&#45;&gt;Turn left/right</title>
<path fill="none" stroke="red" stroke-width="0.556998" d="M2323.09,-190.084C2240.44,-169.831 2023.46,-116.659 1921.03,-91.56"/>
<polygon fill="red" stroke="red" stroke-width="0.556998" points="1921.73,-88.1289 1911.19,-89.1482 1920.07,-94.9278 1921.73,-88.1289"/>
</g>
<!-- enemyRadar[RightFront15ø] -->
<g id="node15" class="node"><title>enemyRadar[RightFront15ø]</title>
<polygon fill="lightgray" stroke="black" points="2550.5,-208.149 2431.5,-208.149 2431.5,-190.149 2550.5,-190.149 2550.5,-208.149"/>
<text text-anchor="middle" x="2491" y="-196.949" font-family="Times,serif" font-size="9.00">enemyRadar[RightFront15ø]</text>
</g>
<!-- enemyRadar[RightFront15ø]&#45;&gt;Turn left/right -->
<g id="edge18" class="edge"><title>enemyRadar[RightFront15ø]&#45;&gt;Turn left/right</title>
<path fill="none" stroke="green" stroke-width="0.236977" d="M2449.02,-190.084C2339.61,-169.064 2045.63,-112.584 1921.99,-88.8323"/>
<polygon fill="green" stroke="green" stroke-width="0.236977" points="1922.46,-85.3578 1911.98,-86.9082 1921.14,-92.2321 1922.46,-85.3578"/>
</g>
<!-- enemyRadar[LeftFront15ø] -->
<g id="node16" class="node"><title>enemyRadar[LeftFront15ø]</title>
<polygon fill="lightgray" stroke="black" points="2113,-208.149 1999,-208.149 1999,-190.149 2113,-190.149 2113,-208.149"/>
<text text-anchor="middle" x="2056" y="-196.949" font-family="Times,serif" font-size="9.00">enemyRadar[LeftFront15ø]</text>
</g>
<!-- enemyRadar[LeftFront15ø]&#45;&gt;Shoot -->
<g id="edge42" class="edge"><title>enemyRadar[LeftFront15ø]&#45;&gt;Shoot</title>
<path fill="none" stroke="red" stroke-width="0.252916" d="M2000.31,-190.131C1841.67,-167.291 1390.36,-102.314 1258.56,-83.3386"/>
<polygon fill="red" stroke="red" stroke-width="0.252916" points="1258.97,-79.8607 1248.57,-81.8999 1257.97,-86.7893 1258.97,-79.8607"/>
</g>
<!-- enemyRadar[LeftFront15ø]&#45;&gt;Turn left/right -->
<g id="edge1" class="edge"><title>enemyRadar[LeftFront15ø]&#45;&gt;Turn left/right</title>
<path fill="none" stroke="red" stroke-width="0.324918" d="M2043.24,-190.084C2017.24,-173.654 1956.96,-135.559 1913.93,-108.363"/>
<polygon fill="red" stroke="red" stroke-width="0.324918" points="1915.62,-105.291 1905.29,-102.908 1911.88,-111.209 1915.62,-105.291"/>
</g>
<!-- enemyRadar[RightFront7.5ø] -->
<g id="node17" class="node"><title>enemyRadar[RightFront7.5ø]</title>
<polygon fill="lightgray" stroke="black" points="1863,-208.149 1741,-208.149 1741,-190.149 1863,-190.149 1863,-208.149"/>
<text text-anchor="middle" x="1802" y="-196.949" font-family="Times,serif" font-size="9.00">enemyRadar[RightFront7.5ø]</text>
</g>
<!-- enemyRadar[RightFront7.5ø]&#45;&gt; Move Left/Right -->
<g id="edge9" class="edge"><title>enemyRadar[RightFront7.5ø]&#45;&gt; Move Left/Right</title>
<path fill="none" stroke="green" stroke-width="0.540218" d="M1740.93,-190.996C1737.91,-190.697 1734.92,-190.413 1732,-190.149 1489.79,-168.336 1427.17,-185.493 1186,-154.149 1069.96,-139.067 936.459,-110.57 859.592,-93.0584"/>
<polygon fill="green" stroke="green" stroke-width="0.540218" points="860.116,-89.5881 849.587,-90.7684 858.554,-96.4116 860.116,-89.5881"/>
</g>
<!-- enemyRadar[RightFront7.5ø]&#45;&gt;Turn left/right -->
<g id="edge15" class="edge"><title>enemyRadar[RightFront7.5ø]&#45;&gt;Turn left/right</title>
<path fill="none" stroke="green" stroke-width="0.249318" d="M1806.4,-189.896C1813.26,-177.023 1827.03,-151.187 1839.61,-127.59"/>
<polygon fill="green" stroke="green" stroke-width="0.249318" points="1842.74,-129.158 1844.35,-118.687 1836.56,-125.866 1842.74,-129.158"/>
</g>
<!-- enemyRadar[LeftFront7.5ø] -->
<g id="node18" class="node"><title>enemyRadar[LeftFront7.5ø]</title>
<polygon fill="lightgray" stroke="black" points="619,-208.149 503,-208.149 503,-190.149 619,-190.149 619,-208.149"/>
<text text-anchor="middle" x="561" y="-196.949" font-family="Times,serif" font-size="9.00">enemyRadar[LeftFront7.5ø]</text>
</g>
<!-- enemyRadar[LeftFront7.5ø]&#45;&gt;Shoot -->
<g id="edge2" class="edge"><title>enemyRadar[LeftFront7.5ø]&#45;&gt;Shoot</title>
<path fill="none" stroke="red" stroke-width="0.200696" d="M619.048,-190.675C679.416,-182.653 776.581,-169.038 860,-154.149 980.021,-132.728 1121.11,-101.241 1186.02,-86.3984"/>
<polygon fill="red" stroke="red" stroke-width="0.200696" points="1186.8,-89.8097 1195.76,-84.1632 1185.23,-82.9868 1186.8,-89.8097"/>
</g>
<!-- enemyRadar[LeftFront7.5ø]&#45;&gt;Move Forward/Backward -->
<g id="edge5" class="edge"><title>enemyRadar[LeftFront7.5ø]&#45;&gt;Move Forward/Backward</title>
<path fill="none" stroke="green" stroke-width="0.190226" d="M561,-189.896C561,-183.793 561,-174.776 561,-164.466"/>
<polygon fill="green" stroke="green" stroke-width="0.190226" points="564.5,-164.237 561,-154.237 557.5,-164.237 564.5,-164.237"/>
</g>
<!-- enemyRadar[LeftFront7.5ø]&#45;&gt; Move Left/Right -->
<g id="edge35" class="edge"><title>enemyRadar[LeftFront7.5ø]&#45;&gt; Move Left/Right</title>
<path fill="none" stroke="red" stroke-width="0.301908" d="M576.784,-190.084C609.179,-173.532 684.605,-134.993 737.903,-107.76"/>
<polygon fill="red" stroke="red" stroke-width="0.301908" points="739.606,-110.82 746.918,-103.153 736.421,-104.586 739.606,-110.82"/>
</g>
<!-- enemyRadar[RightFront2.5ø] -->
<g id="node19" class="node"><title>enemyRadar[RightFront2.5ø]</title>
<polygon fill="lightgray" stroke="black" points="1167,-208.149 1045,-208.149 1045,-190.149 1167,-190.149 1167,-208.149"/>
<text text-anchor="middle" x="1106" y="-196.949" font-family="Times,serif" font-size="9.00">enemyRadar[RightFront2.5ø]</text>
</g>
<!-- enemyRadar[RightFront2.5ø]&#45;&gt;Shoot -->
<g id="edge17" class="edge"><title>enemyRadar[RightFront2.5ø]&#45;&gt;Shoot</title>
<path fill="none" stroke="green" stroke-width="0.323252" d="M1113.97,-189.896C1130.72,-172.558 1170.19,-131.705 1196.49,-104.477"/>
<polygon fill="green" stroke="green" stroke-width="0.323252" points="1199.1,-106.814 1203.53,-97.19 1194.07,-101.95 1199.1,-106.814"/>
</g>
<!-- enemyRadar[RightFront2.5ø]&#45;&gt; Move Left/Right -->
<g id="edge34" class="edge"><title>enemyRadar[RightFront2.5ø]&#45;&gt; Move Left/Right</title>
<path fill="none" stroke="green" stroke-width="0.648315" d="M1085.18,-190.084C1039.15,-172.256 927.271,-128.921 856.94,-101.679"/>
<polygon fill="green" stroke="green" stroke-width="0.648315" points="857.892,-98.2944 847.303,-97.9462 855.364,-104.822 857.892,-98.2944"/>
</g>
<!-- enemyRadar[LeftFront2.5ø] -->
<g id="node20" class="node"><title>enemyRadar[LeftFront2.5ø]</title>
<polygon fill="lightgray" stroke="black" points="753,-208.149 637,-208.149 637,-190.149 753,-190.149 753,-208.149"/>
<text text-anchor="middle" x="695" y="-196.949" font-family="Times,serif" font-size="9.00">enemyRadar[LeftFront2.5ø]</text>
</g>
<!-- enemyRadar[LeftFront2.5ø]&#45;&gt;Move Forward/Backward -->
<g id="edge29" class="edge"><title>enemyRadar[LeftFront2.5ø]&#45;&gt;Move Forward/Backward</title>
<path fill="none" stroke="red" stroke-width="0.26439" d="M685.79,-189.896C673.144,-178.565 649.292,-157.191 625.8,-136.14"/>
<polygon fill="red" stroke="red" stroke-width="0.26439" points="627.983,-133.397 618.2,-129.33 623.312,-138.611 627.983,-133.397"/>
</g>
<!-- enemyRadar[LeftFront2.5ø]&#45;&gt;Turn left/right -->
<g id="edge36" class="edge"><title>enemyRadar[LeftFront2.5ø]&#45;&gt;Turn left/right</title>
<path fill="none" stroke="green" stroke-width="0.176641" d="M753.087,-191.046C756.1,-190.73 759.085,-190.429 762,-190.149 982.014,-169.041 1038.05,-175.877 1258,-154.149 1461.83,-134.014 1702.98,-101.134 1810.01,-86.0696"/>
<polygon fill="green" stroke="green" stroke-width="0.176641" points="1810.53,-89.5309 1819.95,-84.6684 1809.56,-82.5995 1810.53,-89.5309"/>
</g>
<!-- enemyRadar[Front7Ø] -->
<g id="node21" class="node"><title>enemyRadar[Front7Ø]</title>
<polygon fill="lightgray" stroke="black" points="485,-208.149 387,-208.149 387,-190.149 485,-190.149 485,-208.149"/>
<text text-anchor="middle" x="436" y="-196.949" font-family="Times,serif" font-size="9.00">enemyRadar[Front7Ø]</text>
</g>
<!-- enemyRadar[Front7Ø]&#45;&gt;Shoot -->
<g id="edge11" class="edge"><title>enemyRadar[Front7Ø]&#45;&gt;Shoot</title>
<path fill="none" stroke="red" stroke-width="0.322229" d="M485.03,-191.25C488.064,-190.865 491.073,-190.495 494,-190.149 656.324,-170.979 698.448,-178.994 860,-154.149 980.501,-135.618 1121.36,-102.735 1186.11,-86.9774"/>
<polygon fill="red" stroke="red" stroke-width="0.322229" points="1186.95,-90.3749 1195.84,-84.6003 1185.29,-83.5751 1186.95,-90.3749"/>
</g>
<!-- enemyRadar[Front7Ø]&#45;&gt;Move Forward/Backward -->
<g id="edge45" class="edge"><title>enemyRadar[Front7Ø]&#45;&gt;Move Forward/Backward</title>
<path fill="none" stroke="green" stroke-width="0.293404" d="M444.592,-189.896C455.989,-178.947 477.148,-158.622 498.332,-138.273"/>
<polygon fill="green" stroke="green" stroke-width="0.293404" points="501.024,-140.541 505.811,-131.089 496.174,-135.493 501.024,-140.541"/>
</g>
<!-- OnTarget -->
<g id="node22" class="node"><title>OnTarget</title>
<polygon fill="lightgray" stroke="black" points="821,-208.149 771,-208.149 771,-190.149 821,-190.149 821,-208.149"/>
<text text-anchor="middle" x="796" y="-196.949" font-family="Times,serif" font-size="9.00">OnTarget</text>
</g>
<!-- OnTarget&#45;&gt;Shoot -->
<g id="edge23" class="edge"><title>OnTarget&#45;&gt;Shoot</title>
<path fill="none" stroke="red" stroke-width="0.158108" d="M821.058,-191.086C893.308,-170.721 1102.23,-111.834 1186.31,-88.1331"/>
<polygon fill="red" stroke="red" stroke-width="0.158108" points="1187.49,-91.4381 1196.17,-85.3564 1185.59,-84.7006 1187.49,-91.4381"/>
</g>
<!-- OnTarget&#45;&gt;Move Forward/Backward -->
<g id="edge33" class="edge"><title>OnTarget&#45;&gt;Move Forward/Backward</title>
<path fill="none" stroke="green" stroke-width="0.445757" stroke-dasharray="1,5" d="M780.216,-190.084C751.577,-175.451 689.307,-143.634 638.427,-117.636"/>
<polygon fill="green" stroke="green" stroke-width="0.445757" points="639.892,-114.455 629.395,-113.021 636.707,-120.688 639.892,-114.455"/>
</g>
<!-- OnTarget&#45;&gt; Move Left/Right -->
<g id="edge37" class="edge"><title>OnTarget&#45;&gt; Move Left/Right</title>
<path fill="none" stroke="green" stroke-width="0.564882" d="M796,-189.896C796,-179.701 796,-161.375 796,-142.47"/>
<polygon fill="green" stroke="green" stroke-width="0.564882" points="799.5,-142.265 796,-132.265 792.5,-142.265 799.5,-142.265"/>
</g>
<!-- OnTarget&#45;&gt;Turn left/right -->
<g id="edge3" class="edge"><title>OnTarget&#45;&gt;Turn left/right</title>
<path fill="none" stroke="green" stroke-width="0.313062" d="M821.153,-191.955C824.452,-191.274 827.797,-190.648 831,-190.149 1019.19,-160.858 1068.58,-173.976 1258,-154.149 1461.45,-132.853 1702.31,-100.626 1809.59,-85.9062"/>
<polygon fill="green" stroke="green" stroke-width="0.313062" points="1810.11,-89.3666 1819.54,-84.5373 1809.16,-82.4318 1810.11,-89.3666"/>
</g>
<!-- bias -->
<g id="node23" class="node"><title>bias</title>
<polygon fill="lightgray" stroke="black" points="2162.5,-208.149 2131.5,-208.149 2131.5,-190.149 2162.5,-190.149 2162.5,-208.149"/>
<text text-anchor="middle" x="2147" y="-196.949" font-family="Times,serif" font-size="9.00">bias</text>
</g>
<!-- bias&#45;&gt;Shoot -->
<g id="edge38" class="edge"><title>bias&#45;&gt;Shoot</title>
<path fill="none" stroke="green" stroke-width="0.101864" d="M2131.26,-192.599C2128.21,-191.673 2125.03,-190.802 2122,-190.149 1985.55,-160.739 1948.55,-171.105 1810,-154.149 1601.19,-128.596 1351.02,-95.3575 1258.62,-82.9907"/>
<polygon fill="green" stroke="green" stroke-width="0.101864" points="1259.03,-79.514 1248.65,-81.6555 1258.1,-86.4521 1259.03,-79.514"/>
</g>
<!-- bias&#45;&gt;Turn left/right -->
<g id="edge4" class="edge"><title>bias&#45;&gt;Turn left/right</title>
<path fill="none" stroke="red" stroke-width="0.221301" d="M2131.49,-191.523C2091.47,-174.419 1983.26,-128.181 1918.01,-100.297"/>
<polygon fill="red" stroke="red" stroke-width="0.221301" points="1919.27,-97.0331 1908.7,-96.3221 1916.52,-103.47 1919.27,-97.0331"/>
</g>
</g>
</svg>
