<?xml version="1.0" encoding="UTF-8" standalone="no"?>
<!DOCTYPE svg PUBLIC "-//W3C//DTD SVG 1.1//EN"
 "http://www.w3.org/Graphics/SVG/1.1/DTD/svg11.dtd">
<!-- Generated by graphviz version 2.38.0 (20140413.2041)
 -->
<!-- Title: %3 Pages: 1 -->
<svg width="2293pt" height="463pt"
 viewBox="0.00 0.00 2293.41 462.74" xmlns="http://www.w3.org/2000/svg" xmlns:xlink="http://www.w3.org/1999/xlink">
<g id="graph0" class="graph" transform="scale(1 1) rotate(0) translate(4 458.742)">
<title>%3</title>
<polygon fill="white" stroke="none" points="-4,4 -4,-458.742 2289.41,-458.742 2289.41,4 -4,4"/>
<!-- wallRadar[1,0] -->
<g id="node1" class="node"><title>wallRadar[1,0]</title>
<polygon fill="lightgray" stroke="black" points="2285.41,-388.529 2215.41,-388.529 2215.41,-370.529 2285.41,-370.529 2285.41,-388.529"/>
<text text-anchor="middle" x="2250.41" y="-377.329" font-family="Times,serif" font-size="9.00">wallRadar[1,0]</text>
</g>
<!-- Shoot -->
<g id="node24" class="node"><title>Shoot</title>
<ellipse fill="lightblue" stroke="black" cx="1326.41" cy="-26.8701" rx="26.7407" ry="26.7407"/>
<text text-anchor="middle" x="1326.41" y="-24.6701" font-family="Times,serif" font-size="9.00">Shoot</text>
</g>
<!-- wallRadar[1,0]&#45;&gt;Shoot -->
<g id="edge9" class="edge"><title>wallRadar[1,0]&#45;&gt;Shoot</title>
<path fill="none" stroke="green" stroke-width="0.154504" d="M2233.76,-370.464C2158.04,-334.014 1838,-182.42 1563.41,-89.7401 1493.54,-66.1611 1409.6,-46.1405 1362.69,-35.6745"/>
<polygon fill="green" stroke="green" stroke-width="0.154504" points="1363.23,-32.2084 1352.71,-33.4664 1361.72,-39.0432 1363.23,-32.2084"/>
</g>
<!--  Move Left/Right -->
<g id="node26" class="node"><title> Move Left/Right</title>
<ellipse fill="lightblue" stroke="black" cx="1498.41" cy="-245.241" rx="55.3091" ry="55.3091"/>
<text text-anchor="middle" x="1498.41" y="-243.041" font-family="Times,serif" font-size="9.00"> Move Left/Right</text>
</g>
<!-- wallRadar[1,0]&#45;&gt; Move Left/Right -->
<g id="edge25" class="edge"><title>wallRadar[1,0]&#45;&gt; Move Left/Right</title>
<path fill="none" stroke="green" stroke-width="0.609141" stroke-dasharray="1,5" d="M2236.23,-370.415C2227.83,-366.027 2216.83,-360.973 2206.41,-358.316 1979.77,-300.555 1909.06,-375.913 1681.41,-322.316 1637.9,-312.074 1591.43,-292.64 1556.21,-275.979"/>
<polygon fill="green" stroke="green" stroke-width="0.609141" points="1557.57,-272.753 1547.04,-271.587 1554.55,-279.065 1557.57,-272.753"/>
</g>
<!-- wallRadar[0,1] -->
<g id="node2" class="node"><title>wallRadar[0,1]</title>
<polygon fill="lightgray" stroke="black" points="909.405,-388.529 839.405,-388.529 839.405,-370.529 909.405,-370.529 909.405,-388.529"/>
<text text-anchor="middle" x="874.405" y="-377.329" font-family="Times,serif" font-size="9.00">wallRadar[0,1]</text>
</g>
<!-- wallRadar[0,1]&#45;&gt;Shoot -->
<g id="edge47" class="edge"><title>wallRadar[0,1]&#45;&gt;Shoot</title>
<path fill="none" stroke="green" stroke-width="0.4379" d="M884.335,-370.373C918.912,-342.018 1037.37,-245.26 1137.41,-168.167 1192.99,-125.328 1259.05,-76.8287 1296.52,-49.5417"/>
<polygon fill="green" stroke="green" stroke-width="0.4379" points="1298.93,-52.115 1304.96,-43.4018 1294.81,-46.4545 1298.93,-52.115"/>
</g>
<!-- Move Forward/Backward -->
<g id="node25" class="node"><title>Move Forward/Backward</title>
<ellipse fill="lightblue" stroke="black" cx="446.405" cy="-245.241" rx="77.1494" ry="77.1494"/>
<text text-anchor="middle" x="446.405" y="-243.041" font-family="Times,serif" font-size="9.00">Move Forward/Backward</text>
</g>
<!-- wallRadar[0,1]&#45;&gt;Move Forward/Backward -->
<g id="edge31" class="edge"><title>wallRadar[0,1]&#45;&gt;Move Forward/Backward</title>
<path fill="none" stroke="green" stroke-width="0.621877" stroke-dasharray="1,5" d="M857.962,-370.488C849.538,-366.537 839.047,-361.873 829.405,-358.316 728.581,-321.12 609.325,-287.853 530.99,-267.409"/>
<polygon fill="green" stroke="green" stroke-width="0.621877" points="531.727,-263.984 521.168,-264.857 529.967,-270.759 531.727,-263.984"/>
</g>
<!-- wallRadar[0,1]&#45;&gt; Move Left/Right -->
<g id="edge20" class="edge"><title>wallRadar[0,1]&#45;&gt; Move Left/Right</title>
<path fill="none" stroke="green" stroke-width="0.339173" d="M889.022,-370.367C897.377,-366.076 908.195,-361.136 918.405,-358.316 1061.04,-318.919 1104.45,-352.066 1249.41,-322.316 1314.58,-308.94 1387.12,-285.797 1437.01,-268.54"/>
<polygon fill="green" stroke="green" stroke-width="0.339173" points="1438.39,-271.767 1446.68,-265.172 1436.09,-265.157 1438.39,-271.767"/>
</g>
<!-- Turn left/right -->
<g id="node27" class="node"><title>Turn left/right</title>
<ellipse fill="lightblue" stroke="black" cx="1193.41" cy="-245.241" rx="46.8387" ry="46.8387"/>
<text text-anchor="middle" x="1193.41" y="-243.041" font-family="Times,serif" font-size="9.00">Turn left/right</text>
</g>
<!-- wallRadar[0,1]&#45;&gt;Turn left/right -->
<g id="edge29" class="edge"><title>wallRadar[0,1]&#45;&gt;Turn left/right</title>
<path fill="none" stroke="red" stroke-width="0.339716" d="M891.437,-370.427C899.555,-366.637 909.43,-362.129 918.405,-358.316 958.816,-341.144 969.686,-338.744 1010.41,-322.316 1054.63,-304.472 1104.62,-283.648 1141.16,-268.303"/>
<polygon fill="red" stroke="red" stroke-width="0.339716" points="1142.76,-271.428 1150.62,-264.326 1140.04,-264.975 1142.76,-271.428"/>
</g>
<!-- wallRadar[&#45;1,0] -->
<g id="node3" class="node"><title>wallRadar[&#45;1,0]</title>
<polygon fill="lightgray" stroke="black" points="820.905,-388.529 747.905,-388.529 747.905,-370.529 820.905,-370.529 820.905,-388.529"/>
<text text-anchor="middle" x="784.405" y="-377.329" font-family="Times,serif" font-size="9.00">wallRadar[&#45;1,0]</text>
</g>
<!-- wallRadar[&#45;1,0]&#45;&gt;Shoot -->
<g id="edge36" class="edge"><title>wallRadar[&#45;1,0]&#45;&gt;Shoot</title>
<path fill="none" stroke="red" stroke-width="0.333911" d="M788.278,-370.349C803.361,-339.333 861.328,-227.731 941.405,-168.167 1052.39,-85.6109 1216.88,-47.5276 1289.57,-33.9853"/>
<polygon fill="red" stroke="red" stroke-width="0.333911" points="1290.4,-37.3924 1299.62,-32.163 1289.15,-30.5049 1290.4,-37.3924"/>
</g>
<!-- wallRadar[&#45;1,0]&#45;&gt;Move Forward/Backward -->
<g id="edge18" class="edge"><title>wallRadar[&#45;1,0]&#45;&gt;Move Forward/Backward</title>
<path fill="none" stroke="red" stroke-width="0.355349" d="M766.576,-370.459C758.085,-366.676 747.763,-362.165 738.405,-358.316 667.883,-329.307 586.864,-298.399 528.085,-276.405"/>
<polygon fill="red" stroke="red" stroke-width="0.355349" points="529.074,-273.038 518.481,-272.816 526.624,-279.595 529.074,-273.038"/>
</g>
<!-- wallRadar[&#45;1,0]&#45;&gt; Move Left/Right -->
<g id="edge1" class="edge"><title>wallRadar[&#45;1,0]&#45;&gt; Move Left/Right</title>
<path fill="none" stroke="green" stroke-width="0.335747" d="M799.291,-370.493C808.086,-366.13 819.586,-361.077 830.405,-358.316 1011.51,-312.099 1065.9,-357.819 1249.41,-322.316 1314.73,-309.678 1387.25,-286.425 1437.09,-268.94"/>
<polygon fill="green" stroke="green" stroke-width="0.335747" points="1438.49,-272.159 1446.75,-265.525 1436.16,-265.559 1438.49,-272.159"/>
</g>
<!-- wallRadar[0,&#45;1] -->
<g id="node4" class="node"><title>wallRadar[0,&#45;1]</title>
<polygon fill="lightgray" stroke="black" points="89.9051,-388.529 16.9051,-388.529 16.9051,-370.529 89.9051,-370.529 89.9051,-388.529"/>
<text text-anchor="middle" x="53.4051" y="-377.329" font-family="Times,serif" font-size="9.00">wallRadar[0,&#45;1]</text>
</g>
<!-- wallRadar[0,&#45;1]&#45;&gt;Shoot -->
<g id="edge40" class="edge"><title>wallRadar[0,&#45;1]&#45;&gt;Shoot</title>
<path fill="none" stroke="green" stroke-width="0.602194" d="M59.8095,-370.477C92.6784,-329.91 247.706,-147.578 423.405,-89.7401 588.132,-35.5142 1140.1,-28.802 1289.08,-27.9817"/>
<polygon fill="green" stroke="green" stroke-width="0.602194" points="1289.51,-31.4798 1299.5,-27.9306 1289.48,-24.4798 1289.51,-31.4798"/>
</g>
<!-- wallRadar[0,&#45;1]&#45;&gt;Move Forward/Backward -->
<g id="edge52" class="edge"><title>wallRadar[0,&#45;1]&#45;&gt;Move Forward/Backward</title>
<path fill="none" stroke="green" stroke-width="0.282705" d="M70.707,-370.428C79.2583,-366.553 89.7833,-361.973 99.4051,-358.316 188.14,-324.59 291.974,-291.922 362.776,-270.643"/>
<polygon fill="green" stroke="green" stroke-width="0.282705" points="363.968,-273.94 372.543,-267.718 361.959,-267.235 363.968,-273.94"/>
</g>
<!-- wallRadar[0,&#45;1]&#45;&gt;Turn left/right -->
<g id="edge41" class="edge"><title>wallRadar[0,&#45;1]&#45;&gt;Turn left/right</title>
<path fill="none" stroke="red" stroke-width="0.147513" stroke-dasharray="1,5" d="M68.2881,-370.482C77.0824,-366.115 88.5824,-361.062 99.4051,-358.316 286.582,-310.824 340.238,-341.358 532.405,-322.316 756.463,-300.114 1022.52,-267.619 1136.73,-253.376"/>
<polygon fill="red" stroke="red" stroke-width="0.147513" points="1137.49,-256.809 1146.98,-252.096 1136.62,-249.863 1137.49,-256.809"/>
</g>
<!-- wallRadar[0.7,0.7] -->
<g id="node5" class="node"><title>wallRadar[0.7,0.7]</title>
<polygon fill="lightgray" stroke="black" points="1930.91,-388.529 1847.91,-388.529 1847.91,-370.529 1930.91,-370.529 1930.91,-388.529"/>
<text text-anchor="middle" x="1889.41" y="-377.329" font-family="Times,serif" font-size="9.00">wallRadar[0.7,0.7]</text>
</g>
<!-- wallRadar[0.7,0.7]&#45;&gt;Shoot -->
<g id="edge13" class="edge"><title>wallRadar[0.7,0.7]&#45;&gt;Shoot</title>
<path fill="none" stroke="red" stroke-width="0.849368" d="M1863.28,-370.45C1850.17,-366.536 1834.02,-361.915 1819.41,-358.316 1741.88,-339.226 1707.24,-370.277 1643.41,-322.316 1581.53,-275.826 1615.67,-224.31 1562.41,-168.167 1503.35,-105.926 1410.67,-61.8507 1360.84,-41.1666"/>
<polygon fill="red" stroke="red" stroke-width="0.849368" points="1362.05,-37.8803 1351.47,-37.3432 1359.41,-44.3616 1362.05,-37.8803"/>
</g>
<!-- wallRadar[0.7,0.7]&#45;&gt; Move Left/Right -->
<g id="edge22" class="edge"><title>wallRadar[0.7,0.7]&#45;&gt; Move Left/Right</title>
<path fill="none" stroke="green" stroke-width="0.209675" d="M1870.28,-370.484C1859.6,-366.284 1845.95,-361.393 1833.41,-358.316 1717.54,-329.905 1672.98,-377.863 1567.41,-322.316 1556.07,-316.354 1545.67,-307.752 1536.57,-298.46"/>
<polygon fill="green" stroke="green" stroke-width="0.209675" points="1538.92,-295.848 1529.55,-290.896 1533.79,-300.608 1538.92,-295.848"/>
</g>
<!-- wallRadar[0.7,0.7]&#45;&gt;Turn left/right -->
<g id="edge5" class="edge"><title>wallRadar[0.7,0.7]&#45;&gt;Turn left/right</title>
<path fill="none" stroke="green" stroke-width="0.110506" d="M1858.29,-370.456C1841.29,-366.3 1819.8,-361.459 1800.41,-358.316 1639.06,-332.164 1594.54,-355.094 1434.41,-322.316 1368.25,-308.775 1294.54,-284.022 1246.27,-266.43"/>
<polygon fill="green" stroke="green" stroke-width="0.110506" points="1247.25,-263.065 1236.66,-262.903 1244.84,-269.636 1247.25,-263.065"/>
</g>
<!-- wallRadar[&#45;0.7,0.7] -->
<g id="node6" class="node"><title>wallRadar[&#45;0.7,0.7]</title>
<polygon fill="lightgray" stroke="black" points="489.405,-388.529 403.405,-388.529 403.405,-370.529 489.405,-370.529 489.405,-388.529"/>
<text text-anchor="middle" x="446.405" y="-377.329" font-family="Times,serif" font-size="9.00">wallRadar[&#45;0.7,0.7]</text>
</g>
<!-- wallRadar[&#45;0.7,0.7]&#45;&gt;Move Forward/Backward -->
<g id="edge24" class="edge"><title>wallRadar[&#45;0.7,0.7]&#45;&gt;Move Forward/Backward</title>
<path fill="none" stroke="red" stroke-width="0.329266" d="M446.405,-370.254C446.405,-361.948 446.405,-348.207 446.405,-332.83"/>
<polygon fill="red" stroke="red" stroke-width="0.329266" points="449.905,-332.53 446.405,-322.53 442.905,-332.53 449.905,-332.53"/>
</g>
<!-- wallRadar[&#45;0.7,0.7]&#45;&gt;Turn left/right -->
<g id="edge48" class="edge"><title>wallRadar[&#45;0.7,0.7]&#45;&gt;Turn left/right</title>
<path fill="none" stroke="red" stroke-width="0.357107" stroke-dasharray="1,5" d="M464.379,-370.461C474.252,-366.306 486.815,-361.465 498.405,-358.316 730.761,-295.181 1017.09,-262.845 1136.71,-251.295"/>
<polygon fill="red" stroke="red" stroke-width="0.357107" points="1137.12,-254.772 1146.74,-250.337 1136.45,-247.803 1137.12,-254.772"/>
</g>
<!-- wallRadar[&#45;0.7,&#45;0.7] -->
<g id="node7" class="node"><title>wallRadar[&#45;0.7,&#45;0.7]</title>
<polygon fill="lightgray" stroke="black" points="277.905,-454.742 188.905,-454.742 188.905,-436.742 277.905,-436.742 277.905,-454.742"/>
<text text-anchor="middle" x="233.405" y="-443.542" font-family="Times,serif" font-size="9.00">wallRadar[&#45;0.7,&#45;0.7]</text>
</g>
<!-- wallRadar[&#45;0.7,&#45;0.7]&#45;&gt;Move Forward/Backward -->
<g id="edge6" class="edge"><title>wallRadar[&#45;0.7,&#45;0.7]&#45;&gt;Move Forward/Backward</title>
<path fill="none" stroke="red" stroke-width="0.261231" stroke-dasharray="1,5" d="M233.117,-436.73C232.933,-420.369 234.625,-382.617 252.405,-358.316 280.048,-320.536 324.577,-293.508 364.005,-275.473"/>
<polygon fill="red" stroke="red" stroke-width="0.261231" points="365.661,-278.567 373.378,-271.307 362.818,-272.17 365.661,-278.567"/>
</g>
<!-- wallRadar[&#45;0.7,&#45;0.7]&#45;&gt;Turn left/right -->
<g id="edge30" class="edge"><title>wallRadar[&#45;0.7,&#45;0.7]&#45;&gt;Turn left/right</title>
<path fill="none" stroke="green" stroke-width="0.260974" d="M278.111,-444.333C438.974,-442.589 982.507,-434.251 1052.41,-400.742 1075.23,-389.799 1073.4,-377.063 1090.41,-358.316 1111.75,-334.784 1135.77,-308.634 1155.24,-287.517"/>
<polygon fill="green" stroke="green" stroke-width="0.260974" points="1157.98,-289.702 1162.19,-279.978 1152.84,-284.956 1157.98,-289.702"/>
</g>
<!-- 411 -->
<g id="node30" class="node"><title>411</title>
<ellipse fill="white" stroke="black" cx="184.405" cy="-379.529" rx="21.4286" ry="21.4286"/>
<text text-anchor="middle" x="184.405" y="-377.329" font-family="Times,serif" font-size="9.00">411</text>
</g>
<!-- wallRadar[&#45;0.7,&#45;0.7]&#45;&gt;411 -->
<g id="edge57" class="edge"><title>wallRadar[&#45;0.7,&#45;0.7]&#45;&gt;411</title>
<path fill="none" stroke="green" stroke-width="0.182096" d="M227.199,-436.61C221.166,-428.703 211.694,-416.29 203.193,-405.15"/>
<polygon fill="green" stroke="green" stroke-width="0.182096" points="205.804,-402.802 196.955,-396.976 200.239,-407.049 205.804,-402.802"/>
</g>
<!-- wallRadar[0.7,&#45;0.7] -->
<g id="node8" class="node"><title>wallRadar[0.7,&#45;0.7]</title>
<polygon fill="lightgray" stroke="black" points="347.405,-388.529 261.405,-388.529 261.405,-370.529 347.405,-370.529 347.405,-388.529"/>
<text text-anchor="middle" x="304.405" y="-377.329" font-family="Times,serif" font-size="9.00">wallRadar[0.7,&#45;0.7]</text>
</g>
<!-- wallRadar[0.7,&#45;0.7]&#45;&gt;Shoot -->
<g id="edge49" class="edge"><title>wallRadar[0.7,&#45;0.7]&#45;&gt;Shoot</title>
<path fill="none" stroke="green" stroke-width="0.384759" d="M303.746,-370.515C301.652,-339.152 298.553,-223.731 360.405,-168.167 500.895,-41.9586 1128.97,-29.1672 1289.13,-27.9699"/>
<polygon fill="green" stroke="green" stroke-width="0.384759" points="1289.44,-31.4681 1299.42,-27.9045 1289.4,-24.4682 1289.44,-31.4681"/>
</g>
<!-- wallRadar[0.7,&#45;0.7]&#45;&gt;Move Forward/Backward -->
<g id="edge19" class="edge"><title>wallRadar[0.7,&#45;0.7]&#45;&gt;Move Forward/Backward</title>
<path fill="none" stroke="red" stroke-width="0.250565" d="M313.288,-370.254C327.329,-357.173 355.844,-330.609 382.892,-305.41"/>
<polygon fill="red" stroke="red" stroke-width="0.250565" points="385.538,-307.729 390.469,-298.351 380.767,-302.607 385.538,-307.729"/>
</g>
<!-- wallRadar[0.7,&#45;0.7]&#45;&gt;Turn left/right -->
<g id="edge35" class="edge"><title>wallRadar[0.7,&#45;0.7]&#45;&gt;Turn left/right</title>
<path fill="none" stroke="red" stroke-width="0.124966" d="M337.188,-370.491C354.193,-366.493 375.341,-361.788 394.405,-358.316 671.137,-307.918 1005.36,-267.625 1136.6,-252.595"/>
<polygon fill="red" stroke="red" stroke-width="0.124966" points="1137.27,-256.041 1146.81,-251.429 1136.48,-249.086 1137.27,-256.041"/>
</g>
<!-- enemyRadar[RightBack] -->
<g id="node9" class="node"><title>enemyRadar[RightBack]</title>
<polygon fill="lightgray" stroke="black" points="729.405,-388.529 625.405,-388.529 625.405,-370.529 729.405,-370.529 729.405,-388.529"/>
<text text-anchor="middle" x="677.405" y="-377.329" font-family="Times,serif" font-size="9.00">enemyRadar[RightBack]</text>
</g>
<!-- enemyRadar[RightBack]&#45;&gt;Shoot -->
<g id="edge28" class="edge"><title>enemyRadar[RightBack]&#45;&gt;Shoot</title>
<path fill="none" stroke="red" stroke-width="0.65425" d="M680.538,-370.456C692.801,-339.828 740.495,-229.444 813.405,-168.167 957.549,-47.0215 1197.57,-29.8563 1289.25,-27.8857"/>
<polygon fill="red" stroke="red" stroke-width="0.65425" points="1289.49,-31.3823 1299.43,-27.7176 1289.37,-24.3833 1289.49,-31.3823"/>
</g>
<!-- enemyRadar[RightBack]&#45;&gt;Move Forward/Backward -->
<g id="edge10" class="edge"><title>enemyRadar[RightBack]&#45;&gt;Move Forward/Backward</title>
<path fill="none" stroke="red" stroke-width="0.125906" d="M663.303,-370.453C635.708,-354.65 572.819,-318.635 521.827,-289.434"/>
<polygon fill="red" stroke="red" stroke-width="0.125906" points="523.523,-286.371 513.106,-284.439 520.044,-292.446 523.523,-286.371"/>
</g>
<!-- enemyRadar[RightBack]&#45;&gt;Turn left/right -->
<g id="edge44" class="edge"><title>enemyRadar[RightBack]&#45;&gt;Turn left/right</title>
<path fill="none" stroke="green" stroke-width="0.114076" d="M700.156,-370.519C711.571,-366.621 725.649,-361.994 738.405,-358.316 881.27,-317.119 1052.05,-277.622 1138.07,-258.395"/>
<polygon fill="green" stroke="green" stroke-width="0.114076" points="1138.89,-261.8 1147.89,-256.208 1137.36,-254.968 1138.89,-261.8"/>
</g>
<!-- enemyRadar[LeftBack] -->
<g id="node10" class="node"><title>enemyRadar[LeftBack]</title>
<polygon fill="lightgray" stroke="black" points="606.905,-388.529 507.905,-388.529 507.905,-370.529 606.905,-370.529 606.905,-388.529"/>
<text text-anchor="middle" x="557.405" y="-377.329" font-family="Times,serif" font-size="9.00">enemyRadar[LeftBack]</text>
</g>
<!-- enemyRadar[LeftBack]&#45;&gt;Move Forward/Backward -->
<g id="edge3" class="edge"><title>enemyRadar[LeftBack]&#45;&gt;Move Forward/Backward</title>
<path fill="none" stroke="red" stroke-width="0.478824" d="M550.462,-370.254C540.526,-358.413 521.32,-335.524 502.086,-312.6"/>
<polygon fill="red" stroke="red" stroke-width="0.478824" points="504.684,-310.252 495.575,-304.841 499.321,-314.751 504.684,-310.252"/>
</g>
<!-- enemyRadar[LeftBack]&#45;&gt;Turn left/right -->
<g id="edge26" class="edge"><title>enemyRadar[LeftBack]&#45;&gt;Turn left/right</title>
<path fill="none" stroke="red" stroke-width="0.234178" d="M578.488,-370.514C589.645,-366.474 603.643,-361.724 616.405,-358.316 804.847,-307.993 1033.54,-270.339 1137.34,-254.488"/>
<polygon fill="red" stroke="red" stroke-width="0.234178" points="1137.93,-257.94 1147.29,-252.978 1136.88,-251.019 1137.93,-257.94"/>
</g>
<!-- enemyRadar[Right45ø] -->
<g id="node11" class="node"><title>enemyRadar[Right45ø]</title>
<polygon fill="lightgray" stroke="black" points="104.405,-454.742 4.40507,-454.742 4.40507,-436.742 104.405,-436.742 104.405,-454.742"/>
<text text-anchor="middle" x="54.4051" y="-443.542" font-family="Times,serif" font-size="9.00">enemyRadar[Right45ø]</text>
</g>
<!-- enemyRadar[Right45ø]&#45;&gt;Move Forward/Backward -->
<g id="edge2" class="edge"><title>enemyRadar[Right45ø]&#45;&gt;Move Forward/Backward</title>
<path fill="none" stroke="green" stroke-width="0.107732" d="M40.7837,-436.575C29.4664,-428.918 14.1645,-416.329 7.40507,-400.742 -0.0969376,-383.443 -4.16223,-373.207 7.40507,-358.316 50.1466,-303.292 243.958,-270.752 359.289,-255.928"/>
<polygon fill="green" stroke="green" stroke-width="0.107732" points="360.03,-259.362 369.511,-254.634 359.15,-252.418 360.03,-259.362"/>
</g>
<!-- 43 -->
<g id="node29" class="node"><title>43</title>
<ellipse fill="white" stroke="black" cx="126.405" cy="-379.529" rx="18.2703" ry="18.2703"/>
<text text-anchor="middle" x="126.405" y="-377.329" font-family="Times,serif" font-size="9.00">43</text>
</g>
<!-- enemyRadar[Right45ø]&#45;&gt;43 -->
<g id="edge56" class="edge"><title>enemyRadar[Right45ø]&#45;&gt;43</title>
<path fill="none" stroke="red" stroke-width="0.285647" d="M63.5239,-436.61C73.9625,-427.3 91.4066,-411.742 105.277,-399.372"/>
<polygon fill="red" stroke="red" stroke-width="0.285647" points="107.817,-401.796 112.951,-392.528 103.158,-396.572 107.817,-401.796"/>
</g>
<!-- enemyRadar[Left45ø] -->
<g id="node12" class="node"><title>enemyRadar[Left45ø]</title>
<polygon fill="lightgray" stroke="black" points="982.905,-454.742 887.905,-454.742 887.905,-436.742 982.905,-436.742 982.905,-454.742"/>
<text text-anchor="middle" x="935.405" y="-443.542" font-family="Times,serif" font-size="9.00">enemyRadar[Left45ø]</text>
</g>
<!-- enemyRadar[RightFront20ø] -->
<g id="node13" class="node"><title>enemyRadar[RightFront20ø]</title>
<polygon fill="lightgray" stroke="black" points="1650.91,-388.529 1531.91,-388.529 1531.91,-370.529 1650.91,-370.529 1650.91,-388.529"/>
<text text-anchor="middle" x="1591.41" y="-377.329" font-family="Times,serif" font-size="9.00">enemyRadar[RightFront20ø]</text>
</g>
<!-- enemyRadar[RightFront20ø]&#45;&gt; Move Left/Right -->
<g id="edge15" class="edge"><title>enemyRadar[RightFront20ø]&#45;&gt; Move Left/Right</title>
<path fill="none" stroke="red" stroke-width="0.240572" d="M1585.59,-370.254C1575.61,-356.054 1554.45,-325.967 1535.48,-298.985"/>
<polygon fill="red" stroke="red" stroke-width="0.240572" points="1538.3,-296.9 1529.68,-290.733 1532.57,-300.926 1538.3,-296.9"/>
</g>
<!-- enemyRadar[RightFront20ø]&#45;&gt;Turn left/right -->
<g id="edge43" class="edge"><title>enemyRadar[RightFront20ø]&#45;&gt;Turn left/right</title>
<path fill="none" stroke="green" stroke-width="0.502532" d="M1567.11,-370.453C1504.22,-349.549 1334.92,-293.277 1247.41,-264.193"/>
<polygon fill="green" stroke="green" stroke-width="0.502532" points="1248.27,-260.788 1237.67,-260.955 1246.06,-267.431 1248.27,-260.788"/>
</g>
<!-- enemyRadar[LeftFront20ø] -->
<g id="node14" class="node"><title>enemyRadar[LeftFront20ø]</title>
<polygon fill="lightgray" stroke="black" points="869.405,-454.742 755.405,-454.742 755.405,-436.742 869.405,-436.742 869.405,-454.742"/>
<text text-anchor="middle" x="812.405" y="-443.542" font-family="Times,serif" font-size="9.00">enemyRadar[LeftFront20ø]</text>
</g>
<!-- enemyRadar[LeftFront20ø]&#45;&gt;Move Forward/Backward -->
<g id="edge46" class="edge"><title>enemyRadar[LeftFront20ø]&#45;&gt;Move Forward/Backward</title>
<path fill="none" stroke="red" stroke-width="0.641944" d="M755.315,-442.894C646.511,-438.781 418.114,-427.078 394.405,-400.742 373.298,-377.296 380.43,-344.976 395.212,-315.954"/>
<polygon fill="red" stroke="red" stroke-width="0.641944" points="398.341,-317.527 400.023,-307.067 392.185,-314.195 398.341,-317.527"/>
</g>
<!-- enemyRadar[LeftFront20ø]&#45;&gt; Move Left/Right -->
<g id="edge34" class="edge"><title>enemyRadar[LeftFront20ø]&#45;&gt; Move Left/Right</title>
<path fill="none" stroke="red" stroke-width="0.171072" d="M869.614,-437.518C872.585,-437.234 875.529,-436.972 878.405,-436.742 929.503,-432.655 1764.87,-437.69 1800.41,-400.742 1813.48,-387.151 1812.68,-372.631 1800.41,-358.316 1732.2,-278.766 1659.68,-371.973 1567.41,-322.316 1556.13,-316.248 1545.75,-307.6 1536.65,-298.295"/>
<polygon fill="red" stroke="red" stroke-width="0.171072" points="1539.01,-295.683 1529.64,-290.729 1533.87,-300.442 1539.01,-295.683"/>
</g>
<!-- enemyRadar[LeftFront20ø]&#45;&gt;Turn left/right -->
<g id="edge8" class="edge"><title>enemyRadar[LeftFront20ø]&#45;&gt;Turn left/right</title>
<path fill="none" stroke="red" stroke-width="0.519588" stroke-dasharray="1,5" d="M869.635,-437.739C872.6,-437.397 875.537,-437.063 878.405,-436.742 917.477,-432.377 1204.06,-429.922 1230.41,-400.742 1256.79,-371.521 1242.25,-326.851 1224.22,-293.045"/>
<polygon fill="red" stroke="red" stroke-width="0.519588" points="1227.25,-291.296 1219.32,-284.262 1221.13,-294.701 1227.25,-291.296"/>
</g>
<!-- enemyRadar[LeftFront20ø]&#45;&gt;43 -->
<g id="edge54" class="edge"><title>enemyRadar[LeftFront20ø]&#45;&gt;43</title>
<path fill="none" stroke="red" stroke-width="0.280593" d="M755.331,-444.936C616.44,-444.768 264.197,-440.325 154.405,-400.742 152.297,-399.982 150.208,-399.013 148.177,-397.913"/>
<polygon fill="red" stroke="red" stroke-width="0.280593" points="150.067,-394.967 139.767,-392.484 146.27,-400.848 150.067,-394.967"/>
</g>
<!-- enemyRadar[RightFront15ø] -->
<g id="node15" class="node"><title>enemyRadar[RightFront15ø]</title>
<polygon fill="lightgray" stroke="black" points="1464.91,-388.529 1345.91,-388.529 1345.91,-370.529 1464.91,-370.529 1464.91,-388.529"/>
<text text-anchor="middle" x="1405.41" y="-377.329" font-family="Times,serif" font-size="9.00">enemyRadar[RightFront15ø]</text>
</g>
<!-- enemyRadar[RightFront15ø]&#45;&gt;Shoot -->
<g id="edge16" class="edge"><title>enemyRadar[RightFront15ø]&#45;&gt;Shoot</title>
<path fill="none" stroke="green" stroke-width="0.631603" d="M1406.51,-370.511C1411.01,-335.461 1425.59,-192.864 1381.41,-89.7401 1375.3,-75.4956 1364.58,-62.2742 1354.22,-51.7413"/>
<polygon fill="green" stroke="green" stroke-width="0.631603" points="1356.43,-49.0077 1346.81,-44.5706 1351.56,-54.0389 1356.43,-49.0077"/>
</g>
<!-- enemyRadar[RightFront15ø]&#45;&gt;Move Forward/Backward -->
<g id="edge32" class="edge"><title>enemyRadar[RightFront15ø]&#45;&gt;Move Forward/Backward</title>
<path fill="none" stroke="red" stroke-width="0.271026" d="M1381.38,-370.463C1368.22,-366.309 1351.56,-361.469 1336.41,-358.316 1183.81,-326.568 725.716,-275.948 533.162,-255.378"/>
<polygon fill="red" stroke="red" stroke-width="0.271026" points="533.399,-251.884 523.085,-254.303 532.657,-258.844 533.399,-251.884"/>
</g>
<!-- enemyRadar[RightFront15ø]&#45;&gt; Move Left/Right -->
<g id="edge11" class="edge"><title>enemyRadar[RightFront15ø]&#45;&gt; Move Left/Right</title>
<path fill="none" stroke="green" stroke-width="0.151389" d="M1411.22,-370.254C1421.21,-356.054 1442.36,-325.967 1461.33,-298.985"/>
<polygon fill="green" stroke="green" stroke-width="0.151389" points="1464.24,-300.926 1467.13,-290.733 1458.51,-296.9 1464.24,-300.926"/>
</g>
<!-- enemyRadar[RightFront15ø]&#45;&gt;Turn left/right -->
<g id="edge27" class="edge"><title>enemyRadar[RightFront15ø]&#45;&gt;Turn left/right</title>
<path fill="none" stroke="green" stroke-width="0.331816" stroke-dasharray="1,5" d="M1392.46,-370.453C1363.12,-352.143 1290.29,-306.697 1241.34,-276.155"/>
<polygon fill="green" stroke="green" stroke-width="0.331816" points="1243.14,-273.149 1232.8,-270.824 1239.43,-279.088 1243.14,-273.149"/>
</g>
<!-- enemyRadar[LeftFront15ø] -->
<g id="node16" class="node"><title>enemyRadar[LeftFront15ø]</title>
<polygon fill="lightgray" stroke="black" points="2063.41,-388.529 1949.41,-388.529 1949.41,-370.529 2063.41,-370.529 2063.41,-388.529"/>
<text text-anchor="middle" x="2006.41" y="-377.329" font-family="Times,serif" font-size="9.00">enemyRadar[LeftFront15ø]</text>
</g>
<!-- enemyRadar[LeftFront15ø]&#45;&gt; Move Left/Right -->
<g id="edge14" class="edge"><title>enemyRadar[LeftFront15ø]&#45;&gt; Move Left/Right</title>
<path fill="none" stroke="red" stroke-width="0.311289" d="M1983.42,-370.44C1970.61,-366.226 1954.29,-361.336 1939.41,-358.316 1793.08,-328.626 1745,-375.291 1605.41,-322.316 1584.89,-314.532 1564.68,-301.847 1547.44,-289.047"/>
<polygon fill="red" stroke="red" stroke-width="0.311289" points="1549.3,-286.063 1539.23,-282.776 1545.05,-291.627 1549.3,-286.063"/>
</g>
<!-- enemyRadar[RightFront7.5ø] -->
<g id="node17" class="node"><title>enemyRadar[RightFront7.5ø]</title>
<polygon fill="lightgray" stroke="black" points="1791.41,-388.529 1669.41,-388.529 1669.41,-370.529 1791.41,-370.529 1791.41,-388.529"/>
<text text-anchor="middle" x="1730.41" y="-377.329" font-family="Times,serif" font-size="9.00">enemyRadar[RightFront7.5ø]</text>
</g>
<!-- enemyRadar[RightFront7.5ø]&#45;&gt; Move Left/Right -->
<g id="edge23" class="edge"><title>enemyRadar[RightFront7.5ø]&#45;&gt; Move Left/Right</title>
<path fill="none" stroke="green" stroke-width="0.308799" d="M1701.45,-370.433C1660.95,-358.794 1589.83,-337.109 1567.41,-322.316 1556.95,-315.421 1547.04,-306.584 1538.16,-297.39"/>
<polygon fill="green" stroke="green" stroke-width="0.308799" points="1540.64,-294.916 1531.27,-289.969 1535.51,-299.679 1540.64,-294.916"/>
</g>
<!-- enemyRadar[RightFront7.5ø]&#45;&gt;Turn left/right -->
<g id="edge21" class="edge"><title>enemyRadar[RightFront7.5ø]&#45;&gt;Turn left/right</title>
<path fill="none" stroke="green" stroke-width="0.165404" d="M1704.96,-370.492C1691.51,-366.447 1674.67,-361.698 1659.41,-358.316 1560.53,-336.412 1532.96,-345.621 1434.41,-322.316 1368.89,-306.824 1295.34,-282.576 1246.92,-265.632"/>
<polygon fill="green" stroke="green" stroke-width="0.165404" points="1247.87,-262.257 1237.28,-262.239 1245.55,-268.86 1247.87,-262.257"/>
</g>
<!-- enemyRadar[LeftFront7.5ø] -->
<g id="node18" class="node"><title>enemyRadar[LeftFront7.5ø]</title>
<polygon fill="lightgray" stroke="black" points="2197.41,-388.529 2081.41,-388.529 2081.41,-370.529 2197.41,-370.529 2197.41,-388.529"/>
<text text-anchor="middle" x="2139.41" y="-377.329" font-family="Times,serif" font-size="9.00">enemyRadar[LeftFront7.5ø]</text>
</g>
<!-- enemyRadar[LeftFront7.5ø]&#45;&gt;Shoot -->
<g id="edge39" class="edge"><title>enemyRadar[LeftFront7.5ø]&#45;&gt;Shoot</title>
<path fill="none" stroke="green" stroke-width="0.162645" stroke-dasharray="1,5" d="M2116.74,-370.45C2103.9,-366.186 2087.43,-361.243 2072.41,-358.316 1986.76,-341.63 1751.68,-374.042 1681.41,-322.316 1621.66,-278.341 1663.98,-225.903 1617.41,-168.167 1551.16,-86.0478 1425.14,-48.859 1362.96,-34.9105"/>
<polygon fill="green" stroke="green" stroke-width="0.162645" points="1363.35,-31.4136 1352.84,-32.7188 1361.87,-38.2552 1363.35,-31.4136"/>
</g>
<!-- enemyRadar[LeftFront7.5ø]&#45;&gt;Turn left/right -->
<g id="edge38" class="edge"><title>enemyRadar[LeftFront7.5ø]&#45;&gt;Turn left/right</title>
<path fill="none" stroke="green" stroke-width="0.605974" stroke-dasharray="1,5" d="M2117.39,-370.45C2104.47,-366.072 2087.72,-361.019 2072.41,-358.316 1792.72,-308.956 1713.77,-373.459 1434.41,-322.316 1367.99,-310.156 1294.33,-285.124 1246.14,-267.09"/>
<polygon fill="green" stroke="green" stroke-width="0.605974" points="1247.14,-263.728 1236.55,-263.468 1244.67,-270.276 1247.14,-263.728"/>
</g>
<!-- 482 -->
<g id="node28" class="node"><title>482</title>
<ellipse fill="white" stroke="black" cx="1351.41" cy="-110.953" rx="21.4286" ry="21.4286"/>
<text text-anchor="middle" x="1351.41" y="-108.753" font-family="Times,serif" font-size="9.00">482</text>
</g>
<!-- enemyRadar[LeftFront7.5ø]&#45;&gt;482 -->
<g id="edge59" class="edge"><title>enemyRadar[LeftFront7.5ø]&#45;&gt;482</title>
<path fill="none" stroke="green" stroke-width="0.250721" d="M2117.06,-370.505C2104.17,-366.202 2087.56,-361.205 2072.41,-358.316 1978.43,-340.402 1723.15,-375.172 1643.41,-322.316 1578.9,-279.557 1622.89,-216.449 1562.41,-168.167 1509.44,-125.889 1427.56,-115.245 1382.97,-112.671"/>
<polygon fill="green" stroke="green" stroke-width="0.250721" points="1382.9,-109.164 1372.74,-112.186 1382.57,-116.156 1382.9,-109.164"/>
</g>
<!-- enemyRadar[RightFront2.5ø] -->
<g id="node19" class="node"><title>enemyRadar[RightFront2.5ø]</title>
<polygon fill="lightgray" stroke="black" points="1221.41,-388.529 1099.41,-388.529 1099.41,-370.529 1221.41,-370.529 1221.41,-388.529"/>
<text text-anchor="middle" x="1160.41" y="-377.329" font-family="Times,serif" font-size="9.00">enemyRadar[RightFront2.5ø]</text>
</g>
<!-- enemyRadar[RightFront2.5ø]&#45;&gt;Turn left/right -->
<g id="edge7" class="edge"><title>enemyRadar[RightFront2.5ø]&#45;&gt;Turn left/right</title>
<path fill="none" stroke="green" stroke-width="0.119381" d="M1162.47,-370.254C1165.94,-356.36 1173.2,-327.257 1179.81,-300.734"/>
<polygon fill="green" stroke="green" stroke-width="0.119381" points="1183.28,-301.282 1182.31,-290.733 1176.49,-299.588 1183.28,-301.282"/>
</g>
<!-- enemyRadar[LeftFront2.5ø] -->
<g id="node20" class="node"><title>enemyRadar[LeftFront2.5ø]</title>
<polygon fill="lightgray" stroke="black" points="1043.41,-388.529 927.405,-388.529 927.405,-370.529 1043.41,-370.529 1043.41,-388.529"/>
<text text-anchor="middle" x="985.405" y="-377.329" font-family="Times,serif" font-size="9.00">enemyRadar[LeftFront2.5ø]</text>
</g>
<!-- enemyRadar[LeftFront2.5ø]&#45;&gt;Move Forward/Backward -->
<g id="edge4" class="edge"><title>enemyRadar[LeftFront2.5ø]&#45;&gt;Move Forward/Backward</title>
<path fill="none" stroke="green" stroke-width="0.407294" d="M960.056,-370.491C947.565,-366.63 932.249,-362.044 918.405,-358.316 783.896,-322.091 626.172,-285.892 531.377,-264.807"/>
<polygon fill="green" stroke="green" stroke-width="0.407294" points="532.074,-261.377 521.553,-262.626 530.557,-268.21 532.074,-261.377"/>
</g>
<!-- enemyRadar[LeftFront2.5ø]&#45;&gt; Move Left/Right -->
<g id="edge51" class="edge"><title>enemyRadar[LeftFront2.5ø]&#45;&gt; Move Left/Right</title>
<path fill="none" stroke="green" stroke-width="0.190601" d="M1025.12,-370.513C1087.94,-357.76 1207.38,-333.187 1249.41,-322.316 1313.82,-305.652 1386.47,-283.002 1436.6,-266.758"/>
<polygon fill="green" stroke="green" stroke-width="0.190601" points="1437.89,-270.02 1446.32,-263.598 1435.72,-263.363 1437.89,-270.02"/>
</g>
<!-- enemyRadar[LeftFront2.5ø]&#45;&gt;Turn left/right -->
<g id="edge45" class="edge"><title>enemyRadar[LeftFront2.5ø]&#45;&gt;Turn left/right</title>
<path fill="none" stroke="red" stroke-width="0.225399" d="M998.103,-370.453C1026.75,-352.233 1097.64,-307.147 1145.65,-276.61"/>
<polygon fill="red" stroke="red" stroke-width="0.225399" points="1147.78,-279.408 1154.34,-271.088 1144.02,-273.501 1147.78,-279.408"/>
</g>
<!-- enemyRadar[Front7Ø] -->
<g id="node21" class="node"><title>enemyRadar[Front7Ø]</title>
<polygon fill="lightgray" stroke="black" points="1821.41,-119.953 1723.41,-119.953 1723.41,-101.953 1821.41,-101.953 1821.41,-119.953"/>
<text text-anchor="middle" x="1772.41" y="-108.753" font-family="Times,serif" font-size="9.00">enemyRadar[Front7Ø]</text>
</g>
<!-- enemyRadar[Front7Ø]&#45;&gt;Shoot -->
<g id="edge37" class="edge"><title>enemyRadar[Front7Ø]&#45;&gt;Shoot</title>
<path fill="none" stroke="green" stroke-width="0.881308" d="M1750.19,-101.922C1738.22,-97.8291 1723.14,-93.0342 1709.41,-89.7401 1584.13,-59.7041 1432.25,-40.0134 1363.46,-31.9758"/>
<polygon fill="green" stroke="green" stroke-width="0.881308" points="1363.48,-28.4554 1353.14,-30.786 1362.68,-35.4093 1363.48,-28.4554"/>
</g>
<!-- OnTarget -->
<g id="node22" class="node"><title>OnTarget</title>
<polygon fill="lightgray" stroke="black" points="1327.41,-388.529 1277.41,-388.529 1277.41,-370.529 1327.41,-370.529 1327.41,-388.529"/>
<text text-anchor="middle" x="1302.41" y="-377.329" font-family="Times,serif" font-size="9.00">OnTarget</text>
</g>
<!-- OnTarget&#45;&gt;Shoot -->
<g id="edge12" class="edge"><title>OnTarget&#45;&gt;Shoot</title>
<path fill="none" stroke="green" stroke-width="0.244446" d="M1302.89,-370.487C1304.95,-336.463 1313.25,-200.986 1321.41,-89.7401 1322.02,-81.3352 1322.73,-72.2918 1323.41,-63.7842"/>
<polygon fill="green" stroke="green" stroke-width="0.244446" points="1326.91,-64.0023 1324.23,-53.7516 1319.93,-63.4352 1326.91,-64.0023"/>
</g>
<!-- OnTarget&#45;&gt;Move Forward/Backward -->
<g id="edge33" class="edge"><title>OnTarget&#45;&gt;Move Forward/Backward</title>
<path fill="none" stroke="green" stroke-width="0.161634" d="M1277.28,-370.599C1263.54,-366.484 1246.16,-361.638 1230.41,-358.316 979.793,-305.465 678.786,-270.187 533.419,-254.892"/>
<polygon fill="green" stroke="green" stroke-width="0.161634" points="533.534,-251.385 523.224,-253.825 532.806,-258.347 533.534,-251.385"/>
</g>
<!-- OnTarget&#45;&gt; Move Left/Right -->
<g id="edge42" class="edge"><title>OnTarget&#45;&gt; Move Left/Right</title>
<path fill="none" stroke="red" stroke-width="0.53537" d="M1314.37,-370.453C1339.67,-353.378 1399.93,-312.705 1444.64,-282.527"/>
<polygon fill="red" stroke="red" stroke-width="0.53537" points="1446.75,-285.328 1453.08,-276.832 1442.83,-279.525 1446.75,-285.328"/>
</g>
<!-- OnTarget&#45;&gt;Turn left/right -->
<g id="edge50" class="edge"><title>OnTarget&#45;&gt;Turn left/right</title>
<path fill="none" stroke="green" stroke-width="0.401042" d="M1295.59,-370.254C1282.55,-354.433 1253.26,-318.887 1229.37,-289.89"/>
<polygon fill="green" stroke="green" stroke-width="0.401042" points="1231.85,-287.399 1222.79,-281.907 1226.45,-291.85 1231.85,-287.399"/>
</g>
<!-- bias -->
<g id="node23" class="node"><title>bias</title>
<polygon fill="lightgray" stroke="black" points="1513.91,-388.529 1482.91,-388.529 1482.91,-370.529 1513.91,-370.529 1513.91,-388.529"/>
<text text-anchor="middle" x="1498.41" y="-377.329" font-family="Times,serif" font-size="9.00">bias</text>
</g>
<!-- bias&#45;&gt; Move Left/Right -->
<g id="edge17" class="edge"><title>bias&#45;&gt; Move Left/Right</title>
<path fill="none" stroke="green" stroke-width="0.349326" d="M1498.41,-370.254C1498.41,-358.078 1498.41,-334.222 1498.41,-310.658"/>
<polygon fill="green" stroke="green" stroke-width="0.349326" points="1501.91,-310.611 1498.41,-300.611 1494.91,-310.611 1501.91,-310.611"/>
</g>
<!-- bias&#45;&gt;Turn left/right -->
<g id="edge53" class="edge"><title>bias&#45;&gt;Turn left/right</title>
<path fill="none" stroke="red" stroke-width="0.589171" d="M1489.63,-370.345C1485.04,-366.357 1479.18,-361.704 1473.41,-358.316 1399.54,-315.003 1305.78,-281.291 1247.69,-262.59"/>
<polygon fill="red" stroke="red" stroke-width="0.589171" points="1248.57,-259.196 1237.98,-259.496 1246.44,-265.866 1248.57,-259.196"/>
</g>
<!-- Turn left/right&#45;&gt;482 -->
<g id="edge61" class="edge"><title>Turn left/right&#45;&gt;482</title>
<path fill="none" stroke="red" stroke-width="0.106651" d="M1228.86,-214.553C1258.91,-189.395 1301.18,-154.004 1327.4,-132.049"/>
<polygon fill="red" stroke="red" stroke-width="0.106651" points="1329.9,-134.526 1335.32,-125.422 1325.4,-129.158 1329.9,-134.526"/>
</g>
<!-- 482&#45;&gt;Shoot -->
<g id="edge60" class="edge"><title>482&#45;&gt;Shoot</title>
<path fill="none" stroke="red" stroke-width="0.140211" d="M1345.48,-90.5007C1342.93,-82.1265 1339.87,-72.0758 1336.95,-62.5022"/>
<polygon fill="red" stroke="red" stroke-width="0.140211" points="1340.26,-61.3349 1333.99,-52.7885 1333.56,-63.3744 1340.26,-61.3349"/>
</g>
<!-- 43&#45;&gt;Move Forward/Backward -->
<g id="edge55" class="edge"><title>43&#45;&gt;Move Forward/Backward</title>
<path fill="none" stroke="red" stroke-width="0.284521" d="M140.47,-367.293C144.789,-364.144 149.659,-360.883 154.405,-358.316 221.588,-321.972 303.105,-291.73 362.917,-271.857"/>
<polygon fill="red" stroke="red" stroke-width="0.284521" points="364.295,-275.088 372.698,-268.635 362.105,-268.44 364.295,-275.088"/>
</g>
<!-- 411&#45;&gt;Move Forward/Backward -->
<g id="edge58" class="edge"><title>411&#45;&gt;Move Forward/Backward</title>
<path fill="none" stroke="red" stroke-width="0.509164" d="M202.445,-367.811C207.857,-364.677 213.836,-361.294 219.405,-358.316 268.16,-332.237 323.815,-304.725 367.815,-283.485"/>
<polygon fill="red" stroke="red" stroke-width="0.509164" points="369.53,-286.544 377.02,-279.051 366.492,-280.238 369.53,-286.544"/>
</g>
</g>
</svg>
