<?xml version="1.0" encoding="UTF-8" standalone="no"?>
<!DOCTYPE svg PUBLIC "-//W3C//DTD SVG 1.1//EN"
 "http://www.w3.org/Graphics/SVG/1.1/DTD/svg11.dtd">
<!-- Generated by graphviz version 2.38.0 (20140413.2041)
 -->
<!-- Title: %3 Pages: 1 -->
<svg width="2559pt" height="216pt"
 viewBox="0.00 0.00 2558.50 216.15" xmlns="http://www.w3.org/2000/svg" xmlns:xlink="http://www.w3.org/1999/xlink">
<g id="graph0" class="graph" transform="scale(1 1) rotate(0) translate(4 212.149)">
<title>%3</title>
<polygon fill="white" stroke="none" points="-4,4 -4,-212.149 2554.5,-212.149 2554.5,4 -4,4"/>
<!-- wallRadar[1,0] -->
<g id="node1" class="node"><title>wallRadar[1,0]</title>
<polygon fill="lightgray" stroke="black" points="369.5,-208.149 299.5,-208.149 299.5,-190.149 369.5,-190.149 369.5,-208.149"/>
<text text-anchor="middle" x="334.5" y="-196.949" font-family="Times,serif" font-size="9.00">wallRadar[1,0]</text>
</g>
<!-- Shoot -->
<g id="node24" class="node"><title>Shoot</title>
<ellipse fill="lightblue" stroke="black" cx="1390.5" cy="-77.0746" rx="26.7407" ry="26.7407"/>
<text text-anchor="middle" x="1390.5" y="-74.8746" font-family="Times,serif" font-size="9.00">Shoot</text>
</g>
<!-- wallRadar[1,0]&#45;&gt;Shoot -->
<g id="edge12" class="edge"><title>wallRadar[1,0]&#45;&gt;Shoot</title>
<path fill="none" stroke="red" stroke-width="0.172719" d="M369.51,-191.421C372.544,-190.948 375.572,-190.515 378.5,-190.149 610.581,-161.185 671.077,-180.222 903.5,-154.149 1072.78,-135.159 1273.26,-99.7041 1354.07,-84.8721"/>
<polygon fill="red" stroke="red" stroke-width="0.172719" points="1355.01,-88.2568 1364.21,-83.0024 1353.74,-81.3727 1355.01,-88.2568"/>
</g>
<!--  Move Left/Right -->
<g id="node26" class="node"><title> Move Left/Right</title>
<ellipse fill="lightblue" stroke="black" cx="616.5" cy="-77.0746" rx="55.3091" ry="55.3091"/>
<text text-anchor="middle" x="616.5" y="-74.8746" font-family="Times,serif" font-size="9.00"> Move Left/Right</text>
</g>
<!-- wallRadar[1,0]&#45;&gt; Move Left/Right -->
<g id="edge50" class="edge"><title>wallRadar[1,0]&#45;&gt; Move Left/Right</title>
<path fill="none" stroke="red" stroke-width="0.157495" d="M353.441,-190.084C394.401,-172.643 492.692,-130.792 556.842,-103.477"/>
<polygon fill="red" stroke="red" stroke-width="0.157495" points="558.219,-106.695 566.048,-99.5567 555.477,-100.254 558.219,-106.695"/>
</g>
<!-- wallRadar[0,1] -->
<g id="node2" class="node"><title>wallRadar[0,1]</title>
<polygon fill="lightgray" stroke="black" points="2294.5,-208.149 2224.5,-208.149 2224.5,-190.149 2294.5,-190.149 2294.5,-208.149"/>
<text text-anchor="middle" x="2259.5" y="-196.949" font-family="Times,serif" font-size="9.00">wallRadar[0,1]</text>
</g>
<!-- Turn left/right -->
<g id="node27" class="node"><title>Turn left/right</title>
<ellipse fill="lightblue" stroke="black" cx="1611.5" cy="-77.0746" rx="46.8387" ry="46.8387"/>
<text text-anchor="middle" x="1611.5" y="-74.8746" font-family="Times,serif" font-size="9.00">Turn left/right</text>
</g>
<!-- wallRadar[0,1]&#45;&gt;Turn left/right -->
<g id="edge23" class="edge"><title>wallRadar[0,1]&#45;&gt;Turn left/right</title>
<path fill="none" stroke="green" stroke-width="0.368172" d="M2224.2,-191.608C2117.49,-171.834 1797.62,-112.562 1667.49,-88.4489"/>
<polygon fill="green" stroke="green" stroke-width="0.368172" points="1667.81,-84.9494 1657.34,-86.5687 1666.53,-91.8322 1667.81,-84.9494"/>
</g>
<!-- wallRadar[&#45;1,0] -->
<g id="node3" class="node"><title>wallRadar[&#45;1,0]</title>
<polygon fill="lightgray" stroke="black" points="213,-208.149 140,-208.149 140,-190.149 213,-190.149 213,-208.149"/>
<text text-anchor="middle" x="176.5" y="-196.949" font-family="Times,serif" font-size="9.00">wallRadar[&#45;1,0]</text>
</g>
<!-- Move Forward/Backward -->
<g id="node25" class="node"><title>Move Forward/Backward</title>
<ellipse fill="lightblue" stroke="black" cx="817.5" cy="-77.0746" rx="77.1494" ry="77.1494"/>
<text text-anchor="middle" x="817.5" y="-74.8746" font-family="Times,serif" font-size="9.00">Move Forward/Backward</text>
</g>
<!-- wallRadar[&#45;1,0]&#45;&gt;Move Forward/Backward -->
<g id="edge1" class="edge"><title>wallRadar[&#45;1,0]&#45;&gt;Move Forward/Backward</title>
<path fill="none" stroke="green" stroke-width="0.174047" d="M213.112,-191.463C216.281,-190.981 219.444,-190.534 222.5,-190.149 425.082,-164.629 484.999,-213.058 680.5,-154.149 702.51,-147.517 724.916,-136.975 745.058,-125.827"/>
<polygon fill="green" stroke="green" stroke-width="0.174047" points="746.868,-128.824 753.843,-120.849 743.417,-122.734 746.868,-128.824"/>
</g>
<!-- wallRadar[&#45;1,0]&#45;&gt; Move Left/Right -->
<g id="edge13" class="edge"><title>wallRadar[&#45;1,0]&#45;&gt; Move Left/Right</title>
<path fill="none" stroke="green" stroke-width="0.102541" d="M206.053,-190.084C276.77,-170.786 457.004,-121.601 553.411,-95.2914"/>
<polygon fill="green" stroke="green" stroke-width="0.102541" points="554.597,-98.5958 563.323,-92.5865 552.754,-91.8427 554.597,-98.5958"/>
</g>
<!-- wallRadar[0,&#45;1] -->
<g id="node4" class="node"><title>wallRadar[0,&#45;1]</title>
<polygon fill="lightgray" stroke="black" points="73,-208.149 0,-208.149 0,-190.149 73,-190.149 73,-208.149"/>
<text text-anchor="middle" x="36.5" y="-196.949" font-family="Times,serif" font-size="9.00">wallRadar[0,&#45;1]</text>
</g>
<!-- wallRadar[0,&#45;1]&#45;&gt;Move Forward/Backward -->
<g id="edge19" class="edge"><title>wallRadar[0,&#45;1]&#45;&gt;Move Forward/Backward</title>
<path fill="none" stroke="red" stroke-width="0.384044" d="M73.2853,-191.252C76.0596,-190.841 78.8209,-190.467 81.5,-190.149 346.348,-158.756 424.441,-228.741 680.5,-154.149 702.57,-147.72 724.996,-137.247 745.139,-126.101"/>
<polygon fill="red" stroke="red" stroke-width="0.384044" points="746.951,-129.097 753.923,-121.119 743.498,-123.008 746.951,-129.097"/>
</g>
<!-- wallRadar[0,&#45;1]&#45;&gt; Move Left/Right -->
<g id="edge17" class="edge"><title>wallRadar[0,&#45;1]&#45;&gt; Move Left/Right</title>
<path fill="none" stroke="green" stroke-width="0.372815" d="M73.2216,-190.547C169.62,-170.59 430.823,-116.515 552.508,-91.3225"/>
<polygon fill="green" stroke="green" stroke-width="0.372815" points="553.351,-94.7224 562.434,-89.2678 551.932,-87.8678 553.351,-94.7224"/>
</g>
<!-- wallRadar[0.7,0.7] -->
<g id="node5" class="node"><title>wallRadar[0.7,0.7]</title>
<polygon fill="lightgray" stroke="black" points="2072,-208.149 1989,-208.149 1989,-190.149 2072,-190.149 2072,-208.149"/>
<text text-anchor="middle" x="2030.5" y="-196.949" font-family="Times,serif" font-size="9.00">wallRadar[0.7,0.7]</text>
</g>
<!-- wallRadar[0.7,0.7]&#45;&gt;Shoot -->
<g id="edge15" class="edge"><title>wallRadar[0.7,0.7]&#45;&gt;Shoot</title>
<path fill="none" stroke="green" stroke-width="0.25617" d="M1988.78,-191.359C1985.65,-190.924 1982.53,-190.515 1979.5,-190.149 1791.74,-167.481 1738.35,-202.469 1555.5,-154.149 1506.79,-141.276 1454.63,-114.85 1422.28,-96.7958"/>
<polygon fill="green" stroke="green" stroke-width="0.25617" points="1423.73,-93.5953 1413.31,-91.7151 1420.29,-99.6871 1423.73,-93.5953"/>
</g>
<!-- wallRadar[0.7,0.7]&#45;&gt;Turn left/right -->
<g id="edge18" class="edge"><title>wallRadar[0.7,0.7]&#45;&gt;Turn left/right</title>
<path fill="none" stroke="red" stroke-width="0.501762" d="M2002.36,-190.084C1933.65,-170.394 1756.37,-119.591 1666.09,-93.7178"/>
<polygon fill="red" stroke="red" stroke-width="0.501762" points="1666.89,-90.3064 1656.31,-90.9161 1664.96,-97.0356 1666.89,-90.3064"/>
</g>
<!-- wallRadar[&#45;0.7,0.7] -->
<g id="node6" class="node"><title>wallRadar[&#45;0.7,0.7]</title>
<polygon fill="lightgray" stroke="black" points="1488.5,-208.149 1402.5,-208.149 1402.5,-190.149 1488.5,-190.149 1488.5,-208.149"/>
<text text-anchor="middle" x="1445.5" y="-196.949" font-family="Times,serif" font-size="9.00">wallRadar[&#45;0.7,0.7]</text>
</g>
<!-- wallRadar[&#45;0.7,0.7]&#45;&gt;Shoot -->
<g id="edge52" class="edge"><title>wallRadar[&#45;0.7,0.7]&#45;&gt;Shoot</title>
<path fill="none" stroke="red" stroke-width="0.394923" d="M1441.72,-189.896C1434.41,-173.946 1417.99,-138.096 1405.7,-111.261"/>
<polygon fill="red" stroke="red" stroke-width="0.394923" points="1408.73,-109.47 1401.38,-101.836 1402.37,-112.385 1408.73,-109.47"/>
</g>
<!-- wallRadar[&#45;0.7,0.7]&#45;&gt;Move Forward/Backward -->
<g id="edge49" class="edge"><title>wallRadar[&#45;0.7,0.7]&#45;&gt;Move Forward/Backward</title>
<path fill="none" stroke="red" stroke-width="0.279695" d="M1403.32,-190.084C1301.3,-170.578 1039.58,-120.537 903.139,-94.4489"/>
<polygon fill="red" stroke="red" stroke-width="0.279695" points="903.614,-90.9765 893.135,-92.5362 902.3,-97.852 903.614,-90.9765"/>
</g>
<!-- wallRadar[&#45;0.7,0.7]&#45;&gt; Move Left/Right -->
<g id="edge20" class="edge"><title>wallRadar[&#45;0.7,0.7]&#45;&gt; Move Left/Right</title>
<path fill="none" stroke="green" stroke-width="0.189143" d="M1402.45,-191.299C1399.08,-190.872 1395.74,-190.481 1392.5,-190.149 1246.16,-175.154 871.166,-200.343 731.5,-154.149 708.436,-146.521 685.586,-132.986 666.405,-119.426"/>
<polygon fill="green" stroke="green" stroke-width="0.189143" points="668.289,-116.469 658.141,-113.423 664.175,-122.132 668.289,-116.469"/>
</g>
<!-- wallRadar[&#45;0.7,0.7]&#45;&gt;Turn left/right -->
<g id="edge3" class="edge"><title>wallRadar[&#45;0.7,0.7]&#45;&gt;Turn left/right</title>
<path fill="none" stroke="red" stroke-width="0.291597" d="M1456.65,-190.084C1478.61,-174.197 1528.58,-138.052 1565.85,-111.093"/>
<polygon fill="red" stroke="red" stroke-width="0.291597" points="1568.02,-113.843 1574.07,-105.146 1563.92,-108.171 1568.02,-113.843"/>
</g>
<!-- wallRadar[&#45;0.7,&#45;0.7] -->
<g id="node7" class="node"><title>wallRadar[&#45;0.7,&#45;0.7]</title>
<polygon fill="lightgray" stroke="black" points="1596,-208.149 1507,-208.149 1507,-190.149 1596,-190.149 1596,-208.149"/>
<text text-anchor="middle" x="1551.5" y="-196.949" font-family="Times,serif" font-size="9.00">wallRadar[&#45;0.7,&#45;0.7]</text>
</g>
<!-- wallRadar[&#45;0.7,&#45;0.7]&#45;&gt;Shoot -->
<g id="edge21" class="edge"><title>wallRadar[&#45;0.7,&#45;0.7]&#45;&gt;Shoot</title>
<path fill="none" stroke="red" stroke-width="0.29898" d="M1540.69,-190.084C1516.27,-171.878 1456.2,-127.072 1419.86,-99.9682"/>
<polygon fill="red" stroke="red" stroke-width="0.29898" points="1421.71,-96.9866 1411.6,-93.8137 1417.53,-102.598 1421.71,-96.9866"/>
</g>
<!-- wallRadar[&#45;0.7,&#45;0.7]&#45;&gt; Move Left/Right -->
<g id="edge36" class="edge"><title>wallRadar[&#45;0.7,&#45;0.7]&#45;&gt; Move Left/Right</title>
<path fill="none" stroke="green" stroke-width="0.192721" d="M1506.75,-191.168C1503.63,-190.788 1500.52,-190.443 1497.5,-190.149 1327.89,-173.642 893.489,-207.058 731.5,-154.149 708.407,-146.607 685.551,-133.089 666.374,-119.519"/>
<polygon fill="green" stroke="green" stroke-width="0.192721" points="668.258,-116.562 658.113,-113.511 664.141,-122.224 668.258,-116.562"/>
</g>
<!-- wallRadar[&#45;0.7,&#45;0.7]&#45;&gt;Turn left/right -->
<g id="edge40" class="edge"><title>wallRadar[&#45;0.7,&#45;0.7]&#45;&gt;Turn left/right</title>
<path fill="none" stroke="green" stroke-width="0.405968" d="M1555.62,-189.896C1561.98,-177.173 1574.67,-151.788 1586.34,-128.417"/>
<polygon fill="green" stroke="green" stroke-width="0.405968" points="1589.59,-129.76 1590.92,-119.251 1583.32,-126.631 1589.59,-129.76"/>
</g>
<!-- wallRadar[0.7,&#45;0.7] -->
<g id="node8" class="node"><title>wallRadar[0.7,&#45;0.7]</title>
<polygon fill="lightgray" stroke="black" points="1970.5,-208.149 1884.5,-208.149 1884.5,-190.149 1970.5,-190.149 1970.5,-208.149"/>
<text text-anchor="middle" x="1927.5" y="-196.949" font-family="Times,serif" font-size="9.00">wallRadar[0.7,&#45;0.7]</text>
</g>
<!-- wallRadar[0.7,&#45;0.7]&#45;&gt;Shoot -->
<g id="edge14" class="edge"><title>wallRadar[0.7,&#45;0.7]&#45;&gt;Shoot</title>
<path fill="none" stroke="red" stroke-width="0.320344" d="M1884.39,-191.379C1881.38,-190.949 1878.4,-190.535 1875.5,-190.149 1733.63,-171.264 1693.36,-192.602 1555.5,-154.149 1506.97,-140.612 1454.76,-114.35 1422.36,-96.514"/>
<polygon fill="red" stroke="red" stroke-width="0.320344" points="1423.81,-93.3124 1413.37,-91.4985 1420.4,-99.426 1423.81,-93.3124"/>
</g>
<!-- wallRadar[0.7,&#45;0.7]&#45;&gt;Move Forward/Backward -->
<g id="edge7" class="edge"><title>wallRadar[0.7,&#45;0.7]&#45;&gt;Move Forward/Backward</title>
<path fill="none" stroke="red" stroke-width="0.139017" d="M1884.41,-191.235C1881.4,-190.84 1878.4,-190.473 1875.5,-190.149 1644.82,-164.48 1585.33,-178.443 1354.5,-154.149 1194.84,-137.346 1009.65,-109.18 903.76,-92.2407"/>
<polygon fill="red" stroke="red" stroke-width="0.139017" points="904.192,-88.7653 893.764,-90.6372 903.083,-95.6769 904.192,-88.7653"/>
</g>
<!-- wallRadar[0.7,&#45;0.7]&#45;&gt;Turn left/right -->
<g id="edge30" class="edge"><title>wallRadar[0.7,&#45;0.7]&#45;&gt;Turn left/right</title>
<path fill="none" stroke="red" stroke-width="0.210576" d="M1906.28,-190.084C1857.31,-171.478 1735.23,-125.088 1664.48,-98.2062"/>
<polygon fill="red" stroke="red" stroke-width="0.210576" points="1665.44,-94.8278 1654.85,-94.5474 1662.96,-101.371 1665.44,-94.8278"/>
</g>
<!-- enemyRadar[RightBack] -->
<g id="node9" class="node"><title>enemyRadar[RightBack]</title>
<polygon fill="lightgray" stroke="black" points="2416.5,-208.149 2312.5,-208.149 2312.5,-190.149 2416.5,-190.149 2416.5,-208.149"/>
<text text-anchor="middle" x="2364.5" y="-196.949" font-family="Times,serif" font-size="9.00">enemyRadar[RightBack]</text>
</g>
<!-- enemyRadar[RightBack]&#45;&gt;Turn left/right -->
<g id="edge22" class="edge"><title>enemyRadar[RightBack]&#45;&gt;Turn left/right</title>
<path fill="none" stroke="red" stroke-width="0.17364" d="M2314.22,-190.131C2179.2,-168.602 1809.41,-109.634 1667.75,-87.044"/>
<polygon fill="red" stroke="red" stroke-width="0.17364" points="1667.97,-83.536 1657.55,-85.4175 1666.87,-90.4487 1667.97,-83.536"/>
</g>
<!-- enemyRadar[LeftBack] -->
<g id="node10" class="node"><title>enemyRadar[LeftBack]</title>
<polygon fill="lightgray" stroke="black" points="742,-208.149 643,-208.149 643,-190.149 742,-190.149 742,-208.149"/>
<text text-anchor="middle" x="692.5" y="-196.949" font-family="Times,serif" font-size="9.00">enemyRadar[LeftBack]</text>
</g>
<!-- enemyRadar[LeftBack]&#45;&gt;Move Forward/Backward -->
<g id="edge24" class="edge"><title>enemyRadar[LeftBack]&#45;&gt;Move Forward/Backward</title>
<path fill="none" stroke="green" stroke-width="0.255002" d="M701.092,-189.896C712.489,-178.947 733.648,-158.622 754.832,-138.273"/>
<polygon fill="green" stroke="green" stroke-width="0.255002" points="757.524,-140.541 762.311,-131.089 752.674,-135.493 757.524,-140.541"/>
</g>
<!-- enemyRadar[LeftBack]&#45;&gt; Move Left/Right -->
<g id="edge43" class="edge"><title>enemyRadar[LeftBack]&#45;&gt; Move Left/Right</title>
<path fill="none" stroke="red" stroke-width="0.258915" d="M687.276,-189.896C679.727,-177.968 665.133,-154.912 651.15,-132.819"/>
<polygon fill="red" stroke="red" stroke-width="0.258915" points="653.937,-130.678 645.631,-124.1 648.022,-134.422 653.937,-130.678"/>
</g>
<!-- enemyRadar[LeftBack]&#45;&gt;Turn left/right -->
<g id="edge9" class="edge"><title>enemyRadar[LeftBack]&#45;&gt;Turn left/right</title>
<path fill="none" stroke="green" stroke-width="0.220789" d="M742.041,-191.134C745.239,-190.773 748.413,-190.44 751.5,-190.149 1050.6,-161.943 1133.43,-220.212 1426.5,-154.149 1473.93,-143.459 1524.8,-121.712 1561.18,-104.197"/>
<polygon fill="green" stroke="green" stroke-width="0.220789" points="1563.12,-107.145 1570.57,-99.6138 1560.05,-100.854 1563.12,-107.145"/>
</g>
<!-- enemyRadar[Right45ø] -->
<g id="node11" class="node"><title>enemyRadar[Right45ø]</title>
<polygon fill="lightgray" stroke="black" points="487.5,-208.149 387.5,-208.149 387.5,-190.149 487.5,-190.149 487.5,-208.149"/>
<text text-anchor="middle" x="437.5" y="-196.949" font-family="Times,serif" font-size="9.00">enemyRadar[Right45ø]</text>
</g>
<!-- enemyRadar[Right45ø]&#45;&gt;Shoot -->
<g id="edge38" class="edge"><title>enemyRadar[Right45ø]&#45;&gt;Shoot</title>
<path fill="none" stroke="green" stroke-width="0.345504" d="M487.692,-191.182C490.671,-190.819 493.624,-190.471 496.5,-190.149 676.968,-169.944 723.246,-176.175 903.5,-154.149 1072.59,-133.488 1273.18,-98.9606 1354.04,-84.6241"/>
<polygon fill="green" stroke="green" stroke-width="0.345504" points="1354.96,-88.0152 1364.19,-82.8182 1353.73,-81.1234 1354.96,-88.0152"/>
</g>
<!-- enemyRadar[Right45ø]&#45;&gt;Move Forward/Backward -->
<g id="edge11" class="edge"><title>enemyRadar[Right45ø]&#45;&gt;Move Forward/Backward</title>
<path fill="none" stroke="green" stroke-width="0.229131" d="M487.604,-191.052C548.019,-182.15 645.777,-166.55 680.5,-154.149 702.037,-146.458 724.202,-135.615 744.26,-124.52"/>
<polygon fill="green" stroke="green" stroke-width="0.229131" points="746.022,-127.544 753.017,-119.587 742.586,-121.445 746.022,-127.544"/>
</g>
<!-- enemyRadar[Right45ø]&#45;&gt; Move Left/Right -->
<g id="edge4" class="edge"><title>enemyRadar[Right45ø]&#45;&gt; Move Left/Right</title>
<path fill="none" stroke="red" stroke-width="0.223405" d="M449.523,-190.084C472.187,-174.881 522.503,-141.129 562.012,-114.626"/>
<polygon fill="red" stroke="red" stroke-width="0.223405" points="564.419,-117.225 570.774,-108.748 560.52,-111.412 564.419,-117.225"/>
</g>
<!-- enemyRadar[Left45ø] -->
<g id="node12" class="node"><title>enemyRadar[Left45ø]</title>
<polygon fill="lightgray" stroke="black" points="1384,-208.149 1289,-208.149 1289,-190.149 1384,-190.149 1384,-208.149"/>
<text text-anchor="middle" x="1336.5" y="-196.949" font-family="Times,serif" font-size="9.00">enemyRadar[Left45ø]</text>
</g>
<!-- enemyRadar[Left45ø]&#45;&gt;Shoot -->
<g id="edge26" class="edge"><title>enemyRadar[Left45ø]&#45;&gt;Shoot</title>
<path fill="none" stroke="red" stroke-width="0.198298" d="M1340.21,-189.896C1347.38,-173.946 1363.51,-138.096 1375.58,-111.261"/>
<polygon fill="red" stroke="red" stroke-width="0.198298" points="1378.9,-112.391 1379.81,-101.836 1372.52,-109.52 1378.9,-112.391"/>
</g>
<!-- enemyRadar[Left45ø]&#45;&gt;Move Forward/Backward -->
<g id="edge10" class="edge"><title>enemyRadar[Left45ø]&#45;&gt;Move Forward/Backward</title>
<path fill="none" stroke="green" stroke-width="0.220623" d="M1301.64,-190.084C1220.7,-171.359 1018.14,-124.493 902.295,-97.6926"/>
<polygon fill="green" stroke="green" stroke-width="0.220623" points="902.924,-94.2457 892.392,-95.4015 901.346,-101.066 902.924,-94.2457"/>
</g>
<!-- enemyRadar[RightFront20ø] -->
<g id="node13" class="node"><title>enemyRadar[RightFront20ø]</title>
<polygon fill="lightgray" stroke="black" points="1866,-208.149 1747,-208.149 1747,-190.149 1866,-190.149 1866,-208.149"/>
<text text-anchor="middle" x="1806.5" y="-196.949" font-family="Times,serif" font-size="9.00">enemyRadar[RightFront20ø]</text>
</g>
<!-- enemyRadar[RightFront20ø]&#45;&gt;Shoot -->
<g id="edge42" class="edge"><title>enemyRadar[RightFront20ø]&#45;&gt;Shoot</title>
<path fill="none" stroke="red" stroke-width="0.271162" d="M1751.04,-190.137C1688.56,-180.809 1591.08,-165.263 1555.5,-154.149 1507.41,-139.126 1455.09,-113.233 1422.55,-95.8836"/>
<polygon fill="red" stroke="red" stroke-width="0.271162" points="1423.97,-92.6768 1413.51,-91.0142 1420.65,-98.8391 1423.97,-92.6768"/>
</g>
<!-- enemyRadar[LeftFront20ø] -->
<g id="node14" class="node"><title>enemyRadar[LeftFront20ø]</title>
<polygon fill="lightgray" stroke="black" points="874.5,-208.149 760.5,-208.149 760.5,-190.149 874.5,-190.149 874.5,-208.149"/>
<text text-anchor="middle" x="817.5" y="-196.949" font-family="Times,serif" font-size="9.00">enemyRadar[LeftFront20ø]</text>
</g>
<!-- enemyRadar[LeftFront20ø]&#45;&gt;Move Forward/Backward -->
<g id="edge5" class="edge"><title>enemyRadar[LeftFront20ø]&#45;&gt;Move Forward/Backward</title>
<path fill="none" stroke="green" stroke-width="0.179276" d="M817.5,-189.896C817.5,-183.793 817.5,-174.776 817.5,-164.466"/>
<polygon fill="green" stroke="green" stroke-width="0.179276" points="821,-164.237 817.5,-154.237 814,-164.237 821,-164.237"/>
</g>
<!-- enemyRadar[LeftFront20ø]&#45;&gt; Move Left/Right -->
<g id="edge51" class="edge"><title>enemyRadar[LeftFront20ø]&#45;&gt; Move Left/Right</title>
<path fill="none" stroke="green" stroke-width="0.163407" d="M800.393,-190.095C782.819,-181.66 754.815,-167.768 731.5,-154.149 710.883,-142.106 688.875,-127.9 669.689,-115.044"/>
<polygon fill="green" stroke="green" stroke-width="0.163407" points="671.619,-112.124 661.371,-109.436 667.706,-117.928 671.619,-112.124"/>
</g>
<!-- enemyRadar[LeftFront20ø]&#45;&gt;Turn left/right -->
<g id="edge39" class="edge"><title>enemyRadar[LeftFront20ø]&#45;&gt;Turn left/right</title>
<path fill="none" stroke="green" stroke-width="0.469565" d="M874.717,-191.021C877.686,-190.711 880.627,-190.418 883.5,-190.149 1124.31,-167.589 1190.91,-208.857 1426.5,-154.149 1473.86,-143.153 1524.74,-121.434 1561.13,-104.008"/>
<polygon fill="green" stroke="green" stroke-width="0.469565" points="1563.06,-106.964 1570.53,-99.4503 1560,-100.666 1563.06,-106.964"/>
</g>
<!-- enemyRadar[RightFront15ø] -->
<g id="node15" class="node"><title>enemyRadar[RightFront15ø]</title>
<polygon fill="lightgray" stroke="black" points="625,-208.149 506,-208.149 506,-190.149 625,-190.149 625,-208.149"/>
<text text-anchor="middle" x="565.5" y="-196.949" font-family="Times,serif" font-size="9.00">enemyRadar[RightFront15ø]</text>
</g>
<!-- enemyRadar[RightFront15ø]&#45;&gt;Shoot -->
<g id="edge29" class="edge"><title>enemyRadar[RightFront15ø]&#45;&gt;Shoot</title>
<path fill="none" stroke="red" stroke-width="0.306559" d="M625.092,-190.858C692.668,-182.482 806.113,-168.092 903.5,-154.149 1072.13,-130.007 1272.97,-97.4122 1353.97,-84.1075"/>
<polygon fill="red" stroke="red" stroke-width="0.306559" points="1354.84,-87.5112 1364.14,-82.4346 1353.7,-80.604 1354.84,-87.5112"/>
</g>
<!-- enemyRadar[RightFront15ø]&#45;&gt;Move Forward/Backward -->
<g id="edge2" class="edge"><title>enemyRadar[RightFront15ø]&#45;&gt;Move Forward/Backward</title>
<path fill="none" stroke="green" stroke-width="0.136609" d="M589.697,-190.015C613.256,-181.834 649.887,-168.418 680.5,-154.149 701.121,-144.538 722.888,-133.088 742.853,-122.027"/>
<polygon fill="green" stroke="green" stroke-width="0.136609" points="744.564,-125.08 751.589,-117.149 741.151,-118.969 744.564,-125.08"/>
</g>
<!-- enemyRadar[RightFront15ø]&#45;&gt; Move Left/Right -->
<g id="edge33" class="edge"><title>enemyRadar[RightFront15ø]&#45;&gt; Move Left/Right</title>
<path fill="none" stroke="green" stroke-width="0.102282" d="M569.005,-189.896C573.709,-178.823 582.486,-158.158 591.227,-137.577"/>
<polygon fill="green" stroke="green" stroke-width="0.102282" points="594.538,-138.734 595.226,-128.162 588.095,-135.997 594.538,-138.734"/>
</g>
<!-- enemyRadar[LeftFront15ø] -->
<g id="node16" class="node"><title>enemyRadar[LeftFront15ø]</title>
<polygon fill="lightgray" stroke="black" points="1728.5,-208.149 1614.5,-208.149 1614.5,-190.149 1728.5,-190.149 1728.5,-208.149"/>
<text text-anchor="middle" x="1671.5" y="-196.949" font-family="Times,serif" font-size="9.00">enemyRadar[LeftFront15ø]</text>
</g>
<!-- enemyRadar[LeftFront15ø]&#45;&gt;Move Forward/Backward -->
<g id="edge46" class="edge"><title>enemyRadar[LeftFront15ø]&#45;&gt;Move Forward/Backward</title>
<path fill="none" stroke="green" stroke-width="0.2961" d="M1614.23,-190.249C1550.73,-181.479 1445.29,-166.881 1354.5,-154.149 1195.51,-131.854 1010.1,-105.512 903.986,-90.4029"/>
<polygon fill="green" stroke="green" stroke-width="0.2961" points="904.361,-86.9212 893.968,-88.9764 903.374,-93.8513 904.361,-86.9212"/>
</g>
<!-- enemyRadar[LeftFront15ø]&#45;&gt;Turn left/right -->
<g id="edge41" class="edge"><title>enemyRadar[LeftFront15ø]&#45;&gt;Turn left/right</title>
<path fill="none" stroke="red" stroke-width="0.19633" d="M1667.38,-189.896C1661.02,-177.173 1648.33,-151.788 1636.66,-128.417"/>
<polygon fill="red" stroke="red" stroke-width="0.19633" points="1639.68,-126.631 1632.08,-119.251 1633.41,-129.76 1639.68,-126.631"/>
</g>
<!-- enemyRadar[RightFront7.5ø] -->
<g id="node17" class="node"><title>enemyRadar[RightFront7.5ø]</title>
<polygon fill="lightgray" stroke="black" points="1014.5,-208.149 892.5,-208.149 892.5,-190.149 1014.5,-190.149 1014.5,-208.149"/>
<text text-anchor="middle" x="953.5" y="-196.949" font-family="Times,serif" font-size="9.00">enemyRadar[RightFront7.5ø]</text>
</g>
<!-- enemyRadar[RightFront7.5ø]&#45;&gt;Move Forward/Backward -->
<g id="edge32" class="edge"><title>enemyRadar[RightFront7.5ø]&#45;&gt;Move Forward/Backward</title>
<path fill="none" stroke="red" stroke-width="0.153388" d="M944.152,-189.896C931.21,-178.469 906.7,-156.829 882.664,-135.608"/>
<polygon fill="red" stroke="red" stroke-width="0.153388" points="884.704,-132.74 874.891,-128.746 880.071,-137.988 884.704,-132.74"/>
</g>
<!-- enemyRadar[RightFront7.5ø]&#45;&gt; Move Left/Right -->
<g id="edge28" class="edge"><title>enemyRadar[RightFront7.5ø]&#45;&gt; Move Left/Right</title>
<path fill="none" stroke="red" stroke-width="0.361153" d="M900.906,-190.135C845.291,-181.235 761.526,-166.493 731.5,-154.149 709.224,-144.992 686.695,-131.282 667.552,-118.012"/>
<polygon fill="red" stroke="red" stroke-width="0.361153" points="669.473,-115.084 659.288,-112.166 665.431,-120.799 669.473,-115.084"/>
</g>
<!-- enemyRadar[RightFront7.5ø]&#45;&gt;Turn left/right -->
<g id="edge54" class="edge"><title>enemyRadar[RightFront7.5ø]&#45;&gt;Turn left/right</title>
<path fill="none" stroke="green" stroke-width="0.232601" d="M1014.57,-191.08C1017.59,-190.758 1020.58,-190.447 1023.5,-190.149 1202.4,-171.939 1251.81,-196.827 1426.5,-154.149 1473.57,-142.649 1524.29,-121.086 1560.7,-103.845"/>
<polygon fill="green" stroke="green" stroke-width="0.232601" points="1562.59,-106.816 1570.1,-99.3367 1559.57,-100.503 1562.59,-106.816"/>
</g>
<!-- enemyRadar[LeftFront7.5ø] -->
<g id="node18" class="node"><title>enemyRadar[LeftFront7.5ø]</title>
<polygon fill="lightgray" stroke="black" points="2206.5,-208.149 2090.5,-208.149 2090.5,-190.149 2206.5,-190.149 2206.5,-208.149"/>
<text text-anchor="middle" x="2148.5" y="-196.949" font-family="Times,serif" font-size="9.00">enemyRadar[LeftFront7.5ø]</text>
</g>
<!-- enemyRadar[LeftFront7.5ø]&#45;&gt;Shoot -->
<g id="edge47" class="edge"><title>enemyRadar[LeftFront7.5ø]&#45;&gt;Shoot</title>
<path fill="none" stroke="green" stroke-width="0.502551" d="M2090.41,-191.032C2087.4,-190.719 2084.42,-190.423 2081.5,-190.149 1848.2,-168.251 1782.53,-212.161 1555.5,-154.149 1506.68,-141.675 1454.55,-115.15 1422.24,-96.9651"/>
<polygon fill="green" stroke="green" stroke-width="0.502551" points="1423.69,-93.7649 1413.27,-91.8451 1420.22,-99.8436 1423.69,-93.7649"/>
</g>
<!-- enemyRadar[LeftFront7.5ø]&#45;&gt;Turn left/right -->
<g id="edge53" class="edge"><title>enemyRadar[LeftFront7.5ø]&#45;&gt;Turn left/right</title>
<path fill="none" stroke="green" stroke-width="0.240114" d="M2112.43,-190.084C2020.53,-169.535 1777.08,-115.099 1666.97,-90.4783"/>
<polygon fill="green" stroke="green" stroke-width="0.240114" points="1667.58,-87.0281 1657.06,-88.2616 1666.05,-93.8594 1667.58,-87.0281"/>
</g>
<!-- enemyRadar[RightFront2.5ø] -->
<g id="node19" class="node"><title>enemyRadar[RightFront2.5ø]</title>
<polygon fill="lightgray" stroke="black" points="1154.5,-208.149 1032.5,-208.149 1032.5,-190.149 1154.5,-190.149 1154.5,-208.149"/>
<text text-anchor="middle" x="1093.5" y="-196.949" font-family="Times,serif" font-size="9.00">enemyRadar[RightFront2.5ø]</text>
</g>
<!-- enemyRadar[RightFront2.5ø]&#45;&gt;Move Forward/Backward -->
<g id="edge34" class="edge"><title>enemyRadar[RightFront2.5ø]&#45;&gt;Move Forward/Backward</title>
<path fill="none" stroke="red" stroke-width="0.162309" d="M1074.96,-190.084C1039.21,-174.53 958.826,-139.559 897.319,-112.8"/>
<polygon fill="red" stroke="red" stroke-width="0.162309" points="898.571,-109.528 888.005,-108.748 895.778,-115.947 898.571,-109.528"/>
</g>
<!-- enemyRadar[RightFront2.5ø]&#45;&gt; Move Left/Right -->
<g id="edge35" class="edge"><title>enemyRadar[RightFront2.5ø]&#45;&gt; Move Left/Right</title>
<path fill="none" stroke="red" stroke-width="0.181265" d="M1032.33,-191.076C930.949,-179.304 738.49,-156.722 731.5,-154.149 708.8,-145.794 686.103,-132.182 666.943,-118.765"/>
<polygon fill="red" stroke="red" stroke-width="0.181265" points="668.847,-115.823 658.681,-112.839 664.767,-121.512 668.847,-115.823"/>
</g>
<!-- enemyRadar[RightFront2.5ø]&#45;&gt;Turn left/right -->
<g id="edge44" class="edge"><title>enemyRadar[RightFront2.5ø]&#45;&gt;Turn left/right</title>
<path fill="none" stroke="red" stroke-width="0.116481" d="M1154.83,-190.916C1243.8,-180.29 1400.9,-160.98 1426.5,-154.149 1473.32,-141.657 1524.06,-120.183 1560.54,-103.229"/>
<polygon fill="red" stroke="red" stroke-width="0.116481" points="1562.4,-106.221 1569.96,-98.8014 1559.42,-99.8852 1562.4,-106.221"/>
</g>
<!-- enemyRadar[LeftFront2.5ø] -->
<g id="node20" class="node"><title>enemyRadar[LeftFront2.5ø]</title>
<polygon fill="lightgray" stroke="black" points="2550.5,-208.149 2434.5,-208.149 2434.5,-190.149 2550.5,-190.149 2550.5,-208.149"/>
<text text-anchor="middle" x="2492.5" y="-196.949" font-family="Times,serif" font-size="9.00">enemyRadar[LeftFront2.5ø]</text>
</g>
<!-- enemyRadar[LeftFront2.5ø]&#45;&gt;Turn left/right -->
<g id="edge27" class="edge"><title>enemyRadar[LeftFront2.5ø]&#45;&gt;Turn left/right</title>
<path fill="none" stroke="red" stroke-width="0.176453" d="M2434.35,-190.224C2273.81,-168.343 1825.84,-107.287 1667.67,-85.7308"/>
<polygon fill="red" stroke="red" stroke-width="0.176453" points="1668.06,-82.2514 1657.68,-84.3688 1667.12,-89.1873 1668.06,-82.2514"/>
</g>
<!-- enemyRadar[Front7Ø] -->
<g id="node21" class="node"><title>enemyRadar[Front7Ø]</title>
<polygon fill="lightgray" stroke="black" points="1270.5,-208.149 1172.5,-208.149 1172.5,-190.149 1270.5,-190.149 1270.5,-208.149"/>
<text text-anchor="middle" x="1221.5" y="-196.949" font-family="Times,serif" font-size="9.00">enemyRadar[Front7Ø]</text>
</g>
<!-- enemyRadar[Front7Ø]&#45;&gt;Shoot -->
<g id="edge6" class="edge"><title>enemyRadar[Front7Ø]&#45;&gt;Shoot</title>
<path fill="none" stroke="green" stroke-width="0.422528" d="M1232.85,-190.084C1258.72,-171.704 1322.75,-126.21 1360.78,-99.1933"/>
<polygon fill="green" stroke="green" stroke-width="0.422528" points="1362.81,-102.045 1368.93,-93.4003 1358.75,-96.3391 1362.81,-102.045"/>
</g>
<!-- enemyRadar[Front7Ø]&#45;&gt;Move Forward/Backward -->
<g id="edge45" class="edge"><title>enemyRadar[Front7Ø]&#45;&gt;Move Forward/Backward</title>
<path fill="none" stroke="red" stroke-width="0.344355" d="M1194.37,-190.084C1135.3,-172.53 993.043,-130.248 901.187,-102.948"/>
<polygon fill="red" stroke="red" stroke-width="0.344355" points="901.937,-99.5191 891.354,-100.025 899.942,-106.229 901.937,-99.5191"/>
</g>
<!-- enemyRadar[Front7Ø]&#45;&gt; Move Left/Right -->
<g id="edge25" class="edge"><title>enemyRadar[Front7Ø]&#45;&gt; Move Left/Right</title>
<path fill="none" stroke="red" stroke-width="0.209109" d="M1172.48,-191.198C1169.44,-190.826 1166.43,-190.473 1163.5,-190.149 972.001,-168.979 913.532,-217.271 731.5,-154.149 708.646,-146.224 685.917,-132.703 666.774,-119.238"/>
<polygon fill="red" stroke="red" stroke-width="0.209109" points="668.68,-116.297 658.523,-113.283 664.583,-121.973 668.68,-116.297"/>
</g>
<!-- enemyRadar[Front7Ø]&#45;&gt;Turn left/right -->
<g id="edge37" class="edge"><title>enemyRadar[Front7Ø]&#45;&gt;Turn left/right</title>
<path fill="none" stroke="green" stroke-width="0.156474" d="M1270.59,-190.16C1312.52,-182.734 1374.18,-170.38 1426.5,-154.149 1472.78,-139.793 1523.57,-118.487 1560.2,-102.071"/>
<polygon fill="green" stroke="green" stroke-width="0.156474" points="1562,-105.101 1569.67,-97.7963 1559.12,-98.7215 1562,-105.101"/>
</g>
<!-- OnTarget -->
<g id="node22" class="node"><title>OnTarget</title>
<polygon fill="lightgray" stroke="black" points="281.5,-208.149 231.5,-208.149 231.5,-190.149 281.5,-190.149 281.5,-208.149"/>
<text text-anchor="middle" x="256.5" y="-196.949" font-family="Times,serif" font-size="9.00">OnTarget</text>
</g>
<!-- OnTarget&#45;&gt;Shoot -->
<g id="edge55" class="edge"><title>OnTarget&#45;&gt;Shoot</title>
<path fill="none" stroke="red" stroke-width="0.201971" d="M281.658,-191.72C284.624,-191.113 287.62,-190.569 290.5,-190.149 560.555,-150.749 632.141,-183.244 903.5,-154.149 1072.87,-135.989 1273.3,-100.073 1354.08,-84.9953"/>
<polygon fill="red" stroke="red" stroke-width="0.201971" points="1355.04,-88.3766 1364.22,-83.0939 1353.75,-81.4964 1355.04,-88.3766"/>
</g>
<!-- OnTarget&#45;&gt;Move Forward/Backward -->
<g id="edge16" class="edge"><title>OnTarget&#45;&gt;Move Forward/Backward</title>
<path fill="none" stroke="green" stroke-width="0.226292" d="M281.673,-191.815C284.636,-191.191 287.627,-190.618 290.5,-190.149 462.303,-162.147 514.177,-205.503 680.5,-154.149 702.465,-147.368 724.855,-136.775 744.997,-125.626"/>
<polygon fill="green" stroke="green" stroke-width="0.226292" points="746.806,-128.624 753.782,-120.65 743.356,-122.533 746.806,-128.624"/>
</g>
<!-- OnTarget&#45;&gt; Move Left/Right -->
<g id="edge48" class="edge"><title>OnTarget&#45;&gt; Move Left/Right</title>
<path fill="none" stroke="red" stroke-width="0.200424" d="M280.68,-190.084C336.125,-171.591 473.857,-125.652 554.665,-98.6991"/>
<polygon fill="red" stroke="red" stroke-width="0.200424" points="555.849,-101.994 564.228,-95.5094 553.634,-95.3534 555.849,-101.994"/>
</g>
<!-- bias -->
<g id="node23" class="node"><title>bias</title>
<polygon fill="lightgray" stroke="black" points="122,-208.149 91,-208.149 91,-190.149 122,-190.149 122,-208.149"/>
<text text-anchor="middle" x="106.5" y="-196.949" font-family="Times,serif" font-size="9.00">bias</text>
</g>
<!-- bias&#45;&gt;Move Forward/Backward -->
<g id="edge31" class="edge"><title>bias&#45;&gt;Move Forward/Backward</title>
<path fill="none" stroke="green" stroke-width="0.301277" d="M122.095,-192.312C124.862,-191.46 127.742,-190.69 130.5,-190.149 370.893,-143.03 445.492,-223.289 680.5,-154.149 702.553,-147.661 724.973,-137.168 745.116,-126.021"/>
<polygon fill="green" stroke="green" stroke-width="0.301277" points="746.928,-129.018 753.9,-121.04 743.475,-122.928 746.928,-129.018"/>
</g>
<!-- bias&#45;&gt; Move Left/Right -->
<g id="edge8" class="edge"><title>bias&#45;&gt; Move Left/Right</title>
<path fill="none" stroke="green" stroke-width="0.188564" d="M122.184,-192.684C124.941,-191.791 127.794,-190.91 130.5,-190.149 280.29,-148.016 459.263,-109.81 552.639,-90.7786"/>
<polygon fill="green" stroke="green" stroke-width="0.188564" points="553.397,-94.1962 562.5,-88.7753 552.003,-87.3364 553.397,-94.1962"/>
</g>
</g>
</svg>
