<?xml version="1.0" encoding="UTF-8" standalone="no"?>
<!DOCTYPE svg PUBLIC "-//W3C//DTD SVG 1.1//EN"
 "http://www.w3.org/Graphics/SVG/1.1/DTD/svg11.dtd">
<!-- Generated by graphviz version 2.38.0 (20140413.2041)
 -->
<!-- Title: %3 Pages: 1 -->
<svg width="2158pt" height="398pt"
 viewBox="0.00 0.00 2158.00 398.46" xmlns="http://www.w3.org/2000/svg" xmlns:xlink="http://www.w3.org/1999/xlink">
<g id="graph0" class="graph" transform="scale(1 1) rotate(0) translate(4 394.458)">
<title>%3</title>
<polygon fill="white" stroke="none" points="-4,4 -4,-394.458 2154,-394.458 2154,4 -4,4"/>
<!-- wallRadar[1,0] -->
<g id="node1" class="node"><title>wallRadar[1,0]</title>
<polygon fill="lightgray" stroke="black" points="70,-226.726 0,-226.726 0,-208.726 70,-208.726 70,-226.726"/>
<text text-anchor="middle" x="35" y="-215.526" font-family="Times,serif" font-size="9.00">wallRadar[1,0]</text>
</g>
<!-- Turn left/right -->
<g id="node27" class="node"><title>Turn left/right</title>
<ellipse fill="lightblue" stroke="black" cx="413" cy="-77.0746" rx="46.8387" ry="46.8387"/>
<text text-anchor="middle" x="413" y="-74.8746" font-family="Times,serif" font-size="9.00">Turn left/right</text>
</g>
<!-- wallRadar[1,0]&#45;&gt;Turn left/right -->
<g id="edge21" class="edge"><title>wallRadar[1,0]&#45;&gt;Turn left/right</title>
<path fill="none" stroke="green" stroke-width="0.358536" d="M46.9315,-208.534C55.5658,-202.854 67.662,-195.398 79,-190.149 173.766,-146.279 290.69,-111.075 358.065,-92.4909"/>
<polygon fill="green" stroke="green" stroke-width="0.358536" points="359.318,-95.7768 368.039,-89.7614 357.47,-89.0251 359.318,-95.7768"/>
</g>
<!-- wallRadar[0,1] -->
<g id="node2" class="node"><title>wallRadar[0,1]</title>
<polygon fill="lightgray" stroke="black" points="588,-226.726 518,-226.726 518,-208.726 588,-208.726 588,-226.726"/>
<text text-anchor="middle" x="553" y="-215.526" font-family="Times,serif" font-size="9.00">wallRadar[0,1]</text>
</g>
<!-- Shoot -->
<g id="node24" class="node"><title>Shoot</title>
<ellipse fill="lightblue" stroke="black" cx="1068" cy="-77.0746" rx="26.7407" ry="26.7407"/>
<text text-anchor="middle" x="1068" y="-74.8746" font-family="Times,serif" font-size="9.00">Shoot</text>
</g>
<!-- wallRadar[0,1]&#45;&gt;Shoot -->
<g id="edge19" class="edge"><title>wallRadar[0,1]&#45;&gt;Shoot</title>
<path fill="none" stroke="red" stroke-width="0.176622" d="M564.067,-208.712C572.671,-202.818 585.107,-195.017 597,-190.149 751.665,-126.846 950.191,-94.2698 1031.16,-82.876"/>
<polygon fill="red" stroke="red" stroke-width="0.176622" points="1031.91,-86.3052 1041.34,-81.4686 1030.95,-79.3712 1031.91,-86.3052"/>
</g>
<!-- wallRadar[0,1]&#45;&gt;Turn left/right -->
<g id="edge24" class="edge"><title>wallRadar[0,1]&#45;&gt;Turn left/right</title>
<path fill="none" stroke="green" stroke-width="0.586745" d="M544.662,-208.468C527.059,-191.035 485.108,-149.488 453.253,-117.94"/>
<polygon fill="green" stroke="green" stroke-width="0.586745" points="455.373,-115.113 445.804,-110.563 450.447,-120.087 455.373,-115.113"/>
</g>
<!-- wallRadar[&#45;1,0] -->
<g id="node3" class="node"><title>wallRadar[&#45;1,0]</title>
<polygon fill="lightgray" stroke="black" points="1971.5,-226.726 1898.5,-226.726 1898.5,-208.726 1971.5,-208.726 1971.5,-226.726"/>
<text text-anchor="middle" x="1935" y="-215.526" font-family="Times,serif" font-size="9.00">wallRadar[&#45;1,0]</text>
</g>
<!--  Move Left/Right -->
<g id="node26" class="node"><title> Move Left/Right</title>
<ellipse fill="lightblue" stroke="black" cx="1935" cy="-77.0746" rx="55.3091" ry="55.3091"/>
<text text-anchor="middle" x="1935" y="-74.8746" font-family="Times,serif" font-size="9.00"> Move Left/Right</text>
</g>
<!-- wallRadar[&#45;1,0]&#45;&gt; Move Left/Right -->
<g id="edge23" class="edge"><title>wallRadar[&#45;1,0]&#45;&gt; Move Left/Right</title>
<path fill="none" stroke="red" stroke-width="0.346589" d="M1935,-208.468C1935,-195.344 1935,-168.553 1935,-142.651"/>
<polygon fill="red" stroke="red" stroke-width="0.346589" points="1938.5,-142.416 1935,-132.417 1931.5,-142.417 1938.5,-142.416"/>
</g>
<!-- wallRadar[0,&#45;1] -->
<g id="node4" class="node"><title>wallRadar[0,&#45;1]</title>
<polygon fill="lightgray" stroke="black" points="938.5,-226.726 865.5,-226.726 865.5,-208.726 938.5,-208.726 938.5,-226.726"/>
<text text-anchor="middle" x="902" y="-215.526" font-family="Times,serif" font-size="9.00">wallRadar[0,&#45;1]</text>
</g>
<!-- wallRadar[0,&#45;1]&#45;&gt;Shoot -->
<g id="edge5" class="edge"><title>wallRadar[0,&#45;1]&#45;&gt;Shoot</title>
<path fill="none" stroke="red" stroke-width="0.266378" d="M911.887,-208.468C936.61,-187.818 1001.84,-133.332 1039.7,-101.71"/>
<polygon fill="red" stroke="red" stroke-width="0.266378" points="1042.36,-104.049 1047.79,-94.9526 1037.87,-98.6769 1042.36,-104.049"/>
</g>
<!-- wallRadar[0.7,0.7] -->
<g id="node5" class="node"><title>wallRadar[0.7,0.7]</title>
<polygon fill="lightgray" stroke="black" points="1039.5,-226.726 956.5,-226.726 956.5,-208.726 1039.5,-208.726 1039.5,-226.726"/>
<text text-anchor="middle" x="998" y="-215.526" font-family="Times,serif" font-size="9.00">wallRadar[0.7,0.7]</text>
</g>
<!-- wallRadar[0.7,0.7]&#45;&gt;Shoot -->
<g id="edge33" class="edge"><title>wallRadar[0.7,0.7]&#45;&gt;Shoot</title>
<path fill="none" stroke="red" stroke-width="0.186142" d="M1002.17,-208.468C1011.68,-189.632 1035.4,-142.641 1051.61,-110.532"/>
<polygon fill="red" stroke="red" stroke-width="0.186142" points="1054.79,-112.004 1056.17,-101.499 1048.54,-108.849 1054.79,-112.004"/>
</g>
<!-- wallRadar[&#45;0.7,0.7] -->
<g id="node6" class="node"><title>wallRadar[&#45;0.7,0.7]</title>
<polygon fill="lightgray" stroke="black" points="1577,-226.726 1491,-226.726 1491,-208.726 1577,-208.726 1577,-226.726"/>
<text text-anchor="middle" x="1534" y="-215.526" font-family="Times,serif" font-size="9.00">wallRadar[&#45;0.7,0.7]</text>
</g>
<!-- Move Forward/Backward -->
<g id="node25" class="node"><title>Move Forward/Backward</title>
<ellipse fill="lightblue" stroke="black" cx="1534" cy="-77.0746" rx="77.1494" ry="77.1494"/>
<text text-anchor="middle" x="1534" y="-74.8746" font-family="Times,serif" font-size="9.00">Move Forward/Backward</text>
</g>
<!-- wallRadar[&#45;0.7,0.7]&#45;&gt;Move Forward/Backward -->
<g id="edge15" class="edge"><title>wallRadar[&#45;0.7,0.7]&#45;&gt;Move Forward/Backward</title>
<path fill="none" stroke="green" stroke-width="0.67351" stroke-dasharray="1,5" d="M1534,-208.468C1534,-199.073 1534,-182.674 1534,-164.611"/>
<polygon fill="green" stroke="green" stroke-width="0.67351" points="1537.5,-164.438 1534,-154.438 1530.5,-164.438 1537.5,-164.438"/>
</g>
<!-- wallRadar[&#45;0.7,&#45;0.7] -->
<g id="node7" class="node"><title>wallRadar[&#45;0.7,&#45;0.7]</title>
<polygon fill="lightgray" stroke="black" points="1317.5,-390.458 1228.5,-390.458 1228.5,-372.458 1317.5,-372.458 1317.5,-390.458"/>
<text text-anchor="middle" x="1273" y="-379.258" font-family="Times,serif" font-size="9.00">wallRadar[&#45;0.7,&#45;0.7]</text>
</g>
<!-- wallRadar[0.7,&#45;0.7] -->
<g id="node8" class="node"><title>wallRadar[0.7,&#45;0.7]</title>
<polygon fill="lightgray" stroke="black" points="174,-226.726 88,-226.726 88,-208.726 174,-208.726 174,-226.726"/>
<text text-anchor="middle" x="131" y="-215.526" font-family="Times,serif" font-size="9.00">wallRadar[0.7,&#45;0.7]</text>
</g>
<!-- wallRadar[0.7,&#45;0.7]&#45;&gt;Turn left/right -->
<g id="edge25" class="edge"><title>wallRadar[0.7,&#45;0.7]&#45;&gt;Turn left/right</title>
<path fill="none" stroke="red" stroke-width="0.228399" d="M147.38,-208.673C188.443,-188.483 297.117,-135.051 362.03,-103.135"/>
<polygon fill="red" stroke="red" stroke-width="0.228399" points="363.847,-106.142 371.277,-98.5888 360.758,-99.8603 363.847,-106.142"/>
</g>
<!-- enemyRadar[RightBack] -->
<g id="node9" class="node"><title>enemyRadar[RightBack]</title>
<polygon fill="lightgray" stroke="black" points="710,-226.726 606,-226.726 606,-208.726 710,-208.726 710,-226.726"/>
<text text-anchor="middle" x="658" y="-215.526" font-family="Times,serif" font-size="9.00">enemyRadar[RightBack]</text>
</g>
<!-- enemyRadar[RightBack]&#45;&gt;Shoot -->
<g id="edge7" class="edge"><title>enemyRadar[RightBack]&#45;&gt;Shoot</title>
<path fill="none" stroke="red" stroke-width="0.950156" stroke-dasharray="1,5" d="M675.164,-208.699C687.284,-203.166 703.977,-195.818 719,-190.149 831.801,-147.586 968.784,-106.64 1032.38,-88.2287"/>
<polygon fill="red" stroke="red" stroke-width="0.950156" points="1033.66,-91.5013 1042.3,-85.3669 1031.72,-84.7755 1033.66,-91.5013"/>
</g>
<!-- enemyRadar[RightBack]&#45;&gt;Move Forward/Backward -->
<g id="edge30" class="edge"><title>enemyRadar[RightBack]&#45;&gt;Move Forward/Backward</title>
<path fill="none" stroke="green" stroke-width="0.580919" d="M673.062,-208.552C685.123,-202.408 702.667,-194.356 719,-190.149 885.427,-147.288 933.687,-177.138 1104,-154.149 1224.15,-137.932 1361.98,-112.289 1448.53,-95.3258"/>
<polygon fill="green" stroke="green" stroke-width="0.580919" points="1449.42,-98.7165 1458.56,-93.3528 1448.07,-91.848 1449.42,-98.7165"/>
</g>
<!-- enemyRadar[RightBack]&#45;&gt;Turn left/right -->
<g id="edge6" class="edge"><title>enemyRadar[RightBack]&#45;&gt;Turn left/right</title>
<path fill="none" stroke="green" stroke-width="0.65424" d="M643.769,-208.673C609.161,-189.087 519.274,-138.218 462.443,-106.056"/>
<polygon fill="green" stroke="green" stroke-width="0.65424" points="464.046,-102.941 453.619,-101.062 460.598,-109.033 464.046,-102.941"/>
</g>
<!-- enemyRadar[LeftBack] -->
<g id="node10" class="node"><title>enemyRadar[LeftBack]</title>
<polygon fill="lightgray" stroke="black" points="1210.5,-390.458 1111.5,-390.458 1111.5,-372.458 1210.5,-372.458 1210.5,-390.458"/>
<text text-anchor="middle" x="1161" y="-379.258" font-family="Times,serif" font-size="9.00">enemyRadar[LeftBack]</text>
</g>
<!-- 13329 -->
<g id="node31" class="node"><title>13329</title>
<ellipse fill="white" stroke="black" cx="1161" cy="-308.881" rx="27.6545" ry="27.6545"/>
<text text-anchor="middle" x="1161" y="-306.681" font-family="Times,serif" font-size="9.00">13329</text>
</g>
<!-- enemyRadar[LeftBack]&#45;&gt;13329 -->
<g id="edge34" class="edge"><title>enemyRadar[LeftBack]&#45;&gt;13329</title>
<path fill="none" stroke="green" stroke-width="0.220903" d="M1161,-372.362C1161,-365.912 1161,-356.388 1161,-346.709"/>
<polygon fill="green" stroke="green" stroke-width="0.220903" points="1164.5,-346.689 1161,-336.689 1157.5,-346.689 1164.5,-346.689"/>
</g>
<!-- enemyRadar[Right45ø] -->
<g id="node11" class="node"><title>enemyRadar[Right45ø]</title>
<polygon fill="lightgray" stroke="black" points="1695,-226.726 1595,-226.726 1595,-208.726 1695,-208.726 1695,-226.726"/>
<text text-anchor="middle" x="1645" y="-215.526" font-family="Times,serif" font-size="9.00">enemyRadar[Right45ø]</text>
</g>
<!-- enemyRadar[Right45ø]&#45;&gt;Move Forward/Backward -->
<g id="edge10" class="edge"><title>enemyRadar[Right45ø]&#45;&gt;Move Forward/Backward</title>
<path fill="none" stroke="red" stroke-width="0.234044" d="M1638.39,-208.468C1628.32,-195.896 1608.22,-170.78 1588.31,-145.919"/>
<polygon fill="red" stroke="red" stroke-width="0.234044" points="1590.85,-143.491 1581.87,-137.872 1585.39,-147.866 1590.85,-143.491"/>
</g>
<!-- enemyRadar[Left45ø] -->
<g id="node12" class="node"><title>enemyRadar[Left45ø]</title>
<polygon fill="lightgray" stroke="black" points="1115.5,-317.881 1020.5,-317.881 1020.5,-299.881 1115.5,-299.881 1115.5,-317.881"/>
<text text-anchor="middle" x="1068" y="-306.681" font-family="Times,serif" font-size="9.00">enemyRadar[Left45ø]</text>
</g>
<!-- enemyRadar[Left45ø]&#45;&gt;Shoot -->
<g id="edge16" class="edge"><title>enemyRadar[Left45ø]&#45;&gt;Shoot</title>
<path fill="none" stroke="green" stroke-width="0.66385" stroke-dasharray="1,5" d="M1068,-299.702C1068,-270.332 1068,-169.03 1068,-114.126"/>
<polygon fill="green" stroke="green" stroke-width="0.66385" points="1071.5,-114.12 1068,-104.12 1064.5,-114.12 1071.5,-114.12"/>
</g>
<!-- enemyRadar[Left45ø]&#45;&gt; Move Left/Right -->
<g id="edge13" class="edge"><title>enemyRadar[Left45ø]&#45;&gt; Move Left/Right</title>
<path fill="none" stroke="red" stroke-width="0.711637" stroke-dasharray="1,5" d="M1081.24,-299.724C1092.24,-293.414 1108.54,-285.129 1124,-281.304 1216.52,-258.413 1915.04,-314.095 1981,-245.304 2010.2,-214.849 1993.65,-167.631 1972.69,-131.125"/>
<polygon fill="red" stroke="red" stroke-width="0.711637" points="1975.43,-128.879 1967.29,-122.092 1969.42,-132.471 1975.43,-128.879"/>
</g>
<!-- enemyRadar[Left45ø]&#45;&gt;Turn left/right -->
<g id="edge11" class="edge"><title>enemyRadar[Left45ø]&#45;&gt;Turn left/right</title>
<path fill="none" stroke="green" stroke-width="3.10758" d="M1020.29,-308.046C849.466,-308.148 275.596,-304.082 221,-245.304 166.441,-186.565 285.543,-127.124 359.635,-97.454"/>
<polygon fill="green" stroke="green" stroke-width="3.10758" points="361.3,-100.56 369.323,-93.6405 358.736,-94.0466 361.3,-100.56"/>
</g>
<!-- 12972 -->
<g id="node29" class="node"><title>12972</title>
<ellipse fill="white" stroke="black" cx="1124" cy="-217.726" rx="27.6545" ry="27.6545"/>
<text text-anchor="middle" x="1124" y="-215.526" font-family="Times,serif" font-size="9.00">12972</text>
</g>
<!-- enemyRadar[Left45ø]&#45;&gt;12972 -->
<g id="edge28" class="edge"><title>enemyRadar[Left45ø]&#45;&gt;12972</title>
<path fill="none" stroke="green" stroke-width="0.491462" d="M1073.17,-299.653C1080.18,-288.494 1093.09,-267.93 1104.15,-250.326"/>
<polygon fill="green" stroke="green" stroke-width="0.491462" points="1107.37,-251.784 1109.72,-241.455 1101.44,-248.061 1107.37,-251.784"/>
</g>
<!-- enemyRadar[RightFront20ø] -->
<g id="node13" class="node"><title>enemyRadar[RightFront20ø]</title>
<polygon fill="lightgray" stroke="black" points="847.5,-226.726 728.5,-226.726 728.5,-208.726 847.5,-208.726 847.5,-226.726"/>
<text text-anchor="middle" x="788" y="-215.526" font-family="Times,serif" font-size="9.00">enemyRadar[RightFront20ø]</text>
</g>
<!-- enemyRadar[RightFront20ø]&#45;&gt;Move Forward/Backward -->
<g id="edge27" class="edge"><title>enemyRadar[RightFront20ø]&#45;&gt;Move Forward/Backward</title>
<path fill="none" stroke="green" stroke-width="0.537796" d="M805.244,-208.718C818.775,-202.748 838.231,-194.845 856,-190.149 963.681,-161.692 994.039,-171.853 1104,-154.149 1223.7,-134.878 1361.65,-109.997 1448.33,-94.0355"/>
<polygon fill="green" stroke="green" stroke-width="0.537796" points="1449.19,-97.4375 1458.39,-92.1823 1447.92,-90.5535 1449.19,-97.4375"/>
</g>
<!-- enemyRadar[RightFront20ø]&#45;&gt;Turn left/right -->
<g id="edge8" class="edge"><title>enemyRadar[RightFront20ø]&#45;&gt;Turn left/right</title>
<path fill="none" stroke="red" stroke-width="1.02722" d="M767.2,-208.612C753.524,-203.302 735.223,-196.244 719,-190.149 630.521,-156.909 527.206,-119.324 466.099,-97.2205"/>
<polygon fill="red" stroke="red" stroke-width="1.02722" points="467.257,-93.9176 456.663,-93.8091 464.877,-100.501 467.257,-93.9176"/>
</g>
<!-- enemyRadar[LeftFront20ø] -->
<g id="node14" class="node"><title>enemyRadar[LeftFront20ø]</title>
<polygon fill="lightgray" stroke="black" points="1333,-226.726 1219,-226.726 1219,-208.726 1333,-208.726 1333,-226.726"/>
<text text-anchor="middle" x="1276" y="-215.526" font-family="Times,serif" font-size="9.00">enemyRadar[LeftFront20ø]</text>
</g>
<!-- enemyRadar[LeftFront20ø]&#45;&gt;Shoot -->
<g id="edge17" class="edge"><title>enemyRadar[LeftFront20ø]&#45;&gt;Shoot</title>
<path fill="none" stroke="red" stroke-width="0.232598" stroke-dasharray="1,5" d="M1263.92,-208.673C1232.07,-187.443 1145.08,-129.455 1098.46,-98.3788"/>
<polygon fill="red" stroke="red" stroke-width="0.232598" points="1100.24,-95.3571 1089.97,-92.7227 1096.35,-101.182 1100.24,-95.3571"/>
</g>
<!-- enemyRadar[LeftFront20ø]&#45;&gt; Move Left/Right -->
<g id="edge22" class="edge"><title>enemyRadar[LeftFront20ø]&#45;&gt; Move Left/Right</title>
<path fill="none" stroke="green" stroke-width="0.116899" stroke-dasharray="1,5" d="M1292.69,-208.626C1305.8,-202.606 1324.67,-194.681 1342,-190.149 1462.53,-158.626 1497.49,-176.806 1620,-154.149 1708.22,-137.834 1808.76,-112.325 1872.04,-95.4078"/>
<polygon fill="green" stroke="green" stroke-width="0.116899" points="1873.12,-98.7424 1881.87,-92.7692 1871.31,-91.9818 1873.12,-98.7424"/>
</g>
<!-- enemyRadar[RightFront15ø] -->
<g id="node15" class="node"><title>enemyRadar[RightFront15ø]</title>
<polygon fill="lightgray" stroke="black" points="1325.5,-317.881 1206.5,-317.881 1206.5,-299.881 1325.5,-299.881 1325.5,-317.881"/>
<text text-anchor="middle" x="1266" y="-306.681" font-family="Times,serif" font-size="9.00">enemyRadar[RightFront15ø]</text>
</g>
<!-- enemyRadar[RightFront15ø]&#45;&gt;12972 -->
<g id="edge37" class="edge"><title>enemyRadar[RightFront15ø]&#45;&gt;12972</title>
<path fill="none" stroke="green" stroke-width="0.152028" d="M1251.5,-299.76C1231.01,-288.175 1192.59,-266.01 1161,-245.304 1158.8,-243.862 1156.55,-242.347 1154.29,-240.801"/>
<polygon fill="green" stroke="green" stroke-width="0.152028" points="1155.9,-237.65 1145.7,-234.78 1151.88,-243.384 1155.9,-237.65"/>
</g>
<!-- enemyRadar[LeftFront15ø] -->
<g id="node16" class="node"><title>enemyRadar[LeftFront15ø]</title>
<polygon fill="lightgray" stroke="black" points="1450,-390.458 1336,-390.458 1336,-372.458 1450,-372.458 1450,-390.458"/>
<text text-anchor="middle" x="1393" y="-379.258" font-family="Times,serif" font-size="9.00">enemyRadar[LeftFront15ø]</text>
</g>
<!-- enemyRadar[RightFront7.5ø] -->
<g id="node17" class="node"><title>enemyRadar[RightFront7.5ø]</title>
<polygon fill="lightgray" stroke="black" points="2150,-226.726 2028,-226.726 2028,-208.726 2150,-208.726 2150,-226.726"/>
<text text-anchor="middle" x="2089" y="-215.526" font-family="Times,serif" font-size="9.00">enemyRadar[RightFront7.5ø]</text>
</g>
<!-- enemyRadar[RightFront7.5ø]&#45;&gt; Move Left/Right -->
<g id="edge20" class="edge"><title>enemyRadar[RightFront7.5ø]&#45;&gt; Move Left/Right</title>
<path fill="none" stroke="red" stroke-width="0.489979" d="M2079.83,-208.468C2061.23,-191.721 2017.9,-152.717 1983.46,-121.705"/>
<polygon fill="red" stroke="red" stroke-width="0.489979" points="1985.58,-118.908 1975.81,-114.818 1980.9,-124.111 1985.58,-118.908"/>
</g>
<!-- enemyRadar[LeftFront7.5ø] -->
<g id="node18" class="node"><title>enemyRadar[LeftFront7.5ø]</title>
<polygon fill="lightgray" stroke="black" points="346,-226.726 230,-226.726 230,-208.726 346,-208.726 346,-226.726"/>
<text text-anchor="middle" x="288" y="-215.526" font-family="Times,serif" font-size="9.00">enemyRadar[LeftFront7.5ø]</text>
</g>
<!-- enemyRadar[LeftFront7.5ø]&#45;&gt;Turn left/right -->
<g id="edge9" class="edge"><title>enemyRadar[LeftFront7.5ø]&#45;&gt;Turn left/right</title>
<path fill="none" stroke="green" stroke-width="0.24045" stroke-dasharray="1,5" d="M295.445,-208.468C310.805,-191.431 346.927,-151.363 375.108,-120.105"/>
<polygon fill="green" stroke="green" stroke-width="0.24045" points="377.987,-122.138 382.084,-112.368 372.788,-117.451 377.987,-122.138"/>
</g>
<!-- enemyRadar[RightFront2.5ø] -->
<g id="node19" class="node"><title>enemyRadar[RightFront2.5ø]</title>
<polygon fill="lightgray" stroke="black" points="1473,-226.726 1351,-226.726 1351,-208.726 1473,-208.726 1473,-226.726"/>
<text text-anchor="middle" x="1412" y="-215.526" font-family="Times,serif" font-size="9.00">enemyRadar[RightFront2.5ø]</text>
</g>
<!-- enemyRadar[RightFront2.5ø]&#45;&gt;Shoot -->
<g id="edge18" class="edge"><title>enemyRadar[RightFront2.5ø]&#45;&gt;Shoot</title>
<path fill="none" stroke="green" stroke-width="0.532881" stroke-dasharray="1,5" d="M1392.02,-208.673C1335.46,-185.875 1173.73,-120.691 1102.45,-91.9612"/>
<polygon fill="green" stroke="green" stroke-width="0.532881" points="1103.6,-88.6495 1093.02,-88.1574 1100.98,-95.142 1103.6,-88.6495"/>
</g>
<!-- enemyRadar[RightFront2.5ø]&#45;&gt;Move Forward/Backward -->
<g id="edge4" class="edge"><title>enemyRadar[RightFront2.5ø]&#45;&gt;Move Forward/Backward</title>
<path fill="none" stroke="green" stroke-width="0.393218" d="M1419.27,-208.468C1430.75,-195.415 1454.13,-168.843 1476.81,-143.071"/>
<polygon fill="green" stroke="green" stroke-width="0.393218" points="1479.51,-145.296 1483.49,-135.477 1474.26,-140.672 1479.51,-145.296"/>
</g>
<!-- enemyRadar[RightFront2.5ø]&#45;&gt; Move Left/Right -->
<g id="edge1" class="edge"><title>enemyRadar[RightFront2.5ø]&#45;&gt; Move Left/Right</title>
<path fill="none" stroke="red" stroke-width="0.65417" d="M1431.39,-208.643C1445.32,-203.014 1464.63,-195.574 1482,-190.149 1519.15,-178.548 1755.74,-121.222 1871.45,-93.3475"/>
<polygon fill="red" stroke="red" stroke-width="0.65417" points="1872.35,-96.7313 1881.25,-90.9872 1870.71,-89.9258 1872.35,-96.7313"/>
</g>
<!-- enemyRadar[LeftFront2.5ø] -->
<g id="node20" class="node"><title>enemyRadar[LeftFront2.5ø]</title>
<polygon fill="lightgray" stroke="black" points="1827,-317.881 1711,-317.881 1711,-299.881 1827,-299.881 1827,-317.881"/>
<text text-anchor="middle" x="1769" y="-306.681" font-family="Times,serif" font-size="9.00">enemyRadar[LeftFront2.5ø]</text>
</g>
<!-- enemyRadar[LeftFront2.5ø]&#45;&gt;Move Forward/Backward -->
<g id="edge3" class="edge"><title>enemyRadar[LeftFront2.5ø]&#45;&gt;Move Forward/Backward</title>
<path fill="none" stroke="green" stroke-width="0.473345" d="M1772.76,-299.639C1781.45,-279.212 1800.57,-225.354 1778,-190.149 1743.35,-136.099 1675.35,-107.768 1619.93,-93.1259"/>
<polygon fill="green" stroke="green" stroke-width="0.473345" points="1620.64,-89.6966 1610.09,-90.634 1618.92,-96.4823 1620.64,-89.6966"/>
</g>
<!-- 13153 -->
<g id="node28" class="node"><title>13153</title>
<ellipse fill="white" stroke="black" cx="1741" cy="-217.726" rx="27.6545" ry="27.6545"/>
<text text-anchor="middle" x="1741" y="-215.526" font-family="Times,serif" font-size="9.00">13153</text>
</g>
<!-- enemyRadar[LeftFront2.5ø]&#45;&gt;13153 -->
<g id="edge31" class="edge"><title>enemyRadar[LeftFront2.5ø]&#45;&gt;13153</title>
<path fill="none" stroke="green" stroke-width="0.781836" d="M1766.42,-299.653C1763.13,-289.203 1757.26,-270.506 1751.99,-253.715"/>
<polygon fill="green" stroke="green" stroke-width="0.781836" points="1755.31,-252.617 1748.98,-244.125 1748.63,-254.715 1755.31,-252.617"/>
</g>
<!-- enemyRadar[Front7Ø] -->
<g id="node21" class="node"><title>enemyRadar[Front7Ø]</title>
<polygon fill="lightgray" stroke="black" points="462,-226.726 364,-226.726 364,-208.726 462,-208.726 462,-226.726"/>
<text text-anchor="middle" x="413" y="-215.526" font-family="Times,serif" font-size="9.00">enemyRadar[Front7Ø]</text>
</g>
<!-- enemyRadar[Front7Ø]&#45;&gt;Turn left/right -->
<g id="edge12" class="edge"><title>enemyRadar[Front7Ø]&#45;&gt;Turn left/right</title>
<path fill="none" stroke="red" stroke-width="1.09455" stroke-dasharray="1,5" d="M413,-208.468C413,-193.878 413,-162.397 413,-134.023"/>
<polygon fill="red" stroke="red" stroke-width="1.09455" points="416.5,-133.748 413,-123.748 409.5,-133.748 416.5,-133.748"/>
</g>
<!-- OnTarget -->
<g id="node22" class="node"><title>OnTarget</title>
<polygon fill="lightgray" stroke="black" points="1518,-390.458 1468,-390.458 1468,-372.458 1518,-372.458 1518,-390.458"/>
<text text-anchor="middle" x="1493" y="-379.258" font-family="Times,serif" font-size="9.00">OnTarget</text>
</g>
<!-- bias -->
<g id="node23" class="node"><title>bias</title>
<polygon fill="lightgray" stroke="black" points="1200.5,-226.726 1169.5,-226.726 1169.5,-208.726 1200.5,-208.726 1200.5,-226.726"/>
<text text-anchor="middle" x="1185" y="-215.526" font-family="Times,serif" font-size="9.00">bias</text>
</g>
<!-- bias&#45;&gt;Shoot -->
<g id="edge2" class="edge"><title>bias&#45;&gt;Shoot</title>
<path fill="none" stroke="green" stroke-width="0.159596" stroke-dasharray="1,5" d="M1178.03,-208.468C1161.34,-188.69 1118.46,-137.875 1091.43,-105.835"/>
<polygon fill="green" stroke="green" stroke-width="0.159596" points="1094.04,-103.51 1084.92,-98.1247 1088.69,-108.025 1094.04,-103.51"/>
</g>
<!-- bias&#45;&gt;Move Forward/Backward -->
<g id="edge14" class="edge"><title>bias&#45;&gt;Move Forward/Backward</title>
<path fill="none" stroke="red" stroke-width="0.501497" stroke-dasharray="1,5" d="M1190.97,-208.517C1195.58,-202.68 1202.45,-195.037 1210,-190.149 1283.7,-142.443 1380.03,-112.506 1448.44,-95.6979"/>
<polygon fill="red" stroke="red" stroke-width="0.501497" points="1449.43,-99.0606 1458.33,-93.3128 1447.79,-92.2558 1449.43,-99.0606"/>
</g>
<!-- 13153&#45;&gt;Move Forward/Backward -->
<g id="edge32" class="edge"><title>13153&#45;&gt;Move Forward/Backward</title>
<path fill="none" stroke="green" stroke-width="0.368625" d="M1719.19,-200.841C1714.22,-197.285 1708.95,-193.558 1704,-190.149 1672.46,-168.438 1637.18,-145.035 1606.96,-125.259"/>
<polygon fill="green" stroke="green" stroke-width="0.368625" points="1608.87,-122.324 1598.58,-119.782 1605.04,-128.183 1608.87,-122.324"/>
</g>
<!-- 12972&#45;&gt;Shoot -->
<g id="edge29" class="edge"><title>12972&#45;&gt;Shoot</title>
<path fill="none" stroke="green" stroke-width="0.784328" d="M1113.99,-191.938C1104.93,-169.521 1091.53,-136.329 1081.52,-111.558"/>
<polygon fill="green" stroke="green" stroke-width="0.784328" points="1084.73,-110.145 1077.74,-102.184 1078.24,-112.767 1084.73,-110.145"/>
</g>
<!-- 12174 -->
<g id="node30" class="node"><title>12174</title>
<ellipse fill="white" stroke="black" cx="1853" cy="-217.726" rx="27.6545" ry="27.6545"/>
<text text-anchor="middle" x="1853" y="-215.526" font-family="Times,serif" font-size="9.00">12174</text>
</g>
<!-- 12174&#45;&gt;Move Forward/Backward -->
<g id="edge26" class="edge"><title>12174&#45;&gt;Move Forward/Backward</title>
<path fill="none" stroke="green" stroke-width="1.42384" stroke-dasharray="1,5" d="M1830.33,-201.339C1824.19,-197.459 1817.45,-193.46 1811,-190.149 1747.52,-157.559 1672.3,-127.637 1616.27,-106.923"/>
<polygon fill="green" stroke="green" stroke-width="1.42384" points="1617.34,-103.587 1606.74,-103.422 1614.92,-110.157 1617.34,-103.587"/>
</g>
<!-- 13329&#45;&gt;Turn left/right -->
<g id="edge35" class="edge"><title>13329&#45;&gt;Turn left/right</title>
<path fill="none" stroke="green" stroke-width="0.651545" d="M1140.87,-289.919C1135.98,-286.471 1130.55,-283.312 1125,-281.304 996.058,-234.651 625.611,-317.445 509,-245.304 497.624,-238.266 463.027,-174.82 438.642,-128.152"/>
<polygon fill="green" stroke="green" stroke-width="0.651545" points="441.633,-126.317 433.911,-119.063 435.424,-129.55 441.633,-126.317"/>
</g>
<!-- 13329&#45;&gt;13153 -->
<g id="edge36" class="edge"><title>13329&#45;&gt;13153</title>
<path fill="none" stroke="red" stroke-width="0.206267" d="M1181.37,-290.244C1186.5,-286.688 1192.2,-283.401 1198,-281.304 1410.02,-204.638 1491.98,-321.969 1704,-245.304 1706.72,-244.32 1709.42,-243.076 1712.04,-241.665"/>
<polygon fill="red" stroke="red" stroke-width="0.206267" points="1713.96,-244.596 1720.63,-236.363 1710.28,-238.641 1713.96,-244.596"/>
</g>
</g>
</svg>
