<?xml version="1.0" encoding="UTF-8" standalone="no"?>
<!DOCTYPE svg PUBLIC "-//W3C//DTD SVG 1.1//EN"
 "http://www.w3.org/Graphics/SVG/1.1/DTD/svg11.dtd">
<!-- Generated by graphviz version 2.38.0 (20140413.2041)
 -->
<!-- Title: %3 Pages: 1 -->
<svg width="2449pt" height="295pt"
 viewBox="0.00 0.00 2448.73 294.58" xmlns="http://www.w3.org/2000/svg" xmlns:xlink="http://www.w3.org/1999/xlink">
<g id="graph0" class="graph" transform="scale(1 1) rotate(0) translate(4 290.576)">
<title>%3</title>
<polygon fill="white" stroke="none" points="-4,4 -4,-290.576 2444.73,-290.576 2444.73,4 -4,4"/>
<!-- wallRadar[1,0] -->
<g id="node1" class="node"><title>wallRadar[1,0]</title>
<polygon fill="lightgray" stroke="black" points="129.235,-220.362 59.2349,-220.362 59.2349,-202.362 129.235,-202.362 129.235,-220.362"/>
<text text-anchor="middle" x="94.2349" y="-209.162" font-family="Times,serif" font-size="9.00">wallRadar[1,0]</text>
</g>
<!-- Move Forward/Backward -->
<g id="node25" class="node"><title>Move Forward/Backward</title>
<ellipse fill="lightblue" stroke="black" cx="325.235" cy="-77.0746" rx="77.1494" ry="77.1494"/>
<text text-anchor="middle" x="325.235" y="-74.8746" font-family="Times,serif" font-size="9.00">Move Forward/Backward</text>
</g>
<!-- wallRadar[1,0]&#45;&gt;Move Forward/Backward -->
<g id="edge8" class="edge"><title>wallRadar[1,0]&#45;&gt;Move Forward/Backward</title>
<path fill="none" stroke="red" stroke-width="0.106661" d="M108.337,-202.286C135.932,-186.484 198.821,-150.469 249.813,-121.267"/>
<polygon fill="red" stroke="red" stroke-width="0.106661" points="251.596,-124.279 258.534,-116.273 248.117,-118.205 251.596,-124.279"/>
</g>
<!-- Turn left/right -->
<g id="node27" class="node"><title>Turn left/right</title>
<ellipse fill="lightblue" stroke="black" cx="901.235" cy="-77.0746" rx="46.8387" ry="46.8387"/>
<text text-anchor="middle" x="901.235" y="-74.8746" font-family="Times,serif" font-size="9.00">Turn left/right</text>
</g>
<!-- wallRadar[1,0]&#45;&gt;Turn left/right -->
<g id="edge34" class="edge"><title>wallRadar[1,0]&#45;&gt;Turn left/right</title>
<path fill="none" stroke="red" stroke-width="0.491887" d="M108.877,-202.29C117.24,-198.028 128.058,-193.085 138.235,-190.149 255.823,-156.225 290.093,-171.538 411.235,-154.149 568.571,-131.565 753.84,-101.986 844.908,-87.2492"/>
<polygon fill="red" stroke="red" stroke-width="0.491887" points="845.699,-90.6668 855.011,-85.6128 844.58,-83.7569 845.699,-90.6668"/>
</g>
<!-- wallRadar[0,1] -->
<g id="node2" class="node"><title>wallRadar[0,1]</title>
<polygon fill="lightgray" stroke="black" points="1565.23,-220.362 1495.23,-220.362 1495.23,-202.362 1565.23,-202.362 1565.23,-220.362"/>
<text text-anchor="middle" x="1530.23" y="-209.162" font-family="Times,serif" font-size="9.00">wallRadar[0,1]</text>
</g>
<!-- Shoot -->
<g id="node24" class="node"><title>Shoot</title>
<ellipse fill="lightblue" stroke="black" cx="1493.23" cy="-77.0746" rx="26.7407" ry="26.7407"/>
<text text-anchor="middle" x="1493.23" y="-74.8746" font-family="Times,serif" font-size="9.00">Shoot</text>
</g>
<!-- wallRadar[0,1]&#45;&gt;Shoot -->
<g id="edge58" class="edge"><title>wallRadar[0,1]&#45;&gt;Shoot</title>
<path fill="none" stroke="red" stroke-width="0.241574" d="M1527.92,-202.087C1523.03,-184.605 1511.41,-143.041 1502.96,-112.839"/>
<polygon fill="red" stroke="red" stroke-width="0.241574" points="1506.29,-111.771 1500.23,-103.083 1499.55,-113.656 1506.29,-111.771"/>
</g>
<!--  Move Left/Right -->
<g id="node26" class="node"><title> Move Left/Right</title>
<ellipse fill="lightblue" stroke="black" cx="1809.23" cy="-77.0746" rx="55.3091" ry="55.3091"/>
<text text-anchor="middle" x="1809.23" y="-74.8746" font-family="Times,serif" font-size="9.00"> Move Left/Right</text>
</g>
<!-- wallRadar[0,1]&#45;&gt; Move Left/Right -->
<g id="edge27" class="edge"><title>wallRadar[0,1]&#45;&gt; Move Left/Right</title>
<path fill="none" stroke="red" stroke-width="0.180969" d="M1547.27,-202.286C1586.74,-183.573 1685.98,-136.515 1750.36,-105.992"/>
<polygon fill="red" stroke="red" stroke-width="0.180969" points="1752.05,-109.061 1759.59,-101.614 1749.05,-102.736 1752.05,-109.061"/>
</g>
<!-- wallRadar[0,1]&#45;&gt;Turn left/right -->
<g id="edge44" class="edge"><title>wallRadar[0,1]&#45;&gt;Turn left/right</title>
<path fill="none" stroke="green" stroke-width="0.354328" stroke-dasharray="1,5" d="M1515.12,-202.318C1506.8,-198.171 1496.16,-193.329 1486.23,-190.149 1297.53,-129.708 1063.56,-96.9569 957.817,-84.3063"/>
<polygon fill="green" stroke="green" stroke-width="0.354328" points="958.028,-80.807 947.686,-83.1091 957.206,-87.7586 958.028,-80.807"/>
</g>
<!-- wallRadar[&#45;1,0] -->
<g id="node3" class="node"><title>wallRadar[&#45;1,0]</title>
<polygon fill="lightgray" stroke="black" points="2350.73,-220.362 2277.73,-220.362 2277.73,-202.362 2350.73,-202.362 2350.73,-220.362"/>
<text text-anchor="middle" x="2314.23" y="-209.162" font-family="Times,serif" font-size="9.00">wallRadar[&#45;1,0]</text>
</g>
<!-- wallRadar[&#45;1,0]&#45;&gt;Shoot -->
<g id="edge6" class="edge"><title>wallRadar[&#45;1,0]&#45;&gt;Shoot</title>
<path fill="none" stroke="green" stroke-width="0.490398" d="M2299.71,-202.253C2291.12,-197.866 2279.87,-192.812 2269.23,-190.149 2042.79,-133.44 1974.86,-196.146 1745.23,-154.149 1665.7,-139.604 1575.74,-108.83 1527.75,-91.2048"/>
<polygon fill="green" stroke="green" stroke-width="0.490398" points="1528.76,-87.8459 1518.17,-87.6539 1526.33,-94.4099 1528.76,-87.8459"/>
</g>
<!-- wallRadar[&#45;1,0]&#45;&gt; Move Left/Right -->
<g id="edge1" class="edge"><title>wallRadar[&#45;1,0]&#45;&gt; Move Left/Right</title>
<path fill="none" stroke="green" stroke-width="0.457298" d="M2298.28,-202.333C2289.8,-198.29 2279.12,-193.541 2269.23,-190.149 2131.3,-142.815 1963.62,-107.261 1873.67,-89.8931"/>
<polygon fill="green" stroke="green" stroke-width="0.457298" points="1874.11,-86.4124 1863.63,-87.9664 1872.79,-93.2871 1874.11,-86.4124"/>
</g>
<!-- wallRadar[0,&#45;1] -->
<g id="node4" class="node"><title>wallRadar[0,&#45;1]</title>
<polygon fill="lightgray" stroke="black" points="970.735,-220.362 897.735,-220.362 897.735,-202.362 970.735,-202.362 970.735,-220.362"/>
<text text-anchor="middle" x="934.235" y="-209.162" font-family="Times,serif" font-size="9.00">wallRadar[0,&#45;1]</text>
</g>
<!-- wallRadar[0,&#45;1]&#45;&gt;Shoot -->
<g id="edge35" class="edge"><title>wallRadar[0,&#45;1]&#45;&gt;Shoot</title>
<path fill="none" stroke="red" stroke-width="0.374483" d="M950.533,-202.252C959.193,-198.187 970.115,-193.442 980.235,-190.149 1154.58,-133.425 1371.6,-96.6577 1456.64,-83.4988"/>
<polygon fill="red" stroke="red" stroke-width="0.374483" points="1457.23,-86.95 1466.58,-81.9758 1456.17,-80.0308 1457.23,-86.95"/>
</g>
<!-- wallRadar[0,&#45;1]&#45;&gt;Move Forward/Backward -->
<g id="edge32" class="edge"><title>wallRadar[0,&#45;1]&#45;&gt;Move Forward/Backward</title>
<path fill="none" stroke="red" stroke-width="0.276634" d="M897.511,-202.385C802.238,-181.69 545.208,-125.857 410.396,-96.5734"/>
<polygon fill="red" stroke="red" stroke-width="0.276634" points="411.024,-93.1283 400.509,-94.4257 409.538,-99.9688 411.024,-93.1283"/>
</g>
<!-- wallRadar[0,&#45;1]&#45;&gt; Move Left/Right -->
<g id="edge12" class="edge"><title>wallRadar[0,&#45;1]&#45;&gt; Move Left/Right</title>
<path fill="none" stroke="red" stroke-width="0.103423" d="M949.1,-202.244C957.889,-197.854 969.389,-192.801 980.235,-190.149 1217.76,-132.085 1288.05,-194.406 1529.23,-154.149 1605.52,-141.417 1691.01,-116.594 1747.23,-98.7624"/>
<polygon fill="red" stroke="red" stroke-width="0.103423" points="1748.57,-102.008 1757.03,-95.6302 1746.44,-95.3403 1748.57,-102.008"/>
</g>
<!-- wallRadar[0,&#45;1]&#45;&gt;Turn left/right -->
<g id="edge39" class="edge"><title>wallRadar[0,&#45;1]&#45;&gt;Turn left/right</title>
<path fill="none" stroke="green" stroke-width="0.546904" d="M932.171,-202.087C928.705,-188.194 921.445,-159.09 914.829,-132.568"/>
<polygon fill="green" stroke="green" stroke-width="0.546904" points="918.15,-131.421 912.334,-122.566 911.358,-133.116 918.15,-131.421"/>
</g>
<!-- wallRadar[0.7,0.7] -->
<g id="node5" class="node"><title>wallRadar[0.7,0.7]</title>
<polygon fill="lightgray" stroke="black" points="802.735,-220.362 719.735,-220.362 719.735,-202.362 802.735,-202.362 802.735,-220.362"/>
<text text-anchor="middle" x="761.235" y="-209.162" font-family="Times,serif" font-size="9.00">wallRadar[0.7,0.7]</text>
</g>
<!-- wallRadar[0.7,0.7]&#45;&gt;Move Forward/Backward -->
<g id="edge41" class="edge"><title>wallRadar[0.7,0.7]&#45;&gt;Move Forward/Backward</title>
<path fill="none" stroke="red" stroke-width="0.534877" d="M742.021,-202.252C732.532,-198.374 720.866,-193.794 710.235,-190.149 607.931,-155.072 488.009,-121.294 409.528,-100.157"/>
<polygon fill="red" stroke="red" stroke-width="0.534877" points="410.255,-96.7283 399.69,-97.5149 408.44,-103.489 410.255,-96.7283"/>
</g>
<!-- wallRadar[0.7,0.7]&#45;&gt; Move Left/Right -->
<g id="edge30" class="edge"><title>wallRadar[0.7,0.7]&#45;&gt; Move Left/Right</title>
<path fill="none" stroke="green" stroke-width="0.411886" d="M802.848,-202.645C827.575,-198.333 859.599,-193.224 888.235,-190.149 1171.94,-159.685 1247.57,-199.805 1529.23,-154.149 1605.69,-141.756 1691.32,-116.804 1747.52,-98.8517"/>
<polygon fill="green" stroke="green" stroke-width="0.411886" points="1748.87,-102.094 1757.32,-95.698 1746.72,-95.431 1748.87,-102.094"/>
</g>
<!-- wallRadar[0.7,0.7]&#45;&gt;Turn left/right -->
<g id="edge40" class="edge"><title>wallRadar[0.7,0.7]&#45;&gt;Turn left/right</title>
<path fill="none" stroke="green" stroke-width="0.106734" d="M769.993,-202.087C787.727,-185.33 828.878,-146.446 860.409,-116.651"/>
<polygon fill="green" stroke="green" stroke-width="0.106734" points="862.926,-119.089 867.79,-109.677 858.118,-114.001 862.926,-119.089"/>
</g>
<!-- wallRadar[&#45;0.7,0.7] -->
<g id="node6" class="node"><title>wallRadar[&#45;0.7,0.7]</title>
<polygon fill="lightgray" stroke="black" points="1609.23,-286.576 1523.23,-286.576 1523.23,-268.576 1609.23,-268.576 1609.23,-286.576"/>
<text text-anchor="middle" x="1566.23" y="-275.376" font-family="Times,serif" font-size="9.00">wallRadar[&#45;0.7,0.7]</text>
</g>
<!-- wallRadar[&#45;0.7,&#45;0.7] -->
<g id="node7" class="node"><title>wallRadar[&#45;0.7,&#45;0.7]</title>
<polygon fill="lightgray" stroke="black" points="1853.73,-220.362 1764.73,-220.362 1764.73,-202.362 1853.73,-202.362 1853.73,-220.362"/>
<text text-anchor="middle" x="1809.23" y="-209.162" font-family="Times,serif" font-size="9.00">wallRadar[&#45;0.7,&#45;0.7]</text>
</g>
<!-- wallRadar[&#45;0.7,&#45;0.7]&#45;&gt;Shoot -->
<g id="edge45" class="edge"><title>wallRadar[&#45;0.7,&#45;0.7]&#45;&gt;Shoot</title>
<path fill="none" stroke="green" stroke-width="0.138551" d="M1789.94,-202.286C1737.81,-180.463 1593.6,-120.092 1527.34,-92.3517"/>
<polygon fill="green" stroke="green" stroke-width="0.138551" points="1528.35,-88.9803 1517.77,-88.3471 1525.65,-95.4373 1528.35,-88.9803"/>
</g>
<!-- wallRadar[&#45;0.7,&#45;0.7]&#45;&gt; Move Left/Right -->
<g id="edge21" class="edge"><title>wallRadar[&#45;0.7,&#45;0.7]&#45;&gt; Move Left/Right</title>
<path fill="none" stroke="red" stroke-width="0.351619" d="M1809.23,-202.087C1809.23,-189.912 1809.23,-166.055 1809.23,-142.491"/>
<polygon fill="red" stroke="red" stroke-width="0.351619" points="1812.74,-142.445 1809.23,-132.445 1805.74,-142.445 1812.74,-142.445"/>
</g>
<!-- wallRadar[&#45;0.7,&#45;0.7]&#45;&gt;Turn left/right -->
<g id="edge3" class="edge"><title>wallRadar[&#45;0.7,&#45;0.7]&#45;&gt;Turn left/right</title>
<path fill="none" stroke="green" stroke-width="0.240281" d="M1791.43,-202.32C1781.31,-198.067 1768.28,-193.124 1756.23,-190.149 1626.29,-158.062 1589.99,-171.222 1457.23,-154.149 1274.13,-130.601 1057.46,-100.232 957.24,-86.0423"/>
<polygon fill="green" stroke="green" stroke-width="0.240281" points="957.725,-82.5761 947.333,-84.6385 956.743,-89.5069 957.725,-82.5761"/>
</g>
<!-- wallRadar[0.7,&#45;0.7] -->
<g id="node8" class="node"><title>wallRadar[0.7,&#45;0.7]</title>
<polygon fill="lightgray" stroke="black" points="1277.23,-220.362 1191.23,-220.362 1191.23,-202.362 1277.23,-202.362 1277.23,-220.362"/>
<text text-anchor="middle" x="1234.23" y="-209.162" font-family="Times,serif" font-size="9.00">wallRadar[0.7,&#45;0.7]</text>
</g>
<!-- wallRadar[0.7,&#45;0.7]&#45;&gt;Shoot -->
<g id="edge2" class="edge"><title>wallRadar[0.7,&#45;0.7]&#45;&gt;Shoot</title>
<path fill="none" stroke="green" stroke-width="0.163818" d="M1250.05,-202.286C1291.58,-181.075 1404.4,-123.446 1460.57,-94.7597"/>
<polygon fill="green" stroke="green" stroke-width="0.163818" points="1462.41,-97.7499 1469.72,-90.0842 1459.22,-91.516 1462.41,-97.7499"/>
</g>
<!-- wallRadar[0.7,&#45;0.7]&#45;&gt; Move Left/Right -->
<g id="edge14" class="edge"><title>wallRadar[0.7,&#45;0.7]&#45;&gt; Move Left/Right</title>
<path fill="none" stroke="red" stroke-width="0.211814" d="M1252.19,-202.235C1262.06,-198.063 1274.62,-193.224 1286.23,-190.149 1391.77,-162.197 1422.37,-176.501 1529.23,-154.149 1604.94,-138.316 1690.55,-114.112 1746.95,-97.272"/>
<polygon fill="red" stroke="red" stroke-width="0.211814" points="1748.22,-100.547 1756.79,-94.3218 1746.2,-93.8424 1748.22,-100.547"/>
</g>
<!-- wallRadar[0.7,&#45;0.7]&#45;&gt;Turn left/right -->
<g id="edge55" class="edge"><title>wallRadar[0.7,&#45;0.7]&#45;&gt;Turn left/right</title>
<path fill="none" stroke="green" stroke-width="0.202601" d="M1213.91,-202.286C1163.09,-182.1 1029.26,-128.933 954.201,-99.116"/>
<polygon fill="green" stroke="green" stroke-width="0.202601" points="955.045,-95.6853 944.459,-95.246 952.461,-102.191 955.045,-95.6853"/>
</g>
<!-- enemyRadar[RightBack] -->
<g id="node9" class="node"><title>enemyRadar[RightBack]</title>
<polygon fill="lightgray" stroke="black" points="641.235,-220.362 537.235,-220.362 537.235,-202.362 641.235,-202.362 641.235,-220.362"/>
<text text-anchor="middle" x="589.235" y="-209.162" font-family="Times,serif" font-size="9.00">enemyRadar[RightBack]</text>
</g>
<!-- enemyRadar[RightBack]&#45;&gt;Shoot -->
<g id="edge18" class="edge"><title>enemyRadar[RightBack]&#45;&gt;Shoot</title>
<path fill="none" stroke="red" stroke-width="0.313788" d="M610.112,-202.274C621.758,-198.06 636.62,-193.17 650.235,-190.149 784.352,-160.39 820.995,-171.803 957.235,-154.149 1145.36,-129.772 1370.02,-96.5466 1456.67,-83.5771"/>
<polygon fill="red" stroke="red" stroke-width="0.313788" points="1457.4,-87.0056 1466.77,-82.0621 1456.37,-80.0829 1457.4,-87.0056"/>
</g>
<!-- enemyRadar[RightBack]&#45;&gt;Move Forward/Backward -->
<g id="edge28" class="edge"><title>enemyRadar[RightBack]&#45;&gt;Move Forward/Backward</title>
<path fill="none" stroke="green" stroke-width="0.687842" d="M573.118,-202.286C540.002,-185.692 462.406,-146.81 402.783,-116.933"/>
<polygon fill="green" stroke="green" stroke-width="0.687842" points="404.26,-113.758 393.751,-112.408 401.124,-120.017 404.26,-113.758"/>
</g>
<!-- enemyRadar[LeftBack] -->
<g id="node10" class="node"><title>enemyRadar[LeftBack]</title>
<polygon fill="lightgray" stroke="black" points="2009.73,-220.362 1910.73,-220.362 1910.73,-202.362 2009.73,-202.362 2009.73,-220.362"/>
<text text-anchor="middle" x="1960.23" y="-209.162" font-family="Times,serif" font-size="9.00">enemyRadar[LeftBack]</text>
</g>
<!-- enemyRadar[LeftBack]&#45;&gt;Shoot -->
<g id="edge51" class="edge"><title>enemyRadar[LeftBack]&#45;&gt;Shoot</title>
<path fill="none" stroke="green" stroke-width="0.113341" d="M1936.04,-202.271C1924.12,-198.397 1909.49,-193.816 1896.23,-190.149 1829.74,-171.748 1811.84,-172.127 1745.23,-154.149 1667.38,-133.138 1577.13,-104.95 1528.56,-89.4603"/>
<polygon fill="green" stroke="green" stroke-width="0.113341" points="1529.44,-86.0665 1518.85,-86.3548 1527.31,-92.734 1529.44,-86.0665"/>
</g>
<!-- enemyRadar[LeftBack]&#45;&gt; Move Left/Right -->
<g id="edge23" class="edge"><title>enemyRadar[LeftBack]&#45;&gt; Move Left/Right</title>
<path fill="none" stroke="red" stroke-width="0.255815" d="M1950.79,-202.087C1932.56,-186.116 1891.38,-150.043 1858.12,-120.898"/>
<polygon fill="red" stroke="red" stroke-width="0.255815" points="1860.11,-117.993 1850.28,-114.036 1855.5,-123.258 1860.11,-117.993"/>
</g>
<!-- enemyRadar[Right45ø] -->
<g id="node11" class="node"><title>enemyRadar[Right45ø]</title>
<polygon fill="lightgray" stroke="black" points="247.235,-220.362 147.235,-220.362 147.235,-202.362 247.235,-202.362 247.235,-220.362"/>
<text text-anchor="middle" x="197.235" y="-209.162" font-family="Times,serif" font-size="9.00">enemyRadar[Right45ø]</text>
</g>
<!-- enemyRadar[Right45ø]&#45;&gt;Shoot -->
<g id="edge29" class="edge"><title>enemyRadar[Right45ø]&#45;&gt;Shoot</title>
<path fill="none" stroke="red" stroke-width="0.286065" d="M216.264,-202.329C227.646,-197.908 242.521,-192.797 256.235,-190.149 562.546,-131.021 646.71,-184.098 957.235,-154.149 1146.06,-135.938 1370.31,-99.1558 1456.76,-84.4053"/>
<polygon fill="red" stroke="red" stroke-width="0.286065" points="1457.58,-87.8159 1466.84,-82.6775 1456.4,-80.9164 1457.58,-87.8159"/>
</g>
<!-- enemyRadar[Right45ø]&#45;&gt;Move Forward/Backward -->
<g id="edge9" class="edge"><title>enemyRadar[Right45ø]&#45;&gt;Move Forward/Backward</title>
<path fill="none" stroke="red" stroke-width="0.12606" d="M205.242,-202.087C217.344,-189.579 241.375,-164.744 264.773,-140.562"/>
<polygon fill="red" stroke="red" stroke-width="0.12606" points="267.561,-142.713 272,-133.093 262.531,-137.846 267.561,-142.713"/>
</g>
<!-- enemyRadar[Right45ø]&#45;&gt;Turn left/right -->
<g id="edge5" class="edge"><title>enemyRadar[Right45ø]&#45;&gt;Turn left/right</title>
<path fill="none" stroke="green" stroke-width="0.480283" d="M218.017,-202.343C229.211,-198.253 243.335,-193.458 256.235,-190.149 470.558,-135.183 731.905,-99.0047 844.822,-84.8252"/>
<polygon fill="green" stroke="green" stroke-width="0.480283" points="845.467,-88.272 854.957,-83.5617 844.601,-81.3257 845.467,-88.272"/>
</g>
<!-- enemyRadar[Left45ø] -->
<g id="node12" class="node"><title>enemyRadar[Left45ø]</title>
<polygon fill="lightgray" stroke="black" points="2122.73,-220.362 2027.73,-220.362 2027.73,-202.362 2122.73,-202.362 2122.73,-220.362"/>
<text text-anchor="middle" x="2075.23" y="-209.162" font-family="Times,serif" font-size="9.00">enemyRadar[Left45ø]</text>
</g>
<!-- enemyRadar[Left45ø]&#45;&gt;Shoot -->
<g id="edge31" class="edge"><title>enemyRadar[Left45ø]&#45;&gt;Shoot</title>
<path fill="none" stroke="red" stroke-width="0.583118" d="M2056.11,-202.299C2045.44,-198.093 2031.79,-193.202 2019.23,-190.149 1899.89,-161.131 1865.31,-179.983 1745.23,-154.149 1666.19,-137.144 1576.05,-107.31 1527.89,-90.5005"/>
<polygon fill="red" stroke="red" stroke-width="0.583118" points="1528.87,-87.1338 1518.28,-87.1205 1526.55,-93.7379 1528.87,-87.1338"/>
</g>
<!-- enemyRadar[Left45ø]&#45;&gt; Move Left/Right -->
<g id="edge52" class="edge"><title>enemyRadar[Left45ø]&#45;&gt; Move Left/Right</title>
<path fill="none" stroke="green" stroke-width="0.146493" d="M2059,-202.286C2021.82,-183.798 1929.01,-137.643 1867.6,-107.101"/>
<polygon fill="green" stroke="green" stroke-width="0.146493" points="1868.91,-103.846 1858.4,-102.527 1865.8,-110.113 1868.91,-103.846"/>
</g>
<!-- enemyRadar[RightFront20ø] -->
<g id="node13" class="node"><title>enemyRadar[RightFront20ø]</title>
<polygon fill="lightgray" stroke="black" points="2259.73,-220.362 2140.73,-220.362 2140.73,-202.362 2259.73,-202.362 2259.73,-220.362"/>
<text text-anchor="middle" x="2200.23" y="-209.162" font-family="Times,serif" font-size="9.00">enemyRadar[RightFront20ø]</text>
</g>
<!-- enemyRadar[RightFront20ø]&#45;&gt;Shoot -->
<g id="edge53" class="edge"><title>enemyRadar[RightFront20ø]&#45;&gt;Shoot</title>
<path fill="none" stroke="red" stroke-width="0.27563" d="M2177.23,-202.296C2164.18,-198.036 2147.47,-193.093 2132.23,-190.149 1962.63,-157.382 1914.77,-187.277 1745.23,-154.149 1665.88,-138.644 1575.86,-108.237 1527.81,-90.93"/>
<polygon fill="red" stroke="red" stroke-width="0.27563" points="1528.8,-87.5684 1518.21,-87.4458 1526.41,-94.1482 1528.8,-87.5684"/>
</g>
<!-- enemyRadar[RightFront20ø]&#45;&gt; Move Left/Right -->
<g id="edge20" class="edge"><title>enemyRadar[RightFront20ø]&#45;&gt; Move Left/Right</title>
<path fill="none" stroke="red" stroke-width="0.485758" stroke-dasharray="1,5" d="M2176.36,-202.286C2116.59,-182.064 1959,-128.743 1870.95,-98.9565"/>
<polygon fill="red" stroke="red" stroke-width="0.485758" points="1871.95,-95.5983 1861.36,-95.7088 1869.71,-102.229 1871.95,-95.5983"/>
</g>
<!-- enemyRadar[LeftFront20ø] -->
<g id="node14" class="node"><title>enemyRadar[LeftFront20ø]</title>
<polygon fill="lightgray" stroke="black" points="737.235,-286.576 623.235,-286.576 623.235,-268.576 737.235,-268.576 737.235,-286.576"/>
<text text-anchor="middle" x="680.235" y="-275.376" font-family="Times,serif" font-size="9.00">enemyRadar[LeftFront20ø]</text>
</g>
<!-- enemyRadar[LeftFront20ø]&#45;&gt;Move Forward/Backward -->
<g id="edge13" class="edge"><title>enemyRadar[LeftFront20ø]&#45;&gt;Move Forward/Backward</title>
<path fill="none" stroke="green" stroke-width="0.370831" d="M623.097,-277.136C469.794,-278.045 58.1982,-276.348 17.2349,-232.576 -55.9727,-154.349 123.993,-109.959 238.727,-90.3477"/>
<polygon fill="green" stroke="green" stroke-width="0.370831" points="239.644,-93.743 248.928,-88.6395 238.488,-86.8391 239.644,-93.743"/>
</g>
<!-- enemyRadar[LeftFront20ø]&#45;&gt; Move Left/Right -->
<g id="edge11" class="edge"><title>enemyRadar[LeftFront20ø]&#45;&gt; Move Left/Right</title>
<path fill="none" stroke="green" stroke-width="0.213819" d="M737.278,-270.394C745.314,-269.683 753.477,-269.045 761.235,-268.576 805.582,-265.89 2329.18,-264.343 2360.23,-232.576 2373.42,-219.093 2372.17,-204.751 2360.23,-190.149 2299.51,-115.83 2007.01,-89.5592 1874.6,-81.3709"/>
<polygon fill="green" stroke="green" stroke-width="0.213819" points="1874.78,-77.8753 1864.59,-80.7672 1874.36,-84.8626 1874.78,-77.8753"/>
</g>
<!-- 124 -->
<g id="node29" class="node"><title>124</title>
<ellipse fill="white" stroke="black" cx="680.235" cy="-211.362" rx="21.4286" ry="21.4286"/>
<text text-anchor="middle" x="680.235" y="-209.162" font-family="Times,serif" font-size="9.00">124</text>
</g>
<!-- enemyRadar[LeftFront20ø]&#45;&gt;124 -->
<g id="edge59" class="edge"><title>enemyRadar[LeftFront20ø]&#45;&gt;124</title>
<path fill="none" stroke="green" stroke-width="0.114621" d="M680.235,-268.443C680.235,-261.9 680.235,-252.271 680.235,-242.832"/>
<polygon fill="green" stroke="green" stroke-width="0.114621" points="683.735,-242.818 680.235,-232.818 676.735,-242.818 683.735,-242.818"/>
</g>
<!-- enemyRadar[RightFront15ø] -->
<g id="node15" class="node"><title>enemyRadar[RightFront15ø]</title>
<polygon fill="lightgray" stroke="black" points="384.735,-220.362 265.735,-220.362 265.735,-202.362 384.735,-202.362 384.735,-220.362"/>
<text text-anchor="middle" x="325.235" y="-209.162" font-family="Times,serif" font-size="9.00">enemyRadar[RightFront15ø]</text>
</g>
<!-- enemyRadar[RightFront15ø]&#45;&gt;Shoot -->
<g id="edge47" class="edge"><title>enemyRadar[RightFront15ø]&#45;&gt;Shoot</title>
<path fill="none" stroke="green" stroke-width="0.252643" d="M347.933,-202.335C361.25,-197.975 378.5,-192.922 394.235,-190.149 641.164,-146.639 707.816,-179.785 957.235,-154.149 1145.94,-134.754 1370.26,-98.6547 1456.74,-84.2462"/>
<polygon fill="green" stroke="green" stroke-width="0.252643" points="1457.55,-87.6606 1466.83,-82.5593 1456.39,-80.7564 1457.55,-87.6606"/>
</g>
<!-- enemyRadar[RightFront15ø]&#45;&gt;Move Forward/Backward -->
<g id="edge24" class="edge"><title>enemyRadar[RightFront15ø]&#45;&gt;Move Forward/Backward</title>
<path fill="none" stroke="red" stroke-width="0.406435" d="M325.235,-202.087C325.235,-193.782 325.235,-180.04 325.235,-164.664"/>
<polygon fill="red" stroke="red" stroke-width="0.406435" points="328.735,-164.364 325.235,-154.364 321.735,-164.364 328.735,-164.364"/>
</g>
<!-- enemyRadar[RightFront15ø]&#45;&gt;Turn left/right -->
<g id="edge19" class="edge"><title>enemyRadar[RightFront15ø]&#45;&gt;Turn left/right</title>
<path fill="none" stroke="green" stroke-width="0.491345" d="M351.332,-202.266C364.193,-198.392 379.968,-193.811 394.235,-190.149 557.25,-148.305 752.148,-107.886 845.724,-89.0684"/>
<polygon fill="green" stroke="green" stroke-width="0.491345" points="846.427,-92.4972 855.543,-87.0984 845.05,-85.6339 846.427,-92.4972"/>
</g>
<!-- enemyRadar[LeftFront15ø] -->
<g id="node16" class="node"><title>enemyRadar[LeftFront15ø]</title>
<polygon fill="lightgray" stroke="black" points="1697.23,-220.362 1583.23,-220.362 1583.23,-202.362 1697.23,-202.362 1697.23,-220.362"/>
<text text-anchor="middle" x="1640.23" y="-209.162" font-family="Times,serif" font-size="9.00">enemyRadar[LeftFront15ø]</text>
</g>
<!-- enemyRadar[LeftFront15ø]&#45;&gt;Shoot -->
<g id="edge15" class="edge"><title>enemyRadar[LeftFront15ø]&#45;&gt;Shoot</title>
<path fill="none" stroke="green" stroke-width="0.485461" d="M1631.04,-202.087C1609.28,-182.502 1553.93,-132.693 1520.37,-102.494"/>
<polygon fill="green" stroke="green" stroke-width="0.485461" points="1522.52,-99.7227 1512.75,-95.635 1517.84,-104.926 1522.52,-99.7227"/>
</g>
<!-- enemyRadar[LeftFront15ø]&#45;&gt; Move Left/Right -->
<g id="edge49" class="edge"><title>enemyRadar[LeftFront15ø]&#45;&gt; Move Left/Right</title>
<path fill="none" stroke="red" stroke-width="0.575102" d="M1650.55,-202.286C1671.49,-185.894 1720.22,-147.753 1758.19,-118.028"/>
<polygon fill="red" stroke="red" stroke-width="0.575102" points="1760.4,-120.743 1766.12,-111.824 1756.09,-115.231 1760.4,-120.743"/>
</g>
<!-- enemyRadar[LeftFront15ø]&#45;&gt;Turn left/right -->
<g id="edge43" class="edge"><title>enemyRadar[LeftFront15ø]&#45;&gt;Turn left/right</title>
<path fill="none" stroke="red" stroke-width="0.31683" d="M1616.61,-202.298C1604.12,-198.246 1588.47,-193.498 1574.23,-190.149 1348.43,-137.016 1074.25,-99.588 957.857,-84.9309"/>
<polygon fill="red" stroke="red" stroke-width="0.31683" points="958.112,-81.4356 947.755,-83.6662 957.243,-88.3814 958.112,-81.4356"/>
</g>
<!-- enemyRadar[RightFront7.5ø] -->
<g id="node17" class="node"><title>enemyRadar[RightFront7.5ø]</title>
<polygon fill="lightgray" stroke="black" points="892.235,-286.576 770.235,-286.576 770.235,-268.576 892.235,-268.576 892.235,-286.576"/>
<text text-anchor="middle" x="831.235" y="-275.376" font-family="Times,serif" font-size="9.00">enemyRadar[RightFront7.5ø]</text>
</g>
<!-- enemyRadar[RightFront7.5ø]&#45;&gt; Move Left/Right -->
<g id="edge10" class="edge"><title>enemyRadar[RightFront7.5ø]&#45;&gt; Move Left/Right</title>
<path fill="none" stroke="red" stroke-width="0.416634" d="M892.376,-275.425C1179.42,-269.956 2379.92,-246.275 2393.23,-232.576 2406.38,-219.056 2405.25,-204.685 2393.23,-190.149 2327.95,-111.15 2012.7,-87.2767 1874.44,-80.5393"/>
<polygon fill="red" stroke="red" stroke-width="0.416634" points="1874.56,-77.0409 1864.4,-80.0651 1874.23,-84.0331 1874.56,-77.0409"/>
</g>
<!-- enemyRadar[RightFront7.5ø]&#45;&gt;Turn left/right -->
<g id="edge37" class="edge"><title>enemyRadar[RightFront7.5ø]&#45;&gt;Turn left/right</title>
<path fill="none" stroke="green" stroke-width="0.190219" d="M833.167,-268.375C836.888,-252.906 845.542,-218.433 855.235,-190.149 862.147,-169.98 870.799,-148.21 878.727,-129.27"/>
<polygon fill="green" stroke="green" stroke-width="0.190219" points="882.004,-130.508 882.672,-119.934 875.556,-127.783 882.004,-130.508"/>
</g>
<!-- enemyRadar[RightFront7.5ø]&#45;&gt;124 -->
<g id="edge56" class="edge"><title>enemyRadar[RightFront7.5ø]&#45;&gt;124</title>
<path fill="none" stroke="green" stroke-width="0.466835" d="M803.036,-268.473C777.981,-260.776 740.713,-248.09 710.235,-232.576 708.696,-231.792 707.141,-230.944 705.592,-230.054"/>
<polygon fill="green" stroke="green" stroke-width="0.466835" points="707.266,-226.973 696.928,-224.656 703.565,-232.914 707.266,-226.973"/>
</g>
<!-- enemyRadar[LeftFront7.5ø] -->
<g id="node18" class="node"><title>enemyRadar[LeftFront7.5ø]</title>
<polygon fill="lightgray" stroke="black" points="519.235,-220.362 403.235,-220.362 403.235,-202.362 519.235,-202.362 519.235,-220.362"/>
<text text-anchor="middle" x="461.235" y="-209.162" font-family="Times,serif" font-size="9.00">enemyRadar[LeftFront7.5ø]</text>
</g>
<!-- enemyRadar[LeftFront7.5ø]&#45;&gt;Turn left/right -->
<g id="edge22" class="edge"><title>enemyRadar[LeftFront7.5ø]&#45;&gt;Turn left/right</title>
<path fill="none" stroke="green" stroke-width="0.266028" d="M487.967,-202.29C500.235,-198.587 514.972,-194.142 528.235,-190.149 641.552,-156.032 774.267,-116.181 846.892,-94.3823"/>
<polygon fill="green" stroke="green" stroke-width="0.266028" points="848.161,-97.6558 856.732,-91.4287 846.148,-90.9512 848.161,-97.6558"/>
</g>
<!-- enemyRadar[RightFront2.5ø] -->
<g id="node19" class="node"><title>enemyRadar[RightFront2.5ø]</title>
<polygon fill="lightgray" stroke="black" points="1417.23,-220.362 1295.23,-220.362 1295.23,-202.362 1417.23,-202.362 1417.23,-220.362"/>
<text text-anchor="middle" x="1356.23" y="-209.162" font-family="Times,serif" font-size="9.00">enemyRadar[RightFront2.5ø]</text>
</g>
<!-- enemyRadar[RightFront2.5ø]&#45;&gt;Shoot -->
<g id="edge16" class="edge"><title>enemyRadar[RightFront2.5ø]&#45;&gt;Shoot</title>
<path fill="none" stroke="red" stroke-width="0.215351" d="M1364.8,-202.087C1384.79,-182.793 1435.14,-134.167 1466.54,-103.854"/>
<polygon fill="red" stroke="red" stroke-width="0.215351" points="1469.32,-106.035 1474.08,-96.571 1464.45,-100.999 1469.32,-106.035"/>
</g>
<!-- enemyRadar[LeftFront2.5ø] -->
<g id="node20" class="node"><title>enemyRadar[LeftFront2.5ø]</title>
<polygon fill="lightgray" stroke="black" points="1105.23,-220.362 989.235,-220.362 989.235,-202.362 1105.23,-202.362 1105.23,-220.362"/>
<text text-anchor="middle" x="1047.23" y="-209.162" font-family="Times,serif" font-size="9.00">enemyRadar[LeftFront2.5ø]</text>
</g>
<!-- enemyRadar[LeftFront2.5ø]&#45;&gt;Shoot -->
<g id="edge36" class="edge"><title>enemyRadar[LeftFront2.5ø]&#45;&gt;Shoot</title>
<path fill="none" stroke="red" stroke-width="0.29947" d="M1073.64,-202.361C1085.97,-198.633 1100.85,-194.148 1114.23,-190.149 1240.56,-152.418 1390.75,-108.192 1457.83,-88.4745"/>
<polygon fill="red" stroke="red" stroke-width="0.29947" points="1458.88,-91.8137 1467.49,-85.6359 1456.9,-85.0978 1458.88,-91.8137"/>
</g>
<!-- enemyRadar[LeftFront2.5ø]&#45;&gt;Turn left/right -->
<g id="edge38" class="edge"><title>enemyRadar[LeftFront2.5ø]&#45;&gt;Turn left/right</title>
<path fill="none" stroke="red" stroke-width="0.279827" d="M1038.1,-202.087C1019.49,-185.225 976.156,-145.959 943.195,-116.094"/>
<polygon fill="red" stroke="red" stroke-width="0.279827" points="945.246,-113.229 935.486,-109.109 940.546,-118.417 945.246,-113.229"/>
</g>
<!-- enemyRadar[Front7Ø] -->
<g id="node21" class="node"><title>enemyRadar[Front7Ø]</title>
<polygon fill="lightgray" stroke="black" points="1505.23,-286.576 1407.23,-286.576 1407.23,-268.576 1505.23,-268.576 1505.23,-286.576"/>
<text text-anchor="middle" x="1456.23" y="-275.376" font-family="Times,serif" font-size="9.00">enemyRadar[Front7Ø]</text>
</g>
<!-- enemyRadar[Front7Ø]&#45;&gt;Shoot -->
<g id="edge25" class="edge"><title>enemyRadar[Front7Ø]&#45;&gt;Shoot</title>
<path fill="none" stroke="red" stroke-width="0.25876" stroke-dasharray="1,5" d="M1505.27,-269.692C1508.3,-269.304 1511.31,-268.928 1514.23,-268.576 1552.94,-263.912 1837.12,-261.521 1863.23,-232.576 1875.87,-218.575 1874.47,-205.292 1863.23,-190.149 1862.91,-189.713 1621.22,-116.712 1528.69,-88.7768"/>
<polygon fill="red" stroke="red" stroke-width="0.25876" points="1529.52,-85.3709 1518.93,-85.8313 1527.49,-92.0721 1529.52,-85.3709"/>
</g>
<!-- enemyRadar[Front7Ø]&#45;&gt;Move Forward/Backward -->
<g id="edge4" class="edge"><title>enemyRadar[Front7Ø]&#45;&gt;Move Forward/Backward</title>
<path fill="none" stroke="green" stroke-width="0.107708" d="M1407.12,-275.968C1161.19,-272.808 74.3487,-257.456 50.2349,-232.576 -16.3155,-163.91 135.868,-117.035 239.352,-94.1711"/>
<polygon fill="green" stroke="green" stroke-width="0.107708" points="240.175,-97.5741 249.206,-92.0335 238.691,-90.7332 240.175,-97.5741"/>
</g>
<!-- enemyRadar[Front7Ø]&#45;&gt; Move Left/Right -->
<g id="edge48" class="edge"><title>enemyRadar[Front7Ø]&#45;&gt; Move Left/Right</title>
<path fill="none" stroke="green" stroke-width="0.111571" d="M1505.24,-269.473C1508.28,-269.139 1511.3,-268.835 1514.23,-268.576 1565.02,-264.087 2395.9,-269.327 2431.23,-232.576 2444.3,-218.983 2443.33,-204.617 2431.23,-190.149 2360.71,-105.778 2019.31,-84.8208 1874.45,-79.698"/>
<polygon fill="green" stroke="green" stroke-width="0.111571" points="1874.48,-76.197 1864.36,-79.3558 1874.24,-83.193 1874.48,-76.197"/>
</g>
<!-- enemyRadar[Front7Ø]&#45;&gt;Turn left/right -->
<g id="edge26" class="edge"><title>enemyRadar[Front7Ø]&#45;&gt;Turn left/right</title>
<path fill="none" stroke="red" stroke-width="0.808689" d="M1407.03,-276.494C1275.46,-275.764 923.128,-270.276 888.235,-232.576 863.19,-205.515 868.668,-163.179 879.177,-129.663"/>
<polygon fill="red" stroke="red" stroke-width="0.808689" points="882.55,-130.612 882.411,-120.018 875.913,-128.386 882.55,-130.612"/>
</g>
<!-- 267 -->
<g id="node28" class="node"><title>267</title>
<ellipse fill="white" stroke="black" cx="1456.23" cy="-211.362" rx="21.4286" ry="21.4286"/>
<text text-anchor="middle" x="1456.23" y="-209.162" font-family="Times,serif" font-size="9.00">267</text>
</g>
<!-- enemyRadar[Front7Ø]&#45;&gt;267 -->
<g id="edge60" class="edge"><title>enemyRadar[Front7Ø]&#45;&gt;267</title>
<path fill="none" stroke="red" stroke-width="0.179041" d="M1456.23,-268.443C1456.23,-261.9 1456.23,-252.271 1456.23,-242.832"/>
<polygon fill="red" stroke="red" stroke-width="0.179041" points="1459.74,-242.818 1456.23,-232.818 1452.74,-242.818 1459.74,-242.818"/>
</g>
<!-- OnTarget -->
<g id="node22" class="node"><title>OnTarget</title>
<polygon fill="lightgray" stroke="black" points="1173.23,-220.362 1123.23,-220.362 1123.23,-202.362 1173.23,-202.362 1173.23,-220.362"/>
<text text-anchor="middle" x="1148.23" y="-209.162" font-family="Times,serif" font-size="9.00">OnTarget</text>
</g>
<!-- OnTarget&#45;&gt;Shoot -->
<g id="edge46" class="edge"><title>OnTarget&#45;&gt;Shoot</title>
<path fill="none" stroke="red" stroke-width="0.283117" stroke-dasharray="1,5" d="M1160.52,-202.289C1166.85,-198.329 1174.78,-193.668 1182.23,-190.149 1278.68,-144.611 1398.99,-106.126 1457.7,-88.4527"/>
<polygon fill="red" stroke="red" stroke-width="0.283117" points="1459,-91.7144 1467.58,-85.4974 1457,-85.0075 1459,-91.7144"/>
</g>
<!-- OnTarget&#45;&gt;Move Forward/Backward -->
<g id="edge50" class="edge"><title>OnTarget&#45;&gt;Move Forward/Backward</title>
<path fill="none" stroke="green" stroke-width="0.235319" d="M1137.16,-202.218C1130.77,-197.933 1122.41,-192.992 1114.23,-190.149 1000.31,-150.526 964.69,-170.88 845.235,-154.149 692.425,-132.747 514.576,-106.422 411.46,-91.0186"/>
<polygon fill="green" stroke="green" stroke-width="0.235319" points="411.819,-87.5334 401.411,-89.5167 410.784,-94.4565 411.819,-87.5334"/>
</g>
<!-- OnTarget&#45;&gt; Move Left/Right -->
<g id="edge54" class="edge"><title>OnTarget&#45;&gt; Move Left/Right</title>
<path fill="none" stroke="green" stroke-width="0.71728" d="M1158.98,-202.329C1165.39,-197.967 1173.89,-192.913 1182.23,-190.149 1329.42,-141.394 1376.81,-182.569 1529.23,-154.149 1605.26,-139.974 1690.81,-115.439 1747.11,-98.0688"/>
<polygon fill="green" stroke="green" stroke-width="0.71728" points="1748.41,-101.329 1756.93,-95.0213 1746.34,-94.6436 1748.41,-101.329"/>
</g>
<!-- OnTarget&#45;&gt;Turn left/right -->
<g id="edge33" class="edge"><title>OnTarget&#45;&gt;Turn left/right</title>
<path fill="none" stroke="red" stroke-width="0.388231" d="M1135.09,-202.33C1128.82,-198.556 1121.19,-194.041 1114.23,-190.149 1059.26,-159.373 995.157,-125.972 951.747,-103.714"/>
<polygon fill="red" stroke="red" stroke-width="0.388231" points="953.305,-100.58 942.808,-99.139 950.115,-106.811 953.305,-100.58"/>
</g>
<!-- bias -->
<g id="node23" class="node"><title>bias</title>
<polygon fill="lightgray" stroke="black" points="1746.73,-220.362 1715.73,-220.362 1715.73,-202.362 1746.73,-202.362 1746.73,-220.362"/>
<text text-anchor="middle" x="1731.23" y="-209.162" font-family="Times,serif" font-size="9.00">bias</text>
</g>
<!-- bias&#45;&gt;Shoot -->
<g id="edge17" class="edge"><title>bias&#45;&gt;Shoot</title>
<path fill="none" stroke="red" stroke-width="0.224293" d="M1721.83,-202.033C1717.28,-198.193 1711.64,-193.709 1706.23,-190.149 1645.72,-150.315 1569.47,-113.028 1526.56,-93.111"/>
<polygon fill="red" stroke="red" stroke-width="0.224293" points="1527.96,-89.9043 1517.41,-88.8965 1525.03,-96.2614 1527.96,-89.9043"/>
</g>
<!-- bias&#45;&gt; Move Left/Right -->
<g id="edge42" class="edge"><title>bias&#45;&gt; Move Left/Right</title>
<path fill="none" stroke="red" stroke-width="0.35924" d="M1736.11,-202.087C1744.17,-188.417 1760.92,-160.02 1776.35,-133.846"/>
<polygon fill="red" stroke="red" stroke-width="0.35924" points="1779.46,-135.471 1781.52,-125.08 1773.43,-131.916 1779.46,-135.471"/>
</g>
<!-- bias&#45;&gt;Turn left/right -->
<g id="edge7" class="edge"><title>bias&#45;&gt;Turn left/right</title>
<path fill="none" stroke="red" stroke-width="0.118731" d="M1723.21,-201.978C1718.65,-197.731 1712.58,-192.903 1706.23,-190.149 1701.89,-188.267 1139.31,-110.807 957.325,-85.7832"/>
<polygon fill="red" stroke="red" stroke-width="0.118731" points="957.801,-82.3159 947.417,-84.4211 956.847,-89.2506 957.801,-82.3159"/>
</g>
<!-- 267&#45;&gt;Shoot -->
<g id="edge61" class="edge"><title>267&#45;&gt;Shoot</title>
<path fill="none" stroke="red" stroke-width="0.17208" d="M1461.69,-190.843C1467.42,-170.376 1476.53,-137.793 1483.49,-112.901"/>
<polygon fill="red" stroke="red" stroke-width="0.17208" points="1486.91,-113.676 1486.23,-103.103 1480.17,-111.79 1486.91,-113.676"/>
</g>
<!-- 124&#45;&gt;Turn left/right -->
<g id="edge57" class="edge"><title>124&#45;&gt;Turn left/right</title>
<path fill="none" stroke="red" stroke-width="0.639157" d="M697.248,-198.632C701.459,-195.803 705.983,-192.826 710.235,-190.149 757.679,-160.287 813.04,-128.084 851.908,-105.894"/>
<polygon fill="red" stroke="red" stroke-width="0.639157" points="853.969,-108.748 860.926,-100.757 850.504,-102.666 853.969,-108.748"/>
</g>
</g>
</svg>
