<?xml version="1.0" encoding="UTF-8" standalone="no"?>
<!DOCTYPE svg PUBLIC "-//W3C//DTD SVG 1.1//EN"
 "http://www.w3.org/Graphics/SVG/1.1/DTD/svg11.dtd">
<!-- Generated by graphviz version 2.38.0 (20140413.2041)
 -->
<!-- Title: %3 Pages: 1 -->
<svg width="2519pt" height="172pt"
 viewBox="0.00 0.00 2519.00 172.31" xmlns="http://www.w3.org/2000/svg" xmlns:xlink="http://www.w3.org/1999/xlink">
<g id="graph0" class="graph" transform="scale(1 1) rotate(0) translate(4 168.309)">
<title>%3</title>
<polygon fill="white" stroke="none" points="-4,4 -4,-168.309 2515,-168.309 2515,4 -4,4"/>
<!-- wallRadar[1,0] -->
<g id="node1" class="node"><title>wallRadar[1,0]</title>
<polygon fill="lightgray" stroke="black" points="1117,-164.309 1047,-164.309 1047,-146.309 1117,-146.309 1117,-164.309"/>
<text text-anchor="middle" x="1082" y="-153.109" font-family="Times,serif" font-size="9.00">wallRadar[1,0]</text>
</g>
<!-- Move Forward -->
<g id="node25" class="node"><title>Move Forward</title>
<ellipse fill="lightblue" stroke="black" cx="741" cy="-55.1543" rx="50.41" ry="50.41"/>
<text text-anchor="middle" x="741" y="-52.9543" font-family="Times,serif" font-size="9.00">Move Forward</text>
</g>
<!-- wallRadar[1,0]&#45;&gt;Move Forward -->
<g id="edge41" class="edge"><title>wallRadar[1,0]&#45;&gt;Move Forward</title>
<path fill="none" stroke="red" stroke-width="0.163441" d="M1046.95,-147.88C1043.92,-147.342 1040.91,-146.812 1038,-146.309 940.806,-129.485 910.423,-147.345 819,-110.309 808.364,-106 797.745,-100.031 787.921,-93.622"/>
<polygon fill="red" stroke="red" stroke-width="0.163441" points="789.749,-90.633 779.511,-87.908 785.815,-96.423 789.749,-90.633"/>
</g>
<!--  Move Backward -->
<g id="node26" class="node"><title> Move Backward</title>
<ellipse fill="lightblue" stroke="black" cx="1209" cy="-55.1543" rx="55.3091" ry="55.3091"/>
<text text-anchor="middle" x="1209" y="-52.9543" font-family="Times,serif" font-size="9.00"> Move Backward</text>
</g>
<!-- wallRadar[1,0]&#45;&gt; Move Backward -->
<g id="edge25" class="edge"><title>wallRadar[1,0]&#45;&gt; Move Backward</title>
<path fill="none" stroke="green" stroke-width="0.229116" d="M1092.39,-146.276C1106.66,-135.252 1133.29,-114.665 1157.51,-95.9483"/>
<polygon fill="green" stroke="green" stroke-width="0.229116" points="1159.84,-98.5735 1165.61,-89.689 1155.56,-93.0349 1159.84,-98.5735"/>
</g>
<!-- Move Left -->
<g id="node27" class="node"><title>Move Left</title>
<ellipse fill="lightblue" stroke="black" cx="1051" cy="-55.1543" rx="38.3684" ry="38.3684"/>
<text text-anchor="middle" x="1051" y="-52.9543" font-family="Times,serif" font-size="9.00">Move Left</text>
</g>
<!-- wallRadar[1,0]&#45;&gt;Move Left -->
<g id="edge81" class="edge"><title>wallRadar[1,0]&#45;&gt;Move Left</title>
<path fill="none" stroke="red" stroke-width="0.202885" d="M1079.46,-146.276C1076.34,-136.402 1070.8,-118.855 1065.43,-101.852"/>
<polygon fill="red" stroke="red" stroke-width="0.202885" points="1068.66,-100.447 1062.31,-91.9657 1061.98,-102.555 1068.66,-100.447"/>
</g>
<!-- Turn Right -->
<g id="node30" class="node"><title>Turn Right</title>
<ellipse fill="lightblue" stroke="black" cx="1554" cy="-55.1543" rx="39.6962" ry="39.6962"/>
<text text-anchor="middle" x="1554" y="-52.9543" font-family="Times,serif" font-size="9.00">Turn Right</text>
</g>
<!-- wallRadar[1,0]&#45;&gt;Turn Right -->
<g id="edge43" class="edge"><title>wallRadar[1,0]&#45;&gt;Turn Right</title>
<path fill="none" stroke="red" stroke-width="0.129695" d="M1117.09,-147.011C1200.37,-129.693 1410.08,-86.0827 1505.45,-66.2515"/>
<polygon fill="red" stroke="red" stroke-width="0.129695" points="1506.32,-69.6436 1515.4,-64.1809 1504.9,-62.7902 1506.32,-69.6436"/>
</g>
<!-- wallRadar[0,1] -->
<g id="node2" class="node"><title>wallRadar[0,1]</title>
<polygon fill="lightgray" stroke="black" points="889,-164.309 819,-164.309 819,-146.309 889,-146.309 889,-164.309"/>
<text text-anchor="middle" x="854" y="-153.109" font-family="Times,serif" font-size="9.00">wallRadar[0,1]</text>
</g>
<!-- wallRadar[0,1]&#45;&gt;Move Forward -->
<g id="edge34" class="edge"><title>wallRadar[0,1]&#45;&gt;Move Forward</title>
<path fill="none" stroke="green" stroke-width="0.102869" d="M844.753,-146.276C831.928,-135.136 807.861,-114.231 786.134,-95.3586"/>
<polygon fill="green" stroke="green" stroke-width="0.102869" points="788.413,-92.7026 778.568,-88.7872 783.823,-97.9873 788.413,-92.7026"/>
</g>
<!-- wallRadar[0,1]&#45;&gt; Move Backward -->
<g id="edge77" class="edge"><title>wallRadar[0,1]&#45;&gt; Move Backward</title>
<path fill="none" stroke="red" stroke-width="0.222371" d="M889.063,-147.928C892.086,-147.379 895.097,-146.834 898,-146.309 986.875,-130.23 1012.15,-138.376 1098,-110.309 1116.14,-104.377 1135.09,-96.023 1152.09,-87.6481"/>
<polygon fill="red" stroke="red" stroke-width="0.222371" points="1153.95,-90.6285 1161.31,-83.0085 1150.8,-84.3748 1153.95,-90.6285"/>
</g>
<!-- wallRadar[0,1]&#45;&gt;Move Left -->
<g id="edge2" class="edge"><title>wallRadar[0,1]&#45;&gt;Move Left</title>
<path fill="none" stroke="green" stroke-width="0.16659" d="M870.121,-146.276C899.914,-131.432 964.503,-99.2509 1007.88,-77.6411"/>
<polygon fill="green" stroke="green" stroke-width="0.16659" points="1009.67,-80.6584 1017.06,-73.0661 1006.55,-74.393 1009.67,-80.6584"/>
</g>
<!-- Move right -->
<g id="node28" class="node"><title>Move right</title>
<ellipse fill="lightblue" stroke="black" cx="1792" cy="-55.1543" rx="39.6962" ry="39.6962"/>
<text text-anchor="middle" x="1792" y="-52.9543" font-family="Times,serif" font-size="9.00">Move right</text>
</g>
<!-- wallRadar[0,1]&#45;&gt;Move right -->
<g id="edge28" class="edge"><title>wallRadar[0,1]&#45;&gt;Move right</title>
<path fill="none" stroke="green" stroke-width="0.151909" d="M889.004,-147.524C892.039,-147.064 895.069,-146.648 898,-146.309 1209.65,-110.172 1293.52,-161.853 1603,-110.309 1652.45,-102.072 1707.37,-85.4611 1745.21,-72.796"/>
<polygon fill="green" stroke="green" stroke-width="0.151909" points="1746.58,-76.0274 1754.93,-69.5039 1744.33,-69.3975 1746.58,-76.0274"/>
</g>
<!-- Turn Left -->
<g id="node29" class="node"><title>Turn Left</title>
<ellipse fill="lightblue" stroke="black" cx="863" cy="-55.1543" rx="35.2113" ry="35.2113"/>
<text text-anchor="middle" x="863" y="-52.9543" font-family="Times,serif" font-size="9.00">Turn Left</text>
</g>
<!-- wallRadar[0,1]&#45;&gt;Turn Left -->
<g id="edge38" class="edge"><title>wallRadar[0,1]&#45;&gt;Turn Left</title>
<path fill="none" stroke="green" stroke-width="0.222442" d="M854.737,-146.276C855.663,-136.172 857.326,-118.035 858.919,-100.667"/>
<polygon fill="green" stroke="green" stroke-width="0.222442" points="862.414,-100.874 859.842,-90.596 855.443,-100.235 862.414,-100.874"/>
</g>
<!-- wallRadar[&#45;1,0] -->
<g id="node3" class="node"><title>wallRadar[&#45;1,0]</title>
<polygon fill="lightgray" stroke="black" points="663.5,-164.309 590.5,-164.309 590.5,-146.309 663.5,-146.309 663.5,-164.309"/>
<text text-anchor="middle" x="627" y="-153.109" font-family="Times,serif" font-size="9.00">wallRadar[&#45;1,0]</text>
</g>
<!-- wallRadar[&#45;1,0]&#45;&gt; Move Backward -->
<g id="edge26" class="edge"><title>wallRadar[&#45;1,0]&#45;&gt; Move Backward</title>
<path fill="none" stroke="red" stroke-width="0.212211" d="M663.794,-147.484C666.567,-147.057 669.325,-146.659 672,-146.309 860.402,-121.654 914.83,-160.826 1098,-110.309 1116.49,-105.21 1135.6,-97.0641 1152.66,-88.6225"/>
<polygon fill="red" stroke="red" stroke-width="0.212211" points="1154.57,-91.5738 1161.9,-83.9197 1151.4,-85.3349 1154.57,-91.5738"/>
</g>
<!-- wallRadar[&#45;1,0]&#45;&gt;Move Left -->
<g id="edge60" class="edge"><title>wallRadar[&#45;1,0]&#45;&gt;Move Left</title>
<path fill="none" stroke="green" stroke-width="0.267444" d="M663.819,-147.656C666.586,-147.189 669.336,-146.735 672,-146.309 784.151,-128.366 815.649,-141.001 925,-110.309 953.636,-102.271 984.327,-89.1832 1008.25,-77.8874"/>
<polygon fill="green" stroke="green" stroke-width="0.267444" points="1009.89,-80.9802 1017.4,-73.4998 1006.87,-74.6686 1009.89,-80.9802"/>
</g>
<!-- wallRadar[&#45;1,0]&#45;&gt;Turn Left -->
<g id="edge76" class="edge"><title>wallRadar[&#45;1,0]&#45;&gt;Turn Left</title>
<path fill="none" stroke="green" stroke-width="0.10846" d="M663.628,-147.186C715.335,-136.932 804.925,-118.36 818,-110.309 825.332,-105.794 832.036,-99.6638 837.902,-93.1491"/>
<polygon fill="green" stroke="green" stroke-width="0.10846" points="840.656,-95.3126 844.392,-85.3984 835.288,-90.8188 840.656,-95.3126"/>
</g>
<!-- wallRadar[0,&#45;1] -->
<g id="node4" class="node"><title>wallRadar[0,&#45;1]</title>
<polygon fill="lightgray" stroke="black" points="1741.5,-164.309 1668.5,-164.309 1668.5,-146.309 1741.5,-146.309 1741.5,-164.309"/>
<text text-anchor="middle" x="1705" y="-153.109" font-family="Times,serif" font-size="9.00">wallRadar[0,&#45;1]</text>
</g>
<!-- Shoot -->
<g id="node24" class="node"><title>Shoot</title>
<ellipse fill="lightblue" stroke="black" cx="2068" cy="-55.1543" rx="26.7407" ry="26.7407"/>
<text text-anchor="middle" x="2068" y="-52.9543" font-family="Times,serif" font-size="9.00">Shoot</text>
</g>
<!-- wallRadar[0,&#45;1]&#45;&gt;Shoot -->
<g id="edge51" class="edge"><title>wallRadar[0,&#45;1]&#45;&gt;Shoot</title>
<path fill="none" stroke="green" stroke-width="0.252834" d="M1734.71,-146.276C1800.88,-128.384 1960.2,-85.3043 2031.93,-65.9085"/>
<polygon fill="green" stroke="green" stroke-width="0.252834" points="2033.11,-69.2134 2041.85,-63.2244 2031.29,-62.4561 2033.11,-69.2134"/>
</g>
<!-- wallRadar[0,&#45;1]&#45;&gt;Move Forward -->
<g id="edge42" class="edge"><title>wallRadar[0,&#45;1]&#45;&gt;Move Forward</title>
<path fill="none" stroke="red" stroke-width="0.428661" d="M1668.22,-147.359C1665.44,-146.96 1662.68,-146.603 1660,-146.309 1474.06,-125.893 996.278,-170.009 819,-110.309 808.004,-106.606 797.158,-100.845 787.212,-94.4389"/>
<polygon fill="red" stroke="red" stroke-width="0.428661" points="788.961,-91.3963 778.721,-88.6781 785.031,-97.1889 788.961,-91.3963"/>
</g>
<!-- wallRadar[0,&#45;1]&#45;&gt; Move Backward -->
<g id="edge61" class="edge"><title>wallRadar[0,&#45;1]&#45;&gt; Move Backward</title>
<path fill="none" stroke="red" stroke-width="0.224725" d="M1668.12,-147.011C1584.17,-130.398 1377.95,-89.5878 1272.84,-68.7868"/>
<polygon fill="red" stroke="red" stroke-width="0.224725" points="1273.48,-65.3457 1262.99,-66.8377 1272.12,-72.2125 1273.48,-65.3457"/>
</g>
<!-- wallRadar[0,&#45;1]&#45;&gt;Move right -->
<g id="edge59" class="edge"><title>wallRadar[0,&#45;1]&#45;&gt;Move right</title>
<path fill="none" stroke="red" stroke-width="0.400712" d="M1712.12,-146.276C1722.44,-134.635 1742.21,-112.332 1759.49,-92.8269"/>
<polygon fill="red" stroke="red" stroke-width="0.400712" points="1762.21,-95.0437 1766.22,-85.2386 1756.97,-90.4005 1762.21,-95.0437"/>
</g>
<!-- wallRadar[0,&#45;1]&#45;&gt;Turn Left -->
<g id="edge68" class="edge"><title>wallRadar[0,&#45;1]&#45;&gt;Turn Left</title>
<path fill="none" stroke="red" stroke-width="0.39231" d="M1668.22,-147.395C1665.44,-146.988 1662.68,-146.619 1660,-146.309 1369.95,-112.693 1289.53,-171.395 1004,-110.309 969.134,-102.85 931.529,-88.0372 903.93,-75.7867"/>
<polygon fill="red" stroke="red" stroke-width="0.39231" points="905.161,-72.5021 894.606,-71.5767 902.28,-78.8819 905.161,-72.5021"/>
</g>
<!-- wallRadar[0,&#45;1]&#45;&gt;Turn Right -->
<g id="edge50" class="edge"><title>wallRadar[0,&#45;1]&#45;&gt;Turn Right</title>
<path fill="none" stroke="red" stroke-width="0.112529" d="M1692.64,-146.276C1671.63,-132.617 1628.03,-104.276 1595.3,-83.0021"/>
<polygon fill="red" stroke="red" stroke-width="0.112529" points="1597.1,-79.9991 1586.81,-77.4835 1593.29,-85.8682 1597.1,-79.9991"/>
</g>
<!-- wallRadar[0.7,0.7] -->
<g id="node5" class="node"><title>wallRadar[0.7,0.7]</title>
<polygon fill="lightgray" stroke="black" points="1650.5,-164.309 1567.5,-164.309 1567.5,-146.309 1650.5,-146.309 1650.5,-164.309"/>
<text text-anchor="middle" x="1609" y="-153.109" font-family="Times,serif" font-size="9.00">wallRadar[0.7,0.7]</text>
</g>
<!-- wallRadar[0.7,0.7]&#45;&gt;Move Forward -->
<g id="edge1" class="edge"><title>wallRadar[0.7,0.7]&#45;&gt;Move Forward</title>
<path fill="none" stroke="red" stroke-width="0.156939" d="M1567.3,-147.395C1564.16,-146.989 1561.03,-146.619 1558,-146.309 1394.44,-129.545 974.663,-163.241 819,-110.309 808.015,-106.573 797.174,-100.798 787.229,-94.3878"/>
<polygon fill="red" stroke="red" stroke-width="0.156939" points="788.978,-91.3452 778.738,-88.6259 785.048,-97.1374 788.978,-91.3452"/>
</g>
<!-- wallRadar[0.7,0.7]&#45;&gt; Move Backward -->
<g id="edge84" class="edge"><title>wallRadar[0.7,0.7]&#45;&gt; Move Backward</title>
<path fill="none" stroke="red" stroke-width="0.268447" d="M1576.27,-146.276C1509.95,-130.003 1358.72,-92.8931 1272.43,-71.7181"/>
<polygon fill="red" stroke="red" stroke-width="0.268447" points="1273.04,-68.2642 1262.49,-69.2801 1271.37,-75.0625 1273.04,-68.2642"/>
</g>
<!-- wallRadar[0.7,0.7]&#45;&gt;Move right -->
<g id="edge70" class="edge"><title>wallRadar[0.7,0.7]&#45;&gt;Move right</title>
<path fill="none" stroke="red" stroke-width="0.405203" d="M1623.98,-146.276C1650.82,-131.877 1708.09,-101.163 1748.27,-79.6102"/>
<polygon fill="red" stroke="red" stroke-width="0.405203" points="1750.17,-82.5636 1757.33,-74.7526 1746.86,-76.3949 1750.17,-82.5636"/>
</g>
<!-- wallRadar[0.7,0.7]&#45;&gt;Turn Right -->
<g id="edge31" class="edge"><title>wallRadar[0.7,0.7]&#45;&gt;Turn Right</title>
<path fill="none" stroke="green" stroke-width="0.123233" d="M1604.5,-146.276C1598.69,-135.905 1588.13,-117.071 1578.17,-99.2924"/>
<polygon fill="green" stroke="green" stroke-width="0.123233" points="1580.99,-97.1547 1573.04,-90.1418 1574.88,-100.577 1580.99,-97.1547"/>
</g>
<!-- wallRadar[&#45;0.7,0.7] -->
<g id="node6" class="node"><title>wallRadar[&#45;0.7,0.7]</title>
<polygon fill="lightgray" stroke="black" points="1221,-164.309 1135,-164.309 1135,-146.309 1221,-146.309 1221,-164.309"/>
<text text-anchor="middle" x="1178" y="-153.109" font-family="Times,serif" font-size="9.00">wallRadar[&#45;0.7,0.7]</text>
</g>
<!-- wallRadar[&#45;0.7,0.7]&#45;&gt;Shoot -->
<g id="edge30" class="edge"><title>wallRadar[&#45;0.7,0.7]&#45;&gt;Shoot</title>
<path fill="none" stroke="red" stroke-width="0.276929" d="M1221.09,-147.355C1224.1,-146.969 1227.09,-146.615 1230,-146.309 1508.47,-116.986 1582.36,-153.635 1859,-110.309 1921.26,-100.557 1991.9,-80.2546 2033.04,-67.467"/>
<polygon fill="red" stroke="red" stroke-width="0.276929" points="2034.11,-70.8017 2042.6,-64.4673 2032.01,-64.123 2034.11,-70.8017"/>
</g>
<!-- wallRadar[&#45;0.7,0.7]&#45;&gt;Move Forward -->
<g id="edge54" class="edge"><title>wallRadar[&#45;0.7,0.7]&#45;&gt;Move Forward</title>
<path fill="none" stroke="red" stroke-width="0.304558" d="M1134.89,-147.554C1131.88,-147.121 1128.9,-146.701 1126,-146.309 989.865,-127.861 947.485,-158.936 819,-110.309 808.148,-106.202 797.368,-100.26 787.439,-93.8018"/>
<polygon fill="red" stroke="red" stroke-width="0.304558" points="789.19,-90.7596 778.953,-88.0272 785.252,-96.5467 789.19,-90.7596"/>
</g>
<!-- wallRadar[&#45;0.7,0.7]&#45;&gt; Move Backward -->
<g id="edge69" class="edge"><title>wallRadar[&#45;0.7,0.7]&#45;&gt; Move Backward</title>
<path fill="none" stroke="green" stroke-width="0.281711" d="M1180.54,-146.276C1182.68,-139.48 1185.98,-129.05 1189.57,-117.663"/>
<polygon fill="green" stroke="green" stroke-width="0.281711" points="1192.97,-118.523 1192.65,-107.933 1186.3,-116.415 1192.97,-118.523"/>
</g>
<!-- wallRadar[&#45;0.7,0.7]&#45;&gt;Move Left -->
<g id="edge4" class="edge"><title>wallRadar[&#45;0.7,0.7]&#45;&gt;Move Left</title>
<path fill="none" stroke="green" stroke-width="0.154112" d="M1167.61,-146.276C1150.64,-133.164 1116.17,-106.526 1089.09,-85.5944"/>
<polygon fill="green" stroke="green" stroke-width="0.154112" points="1091,-82.6488 1080.95,-79.3029 1086.72,-88.1874 1091,-82.6488"/>
</g>
<!-- wallRadar[&#45;0.7,&#45;0.7] -->
<g id="node7" class="node"><title>wallRadar[&#45;0.7,&#45;0.7]</title>
<polygon fill="lightgray" stroke="black" points="1953.5,-164.309 1864.5,-164.309 1864.5,-146.309 1953.5,-146.309 1953.5,-164.309"/>
<text text-anchor="middle" x="1909" y="-153.109" font-family="Times,serif" font-size="9.00">wallRadar[&#45;0.7,&#45;0.7]</text>
</g>
<!-- wallRadar[&#45;0.7,&#45;0.7]&#45;&gt; Move Backward -->
<g id="edge55" class="edge"><title>wallRadar[&#45;0.7,&#45;0.7]&#45;&gt; Move Backward</title>
<path fill="none" stroke="red" stroke-width="0.339069" d="M1864.23,-147.519C1861.11,-147.094 1858.01,-146.686 1855,-146.309 1699.84,-126.845 1659.81,-132.397 1505,-110.309 1424.58,-98.8337 1332.64,-81.3175 1272.85,-69.3335"/>
<polygon fill="red" stroke="red" stroke-width="0.339069" points="1273.3,-65.8537 1262.81,-67.3114 1271.92,-72.716 1273.3,-65.8537"/>
</g>
<!-- wallRadar[&#45;0.7,&#45;0.7]&#45;&gt;Move right -->
<g id="edge17" class="edge"><title>wallRadar[&#45;0.7,&#45;0.7]&#45;&gt;Move right</title>
<path fill="none" stroke="red" stroke-width="0.21823" d="M1899.43,-146.276C1884.36,-133.634 1854.3,-108.417 1829.8,-87.8647"/>
<polygon fill="red" stroke="red" stroke-width="0.21823" points="1831.98,-85.1234 1822.07,-81.3777 1827.48,-90.4862 1831.98,-85.1234"/>
</g>
<!-- wallRadar[0.7,&#45;0.7] -->
<g id="node8" class="node"><title>wallRadar[0.7,&#45;0.7]</title>
<polygon fill="lightgray" stroke="black" points="1846,-164.309 1760,-164.309 1760,-146.309 1846,-146.309 1846,-164.309"/>
<text text-anchor="middle" x="1803" y="-153.109" font-family="Times,serif" font-size="9.00">wallRadar[0.7,&#45;0.7]</text>
</g>
<!-- wallRadar[0.7,&#45;0.7]&#45;&gt;Shoot -->
<g id="edge19" class="edge"><title>wallRadar[0.7,&#45;0.7]&#45;&gt;Shoot</title>
<path fill="none" stroke="green" stroke-width="0.193302" d="M1824.69,-146.276C1870.63,-129.259 1978.09,-89.4548 2033.55,-68.9161"/>
<polygon fill="green" stroke="green" stroke-width="0.193302" points="2034.78,-72.1895 2042.95,-65.434 2032.35,-65.6253 2034.78,-72.1895"/>
</g>
<!-- wallRadar[0.7,&#45;0.7]&#45;&gt; Move Backward -->
<g id="edge72" class="edge"><title>wallRadar[0.7,&#45;0.7]&#45;&gt; Move Backward</title>
<path fill="none" stroke="green" stroke-width="0.186683" d="M1759.87,-147.649C1756.87,-147.193 1753.89,-146.742 1751,-146.309 1641.73,-129.908 1614.03,-128.254 1505,-110.309 1424.96,-97.1349 1333.13,-80.0201 1273.25,-68.591"/>
<polygon fill="green" stroke="green" stroke-width="0.186683" points="1273.66,-65.1072 1263.18,-66.6663 1272.35,-71.9826 1273.66,-65.1072"/>
</g>
<!-- wallRadar[0.7,&#45;0.7]&#45;&gt;Move Left -->
<g id="edge56" class="edge"><title>wallRadar[0.7,&#45;0.7]&#45;&gt;Move Left</title>
<path fill="none" stroke="green" stroke-width="0.230175" d="M1759.91,-147.363C1756.9,-146.975 1753.91,-146.618 1751,-146.309 1616.85,-132.037 1274.23,-149.014 1145,-110.309 1125.82,-104.564 1106.36,-94.251 1090.16,-84.155"/>
<polygon fill="green" stroke="green" stroke-width="0.230175" points="1091.82,-81.0626 1081.51,-78.5987 1088.03,-86.9507 1091.82,-81.0626"/>
</g>
<!-- enemyRadar[RightBack] -->
<g id="node9" class="node"><title>enemyRadar[RightBack]</title>
<polygon fill="lightgray" stroke="black" points="2511,-164.309 2407,-164.309 2407,-146.309 2511,-146.309 2511,-164.309"/>
<text text-anchor="middle" x="2459" y="-153.109" font-family="Times,serif" font-size="9.00">enemyRadar[RightBack]</text>
</g>
<!-- enemyRadar[RightBack]&#45;&gt;Shoot -->
<g id="edge82" class="edge"><title>enemyRadar[RightBack]&#45;&gt;Shoot</title>
<path fill="none" stroke="green" stroke-width="0.25811" d="M2427,-146.276C2354.89,-128.173 2180.05,-84.2819 2104.15,-65.2304"/>
<polygon fill="green" stroke="green" stroke-width="0.25811" points="2104.67,-61.7525 2094.12,-62.7123 2102.97,-68.5418 2104.67,-61.7525"/>
</g>
<!-- enemyRadar[RightBack]&#45;&gt;Turn Right -->
<g id="edge15" class="edge"><title>enemyRadar[RightBack]&#45;&gt;Turn Right</title>
<path fill="none" stroke="red" stroke-width="0.136553" d="M2406.79,-147.197C2403.82,-146.875 2400.87,-146.575 2398,-146.309 2107.7,-119.334 2030.5,-158.766 1743,-110.309 1693.56,-101.976 1638.64,-85.3792 1600.8,-72.7436"/>
<polygon fill="red" stroke="red" stroke-width="0.136553" points="1601.68,-69.3449 1591.08,-69.4598 1599.44,-75.9766 1601.68,-69.3449"/>
</g>
<!-- enemyRadar[LeftBack] -->
<g id="node10" class="node"><title>enemyRadar[LeftBack]</title>
<polygon fill="lightgray" stroke="black" points="2320.5,-164.309 2221.5,-164.309 2221.5,-146.309 2320.5,-146.309 2320.5,-164.309"/>
<text text-anchor="middle" x="2271" y="-153.109" font-family="Times,serif" font-size="9.00">enemyRadar[LeftBack]</text>
</g>
<!-- enemyRadar[LeftBack]&#45;&gt;Shoot -->
<g id="edge7" class="edge"><title>enemyRadar[LeftBack]&#45;&gt;Shoot</title>
<path fill="none" stroke="green" stroke-width="0.486801" d="M2254.39,-146.276C2220.95,-130.11 2144.99,-93.3798 2101.06,-72.1375"/>
<polygon fill="green" stroke="green" stroke-width="0.486801" points="2102.46,-68.928 2091.93,-67.7259 2099.41,-75.23 2102.46,-68.928"/>
</g>
<!-- enemyRadar[LeftBack]&#45;&gt; Move Backward -->
<g id="edge67" class="edge"><title>enemyRadar[LeftBack]&#45;&gt; Move Backward</title>
<path fill="none" stroke="green" stroke-width="0.11556" d="M2221.36,-147.175C2218.53,-146.858 2215.73,-146.566 2213,-146.309 1899.32,-116.756 1817.96,-146.737 1505,-110.309 1424.31,-100.916 1332.43,-82.9524 1272.73,-70.2961"/>
<polygon fill="green" stroke="green" stroke-width="0.11556" points="1273.21,-66.8199 1262.7,-68.1556 1271.75,-73.6657 1273.21,-66.8199"/>
</g>
<!-- enemyRadar[LeftBack]&#45;&gt;Move right -->
<g id="edge21" class="edge"><title>enemyRadar[LeftBack]&#45;&gt;Move right</title>
<path fill="none" stroke="red" stroke-width="0.260595" d="M2224.18,-146.258C2175.92,-137.826 2098.55,-123.936 2032,-110.309 1965.39,-96.668 1888.83,-79.0534 1840.44,-67.6805"/>
<polygon fill="red" stroke="red" stroke-width="0.260595" points="1841.09,-64.2384 1830.56,-65.352 1839.49,-71.0519 1841.09,-64.2384"/>
</g>
<!-- enemyRadar[LeftBack]&#45;&gt;Turn Right -->
<g id="edge13" class="edge"><title>enemyRadar[LeftBack]&#45;&gt;Turn Right</title>
<path fill="none" stroke="red" stroke-width="0.179797" d="M2221.35,-147.259C2218.53,-146.921 2215.73,-146.601 2213,-146.309 2004.69,-123.986 1949.2,-147.352 1743,-110.309 1693.66,-101.444 1638.72,-84.9257 1600.85,-72.4536"/>
<polygon fill="red" stroke="red" stroke-width="0.179797" points="1601.72,-69.0532 1591.12,-69.2153 1599.51,-75.6949 1601.72,-69.0532"/>
</g>
<!-- enemyRadar[Right45ø] -->
<g id="node11" class="node"><title>enemyRadar[Right45ø]</title>
<polygon fill="lightgray" stroke="black" points="1549,-164.309 1449,-164.309 1449,-146.309 1549,-146.309 1549,-164.309"/>
<text text-anchor="middle" x="1499" y="-153.109" font-family="Times,serif" font-size="9.00">enemyRadar[Right45ø]</text>
</g>
<!-- enemyRadar[Right45ø]&#45;&gt; Move Backward -->
<g id="edge64" class="edge"><title>enemyRadar[Right45ø]&#45;&gt; Move Backward</title>
<path fill="none" stroke="red" stroke-width="0.314676" d="M1475.27,-146.276C1431.01,-131.295 1334.57,-98.6554 1270.72,-77.0455"/>
<polygon fill="red" stroke="red" stroke-width="0.314676" points="1271.75,-73.6994 1261.16,-73.8086 1269.51,-80.3299 1271.75,-73.6994"/>
</g>
<!-- enemyRadar[Right45ø]&#45;&gt;Move Left -->
<g id="edge11" class="edge"><title>enemyRadar[Right45ø]&#45;&gt;Move Left</title>
<path fill="none" stroke="red" stroke-width="0.408866" d="M1448.79,-147.455C1445.82,-147.063 1442.87,-146.678 1440,-146.309 1309,-129.435 1270.29,-152.115 1145,-110.309 1126.01,-103.971 1106.58,-93.5579 1090.35,-83.5471"/>
<polygon fill="red" stroke="red" stroke-width="0.408866" points="1092.01,-80.4535 1081.69,-78.0553 1088.26,-86.3656 1092.01,-80.4535"/>
</g>
<!-- enemyRadar[Right45ø]&#45;&gt;Turn Right -->
<g id="edge40" class="edge"><title>enemyRadar[Right45ø]&#45;&gt;Turn Right</title>
<path fill="none" stroke="red" stroke-width="0.260632" d="M1503.5,-146.276C1509.31,-135.905 1519.87,-117.071 1529.83,-99.2924"/>
<polygon fill="red" stroke="red" stroke-width="0.260632" points="1533.12,-100.577 1534.96,-90.1418 1527.01,-97.1547 1533.12,-100.577"/>
</g>
<!-- enemyRadar[Left45ø] -->
<g id="node12" class="node"><title>enemyRadar[Left45ø]</title>
<polygon fill="lightgray" stroke="black" points="2203.5,-164.309 2108.5,-164.309 2108.5,-146.309 2203.5,-146.309 2203.5,-164.309"/>
<text text-anchor="middle" x="2156" y="-153.109" font-family="Times,serif" font-size="9.00">enemyRadar[Left45ø]</text>
</g>
<!-- enemyRadar[Left45ø]&#45;&gt;Shoot -->
<g id="edge52" class="edge"><title>enemyRadar[Left45ø]&#45;&gt;Shoot</title>
<path fill="none" stroke="red" stroke-width="0.702465" d="M2148.8,-146.276C2136.59,-132.657 2111.29,-104.442 2092.24,-83.1886"/>
<polygon fill="red" stroke="red" stroke-width="0.702465" points="2094.82,-80.8227 2085.54,-75.7134 2089.61,-85.4956 2094.82,-80.8227"/>
</g>
<!-- enemyRadar[Left45ø]&#45;&gt;Move Left -->
<g id="edge12" class="edge"><title>enemyRadar[Left45ø]&#45;&gt;Move Left</title>
<path fill="none" stroke="red" stroke-width="0.377511" d="M2108.38,-147.162C2105.55,-146.844 2102.74,-146.555 2100,-146.309 1888.48,-127.266 1349.09,-169.034 1145,-110.309 1125.76,-104.772 1106.29,-94.4943 1090.09,-84.3684"/>
<polygon fill="red" stroke="red" stroke-width="0.377511" points="1091.76,-81.276 1081.46,-78.7895 1087.96,-87.1558 1091.76,-81.276"/>
</g>
<!-- enemyRadar[Left45ø]&#45;&gt;Move right -->
<g id="edge58" class="edge"><title>enemyRadar[Left45ø]&#45;&gt;Move right</title>
<path fill="none" stroke="red" stroke-width="0.579687" d="M2126.21,-146.276C2063.24,-129.297 1916.16,-89.6334 1839.84,-69.0547"/>
<polygon fill="red" stroke="red" stroke-width="0.579687" points="1840.57,-65.6263 1830,-66.402 1838.75,-72.3849 1840.57,-65.6263"/>
</g>
<!-- enemyRadar[Left45ø]&#45;&gt;Turn Right -->
<g id="edge39" class="edge"><title>enemyRadar[Left45ø]&#45;&gt;Turn Right</title>
<path fill="none" stroke="green" stroke-width="0.194018" d="M2108.36,-147.366C2105.53,-146.997 2102.73,-146.641 2100,-146.309 1941.7,-127.028 1899.61,-140.391 1743,-110.309 1693.77,-100.852 1638.81,-84.4204 1600.91,-72.1305"/>
<polygon fill="green" stroke="green" stroke-width="0.194018" points="1601.77,-68.728 1591.17,-68.9429 1599.59,-75.3805 1601.77,-68.728"/>
</g>
<!-- enemyRadar[RightFront20ø] -->
<g id="node13" class="node"><title>enemyRadar[RightFront20ø]</title>
<polygon fill="lightgray" stroke="black" points="2090.5,-164.309 1971.5,-164.309 1971.5,-146.309 2090.5,-146.309 2090.5,-164.309"/>
<text text-anchor="middle" x="2031" y="-153.109" font-family="Times,serif" font-size="9.00">enemyRadar[RightFront20ø]</text>
</g>
<!-- enemyRadar[RightFront20ø]&#45;&gt; Move Backward -->
<g id="edge20" class="edge"><title>enemyRadar[RightFront20ø]&#45;&gt; Move Backward</title>
<path fill="none" stroke="green" stroke-width="0.218824" d="M1971.31,-147.154C1968.5,-146.859 1965.72,-146.576 1963,-146.309 1759.79,-126.376 1707.47,-136.716 1505,-110.309 1424.44,-99.8018 1332.54,-82.0776 1272.79,-69.781"/>
<polygon fill="green" stroke="green" stroke-width="0.218824" points="1273.25,-66.303 1262.75,-67.7039 1271.84,-73.1578 1273.25,-66.303"/>
</g>
<!-- enemyRadar[RightFront20ø]&#45;&gt;Move right -->
<g id="edge3" class="edge"><title>enemyRadar[RightFront20ø]&#45;&gt;Move right</title>
<path fill="none" stroke="red" stroke-width="0.235512" d="M2011.44,-146.276C1973.76,-130.802 1890.21,-96.4892 1837.77,-74.9501"/>
<polygon fill="red" stroke="red" stroke-width="0.235512" points="1838.93,-71.6458 1828.35,-71.0844 1836.27,-78.121 1838.93,-71.6458"/>
</g>
<!-- enemyRadar[RightFront20ø]&#45;&gt;Turn Right -->
<g id="edge74" class="edge"><title>enemyRadar[RightFront20ø]&#45;&gt;Turn Right</title>
<path fill="none" stroke="red" stroke-width="0.217105" d="M1972.67,-146.294C1901.57,-136.367 1785.62,-119.63 1743,-110.309 1694.18,-99.6303 1639.38,-83.4521 1601.41,-71.5582"/>
<polygon fill="red" stroke="red" stroke-width="0.217105" points="1602.24,-68.1501 1591.65,-68.4792 1600.13,-74.8258 1602.24,-68.1501"/>
</g>
<!-- enemyRadar[LeftFront20ø] -->
<g id="node14" class="node"><title>enemyRadar[LeftFront20ø]</title>
<polygon fill="lightgray" stroke="black" points="1353,-164.309 1239,-164.309 1239,-146.309 1353,-146.309 1353,-164.309"/>
<text text-anchor="middle" x="1296" y="-153.109" font-family="Times,serif" font-size="9.00">enemyRadar[LeftFront20ø]</text>
</g>
<!-- enemyRadar[LeftFront20ø]&#45;&gt;Shoot -->
<g id="edge8" class="edge"><title>enemyRadar[LeftFront20ø]&#45;&gt;Shoot</title>
<path fill="none" stroke="green" stroke-width="0.166679" d="M1353,-147.32C1356.38,-146.962 1359.73,-146.622 1363,-146.309 1583.01,-125.201 1640.91,-146.175 1859,-110.309 1921.19,-100.082 1991.84,-79.9283 2033.02,-67.299"/>
<polygon fill="green" stroke="green" stroke-width="0.166679" points="2034.06,-70.6395 2042.58,-64.3383 2031.99,-63.9526 2034.06,-70.6395"/>
</g>
<!-- enemyRadar[LeftFront20ø]&#45;&gt;Move Forward -->
<g id="edge18" class="edge"><title>enemyRadar[LeftFront20ø]&#45;&gt;Move Forward</title>
<path fill="none" stroke="green" stroke-width="0.142081" d="M1238.78,-147.254C1235.81,-146.926 1232.87,-146.608 1230,-146.309 1047.62,-127.274 991.429,-172.689 819,-110.309 808.089,-106.361 797.282,-100.491 787.346,-94.0537"/>
<polygon fill="green" stroke="green" stroke-width="0.142081" points="789.096,-91.0113 778.858,-88.2846 785.161,-96.8007 789.096,-91.0113"/>
</g>
<!-- enemyRadar[LeftFront20ø]&#45;&gt; Move Backward -->
<g id="edge10" class="edge"><title>enemyRadar[LeftFront20ø]&#45;&gt; Move Backward</title>
<path fill="none" stroke="red" stroke-width="0.330898" d="M1288.88,-146.276C1280.65,-136.99 1266.41,-120.92 1252.2,-104.897"/>
<polygon fill="red" stroke="red" stroke-width="0.330898" points="1254.51,-102.227 1245.26,-97.0654 1249.28,-106.871 1254.51,-102.227"/>
</g>
<!-- enemyRadar[LeftFront20ø]&#45;&gt;Turn Left -->
<g id="edge37" class="edge"><title>enemyRadar[LeftFront20ø]&#45;&gt;Turn Left</title>
<path fill="none" stroke="red" stroke-width="0.145003" d="M1238.9,-147.202C1166.87,-137.976 1047.19,-121.711 1004,-110.309 969.527,-101.207 931.897,-86.4969 904.189,-74.7034"/>
<polygon fill="red" stroke="red" stroke-width="0.145003" points="905.392,-71.4108 894.824,-70.6676 902.622,-77.8394 905.392,-71.4108"/>
</g>
<!-- enemyRadar[LeftFront20ø]&#45;&gt;Turn Right -->
<g id="edge73" class="edge"><title>enemyRadar[LeftFront20ø]&#45;&gt;Turn Right</title>
<path fill="none" stroke="red" stroke-width="0.195888" d="M1317.11,-146.276C1358.52,-130.522 1451.27,-95.2385 1507.64,-73.7911"/>
<polygon fill="red" stroke="red" stroke-width="0.195888" points="1508.94,-77.0413 1517.04,-70.2142 1506.45,-70.4988 1508.94,-77.0413"/>
</g>
<!-- enemyRadar[RightFront15ø] -->
<g id="node15" class="node"><title>enemyRadar[RightFront15ø]</title>
<polygon fill="lightgray" stroke="black" points="800.5,-164.309 681.5,-164.309 681.5,-146.309 800.5,-146.309 800.5,-164.309"/>
<text text-anchor="middle" x="741" y="-153.109" font-family="Times,serif" font-size="9.00">enemyRadar[RightFront15ø]</text>
</g>
<!-- enemyRadar[RightFront15ø]&#45;&gt;Move Forward -->
<g id="edge49" class="edge"><title>enemyRadar[RightFront15ø]&#45;&gt;Move Forward</title>
<path fill="none" stroke="green" stroke-width="0.167584" d="M741,-146.276C741,-139.122 741,-127.942 741,-115.858"/>
<polygon fill="green" stroke="green" stroke-width="0.167584" points="744.5,-115.564 741,-105.564 737.5,-115.564 744.5,-115.564"/>
</g>
<!-- enemyRadar[RightFront15ø]&#45;&gt; Move Backward -->
<g id="edge45" class="edge"><title>enemyRadar[RightFront15ø]&#45;&gt; Move Backward</title>
<path fill="none" stroke="red" stroke-width="0.203375" d="M800.503,-147.228C900.217,-135.328 1090.94,-112.403 1098,-110.309 1116.3,-104.882 1135.29,-96.6822 1152.29,-88.2931"/>
<polygon fill="red" stroke="red" stroke-width="0.203375" points="1154.16,-91.2671 1161.5,-83.6295 1151,-85.021 1154.16,-91.2671"/>
</g>
<!-- enemyRadar[RightFront15ø]&#45;&gt;Move Left -->
<g id="edge32" class="edge"><title>enemyRadar[RightFront15ø]&#45;&gt;Move Left</title>
<path fill="none" stroke="red" stroke-width="0.472783" d="M783.596,-146.282C821.264,-138.675 877.459,-126.08 925,-110.309 953.13,-100.977 983.694,-87.9161 1007.67,-76.9595"/>
<polygon fill="red" stroke="red" stroke-width="0.472783" points="1009.24,-80.0904 1016.86,-72.7211 1006.31,-73.735 1009.24,-80.0904"/>
</g>
<!-- enemyRadar[RightFront15ø]&#45;&gt;Turn Left -->
<g id="edge80" class="edge"><title>enemyRadar[RightFront15ø]&#45;&gt;Turn Left</title>
<path fill="none" stroke="green" stroke-width="0.171976" d="M759.282,-146.18C775.663,-138.379 799.839,-125.553 818,-110.309 824.32,-105.004 830.436,-98.7314 836.015,-92.3706"/>
<polygon fill="green" stroke="green" stroke-width="0.171976" points="839.017,-94.2395 842.771,-84.3324 833.658,-89.7356 839.017,-94.2395"/>
</g>
<!-- enemyRadar[RightFront15ø]&#45;&gt;Turn Right -->
<g id="edge71" class="edge"><title>enemyRadar[RightFront15ø]&#45;&gt;Turn Right</title>
<path fill="none" stroke="green" stroke-width="0.340148" d="M800.824,-147.232C803.926,-146.909 806.999,-146.599 810,-146.309 1015.44,-126.42 1068.45,-137.882 1273,-110.309 1355.27,-99.218 1449.87,-79.5328 1505.64,-67.1983"/>
<polygon fill="green" stroke="green" stroke-width="0.340148" points="1506.59,-70.5726 1515.59,-64.9844 1505.07,-63.7397 1506.59,-70.5726"/>
</g>
<!-- enemyRadar[LeftFront15ø] -->
<g id="node16" class="node"><title>enemyRadar[LeftFront15ø]</title>
<polygon fill="lightgray" stroke="black" points="114,-164.309 0,-164.309 0,-146.309 114,-146.309 114,-164.309"/>
<text text-anchor="middle" x="57" y="-153.109" font-family="Times,serif" font-size="9.00">enemyRadar[LeftFront15ø]</text>
</g>
<!-- enemyRadar[LeftFront15ø]&#45;&gt;Move Forward -->
<g id="edge14" class="edge"><title>enemyRadar[LeftFront15ø]&#45;&gt;Move Forward</title>
<path fill="none" stroke="green" stroke-width="0.202705" d="M112.975,-146.276C240.185,-128.022 550.108,-83.5475 681.04,-64.7586"/>
<polygon fill="green" stroke="green" stroke-width="0.202705" points="681.875,-68.1747 691.277,-63.2896 680.881,-61.2457 681.875,-68.1747"/>
</g>
<!-- enemyRadar[RightFront7.5ø] -->
<g id="node17" class="node"><title>enemyRadar[RightFront7.5ø]</title>
<polygon fill="lightgray" stroke="black" points="1029,-164.309 907,-164.309 907,-146.309 1029,-146.309 1029,-164.309"/>
<text text-anchor="middle" x="968" y="-153.109" font-family="Times,serif" font-size="9.00">enemyRadar[RightFront7.5ø]</text>
</g>
<!-- enemyRadar[RightFront7.5ø]&#45;&gt;Move Forward -->
<g id="edge46" class="edge"><title>enemyRadar[RightFront7.5ø]&#45;&gt;Move Forward</title>
<path fill="none" stroke="red" stroke-width="0.147317" d="M928.463,-146.274C897.682,-139.167 854.389,-127.273 819,-110.309 808.652,-105.348 798.165,-99.0813 788.379,-92.5854"/>
<polygon fill="red" stroke="red" stroke-width="0.147317" points="790.211,-89.5985 779.98,-86.8449 786.261,-95.3775 790.211,-89.5985"/>
</g>
<!-- enemyRadar[RightFront7.5ø]&#45;&gt; Move Backward -->
<g id="edge27" class="edge"><title>enemyRadar[RightFront7.5ø]&#45;&gt; Move Backward</title>
<path fill="none" stroke="red" stroke-width="0.368899" d="M995.008,-146.273C1021.56,-138.116 1063.07,-124.671 1098,-110.309 1115.57,-103.084 1134.27,-94.3743 1151.22,-86.0724"/>
<polygon fill="red" stroke="red" stroke-width="0.368899" points="1153.02,-89.0847 1160.44,-81.5142 1149.92,-82.8102 1153.02,-89.0847"/>
</g>
<!-- enemyRadar[RightFront7.5ø]&#45;&gt;Move Left -->
<g id="edge35" class="edge"><title>enemyRadar[RightFront7.5ø]&#45;&gt;Move Left</title>
<path fill="none" stroke="red" stroke-width="0.456887" d="M974.792,-146.276C984.66,-134.606 1003.59,-112.221 1020.11,-92.6813"/>
<polygon fill="red" stroke="red" stroke-width="0.456887" points="1022.99,-94.6982 1026.78,-84.8023 1017.65,-90.1783 1022.99,-94.6982"/>
</g>
<!-- enemyRadar[RightFront7.5ø]&#45;&gt;Turn Right -->
<g id="edge16" class="edge"><title>enemyRadar[RightFront7.5ø]&#45;&gt;Turn Right</title>
<path fill="none" stroke="green" stroke-width="0.221769" d="M1029.18,-146.345C1090.86,-138.114 1188.72,-124.501 1273,-110.309 1354.64,-96.5616 1449.05,-77.7671 1505.02,-66.32"/>
<polygon fill="green" stroke="green" stroke-width="0.221769" points="1505.92,-69.7086 1515.01,-64.2709 1504.51,-62.8513 1505.92,-69.7086"/>
</g>
<!-- enemyRadar[LeftFront7.5ø] -->
<g id="node18" class="node"><title>enemyRadar[LeftFront7.5ø]</title>
<polygon fill="lightgray" stroke="black" points="572,-164.309 456,-164.309 456,-146.309 572,-146.309 572,-164.309"/>
<text text-anchor="middle" x="514" y="-153.109" font-family="Times,serif" font-size="9.00">enemyRadar[LeftFront7.5ø]</text>
</g>
<!-- enemyRadar[LeftFront7.5ø]&#45;&gt;Move Forward -->
<g id="edge23" class="edge"><title>enemyRadar[LeftFront7.5ø]&#45;&gt;Move Forward</title>
<path fill="none" stroke="green" stroke-width="0.267915" d="M532.576,-146.276C565.602,-131.996 635.736,-101.67 685.512,-80.1474"/>
<polygon fill="green" stroke="green" stroke-width="0.267915" points="687.077,-83.2838 694.867,-76.1023 684.299,-76.8587 687.077,-83.2838"/>
</g>
<!-- enemyRadar[LeftFront7.5ø]&#45;&gt;Move Left -->
<g id="edge65" class="edge"><title>enemyRadar[LeftFront7.5ø]&#45;&gt;Move Left</title>
<path fill="none" stroke="green" stroke-width="0.37108" d="M572.099,-147.319C575.109,-146.973 578.09,-146.635 581,-146.309 733.768,-129.195 776.251,-149.099 925,-110.309 953.78,-102.803 984.475,-89.7282 1008.36,-78.3059"/>
<polygon fill="green" stroke="green" stroke-width="0.37108" points="1010.03,-81.3846 1017.49,-73.8615 1006.97,-75.0903 1010.03,-81.3846"/>
</g>
<!-- enemyRadar[LeftFront7.5ø]&#45;&gt;Move right -->
<g id="edge83" class="edge"><title>enemyRadar[LeftFront7.5ø]&#45;&gt;Move right</title>
<path fill="none" stroke="red" stroke-width="0.213766" d="M572.075,-147.073C575.091,-146.792 578.08,-146.534 581,-146.309 1034.16,-111.335 1154.1,-181.432 1603,-110.309 1652.52,-102.464 1707.43,-85.7946 1745.24,-73.0092"/>
<polygon fill="red" stroke="red" stroke-width="0.213766" points="1746.63,-76.2344 1754.96,-69.6837 1744.36,-69.6118 1746.63,-76.2344"/>
</g>
<!-- enemyRadar[LeftFront7.5ø]&#45;&gt;Turn Left -->
<g id="edge78" class="edge"><title>enemyRadar[LeftFront7.5ø]&#45;&gt;Turn Left</title>
<path fill="none" stroke="green" stroke-width="0.180214" d="M572.164,-146.981C657.409,-136.084 807.386,-116.254 818,-110.309 825.589,-106.058 832.436,-99.9862 838.366,-93.4344"/>
<polygon fill="green" stroke="green" stroke-width="0.180214" points="841.181,-95.5243 844.898,-85.6028 835.805,-91.041 841.181,-95.5243"/>
</g>
<!-- enemyRadar[RightFront2.5ø] -->
<g id="node19" class="node"><title>enemyRadar[RightFront2.5ø]</title>
<polygon fill="lightgray" stroke="black" points="254,-164.309 132,-164.309 132,-146.309 254,-146.309 254,-164.309"/>
<text text-anchor="middle" x="193" y="-153.109" font-family="Times,serif" font-size="9.00">enemyRadar[RightFront2.5ø]</text>
</g>
<!-- enemyRadar[RightFront2.5ø]&#45;&gt;Move Forward -->
<g id="edge22" class="edge"><title>enemyRadar[RightFront2.5ø]&#45;&gt;Move Forward</title>
<path fill="none" stroke="green" stroke-width="0.207542" d="M237.845,-146.276C336.255,-128.65 571.146,-86.5775 681.634,-66.7875"/>
<polygon fill="green" stroke="green" stroke-width="0.207542" points="682.384,-70.209 691.61,-65.0007 681.15,-63.3187 682.384,-70.209"/>
</g>
<!-- enemyRadar[RightFront2.5ø]&#45;&gt;Turn Left -->
<g id="edge47" class="edge"><title>enemyRadar[RightFront2.5ø]&#45;&gt;Turn Left</title>
<path fill="none" stroke="green" stroke-width="0.253924" d="M254.065,-147.151C257.085,-146.853 260.076,-146.57 263,-146.309 386.1,-135.289 707.871,-166.405 818,-110.309 825.751,-106.361 832.669,-100.424 838.62,-93.908"/>
<polygon fill="green" stroke="green" stroke-width="0.253924" points="841.433,-95.9991 845.152,-86.0783 836.058,-91.5148 841.433,-95.9991"/>
</g>
<!-- enemyRadar[LeftFront2.5ø] -->
<g id="node20" class="node"><title>enemyRadar[LeftFront2.5ø]</title>
<polygon fill="lightgray" stroke="black" points="388,-164.309 272,-164.309 272,-146.309 388,-146.309 388,-164.309"/>
<text text-anchor="middle" x="330" y="-153.109" font-family="Times,serif" font-size="9.00">enemyRadar[LeftFront2.5ø]</text>
</g>
<!-- enemyRadar[LeftFront2.5ø]&#45;&gt;Move Forward -->
<g id="edge6" class="edge"><title>enemyRadar[LeftFront2.5ø]&#45;&gt;Move Forward</title>
<path fill="none" stroke="red" stroke-width="0.211239" d="M363.634,-146.276C433.506,-129.59 595.114,-90.9946 682.454,-70.1361"/>
<polygon fill="red" stroke="red" stroke-width="0.211239" points="683.299,-73.533 692.212,-67.8058 681.672,-66.7245 683.299,-73.533"/>
</g>
<!-- enemyRadar[LeftFront2.5ø]&#45;&gt; Move Backward -->
<g id="edge24" class="edge"><title>enemyRadar[LeftFront2.5ø]&#45;&gt; Move Backward</title>
<path fill="none" stroke="green" stroke-width="0.119592" d="M388.08,-147.131C391.095,-146.834 394.082,-146.558 397,-146.309 552.419,-133.054 946.967,-149.293 1098,-110.309 1116.57,-105.516 1135.71,-97.4619 1152.76,-89.0107"/>
<polygon fill="green" stroke="green" stroke-width="0.119592" points="1154.68,-91.9577 1162,-84.2929 1151.5,-85.7235 1154.68,-91.9577"/>
</g>
<!-- enemyRadar[LeftFront2.5ø]&#45;&gt;Turn Left -->
<g id="edge44" class="edge"><title>enemyRadar[LeftFront2.5ø]&#45;&gt;Turn Left</title>
<path fill="none" stroke="red" stroke-width="0.124271" d="M388.091,-147.252C391.103,-146.923 394.087,-146.607 397,-146.309 490.408,-136.741 734.774,-153.783 818,-110.309 825.71,-106.281 832.61,-100.309 838.556,-93.7839"/>
<polygon fill="red" stroke="red" stroke-width="0.124271" points="841.369,-95.8747 845.088,-85.9537 835.994,-91.3906 841.369,-95.8747"/>
</g>
<!-- OnTarget -->
<g id="node21" class="node"><title>OnTarget</title>
<polygon fill="lightgray" stroke="black" points="2389,-164.309 2339,-164.309 2339,-146.309 2389,-146.309 2389,-164.309"/>
<text text-anchor="middle" x="2364" y="-153.109" font-family="Times,serif" font-size="9.00">OnTarget</text>
</g>
<!-- OnTarget&#45;&gt;Shoot -->
<g id="edge5" class="edge"><title>OnTarget&#45;&gt;Shoot</title>
<path fill="none" stroke="red" stroke-width="0.204626" d="M2339.78,-146.276C2287.46,-128.928 2163.73,-87.8993 2102.94,-67.7409"/>
<polygon fill="red" stroke="red" stroke-width="0.204626" points="2103.99,-64.4014 2093.4,-64.576 2101.79,-71.0456 2103.99,-64.4014"/>
</g>
<!-- OnTarget&#45;&gt;Move right -->
<g id="edge66" class="edge"><title>OnTarget&#45;&gt;Move right</title>
<path fill="none" stroke="red" stroke-width="0.446416" d="M2338.81,-148.054C2335.85,-147.416 2332.87,-146.817 2330,-146.309 2198.65,-122.995 2163.46,-133.02 2032,-110.309 1965,-98.7337 1888.53,-80.6159 1840.27,-68.5669"/>
<polygon fill="red" stroke="red" stroke-width="0.446416" points="1840.97,-65.1328 1830.42,-66.0924 1839.26,-71.9222 1840.97,-65.1328"/>
</g>
<!-- OnTarget&#45;&gt;Turn Left -->
<g id="edge36" class="edge"><title>OnTarget&#45;&gt;Turn Left</title>
<path fill="none" stroke="green" stroke-width="0.190702" d="M2338.85,-147.789C2335.89,-147.199 2332.89,-146.683 2330,-146.309 2037.68,-108.354 1293.08,-167.982 1004,-110.309 968.92,-103.31 931.188,-88.3926 903.593,-75.9833"/>
<polygon fill="green" stroke="green" stroke-width="0.190702" points="904.825,-72.698 894.275,-71.7157 901.91,-79.0621 904.825,-72.698"/>
</g>
<!-- TakingDmg -->
<g id="node22" class="node"><title>TakingDmg</title>
<polygon fill="lightgray" stroke="black" points="1430.5,-164.309 1371.5,-164.309 1371.5,-146.309 1430.5,-146.309 1430.5,-164.309"/>
<text text-anchor="middle" x="1401" y="-153.109" font-family="Times,serif" font-size="9.00">TakingDmg</text>
</g>
<!-- TakingDmg&#45;&gt;Move Left -->
<g id="edge48" class="edge"><title>TakingDmg&#45;&gt;Move Left</title>
<path fill="none" stroke="green" stroke-width="0.154755" d="M1371.21,-148.077C1368.1,-147.463 1364.99,-146.863 1362,-146.309 1265.88,-128.483 1237.05,-143.237 1145,-110.309 1126.3,-103.618 1107.05,-93.2486 1090.88,-83.3671"/>
<polygon fill="green" stroke="green" stroke-width="0.154755" points="1092.57,-80.2959 1082.24,-77.9541 1088.86,-86.2284 1092.57,-80.2959"/>
</g>
<!-- TakingDmg&#45;&gt;Move right -->
<g id="edge79" class="edge"><title>TakingDmg&#45;&gt;Move right</title>
<path fill="none" stroke="green" stroke-width="0.111142" d="M1430.79,-148.067C1478.66,-137.995 1570.63,-118.462 1603,-110.309 1651.46,-98.1012 1706.31,-82.143 1744.39,-70.7176"/>
<polygon fill="green" stroke="green" stroke-width="0.111142" points="1745.62,-74.0042 1754.18,-67.7692 1743.6,-67.3016 1745.62,-74.0042"/>
</g>
<!-- TakingDmg&#45;&gt;Turn Left -->
<g id="edge33" class="edge"><title>TakingDmg&#45;&gt;Turn Left</title>
<path fill="none" stroke="green" stroke-width="0.500307" d="M1371.25,-147.879C1368.13,-147.304 1365.01,-146.767 1362,-146.309 1203.91,-122.21 1159.58,-147.304 1004,-110.309 969.313,-102.06 931.697,-87.2969 904.048,-75.2661"/>
<polygon fill="green" stroke="green" stroke-width="0.500307" points="905.267,-71.9782 894.705,-71.1398 902.439,-78.3815 905.267,-71.9782"/>
</g>
<!-- TakingDmg&#45;&gt;Turn Right -->
<g id="edge53" class="edge"><title>TakingDmg&#45;&gt;Turn Right</title>
<path fill="none" stroke="green" stroke-width="0.288487" d="M1413.52,-146.276C1434.88,-132.575 1479.26,-104.102 1512.46,-82.8059"/>
<polygon fill="green" stroke="green" stroke-width="0.288487" points="1514.54,-85.63 1521.06,-77.2844 1510.76,-79.7382 1514.54,-85.63"/>
</g>
<!-- bias -->
<g id="node23" class="node"><title>bias</title>
<polygon fill="lightgray" stroke="black" points="437.5,-164.309 406.5,-164.309 406.5,-146.309 437.5,-146.309 437.5,-164.309"/>
<text text-anchor="middle" x="422" y="-153.109" font-family="Times,serif" font-size="9.00">bias</text>
</g>
<!-- bias&#45;&gt;Move Forward -->
<g id="edge75" class="edge"><title>bias&#45;&gt;Move Forward</title>
<path fill="none" stroke="green" stroke-width="0.921546" d="M437.594,-149.286C440.707,-148.293 443.956,-147.262 447,-146.309 528.871,-120.658 623.809,-91.6845 683.146,-73.6684"/>
<polygon fill="green" stroke="green" stroke-width="0.921546" points="684.524,-76.9077 693.077,-70.6544 682.491,-70.2094 684.524,-76.9077"/>
</g>
<!-- bias&#45;&gt; Move Backward -->
<g id="edge62" class="edge"><title>bias&#45;&gt; Move Backward</title>
<path fill="none" stroke="green" stroke-width="0.433948" d="M437.715,-148.612C440.76,-147.699 443.953,-146.871 447,-146.309 731.965,-93.7254 817.564,-183.283 1098,-110.309 1116.56,-105.479 1135.7,-97.4144 1152.75,-88.9643"/>
<polygon fill="green" stroke="green" stroke-width="0.433948" points="1154.67,-91.9119 1161.99,-84.2483 1151.49,-85.6771 1154.67,-91.9119"/>
</g>
<!-- bias&#45;&gt;Move Left -->
<g id="edge57" class="edge"><title>bias&#45;&gt;Move Left</title>
<path fill="none" stroke="red" stroke-width="0.125854" d="M437.724,-148.661C440.769,-147.744 443.958,-146.901 447,-146.309 656.113,-105.563 718.088,-161.064 925,-110.309 953.886,-103.223 984.583,-90.1578 1008.45,-78.6359"/>
<polygon fill="red" stroke="red" stroke-width="0.125854" points="1010.14,-81.7029 1017.57,-74.1467 1007.05,-75.4223 1010.14,-81.7029"/>
</g>
<!-- Move Forward&#45;&gt;Move Forward -->
<g id="edge29" class="edge"><title>Move Forward&#45;&gt;Move Forward</title>
<path fill="none" stroke="green" stroke-width="0.121269" d="M787.86,-73.7109C800.029,-72.5703 809.205,-66.3848 809.205,-55.1543 809.205,-47.2579 804.668,-41.8556 797.745,-38.9475"/>
<polygon fill="green" stroke="green" stroke-width="0.121269" points="798.399,-35.5055 787.86,-36.5977 796.78,-42.3157 798.399,-35.5055"/>
</g>
<!-- Move right&#45;&gt;Move right -->
<g id="edge63" class="edge"><title>Move right&#45;&gt;Move right</title>
<path fill="none" stroke="green" stroke-width="0.397558" d="M1827.15,-73.894C1839.54,-74.1939 1849.6,-67.9473 1849.6,-55.1543 1849.6,-46.1593 1844.63,-40.4007 1837.37,-37.8785"/>
<polygon fill="green" stroke="green" stroke-width="0.397558" points="1837.55,-34.3684 1827.15,-36.4146 1836.55,-41.2977 1837.55,-34.3684"/>
</g>
<!-- Turn Left&#45;&gt;Turn Left -->
<g id="edge9" class="edge"><title>Turn Left&#45;&gt;Turn Left</title>
<path fill="none" stroke="green" stroke-width="0.638986" d="M893.168,-73.7395C905.717,-75.0213 916.355,-68.8262 916.355,-55.1543 916.355,-45.4345 910.979,-39.4936 903.361,-37.3318"/>
<polygon fill="green" stroke="green" stroke-width="0.638986" points="903.401,-33.8252 893.168,-36.5691 902.879,-40.8056 903.401,-33.8252"/>
</g>
</g>
</svg>
