<?xml version="1.0" encoding="UTF-8" standalone="no"?>
<!DOCTYPE svg PUBLIC "-//W3C//DTD SVG 1.1//EN"
 "http://www.w3.org/Graphics/SVG/1.1/DTD/svg11.dtd">
<!-- Generated by graphviz version 2.38.0 (20140413.2041)
 -->
<!-- Title: %3 Pages: 1 -->
<svg width="2519pt" height="172pt"
 viewBox="0.00 0.00 2519.00 172.31" xmlns="http://www.w3.org/2000/svg" xmlns:xlink="http://www.w3.org/1999/xlink">
<g id="graph0" class="graph" transform="scale(1 1) rotate(0) translate(4 168.309)">
<title>%3</title>
<polygon fill="white" stroke="none" points="-4,4 -4,-168.309 2515,-168.309 2515,4 -4,4"/>
<!-- wallRadar[1,0] -->
<g id="node1" class="node"><title>wallRadar[1,0]</title>
<polygon fill="lightgray" stroke="black" points="174,-164.309 104,-164.309 104,-146.309 174,-146.309 174,-164.309"/>
<text text-anchor="middle" x="139" y="-153.109" font-family="Times,serif" font-size="9.00">wallRadar[1,0]</text>
</g>
<!-- Shoot -->
<g id="node24" class="node"><title>Shoot</title>
<ellipse fill="lightblue" stroke="black" cx="711" cy="-55.1543" rx="26.7407" ry="26.7407"/>
<text text-anchor="middle" x="711" y="-52.9543" font-family="Times,serif" font-size="9.00">Shoot</text>
</g>
<!-- wallRadar[1,0]&#45;&gt;Shoot -->
<g id="edge70" class="edge"><title>wallRadar[1,0]&#45;&gt;Shoot</title>
<path fill="none" stroke="red" stroke-width="0.630003" d="M174.032,-147.741C177.062,-147.233 180.083,-146.748 183,-146.309 316.229,-126.249 351.365,-133.98 484,-110.309 552.456,-98.0913 631.154,-77.9144 675.591,-65.9422"/>
<polygon fill="red" stroke="red" stroke-width="0.630003" points="676.595,-69.2964 685.33,-63.3015 674.763,-62.5404 676.595,-69.2964"/>
</g>
<!-- Move Left -->
<g id="node27" class="node"><title>Move Left</title>
<ellipse fill="lightblue" stroke="black" cx="437" cy="-55.1543" rx="38.3684" ry="38.3684"/>
<text text-anchor="middle" x="437" y="-52.9543" font-family="Times,serif" font-size="9.00">Move Left</text>
</g>
<!-- wallRadar[1,0]&#45;&gt;Move Left -->
<g id="edge48" class="edge"><title>wallRadar[1,0]&#45;&gt;Move Left</title>
<path fill="none" stroke="green" stroke-width="0.3876" d="M163.387,-146.276C213.131,-129.892 327.002,-92.385 391.059,-71.2863"/>
<polygon fill="green" stroke="green" stroke-width="0.3876" points="392.491,-74.4995 400.894,-68.0467 390.301,-67.8509 392.491,-74.4995"/>
</g>
<!-- Turn Left -->
<g id="node29" class="node"><title>Turn Left</title>
<ellipse fill="lightblue" stroke="black" cx="1230" cy="-55.1543" rx="35.2113" ry="35.2113"/>
<text text-anchor="middle" x="1230" y="-52.9543" font-family="Times,serif" font-size="9.00">Turn Left</text>
</g>
<!-- wallRadar[1,0]&#45;&gt;Turn Left -->
<g id="edge34" class="edge"><title>wallRadar[1,0]&#45;&gt;Turn Left</title>
<path fill="none" stroke="green" stroke-width="0.150708" d="M174.003,-147.518C177.039,-147.059 180.069,-146.646 183,-146.309 507.478,-109.016 592.366,-146.217 917,-110.309 1013.38,-99.6482 1125.02,-78.0851 1185.49,-65.6248"/>
<polygon fill="green" stroke="green" stroke-width="0.150708" points="1186.38,-69.0153 1195.46,-63.5575 1184.96,-62.1611 1186.38,-69.0153"/>
</g>
<!-- Turn Right -->
<g id="node30" class="node"><title>Turn Right</title>
<ellipse fill="lightblue" stroke="black" cx="868" cy="-55.1543" rx="39.6962" ry="39.6962"/>
<text text-anchor="middle" x="868" y="-52.9543" font-family="Times,serif" font-size="9.00">Turn Right</text>
</g>
<!-- wallRadar[1,0]&#45;&gt;Turn Right -->
<g id="edge10" class="edge"><title>wallRadar[1,0]&#45;&gt;Turn Right</title>
<path fill="none" stroke="green" stroke-width="0.28638" d="M174.008,-147.565C177.043,-147.095 180.071,-146.667 183,-146.309 432.316,-115.791 503.159,-170.571 747,-110.309 773.903,-103.66 802.267,-91.2851 824.766,-80.0416"/>
<polygon fill="green" stroke="green" stroke-width="0.28638" points="826.396,-83.1394 833.713,-75.4767 823.214,-76.9041 826.396,-83.1394"/>
</g>
<!-- wallRadar[0,1] -->
<g id="node2" class="node"><title>wallRadar[0,1]</title>
<polygon fill="lightgray" stroke="black" points="746,-164.309 676,-164.309 676,-146.309 746,-146.309 746,-164.309"/>
<text text-anchor="middle" x="711" y="-153.109" font-family="Times,serif" font-size="9.00">wallRadar[0,1]</text>
</g>
<!-- wallRadar[0,1]&#45;&gt;Shoot -->
<g id="edge1" class="edge"><title>wallRadar[0,1]&#45;&gt;Shoot</title>
<path fill="none" stroke="red" stroke-width="0.151852" d="M711,-146.276C711,-134.556 711,-112.026 711,-92.4263"/>
<polygon fill="red" stroke="red" stroke-width="0.151852" points="714.5,-92.2223 711,-82.2223 707.5,-92.2223 714.5,-92.2223"/>
</g>
<!--  Move Backward -->
<g id="node26" class="node"><title> Move Backward</title>
<ellipse fill="lightblue" stroke="black" cx="1419" cy="-55.1543" rx="55.3091" ry="55.3091"/>
<text text-anchor="middle" x="1419" y="-52.9543" font-family="Times,serif" font-size="9.00"> Move Backward</text>
</g>
<!-- wallRadar[0,1]&#45;&gt; Move Backward -->
<g id="edge6" class="edge"><title>wallRadar[0,1]&#45;&gt; Move Backward</title>
<path fill="none" stroke="green" stroke-width="0.274083" d="M746.011,-147.583C749.045,-147.109 752.072,-146.675 755,-146.309 984.43,-117.584 1048.02,-159.265 1274,-110.309 1303,-104.025 1333.97,-93.0848 1359.8,-82.6748"/>
<polygon fill="green" stroke="green" stroke-width="0.274083" points="1361.15,-85.9048 1369.08,-78.8731 1358.5,-79.428 1361.15,-85.9048"/>
</g>
<!-- wallRadar[0,1]&#45;&gt;Turn Left -->
<g id="edge55" class="edge"><title>wallRadar[0,1]&#45;&gt;Turn Left</title>
<path fill="none" stroke="red" stroke-width="0.227746" d="M746.265,-147.639C838.024,-130.286 1084.11,-83.7449 1185.45,-64.5794"/>
<polygon fill="red" stroke="red" stroke-width="0.227746" points="1186.19,-68.0013 1195.37,-62.7039 1184.89,-61.1232 1186.19,-68.0013"/>
</g>
<!-- wallRadar[0,1]&#45;&gt;Turn Right -->
<g id="edge80" class="edge"><title>wallRadar[0,1]&#45;&gt;Turn Right</title>
<path fill="none" stroke="green" stroke-width="0.638327" d="M723.848,-146.276C745.898,-132.491 791.867,-103.752 825.996,-82.4148"/>
<polygon fill="green" stroke="green" stroke-width="0.638327" points="828.212,-85.1568 834.836,-76.8879 824.502,-79.2213 828.212,-85.1568"/>
</g>
<!-- wallRadar[&#45;1,0] -->
<g id="node3" class="node"><title>wallRadar[&#45;1,0]</title>
<polygon fill="lightgray" stroke="black" points="1455.5,-164.309 1382.5,-164.309 1382.5,-146.309 1455.5,-146.309 1455.5,-164.309"/>
<text text-anchor="middle" x="1419" y="-153.109" font-family="Times,serif" font-size="9.00">wallRadar[&#45;1,0]</text>
</g>
<!-- wallRadar[&#45;1,0]&#45;&gt;Shoot -->
<g id="edge36" class="edge"><title>wallRadar[&#45;1,0]&#45;&gt;Shoot</title>
<path fill="none" stroke="green" stroke-width="0.312956" d="M1382.39,-147.578C1379.22,-147.105 1376.06,-146.673 1373,-146.309 1127.99,-117.128 1057.14,-174.895 819,-110.309 791.491,-102.848 762.755,-88.0485 741.846,-75.8039"/>
<polygon fill="green" stroke="green" stroke-width="0.312956" points="743.485,-72.7053 733.108,-70.5678 739.887,-78.7099 743.485,-72.7053"/>
</g>
<!-- wallRadar[&#45;1,0]&#45;&gt; Move Backward -->
<g id="edge58" class="edge"><title>wallRadar[&#45;1,0]&#45;&gt; Move Backward</title>
<path fill="none" stroke="red" stroke-width="0.852174" d="M1419,-146.276C1419,-140.164 1419,-131.112 1419,-121.069"/>
<polygon fill="red" stroke="red" stroke-width="0.852174" points="1422.5,-120.768 1419,-110.768 1415.5,-120.768 1422.5,-120.768"/>
</g>
<!-- Move right -->
<g id="node28" class="node"><title>Move right</title>
<ellipse fill="lightblue" stroke="black" cx="1746" cy="-55.1543" rx="39.6962" ry="39.6962"/>
<text text-anchor="middle" x="1746" y="-52.9543" font-family="Times,serif" font-size="9.00">Move right</text>
</g>
<!-- wallRadar[&#45;1,0]&#45;&gt;Move right -->
<g id="edge50" class="edge"><title>wallRadar[&#45;1,0]&#45;&gt;Move right</title>
<path fill="none" stroke="red" stroke-width="1.01359" stroke-dasharray="1,5" d="M1455.56,-147.725C1521.11,-135.896 1652.3,-112.105 1657,-110.309 1673.95,-103.837 1691.28,-94.1222 1706.09,-84.6995"/>
<polygon fill="red" stroke="red" stroke-width="1.01359" points="1708.04,-87.6086 1714.5,-79.212 1704.21,-81.7466 1708.04,-87.6086"/>
</g>
<!-- wallRadar[0,&#45;1] -->
<g id="node4" class="node"><title>wallRadar[0,&#45;1]</title>
<polygon fill="lightgray" stroke="black" points="1364.5,-164.309 1291.5,-164.309 1291.5,-146.309 1364.5,-146.309 1364.5,-164.309"/>
<text text-anchor="middle" x="1328" y="-153.109" font-family="Times,serif" font-size="9.00">wallRadar[0,&#45;1]</text>
</g>
<!-- wallRadar[0,&#45;1]&#45;&gt;Shoot -->
<g id="edge29" class="edge"><title>wallRadar[0,&#45;1]&#45;&gt;Shoot</title>
<path fill="none" stroke="green" stroke-width="0.260862" stroke-dasharray="1,5" d="M1291.39,-147.62C1288.22,-147.138 1285.06,-146.692 1282,-146.309 1077.21,-120.598 1017.86,-165.599 819,-110.309 791.539,-102.673 762.8,-87.8846 741.878,-75.6885"/>
<polygon fill="green" stroke="green" stroke-width="0.260862" points="743.515,-72.5895 733.133,-70.476 739.931,-78.6025 743.515,-72.5895"/>
</g>
<!-- Move Forward -->
<g id="node25" class="node"><title>Move Forward</title>
<ellipse fill="lightblue" stroke="black" cx="1580" cy="-55.1543" rx="50.41" ry="50.41"/>
<text text-anchor="middle" x="1580" y="-52.9543" font-family="Times,serif" font-size="9.00">Move Forward</text>
</g>
<!-- wallRadar[0,&#45;1]&#45;&gt;Move Forward -->
<g id="edge54" class="edge"><title>wallRadar[0,&#45;1]&#45;&gt;Move Forward</title>
<path fill="none" stroke="red" stroke-width="0.529903" d="M1364.57,-146.591C1407.78,-137.196 1476.86,-121.234 1501,-110.309 1511.66,-105.483 1522.43,-99.2176 1532.45,-92.6686"/>
<polygon fill="red" stroke="red" stroke-width="0.529903" points="1534.7,-95.3679 1541.03,-86.8695 1530.79,-89.5676 1534.7,-95.3679"/>
</g>
<!-- wallRadar[0,&#45;1]&#45;&gt; Move Backward -->
<g id="edge13" class="edge"><title>wallRadar[0,&#45;1]&#45;&gt; Move Backward</title>
<path fill="none" stroke="red" stroke-width="0.259949" d="M1335.45,-146.276C1344.28,-136.747 1359.74,-120.074 1374.98,-103.638"/>
<polygon fill="red" stroke="red" stroke-width="0.259949" points="1377.71,-105.843 1381.94,-96.1305 1372.57,-101.084 1377.71,-105.843"/>
</g>
<!-- wallRadar[0,&#45;1]&#45;&gt;Move right -->
<g id="edge53" class="edge"><title>wallRadar[0,&#45;1]&#45;&gt;Move right</title>
<path fill="none" stroke="green" stroke-width="0.279295" d="M1364.81,-147.61C1367.58,-147.154 1370.33,-146.715 1373,-146.309 1498.78,-127.168 1536.9,-152.302 1657,-110.309 1674.13,-104.32 1691.5,-94.71 1706.29,-85.2357"/>
<polygon fill="green" stroke="green" stroke-width="0.279295" points="1708.26,-88.1291 1714.68,-79.7014 1704.41,-82.2856 1708.26,-88.1291"/>
</g>
<!-- wallRadar[0,&#45;1]&#45;&gt;Turn Right -->
<g id="edge11" class="edge"><title>wallRadar[0,&#45;1]&#45;&gt;Turn Right</title>
<path fill="none" stroke="red" stroke-width="0.138272" d="M1291.13,-146.442C1208.63,-128.837 1009.11,-86.2639 916.599,-66.5244"/>
<polygon fill="red" stroke="red" stroke-width="0.138272" points="917.169,-63.0672 906.658,-64.4032 915.708,-69.9131 917.169,-63.0672"/>
</g>
<!-- wallRadar[0.7,0.7] -->
<g id="node5" class="node"><title>wallRadar[0.7,0.7]</title>
<polygon fill="lightgray" stroke="black" points="2134.5,-164.309 2051.5,-164.309 2051.5,-146.309 2134.5,-146.309 2134.5,-164.309"/>
<text text-anchor="middle" x="2093" y="-153.109" font-family="Times,serif" font-size="9.00">wallRadar[0.7,0.7]</text>
</g>
<!-- wallRadar[0.7,0.7]&#45;&gt;Move right -->
<g id="edge17" class="edge"><title>wallRadar[0.7,0.7]&#45;&gt;Move right</title>
<path fill="none" stroke="green" stroke-width="0.169918" d="M2064.6,-146.276C2005.16,-129.463 1867.09,-90.406 1793.76,-69.663"/>
<polygon fill="green" stroke="green" stroke-width="0.169918" points="1794.43,-66.216 1783.85,-66.8619 1792.52,-72.9517 1794.43,-66.216"/>
</g>
<!-- wallRadar[0.7,0.7]&#45;&gt;Turn Left -->
<g id="edge39" class="edge"><title>wallRadar[0.7,0.7]&#45;&gt;Turn Left</title>
<path fill="none" stroke="green" stroke-width="0.159577" d="M2051.3,-147.408C2048.16,-146.998 2045.03,-146.625 2042,-146.309 1737.9,-114.576 1652.66,-180.189 1355,-110.309 1325.22,-103.318 1293.63,-89.5687 1269.65,-77.6743"/>
<polygon fill="green" stroke="green" stroke-width="0.159577" points="1271.03,-74.45 1260.53,-73.0557 1267.87,-80.6953 1271.03,-74.45"/>
</g>
<!-- wallRadar[&#45;0.7,0.7] -->
<g id="node6" class="node"><title>wallRadar[&#45;0.7,0.7]</title>
<polygon fill="lightgray" stroke="black" points="1273,-164.309 1187,-164.309 1187,-146.309 1273,-146.309 1273,-164.309"/>
<text text-anchor="middle" x="1230" y="-153.109" font-family="Times,serif" font-size="9.00">wallRadar[&#45;0.7,0.7]</text>
</g>
<!-- wallRadar[&#45;0.7,0.7]&#45;&gt;Shoot -->
<g id="edge24" class="edge"><title>wallRadar[&#45;0.7,0.7]&#45;&gt;Shoot</title>
<path fill="none" stroke="red" stroke-width="0.254034" d="M1186.89,-147.498C1183.89,-147.078 1180.9,-146.677 1178,-146.309 1018.92,-126.11 973.005,-154.989 819,-110.309 791.801,-102.418 763.25,-87.7862 742.339,-75.7195"/>
<polygon fill="red" stroke="red" stroke-width="0.254034" points="743.979,-72.6234 733.587,-70.5611 740.425,-78.6539 743.979,-72.6234"/>
</g>
<!-- wallRadar[&#45;0.7,0.7]&#45;&gt;Move Forward -->
<g id="edge60" class="edge"><title>wallRadar[&#45;0.7,0.7]&#45;&gt;Move Forward</title>
<path fill="none" stroke="red" stroke-width="0.147357" d="M1273.11,-147.556C1348.24,-135.753 1495.73,-112.419 1501,-110.309 1511.86,-105.957 1522.73,-99.9053 1532.77,-93.4165"/>
<polygon fill="red" stroke="red" stroke-width="0.147357" points="1535.02,-96.1214 1541.36,-87.6336 1531.11,-90.3146 1535.02,-96.1214"/>
</g>
<!-- wallRadar[&#45;0.7,0.7]&#45;&gt; Move Backward -->
<g id="edge22" class="edge"><title>wallRadar[&#45;0.7,0.7]&#45;&gt; Move Backward</title>
<path fill="none" stroke="green" stroke-width="0.586349" d="M1245.47,-146.276C1270.55,-133.251 1321.33,-106.877 1361.51,-86.0097"/>
<polygon fill="green" stroke="green" stroke-width="0.586349" points="1363.17,-89.0928 1370.43,-81.3777 1359.94,-82.8805 1363.17,-89.0928"/>
</g>
<!-- wallRadar[&#45;0.7,0.7]&#45;&gt;Move right -->
<g id="edge46" class="edge"><title>wallRadar[&#45;0.7,0.7]&#45;&gt;Move right</title>
<path fill="none" stroke="red" stroke-width="0.468985" stroke-dasharray="1,5" d="M1273.1,-147.484C1276.11,-147.067 1279.1,-146.671 1282,-146.309 1448.14,-125.571 1498.13,-163.163 1657,-110.309 1674.22,-104.581 1691.61,-95.0273 1706.39,-85.5251"/>
<polygon fill="red" stroke="red" stroke-width="0.468985" points="1708.37,-88.4097 1714.77,-79.9656 1704.5,-82.5762 1708.37,-88.4097"/>
</g>
<!-- wallRadar[&#45;0.7,0.7]&#45;&gt;Turn Left -->
<g id="edge43" class="edge"><title>wallRadar[&#45;0.7,0.7]&#45;&gt;Turn Left</title>
<path fill="none" stroke="green" stroke-width="0.469462" stroke-dasharray="1,5" d="M1230,-146.276C1230,-136.172 1230,-118.035 1230,-100.667"/>
<polygon fill="green" stroke="green" stroke-width="0.469462" points="1233.5,-100.596 1230,-90.596 1226.5,-100.596 1233.5,-100.596"/>
</g>
<!-- wallRadar[&#45;0.7,0.7]&#45;&gt;Turn Right -->
<g id="edge40" class="edge"><title>wallRadar[&#45;0.7,0.7]&#45;&gt;Turn Right</title>
<path fill="none" stroke="red" stroke-width="0.604457" d="M1200.38,-146.276C1137.84,-129.319 991.85,-89.7357 915.871,-69.1344"/>
<polygon fill="red" stroke="red" stroke-width="0.604457" points="916.642,-65.7171 906.075,-66.4781 914.81,-72.4732 916.642,-65.7171"/>
</g>
<!-- wallRadar[&#45;0.7,&#45;0.7] -->
<g id="node7" class="node"><title>wallRadar[&#45;0.7,&#45;0.7]</title>
<polygon fill="lightgray" stroke="black" points="1036.5,-164.309 947.5,-164.309 947.5,-146.309 1036.5,-146.309 1036.5,-164.309"/>
<text text-anchor="middle" x="992" y="-153.109" font-family="Times,serif" font-size="9.00">wallRadar[&#45;0.7,&#45;0.7]</text>
</g>
<!-- wallRadar[&#45;0.7,&#45;0.7]&#45;&gt;Shoot -->
<g id="edge20" class="edge"><title>wallRadar[&#45;0.7,&#45;0.7]&#45;&gt;Shoot</title>
<path fill="none" stroke="green" stroke-width="0.381691" d="M949.984,-146.279C914.465,-138.865 862.557,-126.551 819,-110.309 792.464,-100.414 763.877,-85.8921 742.784,-74.3768"/>
<polygon fill="green" stroke="green" stroke-width="0.381691" points="744.387,-71.2641 733.943,-69.4868 740.999,-77.3896 744.387,-71.2641"/>
</g>
<!-- wallRadar[&#45;0.7,&#45;0.7]&#45;&gt;Move Forward -->
<g id="edge12" class="edge"><title>wallRadar[&#45;0.7,&#45;0.7]&#45;&gt;Move Forward</title>
<path fill="none" stroke="green" stroke-width="0.526059" stroke-dasharray="1,5" d="M1036.76,-147.438C1039.88,-147.032 1042.99,-146.651 1046,-146.309 1247.56,-123.431 1309.75,-177.947 1501,-110.309 1512.27,-106.324 1523.44,-100.307 1533.67,-93.7148"/>
<polygon fill="green" stroke="green" stroke-width="0.526059" points="1535.7,-96.5679 1542.03,-88.0733 1531.79,-90.7653 1535.7,-96.5679"/>
</g>
<!-- wallRadar[&#45;0.7,&#45;0.7]&#45;&gt;Turn Left -->
<g id="edge25" class="edge"><title>wallRadar[&#45;0.7,&#45;0.7]&#45;&gt;Turn Left</title>
<path fill="none" stroke="green" stroke-width="0.248367" d="M1011.48,-146.276C1049.94,-130.414 1136.4,-94.7569 1188.29,-73.3548"/>
<polygon fill="green" stroke="green" stroke-width="0.248367" points="1189.65,-76.5807 1197.56,-69.5324 1186.98,-70.1094 1189.65,-76.5807"/>
</g>
<!-- wallRadar[&#45;0.7,&#45;0.7]&#45;&gt;Turn Right -->
<g id="edge81" class="edge"><title>wallRadar[&#45;0.7,&#45;0.7]&#45;&gt;Turn Right</title>
<path fill="none" stroke="green" stroke-width="0.131359" d="M981.853,-146.276C965.603,-133.413 932.907,-107.533 906.706,-86.7927"/>
<polygon fill="green" stroke="green" stroke-width="0.131359" points="908.822,-84.0036 898.809,-80.5413 904.477,-89.4922 908.822,-84.0036"/>
</g>
<!-- wallRadar[0.7,&#45;0.7] -->
<g id="node8" class="node"><title>wallRadar[0.7,&#45;0.7]</title>
<polygon fill="lightgray" stroke="black" points="86,-164.309 0,-164.309 0,-146.309 86,-146.309 86,-164.309"/>
<text text-anchor="middle" x="43" y="-153.109" font-family="Times,serif" font-size="9.00">wallRadar[0.7,&#45;0.7]</text>
</g>
<!-- wallRadar[0.7,&#45;0.7]&#45;&gt;Shoot -->
<g id="edge52" class="edge"><title>wallRadar[0.7,&#45;0.7]&#45;&gt;Shoot</title>
<path fill="none" stroke="green" stroke-width="0.600696" d="M86.1024,-147.473C89.1108,-147.059 92.099,-146.666 95,-146.309 267.327,-125.098 312.68,-138.525 484,-110.309 552.613,-99.0081 631.257,-78.5187 675.642,-66.2409"/>
<polygon fill="green" stroke="green" stroke-width="0.600696" points="676.676,-69.5861 685.369,-63.5295 674.797,-62.8431 676.676,-69.5861"/>
</g>
<!-- wallRadar[0.7,&#45;0.7]&#45;&gt;Move Left -->
<g id="edge68" class="edge"><title>wallRadar[0.7,&#45;0.7]&#45;&gt;Move Left</title>
<path fill="none" stroke="red" stroke-width="0.217586" stroke-dasharray="1,5" d="M75.2427,-146.276C144.773,-128.955 309.063,-88.0263 390.114,-67.8347"/>
<polygon fill="red" stroke="red" stroke-width="0.217586" points="391.185,-71.1748 400.043,-65.3612 389.493,-64.3824 391.185,-71.1748"/>
</g>
<!-- enemyRadar[RightBack] -->
<g id="node9" class="node"><title>enemyRadar[RightBack]</title>
<polygon fill="lightgray" stroke="black" points="2511,-164.309 2407,-164.309 2407,-146.309 2511,-146.309 2511,-164.309"/>
<text text-anchor="middle" x="2459" y="-153.109" font-family="Times,serif" font-size="9.00">enemyRadar[RightBack]</text>
</g>
<!-- enemyRadar[LeftBack] -->
<g id="node10" class="node"><title>enemyRadar[LeftBack]</title>
<polygon fill="lightgray" stroke="black" points="1572.5,-164.309 1473.5,-164.309 1473.5,-146.309 1572.5,-146.309 1572.5,-164.309"/>
<text text-anchor="middle" x="1523" y="-153.109" font-family="Times,serif" font-size="9.00">enemyRadar[LeftBack]</text>
</g>
<!-- enemyRadar[LeftBack]&#45;&gt;Shoot -->
<g id="edge4" class="edge"><title>enemyRadar[LeftBack]&#45;&gt;Shoot</title>
<path fill="none" stroke="green" stroke-width="0.534283" d="M1473.46,-147.302C1470.26,-146.939 1467.09,-146.604 1464,-146.309 1321.09,-132.654 957.721,-147.252 819,-110.309 791.457,-102.974 762.723,-88.1665 741.824,-75.8869"/>
<polygon fill="green" stroke="green" stroke-width="0.534283" points="743.463,-72.7885 733.09,-70.6339 739.855,-78.7872 743.463,-72.7885"/>
</g>
<!-- enemyRadar[LeftBack]&#45;&gt;Move Forward -->
<g id="edge61" class="edge"><title>enemyRadar[LeftBack]&#45;&gt;Move Forward</title>
<path fill="none" stroke="green" stroke-width="0.253667" d="M1527.66,-146.276C1532.73,-137.55 1541.28,-122.832 1550.01,-107.792"/>
<polygon fill="green" stroke="green" stroke-width="0.253667" points="1553.16,-109.348 1555.15,-98.943 1547.1,-105.833 1553.16,-109.348"/>
</g>
<!-- enemyRadar[LeftBack]&#45;&gt; Move Backward -->
<g id="edge31" class="edge"><title>enemyRadar[LeftBack]&#45;&gt; Move Backward</title>
<path fill="none" stroke="green" stroke-width="0.382097" d="M1514.49,-146.276C1503.88,-136.261 1484.9,-118.353 1466.65,-101.124"/>
<polygon fill="green" stroke="green" stroke-width="0.382097" points="1468.57,-98.1257 1458.9,-93.8073 1463.77,-103.216 1468.57,-98.1257"/>
</g>
<!-- enemyRadar[LeftBack]&#45;&gt;Move right -->
<g id="edge49" class="edge"><title>enemyRadar[LeftBack]&#45;&gt;Move right</title>
<path fill="none" stroke="green" stroke-width="0.33812" d="M1554.1,-146.289C1581.76,-138.646 1622.98,-125.992 1657,-110.309 1673.19,-102.847 1690.1,-93.1049 1704.78,-83.9441"/>
<polygon fill="green" stroke="green" stroke-width="0.33812" points="1707.04,-86.6553 1713.61,-78.3409 1703.29,-80.7455 1707.04,-86.6553"/>
</g>
<!-- enemyRadar[LeftBack]&#45;&gt;Turn Left -->
<g id="edge3" class="edge"><title>enemyRadar[LeftBack]&#45;&gt;Turn Left</title>
<path fill="none" stroke="green" stroke-width="0.676261" d="M1485.81,-146.289C1451.44,-138.475 1399.17,-125.562 1355,-110.309 1326.28,-100.393 1294.92,-86.7942 1270.79,-75.7044"/>
<polygon fill="green" stroke="green" stroke-width="0.676261" points="1272.13,-72.4682 1261.58,-71.4353 1269.18,-78.8183 1272.13,-72.4682"/>
</g>
<!-- enemyRadar[Right45ø] -->
<g id="node11" class="node"><title>enemyRadar[Right45ø]</title>
<polygon fill="lightgray" stroke="black" points="1691,-164.309 1591,-164.309 1591,-146.309 1691,-146.309 1691,-164.309"/>
<text text-anchor="middle" x="1641" y="-153.109" font-family="Times,serif" font-size="9.00">enemyRadar[Right45ø]</text>
</g>
<!-- enemyRadar[Right45ø]&#45;&gt;Move Forward -->
<g id="edge21" class="edge"><title>enemyRadar[Right45ø]&#45;&gt;Move Forward</title>
<path fill="none" stroke="green" stroke-width="0.764991" d="M1636.01,-146.276C1630.49,-137.391 1621.1,-122.294 1611.58,-106.971"/>
<polygon fill="green" stroke="green" stroke-width="0.764991" points="1614.55,-105.119 1606.3,-98.4727 1608.61,-108.814 1614.55,-105.119"/>
</g>
<!-- enemyRadar[Right45ø]&#45;&gt; Move Backward -->
<g id="edge69" class="edge"><title>enemyRadar[Right45ø]&#45;&gt; Move Backward</title>
<path fill="none" stroke="green" stroke-width="0.502645" d="M1615.78,-146.183C1591.22,-138.009 1553.02,-124.597 1521,-110.309 1505.99,-103.61 1490.13,-95.6473 1475.51,-87.9178"/>
<polygon fill="green" stroke="green" stroke-width="0.502645" points="1477.05,-84.7741 1466.58,-83.1486 1473.75,-90.9481 1477.05,-84.7741"/>
</g>
<!-- enemyRadar[Right45ø]&#45;&gt;Turn Left -->
<g id="edge35" class="edge"><title>enemyRadar[Right45ø]&#45;&gt;Turn Left</title>
<path fill="none" stroke="green" stroke-width="0.137016" d="M1590.82,-147.301C1514.86,-136.586 1377.17,-116.703 1355,-110.309 1325.71,-101.863 1294.23,-88.194 1270.18,-76.7024"/>
<polygon fill="green" stroke="green" stroke-width="0.137016" points="1271.55,-73.475 1261.03,-72.2585 1268.5,-79.7728 1271.55,-73.475"/>
</g>
<!-- enemyRadar[Left45ø] -->
<g id="node12" class="node"><title>enemyRadar[Left45ø]</title>
<polygon fill="lightgray" stroke="black" points="2388.5,-164.309 2293.5,-164.309 2293.5,-146.309 2388.5,-146.309 2388.5,-164.309"/>
<text text-anchor="middle" x="2341" y="-153.109" font-family="Times,serif" font-size="9.00">enemyRadar[Left45ø]</text>
</g>
<!-- enemyRadar[Left45ø]&#45;&gt;Move right -->
<g id="edge76" class="edge"><title>enemyRadar[Left45ø]&#45;&gt;Move right</title>
<path fill="none" stroke="red" stroke-width="0.547391" d="M2293.31,-146.442C2182.34,-128.135 1907.68,-82.8262 1795.22,-64.2733"/>
<polygon fill="red" stroke="red" stroke-width="0.547391" points="1795.6,-60.79 1785.17,-62.6156 1794.46,-67.6966 1795.6,-60.79"/>
</g>
<!-- enemyRadar[RightFront20ø] -->
<g id="node13" class="node"><title>enemyRadar[RightFront20ø]</title>
<polygon fill="lightgray" stroke="black" points="657.5,-164.309 538.5,-164.309 538.5,-146.309 657.5,-146.309 657.5,-164.309"/>
<text text-anchor="middle" x="598" y="-153.109" font-family="Times,serif" font-size="9.00">enemyRadar[RightFront20ø]</text>
</g>
<!-- enemyRadar[RightFront20ø]&#45;&gt;Shoot -->
<g id="edge2" class="edge"><title>enemyRadar[RightFront20ø]&#45;&gt;Shoot</title>
<path fill="none" stroke="red" stroke-width="0.294383" d="M607.247,-146.276C623.704,-131.982 658.67,-101.609 683.453,-80.0827"/>
<polygon fill="red" stroke="red" stroke-width="0.294383" points="685.85,-82.636 691.105,-73.4359 681.26,-77.3513 685.85,-82.636"/>
</g>
<!-- enemyRadar[RightFront20ø]&#45;&gt;Move Left -->
<g id="edge15" class="edge"><title>enemyRadar[RightFront20ø]&#45;&gt;Move Left</title>
<path fill="none" stroke="red" stroke-width="0.478106" d="M584.825,-146.276C561.77,-132.221 513.219,-102.622 478.034,-81.1711"/>
<polygon fill="red" stroke="red" stroke-width="0.478106" points="479.761,-78.1246 469.401,-75.9075 476.117,-84.1015 479.761,-78.1246"/>
</g>
<!-- enemyRadar[RightFront20ø]&#45;&gt;Move right -->
<g id="edge7" class="edge"><title>enemyRadar[RightFront20ø]&#45;&gt;Move right</title>
<path fill="none" stroke="green" stroke-width="0.38829" stroke-dasharray="1,5" d="M657.811,-147.081C660.917,-146.797 663.994,-146.537 667,-146.309 886.512,-129.618 1446.14,-173.574 1657,-110.309 1674.38,-105.095 1691.8,-95.6518 1706.57,-86.0947"/>
<polygon fill="green" stroke="green" stroke-width="0.38829" points="1708.58,-88.9614 1714.94,-80.4856 1704.68,-83.1472 1708.58,-88.9614"/>
</g>
<!-- enemyRadar[RightFront20ø]&#45;&gt;Turn Left -->
<g id="edge56" class="edge"><title>enemyRadar[RightFront20ø]&#45;&gt;Turn Left</title>
<path fill="none" stroke="red" stroke-width="0.371382" stroke-dasharray="1,5" d="M657.764,-146.687C721.929,-138.358 826.816,-124.326 917,-110.309 1012.81,-95.4165 1124.67,-75.4346 1185.33,-64.3797"/>
<polygon fill="red" stroke="red" stroke-width="0.371382" points="1186.12,-67.793 1195.33,-62.5534 1184.86,-60.9069 1186.12,-67.793"/>
</g>
<!-- enemyRadar[LeftFront20ø] -->
<g id="node14" class="node"><title>enemyRadar[LeftFront20ø]</title>
<polygon fill="lightgray" stroke="black" points="306,-164.309 192,-164.309 192,-146.309 306,-146.309 306,-164.309"/>
<text text-anchor="middle" x="249" y="-153.109" font-family="Times,serif" font-size="9.00">enemyRadar[LeftFront20ø]</text>
</g>
<!-- enemyRadar[LeftFront20ø]&#45;&gt;Shoot -->
<g id="edge18" class="edge"><title>enemyRadar[LeftFront20ø]&#45;&gt;Shoot</title>
<path fill="none" stroke="red" stroke-width="0.271667" d="M295.506,-146.296C343.012,-137.948 418.839,-124.173 484,-110.309 552.015,-95.8374 630.863,-76.4289 675.447,-65.2078"/>
<polygon fill="red" stroke="red" stroke-width="0.271667" points="676.381,-68.5818 685.221,-62.7409 674.668,-61.7947 676.381,-68.5818"/>
</g>
<!-- enemyRadar[LeftFront20ø]&#45;&gt;Turn Right -->
<g id="edge65" class="edge"><title>enemyRadar[LeftFront20ø]&#45;&gt;Turn Right</title>
<path fill="none" stroke="red" stroke-width="0.109331" d="M306.223,-147.24C309.19,-146.915 312.129,-146.602 315,-146.309 506.666,-126.713 560.419,-158.345 747,-110.309 773.837,-103.399 802.197,-91.009 824.711,-79.8223"/>
<polygon fill="red" stroke="red" stroke-width="0.109331" points="826.327,-82.9273 833.664,-75.2844 823.162,-76.6834 826.327,-82.9273"/>
</g>
<!-- enemyRadar[RightFront15ø] -->
<g id="node15" class="node"><title>enemyRadar[RightFront15ø]</title>
<polygon fill="lightgray" stroke="black" points="443.5,-164.309 324.5,-164.309 324.5,-146.309 443.5,-146.309 443.5,-164.309"/>
<text text-anchor="middle" x="384" y="-153.109" font-family="Times,serif" font-size="9.00">enemyRadar[RightFront15ø]</text>
</g>
<!-- enemyRadar[RightFront15ø]&#45;&gt;Shoot -->
<g id="edge23" class="edge"><title>enemyRadar[RightFront15ø]&#45;&gt;Shoot</title>
<path fill="none" stroke="red" stroke-width="0.238403" d="M410.76,-146.276C469.399,-128.675 609.247,-86.6972 675.294,-66.8722"/>
<polygon fill="red" stroke="red" stroke-width="0.238403" points="676.665,-70.1149 685.236,-63.8877 674.652,-63.4105 676.665,-70.1149"/>
</g>
<!-- enemyRadar[RightFront15ø]&#45;&gt;Move Left -->
<g id="edge59" class="edge"><title>enemyRadar[RightFront15ø]&#45;&gt;Move Left</title>
<path fill="none" stroke="green" stroke-width="0.496295" d="M388.337,-146.276C394.021,-135.749 404.414,-116.503 414.14,-98.4911"/>
<polygon fill="green" stroke="green" stroke-width="0.496295" points="417.465,-99.6995 419.136,-89.2374 411.305,-96.3736 417.465,-99.6995"/>
</g>
<!-- enemyRadar[RightFront15ø]&#45;&gt;Turn Left -->
<g id="edge82" class="edge"><title>enemyRadar[RightFront15ø]&#45;&gt;Turn Left</title>
<path fill="none" stroke="red" stroke-width="0.129047" stroke-dasharray="1,5" d="M443.69,-147.15C446.498,-146.856 449.279,-146.574 452,-146.309 658.307,-126.195 711.314,-136.006 917,-110.309 1013.22,-98.2876 1124.92,-77.2329 1185.44,-65.2245"/>
<polygon fill="red" stroke="red" stroke-width="0.129047" points="1186.3,-68.6229 1195.42,-63.2347 1184.93,-61.7581 1186.3,-68.6229"/>
</g>
<!-- enemyRadar[RightFront15ø]&#45;&gt;Turn Right -->
<g id="edge19" class="edge"><title>enemyRadar[RightFront15ø]&#45;&gt;Turn Right</title>
<path fill="none" stroke="red" stroke-width="0.390088" d="M443.621,-147.196C545.693,-135.003 743.373,-111.315 747,-110.309 773.703,-102.898 802.055,-90.4776 824.598,-79.4"/>
<polygon fill="red" stroke="red" stroke-width="0.390088" points="826.188,-82.5184 833.565,-74.9144 823.056,-76.258 826.188,-82.5184"/>
</g>
<!-- enemyRadar[LeftFront15ø] -->
<g id="node16" class="node"><title>enemyRadar[LeftFront15ø]</title>
<polygon fill="lightgray" stroke="black" points="1169,-164.309 1055,-164.309 1055,-146.309 1169,-146.309 1169,-164.309"/>
<text text-anchor="middle" x="1112" y="-153.109" font-family="Times,serif" font-size="9.00">enemyRadar[LeftFront15ø]</text>
</g>
<!-- enemyRadar[LeftFront15ø]&#45;&gt;Turn Left -->
<g id="edge44" class="edge"><title>enemyRadar[LeftFront15ø]&#45;&gt;Turn Left</title>
<path fill="none" stroke="red" stroke-width="0.502662" d="M1121.66,-146.276C1137.55,-133.056 1169.98,-106.083 1195.23,-85.0748"/>
<polygon fill="red" stroke="red" stroke-width="0.502662" points="1197.7,-87.5742 1203.15,-78.4884 1193.22,-82.1927 1197.7,-87.5742"/>
</g>
<!-- enemyRadar[RightFront7.5ø] -->
<g id="node17" class="node"><title>enemyRadar[RightFront7.5ø]</title>
<polygon fill="lightgray" stroke="black" points="2033,-164.309 1911,-164.309 1911,-146.309 2033,-146.309 2033,-164.309"/>
<text text-anchor="middle" x="1972" y="-153.109" font-family="Times,serif" font-size="9.00">enemyRadar[RightFront7.5ø]</text>
</g>
<!-- enemyRadar[RightFront7.5ø]&#45;&gt;Move Forward -->
<g id="edge9" class="edge"><title>enemyRadar[RightFront7.5ø]&#45;&gt;Move Forward</title>
<path fill="none" stroke="red" stroke-width="0.140324" d="M1910.93,-146.527C1842.46,-137.45 1735.9,-122.176 1697,-110.309 1675.38,-103.712 1652.6,-93.8913 1632.95,-84.4167"/>
<polygon fill="red" stroke="red" stroke-width="0.140324" points="1634.39,-81.2221 1623.87,-79.9554 1631.3,-87.5053 1634.39,-81.2221"/>
</g>
<!-- enemyRadar[RightFront7.5ø]&#45;&gt; Move Backward -->
<g id="edge75" class="edge"><title>enemyRadar[RightFront7.5ø]&#45;&gt; Move Backward</title>
<path fill="none" stroke="red" stroke-width="0.424566" d="M1910.92,-147.257C1907.91,-146.931 1904.92,-146.613 1902,-146.309 1732.83,-128.651 1683.93,-159.132 1521,-110.309 1505.1,-105.543 1488.81,-98.1933 1474.05,-90.4305"/>
<polygon fill="red" stroke="red" stroke-width="0.424566" points="1475.53,-87.2537 1465.07,-85.5632 1472.19,-93.4071 1475.53,-87.2537"/>
</g>
<!-- enemyRadar[RightFront7.5ø]&#45;&gt;Move right -->
<g id="edge77" class="edge"><title>enemyRadar[RightFront7.5ø]&#45;&gt;Move right</title>
<path fill="none" stroke="green" stroke-width="1.07913" d="M1953.51,-146.276C1918.35,-131.007 1840.95,-97.3914 1791.26,-75.8093"/>
<polygon fill="green" stroke="green" stroke-width="1.07913" points="1792.58,-72.5679 1782.01,-71.7945 1789.79,-78.9885 1792.58,-72.5679"/>
</g>
<!-- enemyRadar[RightFront7.5ø]&#45;&gt;Turn Left -->
<g id="edge26" class="edge"><title>enemyRadar[RightFront7.5ø]&#45;&gt;Turn Left</title>
<path fill="none" stroke="red" stroke-width="0.214373" stroke-dasharray="1,5" d="M1910.93,-147.155C1907.91,-146.856 1904.92,-146.572 1902,-146.309 1659.34,-124.47 1591.81,-167.576 1355,-110.309 1325.37,-103.144 1293.89,-89.4657 1269.93,-77.6496"/>
<polygon fill="red" stroke="red" stroke-width="0.214373" points="1271.32,-74.4288 1260.81,-73.062 1268.17,-80.6823 1271.32,-74.4288"/>
</g>
<!-- enemyRadar[LeftFront7.5ø] -->
<g id="node18" class="node"><title>enemyRadar[LeftFront7.5ø]</title>
<polygon fill="lightgray" stroke="black" points="880,-164.309 764,-164.309 764,-146.309 880,-146.309 880,-164.309"/>
<text text-anchor="middle" x="822" y="-153.109" font-family="Times,serif" font-size="9.00">enemyRadar[LeftFront7.5ø]</text>
</g>
<!-- enemyRadar[LeftFront7.5ø]&#45;&gt;Shoot -->
<g id="edge57" class="edge"><title>enemyRadar[LeftFront7.5ø]&#45;&gt;Shoot</title>
<path fill="none" stroke="red" stroke-width="0.273133" d="M812.916,-146.276C796.844,-132.064 762.8,-101.96 738.483,-80.4569"/>
<polygon fill="red" stroke="red" stroke-width="0.273133" points="740.775,-77.811 730.965,-73.8086 736.137,-83.0549 740.775,-77.811"/>
</g>
<!-- enemyRadar[LeftFront7.5ø]&#45;&gt; Move Backward -->
<g id="edge47" class="edge"><title>enemyRadar[LeftFront7.5ø]&#45;&gt; Move Backward</title>
<path fill="none" stroke="green" stroke-width="0.259991" d="M880.094,-147.28C883.105,-146.944 886.088,-146.619 889,-146.309 1059.89,-128.119 1106.49,-148.707 1274,-110.309 1302.93,-103.678 1333.88,-92.6898 1359.73,-82.3379"/>
<polygon fill="green" stroke="green" stroke-width="0.259991" points="1361.06,-85.5731 1369.01,-78.5621 1358.43,-79.0894 1361.06,-85.5731"/>
</g>
<!-- enemyRadar[LeftFront7.5ø]&#45;&gt;Turn Left -->
<g id="edge74" class="edge"><title>enemyRadar[LeftFront7.5ø]&#45;&gt;Turn Left</title>
<path fill="none" stroke="green" stroke-width="0.27914" d="M855.388,-146.276C928.741,-128.629 1103.94,-86.4807 1186.08,-66.7193"/>
<polygon fill="green" stroke="green" stroke-width="0.27914" points="1186.96,-70.1089 1195.86,-64.3669 1185.32,-63.3031 1186.96,-70.1089"/>
</g>
<!-- enemyRadar[LeftFront7.5ø]&#45;&gt;Turn Right -->
<g id="edge30" class="edge"><title>enemyRadar[LeftFront7.5ø]&#45;&gt;Turn Right</title>
<path fill="none" stroke="red" stroke-width="0.337475" d="M825.764,-146.276C830.472,-136.232 838.899,-118.25 846.994,-100.977"/>
<polygon fill="red" stroke="red" stroke-width="0.337475" points="850.357,-102.048 851.432,-91.5079 844.019,-99.0776 850.357,-102.048"/>
</g>
<!-- enemyRadar[RightFront2.5ø] -->
<g id="node19" class="node"><title>enemyRadar[RightFront2.5ø]</title>
<polygon fill="lightgray" stroke="black" points="2275,-164.309 2153,-164.309 2153,-146.309 2275,-146.309 2275,-164.309"/>
<text text-anchor="middle" x="2214" y="-153.109" font-family="Times,serif" font-size="9.00">enemyRadar[RightFront2.5ø]</text>
</g>
<!-- enemyRadar[RightFront2.5ø]&#45;&gt;Move Forward -->
<g id="edge72" class="edge"><title>enemyRadar[RightFront2.5ø]&#45;&gt;Move Forward</title>
<path fill="none" stroke="red" stroke-width="0.645346" d="M2152.93,-147.207C2149.91,-146.895 2146.92,-146.593 2144,-146.309 1945.63,-126.99 1889.77,-160.956 1697,-110.309 1675.04,-104.539 1652.11,-94.8397 1632.44,-85.2302"/>
<polygon fill="red" stroke="red" stroke-width="0.645346" points="1633.86,-82.0276 1623.35,-80.6874 1630.73,-88.289 1633.86,-82.0276"/>
</g>
<!-- enemyRadar[RightFront2.5ø]&#45;&gt;Move right -->
<g id="edge14" class="edge"><title>enemyRadar[RightFront2.5ø]&#45;&gt;Move right</title>
<path fill="none" stroke="red" stroke-width="0.165907" d="M2175.7,-146.276C2091.11,-128.536 1888.45,-86.0316 1794.88,-66.4059"/>
<polygon fill="red" stroke="red" stroke-width="0.165907" points="1795.33,-62.925 1784.83,-64.2977 1793.9,-69.7759 1795.33,-62.925"/>
</g>
<!-- enemyRadar[RightFront2.5ø]&#45;&gt;Turn Left -->
<g id="edge5" class="edge"><title>enemyRadar[RightFront2.5ø]&#45;&gt;Turn Left</title>
<path fill="none" stroke="green" stroke-width="0.623373" d="M2152.94,-147.082C2149.92,-146.803 2146.93,-146.542 2144,-146.309 1969.04,-132.336 1526,-149.845 1355,-110.309 1325.2,-103.418 1293.6,-89.6684 1269.64,-77.7482"/>
<polygon fill="green" stroke="green" stroke-width="0.623373" points="1271.02,-74.5242 1260.52,-73.1183 1267.85,-80.766 1271.02,-74.5242"/>
</g>
<!-- enemyRadar[LeftFront2.5ø] -->
<g id="node20" class="node"><title>enemyRadar[LeftFront2.5ø]</title>
<polygon fill="lightgray" stroke="black" points="1825,-164.309 1709,-164.309 1709,-146.309 1825,-146.309 1825,-164.309"/>
<text text-anchor="middle" x="1767" y="-153.109" font-family="Times,serif" font-size="9.00">enemyRadar[LeftFront2.5ø]</text>
</g>
<!-- enemyRadar[LeftFront2.5ø]&#45;&gt;Move Forward -->
<g id="edge78" class="edge"><title>enemyRadar[LeftFront2.5ø]&#45;&gt;Move Forward</title>
<path fill="none" stroke="green" stroke-width="0.291534" d="M1751.7,-146.276C1726.07,-132.825 1673.32,-105.139 1633.02,-83.9822"/>
<polygon fill="green" stroke="green" stroke-width="0.291534" points="1634.58,-80.8515 1624.1,-79.3029 1631.33,-87.0495 1634.58,-80.8515"/>
</g>
<!-- enemyRadar[LeftFront2.5ø]&#45;&gt; Move Backward -->
<g id="edge63" class="edge"><title>enemyRadar[LeftFront2.5ø]&#45;&gt; Move Backward</title>
<path fill="none" stroke="red" stroke-width="0.270667" d="M1710.62,-146.299C1649.21,-137.211 1555.19,-122.117 1521,-110.309 1505.38,-104.916 1489.25,-97.3841 1474.56,-89.6492"/>
<polygon fill="red" stroke="red" stroke-width="0.270667" points="1476.07,-86.49 1465.61,-84.8241 1472.75,-92.6512 1476.07,-86.49"/>
</g>
<!-- enemyRadar[LeftFront2.5ø]&#45;&gt;Move right -->
<g id="edge64" class="edge"><title>enemyRadar[LeftFront2.5ø]&#45;&gt;Move right</title>
<path fill="none" stroke="red" stroke-width="0.202678" d="M1765.28,-146.276C1763.27,-136.873 1759.77,-120.513 1756.3,-104.29"/>
<polygon fill="red" stroke="red" stroke-width="0.202678" points="1759.67,-103.317 1754.15,-94.2702 1752.82,-104.781 1759.67,-103.317"/>
</g>
<!-- enemyRadar[LeftFront2.5ø]&#45;&gt;Turn Left -->
<g id="edge67" class="edge"><title>enemyRadar[LeftFront2.5ø]&#45;&gt;Turn Left</title>
<path fill="none" stroke="green" stroke-width="0.320907" d="M1708.9,-147.318C1705.89,-146.973 1702.91,-146.634 1700,-146.309 1546.79,-129.169 1504.13,-149.405 1355,-110.309 1325.51,-102.578 1294.03,-88.9043 1270.04,-77.2314"/>
<polygon fill="green" stroke="green" stroke-width="0.320907" points="1271.42,-74.0083 1260.9,-72.7073 1268.31,-80.2813 1271.42,-74.0083"/>
</g>
<!-- enemyRadar[LeftFront2.5ø]&#45;&gt;Turn Right -->
<g id="edge33" class="edge"><title>enemyRadar[LeftFront2.5ø]&#45;&gt;Turn Right</title>
<path fill="none" stroke="red" stroke-width="0.52555" d="M1708.91,-147.197C1705.9,-146.883 1702.92,-146.585 1700,-146.309 1472.02,-124.727 1413.38,-137.564 1186,-110.309 1090.14,-98.8173 979.168,-78.2429 916.916,-66.0311"/>
<polygon fill="red" stroke="red" stroke-width="0.52555" points="917.472,-62.5733 906.984,-64.0724 916.118,-69.4411 917.472,-62.5733"/>
</g>
<!-- OnTarget -->
<g id="node21" class="node"><title>OnTarget</title>
<polygon fill="lightgray" stroke="black" points="1893,-164.309 1843,-164.309 1843,-146.309 1893,-146.309 1893,-164.309"/>
<text text-anchor="middle" x="1868" y="-153.109" font-family="Times,serif" font-size="9.00">OnTarget</text>
</g>
<!-- OnTarget&#45;&gt;Move Forward -->
<g id="edge66" class="edge"><title>OnTarget&#45;&gt;Move Forward</title>
<path fill="none" stroke="green" stroke-width="1.01041" d="M1842.85,-148.105C1798.73,-137.184 1710.75,-115.214 1697,-110.309 1675.8,-102.745 1653.2,-92.766 1633.57,-83.437"/>
<polygon fill="green" stroke="green" stroke-width="1.01041" points="1635.01,-80.2478 1624.48,-79.0657 1631.98,-86.5556 1635.01,-80.2478"/>
</g>
<!-- OnTarget&#45;&gt; Move Backward -->
<g id="edge42" class="edge"><title>OnTarget&#45;&gt; Move Backward</title>
<path fill="none" stroke="green" stroke-width="0.324418" d="M1842.82,-148.038C1839.85,-147.403 1836.87,-146.809 1834,-146.309 1696.06,-122.232 1654.72,-151.863 1521,-110.309 1505.22,-105.406 1489.04,-98.0491 1474.34,-90.3256"/>
<polygon fill="green" stroke="green" stroke-width="0.324418" points="1475.85,-87.1673 1465.39,-85.488 1472.52,-93.3243 1475.85,-87.1673"/>
</g>
<!-- OnTarget&#45;&gt;Move right -->
<g id="edge51" class="edge"><title>OnTarget&#45;&gt;Move right</title>
<path fill="none" stroke="red" stroke-width="0.212256" stroke-dasharray="1,5" d="M1858.02,-146.276C1842.15,-133.51 1810.34,-107.921 1784.66,-87.2616"/>
<polygon fill="red" stroke="red" stroke-width="0.212256" points="1786.56,-84.2912 1776.57,-80.7496 1782.17,-89.7452 1786.56,-84.2912"/>
</g>
<!-- OnTarget&#45;&gt;Turn Left -->
<g id="edge28" class="edge"><title>OnTarget&#45;&gt;Turn Left</title>
<path fill="none" stroke="red" stroke-width="0.431239" d="M1842.83,-147.926C1839.87,-147.311 1836.88,-146.752 1834,-146.309 1623.01,-113.761 1562.27,-161.454 1355,-110.309 1325.4,-103.006 1293.92,-89.329 1269.96,-77.5478"/>
<polygon fill="red" stroke="red" stroke-width="0.431239" points="1271.34,-74.3265 1260.83,-72.9756 1268.21,-80.5848 1271.34,-74.3265"/>
</g>
<!-- OnTarget&#45;&gt;Turn Right -->
<g id="edge38" class="edge"><title>OnTarget&#45;&gt;Turn Right</title>
<path fill="none" stroke="green" stroke-width="0.346328" d="M1842.84,-147.87C1839.88,-147.265 1836.88,-146.724 1834,-146.309 1548.51,-105.117 1472.63,-142.572 1186,-110.309 1090.06,-99.5091 979.115,-78.6947 916.891,-66.2524"/>
<polygon fill="green" stroke="green" stroke-width="0.346328" points="917.456,-62.7962 906.963,-64.2554 916.076,-69.6587 917.456,-62.7962"/>
</g>
<!-- TakingDmg -->
<g id="node22" class="node"><title>TakingDmg</title>
<polygon fill="lightgray" stroke="black" points="520.5,-164.309 461.5,-164.309 461.5,-146.309 520.5,-146.309 520.5,-164.309"/>
<text text-anchor="middle" x="491" y="-153.109" font-family="Times,serif" font-size="9.00">TakingDmg</text>
</g>
<!-- TakingDmg&#45;&gt;Shoot -->
<g id="edge27" class="edge"><title>TakingDmg&#45;&gt;Shoot</title>
<path fill="none" stroke="green" stroke-width="0.929394" d="M509.004,-146.276C545.87,-129.828 630.45,-92.0924 677.635,-71.0404"/>
<polygon fill="green" stroke="green" stroke-width="0.929394" points="679.121,-74.2101 686.827,-66.9393 676.268,-67.8175 679.121,-74.2101"/>
</g>
<!-- TakingDmg&#45;&gt;Move Left -->
<g id="edge62" class="edge"><title>TakingDmg&#45;&gt;Move Left</title>
<path fill="none" stroke="red" stroke-width="0.363728" d="M486.581,-146.276C480.789,-135.749 470.201,-116.503 460.292,-98.4911"/>
<polygon fill="red" stroke="red" stroke-width="0.363728" points="463.088,-96.3119 455.201,-89.2374 456.954,-99.6861 463.088,-96.3119"/>
</g>
<!-- TakingDmg&#45;&gt;Move right -->
<g id="edge16" class="edge"><title>TakingDmg&#45;&gt;Move right</title>
<path fill="none" stroke="red" stroke-width="0.321895" d="M520.788,-147.521C523.554,-147.047 526.323,-146.631 529,-146.309 778,-116.36 1416.63,-181.847 1657,-110.309 1674.53,-105.09 1692.11,-95.5412 1706.95,-85.8985"/>
<polygon fill="red" stroke="red" stroke-width="0.321895" points="1709.01,-88.7299 1715.35,-80.2423 1705.1,-82.9229 1709.01,-88.7299"/>
</g>
<!-- TakingDmg&#45;&gt;Turn Right -->
<g id="edge73" class="edge"><title>TakingDmg&#45;&gt;Turn Right</title>
<path fill="none" stroke="green" stroke-width="0.231361" d="M520.846,-147.896C523.6,-147.344 526.35,-146.806 529,-146.309 625.515,-128.189 652.963,-138.6 747,-110.309 773.537,-102.325 801.88,-89.8708 824.458,-78.9179"/>
<polygon fill="green" stroke="green" stroke-width="0.231361" points="826.019,-82.0508 833.443,-74.4919 822.926,-75.7714 826.019,-82.0508"/>
</g>
<!-- bias -->
<g id="node23" class="node"><title>bias</title>
<polygon fill="lightgray" stroke="black" points="929.5,-164.309 898.5,-164.309 898.5,-146.309 929.5,-146.309 929.5,-164.309"/>
<text text-anchor="middle" x="914" y="-153.109" font-family="Times,serif" font-size="9.00">bias</text>
</g>
<!-- bias&#45;&gt;Move Forward -->
<g id="edge8" class="edge"><title>bias&#45;&gt;Move Forward</title>
<path fill="none" stroke="green" stroke-width="0.692124" d="M929.594,-148.468C932.362,-147.617 935.241,-146.847 938,-146.309 1184.09,-98.2654 1263.99,-192.124 1501,-110.309 1512.3,-106.409 1523.48,-100.43 1533.72,-93.847"/>
<polygon fill="green" stroke="green" stroke-width="0.692124" points="1535.75,-96.7009 1542.08,-88.2075 1531.83,-90.8974 1535.75,-96.7009"/>
</g>
<!-- bias&#45;&gt; Move Backward -->
<g id="edge37" class="edge"><title>bias&#45;&gt; Move Backward</title>
<path fill="none" stroke="red" stroke-width="0.295152" d="M929.615,-148.567C932.38,-147.705 935.253,-146.906 938,-146.309 1084.75,-114.377 1127.84,-144.853 1274,-110.309 1302.88,-103.483 1333.83,-92.4679 1359.69,-82.1487"/>
<polygon fill="red" stroke="red" stroke-width="0.295152" points="1361.01,-85.3867 1368.97,-78.3873 1358.38,-78.8991 1361.01,-85.3867"/>
</g>
<!-- bias&#45;&gt;Move Left -->
<g id="edge41" class="edge"><title>bias&#45;&gt;Move Left</title>
<path fill="none" stroke="green" stroke-width="0.274013" d="M898.495,-148.968C895.374,-148 892.1,-147.061 889,-146.309 795.275,-123.553 769.616,-129.016 675,-110.309 608.246,-97.1105 531.594,-79.1625 483.726,-67.6162"/>
<polygon fill="green" stroke="green" stroke-width="0.274013" points="484.505,-64.2038 473.962,-65.2535 482.859,-71.0074 484.505,-64.2038"/>
</g>
<!-- bias&#45;&gt;Turn Right -->
<g id="edge32" class="edge"><title>bias&#45;&gt;Turn Right</title>
<path fill="none" stroke="red" stroke-width="0.316601" d="M910.236,-146.276C905.528,-136.232 897.101,-118.25 889.006,-100.977"/>
<polygon fill="red" stroke="red" stroke-width="0.316601" points="891.981,-99.0776 884.568,-91.5079 885.643,-102.048 891.981,-99.0776"/>
</g>
<!-- Move Forward&#45;&gt;Move Forward -->
<g id="edge45" class="edge"><title>Move Forward&#45;&gt;Move Forward</title>
<path fill="none" stroke="red" stroke-width="0.113093" d="M1626.86,-73.7109C1639.03,-72.5703 1648.2,-66.3848 1648.2,-55.1543 1648.2,-47.2579 1643.67,-41.8556 1636.74,-38.9475"/>
<polygon fill="red" stroke="red" stroke-width="0.113093" points="1637.4,-35.5055 1626.86,-36.5977 1635.78,-42.3157 1637.4,-35.5055"/>
</g>
<!--  Move Backward&#45;&gt; Move Backward -->
<g id="edge79" class="edge"><title> Move Backward&#45;&gt; Move Backward</title>
<path fill="none" stroke="green" stroke-width="0.463214" d="M1471.28,-73.4912C1483.31,-71.9111 1492.15,-65.7989 1492.15,-55.1543 1492.15,-47.6699 1487.78,-42.4261 1481,-39.423"/>
<polygon fill="green" stroke="green" stroke-width="0.463214" points="1481.84,-36.0242 1471.28,-36.8175 1480.03,-42.7858 1481.84,-36.0242"/>
</g>
<!-- Move right&#45;&gt;Move right -->
<g id="edge71" class="edge"><title>Move right&#45;&gt;Move right</title>
<path fill="none" stroke="red" stroke-width="0.867703" d="M1781.15,-73.894C1793.54,-74.1939 1803.6,-67.9473 1803.6,-55.1543 1803.6,-46.1593 1798.63,-40.4007 1791.37,-37.8785"/>
<polygon fill="red" stroke="red" stroke-width="0.867703" points="1791.55,-34.3684 1781.15,-36.4146 1790.55,-41.2977 1791.55,-34.3684"/>
</g>
</g>
</svg>
