<?xml version="1.0" encoding="UTF-8" standalone="no"?>
<!DOCTYPE svg PUBLIC "-//W3C//DTD SVG 1.1//EN"
 "http://www.w3.org/Graphics/SVG/1.1/DTD/svg11.dtd">
<!-- Generated by graphviz version 2.38.0 (20140413.2041)
 -->
<!-- Title: %3 Pages: 1 -->
<svg width="2381pt" height="172pt"
 viewBox="0.00 0.00 2381.00 172.31" xmlns="http://www.w3.org/2000/svg" xmlns:xlink="http://www.w3.org/1999/xlink">
<g id="graph0" class="graph" transform="scale(1 1) rotate(0) translate(4 168.309)">
<title>%3</title>
<polygon fill="white" stroke="none" points="-4,4 -4,-168.309 2377,-168.309 2377,4 -4,4"/>
<!-- wallRadar[1,0] -->
<g id="node1" class="node"><title>wallRadar[1,0]</title>
<polygon fill="lightgray" stroke="black" points="2005,-164.309 1935,-164.309 1935,-146.309 2005,-146.309 2005,-164.309"/>
<text text-anchor="middle" x="1970" y="-153.109" font-family="Times,serif" font-size="9.00">wallRadar[1,0]</text>
</g>
<!-- Move Left -->
<g id="node26" class="node"><title>Move Left</title>
<ellipse fill="lightblue" stroke="black" cx="944" cy="-55.1543" rx="38.3684" ry="38.3684"/>
<text text-anchor="middle" x="944" y="-52.9543" font-family="Times,serif" font-size="9.00">Move Left</text>
</g>
<!-- wallRadar[1,0]&#45;&gt;Move Left -->
<g id="edge27" class="edge"><title>wallRadar[1,0]&#45;&gt;Move Left</title>
<path fill="none" stroke="green" stroke-width="0.219798" d="M1935,-147.508C1931.96,-147.051 1928.93,-146.641 1926,-146.309 1580.29,-107.102 1487.74,-164.096 1144,-110.309 1090.1,-101.875 1029.88,-84.43 989.737,-71.6092"/>
<polygon fill="green" stroke="green" stroke-width="0.219798" points="990.571,-68.2008 979.98,-68.4576 988.42,-74.8619 990.571,-68.2008"/>
</g>
<!-- Move right -->
<g id="node27" class="node"><title>Move right</title>
<ellipse fill="lightblue" stroke="black" cx="1892" cy="-55.1543" rx="39.6962" ry="39.6962"/>
<text text-anchor="middle" x="1892" y="-52.9543" font-family="Times,serif" font-size="9.00">Move right</text>
</g>
<!-- wallRadar[1,0]&#45;&gt;Move right -->
<g id="edge17" class="edge"><title>wallRadar[1,0]&#45;&gt;Move right</title>
<path fill="none" stroke="green" stroke-width="0.284433" d="M1963.62,-146.276C1954.64,-134.979 1937.68,-113.639 1922.52,-94.56"/>
<polygon fill="green" stroke="green" stroke-width="0.284433" points="1925.12,-92.2091 1916.16,-86.5576 1919.64,-96.5642 1925.12,-92.2091"/>
</g>
<!-- Turn Right -->
<g id="node29" class="node"><title>Turn Right</title>
<ellipse fill="lightblue" stroke="black" cx="1555" cy="-55.1543" rx="39.6962" ry="39.6962"/>
<text text-anchor="middle" x="1555" y="-52.9543" font-family="Times,serif" font-size="9.00">Turn Right</text>
</g>
<!-- wallRadar[1,0]&#45;&gt;Turn Right -->
<g id="edge42" class="edge"><title>wallRadar[1,0]&#45;&gt;Turn Right</title>
<path fill="none" stroke="green" stroke-width="0.200757" d="M1936.04,-146.276C1862.47,-128.875 1688.17,-87.6512 1603.22,-67.5588"/>
<polygon fill="green" stroke="green" stroke-width="0.200757" points="1603.85,-64.112 1593.31,-65.2163 1602.24,-70.9241 1603.85,-64.112"/>
</g>
<!-- wallRadar[0,1] -->
<g id="node2" class="node"><title>wallRadar[0,1]</title>
<polygon fill="lightgray" stroke="black" points="1713,-164.309 1643,-164.309 1643,-146.309 1713,-146.309 1713,-164.309"/>
<text text-anchor="middle" x="1678" y="-153.109" font-family="Times,serif" font-size="9.00">wallRadar[0,1]</text>
</g>
<!-- Move Forward -->
<g id="node24" class="node"><title>Move Forward</title>
<ellipse fill="lightblue" stroke="black" cx="1203" cy="-55.1543" rx="50.41" ry="50.41"/>
<text text-anchor="middle" x="1203" y="-52.9543" font-family="Times,serif" font-size="9.00">Move Forward</text>
</g>
<!-- wallRadar[0,1]&#45;&gt;Move Forward -->
<g id="edge21" class="edge"><title>wallRadar[0,1]&#45;&gt;Move Forward</title>
<path fill="none" stroke="red" stroke-width="0.604998" stroke-dasharray="1,5" d="M1642.97,-147.716C1639.94,-147.214 1636.92,-146.737 1634,-146.309 1491.52,-125.416 1450.14,-150.965 1312,-110.309 1292.58,-104.593 1272.43,-95.5718 1254.82,-86.5189"/>
<polygon fill="red" stroke="red" stroke-width="0.604998" points="1256.33,-83.3619 1245.85,-81.7992 1253.07,-89.5556 1256.33,-83.3619"/>
</g>
<!-- wallRadar[0,1]&#45;&gt;Turn Right -->
<g id="edge18" class="edge"><title>wallRadar[0,1]&#45;&gt;Turn Right</title>
<path fill="none" stroke="red" stroke-width="0.144299" d="M1667.93,-146.276C1651.82,-133.413 1619.38,-107.533 1593.39,-86.7927"/>
<polygon fill="red" stroke="red" stroke-width="0.144299" points="1595.56,-84.0431 1585.56,-80.5413 1591.19,-89.5145 1595.56,-84.0431"/>
</g>
<!-- wallRadar[&#45;1,0] -->
<g id="node3" class="node"><title>wallRadar[&#45;1,0]</title>
<polygon fill="lightgray" stroke="black" points="1288.5,-164.309 1215.5,-164.309 1215.5,-146.309 1288.5,-146.309 1288.5,-164.309"/>
<text text-anchor="middle" x="1252" y="-153.109" font-family="Times,serif" font-size="9.00">wallRadar[&#45;1,0]</text>
</g>
<!-- Shoot -->
<g id="node23" class="node"><title>Shoot</title>
<ellipse fill="lightblue" stroke="black" cx="1348" cy="-55.1543" rx="26.7407" ry="26.7407"/>
<text text-anchor="middle" x="1348" y="-52.9543" font-family="Times,serif" font-size="9.00">Shoot</text>
</g>
<!-- wallRadar[&#45;1,0]&#45;&gt;Shoot -->
<g id="edge4" class="edge"><title>wallRadar[&#45;1,0]&#45;&gt;Shoot</title>
<path fill="none" stroke="red" stroke-width="0.326039" d="M1259.86,-146.276C1273.4,-132.433 1301.68,-103.512 1322.58,-82.1478"/>
<polygon fill="red" stroke="red" stroke-width="0.326039" points="1325.13,-84.5398 1329.62,-74.9434 1320.13,-79.6452 1325.13,-84.5398"/>
</g>
<!-- wallRadar[&#45;1,0]&#45;&gt;Move Forward -->
<g id="edge32" class="edge"><title>wallRadar[&#45;1,0]&#45;&gt;Move Forward</title>
<path fill="none" stroke="red" stroke-width="0.425831" d="M1247.99,-146.276C1243.79,-137.859 1236.8,-123.867 1229.58,-109.389"/>
<polygon fill="red" stroke="red" stroke-width="0.425831" points="1232.66,-107.741 1225.07,-100.357 1226.4,-110.867 1232.66,-107.741"/>
</g>
<!--  Move Backward -->
<g id="node25" class="node"><title> Move Backward</title>
<ellipse fill="lightblue" stroke="black" cx="656" cy="-55.1543" rx="55.3091" ry="55.3091"/>
<text text-anchor="middle" x="656" y="-52.9543" font-family="Times,serif" font-size="9.00"> Move Backward</text>
</g>
<!-- wallRadar[&#45;1,0]&#45;&gt; Move Backward -->
<g id="edge1" class="edge"><title>wallRadar[&#45;1,0]&#45;&gt; Move Backward</title>
<path fill="none" stroke="green" stroke-width="0.138056" d="M1215.37,-147.747C1212.21,-147.238 1209.05,-146.751 1206,-146.309 1069.17,-126.456 1033.3,-133.497 897,-110.309 836.218,-99.9683 767.694,-84.1617 719.295,-72.2901"/>
<polygon fill="green" stroke="green" stroke-width="0.138056" points="719.83,-68.8172 709.283,-69.8199 718.154,-75.6134 719.83,-68.8172"/>
</g>
<!-- wallRadar[&#45;1,0]&#45;&gt;Turn Right -->
<g id="edge54" class="edge"><title>wallRadar[&#45;1,0]&#45;&gt;Turn Right</title>
<path fill="none" stroke="red" stroke-width="0.407107" stroke-dasharray="1,5" d="M1276.8,-146.276C1327.28,-129.923 1442.71,-92.5297 1507.91,-71.4086"/>
<polygon fill="red" stroke="red" stroke-width="0.407107" points="1509.1,-74.7011 1517.54,-68.2896 1506.95,-68.0417 1509.1,-74.7011"/>
</g>
<!-- wallRadar[0,&#45;1] -->
<g id="node4" class="node"><title>wallRadar[0,&#45;1]</title>
<polygon fill="lightgray" stroke="black" points="195.5,-164.309 122.5,-164.309 122.5,-146.309 195.5,-146.309 195.5,-164.309"/>
<text text-anchor="middle" x="159" y="-153.109" font-family="Times,serif" font-size="9.00">wallRadar[0,&#45;1]</text>
</g>
<!-- wallRadar[0,&#45;1]&#45;&gt; Move Backward -->
<g id="edge30" class="edge"><title>wallRadar[0,&#45;1]&#45;&gt; Move Backward</title>
<path fill="none" stroke="green" stroke-width="0.221177" d="M195.629,-147.751C198.795,-147.241 201.952,-146.753 205,-146.309 340.508,-126.57 377.899,-142.496 511,-110.309 539.603,-103.392 570.268,-92.4828 595.997,-82.263"/>
<polygon fill="green" stroke="green" stroke-width="0.221177" points="597.637,-85.3758 605.602,-78.3897 595.019,-78.8839 597.637,-85.3758"/>
</g>
<!-- Turn Left -->
<g id="node28" class="node"><title>Turn Left</title>
<ellipse fill="lightblue" stroke="black" cx="467" cy="-55.1543" rx="35.2113" ry="35.2113"/>
<text text-anchor="middle" x="467" y="-52.9543" font-family="Times,serif" font-size="9.00">Turn Left</text>
</g>
<!-- wallRadar[0,&#45;1]&#45;&gt;Turn Left -->
<g id="edge29" class="edge"><title>wallRadar[0,&#45;1]&#45;&gt;Turn Left</title>
<path fill="none" stroke="red" stroke-width="0.312303" d="M184.205,-146.276C236.681,-129.553 358.203,-90.826 423.554,-69.9997"/>
<polygon fill="red" stroke="red" stroke-width="0.312303" points="424.692,-73.3105 433.158,-66.9393 422.567,-66.641 424.692,-73.3105"/>
</g>
<!-- wallRadar[0.7,0.7] -->
<g id="node5" class="node"><title>wallRadar[0.7,0.7]</title>
<polygon fill="lightgray" stroke="black" points="1389.5,-164.309 1306.5,-164.309 1306.5,-146.309 1389.5,-146.309 1389.5,-164.309"/>
<text text-anchor="middle" x="1348" y="-153.109" font-family="Times,serif" font-size="9.00">wallRadar[0.7,0.7]</text>
</g>
<!-- wallRadar[0.7,0.7]&#45;&gt;Shoot -->
<g id="edge31" class="edge"><title>wallRadar[0.7,0.7]&#45;&gt;Shoot</title>
<path fill="none" stroke="green" stroke-width="0.789684" d="M1348,-146.276C1348,-134.556 1348,-112.026 1348,-92.4263"/>
<polygon fill="green" stroke="green" stroke-width="0.789684" points="1351.5,-92.2223 1348,-82.2223 1344.5,-92.2223 1351.5,-92.2223"/>
</g>
<!-- wallRadar[0.7,0.7]&#45;&gt;Move Forward -->
<g id="edge38" class="edge"><title>wallRadar[0.7,0.7]&#45;&gt;Move Forward</title>
<path fill="none" stroke="green" stroke-width="0.148675" d="M1336.13,-146.276C1318.1,-134.066 1282.73,-110.127 1252.98,-89.9887"/>
<polygon fill="green" stroke="green" stroke-width="0.148675" points="1254.6,-86.8584 1244.36,-84.1511 1250.68,-92.6552 1254.6,-86.8584"/>
</g>
<!-- wallRadar[0.7,0.7]&#45;&gt; Move Backward -->
<g id="edge62" class="edge"><title>wallRadar[0.7,0.7]&#45;&gt; Move Backward</title>
<path fill="none" stroke="red" stroke-width="0.230749" d="M1306.29,-147.414C1303.49,-147.019 1300.7,-146.646 1298,-146.309 1120.44,-124.16 1073.79,-137.984 897,-110.309 835.959,-100.753 767.292,-84.8005 718.916,-72.678"/>
<polygon fill="red" stroke="red" stroke-width="0.230749" points="719.769,-69.2834 709.216,-70.2304 718.056,-76.0707 719.769,-69.2834"/>
</g>
<!-- wallRadar[0.7,0.7]&#45;&gt;Turn Right -->
<g id="edge58" class="edge"><title>wallRadar[0.7,0.7]&#45;&gt;Turn Right</title>
<path fill="none" stroke="red" stroke-width="0.327908" d="M1364.94,-146.276C1396.38,-131.37 1464.68,-98.9807 1510.26,-77.3699"/>
<polygon fill="red" stroke="red" stroke-width="0.327908" points="1511.8,-80.5131 1519.33,-73.0661 1508.8,-74.1881 1511.8,-80.5131"/>
</g>
<!-- wallRadar[&#45;0.7,0.7] -->
<g id="node6" class="node"><title>wallRadar[&#45;0.7,0.7]</title>
<polygon fill="lightgray" stroke="black" points="300,-164.309 214,-164.309 214,-146.309 300,-146.309 300,-164.309"/>
<text text-anchor="middle" x="257" y="-153.109" font-family="Times,serif" font-size="9.00">wallRadar[&#45;0.7,0.7]</text>
</g>
<!-- wallRadar[&#45;0.7,0.7]&#45;&gt; Move Backward -->
<g id="edge49" class="edge"><title>wallRadar[&#45;0.7,0.7]&#45;&gt; Move Backward</title>
<path fill="none" stroke="green" stroke-width="0.102664" d="M300.165,-147.281C367.271,-136.288 491.021,-115.719 511,-110.309 539.404,-102.616 570.041,-91.5952 595.802,-81.5012"/>
<polygon fill="green" stroke="green" stroke-width="0.102664" points="597.416,-84.6264 605.422,-77.6868 594.836,-78.1192 597.416,-84.6264"/>
</g>
<!-- wallRadar[&#45;0.7,0.7]&#45;&gt;Move Left -->
<g id="edge23" class="edge"><title>wallRadar[&#45;0.7,0.7]&#45;&gt;Move Left</title>
<path fill="none" stroke="red" stroke-width="0.37597" d="M300.1,-147.456C303.109,-147.046 306.098,-146.659 309,-146.309 491.047,-124.356 539.043,-139.936 720,-110.309 782.219,-100.122 852.715,-81.9565 897.723,-69.4951"/>
<polygon fill="red" stroke="red" stroke-width="0.37597" points="898.791,-72.8306 907.483,-66.7715 896.91,-66.0882 898.791,-72.8306"/>
</g>
<!-- wallRadar[&#45;0.7,0.7]&#45;&gt;Turn Left -->
<g id="edge37" class="edge"><title>wallRadar[&#45;0.7,0.7]&#45;&gt;Turn Left</title>
<path fill="none" stroke="green" stroke-width="0.140407" d="M274.185,-146.276C307.085,-130.899 379.792,-96.9156 425.923,-75.3538"/>
<polygon fill="green" stroke="green" stroke-width="0.140407" points="427.48,-78.4895 435.057,-71.0844 424.516,-72.148 427.48,-78.4895"/>
</g>
<!-- wallRadar[&#45;0.7,&#45;0.7] -->
<g id="node7" class="node"><title>wallRadar[&#45;0.7,&#45;0.7]</title>
<polygon fill="lightgray" stroke="black" points="1496.5,-164.309 1407.5,-164.309 1407.5,-146.309 1496.5,-146.309 1496.5,-164.309"/>
<text text-anchor="middle" x="1452" y="-153.109" font-family="Times,serif" font-size="9.00">wallRadar[&#45;0.7,&#45;0.7]</text>
</g>
<!-- wallRadar[&#45;0.7,&#45;0.7]&#45;&gt;Shoot -->
<g id="edge14" class="edge"><title>wallRadar[&#45;0.7,&#45;0.7]&#45;&gt;Shoot</title>
<path fill="none" stroke="green" stroke-width="0.290535" d="M1443.49,-146.276C1428.58,-132.208 1397.18,-102.567 1374.44,-81.1122"/>
<polygon fill="green" stroke="green" stroke-width="0.290535" points="1376.78,-78.5025 1367.1,-74.1841 1371.97,-83.5933 1376.78,-78.5025"/>
</g>
<!-- wallRadar[&#45;0.7,&#45;0.7]&#45;&gt;Move Forward -->
<g id="edge3" class="edge"><title>wallRadar[&#45;0.7,&#45;0.7]&#45;&gt;Move Forward</title>
<path fill="none" stroke="red" stroke-width="0.152425" d="M1421.75,-146.285C1393.07,-138.33 1348.99,-125.202 1312,-110.309 1293.31,-102.781 1273.41,-93.3456 1255.81,-84.4689"/>
<polygon fill="red" stroke="red" stroke-width="0.152425" points="1257.33,-81.315 1246.83,-79.891 1254.15,-87.5513 1257.33,-81.315"/>
</g>
<!-- wallRadar[&#45;0.7,&#45;0.7]&#45;&gt;Move Left -->
<g id="edge45" class="edge"><title>wallRadar[&#45;0.7,&#45;0.7]&#45;&gt;Move Left</title>
<path fill="none" stroke="green" stroke-width="0.187271" d="M1407.47,-147.556C1404.61,-147.131 1401.76,-146.712 1399,-146.309 1285.74,-129.767 1256.12,-133.31 1144,-110.309 1090.56,-99.3458 1030.25,-82.3679 989.965,-70.3483"/>
<polygon fill="green" stroke="green" stroke-width="0.187271" points="990.754,-66.931 980.17,-67.406 988.74,-73.635 990.754,-66.931"/>
</g>
<!-- wallRadar[&#45;0.7,&#45;0.7]&#45;&gt;Move right -->
<g id="edge55" class="edge"><title>wallRadar[&#45;0.7,&#45;0.7]&#45;&gt;Move right</title>
<path fill="none" stroke="red" stroke-width="0.243815" d="M1488.01,-146.276C1566.76,-128.708 1754.38,-86.8547 1843.45,-66.9841"/>
<polygon fill="red" stroke="red" stroke-width="0.243815" points="1844.3,-70.3806 1853.3,-64.7872 1842.78,-63.5485 1844.3,-70.3806"/>
</g>
<!-- wallRadar[0.7,&#45;0.7] -->
<g id="node8" class="node"><title>wallRadar[0.7,&#45;0.7]</title>
<polygon fill="lightgray" stroke="black" points="2373,-164.309 2287,-164.309 2287,-146.309 2373,-146.309 2373,-164.309"/>
<text text-anchor="middle" x="2330" y="-153.109" font-family="Times,serif" font-size="9.00">wallRadar[0.7,&#45;0.7]</text>
</g>
<!-- wallRadar[0.7,&#45;0.7]&#45;&gt;Move right -->
<g id="edge26" class="edge"><title>wallRadar[0.7,&#45;0.7]&#45;&gt;Move right</title>
<path fill="none" stroke="red" stroke-width="0.155195" d="M2294.16,-146.276C2215.76,-128.708 2029,-86.8547 1940.33,-66.9841"/>
<polygon fill="red" stroke="red" stroke-width="0.155195" points="1941.05,-63.5587 1930.52,-64.7872 1939.52,-70.3893 1941.05,-63.5587"/>
</g>
<!-- wallRadar[0.7,&#45;0.7]&#45;&gt;Turn Right -->
<g id="edge66" class="edge"><title>wallRadar[0.7,&#45;0.7]&#45;&gt;Turn Right</title>
<path fill="none" stroke="red" stroke-width="0.138573" d="M2286.9,-147.44C2283.89,-147.034 2280.9,-146.652 2278,-146.309 2085.35,-123.546 2035.25,-136.268 1843,-110.309 1758.1,-98.8446 1660.28,-79.0314 1603.27,-66.8128"/>
<polygon fill="red" stroke="red" stroke-width="0.138573" points="1603.97,-63.3828 1593.46,-64.6975 1602.5,-70.2257 1603.97,-63.3828"/>
</g>
<!-- enemyRadar[RightBack] -->
<g id="node9" class="node"><title>enemyRadar[RightBack]</title>
<polygon fill="lightgray" stroke="black" points="104,-164.309 0,-164.309 0,-146.309 104,-146.309 104,-164.309"/>
<text text-anchor="middle" x="52" y="-153.109" font-family="Times,serif" font-size="9.00">enemyRadar[RightBack]</text>
</g>
<!-- enemyRadar[RightBack]&#45;&gt;Turn Left -->
<g id="edge6" class="edge"><title>enemyRadar[RightBack]&#45;&gt;Turn Left</title>
<path fill="none" stroke="red" stroke-width="0.296883" d="M85.9612,-146.276C160.665,-128.607 339.223,-86.3757 422.642,-66.6456"/>
<polygon fill="red" stroke="red" stroke-width="0.296883" points="423.644,-70.0055 432.57,-64.2977 422.032,-63.1934 423.644,-70.0055"/>
</g>
<!-- enemyRadar[LeftBack] -->
<g id="node10" class="node"><title>enemyRadar[LeftBack]</title>
<polygon fill="lightgray" stroke="black" points="516.5,-164.309 417.5,-164.309 417.5,-146.309 516.5,-146.309 516.5,-164.309"/>
<text text-anchor="middle" x="467" y="-153.109" font-family="Times,serif" font-size="9.00">enemyRadar[LeftBack]</text>
</g>
<!-- enemyRadar[LeftBack]&#45;&gt; Move Backward -->
<g id="edge46" class="edge"><title>enemyRadar[LeftBack]&#45;&gt; Move Backward</title>
<path fill="none" stroke="green" stroke-width="0.339915" d="M482.467,-146.276C507.547,-133.251 558.331,-106.877 598.512,-86.0097"/>
<polygon fill="green" stroke="green" stroke-width="0.339915" points="600.17,-89.0928 607.431,-81.3777 596.944,-82.8805 600.17,-89.0928"/>
</g>
<!-- enemyRadar[LeftBack]&#45;&gt;Turn Left -->
<g id="edge47" class="edge"><title>enemyRadar[LeftBack]&#45;&gt;Turn Left</title>
<path fill="none" stroke="red" stroke-width="0.322477" d="M467,-146.276C467,-136.172 467,-118.035 467,-100.667"/>
<polygon fill="red" stroke="red" stroke-width="0.322477" points="470.5,-100.596 467,-90.596 463.5,-100.596 470.5,-100.596"/>
</g>
<!-- enemyRadar[LeftBack]&#45;&gt;Turn Right -->
<g id="edge59" class="edge"><title>enemyRadar[LeftBack]&#45;&gt;Turn Right</title>
<path fill="none" stroke="red" stroke-width="0.374767" d="M516.537,-147.252C519.736,-146.902 522.911,-146.582 526,-146.309 906.18,-112.631 1008.12,-176.503 1384,-110.309 1427.27,-102.689 1474.78,-87.0221 1508.71,-74.4906"/>
<polygon fill="red" stroke="red" stroke-width="0.374767" points="1510.21,-77.6668 1518.35,-70.882 1507.76,-71.1114 1510.21,-77.6668"/>
</g>
<!-- enemyRadar[Right] -->
<g id="node11" class="node"><title>enemyRadar[Right]</title>
<polygon fill="lightgray" stroke="black" points="1197,-164.309 1111,-164.309 1111,-146.309 1197,-146.309 1197,-164.309"/>
<text text-anchor="middle" x="1154" y="-153.109" font-family="Times,serif" font-size="9.00">enemyRadar[Right]</text>
</g>
<!-- enemyRadar[Right]&#45;&gt;Move Forward -->
<g id="edge24" class="edge"><title>enemyRadar[Right]&#45;&gt;Move Forward</title>
<path fill="none" stroke="red" stroke-width="0.343818" d="M1158.01,-146.276C1162.21,-137.859 1169.2,-123.867 1176.42,-109.389"/>
<polygon fill="red" stroke="red" stroke-width="0.343818" points="1179.6,-110.867 1180.93,-100.357 1173.34,-107.741 1179.6,-110.867"/>
</g>
<!-- enemyRadar[Right]&#45;&gt;Move Left -->
<g id="edge7" class="edge"><title>enemyRadar[Right]&#45;&gt;Move Left</title>
<path fill="none" stroke="green" stroke-width="0.306017" d="M1136.81,-146.276C1104.46,-131.156 1033.63,-98.0464 987.412,-76.4451"/>
<polygon fill="green" stroke="green" stroke-width="0.306017" points="988.773,-73.2177 978.231,-72.1541 985.809,-79.5592 988.773,-73.2177"/>
</g>
<!-- enemyRadar[Right]&#45;&gt;Move right -->
<g id="edge75" class="edge"><title>enemyRadar[Right]&#45;&gt;Move right</title>
<path fill="none" stroke="green" stroke-width="0.151824" d="M1197.07,-147.589C1200.43,-147.132 1203.77,-146.699 1207,-146.309 1382.89,-125.078 1428.52,-134.707 1604,-110.309 1688.85,-98.511 1786.69,-78.803 1843.71,-66.6956"/>
<polygon fill="green" stroke="green" stroke-width="0.151824" points="1844.48,-70.1103 1853.53,-64.6003 1843.02,-63.2645 1844.48,-70.1103"/>
</g>
<!-- enemyRadar[Right]&#45;&gt;Turn Left -->
<g id="edge2" class="edge"><title>enemyRadar[Right]&#45;&gt;Turn Left</title>
<path fill="none" stroke="red" stroke-width="0.172482" d="M1110.91,-147.4C1107.9,-147.003 1104.9,-146.634 1102,-146.309 876.182,-121.011 812.737,-164.244 592,-110.309 562.388,-103.073 530.908,-89.3958 506.947,-77.5975"/>
<polygon fill="red" stroke="red" stroke-width="0.172482" points="508.331,-74.3765 497.824,-73.0178 505.191,-80.6324 508.331,-74.3765"/>
</g>
<!-- enemyRadar[Right]&#45;&gt;Turn Right -->
<g id="edge73" class="edge"><title>enemyRadar[Right]&#45;&gt;Turn Right</title>
<path fill="none" stroke="red" stroke-width="0.170208" d="M1197.15,-147.613C1243.62,-140.041 1319.56,-126.616 1384,-110.309 1426.45,-99.5657 1473.86,-84.2852 1507.97,-72.6934"/>
<polygon fill="red" stroke="red" stroke-width="0.170208" points="1509.34,-75.925 1517.67,-69.3764 1507.07,-69.3019 1509.34,-75.925"/>
</g>
<!-- enemyRadar[Left] -->
<g id="node12" class="node"><title>enemyRadar[Left]</title>
<polygon fill="lightgray" stroke="black" points="399.5,-164.309 318.5,-164.309 318.5,-146.309 399.5,-146.309 399.5,-164.309"/>
<text text-anchor="middle" x="359" y="-153.109" font-family="Times,serif" font-size="9.00">enemyRadar[Left]</text>
</g>
<!-- enemyRadar[Left]&#45;&gt;Move Forward -->
<g id="edge11" class="edge"><title>enemyRadar[Left]&#45;&gt;Move Forward</title>
<path fill="none" stroke="green" stroke-width="0.327229" d="M399.599,-147.359C402.438,-146.972 405.259,-146.616 408,-146.309 665.985,-117.357 734.543,-150.613 991,-110.309 1043.98,-101.982 1103,-86.3691 1145.29,-74.0388"/>
<polygon fill="green" stroke="green" stroke-width="0.327229" points="1146.52,-77.3247 1155.12,-71.142 1144.54,-70.6098 1146.52,-77.3247"/>
</g>
<!-- enemyRadar[Left]&#45;&gt; Move Backward -->
<g id="edge33" class="edge"><title>enemyRadar[Left]&#45;&gt; Move Backward</title>
<path fill="none" stroke="red" stroke-width="0.191801" d="M389.2,-146.291C420.022,-137.94 469.14,-124.162 511,-110.309 538.937,-101.063 569.506,-89.8176 595.343,-79.9753"/>
<polygon fill="red" stroke="red" stroke-width="0.191801" points="596.911,-83.123 604.999,-76.279 594.408,-76.5857 596.911,-83.123"/>
</g>
<!-- enemyRadar[Left]&#45;&gt;Turn Left -->
<g id="edge51" class="edge"><title>enemyRadar[Left]&#45;&gt;Turn Left</title>
<path fill="none" stroke="red" stroke-width="0.403114" d="M367.838,-146.276C382.05,-133.36 410.706,-107.317 433.574,-86.5335"/>
<polygon fill="red" stroke="red" stroke-width="0.403114" points="436.031,-89.0294 441.078,-79.7135 431.323,-83.8491 436.031,-89.0294"/>
</g>
<!-- enemyRadar[RightFront30] -->
<g id="node13" class="node"><title>enemyRadar[RightFront30]</title>
<polygon fill="lightgray" stroke="black" points="910.5,-164.309 795.5,-164.309 795.5,-146.309 910.5,-146.309 910.5,-164.309"/>
<text text-anchor="middle" x="853" y="-153.109" font-family="Times,serif" font-size="9.00">enemyRadar[RightFront30]</text>
</g>
<!-- enemyRadar[RightFront30]&#45;&gt;Shoot -->
<g id="edge64" class="edge"><title>enemyRadar[RightFront30]&#45;&gt;Shoot</title>
<path fill="none" stroke="green" stroke-width="0.67145" d="M910.587,-147.273C913.431,-146.943 916.247,-146.62 919,-146.309 1071.31,-129.086 1117.15,-160.453 1262,-110.309 1282.54,-103.198 1303.23,-90.3912 1319.16,-79.0164"/>
<polygon fill="green" stroke="green" stroke-width="0.67145" points="1321.51,-81.6332 1327.49,-72.8898 1317.36,-75.9934 1321.51,-81.6332"/>
</g>
<!-- enemyRadar[RightFront30]&#45;&gt;Move Forward -->
<g id="edge22" class="edge"><title>enemyRadar[RightFront30]&#45;&gt;Move Forward</title>
<path fill="none" stroke="green" stroke-width="0.225722" d="M881.642,-146.276C938.985,-130.195 1068.88,-93.7665 1144.8,-72.4747"/>
<polygon fill="green" stroke="green" stroke-width="0.225722" points="1146.01,-75.7719 1154.69,-69.7016 1144.12,-69.0319 1146.01,-75.7719"/>
</g>
<!-- enemyRadar[RightFront30]&#45;&gt; Move Backward -->
<g id="edge61" class="edge"><title>enemyRadar[RightFront30]&#45;&gt; Move Backward</title>
<path fill="none" stroke="green" stroke-width="0.567355" d="M836.879,-146.276C810.425,-133.096 756.536,-106.246 714.427,-85.2655"/>
<polygon fill="green" stroke="green" stroke-width="0.567355" points="715.875,-82.0766 705.364,-80.7496 712.754,-88.342 715.875,-82.0766"/>
</g>
<!-- enemyRadar[RightFront30]&#45;&gt;Move Left -->
<g id="edge69" class="edge"><title>enemyRadar[RightFront30]&#45;&gt;Move Left</title>
<path fill="none" stroke="green" stroke-width="0.277425" d="M860.447,-146.276C871.513,-134.34 892.972,-111.195 911.371,-91.3491"/>
<polygon fill="green" stroke="green" stroke-width="0.277425" points="914.012,-93.6478 918.244,-83.9349 908.879,-88.8886 914.012,-93.6478"/>
</g>
<!-- enemyRadar[LeftFront30] -->
<g id="node14" class="node"><title>enemyRadar[LeftFront30]</title>
<polygon fill="lightgray" stroke="black" points="2133,-164.309 2023,-164.309 2023,-146.309 2133,-146.309 2133,-164.309"/>
<text text-anchor="middle" x="2078" y="-153.109" font-family="Times,serif" font-size="9.00">enemyRadar[LeftFront30]</text>
</g>
<!-- enemyRadar[LeftFront30]&#45;&gt;Shoot -->
<g id="edge36" class="edge"><title>enemyRadar[LeftFront30]&#45;&gt;Shoot</title>
<path fill="none" stroke="green" stroke-width="0.287186" d="M2022.86,-147.226C2019.87,-146.901 2016.9,-146.592 2014,-146.309 1788.73,-124.263 1727.81,-155.381 1506,-110.309 1462.03,-101.373 1413.48,-83.4513 1381.96,-70.6732"/>
<polygon fill="green" stroke="green" stroke-width="0.287186" points="1382.93,-67.2883 1372.35,-66.7231 1380.27,-73.7625 1382.93,-67.2883"/>
</g>
<!-- enemyRadar[LeftFront30]&#45;&gt;Move Forward -->
<g id="edge63" class="edge"><title>enemyRadar[LeftFront30]&#45;&gt;Move Forward</title>
<path fill="none" stroke="red" stroke-width="0.177037" d="M2022.87,-147.158C2019.87,-146.85 2016.9,-146.564 2014,-146.309 1858.4,-132.612 1463.11,-149.888 1312,-110.309 1292.33,-105.157 1272.05,-96.2263 1254.39,-87.086"/>
<polygon fill="red" stroke="red" stroke-width="0.177037" points="1255.89,-83.9169 1245.41,-82.306 1252.6,-90.0956 1255.89,-83.9169"/>
</g>
<!-- enemyRadar[LeftFront30]&#45;&gt;Move right -->
<g id="edge74" class="edge"><title>enemyRadar[LeftFront30]&#45;&gt;Move right</title>
<path fill="none" stroke="red" stroke-width="0.124661" d="M2062.78,-146.276C2035.35,-131.804 1976.7,-100.851 1935.83,-79.2837"/>
<polygon fill="red" stroke="red" stroke-width="0.124661" points="1937.36,-76.1341 1926.88,-74.5624 1934.09,-82.325 1937.36,-76.1341"/>
</g>
<!-- enemyRadar[RightFront10] -->
<g id="node15" class="node"><title>enemyRadar[RightFront10]</title>
<polygon fill="lightgray" stroke="black" points="1092.5,-164.309 977.5,-164.309 977.5,-146.309 1092.5,-146.309 1092.5,-164.309"/>
<text text-anchor="middle" x="1035" y="-153.109" font-family="Times,serif" font-size="9.00">enemyRadar[RightFront10]</text>
</g>
<!-- enemyRadar[RightFront10]&#45;&gt;Shoot -->
<g id="edge41" class="edge"><title>enemyRadar[RightFront10]&#45;&gt;Shoot</title>
<path fill="none" stroke="green" stroke-width="0.254691" d="M1088.47,-146.282C1145.29,-137.338 1231.11,-122.529 1262,-110.309 1282.21,-102.313 1302.88,-89.4726 1318.9,-78.3016"/>
<polygon fill="green" stroke="green" stroke-width="0.254691" points="1321.18,-80.9717 1327.28,-72.3086 1317.11,-75.2772 1321.18,-80.9717"/>
</g>
<!-- enemyRadar[RightFront10]&#45;&gt;Move Forward -->
<g id="edge8" class="edge"><title>enemyRadar[RightFront10]&#45;&gt;Move Forward</title>
<path fill="none" stroke="red" stroke-width="0.203495" d="M1048.75,-146.276C1070.85,-133.361 1115.43,-107.319 1151,-86.5369"/>
<polygon fill="red" stroke="red" stroke-width="0.203495" points="1152.96,-89.4444 1159.83,-81.3777 1149.43,-83.4004 1152.96,-89.4444"/>
</g>
<!-- enemyRadar[RightFront10]&#45;&gt;Turn Left -->
<g id="edge19" class="edge"><title>enemyRadar[RightFront10]&#45;&gt;Turn Left</title>
<path fill="none" stroke="green" stroke-width="0.235009" d="M977.266,-147.328C974.133,-146.976 971.028,-146.634 968,-146.309 801.087,-128.356 754.567,-152.19 592,-110.309 562.481,-102.704 531,-89.0291 507.015,-77.3244"/>
<polygon fill="green" stroke="green" stroke-width="0.235009" points="508.395,-74.1018 497.882,-72.7861 505.28,-80.3705 508.395,-74.1018"/>
</g>
<!-- enemyRadar[RightFront10]&#45;&gt;Turn Right -->
<g id="edge43" class="edge"><title>enemyRadar[RightFront10]&#45;&gt;Turn Right</title>
<path fill="none" stroke="red" stroke-width="0.183161" d="M1092.82,-147.296C1188.34,-135.673 1369.98,-113.385 1384,-110.309 1426.91,-100.891 1474.46,-85.4071 1508.5,-73.4031"/>
<polygon fill="red" stroke="red" stroke-width="0.183161" points="1509.92,-76.6117 1518.17,-69.9592 1507.57,-70.0175 1509.92,-76.6117"/>
</g>
<!-- enemyRadar[LeftFront10] -->
<g id="node16" class="node"><title>enemyRadar[LeftFront10]</title>
<polygon fill="lightgray" stroke="black" points="1625,-164.309 1515,-164.309 1515,-146.309 1625,-146.309 1625,-164.309"/>
<text text-anchor="middle" x="1570" y="-153.109" font-family="Times,serif" font-size="9.00">enemyRadar[LeftFront10]</text>
</g>
<!-- enemyRadar[LeftFront10]&#45;&gt;Shoot -->
<g id="edge56" class="edge"><title>enemyRadar[LeftFront10]&#45;&gt;Shoot</title>
<path fill="none" stroke="green" stroke-width="0.421642" d="M1551.83,-146.276C1514.63,-129.828 1429.28,-92.0924 1381.67,-71.0404"/>
<polygon fill="green" stroke="green" stroke-width="0.421642" points="1382.95,-67.7821 1372.39,-66.9393 1380.12,-74.1842 1382.95,-67.7821"/>
</g>
<!-- enemyRadar[LeftFront10]&#45;&gt;Move Forward -->
<g id="edge71" class="edge"><title>enemyRadar[LeftFront10]&#45;&gt;Move Forward</title>
<path fill="none" stroke="green" stroke-width="0.182282" d="M1514.93,-146.839C1450.74,-137.797 1348.78,-122.293 1312,-110.309 1292.75,-104.037 1272.65,-94.8751 1255.02,-85.8649"/>
<polygon fill="green" stroke="green" stroke-width="0.182282" points="1256.53,-82.7055 1246.05,-81.1831 1253.29,-88.9116 1256.53,-82.7055"/>
</g>
<!-- enemyRadar[RightFront3.5] -->
<g id="node17" class="node"><title>enemyRadar[RightFront3.5]</title>
<polygon fill="lightgray" stroke="black" points="1848.5,-164.309 1731.5,-164.309 1731.5,-146.309 1848.5,-146.309 1848.5,-164.309"/>
<text text-anchor="middle" x="1790" y="-153.109" font-family="Times,serif" font-size="9.00">enemyRadar[RightFront3.5]</text>
</g>
<!-- enemyRadar[RightFront3.5]&#45;&gt;Shoot -->
<g id="edge50" class="edge"><title>enemyRadar[RightFront3.5]&#45;&gt;Shoot</title>
<path fill="none" stroke="red" stroke-width="0.235583" d="M1731.48,-146.484C1661.21,-136.87 1547.6,-120.575 1506,-110.309 1462.56,-99.5883 1414.09,-82.1172 1382.43,-69.9278"/>
<polygon fill="red" stroke="red" stroke-width="0.235583" points="1383.36,-66.5336 1372.77,-66.1711 1380.82,-73.0576 1383.36,-66.5336"/>
</g>
<!-- enemyRadar[RightFront3.5]&#45;&gt; Move Backward -->
<g id="edge52" class="edge"><title>enemyRadar[RightFront3.5]&#45;&gt; Move Backward</title>
<path fill="none" stroke="red" stroke-width="0.104845" d="M1731.42,-147.14C1728.24,-146.837 1725.08,-146.557 1722,-146.309 1356.17,-116.847 1260.81,-158.731 897,-110.309 835.756,-102.157 767.114,-86.0283 718.8,-73.4832"/>
<polygon fill="red" stroke="red" stroke-width="0.104845" points="719.673,-70.094 709.113,-70.9452 717.899,-76.8654 719.673,-70.094"/>
</g>
<!-- enemyRadar[RightFront3.5]&#45;&gt;Move right -->
<g id="edge48" class="edge"><title>enemyRadar[RightFront3.5]&#45;&gt;Move right</title>
<path fill="none" stroke="green" stroke-width="0.344148" d="M1798.35,-146.276C1810.89,-134.206 1835.35,-110.673 1856.12,-90.6813"/>
<polygon fill="green" stroke="green" stroke-width="0.344148" points="1858.8,-92.9599 1863.58,-83.5039 1853.95,-87.9159 1858.8,-92.9599"/>
</g>
<!-- enemyRadar[RightFront3.5]&#45;&gt;Turn Right -->
<g id="edge13" class="edge"><title>enemyRadar[RightFront3.5]&#45;&gt;Turn Right</title>
<path fill="none" stroke="red" stroke-width="0.373113" d="M1770.77,-146.276C1733.93,-130.889 1652.48,-96.871 1600.87,-75.3113"/>
<polygon fill="red" stroke="red" stroke-width="0.373113" points="1602.17,-72.0625 1591.59,-71.4379 1599.47,-78.5217 1602.17,-72.0625"/>
</g>
<!-- enemyRadar[LeftFront3.5] -->
<g id="node18" class="node"><title>enemyRadar[LeftFront3.5]</title>
<polygon fill="lightgray" stroke="black" points="647,-164.309 535,-164.309 535,-146.309 647,-146.309 647,-164.309"/>
<text text-anchor="middle" x="591" y="-153.109" font-family="Times,serif" font-size="9.00">enemyRadar[LeftFront3.5]</text>
</g>
<!-- enemyRadar[LeftFront3.5]&#45;&gt;Shoot -->
<g id="edge40" class="edge"><title>enemyRadar[LeftFront3.5]&#45;&gt;Shoot</title>
<path fill="none" stroke="green" stroke-width="0.436376" d="M647.347,-147.153C650.272,-146.851 653.169,-146.567 656,-146.309 790.347,-134.063 1133.55,-151.546 1262,-110.309 1282.69,-103.665 1303.39,-90.8751 1319.29,-79.393"/>
<polygon fill="green" stroke="green" stroke-width="0.436376" points="1321.67,-81.9799 1327.6,-73.1959 1317.49,-76.3685 1321.67,-81.9799"/>
</g>
<!-- enemyRadar[LeftFront3.5]&#45;&gt;Move Forward -->
<g id="edge34" class="edge"><title>enemyRadar[LeftFront3.5]&#45;&gt;Move Forward</title>
<path fill="none" stroke="red" stroke-width="0.342746" d="M647.013,-147.359C650.053,-146.999 653.063,-146.647 656,-146.309 804.761,-129.162 843.635,-136.908 991,-110.309 1043.78,-100.782 1102.82,-85.2927 1145.17,-73.3146"/>
<polygon fill="red" stroke="red" stroke-width="0.342746" points="1146.36,-76.614 1155.02,-70.5064 1144.44,-69.8822 1146.36,-76.614"/>
</g>
<!-- enemyRadar[LeftFront3.5]&#45;&gt; Move Backward -->
<g id="edge39" class="edge"><title>enemyRadar[LeftFront3.5]&#45;&gt; Move Backward</title>
<path fill="none" stroke="green" stroke-width="0.362303" d="M596.319,-146.276C601.794,-138.009 610.83,-124.365 620.234,-110.164"/>
<polygon fill="green" stroke="green" stroke-width="0.362303" points="623.186,-112.044 625.789,-101.774 617.35,-108.179 623.186,-112.044"/>
</g>
<!-- enemyRadar[LeftFront3.5]&#45;&gt;Move Left -->
<g id="edge72" class="edge"><title>enemyRadar[LeftFront3.5]&#45;&gt;Move Left</title>
<path fill="none" stroke="green" stroke-width="0.136075" d="M619.887,-146.276C680.906,-129.31 823.382,-89.6931 897.438,-69.1012"/>
<polygon fill="green" stroke="green" stroke-width="0.136075" points="898.721,-72.3773 907.418,-66.3262 896.846,-65.6331 898.721,-72.3773"/>
</g>
<!-- enemyRadar[RightFront1.5] -->
<g id="node19" class="node"><title>enemyRadar[RightFront1.5]</title>
<polygon fill="lightgray" stroke="black" points="2268.5,-164.309 2151.5,-164.309 2151.5,-146.309 2268.5,-146.309 2268.5,-164.309"/>
<text text-anchor="middle" x="2210" y="-153.109" font-family="Times,serif" font-size="9.00">enemyRadar[RightFront1.5]</text>
</g>
<!-- enemyRadar[RightFront1.5]&#45;&gt;Shoot -->
<g id="edge67" class="edge"><title>enemyRadar[RightFront1.5]&#45;&gt;Shoot</title>
<path fill="none" stroke="green" stroke-width="0.728952" d="M2151.42,-147.188C2148.23,-146.873 2145.08,-146.577 2142,-146.309 1859.95,-121.757 1783.84,-164.715 1506,-110.309 1461.96,-101.685 1413.43,-83.6985 1381.93,-70.8198"/>
<polygon fill="green" stroke="green" stroke-width="0.728952" points="1382.91,-67.4355 1372.33,-66.8363 1380.22,-73.9012 1382.91,-67.4355"/>
</g>
<!-- enemyRadar[RightFront1.5]&#45;&gt;Move Forward -->
<g id="edge25" class="edge"><title>enemyRadar[RightFront1.5]&#45;&gt;Move Forward</title>
<path fill="none" stroke="green" stroke-width="0.16026" d="M2151.42,-147.139C2148.24,-146.836 2145.08,-146.556 2142,-146.309 1957.98,-131.513 1490.78,-156.382 1312,-110.309 1292.31,-105.234 1272.02,-96.3233 1254.37,-87.1768"/>
<polygon fill="green" stroke="green" stroke-width="0.16026" points="1255.86,-84.0079 1245.39,-82.3914 1252.57,-90.1847 1255.86,-84.0079"/>
</g>
<!-- enemyRadar[RightFront1.5]&#45;&gt;Move right -->
<g id="edge57" class="edge"><title>enemyRadar[RightFront1.5]&#45;&gt;Move right</title>
<path fill="none" stroke="green" stroke-width="0.270742" d="M2183.98,-146.276C2130.46,-129.759 2007.4,-91.7752 1939.37,-70.7762"/>
<polygon fill="green" stroke="green" stroke-width="0.270742" points="1940.34,-67.4109 1929.75,-67.8058 1938.27,-74.0995 1940.34,-67.4109"/>
</g>
<!-- enemyRadar[RightFront1.5]&#45;&gt;Turn Right -->
<g id="edge35" class="edge"><title>enemyRadar[RightFront1.5]&#45;&gt;Turn Right</title>
<path fill="none" stroke="green" stroke-width="0.244826" stroke-dasharray="1,5" d="M2151.22,-147.365C2051.39,-135.558 1858,-112.616 1843,-110.309 1758.56,-97.3231 1660.98,-78.0732 1603.83,-66.3639"/>
<polygon fill="green" stroke="green" stroke-width="0.244826" points="1604.49,-62.9253 1593.99,-64.3393 1603.08,-69.7818 1604.49,-62.9253"/>
</g>
<!-- enemyRadar[LeftFront1.5] -->
<g id="node20" class="node"><title>enemyRadar[LeftFront1.5]</title>
<polygon fill="lightgray" stroke="black" points="777,-164.309 665,-164.309 665,-146.309 777,-146.309 777,-164.309"/>
<text text-anchor="middle" x="721" y="-153.109" font-family="Times,serif" font-size="9.00">enemyRadar[LeftFront1.5]</text>
</g>
<!-- enemyRadar[LeftFront1.5]&#45;&gt;Shoot -->
<g id="edge28" class="edge"><title>enemyRadar[LeftFront1.5]&#45;&gt;Shoot</title>
<path fill="none" stroke="red" stroke-width="0.205495" d="M777.001,-147.247C780.044,-146.916 783.058,-146.601 786,-146.309 997.121,-125.345 1060.53,-176.791 1262,-110.309 1282.64,-103.498 1303.33,-90.7019 1319.24,-79.2582"/>
<polygon fill="red" stroke="red" stroke-width="0.205495" points="1321.62,-81.856 1327.56,-73.0864 1317.44,-76.2344 1321.62,-81.856"/>
</g>
<!-- enemyRadar[LeftFront1.5]&#45;&gt;Move Forward -->
<g id="edge44" class="edge"><title>enemyRadar[LeftFront1.5]&#45;&gt;Move Forward</title>
<path fill="none" stroke="green" stroke-width="0.213787" d="M777.114,-146.644C831.912,-138.811 917.544,-125.644 991,-110.309 1043.5,-99.3481 1102.57,-84.0062 1145,-72.4491"/>
<polygon fill="green" stroke="green" stroke-width="0.213787" points="1146.15,-75.763 1154.87,-69.7467 1144.3,-69.0115 1146.15,-75.763"/>
</g>
<!-- enemyRadar[LeftFront1.5]&#45;&gt; Move Backward -->
<g id="edge12" class="edge"><title>enemyRadar[LeftFront1.5]&#45;&gt; Move Backward</title>
<path fill="none" stroke="green" stroke-width="0.232299" d="M715.681,-146.276C710.206,-138.009 701.17,-124.365 691.766,-110.164"/>
<polygon fill="green" stroke="green" stroke-width="0.232299" points="694.65,-108.179 686.211,-101.774 688.814,-112.044 694.65,-108.179"/>
</g>
<!-- enemyRadar[LeftFront1.5]&#45;&gt;Move Left -->
<g id="edge15" class="edge"><title>enemyRadar[LeftFront1.5]&#45;&gt;Move Left</title>
<path fill="none" stroke="green" stroke-width="0.69433" d="M739.249,-146.276C774.064,-130.952 850.854,-97.1529 899.865,-75.5803"/>
<polygon fill="green" stroke="green" stroke-width="0.69433" points="901.534,-78.6699 909.277,-71.4379 898.714,-72.2631 901.534,-78.6699"/>
</g>
<!-- enemyRadar[LeftFront1.5]&#45;&gt;Move right -->
<g id="edge5" class="edge"><title>enemyRadar[LeftFront1.5]&#45;&gt;Move right</title>
<path fill="none" stroke="green" stroke-width="0.15952" d="M777.342,-147.1C780.268,-146.811 783.167,-146.545 786,-146.309 1148.65,-116.059 1242.49,-152.038 1604,-110.309 1689.11,-100.485 1786.86,-80.154 1843.8,-67.3891"/>
<polygon fill="green" stroke="green" stroke-width="0.15952" points="1844.62,-70.7922 1853.6,-65.1755 1843.08,-63.9641 1844.62,-70.7922"/>
</g>
<!-- enemyRadar[LeftFront1.5]&#45;&gt;Turn Left -->
<g id="edge16" class="edge"><title>enemyRadar[LeftFront1.5]&#45;&gt;Turn Left</title>
<path fill="none" stroke="green" stroke-width="0.135865" d="M695.572,-146.301C669.397,-137.904 627.536,-124.041 592,-110.309 563.663,-99.3581 532.293,-85.7628 508.068,-74.9336"/>
<polygon fill="green" stroke="green" stroke-width="0.135865" points="509.378,-71.6853 498.822,-70.78 506.509,-78.0705 509.378,-71.6853"/>
</g>
<!-- OnTarget -->
<g id="node21" class="node"><title>OnTarget</title>
<polygon fill="lightgray" stroke="black" points="1917,-164.309 1867,-164.309 1867,-146.309 1917,-146.309 1917,-164.309"/>
<text text-anchor="middle" x="1892" y="-153.109" font-family="Times,serif" font-size="9.00">OnTarget</text>
</g>
<!-- OnTarget&#45;&gt;Shoot -->
<g id="edge20" class="edge"><title>OnTarget&#45;&gt;Shoot</title>
<path fill="none" stroke="green" stroke-width="0.317017" d="M1866.82,-148.002C1863.86,-147.374 1860.87,-146.791 1858,-146.309 1702.91,-120.245 1659.6,-144.023 1506,-110.309 1462.17,-100.689 1413.59,-82.9101 1382.03,-70.3521"/>
<polygon fill="green" stroke="green" stroke-width="0.317017" points="1382.99,-66.9653 1372.4,-66.4752 1380.37,-73.4583 1382.99,-66.9653"/>
</g>
<!-- OnTarget&#45;&gt;Move Left -->
<g id="edge10" class="edge"><title>OnTarget&#45;&gt;Move Left</title>
<path fill="none" stroke="red" stroke-width="0.307291" d="M1866.85,-147.856C1863.88,-147.253 1860.88,-146.717 1858,-146.309 1543.4,-101.74 1457.81,-160.115 1144,-110.309 1090.12,-101.757 1029.89,-84.334 989.746,-71.5504"/>
<polygon fill="red" stroke="red" stroke-width="0.307291" points="990.579,-68.1417 979.987,-68.4086 988.434,-74.8049 990.579,-68.1417"/>
</g>
<!-- OnTarget&#45;&gt;Move right -->
<g id="edge76" class="edge"><title>OnTarget&#45;&gt;Move right</title>
<path fill="none" stroke="green" stroke-width="0.464711" d="M1892,-146.276C1892,-137.112 1892,-121.34 1892,-105.527"/>
<polygon fill="green" stroke="green" stroke-width="0.464711" points="1895.5,-105.199 1892,-95.1987 1888.5,-105.199 1895.5,-105.199"/>
</g>
<!-- OnTarget&#45;&gt;Turn Right -->
<g id="edge68" class="edge"><title>OnTarget&#45;&gt;Turn Right</title>
<path fill="none" stroke="green" stroke-width="0.296929" d="M1866.95,-147.011C1811,-130.717 1675.15,-91.1477 1602.57,-70.0081"/>
<polygon fill="green" stroke="green" stroke-width="0.296929" points="1603.34,-66.588 1592.76,-67.1519 1601.38,-73.3087 1603.34,-66.588"/>
</g>
<!-- bias -->
<g id="node22" class="node"><title>bias</title>
<polygon fill="lightgray" stroke="black" points="959.5,-164.309 928.5,-164.309 928.5,-146.309 959.5,-146.309 959.5,-164.309"/>
<text text-anchor="middle" x="944" y="-153.109" font-family="Times,serif" font-size="9.00">bias</text>
</g>
<!-- bias&#45;&gt;Shoot -->
<g id="edge70" class="edge"><title>bias&#45;&gt;Shoot</title>
<path fill="none" stroke="green" stroke-width="0.26745" d="M959.748,-148.777C962.79,-147.848 965.973,-146.973 969,-146.309 1097.15,-118.192 1138.4,-154.324 1262,-110.309 1282.48,-103.017 1303.16,-90.2031 1319.11,-78.8701"/>
<polygon fill="green" stroke="green" stroke-width="0.26745" points="1321.45,-81.4981 1327.45,-72.7708 1317.31,-75.8472 1321.45,-81.4981"/>
</g>
<!-- bias&#45;&gt;Move Forward -->
<g id="edge53" class="edge"><title>bias&#45;&gt;Move Forward</title>
<path fill="none" stroke="red" stroke-width="0.21601" d="M959.812,-148.316C996.069,-134.576 1086.67,-100.24 1146.47,-77.5795"/>
<polygon fill="red" stroke="red" stroke-width="0.21601" points="1148.04,-80.7258 1156.15,-73.9091 1145.56,-74.1801 1148.04,-80.7258"/>
</g>
<!-- bias&#45;&gt;Move Left -->
<g id="edge60" class="edge"><title>bias&#45;&gt;Move Left</title>
<path fill="none" stroke="green" stroke-width="0.236749" d="M944,-146.276C944,-136.721 944,-119.983 944,-103.505"/>
<polygon fill="green" stroke="green" stroke-width="0.236749" points="947.5,-103.345 944,-93.3454 940.5,-103.345 947.5,-103.345"/>
</g>
<!-- bias&#45;&gt;Turn Left -->
<g id="edge9" class="edge"><title>bias&#45;&gt;Turn Left</title>
<path fill="none" stroke="red" stroke-width="0.223096" d="M928.258,-148.746C925.216,-147.82 922.031,-146.954 919,-146.309 775.991,-115.876 733.326,-147.789 592,-110.309 562.535,-102.494 531.054,-88.8212 507.056,-77.1695"/>
<polygon fill="red" stroke="red" stroke-width="0.223096" points="508.432,-73.9459 497.917,-72.6548 505.332,-80.2219 508.432,-73.9459"/>
</g>
<!-- bias&#45;&gt;Turn Right -->
<g id="edge65" class="edge"><title>bias&#45;&gt;Turn Right</title>
<path fill="none" stroke="green" stroke-width="0.142893" d="M959.73,-148.689C962.774,-147.769 965.962,-146.919 969,-146.309 1150.52,-109.869 1202.43,-146.475 1384,-110.309 1427.09,-101.727 1474.61,-86.1577 1508.6,-73.9085"/>
<polygon fill="green" stroke="green" stroke-width="0.142893" points="1510.06,-77.1026 1518.26,-70.3881 1507.66,-70.5263 1510.06,-77.1026"/>
</g>
</g>
</svg>
