<?xml version="1.0" encoding="UTF-8" standalone="no"?>
<!DOCTYPE svg PUBLIC "-//W3C//DTD SVG 1.1//EN"
 "http://www.w3.org/Graphics/SVG/1.1/DTD/svg11.dtd">
<!-- Generated by graphviz version 2.38.0 (20140413.2041)
 -->
<!-- Title: %3 Pages: 1 -->
<svg width="2519pt" height="258pt"
 viewBox="0.00 0.00 2518.62 257.81" xmlns="http://www.w3.org/2000/svg" xmlns:xlink="http://www.w3.org/1999/xlink">
<g id="graph0" class="graph" transform="scale(1 1) rotate(0) translate(4 253.806)">
<title>%3</title>
<polygon fill="white" stroke="none" points="-4,4 -4,-253.806 2514.62,-253.806 2514.62,4 -4,4"/>
<!-- wallRadar[1,0] -->
<g id="node1" class="node"><title>wallRadar[1,0]</title>
<polygon fill="lightgray" stroke="black" points="899.119,-180.057 829.119,-180.057 829.119,-162.057 899.119,-162.057 899.119,-180.057"/>
<text text-anchor="middle" x="864.119" y="-168.857" font-family="Times,serif" font-size="9.00">wallRadar[1,0]</text>
</g>
<!-- Shoot -->
<g id="node24" class="node"><title>Shoot</title>
<ellipse fill="lightblue" stroke="black" cx="496.119" cy="-55.1543" rx="26.7407" ry="26.7407"/>
<text text-anchor="middle" x="496.119" y="-52.9543" font-family="Times,serif" font-size="9.00">Shoot</text>
</g>
<!-- wallRadar[1,0]&#45;&gt;Shoot -->
<g id="edge20" class="edge"><title>wallRadar[1,0]&#45;&gt;Shoot</title>
<path fill="none" stroke="green" stroke-width="0.441202" d="M838.242,-162.048C773.71,-142.074 605.551,-90.0257 531.737,-67.1786"/>
<polygon fill="green" stroke="green" stroke-width="0.441202" points="532.556,-63.7683 521.968,-64.1549 530.486,-70.4553 532.556,-63.7683"/>
</g>
<!-- Move Forward -->
<g id="node25" class="node"><title>Move Forward</title>
<ellipse fill="lightblue" stroke="black" cx="763.119" cy="-55.1543" rx="50.41" ry="50.41"/>
<text text-anchor="middle" x="763.119" y="-52.9543" font-family="Times,serif" font-size="9.00">Move Forward</text>
</g>
<!-- wallRadar[1,0]&#45;&gt;Move Forward -->
<g id="edge3" class="edge"><title>wallRadar[1,0]&#45;&gt;Move Forward</title>
<path fill="none" stroke="red" stroke-width="0.594557" d="M856.856,-161.866C845.558,-149.125 822.977,-123.659 802.809,-100.914"/>
<polygon fill="red" stroke="red" stroke-width="0.594557" points="805.335,-98.4874 796.081,-93.3273 800.097,-103.132 805.335,-98.4874"/>
</g>
<!-- Move Left -->
<g id="node27" class="node"><title>Move Left</title>
<ellipse fill="lightblue" stroke="black" cx="1874.12" cy="-55.1543" rx="38.3684" ry="38.3684"/>
<text text-anchor="middle" x="1874.12" y="-52.9543" font-family="Times,serif" font-size="9.00">Move Left</text>
</g>
<!-- wallRadar[1,0]&#45;&gt;Move Left -->
<g id="edge40" class="edge"><title>wallRadar[1,0]&#45;&gt;Move Left</title>
<path fill="none" stroke="green" stroke-width="0.237899" d="M876.123,-161.88C884.859,-156.401 897.2,-149.608 909.119,-146.309 1050.68,-107.123 1423.21,-127.179 1569.12,-110.309 1661.03,-99.6817 1767.16,-78.8792 1826.88,-66.378"/>
<polygon fill="green" stroke="green" stroke-width="0.237899" points="1827.71,-69.7814 1836.77,-64.2953 1826.26,-62.9317 1827.71,-69.7814"/>
</g>
<!-- wallRadar[0,1] -->
<g id="node2" class="node"><title>wallRadar[0,1]</title>
<polygon fill="lightgray" stroke="black" points="1281.12,-180.057 1211.12,-180.057 1211.12,-162.057 1281.12,-162.057 1281.12,-180.057"/>
<text text-anchor="middle" x="1246.12" y="-168.857" font-family="Times,serif" font-size="9.00">wallRadar[0,1]</text>
</g>
<!-- wallRadar[0,1]&#45;&gt;Move Forward -->
<g id="edge35" class="edge"><title>wallRadar[0,1]&#45;&gt;Move Forward</title>
<path fill="none" stroke="green" stroke-width="0.575839" d="M1233.49,-161.954C1224.94,-156.793 1213.21,-150.343 1202.12,-146.309 1071.42,-98.7878 909.234,-73.6769 823.234,-62.848"/>
<polygon fill="green" stroke="green" stroke-width="0.575839" points="823.486,-59.3525 813.132,-61.5976 822.626,-66.2995 823.486,-59.3525"/>
</g>
<!-- wallRadar[0,1]&#45;&gt;Move Left -->
<g id="edge16" class="edge"><title>wallRadar[0,1]&#45;&gt;Move Left</title>
<path fill="none" stroke="red" stroke-width="0.185105" d="M1258.58,-161.921C1267.33,-156.608 1279.5,-149.995 1291.12,-146.309 1409.87,-108.636 1445.97,-129.204 1569.12,-110.309 1660.58,-96.2758 1766.86,-76.6452 1826.74,-65.2791"/>
<polygon fill="red" stroke="red" stroke-width="0.185105" points="1827.48,-68.7003 1836.65,-63.3921 1826.17,-61.8238 1827.48,-68.7003"/>
</g>
<!-- wallRadar[&#45;1,0] -->
<g id="node3" class="node"><title>wallRadar[&#45;1,0]</title>
<polygon fill="lightgray" stroke="black" points="1994.62,-180.057 1921.62,-180.057 1921.62,-162.057 1994.62,-162.057 1994.62,-180.057"/>
<text text-anchor="middle" x="1958.12" y="-168.857" font-family="Times,serif" font-size="9.00">wallRadar[&#45;1,0]</text>
</g>
<!--  Move Backward -->
<g id="node26" class="node"><title> Move Backward</title>
<ellipse fill="lightblue" stroke="black" cx="1505.12" cy="-55.1543" rx="55.3091" ry="55.3091"/>
<text text-anchor="middle" x="1505.12" y="-52.9543" font-family="Times,serif" font-size="9.00"> Move Backward</text>
</g>
<!-- wallRadar[&#45;1,0]&#45;&gt; Move Backward -->
<g id="edge27" class="edge"><title>wallRadar[&#45;1,0]&#45;&gt; Move Backward</title>
<path fill="none" stroke="green" stroke-width="0.254047" d="M1945.16,-162.022C1936.39,-156.889 1924.4,-150.446 1913.12,-146.309 1795.76,-103.266 1651.54,-77.322 1569.79,-64.9592"/>
<polygon fill="green" stroke="green" stroke-width="0.254047" points="1570.3,-61.4967 1559.9,-63.483 1569.27,-68.4201 1570.3,-61.4967"/>
</g>
<!-- wallRadar[&#45;1,0]&#45;&gt;Move Left -->
<g id="edge39" class="edge"><title>wallRadar[&#45;1,0]&#45;&gt;Move Left</title>
<path fill="none" stroke="green" stroke-width="0.449116" d="M1952.08,-161.866C1941.85,-147.994 1920.49,-119.037 1902.72,-94.932"/>
<polygon fill="green" stroke="green" stroke-width="0.449116" points="1905.35,-92.6116 1896.6,-86.6408 1899.72,-96.7664 1905.35,-92.6116"/>
</g>
<!-- wallRadar[0,&#45;1] -->
<g id="node4" class="node"><title>wallRadar[0,&#45;1]</title>
<polygon fill="lightgray" stroke="black" points="1372.62,-180.057 1299.62,-180.057 1299.62,-162.057 1372.62,-162.057 1372.62,-180.057"/>
<text text-anchor="middle" x="1336.12" y="-168.857" font-family="Times,serif" font-size="9.00">wallRadar[0,&#45;1]</text>
</g>
<!-- wallRadar[0,&#45;1]&#45;&gt;Move Forward -->
<g id="edge29" class="edge"><title>wallRadar[0,&#45;1]&#45;&gt;Move Forward</title>
<path fill="none" stroke="green" stroke-width="0.485017" stroke-dasharray="1,5" d="M1322.91,-161.852C1313.97,-156.649 1301.71,-150.189 1290.12,-146.309 1126.68,-91.6009 923.089,-68.8255 823.571,-60.441"/>
<polygon fill="green" stroke="green" stroke-width="0.485017" points="823.657,-56.9363 813.403,-59.6041 823.082,-63.9127 823.657,-56.9363"/>
</g>
<!-- wallRadar[0,&#45;1]&#45;&gt;Move Left -->
<g id="edge28" class="edge"><title>wallRadar[0,&#45;1]&#45;&gt;Move Left</title>
<path fill="none" stroke="red" stroke-width="0.530062" d="M1349.34,-161.897C1358.29,-156.713 1370.55,-150.257 1382.12,-146.309 1392.7,-142.697 1704.82,-86.5232 1826.35,-64.7162"/>
<polygon fill="red" stroke="red" stroke-width="0.530062" points="1827.25,-68.1101 1836.48,-62.8992 1826.02,-61.2201 1827.25,-68.1101"/>
</g>
<!-- wallRadar[0.7,0.7] -->
<g id="node5" class="node"><title>wallRadar[0.7,0.7]</title>
<polygon fill="lightgray" stroke="black" points="1826.62,-180.057 1743.62,-180.057 1743.62,-162.057 1826.62,-162.057 1826.62,-180.057"/>
<text text-anchor="middle" x="1785.12" y="-168.857" font-family="Times,serif" font-size="9.00">wallRadar[0.7,0.7]</text>
</g>
<!-- wallRadar[0.7,0.7]&#45;&gt; Move Backward -->
<g id="edge2" class="edge"><title>wallRadar[0.7,0.7]&#45;&gt; Move Backward</title>
<path fill="none" stroke="green" stroke-width="0.500848" d="M1766.49,-162.055C1755.61,-157.408 1741.61,-151.471 1729.12,-146.309 1673.96,-123.515 1610.87,-98.1898 1565.73,-80.1991"/>
<polygon fill="green" stroke="green" stroke-width="0.500848" points="1566.97,-76.9238 1556.38,-76.475 1564.38,-83.4269 1566.97,-76.9238"/>
</g>
<!-- wallRadar[0.7,0.7]&#45;&gt;Move Left -->
<g id="edge18" class="edge"><title>wallRadar[0.7,0.7]&#45;&gt;Move Left</title>
<path fill="none" stroke="red" stroke-width="0.412627" stroke-dasharray="1,5" d="M1791.52,-161.866C1802.55,-147.75 1825.78,-118.014 1844.81,-93.6652"/>
<polygon fill="red" stroke="red" stroke-width="0.412627" points="1847.68,-95.6794 1851.08,-85.6446 1842.16,-91.3694 1847.68,-95.6794"/>
</g>
<!-- wallRadar[&#45;0.7,0.7] -->
<g id="node6" class="node"><title>wallRadar[&#45;0.7,0.7]</title>
<polygon fill="lightgray" stroke="black" points="1687.12,-180.057 1601.12,-180.057 1601.12,-162.057 1687.12,-162.057 1687.12,-180.057"/>
<text text-anchor="middle" x="1644.12" y="-168.857" font-family="Times,serif" font-size="9.00">wallRadar[&#45;0.7,0.7]</text>
</g>
<!-- wallRadar[&#45;0.7,0.7]&#45;&gt; Move Backward -->
<g id="edge17" class="edge"><title>wallRadar[&#45;0.7,0.7]&#45;&gt; Move Backward</title>
<path fill="none" stroke="red" stroke-width="0.175612" d="M1634.12,-161.866C1617.74,-148.437 1584.1,-120.872 1555.28,-97.2565"/>
<polygon fill="red" stroke="red" stroke-width="0.175612" points="1557.25,-94.3466 1547.3,-90.7155 1552.81,-99.7609 1557.25,-94.3466"/>
</g>
<!-- wallRadar[&#45;0.7,&#45;0.7] -->
<g id="node7" class="node"><title>wallRadar[&#45;0.7,&#45;0.7]</title>
<polygon fill="lightgray" stroke="black" points="1575.62,-249.806 1486.62,-249.806 1486.62,-231.806 1575.62,-231.806 1575.62,-249.806"/>
<text text-anchor="middle" x="1531.12" y="-238.606" font-family="Times,serif" font-size="9.00">wallRadar[&#45;0.7,&#45;0.7]</text>
</g>
<!-- wallRadar[&#45;0.7,&#45;0.7]&#45;&gt;Move Forward -->
<g id="edge41" class="edge"><title>wallRadar[&#45;0.7,&#45;0.7]&#45;&gt;Move Forward</title>
<path fill="none" stroke="red" stroke-width="0.290914" d="M1486.41,-239.765C1338.91,-239.257 874.123,-234.568 820.119,-195.806 793.934,-177.011 779.752,-144.006 772.084,-114.8"/>
<polygon fill="red" stroke="red" stroke-width="0.290914" points="775.482,-113.962 769.725,-105.067 768.679,-115.61 775.482,-113.962"/>
</g>
<!-- wallRadar[&#45;0.7,&#45;0.7]&#45;&gt; Move Backward -->
<g id="edge11" class="edge"><title>wallRadar[&#45;0.7,&#45;0.7]&#45;&gt; Move Backward</title>
<path fill="none" stroke="green" stroke-width="0.939838" d="M1529.77,-231.705C1528.32,-222.884 1525.97,-208.356 1524.12,-195.806 1520.46,-171.025 1516.69,-143.73 1513.48,-119.896"/>
<polygon fill="green" stroke="green" stroke-width="0.939838" points="1516.94,-119.357 1512.14,-109.91 1510,-120.287 1516.94,-119.357"/>
</g>
<!-- wallRadar[&#45;0.7,&#45;0.7]&#45;&gt;Move Left -->
<g id="edge38" class="edge"><title>wallRadar[&#45;0.7,&#45;0.7]&#45;&gt;Move Left</title>
<path fill="none" stroke="red" stroke-width="0.162584" d="M1575.74,-239.001C1688.07,-236.515 1975.58,-227.123 2004.12,-195.806 2042.95,-153.194 1968.89,-103.971 1917.49,-76.8244"/>
<polygon fill="red" stroke="red" stroke-width="0.162584" points="1919,-73.6635 1908.51,-72.1795 1915.79,-79.8815 1919,-73.6635"/>
</g>
<!-- 1130 -->
<g id="node28" class="node"><title>1130</title>
<ellipse fill="white" stroke="black" cx="1558.12" cy="-171.057" rx="25" ry="25"/>
<text text-anchor="middle" x="1558.12" y="-168.857" font-family="Times,serif" font-size="9.00">1130</text>
</g>
<!-- wallRadar[&#45;0.7,&#45;0.7]&#45;&gt;1130 -->
<g id="edge42" class="edge"><title>wallRadar[&#45;0.7,&#45;0.7]&#45;&gt;1130</title>
<path fill="none" stroke="red" stroke-width="0.355679" d="M1534.32,-231.768C1537.12,-224.737 1541.38,-214.05 1545.53,-203.651"/>
<polygon fill="red" stroke="red" stroke-width="0.355679" points="1548.81,-204.88 1549.26,-194.295 1542.3,-202.289 1548.81,-204.88"/>
</g>
<!-- wallRadar[0.7,&#45;0.7] -->
<g id="node8" class="node"><title>wallRadar[0.7,&#45;0.7]</title>
<polygon fill="lightgray" stroke="black" points="1477.12,-180.057 1391.12,-180.057 1391.12,-162.057 1477.12,-162.057 1477.12,-180.057"/>
<text text-anchor="middle" x="1434.12" y="-168.857" font-family="Times,serif" font-size="9.00">wallRadar[0.7,&#45;0.7]</text>
</g>
<!-- wallRadar[0.7,&#45;0.7]&#45;&gt;Move Forward -->
<g id="edge4" class="edge"><title>wallRadar[0.7,&#45;0.7]&#45;&gt;Move Forward</title>
<path fill="none" stroke="green" stroke-width="0.324332" d="M1419.53,-162.039C1409.34,-156.778 1395.26,-150.179 1382.12,-146.309 1182.86,-87.6013 935.791,-66.2926 823.6,-59.2706"/>
<polygon fill="green" stroke="green" stroke-width="0.324332" points="823.687,-55.7695 813.492,-58.6541 823.261,-62.7565 823.687,-55.7695"/>
</g>
<!-- wallRadar[0.7,&#45;0.7]&#45;&gt; Move Backward -->
<g id="edge21" class="edge"><title>wallRadar[0.7,&#45;0.7]&#45;&gt; Move Backward</title>
<path fill="none" stroke="green" stroke-width="0.988865" d="M1439.23,-161.866C1445.98,-151.024 1458.49,-130.966 1470.8,-111.212"/>
<polygon fill="green" stroke="green" stroke-width="0.988865" points="1473.91,-112.831 1476.23,-102.493 1467.97,-109.128 1473.91,-112.831"/>
</g>
<!-- wallRadar[0.7,&#45;0.7]&#45;&gt;Move Left -->
<g id="edge7" class="edge"><title>wallRadar[0.7,&#45;0.7]&#45;&gt;Move Left</title>
<path fill="none" stroke="red" stroke-width="0.654018" d="M1464.52,-161.988C1481.96,-157.372 1504.26,-151.486 1524.12,-146.309 1632.69,-118 1760.36,-85.251 1827.47,-68.0773"/>
<polygon fill="red" stroke="red" stroke-width="0.654018" points="1828.5,-71.4278 1837.32,-65.5584 1826.76,-64.6463 1828.5,-71.4278"/>
</g>
<!-- enemyRadar[RightBack] -->
<g id="node9" class="node"><title>enemyRadar[RightBack]</title>
<polygon fill="lightgray" stroke="black" points="2329.12,-180.057 2225.12,-180.057 2225.12,-162.057 2329.12,-162.057 2329.12,-180.057"/>
<text text-anchor="middle" x="2277.12" y="-168.857" font-family="Times,serif" font-size="9.00">enemyRadar[RightBack]</text>
</g>
<!-- enemyRadar[RightBack]&#45;&gt;Move Left -->
<g id="edge24" class="edge"><title>enemyRadar[RightBack]&#45;&gt;Move Left</title>
<path fill="none" stroke="green" stroke-width="0.324185" d="M2258.09,-162.006C2246.16,-157.118 2230.38,-150.949 2216.12,-146.309 2112.33,-112.547 1987.8,-82.2074 1921.36,-66.8131"/>
<polygon fill="green" stroke="green" stroke-width="0.324185" points="1921.74,-63.3087 1911.21,-64.4725 1920.17,-70.1297 1921.74,-63.3087"/>
</g>
<!-- enemyRadar[LeftBack] -->
<g id="node10" class="node"><title>enemyRadar[LeftBack]</title>
<polygon fill="lightgray" stroke="black" points="657.619,-249.806 558.619,-249.806 558.619,-231.806 657.619,-231.806 657.619,-249.806"/>
<text text-anchor="middle" x="608.119" y="-238.606" font-family="Times,serif" font-size="9.00">enemyRadar[LeftBack]</text>
</g>
<!-- enemyRadar[LeftBack]&#45;&gt;Shoot -->
<g id="edge14" class="edge"><title>enemyRadar[LeftBack]&#45;&gt;Shoot</title>
<path fill="none" stroke="green" stroke-width="0.523278" d="M558.417,-239.842C423.692,-239.425 59.1804,-234.681 23.1193,-195.806 -103.592,-59.2064 326.877,-53.9288 458.844,-55.4181"/>
<polygon fill="green" stroke="green" stroke-width="0.523278" points="458.847,-58.9184 468.892,-55.5515 458.94,-51.919 458.847,-58.9184"/>
</g>
<!-- enemyRadar[LeftBack]&#45;&gt;Move Forward -->
<g id="edge1" class="edge"><title>enemyRadar[LeftBack]&#45;&gt;Move Forward</title>
<path fill="none" stroke="green" stroke-width="0.244046" stroke-dasharray="1,5" d="M604.586,-231.602C597.773,-214.418 584.867,-173.952 601.119,-146.309 623.431,-108.357 668.146,-85.224 704.956,-71.9084"/>
<polygon fill="green" stroke="green" stroke-width="0.244046" points="706.305,-75.1453 714.613,-68.5703 704.018,-68.5294 706.305,-75.1453"/>
</g>
<!-- enemyRadar[LeftBack]&#45;&gt; Move Backward -->
<g id="edge31" class="edge"><title>enemyRadar[LeftBack]&#45;&gt; Move Backward</title>
<path fill="none" stroke="green" stroke-width="0.515306" d="M657.854,-239.697C758.133,-238.695 980.601,-232.29 1046.12,-195.806 1070.35,-182.313 1060.67,-161.123 1084.12,-146.309 1195.2,-76.1219 1352.24,-59.8164 1439.74,-56.4889"/>
<polygon fill="green" stroke="green" stroke-width="0.515306" points="1439.93,-59.9849 1449.8,-56.1522 1439.69,-52.9888 1439.93,-59.9849"/>
</g>
<!-- 1241 -->
<g id="node29" class="node"><title>1241</title>
<ellipse fill="white" stroke="black" cx="635.119" cy="-171.057" rx="25" ry="25"/>
<text text-anchor="middle" x="635.119" y="-168.857" font-family="Times,serif" font-size="9.00">1241</text>
</g>
<!-- enemyRadar[LeftBack]&#45;&gt;1241 -->
<g id="edge46" class="edge"><title>enemyRadar[LeftBack]&#45;&gt;1241</title>
<path fill="none" stroke="green" stroke-width="0.268061" d="M611.323,-231.768C614.125,-224.737 618.384,-214.05 622.528,-203.651"/>
<polygon fill="green" stroke="green" stroke-width="0.268061" points="625.806,-204.88 626.257,-194.295 619.303,-202.289 625.806,-204.88"/>
</g>
<!-- enemyRadar[Right45ø] -->
<g id="node11" class="node"><title>enemyRadar[Right45ø]</title>
<polygon fill="lightgray" stroke="black" points="1193.12,-180.057 1093.12,-180.057 1093.12,-162.057 1193.12,-162.057 1193.12,-180.057"/>
<text text-anchor="middle" x="1143.12" y="-168.857" font-family="Times,serif" font-size="9.00">enemyRadar[Right45ø]</text>
</g>
<!-- enemyRadar[Right45ø]&#45;&gt;Shoot -->
<g id="edge15" class="edge"><title>enemyRadar[Right45ø]&#45;&gt;Shoot</title>
<path fill="none" stroke="red" stroke-width="0.146968" d="M1114.47,-161.963C1095.27,-156.805 1069.35,-150.356 1046.12,-146.309 895.548,-120.075 854.496,-137.64 704.119,-110.309 642.69,-99.1438 572.706,-79.4395 531.591,-67.128"/>
<polygon fill="red" stroke="red" stroke-width="0.146968" points="532.368,-63.7065 521.783,-64.1669 530.345,-70.4078 532.368,-63.7065"/>
</g>
<!-- enemyRadar[Right45ø]&#45;&gt; Move Backward -->
<g id="edge34" class="edge"><title>enemyRadar[Right45ø]&#45;&gt; Move Backward</title>
<path fill="none" stroke="green" stroke-width="0.381284" d="M1161.81,-162.011C1173.33,-157.184 1188.46,-151.077 1202.12,-146.309 1283.97,-117.73 1380.17,-90.0959 1441.85,-73.1207"/>
<polygon fill="green" stroke="green" stroke-width="0.381284" points="1443.1,-76.4063 1451.82,-70.3865 1441.25,-69.6554 1443.1,-76.4063"/>
</g>
<!-- enemyRadar[Right45ø]&#45;&gt;Move Left -->
<g id="edge33" class="edge"><title>enemyRadar[Right45ø]&#45;&gt;Move Left</title>
<path fill="none" stroke="green" stroke-width="0.831042" stroke-dasharray="1,5" d="M1159.48,-161.998C1171.1,-156.648 1187.21,-149.96 1202.12,-146.309 1361.31,-107.314 1406.76,-132.652 1569.12,-110.309 1660.78,-97.6949 1767,-77.5761 1826.8,-65.737"/>
<polygon fill="green" stroke="green" stroke-width="0.831042" points="1827.58,-69.1512 1836.7,-63.7684 1826.21,-62.2856 1827.58,-69.1512"/>
</g>
<!-- enemyRadar[Left45ø] -->
<g id="node12" class="node"><title>enemyRadar[Left45ø]</title>
<polygon fill="lightgray" stroke="black" points="772.619,-180.057 677.619,-180.057 677.619,-162.057 772.619,-162.057 772.619,-180.057"/>
<text text-anchor="middle" x="725.119" y="-168.857" font-family="Times,serif" font-size="9.00">enemyRadar[Left45ø]</text>
</g>
<!-- enemyRadar[Left45ø]&#45;&gt;Shoot -->
<g id="edge9" class="edge"><title>enemyRadar[Left45ø]&#45;&gt;Shoot</title>
<path fill="none" stroke="red" stroke-width="0.204148" d="M709.017,-162.048C671.716,-143.495 578.779,-97.2687 528.933,-72.4758"/>
<polygon fill="red" stroke="red" stroke-width="0.204148" points="530.372,-69.2821 519.859,-67.9624 527.254,-75.5497 530.372,-69.2821"/>
</g>
<!-- enemyRadar[Left45ø]&#45;&gt;Move Forward -->
<g id="edge36" class="edge"><title>enemyRadar[Left45ø]&#45;&gt;Move Forward</title>
<path fill="none" stroke="green" stroke-width="0.303858" stroke-dasharray="1,5" d="M727.852,-161.866C731.375,-151.306 737.815,-132.002 744.237,-112.753"/>
<polygon fill="green" stroke="green" stroke-width="0.303858" points="747.632,-113.637 747.476,-103.043 740.992,-111.421 747.632,-113.637"/>
</g>
<!-- enemyRadar[Left45ø]&#45;&gt; Move Backward -->
<g id="edge30" class="edge"><title>enemyRadar[Left45ø]&#45;&gt; Move Backward</title>
<path fill="none" stroke="green" stroke-width="0.179925" d="M753.616,-162.03C772.387,-156.966 797.573,-150.596 820.119,-146.309 1045.97,-103.361 1317.6,-74.1878 1439.87,-62.2369"/>
<polygon fill="green" stroke="green" stroke-width="0.179925" points="1440.56,-65.6864 1450.17,-61.236 1439.88,-58.7192 1440.56,-65.6864"/>
</g>
<!-- enemyRadar[RightFront20ø] -->
<g id="node13" class="node"><title>enemyRadar[RightFront20ø]</title>
<polygon fill="lightgray" stroke="black" points="2188.62,-249.806 2069.62,-249.806 2069.62,-231.806 2188.62,-231.806 2188.62,-249.806"/>
<text text-anchor="middle" x="2129.12" y="-238.606" font-family="Times,serif" font-size="9.00">enemyRadar[RightFront20ø]</text>
</g>
<!-- enemyRadar[RightFront20ø]&#45;&gt; Move Backward -->
<g id="edge12" class="edge"><title>enemyRadar[RightFront20ø]&#45;&gt; Move Backward</title>
<path fill="none" stroke="green" stroke-width="0.225036" d="M2069.4,-238.712C1973.71,-236.041 1791.07,-226.906 1735.12,-195.806 1710.64,-182.199 1718.03,-163.75 1696.12,-146.309 1657.42,-115.51 1606.48,-92.1386 1566.94,-76.918"/>
<polygon fill="green" stroke="green" stroke-width="0.225036" points="1568,-73.576 1557.41,-73.3197 1565.53,-80.1251 1568,-73.576"/>
</g>
<!-- enemyRadar[RightFront20ø]&#45;&gt;Move Left -->
<g id="edge8" class="edge"><title>enemyRadar[RightFront20ø]&#45;&gt;Move Left</title>
<path fill="none" stroke="green" stroke-width="0.445264" d="M2129.88,-231.704C2131.09,-214.002 2131.43,-171.452 2110.12,-146.309 2062.69,-90.3631 1976.53,-69.0386 1922.47,-60.9765"/>
<polygon fill="green" stroke="green" stroke-width="0.445264" points="1922.82,-57.4922 1912.44,-59.5773 1921.86,-64.4251 1922.82,-57.4922"/>
</g>
<!-- 1148 -->
<g id="node30" class="node"><title>1148</title>
<ellipse fill="white" stroke="black" cx="2182.12" cy="-171.057" rx="25" ry="25"/>
<text text-anchor="middle" x="2182.12" y="-168.857" font-family="Times,serif" font-size="9.00">1148</text>
</g>
<!-- enemyRadar[RightFront20ø]&#45;&gt;1148 -->
<g id="edge44" class="edge"><title>enemyRadar[RightFront20ø]&#45;&gt;1148</title>
<path fill="none" stroke="green" stroke-width="0.323578" d="M2135.41,-231.768C2141.73,-223.68 2151.85,-210.754 2161.05,-198.994"/>
<polygon fill="green" stroke="green" stroke-width="0.323578" points="2163.81,-201.145 2167.21,-191.112 2158.29,-196.832 2163.81,-201.145"/>
</g>
<!-- enemyRadar[LeftFront20ø] -->
<g id="node14" class="node"><title>enemyRadar[LeftFront20ø]</title>
<polygon fill="lightgray" stroke="black" points="286.119,-180.057 172.119,-180.057 172.119,-162.057 286.119,-162.057 286.119,-180.057"/>
<text text-anchor="middle" x="229.119" y="-168.857" font-family="Times,serif" font-size="9.00">enemyRadar[LeftFront20ø]</text>
</g>
<!-- enemyRadar[LeftFront20ø]&#45;&gt;Move Forward -->
<g id="edge37" class="edge"><title>enemyRadar[LeftFront20ø]&#45;&gt;Move Forward</title>
<path fill="none" stroke="green" stroke-width="0.359966" d="M248.447,-161.975C261.441,-156.824 279.065,-150.375 295.119,-146.309 398.399,-120.149 427.505,-130.483 532.119,-110.309 591.279,-98.8997 658.246,-82.8493 704.786,-71.1857"/>
<polygon fill="green" stroke="green" stroke-width="0.359966" points="705.846,-74.528 714.689,-68.6927 704.138,-67.7398 705.846,-74.528"/>
</g>
<!-- enemyRadar[RightFront15ø] -->
<g id="node15" class="node"><title>enemyRadar[RightFront15ø]</title>
<polygon fill="lightgray" stroke="black" points="1036.62,-180.057 917.619,-180.057 917.619,-162.057 1036.62,-162.057 1036.62,-180.057"/>
<text text-anchor="middle" x="977.119" y="-168.857" font-family="Times,serif" font-size="9.00">enemyRadar[RightFront15ø]</text>
</g>
<!-- enemyRadar[RightFront15ø]&#45;&gt;Move Forward -->
<g id="edge19" class="edge"><title>enemyRadar[RightFront15ø]&#45;&gt;Move Forward</title>
<path fill="none" stroke="green" stroke-width="0.187589" d="M962.071,-162.048C932.219,-146.159 864.234,-109.973 816.067,-84.3362"/>
<polygon fill="green" stroke="green" stroke-width="0.187589" points="817.489,-81.1279 807.017,-79.519 814.2,-87.3071 817.489,-81.1279"/>
</g>
<!-- enemyRadar[RightFront15ø]&#45;&gt; Move Backward -->
<g id="edge25" class="edge"><title>enemyRadar[RightFront15ø]&#45;&gt; Move Backward</title>
<path fill="none" stroke="green" stroke-width="0.307357" d="M999.921,-161.993C1014.45,-157.04 1033.75,-150.805 1051.12,-146.309 1188.39,-110.777 1352.11,-81.3964 1440.61,-66.5675"/>
<polygon fill="green" stroke="green" stroke-width="0.307357" points="1441.22,-70.0153 1450.5,-64.9183 1440.06,-63.1107 1441.22,-70.0153"/>
</g>
<!-- enemyRadar[LeftFront15ø] -->
<g id="node16" class="node"><title>enemyRadar[LeftFront15ø]</title>
<polygon fill="lightgray" stroke="black" points="2321.12,-249.806 2207.12,-249.806 2207.12,-231.806 2321.12,-231.806 2321.12,-249.806"/>
<text text-anchor="middle" x="2264.12" y="-238.606" font-family="Times,serif" font-size="9.00">enemyRadar[LeftFront15ø]</text>
</g>
<!-- enemyRadar[RightFront7.5ø] -->
<g id="node17" class="node"><title>enemyRadar[RightFront7.5ø]</title>
<polygon fill="lightgray" stroke="black" points="2461.12,-249.806 2339.12,-249.806 2339.12,-231.806 2461.12,-231.806 2461.12,-249.806"/>
<text text-anchor="middle" x="2400.12" y="-238.606" font-family="Times,serif" font-size="9.00">enemyRadar[RightFront7.5ø]</text>
</g>
<!-- enemyRadar[LeftFront7.5ø] -->
<g id="node18" class="node"><title>enemyRadar[LeftFront7.5ø]</title>
<polygon fill="lightgray" stroke="black" points="420.119,-180.057 304.119,-180.057 304.119,-162.057 420.119,-162.057 420.119,-180.057"/>
<text text-anchor="middle" x="362.119" y="-168.857" font-family="Times,serif" font-size="9.00">enemyRadar[LeftFront7.5ø]</text>
</g>
<!-- enemyRadar[LeftFront7.5ø]&#45;&gt;Shoot -->
<g id="edge6" class="edge"><title>enemyRadar[LeftFront7.5ø]&#45;&gt;Shoot</title>
<path fill="none" stroke="green" stroke-width="0.578817" d="M371.756,-161.866C391.698,-144.915 438.141,-105.437 468.285,-79.8143"/>
<polygon fill="green" stroke="green" stroke-width="0.578817" points="470.592,-82.4465 475.945,-73.3031 466.059,-77.1129 470.592,-82.4465"/>
</g>
<!-- enemyRadar[LeftFront7.5ø]&#45;&gt; Move Backward -->
<g id="edge5" class="edge"><title>enemyRadar[LeftFront7.5ø]&#45;&gt; Move Backward</title>
<path fill="none" stroke="green" stroke-width="0.110453" d="M380.803,-161.973C394.038,-156.611 412.35,-149.92 429.119,-146.309 453.978,-140.955 1210.09,-79.8779 1439.67,-61.4112"/>
<polygon fill="green" stroke="green" stroke-width="0.110453" points="1440.19,-64.8807 1449.87,-60.5903 1439.62,-57.9033 1440.19,-64.8807"/>
</g>
<!-- enemyRadar[RightFront2.5ø] -->
<g id="node19" class="node"><title>enemyRadar[RightFront2.5ø]</title>
<polygon fill="lightgray" stroke="black" points="154.119,-180.057 32.1193,-180.057 32.1193,-162.057 154.119,-162.057 154.119,-180.057"/>
<text text-anchor="middle" x="93.1193" y="-168.857" font-family="Times,serif" font-size="9.00">enemyRadar[RightFront2.5ø]</text>
</g>
<!-- enemyRadar[RightFront2.5ø]&#45;&gt;Shoot -->
<g id="edge13" class="edge"><title>enemyRadar[RightFront2.5ø]&#45;&gt;Shoot</title>
<path fill="none" stroke="green" stroke-width="0.949805" d="M115.701,-161.995C129.359,-157.219 147.161,-151.171 163.119,-146.309 270.357,-113.636 398.794,-80.5466 460.105,-65.1154"/>
<polygon fill="green" stroke="green" stroke-width="0.949805" points="461.207,-68.4473 470.054,-62.6181 459.503,-61.6579 461.207,-68.4473"/>
</g>
<!-- enemyRadar[RightFront2.5ø]&#45;&gt;Move Forward -->
<g id="edge23" class="edge"><title>enemyRadar[RightFront2.5ø]&#45;&gt;Move Forward</title>
<path fill="none" stroke="red" stroke-width="0.234471" stroke-dasharray="1,5" d="M112.991,-161.949C126.818,-156.648 145.807,-150.038 163.119,-146.309 324.203,-111.61 369.545,-137.173 532.119,-110.309 591.563,-100.486 658.489,-84.2091 704.942,-72.06"/>
<polygon fill="red" stroke="red" stroke-width="0.234471" points="706.048,-75.3884 714.826,-69.4566 704.265,-68.6193 706.048,-75.3884"/>
</g>
<!-- enemyRadar[LeftFront2.5ø] -->
<g id="node20" class="node"><title>enemyRadar[LeftFront2.5ø]</title>
<polygon fill="lightgray" stroke="black" points="554.119,-180.057 438.119,-180.057 438.119,-162.057 554.119,-162.057 554.119,-180.057"/>
<text text-anchor="middle" x="496.119" y="-168.857" font-family="Times,serif" font-size="9.00">enemyRadar[LeftFront2.5ø]</text>
</g>
<!-- enemyRadar[LeftFront2.5ø]&#45;&gt;Move Forward -->
<g id="edge22" class="edge"><title>enemyRadar[LeftFront2.5ø]&#45;&gt;Move Forward</title>
<path fill="none" stroke="red" stroke-width="0.439411" stroke-dasharray="1,5" d="M514.894,-162.048C554.443,-145.177 647.632,-105.422 707.904,-79.7095"/>
<polygon fill="red" stroke="red" stroke-width="0.439411" points="709.456,-82.8524 717.281,-75.7092 706.71,-76.4138 709.456,-82.8524"/>
</g>
<!-- OnTarget -->
<g id="node21" class="node"><title>OnTarget</title>
<polygon fill="lightgray" stroke="black" points="2101.12,-180.057 2051.12,-180.057 2051.12,-162.057 2101.12,-162.057 2101.12,-180.057"/>
<text text-anchor="middle" x="2076.12" y="-168.857" font-family="Times,serif" font-size="9.00">OnTarget</text>
</g>
<!-- OnTarget&#45;&gt;Move Left -->
<g id="edge26" class="edge"><title>OnTarget&#45;&gt;Move Left</title>
<path fill="none" stroke="red" stroke-width="0.113019" d="M2063.2,-162.005C2055.64,-157.341 2045.89,-151.404 2037.12,-146.309 1996.48,-122.707 1949.44,-96.8467 1916.38,-78.8989"/>
<polygon fill="red" stroke="red" stroke-width="0.113019" points="1917.9,-75.7421 1907.44,-74.055 1914.56,-81.8966 1917.9,-75.7421"/>
</g>
<!-- TakingDmg -->
<g id="node22" class="node"><title>TakingDmg</title>
<polygon fill="lightgray" stroke="black" points="1903.62,-180.057 1844.62,-180.057 1844.62,-162.057 1903.62,-162.057 1903.62,-180.057"/>
<text text-anchor="middle" x="1874.12" y="-168.857" font-family="Times,serif" font-size="9.00">TakingDmg</text>
</g>
<!-- TakingDmg&#45;&gt; Move Backward -->
<g id="edge10" class="edge"><title>TakingDmg&#45;&gt; Move Backward</title>
<path fill="none" stroke="red" stroke-width="0.406676" d="M1862.96,-161.863C1855.63,-156.797 1845.67,-150.486 1836.12,-146.309 1747.36,-107.495 1637.77,-81.6091 1569.65,-67.8917"/>
<polygon fill="red" stroke="red" stroke-width="0.406676" points="1569.99,-64.3901 1559.5,-65.8753 1568.63,-71.256 1569.99,-64.3901"/>
</g>
<!-- TakingDmg&#45;&gt;Move Left -->
<g id="edge32" class="edge"><title>TakingDmg&#45;&gt;Move Left</title>
<path fill="none" stroke="red" stroke-width="0.313919" d="M1874.12,-161.866C1874.12,-149.668 1874.12,-125.805 1874.12,-103.834"/>
<polygon fill="red" stroke="red" stroke-width="0.313919" points="1877.62,-103.591 1874.12,-93.591 1870.62,-103.591 1877.62,-103.591"/>
</g>
<!-- bias -->
<g id="node23" class="node"><title>bias</title>
<polygon fill="lightgray" stroke="black" points="2510.62,-249.806 2479.62,-249.806 2479.62,-231.806 2510.62,-231.806 2510.62,-249.806"/>
<text text-anchor="middle" x="2495.12" y="-238.606" font-family="Times,serif" font-size="9.00">bias</text>
</g>
<!-- 1130&#45;&gt; Move Backward -->
<g id="edge43" class="edge"><title>1130&#45;&gt; Move Backward</title>
<path fill="none" stroke="green" stroke-width="0.62053" d="M1548.03,-148.365C1543.53,-138.695 1537.99,-126.789 1532.4,-114.784"/>
<polygon fill="green" stroke="green" stroke-width="0.62053" points="1535.53,-113.21 1528.14,-105.62 1529.18,-116.163 1535.53,-113.21"/>
</g>
<!-- 1241&#45;&gt;Move Forward -->
<g id="edge47" class="edge"><title>1241&#45;&gt;Move Forward</title>
<path fill="none" stroke="green" stroke-width="0.600348" d="M653.187,-153.979C670.016,-139.004 695.801,-116.059 718.169,-96.154"/>
<polygon fill="green" stroke="green" stroke-width="0.600348" points="720.775,-98.5206 725.918,-89.2582 716.121,-93.2913 720.775,-98.5206"/>
</g>
<!-- 1148&#45;&gt;Move Left -->
<g id="edge45" class="edge"><title>1148&#45;&gt;Move Left</title>
<path fill="none" stroke="green" stroke-width="0.348648" d="M2161.95,-156.598C2156.03,-152.975 2149.45,-149.25 2143.12,-146.309 2068.07,-111.416 1975.64,-83.4862 1920.99,-68.4123"/>
<polygon fill="green" stroke="green" stroke-width="0.348648" points="1921.8,-65.0071 1911.23,-65.7485 1919.96,-71.7598 1921.8,-65.0071"/>
</g>
</g>
</svg>
