<?xml version="1.0" encoding="UTF-8" standalone="no"?>
<!DOCTYPE svg PUBLIC "-//W3C//DTD SVG 1.1//EN"
 "http://www.w3.org/Graphics/SVG/1.1/DTD/svg11.dtd">
<!-- Generated by graphviz version 2.38.0 (20140413.2041)
 -->
<!-- Title: %3 Pages: 1 -->
<svg width="2706pt" height="295pt"
 viewBox="0.00 0.00 2706.00 294.58" xmlns="http://www.w3.org/2000/svg" xmlns:xlink="http://www.w3.org/1999/xlink">
<g id="graph0" class="graph" transform="scale(1 1) rotate(0) translate(4 290.576)">
<title>%3</title>
<polygon fill="white" stroke="none" points="-4,4 -4,-290.576 2702,-290.576 2702,4 -4,4"/>
<!-- wallRadar[1,0] -->
<g id="node1" class="node"><title>wallRadar[1,0]</title>
<polygon fill="lightgray" stroke="black" points="807.5,-220.362 737.5,-220.362 737.5,-202.362 807.5,-202.362 807.5,-220.362"/>
<text text-anchor="middle" x="772.5" y="-209.162" font-family="Times,serif" font-size="9.00">wallRadar[1,0]</text>
</g>
<!-- Shoot -->
<g id="node24" class="node"><title>Shoot</title>
<ellipse fill="lightblue" stroke="black" cx="615.5" cy="-77.0746" rx="26.7407" ry="26.7407"/>
<text text-anchor="middle" x="615.5" y="-74.8746" font-family="Times,serif" font-size="9.00">Shoot</text>
</g>
<!-- wallRadar[1,0]&#45;&gt;Shoot -->
<g id="edge2" class="edge"><title>wallRadar[1,0]&#45;&gt;Shoot</title>
<path fill="none" stroke="red" stroke-width="0.319811" d="M762.679,-202.087C739.212,-182.314 679.184,-131.735 643.457,-101.631"/>
<polygon fill="red" stroke="red" stroke-width="0.319811" points="645.696,-98.9412 635.794,-95.1741 641.186,-104.294 645.696,-98.9412"/>
</g>
<!-- Move Forward/Backward -->
<g id="node25" class="node"><title>Move Forward/Backward</title>
<ellipse fill="lightblue" stroke="black" cx="1161.5" cy="-77.0746" rx="77.1494" ry="77.1494"/>
<text text-anchor="middle" x="1161.5" y="-74.8746" font-family="Times,serif" font-size="9.00">Move Forward/Backward</text>
</g>
<!-- wallRadar[1,0]&#45;&gt;Move Forward/Backward -->
<g id="edge43" class="edge"><title>wallRadar[1,0]&#45;&gt;Move Forward/Backward</title>
<path fill="none" stroke="green" stroke-width="0.333462" d="M791.454,-202.166C800.491,-198.356 811.49,-193.858 821.5,-190.149 908.333,-157.976 1009.26,-125.29 1078.46,-103.586"/>
<polygon fill="green" stroke="green" stroke-width="0.333462" points="1079.51,-106.925 1088.01,-100.598 1077.42,-100.244 1079.51,-106.925"/>
</g>
<!-- wallRadar[0,1] -->
<g id="node2" class="node"><title>wallRadar[0,1]</title>
<polygon fill="lightgray" stroke="black" points="1413.5,-220.362 1343.5,-220.362 1343.5,-202.362 1413.5,-202.362 1413.5,-220.362"/>
<text text-anchor="middle" x="1378.5" y="-209.162" font-family="Times,serif" font-size="9.00">wallRadar[0,1]</text>
</g>
<!-- wallRadar[0,1]&#45;&gt;Move Forward/Backward -->
<g id="edge1" class="edge"><title>wallRadar[0,1]&#45;&gt;Move Forward/Backward</title>
<path fill="none" stroke="green" stroke-width="0.14788" d="M1365.25,-202.286C1339.96,-186.866 1283.09,-152.199 1235.85,-123.397"/>
<polygon fill="green" stroke="green" stroke-width="0.14788" points="1237.51,-120.31 1227.15,-118.093 1233.86,-126.287 1237.51,-120.31"/>
</g>
<!-- Turn left/right -->
<g id="node27" class="node"><title>Turn left/right</title>
<ellipse fill="lightblue" stroke="black" cx="1796.5" cy="-77.0746" rx="46.8387" ry="46.8387"/>
<text text-anchor="middle" x="1796.5" y="-74.8746" font-family="Times,serif" font-size="9.00">Turn left/right</text>
</g>
<!-- wallRadar[0,1]&#45;&gt;Turn left/right -->
<g id="edge3" class="edge"><title>wallRadar[0,1]&#45;&gt;Turn left/right</title>
<path fill="none" stroke="red" stroke-width="0.413637" d="M1394.57,-202.326C1402.8,-198.375 1413.06,-193.711 1422.5,-190.149 1533.49,-148.259 1667.53,-111.263 1741.22,-92.0488"/>
<polygon fill="red" stroke="red" stroke-width="0.413637" points="1742.41,-95.3563 1751.21,-89.4569 1740.65,-88.5806 1742.41,-95.3563"/>
</g>
<!-- wallRadar[&#45;1,0] -->
<g id="node3" class="node"><title>wallRadar[&#45;1,0]</title>
<polygon fill="lightgray" stroke="black" points="997,-220.362 924,-220.362 924,-202.362 997,-202.362 997,-220.362"/>
<text text-anchor="middle" x="960.5" y="-209.162" font-family="Times,serif" font-size="9.00">wallRadar[&#45;1,0]</text>
</g>
<!-- wallRadar[&#45;1,0]&#45;&gt;Move Forward/Backward -->
<g id="edge31" class="edge"><title>wallRadar[&#45;1,0]&#45;&gt;Move Forward/Backward</title>
<path fill="none" stroke="red" stroke-width="0.123083" d="M972.771,-202.286C995.544,-187.298 1045.95,-154.127 1088.94,-125.832"/>
<polygon fill="red" stroke="red" stroke-width="0.123083" points="1091,-128.666 1097.43,-120.245 1087.15,-122.819 1091,-128.666"/>
</g>
<!-- wallRadar[0,&#45;1] -->
<g id="node4" class="node"><title>wallRadar[0,&#45;1]</title>
<polygon fill="lightgray" stroke="black" points="73,-220.362 0,-220.362 0,-202.362 73,-202.362 73,-220.362"/>
<text text-anchor="middle" x="36.5" y="-209.162" font-family="Times,serif" font-size="9.00">wallRadar[0,&#45;1]</text>
</g>
<!-- wallRadar[0,&#45;1]&#45;&gt;Shoot -->
<g id="edge11" class="edge"><title>wallRadar[0,&#45;1]&#45;&gt;Shoot</title>
<path fill="none" stroke="red" stroke-width="0.111993" d="M54.6486,-202.307C64.2724,-198.256 76.3765,-193.508 87.5,-190.149 268.56,-135.477 492.319,-97.3488 578.904,-83.6612"/>
<polygon fill="red" stroke="red" stroke-width="0.111993" points="579.672,-87.0836 589.01,-82.0767 578.588,-80.1681 579.672,-87.0836"/>
</g>
<!-- wallRadar[0.7,0.7] -->
<g id="node5" class="node"><title>wallRadar[0.7,0.7]</title>
<polygon fill="lightgray" stroke="black" points="2698,-220.362 2615,-220.362 2615,-202.362 2698,-202.362 2698,-220.362"/>
<text text-anchor="middle" x="2656.5" y="-209.162" font-family="Times,serif" font-size="9.00">wallRadar[0.7,0.7]</text>
</g>
<!--  Move Left/Right -->
<g id="node26" class="node"><title> Move Left/Right</title>
<ellipse fill="lightblue" stroke="black" cx="2216.5" cy="-77.0746" rx="55.3091" ry="55.3091"/>
<text text-anchor="middle" x="2216.5" y="-74.8746" font-family="Times,serif" font-size="9.00"> Move Left/Right</text>
</g>
<!-- wallRadar[0.7,0.7]&#45;&gt; Move Left/Right -->
<g id="edge40" class="edge"><title>wallRadar[0.7,0.7]&#45;&gt; Move Left/Right</title>
<path fill="none" stroke="red" stroke-width="0.325844" d="M2637.68,-202.213C2628.38,-198.326 2616.95,-193.75 2606.5,-190.149 2493.04,-151.033 2357.89,-114.349 2280.15,-94.18"/>
<polygon fill="red" stroke="red" stroke-width="0.325844" points="2280.59,-90.6792 2270.04,-91.5646 2278.84,-97.4563 2280.59,-90.6792"/>
</g>
<!-- wallRadar[&#45;0.7,0.7] -->
<g id="node6" class="node"><title>wallRadar[&#45;0.7,0.7]</title>
<polygon fill="lightgray" stroke="black" points="1657.5,-220.362 1571.5,-220.362 1571.5,-202.362 1657.5,-202.362 1657.5,-220.362"/>
<text text-anchor="middle" x="1614.5" y="-209.162" font-family="Times,serif" font-size="9.00">wallRadar[&#45;0.7,0.7]</text>
</g>
<!-- wallRadar[&#45;0.7,0.7]&#45;&gt;Shoot -->
<g id="edge35" class="edge"><title>wallRadar[&#45;0.7,0.7]&#45;&gt;Shoot</title>
<path fill="none" stroke="green" stroke-width="0.211751" d="M1597.57,-202.306C1587.59,-197.936 1574.59,-192.882 1562.5,-190.149 1350.8,-142.306 1291,-179.881 1075.5,-154.149 916.982,-135.221 729.689,-100.306 652.042,-85.2705"/>
<polygon fill="green" stroke="green" stroke-width="0.211751" points="652.312,-81.7575 641.828,-83.2846 650.976,-88.6289 652.312,-81.7575"/>
</g>
<!-- wallRadar[&#45;0.7,0.7]&#45;&gt;Move Forward/Backward -->
<g id="edge15" class="edge"><title>wallRadar[&#45;0.7,0.7]&#45;&gt;Move Forward/Backward</title>
<path fill="none" stroke="red" stroke-width="0.111263" d="M1594.91,-202.224C1585.24,-198.339 1573.34,-193.762 1562.5,-190.149 1454.42,-154.137 1327.45,-119.991 1245.8,-99.0607"/>
<polygon fill="red" stroke="red" stroke-width="0.111263" points="1246.62,-95.6597 1236.07,-96.5745 1244.89,-102.442 1246.62,-95.6597"/>
</g>
<!-- wallRadar[&#45;0.7,0.7]&#45;&gt; Move Left/Right -->
<g id="edge37" class="edge"><title>wallRadar[&#45;0.7,0.7]&#45;&gt; Move Left/Right</title>
<path fill="none" stroke="red" stroke-width="0.131831" d="M1632.99,-202.239C1642.8,-198.17 1655.15,-193.426 1666.5,-190.149 1747.4,-166.802 1769.95,-170.762 1852.5,-154.149 1957.83,-132.95 2080.04,-107.164 2152.68,-91.7129"/>
<polygon fill="red" stroke="red" stroke-width="0.131831" points="2153.54,-95.1083 2162.59,-89.6029 2152.08,-88.2616 2153.54,-95.1083"/>
</g>
<!-- wallRadar[&#45;0.7,0.7]&#45;&gt;Turn left/right -->
<g id="edge6" class="edge"><title>wallRadar[&#45;0.7,0.7]&#45;&gt;Turn left/right</title>
<path fill="none" stroke="green" stroke-width="0.434931" d="M1625.61,-202.286C1649.92,-184.616 1709,-141.673 1750.87,-111.242"/>
<polygon fill="green" stroke="green" stroke-width="0.434931" points="1752.97,-114.045 1759,-105.334 1748.85,-108.383 1752.97,-114.045"/>
</g>
<!-- wallRadar[&#45;0.7,&#45;0.7] -->
<g id="node7" class="node"><title>wallRadar[&#45;0.7,&#45;0.7]</title>
<polygon fill="lightgray" stroke="black" points="1081,-286.576 992,-286.576 992,-268.576 1081,-268.576 1081,-286.576"/>
<text text-anchor="middle" x="1036.5" y="-275.376" font-family="Times,serif" font-size="9.00">wallRadar[&#45;0.7,&#45;0.7]</text>
</g>
<!-- wallRadar[&#45;0.7,&#45;0.7]&#45;&gt;Shoot -->
<g id="edge41" class="edge"><title>wallRadar[&#45;0.7,&#45;0.7]&#45;&gt;Shoot</title>
<path fill="none" stroke="green" stroke-width="0.715494" d="M991.751,-274.087C875.522,-267.409 572.046,-248.519 557.5,-232.576 524.07,-195.934 562.379,-138.194 590.687,-104.648"/>
<polygon fill="green" stroke="green" stroke-width="0.715494" points="593.352,-106.918 597.261,-97.0703 588.064,-102.331 593.352,-106.918"/>
</g>
<!-- wallRadar[&#45;0.7,&#45;0.7]&#45;&gt;Move Forward/Backward -->
<g id="edge13" class="edge"><title>wallRadar[&#45;0.7,&#45;0.7]&#45;&gt;Move Forward/Backward</title>
<path fill="none" stroke="green" stroke-width="0.25098" stroke-dasharray="1,5" d="M1081.18,-276.148C1114.45,-273.182 1157.87,-263.149 1180.5,-232.576 1196.11,-211.484 1197.15,-184.166 1192.42,-158.379"/>
<polygon fill="green" stroke="green" stroke-width="0.25098" points="1195.84,-157.643 1190.34,-148.587 1188.99,-159.095 1195.84,-157.643"/>
</g>
<!-- 274 -->
<g id="node29" class="node"><title>274</title>
<ellipse fill="white" stroke="black" cx="1036.5" cy="-211.362" rx="21.4286" ry="21.4286"/>
<text text-anchor="middle" x="1036.5" y="-209.162" font-family="Times,serif" font-size="9.00">274</text>
</g>
<!-- wallRadar[&#45;0.7,&#45;0.7]&#45;&gt;274 -->
<g id="edge49" class="edge"><title>wallRadar[&#45;0.7,&#45;0.7]&#45;&gt;274</title>
<path fill="none" stroke="green" stroke-width="0.275948" d="M1036.5,-268.443C1036.5,-261.9 1036.5,-252.271 1036.5,-242.832"/>
<polygon fill="green" stroke="green" stroke-width="0.275948" points="1040,-242.818 1036.5,-232.818 1033,-242.818 1040,-242.818"/>
</g>
<!-- wallRadar[0.7,&#45;0.7] -->
<g id="node8" class="node"><title>wallRadar[0.7,&#45;0.7]</title>
<polygon fill="lightgray" stroke="black" points="878.5,-286.576 792.5,-286.576 792.5,-268.576 878.5,-268.576 878.5,-286.576"/>
<text text-anchor="middle" x="835.5" y="-275.376" font-family="Times,serif" font-size="9.00">wallRadar[0.7,&#45;0.7]</text>
</g>
<!-- wallRadar[0.7,&#45;0.7]&#45;&gt;Shoot -->
<g id="edge14" class="edge"><title>wallRadar[0.7,&#45;0.7]&#45;&gt;Shoot</title>
<path fill="none" stroke="red" stroke-width="0.223897" d="M792.383,-275.534C641.284,-271.678 143.61,-257.151 120.5,-232.576 -14.3035,-89.2216 441.96,-78.0323 578.223,-77.8241"/>
<polygon fill="red" stroke="red" stroke-width="0.223897" points="578.57,-81.3242 588.572,-77.8289 578.574,-74.3242 578.57,-81.3242"/>
</g>
<!-- wallRadar[0.7,&#45;0.7]&#45;&gt;Move Forward/Backward -->
<g id="edge25" class="edge"><title>wallRadar[0.7,&#45;0.7]&#45;&gt;Move Forward/Backward</title>
<path fill="none" stroke="red" stroke-width="0.642276" d="M834.888,-268.55C834.065,-251.83 834.576,-212.931 854.5,-190.149 910.127,-126.543 1004.93,-99.0131 1074.5,-87.1109"/>
<polygon fill="red" stroke="red" stroke-width="0.642276" points="1075.27,-90.5318 1084.57,-85.4658 1074.14,-83.6233 1075.27,-90.5318"/>
</g>
<!-- 257 -->
<g id="node28" class="node"><title>257</title>
<ellipse fill="white" stroke="black" cx="884.5" cy="-211.362" rx="21.4286" ry="21.4286"/>
<text text-anchor="middle" x="884.5" y="-209.162" font-family="Times,serif" font-size="9.00">257</text>
</g>
<!-- wallRadar[0.7,&#45;0.7]&#45;&gt;257 -->
<g id="edge47" class="edge"><title>wallRadar[0.7,&#45;0.7]&#45;&gt;257</title>
<path fill="none" stroke="green" stroke-width="0.364565" d="M841.706,-268.443C847.739,-260.537 857.211,-248.124 865.712,-236.984"/>
<polygon fill="green" stroke="green" stroke-width="0.364565" points="868.666,-238.882 871.95,-228.809 863.101,-234.636 868.666,-238.882"/>
</g>
<!-- enemyRadar[RightBack] -->
<g id="node9" class="node"><title>enemyRadar[RightBack]</title>
<polygon fill="lightgray" stroke="black" points="233.5,-220.362 129.5,-220.362 129.5,-202.362 233.5,-202.362 233.5,-220.362"/>
<text text-anchor="middle" x="181.5" y="-209.162" font-family="Times,serif" font-size="9.00">enemyRadar[RightBack]</text>
</g>
<!-- enemyRadar[RightBack]&#45;&gt;Shoot -->
<g id="edge18" class="edge"><title>enemyRadar[RightBack]&#45;&gt;Shoot</title>
<path fill="none" stroke="red" stroke-width="0.37984" d="M205.204,-202.336C216.478,-198.563 230.159,-194.047 242.5,-190.149 365.824,-151.198 513.083,-107.889 579.669,-88.4769"/>
<polygon fill="red" stroke="red" stroke-width="0.37984" points="581.025,-91.7275 589.647,-85.5709 579.067,-85.0067 581.025,-91.7275"/>
</g>
<!-- enemyRadar[LeftBack] -->
<g id="node10" class="node"><title>enemyRadar[LeftBack]</title>
<polygon fill="lightgray" stroke="black" points="2597,-220.362 2498,-220.362 2498,-202.362 2597,-202.362 2597,-220.362"/>
<text text-anchor="middle" x="2547.5" y="-209.162" font-family="Times,serif" font-size="9.00">enemyRadar[LeftBack]</text>
</g>
<!-- enemyRadar[LeftBack]&#45;&gt; Move Left/Right -->
<g id="edge44" class="edge"><title>enemyRadar[LeftBack]&#45;&gt; Move Left/Right</title>
<path fill="none" stroke="green" stroke-width="0.285033" d="M2527.29,-202.286C2478.5,-182.785 2352.69,-132.504 2276.94,-102.23"/>
<polygon fill="green" stroke="green" stroke-width="0.285033" points="2278.09,-98.9207 2267.51,-98.4595 2275.49,-105.421 2278.09,-98.9207"/>
</g>
<!-- enemyRadar[Right45ø] -->
<g id="node11" class="node"><title>enemyRadar[Right45ø]</title>
<polygon fill="lightgray" stroke="black" points="1909.5,-220.362 1809.5,-220.362 1809.5,-202.362 1909.5,-202.362 1909.5,-220.362"/>
<text text-anchor="middle" x="1859.5" y="-209.162" font-family="Times,serif" font-size="9.00">enemyRadar[Right45ø]</text>
</g>
<!-- enemyRadar[Right45ø]&#45;&gt;Shoot -->
<g id="edge23" class="edge"><title>enemyRadar[Right45ø]&#45;&gt;Shoot</title>
<path fill="none" stroke="green" stroke-width="0.119285" d="M1840.47,-202.32C1829.09,-197.897 1814.22,-192.785 1800.5,-190.149 1483.68,-129.271 1396.28,-188.525 1075.5,-154.149 916.764,-137.139 729.589,-101.186 652.008,-85.5737"/>
<polygon fill="green" stroke="green" stroke-width="0.119285" points="652.298,-82.0616 641.803,-83.5098 650.91,-88.9227 652.298,-82.0616"/>
</g>
<!-- enemyRadar[Right45ø]&#45;&gt; Move Left/Right -->
<g id="edge17" class="edge"><title>enemyRadar[Right45ø]&#45;&gt; Move Left/Right</title>
<path fill="none" stroke="green" stroke-width="0.133766" d="M1881.29,-202.286C1934.83,-182.449 2074.32,-130.761 2155.49,-100.683"/>
<polygon fill="green" stroke="green" stroke-width="0.133766" points="2156.93,-103.882 2165.09,-97.1251 2154.5,-97.3179 2156.93,-103.882"/>
</g>
<!-- enemyRadar[Right45ø]&#45;&gt;Turn left/right -->
<g id="edge10" class="edge"><title>enemyRadar[Right45ø]&#45;&gt;Turn left/right</title>
<path fill="none" stroke="red" stroke-width="0.160616" d="M1855.56,-202.087C1848.61,-187.502 1833.68,-156.154 1820.57,-128.627"/>
<polygon fill="red" stroke="red" stroke-width="0.160616" points="1823.67,-126.991 1816.21,-119.468 1817.35,-130.001 1823.67,-126.991"/>
</g>
<!-- enemyRadar[Left45ø] -->
<g id="node12" class="node"><title>enemyRadar[Left45ø]</title>
<polygon fill="lightgray" stroke="black" points="1171,-220.362 1076,-220.362 1076,-202.362 1171,-202.362 1171,-220.362"/>
<text text-anchor="middle" x="1123.5" y="-209.162" font-family="Times,serif" font-size="9.00">enemyRadar[Left45ø]</text>
</g>
<!-- enemyRadar[Left45ø]&#45;&gt;Move Forward/Backward -->
<g id="edge28" class="edge"><title>enemyRadar[Left45ø]&#45;&gt;Move Forward/Backward</title>
<path fill="none" stroke="green" stroke-width="0.229065" d="M1125.88,-202.087C1128.43,-193.198 1132.77,-178.082 1137.56,-161.399"/>
<polygon fill="green" stroke="green" stroke-width="0.229065" points="1141.03,-162.008 1140.43,-151.43 1134.3,-160.075 1141.03,-162.008"/>
</g>
<!-- enemyRadar[RightFront20ø] -->
<g id="node13" class="node"><title>enemyRadar[RightFront20ø]</title>
<polygon fill="lightgray" stroke="black" points="2411,-220.362 2292,-220.362 2292,-202.362 2411,-202.362 2411,-220.362"/>
<text text-anchor="middle" x="2351.5" y="-209.162" font-family="Times,serif" font-size="9.00">enemyRadar[RightFront20ø]</text>
</g>
<!-- enemyRadar[RightFront20ø]&#45;&gt;Move Forward/Backward -->
<g id="edge42" class="edge"><title>enemyRadar[RightFront20ø]&#45;&gt;Move Forward/Backward</title>
<path fill="none" stroke="red" stroke-width="0.254255" d="M2328.8,-202.35C2315.48,-197.995 2298.23,-192.941 2282.5,-190.149 2044.79,-147.962 1980.75,-177.886 1740.5,-154.149 1564.95,-136.804 1360.56,-107.893 1247.63,-91.1518"/>
<polygon fill="red" stroke="red" stroke-width="0.254255" points="1248.06,-87.6779 1237.66,-89.6698 1247.03,-94.6019 1248.06,-87.6779"/>
</g>
<!-- enemyRadar[RightFront20ø]&#45;&gt; Move Left/Right -->
<g id="edge9" class="edge"><title>enemyRadar[RightFront20ø]&#45;&gt; Move Left/Right</title>
<path fill="none" stroke="green" stroke-width="0.178733" d="M2343.06,-202.087C2327.25,-186.6 2292.16,-152.213 2262.93,-123.569"/>
<polygon fill="green" stroke="green" stroke-width="0.178733" points="2265.23,-120.924 2255.64,-116.425 2260.33,-125.924 2265.23,-120.924"/>
</g>
<!-- enemyRadar[LeftFront20ø] -->
<g id="node14" class="node"><title>enemyRadar[LeftFront20ø]</title>
<polygon fill="lightgray" stroke="black" points="365.5,-220.362 251.5,-220.362 251.5,-202.362 365.5,-202.362 365.5,-220.362"/>
<text text-anchor="middle" x="308.5" y="-209.162" font-family="Times,serif" font-size="9.00">enemyRadar[LeftFront20ø]</text>
</g>
<!-- enemyRadar[LeftFront20ø]&#45;&gt;Shoot -->
<g id="edge16" class="edge"><title>enemyRadar[LeftFront20ø]&#45;&gt;Shoot</title>
<path fill="none" stroke="red" stroke-width="0.755946" d="M327.242,-202.286C377.64,-180.57 516.622,-120.682 581.418,-92.761"/>
<polygon fill="red" stroke="red" stroke-width="0.755946" points="582.989,-95.8949 590.788,-88.7233 580.219,-89.4663 582.989,-95.8949"/>
</g>
<!-- enemyRadar[RightFront15ø] -->
<g id="node15" class="node"><title>enemyRadar[RightFront15ø]</title>
<polygon fill="lightgray" stroke="black" points="719,-220.362 600,-220.362 600,-202.362 719,-202.362 719,-220.362"/>
<text text-anchor="middle" x="659.5" y="-209.162" font-family="Times,serif" font-size="9.00">enemyRadar[RightFront15ø]</text>
</g>
<!-- enemyRadar[RightFront15ø]&#45;&gt;Shoot -->
<g id="edge5" class="edge"><title>enemyRadar[RightFront15ø]&#45;&gt;Shoot</title>
<path fill="none" stroke="red" stroke-width="0.107857" d="M656.748,-202.087C650.916,-184.554 637.028,-142.8 626.975,-112.576"/>
<polygon fill="red" stroke="red" stroke-width="0.107857" points="630.208,-111.204 623.73,-102.82 623.566,-113.414 630.208,-111.204"/>
</g>
<!-- enemyRadar[RightFront15ø]&#45;&gt;Move Forward/Backward -->
<g id="edge4" class="edge"><title>enemyRadar[RightFront15ø]&#45;&gt;Move Forward/Backward</title>
<path fill="none" stroke="green" stroke-width="0.300969" d="M686.313,-202.293C699.066,-198.51 714.541,-193.999 728.5,-190.149 849.05,-156.9 989.284,-121.131 1076.73,-99.1709"/>
<polygon fill="green" stroke="green" stroke-width="0.300969" points="1077.75,-102.523 1086.6,-96.6943 1076.05,-95.7331 1077.75,-102.523"/>
</g>
<!-- enemyRadar[LeftFront15ø] -->
<g id="node16" class="node"><title>enemyRadar[LeftFront15ø]</title>
<polygon fill="lightgray" stroke="black" points="2273.5,-220.362 2159.5,-220.362 2159.5,-202.362 2273.5,-202.362 2273.5,-220.362"/>
<text text-anchor="middle" x="2216.5" y="-209.162" font-family="Times,serif" font-size="9.00">enemyRadar[LeftFront15ø]</text>
</g>
<!-- enemyRadar[LeftFront15ø]&#45;&gt;Move Forward/Backward -->
<g id="edge29" class="edge"><title>enemyRadar[LeftFront15ø]&#45;&gt;Move Forward/Backward</title>
<path fill="none" stroke="green" stroke-width="0.323898" d="M2194.49,-202.354C2181.8,-198.057 2165.44,-193.059 2150.5,-190.149 1970.95,-155.174 1922.34,-174.069 1740.5,-154.149 1565.14,-134.939 1360.68,-106.699 1247.69,-90.5777"/>
<polygon fill="green" stroke="green" stroke-width="0.323898" points="1248.1,-87.1019 1237.71,-89.1518 1247.11,-94.0315 1248.1,-87.1019"/>
</g>
<!-- enemyRadar[LeftFront15ø]&#45;&gt; Move Left/Right -->
<g id="edge32" class="edge"><title>enemyRadar[LeftFront15ø]&#45;&gt; Move Left/Right</title>
<path fill="none" stroke="red" stroke-width="0.620595" d="M2216.5,-202.087C2216.5,-189.912 2216.5,-166.055 2216.5,-142.491"/>
<polygon fill="red" stroke="red" stroke-width="0.620595" points="2220,-142.445 2216.5,-132.445 2213,-142.445 2220,-142.445"/>
</g>
<!-- enemyRadar[LeftFront15ø]&#45;&gt;Turn left/right -->
<g id="edge12" class="edge"><title>enemyRadar[LeftFront15ø]&#45;&gt;Turn left/right</title>
<path fill="none" stroke="green" stroke-width="0.169557" d="M2190.86,-202.286C2123.76,-181.151 1941.86,-123.858 1850.45,-95.0688"/>
<polygon fill="green" stroke="green" stroke-width="0.169557" points="1851.42,-91.7044 1840.83,-92.0385 1849.32,-98.3811 1851.42,-91.7044"/>
</g>
<!-- enemyRadar[RightFront7.5ø] -->
<g id="node17" class="node"><title>enemyRadar[RightFront7.5ø]</title>
<polygon fill="lightgray" stroke="black" points="1553.5,-220.362 1431.5,-220.362 1431.5,-202.362 1553.5,-202.362 1553.5,-220.362"/>
<text text-anchor="middle" x="1492.5" y="-209.162" font-family="Times,serif" font-size="9.00">enemyRadar[RightFront7.5ø]</text>
</g>
<!-- enemyRadar[RightFront7.5ø]&#45;&gt;Move Forward/Backward -->
<g id="edge34" class="edge"><title>enemyRadar[RightFront7.5ø]&#45;&gt;Move Forward/Backward</title>
<path fill="none" stroke="green" stroke-width="0.287898" d="M1472.29,-202.286C1427.67,-184.453 1318.64,-140.879 1242.39,-110.404"/>
<polygon fill="green" stroke="green" stroke-width="0.287898" points="1243.38,-107.03 1232.8,-106.569 1240.78,-113.53 1243.38,-107.03"/>
</g>
<!-- enemyRadar[RightFront7.5ø]&#45;&gt;Turn left/right -->
<g id="edge39" class="edge"><title>enemyRadar[RightFront7.5ø]&#45;&gt;Turn left/right</title>
<path fill="none" stroke="red" stroke-width="0.42237" d="M1511.06,-202.286C1556.61,-182.463 1675.26,-130.833 1744.4,-100.745"/>
<polygon fill="red" stroke="red" stroke-width="0.42237" points="1746.04,-103.848 1753.82,-96.6483 1743.25,-97.4292 1746.04,-103.848"/>
</g>
<!-- enemyRadar[LeftFront7.5ø] -->
<g id="node18" class="node"><title>enemyRadar[LeftFront7.5ø]</title>
<polygon fill="lightgray" stroke="black" points="2081.5,-220.362 1965.5,-220.362 1965.5,-202.362 2081.5,-202.362 2081.5,-220.362"/>
<text text-anchor="middle" x="2023.5" y="-209.162" font-family="Times,serif" font-size="9.00">enemyRadar[LeftFront7.5ø]</text>
</g>
<!-- enemyRadar[LeftFront7.5ø]&#45;&gt;Shoot -->
<g id="edge27" class="edge"><title>enemyRadar[LeftFront7.5ø]&#45;&gt;Shoot</title>
<path fill="none" stroke="green" stroke-width="0.184501" stroke-dasharray="1,5" d="M1988.7,-202.326C1968.35,-197.963 1942.1,-192.91 1918.5,-190.149 1546.03,-146.586 1448.51,-192.814 1075.5,-154.149 916.706,-137.689 729.563,-101.439 651.999,-85.6608"/>
<polygon fill="green" stroke="green" stroke-width="0.184501" points="652.294,-82.1488 641.796,-83.5745 650.892,-89.0069 652.294,-82.1488"/>
</g>
<!-- enemyRadar[LeftFront7.5ø]&#45;&gt; Move Left/Right -->
<g id="edge30" class="edge"><title>enemyRadar[LeftFront7.5ø]&#45;&gt; Move Left/Right</title>
<path fill="none" stroke="green" stroke-width="0.313574" d="M2035.28,-202.286C2060.12,-185.264 2119.17,-144.79 2163.15,-114.64"/>
<polygon fill="green" stroke="green" stroke-width="0.313574" points="2165.19,-117.489 2171.46,-108.949 2161.23,-111.716 2165.19,-117.489"/>
</g>
<!-- enemyRadar[RightFront2.5ø] -->
<g id="node19" class="node"><title>enemyRadar[RightFront2.5ø]</title>
<polygon fill="lightgray" stroke="black" points="505.5,-220.362 383.5,-220.362 383.5,-202.362 505.5,-202.362 505.5,-220.362"/>
<text text-anchor="middle" x="444.5" y="-209.162" font-family="Times,serif" font-size="9.00">enemyRadar[RightFront2.5ø]</text>
</g>
<!-- enemyRadar[RightFront2.5ø]&#45;&gt;Shoot -->
<g id="edge20" class="edge"><title>enemyRadar[RightFront2.5ø]&#45;&gt;Shoot</title>
<path fill="none" stroke="green" stroke-width="0.525537" d="M454.939,-202.286C480.557,-182.468 547.266,-130.862 586.163,-100.77"/>
<polygon fill="green" stroke="green" stroke-width="0.525537" points="588.713,-103.222 594.481,-94.3351 584.43,-97.6857 588.713,-103.222"/>
</g>
<!-- enemyRadar[LeftFront2.5ø] -->
<g id="node20" class="node"><title>enemyRadar[LeftFront2.5ø]</title>
<polygon fill="lightgray" stroke="black" points="1791.5,-220.362 1675.5,-220.362 1675.5,-202.362 1791.5,-202.362 1791.5,-220.362"/>
<text text-anchor="middle" x="1733.5" y="-209.162" font-family="Times,serif" font-size="9.00">enemyRadar[LeftFront2.5ø]</text>
</g>
<!-- enemyRadar[LeftFront2.5ø]&#45;&gt;Shoot -->
<g id="edge24" class="edge"><title>enemyRadar[LeftFront2.5ø]&#45;&gt;Shoot</title>
<path fill="none" stroke="red" stroke-width="0.275898" d="M1711.48,-202.309C1698.56,-197.94 1681.81,-192.886 1666.5,-190.149 1407.45,-143.834 1336.99,-183.657 1075.5,-154.149 916.862,-136.248 729.634,-100.777 652.023,-85.4329"/>
<polygon fill="red" stroke="red" stroke-width="0.275898" points="652.304,-81.9204 641.814,-83.4052 650.941,-88.7863 652.304,-81.9204"/>
</g>
<!-- enemyRadar[LeftFront2.5ø]&#45;&gt; Move Left/Right -->
<g id="edge26" class="edge"><title>enemyRadar[LeftFront2.5ø]&#45;&gt; Move Left/Right</title>
<path fill="none" stroke="green" stroke-width="0.310165" d="M1759.54,-202.31C1771.92,-198.531 1786.95,-194.018 1800.5,-190.149 1925.12,-154.571 2071.62,-115.811 2153.29,-94.4756"/>
<polygon fill="green" stroke="green" stroke-width="0.310165" points="2154.38,-97.8104 2163.17,-91.8983 2152.61,-91.0373 2154.38,-97.8104"/>
</g>
<!-- enemyRadar[LeftFront2.5ø]&#45;&gt;Turn left/right -->
<g id="edge33" class="edge"><title>enemyRadar[LeftFront2.5ø]&#45;&gt;Turn left/right</title>
<path fill="none" stroke="green" stroke-width="0.115327" d="M1737.44,-202.087C1744.39,-187.502 1759.32,-156.154 1772.43,-128.627"/>
<polygon fill="green" stroke="green" stroke-width="0.115327" points="1775.65,-130.001 1776.79,-119.468 1769.33,-126.991 1775.65,-130.001"/>
</g>
<!-- enemyRadar[Front7Ø] -->
<g id="node21" class="node"><title>enemyRadar[Front7Ø]</title>
<polygon fill="lightgray" stroke="black" points="1325.5,-220.362 1227.5,-220.362 1227.5,-202.362 1325.5,-202.362 1325.5,-220.362"/>
<text text-anchor="middle" x="1276.5" y="-209.162" font-family="Times,serif" font-size="9.00">enemyRadar[Front7Ø]</text>
</g>
<!-- enemyRadar[Front7Ø]&#45;&gt;Shoot -->
<g id="edge7" class="edge"><title>enemyRadar[Front7Ø]&#45;&gt;Shoot</title>
<path fill="none" stroke="green" stroke-width="0.373487" d="M1238.68,-202.292C1221.01,-198.55 1199.69,-194.073 1180.5,-190.149 980.94,-149.349 741.264,-102.525 651.64,-85.0912"/>
<polygon fill="green" stroke="green" stroke-width="0.373487" points="652.196,-81.6338 641.711,-83.1608 650.86,-88.5051 652.196,-81.6338"/>
</g>
<!-- enemyRadar[Front7Ø]&#45;&gt;Move Forward/Backward -->
<g id="edge38" class="edge"><title>enemyRadar[Front7Ø]&#45;&gt;Move Forward/Backward</title>
<path fill="none" stroke="green" stroke-width="0.398635" d="M1269.31,-202.087C1258.83,-190.042 1238.42,-166.563 1218.15,-143.245"/>
<polygon fill="green" stroke="green" stroke-width="0.398635" points="1220.79,-140.946 1211.59,-135.695 1215.51,-145.538 1220.79,-140.946"/>
</g>
<!-- enemyRadar[Front7Ø]&#45;&gt;Turn left/right -->
<g id="edge21" class="edge"><title>enemyRadar[Front7Ø]&#45;&gt;Turn left/right</title>
<path fill="none" stroke="red" stroke-width="0.404308" d="M1298.1,-202.274C1308.94,-198.357 1322.33,-193.737 1334.5,-190.149 1479.57,-147.385 1653.67,-108.419 1740.91,-89.724"/>
<polygon fill="red" stroke="red" stroke-width="0.404308" points="1741.81,-93.1111 1750.86,-87.5998 1740.35,-86.2654 1741.81,-93.1111"/>
</g>
<!-- OnTarget -->
<g id="node22" class="node"><title>OnTarget</title>
<polygon fill="lightgray" stroke="black" points="2479.5,-220.362 2429.5,-220.362 2429.5,-202.362 2479.5,-202.362 2479.5,-220.362"/>
<text text-anchor="middle" x="2454.5" y="-209.162" font-family="Times,serif" font-size="9.00">OnTarget</text>
</g>
<!-- OnTarget&#45;&gt; Move Left/Right -->
<g id="edge36" class="edge"><title>OnTarget&#45;&gt; Move Left/Right</title>
<path fill="none" stroke="green" stroke-width="0.283268" d="M2441,-202.191C2434.78,-198.468 2427.3,-194.035 2420.5,-190.149 2371.42,-162.086 2315.05,-131.22 2274.02,-108.998"/>
<polygon fill="green" stroke="green" stroke-width="0.283268" points="2275.44,-105.789 2264.98,-104.109 2272.11,-111.946 2275.44,-105.789"/>
</g>
<!-- OnTarget&#45;&gt;Turn left/right -->
<g id="edge22" class="edge"><title>OnTarget&#45;&gt;Turn left/right</title>
<path fill="none" stroke="red" stroke-width="0.559403" d="M2443.42,-202.219C2437.04,-197.935 2428.67,-192.994 2420.5,-190.149 2307,-150.643 2270.91,-174.722 2152.5,-154.149 2045.37,-135.537 1921.45,-107.584 1851.69,-91.2499"/>
<polygon fill="red" stroke="red" stroke-width="0.559403" points="1852.34,-87.806 1841.8,-88.9268 1850.74,-94.6206 1852.34,-87.806"/>
</g>
<!-- bias -->
<g id="node23" class="node"><title>bias</title>
<polygon fill="lightgray" stroke="black" points="1953,-286.576 1922,-286.576 1922,-268.576 1953,-268.576 1953,-286.576"/>
<text text-anchor="middle" x="1937.5" y="-275.376" font-family="Times,serif" font-size="9.00">bias</text>
</g>
<!-- bias&#45;&gt;Shoot -->
<g id="edge19" class="edge"><title>bias&#45;&gt;Shoot</title>
<path fill="none" stroke="green" stroke-width="0.692011" d="M1921.74,-276.365C1772.6,-274.331 614.858,-257.742 590.5,-232.576 559.063,-200.095 579.041,-144.584 596.887,-109.691"/>
<polygon fill="green" stroke="green" stroke-width="0.692011" points="600.207,-110.904 601.82,-100.433 594.029,-107.613 600.207,-110.904"/>
</g>
<!-- bias&#45;&gt;Turn left/right -->
<g id="edge8" class="edge"><title>bias&#45;&gt;Turn left/right</title>
<path fill="none" stroke="green" stroke-width="0.203417" d="M1937.31,-268.369C1936.61,-252.295 1933.36,-215.983 1918.5,-190.149 1900.06,-158.094 1869.36,-129.965 1843.38,-109.906"/>
<polygon fill="green" stroke="green" stroke-width="0.203417" points="1845.22,-106.91 1835.13,-103.682 1841,-112.498 1845.22,-106.91"/>
</g>
<!-- 118 -->
<g id="node30" class="node"><title>118</title>
<ellipse fill="white" stroke="black" cx="2120.5" cy="-211.362" rx="21.4286" ry="21.4286"/>
<text text-anchor="middle" x="2120.5" y="-209.162" font-family="Times,serif" font-size="9.00">118</text>
</g>
<!-- bias&#45;&gt;118 -->
<g id="edge45" class="edge"><title>bias&#45;&gt;118</title>
<path fill="none" stroke="green" stroke-width="0.272024" d="M1953.28,-273.737C1981.68,-268.26 2042.91,-254.776 2090.5,-232.576 2092.07,-231.846 2093.64,-231.039 2095.21,-230.181"/>
<polygon fill="green" stroke="green" stroke-width="0.272024" points="2097.19,-233.067 2103.91,-224.876 2093.55,-227.089 2097.19,-233.067"/>
</g>
<!-- 257&#45;&gt;Move Forward/Backward -->
<g id="edge48" class="edge"><title>257&#45;&gt;Move Forward/Backward</title>
<path fill="none" stroke="red" stroke-width="0.571551" stroke-dasharray="1,5" d="M901.597,-198.56C906.043,-195.673 910.883,-192.687 915.5,-190.149 969.302,-160.572 1032.36,-131.957 1081.16,-111.044"/>
<polygon fill="red" stroke="red" stroke-width="0.571551" points="1082.58,-114.241 1090.41,-107.099 1079.84,-107.802 1082.58,-114.241"/>
</g>
<!-- 274&#45;&gt;Move Forward/Backward -->
<g id="edge50" class="edge"><title>274&#45;&gt;Move Forward/Backward</title>
<path fill="none" stroke="green" stroke-width="0.420959" d="M1050.6,-195.445C1063.28,-182.024 1082.81,-161.355 1101.97,-141.079"/>
<polygon fill="green" stroke="green" stroke-width="0.420959" points="1104.67,-143.314 1108.99,-133.641 1099.58,-138.506 1104.67,-143.314"/>
</g>
<!-- 118&#45;&gt;Turn left/right -->
<g id="edge46" class="edge"><title>118&#45;&gt;Turn left/right</title>
<path fill="none" stroke="red" stroke-width="0.311974" d="M2103.78,-198.118C2099.56,-195.304 2094.96,-192.463 2090.5,-190.149 2010.24,-148.51 1910.85,-113.86 1850.62,-94.5705"/>
<polygon fill="red" stroke="red" stroke-width="0.311974" points="1851.53,-91.1863 1840.94,-91.4932 1849.41,-97.8576 1851.53,-91.1863"/>
</g>
</g>
</svg>
