<?xml version="1.0" encoding="UTF-8" standalone="no"?>
<!DOCTYPE svg PUBLIC "-//W3C//DTD SVG 1.1//EN"
 "http://www.w3.org/Graphics/SVG/1.1/DTD/svg11.dtd">
<!-- Generated by graphviz version 2.38.0 (20140413.2041)
 -->
<!-- Title: %3 Pages: 1 -->
<svg width="2557pt" height="216pt"
 viewBox="0.00 0.00 2557.00 216.15" xmlns="http://www.w3.org/2000/svg" xmlns:xlink="http://www.w3.org/1999/xlink">
<g id="graph0" class="graph" transform="scale(1 1) rotate(0) translate(4 212.149)">
<title>%3</title>
<polygon fill="white" stroke="none" points="-4,4 -4,-212.149 2553,-212.149 2553,4 -4,4"/>
<!-- wallRadar[1,0] -->
<g id="node1" class="node"><title>wallRadar[1,0]</title>
<polygon fill="lightgray" stroke="black" points="648,-208.149 578,-208.149 578,-190.149 648,-190.149 648,-208.149"/>
<text text-anchor="middle" x="613" y="-196.949" font-family="Times,serif" font-size="9.00">wallRadar[1,0]</text>
</g>
<!-- Shoot -->
<g id="node24" class="node"><title>Shoot</title>
<ellipse fill="lightblue" stroke="black" cx="1451" cy="-77.0746" rx="26.7407" ry="26.7407"/>
<text text-anchor="middle" x="1451" y="-74.8746" font-family="Times,serif" font-size="9.00">Shoot</text>
</g>
<!-- wallRadar[1,0]&#45;&gt;Shoot -->
<g id="edge12" class="edge"><title>wallRadar[1,0]&#45;&gt;Shoot</title>
<path fill="none" stroke="red" stroke-width="0.106369" d="M648.012,-191.436C651.046,-190.96 654.073,-190.522 657,-190.149 873.617,-162.579 931.399,-188.782 1147,-154.149 1245.61,-138.309 1359.12,-106.068 1415.45,-89.0928"/>
<polygon fill="red" stroke="red" stroke-width="0.106369" points="1416.73,-92.361 1425.29,-86.1082 1414.7,-85.6625 1416.73,-92.361"/>
</g>
<!--  Move Left/Right -->
<g id="node26" class="node"><title> Move Left/Right</title>
<ellipse fill="lightblue" stroke="black" cx="1083" cy="-77.0746" rx="55.3091" ry="55.3091"/>
<text text-anchor="middle" x="1083" y="-74.8746" font-family="Times,serif" font-size="9.00"> Move Left/Right</text>
</g>
<!-- wallRadar[1,0]&#45;&gt; Move Left/Right -->
<g id="edge30" class="edge"><title>wallRadar[1,0]&#45;&gt; Move Left/Right</title>
<path fill="none" stroke="red" stroke-width="0.295093" d="M644.568,-190.084C721.155,-170.518 918,-120.229 1019.85,-94.2086"/>
<polygon fill="red" stroke="red" stroke-width="0.295093" points="1020.88,-97.5584 1029.7,-91.692 1019.14,-90.7762 1020.88,-97.5584"/>
</g>
<!-- Turn left/right -->
<g id="node27" class="node"><title>Turn left/right</title>
<ellipse fill="lightblue" stroke="black" cx="574" cy="-77.0746" rx="46.8387" ry="46.8387"/>
<text text-anchor="middle" x="574" y="-74.8746" font-family="Times,serif" font-size="9.00">Turn left/right</text>
</g>
<!-- wallRadar[1,0]&#45;&gt;Turn left/right -->
<g id="edge10" class="edge"><title>wallRadar[1,0]&#45;&gt;Turn left/right</title>
<path fill="none" stroke="red" stroke-width="0.239998" d="M610.319,-189.896C606.359,-177.703 598.622,-153.881 591.303,-131.346"/>
<polygon fill="red" stroke="red" stroke-width="0.239998" points="594.622,-130.235 588.204,-121.805 587.964,-132.397 594.622,-130.235"/>
</g>
<!-- wallRadar[0,1] -->
<g id="node2" class="node"><title>wallRadar[0,1]</title>
<polygon fill="lightgray" stroke="black" points="2024,-208.149 1954,-208.149 1954,-190.149 2024,-190.149 2024,-208.149"/>
<text text-anchor="middle" x="1989" y="-196.949" font-family="Times,serif" font-size="9.00">wallRadar[0,1]</text>
</g>
<!-- wallRadar[0,1]&#45;&gt;Shoot -->
<g id="edge16" class="edge"><title>wallRadar[0,1]&#45;&gt;Shoot</title>
<path fill="none" stroke="red" stroke-width="0.320208" d="M1953.7,-190.271C1856.49,-168.574 1585.57,-108.109 1487.24,-86.1636"/>
<polygon fill="red" stroke="red" stroke-width="0.320208" points="1487.72,-82.6843 1477.2,-83.9219 1486.2,-89.5162 1487.72,-82.6843"/>
</g>
<!-- Move Forward/Backward -->
<g id="node25" class="node"><title>Move Forward/Backward</title>
<ellipse fill="lightblue" stroke="black" cx="2038" cy="-77.0746" rx="77.1494" ry="77.1494"/>
<text text-anchor="middle" x="2038" y="-74.8746" font-family="Times,serif" font-size="9.00">Move Forward/Backward</text>
</g>
<!-- wallRadar[0,1]&#45;&gt;Move Forward/Backward -->
<g id="edge33" class="edge"><title>wallRadar[0,1]&#45;&gt;Move Forward/Backward</title>
<path fill="none" stroke="red" stroke-width="0.313416" d="M1992.37,-189.896C1995.34,-182.605 2000.02,-171.157 2005.26,-158.312"/>
<polygon fill="red" stroke="red" stroke-width="0.313416" points="2008.62,-159.332 2009.16,-148.751 2002.14,-156.688 2008.62,-159.332"/>
</g>
<!-- wallRadar[0,1]&#45;&gt; Move Left/Right -->
<g id="edge17" class="edge"><title>wallRadar[0,1]&#45;&gt; Move Left/Right</title>
<path fill="none" stroke="green" stroke-width="0.312241" d="M1953.99,-191.419C1950.96,-190.946 1947.93,-190.514 1945,-190.149 1710.71,-160.986 1648.57,-188.623 1415,-154.149 1320.13,-140.147 1212.22,-113.355 1145.87,-95.5979"/>
<polygon fill="green" stroke="green" stroke-width="0.312241" points="1146.55,-92.1573 1135.99,-92.9375 1144.73,-98.9167 1146.55,-92.1573"/>
</g>
<!-- wallRadar[&#45;1,0] -->
<g id="node3" class="node"><title>wallRadar[&#45;1,0]</title>
<polygon fill="lightgray" stroke="black" points="2222.5,-208.149 2149.5,-208.149 2149.5,-190.149 2222.5,-190.149 2222.5,-208.149"/>
<text text-anchor="middle" x="2186" y="-196.949" font-family="Times,serif" font-size="9.00">wallRadar[&#45;1,0]</text>
</g>
<!-- wallRadar[&#45;1,0]&#45;&gt;Shoot -->
<g id="edge26" class="edge"><title>wallRadar[&#45;1,0]&#45;&gt;Shoot</title>
<path fill="none" stroke="green" stroke-width="0.198571" d="M2149.17,-191.556C2146.41,-191.075 2143.66,-190.602 2141,-190.149 1891.44,-147.701 1590.48,-100.021 1487.56,-83.8157"/>
<polygon fill="green" stroke="green" stroke-width="0.198571" points="1488.09,-80.356 1477.66,-82.2589 1487,-87.2709 1488.09,-80.356"/>
</g>
<!-- wallRadar[&#45;1,0]&#45;&gt;Move Forward/Backward -->
<g id="edge39" class="edge"><title>wallRadar[&#45;1,0]&#45;&gt;Move Forward/Backward</title>
<path fill="none" stroke="red" stroke-width="0.398241" d="M2175.83,-189.896C2161.15,-177.985 2132.79,-154.975 2105.59,-132.91"/>
<polygon fill="red" stroke="red" stroke-width="0.398241" points="2107.55,-129.997 2097.58,-126.415 2103.14,-135.433 2107.55,-129.997"/>
</g>
<!-- wallRadar[0,&#45;1] -->
<g id="node4" class="node"><title>wallRadar[0,&#45;1]</title>
<polygon fill="lightgray" stroke="black" points="1003.5,-208.149 930.5,-208.149 930.5,-190.149 1003.5,-190.149 1003.5,-208.149"/>
<text text-anchor="middle" x="967" y="-196.949" font-family="Times,serif" font-size="9.00">wallRadar[0,&#45;1]</text>
</g>
<!-- wallRadar[0,&#45;1]&#45;&gt;Move Forward/Backward -->
<g id="edge15" class="edge"><title>wallRadar[0,&#45;1]&#45;&gt;Move Forward/Backward</title>
<path fill="none" stroke="green" stroke-width="0.112064" d="M1003.61,-191.455C1006.78,-190.974 1009.94,-190.53 1013,-190.149 1222.65,-164.019 1276.92,-176.608 1487,-154.149 1652.04,-136.505 1843.85,-108.259 1952.09,-91.6023"/>
<polygon fill="green" stroke="green" stroke-width="0.112064" points="1952.62,-95.0606 1961.97,-90.0769 1951.56,-88.1425 1952.62,-95.0606"/>
</g>
<!-- wallRadar[0,&#45;1]&#45;&gt; Move Left/Right -->
<g id="edge25" class="edge"><title>wallRadar[0,&#45;1]&#45;&gt; Move Left/Right</title>
<path fill="none" stroke="green" stroke-width="0.162956" d="M974.973,-189.896C987.915,-176.499 1014.42,-149.064 1037.94,-124.722"/>
<polygon fill="green" stroke="green" stroke-width="0.162956" points="1040.69,-126.91 1045.12,-117.286 1035.65,-122.047 1040.69,-126.91"/>
</g>
<!-- wallRadar[0,&#45;1]&#45;&gt;Turn left/right -->
<g id="edge4" class="edge"><title>wallRadar[0,&#45;1]&#45;&gt;Turn left/right</title>
<path fill="none" stroke="green" stroke-width="0.239866" d="M940.604,-190.084C876.952,-170.636 713.958,-120.836 628.361,-94.6838"/>
<polygon fill="green" stroke="green" stroke-width="0.239866" points="629.155,-91.2668 618.569,-91.692 627.11,-97.9613 629.155,-91.2668"/>
</g>
<!-- wallRadar[0.7,0.7] -->
<g id="node5" class="node"><title>wallRadar[0.7,0.7]</title>
<polygon fill="lightgray" stroke="black" points="1385.5,-208.149 1302.5,-208.149 1302.5,-190.149 1385.5,-190.149 1385.5,-208.149"/>
<text text-anchor="middle" x="1344" y="-196.949" font-family="Times,serif" font-size="9.00">wallRadar[0.7,0.7]</text>
</g>
<!-- wallRadar[0.7,0.7]&#45;&gt;Move Forward/Backward -->
<g id="edge2" class="edge"><title>wallRadar[0.7,0.7]&#45;&gt;Move Forward/Backward</title>
<path fill="none" stroke="red" stroke-width="0.284002" d="M1385.59,-190.953C1496.58,-171.75 1801.51,-118.992 1951.87,-92.9771"/>
<polygon fill="red" stroke="red" stroke-width="0.284002" points="1952.73,-96.3806 1961.98,-91.2269 1951.53,-89.4831 1952.73,-96.3806"/>
</g>
<!-- wallRadar[0.7,0.7]&#45;&gt;Turn left/right -->
<g id="edge38" class="edge"><title>wallRadar[0.7,0.7]&#45;&gt;Turn left/right</title>
<path fill="none" stroke="red" stroke-width="0.222166" d="M1302.26,-191.516C1299.13,-191.044 1296.02,-190.584 1293,-190.149 1171.43,-172.631 1140.45,-172.501 1019,-154.149 878.623,-132.937 714.109,-103.656 629.895,-88.3447"/>
<polygon fill="red" stroke="red" stroke-width="0.222166" points="630.495,-84.8965 620.03,-86.5482 629.241,-91.7832 630.495,-84.8965"/>
</g>
<!-- wallRadar[&#45;0.7,0.7] -->
<g id="node6" class="node"><title>wallRadar[&#45;0.7,0.7]</title>
<polygon fill="lightgray" stroke="black" points="2327,-208.149 2241,-208.149 2241,-190.149 2327,-190.149 2327,-208.149"/>
<text text-anchor="middle" x="2284" y="-196.949" font-family="Times,serif" font-size="9.00">wallRadar[&#45;0.7,0.7]</text>
</g>
<!-- wallRadar[&#45;0.7,0.7]&#45;&gt;Shoot -->
<g id="edge46" class="edge"><title>wallRadar[&#45;0.7,0.7]&#45;&gt;Shoot</title>
<path fill="none" stroke="red" stroke-width="0.215444" d="M2240.88,-191.432C2237.88,-190.989 2234.89,-190.558 2232,-190.149 2107.76,-172.609 2076.25,-171.568 1952,-154.149 1777.8,-129.728 1570.09,-97.0467 1487.48,-83.9063"/>
<polygon fill="red" stroke="red" stroke-width="0.215444" points="1488.01,-80.4461 1477.58,-82.3297 1486.91,-87.359 1488.01,-80.4461"/>
</g>
<!-- wallRadar[&#45;0.7,0.7]&#45;&gt;Move Forward/Backward -->
<g id="edge20" class="edge"><title>wallRadar[&#45;0.7,0.7]&#45;&gt;Move Forward/Backward</title>
<path fill="none" stroke="green" stroke-width="0.211052" d="M2267.48,-190.084C2236.98,-175.197 2170.04,-142.524 2116.29,-116.288"/>
<polygon fill="green" stroke="green" stroke-width="0.211052" points="2117.62,-113.045 2107.1,-111.804 2114.55,-119.336 2117.62,-113.045"/>
</g>
<!-- wallRadar[&#45;0.7,&#45;0.7] -->
<g id="node7" class="node"><title>wallRadar[&#45;0.7,&#45;0.7]</title>
<polygon fill="lightgray" stroke="black" points="2131.5,-208.149 2042.5,-208.149 2042.5,-190.149 2131.5,-190.149 2131.5,-208.149"/>
<text text-anchor="middle" x="2087" y="-196.949" font-family="Times,serif" font-size="9.00">wallRadar[&#45;0.7,&#45;0.7]</text>
</g>
<!-- wallRadar[&#45;0.7,&#45;0.7]&#45;&gt;Move Forward/Backward -->
<g id="edge8" class="edge"><title>wallRadar[&#45;0.7,&#45;0.7]&#45;&gt;Move Forward/Backward</title>
<path fill="none" stroke="red" stroke-width="0.229459" d="M2083.63,-189.896C2080.66,-182.605 2075.98,-171.157 2070.74,-158.312"/>
<polygon fill="red" stroke="red" stroke-width="0.229459" points="2073.86,-156.688 2066.84,-148.751 2067.38,-159.332 2073.86,-156.688"/>
</g>
<!-- wallRadar[&#45;0.7,&#45;0.7]&#45;&gt; Move Left/Right -->
<g id="edge5" class="edge"><title>wallRadar[&#45;0.7,&#45;0.7]&#45;&gt; Move Left/Right</title>
<path fill="none" stroke="green" stroke-width="0.292976" d="M2042.25,-191.207C2039.12,-190.818 2036.02,-190.46 2033,-190.149 1759.32,-161.961 1687.37,-193.01 1415,-154.149 1320.06,-140.604 1212.17,-113.691 1145.84,-95.7821"/>
<polygon fill="green" stroke="green" stroke-width="0.292976" points="1146.53,-92.3423 1135.96,-93.0984 1144.69,-99.0975 1146.53,-92.3423"/>
</g>
<!-- wallRadar[0.7,&#45;0.7] -->
<g id="node8" class="node"><title>wallRadar[0.7,&#45;0.7]</title>
<polygon fill="lightgray" stroke="black" points="2549,-208.149 2463,-208.149 2463,-190.149 2549,-190.149 2549,-208.149"/>
<text text-anchor="middle" x="2506" y="-196.949" font-family="Times,serif" font-size="9.00">wallRadar[0.7,&#45;0.7]</text>
</g>
<!-- enemyRadar[RightBack] -->
<g id="node9" class="node"><title>enemyRadar[RightBack]</title>
<polygon fill="lightgray" stroke="black" points="220,-208.149 116,-208.149 116,-190.149 220,-190.149 220,-208.149"/>
<text text-anchor="middle" x="168" y="-196.949" font-family="Times,serif" font-size="9.00">enemyRadar[RightBack]</text>
</g>
<!-- enemyRadar[RightBack]&#45;&gt; Move Left/Right -->
<g id="edge6" class="edge"><title>enemyRadar[RightBack]&#45;&gt; Move Left/Right</title>
<path fill="none" stroke="green" stroke-width="0.362934" d="M220.226,-191.157C223.193,-190.805 226.134,-190.466 229,-190.149 406.858,-170.511 452.524,-176.984 630,-154.149 769.231,-136.235 931.174,-106.988 1018.76,-90.4631"/>
<polygon fill="green" stroke="green" stroke-width="0.362934" points="1019.64,-93.86 1028.81,-88.5616 1018.33,-86.9821 1019.64,-93.86"/>
</g>
<!-- enemyRadar[RightBack]&#45;&gt;Turn left/right -->
<g id="edge14" class="edge"><title>enemyRadar[RightBack]&#45;&gt;Turn left/right</title>
<path fill="none" stroke="green" stroke-width="0.275458" d="M195.269,-190.084C261.436,-170.515 431.512,-120.215 519.482,-94.1984"/>
<polygon fill="green" stroke="green" stroke-width="0.275458" points="520.679,-97.4942 529.276,-91.3017 518.694,-90.7816 520.679,-97.4942"/>
</g>
<!-- enemyRadar[LeftBack] -->
<g id="node10" class="node"><title>enemyRadar[LeftBack]</title>
<polygon fill="lightgray" stroke="black" points="1752.5,-208.149 1653.5,-208.149 1653.5,-190.149 1752.5,-190.149 1752.5,-208.149"/>
<text text-anchor="middle" x="1703" y="-196.949" font-family="Times,serif" font-size="9.00">enemyRadar[LeftBack]</text>
</g>
<!-- enemyRadar[LeftBack]&#45;&gt;Shoot -->
<g id="edge29" class="edge"><title>enemyRadar[LeftBack]&#45;&gt;Shoot</title>
<path fill="none" stroke="green" stroke-width="0.173035" d="M1686.07,-190.084C1644.85,-170.441 1538.64,-119.833 1484.22,-93.9031"/>
<polygon fill="green" stroke="green" stroke-width="0.173035" points="1485.54,-90.6534 1475,-89.5114 1482.52,-96.9727 1485.54,-90.6534"/>
</g>
<!-- enemyRadar[LeftBack]&#45;&gt;Move Forward/Backward -->
<g id="edge41" class="edge"><title>enemyRadar[LeftBack]&#45;&gt;Move Forward/Backward</title>
<path fill="none" stroke="green" stroke-width="0.337827" d="M1725.5,-190.084C1771.86,-173.469 1880.02,-134.7 1956.05,-107.45"/>
<polygon fill="green" stroke="green" stroke-width="0.337827" points="1957.38,-110.688 1965.62,-104.019 1955.02,-104.098 1957.38,-110.688"/>
</g>
<!-- enemyRadar[LeftBack]&#45;&gt; Move Left/Right -->
<g id="edge21" class="edge"><title>enemyRadar[LeftBack]&#45;&gt; Move Left/Right</title>
<path fill="none" stroke="green" stroke-width="0.300843" d="M1653.45,-191.03C1583.59,-180.914 1459.65,-162.664 1415,-154.149 1320.94,-136.212 1213.03,-110.527 1146.43,-94.0742"/>
<polygon fill="green" stroke="green" stroke-width="0.300843" points="1147.06,-90.6235 1136.51,-91.6155 1145.37,-97.418 1147.06,-90.6235"/>
</g>
<!-- enemyRadar[Right45ø] -->
<g id="node11" class="node"><title>enemyRadar[Right45ø]</title>
<polygon fill="lightgray" stroke="black" points="2445,-208.149 2345,-208.149 2345,-190.149 2445,-190.149 2445,-208.149"/>
<text text-anchor="middle" x="2395" y="-196.949" font-family="Times,serif" font-size="9.00">enemyRadar[Right45ø]</text>
</g>
<!-- enemyRadar[Right45ø]&#45;&gt;Move Forward/Backward -->
<g id="edge45" class="edge"><title>enemyRadar[Right45ø]&#45;&gt;Move Forward/Backward</title>
<path fill="none" stroke="red" stroke-width="0.379352" d="M2371.02,-190.084C2320.7,-173.157 2202.01,-133.237 2120.81,-105.928"/>
<polygon fill="red" stroke="red" stroke-width="0.379352" points="2121.7,-102.533 2111.1,-102.663 2119.47,-109.168 2121.7,-102.533"/>
</g>
<!-- enemyRadar[Left45ø] -->
<g id="node12" class="node"><title>enemyRadar[Left45ø]</title>
<polygon fill="lightgray" stroke="black" points="1498.5,-208.149 1403.5,-208.149 1403.5,-190.149 1498.5,-190.149 1498.5,-208.149"/>
<text text-anchor="middle" x="1451" y="-196.949" font-family="Times,serif" font-size="9.00">enemyRadar[Left45ø]</text>
</g>
<!-- enemyRadar[Left45ø]&#45;&gt;Shoot -->
<g id="edge34" class="edge"><title>enemyRadar[Left45ø]&#45;&gt;Shoot</title>
<path fill="none" stroke="green" stroke-width="0.204913" d="M1451,-189.896C1451,-174.554 1451,-140.799 1451,-114.366"/>
<polygon fill="green" stroke="green" stroke-width="0.204913" points="1454.5,-114.286 1451,-104.286 1447.5,-114.286 1454.5,-114.286"/>
</g>
<!-- enemyRadar[Left45ø]&#45;&gt; Move Left/Right -->
<g id="edge43" class="edge"><title>enemyRadar[Left45ø]&#45;&gt; Move Left/Right</title>
<path fill="none" stroke="green" stroke-width="0.303625" d="M1426.28,-190.084C1369.37,-171.515 1227.66,-125.275 1145.2,-98.3687"/>
<polygon fill="green" stroke="green" stroke-width="0.303625" points="1146.04,-94.9611 1135.44,-95.1865 1143.86,-101.616 1146.04,-94.9611"/>
</g>
<!-- enemyRadar[RightFront20ø] -->
<g id="node13" class="node"><title>enemyRadar[RightFront20ø]</title>
<polygon fill="lightgray" stroke="black" points="357.5,-208.149 238.5,-208.149 238.5,-190.149 357.5,-190.149 357.5,-208.149"/>
<text text-anchor="middle" x="298" y="-196.949" font-family="Times,serif" font-size="9.00">enemyRadar[RightFront20ø]</text>
</g>
<!-- enemyRadar[RightFront20ø]&#45;&gt; Move Left/Right -->
<g id="edge3" class="edge"><title>enemyRadar[RightFront20ø]&#45;&gt; Move Left/Right</title>
<path fill="none" stroke="red" stroke-width="0.332777" d="M357.762,-190.861C424.298,-182.6 534.985,-168.419 630,-154.149 768.822,-133.3 930.918,-105.154 1018.64,-89.6038"/>
<polygon fill="red" stroke="red" stroke-width="0.332777" points="1019.47,-93.0112 1028.71,-87.8172 1018.25,-86.119 1019.47,-93.0112"/>
</g>
<!-- enemyRadar[RightFront20ø]&#45;&gt;Turn left/right -->
<g id="edge24" class="edge"><title>enemyRadar[RightFront20ø]&#45;&gt;Turn left/right</title>
<path fill="none" stroke="red" stroke-width="0.147991" d="M316.538,-190.084C358.039,-172.029 459.674,-127.812 522.119,-100.646"/>
<polygon fill="red" stroke="red" stroke-width="0.147991" points="523.639,-103.801 531.413,-96.6024 520.847,-97.3824 523.639,-103.801"/>
</g>
<!-- enemyRadar[LeftFront20ø] -->
<g id="node14" class="node"><title>enemyRadar[LeftFront20ø]</title>
<polygon fill="lightgray" stroke="black" points="780,-208.149 666,-208.149 666,-190.149 780,-190.149 780,-208.149"/>
<text text-anchor="middle" x="723" y="-196.949" font-family="Times,serif" font-size="9.00">enemyRadar[LeftFront20ø]</text>
</g>
<!-- enemyRadar[LeftFront20ø]&#45;&gt;Shoot -->
<g id="edge28" class="edge"><title>enemyRadar[LeftFront20ø]&#45;&gt;Shoot</title>
<path fill="none" stroke="green" stroke-width="0.422914" d="M780.229,-191.14C783.195,-190.799 786.132,-190.467 789,-190.149 947.94,-172.527 989.466,-181.632 1147,-154.149 1245.39,-136.985 1358.99,-105.319 1415.4,-88.7749"/>
<polygon fill="green" stroke="green" stroke-width="0.422914" points="1416.65,-92.0556 1425.25,-85.8687 1414.66,-85.3417 1416.65,-92.0556"/>
</g>
<!-- enemyRadar[LeftFront20ø]&#45;&gt;Turn left/right -->
<g id="edge22" class="edge"><title>enemyRadar[LeftFront20ø]&#45;&gt;Turn left/right</title>
<path fill="none" stroke="green" stroke-width="0.134429" d="M712.759,-189.896C693.545,-174.412 651.06,-140.175 618.128,-113.636"/>
<polygon fill="green" stroke="green" stroke-width="0.134429" points="619.964,-110.62 609.981,-107.071 615.571,-116.071 619.964,-110.62"/>
</g>
<!-- enemyRadar[RightFront15ø] -->
<g id="node15" class="node"><title>enemyRadar[RightFront15ø]</title>
<polygon fill="lightgray" stroke="black" points="1635.5,-208.149 1516.5,-208.149 1516.5,-190.149 1635.5,-190.149 1635.5,-208.149"/>
<text text-anchor="middle" x="1576" y="-196.949" font-family="Times,serif" font-size="9.00">enemyRadar[RightFront15ø]</text>
</g>
<!-- enemyRadar[RightFront15ø]&#45;&gt;Shoot -->
<g id="edge13" class="edge"><title>enemyRadar[RightFront15ø]&#45;&gt;Shoot</title>
<path fill="none" stroke="red" stroke-width="0.627114" d="M1567.41,-189.896C1549.16,-172.364 1505.88,-130.789 1477.54,-103.57"/>
<polygon fill="red" stroke="red" stroke-width="0.627114" points="1479.61,-100.709 1469.98,-96.3053 1474.77,-105.757 1479.61,-100.709"/>
</g>
<!-- enemyRadar[RightFront15ø]&#45;&gt; Move Left/Right -->
<g id="edge9" class="edge"><title>enemyRadar[RightFront15ø]&#45;&gt; Move Left/Right</title>
<path fill="none" stroke="red" stroke-width="0.399742" d="M1542.89,-190.084C1461.84,-170.345 1252.42,-119.339 1146.44,-93.5258"/>
<polygon fill="red" stroke="red" stroke-width="0.399742" points="1147.06,-90.0742 1136.51,-91.1083 1145.4,-96.8754 1147.06,-90.0742"/>
</g>
<!-- enemyRadar[LeftFront15ø] -->
<g id="node16" class="node"><title>enemyRadar[LeftFront15ø]</title>
<polygon fill="lightgray" stroke="black" points="912,-208.149 798,-208.149 798,-190.149 912,-190.149 912,-208.149"/>
<text text-anchor="middle" x="855" y="-196.949" font-family="Times,serif" font-size="9.00">enemyRadar[LeftFront15ø]</text>
</g>
<!-- enemyRadar[LeftFront15ø]&#45;&gt;Shoot -->
<g id="edge1" class="edge"><title>enemyRadar[LeftFront15ø]&#45;&gt;Shoot</title>
<path fill="none" stroke="green" stroke-width="0.234245" d="M912.077,-191.191C971.143,-183.607 1065.94,-170.361 1147,-154.149 1244.93,-134.563 1358.73,-103.948 1415.29,-88.1934"/>
<polygon fill="green" stroke="green" stroke-width="0.234245" points="1416.48,-91.4951 1425.16,-85.4305 1414.59,-84.7539 1416.48,-91.4951"/>
</g>
<!-- enemyRadar[LeftFront15ø]&#45;&gt;Turn left/right -->
<g id="edge42" class="edge"><title>enemyRadar[LeftFront15ø]&#45;&gt;Turn left/right</title>
<path fill="none" stroke="red" stroke-width="0.269523" d="M836.126,-190.084C793.697,-171.954 689.536,-127.445 626.03,-100.308"/>
<polygon fill="red" stroke="red" stroke-width="0.269523" points="627.156,-96.9829 616.585,-96.2719 624.406,-103.42 627.156,-96.9829"/>
</g>
<!-- enemyRadar[RightFront7.5ø] -->
<g id="node17" class="node"><title>enemyRadar[RightFront7.5ø]</title>
<polygon fill="lightgray" stroke="black" points="1144,-208.149 1022,-208.149 1022,-190.149 1144,-190.149 1144,-208.149"/>
<text text-anchor="middle" x="1083" y="-196.949" font-family="Times,serif" font-size="9.00">enemyRadar[RightFront7.5ø]</text>
</g>
<!-- enemyRadar[RightFront7.5ø]&#45;&gt;Shoot -->
<g id="edge40" class="edge"><title>enemyRadar[RightFront7.5ø]&#45;&gt;Shoot</title>
<path fill="none" stroke="green" stroke-width="0.161549" d="M1107.72,-190.084C1171.44,-169.293 1341.47,-113.812 1415.61,-89.6209"/>
<polygon fill="green" stroke="green" stroke-width="0.161549" points="1417,-92.8514 1425.42,-86.422 1414.82,-86.1966 1417,-92.8514"/>
</g>
<!-- enemyRadar[RightFront7.5ø]&#45;&gt; Move Left/Right -->
<g id="edge32" class="edge"><title>enemyRadar[RightFront7.5ø]&#45;&gt; Move Left/Right</title>
<path fill="none" stroke="green" stroke-width="0.123505" d="M1083,-189.896C1083,-179.701 1083,-161.375 1083,-142.47"/>
<polygon fill="green" stroke="green" stroke-width="0.123505" points="1086.5,-142.265 1083,-132.265 1079.5,-142.265 1086.5,-142.265"/>
</g>
<!-- enemyRadar[LeftFront7.5ø] -->
<g id="node18" class="node"><title>enemyRadar[LeftFront7.5ø]</title>
<polygon fill="lightgray" stroke="black" points="1936,-208.149 1820,-208.149 1820,-190.149 1936,-190.149 1936,-208.149"/>
<text text-anchor="middle" x="1878" y="-196.949" font-family="Times,serif" font-size="9.00">enemyRadar[LeftFront7.5ø]</text>
</g>
<!-- enemyRadar[LeftFront7.5ø]&#45;&gt;Shoot -->
<g id="edge18" class="edge"><title>enemyRadar[LeftFront7.5ø]&#45;&gt;Shoot</title>
<path fill="none" stroke="red" stroke-width="0.129862" d="M1849.32,-190.084C1773.75,-168.834 1569.3,-111.342 1486.52,-88.0631"/>
<polygon fill="red" stroke="red" stroke-width="0.129862" points="1487.39,-84.6718 1476.82,-85.334 1485.49,-91.4104 1487.39,-84.6718"/>
</g>
<!-- enemyRadar[RightFront2.5ø] -->
<g id="node19" class="node"><title>enemyRadar[RightFront2.5ø]</title>
<polygon fill="lightgray" stroke="black" points="1284,-208.149 1162,-208.149 1162,-190.149 1284,-190.149 1284,-208.149"/>
<text text-anchor="middle" x="1223" y="-196.949" font-family="Times,serif" font-size="9.00">enemyRadar[RightFront2.5ø]</text>
</g>
<!-- enemyRadar[RightFront2.5ø]&#45;&gt;Shoot -->
<g id="edge27" class="edge"><title>enemyRadar[RightFront2.5ø]&#45;&gt;Shoot</title>
<path fill="none" stroke="green" stroke-width="0.344463" d="M1238.31,-190.084C1274.99,-170.769 1368.51,-121.516 1418.44,-95.2238"/>
<polygon fill="green" stroke="green" stroke-width="0.344463" points="1420.3,-98.1971 1427.52,-90.4405 1417.04,-92.0035 1420.3,-98.1971"/>
</g>
<!-- enemyRadar[RightFront2.5ø]&#45;&gt; Move Left/Right -->
<g id="edge35" class="edge"><title>enemyRadar[RightFront2.5ø]&#45;&gt; Move Left/Right</title>
<path fill="none" stroke="green" stroke-width="0.132082" d="M1213.38,-189.896C1196.82,-175.694 1161.86,-145.714 1132.31,-120.369"/>
<polygon fill="green" stroke="green" stroke-width="0.132082" points="1134.41,-117.553 1124.54,-113.7 1129.85,-122.867 1134.41,-117.553"/>
</g>
<!-- enemyRadar[LeftFront2.5ø] -->
<g id="node20" class="node"><title>enemyRadar[LeftFront2.5ø]</title>
<polygon fill="lightgray" stroke="black" points="492,-208.149 376,-208.149 376,-190.149 492,-190.149 492,-208.149"/>
<text text-anchor="middle" x="434" y="-196.949" font-family="Times,serif" font-size="9.00">enemyRadar[LeftFront2.5ø]</text>
</g>
<!-- enemyRadar[LeftFront2.5ø]&#45;&gt;Shoot -->
<g id="edge31" class="edge"><title>enemyRadar[LeftFront2.5ø]&#45;&gt;Shoot</title>
<path fill="none" stroke="green" stroke-width="0.278494" d="M492.081,-190.987C495.096,-190.686 498.082,-190.404 501,-190.149 787.463,-165.09 862.691,-197.246 1147,-154.149 1245.75,-139.181 1359.19,-106.561 1415.48,-89.3021"/>
<polygon fill="green" stroke="green" stroke-width="0.278494" points="1416.79,-92.5616 1425.31,-86.266 1414.72,-85.8734 1416.79,-92.5616"/>
</g>
<!-- enemyRadar[LeftFront2.5ø]&#45;&gt; Move Left/Right -->
<g id="edge23" class="edge"><title>enemyRadar[LeftFront2.5ø]&#45;&gt; Move Left/Right</title>
<path fill="none" stroke="red" stroke-width="0.442715" d="M477.338,-190.131C589.026,-169.467 887.122,-114.315 1018.87,-89.94"/>
<polygon fill="red" stroke="red" stroke-width="0.442715" points="1019.62,-93.3597 1028.82,-88.0988 1018.35,-86.4765 1019.62,-93.3597"/>
</g>
<!-- enemyRadar[LeftFront2.5ø]&#45;&gt;Turn left/right -->
<g id="edge11" class="edge"><title>enemyRadar[LeftFront2.5ø]&#45;&gt;Turn left/right</title>
<path fill="none" stroke="green" stroke-width="0.172584" d="M443.623,-189.896C461.448,-174.607 500.591,-141.036 531.362,-114.644"/>
<polygon fill="green" stroke="green" stroke-width="0.172584" points="533.675,-117.272 538.987,-108.105 529.118,-111.958 533.675,-117.272"/>
</g>
<!-- enemyRadar[Front7Ø] -->
<g id="node21" class="node"><title>enemyRadar[Front7Ø]</title>
<polygon fill="lightgray" stroke="black" points="98,-208.149 7.10543e-15,-208.149 7.10543e-15,-190.149 98,-190.149 98,-208.149"/>
<text text-anchor="middle" x="49" y="-196.949" font-family="Times,serif" font-size="9.00">enemyRadar[Front7Ø]</text>
</g>
<!-- enemyRadar[Front7Ø]&#45;&gt;Turn left/right -->
<g id="edge19" class="edge"><title>enemyRadar[Front7Ø]&#45;&gt;Turn left/right</title>
<path fill="none" stroke="red" stroke-width="0.347027" d="M84.2619,-190.084C173.796,-169.607 410.462,-115.478 518.637,-90.7369"/>
<polygon fill="red" stroke="red" stroke-width="0.347027" points="519.728,-94.0779 528.695,-88.4364 518.167,-87.2541 519.728,-94.0779"/>
</g>
<!-- OnTarget -->
<g id="node22" class="node"><title>OnTarget</title>
<polygon fill="lightgray" stroke="black" points="560,-208.149 510,-208.149 510,-190.149 560,-190.149 560,-208.149"/>
<text text-anchor="middle" x="535" y="-196.949" font-family="Times,serif" font-size="9.00">OnTarget</text>
</g>
<!-- OnTarget&#45;&gt;Shoot -->
<g id="edge7" class="edge"><title>OnTarget&#45;&gt;Shoot</title>
<path fill="none" stroke="green" stroke-width="0.264288" d="M560.16,-191.73C563.126,-191.122 566.121,-190.575 569,-190.149 823.624,-152.539 892.648,-193.556 1147,-154.149 1245.7,-138.858 1359.17,-106.379 1415.47,-89.2247"/>
<polygon fill="green" stroke="green" stroke-width="0.264288" points="1416.77,-92.4874 1425.3,-86.2076 1414.72,-85.7954 1416.77,-92.4874"/>
</g>
<!-- OnTarget&#45;&gt; Move Left/Right -->
<g id="edge37" class="edge"><title>OnTarget&#45;&gt; Move Left/Right</title>
<path fill="none" stroke="green" stroke-width="0.380813" d="M560.24,-192.162C563.192,-191.476 566.161,-190.793 569,-190.149 730.735,-153.492 921.619,-112.453 1018.94,-91.6898"/>
<polygon fill="green" stroke="green" stroke-width="0.380813" points="1019.86,-95.0713 1028.91,-89.5626 1018.4,-88.2252 1019.86,-95.0713"/>
</g>
<!-- OnTarget&#45;&gt;Turn left/right -->
<g id="edge36" class="edge"><title>OnTarget&#45;&gt;Turn left/right</title>
<path fill="none" stroke="red" stroke-width="0.168635" d="M537.681,-189.896C541.641,-177.703 549.378,-153.881 556.697,-131.346"/>
<polygon fill="red" stroke="red" stroke-width="0.168635" points="560.036,-132.397 559.796,-121.805 553.378,-130.235 560.036,-132.397"/>
</g>
<!-- bias -->
<g id="node23" class="node"><title>bias</title>
<polygon fill="lightgray" stroke="black" points="1801.5,-208.149 1770.5,-208.149 1770.5,-190.149 1801.5,-190.149 1801.5,-208.149"/>
<text text-anchor="middle" x="1786" y="-196.949" font-family="Times,serif" font-size="9.00">bias</text>
</g>
<!-- bias&#45;&gt;Shoot -->
<g id="edge44" class="edge"><title>bias&#45;&gt;Shoot</title>
<path fill="none" stroke="green" stroke-width="0.141922" d="M1770.29,-192.519C1719.27,-174.23 1557.35,-116.195 1485.7,-90.5106"/>
<polygon fill="green" stroke="green" stroke-width="0.141922" points="1486.8,-87.188 1476.2,-87.1086 1484.44,-93.7775 1486.8,-87.188"/>
</g>
</g>
</svg>
