<?xml version="1.0" encoding="UTF-8" standalone="no"?>
<!DOCTYPE svg PUBLIC "-//W3C//DTD SVG 1.1//EN"
 "http://www.w3.org/Graphics/SVG/1.1/DTD/svg11.dtd">
<!-- Generated by graphviz version 2.38.0 (20140413.2041)
 -->
<!-- Title: %3 Pages: 1 -->
<svg width="2559pt" height="216pt"
 viewBox="0.00 0.00 2559.00 216.15" xmlns="http://www.w3.org/2000/svg" xmlns:xlink="http://www.w3.org/1999/xlink">
<g id="graph0" class="graph" transform="scale(1 1) rotate(0) translate(4 212.149)">
<title>%3</title>
<polygon fill="white" stroke="none" points="-4,4 -4,-212.149 2555,-212.149 2555,4 -4,4"/>
<!-- wallRadar[1,0] -->
<g id="node1" class="node"><title>wallRadar[1,0]</title>
<polygon fill="lightgray" stroke="black" points="2105.5,-208.149 2035.5,-208.149 2035.5,-190.149 2105.5,-190.149 2105.5,-208.149"/>
<text text-anchor="middle" x="2070.5" y="-196.949" font-family="Times,serif" font-size="9.00">wallRadar[1,0]</text>
</g>
<!-- Shoot -->
<g id="node24" class="node"><title>Shoot</title>
<ellipse fill="lightblue" stroke="black" cx="1313.5" cy="-77.0746" rx="26.7407" ry="26.7407"/>
<text text-anchor="middle" x="1313.5" y="-74.8746" font-family="Times,serif" font-size="9.00">Shoot</text>
</g>
<!-- wallRadar[1,0]&#45;&gt;Shoot -->
<g id="edge27" class="edge"><title>wallRadar[1,0]&#45;&gt;Shoot</title>
<path fill="none" stroke="green" stroke-width="0.326012" d="M2035.49,-191.407C2032.46,-190.937 2029.43,-190.508 2026.5,-190.149 1778.95,-159.791 1707.34,-218.943 1466.5,-154.149 1421.59,-142.067 1374.3,-116.25 1344.39,-98.054"/>
<polygon fill="green" stroke="green" stroke-width="0.326012" points="1346.04,-94.9559 1335.69,-92.6751 1342.36,-100.91 1346.04,-94.9559"/>
</g>
<!--  Move Left/Right -->
<g id="node26" class="node"><title> Move Left/Right</title>
<ellipse fill="lightblue" stroke="black" cx="1755.5" cy="-77.0746" rx="55.3091" ry="55.3091"/>
<text text-anchor="middle" x="1755.5" y="-74.8746" font-family="Times,serif" font-size="9.00"> Move Left/Right</text>
</g>
<!-- wallRadar[1,0]&#45;&gt; Move Left/Right -->
<g id="edge37" class="edge"><title>wallRadar[1,0]&#45;&gt; Move Left/Right</title>
<path fill="none" stroke="green" stroke-width="0.205314" d="M2049.34,-190.084C2002.38,-172.181 1887.93,-128.554 1816.52,-101.335"/>
<polygon fill="green" stroke="green" stroke-width="0.205314" points="1817.33,-97.8985 1806.74,-97.607 1814.84,-104.439 1817.33,-97.8985"/>
</g>
<!-- wallRadar[0,1] -->
<g id="node2" class="node"><title>wallRadar[0,1]</title>
<polygon fill="lightgray" stroke="black" points="897.5,-208.149 827.5,-208.149 827.5,-190.149 897.5,-190.149 897.5,-208.149"/>
<text text-anchor="middle" x="862.5" y="-196.949" font-family="Times,serif" font-size="9.00">wallRadar[0,1]</text>
</g>
<!-- wallRadar[0,1]&#45;&gt;Shoot -->
<g id="edge12" class="edge"><title>wallRadar[0,1]&#45;&gt;Shoot</title>
<path fill="none" stroke="green" stroke-width="0.207151" d="M892.792,-190.084C973.166,-168.686 1191.56,-110.54 1277.79,-87.5819"/>
<polygon fill="green" stroke="green" stroke-width="0.207151" points="1278.87,-90.9165 1287.63,-84.9615 1277.07,-84.1521 1278.87,-90.9165"/>
</g>
<!-- Turn left/right -->
<g id="node27" class="node"><title>Turn left/right</title>
<ellipse fill="lightblue" stroke="black" cx="862.5" cy="-77.0746" rx="46.8387" ry="46.8387"/>
<text text-anchor="middle" x="862.5" y="-74.8746" font-family="Times,serif" font-size="9.00">Turn left/right</text>
</g>
<!-- wallRadar[0,1]&#45;&gt;Turn left/right -->
<g id="edge6" class="edge"><title>wallRadar[0,1]&#45;&gt;Turn left/right</title>
<path fill="none" stroke="red" stroke-width="0.36732" d="M862.5,-189.896C862.5,-178.186 862.5,-155.752 862.5,-134.032"/>
<polygon fill="red" stroke="red" stroke-width="0.36732" points="866,-133.812 862.5,-123.812 859,-133.812 866,-133.812"/>
</g>
<!-- wallRadar[&#45;1,0] -->
<g id="node3" class="node"><title>wallRadar[&#45;1,0]</title>
<polygon fill="lightgray" stroke="black" points="2337,-208.149 2264,-208.149 2264,-190.149 2337,-190.149 2337,-208.149"/>
<text text-anchor="middle" x="2300.5" y="-196.949" font-family="Times,serif" font-size="9.00">wallRadar[&#45;1,0]</text>
</g>
<!-- wallRadar[&#45;1,0]&#45;&gt; Move Left/Right -->
<g id="edge17" class="edge"><title>wallRadar[&#45;1,0]&#45;&gt; Move Left/Right</title>
<path fill="none" stroke="red" stroke-width="0.158349" d="M2263.89,-190.084C2172.73,-169.999 1934.63,-117.541 1819.58,-92.1917"/>
<polygon fill="red" stroke="red" stroke-width="0.158349" points="1820.02,-88.7059 1809.5,-89.9723 1818.51,-95.542 1820.02,-88.7059"/>
</g>
<!-- wallRadar[0,&#45;1] -->
<g id="node4" class="node"><title>wallRadar[0,&#45;1]</title>
<polygon fill="lightgray" stroke="black" points="73,-208.149 0,-208.149 0,-190.149 73,-190.149 73,-208.149"/>
<text text-anchor="middle" x="36.5" y="-196.949" font-family="Times,serif" font-size="9.00">wallRadar[0,&#45;1]</text>
</g>
<!-- wallRadar[0,&#45;1]&#45;&gt;Turn left/right -->
<g id="edge3" class="edge"><title>wallRadar[0,&#45;1]&#45;&gt;Turn left/right</title>
<path fill="none" stroke="red" stroke-width="0.131447" d="M73.1421,-191.676C76.3053,-191.148 79.4578,-190.632 82.5,-190.149 353.169,-147.177 677.853,-102.831 806.276,-85.5741"/>
<polygon fill="red" stroke="red" stroke-width="0.131447" points="806.827,-89.0316 816.273,-84.2323 805.896,-82.0938 806.827,-89.0316"/>
</g>
<!-- wallRadar[0.7,0.7] -->
<g id="node5" class="node"><title>wallRadar[0.7,0.7]</title>
<polygon fill="lightgray" stroke="black" points="2551,-208.149 2468,-208.149 2468,-190.149 2551,-190.149 2551,-208.149"/>
<text text-anchor="middle" x="2509.5" y="-196.949" font-family="Times,serif" font-size="9.00">wallRadar[0.7,0.7]</text>
</g>
<!-- wallRadar[&#45;0.7,0.7] -->
<g id="node6" class="node"><title>wallRadar[&#45;0.7,0.7]</title>
<polygon fill="lightgray" stroke="black" points="177.5,-208.149 91.5,-208.149 91.5,-190.149 177.5,-190.149 177.5,-208.149"/>
<text text-anchor="middle" x="134.5" y="-196.949" font-family="Times,serif" font-size="9.00">wallRadar[&#45;0.7,0.7]</text>
</g>
<!-- wallRadar[&#45;0.7,0.7]&#45;&gt;Turn left/right -->
<g id="edge8" class="edge"><title>wallRadar[&#45;0.7,0.7]&#45;&gt;Turn left/right</title>
<path fill="none" stroke="red" stroke-width="0.47392" d="M177.59,-191.042C302.746,-170.399 666.236,-110.446 806.433,-87.3222"/>
<polygon fill="red" stroke="red" stroke-width="0.47392" points="807.234,-90.7374 816.531,-85.6566 806.095,-83.8307 807.234,-90.7374"/>
</g>
<!-- wallRadar[&#45;0.7,&#45;0.7] -->
<g id="node7" class="node"><title>wallRadar[&#45;0.7,&#45;0.7]</title>
<polygon fill="lightgray" stroke="black" points="1827,-208.149 1738,-208.149 1738,-190.149 1827,-190.149 1827,-208.149"/>
<text text-anchor="middle" x="1782.5" y="-196.949" font-family="Times,serif" font-size="9.00">wallRadar[&#45;0.7,&#45;0.7]</text>
</g>
<!-- wallRadar[&#45;0.7,&#45;0.7]&#45;&gt;Shoot -->
<g id="edge10" class="edge"><title>wallRadar[&#45;0.7,&#45;0.7]&#45;&gt;Shoot</title>
<path fill="none" stroke="red" stroke-width="0.488998" d="M1737.72,-191.478C1734.6,-191.024 1731.5,-190.578 1728.5,-190.149 1612.14,-173.536 1578.82,-188.77 1466.5,-154.149 1422.05,-140.45 1374.66,-114.997 1344.6,-97.3255"/>
<polygon fill="red" stroke="red" stroke-width="0.488998" points="1346.24,-94.2241 1335.85,-92.1126 1342.65,-100.238 1346.24,-94.2241"/>
</g>
<!-- Move Forward/Backward -->
<g id="node25" class="node"><title>Move Forward/Backward</title>
<ellipse fill="lightblue" stroke="black" cx="1552.5" cy="-77.0746" rx="77.1494" ry="77.1494"/>
<text text-anchor="middle" x="1552.5" y="-74.8746" font-family="Times,serif" font-size="9.00">Move Forward/Backward</text>
</g>
<!-- wallRadar[&#45;0.7,&#45;0.7]&#45;&gt;Move Forward/Backward -->
<g id="edge24" class="edge"><title>wallRadar[&#45;0.7,&#45;0.7]&#45;&gt;Move Forward/Backward</title>
<path fill="none" stroke="green" stroke-width="0.295868" d="M1765.27,-190.133C1746.87,-181.503 1716.93,-167.246 1691.5,-154.149 1670.94,-143.562 1648.9,-131.725 1628.56,-120.6"/>
<polygon fill="green" stroke="green" stroke-width="0.295868" points="1630.1,-117.456 1619.65,-115.715 1626.74,-123.593 1630.1,-117.456"/>
</g>
<!-- wallRadar[&#45;0.7,&#45;0.7]&#45;&gt; Move Left/Right -->
<g id="edge18" class="edge"><title>wallRadar[&#45;0.7,&#45;0.7]&#45;&gt; Move Left/Right</title>
<path fill="none" stroke="green" stroke-width="0.116254" d="M1780.64,-189.896C1778.29,-179.426 1774.01,-160.38 1769.64,-140.938"/>
<polygon fill="green" stroke="green" stroke-width="0.116254" points="1773.03,-140.078 1767.42,-131.089 1766.2,-141.614 1773.03,-140.078"/>
</g>
<!-- wallRadar[0.7,&#45;0.7] -->
<g id="node8" class="node"><title>wallRadar[0.7,&#45;0.7]</title>
<polygon fill="lightgray" stroke="black" points="281.5,-208.149 195.5,-208.149 195.5,-190.149 281.5,-190.149 281.5,-208.149"/>
<text text-anchor="middle" x="238.5" y="-196.949" font-family="Times,serif" font-size="9.00">wallRadar[0.7,&#45;0.7]</text>
</g>
<!-- wallRadar[0.7,&#45;0.7]&#45;&gt;Turn left/right -->
<g id="edge25" class="edge"><title>wallRadar[0.7,&#45;0.7]&#45;&gt;Turn left/right</title>
<path fill="none" stroke="red" stroke-width="0.278001" d="M280.411,-190.084C389.65,-169.064 683.16,-112.584 806.595,-88.8323"/>
<polygon fill="red" stroke="red" stroke-width="0.278001" points="807.436,-92.2348 816.594,-86.9082 806.113,-85.3609 807.436,-92.2348"/>
</g>
<!-- enemyRadar[RightBack] -->
<g id="node9" class="node"><title>enemyRadar[RightBack]</title>
<polygon fill="lightgray" stroke="black" points="2017.5,-208.149 1913.5,-208.149 1913.5,-190.149 2017.5,-190.149 2017.5,-208.149"/>
<text text-anchor="middle" x="1965.5" y="-196.949" font-family="Times,serif" font-size="9.00">enemyRadar[RightBack]</text>
</g>
<!-- enemyRadar[RightBack]&#45;&gt;Move Forward/Backward -->
<g id="edge33" class="edge"><title>enemyRadar[RightBack]&#45;&gt;Move Forward/Backward</title>
<path fill="none" stroke="red" stroke-width="0.255196" d="M1913.43,-190.764C1839.85,-180.179 1712.07,-161.194 1691.5,-154.149 1669.4,-146.578 1646.66,-135.657 1626.14,-124.443"/>
<polygon fill="red" stroke="red" stroke-width="0.255196" points="1627.63,-121.264 1617.19,-119.455 1624.22,-127.379 1627.63,-121.264"/>
</g>
<!-- enemyRadar[LeftBack] -->
<g id="node10" class="node"><title>enemyRadar[LeftBack]</title>
<polygon fill="lightgray" stroke="black" points="399,-208.149 300,-208.149 300,-190.149 399,-190.149 399,-208.149"/>
<text text-anchor="middle" x="349.5" y="-196.949" font-family="Times,serif" font-size="9.00">enemyRadar[LeftBack]</text>
</g>
<!-- enemyRadar[LeftBack]&#45;&gt;Turn left/right -->
<g id="edge20" class="edge"><title>enemyRadar[LeftBack]&#45;&gt;Turn left/right</title>
<path fill="none" stroke="green" stroke-width="0.149385" d="M383.956,-190.084C471.117,-169.683 700.976,-115.882 807.214,-91.015"/>
<polygon fill="green" stroke="green" stroke-width="0.149385" points="808.161,-94.388 817.1,-88.701 806.566,-87.5722 808.161,-94.388"/>
</g>
<!-- enemyRadar[Right45ø] -->
<g id="node11" class="node"><title>enemyRadar[Right45ø]</title>
<polygon fill="lightgray" stroke="black" points="1447.5,-208.149 1347.5,-208.149 1347.5,-190.149 1447.5,-190.149 1447.5,-208.149"/>
<text text-anchor="middle" x="1397.5" y="-196.949" font-family="Times,serif" font-size="9.00">enemyRadar[Right45ø]</text>
</g>
<!-- enemyRadar[Right45ø]&#45;&gt;Shoot -->
<g id="edge19" class="edge"><title>enemyRadar[Right45ø]&#45;&gt;Shoot</title>
<path fill="none" stroke="red" stroke-width="0.284732" d="M1391.73,-189.896C1380.09,-173.258 1353.3,-134.967 1334.32,-107.841"/>
<polygon fill="red" stroke="red" stroke-width="0.284732" points="1337.07,-105.656 1328.47,-99.468 1331.33,-109.668 1337.07,-105.656"/>
</g>
<!-- enemyRadar[Right45ø]&#45;&gt;Move Forward/Backward -->
<g id="edge26" class="edge"><title>enemyRadar[Right45ø]&#45;&gt;Move Forward/Backward</title>
<path fill="none" stroke="red" stroke-width="0.299852" d="M1408.15,-189.896C1423.91,-177.691 1454.7,-153.835 1483.82,-131.282"/>
<polygon fill="red" stroke="red" stroke-width="0.299852" points="1486.21,-133.857 1491.97,-124.966 1481.92,-128.323 1486.21,-133.857"/>
</g>
<!-- enemyRadar[Right45ø]&#45;&gt; Move Left/Right -->
<g id="edge9" class="edge"><title>enemyRadar[Right45ø]&#45;&gt; Move Left/Right</title>
<path fill="none" stroke="red" stroke-width="0.141305" d="M1447.6,-191.375C1507.69,-182.839 1604.56,-167.648 1638.5,-154.149 1661.35,-145.062 1684.47,-131.225 1704.05,-117.831"/>
<polygon fill="red" stroke="red" stroke-width="0.141305" points="1706.31,-120.526 1712.5,-111.931 1702.3,-114.786 1706.31,-120.526"/>
</g>
<!-- enemyRadar[Right45ø]&#45;&gt;Turn left/right -->
<g id="edge14" class="edge"><title>enemyRadar[Right45ø]&#45;&gt;Turn left/right</title>
<path fill="none" stroke="red" stroke-width="0.457091" d="M1361.57,-190.084C1270.01,-169.535 1027.46,-115.099 917.765,-90.4783"/>
<polygon fill="red" stroke="red" stroke-width="0.457091" points="918.412,-87.0365 907.888,-88.2616 916.879,-93.8666 918.412,-87.0365"/>
</g>
<!-- enemyRadar[Left45ø] -->
<g id="node12" class="node"><title>enemyRadar[Left45ø]</title>
<polygon fill="lightgray" stroke="black" points="2450,-208.149 2355,-208.149 2355,-190.149 2450,-190.149 2450,-208.149"/>
<text text-anchor="middle" x="2402.5" y="-196.949" font-family="Times,serif" font-size="9.00">enemyRadar[Left45ø]</text>
</g>
<!-- enemyRadar[Left45ø]&#45;&gt; Move Left/Right -->
<g id="edge5" class="edge"><title>enemyRadar[Left45ø]&#45;&gt; Move Left/Right</title>
<path fill="none" stroke="green" stroke-width="0.100845" d="M2359.3,-190.131C2248.09,-169.493 1951.51,-114.451 1819.92,-90.0307"/>
<polygon fill="green" stroke="green" stroke-width="0.100845" points="1820.45,-86.5691 1809.98,-88.1855 1819.17,-93.4515 1820.45,-86.5691"/>
</g>
<!-- enemyRadar[RightFront20ø] -->
<g id="node13" class="node"><title>enemyRadar[RightFront20ø]</title>
<polygon fill="lightgray" stroke="black" points="1585,-208.149 1466,-208.149 1466,-190.149 1585,-190.149 1585,-208.149"/>
<text text-anchor="middle" x="1525.5" y="-196.949" font-family="Times,serif" font-size="9.00">enemyRadar[RightFront20ø]</text>
</g>
<!-- enemyRadar[RightFront20ø]&#45;&gt;Move Forward/Backward -->
<g id="edge41" class="edge"><title>enemyRadar[RightFront20ø]&#45;&gt;Move Forward/Backward</title>
<path fill="none" stroke="green" stroke-width="0.21107" d="M1527.36,-189.896C1528.81,-183.421 1531.01,-173.667 1533.5,-162.568"/>
<polygon fill="green" stroke="green" stroke-width="0.21107" points="1536.98,-163.04 1535.76,-152.516 1530.15,-161.505 1536.98,-163.04"/>
</g>
<!-- enemyRadar[RightFront20ø]&#45;&gt; Move Left/Right -->
<g id="edge2" class="edge"><title>enemyRadar[RightFront20ø]&#45;&gt; Move Left/Right</title>
<path fill="none" stroke="red" stroke-width="0.120486" d="M1550.38,-190.114C1573.71,-182.198 1609.28,-169.138 1638.5,-154.149 1660.19,-143.024 1682.9,-128.893 1702.48,-115.838"/>
<polygon fill="red" stroke="red" stroke-width="0.120486" points="1704.62,-118.617 1710.96,-110.125 1700.71,-112.813 1704.62,-118.617"/>
</g>
<!-- enemyRadar[RightFront20ø]&#45;&gt;Turn left/right -->
<g id="edge43" class="edge"><title>enemyRadar[RightFront20ø]&#45;&gt;Turn left/right</title>
<path fill="none" stroke="red" stroke-width="0.161916" d="M1479.78,-190.118C1430.01,-181.356 1348.08,-166.879 1277.5,-154.149 1149.01,-130.974 998.256,-103.19 918.534,-88.4513"/>
<polygon fill="red" stroke="red" stroke-width="0.161916" points="918.704,-84.9234 908.234,-86.5465 917.431,-91.8067 918.704,-84.9234"/>
</g>
<!-- enemyRadar[LeftFront20ø] -->
<g id="node14" class="node"><title>enemyRadar[LeftFront20ø]</title>
<polygon fill="lightgray" stroke="black" points="531.5,-208.149 417.5,-208.149 417.5,-190.149 531.5,-190.149 531.5,-208.149"/>
<text text-anchor="middle" x="474.5" y="-196.949" font-family="Times,serif" font-size="9.00">enemyRadar[LeftFront20ø]</text>
</g>
<!-- enemyRadar[LeftFront20ø]&#45;&gt;Turn left/right -->
<g id="edge40" class="edge"><title>enemyRadar[LeftFront20ø]&#45;&gt;Turn left/right</title>
<path fill="none" stroke="red" stroke-width="0.112828" d="M500.56,-190.084C563.321,-170.662 723.905,-120.966 808.5,-94.786"/>
<polygon fill="red" stroke="red" stroke-width="0.112828" points="809.662,-98.0902 818.181,-91.7902 807.593,-91.4031 809.662,-98.0902"/>
</g>
<!-- enemyRadar[RightFront15ø] -->
<g id="node15" class="node"><title>enemyRadar[RightFront15ø]</title>
<polygon fill="lightgray" stroke="black" points="669,-208.149 550,-208.149 550,-190.149 669,-190.149 669,-208.149"/>
<text text-anchor="middle" x="609.5" y="-196.949" font-family="Times,serif" font-size="9.00">enemyRadar[RightFront15ø]</text>
</g>
<!-- enemyRadar[RightFront15ø]&#45;&gt;Turn left/right -->
<g id="edge35" class="edge"><title>enemyRadar[RightFront15ø]&#45;&gt;Turn left/right</title>
<path fill="none" stroke="red" stroke-width="0.234968" d="M626.493,-190.084C663.75,-172.402 753.875,-129.628 811.35,-102.351"/>
<polygon fill="red" stroke="red" stroke-width="0.234968" points="813.097,-105.396 820.63,-97.9462 810.095,-99.0719 813.097,-105.396"/>
</g>
<!-- enemyRadar[LeftFront15ø] -->
<g id="node16" class="node"><title>enemyRadar[LeftFront15ø]</title>
<polygon fill="lightgray" stroke="black" points="1163.5,-208.149 1049.5,-208.149 1049.5,-190.149 1163.5,-190.149 1163.5,-208.149"/>
<text text-anchor="middle" x="1106.5" y="-196.949" font-family="Times,serif" font-size="9.00">enemyRadar[LeftFront15ø]</text>
</g>
<!-- enemyRadar[LeftFront15ø]&#45;&gt;Shoot -->
<g id="edge34" class="edge"><title>enemyRadar[LeftFront15ø]&#45;&gt;Shoot</title>
<path fill="none" stroke="green" stroke-width="0.190131" d="M1120.4,-190.084C1153.14,-171.096 1235.76,-123.172 1281.61,-96.5756"/>
<polygon fill="green" stroke="green" stroke-width="0.190131" points="1283.64,-99.4441 1290.53,-91.3989 1280.12,-93.389 1283.64,-99.4441"/>
</g>
<!-- enemyRadar[LeftFront15ø]&#45;&gt; Move Left/Right -->
<g id="edge38" class="edge"><title>enemyRadar[LeftFront15ø]&#45;&gt; Move Left/Right</title>
<path fill="none" stroke="green" stroke-width="0.569327" d="M1163.72,-191.059C1166.69,-190.74 1169.63,-190.434 1172.5,-190.149 1379.21,-169.646 1441.77,-220.835 1638.5,-154.149 1661.99,-146.187 1685.41,-132.426 1705.05,-118.779"/>
<polygon fill="green" stroke="green" stroke-width="0.569327" points="1707.11,-121.607 1713.22,-112.954 1703.05,-115.906 1707.11,-121.607"/>
</g>
<!-- enemyRadar[LeftFront15ø]&#45;&gt;Turn left/right -->
<g id="edge21" class="edge"><title>enemyRadar[LeftFront15ø]&#45;&gt;Turn left/right</title>
<path fill="none" stroke="red" stroke-width="0.104722" d="M1090.11,-190.084C1054.56,-172.588 969.079,-130.523 913.586,-103.215"/>
<polygon fill="red" stroke="red" stroke-width="0.104722" points="914.79,-99.906 904.272,-98.6309 911.699,-106.187 914.79,-99.906"/>
</g>
<!-- enemyRadar[RightFront7.5ø] -->
<g id="node17" class="node"><title>enemyRadar[RightFront7.5ø]</title>
<polygon fill="lightgray" stroke="black" points="2245.5,-208.149 2123.5,-208.149 2123.5,-190.149 2245.5,-190.149 2245.5,-208.149"/>
<text text-anchor="middle" x="2184.5" y="-196.949" font-family="Times,serif" font-size="9.00">enemyRadar[RightFront7.5ø]</text>
</g>
<!-- enemyRadar[RightFront7.5ø]&#45;&gt;Move Forward/Backward -->
<g id="edge30" class="edge"><title>enemyRadar[RightFront7.5ø]&#45;&gt;Move Forward/Backward</title>
<path fill="none" stroke="red" stroke-width="0.108115" d="M2123.43,-191.064C2120.41,-190.747 2117.42,-190.44 2114.5,-190.149 1926.75,-171.435 1872.15,-208.615 1691.5,-154.149 1669.02,-147.37 1646.07,-136.653 1625.47,-125.378"/>
<polygon fill="red" stroke="red" stroke-width="0.108115" points="1626.92,-122.18 1616.49,-120.346 1623.5,-128.287 1626.92,-122.18"/>
</g>
<!-- enemyRadar[RightFront7.5ø]&#45;&gt; Move Left/Right -->
<g id="edge44" class="edge"><title>enemyRadar[RightFront7.5ø]&#45;&gt; Move Left/Right</title>
<path fill="none" stroke="green" stroke-width="0.460094" d="M2155.69,-190.084C2087.01,-170.862 1912.39,-121.988 1818.13,-95.604"/>
<polygon fill="green" stroke="green" stroke-width="0.460094" points="1819,-92.2146 1808.43,-92.8896 1817.12,-98.9555 1819,-92.2146"/>
</g>
<!-- enemyRadar[LeftFront7.5ø] -->
<g id="node18" class="node"><title>enemyRadar[LeftFront7.5ø]</title>
<polygon fill="lightgray" stroke="black" points="1031.5,-208.149 915.5,-208.149 915.5,-190.149 1031.5,-190.149 1031.5,-208.149"/>
<text text-anchor="middle" x="973.5" y="-196.949" font-family="Times,serif" font-size="9.00">enemyRadar[LeftFront7.5ø]</text>
</g>
<!-- enemyRadar[LeftFront7.5ø]&#45;&gt;Move Forward/Backward -->
<g id="edge32" class="edge"><title>enemyRadar[LeftFront7.5ø]&#45;&gt;Move Forward/Backward</title>
<path fill="none" stroke="green" stroke-width="0.103332" d="M1031.6,-191.201C1034.61,-190.845 1037.59,-190.492 1040.5,-190.149 1177.81,-173.953 1215.11,-186.647 1349.5,-154.149 1390.97,-144.12 1435.52,-128.055 1472.29,-113.266"/>
<polygon fill="green" stroke="green" stroke-width="0.103332" points="1474.01,-116.345 1481.96,-109.337 1471.38,-109.861 1474.01,-116.345"/>
</g>
<!-- enemyRadar[LeftFront7.5ø]&#45;&gt;Turn left/right -->
<g id="edge13" class="edge"><title>enemyRadar[LeftFront7.5ø]&#45;&gt;Turn left/right</title>
<path fill="none" stroke="green" stroke-width="0.29322" d="M965.871,-189.896C952.541,-175.477 924.178,-144.795 900.528,-119.212"/>
<polygon fill="green" stroke="green" stroke-width="0.29322" points="903.04,-116.773 893.682,-111.805 897.9,-121.524 903.04,-116.773"/>
</g>
<!-- enemyRadar[RightFront2.5ø] -->
<g id="node19" class="node"><title>enemyRadar[RightFront2.5ø]</title>
<polygon fill="lightgray" stroke="black" points="809.5,-208.149 687.5,-208.149 687.5,-190.149 809.5,-190.149 809.5,-208.149"/>
<text text-anchor="middle" x="748.5" y="-196.949" font-family="Times,serif" font-size="9.00">enemyRadar[RightFront2.5ø]</text>
</g>
<!-- enemyRadar[RightFront2.5ø]&#45;&gt;Shoot -->
<g id="edge28" class="edge"><title>enemyRadar[RightFront2.5ø]&#45;&gt;Shoot</title>
<path fill="none" stroke="green" stroke-width="0.443959" d="M786.449,-190.084C889.92,-168.094 1175.99,-107.299 1277.33,-85.7612"/>
<polygon fill="green" stroke="green" stroke-width="0.443959" points="1278.33,-89.128 1287.38,-83.6256 1276.87,-82.2809 1278.33,-89.128"/>
</g>
<!-- enemyRadar[RightFront2.5ø]&#45;&gt;Turn left/right -->
<g id="edge22" class="edge"><title>enemyRadar[RightFront2.5ø]&#45;&gt;Turn left/right</title>
<path fill="none" stroke="red" stroke-width="0.317331" d="M756.336,-189.896C770.071,-175.429 799.35,-144.59 823.687,-118.955"/>
<polygon fill="red" stroke="red" stroke-width="0.317331" points="826.383,-121.199 830.73,-111.537 821.307,-116.379 826.383,-121.199"/>
</g>
<!-- enemyRadar[LeftFront2.5ø] -->
<g id="node20" class="node"><title>enemyRadar[LeftFront2.5ø]</title>
<polygon fill="lightgray" stroke="black" points="1719.5,-208.149 1603.5,-208.149 1603.5,-190.149 1719.5,-190.149 1719.5,-208.149"/>
<text text-anchor="middle" x="1661.5" y="-196.949" font-family="Times,serif" font-size="9.00">enemyRadar[LeftFront2.5ø]</text>
</g>
<!-- enemyRadar[LeftFront2.5ø]&#45;&gt;Move Forward/Backward -->
<g id="edge4" class="edge"><title>enemyRadar[LeftFront2.5ø]&#45;&gt;Move Forward/Backward</title>
<path fill="none" stroke="green" stroke-width="0.129645" d="M1654.01,-189.896C1644.71,-179.652 1627.96,-161.2 1610.71,-142.2"/>
<polygon fill="green" stroke="green" stroke-width="0.129645" points="1613.14,-139.674 1603.83,-134.622 1607.96,-144.379 1613.14,-139.674"/>
</g>
<!-- enemyRadar[LeftFront2.5ø]&#45;&gt; Move Left/Right -->
<g id="edge7" class="edge"><title>enemyRadar[LeftFront2.5ø]&#45;&gt; Move Left/Right</title>
<path fill="none" stroke="red" stroke-width="0.157787" d="M1667.96,-189.896C1677.83,-177.289 1697.43,-152.248 1715.59,-129.054"/>
<polygon fill="red" stroke="red" stroke-width="0.157787" points="1718.53,-130.982 1721.94,-120.95 1713.01,-126.667 1718.53,-130.982"/>
</g>
<!-- enemyRadar[LeftFront2.5ø]&#45;&gt;Turn left/right -->
<g id="edge15" class="edge"><title>enemyRadar[LeftFront2.5ø]&#45;&gt;Turn left/right</title>
<path fill="none" stroke="green" stroke-width="0.334497" d="M1603.4,-191.191C1600.39,-190.837 1597.41,-190.488 1594.5,-190.149 1453.66,-173.744 1417.76,-174.945 1277.5,-154.149 1148.35,-135.001 997.854,-105.636 918.351,-89.5656"/>
<polygon fill="green" stroke="green" stroke-width="0.334497" points="918.577,-86.0402 908.081,-87.4835 917.186,-92.9006 918.577,-86.0402"/>
</g>
<!-- enemyRadar[Front7Ø] -->
<g id="node21" class="node"><title>enemyRadar[Front7Ø]</title>
<polygon fill="lightgray" stroke="black" points="1279.5,-208.149 1181.5,-208.149 1181.5,-190.149 1279.5,-190.149 1279.5,-208.149"/>
<text text-anchor="middle" x="1230.5" y="-196.949" font-family="Times,serif" font-size="9.00">enemyRadar[Front7Ø]</text>
</g>
<!-- enemyRadar[Front7Ø]&#45;&gt;Shoot -->
<g id="edge1" class="edge"><title>enemyRadar[Front7Ø]&#45;&gt;Shoot</title>
<path fill="none" stroke="green" stroke-width="0.264599" d="M1236.2,-189.896C1247.64,-173.354 1273.87,-135.406 1292.6,-108.31"/>
<polygon fill="green" stroke="green" stroke-width="0.264599" points="1295.58,-110.151 1298.39,-99.9346 1289.82,-106.17 1295.58,-110.151"/>
</g>
<!-- enemyRadar[Front7Ø]&#45;&gt;Move Forward/Backward -->
<g id="edge45" class="edge"><title>enemyRadar[Front7Ø]&#45;&gt;Move Forward/Backward</title>
<path fill="none" stroke="red" stroke-width="0.435818" d="M1252.44,-190.069C1276.33,-181.265 1315.65,-166.751 1349.5,-154.149 1389.49,-139.264 1433.87,-122.643 1470.91,-108.743"/>
<polygon fill="red" stroke="red" stroke-width="0.435818" points="1472.53,-111.876 1480.66,-105.085 1470.07,-105.322 1472.53,-111.876"/>
</g>
<!-- enemyRadar[Front7Ø]&#45;&gt; Move Left/Right -->
<g id="edge31" class="edge"><title>enemyRadar[Front7Ø]&#45;&gt; Move Left/Right</title>
<path fill="none" stroke="green" stroke-width="0.394897" d="M1279.74,-191.353C1283.04,-190.934 1286.32,-190.529 1289.5,-190.149 1444.34,-171.671 1491.47,-206.101 1638.5,-154.149 1661.89,-145.885 1685.28,-132.065 1704.93,-118.454"/>
<polygon fill="green" stroke="green" stroke-width="0.394897" points="1706.99,-121.29 1713.12,-112.65 1702.94,-115.58 1706.99,-121.29"/>
</g>
<!-- enemyRadar[Front7Ø]&#45;&gt;Turn left/right -->
<g id="edge39" class="edge"><title>enemyRadar[Front7Ø]&#45;&gt;Turn left/right</title>
<path fill="none" stroke="green" stroke-width="0.100938" d="M1205.78,-190.084C1146.86,-170.858 997.025,-121.969 916.174,-95.588"/>
<polygon fill="green" stroke="green" stroke-width="0.100938" points="917.26,-92.2606 906.667,-92.486 915.088,-98.9153 917.26,-92.2606"/>
</g>
<!-- OnTarget -->
<g id="node22" class="node"><title>OnTarget</title>
<polygon fill="lightgray" stroke="black" points="1895.5,-208.149 1845.5,-208.149 1845.5,-190.149 1895.5,-190.149 1895.5,-208.149"/>
<text text-anchor="middle" x="1870.5" y="-196.949" font-family="Times,serif" font-size="9.00">OnTarget</text>
</g>
<!-- OnTarget&#45;&gt;Shoot -->
<g id="edge16" class="edge"><title>OnTarget&#45;&gt;Shoot</title>
<path fill="none" stroke="green" stroke-width="0.277303" d="M1845.32,-191.829C1842.36,-191.203 1839.37,-190.625 1836.5,-190.149 1673.5,-163.168 1625.32,-199.683 1466.5,-154.149 1421.79,-141.332 1374.46,-115.681 1344.49,-97.7229"/>
<polygon fill="green" stroke="green" stroke-width="0.277303" points="1346.13,-94.6239 1335.76,-92.4194 1342.49,-100.605 1346.13,-94.6239"/>
</g>
<!-- OnTarget&#45;&gt;Move Forward/Backward -->
<g id="edge46" class="edge"><title>OnTarget&#45;&gt;Move Forward/Backward</title>
<path fill="none" stroke="red" stroke-width="0.109009" d="M1845.36,-192.152C1797.8,-180.78 1698.73,-156.962 1691.5,-154.149 1669.84,-145.724 1647.33,-134.573 1626.9,-123.413"/>
<polygon fill="red" stroke="red" stroke-width="0.109009" points="1628.42,-120.253 1617.97,-118.467 1625.02,-126.376 1628.42,-120.253"/>
</g>
<!-- OnTarget&#45;&gt; Move Left/Right -->
<g id="edge23" class="edge"><title>OnTarget&#45;&gt; Move Left/Right</title>
<path fill="none" stroke="green" stroke-width="0.190103" d="M1862.6,-189.896C1849.81,-176.547 1823.68,-149.26 1800.43,-124.984"/>
<polygon fill="green" stroke="green" stroke-width="0.190103" points="1802.77,-122.367 1793.32,-117.566 1797.71,-127.209 1802.77,-122.367"/>
</g>
<!-- bias -->
<g id="node23" class="node"><title>bias</title>
<polygon fill="lightgray" stroke="black" points="1329,-208.149 1298,-208.149 1298,-190.149 1329,-190.149 1329,-208.149"/>
<text text-anchor="middle" x="1313.5" y="-196.949" font-family="Times,serif" font-size="9.00">bias</text>
</g>
<!-- bias&#45;&gt;Shoot -->
<g id="edge42" class="edge"><title>bias&#45;&gt;Shoot</title>
<path fill="none" stroke="red" stroke-width="0.458225" d="M1313.5,-189.896C1313.5,-174.554 1313.5,-140.799 1313.5,-114.366"/>
<polygon fill="red" stroke="red" stroke-width="0.458225" points="1317,-114.286 1313.5,-104.286 1310,-114.286 1317,-114.286"/>
</g>
<!-- bias&#45;&gt;Move Forward/Backward -->
<g id="edge36" class="edge"><title>bias&#45;&gt;Move Forward/Backward</title>
<path fill="none" stroke="red" stroke-width="0.122315" d="M1329.18,-190.271C1358.33,-175.628 1422.62,-143.327 1474.77,-117.126"/>
<polygon fill="red" stroke="red" stroke-width="0.122315" points="1476.66,-120.095 1484.02,-112.478 1473.52,-113.84 1476.66,-120.095"/>
</g>
<!-- bias&#45;&gt; Move Left/Right -->
<g id="edge11" class="edge"><title>bias&#45;&gt; Move Left/Right</title>
<path fill="none" stroke="red" stroke-width="0.190501" d="M1329.25,-192.61C1332.29,-191.683 1335.47,-190.809 1338.5,-190.149 1469.71,-161.556 1512.26,-199.942 1638.5,-154.149 1661.82,-145.691 1685.2,-131.832 1704.86,-118.244"/>
<polygon fill="red" stroke="red" stroke-width="0.190501" points="1706.9,-121.085 1713.05,-112.454 1702.86,-115.37 1706.9,-121.085"/>
</g>
<!-- bias&#45;&gt;Turn left/right -->
<g id="edge29" class="edge"><title>bias&#45;&gt;Turn left/right</title>
<path fill="none" stroke="green" stroke-width="0.356974" d="M1297.94,-193.03C1294.82,-192.044 1291.56,-191.042 1288.5,-190.149 1156.3,-151.637 999.336,-111.859 917.833,-91.6461"/>
<polygon fill="green" stroke="green" stroke-width="0.356974" points="918.345,-88.1674 907.797,-89.1616 916.663,-94.9623 918.345,-88.1674"/>
</g>
</g>
</svg>
