<?xml version="1.0" encoding="UTF-8" standalone="no"?>
<!DOCTYPE svg PUBLIC "-//W3C//DTD SVG 1.1//EN"
 "http://www.w3.org/Graphics/SVG/1.1/DTD/svg11.dtd">
<!-- Generated by graphviz version 2.38.0 (20140413.2041)
 -->
<!-- Title: %3 Pages: 1 -->
<svg width="2704pt" height="239pt"
 viewBox="0.00 0.00 2704.11 239.42" xmlns="http://www.w3.org/2000/svg" xmlns:xlink="http://www.w3.org/1999/xlink">
<g id="graph0" class="graph" transform="scale(1 1) rotate(0) translate(4 235.421)">
<title>%3</title>
<polygon fill="white" stroke="none" points="-4,4 -4,-235.421 2700.11,-235.421 2700.11,4 -4,4"/>
<!-- wallRadar[1,0] -->
<g id="node1" class="node"><title>wallRadar[1,0]</title>
<polygon fill="lightgray" stroke="black" points="832.013,-168.037 762.013,-168.037 762.013,-150.037 832.013,-150.037 832.013,-168.037"/>
<text text-anchor="middle" x="797.013" y="-156.837" font-family="Times,serif" font-size="9.00">wallRadar[1,0]</text>
</g>
<!-- Shoot -->
<g id="node25" class="node"><title>Shoot</title>
<ellipse fill="lightblue" stroke="black" cx="824.013" cy="-52.3259" rx="26.7407" ry="26.7407"/>
<text text-anchor="middle" x="824.013" y="-50.1259" font-family="Times,serif" font-size="9.00">Shoot</text>
</g>
<!-- wallRadar[1,0]&#45;&gt;Shoot -->
<g id="edge108" class="edge"><title>wallRadar[1,0]&#45;&gt;Shoot</title>
<path fill="none" stroke="green" stroke-width="0.189187" d="M799.132,-149.82C802.502,-136.751 809.278,-110.473 814.908,-88.636"/>
<polygon fill="green" stroke="green" stroke-width="0.189187" points="818.372,-89.2223 817.479,-78.6651 811.593,-87.4744 818.372,-89.2223"/>
</g>
<!-- Jump -->
<g id="node26" class="node"><title>Jump</title>
<ellipse fill="lightblue" stroke="black" cx="625.013" cy="-52.3259" rx="25.4118" ry="25.4118"/>
<text text-anchor="middle" x="625.013" y="-50.1259" font-family="Times,serif" font-size="9.00">Jump</text>
</g>
<!-- wallRadar[1,0]&#45;&gt;Jump -->
<g id="edge11" class="edge"><title>wallRadar[1,0]&#45;&gt;Jump</title>
<path fill="none" stroke="red" stroke-width="0.21556" d="M783.802,-149.994C756.42,-133.324 692.874,-94.6386 654.995,-71.5783"/>
<polygon fill="red" stroke="red" stroke-width="0.21556" points="656.773,-68.5633 646.411,-66.3528 653.133,-74.5424 656.773,-68.5633"/>
</g>
<!-- Crouch -->
<g id="node27" class="node"><title>Crouch</title>
<ellipse fill="lightblue" stroke="black" cx="1523.01" cy="-52.3259" rx="30.3115" ry="30.3115"/>
<text text-anchor="middle" x="1523.01" y="-50.1259" font-family="Times,serif" font-size="9.00">Crouch</text>
</g>
<!-- wallRadar[1,0]&#45;&gt;Crouch -->
<g id="edge42" class="edge"><title>wallRadar[1,0]&#45;&gt;Crouch</title>
<path fill="none" stroke="green" stroke-width="0.226138" d="M814.151,-149.979C822.391,-146.481 832.52,-142.717 842.013,-140.652 1103.49,-83.7591 1188.6,-187.588 1443.01,-104.652 1460.42,-98.9763 1477.77,-88.5771 1491.84,-78.6159"/>
<polygon fill="green" stroke="green" stroke-width="0.226138" points="1494.16,-81.2559 1500.15,-72.5163 1490.02,-75.6135 1494.16,-81.2559"/>
</g>
<!-- MoveForward -->
<g id="node28" class="node"><title>MoveForward</title>
<ellipse fill="lightblue" stroke="black" cx="945.013" cy="-52.3259" rx="48.1667" ry="48.1667"/>
<text text-anchor="middle" x="945.013" y="-50.1259" font-family="Times,serif" font-size="9.00">MoveForward</text>
</g>
<!-- wallRadar[1,0]&#45;&gt;MoveForward -->
<g id="edge60" class="edge"><title>wallRadar[1,0]&#45;&gt;MoveForward</title>
<path fill="none" stroke="green" stroke-width="0.19155" d="M808.627,-149.82C827.643,-136.366 866.447,-108.912 897.818,-86.7165"/>
<polygon fill="green" stroke="green" stroke-width="0.19155" points="899.889,-89.5388 906.031,-80.9059 895.846,-83.8244 899.889,-89.5388"/>
</g>
<!-- MoveBackward -->
<g id="node29" class="node"><title>MoveBackward</title>
<ellipse fill="lightblue" stroke="black" cx="2226.01" cy="-52.3259" rx="52.1524" ry="52.1524"/>
<text text-anchor="middle" x="2226.01" y="-50.1259" font-family="Times,serif" font-size="9.00">MoveBackward</text>
</g>
<!-- wallRadar[1,0]&#45;&gt;MoveBackward -->
<g id="edge100" class="edge"><title>wallRadar[1,0]&#45;&gt;MoveBackward</title>
<path fill="none" stroke="green" stroke-width="0.19689" d="M814.136,-149.909C822.372,-146.395 832.503,-142.64 842.013,-140.652 1022.29,-102.969 1486.26,-117.12 1670.01,-104.652 1849.54,-92.4698 2061.05,-70.9687 2163.76,-60.0678"/>
<polygon fill="green" stroke="green" stroke-width="0.19689" points="2164.38,-63.5218 2173.96,-58.983 2163.64,-56.5611 2164.38,-63.5218"/>
</g>
<!-- MoveRight -->
<g id="node30" class="node"><title>MoveRight</title>
<ellipse fill="lightblue" stroke="black" cx="1088.01" cy="-52.3259" rx="40.1111" ry="40.1111"/>
<text text-anchor="middle" x="1088.01" y="-50.1259" font-family="Times,serif" font-size="9.00">MoveRight</text>
</g>
<!-- wallRadar[1,0]&#45;&gt;MoveRight -->
<g id="edge91" class="edge"><title>wallRadar[1,0]&#45;&gt;MoveRight</title>
<path fill="none" stroke="green" stroke-width="0.356632" d="M816.066,-149.96C823.997,-146.787 833.359,-143.282 842.013,-140.652 911.754,-119.461 934.316,-131.667 1002.01,-104.652 1017.25,-98.5724 1032.93,-90.0039 1046.67,-81.6062"/>
<polygon fill="green" stroke="green" stroke-width="0.356632" points="1048.77,-84.4172 1055.39,-76.1403 1045.05,-78.4861 1048.77,-84.4172"/>
</g>
<!-- MoveLeft -->
<g id="node31" class="node"><title>MoveLeft</title>
<ellipse fill="lightblue" stroke="black" cx="1248.01" cy="-52.3259" rx="36.5405" ry="36.5405"/>
<text text-anchor="middle" x="1248.01" y="-50.1259" font-family="Times,serif" font-size="9.00">MoveLeft</text>
</g>
<!-- wallRadar[1,0]&#45;&gt;MoveLeft -->
<g id="edge95" class="edge"><title>wallRadar[1,0]&#45;&gt;MoveLeft</title>
<path fill="none" stroke="green" stroke-width="0.174959" d="M814.633,-150.032C822.805,-146.633 832.743,-142.936 842.013,-140.652 977.975,-107.151 1021.63,-147.289 1155.01,-104.652 1173.84,-98.6347 1193.2,-88.6621 1209.34,-79.0997"/>
<polygon fill="green" stroke="green" stroke-width="0.174959" points="1211.24,-82.0447 1217.96,-73.8571 1207.6,-76.0644 1211.24,-82.0447"/>
</g>
<!-- wallRadar[0,1] -->
<g id="node2" class="node"><title>wallRadar[0,1]</title>
<polygon fill="lightgray" stroke="black" points="329.013,-231.421 259.013,-231.421 259.013,-213.421 329.013,-213.421 329.013,-231.421"/>
<text text-anchor="middle" x="294.013" y="-220.221" font-family="Times,serif" font-size="9.00">wallRadar[0,1]</text>
</g>
<!-- wallRadar[0,1]&#45;&gt;Jump -->
<g id="edge53" class="edge"><title>wallRadar[0,1]&#45;&gt;Jump</title>
<path fill="none" stroke="red" stroke-width="0.34463" stroke-dasharray="1,5" d="M259,-221.455C189.92,-220.698 39.988,-214.692 8.01321,-177.421 -2.62759,-165.018 -2.70213,-152.99 8.01321,-140.652 46.5264,-96.3039 463.721,-64.3545 589.393,-55.6827"/>
<polygon fill="red" stroke="red" stroke-width="0.34463" points="589.884,-59.1575 599.622,-54.9841 589.407,-52.1737 589.884,-59.1575"/>
</g>
<!-- wallRadar[0,1]&#45;&gt;MoveForward -->
<g id="edge90" class="edge"><title>wallRadar[0,1]&#45;&gt;MoveForward</title>
<path fill="none" stroke="green" stroke-width="0.358554" d="M329.362,-221.112C377.996,-219.357 467.118,-211.288 534.013,-177.421 555.267,-166.661 551.464,-150.807 573.013,-140.652 689.303,-85.8513 738.563,-146.796 860.013,-104.652 872.861,-100.193 885.863,-93.6086 897.703,-86.6314"/>
<polygon fill="green" stroke="green" stroke-width="0.358554" points="899.803,-89.4501 906.509,-81.2481 896.152,-83.4776 899.803,-89.4501"/>
</g>
<!-- wallRadar[0,1]&#45;&gt;MoveBackward -->
<g id="edge18" class="edge"><title>wallRadar[0,1]&#45;&gt;MoveBackward</title>
<path fill="none" stroke="green" stroke-width="0.549259" d="M329.469,-221.446C620.96,-221.567 2612.43,-220.805 2655.01,-177.421 2765.07,-65.2979 2432.1,-52.9249 2288.51,-52.6385"/>
<polygon fill="green" stroke="green" stroke-width="0.549259" points="2288.51,-49.1386 2278.51,-52.6376 2288.51,-56.1386 2288.51,-49.1386"/>
</g>
<!-- 21 -->
<g id="node35" class="node"><title>21</title>
<ellipse fill="white" stroke="black" cx="35.0132" cy="-159.037" rx="18.2703" ry="18.2703"/>
<text text-anchor="middle" x="35.0132" y="-156.837" font-family="Times,serif" font-size="9.00">21</text>
</g>
<!-- wallRadar[0,1]&#45;&gt;21 -->
<g id="edge115" class="edge"><title>wallRadar[0,1]&#45;&gt;21</title>
<path fill="none" stroke="green" stroke-width="0.461718" d="M258.645,-218.945C212.113,-214.75 128.454,-203.939 62.0132,-177.421 60.7899,-176.933 59.5625,-176.387 58.342,-175.798"/>
<polygon fill="green" stroke="green" stroke-width="0.461718" points="59.7361,-172.565 49.3097,-170.684 56.2872,-178.656 59.7361,-172.565"/>
</g>
<!-- wallRadar[&#45;1,0] -->
<g id="node3" class="node"><title>wallRadar[&#45;1,0]</title>
<polygon fill="lightgray" stroke="black" points="525.513,-168.037 452.513,-168.037 452.513,-150.037 525.513,-150.037 525.513,-168.037"/>
<text text-anchor="middle" x="489.013" y="-156.837" font-family="Times,serif" font-size="9.00">wallRadar[&#45;1,0]</text>
</g>
<!-- wallRadar[&#45;1,0]&#45;&gt;Shoot -->
<g id="edge47" class="edge"><title>wallRadar[&#45;1,0]&#45;&gt;Shoot</title>
<path fill="none" stroke="green" stroke-width="0.414872" d="M511.497,-149.985C520.339,-146.92 530.609,-143.486 540.013,-140.652 600.291,-122.484 616.803,-123.043 677.013,-104.652 715.918,-92.7685 759.881,-77.12 789.51,-66.2394"/>
<polygon fill="green" stroke="green" stroke-width="0.414872" points="790.811,-69.4901 798.981,-62.7446 788.388,-62.923 790.811,-69.4901"/>
</g>
<!-- wallRadar[&#45;1,0]&#45;&gt;Jump -->
<g id="edge76" class="edge"><title>wallRadar[&#45;1,0]&#45;&gt;Jump</title>
<path fill="none" stroke="red" stroke-width="0.194169" d="M499.685,-149.82C520.405,-133.867 566.689,-98.2317 596.84,-75.0172"/>
<polygon fill="red" stroke="red" stroke-width="0.194169" points="599.094,-77.6995 604.882,-68.8256 594.823,-72.153 599.094,-77.6995"/>
</g>
<!-- wallRadar[&#45;1,0]&#45;&gt;MoveForward -->
<g id="edge37" class="edge"><title>wallRadar[&#45;1,0]&#45;&gt;MoveForward</title>
<path fill="none" stroke="green" stroke-width="0.224982" d="M509.565,-149.896C518.75,-146.555 529.789,-142.941 540.013,-140.652 679.674,-109.38 724.507,-150.708 860.013,-104.652 872.889,-100.275 885.902,-93.7221 897.744,-86.7492"/>
<polygon fill="green" stroke="green" stroke-width="0.224982" points="899.844,-89.5673 906.549,-81.3643 896.192,-83.5955 899.844,-89.5673"/>
</g>
<!-- wallRadar[&#45;1,0]&#45;&gt;MoveLeft -->
<g id="edge63" class="edge"><title>wallRadar[&#45;1,0]&#45;&gt;MoveLeft</title>
<path fill="none" stroke="red" stroke-width="0.197079" d="M522.344,-150.001C537.688,-146.596 556.186,-142.902 573.013,-140.652 829.888,-106.303 906.164,-177.028 1155.01,-104.652 1173.99,-99.1331 1193.37,-89.2416 1209.5,-79.6051"/>
<polygon fill="red" stroke="red" stroke-width="0.197079" points="1211.42,-82.5319 1218.1,-74.3071 1207.75,-76.5719 1211.42,-82.5319"/>
</g>
<!-- TurnLeft -->
<g id="node33" class="node"><title>TurnLeft</title>
<ellipse fill="lightblue" stroke="black" cx="1627.01" cy="-52.3259" rx="33.8824" ry="33.8824"/>
<text text-anchor="middle" x="1627.01" y="-50.1259" font-family="Times,serif" font-size="9.00">TurnLeft</text>
</g>
<!-- wallRadar[&#45;1,0]&#45;&gt;TurnLeft -->
<g id="edge22" class="edge"><title>wallRadar[&#45;1,0]&#45;&gt;TurnLeft</title>
<path fill="none" stroke="red" stroke-width="0.397037" d="M521.514,-149.984C537.008,-146.488 555.863,-142.724 573.013,-140.652 682.181,-127.463 1458.81,-142.604 1562.01,-104.652 1574.37,-100.109 1586.19,-92.2539 1596.29,-84.0351"/>
<polygon fill="red" stroke="red" stroke-width="0.397037" points="1598.69,-86.5903 1604,-77.4222 1594.13,-81.2779 1598.69,-86.5903"/>
</g>
<!-- wallRadar[0,&#45;1] -->
<g id="node4" class="node"><title>wallRadar[0,&#45;1]</title>
<polygon fill="lightgray" stroke="black" points="1852.51,-168.037 1779.51,-168.037 1779.51,-150.037 1852.51,-150.037 1852.51,-168.037"/>
<text text-anchor="middle" x="1816.01" y="-156.837" font-family="Times,serif" font-size="9.00">wallRadar[0,&#45;1]</text>
</g>
<!-- wallRadar[0,&#45;1]&#45;&gt;MoveForward -->
<g id="edge49" class="edge"><title>wallRadar[0,&#45;1]&#45;&gt;MoveForward</title>
<path fill="none" stroke="green" stroke-width="0.224859" d="M1798.49,-149.937C1790.06,-146.429 1779.71,-142.67 1770.01,-140.652 1451.56,-74.3482 1352.12,-192.823 1039.01,-104.652 1023.45,-100.269 1007.62,-92.9425 993.488,-85.1772"/>
<polygon fill="green" stroke="green" stroke-width="0.224859" points="994.892,-81.9488 984.471,-80.0374 991.426,-88.0302 994.892,-81.9488"/>
</g>
<!-- wallRadar[0,&#45;1]&#45;&gt;MoveBackward -->
<g id="edge23" class="edge"><title>wallRadar[0,&#45;1]&#45;&gt;MoveBackward</title>
<path fill="none" stroke="green" stroke-width="0.354496" d="M1835.98,-149.865C1843.99,-146.75 1853.36,-143.312 1862.01,-140.652 1967.02,-108.354 2092.07,-80.6326 2164.9,-65.5272"/>
<polygon fill="green" stroke="green" stroke-width="0.354496" points="2165.74,-68.9285 2174.83,-63.4803 2164.33,-62.0728 2165.74,-68.9285"/>
</g>
<!-- wallRadar[0,&#45;1]&#45;&gt;MoveRight -->
<g id="edge44" class="edge"><title>wallRadar[0,&#45;1]&#45;&gt;MoveRight</title>
<path fill="none" stroke="green" stroke-width="0.109539" d="M1798.47,-149.998C1790.05,-146.504 1779.69,-142.739 1770.01,-140.652 1522.74,-87.3488 1447.52,-165.557 1202.01,-104.652 1177.9,-98.6695 1152.56,-87.7751 1131.91,-77.5576"/>
<polygon fill="green" stroke="green" stroke-width="0.109539" points="1133.27,-74.3261 1122.77,-72.9307 1130.11,-80.571 1133.27,-74.3261"/>
</g>
<!-- wallRadar[0,&#45;1]&#45;&gt;MoveLeft -->
<g id="edge70" class="edge"><title>wallRadar[0,&#45;1]&#45;&gt;MoveLeft</title>
<path fill="none" stroke="red" stroke-width="0.510742" d="M1798.02,-149.9C1789.67,-146.474 1779.51,-142.793 1770.01,-140.652 1579.91,-97.7875 1518.44,-164.605 1333.01,-104.652 1316.44,-99.2938 1299.71,-90.1708 1285.53,-81.0891"/>
<polygon fill="red" stroke="red" stroke-width="0.510742" points="1287.32,-78.0782 1277.05,-75.4738 1283.46,-83.9141 1287.32,-78.0782"/>
</g>
<!-- TurnRight -->
<g id="node32" class="node"><title>TurnRight</title>
<ellipse fill="lightblue" stroke="black" cx="1379.01" cy="-52.3259" rx="37.4533" ry="37.4533"/>
<text text-anchor="middle" x="1379.01" y="-50.1259" font-family="Times,serif" font-size="9.00">TurnRight</text>
</g>
<!-- wallRadar[0,&#45;1]&#45;&gt;TurnRight -->
<g id="edge59" class="edge"><title>wallRadar[0,&#45;1]&#45;&gt;TurnRight</title>
<path fill="none" stroke="green" stroke-width="0.212051" d="M1797.53,-149.909C1789.26,-146.571 1779.29,-142.955 1770.01,-140.652 1645.67,-109.791 1606.78,-141.279 1484.01,-104.652 1461.96,-98.0714 1438.83,-87.2448 1419.91,-77.2273"/>
<polygon fill="green" stroke="green" stroke-width="0.212051" points="1421.45,-74.0784 1410.99,-72.3967 1418.12,-80.2346 1421.45,-74.0784"/>
</g>
<!-- wallRadar[0.7,0.7] -->
<g id="node5" class="node"><title>wallRadar[0.7,0.7]</title>
<polygon fill="lightgray" stroke="black" points="1268.51,-168.037 1185.51,-168.037 1185.51,-150.037 1268.51,-150.037 1268.51,-168.037"/>
<text text-anchor="middle" x="1227.01" y="-156.837" font-family="Times,serif" font-size="9.00">wallRadar[0.7,0.7]</text>
</g>
<!-- wallRadar[0.7,0.7]&#45;&gt;Jump -->
<g id="edge46" class="edge"><title>wallRadar[0.7,0.7]&#45;&gt;Jump</title>
<path fill="none" stroke="red" stroke-width="0.451521" d="M1206.97,-149.981C1197.7,-146.571 1186.44,-142.88 1176.01,-140.652 1006.65,-104.461 957.788,-138.852 788.013,-104.652 742.019,-95.3865 690.649,-77.9823 658.096,-66.0303"/>
<polygon fill="red" stroke="red" stroke-width="0.451521" points="659.217,-62.7131 648.624,-62.5111 656.779,-69.2748 659.217,-62.7131"/>
</g>
<!-- wallRadar[0.7,0.7]&#45;&gt;Crouch -->
<g id="edge99" class="edge"><title>wallRadar[0.7,0.7]&#45;&gt;Crouch</title>
<path fill="none" stroke="red" stroke-width="0.211596" d="M1248.93,-149.954C1257.88,-146.815 1268.37,-143.338 1278.01,-140.652 1350.32,-120.511 1373.67,-133.37 1443.01,-104.652 1459.81,-97.6978 1476.96,-87.227 1491.05,-77.5526"/>
<polygon fill="red" stroke="red" stroke-width="0.211596" points="1493.24,-80.2911 1499.4,-71.6704 1489.21,-74.5686 1493.24,-80.2911"/>
</g>
<!-- wallRadar[0.7,0.7]&#45;&gt;MoveRight -->
<g id="edge61" class="edge"><title>wallRadar[0.7,0.7]&#45;&gt;MoveRight</title>
<path fill="none" stroke="red" stroke-width="0.242815" d="M1216.11,-149.82C1197.39,-135.718 1158.25,-106.236 1128.13,-83.5489"/>
<polygon fill="red" stroke="red" stroke-width="0.242815" points="1130,-80.5701 1119.9,-77.3486 1125.78,-86.1612 1130,-80.5701"/>
</g>
<!-- wallRadar[0.7,0.7]&#45;&gt;MoveLeft -->
<g id="edge41" class="edge"><title>wallRadar[0.7,0.7]&#45;&gt;MoveLeft</title>
<path fill="none" stroke="red" stroke-width="0.101045" d="M1228.66,-149.82C1230.88,-138.735 1235.01,-118.147 1238.89,-98.8259"/>
<polygon fill="red" stroke="red" stroke-width="0.101045" points="1242.34,-99.3879 1240.88,-88.8949 1235.48,-98.0114 1242.34,-99.3879"/>
</g>
<!-- wallRadar[0.7,0.7]&#45;&gt;TurnRight -->
<g id="edge12" class="edge"><title>wallRadar[0.7,0.7]&#45;&gt;TurnRight</title>
<path fill="none" stroke="green" stroke-width="0.204202" d="M1240.81,-149.912C1257.84,-139.762 1287.54,-121.655 1312.01,-104.652 1321.88,-97.7971 1332.3,-90.0688 1341.9,-82.7295"/>
<polygon fill="green" stroke="green" stroke-width="0.204202" points="1344.32,-85.2885 1350.1,-76.4117 1340.04,-79.7441 1344.32,-85.2885"/>
</g>
<!-- wallRadar[&#45;0.7,0.7] -->
<g id="node6" class="node"><title>wallRadar[&#45;0.7,0.7]</title>
<polygon fill="lightgray" stroke="black" points="1761.01,-168.037 1675.01,-168.037 1675.01,-150.037 1761.01,-150.037 1761.01,-168.037"/>
<text text-anchor="middle" x="1718.01" y="-156.837" font-family="Times,serif" font-size="9.00">wallRadar[&#45;0.7,0.7]</text>
</g>
<!-- wallRadar[&#45;0.7,0.7]&#45;&gt;Shoot -->
<g id="edge16" class="edge"><title>wallRadar[&#45;0.7,0.7]&#45;&gt;Shoot</title>
<path fill="none" stroke="red" stroke-width="0.45259" d="M1698.11,-149.942C1688.56,-146.436 1676.87,-142.677 1666.01,-140.652 1495.87,-108.911 1049.93,-165.798 888.013,-104.652 873.753,-99.2665 860.231,-89.4135 849.321,-79.7696"/>
<polygon fill="red" stroke="red" stroke-width="0.45259" points="851.577,-77.088 841.866,-72.8511 846.815,-82.219 851.577,-77.088"/>
</g>
<!-- wallRadar[&#45;0.7,0.7]&#45;&gt;Crouch -->
<g id="edge101" class="edge"><title>wallRadar[&#45;0.7,0.7]&#45;&gt;Crouch</title>
<path fill="none" stroke="red" stroke-width="0.13553" d="M1695.26,-149.972C1662.39,-138.158 1603.46,-116.29 1584.01,-104.652 1572.88,-97.9885 1561.72,-89.3222 1552.05,-81.0135"/>
<polygon fill="red" stroke="red" stroke-width="0.13553" points="1554.11,-78.1699 1544.3,-74.1702 1549.48,-83.4151 1554.11,-78.1699"/>
</g>
<!-- wallRadar[&#45;0.7,0.7]&#45;&gt;MoveForward -->
<g id="edge72" class="edge"><title>wallRadar[&#45;0.7,0.7]&#45;&gt;MoveForward</title>
<path fill="none" stroke="red" stroke-width="0.185009" d="M1698.1,-149.996C1688.55,-146.502 1676.86,-142.737 1666.01,-140.652 1391.91,-87.9373 1307.38,-181.406 1039.01,-104.652 1023.47,-100.206 1007.64,-92.8589 993.512,-85.0943"/>
<polygon fill="red" stroke="red" stroke-width="0.185009" points="994.915,-81.8659 984.494,-79.9579 991.451,-87.9485 994.915,-81.8659"/>
</g>
<!-- wallRadar[&#45;0.7,0.7]&#45;&gt;MoveBackward -->
<g id="edge105" class="edge"><title>wallRadar[&#45;0.7,0.7]&#45;&gt;MoveBackward</title>
<path fill="none" stroke="red" stroke-width="0.165983" d="M1740.52,-149.951C1749.87,-146.776 1760.89,-143.273 1771.01,-140.652 1909.96,-104.686 2076.26,-76.4325 2164.28,-62.613"/>
<polygon fill="red" stroke="red" stroke-width="0.165983" points="2165.02,-66.04 2174.36,-61.0397 2163.94,-59.1237 2165.02,-66.04"/>
</g>
<!-- wallRadar[&#45;0.7,0.7]&#45;&gt;MoveLeft -->
<g id="edge24" class="edge"><title>wallRadar[&#45;0.7,0.7]&#45;&gt;MoveLeft</title>
<path fill="none" stroke="green" stroke-width="0.158814" d="M1697.05,-149.884C1687.68,-146.54 1676.43,-142.928 1666.01,-140.652 1520.58,-108.868 1474.06,-152.25 1333.01,-104.652 1316.51,-99.083 1299.8,-89.9156 1285.6,-80.8574"/>
<polygon fill="green" stroke="green" stroke-width="0.158814" points="1287.4,-77.8458 1277.12,-75.2646 1283.54,-83.6904 1287.4,-77.8458"/>
</g>
<!-- wallRadar[&#45;0.7,0.7]&#45;&gt;TurnRight -->
<g id="edge110" class="edge"><title>wallRadar[&#45;0.7,0.7]&#45;&gt;TurnRight</title>
<path fill="none" stroke="green" stroke-width="0.184938" d="M1695.93,-149.963C1686.76,-146.79 1675.95,-143.284 1666.01,-140.652 1586.31,-119.537 1562.15,-130.979 1484.01,-104.652 1462.2,-97.3029 1439.1,-86.3889 1420.14,-76.5123"/>
<polygon fill="green" stroke="green" stroke-width="0.184938" points="1421.66,-73.3579 1411.19,-71.7673 1418.38,-79.5429 1421.66,-73.3579"/>
</g>
<!-- wallRadar[&#45;0.7,&#45;0.7] -->
<g id="node7" class="node"><title>wallRadar[&#45;0.7,&#45;0.7]</title>
<polygon fill="lightgray" stroke="black" points="2126.51,-168.037 2037.51,-168.037 2037.51,-150.037 2126.51,-150.037 2126.51,-168.037"/>
<text text-anchor="middle" x="2082.01" y="-156.837" font-family="Times,serif" font-size="9.00">wallRadar[&#45;0.7,&#45;0.7]</text>
</g>
<!-- wallRadar[&#45;0.7,&#45;0.7]&#45;&gt;Crouch -->
<g id="edge81" class="edge"><title>wallRadar[&#45;0.7,&#45;0.7]&#45;&gt;Crouch</title>
<path fill="none" stroke="green" stroke-width="0.16146" d="M2058.74,-149.982C2047.99,-146.573 2034.98,-142.881 2023.01,-140.652 1830.56,-104.798 1765.03,-179.198 1584.01,-104.652 1571.69,-99.5783 1560.01,-91.0628 1550.23,-82.4113"/>
<polygon fill="green" stroke="green" stroke-width="0.16146" points="1552.53,-79.7624 1542.82,-75.5069 1547.75,-84.8843 1552.53,-79.7624"/>
</g>
<!-- wallRadar[0.7,&#45;0.7] -->
<g id="node8" class="node"><title>wallRadar[0.7,&#45;0.7]</title>
<polygon fill="lightgray" stroke="black" points="2269.01,-168.037 2183.01,-168.037 2183.01,-150.037 2269.01,-150.037 2269.01,-168.037"/>
<text text-anchor="middle" x="2226.01" y="-156.837" font-family="Times,serif" font-size="9.00">wallRadar[0.7,&#45;0.7]</text>
</g>
<!-- wallRadar[0.7,&#45;0.7]&#45;&gt;Shoot -->
<g id="edge85" class="edge"><title>wallRadar[0.7,&#45;0.7]&#45;&gt;Shoot</title>
<path fill="none" stroke="red" stroke-width="0.640342" d="M2191.6,-150.031C2174.91,-146.499 2154.52,-142.693 2136.01,-140.652 1998.12,-125.447 1018.21,-152.531 888.013,-104.652 873.599,-99.3512 859.973,-89.41 849.029,-79.6779"/>
<polygon fill="red" stroke="red" stroke-width="0.640342" points="851.256,-76.969 841.56,-72.6977 846.476,-82.083 851.256,-76.969"/>
</g>
<!-- wallRadar[0.7,&#45;0.7]&#45;&gt;Crouch -->
<g id="edge107" class="edge"><title>wallRadar[0.7,&#45;0.7]&#45;&gt;Crouch</title>
<path fill="none" stroke="red" stroke-width="0.695585" d="M2203.84,-149.95C2193.41,-146.49 2180.72,-142.767 2169.01,-140.652 2040.84,-117.494 1704.95,-153.02 1584.01,-104.652 1571.64,-99.704 1559.95,-91.2196 1550.17,-82.5581"/>
<polygon fill="red" stroke="red" stroke-width="0.695585" points="1552.47,-79.9087 1542.77,-75.6379 1547.69,-85.023 1552.47,-79.9087"/>
</g>
<!-- wallRadar[0.7,&#45;0.7]&#45;&gt;MoveBackward -->
<g id="edge5" class="edge"><title>wallRadar[0.7,&#45;0.7]&#45;&gt;MoveBackward</title>
<path fill="none" stroke="green" stroke-width="0.315849" d="M2226.01,-149.82C2226.01,-141.828 2226.01,-128.897 2226.01,-115.062"/>
<polygon fill="green" stroke="green" stroke-width="0.315849" points="2229.51,-114.886 2226.01,-104.886 2222.51,-114.886 2229.51,-114.886"/>
</g>
<!-- wallRadar[0.7,&#45;0.7]&#45;&gt;MoveRight -->
<g id="edge68" class="edge"><title>wallRadar[0.7,&#45;0.7]&#45;&gt;MoveRight</title>
<path fill="none" stroke="red" stroke-width="0.326838" d="M2191.16,-150.02C2174.55,-146.531 2154.35,-142.764 2136.01,-140.652 1929.67,-116.886 1404.22,-152.163 1202.01,-104.652 1177.83,-98.9686 1152.48,-88.1059 1131.84,-77.8318"/>
<polygon fill="red" stroke="red" stroke-width="0.326838" points="1133.21,-74.6012 1122.71,-73.1735 1130.03,-80.8364 1133.21,-74.6012"/>
</g>
<!-- wallRadar[0.7,&#45;0.7]&#45;&gt;TurnLeft -->
<g id="edge21" class="edge"><title>wallRadar[0.7,&#45;0.7]&#45;&gt;TurnLeft</title>
<path fill="none" stroke="green" stroke-width="0.29554" d="M2202.36,-150.032C2192.18,-146.794 2180.1,-143.223 2169.01,-140.652 1985.96,-98.1995 1763.4,-69.342 1670.75,-58.3181"/>
<polygon fill="green" stroke="green" stroke-width="0.29554" points="1670.97,-54.8196 1660.63,-57.1232 1670.15,-61.7713 1670.97,-54.8196"/>
</g>
<!-- enemyRadar[RightBack] -->
<g id="node9" class="node"><title>enemyRadar[RightBack]</title>
<polygon fill="lightgray" stroke="black" points="1391.01,-168.037 1287.01,-168.037 1287.01,-150.037 1391.01,-150.037 1391.01,-168.037"/>
<text text-anchor="middle" x="1339.01" y="-156.837" font-family="Times,serif" font-size="9.00">enemyRadar[RightBack]</text>
</g>
<!-- enemyRadar[RightBack]&#45;&gt;Shoot -->
<g id="edge86" class="edge"><title>enemyRadar[RightBack]&#45;&gt;Shoot</title>
<path fill="none" stroke="green" stroke-width="0.114726" d="M1314.63,-149.964C1303.56,-146.594 1290.24,-142.939 1278.01,-140.652 1106.91,-108.659 1049.41,-169.863 888.013,-104.652 873.88,-98.9413 860.378,-89.035 849.45,-79.4392"/>
<polygon fill="green" stroke="green" stroke-width="0.114726" points="851.707,-76.7599 841.976,-72.5712 846.971,-81.9144 851.707,-76.7599"/>
</g>
<!-- enemyRadar[RightBack]&#45;&gt;Crouch -->
<g id="edge79" class="edge"><title>enemyRadar[RightBack]&#45;&gt;Crouch</title>
<path fill="none" stroke="green" stroke-width="0.106584" d="M1355.85,-150.015C1376.64,-139.969 1412.94,-121.966 1443.01,-104.652 1458.65,-95.6524 1475.52,-84.9802 1489.71,-75.7047"/>
<polygon fill="green" stroke="green" stroke-width="0.106584" points="1491.74,-78.558 1498.17,-70.1373 1487.9,-72.7104 1491.74,-78.558"/>
</g>
<!-- enemyRadar[RightBack]&#45;&gt;TurnRight -->
<g id="edge48" class="edge"><title>enemyRadar[RightBack]&#45;&gt;TurnRight</title>
<path fill="none" stroke="green" stroke-width="0.198895" d="M1342.15,-149.82C1346.49,-138.468 1354.63,-117.148 1362.17,-97.4299"/>
<polygon fill="green" stroke="green" stroke-width="0.198895" points="1365.5,-98.5201 1365.79,-87.9295 1358.96,-96.0221 1365.5,-98.5201"/>
</g>
<!-- enemyRadar[LeftBack] -->
<g id="node10" class="node"><title>enemyRadar[LeftBack]</title>
<polygon fill="lightgray" stroke="black" points="305.513,-168.037 206.513,-168.037 206.513,-150.037 305.513,-150.037 305.513,-168.037"/>
<text text-anchor="middle" x="256.013" y="-156.837" font-family="Times,serif" font-size="9.00">enemyRadar[LeftBack]</text>
</g>
<!-- enemyRadar[LeftBack]&#45;&gt;Shoot -->
<g id="edge51" class="edge"><title>enemyRadar[LeftBack]&#45;&gt;Shoot</title>
<path fill="none" stroke="red" stroke-width="0.208621" d="M279.589,-149.988C290.287,-146.623 303.17,-142.964 315.013,-140.652 473.699,-109.667 519.141,-139.545 677.013,-104.652 716.853,-95.8465 760.815,-79.5821 790.189,-67.7153"/>
<polygon fill="red" stroke="red" stroke-width="0.208621" points="791.636,-70.9049 799.564,-63.8767 788.984,-64.4268 791.636,-70.9049"/>
</g>
<!-- enemyRadar[LeftBack]&#45;&gt;Jump -->
<g id="edge104" class="edge"><title>enemyRadar[LeftBack]&#45;&gt;Jump</title>
<path fill="none" stroke="red" stroke-width="0.225585" d="M283.015,-150.006C293.055,-147.04 304.547,-143.668 315.013,-140.652 414.908,-111.866 533.219,-78.8301 590.503,-62.902"/>
<polygon fill="red" stroke="red" stroke-width="0.225585" points="591.773,-66.1817 600.471,-60.1318 589.899,-59.4373 591.773,-66.1817"/>
</g>
<!-- enemyRadar[LeftBack]&#45;&gt;TurnRight -->
<g id="edge52" class="edge"><title>enemyRadar[LeftBack]&#45;&gt;TurnRight</title>
<path fill="none" stroke="red" stroke-width="0.168446" d="M278.4,-150.001C289.298,-146.462 302.682,-142.659 315.013,-140.652 533.835,-105.042 1103.37,-179.608 1312.01,-104.652 1323.76,-100.433 1335.1,-93.3418 1345.01,-85.7558"/>
<polygon fill="red" stroke="red" stroke-width="0.168446" points="1347.4,-88.3266 1352.98,-79.3194 1343,-82.8819 1347.4,-88.3266"/>
</g>
<!-- enemyRadar[Right] -->
<g id="node11" class="node"><title>enemyRadar[Right]</title>
<polygon fill="lightgray" stroke="black" points="668.013,-168.037 582.013,-168.037 582.013,-150.037 668.013,-150.037 668.013,-168.037"/>
<text text-anchor="middle" x="625.013" y="-156.837" font-family="Times,serif" font-size="9.00">enemyRadar[Right]</text>
</g>
<!-- enemyRadar[Right]&#45;&gt;Shoot -->
<g id="edge67" class="edge"><title>enemyRadar[Right]&#45;&gt;Shoot</title>
<path fill="none" stroke="green" stroke-width="0.266093" d="M640.298,-149.994C672.518,-133.04 748.016,-93.3142 791.538,-70.4136"/>
<polygon fill="green" stroke="green" stroke-width="0.266093" points="793.353,-73.414 800.573,-65.66 790.093,-67.2192 793.353,-73.414"/>
</g>
<!-- enemyRadar[Right]&#45;&gt;Jump -->
<g id="edge84" class="edge"><title>enemyRadar[Right]&#45;&gt;Jump</title>
<path fill="none" stroke="red" stroke-width="0.40549" d="M625.013,-149.82C625.013,-136.585 625.013,-109.802 625.013,-87.8036"/>
<polygon fill="red" stroke="red" stroke-width="0.40549" points="628.513,-87.785 625.013,-77.785 621.513,-87.7851 628.513,-87.785"/>
</g>
<!-- enemyRadar[Right]&#45;&gt;Crouch -->
<g id="edge56" class="edge"><title>enemyRadar[Right]&#45;&gt;Crouch</title>
<path fill="none" stroke="green" stroke-width="0.243366" d="M668.162,-151.269C692.933,-147.612 724.656,-143.313 753.013,-140.652 905.884,-126.307 1296.85,-151.678 1443.01,-104.652 1460.44,-99.0434 1477.8,-88.6532 1491.86,-78.6805"/>
<polygon fill="green" stroke="green" stroke-width="0.243366" points="1494.18,-81.3166 1500.17,-72.5715 1490.04,-75.6779 1494.18,-81.3166"/>
</g>
<!-- enemyRadar[Right]&#45;&gt;MoveForward -->
<g id="edge14" class="edge"><title>enemyRadar[Right]&#45;&gt;MoveForward</title>
<path fill="none" stroke="red" stroke-width="0.110182" d="M649.557,-149.984C659.563,-146.849 671.281,-143.367 682.013,-140.652 760.261,-120.856 784.803,-133.944 860.013,-104.652 872.558,-99.7661 885.359,-93.085 897.092,-86.1584"/>
<polygon fill="red" stroke="red" stroke-width="0.110182" points="899.111,-89.0272 905.835,-80.8395 895.472,-83.047 899.111,-89.0272"/>
</g>
<!-- enemyRadar[Right]&#45;&gt;TurnLeft -->
<g id="edge57" class="edge"><title>enemyRadar[Right]&#45;&gt;TurnLeft</title>
<path fill="none" stroke="green" stroke-width="0.103112" d="M668.154,-151.187C692.923,-147.503 724.646,-143.204 753.013,-140.652 932.245,-124.526 1393.37,-167.443 1562.01,-104.652 1574.35,-100.06 1586.17,-92.1898 1596.27,-83.9733"/>
<polygon fill="green" stroke="green" stroke-width="0.103112" points="1598.67,-86.5309 1603.98,-77.3654 1594.11,-81.2162 1598.67,-86.5309"/>
</g>
<!-- enemyRadar[Left] -->
<g id="node12" class="node"><title>enemyRadar[Left]</title>
<polygon fill="lightgray" stroke="black" points="2368.51,-168.037 2287.51,-168.037 2287.51,-150.037 2368.51,-150.037 2368.51,-168.037"/>
<text text-anchor="middle" x="2328.01" y="-156.837" font-family="Times,serif" font-size="9.00">enemyRadar[Left]</text>
</g>
<!-- enemyRadar[Left]&#45;&gt;Crouch -->
<g id="edge15" class="edge"><title>enemyRadar[Left]&#45;&gt;Crouch</title>
<path fill="none" stroke="green" stroke-width="0.369773" d="M2308.89,-149.962C2299.72,-146.46 2288.48,-142.699 2278.01,-140.652 2126.46,-110.998 1727.67,-161.309 1584.01,-104.652 1571.62,-99.7636 1559.92,-91.294 1550.15,-82.6277"/>
<polygon fill="green" stroke="green" stroke-width="0.369773" points="1552.44,-79.978 1542.74,-75.7 1547.65,-85.0888 1552.44,-79.978"/>
</g>
<!-- enemyRadar[Left]&#45;&gt;MoveForward -->
<g id="edge78" class="edge"><title>enemyRadar[Left]&#45;&gt;MoveForward</title>
<path fill="none" stroke="red" stroke-width="0.267716" d="M2308.92,-149.855C2299.75,-146.33 2288.5,-142.58 2278.01,-140.652 2007.1,-90.8413 1304.89,-176.639 1039.01,-104.652 1023.41,-100.426 1007.56,-93.15 993.431,-85.3827"/>
<polygon fill="red" stroke="red" stroke-width="0.267716" points="994.836,-82.1544 984.417,-80.2346 991.365,-88.233 994.836,-82.1544"/>
</g>
<!-- enemyRadar[Left]&#45;&gt;MoveBackward -->
<g id="edge9" class="edge"><title>enemyRadar[Left]&#45;&gt;MoveBackward</title>
<path fill="none" stroke="green" stroke-width="0.571859" d="M2320.01,-149.82C2309.02,-138.534 2288.43,-117.397 2269.31,-97.7755"/>
<polygon fill="green" stroke="green" stroke-width="0.571859" points="2271.57,-95.0745 2262.08,-90.3535 2266.55,-99.9589 2271.57,-95.0745"/>
</g>
<!-- enemyRadar[Left]&#45;&gt;TurnRight -->
<g id="edge54" class="edge"><title>enemyRadar[Left]&#45;&gt;TurnRight</title>
<path fill="none" stroke="green" stroke-width="0.20361" d="M2308.9,-149.932C2299.73,-146.423 2288.48,-142.665 2278.01,-140.652 1931.12,-73.9494 1826.28,-192.043 1484.01,-104.652 1461.71,-98.9576 1438.56,-88.2319 1419.69,-78.0518"/>
<polygon fill="green" stroke="green" stroke-width="0.20361" points="1421.23,-74.9068 1410.79,-73.1226 1417.84,-81.03 1421.23,-74.9068"/>
</g>
<!-- enemyRadar[Left]&#45;&gt;TurnLeft -->
<g id="edge27" class="edge"><title>enemyRadar[Left]&#45;&gt;TurnLeft</title>
<path fill="none" stroke="red" stroke-width="0.425152" d="M2307.85,-149.988C2298.85,-146.664 2288.03,-143.038 2278.01,-140.652 2053.38,-87.1111 1776.77,-63.6323 1670.98,-56.158"/>
<polygon fill="red" stroke="red" stroke-width="0.425152" points="1671.21,-52.6654 1660.99,-55.464 1670.73,-59.6485 1671.21,-52.6654"/>
</g>
<!-- enemyRadar[RightFront30] -->
<g id="node13" class="node"><title>enemyRadar[RightFront30]</title>
<polygon fill="lightgray" stroke="black" points="1098.51,-168.037 983.513,-168.037 983.513,-150.037 1098.51,-150.037 1098.51,-168.037"/>
<text text-anchor="middle" x="1041.01" y="-156.837" font-family="Times,serif" font-size="9.00">enemyRadar[RightFront30]</text>
</g>
<!-- enemyRadar[RightFront30]&#45;&gt;Jump -->
<g id="edge92" class="edge"><title>enemyRadar[RightFront30]&#45;&gt;Jump</title>
<path fill="none" stroke="red" stroke-width="0.336339" d="M1012.2,-149.997C1000.68,-146.9 987.26,-143.44 975.013,-140.652 892.488,-121.862 870.069,-125.396 788.013,-104.652 742.527,-93.1524 691.037,-76.2743 658.318,-65.0509"/>
<polygon fill="red" stroke="red" stroke-width="0.336339" points="659.389,-61.7179 648.794,-61.7615 657.104,-68.3344 659.389,-61.7179"/>
</g>
<!-- enemyRadar[RightFront30]&#45;&gt;MoveForward -->
<g id="edge32" class="edge"><title>enemyRadar[RightFront30]&#45;&gt;MoveForward</title>
<path fill="none" stroke="green" stroke-width="0.554838" d="M1033.48,-149.82C1022.82,-138.192 1002.57,-116.106 984.134,-95.9963"/>
<polygon fill="green" stroke="green" stroke-width="0.554838" points="986.518,-93.4172 977.18,-88.4115 981.358,-98.1477 986.518,-93.4172"/>
</g>
<!-- enemyRadar[RightFront30]&#45;&gt;MoveRight -->
<g id="edge112" class="edge"><title>enemyRadar[RightFront30]&#45;&gt;MoveRight</title>
<path fill="none" stroke="green" stroke-width="0.151657" d="M1044.7,-149.82C1049.69,-138.716 1058.95,-118.077 1067.63,-98.7274"/>
<polygon fill="green" stroke="green" stroke-width="0.151657" points="1070.93,-99.9361 1071.83,-89.3797 1064.54,-97.0696 1070.93,-99.9361"/>
</g>
<!-- enemyRadar[RightFront30]&#45;&gt;MoveLeft -->
<g id="edge50" class="edge"><title>enemyRadar[RightFront30]&#45;&gt;MoveLeft</title>
<path fill="none" stroke="green" stroke-width="0.109968" d="M1059.36,-149.899C1082.04,-139.735 1121.71,-121.614 1155.01,-104.652 1172.32,-95.8354 1191.13,-85.5853 1207.27,-76.5737"/>
<polygon fill="green" stroke="green" stroke-width="0.109968" points="1209.43,-79.3764 1216.44,-71.4311 1206.01,-73.2715 1209.43,-79.3764"/>
</g>
<!-- enemyRadar[RightFront30]&#45;&gt;TurnRight -->
<g id="edge43" class="edge"><title>enemyRadar[RightFront30]&#45;&gt;TurnRight</title>
<path fill="none" stroke="green" stroke-width="0.127349" d="M1069.91,-150.003C1081.68,-146.872 1095.45,-143.386 1108.01,-140.652 1197.98,-121.075 1227.73,-141.704 1312.01,-104.652 1323.33,-99.6763 1334.47,-92.405 1344.31,-84.8918"/>
<polygon fill="green" stroke="green" stroke-width="0.127349" points="1346.61,-87.536 1352.25,-78.5689 1342.25,-82.06 1346.61,-87.536"/>
</g>
<!-- enemyRadar[RightFront30]&#45;&gt;TurnLeft -->
<g id="edge45" class="edge"><title>enemyRadar[RightFront30]&#45;&gt;TurnLeft</title>
<path fill="none" stroke="green" stroke-width="0.230844" d="M1067.52,-150.02C1079.74,-146.618 1094.5,-142.922 1108.01,-140.652 1307.63,-107.105 1373.58,-178.555 1562.01,-104.652 1574.16,-99.8879 1585.86,-92.0525 1595.91,-83.9217"/>
<polygon fill="green" stroke="green" stroke-width="0.230844" points="1598.24,-86.5353 1603.59,-77.3905 1593.7,-81.203 1598.24,-86.5353"/>
</g>
<!-- enemyRadar[LeftFront30] -->
<g id="node14" class="node"><title>enemyRadar[LeftFront30]</title>
<polygon fill="lightgray" stroke="black" points="434.013,-168.037 324.013,-168.037 324.013,-150.037 434.013,-150.037 434.013,-168.037"/>
<text text-anchor="middle" x="379.013" y="-156.837" font-family="Times,serif" font-size="9.00">enemyRadar[LeftFront30]</text>
</g>
<!-- enemyRadar[LeftFront30]&#45;&gt;Shoot -->
<g id="edge8" class="edge"><title>enemyRadar[LeftFront30]&#45;&gt;Shoot</title>
<path fill="none" stroke="green" stroke-width="0.449162" d="M405.942,-149.998C417.311,-146.793 430.736,-143.255 443.013,-140.652 545.948,-118.826 574.914,-130.102 677.013,-104.652 716.603,-94.7835 760.61,-78.7096 790.063,-67.1782"/>
<polygon fill="green" stroke="green" stroke-width="0.449162" points="791.455,-70.3914 799.466,-63.4573 788.879,-63.8825 791.455,-70.3914"/>
</g>
<!-- enemyRadar[LeftFront30]&#45;&gt;Jump -->
<g id="edge75" class="edge"><title>enemyRadar[LeftFront30]&#45;&gt;Jump</title>
<path fill="none" stroke="red" stroke-width="0.159454" d="M397.908,-149.994C439.658,-132.223 540.187,-89.4325 592.361,-67.2245"/>
<polygon fill="red" stroke="red" stroke-width="0.159454" points="593.987,-70.3362 601.817,-63.1993 591.245,-63.8954 593.987,-70.3362"/>
</g>
<!-- enemyRadar[LeftFront30]&#45;&gt;MoveForward -->
<g id="edge38" class="edge"><title>enemyRadar[LeftFront30]&#45;&gt;MoveForward</title>
<path fill="none" stroke="green" stroke-width="0.24476" d="M404.621,-149.952C416.232,-146.579 430.203,-142.926 443.013,-140.652 626.173,-108.14 683.125,-162.227 860.013,-104.652 872.945,-100.443 885.979,-93.9534 897.823,-86.9892"/>
<polygon fill="green" stroke="green" stroke-width="0.24476" points="899.925,-89.8063 906.628,-81.601 896.271,-83.8356 899.925,-89.8063"/>
</g>
<!-- enemyRadar[LeftFront30]&#45;&gt;TurnRight -->
<g id="edge66" class="edge"><title>enemyRadar[LeftFront30]&#45;&gt;TurnRight</title>
<path fill="none" stroke="red" stroke-width="0.421445" d="M403.657,-149.955C415.436,-146.452 429.814,-142.692 443.013,-140.652 634.023,-111.135 1130.29,-170.481 1312.01,-104.652 1323.74,-100.402 1335.09,-93.3002 1345,-85.7141"/>
<polygon fill="red" stroke="red" stroke-width="0.421445" points="1347.38,-88.286 1352.96,-79.2799 1342.98,-82.8403 1347.38,-88.286"/>
</g>
<!-- enemyRadar[RightFront10] -->
<g id="node15" class="node"><title>enemyRadar[RightFront10]</title>
<polygon fill="lightgray" stroke="black" points="965.513,-168.037 850.513,-168.037 850.513,-150.037 965.513,-150.037 965.513,-168.037"/>
<text text-anchor="middle" x="908.013" y="-156.837" font-family="Times,serif" font-size="9.00">enemyRadar[RightFront10]</text>
</g>
<!-- enemyRadar[RightFront10]&#45;&gt;Shoot -->
<g id="edge28" class="edge"><title>enemyRadar[RightFront10]&#45;&gt;Shoot</title>
<path fill="none" stroke="red" stroke-width="0.265633" d="M901.422,-149.82C889.848,-135.393 865.36,-104.867 847.007,-81.9894"/>
<polygon fill="red" stroke="red" stroke-width="0.265633" points="849.546,-79.561 840.559,-73.9509 844.086,-83.9413 849.546,-79.561"/>
</g>
<!-- enemyRadar[RightFront10]&#45;&gt;MoveForward -->
<g id="edge77" class="edge"><title>enemyRadar[RightFront10]&#45;&gt;MoveForward</title>
<path fill="none" stroke="green" stroke-width="0.450798" d="M910.917,-149.82C914.249,-140.389 920.012,-124.08 925.862,-107.525"/>
<polygon fill="green" stroke="green" stroke-width="0.450798" points="929.267,-108.394 929.298,-97.7991 922.667,-106.062 929.267,-108.394"/>
</g>
<!-- enemyRadar[RightFront10]&#45;&gt;MoveRight -->
<g id="edge1" class="edge"><title>enemyRadar[RightFront10]&#45;&gt;MoveRight</title>
<path fill="none" stroke="red" stroke-width="0.243065" d="M922.401,-149.992C940.891,-139.625 973.955,-120.989 1002.01,-104.652 1016.06,-96.47 1031.33,-87.4167 1045.04,-79.2205"/>
<polygon fill="red" stroke="red" stroke-width="0.243065" points="1047.02,-82.116 1053.8,-73.976 1043.42,-76.1103 1047.02,-82.116"/>
</g>
<!-- enemyRadar[RightFront10]&#45;&gt;MoveLeft -->
<g id="edge74" class="edge"><title>enemyRadar[RightFront10]&#45;&gt;MoveLeft</title>
<path fill="none" stroke="red" stroke-width="0.10828" d="M937.609,-149.973C949.234,-146.907 962.715,-143.475 975.013,-140.652 1054.53,-122.399 1078.4,-132.692 1155.01,-104.652 1173.42,-97.9135 1192.58,-87.9202 1208.69,-78.5374"/>
<polygon fill="red" stroke="red" stroke-width="0.10828" points="1210.5,-81.5339 1217.3,-73.4121 1206.92,-75.5186 1210.5,-81.5339"/>
</g>
<!-- enemyRadar[RightFront10]&#45;&gt;TurnLeft -->
<g id="edge35" class="edge"><title>enemyRadar[RightFront10]&#45;&gt;TurnLeft</title>
<path fill="none" stroke="red" stroke-width="0.197915" d="M934.178,-149.998C946.458,-146.549 961.365,-142.82 975.013,-140.652 1104.08,-120.145 1439.92,-151.279 1562.01,-104.652 1574.31,-99.9562 1586.12,-92.057 1596.22,-83.8453"/>
<polygon fill="red" stroke="red" stroke-width="0.197915" points="1598.61,-86.4079 1603.94,-77.248 1594.06,-81.0885 1598.61,-86.4079"/>
</g>
<!-- enemyRadar[LeftFront10] -->
<g id="node16" class="node"><title>enemyRadar[LeftFront10]</title>
<polygon fill="lightgray" stroke="black" points="1981.01,-168.037 1871.01,-168.037 1871.01,-150.037 1981.01,-150.037 1981.01,-168.037"/>
<text text-anchor="middle" x="1926.01" y="-156.837" font-family="Times,serif" font-size="9.00">enemyRadar[LeftFront10]</text>
</g>
<!-- enemyRadar[LeftFront10]&#45;&gt;Jump -->
<g id="edge30" class="edge"><title>enemyRadar[LeftFront10]&#45;&gt;Jump</title>
<path fill="none" stroke="red" stroke-width="0.122474" d="M1901.68,-150C1889.85,-146.46 1875.33,-142.657 1862.01,-140.652 1389.73,-69.5765 1258.79,-185.115 788.013,-104.652 741.634,-96.7248 690.161,-78.9211 657.706,-66.5205"/>
<polygon fill="red" stroke="red" stroke-width="0.122474" points="658.86,-63.2141 648.271,-62.8623 656.33,-69.7407 658.86,-63.2141"/>
</g>
<!-- enemyRadar[LeftFront10]&#45;&gt;MoveBackward -->
<g id="edge55" class="edge"><title>enemyRadar[LeftFront10]&#45;&gt;MoveBackward</title>
<path fill="none" stroke="green" stroke-width="0.31148" d="M1949.06,-149.994C1995.28,-133.859 2100.61,-97.0974 2167.23,-73.844"/>
<polygon fill="green" stroke="green" stroke-width="0.31148" points="2168.48,-77.1152 2176.77,-70.5153 2166.17,-70.5062 2168.48,-77.1152"/>
</g>
<!-- enemyRadar[LeftFront10]&#45;&gt;TurnRight -->
<g id="edge89" class="edge"><title>enemyRadar[LeftFront10]&#45;&gt;TurnRight</title>
<path fill="none" stroke="green" stroke-width="0.220602" d="M1900.4,-150.005C1888.78,-146.643 1874.81,-142.982 1862.01,-140.652 1695.98,-110.423 1646.44,-150.447 1484.01,-104.652 1461.86,-98.4059 1438.72,-87.6174 1419.82,-77.5385"/>
<polygon fill="green" stroke="green" stroke-width="0.220602" points="1421.36,-74.3914 1410.91,-72.6707 1418.01,-80.5352 1421.36,-74.3914"/>
</g>
<!-- enemyRadar[RightFront3.5] -->
<g id="node17" class="node"><title>enemyRadar[RightFront3.5]</title>
<polygon fill="lightgray" stroke="black" points="188.513,-168.037 71.5132,-168.037 71.5132,-150.037 188.513,-150.037 188.513,-168.037"/>
<text text-anchor="middle" x="130.013" y="-156.837" font-family="Times,serif" font-size="9.00">enemyRadar[RightFront3.5]</text>
</g>
<!-- enemyRadar[RightFront3.5]&#45;&gt;Shoot -->
<g id="edge62" class="edge"><title>enemyRadar[RightFront3.5]&#45;&gt;Shoot</title>
<path fill="none" stroke="green" stroke-width="0.324767" d="M156.513,-149.993C168.734,-146.586 183.498,-142.893 197.013,-140.652 408.062,-105.646 467.577,-148.283 677.013,-104.652 716.957,-96.3304 760.9,-79.9793 790.241,-67.9599"/>
<polygon fill="green" stroke="green" stroke-width="0.324767" points="791.714,-71.1379 799.605,-64.0676 789.028,-64.674 791.714,-71.1379"/>
</g>
<!-- enemyRadar[RightFront3.5]&#45;&gt;Jump -->
<g id="edge31" class="edge"><title>enemyRadar[RightFront3.5]&#45;&gt;Jump</title>
<path fill="none" stroke="green" stroke-width="0.277626" d="M159.615,-149.998C171.24,-146.935 184.721,-143.499 197.013,-140.652 342.074,-107.058 516.388,-73.6263 589.751,-59.8694"/>
<polygon fill="green" stroke="green" stroke-width="0.277626" points="590.642,-63.2636 599.828,-57.9847 589.354,-56.383 590.642,-63.2636"/>
</g>
<!-- enemyRadar[RightFront3.5]&#45;&gt;MoveRight -->
<g id="edge103" class="edge"><title>enemyRadar[RightFront3.5]&#45;&gt;MoveRight</title>
<path fill="none" stroke="red" stroke-width="0.314038" d="M155.842,-149.986C168.179,-146.489 183.228,-142.725 197.013,-140.652 374.089,-114.019 830.494,-156.094 1002.01,-104.652 1017.86,-99.8988 1033.81,-91.5878 1047.59,-83.0206"/>
<polygon fill="red" stroke="red" stroke-width="0.314038" points="1049.81,-85.753 1056.32,-77.3885 1046.02,-79.8722 1049.81,-85.753"/>
</g>
<!-- enemyRadar[LeftFront3.5] -->
<g id="node18" class="node"><title>enemyRadar[LeftFront3.5]</title>
<polygon fill="lightgray" stroke="black" points="1579.01,-168.037 1467.01,-168.037 1467.01,-150.037 1579.01,-150.037 1579.01,-168.037"/>
<text text-anchor="middle" x="1523.01" y="-156.837" font-family="Times,serif" font-size="9.00">enemyRadar[LeftFront3.5]</text>
</g>
<!-- enemyRadar[LeftFront3.5]&#45;&gt;Shoot -->
<g id="edge64" class="edge"><title>enemyRadar[LeftFront3.5]&#45;&gt;Shoot</title>
<path fill="none" stroke="green" stroke-width="0.167808" d="M1497.64,-149.999C1485.73,-146.55 1471.27,-142.821 1458.01,-140.652 1332.76,-120.155 1006.37,-150.489 888.013,-104.652 873.799,-99.1467 860.284,-89.274 849.368,-79.6478"/>
<polygon fill="green" stroke="green" stroke-width="0.167808" points="851.624,-76.9672 841.906,-72.7479 846.872,-82.1068 851.624,-76.9672"/>
</g>
<!-- enemyRadar[LeftFront3.5]&#45;&gt;Crouch -->
<g id="edge3" class="edge"><title>enemyRadar[LeftFront3.5]&#45;&gt;Crouch</title>
<path fill="none" stroke="green" stroke-width="0.170386" d="M1523.01,-149.82C1523.01,-137.612 1523.01,-113.877 1523.01,-93.0031"/>
<polygon fill="green" stroke="green" stroke-width="0.170386" points="1526.51,-92.7374 1523.01,-82.7374 1519.51,-92.7375 1526.51,-92.7374"/>
</g>
<!-- enemyRadar[LeftFront3.5]&#45;&gt;MoveRight -->
<g id="edge97" class="edge"><title>enemyRadar[LeftFront3.5]&#45;&gt;MoveRight</title>
<path fill="none" stroke="green" stroke-width="0.155837" d="M1495.99,-150.02C1484.38,-146.781 1470.61,-143.211 1458.01,-140.652 1345.42,-117.766 1312.39,-136.556 1202.01,-104.652 1178.24,-97.7789 1153.02,-86.8447 1132.37,-76.8311"/>
<polygon fill="green" stroke="green" stroke-width="0.155837" points="1133.74,-73.6038 1123.22,-72.313 1130.64,-79.8798 1133.74,-73.6038"/>
</g>
<!-- enemyRadar[LeftFront3.5]&#45;&gt;TurnLeft -->
<g id="edge17" class="edge"><title>enemyRadar[LeftFront3.5]&#45;&gt;TurnLeft</title>
<path fill="none" stroke="green" stroke-width="0.110122" d="M1531.17,-149.82C1545.03,-135.873 1573.82,-106.88 1596.25,-84.2966"/>
<polygon fill="green" stroke="green" stroke-width="0.110122" points="1599.02,-86.4763 1603.58,-76.9148 1594.05,-81.5434 1599.02,-86.4763"/>
</g>
<!-- enemyRadar[RightFront1.5] -->
<g id="node19" class="node"><title>enemyRadar[RightFront1.5]</title>
<polygon fill="lightgray" stroke="black" points="2503.51,-168.037 2386.51,-168.037 2386.51,-150.037 2503.51,-150.037 2503.51,-168.037"/>
<text text-anchor="middle" x="2445.01" y="-156.837" font-family="Times,serif" font-size="9.00">enemyRadar[RightFront1.5]</text>
</g>
<!-- enemyRadar[RightFront1.5]&#45;&gt;Crouch -->
<g id="edge39" class="edge"><title>enemyRadar[RightFront1.5]&#45;&gt;Crouch</title>
<path fill="none" stroke="red" stroke-width="0.471185" d="M2419.18,-149.989C2406.85,-146.494 2391.8,-142.729 2378.01,-140.652 2203.36,-114.328 1748.53,-168.917 1584.01,-104.652 1571.6,-99.8041 1559.9,-91.3445 1550.13,-82.6749"/>
<polygon fill="red" stroke="red" stroke-width="0.471185" points="1552.42,-80.025 1542.73,-75.7421 1547.63,-85.1333 1552.42,-80.025"/>
</g>
<!-- enemyRadar[RightFront1.5]&#45;&gt;MoveBackward -->
<g id="edge111" class="edge"><title>enemyRadar[RightFront1.5]&#45;&gt;MoveBackward</title>
<path fill="none" stroke="red" stroke-width="0.217309" d="M2428.19,-149.994C2397.33,-135.237 2330.38,-103.229 2281.97,-80.0793"/>
<polygon fill="red" stroke="red" stroke-width="0.217309" points="2283.38,-76.8767 2272.85,-75.7207 2280.36,-83.192 2283.38,-76.8767"/>
</g>
<!-- enemyRadar[RightFront1.5]&#45;&gt;MoveLeft -->
<g id="edge40" class="edge"><title>enemyRadar[RightFront1.5]&#45;&gt;MoveLeft</title>
<path fill="none" stroke="red" stroke-width="0.141904" d="M2419.51,-150.013C2407.12,-146.476 2391.93,-142.672 2378.01,-140.652 2148.06,-107.272 1555.75,-170.836 1333.01,-104.652 1316.18,-99.6503 1299.29,-90.5033 1285.04,-81.3014"/>
<polygon fill="red" stroke="red" stroke-width="0.141904" points="1286.8,-78.2636 1276.54,-75.6014 1282.9,-84.0776 1286.8,-78.2636"/>
</g>
<!-- enemyRadar[RightFront1.5]&#45;&gt;TurnLeft -->
<g id="edge109" class="edge"><title>enemyRadar[RightFront1.5]&#45;&gt;TurnLeft</title>
<path fill="none" stroke="red" stroke-width="0.169001" d="M2417.5,-149.982C2405.46,-146.697 2391.13,-143.103 2378.01,-140.652 2112.14,-90.9457 1787.69,-64.6791 1671.24,-56.3236"/>
<polygon fill="red" stroke="red" stroke-width="0.169001" points="1671.17,-52.8101 1660.95,-55.5932 1670.67,-59.7925 1671.17,-52.8101"/>
</g>
<!-- enemyRadar[LeftFront1.5] -->
<g id="node20" class="node"><title>enemyRadar[LeftFront1.5]</title>
<polygon fill="lightgray" stroke="black" points="2211.01,-231.421 2099.01,-231.421 2099.01,-213.421 2211.01,-213.421 2211.01,-231.421"/>
<text text-anchor="middle" x="2155.01" y="-220.221" font-family="Times,serif" font-size="9.00">enemyRadar[LeftFront1.5]</text>
</g>
<!-- enemyRadar[LeftFront1.5]&#45;&gt;Crouch -->
<g id="edge69" class="edge"><title>enemyRadar[LeftFront1.5]&#45;&gt;Crouch</title>
<path fill="none" stroke="green" stroke-width="0.259965" d="M2155.92,-213.197C2157.25,-196.548 2157.56,-158.894 2136.01,-140.652 2042.19,-61.2305 1698.07,-150.511 1584.01,-104.652 1571.65,-99.6813 1559.96,-91.1913 1550.19,-82.5316"/>
<polygon fill="green" stroke="green" stroke-width="0.259965" points="1552.48,-79.8823 1542.78,-75.6143 1547.7,-84.998 1552.48,-79.8823"/>
</g>
<!-- enemyRadar[LeftFront1.5]&#45;&gt;MoveForward -->
<g id="edge33" class="edge"><title>enemyRadar[LeftFront1.5]&#45;&gt;MoveForward</title>
<path fill="none" stroke="red" stroke-width="0.484172" d="M2098.89,-220.733C1839.12,-217.416 765.053,-202.22 741.013,-177.421 729.639,-165.687 731.273,-153.774 741.013,-140.652 773.946,-96.2822 809.526,-127.107 860.013,-104.652 872.314,-99.1809 885.019,-92.2715 896.739,-85.3104"/>
<polygon fill="red" stroke="red" stroke-width="0.484172" points="898.753,-88.1818 905.485,-80.0002 895.121,-82.1982 898.753,-88.1818"/>
</g>
<!-- enemyRadar[LeftFront1.5]&#45;&gt;MoveBackward -->
<g id="edge19" class="edge"><title>enemyRadar[LeftFront1.5]&#45;&gt;MoveBackward</title>
<path fill="none" stroke="green" stroke-width="0.267241" d="M2211.43,-220.984C2341.98,-219.387 2656.21,-211.956 2688.01,-177.421 2699.08,-165.4 2698.44,-153.235 2688.01,-140.652 2637.96,-80.2512 2402.65,-61.3227 2288.47,-55.6395"/>
<polygon fill="green" stroke="green" stroke-width="0.267241" points="2288.63,-52.1431 2278.47,-55.1603 2288.29,-59.1351 2288.63,-52.1431"/>
</g>
<!-- enemyRadar[LeftFront1.5]&#45;&gt;MoveRight -->
<g id="edge6" class="edge"><title>enemyRadar[LeftFront1.5]&#45;&gt;MoveRight</title>
<path fill="none" stroke="green" stroke-width="0.154017" d="M2098.94,-220.718C1840.61,-217.349 776.832,-202 753.013,-177.421 741.64,-165.686 742.316,-153.006 753.013,-140.652 789.609,-98.3845 949.321,-123.34 1002.01,-104.652 1017.47,-99.1689 1033.22,-90.7573 1046.94,-82.3199"/>
<polygon fill="green" stroke="green" stroke-width="0.154017" points="1049.07,-85.1138 1055.64,-76.8021 1045.32,-79.2024 1049.07,-85.1138"/>
</g>
<!-- enemyRadar[LeftFront1.5]&#45;&gt;TurnRight -->
<g id="edge26" class="edge"><title>enemyRadar[LeftFront1.5]&#45;&gt;TurnRight</title>
<path fill="none" stroke="red" stroke-width="0.22271" d="M2119.86,-213.4C2093.58,-206.421 2057.43,-194.686 2029.01,-177.421 2008.65,-165.052 2011.83,-150.224 1990.01,-140.652 1886.79,-95.3557 1592.87,-133.942 1484.01,-104.652 1461.79,-98.6713 1438.64,-87.913 1419.76,-77.7854"/>
<polygon fill="red" stroke="red" stroke-width="0.22271" points="1421.3,-74.6395 1410.85,-72.8881 1417.93,-80.7734 1421.3,-74.6395"/>
</g>
<!-- enemyRadar[LeftFront1.5]&#45;&gt;TurnLeft -->
<g id="edge73" class="edge"><title>enemyRadar[LeftFront1.5]&#45;&gt;TurnLeft</title>
<path fill="none" stroke="green" stroke-width="0.131081" stroke-dasharray="1,5" d="M2211.33,-218.533C2307.13,-213.04 2493.38,-199.612 2513.01,-177.421 2523.84,-165.181 2523.99,-152.761 2513.01,-140.652 2511.22,-138.67 1849.46,-74.7639 1670.94,-57.557"/>
<polygon fill="green" stroke="green" stroke-width="0.131081" points="1671.15,-54.0606 1660.86,-56.5851 1670.47,-61.0283 1671.15,-54.0606"/>
</g>
<!-- 13 -->
<g id="node34" class="node"><title>13</title>
<ellipse fill="white" stroke="black" cx="2628.01" cy="-159.037" rx="18.2703" ry="18.2703"/>
<text text-anchor="middle" x="2628.01" y="-156.837" font-family="Times,serif" font-size="9.00">13</text>
</g>
<!-- enemyRadar[LeftFront1.5]&#45;&gt;13 -->
<g id="edge113" class="edge"><title>enemyRadar[LeftFront1.5]&#45;&gt;13</title>
<path fill="none" stroke="green" stroke-width="0.487278" d="M2211.07,-219.172C2314.31,-214.489 2530.38,-202.025 2601.01,-177.421 2602.26,-176.988 2603.5,-176.487 2604.74,-175.934"/>
<polygon fill="green" stroke="green" stroke-width="0.487278" points="2606.73,-178.829 2613.82,-170.948 2603.37,-172.693 2606.73,-178.829"/>
</g>
<!-- OnTarget -->
<g id="node21" class="node"><title>OnTarget</title>
<polygon fill="lightgray" stroke="black" points="1167.01,-168.037 1117.01,-168.037 1117.01,-150.037 1167.01,-150.037 1167.01,-168.037"/>
<text text-anchor="middle" x="1142.01" y="-156.837" font-family="Times,serif" font-size="9.00">OnTarget</text>
</g>
<!-- OnTarget&#45;&gt;Shoot -->
<g id="edge93" class="edge"><title>OnTarget&#45;&gt;Shoot</title>
<path fill="none" stroke="green" stroke-width="0.597901" d="M1128.54,-149.923C1122.46,-146.587 1115.07,-142.969 1108.01,-140.652 1013.88,-109.727 978.518,-144.968 888.013,-104.652 874.089,-98.4492 860.622,-88.4623 849.663,-78.9392"/>
<polygon fill="green" stroke="green" stroke-width="0.597901" points="851.919,-76.261 842.155,-72.1477 847.223,-81.452 851.919,-76.261"/>
</g>
<!-- OnTarget&#45;&gt;Crouch -->
<g id="edge87" class="edge"><title>OnTarget&#45;&gt;Crouch</title>
<path fill="none" stroke="red" stroke-width="0.108711" d="M1155.55,-150.018C1161.87,-146.617 1169.62,-142.921 1177.01,-140.652 1291.06,-105.651 1331.05,-145.837 1443.01,-104.652 1460.07,-98.3774 1477.26,-88.0014 1491.31,-78.2144"/>
<polygon fill="red" stroke="red" stroke-width="0.108711" points="1493.54,-80.9177 1499.62,-72.2387 1489.46,-75.2339 1493.54,-80.9177"/>
</g>
<!-- OnTarget&#45;&gt;MoveForward -->
<g id="edge29" class="edge"><title>OnTarget&#45;&gt;MoveForward</title>
<path fill="none" stroke="green" stroke-width="0.224453" d="M1126.25,-150.002C1106,-139.645 1069.77,-121.019 1039.01,-104.652 1025.01,-97.2006 1009.9,-89.0156 995.977,-81.4134"/>
<polygon fill="green" stroke="green" stroke-width="0.224453" points="997.475,-78.2436 987.022,-76.5153 994.116,-84.3849 997.475,-78.2436"/>
</g>
<!-- OnTarget&#45;&gt;MoveRight -->
<g id="edge98" class="edge"><title>OnTarget&#45;&gt;MoveRight</title>
<path fill="none" stroke="red" stroke-width="0.17235" d="M1137.78,-149.82C1131.91,-138.448 1120.89,-117.074 1110.71,-97.3279"/>
<polygon fill="red" stroke="red" stroke-width="0.17235" points="1113.8,-95.695 1106.11,-88.4115 1107.58,-98.9034 1113.8,-95.695"/>
</g>
<!-- OnTarget&#45;&gt;MoveLeft -->
<g id="edge82" class="edge"><title>OnTarget&#45;&gt;MoveLeft</title>
<path fill="none" stroke="green" stroke-width="0.465537" d="M1150.33,-149.82C1164.01,-136.306 1191.99,-108.666 1214.51,-86.4185"/>
<polygon fill="green" stroke="green" stroke-width="0.465537" points="1217.26,-88.6264 1221.91,-79.1087 1212.34,-83.6464 1217.26,-88.6264"/>
</g>
<!-- OnTarget&#45;&gt;TurnRight -->
<g id="edge83" class="edge"><title>OnTarget&#45;&gt;TurnRight</title>
<path fill="none" stroke="green" stroke-width="0.12615" d="M1156.71,-149.917C1162.86,-146.737 1170.16,-143.239 1177.01,-140.652 1235.11,-118.73 1256.29,-132.061 1312.01,-104.652 1323,-99.2453 1333.96,-91.8969 1343.73,-84.4513"/>
<polygon fill="green" stroke="green" stroke-width="0.12615" points="1345.96,-87.1561 1351.64,-78.2146 1341.62,-81.6602 1345.96,-87.1561"/>
</g>
<!-- Health -->
<g id="node22" class="node"><title>Health</title>
<polygon fill="lightgray" stroke="black" points="1449.01,-168.037 1409.01,-168.037 1409.01,-150.037 1449.01,-150.037 1449.01,-168.037"/>
<text text-anchor="middle" x="1429.01" y="-156.837" font-family="Times,serif" font-size="9.00">Health</text>
</g>
<!-- Health&#45;&gt;Jump -->
<g id="edge106" class="edge"><title>Health&#45;&gt;Jump</title>
<path fill="none" stroke="red" stroke-width="0.515431" d="M1418.32,-149.927C1413.08,-146.418 1406.52,-142.66 1400.01,-140.652 1139.66,-60.289 1055.99,-153.943 788.013,-104.652 741.737,-96.1399 690.24,-78.4761 657.751,-66.2664"/>
<polygon fill="red" stroke="red" stroke-width="0.515431" points="658.897,-62.9574 648.306,-62.6685 656.405,-69.4989 658.897,-62.9574"/>
</g>
<!-- Health&#45;&gt;Crouch -->
<g id="edge80" class="edge"><title>Health&#45;&gt;Crouch</title>
<path fill="none" stroke="green" stroke-width="0.19483" d="M1436.39,-149.82C1449.09,-135.674 1475.68,-106.053 1496.07,-83.3382"/>
<polygon fill="green" stroke="green" stroke-width="0.19483" points="1498.92,-85.408 1502.99,-75.6285 1493.71,-80.7318 1498.92,-85.408"/>
</g>
<!-- Health&#45;&gt;MoveForward -->
<g id="edge25" class="edge"><title>Health&#45;&gt;MoveForward</title>
<path fill="none" stroke="red" stroke-width="0.204574" d="M1418.01,-149.865C1412.81,-146.433 1406.37,-142.755 1400.01,-140.652 1246.94,-89.9748 1193.07,-152.238 1039.01,-104.652 1023.71,-99.9253 1008.07,-92.569 994.039,-84.8877"/>
<polygon fill="red" stroke="red" stroke-width="0.204574" points="995.502,-81.6945 985.075,-79.8174 992.056,-87.7873 995.502,-81.6945"/>
</g>
<!-- Health&#45;&gt;MoveLeft -->
<g id="edge102" class="edge"><title>Health&#45;&gt;MoveLeft</title>
<path fill="none" stroke="red" stroke-width="0.697192" d="M1415.81,-149.942C1410.88,-146.969 1405.22,-143.609 1400.01,-140.652 1370.62,-123.957 1362.38,-121.394 1333.01,-104.652 1318.01,-96.0968 1301.73,-86.3754 1287.47,-77.7114"/>
<polygon fill="red" stroke="red" stroke-width="0.697192" points="1289.24,-74.6926 1278.88,-72.4733 1285.59,-80.6687 1289.24,-74.6926"/>
</g>
<!-- Health&#45;&gt;TurnLeft -->
<g id="edge13" class="edge"><title>Health&#45;&gt;TurnLeft</title>
<path fill="none" stroke="red" stroke-width="0.194812" d="M1441.12,-150.012C1446.21,-146.846 1452.27,-143.333 1458.01,-140.652 1502.34,-119.967 1519.11,-128.137 1562.01,-104.652 1573.25,-98.5031 1584.53,-90.4205 1594.47,-82.4937"/>
<polygon fill="red" stroke="red" stroke-width="0.194812" points="1596.97,-84.9706 1602.47,-75.9178 1592.53,-79.5621 1596.97,-84.9706"/>
</g>
<!-- TakingDmg -->
<g id="node23" class="node"><title>TakingDmg</title>
<polygon fill="lightgray" stroke="black" points="1656.51,-168.037 1597.51,-168.037 1597.51,-150.037 1656.51,-150.037 1656.51,-168.037"/>
<text text-anchor="middle" x="1627.01" y="-156.837" font-family="Times,serif" font-size="9.00">TakingDmg</text>
</g>
<!-- TakingDmg&#45;&gt;Jump -->
<g id="edge34" class="edge"><title>TakingDmg&#45;&gt;Jump</title>
<path fill="none" stroke="red" stroke-width="0.293351" d="M1612.29,-149.9C1605.17,-146.385 1596.38,-142.63 1588.01,-140.652 1241.65,-58.7671 1138.49,-166.624 788.013,-104.652 741.68,-96.4591 690.197,-78.719 657.726,-66.4051"/>
<polygon fill="red" stroke="red" stroke-width="0.293351" points="658.877,-63.0975 648.287,-62.7743 656.364,-69.6309 658.877,-63.0975"/>
</g>
<!-- TakingDmg&#45;&gt;MoveForward -->
<g id="edge10" class="edge"><title>TakingDmg&#45;&gt;MoveForward</title>
<path fill="none" stroke="red" stroke-width="0.341973" d="M1612.27,-149.977C1605.15,-146.479 1596.36,-142.716 1588.01,-140.652 1350.64,-81.9573 1273.84,-172.846 1039.01,-104.652 1023.49,-100.143 1007.66,-92.7755 993.535,-85.0117"/>
<polygon fill="red" stroke="red" stroke-width="0.341973" points="994.939,-81.7833 984.517,-79.8786 991.476,-87.8669 994.939,-81.7833"/>
</g>
<!-- TakingDmg&#45;&gt;MoveBackward -->
<g id="edge20" class="edge"><title>TakingDmg&#45;&gt;MoveBackward</title>
<path fill="none" stroke="green" stroke-width="0.498263" d="M1642.59,-149.954C1649.59,-146.624 1658.05,-143.002 1666.01,-140.652 1842.05,-88.692 2058.88,-66.0888 2163.58,-57.6482"/>
<polygon fill="green" stroke="green" stroke-width="0.498263" points="2163.97,-61.1286 2173.66,-56.8516 2163.42,-54.1503 2163.97,-61.1286"/>
</g>
<!-- TakingDmg&#45;&gt;MoveLeft -->
<g id="edge71" class="edge"><title>TakingDmg&#45;&gt;MoveLeft</title>
<path fill="none" stroke="red" stroke-width="0.199783" d="M1611.45,-149.899C1604.46,-146.559 1595.99,-142.945 1588.01,-140.652 1478.01,-109.044 1440.85,-143.01 1333.01,-104.652 1316.6,-98.8151 1299.91,-89.5913 1285.71,-80.5629"/>
<polygon fill="red" stroke="red" stroke-width="0.199783" points="1287.5,-77.5502 1277.21,-74.9987 1283.66,-83.4059 1287.5,-77.5502"/>
</g>
<!-- TakingDmg&#45;&gt;TurnRight -->
<g id="edge96" class="edge"><title>TakingDmg&#45;&gt;TurnRight</title>
<path fill="none" stroke="green" stroke-width="0.334705" d="M1609.68,-149.924C1602.96,-146.885 1595.18,-143.485 1588.01,-140.652 1542.52,-122.678 1529.18,-123.427 1484.01,-104.652 1462.92,-95.8838 1440.07,-84.9017 1421.09,-75.3483"/>
<polygon fill="green" stroke="green" stroke-width="0.334705" points="1422.61,-72.1946 1412.11,-70.7892 1419.45,-78.4365 1422.61,-72.1946"/>
</g>
<!-- TakingDmg&#45;&gt;TurnLeft -->
<g id="edge94" class="edge"><title>TakingDmg&#45;&gt;TurnLeft</title>
<path fill="none" stroke="red" stroke-width="0.268941" d="M1627.01,-149.82C1627.01,-138.325 1627.01,-116.609 1627.01,-96.6849"/>
<polygon fill="red" stroke="red" stroke-width="0.268941" points="1630.51,-96.4929 1627.01,-86.493 1623.51,-96.493 1630.51,-96.4929"/>
</g>
<!-- bias -->
<g id="node24" class="node"><title>bias</title>
<polygon fill="lightgray" stroke="black" points="2591.51,-168.037 2560.51,-168.037 2560.51,-150.037 2591.51,-150.037 2591.51,-168.037"/>
<text text-anchor="middle" x="2576.01" y="-156.837" font-family="Times,serif" font-size="9.00">bias</text>
</g>
<!-- bias&#45;&gt;MoveBackward -->
<g id="edge2" class="edge"><title>bias&#45;&gt;MoveBackward</title>
<path fill="none" stroke="green" stroke-width="0.387398" d="M2563.83,-150.014C2558.52,-146.774 2552.12,-143.205 2546.01,-140.652 2459.26,-104.402 2353.01,-78.8712 2287.41,-65.1309"/>
<polygon fill="green" stroke="green" stroke-width="0.387398" points="2287.75,-61.6256 2277.24,-63.027 2286.33,-68.4804 2287.75,-61.6256"/>
</g>
<!-- bias&#45;&gt;MoveLeft -->
<g id="edge88" class="edge"><title>bias&#45;&gt;MoveLeft</title>
<path fill="none" stroke="green" stroke-width="0.424373" d="M2560.44,-152.62C2547.83,-148.505 2529.51,-143.142 2513.01,-140.652 2253.61,-101.48 1584.64,-178.882 1333.01,-104.652 1316.17,-99.6835 1299.28,-90.5432 1285.03,-81.3374"/>
<polygon fill="green" stroke="green" stroke-width="0.424373" points="1286.79,-78.2996 1276.53,-75.6338 1282.89,-84.1122 1286.79,-78.2996"/>
</g>
<!-- bias&#45;&gt;TurnLeft -->
<g id="edge36" class="edge"><title>bias&#45;&gt;TurnLeft</title>
<path fill="none" stroke="red" stroke-width="0.300702" d="M2564.88,-150.035C2559.45,-146.549 2552.66,-142.78 2546.01,-140.652 2384.02,-88.8127 2334.34,-120.728 2165.01,-104.652 1981.31,-87.2101 1762.34,-66.2749 1670.71,-57.508"/>
<polygon fill="red" stroke="red" stroke-width="0.300702" points="1670.98,-54.018 1660.69,-56.5495 1670.31,-60.9861 1670.98,-54.018"/>
</g>
<!-- Jump&#45;&gt;Jump -->
<g id="edge4" class="edge"><title>Jump&#45;&gt;Jump</title>
<path fill="none" stroke="red" stroke-width="0.577557" stroke-dasharray="1,5" d="M643.321,-70.26C655.992,-75.6946 668.469,-69.7165 668.469,-52.3259 668.469,-39.5547 661.74,-32.9383 653.147,-32.4769"/>
<polygon fill="red" stroke="red" stroke-width="0.577557" points="652.467,-29.0435 643.321,-34.3918 653.806,-35.9143 652.467,-29.0435"/>
</g>
<!-- MoveRight&#45;&gt;MoveRight -->
<g id="edge65" class="edge"><title>MoveRight&#45;&gt;MoveRight</title>
<path fill="none" stroke="red" stroke-width="0.206029" d="M1123.31,-72.1815C1135.98,-72.6085 1146.32,-65.99 1146.32,-52.3259 1146.32,-42.5049 1140.98,-36.3235 1133.27,-33.782"/>
<polygon fill="red" stroke="red" stroke-width="0.206029" points="1133.68,-30.3058 1123.31,-32.4703 1132.77,-37.2459 1133.68,-30.3058"/>
</g>
<!-- MoveLeft&#45;&gt;MoveLeft -->
<g id="edge7" class="edge"><title>MoveLeft&#45;&gt;MoveLeft</title>
<path fill="none" stroke="red" stroke-width="0.266412" d="M1279.26,-72.0541C1292.02,-73.2906 1302.78,-66.7146 1302.78,-52.3259 1302.78,-41.984 1297.22,-35.6782 1289.36,-33.4083"/>
<polygon fill="red" stroke="red" stroke-width="0.266412" points="1289.5,-29.9091 1279.26,-32.5977 1288.94,-36.8867 1289.5,-29.9091"/>
</g>
<!-- TurnRight&#45;&gt;TurnRight -->
<g id="edge58" class="edge"><title>TurnRight&#45;&gt;TurnRight</title>
<path fill="none" stroke="green" stroke-width="0.206971" d="M1410.94,-72.0796C1423.74,-73.1956 1434.49,-66.6111 1434.49,-52.3259 1434.49,-42.0584 1428.94,-35.7691 1421.06,-33.4579"/>
<polygon fill="green" stroke="green" stroke-width="0.206971" points="1421.21,-29.9573 1410.94,-32.5722 1420.6,-36.9307 1421.21,-29.9573"/>
</g>
<!-- 13&#45;&gt;TurnLeft -->
<g id="edge114" class="edge"><title>13&#45;&gt;TurnLeft</title>
<path fill="none" stroke="green" stroke-width="0.154239" d="M2613.83,-147.077C2609.88,-144.546 2605.45,-142.157 2601.01,-140.652 2416.89,-78.1571 2358.69,-121.885 2165.01,-104.652 1981.21,-88.2967 1762.29,-66.7785 1670.69,-57.6831"/>
<polygon fill="green" stroke="green" stroke-width="0.154239" points="1670.98,-54.194 1660.68,-56.6878 1670.28,-61.1597 1670.98,-54.194"/>
</g>
<!-- 21&#45;&gt;Jump -->
<g id="edge116" class="edge"><title>21&#45;&gt;Jump</title>
<path fill="none" stroke="red" stroke-width="0.332564" d="M49.2711,-147.291C53.2233,-144.758 57.6352,-142.315 62.0132,-140.652 251.467,-68.6972 498.294,-55.9828 589.303,-53.7741"/>
<polygon fill="red" stroke="red" stroke-width="0.332564" points="589.445,-57.272 599.367,-53.5581 589.294,-50.2736 589.445,-57.272"/>
</g>
</g>
</svg>
