<?xml version="1.0" encoding="UTF-8" standalone="no"?>
<!DOCTYPE svg PUBLIC "-//W3C//DTD SVG 1.1//EN"
 "http://www.w3.org/Graphics/SVG/1.1/DTD/svg11.dtd">
<!-- Generated by graphviz version 2.38.0 (20140413.2041)
 -->
<!-- Title: %3 Pages: 1 -->
<svg width="2683pt" height="295pt"
 viewBox="0.00 0.00 2682.71 294.58" xmlns="http://www.w3.org/2000/svg" xmlns:xlink="http://www.w3.org/1999/xlink">
<g id="graph0" class="graph" transform="scale(1 1) rotate(0) translate(4 290.576)">
<title>%3</title>
<polygon fill="white" stroke="none" points="-4,4 -4,-290.576 2678.71,-290.576 2678.71,4 -4,4"/>
<!-- wallRadar[1,0] -->
<g id="node1" class="node"><title>wallRadar[1,0]</title>
<polygon fill="lightgray" stroke="black" points="348.5,-220.362 278.5,-220.362 278.5,-202.362 348.5,-202.362 348.5,-220.362"/>
<text text-anchor="middle" x="313.5" y="-209.162" font-family="Times,serif" font-size="9.00">wallRadar[1,0]</text>
</g>
<!-- Move Forward/Backward -->
<g id="node27" class="node"><title>Move Forward/Backward</title>
<ellipse fill="lightblue" stroke="black" cx="892.5" cy="-77.0746" rx="77.1494" ry="77.1494"/>
<text text-anchor="middle" x="892.5" y="-74.8746" font-family="Times,serif" font-size="9.00">Move Forward/Backward</text>
</g>
<!-- wallRadar[1,0]&#45;&gt;Move Forward/Backward -->
<g id="edge19" class="edge"><title>wallRadar[1,0]&#45;&gt;Move Forward/Backward</title>
<path fill="none" stroke="red" stroke-width="0.273275" d="M329.04,-202.186C337.311,-198.103 347.76,-193.361 357.5,-190.149 511.815,-139.256 699.042,-106.305 806.119,-90.0622"/>
<polygon fill="red" stroke="red" stroke-width="0.273275" points="806.859,-93.4904 816.228,-88.5425 805.818,-86.5682 806.859,-93.4904"/>
</g>
<!-- Turn Left/Right -->
<g id="node29" class="node"><title>Turn Left/Right</title>
<ellipse fill="lightblue" stroke="black" cx="403.5" cy="-77.0746" rx="50.8235" ry="50.8235"/>
<text text-anchor="middle" x="403.5" y="-74.8746" font-family="Times,serif" font-size="9.00">Turn Left/Right</text>
</g>
<!-- wallRadar[1,0]&#45;&gt;Turn Left/Right -->
<g id="edge11" class="edge"><title>wallRadar[1,0]&#45;&gt;Turn Left/Right</title>
<path fill="none" stroke="red" stroke-width="0.524111" d="M319.13,-202.087C329.104,-187.426 350.601,-155.829 369.398,-128.199"/>
<polygon fill="red" stroke="red" stroke-width="0.524111" points="372.398,-130.012 375.13,-119.775 366.611,-126.075 372.398,-130.012"/>
</g>
<!-- wallRadar[0,1] -->
<g id="node2" class="node"><title>wallRadar[0,1]</title>
<polygon fill="lightgray" stroke="black" points="1397.5,-220.362 1327.5,-220.362 1327.5,-202.362 1397.5,-202.362 1397.5,-220.362"/>
<text text-anchor="middle" x="1362.5" y="-209.162" font-family="Times,serif" font-size="9.00">wallRadar[0,1]</text>
</g>
<!-- Move Left/Right -->
<g id="node28" class="node"><title>Move Left/Right</title>
<ellipse fill="lightblue" stroke="black" cx="1362.5" cy="-77.0746" rx="53.9813" ry="53.9813"/>
<text text-anchor="middle" x="1362.5" y="-74.8746" font-family="Times,serif" font-size="9.00">Move Left/Right</text>
</g>
<!-- wallRadar[0,1]&#45;&gt;Move Left/Right -->
<g id="edge50" class="edge"><title>wallRadar[0,1]&#45;&gt;Move Left/Right</title>
<path fill="none" stroke="red" stroke-width="0.706507" d="M1362.5,-202.087C1362.5,-189.664 1362.5,-165.08 1362.5,-141.055"/>
<polygon fill="red" stroke="red" stroke-width="0.706507" points="1366,-140.829 1362.5,-130.829 1359,-140.829 1366,-140.829"/>
</g>
<!-- wallRadar[&#45;1,0] -->
<g id="node3" class="node"><title>wallRadar[&#45;1,0]</title>
<polygon fill="lightgray" stroke="black" points="218,-286.576 145,-286.576 145,-268.576 218,-268.576 218,-286.576"/>
<text text-anchor="middle" x="181.5" y="-275.376" font-family="Times,serif" font-size="9.00">wallRadar[&#45;1,0]</text>
</g>
<!-- Shoot -->
<g id="node25" class="node"><title>Shoot</title>
<ellipse fill="lightblue" stroke="black" cx="1840.5" cy="-77.0746" rx="26.7407" ry="26.7407"/>
<text text-anchor="middle" x="1840.5" y="-74.8746" font-family="Times,serif" font-size="9.00">Shoot</text>
</g>
<!-- wallRadar[&#45;1,0]&#45;&gt;Shoot -->
<g id="edge4" class="edge"><title>wallRadar[&#45;1,0]&#45;&gt;Shoot</title>
<path fill="none" stroke="red" stroke-width="0.261141" d="M218.158,-276.476C487.401,-275.661 2149.72,-269.151 2185.5,-232.576 2198.69,-219.097 2197.35,-204.813 2185.5,-190.149 2137.49,-130.765 2090.26,-177.336 2017.5,-154.149 1965.8,-137.672 1908.53,-111.523 1873.53,-94.581"/>
<polygon fill="red" stroke="red" stroke-width="0.261141" points="1874.79,-91.3022 1864.27,-90.0622 1871.72,-97.5931 1874.79,-91.3022"/>
</g>
<!-- wallRadar[&#45;1,0]&#45;&gt;Move Left/Right -->
<g id="edge34" class="edge"><title>wallRadar[&#45;1,0]&#45;&gt;Move Left/Right</title>
<path fill="none" stroke="green" stroke-width="0.395365" d="M218.214,-276.423C376.312,-275.542 994.56,-269.732 1072.5,-232.576 1095.35,-221.682 1090.04,-205.051 1110.5,-190.149 1169.71,-147.029 1248.14,-115.423 1301.68,-96.9675"/>
<polygon fill="green" stroke="green" stroke-width="0.395365" points="1303.03,-100.204 1311.38,-93.6747 1300.78,-93.5761 1303.03,-100.204"/>
</g>
<!-- wallRadar[&#45;1,0]&#45;&gt;Turn Left/Right -->
<g id="edge29" class="edge"><title>wallRadar[&#45;1,0]&#45;&gt;Turn Left/Right</title>
<path fill="none" stroke="red" stroke-width="0.238445" stroke-dasharray="1,5" d="M167.597,-268.478C156.044,-260.867 140.419,-248.304 133.5,-232.576 125.907,-215.316 123.03,-205.832 133.5,-190.149 179.911,-120.634 278.35,-94.1764 342.668,-84.1466"/>
<polygon fill="red" stroke="red" stroke-width="0.238445" points="343.3,-87.5914 352.684,-82.6739 342.281,-80.6659 343.3,-87.5914"/>
</g>
<!-- 201 -->
<g id="node31" class="node"><title>201</title>
<ellipse fill="white" stroke="black" cx="163.5" cy="-211.362" rx="21.4286" ry="21.4286"/>
<text text-anchor="middle" x="163.5" y="-209.162" font-family="Times,serif" font-size="9.00">201</text>
</g>
<!-- wallRadar[&#45;1,0]&#45;&gt;201 -->
<g id="edge64" class="edge"><title>wallRadar[&#45;1,0]&#45;&gt;201</title>
<path fill="none" stroke="green" stroke-width="0.279888" d="M179.22,-268.443C177.325,-261.68 174.505,-251.621 171.774,-241.881"/>
<polygon fill="green" stroke="green" stroke-width="0.279888" points="175.073,-240.682 169.004,-231.998 168.333,-242.572 175.073,-240.682"/>
</g>
<!-- wallRadar[0,&#45;1] -->
<g id="node4" class="node"><title>wallRadar[0,&#45;1]</title>
<polygon fill="lightgray" stroke="black" points="440,-220.362 367,-220.362 367,-202.362 440,-202.362 440,-220.362"/>
<text text-anchor="middle" x="403.5" y="-209.162" font-family="Times,serif" font-size="9.00">wallRadar[0,&#45;1]</text>
</g>
<!-- wallRadar[0,&#45;1]&#45;&gt;Move Forward/Backward -->
<g id="edge18" class="edge"><title>wallRadar[0,&#45;1]&#45;&gt;Move Forward/Backward</title>
<path fill="none" stroke="red" stroke-width="0.289648" d="M420.271,-202.189C428.874,-198.204 439.6,-193.55 449.5,-190.149 571.356,-148.287 716.899,-114.433 807.028,-95.2744"/>
<polygon fill="red" stroke="red" stroke-width="0.289648" points="807.866,-98.6746 816.926,-93.1821 806.419,-91.8259 807.866,-98.6746"/>
</g>
<!-- wallRadar[0,&#45;1]&#45;&gt;Turn Left/Right -->
<g id="edge1" class="edge"><title>wallRadar[0,&#45;1]&#45;&gt;Turn Left/Right</title>
<path fill="none" stroke="red" stroke-width="0.927712" stroke-dasharray="1,5" d="M403.5,-202.087C403.5,-189.211 403.5,-163.271 403.5,-138.428"/>
<polygon fill="red" stroke="red" stroke-width="0.927712" points="407,-138.259 403.5,-128.259 400,-138.259 407,-138.259"/>
</g>
<!-- wallRadar[0.7,0.7] -->
<g id="node5" class="node"><title>wallRadar[0.7,0.7]</title>
<polygon fill="lightgray" stroke="black" points="1940,-220.362 1857,-220.362 1857,-202.362 1940,-202.362 1940,-220.362"/>
<text text-anchor="middle" x="1898.5" y="-209.162" font-family="Times,serif" font-size="9.00">wallRadar[0.7,0.7]</text>
</g>
<!-- wallRadar[0.7,0.7]&#45;&gt;Shoot -->
<g id="edge44" class="edge"><title>wallRadar[0.7,0.7]&#45;&gt;Shoot</title>
<path fill="none" stroke="green" stroke-width="0.863764" d="M1894.87,-202.087C1887.08,-184.325 1868.4,-141.703 1855.11,-111.396"/>
<polygon fill="green" stroke="green" stroke-width="0.863764" points="1858.23,-109.789 1851.01,-102.036 1851.82,-112.6 1858.23,-109.789"/>
</g>
<!-- wallRadar[0.7,0.7]&#45;&gt;Move Left/Right -->
<g id="edge56" class="edge"><title>wallRadar[0.7,0.7]&#45;&gt;Move Left/Right</title>
<path fill="none" stroke="red" stroke-width="0.188833" d="M1879.85,-202.19C1870.3,-198.205 1858.41,-193.551 1847.5,-190.149 1698.44,-143.678 1518.22,-106.98 1425.05,-89.4055"/>
<polygon fill="red" stroke="red" stroke-width="0.188833" points="1425.7,-85.965 1415.22,-87.561 1424.41,-92.845 1425.7,-85.965"/>
</g>
<!-- wallRadar[&#45;0.7,0.7] -->
<g id="node6" class="node"><title>wallRadar[&#45;0.7,0.7]</title>
<polygon fill="lightgray" stroke="black" points="1309.5,-220.362 1223.5,-220.362 1223.5,-202.362 1309.5,-202.362 1309.5,-220.362"/>
<text text-anchor="middle" x="1266.5" y="-209.162" font-family="Times,serif" font-size="9.00">wallRadar[&#45;0.7,0.7]</text>
</g>
<!-- wallRadar[&#45;0.7,0.7]&#45;&gt;Shoot -->
<g id="edge38" class="edge"><title>wallRadar[&#45;0.7,0.7]&#45;&gt;Shoot</title>
<path fill="none" stroke="green" stroke-width="0.297891" d="M1285.02,-202.334C1294.84,-198.291 1307.18,-193.541 1318.5,-190.149 1497.49,-136.518 1718.28,-97.8542 1804.04,-83.8424"/>
<polygon fill="green" stroke="green" stroke-width="0.297891" points="1804.74,-87.2742 1814.06,-82.2185 1803.62,-80.3645 1804.74,-87.2742"/>
</g>
<!-- Jump/Crouch -->
<g id="node26" class="node"><title>Jump/Crouch</title>
<ellipse fill="lightblue" stroke="black" cx="2072.5" cy="-77.0746" rx="45.9239" ry="45.9239"/>
<text text-anchor="middle" x="2072.5" y="-74.8746" font-family="Times,serif" font-size="9.00">Jump/Crouch</text>
</g>
<!-- wallRadar[&#45;0.7,0.7]&#45;&gt;Jump/Crouch -->
<g id="edge13" class="edge"><title>wallRadar[&#45;0.7,0.7]&#45;&gt;Jump/Crouch</title>
<path fill="none" stroke="green" stroke-width="0.232925" d="M1283.42,-202.263C1293.39,-197.879 1306.39,-192.826 1318.5,-190.149 1561.16,-136.502 1633.83,-207.735 1876.5,-154.149 1927.76,-142.83 1983.28,-120.221 2022.1,-102.578"/>
<polygon fill="green" stroke="green" stroke-width="0.232925" points="2023.97,-105.568 2031.6,-98.2096 2021.05,-99.2091 2023.97,-105.568"/>
</g>
<!-- wallRadar[&#45;0.7,0.7]&#45;&gt;Move Forward/Backward -->
<g id="edge12" class="edge"><title>wallRadar[&#45;0.7,0.7]&#45;&gt;Move Forward/Backward</title>
<path fill="none" stroke="red" stroke-width="0.332552" d="M1246.31,-202.322C1236.71,-198.546 1225.04,-194.032 1214.5,-190.149 1133.53,-160.333 1040.37,-128.135 975.156,-105.934"/>
<polygon fill="red" stroke="red" stroke-width="0.332552" points="975.934,-102.502 965.339,-102.596 973.68,-109.129 975.934,-102.502"/>
</g>
<!-- wallRadar[&#45;0.7,0.7]&#45;&gt;Turn Left/Right -->
<g id="edge42" class="edge"><title>wallRadar[&#45;0.7,0.7]&#45;&gt;Turn Left/Right</title>
<path fill="none" stroke="green" stroke-width="0.185935" d="M1249.08,-202.166C1239.17,-197.864 1226.38,-192.924 1214.5,-190.149 1037.23,-148.76 986.825,-179.063 806.5,-154.149 683.818,-137.199 541.801,-108.162 463.361,-91.2886"/>
<polygon fill="green" stroke="green" stroke-width="0.185935" points="463.701,-87.7814 453.188,-89.0915 462.224,-94.6237 463.701,-87.7814"/>
</g>
<!-- wallRadar[&#45;0.7,&#45;0.7] -->
<g id="node7" class="node"><title>wallRadar[&#45;0.7,&#45;0.7]</title>
<polygon fill="lightgray" stroke="black" points="2176,-220.362 2087,-220.362 2087,-202.362 2176,-202.362 2176,-220.362"/>
<text text-anchor="middle" x="2131.5" y="-209.162" font-family="Times,serif" font-size="9.00">wallRadar[&#45;0.7,&#45;0.7]</text>
</g>
<!-- wallRadar[&#45;0.7,&#45;0.7]&#45;&gt;Jump/Crouch -->
<g id="edge52" class="edge"><title>wallRadar[&#45;0.7,&#45;0.7]&#45;&gt;Jump/Crouch</title>
<path fill="none" stroke="red" stroke-width="0.707425" d="M2127.81,-202.087C2121.3,-187.502 2107.32,-156.154 2095.05,-128.627"/>
<polygon fill="red" stroke="red" stroke-width="0.707425" points="2098.23,-127.175 2090.96,-119.468 2091.84,-130.026 2098.23,-127.175"/>
</g>
<!-- wallRadar[&#45;0.7,&#45;0.7]&#45;&gt;Move Forward/Backward -->
<g id="edge26" class="edge"><title>wallRadar[&#45;0.7,&#45;0.7]&#45;&gt;Move Forward/Backward</title>
<path fill="none" stroke="green" stroke-width="0.414496" d="M2113.91,-202.186C2103.55,-197.776 2090.05,-192.723 2077.5,-190.149 1738.4,-120.632 1643.34,-194.044 1299.5,-154.149 1187.26,-141.126 1059.4,-115.413 977.426,-97.5044"/>
<polygon fill="green" stroke="green" stroke-width="0.414496" points="977.93,-94.0319 967.412,-95.3058 976.429,-100.869 977.93,-94.0319"/>
</g>
<!-- wallRadar[0.7,&#45;0.7] -->
<g id="node8" class="node"><title>wallRadar[0.7,&#45;0.7]</title>
<polygon fill="lightgray" stroke="black" points="1205.5,-220.362 1119.5,-220.362 1119.5,-202.362 1205.5,-202.362 1205.5,-220.362"/>
<text text-anchor="middle" x="1162.5" y="-209.162" font-family="Times,serif" font-size="9.00">wallRadar[0.7,&#45;0.7]</text>
</g>
<!-- wallRadar[0.7,&#45;0.7]&#45;&gt;Shoot -->
<g id="edge24" class="edge"><title>wallRadar[0.7,&#45;0.7]&#45;&gt;Shoot</title>
<path fill="none" stroke="green" stroke-width="0.464769" d="M1180.47,-202.276C1190.34,-198.116 1202.9,-193.276 1214.5,-190.149 1313.98,-163.331 1342,-171.847 1443.5,-154.149 1576.66,-130.931 1734.18,-99.5857 1804.03,-85.4867"/>
<polygon fill="green" stroke="green" stroke-width="0.464769" points="1804.97,-88.8676 1814.07,-83.4551 1803.58,-82.0064 1804.97,-88.8676"/>
</g>
<!-- wallRadar[0.7,&#45;0.7]&#45;&gt;Move Left/Right -->
<g id="edge47" class="edge"><title>wallRadar[0.7,&#45;0.7]&#45;&gt;Move Left/Right</title>
<path fill="none" stroke="green" stroke-width="0.102767" d="M1174.71,-202.286C1200.9,-184.965 1263.8,-143.358 1309.61,-113.059"/>
<polygon fill="green" stroke="green" stroke-width="0.102767" points="1311.54,-115.977 1317.95,-107.541 1307.68,-110.139 1311.54,-115.977"/>
</g>
<!-- wallRadar[0.7,&#45;0.7]&#45;&gt;Turn Left/Right -->
<g id="edge60" class="edge"><title>wallRadar[0.7,&#45;0.7]&#45;&gt;Turn Left/Right</title>
<path fill="none" stroke="red" stroke-width="0.239388" stroke-dasharray="1,5" d="M1129.72,-202.286C1112.72,-198.278 1091.57,-193.575 1072.5,-190.149 955.079,-169.058 924.266,-173.221 806.5,-154.149 684.245,-134.351 542.075,-106.336 463.493,-90.4106"/>
<polygon fill="red" stroke="red" stroke-width="0.239388" points="463.797,-86.901 453.3,-88.3404 462.404,-93.7609 463.797,-86.901"/>
</g>
<!-- enemyRadar[RightBack] -->
<g id="node9" class="node"><title>enemyRadar[RightBack]</title>
<polygon fill="lightgray" stroke="black" points="1584.5,-286.576 1480.5,-286.576 1480.5,-268.576 1584.5,-268.576 1584.5,-286.576"/>
<text text-anchor="middle" x="1532.5" y="-275.376" font-family="Times,serif" font-size="9.00">enemyRadar[RightBack]</text>
</g>
<!-- enemyRadar[RightBack]&#45;&gt;Shoot -->
<g id="edge36" class="edge"><title>enemyRadar[RightBack]&#45;&gt;Shoot</title>
<path fill="none" stroke="red" stroke-width="0.379918" stroke-dasharray="1,5" d="M1584.69,-275.159C1741.15,-270.662 2196.88,-255.629 2218.5,-232.576 2231.4,-218.822 2230.6,-204.61 2218.5,-190.149 2160.26,-120.549 2104.42,-180.238 2017.5,-154.149 1965.52,-138.55 1908.33,-112.166 1873.42,-94.9342"/>
<polygon fill="red" stroke="red" stroke-width="0.379918" points="1874.69,-91.6599 1864.18,-90.3331 1871.57,-97.9253 1874.69,-91.6599"/>
</g>
<!-- enemyRadar[RightBack]&#45;&gt;Move Forward/Backward -->
<g id="edge48" class="edge"><title>enemyRadar[RightBack]&#45;&gt;Move Forward/Backward</title>
<path fill="none" stroke="green" stroke-width="0.273104" d="M1480.36,-275.176C1323.48,-270.713 865.233,-255.74 843.5,-232.576 822.126,-209.793 828.504,-177.715 842.585,-148.688"/>
<polygon fill="green" stroke="green" stroke-width="0.273104" points="845.701,-150.282 847.18,-139.791 839.481,-147.07 845.701,-150.282"/>
</g>
<!-- enemyRadar[RightBack]&#45;&gt;Turn Left/Right -->
<g id="edge14" class="edge"><title>enemyRadar[RightBack]&#45;&gt;Turn Left/Right</title>
<path fill="none" stroke="green" stroke-width="0.266743" d="M1480.46,-276.804C1243.99,-277.592 280.408,-278 236.5,-232.576 189.077,-183.515 281.707,-130.312 346.964,-100.898"/>
<polygon fill="green" stroke="green" stroke-width="0.266743" points="348.645,-103.982 356.374,-96.7343 345.813,-97.5802 348.645,-103.982"/>
</g>
<!-- 251 -->
<g id="node32" class="node"><title>251</title>
<ellipse fill="white" stroke="black" cx="2291.5" cy="-211.362" rx="21.4286" ry="21.4286"/>
<text text-anchor="middle" x="2291.5" y="-209.162" font-family="Times,serif" font-size="9.00">251</text>
</g>
<!-- enemyRadar[RightBack]&#45;&gt;251 -->
<g id="edge68" class="edge"><title>enemyRadar[RightBack]&#45;&gt;251</title>
<path fill="none" stroke="green" stroke-width="0.26259" d="M1584.52,-276.502C1728.63,-275.809 2130.64,-270.439 2256.5,-232.576 2259.49,-231.675 2262.51,-230.475 2265.44,-229.108"/>
<polygon fill="green" stroke="green" stroke-width="0.26259" points="2267.24,-232.117 2274.42,-224.331 2263.95,-225.936 2267.24,-232.117"/>
</g>
<!-- enemyRadar[LeftBack] -->
<g id="node10" class="node"><title>enemyRadar[LeftBack]</title>
<polygon fill="lightgray" stroke="black" points="1708,-220.362 1609,-220.362 1609,-202.362 1708,-202.362 1708,-220.362"/>
<text text-anchor="middle" x="1658.5" y="-209.162" font-family="Times,serif" font-size="9.00">enemyRadar[LeftBack]</text>
</g>
<!-- enemyRadar[LeftBack]&#45;&gt;Shoot -->
<g id="edge5" class="edge"><title>enemyRadar[LeftBack]&#45;&gt;Shoot</title>
<path fill="none" stroke="green" stroke-width="0.272579" stroke-dasharray="1,5" d="M1669.61,-202.286C1697.21,-182.228 1769.61,-129.605 1810.77,-99.6849"/>
<polygon fill="green" stroke="green" stroke-width="0.272579" points="1813.02,-102.375 1819.05,-93.6647 1808.9,-96.7131 1813.02,-102.375"/>
</g>
<!-- enemyRadar[LeftBack]&#45;&gt;Move Left/Right -->
<g id="edge54" class="edge"><title>enemyRadar[LeftBack]&#45;&gt;Move Left/Right</title>
<path fill="none" stroke="red" stroke-width="0.225332" d="M1640.43,-202.286C1597.69,-183.186 1488.88,-134.558 1420.78,-104.122"/>
<polygon fill="red" stroke="red" stroke-width="0.225332" points="1422.01,-100.838 1411.45,-99.9532 1419.16,-107.229 1422.01,-100.838"/>
</g>
<!-- enemyRadar[Right] -->
<g id="node11" class="node"><title>enemyRadar[Right]</title>
<polygon fill="lightgray" stroke="black" points="795.5,-220.362 709.5,-220.362 709.5,-202.362 795.5,-202.362 795.5,-220.362"/>
<text text-anchor="middle" x="752.5" y="-209.162" font-family="Times,serif" font-size="9.00">enemyRadar[Right]</text>
</g>
<!-- enemyRadar[Right]&#45;&gt;Jump/Crouch -->
<g id="edge23" class="edge"><title>enemyRadar[Right]&#45;&gt;Jump/Crouch</title>
<path fill="none" stroke="green" stroke-width="0.228533" d="M782.176,-202.322C799.845,-197.899 822.79,-192.787 843.5,-190.149 1071.35,-161.124 1651.5,-200.353 1876.5,-154.149 1927.92,-143.59 1983.42,-120.887 2022.19,-103.016"/>
<polygon fill="green" stroke="green" stroke-width="0.228533" points="2024.1,-105.989 2031.68,-98.5868 2021.13,-99.647 2024.1,-105.989"/>
</g>
<!-- enemyRadar[Right]&#45;&gt;Move Forward/Backward -->
<g id="edge7" class="edge"><title>enemyRadar[Right]&#45;&gt;Move Forward/Backward</title>
<path fill="none" stroke="green" stroke-width="0.227656" d="M761.258,-202.087C774.992,-189.11 802.77,-162.861 829.249,-137.841"/>
<polygon fill="green" stroke="green" stroke-width="0.227656" points="831.805,-140.241 836.67,-130.829 826.998,-135.153 831.805,-140.241"/>
</g>
<!-- enemyRadar[Right]&#45;&gt;Turn Left/Right -->
<g id="edge20" class="edge"><title>enemyRadar[Right]&#45;&gt;Turn Left/Right</title>
<path fill="none" stroke="red" stroke-width="0.7161" d="M731.356,-202.285C721.652,-198.582 709.994,-194.137 699.5,-190.149 616.419,-158.578 520.16,-122.162 460.542,-99.6259"/>
<polygon fill="red" stroke="red" stroke-width="0.7161" points="461.525,-96.2561 450.934,-95.9944 459.051,-102.804 461.525,-96.2561"/>
</g>
<!-- enemyRadar[Left] -->
<g id="node12" class="node"><title>enemyRadar[Left]</title>
<polygon fill="lightgray" stroke="black" points="933,-220.362 852,-220.362 852,-202.362 933,-202.362 933,-220.362"/>
<text text-anchor="middle" x="892.5" y="-209.162" font-family="Times,serif" font-size="9.00">enemyRadar[Left]</text>
</g>
<!-- enemyRadar[Left]&#45;&gt;Shoot -->
<g id="edge25" class="edge"><title>enemyRadar[Left]&#45;&gt;Shoot</title>
<path fill="none" stroke="red" stroke-width="0.532844" d="M908.744,-202.287C918.325,-197.911 930.825,-192.858 942.5,-190.149 1159.97,-139.7 1222.16,-183.206 1443.5,-154.149 1577.52,-136.555 1734.61,-102.371 1804.18,-86.5212"/>
<polygon fill="red" stroke="red" stroke-width="0.532844" points="1805.23,-89.8734 1814.19,-84.2299 1803.66,-83.05 1805.23,-89.8734"/>
</g>
<!-- enemyRadar[Left]&#45;&gt;Move Forward/Backward -->
<g id="edge8" class="edge"><title>enemyRadar[Left]&#45;&gt;Move Forward/Backward</title>
<path fill="none" stroke="green" stroke-width="0.213878" d="M892.5,-202.087C892.5,-193.782 892.5,-180.04 892.5,-164.664"/>
<polygon fill="green" stroke="green" stroke-width="0.213878" points="896,-164.364 892.5,-154.364 889,-164.364 896,-164.364"/>
</g>
<!-- enemyRadar[Left]&#45;&gt;Move Left/Right -->
<g id="edge27" class="edge"><title>enemyRadar[Left]&#45;&gt;Move Left/Right</title>
<path fill="none" stroke="green" stroke-width="0.583887" d="M910.818,-202.324C920.191,-198.374 931.843,-193.71 942.5,-190.149 1067.56,-148.364 1217.54,-111.412 1300.18,-92.159"/>
<polygon fill="green" stroke="green" stroke-width="0.583887" points="1301.21,-95.5127 1310.16,-89.8433 1299.63,-88.6938 1301.21,-95.5127"/>
</g>
<!-- enemyRadar[Left]&#45;&gt;Turn Left/Right -->
<g id="edge17" class="edge"><title>enemyRadar[Left]&#45;&gt;Turn Left/Right</title>
<path fill="none" stroke="red" stroke-width="1.35557" d="M862.647,-202.286C783.5,-180.875 567.189,-122.357 462.208,-93.9566"/>
<polygon fill="red" stroke="red" stroke-width="1.35557" points="462.971,-90.5374 452.404,-91.3045 461.143,-97.2945 462.971,-90.5374"/>
</g>
<!-- enemyRadar[RightFront30] -->
<g id="node13" class="node"><title>enemyRadar[RightFront30]</title>
<polygon fill="lightgray" stroke="black" points="115,-286.576 7.10543e-15,-286.576 7.10543e-15,-268.576 115,-268.576 115,-286.576"/>
<text text-anchor="middle" x="57.5" y="-275.376" font-family="Times,serif" font-size="9.00">enemyRadar[RightFront30]</text>
</g>
<!-- enemyRadar[RightFront30]&#45;&gt;Turn Left/Right -->
<g id="edge9" class="edge"><title>enemyRadar[RightFront30]&#45;&gt;Turn Left/Right</title>
<path fill="none" stroke="red" stroke-width="0.757964" d="M61.6819,-268.505C70.7653,-251.7 93.8844,-212.648 123.5,-190.149 190.642,-139.142 284.108,-107.959 344.213,-91.8429"/>
<polygon fill="red" stroke="red" stroke-width="0.757964" points="345.148,-95.2162 353.93,-89.2906 343.369,-88.4458 345.148,-95.2162"/>
</g>
<!-- 230 -->
<g id="node30" class="node"><title>230</title>
<ellipse fill="white" stroke="black" cx="27.5" cy="-211.362" rx="21.4286" ry="21.4286"/>
<text text-anchor="middle" x="27.5" y="-209.162" font-family="Times,serif" font-size="9.00">230</text>
</g>
<!-- enemyRadar[RightFront30]&#45;&gt;230 -->
<g id="edge66" class="edge"><title>enemyRadar[RightFront30]&#45;&gt;230</title>
<path fill="none" stroke="green" stroke-width="0.293325" d="M53.7005,-268.443C50.3446,-261.26 45.2511,-250.358 40.4445,-240.069"/>
<polygon fill="green" stroke="green" stroke-width="0.293325" points="43.5729,-238.497 36.1691,-230.918 37.2309,-241.46 43.5729,-238.497"/>
</g>
<!-- enemyRadar[LeftFront30] -->
<g id="node14" class="node"><title>enemyRadar[LeftFront30]</title>
<polygon fill="lightgray" stroke="black" points="2576.5,-220.362 2466.5,-220.362 2466.5,-202.362 2576.5,-202.362 2576.5,-220.362"/>
<text text-anchor="middle" x="2521.5" y="-209.162" font-family="Times,serif" font-size="9.00">enemyRadar[LeftFront30]</text>
</g>
<!-- enemyRadar[LeftFront30]&#45;&gt;Jump/Crouch -->
<g id="edge3" class="edge"><title>enemyRadar[LeftFront30]&#45;&gt;Jump/Crouch</title>
<path fill="none" stroke="green" stroke-width="0.210786" d="M2496.62,-202.36C2484.79,-198.592 2470.43,-194.074 2457.5,-190.149 2339.56,-154.362 2200.6,-114.469 2126.11,-93.2668"/>
<polygon fill="green" stroke="green" stroke-width="0.210786" points="2127.05,-89.8955 2116.48,-90.5261 2125.14,-96.6285 2127.05,-89.8955"/>
</g>
<!-- enemyRadar[RightFront10] -->
<g id="node15" class="node"><title>enemyRadar[RightFront10]</title>
<polygon fill="lightgray" stroke="black" points="642,-220.362 527,-220.362 527,-202.362 642,-202.362 642,-220.362"/>
<text text-anchor="middle" x="584.5" y="-209.162" font-family="Times,serif" font-size="9.00">enemyRadar[RightFront10]</text>
</g>
<!-- enemyRadar[RightFront10]&#45;&gt;Move Left/Right -->
<g id="edge61" class="edge"><title>enemyRadar[RightFront10]&#45;&gt;Move Left/Right</title>
<path fill="none" stroke="green" stroke-width="0.156733" d="M607.135,-202.276C619.749,-198.063 635.829,-193.173 650.5,-190.149 794.134,-160.546 833.548,-176.42 978.5,-154.149 1092.77,-136.593 1224.74,-108.777 1300.42,-92.0892"/>
<polygon fill="green" stroke="green" stroke-width="0.156733" points="1301.26,-95.4882 1310.27,-89.9106 1299.75,-88.6534 1301.26,-95.4882"/>
</g>
<!-- enemyRadar[RightFront10]&#45;&gt;Turn Left/Right -->
<g id="edge58" class="edge"><title>enemyRadar[RightFront10]&#45;&gt;Turn Left/Right</title>
<path fill="none" stroke="red" stroke-width="0.175388" d="M573.45,-202.286C549.969,-185.125 493.874,-144.126 452.521,-113.903"/>
<polygon fill="red" stroke="red" stroke-width="0.175388" points="454.339,-110.896 444.2,-107.821 450.208,-116.548 454.339,-110.896"/>
</g>
<!-- enemyRadar[LeftFront10] -->
<g id="node16" class="node"><title>enemyRadar[LeftFront10]</title>
<polygon fill="lightgray" stroke="black" points="2068.5,-220.362 1958.5,-220.362 1958.5,-202.362 2068.5,-202.362 2068.5,-220.362"/>
<text text-anchor="middle" x="2013.5" y="-209.162" font-family="Times,serif" font-size="9.00">enemyRadar[LeftFront10]</text>
</g>
<!-- enemyRadar[LeftFront10]&#45;&gt;Shoot -->
<g id="edge2" class="edge"><title>enemyRadar[LeftFront10]&#45;&gt;Shoot</title>
<path fill="none" stroke="red" stroke-width="0.105795" d="M2002.94,-202.286C1976.95,-182.416 1909.18,-130.59 1869.87,-100.533"/>
<polygon fill="red" stroke="red" stroke-width="0.105795" points="1871.54,-97.4044 1861.47,-94.1104 1867.29,-102.965 1871.54,-97.4044"/>
</g>
<!-- enemyRadar[LeftFront10]&#45;&gt;Jump/Crouch -->
<g id="edge21" class="edge"><title>enemyRadar[LeftFront10]&#45;&gt;Jump/Crouch</title>
<path fill="none" stroke="green" stroke-width="0.397544" d="M2017.19,-202.087C2023.7,-187.502 2037.68,-156.154 2049.95,-128.627"/>
<polygon fill="green" stroke="green" stroke-width="0.397544" points="2053.16,-130.026 2054.04,-119.468 2046.77,-127.175 2053.16,-130.026"/>
</g>
<!-- enemyRadar[LeftFront10]&#45;&gt;Move Forward/Backward -->
<g id="edge43" class="edge"><title>enemyRadar[LeftFront10]&#45;&gt;Move Forward/Backward</title>
<path fill="none" stroke="green" stroke-width="0.407348" d="M1992.5,-202.265C1980.17,-197.882 1964.17,-192.829 1949.5,-190.149 1664.88,-138.173 1586.75,-188.802 1299.5,-154.149 1187.49,-140.637 1059.84,-115.097 977.828,-97.3578"/>
<polygon fill="green" stroke="green" stroke-width="0.407348" points="978.325,-93.8841 967.81,-95.1803 976.838,-100.724 978.325,-93.8841"/>
</g>
<!-- enemyRadar[RightFront3.5] -->
<g id="node17" class="node"><title>enemyRadar[RightFront3.5]</title>
<polygon fill="lightgray" stroke="black" points="2448,-220.362 2331,-220.362 2331,-202.362 2448,-202.362 2448,-220.362"/>
<text text-anchor="middle" x="2389.5" y="-209.162" font-family="Times,serif" font-size="9.00">enemyRadar[RightFront3.5]</text>
</g>
<!-- enemyRadar[RightFront3.5]&#45;&gt;Shoot -->
<g id="edge40" class="edge"><title>enemyRadar[RightFront3.5]&#45;&gt;Shoot</title>
<path fill="none" stroke="green" stroke-width="0.302518" d="M2366.15,-202.344C2353.14,-198.151 2336.58,-193.259 2321.5,-190.149 2188.25,-162.666 2148.92,-189.376 2017.5,-154.149 1964.94,-140.059 1907.69,-113.15 1872.95,-95.4078"/>
<polygon fill="green" stroke="green" stroke-width="0.302518" points="1874.26,-92.1455 1863.77,-90.665 1871.04,-98.3645 1874.26,-92.1455"/>
</g>
<!-- enemyRadar[RightFront3.5]&#45;&gt;Jump/Crouch -->
<g id="edge6" class="edge"><title>enemyRadar[RightFront3.5]&#45;&gt;Jump/Crouch</title>
<path fill="none" stroke="red" stroke-width="0.508165" d="M2370.15,-202.286C2322.03,-182.208 2195.73,-129.498 2124.07,-99.5938"/>
<polygon fill="red" stroke="red" stroke-width="0.508165" points="2125.33,-96.33 2114.76,-95.7088 2122.64,-102.79 2125.33,-96.33"/>
</g>
<!-- enemyRadar[RightFront3.5]&#45;&gt;Move Left/Right -->
<g id="edge46" class="edge"><title>enemyRadar[RightFront3.5]&#45;&gt;Move Left/Right</title>
<path fill="none" stroke="red" stroke-width="0.388326" d="M2366.83,-202.262C2353.75,-197.934 2336.89,-192.938 2321.5,-190.149 2094.86,-149.088 2033.18,-181.719 1804.5,-154.149 1668.37,-137.738 1510.39,-107.909 1425.02,-90.8867"/>
<polygon fill="red" stroke="red" stroke-width="0.388326" points="1425.47,-87.4071 1414.98,-88.876 1424.1,-94.2709 1425.47,-87.4071"/>
</g>
<!-- enemyRadar[LeftFront3.5] -->
<g id="node18" class="node"><title>enemyRadar[LeftFront3.5]</title>
<polygon fill="lightgray" stroke="black" points="1063.5,-220.362 951.5,-220.362 951.5,-202.362 1063.5,-202.362 1063.5,-220.362"/>
<text text-anchor="middle" x="1007.5" y="-209.162" font-family="Times,serif" font-size="9.00">enemyRadar[LeftFront3.5]</text>
</g>
<!-- enemyRadar[LeftFront3.5]&#45;&gt;Jump/Crouch -->
<g id="edge39" class="edge"><title>enemyRadar[LeftFront3.5]&#45;&gt;Jump/Crouch</title>
<path fill="none" stroke="red" stroke-width="0.100765" d="M1041.63,-202.357C1061.59,-198.004 1087.34,-192.95 1110.5,-190.149 1448.85,-149.223 1543.07,-224.73 1876.5,-154.149 1927.86,-143.278 1983.37,-120.614 2022.16,-102.836"/>
<polygon fill="red" stroke="red" stroke-width="0.100765" points="2024.05,-105.817 2031.64,-98.4321 2021.1,-99.4674 2024.05,-105.817"/>
</g>
<!-- enemyRadar[LeftFront3.5]&#45;&gt;Move Forward/Backward -->
<g id="edge30" class="edge"><title>enemyRadar[LeftFront3.5]&#45;&gt;Move Forward/Backward</title>
<path fill="none" stroke="green" stroke-width="0.168442" d="M1000.31,-202.087C989.835,-190.042 969.424,-166.563 949.154,-143.245"/>
<polygon fill="green" stroke="green" stroke-width="0.168442" points="951.793,-140.946 942.59,-135.695 946.51,-145.538 951.793,-140.946"/>
</g>
<!-- enemyRadar[LeftFront3.5]&#45;&gt;Move Left/Right -->
<g id="edge51" class="edge"><title>enemyRadar[LeftFront3.5]&#45;&gt;Move Left/Right</title>
<path fill="none" stroke="red" stroke-width="0.150577" d="M1029.17,-202.286C1082.62,-182.368 1222.25,-130.339 1302.81,-100.316"/>
<polygon fill="red" stroke="red" stroke-width="0.150577" points="1304.19,-103.539 1312.34,-96.7671 1301.75,-96.9793 1304.19,-103.539"/>
</g>
<!-- enemyRadar[LeftFront3.5]&#45;&gt;Turn Left/Right -->
<g id="edge31" class="edge"><title>enemyRadar[LeftFront3.5]&#45;&gt;Turn Left/Right</title>
<path fill="none" stroke="red" stroke-width="0.335896" d="M983.581,-202.318C971.369,-198.366 956.229,-193.702 942.5,-190.149 770.295,-145.581 563.605,-106.582 463.582,-88.6085"/>
<polygon fill="red" stroke="red" stroke-width="0.335896" points="464.12,-85.1492 453.66,-86.8317 462.887,-92.0397 464.12,-85.1492"/>
</g>
<!-- enemyRadar[RightFront1.5] -->
<g id="node19" class="node"><title>enemyRadar[RightFront1.5]</title>
<polygon fill="lightgray" stroke="black" points="1591,-220.362 1474,-220.362 1474,-202.362 1591,-202.362 1591,-220.362"/>
<text text-anchor="middle" x="1532.5" y="-209.162" font-family="Times,serif" font-size="9.00">enemyRadar[RightFront1.5]</text>
</g>
<!-- enemyRadar[RightFront1.5]&#45;&gt;Jump/Crouch -->
<g id="edge49" class="edge"><title>enemyRadar[RightFront1.5]&#45;&gt;Jump/Crouch</title>
<path fill="none" stroke="green" stroke-width="0.133668" d="M1556.18,-202.313C1569.14,-198.164 1585.56,-193.323 1600.5,-190.149 1721.51,-164.444 1756.64,-184.751 1876.5,-154.149 1927.2,-141.205 1982.58,-118.904 2021.5,-101.783"/>
<polygon fill="green" stroke="green" stroke-width="0.133668" points="2023.31,-104.809 2031.02,-97.5507 2020.46,-98.4118 2023.31,-104.809"/>
</g>
<!-- enemyRadar[RightFront1.5]&#45;&gt;Move Forward/Backward -->
<g id="edge16" class="edge"><title>enemyRadar[RightFront1.5]&#45;&gt;Move Forward/Backward</title>
<path fill="none" stroke="red" stroke-width="0.343682" d="M1507.47,-202.299C1494.69,-198.342 1478.85,-193.68 1464.5,-190.149 1373.43,-167.746 1114.36,-119.028 978.317,-93.8478"/>
<polygon fill="red" stroke="red" stroke-width="0.343682" points="978.81,-90.3795 968.34,-92.0024 977.536,-97.2628 978.81,-90.3795"/>
</g>
<!-- enemyRadar[RightFront1.5]&#45;&gt;Move Left/Right -->
<g id="edge28" class="edge"><title>enemyRadar[RightFront1.5]&#45;&gt;Move Left/Right</title>
<path fill="none" stroke="red" stroke-width="0.101607" d="M1522.12,-202.286C1500.85,-185.737 1451.1,-147.02 1412.75,-117.176"/>
<polygon fill="red" stroke="red" stroke-width="0.101607" points="1414.79,-114.332 1404.75,-110.953 1410.49,-119.857 1414.79,-114.332"/>
</g>
<!-- enemyRadar[LeftFront1.5] -->
<g id="node20" class="node"><title>enemyRadar[LeftFront1.5]</title>
<polygon fill="lightgray" stroke="black" points="1838.5,-220.362 1726.5,-220.362 1726.5,-202.362 1838.5,-202.362 1838.5,-220.362"/>
<text text-anchor="middle" x="1782.5" y="-209.162" font-family="Times,serif" font-size="9.00">enemyRadar[LeftFront1.5]</text>
</g>
<!-- enemyRadar[LeftFront1.5]&#45;&gt;Shoot -->
<g id="edge35" class="edge"><title>enemyRadar[LeftFront1.5]&#45;&gt;Shoot</title>
<path fill="none" stroke="green" stroke-width="0.46182" d="M1786.13,-202.087C1793.92,-184.325 1812.6,-141.703 1825.89,-111.396"/>
<polygon fill="green" stroke="green" stroke-width="0.46182" points="1829.18,-112.6 1829.99,-102.036 1822.77,-109.789 1829.18,-112.6"/>
</g>
<!-- enemyRadar[LeftFront1.5]&#45;&gt;Move Left/Right -->
<g id="edge59" class="edge"><title>enemyRadar[LeftFront1.5]&#45;&gt;Move Left/Right</title>
<path fill="none" stroke="green" stroke-width="0.245501" d="M1756.86,-202.286C1691.41,-181.671 1516.75,-126.658 1423.37,-97.2463"/>
<polygon fill="green" stroke="green" stroke-width="0.245501" points="1424.36,-93.8885 1413.77,-94.2226 1422.25,-100.565 1424.36,-93.8885"/>
</g>
<!-- OnTarget -->
<g id="node21" class="node"><title>OnTarget</title>
<polygon fill="lightgray" stroke="black" points="508.5,-220.362 458.5,-220.362 458.5,-202.362 508.5,-202.362 508.5,-220.362"/>
<text text-anchor="middle" x="483.5" y="-209.162" font-family="Times,serif" font-size="9.00">OnTarget</text>
</g>
<!-- OnTarget&#45;&gt;Move Forward/Backward -->
<g id="edge33" class="edge"><title>OnTarget&#45;&gt;Move Forward/Backward</title>
<path fill="none" stroke="green" stroke-width="0.39675" d="M495.388,-202.312C501.746,-198.263 509.828,-193.515 517.5,-190.149 613.379,-148.09 729.69,-116.06 807.105,-97.2225"/>
<polygon fill="green" stroke="green" stroke-width="0.39675" points="808.392,-100.513 817.292,-94.7653 806.75,-93.7078 808.392,-100.513"/>
</g>
<!-- Health -->
<g id="node22" class="node"><title>Health</title>
<polygon fill="lightgray" stroke="black" points="1455.5,-220.362 1415.5,-220.362 1415.5,-202.362 1455.5,-202.362 1455.5,-220.362"/>
<text text-anchor="middle" x="1435.5" y="-209.162" font-family="Times,serif" font-size="9.00">Health</text>
</g>
<!-- Health&#45;&gt;Shoot -->
<g id="edge15" class="edge"><title>Health&#45;&gt;Shoot</title>
<path fill="none" stroke="green" stroke-width="0.385815" d="M1445.86,-202.238C1451.44,-198.168 1458.57,-193.424 1465.5,-190.149 1583.53,-134.344 1735.63,-99.1745 1804.17,-85.1002"/>
<polygon fill="green" stroke="green" stroke-width="0.385815" points="1804.94,-88.5148 1814.05,-83.0995 1803.55,-81.6541 1804.94,-88.5148"/>
</g>
<!-- Health&#45;&gt;Move Forward/Backward -->
<g id="edge32" class="edge"><title>Health&#45;&gt;Move Forward/Backward</title>
<path fill="none" stroke="red" stroke-width="0.20329" d="M1425.88,-202.211C1420.5,-198.032 1413.47,-193.195 1406.5,-190.149 1330.61,-157.011 1104.32,-114.585 978.791,-92.6565"/>
<polygon fill="red" stroke="red" stroke-width="0.20329" points="979.271,-89.1875 968.819,-90.9206 978.07,-96.0838 979.271,-89.1875"/>
</g>
<!-- Health&#45;&gt;Move Left/Right -->
<g id="edge45" class="edge"><title>Health&#45;&gt;Move Left/Right</title>
<path fill="none" stroke="red" stroke-width="0.473107" d="M1430.93,-202.087C1423.33,-188.315 1407.49,-159.597 1392.95,-133.263"/>
<polygon fill="red" stroke="red" stroke-width="0.473107" points="1395.99,-131.513 1388.09,-124.448 1389.86,-134.895 1395.99,-131.513"/>
</g>
<!-- TakingDmg -->
<g id="node23" class="node"><title>TakingDmg</title>
<polygon fill="lightgray" stroke="black" points="2634,-286.576 2575,-286.576 2575,-268.576 2634,-268.576 2634,-286.576"/>
<text text-anchor="middle" x="2604.5" y="-275.376" font-family="Times,serif" font-size="9.00">TakingDmg</text>
</g>
<!-- TakingDmg&#45;&gt;Jump/Crouch -->
<g id="edge41" class="edge"><title>TakingDmg&#45;&gt;Jump/Crouch</title>
<path fill="none" stroke="green" stroke-width="0.205307" stroke-dasharray="1,5" d="M2605.35,-268.328C2606.62,-251.187 2606.91,-211.536 2585.5,-190.149 2521.41,-126.145 2247.74,-93.9774 2128.45,-82.785"/>
<polygon fill="green" stroke="green" stroke-width="0.205307" points="2128.7,-79.2935 2118.42,-81.8595 2128.06,-86.2638 2128.7,-79.2935"/>
</g>
<!-- TakingDmg&#45;&gt;Turn Left/Right -->
<g id="edge22" class="edge"><title>TakingDmg&#45;&gt;Turn Left/Right</title>
<path fill="none" stroke="red" stroke-width="0.582188" d="M2574.84,-276.301C2305.39,-273.776 290.699,-254.178 269.5,-232.576 228.274,-190.566 296.628,-138.178 349.932,-106.468"/>
<polygon fill="red" stroke="red" stroke-width="0.582188" points="351.798,-109.431 358.673,-101.37 348.271,-103.385 351.798,-109.431"/>
</g>
<!-- 189 -->
<g id="node33" class="node"><title>189</title>
<ellipse fill="white" stroke="black" cx="2653.5" cy="-211.362" rx="21.4286" ry="21.4286"/>
<text text-anchor="middle" x="2653.5" y="-209.162" font-family="Times,serif" font-size="9.00">189</text>
</g>
<!-- TakingDmg&#45;&gt;189 -->
<g id="edge62" class="edge"><title>TakingDmg&#45;&gt;189</title>
<path fill="none" stroke="green" stroke-width="0.280205" d="M2610.71,-268.443C2616.74,-260.537 2626.21,-248.124 2634.71,-236.984"/>
<polygon fill="green" stroke="green" stroke-width="0.280205" points="2637.67,-238.882 2640.95,-228.809 2632.1,-234.636 2637.67,-238.882"/>
</g>
<!-- bias -->
<g id="node24" class="node"><title>bias</title>
<polygon fill="lightgray" stroke="black" points="691,-220.362 660,-220.362 660,-202.362 691,-202.362 691,-220.362"/>
<text text-anchor="middle" x="675.5" y="-209.162" font-family="Times,serif" font-size="9.00">bias</text>
</g>
<!-- bias&#45;&gt;Move Forward/Backward -->
<g id="edge57" class="edge"><title>bias&#45;&gt;Move Forward/Backward</title>
<path fill="none" stroke="green" stroke-width="0.185494" d="M684.972,-202.139C689.539,-198.322 695.172,-193.827 700.5,-190.149 737.25,-164.783 779.998,-139.454 815.816,-119.309"/>
<polygon fill="green" stroke="green" stroke-width="0.185494" points="817.747,-122.239 824.766,-114.302 814.33,-116.13 817.747,-122.239"/>
</g>
<!-- bias&#45;&gt;Move Left/Right -->
<g id="edge55" class="edge"><title>bias&#45;&gt;Move Left/Right</title>
<path fill="none" stroke="green" stroke-width="0.386277" d="M683.511,-201.954C688.073,-197.7 694.137,-192.872 700.5,-190.149 815.04,-141.134 855.548,-174.266 978.5,-154.149 1092.6,-135.481 1224.62,-108.032 1300.36,-91.714"/>
<polygon fill="green" stroke="green" stroke-width="0.386277" points="1301.18,-95.1177 1310.22,-89.5852 1299.7,-88.2755 1301.18,-95.1177"/>
</g>
<!-- bias&#45;&gt;Turn Left/Right -->
<g id="edge37" class="edge"><title>bias&#45;&gt;Turn Left/Right</title>
<path fill="none" stroke="green" stroke-width="0.33232" d="M666.655,-202.288C662.049,-198.328 656.2,-193.667 650.5,-190.149 588.948,-152.162 512.338,-119.412 460.899,-99.2909"/>
<polygon fill="green" stroke="green" stroke-width="0.33232" points="461.866,-95.9122 451.277,-95.5597 459.335,-102.439 461.866,-95.9122"/>
</g>
<!-- Move Left/Right&#45;&gt;Move Left/Right -->
<g id="edge53" class="edge"><title>Move Left/Right&#45;&gt;Move Left/Right</title>
<path fill="none" stroke="red" stroke-width="0.225764" d="M1410.1,-102.101C1423.73,-101.12 1434.24,-92.7778 1434.24,-77.0746 1434.24,-65.42 1428.45,-57.82 1419.89,-54.2746"/>
<polygon fill="red" stroke="red" stroke-width="0.225764" points="1420.63,-50.8525 1410.1,-52.0478 1419.08,-57.6782 1420.63,-50.8525"/>
</g>
<!-- Turn Left/Right&#45;&gt;Turn Left/Right -->
<g id="edge10" class="edge"><title>Turn Left/Right&#45;&gt;Turn Left/Right</title>
<path fill="none" stroke="green" stroke-width="0.688229" d="M447.907,-102.175C461.633,-101.668 472.412,-93.3012 472.412,-77.0746 472.412,-65.0315 466.474,-57.3178 457.801,-53.9336"/>
<polygon fill="green" stroke="green" stroke-width="0.688229" points="458.397,-50.4836 447.907,-51.9742 457.037,-57.3502 458.397,-50.4836"/>
</g>
<!-- 230&#45;&gt;Turn Left/Right -->
<g id="edge67" class="edge"><title>230&#45;&gt;Turn Left/Right</title>
<path fill="none" stroke="red" stroke-width="0.836159" d="M45.2923,-199.14C50.698,-195.992 56.7353,-192.728 62.5,-190.149 158.195,-147.342 275.374,-112.398 344.477,-93.4684"/>
<polygon fill="red" stroke="red" stroke-width="0.836159" points="345.585,-96.7944 354.316,-90.7927 343.748,-90.0398 345.585,-96.7944"/>
</g>
<!-- 201&#45;&gt;Turn Left/Right -->
<g id="edge65" class="edge"><title>201&#45;&gt;Turn Left/Right</title>
<path fill="none" stroke="green" stroke-width="0.300342" d="M181.619,-199.79C187.034,-196.66 192.995,-193.243 198.5,-190.149 249.726,-161.36 308.624,-129.263 350.106,-106.822"/>
<polygon fill="green" stroke="green" stroke-width="0.300342" points="351.814,-109.878 358.946,-102.043 348.485,-103.72 351.814,-109.878"/>
</g>
<!-- 251&#45;&gt;Shoot -->
<g id="edge69" class="edge"><title>251&#45;&gt;Shoot</title>
<path fill="none" stroke="red" stroke-width="0.449895" d="M2274.31,-198.73C2268.83,-195.492 2262.59,-192.282 2256.5,-190.149 2155.11,-154.669 2120.8,-183.6 2017.5,-154.149 1965.17,-139.23 1907.86,-112.545 1873.04,-95.0773"/>
<polygon fill="red" stroke="red" stroke-width="0.449895" points="1874.34,-91.8124 1863.84,-90.4122 1871.17,-98.0558 1874.34,-91.8124"/>
</g>
<!-- 189&#45;&gt;Jump/Crouch -->
<g id="edge63" class="edge"><title>189&#45;&gt;Jump/Crouch</title>
<path fill="none" stroke="green" stroke-width="0.315173" d="M2636.24,-198.927C2630.75,-195.697 2624.53,-192.442 2618.5,-190.149 2446.65,-124.857 2229.17,-94.7512 2128.43,-83.5648"/>
<polygon fill="green" stroke="green" stroke-width="0.315173" points="2128.79,-80.0834 2118.47,-82.4786 2128.03,-87.0422 2128.79,-80.0834"/>
</g>
</g>
</svg>
