<?xml version="1.0" encoding="UTF-8" standalone="no"?>
<!DOCTYPE svg PUBLIC "-//W3C//DTD SVG 1.1//EN"
 "http://www.w3.org/Graphics/SVG/1.1/DTD/svg11.dtd">
<!-- Generated by graphviz version 2.38.0 (20140413.2041)
 -->
<!-- Title: %3 Pages: 1 -->
<svg width="2624pt" height="239pt"
 viewBox="0.00 0.00 2623.87 239.42" xmlns="http://www.w3.org/2000/svg" xmlns:xlink="http://www.w3.org/1999/xlink">
<g id="graph0" class="graph" transform="scale(1 1) rotate(0) translate(4 235.421)">
<title>%3</title>
<polygon fill="white" stroke="none" points="-4,4 -4,-235.421 2619.87,-235.421 2619.87,4 -4,4"/>
<!-- wallRadar[1,0] -->
<g id="node1" class="node"><title>wallRadar[1,0]</title>
<polygon fill="lightgray" stroke="black" points="1306.48,-168.037 1236.48,-168.037 1236.48,-150.037 1306.48,-150.037 1306.48,-168.037"/>
<text text-anchor="middle" x="1271.48" y="-156.837" font-family="Times,serif" font-size="9.00">wallRadar[1,0]</text>
</g>
<!-- Shoot -->
<g id="node25" class="node"><title>Shoot</title>
<ellipse fill="lightblue" stroke="black" cx="738.482" cy="-52.3259" rx="26.7407" ry="26.7407"/>
<text text-anchor="middle" x="738.482" y="-50.1259" font-family="Times,serif" font-size="9.00">Shoot</text>
</g>
<!-- wallRadar[1,0]&#45;&gt;Shoot -->
<g id="edge53" class="edge"><title>wallRadar[1,0]&#45;&gt;Shoot</title>
<path fill="none" stroke="red" stroke-width="0.417712" d="M1254.29,-149.947C1246.31,-146.531 1236.59,-142.843 1227.48,-140.652 1065.56,-101.67 1015.59,-146.887 854.482,-104.652 825.032,-96.931 793.56,-82.5805 770.838,-71.0125"/>
<polygon fill="red" stroke="red" stroke-width="0.417712" points="772.156,-67.7531 761.668,-66.2527 768.931,-73.966 772.156,-67.7531"/>
</g>
<!-- Jump -->
<g id="node26" class="node"><title>Jump</title>
<ellipse fill="lightblue" stroke="black" cx="1637.48" cy="-52.3259" rx="25.4118" ry="25.4118"/>
<text text-anchor="middle" x="1637.48" y="-50.1259" font-family="Times,serif" font-size="9.00">Jump</text>
</g>
<!-- wallRadar[1,0]&#45;&gt;Jump -->
<g id="edge65" class="edge"><title>wallRadar[1,0]&#45;&gt;Jump</title>
<path fill="none" stroke="green" stroke-width="0.228551" d="M1289.15,-149.992C1297.07,-146.669 1306.6,-143.042 1315.48,-140.652 1419.21,-112.736 1453.64,-141.654 1554.48,-104.652 1574.03,-97.4804 1593.93,-85.3677 1609.35,-74.7098"/>
<polygon fill="green" stroke="green" stroke-width="0.228551" points="1611.75,-77.2981 1617.87,-68.651 1607.69,-71.5931 1611.75,-77.2981"/>
</g>
<!-- MoveBackward -->
<g id="node29" class="node"><title>MoveBackward</title>
<ellipse fill="lightblue" stroke="black" cx="1164.48" cy="-52.3259" rx="52.1524" ry="52.1524"/>
<text text-anchor="middle" x="1164.48" y="-50.1259" font-family="Times,serif" font-size="9.00">MoveBackward</text>
</g>
<!-- wallRadar[1,0]&#45;&gt;MoveBackward -->
<g id="edge2" class="edge"><title>wallRadar[1,0]&#45;&gt;MoveBackward</title>
<path fill="none" stroke="red" stroke-width="0.268595" d="M1263.09,-149.82C1251.41,-138.398 1229.43,-116.887 1209.18,-97.069"/>
<polygon fill="red" stroke="red" stroke-width="0.268595" points="1211.42,-94.3586 1201.82,-89.8659 1206.52,-99.3616 1211.42,-94.3586"/>
</g>
<!-- MoveRight -->
<g id="node30" class="node"><title>MoveRight</title>
<ellipse fill="lightblue" stroke="black" cx="1781.48" cy="-52.3259" rx="40.1111" ry="40.1111"/>
<text text-anchor="middle" x="1781.48" y="-50.1259" font-family="Times,serif" font-size="9.00">MoveRight</text>
</g>
<!-- wallRadar[1,0]&#45;&gt;MoveRight -->
<g id="edge110" class="edge"><title>wallRadar[1,0]&#45;&gt;MoveRight</title>
<path fill="none" stroke="green" stroke-width="0.521653" d="M1288.68,-149.966C1296.66,-146.554 1306.38,-142.864 1315.48,-140.652 1470.01,-103.077 1518.16,-146.867 1671.48,-104.652 1694.11,-98.422 1717.87,-87.8995 1737.49,-77.9981"/>
<polygon fill="green" stroke="green" stroke-width="0.521653" points="1739.2,-81.0552 1746.48,-73.36 1735.99,-74.8342 1739.2,-81.0552"/>
</g>
<!-- TurnRight -->
<g id="node32" class="node"><title>TurnRight</title>
<ellipse fill="lightblue" stroke="black" cx="1272.48" cy="-52.3259" rx="37.4533" ry="37.4533"/>
<text text-anchor="middle" x="1272.48" y="-50.1259" font-family="Times,serif" font-size="9.00">TurnRight</text>
</g>
<!-- wallRadar[1,0]&#45;&gt;TurnRight -->
<g id="edge18" class="edge"><title>wallRadar[1,0]&#45;&gt;TurnRight</title>
<path fill="none" stroke="red" stroke-width="0.694439" d="M1271.56,-149.82C1271.66,-138.949 1271.86,-118.939 1272.04,-99.9479"/>
<polygon fill="red" stroke="red" stroke-width="0.694439" points="1275.54,-99.8989 1272.13,-89.8659 1268.54,-99.832 1275.54,-99.8989"/>
</g>
<!-- TurnLeft -->
<g id="node33" class="node"><title>TurnLeft</title>
<ellipse fill="lightblue" stroke="black" cx="897.482" cy="-52.3259" rx="33.8824" ry="33.8824"/>
<text text-anchor="middle" x="897.482" y="-50.1259" font-family="Times,serif" font-size="9.00">TurnLeft</text>
</g>
<!-- wallRadar[1,0]&#45;&gt;TurnLeft -->
<g id="edge48" class="edge"><title>wallRadar[1,0]&#45;&gt;TurnLeft</title>
<path fill="none" stroke="red" stroke-width="0.359534" d="M1252.39,-149.925C1244.72,-146.817 1235.75,-143.37 1227.48,-140.652 1173.73,-122.99 1016.6,-83.0993 940.19,-63.9609"/>
<polygon fill="red" stroke="red" stroke-width="0.359534" points="940.954,-60.544 930.403,-61.5124 939.255,-67.3348 940.954,-60.544"/>
</g>
<!-- wallRadar[0,1] -->
<g id="node2" class="node"><title>wallRadar[0,1]</title>
<polygon fill="lightgray" stroke="black" points="884.482,-168.037 814.482,-168.037 814.482,-150.037 884.482,-150.037 884.482,-168.037"/>
<text text-anchor="middle" x="849.482" y="-156.837" font-family="Times,serif" font-size="9.00">wallRadar[0,1]</text>
</g>
<!-- Crouch -->
<g id="node27" class="node"><title>Crouch</title>
<ellipse fill="lightblue" stroke="black" cx="490.482" cy="-52.3259" rx="30.3115" ry="30.3115"/>
<text text-anchor="middle" x="490.482" y="-50.1259" font-family="Times,serif" font-size="9.00">Crouch</text>
</g>
<!-- wallRadar[0,1]&#45;&gt;Crouch -->
<g id="edge80" class="edge"><title>wallRadar[0,1]&#45;&gt;Crouch</title>
<path fill="none" stroke="green" stroke-width="0.222083" d="M829.918,-150.001C822.073,-146.905 812.91,-143.444 804.482,-140.652 706.997,-108.35 589.908,-77.9563 530.014,-63.0015"/>
<polygon fill="green" stroke="green" stroke-width="0.222083" points="530.758,-59.5799 520.209,-60.5637 529.069,-66.3731 530.758,-59.5799"/>
</g>
<!-- MoveForward -->
<g id="node28" class="node"><title>MoveForward</title>
<ellipse fill="lightblue" stroke="black" cx="1479.48" cy="-52.3259" rx="48.1667" ry="48.1667"/>
<text text-anchor="middle" x="1479.48" y="-50.1259" font-family="Times,serif" font-size="9.00">MoveForward</text>
</g>
<!-- wallRadar[0,1]&#45;&gt;MoveForward -->
<g id="edge46" class="edge"><title>wallRadar[0,1]&#45;&gt;MoveForward</title>
<path fill="none" stroke="green" stroke-width="0.271231" d="M866.66,-149.883C874.64,-146.454 884.363,-142.774 893.482,-140.652 1085.88,-95.8707 1143.4,-146.38 1336.48,-104.652 1366.91,-98.0765 1399.67,-86.6569 1426.15,-76.2563"/>
<polygon fill="green" stroke="green" stroke-width="0.271231" points="1427.61,-79.4399 1435.6,-72.4815 1425.02,-72.9388 1427.61,-79.4399"/>
</g>
<!-- wallRadar[0,1]&#45;&gt;MoveBackward -->
<g id="edge55" class="edge"><title>wallRadar[0,1]&#45;&gt;MoveBackward</title>
<path fill="none" stroke="red" stroke-width="0.198445" d="M869.092,-149.975C876.671,-146.942 885.441,-143.533 893.482,-140.652 965.477,-114.86 1049.43,-88.3483 1104.59,-71.4069"/>
<polygon fill="red" stroke="red" stroke-width="0.198445" points="1105.67,-74.7367 1114.21,-68.4611 1103.62,-68.0437 1105.67,-74.7367"/>
</g>
<!-- MoveLeft -->
<g id="node31" class="node"><title>MoveLeft</title>
<ellipse fill="lightblue" stroke="black" cx="1982.48" cy="-52.3259" rx="36.5405" ry="36.5405"/>
<text text-anchor="middle" x="1982.48" y="-50.1259" font-family="Times,serif" font-size="9.00">MoveLeft</text>
</g>
<!-- wallRadar[0,1]&#45;&gt;MoveLeft -->
<g id="edge73" class="edge"><title>wallRadar[0,1]&#45;&gt;MoveLeft</title>
<path fill="none" stroke="red" stroke-width="0.52942" d="M866.202,-149.885C874.25,-146.367 884.159,-142.613 893.482,-140.652 1301.31,-54.8595 1420.62,-180.093 1830.48,-104.652 1868.3,-97.691 1909.54,-83.3106 1939.5,-71.5377"/>
<polygon fill="red" stroke="red" stroke-width="0.52942" points="1940.83,-74.7773 1948.82,-67.8197 1938.23,-68.2761 1940.83,-74.7773"/>
</g>
<!-- wallRadar[0,1]&#45;&gt;TurnLeft -->
<g id="edge106" class="edge"><title>wallRadar[0,1]&#45;&gt;TurnLeft</title>
<path fill="none" stroke="green" stroke-width="0.111146" d="M853.249,-149.82C858.845,-137.612 869.725,-113.877 879.294,-93.0031"/>
<polygon fill="green" stroke="green" stroke-width="0.111146" points="882.589,-94.2142 883.575,-83.6653 876.226,-91.2972 882.589,-94.2142"/>
</g>
<!-- wallRadar[&#45;1,0] -->
<g id="node3" class="node"><title>wallRadar[&#45;1,0]</title>
<polygon fill="lightgray" stroke="black" points="90.9823,-168.037 17.9823,-168.037 17.9823,-150.037 90.9823,-150.037 90.9823,-168.037"/>
<text text-anchor="middle" x="54.4823" y="-156.837" font-family="Times,serif" font-size="9.00">wallRadar[&#45;1,0]</text>
</g>
<!-- wallRadar[&#45;1,0]&#45;&gt;Shoot -->
<g id="edge1" class="edge"><title>wallRadar[&#45;1,0]&#45;&gt;Shoot</title>
<path fill="none" stroke="red" stroke-width="0.157844" d="M72.0704,-149.899C80.2362,-146.474 90.1776,-142.792 99.4823,-140.652 286.381,-97.6597 340.219,-135.616 529.482,-104.652 591.348,-94.5302 661.895,-75.6292 703.17,-63.8045"/>
<polygon fill="red" stroke="red" stroke-width="0.157844" points="704.375,-67.0995 713.01,-60.9603 702.432,-60.3748 704.375,-67.0995"/>
</g>
<!-- wallRadar[&#45;1,0]&#45;&gt;Crouch -->
<g id="edge107" class="edge"><title>wallRadar[&#45;1,0]&#45;&gt;Crouch</title>
<path fill="none" stroke="red" stroke-width="0.844301" d="M73.533,-149.953C81.4641,-146.779 90.8257,-143.275 99.4823,-140.652 225.739,-102.397 379.543,-72.8918 450.767,-60.1706"/>
<polygon fill="red" stroke="red" stroke-width="0.844301" points="451.428,-63.6082 460.663,-58.4164 450.206,-56.7156 451.428,-63.6082"/>
</g>
<!-- wallRadar[&#45;1,0]&#45;&gt;MoveBackward -->
<g id="edge83" class="edge"><title>wallRadar[&#45;1,0]&#45;&gt;MoveBackward</title>
<path fill="none" stroke="red" stroke-width="0.516499" d="M71.6034,-149.902C79.8398,-146.387 89.971,-142.632 99.4823,-140.652 473.573,-62.7633 580.272,-159.121 958.482,-104.652 1008.53,-97.4441 1064.1,-83.2217 1104.89,-71.5727"/>
<polygon fill="red" stroke="red" stroke-width="0.516499" points="1106.04,-74.8859 1114.67,-68.7492 1104.09,-68.1607 1106.04,-74.8859"/>
</g>
<!-- wallRadar[&#45;1,0]&#45;&gt;TurnLeft -->
<g id="edge98" class="edge"><title>wallRadar[&#45;1,0]&#45;&gt;TurnLeft</title>
<path fill="none" stroke="green" stroke-width="0.407649" d="M71.6137,-149.951C79.8524,-146.447 89.9825,-142.686 99.4823,-140.652 393.247,-77.7388 481.582,-171.474 774.482,-104.652 803.758,-97.9729 834.96,-84.8759 858.613,-73.5842"/>
<polygon fill="green" stroke="green" stroke-width="0.407649" points="860.153,-76.7273 867.611,-69.2022 857.088,-70.434 860.153,-76.7273"/>
</g>
<!-- wallRadar[0,&#45;1] -->
<g id="node4" class="node"><title>wallRadar[0,&#45;1]</title>
<polygon fill="lightgray" stroke="black" points="2228.98,-168.037 2155.98,-168.037 2155.98,-150.037 2228.98,-150.037 2228.98,-168.037"/>
<text text-anchor="middle" x="2192.48" y="-156.837" font-family="Times,serif" font-size="9.00">wallRadar[0,&#45;1]</text>
</g>
<!-- wallRadar[0,&#45;1]&#45;&gt;Jump -->
<g id="edge99" class="edge"><title>wallRadar[0,&#45;1]&#45;&gt;Jump</title>
<path fill="none" stroke="red" stroke-width="0.299205" d="M2174.89,-149.912C2166.72,-146.489 2156.78,-142.806 2147.48,-140.652 1967.12,-98.8778 1909.84,-157.758 1732.48,-104.652 1709.08,-97.6457 1684.9,-84.4765 1666.78,-73.2322"/>
<polygon fill="red" stroke="red" stroke-width="0.299205" points="1668.21,-69.9942 1657.9,-67.5705 1664.45,-75.897 1668.21,-69.9942"/>
</g>
<!-- wallRadar[0,&#45;1]&#45;&gt;MoveForward -->
<g id="edge96" class="edge"><title>wallRadar[0,&#45;1]&#45;&gt;MoveForward</title>
<path fill="none" stroke="red" stroke-width="0.742795" d="M2175.34,-150.005C2167.1,-146.513 2156.97,-142.747 2147.48,-140.652 1910.88,-88.3948 1839.45,-159.719 1603.48,-104.652 1578.97,-98.9324 1553.07,-88.9019 1531.32,-79.2165"/>
<polygon fill="red" stroke="red" stroke-width="0.742795" points="1532.5,-75.9097 1521.95,-74.9545 1529.6,-82.2814 1532.5,-75.9097"/>
</g>
<!-- wallRadar[0,&#45;1]&#45;&gt;MoveLeft -->
<g id="edge49" class="edge"><title>wallRadar[0,&#45;1]&#45;&gt;MoveLeft</title>
<path fill="none" stroke="red" stroke-width="0.122932" d="M2176.35,-149.994C2144.12,-133.921 2070.84,-97.3818 2024.17,-74.1148"/>
<polygon fill="red" stroke="red" stroke-width="0.122932" points="2025.73,-70.9784 2015.22,-69.6483 2022.6,-77.2429 2025.73,-70.9784"/>
</g>
<!-- wallRadar[0,&#45;1]&#45;&gt;TurnRight -->
<g id="edge11" class="edge"><title>wallRadar[0,&#45;1]&#45;&gt;TurnRight</title>
<path fill="none" stroke="red" stroke-width="0.514643" d="M2175.35,-149.935C2167.12,-146.427 2156.99,-142.669 2147.48,-140.652 1831.89,-73.6701 1739.32,-165.47 1422.48,-104.652 1385.69,-97.5893 1345.62,-83.5273 1316.15,-71.9055"/>
<polygon fill="red" stroke="red" stroke-width="0.514643" points="1317.17,-68.5433 1306.59,-68.0714 1314.57,-75.0408 1317.17,-68.5433"/>
</g>
<!-- wallRadar[0.7,0.7] -->
<g id="node5" class="node"><title>wallRadar[0.7,0.7]</title>
<polygon fill="lightgray" stroke="black" points="1599.98,-168.037 1516.98,-168.037 1516.98,-150.037 1599.98,-150.037 1599.98,-168.037"/>
<text text-anchor="middle" x="1558.48" y="-156.837" font-family="Times,serif" font-size="9.00">wallRadar[0.7,0.7]</text>
</g>
<!-- wallRadar[0.7,0.7]&#45;&gt;Shoot -->
<g id="edge75" class="edge"><title>wallRadar[0.7,0.7]&#45;&gt;Shoot</title>
<path fill="none" stroke="green" stroke-width="0.68045" d="M1538.96,-149.981C1529.6,-146.484 1518.13,-142.72 1507.48,-140.652 1222.15,-85.2439 1137.1,-172.563 854.482,-104.652 824.747,-97.5066 793.138,-83.0105 770.438,-71.241"/>
<polygon fill="green" stroke="green" stroke-width="0.68045" points="772.067,-68.1429 761.591,-66.5579 768.792,-74.3296 772.067,-68.1429"/>
</g>
<!-- wallRadar[0.7,0.7]&#45;&gt;MoveForward -->
<g id="edge20" class="edge"><title>wallRadar[0.7,0.7]&#45;&gt;MoveForward</title>
<path fill="none" stroke="green" stroke-width="0.104543" d="M1552.28,-149.82C1544.01,-138.852 1528.71,-118.58 1514.27,-99.4369"/>
<polygon fill="green" stroke="green" stroke-width="0.104543" points="1516.97,-97.2074 1508.16,-91.3325 1511.39,-101.423 1516.97,-97.2074"/>
</g>
<!-- wallRadar[0.7,0.7]&#45;&gt;MoveBackward -->
<g id="edge90" class="edge"><title>wallRadar[0.7,0.7]&#45;&gt;MoveBackward</title>
<path fill="none" stroke="red" stroke-width="0.36289" d="M1537.91,-149.97C1528.73,-146.643 1517.69,-143.02 1507.48,-140.652 1384.83,-112.196 1341.98,-154.777 1226.48,-104.652 1220.76,-102.169 1215.15,-98.9927 1209.79,-95.4394"/>
<polygon fill="red" stroke="red" stroke-width="0.36289" points="1211.76,-92.5436 1201.58,-89.5912 1207.69,-98.2445 1211.76,-92.5436"/>
</g>
<!-- wallRadar[0.7,0.7]&#45;&gt;MoveRight -->
<g id="edge102" class="edge"><title>wallRadar[0.7,0.7]&#45;&gt;MoveRight</title>
<path fill="none" stroke="green" stroke-width="0.477951" d="M1575.61,-149.994C1609.53,-134.068 1686.24,-98.046 1735.85,-74.7541"/>
<polygon fill="green" stroke="green" stroke-width="0.477951" points="1737.52,-77.8366 1745.08,-70.4181 1734.54,-71.5004 1737.52,-77.8366"/>
</g>
<!-- wallRadar[0.7,0.7]&#45;&gt;MoveLeft -->
<g id="edge60" class="edge"><title>wallRadar[0.7,0.7]&#45;&gt;MoveLeft</title>
<path fill="none" stroke="red" stroke-width="0.245598" d="M1579.59,-149.958C1588.68,-146.708 1599.5,-143.148 1609.48,-140.652 1706.03,-116.513 1733.9,-128.652 1830.48,-104.652 1867.64,-95.4185 1908.72,-81.3026 1938.79,-70.2097"/>
<polygon fill="red" stroke="red" stroke-width="0.245598" points="1940.4,-73.346 1948.55,-66.575 1937.96,-66.7864 1940.4,-73.346"/>
</g>
<!-- wallRadar[0.7,0.7]&#45;&gt;TurnRight -->
<g id="edge70" class="edge"><title>wallRadar[0.7,0.7]&#45;&gt;TurnRight</title>
<path fill="none" stroke="red" stroke-width="0.329392" d="M1536.52,-149.994C1489.71,-132.857 1379.35,-92.4515 1317.14,-69.6759"/>
<polygon fill="red" stroke="red" stroke-width="0.329392" points="1318.18,-66.3296 1307.59,-66.1782 1315.77,-72.9029 1318.18,-66.3296"/>
</g>
<!-- wallRadar[&#45;0.7,0.7] -->
<g id="node6" class="node"><title>wallRadar[&#45;0.7,0.7]</title>
<polygon fill="lightgray" stroke="black" points="1498.48,-168.037 1412.48,-168.037 1412.48,-150.037 1498.48,-150.037 1498.48,-168.037"/>
<text text-anchor="middle" x="1455.48" y="-156.837" font-family="Times,serif" font-size="9.00">wallRadar[&#45;0.7,0.7]</text>
</g>
<!-- wallRadar[&#45;0.7,0.7]&#45;&gt;Jump -->
<g id="edge35" class="edge"><title>wallRadar[&#45;0.7,0.7]&#45;&gt;Jump</title>
<path fill="none" stroke="green" stroke-width="0.149091" d="M1471.07,-149.995C1490.71,-139.782 1525.41,-121.462 1554.48,-104.652 1572.26,-94.3734 1591.81,-82.3218 1607.47,-72.4804"/>
<polygon fill="green" stroke="green" stroke-width="0.149091" points="1609.61,-75.2692 1616.2,-66.9715 1605.87,-69.3499 1609.61,-75.2692"/>
</g>
<!-- wallRadar[&#45;0.7,0.7]&#45;&gt;MoveForward -->
<g id="edge57" class="edge"><title>wallRadar[&#45;0.7,0.7]&#45;&gt;MoveForward</title>
<path fill="none" stroke="red" stroke-width="0.467187" d="M1457.37,-149.82C1459.45,-140.717 1463.01,-125.205 1466.66,-109.249"/>
<polygon fill="red" stroke="red" stroke-width="0.467187" points="1470.12,-109.84 1468.94,-99.3107 1463.3,-108.276 1470.12,-109.84"/>
</g>
<!-- wallRadar[&#45;0.7,0.7]&#45;&gt;MoveBackward -->
<g id="edge81" class="edge"><title>wallRadar[&#45;0.7,0.7]&#45;&gt;MoveBackward</title>
<path fill="none" stroke="green" stroke-width="0.163765" d="M1416.8,-150.034C1356.06,-137.313 1243.44,-113.061 1226.48,-104.652 1221.11,-101.988 1215.79,-98.7742 1210.67,-95.2703"/>
<polygon fill="green" stroke="green" stroke-width="0.163765" points="1212.39,-92.1969 1202.25,-89.1451 1208.28,-97.8578 1212.39,-92.1969"/>
</g>
<!-- wallRadar[&#45;0.7,0.7]&#45;&gt;TurnRight -->
<g id="edge37" class="edge"><title>wallRadar[&#45;0.7,0.7]&#45;&gt;TurnRight</title>
<path fill="none" stroke="green" stroke-width="0.302341" d="M1441.43,-149.994C1414.43,-134.545 1354.38,-100.187 1313.65,-76.8813"/>
<polygon fill="green" stroke="green" stroke-width="0.302341" points="1315.18,-73.7247 1304.76,-71.7961 1311.7,-79.8004 1315.18,-73.7247"/>
</g>
<!-- wallRadar[&#45;0.7,&#45;0.7] -->
<g id="node7" class="node"><title>wallRadar[&#45;0.7,&#45;0.7]</title>
<polygon fill="lightgray" stroke="black" points="1095.98,-168.037 1006.98,-168.037 1006.98,-150.037 1095.98,-150.037 1095.98,-168.037"/>
<text text-anchor="middle" x="1051.48" y="-156.837" font-family="Times,serif" font-size="9.00">wallRadar[&#45;0.7,&#45;0.7]</text>
</g>
<!-- wallRadar[&#45;0.7,&#45;0.7]&#45;&gt;Shoot -->
<g id="edge38" class="edge"><title>wallRadar[&#45;0.7,&#45;0.7]&#45;&gt;Shoot</title>
<path fill="none" stroke="red" stroke-width="0.16195" d="M1027.66,-150C1018.29,-146.937 1007.42,-143.5 997.482,-140.652 934.479,-122.6 916.451,-125.988 854.482,-104.652 825.877,-94.8029 794.569,-80.7443 771.696,-69.8302"/>
<polygon fill="red" stroke="red" stroke-width="0.16195" points="772.969,-66.5587 762.442,-65.3667 769.928,-72.8636 772.969,-66.5587"/>
</g>
<!-- wallRadar[&#45;0.7,&#45;0.7]&#45;&gt;Jump -->
<g id="edge101" class="edge"><title>wallRadar[&#45;0.7,&#45;0.7]&#45;&gt;Jump</title>
<path fill="none" stroke="green" stroke-width="0.161789" d="M1072.47,-150.029C1082.35,-146.587 1094.37,-142.855 1105.48,-140.652 1301.86,-101.716 1364.26,-167.041 1554.48,-104.652 1574.26,-98.1637 1594.18,-86.0783 1609.54,-75.2641"/>
<polygon fill="green" stroke="green" stroke-width="0.161789" points="1612,-77.8073 1618.03,-69.0956 1607.88,-72.1457 1612,-77.8073"/>
</g>
<!-- wallRadar[&#45;0.7,&#45;0.7]&#45;&gt;TurnRight -->
<g id="edge56" class="edge"><title>wallRadar[&#45;0.7,&#45;0.7]&#45;&gt;TurnRight</title>
<path fill="none" stroke="red" stroke-width="0.100723" d="M1076.18,-149.97C1085.37,-147 1095.89,-143.635 1105.48,-140.652 1158.65,-124.119 1178.32,-134.249 1225.48,-104.652 1231.81,-100.678 1237.83,-95.6269 1243.32,-90.2512"/>
<polygon fill="red" stroke="red" stroke-width="0.100723" points="1246.07,-92.4387 1250.44,-82.7902 1241,-87.6033 1246.07,-92.4387"/>
</g>
<!-- wallRadar[0.7,&#45;0.7] -->
<g id="node8" class="node"><title>wallRadar[0.7,&#45;0.7]</title>
<polygon fill="lightgray" stroke="black" points="988.482,-168.037 902.482,-168.037 902.482,-150.037 988.482,-150.037 988.482,-168.037"/>
<text text-anchor="middle" x="945.482" y="-156.837" font-family="Times,serif" font-size="9.00">wallRadar[0.7,&#45;0.7]</text>
</g>
<!-- wallRadar[0.7,&#45;0.7]&#45;&gt;Shoot -->
<g id="edge85" class="edge"><title>wallRadar[0.7,&#45;0.7]&#45;&gt;Shoot</title>
<path fill="none" stroke="red" stroke-width="0.237445" d="M929.583,-149.994C895.82,-132.915 816.374,-92.7274 771.267,-69.91"/>
<polygon fill="red" stroke="red" stroke-width="0.237445" points="772.695,-66.7099 762.192,-65.3192 769.535,-72.9563 772.695,-66.7099"/>
</g>
<!-- wallRadar[0.7,&#45;0.7]&#45;&gt;Jump -->
<g id="edge84" class="edge"><title>wallRadar[0.7,&#45;0.7]&#45;&gt;Jump</title>
<path fill="none" stroke="green" stroke-width="0.191112" d="M965.406,-150.031C974.954,-146.545 986.647,-142.776 997.482,-140.652 1240.92,-92.9266 1318.17,-180.136 1554.48,-104.652 1574.31,-98.3169 1594.23,-86.2376 1609.58,-75.3883"/>
<polygon fill="green" stroke="green" stroke-width="0.191112" points="1612.05,-77.9211 1618.06,-69.1953 1607.92,-72.2691 1612.05,-77.9211"/>
</g>
<!-- wallRadar[0.7,&#45;0.7]&#45;&gt;MoveForward -->
<g id="edge71" class="edge"><title>wallRadar[0.7,&#45;0.7]&#45;&gt;MoveForward</title>
<path fill="none" stroke="green" stroke-width="0.112444" d="M966.443,-149.874C975.809,-146.529 987.065,-142.918 997.482,-140.652 1145.53,-108.442 1188.79,-138.485 1336.48,-104.652 1366.82,-97.7011 1399.58,-86.2522 1426.07,-75.9291"/>
<polygon fill="green" stroke="green" stroke-width="0.112444" points="1427.52,-79.1194 1435.54,-72.1872 1424.95,-72.6099 1427.52,-79.1194"/>
</g>
<!-- wallRadar[0.7,&#45;0.7]&#45;&gt;TurnRight -->
<g id="edge86" class="edge"><title>wallRadar[0.7,&#45;0.7]&#45;&gt;TurnRight</title>
<path fill="none" stroke="red" stroke-width="0.136864" d="M966.753,-150.036C976.079,-146.761 987.218,-143.159 997.482,-140.652 1097.14,-116.304 1135.11,-153.203 1225.48,-104.652 1232.14,-101.074 1238.35,-96.1802 1243.94,-90.8264"/>
<polygon fill="red" stroke="red" stroke-width="0.136864" points="1246.74,-92.9575 1251.15,-83.3214 1241.7,-88.1078 1246.74,-92.9575"/>
</g>
<!-- wallRadar[0.7,&#45;0.7]&#45;&gt;TurnLeft -->
<g id="edge36" class="edge"><title>wallRadar[0.7,&#45;0.7]&#45;&gt;TurnLeft</title>
<path fill="none" stroke="red" stroke-width="0.289038" d="M941.716,-149.82C936.12,-137.612 925.239,-113.877 915.671,-93.0031"/>
<polygon fill="red" stroke="red" stroke-width="0.289038" points="918.739,-91.2972 911.39,-83.6653 912.376,-94.2142 918.739,-91.2972"/>
</g>
<!-- enemyRadar[RightBack] -->
<g id="node9" class="node"><title>enemyRadar[RightBack]</title>
<polygon fill="lightgray" stroke="black" points="1218.48,-168.037 1114.48,-168.037 1114.48,-150.037 1218.48,-150.037 1218.48,-168.037"/>
<text text-anchor="middle" x="1166.48" y="-156.837" font-family="Times,serif" font-size="9.00">enemyRadar[RightBack]</text>
</g>
<!-- enemyRadar[RightBack]&#45;&gt;Shoot -->
<g id="edge92" class="edge"><title>enemyRadar[RightBack]&#45;&gt;Shoot</title>
<path fill="none" stroke="red" stroke-width="0.371792" d="M1140.73,-150.003C1129.65,-146.761 1116.51,-143.194 1104.48,-140.652 994.649,-117.449 962.374,-135.652 854.482,-104.652 825.221,-96.244 793.733,-81.9485 770.958,-70.5765"/>
<polygon fill="red" stroke="red" stroke-width="0.371792" points="772.264,-67.3141 761.763,-65.9075 769.095,-73.5557 772.264,-67.3141"/>
</g>
<!-- enemyRadar[RightBack]&#45;&gt;Jump -->
<g id="edge39" class="edge"><title>enemyRadar[RightBack]&#45;&gt;Jump</title>
<path fill="none" stroke="red" stroke-width="0.515851" d="M1191.18,-149.976C1202.19,-146.649 1215.38,-143.025 1227.48,-140.652 1370.96,-112.516 1416.24,-152.271 1554.48,-104.652 1574.17,-97.8713 1594.08,-85.7742 1609.46,-75.0268"/>
<polygon fill="red" stroke="red" stroke-width="0.515851" points="1611.89,-77.5897 1617.96,-68.9053 1607.8,-71.9096 1611.89,-77.5897"/>
</g>
<!-- enemyRadar[RightBack]&#45;&gt;MoveBackward -->
<g id="edge78" class="edge"><title>enemyRadar[RightBack]&#45;&gt;MoveBackward</title>
<path fill="none" stroke="green" stroke-width="0.149538" d="M1166.33,-149.82C1166.17,-141.828 1165.93,-128.897 1165.66,-115.062"/>
<polygon fill="green" stroke="green" stroke-width="0.149538" points="1169.16,-114.817 1165.47,-104.886 1162.16,-114.951 1169.16,-114.817"/>
</g>
<!-- enemyRadar[RightBack]&#45;&gt;MoveRight -->
<g id="edge88" class="edge"><title>enemyRadar[RightBack]&#45;&gt;MoveRight</title>
<path fill="none" stroke="green" stroke-width="0.200604" d="M1190.56,-149.99C1201.68,-146.583 1215.13,-142.89 1227.48,-140.652 1422.29,-105.35 1480.09,-155.307 1671.48,-104.652 1694.35,-98.6006 1718.3,-87.991 1738,-77.9826"/>
<polygon fill="green" stroke="green" stroke-width="0.200604" points="1739.76,-81.0124 1747.02,-73.2933 1736.53,-74.802 1739.76,-81.0124"/>
</g>
<!-- enemyRadar[RightBack]&#45;&gt;TurnLeft -->
<g id="edge43" class="edge"><title>enemyRadar[RightBack]&#45;&gt;TurnLeft</title>
<path fill="none" stroke="red" stroke-width="0.398539" d="M1145.82,-149.994C1101.63,-132.791 997.204,-92.1433 938.818,-69.4164"/>
<polygon fill="red" stroke="red" stroke-width="0.398539" points="939.757,-66.0259 929.168,-65.66 937.218,-72.5491 939.757,-66.0259"/>
</g>
<!-- enemyRadar[LeftBack] -->
<g id="node10" class="node"><title>enemyRadar[LeftBack]</title>
<polygon fill="lightgray" stroke="black" points="1997.98,-231.421 1898.98,-231.421 1898.98,-213.421 1997.98,-213.421 1997.98,-231.421"/>
<text text-anchor="middle" x="1948.48" y="-220.221" font-family="Times,serif" font-size="9.00">enemyRadar[LeftBack]</text>
</g>
<!-- enemyRadar[LeftBack]&#45;&gt;Shoot -->
<g id="edge21" class="edge"><title>enemyRadar[LeftBack]&#45;&gt;Shoot</title>
<path fill="none" stroke="green" stroke-width="0.20506" d="M1898.54,-221.243C1598.08,-220.057 42.5198,-212.24 8.48234,-177.421 -2.94146,-165.736 -2.66783,-152.599 8.48234,-140.652 48.0741,-98.2299 472.15,-113.604 529.482,-104.652 591.42,-94.9802 661.945,-75.9394 703.196,-63.9648"/>
<polygon fill="green" stroke="green" stroke-width="0.20506" points="704.418,-67.2539 713.03,-61.0826 702.449,-60.5365 704.418,-67.2539"/>
</g>
<!-- enemyRadar[LeftBack]&#45;&gt;MoveRight -->
<g id="edge4" class="edge"><title>enemyRadar[LeftBack]&#45;&gt;MoveRight</title>
<path fill="none" stroke="red" stroke-width="0.295476" d="M1998.1,-221.169C2126.34,-220.005 2461.19,-213.504 2494.48,-177.421 2505.56,-165.411 2505.66,-152.574 2494.48,-140.652 2451.99,-95.3279 1997.47,-116.513 1936.48,-104.652 1899.2,-97.3999 1858.48,-83.6775 1828.13,-72.2452"/>
<polygon fill="red" stroke="red" stroke-width="0.295476" points="1829.26,-68.9268 1818.66,-68.625 1826.76,-75.4652 1829.26,-68.9268"/>
</g>
<!-- enemyRadar[LeftBack]&#45;&gt;MoveLeft -->
<g id="edge10" class="edge"><title>enemyRadar[LeftBack]&#45;&gt;MoveLeft</title>
<path fill="none" stroke="green" stroke-width="0.493992" stroke-dasharray="1,5" d="M1998.16,-221.416C2131.89,-220.886 2491.85,-215.868 2527.48,-177.421 2538.59,-165.436 2538.08,-153.088 2527.48,-140.652 2463.45,-65.5437 2149.58,-54.7671 2029.41,-53.4228"/>
<polygon fill="green" stroke="green" stroke-width="0.493992" points="2029.44,-49.923 2019.41,-53.3279 2029.37,-56.9227 2029.44,-49.923"/>
</g>
<!-- enemyRadar[LeftBack]&#45;&gt;TurnRight -->
<g id="edge15" class="edge"><title>enemyRadar[LeftBack]&#45;&gt;TurnRight</title>
<path fill="none" stroke="green" stroke-width="0.40708" d="M1898.96,-221.589C1781.9,-221.324 1491.37,-216.612 1403.48,-177.421 1403.1,-177.252 1345.35,-122.483 1306.67,-85.772"/>
<polygon fill="green" stroke="green" stroke-width="0.40708" points="1308.87,-83.0368 1299.21,-78.692 1304.05,-88.1144 1308.87,-83.0368"/>
</g>
<!-- enemyRadar[LeftBack]&#45;&gt;TurnLeft -->
<g id="edge103" class="edge"><title>enemyRadar[LeftBack]&#45;&gt;TurnLeft</title>
<path fill="none" stroke="red" stroke-width="0.343087" d="M1898.9,-221C1631.88,-218.615 376.186,-205.897 348.482,-177.421 337.087,-165.708 337.424,-152.684 348.482,-140.652 380.626,-105.677 728.34,-115.934 774.482,-104.652 803.522,-97.5511 834.579,-84.5446 858.22,-73.402"/>
<polygon fill="red" stroke="red" stroke-width="0.343087" points="860.046,-76.4077 867.545,-68.9229 857.015,-70.0979 860.046,-76.4077"/>
</g>
<!-- 55 -->
<g id="node34" class="node"><title>55</title>
<ellipse fill="white" stroke="black" cx="2597.48" cy="-159.037" rx="18.2703" ry="18.2703"/>
<text text-anchor="middle" x="2597.48" y="-156.837" font-family="Times,serif" font-size="9.00">55</text>
</g>
<!-- enemyRadar[LeftBack]&#45;&gt;55 -->
<g id="edge111" class="edge"><title>enemyRadar[LeftBack]&#45;&gt;55</title>
<path fill="none" stroke="green" stroke-width="0.5168" d="M1998.21,-220.584C2125.3,-218.014 2459.44,-208.422 2565.48,-177.421 2568.12,-176.65 2570.79,-175.638 2573.4,-174.491"/>
<polygon fill="green" stroke="green" stroke-width="0.5168" points="2575.09,-177.558 2582.43,-169.925 2571.93,-171.31 2575.09,-177.558"/>
</g>
<!-- enemyRadar[Right] -->
<g id="node11" class="node"><title>enemyRadar[Right]</title>
<polygon fill="lightgray" stroke="black" points="1704.48,-168.037 1618.48,-168.037 1618.48,-150.037 1704.48,-150.037 1704.48,-168.037"/>
<text text-anchor="middle" x="1661.48" y="-156.837" font-family="Times,serif" font-size="9.00">enemyRadar[Right]</text>
</g>
<!-- enemyRadar[Right]&#45;&gt;Shoot -->
<g id="edge24" class="edge"><title>enemyRadar[Right]&#45;&gt;Shoot</title>
<path fill="none" stroke="red" stroke-width="0.475237" d="M1641.18,-149.953C1631.45,-146.449 1619.53,-142.689 1608.48,-140.652 1278.55,-79.8189 1180.98,-181.835 854.482,-104.652 824.721,-97.6162 793.115,-83.1108 770.422,-71.3098"/>
<polygon fill="red" stroke="red" stroke-width="0.475237" points="772.052,-68.2123 761.578,-66.6127 768.768,-74.3944 772.052,-68.2123"/>
</g>
<!-- enemyRadar[Right]&#45;&gt;Jump -->
<g id="edge27" class="edge"><title>enemyRadar[Right]&#45;&gt;Jump</title>
<path fill="none" stroke="green" stroke-width="0.15818" d="M1659.6,-149.82C1656.55,-136.502 1650.35,-109.464 1645.29,-87.3892"/>
<polygon fill="green" stroke="green" stroke-width="0.15818" points="1648.63,-86.3139 1642.99,-77.3486 1641.81,-87.8779 1648.63,-86.3139"/>
</g>
<!-- enemyRadar[Right]&#45;&gt;Crouch -->
<g id="edge30" class="edge"><title>enemyRadar[Right]&#45;&gt;Crouch</title>
<path fill="none" stroke="red" stroke-width="0.137834" d="M1641.44,-150.004C1631.66,-146.466 1619.63,-142.662 1608.48,-140.652 1211.89,-69.1658 1101.6,-160.336 702.482,-104.652 640.981,-96.0712 571.285,-77.4242 529.127,-65.1274"/>
<polygon fill="red" stroke="red" stroke-width="0.137834" points="529.862,-61.6952 519.28,-62.2244 527.882,-68.4095 529.862,-61.6952"/>
</g>
<!-- enemyRadar[Right]&#45;&gt;MoveForward -->
<g id="edge58" class="edge"><title>enemyRadar[Right]&#45;&gt;MoveForward</title>
<path fill="none" stroke="green" stroke-width="0.273153" d="M1647.5,-149.994C1622.66,-135.702 1569.7,-105.229 1529.83,-82.2935"/>
<polygon fill="green" stroke="green" stroke-width="0.273153" points="1531.44,-79.1824 1521.03,-77.2292 1527.95,-85.2499 1531.44,-79.1824"/>
</g>
<!-- enemyRadar[Right]&#45;&gt;MoveRight -->
<g id="edge9" class="edge"><title>enemyRadar[Right]&#45;&gt;MoveRight</title>
<path fill="none" stroke="red" stroke-width="0.41705" d="M1670.9,-149.82C1686.42,-136.276 1718.2,-108.543 1743.73,-86.2698"/>
<polygon fill="red" stroke="red" stroke-width="0.41705" points="1746.19,-88.7666 1751.42,-79.5546 1741.59,-83.4922 1746.19,-88.7666"/>
</g>
<!-- enemyRadar[Right]&#45;&gt;MoveLeft -->
<g id="edge63" class="edge"><title>enemyRadar[Right]&#45;&gt;MoveLeft</title>
<path fill="none" stroke="green" stroke-width="0.224045" d="M1685.26,-149.953C1694.1,-146.982 1704.24,-143.619 1713.48,-140.652 1765.29,-124.025 1778.7,-121.356 1830.48,-104.652 1866.8,-92.935 1907.78,-79.058 1938.03,-68.6893"/>
<polygon fill="green" stroke="green" stroke-width="0.224045" points="1939.54,-71.8736 1947.86,-65.3157 1937.26,-65.253 1939.54,-71.8736"/>
</g>
<!-- enemyRadar[Left] -->
<g id="node12" class="node"><title>enemyRadar[Left]</title>
<polygon fill="lightgray" stroke="black" points="2137.98,-168.037 2056.98,-168.037 2056.98,-150.037 2137.98,-150.037 2137.98,-168.037"/>
<text text-anchor="middle" x="2097.48" y="-156.837" font-family="Times,serif" font-size="9.00">enemyRadar[Left]</text>
</g>
<!-- enemyRadar[Left]&#45;&gt;MoveBackward -->
<g id="edge44" class="edge"><title>enemyRadar[Left]&#45;&gt;MoveBackward</title>
<path fill="none" stroke="red" stroke-width="0.327082" d="M2078.37,-149.925C2069.2,-146.414 2057.95,-142.657 2047.48,-140.652 1868.12,-106.302 1396.9,-170.29 1226.48,-104.652 1220.58,-102.378 1214.82,-99.302 1209.35,-95.7799"/>
<polygon fill="red" stroke="red" stroke-width="0.327082" points="1211.19,-92.7996 1201,-89.9283 1207.18,-98.5327 1211.19,-92.7996"/>
</g>
<!-- enemyRadar[Left]&#45;&gt;MoveRight -->
<g id="edge108" class="edge"><title>enemyRadar[Left]&#45;&gt;MoveRight</title>
<path fill="none" stroke="red" stroke-width="0.396697" d="M2074.62,-149.973C2066.11,-147.004 2056.37,-143.637 2047.48,-140.652 1998.32,-124.135 1985.77,-120.803 1936.48,-104.652 1900.51,-92.8623 1859.89,-79.4056 1829.26,-69.2294"/>
<polygon fill="red" stroke="red" stroke-width="0.396697" points="1830.27,-65.8795 1819.68,-66.047 1828.07,-72.5223 1830.27,-65.8795"/>
</g>
<!-- enemyRadar[Left]&#45;&gt;MoveLeft -->
<g id="edge87" class="edge"><title>enemyRadar[Left]&#45;&gt;MoveLeft</title>
<path fill="none" stroke="green" stroke-width="0.540225" d="M2088.46,-149.82C2073.2,-135.926 2041.54,-107.102 2016.78,-84.5567"/>
<polygon fill="green" stroke="green" stroke-width="0.540225" points="2019.1,-81.9297 2009.34,-77.785 2014.38,-87.1055 2019.1,-81.9297"/>
</g>
<!-- enemyRadar[Left]&#45;&gt;TurnRight -->
<g id="edge89" class="edge"><title>enemyRadar[Left]&#45;&gt;TurnRight</title>
<path fill="none" stroke="green" stroke-width="0.115678" d="M2078.36,-149.989C2069.19,-146.493 2057.94,-142.729 2047.48,-140.652 1774.58,-86.4442 1695.52,-158.186 1422.48,-104.652 1385.72,-97.4436 1345.64,-83.3909 1316.17,-71.8096"/>
<polygon fill="green" stroke="green" stroke-width="0.115678" points="1317.19,-68.4471 1306.6,-67.9903 1314.59,-74.9483 1317.19,-68.4471"/>
</g>
<!-- enemyRadar[RightFront30] -->
<g id="node13" class="node"><title>enemyRadar[RightFront30]</title>
<polygon fill="lightgray" stroke="black" points="795.982,-168.037 680.982,-168.037 680.982,-150.037 795.982,-150.037 795.982,-168.037"/>
<text text-anchor="middle" x="738.482" y="-156.837" font-family="Times,serif" font-size="9.00">enemyRadar[RightFront30]</text>
</g>
<!-- enemyRadar[RightFront30]&#45;&gt;Shoot -->
<g id="edge51" class="edge"><title>enemyRadar[RightFront30]&#45;&gt;Shoot</title>
<path fill="none" stroke="green" stroke-width="0.34358" d="M738.482,-149.82C738.482,-136.976 738.482,-111.374 738.482,-89.767"/>
<polygon fill="green" stroke="green" stroke-width="0.34358" points="741.982,-89.5546 738.482,-79.5546 734.982,-89.5546 741.982,-89.5546"/>
</g>
<!-- enemyRadar[RightFront30]&#45;&gt;MoveBackward -->
<g id="edge67" class="edge"><title>enemyRadar[RightFront30]&#45;&gt;MoveBackward</title>
<path fill="none" stroke="green" stroke-width="0.462547" d="M768.796,-150.015C780.274,-147.019 793.467,-143.624 805.482,-140.652 873.296,-123.878 890.589,-121.097 958.482,-104.652 1007.46,-92.7888 1062.88,-78.9569 1103.89,-68.6431"/>
<polygon fill="green" stroke="green" stroke-width="0.462547" points="1104.89,-72.0017 1113.73,-66.1667 1103.18,-65.2134 1104.89,-72.0017"/>
</g>
<!-- enemyRadar[RightFront30]&#45;&gt;MoveRight -->
<g id="edge6" class="edge"><title>enemyRadar[RightFront30]&#45;&gt;MoveRight</title>
<path fill="none" stroke="red" stroke-width="0.605726" d="M764.309,-149.966C776.645,-146.465 791.694,-142.703 805.482,-140.652 995.996,-112.304 1484.35,-150.26 1671.48,-104.652 1694.46,-99.0517 1718.43,-88.4977 1738.11,-78.4095"/>
<polygon fill="red" stroke="red" stroke-width="0.605726" points="1739.89,-81.4258 1747.11,-73.673 1736.64,-75.2304 1739.89,-81.4258"/>
</g>
<!-- enemyRadar[RightFront30]&#45;&gt;TurnRight -->
<g id="edge79" class="edge"><title>enemyRadar[RightFront30]&#45;&gt;TurnRight</title>
<path fill="none" stroke="green" stroke-width="0.3931" d="M765.315,-149.97C777.475,-146.601 792.098,-142.945 805.482,-140.652 897.812,-124.832 1141.44,-146.023 1225.48,-104.652 1232.34,-101.277 1238.68,-96.4362 1244.33,-91.0606"/>
<polygon fill="green" stroke="green" stroke-width="0.3931" points="1247.21,-93.1222 1251.61,-83.4857 1242.16,-88.2731 1247.21,-93.1222"/>
</g>
<!-- enemyRadar[RightFront30]&#45;&gt;TurnLeft -->
<g id="edge3" class="edge"><title>enemyRadar[RightFront30]&#45;&gt;TurnLeft</title>
<path fill="none" stroke="red" stroke-width="0.187356" d="M750.695,-149.994C773.957,-134.675 825.451,-100.763 860.819,-77.4711"/>
<polygon fill="red" stroke="red" stroke-width="0.187356" points="863.009,-80.2193 869.436,-71.7961 859.159,-74.3731 863.009,-80.2193"/>
</g>
<!-- enemyRadar[LeftFront30] -->
<g id="node14" class="node"><title>enemyRadar[LeftFront30]</title>
<polygon fill="lightgray" stroke="black" points="2357.48,-168.037 2247.48,-168.037 2247.48,-150.037 2357.48,-150.037 2357.48,-168.037"/>
<text text-anchor="middle" x="2302.48" y="-156.837" font-family="Times,serif" font-size="9.00">enemyRadar[LeftFront30]</text>
</g>
<!-- enemyRadar[LeftFront30]&#45;&gt;Jump -->
<g id="edge68" class="edge"><title>enemyRadar[LeftFront30]&#45;&gt;Jump</title>
<path fill="none" stroke="red" stroke-width="0.578506" d="M2277.2,-149.951C2265.53,-146.536 2251.42,-142.848 2238.48,-140.652 2016.2,-102.924 1948.96,-167.648 1732.48,-104.652 1709.03,-97.8273 1684.84,-84.6548 1666.74,-73.3635"/>
<polygon fill="red" stroke="red" stroke-width="0.578506" points="1668.18,-70.125 1657.87,-67.674 1664.4,-76.0178 1668.18,-70.125"/>
</g>
<!-- enemyRadar[LeftFront30]&#45;&gt;MoveForward -->
<g id="edge95" class="edge"><title>enemyRadar[LeftFront30]&#45;&gt;MoveForward</title>
<path fill="none" stroke="red" stroke-width="0.411539" stroke-dasharray="1,5" d="M2277.52,-149.955C2265.79,-146.497 2251.55,-142.774 2238.48,-140.652 1959.46,-95.3556 1879.06,-167.592 1603.48,-104.652 1578.95,-99.0483 1553.04,-89.0358 1531.29,-79.3327"/>
<polygon fill="red" stroke="red" stroke-width="0.411539" points="1532.47,-76.0261 1521.92,-75.0606 1529.57,-82.3949 1532.47,-76.0261"/>
</g>
<!-- enemyRadar[LeftFront30]&#45;&gt;MoveLeft -->
<g id="edge40" class="edge"><title>enemyRadar[LeftFront30]&#45;&gt;MoveLeft</title>
<path fill="none" stroke="green" stroke-width="0.52744" d="M2277.9,-149.994C2224.13,-132.398 2095.39,-90.2728 2026.98,-67.8865"/>
<polygon fill="green" stroke="green" stroke-width="0.52744" points="2027.93,-64.5157 2017.34,-64.7321 2025.76,-71.1685 2027.93,-64.5157"/>
</g>
<!-- enemyRadar[RightFront10] -->
<g id="node15" class="node"><title>enemyRadar[RightFront10]</title>
<polygon fill="lightgray" stroke="black" points="223.982,-168.037 108.982,-168.037 108.982,-150.037 223.982,-150.037 223.982,-168.037"/>
<text text-anchor="middle" x="166.482" y="-156.837" font-family="Times,serif" font-size="9.00">enemyRadar[RightFront10]</text>
</g>
<!-- enemyRadar[RightFront10]&#45;&gt;Shoot -->
<g id="edge54" class="edge"><title>enemyRadar[RightFront10]&#45;&gt;Shoot</title>
<path fill="none" stroke="red" stroke-width="0.454815" d="M193.585,-150.002C205.44,-146.721 219.564,-143.124 232.482,-140.652 363.078,-115.659 398.682,-128.551 529.482,-104.652 590.98,-93.4155 661.37,-74.9414 702.758,-63.4908"/>
<polygon fill="red" stroke="red" stroke-width="0.454815" points="703.939,-66.7952 712.633,-60.7396 702.06,-60.052 703.939,-66.7952"/>
</g>
<!-- enemyRadar[RightFront10]&#45;&gt;Crouch -->
<g id="edge94" class="edge"><title>enemyRadar[RightFront10]&#45;&gt;Crouch</title>
<path fill="none" stroke="green" stroke-width="0.117628" d="M191.368,-149.994C247.605,-131.819 384.818,-87.4746 452.062,-65.7427"/>
<polygon fill="green" stroke="green" stroke-width="0.117628" points="453.405,-68.987 461.844,-62.5813 451.252,-62.3262 453.405,-68.987"/>
</g>
<!-- enemyRadar[RightFront10]&#45;&gt;MoveForward -->
<g id="edge26" class="edge"><title>enemyRadar[RightFront10]&#45;&gt;MoveForward</title>
<path fill="none" stroke="green" stroke-width="0.231979" d="M191.593,-149.999C203.8,-146.46 218.764,-142.656 232.482,-140.652 718.253,-69.6794 854.26,-196.692 1336.48,-104.652 1367.17,-98.794 1400.08,-87.3683 1426.58,-76.7815"/>
<polygon fill="green" stroke="green" stroke-width="0.231979" points="1428.09,-79.9436 1436.03,-72.9309 1425.45,-73.4603 1428.09,-79.9436"/>
</g>
<!-- enemyRadar[RightFront10]&#45;&gt;MoveBackward -->
<g id="edge76" class="edge"><title>enemyRadar[RightFront10]&#45;&gt;MoveBackward</title>
<path fill="none" stroke="red" stroke-width="0.384009" d="M191.922,-150.012C204.074,-146.521 218.899,-142.754 232.482,-140.652 551.744,-91.2399 638.897,-151.928 958.482,-104.652 1008.5,-97.2524 1064.07,-83.0438 1104.88,-71.4489"/>
<polygon fill="red" stroke="red" stroke-width="0.384009" points="1106.01,-74.7642 1114.66,-68.6394 1104.08,-68.0362 1106.01,-74.7642"/>
</g>
<!-- enemyRadar[RightFront10]&#45;&gt;TurnLeft -->
<g id="edge29" class="edge"><title>enemyRadar[RightFront10]&#45;&gt;TurnLeft</title>
<path fill="none" stroke="green" stroke-width="0.17693" d="M192.253,-150.024C204.35,-146.58 219.034,-142.849 232.482,-140.652 470.743,-101.727 539.465,-159.883 774.482,-104.652 803.714,-97.7821 834.917,-84.6878 858.581,-73.4451"/>
<polygon fill="green" stroke="green" stroke-width="0.17693" points="860.109,-76.5937 867.584,-69.0846 857.058,-70.2937 860.109,-76.5937"/>
</g>
<!-- enemyRadar[LeftFront10] -->
<g id="node16" class="node"><title>enemyRadar[LeftFront10]</title>
<polygon fill="lightgray" stroke="black" points="2485.48,-168.037 2375.48,-168.037 2375.48,-150.037 2485.48,-150.037 2485.48,-168.037"/>
<text text-anchor="middle" x="2430.48" y="-156.837" font-family="Times,serif" font-size="9.00">enemyRadar[LeftFront10]</text>
</g>
<!-- enemyRadar[LeftFront10]&#45;&gt;Jump -->
<g id="edge52" class="edge"><title>enemyRadar[LeftFront10]&#45;&gt;Jump</title>
<path fill="none" stroke="green" stroke-width="0.308926" d="M2405.52,-149.956C2393.79,-146.498 2379.55,-142.774 2366.48,-140.652 2087.9,-95.4143 2004.03,-181.571 1732.48,-104.652 1708.98,-97.9952 1684.8,-84.8197 1666.71,-73.485"/>
<polygon fill="green" stroke="green" stroke-width="0.308926" points="1668.14,-70.2458 1657.84,-67.7698 1664.35,-76.1294 1668.14,-70.2458"/>
</g>
<!-- enemyRadar[LeftFront10]&#45;&gt;MoveRight -->
<g id="edge105" class="edge"><title>enemyRadar[LeftFront10]&#45;&gt;MoveRight</title>
<path fill="none" stroke="red" stroke-width="0.217399" d="M2405.18,-150.026C2393.51,-146.626 2379.41,-142.929 2366.48,-140.652 2177.61,-107.378 2124.38,-143.062 1936.48,-104.652 1899.27,-97.0442 1858.55,-83.3385 1828.18,-72.0028"/>
<polygon fill="red" stroke="red" stroke-width="0.217399" points="1829.3,-68.6827 1818.71,-68.4164 1826.82,-75.2295 1829.3,-68.6827"/>
</g>
<!-- enemyRadar[LeftFront10]&#45;&gt;MoveLeft -->
<g id="edge34" class="edge"><title>enemyRadar[LeftFront10]&#45;&gt;MoveLeft</title>
<path fill="none" stroke="green" stroke-width="0.298584" d="M2401.88,-149.993C2390.84,-146.962 2378.1,-143.55 2366.48,-140.652 2244.93,-110.335 2100.65,-78.6783 2028.45,-63.132"/>
<polygon fill="green" stroke="green" stroke-width="0.298584" points="2028.85,-59.637 2018.34,-60.9573 2027.38,-66.4807 2028.85,-59.637"/>
</g>
<!-- enemyRadar[RightFront3.5] -->
<g id="node17" class="node"><title>enemyRadar[RightFront3.5]</title>
<polygon fill="lightgray" stroke="black" points="1839.98,-168.037 1722.98,-168.037 1722.98,-150.037 1839.98,-150.037 1839.98,-168.037"/>
<text text-anchor="middle" x="1781.48" y="-156.837" font-family="Times,serif" font-size="9.00">enemyRadar[RightFront3.5]</text>
</g>
<!-- enemyRadar[RightFront3.5]&#45;&gt;Shoot -->
<g id="edge97" class="edge"><title>enemyRadar[RightFront3.5]&#45;&gt;Shoot</title>
<path fill="none" stroke="red" stroke-width="0.126722" d="M1755.26,-149.972C1742.74,-146.472 1727.47,-142.709 1713.48,-140.652 1335.44,-85.0269 1226.6,-191.477 854.482,-104.652 824.701,-97.7029 793.096,-83.1901 770.409,-71.3642"/>
<polygon fill="red" stroke="red" stroke-width="0.126722" points="772.04,-68.2672 761.568,-66.656 768.749,-74.4457 772.04,-68.2672"/>
</g>
<!-- enemyRadar[RightFront3.5]&#45;&gt;Jump -->
<g id="edge7" class="edge"><title>enemyRadar[RightFront3.5]&#45;&gt;Jump</title>
<path fill="none" stroke="red" stroke-width="0.387458" d="M1770.18,-149.82C1748,-133.691 1698.15,-97.4418 1666.26,-74.2523"/>
<polygon fill="red" stroke="red" stroke-width="0.387458" points="1667.93,-71.136 1657.78,-68.0855 1663.81,-76.7974 1667.93,-71.136"/>
</g>
<!-- enemyRadar[RightFront3.5]&#45;&gt;MoveForward -->
<g id="edge93" class="edge"><title>enemyRadar[RightFront3.5]&#45;&gt;MoveForward</title>
<path fill="none" stroke="red" stroke-width="0.170864" d="M1751.26,-149.978C1715.61,-140.24 1654.7,-122.879 1603.48,-104.652 1579.96,-96.2817 1554.41,-85.9272 1532.65,-76.7155"/>
<polygon fill="red" stroke="red" stroke-width="0.170864" points="1533.82,-73.4126 1523.25,-72.7113 1531.08,-79.852 1533.82,-73.4126"/>
</g>
<!-- enemyRadar[RightFront3.5]&#45;&gt;MoveRight -->
<g id="edge91" class="edge"><title>enemyRadar[RightFront3.5]&#45;&gt;MoveRight</title>
<path fill="none" stroke="red" stroke-width="0.454987" d="M1781.48,-149.82C1781.48,-139.536 1781.48,-121.07 1781.48,-103.027"/>
<polygon fill="red" stroke="red" stroke-width="0.454987" points="1784.98,-102.81 1781.48,-92.8099 1777.98,-102.81 1784.98,-102.81"/>
</g>
<!-- enemyRadar[LeftFront3.5] -->
<g id="node18" class="node"><title>enemyRadar[LeftFront3.5]</title>
<polygon fill="lightgray" stroke="black" points="2038.48,-168.037 1926.48,-168.037 1926.48,-150.037 2038.48,-150.037 2038.48,-168.037"/>
<text text-anchor="middle" x="1982.48" y="-156.837" font-family="Times,serif" font-size="9.00">enemyRadar[LeftFront3.5]</text>
</g>
<!-- enemyRadar[LeftFront3.5]&#45;&gt;Jump -->
<g id="edge61" class="edge"><title>enemyRadar[LeftFront3.5]&#45;&gt;Jump</title>
<path fill="none" stroke="red" stroke-width="0.286201" d="M1954.11,-149.993C1942.77,-146.895 1929.55,-143.436 1917.48,-140.652 1835.86,-121.819 1811.35,-132.884 1732.48,-104.652 1709.64,-96.4737 1685.61,-83.4442 1667.43,-72.56"/>
<polygon fill="red" stroke="red" stroke-width="0.286201" points="1668.85,-69.3283 1658.5,-67.1008 1665.21,-75.3015 1668.85,-69.3283"/>
</g>
<!-- enemyRadar[LeftFront3.5]&#45;&gt;MoveForward -->
<g id="edge69" class="edge"><title>enemyRadar[LeftFront3.5]&#45;&gt;MoveForward</title>
<path fill="none" stroke="red" stroke-width="0.202449" d="M1955.81,-149.952C1944.13,-146.662 1930.22,-143.072 1917.48,-140.652 1779.48,-114.434 1739.47,-139.853 1603.48,-104.652 1579.22,-98.3705 1553.45,-88.3044 1531.72,-78.7438"/>
<polygon fill="red" stroke="red" stroke-width="0.202449" points="1532.92,-75.4445 1522.36,-74.5465 1530.06,-81.8318 1532.92,-75.4445"/>
</g>
<!-- enemyRadar[LeftFront3.5]&#45;&gt;MoveRight -->
<g id="edge8" class="edge"><title>enemyRadar[LeftFront3.5]&#45;&gt;MoveRight</title>
<path fill="none" stroke="red" stroke-width="0.131676" d="M1967.04,-149.994C1937.2,-134.447 1870.6,-99.7528 1825.86,-76.4419"/>
<polygon fill="red" stroke="red" stroke-width="0.131676" points="1827.42,-73.3123 1816.94,-71.7961 1824.19,-79.5204 1827.42,-73.3123"/>
</g>
<!-- enemyRadar[LeftFront3.5]&#45;&gt;MoveLeft -->
<g id="edge64" class="edge"><title>enemyRadar[LeftFront3.5]&#45;&gt;MoveLeft</title>
<path fill="none" stroke="red" stroke-width="0.570972" d="M1982.48,-149.82C1982.48,-138.868 1982.48,-118.638 1982.48,-99.5197"/>
<polygon fill="red" stroke="red" stroke-width="0.570972" points="1985.98,-99.3797 1982.48,-89.3797 1978.98,-99.3797 1985.98,-99.3797"/>
</g>
<!-- enemyRadar[LeftFront3.5]&#45;&gt;TurnRight -->
<g id="edge62" class="edge"><title>enemyRadar[LeftFront3.5]&#45;&gt;TurnRight</title>
<path fill="none" stroke="green" stroke-width="0.663875" d="M1956.79,-149.967C1944.94,-146.555 1930.61,-142.865 1917.48,-140.652 1699.97,-103.992 1638.62,-148.721 1422.48,-104.652 1385.77,-97.167 1345.7,-83.1317 1316.21,-71.6276"/>
<polygon fill="green" stroke="green" stroke-width="0.663875" points="1317.22,-68.2642 1306.64,-67.8364 1314.64,-74.7724 1317.22,-68.2642"/>
</g>
<!-- enemyRadar[LeftFront3.5]&#45;&gt;TurnLeft -->
<g id="edge31" class="edge"><title>enemyRadar[LeftFront3.5]&#45;&gt;TurnLeft</title>
<path fill="none" stroke="green" stroke-width="0.314602" d="M1957.44,-149.976C1945.48,-146.477 1930.87,-142.714 1917.48,-140.652 1559.57,-85.5442 1461.86,-156.687 1103.48,-104.652 1045.69,-96.2609 980.531,-78.5969 939.256,-66.3518"/>
<polygon fill="green" stroke="green" stroke-width="0.314602" points="940.136,-62.9615 929.552,-63.4417 938.125,-69.6666 940.136,-62.9615"/>
</g>
<!-- enemyRadar[RightFront1.5] -->
<g id="node19" class="node"><title>enemyRadar[RightFront1.5]</title>
<polygon fill="lightgray" stroke="black" points="662.982,-168.037 545.982,-168.037 545.982,-150.037 662.982,-150.037 662.982,-168.037"/>
<text text-anchor="middle" x="604.482" y="-156.837" font-family="Times,serif" font-size="9.00">enemyRadar[RightFront1.5]</text>
</g>
<!-- enemyRadar[RightFront1.5]&#45;&gt;Shoot -->
<g id="edge50" class="edge"><title>enemyRadar[RightFront1.5]&#45;&gt;Shoot</title>
<path fill="none" stroke="green" stroke-width="0.341499" d="M614.997,-149.82C635.187,-134.043 680.011,-99.0169 709.733,-75.7913"/>
<polygon fill="green" stroke="green" stroke-width="0.341499" points="711.958,-78.4944 717.683,-69.5792 707.648,-72.9787 711.958,-78.4944"/>
</g>
<!-- enemyRadar[RightFront1.5]&#45;&gt;Crouch -->
<g id="edge32" class="edge"><title>enemyRadar[RightFront1.5]&#45;&gt;Crouch</title>
<path fill="none" stroke="red" stroke-width="0.162705" d="M595.537,-149.82C579.459,-135.052 545.017,-103.417 519.939,-80.3827"/>
<polygon fill="red" stroke="red" stroke-width="0.162705" points="522.22,-77.7254 512.488,-73.5384 517.485,-82.8808 522.22,-77.7254"/>
</g>
<!-- enemyRadar[RightFront1.5]&#45;&gt;MoveLeft -->
<g id="edge42" class="edge"><title>enemyRadar[RightFront1.5]&#45;&gt;MoveLeft</title>
<path fill="none" stroke="red" stroke-width="0.240689" d="M629.981,-149.992C642.374,-146.451 657.565,-142.648 671.482,-140.652 1181.62,-67.48 1323.3,-196.08 1830.48,-104.652 1868.33,-97.83 1909.56,-83.4387 1939.52,-71.6262"/>
<polygon fill="red" stroke="red" stroke-width="0.240689" points="1940.85,-74.863 1948.83,-67.8945 1938.25,-68.3653 1940.85,-74.863"/>
</g>
<!-- enemyRadar[RightFront1.5]&#45;&gt;TurnRight -->
<g id="edge100" class="edge"><title>enemyRadar[RightFront1.5]&#45;&gt;TurnRight</title>
<path fill="none" stroke="green" stroke-width="0.284365" d="M630.651,-150.021C642.932,-146.576 657.838,-142.845 671.482,-140.652 793.289,-121.072 1114.24,-157.995 1225.48,-104.652 1232.37,-101.348 1238.73,-96.5429 1244.39,-91.181"/>
<polygon fill="green" stroke="green" stroke-width="0.284365" points="1247.26,-93.2463 1251.67,-83.6126 1242.22,-88.394 1247.26,-93.2463"/>
</g>
<!-- enemyRadar[LeftFront1.5] -->
<g id="node20" class="node"><title>enemyRadar[LeftFront1.5]</title>
<polygon fill="lightgray" stroke="black" points="527.482,-168.037 415.482,-168.037 415.482,-150.037 527.482,-150.037 527.482,-168.037"/>
<text text-anchor="middle" x="471.482" y="-156.837" font-family="Times,serif" font-size="9.00">enemyRadar[LeftFront1.5]</text>
</g>
<!-- enemyRadar[LeftFront1.5]&#45;&gt;Shoot -->
<g id="edge72" class="edge"><title>enemyRadar[LeftFront1.5]&#45;&gt;Shoot</title>
<path fill="none" stroke="green" stroke-width="0.192548" stroke-dasharray="1,5" d="M491.99,-149.994C537.607,-132.104 647.88,-88.858 704.174,-66.7809"/>
<polygon fill="green" stroke="green" stroke-width="0.192548" points="705.672,-69.9527 713.704,-63.0432 703.117,-63.4359 705.672,-69.9527"/>
</g>
<!-- enemyRadar[LeftFront1.5]&#45;&gt;TurnRight -->
<g id="edge19" class="edge"><title>enemyRadar[LeftFront1.5]&#45;&gt;TurnRight</title>
<path fill="none" stroke="red" stroke-width="0.395633" d="M496.531,-150.024C508.497,-146.535 523.098,-142.767 536.482,-140.652 687.922,-116.714 1086.82,-170.066 1225.48,-104.652 1232.39,-101.391 1238.76,-96.6089 1244.43,-91.2555"/>
<polygon fill="red" stroke="red" stroke-width="0.395633" points="1247.29,-93.323 1251.71,-83.691 1242.25,-88.4687 1247.29,-93.323"/>
</g>
<!-- OnTarget -->
<g id="node21" class="node"><title>OnTarget</title>
<polygon fill="lightgray" stroke="black" points="1908.48,-168.037 1858.48,-168.037 1858.48,-150.037 1908.48,-150.037 1908.48,-168.037"/>
<text text-anchor="middle" x="1883.48" y="-156.837" font-family="Times,serif" font-size="9.00">OnTarget</text>
</g>
<!-- OnTarget&#45;&gt;MoveBackward -->
<g id="edge16" class="edge"><title>OnTarget&#45;&gt;MoveBackward</title>
<path fill="none" stroke="red" stroke-width="0.346474" d="M1870.35,-149.937C1863.99,-146.429 1856.09,-142.671 1848.48,-140.652 1714.66,-105.137 1355.33,-155.318 1226.48,-104.652 1220.59,-102.336 1214.85,-99.2341 1209.38,-95.696"/>
<polygon fill="red" stroke="red" stroke-width="0.346474" points="1211.23,-92.7165 1201.03,-89.8277 1207.2,-98.4426 1211.23,-92.7165"/>
</g>
<!-- OnTarget&#45;&gt;MoveRight -->
<g id="edge22" class="edge"><title>OnTarget&#45;&gt;MoveRight</title>
<path fill="none" stroke="red" stroke-width="0.739388" d="M1875.48,-149.82C1862.82,-136.825 1837.44,-110.771 1816.24,-89.0084"/>
<polygon fill="red" stroke="red" stroke-width="0.739388" points="1818.72,-86.5385 1809.24,-81.8175 1813.71,-91.4229 1818.72,-86.5385"/>
</g>
<!-- Health -->
<g id="node22" class="node"><title>Health</title>
<polygon fill="lightgray" stroke="black" points="397.482,-168.037 357.482,-168.037 357.482,-150.037 397.482,-150.037 397.482,-168.037"/>
<text text-anchor="middle" x="377.482" y="-156.837" font-family="Times,serif" font-size="9.00">Health</text>
</g>
<!-- Health&#45;&gt;Shoot -->
<g id="edge47" class="edge"><title>Health&#45;&gt;Shoot</title>
<path fill="none" stroke="red" stroke-width="0.109503" d="M389.214,-149.968C394.34,-146.72 400.531,-143.158 406.482,-140.652 434.014,-129.056 622.068,-82.0586 702.315,-62.225"/>
<polygon fill="red" stroke="red" stroke-width="0.109503" points="703.578,-65.5184 712.448,-59.7235 701.9,-58.7224 703.578,-65.5184"/>
</g>
<!-- Health&#45;&gt;Crouch -->
<g id="edge33" class="edge"><title>Health&#45;&gt;Crouch</title>
<path fill="none" stroke="green" stroke-width="0.489778" d="M386.349,-149.82C402.286,-135.052 436.426,-103.417 461.284,-80.3827"/>
<polygon fill="green" stroke="green" stroke-width="0.489778" points="463.714,-82.9026 468.67,-73.5384 458.956,-77.7681 463.714,-82.9026"/>
</g>
<!-- Health&#45;&gt;MoveBackward -->
<g id="edge28" class="edge"><title>Health&#45;&gt;MoveBackward</title>
<path fill="none" stroke="red" stroke-width="0.244892" d="M388.184,-149.946C393.419,-146.441 399.982,-142.681 406.482,-140.652 641.168,-67.3913 715.562,-142.523 958.482,-104.652 1008.44,-96.863 1064.02,-82.6823 1104.84,-71.1973"/>
<polygon fill="red" stroke="red" stroke-width="0.244892" points="1105.96,-74.5168 1114.62,-68.4164 1104.05,-67.7834 1105.96,-74.5168"/>
</g>
<!-- Health&#45;&gt;MoveLeft -->
<g id="edge74" class="edge"><title>Health&#45;&gt;MoveLeft</title>
<path fill="none" stroke="green" stroke-width="0.360593" d="M387.879,-150.012C393.149,-146.428 399.83,-142.584 406.482,-140.652 558.475,-96.5086 1674.64,-132.28 1830.48,-104.652 1868.47,-97.9174 1909.85,-83.4452 1939.82,-71.5798"/>
<polygon fill="green" stroke="green" stroke-width="0.360593" points="1941.17,-74.812 1949.14,-67.8321 1938.56,-68.318 1941.17,-74.812"/>
</g>
<!-- Health&#45;&gt;TurnRight -->
<g id="edge45" class="edge"><title>Health&#45;&gt;TurnRight</title>
<path fill="none" stroke="green" stroke-width="0.259306" d="M388.165,-149.884C393.396,-146.365 399.961,-142.612 406.482,-140.652 580.948,-88.2126 1060.4,-181.694 1225.48,-104.652 1232.41,-101.42 1238.78,-96.652 1244.45,-91.3042"/>
<polygon fill="green" stroke="green" stroke-width="0.259306" points="1247.32,-93.3732 1251.73,-83.7422 1242.27,-88.5176 1247.32,-93.3732"/>
</g>
<!-- TakingDmg -->
<g id="node23" class="node"><title>TakingDmg</title>
<polygon fill="lightgray" stroke="black" points="300.982,-168.037 241.982,-168.037 241.982,-150.037 300.982,-150.037 300.982,-168.037"/>
<text text-anchor="middle" x="271.482" y="-156.837" font-family="Times,serif" font-size="9.00">TakingDmg</text>
</g>
<!-- TakingDmg&#45;&gt;Shoot -->
<g id="edge59" class="edge"><title>TakingDmg&#45;&gt;Shoot</title>
<path fill="none" stroke="red" stroke-width="0.240508" d="M289.599,-149.887C297.431,-146.625 306.778,-143.075 315.482,-140.652 408.398,-114.789 435.03,-124.166 529.482,-104.652 590.705,-92.0029 661.18,-73.9628 702.659,-62.9822"/>
<polygon fill="red" stroke="red" stroke-width="0.240508" points="703.792,-66.3027 712.557,-60.3503 701.993,-59.5378 703.792,-66.3027"/>
</g>
<!-- TakingDmg&#45;&gt;Crouch -->
<g id="edge77" class="edge"><title>TakingDmg&#45;&gt;Crouch</title>
<path fill="none" stroke="green" stroke-width="0.661433" d="M288.303,-149.994C323.609,-133.113 406.134,-93.6557 454.124,-70.7102"/>
<polygon fill="green" stroke="green" stroke-width="0.661433" points="455.725,-73.8241 463.237,-66.3528 452.705,-67.5088 455.725,-73.8241"/>
</g>
<!-- TakingDmg&#45;&gt;MoveForward -->
<g id="edge66" class="edge"><title>TakingDmg&#45;&gt;MoveForward</title>
<path fill="none" stroke="green" stroke-width="0.265552" d="M301.236,-149.964C315.43,-146.462 332.718,-142.701 348.482,-140.652 784.22,-84.0226 905.03,-187.857 1336.48,-104.652 1367.05,-98.7576 1399.82,-87.3911 1426.27,-76.85"/>
<polygon fill="green" stroke="green" stroke-width="0.265552" points="1427.76,-80.0207 1435.71,-73.0154 1425.13,-73.535 1427.76,-80.0207"/>
</g>
<!-- TakingDmg&#45;&gt;TurnRight -->
<g id="edge5" class="edge"><title>TakingDmg&#45;&gt;TurnRight</title>
<path fill="none" stroke="green" stroke-width="0.253897" d="M301.24,-149.996C315.435,-146.502 332.722,-142.737 348.482,-140.652 445.166,-127.86 1137.05,-145.768 1225.48,-104.652 1232.41,-101.43 1238.79,-96.6671 1244.46,-91.3213"/>
<polygon fill="green" stroke="green" stroke-width="0.253897" points="1247.32,-93.3908 1251.74,-83.7602 1242.28,-88.5348 1247.32,-93.3908"/>
</g>
<!-- bias -->
<g id="node24" class="node"><title>bias</title>
<polygon fill="lightgray" stroke="black" points="1355.98,-168.037 1324.98,-168.037 1324.98,-150.037 1355.98,-150.037 1355.98,-168.037"/>
<text text-anchor="middle" x="1340.48" y="-156.837" font-family="Times,serif" font-size="9.00">bias</text>
</g>
<!-- bias&#45;&gt;Jump -->
<g id="edge12" class="edge"><title>bias&#45;&gt;Jump</title>
<path fill="none" stroke="red" stroke-width="0.537069" d="M1356.23,-153.524C1368.95,-149.921 1387.33,-144.805 1403.48,-140.652 1470.3,-123.473 1490.77,-131.133 1554.48,-104.652 1573.58,-96.7152 1593.33,-84.6805 1608.77,-74.2589"/>
<polygon fill="red" stroke="red" stroke-width="0.537069" points="1611.09,-76.9134 1617.33,-68.3525 1607.11,-71.1524 1611.09,-76.9134"/>
</g>
<!-- bias&#45;&gt;Crouch -->
<g id="edge23" class="edge"><title>bias&#45;&gt;Crouch</title>
<path fill="none" stroke="green" stroke-width="0.467139" d="M1331.43,-149.925C1326.95,-146.415 1321.28,-142.657 1315.48,-140.652 1186.53,-96.0284 837.446,-124.787 702.482,-104.652 641.065,-95.489 571.346,-77.0057 529.159,-64.9017"/>
<polygon fill="green" stroke="green" stroke-width="0.467139" points="529.885,-61.4681 519.306,-62.0466 527.937,-68.1915 529.885,-61.4681"/>
</g>
<!-- bias&#45;&gt;MoveForward -->
<g id="edge17" class="edge"><title>bias&#45;&gt;MoveForward</title>
<path fill="none" stroke="green" stroke-width="0.125422" stroke-dasharray="1,5" d="M1351.39,-149.82C1368.88,-136.644 1404.2,-110.039 1433.32,-88.0969"/>
<polygon fill="green" stroke="green" stroke-width="0.125422" points="1435.48,-90.8593 1441.36,-82.0467 1431.26,-85.2682 1435.48,-90.8593"/>
</g>
<!-- bias&#45;&gt;MoveBackward -->
<g id="edge41" class="edge"><title>bias&#45;&gt;MoveBackward</title>
<path fill="none" stroke="green" stroke-width="0.612018" d="M1329.62,-149.695C1325.35,-146.628 1320.32,-143.268 1315.48,-140.652 1277.96,-120.345 1263.13,-126.514 1226.48,-104.652 1221.33,-101.579 1216.17,-98.0934 1211.13,-94.4204"/>
<polygon fill="green" stroke="green" stroke-width="0.612018" points="1212.9,-91.3652 1202.82,-88.1013 1208.66,-96.9385 1212.9,-91.3652"/>
</g>
<!-- bias&#45;&gt;MoveLeft -->
<g id="edge25" class="edge"><title>bias&#45;&gt;MoveLeft</title>
<path fill="none" stroke="red" stroke-width="0.213443" d="M1356.09,-152.86C1368.73,-148.88 1387.06,-143.583 1403.48,-140.652 1590.97,-107.178 1644.01,-143.399 1830.48,-104.652 1868.13,-96.8286 1909.38,-82.5159 1939.4,-70.9886"/>
<polygon fill="red" stroke="red" stroke-width="0.213443" points="1940.68,-74.245 1948.73,-67.3555 1938.14,-67.7219 1940.68,-74.245"/>
</g>
<!-- bias&#45;&gt;TurnLeft -->
<g id="edge104" class="edge"><title>bias&#45;&gt;TurnLeft</title>
<path fill="none" stroke="red" stroke-width="0.346504" d="M1330.85,-149.849C1326.43,-146.499 1320.96,-142.891 1315.48,-140.652 1227.01,-104.501 1197.03,-124.219 1103.48,-104.652 1046.49,-92.731 981.392,-75.9778 939.895,-64.8956"/>
<polygon fill="red" stroke="red" stroke-width="0.346504" points="940.695,-61.4865 930.129,-62.2759 938.881,-68.2474 940.695,-61.4865"/>
</g>
<!-- MoveForward&#45;&gt;MoveForward -->
<g id="edge82" class="edge"><title>MoveForward&#45;&gt;MoveForward</title>
<path fill="none" stroke="red" stroke-width="0.380479" d="M1523.33,-72.1233C1535.89,-71.3469 1545.57,-64.7478 1545.57,-52.3259 1545.57,-43.5918 1540.78,-37.7363 1533.57,-34.7596"/>
<polygon fill="red" stroke="red" stroke-width="0.380479" points="1533.85,-31.237 1523.33,-32.5285 1532.36,-38.0766 1533.85,-31.237"/>
</g>
<!-- MoveLeft&#45;&gt;MoveLeft -->
<g id="edge13" class="edge"><title>MoveLeft&#45;&gt;MoveLeft</title>
<path fill="none" stroke="red" stroke-width="0.214911" d="M2013.73,-72.0541C2026.49,-73.2906 2037.25,-66.7146 2037.25,-52.3259 2037.25,-41.984 2031.69,-35.6782 2023.82,-33.4083"/>
<polygon fill="red" stroke="red" stroke-width="0.214911" points="2023.97,-29.9091 2013.73,-32.5977 2023.41,-36.8867 2023.97,-29.9091"/>
</g>
<!-- TurnRight&#45;&gt;TurnRight -->
<g id="edge14" class="edge"><title>TurnRight&#45;&gt;TurnRight</title>
<path fill="none" stroke="green" stroke-width="0.409451" d="M1304.41,-72.0796C1317.21,-73.1956 1327.96,-66.6111 1327.96,-52.3259 1327.96,-42.0584 1322.41,-35.7691 1314.53,-33.4579"/>
<polygon fill="green" stroke="green" stroke-width="0.409451" points="1314.67,-29.9573 1304.41,-32.5722 1314.06,-36.9307 1314.67,-29.9573"/>
</g>
<!-- TurnLeft&#45;&gt;TurnLeft -->
<g id="edge109" class="edge"><title>TurnLeft&#45;&gt;TurnLeft</title>
<path fill="none" stroke="red" stroke-width="0.375978" d="M925.535,-71.8503C938.314,-73.8438 949.423,-67.3357 949.423,-52.3259 949.423,-41.5376 943.685,-35.1413 935.711,-33.137"/>
<polygon fill="red" stroke="red" stroke-width="0.375978" points="935.645,-29.633 925.535,-32.8015 935.414,-36.6292 935.645,-29.633"/>
</g>
<!-- 55&#45;&gt;MoveLeft -->
<g id="edge112" class="edge"><title>55&#45;&gt;MoveLeft</title>
<path fill="none" stroke="green" stroke-width="0.514538" d="M2582.35,-148.411C2577.18,-145.506 2571.24,-142.579 2565.48,-140.652 2373.57,-76.378 2130.27,-59.2952 2029.49,-54.8489"/>
<polygon fill="green" stroke="green" stroke-width="0.514538" points="2029.47,-51.3451 2019.33,-54.4228 2029.18,-58.339 2029.47,-51.3451"/>
</g>
</g>
</svg>
