<?xml version="1.0" encoding="UTF-8" standalone="no"?>
<!DOCTYPE svg PUBLIC "-//W3C//DTD SVG 1.1//EN"
 "http://www.w3.org/Graphics/SVG/1.1/DTD/svg11.dtd">
<!-- Generated by graphviz version 2.38.0 (20140413.2041)
 -->
<!-- Title: %3 Pages: 1 -->
<svg width="2517pt" height="216pt"
 viewBox="0.00 0.00 2516.50 216.15" xmlns="http://www.w3.org/2000/svg" xmlns:xlink="http://www.w3.org/1999/xlink">
<g id="graph0" class="graph" transform="scale(1 1) rotate(0) translate(4 212.149)">
<title>%3</title>
<polygon fill="white" stroke="none" points="-4,4 -4,-212.149 2512.5,-212.149 2512.5,4 -4,4"/>
<!-- wallRadar[1,0] -->
<g id="node1" class="node"><title>wallRadar[1,0]</title>
<polygon fill="lightgray" stroke="black" points="1310.5,-208.149 1240.5,-208.149 1240.5,-190.149 1310.5,-190.149 1310.5,-208.149"/>
<text text-anchor="middle" x="1275.5" y="-196.949" font-family="Times,serif" font-size="9.00">wallRadar[1,0]</text>
</g>
<!-- Shoot -->
<g id="node25" class="node"><title>Shoot</title>
<ellipse fill="lightblue" stroke="black" cx="1773.5" cy="-77.0746" rx="26.7407" ry="26.7407"/>
<text text-anchor="middle" x="1773.5" y="-74.8746" font-family="Times,serif" font-size="9.00">Shoot</text>
</g>
<!-- wallRadar[1,0]&#45;&gt;Shoot -->
<g id="edge1" class="edge"><title>wallRadar[1,0]&#45;&gt;Shoot</title>
<path fill="none" stroke="green" stroke-width="0.347019" stroke-dasharray="1,5" d="M1310.81,-190.814C1351.01,-182.369 1418.63,-167.89 1476.5,-154.149 1571.32,-131.634 1682.44,-102.408 1738.04,-87.59"/>
<polygon fill="green" stroke="green" stroke-width="0.347019" points="1738.99,-90.9566 1747.75,-84.9956 1737.19,-84.1935 1738.99,-90.9566"/>
</g>
<!-- Move Left/Right -->
<g id="node28" class="node"><title>Move Left/Right</title>
<ellipse fill="lightblue" stroke="black" cx="1167.5" cy="-77.0746" rx="53.9813" ry="53.9813"/>
<text text-anchor="middle" x="1167.5" y="-74.8746" font-family="Times,serif" font-size="9.00">Move Left/Right</text>
</g>
<!-- wallRadar[1,0]&#45;&gt;Move Left/Right -->
<g id="edge14" class="edge"><title>wallRadar[1,0]&#45;&gt;Move Left/Right</title>
<path fill="none" stroke="green" stroke-width="0.98291" d="M1268.08,-189.896C1256.12,-176.605 1231.74,-149.495 1209.97,-125.298"/>
<polygon fill="green" stroke="green" stroke-width="0.98291" points="1212.31,-122.66 1203.02,-117.566 1207.1,-127.341 1212.31,-122.66"/>
</g>
<!-- Turn Left/Right -->
<g id="node29" class="node"><title>Turn Left/Right</title>
<ellipse fill="lightblue" stroke="black" cx="561.5" cy="-77.0746" rx="50.8235" ry="50.8235"/>
<text text-anchor="middle" x="561.5" y="-74.8746" font-family="Times,serif" font-size="9.00">Turn Left/Right</text>
</g>
<!-- wallRadar[1,0]&#45;&gt;Turn Left/Right -->
<g id="edge5" class="edge"><title>wallRadar[1,0]&#45;&gt;Turn Left/Right</title>
<path fill="none" stroke="red" stroke-width="0.919822" d="M1240.49,-191.397C1237.46,-190.929 1234.43,-190.504 1231.5,-190.149 1101.32,-174.393 762.893,-206.125 642.5,-154.149 626.952,-147.437 612.543,-136.383 600.32,-124.755"/>
<polygon fill="red" stroke="red" stroke-width="0.919822" points="602.559,-122.045 593.001,-117.474 597.622,-127.008 602.559,-122.045"/>
</g>
<!-- wallRadar[0,1] -->
<g id="node2" class="node"><title>wallRadar[0,1]</title>
<polygon fill="lightgray" stroke="black" points="763.5,-208.149 693.5,-208.149 693.5,-190.149 763.5,-190.149 763.5,-208.149"/>
<text text-anchor="middle" x="728.5" y="-196.949" font-family="Times,serif" font-size="9.00">wallRadar[0,1]</text>
</g>
<!-- wallRadar[0,1]&#45;&gt;Shoot -->
<g id="edge12" class="edge"><title>wallRadar[0,1]&#45;&gt;Shoot</title>
<path fill="none" stroke="green" stroke-width="0.224916" d="M763.504,-191.365C766.539,-190.904 769.569,-190.489 772.5,-190.149 1083.71,-154.052 1166.76,-201.254 1476.5,-154.149 1572.85,-139.496 1683.31,-106.886 1738.41,-89.5025"/>
<polygon fill="green" stroke="green" stroke-width="0.224916" points="1739.56,-92.8071 1748.03,-86.4416 1737.44,-86.1362 1739.56,-92.8071"/>
</g>
<!-- Move Forward/Backward -->
<g id="node27" class="node"><title>Move Forward/Backward</title>
<ellipse fill="lightblue" stroke="black" cx="728.5" cy="-77.0746" rx="77.1494" ry="77.1494"/>
<text text-anchor="middle" x="728.5" y="-74.8746" font-family="Times,serif" font-size="9.00">Move Forward/Backward</text>
</g>
<!-- wallRadar[0,1]&#45;&gt;Move Forward/Backward -->
<g id="edge3" class="edge"><title>wallRadar[0,1]&#45;&gt;Move Forward/Backward</title>
<path fill="none" stroke="green" stroke-width="0.110653" stroke-dasharray="1,5" d="M728.5,-189.896C728.5,-183.793 728.5,-174.776 728.5,-164.466"/>
<polygon fill="green" stroke="green" stroke-width="0.110653" points="732,-164.237 728.5,-154.237 725,-164.237 732,-164.237"/>
</g>
<!-- wallRadar[0,1]&#45;&gt;Turn Left/Right -->
<g id="edge37" class="edge"><title>wallRadar[0,1]&#45;&gt;Turn Left/Right</title>
<path fill="none" stroke="green" stroke-width="1.78009" stroke-dasharray="1,5" d="M709.177,-190.148C691.148,-182.256 663.892,-169.212 642.5,-154.149 629.045,-144.676 615.564,-133.069 603.568,-121.804"/>
<polygon fill="green" stroke="green" stroke-width="1.78009" points="605.949,-119.238 596.304,-114.855 601.111,-124.297 605.949,-119.238"/>
</g>
<!-- wallRadar[&#45;1,0] -->
<g id="node3" class="node"><title>wallRadar[&#45;1,0]</title>
<polygon fill="lightgray" stroke="black" points="675,-208.149 602,-208.149 602,-190.149 675,-190.149 675,-208.149"/>
<text text-anchor="middle" x="638.5" y="-196.949" font-family="Times,serif" font-size="9.00">wallRadar[&#45;1,0]</text>
</g>
<!-- Jump/Crouch -->
<g id="node26" class="node"><title>Jump/Crouch</title>
<ellipse fill="lightblue" stroke="black" cx="1421.5" cy="-77.0746" rx="45.9239" ry="45.9239"/>
<text text-anchor="middle" x="1421.5" y="-74.8746" font-family="Times,serif" font-size="9.00">Jump/Crouch</text>
</g>
<!-- wallRadar[&#45;1,0]&#45;&gt;Jump/Crouch -->
<g id="edge52" class="edge"><title>wallRadar[&#45;1,0]&#45;&gt;Jump/Crouch</title>
<path fill="none" stroke="red" stroke-width="0.106974" d="M675.106,-191.414C678.277,-190.943 681.441,-190.512 684.5,-190.149 933.931,-160.587 1004.46,-213.614 1248.5,-154.149 1292.21,-143.499 1338.72,-122.435 1372.5,-105.167"/>
<polygon fill="red" stroke="red" stroke-width="0.106974" points="1374.41,-108.119 1381.68,-100.409 1371.19,-101.905 1374.41,-108.119"/>
</g>
<!-- wallRadar[&#45;1,0]&#45;&gt;Move Forward/Backward -->
<g id="edge7" class="edge"><title>wallRadar[&#45;1,0]&#45;&gt;Move Forward/Backward</title>
<path fill="none" stroke="green" stroke-width="0.115417" d="M644.686,-189.896C651.614,-180.653 663.552,-164.726 676.28,-147.744"/>
<polygon fill="green" stroke="green" stroke-width="0.115417" points="679.377,-149.448 682.574,-139.347 673.776,-145.25 679.377,-149.448"/>
</g>
<!-- wallRadar[&#45;1,0]&#45;&gt;Move Left/Right -->
<g id="edge2" class="edge"><title>wallRadar[&#45;1,0]&#45;&gt;Move Left/Right</title>
<path fill="none" stroke="green" stroke-width="0.177996" stroke-dasharray="1,5" d="M673.901,-190.123C712.792,-181.305 777.097,-166.723 832.5,-154.149 927.653,-132.555 1038,-107.491 1105.27,-92.2123"/>
<polygon fill="green" stroke="green" stroke-width="0.177996" points="1106.3,-95.5667 1115.28,-89.9384 1104.75,-88.7406 1106.3,-95.5667"/>
</g>
<!-- wallRadar[&#45;1,0]&#45;&gt;Turn Left/Right -->
<g id="edge48" class="edge"><title>wallRadar[&#45;1,0]&#45;&gt;Turn Left/Right</title>
<path fill="none" stroke="green" stroke-width="0.630662" stroke-dasharray="1,5" d="M633.207,-189.896C625.097,-177.249 608.965,-152.092 594.052,-128.837"/>
<polygon fill="green" stroke="green" stroke-width="0.630662" points="596.975,-126.911 588.63,-120.382 591.082,-130.689 596.975,-126.911"/>
</g>
<!-- wallRadar[0,&#45;1] -->
<g id="node4" class="node"><title>wallRadar[0,&#45;1]</title>
<polygon fill="lightgray" stroke="black" points="972,-208.149 899,-208.149 899,-190.149 972,-190.149 972,-208.149"/>
<text text-anchor="middle" x="935.5" y="-196.949" font-family="Times,serif" font-size="9.00">wallRadar[0,&#45;1]</text>
</g>
<!-- wallRadar[0,&#45;1]&#45;&gt;Jump/Crouch -->
<g id="edge29" class="edge"><title>wallRadar[0,&#45;1]&#45;&gt;Jump/Crouch</title>
<path fill="none" stroke="red" stroke-width="0.60518" stroke-dasharray="1,5" d="M972.138,-191.648C975.302,-191.126 978.456,-190.619 981.5,-190.149 1099.84,-171.888 1133.23,-186.567 1248.5,-154.149 1291.66,-142.011 1338.04,-121.154 1371.9,-104.346"/>
<polygon fill="red" stroke="red" stroke-width="0.60518" points="1373.74,-107.339 1381.11,-99.7235 1370.6,-101.083 1373.74,-107.339"/>
</g>
<!-- wallRadar[0,&#45;1]&#45;&gt;Move Left/Right -->
<g id="edge17" class="edge"><title>wallRadar[0,&#45;1]&#45;&gt;Move Left/Right</title>
<path fill="none" stroke="red" stroke-width="0.291427" stroke-dasharray="1,5" d="M951.082,-190.084C983.256,-173.433 1058.42,-134.529 1111.09,-107.27"/>
<polygon fill="red" stroke="red" stroke-width="0.291427" points="1112.72,-110.368 1119.99,-102.663 1109.5,-104.151 1112.72,-110.368"/>
</g>
<!-- wallRadar[0,&#45;1]&#45;&gt;Turn Left/Right -->
<g id="edge50" class="edge"><title>wallRadar[0,&#45;1]&#45;&gt;Turn Left/Right</title>
<path fill="none" stroke="green" stroke-width="0.232709" d="M898.857,-191.683C895.694,-191.153 892.542,-190.635 889.5,-190.149 779.952,-172.644 742.423,-202.342 642.5,-154.149 627.39,-146.862 613.2,-135.748 601.048,-124.248"/>
<polygon fill="green" stroke="green" stroke-width="0.232709" points="603.337,-121.59 593.755,-117.069 598.426,-126.579 603.337,-121.59"/>
</g>
<!-- wallRadar[0.7,0.7] -->
<g id="node5" class="node"><title>wallRadar[0.7,0.7]</title>
<polygon fill="lightgray" stroke="black" points="2301,-208.149 2218,-208.149 2218,-190.149 2301,-190.149 2301,-208.149"/>
<text text-anchor="middle" x="2259.5" y="-196.949" font-family="Times,serif" font-size="9.00">wallRadar[0.7,0.7]</text>
</g>
<!-- wallRadar[0.7,0.7]&#45;&gt;Shoot -->
<g id="edge23" class="edge"><title>wallRadar[0.7,0.7]&#45;&gt;Shoot</title>
<path fill="none" stroke="green" stroke-width="0.538192" stroke-dasharray="1,5" d="M2226.86,-190.084C2139.46,-168.49 1900.59,-109.475 1809.47,-86.9619"/>
<polygon fill="green" stroke="green" stroke-width="0.538192" points="1810.16,-83.5267 1799.61,-84.5259 1808.48,-90.3223 1810.16,-83.5267"/>
</g>
<!-- wallRadar[0.7,0.7]&#45;&gt;Jump/Crouch -->
<g id="edge20" class="edge"><title>wallRadar[0.7,0.7]&#45;&gt;Jump/Crouch</title>
<path fill="none" stroke="green" stroke-width="0.497312" stroke-dasharray="1,5" d="M2217.79,-191.212C2214.99,-190.828 2212.21,-190.468 2209.5,-190.149 2000.56,-165.509 1945.33,-186.875 1737.5,-154.149 1644.11,-139.444 1537.62,-111.404 1475.17,-93.7808"/>
<polygon fill="green" stroke="green" stroke-width="0.497312" points="1476.11,-90.4094 1465.53,-91.0455 1474.2,-97.1433 1476.11,-90.4094"/>
</g>
<!-- wallRadar[&#45;0.7,0.7] -->
<g id="node6" class="node"><title>wallRadar[&#45;0.7,0.7]</title>
<polygon fill="lightgray" stroke="black" points="1933.5,-208.149 1847.5,-208.149 1847.5,-190.149 1933.5,-190.149 1933.5,-208.149"/>
<text text-anchor="middle" x="1890.5" y="-196.949" font-family="Times,serif" font-size="9.00">wallRadar[&#45;0.7,0.7]</text>
</g>
<!-- wallRadar[&#45;0.7,0.7]&#45;&gt;Shoot -->
<g id="edge58" class="edge"><title>wallRadar[&#45;0.7,0.7]&#45;&gt;Shoot</title>
<path fill="none" stroke="red" stroke-width="0.176176" d="M1882.46,-189.896C1865.56,-172.558 1825.76,-131.705 1799.23,-104.477"/>
<polygon fill="red" stroke="red" stroke-width="0.176176" points="1801.61,-101.91 1792.13,-97.19 1796.6,-106.795 1801.61,-101.91"/>
</g>
<!-- wallRadar[&#45;0.7,0.7]&#45;&gt;Move Left/Right -->
<g id="edge41" class="edge"><title>wallRadar[&#45;0.7,0.7]&#45;&gt;Move Left/Right</title>
<path fill="none" stroke="green" stroke-width="1.14648" stroke-dasharray="1,5" d="M1847.4,-191.259C1844.39,-190.858 1841.4,-190.483 1838.5,-190.149 1629.49,-166.136 1571.79,-200.192 1366.5,-154.149 1317.43,-143.143 1264.34,-122.366 1225.35,-105.303"/>
<polygon fill="green" stroke="green" stroke-width="1.14648" points="1226.31,-101.901 1215.75,-101.053 1223.48,-108.302 1226.31,-101.901"/>
</g>
<!-- wallRadar[&#45;0.7,&#45;0.7] -->
<g id="node7" class="node"><title>wallRadar[&#45;0.7,&#45;0.7]</title>
<polygon fill="lightgray" stroke="black" points="89,-208.149 7.10543e-15,-208.149 7.10543e-15,-190.149 89,-190.149 89,-208.149"/>
<text text-anchor="middle" x="44.5" y="-196.949" font-family="Times,serif" font-size="9.00">wallRadar[&#45;0.7,&#45;0.7]</text>
</g>
<!-- wallRadar[&#45;0.7,&#45;0.7]&#45;&gt;Move Forward/Backward -->
<g id="edge28" class="edge"><title>wallRadar[&#45;0.7,&#45;0.7]&#45;&gt;Move Forward/Backward</title>
<path fill="none" stroke="green" stroke-width="0.712604" d="M89.2544,-191.243C92.3798,-190.846 95.4849,-190.476 98.5,-190.149 214.32,-177.603 511.804,-193.372 621.5,-154.149 635.363,-149.192 649.043,-141.894 661.749,-133.75"/>
<polygon fill="green" stroke="green" stroke-width="0.712604" points="664.001,-136.456 670.38,-127.996 660.118,-130.631 664.001,-136.456"/>
</g>
<!-- wallRadar[&#45;0.7,&#45;0.7]&#45;&gt;Turn Left/Right -->
<g id="edge33" class="edge"><title>wallRadar[&#45;0.7,&#45;0.7]&#45;&gt;Turn Left/Right</title>
<path fill="none" stroke="red" stroke-width="0.386089" d="M79.2246,-190.084C166.056,-169.918 393.413,-117.113 502.044,-91.8835"/>
<polygon fill="red" stroke="red" stroke-width="0.386089" points="502.914,-95.2747 511.863,-89.603 501.33,-88.4561 502.914,-95.2747"/>
</g>
<!-- wallRadar[0.7,&#45;0.7] -->
<g id="node8" class="node"><title>wallRadar[0.7,&#45;0.7]</title>
<polygon fill="lightgray" stroke="black" points="1464.5,-208.149 1378.5,-208.149 1378.5,-190.149 1464.5,-190.149 1464.5,-208.149"/>
<text text-anchor="middle" x="1421.5" y="-196.949" font-family="Times,serif" font-size="9.00">wallRadar[0.7,&#45;0.7]</text>
</g>
<!-- wallRadar[0.7,&#45;0.7]&#45;&gt;Jump/Crouch -->
<g id="edge43" class="edge"><title>wallRadar[0.7,&#45;0.7]&#45;&gt;Jump/Crouch</title>
<path fill="none" stroke="green" stroke-width="0.107368" d="M1421.5,-189.896C1421.5,-178.095 1421.5,-155.4 1421.5,-133.523"/>
<polygon fill="green" stroke="green" stroke-width="0.107368" points="1425,-133.237 1421.5,-123.237 1418,-133.237 1425,-133.237"/>
</g>
<!-- wallRadar[0.7,&#45;0.7]&#45;&gt;Move Forward/Backward -->
<g id="edge32" class="edge"><title>wallRadar[0.7,&#45;0.7]&#45;&gt;Move Forward/Backward</title>
<path fill="none" stroke="green" stroke-width="0.440281" d="M1378.41,-191.592C1375.06,-191.098 1371.72,-190.612 1368.5,-190.149 1251.28,-173.312 1221.26,-173.901 1104.5,-154.149 1004.26,-137.192 889.877,-113.409 813.857,-96.9699"/>
<polygon fill="green" stroke="green" stroke-width="0.440281" points="814.369,-93.4996 803.854,-94.8013 812.885,-100.341 814.369,-93.4996"/>
</g>
<!-- wallRadar[0.7,&#45;0.7]&#45;&gt;Move Left/Right -->
<g id="edge45" class="edge"><title>wallRadar[0.7,&#45;0.7]&#45;&gt;Move Left/Right</title>
<path fill="none" stroke="green" stroke-width="0.819679" stroke-dasharray="1,5" d="M1404.44,-190.084C1368.41,-173.05 1283.11,-132.727 1225.32,-105.408"/>
<polygon fill="green" stroke="green" stroke-width="0.819679" points="1226.47,-102.082 1215.94,-100.972 1223.48,-108.41 1226.47,-102.082"/>
</g>
<!-- enemyRadar[RightBack] -->
<g id="node9" class="node"><title>enemyRadar[RightBack]</title>
<polygon fill="lightgray" stroke="black" points="1094.5,-208.149 990.5,-208.149 990.5,-190.149 1094.5,-190.149 1094.5,-208.149"/>
<text text-anchor="middle" x="1042.5" y="-196.949" font-family="Times,serif" font-size="9.00">enemyRadar[RightBack]</text>
</g>
<!-- enemyRadar[RightBack]&#45;&gt;Jump/Crouch -->
<g id="edge56" class="edge"><title>enemyRadar[RightBack]&#45;&gt;Jump/Crouch</title>
<path fill="none" stroke="green" stroke-width="0.168943" d="M1094.06,-190.144C1136.19,-182.889 1196.99,-170.782 1248.5,-154.149 1291.17,-140.371 1337.58,-119.626 1371.58,-103.277"/>
<polygon fill="green" stroke="green" stroke-width="0.168943" points="1373.35,-106.305 1380.82,-98.7921 1370.3,-100.007 1373.35,-106.305"/>
</g>
<!-- enemyRadar[RightBack]&#45;&gt;Move Left/Right -->
<g id="edge21" class="edge"><title>enemyRadar[RightBack]&#45;&gt;Move Left/Right</title>
<path fill="none" stroke="red" stroke-width="0.581869" d="M1051.09,-189.896C1065.5,-176.056 1095.51,-147.232 1121.44,-122.315"/>
<polygon fill="red" stroke="red" stroke-width="0.581869" points="1124.2,-124.521 1128.99,-115.069 1119.35,-119.473 1124.2,-124.521"/>
</g>
<!-- enemyRadar[RightBack]&#45;&gt;Turn Left/Right -->
<g id="edge6" class="edge"><title>enemyRadar[RightBack]&#45;&gt;Turn Left/Right</title>
<path fill="none" stroke="green" stroke-width="0.38628" d="M990.415,-191.343C987.061,-190.931 983.734,-190.53 980.5,-190.149 830.465,-172.482 779.814,-217.138 642.5,-154.149 627.107,-147.088 612.747,-135.925 600.521,-124.303"/>
<polygon fill="green" stroke="green" stroke-width="0.38628" points="602.76,-121.594 593.194,-117.04 597.832,-126.566 602.76,-121.594"/>
</g>
<!-- enemyRadar[LeftBack] -->
<g id="node10" class="node"><title>enemyRadar[LeftBack]</title>
<polygon fill="lightgray" stroke="black" points="881,-208.149 782,-208.149 782,-190.149 881,-190.149 881,-208.149"/>
<text text-anchor="middle" x="831.5" y="-196.949" font-family="Times,serif" font-size="9.00">enemyRadar[LeftBack]</text>
</g>
<!-- enemyRadar[LeftBack]&#45;&gt;Move Forward/Backward -->
<g id="edge22" class="edge"><title>enemyRadar[LeftBack]&#45;&gt;Move Forward/Backward</title>
<path fill="none" stroke="green" stroke-width="0.502063" d="M824.42,-189.896C815.91,-179.975 800.795,-162.354 785.044,-143.992"/>
<polygon fill="green" stroke="green" stroke-width="0.502063" points="787.44,-141.409 778.272,-136.098 782.127,-145.967 787.44,-141.409"/>
</g>
<!-- enemyRadar[LeftBack]&#45;&gt;Move Left/Right -->
<g id="edge39" class="edge"><title>enemyRadar[LeftBack]&#45;&gt;Move Left/Right</title>
<path fill="none" stroke="green" stroke-width="0.46515" d="M854.068,-190.084C905.359,-171.755 1032.1,-126.463 1107.77,-99.4191"/>
<polygon fill="green" stroke="green" stroke-width="0.46515" points="1108.95,-102.714 1117.19,-96.0528 1106.6,-96.1222 1108.95,-102.714"/>
</g>
<!-- enemyRadar[Right] -->
<g id="node11" class="node"><title>enemyRadar[Right]</title>
<polygon fill="lightgray" stroke="black" points="583.5,-208.149 497.5,-208.149 497.5,-190.149 583.5,-190.149 583.5,-208.149"/>
<text text-anchor="middle" x="540.5" y="-196.949" font-family="Times,serif" font-size="9.00">enemyRadar[Right]</text>
</g>
<!-- enemyRadar[Right]&#45;&gt;Shoot -->
<g id="edge19" class="edge"><title>enemyRadar[Right]&#45;&gt;Shoot</title>
<path fill="none" stroke="red" stroke-width="0.268452" stroke-dasharray="1,5" d="M583.583,-191.141C586.596,-190.768 589.591,-190.431 592.5,-190.149 983.878,-152.194 1087.45,-211.249 1476.5,-154.149 1572.93,-139.997 1683.36,-107.171 1738.43,-89.6243"/>
<polygon fill="red" stroke="red" stroke-width="0.268452" points="1739.6,-92.9241 1748.05,-86.5337 1737.46,-86.2594 1739.6,-92.9241"/>
</g>
<!-- enemyRadar[Right]&#45;&gt;Move Forward/Backward -->
<g id="edge31" class="edge"><title>enemyRadar[Right]&#45;&gt;Move Forward/Backward</title>
<path fill="none" stroke="red" stroke-width="0.288421" d="M556.654,-190.103C573.239,-181.675 599.641,-167.788 621.5,-154.149 633.677,-146.552 646.337,-138.089 658.506,-129.647"/>
<polygon fill="red" stroke="red" stroke-width="0.288421" points="660.653,-132.416 666.84,-123.816 656.64,-126.681 660.653,-132.416"/>
</g>
<!-- enemyRadar[Right]&#45;&gt;Turn Left/Right -->
<g id="edge51" class="edge"><title>enemyRadar[Right]&#45;&gt;Turn Left/Right</title>
<path fill="none" stroke="red" stroke-width="0.943037" d="M541.943,-189.896C543.887,-178.786 547.518,-158.02 551.129,-137.372"/>
<polygon fill="red" stroke="red" stroke-width="0.943037" points="554.618,-137.741 552.893,-127.287 547.723,-136.535 554.618,-137.741"/>
</g>
<!-- enemyRadar[Left] -->
<g id="node12" class="node"><title>enemyRadar[Left]</title>
<polygon fill="lightgray" stroke="black" points="1564,-208.149 1483,-208.149 1483,-190.149 1564,-190.149 1564,-208.149"/>
<text text-anchor="middle" x="1523.5" y="-196.949" font-family="Times,serif" font-size="9.00">enemyRadar[Left]</text>
</g>
<!-- enemyRadar[Left]&#45;&gt;Shoot -->
<g id="edge30" class="edge"><title>enemyRadar[Left]&#45;&gt;Shoot</title>
<path fill="none" stroke="green" stroke-width="0.241063" stroke-dasharray="1,5" d="M1540.29,-190.084C1581.09,-170.491 1686.03,-120.088 1740.13,-94.1"/>
<polygon fill="green" stroke="green" stroke-width="0.241063" points="1741.81,-97.1794 1749.31,-89.6949 1738.78,-90.8695 1741.81,-97.1794"/>
</g>
<!-- enemyRadar[Left]&#45;&gt;Move Forward/Backward -->
<g id="edge9" class="edge"><title>enemyRadar[Left]&#45;&gt;Move Forward/Backward</title>
<path fill="none" stroke="green" stroke-width="0.279299" stroke-dasharray="1,5" d="M1482.87,-191.435C1479.7,-190.977 1476.55,-190.542 1473.5,-190.149 1310.07,-169.123 1267.47,-178.52 1104.5,-154.149 1003.8,-139.09 889.272,-114.885 813.35,-97.8292"/>
<polygon fill="green" stroke="green" stroke-width="0.279299" points="813.887,-94.3625 803.362,-95.5766 812.347,-101.191 813.887,-94.3625"/>
</g>
<!-- enemyRadar[RightFront30] -->
<g id="node13" class="node"><title>enemyRadar[RightFront30]</title>
<polygon fill="lightgray" stroke="black" points="2067,-208.149 1952,-208.149 1952,-190.149 2067,-190.149 2067,-208.149"/>
<text text-anchor="middle" x="2009.5" y="-196.949" font-family="Times,serif" font-size="9.00">enemyRadar[RightFront30]</text>
</g>
<!-- enemyRadar[RightFront30]&#45;&gt;Shoot -->
<g id="edge13" class="edge"><title>enemyRadar[RightFront30]&#45;&gt;Shoot</title>
<path fill="none" stroke="green" stroke-width="0.180984" d="M1993.65,-190.084C1955.41,-170.63 1857.48,-120.805 1806.1,-94.6591"/>
<polygon fill="green" stroke="green" stroke-width="0.180984" points="1807.57,-91.4806 1797.07,-90.0653 1804.39,-97.7195 1807.57,-91.4806"/>
</g>
<!-- enemyRadar[RightFront30]&#45;&gt;Move Left/Right -->
<g id="edge44" class="edge"><title>enemyRadar[RightFront30]&#45;&gt;Move Left/Right</title>
<path fill="none" stroke="green" stroke-width="0.117455" d="M1951.78,-191.048C1948.64,-190.727 1945.53,-190.425 1942.5,-190.149 1687.05,-166.935 1617.16,-208.567 1366.5,-154.149 1317.35,-143.479 1264.27,-122.681 1225.3,-105.525"/>
<polygon fill="green" stroke="green" stroke-width="0.117455" points="1226.27,-102.124 1215.71,-101.25 1223.42,-108.517 1226.27,-102.124"/>
</g>
<!-- enemyRadar[LeftFront30] -->
<g id="node14" class="node"><title>enemyRadar[LeftFront30]</title>
<polygon fill="lightgray" stroke="black" points="217.5,-208.149 107.5,-208.149 107.5,-190.149 217.5,-190.149 217.5,-208.149"/>
<text text-anchor="middle" x="162.5" y="-196.949" font-family="Times,serif" font-size="9.00">enemyRadar[LeftFront30]</text>
</g>
<!-- enemyRadar[LeftFront30]&#45;&gt;Move Forward/Backward -->
<g id="edge10" class="edge"><title>enemyRadar[LeftFront30]&#45;&gt;Move Forward/Backward</title>
<path fill="none" stroke="green" stroke-width="0.797207" d="M217.644,-191.137C220.639,-190.794 223.605,-190.462 226.5,-190.149 401.763,-171.214 456.176,-215.336 621.5,-154.149 635.307,-149.039 648.959,-141.664 661.655,-133.493"/>
<polygon fill="green" stroke="green" stroke-width="0.797207" points="663.913,-136.194 670.282,-127.727 660.023,-130.374 663.913,-136.194"/>
</g>
<!-- enemyRadar[LeftFront30]&#45;&gt;Turn Left/Right -->
<g id="edge27" class="edge"><title>enemyRadar[LeftFront30]&#45;&gt;Turn Left/Right</title>
<path fill="none" stroke="green" stroke-width="0.385752" stroke-dasharray="1,5" d="M189.299,-190.084C253.148,-170.87 415.448,-122.027 503.146,-95.6356"/>
<polygon fill="green" stroke="green" stroke-width="0.385752" points="504.376,-98.9206 512.943,-92.6872 502.359,-92.2175 504.376,-98.9206"/>
</g>
<!-- enemyRadar[RightFront10] -->
<g id="node15" class="node"><title>enemyRadar[RightFront10]</title>
<polygon fill="lightgray" stroke="black" points="2200,-208.149 2085,-208.149 2085,-190.149 2200,-190.149 2200,-208.149"/>
<text text-anchor="middle" x="2142.5" y="-196.949" font-family="Times,serif" font-size="9.00">enemyRadar[RightFront10]</text>
</g>
<!-- enemyRadar[RightFront10]&#45;&gt;Shoot -->
<g id="edge16" class="edge"><title>enemyRadar[RightFront10]&#45;&gt;Shoot</title>
<path fill="none" stroke="green" stroke-width="0.403407" d="M2117.72,-190.084C2053.82,-169.293 1883.32,-113.812 1808.98,-89.6209"/>
<polygon fill="green" stroke="green" stroke-width="0.403407" points="1809.74,-86.1882 1799.15,-86.422 1807.58,-92.8446 1809.74,-86.1882"/>
</g>
<!-- enemyRadar[RightFront10]&#45;&gt;Jump/Crouch -->
<g id="edge38" class="edge"><title>enemyRadar[RightFront10]&#45;&gt;Jump/Crouch</title>
<path fill="none" stroke="green" stroke-width="0.511884" d="M2084.91,-191.118C2082.07,-190.787 2079.25,-190.462 2076.5,-190.149 1925.96,-173.033 1886.8,-179.935 1737.5,-154.149 1644.34,-138.06 1537.78,-110.447 1475.25,-93.285"/>
<polygon fill="green" stroke="green" stroke-width="0.511884" points="1476.17,-89.9089 1465.6,-90.6237 1474.31,-96.6569 1476.17,-89.9089"/>
</g>
<!-- enemyRadar[RightFront10]&#45;&gt;Move Left/Right -->
<g id="edge53" class="edge"><title>enemyRadar[RightFront10]&#45;&gt;Move Left/Right</title>
<path fill="none" stroke="red" stroke-width="0.434829" d="M2084.93,-190.931C2082.08,-190.649 2079.26,-190.386 2076.5,-190.149 1761.7,-163.123 1675.66,-219.366 1366.5,-154.149 1317.29,-143.768 1264.21,-122.952 1225.26,-105.715"/>
<polygon fill="red" stroke="red" stroke-width="0.434829" points="1226.23,-102.314 1215.67,-101.419 1223.37,-108.702 1226.23,-102.314"/>
</g>
<!-- enemyRadar[LeftFront10] -->
<g id="node16" class="node"><title>enemyRadar[LeftFront10]</title>
<polygon fill="lightgray" stroke="black" points="1222.5,-208.149 1112.5,-208.149 1112.5,-190.149 1222.5,-190.149 1222.5,-208.149"/>
<text text-anchor="middle" x="1167.5" y="-196.949" font-family="Times,serif" font-size="9.00">enemyRadar[LeftFront10]</text>
</g>
<!-- enemyRadar[LeftFront10]&#45;&gt;Jump/Crouch -->
<g id="edge8" class="edge"><title>enemyRadar[LeftFront10]&#45;&gt;Jump/Crouch</title>
<path fill="none" stroke="red" stroke-width="1.21787" stroke-dasharray="1,5" d="M1184.56,-190.084C1222.07,-172.352 1312.96,-129.387 1370.63,-102.121"/>
<polygon fill="red" stroke="red" stroke-width="1.21787" points="1372.4,-105.158 1379.94,-97.7198 1369.41,-98.8295 1372.4,-105.158"/>
</g>
<!-- enemyRadar[LeftFront10]&#45;&gt;Move Forward/Backward -->
<g id="edge35" class="edge"><title>enemyRadar[LeftFront10]&#45;&gt;Move Forward/Backward</title>
<path fill="none" stroke="green" stroke-width="0.529697" d="M1138.01,-190.084C1072.34,-172.121 911.989,-128.262 812.543,-101.062"/>
<polygon fill="green" stroke="green" stroke-width="0.529697" points="813.386,-97.6641 802.817,-98.4017 811.539,-104.416 813.386,-97.6641"/>
</g>
<!-- enemyRadar[LeftFront10]&#45;&gt;Move Left/Right -->
<g id="edge4" class="edge"><title>enemyRadar[LeftFront10]&#45;&gt;Move Left/Right</title>
<path fill="none" stroke="green" stroke-width="1.01785" d="M1167.5,-189.896C1167.5,-179.473 1167.5,-160.553 1167.5,-141.204"/>
<polygon fill="green" stroke="green" stroke-width="1.01785" points="1171,-141.089 1167.5,-131.089 1164,-141.089 1171,-141.089"/>
</g>
<!-- enemyRadar[RightFront3.5] -->
<g id="node17" class="node"><title>enemyRadar[RightFront3.5]</title>
<polygon fill="lightgray" stroke="black" points="1699,-208.149 1582,-208.149 1582,-190.149 1699,-190.149 1699,-208.149"/>
<text text-anchor="middle" x="1640.5" y="-196.949" font-family="Times,serif" font-size="9.00">enemyRadar[RightFront3.5]</text>
</g>
<!-- enemyRadar[RightFront3.5]&#45;&gt;Jump/Crouch -->
<g id="edge54" class="edge"><title>enemyRadar[RightFront3.5]&#45;&gt;Jump/Crouch</title>
<path fill="none" stroke="green" stroke-width="0.167455" d="M1625.79,-190.084C1594.55,-172.957 1520.38,-132.288 1470.54,-104.963"/>
<polygon fill="green" stroke="green" stroke-width="0.167455" points="1471.99,-101.764 1461.53,-100.025 1468.62,-107.902 1471.99,-101.764"/>
</g>
<!-- enemyRadar[RightFront3.5]&#45;&gt;Move Left/Right -->
<g id="edge25" class="edge"><title>enemyRadar[RightFront3.5]&#45;&gt;Move Left/Right</title>
<path fill="none" stroke="red" stroke-width="0.400379" d="M1581.9,-190.182C1513.9,-180.684 1406.05,-164.764 1366.5,-154.149 1318.09,-141.158 1265.17,-120.603 1226.08,-104.133"/>
<polygon fill="red" stroke="red" stroke-width="0.400379" points="1227.02,-100.731 1216.45,-100.04 1224.28,-107.173 1227.02,-100.731"/>
</g>
<!-- enemyRadar[LeftFront3.5] -->
<g id="node18" class="node"><title>enemyRadar[LeftFront3.5]</title>
<polygon fill="lightgray" stroke="black" points="1829.5,-208.149 1717.5,-208.149 1717.5,-190.149 1829.5,-190.149 1829.5,-208.149"/>
<text text-anchor="middle" x="1773.5" y="-196.949" font-family="Times,serif" font-size="9.00">enemyRadar[LeftFront3.5]</text>
</g>
<!-- enemyRadar[LeftFront3.5]&#45;&gt;Shoot -->
<g id="edge57" class="edge"><title>enemyRadar[LeftFront3.5]&#45;&gt;Shoot</title>
<path fill="none" stroke="red" stroke-width="0.378444" d="M1773.5,-189.896C1773.5,-174.554 1773.5,-140.799 1773.5,-114.366"/>
<polygon fill="red" stroke="red" stroke-width="0.378444" points="1777,-114.286 1773.5,-104.286 1770,-114.286 1777,-114.286"/>
</g>
<!-- enemyRadar[LeftFront3.5]&#45;&gt;Jump/Crouch -->
<g id="edge47" class="edge"><title>enemyRadar[LeftFront3.5]&#45;&gt;Jump/Crouch</title>
<path fill="none" stroke="red" stroke-width="0.241798" d="M1749.86,-190.084C1693.91,-170.998 1552.26,-122.679 1474.54,-96.1676"/>
<polygon fill="red" stroke="red" stroke-width="0.241798" points="1475.52,-92.8056 1464.93,-92.8896 1473.26,-99.4308 1475.52,-92.8056"/>
</g>
<!-- enemyRadar[LeftFront3.5]&#45;&gt;Move Forward/Backward -->
<g id="edge26" class="edge"><title>enemyRadar[LeftFront3.5]&#45;&gt;Move Forward/Backward</title>
<path fill="none" stroke="green" stroke-width="0.183345" d="M1717.36,-191.108C1714.02,-190.763 1710.72,-190.44 1707.5,-190.149 1440.11,-165.985 1370.72,-188.855 1104.5,-154.149 1003.53,-140.987 889.058,-116.413 813.221,-98.7525"/>
<polygon fill="green" stroke="green" stroke-width="0.183345" points="813.779,-95.2886 803.245,-96.4172 812.184,-102.104 813.779,-95.2886"/>
</g>
<!-- enemyRadar[RightFront1.5] -->
<g id="node19" class="node"><title>enemyRadar[RightFront1.5]</title>
<polygon fill="lightgray" stroke="black" points="353,-208.149 236,-208.149 236,-190.149 353,-190.149 353,-208.149"/>
<text text-anchor="middle" x="294.5" y="-196.949" font-family="Times,serif" font-size="9.00">enemyRadar[RightFront1.5]</text>
</g>
<!-- enemyRadar[RightFront1.5]&#45;&gt;Move Forward/Backward -->
<g id="edge55" class="edge"><title>enemyRadar[RightFront1.5]&#45;&gt;Move Forward/Backward</title>
<path fill="none" stroke="green" stroke-width="0.496064" d="M353.163,-190.995C443.895,-179.825 609.178,-159.012 621.5,-154.149 635.109,-148.778 648.62,-141.318 661.227,-133.154"/>
<polygon fill="green" stroke="green" stroke-width="0.496064" points="663.443,-135.882 669.8,-127.407 659.545,-130.068 663.443,-135.882"/>
</g>
<!-- enemyRadar[RightFront1.5]&#45;&gt;Turn Left/Right -->
<g id="edge15" class="edge"><title>enemyRadar[RightFront1.5]&#45;&gt;Turn Left/Right</title>
<path fill="none" stroke="green" stroke-width="0.475609" d="M312.433,-190.084C351.389,-172.565 445.114,-130.416 505.831,-103.11"/>
<polygon fill="green" stroke="green" stroke-width="0.475609" points="507.594,-106.155 515.279,-98.861 504.723,-99.7705 507.594,-106.155"/>
</g>
<!-- enemyRadar[LeftFront1.5] -->
<g id="node20" class="node"><title>enemyRadar[LeftFront1.5]</title>
<polygon fill="lightgray" stroke="black" points="2508.5,-208.149 2396.5,-208.149 2396.5,-190.149 2508.5,-190.149 2508.5,-208.149"/>
<text text-anchor="middle" x="2452.5" y="-196.949" font-family="Times,serif" font-size="9.00">enemyRadar[LeftFront1.5]</text>
</g>
<!-- OnTarget -->
<g id="node21" class="node"><title>OnTarget</title>
<polygon fill="lightgray" stroke="black" points="421.5,-208.149 371.5,-208.149 371.5,-190.149 421.5,-190.149 421.5,-208.149"/>
<text text-anchor="middle" x="396.5" y="-196.949" font-family="Times,serif" font-size="9.00">OnTarget</text>
</g>
<!-- OnTarget&#45;&gt;Move Left/Right -->
<g id="edge18" class="edge"><title>OnTarget&#45;&gt;Move Left/Right</title>
<path fill="none" stroke="red" stroke-width="0.528505" d="M421.672,-191.807C424.635,-191.185 427.627,-190.614 430.5,-190.149 607.585,-161.535 655.305,-182.074 832.5,-154.149 928.883,-138.96 1038.89,-112.115 1105.75,-94.7156"/>
<polygon fill="red" stroke="red" stroke-width="0.528505" points="1106.91,-98.0304 1115.7,-92.1135 1105.13,-91.2582 1106.91,-98.0304"/>
</g>
<!-- OnTarget&#45;&gt;Turn Left/Right -->
<g id="edge40" class="edge"><title>OnTarget&#45;&gt;Turn Left/Right</title>
<path fill="none" stroke="green" stroke-width="1.35545" stroke-dasharray="1,5" d="M407.582,-190.084C428.743,-174.686 476.052,-140.258 512.674,-113.607"/>
<polygon fill="green" stroke="green" stroke-width="1.35545" points="514.758,-116.419 520.784,-107.705 510.639,-110.759 514.758,-116.419"/>
</g>
<!-- Health -->
<g id="node22" class="node"><title>Health</title>
<polygon fill="lightgray" stroke="black" points="479.5,-208.149 439.5,-208.149 439.5,-190.149 479.5,-190.149 479.5,-208.149"/>
<text text-anchor="middle" x="459.5" y="-196.949" font-family="Times,serif" font-size="9.00">Health</text>
</g>
<!-- Health&#45;&gt;Move Left/Right -->
<g id="edge49" class="edge"><title>Health&#45;&gt;Move Left/Right</title>
<path fill="none" stroke="green" stroke-width="0.275888" d="M479.682,-192.124C482.622,-191.38 485.626,-190.692 488.5,-190.149 639.552,-161.613 680.833,-179.215 832.5,-154.149 928.767,-138.24 1038.81,-111.595 1105.7,-94.434"/>
<polygon fill="green" stroke="green" stroke-width="0.275888" points="1106.85,-97.7539 1115.66,-91.8689 1105.1,-90.9754 1106.85,-97.7539"/>
</g>
<!-- Health&#45;&gt;Turn Left/Right -->
<g id="edge36" class="edge"><title>Health&#45;&gt;Turn Left/Right</title>
<path fill="none" stroke="green" stroke-width="0.126329" d="M466.511,-189.896C477.964,-176.413 501.495,-148.712 522.271,-124.256"/>
<polygon fill="green" stroke="green" stroke-width="0.126329" points="525.093,-126.339 528.9,-116.451 519.758,-121.807 525.093,-126.339"/>
</g>
<!-- TakingDmg -->
<g id="node23" class="node"><title>TakingDmg</title>
<polygon fill="lightgray" stroke="black" points="2378,-208.149 2319,-208.149 2319,-190.149 2378,-190.149 2378,-208.149"/>
<text text-anchor="middle" x="2348.5" y="-196.949" font-family="Times,serif" font-size="9.00">TakingDmg</text>
</g>
<!-- TakingDmg&#45;&gt;Shoot -->
<g id="edge42" class="edge"><title>TakingDmg&#45;&gt;Shoot</title>
<path fill="none" stroke="red" stroke-width="0.208706" d="M2318.63,-191.856C2315.88,-191.278 2313.14,-190.703 2310.5,-190.149 2121.95,-150.627 1896.1,-103.59 1809.61,-85.5884"/>
<polygon fill="red" stroke="red" stroke-width="0.208706" points="1810.27,-82.1506 1799.77,-83.5396 1808.84,-89.0038 1810.27,-82.1506"/>
</g>
<!-- bias -->
<g id="node24" class="node"><title>bias</title>
<polygon fill="lightgray" stroke="black" points="1360,-208.149 1329,-208.149 1329,-190.149 1360,-190.149 1360,-208.149"/>
<text text-anchor="middle" x="1344.5" y="-196.949" font-family="Times,serif" font-size="9.00">bias</text>
</g>
<!-- bias&#45;&gt;Shoot -->
<g id="edge24" class="edge"><title>bias&#45;&gt;Shoot</title>
<path fill="none" stroke="green" stroke-width="0.421003" d="M1360.07,-193.062C1363.19,-192.074 1366.44,-191.062 1369.5,-190.149 1504.78,-149.758 1666.98,-106.236 1737.65,-87.514"/>
<polygon fill="green" stroke="green" stroke-width="0.421003" points="1738.63,-90.8762 1747.4,-84.935 1736.84,-84.109 1738.63,-90.8762"/>
</g>
<!-- bias&#45;&gt;Turn Left/Right -->
<g id="edge34" class="edge"><title>bias&#45;&gt;Turn Left/Right</title>
<path fill="none" stroke="red" stroke-width="0.417921" stroke-dasharray="1,5" d="M1328.79,-192.447C1325.74,-191.535 1322.55,-190.708 1319.5,-190.149 1171.32,-162.968 781.053,-213.315 642.5,-154.149 626.926,-147.499 612.508,-136.464 600.286,-124.834"/>
<polygon fill="red" stroke="red" stroke-width="0.417921" points="602.525,-122.125 592.968,-117.55 597.586,-127.086 602.525,-122.125"/>
</g>
<!-- Move Forward/Backward&#45;&gt;Move Forward/Backward -->
<g id="edge46" class="edge"><title>Move Forward/Backward&#45;&gt;Move Forward/Backward</title>
<path fill="none" stroke="red" stroke-width="0.101707" stroke-dasharray="1,5" d="M802.644,-98.3357C815.029,-95.3609 823.575,-88.2739 823.575,-77.0746 823.575,-69.0252 819.16,-63.1001 812.078,-59.2995"/>
<polygon fill="red" stroke="red" stroke-width="0.101707" points="813.238,-55.9966 802.644,-55.8136 810.811,-62.5627 813.238,-55.9966"/>
</g>
<!-- Move Left/Right&#45;&gt;Move Left/Right -->
<g id="edge11" class="edge"><title>Move Left/Right&#45;&gt;Move Left/Right</title>
<path fill="none" stroke="red" stroke-width="0.377381" stroke-dasharray="1,5" d="M1216.45,-99.7486C1229.42,-98.4529 1239.24,-90.895 1239.24,-77.0746 1239.24,-67.0333 1234.06,-60.2978 1226.25,-56.8682"/>
<polygon fill="red" stroke="red" stroke-width="0.377381" points="1227.01,-53.45 1216.45,-54.4007 1225.3,-60.2379 1227.01,-53.45"/>
</g>
</g>
</svg>
